<?xml version="1.0" standalone="no"?>
<!DOCTYPE svg PUBLIC "-//W3C//DTD SVG 20010904//EN"
 "http://www.w3.org/TR/2001/REC-SVG-20010904/DTD/svg10.dtd">
<svg version="1.0" xmlns="http://www.w3.org/2000/svg"
 width="2384.000000pt" height="2384.000000pt" viewBox="0 0 2384.000000 2384.000000"
 preserveAspectRatio="xMidYMid meet">
<metadata>
Created by potrace 1.11, written by Peter Selinger 2001-2013
</metadata>
<g transform="translate(0.000000,2384.000000) scale(0.100000,-0.100000)"
fill="#000000" stroke="none">
<path d="M0 14974 c0 -7089 3 -8864 12 -8858 7 5 1342 975 2967 2156 l2954
2148 1728 0 c951 0 1729 -2 1729 -4 0 -3 -1037 -1002 -2305 -2220 l-2305
-2216 -2390 0 c-2383 0 -2390 0 -2390 -20 0 -20 7 -20 2365 -20 1301 0 2365
-3 2365 -6 0 -3 -772 -989 -1716 -2190 l-1716 -2184 -649 0 -649 0 0 -25 0
-25 630 0 c347 0 630 -3 630 -8 0 -7 -441 -1310 -485 -1435 l-25 -67 11545 0
11545 0 0 11920 0 11920 -4722 0 -4723 0 -1205 -2220 -1204 -2220 -974 0 -973
0 25 43 c13 23 428 782 921 1687 494 905 1028 1883 1186 2173 159 290 289 530
289 532 0 3 -2803 5 -6230 5 l-6230 0 0 -8866z m11677 3904 c-155 -260 -743
-1246 -1307 -2190 l-1024 -1718 -854 0 -854 0 29 53 c16 28 550 1014 1187
2190 l1159 2137 973 0 973 0 -282 -472z m-2353 -4140 c9 -276 78 -4270 73
-4274 -2 -2 -778 -3 -1724 -2 l-1720 3 830 2228 830 2227 853 0 852 0 6 -182z"/>
</g>
</svg>
