<svg xmlns="http://www.w3.org/2000/svg" viewBox="0 0 1698.1 109.97"><defs><style>.cls-1{opacity:0.82;}.cls-2{fill:#e96b41;}.cls-2,.cls-3,.cls-4,.cls-5,.cls-6,.cls-7,.cls-8,.cls-9{stroke:#000;stroke-miterlimit:10;stroke-width:4px;}.cls-3{fill:#e59b96;}.cls-4{fill:#e7ce6c;}.cls-5{fill:#658f63;}.cls-6{fill:#8ea8a3;}.cls-7{fill:#e09993;}.cls-8{fill:#ecd862;}.cls-9{fill:#eb7347;}</style></defs><title>bc1750</title><g id="Layer_1" data-name="Layer 1" class="cls-1"><g id="_1850_BC" data-name="1850 BC"><g id="nations"><polygon id="aegeans" class="cls-2" points="386.2 3.03 2.24 3.49 2.26 -107.75 326.19 -107.75 386.2 3.03"/><polygon id="egyptians" class="cls-3" points="710.7 3.32 386.2 3.03 326.19 -107.75 865.52 -107.75 710.7 3.32"/><polygon id="hitities" class="cls-4" points="836.7 4.08 710.7 3.32 865.52 -107.75 951.29 -107.75 836.7 4.08"/><polygon id="amorites" class="cls-5" points="1122.7 4.08 836.7 4.08 950.62 -108.34 1203.71 -107.75 1122.7 4.08"/><polygon id="iranians" class="cls-6" points="1363.2 4.08 1122.7 4.08 1204.37 -107.16 1386.19 -107.16 1363.2 4.08"/><polygon id="indians" class="cls-7" points="1440.44 3.79 1363.2 4.08 1386.19 -107.16 1478.18 -107.57 1440.44 3.79"/><polygon id="huns" class="cls-8" points="1546.2 3.59 1440.44 3.79 1478.18 -107.57 1570.19 -107.16 1546.2 3.59"/><polygon id="chinese" class="cls-9" points="1697.16 2.9 1546.2 3.59 1570.19 -107.16 1697.17 -107.75 1697.16 2.9"/></g></g><g id="_1800_BC" data-name="1800 BC"><g id="nations-2" data-name="nations"><polygon id="aegeans-2" data-name="aegeans" class="cls-2" points="345.2 115.91 1.26 115.91 1.24 4.67 385.2 5.14 345.2 115.91"/><polygon id="egyptians-2" data-name="egyptians" class="cls-3" points="589.87 115.91 345.2 115.91 385.2 5.14 709.7 4.85 589.87 115.91"/><polygon id="hitities-2" data-name="hitities" class="cls-4" points="746.53 115.91 589.87 115.91 709.7 4.85 835.7 4.08 746.53 115.91"/><polygon id="amorites-2" data-name="amorites" class="cls-5" points="1059.87 115.91 746.53 115.91 835.7 4.08 1121.7 4.08 1059.87 115.91"/><polygon id="iranians-2" data-name="iranians" class="cls-6" points="1307.87 115.46 1059.87 115.91 1121.7 4.08 1362.2 4.08 1307.87 115.46"/><polygon id="indians-2" data-name="indians" class="cls-7" points="1439.44 115.67 1307.87 115.46 1362.2 4.08 1439.44 4.38 1439.44 115.67"/><polygon id="huns-2" data-name="huns" class="cls-8" points="1555.21 115.36 1439.44 115.67 1439.44 4.38 1545.2 4.58 1555.21 115.36"/><polygon id="chinese-2" data-name="chinese" class="cls-9" points="1696.17 115.91 1555.21 115.36 1545.2 4.58 1696.16 5.26 1696.17 115.91"/></g></g></g></svg>