<svg xmlns="http://www.w3.org/2000/svg" viewBox="0 0 1847.91 105"><title>bc0050text</title><g id="YEARS"><g id="Right"><path d="M1800.43,96.17h2.81v.49a2.35,2.35,0,0,0,2.42,2.6c2.08,0,2.62-2,2.62-4.19s-.57-3.92-2.47-3.92a2.35,2.35,0,0,0-2.42,1.69l-2.62-.11.91-9.64h8.86v2.36h-6.65l-.6,4.84,0,0a4.06,4.06,0,0,1,3.09-1.43c3.85,0,4.82,3.25,4.82,6.09,0,3.69-1.69,6.5-5.67,6.5-3.31,0-5.15-1.69-5.15-4.94Z" fill="#3b4351"/><path d="M1818.32,82.72c3.53,0,5.51,2.21,5.51,9.39s-2,9.39-5.51,9.39-5.51-2.21-5.51-9.39S1814.78,82.72,1818.32,82.72Zm0,16.7c2,0,2.54-2,2.54-7.31s-.54-7.31-2.54-7.31-2.55,2-2.55,7.31S1816.31,99.42,1818.32,99.42Z" fill="#3b4351"/></g><g id="left"><path d="M25.39,98.07H28.2v.5a2.35,2.35,0,0,0,2.42,2.6c2.08,0,2.63-2,2.63-4.19s-.58-3.93-2.47-3.93a2.35,2.35,0,0,0-2.42,1.69l-2.63-.1L26.64,85h8.87v2.37H28.85l-.6,4.84.06,0a4,4,0,0,1,3.09-1.43c3.85,0,4.81,3.25,4.81,6.08,0,3.69-1.69,6.5-5.67,6.5-3.3,0-5.15-1.69-5.15-4.94Z" fill="#3b4351"/><path d="M43.28,84.63c3.54,0,5.51,2.21,5.51,9.39s-2,9.38-5.51,9.38-5.51-2.21-5.51-9.38S39.75,84.63,43.28,84.63Zm0,16.69c2,0,2.55-2,2.55-7.3s-.55-7.31-2.55-7.31-2.55,2-2.55,7.31S41.28,101.32,43.28,101.32Z" fill="#3b4351"/></g></g><g id="Nation_OUtlines" data-name="Nation OUtlines"><polygon id="Romans" points="854.62 3591.83 829.93 3478.83 711.95 3369.83 764.62 3255.83 729.95 3140.83 845.28 3029.83 1002.62 2917.83 1065.29 2803.83 1021.28 2692.83 995.34 2575.83 815.28 2467.83 703.28 2356.83 687.28 2241.83 737.95 2127.83 780.62 2015.83 712.62 1904.83 645.95 1790.83 550.62 1677.83 491.95 1568 453.95 1455 455.29 1343 435.95 1228 470.62 1120 322.62 1120 416.12 1007 480.12 897 410.62 785 316.95 671 248.28 556 210.28 445 175.95 334 159.62 218 91.28 105 83.12 0 117.62 -114 151.37 -228 129.62 -338 109.62 -453 99.62 -565 73.12 -675 75.42 -1573 85.95 -1463 95.28 -1351 111.95 -1239 116.62 -1128 137.95 -1015 149.95 -899 169.95 -787 205.28 -675 231.95 -565 287.74 -453 467.73 -338 683.72 -228 998.71 -114 1118.7 0 1131.14 105 1195.2 218 1182.62 334 1245.62 445 1220.62 556 1122.62 671 981.62 785 880.12 897 717.95 1007 593.62 1120 616.62 1228 717.28 1343 839.28 1457.84 863.28 1568 915.28 1677.83 810.62 1790.83 885.95 1904.83 1037.95 2015.83 1125.95 2127.83 1253.95 2241.83 1213.95 2356.83 1202.62 2467.83 1169.95 2575.83 1161.29 2692.83 1218.62 2803.83 1131.95 2917.83 936.62 3029.83 798.62 3140.83 819.28 3255.83 759.95 3369.83 849.28 3478.83 854.62 3591.83" fill="none" stroke="#3b4351" stroke-miterlimit="10"/><polygon id="Indians" points="1372.19 -1908.83 1294.19 -2023 1285.19 -2136 1313.69 -2247 1348.19 -2360 1310.69 -2474 1298.69 -2584 1313.69 -2696 1345.19 -2808 1325.69 -2922 1343.69 -3036 1417.19 -3147 1400.69 -3260.08 1429.19 -3373 1419.27 -3488.27 1387.19 -3600 1387.19 -3712 1438.19 -3822.5 1462.18 -3934.5 1480.18 -4047.54 1445.82 -4157.83 1411.11 -4269.83 1545.86 -4269.83 1580.1 -4157.83 1593.12 -4047.6 1552.12 -3934.5 1514.62 -3822.5 1514.12 -3712.33 1553.12 -3600.27 1548.12 -3488 1519.62 -3373 1534.12 -3259.33 1575.12 -3147 1559.62 -3036 1564.12 -2922.27 1534.62 -2808 1486.12 -2696 1465.12 -2584 1471.12 -2474.83 1502.12 -2360.83 1508.12 -2247 1534.62 -2136 1542.77 -2057.14 1555.62 -1908.83 1554.62 -1800 1567.12 -1688 1542.12 -1573.27 1498.12 -1463 1490.62 -1351 1513.12 -1239 1568.62 -1128 1544.12 -1015 1530.62 -899.27 1523.62 -787.27 1532.62 -675 1565.12 -565 1543.62 -453 1514.12 -338 1490.12 -228.27 1495.62 -114 1517.12 -0.33 1528.12 105 1580.62 217.67 1578.12 333.67 1578.12 444.17 1560.12 555.73 1526.62 671 1467.62 785 1381.62 896.73 1270.62 1007 1090.12 1119.73 860.62 1228 1302.12 1343 1377.03 1455 1550.62 1568 1519.62 1677.83 1476.12 1790.83 1516.13 1904.83 1534.62 2017.17 1552.65 2127.83 1585.62 2241.73 1620.12 2356.83 1650.12 2467.83 1630.62 2575.73 1622.45 2692.73 1565.62 2803.83 1402.62 2917.17 1173.62 3029.83 1148.62 3140.83 1334.62 3255.83 1283.62 3369.83 1344.62 3478.83 1544.62 3591.83 1602.62 3706.17 1627.62 3817.83 1674.62 3930.73 1627.62 4045.83 1634.62 4157.83 1686.62 4269.83 1701.62 4382.83 1620.12 4494.83 1606.12 4605.83 1606.12 4719.66 1552.62 4719.66 1549.52 4605.83 1569.62 4494.83 1683.62 4382.83 1667.62 4269.83 1607.62 4157.83 1596.62 4045.17 1617.62 3930.83 1584.62 3817.83 1562.62 3705.83 1507.62 3591.83 1304.62 3478.73 1225.62 3369.73 1236.97 3332.78 1264.87 3255.83 1082.62 3140.83 1084.2 3030.34 1323.62 2917.83 1500.47 2803.73 1573.62 2692.83 1600.62 2575.83 1604.62 2467.83 1569.62 2356.83 1514.62 2241.83 1447.62 2127.73 1418.62 2015.83 1404.62 1904.83 1367.62 1790.83 1397.62 1677.83 1418.62 1567.73 1339.62 1454.73 1246.62 1343 748.62 1228 753.62 1120 910.76 1007 1053.62 897 1195.2 785 1311.62 670.17 1353.62 556 1348.62 445 1364.62 333.17 1406.62 218 1401.62 105 1429.62 0 1394.62 -114.27 1393.2 -228 1391.82 -338.27 1437.52 -453 1513.62 -565.27 1505.64 -675 1472.62 -786.83 1447.62 -899 1440.63 -1015 1462.62 -1128 1391.1 -1239 1348.62 -1351 1332.62 -1463 1376.98 -1573 1375.34 -1688.27 1373.74 -1800.27 1372.19 -1908.83" fill="none" stroke="#3b4351" stroke-miterlimit="10"/><polygon id="Huns" points="1555.62 -1908.83 1545.73 -2023 1533.62 -2136.33 1506.68 -2246.36 1502.16 -2360 1471.34 -2474 1465.12 -2584 1486.12 -2696 1534.62 -2808 1564.05 -2922 1559.62 -3036 1575.12 -3147 1534.24 -3259 1519.62 -3373 1548.12 -3488 1553.11 -3600 1514.47 -3712.27 1514.62 -3824.5 1552.12 -3934.5 1593.12 -4047.16 1580.1 -4157.83 1545.86 -4269.83 1633.99 -4269.83 1651.62 -4157.83 1667.62 -4047.16 1646.62 -3934.5 1620.62 -3822.5 1630.4 -3714.4 1650.62 -3600.33 1676.62 -3488 1700.12 -3373 1689.12 -3259 1714.62 -3147.33 1697.12 -3036.27 1645.62 -2922.27 1616.12 -2808 1586.62 -2696.27 1538.12 -2584.27 1509.12 -2474 1551.62 -2360 1585.12 -2247 1608.62 -2136.33 1609.69 -2023.27 1610.76 -1910.27 1613.62 -1800.27 1625.12 -1688.27 1599.12 -1572.33 1557.59 -1463 1545.65 -1351 1558.62 -1239 1584.62 -1128.27 1571.12 -1014.83 1576.62 -899 1567.62 -787 1587.12 -675 1621.12 -565 1612.12 -453 1556.12 -338 1528.62 -228 1529.62 -114 1553.62 0 1616.07 105 1609.25 218 1592.66 334 1611.01 444.73 1612.12 556 1598.04 671 1564.12 785 1534.29 897 1602.12 1006.73 1653.62 1120 1673.62 1228 1666.12 1343 1668.12 1454.67 1625.62 1567.67 1542.12 1677.83 1476.12 1790.83 1519.62 1677.83 1550.62 1568 1376.62 1454.73 1302.12 1343 860.62 1228 1090.12 1119.73 1270.62 1007 1381.62 896.73 1467.62 785 1526.62 671 1560.12 555.73 1578.12 444.17 1578.12 333.67 1580.62 217.67 1528.12 105 1517.12 -0.33 1495.62 -114 1490.12 -228.27 1514.12 -338 1543.62 -453 1565.12 -565 1532.62 -675 1523.62 -787.27 1530.62 -899.27 1544.12 -1015 1568.62 -1128 1513.12 -1239 1490.62 -1351 1498.12 -1463 1542.12 -1573.27 1567.12 -1688 1554.62 -1800 1555.62 -1908.83" fill="none" stroke="#3b4351" stroke-miterlimit="10"/><polygon id="Greeks" points="1131.14 105 1118.7 0 998.71 -114 683.72 -228 467.73 -338 287.74 -453 231.95 -565 205.28 -675 169.95 -787 149.95 -899 137.95 -1015 116.62 -1128 111.95 -1239 95.28 -1351 85.95 -1463 75.42 -1573 75.42 -1746.33 75.42 -3036 142.25 -2922 145.25 -2808 155.75 -2696 172.25 -2584 202.25 -2474 223.25 -2360 251.62 -2247 250.62 -2136 221.95 -2022.16 228.6 -1910.27 199.95 -1800.16 217.95 -1688.16 237.43 -1573 262.62 -1463 259.95 -1351 319.29 -1239 349.95 -1128 401.29 -1015 527.28 -899 645.95 -787 761.95 -675 965.29 -565 965.95 -453 897.95 -338.83 910.76 -228.27 1099.37 -114 1168.66 0.09 1131.14 105" fill="none" stroke="#3b4351" stroke-miterlimit="10"/><polygon id="Egyptians" points="1195.2 215.31 1131.14 105 1168.66 0.09 1099.2 -114.27 910.76 -228.27 897.95 -338.83 965.95 -453 965.28 -565.5 761.95 -675 645.95 -787 527.28 -899 401.29 -1015 349.95 -1128 319.29 -1239 259.95 -1351 262.62 -1463 238.62 -1573 217.95 -1688 199.95 -1800 228.62 -1910 221.62 -2023 250.62 -2136 251.62 -2247 223.25 -2360 271.57 -2474 265.25 -2584 305.74 -2696 341.74 -2808 376.24 -2922 440.74 -3036 467.73 -3146.09 443.74 -3259 381.96 -3373 242.75 -3488 298.62 -3600 424.24 -3712 460.24 -3822.5 397.24 -3934.5 319.24 -4047.16 319.24 -4157.83 298.62 -4269.83 1103.77 -4269.83 1042.62 -4157.83 982.62 -4047.16 940.62 -3934.5 786.62 -3822.5 663.62 -3712 633.62 -3600 662.62 -3488 656.62 -3373.08 733.62 -3259.27 800.62 -3147.83 770.62 -3036 750.62 -2922 785.62 -2808 835.62 -2696 742.62 -2584 658.62 -2474 439.62 -2360 400.62 -2247 361.62 -2136 302.62 -2023 310.62 -1910 282.62 -1800 271.95 -1688 305.95 -1463 323.95 -1351.5 432.62 -1239 476.62 -1128.83 451.95 -1015 555.95 -899 667.28 -787 813.28 -675 968.62 -565 995.95 -453 968.62 -338.16 940.62 -229.5 1130.91 -114.27 1189.62 0.67 1157.7 105 1195.2 215.31" fill="none" stroke="#3b4351" stroke-miterlimit="10"/><polygon id="Chinese" points="1610.76 -1910.27 1609.69 -2023.27 1608.62 -2136.33 1585.12 -2247 1551.62 -2360 1509.12 -2474 1538.12 -2584.27 1586.62 -2696.27 1616.12 -2808 1645.62 -2922.27 1697.12 -3036.27 1714.62 -3147.33 1689.12 -3259 1700.12 -3373 1676.62 -3488 1650.62 -3600.33 1630.62 -3712 1620.62 -3822.5 1646.62 -3934.5 1667.62 -4047.16 1651.62 -4157.83 1633.99 -4269.83 1768.79 -4269.83 1768.79 3930.83 1768.79 4045.73 1766.12 4157.83 1757.62 4269.83 1736.12 4382.73 1676.12 4494.73 1661.12 4605.83 1663.62 4719.66 1606.12 4719.66 1606.12 4605.73 1620.12 4494.83 1701.62 4382.83 1696.12 4269.67 1654.12 4157.83 1681.62 4045.83 1739.62 3930.73 1748.62 3817.67 1744.12 3705.67 1685.62 3591.83 1615.12 3481.17 1636.12 3369.83 1738.62 3255.83 1761.12 3140.83 1758.62 3029.83 1732.12 2917.83 1695.62 2803.83 1667.62 2692.83 1651.12 2575.83 1650.12 2467.83 1620.12 2356.83 1585.62 2241.73 1552.62 2127.73 1535.12 2015.83 1516.12 1904.73 1476.12 1790.83 1542.12 1677.83 1625.62 1567.67 1668.12 1454.67 1666.12 1343 1673.62 1228 1653.62 1120 1602.12 1006.73 1534.12 896.73 1564.12 785 1598.12 670.73 1612.12 556 1611.01 444.73 1592.62 333.73 1609.25 218 1616.07 105 1553.62 0 1529.62 -114 1528.62 -228.27 1555.62 -338 1612.12 -453 1621.12 -565 1587.12 -675 1567.62 -787 1576.62 -899 1571.12 -1015 1584.62 -1128.27 1558.62 -1239 1545.62 -1351.27 1557.62 -1463.27 1599.62 -1573 1625.12 -1688.27 1613.62 -1800.27 1610.76 -1910.27" fill="none" stroke="#3b4351" stroke-miterlimit="10"/><polygon id="Teutons_-Goths" data-name="Teutons -Goths" points="712.62 1904.83 392.87 1790.83 333.12 1677.83 298.12 1568 257.62 1455 192.12 1343 189.69 1228 168.12 1120 138.62 1009.41 101.12 897 73.12 787.67 73.12 -675 99.62 -565 109.62 -453 129.3 -335.61 151.37 -228 117.62 -114 83.12 0 91.28 105 159.62 218 175.95 334 210.28 445 248.28 556 316.95 671 410.62 785 480.12 897 416.12 1007 322.62 1120 328.12 1228 455.29 1343 453.95 1455 425.12 1568 461.12 1677.83 536.62 1790.83 712.62 1904.83" fill="none" stroke="#3b4351" stroke-miterlimit="10"/><polygon id="Carthaginians" points="1333.62 -224.4 1218.62 -114 1189.62 0.67 1130.91 -114.27 1186.62 -228 1225.12 -338 1219.62 -453 1391.82 -338.27 1333.62 -224.4" fill="none" stroke="#3b4351" stroke-miterlimit="10"/><polygon id="Bactri" points="1394.62 -114.27 1429.62 0 1401.62 105 1363.19 0 1341.62 -114 1333.62 -224.4 1391.82 -338.27 1393.2 -228 1394.62 -114.27" fill="none" stroke="#3b4351" stroke-miterlimit="10"/><polygon id="Parthian_empire" data-name="Parthian empire" points="1245.62 445 1182.62 334 1195.2 215.31 1157.7 105 1189.62 0.67 1218.62 -114 1333.62 -224.4 1341.62 -114 1363.19 0 1401.62 105 1406.62 218 1364.62 333.17 1348.62 445 1353.62 556 1311.62 670.17 1220.62 556 1245.62 445" fill="none" stroke="#3b4351" stroke-miterlimit="10"/></g><g id="Text"><g id="Romans-2" data-name="Romans"><path d="M122.33,96.11V97c0,1.42.29,2.64,1.86,2.64,1.87,0,1.87-1.71,1.87-3.48V83.88h2.79V96.55c0,3.87-1.91,5.17-4.71,5.17-3.6,0-4.38-2.2-4.46-4.48V96.11Z" fill="#3b4351"/><path d="M138.18,99.83h-.07a3.77,3.77,0,0,1-3.38,1.89c-2,0-3.29-.9-3.29-4.31V88.2h2.65v9.45c0,1.47.64,2,1.79,2a2.06,2.06,0,0,0,2.16-2.2V88.2h2.64v13.18h-2.5Z" fill="#3b4351"/><path d="M143.35,83.88H146v17.5h-2.65Z" fill="#3b4351"/><path d="M148.79,83.69h2.64v2.64h-2.64Zm0,4.51h2.64v13.18h-2.64Z" fill="#3b4351"/><path d="M160.84,99.83h-.07a3.77,3.77,0,0,1-3.38,1.89c-2,0-3.29-.9-3.29-4.31V88.2h2.65v9.45c0,1.47.64,2,1.79,2a2.06,2.06,0,0,0,2.16-2.2V88.2h2.64v13.18h-2.5Z" fill="#3b4351"/><path d="M171.57,92V91.7c0-1-.36-2-1.74-2-1.05,0-1.88.46-1.88,1.71,0,1.05.46,1.45,1.86,1.94l1.69.58c2,.67,2.87,1.72,2.87,3.8,0,2.82-2.09,4-4.73,4-3.33,0-4.34-1.54-4.34-4.09v-.49h2.35v.42c0,1.54.52,2.35,2.06,2.35s2.16-.74,2.16-1.94A1.91,1.91,0,0,0,170.42,96l-2.15-.76c-2-.66-2.82-1.69-2.82-3.8,0-2.48,1.76-3.63,4.51-3.63,3.35,0,4.11,2,4.11,3.6V92Z" fill="#3b4351"/><path d="M193.13,95.11v.36c0,3.16-1.29,6.25-5.39,6.25-4.41,0-5.78-2.84-5.78-9.09s1.37-9.09,5.81-9.09c5,0,5.27,3.65,5.27,5.49v.32h-2.8v-.3c0-1.64-.49-3.48-2.5-3.4s-3,1.27-3,6.91.91,7,3,7c2.36,0,2.6-2.57,2.6-4.21v-.29Z" fill="#3b4351"/><path d="M203.57,98.63c0,.49.3.94.69.94a1,1,0,0,0,.44-.08v1.72a2.86,2.86,0,0,1-1.3.32c-1.18,0-2.16-.47-2.23-1.74h0a3.41,3.41,0,0,1-3.28,1.93c-2.14,0-3.43-1.15-3.43-3.7,0-2.94,1.29-3.55,3.06-4.14l2.06-.56c.95-.27,1.54-.54,1.54-1.69s-.41-2-1.81-2c-1.77,0-2,1.25-2,2.52h-2.5c0-2.82,1.15-4.34,4.63-4.34,2.33,0,4.19.91,4.19,3.24Zm-2.5-4.21a20,20,0,0,1-2.94,1.22,2.18,2.18,0,0,0-1.08,2.14c0,1.1.54,2,1.64,2,1.6,0,2.38-1.18,2.38-3.14Z" fill="#3b4351"/><path d="M208.54,95.13v.76c0,1.76.22,4,2.21,4s2.11-2.13,2.11-2.94h2.5c0,3-1.77,4.75-4.64,4.75-2.15,0-4.82-.64-4.82-6.74,0-3.45.76-7.13,4.87-7.13,3.68,0,4.66,2.23,4.66,5.88v1.4Zm4.24-1.81v-.71c0-1.67-.54-2.94-2-2.94-1.67,0-2.21,1.66-2.21,3.38v.27Z" fill="#3b4351"/><path d="M223.29,92V91.7c0-1-.37-2-1.74-2-1.05,0-1.88.46-1.88,1.71,0,1.05.46,1.45,1.86,1.94l1.69.58c2,.67,2.87,1.72,2.87,3.8,0,2.82-2.09,4-4.73,4-3.34,0-4.34-1.54-4.34-4.09v-.49h2.35v.42c0,1.54.52,2.35,2.06,2.35s2.16-.74,2.16-1.94A1.91,1.91,0,0,0,222.14,96L220,95.28c-2-.66-2.81-1.69-2.81-3.8,0-2.48,1.76-3.63,4.51-3.63,3.35,0,4.11,2,4.11,3.6V92Z" fill="#3b4351"/><path d="M236.69,98.63c0,.49.3.94.69.94a1,1,0,0,0,.44-.08v1.72a2.83,2.83,0,0,1-1.3.32c-1.17,0-2.15-.47-2.23-1.74h0a3.41,3.41,0,0,1-3.28,1.93c-2.13,0-3.43-1.15-3.43-3.7,0-2.94,1.3-3.55,3.06-4.14l2.06-.56c1-.27,1.55-.54,1.55-1.69s-.42-2-1.82-2c-1.76,0-2,1.25-2,2.52h-2.5c0-2.82,1.15-4.34,4.63-4.34,2.33,0,4.19.91,4.19,3.24Zm-2.49-4.21a20.57,20.57,0,0,1-2.95,1.22,2.17,2.17,0,0,0-1.07,2.14c0,1.1.54,2,1.64,2,1.59,0,2.38-1.18,2.38-3.14Z" fill="#3b4351"/><path d="M239.39,88.2H242v2h.05a3.26,3.26,0,0,1,3.07-2.4,1.5,1.5,0,0,1,.63.1v2.7a3.42,3.42,0,0,0-1.1-.15c-1.2,0-2.65.54-2.65,3v7.89h-2.64Z" fill="#3b4351"/></g><g id="Indians-2" data-name="Indians"><path d="M1395.72,56.73h2.79V74.22h-2.79Z" fill="#3b4351"/><path d="M1401.11,61h2.5v1.54h.07a3.78,3.78,0,0,1,3.38-1.88c2,0,3.29.9,3.29,3.57v10h-2.65v-9c0-1.76-.47-2.38-1.84-2.38-1.08,0-2.11.81-2.11,2.58v8.84h-2.64Z" fill="#3b4351"/><path d="M1419.63,72.61h-.05a2.83,2.83,0,0,1-2.89,2c-3.06,0-4.31-2.6-4.31-7.11,0-5.86,2-6.76,4.06-6.76a3,3,0,0,1,3,1.88h0V56.73h2.65V74.22h-2.5Zm-2.4-9.81c-1.5,0-2.06,1.23-2.06,4.78,0,3,.37,4.88,2.23,4.88s2.23-1.84,2.23-4.68C1419.63,64.62,1419.29,62.8,1417.23,62.8Z" fill="#3b4351"/><path d="M1424.16,67.63c0-4.12,1.08-6.93,4.9-6.93s4.93,2.81,4.93,6.93-1.28,6.94-4.93,6.94S1424.16,71.75,1424.16,67.63Zm4.9,5c1.94,0,2.28-1.62,2.28-5,0-2.92-.34-5-2.28-5s-2.25,2-2.25,5C1426.81,71,1427.17,72.61,1429.06,72.61Z" fill="#3b4351"/><path d="M1435.85,65.89h6.42v2.5h-6.42Z" fill="#3b4351"/><path d="M1447,68.81v.44c0,2.13,1,3.21,2.87,3.21a2.51,2.51,0,0,0,2.64-2.55c0-1.84-.93-2.65-2.5-3.11l-1.91-.66c-2.55-1-3.65-2.31-3.65-4.81,0-3.18,2.18-4.95,5.44-4.95,4.49,0,5,2.8,5,4.61v.39H1452V61c0-1.59-.69-2.52-2.45-2.52a2.24,2.24,0,0,0-2.36,2.52c0,1.5.76,2.26,2.63,3l1.88.69c2.48.88,3.56,2.2,3.56,4.63,0,3.72-2.26,5.27-5.79,5.27-4.33,0-5.31-2.9-5.31-5.35v-.41Z" fill="#3b4351"/><path d="M1466.25,69.42c-.19,3.16-1.22,5.15-4.51,5.15-3.82,0-4.9-2.82-4.9-6.94s1.08-6.93,4.9-6.93,4.54,3.11,4.54,4.73h-2.65c0-1.23-.32-2.85-1.89-2.77-1.88,0-2.25,2-2.25,5s.37,5,2.25,5c1.47,0,2-1.2,2-3.19Z" fill="#3b4351"/><path d="M1469.56,61l2.28,9.9h.05L1474,61h2.77l-3.62,13.67c-1.06,3.61-1.87,4.1-4.61,4a4.62,4.62,0,0,1-1-.1v-2.1a3.51,3.51,0,0,0,.85.09c.91,0,1.5-.17,1.79-1l.34-1.08L1466.72,61Z" fill="#3b4351"/><path d="M1477.05,61h1.82V57.29h2.64V61h2.16v2h-2.16v7.87c0,1,.3,1.39,1.21,1.39a4.91,4.91,0,0,0,1-.07v2a8.44,8.44,0,0,1-2.13.22c-1.77,0-2.67-.51-2.67-3.19V63h-1.82Z" fill="#3b4351"/><path d="M1485,56.73h2.65v5.73l.07,0A3.76,3.76,0,0,1,1491,60.7c2,0,3.28.9,3.28,3.57v10h-2.65v-9c0-1.74-.49-2.38-1.83-2.38-1.08,0-2.11.84-2.11,2.58v8.84H1485Z" fill="#3b4351"/><path d="M1497,56.53h2.65v2.65H1497Zm0,4.51h2.65V74.22H1497Z" fill="#3b4351"/><path d="M1510.91,71.48c0,.49.3.93.69.93a1,1,0,0,0,.44-.07v1.71a2.83,2.83,0,0,1-1.3.32c-1.17,0-2.15-.47-2.23-1.74h0a3.4,3.4,0,0,1-3.28,1.94c-2.13,0-3.43-1.15-3.43-3.7,0-2.94,1.3-3.56,3.06-4.15l2.06-.56c1-.27,1.55-.54,1.55-1.69s-.42-2-1.82-2c-1.76,0-2,1.25-2,2.52h-2.5c0-2.81,1.15-4.33,4.63-4.33,2.33,0,4.19.9,4.19,3.23Zm-2.49-4.22a20.62,20.62,0,0,1-3,1.23,2.16,2.16,0,0,0-1.07,2.13c0,1.1.53,2,1.64,2,1.59,0,2.38-1.18,2.38-3.14Z" fill="#3b4351"/><path d="M1513.61,61h2.5v1.54h.07a3.78,3.78,0,0,1,3.38-1.88c2,0,3.29.9,3.29,3.57v10h-2.65v-9c0-1.76-.47-2.38-1.84-2.38-1.08,0-2.11.81-2.11,2.58v8.84h-2.64Z" fill="#3b4351"/><path d="M1531.44,56.73h9.46v2.35h-6.66v4.85h6.27v2.35h-6.27v5.59h6.86v2.35h-9.66Z" fill="#3b4351"/><path d="M1543.18,61h2.5v1.54h.07a3.69,3.69,0,0,1,3.16-1.88,2.87,2.87,0,0,1,3.07,2,3.59,3.59,0,0,1,3.33-2c1.86,0,3.21.95,3.21,3.5v10h-2.65v-9c0-1.74-.51-2.38-1.59-2.38s-2.11.84-2.11,2.58v8.84h-2.65v-9c0-1.74-.51-2.38-1.61-2.38s-2.09.86-2.09,2.58v8.84h-2.64Z" fill="#3b4351"/><path d="M1566.87,74.57a3,3,0,0,1-3-1.89h-.05v5.86h-2.64V61h2.49v1.62h0a3.13,3.13,0,0,1,3-2c3,0,4.24,2.57,4.24,7.1C1570.94,73.34,1568.71,74.57,1566.87,74.57Zm-.95-11.77c-1.82,0-2.24,1.84-2.24,4.68,0,3.17.4,5,2.26,5,1.49,0,2.2-1.13,2.2-4.78C1568.14,64.69,1567.78,62.8,1565.92,62.8Z" fill="#3b4351"/><path d="M1573.09,56.53h2.65v2.65h-2.65Zm0,4.51h2.65V74.22h-2.65Z" fill="#3b4351"/><path d="M1578.41,61h2.65V63.1h0a3.26,3.26,0,0,1,3.07-2.4,1.53,1.53,0,0,1,.63.09v2.7a3.73,3.73,0,0,0-1.1-.15c-1.2,0-2.64.54-2.64,3v7.89h-2.65Z" fill="#3b4351"/><path d="M1588.26,68v.76c0,1.77.22,4,2.2,4s2.11-2.13,2.11-2.94h2.5c0,3-1.76,4.76-4.63,4.76-2.16,0-4.83-.64-4.83-6.74,0-3.46.76-7.13,4.88-7.13,3.67,0,4.65,2.23,4.65,5.88V68Zm4.24-1.81v-.71c0-1.67-.54-2.94-2-2.94-1.66,0-2.2,1.67-2.2,3.38v.27Z" fill="#3b4351"/></g><g id="Parthian_Empire-2" data-name="Parthian Empire"><path d="M1197.14,71.66h5.54c3.36,0,4.83,2.1,4.83,5.09,0,3.14-1.87,5.17-5.13,5.17h-2.45v7.23h-2.79Zm2.79,8.16h2c1.49,0,2.79-.79,2.79-3,0-1.88-.76-3-3-3h-1.79Z" fill="#3b4351"/><path d="M1217.87,86.41c0,.49.29.93.69.93a1,1,0,0,0,.44-.07V89a2.86,2.86,0,0,1-1.3.32c-1.18,0-2.16-.47-2.23-1.74h0a3.41,3.41,0,0,1-3.29,1.94c-2.13,0-3.43-1.15-3.43-3.7,0-2.94,1.3-3.56,3.07-4.14l2-.57c1-.27,1.55-.54,1.55-1.69s-.42-2-1.81-2c-1.77,0-2,1.25-2,2.52h-2.5c0-2.81,1.15-4.33,4.63-4.33,2.33,0,4.19.9,4.19,3.23Zm-2.5-4.22a20.5,20.5,0,0,1-2.94,1.23,2.17,2.17,0,0,0-1.08,2.13c0,1.1.54,2,1.64,2,1.59,0,2.38-1.18,2.38-3.14Z" fill="#3b4351"/><path d="M1220.56,76h2.65V78h0a3.25,3.25,0,0,1,3.06-2.4,1.61,1.61,0,0,1,.64.09v2.7a3.87,3.87,0,0,0-1.11-.15c-1.2,0-2.64.54-2.64,3v7.89h-2.65Z" fill="#3b4351"/><path d="M1227.1,76h1.82V72.22h2.64V76h2.16v2h-2.16V85.8c0,1,.3,1.39,1.2,1.39a5.1,5.1,0,0,0,1-.07v2a8.55,8.55,0,0,1-2.13.22c-1.77,0-2.67-.51-2.67-3.18V77.93h-1.82Z" fill="#3b4351"/><path d="M1235.09,71.66h2.65v5.73l.07,0a3.76,3.76,0,0,1,3.23-1.81c2,0,3.29.9,3.29,3.58v9.94h-2.65v-9c0-1.74-.49-2.38-1.84-2.38-1.07,0-2.1.84-2.1,2.58v8.84h-2.65Z" fill="#3b4351"/><path d="M1247,71.46h2.64v2.65H1247Zm0,4.51h2.64V89.15H1247Z" fill="#3b4351"/><path d="M1261,86.41c0,.49.3.93.69.93a1,1,0,0,0,.44-.07V89a2.83,2.83,0,0,1-1.3.32c-1.17,0-2.15-.47-2.23-1.74h0a3.4,3.4,0,0,1-3.28,1.94c-2.13,0-3.43-1.15-3.43-3.7,0-2.94,1.3-3.56,3.06-4.14l2.06-.57c1-.27,1.54-.54,1.54-1.69s-.41-2-1.81-2c-1.76,0-2,1.25-2,2.52h-2.5c0-2.81,1.15-4.33,4.63-4.33,2.33,0,4.19.9,4.19,3.23Zm-2.5-4.22a20,20,0,0,1-2.94,1.23,2.17,2.17,0,0,0-1.08,2.13c0,1.1.54,2,1.65,2,1.59,0,2.37-1.18,2.37-3.14Z" fill="#3b4351"/><path d="M1263.66,76h2.49v1.54h.08a3.78,3.78,0,0,1,3.38-1.88c2,0,3.28.9,3.28,3.58v9.94h-2.64v-9c0-1.76-.47-2.38-1.84-2.38-1.08,0-2.11.81-2.11,2.58v8.84h-2.64Z" fill="#3b4351"/><path d="M1281.49,71.66H1291V74h-6.67v4.85h6.28v2.35h-6.28V86.8h6.87v2.35h-9.66Z" fill="#3b4351"/><path d="M1293.23,76h2.5v1.54h.07a3.69,3.69,0,0,1,3.16-1.88,2.85,2.85,0,0,1,3.06,2,3.6,3.6,0,0,1,3.34-2c1.86,0,3.21,1,3.21,3.5v10h-2.65v-9c0-1.74-.51-2.38-1.59-2.38s-2.11.84-2.11,2.58v8.84h-2.65v-9c0-1.74-.51-2.38-1.61-2.38s-2.09.86-2.09,2.58v8.84h-2.64Z" fill="#3b4351"/><path d="M1316.92,89.5a3,3,0,0,1-3-1.89h0v5.86h-2.65V76h2.5v1.62h0a3.13,3.13,0,0,1,3-2c3,0,4.24,2.57,4.24,7.1C1321,88.27,1318.76,89.5,1316.92,89.5Zm-1-11.77c-1.81,0-2.23,1.84-2.23,4.69,0,3.16.4,5,2.26,5,1.49,0,2.2-1.13,2.2-4.78C1318.19,79.62,1317.83,77.73,1316,77.73Z" fill="#3b4351"/><path d="M1323.14,71.46h2.65v2.65h-2.65Zm0,4.51h2.65V89.15h-2.65Z" fill="#3b4351"/><path d="M1328.46,76h2.64V78h.05a3.26,3.26,0,0,1,3.07-2.4,1.56,1.56,0,0,1,.63.09v2.7a3.73,3.73,0,0,0-1.1-.15c-1.2,0-2.65.54-2.65,3v7.89h-2.64Z" fill="#3b4351"/><path d="M1338.31,82.9v.76c0,1.77.22,4,2.2,4s2.11-2.13,2.11-2.94h2.5c0,3-1.77,4.76-4.63,4.76-2.16,0-4.83-.64-4.83-6.74,0-3.46.76-7.13,4.88-7.13,3.67,0,4.65,2.23,4.65,5.88V82.9Zm4.24-1.81v-.71c0-1.67-.54-2.94-2-2.94-1.67,0-2.2,1.67-2.2,3.38v.27Z" fill="#3b4351"/></g></g></svg>