<svg xmlns="http://www.w3.org/2000/svg" viewBox="0 0 1847.91 105"><title>bc0050text</title><g id="YEARS"><g id="Right"><path d="M1795.14,94H1798v.5a2.35,2.35,0,0,0,2.42,2.6c2.08,0,2.63-2,2.63-4.19s-.58-3.92-2.47-3.92a2.34,2.34,0,0,0-2.42,1.69l-2.63-.11.91-9.64h8.87v2.36h-6.66l-.6,4.84.06,0a4,4,0,0,1,3.09-1.43c3.85,0,4.81,3.25,4.81,6.08,0,3.7-1.69,6.51-5.67,6.51-3.3,0-5.15-1.7-5.15-5Z"/><path d="M1813,80.55c3.54,0,5.51,2.21,5.51,9.39s-2,9.39-5.51,9.39-5.51-2.21-5.51-9.39S1809.5,80.55,1813,80.55Zm0,16.7c2,0,2.55-2,2.55-7.31s-.55-7.31-2.55-7.31-2.55,2-2.55,7.31S1811,97.25,1813,97.25Z"/></g><g id="left"><path d="M25.39,97.59H28.2v.5a2.36,2.36,0,0,0,2.42,2.6c2.08,0,2.63-2,2.63-4.19s-.58-3.93-2.47-3.93a2.35,2.35,0,0,0-2.42,1.69l-2.63-.1.91-9.65h8.87v2.37H28.85l-.6,4.84.06,0a4,4,0,0,1,3.09-1.43c3.85,0,4.81,3.25,4.81,6.08,0,3.69-1.69,6.5-5.67,6.5-3.3,0-5.15-1.69-5.15-4.94Z"/><path d="M43.28,84.15c3.54,0,5.51,2.21,5.51,9.39s-2,9.38-5.51,9.38-5.51-2.21-5.51-9.38S39.75,84.15,43.28,84.15Zm0,16.69c2,0,2.55-2,2.55-7.3s-.55-7.31-2.55-7.31-2.55,2-2.55,7.31S41.28,100.84,43.28,100.84Z"/></g></g><g id="Text"><g id="Romans"><path d="M122.33,96.11V97c0,1.42.29,2.64,1.86,2.64,1.87,0,1.87-1.71,1.87-3.48V83.88h2.79V96.55c0,3.87-1.91,5.17-4.71,5.17-3.6,0-4.38-2.2-4.46-4.48V96.11Z"/><path d="M138.18,99.83h-.07a3.77,3.77,0,0,1-3.38,1.89c-2,0-3.29-.9-3.29-4.31V88.2h2.65v9.45c0,1.47.64,2,1.79,2a2.06,2.06,0,0,0,2.16-2.2V88.2h2.64v13.18h-2.5Z"/><path d="M143.35,83.88H146v17.5h-2.65Z"/><path d="M148.79,83.69h2.64v2.64h-2.64Zm0,4.51h2.64v13.18h-2.64Z"/><path d="M160.84,99.83h-.07a3.77,3.77,0,0,1-3.38,1.89c-2,0-3.29-.9-3.29-4.31V88.2h2.65v9.45c0,1.47.64,2,1.79,2a2.06,2.06,0,0,0,2.16-2.2V88.2h2.64v13.18h-2.5Z"/><path d="M171.57,92V91.7c0-1-.36-2-1.74-2-1.05,0-1.88.46-1.88,1.71,0,1.05.46,1.45,1.86,1.94l1.69.58c2,.67,2.87,1.72,2.87,3.8,0,2.82-2.09,4-4.73,4-3.33,0-4.34-1.54-4.34-4.09v-.49h2.35v.42c0,1.54.52,2.35,2.06,2.35s2.16-.74,2.16-1.94A1.91,1.91,0,0,0,170.42,96l-2.15-.76c-2-.66-2.82-1.69-2.82-3.8,0-2.48,1.76-3.63,4.51-3.63,3.35,0,4.11,2,4.11,3.6V92Z"/><path d="M193.13,95.11v.36c0,3.16-1.29,6.25-5.39,6.25-4.41,0-5.78-2.84-5.78-9.09s1.37-9.09,5.81-9.09c5,0,5.27,3.65,5.27,5.49v.32h-2.8v-.3c0-1.64-.49-3.48-2.5-3.4s-3,1.27-3,6.91.91,7,3,7c2.36,0,2.6-2.57,2.6-4.21v-.29Z"/><path d="M203.57,98.63c0,.49.3.94.69.94a1,1,0,0,0,.44-.08v1.72a2.86,2.86,0,0,1-1.3.32c-1.18,0-2.16-.47-2.23-1.74h0a3.41,3.41,0,0,1-3.28,1.93c-2.14,0-3.43-1.15-3.43-3.7,0-2.94,1.29-3.55,3.06-4.14l2.06-.56c.95-.27,1.54-.54,1.54-1.69s-.41-2-1.81-2c-1.77,0-2,1.25-2,2.52h-2.5c0-2.82,1.15-4.34,4.63-4.34,2.33,0,4.19.91,4.19,3.24Zm-2.5-4.21a20,20,0,0,1-2.94,1.22,2.18,2.18,0,0,0-1.08,2.14c0,1.1.54,2,1.64,2,1.6,0,2.38-1.18,2.38-3.14Z"/><path d="M208.54,95.13v.76c0,1.76.22,4,2.21,4s2.11-2.13,2.11-2.94h2.5c0,3-1.77,4.75-4.64,4.75-2.15,0-4.82-.64-4.82-6.74,0-3.45.76-7.13,4.87-7.13,3.68,0,4.66,2.23,4.66,5.88v1.4Zm4.24-1.81v-.71c0-1.67-.54-2.94-2-2.94-1.67,0-2.21,1.66-2.21,3.38v.27Z"/><path d="M223.29,92V91.7c0-1-.37-2-1.74-2-1.05,0-1.88.46-1.88,1.71,0,1.05.46,1.45,1.86,1.94l1.69.58c2,.67,2.87,1.72,2.87,3.8,0,2.82-2.09,4-4.73,4-3.34,0-4.34-1.54-4.34-4.09v-.49h2.35v.42c0,1.54.52,2.35,2.06,2.35s2.16-.74,2.16-1.94A1.91,1.91,0,0,0,222.14,96L220,95.28c-2-.66-2.81-1.69-2.81-3.8,0-2.48,1.76-3.63,4.51-3.63,3.35,0,4.11,2,4.11,3.6V92Z"/><path d="M236.69,98.63c0,.49.3.94.69.94a1,1,0,0,0,.44-.08v1.72a2.83,2.83,0,0,1-1.3.32c-1.17,0-2.15-.47-2.23-1.74h0a3.41,3.41,0,0,1-3.28,1.93c-2.13,0-3.43-1.15-3.43-3.7,0-2.94,1.3-3.55,3.06-4.14l2.06-.56c1-.27,1.55-.54,1.55-1.69s-.42-2-1.82-2c-1.76,0-2,1.25-2,2.52h-2.5c0-2.82,1.15-4.34,4.63-4.34,2.33,0,4.19.91,4.19,3.24Zm-2.49-4.21a20.57,20.57,0,0,1-2.95,1.22,2.17,2.17,0,0,0-1.07,2.14c0,1.1.54,2,1.64,2,1.59,0,2.38-1.18,2.38-3.14Z"/><path d="M239.39,88.2H242v2h.05a3.26,3.26,0,0,1,3.07-2.4,1.5,1.5,0,0,1,.63.1v2.7a3.42,3.42,0,0,0-1.1-.15c-1.2,0-2.65.54-2.65,3v7.89h-2.64Z"/></g><g id="Indians"><path d="M1395.72,56.73h2.79V74.22h-2.79Z"/><path d="M1401.11,61h2.5v1.54h.07a3.78,3.78,0,0,1,3.38-1.88c2,0,3.29.9,3.29,3.57v10h-2.65v-9c0-1.76-.47-2.38-1.84-2.38-1.08,0-2.11.81-2.11,2.58v8.84h-2.64Z"/><path d="M1419.63,72.61h-.05a2.83,2.83,0,0,1-2.89,2c-3.06,0-4.31-2.6-4.31-7.11,0-5.86,2-6.76,4.06-6.76a3,3,0,0,1,3,1.88h0V56.73h2.65V74.22h-2.5Zm-2.4-9.81c-1.5,0-2.06,1.23-2.06,4.78,0,3,.37,4.88,2.23,4.88s2.23-1.84,2.23-4.68C1419.63,64.62,1419.29,62.8,1417.23,62.8Z"/><path d="M1424.16,67.63c0-4.12,1.08-6.93,4.9-6.93s4.93,2.81,4.93,6.93-1.28,6.94-4.93,6.94S1424.16,71.75,1424.16,67.63Zm4.9,5c1.94,0,2.28-1.62,2.28-5,0-2.92-.34-5-2.28-5s-2.25,2-2.25,5C1426.81,71,1427.17,72.61,1429.06,72.61Z"/><path d="M1435.85,65.89h6.42v2.5h-6.42Z"/><path d="M1447,68.81v.44c0,2.13,1,3.21,2.87,3.21a2.51,2.51,0,0,0,2.64-2.55c0-1.84-.93-2.65-2.5-3.11l-1.91-.66c-2.55-1-3.65-2.31-3.65-4.81,0-3.18,2.18-4.95,5.44-4.95,4.49,0,5,2.8,5,4.61v.39H1452V61c0-1.59-.69-2.52-2.45-2.52a2.24,2.24,0,0,0-2.36,2.52c0,1.5.76,2.26,2.63,3l1.88.69c2.48.88,3.56,2.2,3.56,4.63,0,3.72-2.26,5.27-5.79,5.27-4.33,0-5.31-2.9-5.31-5.35v-.41Z"/><path d="M1466.25,69.42c-.19,3.16-1.22,5.15-4.51,5.15-3.82,0-4.9-2.82-4.9-6.94s1.08-6.93,4.9-6.93,4.54,3.11,4.54,4.73h-2.65c0-1.23-.32-2.85-1.89-2.77-1.88,0-2.25,2-2.25,5s.37,5,2.25,5c1.47,0,2-1.2,2-3.19Z"/><path d="M1469.56,61l2.28,9.9h.05L1474,61h2.77l-3.62,13.67c-1.06,3.61-1.87,4.1-4.61,4a4.62,4.62,0,0,1-1-.1v-2.1a3.51,3.51,0,0,0,.85.09c.91,0,1.5-.17,1.79-1l.34-1.08L1466.72,61Z"/><path d="M1477.05,61h1.82V57.29h2.64V61h2.16v2h-2.16v7.87c0,1,.3,1.39,1.21,1.39a4.91,4.91,0,0,0,1-.07v2a8.44,8.44,0,0,1-2.13.22c-1.77,0-2.67-.51-2.67-3.19V63h-1.82Z"/><path d="M1485,56.73h2.65v5.73l.07,0A3.76,3.76,0,0,1,1491,60.7c2,0,3.28.9,3.28,3.57v10h-2.65v-9c0-1.74-.49-2.38-1.83-2.38-1.08,0-2.11.84-2.11,2.58v8.84H1485Z"/><path d="M1497,56.53h2.65v2.65H1497Zm0,4.51h2.65V74.22H1497Z"/><path d="M1510.91,71.48c0,.49.3.93.69.93a1,1,0,0,0,.44-.07v1.71a2.83,2.83,0,0,1-1.3.32c-1.17,0-2.15-.47-2.23-1.74h0a3.4,3.4,0,0,1-3.28,1.94c-2.13,0-3.43-1.15-3.43-3.7,0-2.94,1.3-3.56,3.06-4.15l2.06-.56c1-.27,1.55-.54,1.55-1.69s-.42-2-1.82-2c-1.76,0-2,1.25-2,2.52h-2.5c0-2.81,1.15-4.33,4.63-4.33,2.33,0,4.19.9,4.19,3.23Zm-2.49-4.22a20.62,20.62,0,0,1-3,1.23,2.16,2.16,0,0,0-1.07,2.13c0,1.1.53,2,1.64,2,1.59,0,2.38-1.18,2.38-3.14Z"/><path d="M1513.61,61h2.5v1.54h.07a3.78,3.78,0,0,1,3.38-1.88c2,0,3.29.9,3.29,3.57v10h-2.65v-9c0-1.76-.47-2.38-1.84-2.38-1.08,0-2.11.81-2.11,2.58v8.84h-2.64Z"/><path d="M1531.44,56.73h9.46v2.35h-6.66v4.85h6.27v2.35h-6.27v5.59h6.86v2.35h-9.66Z"/><path d="M1543.18,61h2.5v1.54h.07a3.69,3.69,0,0,1,3.16-1.88,2.87,2.87,0,0,1,3.07,2,3.59,3.59,0,0,1,3.33-2c1.86,0,3.21.95,3.21,3.5v10h-2.65v-9c0-1.74-.51-2.38-1.59-2.38s-2.11.84-2.11,2.58v8.84h-2.65v-9c0-1.74-.51-2.38-1.61-2.38s-2.09.86-2.09,2.58v8.84h-2.64Z"/><path d="M1566.87,74.57a3,3,0,0,1-3-1.89h-.05v5.86h-2.64V61h2.49v1.62h0a3.13,3.13,0,0,1,3-2c3,0,4.24,2.57,4.24,7.1C1570.94,73.34,1568.71,74.57,1566.87,74.57Zm-.95-11.77c-1.82,0-2.24,1.84-2.24,4.68,0,3.17.4,5,2.26,5,1.49,0,2.2-1.13,2.2-4.78C1568.14,64.69,1567.78,62.8,1565.92,62.8Z"/><path d="M1573.09,56.53h2.65v2.65h-2.65Zm0,4.51h2.65V74.22h-2.65Z"/><path d="M1578.41,61h2.65V63.1h0a3.26,3.26,0,0,1,3.07-2.4,1.53,1.53,0,0,1,.63.09v2.7a3.73,3.73,0,0,0-1.1-.15c-1.2,0-2.64.54-2.64,3v7.89h-2.65Z"/><path d="M1588.26,68v.76c0,1.77.22,4,2.2,4s2.11-2.13,2.11-2.94h2.5c0,3-1.76,4.76-4.63,4.76-2.16,0-4.83-.64-4.83-6.74,0-3.46.76-7.13,4.88-7.13,3.67,0,4.65,2.23,4.65,5.88V68Zm4.24-1.81v-.71c0-1.67-.54-2.94-2-2.94-1.66,0-2.2,1.67-2.2,3.38v.27Z"/></g><g id="Parthian_Empire" data-name="Parthian Empire"><path d="M1197.14,71.66h5.54c3.36,0,4.83,2.1,4.83,5.09,0,3.14-1.87,5.17-5.13,5.17h-2.45v7.23h-2.79Zm2.79,8.16h2c1.49,0,2.79-.79,2.79-3,0-1.88-.76-3-3-3h-1.79Z"/><path d="M1217.87,86.41c0,.49.29.93.69.93a1,1,0,0,0,.44-.07V89a2.86,2.86,0,0,1-1.3.32c-1.18,0-2.16-.47-2.23-1.74h0a3.41,3.41,0,0,1-3.29,1.94c-2.13,0-3.43-1.15-3.43-3.7,0-2.94,1.3-3.56,3.07-4.14l2-.57c1-.27,1.55-.54,1.55-1.69s-.42-2-1.81-2c-1.77,0-2,1.25-2,2.52h-2.5c0-2.81,1.15-4.33,4.63-4.33,2.33,0,4.19.9,4.19,3.23Zm-2.5-4.22a20.5,20.5,0,0,1-2.94,1.23,2.17,2.17,0,0,0-1.08,2.13c0,1.1.54,2,1.64,2,1.59,0,2.38-1.18,2.38-3.14Z"/><path d="M1220.56,76h2.65V78h0a3.25,3.25,0,0,1,3.06-2.4,1.61,1.61,0,0,1,.64.09v2.7a3.87,3.87,0,0,0-1.11-.15c-1.2,0-2.64.54-2.64,3v7.89h-2.65Z"/><path d="M1227.1,76h1.82V72.22h2.64V76h2.16v2h-2.16V85.8c0,1,.3,1.39,1.2,1.39a5.1,5.1,0,0,0,1-.07v2a8.55,8.55,0,0,1-2.13.22c-1.77,0-2.67-.51-2.67-3.18V77.93h-1.82Z"/><path d="M1235.09,71.66h2.65v5.73l.07,0a3.76,3.76,0,0,1,3.23-1.81c2,0,3.29.9,3.29,3.58v9.94h-2.65v-9c0-1.74-.49-2.38-1.84-2.38-1.07,0-2.1.84-2.1,2.58v8.84h-2.65Z"/><path d="M1247,71.46h2.64v2.65H1247Zm0,4.51h2.64V89.15H1247Z"/><path d="M1261,86.41c0,.49.3.93.69.93a1,1,0,0,0,.44-.07V89a2.83,2.83,0,0,1-1.3.32c-1.17,0-2.15-.47-2.23-1.74h0a3.4,3.4,0,0,1-3.28,1.94c-2.13,0-3.43-1.15-3.43-3.7,0-2.94,1.3-3.56,3.06-4.14l2.06-.57c1-.27,1.54-.54,1.54-1.69s-.41-2-1.81-2c-1.76,0-2,1.25-2,2.52h-2.5c0-2.81,1.15-4.33,4.63-4.33,2.33,0,4.19.9,4.19,3.23Zm-2.5-4.22a20,20,0,0,1-2.94,1.23,2.17,2.17,0,0,0-1.08,2.13c0,1.1.54,2,1.65,2,1.59,0,2.37-1.18,2.37-3.14Z"/><path d="M1263.66,76h2.49v1.54h.08a3.78,3.78,0,0,1,3.38-1.88c2,0,3.28.9,3.28,3.58v9.94h-2.64v-9c0-1.76-.47-2.38-1.84-2.38-1.08,0-2.11.81-2.11,2.58v8.84h-2.64Z"/><path d="M1281.49,71.66H1291V74h-6.67v4.85h6.28v2.35h-6.28V86.8h6.87v2.35h-9.66Z"/><path d="M1293.23,76h2.5v1.54h.07a3.69,3.69,0,0,1,3.16-1.88,2.85,2.85,0,0,1,3.06,2,3.6,3.6,0,0,1,3.34-2c1.86,0,3.21,1,3.21,3.5v10h-2.65v-9c0-1.74-.51-2.38-1.59-2.38s-2.11.84-2.11,2.58v8.84h-2.65v-9c0-1.74-.51-2.38-1.61-2.38s-2.09.86-2.09,2.58v8.84h-2.64Z"/><path d="M1316.92,89.5a3,3,0,0,1-3-1.89h0v5.86h-2.65V76h2.5v1.62h0a3.13,3.13,0,0,1,3-2c3,0,4.24,2.57,4.24,7.1C1321,88.27,1318.76,89.5,1316.92,89.5Zm-1-11.77c-1.81,0-2.23,1.84-2.23,4.69,0,3.16.4,5,2.26,5,1.49,0,2.2-1.13,2.2-4.78C1318.19,79.62,1317.83,77.73,1316,77.73Z"/><path d="M1323.14,71.46h2.65v2.65h-2.65Zm0,4.51h2.65V89.15h-2.65Z"/><path d="M1328.46,76h2.64V78h.05a3.26,3.26,0,0,1,3.07-2.4,1.56,1.56,0,0,1,.63.09v2.7a3.73,3.73,0,0,0-1.1-.15c-1.2,0-2.65.54-2.65,3v7.89h-2.64Z"/><path d="M1338.31,82.9v.76c0,1.77.22,4,2.2,4s2.11-2.13,2.11-2.94h2.5c0,3-1.77,4.76-4.63,4.76-2.16,0-4.83-.64-4.83-6.74,0-3.46.76-7.13,4.88-7.13,3.67,0,4.65,2.23,4.65,5.88V82.9Zm4.24-1.81v-.71c0-1.67-.54-2.94-2-2.94-1.67,0-2.2,1.67-2.2,3.38v.27Z"/></g></g></svg>