<svg id="Text" xmlns="http://www.w3.org/2000/svg" viewBox="0 0 1847.91 105"><title>bc0050text</title><g id="Indians"><path d="M1395.72,56.73h2.79V74.22h-2.79Z"/><path d="M1401.11,61h2.5v1.54h.07a3.78,3.78,0,0,1,3.38-1.88c2,0,3.29.9,3.29,3.57v10h-2.65v-9c0-1.76-.47-2.38-1.84-2.38-1.08,0-2.11.81-2.11,2.58v8.84h-2.64Z"/><path d="M1419.63,72.61h-.05a2.83,2.83,0,0,1-2.89,2c-3.06,0-4.31-2.6-4.31-7.11,0-5.86,2-6.76,4.06-6.76a3,3,0,0,1,3,1.88h0V56.73h2.65V74.22h-2.5Zm-2.4-9.81c-1.5,0-2.06,1.23-2.06,4.78,0,3,.37,4.88,2.23,4.88s2.23-1.84,2.23-4.68C1419.63,64.62,1419.29,62.8,1417.23,62.8Z"/><path d="M1424.16,67.63c0-4.12,1.08-6.93,4.9-6.93s4.93,2.81,4.93,6.93-1.28,6.94-4.93,6.94S1424.16,71.75,1424.16,67.63Zm4.9,5c1.94,0,2.28-1.62,2.28-5,0-2.92-.34-5-2.28-5s-2.25,2-2.25,5C1426.81,71,1427.17,72.61,1429.06,72.61Z"/><path d="M1435.85,65.89h6.42v2.5h-6.42Z"/><path d="M1447,68.81v.44c0,2.13,1,3.21,2.87,3.21a2.51,2.51,0,0,0,2.64-2.55c0-1.84-.93-2.65-2.5-3.11l-1.91-.66c-2.55-1-3.65-2.31-3.65-4.81,0-3.18,2.18-4.95,5.44-4.95,4.49,0,5,2.8,5,4.61v.39H1452V61c0-1.59-.69-2.52-2.45-2.52a2.24,2.24,0,0,0-2.36,2.52c0,1.5.76,2.26,2.63,3l1.88.69c2.48.88,3.56,2.2,3.56,4.63,0,3.72-2.26,5.27-5.79,5.27-4.33,0-5.31-2.9-5.31-5.35v-.41Z"/><path d="M1466.25,69.42c-.19,3.16-1.22,5.15-4.51,5.15-3.82,0-4.9-2.82-4.9-6.94s1.08-6.93,4.9-6.93,4.54,3.11,4.54,4.73h-2.65c0-1.23-.32-2.85-1.89-2.77-1.88,0-2.25,2-2.25,5s.37,5,2.25,5c1.47,0,2-1.2,2-3.19Z"/><path d="M1469.56,61l2.28,9.9h.05L1474,61h2.77l-3.62,13.67c-1.06,3.61-1.87,4.1-4.61,4a4.62,4.62,0,0,1-1-.1v-2.1a3.51,3.51,0,0,0,.85.09c.91,0,1.5-.17,1.79-1l.34-1.08L1466.72,61Z"/><path d="M1477.05,61h1.82V57.29h2.64V61h2.16v2h-2.16v7.87c0,1,.3,1.39,1.21,1.39a4.91,4.91,0,0,0,1-.07v2a8.44,8.44,0,0,1-2.13.22c-1.77,0-2.67-.51-2.67-3.19V63h-1.82Z"/><path d="M1485,56.73h2.65v5.73l.07,0A3.76,3.76,0,0,1,1491,60.7c2,0,3.28.9,3.28,3.57v10h-2.65v-9c0-1.74-.49-2.38-1.83-2.38-1.08,0-2.11.84-2.11,2.58v8.84H1485Z"/><path d="M1497,56.53h2.65v2.65H1497Zm0,4.51h2.65V74.22H1497Z"/><path d="M1510.91,71.48c0,.49.3.93.69.93a1,1,0,0,0,.44-.07v1.71a2.83,2.83,0,0,1-1.3.32c-1.17,0-2.15-.47-2.23-1.74h0a3.4,3.4,0,0,1-3.28,1.94c-2.13,0-3.43-1.15-3.43-3.7,0-2.94,1.3-3.56,3.06-4.15l2.06-.56c1-.27,1.55-.54,1.55-1.69s-.42-2-1.82-2c-1.76,0-2,1.25-2,2.52h-2.5c0-2.81,1.15-4.33,4.63-4.33,2.33,0,4.19.9,4.19,3.23Zm-2.49-4.22a20.62,20.62,0,0,1-3,1.23,2.16,2.16,0,0,0-1.07,2.13c0,1.1.53,2,1.64,2,1.59,0,2.38-1.18,2.38-3.14Z"/><path d="M1513.61,61h2.5v1.54h.07a3.78,3.78,0,0,1,3.38-1.88c2,0,3.29.9,3.29,3.57v10h-2.65v-9c0-1.76-.47-2.38-1.84-2.38-1.08,0-2.11.81-2.11,2.58v8.84h-2.64Z"/><path d="M1531.44,56.73h9.46v2.35h-6.66v4.85h6.27v2.35h-6.27v5.59h6.86v2.35h-9.66Z"/><path d="M1543.18,61h2.5v1.54h.07a3.69,3.69,0,0,1,3.16-1.88,2.87,2.87,0,0,1,3.07,2,3.59,3.59,0,0,1,3.33-2c1.86,0,3.21.95,3.21,3.5v10h-2.65v-9c0-1.74-.51-2.38-1.59-2.38s-2.11.84-2.11,2.58v8.84h-2.65v-9c0-1.74-.51-2.38-1.61-2.38s-2.09.86-2.09,2.58v8.84h-2.64Z"/><path d="M1566.87,74.57a3,3,0,0,1-3-1.89h-.05v5.86h-2.64V61h2.49v1.62h0a3.13,3.13,0,0,1,3-2c3,0,4.24,2.57,4.24,7.1C1570.94,73.34,1568.71,74.57,1566.87,74.57Zm-.95-11.77c-1.82,0-2.24,1.84-2.24,4.68,0,3.17.4,5,2.26,5,1.49,0,2.2-1.13,2.2-4.78C1568.14,64.69,1567.78,62.8,1565.92,62.8Z"/><path d="M1573.09,56.53h2.65v2.65h-2.65Zm0,4.51h2.65V74.22h-2.65Z"/><path d="M1578.41,61h2.65V63.1h0a3.26,3.26,0,0,1,3.07-2.4,1.53,1.53,0,0,1,.63.09v2.7a3.73,3.73,0,0,0-1.1-.15c-1.2,0-2.64.54-2.64,3v7.89h-2.65Z"/><path d="M1588.26,68v.76c0,1.77.22,4,2.2,4s2.11-2.13,2.11-2.94h2.5c0,3-1.76,4.76-4.63,4.76-2.16,0-4.83-.64-4.83-6.74,0-3.46.76-7.13,4.88-7.13,3.67,0,4.65,2.23,4.65,5.88V68Zm4.24-1.81v-.71c0-1.67-.54-2.94-2-2.94-1.66,0-2.2,1.67-2.2,3.38v.27Z"/></g></svg>