<svg xmlns="http://www.w3.org/2000/svg" viewBox="0 0 1847.91 114"><title>bc0100text</title><g id="YEARS"><g id="Right"><path d="M1798.74,102.64V89.28h-3.82V87.35h.28c1.77,0,3.8-.44,4.35-2.75v-.37h2.15v18.41Z" fill="#3b4351"/><path d="M1812.08,84.23c3.53,0,5.51,2.21,5.51,9.39s-2,9.39-5.51,9.39-5.52-2.21-5.52-9.39S1808.54,84.23,1812.08,84.23Zm0,16.7c2,0,2.54-2,2.54-7.31s-.54-7.31-2.54-7.31-2.55,2-2.55,7.31S1810.07,100.93,1812.08,100.93Z" fill="#3b4351"/><path d="M1824.56,84.23c3.53,0,5.51,2.21,5.51,9.39s-2,9.39-5.51,9.39-5.52-2.21-5.52-9.39S1821,84.23,1824.56,84.23Zm0,16.7c2,0,2.54-2,2.54-7.31s-.54-7.31-2.54-7.31-2.55,2-2.55,7.31S1822.55,100.93,1824.56,100.93Z" fill="#3b4351"/></g><g id="left"><path d="M23.7,104.55V91.19H19.88V89.26h.29c1.77,0,3.79-.44,4.34-2.76v-.36h2.16v18.41Z" fill="#3b4351"/><path d="M37,86.14c3.54,0,5.51,2.21,5.51,9.39s-2,9.38-5.51,9.38-5.51-2.21-5.51-9.38S33.51,86.14,37,86.14Zm0,16.69c2,0,2.55-2,2.55-7.3S39,88.22,37,88.22s-2.55,2-2.55,7.31S35,102.83,37,102.83Z" fill="#3b4351"/><path d="M49.52,86.14c3.54,0,5.51,2.21,5.51,9.39s-2,9.38-5.51,9.38S44,102.7,44,95.53,46,86.14,49.52,86.14Zm0,16.69c2,0,2.55-2,2.55-7.3s-.55-7.31-2.55-7.31S47,90.2,47,95.53,47.52,102.83,49.52,102.83Z" fill="#3b4351"/></g></g><g id="Nation_OUtlines" data-name="Nation OUtlines"><polygon id="Romans" points="854.62 3705.83 829.93 3592.83 711.95 3483.83 764.62 3369.83 729.95 3254.83 845.28 3143.83 1002.62 3031.83 1065.29 2917.83 1021.28 2806.83 995.34 2689.83 815.28 2581.83 703.28 2470.83 687.28 2355.83 737.95 2241.83 780.62 2129.83 712.62 2018.83 645.95 1904.83 550.62 1791.83 491.95 1682 453.95 1569 455.29 1457 435.95 1342 470.62 1234 322.62 1234 416.12 1121 480.12 1011 410.62 899 316.95 785 248.28 670 210.28 559 175.95 448 159.62 332 91.28 219 83.12 114 117.62 0 151.37 -114 129.62 -224 109.62 -339 99.62 -451 73.12 -561 75.42 -1459 85.95 -1349 95.28 -1237 111.95 -1125 116.62 -1014 137.95 -901 149.95 -785 169.95 -673 205.28 -561 231.95 -451 287.74 -339 467.73 -224 683.72 -114 998.71 0 1118.7 114 1131.14 219 1195.2 332 1182.62 448 1245.62 559 1220.62 670 1122.62 785 981.62 899 880.12 1011 717.95 1121 593.62 1234 616.62 1342 717.28 1457 839.28 1571.84 863.28 1682 915.28 1791.83 810.62 1904.83 885.95 2018.83 1037.95 2129.83 1125.95 2241.83 1253.95 2355.83 1213.95 2470.83 1202.62 2581.83 1169.95 2689.83 1161.29 2806.83 1218.62 2917.83 1131.95 3031.83 936.62 3143.83 798.62 3254.83 819.28 3369.83 759.95 3483.83 849.28 3592.83 854.62 3705.83" fill="none" stroke="#3b4351" stroke-miterlimit="10"/><polygon id="Indians" points="1372.19 -1794.83 1294.19 -1909 1285.19 -2022 1313.69 -2133 1348.19 -2246 1310.69 -2360 1298.69 -2470 1313.69 -2582 1345.19 -2694 1325.69 -2808 1343.69 -2922 1417.19 -3033 1400.69 -3146.08 1429.19 -3259 1419.27 -3374.27 1387.19 -3486 1387.19 -3598 1438.19 -3708.5 1462.18 -3820.5 1480.18 -3933.54 1445.82 -4043.83 1411.11 -4155.83 1545.86 -4155.83 1580.1 -4043.83 1593.12 -3933.6 1552.12 -3820.5 1514.62 -3708.5 1514.12 -3598.33 1553.12 -3486.27 1548.12 -3374 1519.62 -3259 1534.12 -3145.33 1575.12 -3033 1559.62 -2922 1564.12 -2808.27 1534.62 -2694 1486.12 -2582 1465.12 -2470 1471.12 -2360.83 1502.12 -2246.83 1508.12 -2133 1534.62 -2022 1542.77 -1943.14 1555.62 -1794.83 1554.62 -1686 1567.12 -1574 1542.12 -1459.27 1498.12 -1349 1490.62 -1237 1513.12 -1125 1568.62 -1014 1544.12 -901 1530.62 -785.27 1523.62 -673.27 1532.62 -561 1565.12 -451 1543.62 -339 1514.12 -224 1490.12 -114.27 1495.62 0 1517.12 113.67 1528.12 219 1580.62 331.67 1578.12 447.67 1578.12 558.17 1560.12 669.73 1526.62 785 1467.62 899 1381.62 1010.73 1270.62 1121 1090.12 1233.73 860.62 1342 1302.12 1457 1377.03 1569 1550.62 1682 1519.62 1791.83 1476.12 1904.83 1516.13 2018.83 1534.62 2131.17 1552.65 2241.83 1585.62 2355.73 1620.12 2470.83 1650.12 2581.83 1630.62 2689.73 1622.45 2806.73 1565.62 2917.83 1402.62 3031.17 1173.62 3143.83 1148.62 3254.83 1334.62 3369.83 1283.62 3483.83 1344.62 3592.83 1544.62 3705.83 1602.62 3820.17 1627.62 3931.83 1674.62 4044.73 1627.62 4159.83 1634.62 4271.83 1686.62 4383.83 1701.62 4496.83 1620.12 4608.83 1606.12 4719.83 1606.12 4833.66 1552.62 4833.66 1549.52 4719.83 1569.62 4608.83 1683.62 4496.83 1667.62 4383.83 1607.62 4271.83 1596.62 4159.17 1617.62 4044.83 1584.62 3931.83 1562.62 3819.83 1507.62 3705.83 1304.62 3592.73 1225.62 3483.73 1236.97 3446.78 1264.87 3369.83 1082.62 3254.83 1084.2 3144.34 1323.62 3031.83 1500.47 2917.73 1573.62 2806.83 1600.62 2689.83 1604.62 2581.83 1569.62 2470.83 1514.62 2355.83 1447.62 2241.73 1418.62 2129.83 1404.62 2018.83 1367.62 1904.83 1397.62 1791.83 1418.62 1681.73 1339.62 1568.73 1246.62 1457 748.62 1342 753.62 1234 910.76 1121 1053.62 1011 1195.2 899 1311.62 784.17 1353.62 670 1348.62 559 1364.62 447.17 1406.62 332 1401.62 219 1429.62 114 1394.62 -0.27 1393.2 -114 1391.82 -224.27 1437.52 -339 1513.62 -451.27 1505.64 -561 1472.62 -672.83 1447.62 -785 1440.63 -901 1462.62 -1014 1391.1 -1125 1348.62 -1237 1332.62 -1349 1376.98 -1459 1375.34 -1574.27 1373.74 -1686.27 1372.19 -1794.83" fill="none" stroke="#3b4351" stroke-miterlimit="10"/><polygon id="Huns" points="1555.62 -1794.83 1545.73 -1909 1533.62 -2022.33 1506.68 -2132.36 1502.16 -2246 1471.34 -2360 1465.12 -2470 1486.12 -2582 1534.62 -2694 1564.05 -2808 1559.62 -2922 1575.12 -3033 1534.24 -3145 1519.62 -3259 1548.12 -3374 1553.11 -3486 1514.47 -3598.27 1514.62 -3710.5 1552.12 -3820.5 1593.12 -3933.16 1580.1 -4043.83 1545.86 -4155.83 1633.99 -4155.83 1651.62 -4043.83 1667.62 -3933.16 1646.62 -3820.5 1620.62 -3708.5 1630.4 -3600.4 1650.62 -3486.33 1676.62 -3374 1700.12 -3259 1689.12 -3145 1714.62 -3033.33 1697.12 -2922.27 1645.62 -2808.27 1616.12 -2694 1586.62 -2582.27 1538.12 -2470.27 1509.12 -2360 1551.62 -2246 1585.12 -2133 1608.62 -2022.33 1609.69 -1909.27 1610.76 -1796.27 1613.62 -1686.27 1625.12 -1574.27 1599.12 -1458.33 1557.59 -1349 1545.65 -1237 1558.62 -1125 1584.62 -1014.27 1571.12 -900.83 1576.62 -785 1567.62 -673 1587.12 -561 1621.12 -451 1612.12 -339 1556.12 -224 1528.62 -114 1529.62 0 1553.62 114 1616.07 219 1609.25 332 1592.66 448 1611.01 558.73 1612.12 670 1598.04 785 1564.12 899 1534.29 1011 1602.12 1120.73 1653.62 1234 1673.62 1342 1666.12 1457 1668.12 1568.67 1625.62 1681.67 1542.12 1791.83 1476.12 1904.83 1519.62 1791.83 1550.62 1682 1376.62 1568.73 1302.12 1457 860.62 1342 1090.12 1233.73 1270.62 1121 1381.62 1010.73 1467.62 899 1526.62 785 1560.12 669.73 1578.12 558.17 1578.12 447.67 1580.62 331.67 1528.12 219 1517.12 113.67 1495.62 0 1490.12 -114.27 1514.12 -224 1543.62 -339 1565.12 -451 1532.62 -561 1523.62 -673.27 1530.62 -785.27 1544.12 -901 1568.62 -1014 1513.12 -1125 1490.62 -1237 1498.12 -1349 1542.12 -1459.27 1567.12 -1574 1554.62 -1686 1555.62 -1794.83" fill="none" stroke="#3b4351" stroke-miterlimit="10"/><polygon id="Greeks" points="1131.14 219 1118.7 114 998.71 0 683.72 -114 467.73 -224 287.74 -339 231.95 -451 205.28 -561 169.95 -673 149.95 -785 137.95 -901 116.62 -1014 111.95 -1125 95.28 -1237 85.95 -1349 75.42 -1459 75.42 -1632.33 75.42 -2922 142.25 -2808 145.25 -2694 155.75 -2582 172.25 -2470 202.25 -2360 223.25 -2246 251.62 -2133 250.62 -2022 221.95 -1908.16 228.6 -1796.27 199.95 -1686.16 217.95 -1574.16 237.43 -1459 262.62 -1349 259.95 -1237 319.29 -1125 349.95 -1014 401.29 -901 527.28 -785 645.95 -673 761.95 -561 965.29 -451 965.95 -339 897.95 -224.83 910.76 -114.27 1099.37 0 1168.66 114.09 1131.14 219" fill="none" stroke="#3b4351" stroke-miterlimit="10"/><polygon id="Egyptians" points="1195.2 329.31 1131.14 219 1168.66 114.09 1099.2 -0.27 910.76 -114.27 897.95 -224.83 965.95 -339 965.28 -451.5 761.95 -561 645.95 -673 527.28 -785 401.29 -901 349.95 -1014 319.29 -1125 259.95 -1237 262.62 -1349 238.62 -1459 217.95 -1574 199.95 -1686 228.62 -1796 221.62 -1909 250.62 -2022 251.62 -2133 223.25 -2246 271.57 -2360 265.25 -2470 305.74 -2582 341.74 -2694 376.24 -2808 440.74 -2922 467.73 -3032.09 443.74 -3145 381.96 -3259 242.75 -3374 298.62 -3486 424.24 -3598 460.24 -3708.5 397.24 -3820.5 319.24 -3933.16 319.24 -4043.83 298.62 -4155.83 1103.77 -4155.83 1042.62 -4043.83 982.62 -3933.16 940.62 -3820.5 786.62 -3708.5 663.62 -3598 633.62 -3486 662.62 -3374 656.62 -3259.08 733.62 -3145.27 800.62 -3033.83 770.62 -2922 750.62 -2808 785.62 -2694 835.62 -2582 742.62 -2470 658.62 -2360 439.62 -2246 400.62 -2133 361.62 -2022 302.62 -1909 310.62 -1796 282.62 -1686 271.95 -1574 305.95 -1349 323.95 -1237.5 432.62 -1125 476.62 -1014.83 451.95 -901 555.95 -785 667.28 -673 813.28 -561 968.62 -451 995.95 -339 968.62 -224.16 940.62 -115.5 1130.91 -0.27 1189.62 114.67 1157.7 219 1195.2 329.31" fill="none" stroke="#3b4351" stroke-miterlimit="10"/><polygon id="Chinese" points="1610.76 -1796.27 1609.69 -1909.27 1608.62 -2022.33 1585.12 -2133 1551.62 -2246 1509.12 -2360 1538.12 -2470.27 1586.62 -2582.27 1616.12 -2694 1645.62 -2808.27 1697.12 -2922.27 1714.62 -3033.33 1689.12 -3145 1700.12 -3259 1676.62 -3374 1650.62 -3486.33 1630.62 -3598 1620.62 -3708.5 1646.62 -3820.5 1667.62 -3933.16 1651.62 -4043.83 1633.99 -4155.83 1768.79 -4155.83 1768.79 4044.83 1768.79 4159.73 1766.12 4271.83 1757.62 4383.83 1736.12 4496.73 1676.12 4608.73 1661.12 4719.83 1663.62 4833.66 1606.12 4833.66 1606.12 4719.73 1620.12 4608.83 1701.62 4496.83 1696.12 4383.67 1654.12 4271.83 1681.62 4159.83 1739.62 4044.73 1748.62 3931.67 1744.12 3819.67 1685.62 3705.83 1615.12 3595.17 1636.12 3483.83 1738.62 3369.83 1761.12 3254.83 1758.62 3143.83 1732.12 3031.83 1695.62 2917.83 1667.62 2806.83 1651.12 2689.83 1650.12 2581.83 1620.12 2470.83 1585.62 2355.73 1552.62 2241.73 1535.12 2129.83 1516.12 2018.73 1476.12 1904.83 1542.12 1791.83 1625.62 1681.67 1668.12 1568.67 1666.12 1457 1673.62 1342 1653.62 1234 1602.12 1120.73 1534.12 1010.73 1564.12 899 1598.12 784.73 1612.12 670 1611.01 558.73 1592.62 447.73 1609.25 332 1616.07 219 1553.62 114 1529.62 0 1528.62 -114.27 1555.62 -224 1612.12 -339 1621.12 -451 1587.12 -561 1567.62 -673 1576.62 -785 1571.12 -901 1584.62 -1014.27 1558.62 -1125 1545.62 -1237.27 1557.62 -1349.27 1599.62 -1459 1625.12 -1574.27 1613.62 -1686.27 1610.76 -1796.27" fill="none" stroke="#3b4351" stroke-miterlimit="10"/><polygon id="Teutons_-Goths" data-name="Teutons -Goths" points="712.62 2018.83 392.87 1904.83 333.12 1791.83 298.12 1682 257.62 1569 192.12 1457 189.69 1342 168.12 1234 138.62 1123.41 101.12 1011 73.12 901.67 73.12 -561 99.62 -451 109.62 -339 129.3 -221.61 151.37 -114 117.62 0 83.12 114 91.28 219 159.62 332 175.95 448 210.28 559 248.28 670 316.95 785 410.62 899 480.12 1011 416.12 1121 322.62 1234 328.12 1342 455.29 1457 453.95 1569 425.12 1682 461.12 1791.83 536.62 1904.83 712.62 2018.83" fill="none" stroke="#3b4351" stroke-miterlimit="10"/><polygon id="Carthaginians" points="1333.62 -110.4 1218.62 0 1189.62 114.67 1130.91 -0.27 1186.62 -114 1225.12 -224 1219.62 -339 1391.82 -224.27 1333.62 -110.4" fill="none" stroke="#3b4351" stroke-miterlimit="10"/><polygon id="Bactri" points="1394.62 -0.27 1429.62 114 1401.62 219 1363.19 114 1341.62 0 1333.62 -110.4 1391.82 -224.27 1393.2 -114 1394.62 -0.27" fill="none" stroke="#3b4351" stroke-miterlimit="10"/><polygon id="Parthian_empire" data-name="Parthian empire" points="1245.62 559 1182.62 448 1195.2 329.31 1157.7 219 1189.62 114.67 1218.62 0 1333.62 -110.4 1341.62 0 1363.19 114 1401.62 219 1406.62 332 1364.62 447.17 1348.62 559 1353.62 670 1311.62 784.17 1220.62 670 1245.62 559" fill="none" stroke="#3b4351" stroke-miterlimit="10"/><polygon points="1130.91 -0.27 940.62 -115.5 968.62 -224.16 995.95 -339 968.62 -451 813.28 -561 667.28 -673 624.62 -785 611.95 -901 608.62 -1014 523.28 -1125 375.82 -1237 387.95 -1349 383.29 -1459 359.29 -1574 340.62 -1684.84 347.74 -1796.27 394.24 -1909 481.23 -2022 566.62 -2133 623.95 -2246 857.28 -2360 954.62 -2472.16 975.28 -2582.16 969.28 -2694 971.95 -2808.16 998.62 -2694 1020.62 -2582 989.95 -2470 921.28 -2360 697.58 -2246 630.62 -2133 573.95 -2022 511.95 -1909 538.62 -1796 509.95 -1686 479.29 -1574 428.62 -1459 439.95 -1349 493.29 -1237 617.95 -1125 644.62 -1014 647.18 -901 716.62 -785.27 762.62 -673.27 890.71 -561.27 1086.62 -451 1219.62 -339 1225.12 -224 1186.62 -114 1130.91 -0.27" fill="none" stroke="#3b4351" stroke-miterlimit="10"/></g><g id="Text"><g id="Romans-2" data-name="Romans"><path d="M492.5,17.22h6.17c2.45,0,4.44,1.25,4.44,4.51,0,2.25-1,4-2.92,4.29v0c1.77.18,2.65,1.13,2.75,3.58,0,1.15,0,2.5.09,3.56a1.9,1.9,0,0,0,.84,1.51h-3.16a2.86,2.86,0,0,1-.47-1.54c-.05-.51-.07-1.05-.07-1.57s0-1.1-.05-1.74c-.08-1.91-.66-2.74-2.55-2.74h-2.28v7.59H492.5Zm5,7.79a2.58,2.58,0,0,0,2.79-2.84c0-1.86-.78-2.84-2.64-2.84h-2.38V25Z" fill="#3b4351"/><path d="M505,28.12c0-4.11,1.07-6.93,4.9-6.93s4.92,2.82,4.92,6.93-1.27,6.94-4.92,6.94S505,32.24,505,28.12Zm4.9,5c1.93,0,2.28-1.62,2.28-5,0-2.91-.35-5-2.28-5s-2.26,2.06-2.26,5C507.61,31.48,508,33.1,509.87,33.1Z" fill="#3b4351"/><path d="M517,21.53h2.5v1.55h.07a3.68,3.68,0,0,1,3.16-1.89,2.85,2.85,0,0,1,3.06,2,3.6,3.6,0,0,1,3.34-2c1.86,0,3.21.95,3.21,3.5v10h-2.65v-9c0-1.74-.51-2.37-1.59-2.37s-2.11.83-2.11,2.57v8.84h-2.65v-9c0-1.74-.51-2.37-1.61-2.37s-2.09.85-2.09,2.57v8.84H517Z" fill="#3b4351"/><path d="M543.6,32c0,.49.3.93.69.93a1,1,0,0,0,.44-.07v1.71a2.83,2.83,0,0,1-1.3.32c-1.17,0-2.15-.46-2.23-1.74h-.05a3.4,3.4,0,0,1-3.28,1.94c-2.13,0-3.43-1.15-3.43-3.7,0-2.94,1.3-3.56,3.06-4.14l2.06-.57c1-.27,1.55-.54,1.55-1.69s-.42-2-1.82-2c-1.76,0-2,1.25-2,2.53h-2.5c0-2.82,1.15-4.34,4.63-4.34,2.33,0,4.19.9,4.19,3.23Zm-2.49-4.21a21.79,21.79,0,0,1-3,1.22,2.16,2.16,0,0,0-1.07,2.13c0,1.11.54,2,1.64,2,1.59,0,2.38-1.18,2.38-3.14Z" fill="#3b4351"/><path d="M546.3,21.53h2.5v1.55h.07a3.77,3.77,0,0,1,3.38-1.89c2,0,3.29.9,3.29,3.58v9.94h-2.65v-9c0-1.76-.47-2.37-1.84-2.37-1.08,0-2.11.8-2.11,2.57v8.84H546.3Z" fill="#3b4351"/><path d="M564.13,17.22h9.46v2.35h-6.66v4.85h6.27v2.36h-6.27v5.58h6.86v2.35h-9.66Z" fill="#3b4351"/><path d="M575.87,21.53h2.5v1.55h.07a3.68,3.68,0,0,1,3.16-1.89,2.87,2.87,0,0,1,3.07,2,3.59,3.59,0,0,1,3.33-2c1.86,0,3.21.95,3.21,3.5v10h-2.65v-9c0-1.74-.51-2.37-1.59-2.37s-2.11.83-2.11,2.57v8.84h-2.64v-9c0-1.74-.52-2.37-1.62-2.37s-2.08.85-2.08,2.57v8.84h-2.65Z" fill="#3b4351"/><path d="M599.56,35.06a3,3,0,0,1-3-1.89h-.05V39h-2.64V21.53h2.5v1.62h0a3.13,3.13,0,0,1,3-2c3,0,4.24,2.57,4.24,7.1C603.63,33.83,601.4,35.06,599.56,35.06Zm-.95-11.76c-1.82,0-2.23,1.83-2.23,4.68,0,3.16.39,5,2.25,5,1.49,0,2.21-1.13,2.21-4.78C600.84,25.18,600.47,23.3,598.61,23.3Z" fill="#3b4351"/><path d="M605.78,17h2.65v2.65h-2.65Zm0,4.51h2.65V34.71h-2.65Z" fill="#3b4351"/><path d="M611.1,21.53h2.65v2.06h0a3.26,3.26,0,0,1,3.07-2.4,1.36,1.36,0,0,1,.63.1V24a3.73,3.73,0,0,0-1.1-.15c-1.2,0-2.64.54-2.64,3v7.89H611.1Z" fill="#3b4351"/><path d="M621,28.47v.76c0,1.76.22,4,2.2,4s2.11-2.14,2.11-2.95h2.5c0,3-1.76,4.76-4.63,4.76-2.16,0-4.83-.64-4.83-6.74,0-3.46.76-7.13,4.88-7.13,3.67,0,4.65,2.23,4.65,5.88v1.4Zm4.24-1.82v-.71c0-1.66-.54-2.94-2-2.94-1.66,0-2.2,1.67-2.2,3.38v.27Z" fill="#3b4351"/></g></g></svg>