<svg xmlns="http://www.w3.org/2000/svg" viewBox="0 0 1847.91 114"><title>bc0100text</title><g id="YEARS"><g id="Right"><path d="M1793.45,105.46V92.09h-3.82V90.17h.29c1.77,0,3.79-.44,4.34-2.76v-.36h2.16v18.41Z"/><path d="M1806.79,87.05c3.54,0,5.51,2.21,5.51,9.39s-2,9.38-5.51,9.38-5.51-2.21-5.51-9.38S1803.26,87.05,1806.79,87.05Zm0,16.69c2,0,2.55-2,2.55-7.3s-.55-7.31-2.55-7.31-2.55,2-2.55,7.31S1804.79,103.74,1806.79,103.74Z"/><path d="M1819.27,87.05c3.54,0,5.51,2.21,5.51,9.39s-2,9.38-5.51,9.38-5.51-2.21-5.51-9.38S1815.73,87.05,1819.27,87.05Zm0,16.69c2,0,2.55-2,2.55-7.3s-.55-7.31-2.55-7.31-2.55,2-2.55,7.31S1817.27,103.74,1819.27,103.74Z"/></g><g id="left"><path d="M23.7,109.06V95.69H19.88V93.77h.29c1.77,0,3.79-.44,4.34-2.76v-.36h2.16v18.41Z"/><path d="M37,90.65c3.54,0,5.51,2.21,5.51,9.39s-2,9.38-5.51,9.38-5.51-2.21-5.51-9.38S33.51,90.65,37,90.65Zm0,16.69c2,0,2.55-2,2.55-7.3S39,92.73,37,92.73s-2.55,2-2.55,7.31S35,107.34,37,107.34Z"/><path d="M49.52,90.65c3.54,0,5.51,2.21,5.51,9.39s-2,9.38-5.51,9.38S44,107.21,44,100,46,90.65,49.52,90.65Zm0,16.69c2,0,2.55-2,2.55-7.3s-.55-7.31-2.55-7.31S47,94.71,47,100,47.52,107.34,49.52,107.34Z"/></g></g><g id="Text"><g id="Romans"><path d="M492.5,17.22h6.17c2.45,0,4.44,1.25,4.44,4.51,0,2.25-1,4-2.92,4.29v0c1.77.18,2.65,1.13,2.75,3.58,0,1.15,0,2.5.09,3.56a1.9,1.9,0,0,0,.84,1.51h-3.16a2.86,2.86,0,0,1-.47-1.54c-.05-.51-.07-1.05-.07-1.57s0-1.1-.05-1.74c-.08-1.91-.66-2.74-2.55-2.74h-2.28v7.59H492.5Zm5,7.79a2.58,2.58,0,0,0,2.79-2.84c0-1.86-.78-2.84-2.64-2.84h-2.38V25Z" fill="#3b4351"/><path d="M505,28.12c0-4.11,1.07-6.93,4.9-6.93s4.92,2.82,4.92,6.93-1.27,6.94-4.92,6.94S505,32.24,505,28.12Zm4.9,5c1.93,0,2.28-1.62,2.28-5,0-2.91-.35-5-2.28-5s-2.26,2.06-2.26,5C507.61,31.48,508,33.1,509.87,33.1Z" fill="#3b4351"/><path d="M517,21.53h2.5v1.55h.07a3.68,3.68,0,0,1,3.16-1.89,2.85,2.85,0,0,1,3.06,2,3.6,3.6,0,0,1,3.34-2c1.86,0,3.21.95,3.21,3.5v10h-2.65v-9c0-1.74-.51-2.37-1.59-2.37s-2.11.83-2.11,2.57v8.84h-2.65v-9c0-1.74-.51-2.37-1.61-2.37s-2.09.85-2.09,2.57v8.84H517Z" fill="#3b4351"/><path d="M543.6,32c0,.49.3.93.69.93a1,1,0,0,0,.44-.07v1.71a2.83,2.83,0,0,1-1.3.32c-1.17,0-2.15-.46-2.23-1.74h-.05a3.4,3.4,0,0,1-3.28,1.94c-2.13,0-3.43-1.15-3.43-3.7,0-2.94,1.3-3.56,3.06-4.14l2.06-.57c1-.27,1.55-.54,1.55-1.69s-.42-2-1.82-2c-1.76,0-2,1.25-2,2.53h-2.5c0-2.82,1.15-4.34,4.63-4.34,2.33,0,4.19.9,4.19,3.23Zm-2.49-4.21a21.79,21.79,0,0,1-3,1.22,2.16,2.16,0,0,0-1.07,2.13c0,1.11.54,2,1.64,2,1.59,0,2.38-1.18,2.38-3.14Z" fill="#3b4351"/><path d="M546.3,21.53h2.5v1.55h.07a3.77,3.77,0,0,1,3.38-1.89c2,0,3.29.9,3.29,3.58v9.94h-2.65v-9c0-1.76-.47-2.37-1.84-2.37-1.08,0-2.11.8-2.11,2.57v8.84H546.3Z" fill="#3b4351"/><path d="M564.13,17.22h9.46v2.35h-6.66v4.85h6.27v2.36h-6.27v5.58h6.86v2.35h-9.66Z" fill="#3b4351"/><path d="M575.87,21.53h2.5v1.55h.07a3.68,3.68,0,0,1,3.16-1.89,2.87,2.87,0,0,1,3.07,2,3.59,3.59,0,0,1,3.33-2c1.86,0,3.21.95,3.21,3.5v10h-2.65v-9c0-1.74-.51-2.37-1.59-2.37s-2.11.83-2.11,2.57v8.84h-2.64v-9c0-1.74-.52-2.37-1.62-2.37s-2.08.85-2.08,2.57v8.84h-2.65Z" fill="#3b4351"/><path d="M599.56,35.06a3,3,0,0,1-3-1.89h-.05V39h-2.64V21.53h2.5v1.62h0a3.13,3.13,0,0,1,3-2c3,0,4.24,2.57,4.24,7.1C603.63,33.83,601.4,35.06,599.56,35.06Zm-.95-11.76c-1.82,0-2.23,1.83-2.23,4.68,0,3.16.39,5,2.25,5,1.49,0,2.21-1.13,2.21-4.78C600.84,25.18,600.47,23.3,598.61,23.3Z" fill="#3b4351"/><path d="M605.78,17h2.65v2.65h-2.65Zm0,4.51h2.65V34.71h-2.65Z" fill="#3b4351"/><path d="M611.1,21.53h2.65v2.06h0a3.26,3.26,0,0,1,3.07-2.4,1.36,1.36,0,0,1,.63.1V24a3.73,3.73,0,0,0-1.1-.15c-1.2,0-2.64.54-2.64,3v7.89H611.1Z" fill="#3b4351"/><path d="M621,28.47v.76c0,1.76.22,4,2.2,4s2.11-2.14,2.11-2.95h2.5c0,3-1.76,4.76-4.63,4.76-2.16,0-4.83-.64-4.83-6.74,0-3.46.76-7.13,4.88-7.13,3.67,0,4.65,2.23,4.65,5.88v1.4Zm4.24-1.82v-.71c0-1.66-.54-2.94-2-2.94-1.66,0-2.2,1.67-2.2,3.38v.27Z" fill="#3b4351"/></g></g></svg>