<svg id="Text" xmlns="http://www.w3.org/2000/svg" viewBox="0 0 1847.91 114"><title>bc0150text</title><g id="Chinese"><path d="M1589.76,52.66h2.79v7h5.15v-7h2.79v17.5h-2.79V62h-5.15v8.14h-2.79Z"/><path d="M1611.86,67.42c0,.48.29.93.68.93a1,1,0,0,0,.45-.08V70a2.86,2.86,0,0,1-1.3.32c-1.18,0-2.16-.47-2.23-1.74h0a3.41,3.41,0,0,1-3.29,1.93c-2.13,0-3.43-1.15-3.43-3.7,0-2.94,1.3-3.55,3.07-4.14l2-.56c1-.27,1.55-.54,1.55-1.69s-.42-2-1.81-2c-1.77,0-2,1.25-2,2.52H1603c0-2.82,1.15-4.34,4.63-4.34,2.33,0,4.19.91,4.19,3.24Zm-2.5-4.22a20.45,20.45,0,0,1-2.94,1.22,2.18,2.18,0,0,0-1.08,2.14c0,1.1.54,2,1.64,2,1.59,0,2.38-1.17,2.38-3.13Z"/><path d="M1614.55,57h2.5v1.54h.07a3.8,3.8,0,0,1,3.39-1.89c2,0,3.28.91,3.28,3.58v9.95h-2.65v-9c0-1.77-.46-2.38-1.83-2.38-1.08,0-2.11.81-2.11,2.57v8.85h-2.65Z"/><path d="M1632.39,52.66h5c5.49,0,6.18,3.58,6.18,8.75s-.69,8.75-6.18,8.75h-5Zm2.79,15.39h2.3c2.31,0,3.26-1.52,3.26-6.64,0-4.92-.83-6.64-3.26-6.64h-2.3Z"/><path d="M1647.6,57l2.28,9.9h0L1652,57h2.77l-3.63,13.67c-1,3.6-1.86,4.09-4.61,4a5.33,5.33,0,0,1-1-.1V72.46a3.11,3.11,0,0,0,.86.1c.9,0,1.49-.17,1.79-1l.34-1.08L1644.76,57Z"/><path d="M1656.27,57h2.5v1.54h.08a3.77,3.77,0,0,1,3.38-1.89c2,0,3.28.91,3.28,3.58v9.95h-2.64v-9c0-1.77-.47-2.38-1.84-2.38-1.08,0-2.11.81-2.11,2.57v8.85h-2.65Z"/><path d="M1676.71,67.42c0,.48.29.93.68.93a1,1,0,0,0,.45-.08V70a2.86,2.86,0,0,1-1.3.32c-1.18,0-2.16-.47-2.23-1.74h0A3.41,3.41,0,0,1,1671,70.5c-2.13,0-3.43-1.15-3.43-3.7,0-2.94,1.3-3.55,3.07-4.14l2.06-.56c.95-.27,1.54-.54,1.54-1.69s-.42-2-1.81-2c-1.77,0-2,1.25-2,2.52h-2.5c0-2.82,1.15-4.34,4.63-4.34,2.33,0,4.19.91,4.19,3.24Zm-2.5-4.22a20.45,20.45,0,0,1-2.94,1.22,2.18,2.18,0,0,0-1.08,2.14c0,1.1.54,2,1.64,2,1.6,0,2.38-1.17,2.38-3.13Z"/><path d="M1685.09,60.82v-.34c0-1-.37-2-1.74-2-1.06,0-1.89.46-1.89,1.71,0,1.05.47,1.45,1.86,1.94l1.69.59c2,.66,2.87,1.71,2.87,3.79,0,2.82-2.08,4-4.73,4-3.33,0-4.34-1.54-4.34-4.09v-.49h2.36v.42c0,1.54.51,2.35,2,2.35s2.16-.74,2.16-1.94a1.91,1.91,0,0,0-1.45-1.93l-2.15-.76c-2-.66-2.82-1.69-2.82-3.8,0-2.48,1.77-3.63,4.51-3.63,3.36,0,4.12,2,4.12,3.6v.59Z"/><path d="M1688.66,57h1.82V53.23h2.64V57h2.16v2h-2.16V66.8c0,1.06.3,1.4,1.2,1.4a6,6,0,0,0,1-.07v2a9,9,0,0,1-2.13.22c-1.77,0-2.67-.52-2.67-3.19V58.94h-1.82Z"/><path d="M1698.41,57l2.28,9.9h0l2.11-9.9h2.77L1702,70.65c-1,3.6-1.86,4.09-4.61,4a5.41,5.41,0,0,1-1.05-.1V72.46a3.16,3.16,0,0,0,.86.1c.91,0,1.49-.17,1.79-1l.34-1.08L1695.57,57Z"/></g></svg>