<svg xmlns="http://www.w3.org/2000/svg" viewBox="0 0 1847.91 114"><title>bc0150text</title><g id="YEARS"><g id="Right"><path d="M1801.86,104.15V90.79H1798V88.86h.28c1.77,0,3.8-.44,4.35-2.75v-.37h2.15v18.41Z" fill="#3b4351"/><path d="M1809.79,99.19h2.81v.49a2.35,2.35,0,0,0,2.42,2.6c2.08,0,2.62-2,2.62-4.19s-.57-3.92-2.47-3.92a2.35,2.35,0,0,0-2.42,1.69l-2.62-.11.91-9.64h8.86v2.36h-6.65l-.6,4.84,0,0a4.06,4.06,0,0,1,3.09-1.43c3.85,0,4.81,3.25,4.81,6.09,0,3.69-1.69,6.5-5.66,6.5-3.31,0-5.15-1.69-5.15-4.94Z" fill="#3b4351"/><path d="M1827.68,85.74c3.53,0,5.51,2.21,5.51,9.39s-2,9.39-5.51,9.39-5.52-2.21-5.52-9.39S1824.14,85.74,1827.68,85.74Zm0,16.7c2,0,2.54-2,2.54-7.31s-.54-7.31-2.54-7.31-2.55,2-2.55,7.31S1825.67,102.44,1827.68,102.44Z" fill="#3b4351"/></g><g id="left"><path d="M26.82,106.06V92.69H23V90.77h.29c1.77,0,3.79-.44,4.34-2.76v-.36h2.16v18.41Z" fill="#3b4351"/><path d="M34.75,101.09h2.81v.5a2.36,2.36,0,0,0,2.42,2.6c2.08,0,2.63-2,2.63-4.19s-.58-3.93-2.47-3.93a2.35,2.35,0,0,0-2.42,1.69l-2.63-.1L36,88h8.87v2.37H38.21l-.6,4.84.06,0a4,4,0,0,1,3.09-1.43c3.85,0,4.81,3.25,4.81,6.08,0,3.69-1.69,6.5-5.67,6.5-3.3,0-5.15-1.69-5.15-4.94Z" fill="#3b4351"/><path d="M52.64,87.65c3.54,0,5.51,2.21,5.51,9.39s-2,9.38-5.51,9.38-5.51-2.21-5.51-9.38S49.11,87.65,52.64,87.65Zm0,16.69c2,0,2.55-2,2.55-7.3s-.55-7.31-2.55-7.31-2.55,2-2.55,7.31S50.64,104.34,52.64,104.34Z" fill="#3b4351"/></g></g><g id="Nation_OUtlines" data-name="Nation OUtlines"><polygon id="Romans" points="854.62 3819.83 829.93 3706.83 711.95 3597.83 764.62 3483.83 729.95 3368.83 845.28 3257.83 1002.62 3145.83 1065.29 3031.83 1021.28 2920.83 995.34 2803.83 815.28 2695.83 703.28 2584.83 687.28 2469.83 737.95 2355.83 780.62 2243.83 712.62 2132.83 645.95 2018.83 550.62 1905.83 491.95 1796 453.95 1683 455.29 1571 435.95 1456 470.62 1348 322.62 1348 416.12 1235 480.12 1125 410.62 1013 316.95 899 248.28 784 210.28 673 175.95 562 159.62 446 91.28 333 83.12 228 117.62 114 151.37 0 129.62 -110 109.62 -225 99.62 -337 73.12 -447 75.42 -1345 85.95 -1235 95.28 -1123 111.95 -1011 116.62 -900 137.95 -787 149.95 -671 169.95 -559 205.28 -447 231.95 -337 287.74 -225 467.73 -110 683.72 0 998.71 114 1118.7 228 1131.14 333 1195.2 446 1182.62 562 1245.62 673 1220.62 784 1122.62 899 981.62 1013 880.12 1125 717.95 1235 593.62 1348 616.62 1456 717.28 1571 839.28 1685.84 863.28 1796 915.28 1905.83 810.62 2018.83 885.95 2132.83 1037.95 2243.83 1125.95 2355.83 1253.95 2469.83 1213.95 2584.83 1202.62 2695.83 1169.95 2803.83 1161.29 2920.83 1218.62 3031.83 1131.95 3145.83 936.62 3257.83 798.62 3368.83 819.28 3483.83 759.95 3597.83 849.28 3706.83 854.62 3819.83" fill="none" stroke="#3b4351" stroke-miterlimit="10"/><polygon id="Indians" points="1372.19 -1680.83 1294.19 -1795 1285.19 -1908 1313.69 -2019 1348.19 -2132 1310.69 -2246 1298.69 -2356 1313.69 -2468 1345.19 -2580 1325.69 -2694 1343.69 -2808 1417.19 -2919 1400.69 -3032.08 1429.19 -3145 1419.27 -3260.27 1387.19 -3372 1387.19 -3484 1438.19 -3594.5 1462.18 -3706.5 1480.18 -3819.54 1445.82 -3929.83 1411.11 -4041.83 1545.86 -4041.83 1580.1 -3929.83 1593.12 -3819.6 1552.12 -3706.5 1514.62 -3594.5 1514.12 -3484.33 1553.12 -3372.27 1548.12 -3260 1519.62 -3145 1534.12 -3031.33 1575.12 -2919 1559.62 -2808 1564.12 -2694.27 1534.62 -2580 1486.12 -2468 1465.12 -2356 1471.12 -2246.83 1502.12 -2132.83 1508.12 -2019 1534.62 -1908 1542.77 -1829.14 1555.62 -1680.83 1554.62 -1572 1567.12 -1460 1542.12 -1345.27 1498.12 -1235 1490.62 -1123 1513.12 -1011 1568.62 -900 1544.12 -787 1530.62 -671.27 1523.62 -559.27 1532.62 -447 1565.12 -337 1543.62 -225 1514.12 -110 1490.12 -0.27 1495.62 114 1517.12 227.67 1528.12 333 1580.62 445.67 1578.12 561.67 1578.12 672.17 1560.12 783.73 1526.62 899 1467.62 1013 1381.62 1124.73 1270.62 1235 1090.12 1347.73 860.62 1456 1302.12 1571 1377.03 1683 1550.62 1796 1519.62 1905.83 1476.12 2018.83 1516.13 2132.83 1534.62 2245.17 1552.65 2355.83 1585.62 2469.73 1620.12 2584.83 1650.12 2695.83 1630.62 2803.73 1622.45 2920.73 1565.62 3031.83 1402.62 3145.17 1173.62 3257.83 1148.62 3368.83 1334.62 3483.83 1283.62 3597.83 1344.62 3706.83 1544.62 3819.83 1602.62 3934.17 1627.62 4045.83 1674.62 4158.73 1627.62 4273.83 1634.62 4385.83 1686.62 4497.83 1701.62 4610.83 1620.12 4722.83 1606.12 4833.83 1606.12 4947.66 1552.62 4947.66 1549.52 4833.83 1569.62 4722.83 1683.62 4610.83 1667.62 4497.83 1607.62 4385.83 1596.62 4273.17 1617.62 4158.83 1584.62 4045.83 1562.62 3933.83 1507.62 3819.83 1304.62 3706.73 1225.62 3597.73 1236.97 3560.78 1264.87 3483.83 1082.62 3368.83 1084.2 3258.34 1323.62 3145.83 1500.47 3031.73 1573.62 2920.83 1600.62 2803.83 1604.62 2695.83 1569.62 2584.83 1514.62 2469.83 1447.62 2355.73 1418.62 2243.83 1404.62 2132.83 1367.62 2018.83 1397.62 1905.83 1418.62 1795.73 1339.62 1682.73 1246.62 1571 748.62 1456 753.62 1348 910.76 1235 1053.62 1125 1195.2 1013 1311.62 898.17 1353.62 784 1348.62 673 1364.62 561.17 1406.62 446 1401.62 333 1429.62 228 1394.62 113.73 1393.2 0 1391.82 -110.27 1437.52 -225 1513.62 -337.27 1505.64 -447 1472.62 -558.83 1447.62 -671 1440.63 -787 1462.62 -900 1391.1 -1011 1348.62 -1123 1332.62 -1235 1376.98 -1345 1375.34 -1460.27 1373.74 -1572.27 1372.19 -1680.83" fill="none" stroke="#3b4351" stroke-miterlimit="10"/><polygon id="Huns" points="1555.62 -1680.83 1545.73 -1795 1533.62 -1908.33 1506.68 -2018.36 1502.16 -2132 1471.34 -2246 1465.12 -2356 1486.12 -2468 1534.62 -2580 1564.05 -2694 1559.62 -2808 1575.12 -2919 1534.24 -3031 1519.62 -3145 1548.12 -3260 1553.11 -3372 1514.47 -3484.27 1514.62 -3596.5 1552.12 -3706.5 1593.12 -3819.16 1580.1 -3929.83 1545.86 -4041.83 1633.99 -4041.83 1651.62 -3929.83 1667.62 -3819.16 1646.62 -3706.5 1620.62 -3594.5 1630.4 -3486.4 1650.62 -3372.33 1676.62 -3260 1700.12 -3145 1689.12 -3031 1714.62 -2919.33 1697.12 -2808.27 1645.62 -2694.27 1616.12 -2580 1586.62 -2468.27 1538.12 -2356.27 1509.12 -2246 1551.62 -2132 1585.12 -2019 1608.62 -1908.33 1609.69 -1795.27 1610.76 -1682.27 1613.62 -1572.27 1625.12 -1460.27 1599.12 -1344.33 1557.59 -1235 1545.65 -1123 1558.62 -1011 1584.62 -900.27 1571.12 -786.83 1576.62 -671 1567.62 -559 1587.12 -447 1621.12 -337 1612.12 -225 1556.12 -110 1528.62 0 1529.62 114 1553.62 228 1616.07 333 1609.25 446 1592.66 562 1611.01 672.73 1612.12 784 1598.04 899 1564.12 1013 1534.29 1125 1602.12 1234.73 1653.62 1348 1673.62 1456 1666.12 1571 1668.12 1682.67 1625.62 1795.67 1542.12 1905.83 1476.12 2018.83 1519.62 1905.83 1550.62 1796 1376.62 1682.73 1302.12 1571 860.62 1456 1090.12 1347.73 1270.62 1235 1381.62 1124.73 1467.62 1013 1526.62 899 1560.12 783.73 1578.12 672.17 1578.12 561.67 1580.62 445.67 1528.12 333 1517.12 227.67 1495.62 114 1490.12 -0.27 1514.12 -110 1543.62 -225 1565.12 -337 1532.62 -447 1523.62 -559.27 1530.62 -671.27 1544.12 -787 1568.62 -900 1513.12 -1011 1490.62 -1123 1498.12 -1235 1542.12 -1345.27 1567.12 -1460 1554.62 -1572 1555.62 -1680.83" fill="none" stroke="#3b4351" stroke-miterlimit="10"/><polygon id="Greeks" points="1131.14 333 1118.7 228 998.71 114 683.72 0 467.73 -110 287.74 -225 231.95 -337 205.28 -447 169.95 -559 149.95 -671 137.95 -787 116.62 -900 111.95 -1011 95.28 -1123 85.95 -1235 75.42 -1345 75.42 -1518.33 75.42 -2808 142.25 -2694 145.25 -2580 155.75 -2468 172.25 -2356 202.25 -2246 223.25 -2132 251.62 -2019 250.62 -1908 221.95 -1794.16 228.6 -1682.27 199.95 -1572.16 217.95 -1460.16 237.43 -1345 262.62 -1235 259.95 -1123 319.29 -1011 349.95 -900 401.29 -787 527.28 -671 645.95 -559 761.95 -447 965.29 -337 965.95 -225 897.95 -110.83 910.76 -0.27 1099.37 114 1168.66 228.09 1131.14 333" fill="none" stroke="#3b4351" stroke-miterlimit="10"/><polygon id="Egyptians" points="1195.2 443.31 1131.14 333 1168.66 228.09 1099.2 113.73 910.76 -0.27 897.95 -110.83 965.95 -225 965.28 -337.5 761.95 -447 645.95 -559 527.28 -671 401.29 -787 349.95 -900 319.29 -1011 259.95 -1123 262.62 -1235 238.62 -1345 217.95 -1460 199.95 -1572 228.62 -1682 221.62 -1795 250.62 -1908 251.62 -2019 223.25 -2132 271.57 -2246 265.25 -2356 305.74 -2468 341.74 -2580 376.24 -2694 440.74 -2808 467.73 -2918.09 443.74 -3031 381.96 -3145 242.75 -3260 298.62 -3372 424.24 -3484 460.24 -3594.5 397.24 -3706.5 319.24 -3819.16 319.24 -3929.83 298.62 -4041.83 1103.77 -4041.83 1042.62 -3929.83 982.62 -3819.16 940.62 -3706.5 786.62 -3594.5 663.62 -3484 633.62 -3372 662.62 -3260 656.62 -3145.08 733.62 -3031.27 800.62 -2919.83 770.62 -2808 750.62 -2694 785.62 -2580 835.62 -2468 742.62 -2356 658.62 -2246 439.62 -2132 400.62 -2019 361.62 -1908 302.62 -1795 310.62 -1682 282.62 -1572 271.95 -1460 305.95 -1235 323.95 -1123.5 432.62 -1011 476.62 -900.83 451.95 -787 555.95 -671 667.28 -559 813.28 -447 968.62 -337 995.95 -225 968.62 -110.16 940.62 -1.5 1130.91 113.73 1189.62 228.67 1157.7 333 1195.2 443.31" fill="none" stroke="#3b4351" stroke-miterlimit="10"/><polygon id="Chinese" points="1610.76 -1682.27 1609.69 -1795.27 1608.62 -1908.33 1585.12 -2019 1551.62 -2132 1509.12 -2246 1538.12 -2356.27 1586.62 -2468.27 1616.12 -2580 1645.62 -2694.27 1697.12 -2808.27 1714.62 -2919.33 1689.12 -3031 1700.12 -3145 1676.62 -3260 1650.62 -3372.33 1630.62 -3484 1620.62 -3594.5 1646.62 -3706.5 1667.62 -3819.16 1651.62 -3929.83 1633.99 -4041.83 1768.79 -4041.83 1768.79 4158.83 1768.79 4273.73 1766.12 4385.83 1757.62 4497.83 1736.12 4610.73 1676.12 4722.73 1661.12 4833.83 1663.62 4947.66 1606.12 4947.66 1606.12 4833.73 1620.12 4722.83 1701.62 4610.83 1696.12 4497.67 1654.12 4385.83 1681.62 4273.83 1739.62 4158.73 1748.62 4045.67 1744.12 3933.67 1685.62 3819.83 1615.12 3709.17 1636.12 3597.83 1738.62 3483.83 1761.12 3368.83 1758.62 3257.83 1732.12 3145.83 1695.62 3031.83 1667.62 2920.83 1651.12 2803.83 1650.12 2695.83 1620.12 2584.83 1585.62 2469.73 1552.62 2355.73 1535.12 2243.83 1516.12 2132.73 1476.12 2018.83 1542.12 1905.83 1625.62 1795.67 1668.12 1682.67 1666.12 1571 1673.62 1456 1653.62 1348 1602.12 1234.73 1534.12 1124.73 1564.12 1013 1598.12 898.73 1612.12 784 1611.01 672.73 1592.62 561.73 1609.25 446 1616.07 333 1553.62 228 1529.62 114 1528.62 -0.27 1555.62 -110 1612.12 -225 1621.12 -337 1587.12 -447 1567.62 -559 1576.62 -671 1571.12 -787 1584.62 -900.27 1558.62 -1011 1545.62 -1123.27 1557.62 -1235.27 1599.62 -1345 1625.12 -1460.27 1613.62 -1572.27 1610.76 -1682.27" fill="none" stroke="#3b4351" stroke-miterlimit="10"/><polygon id="Teutons_-Goths" data-name="Teutons -Goths" points="712.62 2132.83 392.87 2018.83 333.12 1905.83 298.12 1796 257.62 1683 192.12 1571 189.69 1456 168.12 1348 138.62 1237.41 101.12 1125 73.12 1015.67 73.12 -447 99.62 -337 109.62 -225 129.3 -107.61 151.37 0 117.62 114 83.12 228 91.28 333 159.62 446 175.95 562 210.28 673 248.28 784 316.95 899 410.62 1013 480.12 1125 416.12 1235 322.62 1348 328.12 1456 455.29 1571 453.95 1683 425.12 1796 461.12 1905.83 536.62 2018.83 712.62 2132.83" fill="none" stroke="#3b4351" stroke-miterlimit="10"/><polygon id="Carthaginians" points="1333.62 3.6 1218.62 114 1189.62 228.67 1130.91 113.73 1186.62 0 1225.12 -110 1219.62 -225 1391.82 -110.27 1333.62 3.6" fill="none" stroke="#3b4351" stroke-miterlimit="10"/><polygon id="Bactri" points="1394.62 113.73 1429.62 228 1401.62 333 1363.19 228 1341.62 114 1333.62 3.6 1391.82 -110.27 1393.2 0 1394.62 113.73" fill="none" stroke="#3b4351" stroke-miterlimit="10"/><polygon id="Parthian_empire" data-name="Parthian empire" points="1245.62 673 1182.62 562 1195.2 443.31 1157.7 333 1189.62 228.67 1218.62 114 1333.62 3.6 1341.62 114 1363.19 228 1401.62 333 1406.62 446 1364.62 561.17 1348.62 673 1353.62 784 1311.62 898.17 1220.62 784 1245.62 673" fill="none" stroke="#3b4351" stroke-miterlimit="10"/><polygon points="1130.91 113.73 940.62 -1.5 968.62 -110.16 995.95 -225 968.62 -337 813.28 -447 667.28 -559 624.62 -671 611.95 -787 608.62 -900 523.28 -1011 375.82 -1123 387.95 -1235 383.29 -1345 359.29 -1460 340.62 -1570.84 347.74 -1682.27 394.24 -1795 481.23 -1908 566.62 -2019 623.95 -2132 857.28 -2246 954.62 -2358.16 975.28 -2468.16 969.28 -2580 971.95 -2694.16 998.62 -2580 1020.62 -2468 989.95 -2356 921.28 -2246 697.58 -2132 630.62 -2019 573.95 -1908 511.95 -1795 538.62 -1682 509.95 -1572 479.29 -1460 428.62 -1345 439.95 -1235 493.29 -1123 617.95 -1011 644.62 -900 647.18 -787 716.62 -671.27 762.62 -559.27 890.71 -447.27 1086.62 -337 1219.62 -225 1225.12 -110 1186.62 0 1130.91 113.73" fill="none" stroke="#3b4351" stroke-miterlimit="10"/></g><g id="Text"><g id="Chinese-2" data-name="Chinese"><path d="M1589.76,52.66h2.79v7h5.15v-7h2.79v17.5h-2.79V62h-5.15v8.14h-2.79Z" fill="#3b4351"/><path d="M1611.86,67.42c0,.48.29.93.68.93a1,1,0,0,0,.45-.08V70a2.86,2.86,0,0,1-1.3.32c-1.18,0-2.16-.47-2.23-1.74h0a3.41,3.41,0,0,1-3.29,1.93c-2.13,0-3.43-1.15-3.43-3.7,0-2.94,1.3-3.55,3.07-4.14l2-.56c1-.27,1.55-.54,1.55-1.69s-.42-2-1.81-2c-1.77,0-2,1.25-2,2.52H1603c0-2.82,1.15-4.34,4.63-4.34,2.33,0,4.19.91,4.19,3.24Zm-2.5-4.22a20.45,20.45,0,0,1-2.94,1.22,2.18,2.18,0,0,0-1.08,2.14c0,1.1.54,2,1.64,2,1.59,0,2.38-1.17,2.38-3.13Z" fill="#3b4351"/><path d="M1614.55,57h2.5v1.54h.07a3.8,3.8,0,0,1,3.39-1.89c2,0,3.28.91,3.28,3.58v9.95h-2.65v-9c0-1.77-.46-2.38-1.83-2.38-1.08,0-2.11.81-2.11,2.57v8.85h-2.65Z" fill="#3b4351"/><path d="M1632.39,52.66h5c5.49,0,6.18,3.58,6.18,8.75s-.69,8.75-6.18,8.75h-5Zm2.79,15.39h2.3c2.31,0,3.26-1.52,3.26-6.64,0-4.92-.83-6.64-3.26-6.64h-2.3Z" fill="#3b4351"/><path d="M1647.6,57l2.28,9.9h0L1652,57h2.77l-3.63,13.67c-1,3.6-1.86,4.09-4.61,4a5.33,5.33,0,0,1-1-.1V72.46a3.11,3.11,0,0,0,.86.1c.9,0,1.49-.17,1.79-1l.34-1.08L1644.76,57Z" fill="#3b4351"/><path d="M1656.27,57h2.5v1.54h.08a3.77,3.77,0,0,1,3.38-1.89c2,0,3.28.91,3.28,3.58v9.95h-2.64v-9c0-1.77-.47-2.38-1.84-2.38-1.08,0-2.11.81-2.11,2.57v8.85h-2.65Z" fill="#3b4351"/><path d="M1676.71,67.42c0,.48.29.93.68.93a1,1,0,0,0,.45-.08V70a2.86,2.86,0,0,1-1.3.32c-1.18,0-2.16-.47-2.23-1.74h0A3.41,3.41,0,0,1,1671,70.5c-2.13,0-3.43-1.15-3.43-3.7,0-2.94,1.3-3.55,3.07-4.14l2.06-.56c.95-.27,1.54-.54,1.54-1.69s-.42-2-1.81-2c-1.77,0-2,1.25-2,2.52h-2.5c0-2.82,1.15-4.34,4.63-4.34,2.33,0,4.19.91,4.19,3.24Zm-2.5-4.22a20.45,20.45,0,0,1-2.94,1.22,2.18,2.18,0,0,0-1.08,2.14c0,1.1.54,2,1.64,2,1.6,0,2.38-1.17,2.38-3.13Z" fill="#3b4351"/><path d="M1685.09,60.82v-.34c0-1-.37-2-1.74-2-1.06,0-1.89.46-1.89,1.71,0,1.05.47,1.45,1.86,1.94l1.69.59c2,.66,2.87,1.71,2.87,3.79,0,2.82-2.08,4-4.73,4-3.33,0-4.34-1.54-4.34-4.09v-.49h2.36v.42c0,1.54.51,2.35,2,2.35s2.16-.74,2.16-1.94a1.91,1.91,0,0,0-1.45-1.93l-2.15-.76c-2-.66-2.82-1.69-2.82-3.8,0-2.48,1.77-3.63,4.51-3.63,3.36,0,4.12,2,4.12,3.6v.59Z" fill="#3b4351"/><path d="M1688.66,57h1.82V53.23h2.64V57h2.16v2h-2.16V66.8c0,1.06.3,1.4,1.2,1.4a6,6,0,0,0,1-.07v2a9,9,0,0,1-2.13.22c-1.77,0-2.67-.52-2.67-3.19V58.94h-1.82Z" fill="#3b4351"/><path d="M1698.41,57l2.28,9.9h0l2.11-9.9h2.77L1702,70.65c-1,3.6-1.86,4.09-4.61,4a5.41,5.41,0,0,1-1.05-.1V72.46a3.16,3.16,0,0,0,.86.1c.91,0,1.49-.17,1.79-1l.34-1.08L1695.57,57Z" fill="#3b4351"/></g><g id="Bactria"><path d="M1323.13,71.52h5.66c2.62,0,4.7,1.17,4.7,4.24,0,2.1-.85,3.43-2.57,4v0c1.91.34,3.14,1.49,3.14,4.46S1332,89,1328.67,89h-5.54Zm5,7.37a2.45,2.45,0,0,0,2.57-2.77c0-2.08-1.25-2.5-2.82-2.5h-2v5.27Zm.56,8c1.67,0,2.57-1.06,2.57-3.09a2.65,2.65,0,0,0-2.74-3h-2.6v6.06Z" fill="#3b4351"/><path d="M1339.59,71.52h3.58L1347.78,89h-2.92l-1.08-4.28h-5.12L1337.53,89h-2.91Zm3.73,11-2-8.63h0l-2.08,8.63Z" fill="#3b4351"/><path d="M1359.76,82.74v.37c0,3.16-1.3,6.25-5.39,6.25-4.42,0-5.79-2.84-5.79-9.09s1.37-9.1,5.81-9.1c5,0,5.27,3.66,5.27,5.49V77h-2.79v-.29c0-1.64-.49-3.48-2.5-3.41s-3,1.28-3,6.91.9,7.06,3,7.06c2.35,0,2.59-2.57,2.59-4.21v-.3Z" fill="#3b4351"/><path d="M1364.58,73.87h-4.16V71.52h11v2.35h-4.09V89h-2.8Z" fill="#3b4351"/><path d="M1373.06,71.52h6.17c2.45,0,4.44,1.25,4.44,4.51,0,2.25-1,4-2.92,4.29v0c1.77.18,2.65,1.13,2.75,3.58,0,1.15,0,2.5.1,3.56a1.87,1.87,0,0,0,.83,1.51h-3.16a3,3,0,0,1-.47-1.54c0-.51-.07-1-.07-1.57s0-1.1,0-1.74c-.07-1.91-.66-2.74-2.55-2.74h-2.28V89h-2.79Zm5,7.79a2.58,2.58,0,0,0,2.8-2.84c0-1.86-.79-2.85-2.65-2.85h-2.38v5.69Z" fill="#3b4351"/><path d="M1386.09,71.52h2.8V89h-2.8Z" fill="#3b4351"/><path d="M1395,71.52h3.58L1403.15,89h-2.92l-1.08-4.28H1394L1392.9,89H1390Zm3.73,11-2-8.63h0l-2.09,8.63Z" fill="#3b4351"/></g></g></svg>