<svg xmlns="http://www.w3.org/2000/svg" viewBox="0 0 1847.91 110"><title>bc0200text</title><g id="YEARS"><g id="Right"><path d="M1805,101.66h-10.76c0-8,7.72-7.83,7.72-13.55,0-1.53-.65-2.78-2.29-2.78-2.21,0-2.58,2-2.58,3.85h-2.8c0-3.64,1.5-5.93,5.43-5.93,3.75,0,5.2,2.24,5.2,4.92,0,6.11-6,6.47-7.38,11H1805Z" fill="#3b4351"/><path d="M1812.08,83.25c3.53,0,5.51,2.21,5.51,9.39s-2,9.38-5.51,9.38-5.52-2.21-5.52-9.38S1808.54,83.25,1812.08,83.25Zm0,16.69c2,0,2.54-2,2.54-7.3s-.54-7.31-2.54-7.31-2.55,2-2.55,7.31S1810.07,99.94,1812.08,99.94Z" fill="#3b4351"/><path d="M1824.56,83.25c3.53,0,5.51,2.21,5.51,9.39s-2,9.38-5.51,9.38-5.52-2.21-5.52-9.38S1821,83.25,1824.56,83.25Zm0,16.69c2,0,2.54-2,2.54-7.3s-.54-7.31-2.54-7.31-2.55,2-2.55,7.31S1822.55,99.94,1824.56,99.94Z" fill="#3b4351"/></g><g id="left"><path d="M29.94,103.57H19.18c0-8,7.72-7.83,7.72-13.55,0-1.53-.65-2.78-2.29-2.78-2.21,0-2.57,2-2.57,3.85H19.23c0-3.64,1.51-5.93,5.44-5.93,3.74,0,5.2,2.23,5.2,4.91,0,6.11-6,6.48-7.39,11h7.46Z" fill="#3b4351"/><path d="M37,85.16c3.54,0,5.51,2.21,5.51,9.38s-2,9.39-5.51,9.39-5.51-2.21-5.51-9.39S33.51,85.16,37,85.16Zm0,16.69c2,0,2.55-2,2.55-7.31S39,87.24,37,87.24s-2.55,2-2.55,7.3S35,101.85,37,101.85Z" fill="#3b4351"/><path d="M49.52,85.16c3.54,0,5.51,2.21,5.51,9.38s-2,9.39-5.51,9.39S44,101.72,44,94.54,46,85.16,49.52,85.16Zm0,16.69c2,0,2.55-2,2.55-7.31s-.55-7.3-2.55-7.3-2.55,2-2.55,7.3S47.52,101.85,49.52,101.85Z" fill="#3b4351"/></g></g><g id="Nation_OUtlines" data-name="Nation OUtlines"><polygon id="Romans" points="854.62 3929.83 829.93 3816.83 711.95 3707.83 764.62 3593.83 729.95 3478.83 845.28 3367.83 1002.62 3255.83 1065.29 3141.83 1021.28 3030.83 995.34 2913.83 815.28 2805.83 703.28 2694.83 687.28 2579.83 737.95 2465.83 780.62 2353.83 712.62 2242.83 645.95 2128.83 550.62 2015.83 491.95 1906 453.95 1793 455.29 1681 435.95 1566 470.62 1458 322.62 1458 416.12 1345 480.12 1235 410.62 1123 316.95 1009 248.28 894 210.28 783 175.95 672 159.62 556 91.28 443 83.12 338 117.62 224 151.37 110 129.62 0 109.62 -115 99.62 -227 73.12 -337 75.42 -1235 85.95 -1125 95.28 -1013 111.95 -901 116.62 -790 137.95 -677 149.95 -561 169.95 -449 205.28 -337 231.95 -227 287.74 -115 467.73 0 683.72 110 998.71 224 1118.7 338 1131.14 443 1195.2 556 1182.62 672 1245.62 783 1220.62 894 1122.62 1009 981.62 1123 880.12 1235 717.95 1345 593.62 1458 616.62 1566 717.28 1681 839.28 1795.84 863.28 1906 915.28 2015.83 810.62 2128.83 885.95 2242.83 1037.95 2353.83 1125.95 2465.83 1253.95 2579.83 1213.95 2694.83 1202.62 2805.83 1169.95 2913.83 1161.29 3030.83 1218.62 3141.83 1131.95 3255.83 936.62 3367.83 798.62 3478.83 819.28 3593.83 759.95 3707.83 849.28 3816.83 854.62 3929.83" fill="none" stroke="#3b4351" stroke-miterlimit="10"/><polygon id="Iranians" points="1263.29 -1570.83 1235.95 -1685 1211.95 -1799.5 1241.29 -1909.5 1280.62 -2022 1217.95 -2136.83 1163.29 -2246.16 1140.62 -2359.5 1175.95 -2470 1153.29 -2584.83 1137.95 -2698.16 1188.62 -2809.5 1153.95 -2922.16 1161.95 -3035 1156.67 -3150.27 1152.84 -3267.5 1131.29 -3374 1198.62 -3484.5 1275.29 -3596.5 1277.29 -3710.16 1268.62 -3819.83 1283.88 -3931.83 1411.11 -3931.83 1445.69 -3820.27 1480.18 -3709.6 1462.18 -3596.5 1438.19 -3484.5 1387.19 -3374 1387.19 -3262 1420.19 -3147.07 1429.19 -3035 1400.69 -2922.08 1417.19 -2809 1343.69 -2698 1325.69 -2584 1345.19 -2470 1313.69 -2358 1298.69 -2246 1310.69 -2136 1348.19 -2022 1313.69 -1909 1285.19 -1798 1294.19 -1685 1372.19 -1570.83 1373.74 -1462.27 1375.34 -1350.27 1376.98 -1235 1335.62 -1125 1348.62 -1013 1391.1 -901 1462.62 -790 1440.62 -677.27 1447.62 -561 1472.62 -449 1505.62 -337.27 1513.62 -227.27 1437.62 -115.27 1391.82 -0.27 1219.62 -115 1086.62 -227 890.71 -337.27 788.62 -449 767.62 -561 866.62 -677 1041.62 -790.27 1176.62 -901.27 1205.62 -1013.27 1242.62 -1125.27 1294.62 -1235 1322.62 -1347.83 1240.62 -1462 1263.29 -1570.83" fill="none" stroke="#3b4351" stroke-miterlimit="10"/><polygon id="Indians" points="1372.19 -1570.83 1294.19 -1685 1285.19 -1798 1313.69 -1909 1348.19 -2022 1310.69 -2136 1298.69 -2246 1313.69 -2358 1345.19 -2470 1325.69 -2584 1343.69 -2698 1417.19 -2809 1400.69 -2922.08 1429.19 -3035 1419.27 -3150.27 1387.19 -3262 1387.19 -3374 1438.19 -3484.5 1462.18 -3596.5 1480.18 -3709.54 1445.82 -3819.83 1411.11 -3931.83 1545.86 -3931.83 1580.1 -3819.83 1593.12 -3709.6 1552.12 -3596.5 1514.62 -3484.5 1514.12 -3374.33 1553.12 -3262.27 1548.12 -3150 1519.62 -3035 1534.12 -2921.33 1575.12 -2809 1559.62 -2698 1564.12 -2584.27 1534.62 -2470 1486.12 -2358 1465.12 -2246 1471.12 -2136.83 1502.12 -2022.83 1508.12 -1909 1534.62 -1798 1542.77 -1719.14 1555.62 -1570.83 1554.62 -1462 1567.12 -1350 1542.12 -1235.27 1498.12 -1125 1490.62 -1013 1513.12 -901 1568.62 -790 1544.12 -677 1530.62 -561.27 1523.62 -449.27 1532.62 -337 1565.12 -227 1543.62 -115 1514.12 0 1490.12 109.73 1495.62 224 1517.12 337.67 1528.12 443 1580.62 555.67 1578.12 671.67 1578.12 782.17 1560.12 893.73 1526.62 1009 1467.62 1123 1381.62 1234.73 1270.62 1345 1090.12 1457.73 860.62 1566 1302.12 1681 1377.03 1793 1550.62 1906 1519.62 2015.83 1476.12 2128.83 1516.13 2242.83 1534.62 2355.17 1552.65 2465.83 1585.62 2579.73 1620.12 2694.83 1650.12 2805.83 1630.62 2913.73 1622.45 3030.73 1565.62 3141.83 1402.62 3255.17 1173.62 3367.83 1148.62 3478.83 1334.62 3593.83 1283.62 3707.83 1344.62 3816.83 1544.62 3929.83 1602.62 4044.17 1627.62 4155.83 1674.62 4268.73 1627.62 4383.83 1634.62 4495.83 1686.62 4607.83 1701.62 4720.83 1620.12 4832.83 1606.12 4943.83 1606.12 5057.66 1552.62 5057.66 1549.52 4943.83 1569.62 4832.83 1683.62 4720.83 1667.62 4607.83 1607.62 4495.83 1596.62 4383.17 1617.62 4268.83 1584.62 4155.83 1562.62 4043.83 1507.62 3929.83 1304.62 3816.73 1225.62 3707.73 1236.97 3670.78 1264.87 3593.83 1082.62 3478.83 1084.2 3368.34 1323.62 3255.83 1500.47 3141.73 1573.62 3030.83 1600.62 2913.83 1604.62 2805.83 1569.62 2694.83 1514.62 2579.83 1447.62 2465.73 1418.62 2353.83 1404.62 2242.83 1367.62 2128.83 1397.62 2015.83 1418.62 1905.73 1339.62 1792.73 1246.62 1681 748.62 1566 753.62 1458 910.76 1345 1053.62 1235 1195.2 1123 1311.62 1008.17 1353.62 894 1348.62 783 1364.62 671.17 1406.62 556 1401.62 443 1429.62 338 1394.62 223.73 1393.2 110 1391.82 -0.27 1437.52 -115 1513.62 -227.27 1505.64 -337 1472.62 -448.83 1447.62 -561 1440.63 -677 1462.62 -790 1391.1 -901 1348.62 -1013 1332.62 -1125 1376.98 -1235 1375.34 -1350.27 1373.74 -1462.27 1372.19 -1570.83" fill="none" stroke="#3b4351" stroke-miterlimit="10"/><polygon id="Huns" points="1555.62 -1570.83 1545.73 -1685 1533.62 -1798.33 1506.68 -1908.36 1502.16 -2022 1471.34 -2136 1465.12 -2246 1486.12 -2358 1534.62 -2470 1564.05 -2584 1559.62 -2698 1575.12 -2809 1534.24 -2921 1519.62 -3035 1548.12 -3150 1553.11 -3262 1514.47 -3374.27 1514.62 -3486.5 1552.12 -3596.5 1593.12 -3709.16 1580.1 -3819.83 1545.86 -3931.83 1633.99 -3931.83 1651.62 -3819.83 1667.62 -3709.16 1646.62 -3596.5 1620.62 -3484.5 1630.4 -3376.4 1650.62 -3262.33 1676.62 -3150 1700.12 -3035 1689.12 -2921 1714.62 -2809.33 1697.12 -2698.27 1645.62 -2584.27 1616.12 -2470 1586.62 -2358.27 1538.12 -2246.27 1509.12 -2136 1551.62 -2022 1585.12 -1909 1608.62 -1798.33 1609.69 -1685.27 1610.76 -1572.27 1613.62 -1462.27 1625.12 -1350.27 1599.12 -1234.33 1557.59 -1125 1545.65 -1013 1558.62 -901 1584.62 -790.27 1571.12 -676.83 1576.62 -561 1567.62 -449 1587.12 -337 1621.12 -227 1612.12 -115 1556.12 0 1528.62 110 1529.62 224 1553.62 338 1616.07 443 1609.25 556 1592.66 672 1611.01 782.73 1612.12 894 1598.04 1009 1564.12 1123 1534.29 1235 1602.12 1344.73 1653.62 1458 1673.62 1566 1666.12 1681 1668.12 1792.67 1625.62 1905.67 1542.12 2015.83 1476.12 2128.83 1519.62 2015.83 1550.62 1906 1376.62 1792.73 1302.12 1681 860.62 1566 1090.12 1457.73 1270.62 1345 1381.62 1234.73 1467.62 1123 1526.62 1009 1560.12 893.73 1578.12 782.17 1578.12 671.67 1580.62 555.67 1528.12 443 1517.12 337.67 1495.62 224 1490.12 109.73 1514.12 0 1543.62 -115 1565.12 -227 1532.62 -337 1523.62 -449.27 1530.62 -561.27 1544.12 -677 1568.62 -790 1513.12 -901 1490.62 -1013 1498.12 -1125 1542.12 -1235.27 1567.12 -1350 1554.62 -1462 1555.62 -1570.83" fill="none" stroke="#3b4351" stroke-miterlimit="10"/><polygon id="Greeks" points="1131.14 443 1118.7 338 998.71 224 683.72 110 467.73 0 287.74 -115 231.95 -227 205.28 -337 169.95 -449 149.95 -561 137.95 -677 116.62 -790 111.95 -901 95.28 -1013 85.95 -1125 75.42 -1235 75.42 -1408.33 75.42 -2698 142.25 -2584 145.25 -2470 155.75 -2358 172.25 -2246 202.25 -2136 223.25 -2022 251.62 -1909 250.62 -1798 221.95 -1684.16 228.6 -1572.27 199.95 -1462.16 217.95 -1350.16 237.43 -1235 262.62 -1125 259.95 -1013 319.29 -901 349.95 -790 401.29 -677 527.28 -561 645.95 -449 761.95 -337 965.29 -227 965.95 -115 897.95 -0.83 910.76 109.73 1099.37 224 1168.66 338.09 1131.14 443" fill="none" stroke="#3b4351" stroke-miterlimit="10"/><polygon id="Egyptians" points="1195.2 553.31 1131.14 443 1168.66 338.09 1099.2 223.73 910.76 109.73 897.95 -0.83 965.95 -115 965.28 -227.5 761.95 -337 645.95 -449 527.28 -561 401.29 -677 349.95 -790 319.29 -901 259.95 -1013 262.62 -1125 238.62 -1235 217.95 -1350 199.95 -1462 228.62 -1572 221.62 -1685 250.62 -1798 251.62 -1909 223.25 -2022 271.57 -2136 265.25 -2246 305.74 -2358 341.74 -2470 376.24 -2584 440.74 -2698 467.73 -2808.09 443.74 -2921 381.96 -3035 242.75 -3150 298.62 -3262 424.24 -3374 460.24 -3484.5 397.24 -3596.5 319.24 -3709.16 319.24 -3819.83 298.62 -3931.83 1103.77 -3931.83 1042.62 -3819.83 982.62 -3709.16 940.62 -3596.5 786.62 -3484.5 663.62 -3374 633.62 -3262 662.62 -3150 656.62 -3035.08 733.62 -2921.27 800.62 -2809.83 770.62 -2698 750.62 -2584 785.62 -2470 835.62 -2358 742.62 -2246 658.62 -2136 439.62 -2022 400.62 -1909 361.62 -1798 302.62 -1685 310.62 -1572 282.62 -1462 271.95 -1350 305.95 -1125 323.95 -1013.5 432.62 -901 476.62 -790.83 451.95 -677 555.95 -561 667.28 -449 813.28 -337 968.62 -227 995.95 -115 968.62 -0.16 940.62 108.5 1130.91 223.73 1189.62 338.67 1157.7 443 1195.2 553.31" fill="none" stroke="#3b4351" stroke-miterlimit="10"/><polygon id="Chinese" points="1610.76 -1572.27 1609.69 -1685.27 1608.62 -1798.33 1585.12 -1909 1551.62 -2022 1509.12 -2136 1538.12 -2246.27 1586.62 -2358.27 1616.12 -2470 1645.62 -2584.27 1697.12 -2698.27 1714.62 -2809.33 1689.12 -2921 1700.12 -3035 1676.62 -3150 1650.62 -3262.33 1630.62 -3374 1620.62 -3484.5 1646.62 -3596.5 1667.62 -3709.16 1651.62 -3819.83 1633.99 -3931.83 1768.79 -3931.83 1768.79 4268.83 1768.79 4383.73 1766.12 4495.83 1757.62 4607.83 1736.12 4720.73 1676.12 4832.73 1661.12 4943.83 1663.62 5057.66 1606.12 5057.66 1606.12 4943.73 1620.12 4832.83 1701.62 4720.83 1696.12 4607.67 1654.12 4495.83 1681.62 4383.83 1739.62 4268.73 1748.62 4155.67 1744.12 4043.67 1685.62 3929.83 1615.12 3819.17 1636.12 3707.83 1738.62 3593.83 1761.12 3478.83 1758.62 3367.83 1732.12 3255.83 1695.62 3141.83 1667.62 3030.83 1651.12 2913.83 1650.12 2805.83 1620.12 2694.83 1585.62 2579.73 1552.62 2465.73 1535.12 2353.83 1516.12 2242.73 1476.12 2128.83 1542.12 2015.83 1625.62 1905.67 1668.12 1792.67 1666.12 1681 1673.62 1566 1653.62 1458 1602.12 1344.73 1534.12 1234.73 1564.12 1123 1598.12 1008.73 1612.12 894 1611.01 782.73 1592.62 671.73 1609.25 556 1616.07 443 1553.62 338 1529.62 224 1528.62 109.73 1555.62 0 1612.12 -115 1621.12 -227 1587.12 -337 1567.62 -449 1576.62 -561 1571.12 -677 1584.62 -790.27 1558.62 -901 1545.62 -1013.27 1557.62 -1125.27 1599.62 -1235 1625.12 -1350.27 1613.62 -1462.27 1610.76 -1572.27" fill="none" stroke="#3b4351" stroke-miterlimit="10"/><polygon id="Teutons_-Goths" data-name="Teutons -Goths" points="712.62 2242.83 392.87 2128.83 333.12 2015.83 298.12 1906 257.62 1793 192.12 1681 189.69 1566 168.12 1458 138.62 1347.41 101.12 1235 73.12 1125.67 73.12 -337 99.62 -227 109.62 -115 129.3 2.39 151.37 110 117.62 224 83.12 338 91.28 443 159.62 556 175.95 672 210.28 783 248.28 894 316.95 1009 410.62 1123 480.12 1235 416.12 1345 322.62 1458 328.12 1566 455.29 1681 453.95 1793 425.12 1906 461.12 2015.83 536.62 2128.83 712.62 2242.83" fill="none" stroke="#3b4351" stroke-miterlimit="10"/><polygon id="Carthaginians" points="1333.62 113.6 1218.62 224 1189.62 338.67 1130.91 223.73 1186.62 110 1225.12 0 1219.62 -115 1391.82 -0.27 1333.62 113.6" fill="none" stroke="#3b4351" stroke-miterlimit="10"/><polygon id="Bactri" points="1394.62 223.73 1429.62 338 1401.62 443 1363.19 338 1341.62 224 1333.62 113.6 1391.82 -0.27 1393.2 110 1394.62 223.73" fill="none" stroke="#3b4351" stroke-miterlimit="10"/><polygon points="1130.91 223.73 940.62 108.5 968.62 -0.16 995.95 -115 968.62 -227 813.28 -337 667.28 -449 624.62 -561 611.95 -677 608.62 -790 523.28 -901 375.82 -1013 387.95 -1125 383.29 -1235 359.29 -1350 340.62 -1460.84 347.74 -1572.27 394.24 -1685 481.23 -1798 566.62 -1909 623.95 -2022 857.28 -2136 954.62 -2248.16 975.28 -2358.16 969.28 -2470 971.95 -2584.16 998.62 -2470 1020.62 -2358 989.95 -2246 921.28 -2136 697.58 -2022 630.62 -1909 573.95 -1798 511.95 -1685 538.62 -1572 509.95 -1462 479.29 -1350 428.62 -1235 439.95 -1125 493.29 -1013 617.95 -901 644.62 -790 647.18 -677 716.62 -561.27 762.62 -449.27 890.71 -337.27 1086.62 -227 1219.62 -115 1225.12 0 1186.62 110 1130.91 223.73" fill="none" stroke="#3b4351" stroke-miterlimit="10"/></g><g id="Text"><g id="Romans-2" data-name="Romans"><path d="M242.39,17.88h6.17c2.45,0,4.44,1.25,4.44,4.51,0,2.26-1,4-2.92,4.29v.05c1.76.17,2.65,1.13,2.74,3.58,0,1.15,0,2.5.1,3.55a1.92,1.92,0,0,0,.84,1.52h-3.17a3,3,0,0,1-.46-1.54c0-.52-.07-1.06-.07-1.57s0-1.1-.05-1.74c-.08-1.91-.67-2.74-2.55-2.74h-2.28v7.59h-2.79Zm5,7.8a2.58,2.58,0,0,0,2.79-2.85c0-1.86-.78-2.84-2.64-2.84h-2.38v5.69Z" fill="#3b4351"/><path d="M254.86,28.79c0-4.12,1.07-6.94,4.9-6.94s4.92,2.82,4.92,6.94-1.27,6.94-4.92,6.94S254.86,32.91,254.86,28.79Zm4.9,5c1.93,0,2.28-1.61,2.28-5,0-2.92-.35-5-2.28-5s-2.26,2.05-2.26,5C257.5,32.15,257.87,33.76,259.76,33.76Z" fill="#3b4351"/><path d="M266.84,22.2h2.5v1.54h.07a3.7,3.7,0,0,1,3.16-1.89,2.86,2.86,0,0,1,3.06,2,3.61,3.61,0,0,1,3.34-2c1.86,0,3.21,1,3.21,3.51v10h-2.65v-9c0-1.74-.51-2.38-1.59-2.38s-2.11.84-2.11,2.58v8.84h-2.65v-9c0-1.74-.51-2.38-1.61-2.38s-2.09.86-2.09,2.58v8.84h-2.64Z" fill="#3b4351"/><path d="M293.49,32.64c0,.49.3.93.69.93a1.18,1.18,0,0,0,.44-.07v1.71a2.83,2.83,0,0,1-1.3.32c-1.17,0-2.15-.47-2.23-1.74h0a3.4,3.4,0,0,1-3.28,1.94c-2.13,0-3.43-1.16-3.43-3.71,0-2.94,1.3-3.55,3.06-4.14l2.06-.56c1-.27,1.54-.54,1.54-1.69s-.41-2-1.81-2c-1.76,0-2,1.25-2,2.52h-2.5c0-2.82,1.15-4.34,4.63-4.34,2.33,0,4.19.91,4.19,3.24ZM291,28.42a20,20,0,0,1-2.94,1.23A2.16,2.16,0,0,0,287,31.78c0,1.1.53,2,1.64,2,1.59,0,2.37-1.17,2.37-3.13Z" fill="#3b4351"/><path d="M296.19,22.2h2.5v1.54h.07a3.79,3.79,0,0,1,3.38-1.89c2,0,3.28.91,3.28,3.58v10h-2.64v-9c0-1.76-.47-2.38-1.84-2.38-1.08,0-2.11.81-2.11,2.58v8.84h-2.64Z" fill="#3b4351"/><path d="M314,17.88h6.18c2.45,0,4.43,1.25,4.43,4.51,0,2.26-1,4-2.91,4.29v.05c1.76.17,2.64,1.13,2.74,3.58,0,1.15,0,2.5.1,3.55a1.89,1.89,0,0,0,.83,1.52h-3.16a2.93,2.93,0,0,1-.46-1.54c0-.52-.08-1.06-.08-1.57s0-1.1-.05-1.74c-.07-1.91-.66-2.74-2.55-2.74h-2.27v7.59H314Zm5,7.8a2.58,2.58,0,0,0,2.79-2.85c0-1.86-.78-2.84-2.65-2.84h-2.37v5.69Z" fill="#3b4351"/><path d="M329.29,29.13v.76c0,1.77.22,4,2.2,4s2.11-2.13,2.11-2.94h2.5c0,3-1.77,4.76-4.63,4.76-2.16,0-4.83-.64-4.83-6.74,0-3.46.76-7.14,4.88-7.14,3.67,0,4.65,2.23,4.65,5.89v1.39Zm4.24-1.81v-.71c0-1.67-.54-2.94-2-2.94-1.67,0-2.2,1.66-2.2,3.38v.27Z" fill="#3b4351"/><path d="M344,35.73a3,3,0,0,1-3-1.89H341V39.7h-2.65V22.2h2.5v1.62h0a3.11,3.11,0,0,1,3-2c3,0,4.24,2.58,4.24,7.11C348.1,34.5,345.87,35.73,344,35.73Zm-1-11.77c-1.81,0-2.23,1.84-2.23,4.68,0,3.16.39,5,2.25,5,1.5,0,2.21-1.13,2.21-4.78C345.31,25.85,344.94,24,343.08,24Z" fill="#3b4351"/><path d="M356.87,33.84h-.07a3.79,3.79,0,0,1-3.38,1.89c-2,0-3.29-.91-3.29-4.32V22.2h2.65v9.46c0,1.47.64,2,1.79,2a2.06,2.06,0,0,0,2.16-2.21V22.2h2.64V35.38h-2.5Z" fill="#3b4351"/><path d="M361.92,17.88h2.64v5.86h.05a3.06,3.06,0,0,1,3-1.89c2,0,4.07.91,4.07,6.77,0,4.53-1.25,7.11-4.31,7.11a2.82,2.82,0,0,1-2.89-2h-.05v1.62h-2.5Zm4.73,15.74c1.86,0,2.23-1.89,2.23-4.88,0-3.55-.57-4.78-2.06-4.78-2.06,0-2.4,1.82-2.4,5C364.42,31.78,364.83,33.62,366.65,33.62Z" fill="#3b4351"/><path d="M373.83,17.88h2.64v17.5h-2.64Z" fill="#3b4351"/><path d="M379.26,17.69h2.65v2.65h-2.65Zm0,4.51h2.65V35.38h-2.65Z" fill="#3b4351"/><path d="M393.48,30.58c-.2,3.16-1.23,5.15-4.51,5.15-3.83,0-4.91-2.82-4.91-6.94s1.08-6.94,4.91-6.94,4.53,3.12,4.53,4.73h-2.65c0-1.22-.32-2.84-1.88-2.76-1.89,0-2.26,2.05-2.26,5s.37,5,2.26,5c1.47,0,2-1.2,2-3.18Z" fill="#3b4351"/></g><g id="Chinese-2" data-name="Chinese"><path d="M1600.56,11.58h-4.17V9.22h11v2.36h-4.09V26.72h-2.79Z" fill="#3b4351"/><path d="M1614.55,17.39V17c0-1-.37-2-1.74-2-1.06,0-1.89.46-1.89,1.71,0,1.06.47,1.45,1.86,1.94l1.69.59c2,.66,2.87,1.71,2.87,3.8,0,2.81-2.08,4-4.73,4-3.33,0-4.34-1.54-4.34-4.09v-.49h2.36v.42c0,1.54.51,2.35,2,2.35s2.16-.73,2.16-1.93a1.91,1.91,0,0,0-1.45-1.94l-2.15-.76c-2-.66-2.82-1.69-2.82-3.8,0-2.47,1.76-3.63,4.51-3.63,3.36,0,4.12,2,4.12,3.61v.59Z" fill="#3b4351"/><path d="M1619.57,9.22h2.79v3.24c0,2-.63,3.36-2.79,3.77V14.81c.76-.19,1.22-.9,1.22-2v-.37h-1.22Z" fill="#3b4351"/><path d="M1625.3,9H1628v2.65h-2.65Zm0,4.51H1628V26.72h-2.65Z" fill="#3b4351"/><path d="M1630.62,13.54h2.5v1.54h.07a3.79,3.79,0,0,1,3.38-1.89c2,0,3.29.91,3.29,3.58v10h-2.65v-9c0-1.76-.47-2.38-1.84-2.38-1.08,0-2.11.81-2.11,2.58v8.84h-2.64Z" fill="#3b4351"/><path d="M1648.45,9.22h5c5.49,0,6.17,3.58,6.17,8.75s-.68,8.75-6.17,8.75h-5Zm2.8,15.39h2.3c2.3,0,3.26-1.51,3.26-6.64,0-4.92-.83-6.64-3.26-6.64h-2.3Z" fill="#3b4351"/><path d="M1663.67,13.54l2.28,9.9h0l2.1-9.9h2.77l-3.62,13.67c-1.06,3.6-1.87,4.09-4.61,4a4.76,4.76,0,0,1-1.06-.1V29a3.65,3.65,0,0,0,.86.09c.91,0,1.5-.17,1.79-1l.34-1.07-3.74-13.48Z" fill="#3b4351"/><path d="M1672.34,13.54h2.5v1.54h.07a3.81,3.81,0,0,1,3.39-1.89c2,0,3.28.91,3.28,3.58v10h-2.65v-9c0-1.76-.46-2.38-1.84-2.38-1.07,0-2.1.81-2.1,2.58v8.84h-2.65Z" fill="#3b4351"/><path d="M1692.77,24c0,.49.3.93.69.93a1,1,0,0,0,.44-.08v1.72a2.83,2.83,0,0,1-1.3.32c-1.17,0-2.15-.47-2.23-1.74h0a3.39,3.39,0,0,1-3.28,1.93c-2.13,0-3.43-1.15-3.43-3.7,0-2.94,1.3-3.55,3.06-4.14l2.06-.56c1-.27,1.55-.54,1.55-1.69s-.42-2-1.82-2c-1.76,0-2,1.25-2,2.52H1684c0-2.82,1.15-4.34,4.63-4.34,2.33,0,4.19.91,4.19,3.24Zm-2.49-4.22a20.62,20.62,0,0,1-3,1.23,2.18,2.18,0,0,0-1.07,2.13c0,1.1.54,2,1.64,2,1.59,0,2.38-1.17,2.38-3.13Z" fill="#3b4351"/><path d="M1701.15,17.39V17c0-1-.36-2-1.74-2-1.05,0-1.88.46-1.88,1.71,0,1.06.46,1.45,1.86,1.94l1.69.59c2,.66,2.87,1.71,2.87,3.8,0,2.81-2.09,4-4.73,4-3.34,0-4.34-1.54-4.34-4.09v-.49h2.35v.42c0,1.54.52,2.35,2.06,2.35s2.16-.73,2.16-1.93a1.91,1.91,0,0,0-1.45-1.94l-2.15-.76c-2-.66-2.82-1.69-2.82-3.8,0-2.47,1.76-3.63,4.51-3.63,3.35,0,4.11,2,4.11,3.61v.59Z" fill="#3b4351"/><path d="M1704.73,13.54h1.81V9.79h2.65v3.75h2.16v2h-2.16v7.86c0,1.06.29,1.4,1.2,1.4a5.1,5.1,0,0,0,1-.07v2a8.58,8.58,0,0,1-2.14.22c-1.76,0-2.67-.52-2.67-3.19V15.5h-1.81Z" fill="#3b4351"/><path d="M1714.48,13.54l2.28,9.9h0l2.11-9.9h2.76l-3.62,13.67c-1.06,3.6-1.86,4.09-4.61,4a4.67,4.67,0,0,1-1-.1V29a3.54,3.54,0,0,0,.86.09c.9,0,1.49-.17,1.78-1l.35-1.07-3.75-13.48Z" fill="#3b4351"/></g><g id="Seleucids"><path d="M1237.91,47.78v.44c0,2.13.95,3.21,2.87,3.21a2.5,2.5,0,0,0,2.64-2.55c0-1.84-.93-2.64-2.5-3.11l-1.91-.66c-2.55-1-3.65-2.31-3.65-4.8,0-3.19,2.18-5,5.44-5,4.49,0,5,2.8,5,4.61v.39H1243V40c0-1.6-.69-2.53-2.45-2.53a2.24,2.24,0,0,0-2.36,2.53c0,1.49.76,2.25,2.63,3l1.88.69c2.48.88,3.56,2.2,3.56,4.63,0,3.72-2.26,5.27-5.79,5.27-4.33,0-5.31-2.89-5.31-5.34v-.42Z" fill="#3b4351"/><path d="M1250.58,47v.76c0,1.76.22,4,2.2,4s2.11-2.13,2.11-2.94h2.5c0,3-1.77,4.76-4.63,4.76-2.16,0-4.83-.64-4.83-6.74,0-3.46.76-7.13,4.88-7.13,3.67,0,4.65,2.23,4.65,5.88V47Zm4.23-1.82v-.71c0-1.66-.53-2.94-2-2.94-1.67,0-2.2,1.67-2.2,3.38v.27Z" fill="#3b4351"/><path d="M1259.76,35.7h2.65V53.2h-2.65Z" fill="#3b4351"/><path d="M1267.36,47v.76c0,1.76.22,4,2.2,4s2.11-2.13,2.11-2.94h2.5c0,3-1.76,4.76-4.63,4.76-2.16,0-4.83-.64-4.83-6.74,0-3.46.76-7.13,4.88-7.13,3.67,0,4.65,2.23,4.65,5.88V47Zm4.24-1.82v-.71c0-1.66-.54-2.94-2-2.94-1.66,0-2.2,1.67-2.2,3.38v.27Z" fill="#3b4351"/><path d="M1283.16,51.65h-.07a3.77,3.77,0,0,1-3.38,1.89c-2,0-3.29-.91-3.29-4.31V40h2.65v9.46c0,1.47.64,2,1.79,2a2,2,0,0,0,2.15-2.2V40h2.65V53.2h-2.5Z" fill="#3b4351"/><path d="M1297.1,48.39c-.2,3.16-1.22,5.15-4.51,5.15-3.82,0-4.9-2.82-4.9-6.94s1.08-6.93,4.9-6.93,4.54,3.11,4.54,4.73h-2.65c0-1.23-.32-2.85-1.89-2.77-1.88,0-2.25,2.06-2.25,5s.37,5,2.25,5c1.47,0,2-1.2,2-3.19Z" fill="#3b4351"/><path d="M1299.21,35.5h2.64v2.65h-2.64Zm0,4.51h2.64V53.2h-2.64Z" fill="#3b4351"/><path d="M1311.26,51.58h0a2.82,2.82,0,0,1-2.89,2c-3.06,0-4.31-2.6-4.31-7.11,0-5.86,2.06-6.76,4.06-6.76a3,3,0,0,1,3,1.88h0V35.7h2.65V53.2h-2.5Zm-2.4-9.8c-1.5,0-2.06,1.22-2.06,4.77,0,3,.37,4.88,2.23,4.88s2.23-1.84,2.23-4.68C1311.26,43.59,1310.92,41.78,1308.86,41.78Z" fill="#3b4351"/><path d="M1322,43.86v-.34c0-1.06-.37-2-1.74-2-1,0-1.89.47-1.89,1.72,0,1,.47,1.44,1.87,1.93l1.69.59c2,.66,2.86,1.72,2.86,3.8,0,2.82-2.08,4-4.72,4-3.34,0-4.34-1.55-4.34-4.09V49h2.35v.41c0,1.55.51,2.35,2.06,2.35s2.16-.73,2.16-1.93a1.91,1.91,0,0,0-1.45-1.94l-2.16-.76c-2-.66-2.82-1.69-2.82-3.8,0-2.47,1.77-3.62,4.51-3.62,3.36,0,4.12,2,4.12,3.6v.59Z" fill="#3b4351"/></g><g id="Egytians"><g id="large-2" data-name="large"><path d="M879.24,32.91h9.46v2.35H882v4.86h6.27v2.35H882v5.59h6.86v2.35h-9.66Z" fill="#3b4351"/><path d="M899.68,48.37h0a3.63,3.63,0,0,1-3.83,2.38c-3.82,0-5.19-2.84-5.19-9.09s1.76-9.09,5.81-9.09a4.76,4.76,0,0,1,5.12,5v.31h-2.65v-.41c0-1.3-.54-2.85-2.45-2.85s-3,1.33-3,6.92.93,7,2.82,7c2.13,0,2.92-1.52,2.92-5.34H896.2V41.19h5.58v9.22h-2.1Z" fill="#3b4351"/><path d="M907.15,43.57l-4.51-10.66h3.11l2.94,7.55,3-7.55h2.91l-4.68,10.66v6.84h-2.79Z" fill="#3b4351"/><path d="M916,32.91h5.53c3.36,0,4.83,2.11,4.83,5.1s-1.86,5.17-5.12,5.17h-2.45v7.23H916Zm2.79,8.16h2c1.49,0,2.79-.78,2.79-3,0-1.89-.76-3-3-3h-1.79Z" fill="#3b4351"/><path d="M931.08,35.26h-4.16V32.91H938v2.35h-4.09V50.41h-2.8Z" fill="#3b4351"/></g></g></g></svg>