<svg xmlns="http://www.w3.org/2000/svg" viewBox="0 0 1847.91 110"><title>bc0200text</title><g id="YEARS"><g id="Right"><path d="M1799.69,106.23h-10.76c0-8,7.72-7.83,7.72-13.55,0-1.53-.65-2.78-2.29-2.78-2.21,0-2.57,2-2.57,3.85H1789c0-3.64,1.51-5.93,5.44-5.93,3.74,0,5.2,2.24,5.2,4.92,0,6.11-6,6.47-7.39,11h7.46Z"/><path d="M1806.79,87.82c3.54,0,5.51,2.21,5.51,9.39s-2,9.38-5.51,9.38-5.51-2.21-5.51-9.38S1803.26,87.82,1806.79,87.82Zm0,16.69c2,0,2.55-2,2.55-7.3s-.55-7.31-2.55-7.31-2.55,2-2.55,7.31S1804.79,104.51,1806.79,104.51Z"/><path d="M1819.27,87.82c3.54,0,5.51,2.21,5.51,9.39s-2,9.38-5.51,9.38-5.51-2.21-5.51-9.38S1815.73,87.82,1819.27,87.82Zm0,16.69c2,0,2.55-2,2.55-7.3s-.55-7.31-2.55-7.31-2.55,2-2.55,7.31S1817.27,104.51,1819.27,104.51Z"/></g><g id="left"><path d="M29.94,109.83H19.18c0-8,7.72-7.83,7.72-13.55,0-1.53-.65-2.78-2.29-2.78-2.21,0-2.57,2-2.57,3.85H19.23c0-3.64,1.51-5.93,5.44-5.93,3.74,0,5.2,2.23,5.2,4.91,0,6.11-6,6.48-7.39,11h7.46Z"/><path d="M37,91.42c3.54,0,5.51,2.21,5.51,9.39s-2,9.38-5.51,9.38-5.51-2.21-5.51-9.38S33.51,91.42,37,91.42Zm0,16.69c2,0,2.55-2,2.55-7.3S39,93.5,37,93.5s-2.55,2-2.55,7.31S35,108.11,37,108.11Z"/><path d="M49.52,91.42c3.54,0,5.51,2.21,5.51,9.39s-2,9.38-5.51,9.38S44,108,44,100.81,46,91.42,49.52,91.42Zm0,16.69c2,0,2.55-2,2.55-7.3s-.55-7.31-2.55-7.31-2.55,2-2.55,7.31S47.52,108.11,49.52,108.11Z"/></g></g><g id="Text"><g id="Romans"><path d="M242.39,17.88h6.17c2.45,0,4.44,1.25,4.44,4.51,0,2.26-1,4-2.92,4.29v.05c1.76.17,2.65,1.13,2.74,3.58,0,1.15,0,2.5.1,3.55a1.92,1.92,0,0,0,.84,1.52h-3.17a3,3,0,0,1-.46-1.54c0-.52-.07-1.06-.07-1.57s0-1.1-.05-1.74c-.08-1.91-.67-2.74-2.55-2.74h-2.28v7.59h-2.79Zm5,7.8a2.58,2.58,0,0,0,2.79-2.85c0-1.86-.78-2.84-2.64-2.84h-2.38v5.69Z"/><path d="M254.86,28.79c0-4.12,1.07-6.94,4.9-6.94s4.92,2.82,4.92,6.94-1.27,6.94-4.92,6.94S254.86,32.91,254.86,28.79Zm4.9,5c1.93,0,2.28-1.61,2.28-5,0-2.92-.35-5-2.28-5s-2.26,2.05-2.26,5C257.5,32.15,257.87,33.76,259.76,33.76Z"/><path d="M266.84,22.2h2.5v1.54h.07a3.7,3.7,0,0,1,3.16-1.89,2.86,2.86,0,0,1,3.06,2,3.61,3.61,0,0,1,3.34-2c1.86,0,3.21,1,3.21,3.51v10h-2.65v-9c0-1.74-.51-2.38-1.59-2.38s-2.11.84-2.11,2.58v8.84h-2.65v-9c0-1.74-.51-2.38-1.61-2.38s-2.09.86-2.09,2.58v8.84h-2.64Z"/><path d="M293.49,32.64c0,.49.3.93.69.93a1.18,1.18,0,0,0,.44-.07v1.71a2.83,2.83,0,0,1-1.3.32c-1.17,0-2.15-.47-2.23-1.74h0a3.4,3.4,0,0,1-3.28,1.94c-2.13,0-3.43-1.16-3.43-3.71,0-2.94,1.3-3.55,3.06-4.14l2.06-.56c1-.27,1.54-.54,1.54-1.69s-.41-2-1.81-2c-1.76,0-2,1.25-2,2.52h-2.5c0-2.82,1.15-4.34,4.63-4.34,2.33,0,4.19.91,4.19,3.24ZM291,28.42a20,20,0,0,1-2.94,1.23A2.16,2.16,0,0,0,287,31.78c0,1.1.53,2,1.64,2,1.59,0,2.37-1.17,2.37-3.13Z"/><path d="M296.19,22.2h2.5v1.54h.07a3.79,3.79,0,0,1,3.38-1.89c2,0,3.28.91,3.28,3.58v10h-2.64v-9c0-1.76-.47-2.38-1.84-2.38-1.08,0-2.11.81-2.11,2.58v8.84h-2.64Z"/><path d="M314,17.88h6.18c2.45,0,4.43,1.25,4.43,4.51,0,2.26-1,4-2.91,4.29v.05c1.76.17,2.64,1.13,2.74,3.58,0,1.15,0,2.5.1,3.55a1.89,1.89,0,0,0,.83,1.52h-3.16a2.93,2.93,0,0,1-.46-1.54c0-.52-.08-1.06-.08-1.57s0-1.1-.05-1.74c-.07-1.91-.66-2.74-2.55-2.74h-2.27v7.59H314Zm5,7.8a2.58,2.58,0,0,0,2.79-2.85c0-1.86-.78-2.84-2.65-2.84h-2.37v5.69Z"/><path d="M329.29,29.13v.76c0,1.77.22,4,2.2,4s2.11-2.13,2.11-2.94h2.5c0,3-1.77,4.76-4.63,4.76-2.16,0-4.83-.64-4.83-6.74,0-3.46.76-7.14,4.88-7.14,3.67,0,4.65,2.23,4.65,5.89v1.39Zm4.24-1.81v-.71c0-1.67-.54-2.94-2-2.94-1.67,0-2.2,1.66-2.2,3.38v.27Z"/><path d="M344,35.73a3,3,0,0,1-3-1.89H341V39.7h-2.65V22.2h2.5v1.62h0a3.11,3.11,0,0,1,3-2c3,0,4.24,2.58,4.24,7.11C348.1,34.5,345.87,35.73,344,35.73Zm-1-11.77c-1.81,0-2.23,1.84-2.23,4.68,0,3.16.39,5,2.25,5,1.5,0,2.21-1.13,2.21-4.78C345.31,25.85,344.94,24,343.08,24Z"/><path d="M356.87,33.84h-.07a3.79,3.79,0,0,1-3.38,1.89c-2,0-3.29-.91-3.29-4.32V22.2h2.65v9.46c0,1.47.64,2,1.79,2a2.06,2.06,0,0,0,2.16-2.21V22.2h2.64V35.38h-2.5Z"/><path d="M361.92,17.88h2.64v5.86h.05a3.06,3.06,0,0,1,3-1.89c2,0,4.07.91,4.07,6.77,0,4.53-1.25,7.11-4.31,7.11a2.82,2.82,0,0,1-2.89-2h-.05v1.62h-2.5Zm4.73,15.74c1.86,0,2.23-1.89,2.23-4.88,0-3.55-.57-4.78-2.06-4.78-2.06,0-2.4,1.82-2.4,5C364.42,31.78,364.83,33.62,366.65,33.62Z"/><path d="M373.83,17.88h2.64v17.5h-2.64Z"/><path d="M379.26,17.69h2.65v2.65h-2.65Zm0,4.51h2.65V35.38h-2.65Z"/><path d="M393.48,30.58c-.2,3.16-1.23,5.15-4.51,5.15-3.83,0-4.91-2.82-4.91-6.94s1.08-6.94,4.91-6.94,4.53,3.12,4.53,4.73h-2.65c0-1.22-.32-2.84-1.88-2.76-1.89,0-2.26,2.05-2.26,5s.37,5,2.26,5c1.47,0,2-1.2,2-3.18Z"/></g><g id="Chinese"><path d="M1600.56,11.58h-4.17V9.22h11v2.36h-4.09V26.72h-2.79Z"/><path d="M1614.55,17.39V17c0-1-.37-2-1.74-2-1.06,0-1.89.46-1.89,1.71,0,1.06.47,1.45,1.86,1.94l1.69.59c2,.66,2.87,1.71,2.87,3.8,0,2.81-2.08,4-4.73,4-3.33,0-4.34-1.54-4.34-4.09v-.49h2.36v.42c0,1.54.51,2.35,2,2.35s2.16-.73,2.16-1.93a1.91,1.91,0,0,0-1.45-1.94l-2.15-.76c-2-.66-2.82-1.69-2.82-3.8,0-2.47,1.76-3.63,4.51-3.63,3.36,0,4.12,2,4.12,3.61v.59Z"/><path d="M1619.57,9.22h2.79v3.24c0,2-.63,3.36-2.79,3.77V14.81c.76-.19,1.22-.9,1.22-2v-.37h-1.22Z"/><path d="M1625.3,9H1628v2.65h-2.65Zm0,4.51H1628V26.72h-2.65Z"/><path d="M1630.62,13.54h2.5v1.54h.07a3.79,3.79,0,0,1,3.38-1.89c2,0,3.29.91,3.29,3.58v10h-2.65v-9c0-1.76-.47-2.38-1.84-2.38-1.08,0-2.11.81-2.11,2.58v8.84h-2.64Z"/><path d="M1648.45,9.22h5c5.49,0,6.17,3.58,6.17,8.75s-.68,8.75-6.17,8.75h-5Zm2.8,15.39h2.3c2.3,0,3.26-1.51,3.26-6.64,0-4.92-.83-6.64-3.26-6.64h-2.3Z"/><path d="M1663.67,13.54l2.28,9.9h0l2.1-9.9h2.77l-3.62,13.67c-1.06,3.6-1.87,4.09-4.61,4a4.76,4.76,0,0,1-1.06-.1V29a3.65,3.65,0,0,0,.86.09c.91,0,1.5-.17,1.79-1l.34-1.07-3.74-13.48Z"/><path d="M1672.34,13.54h2.5v1.54h.07a3.81,3.81,0,0,1,3.39-1.89c2,0,3.28.91,3.28,3.58v10h-2.65v-9c0-1.76-.46-2.38-1.84-2.38-1.07,0-2.1.81-2.1,2.58v8.84h-2.65Z"/><path d="M1692.77,24c0,.49.3.93.69.93a1,1,0,0,0,.44-.08v1.72a2.83,2.83,0,0,1-1.3.32c-1.17,0-2.15-.47-2.23-1.74h0a3.39,3.39,0,0,1-3.28,1.93c-2.13,0-3.43-1.15-3.43-3.7,0-2.94,1.3-3.55,3.06-4.14l2.06-.56c1-.27,1.55-.54,1.55-1.69s-.42-2-1.82-2c-1.76,0-2,1.25-2,2.52H1684c0-2.82,1.15-4.34,4.63-4.34,2.33,0,4.19.91,4.19,3.24Zm-2.49-4.22a20.62,20.62,0,0,1-3,1.23,2.18,2.18,0,0,0-1.07,2.13c0,1.1.54,2,1.64,2,1.59,0,2.38-1.17,2.38-3.13Z"/><path d="M1701.15,17.39V17c0-1-.36-2-1.74-2-1.05,0-1.88.46-1.88,1.71,0,1.06.46,1.45,1.86,1.94l1.69.59c2,.66,2.87,1.71,2.87,3.8,0,2.81-2.09,4-4.73,4-3.34,0-4.34-1.54-4.34-4.09v-.49h2.35v.42c0,1.54.52,2.35,2.06,2.35s2.16-.73,2.16-1.93a1.91,1.91,0,0,0-1.45-1.94l-2.15-.76c-2-.66-2.82-1.69-2.82-3.8,0-2.47,1.76-3.63,4.51-3.63,3.35,0,4.11,2,4.11,3.61v.59Z"/><path d="M1704.73,13.54h1.81V9.79h2.65v3.75h2.16v2h-2.16v7.86c0,1.06.29,1.4,1.2,1.4a5.1,5.1,0,0,0,1-.07v2a8.58,8.58,0,0,1-2.14.22c-1.76,0-2.67-.52-2.67-3.19V15.5h-1.81Z"/><path d="M1714.48,13.54l2.28,9.9h0l2.11-9.9h2.76l-3.62,13.67c-1.06,3.6-1.86,4.09-4.61,4a4.67,4.67,0,0,1-1-.1V29a3.54,3.54,0,0,0,.86.09c.9,0,1.49-.17,1.78-1l.35-1.07-3.75-13.48Z"/></g><g id="Seleucids"><path d="M1237.91,47.78v.44c0,2.13.95,3.21,2.87,3.21a2.5,2.5,0,0,0,2.64-2.55c0-1.84-.93-2.64-2.5-3.11l-1.91-.66c-2.55-1-3.65-2.31-3.65-4.8,0-3.19,2.18-5,5.44-5,4.49,0,5,2.8,5,4.61v.39H1243V40c0-1.6-.69-2.53-2.45-2.53a2.24,2.24,0,0,0-2.36,2.53c0,1.49.76,2.25,2.63,3l1.88.69c2.48.88,3.56,2.2,3.56,4.63,0,3.72-2.26,5.27-5.79,5.27-4.33,0-5.31-2.89-5.31-5.34v-.42Z"/><path d="M1250.58,47v.76c0,1.76.22,4,2.2,4s2.11-2.13,2.11-2.94h2.5c0,3-1.77,4.76-4.63,4.76-2.16,0-4.83-.64-4.83-6.74,0-3.46.76-7.13,4.88-7.13,3.67,0,4.65,2.23,4.65,5.88V47Zm4.23-1.82v-.71c0-1.66-.53-2.94-2-2.94-1.67,0-2.2,1.67-2.2,3.38v.27Z"/><path d="M1259.76,35.7h2.65V53.2h-2.65Z"/><path d="M1267.36,47v.76c0,1.76.22,4,2.2,4s2.11-2.13,2.11-2.94h2.5c0,3-1.76,4.76-4.63,4.76-2.16,0-4.83-.64-4.83-6.74,0-3.46.76-7.13,4.88-7.13,3.67,0,4.65,2.23,4.65,5.88V47Zm4.24-1.82v-.71c0-1.66-.54-2.94-2-2.94-1.66,0-2.2,1.67-2.2,3.38v.27Z"/><path d="M1283.16,51.65h-.07a3.77,3.77,0,0,1-3.38,1.89c-2,0-3.29-.91-3.29-4.31V40h2.65v9.46c0,1.47.64,2,1.79,2a2,2,0,0,0,2.15-2.2V40h2.65V53.2h-2.5Z"/><path d="M1297.1,48.39c-.2,3.16-1.22,5.15-4.51,5.15-3.82,0-4.9-2.82-4.9-6.94s1.08-6.93,4.9-6.93,4.54,3.11,4.54,4.73h-2.65c0-1.23-.32-2.85-1.89-2.77-1.88,0-2.25,2.06-2.25,5s.37,5,2.25,5c1.47,0,2-1.2,2-3.19Z"/><path d="M1299.21,35.5h2.64v2.65h-2.64Zm0,4.51h2.64V53.2h-2.64Z"/><path d="M1311.26,51.58h0a2.82,2.82,0,0,1-2.89,2c-3.06,0-4.31-2.6-4.31-7.11,0-5.86,2.06-6.76,4.06-6.76a3,3,0,0,1,3,1.88h0V35.7h2.65V53.2h-2.5Zm-2.4-9.8c-1.5,0-2.06,1.22-2.06,4.77,0,3,.37,4.88,2.23,4.88s2.23-1.84,2.23-4.68C1311.26,43.59,1310.92,41.78,1308.86,41.78Z"/><path d="M1322,43.86v-.34c0-1.06-.37-2-1.74-2-1,0-1.89.47-1.89,1.72,0,1,.47,1.44,1.87,1.93l1.69.59c2,.66,2.86,1.72,2.86,3.8,0,2.82-2.08,4-4.72,4-3.34,0-4.34-1.55-4.34-4.09V49h2.35v.41c0,1.55.51,2.35,2.06,2.35s2.16-.73,2.16-1.93a1.91,1.91,0,0,0-1.45-1.94l-2.16-.76c-2-.66-2.82-1.69-2.82-3.8,0-2.47,1.77-3.62,4.51-3.62,3.36,0,4.12,2,4.12,3.6v.59Z"/></g><g id="Egytians"><g id="large"><path d="M879.24,32.91h9.46v2.35H882v4.86h6.27v2.35H882v5.59h6.86v2.35h-9.66Z"/><path d="M899.68,48.37h0a3.63,3.63,0,0,1-3.83,2.38c-3.82,0-5.19-2.84-5.19-9.09s1.76-9.09,5.81-9.09a4.76,4.76,0,0,1,5.12,5v.31h-2.65v-.41c0-1.3-.54-2.85-2.45-2.85s-3,1.33-3,6.92.93,7,2.82,7c2.13,0,2.92-1.52,2.92-5.34H896.2V41.19h5.58v9.22h-2.1Z"/><path d="M907.15,43.57l-4.51-10.66h3.11l2.94,7.55,3-7.55h2.91l-4.68,10.66v6.84h-2.79Z"/><path d="M916,32.91h5.53c3.36,0,4.83,2.11,4.83,5.1s-1.86,5.17-5.12,5.17h-2.45v7.23H916Zm2.79,8.16h2c1.49,0,2.79-.78,2.79-3,0-1.89-.76-3-3-3h-1.79Z"/><path d="M931.08,35.26h-4.16V32.91H938v2.35h-4.09V50.41h-2.8Z"/></g></g></g></svg>