<svg xmlns="http://www.w3.org/2000/svg" viewBox="0 0 1847.91 115"><title>bc0250text</title><g id="YEARS"><g id="Right"><path d="M1788.51,108.13h-10.76c0-8,7.72-7.83,7.72-13.55,0-1.54-.65-2.78-2.29-2.78-2.21,0-2.57,2-2.57,3.85h-2.81c0-3.65,1.51-5.93,5.43-5.93,3.75,0,5.2,2.23,5.2,4.91,0,6.11-6,6.48-7.38,11h7.46Z"/><path d="M1790.2,103.16H1793v.49a2.35,2.35,0,0,0,2.42,2.6c2.08,0,2.62-2,2.62-4.18s-.57-3.93-2.47-3.93a2.36,2.36,0,0,0-2.42,1.69l-2.62-.1.91-9.65h8.86v2.37h-6.65l-.6,4.83,0,0a4.09,4.09,0,0,1,3.1-1.42c3.84,0,4.81,3.25,4.81,6.08,0,3.69-1.69,6.5-5.67,6.5-3.3,0-5.15-1.69-5.15-4.94Z"/><path d="M1808.09,89.72c3.53,0,5.51,2.21,5.51,9.38s-2,9.39-5.51,9.39-5.51-2.21-5.51-9.39S1804.55,89.72,1808.09,89.72Zm0,16.69c2,0,2.55-2,2.55-7.31s-.55-7.3-2.55-7.3-2.55,2-2.55,7.3S1806.09,106.41,1808.09,106.41Z"/></g><g id="Layer_34" data-name="Layer 34"><path d="M28.76,111.72H18c0-8,7.72-7.82,7.72-13.54,0-1.54-.65-2.79-2.29-2.79-2.21,0-2.57,2-2.57,3.85H18.05c0-3.64,1.51-5.93,5.43-5.93,3.75,0,5.2,2.24,5.2,4.92,0,6.11-6,6.47-7.38,11h7.46Z"/><path d="M30.45,106.76h2.81v.49a2.35,2.35,0,0,0,2.42,2.6c2.08,0,2.62-2,2.62-4.18s-.57-3.93-2.47-3.93a2.36,2.36,0,0,0-2.42,1.69l-2.62-.1.91-9.65h8.86V96H33.91l-.6,4.84,0,.05a4.06,4.06,0,0,1,3.1-1.43c3.84,0,4.81,3.25,4.81,6.09,0,3.69-1.69,6.5-5.67,6.5-3.3,0-5.15-1.69-5.15-4.94Z"/><path d="M48.34,93.31c3.53,0,5.51,2.21,5.51,9.39s-2,9.39-5.51,9.39-5.51-2.21-5.51-9.39S44.8,93.31,48.34,93.31Zm0,16.7c2,0,2.55-2,2.55-7.31s-.55-7.31-2.55-7.31-2.55,2-2.55,7.31S46.34,110,48.34,110Z"/></g></g></svg>