<svg id="Text" xmlns="http://www.w3.org/2000/svg" viewBox="0 0 1847.91 110"><title>bc0200text</title><g id="Chinese"><path d="M1600.56,11.58h-4.17V9.22h11v2.36h-4.09V26.72h-2.79Z"/><path d="M1614.55,17.39V17c0-1-.37-2-1.74-2-1.06,0-1.89.46-1.89,1.71,0,1.06.47,1.45,1.86,1.94l1.69.59c2,.66,2.87,1.71,2.87,3.8,0,2.81-2.08,4-4.73,4-3.33,0-4.34-1.54-4.34-4.09v-.49h2.36v.42c0,1.54.51,2.35,2,2.35s2.16-.73,2.16-1.93a1.91,1.91,0,0,0-1.45-1.94l-2.15-.76c-2-.66-2.82-1.69-2.82-3.8,0-2.47,1.76-3.63,4.51-3.63,3.36,0,4.12,2,4.12,3.61v.59Z"/><path d="M1619.57,9.22h2.79v3.24c0,2-.63,3.36-2.79,3.77V14.81c.76-.19,1.22-.9,1.22-2v-.37h-1.22Z"/><path d="M1625.3,9H1628v2.65h-2.65Zm0,4.51H1628V26.72h-2.65Z"/><path d="M1630.62,13.54h2.5v1.54h.07a3.79,3.79,0,0,1,3.38-1.89c2,0,3.29.91,3.29,3.58v10h-2.65v-9c0-1.76-.47-2.38-1.84-2.38-1.08,0-2.11.81-2.11,2.58v8.84h-2.64Z"/><path d="M1648.45,9.22h5c5.49,0,6.17,3.58,6.17,8.75s-.68,8.75-6.17,8.75h-5Zm2.8,15.39h2.3c2.3,0,3.26-1.51,3.26-6.64,0-4.92-.83-6.64-3.26-6.64h-2.3Z"/><path d="M1663.67,13.54l2.28,9.9h0l2.1-9.9h2.77l-3.62,13.67c-1.06,3.6-1.87,4.09-4.61,4a4.76,4.76,0,0,1-1.06-.1V29a3.65,3.65,0,0,0,.86.09c.91,0,1.5-.17,1.79-1l.34-1.07-3.74-13.48Z"/><path d="M1672.34,13.54h2.5v1.54h.07a3.81,3.81,0,0,1,3.39-1.89c2,0,3.28.91,3.28,3.58v10h-2.65v-9c0-1.76-.46-2.38-1.84-2.38-1.07,0-2.1.81-2.1,2.58v8.84h-2.65Z"/><path d="M1692.77,24c0,.49.3.93.69.93a1,1,0,0,0,.44-.08v1.72a2.83,2.83,0,0,1-1.3.32c-1.17,0-2.15-.47-2.23-1.74h0a3.39,3.39,0,0,1-3.28,1.93c-2.13,0-3.43-1.15-3.43-3.7,0-2.94,1.3-3.55,3.06-4.14l2.06-.56c1-.27,1.55-.54,1.55-1.69s-.42-2-1.82-2c-1.76,0-2,1.25-2,2.52H1684c0-2.82,1.15-4.34,4.63-4.34,2.33,0,4.19.91,4.19,3.24Zm-2.49-4.22a20.62,20.62,0,0,1-3,1.23,2.18,2.18,0,0,0-1.07,2.13c0,1.1.54,2,1.64,2,1.59,0,2.38-1.17,2.38-3.13Z"/><path d="M1701.15,17.39V17c0-1-.36-2-1.74-2-1.05,0-1.88.46-1.88,1.71,0,1.06.46,1.45,1.86,1.94l1.69.59c2,.66,2.87,1.71,2.87,3.8,0,2.81-2.09,4-4.73,4-3.34,0-4.34-1.54-4.34-4.09v-.49h2.35v.42c0,1.54.52,2.35,2.06,2.35s2.16-.73,2.16-1.93a1.91,1.91,0,0,0-1.45-1.94l-2.15-.76c-2-.66-2.82-1.69-2.82-3.8,0-2.47,1.76-3.63,4.51-3.63,3.35,0,4.11,2,4.11,3.61v.59Z"/><path d="M1704.73,13.54h1.81V9.79h2.65v3.75h2.16v2h-2.16v7.86c0,1.06.29,1.4,1.2,1.4a5.1,5.1,0,0,0,1-.07v2a8.58,8.58,0,0,1-2.14.22c-1.76,0-2.67-.52-2.67-3.19V15.5h-1.81Z"/><path d="M1714.48,13.54l2.28,9.9h0l2.11-9.9h2.76l-3.62,13.67c-1.06,3.6-1.86,4.09-4.61,4a4.67,4.67,0,0,1-1-.1V29a3.54,3.54,0,0,0,.86.09c.9,0,1.49-.17,1.78-1l.35-1.07-3.75-13.48Z"/></g></svg>