<svg xmlns="http://www.w3.org/2000/svg" viewBox="0 0 1847.91 115"><title>bc0250text</title><g id="YEARS"><g id="Right"><path d="M1805,104.17h-10.76c0-8,7.72-7.83,7.72-13.55,0-1.53-.65-2.78-2.29-2.78-2.21,0-2.58,2-2.58,3.85h-2.8c0-3.64,1.5-5.93,5.43-5.93,3.75,0,5.2,2.24,5.2,4.92,0,6.11-6,6.47-7.38,11H1805Z" fill="#3b4351"/><path d="M1806.67,99.2h2.81v.5a2.35,2.35,0,0,0,2.41,2.6c2.09,0,2.63-2,2.63-4.19s-.57-3.92-2.47-3.92a2.35,2.35,0,0,0-2.42,1.69l-2.62-.11.91-9.65h8.86v2.37h-6.65l-.6,4.84,0,0a4.06,4.06,0,0,1,3.09-1.43c3.85,0,4.81,3.25,4.81,6.08,0,3.7-1.69,6.5-5.66,6.5-3.31,0-5.15-1.69-5.15-4.94Z" fill="#3b4351"/><path d="M1824.56,85.76c3.53,0,5.51,2.21,5.51,9.39s-2,9.38-5.51,9.38-5.52-2.21-5.52-9.38S1821,85.76,1824.56,85.76Zm0,16.69c2,0,2.54-2,2.54-7.3s-.54-7.31-2.54-7.31-2.55,2-2.55,7.31S1822.55,102.45,1824.56,102.45Z" fill="#3b4351"/></g><g id="left"><path d="M29.94,106.08H19.18c0-8,7.72-7.83,7.72-13.55,0-1.53-.65-2.78-2.29-2.78-2.21,0-2.57,2-2.57,3.85H19.23c0-3.64,1.51-5.93,5.44-5.93,3.74,0,5.2,2.23,5.2,4.91,0,6.11-6,6.48-7.39,11h7.46Z" fill="#3b4351"/><path d="M31.63,101.11h2.81v.5a2.36,2.36,0,0,0,2.42,2.6c2.08,0,2.63-2,2.63-4.19s-.58-3.93-2.47-3.93a2.35,2.35,0,0,0-2.42,1.69L32,97.68,32.88,88h8.87V90.4H35.09l-.6,4.84.06.05a4,4,0,0,1,3.09-1.43c3.85,0,4.81,3.25,4.81,6.08,0,3.69-1.69,6.5-5.67,6.5-3.3,0-5.15-1.69-5.15-4.94Z" fill="#3b4351"/><path d="M49.52,87.67c3.54,0,5.51,2.21,5.51,9.38s-2,9.39-5.51,9.39S44,104.23,44,97.05,46,87.67,49.52,87.67Zm0,16.69c2,0,2.55-2,2.55-7.31s-.55-7.3-2.55-7.3-2.55,2-2.55,7.3S47.52,104.36,49.52,104.36Z" fill="#3b4351"/></g></g><g id="Nation_OUtlines" data-name="Nation OUtlines"><polygon id="Romans" points="854.62 4044.83 829.93 3931.83 711.95 3822.83 764.62 3708.83 729.95 3593.83 845.28 3482.83 1002.62 3370.83 1065.29 3256.83 1021.28 3145.83 995.34 3028.83 815.28 2920.83 703.28 2809.83 687.28 2694.83 737.95 2580.83 780.62 2468.83 712.62 2357.83 645.95 2243.83 550.62 2130.83 491.95 2021 453.95 1908 455.29 1796 435.95 1681 470.62 1573 322.62 1573 416.12 1460 480.12 1350 410.62 1238 316.95 1124 248.28 1009 210.28 898 175.95 787 159.62 671 91.28 558 83.12 453 117.62 339 151.37 225 129.62 115 109.62 0 99.62 -112 73.12 -222 75.42 -1120 85.95 -1010 95.28 -898 111.95 -786 116.62 -675 137.95 -562 149.95 -446 169.95 -334 205.28 -222 231.95 -112 287.74 0 467.73 115 683.72 225 998.71 339 1118.7 453 1131.14 558 1195.2 671 1182.62 787 1245.62 898 1220.62 1009 1122.62 1124 981.62 1238 880.12 1350 717.95 1460 593.62 1573 616.62 1681 717.28 1796 839.28 1910.84 863.28 2021 915.28 2130.83 810.62 2243.83 885.95 2357.83 1037.95 2468.83 1125.95 2580.83 1253.95 2694.83 1213.95 2809.83 1202.62 2920.83 1169.95 3028.83 1161.29 3145.83 1218.62 3256.83 1131.95 3370.83 936.62 3482.83 798.62 3593.83 819.28 3708.83 759.95 3822.83 849.28 3931.83 854.62 4044.83" fill="none" stroke="#3b4351" stroke-miterlimit="10"/><polygon id="Iranians" points="1263.29 -1455.83 1235.95 -1570 1211.95 -1684.5 1241.29 -1794.5 1280.62 -1907 1217.95 -2021.83 1163.29 -2131.16 1140.62 -2244.5 1175.95 -2355 1153.29 -2469.83 1137.95 -2583.16 1188.62 -2694.5 1153.95 -2807.16 1161.95 -2920 1156.67 -3035.27 1152.84 -3152.5 1131.29 -3259 1198.62 -3369.5 1275.29 -3481.5 1277.29 -3595.16 1268.62 -3704.83 1283.88 -3816.83 1411.11 -3816.83 1445.69 -3705.27 1480.18 -3594.6 1462.18 -3481.5 1438.19 -3369.5 1387.19 -3259 1387.19 -3147 1420.19 -3032.07 1429.19 -2920 1400.69 -2807.08 1417.19 -2694 1343.69 -2583 1325.69 -2469 1345.19 -2355 1313.69 -2243 1298.69 -2131 1310.69 -2021 1348.19 -1907 1313.69 -1794 1285.19 -1683 1294.19 -1570 1372.19 -1455.83 1373.74 -1347.27 1375.34 -1235.27 1376.98 -1120 1335.62 -1010 1348.62 -898 1391.1 -786 1462.62 -675 1440.62 -562.27 1447.62 -446 1472.62 -334 1505.62 -222.27 1513.62 -112.27 1437.62 -0.27 1391.82 114.73 1219.62 0 1086.62 -112 890.71 -222.27 788.62 -334 767.62 -446 866.62 -562 1041.62 -675.27 1176.62 -786.27 1205.62 -898.27 1242.62 -1010.27 1294.62 -1120 1322.62 -1232.83 1240.62 -1347 1263.29 -1455.83" fill="none" stroke="#3b4351" stroke-miterlimit="10"/><polygon id="Indians" points="1372.19 -1455.83 1294.19 -1570 1285.19 -1683 1313.69 -1794 1348.19 -1907 1310.69 -2021 1298.69 -2131 1313.69 -2243 1345.19 -2355 1325.69 -2469 1343.69 -2583 1417.19 -2694 1400.69 -2807.08 1429.19 -2920 1419.27 -3035.27 1387.19 -3147 1387.19 -3259 1438.19 -3369.5 1462.18 -3481.5 1480.18 -3594.54 1445.82 -3704.83 1411.11 -3816.83 1545.86 -3816.83 1580.1 -3704.83 1593.12 -3594.6 1552.12 -3481.5 1514.62 -3369.5 1514.12 -3259.33 1553.12 -3147.27 1548.12 -3035 1519.62 -2920 1534.12 -2806.33 1575.12 -2694 1559.62 -2583 1564.12 -2469.27 1534.62 -2355 1486.12 -2243 1465.12 -2131 1471.12 -2021.83 1502.12 -1907.83 1508.12 -1794 1534.62 -1683 1542.77 -1604.14 1555.62 -1455.83 1554.62 -1347 1567.12 -1235 1542.12 -1120.27 1498.12 -1010 1490.62 -898 1513.12 -786 1568.62 -675 1544.12 -562 1530.62 -446.27 1523.62 -334.27 1532.62 -222 1565.12 -112 1543.62 0 1514.12 115 1490.12 224.73 1495.62 339 1517.12 452.67 1528.12 558 1580.62 670.67 1578.12 786.67 1578.12 897.17 1560.12 1008.73 1526.62 1124 1467.62 1238 1381.62 1349.73 1270.62 1460 1090.12 1572.73 860.62 1681 1302.12 1796 1377.03 1908 1550.62 2021 1519.62 2130.83 1476.12 2243.83 1516.13 2357.83 1534.62 2470.17 1552.65 2580.83 1585.62 2694.73 1620.12 2809.83 1650.12 2920.83 1630.62 3028.73 1622.45 3145.73 1565.62 3256.83 1402.62 3370.17 1173.62 3482.83 1148.62 3593.83 1334.62 3708.83 1283.62 3822.83 1344.62 3931.83 1544.62 4044.83 1602.62 4159.17 1627.62 4270.83 1674.62 4383.73 1627.62 4498.83 1634.62 4610.83 1686.62 4722.83 1701.62 4835.83 1620.12 4947.83 1606.12 5058.83 1606.12 5172.66 1552.62 5172.66 1549.52 5058.83 1569.62 4947.83 1683.62 4835.83 1667.62 4722.83 1607.62 4610.83 1596.62 4498.17 1617.62 4383.83 1584.62 4270.83 1562.62 4158.83 1507.62 4044.83 1304.62 3931.73 1225.62 3822.73 1236.97 3785.78 1264.87 3708.83 1082.62 3593.83 1084.2 3483.34 1323.62 3370.83 1500.47 3256.73 1573.62 3145.83 1600.62 3028.83 1604.62 2920.83 1569.62 2809.83 1514.62 2694.83 1447.62 2580.73 1418.62 2468.83 1404.62 2357.83 1367.62 2243.83 1397.62 2130.83 1418.62 2020.73 1339.62 1907.73 1246.62 1796 748.62 1681 753.62 1573 910.76 1460 1053.62 1350 1195.2 1238 1311.62 1123.17 1353.62 1009 1348.62 898 1364.62 786.17 1406.62 671 1401.62 558 1429.62 453 1394.62 338.73 1393.2 225 1391.82 114.73 1437.52 0 1513.62 -112.27 1505.64 -222 1472.62 -333.83 1447.62 -446 1440.63 -562 1462.62 -675 1391.1 -786 1348.62 -898 1332.62 -1010 1376.98 -1120 1375.34 -1235.27 1373.74 -1347.27 1372.19 -1455.83" fill="none" stroke="#3b4351" stroke-miterlimit="10"/><polygon id="Huns" points="1555.62 -1455.83 1545.73 -1570 1533.62 -1683.33 1506.68 -1793.36 1502.16 -1907 1471.34 -2021 1465.12 -2131 1486.12 -2243 1534.62 -2355 1564.05 -2469 1559.62 -2583 1575.12 -2694 1534.24 -2806 1519.62 -2920 1548.12 -3035 1553.11 -3147 1514.47 -3259.27 1514.62 -3371.5 1552.12 -3481.5 1593.12 -3594.16 1580.1 -3704.83 1545.86 -3816.83 1633.99 -3816.83 1651.62 -3704.83 1667.62 -3594.16 1646.62 -3481.5 1620.62 -3369.5 1630.4 -3261.4 1650.62 -3147.33 1676.62 -3035 1700.12 -2920 1689.12 -2806 1714.62 -2694.33 1697.12 -2583.27 1645.62 -2469.27 1616.12 -2355 1586.62 -2243.27 1538.12 -2131.27 1509.12 -2021 1551.62 -1907 1585.12 -1794 1608.62 -1683.33 1609.69 -1570.27 1610.76 -1457.27 1613.62 -1347.27 1625.12 -1235.27 1599.12 -1119.33 1557.59 -1010 1545.65 -898 1558.62 -786 1584.62 -675.27 1571.12 -561.83 1576.62 -446 1567.62 -334 1587.12 -222 1621.12 -112 1612.12 0 1556.12 115 1528.62 225 1529.62 339 1553.62 453 1616.07 558 1609.25 671 1592.66 787 1611.01 897.73 1612.12 1009 1598.04 1124 1564.12 1238 1534.29 1350 1602.12 1459.73 1653.62 1573 1673.62 1681 1666.12 1796 1668.12 1907.67 1625.62 2020.67 1542.12 2130.83 1476.12 2243.83 1519.62 2130.83 1550.62 2021 1376.62 1907.73 1302.12 1796 860.62 1681 1090.12 1572.73 1270.62 1460 1381.62 1349.73 1467.62 1238 1526.62 1124 1560.12 1008.73 1578.12 897.17 1578.12 786.67 1580.62 670.67 1528.12 558 1517.12 452.67 1495.62 339 1490.12 224.73 1514.12 115 1543.62 0 1565.12 -112 1532.62 -222 1523.62 -334.27 1530.62 -446.27 1544.12 -562 1568.62 -675 1513.12 -786 1490.62 -898 1498.12 -1010 1542.12 -1120.27 1567.12 -1235 1554.62 -1347 1555.62 -1455.83" fill="none" stroke="#3b4351" stroke-miterlimit="10"/><polygon id="Greeks" points="1131.14 558 1118.7 453 998.71 339 683.72 225 467.73 115 287.74 0 231.95 -112 205.28 -222 169.95 -334 149.95 -446 137.95 -562 116.62 -675 111.95 -786 95.28 -898 85.95 -1010 75.42 -1120 75.42 -1293.33 75.42 -2583 142.25 -2469 145.25 -2355 155.75 -2243 172.25 -2131 202.25 -2021 223.25 -1907 251.62 -1794 250.62 -1683 221.95 -1569.16 228.6 -1457.27 199.95 -1347.16 217.95 -1235.16 237.43 -1120 262.62 -1010 259.95 -898 319.29 -786 349.95 -675 401.29 -562 527.28 -446 645.95 -334 761.95 -222 965.29 -112 965.95 0 897.95 114.17 910.76 224.73 1099.37 339 1168.66 453.09 1131.14 558" fill="none" stroke="#3b4351" stroke-miterlimit="10"/><polygon id="Egyptians" points="1195.2 668.31 1131.14 558 1168.66 453.09 1099.2 338.73 910.76 224.73 897.95 114.17 965.95 0 965.28 -112.5 761.95 -222 645.95 -334 527.28 -446 401.29 -562 349.95 -675 319.29 -786 259.95 -898 262.62 -1010 238.62 -1120 217.95 -1235 199.95 -1347 228.62 -1457 221.62 -1570 250.62 -1683 251.62 -1794 223.25 -1907 271.57 -2021 265.25 -2131 305.74 -2243 341.74 -2355 376.24 -2469 440.74 -2583 467.73 -2693.09 443.74 -2806 381.96 -2920 242.75 -3035 298.62 -3147 424.24 -3259 460.24 -3369.5 397.24 -3481.5 319.24 -3594.16 319.24 -3704.83 298.62 -3816.83 1103.77 -3816.83 1042.62 -3704.83 982.62 -3594.16 940.62 -3481.5 786.62 -3369.5 663.62 -3259 633.62 -3147 662.62 -3035 656.62 -2920.08 733.62 -2806.27 800.62 -2694.83 770.62 -2583 750.62 -2469 785.62 -2355 835.62 -2243 742.62 -2131 658.62 -2021 439.62 -1907 400.62 -1794 361.62 -1683 302.62 -1570 310.62 -1457 282.62 -1347 271.95 -1235 305.95 -1010 323.95 -898.5 432.62 -786 476.62 -675.83 451.95 -562 555.95 -446 667.28 -334 813.28 -222 968.62 -112 995.95 0 968.62 114.84 940.62 223.5 1130.91 338.73 1189.62 453.67 1157.7 558 1195.2 668.31" fill="none" stroke="#3b4351" stroke-miterlimit="10"/><polygon id="Chinese" points="1610.76 -1457.27 1609.69 -1570.27 1608.62 -1683.33 1585.12 -1794 1551.62 -1907 1509.12 -2021 1538.12 -2131.27 1586.62 -2243.27 1616.12 -2355 1645.62 -2469.27 1697.12 -2583.27 1714.62 -2694.33 1689.12 -2806 1700.12 -2920 1676.62 -3035 1650.62 -3147.33 1630.62 -3259 1620.62 -3369.5 1646.62 -3481.5 1667.62 -3594.16 1651.62 -3704.83 1633.99 -3816.83 1768.79 -3816.83 1768.79 4383.83 1768.79 4498.73 1766.12 4610.83 1757.62 4722.83 1736.12 4835.73 1676.12 4947.73 1661.12 5058.83 1663.62 5172.66 1606.12 5172.66 1606.12 5058.73 1620.12 4947.83 1701.62 4835.83 1696.12 4722.67 1654.12 4610.83 1681.62 4498.83 1739.62 4383.73 1748.62 4270.67 1744.12 4158.67 1685.62 4044.83 1615.12 3934.17 1636.12 3822.83 1738.62 3708.83 1761.12 3593.83 1758.62 3482.83 1732.12 3370.83 1695.62 3256.83 1667.62 3145.83 1651.12 3028.83 1650.12 2920.83 1620.12 2809.83 1585.62 2694.73 1552.62 2580.73 1535.12 2468.83 1516.12 2357.73 1476.12 2243.83 1542.12 2130.83 1625.62 2020.67 1668.12 1907.67 1666.12 1796 1673.62 1681 1653.62 1573 1602.12 1459.73 1534.12 1349.73 1564.12 1238 1598.12 1123.73 1612.12 1009 1611.01 897.73 1592.62 786.73 1609.25 671 1616.07 558 1553.62 453 1529.62 339 1528.62 224.73 1555.62 115 1612.12 0 1621.12 -112 1587.12 -222 1567.62 -334 1576.62 -446 1571.12 -562 1584.62 -675.27 1558.62 -786 1545.62 -898.27 1557.62 -1010.27 1599.62 -1120 1625.12 -1235.27 1613.62 -1347.27 1610.76 -1457.27" fill="none" stroke="#3b4351" stroke-miterlimit="10"/><polygon id="Teutons_-Goths" data-name="Teutons -Goths" points="712.62 2357.83 392.87 2243.83 333.12 2130.83 298.12 2021 257.62 1908 192.12 1796 189.69 1681 168.12 1573 138.62 1462.41 101.12 1350 73.12 1240.67 73.12 -222 99.62 -112 109.62 0 129.3 117.39 151.37 225 117.62 339 83.12 453 91.28 558 159.62 671 175.95 787 210.28 898 248.28 1009 316.95 1124 410.62 1238 480.12 1350 416.12 1460 322.62 1573 328.12 1681 455.29 1796 453.95 1908 425.12 2021 461.12 2130.83 536.62 2243.83 712.62 2357.83" fill="none" stroke="#3b4351" stroke-miterlimit="10"/><polygon id="Carthaginians" points="1333.62 228.6 1218.62 339 1189.62 453.67 1130.91 338.73 1186.62 225 1225.12 115 1219.62 0 1391.82 114.73 1333.62 228.6" fill="none" stroke="#3b4351" stroke-miterlimit="10"/><polygon id="Bactri" points="1394.62 338.73 1429.62 453 1401.62 558 1363.19 453 1341.62 339 1333.62 228.6 1391.82 114.73 1393.2 225 1394.62 338.73" fill="none" stroke="#3b4351" stroke-miterlimit="10"/><polygon points="1130.91 338.73 940.62 223.5 968.62 114.84 995.95 0 968.62 -112 813.28 -222 667.28 -334 624.62 -446 611.95 -562 608.62 -675 523.28 -786 375.82 -898 387.95 -1010 383.29 -1120 359.29 -1235 340.62 -1345.84 347.74 -1457.27 394.24 -1570 481.23 -1683 566.62 -1794 623.95 -1907 857.28 -2021 954.62 -2133.16 975.28 -2243.16 969.28 -2355 971.95 -2469.16 998.62 -2355 1020.62 -2243 989.95 -2131 921.28 -2021 697.58 -1907 630.62 -1794 573.95 -1683 511.95 -1570 538.62 -1457 509.95 -1347 479.29 -1235 428.62 -1120 439.95 -1010 493.29 -898 617.95 -786 644.62 -675 647.18 -562 716.62 -446.27 762.62 -334.27 890.71 -222.27 1086.62 -112 1219.62 0 1225.12 115 1186.62 225 1130.91 338.73" fill="none" stroke="#3b4351" stroke-miterlimit="10"/></g><g id="Text"><g id="Phonecians"><path d="M1047.09,24v.37c0,3.16-1.3,6.25-5.39,6.25-4.41,0-5.79-2.85-5.79-9.1s1.38-9.09,5.81-9.09c5,0,5.27,3.65,5.27,5.49v.32h-2.79V17.9c0-1.65-.49-3.48-2.5-3.41s-3,1.27-3,6.91.9,7.06,3,7.06c2.35,0,2.59-2.57,2.59-4.22V24Z" fill="#3b4351"/><path d="M1052.35,12.73h3.58l4.61,17.49h-2.92l-1.08-4.29h-5.12l-1.12,4.29h-2.92Zm3.73,11-2-8.62h0l-2.08,8.62Z" fill="#3b4351"/><path d="M1063.28,15.08h-4.17V12.73h11.06v2.35h-4.1V30.22h-2.79Z" fill="#3b4351"/><path d="M1071.76,12.73h2.79v7h5.15v-7h2.79V30.22h-2.79V22.09h-5.15v8.13h-2.79Z" fill="#3b4351"/><path d="M1088.69,12.73h3.58l4.6,17.49H1094l-1.08-4.29h-5.12l-1.13,4.29h-2.92Zm3.72,11-2-8.62h-.05l-2.08,8.62Z" fill="#3b4351"/><path d="M1106.74,28.19h0a3.65,3.65,0,0,1-3.83,2.38c-3.82,0-5.19-2.85-5.19-9.1s1.76-9.09,5.81-9.09a4.77,4.77,0,0,1,5.12,5v.32H1106v-.42c0-1.3-.54-2.84-2.45-2.84s-3,1.32-3,6.91.93,7.06,2.82,7.06c2.13,0,2.92-1.52,2.92-5.34h-2.94V21h5.58v9.21h-2.11Z" fill="#3b4351"/><path d="M1111.13,12.73h2.79V30.22h-2.79Z" fill="#3b4351"/><path d="M1116.69,12.73h3.41l5.07,13h0v-13h2.64V30.22h-3.4l-5.07-13.38h-.05V30.22h-2.65Z" fill="#3b4351"/><path d="M1130.63,12.73h2.79V30.22h-2.79Z" fill="#3b4351"/><path d="M1139.5,12.73h3.58l4.6,17.49h-2.91l-1.08-4.29h-5.12l-1.13,4.29h-2.92Zm3.72,11-2-8.62h0l-2.09,8.62Z" fill="#3b4351"/><path d="M1148.91,12.73h3.4l5.08,13h0v-13h2.65V30.22h-3.41l-5.07-13.38h0V30.22h-2.64Z" fill="#3b4351"/><path d="M1165.13,24.81v.44c0,2.13.95,3.21,2.86,3.21a2.51,2.51,0,0,0,2.65-2.55c0-1.84-.93-2.65-2.5-3.11l-1.91-.66c-2.55-1-3.65-2.31-3.65-4.81,0-3.18,2.18-4.95,5.44-4.95,4.48,0,5,2.8,5,4.61v.39h-2.8V17c0-1.59-.68-2.52-2.45-2.52a2.23,2.23,0,0,0-2.35,2.52c0,1.5.76,2.26,2.62,3l1.89.69c2.47.88,3.55,2.2,3.55,4.63,0,3.72-2.25,5.27-5.78,5.27-4.34,0-5.32-2.9-5.32-5.35v-.41Z" fill="#3b4351"/></g></g></svg>