<svg xmlns="http://www.w3.org/2000/svg" viewBox="0 0 1847.91 115"><title>bc0250text</title><g id="YEARS"><g id="Right"><path d="M1799.69,108.13h-10.76c0-8,7.72-7.83,7.72-13.55,0-1.54-.65-2.78-2.29-2.78-2.21,0-2.57,2-2.57,3.85H1789c0-3.65,1.51-5.93,5.44-5.93,3.74,0,5.2,2.23,5.2,4.91,0,6.11-6,6.48-7.39,11h7.46Z" fill="#3b4351"/><path d="M1801.38,103.16h2.81v.49a2.35,2.35,0,0,0,2.42,2.6c2.08,0,2.63-2,2.63-4.18s-.58-3.93-2.47-3.93a2.35,2.35,0,0,0-2.42,1.69l-2.63-.1.91-9.65h8.87v2.37h-6.66l-.6,4.83.06,0a4.07,4.07,0,0,1,3.09-1.42c3.85,0,4.81,3.25,4.81,6.08,0,3.69-1.69,6.5-5.67,6.5-3.3,0-5.15-1.69-5.15-4.94Z" fill="#3b4351"/><path d="M1819.27,89.72c3.54,0,5.51,2.21,5.51,9.38s-2,9.39-5.51,9.39-5.51-2.21-5.51-9.39S1815.73,89.72,1819.27,89.72Zm0,16.69c2,0,2.55-2,2.55-7.31s-.55-7.3-2.55-7.3-2.55,2-2.55,7.3S1817.27,106.41,1819.27,106.41Z" fill="#3b4351"/></g><g id="left"><path d="M29.94,111.72H19.18c0-8,7.72-7.82,7.72-13.54,0-1.54-.65-2.79-2.29-2.79-2.21,0-2.57,2-2.57,3.85H19.23c0-3.64,1.51-5.93,5.44-5.93,3.74,0,5.2,2.24,5.2,4.92,0,6.11-6,6.47-7.39,11h7.46Z" fill="#3b4351"/><path d="M31.63,106.76h2.81v.49a2.35,2.35,0,0,0,2.42,2.6c2.08,0,2.63-2,2.63-4.18s-.58-3.93-2.47-3.93a2.35,2.35,0,0,0-2.42,1.69l-2.63-.1.91-9.65h8.87V96H35.09l-.6,4.84.06.05a4,4,0,0,1,3.09-1.43c3.85,0,4.81,3.25,4.81,6.09,0,3.69-1.69,6.5-5.67,6.5-3.3,0-5.15-1.69-5.15-4.94Z" fill="#3b4351"/><path d="M49.52,93.31c3.54,0,5.51,2.21,5.51,9.39s-2,9.39-5.51,9.39S44,109.88,44,102.7,46,93.31,49.52,93.31Zm0,16.7c2,0,2.55-2,2.55-7.31s-.55-7.31-2.55-7.31S47,97.37,47,102.7,47.52,110,49.52,110Z" fill="#3b4351"/></g></g><g id="Text"><g id="Phonecians"><path d="M1047.09,24v.37c0,3.16-1.3,6.25-5.39,6.25-4.41,0-5.79-2.85-5.79-9.1s1.38-9.09,5.81-9.09c5,0,5.27,3.65,5.27,5.49v.32h-2.79V17.9c0-1.65-.49-3.48-2.5-3.41s-3,1.27-3,6.91.9,7.06,3,7.06c2.35,0,2.59-2.57,2.59-4.22V24Z" fill="#3b4351"/><path d="M1052.35,12.73h3.58l4.61,17.49h-2.92l-1.08-4.29h-5.12l-1.12,4.29h-2.92Zm3.73,11-2-8.62h0l-2.08,8.62Z" fill="#3b4351"/><path d="M1063.28,15.08h-4.17V12.73h11.06v2.35h-4.1V30.22h-2.79Z" fill="#3b4351"/><path d="M1071.76,12.73h2.79v7h5.15v-7h2.79V30.22h-2.79V22.09h-5.15v8.13h-2.79Z" fill="#3b4351"/><path d="M1088.69,12.73h3.58l4.6,17.49H1094l-1.08-4.29h-5.12l-1.13,4.29h-2.92Zm3.72,11-2-8.62h-.05l-2.08,8.62Z" fill="#3b4351"/><path d="M1106.74,28.19h0a3.65,3.65,0,0,1-3.83,2.38c-3.82,0-5.19-2.85-5.19-9.1s1.76-9.09,5.81-9.09a4.77,4.77,0,0,1,5.12,5v.32H1106v-.42c0-1.3-.54-2.84-2.45-2.84s-3,1.32-3,6.91.93,7.06,2.82,7.06c2.13,0,2.92-1.52,2.92-5.34h-2.94V21h5.58v9.21h-2.11Z" fill="#3b4351"/><path d="M1111.13,12.73h2.79V30.22h-2.79Z" fill="#3b4351"/><path d="M1116.69,12.73h3.41l5.07,13h0v-13h2.64V30.22h-3.4l-5.07-13.38h-.05V30.22h-2.65Z" fill="#3b4351"/><path d="M1130.63,12.73h2.79V30.22h-2.79Z" fill="#3b4351"/><path d="M1139.5,12.73h3.58l4.6,17.49h-2.91l-1.08-4.29h-5.12l-1.13,4.29h-2.92Zm3.72,11-2-8.62h0l-2.09,8.62Z" fill="#3b4351"/><path d="M1148.91,12.73h3.4l5.08,13h0v-13h2.65V30.22h-3.41l-5.07-13.38h0V30.22h-2.64Z" fill="#3b4351"/><path d="M1165.13,24.81v.44c0,2.13.95,3.21,2.86,3.21a2.51,2.51,0,0,0,2.65-2.55c0-1.84-.93-2.65-2.5-3.11l-1.91-.66c-2.55-1-3.65-2.31-3.65-4.81,0-3.18,2.18-4.95,5.44-4.95,4.48,0,5,2.8,5,4.61v.39h-2.8V17c0-1.59-.68-2.52-2.45-2.52a2.23,2.23,0,0,0-2.35,2.52c0,1.5.76,2.26,2.62,3l1.89.69c2.47.88,3.55,2.2,3.55,4.63,0,3.72-2.25,5.27-5.78,5.27-4.34,0-5.32-2.9-5.32-5.35v-.41Z" fill="#3b4351"/></g></g></svg>