<svg id="Text" xmlns="http://www.w3.org/2000/svg" viewBox="0 0 1847.91 110"><title>bc0350text</title><g id="Romans"><path d="M117.4,85.71h6.17C126,85.71,128,87,128,90.22c0,2.26-1,4-2.92,4.29v0c1.76.17,2.65,1.13,2.75,3.58,0,1.15,0,2.5.09,3.55a1.92,1.92,0,0,0,.84,1.52h-3.16a2.92,2.92,0,0,1-.47-1.54c0-.52-.07-1.06-.07-1.57s0-1.1,0-1.74c-.08-1.91-.66-2.74-2.55-2.74h-2.28v7.59H117.4Zm5,7.8a2.58,2.58,0,0,0,2.79-2.84c0-1.87-.78-2.85-2.64-2.85h-2.38v5.69Z"/><path d="M130.14,94.46c0-6.25,1.76-9.09,5.78-9.09s5.78,2.84,5.78,9.09-1.76,9.1-5.78,9.1S130.14,100.71,130.14,94.46Zm8.77-.07c0-5.88-1.32-6.91-3-6.91s-3,1-3,6.91,1.32,7.06,3,7.06S138.91,100.39,138.91,94.39Z"/><path d="M144.17,85.71h4.37l3.08,13h0l3-13H159v17.5h-2.65V88.66h-.05l-3.53,14.55H150.4l-3.53-14.55h-.05v14.55h-2.65Z"/><path d="M165.17,85.71h3.58l4.61,17.5h-2.92l-1.08-4.29h-5.12l-1.13,4.29H160.2Zm3.73,11-2-8.62h0l-2.09,8.62Z"/><path d="M174.58,85.71H178l5.08,13h.05v-13h2.64v17.5h-3.4l-5.08-13.38h-.05v13.38h-2.64Z"/><path d="M190.8,97.8v.44c0,2.13.95,3.21,2.86,3.21a2.51,2.51,0,0,0,2.65-2.55c0-1.84-.93-2.65-2.5-3.11l-1.91-.67c-2.55-1-3.65-2.3-3.65-4.8,0-3.18,2.18-4.95,5.44-4.95,4.48,0,4.95,2.8,4.95,4.61v.39h-2.79V90c0-1.59-.69-2.52-2.46-2.52A2.23,2.23,0,0,0,191,90c0,1.5.76,2.26,2.62,3l1.89.69c2.48.88,3.55,2.2,3.55,4.63,0,3.72-2.25,5.27-5.78,5.27-4.34,0-5.32-2.9-5.32-5.35V97.8Z"/></g></svg>