<svg xmlns="http://www.w3.org/2000/svg" viewBox="0 0 1847.91 112"><title>bc0300text</title><g id="YEARS"><g id="Right"><path d="M1797,98.56c0,1.61.55,3.4,2.52,3.4s2.58-1.48,2.58-3.3c0-2.29-.73-3.43-3-3.43h-1.15V93.15H1799c2,0,2.65-1.35,2.65-3.15,0-1.32-.6-2.65-2.13-2.65-1.82,0-2.34,1.56-2.34,3.23h-2.81c0-3.46,1.77-5.31,5.31-5.31,2.21,0,4.94,1,4.94,4.71a3.91,3.91,0,0,1-2.94,4v.08c1.9.18,3.35,1.66,3.35,4.26,0,3.67-1.79,5.69-5.61,5.69-3.33,0-5.26-1.63-5.26-5.48Z" fill="#3b4351"/><path d="M1812.08,85.27c3.53,0,5.51,2.21,5.51,9.39s-2,9.38-5.51,9.38-5.52-2.21-5.52-9.38S1808.54,85.27,1812.08,85.27Zm0,16.69c2,0,2.54-2,2.54-7.3s-.54-7.31-2.54-7.31-2.55,2-2.55,7.31S1810.07,102,1812.08,102Z" fill="#3b4351"/><path d="M1824.56,85.27c3.53,0,5.51,2.21,5.51,9.39s-2,9.38-5.51,9.38-5.52-2.21-5.52-9.38S1821,85.27,1824.56,85.27Zm0,16.69c2,0,2.54-2,2.54-7.3s-.54-7.31-2.54-7.31-2.55,2-2.55,7.31S1822.55,102,1824.56,102Z" fill="#3b4351"/></g><g id="left"><path d="M21.94,100.47c0,1.61.54,3.4,2.52,3.4s2.57-1.48,2.57-3.3c0-2.29-.73-3.43-3-3.43H22.9V95.06H24c2,0,2.66-1.35,2.66-3.15,0-1.33-.6-2.65-2.14-2.65-1.82,0-2.34,1.56-2.34,3.22h-2.8c0-3.46,1.76-5.3,5.3-5.3,2.21,0,4.94,1,4.94,4.7a3.91,3.91,0,0,1-2.94,4V96c1.9.19,3.36,1.67,3.36,4.27,0,3.66-1.8,5.69-5.62,5.69-3.33,0-5.25-1.64-5.25-5.48Z" fill="#3b4351"/><path d="M37,87.18c3.54,0,5.51,2.21,5.51,9.38S40.58,106,37,106s-5.51-2.21-5.51-9.39S33.51,87.18,37,87.18Zm0,16.69c2,0,2.55-2,2.55-7.31S39,89.26,37,89.26s-2.55,2-2.55,7.3S35,103.87,37,103.87Z" fill="#3b4351"/><path d="M49.52,87.18c3.54,0,5.51,2.21,5.51,9.38s-2,9.39-5.51,9.39S44,103.74,44,96.56,46,87.18,49.52,87.18Zm0,16.69c2,0,2.55-2,2.55-7.31s-.55-7.3-2.55-7.3-2.55,2-2.55,7.3S47.52,103.87,49.52,103.87Z" fill="#3b4351"/></g></g><g id="Nation_OUtlines" data-name="Nation OUtlines"><polygon id="Romans" points="854.62 4156.83 829.93 4043.83 711.95 3934.83 764.62 3820.83 729.95 3705.83 845.28 3594.83 1002.62 3482.83 1065.29 3368.83 1021.28 3257.83 995.34 3140.83 815.28 3032.83 703.28 2921.83 687.28 2806.83 737.95 2692.83 780.62 2580.83 712.62 2469.83 645.95 2355.83 550.62 2242.83 491.95 2133 453.95 2020 455.29 1908 435.95 1793 470.62 1685 322.62 1685 416.12 1572 480.12 1462 410.62 1350 316.95 1236 248.28 1121 210.28 1010 175.95 899 159.62 783 91.28 670 83.12 565 117.62 451 151.37 337 129.62 227 109.62 112 99.62 0 73.12 -110 75.42 -1008 85.95 -898 95.28 -786 111.95 -674 116.62 -563 137.95 -450 149.95 -334 169.95 -222 205.28 -110 231.95 0 287.74 112 467.73 227 683.72 337 998.71 451 1118.7 565 1131.14 670 1195.2 783 1182.62 899 1245.62 1010 1220.62 1121 1122.62 1236 981.62 1350 880.12 1462 717.95 1572 593.62 1685 616.62 1793 717.28 1908 839.28 2022.84 863.28 2133 915.28 2242.83 810.62 2355.83 885.95 2469.83 1037.95 2580.83 1125.95 2692.83 1253.95 2806.83 1213.95 2921.83 1202.62 3032.83 1169.95 3140.83 1161.29 3257.83 1218.62 3368.83 1131.95 3482.83 936.62 3594.83 798.62 3705.83 819.28 3820.83 759.95 3934.83 849.28 4043.83 854.62 4156.83" fill="none" stroke="#3b4351" stroke-miterlimit="10"/><polygon id="Iranians" points="1263.29 -1343.83 1235.95 -1458 1211.95 -1572.5 1241.29 -1682.5 1280.62 -1795 1217.95 -1909.83 1163.29 -2019.16 1140.62 -2132.5 1175.95 -2243 1153.29 -2357.83 1137.95 -2471.16 1188.62 -2582.5 1153.95 -2695.16 1161.95 -2808 1156.67 -2923.27 1152.84 -3040.5 1131.29 -3147 1198.62 -3257.5 1275.29 -3369.5 1277.29 -3483.16 1268.62 -3592.83 1283.88 -3704.83 1411.11 -3704.83 1445.69 -3593.27 1480.18 -3482.6 1462.18 -3369.5 1438.19 -3257.5 1387.19 -3147 1387.19 -3035 1420.19 -2920.07 1429.19 -2808 1400.69 -2695.08 1417.19 -2582 1343.69 -2471 1325.69 -2357 1345.19 -2243 1313.69 -2131 1298.69 -2019 1310.69 -1909 1348.19 -1795 1313.69 -1682 1285.19 -1571 1294.19 -1458 1372.19 -1343.83 1373.74 -1235.27 1375.34 -1123.27 1376.98 -1008 1335.62 -898 1348.62 -786 1391.1 -674 1462.62 -563 1440.62 -450.27 1447.62 -334 1472.62 -222 1505.62 -110.27 1513.62 -0.27 1437.62 111.73 1391.82 226.73 1219.62 112 1086.62 0 890.71 -110.27 788.62 -222 767.62 -334 866.62 -450 1041.62 -563.27 1176.62 -674.27 1205.62 -786.27 1242.62 -898.27 1294.62 -1008 1322.62 -1120.83 1240.62 -1235 1263.29 -1343.83" fill="none" stroke="#3b4351" stroke-miterlimit="10"/><polygon id="Indians" points="1372.19 -1343.83 1294.19 -1458 1285.19 -1571 1313.69 -1682 1348.19 -1795 1310.69 -1909 1298.69 -2019 1313.69 -2131 1345.19 -2243 1325.69 -2357 1343.69 -2471 1417.19 -2582 1400.69 -2695.08 1429.19 -2808 1419.27 -2923.27 1387.19 -3035 1387.19 -3147 1438.19 -3257.5 1462.18 -3369.5 1480.18 -3482.54 1445.82 -3592.83 1411.11 -3704.83 1545.86 -3704.83 1580.1 -3592.83 1593.12 -3482.6 1552.12 -3369.5 1514.62 -3257.5 1514.12 -3147.33 1553.12 -3035.27 1548.12 -2923 1519.62 -2808 1534.12 -2694.33 1575.12 -2582 1559.62 -2471 1564.12 -2357.27 1534.62 -2243 1486.12 -2131 1465.12 -2019 1471.12 -1909.83 1502.12 -1795.83 1508.12 -1682 1534.62 -1571 1542.77 -1492.14 1555.62 -1343.83 1554.62 -1235 1567.12 -1123 1542.12 -1008.27 1498.12 -898 1490.62 -786 1513.12 -674 1568.62 -563 1544.12 -450 1530.62 -334.27 1523.62 -222.27 1532.62 -110 1565.12 0 1543.62 112 1514.12 227 1490.12 336.73 1495.62 451 1517.12 564.67 1528.12 670 1580.62 782.67 1578.12 898.67 1578.12 1009.17 1560.12 1120.73 1526.62 1236 1467.62 1350 1381.62 1461.73 1270.62 1572 1090.12 1684.73 860.62 1793 1302.12 1908 1377.03 2020 1550.62 2133 1519.62 2242.83 1476.12 2355.83 1516.13 2469.83 1534.62 2582.17 1552.65 2692.83 1585.62 2806.73 1620.12 2921.83 1650.12 3032.83 1630.62 3140.73 1622.45 3257.73 1565.62 3368.83 1402.62 3482.17 1173.62 3594.83 1148.62 3705.83 1334.62 3820.83 1283.62 3934.83 1344.62 4043.83 1544.62 4156.83 1602.62 4271.17 1627.62 4382.83 1674.62 4495.73 1627.62 4610.83 1634.62 4722.83 1686.62 4834.83 1701.62 4947.83 1620.12 5059.83 1606.12 5170.83 1606.12 5284.66 1552.62 5284.66 1549.52 5170.83 1569.62 5059.83 1683.62 4947.83 1667.62 4834.83 1607.62 4722.83 1596.62 4610.17 1617.62 4495.83 1584.62 4382.83 1562.62 4270.83 1507.62 4156.83 1304.62 4043.73 1225.62 3934.73 1236.97 3897.78 1264.87 3820.83 1082.62 3705.83 1084.2 3595.34 1323.62 3482.83 1500.47 3368.73 1573.62 3257.83 1600.62 3140.83 1604.62 3032.83 1569.62 2921.83 1514.62 2806.83 1447.62 2692.73 1418.62 2580.83 1404.62 2469.83 1367.62 2355.83 1397.62 2242.83 1418.62 2132.73 1339.62 2019.73 1246.62 1908 748.62 1793 753.62 1685 910.76 1572 1053.62 1462 1195.2 1350 1311.62 1235.17 1353.62 1121 1348.62 1010 1364.62 898.17 1406.62 783 1401.62 670 1429.62 565 1394.62 450.73 1393.2 337 1391.82 226.73 1437.52 112 1513.62 -0.27 1505.64 -110 1472.62 -221.83 1447.62 -334 1440.63 -450 1462.62 -563 1391.1 -674 1348.62 -786 1332.62 -898 1376.98 -1008 1375.34 -1123.27 1373.74 -1235.27 1372.19 -1343.83" fill="none" stroke="#3b4351" stroke-miterlimit="10"/><polygon id="Huns" points="1555.62 -1343.83 1545.73 -1458 1533.62 -1571.33 1506.68 -1681.36 1502.16 -1795 1471.34 -1909 1465.12 -2019 1486.12 -2131 1534.62 -2243 1564.05 -2357 1559.62 -2471 1575.12 -2582 1534.24 -2694 1519.62 -2808 1548.12 -2923 1553.11 -3035 1514.47 -3147.27 1514.62 -3259.5 1552.12 -3369.5 1593.12 -3482.16 1580.1 -3592.83 1545.86 -3704.83 1633.99 -3704.83 1651.62 -3592.83 1667.62 -3482.16 1646.62 -3369.5 1620.62 -3257.5 1630.4 -3149.4 1650.62 -3035.33 1676.62 -2923 1700.12 -2808 1689.12 -2694 1714.62 -2582.33 1697.12 -2471.27 1645.62 -2357.27 1616.12 -2243 1586.62 -2131.27 1538.12 -2019.27 1509.12 -1909 1551.62 -1795 1585.12 -1682 1608.62 -1571.33 1609.69 -1458.27 1610.76 -1345.27 1613.62 -1235.27 1625.12 -1123.27 1599.12 -1007.33 1557.59 -898 1545.65 -786 1558.62 -674 1584.62 -563.27 1571.12 -449.83 1576.62 -334 1567.62 -222 1587.12 -110 1621.12 0 1612.12 112 1556.12 227 1528.62 337 1529.62 451 1553.62 565 1616.07 670 1609.25 783 1592.66 899 1611.01 1009.73 1612.12 1121 1598.04 1236 1564.12 1350 1534.29 1462 1602.12 1571.73 1653.62 1685 1673.62 1793 1666.12 1908 1668.12 2019.67 1625.62 2132.67 1542.12 2242.83 1476.12 2355.83 1519.62 2242.83 1550.62 2133 1376.62 2019.73 1302.12 1908 860.62 1793 1090.12 1684.73 1270.62 1572 1381.62 1461.73 1467.62 1350 1526.62 1236 1560.12 1120.73 1578.12 1009.17 1578.12 898.67 1580.62 782.67 1528.12 670 1517.12 564.67 1495.62 451 1490.12 336.73 1514.12 227 1543.62 112 1565.12 0 1532.62 -110 1523.62 -222.27 1530.62 -334.27 1544.12 -450 1568.62 -563 1513.12 -674 1490.62 -786 1498.12 -898 1542.12 -1008.27 1567.12 -1123 1554.62 -1235 1555.62 -1343.83" fill="none" stroke="#3b4351" stroke-miterlimit="10"/><polygon id="Greeks" points="1131.14 670 1118.7 565 998.71 451 683.72 337 467.73 227 287.74 112 231.95 0 205.28 -110 169.95 -222 149.95 -334 137.95 -450 116.62 -563 111.95 -674 95.28 -786 85.95 -898 75.42 -1008 75.42 -1181.33 75.42 -2471 142.25 -2357 145.25 -2243 155.75 -2131 172.25 -2019 202.25 -1909 223.25 -1795 251.62 -1682 250.62 -1571 221.95 -1457.16 228.6 -1345.27 199.95 -1235.16 217.95 -1123.16 237.43 -1008 262.62 -898 259.95 -786 319.29 -674 349.95 -563 401.29 -450 527.28 -334 645.95 -222 761.95 -110 965.29 0 965.95 112 897.95 226.17 910.76 336.73 1099.37 451 1168.66 565.09 1131.14 670" fill="none" stroke="#3b4351" stroke-miterlimit="10"/><polygon id="Egyptians" points="1195.2 780.31 1131.14 670 1168.66 565.09 1099.2 450.73 910.76 336.73 897.95 226.17 965.95 112 965.28 -0.5 761.95 -110 645.95 -222 527.28 -334 401.29 -450 349.95 -563 319.29 -674 259.95 -786 262.62 -898 238.62 -1008 217.95 -1123 199.95 -1235 228.62 -1345 221.62 -1458 250.62 -1571 251.62 -1682 223.25 -1795 271.57 -1909 265.25 -2019 305.74 -2131 341.74 -2243 376.24 -2357 440.74 -2471 467.73 -2581.09 443.74 -2694 381.96 -2808 242.75 -2923 298.62 -3035 424.24 -3147 460.24 -3257.5 397.24 -3369.5 319.24 -3482.16 319.24 -3592.83 298.62 -3704.83 1103.77 -3704.83 1042.62 -3592.83 982.62 -3482.16 940.62 -3369.5 786.62 -3257.5 663.62 -3147 633.62 -3035 662.62 -2923 656.62 -2808.08 733.62 -2694.27 800.62 -2582.83 770.62 -2471 750.62 -2357 785.62 -2243 835.62 -2131 742.62 -2019 658.62 -1909 439.62 -1795 400.62 -1682 361.62 -1571 302.62 -1458 310.62 -1345 282.62 -1235 271.95 -1123 305.95 -898 323.95 -786.5 432.62 -674 476.62 -563.83 451.95 -450 555.95 -334 667.28 -222 813.28 -110 968.62 0 995.95 112 968.62 226.84 940.62 335.5 1130.91 450.73 1189.62 565.67 1157.7 670 1195.2 780.31" fill="none" stroke="#3b4351" stroke-miterlimit="10"/><polygon id="Chinese" points="1610.76 -1345.27 1609.69 -1458.27 1608.62 -1571.33 1585.12 -1682 1551.62 -1795 1509.12 -1909 1538.12 -2019.27 1586.62 -2131.27 1616.12 -2243 1645.62 -2357.27 1697.12 -2471.27 1714.62 -2582.33 1689.12 -2694 1700.12 -2808 1676.62 -2923 1650.62 -3035.33 1630.62 -3147 1620.62 -3257.5 1646.62 -3369.5 1667.62 -3482.16 1651.62 -3592.83 1633.99 -3704.83 1768.79 -3704.83 1768.79 4495.83 1768.79 4610.73 1766.12 4722.83 1757.62 4834.83 1736.12 4947.73 1676.12 5059.73 1661.12 5170.83 1663.62 5284.66 1606.12 5284.66 1606.12 5170.73 1620.12 5059.83 1701.62 4947.83 1696.12 4834.67 1654.12 4722.83 1681.62 4610.83 1739.62 4495.73 1748.62 4382.67 1744.12 4270.67 1685.62 4156.83 1615.12 4046.17 1636.12 3934.83 1738.62 3820.83 1761.12 3705.83 1758.62 3594.83 1732.12 3482.83 1695.62 3368.83 1667.62 3257.83 1651.12 3140.83 1650.12 3032.83 1620.12 2921.83 1585.62 2806.73 1552.62 2692.73 1535.12 2580.83 1516.12 2469.73 1476.12 2355.83 1542.12 2242.83 1625.62 2132.67 1668.12 2019.67 1666.12 1908 1673.62 1793 1653.62 1685 1602.12 1571.73 1534.12 1461.73 1564.12 1350 1598.12 1235.73 1612.12 1121 1611.01 1009.73 1592.62 898.73 1609.25 783 1616.07 670 1553.62 565 1529.62 451 1528.62 336.73 1555.62 227 1612.12 112 1621.12 0 1587.12 -110 1567.62 -222 1576.62 -334 1571.12 -450 1584.62 -563.27 1558.62 -674 1545.62 -786.27 1557.62 -898.27 1599.62 -1008 1625.12 -1123.27 1613.62 -1235.27 1610.76 -1345.27" fill="none" stroke="#3b4351" stroke-miterlimit="10"/><polygon id="Teutons_-Goths" data-name="Teutons -Goths" points="712.62 2469.83 392.87 2355.83 333.12 2242.83 298.12 2133 257.62 2020 192.12 1908 189.69 1793 168.12 1685 138.62 1574.41 101.12 1462 73.12 1352.67 73.12 -110 99.62 0 109.62 112 129.3 229.39 151.37 337 117.62 451 83.12 565 91.28 670 159.62 783 175.95 899 210.28 1010 248.28 1121 316.95 1236 410.62 1350 480.12 1462 416.12 1572 322.62 1685 328.12 1793 455.29 1908 453.95 2020 425.12 2133 461.12 2242.83 536.62 2355.83 712.62 2469.83" fill="none" stroke="#3b4351" stroke-miterlimit="10"/><polygon id="Carthaginians" points="1333.62 340.6 1218.62 451 1189.62 565.67 1130.91 450.73 1186.62 337 1225.12 227 1219.62 112 1391.82 226.73 1333.62 340.6" fill="none" stroke="#3b4351" stroke-miterlimit="10"/><polygon points="1130.91 450.73 940.62 335.5 968.62 226.84 995.95 112 968.62 0 813.28 -110 667.28 -222 624.62 -334 611.95 -450 608.62 -563 523.28 -674 375.82 -786 387.95 -898 383.29 -1008 359.29 -1123 340.62 -1233.84 347.74 -1345.27 394.24 -1458 481.23 -1571 566.62 -1682 623.95 -1795 857.28 -1909 954.62 -2021.16 975.28 -2131.16 969.28 -2243 971.95 -2357.16 998.62 -2243 1020.62 -2131 989.95 -2019 921.28 -1909 697.58 -1795 630.62 -1682 573.95 -1571 511.95 -1458 538.62 -1345 509.95 -1235 479.29 -1123 428.62 -1008 439.95 -898 493.29 -786 617.95 -674 644.62 -563 647.18 -450 716.62 -334.27 762.62 -222.27 890.71 -110.27 1086.62 0 1219.62 112 1225.12 227 1186.62 337 1130.91 450.73" fill="none" stroke="#3b4351" stroke-miterlimit="10"/></g><g id="Text"><g id="Indians-2" data-name="Indians"><path d="M1417.58,66.66h4.36l3.09,13h0l3-13h4.26v17.5h-2.64V69.6h0l-3.53,14.56h-2.35l-3.53-14.56h0V84.16h-2.65Z" fill="#3b4351"/><path d="M1443.75,81.41c0,.49.29.94.68.94a1,1,0,0,0,.45-.08V84a2.86,2.86,0,0,1-1.3.32c-1.18,0-2.16-.47-2.23-1.74h0A3.41,3.41,0,0,1,1438,84.5c-2.13,0-3.43-1.15-3.43-3.7,0-2.94,1.3-3.55,3.07-4.14l2-.56c1-.27,1.55-.54,1.55-1.69s-.42-2-1.82-2c-1.76,0-2,1.25-2,2.52h-2.5c0-2.82,1.15-4.34,4.63-4.34,2.33,0,4.19.91,4.19,3.24Zm-2.5-4.21a20.45,20.45,0,0,1-2.94,1.22,2.18,2.18,0,0,0-1.08,2.14c0,1.1.54,2,1.64,2,1.59,0,2.38-1.17,2.38-3.13Z" fill="#3b4351"/><path d="M1453.18,82.62h-.07a3.81,3.81,0,0,1-3.38,1.88c-2,0-3.29-.9-3.29-4.31V71h2.65v9.45c0,1.47.64,2,1.79,2a2,2,0,0,0,2.15-2.2V71h2.65V84.16h-2.5Z" fill="#3b4351"/><path d="M1458.23,71h2.64v2h.05a3.26,3.26,0,0,1,3.06-2.4,1.59,1.59,0,0,1,.64.1v2.7a3.47,3.47,0,0,0-1.1-.15c-1.2,0-2.65.54-2.65,3v7.89h-2.64Z" fill="#3b4351"/><path d="M1468.15,71l2.28,9.9h0l2.1-9.9h2.77l-3.62,13.67c-1.06,3.6-1.87,4.09-4.61,4a5.44,5.44,0,0,1-1.06-.1V86.46a3.2,3.2,0,0,0,.86.1c.91,0,1.5-.17,1.79-1l.34-1.08L1465.31,71Z" fill="#3b4351"/><path d="M1485.47,81.41c0,.49.3.94.69.94a1,1,0,0,0,.44-.08V84a2.86,2.86,0,0,1-1.3.32c-1.18,0-2.16-.47-2.23-1.74h0a3.39,3.39,0,0,1-3.28,1.93c-2.14,0-3.43-1.15-3.43-3.7,0-2.94,1.29-3.55,3.06-4.14l2.06-.56c1-.27,1.54-.54,1.54-1.69s-.41-2-1.81-2c-1.77,0-2,1.25-2,2.52h-2.5c0-2.82,1.15-4.34,4.63-4.34,2.33,0,4.19.91,4.19,3.24ZM1483,77.2a20,20,0,0,1-2.94,1.22,2.18,2.18,0,0,0-1.08,2.14c0,1.1.54,2,1.64,2,1.6,0,2.38-1.17,2.38-3.13Z" fill="#3b4351"/><path d="M1494.22,66.66h5c5.49,0,6.17,3.58,6.17,8.75s-.68,8.75-6.17,8.75h-5ZM1497,82.05h2.3c2.31,0,3.26-1.52,3.26-6.64,0-4.92-.83-6.64-3.26-6.64H1497Z" fill="#3b4351"/><path d="M1509.43,71l2.28,9.9h0l2.11-9.9h2.76L1513,84.65c-1.06,3.6-1.87,4.09-4.61,4a5.26,5.26,0,0,1-1.05-.1V86.46a3.09,3.09,0,0,0,.85.1c.91,0,1.5-.17,1.79-1l.35-1.08L1506.59,71Z" fill="#3b4351"/><path d="M1518.1,71h2.5v1.54h.08a3.77,3.77,0,0,1,3.38-1.89c2,0,3.28.91,3.28,3.58v10h-2.65v-9c0-1.77-.46-2.38-1.83-2.38-1.08,0-2.11.81-2.11,2.57v8.85h-2.65Z" fill="#3b4351"/><path d="M1538.54,81.41c0,.49.29.94.68.94a1,1,0,0,0,.44-.08V84a2.78,2.78,0,0,1-1.29.32c-1.18,0-2.16-.47-2.23-1.74h-.05a3.41,3.41,0,0,1-3.29,1.93c-2.13,0-3.43-1.15-3.43-3.7,0-2.94,1.3-3.55,3.06-4.14l2.06-.56c1-.27,1.55-.54,1.55-1.69s-.42-2-1.82-2c-1.76,0-2,1.25-2,2.52h-2.5c0-2.82,1.15-4.34,4.63-4.34,2.33,0,4.19.91,4.19,3.24ZM1536,77.2a20.45,20.45,0,0,1-2.94,1.22,2.18,2.18,0,0,0-1.08,2.14c0,1.1.54,2,1.64,2,1.59,0,2.38-1.17,2.38-3.13Z" fill="#3b4351"/><path d="M1546.92,74.82v-.34c0-1-.37-2-1.74-2-1.06,0-1.89.46-1.89,1.71,0,1,.46,1.45,1.86,1.94l1.69.59c2,.66,2.87,1.71,2.87,3.79,0,2.82-2.08,4-4.73,4-3.33,0-4.34-1.54-4.34-4.09v-.49H1543v.42c0,1.54.52,2.35,2.06,2.35s2.16-.74,2.16-1.94a1.91,1.91,0,0,0-1.45-1.93l-2.15-.76c-2-.66-2.82-1.69-2.82-3.8,0-2.48,1.76-3.63,4.51-3.63,3.36,0,4.11,2,4.11,3.6v.59Z" fill="#3b4351"/><path d="M1550.49,71h1.81V67.23H1555V71h2.16v2H1555V80.8c0,1.06.29,1.4,1.2,1.4a5,5,0,0,0,1-.08v2a9.05,9.05,0,0,1-2.13.22c-1.77,0-2.68-.52-2.68-3.19V72.94h-1.81Z" fill="#3b4351"/><path d="M1560.24,71l2.28,9.9h0l2.11-9.9h2.77l-3.63,13.67c-1,3.6-1.86,4.09-4.61,4a5.41,5.41,0,0,1-1-.1V86.46a3.11,3.11,0,0,0,.86.1c.9,0,1.49-.17,1.79-1l.34-1.08L1557.4,71Z" fill="#3b4351"/></g><g id="Greeks-2" data-name="Greeks"><path d="M401.79,34.5h3.58L410,52h-2.92L406,47.7h-5.12L399.73,52h-2.91Zm3.73,11-2-8.62h-.05l-2.09,8.62Z" fill="#3b4351"/><path d="M411.15,34.5h2.64V52h-2.64Z" fill="#3b4351"/><path d="M418.74,45.74v.76c0,1.77.22,4,2.21,4s2.11-2.13,2.11-2.94h2.5c0,3-1.77,4.76-4.64,4.76-2.15,0-4.82-.64-4.82-6.74,0-3.46.76-7.13,4.87-7.13,3.68,0,4.66,2.23,4.66,5.88v1.39ZM423,43.93v-.71c0-1.67-.54-2.94-2-2.94-1.67,0-2.21,1.67-2.21,3.38v.27Z" fill="#3b4351"/><path d="M430.06,45.16l-3.4-6.35h2.89l2.06,4.36,2.15-4.36h2.84l-3.43,6.35L436.75,52h-2.87l-2.3-4.87L429.28,52h-2.82Z" fill="#3b4351"/><path d="M446.75,49.25c0,.49.29.93.68.93a1.24,1.24,0,0,0,.45-.07v1.71a2.86,2.86,0,0,1-1.3.32c-1.18,0-2.16-.47-2.23-1.74h-.05A3.41,3.41,0,0,1,441,52.34c-2.13,0-3.43-1.16-3.43-3.7,0-3,1.3-3.56,3.07-4.15l2.05-.56c1-.27,1.55-.54,1.55-1.69s-.42-2-1.82-2c-1.76,0-2,1.25-2,2.52h-2.5c0-2.82,1.15-4.33,4.63-4.33,2.33,0,4.19.9,4.19,3.23ZM444.25,45a20.5,20.5,0,0,1-2.94,1.23,2.17,2.17,0,0,0-1.08,2.13c0,1.1.54,2,1.64,2,1.59,0,2.38-1.17,2.38-3.13Z" fill="#3b4351"/><path d="M449.44,38.81h2.5v1.54H452a3.81,3.81,0,0,1,3.39-1.88c2,0,3.28.9,3.28,3.57V52H456V43c0-1.76-.46-2.38-1.84-2.38-1.07,0-2.1.81-2.1,2.58V52h-2.65Z" fill="#3b4351"/><path d="M468,50.37h0a2.8,2.8,0,0,1-2.89,2c-3.06,0-4.31-2.6-4.31-7.11,0-5.86,2.06-6.76,4.07-6.76a3.06,3.06,0,0,1,3,1.88h.05V34.5h2.64V52H468Zm-2.4-9.8c-1.49,0-2.06,1.23-2.06,4.78,0,3,.37,4.88,2.23,4.88S468,48.39,468,45.55C468,42.39,467.62,40.57,465.56,40.57Z" fill="#3b4351"/><path d="M475.29,45.74v.76c0,1.77.22,4,2.2,4s2.11-2.13,2.11-2.94h2.5c0,3-1.76,4.76-4.63,4.76-2.16,0-4.83-.64-4.83-6.74,0-3.46.76-7.13,4.88-7.13,3.67,0,4.65,2.23,4.65,5.88v1.39Zm4.24-1.81v-.71c0-1.67-.54-2.94-2-2.94-1.66,0-2.2,1.67-2.2,3.38v.27Z" fill="#3b4351"/><path d="M484.35,38.81H487v2.06h.05a3.26,3.26,0,0,1,3.06-2.4,1.61,1.61,0,0,1,.64.09v2.7a3.84,3.84,0,0,0-1.1-.15c-1.21,0-2.65.54-2.65,3V52h-2.65Z" fill="#3b4351"/><path d="M594,34.5h4.36l3.09,13h0l3-13h4.26V52h-2.64V37.44h0L602.6,52h-2.35l-3.53-14.55h-.05V52H594Z" fill="#3b4351"/><path d="M620.19,49.25c0,.49.29.93.68.93a1.24,1.24,0,0,0,.45-.07v1.71a2.86,2.86,0,0,1-1.3.32c-1.18,0-2.16-.47-2.23-1.74h0a3.41,3.41,0,0,1-3.29,1.94c-2.13,0-3.43-1.16-3.43-3.7,0-3,1.3-3.56,3.07-4.15l2.06-.56c1-.27,1.54-.54,1.54-1.69s-.42-2-1.81-2c-1.77,0-2,1.25-2,2.52h-2.5c0-2.82,1.15-4.33,4.63-4.33,2.33,0,4.19.9,4.19,3.23ZM617.69,45a20.5,20.5,0,0,1-2.94,1.23,2.17,2.17,0,0,0-1.08,2.13c0,1.1.54,2,1.64,2,1.6,0,2.38-1.17,2.38-3.13Z" fill="#3b4351"/><path d="M631.78,47.19c-.2,3.16-1.23,5.15-4.51,5.15-3.82,0-4.9-2.82-4.9-6.94s1.08-6.93,4.9-6.93,4.53,3.11,4.53,4.73h-2.64c0-1.23-.32-2.85-1.89-2.77-1.89,0-2.26,2-2.26,5s.37,5,2.26,5c1.47,0,2-1.2,2-3.18Z" fill="#3b4351"/><path d="M636,45.74v.76c0,1.77.22,4,2.2,4s2.11-2.13,2.11-2.94h2.5c0,3-1.76,4.76-4.63,4.76-2.16,0-4.83-.64-4.83-6.74,0-3.46.76-7.13,4.88-7.13,3.67,0,4.65,2.23,4.65,5.88v1.39Zm4.24-1.81v-.71c0-1.67-.54-2.94-2-2.94-1.66,0-2.2,1.67-2.2,3.38v.27Z" fill="#3b4351"/><path d="M651.84,50.37h-.05a2.82,2.82,0,0,1-2.89,2c-3.06,0-4.31-2.6-4.31-7.11,0-5.86,2.06-6.76,4.07-6.76a3.06,3.06,0,0,1,3,1.88h0V34.5h2.65V52h-2.5Zm-2.4-9.8c-1.49,0-2.06,1.23-2.06,4.78,0,3,.37,4.88,2.23,4.88s2.23-1.84,2.23-4.68C651.84,42.39,651.5,40.57,649.44,40.57Z" fill="#3b4351"/><path d="M656.37,45.4c0-4.12,1.08-6.93,4.9-6.93s4.93,2.81,4.93,6.93-1.28,6.94-4.93,6.94S656.37,49.52,656.37,45.4Zm4.9,5c1.94,0,2.28-1.61,2.28-5,0-2.92-.34-5-2.28-5s-2.25,2-2.25,5C659,48.76,659.39,50.37,661.27,50.37Z" fill="#3b4351"/><path d="M668.23,38.81h2.5v1.54h.07a3.78,3.78,0,0,1,3.38-1.88c2,0,3.29.9,3.29,3.57V52h-2.65V43c0-1.76-.46-2.38-1.84-2.38-1.07,0-2.1.81-2.1,2.58V52h-2.65Z" fill="#3b4351"/><path d="M680.14,34.3h2.64V37h-2.64Zm0,4.51h2.64V52h-2.64Z" fill="#3b4351"/><path d="M694.1,49.25c0,.49.3.93.69.93a1.18,1.18,0,0,0,.44-.07v1.71a2.83,2.83,0,0,1-1.3.32c-1.17,0-2.16-.47-2.23-1.74h-.05a3.4,3.4,0,0,1-3.28,1.94c-2.13,0-3.43-1.16-3.43-3.7,0-3,1.3-3.56,3.06-4.15l2.06-.56c1-.27,1.54-.54,1.54-1.69s-.41-2-1.81-2c-1.76,0-2,1.25-2,2.52h-2.5c0-2.82,1.15-4.33,4.63-4.33,2.33,0,4.19.9,4.19,3.23ZM691.6,45a20,20,0,0,1-2.94,1.23,2.17,2.17,0,0,0-1.08,2.13c0,1.1.54,2,1.65,2,1.59,0,2.37-1.17,2.37-3.13Z" fill="#3b4351"/><path d="M696.8,38.81h2.5v1.54h.07a3.78,3.78,0,0,1,3.38-1.88c2,0,3.28.9,3.28,3.57V52h-2.64V43c0-1.76-.47-2.38-1.84-2.38-1.08,0-2.11.81-2.11,2.58V52H696.8Z" fill="#3b4351"/><path d="M714.63,34.5h9.46v2.35h-6.67V41.7h6.28v2.35h-6.28v5.59h6.87V52h-9.66Z" fill="#3b4351"/><path d="M726.37,38.81h2.5v1.54h.07a3.69,3.69,0,0,1,3.16-1.88,2.85,2.85,0,0,1,3.06,2,3.6,3.6,0,0,1,3.34-2c1.86,0,3.21,1,3.21,3.5V52h-2.65V43c0-1.74-.51-2.38-1.59-2.38s-2.11.84-2.11,2.58V52h-2.65V43c0-1.74-.51-2.38-1.61-2.38s-2.09.86-2.09,2.58V52h-2.64Z" fill="#3b4351"/><path d="M750.06,52.34a3,3,0,0,1-3-1.89H747v5.86h-2.65V38.81h2.5v1.62h0a3.13,3.13,0,0,1,3-2c3,0,4.24,2.57,4.24,7.1C754.13,51.11,751.9,52.34,750.06,52.34Zm-1-11.77c-1.81,0-2.23,1.84-2.23,4.68,0,3.17.4,5,2.26,5,1.49,0,2.2-1.13,2.2-4.78C751.33,42.46,751,40.57,749.1,40.57Z" fill="#3b4351"/><path d="M756.28,34.3h2.65V37h-2.65Zm0,4.51h2.65V52h-2.65Z" fill="#3b4351"/><path d="M761.6,38.81h2.64v2.06h0a3.26,3.26,0,0,1,3.07-2.4,1.56,1.56,0,0,1,.63.09v2.7a3.73,3.73,0,0,0-1.1-.15c-1.2,0-2.65.54-2.65,3V52H761.6Z" fill="#3b4351"/><path d="M771.45,45.74v.76c0,1.77.22,4,2.2,4s2.11-2.13,2.11-2.94h2.5c0,3-1.77,4.76-4.63,4.76-2.16,0-4.83-.64-4.83-6.74,0-3.46.76-7.13,4.88-7.13,3.67,0,4.65,2.23,4.65,5.88v1.39Zm4.24-1.81v-.71c0-1.67-.54-2.94-2-2.94-1.67,0-2.2,1.67-2.2,3.38v.27Z" fill="#3b4351"/></g></g></svg>