<svg xmlns="http://www.w3.org/2000/svg" viewBox="0 0 1847.91 112"><title>bc0300text</title><g id="YEARS"><g id="Right"><path d="M1791.69,99.34c0,1.61.54,3.4,2.52,3.4s2.57-1.48,2.57-3.3c0-2.29-.73-3.43-3-3.43h-1.14V93.93h1.06c2,0,2.66-1.35,2.66-3.15,0-1.32-.6-2.65-2.14-2.65-1.82,0-2.34,1.56-2.34,3.22h-2.8c0-3.45,1.76-5.3,5.3-5.3,2.21,0,4.94,1,4.94,4.71a3.91,3.91,0,0,1-2.94,4v.08c1.9.18,3.36,1.66,3.36,4.26,0,3.66-1.8,5.69-5.62,5.69-3.33,0-5.25-1.63-5.25-5.48Z"/><path d="M1806.79,86.05c3.54,0,5.51,2.21,5.51,9.39s-2,9.38-5.51,9.38-5.51-2.21-5.51-9.38S1803.26,86.05,1806.79,86.05Zm0,16.69c2,0,2.55-2,2.55-7.3s-.55-7.31-2.55-7.31-2.55,2-2.55,7.31S1804.79,102.74,1806.79,102.74Z"/><path d="M1819.27,86.05c3.54,0,5.51,2.21,5.51,9.39s-2,9.38-5.51,9.38-5.51-2.21-5.51-9.38S1815.73,86.05,1819.27,86.05Zm0,16.69c2,0,2.55-2,2.55-7.3s-.55-7.31-2.55-7.31-2.55,2-2.55,7.31S1817.27,102.74,1819.27,102.74Z"/></g><g id="left"><path d="M21.94,102.94c0,1.61.54,3.4,2.52,3.4S27,104.86,27,103c0-2.29-.73-3.43-3-3.43H22.9V97.53H24c2,0,2.66-1.35,2.66-3.15,0-1.32-.6-2.65-2.14-2.65-1.82,0-2.34,1.56-2.34,3.22h-2.8c0-3.45,1.76-5.3,5.3-5.3,2.21,0,4.94,1,4.94,4.7a3.91,3.91,0,0,1-2.94,4v.07c1.9.19,3.36,1.67,3.36,4.27,0,3.66-1.8,5.69-5.62,5.69-3.33,0-5.25-1.64-5.25-5.48Z"/><path d="M37,89.65c3.54,0,5.51,2.21,5.51,9.39s-2,9.38-5.51,9.38-5.51-2.21-5.51-9.38S33.51,89.65,37,89.65Zm0,16.69c2,0,2.55-2,2.55-7.3S39,91.73,37,91.73s-2.55,2-2.55,7.31S35,106.34,37,106.34Z"/><path d="M49.52,89.65C53.06,89.65,55,91.86,55,99s-2,9.38-5.51,9.38S44,106.21,44,99,46,89.65,49.52,89.65Zm0,16.69c2,0,2.55-2,2.55-7.3s-.55-7.31-2.55-7.31S47,93.71,47,99,47.52,106.34,49.52,106.34Z"/></g></g><g id="Text"><g id="Indians"><path d="M1417.58,66.66h4.36l3.09,13h0l3-13h4.26v17.5h-2.64V69.6h0l-3.53,14.56h-2.35l-3.53-14.56h0V84.16h-2.65Z" fill="#3b4351"/><path d="M1443.75,81.41c0,.49.29.94.68.94a1,1,0,0,0,.45-.08V84a2.86,2.86,0,0,1-1.3.32c-1.18,0-2.16-.47-2.23-1.74h0A3.41,3.41,0,0,1,1438,84.5c-2.13,0-3.43-1.15-3.43-3.7,0-2.94,1.3-3.55,3.07-4.14l2-.56c1-.27,1.55-.54,1.55-1.69s-.42-2-1.82-2c-1.76,0-2,1.25-2,2.52h-2.5c0-2.82,1.15-4.34,4.63-4.34,2.33,0,4.19.91,4.19,3.24Zm-2.5-4.21a20.45,20.45,0,0,1-2.94,1.22,2.18,2.18,0,0,0-1.08,2.14c0,1.1.54,2,1.64,2,1.59,0,2.38-1.17,2.38-3.13Z" fill="#3b4351"/><path d="M1453.18,82.62h-.07a3.81,3.81,0,0,1-3.38,1.88c-2,0-3.29-.9-3.29-4.31V71h2.65v9.45c0,1.47.64,2,1.79,2a2,2,0,0,0,2.15-2.2V71h2.65V84.16h-2.5Z" fill="#3b4351"/><path d="M1458.23,71h2.64v2h.05a3.26,3.26,0,0,1,3.06-2.4,1.59,1.59,0,0,1,.64.1v2.7a3.47,3.47,0,0,0-1.1-.15c-1.2,0-2.65.54-2.65,3v7.89h-2.64Z" fill="#3b4351"/><path d="M1468.15,71l2.28,9.9h0l2.1-9.9h2.77l-3.62,13.67c-1.06,3.6-1.87,4.09-4.61,4a5.44,5.44,0,0,1-1.06-.1V86.46a3.2,3.2,0,0,0,.86.1c.91,0,1.5-.17,1.79-1l.34-1.08L1465.31,71Z" fill="#3b4351"/><path d="M1485.47,81.41c0,.49.3.94.69.94a1,1,0,0,0,.44-.08V84a2.86,2.86,0,0,1-1.3.32c-1.18,0-2.16-.47-2.23-1.74h0a3.39,3.39,0,0,1-3.28,1.93c-2.14,0-3.43-1.15-3.43-3.7,0-2.94,1.29-3.55,3.06-4.14l2.06-.56c1-.27,1.54-.54,1.54-1.69s-.41-2-1.81-2c-1.77,0-2,1.25-2,2.52h-2.5c0-2.82,1.15-4.34,4.63-4.34,2.33,0,4.19.91,4.19,3.24ZM1483,77.2a20,20,0,0,1-2.94,1.22,2.18,2.18,0,0,0-1.08,2.14c0,1.1.54,2,1.64,2,1.6,0,2.38-1.17,2.38-3.13Z" fill="#3b4351"/><path d="M1494.22,66.66h5c5.49,0,6.17,3.58,6.17,8.75s-.68,8.75-6.17,8.75h-5ZM1497,82.05h2.3c2.31,0,3.26-1.52,3.26-6.64,0-4.92-.83-6.64-3.26-6.64H1497Z" fill="#3b4351"/><path d="M1509.43,71l2.28,9.9h0l2.11-9.9h2.76L1513,84.65c-1.06,3.6-1.87,4.09-4.61,4a5.26,5.26,0,0,1-1.05-.1V86.46a3.09,3.09,0,0,0,.85.1c.91,0,1.5-.17,1.79-1l.35-1.08L1506.59,71Z" fill="#3b4351"/><path d="M1518.1,71h2.5v1.54h.08a3.77,3.77,0,0,1,3.38-1.89c2,0,3.28.91,3.28,3.58v10h-2.65v-9c0-1.77-.46-2.38-1.83-2.38-1.08,0-2.11.81-2.11,2.57v8.85h-2.65Z" fill="#3b4351"/><path d="M1538.54,81.41c0,.49.29.94.68.94a1,1,0,0,0,.44-.08V84a2.78,2.78,0,0,1-1.29.32c-1.18,0-2.16-.47-2.23-1.74h-.05a3.41,3.41,0,0,1-3.29,1.93c-2.13,0-3.43-1.15-3.43-3.7,0-2.94,1.3-3.55,3.06-4.14l2.06-.56c1-.27,1.55-.54,1.55-1.69s-.42-2-1.82-2c-1.76,0-2,1.25-2,2.52h-2.5c0-2.82,1.15-4.34,4.63-4.34,2.33,0,4.19.91,4.19,3.24ZM1536,77.2a20.45,20.45,0,0,1-2.94,1.22,2.18,2.18,0,0,0-1.08,2.14c0,1.1.54,2,1.64,2,1.59,0,2.38-1.17,2.38-3.13Z" fill="#3b4351"/><path d="M1546.92,74.82v-.34c0-1-.37-2-1.74-2-1.06,0-1.89.46-1.89,1.71,0,1,.46,1.45,1.86,1.94l1.69.59c2,.66,2.87,1.71,2.87,3.79,0,2.82-2.08,4-4.73,4-3.33,0-4.34-1.54-4.34-4.09v-.49H1543v.42c0,1.54.52,2.35,2.06,2.35s2.16-.74,2.16-1.94a1.91,1.91,0,0,0-1.45-1.93l-2.15-.76c-2-.66-2.82-1.69-2.82-3.8,0-2.48,1.76-3.63,4.51-3.63,3.36,0,4.11,2,4.11,3.6v.59Z" fill="#3b4351"/><path d="M1550.49,71h1.81V67.23H1555V71h2.16v2H1555V80.8c0,1.06.29,1.4,1.2,1.4a5,5,0,0,0,1-.08v2a9.05,9.05,0,0,1-2.13.22c-1.77,0-2.68-.52-2.68-3.19V72.94h-1.81Z" fill="#3b4351"/><path d="M1560.24,71l2.28,9.9h0l2.11-9.9h2.77l-3.63,13.67c-1,3.6-1.86,4.09-4.61,4a5.41,5.41,0,0,1-1-.1V86.46a3.11,3.11,0,0,0,.86.1c.9,0,1.49-.17,1.79-1l.34-1.08L1557.4,71Z" fill="#3b4351"/></g><g id="Greeks"><path d="M401.79,34.5h3.58L410,52h-2.92L406,47.7h-5.12L399.73,52h-2.91Zm3.73,11-2-8.62h-.05l-2.09,8.62Z" fill="#3b4351"/><path d="M411.15,34.5h2.64V52h-2.64Z" fill="#3b4351"/><path d="M418.74,45.74v.76c0,1.77.22,4,2.21,4s2.11-2.13,2.11-2.94h2.5c0,3-1.77,4.76-4.64,4.76-2.15,0-4.82-.64-4.82-6.74,0-3.46.76-7.13,4.87-7.13,3.68,0,4.66,2.23,4.66,5.88v1.39ZM423,43.93v-.71c0-1.67-.54-2.94-2-2.94-1.67,0-2.21,1.67-2.21,3.38v.27Z" fill="#3b4351"/><path d="M430.06,45.16l-3.4-6.35h2.89l2.06,4.36,2.15-4.36h2.84l-3.43,6.35L436.75,52h-2.87l-2.3-4.87L429.28,52h-2.82Z" fill="#3b4351"/><path d="M446.75,49.25c0,.49.29.93.68.93a1.24,1.24,0,0,0,.45-.07v1.71a2.86,2.86,0,0,1-1.3.32c-1.18,0-2.16-.47-2.23-1.74h-.05A3.41,3.41,0,0,1,441,52.34c-2.13,0-3.43-1.16-3.43-3.7,0-3,1.3-3.56,3.07-4.15l2.05-.56c1-.27,1.55-.54,1.55-1.69s-.42-2-1.82-2c-1.76,0-2,1.25-2,2.52h-2.5c0-2.82,1.15-4.33,4.63-4.33,2.33,0,4.19.9,4.19,3.23ZM444.25,45a20.5,20.5,0,0,1-2.94,1.23,2.17,2.17,0,0,0-1.08,2.13c0,1.1.54,2,1.64,2,1.59,0,2.38-1.17,2.38-3.13Z" fill="#3b4351"/><path d="M449.44,38.81h2.5v1.54H452a3.81,3.81,0,0,1,3.39-1.88c2,0,3.28.9,3.28,3.57V52H456V43c0-1.76-.46-2.38-1.84-2.38-1.07,0-2.1.81-2.1,2.58V52h-2.65Z" fill="#3b4351"/><path d="M468,50.37h0a2.8,2.8,0,0,1-2.89,2c-3.06,0-4.31-2.6-4.31-7.11,0-5.86,2.06-6.76,4.07-6.76a3.06,3.06,0,0,1,3,1.88h.05V34.5h2.64V52H468Zm-2.4-9.8c-1.49,0-2.06,1.23-2.06,4.78,0,3,.37,4.88,2.23,4.88S468,48.39,468,45.55C468,42.39,467.62,40.57,465.56,40.57Z" fill="#3b4351"/><path d="M475.29,45.74v.76c0,1.77.22,4,2.2,4s2.11-2.13,2.11-2.94h2.5c0,3-1.76,4.76-4.63,4.76-2.16,0-4.83-.64-4.83-6.74,0-3.46.76-7.13,4.88-7.13,3.67,0,4.65,2.23,4.65,5.88v1.39Zm4.24-1.81v-.71c0-1.67-.54-2.94-2-2.94-1.66,0-2.2,1.67-2.2,3.38v.27Z" fill="#3b4351"/><path d="M484.35,38.81H487v2.06h.05a3.26,3.26,0,0,1,3.06-2.4,1.61,1.61,0,0,1,.64.09v2.7a3.84,3.84,0,0,0-1.1-.15c-1.21,0-2.65.54-2.65,3V52h-2.65Z" fill="#3b4351"/><path d="M594,34.5h4.36l3.09,13h0l3-13h4.26V52h-2.64V37.44h0L602.6,52h-2.35l-3.53-14.55h-.05V52H594Z" fill="#3b4351"/><path d="M620.19,49.25c0,.49.29.93.68.93a1.24,1.24,0,0,0,.45-.07v1.71a2.86,2.86,0,0,1-1.3.32c-1.18,0-2.16-.47-2.23-1.74h0a3.41,3.41,0,0,1-3.29,1.94c-2.13,0-3.43-1.16-3.43-3.7,0-3,1.3-3.56,3.07-4.15l2.06-.56c1-.27,1.54-.54,1.54-1.69s-.42-2-1.81-2c-1.77,0-2,1.25-2,2.52h-2.5c0-2.82,1.15-4.33,4.63-4.33,2.33,0,4.19.9,4.19,3.23ZM617.69,45a20.5,20.5,0,0,1-2.94,1.23,2.17,2.17,0,0,0-1.08,2.13c0,1.1.54,2,1.64,2,1.6,0,2.38-1.17,2.38-3.13Z" fill="#3b4351"/><path d="M631.78,47.19c-.2,3.16-1.23,5.15-4.51,5.15-3.82,0-4.9-2.82-4.9-6.94s1.08-6.93,4.9-6.93,4.53,3.11,4.53,4.73h-2.64c0-1.23-.32-2.85-1.89-2.77-1.89,0-2.26,2-2.26,5s.37,5,2.26,5c1.47,0,2-1.2,2-3.18Z" fill="#3b4351"/><path d="M636,45.74v.76c0,1.77.22,4,2.2,4s2.11-2.13,2.11-2.94h2.5c0,3-1.76,4.76-4.63,4.76-2.16,0-4.83-.64-4.83-6.74,0-3.46.76-7.13,4.88-7.13,3.67,0,4.65,2.23,4.65,5.88v1.39Zm4.24-1.81v-.71c0-1.67-.54-2.94-2-2.94-1.66,0-2.2,1.67-2.2,3.38v.27Z" fill="#3b4351"/><path d="M651.84,50.37h-.05a2.82,2.82,0,0,1-2.89,2c-3.06,0-4.31-2.6-4.31-7.11,0-5.86,2.06-6.76,4.07-6.76a3.06,3.06,0,0,1,3,1.88h0V34.5h2.65V52h-2.5Zm-2.4-9.8c-1.49,0-2.06,1.23-2.06,4.78,0,3,.37,4.88,2.23,4.88s2.23-1.84,2.23-4.68C651.84,42.39,651.5,40.57,649.44,40.57Z" fill="#3b4351"/><path d="M656.37,45.4c0-4.12,1.08-6.93,4.9-6.93s4.93,2.81,4.93,6.93-1.28,6.94-4.93,6.94S656.37,49.52,656.37,45.4Zm4.9,5c1.94,0,2.28-1.61,2.28-5,0-2.92-.34-5-2.28-5s-2.25,2-2.25,5C659,48.76,659.39,50.37,661.27,50.37Z" fill="#3b4351"/><path d="M668.23,38.81h2.5v1.54h.07a3.78,3.78,0,0,1,3.38-1.88c2,0,3.29.9,3.29,3.57V52h-2.65V43c0-1.76-.46-2.38-1.84-2.38-1.07,0-2.1.81-2.1,2.58V52h-2.65Z" fill="#3b4351"/><path d="M680.14,34.3h2.64V37h-2.64Zm0,4.51h2.64V52h-2.64Z" fill="#3b4351"/><path d="M694.1,49.25c0,.49.3.93.69.93a1.18,1.18,0,0,0,.44-.07v1.71a2.83,2.83,0,0,1-1.3.32c-1.17,0-2.16-.47-2.23-1.74h-.05a3.4,3.4,0,0,1-3.28,1.94c-2.13,0-3.43-1.16-3.43-3.7,0-3,1.3-3.56,3.06-4.15l2.06-.56c1-.27,1.54-.54,1.54-1.69s-.41-2-1.81-2c-1.76,0-2,1.25-2,2.52h-2.5c0-2.82,1.15-4.33,4.63-4.33,2.33,0,4.19.9,4.19,3.23ZM691.6,45a20,20,0,0,1-2.94,1.23,2.17,2.17,0,0,0-1.08,2.13c0,1.1.54,2,1.65,2,1.59,0,2.37-1.17,2.37-3.13Z" fill="#3b4351"/><path d="M696.8,38.81h2.5v1.54h.07a3.78,3.78,0,0,1,3.38-1.88c2,0,3.28.9,3.28,3.57V52h-2.64V43c0-1.76-.47-2.38-1.84-2.38-1.08,0-2.11.81-2.11,2.58V52H696.8Z" fill="#3b4351"/><path d="M714.63,34.5h9.46v2.35h-6.67V41.7h6.28v2.35h-6.28v5.59h6.87V52h-9.66Z" fill="#3b4351"/><path d="M726.37,38.81h2.5v1.54h.07a3.69,3.69,0,0,1,3.16-1.88,2.85,2.85,0,0,1,3.06,2,3.6,3.6,0,0,1,3.34-2c1.86,0,3.21,1,3.21,3.5V52h-2.65V43c0-1.74-.51-2.38-1.59-2.38s-2.11.84-2.11,2.58V52h-2.65V43c0-1.74-.51-2.38-1.61-2.38s-2.09.86-2.09,2.58V52h-2.64Z" fill="#3b4351"/><path d="M750.06,52.34a3,3,0,0,1-3-1.89H747v5.86h-2.65V38.81h2.5v1.62h0a3.13,3.13,0,0,1,3-2c3,0,4.24,2.57,4.24,7.1C754.13,51.11,751.9,52.34,750.06,52.34Zm-1-11.77c-1.81,0-2.23,1.84-2.23,4.68,0,3.17.4,5,2.26,5,1.49,0,2.2-1.13,2.2-4.78C751.33,42.46,751,40.57,749.1,40.57Z" fill="#3b4351"/><path d="M756.28,34.3h2.65V37h-2.65Zm0,4.51h2.65V52h-2.65Z" fill="#3b4351"/><path d="M761.6,38.81h2.64v2.06h0a3.26,3.26,0,0,1,3.07-2.4,1.56,1.56,0,0,1,.63.09v2.7a3.73,3.73,0,0,0-1.1-.15c-1.2,0-2.65.54-2.65,3V52H761.6Z" fill="#3b4351"/><path d="M771.45,45.74v.76c0,1.77.22,4,2.2,4s2.11-2.13,2.11-2.94h2.5c0,3-1.77,4.76-4.63,4.76-2.16,0-4.83-.64-4.83-6.74,0-3.46.76-7.13,4.88-7.13,3.67,0,4.65,2.23,4.65,5.88v1.39Zm4.24-1.81v-.71c0-1.67-.54-2.94-2-2.94-1.67,0-2.2,1.67-2.2,3.38v.27Z" fill="#3b4351"/></g></g></svg>