<svg id="Text" xmlns="http://www.w3.org/2000/svg" viewBox="0 0 1847.91 112"><title>bc0300text</title><g id="Indians"><path d="M1417.58,66.66h4.36l3.09,13h0l3-13h4.26v17.5h-2.64V69.6h0l-3.53,14.56h-2.35l-3.53-14.56h0V84.16h-2.65Z"/><path d="M1443.75,81.41c0,.49.29.94.68.94a1,1,0,0,0,.45-.08V84a2.86,2.86,0,0,1-1.3.32c-1.18,0-2.16-.47-2.23-1.74h0A3.41,3.41,0,0,1,1438,84.5c-2.13,0-3.43-1.15-3.43-3.7,0-2.94,1.3-3.55,3.07-4.14l2-.56c1-.27,1.55-.54,1.55-1.69s-.42-2-1.82-2c-1.76,0-2,1.25-2,2.52h-2.5c0-2.82,1.15-4.34,4.63-4.34,2.33,0,4.19.91,4.19,3.24Zm-2.5-4.21a20.45,20.45,0,0,1-2.94,1.22,2.18,2.18,0,0,0-1.08,2.14c0,1.1.54,2,1.64,2,1.59,0,2.38-1.17,2.38-3.13Z"/><path d="M1453.18,82.62h-.07a3.81,3.81,0,0,1-3.38,1.88c-2,0-3.29-.9-3.29-4.31V71h2.65v9.45c0,1.47.64,2,1.79,2a2,2,0,0,0,2.15-2.2V71h2.65V84.16h-2.5Z"/><path d="M1458.23,71h2.64v2h.05a3.26,3.26,0,0,1,3.06-2.4,1.59,1.59,0,0,1,.64.1v2.7a3.47,3.47,0,0,0-1.1-.15c-1.2,0-2.65.54-2.65,3v7.89h-2.64Z"/><path d="M1468.15,71l2.28,9.9h0l2.1-9.9h2.77l-3.62,13.67c-1.06,3.6-1.87,4.09-4.61,4a5.44,5.44,0,0,1-1.06-.1V86.46a3.2,3.2,0,0,0,.86.1c.91,0,1.5-.17,1.79-1l.34-1.08L1465.31,71Z"/><path d="M1485.47,81.41c0,.49.3.94.69.94a1,1,0,0,0,.44-.08V84a2.86,2.86,0,0,1-1.3.32c-1.18,0-2.16-.47-2.23-1.74h0a3.39,3.39,0,0,1-3.28,1.93c-2.14,0-3.43-1.15-3.43-3.7,0-2.94,1.29-3.55,3.06-4.14l2.06-.56c1-.27,1.54-.54,1.54-1.69s-.41-2-1.81-2c-1.77,0-2,1.25-2,2.52h-2.5c0-2.82,1.15-4.34,4.63-4.34,2.33,0,4.19.91,4.19,3.24ZM1483,77.2a20,20,0,0,1-2.94,1.22,2.18,2.18,0,0,0-1.08,2.14c0,1.1.54,2,1.64,2,1.6,0,2.38-1.17,2.38-3.13Z"/><path d="M1494.22,66.66h5c5.49,0,6.17,3.58,6.17,8.75s-.68,8.75-6.17,8.75h-5ZM1497,82.05h2.3c2.31,0,3.26-1.52,3.26-6.64,0-4.92-.83-6.64-3.26-6.64H1497Z"/><path d="M1509.43,71l2.28,9.9h0l2.11-9.9h2.76L1513,84.65c-1.06,3.6-1.87,4.09-4.61,4a5.26,5.26,0,0,1-1.05-.1V86.46a3.09,3.09,0,0,0,.85.1c.91,0,1.5-.17,1.79-1l.35-1.08L1506.59,71Z"/><path d="M1518.1,71h2.5v1.54h.08a3.77,3.77,0,0,1,3.38-1.89c2,0,3.28.91,3.28,3.58v10h-2.65v-9c0-1.77-.46-2.38-1.83-2.38-1.08,0-2.11.81-2.11,2.57v8.85h-2.65Z"/><path d="M1538.54,81.41c0,.49.29.94.68.94a1,1,0,0,0,.44-.08V84a2.78,2.78,0,0,1-1.29.32c-1.18,0-2.16-.47-2.23-1.74h-.05a3.41,3.41,0,0,1-3.29,1.93c-2.13,0-3.43-1.15-3.43-3.7,0-2.94,1.3-3.55,3.06-4.14l2.06-.56c1-.27,1.55-.54,1.55-1.69s-.42-2-1.82-2c-1.76,0-2,1.25-2,2.52h-2.5c0-2.82,1.15-4.34,4.63-4.34,2.33,0,4.19.91,4.19,3.24ZM1536,77.2a20.45,20.45,0,0,1-2.94,1.22,2.18,2.18,0,0,0-1.08,2.14c0,1.1.54,2,1.64,2,1.59,0,2.38-1.17,2.38-3.13Z"/><path d="M1546.92,74.82v-.34c0-1-.37-2-1.74-2-1.06,0-1.89.46-1.89,1.71,0,1,.46,1.45,1.86,1.94l1.69.59c2,.66,2.87,1.71,2.87,3.79,0,2.82-2.08,4-4.73,4-3.33,0-4.34-1.54-4.34-4.09v-.49H1543v.42c0,1.54.52,2.35,2.06,2.35s2.16-.74,2.16-1.94a1.91,1.91,0,0,0-1.45-1.93l-2.15-.76c-2-.66-2.82-1.69-2.82-3.8,0-2.48,1.76-3.63,4.51-3.63,3.36,0,4.11,2,4.11,3.6v.59Z"/><path d="M1550.49,71h1.81V67.23H1555V71h2.16v2H1555V80.8c0,1.06.29,1.4,1.2,1.4a5,5,0,0,0,1-.08v2a9.05,9.05,0,0,1-2.13.22c-1.77,0-2.68-.52-2.68-3.19V72.94h-1.81Z"/><path d="M1560.24,71l2.28,9.9h0l2.11-9.9h2.77l-3.63,13.67c-1,3.6-1.86,4.09-4.61,4a5.41,5.41,0,0,1-1-.1V86.46a3.11,3.11,0,0,0,.86.1c.9,0,1.49-.17,1.79-1l.34-1.08L1557.4,71Z"/></g></svg>