<svg xmlns="http://www.w3.org/2000/svg" viewBox="0 0 1847.91 110"><title>bc0350text</title><g id="Text"><g id="Romans"><path d="M117.4,85.71h6.17C126,85.71,128,87,128,90.22c0,2.26-1,4-2.92,4.29v0c1.76.17,2.65,1.13,2.75,3.58,0,1.15,0,2.5.09,3.55a1.92,1.92,0,0,0,.84,1.52h-3.16a2.92,2.92,0,0,1-.47-1.54c0-.52-.07-1.06-.07-1.57s0-1.1,0-1.74c-.08-1.91-.66-2.74-2.55-2.74h-2.28v7.59H117.4Zm5,7.8a2.58,2.58,0,0,0,2.79-2.84c0-1.87-.78-2.85-2.64-2.85h-2.38v5.69Z"/><path d="M130.14,94.46c0-6.25,1.76-9.09,5.78-9.09s5.78,2.84,5.78,9.09-1.76,9.1-5.78,9.1S130.14,100.71,130.14,94.46Zm8.77-.07c0-5.88-1.32-6.91-3-6.91s-3,1-3,6.91,1.32,7.06,3,7.06S138.91,100.39,138.91,94.39Z"/><path d="M144.17,85.71h4.37l3.08,13h0l3-13H159v17.5h-2.65V88.66h-.05l-3.53,14.55H150.4l-3.53-14.55h-.05v14.55h-2.65Z"/><path d="M165.17,85.71h3.58l4.61,17.5h-2.92l-1.08-4.29h-5.12l-1.13,4.29H160.2Zm3.73,11-2-8.62h0l-2.09,8.62Z"/><path d="M174.58,85.71H178l5.08,13h.05v-13h2.64v17.5h-3.4l-5.08-13.38h-.05v13.38h-2.64Z"/><path d="M190.8,97.8v.44c0,2.13.95,3.21,2.86,3.21a2.51,2.51,0,0,0,2.65-2.55c0-1.84-.93-2.65-2.5-3.11l-1.91-.67c-2.55-1-3.65-2.3-3.65-4.8,0-3.18,2.18-4.95,5.44-4.95,4.48,0,4.95,2.8,4.95,4.61v.39h-2.79V90c0-1.59-.69-2.52-2.46-2.52A2.23,2.23,0,0,0,191,90c0,1.5.76,2.26,2.62,3l1.89.69c2.48.88,3.55,2.2,3.55,4.63,0,3.72-2.25,5.27-5.78,5.27-4.34,0-5.32-2.9-5.32-5.35V97.8Z"/></g></g><g id="YEARS"><g id="Right"><path d="M1777.5,98.34c0,1.61.55,3.4,2.52,3.4s2.58-1.48,2.58-3.3c0-2.29-.73-3.43-3-3.43h-1.15V92.93h1.07c2,0,2.65-1.35,2.65-3.15,0-1.32-.6-2.65-2.13-2.65-1.82,0-2.34,1.56-2.34,3.22h-2.81c0-3.45,1.77-5.3,5.31-5.3,2.21,0,4.94,1,4.94,4.71a3.92,3.92,0,0,1-2.94,4v.07c1.9.19,3.35,1.67,3.35,4.27,0,3.66-1.79,5.69-5.61,5.69-3.33,0-5.26-1.63-5.26-5.48Z"/><path d="M1787.2,98.49H1790V99a2.35,2.35,0,0,0,2.42,2.6c2.08,0,2.62-2,2.62-4.19s-.57-3.93-2.47-3.93a2.36,2.36,0,0,0-2.42,1.69l-2.62-.1.91-9.65h8.86v2.37h-6.65l-.6,4.84,0,0a4.06,4.06,0,0,1,3.1-1.43c3.84,0,4.81,3.25,4.81,6.08,0,3.69-1.69,6.5-5.67,6.5-3.3,0-5.15-1.69-5.15-4.94Z"/><path d="M1805.09,85.05c3.53,0,5.51,2.21,5.51,9.39s-2,9.38-5.51,9.38-5.51-2.21-5.51-9.38S1801.55,85.05,1805.09,85.05Zm0,16.69c2,0,2.55-2,2.55-7.3s-.55-7.31-2.55-7.31-2.55,2-2.55,7.31S1803.09,101.74,1805.09,101.74Z"/></g><g id="Layer_34" data-name="Layer 34"><path d="M17.75,101.93c0,1.62.55,3.41,2.53,3.41s2.57-1.48,2.57-3.3c0-2.29-.73-3.43-3-3.43H18.71V96.53h1.07c2,0,2.65-1.36,2.65-3.15,0-1.33-.6-2.65-2.13-2.65C18.48,90.73,18,92.29,18,94H15.15c0-3.46,1.77-5.3,5.31-5.3,2.21,0,4.94,1,4.94,4.7,0,1.9-1.15,3.75-2.94,4v.08c1.9.18,3.35,1.67,3.35,4.27,0,3.66-1.79,5.69-5.61,5.69-3.33,0-5.26-1.64-5.26-5.49Z"/><path d="M27.45,102.09h2.81v.49a2.35,2.35,0,0,0,2.42,2.6c2.08,0,2.62-2,2.62-4.18s-.57-3.93-2.47-3.93a2.36,2.36,0,0,0-2.42,1.69l-2.62-.1L28.7,89h8.86v2.37H30.91l-.6,4.83.05.06a4.06,4.06,0,0,1,3.1-1.43c3.84,0,4.81,3.25,4.81,6.08,0,3.69-1.69,6.5-5.67,6.5-3.3,0-5.15-1.69-5.15-4.94Z"/><path d="M45.34,88.65c3.53,0,5.51,2.21,5.51,9.38s-2,9.39-5.51,9.39-5.51-2.21-5.51-9.39S41.8,88.65,45.34,88.65Zm0,16.69c2,0,2.55-2,2.55-7.31s-.55-7.3-2.55-7.3-2.55,2-2.55,7.3S43.34,105.34,45.34,105.34Z"/></g></g></svg>