<svg xmlns="http://www.w3.org/2000/svg" viewBox="0 0 1847.91 110"><title>bc0350text</title><g id="YEARS"><g id="Right"><path d="M1791.69,98.34c0,1.61.54,3.4,2.52,3.4s2.57-1.48,2.57-3.3c0-2.29-.73-3.43-3-3.43h-1.14V92.93h1.06c2,0,2.66-1.35,2.66-3.15,0-1.32-.6-2.65-2.14-2.65-1.82,0-2.34,1.56-2.34,3.22h-2.8c0-3.45,1.76-5.3,5.3-5.3,2.21,0,4.94,1,4.94,4.71a3.91,3.91,0,0,1-2.94,4v.07c1.9.19,3.36,1.67,3.36,4.27,0,3.66-1.8,5.69-5.62,5.69-3.33,0-5.25-1.63-5.25-5.48Z"/><path d="M1801.38,98.49h2.81V99a2.36,2.36,0,0,0,2.42,2.6c2.08,0,2.63-2,2.63-4.19s-.58-3.93-2.47-3.93a2.35,2.35,0,0,0-2.42,1.69l-2.63-.1.91-9.65h8.87v2.37h-6.66l-.6,4.84.06,0a4,4,0,0,1,3.09-1.43c3.85,0,4.81,3.25,4.81,6.08,0,3.69-1.69,6.5-5.67,6.5-3.3,0-5.15-1.69-5.15-4.94Z"/><path d="M1819.27,85.05c3.54,0,5.51,2.21,5.51,9.39s-2,9.38-5.51,9.38-5.51-2.21-5.51-9.38S1815.73,85.05,1819.27,85.05Zm0,16.69c2,0,2.55-2,2.55-7.3s-.55-7.31-2.55-7.31-2.55,2-2.55,7.31S1817.27,101.74,1819.27,101.74Z"/></g><g id="left"><path d="M21.94,101.94c0,1.61.54,3.4,2.52,3.4S27,103.86,27,102c0-2.29-.73-3.43-3-3.43H22.9V96.53H24c2,0,2.66-1.35,2.66-3.15,0-1.32-.6-2.65-2.14-2.65-1.82,0-2.34,1.56-2.34,3.22h-2.8c0-3.45,1.76-5.3,5.3-5.3,2.21,0,4.94,1,4.94,4.7a3.91,3.91,0,0,1-2.94,4v.07c1.9.19,3.36,1.67,3.36,4.27,0,3.66-1.8,5.69-5.62,5.69-3.33,0-5.25-1.64-5.25-5.48Z"/><path d="M31.63,102.09h2.81v.5a2.36,2.36,0,0,0,2.42,2.6c2.08,0,2.63-2,2.63-4.19s-.58-3.93-2.47-3.93a2.35,2.35,0,0,0-2.42,1.69L32,98.66,32.88,89h8.87v2.37H35.09l-.6,4.84.06,0a4,4,0,0,1,3.09-1.43c3.85,0,4.81,3.25,4.81,6.08,0,3.69-1.69,6.5-5.67,6.5-3.3,0-5.15-1.69-5.15-4.94Z"/><path d="M49.52,88.65C53.06,88.65,55,90.86,55,98s-2,9.38-5.51,9.38S44,105.21,44,98,46,88.65,49.52,88.65Zm0,16.69c2,0,2.55-2,2.55-7.3s-.55-7.31-2.55-7.31S47,92.71,47,98,47.52,105.34,49.52,105.34Z"/></g></g><g id="Text"><g id="Romans"><path d="M117.4,85.71h6.17C126,85.71,128,87,128,90.22c0,2.26-1,4-2.92,4.29v0c1.76.17,2.65,1.13,2.75,3.58,0,1.15,0,2.5.09,3.55a1.92,1.92,0,0,0,.84,1.52h-3.16a2.92,2.92,0,0,1-.47-1.54c0-.52-.07-1.06-.07-1.57s0-1.1,0-1.74c-.08-1.91-.66-2.74-2.55-2.74h-2.28v7.59H117.4Zm5,7.8a2.58,2.58,0,0,0,2.79-2.84c0-1.87-.78-2.85-2.64-2.85h-2.38v5.69Z"/><path d="M130.14,94.46c0-6.25,1.76-9.09,5.78-9.09s5.78,2.84,5.78,9.09-1.76,9.1-5.78,9.1S130.14,100.71,130.14,94.46Zm8.77-.07c0-5.88-1.32-6.91-3-6.91s-3,1-3,6.91,1.32,7.06,3,7.06S138.91,100.39,138.91,94.39Z"/><path d="M144.17,85.71h4.37l3.08,13h0l3-13H159v17.5h-2.65V88.66h-.05l-3.53,14.55H150.4l-3.53-14.55h-.05v14.55h-2.65Z"/><path d="M165.17,85.71h3.58l4.61,17.5h-2.92l-1.08-4.29h-5.12l-1.13,4.29H160.2Zm3.73,11-2-8.62h0l-2.09,8.62Z"/><path d="M174.58,85.71H178l5.08,13h.05v-13h2.64v17.5h-3.4l-5.08-13.38h-.05v13.38h-2.64Z"/><path d="M190.8,97.8v.44c0,2.13.95,3.21,2.86,3.21a2.51,2.51,0,0,0,2.65-2.55c0-1.84-.93-2.65-2.5-3.11l-1.91-.67c-2.55-1-3.65-2.3-3.65-4.8,0-3.18,2.18-4.95,5.44-4.95,4.48,0,4.95,2.8,4.95,4.61v.39h-2.79V90c0-1.59-.69-2.52-2.46-2.52A2.23,2.23,0,0,0,191,90c0,1.5.76,2.26,2.62,3l1.89.69c2.48.88,3.55,2.2,3.55,4.63,0,3.72-2.25,5.27-5.78,5.27-4.34,0-5.32-2.9-5.32-5.35V97.8Z"/></g></g></svg>