<svg xmlns="http://www.w3.org/2000/svg" viewBox="0 0 1847.91 110"><title>bc0350text</title><g id="YEARS"><g id="Right"><path d="M1797,96.07c0,1.61.55,3.4,2.52,3.4s2.58-1.48,2.58-3.3c0-2.29-.73-3.43-3-3.43h-1.15V90.66H1799c2,0,2.65-1.35,2.65-3.15,0-1.32-.6-2.65-2.13-2.65-1.82,0-2.34,1.56-2.34,3.22h-2.81c0-3.45,1.77-5.3,5.31-5.3,2.21,0,4.94,1,4.94,4.71a3.92,3.92,0,0,1-2.94,4v.08c1.9.18,3.35,1.66,3.35,4.26,0,3.67-1.79,5.69-5.61,5.69-3.33,0-5.26-1.63-5.26-5.48Z" fill="#3b4351"/><path d="M1806.67,96.22h2.81v.5a2.35,2.35,0,0,0,2.41,2.6c2.09,0,2.63-2,2.63-4.19s-.57-3.92-2.47-3.92a2.35,2.35,0,0,0-2.42,1.69l-2.62-.11.91-9.65h8.86v2.37h-6.65l-.6,4.84,0,.05a4.06,4.06,0,0,1,3.09-1.43c3.85,0,4.81,3.25,4.81,6.08,0,3.7-1.69,6.5-5.66,6.5-3.31,0-5.15-1.69-5.15-4.94Z" fill="#3b4351"/><path d="M1824.56,82.78c3.53,0,5.51,2.21,5.51,9.39s-2,9.38-5.51,9.38-5.52-2.21-5.52-9.38S1821,82.78,1824.56,82.78Zm0,16.69c2,0,2.54-2,2.54-7.3s-.54-7.31-2.54-7.31-2.55,2-2.55,7.31S1822.55,99.47,1824.56,99.47Z" fill="#3b4351"/></g><g id="left"><path d="M21.94,98c0,1.62.54,3.41,2.52,3.41S27,99.9,27,98.08c0-2.29-.73-3.43-3-3.43H22.9V92.57H24c2,0,2.66-1.36,2.66-3.15,0-1.33-.6-2.65-2.14-2.65-1.82,0-2.34,1.56-2.34,3.22h-2.8c0-3.46,1.76-5.3,5.3-5.3,2.21,0,4.94,1,4.94,4.7,0,1.9-1.14,3.75-2.94,4v.08c1.9.18,3.36,1.67,3.36,4.27,0,3.66-1.8,5.69-5.62,5.69-3.33,0-5.25-1.64-5.25-5.49Z" fill="#3b4351"/><path d="M31.63,98.13h2.81v.49a2.35,2.35,0,0,0,2.42,2.6c2.08,0,2.63-2,2.63-4.18s-.58-3.93-2.47-3.93A2.35,2.35,0,0,0,34.6,94.8L32,94.7l.91-9.65h8.87v2.37H35.09l-.6,4.83.06.06a4,4,0,0,1,3.09-1.43c3.85,0,4.81,3.25,4.81,6.08,0,3.69-1.69,6.5-5.67,6.5-3.3,0-5.15-1.69-5.15-4.94Z" fill="#3b4351"/><path d="M49.52,84.69c3.54,0,5.51,2.21,5.51,9.38s-2,9.39-5.51,9.39S44,101.25,44,94.07,46,84.69,49.52,84.69Zm0,16.69c2,0,2.55-2,2.55-7.31s-.55-7.3-2.55-7.3-2.55,2-2.55,7.3S47.52,101.38,49.52,101.38Z" fill="#3b4351"/></g></g><g id="Nation_OUtlines" data-name="Nation OUtlines"><polygon id="Romans" points="854.62 4266.83 829.93 4153.83 711.95 4044.83 764.62 3930.83 729.95 3815.83 845.28 3704.83 1002.62 3592.83 1065.29 3478.83 1021.28 3367.83 995.34 3250.83 815.28 3142.83 703.28 3031.83 687.28 2916.83 737.95 2802.83 780.62 2690.83 712.62 2579.83 645.95 2465.83 550.62 2352.83 491.95 2243 453.95 2130 455.29 2018 435.95 1903 470.62 1795 322.62 1795 416.12 1682 480.12 1572 410.62 1460 316.95 1346 248.28 1231 210.28 1120 175.95 1009 159.62 893 91.28 780 83.12 675 117.62 561 151.37 447 129.62 337 109.62 222 99.62 110 73.12 0 75.42 -898 85.95 -788 95.28 -676 111.95 -564 116.62 -453 137.95 -340 149.95 -224 169.95 -112 205.28 0 231.95 110 287.74 222 467.73 337 683.72 447 998.71 561 1118.7 675 1131.14 780 1195.2 893 1182.62 1009 1245.62 1120 1220.62 1231 1122.62 1346 981.62 1460 880.12 1572 717.95 1682 593.62 1795 616.62 1903 717.28 2018 839.28 2132.84 863.28 2243 915.28 2352.83 810.62 2465.83 885.95 2579.83 1037.95 2690.83 1125.95 2802.83 1253.95 2916.83 1213.95 3031.83 1202.62 3142.83 1169.95 3250.83 1161.29 3367.83 1218.62 3478.83 1131.95 3592.83 936.62 3704.83 798.62 3815.83 819.28 3930.83 759.95 4044.83 849.28 4153.83 854.62 4266.83" fill="none" stroke="#3b4351" stroke-miterlimit="10"/><polygon id="Iranians" points="1263.29 -1233.83 1235.95 -1348 1211.95 -1462.5 1241.29 -1572.5 1280.62 -1685 1217.95 -1799.83 1163.29 -1909.16 1140.62 -2022.5 1175.95 -2133 1153.29 -2247.83 1137.95 -2361.16 1188.62 -2472.5 1153.95 -2585.16 1161.95 -2698 1156.67 -2813.27 1152.84 -2930.5 1131.29 -3037 1198.62 -3147.5 1275.29 -3259.5 1277.29 -3373.16 1268.62 -3482.83 1283.88 -3594.83 1411.11 -3594.83 1445.69 -3483.27 1480.18 -3372.6 1462.18 -3259.5 1438.19 -3147.5 1387.19 -3037 1387.19 -2925 1420.19 -2810.07 1429.19 -2698 1400.69 -2585.08 1417.19 -2472 1343.69 -2361 1325.69 -2247 1345.19 -2133 1313.69 -2021 1298.69 -1909 1310.69 -1799 1348.19 -1685 1313.69 -1572 1285.19 -1461 1294.19 -1348 1372.19 -1233.83 1373.74 -1125.27 1375.34 -1013.27 1376.98 -898 1335.62 -788 1348.62 -676 1391.1 -564 1462.62 -453 1440.62 -340.27 1447.62 -224 1472.62 -112 1505.62 -0.27 1513.62 109.73 1437.62 221.73 1391.82 336.73 1219.62 222 1086.62 110 890.71 -0.27 788.62 -112 767.62 -224 866.62 -340 1041.62 -453.27 1176.62 -564.27 1205.62 -676.27 1242.62 -788.27 1294.62 -898 1322.62 -1010.83 1240.62 -1125 1263.29 -1233.83" fill="none" stroke="#3b4351" stroke-miterlimit="10"/><polygon id="Indians" points="1372.19 -1233.83 1294.19 -1348 1285.19 -1461 1313.69 -1572 1348.19 -1685 1310.69 -1799 1298.69 -1909 1313.69 -2021 1345.19 -2133 1325.69 -2247 1343.69 -2361 1417.19 -2472 1400.69 -2585.08 1429.19 -2698 1419.27 -2813.27 1387.19 -2925 1387.19 -3037 1438.19 -3147.5 1462.18 -3259.5 1480.18 -3372.54 1445.82 -3482.83 1411.11 -3594.83 1545.86 -3594.83 1580.1 -3482.83 1593.12 -3372.6 1552.12 -3259.5 1514.62 -3147.5 1514.12 -3037.33 1553.12 -2925.27 1548.12 -2813 1519.62 -2698 1534.12 -2584.33 1575.12 -2472 1559.62 -2361 1564.12 -2247.27 1534.62 -2133 1486.12 -2021 1465.12 -1909 1471.12 -1799.83 1502.12 -1685.83 1508.12 -1572 1534.62 -1461 1542.77 -1382.14 1555.62 -1233.83 1554.62 -1125 1567.12 -1013 1542.12 -898.27 1498.12 -788 1490.62 -676 1513.12 -564 1568.62 -453 1544.12 -340 1530.62 -224.27 1523.62 -112.27 1532.62 0 1565.12 110 1543.62 222 1514.12 337 1490.12 446.73 1495.62 561 1517.12 674.67 1528.12 780 1580.62 892.67 1578.12 1008.67 1578.12 1119.17 1560.12 1230.73 1526.62 1346 1467.62 1460 1381.62 1571.73 1270.62 1682 1090.12 1794.73 860.62 1903 1302.12 2018 1377.03 2130 1550.62 2243 1519.62 2352.83 1476.12 2465.83 1516.13 2579.83 1534.62 2692.17 1552.65 2802.83 1585.62 2916.73 1620.12 3031.83 1650.12 3142.83 1630.62 3250.73 1622.45 3367.73 1565.62 3478.83 1402.62 3592.17 1173.62 3704.83 1148.62 3815.83 1334.62 3930.83 1283.62 4044.83 1344.62 4153.83 1544.62 4266.83 1602.62 4381.17 1627.62 4492.83 1674.62 4605.73 1627.62 4720.83 1634.62 4832.83 1686.62 4944.83 1701.62 5057.83 1620.12 5169.83 1606.12 5280.83 1606.12 5394.66 1552.62 5394.66 1549.52 5280.83 1569.62 5169.83 1683.62 5057.83 1667.62 4944.83 1607.62 4832.83 1596.62 4720.17 1617.62 4605.83 1584.62 4492.83 1562.62 4380.83 1507.62 4266.83 1304.62 4153.73 1225.62 4044.73 1236.97 4007.78 1264.87 3930.83 1082.62 3815.83 1084.2 3705.34 1323.62 3592.83 1500.47 3478.73 1573.62 3367.83 1600.62 3250.83 1604.62 3142.83 1569.62 3031.83 1514.62 2916.83 1447.62 2802.73 1418.62 2690.83 1404.62 2579.83 1367.62 2465.83 1397.62 2352.83 1418.62 2242.73 1339.62 2129.73 1246.62 2018 748.62 1903 753.62 1795 910.76 1682 1053.62 1572 1195.2 1460 1311.62 1345.17 1353.62 1231 1348.62 1120 1364.62 1008.17 1406.62 893 1401.62 780 1429.62 675 1394.62 560.73 1393.2 447 1391.82 336.73 1437.52 222 1513.62 109.73 1505.64 0 1472.62 -111.83 1447.62 -224 1440.63 -340 1462.62 -453 1391.1 -564 1348.62 -676 1332.62 -788 1376.98 -898 1375.34 -1013.27 1373.74 -1125.27 1372.19 -1233.83" fill="none" stroke="#3b4351" stroke-miterlimit="10"/><polygon id="Huns" points="1555.62 -1233.83 1545.73 -1348 1533.62 -1461.33 1506.68 -1571.36 1502.16 -1685 1471.34 -1799 1465.12 -1909 1486.12 -2021 1534.62 -2133 1564.05 -2247 1559.62 -2361 1575.12 -2472 1534.24 -2584 1519.62 -2698 1548.12 -2813 1553.11 -2925 1514.47 -3037.27 1514.62 -3149.5 1552.12 -3259.5 1593.12 -3372.16 1580.1 -3482.83 1545.86 -3594.83 1633.99 -3594.83 1651.62 -3482.83 1667.62 -3372.16 1646.62 -3259.5 1620.62 -3147.5 1630.4 -3039.4 1650.62 -2925.33 1676.62 -2813 1700.12 -2698 1689.12 -2584 1714.62 -2472.33 1697.12 -2361.27 1645.62 -2247.27 1616.12 -2133 1586.62 -2021.27 1538.12 -1909.27 1509.12 -1799 1551.62 -1685 1585.12 -1572 1608.62 -1461.33 1609.69 -1348.27 1610.76 -1235.27 1613.62 -1125.27 1625.12 -1013.27 1599.12 -897.33 1557.59 -788 1545.65 -676 1558.62 -564 1584.62 -453.27 1571.12 -339.83 1576.62 -224 1567.62 -112 1587.12 0 1621.12 110 1612.12 222 1556.12 337 1528.62 447 1529.62 561 1553.62 675 1616.07 780 1609.25 893 1592.66 1009 1611.01 1119.73 1612.12 1231 1598.04 1346 1564.12 1460 1534.29 1572 1602.12 1681.73 1653.62 1795 1673.62 1903 1666.12 2018 1668.12 2129.67 1625.62 2242.67 1542.12 2352.83 1476.12 2465.83 1519.62 2352.83 1550.62 2243 1376.62 2129.73 1302.12 2018 860.62 1903 1090.12 1794.73 1270.62 1682 1381.62 1571.73 1467.62 1460 1526.62 1346 1560.12 1230.73 1578.12 1119.17 1578.12 1008.67 1580.62 892.67 1528.12 780 1517.12 674.67 1495.62 561 1490.12 446.73 1514.12 337 1543.62 222 1565.12 110 1532.62 0 1523.62 -112.27 1530.62 -224.27 1544.12 -340 1568.62 -453 1513.12 -564 1490.62 -676 1498.12 -788 1542.12 -898.27 1567.12 -1013 1554.62 -1125 1555.62 -1233.83" fill="none" stroke="#3b4351" stroke-miterlimit="10"/><polygon id="Greeks" points="1131.14 780 1118.7 675 998.71 561 683.72 447 467.73 337 287.74 222 231.95 110 205.28 0 169.95 -112 149.95 -224 137.95 -340 116.62 -453 111.95 -564 95.28 -676 85.95 -788 75.42 -898 75.42 -1071.33 75.42 -2361 142.25 -2247 145.25 -2133 155.75 -2021 172.25 -1909 202.25 -1799 223.25 -1685 251.62 -1572 250.62 -1461 221.95 -1347.16 228.6 -1235.27 199.95 -1125.16 217.95 -1013.16 237.43 -898 262.62 -788 259.95 -676 319.29 -564 349.95 -453 401.29 -340 527.28 -224 645.95 -112 761.95 0 965.29 110 965.95 222 897.95 336.17 910.76 446.73 1099.37 561 1168.66 675.09 1131.14 780" fill="none" stroke="#3b4351" stroke-miterlimit="10"/><polygon id="Egyptians" points="1195.2 890.31 1131.14 780 1168.66 675.09 1099.2 560.73 910.76 446.73 897.95 336.17 965.95 222 965.28 109.5 761.95 0 645.95 -112 527.28 -224 401.29 -340 349.95 -453 319.29 -564 259.95 -676 262.62 -788 238.62 -898 217.95 -1013 199.95 -1125 228.62 -1235 221.62 -1348 250.62 -1461 251.62 -1572 223.25 -1685 271.57 -1799 265.25 -1909 305.74 -2021 341.74 -2133 376.24 -2247 440.74 -2361 467.73 -2471.09 443.74 -2584 381.96 -2698 242.75 -2813 298.62 -2925 424.24 -3037 460.24 -3147.5 397.24 -3259.5 319.24 -3372.16 319.24 -3482.83 298.62 -3594.83 1103.77 -3594.83 1042.62 -3482.83 982.62 -3372.16 940.62 -3259.5 786.62 -3147.5 663.62 -3037 633.62 -2925 662.62 -2813 656.62 -2698.08 733.62 -2584.27 800.62 -2472.83 770.62 -2361 750.62 -2247 785.62 -2133 835.62 -2021 742.62 -1909 658.62 -1799 439.62 -1685 400.62 -1572 361.62 -1461 302.62 -1348 310.62 -1235 282.62 -1125 271.95 -1013 305.95 -788 323.95 -676.5 432.62 -564 476.62 -453.83 451.95 -340 555.95 -224 667.28 -112 813.28 0 968.62 110 995.95 222 968.62 336.84 940.62 445.5 1130.91 560.73 1189.62 675.67 1157.7 780 1195.2 890.31" fill="none" stroke="#3b4351" stroke-miterlimit="10"/><polygon id="Chinese" points="1610.76 -1235.27 1609.69 -1348.27 1608.62 -1461.33 1585.12 -1572 1551.62 -1685 1509.12 -1799 1538.12 -1909.27 1586.62 -2021.27 1616.12 -2133 1645.62 -2247.27 1697.12 -2361.27 1714.62 -2472.33 1689.12 -2584 1700.12 -2698 1676.62 -2813 1650.62 -2925.33 1630.62 -3037 1620.62 -3147.5 1646.62 -3259.5 1667.62 -3372.16 1651.62 -3482.83 1633.99 -3594.83 1768.79 -3594.83 1768.79 4605.83 1768.79 4720.73 1766.12 4832.83 1757.62 4944.83 1736.12 5057.73 1676.12 5169.73 1661.12 5280.83 1663.62 5394.66 1606.12 5394.66 1606.12 5280.73 1620.12 5169.83 1701.62 5057.83 1696.12 4944.67 1654.12 4832.83 1681.62 4720.83 1739.62 4605.73 1748.62 4492.67 1744.12 4380.67 1685.62 4266.83 1615.12 4156.17 1636.12 4044.83 1738.62 3930.83 1761.12 3815.83 1758.62 3704.83 1732.12 3592.83 1695.62 3478.83 1667.62 3367.83 1651.12 3250.83 1650.12 3142.83 1620.12 3031.83 1585.62 2916.73 1552.62 2802.73 1535.12 2690.83 1516.12 2579.73 1476.12 2465.83 1542.12 2352.83 1625.62 2242.67 1668.12 2129.67 1666.12 2018 1673.62 1903 1653.62 1795 1602.12 1681.73 1534.12 1571.73 1564.12 1460 1598.12 1345.73 1612.12 1231 1611.01 1119.73 1592.62 1008.73 1609.25 893 1616.07 780 1553.62 675 1529.62 561 1528.62 446.73 1555.62 337 1612.12 222 1621.12 110 1587.12 0 1567.62 -112 1576.62 -224 1571.12 -340 1584.62 -453.27 1558.62 -564 1545.62 -676.27 1557.62 -788.27 1599.62 -898 1625.12 -1013.27 1613.62 -1125.27 1610.76 -1235.27" fill="none" stroke="#3b4351" stroke-miterlimit="10"/><polygon id="Amorites" points="1263.29 -1233.83 1240.62 -1125 1322.62 -1013 1294.62 -898 1242.62 -788.27 1205.62 -676.27 1176.62 -564.27 1041.62 -453.27 866.62 -340 767.62 -224 788.62 -112 890.71 -0.27 762.62 -112.27 716.62 -224.27 709.62 -340 755.62 -453 1054.29 -564.27 1156.62 -676 1173.62 -789.83 1199.62 -899.83 1138.62 -1013 910.76 -1125 832.62 -1235.27 949.95 -1348 1040.62 -1461.27 1141.31 -1572 1225.29 -1685.16 1147.62 -1799 1085.29 -1909 1061.29 -2021.27 1028.62 -2133.27 971.95 -2247.16 961.95 -2361.83 992.62 -2472 910.76 -2584.27 853.28 -2698 826.62 -2813 785.95 -2925 823.95 -3037 910.76 -3147.5 1027.29 -3259.5 1025.29 -3372.16 1091.29 -3482.83 1152.07 -3594.83 1283.88 -3594.83 1268.62 -3482.83 1277.29 -3373.16 1275.29 -3259.5 1198.62 -3147.5 1131.29 -3037 1153.95 -2925 1156.67 -2813.27 1161.95 -2698 1153.95 -2585.16 1188.62 -2472.5 1137.95 -2361.16 1153.29 -2247.83 1175.95 -2133 1140.62 -2022.5 1163.29 -1909.16 1217.95 -1799.83 1280.62 -1685 1241.29 -1572.5 1211.95 -1462.5 1235.95 -1348 1263.29 -1233.83" fill="none" stroke="#3b4351" stroke-miterlimit="10"/><polygon id="Teutons_-Goths" data-name="Teutons -Goths" points="712.62 2579.83 392.87 2465.83 333.12 2352.83 298.12 2243 257.62 2130 192.12 2018 189.69 1903 168.12 1795 138.62 1684.41 101.12 1572 73.12 1462.67 73.12 0 99.62 110 109.62 222 129.3 339.39 151.37 447 117.62 561 83.12 675 91.28 780 159.62 893 175.95 1009 210.28 1120 248.28 1231 316.95 1346 410.62 1460 480.12 1572 416.12 1682 322.62 1795 328.12 1903 455.29 2018 453.95 2130 425.12 2243 461.12 2352.83 536.62 2465.83 712.62 2579.83" fill="none" stroke="#3b4351" stroke-miterlimit="10"/><polygon points="1130.91 560.73 940.62 445.5 968.62 336.84 995.95 222 968.62 110 813.28 0 667.28 -112 624.62 -224 611.95 -340 608.62 -453 523.28 -564 375.82 -676 387.95 -788 383.29 -898 359.29 -1013 340.62 -1123.84 347.74 -1235.27 394.24 -1348 481.23 -1461 566.62 -1572 623.95 -1685 857.28 -1799 954.62 -1911.16 975.28 -2021.16 969.28 -2133 971.95 -2247.16 998.62 -2133 1020.62 -2021 989.95 -1909 921.28 -1799 697.58 -1685 630.62 -1572 573.95 -1461 511.95 -1348 538.62 -1235 509.95 -1125 479.29 -1013 428.62 -898 439.95 -788 493.29 -676 617.95 -564 644.62 -453 647.18 -340 716.62 -224.27 762.62 -112.27 890.71 -0.27 1086.62 110 1219.62 222 1225.12 337 1186.62 447 1130.91 560.73" fill="none" stroke="#3b4351" stroke-miterlimit="10"/></g><g id="Text"><g id="Romans-2" data-name="Romans"><path d="M117.4,85.71h6.17C126,85.71,128,87,128,90.22c0,2.26-1,4-2.92,4.29v0c1.76.17,2.65,1.13,2.75,3.58,0,1.15,0,2.5.09,3.55a1.92,1.92,0,0,0,.84,1.52h-3.16a2.92,2.92,0,0,1-.47-1.54c0-.52-.07-1.06-.07-1.57s0-1.1,0-1.74c-.08-1.91-.66-2.74-2.55-2.74h-2.28v7.59H117.4Zm5,7.8a2.58,2.58,0,0,0,2.79-2.84c0-1.87-.78-2.85-2.64-2.85h-2.38v5.69Z" fill="#3b4351"/><path d="M130.14,94.46c0-6.25,1.76-9.09,5.78-9.09s5.78,2.84,5.78,9.09-1.76,9.1-5.78,9.1S130.14,100.71,130.14,94.46Zm8.77-.07c0-5.88-1.32-6.91-3-6.91s-3,1-3,6.91,1.32,7.06,3,7.06S138.91,100.39,138.91,94.39Z" fill="#3b4351"/><path d="M144.17,85.71h4.37l3.08,13h0l3-13H159v17.5h-2.65V88.66h-.05l-3.53,14.55H150.4l-3.53-14.55h-.05v14.55h-2.65Z" fill="#3b4351"/><path d="M165.17,85.71h3.58l4.61,17.5h-2.92l-1.08-4.29h-5.12l-1.13,4.29H160.2Zm3.73,11-2-8.62h0l-2.09,8.62Z" fill="#3b4351"/><path d="M174.58,85.71H178l5.08,13h.05v-13h2.64v17.5h-3.4l-5.08-13.38h-.05v13.38h-2.64Z" fill="#3b4351"/><path d="M190.8,97.8v.44c0,2.13.95,3.21,2.86,3.21a2.51,2.51,0,0,0,2.65-2.55c0-1.84-.93-2.65-2.5-3.11l-1.91-.67c-2.55-1-3.65-2.3-3.65-4.8,0-3.18,2.18-4.95,5.44-4.95,4.48,0,4.95,2.8,4.95,4.61v.39h-2.79V90c0-1.59-.69-2.52-2.46-2.52A2.23,2.23,0,0,0,191,90c0,1.5.76,2.26,2.62,3l1.89.69c2.48.88,3.55,2.2,3.55,4.63,0,3.72-2.25,5.27-5.78,5.27-4.34,0-5.32-2.9-5.32-5.35V97.8Z" fill="#3b4351"/></g><g id="Greeks-2" data-name="Greeks"><path d="M815.09,17.53l-2.41-4.92h1.76l1.6,3.32,1.57-3.32h1.72l-2.42,4.92,2.55,5.09h-1.77L816,19l-1.77,3.62h-1.73Z" fill="#3b4351"/><path d="M822.09,17.53l-2.41-4.92h1.76l1.6,3.32,1.57-3.32h1.72l-2.42,4.92,2.55,5.09h-1.77L823,19l-1.77,3.62h-1.73Z" fill="#3b4351"/><path d="M827.21,12.61h1.6v10h-1.6Z" fill="#3b4351"/><path d="M832.19,17.53l-2.4-4.92h1.76l1.6,3.32,1.57-3.32h1.72L834,17.53l2.54,5.09H834.8L833.06,19l-1.78,3.62h-1.72Z" fill="#3b4351"/><path d="M836.62,15.08h1V12.94h1.52v2.14h1.23V16.2h-1.23v4.5c0,.6.16.8.68.8a2.64,2.64,0,0,0,.55-.05v1.12a4.64,4.64,0,0,1-1.22.13c-1,0-1.53-.29-1.53-1.82V16.2h-1Z" fill="#3b4351"/><path d="M841.18,12.61h1.51v3.28l0,0a2.14,2.14,0,0,1,1.85-1c1.14,0,1.87.52,1.87,2v5.69H845V17.45c0-1-.28-1.36-1.05-1.36s-1.21.47-1.21,1.47v5.06h-1.51Z" fill="#3b4351"/><path d="M816.64,29.61h2.84c3.14,0,3.53,2.05,3.53,5s-.39,5-3.53,5h-2.84Zm1.59,8.8h1.32c1.32,0,1.86-.87,1.86-3.79s-.47-3.8-1.86-3.8h-1.32Z" fill="#3b4351"/><path d="M825.33,32.08l1.3,5.66h0l1.21-5.66h1.58l-2.07,7.82c-.61,2.06-1.07,2.34-2.64,2.29a3,3,0,0,1-.6,0V40.93a2.05,2.05,0,0,0,.49.06c.52,0,.86-.1,1-.59l.2-.62-2.14-7.7Z" fill="#3b4351"/><path d="M830.29,32.08h1.43V33h0a2.17,2.17,0,0,1,1.93-1.08c1.15,0,1.88.52,1.88,2.05v5.69h-1.51V34.45c0-1-.27-1.36-1.06-1.36-.61,0-1.2.46-1.2,1.47v5.06h-1.51Z" fill="#3b4351"/><path d="M842,38.05c0,.28.16.53.39.53a.76.76,0,0,0,.25,0v1a1.58,1.58,0,0,1-.74.18c-.67,0-1.24-.27-1.28-1h0a1.94,1.94,0,0,1-1.87,1.1c-1.22,0-2-.66-2-2.11a2.08,2.08,0,0,1,1.75-2.37l1.17-.32c.55-.16.89-.31.89-1s-.24-1.12-1-1.12c-1,0-1.15.71-1.15,1.44h-1.43c0-1.61.66-2.48,2.65-2.48,1.33,0,2.4.52,2.4,1.85Zm-1.43-2.41a12.39,12.39,0,0,1-1.68.7,1.23,1.23,0,0,0-.62,1.22c0,.63.31,1.13.94,1.13.91,0,1.36-.67,1.36-1.79Z" fill="#3b4351"/><path d="M846.75,34.28v-.2c0-.6-.21-1.16-1-1.16-.6,0-1.08.27-1.08,1s.27.83,1.06,1.11l1,.33a2,2,0,0,1,1.64,2.17c0,1.62-1.19,2.3-2.7,2.3-1.91,0-2.48-.88-2.48-2.34v-.28h1.34v.24c0,.88.3,1.35,1.18,1.35s1.23-.43,1.23-1.11a1.09,1.09,0,0,0-.83-1.11l-1.23-.43A2,2,0,0,1,843.25,34c0-1.42,1-2.08,2.58-2.08,1.92,0,2.35,1.12,2.35,2.06v.34Z" fill="#3b4351"/><path d="M848.79,32.08h1V29.94h1.51v2.14h1.24V33.2h-1.24v4.5c0,.6.17.8.69.8a2.72,2.72,0,0,0,.55,0v1.12a4.69,4.69,0,0,1-1.22.13c-1,0-1.53-.29-1.53-1.82V33.2h-1Z" fill="#3b4351"/><path d="M854.37,32.08l1.3,5.66h0l1.2-5.66h1.59l-2.08,7.82c-.6,2.06-1.06,2.34-2.63,2.29a3,3,0,0,1-.6,0V40.93a2,2,0,0,0,.49.06c.51,0,.85-.1,1-.59l.2-.62-2.15-7.7Z" fill="#3b4351"/><path d="M858.44,37.77H860v1.85h-1.6Z" fill="#3b4351"/></g></g></svg>