<svg xmlns="http://www.w3.org/2000/svg" viewBox="0 0 1847.91 112"><title>bc0400text</title><g id="YEARS"><g id="Right"><path d="M1788.62,97.44,1795,85.72h3V97.63h2V100h-2v4.14h-2.8V100h-6.58ZM1795.2,90h-.06l-4.13,7.6h4.19Z" fill="#3b4351"/><path d="M1806.79,85.72c3.54,0,5.51,2.21,5.51,9.38s-2,9.39-5.51,9.39-5.51-2.21-5.51-9.39S1803.26,85.72,1806.79,85.72Zm0,16.69c2,0,2.55-2,2.55-7.31s-.55-7.3-2.55-7.3-2.55,2-2.55,7.3S1804.79,102.41,1806.79,102.41Z" fill="#3b4351"/><path d="M1819.27,85.72c3.54,0,5.51,2.21,5.51,9.38s-2,9.39-5.51,9.39-5.51-2.21-5.51-9.39S1815.73,85.72,1819.27,85.72Zm0,16.69c2,0,2.55-2,2.55-7.31s-.55-7.3-2.55-7.3-2.55,2-2.55,7.3S1817.27,102.41,1819.27,102.41Z" fill="#3b4351"/></g><g id="left"><path d="M18.87,101l6.37-11.73h3v11.91h2v2.37h-2v4.13h-2.8v-4.13H18.87Zm6.58-7.41h-.06l-4.13,7.59h4.19Z" fill="#3b4351"/><path d="M37,89.31c3.54,0,5.51,2.21,5.51,9.39s-2,9.39-5.51,9.39-5.51-2.21-5.51-9.39S33.51,89.31,37,89.31ZM37,106c2,0,2.55-2,2.55-7.31S39,91.39,37,91.39s-2.55,2-2.55,7.31S35,106,37,106Z" fill="#3b4351"/><path d="M49.52,89.31c3.54,0,5.51,2.21,5.51,9.39s-2,9.39-5.51,9.39S44,105.88,44,98.7,46,89.31,49.52,89.31Zm0,16.7c2,0,2.55-2,2.55-7.31s-.55-7.31-2.55-7.31S47,93.37,47,98.7,47.52,106,49.52,106Z" fill="#3b4351"/><path d="M31.63-5.14h2.81v.5A2.36,2.36,0,0,0,36.86-2c2.08,0,2.63-2,2.63-4.19s-.58-3.93-2.47-3.93A2.35,2.35,0,0,0,34.6-8.47L32-8.57l.91-9.65h8.87v2.37H35.09L34.49-11l.06,0a4,4,0,0,1,3.09-1.43c3.85,0,4.81,3.25,4.81,6.08,0,3.69-1.69,6.5-5.67,6.5-3.3,0-5.15-1.69-5.15-4.94Z" fill="#3b4351"/><path d="M49.52-18.58c3.54,0,5.51,2.21,5.51,9.39S53.06.19,49.52.19,44-2,44-9.19,46-18.58,49.52-18.58Zm0,16.69c2,0,2.55-2,2.55-7.3s-.55-7.31-2.55-7.31S47-14.52,47-9.19,47.52-1.89,49.52-1.89Z" fill="#3b4351"/></g></g><g id="Text"><g id="Iranians"><path d="M1120.25,11.71h5.54c3.36,0,4.83,2.11,4.83,5.1,0,3.14-1.86,5.17-5.12,5.17h-2.45v7.23h-2.8Zm2.8,8.17h2c1.5,0,2.8-.79,2.8-3,0-1.89-.76-3-3-3h-1.79Z" fill="#3b4351"/><path d="M1132.5,11.71H1142v2.36h-6.66v4.85h6.27v2.35h-6.27v5.59h6.86v2.35h-9.66Z" fill="#3b4351"/><path d="M1144.29,11.71h6.17c2.45,0,4.44,1.25,4.44,4.51,0,2.26-1,4-2.92,4.29v0c1.77.17,2.65,1.13,2.75,3.58,0,1.15,0,2.5.1,3.55a1.89,1.89,0,0,0,.83,1.52h-3.16a3,3,0,0,1-.47-1.54c0-.52-.07-1.06-.07-1.57s0-1.1,0-1.74c-.07-1.91-.66-2.74-2.55-2.74h-2.28v7.59h-2.79Zm5,7.8a2.58,2.58,0,0,0,2.8-2.84c0-1.87-.79-2.85-2.65-2.85h-2.38v5.69Z" fill="#3b4351"/><path d="M1159.6,23.8v.44c0,2.13,1,3.21,2.87,3.21a2.51,2.51,0,0,0,2.65-2.55c0-1.84-.94-2.65-2.5-3.11l-1.92-.67c-2.54-1-3.65-2.3-3.65-4.8,0-3.18,2.18-5,5.44-5,4.49,0,5,2.8,5,4.61v.39h-2.79V16c0-1.59-.69-2.52-2.45-2.52a2.23,2.23,0,0,0-2.35,2.52c0,1.5.76,2.26,2.62,3l1.89.69c2.47.88,3.55,2.2,3.55,4.63,0,3.72-2.26,5.27-5.78,5.27-4.34,0-5.32-2.9-5.32-5.35V23.8Z" fill="#3b4351"/><path d="M1170,11.71h2.79v17.5H1170Z" fill="#3b4351"/><path d="M1178.91,11.71h3.57l4.61,17.5h-2.91l-1.08-4.29H1178l-1.13,4.29h-2.92Zm3.72,11-2-8.62h0l-2.08,8.62Z" fill="#3b4351"/><path d="M1188.31,11.71h3.41l5.07,13h0v-13h2.65v17.5h-3.41L1191,15.83h0V29.21h-2.65Z" fill="#3b4351"/><path d="M1204.53,23.8v.44c0,2.13,1,3.21,2.87,3.21a2.51,2.51,0,0,0,2.65-2.55c0-1.84-.93-2.65-2.5-3.11l-1.91-.67c-2.55-1-3.66-2.3-3.66-4.8,0-3.18,2.19-5,5.45-5,4.48,0,5,2.8,5,4.61v.39h-2.8V16c0-1.59-.68-2.52-2.45-2.52a2.23,2.23,0,0,0-2.35,2.52c0,1.5.76,2.26,2.62,3l1.89.69c2.47.88,3.55,2.2,3.55,4.63,0,3.72-2.25,5.27-5.78,5.27-4.34,0-5.32-2.9-5.32-5.35V23.8Z" fill="#3b4351"/></g><g id="Chinese"><path d="M1655.86,37.12v.36c0,3.16-1.3,6.25-5.39,6.25-4.41,0-5.78-2.84-5.78-9.09s1.37-9.09,5.81-9.09c5,0,5.27,3.65,5.27,5.49v.32H1653v-.3c0-1.64-.49-3.48-2.5-3.4s-3,1.27-3,6.91.91,7,3,7c2.35,0,2.6-2.57,2.6-4.21v-.29Z" fill="#3b4351"/><path d="M1657.82,25.89h2.79v7h5.15v-7h2.79v17.5h-2.79V35.25h-5.15v8.14h-2.79Z" fill="#3b4351"/><path d="M1671.32,25.89h2.79v17.5h-2.79Z" fill="#3b4351"/><path d="M1676.88,25.89h3.41l5.07,13h.05v-13h2.65v17.5h-3.41L1679.58,30h0V43.39h-2.65Z" fill="#3b4351"/><path d="M1690.94,25.89h9.46v2.35h-6.66V33.1H1700v2.35h-6.27V41h6.86v2.35h-9.66Z" fill="#3b4351"/><path d="M1704.89,38v.44q0,3.21,2.86,3.21a2.51,2.51,0,0,0,2.65-2.54c0-1.84-.93-2.65-2.5-3.12L1706,35.3c-2.55-1-3.65-2.3-3.65-4.8,0-3.19,2.18-4.95,5.44-4.95,4.48,0,5,2.79,5,4.61v.39h-2.8v-.37c0-1.59-.68-2.52-2.45-2.52a2.23,2.23,0,0,0-2.35,2.52c0,1.49.76,2.25,2.62,3l1.89.68c2.47.88,3.55,2.21,3.55,4.63,0,3.73-2.25,5.27-5.78,5.27-4.34,0-5.32-2.89-5.32-5.34V38Z" fill="#3b4351"/><path d="M1715.44,25.89h9.46v2.35h-6.66V33.1h6.27v2.35h-6.27V41h6.86v2.35h-9.66Z" fill="#3b4351"/></g></g></svg>