<svg xmlns="http://www.w3.org/2000/svg" viewBox="0 0 1847.91 112"><title>bc0450text</title><g id="Text"><g id="Greeks"><path d="M380.48,74.58h-.05A3.62,3.62,0,0,1,376.61,77c-3.82,0-5.19-2.84-5.19-9.09s1.76-9.09,5.8-9.09a4.77,4.77,0,0,1,5.13,5v.31H379.7v-.41c0-1.3-.54-2.85-2.45-2.85s-3,1.33-3,6.92.93,7,2.82,7c2.13,0,2.91-1.52,2.91-5.34H377V67.4h5.59v9.22h-2.11Z"/><path d="M385,59.12h6.17c2.45,0,4.44,1.25,4.44,4.51,0,2.25-1,4-2.92,4.29v0c1.77.17,2.65,1.12,2.75,3.57,0,1.16,0,2.5.1,3.56a1.89,1.89,0,0,0,.83,1.52H393.2a3,3,0,0,1-.47-1.55c-.05-.51-.07-1-.07-1.56s0-1.11-.05-1.74c-.07-1.92-.66-2.75-2.55-2.75h-2.28v7.6H385Zm5,7.79a2.58,2.58,0,0,0,2.8-2.84c0-1.86-.79-2.84-2.65-2.84h-2.38v5.68Z"/><path d="M398.14,59.12h9.46v2.35h-6.66v4.86h6.27v2.35h-6.27v5.59h6.86v2.35h-9.66Z"/><path d="M409.93,59.12h9.46v2.35h-6.67v4.86H419v2.35h-6.28v5.59h6.86v2.35h-9.65Z"/><path d="M421.71,59.12h2.8v7.62h.05l5.29-7.62h3.06l-5.05,7.38,5.59,10.12h-3.16l-4.24-7.87L424.51,71v5.66h-2.8Z"/><path d="M436.59,71.2v.44q0,3.21,2.86,3.21a2.51,2.51,0,0,0,2.65-2.55c0-1.83-.93-2.64-2.5-3.11l-1.91-.66c-2.55-1-3.65-2.3-3.65-4.8,0-3.19,2.18-4.95,5.44-4.95,4.48,0,4.95,2.79,4.95,4.6v.4h-2.8v-.37c0-1.59-.68-2.53-2.45-2.53a2.24,2.24,0,0,0-2.35,2.53c0,1.49.76,2.25,2.62,3l1.89.69c2.47.88,3.55,2.21,3.55,4.63,0,3.73-2.25,5.27-5.78,5.27-4.34,0-5.32-2.89-5.32-5.34V71.2Z"/></g></g><g id="YEARS"><g id="Right"><path d="M1774.43,101.55l6.37-11.73h3v11.91h2v2.37h-2v4.13H1781V104.1h-6.58Zm6.58-7.41h0l-4.13,7.59H1781Z"/><path d="M1787.2,103.26H1790v.5a2.35,2.35,0,0,0,2.42,2.6c2.08,0,2.62-2,2.62-4.19s-.57-3.92-2.47-3.92a2.35,2.35,0,0,0-2.42,1.69l-2.62-.11.91-9.65h8.86v2.37h-6.65l-.6,4.84,0,0a4.06,4.06,0,0,1,3.1-1.43c3.84,0,4.81,3.25,4.81,6.08,0,3.7-1.69,6.5-5.67,6.5-3.3,0-5.15-1.69-5.15-4.94Z"/><path d="M1805.09,89.82c3.53,0,5.51,2.21,5.51,9.39s-2,9.38-5.51,9.38-5.51-2.21-5.51-9.38S1801.55,89.82,1805.09,89.82Zm0,16.69c2,0,2.55-2,2.55-7.3s-.55-7.31-2.55-7.31-2.55,2-2.55,7.31S1803.09,106.51,1805.09,106.51Z"/></g><g id="Layer_34" data-name="Layer 34"><path d="M14.68,105.14l6.37-11.72h3v11.91h2v2.36h-2v4.14H21.26v-4.14H14.68Zm6.58-7.41h-.05l-4.13,7.6h4.18Z"/><path d="M27.45,106.86h2.81v.49A2.36,2.36,0,0,0,32.68,110c2.08,0,2.62-2,2.62-4.19s-.57-3.93-2.47-3.93a2.36,2.36,0,0,0-2.42,1.69l-2.62-.1.91-9.65h8.86v2.37H30.91l-.6,4.83.05.06a4.06,4.06,0,0,1,3.1-1.43c3.84,0,4.81,3.25,4.81,6.08,0,3.69-1.69,6.5-5.67,6.5-3.3,0-5.15-1.69-5.15-4.94Z"/><path d="M45.34,93.42c3.53,0,5.51,2.21,5.51,9.38s-2,9.39-5.51,9.39-5.51-2.21-5.51-9.39S41.8,93.42,45.34,93.42Zm0,16.69c2,0,2.55-2,2.55-7.31s-.55-7.3-2.55-7.3-2.55,2-2.55,7.3S43.34,110.11,45.34,110.11Z"/><path d="M16.42-4.73h2.81v.5a2.35,2.35,0,0,0,2.41,2.6c2.08,0,2.63-2,2.63-4.19S23.7-9.74,21.8-9.74A2.35,2.35,0,0,0,19.38-8l-2.62-.11.91-9.64h8.86v2.36H19.88l-.6,4.84,0,0A4.06,4.06,0,0,1,22.42-12c3.85,0,4.81,3.25,4.81,6.08,0,3.7-1.69,6.51-5.66,6.51-3.31,0-5.15-1.69-5.15-4.94Z"/><path d="M34.31-18.17c3.53,0,5.51,2.21,5.51,9.39S37.84.61,34.31.61s-5.52-2.22-5.52-9.39S30.77-18.17,34.31-18.17Zm0,16.7c2,0,2.54-2,2.54-7.31s-.54-7.31-2.54-7.31-2.55,2-2.55,7.31S32.3-1.47,34.31-1.47Z"/><path d="M46.78-18.17c3.54,0,5.52,2.21,5.52,9.39S50.32.61,46.78.61s-5.51-2.22-5.51-9.39S43.25-18.17,46.78-18.17Zm0,16.7c2,0,2.55-2,2.55-7.31s-.54-7.31-2.55-7.31-2.54,2-2.54,7.31S44.78-1.47,46.78-1.47Z"/></g></g></svg>