<svg xmlns="http://www.w3.org/2000/svg" viewBox="0 0 1847.91 112"><title>bc0400text</title><g id="YEARS"><g id="Right"><path d="M1793.9,94l6.37-11.73h3V94.2h2v2.36h-2v4.14h-2.81V96.56h-6.58Zm6.58-7.41h0l-4.13,7.59h4.18Z" fill="#3b4351"/><path d="M1812.08,82.29c3.53,0,5.51,2.21,5.51,9.39s-2,9.38-5.51,9.38-5.52-2.21-5.52-9.38S1808.54,82.29,1812.08,82.29Zm0,16.69c2,0,2.54-2,2.54-7.3s-.54-7.31-2.54-7.31-2.55,2-2.55,7.31S1810.07,99,1812.08,99Z" fill="#3b4351"/><path d="M1824.56,82.29c3.53,0,5.51,2.21,5.51,9.39s-2,9.38-5.51,9.38-5.52-2.21-5.52-9.38S1821,82.29,1824.56,82.29Zm0,16.69c2,0,2.54-2,2.54-7.3s-.54-7.31-2.54-7.31-2.55,2-2.55,7.31S1822.55,99,1824.56,99Z" fill="#3b4351"/></g><g id="left"><path d="M18.87,95.92,25.24,84.2h3V96.11h2v2.36h-2v4.14h-2.8V98.47H18.87Zm6.58-7.41h-.06l-4.13,7.6h4.19Z" fill="#3b4351"/><path d="M37,84.2c3.54,0,5.51,2.21,5.51,9.38S40.58,103,37,103s-5.51-2.21-5.51-9.39S33.51,84.2,37,84.2Zm0,16.69c2,0,2.55-2,2.55-7.31S39,86.28,37,86.28s-2.55,2-2.55,7.3S35,100.89,37,100.89Z" fill="#3b4351"/><path d="M49.52,84.2c3.54,0,5.51,2.21,5.51,9.38s-2,9.39-5.51,9.39S44,100.76,44,93.58,46,84.2,49.52,84.2Zm0,16.69c2,0,2.55-2,2.55-7.31s-.55-7.3-2.55-7.3-2.55,2-2.55,7.3S47.52,100.89,49.52,100.89Z" fill="#3b4351"/></g></g><g id="Nation_OUtlines" data-name="Nation OUtlines"><polygon id="Romans" points="854.62 4378.83 829.93 4265.83 711.95 4156.83 764.62 4042.83 729.95 3927.83 845.28 3816.83 1002.62 3704.83 1065.29 3590.83 1021.28 3479.83 995.34 3362.83 815.28 3254.83 703.28 3143.83 687.28 3028.83 737.95 2914.83 780.62 2802.83 712.62 2691.83 645.95 2577.83 550.62 2464.83 491.95 2355 453.95 2242 455.29 2130 435.95 2015 470.62 1907 322.62 1907 416.12 1794 480.12 1684 410.62 1572 316.95 1458 248.28 1343 210.28 1232 175.95 1121 159.62 1005 91.28 892 83.12 787 117.62 673 151.37 559 129.62 449 109.62 334 99.62 222 73.12 112 75.42 -786 85.95 -676 95.28 -564 111.95 -452 116.62 -341 137.95 -228 149.95 -112 169.95 0 205.28 112 231.95 222 287.74 334 467.73 449 683.72 559 998.71 673 1118.7 787 1131.14 892 1195.2 1005 1182.62 1121 1245.62 1232 1220.62 1343 1122.62 1458 981.62 1572 880.12 1684 717.95 1794 593.62 1907 616.62 2015 717.28 2130 839.28 2244.84 863.28 2355 915.28 2464.83 810.62 2577.83 885.95 2691.83 1037.95 2802.83 1125.95 2914.83 1253.95 3028.83 1213.95 3143.83 1202.62 3254.83 1169.95 3362.83 1161.29 3479.83 1218.62 3590.83 1131.95 3704.83 936.62 3816.83 798.62 3927.83 819.28 4042.83 759.95 4156.83 849.28 4265.83 854.62 4378.83" fill="none" stroke="#3b4351" stroke-miterlimit="10"/><polygon id="Iranians" points="1263.29 -1121.83 1235.95 -1236 1211.95 -1350.5 1241.29 -1460.5 1280.62 -1573 1217.95 -1687.83 1163.29 -1797.16 1140.62 -1910.5 1175.95 -2021 1153.29 -2135.83 1137.95 -2249.16 1188.62 -2360.5 1153.95 -2473.16 1161.95 -2586 1156.67 -2701.27 1152.84 -2818.5 1131.29 -2925 1198.62 -3035.5 1275.29 -3147.5 1277.29 -3261.16 1268.62 -3370.83 1283.88 -3482.83 1411.11 -3482.83 1445.69 -3371.27 1480.18 -3260.6 1462.18 -3147.5 1438.19 -3035.5 1387.19 -2925 1387.19 -2813 1420.19 -2698.07 1429.19 -2586 1400.69 -2473.08 1417.19 -2360 1343.69 -2249 1325.69 -2135 1345.19 -2021 1313.69 -1909 1298.69 -1797 1310.69 -1687 1348.19 -1573 1313.69 -1460 1285.19 -1349 1294.19 -1236 1372.19 -1121.83 1373.74 -1013.27 1375.34 -901.27 1376.98 -786 1335.62 -676 1348.62 -564 1391.1 -452 1462.62 -341 1440.62 -228.27 1447.62 -112 1472.62 0 1505.62 111.73 1513.62 221.73 1437.62 333.73 1391.82 448.73 1219.62 334 1086.62 222 890.71 111.73 788.62 0 767.62 -112 866.62 -228 1041.62 -341.27 1176.62 -452.27 1205.62 -564.27 1242.62 -676.27 1294.62 -786 1322.62 -898.83 1240.62 -1013 1263.29 -1121.83" fill="none" stroke="#3b4351" stroke-miterlimit="10"/><polygon id="Indians" points="1372.19 -1121.83 1294.19 -1236 1285.19 -1349 1313.69 -1460 1348.19 -1573 1310.69 -1687 1298.69 -1797 1313.69 -1909 1345.19 -2021 1325.69 -2135 1343.69 -2249 1417.19 -2360 1400.69 -2473.08 1429.19 -2586 1419.27 -2701.27 1387.19 -2813 1387.19 -2925 1438.19 -3035.5 1462.18 -3147.5 1480.18 -3260.54 1445.82 -3370.83 1411.11 -3482.83 1545.86 -3482.83 1580.1 -3370.83 1593.12 -3260.6 1552.12 -3147.5 1514.62 -3035.5 1514.12 -2925.33 1553.12 -2813.27 1548.12 -2701 1519.62 -2586 1534.12 -2472.33 1575.12 -2360 1559.62 -2249 1564.12 -2135.27 1534.62 -2021 1486.12 -1909 1465.12 -1797 1471.12 -1687.83 1502.12 -1573.83 1508.12 -1460 1534.62 -1349 1542.77 -1270.14 1555.62 -1121.83 1554.62 -1013 1567.12 -901 1542.12 -786.27 1498.12 -676 1490.62 -564 1513.12 -452 1568.62 -341 1544.12 -228 1530.62 -112.27 1523.62 -0.27 1532.62 112 1565.12 222 1543.62 334 1514.12 449 1490.12 558.73 1495.62 673 1517.12 786.67 1528.12 892 1580.62 1004.67 1578.12 1120.67 1578.12 1231.17 1560.12 1342.73 1526.62 1458 1467.62 1572 1381.62 1683.73 1270.62 1794 1090.12 1906.73 860.62 2015 1302.12 2130 1377.03 2242 1550.62 2355 1519.62 2464.83 1476.12 2577.83 1516.13 2691.83 1534.62 2804.17 1552.65 2914.83 1585.62 3028.73 1620.12 3143.83 1650.12 3254.83 1630.62 3362.73 1622.45 3479.73 1565.62 3590.83 1402.62 3704.17 1173.62 3816.83 1148.62 3927.83 1334.62 4042.83 1283.62 4156.83 1344.62 4265.83 1544.62 4378.83 1602.62 4493.17 1627.62 4604.83 1674.62 4717.73 1627.62 4832.83 1634.62 4944.83 1686.62 5056.83 1701.62 5169.83 1620.12 5281.83 1606.12 5392.83 1606.12 5506.66 1552.62 5506.66 1549.52 5392.83 1569.62 5281.83 1683.62 5169.83 1667.62 5056.83 1607.62 4944.83 1596.62 4832.17 1617.62 4717.83 1584.62 4604.83 1562.62 4492.83 1507.62 4378.83 1304.62 4265.73 1225.62 4156.73 1236.97 4119.78 1264.87 4042.83 1082.62 3927.83 1084.2 3817.34 1323.62 3704.83 1500.47 3590.73 1573.62 3479.83 1600.62 3362.83 1604.62 3254.83 1569.62 3143.83 1514.62 3028.83 1447.62 2914.73 1418.62 2802.83 1404.62 2691.83 1367.62 2577.83 1397.62 2464.83 1418.62 2354.73 1339.62 2241.73 1246.62 2130 748.62 2015 753.62 1907 910.76 1794 1053.62 1684 1195.2 1572 1311.62 1457.17 1353.62 1343 1348.62 1232 1364.62 1120.17 1406.62 1005 1401.62 892 1429.62 787 1394.62 672.73 1393.2 559 1391.82 448.73 1437.52 334 1513.62 221.73 1505.64 112 1472.62 0.17 1447.62 -112 1440.63 -228 1462.62 -341 1391.1 -452 1348.62 -564 1332.62 -676 1376.98 -786 1375.34 -901.27 1373.74 -1013.27 1372.19 -1121.83" fill="none" stroke="#3b4351" stroke-miterlimit="10"/><polygon id="Huns" points="1555.62 -1121.83 1545.73 -1236 1533.62 -1349.33 1506.68 -1459.36 1502.16 -1573 1471.34 -1687 1465.12 -1797 1486.12 -1909 1534.62 -2021 1564.05 -2135 1559.62 -2249 1575.12 -2360 1534.24 -2472 1519.62 -2586 1548.12 -2701 1553.11 -2813 1514.47 -2925.27 1514.62 -3037.5 1552.12 -3147.5 1593.12 -3260.16 1580.1 -3370.83 1545.86 -3482.83 1633.99 -3482.83 1651.62 -3370.83 1667.62 -3260.16 1646.62 -3147.5 1620.62 -3035.5 1630.4 -2927.4 1650.62 -2813.33 1676.62 -2701 1700.12 -2586 1689.12 -2472 1714.62 -2360.33 1697.12 -2249.27 1645.62 -2135.27 1616.12 -2021 1586.62 -1909.27 1538.12 -1797.27 1509.12 -1687 1551.62 -1573 1585.12 -1460 1608.62 -1349.33 1609.69 -1236.27 1610.76 -1123.27 1613.62 -1013.27 1625.12 -901.27 1599.12 -785.33 1557.59 -676 1545.65 -564 1558.62 -452 1584.62 -341.27 1571.12 -227.83 1576.62 -112 1567.62 0 1587.12 112 1621.12 222 1612.12 334 1556.12 449 1528.62 559 1529.62 673 1553.62 787 1616.07 892 1609.25 1005 1592.66 1121 1611.01 1231.73 1612.12 1343 1598.04 1458 1564.12 1572 1534.29 1684 1602.12 1793.73 1653.62 1907 1673.62 2015 1666.12 2130 1668.12 2241.67 1625.62 2354.67 1542.12 2464.83 1476.12 2577.83 1519.62 2464.83 1550.62 2355 1376.62 2241.73 1302.12 2130 860.62 2015 1090.12 1906.73 1270.62 1794 1381.62 1683.73 1467.62 1572 1526.62 1458 1560.12 1342.73 1578.12 1231.17 1578.12 1120.67 1580.62 1004.67 1528.12 892 1517.12 786.67 1495.62 673 1490.12 558.73 1514.12 449 1543.62 334 1565.12 222 1532.62 112 1523.62 -0.27 1530.62 -112.27 1544.12 -228 1568.62 -341 1513.12 -452 1490.62 -564 1498.12 -676 1542.12 -786.27 1567.12 -901 1554.62 -1013 1555.62 -1121.83" fill="none" stroke="#3b4351" stroke-miterlimit="10"/><polygon id="Greeks" points="1131.14 892 1118.7 787 998.71 673 683.72 559 467.73 449 287.74 334 231.95 222 205.28 112 169.95 0 149.95 -112 137.95 -228 116.62 -341 111.95 -452 95.28 -564 85.95 -676 75.42 -786 75.42 -959.33 75.42 -2249 142.25 -2135 145.25 -2021 155.75 -1909 172.25 -1797 202.25 -1687 223.25 -1573 251.62 -1460 250.62 -1349 221.95 -1235.16 228.6 -1123.27 199.95 -1013.16 217.95 -901.16 237.43 -786 262.62 -676 259.95 -564 319.29 -452 349.95 -341 401.29 -228 527.28 -112 645.95 0 761.95 112 965.29 222 965.95 334 897.95 448.17 910.76 558.73 1099.37 673 1168.66 787.09 1131.14 892" fill="none" stroke="#3b4351" stroke-miterlimit="10"/><polygon id="Egyptians" points="1195.2 1002.31 1131.14 892 1168.66 787.09 1099.2 672.73 910.76 558.73 897.95 448.17 965.95 334 965.28 221.5 761.95 112 645.95 0 527.28 -112 401.29 -228 349.95 -341 319.29 -452 259.95 -564 262.62 -676 238.62 -786 217.95 -901 199.95 -1013 228.62 -1123 221.62 -1236 250.62 -1349 251.62 -1460 223.25 -1573 271.57 -1687 265.25 -1797 305.74 -1909 341.74 -2021 376.24 -2135 440.74 -2249 467.73 -2359.09 443.74 -2472 381.96 -2586 242.75 -2701 298.62 -2813 424.24 -2925 460.24 -3035.5 397.24 -3147.5 319.24 -3260.16 319.24 -3370.83 298.62 -3482.83 1103.77 -3482.83 1042.62 -3370.83 982.62 -3260.16 940.62 -3147.5 786.62 -3035.5 663.62 -2925 633.62 -2813 662.62 -2701 656.62 -2586.08 733.62 -2472.27 800.62 -2360.83 770.62 -2249 750.62 -2135 785.62 -2021 835.62 -1909 742.62 -1797 658.62 -1687 439.62 -1573 400.62 -1460 361.62 -1349 302.62 -1236 310.62 -1123 282.62 -1013 271.95 -901 305.95 -676 323.95 -564.5 432.62 -452 476.62 -341.83 451.95 -228 555.95 -112 667.28 0 813.28 112 968.62 222 995.95 334 968.62 448.84 940.62 557.5 1130.91 672.73 1189.62 787.67 1157.7 892 1195.2 1002.31" fill="none" stroke="#3b4351" stroke-miterlimit="10"/><polygon id="Chinese" points="1610.76 -1123.27 1609.69 -1236.27 1608.62 -1349.33 1585.12 -1460 1551.62 -1573 1509.12 -1687 1538.12 -1797.27 1586.62 -1909.27 1616.12 -2021 1645.62 -2135.27 1697.12 -2249.27 1714.62 -2360.33 1689.12 -2472 1700.12 -2586 1676.62 -2701 1650.62 -2813.33 1630.62 -2925 1620.62 -3035.5 1646.62 -3147.5 1667.62 -3260.16 1651.62 -3370.83 1633.99 -3482.83 1768.79 -3482.83 1768.79 4717.83 1768.79 4832.73 1766.12 4944.83 1757.62 5056.83 1736.12 5169.73 1676.12 5281.73 1661.12 5392.83 1663.62 5506.66 1606.12 5506.66 1606.12 5392.73 1620.12 5281.83 1701.62 5169.83 1696.12 5056.67 1654.12 4944.83 1681.62 4832.83 1739.62 4717.73 1748.62 4604.67 1744.12 4492.67 1685.62 4378.83 1615.12 4268.17 1636.12 4156.83 1738.62 4042.83 1761.12 3927.83 1758.62 3816.83 1732.12 3704.83 1695.62 3590.83 1667.62 3479.83 1651.12 3362.83 1650.12 3254.83 1620.12 3143.83 1585.62 3028.73 1552.62 2914.73 1535.12 2802.83 1516.12 2691.73 1476.12 2577.83 1542.12 2464.83 1625.62 2354.67 1668.12 2241.67 1666.12 2130 1673.62 2015 1653.62 1907 1602.12 1793.73 1534.12 1683.73 1564.12 1572 1598.12 1457.73 1612.12 1343 1611.01 1231.73 1592.62 1120.73 1609.25 1005 1616.07 892 1553.62 787 1529.62 673 1528.62 558.73 1555.62 449 1612.12 334 1621.12 222 1587.12 112 1567.62 0 1576.62 -112 1571.12 -228 1584.62 -341.27 1558.62 -452 1545.62 -564.27 1557.62 -676.27 1599.62 -786 1625.12 -901.27 1613.62 -1013.27 1610.76 -1123.27" fill="none" stroke="#3b4351" stroke-miterlimit="10"/><polygon id="Amorites" points="1263.29 -1121.83 1240.62 -1013 1322.62 -901 1294.62 -786 1242.62 -676.27 1205.62 -564.27 1176.62 -452.27 1041.62 -341.27 866.62 -228 767.62 -112 788.62 0 890.71 111.73 762.62 -0.27 716.62 -112.27 709.62 -228 755.62 -341 1054.29 -452.27 1156.62 -564 1173.62 -677.83 1199.62 -787.83 1138.62 -901 910.76 -1013 832.62 -1123.27 949.95 -1236 1040.62 -1349.27 1141.31 -1460 1225.29 -1573.16 1147.62 -1687 1085.29 -1797 1061.29 -1909.27 1028.62 -2021.27 971.95 -2135.16 961.95 -2249.83 992.62 -2360 910.76 -2472.27 853.28 -2586 826.62 -2701 785.95 -2813 823.95 -2925 910.76 -3035.5 1027.29 -3147.5 1025.29 -3260.16 1091.29 -3370.83 1152.07 -3482.83 1283.88 -3482.83 1268.62 -3370.83 1277.29 -3261.16 1275.29 -3147.5 1198.62 -3035.5 1131.29 -2925 1153.95 -2813 1156.67 -2701.27 1161.95 -2586 1153.95 -2473.16 1188.62 -2360.5 1137.95 -2249.16 1153.29 -2135.83 1175.95 -2021 1140.62 -1910.5 1163.29 -1797.16 1217.95 -1687.83 1280.62 -1573 1241.29 -1460.5 1211.95 -1350.5 1235.95 -1236 1263.29 -1121.83" fill="none" stroke="#3b4351" stroke-miterlimit="10"/><polygon id="Teutons_-Goths" data-name="Teutons -Goths" points="712.62 2691.83 392.87 2577.83 333.12 2464.83 298.12 2355 257.62 2242 192.12 2130 189.69 2015 168.12 1907 138.62 1796.41 101.12 1684 73.12 1574.67 73.12 112 99.62 222 109.62 334 129.3 451.39 151.37 559 117.62 673 83.12 787 91.28 892 159.62 1005 175.95 1121 210.28 1232 248.28 1343 316.95 1458 410.62 1572 480.12 1684 416.12 1794 322.62 1907 328.12 2015 455.29 2130 453.95 2242 425.12 2355 461.12 2464.83 536.62 2577.83 712.62 2691.83" fill="none" stroke="#3b4351" stroke-miterlimit="10"/><polygon id="Lydians" points="611.95 -228 624.62 -112 667.28 0 555.95 -112 451.95 -228 476.62 -341.83 465.29 -452 375.82 -564 523.28 -452 608.62 -341 611.95 -228" fill="none" stroke="#3b4351" stroke-miterlimit="10"/><polygon points="1130.91 672.73 940.62 557.5 968.62 448.84 995.95 334 968.62 222 813.28 112 667.28 0 624.62 -112 611.95 -228 608.62 -341 523.28 -452 375.82 -564 387.95 -676 383.29 -786 359.29 -901 340.62 -1011.84 347.74 -1123.27 394.24 -1236 481.23 -1349 566.62 -1460 623.95 -1573 857.28 -1687 954.62 -1799.16 975.28 -1909.16 969.28 -2021 971.95 -2135.16 998.62 -2021 1020.62 -1909 989.95 -1797 921.28 -1687 697.58 -1573 630.62 -1460 573.95 -1349 511.95 -1236 538.62 -1123 509.95 -1013 479.29 -901 428.62 -786 439.95 -676 493.29 -564 617.95 -452 644.62 -341 647.18 -228 716.62 -112.27 762.62 -0.27 890.71 111.73 1086.62 222 1219.62 334 1225.12 449 1186.62 559 1130.91 672.73" fill="none" stroke="#3b4351" stroke-miterlimit="10"/></g><g id="Text"><g id="Chinese-2" data-name="Chinese"><path d="M1655.86,37.12v.36c0,3.16-1.3,6.25-5.39,6.25-4.41,0-5.78-2.84-5.78-9.09s1.37-9.09,5.81-9.09c5,0,5.27,3.65,5.27,5.49v.32H1653v-.3c0-1.64-.49-3.48-2.5-3.4s-3,1.27-3,6.91.91,7,3,7c2.35,0,2.6-2.57,2.6-4.21v-.29Z" fill="#3b4351"/><path d="M1657.82,25.89h2.79v7h5.15v-7h2.79v17.5h-2.79V35.25h-5.15v8.14h-2.79Z" fill="#3b4351"/><path d="M1671.32,25.89h2.79v17.5h-2.79Z" fill="#3b4351"/><path d="M1676.88,25.89h3.41l5.07,13h.05v-13h2.65v17.5h-3.41L1679.58,30h0V43.39h-2.65Z" fill="#3b4351"/><path d="M1690.94,25.89h9.46v2.35h-6.66V33.1H1700v2.35h-6.27V41h6.86v2.35h-9.66Z" fill="#3b4351"/><path d="M1704.89,38v.44q0,3.21,2.86,3.21a2.51,2.51,0,0,0,2.65-2.54c0-1.84-.93-2.65-2.5-3.12L1706,35.3c-2.55-1-3.65-2.3-3.65-4.8,0-3.19,2.18-4.95,5.44-4.95,4.48,0,5,2.79,5,4.61v.39h-2.8v-.37c0-1.59-.68-2.52-2.45-2.52a2.23,2.23,0,0,0-2.35,2.52c0,1.49.76,2.25,2.62,3l1.89.68c2.47.88,3.55,2.21,3.55,4.63,0,3.73-2.25,5.27-5.78,5.27-4.34,0-5.32-2.89-5.32-5.34V38Z" fill="#3b4351"/><path d="M1715.44,25.89h9.46v2.35h-6.66V33.1h6.27v2.35h-6.27V41h6.86v2.35h-9.66Z" fill="#3b4351"/></g><g id="Iranians-2" data-name="Iranians"><path d="M1120.25,11.71h5.54c3.36,0,4.83,2.11,4.83,5.1,0,3.14-1.86,5.17-5.12,5.17h-2.45v7.23h-2.8Zm2.8,8.17h2c1.5,0,2.8-.79,2.8-3,0-1.89-.76-3-3-3h-1.79Z" fill="#3b4351"/><path d="M1132.5,11.71H1142v2.36h-6.66v4.85h6.27v2.35h-6.27v5.59h6.86v2.35h-9.66Z" fill="#3b4351"/><path d="M1144.29,11.71h6.17c2.45,0,4.44,1.25,4.44,4.51,0,2.26-1,4-2.92,4.29v0c1.77.17,2.65,1.13,2.75,3.58,0,1.15,0,2.5.1,3.55a1.89,1.89,0,0,0,.83,1.52h-3.16a3,3,0,0,1-.47-1.54c0-.52-.07-1.06-.07-1.57s0-1.1,0-1.74c-.07-1.91-.66-2.74-2.55-2.74h-2.28v7.59h-2.79Zm5,7.8a2.58,2.58,0,0,0,2.8-2.84c0-1.87-.79-2.85-2.65-2.85h-2.38v5.69Z" fill="#3b4351"/><path d="M1159.6,23.8v.44c0,2.13,1,3.21,2.87,3.21a2.51,2.51,0,0,0,2.65-2.55c0-1.84-.94-2.65-2.5-3.11l-1.92-.67c-2.54-1-3.65-2.3-3.65-4.8,0-3.18,2.18-5,5.44-5,4.49,0,5,2.8,5,4.61v.39h-2.79V16c0-1.59-.69-2.52-2.45-2.52a2.23,2.23,0,0,0-2.35,2.52c0,1.5.76,2.26,2.62,3l1.89.69c2.47.88,3.55,2.2,3.55,4.63,0,3.72-2.26,5.27-5.78,5.27-4.34,0-5.32-2.9-5.32-5.35V23.8Z" fill="#3b4351"/><path d="M1170,11.71h2.79v17.5H1170Z" fill="#3b4351"/><path d="M1178.91,11.71h3.57l4.61,17.5h-2.91l-1.08-4.29H1178l-1.13,4.29h-2.92Zm3.72,11-2-8.62h0l-2.08,8.62Z" fill="#3b4351"/><path d="M1188.31,11.71h3.41l5.07,13h0v-13h2.65v17.5h-3.41L1191,15.83h0V29.21h-2.65Z" fill="#3b4351"/><path d="M1204.53,23.8v.44c0,2.13,1,3.21,2.87,3.21a2.51,2.51,0,0,0,2.65-2.55c0-1.84-.93-2.65-2.5-3.11l-1.91-.67c-2.55-1-3.66-2.3-3.66-4.8,0-3.18,2.19-5,5.45-5,4.48,0,5,2.8,5,4.61v.39h-2.8V16c0-1.59-.68-2.52-2.45-2.52a2.23,2.23,0,0,0-2.35,2.52c0,1.5.76,2.26,2.62,3l1.89.69c2.47.88,3.55,2.2,3.55,4.63,0,3.72-2.25,5.27-5.78,5.27-4.34,0-5.32-2.9-5.32-5.35V23.8Z" fill="#3b4351"/></g></g></svg>