<svg xmlns="http://www.w3.org/2000/svg" viewBox="0 0 1847.91 112"><title>bc0450text</title><g id="Text"><g id="Greeks"><path d="M380.48,74.58h-.05A3.62,3.62,0,0,1,376.61,77c-3.82,0-5.19-2.84-5.19-9.09s1.76-9.09,5.8-9.09a4.77,4.77,0,0,1,5.13,5v.31H379.7v-.41c0-1.3-.54-2.85-2.45-2.85s-3,1.33-3,6.92.93,7,2.82,7c2.13,0,2.91-1.52,2.91-5.34H377V67.4h5.59v9.22h-2.11Z"/><path d="M385,59.12h6.17c2.45,0,4.44,1.25,4.44,4.51,0,2.25-1,4-2.92,4.29v0c1.77.17,2.65,1.12,2.75,3.57,0,1.16,0,2.5.1,3.56a1.89,1.89,0,0,0,.83,1.52H393.2a3,3,0,0,1-.47-1.55c-.05-.51-.07-1-.07-1.56s0-1.11-.05-1.74c-.07-1.92-.66-2.75-2.55-2.75h-2.28v7.6H385Zm5,7.79a2.58,2.58,0,0,0,2.8-2.84c0-1.86-.79-2.84-2.65-2.84h-2.38v5.68Z"/><path d="M398.14,59.12h9.46v2.35h-6.66v4.86h6.27v2.35h-6.27v5.59h6.86v2.35h-9.66Z"/><path d="M409.93,59.12h9.46v2.35h-6.67v4.86H419v2.35h-6.28v5.59h6.86v2.35h-9.65Z"/><path d="M421.71,59.12h2.8v7.62h.05l5.29-7.62h3.06l-5.05,7.38,5.59,10.12h-3.16l-4.24-7.87L424.51,71v5.66h-2.8Z"/><path d="M436.59,71.2v.44q0,3.21,2.86,3.21a2.51,2.51,0,0,0,2.65-2.55c0-1.83-.93-2.64-2.5-3.11l-1.91-.66c-2.55-1-3.65-2.3-3.65-4.8,0-3.19,2.18-4.95,5.44-4.95,4.48,0,4.95,2.79,4.95,4.6v.4h-2.8v-.37c0-1.59-.68-2.53-2.45-2.53a2.24,2.24,0,0,0-2.35,2.53c0,1.49.76,2.25,2.62,3l1.89.69c2.47.88,3.55,2.21,3.55,4.63,0,3.73-2.25,5.27-5.78,5.27-4.34,0-5.32-2.89-5.32-5.34V71.2Z"/></g></g><g id="YEARS"><g id="Right"><path d="M1788.62,101.55,1795,89.82h3v11.91h2v2.37h-2v4.13h-2.8V104.1h-6.58Zm6.58-7.41h-.06l-4.13,7.59h4.19Z"/><path d="M1801.38,103.26h2.81v.5a2.35,2.35,0,0,0,2.42,2.6c2.08,0,2.63-2,2.63-4.19s-.58-3.92-2.47-3.92a2.34,2.34,0,0,0-2.42,1.69l-2.63-.11.91-9.65h8.87v2.37h-6.66l-.6,4.84.06,0a4,4,0,0,1,3.09-1.43c3.85,0,4.81,3.25,4.81,6.08,0,3.7-1.69,6.5-5.67,6.5-3.3,0-5.15-1.69-5.15-4.94Z"/><path d="M1819.27,89.82c3.54,0,5.51,2.21,5.51,9.39s-2,9.38-5.51,9.38-5.51-2.21-5.51-9.38S1815.73,89.82,1819.27,89.82Zm0,16.69c2,0,2.55-2,2.55-7.3s-.55-7.31-2.55-7.31-2.55,2-2.55,7.31S1817.27,106.51,1819.27,106.51Z"/></g><g id="left"><path d="M18.87,105.15l6.37-11.73h3v11.91h2v2.36h-2v4.14h-2.8v-4.14H18.87Zm6.58-7.41h-.06l-4.13,7.59h4.19Z"/><path d="M31.63,106.86h2.81v.5a2.36,2.36,0,0,0,2.42,2.6c2.08,0,2.63-2,2.63-4.19s-.58-3.93-2.47-3.93a2.35,2.35,0,0,0-2.42,1.69l-2.63-.1.91-9.65h8.87v2.37H35.09l-.6,4.84.06.05a4,4,0,0,1,3.09-1.43c3.85,0,4.81,3.25,4.81,6.08,0,3.69-1.69,6.5-5.67,6.5-3.3,0-5.15-1.69-5.15-4.94Z"/><path d="M49.52,93.42c3.54,0,5.51,2.21,5.51,9.39s-2,9.38-5.51,9.38S44,110,44,102.81,46,93.42,49.52,93.42Zm0,16.69c2,0,2.55-2,2.55-7.3s-.55-7.31-2.55-7.31-2.55,2-2.55,7.31S47.52,110.11,49.52,110.11Z"/><path d="M19.15-4.73H22v.5a2.35,2.35,0,0,0,2.42,2.6c2.08,0,2.63-2,2.63-4.19s-.58-3.92-2.47-3.92A2.34,2.34,0,0,0,22.12-8l-2.63-.11.91-9.64h8.87v2.36H22.61L22-10.6l.06,0A4,4,0,0,1,25.16-12C29-12,30-8.73,30-5.9,30-2.2,28.28.61,24.3.61c-3.3,0-5.15-1.69-5.15-4.94Z"/><path d="M37-18.17c3.54,0,5.51,2.21,5.51,9.39S40.58.61,37,.61s-5.51-2.22-5.51-9.39S33.51-18.17,37-18.17Zm0,16.7c2,0,2.55-2,2.55-7.31S39-16.09,37-16.09s-2.55,2-2.55,7.31S35-1.47,37-1.47Z"/><path d="M49.52-18.17C53.06-18.17,55-16,55-8.78S53.06.61,49.52.61,44-1.61,44-8.78,46-18.17,49.52-18.17Zm0,16.7c2,0,2.55-2,2.55-7.31s-.55-7.31-2.55-7.31S47-14.11,47-8.78,47.52-1.47,49.52-1.47Z"/></g></g></svg>