<svg xmlns="http://www.w3.org/2000/svg" viewBox="0 0 1847.91 112"><title>bc0450text</title><g id="YEARS"><g id="Right"><path d="M1793.9,93.53l6.37-11.73h3V93.71h2v2.36h-2v4.14h-2.81V96.07h-6.58Zm6.58-7.41h0l-4.13,7.59h4.18Z" fill="#3b4351"/><path d="M1806.67,95.24h2.81v.5a2.35,2.35,0,0,0,2.41,2.6c2.09,0,2.63-2,2.63-4.19s-.57-3.93-2.47-3.93a2.36,2.36,0,0,0-2.42,1.69l-2.62-.1.91-9.65h8.86v2.37h-6.65l-.6,4.84,0,0a4.06,4.06,0,0,1,3.09-1.43c3.85,0,4.81,3.25,4.81,6.08,0,3.69-1.69,6.5-5.66,6.5-3.31,0-5.15-1.69-5.15-4.94Z" fill="#3b4351"/><path d="M1824.56,81.8c3.53,0,5.51,2.21,5.51,9.39s-2,9.38-5.51,9.38-5.52-2.21-5.52-9.38S1821,81.8,1824.56,81.8Zm0,16.69c2,0,2.54-2,2.54-7.3s-.54-7.31-2.54-7.31-2.55,2-2.55,7.31S1822.55,98.49,1824.56,98.49Z" fill="#3b4351"/></g><g id="left"><path d="M18.87,95.43l6.37-11.72h3V95.62h2V98h-2v4.14h-2.8V98H18.87ZM25.45,88h-.06l-4.13,7.6h4.19Z" fill="#3b4351"/><path d="M31.63,97.15h2.81v.49a2.35,2.35,0,0,0,2.42,2.6c2.08,0,2.63-2,2.63-4.18s-.58-3.93-2.47-3.93a2.35,2.35,0,0,0-2.42,1.69L32,93.72l.91-9.65h8.87v2.37H35.09l-.6,4.83.06.06a4,4,0,0,1,3.09-1.43c3.85,0,4.81,3.25,4.81,6.08,0,3.69-1.69,6.5-5.67,6.5-3.3,0-5.15-1.69-5.15-4.94Z" fill="#3b4351"/><path d="M49.52,83.71c3.54,0,5.51,2.21,5.51,9.38s-2,9.39-5.51,9.39S44,100.27,44,93.09,46,83.71,49.52,83.71Zm0,16.69c2,0,2.55-2,2.55-7.31s-.55-7.3-2.55-7.3-2.55,2-2.55,7.3S47.52,100.4,49.52,100.4Z" fill="#3b4351"/></g></g><g id="Nation_OUtlines" data-name="Nation OUtlines"><polygon id="Romans" points="854.62 4490.83 829.93 4377.83 711.95 4268.83 764.62 4154.83 729.95 4039.83 845.28 3928.83 1002.62 3816.83 1065.29 3702.83 1021.28 3591.83 995.34 3474.83 815.28 3366.83 703.28 3255.83 687.28 3140.83 737.95 3026.83 780.62 2914.83 712.62 2803.83 645.95 2689.83 550.62 2576.83 491.95 2467 453.95 2354 455.29 2242 435.95 2127 470.62 2019 322.62 2019 416.12 1906 480.12 1796 410.62 1684 316.95 1570 248.28 1455 210.28 1344 175.95 1233 159.62 1117 91.28 1004 83.12 899 117.62 785 151.37 671 129.62 561 109.62 446 99.62 334 73.12 224 75.42 -674 85.95 -564 95.28 -452 111.95 -340 116.62 -229 137.95 -116 149.95 0 169.95 112 205.28 224 231.95 334 287.74 446 467.73 561 683.72 671 998.71 785 1118.7 899 1131.14 1004 1195.2 1117 1182.62 1233 1245.62 1344 1220.62 1455 1122.62 1570 981.62 1684 880.12 1796 717.95 1906 593.62 2019 616.62 2127 717.28 2242 839.28 2356.84 863.28 2467 915.28 2576.83 810.62 2689.83 885.95 2803.83 1037.95 2914.83 1125.95 3026.83 1253.95 3140.83 1213.95 3255.83 1202.62 3366.83 1169.95 3474.83 1161.29 3591.83 1218.62 3702.83 1131.95 3816.83 936.62 3928.83 798.62 4039.83 819.28 4154.83 759.95 4268.83 849.28 4377.83 854.62 4490.83" fill="none" stroke="#3b4351" stroke-miterlimit="10"/><polygon id="Iranians" points="1263.29 -1009.83 1235.95 -1124 1211.95 -1238.5 1241.29 -1348.5 1280.62 -1461 1217.95 -1575.83 1163.29 -1685.16 1140.62 -1798.5 1175.95 -1909 1153.29 -2023.83 1137.95 -2137.16 1188.62 -2248.5 1153.95 -2361.16 1161.95 -2474 1156.67 -2589.27 1152.84 -2706.5 1131.29 -2813 1198.62 -2923.5 1275.29 -3035.5 1277.29 -3149.16 1268.62 -3258.83 1283.88 -3370.83 1411.11 -3370.83 1445.69 -3259.27 1480.18 -3148.6 1462.18 -3035.5 1438.19 -2923.5 1387.19 -2813 1387.19 -2701 1420.19 -2586.07 1429.19 -2474 1400.69 -2361.08 1417.19 -2248 1343.69 -2137 1325.69 -2023 1345.19 -1909 1313.69 -1797 1298.69 -1685 1310.69 -1575 1348.19 -1461 1313.69 -1348 1285.19 -1237 1294.19 -1124 1372.19 -1009.83 1373.74 -901.27 1375.34 -789.27 1376.98 -674 1335.62 -564 1348.62 -452 1391.1 -340 1462.62 -229 1440.62 -116.27 1447.62 0 1472.62 112 1505.62 223.73 1513.62 333.73 1437.62 445.73 1391.82 560.73 1219.62 446 1086.62 334 890.71 223.73 788.62 112 767.62 0 866.62 -116 1041.62 -229.27 1176.62 -340.27 1205.62 -452.27 1242.62 -564.27 1294.62 -674 1322.62 -786.83 1240.62 -901 1263.29 -1009.83" fill="none" stroke="#3b4351" stroke-miterlimit="10"/><polygon id="Indians" points="1372.19 -1009.83 1294.19 -1124 1285.19 -1237 1313.69 -1348 1348.19 -1461 1310.69 -1575 1298.69 -1685 1313.69 -1797 1345.19 -1909 1325.69 -2023 1343.69 -2137 1417.19 -2248 1400.69 -2361.08 1429.19 -2474 1419.27 -2589.27 1387.19 -2701 1387.19 -2813 1438.19 -2923.5 1462.18 -3035.5 1480.18 -3148.54 1445.82 -3258.83 1411.11 -3370.83 1545.86 -3370.83 1580.1 -3258.83 1593.12 -3148.6 1552.12 -3035.5 1514.62 -2923.5 1514.12 -2813.33 1553.12 -2701.27 1548.12 -2589 1519.62 -2474 1534.12 -2360.33 1575.12 -2248 1559.62 -2137 1564.12 -2023.27 1534.62 -1909 1486.12 -1797 1465.12 -1685 1471.12 -1575.83 1502.12 -1461.83 1508.12 -1348 1534.62 -1237 1542.77 -1158.14 1555.62 -1009.83 1554.62 -901 1567.12 -789 1542.12 -674.27 1498.12 -564 1490.62 -452 1513.12 -340 1568.62 -229 1544.12 -116 1530.62 -0.27 1523.62 111.73 1532.62 224 1565.12 334 1543.62 446 1514.12 561 1490.12 670.73 1495.62 785 1517.12 898.67 1528.12 1004 1580.62 1116.67 1578.12 1232.67 1578.12 1343.17 1560.12 1454.73 1526.62 1570 1467.62 1684 1381.62 1795.73 1270.62 1906 1090.12 2018.73 860.62 2127 1302.12 2242 1377.03 2354 1550.62 2467 1519.62 2576.83 1476.12 2689.83 1516.13 2803.83 1534.62 2916.17 1552.65 3026.83 1585.62 3140.73 1620.12 3255.83 1650.12 3366.83 1630.62 3474.73 1622.45 3591.73 1565.62 3702.83 1402.62 3816.17 1173.62 3928.83 1148.62 4039.83 1334.62 4154.83 1283.62 4268.83 1344.62 4377.83 1544.62 4490.83 1602.62 4605.17 1627.62 4716.83 1674.62 4829.73 1627.62 4944.83 1634.62 5056.83 1686.62 5168.83 1701.62 5281.83 1620.12 5393.83 1606.12 5504.83 1606.12 5618.66 1552.62 5618.66 1549.52 5504.83 1569.62 5393.83 1683.62 5281.83 1667.62 5168.83 1607.62 5056.83 1596.62 4944.17 1617.62 4829.83 1584.62 4716.83 1562.62 4604.83 1507.62 4490.83 1304.62 4377.73 1225.62 4268.73 1236.97 4231.78 1264.87 4154.83 1082.62 4039.83 1084.2 3929.34 1323.62 3816.83 1500.47 3702.73 1573.62 3591.83 1600.62 3474.83 1604.62 3366.83 1569.62 3255.83 1514.62 3140.83 1447.62 3026.73 1418.62 2914.83 1404.62 2803.83 1367.62 2689.83 1397.62 2576.83 1418.62 2466.73 1339.62 2353.73 1246.62 2242 748.62 2127 753.62 2019 910.76 1906 1053.62 1796 1195.2 1684 1311.62 1569.17 1353.62 1455 1348.62 1344 1364.62 1232.17 1406.62 1117 1401.62 1004 1429.62 899 1394.62 784.73 1393.2 671 1391.82 560.73 1437.52 446 1513.62 333.73 1505.64 224 1472.62 112.17 1447.62 0 1440.63 -116 1462.62 -229 1391.1 -340 1348.62 -452 1332.62 -564 1376.98 -674 1375.34 -789.27 1373.74 -901.27 1372.19 -1009.83" fill="none" stroke="#3b4351" stroke-miterlimit="10"/><polygon id="Huns" points="1555.62 -1009.83 1545.73 -1124 1533.62 -1237.33 1506.68 -1347.36 1502.16 -1461 1471.34 -1575 1465.12 -1685 1486.12 -1797 1534.62 -1909 1564.05 -2023 1559.62 -2137 1575.12 -2248 1534.24 -2360 1519.62 -2474 1548.12 -2589 1553.11 -2701 1514.47 -2813.27 1514.62 -2925.5 1552.12 -3035.5 1593.12 -3148.16 1580.1 -3258.83 1545.86 -3370.83 1633.99 -3370.83 1651.62 -3258.83 1667.62 -3148.16 1646.62 -3035.5 1620.62 -2923.5 1630.4 -2815.4 1650.62 -2701.33 1676.62 -2589 1700.12 -2474 1689.12 -2360 1714.62 -2248.33 1697.12 -2137.27 1645.62 -2023.27 1616.12 -1909 1586.62 -1797.27 1538.12 -1685.27 1509.12 -1575 1551.62 -1461 1585.12 -1348 1608.62 -1237.33 1609.69 -1124.27 1610.76 -1011.27 1613.62 -901.27 1625.12 -789.27 1599.12 -673.33 1557.59 -564 1545.65 -452 1558.62 -340 1584.62 -229.27 1571.12 -115.83 1576.62 0 1567.62 112 1587.12 224 1621.12 334 1612.12 446 1556.12 561 1528.62 671 1529.62 785 1553.62 899 1616.07 1004 1609.25 1117 1592.66 1233 1611.01 1343.73 1612.12 1455 1598.04 1570 1564.12 1684 1534.29 1796 1602.12 1905.73 1653.62 2019 1673.62 2127 1666.12 2242 1668.12 2353.67 1625.62 2466.67 1542.12 2576.83 1476.12 2689.83 1519.62 2576.83 1550.62 2467 1376.62 2353.73 1302.12 2242 860.62 2127 1090.12 2018.73 1270.62 1906 1381.62 1795.73 1467.62 1684 1526.62 1570 1560.12 1454.73 1578.12 1343.17 1578.12 1232.67 1580.62 1116.67 1528.12 1004 1517.12 898.67 1495.62 785 1490.12 670.73 1514.12 561 1543.62 446 1565.12 334 1532.62 224 1523.62 111.73 1530.62 -0.27 1544.12 -116 1568.62 -229 1513.12 -340 1490.62 -452 1498.12 -564 1542.12 -674.27 1567.12 -789 1554.62 -901 1555.62 -1009.83" fill="none" stroke="#3b4351" stroke-miterlimit="10"/><polygon id="Greeks" points="1131.14 1004 1118.7 899 998.71 785 683.72 671 467.73 561 287.74 446 231.95 334 205.28 224 169.95 112 149.95 0 137.95 -116 116.62 -229 111.95 -340 95.28 -452 85.95 -564 75.42 -674 75.42 -847.33 75.42 -2137 142.25 -2023 145.25 -1909 155.75 -1797 172.25 -1685 202.25 -1575 223.25 -1461 251.62 -1348 250.62 -1237 221.95 -1123.16 228.6 -1011.27 199.95 -901.16 217.95 -789.16 237.43 -674 262.62 -564 259.95 -452 319.29 -340 349.95 -229 401.29 -116 527.28 0 645.95 112 761.95 224 965.29 334 965.95 446 897.95 560.17 910.76 670.73 1099.37 785 1168.66 899.09 1131.14 1004" fill="none" stroke="#3b4351" stroke-miterlimit="10"/><polygon id="Egyptians" points="1195.2 1114.31 1131.14 1004 1168.66 899.09 1099.2 784.73 910.76 670.73 897.95 560.17 965.95 446 965.28 333.5 761.95 224 645.95 112 527.28 0 401.29 -116 349.95 -229 319.29 -340 259.95 -452 262.62 -564 238.62 -674 217.95 -789 199.95 -901 228.62 -1011 221.62 -1124 250.62 -1237 251.62 -1348 223.25 -1461 271.57 -1575 265.25 -1685 305.74 -1797 341.74 -1909 376.24 -2023 440.74 -2137 467.73 -2247.09 443.74 -2360 381.96 -2474 242.75 -2589 298.62 -2701 424.24 -2813 460.24 -2923.5 397.24 -3035.5 319.24 -3148.16 319.24 -3258.83 298.62 -3370.83 1103.77 -3370.83 1042.62 -3258.83 982.62 -3148.16 940.62 -3035.5 786.62 -2923.5 663.62 -2813 633.62 -2701 662.62 -2589 656.62 -2474.08 733.62 -2360.27 800.62 -2248.83 770.62 -2137 750.62 -2023 785.62 -1909 835.62 -1797 742.62 -1685 658.62 -1575 439.62 -1461 400.62 -1348 361.62 -1237 302.62 -1124 310.62 -1011 282.62 -901 271.95 -789 305.95 -564 323.95 -452.5 432.62 -340 476.62 -229.83 451.95 -116 555.95 0 667.28 112 813.28 224 968.62 334 995.95 446 968.62 560.84 940.62 669.5 1130.91 784.73 1189.62 899.67 1157.7 1004 1195.2 1114.31" fill="none" stroke="#3b4351" stroke-miterlimit="10"/><polygon id="Chinese" points="1610.76 -1011.27 1609.69 -1124.27 1608.62 -1237.33 1585.12 -1348 1551.62 -1461 1509.12 -1575 1538.12 -1685.27 1586.62 -1797.27 1616.12 -1909 1645.62 -2023.27 1697.12 -2137.27 1714.62 -2248.33 1689.12 -2360 1700.12 -2474 1676.62 -2589 1650.62 -2701.33 1630.62 -2813 1620.62 -2923.5 1646.62 -3035.5 1667.62 -3148.16 1651.62 -3258.83 1633.99 -3370.83 1768.79 -3370.83 1768.79 4829.83 1768.79 4944.73 1766.12 5056.83 1757.62 5168.83 1736.12 5281.73 1676.12 5393.73 1661.12 5504.83 1663.62 5618.66 1606.12 5618.66 1606.12 5504.73 1620.12 5393.83 1701.62 5281.83 1696.12 5168.67 1654.12 5056.83 1681.62 4944.83 1739.62 4829.73 1748.62 4716.67 1744.12 4604.67 1685.62 4490.83 1615.12 4380.17 1636.12 4268.83 1738.62 4154.83 1761.12 4039.83 1758.62 3928.83 1732.12 3816.83 1695.62 3702.83 1667.62 3591.83 1651.12 3474.83 1650.12 3366.83 1620.12 3255.83 1585.62 3140.73 1552.62 3026.73 1535.12 2914.83 1516.12 2803.73 1476.12 2689.83 1542.12 2576.83 1625.62 2466.67 1668.12 2353.67 1666.12 2242 1673.62 2127 1653.62 2019 1602.12 1905.73 1534.12 1795.73 1564.12 1684 1598.12 1569.73 1612.12 1455 1611.01 1343.73 1592.62 1232.73 1609.25 1117 1616.07 1004 1553.62 899 1529.62 785 1528.62 670.73 1555.62 561 1612.12 446 1621.12 334 1587.12 224 1567.62 112 1576.62 0 1571.12 -116 1584.62 -229.27 1558.62 -340 1545.62 -452.27 1557.62 -564.27 1599.62 -674 1625.12 -789.27 1613.62 -901.27 1610.76 -1011.27" fill="none" stroke="#3b4351" stroke-miterlimit="10"/><polygon id="Amorites" points="1263.29 -1009.83 1240.62 -901 1322.62 -789 1294.62 -674 1242.62 -564.27 1205.62 -452.27 1176.62 -340.27 1041.62 -229.27 866.62 -116 767.62 0 788.62 112 890.71 223.73 762.62 111.73 716.62 -0.27 709.62 -116 755.62 -229 1054.29 -340.27 1156.62 -452 1173.62 -565.83 1199.62 -675.83 1138.62 -789 910.76 -901 832.62 -1011.27 949.95 -1124 1040.62 -1237.27 1141.31 -1348 1225.29 -1461.16 1147.62 -1575 1085.29 -1685 1061.29 -1797.27 1028.62 -1909.27 971.95 -2023.16 961.95 -2137.83 992.62 -2248 910.76 -2360.27 853.28 -2474 826.62 -2589 785.95 -2701 823.95 -2813 910.76 -2923.5 1027.29 -3035.5 1025.29 -3148.16 1091.29 -3258.83 1152.07 -3370.83 1283.88 -3370.83 1268.62 -3258.83 1277.29 -3149.16 1275.29 -3035.5 1198.62 -2923.5 1131.29 -2813 1153.95 -2701 1156.67 -2589.27 1161.95 -2474 1153.95 -2361.16 1188.62 -2248.5 1137.95 -2137.16 1153.29 -2023.83 1175.95 -1909 1140.62 -1798.5 1163.29 -1685.16 1217.95 -1575.83 1280.62 -1461 1241.29 -1348.5 1211.95 -1238.5 1235.95 -1124 1263.29 -1009.83" fill="none" stroke="#3b4351" stroke-miterlimit="10"/><polygon id="Assyrian_Kingdom" data-name="Assyrian Kingdom" points="631.95 -1011.27 635.28 -1124 679.9 -1237 701.28 -1348 799.28 -1461 980.62 -1575 1007.95 -1685 1020.62 -1797 998.62 -1909 971.95 -2023.16 1028.62 -1909.27 1061.29 -1797.27 1085.29 -1685 1147.62 -1575 1225.29 -1461.16 1141.31 -1348 1040.62 -1237.27 949.95 -1124 832.62 -1011.27 910.76 -901 1138.62 -789 1199.62 -675.83 1173.62 -565.83 1156.62 -452 1054.29 -340.27 755.62 -229 709.62 -116 716.62 -0.27 658.28 -116 654.62 -229 630.95 -340 510.62 -452 518.62 -564 595.95 -674 638.62 -789 643.28 -901 631.95 -1011.27" fill="none" stroke="#3b4351" stroke-miterlimit="10"/><polygon id="Lydians" points="611.95 -116 624.62 0 667.28 112 555.95 0 451.95 -116 476.62 -229.83 465.29 -340 375.82 -452 523.28 -340 608.62 -229 611.95 -116" fill="none" stroke="#3b4351" stroke-miterlimit="10"/><polygon points="1130.91 784.73 940.62 669.5 968.62 560.84 995.95 446 968.62 334 813.28 224 667.28 112 624.62 0 611.95 -116 608.62 -229 523.28 -340 375.82 -452 387.95 -564 383.29 -674 359.29 -789 340.62 -899.84 347.74 -1011.27 394.24 -1124 481.23 -1237 566.62 -1348 623.95 -1461 857.28 -1575 954.62 -1687.16 975.28 -1797.16 969.28 -1909 971.95 -2023.16 998.62 -1909 1020.62 -1797 989.95 -1685 921.28 -1575 697.58 -1461 630.62 -1348 573.95 -1237 511.95 -1124 538.62 -1011 509.95 -901 479.29 -789 428.62 -674 439.95 -564 493.29 -452 617.95 -340 644.62 -229 647.18 -116 716.62 -0.27 762.62 111.73 890.71 223.73 1086.62 334 1219.62 446 1225.12 561 1186.62 671 1130.91 784.73" fill="none" stroke="#3b4351" stroke-miterlimit="10"/></g><g id="Text"><g id="Greeks-2" data-name="Greeks"><path d="M380.48,74.58h-.05A3.62,3.62,0,0,1,376.61,77c-3.82,0-5.19-2.84-5.19-9.09s1.76-9.09,5.8-9.09a4.77,4.77,0,0,1,5.13,5v.31H379.7v-.41c0-1.3-.54-2.85-2.45-2.85s-3,1.33-3,6.92.93,7,2.82,7c2.13,0,2.91-1.52,2.91-5.34H377V67.4h5.59v9.22h-2.11Z" fill="#3b4351"/><path d="M385,59.12h6.17c2.45,0,4.44,1.25,4.44,4.51,0,2.25-1,4-2.92,4.29v0c1.77.17,2.65,1.12,2.75,3.57,0,1.16,0,2.5.1,3.56a1.89,1.89,0,0,0,.83,1.52H393.2a3,3,0,0,1-.47-1.55c-.05-.51-.07-1-.07-1.56s0-1.11-.05-1.74c-.07-1.92-.66-2.75-2.55-2.75h-2.28v7.6H385Zm5,7.79a2.58,2.58,0,0,0,2.8-2.84c0-1.86-.79-2.84-2.65-2.84h-2.38v5.68Z" fill="#3b4351"/><path d="M398.14,59.12h9.46v2.35h-6.66v4.86h6.27v2.35h-6.27v5.59h6.86v2.35h-9.66Z" fill="#3b4351"/><path d="M409.93,59.12h9.46v2.35h-6.67v4.86H419v2.35h-6.28v5.59h6.86v2.35h-9.65Z" fill="#3b4351"/><path d="M421.71,59.12h2.8v7.62h.05l5.29-7.62h3.06l-5.05,7.38,5.59,10.12h-3.16l-4.24-7.87L424.51,71v5.66h-2.8Z" fill="#3b4351"/><path d="M436.59,71.2v.44q0,3.21,2.86,3.21a2.51,2.51,0,0,0,2.65-2.55c0-1.83-.93-2.64-2.5-3.11l-1.91-.66c-2.55-1-3.65-2.3-3.65-4.8,0-3.19,2.18-4.95,5.44-4.95,4.48,0,4.95,2.79,4.95,4.6v.4h-2.8v-.37c0-1.59-.68-2.53-2.45-2.53a2.24,2.24,0,0,0-2.35,2.53c0,1.49.76,2.25,2.62,3l1.89.69c2.47.88,3.55,2.21,3.55,4.63,0,3.73-2.25,5.27-5.78,5.27-4.34,0-5.32-2.89-5.32-5.34V71.2Z" fill="#3b4351"/><path d="M571.42,25.72h5.4v1.34H573v2.78h3.59v1.34H573v3.2h3.92v1.34h-5.51Z" fill="#3b4351"/><path d="M579.56,36.37a1,1,0,0,0,1.1.89,1.24,1.24,0,0,0,1.27-1.41V34.63h0a1.82,1.82,0,0,1-1.7,1c-1.76,0-2.26-1.73-2.26-3.8,0-1.65.25-3.88,2.4-3.88A1.66,1.66,0,0,1,582,29.11h0v-.93h1.42v7.18c0,1.83-.78,2.94-2.81,2.94-2.24,0-2.49-1.32-2.49-1.93Zm1.07-1.91c1.18,0,1.3-1.48,1.3-2.67s-.15-2.6-1.2-2.6-1.28,1.12-1.28,2.52S579.51,34.46,580.63,34.46Z" fill="#3b4351"/><path d="M585.79,28.18l1.31,5.66h0l1.2-5.66h1.58L587.84,36c-.6,2.06-1.07,2.34-2.63,2.3a3.15,3.15,0,0,1-.61-.06V37a2.09,2.09,0,0,0,.49.05c.52,0,.86-.09,1-.59l.19-.61-2.14-7.71Z" fill="#3b4351"/><path d="M594,35.92a1.74,1.74,0,0,1-1.71-1.08h0v3.35h-1.51v-10h1.43v.93h0A1.78,1.78,0,0,1,593.9,28c1.72,0,2.42,1.47,2.42,4.06C596.32,35.22,595.05,35.92,594,35.92Zm-.55-6.73c-1,0-1.27,1-1.27,2.68,0,1.81.22,2.84,1.29,2.84.85,0,1.26-.64,1.26-2.73C594.73,30.27,594.52,29.19,593.45,29.19Z" fill="#3b4351"/><path d="M596.81,28.18h1V26h1.51v2.14h1.23v1.13h-1.23V33.8c0,.6.17.8.69.8a2.7,2.7,0,0,0,.54,0v1.12a5.11,5.11,0,0,1-1.22.12c-1,0-1.52-.29-1.52-1.82V29.31h-1Z" fill="#3b4351"/><path d="M574.83,51.15c0,.28.16.53.39.53a.57.57,0,0,0,.25,0v1a1.58,1.58,0,0,1-.74.18c-.67,0-1.23-.26-1.28-1h0a2,2,0,0,1-1.88,1.11c-1.22,0-2-.66-2-2.12a2.08,2.08,0,0,1,1.75-2.37l1.17-.32c.55-.15.89-.31.89-1s-.24-1.12-1-1.12c-1,0-1.15.71-1.15,1.44h-1.43c0-1.61.66-2.48,2.65-2.48,1.33,0,2.4.52,2.4,1.85Zm-1.43-2.41a11.23,11.23,0,0,1-1.68.7,1.23,1.23,0,0,0-.62,1.22c0,.63.31,1.14.94,1.14.91,0,1.36-.68,1.36-1.8Z" fill="#3b4351"/><path d="M579.82,42.72H583c1.92,0,2.76,1.2,2.76,2.91a2.72,2.72,0,0,1-2.93,3h-1.4v4.13h-1.6Zm1.6,4.66h1.13a1.5,1.5,0,0,0,1.6-1.72c0-1.08-.43-1.74-1.71-1.74h-1Z" fill="#3b4351"/><path d="M588,49.15v.43c0,1,.12,2.3,1.26,2.3s1.2-1.22,1.2-1.68h1.43a2.48,2.48,0,0,1-2.65,2.72c-1.23,0-2.76-.37-2.76-3.85,0-2,.44-4.08,2.79-4.08,2.1,0,2.66,1.27,2.66,3.36v.8Zm2.42-1v-.4c0-1-.31-1.68-1.16-1.68S588,47,588,48v.15Z" fill="#3b4351"/><path d="M593.2,45.18h1.52v1.18h0A1.85,1.85,0,0,1,596.5,45a.89.89,0,0,1,.36,0v1.55a1.83,1.83,0,0,0-.63-.09c-.69,0-1.51.31-1.51,1.71v4.51H593.2Z" fill="#3b4351"/><path d="M600.86,47.38v-.19c0-.6-.21-1.16-1-1.16-.6,0-1.08.26-1.08,1s.27.82,1.07,1.1l1,.34a2,2,0,0,1,1.64,2.17c0,1.61-1.19,2.3-2.7,2.3-1.91,0-2.48-.89-2.48-2.34V50.3h1.34v.24c0,.88.3,1.34,1.18,1.34s1.23-.42,1.23-1.11a1.09,1.09,0,0,0-.82-1.1L599,49.23a2,2,0,0,1-1.61-2.17c0-1.41,1-2.07,2.58-2.07,1.92,0,2.35,1.12,2.35,2.06v.33Z" fill="#3b4351"/><path d="M603.65,42.61h1.51v1.51h-1.51Zm0,2.57h1.51v7.54h-1.51Z" fill="#3b4351"/><path d="M611.63,51.15c0,.28.17.53.39.53a.59.59,0,0,0,.26,0v1a1.63,1.63,0,0,1-.75.18c-.67,0-1.23-.26-1.27-1h0a2,2,0,0,1-1.88,1.11c-1.22,0-2-.66-2-2.12a2.08,2.08,0,0,1,1.75-2.37l1.18-.32c.55-.15.88-.31.88-1S610,46,609.17,46c-1,0-1.15.71-1.15,1.44h-1.43c0-1.61.66-2.48,2.65-2.48,1.33,0,2.39.52,2.39,1.85Zm-1.43-2.41a11.23,11.23,0,0,1-1.68.7,1.24,1.24,0,0,0-.61,1.22c0,.63.3,1.14.93,1.14.91,0,1.36-.68,1.36-1.8Z" fill="#3b4351"/><path d="M613.17,45.18h1.43v.89h0A2.15,2.15,0,0,1,616.57,45c1.15,0,1.88.52,1.88,2v5.69h-1.51V47.55c0-1-.27-1.36-1.05-1.36-.62,0-1.21.47-1.21,1.47v5.06h-1.51Z" fill="#3b4351"/><path d="M579,59.72h3.16c1.92,0,2.76,1.2,2.76,2.91a2.71,2.71,0,0,1-2.92,3h-1.4v4.13H579Zm1.6,4.66h1.13a1.5,1.5,0,0,0,1.6-1.72c0-1.08-.44-1.74-1.71-1.74h-1Z" fill="#3b4351"/><path d="M585.86,62.18h1.51v1.18h0A1.87,1.87,0,0,1,589.15,62a.94.94,0,0,1,.37,0v1.55a1.91,1.91,0,0,0-.63-.09c-.69,0-1.52.31-1.52,1.71v4.51h-1.51Z" fill="#3b4351"/><path d="M590,66c0-2.35.61-4,2.8-4s2.81,1.61,2.81,4-.73,4-2.81,4S590,68.31,590,66Zm2.8,2.85c1.1,0,1.3-.93,1.3-2.85,0-1.66-.2-2.84-1.3-2.84s-1.29,1.18-1.29,2.84C591.49,67.87,591.7,68.8,592.78,68.8Z" fill="#3b4351"/><path d="M596,62.18h1.62L599,68.12h0l1.19-5.94h1.61l-2,7.54h-1.77Z" fill="#3b4351"/><path d="M602.7,59.61h1.51v1.51H602.7Zm0,2.57h1.51v7.54H602.7Z" fill="#3b4351"/><path d="M605.74,62.18h1.43v.89h0A2.15,2.15,0,0,1,609.14,62c1.15,0,1.88.52,1.88,2v5.69h-1.51V64.55c0-1-.27-1.36-1-1.36-.62,0-1.21.47-1.21,1.47v5.06h-1.51Z" fill="#3b4351"/><path d="M617.56,67c-.11,1.8-.7,2.94-2.58,2.94-2.18,0-2.8-1.61-2.8-4s.62-4,2.8-4a2.43,2.43,0,0,1,2.59,2.7h-1.51c0-.7-.18-1.62-1.08-1.58-1.08,0-1.29,1.18-1.29,2.84s.21,2.85,1.29,2.85c.84,0,1.15-.69,1.15-1.82Z" fill="#3b4351"/><path d="M620,66.15v.43c0,1,.13,2.3,1.26,2.3s1.21-1.22,1.21-1.68h1.43a2.48,2.48,0,0,1-2.65,2.72c-1.23,0-2.76-.37-2.76-3.85,0-2,.43-4.08,2.79-4.08,2.1,0,2.66,1.27,2.66,3.36v.8Zm2.43-1v-.4c0-1-.31-1.68-1.17-1.68S620,64,620,65v.15Z" fill="#3b4351"/><path d="M624.81,67.87h1.59v1.85h-1.59Z" fill="#3b4351"/></g></g></svg>