<svg id="Text" xmlns="http://www.w3.org/2000/svg" viewBox="0 0 1847.91 112"><title>bc0450text</title><g id="Greeks"><path d="M380.48,74.58h-.05A3.62,3.62,0,0,1,376.61,77c-3.82,0-5.19-2.84-5.19-9.09s1.76-9.09,5.8-9.09a4.77,4.77,0,0,1,5.13,5v.31H379.7v-.41c0-1.3-.54-2.85-2.45-2.85s-3,1.33-3,6.92.93,7,2.82,7c2.13,0,2.91-1.52,2.91-5.34H377V67.4h5.59v9.22h-2.11Z"/><path d="M385,59.12h6.17c2.45,0,4.44,1.25,4.44,4.51,0,2.25-1,4-2.92,4.29v0c1.77.17,2.65,1.12,2.75,3.57,0,1.16,0,2.5.1,3.56a1.89,1.89,0,0,0,.83,1.52H393.2a3,3,0,0,1-.47-1.55c-.05-.51-.07-1-.07-1.56s0-1.11-.05-1.74c-.07-1.92-.66-2.75-2.55-2.75h-2.28v7.6H385Zm5,7.79a2.58,2.58,0,0,0,2.8-2.84c0-1.86-.79-2.84-2.65-2.84h-2.38v5.68Z"/><path d="M398.14,59.12h9.46v2.35h-6.66v4.86h6.27v2.35h-6.27v5.59h6.86v2.35h-9.66Z"/><path d="M409.93,59.12h9.46v2.35h-6.67v4.86H419v2.35h-6.28v5.59h6.86v2.35h-9.65Z"/><path d="M421.71,59.12h2.8v7.62h.05l5.29-7.62h3.06l-5.05,7.38,5.59,10.12h-3.16l-4.24-7.87L424.51,71v5.66h-2.8Z"/><path d="M436.59,71.2v.44q0,3.21,2.86,3.21a2.51,2.51,0,0,0,2.65-2.55c0-1.83-.93-2.64-2.5-3.11l-1.91-.66c-2.55-1-3.65-2.3-3.65-4.8,0-3.19,2.18-4.95,5.44-4.95,4.48,0,4.95,2.79,4.95,4.6v.4h-2.8v-.37c0-1.59-.68-2.53-2.45-2.53a2.24,2.24,0,0,0-2.35,2.53c0,1.49.76,2.25,2.62,3l1.89.69c2.47.88,3.55,2.21,3.55,4.63,0,3.73-2.25,5.27-5.78,5.27-4.34,0-5.32-2.89-5.32-5.34V71.2Z"/></g></svg>