<svg xmlns="http://www.w3.org/2000/svg" viewBox="0 0 1847.91 116"><title>bc0500text</title><g id="YEARS"><g id="Right"><path d="M1778.74,69.08h6c2.78,0,5,1.25,5,4.5,0,2.23-.91,3.64-2.73,4.21v0c2,.37,3.33,1.59,3.33,4.73s-2.24,5.07-5.72,5.07h-5.88Zm5.31,7.83c1.79,0,2.73-1.17,2.73-2.94,0-2.21-1.33-2.66-3-2.66h-2.08v5.6Zm.59,8.5c1.77,0,2.73-1.12,2.73-3.28a2.81,2.81,0,0,0-2.91-3.14h-2.75v6.42Z" fill="#3b4351"/><path d="M1792,84.21h3v3.43h-3Z" fill="#3b4351"/><path d="M1830.06,81v.39c0,3.35-1.38,6.63-5.72,6.63-4.68,0-6.14-3-6.14-9.65s1.46-9.65,6.17-9.65c5.27,0,5.59,3.88,5.59,5.83v.34h-3v-.32c0-1.74-.52-3.69-2.65-3.61s-3.17,1.35-3.17,7.33,1,7.49,3.17,7.49c2.5,0,2.76-2.73,2.76-4.47V81Z" fill="#3b4351"/><path d="M1831.78,84.21h3v3.43h-3Z" fill="#3b4351"/><path d="M1788.9,107.68h2.81v.49a2.35,2.35,0,0,0,2.42,2.6c2.08,0,2.63-2,2.63-4.18s-.58-3.93-2.47-3.93a2.34,2.34,0,0,0-2.42,1.69l-2.63-.1.91-9.65H1799V97h-6.66l-.6,4.84.06,0a4,4,0,0,1,3.09-1.43c3.85,0,4.81,3.25,4.81,6.09,0,3.69-1.69,6.5-5.67,6.5-3.3,0-5.15-1.69-5.15-4.94Z" fill="#3b4351"/><path d="M1806.79,94.23c3.54,0,5.51,2.21,5.51,9.39s-2,9.39-5.51,9.39-5.51-2.21-5.51-9.39S1803.26,94.23,1806.79,94.23Zm0,16.7c2,0,2.55-2,2.55-7.31s-.55-7.31-2.55-7.31-2.55,2-2.55,7.31S1804.79,110.93,1806.79,110.93Z" fill="#3b4351"/><path d="M1819.27,94.23c3.54,0,5.51,2.21,5.51,9.39s-2,9.39-5.51,9.39-5.51-2.21-5.51-9.39S1815.73,94.23,1819.27,94.23Zm0,16.7c2,0,2.55-2,2.55-7.31s-.55-7.31-2.55-7.31-2.55,2-2.55,7.31S1817.27,110.93,1819.27,110.93Z" fill="#3b4351"/></g><g id="left"><path d="M19.15-5.24H22v.49a2.35,2.35,0,0,0,2.42,2.6c2.08,0,2.63-2,2.63-4.18s-.58-3.93-2.47-3.93a2.35,2.35,0,0,0-2.42,1.69l-2.63-.1.91-9.65h8.87V-16H22.61L22-11.12l.06,0a4,4,0,0,1,3.09-1.43C29-12.5,30-9.25,30-6.41,30-2.72,28.28.09,24.3.09c-3.3,0-5.15-1.69-5.15-4.94Z" fill="#3b4351"/><path d="M31.63-5.24h2.81v.49a2.35,2.35,0,0,0,2.42,2.6c2.08,0,2.63-2,2.63-4.18s-.58-3.93-2.47-3.93A2.35,2.35,0,0,0,34.6-8.57L32-8.67l.91-9.65h8.87V-16H35.09l-.6,4.84.06,0a4,4,0,0,1,3.09-1.43c3.85,0,4.81,3.25,4.81,6.09,0,3.69-1.69,6.5-5.67,6.5-3.3,0-5.15-1.69-5.15-4.94Z" fill="#3b4351"/><path d="M49.52-18.69c3.54,0,5.51,2.21,5.51,9.39S53.06.09,49.52.09,44-2.12,44-9.3,46-18.69,49.52-18.69Zm0,16.7c2,0,2.55-2,2.55-7.31s-.55-7.31-2.55-7.31S47-14.63,47-9.3,47.52-2,49.52-2Z" fill="#3b4351"/><path d="M9,72.68h6c2.78,0,5,1.24,5,4.49,0,2.24-.91,3.64-2.73,4.22v0c2,.36,3.33,1.58,3.33,4.73s-2.24,5.07-5.72,5.07H9ZM14.3,80.5c1.79,0,2.73-1.17,2.73-2.94,0-2.21-1.33-2.65-3-2.65H12V80.5Zm.6,8.5c1.76,0,2.72-1.11,2.72-3.27a2.82,2.82,0,0,0-2.91-3.15H12V89Z" fill="#3b4351"/><path d="M22.28,87.81h3v3.43h-3Z" fill="#3b4351"/><path d="M60.31,84.58V85c0,3.35-1.38,6.63-5.72,6.63-4.68,0-6.14-3-6.14-9.65s1.46-9.65,6.17-9.65c5.27,0,5.59,3.88,5.59,5.83v.33h-3v-.31c0-1.74-.52-3.69-2.65-3.61s-3.17,1.35-3.17,7.33,1,7.49,3.17,7.49c2.5,0,2.76-2.73,2.76-4.47v-.32Z" fill="#3b4351"/><path d="M62,87.81h3v3.43H62Z" fill="#3b4351"/><path d="M19.15,111.27H22v.5a2.35,2.35,0,0,0,2.42,2.6c2.08,0,2.63-2,2.63-4.19s-.58-3.92-2.47-3.92A2.34,2.34,0,0,0,22.12,108l-2.63-.11.91-9.64h8.87v2.36H22.61L22,105.4l.06,0A4,4,0,0,1,25.16,104C29,104,30,107.27,30,110.1c0,3.7-1.69,6.51-5.67,6.51-3.3,0-5.15-1.69-5.15-4.94Z" fill="#3b4351"/><path d="M37,97.83c3.54,0,5.51,2.21,5.51,9.39s-2,9.39-5.51,9.39-5.51-2.22-5.51-9.39S33.51,97.83,37,97.83Zm0,16.7c2,0,2.55-2,2.55-7.31S39,99.91,37,99.91s-2.55,2-2.55,7.31S35,114.53,37,114.53Z" fill="#3b4351"/><path d="M49.52,97.83c3.54,0,5.51,2.21,5.51,9.39s-2,9.39-5.51,9.39S44,114.39,44,107.22,46,97.83,49.52,97.83Zm0,16.7c2,0,2.55-2,2.55-7.31s-.55-7.31-2.55-7.31-2.55,2-2.55,7.31S47.52,114.53,49.52,114.53Z" fill="#3b4351"/></g></g><g id="Text"><g id="Iranians"><path d="M804.5,91.73h5c5.49,0,6.17,3.57,6.17,8.74s-.68,8.75-6.17,8.75h-5Zm2.8,15.39h2.3c2.3,0,3.26-1.52,3.26-6.65,0-4.92-.83-6.64-3.26-6.64h-2.3Z" fill="#3b4351"/><path d="M826.6,106.48c0,.49.3.93.69.93a1,1,0,0,0,.44-.07v1.71a2.83,2.83,0,0,1-1.3.32c-1.17,0-2.15-.47-2.23-1.74h-.05a3.4,3.4,0,0,1-3.28,1.94c-2.13,0-3.43-1.15-3.43-3.7,0-2.94,1.3-3.56,3.06-4.15l2.06-.56c1-.27,1.54-.54,1.54-1.69s-.41-2-1.81-2c-1.76,0-2,1.25-2,2.52h-2.5c0-2.81,1.15-4.33,4.63-4.33,2.33,0,4.19.9,4.19,3.23Zm-2.5-4.22a20,20,0,0,1-2.94,1.23,2.16,2.16,0,0,0-1.07,2.13c0,1.1.53,2,1.64,2,1.59,0,2.37-1.18,2.37-3.14Z" fill="#3b4351"/><path d="M829.3,96h2.64V98.1h0a3.26,3.26,0,0,1,3.07-2.4,1.53,1.53,0,0,1,.63.09v2.7a3.73,3.73,0,0,0-1.1-.15c-1.2,0-2.65.54-2.65,3v7.89H829.3Z" fill="#3b4351"/><path d="M837.14,91.53h2.64v2.65h-2.64Zm0,4.51h2.64v13.18h-2.64Z" fill="#3b4351"/><path d="M849.19,107.68h-.07a3.77,3.77,0,0,1-3.38,1.89c-2,0-3.29-.91-3.29-4.32V96h2.65v9.46c0,1.47.64,2,1.79,2a2.06,2.06,0,0,0,2.15-2.21V96h2.65v13.18h-2.5Z" fill="#3b4351"/><path d="M859.92,99.89v-.35c0-1.05-.37-2-1.74-2-1,0-1.89.47-1.89,1.72,0,1,.47,1.44,1.87,1.93l1.69.59c2,.66,2.87,1.71,2.87,3.8,0,2.82-2.09,4-4.73,4-3.34,0-4.34-1.55-4.34-4.1V105H856v.42c0,1.54.52,2.35,2.06,2.35s2.16-.73,2.16-1.93a1.91,1.91,0,0,0-1.45-1.94l-2.16-.76c-2-.66-2.81-1.69-2.81-3.8,0-2.47,1.76-3.62,4.5-3.62,3.36,0,4.12,2,4.12,3.6v.59Z" fill="#3b4351"/><path d="M1096.55,91.71h5.54c3.36,0,4.83,2.11,4.83,5.1s-1.86,5.17-5.12,5.17h-2.45v7.23h-2.8Zm2.8,8.17h2c1.49,0,2.79-.79,2.79-3,0-1.89-.76-3-3-3h-1.78Z" fill="#3b4351"/><path d="M1110.91,103v.76c0,1.77.22,4,2.2,4s2.11-2.13,2.11-2.94h2.5c0,3-1.76,4.76-4.63,4.76-2.16,0-4.83-.64-4.83-6.74,0-3.46.76-7.13,4.88-7.13,3.67,0,4.66,2.23,4.66,5.88V103Zm4.24-1.81v-.71c0-1.67-.54-2.94-2-2.94-1.66,0-2.2,1.67-2.2,3.38v.27Z" fill="#3b4351"/><path d="M1120,96h2.65v2.06h.05a3.26,3.26,0,0,1,3.06-2.4,1.61,1.61,0,0,1,.64.09v2.7a3.84,3.84,0,0,0-1.1-.15c-1.2,0-2.65.54-2.65,3v7.89H1120Z" fill="#3b4351"/><path d="M1133.38,99.88v-.35c0-1-.37-2-1.74-2-1.06,0-1.89.46-1.89,1.71,0,1.06.47,1.45,1.86,1.94l1.69.59c2,.66,2.87,1.71,2.87,3.8,0,2.81-2.08,4-4.73,4-3.33,0-4.34-1.55-4.34-4.1V105h2.36v.42c0,1.54.51,2.35,2,2.35s2.16-.73,2.16-1.93a1.91,1.91,0,0,0-1.45-1.94l-2.15-.76c-2-.66-2.82-1.69-2.82-3.8,0-2.47,1.76-3.62,4.51-3.62,3.36,0,4.12,2,4.12,3.6v.59Z" fill="#3b4351"/><path d="M1138.25,91.52h2.65v2.65h-2.65Zm0,4.51h2.65v13.18h-2.65Z" fill="#3b4351"/><path d="M1152.22,106.47c0,.49.29.93.68.93a1.14,1.14,0,0,0,.44-.07V109a2.78,2.78,0,0,1-1.29.32c-1.18,0-2.16-.47-2.24-1.74h0a3.41,3.41,0,0,1-3.29,1.94c-2.13,0-3.43-1.16-3.43-3.71,0-2.94,1.3-3.55,3.06-4.14l2.06-.56c1-.27,1.55-.54,1.55-1.69s-.42-2-1.82-2c-1.76,0-2,1.25-2,2.52h-2.5c0-2.82,1.16-4.33,4.64-4.33,2.32,0,4.19.9,4.19,3.23Zm-2.5-4.22a21,21,0,0,1-2.94,1.23,2.17,2.17,0,0,0-1.08,2.13c0,1.1.54,2,1.64,2,1.59,0,2.38-1.17,2.38-3.13Z" fill="#3b4351"/><path d="M1154.91,96h2.5v1.54h.07a3.78,3.78,0,0,1,3.38-1.88c2,0,3.29.9,3.29,3.57v9.95h-2.65v-9c0-1.76-.46-2.38-1.84-2.38-1.07,0-2.1.81-2.1,2.58v8.84h-2.65Z" fill="#3b4351"/><path d="M1172.74,91.71h9.46v2.36h-6.66v4.85h6.27v2.35h-6.27v5.59h6.86v2.35h-9.66Z" fill="#3b4351"/><path d="M1184.48,96h2.5v1.54h.07a3.72,3.72,0,0,1,3.17-1.88,2.86,2.86,0,0,1,3.06,2,3.6,3.6,0,0,1,3.33-2c1.86,0,3.21,1,3.21,3.5v10h-2.65v-9c0-1.74-.51-2.38-1.59-2.38s-2.11.84-2.11,2.58v8.84h-2.64v-9c0-1.74-.52-2.38-1.62-2.38s-2.08.86-2.08,2.58v8.84h-2.65Z" fill="#3b4351"/><path d="M1208.17,109.56a3,3,0,0,1-3-1.89h0v5.86h-2.64V96h2.5v1.62h0a3.1,3.1,0,0,1,3-2c3,0,4.24,2.57,4.24,7.1C1212.24,108.33,1210,109.56,1208.17,109.56Zm-1-11.77c-1.82,0-2.23,1.84-2.23,4.68,0,3.16.39,5,2.25,5,1.5,0,2.21-1.13,2.21-4.78C1209.45,99.68,1209.08,97.79,1207.22,97.79Z" fill="#3b4351"/><path d="M1214.39,91.52H1217v2.65h-2.65Zm0,4.51H1217v13.18h-2.65Z" fill="#3b4351"/><path d="M1219.71,96h2.65v2.06h.05a3.24,3.24,0,0,1,3.06-2.4,1.61,1.61,0,0,1,.64.09v2.7a3.87,3.87,0,0,0-1.11-.15c-1.2,0-2.64.54-2.64,3v7.89h-2.65Z" fill="#3b4351"/><path d="M1229.56,103v.76c0,1.77.22,4,2.21,4s2.1-2.13,2.1-2.94h2.5c0,3-1.76,4.76-4.63,4.76-2.16,0-4.83-.64-4.83-6.74,0-3.46.76-7.13,4.88-7.13,3.68,0,4.66,2.23,4.66,5.88V103Zm4.24-1.81v-.71c0-1.67-.54-2.94-2-2.94-1.67,0-2.21,1.67-2.21,3.38v.27Z" fill="#3b4351"/></g></g></svg>