<svg xmlns="http://www.w3.org/2000/svg" viewBox="0 0 1847.91 113"><title>bc0550text</title><g id="YEARS"><g id="Right"><path d="M1794.19,99.26H1797v.49a2.36,2.36,0,0,0,2.42,2.61c2.08,0,2.62-2,2.62-4.19s-.57-3.93-2.47-3.93a2.36,2.36,0,0,0-2.42,1.69l-2.62-.1.91-9.65h8.86v2.37h-6.65l-.6,4.83,0,.06a4.06,4.06,0,0,1,3.09-1.43c3.85,0,4.82,3.25,4.82,6.08,0,3.69-1.7,6.5-5.67,6.5-3.31,0-5.15-1.69-5.15-4.94Z" fill="#3b4351"/><path d="M1806.67,99.26h2.81v.49a2.35,2.35,0,0,0,2.41,2.61c2.09,0,2.63-2,2.63-4.19s-.57-3.93-2.47-3.93a2.36,2.36,0,0,0-2.42,1.69l-2.62-.1.91-9.65h8.86v2.37h-6.65l-.6,4.83,0,.06a4.06,4.06,0,0,1,3.09-1.43c3.85,0,4.81,3.25,4.81,6.08,0,3.69-1.69,6.5-5.66,6.5-3.31,0-5.15-1.69-5.15-4.94Z" fill="#3b4351"/><path d="M1824.56,85.82c3.53,0,5.51,2.21,5.51,9.39s-2,9.38-5.51,9.38-5.52-2.21-5.52-9.38S1821,85.82,1824.56,85.82Zm0,16.69c2,0,2.54-2,2.54-7.3s-.54-7.31-2.54-7.31-2.55,2-2.55,7.31S1822.55,102.51,1824.56,102.51Z" fill="#3b4351"/></g><g id="left"><path d="M19.15,101.17H22v.49a2.35,2.35,0,0,0,2.42,2.6c2.08,0,2.63-2,2.63-4.18s-.58-3.93-2.47-3.93a2.35,2.35,0,0,0-2.42,1.69l-2.63-.1.91-9.65h8.87v2.37H22.61L22,95.29l.06,0a4,4,0,0,1,3.09-1.43C29,93.91,30,97.16,30,100c0,3.69-1.69,6.5-5.67,6.5-3.3,0-5.15-1.69-5.15-4.94Z" fill="#3b4351"/><path d="M31.63,101.17h2.81v.49a2.35,2.35,0,0,0,2.42,2.6c2.08,0,2.63-2,2.63-4.18s-.58-3.93-2.47-3.93a2.35,2.35,0,0,0-2.42,1.69L32,97.74l.91-9.65h8.87v2.37H35.09l-.6,4.83.06,0a4,4,0,0,1,3.09-1.43c3.85,0,4.81,3.25,4.81,6.09,0,3.69-1.69,6.5-5.67,6.5-3.3,0-5.15-1.69-5.15-4.94Z" fill="#3b4351"/><path d="M49.52,87.73c3.54,0,5.51,2.21,5.51,9.38s-2,9.39-5.51,9.39S44,104.29,44,97.11,46,87.73,49.52,87.73Zm0,16.69c2,0,2.55-2,2.55-7.31s-.55-7.3-2.55-7.3-2.55,2-2.55,7.3S47.52,104.42,49.52,104.42Z" fill="#3b4351"/></g></g><g id="Nation_OUtlines" data-name="Nation OUtlines"><polygon id="Romans" points="854.62 4719.83 829.93 4606.83 711.95 4497.83 764.62 4383.83 729.95 4268.83 845.28 4157.83 1002.62 4045.83 1065.29 3931.83 1021.28 3820.83 995.34 3703.83 815.28 3595.83 703.28 3484.83 687.28 3369.83 737.95 3255.83 780.62 3143.83 712.62 3032.83 645.95 2918.83 550.62 2805.83 491.95 2696 453.95 2583 455.29 2471 435.95 2356 470.62 2248 322.62 2248 416.12 2135 480.12 2025 410.62 1913 316.95 1799 248.28 1684 210.28 1573 175.95 1462 159.62 1346 91.28 1233 83.12 1128 117.62 1014 151.37 900 129.62 790 109.62 675 99.62 563 73.12 453 75.42 -445 85.95 -335 95.28 -223 111.95 -111 116.62 0 137.95 113 149.95 229 169.95 341 205.28 453 231.95 563 287.74 675 467.73 790 683.72 900 998.71 1014 1118.7 1128 1131.14 1233 1195.2 1346 1182.62 1462 1245.62 1573 1220.62 1684 1122.62 1799 981.62 1913 880.12 2025 717.95 2135 593.62 2248 616.62 2356 717.28 2471 839.28 2585.84 863.28 2696 915.28 2805.83 810.62 2918.83 885.95 3032.83 1037.95 3143.83 1125.95 3255.83 1253.95 3369.83 1213.95 3484.83 1202.62 3595.83 1169.95 3703.83 1161.29 3820.83 1218.62 3931.83 1131.95 4045.83 936.62 4157.83 798.62 4268.83 819.28 4383.83 759.95 4497.83 849.28 4606.83 854.62 4719.83" fill="none" stroke="#3b4351" stroke-miterlimit="10"/><polygon id="Iranians" points="1263.29 -780.83 1235.95 -895 1211.95 -1009.5 1241.29 -1119.5 1280.62 -1232 1217.95 -1346.83 1163.29 -1456.16 1140.62 -1569.5 1175.95 -1680 1153.29 -1794.83 1137.95 -1908.16 1188.62 -2019.5 1153.95 -2132.16 1161.95 -2245 1156.67 -2360.27 1152.84 -2477.5 1131.29 -2584 1198.62 -2694.5 1275.29 -2806.5 1277.29 -2920.16 1268.62 -3029.83 1283.88 -3141.83 1411.11 -3141.83 1445.69 -3030.27 1480.18 -2919.6 1462.18 -2806.5 1438.19 -2694.5 1387.19 -2584 1387.19 -2472 1420.19 -2357.07 1429.19 -2245 1400.69 -2132.08 1417.19 -2019 1343.69 -1908 1325.69 -1794 1345.19 -1680 1313.69 -1568 1298.69 -1456 1310.69 -1346 1348.19 -1232 1313.69 -1119 1285.19 -1008 1294.19 -895 1372.19 -780.83 1373.74 -672.27 1375.34 -560.27 1376.98 -445 1335.62 -335 1348.62 -223 1391.1 -111 1462.62 0 1440.62 112.73 1447.62 229 1472.62 341 1505.62 452.73 1513.62 562.73 1437.62 674.73 1391.82 789.73 1219.62 675 1086.62 563 890.71 452.73 788.62 341 767.62 229 866.62 113 1041.62 -0.27 1176.62 -111.27 1205.62 -223.27 1242.62 -335.27 1294.62 -445 1322.62 -557.83 1240.62 -672 1263.29 -780.83" fill="none" stroke="#3b4351" stroke-miterlimit="10"/><polygon id="Indians" points="1372.19 -780.83 1294.19 -895 1285.19 -1008 1313.69 -1119 1348.19 -1232 1310.69 -1346 1298.69 -1456 1313.69 -1568 1345.19 -1680 1325.69 -1794 1343.69 -1908 1417.19 -2019 1400.69 -2132.08 1429.19 -2245 1419.27 -2360.27 1387.19 -2472 1387.19 -2584 1438.19 -2694.5 1462.18 -2806.5 1480.18 -2919.54 1445.82 -3029.83 1411.11 -3141.83 1545.86 -3141.83 1580.1 -3029.83 1593.12 -2919.6 1552.12 -2806.5 1514.62 -2694.5 1514.12 -2584.33 1553.12 -2472.27 1548.12 -2360 1519.62 -2245 1534.12 -2131.33 1575.12 -2019 1559.62 -1908 1564.12 -1794.27 1534.62 -1680 1486.12 -1568 1465.12 -1456 1471.12 -1346.83 1502.12 -1232.83 1508.12 -1119 1534.62 -1008 1542.77 -929.14 1555.62 -780.83 1554.62 -672 1567.12 -560 1542.12 -445.27 1498.12 -335 1490.62 -223 1513.12 -111 1568.62 0 1544.12 113 1530.62 228.73 1523.62 340.73 1532.62 453 1565.12 563 1543.62 675 1514.12 790 1490.12 899.73 1495.62 1014 1517.12 1127.67 1528.12 1233 1580.62 1345.67 1578.12 1461.67 1578.12 1572.17 1560.12 1683.73 1526.62 1799 1467.62 1913 1381.62 2024.73 1270.62 2135 1090.12 2247.73 860.62 2356 1302.12 2471 1377.03 2583 1550.62 2696 1519.62 2805.83 1476.12 2918.83 1516.13 3032.83 1534.62 3145.17 1552.65 3255.83 1585.62 3369.73 1620.12 3484.83 1650.12 3595.83 1630.62 3703.73 1622.45 3820.73 1565.62 3931.83 1402.62 4045.17 1173.62 4157.83 1148.62 4268.83 1334.62 4383.83 1283.62 4497.83 1344.62 4606.83 1544.62 4719.83 1602.62 4834.17 1627.62 4945.83 1674.62 5058.73 1627.62 5173.83 1634.62 5285.83 1686.62 5397.83 1701.62 5510.83 1620.12 5622.83 1606.12 5733.83 1606.12 5847.66 1552.62 5847.66 1549.52 5733.83 1569.62 5622.83 1683.62 5510.83 1667.62 5397.83 1607.62 5285.83 1596.62 5173.17 1617.62 5058.83 1584.62 4945.83 1562.62 4833.83 1507.62 4719.83 1304.62 4606.73 1225.62 4497.73 1236.97 4460.78 1264.87 4383.83 1082.62 4268.83 1084.2 4158.34 1323.62 4045.83 1500.47 3931.73 1573.62 3820.83 1600.62 3703.83 1604.62 3595.83 1569.62 3484.83 1514.62 3369.83 1447.62 3255.73 1418.62 3143.83 1404.62 3032.83 1367.62 2918.83 1397.62 2805.83 1418.62 2695.73 1339.62 2582.73 1246.62 2471 748.62 2356 753.62 2248 910.76 2135 1053.62 2025 1195.2 1913 1311.62 1798.17 1353.62 1684 1348.62 1573 1364.62 1461.17 1406.62 1346 1401.62 1233 1429.62 1128 1394.62 1013.73 1393.2 900 1391.82 789.73 1437.52 675 1513.62 562.73 1505.64 453 1472.62 341.17 1447.62 229 1440.63 113 1462.62 0 1391.1 -111 1348.62 -223 1332.62 -335 1376.98 -445 1375.34 -560.27 1373.74 -672.27 1372.19 -780.83" fill="none" stroke="#3b4351" stroke-miterlimit="10"/><polygon id="Huns" points="1555.62 -780.83 1545.73 -895 1533.62 -1008.33 1506.68 -1118.36 1502.16 -1232 1471.34 -1346 1465.12 -1456 1486.12 -1568 1534.62 -1680 1564.05 -1794 1559.62 -1908 1575.12 -2019 1534.24 -2131 1519.62 -2245 1548.12 -2360 1553.11 -2472 1514.47 -2584.27 1514.62 -2696.5 1552.12 -2806.5 1593.12 -2919.16 1580.1 -3029.83 1545.86 -3141.83 1633.99 -3141.83 1651.62 -3029.83 1667.62 -2919.16 1646.62 -2806.5 1620.62 -2694.5 1630.4 -2586.4 1650.62 -2472.33 1676.62 -2360 1700.12 -2245 1689.12 -2131 1714.62 -2019.33 1697.12 -1908.27 1645.62 -1794.27 1616.12 -1680 1586.62 -1568.27 1538.12 -1456.27 1509.12 -1346 1551.62 -1232 1585.12 -1119 1608.62 -1008.33 1609.69 -895.27 1610.76 -782.27 1613.62 -672.27 1625.12 -560.27 1599.12 -444.33 1557.59 -335 1545.65 -223 1558.62 -111 1584.62 -0.27 1571.12 113.17 1576.62 229 1567.62 341 1587.12 453 1621.12 563 1612.12 675 1556.12 790 1528.62 900 1529.62 1014 1553.62 1128 1616.07 1233 1609.25 1346 1592.66 1462 1611.01 1572.73 1612.12 1684 1598.04 1799 1564.12 1913 1534.29 2025 1602.12 2134.73 1653.62 2248 1673.62 2356 1666.12 2471 1668.12 2582.67 1625.62 2695.67 1542.12 2805.83 1476.12 2918.83 1519.62 2805.83 1550.62 2696 1376.62 2582.73 1302.12 2471 860.62 2356 1090.12 2247.73 1270.62 2135 1381.62 2024.73 1467.62 1913 1526.62 1799 1560.12 1683.73 1578.12 1572.17 1578.12 1461.67 1580.62 1345.67 1528.12 1233 1517.12 1127.67 1495.62 1014 1490.12 899.73 1514.12 790 1543.62 675 1565.12 563 1532.62 453 1523.62 340.73 1530.62 228.73 1544.12 113 1568.62 0 1513.12 -111 1490.62 -223 1498.12 -335 1542.12 -445.27 1567.12 -560 1554.62 -672 1555.62 -780.83" fill="none" stroke="#3b4351" stroke-miterlimit="10"/><polygon id="Greeks" points="1131.14 1233 1118.7 1128 998.71 1014 683.72 900 467.73 790 287.74 675 231.95 563 205.28 453 169.95 341 149.95 229 137.95 113 116.62 0 111.95 -111 95.28 -223 85.95 -335 75.42 -445 75.42 -618.33 75.42 -1908 142.25 -1794 145.25 -1680 155.75 -1568 172.25 -1456 202.25 -1346 223.25 -1232 251.62 -1119 250.62 -1008 221.95 -894.16 228.6 -782.27 199.95 -672.16 217.95 -560.16 237.43 -445 262.62 -335 259.95 -223 319.29 -111 349.95 0 401.29 113 527.28 229 645.95 341 761.95 453 965.29 563 965.95 675 897.95 789.17 910.76 899.73 1099.37 1014 1168.66 1128.09 1131.14 1233" fill="none" stroke="#3b4351" stroke-miterlimit="10"/><polygon id="Egyptians" points="1195.2 1343.31 1131.14 1233 1168.66 1128.09 1099.2 1013.73 910.76 899.73 897.95 789.17 965.95 675 965.28 562.5 761.95 453 645.95 341 527.28 229 401.29 113 349.95 0 319.29 -111 259.95 -223 262.62 -335 238.62 -445 217.95 -560 199.95 -672 228.62 -782 221.62 -895 250.62 -1008 251.62 -1119 223.25 -1232 271.57 -1346 265.25 -1456 305.74 -1568 341.74 -1680 376.24 -1794 440.74 -1908 467.73 -2018.09 443.74 -2131 381.96 -2245 242.75 -2360 298.62 -2472 424.24 -2584 460.24 -2694.5 397.24 -2806.5 319.24 -2919.16 319.24 -3029.83 298.62 -3141.83 1103.77 -3141.83 1042.62 -3029.83 982.62 -2919.16 940.62 -2806.5 786.62 -2694.5 663.62 -2584 633.62 -2472 662.62 -2360 656.62 -2245.08 733.62 -2131.27 800.62 -2019.83 770.62 -1908 750.62 -1794 785.62 -1680 835.62 -1568 742.62 -1456 658.62 -1346 439.62 -1232 400.62 -1119 361.62 -1008 302.62 -895 310.62 -782 282.62 -672 271.95 -560 305.95 -335 323.95 -223.5 432.62 -111 476.62 -0.83 451.95 113 555.95 229 667.28 341 813.28 453 968.62 563 995.95 675 968.62 789.84 940.62 898.5 1130.91 1013.73 1189.62 1128.67 1157.7 1233 1195.2 1343.31" fill="none" stroke="#3b4351" stroke-miterlimit="10"/><polygon id="Chinese" points="1610.76 -782.27 1609.69 -895.27 1608.62 -1008.33 1585.12 -1119 1551.62 -1232 1509.12 -1346 1538.12 -1456.27 1586.62 -1568.27 1616.12 -1680 1645.62 -1794.27 1697.12 -1908.27 1714.62 -2019.33 1689.12 -2131 1700.12 -2245 1676.62 -2360 1650.62 -2472.33 1630.62 -2584 1620.62 -2694.5 1646.62 -2806.5 1667.62 -2919.16 1651.62 -3029.83 1633.99 -3141.83 1768.79 -3141.83 1768.79 5058.83 1768.79 5173.73 1766.12 5285.83 1757.62 5397.83 1736.12 5510.73 1676.12 5622.73 1661.12 5733.83 1663.62 5847.66 1606.12 5847.66 1606.12 5733.73 1620.12 5622.83 1701.62 5510.83 1696.12 5397.67 1654.12 5285.83 1681.62 5173.83 1739.62 5058.73 1748.62 4945.67 1744.12 4833.67 1685.62 4719.83 1615.12 4609.17 1636.12 4497.83 1738.62 4383.83 1761.12 4268.83 1758.62 4157.83 1732.12 4045.83 1695.62 3931.83 1667.62 3820.83 1651.12 3703.83 1650.12 3595.83 1620.12 3484.83 1585.62 3369.73 1552.62 3255.73 1535.12 3143.83 1516.12 3032.73 1476.12 2918.83 1542.12 2805.83 1625.62 2695.67 1668.12 2582.67 1666.12 2471 1673.62 2356 1653.62 2248 1602.12 2134.73 1534.12 2024.73 1564.12 1913 1598.12 1798.73 1612.12 1684 1611.01 1572.73 1592.62 1461.73 1609.25 1346 1616.07 1233 1553.62 1128 1529.62 1014 1528.62 899.73 1555.62 790 1612.12 675 1621.12 563 1587.12 453 1567.62 341 1576.62 229 1571.12 113 1584.62 -0.27 1558.62 -111 1545.62 -223.27 1557.62 -335.27 1599.62 -445 1625.12 -560.27 1613.62 -672.27 1610.76 -782.27" fill="none" stroke="#3b4351" stroke-miterlimit="10"/><polygon id="Amorites" points="1263.29 -780.83 1240.62 -672 1322.62 -560 1294.62 -445 1242.62 -335.27 1205.62 -223.27 1176.62 -111.27 1041.62 -0.27 866.62 113 767.62 229 788.62 341 890.71 452.73 762.62 340.73 716.62 228.73 709.62 113 755.62 0 1054.29 -111.27 1156.62 -223 1173.62 -336.83 1199.62 -446.83 1138.62 -560 910.76 -672 832.62 -782.27 949.95 -895 1040.62 -1008.27 1141.31 -1119 1225.29 -1232.16 1147.62 -1346 1085.29 -1456 1061.29 -1568.27 1028.62 -1680.27 971.95 -1794.16 961.95 -1908.83 992.62 -2019 910.76 -2131.27 853.28 -2245 826.62 -2360 785.95 -2472 823.95 -2584 910.76 -2694.5 1027.29 -2806.5 1025.29 -2919.16 1091.29 -3029.83 1152.07 -3141.83 1283.88 -3141.83 1268.62 -3029.83 1277.29 -2920.16 1275.29 -2806.5 1198.62 -2694.5 1131.29 -2584 1153.95 -2472 1156.67 -2360.27 1161.95 -2245 1153.95 -2132.16 1188.62 -2019.5 1137.95 -1908.16 1153.29 -1794.83 1175.95 -1680 1140.62 -1569.5 1163.29 -1456.16 1217.95 -1346.83 1280.62 -1232 1241.29 -1119.5 1211.95 -1009.5 1235.95 -895 1263.29 -780.83" fill="none" stroke="#3b4351" stroke-miterlimit="10"/><polygon id="Assyrian_Kingdom" data-name="Assyrian Kingdom" points="631.95 -782.27 635.28 -895 679.9 -1008 701.28 -1119 799.28 -1232 980.62 -1346 1007.95 -1456 1020.62 -1568 998.62 -1680 971.95 -1794.16 1028.62 -1680.27 1061.29 -1568.27 1085.29 -1456 1147.62 -1346 1225.29 -1232.16 1141.31 -1119 1040.62 -1008.27 949.95 -895 832.62 -782.27 910.76 -672 1138.62 -560 1199.62 -446.83 1173.62 -336.83 1156.62 -223 1054.29 -111.27 755.62 0 709.62 113 716.62 228.73 658.28 113 654.62 0 630.95 -111 510.62 -223 518.62 -335 595.95 -445 638.62 -560 643.28 -672 631.95 -782.27" fill="none" stroke="#3b4351" stroke-miterlimit="10"/><polygon id="OPians" points="305.95 -335 289.61 -443.17 271.95 -560 282.62 -672 310.62 -782 302.62 -895 361.62 -1008 337.24 -895 347.74 -782.27 359.29 -560 383.29 -445 387.95 -335 375.82 -223 465.29 -111 476.62 -0.83 432.62 -111 323.95 -223.5 305.95 -335" fill="none" stroke="#3b4351" stroke-miterlimit="10"/><polygon id="Hebrews" points="635.28 -895 631.95 -782.27 643.28 -672 638.62 -560 595.95 -445 518.62 -335 510.62 -223 630.95 -111 654.62 0 658.28 113 716.62 228.73 647.18 113 644.62 0 617.95 -111 493.29 -223 500.03 -335 570.62 -445 613.28 -559 583.28 -672 569.28 -782 511.95 -895 573.95 -1008 630.62 -1119 697.58 -1232 921.28 -1346 989.95 -1456 1020.62 -1568 1007.95 -1456 980.62 -1346 799.28 -1232 701.28 -1119 679.9 -1008 635.28 -895" fill="none" stroke="#3b4351" stroke-miterlimit="10"/><polygon id="Lydians" points="611.95 113 624.62 229 667.28 341 555.95 229 451.95 113 476.62 -0.83 465.29 -111 375.82 -223 523.28 -111 608.62 0 611.95 113" fill="none" stroke="#3b4351" stroke-miterlimit="10"/><polygon points="1130.91 1013.73 940.62 898.5 968.62 789.84 995.95 675 968.62 563 813.28 453 667.28 341 624.62 229 611.95 113 608.62 0 523.28 -111 375.82 -223 387.95 -335 383.29 -445 359.29 -560 340.62 -670.84 347.74 -782.27 394.24 -895 481.23 -1008 566.62 -1119 623.95 -1232 857.28 -1346 954.62 -1458.16 975.28 -1568.16 969.28 -1680 971.95 -1794.16 998.62 -1680 1020.62 -1568 989.95 -1456 921.28 -1346 697.58 -1232 630.62 -1119 573.95 -1008 511.95 -895 538.62 -782 509.95 -672 479.29 -560 428.62 -445 439.95 -335 493.29 -223 617.95 -111 644.62 0 647.18 113 716.62 228.73 762.62 340.73 890.71 452.73 1086.62 563 1219.62 675 1225.12 790 1186.62 900 1130.91 1013.73" fill="none" stroke="#3b4351" stroke-miterlimit="10"/></g><g id="Text"><g id="Indians-2" data-name="Indians"><path d="M1466.85,56.5h5.66c2.62,0,4.7,1.17,4.7,4.23,0,2.11-.85,3.44-2.57,4v0c1.91.35,3.14,1.5,3.14,4.46s-2.11,4.78-5.39,4.78h-5.54Zm5,7.37a2.45,2.45,0,0,0,2.57-2.77c0-2.08-1.25-2.5-2.82-2.5h-2v5.27Zm.56,8c1.67,0,2.57-1,2.57-3.08a2.65,2.65,0,0,0-2.74-3h-2.6v6Z" fill="#3b4351"/><path d="M1486.57,72.45h-.07a3.79,3.79,0,0,1-3.38,1.89c-2,0-3.29-.91-3.29-4.32V60.81h2.65v9.46c0,1.47.64,2,1.79,2a2.06,2.06,0,0,0,2.16-2.21V60.81h2.64V74h-2.5Z" fill="#3b4351"/><path d="M1498.36,72.37h0a2.82,2.82,0,0,1-2.89,2c-3.07,0-4.32-2.6-4.32-7.11,0-5.86,2.06-6.76,4.07-6.76a3,3,0,0,1,3,1.88h0V56.5h2.65V74h-2.5Zm-2.4-9.8c-1.5,0-2.06,1.23-2.06,4.78,0,3,.36,4.88,2.23,4.88s2.23-1.84,2.23-4.68C1498.36,64.39,1498,62.57,1496,62.57Z" fill="#3b4351"/><path d="M1510.14,72.37h-.05a2.82,2.82,0,0,1-2.89,2c-3.06,0-4.31-2.6-4.31-7.11,0-5.86,2.06-6.76,4.07-6.76a3,3,0,0,1,3,1.88h0V56.5h2.65V74h-2.5Zm-2.4-9.8c-1.5,0-2.06,1.23-2.06,4.78,0,3,.37,4.88,2.23,4.88s2.23-1.84,2.23-4.68C1510.14,64.39,1509.8,62.57,1507.74,62.57Z" fill="#3b4351"/><path d="M1515.19,56.5h2.64v5.73l.08.05a3.76,3.76,0,0,1,3.23-1.81c2,0,3.28.9,3.28,3.57V74h-2.64V65c0-1.74-.49-2.38-1.84-2.38-1.08,0-2.11.84-2.11,2.58V74h-2.64Z" fill="#3b4351"/><path d="M1535.62,71.25c0,.49.29.93.69.93a1.22,1.22,0,0,0,.44-.07v1.71a2.86,2.86,0,0,1-1.3.32c-1.18,0-2.16-.47-2.23-1.74h0a3.41,3.41,0,0,1-3.28,1.94c-2.14,0-3.43-1.16-3.43-3.7,0-3,1.29-3.56,3.06-4.15l2.06-.56c1-.27,1.54-.54,1.54-1.69s-.42-2-1.81-2c-1.77,0-2,1.25-2,2.52h-2.5c0-2.82,1.15-4.33,4.63-4.33,2.33,0,4.19.9,4.19,3.23Zm-2.5-4.22a20,20,0,0,1-2.94,1.23,2.17,2.17,0,0,0-1.08,2.13c0,1.1.54,2,1.64,2,1.6,0,2.38-1.17,2.38-3.13Z" fill="#3b4351"/></g><g id="Greeks-2" data-name="Greeks"><path d="M374.85,11.9h0A1.61,1.61,0,0,1,373.17,13c-1.75,0-2.47-1.48-2.47-4.06,0-3.35,1.18-3.87,2.33-3.87a1.75,1.75,0,0,1,1.71,1.08h0V2.82h1.51v10h-1.43Zm-1.37-5.6c-.86,0-1.18.7-1.18,2.73,0,1.71.21,2.79,1.27,2.79s1.28-1.05,1.28-2.68C374.85,7.33,374.65,6.3,373.48,6.3Z" fill="#3b4351"/><path d="M379,9.25v.44c0,1,.13,2.29,1.26,2.29s1.21-1.21,1.21-1.68h1.43A2.48,2.48,0,0,1,380.28,13c-1.23,0-2.76-.36-2.76-3.85,0-2,.43-4.08,2.79-4.08,2.1,0,2.66,1.28,2.66,3.37v.79Zm2.43-1V7.81c0-.95-.31-1.68-1.17-1.68S379,7.08,379,8.06v.16Z" fill="#3b4351"/><path d="M384.67,6.41h-1.05V5.29h1.05v-.7c0-1.42.69-1.88,1.92-1.88.33,0,.61,0,.83,0V3.92H387c-.56,0-.81.21-.81.71v.66h1.23V6.41h-1.23v6.42h-1.52Z" fill="#3b4351"/><path d="M389.41,9.25v.44c0,1,.12,2.29,1.26,2.29s1.2-1.21,1.2-1.68h1.43A2.48,2.48,0,0,1,390.65,13c-1.23,0-2.76-.36-2.76-3.85,0-2,.44-4.08,2.79-4.08,2.1,0,2.66,1.28,2.66,3.37v.79Zm2.42-1V7.81c0-.95-.31-1.68-1.16-1.68s-1.26,1-1.26,1.93v.16Z" fill="#3b4351"/><path d="M399.53,11.26c0,.28.17.53.39.53a.78.78,0,0,0,.26,0v1a1.63,1.63,0,0,1-.75.18c-.67,0-1.23-.27-1.27-1h0A1.94,1.94,0,0,1,396.25,13c-1.21,0-2-.66-2-2.11A2.08,2.08,0,0,1,396,8.54l1.18-.32c.55-.16.88-.31.88-1s-.24-1.12-1-1.12c-1,0-1.15.71-1.15,1.44h-1.43c0-1.61.66-2.48,2.65-2.48,1.33,0,2.39.52,2.39,1.85ZM398.1,8.85a12.39,12.39,0,0,1-1.68.7,1.24,1.24,0,0,0-.61,1.22c0,.63.3,1.13.93,1.13.91,0,1.36-.67,1.36-1.79Z" fill="#3b4351"/><path d="M400.4,5.29h1V3.15H403V5.29h1.23V6.41H403v4.5c0,.6.16.79.68.79a2.75,2.75,0,0,0,.55,0v1.12a4.64,4.64,0,0,1-1.22.13c-1,0-1.53-.29-1.53-1.82V6.41h-1Z" fill="#3b4351"/><path d="M408.21,7.49v-.2c0-.6-.21-1.16-1-1.16-.61,0-1.08.27-1.08,1s.26.83,1.06,1.11l1,.33a2,2,0,0,1,1.64,2.17c0,1.61-1.19,2.3-2.71,2.3-1.9,0-2.48-.88-2.48-2.34V10.4H406v.24c0,.88.29,1.34,1.18,1.34s1.23-.42,1.23-1.1a1.09,1.09,0,0,0-.83-1.11l-1.23-.43a2,2,0,0,1-1.61-2.17c0-1.42,1-2.08,2.58-2.08,1.91,0,2.35,1.12,2.35,2.06v.34Z" fill="#3b4351"/><path d="M415.29,9.81v.49c0,.82.17,1.52,1.07,1.52,1.06,0,1.06-1,1.06-2v-7H419v7.25c0,2.21-1.09,2.95-2.69,2.95-2.06,0-2.51-1.26-2.55-2.56V9.81Z" fill="#3b4351"/><path d="M424.35,11.94h0A2.15,2.15,0,0,1,422.38,13c-1.12,0-1.88-.52-1.88-2.46V5.29H422V10.7c0,.84.37,1.12,1,1.12a1.18,1.18,0,0,0,1.23-1.26V5.29h1.51v7.54h-1.43Z" fill="#3b4351"/><path d="M431.09,11.9h0A1.61,1.61,0,0,1,429.41,13c-1.76,0-2.47-1.48-2.47-4.06,0-3.35,1.18-3.87,2.33-3.87A1.74,1.74,0,0,1,431,6.17h0V2.82h1.52v10h-1.43Zm-1.38-5.6c-.85,0-1.17.7-1.17,2.73,0,1.71.21,2.79,1.27,2.79s1.28-1.05,1.28-2.68C431.09,7.33,430.89,6.3,429.71,6.3Z" fill="#3b4351"/><path d="M438.91,11.26c0,.28.17.53.4.53a.76.76,0,0,0,.25,0v1a1.63,1.63,0,0,1-.75.18c-.67,0-1.23-.27-1.27-1h0A1.93,1.93,0,0,1,435.64,13c-1.22,0-2-.66-2-2.11a2.08,2.08,0,0,1,1.75-2.37l1.18-.32c.55-.16.88-.31.88-1s-.23-1.12-1-1.12c-1,0-1.15.71-1.15,1.44h-1.43c0-1.61.66-2.48,2.65-2.48,1.33,0,2.39.52,2.39,1.85Zm-1.43-2.41a11.88,11.88,0,0,1-1.68.7,1.24,1.24,0,0,0-.61,1.22c0,.63.31,1.13.94,1.13.91,0,1.35-.67,1.35-1.79Z" fill="#3b4351"/><path d="M440.45,2.82H442V6.1l0,0a2.16,2.16,0,0,1,1.85-1c1.15,0,1.88.52,1.88,2.05v5.69h-1.51V7.66c0-1-.28-1.36-1.05-1.36S442,6.77,442,7.77v5.06h-1.51Z" fill="#3b4351"/><path d="M455.49,11.26c0,.28.17.53.39.53a.72.72,0,0,0,.25,0v1a1.58,1.58,0,0,1-.74.18c-.67,0-1.23-.27-1.27-1h0A1.94,1.94,0,0,1,452.21,13c-1.22,0-2-.66-2-2.11A2.07,2.07,0,0,1,452,8.54l1.18-.32c.54-.16.88-.31.88-1s-.24-1.12-1-1.12c-1,0-1.15.71-1.15,1.44h-1.42c0-1.61.65-2.48,2.64-2.48,1.33,0,2.4.52,2.4,1.85Zm-1.43-2.41a12.39,12.39,0,0,1-1.68.7,1.23,1.23,0,0,0-.62,1.22c0,.63.31,1.13.94,1.13.91,0,1.36-.67,1.36-1.79Z" fill="#3b4351"/><path d="M456.35,5.29h1V3.15h1.51V5.29h1.24V6.41H458.9v4.5c0,.6.17.79.69.79a2.81,2.81,0,0,0,.55,0v1.12a4.69,4.69,0,0,1-1.22.13c-1,0-1.53-.29-1.53-1.82V6.41h-1Z" fill="#3b4351"/><path d="M377.6,19.82h2.5l1.76,7.41h0l1.74-7.41h2.43v10h-1.51V21.5h0l-2,8.33h-1.35l-2-8.33h0v8.33H377.6Z" fill="#3b4351"/><path d="M388.92,26.25v.44c0,1,.12,2.29,1.26,2.29s1.2-1.21,1.2-1.68h1.43A2.48,2.48,0,0,1,390.16,30c-1.23,0-2.76-.36-2.76-3.85,0-2,.44-4.08,2.79-4.08,2.1,0,2.66,1.28,2.66,3.37v.79Zm2.42-1v-.41c0-.95-.31-1.68-1.16-1.68s-1.26.95-1.26,1.93v.16Z" fill="#3b4351"/><path d="M395.61,30.47a1,1,0,0,0,1.09.9A1.26,1.26,0,0,0,398,30V28.73h0a1.82,1.82,0,0,1-1.71,1c-1.75,0-2.26-1.72-2.26-3.8,0-1.65.26-3.88,2.4-3.88A1.67,1.67,0,0,1,398,23.21h0v-.92h1.43v7.17c0,1.84-.79,2.94-2.82,2.94-2.24,0-2.49-1.31-2.49-1.93Zm1.06-1.91c1.18,0,1.31-1.48,1.31-2.67s-.16-2.59-1.21-2.59-1.27,1.12-1.27,2.52S395.55,28.56,396.67,28.56Z" fill="#3b4351"/><path d="M400.9,19.71h1.51v1.51H400.9Zm0,2.58h1.51v7.54H400.9Z" fill="#3b4351"/><path d="M407.79,28.9h0A1.61,1.61,0,0,1,406.11,30c-1.75,0-2.47-1.48-2.47-4.06,0-3.35,1.18-3.87,2.33-3.87a1.75,1.75,0,0,1,1.71,1.08h0V19.82h1.52v10h-1.43Zm-1.37-5.6c-.86,0-1.18.7-1.18,2.73,0,1.71.21,2.79,1.27,2.79s1.28-1.05,1.28-2.68C407.79,24.33,407.59,23.3,406.42,23.3Z" fill="#3b4351"/><path d="M414.52,28.9h0A1.6,1.6,0,0,1,412.84,30c-1.75,0-2.46-1.48-2.46-4.06,0-3.35,1.17-3.87,2.32-3.87a1.74,1.74,0,0,1,1.71,1.08h0V19.82H416v10h-1.43Zm-1.37-5.6c-.85,0-1.18.7-1.18,2.73,0,1.71.21,2.79,1.28,2.79s1.27-1.05,1.27-2.68C414.52,24.33,414.33,23.3,413.15,23.3Z" fill="#3b4351"/><path d="M417.11,26.06c0-2.36.62-4,2.8-4s2.82,1.61,2.82,4-.73,4-2.82,4S417.11,28.41,417.11,26.06Zm2.8,2.84c1.11,0,1.3-.92,1.3-2.84,0-1.67-.19-2.85-1.3-2.85s-1.29,1.18-1.29,2.85C418.62,28,418.83,28.9,419.91,28.9Z" fill="#3b4351"/><path d="M427.25,19.82h1.51v3.35h0a1.74,1.74,0,0,1,1.71-1.08c1.14,0,2.32.52,2.32,3.87,0,2.59-.71,4.06-2.46,4.06a1.62,1.62,0,0,1-1.66-1.12h0v.93h-1.43Zm2.7,9c1.06,0,1.27-1.08,1.27-2.79,0-2-.32-2.73-1.17-2.73-1.18,0-1.37,1-1.37,2.84C428.68,27.77,428.91,28.82,430,28.82Z" fill="#3b4351"/><path d="M437.83,28.94h0A2.15,2.15,0,0,1,435.86,30c-1.12,0-1.88-.52-1.88-2.46V22.29h1.51V27.7c0,.84.37,1.12,1,1.12a1.18,1.18,0,0,0,1.23-1.26V22.29h1.51v7.54h-1.43Z" fill="#3b4351"/><path d="M440,22.29h1V20.15h1.51v2.14h1.23v1.12h-1.23v4.5c0,.6.17.79.69.79a2.7,2.7,0,0,0,.54,0v1.12a4.56,4.56,0,0,1-1.21.13c-1,0-1.53-.29-1.53-1.82V23.41h-1Z" fill="#3b4351"/><path d="M448,19.71h1.51v1.51H448Zm0,2.58h1.51v7.54H448Z" fill="#3b4351"/><path d="M454.32,24.49v-.2c0-.6-.21-1.16-1-1.16-.6,0-1.08.27-1.08,1s.27.83,1.07,1.11l1,.33a2,2,0,0,1,1.64,2.17c0,1.61-1.19,2.3-2.7,2.3-1.91,0-2.48-.88-2.48-2.34V27.4h1.34v.24c0,.88.3,1.34,1.18,1.34s1.23-.42,1.23-1.1a1.09,1.09,0,0,0-.82-1.11l-1.24-.43a2,2,0,0,1-1.61-2.17c0-1.42,1-2.08,2.58-2.08,1.92,0,2.35,1.12,2.35,2.06v.34Z" fill="#3b4351"/><path d="M390.9,45.9h0A1.6,1.6,0,0,1,389.22,47c-1.75,0-2.46-1.48-2.46-4.06,0-3.35,1.17-3.87,2.32-3.87a1.74,1.74,0,0,1,1.71,1.08h0V36.82h1.51v10H390.9Zm-1.37-5.6c-.85,0-1.18.7-1.18,2.73,0,1.71.21,2.79,1.28,2.79s1.27-1,1.27-2.68C390.9,41.33,390.71,40.3,389.53,40.3Z" fill="#3b4351"/><path d="M395.09,43.25v.44c0,1,.12,2.29,1.26,2.29s1.2-1.21,1.2-1.68H399A2.48,2.48,0,0,1,396.33,47c-1.23,0-2.76-.36-2.76-3.85,0-2,.44-4.08,2.79-4.08,2.1,0,2.66,1.28,2.66,3.37v.79Zm2.42-1v-.41c0-1-.31-1.68-1.16-1.68s-1.26.95-1.26,1.93v.16Z" fill="#3b4351"/><path d="M400.73,40.41h-1.05V39.29h1.05v-.7c0-1.42.69-1.88,1.92-1.88.32,0,.6,0,.82,0v1.17h-.42c-.56,0-.81.21-.81.71v.66h1.23v1.12h-1.23v6.42h-1.51Z" fill="#3b4351"/><path d="M405.46,43.25v.44c0,1,.13,2.29,1.26,2.29s1.21-1.21,1.21-1.68h1.43A2.48,2.48,0,0,1,406.71,47c-1.23,0-2.76-.36-2.76-3.85,0-2,.43-4.08,2.79-4.08,2.1,0,2.66,1.28,2.66,3.37v.79Zm2.43-1v-.41c0-1-.31-1.68-1.17-1.68s-1.26.95-1.26,1.93v.16Z" fill="#3b4351"/><path d="M415.59,45.26c0,.28.16.53.39.53a.76.76,0,0,0,.25,0v1a1.58,1.58,0,0,1-.74.18c-.67,0-1.24-.27-1.28-1h0A1.93,1.93,0,0,1,412.31,47c-1.22,0-2-.66-2-2.11a2.07,2.07,0,0,1,1.75-2.37l1.17-.32c.55-.16.89-.31.89-1s-.24-1.12-1-1.12c-1,0-1.15.71-1.15,1.44h-1.43c0-1.61.66-2.48,2.65-2.48,1.33,0,2.4.52,2.4,1.85Zm-1.43-2.41a12.39,12.39,0,0,1-1.68.7,1.23,1.23,0,0,0-.62,1.22c0,.63.31,1.13.94,1.13.91,0,1.36-.67,1.36-1.79Z" fill="#3b4351"/><path d="M416.45,39.29h1V37.15H419v2.14h1.23v1.12H419v4.5c0,.6.17.79.69.79a2.7,2.7,0,0,0,.54,0v1.12a4.64,4.64,0,0,1-1.22.13c-1,0-1.52-.29-1.52-1.82V40.41h-1Z" fill="#3b4351"/><path d="M422.32,43.25v.44c0,1,.12,2.29,1.26,2.29s1.2-1.21,1.2-1.68h1.43A2.48,2.48,0,0,1,423.56,47c-1.23,0-2.76-.36-2.76-3.85,0-2,.44-4.08,2.79-4.08,2.1,0,2.66,1.28,2.66,3.37v.79Zm2.42-1v-.41c0-1-.31-1.68-1.16-1.68s-1.26.95-1.26,1.93v.16Z" fill="#3b4351"/><path d="M431.35,45.9h0A1.61,1.61,0,0,1,429.67,47c-1.75,0-2.47-1.48-2.47-4.06,0-3.35,1.18-3.87,2.33-3.87a1.75,1.75,0,0,1,1.71,1.08h0V36.82h1.51v10h-1.43ZM430,40.3c-.86,0-1.18.7-1.18,2.73,0,1.71.21,2.79,1.27,2.79s1.28-1,1.28-2.68C431.35,41.33,431.15,40.3,430,40.3Z" fill="#3b4351"/><path d="M437.59,36.82h1.51v3.35h0a1.74,1.74,0,0,1,1.71-1.08c1.15,0,2.33.52,2.33,3.87,0,2.59-.72,4.06-2.47,4.06a1.61,1.61,0,0,1-1.65-1.12h0v.93h-1.43Zm2.7,9c1.07,0,1.28-1.08,1.28-2.79,0-2-.32-2.73-1.18-2.73-1.17,0-1.37,1-1.37,2.84C439,44.77,439.26,45.82,440.29,45.82Z" fill="#3b4351"/><path d="M445.16,39.29,446.47,45h0l1.2-5.66h1.58l-2.07,7.82c-.6,2-1.06,2.33-2.63,2.29a3.14,3.14,0,0,1-.61,0V48.14a2.12,2.12,0,0,0,.49.06c.52,0,.86-.1,1-.59l.19-.62-2.14-7.7Z" fill="#3b4351"/><path d="M391.29,60.24v.21c0,1.81-.75,3.57-3.08,3.57-2.53,0-3.31-1.62-3.31-5.2s.78-5.19,3.32-5.19c2.84,0,3,2.08,3,3.14V57h-1.6v-.17c0-.94-.28-2-1.42-2s-1.71.73-1.71,4,.52,4,1.71,4c1.34,0,1.48-1.47,1.48-2.41v-.17Z" fill="#3b4351"/><path d="M392.31,53.82h1.51V57.1l0,0a2.15,2.15,0,0,1,1.85-1c1.15,0,1.88.52,1.88,2v5.69h-1.52V58.66c0-1-.28-1.36-1.05-1.36-.61,0-1.2.47-1.2,1.47v5.06h-1.51Z" fill="#3b4351"/><path d="M404,62.26c0,.28.17.53.4.53a.76.76,0,0,0,.25,0v1a1.58,1.58,0,0,1-.74.18c-.68,0-1.24-.27-1.28-1h0A1.93,1.93,0,0,1,400.71,64c-1.22,0-2-.66-2-2.11a2.07,2.07,0,0,1,1.75-2.37l1.17-.32c.55-.16.89-.31.89-1s-.24-1.12-1-1.12c-1,0-1.15.71-1.15,1.44h-1.43c0-1.61.66-2.48,2.65-2.48,1.33,0,2.39.52,2.39,1.85Zm-1.42-2.41a12,12,0,0,1-1.69.7,1.24,1.24,0,0,0-.61,1.22c0,.63.31,1.13.94,1.13.91,0,1.36-.67,1.36-1.79Z" fill="#3b4351"/><path d="M405.59,53.82h1.51v10h-1.51Z" fill="#3b4351"/><path d="M412.48,62.9h0A1.6,1.6,0,0,1,410.8,64c-1.75,0-2.46-1.48-2.46-4.06,0-3.35,1.17-3.87,2.32-3.87a1.74,1.74,0,0,1,1.71,1.08h0V53.82h1.51v10h-1.43Zm-1.37-5.6c-.86,0-1.18.7-1.18,2.73,0,1.71.21,2.79,1.28,2.79s1.27-1,1.27-2.68C412.48,58.33,412.29,57.3,411.11,57.3Z" fill="#3b4351"/><path d="M416.67,60.25v.44c0,1,.12,2.29,1.26,2.29s1.2-1.21,1.2-1.68h1.43A2.48,2.48,0,0,1,417.91,64c-1.23,0-2.76-.36-2.76-3.85,0-2,.44-4.08,2.79-4.08,2.1,0,2.66,1.28,2.66,3.37v.79Zm2.42-1v-.41c0-1-.31-1.68-1.16-1.68s-1.26.95-1.26,1.93v.16Z" fill="#3b4351"/><path d="M426.79,62.26c0,.28.17.53.39.53a.72.72,0,0,0,.25,0v1a1.55,1.55,0,0,1-.74.18c-.67,0-1.23-.27-1.27-1h0A1.94,1.94,0,0,1,423.51,64c-1.22,0-2-.66-2-2.11a2.07,2.07,0,0,1,1.75-2.37l1.18-.32c.55-.16.88-.31.88-1s-.24-1.12-1-1.12c-1,0-1.14.71-1.14,1.44h-1.43c0-1.61.66-2.48,2.64-2.48,1.34,0,2.4.52,2.4,1.85Zm-1.43-2.41a12.39,12.39,0,0,1-1.68.7,1.25,1.25,0,0,0-.62,1.22c0,.63.31,1.13.94,1.13.91,0,1.36-.67,1.36-1.79Z" fill="#3b4351"/><path d="M428.33,56.29h1.43v.88h0a2.17,2.17,0,0,1,1.93-1.08c1.15,0,1.88.52,1.88,2v5.69H432.1V58.66c0-1-.27-1.36-1.06-1.36-.61,0-1.2.46-1.2,1.47v5.06h-1.51Z" fill="#3b4351"/><path d="M438.31,58.49v-.2c0-.6-.21-1.16-1-1.16-.61,0-1.08.27-1.08,1s.26.83,1.06,1.11l1,.33a2,2,0,0,1,1.64,2.17c0,1.61-1.19,2.3-2.71,2.3-1.9,0-2.47-.88-2.47-2.34V61.4h1.34v.24c0,.88.29,1.34,1.18,1.34s1.23-.42,1.23-1.1a1.09,1.09,0,0,0-.83-1.11l-1.23-.43a2,2,0,0,1-1.61-2.17c0-1.42,1-2.08,2.58-2.08,1.92,0,2.35,1.12,2.35,2.06v.34Z" fill="#3b4351"/><path d="M449.33,62.26c0,.28.17.53.39.53a.72.72,0,0,0,.25,0v1a1.55,1.55,0,0,1-.74.18c-.67,0-1.23-.27-1.27-1h0A1.94,1.94,0,0,1,446.05,64c-1.22,0-2-.66-2-2.11a2.07,2.07,0,0,1,1.75-2.37l1.18-.32c.54-.16.88-.31.88-1s-.24-1.12-1-1.12c-1,0-1.14.71-1.14,1.44h-1.43c0-1.61.66-2.48,2.64-2.48,1.34,0,2.4.52,2.4,1.85Zm-1.43-2.41a12.39,12.39,0,0,1-1.68.7,1.25,1.25,0,0,0-.62,1.22c0,.63.31,1.13.94,1.13.91,0,1.36-.67,1.36-1.79Z" fill="#3b4351"/><path d="M450.19,56.29h1V54.15h1.51v2.14H454v1.12h-1.24v4.5c0,.6.17.79.69.79a2.81,2.81,0,0,0,.55,0v1.12a4.69,4.69,0,0,1-1.22.13c-1,0-1.53-.29-1.53-1.82V57.41h-1Z" fill="#3b4351"/><path d="M394.2,77.24v.21c0,1.81-.74,3.57-3.08,3.57-2.52,0-3.3-1.62-3.3-5.2s.78-5.19,3.32-5.19c2.84,0,3,2.08,3,3.14V74h-1.6v-.17c0-.94-.28-2-1.43-2s-1.71.73-1.71,4,.52,4,1.71,4c1.35,0,1.49-1.47,1.49-2.41v-.17Z" fill="#3b4351"/><path d="M400.17,79.26c0,.28.17.53.39.53a.72.72,0,0,0,.25,0v1a1.58,1.58,0,0,1-.74.18c-.67,0-1.23-.27-1.28-1h0A1.94,1.94,0,0,1,396.89,81c-1.22,0-2-.66-2-2.11a2.07,2.07,0,0,1,1.75-2.37l1.18-.32c.54-.16.88-.31.88-1s-.24-1.12-1-1.12c-1,0-1.15.71-1.15,1.44h-1.43c0-1.61.66-2.48,2.65-2.48,1.33,0,2.4.52,2.4,1.85Zm-1.43-2.41a12.39,12.39,0,0,1-1.68.7,1.23,1.23,0,0,0-.62,1.22c0,.63.31,1.13.94,1.13.91,0,1.36-.67,1.36-1.79Z" fill="#3b4351"/><path d="M401,73.29h1V71.15h1.51v2.14h1.23v1.12h-1.23v4.5c0,.6.17.79.69.79a2.7,2.7,0,0,0,.54,0v1.12a4.56,4.56,0,0,1-1.21.13c-1,0-1.53-.29-1.53-1.82V74.41h-1Z" fill="#3b4351"/><path d="M410.68,78.08c-.11,1.81-.7,2.94-2.58,2.94-2.18,0-2.8-1.61-2.8-4s.62-4,2.8-4a2.44,2.44,0,0,1,2.6,2.71h-1.52c0-.7-.18-1.63-1.08-1.59-1.07,0-1.28,1.18-1.28,2.85s.21,2.84,1.28,2.84c.84,0,1.15-.69,1.15-1.82Z" fill="#3b4351"/><path d="M411.73,70.82h1.51V74.1l0,0a2.16,2.16,0,0,1,1.85-1c1.15,0,1.88.52,1.88,2v5.69H415.5V75.66c0-1-.28-1.36-1.05-1.36-.62,0-1.21.47-1.21,1.47v5.06h-1.51Z" fill="#3b4351"/><path d="M419.77,77.25v.44c0,1,.12,2.29,1.26,2.29s1.2-1.21,1.2-1.68h1.43A2.48,2.48,0,0,1,421,81c-1.23,0-2.76-.36-2.76-3.85,0-2,.44-4.08,2.79-4.08,2.1,0,2.66,1.28,2.66,3.37v.79Zm2.42-1v-.41c0-1-.31-1.68-1.16-1.68s-1.26,1-1.26,1.93v.16Z" fill="#3b4351"/><path d="M425,73.29h1.43v.88h.05a2.1,2.1,0,0,1,1.8-1.08A1.63,1.63,0,0,1,430,74.24,2.07,2.07,0,0,1,432,73.09c1.06,0,1.83.55,1.83,2v5.73h-1.51V75.66c0-1-.29-1.36-.91-1.36s-1.2.47-1.2,1.47v5.06h-1.52V75.66c0-1-.29-1.36-.92-1.36s-1.19.49-1.19,1.47v5.06H425Z" fill="#3b4351"/><path d="M435.37,70.71h1.52v1.51h-1.52Zm0,2.58h1.52v7.54h-1.52Z" fill="#3b4351"/><path d="M441.66,75.49v-.2c0-.6-.21-1.16-1-1.16-.6,0-1.08.27-1.08,1s.27.83,1.06,1.11l1,.33a2,2,0,0,1,1.64,2.17c0,1.61-1.19,2.3-2.7,2.3-1.91,0-2.48-.88-2.48-2.34V78.4h1.34v.24c0,.88.3,1.34,1.18,1.34s1.23-.42,1.23-1.1a1.09,1.09,0,0,0-.83-1.11l-1.23-.43a2,2,0,0,1-1.61-2.17c0-1.42,1-2.08,2.58-2.08,1.92,0,2.35,1.12,2.35,2.06v.34Z" fill="#3b4351"/><path d="M444.38,70.82h1.51V74.1l0,0a2.16,2.16,0,0,1,1.85-1c1.15,0,1.88.52,1.88,2v5.69h-1.52V75.66c0-1-.28-1.36-1.05-1.36-.61,0-1.2.47-1.2,1.47v5.06h-1.51Z" fill="#3b4351"/><path d="M451.26,79h1.6v1.85h-1.6Z" fill="#3b4351"/></g><g id="Chinese-2" data-name="Chinese"><path d="M1629.44,67.72v.37c0,3.16-1.3,6.25-5.39,6.25-4.41,0-5.78-2.85-5.78-9.1s1.37-9.09,5.81-9.09c5,0,5.27,3.65,5.27,5.49V62h-2.8v-.29c0-1.65-.49-3.48-2.5-3.41s-3,1.27-3,6.91.91,7.06,3,7.06c2.36,0,2.6-2.57,2.6-4.22v-.29Z" fill="#3b4351"/><path d="M1630.72,67.4c0-4.12,1.07-6.93,4.9-6.93s4.92,2.81,4.92,6.93-1.27,6.94-4.92,6.94S1630.72,71.52,1630.72,67.4Zm4.9,5c1.93,0,2.28-1.61,2.28-5,0-2.92-.35-5-2.28-5s-2.26,2.05-2.26,5C1633.36,70.76,1633.73,72.37,1635.62,72.37Z" fill="#3b4351"/><path d="M1642.57,60.81h2.5v1.54h.08a3.78,3.78,0,0,1,3.38-1.88c2,0,3.28.9,3.28,3.57V74h-2.64V65c0-1.76-.47-2.38-1.84-2.38-1.08,0-2.11.81-2.11,2.58V74h-2.65Z" fill="#3b4351"/><path d="M1655.17,62.77h-1.84v-2h1.84V59.58c0-2.47,1.2-3.28,3.35-3.28a11.89,11.89,0,0,1,1.45.07v2h-.74c-1,0-1.42.36-1.42,1.25v1.15H1660v2h-2.16V74h-2.64Z" fill="#3b4351"/><path d="M1667.91,72.45h-.08a3.79,3.79,0,0,1-3.38,1.89c-2,0-3.28-.91-3.28-4.32V60.81h2.64v9.46c0,1.47.64,2,1.79,2a2.06,2.06,0,0,0,2.16-2.21V60.81h2.65V74h-2.5Z" fill="#3b4351"/><path d="M1681.85,69.19c-.2,3.16-1.23,5.15-4.51,5.15-3.82,0-4.9-2.82-4.9-6.94s1.08-6.93,4.9-6.93,4.53,3.11,4.53,4.73h-2.64c0-1.23-.32-2.85-1.89-2.77-1.89,0-2.26,2.05-2.26,5s.37,5,2.26,5c1.47,0,2-1.2,2-3.18Z" fill="#3b4351"/><path d="M1684,56.3h2.65V59H1684Zm0,4.51h2.65V74H1684Z" fill="#3b4351"/><path d="M1696,72.45h-.08a3.79,3.79,0,0,1-3.38,1.89c-2,0-3.28-.91-3.28-4.32V60.81h2.65v9.46c0,1.47.63,2,1.78,2a2.06,2.06,0,0,0,2.16-2.21V60.81h2.65V74H1696Z" fill="#3b4351"/><path d="M1706.74,64.66v-.35c0-1.05-.37-2-1.74-2-1.06,0-1.89.46-1.89,1.71,0,1.06.47,1.45,1.86,1.94l1.69.59c2,.66,2.87,1.71,2.87,3.8,0,2.81-2.08,4-4.73,4-3.33,0-4.34-1.55-4.34-4.1v-.49h2.36v.42c0,1.54.51,2.35,2.06,2.35s2.15-.73,2.15-1.93a1.91,1.91,0,0,0-1.44-1.94l-2.16-.76c-2-.66-2.82-1.69-2.82-3.8,0-2.47,1.77-3.62,4.51-3.62,3.36,0,4.12,2,4.12,3.6v.59Z" fill="#3b4351"/></g><g id="Lydians-2" data-name="Lydians"><path d="M518.72,99.58v.36c0,3.17-1.3,6.25-5.39,6.25-4.41,0-5.78-2.84-5.78-9.09s1.37-9.09,5.8-9.09c5,0,5.27,3.65,5.27,5.49v.32h-2.79v-.3c0-1.64-.49-3.48-2.5-3.4s-3,1.27-3,6.91.91,7.06,3,7.06c2.35,0,2.6-2.58,2.6-4.22v-.29Z" fill="#3b4351"/><path d="M520.51,92.67h2.64v2h.05a3.26,3.26,0,0,1,3.07-2.4,1.5,1.5,0,0,1,.63.1v2.7a3.42,3.42,0,0,0-1.1-.15c-1.2,0-2.65.54-2.65,3v7.89h-2.64Z" fill="#3b4351"/><path d="M527.71,99.26c0-4.12,1.08-6.94,4.9-6.94s4.93,2.82,4.93,6.94-1.28,6.93-4.93,6.93S527.71,103.37,527.71,99.26Zm4.9,5c1.94,0,2.28-1.61,2.28-5,0-2.92-.34-5-2.28-5s-2.25,2.06-2.25,5C530.36,102.62,530.72,104.23,532.61,104.23Z" fill="#3b4351"/><path d="M541.85,99.6v.76c0,1.76.22,4,2.2,4s2.11-2.13,2.11-2.94h2.5c0,3-1.76,4.75-4.63,4.75-2.16,0-4.83-.63-4.83-6.74,0-3.45.76-7.13,4.88-7.13,3.67,0,4.65,2.23,4.65,5.88v1.4Zm4.24-1.81v-.71c0-1.67-.54-2.94-2-2.94-1.66,0-2.2,1.66-2.2,3.38v.27Z" fill="#3b4351"/><path d="M556.6,96.51v-.34c0-1-.37-2-1.74-2-1.06,0-1.89.46-1.89,1.71,0,1.06.47,1.45,1.86,1.94l1.69.59c2,.66,2.87,1.71,2.87,3.79,0,2.82-2.08,4-4.73,4-3.33,0-4.34-1.54-4.34-4.09v-.49h2.36V102c0,1.54.51,2.35,2.05,2.35s2.16-.74,2.16-1.94a1.91,1.91,0,0,0-1.45-1.93l-2.15-.76c-2-.66-2.82-1.69-2.82-3.8,0-2.48,1.76-3.63,4.51-3.63,3.36,0,4.12,2,4.12,3.6v.59Z" fill="#3b4351"/><path d="M568.09,104.31H568a3.78,3.78,0,0,1-3.38,1.88c-2,0-3.28-.9-3.28-4.31V92.67H564v9.45c0,1.48.63,2,1.78,2a2.06,2.06,0,0,0,2.16-2.21V92.67h2.65v13.18h-2.5Z" fill="#3b4351"/><path d="M578.82,96.51v-.34c0-1-.37-2-1.74-2-1.06,0-1.89.46-1.89,1.71,0,1.06.47,1.45,1.86,1.94l1.69.59c2,.66,2.87,1.71,2.87,3.79,0,2.82-2.08,4-4.73,4-3.33,0-4.34-1.54-4.34-4.09v-.49h2.36V102c0,1.54.51,2.35,2.06,2.35s2.15-.74,2.15-1.94a1.91,1.91,0,0,0-1.44-1.93l-2.16-.76c-2-.66-2.82-1.69-2.82-3.8,0-2.48,1.77-3.63,4.51-3.63,3.36,0,4.12,2,4.12,3.6v.59Z" fill="#3b4351"/></g><g id="Iranians-2" data-name="Iranians"><path d="M946.89,97v.37c0,3.16-1.3,6.25-5.39,6.25-4.42,0-5.79-2.85-5.79-9.1s1.37-9.09,5.81-9.09c5,0,5.27,3.65,5.27,5.49v.32H944V90.9c0-1.65-.5-3.48-2.5-3.41s-3,1.28-3,6.91.9,7.06,3,7.06c2.35,0,2.59-2.57,2.59-4.22V97Z" fill="#3b4351"/><path d="M950.44,90l2.28,9.9h0l2.1-9.9h2.77L954,103.71c-1.06,3.61-1.87,4.1-4.61,4a4.76,4.76,0,0,1-1.06-.1v-2.1a3.65,3.65,0,0,0,.86.09c.91,0,1.5-.17,1.79-1l.34-1.08L947.59,90Z" fill="#3b4351"/><path d="M959.11,90h2.65V92.1h0a3.24,3.24,0,0,1,3.06-2.4,1.61,1.61,0,0,1,.64.09v2.7a3.87,3.87,0,0,0-1.11-.15c-1.2,0-2.64.54-2.64,3v7.89h-2.65Z" fill="#3b4351"/><path d="M973.57,101.68h-.08a3.77,3.77,0,0,1-3.38,1.89c-2,0-3.28-.91-3.28-4.32V90h2.64V99.5c0,1.47.64,2,1.79,2a2.06,2.06,0,0,0,2.16-2.21V90h2.65v13.18h-2.5Z" fill="#3b4351"/><path d="M984.3,93.89v-.35c0-1.05-.37-2-1.74-2-1.06,0-1.89.47-1.89,1.72,0,1,.47,1.44,1.86,1.93l1.69.59c2,.66,2.87,1.71,2.87,3.8,0,2.82-2.08,4-4.73,4-3.33,0-4.34-1.55-4.34-4.1V99h2.36v.42c0,1.54.51,2.35,2,2.35s2.16-.73,2.16-1.93a1.91,1.91,0,0,0-1.45-1.94L981,97.12c-2-.66-2.82-1.69-2.82-3.8,0-2.47,1.76-3.62,4.51-3.62,3.36,0,4.12,2,4.12,3.6v.59Z" fill="#3b4351"/></g><g id="Amorites-2" data-name="Amorites"><path d="M829.6,22.89v.36c0,3.16-1.29,6.25-5.39,6.25-4.41,0-5.78-2.84-5.78-9.09s1.37-9.09,5.81-9.09c5,0,5.27,3.65,5.27,5.49v.32h-2.8v-.3c0-1.64-.49-3.48-2.5-3.4s-3,1.27-3,6.91.91,7.05,3,7.05c2.36,0,2.6-2.57,2.6-4.21v-.29Z" fill="#3b4351"/><path d="M831.39,11.66H834V17.4l.07.05a3.75,3.75,0,0,1,3.24-1.82c2,0,3.28.91,3.28,3.58v10H838v-9c0-1.74-.49-2.38-1.84-2.38-1.07,0-2.1.83-2.1,2.57v8.85h-2.65Z" fill="#3b4351"/><path d="M851.83,26.41c0,.49.29.94.68.94a1,1,0,0,0,.44-.08V29a2.83,2.83,0,0,1-1.3.32c-1.17,0-2.15-.47-2.23-1.74h0a3.39,3.39,0,0,1-3.28,1.93c-2.13,0-3.43-1.15-3.43-3.7,0-2.94,1.3-3.55,3.06-4.14l2.06-.56c1-.27,1.55-.54,1.55-1.69s-.42-2-1.82-2c-1.76,0-2,1.25-2,2.52H843c0-2.82,1.15-4.34,4.63-4.34,2.33,0,4.2.91,4.2,3.24Zm-2.5-4.21a20.57,20.57,0,0,1-3,1.22,2.19,2.19,0,0,0-1.07,2.14c0,1.1.54,2,1.64,2,1.59,0,2.38-1.17,2.38-3.13Z" fill="#3b4351"/><path d="M854.64,11.66h2.65v17.5h-2.65Z" fill="#3b4351"/><path d="M866.7,27.54h-.05a2.82,2.82,0,0,1-2.9,2c-3.06,0-4.31-2.6-4.31-7.1,0-5.86,2.06-6.77,4.07-6.77a3,3,0,0,1,3,1.89h0V11.66h2.64v17.5H866.7Zm-2.41-9.8c-1.49,0-2,1.22-2,4.78,0,3,.36,4.87,2.23,4.87s2.23-1.83,2.23-4.68C866.7,19.55,866.35,17.74,864.29,17.74Z" fill="#3b4351"/><path d="M874,22.91v.76c0,1.76.22,4,2.21,4s2.1-2.13,2.1-2.94h2.5c0,3-1.76,4.75-4.63,4.75-2.16,0-4.83-.63-4.83-6.74,0-3.45.76-7.13,4.88-7.13,3.68,0,4.66,2.23,4.66,5.88v1.4Zm4.24-1.81v-.71c0-1.67-.54-2.94-2-2.94-1.67,0-2.21,1.66-2.21,3.38v.27Z" fill="#3b4351"/><path d="M891.73,26.41c0,.49.3.94.69.94a1,1,0,0,0,.44-.08V29a2.83,2.83,0,0,1-1.3.32c-1.17,0-2.15-.47-2.23-1.74h-.05A3.39,3.39,0,0,1,886,29.5c-2.13,0-3.43-1.15-3.43-3.7,0-2.94,1.3-3.55,3.06-4.14l2.06-.56c1-.27,1.54-.54,1.54-1.69s-.41-2-1.81-2c-1.76,0-2,1.25-2,2.52h-2.5c0-2.82,1.15-4.34,4.63-4.34,2.33,0,4.19.91,4.19,3.24Zm-2.5-4.21a20,20,0,0,1-2.94,1.22,2.17,2.17,0,0,0-1.07,2.14c0,1.1.53,2,1.64,2,1.59,0,2.37-1.17,2.37-3.13Z" fill="#3b4351"/><path d="M894.43,16h2.5v1.54H897a3.77,3.77,0,0,1,3.38-1.89c2,0,3.29.91,3.29,3.58v10H901v-9c0-1.77-.47-2.38-1.84-2.38-1.08,0-2.11.81-2.11,2.57v8.85h-2.64Z" fill="#3b4351"/><path d="M911.9,19.82v-.34c0-1.05-.37-2-1.74-2-1.06,0-1.89.46-1.89,1.71,0,1.05.47,1.45,1.86,1.94l1.69.59c2,.66,2.87,1.71,2.87,3.79,0,2.82-2.08,4-4.73,4-3.33,0-4.34-1.54-4.34-4.09v-.49H908v.42c0,1.54.51,2.35,2,2.35s2.16-.74,2.16-1.94a1.91,1.91,0,0,0-1.45-1.93l-2.15-.76c-2-.66-2.82-1.69-2.82-3.8,0-2.48,1.76-3.63,4.51-3.63,3.36,0,4.12,2,4.12,3.6v.59Z" fill="#3b4351"/></g></g></svg>