<svg xmlns="http://www.w3.org/2000/svg" viewBox="0 0 1847.91 113"><title>bc0550text</title><g id="YEARS"><g id="Right"><path d="M1788.9,104.16h2.81v.49a2.35,2.35,0,0,0,2.42,2.6c2.08,0,2.63-2,2.63-4.18s-.58-3.93-2.47-3.93a2.35,2.35,0,0,0-2.42,1.69l-2.63-.1.91-9.65H1799v2.37h-6.66l-.6,4.83.06,0a4.07,4.07,0,0,1,3.09-1.42c3.85,0,4.81,3.25,4.81,6.08,0,3.69-1.69,6.5-5.67,6.5-3.3,0-5.15-1.69-5.15-4.94Z"/><path d="M1801.38,104.16h2.81v.49a2.35,2.35,0,0,0,2.42,2.6c2.08,0,2.63-2,2.63-4.18s-.58-3.93-2.47-3.93a2.35,2.35,0,0,0-2.42,1.69l-2.63-.1.91-9.65h8.87v2.37h-6.66l-.6,4.83.06,0a4.07,4.07,0,0,1,3.09-1.42c3.85,0,4.81,3.25,4.81,6.08,0,3.69-1.69,6.5-5.67,6.5-3.3,0-5.15-1.69-5.15-4.94Z"/><path d="M1819.27,90.72c3.54,0,5.51,2.21,5.51,9.38s-2,9.39-5.51,9.39-5.51-2.21-5.51-9.39S1815.73,90.72,1819.27,90.72Zm0,16.69c2,0,2.55-2,2.55-7.31s-.55-7.3-2.55-7.3-2.55,2-2.55,7.3S1817.27,107.41,1819.27,107.41Z"/></g><g id="left"><path d="M19.15,107.76H22v.49a2.35,2.35,0,0,0,2.42,2.6c2.08,0,2.63-2,2.63-4.18s-.58-3.93-2.47-3.93a2.35,2.35,0,0,0-2.42,1.69l-2.63-.1.91-9.65h8.87V97H22.61l-.6,4.84.06.05a4,4,0,0,1,3.09-1.43c3.85,0,4.81,3.25,4.81,6.09,0,3.69-1.69,6.5-5.67,6.5-3.3,0-5.15-1.69-5.15-4.94Z"/><path d="M31.63,107.76h2.81v.49a2.35,2.35,0,0,0,2.42,2.6c2.08,0,2.63-2,2.63-4.18s-.58-3.93-2.47-3.93a2.35,2.35,0,0,0-2.42,1.69l-2.63-.1.91-9.65h8.87V97H35.09l-.6,4.84.06.05a4,4,0,0,1,3.09-1.43c3.85,0,4.81,3.25,4.81,6.09,0,3.69-1.69,6.5-5.67,6.5-3.3,0-5.15-1.69-5.15-4.94Z"/><path d="M49.52,94.31c3.54,0,5.51,2.21,5.51,9.39s-2,9.39-5.51,9.39S44,110.88,44,103.7,46,94.31,49.52,94.31Zm0,16.7c2,0,2.55-2,2.55-7.31s-.55-7.31-2.55-7.31S47,98.37,47,103.7,47.52,111,49.52,111Z"/></g></g><g id="Text"><g id="Iranians"><path d="M946.89,97v.37c0,3.16-1.3,6.25-5.39,6.25-4.42,0-5.79-2.85-5.79-9.1s1.37-9.09,5.81-9.09c5,0,5.27,3.65,5.27,5.49v.32H944V90.9c0-1.65-.5-3.48-2.5-3.41s-3,1.28-3,6.91.9,7.06,3,7.06c2.35,0,2.59-2.57,2.59-4.22V97Z"/><path d="M950.44,90l2.28,9.9h0l2.1-9.9h2.77L954,103.71c-1.06,3.61-1.87,4.1-4.61,4a4.76,4.76,0,0,1-1.06-.1v-2.1a3.65,3.65,0,0,0,.86.09c.91,0,1.5-.17,1.79-1l.34-1.08L947.59,90Z"/><path d="M959.11,90h2.65V92.1h0a3.24,3.24,0,0,1,3.06-2.4,1.61,1.61,0,0,1,.64.09v2.7a3.87,3.87,0,0,0-1.11-.15c-1.2,0-2.64.54-2.64,3v7.89h-2.65Z"/><path d="M973.57,101.68h-.08a3.77,3.77,0,0,1-3.38,1.89c-2,0-3.28-.91-3.28-4.32V90h2.64V99.5c0,1.47.64,2,1.79,2a2.06,2.06,0,0,0,2.16-2.21V90h2.65v13.18h-2.5Z"/><path d="M984.3,93.89v-.35c0-1.05-.37-2-1.74-2-1.06,0-1.89.47-1.89,1.72,0,1,.47,1.44,1.86,1.93l1.69.59c2,.66,2.87,1.71,2.87,3.8,0,2.82-2.08,4-4.73,4-3.33,0-4.34-1.55-4.34-4.1V99h2.36v.42c0,1.54.51,2.35,2,2.35s2.16-.73,2.16-1.93a1.91,1.91,0,0,0-1.45-1.94L981,97.12c-2-.66-2.82-1.69-2.82-3.8,0-2.47,1.76-3.62,4.51-3.62,3.36,0,4.12,2,4.12,3.6v.59Z"/></g><g id="Indians"><path d="M1466.85,56.5h5.66c2.62,0,4.7,1.17,4.7,4.23,0,2.11-.85,3.44-2.57,4v0c1.91.35,3.14,1.5,3.14,4.46s-2.11,4.78-5.39,4.78h-5.54Zm5,7.37a2.45,2.45,0,0,0,2.57-2.77c0-2.08-1.25-2.5-2.82-2.5h-2v5.27Zm.56,8c1.67,0,2.57-1,2.57-3.08a2.65,2.65,0,0,0-2.74-3h-2.6v6Z"/><path d="M1486.57,72.45h-.07a3.79,3.79,0,0,1-3.38,1.89c-2,0-3.29-.91-3.29-4.32V60.81h2.65v9.46c0,1.47.64,2,1.79,2a2.06,2.06,0,0,0,2.16-2.21V60.81h2.64V74h-2.5Z"/><path d="M1498.36,72.37h0a2.82,2.82,0,0,1-2.89,2c-3.07,0-4.32-2.6-4.32-7.11,0-5.86,2.06-6.76,4.07-6.76a3,3,0,0,1,3,1.88h0V56.5h2.65V74h-2.5Zm-2.4-9.8c-1.5,0-2.06,1.23-2.06,4.78,0,3,.36,4.88,2.23,4.88s2.23-1.84,2.23-4.68C1498.36,64.39,1498,62.57,1496,62.57Z"/><path d="M1510.14,72.37h-.05a2.82,2.82,0,0,1-2.89,2c-3.06,0-4.31-2.6-4.31-7.11,0-5.86,2.06-6.76,4.07-6.76a3,3,0,0,1,3,1.88h0V56.5h2.65V74h-2.5Zm-2.4-9.8c-1.5,0-2.06,1.23-2.06,4.78,0,3,.37,4.88,2.23,4.88s2.23-1.84,2.23-4.68C1510.14,64.39,1509.8,62.57,1507.74,62.57Z"/><path d="M1515.19,56.5h2.64v5.73l.08.05a3.76,3.76,0,0,1,3.23-1.81c2,0,3.28.9,3.28,3.57V74h-2.64V65c0-1.74-.49-2.38-1.84-2.38-1.08,0-2.11.84-2.11,2.58V74h-2.64Z"/><path d="M1535.62,71.25c0,.49.29.93.69.93a1.22,1.22,0,0,0,.44-.07v1.71a2.86,2.86,0,0,1-1.3.32c-1.18,0-2.16-.47-2.23-1.74h0a3.41,3.41,0,0,1-3.28,1.94c-2.14,0-3.43-1.16-3.43-3.7,0-3,1.29-3.56,3.06-4.15l2.06-.56c1-.27,1.54-.54,1.54-1.69s-.42-2-1.81-2c-1.77,0-2,1.25-2,2.52h-2.5c0-2.82,1.15-4.33,4.63-4.33,2.33,0,4.19.9,4.19,3.23Zm-2.5-4.22a20,20,0,0,1-2.94,1.23,2.17,2.17,0,0,0-1.08,2.13c0,1.1.54,2,1.64,2,1.6,0,2.38-1.17,2.38-3.13Z"/></g><g id="Chinese"><path d="M1629.44,67.72v.37c0,3.16-1.3,6.25-5.39,6.25-4.41,0-5.78-2.85-5.78-9.1s1.37-9.09,5.81-9.09c5,0,5.27,3.65,5.27,5.49V62h-2.8v-.29c0-1.65-.49-3.48-2.5-3.41s-3,1.27-3,6.91.91,7.06,3,7.06c2.36,0,2.6-2.57,2.6-4.22v-.29Z"/><path d="M1630.72,67.4c0-4.12,1.07-6.93,4.9-6.93s4.92,2.81,4.92,6.93-1.27,6.94-4.92,6.94S1630.72,71.52,1630.72,67.4Zm4.9,5c1.93,0,2.28-1.61,2.28-5,0-2.92-.35-5-2.28-5s-2.26,2.05-2.26,5C1633.36,70.76,1633.73,72.37,1635.62,72.37Z"/><path d="M1642.57,60.81h2.5v1.54h.08a3.78,3.78,0,0,1,3.38-1.88c2,0,3.28.9,3.28,3.57V74h-2.64V65c0-1.76-.47-2.38-1.84-2.38-1.08,0-2.11.81-2.11,2.58V74h-2.65Z"/><path d="M1655.17,62.77h-1.84v-2h1.84V59.58c0-2.47,1.2-3.28,3.35-3.28a11.89,11.89,0,0,1,1.45.07v2h-.74c-1,0-1.42.36-1.42,1.25v1.15H1660v2h-2.16V74h-2.64Z"/><path d="M1667.91,72.45h-.08a3.79,3.79,0,0,1-3.38,1.89c-2,0-3.28-.91-3.28-4.32V60.81h2.64v9.46c0,1.47.64,2,1.79,2a2.06,2.06,0,0,0,2.16-2.21V60.81h2.65V74h-2.5Z"/><path d="M1681.85,69.19c-.2,3.16-1.23,5.15-4.51,5.15-3.82,0-4.9-2.82-4.9-6.94s1.08-6.93,4.9-6.93,4.53,3.11,4.53,4.73h-2.64c0-1.23-.32-2.85-1.89-2.77-1.89,0-2.26,2.05-2.26,5s.37,5,2.26,5c1.47,0,2-1.2,2-3.18Z"/><path d="M1684,56.3h2.65V59H1684Zm0,4.51h2.65V74H1684Z"/><path d="M1696,72.45h-.08a3.79,3.79,0,0,1-3.38,1.89c-2,0-3.28-.91-3.28-4.32V60.81h2.65v9.46c0,1.47.63,2,1.78,2a2.06,2.06,0,0,0,2.16-2.21V60.81h2.65V74H1696Z"/><path d="M1706.74,64.66v-.35c0-1.05-.37-2-1.74-2-1.06,0-1.89.46-1.89,1.71,0,1.06.47,1.45,1.86,1.94l1.69.59c2,.66,2.87,1.71,2.87,3.8,0,2.81-2.08,4-4.73,4-3.33,0-4.34-1.55-4.34-4.1v-.49h2.36v.42c0,1.54.51,2.35,2.06,2.35s2.15-.73,2.15-1.93a1.91,1.91,0,0,0-1.44-1.94l-2.16-.76c-2-.66-2.82-1.69-2.82-3.8,0-2.47,1.77-3.62,4.51-3.62,3.36,0,4.12,2,4.12,3.6v.59Z"/></g><g id="Lydians"><path d="M518.72,99.58v.36c0,3.17-1.3,6.25-5.39,6.25-4.41,0-5.78-2.84-5.78-9.09s1.37-9.09,5.8-9.09c5,0,5.27,3.65,5.27,5.49v.32h-2.79v-.3c0-1.64-.49-3.48-2.5-3.4s-3,1.27-3,6.91.91,7.06,3,7.06c2.35,0,2.6-2.58,2.6-4.22v-.29Z"/><path d="M520.51,92.67h2.64v2h.05a3.26,3.26,0,0,1,3.07-2.4,1.5,1.5,0,0,1,.63.1v2.7a3.42,3.42,0,0,0-1.1-.15c-1.2,0-2.65.54-2.65,3v7.89h-2.64Z"/><path d="M527.71,99.26c0-4.12,1.08-6.94,4.9-6.94s4.93,2.82,4.93,6.94-1.28,6.93-4.93,6.93S527.71,103.37,527.71,99.26Zm4.9,5c1.94,0,2.28-1.61,2.28-5,0-2.92-.34-5-2.28-5s-2.25,2.06-2.25,5C530.36,102.62,530.72,104.23,532.61,104.23Z"/><path d="M541.85,99.6v.76c0,1.76.22,4,2.2,4s2.11-2.13,2.11-2.94h2.5c0,3-1.76,4.75-4.63,4.75-2.16,0-4.83-.63-4.83-6.74,0-3.45.76-7.13,4.88-7.13,3.67,0,4.65,2.23,4.65,5.88v1.4Zm4.24-1.81v-.71c0-1.67-.54-2.94-2-2.94-1.66,0-2.2,1.66-2.2,3.38v.27Z"/><path d="M556.6,96.51v-.34c0-1-.37-2-1.74-2-1.06,0-1.89.46-1.89,1.71,0,1.06.47,1.45,1.86,1.94l1.69.59c2,.66,2.87,1.71,2.87,3.79,0,2.82-2.08,4-4.73,4-3.33,0-4.34-1.54-4.34-4.09v-.49h2.36V102c0,1.54.51,2.35,2.05,2.35s2.16-.74,2.16-1.94a1.91,1.91,0,0,0-1.45-1.93l-2.15-.76c-2-.66-2.82-1.69-2.82-3.8,0-2.48,1.76-3.63,4.51-3.63,3.36,0,4.12,2,4.12,3.6v.59Z"/><path d="M568.09,104.31H568a3.78,3.78,0,0,1-3.38,1.88c-2,0-3.28-.9-3.28-4.31V92.67H564v9.45c0,1.48.63,2,1.78,2a2.06,2.06,0,0,0,2.16-2.21V92.67h2.65v13.18h-2.5Z"/><path d="M578.82,96.51v-.34c0-1-.37-2-1.74-2-1.06,0-1.89.46-1.89,1.71,0,1.06.47,1.45,1.86,1.94l1.69.59c2,.66,2.87,1.71,2.87,3.79,0,2.82-2.08,4-4.73,4-3.33,0-4.34-1.54-4.34-4.09v-.49h2.36V102c0,1.54.51,2.35,2.06,2.35s2.15-.74,2.15-1.94a1.91,1.91,0,0,0-1.44-1.93l-2.16-.76c-2-.66-2.82-1.69-2.82-3.8,0-2.48,1.77-3.63,4.51-3.63,3.36,0,4.12,2,4.12,3.6v.59Z"/></g><g id="Amorites"><path d="M829.6,22.89v.36c0,3.16-1.29,6.25-5.39,6.25-4.41,0-5.78-2.84-5.78-9.09s1.37-9.09,5.81-9.09c5,0,5.27,3.65,5.27,5.49v.32h-2.8v-.3c0-1.64-.49-3.48-2.5-3.4s-3,1.27-3,6.91.91,7.05,3,7.05c2.36,0,2.6-2.57,2.6-4.21v-.29Z"/><path d="M831.39,11.66H834V17.4l.07.05a3.75,3.75,0,0,1,3.24-1.82c2,0,3.28.91,3.28,3.58v10H838v-9c0-1.74-.49-2.38-1.84-2.38-1.07,0-2.1.83-2.1,2.57v8.85h-2.65Z"/><path d="M851.83,26.41c0,.49.29.94.68.94a1,1,0,0,0,.44-.08V29a2.83,2.83,0,0,1-1.3.32c-1.17,0-2.15-.47-2.23-1.74h0a3.39,3.39,0,0,1-3.28,1.93c-2.13,0-3.43-1.15-3.43-3.7,0-2.94,1.3-3.55,3.06-4.14l2.06-.56c1-.27,1.55-.54,1.55-1.69s-.42-2-1.82-2c-1.76,0-2,1.25-2,2.52H843c0-2.82,1.15-4.34,4.63-4.34,2.33,0,4.2.91,4.2,3.24Zm-2.5-4.21a20.57,20.57,0,0,1-3,1.22,2.19,2.19,0,0,0-1.07,2.14c0,1.1.54,2,1.64,2,1.59,0,2.38-1.17,2.38-3.13Z"/><path d="M854.64,11.66h2.65v17.5h-2.65Z"/><path d="M866.7,27.54h-.05a2.82,2.82,0,0,1-2.9,2c-3.06,0-4.31-2.6-4.31-7.1,0-5.86,2.06-6.77,4.07-6.77a3,3,0,0,1,3,1.89h0V11.66h2.64v17.5H866.7Zm-2.41-9.8c-1.49,0-2,1.22-2,4.78,0,3,.36,4.87,2.23,4.87s2.23-1.83,2.23-4.68C866.7,19.55,866.35,17.74,864.29,17.74Z"/><path d="M874,22.91v.76c0,1.76.22,4,2.21,4s2.1-2.13,2.1-2.94h2.5c0,3-1.76,4.75-4.63,4.75-2.16,0-4.83-.63-4.83-6.74,0-3.45.76-7.13,4.88-7.13,3.68,0,4.66,2.23,4.66,5.88v1.4Zm4.24-1.81v-.71c0-1.67-.54-2.94-2-2.94-1.67,0-2.21,1.66-2.21,3.38v.27Z"/><path d="M891.73,26.41c0,.49.3.94.69.94a1,1,0,0,0,.44-.08V29a2.83,2.83,0,0,1-1.3.32c-1.17,0-2.15-.47-2.23-1.74h-.05A3.39,3.39,0,0,1,886,29.5c-2.13,0-3.43-1.15-3.43-3.7,0-2.94,1.3-3.55,3.06-4.14l2.06-.56c1-.27,1.54-.54,1.54-1.69s-.41-2-1.81-2c-1.76,0-2,1.25-2,2.52h-2.5c0-2.82,1.15-4.34,4.63-4.34,2.33,0,4.19.91,4.19,3.24Zm-2.5-4.21a20,20,0,0,1-2.94,1.22,2.17,2.17,0,0,0-1.07,2.14c0,1.1.53,2,1.64,2,1.59,0,2.37-1.17,2.37-3.13Z"/><path d="M894.43,16h2.5v1.54H897a3.77,3.77,0,0,1,3.38-1.89c2,0,3.29.91,3.29,3.58v10H901v-9c0-1.77-.47-2.38-1.84-2.38-1.08,0-2.11.81-2.11,2.57v8.85h-2.64Z"/><path d="M911.9,19.82v-.34c0-1.05-.37-2-1.74-2-1.06,0-1.89.46-1.89,1.71,0,1.05.47,1.45,1.86,1.94l1.69.59c2,.66,2.87,1.71,2.87,3.79,0,2.82-2.08,4-4.73,4-3.33,0-4.34-1.54-4.34-4.09v-.49H908v.42c0,1.54.51,2.35,2,2.35s2.16-.74,2.16-1.94a1.91,1.91,0,0,0-1.45-1.93l-2.15-.76c-2-.66-2.82-1.69-2.82-3.8,0-2.48,1.76-3.63,4.51-3.63,3.36,0,4.12,2,4.12,3.6v.59Z"/></g></g></svg>