<svg xmlns="http://www.w3.org/2000/svg" viewBox="0 0 1847.91 116"><title>bc0500text</title><g id="YEARS"><g id="Right"><path d="M1784,67.82h6c2.79,0,5,1.24,5,4.49q0,3.36-2.73,4.22v0c2,.36,3.32,1.59,3.32,4.73s-2.23,5.07-5.72,5.07H1784Zm5.3,7.82c1.8,0,2.73-1.17,2.73-2.94,0-2.21-1.32-2.65-3-2.65H1787v5.59Zm.6,8.5c1.77,0,2.73-1.11,2.73-3.27a2.82,2.82,0,0,0-2.91-3.15H1787v6.42Z" fill="#3b4351"/><path d="M1797.31,83h3v3.43h-3Z" fill="#3b4351"/><path d="M1835.34,79.73v.39c0,3.35-1.37,6.63-5.72,6.63-4.68,0-6.13-3-6.13-9.65s1.45-9.65,6.16-9.65c5.28,0,5.59,3.88,5.59,5.83v.33h-3V73.3c0-1.74-.52-3.69-2.66-3.61s-3.17,1.35-3.17,7.33,1,7.49,3.17,7.49c2.5,0,2.76-2.73,2.76-4.47v-.31Z" fill="#3b4351"/><path d="M1837.06,83h3v3.43h-3Z" fill="#3b4351"/><path d="M1794.19,106.42H1797v.49a2.35,2.35,0,0,0,2.42,2.6c2.08,0,2.62-2,2.62-4.19s-.57-3.92-2.47-3.92a2.35,2.35,0,0,0-2.42,1.69l-2.62-.11.91-9.64h8.86V95.7h-6.65l-.6,4.84,0,0a4.06,4.06,0,0,1,3.09-1.43c3.85,0,4.82,3.25,4.82,6.09,0,3.69-1.7,6.5-5.67,6.5-3.31,0-5.15-1.69-5.15-4.94Z" fill="#3b4351"/><path d="M1812.08,93c3.53,0,5.51,2.21,5.51,9.39s-2,9.39-5.51,9.39-5.52-2.21-5.52-9.39S1808.54,93,1812.08,93Zm0,16.7c2,0,2.54-2,2.54-7.31s-.54-7.31-2.54-7.31-2.55,2-2.55,7.31S1810.07,109.67,1812.08,109.67Z" fill="#3b4351"/><path d="M1824.56,93c3.53,0,5.51,2.21,5.51,9.39s-2,9.39-5.51,9.39-5.52-2.21-5.52-9.39S1821,93,1824.56,93Zm0,16.7c2,0,2.54-2,2.54-7.31s-.54-7.31-2.54-7.31-2.55,2-2.55,7.31S1822.55,109.67,1824.56,109.67Z" fill="#3b4351"/></g><g id="left"><path d="M9,69.72h6c2.78,0,5,1.25,5,4.5q0,3.36-2.73,4.21v.06c2,.36,3.33,1.58,3.33,4.73s-2.24,5.07-5.72,5.07H9Zm5.31,7.83c1.79,0,2.73-1.17,2.73-2.94C17,72.4,15.7,72,14,72H12v5.59Zm.6,8.5c1.76,0,2.72-1.12,2.72-3.27s-1.17-3.15-2.91-3.15H12v6.42Z" fill="#3b4351"/><path d="M22.28,84.86h3v3.43h-3Z" fill="#3b4351"/><path d="M60.31,81.63V82c0,3.36-1.38,6.63-5.72,6.63-4.68,0-6.14-3-6.14-9.64s1.46-9.65,6.17-9.65c5.27,0,5.59,3.87,5.59,5.82v.34h-3v-.31c0-1.74-.52-3.69-2.65-3.61S51.42,73,51.42,78.93s1,7.49,3.17,7.49c2.5,0,2.76-2.73,2.76-4.48v-.31Z" fill="#3b4351"/><path d="M62,84.86h3v3.43H62Z" fill="#3b4351"/><path d="M19.15,108.32H22v.5a2.36,2.36,0,0,0,2.42,2.6c2.08,0,2.63-2,2.63-4.19s-.58-3.93-2.47-3.93A2.35,2.35,0,0,0,22.12,105l-2.63-.1.91-9.65h8.87v2.37H22.61l-.6,4.84.06,0a4,4,0,0,1,3.09-1.43c3.85,0,4.81,3.25,4.81,6.08,0,3.69-1.69,6.5-5.67,6.5-3.3,0-5.15-1.69-5.15-4.94Z" fill="#3b4351"/><path d="M37,94.88c3.54,0,5.51,2.21,5.51,9.39s-2,9.38-5.51,9.38-5.51-2.21-5.51-9.38S33.51,94.88,37,94.88Zm0,16.69c2,0,2.55-2,2.55-7.3S39,97,37,97s-2.55,2-2.55,7.31S35,111.57,37,111.57Z" fill="#3b4351"/><path d="M49.52,94.88c3.54,0,5.51,2.21,5.51,9.39s-2,9.38-5.51,9.38S44,111.44,44,104.27,46,94.88,49.52,94.88Zm0,16.69c2,0,2.55-2,2.55-7.3S51.52,97,49.52,97s-2.55,2-2.55,7.31S47.52,111.57,49.52,111.57Z" fill="#3b4351"/></g></g><g id="Nation_OUtlines" data-name="Nation OUtlines"><polygon id="Romans" points="854.62 4606.83 829.93 4493.83 711.95 4384.83 764.62 4270.83 729.95 4155.83 845.28 4044.83 1002.62 3932.83 1065.29 3818.83 1021.28 3707.83 995.34 3590.83 815.28 3482.83 703.28 3371.83 687.28 3256.83 737.95 3142.83 780.62 3030.83 712.62 2919.83 645.95 2805.83 550.62 2692.83 491.95 2583 453.95 2470 455.29 2358 435.95 2243 470.62 2135 322.62 2135 416.12 2022 480.12 1912 410.62 1800 316.95 1686 248.28 1571 210.28 1460 175.95 1349 159.62 1233 91.28 1120 83.12 1015 117.62 901 151.37 787 129.62 677 109.62 562 99.62 450 73.12 340 75.42 -558 85.95 -448 95.28 -336 111.95 -224 116.62 -113 137.95 0 149.95 116 169.95 228 205.28 340 231.95 450 287.74 562 467.73 677 683.72 787 998.71 901 1118.7 1015 1131.14 1120 1195.2 1233 1182.62 1349 1245.62 1460 1220.62 1571 1122.62 1686 981.62 1800 880.12 1912 717.95 2022 593.62 2135 616.62 2243 717.28 2358 839.28 2472.84 863.28 2583 915.28 2692.83 810.62 2805.83 885.95 2919.83 1037.95 3030.83 1125.95 3142.83 1253.95 3256.83 1213.95 3371.83 1202.62 3482.83 1169.95 3590.83 1161.29 3707.83 1218.62 3818.83 1131.95 3932.83 936.62 4044.83 798.62 4155.83 819.28 4270.83 759.95 4384.83 849.28 4493.83 854.62 4606.83" fill="none" stroke="#3b4351" stroke-miterlimit="10"/><polygon id="Iranians" points="1263.29 -893.83 1235.95 -1008 1211.95 -1122.5 1241.29 -1232.5 1280.62 -1345 1217.95 -1459.83 1163.29 -1569.16 1140.62 -1682.5 1175.95 -1793 1153.29 -1907.83 1137.95 -2021.16 1188.62 -2132.5 1153.95 -2245.16 1161.95 -2358 1156.67 -2473.27 1152.84 -2590.5 1131.29 -2697 1198.62 -2807.5 1275.29 -2919.5 1277.29 -3033.16 1268.62 -3142.83 1283.88 -3254.83 1411.11 -3254.83 1445.69 -3143.27 1480.18 -3032.6 1462.18 -2919.5 1438.19 -2807.5 1387.19 -2697 1387.19 -2585 1420.19 -2470.07 1429.19 -2358 1400.69 -2245.08 1417.19 -2132 1343.69 -2021 1325.69 -1907 1345.19 -1793 1313.69 -1681 1298.69 -1569 1310.69 -1459 1348.19 -1345 1313.69 -1232 1285.19 -1121 1294.19 -1008 1372.19 -893.83 1373.74 -785.27 1375.34 -673.27 1376.98 -558 1335.62 -448 1348.62 -336 1391.1 -224 1462.62 -113 1440.62 -0.27 1447.62 116 1472.62 228 1505.62 339.73 1513.62 449.73 1437.62 561.73 1391.82 676.73 1219.62 562 1086.62 450 890.71 339.73 788.62 228 767.62 116 866.62 0 1041.62 -113.27 1176.62 -224.27 1205.62 -336.27 1242.62 -448.27 1294.62 -558 1322.62 -670.83 1240.62 -785 1263.29 -893.83" fill="none" stroke="#3b4351" stroke-miterlimit="10"/><polygon id="Indians" points="1372.19 -893.83 1294.19 -1008 1285.19 -1121 1313.69 -1232 1348.19 -1345 1310.69 -1459 1298.69 -1569 1313.69 -1681 1345.19 -1793 1325.69 -1907 1343.69 -2021 1417.19 -2132 1400.69 -2245.08 1429.19 -2358 1419.27 -2473.27 1387.19 -2585 1387.19 -2697 1438.19 -2807.5 1462.18 -2919.5 1480.18 -3032.54 1445.82 -3142.83 1411.11 -3254.83 1545.86 -3254.83 1580.1 -3142.83 1593.12 -3032.6 1552.12 -2919.5 1514.62 -2807.5 1514.12 -2697.33 1553.12 -2585.27 1548.12 -2473 1519.62 -2358 1534.12 -2244.33 1575.12 -2132 1559.62 -2021 1564.12 -1907.27 1534.62 -1793 1486.12 -1681 1465.12 -1569 1471.12 -1459.83 1502.12 -1345.83 1508.12 -1232 1534.62 -1121 1542.77 -1042.14 1555.62 -893.83 1554.62 -785 1567.12 -673 1542.12 -558.27 1498.12 -448 1490.62 -336 1513.12 -224 1568.62 -113 1544.12 0 1530.62 115.73 1523.62 227.73 1532.62 340 1565.12 450 1543.62 562 1514.12 677 1490.12 786.73 1495.62 901 1517.12 1014.67 1528.12 1120 1580.62 1232.67 1578.12 1348.67 1578.12 1459.17 1560.12 1570.73 1526.62 1686 1467.62 1800 1381.62 1911.73 1270.62 2022 1090.12 2134.73 860.62 2243 1302.12 2358 1377.03 2470 1550.62 2583 1519.62 2692.83 1476.12 2805.83 1516.13 2919.83 1534.62 3032.17 1552.65 3142.83 1585.62 3256.73 1620.12 3371.83 1650.12 3482.83 1630.62 3590.73 1622.45 3707.73 1565.62 3818.83 1402.62 3932.17 1173.62 4044.83 1148.62 4155.83 1334.62 4270.83 1283.62 4384.83 1344.62 4493.83 1544.62 4606.83 1602.62 4721.17 1627.62 4832.83 1674.62 4945.73 1627.62 5060.83 1634.62 5172.83 1686.62 5284.83 1701.62 5397.83 1620.12 5509.83 1606.12 5620.83 1606.12 5734.66 1552.62 5734.66 1549.52 5620.83 1569.62 5509.83 1683.62 5397.83 1667.62 5284.83 1607.62 5172.83 1596.62 5060.17 1617.62 4945.83 1584.62 4832.83 1562.62 4720.83 1507.62 4606.83 1304.62 4493.73 1225.62 4384.73 1236.97 4347.78 1264.87 4270.83 1082.62 4155.83 1084.2 4045.34 1323.62 3932.83 1500.47 3818.73 1573.62 3707.83 1600.62 3590.83 1604.62 3482.83 1569.62 3371.83 1514.62 3256.83 1447.62 3142.73 1418.62 3030.83 1404.62 2919.83 1367.62 2805.83 1397.62 2692.83 1418.62 2582.73 1339.62 2469.73 1246.62 2358 748.62 2243 753.62 2135 910.76 2022 1053.62 1912 1195.2 1800 1311.62 1685.17 1353.62 1571 1348.62 1460 1364.62 1348.17 1406.62 1233 1401.62 1120 1429.62 1015 1394.62 900.73 1393.2 787 1391.82 676.73 1437.52 562 1513.62 449.73 1505.64 340 1472.62 228.17 1447.62 116 1440.63 0 1462.62 -113 1391.1 -224 1348.62 -336 1332.62 -448 1376.98 -558 1375.34 -673.27 1373.74 -785.27 1372.19 -893.83" fill="none" stroke="#3b4351" stroke-miterlimit="10"/><polygon id="Huns" points="1555.62 -893.83 1545.73 -1008 1533.62 -1121.33 1506.68 -1231.36 1502.16 -1345 1471.34 -1459 1465.12 -1569 1486.12 -1681 1534.62 -1793 1564.05 -1907 1559.62 -2021 1575.12 -2132 1534.24 -2244 1519.62 -2358 1548.12 -2473 1553.11 -2585 1514.47 -2697.27 1514.62 -2809.5 1552.12 -2919.5 1593.12 -3032.16 1580.1 -3142.83 1545.86 -3254.83 1633.99 -3254.83 1651.62 -3142.83 1667.62 -3032.16 1646.62 -2919.5 1620.62 -2807.5 1630.4 -2699.4 1650.62 -2585.33 1676.62 -2473 1700.12 -2358 1689.12 -2244 1714.62 -2132.33 1697.12 -2021.27 1645.62 -1907.27 1616.12 -1793 1586.62 -1681.27 1538.12 -1569.27 1509.12 -1459 1551.62 -1345 1585.12 -1232 1608.62 -1121.33 1609.69 -1008.27 1610.76 -895.27 1613.62 -785.27 1625.12 -673.27 1599.12 -557.33 1557.59 -448 1545.65 -336 1558.62 -224 1584.62 -113.27 1571.12 0.17 1576.62 116 1567.62 228 1587.12 340 1621.12 450 1612.12 562 1556.12 677 1528.62 787 1529.62 901 1553.62 1015 1616.07 1120 1609.25 1233 1592.66 1349 1611.01 1459.73 1612.12 1571 1598.04 1686 1564.12 1800 1534.29 1912 1602.12 2021.73 1653.62 2135 1673.62 2243 1666.12 2358 1668.12 2469.67 1625.62 2582.67 1542.12 2692.83 1476.12 2805.83 1519.62 2692.83 1550.62 2583 1376.62 2469.73 1302.12 2358 860.62 2243 1090.12 2134.73 1270.62 2022 1381.62 1911.73 1467.62 1800 1526.62 1686 1560.12 1570.73 1578.12 1459.17 1578.12 1348.67 1580.62 1232.67 1528.12 1120 1517.12 1014.67 1495.62 901 1490.12 786.73 1514.12 677 1543.62 562 1565.12 450 1532.62 340 1523.62 227.73 1530.62 115.73 1544.12 0 1568.62 -113 1513.12 -224 1490.62 -336 1498.12 -448 1542.12 -558.27 1567.12 -673 1554.62 -785 1555.62 -893.83" fill="none" stroke="#3b4351" stroke-miterlimit="10"/><polygon id="Greeks" points="1131.14 1120 1118.7 1015 998.71 901 683.72 787 467.73 677 287.74 562 231.95 450 205.28 340 169.95 228 149.95 116 137.95 0 116.62 -113 111.95 -224 95.28 -336 85.95 -448 75.42 -558 75.42 -731.33 75.42 -2021 142.25 -1907 145.25 -1793 155.75 -1681 172.25 -1569 202.25 -1459 223.25 -1345 251.62 -1232 250.62 -1121 221.95 -1007.16 228.6 -895.27 199.95 -785.16 217.95 -673.16 237.43 -558 262.62 -448 259.95 -336 319.29 -224 349.95 -113 401.29 0 527.28 116 645.95 228 761.95 340 965.29 450 965.95 562 897.95 676.17 910.76 786.73 1099.37 901 1168.66 1015.09 1131.14 1120" fill="none" stroke="#3b4351" stroke-miterlimit="10"/><polygon id="Egyptians" points="1195.2 1230.31 1131.14 1120 1168.66 1015.09 1099.2 900.73 910.76 786.73 897.95 676.17 965.95 562 965.28 449.5 761.95 340 645.95 228 527.28 116 401.29 0 349.95 -113 319.29 -224 259.95 -336 262.62 -448 238.62 -558 217.95 -673 199.95 -785 228.62 -895 221.62 -1008 250.62 -1121 251.62 -1232 223.25 -1345 271.57 -1459 265.25 -1569 305.74 -1681 341.74 -1793 376.24 -1907 440.74 -2021 467.73 -2131.09 443.74 -2244 381.96 -2358 242.75 -2473 298.62 -2585 424.24 -2697 460.24 -2807.5 397.24 -2919.5 319.24 -3032.16 319.24 -3142.83 298.62 -3254.83 1103.77 -3254.83 1042.62 -3142.83 982.62 -3032.16 940.62 -2919.5 786.62 -2807.5 663.62 -2697 633.62 -2585 662.62 -2473 656.62 -2358.08 733.62 -2244.27 800.62 -2132.83 770.62 -2021 750.62 -1907 785.62 -1793 835.62 -1681 742.62 -1569 658.62 -1459 439.62 -1345 400.62 -1232 361.62 -1121 302.62 -1008 310.62 -895 282.62 -785 271.95 -673 305.95 -448 323.95 -336.5 432.62 -224 476.62 -113.83 451.95 0 555.95 116 667.28 228 813.28 340 968.62 450 995.95 562 968.62 676.84 940.62 785.5 1130.91 900.73 1189.62 1015.67 1157.7 1120 1195.2 1230.31" fill="none" stroke="#3b4351" stroke-miterlimit="10"/><polygon id="Chinese" points="1610.76 -895.27 1609.69 -1008.27 1608.62 -1121.33 1585.12 -1232 1551.62 -1345 1509.12 -1459 1538.12 -1569.27 1586.62 -1681.27 1616.12 -1793 1645.62 -1907.27 1697.12 -2021.27 1714.62 -2132.33 1689.12 -2244 1700.12 -2358 1676.62 -2473 1650.62 -2585.33 1630.62 -2697 1620.62 -2807.5 1646.62 -2919.5 1667.62 -3032.16 1651.62 -3142.83 1633.99 -3254.83 1768.79 -3254.83 1768.79 4945.83 1768.79 5060.73 1766.12 5172.83 1757.62 5284.83 1736.12 5397.73 1676.12 5509.73 1661.12 5620.83 1663.62 5734.66 1606.12 5734.66 1606.12 5620.73 1620.12 5509.83 1701.62 5397.83 1696.12 5284.67 1654.12 5172.83 1681.62 5060.83 1739.62 4945.73 1748.62 4832.67 1744.12 4720.67 1685.62 4606.83 1615.12 4496.17 1636.12 4384.83 1738.62 4270.83 1761.12 4155.83 1758.62 4044.83 1732.12 3932.83 1695.62 3818.83 1667.62 3707.83 1651.12 3590.83 1650.12 3482.83 1620.12 3371.83 1585.62 3256.73 1552.62 3142.73 1535.12 3030.83 1516.12 2919.73 1476.12 2805.83 1542.12 2692.83 1625.62 2582.67 1668.12 2469.67 1666.12 2358 1673.62 2243 1653.62 2135 1602.12 2021.73 1534.12 1911.73 1564.12 1800 1598.12 1685.73 1612.12 1571 1611.01 1459.73 1592.62 1348.73 1609.25 1233 1616.07 1120 1553.62 1015 1529.62 901 1528.62 786.73 1555.62 677 1612.12 562 1621.12 450 1587.12 340 1567.62 228 1576.62 116 1571.12 0 1584.62 -113.27 1558.62 -224 1545.62 -336.27 1557.62 -448.27 1599.62 -558 1625.12 -673.27 1613.62 -785.27 1610.76 -895.27" fill="none" stroke="#3b4351" stroke-miterlimit="10"/><polygon id="Amorites" points="1263.29 -893.83 1240.62 -785 1322.62 -673 1294.62 -558 1242.62 -448.27 1205.62 -336.27 1176.62 -224.27 1041.62 -113.27 866.62 0 767.62 116 788.62 228 890.71 339.73 762.62 227.73 716.62 115.73 709.62 0 755.62 -113 1054.29 -224.27 1156.62 -336 1173.62 -449.83 1199.62 -559.83 1138.62 -673 910.76 -785 832.62 -895.27 949.95 -1008 1040.62 -1121.27 1141.31 -1232 1225.29 -1345.16 1147.62 -1459 1085.29 -1569 1061.29 -1681.27 1028.62 -1793.27 971.95 -1907.16 961.95 -2021.83 992.62 -2132 910.76 -2244.27 853.28 -2358 826.62 -2473 785.95 -2585 823.95 -2697 910.76 -2807.5 1027.29 -2919.5 1025.29 -3032.16 1091.29 -3142.83 1152.07 -3254.83 1283.88 -3254.83 1268.62 -3142.83 1277.29 -3033.16 1275.29 -2919.5 1198.62 -2807.5 1131.29 -2697 1153.95 -2585 1156.67 -2473.27 1161.95 -2358 1153.95 -2245.16 1188.62 -2132.5 1137.95 -2021.16 1153.29 -1907.83 1175.95 -1793 1140.62 -1682.5 1163.29 -1569.16 1217.95 -1459.83 1280.62 -1345 1241.29 -1232.5 1211.95 -1122.5 1235.95 -1008 1263.29 -893.83" fill="none" stroke="#3b4351" stroke-miterlimit="10"/><polygon id="Assyrian_Kingdom" data-name="Assyrian Kingdom" points="631.95 -895.27 635.28 -1008 679.9 -1121 701.28 -1232 799.28 -1345 980.62 -1459 1007.95 -1569 1020.62 -1681 998.62 -1793 971.95 -1907.16 1028.62 -1793.27 1061.29 -1681.27 1085.29 -1569 1147.62 -1459 1225.29 -1345.16 1141.31 -1232 1040.62 -1121.27 949.95 -1008 832.62 -895.27 910.76 -785 1138.62 -673 1199.62 -559.83 1173.62 -449.83 1156.62 -336 1054.29 -224.27 755.62 -113 709.62 0 716.62 115.73 658.28 0 654.62 -113 630.95 -224 510.62 -336 518.62 -448 595.95 -558 638.62 -673 643.28 -785 631.95 -895.27" fill="none" stroke="#3b4351" stroke-miterlimit="10"/><polygon id="Hebrews" points="635.28 -1008 631.95 -895.27 643.28 -785 638.62 -673 595.95 -558 518.62 -448 510.62 -336 630.95 -224 654.62 -113 658.28 0 716.62 115.73 647.18 0 644.62 -113 617.95 -224 493.29 -336 500.03 -448 570.62 -558 613.28 -672 583.28 -785 569.28 -895 511.95 -1008 573.95 -1121 630.62 -1232 697.58 -1345 921.28 -1459 989.95 -1569 1020.62 -1681 1007.95 -1569 980.62 -1459 799.28 -1345 701.28 -1232 679.9 -1121 635.28 -1008" fill="none" stroke="#3b4351" stroke-miterlimit="10"/><polygon id="Lydians" points="611.95 0 624.62 116 667.28 228 555.95 116 451.95 0 476.62 -113.83 465.29 -224 375.82 -336 523.28 -224 608.62 -113 611.95 0" fill="none" stroke="#3b4351" stroke-miterlimit="10"/><polygon points="1130.91 900.73 940.62 785.5 968.62 676.84 995.95 562 968.62 450 813.28 340 667.28 228 624.62 116 611.95 0 608.62 -113 523.28 -224 375.82 -336 387.95 -448 383.29 -558 359.29 -673 340.62 -783.84 347.74 -895.27 394.24 -1008 481.23 -1121 566.62 -1232 623.95 -1345 857.28 -1459 954.62 -1571.16 975.28 -1681.16 969.28 -1793 971.95 -1907.16 998.62 -1793 1020.62 -1681 989.95 -1569 921.28 -1459 697.58 -1345 630.62 -1232 573.95 -1121 511.95 -1008 538.62 -895 509.95 -785 479.29 -673 428.62 -558 439.95 -448 493.29 -336 617.95 -224 644.62 -113 647.18 0 716.62 115.73 762.62 227.73 890.71 339.73 1086.62 450 1219.62 562 1225.12 677 1186.62 787 1130.91 900.73" fill="none" stroke="#3b4351" stroke-miterlimit="10"/></g><g id="Text"><g id="Greeks-2" data-name="Greeks"><path d="M423.62,11.5h2l2.64,10h-1.67L426,19.05h-2.92l-.65,2.45h-1.67Zm2.13,6.27-1.15-4.93h0l-1.19,4.93Z" fill="#3b4351"/><path d="M428.9,11.5h1.51v3.28l0,0a2.15,2.15,0,0,1,1.85-1c1.15,0,1.88.52,1.88,2V21.5h-1.52V16.33c0-1-.28-1.36-1.05-1.36-.61,0-1.2.48-1.2,1.47V21.5H428.9Z" fill="#3b4351"/><path d="M435.7,14h1.43v.89h0A2.09,2.09,0,0,1,439,13.77a1.64,1.64,0,0,1,1.75,1.15,2,2,0,0,1,1.9-1.15c1.07,0,1.84.54,1.84,2V21.5H443V16.33c0-1-.29-1.36-.91-1.36s-1.2.48-1.2,1.47V21.5h-1.51V16.33c0-1-.3-1.36-.93-1.36s-1.19.49-1.19,1.47V21.5H435.7Z" fill="#3b4351"/><path d="M445.69,17.73c0-2.35.62-4,2.81-4s2.81,1.61,2.81,4-.73,4-2.81,4S445.69,20.09,445.69,17.73Zm2.81,2.85c1.1,0,1.3-.93,1.3-2.85,0-1.66-.2-2.84-1.3-2.84s-1.29,1.18-1.29,2.84C447.21,19.65,447.42,20.58,448.5,20.58Z" fill="#3b4351"/><path d="M455.72,16.16V16c0-.6-.21-1.17-1-1.17-.61,0-1.08.27-1.08,1s.26.82,1.06,1.1l1,.34a2,2,0,0,1,1.64,2.17c0,1.61-1.19,2.3-2.71,2.3-1.9,0-2.48-.89-2.48-2.34v-.28h1.35v.24c0,.88.29,1.34,1.18,1.34s1.23-.42,1.23-1.11a1.09,1.09,0,0,0-.83-1.1L453.83,18a2,2,0,0,1-1.61-2.17c0-1.41,1-2.07,2.58-2.07,1.92,0,2.35,1.12,2.35,2.06v.33Z" fill="#3b4351"/><path d="M459.74,17.93v.43c0,1,.12,2.3,1.26,2.3s1.2-1.22,1.2-1.68h1.43A2.48,2.48,0,0,1,461,21.7c-1.23,0-2.76-.37-2.76-3.86,0-2,.44-4.07,2.79-4.07,2.1,0,2.66,1.27,2.66,3.36v.8Zm2.42-1v-.4c0-1-.31-1.69-1.16-1.69s-1.26,1-1.26,1.94v.15Z" fill="#3b4351"/><path d="M468.3,11.5h1.6v10h-1.6Z" fill="#3b4351"/><path d="M471.41,11.5H473v10h-1.6Z" fill="#3b4351"/><path d="M474.65,19.65h1.59V21.5h-1.59Z" fill="#3b4351"/><path d="M462.16,48.61h3.17c1.92,0,2.76,1.21,2.76,2.92a2.72,2.72,0,0,1-2.93,2.95h-1.4v4.14h-1.6Zm1.6,4.67h1.13a1.5,1.5,0,0,0,1.6-1.72c0-1.08-.43-1.74-1.71-1.74h-1Z" fill="#3b4351"/><path d="M472.31,53.28v-.2c0-.6-.21-1.16-1-1.16-.6,0-1.08.27-1.08,1s.27.83,1.06,1.11l1,.33a2,2,0,0,1,1.64,2.17c0,1.62-1.19,2.3-2.7,2.3-1.91,0-2.48-.88-2.48-2.34v-.28h1.34v.24c0,.88.3,1.35,1.18,1.35s1.23-.43,1.23-1.11a1.09,1.09,0,0,0-.83-1.11l-1.23-.43A2,2,0,0,1,468.81,53c0-1.42,1-2.08,2.58-2.08,1.92,0,2.35,1.12,2.35,2.06v.34Z" fill="#3b4351"/><path d="M480,57.05c0,.28.17.53.39.53a.78.78,0,0,0,.26,0v1a1.63,1.63,0,0,1-.75.18c-.67,0-1.23-.27-1.27-1h0a2,2,0,0,1-1.88,1.1c-1.21,0-2-.66-2-2.11a2.09,2.09,0,0,1,1.75-2.37l1.18-.32c.55-.16.88-.31.88-1s-.24-1.12-1-1.12c-1,0-1.15.71-1.15,1.44h-1.43c0-1.61.66-2.48,2.65-2.48,1.33,0,2.39.52,2.39,1.85Zm-1.43-2.41a12.39,12.39,0,0,1-1.68.7,1.24,1.24,0,0,0-.61,1.22c0,.63.3,1.13.93,1.13.91,0,1.36-.67,1.36-1.79Z" fill="#3b4351"/><path d="M481.58,51.08H483V52h0a2.12,2.12,0,0,1,1.81-1.08A1.65,1.65,0,0,1,486.61,52a2,2,0,0,1,1.9-1.15c1.07,0,1.84.55,1.84,2v5.73h-1.52V53.45c0-1-.29-1.36-.91-1.36s-1.2.47-1.2,1.47v5.06h-1.51V53.45c0-1-.3-1.36-.93-1.36s-1.19.49-1.19,1.47v5.06h-1.51Z" fill="#3b4351"/><path d="M491.2,51.08h1V48.94h1.52v2.14H495V52.2h-1.23v4.5c0,.6.16.8.68.8a2.64,2.64,0,0,0,.55,0v1.12a4.64,4.64,0,0,1-1.22.13c-1,0-1.53-.29-1.53-1.82V52.2h-1Z" fill="#3b4351"/><path d="M495.83,48.5h1.51V50h-1.51Zm0,2.58h1.51v7.54h-1.51Z" fill="#3b4351"/><path d="M498.87,48.61h1.51v5.62h0l2.28-3.15h1.75L502.17,54l2.57,4.64h-1.66l-1.84-3.44-.86,1v2.4h-1.51Z" fill="#3b4351"/><path d="M508.74,48.61h1.6v10h-1.6Z" fill="#3b4351"/><path d="M511.85,48.61h1.59v10h-1.59Z" fill="#3b4351"/><path d="M515,48.61h1.6v10H515Z" fill="#3b4351"/><path d="M478.86,74.69h0a1.62,1.62,0,0,1-1.66,1.12c-1.75,0-2.46-1.48-2.46-4.06,0-3.35,1.18-3.87,2.32-3.87A1.74,1.74,0,0,1,478.74,69h0V65.61h1.51v10h-1.42Zm-1.38-5.6c-.85,0-1.17.7-1.17,2.73,0,1.71.21,2.79,1.27,2.79s1.28-1,1.28-2.68C478.86,70.12,478.66,69.09,477.48,69.09Z" fill="#3b4351"/><path d="M483,72v.44c0,1,.13,2.3,1.26,2.3s1.21-1.22,1.21-1.69h1.42a2.47,2.47,0,0,1-2.64,2.72c-1.24,0-2.76-.36-2.76-3.85,0-2,.43-4.08,2.78-4.08,2.11,0,2.67,1.28,2.67,3.37V72Zm2.42-1V70.6c0-.95-.31-1.68-1.16-1.68s-1.26,1-1.26,1.93V71Z" fill="#3b4351"/><path d="M488.68,69.2h-1.05V68.08h1.05v-.7c0-1.42.69-1.88,1.92-1.88.32,0,.6,0,.83,0v1.17H491c-.56,0-.82.21-.82.71v.66h1.24V69.2h-1.24v6.42h-1.51Z" fill="#3b4351"/><path d="M493.41,72v.44c0,1,.13,2.3,1.26,2.3s1.21-1.22,1.21-1.69h1.43a2.48,2.48,0,0,1-2.65,2.72c-1.23,0-2.76-.36-2.76-3.85,0-2,.44-4.08,2.79-4.08,2.1,0,2.66,1.28,2.66,3.37V72Zm2.43-1V70.6c0-.95-.31-1.68-1.17-1.68s-1.26,1-1.26,1.93V71Z" fill="#3b4351"/><path d="M503.54,74.05c0,.28.17.53.39.53a.72.72,0,0,0,.25,0v1a1.58,1.58,0,0,1-.74.18c-.67,0-1.23-.27-1.28-1h0a2,2,0,0,1-1.88,1.1c-1.22,0-2-.66-2-2.11a2.08,2.08,0,0,1,1.75-2.37l1.18-.32c.54-.16.88-.31.88-1s-.24-1.12-1-1.12c-1,0-1.15.71-1.15,1.44H498.5c0-1.61.65-2.48,2.64-2.48,1.33,0,2.4.52,2.4,1.85Zm-1.43-2.41a12.39,12.39,0,0,1-1.68.7,1.23,1.23,0,0,0-.62,1.22c0,.63.31,1.13.94,1.13.91,0,1.36-.67,1.36-1.79Z" fill="#3b4351"/><path d="M504.4,68.08h1V65.94H507v2.14h1.23V69.2H507v4.5c0,.6.17.8.69.8a2.61,2.61,0,0,0,.54,0v1.12a4.56,4.56,0,0,1-1.21.13c-1,0-1.53-.29-1.53-1.82V69.2h-1Z" fill="#3b4351"/><path d="M510.27,72v.44c0,1,.13,2.3,1.26,2.3s1.21-1.22,1.21-1.69h1.42a2.47,2.47,0,0,1-2.64,2.72c-1.24,0-2.76-.36-2.76-3.85,0-2,.43-4.08,2.78-4.08,2.11,0,2.67,1.28,2.67,3.37V72Zm2.42-1V70.6c0-.95-.3-1.68-1.16-1.68s-1.26,1-1.26,1.93V71Z" fill="#3b4351"/><path d="M519.3,74.69h0a1.61,1.61,0,0,1-1.65,1.12c-1.75,0-2.47-1.48-2.47-4.06,0-3.35,1.18-3.87,2.33-3.87A1.74,1.74,0,0,1,519.19,69h0V65.61h1.51v10H519.3Zm-1.37-5.6c-.86,0-1.18.7-1.18,2.73,0,1.71.21,2.79,1.28,2.79s1.27-1,1.27-2.68C519.3,70.12,519.1,69.09,517.93,69.09Z" fill="#3b4351"/><path d="M473.27,82.61h1.52V86h0a1.75,1.75,0,0,1,1.71-1.08c1.15,0,2.33.52,2.33,3.87,0,2.59-.72,4.06-2.47,4.06a1.61,1.61,0,0,1-1.65-1.12h0v.93h-1.43Zm2.71,9c1.06,0,1.27-1.08,1.27-2.79,0-2-.32-2.73-1.18-2.73-1.17,0-1.37,1-1.37,2.84C474.7,90.56,474.94,91.61,476,91.61Z" fill="#3b4351"/><path d="M480.85,85.08l1.3,5.66h0l1.2-5.66H485l-2.07,7.82c-.6,2.06-1.06,2.34-2.63,2.29a3,3,0,0,1-.6,0V93.93a2,2,0,0,0,.49.06c.51,0,.85-.1,1-.59l.2-.62-2.15-7.7Z" fill="#3b4351"/><path d="M495.41,89v.21c0,1.81-.74,3.57-3.08,3.57-2.52,0-3.31-1.62-3.31-5.19s.79-5.2,3.32-5.2c2.84,0,3,2.09,3,3.14v.18h-1.59v-.17c0-.94-.28-2-1.43-1.95s-1.71.73-1.71,3.95.52,4,1.71,4c1.34,0,1.48-1.47,1.48-2.41V89Z" fill="#3b4351"/><path d="M501.37,91.05c0,.28.17.53.4.53a.76.76,0,0,0,.25,0v1a1.63,1.63,0,0,1-.75.18c-.67,0-1.23-.27-1.27-1h0a1.94,1.94,0,0,1-1.87,1.1c-1.22,0-2-.66-2-2.11a2.09,2.09,0,0,1,1.75-2.37l1.18-.32c.55-.16.88-.31.88-1s-.23-1.12-1-1.12c-1,0-1.15.71-1.15,1.44h-1.43c0-1.61.66-2.48,2.65-2.48,1.33,0,2.39.52,2.39,1.85Zm-1.43-2.41a11.88,11.88,0,0,1-1.68.7,1.24,1.24,0,0,0-.61,1.22c0,.63.3,1.13.94,1.13.91,0,1.35-.67,1.35-1.79Z" fill="#3b4351"/><path d="M503,85.08h1.43V86h0a2.12,2.12,0,0,1,1.81-1.08A1.64,1.64,0,0,1,508,86a2,2,0,0,1,1.9-1.15c1.07,0,1.84.55,1.84,2v5.73h-1.51V87.45c0-1-.3-1.36-.91-1.36s-1.21.47-1.21,1.47v5.06h-1.51V87.45c0-1-.3-1.36-.93-1.36s-1.19.49-1.19,1.47v5.06H503Z" fill="#3b4351"/><path d="M514.28,85.08l1.3,5.66h0l1.2-5.66h1.59l-2.08,7.82c-.6,2.06-1.06,2.34-2.63,2.29a3,3,0,0,1-.6,0V93.93a2.05,2.05,0,0,0,.49.06c.52,0,.85-.1,1-.59l.2-.62-2.15-7.7Z" fill="#3b4351"/><path d="M522.48,87.28v-.2c0-.6-.21-1.16-1-1.16-.6,0-1.08.27-1.08,1s.27.83,1.07,1.11l1,.33a2,2,0,0,1,1.64,2.17c0,1.62-1.19,2.3-2.7,2.3-1.91,0-2.48-.88-2.48-2.34v-.28h1.34v.24c0,.88.3,1.35,1.18,1.35s1.23-.43,1.23-1.11a1.09,1.09,0,0,0-.82-1.11l-1.24-.43A2,2,0,0,1,519,87c0-1.42,1-2.08,2.58-2.08,1.92,0,2.35,1.12,2.35,2.06v.34Z" fill="#3b4351"/><path d="M526.5,89v.44c0,1,.13,2.3,1.26,2.3S529,90.56,529,90.09h1.42a2.47,2.47,0,0,1-2.64,2.72c-1.24,0-2.76-.36-2.76-3.85,0-2,.43-4.08,2.78-4.08,2.11,0,2.67,1.28,2.67,3.37V89Zm2.42-1V87.6c0-.95-.3-1.68-1.16-1.68s-1.26,1-1.26,1.93V88Z" fill="#3b4351"/><path d="M534.93,87.28v-.2c0-.6-.21-1.16-1-1.16-.6,0-1.07.27-1.07,1s.26.83,1.06,1.11l1,.33a2,2,0,0,1,1.64,2.17c0,1.62-1.19,2.3-2.71,2.3-1.9,0-2.48-.88-2.48-2.34v-.28h1.35v.24c0,.88.29,1.35,1.17,1.35s1.24-.43,1.24-1.11a1.09,1.09,0,0,0-.83-1.11L533,89.13A2,2,0,0,1,531.43,87c0-1.42,1-2.08,2.57-2.08,1.92,0,2.36,1.12,2.36,2.06v.34Z" fill="#3b4351"/><path d="M537.8,90.77h1.59v1.85H537.8Z" fill="#3b4351"/></g><g id="Iranians-2" data-name="Iranians"><path d="M804.5,91.73h5c5.49,0,6.17,3.57,6.17,8.74s-.68,8.75-6.17,8.75h-5Zm2.8,15.39h2.3c2.3,0,3.26-1.52,3.26-6.65,0-4.92-.83-6.64-3.26-6.64h-2.3Z" fill="#3b4351"/><path d="M826.6,106.48c0,.49.3.93.69.93a1,1,0,0,0,.44-.07v1.71a2.83,2.83,0,0,1-1.3.32c-1.17,0-2.15-.47-2.23-1.74h-.05a3.4,3.4,0,0,1-3.28,1.94c-2.13,0-3.43-1.15-3.43-3.7,0-2.94,1.3-3.56,3.06-4.15l2.06-.56c1-.27,1.54-.54,1.54-1.69s-.41-2-1.81-2c-1.76,0-2,1.25-2,2.52h-2.5c0-2.81,1.15-4.33,4.63-4.33,2.33,0,4.19.9,4.19,3.23Zm-2.5-4.22a20,20,0,0,1-2.94,1.23,2.16,2.16,0,0,0-1.07,2.13c0,1.1.53,2,1.64,2,1.59,0,2.37-1.18,2.37-3.14Z" fill="#3b4351"/><path d="M829.3,96h2.64V98.1h0a3.26,3.26,0,0,1,3.07-2.4,1.53,1.53,0,0,1,.63.09v2.7a3.73,3.73,0,0,0-1.1-.15c-1.2,0-2.65.54-2.65,3v7.89H829.3Z" fill="#3b4351"/><path d="M837.14,91.53h2.64v2.65h-2.64Zm0,4.51h2.64v13.18h-2.64Z" fill="#3b4351"/><path d="M849.19,107.68h-.07a3.77,3.77,0,0,1-3.38,1.89c-2,0-3.29-.91-3.29-4.32V96h2.65v9.46c0,1.47.64,2,1.79,2a2.06,2.06,0,0,0,2.15-2.21V96h2.65v13.18h-2.5Z" fill="#3b4351"/><path d="M859.92,99.89v-.35c0-1.05-.37-2-1.74-2-1,0-1.89.47-1.89,1.72,0,1,.47,1.44,1.87,1.93l1.69.59c2,.66,2.87,1.71,2.87,3.8,0,2.82-2.09,4-4.73,4-3.34,0-4.34-1.55-4.34-4.1V105H856v.42c0,1.54.52,2.35,2.06,2.35s2.16-.73,2.16-1.93a1.91,1.91,0,0,0-1.45-1.94l-2.16-.76c-2-.66-2.81-1.69-2.81-3.8,0-2.47,1.76-3.62,4.5-3.62,3.36,0,4.12,2,4.12,3.6v.59Z" fill="#3b4351"/><path d="M1096.55,91.71h5.54c3.36,0,4.83,2.11,4.83,5.1s-1.86,5.17-5.12,5.17h-2.45v7.23h-2.8Zm2.8,8.17h2c1.49,0,2.79-.79,2.79-3,0-1.89-.76-3-3-3h-1.78Z" fill="#3b4351"/><path d="M1110.91,103v.76c0,1.77.22,4,2.2,4s2.11-2.13,2.11-2.94h2.5c0,3-1.76,4.76-4.63,4.76-2.16,0-4.83-.64-4.83-6.74,0-3.46.76-7.13,4.88-7.13,3.67,0,4.66,2.23,4.66,5.88V103Zm4.24-1.81v-.71c0-1.67-.54-2.94-2-2.94-1.66,0-2.2,1.67-2.2,3.38v.27Z" fill="#3b4351"/><path d="M1120,96h2.65v2.06h.05a3.26,3.26,0,0,1,3.06-2.4,1.61,1.61,0,0,1,.64.09v2.7a3.84,3.84,0,0,0-1.1-.15c-1.2,0-2.65.54-2.65,3v7.89H1120Z" fill="#3b4351"/><path d="M1133.38,99.88v-.35c0-1-.37-2-1.74-2-1.06,0-1.89.46-1.89,1.71,0,1.06.47,1.45,1.86,1.94l1.69.59c2,.66,2.87,1.71,2.87,3.8,0,2.81-2.08,4-4.73,4-3.33,0-4.34-1.55-4.34-4.1V105h2.36v.42c0,1.54.51,2.35,2,2.35s2.16-.73,2.16-1.93a1.91,1.91,0,0,0-1.45-1.94l-2.15-.76c-2-.66-2.82-1.69-2.82-3.8,0-2.47,1.76-3.62,4.51-3.62,3.36,0,4.12,2,4.12,3.6v.59Z" fill="#3b4351"/><path d="M1138.25,91.52h2.65v2.65h-2.65Zm0,4.51h2.65v13.18h-2.65Z" fill="#3b4351"/><path d="M1152.22,106.47c0,.49.29.93.68.93a1.14,1.14,0,0,0,.44-.07V109a2.78,2.78,0,0,1-1.29.32c-1.18,0-2.16-.47-2.24-1.74h0a3.41,3.41,0,0,1-3.29,1.94c-2.13,0-3.43-1.16-3.43-3.71,0-2.94,1.3-3.55,3.06-4.14l2.06-.56c1-.27,1.55-.54,1.55-1.69s-.42-2-1.82-2c-1.76,0-2,1.25-2,2.52h-2.5c0-2.82,1.16-4.33,4.64-4.33,2.32,0,4.19.9,4.19,3.23Zm-2.5-4.22a21,21,0,0,1-2.94,1.23,2.17,2.17,0,0,0-1.08,2.13c0,1.1.54,2,1.64,2,1.59,0,2.38-1.17,2.38-3.13Z" fill="#3b4351"/><path d="M1154.91,96h2.5v1.54h.07a3.78,3.78,0,0,1,3.38-1.88c2,0,3.29.9,3.29,3.57v9.95h-2.65v-9c0-1.76-.46-2.38-1.84-2.38-1.07,0-2.1.81-2.1,2.58v8.84h-2.65Z" fill="#3b4351"/><path d="M1172.74,91.71h9.46v2.36h-6.66v4.85h6.27v2.35h-6.27v5.59h6.86v2.35h-9.66Z" fill="#3b4351"/><path d="M1184.48,96h2.5v1.54h.07a3.72,3.72,0,0,1,3.17-1.88,2.86,2.86,0,0,1,3.06,2,3.6,3.6,0,0,1,3.33-2c1.86,0,3.21,1,3.21,3.5v10h-2.65v-9c0-1.74-.51-2.38-1.59-2.38s-2.11.84-2.11,2.58v8.84h-2.64v-9c0-1.74-.52-2.38-1.62-2.38s-2.08.86-2.08,2.58v8.84h-2.65Z" fill="#3b4351"/><path d="M1208.17,109.56a3,3,0,0,1-3-1.89h0v5.86h-2.64V96h2.5v1.62h0a3.1,3.1,0,0,1,3-2c3,0,4.24,2.57,4.24,7.1C1212.24,108.33,1210,109.56,1208.17,109.56Zm-1-11.77c-1.82,0-2.23,1.84-2.23,4.68,0,3.16.39,5,2.25,5,1.5,0,2.21-1.13,2.21-4.78C1209.45,99.68,1209.08,97.79,1207.22,97.79Z" fill="#3b4351"/><path d="M1214.39,91.52H1217v2.65h-2.65Zm0,4.51H1217v13.18h-2.65Z" fill="#3b4351"/><path d="M1219.71,96h2.65v2.06h.05a3.24,3.24,0,0,1,3.06-2.4,1.61,1.61,0,0,1,.64.09v2.7a3.87,3.87,0,0,0-1.11-.15c-1.2,0-2.64.54-2.64,3v7.89h-2.65Z" fill="#3b4351"/><path d="M1229.56,103v.76c0,1.77.22,4,2.21,4s2.1-2.13,2.1-2.94h2.5c0,3-1.76,4.76-4.63,4.76-2.16,0-4.83-.64-4.83-6.74,0-3.46.76-7.13,4.88-7.13,3.68,0,4.66,2.23,4.66,5.88V103Zm4.24-1.81v-.71c0-1.67-.54-2.94-2-2.94-1.67,0-2.21,1.67-2.21,3.38v.27Z" fill="#3b4351"/></g></g></svg>