<svg xmlns="http://www.w3.org/2000/svg" viewBox="0 0 1847.91 112"><title>bc0650text</title><g id="YEARS"><g id="Right"><path d="M1785.42,94.29c0-1.06-.52-2.39-2-2.39-2.78,0-2.94,3.64-2.94,6.35l.08,0a3.77,3.77,0,0,1,3.59-2c2.52,0,4.55,1.82,4.55,5.48,0,4.24-1.77,6.76-5.64,6.76-4.66,0-5.54-3.53-5.54-8.81,0-5.51,1-10,5.87-10,3.25,0,5,1.43,5,4.47Zm-2.11,12.22c1.79,0,2.44-1.79,2.44-4,0-2.57-.75-4-2.44-4-2.18,0-2.55,1.9-2.55,4.11S1781.57,106.51,1783.31,106.51Z"/><path d="M1790.2,103.26H1793v.5a2.35,2.35,0,0,0,2.42,2.6c2.08,0,2.62-2,2.62-4.19s-.57-3.92-2.47-3.92a2.35,2.35,0,0,0-2.42,1.69l-2.62-.11.91-9.65h8.86v2.37h-6.65l-.6,4.84,0,0a4.06,4.06,0,0,1,3.1-1.43c3.84,0,4.81,3.25,4.81,6.08,0,3.7-1.69,6.5-5.67,6.5-3.3,0-5.15-1.69-5.15-4.94Z"/><path d="M1808.09,89.82c3.53,0,5.51,2.21,5.51,9.39s-2,9.38-5.51,9.38-5.51-2.21-5.51-9.38S1804.55,89.82,1808.09,89.82Zm0,16.69c2,0,2.55-2,2.55-7.3s-.55-7.31-2.55-7.31-2.55,2-2.55,7.31S1806.09,106.51,1808.09,106.51Z"/></g><g id="Layer_34" data-name="Layer 34"><path d="M25.67,97.89c0-1.07-.52-2.39-2-2.39-2.78,0-2.94,3.64-2.94,6.34l.08,0a3.79,3.79,0,0,1,3.59-2c2.52,0,4.55,1.82,4.55,5.49,0,4.24-1.77,6.76-5.64,6.76-4.66,0-5.54-3.53-5.54-8.81,0-5.52,1-10,5.87-10,3.25,0,5,1.43,5,4.47Zm-2.11,12.22c1.8,0,2.44-1.79,2.44-4,0-2.58-.75-4-2.44-4-2.18,0-2.55,1.9-2.55,4.11S21.82,110.11,23.56,110.11Z"/><path d="M30.45,106.86h2.81v.49A2.36,2.36,0,0,0,35.68,110c2.08,0,2.62-2,2.62-4.19s-.57-3.93-2.47-3.93a2.36,2.36,0,0,0-2.42,1.69l-2.62-.1.91-9.65h8.86v2.37H33.91l-.6,4.83,0,.06a4.06,4.06,0,0,1,3.1-1.43c3.84,0,4.81,3.25,4.81,6.08,0,3.69-1.69,6.5-5.67,6.5-3.3,0-5.15-1.69-5.15-4.94Z"/><path d="M48.34,93.42c3.53,0,5.51,2.21,5.51,9.38s-2,9.39-5.51,9.39-5.51-2.21-5.51-9.39S44.8,93.42,48.34,93.42Zm0,16.69c2,0,2.55-2,2.55-7.31s-.55-7.3-2.55-7.3-2.55,2-2.55,7.3S46.34,110.11,48.34,110.11Z"/><path d="M33.19-18.58c3.54,0,5.51,2.21,5.51,9.38S36.73.19,33.19.19,27.68-2,27.68-9.2,29.66-18.58,33.19-18.58Zm0,16.69c2,0,2.55-2,2.55-7.31s-.55-7.3-2.55-7.3-2.55,2-2.55,7.3S31.19-1.89,33.19-1.89Z"/><path d="M45.67-18.58c3.54,0,5.51,2.21,5.51,9.38S49.21.19,45.67.19,40.16-2,40.16-9.2,42.13-18.58,45.67-18.58Zm0,16.69c2,0,2.55-2,2.55-7.31s-.55-7.3-2.55-7.3-2.55,2-2.55,7.3S43.67-1.89,45.67-1.89Z"/></g></g></svg>