<svg id="Text" xmlns="http://www.w3.org/2000/svg" viewBox="0 0 1847.91 111"><title>bc0600text</title><g id="Iranians"><path d="M1187.27,8.5h4.36l3.09,13h0l3-13h4.26V26h-2.64V11.44h0L1195.85,26h-2.36L1190,11.44h0V26h-2.65Z"/><path d="M1207.07,19.74v.76c0,1.77.22,4,2.2,4s2.11-2.13,2.11-2.94h2.5c0,3-1.77,4.76-4.63,4.76-2.16,0-4.83-.64-4.83-6.74,0-3.46.76-7.13,4.88-7.13,3.67,0,4.65,2.23,4.65,5.88v1.39Zm4.24-1.81v-.71c0-1.67-.54-2.94-2-2.94-1.66,0-2.2,1.67-2.2,3.38v.27Z"/><path d="M1222.87,24.37h0a2.82,2.82,0,0,1-2.89,2c-3.06,0-4.31-2.6-4.31-7.11,0-5.86,2.05-6.76,4.06-6.76a3,3,0,0,1,3,1.88h0V8.5h2.65V26h-2.5Zm-2.4-9.8c-1.5,0-2.06,1.23-2.06,4.78,0,3,.37,4.88,2.23,4.88s2.23-1.84,2.23-4.68C1222.87,16.39,1222.53,14.57,1220.47,14.57Z"/><path d="M1228,8.3h2.64V11H1228Zm0,4.51h2.64V26H1228Z"/><path d="M1242,23.25c0,.49.3.93.69.93a1.18,1.18,0,0,0,.44-.07v1.71a2.83,2.83,0,0,1-1.3.32c-1.17,0-2.15-.47-2.23-1.74h0a3.4,3.4,0,0,1-3.28,1.94c-2.13,0-3.43-1.16-3.43-3.7,0-2.95,1.3-3.56,3.06-4.15l2.06-.56c1-.27,1.54-.54,1.54-1.69s-.41-2-1.81-2c-1.76,0-2,1.25-2,2.52h-2.5c0-2.82,1.15-4.33,4.63-4.33,2.33,0,4.19.9,4.19,3.23ZM1239.5,19a20,20,0,0,1-2.94,1.23,2.17,2.17,0,0,0-1.08,2.13c0,1.1.54,2,1.65,2,1.59,0,2.37-1.17,2.37-3.13Z"/><path d="M1244.7,12.81h2.5v1.54h.07a3.78,3.78,0,0,1,3.38-1.88c2,0,3.28.9,3.28,3.57V26h-2.64V17c0-1.76-.47-2.38-1.84-2.38-1.08,0-2.11.81-2.11,2.58V26h-2.64Z"/><path d="M1264.69,20.58V21c0,2.13,1,3.21,2.87,3.21a2.51,2.51,0,0,0,2.64-2.55c0-1.84-.93-2.65-2.5-3.11l-1.91-.66c-2.55-1-3.65-2.31-3.65-4.81,0-3.18,2.18-4.95,5.44-4.95,4.48,0,5,2.8,5,4.61v.39h-2.79v-.37c0-1.59-.69-2.52-2.45-2.52a2.24,2.24,0,0,0-2.36,2.52c0,1.5.76,2.26,2.63,3l1.88.69c2.48.88,3.56,2.2,3.56,4.63,0,3.72-2.26,5.27-5.79,5.27-4.33,0-5.32-2.9-5.32-5.35v-.41Z"/><path d="M1281.81,24.45h-.07a3.79,3.79,0,0,1-3.38,1.89c-2,0-3.28-.91-3.28-4.32V12.81h2.64v9.46c0,1.47.64,2,1.79,2a2.06,2.06,0,0,0,2.16-2.21V12.81h2.64V26h-2.5Z"/><path d="M1292.55,26.34a3,3,0,0,1-3-1.89h0v5.86h-2.65V12.81h2.5v1.62h.05a3.1,3.1,0,0,1,3-2c3,0,4.24,2.57,4.24,7.1C1296.61,25.11,1294.38,26.34,1292.55,26.34Zm-1-11.77c-1.81,0-2.23,1.84-2.23,4.68,0,3.16.39,5,2.25,5,1.5,0,2.21-1.13,2.21-4.78C1293.82,16.46,1293.45,14.57,1291.59,14.57Z"/><path d="M1298.64,12.81h2.65v2.06h0a3.26,3.26,0,0,1,3.06-2.4,1.61,1.61,0,0,1,.64.09v2.7a3.84,3.84,0,0,0-1.1-.15c-1.2,0-2.65.54-2.65,3V26h-2.65Z"/><path d="M1308.49,19.74v.76c0,1.77.22,4,2.21,4s2.11-2.13,2.11-2.94h2.5c0,3-1.77,4.76-4.64,4.76-2.15,0-4.82-.64-4.82-6.74,0-3.46.76-7.13,4.87-7.13,3.68,0,4.66,2.23,4.66,5.88v1.39Zm4.24-1.81v-.71c0-1.67-.54-2.94-2-2.94-1.67,0-2.21,1.67-2.21,3.38v.27Z"/><path d="M1317.68,12.81h2.5v1.54h.07a3.69,3.69,0,0,1,3.16-1.88,2.86,2.86,0,0,1,3.07,2,3.6,3.6,0,0,1,3.33-2c1.86,0,3.21.95,3.21,3.5V26h-2.65V17c0-1.74-.51-2.38-1.59-2.38s-2.11.84-2.11,2.58V26H1324V17c0-1.74-.52-2.38-1.62-2.38s-2.08.86-2.08,2.58V26h-2.65Z"/><path d="M1344.34,23.25c0,.49.29.93.68.93a1.24,1.24,0,0,0,.45-.07v1.71a2.86,2.86,0,0,1-1.3.32c-1.18,0-2.16-.47-2.23-1.74h0a3.41,3.41,0,0,1-3.29,1.94c-2.13,0-3.43-1.16-3.43-3.7,0-2.95,1.3-3.56,3.07-4.15l2.06-.56c1-.27,1.54-.54,1.54-1.69s-.42-2-1.81-2c-1.77,0-2,1.25-2,2.52h-2.5c0-2.82,1.15-4.33,4.63-4.33,2.33,0,4.19.9,4.19,3.23Zm-2.5-4.22a20.5,20.5,0,0,1-2.94,1.23,2.17,2.17,0,0,0-1.08,2.13c0,1.1.54,2,1.64,2,1.6,0,2.38-1.17,2.38-3.13Z"/><path d="M1355.93,21.19c-.2,3.16-1.23,5.15-4.51,5.15-3.83,0-4.9-2.82-4.9-6.94s1.07-6.93,4.9-6.93,4.53,3.11,4.53,4.72h-2.64c0-1.22-.32-2.84-1.89-2.76-1.89,0-2.26,2.05-2.26,5s.37,5,2.26,5c1.47,0,2-1.2,2-3.18Z"/><path d="M1359.23,12.81l2.28,9.9h0l2.11-9.9h2.77l-3.63,13.67c-1,3.6-1.86,4.1-4.61,4a4.73,4.73,0,0,1-1-.1V28.3a3.54,3.54,0,0,0,.86.09c.9,0,1.49-.17,1.79-1l.34-1.07-3.75-13.48Z"/></g><g id="Indians"><path d="M1468.24,63H1471V80.49h-2.79Z"/><path d="M1473.8,63h3.41l5.07,13h0V63H1485V80.49h-3.41l-5.07-13.38h0V80.49h-2.65Z"/><path d="M1487.86,63h5c5.49,0,6.17,3.57,6.17,8.74s-.68,8.75-6.17,8.75h-5Zm2.8,15.38h2.3c2.3,0,3.26-1.51,3.26-6.64,0-4.92-.83-6.64-3.26-6.64h-2.3Z"/><path d="M1501.36,63h2.8V80.49h-2.8Z"/><path d="M1510.23,63h3.58l4.61,17.49h-2.92l-1.08-4.29h-5.12l-1.13,4.29h-2.91ZM1514,74l-2-8.62h0L1509.81,74Z"/></g><g id="Chinese"><path d="M1588.36,18.22h2.79V33.37h6.77v2.35h-9.56Z"/><path d="M1608,33c0,.49.29.93.68.93a1,1,0,0,0,.44-.08v1.72a2.83,2.83,0,0,1-1.3.32c-1.17,0-2.15-.47-2.23-1.74h-.05a3.39,3.39,0,0,1-3.28,1.93c-2.13,0-3.43-1.15-3.43-3.7,0-2.94,1.3-3.55,3.06-4.14l2.06-.56c1-.27,1.55-.54,1.55-1.69s-.42-2-1.82-2c-1.76,0-2,1.25-2,2.52h-2.5c0-2.82,1.15-4.34,4.63-4.34,2.33,0,4.2.91,4.2,3.24Zm-2.5-4.22a21.84,21.84,0,0,1-3,1.23,2.17,2.17,0,0,0-1.07,2.13c0,1.1.54,2,1.64,2,1.59,0,2.38-1.17,2.38-3.13Z"/><path d="M1610.21,29.13c0-4.12,1.08-6.94,4.9-6.94S1620,25,1620,29.13s-1.27,6.93-4.93,6.93S1610.21,33.25,1610.21,29.13Zm4.9,5c1.94,0,2.28-1.61,2.28-5,0-2.92-.34-5-2.28-5s-2.25,2.06-2.25,5C1612.86,32.49,1613.23,34.1,1615.11,34.1Z"/><path d="M1621.9,27.39h6.42v2.5h-6.42Z"/><path d="M1633.73,20.58h-4.16V18.22h11v2.36h-4.09V35.72h-2.8Z"/><path d="M1647.72,26.38V26c0-1.05-.36-2-1.74-2-1,0-1.88.46-1.88,1.71,0,1.06.46,1.45,1.86,1.94l1.69.59c2,.66,2.87,1.71,2.87,3.79,0,2.82-2.09,4-4.73,4-3.34,0-4.34-1.54-4.34-4.09v-.49h2.35v.42c0,1.54.52,2.35,2.06,2.35s2.16-.74,2.16-1.94a1.91,1.91,0,0,0-1.45-1.93l-2.16-.76c-2-.66-2.81-1.69-2.81-3.8,0-2.48,1.76-3.63,4.51-3.63,3.35,0,4.11,2,4.11,3.61v.58Z"/><path d="M1654.75,29.47v.76c0,1.77.23,4,2.21,4s2.11-2.13,2.11-2.94h2.5c0,3-1.77,4.75-4.64,4.75-2.15,0-4.82-.63-4.82-6.74,0-3.45.76-7.13,4.87-7.13,3.68,0,4.66,2.23,4.66,5.88v1.4Zm4.24-1.81V27c0-1.67-.54-2.94-2-2.94-1.67,0-2.21,1.66-2.21,3.38v.27Z"/></g><g id="Greeks"><path d="M163.33,78.46h0a3.65,3.65,0,0,1-3.83,2.38c-3.82,0-5.19-2.85-5.19-9.1s1.76-9.09,5.81-9.09a4.77,4.77,0,0,1,5.12,5.05V68h-2.65V67.6c0-1.3-.54-2.84-2.45-2.84s-3,1.32-3,6.91.93,7.06,2.82,7.06c2.13,0,2.92-1.52,2.92-5.34h-2.94V71.28h5.58v9.21h-2.11Z"/><path d="M167.67,67.31h2.65v2.06h0a3.26,3.26,0,0,1,3.07-2.4,1.61,1.61,0,0,1,.64.09v2.7a3.87,3.87,0,0,0-1.11-.15c-1.2,0-2.64.54-2.64,3v7.89h-2.65Z"/><path d="M177.52,74.24V75c0,1.77.22,4,2.2,4s2.11-2.13,2.11-2.94h2.5c0,3-1.76,4.76-4.63,4.76-2.16,0-4.83-.64-4.83-6.74,0-3.46.76-7.13,4.88-7.13,3.67,0,4.65,2.23,4.65,5.88v1.39Zm4.24-1.81v-.71c0-1.67-.54-2.94-2-2.94-1.66,0-2.2,1.67-2.2,3.38v.27Z"/><path d="M188.86,74.24V75c0,1.77.22,4,2.21,4s2.1-2.13,2.1-2.94h2.5c0,3-1.76,4.76-4.63,4.76-2.15,0-4.82-.64-4.82-6.74,0-3.46.76-7.13,4.87-7.13,3.68,0,4.66,2.23,4.66,5.88v1.39Zm4.24-1.81v-.71c0-1.67-.54-2.94-2-2.94-1.67,0-2.21,1.67-2.21,3.38v.27Z"/><path d="M197.93,63h2.64v9.82h.05l4-5.51,3.06,0-4,5.1,4.48,8.11H205.3l-3.23-6-1.5,1.81v4.19h-2.64Z"/><path d="M226.08,74.22v.37c0,3.16-1.3,6.25-5.39,6.25-4.41,0-5.79-2.85-5.79-9.1s1.38-9.09,5.81-9.09c5,0,5.27,3.65,5.27,5.49v.32h-2.79v-.29c0-1.65-.49-3.48-2.5-3.41s-3,1.27-3,6.91.9,7.06,3,7.06c2.35,0,2.6-2.57,2.6-4.22v-.29Z"/><path d="M228,62.8h2.64v2.65H228Zm0,4.51h2.64V80.49H228Z"/><path d="M232.13,67.31h1.81V63.56h2.65v3.75h2.15v2h-2.15v7.87c0,1,.29,1.39,1.2,1.39a4.91,4.91,0,0,0,1-.07v2a8.44,8.44,0,0,1-2.13.22c-1.76,0-2.67-.52-2.67-3.19V69.27h-1.81Z"/><path d="M241.88,67.31l2.28,9.9h.05l2.1-9.9h2.77L245.46,81c-1.06,3.6-1.87,4.1-4.61,4a4.62,4.62,0,0,1-1-.1V82.8a3.51,3.51,0,0,0,.85.09c.91,0,1.5-.17,1.79-1l.35-1.08L239,67.31Z"/><path d="M258.76,75.08v.44c0,2.13.95,3.21,2.87,3.21a2.51,2.51,0,0,0,2.64-2.55c0-1.84-.93-2.65-2.5-3.11l-1.91-.66c-2.55-1-3.65-2.31-3.65-4.81,0-3.18,2.18-4.95,5.44-4.95,4.49,0,5,2.8,5,4.61v.39h-2.79v-.37c0-1.59-.69-2.52-2.45-2.52A2.24,2.24,0,0,0,259,67.28c0,1.5.76,2.26,2.63,3l1.88.69c2.48.88,3.56,2.2,3.56,4.63,0,3.72-2.26,5.27-5.79,5.27-4.33,0-5.31-2.9-5.31-5.35v-.41Z"/><path d="M268,67.31h1.81V63.56h2.65v3.75h2.16v2h-2.16v7.87c0,1,.29,1.39,1.2,1.39a5.1,5.1,0,0,0,1-.07v2a8.58,8.58,0,0,1-2.14.22c-1.76,0-2.67-.52-2.67-3.19V69.27H268Z"/><path d="M284.61,77.75c0,.49.29.93.68.93a1.24,1.24,0,0,0,.45-.07v1.71a2.86,2.86,0,0,1-1.3.32c-1.18,0-2.16-.47-2.23-1.74h0a3.41,3.41,0,0,1-3.29,1.94c-2.13,0-3.43-1.16-3.43-3.7,0-3,1.3-3.56,3.07-4.15l2.05-.56c1-.27,1.55-.54,1.55-1.69s-.42-2-1.82-2c-1.76,0-2,1.25-2,2.52h-2.5c0-2.82,1.15-4.33,4.63-4.33,2.33,0,4.19.9,4.19,3.23Zm-2.5-4.22a20.5,20.5,0,0,1-2.94,1.23,2.17,2.17,0,0,0-1.08,2.13c0,1.1.54,2,1.64,2,1.59,0,2.38-1.17,2.38-3.13Z"/><path d="M286.12,67.31h1.82V63.56h2.64v3.75h2.16v2h-2.16v7.87c0,1,.3,1.39,1.21,1.39a4.91,4.91,0,0,0,.95-.07v2a8.44,8.44,0,0,1-2.13.22c-1.77,0-2.67-.52-2.67-3.19V69.27h-1.82Z"/><path d="M296.39,74.24V75c0,1.77.22,4,2.21,4s2.1-2.13,2.1-2.94h2.5c0,3-1.76,4.76-4.63,4.76-2.16,0-4.83-.64-4.83-6.74,0-3.46.76-7.13,4.88-7.13,3.68,0,4.66,2.23,4.66,5.88v1.39Zm4.24-1.81v-.71c0-1.67-.54-2.94-2-2.94-1.67,0-2.21,1.67-2.21,3.38v.27Z"/><path d="M311.14,71.16v-.35c0-1-.37-2-1.74-2-1,0-1.89.46-1.89,1.71,0,1.06.47,1.45,1.87,1.94l1.69.59c2,.66,2.86,1.71,2.86,3.8,0,2.81-2.08,4-4.73,4-3.33,0-4.33-1.55-4.33-4.1v-.49h2.35v.42c0,1.54.51,2.35,2.06,2.35s2.15-.73,2.15-1.93A1.91,1.91,0,0,0,310,75.15l-2.16-.76c-2-.66-2.82-1.69-2.82-3.8,0-2.47,1.77-3.62,4.51-3.62,3.36,0,4.12,2,4.12,3.6v.59Z"/></g></svg>