<svg xmlns="http://www.w3.org/2000/svg" viewBox="0 0 1847.91 112"><title>bc0650text</title><g id="YEARS"><g id="Right"><path d="M1801.89,88.31c0-1.07-.52-2.39-2-2.39-2.78,0-2.94,3.64-2.94,6.34l.08,0a3.79,3.79,0,0,1,3.59-2c2.52,0,4.55,1.82,4.55,5.49,0,4.24-1.77,6.76-5.64,6.76-4.66,0-5.54-3.53-5.54-8.81,0-5.52,1-10,5.87-10,3.25,0,5,1.43,5,4.47Zm-2.11,12.22c1.79,0,2.44-1.79,2.44-4,0-2.58-.75-4-2.44-4-2.18,0-2.55,1.9-2.55,4.11S1798,100.53,1799.78,100.53Z" fill="#3b4351"/><path d="M1806.67,97.28h2.81v.49a2.35,2.35,0,0,0,2.41,2.6c2.09,0,2.63-2,2.63-4.18s-.57-3.93-2.47-3.93a2.36,2.36,0,0,0-2.42,1.69l-2.62-.1.91-9.65h8.86v2.37h-6.65l-.6,4.83,0,.06a4.06,4.06,0,0,1,3.09-1.43c3.85,0,4.81,3.25,4.81,6.08,0,3.69-1.69,6.5-5.66,6.5-3.31,0-5.15-1.69-5.15-4.94Z" fill="#3b4351"/><path d="M1824.56,83.84c3.53,0,5.51,2.21,5.51,9.38s-2,9.39-5.51,9.39-5.52-2.21-5.52-9.39S1821,83.84,1824.56,83.84Zm0,16.69c2,0,2.54-2,2.54-7.31s-.54-7.3-2.54-7.3-2.55,2-2.55,7.3S1822.55,100.53,1824.56,100.53Z" fill="#3b4351"/></g><g id="left"><path d="M26.85,90.22c0-1.07-.52-2.39-2-2.39-2.78,0-2.93,3.64-2.93,6.34l.07,0a3.79,3.79,0,0,1,3.59-2c2.52,0,4.55,1.82,4.55,5.49,0,4.24-1.77,6.76-5.64,6.76C19.86,104.52,19,101,19,95.7c0-5.51,1-10,5.88-10,3.25,0,5,1.43,5,4.47Zm-2.11,12.22c1.8,0,2.45-1.8,2.45-4,0-2.58-.76-4-2.45-4-2.18,0-2.54,1.9-2.54,4.11S23,102.44,24.74,102.44Z" fill="#3b4351"/><path d="M31.63,99.19h2.81v.49a2.35,2.35,0,0,0,2.42,2.6c2.08,0,2.63-2,2.63-4.18s-.58-3.93-2.47-3.93a2.35,2.35,0,0,0-2.42,1.69L32,95.76l.91-9.65h8.87v2.37H35.09l-.6,4.83.06,0a4,4,0,0,1,3.09-1.43c3.85,0,4.81,3.25,4.81,6.09,0,3.69-1.69,6.5-5.67,6.5-3.3,0-5.15-1.69-5.15-4.94Z" fill="#3b4351"/><path d="M49.52,85.75C53.06,85.75,55,88,55,95.13s-2,9.39-5.51,9.39S44,102.31,44,95.13,46,85.75,49.52,85.75Zm0,16.69c2,0,2.55-2,2.55-7.31s-.55-7.3-2.55-7.3S47,89.8,47,95.13,47.52,102.44,49.52,102.44Z" fill="#3b4351"/></g></g><g id="Nation_OUtlines" data-name="Nation OUtlines"><polygon id="Romans" points="854.62 4942.83 829.93 4829.83 711.95 4720.83 764.62 4606.83 729.95 4491.83 845.28 4380.83 1002.62 4268.83 1065.29 4154.83 1021.28 4043.83 995.34 3926.83 815.28 3818.83 703.28 3707.83 687.28 3592.83 737.95 3478.83 780.62 3366.83 712.62 3255.83 645.95 3141.83 550.62 3028.83 491.95 2919 453.95 2806 455.29 2694 435.95 2579 470.62 2471 322.62 2471 416.12 2358 480.12 2248 410.62 2136 316.95 2022 248.28 1907 210.28 1796 175.95 1685 159.62 1569 91.28 1456 83.12 1351 117.62 1237 151.37 1123 129.62 1013 109.62 898 99.62 786 73.12 676 75.42 -222 85.95 -112 95.28 0 111.95 112 116.62 223 137.95 336 149.95 452 169.95 564 205.28 676 231.95 786 287.74 898 467.73 1013 683.72 1123 998.71 1237 1118.7 1351 1131.14 1456 1195.2 1569 1182.62 1685 1245.62 1796 1220.62 1907 1122.62 2022 981.62 2136 880.12 2248 717.95 2358 593.62 2471 616.62 2579 717.28 2694 839.28 2808.84 863.28 2919 915.28 3028.83 810.62 3141.83 885.95 3255.83 1037.95 3366.83 1125.95 3478.83 1253.95 3592.83 1213.95 3707.83 1202.62 3818.83 1169.95 3926.83 1161.29 4043.83 1218.62 4154.83 1131.95 4268.83 936.62 4380.83 798.62 4491.83 819.28 4606.83 759.95 4720.83 849.28 4829.83 854.62 4942.83" fill="none" stroke="#3b4351" stroke-miterlimit="10"/><polygon id="Iranians" points="1263.29 -557.83 1235.95 -672 1211.95 -786.5 1241.29 -896.5 1280.62 -1009 1217.95 -1123.83 1163.29 -1233.16 1140.62 -1346.5 1175.95 -1457 1153.29 -1571.83 1137.95 -1685.16 1188.62 -1796.5 1153.95 -1909.16 1161.95 -2022 1156.67 -2137.27 1152.84 -2254.5 1131.29 -2361 1198.62 -2471.5 1275.29 -2583.5 1277.29 -2697.16 1268.62 -2806.83 1283.88 -2918.83 1411.11 -2918.83 1445.69 -2807.27 1480.18 -2696.6 1462.18 -2583.5 1438.19 -2471.5 1387.19 -2361 1387.19 -2249 1420.19 -2134.07 1429.19 -2022 1400.69 -1909.08 1417.19 -1796 1343.69 -1685 1325.69 -1571 1345.19 -1457 1313.69 -1345 1298.69 -1233 1310.69 -1123 1348.19 -1009 1313.69 -896 1285.19 -785 1294.19 -672 1372.19 -557.83 1373.74 -449.27 1375.34 -337.27 1376.98 -222 1335.62 -112 1348.62 0 1391.1 112 1462.62 223 1440.62 335.73 1447.62 452 1472.62 564 1505.62 675.73 1513.62 785.73 1437.62 897.73 1391.82 1012.73 1219.62 898 1086.62 786 890.71 675.73 788.62 564 767.62 452 866.62 336 1041.62 222.73 1176.62 111.73 1205.62 -0.27 1242.62 -112.27 1294.62 -222 1322.62 -334.83 1240.62 -449 1263.29 -557.83" fill="none" stroke="#3b4351" stroke-miterlimit="10"/><polygon id="Indians" points="1372.19 -557.83 1294.19 -672 1285.19 -785 1313.69 -896 1348.19 -1009 1310.69 -1123 1298.69 -1233 1313.69 -1345 1345.19 -1457 1325.69 -1571 1343.69 -1685 1417.19 -1796 1400.69 -1909.08 1429.19 -2022 1419.27 -2137.27 1387.19 -2249 1387.19 -2361 1438.19 -2471.5 1462.18 -2583.5 1480.18 -2696.54 1445.82 -2806.83 1411.11 -2918.83 1545.86 -2918.83 1580.1 -2806.83 1593.12 -2696.6 1552.12 -2583.5 1514.62 -2471.5 1514.12 -2361.33 1553.12 -2249.27 1548.12 -2137 1519.62 -2022 1534.12 -1908.33 1575.12 -1796 1559.62 -1685 1564.12 -1571.27 1534.62 -1457 1486.12 -1345 1465.12 -1233 1471.12 -1123.83 1502.12 -1009.83 1508.12 -896 1534.62 -785 1542.77 -706.14 1555.62 -557.83 1554.62 -449 1567.12 -337 1542.12 -222.27 1498.12 -112 1490.62 0 1513.12 112 1568.62 223 1544.12 336 1530.62 451.73 1523.62 563.73 1532.62 676 1565.12 786 1543.62 898 1514.12 1013 1490.12 1122.73 1495.62 1237 1517.12 1350.67 1528.12 1456 1580.62 1568.67 1578.12 1684.67 1578.12 1795.17 1560.12 1906.73 1526.62 2022 1467.62 2136 1381.62 2247.73 1270.62 2358 1090.12 2470.73 860.62 2579 1302.12 2694 1377.03 2806 1550.62 2919 1519.62 3028.83 1476.12 3141.83 1516.13 3255.83 1534.62 3368.17 1552.65 3478.83 1585.62 3592.73 1620.12 3707.83 1650.12 3818.83 1630.62 3926.73 1622.45 4043.73 1565.62 4154.83 1402.62 4268.17 1173.62 4380.83 1148.62 4491.83 1334.62 4606.83 1283.62 4720.83 1344.62 4829.83 1544.62 4942.83 1602.62 5057.17 1627.62 5168.83 1674.62 5281.73 1627.62 5396.83 1634.62 5508.83 1686.62 5620.83 1701.62 5733.83 1620.12 5845.83 1606.12 5956.83 1606.12 6070.66 1552.62 6070.66 1549.52 5956.83 1569.62 5845.83 1683.62 5733.83 1667.62 5620.83 1607.62 5508.83 1596.62 5396.17 1617.62 5281.83 1584.62 5168.83 1562.62 5056.83 1507.62 4942.83 1304.62 4829.73 1225.62 4720.73 1236.97 4683.78 1264.87 4606.83 1082.62 4491.83 1084.2 4381.34 1323.62 4268.83 1500.47 4154.73 1573.62 4043.83 1600.62 3926.83 1604.62 3818.83 1569.62 3707.83 1514.62 3592.83 1447.62 3478.73 1418.62 3366.83 1404.62 3255.83 1367.62 3141.83 1397.62 3028.83 1418.62 2918.73 1339.62 2805.73 1246.62 2694 748.62 2579 753.62 2471 910.76 2358 1053.62 2248 1195.2 2136 1311.62 2021.17 1353.62 1907 1348.62 1796 1364.62 1684.17 1406.62 1569 1401.62 1456 1429.62 1351 1394.62 1236.73 1393.2 1123 1391.82 1012.73 1437.52 898 1513.62 785.73 1505.64 676 1472.62 564.17 1447.62 452 1440.63 336 1462.62 223 1391.1 112 1348.62 0 1332.62 -112 1376.98 -222 1375.34 -337.27 1373.74 -449.27 1372.19 -557.83" fill="none" stroke="#3b4351" stroke-miterlimit="10"/><polygon id="Huns" points="1555.62 -557.83 1545.73 -672 1533.62 -785.33 1506.68 -895.36 1502.16 -1009 1471.34 -1123 1465.12 -1233 1486.12 -1345 1534.62 -1457 1564.05 -1571 1559.62 -1685 1575.12 -1796 1534.24 -1908 1519.62 -2022 1548.12 -2137 1553.11 -2249 1514.47 -2361.27 1514.62 -2473.5 1552.12 -2583.5 1593.12 -2696.16 1580.1 -2806.83 1545.86 -2918.83 1633.99 -2918.83 1651.62 -2806.83 1667.62 -2696.16 1646.62 -2583.5 1620.62 -2471.5 1630.4 -2363.4 1650.62 -2249.33 1676.62 -2137 1700.12 -2022 1689.12 -1908 1714.62 -1796.33 1697.12 -1685.27 1645.62 -1571.27 1616.12 -1457 1586.62 -1345.27 1538.12 -1233.27 1509.12 -1123 1551.62 -1009 1585.12 -896 1608.62 -785.33 1609.69 -672.27 1610.76 -559.27 1613.62 -449.27 1625.12 -337.27 1599.12 -221.33 1557.59 -112 1545.65 0 1558.62 112 1584.62 222.73 1571.12 336.17 1576.62 452 1567.62 564 1587.12 676 1621.12 786 1612.12 898 1556.12 1013 1528.62 1123 1529.62 1237 1553.62 1351 1616.07 1456 1609.25 1569 1592.66 1685 1611.01 1795.73 1612.12 1907 1598.04 2022 1564.12 2136 1534.29 2248 1602.12 2357.73 1653.62 2471 1673.62 2579 1666.12 2694 1668.12 2805.67 1625.62 2918.67 1542.12 3028.83 1476.12 3141.83 1519.62 3028.83 1550.62 2919 1376.62 2805.73 1302.12 2694 860.62 2579 1090.12 2470.73 1270.62 2358 1381.62 2247.73 1467.62 2136 1526.62 2022 1560.12 1906.73 1578.12 1795.17 1578.12 1684.67 1580.62 1568.67 1528.12 1456 1517.12 1350.67 1495.62 1237 1490.12 1122.73 1514.12 1013 1543.62 898 1565.12 786 1532.62 676 1523.62 563.73 1530.62 451.73 1544.12 336 1568.62 223 1513.12 112 1490.62 0 1498.12 -112 1542.12 -222.27 1567.12 -337 1554.62 -449 1555.62 -557.83" fill="none" stroke="#3b4351" stroke-miterlimit="10"/><polygon id="Greeks" points="1131.14 1456 1118.7 1351 998.71 1237 683.72 1123 467.73 1013 287.74 898 231.95 786 205.28 676 169.95 564 149.95 452 137.95 336 116.62 223 111.95 112 95.28 0 85.95 -112 75.42 -222 75.42 -395.33 75.42 -1685 142.25 -1571 145.25 -1457 155.75 -1345 172.25 -1233 202.25 -1123 223.25 -1009 251.62 -896 250.62 -785 221.95 -671.16 228.6 -559.27 199.95 -449.16 217.95 -337.16 237.43 -222 262.62 -112 259.95 0 319.29 112 349.95 223 401.29 336 527.28 452 645.95 564 761.95 676 965.29 786 965.95 898 897.95 1012.17 910.76 1122.73 1099.37 1237 1168.66 1351.09 1131.14 1456" fill="none" stroke="#3b4351" stroke-miterlimit="10"/><polygon id="Egyptians" points="1195.2 1566.31 1131.14 1456 1168.66 1351.09 1099.2 1236.73 910.76 1122.73 897.95 1012.17 965.95 898 965.28 785.5 761.95 676 645.95 564 527.28 452 401.29 336 349.95 223 319.29 112 259.95 0 262.62 -112 238.62 -222 217.95 -337 199.95 -449 228.62 -559 221.62 -672 250.62 -785 251.62 -896 223.25 -1009 271.57 -1123 265.25 -1233 305.74 -1345 341.74 -1457 376.24 -1571 440.74 -1685 467.73 -1795.09 443.74 -1908 381.96 -2022 242.75 -2137 298.62 -2249 424.24 -2361 460.24 -2471.5 397.24 -2583.5 319.24 -2696.16 319.24 -2806.83 298.62 -2918.83 1103.77 -2918.83 1042.62 -2806.83 982.62 -2696.16 940.62 -2583.5 786.62 -2471.5 663.62 -2361 633.62 -2249 662.62 -2137 656.62 -2022.08 733.62 -1908.27 800.62 -1796.83 770.62 -1685 750.62 -1571 785.62 -1457 835.62 -1345 742.62 -1233 658.62 -1123 439.62 -1009 400.62 -896 361.62 -785 302.62 -672 310.62 -559 282.62 -449 271.95 -337 305.95 -112 323.95 -0.5 432.62 112 476.62 222.17 451.95 336 555.95 452 667.28 564 813.28 676 968.62 786 995.95 898 968.62 1012.84 940.62 1121.5 1130.91 1236.73 1189.62 1351.67 1157.7 1456 1195.2 1566.31" fill="none" stroke="#3b4351" stroke-miterlimit="10"/><polygon id="Chinese" points="1610.76 -559.27 1609.69 -672.27 1608.62 -785.33 1585.12 -896 1551.62 -1009 1509.12 -1123 1538.12 -1233.27 1586.62 -1345.27 1616.12 -1457 1645.62 -1571.27 1697.12 -1685.27 1714.62 -1796.33 1689.12 -1908 1700.12 -2022 1676.62 -2137 1650.62 -2249.33 1630.62 -2361 1620.62 -2471.5 1646.62 -2583.5 1667.62 -2696.16 1651.62 -2806.83 1633.99 -2918.83 1768.79 -2918.83 1768.79 5281.83 1768.79 5396.73 1766.12 5508.83 1757.62 5620.83 1736.12 5733.73 1676.12 5845.73 1661.12 5956.83 1663.62 6070.66 1606.12 6070.66 1606.12 5956.73 1620.12 5845.83 1701.62 5733.83 1696.12 5620.67 1654.12 5508.83 1681.62 5396.83 1739.62 5281.73 1748.62 5168.67 1744.12 5056.67 1685.62 4942.83 1615.12 4832.17 1636.12 4720.83 1738.62 4606.83 1761.12 4491.83 1758.62 4380.83 1732.12 4268.83 1695.62 4154.83 1667.62 4043.83 1651.12 3926.83 1650.12 3818.83 1620.12 3707.83 1585.62 3592.73 1552.62 3478.73 1535.12 3366.83 1516.12 3255.73 1476.12 3141.83 1542.12 3028.83 1625.62 2918.67 1668.12 2805.67 1666.12 2694 1673.62 2579 1653.62 2471 1602.12 2357.73 1534.12 2247.73 1564.12 2136 1598.12 2021.73 1612.12 1907 1611.01 1795.73 1592.62 1684.73 1609.25 1569 1616.07 1456 1553.62 1351 1529.62 1237 1528.62 1122.73 1555.62 1013 1612.12 898 1621.12 786 1587.12 676 1567.62 564 1576.62 452 1571.12 336 1584.62 222.73 1558.62 112 1545.62 -0.27 1557.62 -112.27 1599.62 -222 1625.12 -337.27 1613.62 -449.27 1610.76 -559.27" fill="none" stroke="#3b4351" stroke-miterlimit="10"/><polygon id="Amorites" points="1263.29 -557.83 1240.62 -449 1322.62 -337 1294.62 -222 1242.62 -112.27 1205.62 -0.27 1176.62 111.73 1041.62 222.73 866.62 336 767.62 452 788.62 564 890.71 675.73 762.62 563.73 716.62 451.73 709.62 336 755.62 223 1054.29 111.73 1156.62 0 1173.62 -113.83 1199.62 -223.83 1138.62 -337 910.76 -449 832.62 -559.27 949.95 -672 1040.62 -785.27 1141.31 -896 1225.29 -1009.16 1147.62 -1123 1085.29 -1233 1061.29 -1345.27 1028.62 -1457.27 971.95 -1571.16 961.95 -1685.83 992.62 -1796 910.76 -1908.27 853.28 -2022 826.62 -2137 785.95 -2249 823.95 -2361 910.76 -2471.5 1027.29 -2583.5 1025.29 -2696.16 1091.29 -2806.83 1152.07 -2918.83 1283.88 -2918.83 1268.62 -2806.83 1277.29 -2697.16 1275.29 -2583.5 1198.62 -2471.5 1131.29 -2361 1153.95 -2249 1156.67 -2137.27 1161.95 -2022 1153.95 -1909.16 1188.62 -1796.5 1137.95 -1685.16 1153.29 -1571.83 1175.95 -1457 1140.62 -1346.5 1163.29 -1233.16 1217.95 -1123.83 1280.62 -1009 1241.29 -896.5 1211.95 -786.5 1235.95 -672 1263.29 -557.83" fill="none" stroke="#3b4351" stroke-miterlimit="10"/><polygon id="Assyrian_Kingdom" data-name="Assyrian Kingdom" points="631.95 -559.27 635.28 -672 679.9 -785 701.28 -896 799.28 -1009 980.62 -1123 1007.95 -1233 1020.62 -1345 998.62 -1457 971.95 -1571.16 1028.62 -1457.27 1061.29 -1345.27 1085.29 -1233 1147.62 -1123 1225.29 -1009.16 1141.31 -896 1040.62 -785.27 949.95 -672 832.62 -559.27 910.76 -449 1138.62 -337 1199.62 -223.83 1173.62 -113.83 1156.62 0 1054.29 111.73 755.62 223 709.62 336 716.62 451.73 658.28 336 654.62 223 630.95 112 510.62 0 518.62 -112 595.95 -222 638.62 -337 643.28 -449 631.95 -559.27" fill="none" stroke="#3b4351" stroke-miterlimit="10"/><polygon id="OPians" points="305.95 -112 289.61 -220.17 271.95 -337 282.62 -449 310.62 -559 302.62 -672 361.62 -785 337.24 -672 347.74 -559.27 359.29 -337 383.29 -222 387.95 -112 375.82 0 465.29 112 476.62 222.17 432.62 112 323.95 -0.5 305.95 -112" fill="none" stroke="#3b4351" stroke-miterlimit="10"/><polygon id="Hebrews" points="635.28 -672 631.95 -559.27 643.28 -449 638.62 -337 595.95 -222 518.62 -112 510.62 0 630.95 112 654.62 223 658.28 336 716.62 451.73 647.18 336 644.62 223 617.95 112 493.29 0 500.03 -112 570.62 -222 613.28 -336 583.28 -449 569.28 -559 511.95 -672 573.95 -785 630.62 -896 697.58 -1009 921.28 -1123 989.95 -1233 1020.62 -1345 1007.95 -1233 980.62 -1123 799.28 -1009 701.28 -896 679.9 -785 635.28 -672" fill="none" stroke="#3b4351" stroke-miterlimit="10"/><polygon id="Syrians" points="500.03 -112 493.29 0 439.95 -112 428.62 -222 479.29 -337 509.95 -449 538.62 -559 511.95 -672 569.28 -559 583.28 -449 613.28 -336 570.62 -222 500.03 -112" fill="none" stroke="#3b4351" stroke-miterlimit="10"/><polygon id="Lydians" points="611.95 336 624.62 452 667.28 564 555.95 452 451.95 336 476.62 222.17 465.29 112 375.82 0 523.28 112 608.62 223 611.95 336" fill="none" stroke="#3b4351" stroke-miterlimit="10"/><polygon points="1130.91 1236.73 940.62 1121.5 968.62 1012.84 995.95 898 968.62 786 813.28 676 667.28 564 624.62 452 611.95 336 608.62 223 523.28 112 375.82 0 387.95 -112 383.29 -222 359.29 -337 340.62 -447.84 347.74 -559.27 394.24 -672 481.23 -785 566.62 -896 623.95 -1009 857.28 -1123 954.62 -1235.16 975.28 -1345.16 969.28 -1457 971.95 -1571.16 998.62 -1457 1020.62 -1345 989.95 -1233 921.28 -1123 697.58 -1009 630.62 -896 573.95 -785 511.95 -672 538.62 -559 509.95 -449 479.29 -337 428.62 -222 439.95 -112 493.29 0 617.95 112 644.62 223 647.18 336 716.62 451.73 762.62 563.73 890.71 675.73 1086.62 786 1219.62 898 1225.12 1013 1186.62 1123 1130.91 1236.73" fill="none" stroke="#3b4351" stroke-miterlimit="10"/></g><g id="Text"><g id="Greeks-2" data-name="Greeks"><path d="M282.1,9.17h5.4v1.35h-3.81v2.77h3.59v1.35h-3.59v3.19h3.92v1.34H282.1Z" fill="#3b4351"/><path d="M292,13.84v-.2c0-.6-.21-1.16-1-1.16-.61,0-1.08.27-1.08,1s.26.83,1.06,1.11l1,.33a2,2,0,0,1,1.64,2.17c0,1.61-1.19,2.3-2.71,2.3-1.9,0-2.47-.88-2.47-2.34v-.28h1.34V17c0,.88.29,1.34,1.18,1.34s1.23-.42,1.23-1.1a1.09,1.09,0,0,0-.83-1.11l-1.23-.43a2,2,0,0,1-1.61-2.17c0-1.42,1-2.08,2.58-2.08,1.92,0,2.35,1.12,2.35,2.06v.34Z" fill="#3b4351"/><path d="M298,13.84v-.2c0-.6-.21-1.16-1-1.16-.6,0-1.08.27-1.08,1s.27.83,1.07,1.11l1,.33a2,2,0,0,1,1.64,2.17c0,1.61-1.19,2.3-2.7,2.3-1.91,0-2.48-.88-2.48-2.34v-.28h1.34V17c0,.88.3,1.34,1.18,1.34s1.23-.42,1.23-1.1a1.09,1.09,0,0,0-.82-1.11l-1.24-.43a2,2,0,0,1-1.61-2.17c0-1.42,1-2.08,2.58-2.08,1.92,0,2.35,1.12,2.35,2.06v.34Z" fill="#3b4351"/><path d="M305.6,17.61c0,.28.17.53.4.53a.76.76,0,0,0,.25,0v1a1.71,1.71,0,0,1-.74.18c-.68,0-1.24-.27-1.28-1h0a1.93,1.93,0,0,1-1.87,1.11c-1.22,0-2-.66-2-2.11a2.08,2.08,0,0,1,1.75-2.37l1.17-.32c.55-.16.89-.31.89-1s-.24-1.12-1-1.12c-1,0-1.15.71-1.15,1.44h-1.43c0-1.61.66-2.48,2.65-2.48,1.33,0,2.39.52,2.39,1.85Zm-1.42-2.41a13.32,13.32,0,0,1-1.69.7,1.24,1.24,0,0,0-.61,1.22c0,.63.31,1.13.94,1.13.91,0,1.36-.67,1.36-1.79Z" fill="#3b4351"/><path d="M307.14,11.64h1.51v1.18h0a1.88,1.88,0,0,1,1.75-1.38.92.92,0,0,1,.37.06V13a2.24,2.24,0,0,0-.63-.08c-.69,0-1.52.3-1.52,1.71v4.5h-1.51Z" fill="#3b4351"/><path d="M311.55,9.17h1.51v3.28l.05,0a2.13,2.13,0,0,1,1.84-1c1.15,0,1.88.52,1.88,2.05v5.68h-1.51V14c0-1-.28-1.36-1.05-1.36-.62,0-1.21.47-1.21,1.47v5.05h-1.51Z" fill="#3b4351"/><path d="M323.23,17.61c0,.28.17.53.39.53a.72.72,0,0,0,.25,0v1a1.68,1.68,0,0,1-.74.18c-.67,0-1.23-.27-1.27-1h0A1.94,1.94,0,0,1,320,19.37c-1.22,0-2-.66-2-2.11a2.08,2.08,0,0,1,1.75-2.37l1.18-.32c.54-.16.88-.31.88-1s-.24-1.12-1-1.12c-1,0-1.14.71-1.14,1.44h-1.43c0-1.61.66-2.48,2.64-2.48,1.33,0,2.4.52,2.4,1.85ZM321.8,15.2a13.82,13.82,0,0,1-1.68.7,1.25,1.25,0,0,0-.62,1.22c0,.63.31,1.13.94,1.13.91,0,1.36-.67,1.36-1.79Z" fill="#3b4351"/><path d="M328.62,18.25h0a1.61,1.61,0,0,1-1.65,1.12c-1.75,0-2.47-1.48-2.47-4.06,0-3.35,1.18-3.87,2.33-3.87a1.75,1.75,0,0,1,1.71,1.08h0V9.17h1.51v10h-1.43Zm-1.37-5.6c-.86,0-1.18.7-1.18,2.73,0,1.71.21,2.79,1.27,2.79s1.28-1.05,1.28-2.68C328.62,13.68,328.42,12.65,327.25,12.65Z" fill="#3b4351"/><path d="M335.35,18.25h0a1.6,1.6,0,0,1-1.65,1.12c-1.75,0-2.46-1.48-2.46-4.06,0-3.35,1.17-3.87,2.32-3.87a1.74,1.74,0,0,1,1.71,1.08h0V9.17h1.51v10h-1.43ZM334,12.65c-.85,0-1.18.7-1.18,2.73,0,1.71.21,2.79,1.28,2.79s1.27-1.05,1.27-2.68C335.35,13.68,335.16,12.65,334,12.65Z" fill="#3b4351"/><path d="M339.54,15.6V16c0,1,.12,2.29,1.26,2.29s1.2-1.21,1.2-1.68h1.43a2.48,2.48,0,0,1-2.65,2.72c-1.23,0-2.76-.36-2.76-3.85,0-2,.44-4.08,2.79-4.08,2.1,0,2.66,1.28,2.66,3.36v.8Zm2.42-1v-.41c0-.95-.31-1.68-1.16-1.68s-1.26.95-1.26,1.93v.16Z" fill="#3b4351"/><path d="M344.72,11.64h1.43v.88h0a2.17,2.17,0,0,1,1.93-1.08c1.15,0,1.88.52,1.88,2.05v5.68h-1.52V14c0-1-.26-1.36-1.05-1.36-.61,0-1.2.46-1.2,1.47v5.05h-1.51Z" fill="#3b4351"/><path d="M295.2,32.41c0-2.36.62-4,2.8-4s2.82,1.61,2.82,4-.73,4-2.82,4S295.2,34.76,295.2,32.41Zm2.8,2.84c1.11,0,1.3-.92,1.3-2.84,0-1.67-.19-2.85-1.3-2.85s-1.29,1.18-1.29,2.85C296.71,34.33,296.92,35.25,298,35.25Z" fill="#3b4351"/><path d="M302.44,29.76h-1.05V28.64h1.05v-.7c0-1.42.68-1.88,1.92-1.88.32,0,.6,0,.82,0v1.17h-.42c-.56,0-.81.21-.81.71v.66h1.23v1.12H304v6.41h-1.51Z" fill="#3b4351"/><path d="M310.7,26.17h2l2.64,10h-1.67l-.62-2.45h-2.92l-.65,2.45h-1.67Zm2.13,6.28-1.15-4.93h0l-1.19,4.93Z" fill="#3b4351"/><path d="M319.22,30.84v-.2c0-.6-.21-1.16-1-1.16-.6,0-1.08.27-1.08,1s.27.83,1.07,1.11l1,.33a2,2,0,0,1,1.64,2.17c0,1.61-1.19,2.3-2.7,2.3-1.91,0-2.48-.88-2.48-2.34v-.28H317V34c0,.88.3,1.34,1.18,1.34s1.23-.42,1.23-1.1a1.09,1.09,0,0,0-.82-1.11l-1.24-.43a2,2,0,0,1-1.61-2.17c0-1.42,1-2.08,2.58-2.08,1.92,0,2.35,1.12,2.35,2.06v.34Z" fill="#3b4351"/><path d="M325.19,30.84v-.2c0-.6-.21-1.16-1-1.16-.6,0-1.07.27-1.07,1s.26.83,1.06,1.11l1,.33a2,2,0,0,1,1.64,2.17c0,1.61-1.2,2.3-2.71,2.3-1.9,0-2.48-.88-2.48-2.34v-.28H323V34c0,.88.29,1.34,1.17,1.34s1.24-.42,1.24-1.1a1.09,1.09,0,0,0-.83-1.11l-1.23-.43a2,2,0,0,1-1.61-2.17c0-1.42,1-2.08,2.57-2.08,1.92,0,2.36,1.12,2.36,2.06v.34Z" fill="#3b4351"/><path d="M328.91,28.64l1.3,5.66h0l1.21-5.66H333L331,36.46c-.61,2-1.07,2.33-2.64,2.29a3,3,0,0,1-.6,0V37.49a2.05,2.05,0,0,0,.49.06c.52,0,.86-.1,1-.59l.2-.62-2.14-7.7Z" fill="#3b4351"/><path d="M333.87,28.64h1.51v1.18h0a1.86,1.86,0,0,1,1.75-1.38.87.87,0,0,1,.36.06V30a2.18,2.18,0,0,0-.63-.08c-.68,0-1.51.3-1.51,1.71v4.5h-1.51Z" fill="#3b4351"/><path d="M338.35,26.06h1.51v1.51h-1.51Zm0,2.58h1.51v7.53h-1.51Z" fill="#3b4351"/><path d="M346.33,34.61c0,.28.17.53.39.53a.72.72,0,0,0,.25,0v1a1.71,1.71,0,0,1-.74.18c-.67,0-1.23-.27-1.27-1h0a1.94,1.94,0,0,1-1.88,1.11c-1.22,0-2-.66-2-2.11a2.08,2.08,0,0,1,1.75-2.37l1.18-.32c.54-.16.88-.31.88-1s-.24-1.12-1-1.12c-1,0-1.15.71-1.15,1.44h-1.42c0-1.61.65-2.48,2.64-2.48,1.33,0,2.4.52,2.4,1.85ZM344.9,32.2a13.82,13.82,0,0,1-1.68.7,1.23,1.23,0,0,0-.62,1.22c0,.63.31,1.13.94,1.13.91,0,1.36-.67,1.36-1.79Z" fill="#3b4351"/><path d="M296.22,49.41c0-2.36.62-4,2.8-4s2.82,1.61,2.82,4-.73,4-2.82,4S296.22,51.76,296.22,49.41Zm2.8,2.84c1.11,0,1.3-.92,1.3-2.84,0-1.67-.19-2.85-1.3-2.85s-1.29,1.18-1.29,2.85C297.73,51.33,297.94,52.25,299,52.25Z" fill="#3b4351"/><path d="M302.28,45.64h1.63l1.31,5.94h0l1.19-5.94h1.61l-2,7.53H304.3Z" fill="#3b4351"/><path d="M310.18,49.6V50c0,1,.13,2.29,1.26,2.29s1.2-1.21,1.2-1.68h1.43a2.48,2.48,0,0,1-2.64,2.72c-1.24,0-2.76-.36-2.76-3.85,0-2,.43-4.08,2.78-4.08,2.1,0,2.67,1.28,2.67,3.36v.8Zm2.42-1v-.41c0-.95-.31-1.68-1.16-1.68s-1.26,1-1.26,1.93v.16Z" fill="#3b4351"/><path d="M315.36,45.64h1.51v1.18h0a1.88,1.88,0,0,1,1.75-1.38.87.87,0,0,1,.36.06V47a2.18,2.18,0,0,0-.63-.08c-.68,0-1.51.3-1.51,1.71v4.5h-1.51Z" fill="#3b4351"/><path d="M319.1,45.64h1V43.5h1.51v2.14h1.24v1.12h-1.24v4.5c0,.6.17.79.69.79a2.75,2.75,0,0,0,.55,0v1.12a4.64,4.64,0,0,1-1.22.13c-1,0-1.53-.3-1.53-1.82V46.76h-1Z" fill="#3b4351"/><path d="M323.66,43.17h1.51v3.28l0,0a2.16,2.16,0,0,1,1.85-1c1.15,0,1.88.52,1.88,2.05v5.68h-1.51V48c0-1-.28-1.36-1.05-1.36s-1.21.47-1.21,1.47v5.05h-1.51Z" fill="#3b4351"/><path d="M330.39,45.64h1.52v1.18h0a1.88,1.88,0,0,1,1.76-1.38.87.87,0,0,1,.36.06V47a2.18,2.18,0,0,0-.63-.08c-.69,0-1.51.3-1.51,1.71v4.5h-1.52Z" fill="#3b4351"/><path d="M334.51,49.41c0-2.36.62-4,2.8-4s2.82,1.61,2.82,4-.73,4-2.82,4S334.51,51.76,334.51,49.41Zm2.8,2.84c1.11,0,1.3-.92,1.3-2.84,0-1.67-.19-2.85-1.3-2.85S336,47.74,336,49.41C336,51.33,336.23,52.25,337.31,52.25Z" fill="#3b4351"/><path d="M340.68,45.64h1.57l1.05,5.94h0l1.12-5.94h1.71l1.12,5.94h0l1-5.94h1.51l-1.72,7.53h-1.7l-1.18-5.85h0l-1.08,5.85h-1.77Z" fill="#3b4351"/><path d="M354,47.84v-.2c0-.6-.21-1.16-1-1.16-.61,0-1.08.27-1.08,1s.26.83,1.06,1.11l1,.33a2,2,0,0,1,1.64,2.17c0,1.61-1.19,2.3-2.71,2.3-1.9,0-2.48-.88-2.48-2.34v-.28h1.35V51c0,.88.29,1.34,1.18,1.34s1.23-.42,1.23-1.1a1.09,1.09,0,0,0-.83-1.11l-1.23-.43a2,2,0,0,1-1.61-2.17c0-1.42,1-2.08,2.58-2.08,1.92,0,2.35,1.12,2.35,2.06v.34Z" fill="#3b4351"/><path d="M294.64,60.17h5.41v1.35h-3.81v2.77h3.58v1.35h-3.58v3.19h3.92v1.34h-5.52Z" fill="#3b4351"/><path d="M300.6,62.64h1V60.5h1.51v2.14h1.23v1.12h-1.23v4.5c0,.6.17.79.69.79a2.7,2.7,0,0,0,.54,0v1.12a4.56,4.56,0,0,1-1.21.13c-1,0-1.53-.3-1.53-1.82V63.76h-1Z" fill="#3b4351"/><path d="M305.17,60.17h1.51v3.28l0,0a2.16,2.16,0,0,1,1.85-1c1.15,0,1.88.52,1.88,2v5.68h-1.52V65c0-1-.28-1.36-1.05-1.36-.61,0-1.2.47-1.2,1.47v5h-1.51Z" fill="#3b4351"/><path d="M312,60.06h1.51v1.51H312Zm0,2.58h1.51v7.53H312Z" fill="#3b4351"/><path d="M314.71,66.41c0-2.36.62-4,2.81-4s2.81,1.61,2.81,4-.73,4-2.81,4S314.71,68.76,314.71,66.41Zm2.81,2.84c1.1,0,1.3-.92,1.3-2.84,0-1.67-.2-2.85-1.3-2.85s-1.29,1.18-1.29,2.85C316.23,68.33,316.44,69.25,317.52,69.25Z" fill="#3b4351"/><path d="M324.74,70.37A1.74,1.74,0,0,1,323,69.29h0v3.35h-1.51v-10h1.43v.92h0a1.78,1.78,0,0,1,1.69-1.12c1.72,0,2.42,1.47,2.42,4.06C327.06,69.67,325.79,70.37,324.74,70.37Zm-.55-6.72c-1,0-1.27,1.05-1.27,2.67,0,1.81.22,2.85,1.29,2.85.85,0,1.26-.65,1.26-2.74C325.47,64.73,325.26,63.65,324.19,63.65Z" fill="#3b4351"/><path d="M328.29,60.06h1.52v1.51h-1.52Zm0,2.58h1.52v7.53h-1.52Z" fill="#3b4351"/><path d="M336.28,68.61c0,.28.16.53.39.53a.76.76,0,0,0,.25,0v1a1.71,1.71,0,0,1-.74.18c-.67,0-1.23-.27-1.28-1h0A1.94,1.94,0,0,1,333,70.37c-1.22,0-2-.66-2-2.11a2.08,2.08,0,0,1,1.75-2.37l1.18-.32c.54-.16.88-.31.88-1s-.24-1.12-1-1.12c-1,0-1.15.71-1.15,1.44h-1.43c0-1.61.66-2.48,2.65-2.48,1.33,0,2.4.52,2.4,1.85Zm-1.43-2.41a13.82,13.82,0,0,1-1.68.7,1.23,1.23,0,0,0-.62,1.22c0,.63.31,1.13.94,1.13.91,0,1.36-.67,1.36-1.79Z" fill="#3b4351"/><path d="M337.81,62.64h1.43v.88h0a2.18,2.18,0,0,1,1.94-1.08c1.15,0,1.87.52,1.87,2v5.68h-1.51V65c0-1-.26-1.36-1.05-1.36-.62,0-1.2.46-1.2,1.47v5h-1.52Z" fill="#3b4351"/><path d="M347.91,62.64h1.51v1.18h0a1.86,1.86,0,0,1,1.75-1.38.87.87,0,0,1,.36.06V64a2.18,2.18,0,0,0-.63-.08c-.68,0-1.51.3-1.51,1.71v4.5h-1.51Z" fill="#3b4351"/><path d="M356.17,69.29h0a2.18,2.18,0,0,1-1.94,1.08c-1.12,0-1.87-.52-1.87-2.46V62.64h1.51v5.41c0,.84.36,1.12,1,1.12a1.18,1.18,0,0,0,1.24-1.26V62.64h1.51v7.53h-1.43Z" fill="#3b4351"/><path d="M359.12,60.17h1.51v10h-1.51Z" fill="#3b4351"/><path d="M363.46,66.6V67c0,1,.13,2.29,1.26,2.29s1.21-1.21,1.21-1.68h1.43a2.48,2.48,0,0,1-2.65,2.72c-1.23,0-2.76-.36-2.76-3.85,0-2,.43-4.08,2.79-4.08,2.1,0,2.66,1.28,2.66,3.36v.8Zm2.43-1v-.41c0-1-.31-1.68-1.17-1.68s-1.26,1-1.26,1.93v.16Z" fill="#3b4351"/><path d="M314.48,79.67h5.41V81h-3.81v2.77h3.58v1.35h-3.58v3.19H320v1.34h-5.52Z" fill="#3b4351"/><path d="M322.63,90.32a1,1,0,0,0,1.09.9A1.25,1.25,0,0,0,325,89.8V88.58h0a1.82,1.82,0,0,1-1.71,1c-1.75,0-2.26-1.72-2.26-3.8,0-1.65.26-3.88,2.4-3.88a1.66,1.66,0,0,1,1.65,1.12h0v-.92h1.43v7.17c0,1.84-.78,2.94-2.82,2.94-2.24,0-2.49-1.31-2.49-1.93Zm1.06-1.91c1.18,0,1.31-1.48,1.31-2.67s-.16-2.59-1.21-2.59-1.27,1.12-1.27,2.52S322.57,88.41,323.69,88.41Z" fill="#3b4351"/><path d="M328.86,82.14l1.3,5.66h0l1.2-5.66H333L330.9,90c-.6,2.05-1.06,2.33-2.63,2.29a3,3,0,0,1-.6,0V91a2.05,2.05,0,0,0,.49.06c.52,0,.85-.1,1-.59l.2-.62-2.15-7.7Z" fill="#3b4351"/><path d="M337.06,89.87a1.72,1.72,0,0,1-1.7-1.08h0v3.35h-1.52v-10h1.43v.92h0a1.79,1.79,0,0,1,1.7-1.12c1.72,0,2.42,1.47,2.42,4.06C339.39,89.17,338.12,89.87,337.06,89.87Zm-.54-6.72c-1,0-1.28,1-1.28,2.67,0,1.81.23,2.85,1.29,2.85.86,0,1.26-.65,1.26-2.74C337.79,84.23,337.58,83.15,336.52,83.15Z" fill="#3b4351"/><path d="M339.88,82.14h1V80h1.52v2.14h1.23v1.12h-1.23v4.5c0,.6.16.79.68.79a2.75,2.75,0,0,0,.55,0v1.12a4.64,4.64,0,0,1-1.22.13c-1,0-1.53-.3-1.53-1.82V83.26h-1Z" fill="#3b4351"/><path d="M347.87,79.56h1.51v1.51h-1.51Zm0,2.58h1.51v7.53h-1.51Z" fill="#3b4351"/><path d="M350.91,82.14h1.43V83h0a2.17,2.17,0,0,1,1.93-1.08c1.15,0,1.88.52,1.88,2v5.68h-1.51V84.51c0-1-.27-1.36-1.05-1.36-.62,0-1.21.46-1.21,1.47v5h-1.51Z" fill="#3b4351"/><path d="M361.49,88.75h0a1.62,1.62,0,0,1-1.66,1.12c-1.75,0-2.46-1.48-2.46-4.06,0-3.35,1.17-3.87,2.32-3.87A1.74,1.74,0,0,1,361.38,83h0V79.67h1.51v10h-1.43Zm-1.37-5.6c-.85,0-1.17.7-1.17,2.73,0,1.71.21,2.79,1.27,2.79s1.27-1,1.27-2.68C361.49,84.18,361.3,83.15,360.12,83.15Z" fill="#3b4351"/><path d="M365.68,86.1v.44c0,1,.13,2.29,1.26,2.29s1.2-1.21,1.2-1.68h1.43a2.48,2.48,0,0,1-2.64,2.72c-1.24,0-2.76-.36-2.76-3.85,0-2,.43-4.08,2.78-4.08,2.1,0,2.67,1.28,2.67,3.36v.8Zm2.42-1v-.41c0-1-.31-1.68-1.16-1.68s-1.26,1-1.26,1.93v.16Z" fill="#3b4351"/><path d="M374.11,89.87a1.74,1.74,0,0,1-1.71-1.08h0v3.35h-1.51v-10h1.43v.92h0a1.8,1.8,0,0,1,1.7-1.12c1.72,0,2.42,1.47,2.42,4.06C376.43,89.17,375.16,89.87,374.11,89.87Zm-.55-6.72c-1,0-1.27,1-1.27,2.67,0,1.81.22,2.85,1.29,2.85.85,0,1.26-.65,1.26-2.74C374.84,84.23,374.63,83.15,373.56,83.15Z" fill="#3b4351"/><path d="M378.89,86.1v.44c0,1,.13,2.29,1.27,2.29s1.2-1.21,1.2-1.68h1.43a2.48,2.48,0,0,1-2.65,2.72c-1.23,0-2.76-.36-2.76-3.85,0-2,.44-4.08,2.79-4.08,2.1,0,2.66,1.28,2.66,3.36v.8Zm2.43-1v-.41c0-1-.31-1.68-1.16-1.68s-1.27,1-1.27,1.93v.16Z" fill="#3b4351"/><path d="M384.07,82.14h1.43V83h0a2.18,2.18,0,0,1,1.94-1.08c1.15,0,1.87.52,1.87,2v5.68h-1.51V84.51c0-1-.26-1.36-1-1.36-.61,0-1.2.46-1.2,1.47v5h-1.52Z" fill="#3b4351"/><path d="M394.66,88.75h0A1.61,1.61,0,0,1,393,89.87c-1.75,0-2.47-1.48-2.47-4.06,0-3.35,1.18-3.87,2.33-3.87A1.74,1.74,0,0,1,394.55,83h0V79.67h1.51v10h-1.43Zm-1.37-5.6c-.86,0-1.18.7-1.18,2.73,0,1.71.21,2.79,1.28,2.79s1.27-1,1.27-2.68C394.66,84.18,394.46,83.15,393.29,83.15Z" fill="#3b4351"/><path d="M402.49,88.11c0,.28.16.53.39.53a.76.76,0,0,0,.25,0v1a1.71,1.71,0,0,1-.74.18c-.67,0-1.23-.27-1.28-1h0a1.94,1.94,0,0,1-1.88,1.11c-1.22,0-2-.66-2-2.11A2.08,2.08,0,0,1,399,85.39l1.18-.32c.54-.16.88-.31.88-1S400.82,83,400,83c-1,0-1.15.71-1.15,1.44h-1.43c0-1.61.66-2.48,2.65-2.48,1.33,0,2.4.52,2.4,1.85Zm-1.43-2.41a13.82,13.82,0,0,1-1.68.7,1.23,1.23,0,0,0-.62,1.22c0,.63.31,1.13.94,1.13.91,0,1.36-.67,1.36-1.79Z" fill="#3b4351"/><path d="M404,82.14h1.43V83h0a2.18,2.18,0,0,1,1.94-1.08c1.15,0,1.87.52,1.87,2v5.68h-1.51V84.51c0-1-.26-1.36-1.05-1.36-.62,0-1.2.46-1.2,1.47v5H404Z" fill="#3b4351"/><path d="M410.09,82.14h1V80h1.51v2.14h1.24v1.12h-1.24v4.5c0,.6.17.79.69.79a2.75,2.75,0,0,0,.55,0v1.12a4.64,4.64,0,0,1-1.22.13c-1,0-1.53-.3-1.53-1.82V83.26h-1Z" fill="#3b4351"/><path d="M335.46,107.79h0a2.18,2.18,0,0,1-1.94,1.08c-1.12,0-1.87-.52-1.87-2.46v-5.27h1.51v5.41c0,.84.36,1.12,1,1.12a1.17,1.17,0,0,0,1.23-1.26v-5.27h1.52v7.53h-1.43Z" fill="#3b4351"/><path d="M338.34,101.14h1.43V102h0a2.17,2.17,0,0,1,1.93-1.08c1.15,0,1.88.52,1.88,2v5.68h-1.51v-5.16c0-1-.27-1.36-1.05-1.36-.62,0-1.21.46-1.21,1.47v5h-1.51Z" fill="#3b4351"/><path d="M348.93,107.75h0a1.61,1.61,0,0,1-1.65,1.12c-1.76,0-2.47-1.48-2.47-4.06,0-3.35,1.18-3.87,2.32-3.87a1.74,1.74,0,0,1,1.71,1.08h0V98.67h1.51v10h-1.42Zm-1.38-5.6c-.85,0-1.17.7-1.17,2.73,0,1.71.21,2.79,1.27,2.79s1.28-1,1.28-2.68C348.93,103.18,348.73,102.15,347.55,102.15Z" fill="#3b4351"/><path d="M353.11,105.1v.44c0,1,.13,2.29,1.26,2.29s1.21-1.21,1.21-1.68H357a2.47,2.47,0,0,1-2.64,2.72c-1.24,0-2.76-.36-2.76-3.85,0-2,.43-4.08,2.79-4.08,2.1,0,2.66,1.28,2.66,3.36v.8Zm2.42-1v-.41c0-1-.3-1.68-1.16-1.68s-1.26,1-1.26,1.93v.16Z" fill="#3b4351"/><path d="M358.29,101.14h1.51v1.18h0a1.88,1.88,0,0,1,1.75-1.38.92.92,0,0,1,.37.06v1.54a2.3,2.3,0,0,0-.63-.08c-.69,0-1.52.3-1.52,1.71v4.5h-1.51Z" fill="#3b4351"/><path d="M366.16,98.67h3.16c1.92,0,2.76,1.21,2.76,2.92a2.71,2.71,0,0,1-2.92,3h-1.41v4.13h-1.59Zm1.59,4.67h1.14a1.51,1.51,0,0,0,1.6-1.72c0-1.08-.44-1.74-1.71-1.74h-1Z" fill="#3b4351"/><path d="M376.31,103.34v-.2c0-.6-.21-1.16-1-1.16-.6,0-1.07.27-1.07,1s.26.83,1.06,1.11l1,.33a2,2,0,0,1,1.64,2.17c0,1.61-1.19,2.3-2.71,2.3-1.9,0-2.48-.88-2.48-2.34v-.28h1.35v.24c0,.88.29,1.34,1.17,1.34s1.24-.42,1.24-1.1a1.09,1.09,0,0,0-.83-1.11l-1.23-.43a2,2,0,0,1-1.61-2.17c0-1.42,1-2.08,2.57-2.08,1.92,0,2.36,1.12,2.36,2.06v.34Z" fill="#3b4351"/><path d="M384,107.11c0,.28.17.53.39.53a.72.72,0,0,0,.25,0v1a1.71,1.71,0,0,1-.74.18c-.67,0-1.23-.27-1.27-1h0a1.94,1.94,0,0,1-1.88,1.11c-1.22,0-2-.66-2-2.11a2.08,2.08,0,0,1,1.75-2.37l1.18-.32c.54-.16.88-.31.88-1s-.24-1.12-1-1.12c-1,0-1.15.71-1.15,1.44h-1.42c0-1.61.65-2.48,2.64-2.48,1.33,0,2.4.52,2.4,1.85Zm-1.43-2.41a13.82,13.82,0,0,1-1.68.7,1.23,1.23,0,0,0-.62,1.22c0,.63.31,1.13.94,1.13.91,0,1.36-.67,1.36-1.79Z" fill="#3b4351"/><path d="M385.58,101.14H387V102h.05a2.1,2.1,0,0,1,1.8-1.08,1.63,1.63,0,0,1,1.75,1.15,2.07,2.07,0,0,1,1.91-1.15c1.06,0,1.83.55,1.83,2v5.72h-1.51v-5.16c0-1-.29-1.36-.91-1.36s-1.2.47-1.2,1.47v5H389.2v-5.16c0-1-.29-1.36-.92-1.36s-1.19.49-1.19,1.47v5h-1.51Z" fill="#3b4351"/><path d="M395.19,101.14h1V99h1.51v2.14H399v1.12h-1.23v4.5c0,.6.17.79.69.79a2.7,2.7,0,0,0,.54,0v1.12a4.56,4.56,0,0,1-1.21.13c-1,0-1.53-.3-1.53-1.82v-4.68h-1Z" fill="#3b4351"/><path d="M399.83,98.56h1.51v1.51h-1.51Zm0,2.58h1.51v7.53h-1.51Z" fill="#3b4351"/><path d="M402.87,98.67h1.51v5.62h0l2.28-3.15,1.75,0L406.17,104l2.56,4.63h-1.65l-1.85-3.43-.85,1v2.39h-1.51Z" fill="#3b4351"/><path d="M412.73,98.67h1.6v10h-1.6Z" fill="#3b4351"/></g></g></svg>