<svg xmlns="http://www.w3.org/2000/svg" viewBox="0 0 1847.91 111"><title>bc0600text</title><g id="YEARS"><g id="Right"><path d="M1801.89,88.8c0-1.06-.52-2.39-2-2.39-2.78,0-2.94,3.64-2.94,6.34l.08,0a3.78,3.78,0,0,1,3.59-1.94c2.52,0,4.55,1.81,4.55,5.48,0,4.24-1.77,6.76-5.64,6.76-4.66,0-5.54-3.53-5.54-8.81,0-5.51,1-10,5.87-10,3.25,0,5,1.43,5,4.47ZM1799.78,101c1.79,0,2.44-1.79,2.44-4,0-2.57-.75-4-2.44-4-2.18,0-2.55,1.9-2.55,4.11S1798,101,1799.78,101Z" fill="#3b4351"/><path d="M1812.08,84.33c3.53,0,5.51,2.21,5.51,9.38s-2,9.39-5.51,9.39-5.52-2.21-5.52-9.39S1808.54,84.33,1812.08,84.33Zm0,16.69c2,0,2.54-2,2.54-7.31s-.54-7.3-2.54-7.3-2.55,2-2.55,7.3S1810.07,101,1812.08,101Z" fill="#3b4351"/><path d="M1824.56,84.33c3.53,0,5.51,2.21,5.51,9.38s-2,9.39-5.51,9.39-5.52-2.21-5.52-9.39S1821,84.33,1824.56,84.33Zm0,16.69c2,0,2.54-2,2.54-7.31s-.54-7.3-2.54-7.3-2.55,2-2.55,7.3S1822.55,101,1824.56,101Z" fill="#3b4351"/></g><g id="left"><path d="M26.85,90.71c0-1.07-.52-2.39-2-2.39-2.78,0-2.93,3.64-2.93,6.34l.07,0a3.79,3.79,0,0,1,3.59-1.95c2.52,0,4.55,1.82,4.55,5.49,0,4.24-1.77,6.76-5.64,6.76-4.65,0-5.54-3.54-5.54-8.82,0-5.51,1-10,5.88-10,3.25,0,5,1.43,5,4.47Zm-2.11,12.22c1.8,0,2.45-1.8,2.45-4,0-2.58-.76-4-2.45-4-2.18,0-2.54,1.9-2.54,4.11S23,102.93,24.74,102.93Z" fill="#3b4351"/><path d="M37,86.24c3.54,0,5.51,2.21,5.51,9.38S40.58,105,37,105s-5.51-2.21-5.51-9.39S33.51,86.24,37,86.24Zm0,16.69c2,0,2.55-2,2.55-7.31S39,88.32,37,88.32s-2.55,2-2.55,7.3S35,102.93,37,102.93Z" fill="#3b4351"/><path d="M49.52,86.24c3.54,0,5.51,2.21,5.51,9.38s-2,9.39-5.51,9.39S44,102.8,44,95.62,46,86.24,49.52,86.24Zm0,16.69c2,0,2.55-2,2.55-7.31s-.55-7.3-2.55-7.3-2.55,2-2.55,7.3S47.52,102.93,49.52,102.93Z" fill="#3b4351"/></g></g><g id="Nation_OUtlines" data-name="Nation OUtlines"><polygon id="Romans" points="854.62 4830.83 829.93 4717.83 711.95 4608.83 764.62 4494.83 729.95 4379.83 845.28 4268.83 1002.62 4156.83 1065.29 4042.83 1021.28 3931.83 995.34 3814.83 815.28 3706.83 703.28 3595.83 687.28 3480.83 737.95 3366.83 780.62 3254.83 712.62 3143.83 645.95 3029.83 550.62 2916.83 491.95 2807 453.95 2694 455.29 2582 435.95 2467 470.62 2359 322.62 2359 416.12 2246 480.12 2136 410.62 2024 316.95 1910 248.28 1795 210.28 1684 175.95 1573 159.62 1457 91.28 1344 83.12 1239 117.62 1125 151.37 1011 129.62 901 109.62 786 99.62 674 73.12 564 75.42 -334 85.95 -224 95.28 -112 111.95 0 116.62 111 137.95 224 149.95 340 169.95 452 205.28 564 231.95 674 287.74 786 467.73 901 683.72 1011 998.71 1125 1118.7 1239 1131.14 1344 1195.2 1457 1182.62 1573 1245.62 1684 1220.62 1795 1122.62 1910 981.62 2024 880.12 2136 717.95 2246 593.62 2359 616.62 2467 717.28 2582 839.28 2696.84 863.28 2807 915.28 2916.83 810.62 3029.83 885.95 3143.83 1037.95 3254.83 1125.95 3366.83 1253.95 3480.83 1213.95 3595.83 1202.62 3706.83 1169.95 3814.83 1161.29 3931.83 1218.62 4042.83 1131.95 4156.83 936.62 4268.83 798.62 4379.83 819.28 4494.83 759.95 4608.83 849.28 4717.83 854.62 4830.83" fill="none" stroke="#3b4351" stroke-miterlimit="10"/><polygon id="Iranians" points="1263.29 -669.83 1235.95 -784 1211.95 -898.5 1241.29 -1008.5 1280.62 -1121 1217.95 -1235.83 1163.29 -1345.16 1140.62 -1458.5 1175.95 -1569 1153.29 -1683.83 1137.95 -1797.16 1188.62 -1908.5 1153.95 -2021.16 1161.95 -2134 1156.67 -2249.27 1152.84 -2366.5 1131.29 -2473 1198.62 -2583.5 1275.29 -2695.5 1277.29 -2809.16 1268.62 -2918.83 1283.88 -3030.83 1411.11 -3030.83 1445.69 -2919.27 1480.18 -2808.6 1462.18 -2695.5 1438.19 -2583.5 1387.19 -2473 1387.19 -2361 1420.19 -2246.07 1429.19 -2134 1400.69 -2021.08 1417.19 -1908 1343.69 -1797 1325.69 -1683 1345.19 -1569 1313.69 -1457 1298.69 -1345 1310.69 -1235 1348.19 -1121 1313.69 -1008 1285.19 -897 1294.19 -784 1372.19 -669.83 1373.74 -561.27 1375.34 -449.27 1376.98 -334 1335.62 -224 1348.62 -112 1391.1 0 1462.62 111 1440.62 223.73 1447.62 340 1472.62 452 1505.62 563.73 1513.62 673.73 1437.62 785.73 1391.82 900.73 1219.62 786 1086.62 674 890.71 563.73 788.62 452 767.62 340 866.62 224 1041.62 110.73 1176.62 -0.27 1205.62 -112.27 1242.62 -224.27 1294.62 -334 1322.62 -446.83 1240.62 -561 1263.29 -669.83" fill="none" stroke="#3b4351" stroke-miterlimit="10"/><polygon id="Indians" points="1372.19 -669.83 1294.19 -784 1285.19 -897 1313.69 -1008 1348.19 -1121 1310.69 -1235 1298.69 -1345 1313.69 -1457 1345.19 -1569 1325.69 -1683 1343.69 -1797 1417.19 -1908 1400.69 -2021.08 1429.19 -2134 1419.27 -2249.27 1387.19 -2361 1387.19 -2473 1438.19 -2583.5 1462.18 -2695.5 1480.18 -2808.54 1445.82 -2918.83 1411.11 -3030.83 1545.86 -3030.83 1580.1 -2918.83 1593.12 -2808.6 1552.12 -2695.5 1514.62 -2583.5 1514.12 -2473.33 1553.12 -2361.27 1548.12 -2249 1519.62 -2134 1534.12 -2020.33 1575.12 -1908 1559.62 -1797 1564.12 -1683.27 1534.62 -1569 1486.12 -1457 1465.12 -1345 1471.12 -1235.83 1502.12 -1121.83 1508.12 -1008 1534.62 -897 1542.77 -818.14 1555.62 -669.83 1554.62 -561 1567.12 -449 1542.12 -334.27 1498.12 -224 1490.62 -112 1513.12 0 1568.62 111 1544.12 224 1530.62 339.73 1523.62 451.73 1532.62 564 1565.12 674 1543.62 786 1514.12 901 1490.12 1010.73 1495.62 1125 1517.12 1238.67 1528.12 1344 1580.62 1456.67 1578.12 1572.67 1578.12 1683.17 1560.12 1794.73 1526.62 1910 1467.62 2024 1381.62 2135.73 1270.62 2246 1090.12 2358.73 860.62 2467 1302.12 2582 1377.03 2694 1550.62 2807 1519.62 2916.83 1476.12 3029.83 1516.13 3143.83 1534.62 3256.17 1552.65 3366.83 1585.62 3480.73 1620.12 3595.83 1650.12 3706.83 1630.62 3814.73 1622.45 3931.73 1565.62 4042.83 1402.62 4156.17 1173.62 4268.83 1148.62 4379.83 1334.62 4494.83 1283.62 4608.83 1344.62 4717.83 1544.62 4830.83 1602.62 4945.17 1627.62 5056.83 1674.62 5169.73 1627.62 5284.83 1634.62 5396.83 1686.62 5508.83 1701.62 5621.83 1620.12 5733.83 1606.12 5844.83 1606.12 5958.66 1552.62 5958.66 1549.52 5844.83 1569.62 5733.83 1683.62 5621.83 1667.62 5508.83 1607.62 5396.83 1596.62 5284.17 1617.62 5169.83 1584.62 5056.83 1562.62 4944.83 1507.62 4830.83 1304.62 4717.73 1225.62 4608.73 1236.97 4571.78 1264.87 4494.83 1082.62 4379.83 1084.2 4269.34 1323.62 4156.83 1500.47 4042.73 1573.62 3931.83 1600.62 3814.83 1604.62 3706.83 1569.62 3595.83 1514.62 3480.83 1447.62 3366.73 1418.62 3254.83 1404.62 3143.83 1367.62 3029.83 1397.62 2916.83 1418.62 2806.73 1339.62 2693.73 1246.62 2582 748.62 2467 753.62 2359 910.76 2246 1053.62 2136 1195.2 2024 1311.62 1909.17 1353.62 1795 1348.62 1684 1364.62 1572.17 1406.62 1457 1401.62 1344 1429.62 1239 1394.62 1124.73 1393.2 1011 1391.82 900.73 1437.52 786 1513.62 673.73 1505.64 564 1472.62 452.17 1447.62 340 1440.63 224 1462.62 111 1391.1 0 1348.62 -112 1332.62 -224 1376.98 -334 1375.34 -449.27 1373.74 -561.27 1372.19 -669.83" fill="none" stroke="#3b4351" stroke-miterlimit="10"/><polygon id="Huns" points="1555.62 -669.83 1545.73 -784 1533.62 -897.33 1506.68 -1007.36 1502.16 -1121 1471.34 -1235 1465.12 -1345 1486.12 -1457 1534.62 -1569 1564.05 -1683 1559.62 -1797 1575.12 -1908 1534.24 -2020 1519.62 -2134 1548.12 -2249 1553.11 -2361 1514.47 -2473.27 1514.62 -2585.5 1552.12 -2695.5 1593.12 -2808.16 1580.1 -2918.83 1545.86 -3030.83 1633.99 -3030.83 1651.62 -2918.83 1667.62 -2808.16 1646.62 -2695.5 1620.62 -2583.5 1630.4 -2475.4 1650.62 -2361.33 1676.62 -2249 1700.12 -2134 1689.12 -2020 1714.62 -1908.33 1697.12 -1797.27 1645.62 -1683.27 1616.12 -1569 1586.62 -1457.27 1538.12 -1345.27 1509.12 -1235 1551.62 -1121 1585.12 -1008 1608.62 -897.33 1609.69 -784.27 1610.76 -671.27 1613.62 -561.27 1625.12 -449.27 1599.12 -333.33 1557.59 -224 1545.65 -112 1558.62 0 1584.62 110.73 1571.12 224.17 1576.62 340 1567.62 452 1587.12 564 1621.12 674 1612.12 786 1556.12 901 1528.62 1011 1529.62 1125 1553.62 1239 1616.07 1344 1609.25 1457 1592.66 1573 1611.01 1683.73 1612.12 1795 1598.04 1910 1564.12 2024 1534.29 2136 1602.12 2245.73 1653.62 2359 1673.62 2467 1666.12 2582 1668.12 2693.67 1625.62 2806.67 1542.12 2916.83 1476.12 3029.83 1519.62 2916.83 1550.62 2807 1376.62 2693.73 1302.12 2582 860.62 2467 1090.12 2358.73 1270.62 2246 1381.62 2135.73 1467.62 2024 1526.62 1910 1560.12 1794.73 1578.12 1683.17 1578.12 1572.67 1580.62 1456.67 1528.12 1344 1517.12 1238.67 1495.62 1125 1490.12 1010.73 1514.12 901 1543.62 786 1565.12 674 1532.62 564 1523.62 451.73 1530.62 339.73 1544.12 224 1568.62 111 1513.12 0 1490.62 -112 1498.12 -224 1542.12 -334.27 1567.12 -449 1554.62 -561 1555.62 -669.83" fill="none" stroke="#3b4351" stroke-miterlimit="10"/><polygon id="Greeks" points="1131.14 1344 1118.7 1239 998.71 1125 683.72 1011 467.73 901 287.74 786 231.95 674 205.28 564 169.95 452 149.95 340 137.95 224 116.62 111 111.95 0 95.28 -112 85.95 -224 75.42 -334 75.42 -507.33 75.42 -1797 142.25 -1683 145.25 -1569 155.75 -1457 172.25 -1345 202.25 -1235 223.25 -1121 251.62 -1008 250.62 -897 221.95 -783.16 228.6 -671.27 199.95 -561.16 217.95 -449.16 237.43 -334 262.62 -224 259.95 -112 319.29 0 349.95 111 401.29 224 527.28 340 645.95 452 761.95 564 965.29 674 965.95 786 897.95 900.17 910.76 1010.73 1099.37 1125 1168.66 1239.09 1131.14 1344" fill="none" stroke="#3b4351" stroke-miterlimit="10"/><polygon id="Egyptians" points="1195.2 1454.31 1131.14 1344 1168.66 1239.09 1099.2 1124.73 910.76 1010.73 897.95 900.17 965.95 786 965.28 673.5 761.95 564 645.95 452 527.28 340 401.29 224 349.95 111 319.29 0 259.95 -112 262.62 -224 238.62 -334 217.95 -449 199.95 -561 228.62 -671 221.62 -784 250.62 -897 251.62 -1008 223.25 -1121 271.57 -1235 265.25 -1345 305.74 -1457 341.74 -1569 376.24 -1683 440.74 -1797 467.73 -1907.09 443.74 -2020 381.96 -2134 242.75 -2249 298.62 -2361 424.24 -2473 460.24 -2583.5 397.24 -2695.5 319.24 -2808.16 319.24 -2918.83 298.62 -3030.83 1103.77 -3030.83 1042.62 -2918.83 982.62 -2808.16 940.62 -2695.5 786.62 -2583.5 663.62 -2473 633.62 -2361 662.62 -2249 656.62 -2134.08 733.62 -2020.27 800.62 -1908.83 770.62 -1797 750.62 -1683 785.62 -1569 835.62 -1457 742.62 -1345 658.62 -1235 439.62 -1121 400.62 -1008 361.62 -897 302.62 -784 310.62 -671 282.62 -561 271.95 -449 305.95 -224 323.95 -112.5 432.62 0 476.62 110.17 451.95 224 555.95 340 667.28 452 813.28 564 968.62 674 995.95 786 968.62 900.84 940.62 1009.5 1130.91 1124.73 1189.62 1239.67 1157.7 1344 1195.2 1454.31" fill="none" stroke="#3b4351" stroke-miterlimit="10"/><polygon id="Chinese" points="1610.76 -671.27 1609.69 -784.27 1608.62 -897.33 1585.12 -1008 1551.62 -1121 1509.12 -1235 1538.12 -1345.27 1586.62 -1457.27 1616.12 -1569 1645.62 -1683.27 1697.12 -1797.27 1714.62 -1908.33 1689.12 -2020 1700.12 -2134 1676.62 -2249 1650.62 -2361.33 1630.62 -2473 1620.62 -2583.5 1646.62 -2695.5 1667.62 -2808.16 1651.62 -2918.83 1633.99 -3030.83 1768.79 -3030.83 1768.79 5169.83 1768.79 5284.73 1766.12 5396.83 1757.62 5508.83 1736.12 5621.73 1676.12 5733.73 1661.12 5844.83 1663.62 5958.66 1606.12 5958.66 1606.12 5844.73 1620.12 5733.83 1701.62 5621.83 1696.12 5508.67 1654.12 5396.83 1681.62 5284.83 1739.62 5169.73 1748.62 5056.67 1744.12 4944.67 1685.62 4830.83 1615.12 4720.17 1636.12 4608.83 1738.62 4494.83 1761.12 4379.83 1758.62 4268.83 1732.12 4156.83 1695.62 4042.83 1667.62 3931.83 1651.12 3814.83 1650.12 3706.83 1620.12 3595.83 1585.62 3480.73 1552.62 3366.73 1535.12 3254.83 1516.12 3143.73 1476.12 3029.83 1542.12 2916.83 1625.62 2806.67 1668.12 2693.67 1666.12 2582 1673.62 2467 1653.62 2359 1602.12 2245.73 1534.12 2135.73 1564.12 2024 1598.12 1909.73 1612.12 1795 1611.01 1683.73 1592.62 1572.73 1609.25 1457 1616.07 1344 1553.62 1239 1529.62 1125 1528.62 1010.73 1555.62 901 1612.12 786 1621.12 674 1587.12 564 1567.62 452 1576.62 340 1571.12 224 1584.62 110.73 1558.62 0 1545.62 -112.27 1557.62 -224.27 1599.62 -334 1625.12 -449.27 1613.62 -561.27 1610.76 -671.27" fill="none" stroke="#3b4351" stroke-miterlimit="10"/><polygon id="Amorites" points="1263.29 -669.83 1240.62 -561 1322.62 -449 1294.62 -334 1242.62 -224.27 1205.62 -112.27 1176.62 -0.27 1041.62 110.73 866.62 224 767.62 340 788.62 452 890.71 563.73 762.62 451.73 716.62 339.73 709.62 224 755.62 111 1054.29 -0.27 1156.62 -112 1173.62 -225.83 1199.62 -335.83 1138.62 -449 910.76 -561 832.62 -671.27 949.95 -784 1040.62 -897.27 1141.31 -1008 1225.29 -1121.16 1147.62 -1235 1085.29 -1345 1061.29 -1457.27 1028.62 -1569.27 971.95 -1683.16 961.95 -1797.83 992.62 -1908 910.76 -2020.27 853.28 -2134 826.62 -2249 785.95 -2361 823.95 -2473 910.76 -2583.5 1027.29 -2695.5 1025.29 -2808.16 1091.29 -2918.83 1152.07 -3030.83 1283.88 -3030.83 1268.62 -2918.83 1277.29 -2809.16 1275.29 -2695.5 1198.62 -2583.5 1131.29 -2473 1153.95 -2361 1156.67 -2249.27 1161.95 -2134 1153.95 -2021.16 1188.62 -1908.5 1137.95 -1797.16 1153.29 -1683.83 1175.95 -1569 1140.62 -1458.5 1163.29 -1345.16 1217.95 -1235.83 1280.62 -1121 1241.29 -1008.5 1211.95 -898.5 1235.95 -784 1263.29 -669.83" fill="none" stroke="#3b4351" stroke-miterlimit="10"/><polygon id="Assyrian_Kingdom" data-name="Assyrian Kingdom" points="631.95 -671.27 635.28 -784 679.9 -897 701.28 -1008 799.28 -1121 980.62 -1235 1007.95 -1345 1020.62 -1457 998.62 -1569 971.95 -1683.16 1028.62 -1569.27 1061.29 -1457.27 1085.29 -1345 1147.62 -1235 1225.29 -1121.16 1141.31 -1008 1040.62 -897.27 949.95 -784 832.62 -671.27 910.76 -561 1138.62 -449 1199.62 -335.83 1173.62 -225.83 1156.62 -112 1054.29 -0.27 755.62 111 709.62 224 716.62 339.73 658.28 224 654.62 111 630.95 0 510.62 -112 518.62 -224 595.95 -334 638.62 -449 643.28 -561 631.95 -671.27" fill="none" stroke="#3b4351" stroke-miterlimit="10"/><polygon id="OPians" points="305.95 -224 289.61 -332.17 271.95 -449 282.62 -561 310.62 -671 302.62 -784 361.62 -897 337.24 -784 347.74 -671.27 359.29 -449 383.29 -334 387.95 -224 375.82 -112 465.29 0 476.62 110.17 432.62 0 323.95 -112.5 305.95 -224" fill="none" stroke="#3b4351" stroke-miterlimit="10"/><polygon id="Hebrews" points="635.28 -784 631.95 -671.27 643.28 -561 638.62 -449 595.95 -334 518.62 -224 510.62 -112 630.95 0 654.62 111 658.28 224 716.62 339.73 647.18 224 644.62 111 617.95 0 493.29 -112 500.03 -224 570.62 -334 613.28 -448 583.28 -561 569.28 -671 511.95 -784 573.95 -897 630.62 -1008 697.58 -1121 921.28 -1235 989.95 -1345 1020.62 -1457 1007.95 -1345 980.62 -1235 799.28 -1121 701.28 -1008 679.9 -897 635.28 -784" fill="none" stroke="#3b4351" stroke-miterlimit="10"/><polygon id="Lydians" points="611.95 224 624.62 340 667.28 452 555.95 340 451.95 224 476.62 110.17 465.29 0 375.82 -112 523.28 0 608.62 111 611.95 224" fill="none" stroke="#3b4351" stroke-miterlimit="10"/><polygon points="1130.91 1124.73 940.62 1009.5 968.62 900.84 995.95 786 968.62 674 813.28 564 667.28 452 624.62 340 611.95 224 608.62 111 523.28 0 375.82 -112 387.95 -224 383.29 -334 359.29 -449 340.62 -559.84 347.74 -671.27 394.24 -784 481.23 -897 566.62 -1008 623.95 -1121 857.28 -1235 954.62 -1347.16 975.28 -1457.16 969.28 -1569 971.95 -1683.16 998.62 -1569 1020.62 -1457 989.95 -1345 921.28 -1235 697.58 -1121 630.62 -1008 573.95 -897 511.95 -784 538.62 -671 509.95 -561 479.29 -449 428.62 -334 439.95 -224 493.29 -112 617.95 0 644.62 111 647.18 224 716.62 339.73 762.62 451.73 890.71 563.73 1086.62 674 1219.62 786 1225.12 901 1186.62 1011 1130.91 1124.73" fill="none" stroke="#3b4351" stroke-miterlimit="10"/></g><g id="Text"><g id="Indians-2" data-name="Indians"><path d="M1468.24,63H1471V80.49h-2.79Z" fill="#3b4351"/><path d="M1473.8,63h3.41l5.07,13h0V63H1485V80.49h-3.41l-5.07-13.38h0V80.49h-2.65Z" fill="#3b4351"/><path d="M1487.86,63h5c5.49,0,6.17,3.57,6.17,8.74s-.68,8.75-6.17,8.75h-5Zm2.8,15.38h2.3c2.3,0,3.26-1.51,3.26-6.64,0-4.92-.83-6.64-3.26-6.64h-2.3Z" fill="#3b4351"/><path d="M1501.36,63h2.8V80.49h-2.8Z" fill="#3b4351"/><path d="M1510.23,63h3.58l4.61,17.49h-2.92l-1.08-4.29h-5.12l-1.13,4.29h-2.91ZM1514,74l-2-8.62h0L1509.81,74Z" fill="#3b4351"/></g><g id="Greeks-2" data-name="Greeks"><path d="M163.33,78.46h0a3.65,3.65,0,0,1-3.83,2.38c-3.82,0-5.19-2.85-5.19-9.1s1.76-9.09,5.81-9.09a4.77,4.77,0,0,1,5.12,5.05V68h-2.65V67.6c0-1.3-.54-2.84-2.45-2.84s-3,1.32-3,6.91.93,7.06,2.82,7.06c2.13,0,2.92-1.52,2.92-5.34h-2.94V71.28h5.58v9.21h-2.11Z" fill="#3b4351"/><path d="M167.67,67.31h2.65v2.06h0a3.26,3.26,0,0,1,3.07-2.4,1.61,1.61,0,0,1,.64.09v2.7a3.87,3.87,0,0,0-1.11-.15c-1.2,0-2.64.54-2.64,3v7.89h-2.65Z" fill="#3b4351"/><path d="M177.52,74.24V75c0,1.77.22,4,2.2,4s2.11-2.13,2.11-2.94h2.5c0,3-1.76,4.76-4.63,4.76-2.16,0-4.83-.64-4.83-6.74,0-3.46.76-7.13,4.88-7.13,3.67,0,4.65,2.23,4.65,5.88v1.39Zm4.24-1.81v-.71c0-1.67-.54-2.94-2-2.94-1.66,0-2.2,1.67-2.2,3.38v.27Z" fill="#3b4351"/><path d="M188.86,74.24V75c0,1.77.22,4,2.21,4s2.1-2.13,2.1-2.94h2.5c0,3-1.76,4.76-4.63,4.76-2.15,0-4.82-.64-4.82-6.74,0-3.46.76-7.13,4.87-7.13,3.68,0,4.66,2.23,4.66,5.88v1.39Zm4.24-1.81v-.71c0-1.67-.54-2.94-2-2.94-1.67,0-2.21,1.67-2.21,3.38v.27Z" fill="#3b4351"/><path d="M197.93,63h2.64v9.82h.05l4-5.51,3.06,0-4,5.1,4.48,8.11H205.3l-3.23-6-1.5,1.81v4.19h-2.64Z" fill="#3b4351"/><path d="M226.08,74.22v.37c0,3.16-1.3,6.25-5.39,6.25-4.41,0-5.79-2.85-5.79-9.1s1.38-9.09,5.81-9.09c5,0,5.27,3.65,5.27,5.49v.32h-2.79v-.29c0-1.65-.49-3.48-2.5-3.41s-3,1.27-3,6.91.9,7.06,3,7.06c2.35,0,2.6-2.57,2.6-4.22v-.29Z" fill="#3b4351"/><path d="M228,62.8h2.64v2.65H228Zm0,4.51h2.64V80.49H228Z" fill="#3b4351"/><path d="M232.13,67.31h1.81V63.56h2.65v3.75h2.15v2h-2.15v7.87c0,1,.29,1.39,1.2,1.39a4.91,4.91,0,0,0,1-.07v2a8.44,8.44,0,0,1-2.13.22c-1.76,0-2.67-.52-2.67-3.19V69.27h-1.81Z" fill="#3b4351"/><path d="M241.88,67.31l2.28,9.9h.05l2.1-9.9h2.77L245.46,81c-1.06,3.6-1.87,4.1-4.61,4a4.62,4.62,0,0,1-1-.1V82.8a3.51,3.51,0,0,0,.85.09c.91,0,1.5-.17,1.79-1l.35-1.08L239,67.31Z" fill="#3b4351"/><path d="M258.76,75.08v.44c0,2.13.95,3.21,2.87,3.21a2.51,2.51,0,0,0,2.64-2.55c0-1.84-.93-2.65-2.5-3.11l-1.91-.66c-2.55-1-3.65-2.31-3.65-4.81,0-3.18,2.18-4.95,5.44-4.95,4.49,0,5,2.8,5,4.61v.39h-2.79v-.37c0-1.59-.69-2.52-2.45-2.52A2.24,2.24,0,0,0,259,67.28c0,1.5.76,2.26,2.63,3l1.88.69c2.48.88,3.56,2.2,3.56,4.63,0,3.72-2.26,5.27-5.79,5.27-4.33,0-5.31-2.9-5.31-5.35v-.41Z" fill="#3b4351"/><path d="M268,67.31h1.81V63.56h2.65v3.75h2.16v2h-2.16v7.87c0,1,.29,1.39,1.2,1.39a5.1,5.1,0,0,0,1-.07v2a8.58,8.58,0,0,1-2.14.22c-1.76,0-2.67-.52-2.67-3.19V69.27H268Z" fill="#3b4351"/><path d="M284.61,77.75c0,.49.29.93.68.93a1.24,1.24,0,0,0,.45-.07v1.71a2.86,2.86,0,0,1-1.3.32c-1.18,0-2.16-.47-2.23-1.74h0a3.41,3.41,0,0,1-3.29,1.94c-2.13,0-3.43-1.16-3.43-3.7,0-3,1.3-3.56,3.07-4.15l2.05-.56c1-.27,1.55-.54,1.55-1.69s-.42-2-1.82-2c-1.76,0-2,1.25-2,2.52h-2.5c0-2.82,1.15-4.33,4.63-4.33,2.33,0,4.19.9,4.19,3.23Zm-2.5-4.22a20.5,20.5,0,0,1-2.94,1.23,2.17,2.17,0,0,0-1.08,2.13c0,1.1.54,2,1.64,2,1.59,0,2.38-1.17,2.38-3.13Z" fill="#3b4351"/><path d="M286.12,67.31h1.82V63.56h2.64v3.75h2.16v2h-2.16v7.87c0,1,.3,1.39,1.21,1.39a4.91,4.91,0,0,0,.95-.07v2a8.44,8.44,0,0,1-2.13.22c-1.77,0-2.67-.52-2.67-3.19V69.27h-1.82Z" fill="#3b4351"/><path d="M296.39,74.24V75c0,1.77.22,4,2.21,4s2.1-2.13,2.1-2.94h2.5c0,3-1.76,4.76-4.63,4.76-2.16,0-4.83-.64-4.83-6.74,0-3.46.76-7.13,4.88-7.13,3.68,0,4.66,2.23,4.66,5.88v1.39Zm4.24-1.81v-.71c0-1.67-.54-2.94-2-2.94-1.67,0-2.21,1.67-2.21,3.38v.27Z" fill="#3b4351"/><path d="M311.14,71.16v-.35c0-1-.37-2-1.74-2-1,0-1.89.46-1.89,1.71,0,1.06.47,1.45,1.87,1.94l1.69.59c2,.66,2.86,1.71,2.86,3.8,0,2.81-2.08,4-4.73,4-3.33,0-4.33-1.55-4.33-4.1v-.49h2.35v.42c0,1.54.51,2.35,2.06,2.35s2.15-.73,2.15-1.93A1.91,1.91,0,0,0,310,75.15l-2.16-.76c-2-.66-2.82-1.69-2.82-3.8,0-2.47,1.77-3.62,4.51-3.62,3.36,0,4.12,2,4.12,3.6v.59Z" fill="#3b4351"/><path d="M324,11.91c0-2.36.62-4,2.8-4s2.82,1.61,2.82,4-.73,4-2.82,4S324,14.26,324,11.91Zm2.8,2.84c1.11,0,1.31-.92,1.31-2.84,0-1.67-.2-2.85-1.31-2.85s-1.28,1.18-1.28,2.85C325.56,13.83,325.77,14.75,326.84,14.75Z" fill="#3b4351"/><path d="M331.28,9.26h-1V8.14h1v-.7c0-1.42.69-1.88,1.92-1.88.32,0,.6,0,.83,0V6.77h-.42c-.56,0-.82.21-.82.71v.66H334V9.26h-1.24v6.41h-1.51Z" fill="#3b4351"/><path d="M337.4,8.14h1V6H340V8.14h1.23V9.26H340v4.5c0,.6.17.79.68.79a2.75,2.75,0,0,0,.55,0v1.12a4.64,4.64,0,0,1-1.22.13c-1,0-1.53-.3-1.53-1.82V9.26h-1Z" fill="#3b4351"/><path d="M342,5.67h1.52V9l0,0a2.14,2.14,0,0,1,1.85-1c1.15,0,1.87.52,1.87,2.05v5.68h-1.51V10.51c0-1-.28-1.36-1.05-1.36s-1.2.47-1.2,1.47v5.05H342Z" fill="#3b4351"/><path d="M350,12.1v.44c0,1,.13,2.29,1.26,2.29s1.2-1.21,1.2-1.68h1.43a2.48,2.48,0,0,1-2.64,2.72c-1.24,0-2.76-.36-2.76-3.85,0-2,.43-4.08,2.78-4.08,2.1,0,2.67,1.28,2.67,3.36v.8Zm2.42-1v-.41c0-.95-.31-1.68-1.16-1.68S350,9.93,350,10.91v.16Z" fill="#3b4351"/><path d="M360.44,10.59,358,5.67h1.77L361.4,9,363,5.67h1.73l-2.43,4.92,2.55,5.08h-1.76l-1.74-3.61-1.78,3.61h-1.72Z" fill="#3b4351"/><path d="M367.44,10.59,365,5.67h1.77L368.4,9,370,5.67h1.73l-2.43,4.92,2.55,5.08h-1.76l-1.74-3.61-1.78,3.61h-1.72Z" fill="#3b4351"/><path d="M371.73,5.67h1.69l1.7,8h0l1.8-8h1.69l-2.52,10h-2Z" fill="#3b4351"/><path d="M379.3,5.67h1.6v10h-1.6Z" fill="#3b4351"/><path d="M381.71,8.14h1V6h1.52V8.14h1.23V9.26h-1.23v4.5c0,.6.17.79.68.79a2.75,2.75,0,0,0,.55,0v1.12a4.64,4.64,0,0,1-1.22.13c-1,0-1.53-.3-1.53-1.82V9.26h-1Z" fill="#3b4351"/><path d="M386.27,5.67h1.52V9l0,0a2.14,2.14,0,0,1,1.85-1c1.14,0,1.87.52,1.87,2.05v5.68H390V10.51c0-1-.28-1.36-1.05-1.36s-1.2.47-1.2,1.47v5.05h-1.52Z" fill="#3b4351"/><path d="M396.46,5.67h2.85c3.14,0,3.53,2.05,3.53,5s-.39,5-3.53,5h-2.85Zm1.6,8.8h1.32c1.31,0,1.86-.87,1.86-3.8s-.48-3.79-1.86-3.79h-1.32Z" fill="#3b4351"/><path d="M405.16,8.14l1.3,5.66h0l1.2-5.66h1.59L407.2,16c-.6,2.05-1.06,2.33-2.63,2.29a3,3,0,0,1-.6-.05V17a2.05,2.05,0,0,0,.49.06c.52,0,.85-.1,1-.59l.2-.62-2.15-7.7Z" fill="#3b4351"/><path d="M410.11,8.14h1.43V9h0a2.18,2.18,0,0,1,1.94-1.08c1.15,0,1.87.52,1.87,2.05v5.68h-1.51V10.51c0-1-.26-1.36-1.05-1.36-.61,0-1.2.46-1.2,1.47v5.05h-1.52Z" fill="#3b4351"/><path d="M421.79,14.11c0,.28.17.53.39.53a.78.78,0,0,0,.26,0v1a1.76,1.76,0,0,1-.75.18c-.67,0-1.23-.27-1.27-1h0a1.93,1.93,0,0,1-1.87,1.11c-1.22,0-2-.66-2-2.11a2.08,2.08,0,0,1,1.75-2.37l1.18-.32c.55-.16.88-.31.88-1s-.23-1.12-1-1.12c-1,0-1.15.71-1.15,1.44h-1.43c0-1.61.66-2.48,2.65-2.48,1.33,0,2.39.52,2.39,1.85Zm-1.43-2.41a13.82,13.82,0,0,1-1.68.7,1.24,1.24,0,0,0-.61,1.22c0,.63.3,1.13.94,1.13.91,0,1.35-.67,1.35-1.79Z" fill="#3b4351"/><path d="M426.58,10.34v-.2c0-.6-.21-1.16-1-1.16-.6,0-1.07.27-1.07,1s.26.83,1.06,1.11l1,.33a2,2,0,0,1,1.64,2.17c0,1.61-1.19,2.3-2.71,2.3-1.9,0-2.48-.88-2.48-2.34v-.28h1.35v.24c0,.88.29,1.34,1.18,1.34s1.23-.42,1.23-1.1a1.09,1.09,0,0,0-.83-1.11l-1.23-.43A2,2,0,0,1,423.08,10c0-1.42,1-2.08,2.58-2.08,1.91,0,2.35,1.12,2.35,2.06v.34Z" fill="#3b4351"/><path d="M428.62,8.14h1V6h1.51V8.14h1.23V9.26h-1.23v4.5c0,.6.17.79.69.79a2.7,2.7,0,0,0,.54,0v1.12a4.59,4.59,0,0,1-1.22.13c-1,0-1.52-.3-1.52-1.82V9.26h-1Z" fill="#3b4351"/><path d="M434.19,8.14l1.31,5.66h0l1.2-5.66h1.58L436.24,16c-.6,2.05-1.07,2.33-2.63,2.29a3.14,3.14,0,0,1-.61-.05V17a2.12,2.12,0,0,0,.49.06c.52,0,.86-.1,1-.59l.19-.62-2.14-7.7Z" fill="#3b4351"/><path d="M438.27,13.83h1.6v1.84h-1.6Z" fill="#3b4351"/><path d="M364.59,26.67h3.53a2.31,2.31,0,0,1,2.53,2.58c0,1.29-.56,2.28-1.67,2.45v0c1,.1,1.52.64,1.57,2,0,.66,0,1.43.06,2a1.09,1.09,0,0,0,.48.87h-1.81a1.69,1.69,0,0,1-.27-.88,8.9,8.9,0,0,1,0-.9c0-.29,0-.63,0-1,0-1.09-.38-1.57-1.45-1.57h-1.31v4.34h-1.59Zm2.87,4.45a1.47,1.47,0,0,0,1.6-1.62c0-1.06-.45-1.63-1.52-1.63h-1.36v3.25Z" fill="#3b4351"/><path d="M373.31,33.1v.43c0,1,.12,2.3,1.26,2.3s1.2-1.22,1.2-1.68h1.43a2.48,2.48,0,0,1-2.64,2.72c-1.24,0-2.76-.37-2.76-3.85,0-2,.43-4.08,2.78-4.08,2.1,0,2.67,1.27,2.67,3.36v.8Zm2.42-1v-.4c0-1-.31-1.68-1.16-1.68s-1.26.95-1.26,1.93v.15Z" fill="#3b4351"/><path d="M377.86,29.14h1.62l1.32,5.94h0L382,29.14h1.61l-2,7.53h-1.77Z" fill="#3b4351"/><path d="M384.52,26.56H386v1.51h-1.51Zm0,2.58H386v7.53h-1.51Z" fill="#3b4351"/><path d="M386.93,29.14h1.62l1.32,5.94h0l1.19-5.94h1.61l-2,7.53H389Z" fill="#3b4351"/><path d="M398.3,35.1c0,.28.17.54.39.54a.52.52,0,0,0,.25,0v1a1.55,1.55,0,0,1-.74.19c-.67,0-1.23-.27-1.27-1h0A2,2,0,0,1,395,36.87c-1.22,0-2-.66-2-2.12a2.06,2.06,0,0,1,1.75-2.36l1.18-.33c.55-.15.88-.3.88-1s-.24-1.12-1-1.12c-1,0-1.14.71-1.14,1.44h-1.43c0-1.61.66-2.48,2.65-2.48,1.33,0,2.39.52,2.39,1.85Zm-1.43-2.41a11.23,11.23,0,0,1-1.68.7,1.25,1.25,0,0,0-.62,1.22c0,.63.31,1.14.94,1.14.91,0,1.36-.67,1.36-1.8Z" fill="#3b4351"/><path d="M399.91,26.67h1.51v10h-1.51Z" fill="#3b4351"/><path d="M406,32.9c0-2.35.62-4,2.8-4s2.82,1.61,2.82,4-.73,4-2.82,4S406,35.26,406,32.9Zm2.8,2.85c1.11,0,1.31-.93,1.31-2.85,0-1.66-.2-2.84-1.31-2.84s-1.29,1.18-1.29,2.84C407.52,34.82,407.73,35.75,408.81,35.75Z" fill="#3b4351"/><path d="M413.25,30.26H412.2V29.14h1.05v-.7c0-1.42.69-1.88,1.92-1.88a6.67,6.67,0,0,1,.83,0v1.16h-.42c-.57,0-.82.21-.82.72v.66H416v1.12h-1.24v6.41h-1.51Z" fill="#3b4351"/><path d="M419.75,32.9c0-2.35.61-4,2.8-4s2.81,1.61,2.81,4-.73,4-2.81,4S419.75,35.26,419.75,32.9Zm2.8,2.85c1.1,0,1.3-.93,1.3-2.85,0-1.66-.2-2.84-1.3-2.84s-1.29,1.18-1.29,2.84C421.26,34.82,421.47,35.75,422.55,35.75Z" fill="#3b4351"/><path d="M426.59,26.67h1.51v10h-1.51Z" fill="#3b4351"/><path d="M433.48,35.75h0a1.6,1.6,0,0,1-1.65,1.12c-1.75,0-2.47-1.49-2.47-4.06,0-3.35,1.18-3.87,2.33-3.87A1.74,1.74,0,0,1,433.37,30h0V26.67h1.51v10h-1.43Zm-1.37-5.61c-.86,0-1.18.7-1.18,2.74,0,1.7.21,2.78,1.28,2.78s1.27-1,1.27-2.67C433.48,31.18,433.29,30.14,432.11,30.14Z" fill="#3b4351"/><path d="M371.2,47.33v-.19c0-.6-.21-1.16-1-1.16-.6,0-1.07.26-1.07,1s.26.82,1.06,1.1l1,.34a2,2,0,0,1,1.64,2.17c0,1.61-1.2,2.3-2.71,2.3-1.9,0-2.48-.88-2.48-2.34v-.28H369v.24c0,.88.29,1.34,1.17,1.34s1.24-.42,1.24-1.11a1.09,1.09,0,0,0-.83-1.1l-1.23-.44A2,2,0,0,1,367.7,47c0-1.41,1-2.07,2.57-2.07,1.92,0,2.36,1.12,2.36,2.06v.33Z" fill="#3b4351"/><path d="M377.16,52.87a1.74,1.74,0,0,1-1.71-1.08h0v3.35h-1.52v-10h1.43v.92h0a1.78,1.78,0,0,1,1.69-1.12c1.73,0,2.43,1.47,2.43,4.06C379.49,52.17,378.21,52.87,377.16,52.87Zm-.54-6.73c-1,0-1.28,1-1.28,2.68,0,1.81.23,2.84,1.29,2.84.85,0,1.26-.64,1.26-2.73C377.89,47.22,377.68,46.14,376.62,46.14Z" fill="#3b4351"/><path d="M380.72,42.67h1.51v10h-1.51Z" fill="#3b4351"/><path d="M385.06,49.1v.43c0,1,.12,2.3,1.26,2.3s1.2-1.22,1.2-1.68H389a2.48,2.48,0,0,1-2.65,2.72c-1.23,0-2.76-.37-2.76-3.85,0-2,.44-4.08,2.79-4.08,2.1,0,2.66,1.27,2.66,3.36v.8Zm2.42-1v-.4c0-1-.31-1.68-1.16-1.68s-1.26,1-1.26,1.93v.15Z" fill="#3b4351"/><path d="M390.24,45.14h1.42V46h0a2.17,2.17,0,0,1,1.93-1.08c1.15,0,1.88.52,1.88,2v5.69H394V47.5c0-1-.26-1.36-1.05-1.36-.61,0-1.2.47-1.2,1.48v5.05h-1.51Z" fill="#3b4351"/><path d="M400.82,51.75h0a1.6,1.6,0,0,1-1.65,1.12c-1.75,0-2.46-1.49-2.46-4.06,0-3.35,1.17-3.87,2.32-3.87A1.74,1.74,0,0,1,400.71,46h0V42.67h1.51v10h-1.43Zm-1.37-5.61c-.85,0-1.18.7-1.18,2.74,0,1.7.21,2.78,1.28,2.78s1.27-1,1.27-2.67C400.82,47.18,400.63,46.14,399.45,46.14Z" fill="#3b4351"/><path d="M403.41,48.9c0-2.35.62-4,2.8-4s2.82,1.61,2.82,4-.73,4-2.82,4S403.41,51.26,403.41,48.9Zm2.8,2.85c1.11,0,1.3-.93,1.3-2.85,0-1.66-.19-2.84-1.3-2.84s-1.29,1.18-1.29,2.84C404.92,50.82,405.13,51.75,406.21,51.75Z" fill="#3b4351"/><path d="M414,51.79h0a2.18,2.18,0,0,1-1.94,1.08c-1.12,0-1.87-.52-1.87-2.47V45.14h1.51v5.4c0,.84.36,1.12,1,1.12A1.17,1.17,0,0,0,414,50.4V45.14h1.52v7.53H414Z" fill="#3b4351"/><path d="M416.92,45.14h1.51v1.17h0a1.87,1.87,0,0,1,1.75-1.37.77.77,0,0,1,.37.06v1.54a1.91,1.91,0,0,0-.63-.09c-.69,0-1.52.31-1.52,1.71v4.51h-1.51Z" fill="#3b4351"/><path d="M429.63,51.1c0,.28.17.54.4.54a.55.55,0,0,0,.25,0v1a1.58,1.58,0,0,1-.74.19c-.68,0-1.24-.27-1.28-1h0a1.94,1.94,0,0,1-1.87,1.11c-1.22,0-2-.66-2-2.12a2.07,2.07,0,0,1,1.76-2.36l1.17-.33c.55-.15.88-.3.88-1S428,46,427.17,46c-1,0-1.15.71-1.15,1.44h-1.43c0-1.61.66-2.48,2.65-2.48,1.33,0,2.39.52,2.39,1.85Zm-1.43-2.41a10.42,10.42,0,0,1-1.68.7,1.24,1.24,0,0,0-.61,1.22c0,.63.31,1.14.94,1.14.91,0,1.35-.67,1.35-1.8Z" fill="#3b4351"/><path d="M431.17,45.14h1.43V46h0a2.17,2.17,0,0,1,1.94-1.08c1.14,0,1.87.52,1.87,2v5.69h-1.51V47.5c0-1-.27-1.36-1.05-1.36-.62,0-1.21.47-1.21,1.48v5.05h-1.51Z" fill="#3b4351"/><path d="M441.76,51.75h0a1.61,1.61,0,0,1-1.65,1.12c-1.75,0-2.47-1.49-2.47-4.06,0-3.35,1.18-3.87,2.33-3.87a1.73,1.73,0,0,1,1.7,1.08h0V42.67h1.52v10h-1.43Zm-1.38-5.61c-.85,0-1.17.7-1.17,2.74,0,1.7.21,2.78,1.27,2.78s1.28-1,1.28-2.67C441.76,47.18,441.56,46.14,440.38,46.14Z" fill="#3b4351"/><path d="M380,58.56h1.51v1.51H380Zm0,2.58h1.51v7.53H380Z" fill="#3b4351"/><path d="M383,61.14h1.42V62h.05a2.15,2.15,0,0,1,1.93-1.08c1.15,0,1.88.52,1.88,2v5.69h-1.52V63.5c0-1-.26-1.36-1-1.36-.61,0-1.2.47-1.2,1.48v5.05H383Z" fill="#3b4351"/><path d="M389.07,61.14h1V59h1.52v2.15h1.23v1.12h-1.23v4.49c0,.6.17.8.68.8a2.75,2.75,0,0,0,.55,0v1.12a5.11,5.11,0,0,1-1.22.13c-1,0-1.53-.3-1.53-1.82V62.26h-1Z" fill="#3b4351"/><path d="M393.63,61.14h1.51v1.17h0a1.87,1.87,0,0,1,1.75-1.37.77.77,0,0,1,.37.06v1.54a1.87,1.87,0,0,0-.63-.09c-.69,0-1.52.31-1.52,1.71v4.51h-1.51Z" fill="#3b4351"/><path d="M397.75,64.9c0-2.35.61-4,2.8-4s2.81,1.61,2.81,4-.72,4-2.81,4S397.75,67.26,397.75,64.9Zm2.8,2.85c1.11,0,1.3-.93,1.3-2.85,0-1.66-.19-2.84-1.3-2.84s-1.29,1.18-1.29,2.84C399.26,66.82,399.47,67.75,400.55,67.75Z" fill="#3b4351"/><path d="M408.38,67.75h0a1.61,1.61,0,0,1-1.66,1.12c-1.75,0-2.46-1.49-2.46-4.06,0-3.35,1.18-3.87,2.32-3.87A1.74,1.74,0,0,1,408.26,62h0V58.67h1.51v10h-1.42ZM407,62.14c-.85,0-1.17.7-1.17,2.74,0,1.7.21,2.78,1.27,2.78s1.28-1,1.28-2.67C408.38,63.18,408.18,62.14,407,62.14Z" fill="#3b4351"/><path d="M415.11,67.79h0a2.17,2.17,0,0,1-1.94,1.08c-1.12,0-1.87-.52-1.87-2.47V61.14h1.51v5.4c0,.84.36,1.12,1,1.12A1.18,1.18,0,0,0,415,66.4V61.14h1.51v7.53h-1.43Z" fill="#3b4351"/><path d="M423.08,65.93c-.12,1.8-.7,2.94-2.58,2.94-2.19,0-2.8-1.61-2.8-4s.61-4,2.8-4a2.43,2.43,0,0,1,2.59,2.7h-1.51c0-.7-.18-1.62-1.08-1.58-1.08,0-1.29,1.18-1.29,2.84s.21,2.85,1.29,2.85c.84,0,1.15-.69,1.15-1.82Z" fill="#3b4351"/><path d="M423.54,61.14h1V59h1.51v2.15h1.24v1.12h-1.24v4.49c0,.6.17.8.69.8a2.75,2.75,0,0,0,.55,0v1.12a5.11,5.11,0,0,1-1.22.13c-1,0-1.53-.3-1.53-1.82V62.26h-1Z" fill="#3b4351"/><path d="M428.17,58.56h1.51v1.51h-1.51Zm0,2.58h1.51v7.53h-1.51Z" fill="#3b4351"/><path d="M430.91,64.9c0-2.35.62-4,2.8-4s2.82,1.61,2.82,4-.73,4-2.82,4S430.91,67.26,430.91,64.9Zm2.8,2.85c1.11,0,1.31-.93,1.31-2.85,0-1.66-.2-2.84-1.31-2.84s-1.28,1.18-1.28,2.84C432.43,66.82,432.64,67.75,433.71,67.75Z" fill="#3b4351"/><path d="M437.69,61.14h1.43V62h0a2.17,2.17,0,0,1,1.93-1.08c1.15,0,1.88.52,1.88,2v5.69h-1.51V63.5c0-1-.27-1.36-1-1.36-.62,0-1.21.47-1.21,1.48v5.05h-1.51Z" fill="#3b4351"/><path d="M377.48,80.9c0-2.35.61-4,2.8-4s2.81,1.61,2.81,4-.72,4-2.81,4S377.48,83.26,377.48,80.9Zm2.8,2.85c1.1,0,1.3-.93,1.3-2.85,0-1.66-.2-2.84-1.3-2.84S379,79.24,379,80.9C379,82.82,379.2,83.75,380.28,83.75Z" fill="#3b4351"/><path d="M384.71,78.26h-1V77.14h1v-.7c0-1.42.69-1.88,1.92-1.88a6.47,6.47,0,0,1,.83,0v1.16H387c-.56,0-.81.21-.81.72v.66h1.23v1.12h-1.23v6.41h-1.52Z" fill="#3b4351"/><path d="M396.55,83.51h0a2.08,2.08,0,0,1-2.19,1.36c-2.18,0-3-1.63-3-5.2s1-5.2,3.32-5.2a2.73,2.73,0,0,1,2.93,2.89v.18H396.1V77.3c0-.74-.31-1.62-1.4-1.62s-1.74.76-1.74,3.95.53,4,1.61,4,1.67-.87,1.67-3h-1.68v-1.2h3.19v5.26h-1.2Z" fill="#3b4351"/><path d="M399,77.14h1.52v1.17h0a1.87,1.87,0,0,1,1.75-1.37.77.77,0,0,1,.37.06v1.54a1.87,1.87,0,0,0-.63-.09c-.69,0-1.51.31-1.51,1.71v4.51H399Z" fill="#3b4351"/><path d="M404.65,81.1v.43c0,1,.13,2.3,1.26,2.3s1.21-1.22,1.21-1.68h1.43a2.48,2.48,0,0,1-2.65,2.72c-1.24,0-2.76-.37-2.76-3.85,0-2,.43-4.08,2.79-4.08,2.1,0,2.66,1.27,2.66,3.36v.8Zm2.42-1v-.4c0-1-.3-1.68-1.16-1.68s-1.26,1-1.26,1.93v.15Z" fill="#3b4351"/><path d="M411.13,81.1v.43c0,1,.13,2.3,1.26,2.3s1.21-1.22,1.21-1.68H415a2.48,2.48,0,0,1-2.65,2.72c-1.23,0-2.76-.37-2.76-3.85,0-2,.43-4.08,2.79-4.08,2.1,0,2.66,1.27,2.66,3.36v.8Zm2.43-1v-.4c0-1-.31-1.68-1.17-1.68s-1.26,1-1.26,1.93v.15Z" fill="#3b4351"/><path d="M416.31,74.67h1.52v5.62h0l2.29-3.15,1.75,0L419.62,80l2.56,4.63h-1.65l-1.85-3.43-.85,1v2.39h-1.52Z" fill="#3b4351"/><path d="M426.18,74.67h1.6v10h-1.6Z" fill="#3b4351"/><path d="M433.11,83.75h0a1.62,1.62,0,0,1-1.66,1.12c-1.75,0-2.46-1.49-2.46-4.06,0-3.35,1.17-3.87,2.32-3.87A1.74,1.74,0,0,1,433,78h0V74.67h1.51v10h-1.43Zm-1.37-5.61c-.85,0-1.18.7-1.18,2.74,0,1.7.21,2.78,1.28,2.78s1.27-1,1.27-2.67C433.11,79.18,432.92,78.14,431.74,78.14Z" fill="#3b4351"/><path d="M437.3,81.1v.43c0,1,.12,2.3,1.26,2.3s1.2-1.22,1.2-1.68h1.43a2.48,2.48,0,0,1-2.64,2.72c-1.24,0-2.76-.37-2.76-3.85,0-2,.43-4.08,2.78-4.08,2.1,0,2.66,1.27,2.66,3.36v.8Zm2.42-1v-.4c0-1-.31-1.68-1.16-1.68s-1.26,1-1.26,1.93v.15Z" fill="#3b4351"/><path d="M447.42,83.1c0,.28.17.54.39.54a.57.57,0,0,0,.26,0v1a1.62,1.62,0,0,1-.75.19c-.67,0-1.23-.27-1.27-1h0a2,2,0,0,1-1.88,1.11c-1.21,0-2-.66-2-2.12a2.07,2.07,0,0,1,1.75-2.36l1.18-.33c.55-.15.88-.3.88-1S445.76,78,445,78c-1,0-1.15.71-1.15,1.44h-1.43c0-1.61.66-2.48,2.65-2.48,1.33,0,2.39.52,2.39,1.85ZM446,80.69a11.23,11.23,0,0,1-1.68.7,1.24,1.24,0,0,0-.61,1.22c0,.63.3,1.14.94,1.14.91,0,1.35-.67,1.35-1.8Z" fill="#3b4351"/><path d="M452.21,79.33v-.19c0-.6-.21-1.16-1-1.16-.6,0-1.07.26-1.07,1s.26.82,1.06,1.1l1,.34a2,2,0,0,1,1.64,2.17c0,1.61-1.19,2.3-2.71,2.3-1.9,0-2.48-.88-2.48-2.34v-.28H450v.24c0,.88.29,1.34,1.17,1.34s1.24-.42,1.24-1.11a1.09,1.09,0,0,0-.83-1.1l-1.23-.44A2,2,0,0,1,448.71,79c0-1.41,1-2.07,2.58-2.07,1.91,0,2.35,1.12,2.35,2.06v.33Z" fill="#3b4351"/><path d="M455.08,82.82h1.59v1.85h-1.59Z" fill="#3b4351"/><path d="M374,96.82h3.16c1.92,0,2.76,1.21,2.76,2.92a2.71,2.71,0,0,1-2.93,3h-1.4v4.14H374Zm1.59,4.67h1.14a1.51,1.51,0,0,0,1.6-1.72c0-1.08-.44-1.74-1.71-1.74h-1Z" fill="#3b4351"/><path d="M380.87,96.82h1.51v3.28l0,0a2.16,2.16,0,0,1,1.85-1c1.15,0,1.88.52,1.88,2v5.69h-1.51v-5.17c0-1-.28-1.36-1.05-1.36-.62,0-1.21.47-1.21,1.47v5.06h-1.51Z" fill="#3b4351"/><path d="M392.55,105.26c0,.28.17.53.39.53a.72.72,0,0,0,.25,0v1a1.58,1.58,0,0,1-.74.18c-.67,0-1.23-.27-1.28-1h0a1.94,1.94,0,0,1-1.88,1.11c-1.22,0-2-.66-2-2.11a2.07,2.07,0,0,1,1.75-2.37l1.18-.32c.54-.16.88-.31.88-1s-.24-1.12-1-1.12c-1,0-1.15.71-1.15,1.44H387.5c0-1.61.66-2.48,2.65-2.48,1.33,0,2.4.52,2.4,1.85Zm-1.43-2.41a12.39,12.39,0,0,1-1.68.7,1.23,1.23,0,0,0-.62,1.22c0,.63.31,1.13.94,1.13.91,0,1.36-.67,1.36-1.79Z" fill="#3b4351"/><path d="M394.08,99.29h1.52v1.18h0a1.85,1.85,0,0,1,1.75-1.38.87.87,0,0,1,.36.06v1.54a2.18,2.18,0,0,0-.63-.08c-.69,0-1.51.3-1.51,1.7v4.52h-1.52Z" fill="#3b4351"/><path d="M398.2,103.06c0-2.36.62-4,2.8-4s2.82,1.61,2.82,4-.73,4-2.82,4S398.2,105.41,398.2,103.06Zm2.8,2.84c1.11,0,1.3-.92,1.3-2.84,0-1.67-.19-2.85-1.3-2.85s-1.29,1.18-1.29,2.85C399.71,105,399.92,105.9,401,105.9Z" fill="#3b4351"/><path d="M409.92,105.26c0,.28.17.53.39.53a.78.78,0,0,0,.26,0v1a1.63,1.63,0,0,1-.75.18c-.67,0-1.23-.27-1.27-1h0a1.94,1.94,0,0,1-1.88,1.11c-1.22,0-2-.66-2-2.11a2.07,2.07,0,0,1,1.75-2.37l1.18-.32c.55-.16.88-.31.88-1s-.24-1.12-1-1.12c-1,0-1.15.71-1.15,1.44h-1.43c0-1.61.66-2.48,2.65-2.48,1.33,0,2.39.52,2.39,1.85Zm-1.43-2.41a12.39,12.39,0,0,1-1.68.7,1.24,1.24,0,0,0-.61,1.22c0,.63.3,1.13.93,1.13.91,0,1.36-.67,1.36-1.79Z" fill="#3b4351"/><path d="M411.46,96.82H413v3.28l0,0a2.16,2.16,0,0,1,1.85-1c1.15,0,1.88.52,1.88,2v5.69h-1.51v-5.17c0-1-.28-1.36-1.05-1.36s-1.21.47-1.21,1.47v5.06h-1.51Z" fill="#3b4351"/><path d="M421.65,96.82h2l2.9,7.46h0V96.82H428v10h-2l-2.9-7.65h0v7.65h-1.51Z" fill="#3b4351"/><path d="M434.53,105.26c0,.28.17.53.39.53a.78.78,0,0,0,.26,0v1a1.63,1.63,0,0,1-.75.18c-.67,0-1.23-.27-1.27-1h0a1.93,1.93,0,0,1-1.88,1.11c-1.21,0-2-.66-2-2.11a2.08,2.08,0,0,1,1.75-2.37l1.18-.32c.55-.16.88-.31.88-1s-.23-1.12-1-1.12c-1,0-1.15.71-1.15,1.44h-1.43c0-1.61.66-2.48,2.65-2.48,1.33,0,2.39.52,2.39,1.85Zm-1.43-2.41a11.88,11.88,0,0,1-1.68.7,1.24,1.24,0,0,0-.61,1.22c0,.63.3,1.13.94,1.13.91,0,1.35-.67,1.35-1.79Z" fill="#3b4351"/><path d="M441.15,104.08c-.11,1.81-.7,2.94-2.57,2.94-2.19,0-2.8-1.61-2.8-4s.61-4,2.8-4a2.44,2.44,0,0,1,2.59,2.71h-1.51c0-.7-.19-1.63-1.08-1.59-1.08,0-1.29,1.18-1.29,2.85s.21,2.84,1.29,2.84c.84,0,1.15-.69,1.15-1.82Z" fill="#3b4351"/><path d="M442.2,96.82h1.51v3.28l.05,0a2.14,2.14,0,0,1,1.85-1c1.14,0,1.87.52,1.87,2v5.69H446v-5.17c0-1-.28-1.36-1.05-1.36s-1.21.47-1.21,1.47v5.06H442.2Z" fill="#3b4351"/><path d="M448.64,103.06c0-2.36.62-4,2.8-4s2.82,1.61,2.82,4-.73,4-2.82,4S448.64,105.41,448.64,103.06Zm2.8,2.84c1.11,0,1.31-.92,1.31-2.84,0-1.67-.2-2.85-1.31-2.85s-1.29,1.18-1.29,2.85C450.15,105,450.36,105.9,451.44,105.9Z" fill="#3b4351"/></g><g id="Chinese-2" data-name="Chinese"><path d="M1588.36,18.22h2.79V33.37h6.77v2.35h-9.56Z" fill="#3b4351"/><path d="M1608,33c0,.49.29.93.68.93a1,1,0,0,0,.44-.08v1.72a2.83,2.83,0,0,1-1.3.32c-1.17,0-2.15-.47-2.23-1.74h-.05a3.39,3.39,0,0,1-3.28,1.93c-2.13,0-3.43-1.15-3.43-3.7,0-2.94,1.3-3.55,3.06-4.14l2.06-.56c1-.27,1.55-.54,1.55-1.69s-.42-2-1.82-2c-1.76,0-2,1.25-2,2.52h-2.5c0-2.82,1.15-4.34,4.63-4.34,2.33,0,4.2.91,4.2,3.24Zm-2.5-4.22a21.84,21.84,0,0,1-3,1.23,2.17,2.17,0,0,0-1.07,2.13c0,1.1.54,2,1.64,2,1.59,0,2.38-1.17,2.38-3.13Z" fill="#3b4351"/><path d="M1610.21,29.13c0-4.12,1.08-6.94,4.9-6.94S1620,25,1620,29.13s-1.27,6.93-4.93,6.93S1610.21,33.25,1610.21,29.13Zm4.9,5c1.94,0,2.28-1.61,2.28-5,0-2.92-.34-5-2.28-5s-2.25,2.06-2.25,5C1612.86,32.49,1613.23,34.1,1615.11,34.1Z" fill="#3b4351"/><path d="M1621.9,27.39h6.42v2.5h-6.42Z" fill="#3b4351"/><path d="M1633.73,20.58h-4.16V18.22h11v2.36h-4.09V35.72h-2.8Z" fill="#3b4351"/><path d="M1647.72,26.38V26c0-1.05-.36-2-1.74-2-1,0-1.88.46-1.88,1.71,0,1.06.46,1.45,1.86,1.94l1.69.59c2,.66,2.87,1.71,2.87,3.79,0,2.82-2.09,4-4.73,4-3.34,0-4.34-1.54-4.34-4.09v-.49h2.35v.42c0,1.54.52,2.35,2.06,2.35s2.16-.74,2.16-1.94a1.91,1.91,0,0,0-1.45-1.93l-2.16-.76c-2-.66-2.81-1.69-2.81-3.8,0-2.48,1.76-3.63,4.51-3.63,3.35,0,4.11,2,4.11,3.61v.58Z" fill="#3b4351"/><path d="M1654.75,29.47v.76c0,1.77.23,4,2.21,4s2.11-2.13,2.11-2.94h2.5c0,3-1.77,4.75-4.64,4.75-2.15,0-4.82-.63-4.82-6.74,0-3.45.76-7.13,4.87-7.13,3.68,0,4.66,2.23,4.66,5.88v1.4Zm4.24-1.81V27c0-1.67-.54-2.94-2-2.94-1.67,0-2.21,1.66-2.21,3.38v.27Z" fill="#3b4351"/></g><g id="Lydians-2" data-name="Lydians"><path d="M495.7,87h2.79v15.14h6.77v2.35H495.7Z" fill="#3b4351"/><path d="M507.61,97.66,503.1,87h3.11l2.94,7.54,3-7.54h2.91L510.4,97.66v6.83h-2.79Z" fill="#3b4351"/><path d="M516.43,87h5c5.49,0,6.18,3.57,6.18,8.74s-.69,8.75-6.18,8.75h-5Zm2.79,15.39h2.3c2.31,0,3.26-1.52,3.26-6.65,0-4.92-.83-6.64-3.26-6.64h-2.3Z" fill="#3b4351"/><path d="M529.93,87h2.79v17.49h-2.79Z" fill="#3b4351"/><path d="M538.8,87h3.57L547,104.49h-2.92L543,100.2h-5.13l-1.12,4.29h-2.92Zm3.72,11-2-8.62h0L538.38,98Z" fill="#3b4351"/><path d="M548.2,87h3.41l5.07,13h.05V87h2.65v17.49H556L550.9,91.11h0v13.38H548.2Z" fill="#3b4351"/><path d="M564.42,99.08v.44c0,2.13,1,3.21,2.87,3.21a2.51,2.51,0,0,0,2.65-2.55c0-1.84-.93-2.65-2.5-3.11l-1.91-.66c-2.55-1-3.66-2.31-3.66-4.81,0-3.18,2.19-4.95,5.44-4.95,4.49,0,5,2.8,5,4.61v.39h-2.79v-.37c0-1.59-.69-2.52-2.45-2.52a2.23,2.23,0,0,0-2.35,2.52c0,1.5.76,2.26,2.62,3l1.89.69c2.47.88,3.55,2.2,3.55,4.63,0,3.72-2.25,5.27-5.78,5.27-4.34,0-5.32-2.9-5.32-5.35v-.41Z" fill="#3b4351"/></g><g id="Iranians-2" data-name="Iranians"><path d="M1187.27,8.5h4.36l3.09,13h0l3-13h4.26V26h-2.64V11.44h0L1195.85,26h-2.36L1190,11.44h0V26h-2.65Z" fill="#3b4351"/><path d="M1207.07,19.74v.76c0,1.77.22,4,2.2,4s2.11-2.13,2.11-2.94h2.5c0,3-1.77,4.76-4.63,4.76-2.16,0-4.83-.64-4.83-6.74,0-3.46.76-7.13,4.88-7.13,3.67,0,4.65,2.23,4.65,5.88v1.39Zm4.24-1.81v-.71c0-1.67-.54-2.94-2-2.94-1.66,0-2.2,1.67-2.2,3.38v.27Z" fill="#3b4351"/><path d="M1222.87,24.37h0a2.82,2.82,0,0,1-2.89,2c-3.06,0-4.31-2.6-4.31-7.11,0-5.86,2.05-6.76,4.06-6.76a3,3,0,0,1,3,1.88h0V8.5h2.65V26h-2.5Zm-2.4-9.8c-1.5,0-2.06,1.23-2.06,4.78,0,3,.37,4.88,2.23,4.88s2.23-1.84,2.23-4.68C1222.87,16.39,1222.53,14.57,1220.47,14.57Z" fill="#3b4351"/><path d="M1228,8.3h2.64V11H1228Zm0,4.51h2.64V26H1228Z" fill="#3b4351"/><path d="M1242,23.25c0,.49.3.93.69.93a1.18,1.18,0,0,0,.44-.07v1.71a2.83,2.83,0,0,1-1.3.32c-1.17,0-2.15-.47-2.23-1.74h0a3.4,3.4,0,0,1-3.28,1.94c-2.13,0-3.43-1.16-3.43-3.7,0-2.95,1.3-3.56,3.06-4.15l2.06-.56c1-.27,1.54-.54,1.54-1.69s-.41-2-1.81-2c-1.76,0-2,1.25-2,2.52h-2.5c0-2.82,1.15-4.33,4.63-4.33,2.33,0,4.19.9,4.19,3.23ZM1239.5,19a20,20,0,0,1-2.94,1.23,2.17,2.17,0,0,0-1.08,2.13c0,1.1.54,2,1.65,2,1.59,0,2.37-1.17,2.37-3.13Z" fill="#3b4351"/><path d="M1244.7,12.81h2.5v1.54h.07a3.78,3.78,0,0,1,3.38-1.88c2,0,3.28.9,3.28,3.57V26h-2.64V17c0-1.76-.47-2.38-1.84-2.38-1.08,0-2.11.81-2.11,2.58V26h-2.64Z" fill="#3b4351"/><path d="M1264.69,20.58V21c0,2.13,1,3.21,2.87,3.21a2.51,2.51,0,0,0,2.64-2.55c0-1.84-.93-2.65-2.5-3.11l-1.91-.66c-2.55-1-3.65-2.31-3.65-4.81,0-3.18,2.18-4.95,5.44-4.95,4.48,0,5,2.8,5,4.61v.39h-2.79v-.37c0-1.59-.69-2.52-2.45-2.52a2.24,2.24,0,0,0-2.36,2.52c0,1.5.76,2.26,2.63,3l1.88.69c2.48.88,3.56,2.2,3.56,4.63,0,3.72-2.26,5.27-5.79,5.27-4.33,0-5.32-2.9-5.32-5.35v-.41Z" fill="#3b4351"/><path d="M1281.81,24.45h-.07a3.79,3.79,0,0,1-3.38,1.89c-2,0-3.28-.91-3.28-4.32V12.81h2.64v9.46c0,1.47.64,2,1.79,2a2.06,2.06,0,0,0,2.16-2.21V12.81h2.64V26h-2.5Z" fill="#3b4351"/><path d="M1292.55,26.34a3,3,0,0,1-3-1.89h0v5.86h-2.65V12.81h2.5v1.62h.05a3.1,3.1,0,0,1,3-2c3,0,4.24,2.57,4.24,7.1C1296.61,25.11,1294.38,26.34,1292.55,26.34Zm-1-11.77c-1.81,0-2.23,1.84-2.23,4.68,0,3.16.39,5,2.25,5,1.5,0,2.21-1.13,2.21-4.78C1293.82,16.46,1293.45,14.57,1291.59,14.57Z" fill="#3b4351"/><path d="M1298.64,12.81h2.65v2.06h0a3.26,3.26,0,0,1,3.06-2.4,1.61,1.61,0,0,1,.64.09v2.7a3.84,3.84,0,0,0-1.1-.15c-1.2,0-2.65.54-2.65,3V26h-2.65Z" fill="#3b4351"/><path d="M1308.49,19.74v.76c0,1.77.22,4,2.21,4s2.11-2.13,2.11-2.94h2.5c0,3-1.77,4.76-4.64,4.76-2.15,0-4.82-.64-4.82-6.74,0-3.46.76-7.13,4.87-7.13,3.68,0,4.66,2.23,4.66,5.88v1.39Zm4.24-1.81v-.71c0-1.67-.54-2.94-2-2.94-1.67,0-2.21,1.67-2.21,3.38v.27Z" fill="#3b4351"/><path d="M1317.68,12.81h2.5v1.54h.07a3.69,3.69,0,0,1,3.16-1.88,2.86,2.86,0,0,1,3.07,2,3.6,3.6,0,0,1,3.33-2c1.86,0,3.21.95,3.21,3.5V26h-2.65V17c0-1.74-.51-2.38-1.59-2.38s-2.11.84-2.11,2.58V26H1324V17c0-1.74-.52-2.38-1.62-2.38s-2.08.86-2.08,2.58V26h-2.65Z" fill="#3b4351"/><path d="M1344.34,23.25c0,.49.29.93.68.93a1.24,1.24,0,0,0,.45-.07v1.71a2.86,2.86,0,0,1-1.3.32c-1.18,0-2.16-.47-2.23-1.74h0a3.41,3.41,0,0,1-3.29,1.94c-2.13,0-3.43-1.16-3.43-3.7,0-2.95,1.3-3.56,3.07-4.15l2.06-.56c1-.27,1.54-.54,1.54-1.69s-.42-2-1.81-2c-1.77,0-2,1.25-2,2.52h-2.5c0-2.82,1.15-4.33,4.63-4.33,2.33,0,4.19.9,4.19,3.23Zm-2.5-4.22a20.5,20.5,0,0,1-2.94,1.23,2.17,2.17,0,0,0-1.08,2.13c0,1.1.54,2,1.64,2,1.6,0,2.38-1.17,2.38-3.13Z" fill="#3b4351"/><path d="M1355.93,21.19c-.2,3.16-1.23,5.15-4.51,5.15-3.83,0-4.9-2.82-4.9-6.94s1.07-6.93,4.9-6.93,4.53,3.11,4.53,4.72h-2.64c0-1.22-.32-2.84-1.89-2.76-1.89,0-2.26,2.05-2.26,5s.37,5,2.26,5c1.47,0,2-1.2,2-3.18Z" fill="#3b4351"/><path d="M1359.23,12.81l2.28,9.9h0l2.11-9.9h2.77l-3.63,13.67c-1,3.6-1.86,4.1-4.61,4a4.73,4.73,0,0,1-1-.1V28.3a3.54,3.54,0,0,0,.86.09c.9,0,1.49-.17,1.79-1l.34-1.07-3.75-13.48Z" fill="#3b4351"/></g></g></svg>