<svg xmlns="http://www.w3.org/2000/svg" viewBox="0 0 1847.91 112"><title>bc0700text</title><g id="YEARS"><g id="Right"><path d="M1788.85,90.18h10.92v2.35a32.18,32.18,0,0,0-5.8,15.7h-3.12a31.47,31.47,0,0,1,6.06-15.39h-8.06Z"/><path d="M1806.79,89.82c3.54,0,5.51,2.21,5.51,9.39s-2,9.38-5.51,9.38-5.51-2.21-5.51-9.38S1803.26,89.82,1806.79,89.82Zm0,16.69c2,0,2.55-2,2.55-7.3s-.55-7.31-2.55-7.31-2.55,2-2.55,7.31S1804.79,106.51,1806.79,106.51Z"/><path d="M1819.27,89.82c3.54,0,5.51,2.21,5.51,9.39s-2,9.38-5.51,9.38-5.51-2.21-5.51-9.38S1815.73,89.82,1819.27,89.82Zm0,16.69c2,0,2.55-2,2.55-7.3s-.55-7.31-2.55-7.31-2.55,2-2.55,7.31S1817.27,106.51,1819.27,106.51Z"/></g><g id="left"><path d="M19.1,93.78H30v2.34a32.25,32.25,0,0,0-5.8,15.71H21.1a31.47,31.47,0,0,1,6.06-15.39H19.1Z"/><path d="M37,93.42c3.54,0,5.51,2.21,5.51,9.39s-2,9.38-5.51,9.38-5.51-2.21-5.51-9.38S33.51,93.42,37,93.42Zm0,16.69c2,0,2.55-2,2.55-7.3S39,95.5,37,95.5s-2.55,2-2.55,7.31S35,110.11,37,110.11Z"/><path d="M49.52,93.42c3.54,0,5.51,2.21,5.51,9.39s-2,9.38-5.51,9.38S44,110,44,102.81,46,93.42,49.52,93.42Zm0,16.69c2,0,2.55-2,2.55-7.3s-.55-7.31-2.55-7.31-2.55,2-2.55,7.31S47.52,110.11,49.52,110.11Z"/></g></g></svg>