<svg id="YEARS" xmlns="http://www.w3.org/2000/svg" viewBox="0 0 1847.91 110"><title>bc0750text</title><g id="Right"><path d="M1788.85,83.08h10.92v2.34a32.21,32.21,0,0,0-5.8,15.71h-3.12a31.54,31.54,0,0,1,6.06-15.4h-8.06Z"/><path d="M1801.38,96.16h2.81v.49a2.35,2.35,0,0,0,2.42,2.6c2.08,0,2.63-2,2.63-4.18s-.58-3.93-2.47-3.93a2.35,2.35,0,0,0-2.42,1.69l-2.63-.1.91-9.65h8.87v2.37h-6.66l-.6,4.83.06,0a4.07,4.07,0,0,1,3.09-1.42c3.85,0,4.81,3.25,4.81,6.08,0,3.69-1.69,6.5-5.67,6.5-3.3,0-5.15-1.69-5.15-4.94Z"/><path d="M1819.27,82.72c3.54,0,5.51,2.21,5.51,9.38s-2,9.39-5.51,9.39-5.51-2.21-5.51-9.39S1815.73,82.72,1819.27,82.72Zm0,16.69c2,0,2.55-2,2.55-7.31s-.55-7.3-2.55-7.3-2.55,2-2.55,7.3S1817.27,99.41,1819.27,99.41Z"/></g><g id="left"><path d="M19.1,86.68H30V89a32.18,32.18,0,0,0-5.8,15.7H21.1a31.51,31.51,0,0,1,6.06-15.39H19.1Z"/><path d="M31.63,99.76h2.81v.49a2.35,2.35,0,0,0,2.42,2.6c2.08,0,2.63-2,2.63-4.18s-.58-3.93-2.47-3.93a2.35,2.35,0,0,0-2.42,1.69L32,96.33l.91-9.65h8.87V89H35.09l-.6,4.84.06.05a4,4,0,0,1,3.09-1.43c3.85,0,4.81,3.25,4.81,6.09,0,3.69-1.69,6.5-5.67,6.5-3.3,0-5.15-1.69-5.15-4.94Z"/><path d="M49.52,86.31c3.54,0,5.51,2.21,5.51,9.39s-2,9.39-5.51,9.39S44,102.88,44,95.7,46,86.31,49.52,86.31Zm0,16.7c2,0,2.55-2,2.55-7.31s-.55-7.31-2.55-7.31S47,90.37,47,95.7,47.52,103,49.52,103Z"/></g></svg>