<svg xmlns="http://www.w3.org/2000/svg" viewBox="0 0 1847.91 112"><title>bc0700text</title><g id="YEARS"><g id="Right"><path d="M1775,90.18h10.92v2.35a32.18,32.18,0,0,0-5.8,15.7H1777a31.47,31.47,0,0,1,6.06-15.39H1775Z"/><path d="M1792.94,89.82c3.54,0,5.51,2.21,5.51,9.39s-2,9.38-5.51,9.38-5.51-2.21-5.51-9.38S1789.4,89.82,1792.94,89.82Zm0,16.69c2,0,2.55-2,2.55-7.3s-.55-7.31-2.55-7.31-2.55,2-2.55,7.31S1790.94,106.51,1792.94,106.51Z"/><path d="M1805.42,89.82c3.54,0,5.51,2.21,5.51,9.39s-2,9.38-5.51,9.38-5.51-2.21-5.51-9.38S1801.88,89.82,1805.42,89.82Zm0,16.69c2,0,2.55-2,2.55-7.3s-.55-7.31-2.55-7.31-2.55,2-2.55,7.31S1803.42,106.51,1805.42,106.51Z"/></g><g id="Layer_34" data-name="Layer 34"><path d="M15.25,93.78H26.17v2.34a32.21,32.21,0,0,0-5.8,15.71H17.25a31.54,31.54,0,0,1,6.06-15.4H15.25Z"/><path d="M33.19,93.42c3.54,0,5.51,2.21,5.51,9.38s-2,9.39-5.51,9.39-5.51-2.21-5.51-9.39S29.66,93.42,33.19,93.42Zm0,16.69c2,0,2.55-2,2.55-7.31s-.55-7.3-2.55-7.3-2.55,2-2.55,7.3S31.19,110.11,33.19,110.11Z"/><path d="M45.67,93.42c3.54,0,5.51,2.21,5.51,9.38s-2,9.39-5.51,9.39-5.51-2.21-5.51-9.39S42.13,93.42,45.67,93.42Zm0,16.69c2,0,2.55-2,2.55-7.31s-.55-7.3-2.55-7.3-2.55,2-2.55,7.3S43.67,110.11,45.67,110.11Z"/></g></g></svg>