<svg xmlns="http://www.w3.org/2000/svg" viewBox="0 0 1847.91 110"><title>bc0750text</title><g id="YEARS"><g id="Right"><path d="M1788.85,83.08h10.92v2.34a32.21,32.21,0,0,0-5.8,15.71h-3.12a31.54,31.54,0,0,1,6.06-15.4h-8.06Z" fill="#3b4351"/><path d="M1801.38,96.16h2.81v.49a2.35,2.35,0,0,0,2.42,2.6c2.08,0,2.63-2,2.63-4.18s-.58-3.93-2.47-3.93a2.35,2.35,0,0,0-2.42,1.69l-2.63-.1.91-9.65h8.87v2.37h-6.66l-.6,4.83.06,0a4.07,4.07,0,0,1,3.09-1.42c3.85,0,4.81,3.25,4.81,6.08,0,3.69-1.69,6.5-5.67,6.5-3.3,0-5.15-1.69-5.15-4.94Z" fill="#3b4351"/><path d="M1819.27,82.72c3.54,0,5.51,2.21,5.51,9.38s-2,9.39-5.51,9.39-5.51-2.21-5.51-9.39S1815.73,82.72,1819.27,82.72Zm0,16.69c2,0,2.55-2,2.55-7.31s-.55-7.3-2.55-7.3-2.55,2-2.55,7.3S1817.27,99.41,1819.27,99.41Z" fill="#3b4351"/></g><g id="left"><path d="M19.1,86.68H30V89a32.18,32.18,0,0,0-5.8,15.7H21.1a31.51,31.51,0,0,1,6.06-15.39H19.1Z" fill="#3b4351"/><path d="M31.63,99.76h2.81v.49a2.35,2.35,0,0,0,2.42,2.6c2.08,0,2.63-2,2.63-4.18s-.58-3.93-2.47-3.93a2.35,2.35,0,0,0-2.42,1.69L32,96.33l.91-9.65h8.87V89H35.09l-.6,4.84.06.05a4,4,0,0,1,3.09-1.43c3.85,0,4.81,3.25,4.81,6.09,0,3.69-1.69,6.5-5.67,6.5-3.3,0-5.15-1.69-5.15-4.94Z" fill="#3b4351"/><path d="M49.52,86.31c3.54,0,5.51,2.21,5.51,9.39s-2,9.39-5.51,9.39S44,102.88,44,95.7,46,86.31,49.52,86.31Zm0,16.7c2,0,2.55-2,2.55-7.31s-.55-7.31-2.55-7.31S47,90.37,47,95.7,47.52,103,49.52,103Z" fill="#3b4351"/></g></g><g id="Text"><g id="Greeks"><path d="M241,12.38v.26c0,1.21.55,1.83,1.64,1.83A1.44,1.44,0,0,0,244.15,13a1.68,1.68,0,0,0-1.43-1.78l-1.09-.37a2.68,2.68,0,0,1-2.09-2.75c0-1.82,1.25-2.83,3.11-2.83,2.57,0,2.83,1.6,2.83,2.64v.22h-1.59V7.93c0-.91-.4-1.44-1.4-1.44a1.27,1.27,0,0,0-1.35,1.44c0,.85.44,1.29,1.5,1.69l1.08.4a2.54,2.54,0,0,1,2,2.64c0,2.13-1.29,3-3.31,3a2.75,2.75,0,0,1-3-3.06v-.24Z" fill="#3b4351"/><path d="M246.94,5.48h1.51V8.76l0,0a2.15,2.15,0,0,1,1.85-1c1.15,0,1.88.52,1.88,2v5.69H250.7V10.31c0-1-.28-1.36-1-1.36-.61,0-1.2.48-1.2,1.47v5.06h-1.51Z" fill="#3b4351"/><path d="M255,11.91v.43c0,1,.13,2.3,1.26,2.3s1.21-1.22,1.21-1.68h1.43a2.48,2.48,0,0,1-2.65,2.72c-1.23,0-2.76-.37-2.76-3.86,0-2,.43-4.07,2.79-4.07,2.1,0,2.66,1.27,2.66,3.36v.8Zm2.43-1v-.41c0-1-.31-1.68-1.17-1.68s-1.26,1-1.26,1.94v.15Z" fill="#3b4351"/><path d="M263.4,10.14V10c0-.61-.21-1.17-1-1.17-.6,0-1.08.27-1.08,1s.27.83,1.06,1.11l1,.34A2,2,0,0,1,265,13.38c0,1.61-1.19,2.3-2.7,2.3-1.91,0-2.48-.89-2.48-2.34v-.28h1.34v.23c0,.89.3,1.35,1.18,1.35s1.23-.42,1.23-1.11a1.09,1.09,0,0,0-.83-1.1L261.51,12a2,2,0,0,1-1.61-2.17c0-1.41,1-2.07,2.58-2.07,1.92,0,2.35,1.12,2.35,2.06v.33Z" fill="#3b4351"/><path d="M266.12,5.48h1.51V8.76l0,0a2.15,2.15,0,0,1,1.85-1c1.15,0,1.88.52,1.88,2v5.69h-1.52V10.31c0-1-.28-1.36-1.05-1.36-.61,0-1.2.48-1.2,1.47v5.06h-1.51Z" fill="#3b4351"/><path d="M272.56,11.71c0-2.35.61-4,2.8-4s2.81,1.61,2.81,4-.73,4-2.81,4S272.56,14.06,272.56,11.71Zm2.8,2.84c1.1,0,1.3-.92,1.3-2.84,0-1.67-.2-2.84-1.3-2.84s-1.29,1.17-1.29,2.84C274.07,13.63,274.28,14.55,275.36,14.55Z" fill="#3b4351"/><path d="M279.33,7.94h1.43v.89h0a2.16,2.16,0,0,1,1.94-1.08c1.14,0,1.87.52,1.87,2v5.69H283.1V10.31c0-1-.27-1.36-1.05-1.36-.62,0-1.2.46-1.2,1.47v5.06h-1.52Z" fill="#3b4351"/><path d="M286.07,5.48h1.51v5.61h0l2.28-3.15h1.75l-2.27,2.91,2.57,4.64h-1.66l-1.85-3.43-.85,1v2.4h-1.51Z" fill="#3b4351"/><path d="M295.94,5.48h1.59v10h-1.59Z" fill="#3b4351"/><path d="M299,5.48h1.6v10H299Z" fill="#3b4351"/><path d="M302.15,5.48h1.6v10h-1.6Z" fill="#3b4351"/><path d="M305.39,13.63H307v1.85h-1.59Z" fill="#3b4351"/><path d="M244.84,24.48h1.61l1.32,7.77h0l1.32-7.77h1.68l1.34,7.81h0l1.3-7.81h1.58l-2,10h-1.85l-1.29-7.54h0l-1.28,7.54h-1.84Z" fill="#3b4351"/><path d="M255.31,30.71c0-2.35.62-4,2.81-4s2.81,1.61,2.81,4-.73,4-2.81,4S255.31,33.06,255.31,30.71Zm2.81,2.84c1.1,0,1.3-.92,1.3-2.84,0-1.67-.2-2.84-1.3-2.84s-1.29,1.17-1.29,2.84C256.83,32.63,257,33.55,258.12,33.55Z" fill="#3b4351"/><path d="M262.09,26.94h1.51v1.18h0a1.87,1.87,0,0,1,1.75-1.37.94.94,0,0,1,.37.05v1.54a2.24,2.24,0,0,0-.63-.08c-.69,0-1.52.31-1.52,1.71v4.51h-1.51Z" fill="#3b4351"/><path d="M269.75,29.14V29c0-.61-.21-1.17-1-1.17-.61,0-1.08.27-1.08,1s.26.83,1.06,1.11l1,.34a2,2,0,0,1,1.64,2.17c0,1.61-1.19,2.3-2.71,2.3-1.9,0-2.48-.89-2.48-2.34v-.28h1.35v.23c0,.89.29,1.35,1.18,1.35s1.23-.42,1.23-1.11a1.09,1.09,0,0,0-.83-1.1L267.86,31a2,2,0,0,1-1.61-2.17c0-1.41,1-2.07,2.58-2.07,1.92,0,2.35,1.12,2.35,2.06v.33Z" fill="#3b4351"/><path d="M272.46,24.48H274v3.28l0,0a2.13,2.13,0,0,1,1.85-1c1.15,0,1.88.52,1.88,2v5.69h-1.52V29.31c0-1-.28-1.36-1.05-1.36-.61,0-1.2.48-1.2,1.47v5.06h-1.52Z" fill="#3b4351"/><path d="M279.27,24.37h1.51v1.51h-1.51Zm0,2.57h1.51v7.54h-1.51Z" fill="#3b4351"/><path d="M285.56,34.68a1.74,1.74,0,0,1-1.71-1.08h0v3.34h-1.51v-10h1.43v.93h0a1.79,1.79,0,0,1,1.7-1.12c1.72,0,2.42,1.47,2.42,4.06C287.88,34,286.61,34.68,285.56,34.68ZM285,28c-1,0-1.27,1.05-1.27,2.68,0,1.8.22,2.84,1.28,2.84.86,0,1.26-.64,1.26-2.73C286.28,29,286.07,28,285,28Z" fill="#3b4351"/><path d="M292.11,30.71c0-2.35.61-4,2.8-4s2.81,1.61,2.81,4-.73,4-2.81,4S292.11,33.06,292.11,30.71Zm2.8,2.84c1.1,0,1.3-.92,1.3-2.84,0-1.67-.2-2.84-1.3-2.84s-1.29,1.17-1.29,2.84C293.62,32.63,293.83,33.55,294.91,33.55Z" fill="#3b4351"/><path d="M299.34,28.06h-1V26.94h1v-.7c0-1.41.69-1.87,1.92-1.87a6.47,6.47,0,0,1,.83,0v1.16h-.42c-.56,0-.81.21-.81.71v.66h1.23v1.12h-1.23v6.42h-1.52Z" fill="#3b4351"/><path d="M247.33,49.89v.21c0,1.81-.74,3.58-3.08,3.58-2.52,0-3.31-1.63-3.31-5.2s.79-5.2,3.32-5.2c2.85,0,3,2.09,3,3.14v.18h-1.6v-.17c0-.94-.28-2-1.43-1.94s-1.71.72-1.71,3.95.52,4,1.71,4c1.34,0,1.48-1.47,1.48-2.41v-.17Z" fill="#3b4351"/><path d="M253.29,51.91c0,.28.17.53.4.53a.57.57,0,0,0,.25,0v1a1.58,1.58,0,0,1-.74.18c-.68,0-1.24-.26-1.28-1h0A1.94,1.94,0,0,1,250,53.68c-1.22,0-2-.66-2-2.12a2.08,2.08,0,0,1,1.75-2.37l1.17-.32c.55-.15.89-.31.89-1s-.24-1.12-1-1.12c-1,0-1.15.72-1.15,1.45h-1.43c0-1.61.66-2.48,2.65-2.48,1.33,0,2.39.52,2.39,1.85Zm-1.42-2.41a11.23,11.23,0,0,1-1.68.7,1.23,1.23,0,0,0-.62,1.22c0,.63.31,1.13.94,1.13.91,0,1.36-.67,1.36-1.79Z" fill="#3b4351"/><path d="M254.16,45.94h1V43.8h1.51v2.14h1.23v1.12h-1.23v4.5c0,.6.17.8.69.8a3.74,3.74,0,0,0,.54,0v1.12a5.17,5.17,0,0,1-1.22.12c-1,0-1.52-.29-1.52-1.82V47.06h-1Z" fill="#3b4351"/><path d="M263.6,54.12a1,1,0,0,0,1.09.9A1.25,1.25,0,0,0,266,53.6V52.39h0a1.83,1.83,0,0,1-1.71,1c-1.75,0-2.26-1.72-2.26-3.79,0-1.66.25-3.88,2.4-3.88A1.66,1.66,0,0,1,266,46.87h0v-.93h1.43v7.17c0,1.84-.79,3-2.82,3-2.24,0-2.49-1.32-2.49-1.94Zm1.06-1.9c1.18,0,1.3-1.49,1.3-2.68s-.15-2.59-1.2-2.59-1.28,1.12-1.28,2.52S263.54,52.22,264.66,52.22Z" fill="#3b4351"/><path d="M268.52,49.71c0-2.35.62-4,2.81-4s2.81,1.61,2.81,4-.73,4-2.81,4S268.52,52.06,268.52,49.71Zm2.81,2.84c1.1,0,1.3-.92,1.3-2.84,0-1.67-.2-2.84-1.3-2.84S270,48,270,49.71C270,51.63,270.25,52.55,271.33,52.55Z" fill="#3b4351"/><path d="M279.15,52.55h0a1.61,1.61,0,0,1-1.65,1.13c-1.75,0-2.46-1.49-2.46-4.07,0-3.34,1.17-3.86,2.32-3.86A1.73,1.73,0,0,1,279,46.83h0V43.48h1.51v10h-1.43ZM277.78,47c-.85,0-1.18.7-1.18,2.73,0,1.71.21,2.79,1.28,2.79s1.27-1,1.27-2.68C279.15,48,279,47,277.78,47Z" fill="#3b4351"/><path d="M285.89,52.55h0a1.62,1.62,0,0,1-1.66,1.13c-1.75,0-2.46-1.49-2.46-4.07,0-3.34,1.18-3.86,2.32-3.86a1.73,1.73,0,0,1,1.71,1.08h0V43.48h1.51v10h-1.42ZM284.51,47c-.85,0-1.17.7-1.17,2.73,0,1.71.21,2.79,1.27,2.79s1.28-1,1.28-2.68C285.89,48,285.69,47,284.51,47Z" fill="#3b4351"/><path d="M290.07,49.91v.43c0,1,.13,2.3,1.26,2.3s1.21-1.22,1.21-1.68H294a2.48,2.48,0,0,1-2.64,2.72c-1.24,0-2.76-.37-2.76-3.86,0-2,.43-4.07,2.79-4.07,2.1,0,2.66,1.27,2.66,3.36v.8Zm2.42-1v-.41c0-1-.3-1.68-1.16-1.68s-1.26,1-1.26,1.94v.15Z" fill="#3b4351"/><path d="M298.5,48.14V48c0-.61-.21-1.17-1-1.17-.6,0-1.07.27-1.07,1s.26.83,1.06,1.11l1,.34a2,2,0,0,1,1.64,2.17c0,1.61-1.19,2.3-2.71,2.3-1.9,0-2.48-.89-2.48-2.34v-.28h1.35v.23c0,.89.29,1.35,1.17,1.35s1.24-.42,1.24-1.11a1.09,1.09,0,0,0-.83-1.1L296.61,50A2,2,0,0,1,295,47.82c0-1.41,1-2.07,2.58-2.07,1.91,0,2.35,1.12,2.35,2.06v.33Z" fill="#3b4351"/><path d="M304.46,48.14V48c0-.61-.21-1.17-1-1.17-.6,0-1.08.27-1.08,1s.27.83,1.06,1.11l1,.34a2,2,0,0,1,1.64,2.17c0,1.61-1.19,2.3-2.7,2.3-1.91,0-2.48-.89-2.48-2.34v-.28h1.34v.23c0,.89.3,1.35,1.18,1.35s1.23-.42,1.23-1.11a1.09,1.09,0,0,0-.82-1.1L302.57,50A2,2,0,0,1,301,47.82c0-1.41,1-2.07,2.58-2.07,1.92,0,2.35,1.12,2.35,2.06v.33Z" fill="#3b4351"/><path d="M258.87,70.91c0,.28.17.53.39.53a.57.57,0,0,0,.25,0v1a1.58,1.58,0,0,1-.74.18c-.67,0-1.23-.26-1.28-1h0a2,2,0,0,1-1.88,1.11c-1.22,0-2-.66-2-2.12a2.08,2.08,0,0,1,1.75-2.37l1.18-.32c.54-.15.88-.31.88-1s-.24-1.12-1-1.12c-1,0-1.15.72-1.15,1.45h-1.43c0-1.61.66-2.48,2.65-2.48,1.33,0,2.4.52,2.4,1.85Zm-1.43-2.41a11.23,11.23,0,0,1-1.68.7,1.23,1.23,0,0,0-.62,1.22c0,.63.31,1.13.94,1.13.91,0,1.36-.67,1.36-1.79Z" fill="#3b4351"/><path d="M260.4,64.94h1.43v.89h0a2.16,2.16,0,0,1,1.94-1.08c1.15,0,1.87.52,1.87,2v5.69h-1.51V67.31c0-1-.26-1.36-1.05-1.36-.61,0-1.2.46-1.2,1.47v5.06H260.4Z" fill="#3b4351"/><path d="M271,71.55h0a1.61,1.61,0,0,1-1.65,1.13c-1.75,0-2.47-1.49-2.47-4.07,0-3.34,1.18-3.86,2.33-3.86a1.73,1.73,0,0,1,1.71,1.08h0V62.48h1.51v10H271ZM269.62,66c-.86,0-1.18.7-1.18,2.73,0,1.71.21,2.79,1.28,2.79s1.27-1,1.27-2.68C271,67,270.79,66,269.62,66Z" fill="#3b4351"/><path d="M276.56,64.94h1V62.8h1.51v2.14h1.23v1.12h-1.23v4.5c0,.6.17.8.69.8a3.74,3.74,0,0,0,.54,0v1.12a5.17,5.17,0,0,1-1.22.12c-1,0-1.52-.29-1.52-1.82V66.06h-1Z" fill="#3b4351"/><path d="M281.12,62.48h1.52v3.28l0,0a2.13,2.13,0,0,1,1.85-1c1.15,0,1.87.52,1.87,2v5.69h-1.51V67.31c0-1-.28-1.36-1.05-1.36-.61,0-1.2.48-1.2,1.47v5.06h-1.52Z" fill="#3b4351"/><path d="M289.16,68.91v.43c0,1,.13,2.3,1.26,2.3s1.21-1.22,1.21-1.68h1.42a2.48,2.48,0,0,1-2.64,2.72c-1.24,0-2.76-.37-2.76-3.86,0-2,.43-4.07,2.78-4.07,2.11,0,2.67,1.27,2.67,3.36v.8Zm2.42-1v-.41c0-.95-.3-1.68-1.16-1.68s-1.26,1-1.26,1.94v.15Z" fill="#3b4351"/><path d="M251,81.48h2l2.63,10H254L253.39,89h-2.93l-.65,2.45h-1.66Zm2.13,6.27L252,82.82h0l-1.19,4.93Z" fill="#3b4351"/><path d="M259.52,91.68a1.74,1.74,0,0,1-1.71-1.08h0v3.34h-1.51v-10h1.43v.93h0a1.79,1.79,0,0,1,1.7-1.12c1.72,0,2.42,1.47,2.42,4.06C261.84,91,260.57,91.68,259.52,91.68ZM259,85c-1,0-1.27,1-1.27,2.68,0,1.8.22,2.84,1.28,2.84.86,0,1.27-.64,1.27-2.73C260.25,86,260,85,259,85Z" fill="#3b4351"/><path d="M263.07,81.37h1.51v1.51h-1.51Zm0,2.57h1.51v7.54h-1.51Z" fill="#3b4351"/><path d="M269.36,86.14V86c0-.61-.21-1.17-1-1.17-.6,0-1.07.27-1.07,1s.26.83,1.06,1.11l1,.34A2,2,0,0,1,271,89.38c0,1.61-1.19,2.3-2.71,2.3-1.9,0-2.48-.89-2.48-2.34v-.28h1.35v.23c0,.89.29,1.35,1.17,1.35s1.24-.42,1.24-1.11a1.09,1.09,0,0,0-.83-1.1L267.47,88a2,2,0,0,1-1.61-2.17c0-1.41,1-2.07,2.57-2.07,1.92,0,2.36,1.12,2.36,2.06v.33Z" fill="#3b4351"/><path d="M275.53,81.48h3.24c1.5,0,2.69.67,2.69,2.42A2.1,2.1,0,0,1,280,86.17v0c1.09.19,1.79.85,1.79,2.55s-1.21,2.73-3.08,2.73h-3.17Zm2.86,4.21a1.4,1.4,0,0,0,1.47-1.58c0-1.19-.72-1.43-1.61-1.43h-1.12v3Zm.32,4.58c1,0,1.47-.6,1.47-1.76a1.52,1.52,0,0,0-1.57-1.7h-1.48v3.46Z" fill="#3b4351"/><path d="M286.8,90.6h0a2.17,2.17,0,0,1-1.93,1.08c-1.12,0-1.88-.52-1.88-2.47V83.94h1.51v5.41c0,.84.37,1.12,1,1.12a1.18,1.18,0,0,0,1.23-1.26V83.94h1.51v7.54H286.8Z" fill="#3b4351"/><path d="M289.75,81.48h1.52v10h-1.52Z" fill="#3b4351"/><path d="M292.86,81.48h1.51v10h-1.51Z" fill="#3b4351"/><path d="M296.05,89.63h1.6v1.85h-1.6Z" fill="#3b4351"/></g></g></svg>