<svg xmlns="http://www.w3.org/2000/svg" viewBox="0 0 1847.91 112"><title>bc0700text</title><g id="YEARS"><g id="Right"><path d="M1788.85,90.18h10.92v2.35a32.18,32.18,0,0,0-5.8,15.7h-3.12a31.47,31.47,0,0,1,6.06-15.39h-8.06Z" fill="#3b4351"/><path d="M1806.79,89.82c3.54,0,5.51,2.21,5.51,9.39s-2,9.38-5.51,9.38-5.51-2.21-5.51-9.38S1803.26,89.82,1806.79,89.82Zm0,16.69c2,0,2.55-2,2.55-7.3s-.55-7.31-2.55-7.31-2.55,2-2.55,7.31S1804.79,106.51,1806.79,106.51Z" fill="#3b4351"/><path d="M1819.27,89.82c3.54,0,5.51,2.21,5.51,9.39s-2,9.38-5.51,9.38-5.51-2.21-5.51-9.38S1815.73,89.82,1819.27,89.82Zm0,16.69c2,0,2.55-2,2.55-7.3s-.55-7.31-2.55-7.31-2.55,2-2.55,7.31S1817.27,106.51,1819.27,106.51Z" fill="#3b4351"/></g><g id="left"><path d="M19.1,93.78H30v2.34a32.25,32.25,0,0,0-5.8,15.71H21.1a31.47,31.47,0,0,1,6.06-15.39H19.1Z" fill="#3b4351"/><path d="M37,93.42c3.54,0,5.51,2.21,5.51,9.39s-2,9.38-5.51,9.38-5.51-2.21-5.51-9.38S33.51,93.42,37,93.42Zm0,16.69c2,0,2.55-2,2.55-7.3S39,95.5,37,95.5s-2.55,2-2.55,7.31S35,110.11,37,110.11Z" fill="#3b4351"/><path d="M49.52,93.42c3.54,0,5.51,2.21,5.51,9.39s-2,9.38-5.51,9.38S44,110,44,102.81,46,93.42,49.52,93.42Zm0,16.69c2,0,2.55-2,2.55-7.3s-.55-7.31-2.55-7.31-2.55,2-2.55,7.31S47.52,110.11,49.52,110.11Z" fill="#3b4351"/></g></g><g id="Text"><g id="Greeks"><path d="M267,9.67h3.17c1.92,0,2.76,1.21,2.76,2.92A2.72,2.72,0,0,1,270,15.54h-1.4v4.13H267Zm1.6,4.67h1.14a1.5,1.5,0,0,0,1.59-1.72c0-1.08-.43-1.74-1.71-1.74h-1Z" fill="#3b4351"/><path d="M273.89,9.67h1.51V13l0,0a2.15,2.15,0,0,1,1.85-1c1.15,0,1.88.52,1.88,2.05v5.68h-1.52V14.51c0-1-.28-1.36-1-1.36-.61,0-1.2.47-1.2,1.47v5.05h-1.51Z" fill="#3b4351"/><path d="M285.56,18.11c0,.28.17.53.4.53a.76.76,0,0,0,.25,0v1a1.71,1.71,0,0,1-.74.18c-.68,0-1.24-.27-1.28-1h0a1.93,1.93,0,0,1-1.87,1.11c-1.22,0-2-.66-2-2.11a2.08,2.08,0,0,1,1.75-2.37l1.17-.32c.55-.16.89-.31.89-1s-.24-1.12-1-1.12c-1,0-1.15.71-1.15,1.44h-1.43c0-1.61.66-2.48,2.65-2.48,1.33,0,2.39.52,2.39,1.85Zm-1.42-2.41a13.32,13.32,0,0,1-1.69.7,1.24,1.24,0,0,0-.61,1.22c0,.63.31,1.13.94,1.13.91,0,1.36-.67,1.36-1.79Z" fill="#3b4351"/><path d="M287.1,12.14h1.51v1.18h0a1.88,1.88,0,0,1,1.75-1.38.92.92,0,0,1,.37.06v1.54a2.24,2.24,0,0,0-.63-.08c-.69,0-1.52.3-1.52,1.71v4.5H287.1Z" fill="#3b4351"/><path d="M291.22,15.91c0-2.36.61-4,2.8-4s2.81,1.61,2.81,4-.72,4-2.81,4S291.22,18.26,291.22,15.91Zm2.8,2.84c1.11,0,1.3-.92,1.3-2.84,0-1.67-.19-2.85-1.3-2.85s-1.29,1.18-1.29,2.85C292.73,17.83,292.94,18.75,294,18.75Z" fill="#3b4351"/><path d="M302.94,18.11c0,.28.17.53.39.53a.72.72,0,0,0,.25,0v1a1.71,1.71,0,0,1-.74.18c-.67,0-1.23-.27-1.27-1h0a1.94,1.94,0,0,1-1.88,1.11c-1.22,0-2-.66-2-2.11a2.08,2.08,0,0,1,1.75-2.37l1.18-.32c.54-.16.88-.31.88-1s-.24-1.12-1-1.12c-1,0-1.15.71-1.15,1.44H297.9c0-1.61.65-2.48,2.64-2.48,1.33,0,2.4.52,2.4,1.85Zm-1.43-2.41a13.82,13.82,0,0,1-1.68.7,1.23,1.23,0,0,0-.62,1.22c0,.63.31,1.13.94,1.13.91,0,1.36-.67,1.36-1.79Z" fill="#3b4351"/><path d="M304.48,9.67H306V13l0,0a2.14,2.14,0,0,1,1.85-1c1.15,0,1.88.52,1.88,2.05v5.68h-1.52V14.51c0-1-.28-1.36-1.05-1.36-.61,0-1.2.47-1.2,1.47v5.05h-1.51Z" fill="#3b4351"/><path d="M263.17,35.58v.25c0,1.22.55,1.84,1.64,1.84a1.43,1.43,0,0,0,1.51-1.46,1.68,1.68,0,0,0-1.42-1.78l-1.1-.38c-1.45-.56-2.08-1.31-2.08-2.74,0-1.82,1.24-2.83,3.11-2.83,2.56,0,2.83,1.59,2.83,2.63v.22h-1.6v-.21c0-.91-.39-1.44-1.4-1.44a1.28,1.28,0,0,0-1.35,1.44c0,.86.44,1.29,1.5,1.7l1.08.39a2.54,2.54,0,0,1,2,2.65c0,2.13-1.29,3-3.3,3a2.74,2.74,0,0,1-3-3v-.24Z" fill="#3b4351"/><path d="M269.11,28.67h1.51V32l0,0a2.16,2.16,0,0,1,1.85-1c1.15,0,1.88.52,1.88,2.05v5.68h-1.51V33.51c0-1-.28-1.36-1.05-1.36-.62,0-1.21.47-1.21,1.47v5.05h-1.51Z" fill="#3b4351"/><path d="M277.14,35.1v.44c0,1,.13,2.29,1.27,2.29s1.2-1.21,1.2-1.68H281a2.48,2.48,0,0,1-2.65,2.72c-1.23,0-2.76-.36-2.76-3.85,0-2,.44-4.08,2.79-4.08,2.1,0,2.66,1.28,2.66,3.36v.8Zm2.43-1v-.41c0-.95-.31-1.68-1.16-1.68s-1.27.95-1.27,1.93v.16Z" fill="#3b4351"/><path d="M285.57,33.34v-.2c0-.6-.21-1.16-1-1.16-.6,0-1.08.27-1.08,1s.27.83,1.07,1.11l1,.33a2,2,0,0,1,1.64,2.17c0,1.61-1.19,2.3-2.7,2.3-1.91,0-2.48-.88-2.48-2.34v-.28h1.34v.24c0,.88.3,1.34,1.18,1.34s1.23-.42,1.23-1.1a1.09,1.09,0,0,0-.82-1.11l-1.24-.43A2,2,0,0,1,282.07,33c0-1.42,1-2.08,2.58-2.08,1.92,0,2.35,1.12,2.35,2.06v.34Z" fill="#3b4351"/><path d="M288.29,28.67h1.51V32l0,0a2.16,2.16,0,0,1,1.85-1c1.15,0,1.88.52,1.88,2.05v5.68h-1.51V33.51c0-1-.28-1.36-1.05-1.36s-1.21.47-1.21,1.47v5.05h-1.51Z" fill="#3b4351"/><path d="M294.73,34.91c0-2.36.61-4,2.8-4s2.81,1.61,2.81,4-.72,4-2.81,4S294.73,37.26,294.73,34.91Zm2.8,2.84c1.11,0,1.3-.92,1.3-2.84,0-1.67-.19-2.85-1.3-2.85s-1.29,1.18-1.29,2.85C296.24,36.83,296.45,37.75,297.53,37.75Z" fill="#3b4351"/><path d="M301.5,31.14h1.43V32h0a2.18,2.18,0,0,1,1.94-1.08c1.15,0,1.87.52,1.87,2.05v5.68h-1.51V33.51c0-1-.26-1.36-1-1.36-.62,0-1.2.46-1.2,1.47v5.05H301.5Z" fill="#3b4351"/><path d="M308.24,28.67h1.51v5.62h0l2.28-3.15,1.75,0L311.54,34l2.57,4.63h-1.66l-1.85-3.43-.85,1v2.39h-1.51Z" fill="#3b4351"/><path d="M316.75,28.67h1.69l1.7,8h0l1.79-8h1.7l-2.53,10h-2Z" fill="#3b4351"/><path d="M323.16,36.83h1.6v1.84h-1.6Z" fill="#3b4351"/><path d="M284.23,47.67h5.41V49h-3.81v2.77h3.58v1.35h-3.58v3.19h3.92v1.34h-5.52Z" fill="#3b4351"/><path d="M292.38,58.32a1,1,0,0,0,1.09.9,1.25,1.25,0,0,0,1.28-1.42V56.58h0a1.82,1.82,0,0,1-1.71,1c-1.75,0-2.26-1.72-2.26-3.8,0-1.65.26-3.88,2.4-3.88a1.66,1.66,0,0,1,1.65,1.12h0v-.92h1.43v7.17c0,1.84-.78,2.94-2.82,2.94-2.24,0-2.49-1.31-2.49-1.93Zm1.06-1.91c1.18,0,1.31-1.48,1.31-2.67s-.16-2.59-1.21-2.59-1.27,1.12-1.27,2.52S292.32,56.41,293.44,56.41Z" fill="#3b4351"/><path d="M298.61,50.14l1.3,5.66h0l1.2-5.66h1.59L300.65,58c-.6,2-1.06,2.33-2.63,2.29a3,3,0,0,1-.6,0V59a2.05,2.05,0,0,0,.49.06c.52,0,.85-.1,1-.59l.2-.62L297,50.14Z" fill="#3b4351"/><path d="M306.81,57.87a1.74,1.74,0,0,1-1.71-1.08h0v3.35h-1.52v-10H305v.92h0a1.79,1.79,0,0,1,1.7-1.12c1.72,0,2.42,1.47,2.42,4.06C309.14,57.17,307.86,57.87,306.81,57.87Zm-.54-6.72c-1,0-1.28,1.05-1.28,2.67,0,1.81.23,2.85,1.29,2.85.86,0,1.26-.65,1.26-2.74C307.54,52.23,307.33,51.15,306.27,51.15Z" fill="#3b4351"/><path d="M309.63,50.14h1V48h1.52v2.14h1.23v1.12h-1.23v4.5c0,.6.16.79.68.79a2.75,2.75,0,0,0,.55,0v1.12a4.64,4.64,0,0,1-1.22.13c-1,0-1.53-.3-1.53-1.82V51.26h-1Z" fill="#3b4351"/><path d="M272.9,73.93c-.11,1.81-.7,2.94-2.58,2.94-2.19,0-2.8-1.61-2.8-4s.61-4,2.8-4a2.44,2.44,0,0,1,2.59,2.71H271.4c0-.7-.18-1.63-1.08-1.59-1.08,0-1.29,1.18-1.29,2.85s.21,2.84,1.29,2.84c.84,0,1.15-.69,1.15-1.82Z" fill="#3b4351"/><path d="M273.73,72.91c0-2.36.62-4,2.81-4s2.81,1.61,2.81,4-.73,4-2.81,4S273.73,75.26,273.73,72.91Zm2.81,2.84c1.1,0,1.3-.92,1.3-2.84,0-1.67-.2-2.85-1.3-2.85s-1.29,1.18-1.29,2.85C275.25,74.83,275.46,75.75,276.54,75.75Z" fill="#3b4351"/><path d="M280.51,69.14h1.43V70h0a2.17,2.17,0,0,1,1.93-1.08c1.15,0,1.88.52,1.88,2v5.68h-1.51V71.51c0-1-.27-1.36-1-1.36-.62,0-1.21.46-1.21,1.47v5h-1.51Z" fill="#3b4351"/><path d="M291,75.79h0a1.75,1.75,0,0,1-1.72,1.08c-1.18,0-2.31-.81-2.31-3.87,0-2.57.71-4.06,2.46-4.06a1.61,1.61,0,0,1,1.66,1.12h0v-.92h1.42v10H291Zm-1.19-5.64c-1.06,0-1.27,1.08-1.27,2.78,0,2,.4,2.74,1.17,2.74,1.18,0,1.38-1,1.38-2.85C291.1,71.2,290.86,70.15,289.82,70.15Z" fill="#3b4351"/><path d="M297.83,75.79h0a2.17,2.17,0,0,1-1.94,1.08c-1.12,0-1.87-.52-1.87-2.46V69.14h1.51v5.41c0,.84.36,1.12,1,1.12a1.18,1.18,0,0,0,1.24-1.26V69.14h1.51v7.53h-1.43Z" fill="#3b4351"/><path d="M302,73.1v.44c0,1,.13,2.29,1.27,2.29s1.2-1.21,1.2-1.68h1.43a2.48,2.48,0,0,1-2.65,2.72c-1.23,0-2.76-.36-2.76-3.85,0-2,.44-4.08,2.79-4.08,2.1,0,2.66,1.28,2.66,3.36v.8Zm2.43-1v-.41c0-1-.31-1.68-1.16-1.68s-1.27,1-1.27,1.93v.16Z" fill="#3b4351"/><path d="M307.19,69.14h1.52v1.18h0a1.88,1.88,0,0,1,1.76-1.38.87.87,0,0,1,.36.06v1.54a2.18,2.18,0,0,0-.63-.08c-.69,0-1.51.3-1.51,1.71v4.5h-1.52Z" fill="#3b4351"/><path d="M312.82,73.1v.44c0,1,.13,2.29,1.26,2.29s1.21-1.21,1.21-1.68h1.43a2.48,2.48,0,0,1-2.65,2.72c-1.23,0-2.76-.36-2.76-3.85,0-2,.43-4.08,2.79-4.08,2.1,0,2.66,1.28,2.66,3.36v.8Zm2.43-1v-.41c0-1-.31-1.68-1.17-1.68s-1.26,1-1.26,1.93v.16Z" fill="#3b4351"/><path d="M321.85,75.75h0a1.62,1.62,0,0,1-1.66,1.12c-1.75,0-2.46-1.48-2.46-4.06,0-3.35,1.17-3.87,2.32-3.87A1.74,1.74,0,0,1,321.74,70h0V66.67h1.51v10h-1.43Zm-1.37-5.6c-.85,0-1.18.7-1.18,2.73,0,1.71.21,2.79,1.28,2.79s1.27-1,1.27-2.68C321.85,71.18,321.66,70.15,320.48,70.15Z" fill="#3b4351"/><path d="M328.1,66.67h1.51V70h0a1.74,1.74,0,0,1,1.7-1.08c1.15,0,2.33.52,2.33,3.87,0,2.59-.71,4.06-2.47,4.06a1.61,1.61,0,0,1-1.65-1.12h0v.92H328.1Zm2.7,9c1.06,0,1.27-1.08,1.27-2.79,0-2-.32-2.73-1.17-2.73-1.18,0-1.38,1-1.38,2.84C329.52,74.62,329.76,75.67,330.8,75.67Z" fill="#3b4351"/><path d="M335.67,69.14,337,74.8h0l1.2-5.66h1.59L337.71,77c-.6,2.05-1.06,2.33-2.63,2.29a3,3,0,0,1-.6,0V78a2.05,2.05,0,0,0,.49.06c.52,0,.85-.1,1-.59l.2-.62L334,69.14Z" fill="#3b4351"/><path d="M297.71,85.67h5.41V87h-3.81v2.77h3.58v1.35h-3.58v3.19h3.92v1.34h-5.52Z" fill="#3b4351"/><path d="M303.67,88.14h1V86h1.51v2.14h1.23v1.12h-1.23v4.5c0,.6.17.79.69.79a2.7,2.7,0,0,0,.54,0v1.12a4.56,4.56,0,0,1-1.21.13c-1,0-1.53-.3-1.53-1.82V89.26h-1Z" fill="#3b4351"/><path d="M308.24,85.67h1.51V89l0,0a2.16,2.16,0,0,1,1.85-1c1.15,0,1.88.52,1.88,2v5.68H312V90.51c0-1-.28-1.36-1.05-1.36-.61,0-1.2.47-1.2,1.47v5h-1.51Z" fill="#3b4351"/><path d="M315,85.56h1.51v1.51H315Zm0,2.58h1.51v7.53H315Z" fill="#3b4351"/><path d="M317.78,91.91c0-2.36.62-4,2.81-4s2.81,1.61,2.81,4-.73,4-2.81,4S317.78,94.26,317.78,91.91Zm2.81,2.84c1.1,0,1.3-.92,1.3-2.84,0-1.67-.2-2.85-1.3-2.85s-1.29,1.18-1.29,2.85C319.3,93.83,319.51,94.75,320.59,94.75Z" fill="#3b4351"/><path d="M327.81,95.87a1.74,1.74,0,0,1-1.71-1.08h0v3.35h-1.51v-10H326v.92h0a1.78,1.78,0,0,1,1.69-1.12c1.72,0,2.42,1.47,2.42,4.06C330.13,95.17,328.86,95.87,327.81,95.87Zm-.55-6.72c-1,0-1.27,1-1.27,2.67,0,1.81.22,2.85,1.29,2.85.85,0,1.26-.65,1.26-2.74C328.54,90.23,328.33,89.15,327.26,89.15Z" fill="#3b4351"/><path d="M331.36,85.56h1.52v1.51h-1.52Zm0,2.58h1.52v7.53h-1.52Z" fill="#3b4351"/><path d="M339.35,94.11c0,.28.16.53.39.53a.76.76,0,0,0,.25,0v1a1.71,1.71,0,0,1-.74.18c-.67,0-1.23-.27-1.28-1h0a1.94,1.94,0,0,1-1.88,1.11c-1.22,0-2-.66-2-2.11a2.08,2.08,0,0,1,1.75-2.37l1.18-.32c.54-.16.88-.31.88-1s-.24-1.12-1-1.12c-1,0-1.15.71-1.15,1.44H334.3c0-1.61.66-2.48,2.65-2.48,1.33,0,2.4.52,2.4,1.85Zm-1.43-2.41a13.82,13.82,0,0,1-1.68.7,1.23,1.23,0,0,0-.62,1.22c0,.63.31,1.13.94,1.13.91,0,1.36-.67,1.36-1.79Z" fill="#3b4351"/><path d="M340.88,88.14h1.43V89h0a2.18,2.18,0,0,1,1.94-1.08c1.15,0,1.87.52,1.87,2v5.68h-1.51V90.51c0-1-.26-1.36-1-1.36-.62,0-1.2.46-1.2,1.47v5h-1.52Z" fill="#3b4351"/><path d="M350.87,90.34v-.2c0-.6-.21-1.16-1-1.16-.6,0-1.08.27-1.08,1s.27.83,1.07,1.11l1,.33a2,2,0,0,1,1.63,2.17c0,1.61-1.19,2.3-2.7,2.3-1.9,0-2.48-.88-2.48-2.34v-.28h1.35v.24c0,.88.29,1.34,1.17,1.34s1.24-.42,1.24-1.1a1.09,1.09,0,0,0-.83-1.11L349,92.19A2,2,0,0,1,347.37,90c0-1.42,1-2.08,2.57-2.08,1.92,0,2.36,1.12,2.36,2.06v.34Z" fill="#3b4351"/><path d="M353.74,93.83h1.59v1.84h-1.59Z" fill="#3b4351"/></g></g></svg>