<svg xmlns="http://www.w3.org/2000/svg" viewBox="0 0 1847.91 112"><title>bc0700text</title><g id="YEARS"><g id="Right"><path d="M1794.14,83.71h10.92v2.34a32.12,32.12,0,0,0-5.8,15.71h-3.12a31.54,31.54,0,0,1,6.06-15.4h-8.06Z" fill="#3b4351"/><path d="M1812.08,83.35c3.53,0,5.51,2.21,5.51,9.38s-2,9.39-5.51,9.39-5.52-2.21-5.52-9.39S1808.54,83.35,1812.08,83.35Zm0,16.69c2,0,2.54-2,2.54-7.31s-.54-7.3-2.54-7.3-2.55,2-2.55,7.3S1810.07,100,1812.08,100Z" fill="#3b4351"/><path d="M1824.56,83.35c3.53,0,5.51,2.21,5.51,9.38s-2,9.39-5.51,9.39-5.52-2.21-5.52-9.39S1821,83.35,1824.56,83.35Zm0,16.69c2,0,2.54-2,2.54-7.31s-.54-7.3-2.54-7.3-2.55,2-2.55,7.3S1822.55,100,1824.56,100Z" fill="#3b4351"/></g><g id="left"><path d="M19.1,85.62H30V88a32.18,32.18,0,0,0-5.8,15.7H21.1a31.51,31.51,0,0,1,6.06-15.39H19.1Z" fill="#3b4351"/><path d="M37,85.25c3.54,0,5.51,2.21,5.51,9.39S40.58,104,37,104s-5.51-2.21-5.51-9.39S33.51,85.25,37,85.25ZM37,102c2,0,2.55-2,2.55-7.31S39,87.33,37,87.33s-2.55,2-2.55,7.31S35,102,37,102Z" fill="#3b4351"/><path d="M49.52,85.25c3.54,0,5.51,2.21,5.51,9.39s-2,9.39-5.51,9.39S44,101.82,44,94.64,46,85.25,49.52,85.25Zm0,16.7c2,0,2.55-2,2.55-7.31s-.55-7.31-2.55-7.31S47,89.31,47,94.64,47.52,102,49.52,102Z" fill="#3b4351"/></g></g><g id="Nation_OUtlines" data-name="Nation OUtlines"><polygon id="Romans" points="854.62 5054.83 829.93 4941.83 711.95 4832.83 764.62 4718.83 729.95 4603.83 845.28 4492.83 1002.62 4380.83 1065.29 4266.83 1021.28 4155.83 995.34 4038.83 815.28 3930.83 703.28 3819.83 687.28 3704.83 737.95 3590.83 780.62 3478.83 712.62 3367.83 645.95 3253.83 550.62 3140.83 491.95 3031 453.95 2918 455.29 2806 435.95 2691 470.62 2583 322.62 2583 416.12 2470 480.12 2360 410.62 2248 316.95 2134 248.28 2019 210.28 1908 175.95 1797 159.62 1681 91.28 1568 83.12 1463 117.62 1349 151.37 1235 129.62 1125 109.62 1010 99.62 898 73.12 788 75.42 -110 85.95 0 95.28 112 111.95 224 116.62 335 137.95 448 149.95 564 169.95 676 205.28 788 231.95 898 287.74 1010 467.73 1125 683.72 1235 998.71 1349 1118.7 1463 1131.14 1568 1195.2 1681 1182.62 1797 1245.62 1908 1220.62 2019 1122.62 2134 981.62 2248 880.12 2360 717.95 2470 593.62 2583 616.62 2691 717.28 2806 839.28 2920.84 863.28 3031 915.28 3140.83 810.62 3253.83 885.95 3367.83 1037.95 3478.83 1125.95 3590.83 1253.95 3704.83 1213.95 3819.83 1202.62 3930.83 1169.95 4038.83 1161.29 4155.83 1218.62 4266.83 1131.95 4380.83 936.62 4492.83 798.62 4603.83 819.28 4718.83 759.95 4832.83 849.28 4941.83 854.62 5054.83" fill="none" stroke="#3b4351" stroke-miterlimit="10"/><polygon id="Iranians" points="1263.29 -445.83 1235.95 -560 1211.95 -674.5 1241.29 -784.5 1280.62 -897 1217.95 -1011.83 1163.29 -1121.16 1140.62 -1234.5 1175.95 -1345 1153.29 -1459.83 1137.95 -1573.16 1188.62 -1684.5 1153.95 -1797.16 1161.95 -1910 1156.67 -2025.27 1152.84 -2142.5 1131.29 -2249 1198.62 -2359.5 1275.29 -2471.5 1277.29 -2585.16 1268.62 -2694.83 1283.88 -2806.83 1411.11 -2806.83 1445.69 -2695.27 1480.18 -2584.6 1462.18 -2471.5 1438.19 -2359.5 1387.19 -2249 1387.19 -2137 1420.19 -2022.07 1429.19 -1910 1400.69 -1797.08 1417.19 -1684 1343.69 -1573 1325.69 -1459 1345.19 -1345 1313.69 -1233 1298.69 -1121 1310.69 -1011 1348.19 -897 1313.69 -784 1285.19 -673 1294.19 -560 1372.19 -445.83 1373.74 -337.27 1375.34 -225.27 1376.98 -110 1335.62 0 1348.62 112 1391.1 224 1462.62 335 1440.62 447.73 1447.62 564 1472.62 676 1505.62 787.73 1513.62 897.73 1437.62 1009.73 1391.82 1124.73 1219.62 1010 1086.62 898 890.71 787.73 788.62 676 767.62 564 866.62 448 1041.62 334.73 1176.62 223.73 1205.62 111.73 1242.62 -0.27 1294.62 -110 1322.62 -222.83 1240.62 -337 1263.29 -445.83" fill="none" stroke="#3b4351" stroke-miterlimit="10"/><polygon id="Indians" points="1372.19 -445.83 1294.19 -560 1285.19 -673 1313.69 -784 1348.19 -897 1310.69 -1011 1298.69 -1121 1313.69 -1233 1345.19 -1345 1325.69 -1459 1343.69 -1573 1417.19 -1684 1400.69 -1797.08 1429.19 -1910 1419.27 -2025.27 1387.19 -2137 1387.19 -2249 1438.19 -2359.5 1462.18 -2471.5 1480.18 -2584.54 1445.82 -2694.83 1411.11 -2806.83 1545.86 -2806.83 1580.1 -2694.83 1593.12 -2584.6 1552.12 -2471.5 1514.62 -2359.5 1514.12 -2249.33 1553.12 -2137.27 1548.12 -2025 1519.62 -1910 1534.12 -1796.33 1575.12 -1684 1559.62 -1573 1564.12 -1459.27 1534.62 -1345 1486.12 -1233 1465.12 -1121 1471.12 -1011.83 1502.12 -897.83 1508.12 -784 1534.62 -673 1542.77 -594.14 1555.62 -445.83 1554.62 -337 1567.12 -225 1542.12 -110.27 1498.12 0 1490.62 112 1513.12 224 1568.62 335 1544.12 448 1530.62 563.73 1523.62 675.73 1532.62 788 1565.12 898 1543.62 1010 1514.12 1125 1490.12 1234.73 1495.62 1349 1517.12 1462.67 1528.12 1568 1580.62 1680.67 1578.12 1796.67 1578.12 1907.17 1560.12 2018.73 1526.62 2134 1467.62 2248 1381.62 2359.73 1270.62 2470 1090.12 2582.73 860.62 2691 1302.12 2806 1377.03 2918 1550.62 3031 1519.62 3140.83 1476.12 3253.83 1516.13 3367.83 1534.62 3480.17 1552.65 3590.83 1585.62 3704.73 1620.12 3819.83 1650.12 3930.83 1630.62 4038.73 1622.45 4155.73 1565.62 4266.83 1402.62 4380.17 1173.62 4492.83 1148.62 4603.83 1334.62 4718.83 1283.62 4832.83 1344.62 4941.83 1544.62 5054.83 1602.62 5169.17 1627.62 5280.83 1674.62 5393.73 1627.62 5508.83 1634.62 5620.83 1686.62 5732.83 1701.62 5845.83 1620.12 5957.83 1606.12 6068.83 1606.12 6182.66 1552.62 6182.66 1549.52 6068.83 1569.62 5957.83 1683.62 5845.83 1667.62 5732.83 1607.62 5620.83 1596.62 5508.17 1617.62 5393.83 1584.62 5280.83 1562.62 5168.83 1507.62 5054.83 1304.62 4941.73 1225.62 4832.73 1236.97 4795.78 1264.87 4718.83 1082.62 4603.83 1084.2 4493.34 1323.62 4380.83 1500.47 4266.73 1573.62 4155.83 1600.62 4038.83 1604.62 3930.83 1569.62 3819.83 1514.62 3704.83 1447.62 3590.73 1418.62 3478.83 1404.62 3367.83 1367.62 3253.83 1397.62 3140.83 1418.62 3030.73 1339.62 2917.73 1246.62 2806 748.62 2691 753.62 2583 910.76 2470 1053.62 2360 1195.2 2248 1311.62 2133.17 1353.62 2019 1348.62 1908 1364.62 1796.17 1406.62 1681 1401.62 1568 1429.62 1463 1394.62 1348.73 1393.2 1235 1391.82 1124.73 1437.52 1010 1513.62 897.73 1505.64 788 1472.62 676.17 1447.62 564 1440.63 448 1462.62 335 1391.1 224 1348.62 112 1332.62 0 1376.98 -110 1375.34 -225.27 1373.74 -337.27 1372.19 -445.83" fill="none" stroke="#3b4351" stroke-miterlimit="10"/><polygon id="Huns" points="1555.62 -445.83 1545.73 -560 1533.62 -673.33 1506.68 -783.36 1502.16 -897 1471.34 -1011 1465.12 -1121 1486.12 -1233 1534.62 -1345 1564.05 -1459 1559.62 -1573 1575.12 -1684 1534.24 -1796 1519.62 -1910 1548.12 -2025 1553.11 -2137 1514.47 -2249.27 1514.62 -2361.5 1552.12 -2471.5 1593.12 -2584.16 1580.1 -2694.83 1545.86 -2806.83 1633.99 -2806.83 1651.62 -2694.83 1667.62 -2584.16 1646.62 -2471.5 1620.62 -2359.5 1630.4 -2251.4 1650.62 -2137.33 1676.62 -2025 1700.12 -1910 1689.12 -1796 1714.62 -1684.33 1697.12 -1573.27 1645.62 -1459.27 1616.12 -1345 1586.62 -1233.27 1538.12 -1121.27 1509.12 -1011 1551.62 -897 1585.12 -784 1608.62 -673.33 1609.69 -560.27 1610.76 -447.27 1613.62 -337.27 1625.12 -225.27 1599.12 -109.33 1557.59 0 1545.65 112 1558.62 224 1584.62 334.73 1571.12 448.17 1576.62 564 1567.62 676 1587.12 788 1621.12 898 1612.12 1010 1556.12 1125 1528.62 1235 1529.62 1349 1553.62 1463 1616.07 1568 1609.25 1681 1592.66 1797 1611.01 1907.73 1612.12 2019 1598.04 2134 1564.12 2248 1534.29 2360 1602.12 2469.73 1653.62 2583 1673.62 2691 1666.12 2806 1668.12 2917.67 1625.62 3030.67 1542.12 3140.83 1476.12 3253.83 1519.62 3140.83 1550.62 3031 1376.62 2917.73 1302.12 2806 860.62 2691 1090.12 2582.73 1270.62 2470 1381.62 2359.73 1467.62 2248 1526.62 2134 1560.12 2018.73 1578.12 1907.17 1578.12 1796.67 1580.62 1680.67 1528.12 1568 1517.12 1462.67 1495.62 1349 1490.12 1234.73 1514.12 1125 1543.62 1010 1565.12 898 1532.62 788 1523.62 675.73 1530.62 563.73 1544.12 448 1568.62 335 1513.12 224 1490.62 112 1498.12 0 1542.12 -110.27 1567.12 -225 1554.62 -337 1555.62 -445.83" fill="none" stroke="#3b4351" stroke-miterlimit="10"/><polygon id="Greeks" points="1131.14 1568 1118.7 1463 998.71 1349 683.72 1235 467.73 1125 287.74 1010 231.95 898 205.28 788 169.95 676 149.95 564 137.95 448 116.62 335 111.95 224 95.28 112 85.95 0 75.42 -110 75.42 -283.33 75.42 -1573 142.25 -1459 145.25 -1345 155.75 -1233 172.25 -1121 202.25 -1011 223.25 -897 251.62 -784 250.62 -673 221.95 -559.16 228.6 -447.27 199.95 -337.16 217.95 -225.16 237.43 -110 262.62 0 259.95 112 319.29 224 349.95 335 401.29 448 527.28 564 645.95 676 761.95 788 965.29 898 965.95 1010 897.95 1124.17 910.76 1234.73 1099.37 1349 1168.66 1463.09 1131.14 1568" fill="none" stroke="#3b4351" stroke-miterlimit="10"/><polygon id="Egyptians" points="1195.2 1678.31 1131.14 1568 1168.66 1463.09 1099.2 1348.73 910.76 1234.73 897.95 1124.17 965.95 1010 965.28 897.5 761.95 788 645.95 676 527.28 564 401.29 448 349.95 335 319.29 224 259.95 112 262.62 0 238.62 -110 217.95 -225 199.95 -337 228.62 -447 221.62 -560 250.62 -673 251.62 -784 223.25 -897 271.57 -1011 265.25 -1121 305.74 -1233 341.74 -1345 376.24 -1459 440.74 -1573 467.73 -1683.09 443.74 -1796 381.96 -1910 242.75 -2025 298.62 -2137 424.24 -2249 460.24 -2359.5 397.24 -2471.5 319.24 -2584.16 319.24 -2694.83 298.62 -2806.83 1103.77 -2806.83 1042.62 -2694.83 982.62 -2584.16 940.62 -2471.5 786.62 -2359.5 663.62 -2249 633.62 -2137 662.62 -2025 656.62 -1910.08 733.62 -1796.27 800.62 -1684.83 770.62 -1573 750.62 -1459 785.62 -1345 835.62 -1233 742.62 -1121 658.62 -1011 439.62 -897 400.62 -784 361.62 -673 302.62 -560 310.62 -447 282.62 -337 271.95 -225 305.95 0 323.95 111.5 432.62 224 476.62 334.17 451.95 448 555.95 564 667.28 676 813.28 788 968.62 898 995.95 1010 968.62 1124.84 940.62 1233.5 1130.91 1348.73 1189.62 1463.67 1157.7 1568 1195.2 1678.31" fill="none" stroke="#3b4351" stroke-miterlimit="10"/><polygon id="Chinese" points="1610.76 -447.27 1609.69 -560.27 1608.62 -673.33 1585.12 -784 1551.62 -897 1509.12 -1011 1538.12 -1121.27 1586.62 -1233.27 1616.12 -1345 1645.62 -1459.27 1697.12 -1573.27 1714.62 -1684.33 1689.12 -1796 1700.12 -1910 1676.62 -2025 1650.62 -2137.33 1630.62 -2249 1620.62 -2359.5 1646.62 -2471.5 1667.62 -2584.16 1651.62 -2694.83 1633.99 -2806.83 1768.79 -2806.83 1768.79 5393.83 1768.79 5508.73 1766.12 5620.83 1757.62 5732.83 1736.12 5845.73 1676.12 5957.73 1661.12 6068.83 1663.62 6182.66 1606.12 6182.66 1606.12 6068.73 1620.12 5957.83 1701.62 5845.83 1696.12 5732.67 1654.12 5620.83 1681.62 5508.83 1739.62 5393.73 1748.62 5280.67 1744.12 5168.67 1685.62 5054.83 1615.12 4944.17 1636.12 4832.83 1738.62 4718.83 1761.12 4603.83 1758.62 4492.83 1732.12 4380.83 1695.62 4266.83 1667.62 4155.83 1651.12 4038.83 1650.12 3930.83 1620.12 3819.83 1585.62 3704.73 1552.62 3590.73 1535.12 3478.83 1516.12 3367.73 1476.12 3253.83 1542.12 3140.83 1625.62 3030.67 1668.12 2917.67 1666.12 2806 1673.62 2691 1653.62 2583 1602.12 2469.73 1534.12 2359.73 1564.12 2248 1598.12 2133.73 1612.12 2019 1611.01 1907.73 1592.62 1796.73 1609.25 1681 1616.07 1568 1553.62 1463 1529.62 1349 1528.62 1234.73 1555.62 1125 1612.12 1010 1621.12 898 1587.12 788 1567.62 676 1576.62 564 1571.12 448 1584.62 334.73 1558.62 224 1545.62 111.73 1557.62 -0.27 1599.62 -110 1625.12 -225.27 1613.62 -337.27 1610.76 -447.27" fill="none" stroke="#3b4351" stroke-miterlimit="10"/><polygon id="Amorites" points="1263.29 -445.83 1240.62 -337 1322.62 -225 1294.62 -110 1242.62 -0.27 1205.62 111.73 1176.62 223.73 1041.62 334.73 866.62 448 767.62 564 788.62 676 890.71 787.73 762.62 675.73 716.62 563.73 709.62 448 755.62 335 1054.29 223.73 1156.62 112 1173.62 -1.83 1199.62 -111.83 1138.62 -225 910.76 -337 832.62 -447.27 949.95 -560 1040.62 -673.27 1141.31 -784 1225.29 -897.16 1147.62 -1011 1085.29 -1121 1061.29 -1233.27 1028.62 -1345.27 971.95 -1459.16 961.95 -1573.83 992.62 -1684 910.76 -1796.27 853.28 -1910 826.62 -2025 785.95 -2137 823.95 -2249 910.76 -2359.5 1027.29 -2471.5 1025.29 -2584.16 1091.29 -2694.83 1152.07 -2806.83 1283.88 -2806.83 1268.62 -2694.83 1277.29 -2585.16 1275.29 -2471.5 1198.62 -2359.5 1131.29 -2249 1153.95 -2137 1156.67 -2025.27 1161.95 -1910 1153.95 -1797.16 1188.62 -1684.5 1137.95 -1573.16 1153.29 -1459.83 1175.95 -1345 1140.62 -1234.5 1163.29 -1121.16 1217.95 -1011.83 1280.62 -897 1241.29 -784.5 1211.95 -674.5 1235.95 -560 1263.29 -445.83" fill="none" stroke="#3b4351" stroke-miterlimit="10"/><polygon id="Assyrian_Kingdom" data-name="Assyrian Kingdom" points="631.95 -447.27 635.28 -560 679.9 -673 701.28 -784 799.28 -897 980.62 -1011 1007.95 -1121 1020.62 -1233 998.62 -1345 971.95 -1459.16 1028.62 -1345.27 1061.29 -1233.27 1085.29 -1121 1147.62 -1011 1225.29 -897.16 1141.31 -784 1040.62 -673.27 949.95 -560 832.62 -447.27 910.76 -337 1138.62 -225 1199.62 -111.83 1173.62 -1.83 1156.62 112 1054.29 223.73 755.62 335 709.62 448 716.62 563.73 658.28 448 654.62 335 630.95 224 510.62 112 518.62 0 595.95 -110 638.62 -225 643.28 -337 631.95 -447.27" fill="none" stroke="#3b4351" stroke-miterlimit="10"/><polygon id="OPians" points="305.95 0 289.61 -108.17 271.95 -225 282.62 -337 310.62 -447 302.62 -560 361.62 -673 337.24 -560 347.74 -447.27 359.29 -225 383.29 -110 387.95 0 375.82 112 465.29 224 476.62 334.17 432.62 224 323.95 111.5 305.95 0" fill="none" stroke="#3b4351" stroke-miterlimit="10"/><polygon id="Hebrews" points="635.28 -560 631.95 -447.27 643.28 -337 638.62 -225 595.95 -110 518.62 0 510.62 112 630.95 224 654.62 335 658.28 448 716.62 563.73 647.18 448 644.62 335 617.95 224 493.29 112 500.03 0 570.62 -110 613.28 -224 583.28 -337 569.28 -447 511.95 -560 573.95 -673 630.62 -784 697.58 -897 921.28 -1011 989.95 -1121 1020.62 -1233 1007.95 -1121 980.62 -1011 799.28 -897 701.28 -784 679.9 -673 635.28 -560" fill="none" stroke="#3b4351" stroke-miterlimit="10"/><polygon id="Syrians" points="500.03 0 493.29 112 439.95 0 428.62 -110 479.29 -225 509.95 -337 538.62 -447 511.95 -560 569.28 -447 583.28 -337 613.28 -224 570.62 -110 500.03 0" fill="none" stroke="#3b4351" stroke-miterlimit="10"/><polygon id="Lydians" points="611.95 448 624.62 564 667.28 676 555.95 564 451.95 448 476.62 334.17 465.29 224 375.82 112 523.28 224 608.62 335 611.95 448" fill="none" stroke="#3b4351" stroke-miterlimit="10"/><polygon points="1130.91 1348.73 940.62 1233.5 968.62 1124.84 995.95 1010 968.62 898 813.28 788 667.28 676 624.62 564 611.95 448 608.62 335 523.28 224 375.82 112 387.95 0 383.29 -110 359.29 -225 340.62 -335.84 347.74 -447.27 394.24 -560 481.23 -673 566.62 -784 623.95 -897 857.28 -1011 954.62 -1123.16 975.28 -1233.16 969.28 -1345 971.95 -1459.16 998.62 -1345 1020.62 -1233 989.95 -1121 921.28 -1011 697.58 -897 630.62 -784 573.95 -673 511.95 -560 538.62 -447 509.95 -337 479.29 -225 428.62 -110 439.95 0 493.29 112 617.95 224 644.62 335 647.18 448 716.62 563.73 762.62 675.73 890.71 787.73 1086.62 898 1219.62 1010 1225.12 1125 1186.62 1235 1130.91 1348.73" fill="none" stroke="#3b4351" stroke-miterlimit="10"/></g><g id="Text"><g id="Greeks-2" data-name="Greeks"><path d="M267,9.67h3.17c1.92,0,2.76,1.21,2.76,2.92A2.72,2.72,0,0,1,270,15.54h-1.4v4.13H267Zm1.6,4.67h1.14a1.5,1.5,0,0,0,1.59-1.72c0-1.08-.43-1.74-1.71-1.74h-1Z" fill="#3b4351"/><path d="M273.89,9.67h1.51V13l0,0a2.15,2.15,0,0,1,1.85-1c1.15,0,1.88.52,1.88,2.05v5.68h-1.52V14.51c0-1-.28-1.36-1-1.36-.61,0-1.2.47-1.2,1.47v5.05h-1.51Z" fill="#3b4351"/><path d="M285.56,18.11c0,.28.17.53.4.53a.76.76,0,0,0,.25,0v1a1.71,1.71,0,0,1-.74.18c-.68,0-1.24-.27-1.28-1h0a1.93,1.93,0,0,1-1.87,1.11c-1.22,0-2-.66-2-2.11a2.08,2.08,0,0,1,1.75-2.37l1.17-.32c.55-.16.89-.31.89-1s-.24-1.12-1-1.12c-1,0-1.15.71-1.15,1.44h-1.43c0-1.61.66-2.48,2.65-2.48,1.33,0,2.39.52,2.39,1.85Zm-1.42-2.41a13.32,13.32,0,0,1-1.69.7,1.24,1.24,0,0,0-.61,1.22c0,.63.31,1.13.94,1.13.91,0,1.36-.67,1.36-1.79Z" fill="#3b4351"/><path d="M287.1,12.14h1.51v1.18h0a1.88,1.88,0,0,1,1.75-1.38.92.92,0,0,1,.37.06v1.54a2.24,2.24,0,0,0-.63-.08c-.69,0-1.52.3-1.52,1.71v4.5H287.1Z" fill="#3b4351"/><path d="M291.22,15.91c0-2.36.61-4,2.8-4s2.81,1.61,2.81,4-.72,4-2.81,4S291.22,18.26,291.22,15.91Zm2.8,2.84c1.11,0,1.3-.92,1.3-2.84,0-1.67-.19-2.85-1.3-2.85s-1.29,1.18-1.29,2.85C292.73,17.83,292.94,18.75,294,18.75Z" fill="#3b4351"/><path d="M302.94,18.11c0,.28.17.53.39.53a.72.72,0,0,0,.25,0v1a1.71,1.71,0,0,1-.74.18c-.67,0-1.23-.27-1.27-1h0a1.94,1.94,0,0,1-1.88,1.11c-1.22,0-2-.66-2-2.11a2.08,2.08,0,0,1,1.75-2.37l1.18-.32c.54-.16.88-.31.88-1s-.24-1.12-1-1.12c-1,0-1.15.71-1.15,1.44H297.9c0-1.61.65-2.48,2.64-2.48,1.33,0,2.4.52,2.4,1.85Zm-1.43-2.41a13.82,13.82,0,0,1-1.68.7,1.23,1.23,0,0,0-.62,1.22c0,.63.31,1.13.94,1.13.91,0,1.36-.67,1.36-1.79Z" fill="#3b4351"/><path d="M304.48,9.67H306V13l0,0a2.14,2.14,0,0,1,1.85-1c1.15,0,1.88.52,1.88,2.05v5.68h-1.52V14.51c0-1-.28-1.36-1.05-1.36-.61,0-1.2.47-1.2,1.47v5.05h-1.51Z" fill="#3b4351"/><path d="M263.17,35.58v.25c0,1.22.55,1.84,1.64,1.84a1.43,1.43,0,0,0,1.51-1.46,1.68,1.68,0,0,0-1.42-1.78l-1.1-.38c-1.45-.56-2.08-1.31-2.08-2.74,0-1.82,1.24-2.83,3.11-2.83,2.56,0,2.83,1.59,2.83,2.63v.22h-1.6v-.21c0-.91-.39-1.44-1.4-1.44a1.28,1.28,0,0,0-1.35,1.44c0,.86.44,1.29,1.5,1.7l1.08.39a2.54,2.54,0,0,1,2,2.65c0,2.13-1.29,3-3.3,3a2.74,2.74,0,0,1-3-3v-.24Z" fill="#3b4351"/><path d="M269.11,28.67h1.51V32l0,0a2.16,2.16,0,0,1,1.85-1c1.15,0,1.88.52,1.88,2.05v5.68h-1.51V33.51c0-1-.28-1.36-1.05-1.36-.62,0-1.21.47-1.21,1.47v5.05h-1.51Z" fill="#3b4351"/><path d="M277.14,35.1v.44c0,1,.13,2.29,1.27,2.29s1.2-1.21,1.2-1.68H281a2.48,2.48,0,0,1-2.65,2.72c-1.23,0-2.76-.36-2.76-3.85,0-2,.44-4.08,2.79-4.08,2.1,0,2.66,1.28,2.66,3.36v.8Zm2.43-1v-.41c0-.95-.31-1.68-1.16-1.68s-1.27.95-1.27,1.93v.16Z" fill="#3b4351"/><path d="M285.57,33.34v-.2c0-.6-.21-1.16-1-1.16-.6,0-1.08.27-1.08,1s.27.83,1.07,1.11l1,.33a2,2,0,0,1,1.64,2.17c0,1.61-1.19,2.3-2.7,2.3-1.91,0-2.48-.88-2.48-2.34v-.28h1.34v.24c0,.88.3,1.34,1.18,1.34s1.23-.42,1.23-1.1a1.09,1.09,0,0,0-.82-1.11l-1.24-.43A2,2,0,0,1,282.07,33c0-1.42,1-2.08,2.58-2.08,1.92,0,2.35,1.12,2.35,2.06v.34Z" fill="#3b4351"/><path d="M288.29,28.67h1.51V32l0,0a2.16,2.16,0,0,1,1.85-1c1.15,0,1.88.52,1.88,2.05v5.68h-1.51V33.51c0-1-.28-1.36-1.05-1.36s-1.21.47-1.21,1.47v5.05h-1.51Z" fill="#3b4351"/><path d="M294.73,34.91c0-2.36.61-4,2.8-4s2.81,1.61,2.81,4-.72,4-2.81,4S294.73,37.26,294.73,34.91Zm2.8,2.84c1.11,0,1.3-.92,1.3-2.84,0-1.67-.19-2.85-1.3-2.85s-1.29,1.18-1.29,2.85C296.24,36.83,296.45,37.75,297.53,37.75Z" fill="#3b4351"/><path d="M301.5,31.14h1.43V32h0a2.18,2.18,0,0,1,1.94-1.08c1.15,0,1.87.52,1.87,2.05v5.68h-1.51V33.51c0-1-.26-1.36-1-1.36-.62,0-1.2.46-1.2,1.47v5.05H301.5Z" fill="#3b4351"/><path d="M308.24,28.67h1.51v5.62h0l2.28-3.15,1.75,0L311.54,34l2.57,4.63h-1.66l-1.85-3.43-.85,1v2.39h-1.51Z" fill="#3b4351"/><path d="M316.75,28.67h1.69l1.7,8h0l1.79-8h1.7l-2.53,10h-2Z" fill="#3b4351"/><path d="M323.16,36.83h1.6v1.84h-1.6Z" fill="#3b4351"/><path d="M284.23,47.67h5.41V49h-3.81v2.77h3.58v1.35h-3.58v3.19h3.92v1.34h-5.52Z" fill="#3b4351"/><path d="M292.38,58.32a1,1,0,0,0,1.09.9,1.25,1.25,0,0,0,1.28-1.42V56.58h0a1.82,1.82,0,0,1-1.71,1c-1.75,0-2.26-1.72-2.26-3.8,0-1.65.26-3.88,2.4-3.88a1.66,1.66,0,0,1,1.65,1.12h0v-.92h1.43v7.17c0,1.84-.78,2.94-2.82,2.94-2.24,0-2.49-1.31-2.49-1.93Zm1.06-1.91c1.18,0,1.31-1.48,1.31-2.67s-.16-2.59-1.21-2.59-1.27,1.12-1.27,2.52S292.32,56.41,293.44,56.41Z" fill="#3b4351"/><path d="M298.61,50.14l1.3,5.66h0l1.2-5.66h1.59L300.65,58c-.6,2-1.06,2.33-2.63,2.29a3,3,0,0,1-.6,0V59a2.05,2.05,0,0,0,.49.06c.52,0,.85-.1,1-.59l.2-.62L297,50.14Z" fill="#3b4351"/><path d="M306.81,57.87a1.74,1.74,0,0,1-1.71-1.08h0v3.35h-1.52v-10H305v.92h0a1.79,1.79,0,0,1,1.7-1.12c1.72,0,2.42,1.47,2.42,4.06C309.14,57.17,307.86,57.87,306.81,57.87Zm-.54-6.72c-1,0-1.28,1.05-1.28,2.67,0,1.81.23,2.85,1.29,2.85.86,0,1.26-.65,1.26-2.74C307.54,52.23,307.33,51.15,306.27,51.15Z" fill="#3b4351"/><path d="M309.63,50.14h1V48h1.52v2.14h1.23v1.12h-1.23v4.5c0,.6.16.79.68.79a2.75,2.75,0,0,0,.55,0v1.12a4.64,4.64,0,0,1-1.22.13c-1,0-1.53-.3-1.53-1.82V51.26h-1Z" fill="#3b4351"/><path d="M272.9,73.93c-.11,1.81-.7,2.94-2.58,2.94-2.19,0-2.8-1.61-2.8-4s.61-4,2.8-4a2.44,2.44,0,0,1,2.59,2.71H271.4c0-.7-.18-1.63-1.08-1.59-1.08,0-1.29,1.18-1.29,2.85s.21,2.84,1.29,2.84c.84,0,1.15-.69,1.15-1.82Z" fill="#3b4351"/><path d="M273.73,72.91c0-2.36.62-4,2.81-4s2.81,1.61,2.81,4-.73,4-2.81,4S273.73,75.26,273.73,72.91Zm2.81,2.84c1.1,0,1.3-.92,1.3-2.84,0-1.67-.2-2.85-1.3-2.85s-1.29,1.18-1.29,2.85C275.25,74.83,275.46,75.75,276.54,75.75Z" fill="#3b4351"/><path d="M280.51,69.14h1.43V70h0a2.17,2.17,0,0,1,1.93-1.08c1.15,0,1.88.52,1.88,2v5.68h-1.51V71.51c0-1-.27-1.36-1-1.36-.62,0-1.21.46-1.21,1.47v5h-1.51Z" fill="#3b4351"/><path d="M291,75.79h0a1.75,1.75,0,0,1-1.72,1.08c-1.18,0-2.31-.81-2.31-3.87,0-2.57.71-4.06,2.46-4.06a1.61,1.61,0,0,1,1.66,1.12h0v-.92h1.42v10H291Zm-1.19-5.64c-1.06,0-1.27,1.08-1.27,2.78,0,2,.4,2.74,1.17,2.74,1.18,0,1.38-1,1.38-2.85C291.1,71.2,290.86,70.15,289.82,70.15Z" fill="#3b4351"/><path d="M297.83,75.79h0a2.17,2.17,0,0,1-1.94,1.08c-1.12,0-1.87-.52-1.87-2.46V69.14h1.51v5.41c0,.84.36,1.12,1,1.12a1.18,1.18,0,0,0,1.24-1.26V69.14h1.51v7.53h-1.43Z" fill="#3b4351"/><path d="M302,73.1v.44c0,1,.13,2.29,1.27,2.29s1.2-1.21,1.2-1.68h1.43a2.48,2.48,0,0,1-2.65,2.72c-1.23,0-2.76-.36-2.76-3.85,0-2,.44-4.08,2.79-4.08,2.1,0,2.66,1.28,2.66,3.36v.8Zm2.43-1v-.41c0-1-.31-1.68-1.16-1.68s-1.27,1-1.27,1.93v.16Z" fill="#3b4351"/><path d="M307.19,69.14h1.52v1.18h0a1.88,1.88,0,0,1,1.76-1.38.87.87,0,0,1,.36.06v1.54a2.18,2.18,0,0,0-.63-.08c-.69,0-1.51.3-1.51,1.71v4.5h-1.52Z" fill="#3b4351"/><path d="M312.82,73.1v.44c0,1,.13,2.29,1.26,2.29s1.21-1.21,1.21-1.68h1.43a2.48,2.48,0,0,1-2.65,2.72c-1.23,0-2.76-.36-2.76-3.85,0-2,.43-4.08,2.79-4.08,2.1,0,2.66,1.28,2.66,3.36v.8Zm2.43-1v-.41c0-1-.31-1.68-1.17-1.68s-1.26,1-1.26,1.93v.16Z" fill="#3b4351"/><path d="M321.85,75.75h0a1.62,1.62,0,0,1-1.66,1.12c-1.75,0-2.46-1.48-2.46-4.06,0-3.35,1.17-3.87,2.32-3.87A1.74,1.74,0,0,1,321.74,70h0V66.67h1.51v10h-1.43Zm-1.37-5.6c-.85,0-1.18.7-1.18,2.73,0,1.71.21,2.79,1.28,2.79s1.27-1,1.27-2.68C321.85,71.18,321.66,70.15,320.48,70.15Z" fill="#3b4351"/><path d="M328.1,66.67h1.51V70h0a1.74,1.74,0,0,1,1.7-1.08c1.15,0,2.33.52,2.33,3.87,0,2.59-.71,4.06-2.47,4.06a1.61,1.61,0,0,1-1.65-1.12h0v.92H328.1Zm2.7,9c1.06,0,1.27-1.08,1.27-2.79,0-2-.32-2.73-1.17-2.73-1.18,0-1.38,1-1.38,2.84C329.52,74.62,329.76,75.67,330.8,75.67Z" fill="#3b4351"/><path d="M335.67,69.14,337,74.8h0l1.2-5.66h1.59L337.71,77c-.6,2.05-1.06,2.33-2.63,2.29a3,3,0,0,1-.6,0V78a2.05,2.05,0,0,0,.49.06c.52,0,.85-.1,1-.59l.2-.62L334,69.14Z" fill="#3b4351"/><path d="M297.71,85.67h5.41V87h-3.81v2.77h3.58v1.35h-3.58v3.19h3.92v1.34h-5.52Z" fill="#3b4351"/><path d="M303.67,88.14h1V86h1.51v2.14h1.23v1.12h-1.23v4.5c0,.6.17.79.69.79a2.7,2.7,0,0,0,.54,0v1.12a4.56,4.56,0,0,1-1.21.13c-1,0-1.53-.3-1.53-1.82V89.26h-1Z" fill="#3b4351"/><path d="M308.24,85.67h1.51V89l0,0a2.16,2.16,0,0,1,1.85-1c1.15,0,1.88.52,1.88,2v5.68H312V90.51c0-1-.28-1.36-1.05-1.36-.61,0-1.2.47-1.2,1.47v5h-1.51Z" fill="#3b4351"/><path d="M315,85.56h1.51v1.51H315Zm0,2.58h1.51v7.53H315Z" fill="#3b4351"/><path d="M317.78,91.91c0-2.36.62-4,2.81-4s2.81,1.61,2.81,4-.73,4-2.81,4S317.78,94.26,317.78,91.91Zm2.81,2.84c1.1,0,1.3-.92,1.3-2.84,0-1.67-.2-2.85-1.3-2.85s-1.29,1.18-1.29,2.85C319.3,93.83,319.51,94.75,320.59,94.75Z" fill="#3b4351"/><path d="M327.81,95.87a1.74,1.74,0,0,1-1.71-1.08h0v3.35h-1.51v-10H326v.92h0a1.78,1.78,0,0,1,1.69-1.12c1.72,0,2.42,1.47,2.42,4.06C330.13,95.17,328.86,95.87,327.81,95.87Zm-.55-6.72c-1,0-1.27,1-1.27,2.67,0,1.81.22,2.85,1.29,2.85.85,0,1.26-.65,1.26-2.74C328.54,90.23,328.33,89.15,327.26,89.15Z" fill="#3b4351"/><path d="M331.36,85.56h1.52v1.51h-1.52Zm0,2.58h1.52v7.53h-1.52Z" fill="#3b4351"/><path d="M339.35,94.11c0,.28.16.53.39.53a.76.76,0,0,0,.25,0v1a1.71,1.71,0,0,1-.74.18c-.67,0-1.23-.27-1.28-1h0a1.94,1.94,0,0,1-1.88,1.11c-1.22,0-2-.66-2-2.11a2.08,2.08,0,0,1,1.75-2.37l1.18-.32c.54-.16.88-.31.88-1s-.24-1.12-1-1.12c-1,0-1.15.71-1.15,1.44H334.3c0-1.61.66-2.48,2.65-2.48,1.33,0,2.4.52,2.4,1.85Zm-1.43-2.41a13.82,13.82,0,0,1-1.68.7,1.23,1.23,0,0,0-.62,1.22c0,.63.31,1.13.94,1.13.91,0,1.36-.67,1.36-1.79Z" fill="#3b4351"/><path d="M340.88,88.14h1.43V89h0a2.18,2.18,0,0,1,1.94-1.08c1.15,0,1.87.52,1.87,2v5.68h-1.51V90.51c0-1-.26-1.36-1-1.36-.62,0-1.2.46-1.2,1.47v5h-1.52Z" fill="#3b4351"/><path d="M350.87,90.34v-.2c0-.6-.21-1.16-1-1.16-.6,0-1.08.27-1.08,1s.27.83,1.07,1.11l1,.33a2,2,0,0,1,1.63,2.17c0,1.61-1.19,2.3-2.7,2.3-1.9,0-2.48-.88-2.48-2.34v-.28h1.35v.24c0,.88.29,1.34,1.17,1.34s1.24-.42,1.24-1.1a1.09,1.09,0,0,0-.83-1.11L349,92.19A2,2,0,0,1,347.37,90c0-1.42,1-2.08,2.57-2.08,1.92,0,2.36,1.12,2.36,2.06v.34Z" fill="#3b4351"/><path d="M353.74,93.83h1.59v1.84h-1.59Z" fill="#3b4351"/></g></g></svg>