<svg xmlns="http://www.w3.org/2000/svg" viewBox="0 0 1847.91 110"><title>bc0750text</title><g id="YEARS"><g id="Right"><path d="M1777.67,83.08h10.92v2.34a32.21,32.21,0,0,0-5.8,15.71h-3.12a31.54,31.54,0,0,1,6.06-15.4h-8.06Z"/><path d="M1790.2,96.16H1793v.49a2.35,2.35,0,0,0,2.42,2.6c2.08,0,2.62-2,2.62-4.18s-.57-3.93-2.47-3.93a2.36,2.36,0,0,0-2.42,1.69l-2.62-.1.91-9.65h8.86v2.37h-6.65l-.6,4.83,0,0a4.09,4.09,0,0,1,3.1-1.42c3.84,0,4.81,3.25,4.81,6.08,0,3.69-1.69,6.5-5.67,6.5-3.3,0-5.15-1.69-5.15-4.94Z"/><path d="M1808.09,82.72c3.53,0,5.51,2.21,5.51,9.38s-2,9.39-5.51,9.39-5.51-2.21-5.51-9.39S1804.55,82.72,1808.09,82.72Zm0,16.69c2,0,2.55-2,2.55-7.31s-.55-7.3-2.55-7.3-2.55,2-2.55,7.3S1806.09,99.41,1808.09,99.41Z"/></g><g id="Layer_34" data-name="Layer 34"><path d="M17.92,86.68H28.84V89a32.18,32.18,0,0,0-5.8,15.7H19.92A31.51,31.51,0,0,1,26,89.33H17.92Z"/><path d="M30.45,99.76h2.81v.49a2.35,2.35,0,0,0,2.42,2.6c2.08,0,2.62-2,2.62-4.18s-.57-3.93-2.47-3.93a2.36,2.36,0,0,0-2.42,1.69l-2.62-.1.91-9.65h8.86V89H33.91l-.6,4.84,0,.05a4.06,4.06,0,0,1,3.1-1.43c3.84,0,4.81,3.25,4.81,6.09,0,3.69-1.69,6.5-5.67,6.5-3.3,0-5.15-1.69-5.15-4.94Z"/><path d="M48.34,86.31c3.53,0,5.51,2.21,5.51,9.39s-2,9.39-5.51,9.39-5.51-2.21-5.51-9.39S44.8,86.31,48.34,86.31Zm0,16.7c2,0,2.55-2,2.55-7.31s-.55-7.31-2.55-7.31-2.55,2-2.55,7.31S46.34,103,48.34,103Z"/></g></g></svg>