<svg xmlns="http://www.w3.org/2000/svg" viewBox="0 0 1847.91 110"><title>bc0750text</title><g id="YEARS"><g id="Right"><path d="M1794.14,81.22h10.92v2.34a32.08,32.08,0,0,0-5.8,15.71h-3.12a31.54,31.54,0,0,1,6.06-15.4h-8.06Z" fill="#3b4351"/><path d="M1806.67,94.3h2.81v.49a2.35,2.35,0,0,0,2.41,2.6c2.09,0,2.63-2,2.63-4.18s-.57-3.93-2.47-3.93a2.36,2.36,0,0,0-2.42,1.69l-2.62-.1.91-9.65h8.86v2.37h-6.65l-.6,4.83,0,0a4.09,4.09,0,0,1,3.09-1.43c3.85,0,4.81,3.25,4.81,6.09,0,3.69-1.69,6.5-5.66,6.5-3.31,0-5.15-1.69-5.15-4.94Z" fill="#3b4351"/><path d="M1824.56,80.86c3.53,0,5.51,2.21,5.51,9.38s-2,9.39-5.51,9.39-5.52-2.21-5.52-9.39S1821,80.86,1824.56,80.86Zm0,16.69c2,0,2.54-2,2.54-7.31s-.54-7.3-2.54-7.3-2.55,2-2.55,7.3S1822.55,97.55,1824.56,97.55Z" fill="#3b4351"/></g><g id="left"><path d="M19.1,83.13H30v2.34a32.18,32.18,0,0,0-5.8,15.7H21.1a31.47,31.47,0,0,1,6.06-15.39H19.1Z" fill="#3b4351"/><path d="M31.63,96.21h2.81v.49a2.35,2.35,0,0,0,2.42,2.6c2.08,0,2.63-2,2.63-4.19s-.58-3.92-2.47-3.92a2.34,2.34,0,0,0-2.42,1.69L32,92.77l.91-9.64h8.87v2.36H35.09l-.6,4.84.06,0A4,4,0,0,1,37.64,89c3.85,0,4.81,3.25,4.81,6.09,0,3.69-1.69,6.5-5.67,6.5-3.3,0-5.15-1.69-5.15-4.94Z" fill="#3b4351"/><path d="M49.52,82.76C53.06,82.76,55,85,55,92.15s-2,9.39-5.51,9.39S44,99.33,44,92.15,46,82.76,49.52,82.76Zm0,16.7c2,0,2.55-2,2.55-7.31s-.55-7.31-2.55-7.31S47,86.82,47,92.15,47.52,99.46,49.52,99.46Z" fill="#3b4351"/></g></g><g id="Nation_OUtlines" data-name="Nation OUtlines"><polygon id="Romans" points="854.62 5164.83 829.93 5051.83 711.95 4942.83 764.62 4828.83 729.95 4713.83 845.28 4602.83 1002.62 4490.83 1065.29 4376.83 1021.28 4265.83 995.34 4148.83 815.28 4040.83 703.28 3929.83 687.28 3814.83 737.95 3700.83 780.62 3588.83 712.62 3477.83 645.95 3363.83 550.62 3250.83 491.95 3141 453.95 3028 455.29 2916 435.95 2801 470.62 2693 322.62 2693 416.12 2580 480.12 2470 410.62 2358 316.95 2244 248.28 2129 210.28 2018 175.95 1907 159.62 1791 91.28 1678 83.12 1573 117.62 1459 151.37 1345 129.62 1235 109.62 1120 99.62 1008 73.12 898 75.42 0 85.95 110 95.28 222 111.95 334 116.62 445 137.95 558 149.95 674 169.95 786 205.28 898 231.95 1008 287.74 1120 467.73 1235 683.72 1345 998.71 1459 1118.7 1573 1131.14 1678 1195.2 1791 1182.62 1907 1245.62 2018 1220.62 2129 1122.62 2244 981.62 2358 880.12 2470 717.95 2580 593.62 2693 616.62 2801 717.28 2916 839.28 3030.84 863.28 3141 915.28 3250.83 810.62 3363.83 885.95 3477.83 1037.95 3588.83 1125.95 3700.83 1253.95 3814.83 1213.95 3929.83 1202.62 4040.83 1169.95 4148.83 1161.29 4265.83 1218.62 4376.83 1131.95 4490.83 936.62 4602.83 798.62 4713.83 819.28 4828.83 759.95 4942.83 849.28 5051.83 854.62 5164.83" fill="none" stroke="#3b4351" stroke-miterlimit="10"/><polygon id="Iranians" points="1263.29 -335.83 1235.95 -450 1211.95 -564.5 1241.29 -674.5 1280.62 -787 1217.95 -901.83 1163.29 -1011.16 1140.62 -1124.5 1175.95 -1235 1153.29 -1349.83 1137.95 -1463.16 1188.62 -1574.5 1153.95 -1687.16 1161.95 -1800 1156.67 -1915.27 1152.84 -2032.5 1131.29 -2139 1198.62 -2249.5 1275.29 -2361.5 1277.29 -2475.16 1268.62 -2584.83 1283.88 -2696.83 1411.11 -2696.83 1445.69 -2585.27 1480.18 -2474.6 1462.18 -2361.5 1438.19 -2249.5 1387.19 -2139 1387.19 -2027 1420.19 -1912.07 1429.19 -1800 1400.69 -1687.08 1417.19 -1574 1343.69 -1463 1325.69 -1349 1345.19 -1235 1313.69 -1123 1298.69 -1011 1310.69 -901 1348.19 -787 1313.69 -674 1285.19 -563 1294.19 -450 1372.19 -335.83 1373.74 -227.27 1375.34 -115.27 1376.98 0 1335.62 110 1348.62 222 1391.1 334 1462.62 445 1440.62 557.73 1447.62 674 1472.62 786 1505.62 897.73 1513.62 1007.73 1437.62 1119.73 1391.82 1234.73 1219.62 1120 1086.62 1008 890.71 897.73 788.62 786 767.62 674 866.62 558 1041.62 444.73 1176.62 333.73 1205.62 221.73 1242.62 109.73 1294.62 0 1322.62 -112.83 1240.62 -227 1263.29 -335.83" fill="none" stroke="#3b4351" stroke-miterlimit="10"/><polygon id="Indians" points="1372.19 -335.83 1294.19 -450 1285.19 -563 1313.69 -674 1348.19 -787 1310.69 -901 1298.69 -1011 1313.69 -1123 1345.19 -1235 1325.69 -1349 1343.69 -1463 1417.19 -1574 1400.69 -1687.08 1429.19 -1800 1419.27 -1915.27 1387.19 -2027 1387.19 -2139 1438.19 -2249.5 1462.18 -2361.5 1480.18 -2474.54 1445.82 -2584.83 1411.11 -2696.83 1545.86 -2696.83 1580.1 -2584.83 1593.12 -2474.6 1552.12 -2361.5 1514.62 -2249.5 1514.12 -2139.33 1553.12 -2027.27 1548.12 -1915 1519.62 -1800 1534.12 -1686.33 1575.12 -1574 1559.62 -1463 1564.12 -1349.27 1534.62 -1235 1486.12 -1123 1465.12 -1011 1471.12 -901.83 1502.12 -787.83 1508.12 -674 1534.62 -563 1542.77 -484.14 1555.62 -335.83 1554.62 -227 1567.12 -115 1542.12 -0.27 1498.12 110 1490.62 222 1513.12 334 1568.62 445 1544.12 558 1530.62 673.73 1523.62 785.73 1532.62 898 1565.12 1008 1543.62 1120 1514.12 1235 1490.12 1344.73 1495.62 1459 1517.12 1572.67 1528.12 1678 1580.62 1790.67 1578.12 1906.67 1578.12 2017.17 1560.12 2128.73 1526.62 2244 1467.62 2358 1381.62 2469.73 1270.62 2580 1090.12 2692.73 860.62 2801 1302.12 2916 1377.03 3028 1550.62 3141 1519.62 3250.83 1476.12 3363.83 1516.13 3477.83 1534.62 3590.17 1552.65 3700.83 1585.62 3814.73 1620.12 3929.83 1650.12 4040.83 1630.62 4148.73 1622.45 4265.73 1565.62 4376.83 1402.62 4490.17 1173.62 4602.83 1148.62 4713.83 1334.62 4828.83 1283.62 4942.83 1344.62 5051.83 1544.62 5164.83 1602.62 5279.17 1627.62 5390.83 1674.62 5503.73 1627.62 5618.83 1634.62 5730.83 1686.62 5842.83 1701.62 5955.83 1620.12 6067.83 1606.12 6178.83 1606.12 6292.66 1552.62 6292.66 1549.52 6178.83 1569.62 6067.83 1683.62 5955.83 1667.62 5842.83 1607.62 5730.83 1596.62 5618.17 1617.62 5503.83 1584.62 5390.83 1562.62 5278.83 1507.62 5164.83 1304.62 5051.73 1225.62 4942.73 1236.97 4905.78 1264.87 4828.83 1082.62 4713.83 1084.2 4603.34 1323.62 4490.83 1500.47 4376.73 1573.62 4265.83 1600.62 4148.83 1604.62 4040.83 1569.62 3929.83 1514.62 3814.83 1447.62 3700.73 1418.62 3588.83 1404.62 3477.83 1367.62 3363.83 1397.62 3250.83 1418.62 3140.73 1339.62 3027.73 1246.62 2916 748.62 2801 753.62 2693 910.76 2580 1053.62 2470 1195.2 2358 1311.62 2243.17 1353.62 2129 1348.62 2018 1364.62 1906.17 1406.62 1791 1401.62 1678 1429.62 1573 1394.62 1458.73 1393.2 1345 1391.82 1234.73 1437.52 1120 1513.62 1007.73 1505.64 898 1472.62 786.17 1447.62 674 1440.63 558 1462.62 445 1391.1 334 1348.62 222 1332.62 110 1376.98 0 1375.34 -115.27 1373.74 -227.27 1372.19 -335.83" fill="none" stroke="#3b4351" stroke-miterlimit="10"/><polygon id="Huns" points="1555.62 -335.83 1545.73 -450 1533.62 -563.33 1506.68 -673.36 1502.16 -787 1471.34 -901 1465.12 -1011 1486.12 -1123 1534.62 -1235 1564.05 -1349 1559.62 -1463 1575.12 -1574 1534.24 -1686 1519.62 -1800 1548.12 -1915 1553.11 -2027 1514.47 -2139.27 1514.62 -2251.5 1552.12 -2361.5 1593.12 -2474.16 1580.1 -2584.83 1545.86 -2696.83 1633.99 -2696.83 1651.62 -2584.83 1667.62 -2474.16 1646.62 -2361.5 1620.62 -2249.5 1630.4 -2141.4 1650.62 -2027.33 1676.62 -1915 1700.12 -1800 1689.12 -1686 1714.62 -1574.33 1697.12 -1463.27 1645.62 -1349.27 1616.12 -1235 1586.62 -1123.27 1538.12 -1011.27 1509.12 -901 1551.62 -787 1585.12 -674 1608.62 -563.33 1609.69 -450.27 1610.76 -337.27 1613.62 -227.27 1625.12 -115.27 1599.12 0.67 1557.59 110 1545.65 222 1558.62 334 1584.62 444.73 1571.12 558.17 1576.62 674 1567.62 786 1587.12 898 1621.12 1008 1612.12 1120 1556.12 1235 1528.62 1345 1529.62 1459 1553.62 1573 1616.07 1678 1609.25 1791 1592.66 1907 1611.01 2017.73 1612.12 2129 1598.04 2244 1564.12 2358 1534.29 2470 1602.12 2579.73 1653.62 2693 1673.62 2801 1666.12 2916 1668.12 3027.67 1625.62 3140.67 1542.12 3250.83 1476.12 3363.83 1519.62 3250.83 1550.62 3141 1376.62 3027.73 1302.12 2916 860.62 2801 1090.12 2692.73 1270.62 2580 1381.62 2469.73 1467.62 2358 1526.62 2244 1560.12 2128.73 1578.12 2017.17 1578.12 1906.67 1580.62 1790.67 1528.12 1678 1517.12 1572.67 1495.62 1459 1490.12 1344.73 1514.12 1235 1543.62 1120 1565.12 1008 1532.62 898 1523.62 785.73 1530.62 673.73 1544.12 558 1568.62 445 1513.12 334 1490.62 222 1498.12 110 1542.12 -0.27 1567.12 -115 1554.62 -227 1555.62 -335.83" fill="none" stroke="#3b4351" stroke-miterlimit="10"/><polygon id="Greeks" points="1131.14 1678 1118.7 1573 998.71 1459 683.72 1345 467.73 1235 287.74 1120 231.95 1008 205.28 898 169.95 786 149.95 674 137.95 558 116.62 445 111.95 334 95.28 222 85.95 110 75.42 0 75.42 -173.33 75.42 -1463 142.25 -1349 145.25 -1235 155.75 -1123 172.25 -1011 202.25 -901 223.25 -787 251.62 -674 250.62 -563 221.95 -449.16 228.6 -337.27 199.95 -227.16 217.95 -115.16 237.43 0 262.62 110 259.95 222 319.29 334 349.95 445 401.29 558 527.28 674 645.95 786 761.95 898 965.29 1008 965.95 1120 897.95 1234.17 910.76 1344.73 1099.37 1459 1168.66 1573.09 1131.14 1678" fill="none" stroke="#3b4351" stroke-miterlimit="10"/><polygon id="Egyptians" points="1195.2 1788.31 1131.14 1678 1168.66 1573.09 1099.2 1458.73 910.76 1344.73 897.95 1234.17 965.95 1120 965.28 1007.5 761.95 898 645.95 786 527.28 674 401.29 558 349.95 445 319.29 334 259.95 222 262.62 110 238.62 0 217.95 -115 199.95 -227 228.62 -337 221.62 -450 250.62 -563 251.62 -674 223.25 -787 271.57 -901 265.25 -1011 305.74 -1123 341.74 -1235 376.24 -1349 440.74 -1463 467.73 -1573.09 443.74 -1686 381.96 -1800 242.75 -1915 298.62 -2027 424.24 -2139 460.24 -2249.5 397.24 -2361.5 319.24 -2474.16 319.24 -2584.83 298.62 -2696.83 1103.77 -2696.83 1042.62 -2584.83 982.62 -2474.16 940.62 -2361.5 786.62 -2249.5 663.62 -2139 633.62 -2027 662.62 -1915 656.62 -1800.08 733.62 -1686.27 800.62 -1574.83 770.62 -1463 750.62 -1349 785.62 -1235 835.62 -1123 742.62 -1011 658.62 -901 439.62 -787 400.62 -674 361.62 -563 302.62 -450 310.62 -337 282.62 -227 271.95 -115 305.95 110 323.95 221.5 432.62 334 476.62 444.17 451.95 558 555.95 674 667.28 786 813.28 898 968.62 1008 995.95 1120 968.62 1234.84 940.62 1343.5 1130.91 1458.73 1189.62 1573.67 1157.7 1678 1195.2 1788.31" fill="none" stroke="#3b4351" stroke-miterlimit="10"/><polygon id="Chinese" points="1610.76 -337.27 1609.69 -450.27 1608.62 -563.33 1585.12 -674 1551.62 -787 1509.12 -901 1538.12 -1011.27 1586.62 -1123.27 1616.12 -1235 1645.62 -1349.27 1697.12 -1463.27 1714.62 -1574.33 1689.12 -1686 1700.12 -1800 1676.62 -1915 1650.62 -2027.33 1630.62 -2139 1620.62 -2249.5 1646.62 -2361.5 1667.62 -2474.16 1651.62 -2584.83 1633.99 -2696.83 1768.79 -2696.83 1768.79 5503.83 1768.79 5618.73 1766.12 5730.83 1757.62 5842.83 1736.12 5955.73 1676.12 6067.73 1661.12 6178.83 1663.62 6292.66 1606.12 6292.66 1606.12 6178.73 1620.12 6067.83 1701.62 5955.83 1696.12 5842.67 1654.12 5730.83 1681.62 5618.83 1739.62 5503.73 1748.62 5390.67 1744.12 5278.67 1685.62 5164.83 1615.12 5054.17 1636.12 4942.83 1738.62 4828.83 1761.12 4713.83 1758.62 4602.83 1732.12 4490.83 1695.62 4376.83 1667.62 4265.83 1651.12 4148.83 1650.12 4040.83 1620.12 3929.83 1585.62 3814.73 1552.62 3700.73 1535.12 3588.83 1516.12 3477.73 1476.12 3363.83 1542.12 3250.83 1625.62 3140.67 1668.12 3027.67 1666.12 2916 1673.62 2801 1653.62 2693 1602.12 2579.73 1534.12 2469.73 1564.12 2358 1598.12 2243.73 1612.12 2129 1611.01 2017.73 1592.62 1906.73 1609.25 1791 1616.07 1678 1553.62 1573 1529.62 1459 1528.62 1344.73 1555.62 1235 1612.12 1120 1621.12 1008 1587.12 898 1567.62 786 1576.62 674 1571.12 558 1584.62 444.73 1558.62 334 1545.62 221.73 1557.62 109.73 1599.62 0 1625.12 -115.27 1613.62 -227.27 1610.76 -337.27" fill="none" stroke="#3b4351" stroke-miterlimit="10"/><polygon id="Amorites" points="1263.29 -335.83 1240.62 -227 1322.62 -115 1294.62 0 1242.62 109.73 1205.62 221.73 1176.62 333.73 1041.62 444.73 866.62 558 767.62 674 788.62 786 890.71 897.73 762.62 785.73 716.62 673.73 709.62 558 755.62 445 1054.29 333.73 1156.62 222 1173.62 108.17 1199.62 -1.83 1138.62 -115 910.76 -227 832.62 -337.27 949.95 -450 1040.62 -563.27 1141.31 -674 1225.29 -787.16 1147.62 -901 1085.29 -1011 1061.29 -1123.27 1028.62 -1235.27 971.95 -1349.16 961.95 -1463.83 992.62 -1574 910.76 -1686.27 853.28 -1800 826.62 -1915 785.95 -2027 823.95 -2139 910.76 -2249.5 1027.29 -2361.5 1025.29 -2474.16 1091.29 -2584.83 1152.07 -2696.83 1283.88 -2696.83 1268.62 -2584.83 1277.29 -2475.16 1275.29 -2361.5 1198.62 -2249.5 1131.29 -2139 1153.95 -2027 1156.67 -1915.27 1161.95 -1800 1153.95 -1687.16 1188.62 -1574.5 1137.95 -1463.16 1153.29 -1349.83 1175.95 -1235 1140.62 -1124.5 1163.29 -1011.16 1217.95 -901.83 1280.62 -787 1241.29 -674.5 1211.95 -564.5 1235.95 -450 1263.29 -335.83" fill="none" stroke="#3b4351" stroke-miterlimit="10"/><polygon id="Assyrian_Kingdom" data-name="Assyrian Kingdom" points="631.95 -337.27 635.28 -450 679.9 -563 701.28 -674 799.28 -787 980.62 -901 1007.95 -1011 1020.62 -1123 998.62 -1235 971.95 -1349.16 1028.62 -1235.27 1061.29 -1123.27 1085.29 -1011 1147.62 -901 1225.29 -787.16 1141.31 -674 1040.62 -563.27 949.95 -450 832.62 -337.27 910.76 -227 1138.62 -115 1199.62 -1.83 1173.62 108.17 1156.62 222 1054.29 333.73 755.62 445 709.62 558 716.62 673.73 658.28 558 654.62 445 630.95 334 510.62 222 518.62 110 595.95 0 638.62 -115 643.28 -227 631.95 -337.27" fill="none" stroke="#3b4351" stroke-miterlimit="10"/><polygon id="OPians" points="305.95 110 289.61 1.83 271.95 -115 282.62 -227 310.62 -337 302.62 -450 361.62 -563 337.24 -450 347.74 -337.27 359.29 -115 383.29 0 387.95 110 375.82 222 465.29 334 476.62 444.17 432.62 334 323.95 221.5 305.95 110" fill="none" stroke="#3b4351" stroke-miterlimit="10"/><polygon id="Hebrews" points="635.28 -450 631.95 -337.27 643.28 -227 638.62 -115 595.95 0 518.62 110 510.62 222 630.95 334 654.62 445 658.28 558 716.62 673.73 647.18 558 644.62 445 617.95 334 493.29 222 500.03 110 570.62 0 613.28 -114 583.28 -227 569.28 -337 511.95 -450 573.95 -563 630.62 -674 697.58 -787 921.28 -901 989.95 -1011 1020.62 -1123 1007.95 -1011 980.62 -901 799.28 -787 701.28 -674 679.9 -563 635.28 -450" fill="none" stroke="#3b4351" stroke-miterlimit="10"/><polygon id="Syrians" points="500.03 110 493.29 222 439.95 110 428.62 0 479.29 -115 509.95 -227 538.62 -337 511.95 -450 569.28 -337 583.28 -227 613.28 -114 570.62 0 500.03 110" fill="none" stroke="#3b4351" stroke-miterlimit="10"/><polygon points="1130.91 1458.73 940.62 1343.5 968.62 1234.84 995.95 1120 968.62 1008 813.28 898 667.28 786 624.62 674 611.95 558 608.62 445 523.28 334 375.82 222 387.95 110 383.29 0 359.29 -115 340.62 -225.84 347.74 -337.27 394.24 -450 481.23 -563 566.62 -674 623.95 -787 857.28 -901 954.62 -1013.16 975.28 -1123.16 969.28 -1235 971.95 -1349.16 998.62 -1235 1020.62 -1123 989.95 -1011 921.28 -901 697.58 -787 630.62 -674 573.95 -563 511.95 -450 538.62 -337 509.95 -227 479.29 -115 428.62 0 439.95 110 493.29 222 617.95 334 644.62 445 647.18 558 716.62 673.73 762.62 785.73 890.71 897.73 1086.62 1008 1219.62 1120 1225.12 1235 1186.62 1345 1130.91 1458.73" fill="none" stroke="#3b4351" stroke-miterlimit="10"/></g><g id="Text"><g id="Greeks-2" data-name="Greeks"><path d="M241,12.38v.26c0,1.21.55,1.83,1.64,1.83A1.44,1.44,0,0,0,244.15,13a1.68,1.68,0,0,0-1.43-1.78l-1.09-.37a2.68,2.68,0,0,1-2.09-2.75c0-1.82,1.25-2.83,3.11-2.83,2.57,0,2.83,1.6,2.83,2.64v.22h-1.59V7.93c0-.91-.4-1.44-1.4-1.44a1.27,1.27,0,0,0-1.35,1.44c0,.85.44,1.29,1.5,1.69l1.08.4a2.54,2.54,0,0,1,2,2.64c0,2.13-1.29,3-3.31,3a2.75,2.75,0,0,1-3-3.06v-.24Z" fill="#3b4351"/><path d="M246.94,5.48h1.51V8.76l0,0a2.15,2.15,0,0,1,1.85-1c1.15,0,1.88.52,1.88,2v5.69H250.7V10.31c0-1-.28-1.36-1-1.36-.61,0-1.2.48-1.2,1.47v5.06h-1.51Z" fill="#3b4351"/><path d="M255,11.91v.43c0,1,.13,2.3,1.26,2.3s1.21-1.22,1.21-1.68h1.43a2.48,2.48,0,0,1-2.65,2.72c-1.23,0-2.76-.37-2.76-3.86,0-2,.43-4.07,2.79-4.07,2.1,0,2.66,1.27,2.66,3.36v.8Zm2.43-1v-.41c0-1-.31-1.68-1.17-1.68s-1.26,1-1.26,1.94v.15Z" fill="#3b4351"/><path d="M263.4,10.14V10c0-.61-.21-1.17-1-1.17-.6,0-1.08.27-1.08,1s.27.83,1.06,1.11l1,.34A2,2,0,0,1,265,13.38c0,1.61-1.19,2.3-2.7,2.3-1.91,0-2.48-.89-2.48-2.34v-.28h1.34v.23c0,.89.3,1.35,1.18,1.35s1.23-.42,1.23-1.11a1.09,1.09,0,0,0-.83-1.1L261.51,12a2,2,0,0,1-1.61-2.17c0-1.41,1-2.07,2.58-2.07,1.92,0,2.35,1.12,2.35,2.06v.33Z" fill="#3b4351"/><path d="M266.12,5.48h1.51V8.76l0,0a2.15,2.15,0,0,1,1.85-1c1.15,0,1.88.52,1.88,2v5.69h-1.52V10.31c0-1-.28-1.36-1.05-1.36-.61,0-1.2.48-1.2,1.47v5.06h-1.51Z" fill="#3b4351"/><path d="M272.56,11.71c0-2.35.61-4,2.8-4s2.81,1.61,2.81,4-.73,4-2.81,4S272.56,14.06,272.56,11.71Zm2.8,2.84c1.1,0,1.3-.92,1.3-2.84,0-1.67-.2-2.84-1.3-2.84s-1.29,1.17-1.29,2.84C274.07,13.63,274.28,14.55,275.36,14.55Z" fill="#3b4351"/><path d="M279.33,7.94h1.43v.89h0a2.16,2.16,0,0,1,1.94-1.08c1.14,0,1.87.52,1.87,2v5.69H283.1V10.31c0-1-.27-1.36-1.05-1.36-.62,0-1.2.46-1.2,1.47v5.06h-1.52Z" fill="#3b4351"/><path d="M286.07,5.48h1.51v5.61h0l2.28-3.15h1.75l-2.27,2.91,2.57,4.64h-1.66l-1.85-3.43-.85,1v2.4h-1.51Z" fill="#3b4351"/><path d="M295.94,5.48h1.59v10h-1.59Z" fill="#3b4351"/><path d="M299,5.48h1.6v10H299Z" fill="#3b4351"/><path d="M302.15,5.48h1.6v10h-1.6Z" fill="#3b4351"/><path d="M305.39,13.63H307v1.85h-1.59Z" fill="#3b4351"/><path d="M244.84,24.48h1.61l1.32,7.77h0l1.32-7.77h1.68l1.34,7.81h0l1.3-7.81h1.58l-2,10h-1.85l-1.29-7.54h0l-1.28,7.54h-1.84Z" fill="#3b4351"/><path d="M255.31,30.71c0-2.35.62-4,2.81-4s2.81,1.61,2.81,4-.73,4-2.81,4S255.31,33.06,255.31,30.71Zm2.81,2.84c1.1,0,1.3-.92,1.3-2.84,0-1.67-.2-2.84-1.3-2.84s-1.29,1.17-1.29,2.84C256.83,32.63,257,33.55,258.12,33.55Z" fill="#3b4351"/><path d="M262.09,26.94h1.51v1.18h0a1.87,1.87,0,0,1,1.75-1.37.94.94,0,0,1,.37.05v1.54a2.24,2.24,0,0,0-.63-.08c-.69,0-1.52.31-1.52,1.71v4.51h-1.51Z" fill="#3b4351"/><path d="M269.75,29.14V29c0-.61-.21-1.17-1-1.17-.61,0-1.08.27-1.08,1s.26.83,1.06,1.11l1,.34a2,2,0,0,1,1.64,2.17c0,1.61-1.19,2.3-2.71,2.3-1.9,0-2.48-.89-2.48-2.34v-.28h1.35v.23c0,.89.29,1.35,1.18,1.35s1.23-.42,1.23-1.11a1.09,1.09,0,0,0-.83-1.1L267.86,31a2,2,0,0,1-1.61-2.17c0-1.41,1-2.07,2.58-2.07,1.92,0,2.35,1.12,2.35,2.06v.33Z" fill="#3b4351"/><path d="M272.46,24.48H274v3.28l0,0a2.13,2.13,0,0,1,1.85-1c1.15,0,1.88.52,1.88,2v5.69h-1.52V29.31c0-1-.28-1.36-1.05-1.36-.61,0-1.2.48-1.2,1.47v5.06h-1.52Z" fill="#3b4351"/><path d="M279.27,24.37h1.51v1.51h-1.51Zm0,2.57h1.51v7.54h-1.51Z" fill="#3b4351"/><path d="M285.56,34.68a1.74,1.74,0,0,1-1.71-1.08h0v3.34h-1.51v-10h1.43v.93h0a1.79,1.79,0,0,1,1.7-1.12c1.72,0,2.42,1.47,2.42,4.06C287.88,34,286.61,34.68,285.56,34.68ZM285,28c-1,0-1.27,1.05-1.27,2.68,0,1.8.22,2.84,1.28,2.84.86,0,1.26-.64,1.26-2.73C286.28,29,286.07,28,285,28Z" fill="#3b4351"/><path d="M292.11,30.71c0-2.35.61-4,2.8-4s2.81,1.61,2.81,4-.73,4-2.81,4S292.11,33.06,292.11,30.71Zm2.8,2.84c1.1,0,1.3-.92,1.3-2.84,0-1.67-.2-2.84-1.3-2.84s-1.29,1.17-1.29,2.84C293.62,32.63,293.83,33.55,294.91,33.55Z" fill="#3b4351"/><path d="M299.34,28.06h-1V26.94h1v-.7c0-1.41.69-1.87,1.92-1.87a6.47,6.47,0,0,1,.83,0v1.16h-.42c-.56,0-.81.21-.81.71v.66h1.23v1.12h-1.23v6.42h-1.52Z" fill="#3b4351"/><path d="M247.33,49.89v.21c0,1.81-.74,3.58-3.08,3.58-2.52,0-3.31-1.63-3.31-5.2s.79-5.2,3.32-5.2c2.85,0,3,2.09,3,3.14v.18h-1.6v-.17c0-.94-.28-2-1.43-1.94s-1.71.72-1.71,3.95.52,4,1.71,4c1.34,0,1.48-1.47,1.48-2.41v-.17Z" fill="#3b4351"/><path d="M253.29,51.91c0,.28.17.53.4.53a.57.57,0,0,0,.25,0v1a1.58,1.58,0,0,1-.74.18c-.68,0-1.24-.26-1.28-1h0A1.94,1.94,0,0,1,250,53.68c-1.22,0-2-.66-2-2.12a2.08,2.08,0,0,1,1.75-2.37l1.17-.32c.55-.15.89-.31.89-1s-.24-1.12-1-1.12c-1,0-1.15.72-1.15,1.45h-1.43c0-1.61.66-2.48,2.65-2.48,1.33,0,2.39.52,2.39,1.85Zm-1.42-2.41a11.23,11.23,0,0,1-1.68.7,1.23,1.23,0,0,0-.62,1.22c0,.63.31,1.13.94,1.13.91,0,1.36-.67,1.36-1.79Z" fill="#3b4351"/><path d="M254.16,45.94h1V43.8h1.51v2.14h1.23v1.12h-1.23v4.5c0,.6.17.8.69.8a3.74,3.74,0,0,0,.54,0v1.12a5.17,5.17,0,0,1-1.22.12c-1,0-1.52-.29-1.52-1.82V47.06h-1Z" fill="#3b4351"/><path d="M263.6,54.12a1,1,0,0,0,1.09.9A1.25,1.25,0,0,0,266,53.6V52.39h0a1.83,1.83,0,0,1-1.71,1c-1.75,0-2.26-1.72-2.26-3.79,0-1.66.25-3.88,2.4-3.88A1.66,1.66,0,0,1,266,46.87h0v-.93h1.43v7.17c0,1.84-.79,3-2.82,3-2.24,0-2.49-1.32-2.49-1.94Zm1.06-1.9c1.18,0,1.3-1.49,1.3-2.68s-.15-2.59-1.2-2.59-1.28,1.12-1.28,2.52S263.54,52.22,264.66,52.22Z" fill="#3b4351"/><path d="M268.52,49.71c0-2.35.62-4,2.81-4s2.81,1.61,2.81,4-.73,4-2.81,4S268.52,52.06,268.52,49.71Zm2.81,2.84c1.1,0,1.3-.92,1.3-2.84,0-1.67-.2-2.84-1.3-2.84S270,48,270,49.71C270,51.63,270.25,52.55,271.33,52.55Z" fill="#3b4351"/><path d="M279.15,52.55h0a1.61,1.61,0,0,1-1.65,1.13c-1.75,0-2.46-1.49-2.46-4.07,0-3.34,1.17-3.86,2.32-3.86A1.73,1.73,0,0,1,279,46.83h0V43.48h1.51v10h-1.43ZM277.78,47c-.85,0-1.18.7-1.18,2.73,0,1.71.21,2.79,1.28,2.79s1.27-1,1.27-2.68C279.15,48,279,47,277.78,47Z" fill="#3b4351"/><path d="M285.89,52.55h0a1.62,1.62,0,0,1-1.66,1.13c-1.75,0-2.46-1.49-2.46-4.07,0-3.34,1.18-3.86,2.32-3.86a1.73,1.73,0,0,1,1.71,1.08h0V43.48h1.51v10h-1.42ZM284.51,47c-.85,0-1.17.7-1.17,2.73,0,1.71.21,2.79,1.27,2.79s1.28-1,1.28-2.68C285.89,48,285.69,47,284.51,47Z" fill="#3b4351"/><path d="M290.07,49.91v.43c0,1,.13,2.3,1.26,2.3s1.21-1.22,1.21-1.68H294a2.48,2.48,0,0,1-2.64,2.72c-1.24,0-2.76-.37-2.76-3.86,0-2,.43-4.07,2.79-4.07,2.1,0,2.66,1.27,2.66,3.36v.8Zm2.42-1v-.41c0-1-.3-1.68-1.16-1.68s-1.26,1-1.26,1.94v.15Z" fill="#3b4351"/><path d="M298.5,48.14V48c0-.61-.21-1.17-1-1.17-.6,0-1.07.27-1.07,1s.26.83,1.06,1.11l1,.34a2,2,0,0,1,1.64,2.17c0,1.61-1.19,2.3-2.71,2.3-1.9,0-2.48-.89-2.48-2.34v-.28h1.35v.23c0,.89.29,1.35,1.17,1.35s1.24-.42,1.24-1.11a1.09,1.09,0,0,0-.83-1.1L296.61,50A2,2,0,0,1,295,47.82c0-1.41,1-2.07,2.58-2.07,1.91,0,2.35,1.12,2.35,2.06v.33Z" fill="#3b4351"/><path d="M304.46,48.14V48c0-.61-.21-1.17-1-1.17-.6,0-1.08.27-1.08,1s.27.83,1.06,1.11l1,.34a2,2,0,0,1,1.64,2.17c0,1.61-1.19,2.3-2.7,2.3-1.91,0-2.48-.89-2.48-2.34v-.28h1.34v.23c0,.89.3,1.35,1.18,1.35s1.23-.42,1.23-1.11a1.09,1.09,0,0,0-.82-1.1L302.57,50A2,2,0,0,1,301,47.82c0-1.41,1-2.07,2.58-2.07,1.92,0,2.35,1.12,2.35,2.06v.33Z" fill="#3b4351"/><path d="M258.87,70.91c0,.28.17.53.39.53a.57.57,0,0,0,.25,0v1a1.58,1.58,0,0,1-.74.18c-.67,0-1.23-.26-1.28-1h0a2,2,0,0,1-1.88,1.11c-1.22,0-2-.66-2-2.12a2.08,2.08,0,0,1,1.75-2.37l1.18-.32c.54-.15.88-.31.88-1s-.24-1.12-1-1.12c-1,0-1.15.72-1.15,1.45h-1.43c0-1.61.66-2.48,2.65-2.48,1.33,0,2.4.52,2.4,1.85Zm-1.43-2.41a11.23,11.23,0,0,1-1.68.7,1.23,1.23,0,0,0-.62,1.22c0,.63.31,1.13.94,1.13.91,0,1.36-.67,1.36-1.79Z" fill="#3b4351"/><path d="M260.4,64.94h1.43v.89h0a2.16,2.16,0,0,1,1.94-1.08c1.15,0,1.87.52,1.87,2v5.69h-1.51V67.31c0-1-.26-1.36-1.05-1.36-.61,0-1.2.46-1.2,1.47v5.06H260.4Z" fill="#3b4351"/><path d="M271,71.55h0a1.61,1.61,0,0,1-1.65,1.13c-1.75,0-2.47-1.49-2.47-4.07,0-3.34,1.18-3.86,2.33-3.86a1.73,1.73,0,0,1,1.71,1.08h0V62.48h1.51v10H271ZM269.62,66c-.86,0-1.18.7-1.18,2.73,0,1.71.21,2.79,1.28,2.79s1.27-1,1.27-2.68C271,67,270.79,66,269.62,66Z" fill="#3b4351"/><path d="M276.56,64.94h1V62.8h1.51v2.14h1.23v1.12h-1.23v4.5c0,.6.17.8.69.8a3.74,3.74,0,0,0,.54,0v1.12a5.17,5.17,0,0,1-1.22.12c-1,0-1.52-.29-1.52-1.82V66.06h-1Z" fill="#3b4351"/><path d="M281.12,62.48h1.52v3.28l0,0a2.13,2.13,0,0,1,1.85-1c1.15,0,1.87.52,1.87,2v5.69h-1.51V67.31c0-1-.28-1.36-1.05-1.36-.61,0-1.2.48-1.2,1.47v5.06h-1.52Z" fill="#3b4351"/><path d="M289.16,68.91v.43c0,1,.13,2.3,1.26,2.3s1.21-1.22,1.21-1.68h1.42a2.48,2.48,0,0,1-2.64,2.72c-1.24,0-2.76-.37-2.76-3.86,0-2,.43-4.07,2.78-4.07,2.11,0,2.67,1.27,2.67,3.36v.8Zm2.42-1v-.41c0-.95-.3-1.68-1.16-1.68s-1.26,1-1.26,1.94v.15Z" fill="#3b4351"/><path d="M251,81.48h2l2.63,10H254L253.39,89h-2.93l-.65,2.45h-1.66Zm2.13,6.27L252,82.82h0l-1.19,4.93Z" fill="#3b4351"/><path d="M259.52,91.68a1.74,1.74,0,0,1-1.71-1.08h0v3.34h-1.51v-10h1.43v.93h0a1.79,1.79,0,0,1,1.7-1.12c1.72,0,2.42,1.47,2.42,4.06C261.84,91,260.57,91.68,259.52,91.68ZM259,85c-1,0-1.27,1-1.27,2.68,0,1.8.22,2.84,1.28,2.84.86,0,1.27-.64,1.27-2.73C260.25,86,260,85,259,85Z" fill="#3b4351"/><path d="M263.07,81.37h1.51v1.51h-1.51Zm0,2.57h1.51v7.54h-1.51Z" fill="#3b4351"/><path d="M269.36,86.14V86c0-.61-.21-1.17-1-1.17-.6,0-1.07.27-1.07,1s.26.83,1.06,1.11l1,.34A2,2,0,0,1,271,89.38c0,1.61-1.19,2.3-2.71,2.3-1.9,0-2.48-.89-2.48-2.34v-.28h1.35v.23c0,.89.29,1.35,1.17,1.35s1.24-.42,1.24-1.11a1.09,1.09,0,0,0-.83-1.1L267.47,88a2,2,0,0,1-1.61-2.17c0-1.41,1-2.07,2.57-2.07,1.92,0,2.36,1.12,2.36,2.06v.33Z" fill="#3b4351"/><path d="M275.53,81.48h3.24c1.5,0,2.69.67,2.69,2.42A2.1,2.1,0,0,1,280,86.17v0c1.09.19,1.79.85,1.79,2.55s-1.21,2.73-3.08,2.73h-3.17Zm2.86,4.21a1.4,1.4,0,0,0,1.47-1.58c0-1.19-.72-1.43-1.61-1.43h-1.12v3Zm.32,4.58c1,0,1.47-.6,1.47-1.76a1.52,1.52,0,0,0-1.57-1.7h-1.48v3.46Z" fill="#3b4351"/><path d="M286.8,90.6h0a2.17,2.17,0,0,1-1.93,1.08c-1.12,0-1.88-.52-1.88-2.47V83.94h1.51v5.41c0,.84.37,1.12,1,1.12a1.18,1.18,0,0,0,1.23-1.26V83.94h1.51v7.54H286.8Z" fill="#3b4351"/><path d="M289.75,81.48h1.52v10h-1.52Z" fill="#3b4351"/><path d="M292.86,81.48h1.51v10h-1.51Z" fill="#3b4351"/><path d="M296.05,89.63h1.6v1.85h-1.6Z" fill="#3b4351"/></g></g></svg>