<svg xmlns="http://www.w3.org/2000/svg" viewBox="0 0 1847.91 115"><title>bc0800text</title><g id="YEARS"><g id="Right"><path d="M1788.75,104.31c0-2.73,1.3-4.21,3.14-4.6v0c-1.58-.55-2.54-1.77-2.54-4,0-2.89,1.87-4.63,5-4.63s5,1.74,5,4.63c0,2.21-1,3.43-2.55,4v0c1.85.39,3.15,1.87,3.15,4.6,0,3.64-1.8,5.51-5.57,5.51S1788.75,108,1788.75,104.31Zm5.56,3.43c2.08,0,2.6-1.53,2.6-3.48s-.52-3.49-2.6-3.49-2.6,1.54-2.6,3.49S1792.23,107.74,1794.31,107.74Zm0-9c1.85,0,2.32-1.35,2.32-2.8s-.47-2.76-2.32-2.76-2.31,1.3-2.31,2.76S1792.47,98.69,1794.31,98.69Z" fill="#3b4351"/><path d="M1806.79,91.05c3.54,0,5.51,2.21,5.51,9.39s-2,9.38-5.51,9.38-5.51-2.21-5.51-9.38S1803.26,91.05,1806.79,91.05Zm0,16.69c2,0,2.55-2,2.55-7.3s-.55-7.31-2.55-7.31-2.55,2-2.55,7.31S1804.79,107.74,1806.79,107.74Z" fill="#3b4351"/><path d="M1819.27,91.05c3.54,0,5.51,2.21,5.51,9.39s-2,9.38-5.51,9.38-5.51-2.21-5.51-9.38S1815.73,91.05,1819.27,91.05Zm0,16.69c2,0,2.55-2,2.55-7.3s-.55-7.31-2.55-7.31-2.55,2-2.55,7.31S1817.27,107.74,1819.27,107.74Z" fill="#3b4351"/></g><g id="left"><path d="M19,107.91c0-2.73,1.3-4.21,3.14-4.6v0c-1.58-.55-2.54-1.77-2.54-4,0-2.89,1.87-4.63,5-4.63s5,1.74,5,4.63c0,2.21-1,3.43-2.55,4v0c1.85.39,3.15,1.87,3.15,4.6,0,3.64-1.8,5.51-5.57,5.51S19,111.55,19,107.91Zm5.56,3.43c2.08,0,2.6-1.53,2.6-3.48s-.52-3.49-2.6-3.49-2.6,1.54-2.6,3.49S22.48,111.34,24.56,111.34Zm0-9c1.85,0,2.32-1.35,2.32-2.8s-.47-2.76-2.32-2.76-2.31,1.3-2.31,2.76S22.72,102.29,24.56,102.29Z" fill="#3b4351"/><path d="M37,94.65c3.54,0,5.51,2.21,5.51,9.39s-2,9.38-5.51,9.38-5.51-2.21-5.51-9.38S33.51,94.65,37,94.65Zm0,16.69c2,0,2.55-2,2.55-7.3S39,96.73,37,96.73s-2.55,2-2.55,7.31S35,111.34,37,111.34Z" fill="#3b4351"/><path d="M49.52,94.65c3.54,0,5.51,2.21,5.51,9.39s-2,9.38-5.51,9.38S44,111.21,44,104,46,94.65,49.52,94.65Zm0,16.69c2,0,2.55-2,2.55-7.3s-.55-7.31-2.55-7.31S47,98.71,47,104,47.52,111.34,49.52,111.34Z" fill="#3b4351"/><path d="M19-5.32c0-2.73,1.3-4.21,3.14-4.6V-10c-1.58-.55-2.54-1.77-2.54-4,0-2.89,1.87-4.63,5-4.63s5,1.74,5,4.63c0,2.21-1,3.43-2.55,4v.05c1.85.39,3.15,1.87,3.15,4.6,0,3.64-1.8,5.51-5.57,5.51S19-1.68,19-5.32Zm5.56,3.43c2.08,0,2.6-1.53,2.6-3.48s-.52-3.49-2.6-3.49S22-7.32,22-5.37,22.48-1.89,24.56-1.89Zm0-9c1.85,0,2.32-1.35,2.32-2.8s-.47-2.76-2.32-2.76-2.31,1.3-2.31,2.76S22.72-10.94,24.56-10.94Z" fill="#3b4351"/><path d="M31.63-5.14h2.81v.5A2.36,2.36,0,0,0,36.86-2c2.08,0,2.63-2,2.63-4.19s-.58-3.93-2.47-3.93A2.35,2.35,0,0,0,34.6-8.47L32-8.57l.91-9.65h8.87v2.37H35.09L34.49-11l.06,0a4,4,0,0,1,3.09-1.43c3.85,0,4.81,3.25,4.81,6.08,0,3.69-1.69,6.5-5.67,6.5-3.3,0-5.15-1.69-5.15-4.94Z" fill="#3b4351"/><path d="M49.52-18.58c3.54,0,5.51,2.21,5.51,9.39S53.06.19,49.52.19,44-2,44-9.19,46-18.58,49.52-18.58Zm0,16.69c2,0,2.55-2,2.55-7.3s-.55-7.31-2.55-7.31S47-14.52,47-9.19,47.52-1.89,49.52-1.89Z" fill="#3b4351"/></g></g><g id="Text"><g id="Huns"><path d="M1567.48,37.29h2.79v7h5.14v-7h2.8v17.5h-2.8V46.66h-5.14v8.13h-2.79Z" fill="#3b4351"/><path d="M1583.67,37.29V49.84c0,2.23.88,3.19,2.57,3.19s2.55-1,2.55-3.19V37.29h2.8V49.62c0,4-2,5.51-5.35,5.51s-5.36-1.47-5.36-5.51V37.29Z" fill="#3b4351"/><path d="M1594.25,37.29h3.41l5.07,13h0v-13h2.65v17.5H1602L1597,41.41h0V54.79h-2.65Z" fill="#3b4351"/><path d="M1610.47,49.38v.44c0,2.13,1,3.21,2.87,3.21a2.51,2.51,0,0,0,2.65-2.55c0-1.84-.93-2.65-2.5-3.11l-1.91-.67c-2.55-1-3.66-2.3-3.66-4.8,0-3.18,2.19-4.95,5.44-4.95,4.49,0,5,2.8,5,4.61V42h-2.79v-.37c0-1.59-.69-2.52-2.45-2.52a2.23,2.23,0,0,0-2.35,2.52c0,1.5.76,2.26,2.62,3l1.89.68c2.47.89,3.55,2.21,3.55,4.64,0,3.72-2.25,5.26-5.78,5.26-4.34,0-5.32-2.89-5.32-5.34v-.41Z" fill="#3b4351"/></g><g id="Greeks"><path d="M110.59,84.75h3.57l4.61,17.49h-2.92L114.78,98h-5.13l-1.12,4.28h-2.92Zm3.72,11-2-8.63h0l-2.08,8.63Z" fill="#3b4351"/><path d="M120,84.75h9.46V87.1h-6.66V92h6.27V94.3h-6.27v5.59h6.86v2.35H120Z" fill="#3b4351"/><path d="M140.43,100.21h-.05a3.64,3.64,0,0,1-3.82,2.38c-3.83,0-5.2-2.85-5.2-9.09s1.76-9.1,5.81-9.1a4.77,4.77,0,0,1,5.12,5v.32h-2.65v-.42c0-1.29-.54-2.84-2.45-2.84s-3,1.32-3,6.91.93,7.06,2.82,7.06c2.13,0,2.92-1.52,2.92-5.34H137V93h5.58v9.21h-2.1Z" fill="#3b4351"/><path d="M144.93,84.75h9.46V87.1h-6.66V92H154V94.3h-6.27v5.59h6.86v2.35h-9.66Z" fill="#3b4351"/><path d="M160,84.75h3.57l4.61,17.49h-2.92L164.22,98h-5.13L158,102.24h-2.92Zm3.72,11-2-8.63h-.05l-2.08,8.63Z" fill="#3b4351"/><path d="M169.43,84.75h3.41l5.07,13H178v-13h2.65v17.49H177.2l-5.07-13.38h0v13.38h-2.65Z" fill="#3b4351"/><path d="M185.65,96.83v.44c0,2.13,1,3.21,2.87,3.21a2.51,2.51,0,0,0,2.65-2.55c0-1.84-.94-2.65-2.5-3.11l-1.92-.66c-2.54-1-3.65-2.31-3.65-4.81,0-3.18,2.18-4.95,5.44-4.95,4.49,0,5,2.8,5,4.61v.39H190.7V89c0-1.6-.69-2.53-2.45-2.53A2.23,2.23,0,0,0,185.9,89c0,1.49.76,2.25,2.62,3l1.89.69c2.47.88,3.55,2.2,3.55,4.63,0,3.72-2.26,5.27-5.78,5.27-4.34,0-5.32-2.89-5.32-5.34v-.42Z" fill="#3b4351"/><path d="M252.07,101.48h3.16c1.92,0,2.76,1.2,2.76,2.91a2.72,2.72,0,0,1-2.93,3h-1.4v4.13h-1.59Zm1.59,4.66h1.14a1.51,1.51,0,0,0,1.6-1.72c0-1.08-.44-1.74-1.71-1.74h-1Z" fill="#3b4351"/><path d="M259,101.48h1.51v3.28l0,0a2.15,2.15,0,0,1,1.85-1c1.15,0,1.88.52,1.88,2v5.69h-1.51v-5.17c0-1-.28-1.36-1.05-1.36s-1.21.48-1.21,1.47v5.06H259Z" fill="#3b4351"/><path d="M270.65,109.91c0,.28.17.53.39.53a.54.54,0,0,0,.25,0v1a1.58,1.58,0,0,1-.74.18c-.67,0-1.23-.26-1.28-1h0a2,2,0,0,1-1.88,1.11c-1.22,0-2-.66-2-2.12a2.08,2.08,0,0,1,1.75-2.37l1.18-.32c.54-.15.88-.31.88-1s-.24-1.12-1-1.12c-1,0-1.15.72-1.15,1.45H265.6c0-1.61.66-2.48,2.65-2.48,1.33,0,2.4.52,2.4,1.85Zm-1.43-2.41a11.23,11.23,0,0,1-1.68.7,1.23,1.23,0,0,0-.62,1.22c0,.63.31,1.13.94,1.13.91,0,1.36-.67,1.36-1.79Z" fill="#3b4351"/><path d="M272.18,103.94h1.52v1.18h0a1.85,1.85,0,0,1,1.75-1.37.89.89,0,0,1,.36,0v1.54a2.18,2.18,0,0,0-.63-.08c-.69,0-1.51.31-1.51,1.71v4.51h-1.52Z" fill="#3b4351"/><path d="M276.3,107.71c0-2.35.62-4,2.8-4s2.82,1.61,2.82,4-.73,4-2.82,4S276.3,110.06,276.3,107.71Zm2.8,2.84c1.11,0,1.3-.92,1.3-2.84,0-1.67-.19-2.84-1.3-2.84s-1.29,1.17-1.29,2.84C277.81,109.63,278,110.55,279.1,110.55Z" fill="#3b4351"/><path d="M288,109.91c0,.28.17.53.39.53a.59.59,0,0,0,.26,0v1a1.63,1.63,0,0,1-.75.18c-.67,0-1.23-.26-1.27-1h0a2,2,0,0,1-1.88,1.11c-1.22,0-2-.66-2-2.12a2.08,2.08,0,0,1,1.75-2.37l1.18-.32c.55-.15.88-.31.88-1s-.24-1.12-1-1.12c-1,0-1.15.72-1.15,1.45H283c0-1.61.66-2.48,2.65-2.48,1.33,0,2.39.52,2.39,1.85Zm-1.43-2.41a11.23,11.23,0,0,1-1.68.7,1.24,1.24,0,0,0-.61,1.22c0,.63.3,1.13.93,1.13.91,0,1.36-.67,1.36-1.79Z" fill="#3b4351"/><path d="M289.56,101.48h1.51v3.28l0,0a2.15,2.15,0,0,1,1.85-1c1.15,0,1.88.52,1.88,2v5.69h-1.51v-5.17c0-1-.28-1.36-1.05-1.36-.62,0-1.21.48-1.21,1.47v5.06h-1.51Z" fill="#3b4351"/></g><g id="Ethiopians"><path d="M241.88,53.11h9.46v2.36h-6.67v4.85H251v2.35h-6.28v5.59h6.86v2.35h-9.65Z" fill="#3b4351"/><path d="M256.53,55.47h-4.17V53.11h11.06v2.36h-4.1V70.61h-2.79Z" fill="#3b4351"/><path d="M265,53.11h2.79v7H273v-7h2.79v17.5H273V62.48H267.8v8.13H265Z" fill="#3b4351"/><path d="M278.51,53.11h2.79v17.5h-2.79Z" fill="#3b4351"/><path d="M283.65,61.86c0-6.25,1.76-9.09,5.78-9.09s5.79,2.84,5.79,9.09S293.45,71,289.43,71,283.65,68.11,283.65,61.86Zm8.77-.07c0-5.88-1.32-6.91-3-6.91s-3,1-3,6.91,1.33,7.06,3,7.06S292.42,67.79,292.42,61.79Z" fill="#3b4351"/><path d="M297.69,53.11h5.54c3.35,0,4.83,2.11,4.83,5.1s-1.87,5.17-5.13,5.17h-2.45v7.23h-2.79Zm2.79,8.16h2c1.49,0,2.79-.78,2.79-3,0-1.89-.76-3-3-3h-1.79Z" fill="#3b4351"/><path d="M309.82,53.11h2.79v17.5h-2.79Z" fill="#3b4351"/><path d="M318.69,53.11h3.57l4.61,17.5H324l-1.07-4.29h-5.13l-1.12,4.29h-2.92Zm3.72,11-2-8.62h0l-2.08,8.62Z" fill="#3b4351"/><path d="M328.09,53.11h3.41l5.07,13h.05v-13h2.65v17.5h-3.41l-5.07-13.38h-.05V70.61h-2.65Z" fill="#3b4351"/><path d="M344.31,65.2v.44c0,2.13,1,3.21,2.87,3.21a2.51,2.51,0,0,0,2.65-2.55c0-1.84-.93-2.65-2.5-3.11l-1.91-.67c-2.55-1-3.66-2.3-3.66-4.8,0-3.18,2.19-4.95,5.44-4.95,4.49,0,4.95,2.79,4.95,4.61v.39h-2.79V57.4c0-1.59-.69-2.52-2.45-2.52a2.23,2.23,0,0,0-2.35,2.52c0,1.5.76,2.26,2.62,3l1.89.68c2.47.89,3.55,2.21,3.55,4.64,0,3.72-2.25,5.26-5.78,5.26-4.34,0-5.32-2.89-5.32-5.34V65.2Z" fill="#3b4351"/></g><g id="Egytians"><path d="M230.33,7.12h3.17c1.92,0,2.76,1.2,2.76,2.91a2.72,2.72,0,0,1-2.93,3h-1.4v4.14h-1.6Zm1.6,4.66h1.13a1.5,1.5,0,0,0,1.6-1.72c0-1.08-.43-1.74-1.71-1.74h-1Z" fill="#3b4351"/><path d="M237.23,7.12h1.52v3.27l0,0a2.14,2.14,0,0,1,1.85-1c1.15,0,1.87.52,1.87,2v5.69H241V12c0-1-.28-1.36-1.05-1.36-.62,0-1.2.48-1.2,1.47v5.06h-1.52Z" fill="#3b4351"/><path d="M248.91,15.55c0,.28.17.53.39.53a.59.59,0,0,0,.26,0v1a1.63,1.63,0,0,1-.75.18c-.67,0-1.23-.27-1.27-1h0a2,2,0,0,1-1.88,1.1c-1.21,0-2-.66-2-2.11a2.09,2.09,0,0,1,1.75-2.37l1.18-.32c.55-.16.88-.31.88-1s-.23-1.12-1-1.12c-1,0-1.15.72-1.15,1.44h-1.43c0-1.61.66-2.48,2.65-2.48,1.33,0,2.39.52,2.39,1.85Zm-1.43-2.41a12.39,12.39,0,0,1-1.68.7,1.24,1.24,0,0,0-.61,1.22c0,.63.3,1.13.93,1.13.91,0,1.36-.67,1.36-1.79Z" fill="#3b4351"/><path d="M250.45,9.58H252v1.18h0a1.88,1.88,0,0,1,1.75-1.38.87.87,0,0,1,.36.06V11a2.18,2.18,0,0,0-.63-.08c-.68,0-1.51.31-1.51,1.71v4.51h-1.51Z" fill="#3b4351"/><path d="M254.56,13.35c0-2.35.62-4,2.81-4s2.81,1.62,2.81,4-.73,4-2.81,4S254.56,15.7,254.56,13.35Zm2.81,2.84c1.1,0,1.3-.92,1.3-2.84,0-1.67-.2-2.84-1.3-2.84s-1.29,1.17-1.29,2.84C256.08,15.27,256.29,16.19,257.37,16.19Z" fill="#3b4351"/><path d="M266.29,15.55c0,.28.16.53.39.53a.57.57,0,0,0,.25,0v1a1.58,1.58,0,0,1-.74.18c-.67,0-1.24-.27-1.28-1h0a1.94,1.94,0,0,1-1.87,1.1c-1.22,0-2-.66-2-2.11a2.08,2.08,0,0,1,1.75-2.37l1.17-.32c.55-.16.89-.31.89-1s-.24-1.12-1-1.12c-1,0-1.15.72-1.15,1.44h-1.43c0-1.61.66-2.48,2.65-2.48,1.33,0,2.4.52,2.4,1.85Zm-1.43-2.41a12.39,12.39,0,0,1-1.68.7,1.23,1.23,0,0,0-.62,1.22c0,.63.31,1.13.94,1.13.91,0,1.36-.67,1.36-1.79Z" fill="#3b4351"/><path d="M267.82,7.12h1.52v3.27l0,0a2.14,2.14,0,0,1,1.85-1c1.14,0,1.87.52,1.87,2v5.69h-1.51V12c0-1-.28-1.36-1-1.36s-1.2.48-1.2,1.47v5.06h-1.52Z" fill="#3b4351"/><path d="M228.52,27.46h-2.38V26.12h6.32v1.34h-2.34v8.66h-1.6Z" fill="#3b4351"/><path d="M237.17,34.55c0,.28.17.53.4.53a.57.57,0,0,0,.25,0v1a1.58,1.58,0,0,1-.74.18c-.68,0-1.24-.27-1.28-1h0a1.94,1.94,0,0,1-1.87,1.1c-1.22,0-2-.66-2-2.11a2.09,2.09,0,0,1,1.76-2.37l1.17-.32c.55-.16.88-.31.88-1s-.23-1.12-1-1.12c-1,0-1.15.72-1.15,1.44h-1.43c0-1.61.66-2.48,2.65-2.48,1.33,0,2.39.52,2.39,1.85Zm-1.43-2.41a11.88,11.88,0,0,1-1.68.7,1.24,1.24,0,0,0-.61,1.22c0,.63.31,1.13.94,1.13.91,0,1.35-.67,1.35-1.79Z" fill="#3b4351"/><path d="M238.71,26.12h1.51v5.61h0l2.28-3.15h1.76L242,31.48l2.56,4.64h-1.65l-1.85-3.43-.86,1v2.4h-1.51Z" fill="#3b4351"/><path d="M246.41,32.54V33c0,1,.13,2.3,1.26,2.3s1.21-1.22,1.21-1.68h1.43a2.48,2.48,0,0,1-2.65,2.71c-1.23,0-2.76-.36-2.76-3.85,0-2,.43-4.08,2.79-4.08,2.1,0,2.66,1.28,2.66,3.37v.79Zm2.42-1V31.1c0-1-.3-1.68-1.16-1.68s-1.26.95-1.26,1.93v.16Z" fill="#3b4351"/><path d="M251.66,26.12h1.51v10h-1.51Z" fill="#3b4351"/><path d="M254.4,32.35c0-2.35.62-4,2.81-4S260,30,260,32.35s-.73,4-2.81,4S254.4,34.7,254.4,32.35Zm2.81,2.84c1.1,0,1.3-.92,1.3-2.84,0-1.67-.2-2.84-1.3-2.84s-1.29,1.17-1.29,2.84C255.92,34.27,256.13,35.19,257.21,35.19Z" fill="#3b4351"/><path d="M260.51,28.58h1V26.44h1.52v2.14h1.23V29.7h-1.23v4.5c0,.6.17.8.68.8a2.64,2.64,0,0,0,.55,0v1.12a4.64,4.64,0,0,1-1.22.13c-1,0-1.53-.29-1.53-1.82V29.7h-1Z" fill="#3b4351"/><path d="M268.46,26.12h1.6v10h-1.6Z" fill="#3b4351"/><path d="M271.57,26.12h1.6v10h-1.6Z" fill="#3b4351"/><path d="M274.8,34.27h1.6v1.85h-1.6Z" fill="#3b4351"/></g><g id="Assyrians"><path d="M768.21,31.79h3.58l4.6,17.5h-2.91L772.4,45h-5.12l-1.13,4.29h-2.92Zm3.72,11-2-8.63h0l-2.09,8.63Z" fill="#3b4351"/><path d="M779.77,43.87v.44q0,3.21,2.87,3.21A2.51,2.51,0,0,0,785.29,45c0-1.84-.93-2.65-2.5-3.12l-1.91-.66c-2.55-1-3.66-2.3-3.66-4.8,0-3.19,2.19-4.95,5.44-4.95,4.49,0,5,2.79,5,4.61v.39h-2.79v-.37c0-1.59-.69-2.52-2.45-2.52A2.23,2.23,0,0,0,780,36.08c0,1.5.76,2.25,2.62,3l1.89.69c2.47.88,3.55,2.21,3.55,4.63,0,3.73-2.25,5.27-5.78,5.27-4.34,0-5.32-2.89-5.32-5.34v-.42Z" fill="#3b4351"/><path d="M792.49,43.87v.44c0,2.14,1,3.21,2.87,3.21A2.5,2.5,0,0,0,798,45c0-1.84-.93-2.65-2.5-3.12l-1.91-.66c-2.55-1-3.65-2.3-3.65-4.8,0-3.19,2.18-4.95,5.44-4.95,4.48,0,5,2.79,5,4.61v.39h-2.79v-.37c0-1.59-.69-2.52-2.45-2.52a2.23,2.23,0,0,0-2.36,2.52c0,1.5.76,2.25,2.63,3l1.88.69c2.48.88,3.56,2.21,3.56,4.63,0,3.73-2.26,5.27-5.79,5.27-4.34,0-5.32-2.89-5.32-5.34v-.42Z" fill="#3b4351"/><path d="M806,42.45,801.5,31.79h3.12l2.94,7.55,3-7.55h2.92l-4.68,10.66v6.84H806Z" fill="#3b4351"/><path d="M814.83,31.79H821c2.45,0,4.43,1.25,4.43,4.51,0,2.26-1,4-2.91,4.29v0c1.76.17,2.64,1.13,2.74,3.58,0,1.15,0,2.5.1,3.55a1.89,1.89,0,0,0,.83,1.52H823a3,3,0,0,1-.47-1.55c0-.51-.07-1.05-.07-1.56s0-1.11,0-1.74c-.07-1.92-.66-2.75-2.55-2.75h-2.28v7.6h-2.79Zm5,7.79a2.58,2.58,0,0,0,2.8-2.84c0-1.86-.79-2.84-2.65-2.84h-2.38v5.68Z" fill="#3b4351"/><path d="M827.86,31.79h2.8v17.5h-2.8Z" fill="#3b4351"/><path d="M836.73,31.79h3.58l4.61,17.5H842L840.92,45H835.8l-1.12,4.29h-2.92Zm3.73,11-2-8.63h-.05l-2.08,8.63Z" fill="#3b4351"/><path d="M846.14,31.79h3.41l5.07,13h0v-13h2.65v17.5h-3.41l-5.07-13.38h-.05V49.29h-2.65Z" fill="#3b4351"/><path d="M883.72,31.79h9.46v2.35h-6.66V39h6.27v2.35h-6.27v5.59h6.86v2.35h-9.66Z" fill="#3b4351"/><path d="M895.46,36.1H898v1.55H898a3.68,3.68,0,0,1,3.16-1.89,2.88,2.88,0,0,1,3.07,2,3.61,3.61,0,0,1,3.33-2c1.86,0,3.21,1,3.21,3.51v10h-2.65v-9c0-1.74-.51-2.38-1.59-2.38s-2.11.83-2.11,2.57v8.85h-2.64v-9c0-1.74-.52-2.38-1.62-2.38s-2.09.86-2.09,2.57v8.85h-2.64Z" fill="#3b4351"/><path d="M919.15,49.63a3,3,0,0,1-3-1.89h0V53.6h-2.64V36.1H916v1.62h0a3.14,3.14,0,0,1,3-2c3,0,4.24,2.57,4.24,7.11C923.22,48.41,921,49.63,919.15,49.63Zm-.95-11.76c-1.82,0-2.23,1.84-2.23,4.68,0,3.16.39,5,2.25,5,1.49,0,2.21-1.12,2.21-4.77C920.43,39.76,920.06,37.87,918.2,37.87Z" fill="#3b4351"/><path d="M925.37,31.6H928v2.64h-2.65Zm0,4.5H928V49.29h-2.65Z" fill="#3b4351"/><path d="M930.69,36.1h2.64v2.06h0a3.26,3.26,0,0,1,3.07-2.4,1.5,1.5,0,0,1,.63.1v2.7a3.42,3.42,0,0,0-1.1-.15c-1.2,0-2.65.54-2.65,3v7.89h-2.64Z" fill="#3b4351"/><path d="M940.54,43v.76c0,1.76.22,4,2.2,4s2.11-2.13,2.11-2.94h2.5c0,3-1.76,4.75-4.63,4.75-2.16,0-4.83-.64-4.83-6.74,0-3.45.76-7.13,4.88-7.13,3.67,0,4.65,2.23,4.65,5.88V43Zm4.24-1.81v-.71c0-1.67-.54-2.94-2-2.94-1.66,0-2.2,1.66-2.2,3.38v.27Z" fill="#3b4351"/></g></g></svg>