<svg id="Text" xmlns="http://www.w3.org/2000/svg" viewBox="0 0 1847.91 115"><title>bc0800text</title><g id="Huns"><path d="M1567.48,37.29h2.79v7h5.14v-7h2.8v17.5h-2.8V46.66h-5.14v8.13h-2.79Z"/><path d="M1583.67,37.29V49.84c0,2.23.88,3.19,2.57,3.19s2.55-1,2.55-3.19V37.29h2.8V49.62c0,4-2,5.51-5.35,5.51s-5.36-1.47-5.36-5.51V37.29Z"/><path d="M1594.25,37.29h3.41l5.07,13h0v-13h2.65v17.5H1602L1597,41.41h0V54.79h-2.65Z"/><path d="M1610.47,49.38v.44c0,2.13,1,3.21,2.87,3.21a2.51,2.51,0,0,0,2.65-2.55c0-1.84-.93-2.65-2.5-3.11l-1.91-.67c-2.55-1-3.66-2.3-3.66-4.8,0-3.18,2.19-4.95,5.44-4.95,4.49,0,5,2.8,5,4.61V42h-2.79v-.37c0-1.59-.69-2.52-2.45-2.52a2.23,2.23,0,0,0-2.35,2.52c0,1.5.76,2.26,2.62,3l1.89.68c2.47.89,3.55,2.21,3.55,4.64,0,3.72-2.25,5.26-5.78,5.26-4.34,0-5.32-2.89-5.32-5.34v-.41Z"/></g><g id="Greeks"><path d="M123.72,84.75h3.58l4.6,17.49H129L127.91,98h-5.12l-1.13,4.28h-2.92Zm3.72,11-2-8.63h-.05l-2.08,8.63Z"/><path d="M133.12,84.75h9.46V87.1h-6.66V92h6.27V94.3h-6.27v5.59h6.86v2.35h-9.66Z"/><path d="M153.56,100.21h-.05a3.63,3.63,0,0,1-3.82,2.38c-3.83,0-5.2-2.85-5.2-9.09s1.77-9.1,5.81-9.1a4.76,4.76,0,0,1,5.12,5v.32h-2.65v-.42c0-1.29-.53-2.84-2.45-2.84s-3,1.32-3,6.91.93,7.06,2.81,7.06c2.14,0,2.92-1.52,2.92-5.34h-2.94V93h5.59v9.21h-2.11Z"/><path d="M158.06,84.75h9.46V87.1h-6.66V92h6.27V94.3h-6.27v5.59h6.86v2.35h-9.66Z"/><path d="M173.16,84.75h3.58l4.6,17.49h-2.91L177.35,98h-5.12l-1.13,4.28h-2.92Zm3.72,11-2-8.63h-.05l-2.08,8.63Z"/><path d="M182.56,84.75H186l5.07,13h.05v-13h2.65v17.49h-3.41l-5.07-13.38h0v13.38h-2.65Z"/><path d="M198.78,96.83v.44c0,2.13,1,3.21,2.87,3.21a2.51,2.51,0,0,0,2.65-2.55c0-1.84-.93-2.65-2.5-3.11l-1.91-.66c-2.55-1-3.66-2.31-3.66-4.81,0-3.18,2.19-4.95,5.45-4.95,4.48,0,4.95,2.8,4.95,4.61v.39h-2.8V89c0-1.6-.68-2.53-2.45-2.53A2.23,2.23,0,0,0,199,89c0,1.49.76,2.25,2.62,3l1.89.69c2.47.88,3.55,2.2,3.55,4.63,0,3.72-2.25,5.27-5.78,5.27-4.34,0-5.32-2.89-5.32-5.35v-.41Z"/></g></svg>