<svg xmlns="http://www.w3.org/2000/svg" viewBox="0 0 1847.91 112"><title>bc0850text</title><g id="YEARS"><g id="Right"><path d="M1779.23,103.08c0-2.73,1.3-4.21,3.15-4.6v0c-1.59-.55-2.55-1.77-2.55-4,0-2.89,1.87-4.63,5-4.63s5,1.74,5,4.63c0,2.21-1,3.43-2.55,4v0c1.85.39,3.15,1.87,3.15,4.6,0,3.64-1.8,5.51-5.57,5.51S1779.23,106.72,1779.23,103.08Zm5.56,3.43c2.08,0,2.6-1.53,2.6-3.48s-.52-3.49-2.6-3.49-2.6,1.54-2.6,3.49S1782.71,106.51,1784.79,106.51Zm0-9.05c1.85,0,2.32-1.35,2.32-2.8s-.47-2.76-2.32-2.76-2.31,1.3-2.31,2.76S1783,97.46,1784.79,97.46Z"/><path d="M1791.87,103.26h2.8v.5a2.35,2.35,0,0,0,2.42,2.6c2.08,0,2.63-2,2.63-4.19s-.57-3.92-2.47-3.92a2.35,2.35,0,0,0-2.42,1.69l-2.63-.11.91-9.65H1802v2.37h-6.66l-.59,4.84,0,0a4,4,0,0,1,3.09-1.43c3.85,0,4.81,3.25,4.81,6.08,0,3.7-1.69,6.5-5.67,6.5-3.3,0-5.14-1.69-5.14-4.94Z"/><path d="M1809.75,89.82c3.54,0,5.52,2.21,5.52,9.39s-2,9.38-5.52,9.38-5.51-2.21-5.51-9.38S1806.22,89.82,1809.75,89.82Zm0,16.69c2,0,2.55-2,2.55-7.3s-.54-7.31-2.55-7.31-2.54,2-2.54,7.31S1807.75,106.51,1809.75,106.51Z"/></g><g id="Layer_34" data-name="Layer 34"><path d="M19.48,106.68c0-2.73,1.3-4.21,3.15-4.6V102c-1.59-.54-2.55-1.76-2.55-4,0-2.89,1.87-4.63,5-4.63s5,1.74,5,4.63c0,2.21-1,3.43-2.55,4v.06c1.85.39,3.15,1.87,3.15,4.6,0,3.64-1.79,5.51-5.56,5.51S19.48,110.32,19.48,106.68Zm5.57,3.43c2.08,0,2.59-1.53,2.59-3.48s-.51-3.49-2.59-3.49-2.6,1.54-2.6,3.49S23,110.11,25.05,110.11Zm0-9c1.84,0,2.31-1.35,2.31-2.81s-.47-2.75-2.31-2.75-2.32,1.3-2.32,2.75S23.2,101.06,25.05,101.06Z"/><path d="M32.12,106.86h2.8v.49A2.36,2.36,0,0,0,37.34,110c2.08,0,2.63-2,2.63-4.19s-.57-3.93-2.47-3.93a2.36,2.36,0,0,0-2.42,1.69l-2.63-.1.91-9.65h8.87v2.37H35.57L35,101,35,101a4,4,0,0,1,3.09-1.43c3.85,0,4.81,3.25,4.81,6.08,0,3.69-1.69,6.5-5.66,6.5-3.31,0-5.15-1.69-5.15-4.94Z"/><path d="M50,93.42c3.54,0,5.52,2.21,5.52,9.38s-2,9.39-5.52,9.39-5.51-2.21-5.51-9.39S46.47,93.42,50,93.42Zm0,16.69c2,0,2.55-2,2.55-7.31S52,95.5,50,95.5s-2.54,2-2.54,7.3S48,110.11,50,110.11Z"/></g></g></svg>