<svg xmlns="http://www.w3.org/2000/svg" viewBox="0 0 1847.91 112"><title>bc0850text</title><g id="YEARS"><g id="Right"><path d="M1788.75,103.08c0-2.73,1.3-4.21,3.14-4.6v0c-1.58-.55-2.54-1.77-2.54-4,0-2.89,1.87-4.63,5-4.63s5,1.74,5,4.63c0,2.21-1,3.43-2.55,4v0c1.85.39,3.15,1.87,3.15,4.6,0,3.64-1.8,5.51-5.57,5.51S1788.75,106.72,1788.75,103.08Zm5.56,3.43c2.08,0,2.6-1.53,2.6-3.48s-.52-3.49-2.6-3.49-2.6,1.54-2.6,3.49S1792.23,106.51,1794.31,106.51Zm0-9.05c1.85,0,2.32-1.35,2.32-2.8s-.47-2.76-2.32-2.76-2.31,1.3-2.31,2.76S1792.47,97.46,1794.31,97.46Z" fill="#3b4351"/><path d="M1801.38,103.26h2.81v.5a2.35,2.35,0,0,0,2.42,2.6c2.08,0,2.63-2,2.63-4.19s-.58-3.92-2.47-3.92a2.34,2.34,0,0,0-2.42,1.69l-2.63-.11.91-9.65h8.87v2.37h-6.66l-.6,4.84.06,0a4,4,0,0,1,3.09-1.43c3.85,0,4.81,3.25,4.81,6.08,0,3.7-1.69,6.5-5.67,6.5-3.3,0-5.15-1.69-5.15-4.94Z" fill="#3b4351"/><path d="M1819.27,89.82c3.54,0,5.51,2.21,5.51,9.39s-2,9.38-5.51,9.38-5.51-2.21-5.51-9.38S1815.73,89.82,1819.27,89.82Zm0,16.69c2,0,2.55-2,2.55-7.3s-.55-7.31-2.55-7.31-2.55,2-2.55,7.31S1817.27,106.51,1819.27,106.51Z" fill="#3b4351"/></g><g id="left"><path d="M19,106.68c0-2.73,1.3-4.21,3.14-4.6v0c-1.58-.55-2.54-1.77-2.54-4,0-2.89,1.87-4.63,5-4.63s5,1.74,5,4.63c0,2.21-1,3.43-2.55,4v0c1.85.39,3.15,1.87,3.15,4.6,0,3.64-1.8,5.51-5.57,5.51S19,110.32,19,106.68Zm5.56,3.43c2.08,0,2.6-1.53,2.6-3.48s-.52-3.49-2.6-3.49-2.6,1.54-2.6,3.49S22.48,110.11,24.56,110.11Zm0-9c1.85,0,2.32-1.35,2.32-2.8s-.47-2.76-2.32-2.76-2.31,1.3-2.31,2.76S22.72,101.06,24.56,101.06Z" fill="#3b4351"/><path d="M31.63,106.86h2.81v.5a2.36,2.36,0,0,0,2.42,2.6c2.08,0,2.63-2,2.63-4.19s-.58-3.93-2.47-3.93a2.35,2.35,0,0,0-2.42,1.69l-2.63-.1.91-9.65h8.87v2.37H35.09l-.6,4.84.06.05a4,4,0,0,1,3.09-1.43c3.85,0,4.81,3.25,4.81,6.08,0,3.69-1.69,6.5-5.67,6.5-3.3,0-5.15-1.69-5.15-4.94Z" fill="#3b4351"/><path d="M49.52,93.42c3.54,0,5.51,2.21,5.51,9.39s-2,9.38-5.51,9.38S44,110,44,102.81,46,93.42,49.52,93.42Zm0,16.69c2,0,2.55-2,2.55-7.3s-.55-7.31-2.55-7.31-2.55,2-2.55,7.31S47.52,110.11,49.52,110.11Z" fill="#3b4351"/></g></g><g id="Text"><g id="Egytians"><path d="M223.8,18.59v.21c0,1.81-.74,3.57-3.08,3.57-2.53,0-3.31-1.62-3.31-5.2s.78-5.19,3.32-5.19c2.84,0,3,2.08,3,3.14v.18h-1.6v-.17c0-.94-.28-2-1.42-2s-1.71.73-1.71,3.95.52,4,1.71,4c1.34,0,1.48-1.47,1.48-2.41v-.17Z" fill="#3b4351"/><path d="M224.89,12.06h1.51v1.51h-1.51Zm0,2.58h1.51v7.53h-1.51Z" fill="#3b4351"/><path d="M227.29,14.64h1.63l1.32,5.94h0l1.19-5.94h1.61l-2,7.53h-1.77Z" fill="#3b4351"/><path d="M234,12.06h1.51v1.51H234Zm0,2.58h1.51v7.53H234Z" fill="#3b4351"/><path d="M237.07,12.17h1.51v10h-1.51Z" fill="#3b4351"/><path d="M243,14.64h1.56l1.05,5.94h0l1.12-5.94h1.71l1.12,5.94h0l1-5.94h1.51l-1.72,7.53h-1.7l-1.17-5.85h0l-1.08,5.85h-1.77Z" fill="#3b4351"/><path d="M257.83,20.61c0,.28.17.53.39.53a.72.72,0,0,0,.25,0v1a1.68,1.68,0,0,1-.74.18c-.67,0-1.23-.27-1.27-1h0a1.94,1.94,0,0,1-1.88,1.11c-1.22,0-2-.66-2-2.11a2.08,2.08,0,0,1,1.75-2.37l1.18-.32c.55-.16.88-.31.88-1s-.24-1.12-1-1.12c-1,0-1.14.71-1.14,1.44h-1.43c0-1.61.66-2.48,2.64-2.48,1.34,0,2.4.52,2.4,1.85ZM256.4,18.2a13.82,13.82,0,0,1-1.68.7,1.25,1.25,0,0,0-.62,1.22c0,.63.31,1.13.94,1.13.91,0,1.36-.67,1.36-1.79Z" fill="#3b4351"/><path d="M259.37,14.64h1.51v1.18h0a1.86,1.86,0,0,1,1.75-1.38.87.87,0,0,1,.36.06V16a2.18,2.18,0,0,0-.63-.08c-.68,0-1.51.3-1.51,1.71v4.5h-1.51Z" fill="#3b4351"/><path d="M262.64,20.33h1.6v1.84h-1.6Z" fill="#3b4351"/><path d="M214.89,31.17h2.49l1.77,7.41h0l1.73-7.41h2.44v10h-1.51V32.85h0l-2,8.32h-1.34l-2-8.32h0v8.32h-1.51Z" fill="#3b4351"/><path d="M224.61,37.41c0-2.36.61-4,2.8-4s2.81,1.61,2.81,4-.73,4-2.81,4S224.61,39.76,224.61,37.41Zm2.8,2.84c1.1,0,1.3-.92,1.3-2.84,0-1.67-.2-2.85-1.3-2.85s-1.29,1.18-1.29,2.85C226.12,39.33,226.33,40.25,227.41,40.25Z" fill="#3b4351"/><path d="M231.38,33.64h1.51v1.18h0a1.88,1.88,0,0,1,1.75-1.38.92.92,0,0,1,.37.06V35a2.24,2.24,0,0,0-.63-.08c-.69,0-1.52.3-1.52,1.71v4.5h-1.51Z" fill="#3b4351"/><path d="M240.65,39.61c0,.28.17.53.39.53a.78.78,0,0,0,.26,0v1a1.76,1.76,0,0,1-.75.18c-.67,0-1.23-.27-1.27-1h0a1.93,1.93,0,0,1-1.88,1.11c-1.21,0-2-.66-2-2.11a2.08,2.08,0,0,1,1.75-2.37l1.18-.32c.55-.16.88-.31.88-1s-.23-1.12-1-1.12c-1,0-1.15.71-1.15,1.44h-1.43c0-1.61.66-2.48,2.65-2.48,1.33,0,2.39.52,2.39,1.85Zm-1.43-2.41a13.18,13.18,0,0,1-1.68.7,1.24,1.24,0,0,0-.61,1.22c0,.63.3,1.13.94,1.13.91,0,1.35-.67,1.35-1.79Z" fill="#3b4351"/><path d="M242.26,31.17h1.51v10h-1.51Z" fill="#3b4351"/><path d="M253.6,39.61c0,.28.17.53.39.53a.78.78,0,0,0,.26,0v1a1.76,1.76,0,0,1-.75.18c-.67,0-1.23-.27-1.27-1h0a1.93,1.93,0,0,1-1.88,1.11c-1.21,0-2-.66-2-2.11a2.08,2.08,0,0,1,1.75-2.37l1.18-.32c.55-.16.88-.31.88-1s-.23-1.12-1-1.12c-1,0-1.15.71-1.15,1.44h-1.43c0-1.61.66-2.48,2.65-2.48,1.33,0,2.39.52,2.39,1.85Zm-1.43-2.41a13.82,13.82,0,0,1-1.68.7,1.24,1.24,0,0,0-.61,1.22c0,.63.3,1.13.93,1.13.92,0,1.36-.67,1.36-1.79Z" fill="#3b4351"/><path d="M255.14,33.64h1.43v.88h0a2.17,2.17,0,0,1,1.93-1.08c1.15,0,1.88.52,1.88,2.05v5.68h-1.51V36c0-1-.27-1.36-1.05-1.36-.62,0-1.21.46-1.21,1.47v5.05h-1.51Z" fill="#3b4351"/><path d="M265.73,40.25h0A1.61,1.61,0,0,1,264,41.37c-1.75,0-2.46-1.48-2.46-4.06,0-3.35,1.18-3.87,2.32-3.87a1.74,1.74,0,0,1,1.71,1.08h0V31.17h1.51v10h-1.42Zm-1.38-5.6c-.85,0-1.17.7-1.17,2.73,0,1.71.21,2.79,1.27,2.79s1.28-1.05,1.28-2.68C265.73,35.68,265.53,34.65,264.35,34.65Z" fill="#3b4351"/><path d="M217,56.6V57c0,1,.13,2.29,1.26,2.29s1.21-1.21,1.21-1.68h1.43a2.48,2.48,0,0,1-2.65,2.72c-1.23,0-2.76-.36-2.76-3.85,0-2,.43-4.08,2.79-4.08,2.1,0,2.66,1.28,2.66,3.36v.8Zm2.43-1v-.41c0-.95-.31-1.68-1.17-1.68s-1.26,1-1.26,1.93v.16Z" fill="#3b4351"/><path d="M227.23,57.43c-.12,1.81-.7,2.94-2.58,2.94-2.19,0-2.8-1.61-2.8-4s.61-4,2.8-4a2.44,2.44,0,0,1,2.59,2.71h-1.51c0-.7-.18-1.63-1.08-1.59-1.08,0-1.29,1.18-1.29,2.85s.21,2.84,1.29,2.84c.84,0,1.15-.69,1.15-1.82Z" fill="#3b4351"/><path d="M228.06,56.41c0-2.36.62-4,2.81-4s2.81,1.61,2.81,4-.73,4-2.81,4S228.06,58.76,228.06,56.41Zm2.81,2.84c1.1,0,1.3-.92,1.3-2.84,0-1.67-.2-2.85-1.3-2.85s-1.29,1.18-1.29,2.85C229.58,58.33,229.79,59.25,230.87,59.25Z" fill="#3b4351"/><path d="M234.84,52.64h1.43v.88h0a2.17,2.17,0,0,1,1.93-1.08c1.15,0,1.88.52,1.88,2.05v5.68h-1.51V55c0-1-.27-1.36-1.05-1.36-.62,0-1.21.46-1.21,1.47v5.05h-1.51Z" fill="#3b4351"/><path d="M241.28,56.41c0-2.36.62-4,2.8-4s2.82,1.61,2.82,4-.73,4-2.82,4S241.28,58.76,241.28,56.41Zm2.8,2.84c1.11,0,1.3-.92,1.3-2.84,0-1.67-.19-2.85-1.3-2.85s-1.29,1.18-1.29,2.85C242.79,58.33,243,59.25,244.08,59.25Z" fill="#3b4351"/><path d="M248.13,52.64h1.42v.88h0a2.1,2.1,0,0,1,1.8-1.08,1.63,1.63,0,0,1,1.75,1.15,2.07,2.07,0,0,1,1.91-1.15c1.06,0,1.83.55,1.83,2v5.72h-1.51V55c0-1-.29-1.36-.91-1.36s-1.2.47-1.2,1.47v5.05h-1.52V55c0-1-.29-1.36-.92-1.36s-1.19.49-1.19,1.47v5.05h-1.51Z" fill="#3b4351"/><path d="M258.49,50.06H260v1.51h-1.51Zm0,2.58H260v7.53h-1.51Z" fill="#3b4351"/><path d="M266.61,57.43c-.11,1.81-.7,2.94-2.58,2.94-2.18,0-2.8-1.61-2.8-4s.62-4,2.8-4a2.44,2.44,0,0,1,2.59,2.71h-1.51c0-.7-.18-1.63-1.08-1.59-1.08,0-1.29,1.18-1.29,2.85s.21,2.84,1.29,2.84c.84,0,1.15-.69,1.15-1.82Z" fill="#3b4351"/><path d="M224.7,78.25h0A1.61,1.61,0,0,1,223,79.37c-1.75,0-2.47-1.48-2.47-4.06,0-3.35,1.18-3.87,2.33-3.87a1.75,1.75,0,0,1,1.71,1.08h0V69.17h1.51v10H224.7Zm-1.37-5.6c-.86,0-1.18.7-1.18,2.73,0,1.71.21,2.79,1.27,2.79s1.28-1,1.28-2.68C224.7,73.68,224.5,72.65,223.33,72.65Z" fill="#3b4351"/><path d="M228.88,75.6V76c0,1,.13,2.29,1.26,2.29s1.21-1.21,1.21-1.68h1.43a2.48,2.48,0,0,1-2.65,2.72c-1.23,0-2.76-.36-2.76-3.85,0-2,.44-4.08,2.79-4.08,2.1,0,2.66,1.28,2.66,3.36v.8Zm2.43-1v-.41c0-1-.31-1.68-1.17-1.68s-1.26,1-1.26,1.93v.16Z" fill="#3b4351"/><path d="M239.15,76.43c-.11,1.81-.7,2.94-2.58,2.94-2.18,0-2.8-1.61-2.8-4s.62-4,2.8-4a2.44,2.44,0,0,1,2.59,2.71h-1.51c0-.7-.18-1.63-1.08-1.59-1.08,0-1.29,1.18-1.29,2.85s.21,2.84,1.29,2.84c.84,0,1.15-.69,1.15-1.82Z" fill="#3b4351"/><path d="M240.35,69.17h1.51v10h-1.51Z" fill="#3b4351"/><path d="M243.46,69.06H245v1.51h-1.51Zm0,2.58H245v7.53h-1.51Z" fill="#3b4351"/><path d="M246.49,71.64h1.43v.88H248a2.15,2.15,0,0,1,1.93-1.08c1.15,0,1.88.52,1.88,2v5.68h-1.52V74c0-1-.26-1.36-1-1.36-.61,0-1.2.46-1.2,1.47v5h-1.52Z" fill="#3b4351"/><path d="M254.53,75.6V76c0,1,.13,2.29,1.26,2.29S257,77.12,257,76.65h1.43a2.48,2.48,0,0,1-2.65,2.72c-1.24,0-2.76-.36-2.76-3.85,0-2,.43-4.08,2.79-4.08,2.1,0,2.66,1.28,2.66,3.36v.8Zm2.42-1v-.41c0-1-.3-1.68-1.16-1.68s-1.26,1-1.26,1.93v.16Z" fill="#3b4351"/><path d="M259.35,77.33h1.59v1.84h-1.59Z" fill="#3b4351"/></g></g></svg>