<svg id="Text" xmlns="http://www.w3.org/2000/svg" viewBox="0 0 1847.91 115"><title>bc0800text</title><g id="Huns"><path d="M1567.48,37.29h2.79v7h5.14v-7h2.8v17.5h-2.8V46.66h-5.14v8.13h-2.79Z"/><path d="M1583.67,37.29V49.84c0,2.23.88,3.19,2.57,3.19s2.55-1,2.55-3.19V37.29h2.8V49.62c0,4-2,5.51-5.35,5.51s-5.36-1.47-5.36-5.51V37.29Z"/><path d="M1594.25,37.29h3.41l5.07,13h0v-13h2.65v17.5H1602L1597,41.41h0V54.79h-2.65Z"/><path d="M1610.47,49.38v.44c0,2.13,1,3.21,2.87,3.21a2.51,2.51,0,0,0,2.65-2.55c0-1.84-.93-2.65-2.5-3.11l-1.91-.67c-2.55-1-3.66-2.3-3.66-4.8,0-3.18,2.19-4.95,5.44-4.95,4.49,0,5,2.8,5,4.61V42h-2.79v-.37c0-1.59-.69-2.52-2.45-2.52a2.23,2.23,0,0,0-2.35,2.52c0,1.5.76,2.26,2.62,3l1.89.68c2.47.89,3.55,2.21,3.55,4.64,0,3.72-2.25,5.26-5.78,5.26-4.34,0-5.32-2.89-5.32-5.34v-.41Z"/></g></svg>