<svg xmlns="http://www.w3.org/2000/svg" viewBox="0 0 1847.91 112"><title>bc0850text</title><g id="YEARS"><g id="Right"><path d="M1788.75,103.08c0-2.73,1.3-4.21,3.14-4.6v0c-1.58-.55-2.54-1.77-2.54-4,0-2.89,1.87-4.63,5-4.63s5,1.74,5,4.63c0,2.21-1,3.43-2.55,4v0c1.85.39,3.15,1.87,3.15,4.6,0,3.64-1.8,5.51-5.57,5.51S1788.75,106.72,1788.75,103.08Zm5.56,3.43c2.08,0,2.6-1.53,2.6-3.48s-.52-3.49-2.6-3.49-2.6,1.54-2.6,3.49S1792.23,106.51,1794.31,106.51Zm0-9.05c1.85,0,2.32-1.35,2.32-2.8s-.47-2.76-2.32-2.76-2.31,1.3-2.31,2.76S1792.47,97.46,1794.31,97.46Z"/><path d="M1801.38,103.26h2.81v.5a2.35,2.35,0,0,0,2.42,2.6c2.08,0,2.63-2,2.63-4.19s-.58-3.92-2.47-3.92a2.34,2.34,0,0,0-2.42,1.69l-2.63-.11.91-9.65h8.87v2.37h-6.66l-.6,4.84.06,0a4,4,0,0,1,3.09-1.43c3.85,0,4.81,3.25,4.81,6.08,0,3.7-1.69,6.5-5.67,6.5-3.3,0-5.15-1.69-5.15-4.94Z"/><path d="M1819.27,89.82c3.54,0,5.51,2.21,5.51,9.39s-2,9.38-5.51,9.38-5.51-2.21-5.51-9.38S1815.73,89.82,1819.27,89.82Zm0,16.69c2,0,2.55-2,2.55-7.3s-.55-7.31-2.55-7.31-2.55,2-2.55,7.31S1817.27,106.51,1819.27,106.51Z"/></g><g id="left"><path d="M19,106.68c0-2.73,1.3-4.21,3.14-4.6v0c-1.58-.55-2.54-1.77-2.54-4,0-2.89,1.87-4.63,5-4.63s5,1.74,5,4.63c0,2.21-1,3.43-2.55,4v0c1.85.39,3.15,1.87,3.15,4.6,0,3.64-1.8,5.51-5.57,5.51S19,110.32,19,106.68Zm5.56,3.43c2.08,0,2.6-1.53,2.6-3.48s-.52-3.49-2.6-3.49-2.6,1.54-2.6,3.49S22.48,110.11,24.56,110.11Zm0-9c1.85,0,2.32-1.35,2.32-2.8s-.47-2.76-2.32-2.76-2.31,1.3-2.31,2.76S22.72,101.06,24.56,101.06Z"/><path d="M31.63,106.86h2.81v.5a2.36,2.36,0,0,0,2.42,2.6c2.08,0,2.63-2,2.63-4.19s-.58-3.93-2.47-3.93a2.35,2.35,0,0,0-2.42,1.69l-2.63-.1.91-9.65h8.87v2.37H35.09l-.6,4.84.06.05a4,4,0,0,1,3.09-1.43c3.85,0,4.81,3.25,4.81,6.08,0,3.69-1.69,6.5-5.67,6.5-3.3,0-5.15-1.69-5.15-4.94Z"/><path d="M49.52,93.42c3.54,0,5.51,2.21,5.51,9.39s-2,9.38-5.51,9.38S44,110,44,102.81,46,93.42,49.52,93.42Zm0,16.69c2,0,2.55-2,2.55-7.3s-.55-7.31-2.55-7.31-2.55,2-2.55,7.31S47.52,110.11,49.52,110.11Z"/></g></g></svg>