<svg xmlns="http://www.w3.org/2000/svg" viewBox="0 0 1847.91 112"><title>bc0850text</title><g id="YEARS"><g id="Right"><path d="M1794,96.14c0-2.73,1.3-4.22,3.15-4.61v0c-1.59-.54-2.55-1.77-2.55-4,0-2.88,1.87-4.62,5-4.62s5,1.74,5,4.62c0,2.21-1,3.44-2.54,4v0c1.84.39,3.14,1.88,3.14,4.61,0,3.64-1.79,5.51-5.56,5.51S1794,99.78,1794,96.14Zm5.57,3.43c2.08,0,2.6-1.53,2.6-3.49s-.52-3.48-2.6-3.48-2.6,1.53-2.6,3.48S1797.52,99.57,1799.6,99.57Zm0-9c1.84,0,2.31-1.35,2.31-2.81s-.47-2.75-2.31-2.75-2.32,1.3-2.32,2.75S1797.75,90.52,1799.6,90.52Z" fill="#3b4351"/><path d="M1806.67,96.32h2.81v.49a2.35,2.35,0,0,0,2.41,2.6c2.09,0,2.63-2,2.63-4.18s-.57-3.93-2.47-3.93a2.36,2.36,0,0,0-2.42,1.69l-2.62-.1.91-9.65h8.86v2.37h-6.65l-.6,4.83,0,0a4.06,4.06,0,0,1,3.09-1.43c3.85,0,4.81,3.25,4.81,6.09,0,3.69-1.69,6.5-5.66,6.5-3.31,0-5.15-1.69-5.15-4.94Z" fill="#3b4351"/><path d="M1824.56,82.88c3.53,0,5.51,2.21,5.51,9.38s-2,9.39-5.51,9.39-5.52-2.21-5.52-9.39S1821,82.88,1824.56,82.88Zm0,16.69c2,0,2.54-2,2.54-7.31s-.54-7.3-2.54-7.3-2.55,2-2.55,7.3S1822.55,99.57,1824.56,99.57Z" fill="#3b4351"/></g><g id="left"><path d="M19,98c0-2.73,1.3-4.21,3.14-4.6v0c-1.58-.55-2.54-1.77-2.54-4,0-2.88,1.87-4.63,5-4.63s5,1.75,5,4.63c0,2.21-1,3.43-2.55,4v0c1.85.39,3.15,1.87,3.15,4.6,0,3.64-1.8,5.52-5.57,5.52S19,101.68,19,98Zm5.56,3.44c2.08,0,2.6-1.54,2.6-3.49s-.52-3.48-2.6-3.48S22,96,22,98,22.48,101.48,24.56,101.48Zm0-9c1.85,0,2.32-1.35,2.32-2.81s-.47-2.76-2.32-2.76-2.31,1.3-2.31,2.76S22.72,92.43,24.56,92.43Z" fill="#3b4351"/><path d="M31.63,98.23h2.81v.49a2.35,2.35,0,0,0,2.42,2.6c2.08,0,2.63-2,2.63-4.19s-.58-3.92-2.47-3.92A2.34,2.34,0,0,0,34.6,94.9L32,94.79l.91-9.64h8.87v2.36H35.09l-.6,4.84.06.05A4,4,0,0,1,37.64,91c3.85,0,4.81,3.25,4.81,6.09,0,3.69-1.69,6.5-5.67,6.5-3.3,0-5.15-1.69-5.15-4.94Z" fill="#3b4351"/><path d="M49.52,84.78C53.06,84.78,55,87,55,94.17s-2,9.39-5.51,9.39S44,101.35,44,94.17,46,84.78,49.52,84.78Zm0,16.7c2,0,2.55-2,2.55-7.31s-.55-7.31-2.55-7.31S47,88.84,47,94.17,47.52,101.48,49.52,101.48Z" fill="#3b4351"/></g></g><g id="Nation_OUtlines" data-name="Nation OUtlines"><polygon id="Iranians" points="1263.29 -108.83 1235.95 -223 1211.95 -337.5 1241.29 -447.5 1280.62 -560 1217.95 -674.83 1163.29 -784.16 1140.62 -897.5 1175.95 -1008 1153.29 -1122.83 1137.95 -1236.16 1188.62 -1347.5 1153.95 -1460.16 1161.95 -1573 1156.67 -1688.27 1152.84 -1805.5 1131.29 -1912 1198.62 -2022.5 1275.29 -2134.5 1277.29 -2248.16 1268.62 -2357.83 1283.88 -2469.83 1411.11 -2469.83 1445.69 -2358.27 1480.18 -2247.6 1462.18 -2134.5 1438.19 -2022.5 1387.19 -1912 1387.19 -1800 1420.19 -1685.07 1429.19 -1573 1400.69 -1460.08 1417.19 -1347 1343.69 -1236 1325.69 -1122 1345.19 -1008 1313.69 -896 1298.69 -784 1310.69 -674 1348.19 -560 1313.69 -447 1285.19 -336 1294.19 -223 1372.19 -108.83 1373.74 -0.27 1375.34 111.73 1376.98 227 1335.62 337 1348.62 449 1391.1 561 1462.62 672 1440.62 784.73 1447.62 901 1472.62 1013 1505.62 1124.73 1513.62 1234.73 1437.62 1346.73 1391.82 1461.73 1219.62 1347 1086.62 1235 890.71 1124.73 788.62 1013 767.62 901 866.62 785 1041.62 671.73 1176.62 560.73 1205.62 448.73 1242.62 336.73 1294.62 227 1322.62 114.17 1240.62 0 1263.29 -108.83" fill="none" stroke="#3b4351" stroke-miterlimit="10"/><polygon id="Indians" points="1372.19 -108.83 1294.19 -223 1285.19 -336 1313.69 -447 1348.19 -560 1310.69 -674 1298.69 -784 1313.69 -896 1345.19 -1008 1325.69 -1122 1343.69 -1236 1417.19 -1347 1400.69 -1460.08 1429.19 -1573 1419.27 -1688.27 1387.19 -1800 1387.19 -1912 1438.19 -2022.5 1462.18 -2134.5 1480.18 -2247.54 1445.82 -2357.83 1411.11 -2469.83 1545.86 -2469.83 1580.1 -2357.83 1593.12 -2247.6 1552.12 -2134.5 1514.62 -2022.5 1514.12 -1912.33 1553.12 -1800.27 1548.12 -1688 1519.62 -1573 1534.12 -1459.33 1575.12 -1347 1559.62 -1236 1564.12 -1122.27 1534.62 -1008 1486.12 -896 1465.12 -784 1471.12 -674.83 1502.12 -560.83 1508.12 -447 1534.62 -336 1542.77 -257.14 1555.62 -108.83 1554.62 0 1567.12 112 1542.12 226.73 1498.12 337 1490.62 449 1513.12 561 1568.62 672 1544.12 785 1530.62 900.73 1523.62 1012.73 1532.62 1125 1565.12 1235 1543.62 1347 1514.12 1462 1490.12 1571.73 1495.62 1686 1517.12 1799.67 1528.12 1905 1580.62 2017.67 1578.12 2133.67 1578.12 2244.17 1560.12 2355.73 1526.62 2471 1467.62 2585 1381.62 2696.73 1270.62 2807 1090.12 2919.73 860.62 3028 1302.12 3143 1377.03 3255 1550.62 3368 1519.62 3477.83 1476.12 3590.83 1516.13 3704.83 1534.62 3817.17 1552.65 3927.83 1585.62 4041.73 1620.12 4156.83 1650.12 4267.83 1630.62 4375.73 1622.45 4492.73 1565.62 4603.83 1402.62 4717.17 1173.62 4829.83 1148.62 4940.83 1334.62 5055.83 1283.62 5169.83 1344.62 5278.83 1544.62 5391.83 1602.62 5506.17 1627.62 5617.83 1674.62 5730.73 1627.62 5845.83 1634.62 5957.83 1686.62 6069.83 1701.62 6182.83 1620.12 6294.83 1606.12 6405.83 1606.12 6519.66 1552.62 6519.66 1549.52 6405.83 1569.62 6294.83 1683.62 6182.83 1667.62 6069.83 1607.62 5957.83 1596.62 5845.17 1617.62 5730.83 1584.62 5617.83 1562.62 5505.83 1507.62 5391.83 1304.62 5278.73 1225.62 5169.73 1236.97 5132.78 1264.87 5055.83 1082.62 4940.83 1084.2 4830.34 1323.62 4717.83 1500.47 4603.73 1573.62 4492.83 1600.62 4375.83 1604.62 4267.83 1569.62 4156.83 1514.62 4041.83 1447.62 3927.73 1418.62 3815.83 1404.62 3704.83 1367.62 3590.83 1397.62 3477.83 1418.62 3367.73 1339.62 3254.73 1246.62 3143 748.62 3028 753.62 2920 910.76 2807 1053.62 2697 1195.2 2585 1311.62 2470.17 1353.62 2356 1348.62 2245 1364.62 2133.17 1406.62 2018 1401.62 1905 1429.62 1800 1394.62 1685.73 1393.2 1572 1391.82 1461.73 1437.52 1347 1513.62 1234.73 1505.64 1125 1472.62 1013.17 1447.62 901 1440.63 785 1462.62 672 1391.1 561 1348.62 449 1332.62 337 1376.98 227 1375.34 111.73 1373.74 -0.27 1372.19 -108.83" fill="none" stroke="#3b4351" stroke-miterlimit="10"/><polygon id="Huns" points="1555.62 -108.83 1545.73 -223 1533.62 -336.33 1506.68 -446.36 1502.16 -560 1471.34 -674 1465.12 -784 1486.12 -896 1534.62 -1008 1564.05 -1122 1559.62 -1236 1575.12 -1347 1534.24 -1459 1519.62 -1573 1548.12 -1688 1553.11 -1800 1514.47 -1912.27 1514.62 -2024.5 1552.12 -2134.5 1593.12 -2247.16 1580.1 -2357.83 1545.86 -2469.83 1633.99 -2469.83 1651.62 -2357.83 1667.62 -2247.16 1646.62 -2134.5 1620.62 -2022.5 1630.4 -1914.4 1650.62 -1800.33 1676.62 -1688 1700.12 -1573 1689.12 -1459 1714.62 -1347.33 1697.12 -1236.27 1645.62 -1122.27 1616.12 -1008 1586.62 -896.27 1538.12 -784.27 1509.12 -674 1551.62 -560 1585.12 -447 1608.62 -336.33 1609.69 -223.27 1610.76 -110.27 1613.62 -0.27 1625.12 111.73 1599.12 227.67 1557.59 337 1545.65 449 1558.62 561 1584.62 671.73 1571.12 785.17 1576.62 901 1567.62 1013 1587.12 1125 1621.12 1235 1612.12 1347 1556.12 1462 1528.62 1572 1529.62 1686 1553.62 1800 1616.07 1905 1609.25 2018 1592.66 2134 1611.01 2244.73 1612.12 2356 1598.04 2471 1564.12 2585 1534.29 2697 1602.12 2806.73 1653.62 2920 1673.62 3028 1666.12 3143 1668.12 3254.67 1625.62 3367.67 1542.12 3477.83 1476.12 3590.83 1519.62 3477.83 1550.62 3368 1376.62 3254.73 1302.12 3143 860.62 3028 1090.12 2919.73 1270.62 2807 1381.62 2696.73 1467.62 2585 1526.62 2471 1560.12 2355.73 1578.12 2244.17 1578.12 2133.67 1580.62 2017.67 1528.12 1905 1517.12 1799.67 1495.62 1686 1490.12 1571.73 1514.12 1462 1543.62 1347 1565.12 1235 1532.62 1125 1523.62 1012.73 1530.62 900.73 1544.12 785 1568.62 672 1513.12 561 1490.62 449 1498.12 337 1542.12 226.73 1567.12 112 1554.62 0 1555.62 -108.83" fill="none" stroke="#3b4351" stroke-miterlimit="10"/><polygon id="Greeks" points="1131.14 1905 1118.7 1800 998.71 1686 683.72 1572 467.73 1462 287.74 1347 231.95 1235 205.28 1125 169.95 1013 149.95 901 137.95 785 116.62 672 111.95 561 95.28 449 85.95 337 75.42 227 75.42 53.67 75.42 -1236 142.25 -1122 145.25 -1008 155.75 -896 172.25 -784 202.25 -674 223.25 -560 251.62 -447 250.62 -336 221.95 -222.16 228.6 -110.27 199.95 -0.16 217.95 111.84 237.43 227 262.62 337 259.95 449 319.29 561 349.95 672 401.29 785 527.28 901 645.95 1013 761.95 1125 965.29 1235 965.95 1347 897.95 1461.17 910.76 1571.73 1099.37 1686 1168.66 1800.09 1131.14 1905" fill="none" stroke="#3b4351" stroke-miterlimit="10"/><polygon id="Egyptians" points="1195.2 2015.31 1131.14 1905 1168.66 1800.09 1099.2 1685.73 910.76 1571.73 897.95 1461.17 965.95 1347 965.28 1234.5 761.95 1125 645.95 1013 527.28 901 401.29 785 349.95 672 319.29 561 259.95 449 262.62 337 238.62 227 217.95 112 199.95 0 228.62 -110 221.62 -223 250.62 -336 251.62 -447 223.25 -560 271.57 -674 265.25 -784 305.74 -896 341.74 -1008 376.24 -1122 440.74 -1236 467.73 -1346.09 443.74 -1459 381.96 -1573 242.75 -1688 298.62 -1800 424.24 -1912 460.24 -2022.5 397.24 -2134.5 319.24 -2247.16 319.24 -2357.83 298.62 -2469.83 1103.77 -2469.83 1042.62 -2357.83 982.62 -2247.16 940.62 -2134.5 786.62 -2022.5 663.62 -1912 633.62 -1800 662.62 -1688 656.62 -1573.08 733.62 -1459.27 800.62 -1347.83 770.62 -1236 750.62 -1122 785.62 -1008 835.62 -896 742.62 -784 658.62 -674 439.62 -560 400.62 -447 361.62 -336 302.62 -223 310.62 -110 282.62 0 271.95 112 305.95 337 323.95 448.5 432.62 561 476.62 671.17 451.95 785 555.95 901 667.28 1013 813.28 1125 968.62 1235 995.95 1347 968.62 1461.84 940.62 1570.5 1130.91 1685.73 1189.62 1800.67 1157.7 1905 1195.2 2015.31" fill="none" stroke="#3b4351" stroke-miterlimit="10"/><polygon id="Chinese" points="1610.76 -110.27 1609.69 -223.27 1608.62 -336.33 1585.12 -447 1551.62 -560 1509.12 -674 1538.12 -784.27 1586.62 -896.27 1616.12 -1008 1645.62 -1122.27 1697.12 -1236.27 1714.62 -1347.33 1689.12 -1459 1700.12 -1573 1676.62 -1688 1650.62 -1800.33 1630.62 -1912 1620.62 -2022.5 1646.62 -2134.5 1667.62 -2247.16 1651.62 -2357.83 1633.99 -2469.83 1768.79 -2469.83 1768.79 5730.83 1768.79 5845.73 1766.12 5957.83 1757.62 6069.83 1736.12 6182.73 1676.12 6294.73 1661.12 6405.83 1663.62 6519.66 1606.12 6519.66 1606.12 6405.73 1620.12 6294.83 1701.62 6182.83 1696.12 6069.67 1654.12 5957.83 1681.62 5845.83 1739.62 5730.73 1748.62 5617.67 1744.12 5505.67 1685.62 5391.83 1615.12 5281.17 1636.12 5169.83 1738.62 5055.83 1761.12 4940.83 1758.62 4829.83 1732.12 4717.83 1695.62 4603.83 1667.62 4492.83 1651.12 4375.83 1650.12 4267.83 1620.12 4156.83 1585.62 4041.73 1552.62 3927.73 1535.12 3815.83 1516.12 3704.73 1476.12 3590.83 1542.12 3477.83 1625.62 3367.67 1668.12 3254.67 1666.12 3143 1673.62 3028 1653.62 2920 1602.12 2806.73 1534.12 2696.73 1564.12 2585 1598.12 2470.73 1612.12 2356 1611.01 2244.73 1592.62 2133.73 1609.25 2018 1616.07 1905 1553.62 1800 1529.62 1686 1528.62 1571.73 1555.62 1462 1612.12 1347 1621.12 1235 1587.12 1125 1567.62 1013 1576.62 901 1571.12 785 1584.62 671.73 1558.62 561 1545.62 448.73 1557.62 336.73 1599.62 227 1625.12 111.73 1613.62 -0.27 1610.76 -110.27" fill="none" stroke="#3b4351" stroke-miterlimit="10"/><polygon id="Amorites" points="1263.29 -108.83 1240.62 0 1322.62 112 1294.62 227 1242.62 336.73 1205.62 448.73 1176.62 560.73 1041.62 671.73 866.62 785 767.62 901 788.62 1013 890.71 1124.73 762.62 1012.73 716.62 900.73 709.62 785 755.62 672 1054.29 560.73 1156.62 449 1173.62 335.17 1199.62 225.17 1138.62 112 910.76 0 832.62 -110.27 949.95 -223 1040.62 -336.27 1141.31 -447 1225.29 -560.16 1147.62 -674 1085.29 -784 1061.29 -896.27 1028.62 -1008.27 971.95 -1122.16 961.95 -1236.83 992.62 -1347 910.76 -1459.27 853.28 -1573 826.62 -1688 785.95 -1800 823.95 -1912 910.76 -2022.5 1027.29 -2134.5 1025.29 -2247.16 1091.29 -2357.83 1152.07 -2469.83 1283.88 -2469.83 1268.62 -2357.83 1277.29 -2248.16 1275.29 -2134.5 1198.62 -2022.5 1131.29 -1912 1153.95 -1800 1156.67 -1688.27 1161.95 -1573 1153.95 -1460.16 1188.62 -1347.5 1137.95 -1236.16 1153.29 -1122.83 1175.95 -1008 1140.62 -897.5 1163.29 -784.16 1217.95 -674.83 1280.62 -560 1241.29 -447.5 1211.95 -337.5 1235.95 -223 1263.29 -108.83" fill="none" stroke="#3b4351" stroke-miterlimit="10"/><polygon id="Assyrian_Kingdom" data-name="Assyrian Kingdom" points="631.95 -110.27 635.28 -223 679.9 -336 701.28 -447 799.28 -560 980.62 -674 1007.95 -784 1020.62 -896 998.62 -1008 971.95 -1122.16 1028.62 -1008.27 1061.29 -896.27 1085.29 -784 1147.62 -674 1225.29 -560.16 1141.31 -447 1040.62 -336.27 949.95 -223 832.62 -110.27 910.76 0 1138.62 112 1199.62 225.17 1173.62 335.17 1156.62 449 1054.29 560.73 755.62 672 709.62 785 716.62 900.73 658.28 785 654.62 672 630.95 561 510.62 449 518.62 337 595.95 227 638.62 112 643.28 0 631.95 -110.27" fill="none" stroke="#3b4351" stroke-miterlimit="10"/><polygon id="OPians" points="305.95 337 289.61 228.83 271.95 112 282.62 0 310.62 -110 302.62 -223 361.62 -336 337.24 -223 347.74 -110.27 359.29 112 383.29 227 387.95 337 375.82 449 465.29 561 476.62 671.17 432.62 561 323.95 448.5 305.95 337" fill="none" stroke="#3b4351" stroke-miterlimit="10"/><polygon id="Hebrews" points="635.28 -223 631.95 -110.27 643.28 0 638.62 112 595.95 227 518.62 337 510.62 449 630.95 561 654.62 672 658.28 785 716.62 900.73 647.18 785 644.62 672 617.95 561 493.29 449 500.03 337 570.62 227 613.28 113 583.28 0 569.28 -110 511.95 -223 573.95 -336 630.62 -447 697.58 -560 921.28 -674 989.95 -784 1020.62 -896 1007.95 -784 980.62 -674 799.28 -560 701.28 -447 679.9 -336 635.28 -223" fill="none" stroke="#3b4351" stroke-miterlimit="10"/><polygon id="Syrians" points="500.03 337 493.29 449 439.95 337 428.62 227 479.29 112 509.95 0 538.62 -110 511.95 -223 569.28 -110 583.28 0 613.28 113 570.62 227 500.03 337" fill="none" stroke="#3b4351" stroke-miterlimit="10"/><polygon points="1130.91 1685.73 940.62 1570.5 968.62 1461.84 995.95 1347 968.62 1235 813.28 1125 667.28 1013 624.62 901 611.95 785 608.62 672 523.28 561 375.82 449 387.95 337 383.29 227 359.29 112 340.62 1.16 347.74 -110.27 394.24 -223 481.23 -336 566.62 -447 623.95 -560 857.28 -674 954.62 -786.16 975.28 -896.16 969.28 -1008 971.95 -1122.16 998.62 -1008 1020.62 -896 989.95 -784 921.28 -674 697.58 -560 630.62 -447 573.95 -336 511.95 -223 538.62 -110 509.95 0 479.29 112 428.62 227 439.95 337 493.29 449 617.95 561 644.62 672 647.18 785 716.62 900.73 762.62 1012.73 890.71 1124.73 1086.62 1235 1219.62 1347 1225.12 1462 1186.62 1572 1130.91 1685.73" fill="none" stroke="#3b4351" stroke-miterlimit="10"/></g><g id="Text"><g id="Egytians"><g id="small-2" data-name="small"><path d="M223.8,18.59v.21c0,1.81-.74,3.57-3.08,3.57-2.53,0-3.31-1.62-3.31-5.2s.78-5.19,3.32-5.19c2.84,0,3,2.08,3,3.14v.18h-1.6v-.17c0-.94-.28-2-1.42-2s-1.71.73-1.71,3.95.52,4,1.71,4c1.34,0,1.48-1.47,1.48-2.41v-.17Z" fill="#3b4351"/><path d="M224.89,12.06h1.51v1.51h-1.51Zm0,2.58h1.51v7.53h-1.51Z" fill="#3b4351"/><path d="M227.29,14.64h1.63l1.32,5.94h0l1.19-5.94h1.61l-2,7.53h-1.77Z" fill="#3b4351"/><path d="M234,12.06h1.51v1.51H234Zm0,2.58h1.51v7.53H234Z" fill="#3b4351"/><path d="M237.07,12.17h1.51v10h-1.51Z" fill="#3b4351"/><path d="M243,14.64h1.56l1.05,5.94h0l1.12-5.94h1.71l1.12,5.94h0l1-5.94h1.51l-1.72,7.53h-1.7l-1.17-5.85h0l-1.08,5.85h-1.77Z" fill="#3b4351"/><path d="M257.83,20.61c0,.28.17.53.39.53a.72.72,0,0,0,.25,0v1a1.68,1.68,0,0,1-.74.18c-.67,0-1.23-.27-1.27-1h0a1.94,1.94,0,0,1-1.88,1.11c-1.22,0-2-.66-2-2.11a2.08,2.08,0,0,1,1.75-2.37l1.18-.32c.55-.16.88-.31.88-1s-.24-1.12-1-1.12c-1,0-1.14.71-1.14,1.44h-1.43c0-1.61.66-2.48,2.64-2.48,1.34,0,2.4.52,2.4,1.85ZM256.4,18.2a13.82,13.82,0,0,1-1.68.7,1.25,1.25,0,0,0-.62,1.22c0,.63.31,1.13.94,1.13.91,0,1.36-.67,1.36-1.79Z" fill="#3b4351"/><path d="M259.37,14.64h1.51v1.18h0a1.86,1.86,0,0,1,1.75-1.38.87.87,0,0,1,.36.06V16a2.18,2.18,0,0,0-.63-.08c-.68,0-1.51.3-1.51,1.71v4.5h-1.51Z" fill="#3b4351"/><path d="M262.64,20.33h1.6v1.84h-1.6Z" fill="#3b4351"/><path d="M214.89,31.17h2.49l1.77,7.41h0l1.73-7.41h2.44v10h-1.51V32.85h0l-2,8.32h-1.34l-2-8.32h0v8.32h-1.51Z" fill="#3b4351"/><path d="M224.61,37.41c0-2.36.61-4,2.8-4s2.81,1.61,2.81,4-.73,4-2.81,4S224.61,39.76,224.61,37.41Zm2.8,2.84c1.1,0,1.3-.92,1.3-2.84,0-1.67-.2-2.85-1.3-2.85s-1.29,1.18-1.29,2.85C226.12,39.33,226.33,40.25,227.41,40.25Z" fill="#3b4351"/><path d="M231.38,33.64h1.51v1.18h0a1.88,1.88,0,0,1,1.75-1.38.92.92,0,0,1,.37.06V35a2.24,2.24,0,0,0-.63-.08c-.69,0-1.52.3-1.52,1.71v4.5h-1.51Z" fill="#3b4351"/><path d="M240.65,39.61c0,.28.17.53.39.53a.78.78,0,0,0,.26,0v1a1.76,1.76,0,0,1-.75.18c-.67,0-1.23-.27-1.27-1h0a1.93,1.93,0,0,1-1.88,1.11c-1.21,0-2-.66-2-2.11a2.08,2.08,0,0,1,1.75-2.37l1.18-.32c.55-.16.88-.31.88-1s-.23-1.12-1-1.12c-1,0-1.15.71-1.15,1.44h-1.43c0-1.61.66-2.48,2.65-2.48,1.33,0,2.39.52,2.39,1.85Zm-1.43-2.41a13.18,13.18,0,0,1-1.68.7,1.24,1.24,0,0,0-.61,1.22c0,.63.3,1.13.94,1.13.91,0,1.35-.67,1.35-1.79Z" fill="#3b4351"/><path d="M242.26,31.17h1.51v10h-1.51Z" fill="#3b4351"/><path d="M253.6,39.61c0,.28.17.53.39.53a.78.78,0,0,0,.26,0v1a1.76,1.76,0,0,1-.75.18c-.67,0-1.23-.27-1.27-1h0a1.93,1.93,0,0,1-1.88,1.11c-1.21,0-2-.66-2-2.11a2.08,2.08,0,0,1,1.75-2.37l1.18-.32c.55-.16.88-.31.88-1s-.23-1.12-1-1.12c-1,0-1.15.71-1.15,1.44h-1.43c0-1.61.66-2.48,2.65-2.48,1.33,0,2.39.52,2.39,1.85Zm-1.43-2.41a13.82,13.82,0,0,1-1.68.7,1.24,1.24,0,0,0-.61,1.22c0,.63.3,1.13.93,1.13.92,0,1.36-.67,1.36-1.79Z" fill="#3b4351"/><path d="M255.14,33.64h1.43v.88h0a2.17,2.17,0,0,1,1.93-1.08c1.15,0,1.88.52,1.88,2.05v5.68h-1.51V36c0-1-.27-1.36-1.05-1.36-.62,0-1.21.46-1.21,1.47v5.05h-1.51Z" fill="#3b4351"/><path d="M265.73,40.25h0A1.61,1.61,0,0,1,264,41.37c-1.75,0-2.46-1.48-2.46-4.06,0-3.35,1.18-3.87,2.32-3.87a1.74,1.74,0,0,1,1.71,1.08h0V31.17h1.51v10h-1.42Zm-1.38-5.6c-.85,0-1.17.7-1.17,2.73,0,1.71.21,2.79,1.27,2.79s1.28-1.05,1.28-2.68C265.73,35.68,265.53,34.65,264.35,34.65Z" fill="#3b4351"/><path d="M217,56.6V57c0,1,.13,2.29,1.26,2.29s1.21-1.21,1.21-1.68h1.43a2.48,2.48,0,0,1-2.65,2.72c-1.23,0-2.76-.36-2.76-3.85,0-2,.43-4.08,2.79-4.08,2.1,0,2.66,1.28,2.66,3.36v.8Zm2.43-1v-.41c0-.95-.31-1.68-1.17-1.68s-1.26,1-1.26,1.93v.16Z" fill="#3b4351"/><path d="M227.23,57.43c-.12,1.81-.7,2.94-2.58,2.94-2.19,0-2.8-1.61-2.8-4s.61-4,2.8-4a2.44,2.44,0,0,1,2.59,2.71h-1.51c0-.7-.18-1.63-1.08-1.59-1.08,0-1.29,1.18-1.29,2.85s.21,2.84,1.29,2.84c.84,0,1.15-.69,1.15-1.82Z" fill="#3b4351"/><path d="M228.06,56.41c0-2.36.62-4,2.81-4s2.81,1.61,2.81,4-.73,4-2.81,4S228.06,58.76,228.06,56.41Zm2.81,2.84c1.1,0,1.3-.92,1.3-2.84,0-1.67-.2-2.85-1.3-2.85s-1.29,1.18-1.29,2.85C229.58,58.33,229.79,59.25,230.87,59.25Z" fill="#3b4351"/><path d="M234.84,52.64h1.43v.88h0a2.17,2.17,0,0,1,1.93-1.08c1.15,0,1.88.52,1.88,2.05v5.68h-1.51V55c0-1-.27-1.36-1.05-1.36-.62,0-1.21.46-1.21,1.47v5.05h-1.51Z" fill="#3b4351"/><path d="M241.28,56.41c0-2.36.62-4,2.8-4s2.82,1.61,2.82,4-.73,4-2.82,4S241.28,58.76,241.28,56.41Zm2.8,2.84c1.11,0,1.3-.92,1.3-2.84,0-1.67-.19-2.85-1.3-2.85s-1.29,1.18-1.29,2.85C242.79,58.33,243,59.25,244.08,59.25Z" fill="#3b4351"/><path d="M248.13,52.64h1.42v.88h0a2.1,2.1,0,0,1,1.8-1.08,1.63,1.63,0,0,1,1.75,1.15,2.07,2.07,0,0,1,1.91-1.15c1.06,0,1.83.55,1.83,2v5.72h-1.51V55c0-1-.29-1.36-.91-1.36s-1.2.47-1.2,1.47v5.05h-1.52V55c0-1-.29-1.36-.92-1.36s-1.19.49-1.19,1.47v5.05h-1.51Z" fill="#3b4351"/><path d="M258.49,50.06H260v1.51h-1.51Zm0,2.58H260v7.53h-1.51Z" fill="#3b4351"/><path d="M266.61,57.43c-.11,1.81-.7,2.94-2.58,2.94-2.18,0-2.8-1.61-2.8-4s.62-4,2.8-4a2.44,2.44,0,0,1,2.59,2.71h-1.51c0-.7-.18-1.63-1.08-1.59-1.08,0-1.29,1.18-1.29,2.85s.21,2.84,1.29,2.84c.84,0,1.15-.69,1.15-1.82Z" fill="#3b4351"/><path d="M224.7,78.25h0A1.61,1.61,0,0,1,223,79.37c-1.75,0-2.47-1.48-2.47-4.06,0-3.35,1.18-3.87,2.33-3.87a1.75,1.75,0,0,1,1.71,1.08h0V69.17h1.51v10H224.7Zm-1.37-5.6c-.86,0-1.18.7-1.18,2.73,0,1.71.21,2.79,1.27,2.79s1.28-1,1.28-2.68C224.7,73.68,224.5,72.65,223.33,72.65Z" fill="#3b4351"/><path d="M228.88,75.6V76c0,1,.13,2.29,1.26,2.29s1.21-1.21,1.21-1.68h1.43a2.48,2.48,0,0,1-2.65,2.72c-1.23,0-2.76-.36-2.76-3.85,0-2,.44-4.08,2.79-4.08,2.1,0,2.66,1.28,2.66,3.36v.8Zm2.43-1v-.41c0-1-.31-1.68-1.17-1.68s-1.26,1-1.26,1.93v.16Z" fill="#3b4351"/><path d="M239.15,76.43c-.11,1.81-.7,2.94-2.58,2.94-2.18,0-2.8-1.61-2.8-4s.62-4,2.8-4a2.44,2.44,0,0,1,2.59,2.71h-1.51c0-.7-.18-1.63-1.08-1.59-1.08,0-1.29,1.18-1.29,2.85s.21,2.84,1.29,2.84c.84,0,1.15-.69,1.15-1.82Z" fill="#3b4351"/><path d="M240.35,69.17h1.51v10h-1.51Z" fill="#3b4351"/><path d="M243.46,69.06H245v1.51h-1.51Zm0,2.58H245v7.53h-1.51Z" fill="#3b4351"/><path d="M246.49,71.64h1.43v.88H248a2.15,2.15,0,0,1,1.93-1.08c1.15,0,1.88.52,1.88,2v5.68h-1.52V74c0-1-.26-1.36-1-1.36-.61,0-1.2.46-1.2,1.47v5h-1.52Z" fill="#3b4351"/><path d="M254.53,75.6V76c0,1,.13,2.29,1.26,2.29S257,77.12,257,76.65h1.43a2.48,2.48,0,0,1-2.65,2.72c-1.24,0-2.76-.36-2.76-3.85,0-2,.43-4.08,2.79-4.08,2.1,0,2.66,1.28,2.66,3.36v.8Zm2.42-1v-.41c0-1-.3-1.68-1.16-1.68s-1.26,1-1.26,1.93v.16Z" fill="#3b4351"/><path d="M259.35,77.33h1.59v1.84h-1.59Z" fill="#3b4351"/></g></g></g></svg>