<svg xmlns="http://www.w3.org/2000/svg" viewBox="0 0 1847.91 115"><title>bc0800text</title><g id="Text"><g id="Huns"><path d="M1567.48,37.29h2.79v7h5.14v-7h2.8v17.5h-2.8V46.66h-5.14v8.13h-2.79Z"/><path d="M1583.67,37.29V49.84c0,2.23.88,3.19,2.57,3.19s2.55-1,2.55-3.19V37.29h2.8V49.62c0,4-2,5.51-5.35,5.51s-5.36-1.47-5.36-5.51V37.29Z"/><path d="M1594.25,37.29h3.41l5.07,13h0v-13h2.65v17.5H1602L1597,41.41h0V54.79h-2.65Z"/><path d="M1610.47,49.38v.44c0,2.13,1,3.21,2.87,3.21a2.51,2.51,0,0,0,2.65-2.55c0-1.84-.93-2.65-2.5-3.11l-1.91-.67c-2.55-1-3.66-2.3-3.66-4.8,0-3.18,2.19-4.95,5.44-4.95,4.49,0,5,2.8,5,4.61V42h-2.79v-.37c0-1.59-.69-2.52-2.45-2.52a2.23,2.23,0,0,0-2.35,2.52c0,1.5.76,2.26,2.62,3l1.89.68c2.47.89,3.55,2.21,3.55,4.64,0,3.72-2.25,5.26-5.78,5.26-4.34,0-5.32-2.89-5.32-5.34v-.41Z"/></g><g id="Greeks"><path d="M123.72,84.75h3.58l4.6,17.49H129L127.91,98h-5.12l-1.13,4.28h-2.92Zm3.72,11-2-8.63h-.05l-2.08,8.63Z"/><path d="M133.12,84.75h9.46V87.1h-6.66V92h6.27V94.3h-6.27v5.59h6.86v2.35h-9.66Z"/><path d="M153.56,100.21h-.05a3.63,3.63,0,0,1-3.82,2.38c-3.83,0-5.2-2.85-5.2-9.09s1.77-9.1,5.81-9.1a4.76,4.76,0,0,1,5.12,5v.32h-2.65v-.42c0-1.29-.53-2.84-2.45-2.84s-3,1.32-3,6.91.93,7.06,2.81,7.06c2.14,0,2.92-1.52,2.92-5.34h-2.94V93h5.59v9.21h-2.11Z"/><path d="M158.06,84.75h9.46V87.1h-6.66V92h6.27V94.3h-6.27v5.59h6.86v2.35h-9.66Z"/><path d="M173.16,84.75h3.58l4.6,17.49h-2.91L177.35,98h-5.12l-1.13,4.28h-2.92Zm3.72,11-2-8.63h-.05l-2.08,8.63Z"/><path d="M182.56,84.75H186l5.07,13h.05v-13h2.65v17.49h-3.41l-5.07-13.38h0v13.38h-2.65Z"/><path d="M198.78,96.83v.44c0,2.13,1,3.21,2.87,3.21a2.51,2.51,0,0,0,2.65-2.55c0-1.84-.93-2.65-2.5-3.11l-1.91-.66c-2.55-1-3.66-2.31-3.66-4.81,0-3.18,2.19-4.95,5.45-4.95,4.48,0,4.95,2.8,4.95,4.61v.39h-2.8V89c0-1.6-.68-2.53-2.45-2.53A2.23,2.23,0,0,0,199,89c0,1.49.76,2.25,2.62,3l1.89.69c2.47.88,3.55,2.2,3.55,4.63,0,3.72-2.25,5.27-5.78,5.27-4.34,0-5.32-2.89-5.32-5.35v-.41Z"/></g></g><g id="YEARS"><g id="Right"><path d="M1777.56,104.31c0-2.73,1.3-4.21,3.15-4.6v0c-1.59-.55-2.55-1.77-2.55-4,0-2.89,1.87-4.63,5-4.63s5,1.74,5,4.63c0,2.21-1,3.43-2.54,4v0c1.84.39,3.14,1.87,3.14,4.6,0,3.64-1.79,5.51-5.56,5.51S1777.56,108,1777.56,104.31Zm5.57,3.43c2.08,0,2.6-1.53,2.6-3.48s-.52-3.49-2.6-3.49-2.6,1.54-2.6,3.49S1781.05,107.74,1783.13,107.74Zm0-9c1.84,0,2.31-1.35,2.31-2.8s-.47-2.76-2.31-2.76-2.32,1.3-2.32,2.76S1781.28,98.69,1783.13,98.69Z"/><path d="M1795.61,91.05c3.53,0,5.51,2.21,5.51,9.39s-2,9.38-5.51,9.38-5.51-2.21-5.51-9.38S1792.07,91.05,1795.61,91.05Zm0,16.69c2,0,2.55-2,2.55-7.3s-.55-7.31-2.55-7.31-2.55,2-2.55,7.31S1793.61,107.74,1795.61,107.74Z"/><path d="M1808.09,91.05c3.53,0,5.51,2.21,5.51,9.39s-2,9.38-5.51,9.38-5.51-2.21-5.51-9.38S1804.55,91.05,1808.09,91.05Zm0,16.69c2,0,2.55-2,2.55-7.3s-.55-7.31-2.55-7.31-2.55,2-2.55,7.31S1806.09,107.74,1808.09,107.74Z"/></g><g id="Layer_34" data-name="Layer 34"><path d="M17.81,107.91c0-2.73,1.31-4.21,3.15-4.6v-.06c-1.59-.54-2.55-1.76-2.55-4,0-2.89,1.88-4.63,5-4.63s5,1.74,5,4.63c0,2.21-1,3.43-2.54,4v.06c1.84.39,3.14,1.87,3.14,4.6,0,3.64-1.79,5.51-5.56,5.51S17.81,111.55,17.81,107.91Zm5.57,3.43c2.08,0,2.6-1.53,2.6-3.48s-.52-3.49-2.6-3.49-2.6,1.54-2.6,3.49S21.3,111.34,23.38,111.34Zm0-9c1.84,0,2.31-1.35,2.31-2.81s-.47-2.75-2.31-2.75-2.32,1.3-2.32,2.75S21.53,102.29,23.38,102.29Z"/><path d="M35.86,94.65c3.53,0,5.51,2.21,5.51,9.38s-2,9.39-5.51,9.39-5.51-2.21-5.51-9.39S32.32,94.65,35.86,94.65Zm0,16.69c2,0,2.55-2,2.55-7.31s-.55-7.3-2.55-7.3-2.55,2-2.55,7.3S33.86,111.34,35.86,111.34Z"/><path d="M48.34,94.65c3.53,0,5.51,2.21,5.51,9.38s-2,9.39-5.51,9.39-5.51-2.21-5.51-9.39S44.8,94.65,48.34,94.65Zm0,16.69c2,0,2.55-2,2.55-7.31s-.55-7.3-2.55-7.3-2.55,2-2.55,7.3S46.34,111.34,48.34,111.34Z"/><path d="M19.48-5.32c0-2.73,1.3-4.21,3.15-4.6V-10c-1.59-.54-2.55-1.76-2.55-4,0-2.89,1.87-4.63,5-4.63s5,1.74,5,4.63c0,2.21-1,3.43-2.55,4v.06c1.85.39,3.15,1.87,3.15,4.6,0,3.64-1.79,5.51-5.56,5.51S19.48-1.68,19.48-5.32Zm5.57,3.43c2.08,0,2.59-1.53,2.59-3.48s-.51-3.49-2.59-3.49-2.6,1.54-2.6,3.49S23-1.89,25.05-1.89Zm0-9c1.84,0,2.31-1.35,2.31-2.81s-.47-2.75-2.31-2.75-2.32,1.3-2.32,2.75S23.2-10.94,25.05-10.94Z"/><path d="M32.12-5.14h2.8v.49A2.36,2.36,0,0,0,37.34-2C39.42-2,40-4.07,40-6.23s-.57-3.93-2.47-3.93a2.36,2.36,0,0,0-2.42,1.69l-2.63-.1.91-9.65h8.87v2.37H35.57L35-11,35-11a4,4,0,0,1,3.09-1.43c3.85,0,4.81,3.25,4.81,6.08,0,3.69-1.69,6.5-5.66,6.5C34,.19,32.12-1.5,32.12-4.75Z"/><path d="M50-18.58c3.54,0,5.52,2.21,5.52,9.38S53.54.19,50,.19,44.49-2,44.49-9.2,46.47-18.58,50-18.58ZM50-1.89c2,0,2.55-2,2.55-7.31S52-16.5,50-16.5s-2.54,2-2.54,7.3S48-1.89,50-1.89Z"/></g></g></svg>