<svg xmlns="http://www.w3.org/2000/svg" viewBox="0 0 1847.91 115"><title>bc0800text</title><g id="YEARS"><g id="Right"><path d="M1794,96.63c0-2.73,1.3-4.21,3.15-4.6V92c-1.59-.54-2.55-1.76-2.55-4,0-2.89,1.87-4.63,5-4.63s5,1.74,5,4.63c0,2.21-1,3.43-2.54,4V92c1.84.39,3.14,1.87,3.14,4.6,0,3.64-1.79,5.51-5.56,5.51S1794,100.27,1794,96.63Zm5.57,3.43c2.08,0,2.6-1.53,2.6-3.48s-.52-3.49-2.6-3.49-2.6,1.53-2.6,3.49S1797.52,100.06,1799.6,100.06Zm0-9c1.84,0,2.31-1.35,2.31-2.81s-.47-2.75-2.31-2.75-2.32,1.3-2.32,2.75S1797.75,91,1799.6,91Z" fill="#3b4351"/><path d="M1812.08,83.37c3.53,0,5.51,2.21,5.51,9.38s-2,9.39-5.51,9.39-5.52-2.21-5.52-9.39S1808.54,83.37,1812.08,83.37Zm0,16.69c2,0,2.54-2,2.54-7.31s-.54-7.3-2.54-7.3-2.55,2-2.55,7.3S1810.07,100.06,1812.08,100.06Z" fill="#3b4351"/><path d="M1824.56,83.37c3.53,0,5.51,2.21,5.51,9.38s-2,9.39-5.51,9.39-5.52-2.21-5.52-9.39S1821,83.37,1824.56,83.37Zm0,16.69c2,0,2.54-2,2.54-7.31s-.54-7.3-2.54-7.3-2.55,2-2.55,7.3S1822.55,100.06,1824.56,100.06Z" fill="#3b4351"/></g><g id="left"><path d="M19,98.53c0-2.73,1.3-4.21,3.14-4.6v-.05c-1.58-.55-2.54-1.77-2.54-4,0-2.88,1.87-4.63,5-4.63s5,1.75,5,4.63c0,2.21-1,3.43-2.55,4v.05c1.85.39,3.15,1.87,3.15,4.6,0,3.64-1.8,5.52-5.57,5.52S19,102.17,19,98.53ZM24.56,102c2.08,0,2.6-1.54,2.6-3.49S26.64,95,24.56,95,22,96.53,22,98.48,22.48,102,24.56,102Zm0-9c1.85,0,2.32-1.35,2.32-2.81s-.47-2.76-2.32-2.76-2.31,1.3-2.31,2.76S22.72,92.92,24.56,92.92Z" fill="#3b4351"/><path d="M37,85.27c3.54,0,5.51,2.21,5.51,9.39s-2,9.39-5.51,9.39-5.51-2.21-5.51-9.39S33.51,85.27,37,85.27ZM37,102c2,0,2.55-2,2.55-7.31S39,87.35,37,87.35s-2.55,2-2.55,7.31S35,102,37,102Z" fill="#3b4351"/><path d="M49.52,85.27c3.54,0,5.51,2.21,5.51,9.39s-2,9.39-5.51,9.39S44,101.84,44,94.66,46,85.27,49.52,85.27Zm0,16.7c2,0,2.55-2,2.55-7.31s-.55-7.31-2.55-7.31S47,89.33,47,94.66,47.52,102,49.52,102Z" fill="#3b4351"/></g></g><g id="Nation_OUtlines" data-name="Nation OUtlines"><polygon id="Romans" points="854.62 5279.83 829.93 5166.83 711.95 5057.83 764.62 4943.83 729.95 4828.83 845.28 4717.83 1002.62 4605.83 1065.29 4491.83 1021.28 4380.83 995.34 4263.83 815.28 4155.83 703.28 4044.83 687.28 3929.83 737.95 3815.83 780.62 3703.83 712.62 3592.83 645.95 3478.83 550.62 3365.83 491.95 3256 453.95 3143 455.29 3031 435.95 2916 470.62 2808 322.62 2808 416.12 2695 480.12 2585 410.62 2473 316.95 2359 248.28 2244 210.28 2133 175.95 2022 159.62 1906 91.28 1793 83.12 1688 117.62 1574 151.37 1460 129.62 1350 109.62 1235 99.62 1123 73.12 1013 75.42 115 85.95 225 95.28 337 111.95 449 116.62 560 137.95 673 149.95 789 169.95 901 205.28 1013 231.95 1123 287.74 1235 467.73 1350 683.72 1460 998.71 1574 1118.7 1688 1131.14 1793 1195.2 1906 1182.62 2022 1245.62 2133 1220.62 2244 1122.62 2359 981.62 2473 880.12 2585 717.95 2695 593.62 2808 616.62 2916 717.28 3031 839.28 3145.84 863.28 3256 915.28 3365.83 810.62 3478.83 885.95 3592.83 1037.95 3703.83 1125.95 3815.83 1253.95 3929.83 1213.95 4044.83 1202.62 4155.83 1169.95 4263.83 1161.29 4380.83 1218.62 4491.83 1131.95 4605.83 936.62 4717.83 798.62 4828.83 819.28 4943.83 759.95 5057.83 849.28 5166.83 854.62 5279.83" fill="none" stroke="#3b4351" stroke-miterlimit="10"/><polygon id="Iranians" points="1263.29 -220.83 1235.95 -335 1211.95 -449.5 1241.29 -559.5 1280.62 -672 1217.95 -786.83 1163.29 -896.16 1140.62 -1009.5 1175.95 -1120 1153.29 -1234.83 1137.95 -1348.16 1188.62 -1459.5 1153.95 -1572.16 1161.95 -1685 1156.67 -1800.27 1152.84 -1917.5 1131.29 -2024 1198.62 -2134.5 1275.29 -2246.5 1277.29 -2360.16 1268.62 -2469.83 1283.88 -2581.83 1411.11 -2581.83 1445.69 -2470.27 1480.18 -2359.6 1462.18 -2246.5 1438.19 -2134.5 1387.19 -2024 1387.19 -1912 1420.19 -1797.07 1429.19 -1685 1400.69 -1572.08 1417.19 -1459 1343.69 -1348 1325.69 -1234 1345.19 -1120 1313.69 -1008 1298.69 -896 1310.69 -786 1348.19 -672 1313.69 -559 1285.19 -448 1294.19 -335 1372.19 -220.83 1373.74 -112.27 1375.34 -0.27 1376.98 115 1335.62 225 1348.62 337 1391.1 449 1462.62 560 1440.62 672.73 1447.62 789 1472.62 901 1505.62 1012.73 1513.62 1122.73 1437.62 1234.73 1391.82 1349.73 1219.62 1235 1086.62 1123 890.71 1012.73 788.62 901 767.62 789 866.62 673 1041.62 559.73 1176.62 448.73 1205.62 336.73 1242.62 224.73 1294.62 115 1322.62 2.17 1240.62 -112 1263.29 -220.83" fill="none" stroke="#3b4351" stroke-miterlimit="10"/><polygon id="Indians" points="1372.19 -220.83 1294.19 -335 1285.19 -448 1313.69 -559 1348.19 -672 1310.69 -786 1298.69 -896 1313.69 -1008 1345.19 -1120 1325.69 -1234 1343.69 -1348 1417.19 -1459 1400.69 -1572.08 1429.19 -1685 1419.27 -1800.27 1387.19 -1912 1387.19 -2024 1438.19 -2134.5 1462.18 -2246.5 1480.18 -2359.54 1445.82 -2469.83 1411.11 -2581.83 1545.86 -2581.83 1580.1 -2469.83 1593.12 -2359.6 1552.12 -2246.5 1514.62 -2134.5 1514.12 -2024.33 1553.12 -1912.27 1548.12 -1800 1519.62 -1685 1534.12 -1571.33 1575.12 -1459 1559.62 -1348 1564.12 -1234.27 1534.62 -1120 1486.12 -1008 1465.12 -896 1471.12 -786.83 1502.12 -672.83 1508.12 -559 1534.62 -448 1542.77 -369.14 1555.62 -220.83 1554.62 -112 1567.12 0 1542.12 114.73 1498.12 225 1490.62 337 1513.12 449 1568.62 560 1544.12 673 1530.62 788.73 1523.62 900.73 1532.62 1013 1565.12 1123 1543.62 1235 1514.12 1350 1490.12 1459.73 1495.62 1574 1517.12 1687.67 1528.12 1793 1580.62 1905.67 1578.12 2021.67 1578.12 2132.17 1560.12 2243.73 1526.62 2359 1467.62 2473 1381.62 2584.73 1270.62 2695 1090.12 2807.73 860.62 2916 1302.12 3031 1377.03 3143 1550.62 3256 1519.62 3365.83 1476.12 3478.83 1516.13 3592.83 1534.62 3705.17 1552.65 3815.83 1585.62 3929.73 1620.12 4044.83 1650.12 4155.83 1630.62 4263.73 1622.45 4380.73 1565.62 4491.83 1402.62 4605.17 1173.62 4717.83 1148.62 4828.83 1334.62 4943.83 1283.62 5057.83 1344.62 5166.83 1544.62 5279.83 1602.62 5394.17 1627.62 5505.83 1674.62 5618.73 1627.62 5733.83 1634.62 5845.83 1686.62 5957.83 1701.62 6070.83 1620.12 6182.83 1606.12 6293.83 1606.12 6407.66 1552.62 6407.66 1549.52 6293.83 1569.62 6182.83 1683.62 6070.83 1667.62 5957.83 1607.62 5845.83 1596.62 5733.17 1617.62 5618.83 1584.62 5505.83 1562.62 5393.83 1507.62 5279.83 1304.62 5166.73 1225.62 5057.73 1236.97 5020.78 1264.87 4943.83 1082.62 4828.83 1084.2 4718.34 1323.62 4605.83 1500.47 4491.73 1573.62 4380.83 1600.62 4263.83 1604.62 4155.83 1569.62 4044.83 1514.62 3929.83 1447.62 3815.73 1418.62 3703.83 1404.62 3592.83 1367.62 3478.83 1397.62 3365.83 1418.62 3255.73 1339.62 3142.73 1246.62 3031 748.62 2916 753.62 2808 910.76 2695 1053.62 2585 1195.2 2473 1311.62 2358.17 1353.62 2244 1348.62 2133 1364.62 2021.17 1406.62 1906 1401.62 1793 1429.62 1688 1394.62 1573.73 1393.2 1460 1391.82 1349.73 1437.52 1235 1513.62 1122.73 1505.64 1013 1472.62 901.17 1447.62 789 1440.63 673 1462.62 560 1391.1 449 1348.62 337 1332.62 225 1376.98 115 1375.34 -0.27 1373.74 -112.27 1372.19 -220.83" fill="none" stroke="#3b4351" stroke-miterlimit="10"/><polygon id="Huns" points="1555.62 -220.83 1545.73 -335 1533.62 -448.33 1506.68 -558.36 1502.16 -672 1471.34 -786 1465.12 -896 1486.12 -1008 1534.62 -1120 1564.05 -1234 1559.62 -1348 1575.12 -1459 1534.24 -1571 1519.62 -1685 1548.12 -1800 1553.11 -1912 1514.47 -2024.27 1514.62 -2136.5 1552.12 -2246.5 1593.12 -2359.16 1580.1 -2469.83 1545.86 -2581.83 1633.99 -2581.83 1651.62 -2469.83 1667.62 -2359.16 1646.62 -2246.5 1620.62 -2134.5 1630.4 -2026.4 1650.62 -1912.33 1676.62 -1800 1700.12 -1685 1689.12 -1571 1714.62 -1459.33 1697.12 -1348.27 1645.62 -1234.27 1616.12 -1120 1586.62 -1008.27 1538.12 -896.27 1509.12 -786 1551.62 -672 1585.12 -559 1608.62 -448.33 1609.69 -335.27 1610.76 -222.27 1613.62 -112.27 1625.12 -0.27 1599.12 115.67 1557.59 225 1545.65 337 1558.62 449 1584.62 559.73 1571.12 673.17 1576.62 789 1567.62 901 1587.12 1013 1621.12 1123 1612.12 1235 1556.12 1350 1528.62 1460 1529.62 1574 1553.62 1688 1616.07 1793 1609.25 1906 1592.66 2022 1611.01 2132.73 1612.12 2244 1598.04 2359 1564.12 2473 1534.29 2585 1602.12 2694.73 1653.62 2808 1673.62 2916 1666.12 3031 1668.12 3142.67 1625.62 3255.67 1542.12 3365.83 1476.12 3478.83 1519.62 3365.83 1550.62 3256 1376.62 3142.73 1302.12 3031 860.62 2916 1090.12 2807.73 1270.62 2695 1381.62 2584.73 1467.62 2473 1526.62 2359 1560.12 2243.73 1578.12 2132.17 1578.12 2021.67 1580.62 1905.67 1528.12 1793 1517.12 1687.67 1495.62 1574 1490.12 1459.73 1514.12 1350 1543.62 1235 1565.12 1123 1532.62 1013 1523.62 900.73 1530.62 788.73 1544.12 673 1568.62 560 1513.12 449 1490.62 337 1498.12 225 1542.12 114.73 1567.12 0 1554.62 -112 1555.62 -220.83" fill="none" stroke="#3b4351" stroke-miterlimit="10"/><polygon id="Greeks" points="1131.14 1793 1118.7 1688 998.71 1574 683.72 1460 467.73 1350 287.74 1235 231.95 1123 205.28 1013 169.95 901 149.95 789 137.95 673 116.62 560 111.95 449 95.28 337 85.95 225 75.42 115 75.42 -58.33 75.42 -1348 142.25 -1234 145.25 -1120 155.75 -1008 172.25 -896 202.25 -786 223.25 -672 251.62 -559 250.62 -448 221.95 -334.16 228.6 -222.27 199.95 -112.16 217.95 -0.16 237.43 115 262.62 225 259.95 337 319.29 449 349.95 560 401.29 673 527.28 789 645.95 901 761.95 1013 965.29 1123 965.95 1235 897.95 1349.17 910.76 1459.73 1099.37 1574 1168.66 1688.09 1131.14 1793" fill="none" stroke="#3b4351" stroke-miterlimit="10"/><polygon id="Egyptians" points="1195.2 1903.31 1131.14 1793 1168.66 1688.09 1099.2 1573.73 910.76 1459.73 897.95 1349.17 965.95 1235 965.28 1122.5 761.95 1013 645.95 901 527.28 789 401.29 673 349.95 560 319.29 449 259.95 337 262.62 225 238.62 115 217.95 0 199.95 -112 228.62 -222 221.62 -335 250.62 -448 251.62 -559 223.25 -672 271.57 -786 265.25 -896 305.74 -1008 341.74 -1120 376.24 -1234 440.74 -1348 467.73 -1458.09 443.74 -1571 381.96 -1685 242.75 -1800 298.62 -1912 424.24 -2024 460.24 -2134.5 397.24 -2246.5 319.24 -2359.16 319.24 -2469.83 298.62 -2581.83 1103.77 -2581.83 1042.62 -2469.83 982.62 -2359.16 940.62 -2246.5 786.62 -2134.5 663.62 -2024 633.62 -1912 662.62 -1800 656.62 -1685.08 733.62 -1571.27 800.62 -1459.83 770.62 -1348 750.62 -1234 785.62 -1120 835.62 -1008 742.62 -896 658.62 -786 439.62 -672 400.62 -559 361.62 -448 302.62 -335 310.62 -222 282.62 -112 271.95 0 305.95 225 323.95 336.5 432.62 449 476.62 559.17 451.95 673 555.95 789 667.28 901 813.28 1013 968.62 1123 995.95 1235 968.62 1349.84 940.62 1458.5 1130.91 1573.73 1189.62 1688.67 1157.7 1793 1195.2 1903.31" fill="none" stroke="#3b4351" stroke-miterlimit="10"/><polygon id="Chinese" points="1610.76 -222.27 1609.69 -335.27 1608.62 -448.33 1585.12 -559 1551.62 -672 1509.12 -786 1538.12 -896.27 1586.62 -1008.27 1616.12 -1120 1645.62 -1234.27 1697.12 -1348.27 1714.62 -1459.33 1689.12 -1571 1700.12 -1685 1676.62 -1800 1650.62 -1912.33 1630.62 -2024 1620.62 -2134.5 1646.62 -2246.5 1667.62 -2359.16 1651.62 -2469.83 1633.99 -2581.83 1768.79 -2581.83 1768.79 5618.83 1768.79 5733.73 1766.12 5845.83 1757.62 5957.83 1736.12 6070.73 1676.12 6182.73 1661.12 6293.83 1663.62 6407.66 1606.12 6407.66 1606.12 6293.73 1620.12 6182.83 1701.62 6070.83 1696.12 5957.67 1654.12 5845.83 1681.62 5733.83 1739.62 5618.73 1748.62 5505.67 1744.12 5393.67 1685.62 5279.83 1615.12 5169.17 1636.12 5057.83 1738.62 4943.83 1761.12 4828.83 1758.62 4717.83 1732.12 4605.83 1695.62 4491.83 1667.62 4380.83 1651.12 4263.83 1650.12 4155.83 1620.12 4044.83 1585.62 3929.73 1552.62 3815.73 1535.12 3703.83 1516.12 3592.73 1476.12 3478.83 1542.12 3365.83 1625.62 3255.67 1668.12 3142.67 1666.12 3031 1673.62 2916 1653.62 2808 1602.12 2694.73 1534.12 2584.73 1564.12 2473 1598.12 2358.73 1612.12 2244 1611.01 2132.73 1592.62 2021.73 1609.25 1906 1616.07 1793 1553.62 1688 1529.62 1574 1528.62 1459.73 1555.62 1350 1612.12 1235 1621.12 1123 1587.12 1013 1567.62 901 1576.62 789 1571.12 673 1584.62 559.73 1558.62 449 1545.62 336.73 1557.62 224.73 1599.62 115 1625.12 -0.27 1613.62 -112.27 1610.76 -222.27" fill="none" stroke="#3b4351" stroke-miterlimit="10"/><polygon id="Amorites" points="1263.29 -220.83 1240.62 -112 1322.62 0 1294.62 115 1242.62 224.73 1205.62 336.73 1176.62 448.73 1041.62 559.73 866.62 673 767.62 789 788.62 901 890.71 1012.73 762.62 900.73 716.62 788.73 709.62 673 755.62 560 1054.29 448.73 1156.62 337 1173.62 223.17 1199.62 113.17 1138.62 0 910.76 -112 832.62 -222.27 949.95 -335 1040.62 -448.27 1141.31 -559 1225.29 -672.16 1147.62 -786 1085.29 -896 1061.29 -1008.27 1028.62 -1120.27 971.95 -1234.16 961.95 -1348.83 992.62 -1459 910.76 -1571.27 853.28 -1685 826.62 -1800 785.95 -1912 823.95 -2024 910.76 -2134.5 1027.29 -2246.5 1025.29 -2359.16 1091.29 -2469.83 1152.07 -2581.83 1283.88 -2581.83 1268.62 -2469.83 1277.29 -2360.16 1275.29 -2246.5 1198.62 -2134.5 1131.29 -2024 1153.95 -1912 1156.67 -1800.27 1161.95 -1685 1153.95 -1572.16 1188.62 -1459.5 1137.95 -1348.16 1153.29 -1234.83 1175.95 -1120 1140.62 -1009.5 1163.29 -896.16 1217.95 -786.83 1280.62 -672 1241.29 -559.5 1211.95 -449.5 1235.95 -335 1263.29 -220.83" fill="none" stroke="#3b4351" stroke-miterlimit="10"/><polygon id="Assyrian_Kingdom" data-name="Assyrian Kingdom" points="631.95 -222.27 635.28 -335 679.9 -448 701.28 -559 799.28 -672 980.62 -786 1007.95 -896 1020.62 -1008 998.62 -1120 971.95 -1234.16 1028.62 -1120.27 1061.29 -1008.27 1085.29 -896 1147.62 -786 1225.29 -672.16 1141.31 -559 1040.62 -448.27 949.95 -335 832.62 -222.27 910.76 -112 1138.62 0 1199.62 113.17 1173.62 223.17 1156.62 337 1054.29 448.73 755.62 560 709.62 673 716.62 788.73 658.28 673 654.62 560 630.95 449 510.62 337 518.62 225 595.95 115 638.62 0 643.28 -112 631.95 -222.27" fill="none" stroke="#3b4351" stroke-miterlimit="10"/><polygon id="OPians" points="305.95 225 289.61 116.83 271.95 0 282.62 -112 310.62 -222 302.62 -335 361.62 -448 337.24 -335 347.74 -222.27 359.29 0 383.29 115 387.95 225 375.82 337 465.29 449 476.62 559.17 432.62 449 323.95 336.5 305.95 225" fill="none" stroke="#3b4351" stroke-miterlimit="10"/><polygon id="Hebrews" points="635.28 -335 631.95 -222.27 643.28 -112 638.62 0 595.95 115 518.62 225 510.62 337 630.95 449 654.62 560 658.28 673 716.62 788.73 647.18 673 644.62 560 617.95 449 493.29 337 500.03 225 570.62 115 613.28 1 583.28 -112 569.28 -222 511.95 -335 573.95 -448 630.62 -559 697.58 -672 921.28 -786 989.95 -896 1020.62 -1008 1007.95 -896 980.62 -786 799.28 -672 701.28 -559 679.9 -448 635.28 -335" fill="none" stroke="#3b4351" stroke-miterlimit="10"/><polygon id="Syrians" points="500.03 225 493.29 337 439.95 225 428.62 115 479.29 0 509.95 -112 538.62 -222 511.95 -335 569.28 -222 583.28 -112 613.28 1 570.62 115 500.03 225" fill="none" stroke="#3b4351" stroke-miterlimit="10"/><polygon points="1130.91 1573.73 940.62 1458.5 968.62 1349.84 995.95 1235 968.62 1123 813.28 1013 667.28 901 624.62 789 611.95 673 608.62 560 523.28 449 375.82 337 387.95 225 383.29 115 359.29 0 340.62 -110.84 347.74 -222.27 394.24 -335 481.23 -448 566.62 -559 623.95 -672 857.28 -786 954.62 -898.16 975.28 -1008.16 969.28 -1120 971.95 -1234.16 998.62 -1120 1020.62 -1008 989.95 -896 921.28 -786 697.58 -672 630.62 -559 573.95 -448 511.95 -335 538.62 -222 509.95 -112 479.29 0 428.62 115 439.95 225 493.29 337 617.95 449 644.62 560 647.18 673 716.62 788.73 762.62 900.73 890.71 1012.73 1086.62 1123 1219.62 1235 1225.12 1350 1186.62 1460 1130.91 1573.73" fill="none" stroke="#3b4351" stroke-miterlimit="10"/></g><g id="Text"><g id="Huns-2" data-name="Huns"><path d="M1567.48,37.29h2.79v7h5.14v-7h2.8v17.5h-2.8V46.66h-5.14v8.13h-2.79Z" fill="#3b4351"/><path d="M1583.67,37.29V49.84c0,2.23.88,3.19,2.57,3.19s2.55-1,2.55-3.19V37.29h2.8V49.62c0,4-2,5.51-5.35,5.51s-5.36-1.47-5.36-5.51V37.29Z" fill="#3b4351"/><path d="M1594.25,37.29h3.41l5.07,13h0v-13h2.65v17.5H1602L1597,41.41h0V54.79h-2.65Z" fill="#3b4351"/><path d="M1610.47,49.38v.44c0,2.13,1,3.21,2.87,3.21a2.51,2.51,0,0,0,2.65-2.55c0-1.84-.93-2.65-2.5-3.11l-1.91-.67c-2.55-1-3.66-2.3-3.66-4.8,0-3.18,2.19-4.95,5.44-4.95,4.49,0,5,2.8,5,4.61V42h-2.79v-.37c0-1.59-.69-2.52-2.45-2.52a2.23,2.23,0,0,0-2.35,2.52c0,1.5.76,2.26,2.62,3l1.89.68c2.47.89,3.55,2.21,3.55,4.64,0,3.72-2.25,5.26-5.78,5.26-4.34,0-5.32-2.89-5.32-5.34v-.41Z" fill="#3b4351"/></g><g id="Greeks-2" data-name="Greeks"><path d="M110.59,84.75h3.57l4.61,17.49h-2.92L114.78,98h-5.13l-1.12,4.28h-2.92Zm3.72,11-2-8.63h0l-2.08,8.63Z" fill="#3b4351"/><path d="M120,84.75h9.46V87.1h-6.66V92h6.27V94.3h-6.27v5.59h6.86v2.35H120Z" fill="#3b4351"/><path d="M140.43,100.21h-.05a3.64,3.64,0,0,1-3.82,2.38c-3.83,0-5.2-2.85-5.2-9.09s1.76-9.1,5.81-9.1a4.77,4.77,0,0,1,5.12,5v.32h-2.65v-.42c0-1.29-.54-2.84-2.45-2.84s-3,1.32-3,6.91.93,7.06,2.82,7.06c2.13,0,2.92-1.52,2.92-5.34H137V93h5.58v9.21h-2.1Z" fill="#3b4351"/><path d="M144.93,84.75h9.46V87.1h-6.66V92H154V94.3h-6.27v5.59h6.86v2.35h-9.66Z" fill="#3b4351"/><path d="M160,84.75h3.57l4.61,17.49h-2.92L164.22,98h-5.13L158,102.24h-2.92Zm3.72,11-2-8.63h-.05l-2.08,8.63Z" fill="#3b4351"/><path d="M169.43,84.75h3.41l5.07,13H178v-13h2.65v17.49H177.2l-5.07-13.38h0v13.38h-2.65Z" fill="#3b4351"/><path d="M185.65,96.83v.44c0,2.13,1,3.21,2.87,3.21a2.51,2.51,0,0,0,2.65-2.55c0-1.84-.94-2.65-2.5-3.11l-1.92-.66c-2.54-1-3.65-2.31-3.65-4.81,0-3.18,2.18-4.95,5.44-4.95,4.49,0,5,2.8,5,4.61v.39H190.7V89c0-1.6-.69-2.53-2.45-2.53A2.23,2.23,0,0,0,185.9,89c0,1.49.76,2.25,2.62,3l1.89.69c2.47.88,3.55,2.2,3.55,4.63,0,3.72-2.26,5.27-5.78,5.27-4.34,0-5.32-2.89-5.32-5.34v-.42Z" fill="#3b4351"/><path d="M252.07,101.48h3.16c1.92,0,2.76,1.2,2.76,2.91a2.72,2.72,0,0,1-2.93,3h-1.4v4.13h-1.59Zm1.59,4.66h1.14a1.51,1.51,0,0,0,1.6-1.72c0-1.08-.44-1.74-1.71-1.74h-1Z" fill="#3b4351"/><path d="M259,101.48h1.51v3.28l0,0a2.15,2.15,0,0,1,1.85-1c1.15,0,1.88.52,1.88,2v5.69h-1.51v-5.17c0-1-.28-1.36-1.05-1.36s-1.21.48-1.21,1.47v5.06H259Z" fill="#3b4351"/><path d="M270.65,109.91c0,.28.17.53.39.53a.54.54,0,0,0,.25,0v1a1.58,1.58,0,0,1-.74.18c-.67,0-1.23-.26-1.28-1h0a2,2,0,0,1-1.88,1.11c-1.22,0-2-.66-2-2.12a2.08,2.08,0,0,1,1.75-2.37l1.18-.32c.54-.15.88-.31.88-1s-.24-1.12-1-1.12c-1,0-1.15.72-1.15,1.45H265.6c0-1.61.66-2.48,2.65-2.48,1.33,0,2.4.52,2.4,1.85Zm-1.43-2.41a11.23,11.23,0,0,1-1.68.7,1.23,1.23,0,0,0-.62,1.22c0,.63.31,1.13.94,1.13.91,0,1.36-.67,1.36-1.79Z" fill="#3b4351"/><path d="M272.18,103.94h1.52v1.18h0a1.85,1.85,0,0,1,1.75-1.37.89.89,0,0,1,.36,0v1.54a2.18,2.18,0,0,0-.63-.08c-.69,0-1.51.31-1.51,1.71v4.51h-1.52Z" fill="#3b4351"/><path d="M276.3,107.71c0-2.35.62-4,2.8-4s2.82,1.61,2.82,4-.73,4-2.82,4S276.3,110.06,276.3,107.71Zm2.8,2.84c1.11,0,1.3-.92,1.3-2.84,0-1.67-.19-2.84-1.3-2.84s-1.29,1.17-1.29,2.84C277.81,109.63,278,110.55,279.1,110.55Z" fill="#3b4351"/><path d="M288,109.91c0,.28.17.53.39.53a.59.59,0,0,0,.26,0v1a1.63,1.63,0,0,1-.75.18c-.67,0-1.23-.26-1.27-1h0a2,2,0,0,1-1.88,1.11c-1.22,0-2-.66-2-2.12a2.08,2.08,0,0,1,1.75-2.37l1.18-.32c.55-.15.88-.31.88-1s-.24-1.12-1-1.12c-1,0-1.15.72-1.15,1.45H283c0-1.61.66-2.48,2.65-2.48,1.33,0,2.39.52,2.39,1.85Zm-1.43-2.41a11.23,11.23,0,0,1-1.68.7,1.24,1.24,0,0,0-.61,1.22c0,.63.3,1.13.93,1.13.91,0,1.36-.67,1.36-1.79Z" fill="#3b4351"/><path d="M289.56,101.48h1.51v3.28l0,0a2.15,2.15,0,0,1,1.85-1c1.15,0,1.88.52,1.88,2v5.69h-1.51v-5.17c0-1-.28-1.36-1.05-1.36-.62,0-1.21.48-1.21,1.47v5.06h-1.51Z" fill="#3b4351"/></g><g id="Ethiopians"><path d="M241.88,53.11h9.46v2.36h-6.67v4.85H251v2.35h-6.28v5.59h6.86v2.35h-9.65Z" fill="#3b4351"/><path d="M256.53,55.47h-4.17V53.11h11.06v2.36h-4.1V70.61h-2.79Z" fill="#3b4351"/><path d="M265,53.11h2.79v7H273v-7h2.79v17.5H273V62.48H267.8v8.13H265Z" fill="#3b4351"/><path d="M278.51,53.11h2.79v17.5h-2.79Z" fill="#3b4351"/><path d="M283.65,61.86c0-6.25,1.76-9.09,5.78-9.09s5.79,2.84,5.79,9.09S293.45,71,289.43,71,283.65,68.11,283.65,61.86Zm8.77-.07c0-5.88-1.32-6.91-3-6.91s-3,1-3,6.91,1.33,7.06,3,7.06S292.42,67.79,292.42,61.79Z" fill="#3b4351"/><path d="M297.69,53.11h5.54c3.35,0,4.83,2.11,4.83,5.1s-1.87,5.17-5.13,5.17h-2.45v7.23h-2.79Zm2.79,8.16h2c1.49,0,2.79-.78,2.79-3,0-1.89-.76-3-3-3h-1.79Z" fill="#3b4351"/><path d="M309.82,53.11h2.79v17.5h-2.79Z" fill="#3b4351"/><path d="M318.69,53.11h3.57l4.61,17.5H324l-1.07-4.29h-5.13l-1.12,4.29h-2.92Zm3.72,11-2-8.62h0l-2.08,8.62Z" fill="#3b4351"/><path d="M328.09,53.11h3.41l5.07,13h.05v-13h2.65v17.5h-3.41l-5.07-13.38h-.05V70.61h-2.65Z" fill="#3b4351"/><path d="M344.31,65.2v.44c0,2.13,1,3.21,2.87,3.21a2.51,2.51,0,0,0,2.65-2.55c0-1.84-.93-2.65-2.5-3.11l-1.91-.67c-2.55-1-3.66-2.3-3.66-4.8,0-3.18,2.19-4.95,5.44-4.95,4.49,0,4.95,2.79,4.95,4.61v.39h-2.79V57.4c0-1.59-.69-2.52-2.45-2.52a2.23,2.23,0,0,0-2.35,2.52c0,1.5.76,2.26,2.62,3l1.89.68c2.47.89,3.55,2.21,3.55,4.64,0,3.72-2.25,5.26-5.78,5.26-4.34,0-5.32-2.89-5.32-5.34V65.2Z" fill="#3b4351"/></g><g id="Egytians"><g id="small-2" data-name="small"><path d="M230.33,7.12h3.17c1.92,0,2.76,1.2,2.76,2.91a2.72,2.72,0,0,1-2.93,3h-1.4v4.14h-1.6Zm1.6,4.66h1.13a1.5,1.5,0,0,0,1.6-1.72c0-1.08-.43-1.74-1.71-1.74h-1Z" fill="#3b4351"/><path d="M237.23,7.12h1.52v3.27l0,0a2.14,2.14,0,0,1,1.85-1c1.15,0,1.87.52,1.87,2v5.69H241V12c0-1-.28-1.36-1.05-1.36-.62,0-1.2.48-1.2,1.47v5.06h-1.52Z" fill="#3b4351"/><path d="M248.91,15.55c0,.28.17.53.39.53a.59.59,0,0,0,.26,0v1a1.63,1.63,0,0,1-.75.18c-.67,0-1.23-.27-1.27-1h0a2,2,0,0,1-1.88,1.1c-1.21,0-2-.66-2-2.11a2.09,2.09,0,0,1,1.75-2.37l1.18-.32c.55-.16.88-.31.88-1s-.23-1.12-1-1.12c-1,0-1.15.72-1.15,1.44h-1.43c0-1.61.66-2.48,2.65-2.48,1.33,0,2.39.52,2.39,1.85Zm-1.43-2.41a12.39,12.39,0,0,1-1.68.7,1.24,1.24,0,0,0-.61,1.22c0,.63.3,1.13.93,1.13.91,0,1.36-.67,1.36-1.79Z" fill="#3b4351"/><path d="M250.45,9.58H252v1.18h0a1.88,1.88,0,0,1,1.75-1.38.87.87,0,0,1,.36.06V11a2.18,2.18,0,0,0-.63-.08c-.68,0-1.51.31-1.51,1.71v4.51h-1.51Z" fill="#3b4351"/><path d="M254.56,13.35c0-2.35.62-4,2.81-4s2.81,1.62,2.81,4-.73,4-2.81,4S254.56,15.7,254.56,13.35Zm2.81,2.84c1.1,0,1.3-.92,1.3-2.84,0-1.67-.2-2.84-1.3-2.84s-1.29,1.17-1.29,2.84C256.08,15.27,256.29,16.19,257.37,16.19Z" fill="#3b4351"/><path d="M266.29,15.55c0,.28.16.53.39.53a.57.57,0,0,0,.25,0v1a1.58,1.58,0,0,1-.74.18c-.67,0-1.24-.27-1.28-1h0a1.94,1.94,0,0,1-1.87,1.1c-1.22,0-2-.66-2-2.11a2.08,2.08,0,0,1,1.75-2.37l1.17-.32c.55-.16.89-.31.89-1s-.24-1.12-1-1.12c-1,0-1.15.72-1.15,1.44h-1.43c0-1.61.66-2.48,2.65-2.48,1.33,0,2.4.52,2.4,1.85Zm-1.43-2.41a12.39,12.39,0,0,1-1.68.7,1.23,1.23,0,0,0-.62,1.22c0,.63.31,1.13.94,1.13.91,0,1.36-.67,1.36-1.79Z" fill="#3b4351"/><path d="M267.82,7.12h1.52v3.27l0,0a2.14,2.14,0,0,1,1.85-1c1.14,0,1.87.52,1.87,2v5.69h-1.51V12c0-1-.28-1.36-1-1.36s-1.2.48-1.2,1.47v5.06h-1.52Z" fill="#3b4351"/><path d="M228.52,27.46h-2.38V26.12h6.32v1.34h-2.34v8.66h-1.6Z" fill="#3b4351"/><path d="M237.17,34.55c0,.28.17.53.4.53a.57.57,0,0,0,.25,0v1a1.58,1.58,0,0,1-.74.18c-.68,0-1.24-.27-1.28-1h0a1.94,1.94,0,0,1-1.87,1.1c-1.22,0-2-.66-2-2.11a2.09,2.09,0,0,1,1.76-2.37l1.17-.32c.55-.16.88-.31.88-1s-.23-1.12-1-1.12c-1,0-1.15.72-1.15,1.44h-1.43c0-1.61.66-2.48,2.65-2.48,1.33,0,2.39.52,2.39,1.85Zm-1.43-2.41a11.88,11.88,0,0,1-1.68.7,1.24,1.24,0,0,0-.61,1.22c0,.63.31,1.13.94,1.13.91,0,1.35-.67,1.35-1.79Z" fill="#3b4351"/><path d="M238.71,26.12h1.51v5.61h0l2.28-3.15h1.76L242,31.48l2.56,4.64h-1.65l-1.85-3.43-.86,1v2.4h-1.51Z" fill="#3b4351"/><path d="M246.41,32.54V33c0,1,.13,2.3,1.26,2.3s1.21-1.22,1.21-1.68h1.43a2.48,2.48,0,0,1-2.65,2.71c-1.23,0-2.76-.36-2.76-3.85,0-2,.43-4.08,2.79-4.08,2.1,0,2.66,1.28,2.66,3.37v.79Zm2.42-1V31.1c0-1-.3-1.68-1.16-1.68s-1.26.95-1.26,1.93v.16Z" fill="#3b4351"/><path d="M251.66,26.12h1.51v10h-1.51Z" fill="#3b4351"/><path d="M254.4,32.35c0-2.35.62-4,2.81-4S260,30,260,32.35s-.73,4-2.81,4S254.4,34.7,254.4,32.35Zm2.81,2.84c1.1,0,1.3-.92,1.3-2.84,0-1.67-.2-2.84-1.3-2.84s-1.29,1.17-1.29,2.84C255.92,34.27,256.13,35.19,257.21,35.19Z" fill="#3b4351"/><path d="M260.51,28.58h1V26.44h1.52v2.14h1.23V29.7h-1.23v4.5c0,.6.17.8.68.8a2.64,2.64,0,0,0,.55,0v1.12a4.64,4.64,0,0,1-1.22.13c-1,0-1.53-.29-1.53-1.82V29.7h-1Z" fill="#3b4351"/><path d="M268.46,26.12h1.6v10h-1.6Z" fill="#3b4351"/><path d="M271.57,26.12h1.6v10h-1.6Z" fill="#3b4351"/><path d="M274.8,34.27h1.6v1.85h-1.6Z" fill="#3b4351"/></g></g><g id="Assyrians"><path d="M768.21,31.79h3.58l4.6,17.5h-2.91L772.4,45h-5.12l-1.13,4.29h-2.92Zm3.72,11-2-8.63h0l-2.09,8.63Z" fill="#3b4351"/><path d="M779.77,43.87v.44q0,3.21,2.87,3.21A2.51,2.51,0,0,0,785.29,45c0-1.84-.93-2.65-2.5-3.12l-1.91-.66c-2.55-1-3.66-2.3-3.66-4.8,0-3.19,2.19-4.95,5.44-4.95,4.49,0,5,2.79,5,4.61v.39h-2.79v-.37c0-1.59-.69-2.52-2.45-2.52A2.23,2.23,0,0,0,780,36.08c0,1.5.76,2.25,2.62,3l1.89.69c2.47.88,3.55,2.21,3.55,4.63,0,3.73-2.25,5.27-5.78,5.27-4.34,0-5.32-2.89-5.32-5.34v-.42Z" fill="#3b4351"/><path d="M792.49,43.87v.44c0,2.14,1,3.21,2.87,3.21A2.5,2.5,0,0,0,798,45c0-1.84-.93-2.65-2.5-3.12l-1.91-.66c-2.55-1-3.65-2.3-3.65-4.8,0-3.19,2.18-4.95,5.44-4.95,4.48,0,5,2.79,5,4.61v.39h-2.79v-.37c0-1.59-.69-2.52-2.45-2.52a2.23,2.23,0,0,0-2.36,2.52c0,1.5.76,2.25,2.63,3l1.88.69c2.48.88,3.56,2.21,3.56,4.63,0,3.73-2.26,5.27-5.79,5.27-4.34,0-5.32-2.89-5.32-5.34v-.42Z" fill="#3b4351"/><path d="M806,42.45,801.5,31.79h3.12l2.94,7.55,3-7.55h2.92l-4.68,10.66v6.84H806Z" fill="#3b4351"/><path d="M814.83,31.79H821c2.45,0,4.43,1.25,4.43,4.51,0,2.26-1,4-2.91,4.29v0c1.76.17,2.64,1.13,2.74,3.58,0,1.15,0,2.5.1,3.55a1.89,1.89,0,0,0,.83,1.52H823a3,3,0,0,1-.47-1.55c0-.51-.07-1.05-.07-1.56s0-1.11,0-1.74c-.07-1.92-.66-2.75-2.55-2.75h-2.28v7.6h-2.79Zm5,7.79a2.58,2.58,0,0,0,2.8-2.84c0-1.86-.79-2.84-2.65-2.84h-2.38v5.68Z" fill="#3b4351"/><path d="M827.86,31.79h2.8v17.5h-2.8Z" fill="#3b4351"/><path d="M836.73,31.79h3.58l4.61,17.5H842L840.92,45H835.8l-1.12,4.29h-2.92Zm3.73,11-2-8.63h-.05l-2.08,8.63Z" fill="#3b4351"/><path d="M846.14,31.79h3.41l5.07,13h0v-13h2.65v17.5h-3.41l-5.07-13.38h-.05V49.29h-2.65Z" fill="#3b4351"/><path d="M883.72,31.79h9.46v2.35h-6.66V39h6.27v2.35h-6.27v5.59h6.86v2.35h-9.66Z" fill="#3b4351"/><path d="M895.46,36.1H898v1.55H898a3.68,3.68,0,0,1,3.16-1.89,2.88,2.88,0,0,1,3.07,2,3.61,3.61,0,0,1,3.33-2c1.86,0,3.21,1,3.21,3.51v10h-2.65v-9c0-1.74-.51-2.38-1.59-2.38s-2.11.83-2.11,2.57v8.85h-2.64v-9c0-1.74-.52-2.38-1.62-2.38s-2.09.86-2.09,2.57v8.85h-2.64Z" fill="#3b4351"/><path d="M919.15,49.63a3,3,0,0,1-3-1.89h0V53.6h-2.64V36.1H916v1.62h0a3.14,3.14,0,0,1,3-2c3,0,4.24,2.57,4.24,7.11C923.22,48.41,921,49.63,919.15,49.63Zm-.95-11.76c-1.82,0-2.23,1.84-2.23,4.68,0,3.16.39,5,2.25,5,1.49,0,2.21-1.12,2.21-4.77C920.43,39.76,920.06,37.87,918.2,37.87Z" fill="#3b4351"/><path d="M925.37,31.6H928v2.64h-2.65Zm0,4.5H928V49.29h-2.65Z" fill="#3b4351"/><path d="M930.69,36.1h2.64v2.06h0a3.26,3.26,0,0,1,3.07-2.4,1.5,1.5,0,0,1,.63.1v2.7a3.42,3.42,0,0,0-1.1-.15c-1.2,0-2.65.54-2.65,3v7.89h-2.64Z" fill="#3b4351"/><path d="M940.54,43v.76c0,1.76.22,4,2.2,4s2.11-2.13,2.11-2.94h2.5c0,3-1.76,4.75-4.63,4.75-2.16,0-4.83-.64-4.83-6.74,0-3.45.76-7.13,4.88-7.13,3.67,0,4.65,2.23,4.65,5.88V43Zm4.24-1.81v-.71c0-1.67-.54-2.94-2-2.94-1.66,0-2.2,1.66-2.2,3.38v.27Z" fill="#3b4351"/></g></g></svg>