<svg id="Text" xmlns="http://www.w3.org/2000/svg" viewBox="0 0 1847.91 115"><title>bc0800text</title><g id="Huns"><path d="M1567.48,37.29h2.79v7h5.14v-7h2.8v17.5h-2.8V46.66h-5.14v8.13h-2.79Z"/><path d="M1583.67,37.29V49.84c0,2.23.88,3.19,2.57,3.19s2.55-1,2.55-3.19V37.29h2.8V49.62c0,4-2,5.51-5.35,5.51s-5.36-1.47-5.36-5.51V37.29Z"/><path d="M1594.25,37.29h3.41l5.07,13h0v-13h2.65v17.5H1602L1597,41.41h0V54.79h-2.65Z"/><path d="M1610.47,49.38v.44c0,2.13,1,3.21,2.87,3.21a2.51,2.51,0,0,0,2.65-2.55c0-1.84-.93-2.65-2.5-3.11l-1.91-.67c-2.55-1-3.66-2.3-3.66-4.8,0-3.18,2.19-4.95,5.44-4.95,4.49,0,5,2.8,5,4.61V42h-2.79v-.37c0-1.59-.69-2.52-2.45-2.52a2.23,2.23,0,0,0-2.35,2.52c0,1.5.76,2.26,2.62,3l1.89.68c2.47.89,3.55,2.21,3.55,4.64,0,3.72-2.25,5.26-5.78,5.26-4.34,0-5.32-2.89-5.32-5.34v-.41Z"/></g><g id="Greeks"><path d="M123.72,84.75h3.58l4.6,17.49H129L127.91,98h-5.12l-1.13,4.28h-2.92Zm3.72,11-2-8.63h-.05l-2.08,8.63Z"/><path d="M133.12,84.75h9.46V87.1h-6.66V92h6.27V94.3h-6.27v5.59h6.86v2.35h-9.66Z"/><path d="M153.56,100.21h-.05a3.63,3.63,0,0,1-3.82,2.38c-3.83,0-5.2-2.85-5.2-9.09s1.77-9.1,5.81-9.1a4.76,4.76,0,0,1,5.12,5v.32h-2.65v-.42c0-1.29-.53-2.84-2.45-2.84s-3,1.32-3,6.91.93,7.06,2.81,7.06c2.14,0,2.92-1.52,2.92-5.34h-2.94V93h5.59v9.21h-2.11Z"/><path d="M158.06,84.75h9.46V87.1h-6.66V92h6.27V94.3h-6.27v5.59h6.86v2.35h-9.66Z"/><path d="M173.16,84.75h3.58l4.6,17.49h-2.91L177.35,98h-5.12l-1.13,4.28h-2.92Zm3.72,11-2-8.63h-.05l-2.08,8.63Z"/><path d="M182.56,84.75H186l5.07,13h.05v-13h2.65v17.49h-3.41l-5.07-13.38h0v13.38h-2.65Z"/><path d="M198.78,96.83v.44c0,2.13,1,3.21,2.87,3.21a2.51,2.51,0,0,0,2.65-2.55c0-1.84-.93-2.65-2.5-3.11l-1.91-.66c-2.55-1-3.66-2.31-3.66-4.81,0-3.18,2.19-4.95,5.45-4.95,4.48,0,4.95,2.8,4.95,4.61v.39h-2.8V89c0-1.6-.68-2.53-2.45-2.53A2.23,2.23,0,0,0,199,89c0,1.49.76,2.25,2.62,3l1.89.69c2.47.88,3.55,2.2,3.55,4.63,0,3.72-2.25,5.27-5.78,5.27-4.34,0-5.32-2.89-5.32-5.35v-.41Z"/></g><g id="Assyrians"><path d="M768.21,31.79h3.58l4.6,17.5h-2.91L772.4,45h-5.12l-1.13,4.29h-2.92Zm3.72,11-2-8.63h0l-2.09,8.63Z"/><path d="M779.77,43.87v.44q0,3.21,2.87,3.21A2.51,2.51,0,0,0,785.29,45c0-1.84-.93-2.65-2.5-3.12l-1.91-.66c-2.55-1-3.66-2.3-3.66-4.8,0-3.19,2.19-4.95,5.44-4.95,4.49,0,5,2.79,5,4.61v.39h-2.79v-.37c0-1.59-.69-2.52-2.45-2.52A2.23,2.23,0,0,0,780,36.08c0,1.5.76,2.25,2.62,3l1.89.69c2.47.88,3.55,2.21,3.55,4.63,0,3.73-2.25,5.27-5.78,5.27-4.34,0-5.32-2.89-5.32-5.34v-.42Z"/><path d="M792.49,43.87v.44c0,2.14,1,3.21,2.87,3.21A2.5,2.5,0,0,0,798,45c0-1.84-.93-2.65-2.5-3.12l-1.91-.66c-2.55-1-3.65-2.3-3.65-4.8,0-3.19,2.18-4.95,5.44-4.95,4.48,0,5,2.79,5,4.61v.39h-2.79v-.37c0-1.59-.69-2.52-2.45-2.52a2.23,2.23,0,0,0-2.36,2.52c0,1.5.76,2.25,2.63,3l1.88.69c2.48.88,3.56,2.21,3.56,4.63,0,3.73-2.26,5.27-5.79,5.27-4.34,0-5.32-2.89-5.32-5.34v-.42Z"/><path d="M806,42.45,801.5,31.79h3.12l2.94,7.55,3-7.55h2.92l-4.68,10.66v6.84H806Z"/><path d="M814.83,31.79H821c2.45,0,4.43,1.25,4.43,4.51,0,2.26-1,4-2.91,4.29v0c1.76.17,2.64,1.13,2.74,3.58,0,1.15,0,2.5.1,3.55a1.89,1.89,0,0,0,.83,1.52H823a3,3,0,0,1-.47-1.55c0-.51-.07-1.05-.07-1.56s0-1.11,0-1.74c-.07-1.92-.66-2.75-2.55-2.75h-2.28v7.6h-2.79Zm5,7.79a2.58,2.58,0,0,0,2.8-2.84c0-1.86-.79-2.84-2.65-2.84h-2.38v5.68Z"/><path d="M827.86,31.79h2.8v17.5h-2.8Z"/><path d="M836.73,31.79h3.58l4.61,17.5H842L840.92,45H835.8l-1.12,4.29h-2.92Zm3.73,11-2-8.63h-.05l-2.08,8.63Z"/><path d="M846.14,31.79h3.41l5.07,13h0v-13h2.65v17.5h-3.41l-5.07-13.38h-.05V49.29h-2.65Z"/><path d="M883.72,31.79h9.46v2.35h-6.66V39h6.27v2.35h-6.27v5.59h6.86v2.35h-9.66Z"/><path d="M895.46,36.1H898v1.55H898a3.68,3.68,0,0,1,3.16-1.89,2.88,2.88,0,0,1,3.07,2,3.61,3.61,0,0,1,3.33-2c1.86,0,3.21,1,3.21,3.51v10h-2.65v-9c0-1.74-.51-2.38-1.59-2.38s-2.11.83-2.11,2.57v8.85h-2.64v-9c0-1.74-.52-2.38-1.62-2.38s-2.09.86-2.09,2.57v8.85h-2.64Z"/><path d="M919.15,49.63a3,3,0,0,1-3-1.89h0V53.6h-2.64V36.1H916v1.62h0a3.14,3.14,0,0,1,3-2c3,0,4.24,2.57,4.24,7.11C923.22,48.41,921,49.63,919.15,49.63Zm-.95-11.76c-1.82,0-2.23,1.84-2.23,4.68,0,3.16.39,5,2.25,5,1.49,0,2.21-1.12,2.21-4.77C920.43,39.76,920.06,37.87,918.2,37.87Z"/><path d="M925.37,31.6H928v2.64h-2.65Zm0,4.5H928V49.29h-2.65Z"/><path d="M930.69,36.1h2.64v2.06h0a3.26,3.26,0,0,1,3.07-2.4,1.5,1.5,0,0,1,.63.1v2.7a3.42,3.42,0,0,0-1.1-.15c-1.2,0-2.65.54-2.65,3v7.89h-2.64Z"/><path d="M940.54,43v.76c0,1.76.22,4,2.2,4s2.11-2.13,2.11-2.94h2.5c0,3-1.76,4.75-4.63,4.75-2.16,0-4.83-.64-4.83-6.74,0-3.45.76-7.13,4.88-7.13,3.67,0,4.65,2.23,4.65,5.88V43Zm4.24-1.81v-.71c0-1.67-.54-2.94-2-2.94-1.66,0-2.2,1.66-2.2,3.38v.27Z"/></g><g id="Ethiopians"><path d="M241.88,53.11h9.46v2.36h-6.67v4.85H251v2.35h-6.28v5.59h6.86v2.35h-9.65Z"/><path d="M256.53,55.47h-4.17V53.11h11.06v2.36h-4.1V70.61h-2.79Z"/><path d="M265,53.11h2.79v7H273v-7h2.79v17.5H273V62.48H267.8v8.13H265Z"/><path d="M278.51,53.11h2.79v17.5h-2.79Z"/><path d="M283.65,61.86c0-6.25,1.76-9.09,5.78-9.09s5.79,2.84,5.79,9.09S293.45,71,289.43,71,283.65,68.11,283.65,61.86Zm8.77-.07c0-5.88-1.32-6.91-3-6.91s-3,1-3,6.91,1.33,7.06,3,7.06S292.42,67.79,292.42,61.79Z"/><path d="M297.69,53.11h5.54c3.35,0,4.83,2.11,4.83,5.1s-1.87,5.17-5.13,5.17h-2.45v7.23h-2.79Zm2.79,8.16h2c1.49,0,2.79-.78,2.79-3,0-1.89-.76-3-3-3h-1.79Z"/><path d="M309.82,53.11h2.79v17.5h-2.79Z"/><path d="M318.69,53.11h3.57l4.61,17.5H324l-1.07-4.29h-5.13l-1.12,4.29h-2.92Zm3.72,11-2-8.62h0l-2.08,8.62Z"/><path d="M328.09,53.11h3.41l5.07,13h.05v-13h2.65v17.5h-3.41l-5.07-13.38h-.05V70.61h-2.65Z"/><path d="M344.31,65.2v.44c0,2.13,1,3.21,2.87,3.21a2.51,2.51,0,0,0,2.65-2.55c0-1.84-.93-2.65-2.5-3.11l-1.91-.67c-2.55-1-3.66-2.3-3.66-4.8,0-3.18,2.19-4.95,5.44-4.95,4.49,0,4.95,2.79,4.95,4.61v.39h-2.79V57.4c0-1.59-.69-2.52-2.45-2.52a2.23,2.23,0,0,0-2.35,2.52c0,1.5.76,2.26,2.62,3l1.89.68c2.47.89,3.55,2.21,3.55,4.64,0,3.72-2.25,5.26-5.78,5.26-4.34,0-5.32-2.89-5.32-5.34V65.2Z"/></g></svg>