<svg xmlns="http://www.w3.org/2000/svg" viewBox="0 0 1847.91 110"><title>bc0900text</title><g id="YEARS"><g id="Right"><path d="M1797.31,94.69c0,1.06.52,2.39,2,2.39,2.78,0,2.93-3.64,2.93-6.35l-.08,0a3.75,3.75,0,0,1-3.58,1.95c-2.53,0-4.55-1.82-4.55-5.48,0-4.24,1.71-6.76,5.64-6.76,4.65,0,5.54,3.53,5.54,8.81,0,5.51-1,10-5.88,10-3.25,0-5-1.43-5-4.47Zm2.11-12.22c-1.8,0-2.45,1.79-2.45,4,0,2.57.76,4,2.45,4,2.18,0,2.54-1.9,2.54-4.11S1801.16,82.47,1799.42,82.47Z" fill="#3b4351"/><path d="M1812.08,80.39c3.53,0,5.51,2.21,5.51,9.38s-2,9.39-5.51,9.39-5.52-2.21-5.52-9.39S1808.54,80.39,1812.08,80.39Zm0,16.69c2,0,2.54-2,2.54-7.31s-.54-7.3-2.54-7.3-2.55,2-2.55,7.3S1810.07,97.08,1812.08,97.08Z" fill="#3b4351"/><path d="M1824.56,80.39c3.53,0,5.51,2.21,5.51,9.38s-2,9.39-5.51,9.39S1819,97,1819,89.77,1821,80.39,1824.56,80.39Zm0,16.69c2,0,2.54-2,2.54-7.31s-.54-7.3-2.54-7.3-2.55,2-2.55,7.3S1822.55,97.08,1824.56,97.08Z" fill="#3b4351"/></g><g id="left"><path d="M22.27,96.59c0,1.07.52,2.4,2,2.4,2.78,0,2.94-3.64,2.94-6.35l-.08,0a3.77,3.77,0,0,1-3.59,2C21,94.54,19,92.72,19,89.05c0-4.24,1.72-6.76,5.64-6.76,4.66,0,5.54,3.54,5.54,8.82,0,5.51-1,10-5.87,10-3.25,0-5-1.43-5-4.48Zm2.11-12.22c-1.79,0-2.44,1.8-2.44,4,0,2.57.75,4,2.44,4,2.18,0,2.55-1.89,2.55-4.1S26.12,84.37,24.38,84.37Z" fill="#3b4351"/><path d="M37,82.29c3.54,0,5.51,2.21,5.51,9.39s-2,9.39-5.51,9.39-5.51-2.21-5.51-9.39S33.51,82.29,37,82.29ZM37,99c2,0,2.55-2,2.55-7.31S39,84.37,37,84.37s-2.55,2-2.55,7.31S35,99,37,99Z" fill="#3b4351"/><path d="M49.52,82.29c3.54,0,5.51,2.21,5.51,9.39s-2,9.39-5.51,9.39S44,98.86,44,91.68,46,82.29,49.52,82.29Zm0,16.7c2,0,2.55-2,2.55-7.31s-.55-7.31-2.55-7.31S47,86.35,47,91.68,47.52,99,49.52,99Z" fill="#3b4351"/></g></g><g id="Nation_OUtlines" data-name="Nation OUtlines"><polygon id="Iranians" points="1263.29 1.17 1235.95 -113 1211.95 -227.5 1241.29 -337.5 1280.62 -450 1217.95 -564.83 1163.29 -674.16 1140.62 -787.5 1175.95 -898 1153.29 -1012.83 1137.95 -1126.16 1188.62 -1237.5 1153.95 -1350.16 1161.95 -1463 1156.67 -1578.27 1152.84 -1695.5 1131.29 -1802 1198.62 -1912.5 1275.29 -2024.5 1277.29 -2138.16 1268.62 -2247.83 1283.88 -2359.83 1411.11 -2359.83 1445.69 -2248.27 1480.18 -2137.6 1462.18 -2024.5 1438.19 -1912.5 1387.19 -1802 1387.19 -1690 1420.19 -1575.07 1429.19 -1463 1400.69 -1350.08 1417.19 -1237 1343.69 -1126 1325.69 -1012 1345.19 -898 1313.69 -786 1298.69 -674 1310.69 -564 1348.19 -450 1313.69 -337 1285.19 -226 1294.19 -113 1372.19 1.17 1373.74 109.73 1375.34 221.73 1376.98 337 1335.62 447 1348.62 559 1391.1 671 1462.62 782 1440.62 894.73 1447.62 1011 1472.62 1123 1505.62 1234.73 1513.62 1344.73 1437.62 1456.73 1391.82 1571.73 1219.62 1457 1086.62 1345 890.71 1234.73 788.62 1123 767.62 1011 866.62 895 1041.62 781.73 1176.62 670.73 1205.62 558.73 1242.62 446.73 1294.62 337 1322.62 224.17 1240.62 110 1263.29 1.17" fill="none" stroke="#3b4351" stroke-miterlimit="10"/><polygon id="Indians" points="1372.19 1.17 1294.19 -113 1285.19 -226 1313.69 -337 1348.19 -450 1310.69 -564 1298.69 -674 1313.69 -786 1345.19 -898 1325.69 -1012 1343.69 -1126 1417.19 -1237 1400.69 -1350.08 1429.19 -1463 1419.27 -1578.27 1387.19 -1690 1387.19 -1802 1438.19 -1912.5 1462.18 -2024.5 1480.18 -2137.54 1445.82 -2247.83 1411.11 -2359.83 1545.86 -2359.83 1580.1 -2247.83 1593.12 -2137.6 1552.12 -2024.5 1514.62 -1912.5 1514.12 -1802.33 1553.12 -1690.27 1548.12 -1578 1519.62 -1463 1534.12 -1349.33 1575.12 -1237 1559.62 -1126 1564.12 -1012.27 1534.62 -898 1486.12 -786 1465.12 -674 1471.12 -564.83 1502.12 -450.83 1508.12 -337 1534.62 -226 1542.77 -147.14 1555.62 1.17 1554.62 110 1567.12 222 1542.12 336.73 1498.12 447 1490.62 559 1513.12 671 1568.62 782 1544.12 895 1530.62 1010.73 1523.62 1122.73 1532.62 1235 1565.12 1345 1543.62 1457 1514.12 1572 1490.12 1681.73 1495.62 1796 1517.12 1909.67 1528.12 2015 1580.62 2127.67 1578.12 2243.67 1578.12 2354.17 1560.12 2465.73 1526.62 2581 1467.62 2695 1381.62 2806.73 1270.62 2917 1090.12 3029.73 860.62 3138 1302.12 3253 1377.03 3365 1550.62 3478 1519.62 3587.83 1476.12 3700.83 1516.13 3814.83 1534.62 3927.17 1552.65 4037.83 1585.62 4151.73 1620.12 4266.83 1650.12 4377.83 1630.62 4485.73 1622.45 4602.73 1565.62 4713.83 1402.62 4827.17 1173.62 4939.83 1148.62 5050.83 1334.62 5165.83 1283.62 5279.83 1344.62 5388.83 1544.62 5501.83 1602.62 5616.17 1627.62 5727.83 1674.62 5840.73 1627.62 5955.83 1634.62 6067.83 1686.62 6179.83 1701.62 6292.83 1620.12 6404.83 1606.12 6515.83 1606.12 6629.66 1552.62 6629.66 1549.52 6515.83 1569.62 6404.83 1683.62 6292.83 1667.62 6179.83 1607.62 6067.83 1596.62 5955.17 1617.62 5840.83 1584.62 5727.83 1562.62 5615.83 1507.62 5501.83 1304.62 5388.73 1225.62 5279.73 1236.97 5242.78 1264.87 5165.83 1082.62 5050.83 1084.2 4940.34 1323.62 4827.83 1500.47 4713.73 1573.62 4602.83 1600.62 4485.83 1604.62 4377.83 1569.62 4266.83 1514.62 4151.83 1447.62 4037.73 1418.62 3925.83 1404.62 3814.83 1367.62 3700.83 1397.62 3587.83 1418.62 3477.73 1339.62 3364.73 1246.62 3253 748.62 3138 753.62 3030 910.76 2917 1053.62 2807 1195.2 2695 1311.62 2580.17 1353.62 2466 1348.62 2355 1364.62 2243.17 1406.62 2128 1401.62 2015 1429.62 1910 1394.62 1795.73 1393.2 1682 1391.82 1571.73 1437.52 1457 1513.62 1344.73 1505.64 1235 1472.62 1123.17 1447.62 1011 1440.63 895 1462.62 782 1391.1 671 1348.62 559 1332.62 447 1376.98 337 1375.34 221.73 1373.74 109.73 1372.19 1.17" fill="none" stroke="#3b4351" stroke-miterlimit="10"/><polygon id="Huns" points="1555.62 1.17 1545.73 -113 1533.62 -226.33 1506.68 -336.36 1502.16 -450 1471.34 -564 1465.12 -674 1486.12 -786 1534.62 -898 1564.05 -1012 1559.62 -1126 1575.12 -1237 1534.24 -1349 1519.62 -1463 1548.12 -1578 1553.11 -1690 1514.47 -1802.27 1514.62 -1914.5 1552.12 -2024.5 1593.12 -2137.16 1580.1 -2247.83 1545.86 -2359.83 1633.99 -2359.83 1651.62 -2247.83 1667.62 -2137.16 1646.62 -2024.5 1620.62 -1912.5 1630.4 -1804.4 1650.62 -1690.33 1676.62 -1578 1700.12 -1463 1689.12 -1349 1714.62 -1237.33 1697.12 -1126.27 1645.62 -1012.27 1616.12 -898 1586.62 -786.27 1538.12 -674.27 1509.12 -564 1551.62 -450 1585.12 -337 1608.62 -226.33 1609.69 -113.27 1610.76 -0.27 1613.62 109.73 1625.12 221.73 1599.12 337.67 1557.59 447 1545.65 559 1558.62 671 1584.62 781.73 1571.12 895.17 1576.62 1011 1567.62 1123 1587.12 1235 1621.12 1345 1612.12 1457 1556.12 1572 1528.62 1682 1529.62 1796 1553.62 1910 1616.07 2015 1609.25 2128 1592.66 2244 1611.01 2354.73 1612.12 2466 1598.04 2581 1564.12 2695 1534.29 2807 1602.12 2916.73 1653.62 3030 1673.62 3138 1666.12 3253 1668.12 3364.67 1625.62 3477.67 1542.12 3587.83 1476.12 3700.83 1519.62 3587.83 1550.62 3478 1376.62 3364.73 1302.12 3253 860.62 3138 1090.12 3029.73 1270.62 2917 1381.62 2806.73 1467.62 2695 1526.62 2581 1560.12 2465.73 1578.12 2354.17 1578.12 2243.67 1580.62 2127.67 1528.12 2015 1517.12 1909.67 1495.62 1796 1490.12 1681.73 1514.12 1572 1543.62 1457 1565.12 1345 1532.62 1235 1523.62 1122.73 1530.62 1010.73 1544.12 895 1568.62 782 1513.12 671 1490.62 559 1498.12 447 1542.12 336.73 1567.12 222 1554.62 110 1555.62 1.17" fill="none" stroke="#3b4351" stroke-miterlimit="10"/><polygon id="Hitites" points="347.74 -0.27 337.24 -113 361.62 -226 400.62 -337 439.62 -450 658.62 -564 742.62 -674 835.62 -786 785.62 -898 750.62 -1012 770.62 -1126 800.62 -1237.83 733.62 -1349.27 656.62 -1463.08 662.62 -1578 633.62 -1690 663.62 -1802 786.62 -1912.5 940.62 -2024.5 982.62 -2137.16 1042.62 -2247.83 1103.77 -2359.83 1152.07 -2359.83 1091.29 -2247.83 1025.29 -2137.16 1027.29 -2024.5 910.76 -1912.5 823.95 -1802 785.95 -1690 826.62 -1578 853.28 -1463 910.76 -1349.27 992.62 -1237 961.95 -1126.83 971.95 -1012.16 969.28 -898 975.28 -786.16 954.62 -676.16 857.28 -564 623.95 -450 566.62 -337 481.23 -226 394.24 -113 347.74 -0.27" fill="none" stroke="#3b4351" stroke-miterlimit="10"/><polygon id="Greeks" points="1131.14 2015 1118.7 1910 998.71 1796 683.72 1682 467.73 1572 287.74 1457 231.95 1345 205.28 1235 169.95 1123 149.95 1011 137.95 895 116.62 782 111.95 671 95.28 559 85.95 447 75.42 337 75.42 163.67 75.42 -1126 142.25 -1012 145.25 -898 155.75 -786 172.25 -674 202.25 -564 223.25 -450 251.62 -337 250.62 -226 221.95 -112.16 228.6 -0.27 199.95 109.84 217.95 221.84 237.43 337 262.62 447 259.95 559 319.29 671 349.95 782 401.29 895 527.28 1011 645.95 1123 761.95 1235 965.29 1345 965.95 1457 897.95 1571.17 910.76 1681.73 1099.37 1796 1168.66 1910.09 1131.14 2015" fill="none" stroke="#3b4351" stroke-miterlimit="10"/><polygon id="Egyptians" points="1195.2 2125.31 1131.14 2015 1168.66 1910.09 1099.2 1795.73 910.76 1681.73 897.95 1571.17 965.95 1457 965.28 1344.5 761.95 1235 645.95 1123 527.28 1011 401.29 895 349.95 782 319.29 671 259.95 559 262.62 447 238.62 337 217.95 222 199.95 110 228.62 0 221.62 -113 250.62 -226 251.62 -337 223.25 -450 271.57 -564 265.25 -674 305.74 -786 341.74 -898 376.24 -1012 440.74 -1126 467.73 -1236.09 443.74 -1349 381.96 -1463 242.75 -1578 298.62 -1690 424.24 -1802 460.24 -1912.5 397.24 -2024.5 319.24 -2137.16 319.24 -2247.83 298.62 -2359.83 1103.77 -2359.83 1042.62 -2247.83 982.62 -2137.16 940.62 -2024.5 786.62 -1912.5 663.62 -1802 633.62 -1690 662.62 -1578 656.62 -1463.08 733.62 -1349.27 800.62 -1237.83 770.62 -1126 750.62 -1012 785.62 -898 835.62 -786 742.62 -674 658.62 -564 439.62 -450 400.62 -337 361.62 -226 302.62 -113 310.62 0 282.62 110 271.95 222 305.95 447 323.95 558.5 432.62 671 476.62 781.17 451.95 895 555.95 1011 667.28 1123 813.28 1235 968.62 1345 995.95 1457 968.62 1571.84 940.62 1680.5 1130.91 1795.73 1189.62 1910.67 1157.7 2015 1195.2 2125.31" fill="none" stroke="#3b4351" stroke-miterlimit="10"/><polygon id="Chinese" points="1610.76 -0.27 1609.69 -113.27 1608.62 -226.33 1585.12 -337 1551.62 -450 1509.12 -564 1538.12 -674.27 1586.62 -786.27 1616.12 -898 1645.62 -1012.27 1697.12 -1126.27 1714.62 -1237.33 1689.12 -1349 1700.12 -1463 1676.62 -1578 1650.62 -1690.33 1630.62 -1802 1620.62 -1912.5 1646.62 -2024.5 1667.62 -2137.16 1651.62 -2247.83 1633.99 -2359.83 1768.79 -2359.83 1768.79 5840.83 1768.79 5955.73 1766.12 6067.83 1757.62 6179.83 1736.12 6292.73 1676.12 6404.73 1661.12 6515.83 1663.62 6629.66 1606.12 6629.66 1606.12 6515.73 1620.12 6404.83 1701.62 6292.83 1696.12 6179.67 1654.12 6067.83 1681.62 5955.83 1739.62 5840.73 1748.62 5727.67 1744.12 5615.67 1685.62 5501.83 1615.12 5391.17 1636.12 5279.83 1738.62 5165.83 1761.12 5050.83 1758.62 4939.83 1732.12 4827.83 1695.62 4713.83 1667.62 4602.83 1651.12 4485.83 1650.12 4377.83 1620.12 4266.83 1585.62 4151.73 1552.62 4037.73 1535.12 3925.83 1516.12 3814.73 1476.12 3700.83 1542.12 3587.83 1625.62 3477.67 1668.12 3364.67 1666.12 3253 1673.62 3138 1653.62 3030 1602.12 2916.73 1534.12 2806.73 1564.12 2695 1598.12 2580.73 1612.12 2466 1611.01 2354.73 1592.62 2243.73 1609.25 2128 1616.07 2015 1553.62 1910 1529.62 1796 1528.62 1681.73 1555.62 1572 1612.12 1457 1621.12 1345 1587.12 1235 1567.62 1123 1576.62 1011 1571.12 895 1584.62 781.73 1558.62 671 1545.62 558.73 1557.62 446.73 1599.62 337 1625.12 221.73 1613.62 109.73 1610.76 -0.27" fill="none" stroke="#3b4351" stroke-miterlimit="10"/><polygon id="Amorites" points="1263.29 1.17 1240.62 110 1322.62 222 1294.62 337 1242.62 446.73 1205.62 558.73 1176.62 670.73 1041.62 781.73 866.62 895 767.62 1011 788.62 1123 890.71 1234.73 762.62 1122.73 716.62 1010.73 709.62 895 755.62 782 1054.29 670.73 1156.62 559 1173.62 445.17 1199.62 335.17 1138.62 222 910.76 110 832.62 -0.27 949.95 -113 1040.62 -226.27 1141.31 -337 1225.29 -450.16 1147.62 -564 1085.29 -674 1061.29 -786.27 1028.62 -898.27 971.95 -1012.16 961.95 -1126.83 992.62 -1237 910.76 -1349.27 853.28 -1463 826.62 -1578 785.95 -1690 823.95 -1802 910.76 -1912.5 1027.29 -2024.5 1025.29 -2137.16 1091.29 -2247.83 1152.07 -2359.83 1283.88 -2359.83 1268.62 -2247.83 1277.29 -2138.16 1275.29 -2024.5 1198.62 -1912.5 1131.29 -1802 1153.95 -1690 1156.67 -1578.27 1161.95 -1463 1153.95 -1350.16 1188.62 -1237.5 1137.95 -1126.16 1153.29 -1012.83 1175.95 -898 1140.62 -787.5 1163.29 -674.16 1217.95 -564.83 1280.62 -450 1241.29 -337.5 1211.95 -227.5 1235.95 -113 1263.29 1.17" fill="none" stroke="#3b4351" stroke-miterlimit="10"/><polygon id="Assyrian_Kingdom" data-name="Assyrian Kingdom" points="631.95 -0.27 635.28 -113 679.9 -226 701.28 -337 799.28 -450 980.62 -564 1007.95 -674 1020.62 -786 998.62 -898 971.95 -1012.16 1028.62 -898.27 1061.29 -786.27 1085.29 -674 1147.62 -564 1225.29 -450.16 1141.31 -337 1040.62 -226.27 949.95 -113 832.62 -0.27 910.76 110 1138.62 222 1199.62 335.17 1173.62 445.17 1156.62 559 1054.29 670.73 755.62 782 709.62 895 716.62 1010.73 658.28 895 654.62 782 630.95 671 510.62 559 518.62 447 595.95 337 638.62 222 643.28 110 631.95 -0.27" fill="none" stroke="#3b4351" stroke-miterlimit="10"/><polygon id="OPians" points="305.95 447 289.61 338.83 271.95 222 282.62 110 310.62 0 302.62 -113 361.62 -226 337.24 -113 347.74 -0.27 359.29 222 383.29 337 387.95 447 375.82 559 465.29 671 476.62 781.17 432.62 671 323.95 558.5 305.95 447" fill="none" stroke="#3b4351" stroke-miterlimit="10"/><polygon id="Hebrews" points="635.28 -113 631.95 -0.27 643.28 110 638.62 222 595.95 337 518.62 447 510.62 559 630.95 671 654.62 782 658.28 895 716.62 1010.73 647.18 895 644.62 782 617.95 671 493.29 559 500.03 447 570.62 337 613.28 223 583.28 110 569.28 0 511.95 -113 573.95 -226 630.62 -337 697.58 -450 921.28 -564 989.95 -674 1020.62 -786 1007.95 -674 980.62 -564 799.28 -450 701.28 -337 679.9 -226 635.28 -113" fill="none" stroke="#3b4351" stroke-miterlimit="10"/><polygon id="Syrians" points="500.03 447 493.29 559 439.95 447 428.62 337 479.29 222 509.95 110 538.62 0 511.95 -113 569.28 0 583.28 110 613.28 223 570.62 337 500.03 447" fill="none" stroke="#3b4351" stroke-miterlimit="10"/><polygon points="1130.91 1795.73 940.62 1680.5 968.62 1571.84 995.95 1457 968.62 1345 813.28 1235 667.28 1123 624.62 1011 611.95 895 608.62 782 523.28 671 375.82 559 387.95 447 383.29 337 359.29 222 340.62 111.16 347.74 -0.27 394.24 -113 481.23 -226 566.62 -337 623.95 -450 857.28 -564 954.62 -676.16 975.28 -786.16 969.28 -898 971.95 -1012.16 998.62 -898 1020.62 -786 989.95 -674 921.28 -564 697.58 -450 630.62 -337 573.95 -226 511.95 -113 538.62 0 509.95 110 479.29 222 428.62 337 439.95 447 493.29 559 617.95 671 644.62 782 647.18 895 716.62 1010.73 762.62 1122.73 890.71 1234.73 1086.62 1345 1219.62 1457 1225.12 1572 1186.62 1682 1130.91 1795.73" fill="none" stroke="#3b4351" stroke-miterlimit="10"/></g><g id="Text"><g id="Phonecians"><path d="M379.61,8.87h5.54C388.51,8.87,390,11,390,14s-1.86,5.17-5.12,5.17h-2.45v7.23h-2.8Zm2.8,8.16h2c1.5,0,2.8-.78,2.8-3,0-1.89-.76-3-3-3h-1.79Z" fill="#3b4351"/><path d="M391.86,8.87h2.8v7h5.14v-7h2.8v17.5h-2.8V18.23h-5.14v8.14h-2.8Z" fill="#3b4351"/><path d="M405.07,17.62c0-6.25,1.76-9.09,5.78-9.09s5.79,2.84,5.79,9.09-1.77,9.09-5.79,9.09S405.07,23.87,405.07,17.62Zm8.77-.07c0-5.88-1.32-6.91-3-6.91s-3,1-3,6.91,1.33,7.06,3,7.06S413.84,23.55,413.84,17.55Z" fill="#3b4351"/><path d="M419.11,8.87h9.46v2.36H421.9v4.85h6.28v2.35H421.9V24h6.86v2.35h-9.65Z" fill="#3b4351"/><path d="M430.89,8.87h3.41l5.07,13h.05v-13h2.65v17.5h-3.41L433.59,13h0V26.37h-2.65Z" fill="#3b4351"/><path d="M445,8.87h9.45v2.36h-6.66v4.85H454v2.35h-6.27V24h6.86v2.35H445Z" fill="#3b4351"/><path d="M467.5,20.1v.36c0,3.17-1.3,6.25-5.39,6.25-4.41,0-5.79-2.84-5.79-9.09s1.38-9.09,5.81-9.09c5,0,5.27,3.65,5.27,5.49v.32h-2.79V14c0-1.64-.49-3.48-2.5-3.4s-3,1.27-3,6.91.9,7.06,3,7.06c2.35,0,2.59-2.58,2.59-4.22V20.1Z" fill="#3b4351"/><path d="M469.33,8.87h2.8v17.5h-2.8Z" fill="#3b4351"/><path d="M478.2,8.87h3.58l4.61,17.5h-2.92l-1.08-4.29h-5.12l-1.13,4.29h-2.91Zm3.73,11-2-8.62h-.05l-2.08,8.62Z" fill="#3b4351"/><path d="M487.61,8.87H491l5.07,13h.05v-13h2.64v17.5h-3.4L490.3,13h0V26.37h-2.65Z" fill="#3b4351"/><path d="M503.83,21v.44c0,2.13.95,3.21,2.87,3.21a2.51,2.51,0,0,0,2.64-2.55c0-1.84-.93-2.65-2.5-3.11l-1.91-.67c-2.55-1-3.65-2.3-3.65-4.8,0-3.19,2.18-5,5.44-5,4.48,0,4.95,2.79,4.95,4.61v.39h-2.79v-.37c0-1.59-.69-2.52-2.45-2.52a2.23,2.23,0,0,0-2.36,2.52c0,1.5.76,2.26,2.63,3l1.88.68c2.48.89,3.56,2.21,3.56,4.64,0,3.72-2.26,5.26-5.79,5.26-4.34,0-5.32-2.89-5.32-5.34V21Z" fill="#3b4351"/></g><g id="Iranians-2" data-name="Iranians"><path d="M1267,64.79l7.33-12.94h-6.89V49.5h9.95v2.35L1270,64.64h7.4V67H1267Z" fill="#3b4351"/><path d="M1278.63,60.4c0-4.12,1.08-6.93,4.9-6.93s4.93,2.81,4.93,6.93-1.28,6.94-4.93,6.94S1278.63,64.52,1278.63,60.4Zm4.9,5c1.94,0,2.28-1.61,2.28-5,0-2.92-.34-5-2.28-5s-2.25,2-2.25,5C1281.28,63.76,1281.65,65.37,1283.53,65.37Z" fill="#3b4351"/><path d="M1290.49,53.81h2.65v2.06h0a3.26,3.26,0,0,1,3.07-2.4,1.61,1.61,0,0,1,.64.09v2.7a3.87,3.87,0,0,0-1.11-.15c-1.2,0-2.64.54-2.64,3V67h-2.65Z" fill="#3b4351"/><path d="M1297.69,60.4c0-4.12,1.08-6.93,4.9-6.93s4.93,2.81,4.93,6.93-1.28,6.94-4.93,6.94S1297.69,64.52,1297.69,60.4Zm4.9,5c1.94,0,2.28-1.61,2.28-5,0-2.92-.34-5-2.28-5s-2.25,2-2.25,5C1300.34,63.76,1300.71,65.37,1302.59,65.37Z" fill="#3b4351"/><path d="M1318.2,64.25c0,.49.29.93.69.93a1.22,1.22,0,0,0,.44-.07v1.71a2.86,2.86,0,0,1-1.3.32c-1.18,0-2.16-.47-2.23-1.74h0a3.41,3.41,0,0,1-3.28,1.94c-2.14,0-3.43-1.16-3.43-3.7,0-3,1.29-3.56,3.06-4.15l2.06-.56c.95-.27,1.54-.54,1.54-1.69s-.42-2-1.81-2c-1.77,0-2,1.25-2,2.52h-2.5c0-2.82,1.15-4.33,4.63-4.33,2.33,0,4.19.9,4.19,3.23ZM1315.7,60a20,20,0,0,1-2.94,1.23,2.17,2.17,0,0,0-1.08,2.13c0,1.1.54,2,1.64,2,1.6,0,2.38-1.17,2.38-3.13Z" fill="#3b4351"/><path d="M1326.58,57.66v-.35c0-1.05-.37-2-1.74-2-1,0-1.89.46-1.89,1.71,0,1.06.47,1.45,1.86,1.94l1.7.59c2,.66,2.86,1.71,2.86,3.8,0,2.81-2.08,4-4.73,4-3.33,0-4.33-1.55-4.33-4.1v-.49h2.35v.42c0,1.54.51,2.35,2.06,2.35s2.15-.73,2.15-1.93a1.91,1.91,0,0,0-1.44-1.94l-2.16-.76c-2-.66-2.82-1.69-2.82-3.8,0-2.47,1.77-3.62,4.51-3.62,3.36,0,4.12,2,4.12,3.6v.59Z" fill="#3b4351"/><path d="M1330.15,53.81H1332V50.06h2.64v3.75h2.16v2h-2.16v7.87c0,1,.3,1.39,1.2,1.39a5,5,0,0,0,1-.07v2a8.44,8.44,0,0,1-2.13.22c-1.77,0-2.67-.52-2.67-3.19V55.77h-1.82Z" fill="#3b4351"/><path d="M1340.42,60.74v.76c0,1.77.22,4,2.21,4s2.1-2.13,2.1-2.94h2.5c0,3-1.76,4.76-4.63,4.76-2.16,0-4.83-.64-4.83-6.74,0-3.46.76-7.13,4.88-7.13,3.68,0,4.66,2.23,4.66,5.88v1.39Zm4.24-1.81v-.71c0-1.67-.54-2.94-2-2.94-1.67,0-2.21,1.67-2.21,3.38v.27Z" fill="#3b4351"/><path d="M1349.48,53.81h2.65v2.06h0a3.26,3.26,0,0,1,3.06-2.4,1.61,1.61,0,0,1,.64.09v2.7a3.84,3.84,0,0,0-1.1-.15c-1.2,0-2.65.54-2.65,3V67h-2.65Z" fill="#3b4351"/></g><g id="Egytians"><g id="small-2" data-name="small"><path d="M306.43-1.33h2.05l2.63,10h-1.67l-.61-2.45H305.9l-.65,2.45h-1.66ZM308.56,5,307.41,0h0L306.19,5Z" fill="#3b4351"/><path d="M311.71-1.33h1.51V2h0A1.74,1.74,0,0,1,315,.94c1.15,0,2.32.52,2.32,3.87,0,2.59-.71,4.06-2.46,4.06a1.62,1.62,0,0,1-1.66-1.12h0v.92h-1.43Zm2.7,9c1.07,0,1.28-1.08,1.28-2.79,0-2-.33-2.73-1.18-2.73-1.18,0-1.37,1-1.37,2.84C313.14,6.62,313.38,7.67,314.41,7.67Z" fill="#3b4351"/><path d="M319.28,1.14l1.31,5.66h0l1.21-5.66h1.58L321.33,9c-.6,2-1.07,2.33-2.64,2.29a3,3,0,0,1-.6-.05V10a2.05,2.05,0,0,0,.49.06c.52,0,.86-.1,1-.59l.2-.62-2.14-7.7Z" fill="#3b4351"/><path d="M327.49,3.34v-.2c0-.6-.21-1.16-1-1.16-.6,0-1.08.27-1.08,1s.27.83,1.07,1.11l1,.33a2,2,0,0,1,1.63,2.17c0,1.61-1.19,2.3-2.7,2.3-1.9,0-2.48-.88-2.48-2.34V6.25h1.35v.24c0,.88.29,1.34,1.17,1.34s1.24-.42,1.24-1.1a1.09,1.09,0,0,0-.83-1.11l-1.23-.43A2,2,0,0,1,324,3c0-1.42,1-2.08,2.57-2.08,1.92,0,2.36,1.12,2.36,2.06v.34Z" fill="#3b4351"/><path d="M333.45,3.34v-.2c0-.6-.21-1.16-1-1.16-.61,0-1.08.27-1.08,1s.26.83,1.06,1.11l1,.33a2,2,0,0,1,1.64,2.17c0,1.61-1.19,2.3-2.7,2.3-1.91,0-2.48-.88-2.48-2.34V6.25h1.34v.24c0,.88.29,1.34,1.18,1.34s1.23-.42,1.23-1.1a1.09,1.09,0,0,0-.83-1.11l-1.23-.43A2,2,0,0,1,330,3c0-1.42,1-2.08,2.58-2.08,1.92,0,2.35,1.12,2.35,2.06v.34Z" fill="#3b4351"/><path d="M336.24-1.44h1.51V.07h-1.51Zm0,2.58h1.51V8.67h-1.51Z" fill="#3b4351"/><path d="M339.27,1.14h1.43V2h0A2.18,2.18,0,0,1,342.68.94c1.15,0,1.87.52,1.87,2.05V8.67H343V3.51c0-1-.26-1.36-1.05-1.36-.62,0-1.2.46-1.2,1.47V8.67h-1.52Z" fill="#3b4351"/><path d="M346.08-1.44h1.51V.07h-1.51Zm0,2.58h1.51V8.67h-1.51Z" fill="#3b4351"/><path d="M354.06,7.11c0,.28.17.53.39.53a.72.72,0,0,0,.25,0v1a1.68,1.68,0,0,1-.74.18c-.67,0-1.23-.27-1.27-1h0a1.94,1.94,0,0,1-1.88,1.11c-1.22,0-2-.66-2-2.11a2.08,2.08,0,0,1,1.75-2.37l1.18-.32c.55-.16.88-.31.88-1s-.24-1.12-1-1.12c-1,0-1.14.71-1.14,1.44H349c0-1.61.66-2.48,2.64-2.48,1.34,0,2.4.52,2.4,1.85ZM352.63,4.7a13.82,13.82,0,0,1-1.68.7,1.25,1.25,0,0,0-.62,1.22c0,.63.31,1.13.94,1.13.91,0,1.36-.67,1.36-1.79Z" fill="#3b4351"/><path d="M355.75,6.83h1.6V8.67h-1.6Z" fill="#3b4351"/><path d="M243.87,10.17l-2.41-4.92h1.76l1.6,3.32,1.57-3.32h1.72l-2.42,4.92,2.55,5.08h-1.77l-1.73-3.61L243,15.25h-1.73Z" fill="#3b4351"/><path d="M250.87,10.17l-2.41-4.92h1.76l1.6,3.32,1.57-3.32h1.72l-2.42,4.92,2.55,5.08h-1.77l-1.73-3.61L250,15.25h-1.73Z" fill="#3b4351"/><path d="M256,5.25h1.6v10H256Z" fill="#3b4351"/><path d="M259.1,5.25h1.59v10H259.1Z" fill="#3b4351"/><path d="M262.18,7.72h1.43V8.6h0a2.17,2.17,0,0,1,1.93-1.08c1.15,0,1.88.52,1.88,2.05v5.68H266V10.08c0-1-.27-1.35-1.05-1.35-.62,0-1.21.46-1.21,1.47v5.05h-1.51Z" fill="#3b4351"/><path d="M272.76,14.33h0a1.62,1.62,0,0,1-1.66,1.12c-1.75,0-2.46-1.49-2.46-4.06,0-3.35,1.17-3.87,2.32-3.87a1.74,1.74,0,0,1,1.71,1.08h0V5.25h1.51v10h-1.43Zm-1.37-5.6c-.85,0-1.18.7-1.18,2.73,0,1.71.21,2.78,1.28,2.78s1.27-1.05,1.27-2.67C272.76,9.76,272.57,8.73,271.39,8.73Z" fill="#3b4351"/><path d="M237.51,23.25h2.84c3.14,0,3.53,2.05,3.53,5s-.39,5-3.53,5h-2.84Zm1.6,8.8h1.31c1.32,0,1.87-.87,1.87-3.8s-.48-3.79-1.87-3.79h-1.31Z" fill="#3b4351"/><path d="M246.2,25.72l1.31,5.66h0l1.2-5.66h1.58l-2.07,7.81c-.6,2.06-1.06,2.34-2.63,2.3a2.53,2.53,0,0,1-.61-.06v-1.2a2.12,2.12,0,0,0,.49.06c.52,0,.86-.1,1-.59l.19-.62-2.14-7.7Z" fill="#3b4351"/><path d="M251.16,25.72h1.43v.88h0a2.17,2.17,0,0,1,1.93-1.08c1.15,0,1.88.52,1.88,2.05v5.68h-1.51V28.08c0-1-.27-1.35-1.05-1.35-.62,0-1.21.46-1.21,1.47v5.05h-1.51Z" fill="#3b4351"/><path d="M262.84,31.68c0,.28.17.54.39.54a.52.52,0,0,0,.25,0v1a1.68,1.68,0,0,1-.74.18c-.67,0-1.23-.27-1.27-1h0a2,2,0,0,1-1.88,1.11c-1.22,0-2-.66-2-2.12A2.06,2.06,0,0,1,259.35,29l1.18-.33c.54-.15.88-.3.88-1s-.24-1.12-1-1.12c-1,0-1.14.71-1.14,1.44H257.8c0-1.61.65-2.48,2.64-2.48,1.33,0,2.4.52,2.4,1.85Zm-1.43-2.4a13.82,13.82,0,0,1-1.68.7,1.23,1.23,0,0,0-.62,1.21c0,.63.31,1.14.94,1.14.91,0,1.36-.67,1.36-1.79Z" fill="#3b4351"/><path d="M267.63,27.92v-.2c0-.6-.21-1.16-1-1.16-.6,0-1.08.26-1.08,1s.27.82,1.07,1.1l1,.34a2,2,0,0,1,1.64,2.17c0,1.61-1.19,2.3-2.7,2.3-1.91,0-2.48-.88-2.48-2.34v-.28h1.34v.24c0,.88.3,1.34,1.18,1.34s1.23-.42,1.23-1.1A1.09,1.09,0,0,0,267,30.2l-1.24-.43a2,2,0,0,1-1.61-2.18c0-1.41,1-2.07,2.58-2.07,1.92,0,2.35,1.12,2.35,2.06v.34Z" fill="#3b4351"/><path d="M269.67,25.72h1V23.57h1.52v2.15h1.23v1.12h-1.23v4.49c0,.61.17.8.68.8a2.75,2.75,0,0,0,.55,0v1.12a5.11,5.11,0,0,1-1.22.13c-1,0-1.53-.3-1.53-1.82V26.84h-1Z" fill="#3b4351"/><path d="M275.24,25.72l1.3,5.66h0l1.21-5.66h1.58l-2.07,7.81c-.61,2.06-1.07,2.34-2.64,2.3a2.45,2.45,0,0,1-.6-.06v-1.2a2.05,2.05,0,0,0,.49.06c.52,0,.85-.1,1-.59l.2-.62-2.14-7.7Z" fill="#3b4351"/><path d="M230.46,48.16v.25c0,1.22.55,1.83,1.64,1.83a1.42,1.42,0,0,0,1.51-1.45A1.68,1.68,0,0,0,232.19,47l-1.1-.38A2.67,2.67,0,0,1,229,43.88c0-1.82,1.24-2.82,3.11-2.82,2.56,0,2.82,1.59,2.82,2.63v.22h-1.59V43.7c0-.91-.39-1.44-1.4-1.44a1.28,1.28,0,0,0-1.35,1.44c0,.86.44,1.29,1.5,1.7l1.08.39a2.55,2.55,0,0,1,2,2.65c0,2.13-1.29,3-3.3,3a2.74,2.74,0,0,1-3-3.05v-.24Z" fill="#3b4351"/><path d="M236.4,41.25h1.51v3.28l0,0a2.16,2.16,0,0,1,1.85-1c1.15,0,1.88.52,1.88,2v5.68h-1.51V46.08c0-1-.28-1.35-1-1.35s-1.21.47-1.21,1.47v5H236.4Z" fill="#3b4351"/><path d="M244.43,47.68v.44c0,1,.13,2.29,1.27,2.29s1.2-1.22,1.2-1.68h1.43a2.48,2.48,0,0,1-2.65,2.72c-1.23,0-2.76-.37-2.76-3.85,0-2,.44-4.08,2.79-4.08,2.1,0,2.66,1.28,2.66,3.36v.8Zm2.43-1v-.4c0-1-.31-1.68-1.16-1.68s-1.27.95-1.27,1.93v.15Z" fill="#3b4351"/><path d="M252.86,45.92v-.2c0-.6-.21-1.16-1-1.16-.6,0-1.08.26-1.08,1s.27.82,1.06,1.1l1,.34a2,2,0,0,1,1.64,2.17c0,1.61-1.19,2.3-2.7,2.3-1.91,0-2.48-.88-2.48-2.34v-.28h1.34v.24c0,.88.3,1.34,1.18,1.34S253,50,253,49.31a1.09,1.09,0,0,0-.83-1.11L251,47.77a2,2,0,0,1-1.61-2.18c0-1.41,1-2.07,2.58-2.07,1.92,0,2.35,1.12,2.35,2.06v.34Z" fill="#3b4351"/><path d="M255.58,41.25h1.51v3.28l0,0a2.16,2.16,0,0,1,1.85-1c1.15,0,1.88.52,1.88,2v5.68h-1.51V46.08c0-1-.28-1.35-1.06-1.35-.61,0-1.2.47-1.2,1.47v5h-1.51Z" fill="#3b4351"/><path d="M262,47.49c0-2.36.61-4,2.8-4s2.81,1.61,2.81,4-.72,4-2.81,4S262,49.84,262,47.49Zm2.8,2.84c1.11,0,1.3-.93,1.3-2.84,0-1.67-.19-2.85-1.3-2.85s-1.29,1.18-1.29,2.85C263.53,49.4,263.74,50.33,264.82,50.33Z" fill="#3b4351"/><path d="M268.79,43.72h1.43v.88h0a2.18,2.18,0,0,1,1.94-1.08c1.15,0,1.87.52,1.87,2v5.68h-1.51V46.08c0-1-.26-1.35-1.05-1.35-.62,0-1.2.46-1.2,1.47v5h-1.52Z" fill="#3b4351"/><path d="M275.53,41.25H277v5.62h0l2.28-3.15,1.75,0-2.27,2.92,2.57,4.63h-1.66l-1.85-3.43-.85,1v2.39h-1.51Z" fill="#3b4351"/><path d="M285.4,41.25H287v10H285.4Z" fill="#3b4351"/><path d="M236.69,59.25a11.83,11.83,0,0,0-1.59,6.29,12.22,12.22,0,0,0,1.59,6.29h-1.08a10.7,10.7,0,0,1,0-12.58Z" fill="#3b4351"/><path d="M238.75,66.16v.25c0,1.22.55,1.83,1.64,1.83a1.43,1.43,0,0,0,1.51-1.45A1.68,1.68,0,0,0,240.47,65l-1.09-.38a2.67,2.67,0,0,1-2.09-2.75c0-1.82,1.25-2.82,3.11-2.82,2.57,0,2.83,1.59,2.83,2.63v.22h-1.59V61.7c0-.91-.4-1.44-1.4-1.44a1.28,1.28,0,0,0-1.35,1.44c0,.86.43,1.29,1.5,1.7l1.08.39a2.55,2.55,0,0,1,2,2.65c0,2.13-1.29,3-3.31,3a2.74,2.74,0,0,1-3-3v-.24Z" fill="#3b4351"/><path d="M244.69,59.25h1.51v3.28l0,0a2.15,2.15,0,0,1,1.85-1c1.15,0,1.88.52,1.88,2v5.68h-1.52V64.08c0-1-.28-1.35-1-1.35-.61,0-1.2.47-1.2,1.47v5h-1.51Z" fill="#3b4351"/><path d="M251.49,59.14H253v1.51h-1.51Zm0,2.58H253v7.53h-1.51Z" fill="#3b4351"/><path d="M257.78,63.92v-.2c0-.6-.21-1.16-1-1.16-.6,0-1.08.26-1.08,1s.27.82,1.07,1.1l1,.34a2,2,0,0,1,1.63,2.17c0,1.61-1.19,2.3-2.7,2.3-1.9,0-2.48-.88-2.48-2.34v-.28h1.35v.24c0,.88.29,1.34,1.17,1.34S258,68,258,67.31a1.09,1.09,0,0,0-.83-1.11l-1.23-.43a2,2,0,0,1-1.61-2.18c0-1.41,1-2.07,2.57-2.07,1.92,0,2.36,1.12,2.36,2.06v.34Z" fill="#3b4351"/><path d="M260.49,59.25H262v3.28l.05,0a2.14,2.14,0,0,1,1.85-1c1.14,0,1.87.52,1.87,2v5.68h-1.51V64.08c0-1-.28-1.35-1.05-1.35-.62,0-1.21.47-1.21,1.47v5h-1.51Z" fill="#3b4351"/><path d="M272.17,67.68c0,.28.17.54.39.54a.52.52,0,0,0,.25,0v1a1.68,1.68,0,0,1-.74.18c-.67,0-1.23-.27-1.27-1h0a2,2,0,0,1-1.88,1.11c-1.22,0-2-.66-2-2.12A2.06,2.06,0,0,1,268.68,65l1.18-.33c.55-.15.88-.3.88-1s-.24-1.12-1-1.12c-1,0-1.14.71-1.14,1.44h-1.43c0-1.61.66-2.48,2.64-2.48,1.34,0,2.4.52,2.4,1.85Zm-1.43-2.4a13.82,13.82,0,0,1-1.68.7,1.23,1.23,0,0,0-.62,1.21c0,.63.31,1.14.94,1.14.91,0,1.36-.67,1.36-1.79Z" fill="#3b4351"/><path d="M273.71,59.25h1.51v5.62h0l2.28-3.15,1.75,0L277,64.62l2.57,4.63h-1.66l-1.85-3.43-.85,1v2.39h-1.51Z" fill="#3b4351"/><path d="M279.46,71.83a11.81,11.81,0,0,0,1.6-6.29,12.23,12.23,0,0,0-1.6-6.29h1.08a10.7,10.7,0,0,1,0,12.58Z" fill="#3b4351"/><path d="M235.32,77.25h3.17c1.91,0,2.75,1.21,2.75,2.92a2.71,2.71,0,0,1-2.92,3h-1.4v4.13h-1.6Zm1.6,4.67h1.13a1.51,1.51,0,0,0,1.6-1.73c0-1.07-.44-1.73-1.71-1.73h-1Z" fill="#3b4351"/><path d="M242.29,77.25h1.51v10h-1.51Z" fill="#3b4351"/><path d="M249.18,86.37h0a2.17,2.17,0,0,1-1.93,1.08c-1.12,0-1.88-.52-1.88-2.47V79.72h1.51v5.4c0,.84.37,1.12,1,1.12A1.18,1.18,0,0,0,249.1,85V79.72h1.51v7.53h-1.43Z" fill="#3b4351"/><path d="M252.06,79.72h1.43v.88h0a2.18,2.18,0,0,1,1.94-1.08c1.15,0,1.87.52,1.87,2v5.68h-1.51V82.08c0-1-.26-1.35-1.05-1.35-.62,0-1.2.46-1.2,1.47v5h-1.52Z" fill="#3b4351"/><path d="M262.65,86.33h0A1.61,1.61,0,0,1,261,87.45c-1.75,0-2.47-1.49-2.47-4.06,0-3.35,1.18-3.87,2.33-3.87a1.75,1.75,0,0,1,1.71,1.08h0V77.25h1.51v10h-1.43Zm-1.37-5.6c-.86,0-1.18.7-1.18,2.73,0,1.71.21,2.78,1.27,2.78s1.28-1,1.28-2.67C262.65,81.76,262.45,80.73,261.28,80.73Z" fill="#3b4351"/><path d="M266.83,83.68v.44c0,1,.13,2.29,1.26,2.29s1.21-1.22,1.21-1.68h1.43a2.48,2.48,0,0,1-2.65,2.72c-1.23,0-2.76-.37-2.76-3.85,0-2,.44-4.08,2.79-4.08,2.1,0,2.66,1.28,2.66,3.36v.8Zm2.43-1v-.4c0-.95-.31-1.68-1.17-1.68s-1.26,1-1.26,1.93v.15Z" fill="#3b4351"/><path d="M272,79.72h1.52v1.17h0a1.87,1.87,0,0,1,1.75-1.37.92.92,0,0,1,.37.06v1.54A2.17,2.17,0,0,0,275,81c-.69,0-1.51.31-1.51,1.71v4.51H272Z" fill="#3b4351"/><path d="M279.67,81.92v-.2c0-.6-.21-1.16-1-1.16-.6,0-1.08.26-1.08,1s.27.82,1.06,1.1l1,.34a2,2,0,0,1,1.64,2.17c0,1.61-1.19,2.3-2.7,2.3-1.91,0-2.48-.88-2.48-2.34v-.28h1.34v.24c0,.88.3,1.34,1.18,1.34s1.23-.42,1.23-1.1A1.09,1.09,0,0,0,279,84.2l-1.23-.43a2,2,0,0,1-1.61-2.18c0-1.41,1-2.07,2.58-2.07,1.92,0,2.35,1.12,2.35,2.06v.34Z" fill="#3b4351"/><path d="M230,102.24v.49c0,.81.17,1.51,1.07,1.51,1.06,0,1.06-1,1.06-2v-7h1.6v7.24c0,2.22-1.09,3-2.69,3-2.06,0-2.51-1.26-2.55-2.56v-.65Z" fill="#3b4351"/><path d="M236.52,101.68v.44c0,1,.13,2.29,1.27,2.29s1.2-1.22,1.2-1.68h1.43a2.48,2.48,0,0,1-2.65,2.72c-1.23,0-2.76-.37-2.76-3.85,0-2,.44-4.08,2.79-4.08,2.1,0,2.66,1.28,2.66,3.36v.8Zm2.43-1v-.4c0-.95-.31-1.68-1.16-1.68s-1.27,1-1.27,1.93v.15Z" fill="#3b4351"/><path d="M241.7,97.72h1.52v1.17h0A1.87,1.87,0,0,1,245,97.52a.87.87,0,0,1,.36.06v1.54a2.11,2.11,0,0,0-.63-.09c-.69,0-1.51.31-1.51,1.71v4.51H241.7Z" fill="#3b4351"/><path d="M250,104.37h-.05a2.17,2.17,0,0,1-1.93,1.08c-1.12,0-1.88-.52-1.88-2.47V97.72h1.52v5.4c0,.84.36,1.12,1,1.12a1.17,1.17,0,0,0,1.23-1.26V97.72h1.51v7.53H250Z" fill="#3b4351"/><path d="M256.1,99.92v-.2c0-.6-.21-1.16-1-1.16-.6,0-1.08.26-1.08,1s.27.82,1.07,1.1l1,.34a2,2,0,0,1,1.64,2.17c0,1.61-1.19,2.3-2.7,2.3-1.91,0-2.48-.88-2.48-2.34v-.28h1.35v.24c0,.88.29,1.34,1.17,1.34s1.24-.42,1.24-1.1a1.1,1.1,0,0,0-.83-1.11l-1.23-.43a2,2,0,0,1-1.62-2.18c0-1.41,1-2.07,2.58-2.07,1.92,0,2.36,1.12,2.36,2.06v.34Z" fill="#3b4351"/><path d="M263.76,103.68c0,.28.16.54.39.54a.55.55,0,0,0,.25,0v1a1.71,1.71,0,0,1-.74.18c-.67,0-1.24-.27-1.28-1h0a1.94,1.94,0,0,1-1.87,1.11c-1.22,0-2-.66-2-2.12a2.06,2.06,0,0,1,1.75-2.36l1.17-.33c.55-.15.89-.3.89-1s-.24-1.12-1-1.12c-1,0-1.15.71-1.15,1.44h-1.43c0-1.61.66-2.48,2.65-2.48,1.33,0,2.4.52,2.4,1.85Zm-1.43-2.4a13.82,13.82,0,0,1-1.68.7,1.22,1.22,0,0,0-.62,1.21c0,.63.31,1.14.94,1.14.91,0,1.36-.67,1.36-1.79Z" fill="#3b4351"/><path d="M265.36,95.25h1.52v10h-1.52Z" fill="#3b4351"/><path d="M269.7,101.68v.44c0,1,.13,2.29,1.26,2.29s1.21-1.22,1.21-1.68h1.43a2.48,2.48,0,0,1-2.65,2.72c-1.23,0-2.76-.37-2.76-3.85,0-2,.43-4.08,2.79-4.08,2.1,0,2.66,1.28,2.66,3.36v.8Zm2.43-1v-.4c0-.95-.31-1.68-1.17-1.68s-1.26,1-1.26,1.93v.15Z" fill="#3b4351"/><path d="M275,97.72h1.43v.88h0a2.13,2.13,0,0,1,1.81-1.08A1.63,1.63,0,0,1,280,98.67a2.07,2.07,0,0,1,1.91-1.15c1.06,0,1.83.55,1.83,2v5.73h-1.51v-5.17c0-1-.3-1.35-.91-1.35s-1.21.47-1.21,1.47v5h-1.51v-5.17c0-1-.29-1.35-.92-1.35s-1.19.49-1.19,1.47v5H275Z" fill="#3b4351"/><path d="M285.4,103.4H287v1.85H285.4Z" fill="#3b4351"/></g></g></g></svg>