<svg id="Text" xmlns="http://www.w3.org/2000/svg" viewBox="0 0 1847.91 113"><title>bc0950text</title><g id="Greeks"><path d="M138.15,31.72h-.05a3.63,3.63,0,0,1-3.82,2.37c-3.83,0-5.2-2.84-5.2-9.09s1.77-9.09,5.81-9.09A4.76,4.76,0,0,1,140,21v.32h-2.65v-.42c0-1.3-.54-2.84-2.45-2.84s-3,1.32-3,6.91.94,7.06,2.82,7.06c2.13,0,2.92-1.52,2.92-5.35h-2.94v-2.1h5.59v9.21h-2.11Z"/><path d="M142.48,20.57h2.65v2.05h.05a3.26,3.26,0,0,1,3.06-2.4,1.59,1.59,0,0,1,.64.1V23a3.51,3.51,0,0,0-1.1-.15c-1.21,0-2.65.54-2.65,3v7.89h-2.65Z"/><path d="M152.33,27.5v.76c0,1.76.22,4,2.21,4s2.1-2.13,2.1-2.94h2.5c0,3-1.76,4.75-4.63,4.75-2.15,0-4.83-.63-4.83-6.74,0-3.45.76-7.13,4.88-7.13,3.68,0,4.66,2.23,4.66,5.88v1.4Zm4.24-1.81V25c0-1.67-.54-2.94-2-2.94-1.67,0-2.21,1.66-2.21,3.38v.27Z"/><path d="M163.67,27.5v.76c0,1.76.23,4,2.21,4S168,30.15,168,29.34h2.5c0,3-1.77,4.75-4.63,4.75-2.16,0-4.83-.63-4.83-6.74,0-3.45.76-7.13,4.87-7.13,3.68,0,4.66,2.23,4.66,5.88v1.4Zm4.24-1.81V25c0-1.67-.53-2.94-2-2.94-1.67,0-2.21,1.66-2.21,3.38v.27Z"/><path d="M172.74,16.25h2.65v9.83h0l4-5.51,3.06,0-4,5.1L183,33.75h-2.89l-3.24-6-1.49,1.81v4.19h-2.65Z"/><path d="M117.26,54.48v.36c0,3.17-1.3,6.25-5.39,6.25-4.41,0-5.78-2.84-5.78-9.09s1.37-9.09,5.81-9.09c5,0,5.26,3.65,5.26,5.49v.32h-2.79v-.3c0-1.64-.49-3.48-2.5-3.4s-3,1.27-3,6.91.91,7.06,3,7.06c2.35,0,2.6-2.58,2.6-4.22v-.29Z"/><path d="M119.17,43.06h2.65V45.7h-2.65Zm0,4.51h2.65V60.75h-2.65Z"/><path d="M123.31,47.57h1.81V43.82h2.65v3.75h2.16v2h-2.16v7.86c0,1.06.29,1.4,1.2,1.4a5.1,5.1,0,0,0,1-.07v2a9.08,9.08,0,0,1-2.14.22c-1.76,0-2.67-.52-2.67-3.19V49.53h-1.81Z"/><path d="M133.06,47.57l2.28,9.9h0l2.11-9.9h2.77l-3.63,13.67c-1,3.6-1.86,4.09-4.61,4a5.41,5.41,0,0,1-1.05-.1V63.05a3.11,3.11,0,0,0,.86.1c.9,0,1.49-.17,1.79-1L134,61l-3.75-13.47Z"/><path d="M149.94,55.33v.45c0,2.13,1,3.21,2.87,3.21a2.51,2.51,0,0,0,2.65-2.55c0-1.84-.93-2.65-2.5-3.12l-1.91-.66c-2.55-1-3.66-2.3-3.66-4.8,0-3.19,2.19-5,5.44-5,4.49,0,4.95,2.79,4.95,4.61v.39H155v-.37C155,46,154.3,45,152.54,45a2.23,2.23,0,0,0-2.35,2.52c0,1.5.76,2.26,2.62,3l1.89.68c2.47.89,3.55,2.21,3.55,4.63,0,3.73-2.25,5.27-5.78,5.27-4.34,0-5.32-2.89-5.32-5.34v-.42Z"/><path d="M159.15,47.57H161V43.82h2.64v3.75h2.16v2h-2.16v7.86c0,1.06.3,1.4,1.2,1.4a5,5,0,0,0,1-.07v2a8.93,8.93,0,0,1-2.13.22c-1.77,0-2.67-.52-2.67-3.19V49.53h-1.82Z"/><path d="M175.79,58c0,.49.3.93.69.93a1,1,0,0,0,.44-.08v1.72a2.86,2.86,0,0,1-1.3.32c-1.18,0-2.16-.47-2.23-1.74h0a3.39,3.39,0,0,1-3.28,1.93c-2.13,0-3.43-1.15-3.43-3.7,0-2.94,1.3-3.55,3.06-4.14l2.06-.56c.95-.27,1.54-.54,1.54-1.69s-.41-2-1.81-2c-1.77,0-2,1.25-2,2.52H167c0-2.82,1.15-4.34,4.63-4.34,2.33,0,4.19.91,4.19,3.24Zm-2.5-4.22A21.19,21.19,0,0,1,170.35,55a2.16,2.16,0,0,0-1.08,2.13c0,1.1.54,2,1.64,2,1.6,0,2.38-1.17,2.38-3.13Z"/><path d="M177.31,47.57h1.81V43.82h2.65v3.75h2.15v2h-2.15v7.86c0,1.06.29,1.4,1.2,1.4a4.91,4.91,0,0,0,.95-.07v2a8.93,8.93,0,0,1-2.13.22c-1.76,0-2.67-.52-2.67-3.19V49.53h-1.81Z"/><path d="M187.57,54.5v.76c0,1.76.22,4,2.21,4s2.11-2.13,2.11-2.94h2.5c0,3-1.77,4.75-4.63,4.75-2.16,0-4.83-.63-4.83-6.74,0-3.45.76-7.13,4.87-7.13,3.68,0,4.66,2.23,4.66,5.88v1.4Zm4.24-1.81V52c0-1.67-.54-2.94-2-2.94-1.67,0-2.21,1.66-2.21,3.38v.27Z"/><path d="M202.32,51.41v-.34c0-1-.36-2-1.74-2-1.05,0-1.88.46-1.88,1.71,0,1.06.46,1.45,1.86,1.94l1.69.59c2,.66,2.87,1.71,2.87,3.79,0,2.82-2.09,4-4.73,4-3.33,0-4.34-1.54-4.34-4.09v-.49h2.35v.42c0,1.54.52,2.35,2.06,2.35s2.16-.74,2.16-1.94a1.91,1.91,0,0,0-1.45-1.93L199,54.65c-2-.66-2.82-1.69-2.82-3.8,0-2.48,1.76-3.63,4.51-3.63,3.35,0,4.11,2,4.11,3.61v.58Z"/></g><g id="Amorites"><path d="M1017.34,26.66H1023c2.62,0,4.7,1.18,4.7,4.24q0,3.16-2.57,4v.05c1.91.34,3.14,1.5,3.14,4.46s-2.11,4.78-5.4,4.78h-5.53Zm5,7.38a2.45,2.45,0,0,0,2.58-2.77c0-2.08-1.25-2.5-2.82-2.5h-2V34Zm.57,8c1.66,0,2.57-1,2.57-3.09a2.65,2.65,0,0,0-2.74-3h-2.6v6Z"/><path d="M1039,41.41c0,.49.29.94.69.94a1,1,0,0,0,.44-.08V44a2.86,2.86,0,0,1-1.3.32c-1.18,0-2.16-.47-2.23-1.74h0a3.39,3.39,0,0,1-3.28,1.93c-2.14,0-3.43-1.15-3.43-3.7,0-2.94,1.29-3.55,3.06-4.14l2.06-.56c1-.27,1.54-.54,1.54-1.69s-.41-2-1.81-2c-1.77,0-2,1.25-2,2.52h-2.5c0-2.82,1.15-4.34,4.63-4.34,2.33,0,4.19.91,4.19,3.24Zm-2.5-4.21a20,20,0,0,1-2.94,1.22,2.18,2.18,0,0,0-1.08,2.14c0,1.1.54,2,1.64,2,1.6,0,2.38-1.17,2.38-3.13Z"/><path d="M1041.66,26.66h2.65v5.86h0a3,3,0,0,1,3-1.89c2,0,4.07.91,4.07,6.77,0,4.53-1.25,7.1-4.32,7.1a2.82,2.82,0,0,1-2.89-2h0v1.62h-2.5Zm4.73,15.73c1.87,0,2.23-1.88,2.23-4.87,0-3.56-.56-4.78-2.06-4.78-2,0-2.4,1.81-2.4,5C1044.16,40.56,1044.58,42.39,1046.39,42.39Z"/><path d="M1054.92,31l2.28,9.9h0l2.1-9.9h2.77l-3.62,13.67c-1.06,3.6-1.87,4.09-4.61,4a5.44,5.44,0,0,1-1.06-.1V46.46a3.2,3.2,0,0,0,.86.1c.91,0,1.5-.17,1.79-1l.34-1.08L1052.08,31Z"/><path d="M1063.71,26.66h2.65v17.5h-2.65Z"/><path d="M1068.51,37.57c0-4.12,1.08-6.94,4.91-6.94s4.92,2.82,4.92,6.94-1.27,6.93-4.92,6.93S1068.51,41.68,1068.51,37.57Zm4.91,5c1.93,0,2.27-1.62,2.27-5,0-2.92-.34-5-2.27-5s-2.26,2.06-2.26,5C1071.16,40.92,1071.53,42.54,1073.42,42.54Z"/><path d="M1080.37,31h2.5v1.54h.08a3.77,3.77,0,0,1,3.38-1.89c2,0,3.28.91,3.28,3.58v9.95H1087v-9c0-1.77-.46-2.38-1.83-2.38-1.08,0-2.11.81-2.11,2.57v8.85h-2.65Z"/><path d="M1092.28,26.47h2.65v2.64h-2.65Zm0,4.51h2.65V44.16h-2.65Z"/><path d="M1106.25,41.41c0,.49.29.94.68.94a1,1,0,0,0,.44-.08V44a2.83,2.83,0,0,1-1.3.32c-1.17,0-2.15-.47-2.23-1.74h0a3.42,3.42,0,0,1-3.29,1.93c-2.13,0-3.43-1.15-3.43-3.7,0-2.94,1.3-3.55,3.06-4.14l2.06-.56c1-.27,1.55-.54,1.55-1.69s-.42-2-1.82-2c-1.76,0-2,1.25-2,2.52h-2.5c0-2.82,1.15-4.34,4.64-4.34,2.32,0,4.19.91,4.19,3.24Zm-2.5-4.21a20.94,20.94,0,0,1-2.94,1.22,2.18,2.18,0,0,0-1.08,2.14c0,1.1.54,2,1.64,2,1.59,0,2.38-1.17,2.38-3.13Z"/><path d="M1108.94,31h2.5v1.54h.07a3.77,3.77,0,0,1,3.38-1.89c2,0,3.29.91,3.29,3.58v9.95h-2.65v-9c0-1.77-.47-2.38-1.84-2.38-1.08,0-2.11.81-2.11,2.57v8.85h-2.64Z"/><path d="M1126.41,34.82v-.34c0-1-.37-2-1.74-2-1.06,0-1.89.46-1.89,1.71,0,1.05.47,1.45,1.86,1.94l1.69.59c2,.66,2.87,1.71,2.87,3.79,0,2.82-2.08,4-4.73,4-3.33,0-4.34-1.54-4.34-4.09v-.49h2.36v.42c0,1.54.51,2.35,2.06,2.35s2.15-.74,2.15-1.94a1.91,1.91,0,0,0-1.44-1.93l-2.16-.76c-2-.66-2.82-1.69-2.82-3.8,0-2.48,1.77-3.63,4.51-3.63,3.36,0,4.12,2,4.12,3.6v.59Z"/></g></svg>