<svg xmlns="http://www.w3.org/2000/svg" viewBox="0 0 1847.91 110"><title>bc0900text</title><g id="YEARS"><g id="Right"><path d="M1792,99.68c0,1.07.52,2.4,2,2.4,2.78,0,2.94-3.64,2.94-6.35l-.08,0a3.77,3.77,0,0,1-3.59,1.95c-2.52,0-4.55-1.82-4.55-5.49,0-4.23,1.72-6.76,5.64-6.76,4.66,0,5.54,3.54,5.54,8.82,0,5.51-1,10-5.87,10-3.25,0-5-1.43-5-4.48Zm2.11-12.22c-1.79,0-2.44,1.8-2.44,4,0,2.57.75,4,2.44,4,2.18,0,2.55-1.89,2.55-4.1S1795.87,87.46,1794.13,87.46Z" fill="#3b4351"/><path d="M1806.79,85.38c3.54,0,5.51,2.21,5.51,9.39s-2,9.39-5.51,9.39-5.51-2.21-5.51-9.39S1803.26,85.38,1806.79,85.38Zm0,16.7c2,0,2.55-2,2.55-7.31s-.55-7.31-2.55-7.31-2.55,2-2.55,7.31S1804.79,102.08,1806.79,102.08Z" fill="#3b4351"/><path d="M1819.27,85.38c3.54,0,5.51,2.21,5.51,9.39s-2,9.39-5.51,9.39-5.51-2.21-5.51-9.39S1815.73,85.38,1819.27,85.38Zm0,16.7c2,0,2.55-2,2.55-7.31s-.55-7.31-2.55-7.31-2.55,2-2.55,7.31S1817.27,102.08,1819.27,102.08Z" fill="#3b4351"/></g><g id="left"><path d="M22.27,103.28c0,1.07.52,2.39,2,2.39,2.78,0,2.94-3.64,2.94-6.34l-.08,0a3.79,3.79,0,0,1-3.59,2C21,101.23,19,99.41,19,95.74,19,91.5,20.69,89,24.61,89c4.66,0,5.54,3.54,5.54,8.82,0,5.51-1,10-5.87,10-3.25,0-5-1.43-5-4.47Zm2.11-12.22c-1.79,0-2.44,1.8-2.44,4,0,2.58.75,4,2.44,4,2.18,0,2.55-1.9,2.55-4.11S26.12,91.06,24.38,91.06Z" fill="#3b4351"/><path d="M37,89c3.54,0,5.51,2.21,5.51,9.39s-2,9.38-5.51,9.38-5.51-2.21-5.51-9.38S33.51,89,37,89Zm0,16.69c2,0,2.55-2,2.55-7.3S39,91.06,37,91.06s-2.55,2-2.55,7.31S35,105.67,37,105.67Z" fill="#3b4351"/><path d="M49.52,89C53.06,89,55,91.19,55,98.37s-2,9.38-5.51,9.38S44,105.54,44,98.37,46,89,49.52,89Zm0,16.69c2,0,2.55-2,2.55-7.3s-.55-7.31-2.55-7.31S47,93,47,98.37,47.52,105.67,49.52,105.67Z" fill="#3b4351"/></g></g><g id="Text"><g id="Iranians"><path d="M1267,64.79l7.33-12.94h-6.89V49.5h9.95v2.35L1270,64.64h7.4V67H1267Z" fill="#3b4351"/><path d="M1278.63,60.4c0-4.12,1.08-6.93,4.9-6.93s4.93,2.81,4.93,6.93-1.28,6.94-4.93,6.94S1278.63,64.52,1278.63,60.4Zm4.9,5c1.94,0,2.28-1.61,2.28-5,0-2.92-.34-5-2.28-5s-2.25,2-2.25,5C1281.28,63.76,1281.65,65.37,1283.53,65.37Z" fill="#3b4351"/><path d="M1290.49,53.81h2.65v2.06h0a3.26,3.26,0,0,1,3.07-2.4,1.61,1.61,0,0,1,.64.09v2.7a3.87,3.87,0,0,0-1.11-.15c-1.2,0-2.64.54-2.64,3V67h-2.65Z" fill="#3b4351"/><path d="M1297.69,60.4c0-4.12,1.08-6.93,4.9-6.93s4.93,2.81,4.93,6.93-1.28,6.94-4.93,6.94S1297.69,64.52,1297.69,60.4Zm4.9,5c1.94,0,2.28-1.61,2.28-5,0-2.92-.34-5-2.28-5s-2.25,2-2.25,5C1300.34,63.76,1300.71,65.37,1302.59,65.37Z" fill="#3b4351"/><path d="M1318.2,64.25c0,.49.29.93.69.93a1.22,1.22,0,0,0,.44-.07v1.71a2.86,2.86,0,0,1-1.3.32c-1.18,0-2.16-.47-2.23-1.74h0a3.41,3.41,0,0,1-3.28,1.94c-2.14,0-3.43-1.16-3.43-3.7,0-3,1.29-3.56,3.06-4.15l2.06-.56c.95-.27,1.54-.54,1.54-1.69s-.42-2-1.81-2c-1.77,0-2,1.25-2,2.52h-2.5c0-2.82,1.15-4.33,4.63-4.33,2.33,0,4.19.9,4.19,3.23ZM1315.7,60a20,20,0,0,1-2.94,1.23,2.17,2.17,0,0,0-1.08,2.13c0,1.1.54,2,1.64,2,1.6,0,2.38-1.17,2.38-3.13Z" fill="#3b4351"/><path d="M1326.58,57.66v-.35c0-1.05-.37-2-1.74-2-1,0-1.89.46-1.89,1.71,0,1.06.47,1.45,1.86,1.94l1.7.59c2,.66,2.86,1.71,2.86,3.8,0,2.81-2.08,4-4.73,4-3.33,0-4.33-1.55-4.33-4.1v-.49h2.35v.42c0,1.54.51,2.35,2.06,2.35s2.15-.73,2.15-1.93a1.91,1.91,0,0,0-1.44-1.94l-2.16-.76c-2-.66-2.82-1.69-2.82-3.8,0-2.47,1.77-3.62,4.51-3.62,3.36,0,4.12,2,4.12,3.6v.59Z" fill="#3b4351"/><path d="M1330.15,53.81H1332V50.06h2.64v3.75h2.16v2h-2.16v7.87c0,1,.3,1.39,1.2,1.39a5,5,0,0,0,1-.07v2a8.44,8.44,0,0,1-2.13.22c-1.77,0-2.67-.52-2.67-3.19V55.77h-1.82Z" fill="#3b4351"/><path d="M1340.42,60.74v.76c0,1.77.22,4,2.21,4s2.1-2.13,2.1-2.94h2.5c0,3-1.76,4.76-4.63,4.76-2.16,0-4.83-.64-4.83-6.74,0-3.46.76-7.13,4.88-7.13,3.68,0,4.66,2.23,4.66,5.88v1.39Zm4.24-1.81v-.71c0-1.67-.54-2.94-2-2.94-1.67,0-2.21,1.67-2.21,3.38v.27Z" fill="#3b4351"/><path d="M1349.48,53.81h2.65v2.06h0a3.26,3.26,0,0,1,3.06-2.4,1.61,1.61,0,0,1,.64.09v2.7a3.84,3.84,0,0,0-1.1-.15c-1.2,0-2.65.54-2.65,3V67h-2.65Z" fill="#3b4351"/></g><g id="Phonecians"><path d="M379.61,8.87h5.54C388.51,8.87,390,11,390,14s-1.86,5.17-5.12,5.17h-2.45v7.23h-2.8Zm2.8,8.16h2c1.5,0,2.8-.78,2.8-3,0-1.89-.76-3-3-3h-1.79Z" fill="#3b4351"/><path d="M391.86,8.87h2.8v7h5.14v-7h2.8v17.5h-2.8V18.23h-5.14v8.14h-2.8Z" fill="#3b4351"/><path d="M405.07,17.62c0-6.25,1.76-9.09,5.78-9.09s5.79,2.84,5.79,9.09-1.77,9.09-5.79,9.09S405.07,23.87,405.07,17.62Zm8.77-.07c0-5.88-1.32-6.91-3-6.91s-3,1-3,6.91,1.33,7.06,3,7.06S413.84,23.55,413.84,17.55Z" fill="#3b4351"/><path d="M419.11,8.87h9.46v2.36H421.9v4.85h6.28v2.35H421.9V24h6.86v2.35h-9.65Z" fill="#3b4351"/><path d="M430.89,8.87h3.41l5.07,13h.05v-13h2.65v17.5h-3.41L433.59,13h0V26.37h-2.65Z" fill="#3b4351"/><path d="M445,8.87h9.45v2.36h-6.66v4.85H454v2.35h-6.27V24h6.86v2.35H445Z" fill="#3b4351"/><path d="M467.5,20.1v.36c0,3.17-1.3,6.25-5.39,6.25-4.41,0-5.79-2.84-5.79-9.09s1.38-9.09,5.81-9.09c5,0,5.27,3.65,5.27,5.49v.32h-2.79V14c0-1.64-.49-3.48-2.5-3.4s-3,1.27-3,6.91.9,7.06,3,7.06c2.35,0,2.59-2.58,2.59-4.22V20.1Z" fill="#3b4351"/><path d="M469.33,8.87h2.8v17.5h-2.8Z" fill="#3b4351"/><path d="M478.2,8.87h3.58l4.61,17.5h-2.92l-1.08-4.29h-5.12l-1.13,4.29h-2.91Zm3.73,11-2-8.62h-.05l-2.08,8.62Z" fill="#3b4351"/><path d="M487.61,8.87H491l5.07,13h.05v-13h2.64v17.5h-3.4L490.3,13h0V26.37h-2.65Z" fill="#3b4351"/><path d="M503.83,21v.44c0,2.13.95,3.21,2.87,3.21a2.51,2.51,0,0,0,2.64-2.55c0-1.84-.93-2.65-2.5-3.11l-1.91-.67c-2.55-1-3.65-2.3-3.65-4.8,0-3.19,2.18-5,5.44-5,4.48,0,4.95,2.79,4.95,4.61v.39h-2.79v-.37c0-1.59-.69-2.52-2.45-2.52a2.23,2.23,0,0,0-2.36,2.52c0,1.5.76,2.26,2.63,3l1.88.68c2.48.89,3.56,2.21,3.56,4.64,0,3.72-2.26,5.26-5.79,5.26-4.34,0-5.32-2.89-5.32-5.34V21Z" fill="#3b4351"/></g><g id="Egytians"><path d="M306.43-1.33h2.05l2.63,10h-1.67l-.61-2.45H305.9l-.65,2.45h-1.66ZM308.56,5,307.41,0h0L306.19,5Z" fill="#3b4351"/><path d="M311.71-1.33h1.51V2h0A1.74,1.74,0,0,1,315,.94c1.15,0,2.32.52,2.32,3.87,0,2.59-.71,4.06-2.46,4.06a1.62,1.62,0,0,1-1.66-1.12h0v.92h-1.43Zm2.7,9c1.07,0,1.28-1.08,1.28-2.79,0-2-.33-2.73-1.18-2.73-1.18,0-1.37,1-1.37,2.84C313.14,6.62,313.38,7.67,314.41,7.67Z" fill="#3b4351"/><path d="M319.28,1.14l1.31,5.66h0l1.21-5.66h1.58L321.33,9c-.6,2-1.07,2.33-2.64,2.29a3,3,0,0,1-.6-.05V10a2.05,2.05,0,0,0,.49.06c.52,0,.86-.1,1-.59l.2-.62-2.14-7.7Z" fill="#3b4351"/><path d="M327.49,3.34v-.2c0-.6-.21-1.16-1-1.16-.6,0-1.08.27-1.08,1s.27.83,1.07,1.11l1,.33a2,2,0,0,1,1.63,2.17c0,1.61-1.19,2.3-2.7,2.3-1.9,0-2.48-.88-2.48-2.34V6.25h1.35v.24c0,.88.29,1.34,1.17,1.34s1.24-.42,1.24-1.1a1.09,1.09,0,0,0-.83-1.11l-1.23-.43A2,2,0,0,1,324,3c0-1.42,1-2.08,2.57-2.08,1.92,0,2.36,1.12,2.36,2.06v.34Z" fill="#3b4351"/><path d="M333.45,3.34v-.2c0-.6-.21-1.16-1-1.16-.61,0-1.08.27-1.08,1s.26.83,1.06,1.11l1,.33a2,2,0,0,1,1.64,2.17c0,1.61-1.19,2.3-2.7,2.3-1.91,0-2.48-.88-2.48-2.34V6.25h1.34v.24c0,.88.29,1.34,1.18,1.34s1.23-.42,1.23-1.1a1.09,1.09,0,0,0-.83-1.11l-1.23-.43A2,2,0,0,1,330,3c0-1.42,1-2.08,2.58-2.08,1.92,0,2.35,1.12,2.35,2.06v.34Z" fill="#3b4351"/><path d="M336.24-1.44h1.51V.07h-1.51Zm0,2.58h1.51V8.67h-1.51Z" fill="#3b4351"/><path d="M339.27,1.14h1.43V2h0A2.18,2.18,0,0,1,342.68.94c1.15,0,1.87.52,1.87,2.05V8.67H343V3.51c0-1-.26-1.36-1.05-1.36-.62,0-1.2.46-1.2,1.47V8.67h-1.52Z" fill="#3b4351"/><path d="M346.08-1.44h1.51V.07h-1.51Zm0,2.58h1.51V8.67h-1.51Z" fill="#3b4351"/><path d="M354.06,7.11c0,.28.17.53.39.53a.72.72,0,0,0,.25,0v1a1.68,1.68,0,0,1-.74.18c-.67,0-1.23-.27-1.27-1h0a1.94,1.94,0,0,1-1.88,1.11c-1.22,0-2-.66-2-2.11a2.08,2.08,0,0,1,1.75-2.37l1.18-.32c.55-.16.88-.31.88-1s-.24-1.12-1-1.12c-1,0-1.14.71-1.14,1.44H349c0-1.61.66-2.48,2.64-2.48,1.34,0,2.4.52,2.4,1.85ZM352.63,4.7a13.82,13.82,0,0,1-1.68.7,1.25,1.25,0,0,0-.62,1.22c0,.63.31,1.13.94,1.13.91,0,1.36-.67,1.36-1.79Z" fill="#3b4351"/><path d="M355.75,6.83h1.6V8.67h-1.6Z" fill="#3b4351"/><path d="M243.87,10.17l-2.41-4.92h1.76l1.6,3.32,1.57-3.32h1.72l-2.42,4.92,2.55,5.08h-1.77l-1.73-3.61L243,15.25h-1.73Z" fill="#3b4351"/><path d="M250.87,10.17l-2.41-4.92h1.76l1.6,3.32,1.57-3.32h1.72l-2.42,4.92,2.55,5.08h-1.77l-1.73-3.61L250,15.25h-1.73Z" fill="#3b4351"/><path d="M256,5.25h1.6v10H256Z" fill="#3b4351"/><path d="M259.1,5.25h1.59v10H259.1Z" fill="#3b4351"/><path d="M262.18,7.72h1.43V8.6h0a2.17,2.17,0,0,1,1.93-1.08c1.15,0,1.88.52,1.88,2.05v5.68H266V10.08c0-1-.27-1.35-1.05-1.35-.62,0-1.21.46-1.21,1.47v5.05h-1.51Z" fill="#3b4351"/><path d="M272.76,14.33h0a1.62,1.62,0,0,1-1.66,1.12c-1.75,0-2.46-1.49-2.46-4.06,0-3.35,1.17-3.87,2.32-3.87a1.74,1.74,0,0,1,1.71,1.08h0V5.25h1.51v10h-1.43Zm-1.37-5.6c-.85,0-1.18.7-1.18,2.73,0,1.71.21,2.78,1.28,2.78s1.27-1.05,1.27-2.67C272.76,9.76,272.57,8.73,271.39,8.73Z" fill="#3b4351"/><path d="M237.51,23.25h2.84c3.14,0,3.53,2.05,3.53,5s-.39,5-3.53,5h-2.84Zm1.6,8.8h1.31c1.32,0,1.87-.87,1.87-3.8s-.48-3.79-1.87-3.79h-1.31Z" fill="#3b4351"/><path d="M246.2,25.72l1.31,5.66h0l1.2-5.66h1.58l-2.07,7.81c-.6,2.06-1.06,2.34-2.63,2.3a2.53,2.53,0,0,1-.61-.06v-1.2a2.12,2.12,0,0,0,.49.06c.52,0,.86-.1,1-.59l.19-.62-2.14-7.7Z" fill="#3b4351"/><path d="M251.16,25.72h1.43v.88h0a2.17,2.17,0,0,1,1.93-1.08c1.15,0,1.88.52,1.88,2.05v5.68h-1.51V28.08c0-1-.27-1.35-1.05-1.35-.62,0-1.21.46-1.21,1.47v5.05h-1.51Z" fill="#3b4351"/><path d="M262.84,31.68c0,.28.17.54.39.54a.52.52,0,0,0,.25,0v1a1.68,1.68,0,0,1-.74.18c-.67,0-1.23-.27-1.27-1h0a2,2,0,0,1-1.88,1.11c-1.22,0-2-.66-2-2.12A2.06,2.06,0,0,1,259.35,29l1.18-.33c.54-.15.88-.3.88-1s-.24-1.12-1-1.12c-1,0-1.14.71-1.14,1.44H257.8c0-1.61.65-2.48,2.64-2.48,1.33,0,2.4.52,2.4,1.85Zm-1.43-2.4a13.82,13.82,0,0,1-1.68.7,1.23,1.23,0,0,0-.62,1.21c0,.63.31,1.14.94,1.14.91,0,1.36-.67,1.36-1.79Z" fill="#3b4351"/><path d="M267.63,27.92v-.2c0-.6-.21-1.16-1-1.16-.6,0-1.08.26-1.08,1s.27.82,1.07,1.1l1,.34a2,2,0,0,1,1.64,2.17c0,1.61-1.19,2.3-2.7,2.3-1.91,0-2.48-.88-2.48-2.34v-.28h1.34v.24c0,.88.3,1.34,1.18,1.34s1.23-.42,1.23-1.1A1.09,1.09,0,0,0,267,30.2l-1.24-.43a2,2,0,0,1-1.61-2.18c0-1.41,1-2.07,2.58-2.07,1.92,0,2.35,1.12,2.35,2.06v.34Z" fill="#3b4351"/><path d="M269.67,25.72h1V23.57h1.52v2.15h1.23v1.12h-1.23v4.49c0,.61.17.8.68.8a2.75,2.75,0,0,0,.55,0v1.12a5.11,5.11,0,0,1-1.22.13c-1,0-1.53-.3-1.53-1.82V26.84h-1Z" fill="#3b4351"/><path d="M275.24,25.72l1.3,5.66h0l1.21-5.66h1.58l-2.07,7.81c-.61,2.06-1.07,2.34-2.64,2.3a2.45,2.45,0,0,1-.6-.06v-1.2a2.05,2.05,0,0,0,.49.06c.52,0,.85-.1,1-.59l.2-.62-2.14-7.7Z" fill="#3b4351"/><path d="M230.46,48.16v.25c0,1.22.55,1.83,1.64,1.83a1.42,1.42,0,0,0,1.51-1.45A1.68,1.68,0,0,0,232.19,47l-1.1-.38A2.67,2.67,0,0,1,229,43.88c0-1.82,1.24-2.82,3.11-2.82,2.56,0,2.82,1.59,2.82,2.63v.22h-1.59V43.7c0-.91-.39-1.44-1.4-1.44a1.28,1.28,0,0,0-1.35,1.44c0,.86.44,1.29,1.5,1.7l1.08.39a2.55,2.55,0,0,1,2,2.65c0,2.13-1.29,3-3.3,3a2.74,2.74,0,0,1-3-3.05v-.24Z" fill="#3b4351"/><path d="M236.4,41.25h1.51v3.28l0,0a2.16,2.16,0,0,1,1.85-1c1.15,0,1.88.52,1.88,2v5.68h-1.51V46.08c0-1-.28-1.35-1-1.35s-1.21.47-1.21,1.47v5H236.4Z" fill="#3b4351"/><path d="M244.43,47.68v.44c0,1,.13,2.29,1.27,2.29s1.2-1.22,1.2-1.68h1.43a2.48,2.48,0,0,1-2.65,2.72c-1.23,0-2.76-.37-2.76-3.85,0-2,.44-4.08,2.79-4.08,2.1,0,2.66,1.28,2.66,3.36v.8Zm2.43-1v-.4c0-1-.31-1.68-1.16-1.68s-1.27.95-1.27,1.93v.15Z" fill="#3b4351"/><path d="M252.86,45.92v-.2c0-.6-.21-1.16-1-1.16-.6,0-1.08.26-1.08,1s.27.82,1.06,1.1l1,.34a2,2,0,0,1,1.64,2.17c0,1.61-1.19,2.3-2.7,2.3-1.91,0-2.48-.88-2.48-2.34v-.28h1.34v.24c0,.88.3,1.34,1.18,1.34S253,50,253,49.31a1.09,1.09,0,0,0-.83-1.11L251,47.77a2,2,0,0,1-1.61-2.18c0-1.41,1-2.07,2.58-2.07,1.92,0,2.35,1.12,2.35,2.06v.34Z" fill="#3b4351"/><path d="M255.58,41.25h1.51v3.28l0,0a2.16,2.16,0,0,1,1.85-1c1.15,0,1.88.52,1.88,2v5.68h-1.51V46.08c0-1-.28-1.35-1.06-1.35-.61,0-1.2.47-1.2,1.47v5h-1.51Z" fill="#3b4351"/><path d="M262,47.49c0-2.36.61-4,2.8-4s2.81,1.61,2.81,4-.72,4-2.81,4S262,49.84,262,47.49Zm2.8,2.84c1.11,0,1.3-.93,1.3-2.84,0-1.67-.19-2.85-1.3-2.85s-1.29,1.18-1.29,2.85C263.53,49.4,263.74,50.33,264.82,50.33Z" fill="#3b4351"/><path d="M268.79,43.72h1.43v.88h0a2.18,2.18,0,0,1,1.94-1.08c1.15,0,1.87.52,1.87,2v5.68h-1.51V46.08c0-1-.26-1.35-1.05-1.35-.62,0-1.2.46-1.2,1.47v5h-1.52Z" fill="#3b4351"/><path d="M275.53,41.25H277v5.62h0l2.28-3.15,1.75,0-2.27,2.92,2.57,4.63h-1.66l-1.85-3.43-.85,1v2.39h-1.51Z" fill="#3b4351"/><path d="M285.4,41.25H287v10H285.4Z" fill="#3b4351"/><path d="M236.69,59.25a11.83,11.83,0,0,0-1.59,6.29,12.22,12.22,0,0,0,1.59,6.29h-1.08a10.7,10.7,0,0,1,0-12.58Z" fill="#3b4351"/><path d="M238.75,66.16v.25c0,1.22.55,1.83,1.64,1.83a1.43,1.43,0,0,0,1.51-1.45A1.68,1.68,0,0,0,240.47,65l-1.09-.38a2.67,2.67,0,0,1-2.09-2.75c0-1.82,1.25-2.82,3.11-2.82,2.57,0,2.83,1.59,2.83,2.63v.22h-1.59V61.7c0-.91-.4-1.44-1.4-1.44a1.28,1.28,0,0,0-1.35,1.44c0,.86.43,1.29,1.5,1.7l1.08.39a2.55,2.55,0,0,1,2,2.65c0,2.13-1.29,3-3.31,3a2.74,2.74,0,0,1-3-3v-.24Z" fill="#3b4351"/><path d="M244.69,59.25h1.51v3.28l0,0a2.15,2.15,0,0,1,1.85-1c1.15,0,1.88.52,1.88,2v5.68h-1.52V64.08c0-1-.28-1.35-1-1.35-.61,0-1.2.47-1.2,1.47v5h-1.51Z" fill="#3b4351"/><path d="M251.49,59.14H253v1.51h-1.51Zm0,2.58H253v7.53h-1.51Z" fill="#3b4351"/><path d="M257.78,63.92v-.2c0-.6-.21-1.16-1-1.16-.6,0-1.08.26-1.08,1s.27.82,1.07,1.1l1,.34a2,2,0,0,1,1.63,2.17c0,1.61-1.19,2.3-2.7,2.3-1.9,0-2.48-.88-2.48-2.34v-.28h1.35v.24c0,.88.29,1.34,1.17,1.34S258,68,258,67.31a1.09,1.09,0,0,0-.83-1.11l-1.23-.43a2,2,0,0,1-1.61-2.18c0-1.41,1-2.07,2.57-2.07,1.92,0,2.36,1.12,2.36,2.06v.34Z" fill="#3b4351"/><path d="M260.49,59.25H262v3.28l.05,0a2.14,2.14,0,0,1,1.85-1c1.14,0,1.87.52,1.87,2v5.68h-1.51V64.08c0-1-.28-1.35-1.05-1.35-.62,0-1.21.47-1.21,1.47v5h-1.51Z" fill="#3b4351"/><path d="M272.17,67.68c0,.28.17.54.39.54a.52.52,0,0,0,.25,0v1a1.68,1.68,0,0,1-.74.18c-.67,0-1.23-.27-1.27-1h0a2,2,0,0,1-1.88,1.11c-1.22,0-2-.66-2-2.12A2.06,2.06,0,0,1,268.68,65l1.18-.33c.55-.15.88-.3.88-1s-.24-1.12-1-1.12c-1,0-1.14.71-1.14,1.44h-1.43c0-1.61.66-2.48,2.64-2.48,1.34,0,2.4.52,2.4,1.85Zm-1.43-2.4a13.82,13.82,0,0,1-1.68.7,1.23,1.23,0,0,0-.62,1.21c0,.63.31,1.14.94,1.14.91,0,1.36-.67,1.36-1.79Z" fill="#3b4351"/><path d="M273.71,59.25h1.51v5.62h0l2.28-3.15,1.75,0L277,64.62l2.57,4.63h-1.66l-1.85-3.43-.85,1v2.39h-1.51Z" fill="#3b4351"/><path d="M279.46,71.83a11.81,11.81,0,0,0,1.6-6.29,12.23,12.23,0,0,0-1.6-6.29h1.08a10.7,10.7,0,0,1,0,12.58Z" fill="#3b4351"/><path d="M235.32,77.25h3.17c1.91,0,2.75,1.21,2.75,2.92a2.71,2.71,0,0,1-2.92,3h-1.4v4.13h-1.6Zm1.6,4.67h1.13a1.51,1.51,0,0,0,1.6-1.73c0-1.07-.44-1.73-1.71-1.73h-1Z" fill="#3b4351"/><path d="M242.29,77.25h1.51v10h-1.51Z" fill="#3b4351"/><path d="M249.18,86.37h0a2.17,2.17,0,0,1-1.93,1.08c-1.12,0-1.88-.52-1.88-2.47V79.72h1.51v5.4c0,.84.37,1.12,1,1.12A1.18,1.18,0,0,0,249.1,85V79.72h1.51v7.53h-1.43Z" fill="#3b4351"/><path d="M252.06,79.72h1.43v.88h0a2.18,2.18,0,0,1,1.94-1.08c1.15,0,1.87.52,1.87,2v5.68h-1.51V82.08c0-1-.26-1.35-1.05-1.35-.62,0-1.2.46-1.2,1.47v5h-1.52Z" fill="#3b4351"/><path d="M262.65,86.33h0A1.61,1.61,0,0,1,261,87.45c-1.75,0-2.47-1.49-2.47-4.06,0-3.35,1.18-3.87,2.33-3.87a1.75,1.75,0,0,1,1.71,1.08h0V77.25h1.51v10h-1.43Zm-1.37-5.6c-.86,0-1.18.7-1.18,2.73,0,1.71.21,2.78,1.27,2.78s1.28-1,1.28-2.67C262.65,81.76,262.45,80.73,261.28,80.73Z" fill="#3b4351"/><path d="M266.83,83.68v.44c0,1,.13,2.29,1.26,2.29s1.21-1.22,1.21-1.68h1.43a2.48,2.48,0,0,1-2.65,2.72c-1.23,0-2.76-.37-2.76-3.85,0-2,.44-4.08,2.79-4.08,2.1,0,2.66,1.28,2.66,3.36v.8Zm2.43-1v-.4c0-.95-.31-1.68-1.17-1.68s-1.26,1-1.26,1.93v.15Z" fill="#3b4351"/><path d="M272,79.72h1.52v1.17h0a1.87,1.87,0,0,1,1.75-1.37.92.92,0,0,1,.37.06v1.54A2.17,2.17,0,0,0,275,81c-.69,0-1.51.31-1.51,1.71v4.51H272Z" fill="#3b4351"/><path d="M279.67,81.92v-.2c0-.6-.21-1.16-1-1.16-.6,0-1.08.26-1.08,1s.27.82,1.06,1.1l1,.34a2,2,0,0,1,1.64,2.17c0,1.61-1.19,2.3-2.7,2.3-1.91,0-2.48-.88-2.48-2.34v-.28h1.34v.24c0,.88.3,1.34,1.18,1.34s1.23-.42,1.23-1.1A1.09,1.09,0,0,0,279,84.2l-1.23-.43a2,2,0,0,1-1.61-2.18c0-1.41,1-2.07,2.58-2.07,1.92,0,2.35,1.12,2.35,2.06v.34Z" fill="#3b4351"/><path d="M230,102.24v.49c0,.81.17,1.51,1.07,1.51,1.06,0,1.06-1,1.06-2v-7h1.6v7.24c0,2.22-1.09,3-2.69,3-2.06,0-2.51-1.26-2.55-2.56v-.65Z" fill="#3b4351"/><path d="M236.52,101.68v.44c0,1,.13,2.29,1.27,2.29s1.2-1.22,1.2-1.68h1.43a2.48,2.48,0,0,1-2.65,2.72c-1.23,0-2.76-.37-2.76-3.85,0-2,.44-4.08,2.79-4.08,2.1,0,2.66,1.28,2.66,3.36v.8Zm2.43-1v-.4c0-.95-.31-1.68-1.16-1.68s-1.27,1-1.27,1.93v.15Z" fill="#3b4351"/><path d="M241.7,97.72h1.52v1.17h0A1.87,1.87,0,0,1,245,97.52a.87.87,0,0,1,.36.06v1.54a2.11,2.11,0,0,0-.63-.09c-.69,0-1.51.31-1.51,1.71v4.51H241.7Z" fill="#3b4351"/><path d="M250,104.37h-.05a2.17,2.17,0,0,1-1.93,1.08c-1.12,0-1.88-.52-1.88-2.47V97.72h1.52v5.4c0,.84.36,1.12,1,1.12a1.17,1.17,0,0,0,1.23-1.26V97.72h1.51v7.53H250Z" fill="#3b4351"/><path d="M256.1,99.92v-.2c0-.6-.21-1.16-1-1.16-.6,0-1.08.26-1.08,1s.27.82,1.07,1.1l1,.34a2,2,0,0,1,1.64,2.17c0,1.61-1.19,2.3-2.7,2.3-1.91,0-2.48-.88-2.48-2.34v-.28h1.35v.24c0,.88.29,1.34,1.17,1.34s1.24-.42,1.24-1.1a1.1,1.1,0,0,0-.83-1.11l-1.23-.43a2,2,0,0,1-1.62-2.18c0-1.41,1-2.07,2.58-2.07,1.92,0,2.36,1.12,2.36,2.06v.34Z" fill="#3b4351"/><path d="M263.76,103.68c0,.28.16.54.39.54a.55.55,0,0,0,.25,0v1a1.71,1.71,0,0,1-.74.18c-.67,0-1.24-.27-1.28-1h0a1.94,1.94,0,0,1-1.87,1.11c-1.22,0-2-.66-2-2.12a2.06,2.06,0,0,1,1.75-2.36l1.17-.33c.55-.15.89-.3.89-1s-.24-1.12-1-1.12c-1,0-1.15.71-1.15,1.44h-1.43c0-1.61.66-2.48,2.65-2.48,1.33,0,2.4.52,2.4,1.85Zm-1.43-2.4a13.82,13.82,0,0,1-1.68.7,1.22,1.22,0,0,0-.62,1.21c0,.63.31,1.14.94,1.14.91,0,1.36-.67,1.36-1.79Z" fill="#3b4351"/><path d="M265.36,95.25h1.52v10h-1.52Z" fill="#3b4351"/><path d="M269.7,101.68v.44c0,1,.13,2.29,1.26,2.29s1.21-1.22,1.21-1.68h1.43a2.48,2.48,0,0,1-2.65,2.72c-1.23,0-2.76-.37-2.76-3.85,0-2,.43-4.08,2.79-4.08,2.1,0,2.66,1.28,2.66,3.36v.8Zm2.43-1v-.4c0-.95-.31-1.68-1.17-1.68s-1.26,1-1.26,1.93v.15Z" fill="#3b4351"/><path d="M275,97.72h1.43v.88h0a2.13,2.13,0,0,1,1.81-1.08A1.63,1.63,0,0,1,280,98.67a2.07,2.07,0,0,1,1.91-1.15c1.06,0,1.83.55,1.83,2v5.73h-1.51v-5.17c0-1-.3-1.35-.91-1.35s-1.21.47-1.21,1.47v5h-1.51v-5.17c0-1-.29-1.35-.92-1.35s-1.19.49-1.19,1.47v5H275Z" fill="#3b4351"/><path d="M285.4,103.4H287v1.85H285.4Z" fill="#3b4351"/></g></g></svg>