<svg xmlns="http://www.w3.org/2000/svg" viewBox="0 0 1847.91 110"><title>bc0900text</title><g id="YEARS"><g id="Right"><path d="M1792,99.68c0,1.07.52,2.4,2,2.4,2.78,0,2.94-3.64,2.94-6.35l-.08,0a3.77,3.77,0,0,1-3.59,1.95c-2.52,0-4.55-1.82-4.55-5.49,0-4.23,1.72-6.76,5.64-6.76,4.66,0,5.54,3.54,5.54,8.82,0,5.51-1,10-5.87,10-3.25,0-5-1.43-5-4.48Zm2.11-12.22c-1.79,0-2.44,1.8-2.44,4,0,2.57.75,4,2.44,4,2.18,0,2.55-1.89,2.55-4.1S1795.87,87.46,1794.13,87.46Z"/><path d="M1806.79,85.38c3.54,0,5.51,2.21,5.51,9.39s-2,9.39-5.51,9.39-5.51-2.21-5.51-9.39S1803.26,85.38,1806.79,85.38Zm0,16.7c2,0,2.55-2,2.55-7.31s-.55-7.31-2.55-7.31-2.55,2-2.55,7.31S1804.79,102.08,1806.79,102.08Z"/><path d="M1819.27,85.38c3.54,0,5.51,2.21,5.51,9.39s-2,9.39-5.51,9.39-5.51-2.21-5.51-9.39S1815.73,85.38,1819.27,85.38Zm0,16.7c2,0,2.55-2,2.55-7.31s-.55-7.31-2.55-7.31-2.55,2-2.55,7.31S1817.27,102.08,1819.27,102.08Z"/></g><g id="left"><path d="M22.27,103.28c0,1.07.52,2.39,2,2.39,2.78,0,2.94-3.64,2.94-6.34l-.08,0a3.79,3.79,0,0,1-3.59,2C21,101.23,19,99.41,19,95.74,19,91.5,20.69,89,24.61,89c4.66,0,5.54,3.54,5.54,8.82,0,5.51-1,10-5.87,10-3.25,0-5-1.43-5-4.47Zm2.11-12.22c-1.79,0-2.44,1.8-2.44,4,0,2.58.75,4,2.44,4,2.18,0,2.55-1.9,2.55-4.11S26.12,91.06,24.38,91.06Z"/><path d="M37,89c3.54,0,5.51,2.21,5.51,9.39s-2,9.38-5.51,9.38-5.51-2.21-5.51-9.38S33.51,89,37,89Zm0,16.69c2,0,2.55-2,2.55-7.3S39,91.06,37,91.06s-2.55,2-2.55,7.31S35,105.67,37,105.67Z"/><path d="M49.52,89C53.06,89,55,91.19,55,98.37s-2,9.38-5.51,9.38S44,105.54,44,98.37,46,89,49.52,89Zm0,16.69c2,0,2.55-2,2.55-7.3s-.55-7.31-2.55-7.31S47,93,47,98.37,47.52,105.67,49.52,105.67Z"/></g></g><g id="Text"><g id="Iranians"><path d="M1267,64.79l7.33-12.94h-6.89V49.5h9.95v2.35L1270,64.64h7.4V67H1267Z" fill="#3b4351"/><path d="M1278.63,60.4c0-4.12,1.08-6.93,4.9-6.93s4.93,2.81,4.93,6.93-1.28,6.94-4.93,6.94S1278.63,64.52,1278.63,60.4Zm4.9,5c1.94,0,2.28-1.61,2.28-5,0-2.92-.34-5-2.28-5s-2.25,2-2.25,5C1281.28,63.76,1281.65,65.37,1283.53,65.37Z" fill="#3b4351"/><path d="M1290.49,53.81h2.65v2.06h0a3.26,3.26,0,0,1,3.07-2.4,1.61,1.61,0,0,1,.64.09v2.7a3.87,3.87,0,0,0-1.11-.15c-1.2,0-2.64.54-2.64,3V67h-2.65Z" fill="#3b4351"/><path d="M1297.69,60.4c0-4.12,1.08-6.93,4.9-6.93s4.93,2.81,4.93,6.93-1.28,6.94-4.93,6.94S1297.69,64.52,1297.69,60.4Zm4.9,5c1.94,0,2.28-1.61,2.28-5,0-2.92-.34-5-2.28-5s-2.25,2-2.25,5C1300.34,63.76,1300.71,65.37,1302.59,65.37Z" fill="#3b4351"/><path d="M1318.2,64.25c0,.49.29.93.69.93a1.22,1.22,0,0,0,.44-.07v1.71a2.86,2.86,0,0,1-1.3.32c-1.18,0-2.16-.47-2.23-1.74h0a3.41,3.41,0,0,1-3.28,1.94c-2.14,0-3.43-1.16-3.43-3.7,0-3,1.29-3.56,3.06-4.15l2.06-.56c.95-.27,1.54-.54,1.54-1.69s-.42-2-1.81-2c-1.77,0-2,1.25-2,2.52h-2.5c0-2.82,1.15-4.33,4.63-4.33,2.33,0,4.19.9,4.19,3.23ZM1315.7,60a20,20,0,0,1-2.94,1.23,2.17,2.17,0,0,0-1.08,2.13c0,1.1.54,2,1.64,2,1.6,0,2.38-1.17,2.38-3.13Z" fill="#3b4351"/><path d="M1326.58,57.66v-.35c0-1.05-.37-2-1.74-2-1,0-1.89.46-1.89,1.71,0,1.06.47,1.45,1.86,1.94l1.7.59c2,.66,2.86,1.71,2.86,3.8,0,2.81-2.08,4-4.73,4-3.33,0-4.33-1.55-4.33-4.1v-.49h2.35v.42c0,1.54.51,2.35,2.06,2.35s2.15-.73,2.15-1.93a1.91,1.91,0,0,0-1.44-1.94l-2.16-.76c-2-.66-2.82-1.69-2.82-3.8,0-2.47,1.77-3.62,4.51-3.62,3.36,0,4.12,2,4.12,3.6v.59Z" fill="#3b4351"/><path d="M1330.15,53.81H1332V50.06h2.64v3.75h2.16v2h-2.16v7.87c0,1,.3,1.39,1.2,1.39a5,5,0,0,0,1-.07v2a8.44,8.44,0,0,1-2.13.22c-1.77,0-2.67-.52-2.67-3.19V55.77h-1.82Z" fill="#3b4351"/><path d="M1340.42,60.74v.76c0,1.77.22,4,2.21,4s2.1-2.13,2.1-2.94h2.5c0,3-1.76,4.76-4.63,4.76-2.16,0-4.83-.64-4.83-6.74,0-3.46.76-7.13,4.88-7.13,3.68,0,4.66,2.23,4.66,5.88v1.39Zm4.24-1.81v-.71c0-1.67-.54-2.94-2-2.94-1.67,0-2.21,1.67-2.21,3.38v.27Z" fill="#3b4351"/><path d="M1349.48,53.81h2.65v2.06h0a3.26,3.26,0,0,1,3.06-2.4,1.61,1.61,0,0,1,.64.09v2.7a3.84,3.84,0,0,0-1.1-.15c-1.2,0-2.65.54-2.65,3V67h-2.65Z" fill="#3b4351"/></g><g id="Phonecians"><path d="M379.61,8.87h5.54C388.51,8.87,390,11,390,14s-1.86,5.17-5.12,5.17h-2.45v7.23h-2.8Zm2.8,8.16h2c1.5,0,2.8-.78,2.8-3,0-1.89-.76-3-3-3h-1.79Z" fill="#3b4351"/><path d="M391.86,8.87h2.8v7h5.14v-7h2.8v17.5h-2.8V18.23h-5.14v8.14h-2.8Z" fill="#3b4351"/><path d="M405.07,17.62c0-6.25,1.76-9.09,5.78-9.09s5.79,2.84,5.79,9.09-1.77,9.09-5.79,9.09S405.07,23.87,405.07,17.62Zm8.77-.07c0-5.88-1.32-6.91-3-6.91s-3,1-3,6.91,1.33,7.06,3,7.06S413.84,23.55,413.84,17.55Z" fill="#3b4351"/><path d="M419.11,8.87h9.46v2.36H421.9v4.85h6.28v2.35H421.9V24h6.86v2.35h-9.65Z" fill="#3b4351"/><path d="M430.89,8.87h3.41l5.07,13h.05v-13h2.65v17.5h-3.41L433.59,13h0V26.37h-2.65Z" fill="#3b4351"/><path d="M445,8.87h9.45v2.36h-6.66v4.85H454v2.35h-6.27V24h6.86v2.35H445Z" fill="#3b4351"/><path d="M467.5,20.1v.36c0,3.17-1.3,6.25-5.39,6.25-4.41,0-5.79-2.84-5.79-9.09s1.38-9.09,5.81-9.09c5,0,5.27,3.65,5.27,5.49v.32h-2.79V14c0-1.64-.49-3.48-2.5-3.4s-3,1.27-3,6.91.9,7.06,3,7.06c2.35,0,2.59-2.58,2.59-4.22V20.1Z" fill="#3b4351"/><path d="M469.33,8.87h2.8v17.5h-2.8Z" fill="#3b4351"/><path d="M478.2,8.87h3.58l4.61,17.5h-2.92l-1.08-4.29h-5.12l-1.13,4.29h-2.91Zm3.73,11-2-8.62h-.05l-2.08,8.62Z" fill="#3b4351"/><path d="M487.61,8.87H491l5.07,13h.05v-13h2.64v17.5h-3.4L490.3,13h0V26.37h-2.65Z" fill="#3b4351"/><path d="M503.83,21v.44c0,2.13.95,3.21,2.87,3.21a2.51,2.51,0,0,0,2.64-2.55c0-1.84-.93-2.65-2.5-3.11l-1.91-.67c-2.55-1-3.65-2.3-3.65-4.8,0-3.19,2.18-5,5.44-5,4.48,0,4.95,2.79,4.95,4.61v.39h-2.79v-.37c0-1.59-.69-2.52-2.45-2.52a2.23,2.23,0,0,0-2.36,2.52c0,1.5.76,2.26,2.63,3l1.88.68c2.48.89,3.56,2.21,3.56,4.64,0,3.72-2.26,5.26-5.79,5.26-4.34,0-5.32-2.89-5.32-5.34V21Z" fill="#3b4351"/></g></g></svg>