<svg xmlns="http://www.w3.org/2000/svg" viewBox="0 0 1847.91 110"><title>bc0900text</title><g id="Text"><g id="Iranians"><path d="M1267,64.79l7.33-12.94h-6.89V49.5h9.95v2.35L1270,64.64h7.4V67H1267Z"/><path d="M1278.63,60.4c0-4.12,1.08-6.93,4.9-6.93s4.93,2.81,4.93,6.93-1.28,6.94-4.93,6.94S1278.63,64.52,1278.63,60.4Zm4.9,5c1.94,0,2.28-1.61,2.28-5,0-2.92-.34-5-2.28-5s-2.25,2-2.25,5C1281.28,63.76,1281.65,65.37,1283.53,65.37Z"/><path d="M1290.49,53.81h2.65v2.06h0a3.26,3.26,0,0,1,3.07-2.4,1.61,1.61,0,0,1,.64.09v2.7a3.87,3.87,0,0,0-1.11-.15c-1.2,0-2.64.54-2.64,3V67h-2.65Z"/><path d="M1297.69,60.4c0-4.12,1.08-6.93,4.9-6.93s4.93,2.81,4.93,6.93-1.28,6.94-4.93,6.94S1297.69,64.52,1297.69,60.4Zm4.9,5c1.94,0,2.28-1.61,2.28-5,0-2.92-.34-5-2.28-5s-2.25,2-2.25,5C1300.34,63.76,1300.71,65.37,1302.59,65.37Z"/><path d="M1318.2,64.25c0,.49.29.93.69.93a1.22,1.22,0,0,0,.44-.07v1.71a2.86,2.86,0,0,1-1.3.32c-1.18,0-2.16-.47-2.23-1.74h0a3.41,3.41,0,0,1-3.28,1.94c-2.14,0-3.43-1.16-3.43-3.7,0-3,1.29-3.56,3.06-4.15l2.06-.56c.95-.27,1.54-.54,1.54-1.69s-.42-2-1.81-2c-1.77,0-2,1.25-2,2.52h-2.5c0-2.82,1.15-4.33,4.63-4.33,2.33,0,4.19.9,4.19,3.23ZM1315.7,60a20,20,0,0,1-2.94,1.23,2.17,2.17,0,0,0-1.08,2.13c0,1.1.54,2,1.64,2,1.6,0,2.38-1.17,2.38-3.13Z"/><path d="M1326.58,57.66v-.35c0-1.05-.37-2-1.74-2-1,0-1.89.46-1.89,1.71,0,1.06.47,1.45,1.86,1.94l1.7.59c2,.66,2.86,1.71,2.86,3.8,0,2.81-2.08,4-4.73,4-3.33,0-4.33-1.55-4.33-4.1v-.49h2.35v.42c0,1.54.51,2.35,2.06,2.35s2.15-.73,2.15-1.93a1.91,1.91,0,0,0-1.44-1.94l-2.16-.76c-2-.66-2.82-1.69-2.82-3.8,0-2.47,1.77-3.62,4.51-3.62,3.36,0,4.12,2,4.12,3.6v.59Z"/><path d="M1330.15,53.81H1332V50.06h2.64v3.75h2.16v2h-2.16v7.87c0,1,.3,1.39,1.2,1.39a5,5,0,0,0,1-.07v2a8.44,8.44,0,0,1-2.13.22c-1.77,0-2.67-.52-2.67-3.19V55.77h-1.82Z"/><path d="M1340.42,60.74v.76c0,1.77.22,4,2.21,4s2.1-2.13,2.1-2.94h2.5c0,3-1.76,4.76-4.63,4.76-2.16,0-4.83-.64-4.83-6.74,0-3.46.76-7.13,4.88-7.13,3.68,0,4.66,2.23,4.66,5.88v1.39Zm4.24-1.81v-.71c0-1.67-.54-2.94-2-2.94-1.67,0-2.21,1.67-2.21,3.38v.27Z"/><path d="M1349.48,53.81h2.65v2.06h0a3.26,3.26,0,0,1,3.06-2.4,1.61,1.61,0,0,1,.64.09v2.7a3.84,3.84,0,0,0-1.1-.15c-1.2,0-2.65.54-2.65,3V67h-2.65Z"/></g></g><g id="YEARS"><g id="Right"><path d="M1780.51,99.68c0,1.07.52,2.4,2,2.4,2.78,0,2.94-3.64,2.94-6.35l-.08,0a3.77,3.77,0,0,1-3.59,1.95c-2.52,0-4.55-1.82-4.55-5.49,0-4.23,1.72-6.76,5.65-6.76,4.65,0,5.53,3.54,5.53,8.82,0,5.51-1,10-5.87,10-3.25,0-5-1.43-5-4.48Zm2.1-12.22c-1.79,0-2.44,1.8-2.44,4,0,2.57.75,4,2.44,4,2.19,0,2.55-1.89,2.55-4.1S1784.35,87.46,1782.61,87.46Z"/><path d="M1795.27,85.38c3.54,0,5.52,2.21,5.52,9.39s-2,9.39-5.52,9.39-5.51-2.21-5.51-9.39S1791.74,85.38,1795.27,85.38Zm0,16.7c2,0,2.55-2,2.55-7.31s-.54-7.31-2.55-7.31-2.54,2-2.54,7.31S1793.27,102.08,1795.27,102.08Z"/><path d="M1807.75,85.38c3.54,0,5.52,2.21,5.52,9.39s-2,9.39-5.52,9.39-5.51-2.21-5.51-9.39S1804.22,85.38,1807.75,85.38Zm0,16.7c2,0,2.55-2,2.55-7.31s-.54-7.31-2.55-7.31-2.54,2-2.54,7.31S1805.75,102.08,1807.75,102.08Z"/></g><g id="Layer_34" data-name="Layer 34"><path d="M20.76,103.28c0,1.07.52,2.39,2,2.39,2.79,0,2.94-3.64,2.94-6.34l-.08,0a3.77,3.77,0,0,1-3.58,2c-2.53,0-4.55-1.82-4.55-5.49,0-4.24,1.71-6.76,5.64-6.76,4.65,0,5.54,3.54,5.54,8.82,0,5.51-1,10-5.88,10-3.25,0-5-1.43-5-4.47Zm2.1-12.22c-1.79,0-2.44,1.79-2.44,4,0,2.58.75,4,2.44,4,2.19,0,2.55-1.9,2.55-4.11S24.61,91.06,22.86,91.06Z"/><path d="M35.52,89C39.06,89,41,91.19,41,98.37s-2,9.38-5.52,9.38S30,105.54,30,98.37,32,89,35.52,89Zm0,16.69c2,0,2.55-2,2.55-7.3s-.54-7.31-2.55-7.31S33,93,33,98.37,33.52,105.67,35.52,105.67Z"/><path d="M48,89c3.54,0,5.52,2.21,5.52,9.39s-2,9.38-5.52,9.38-5.51-2.21-5.51-9.38S44.47,89,48,89Zm0,16.69c2,0,2.55-2,2.55-7.3S50,91.06,48,91.06s-2.54,2-2.54,7.31S46,105.67,48,105.67Z"/></g></g></svg>