<svg xmlns="http://www.w3.org/2000/svg" viewBox="0 0 1847.91 113"><title>bc0950text</title><g id="YEARS"><g id="Right"><path d="M1792,101c0,1.06.52,2.39,2,2.39,2.78,0,2.94-3.64,2.94-6.34l-.08-.06a3.77,3.77,0,0,1-3.59,1.95c-2.52,0-4.55-1.82-4.55-5.48,0-4.24,1.72-6.76,5.64-6.76,4.66,0,5.54,3.53,5.54,8.81,0,5.51-1,10-5.87,10-3.25,0-5-1.43-5-4.47Zm2.11-12.22c-1.79,0-2.44,1.79-2.44,4,0,2.57.75,4,2.44,4,2.18,0,2.55-1.9,2.55-4.11S1795.87,88.8,1794.13,88.8Z" fill="#3b4351"/><path d="M1801.38,100.16h2.81v.49a2.35,2.35,0,0,0,2.42,2.6c2.08,0,2.63-2,2.63-4.18s-.58-3.93-2.47-3.93a2.35,2.35,0,0,0-2.42,1.69l-2.63-.1.91-9.65h8.87v2.37h-6.66l-.6,4.83.06,0a4.07,4.07,0,0,1,3.09-1.42c3.85,0,4.81,3.25,4.81,6.08,0,3.69-1.69,6.5-5.67,6.5-3.3,0-5.15-1.69-5.15-4.94Z" fill="#3b4351"/><path d="M1819.27,86.72c3.54,0,5.51,2.21,5.51,9.38s-2,9.39-5.51,9.39-5.51-2.21-5.51-9.39S1815.73,86.72,1819.27,86.72Zm0,16.69c2,0,2.55-2,2.55-7.31s-.55-7.3-2.55-7.3-2.55,2-2.55,7.3S1817.27,103.41,1819.27,103.41Z" fill="#3b4351"/></g><g id="left"><path d="M22.27,104.62c0,1.06.52,2.39,2,2.39,2.78,0,2.94-3.64,2.94-6.35l-.08,0a3.77,3.77,0,0,1-3.59,2c-2.52,0-4.55-1.82-4.55-5.48,0-4.24,1.72-6.77,5.64-6.77,4.66,0,5.54,3.54,5.54,8.82,0,5.51-1,10-5.87,10-3.25,0-5-1.43-5-4.47Zm2.11-12.23c-1.79,0-2.44,1.8-2.44,4,0,2.57.75,4,2.44,4,2.18,0,2.55-1.9,2.55-4.11S26.12,92.39,24.38,92.39Z" fill="#3b4351"/><path d="M31.63,103.76h2.81v.49a2.35,2.35,0,0,0,2.42,2.6c2.08,0,2.63-2,2.63-4.18s-.58-3.93-2.47-3.93a2.35,2.35,0,0,0-2.42,1.69l-2.63-.1.91-9.65h8.87V93H35.09l-.6,4.84.06.05a4,4,0,0,1,3.09-1.43c3.85,0,4.81,3.25,4.81,6.09,0,3.69-1.69,6.5-5.67,6.5-3.3,0-5.15-1.69-5.15-4.94Z" fill="#3b4351"/><path d="M49.52,90.31c3.54,0,5.51,2.21,5.51,9.39s-2,9.39-5.51,9.39S44,106.88,44,99.7,46,90.31,49.52,90.31Zm0,16.7c2,0,2.55-2,2.55-7.31s-.55-7.31-2.55-7.31S47,94.37,47,99.7,47.52,107,49.52,107Z" fill="#3b4351"/></g></g><g id="Text"><g id="Greeks"><path d="M138.15,31.72h-.05a3.63,3.63,0,0,1-3.82,2.37c-3.83,0-5.2-2.84-5.2-9.09s1.77-9.09,5.81-9.09A4.76,4.76,0,0,1,140,21v.32h-2.65v-.42c0-1.3-.54-2.84-2.45-2.84s-3,1.32-3,6.91.94,7.06,2.82,7.06c2.13,0,2.92-1.52,2.92-5.35h-2.94v-2.1h5.59v9.21h-2.11Z" fill="#3b4351"/><path d="M142.48,20.57h2.65v2.05h.05a3.26,3.26,0,0,1,3.06-2.4,1.59,1.59,0,0,1,.64.1V23a3.51,3.51,0,0,0-1.1-.15c-1.21,0-2.65.54-2.65,3v7.89h-2.65Z" fill="#3b4351"/><path d="M152.33,27.5v.76c0,1.76.22,4,2.21,4s2.1-2.13,2.1-2.94h2.5c0,3-1.76,4.75-4.63,4.75-2.15,0-4.83-.63-4.83-6.74,0-3.45.76-7.13,4.88-7.13,3.68,0,4.66,2.23,4.66,5.88v1.4Zm4.24-1.81V25c0-1.67-.54-2.94-2-2.94-1.67,0-2.21,1.66-2.21,3.38v.27Z" fill="#3b4351"/><path d="M163.67,27.5v.76c0,1.76.23,4,2.21,4S168,30.15,168,29.34h2.5c0,3-1.77,4.75-4.63,4.75-2.16,0-4.83-.63-4.83-6.74,0-3.45.76-7.13,4.87-7.13,3.68,0,4.66,2.23,4.66,5.88v1.4Zm4.24-1.81V25c0-1.67-.53-2.94-2-2.94-1.67,0-2.21,1.66-2.21,3.38v.27Z" fill="#3b4351"/><path d="M172.74,16.25h2.65v9.83h0l4-5.51,3.06,0-4,5.1L183,33.75h-2.89l-3.24-6-1.49,1.81v4.19h-2.65Z" fill="#3b4351"/><path d="M117.26,54.48v.36c0,3.17-1.3,6.25-5.39,6.25-4.41,0-5.78-2.84-5.78-9.09s1.37-9.09,5.81-9.09c5,0,5.26,3.65,5.26,5.49v.32h-2.79v-.3c0-1.64-.49-3.48-2.5-3.4s-3,1.27-3,6.91.91,7.06,3,7.06c2.35,0,2.6-2.58,2.6-4.22v-.29Z" fill="#3b4351"/><path d="M119.17,43.06h2.65V45.7h-2.65Zm0,4.51h2.65V60.75h-2.65Z" fill="#3b4351"/><path d="M123.31,47.57h1.81V43.82h2.65v3.75h2.16v2h-2.16v7.86c0,1.06.29,1.4,1.2,1.4a5.1,5.1,0,0,0,1-.07v2a9.08,9.08,0,0,1-2.14.22c-1.76,0-2.67-.52-2.67-3.19V49.53h-1.81Z" fill="#3b4351"/><path d="M133.06,47.57l2.28,9.9h0l2.11-9.9h2.77l-3.63,13.67c-1,3.6-1.86,4.09-4.61,4a5.41,5.41,0,0,1-1.05-.1V63.05a3.11,3.11,0,0,0,.86.1c.9,0,1.49-.17,1.79-1L134,61l-3.75-13.47Z" fill="#3b4351"/><path d="M149.94,55.33v.45c0,2.13,1,3.21,2.87,3.21a2.51,2.51,0,0,0,2.65-2.55c0-1.84-.93-2.65-2.5-3.12l-1.91-.66c-2.55-1-3.66-2.3-3.66-4.8,0-3.19,2.19-5,5.44-5,4.49,0,4.95,2.79,4.95,4.61v.39H155v-.37C155,46,154.3,45,152.54,45a2.23,2.23,0,0,0-2.35,2.52c0,1.5.76,2.26,2.62,3l1.89.68c2.47.89,3.55,2.21,3.55,4.63,0,3.73-2.25,5.27-5.78,5.27-4.34,0-5.32-2.89-5.32-5.34v-.42Z" fill="#3b4351"/><path d="M159.15,47.57H161V43.82h2.64v3.75h2.16v2h-2.16v7.86c0,1.06.3,1.4,1.2,1.4a5,5,0,0,0,1-.07v2a8.93,8.93,0,0,1-2.13.22c-1.77,0-2.67-.52-2.67-3.19V49.53h-1.82Z" fill="#3b4351"/><path d="M175.79,58c0,.49.3.93.69.93a1,1,0,0,0,.44-.08v1.72a2.86,2.86,0,0,1-1.3.32c-1.18,0-2.16-.47-2.23-1.74h0a3.39,3.39,0,0,1-3.28,1.93c-2.13,0-3.43-1.15-3.43-3.7,0-2.94,1.3-3.55,3.06-4.14l2.06-.56c.95-.27,1.54-.54,1.54-1.69s-.41-2-1.81-2c-1.77,0-2,1.25-2,2.52H167c0-2.82,1.15-4.34,4.63-4.34,2.33,0,4.19.91,4.19,3.24Zm-2.5-4.22A21.19,21.19,0,0,1,170.35,55a2.16,2.16,0,0,0-1.08,2.13c0,1.1.54,2,1.64,2,1.6,0,2.38-1.17,2.38-3.13Z" fill="#3b4351"/><path d="M177.31,47.57h1.81V43.82h2.65v3.75h2.15v2h-2.15v7.86c0,1.06.29,1.4,1.2,1.4a4.91,4.91,0,0,0,.95-.07v2a8.93,8.93,0,0,1-2.13.22c-1.76,0-2.67-.52-2.67-3.19V49.53h-1.81Z" fill="#3b4351"/><path d="M187.57,54.5v.76c0,1.76.22,4,2.21,4s2.11-2.13,2.11-2.94h2.5c0,3-1.77,4.75-4.63,4.75-2.16,0-4.83-.63-4.83-6.74,0-3.45.76-7.13,4.87-7.13,3.68,0,4.66,2.23,4.66,5.88v1.4Zm4.24-1.81V52c0-1.67-.54-2.94-2-2.94-1.67,0-2.21,1.66-2.21,3.38v.27Z" fill="#3b4351"/><path d="M202.32,51.41v-.34c0-1-.36-2-1.74-2-1.05,0-1.88.46-1.88,1.71,0,1.06.46,1.45,1.86,1.94l1.69.59c2,.66,2.87,1.71,2.87,3.79,0,2.82-2.09,4-4.73,4-3.33,0-4.34-1.54-4.34-4.09v-.49h2.35v.42c0,1.54.52,2.35,2.06,2.35s2.16-.74,2.16-1.94a1.91,1.91,0,0,0-1.45-1.93L199,54.65c-2-.66-2.82-1.69-2.82-3.8,0-2.48,1.76-3.63,4.51-3.63,3.35,0,4.11,2,4.11,3.61v.58Z" fill="#3b4351"/></g><g id="Egytians"><g id="small"><path d="M237.2,14.64c0,.28.17.53.39.53a.54.54,0,0,0,.25,0v1a1.55,1.55,0,0,1-.74.18c-.67,0-1.23-.27-1.27-1h0a2,2,0,0,1-1.88,1.1c-1.22,0-2-.66-2-2.11a2.08,2.08,0,0,1,1.75-2.37l1.18-.32c.54-.16.88-.31.88-1s-.24-1.12-1-1.12c-1,0-1.14.72-1.14,1.44h-1.43c0-1.61.66-2.48,2.64-2.48,1.34,0,2.4.52,2.4,1.85Zm-1.43-2.41a12.39,12.39,0,0,1-1.68.7,1.25,1.25,0,0,0-.62,1.22c0,.63.31,1.13.94,1.13.91,0,1.36-.67,1.36-1.79Z" fill="#3b4351"/><path d="M242,10.87v-.2c0-.6-.21-1.16-1-1.16-.6,0-1.08.27-1.08,1s.27.83,1.07,1.11l1,.33a2,2,0,0,1,1.64,2.18c0,1.61-1.19,2.29-2.7,2.29-1.9,0-2.48-.88-2.48-2.34v-.28h1.35V14c0,.88.29,1.35,1.17,1.35s1.23-.42,1.23-1.11a1.09,1.09,0,0,0-.82-1.11l-1.23-.43a2,2,0,0,1-1.62-2.17c0-1.42,1-2.08,2.58-2.08,1.92,0,2.36,1.13,2.36,2.06v.34Z" fill="#3b4351"/><path d="M248.16,6.21h1.6v4.35h0l3-4.35h1.75l-2.89,4.21,3.2,5.79h-1.81l-2.42-4.5L249.76,13v3.24h-1.6Z" fill="#3b4351"/><path d="M255.4,6.09h1.51V7.61H255.4Zm0,2.58h1.51v7.54H255.4Z" fill="#3b4351"/><path d="M258.43,8.67h1.43v.88h.05a2.15,2.15,0,0,1,1.93-1.08c1.15,0,1.88.52,1.88,2v5.69H262.2V11c0-1-.26-1.36-1.05-1.36-.61,0-1.2.46-1.2,1.47v5.06h-1.52Z" fill="#3b4351"/><path d="M269,15.28h0a1.61,1.61,0,0,1-1.65,1.12c-1.75,0-2.47-1.48-2.47-4.06,0-3.35,1.18-3.87,2.33-3.87a1.74,1.74,0,0,1,1.71,1.08h0V6.21h1.51v10H269Zm-1.37-5.6c-.86,0-1.18.7-1.18,2.73,0,1.71.21,2.79,1.28,2.79s1.27-1,1.27-2.68C269,10.72,268.82,9.68,267.65,9.68Z" fill="#3b4351"/><path d="M271.61,12.44c0-2.35.62-4,2.8-4s2.82,1.62,2.82,4-.73,4-2.82,4S271.61,14.79,271.61,12.44Zm2.8,2.84c1.11,0,1.3-.92,1.3-2.84,0-1.67-.19-2.84-1.3-2.84s-1.29,1.17-1.29,2.84C273.12,14.36,273.33,15.28,274.41,15.28Z" fill="#3b4351"/><path d="M278.45,8.67h1.43v.88h.05a2.1,2.1,0,0,1,1.8-1.08,1.63,1.63,0,0,1,1.75,1.15,2.07,2.07,0,0,1,1.91-1.15c1.06,0,1.83.55,1.83,2v5.73h-1.51V11c0-1-.29-1.36-.91-1.36s-1.2.48-1.2,1.47v5.06h-1.52V11c0-1-.29-1.36-.92-1.36s-1.19.49-1.19,1.47v5.06h-1.52Z" fill="#3b4351"/><path d="M291.81,12.44c0-2.35.62-4,2.8-4s2.82,1.62,2.82,4-.73,4-2.82,4S291.81,14.79,291.81,12.44Zm2.8,2.84c1.11,0,1.3-.92,1.3-2.84,0-1.67-.19-2.84-1.3-2.84s-1.29,1.17-1.29,2.84C293.32,14.36,293.53,15.28,294.61,15.28Z" fill="#3b4351"/><path d="M299.05,9.79H298V8.67h1.05V8c0-1.41.68-1.88,1.92-1.88a6.2,6.2,0,0,1,.82,0V7.3h-.42c-.56,0-.81.21-.81.71v.66h1.23V9.79h-1.23v6.42h-1.51Z" fill="#3b4351"/><path d="M305.94,6.21h2.49l1.76,7.41h0L312,6.21h2.44v10h-1.52V7.89h0l-2,8.32h-1.35l-2-8.32h0v8.32h-1.51Z" fill="#3b4351"/><path d="M317.25,12.63v.44c0,1,.12,2.3,1.26,2.3s1.2-1.22,1.2-1.68h1.43a2.47,2.47,0,0,1-2.64,2.71c-1.24,0-2.76-.36-2.76-3.85,0-2,.43-4.08,2.78-4.08,2.1,0,2.66,1.28,2.66,3.37v.79Zm2.42-1v-.41c0-.95-.31-1.68-1.16-1.68s-1.26,1-1.26,1.93v.16Z" fill="#3b4351"/><path d="M322.43,8.67h1.51V9.85h0a1.88,1.88,0,0,1,1.75-1.38.87.87,0,0,1,.36.06v1.54a2.18,2.18,0,0,0-.63-.08c-.68,0-1.51.31-1.51,1.71v4.51h-1.51Z" fill="#3b4351"/><path d="M326.54,12.44c0-2.35.62-4,2.81-4s2.81,1.62,2.81,4-.73,4-2.81,4S326.54,14.79,326.54,12.44Zm2.81,2.84c1.1,0,1.3-.92,1.3-2.84,0-1.67-.2-2.84-1.3-2.84s-1.29,1.17-1.29,2.84C328.06,14.36,328.27,15.28,329.35,15.28Z" fill="#3b4351"/><path d="M334.62,12.63v.44c0,1,.13,2.3,1.26,2.3s1.21-1.22,1.21-1.68h1.43a2.48,2.48,0,0,1-2.65,2.71c-1.23,0-2.76-.36-2.76-3.85,0-2,.43-4.08,2.79-4.08,2.1,0,2.66,1.28,2.66,3.37v.79Zm2.43-1v-.41c0-.95-.31-1.68-1.17-1.68s-1.26,1-1.26,1.93v.16Z" fill="#3b4351"/><path d="M339.44,14.36H341v1.85h-1.59Z" fill="#3b4351"/></g><path d="M278.38,41.55a3.1,3.1,0,0,1-1.57.34c-2.3,0-3.31-1.63-3.31-5.2s1-5.19,3.31-5.19,3.3,1.62,3.3,5.19a8.08,8.08,0,0,1-.78,4l1,1.08-1,.85Zm-.84-2.62.65.66a10.22,10.22,0,0,0,.33-2.94c0-3.36-.76-3.95-1.71-3.95s-1.71.59-1.71,3.95.75,4,1.71,4a1.2,1.2,0,0,0,.57-.09l-.76-.75Z" fill="#3b4351"/><path d="M285.28,40.81h0a2.18,2.18,0,0,1-1.94,1.08c-1.12,0-1.87-.52-1.87-2.47V34.16h1.51v5.4c0,.84.36,1.12,1,1.12a1.17,1.17,0,0,0,1.23-1.26V34.16h1.52v7.53h-1.43Z" fill="#3b4351"/><path d="M289.46,38.12v.44c0,1,.13,2.29,1.26,2.29s1.21-1.22,1.21-1.68h1.43a2.48,2.48,0,0,1-2.65,2.72c-1.23,0-2.76-.36-2.76-3.85,0-2,.43-4.08,2.79-4.08,2.1,0,2.66,1.28,2.66,3.36v.8Zm2.43-1v-.4c0-1-.31-1.68-1.17-1.68s-1.26,1-1.26,1.93v.15Z" fill="#3b4351"/><path d="M295.94,38.12v.44c0,1,.13,2.29,1.26,2.29s1.21-1.22,1.21-1.68h1.43a2.48,2.48,0,0,1-2.65,2.72c-1.23,0-2.76-.36-2.76-3.85,0-2,.44-4.08,2.79-4.08,2.1,0,2.66,1.28,2.66,3.36v.8Zm2.43-1v-.4c0-1-.31-1.68-1.17-1.68s-1.26,1-1.26,1.93v.15Z" fill="#3b4351"/><path d="M301.12,34.16h1.43V35h0A2.18,2.18,0,0,1,304.53,34c1.15,0,1.87.52,1.87,2v5.68h-1.51V36.52c0-1-.26-1.35-1.05-1.35-.62,0-1.2.46-1.2,1.47v5h-1.52Z" fill="#3b4351"/><path d="M310.92,37.93c0-2.36.62-4,2.8-4s2.82,1.61,2.82,4-.73,4-2.82,4S310.92,40.28,310.92,37.93Zm2.8,2.84c1.11,0,1.31-.93,1.31-2.84,0-1.67-.2-2.85-1.31-2.85s-1.28,1.18-1.28,2.85C312.44,39.84,312.65,40.77,313.72,40.77Z" fill="#3b4351"/><path d="M318.16,35.28h-1.05V34.16h1.05v-.7c0-1.42.69-1.88,1.92-1.88a6.67,6.67,0,0,1,.83,0v1.16h-.42c-.56,0-.82.21-.82.72v.66h1.24v1.12h-1.24v6.41h-1.51Z" fill="#3b4351"/><path d="M326.28,38.6v.25c0,1.22.55,1.83,1.64,1.83a1.43,1.43,0,0,0,1.51-1.45A1.68,1.68,0,0,0,328,37.45l-1.09-.38a2.67,2.67,0,0,1-2.08-2.74c0-1.83,1.24-2.83,3.1-2.83,2.57,0,2.83,1.59,2.83,2.63v.22h-1.59v-.21c0-.91-.4-1.44-1.4-1.44a1.28,1.28,0,0,0-1.35,1.44c0,.86.44,1.29,1.5,1.7l1.08.39a2.55,2.55,0,0,1,2,2.65c0,2.13-1.29,3-3.31,3a2.75,2.75,0,0,1-3-3V38.6Z" fill="#3b4351"/><path d="M332.22,31.69h1.51V35l0,0a2.16,2.16,0,0,1,1.85-1c1.15,0,1.88.52,1.88,2v5.68H336V36.52c0-1-.29-1.35-1.06-1.35-.61,0-1.2.47-1.2,1.47v5h-1.51Z" fill="#3b4351"/><path d="M340.25,38.12v.44c0,1,.13,2.29,1.26,2.29s1.21-1.22,1.21-1.68h1.43a2.48,2.48,0,0,1-2.65,2.72c-1.23,0-2.76-.36-2.76-3.85,0-2,.44-4.08,2.79-4.08,2.1,0,2.66,1.28,2.66,3.36v.8Zm2.43-1v-.4c0-1-.31-1.68-1.17-1.68s-1.26,1-1.26,1.93v.15Z" fill="#3b4351"/><path d="M345.43,31.69H347V35h0A1.75,1.75,0,0,1,348.68,34c1.15,0,2.33.52,2.33,3.87,0,2.59-.72,4.06-2.47,4.06a1.61,1.61,0,0,1-1.65-1.12h0v.92h-1.43Zm2.71,9c1.06,0,1.27-1.07,1.27-2.78,0-2-.32-2.73-1.18-2.73-1.17,0-1.37,1-1.37,2.84C346.86,39.63,347.1,40.68,348.14,40.68Z" fill="#3b4351"/><path d="M357.11,40.12c0,.28.17.54.39.54a.57.57,0,0,0,.26,0v1a1.76,1.76,0,0,1-.75.18c-.67,0-1.23-.27-1.27-1h0a1.94,1.94,0,0,1-1.88,1.11c-1.21,0-2-.66-2-2.12a2.07,2.07,0,0,1,1.75-2.36l1.18-.33c.55-.15.88-.3.88-1s-.24-1.12-1-1.12c-1,0-1.15.71-1.15,1.44h-1.43c0-1.61.66-2.48,2.65-2.48,1.33,0,2.39.52,2.39,1.85Zm-1.43-2.4a13.82,13.82,0,0,1-1.68.7,1.23,1.23,0,0,0-.61,1.21c0,.63.3,1.14.93,1.14.91,0,1.36-.67,1.36-1.79Z" fill="#3b4351"/><path d="M311.1,54.67h1.6v4h2.94v-4h1.59v10h-1.59V60H312.7v4.65h-1.6Z" fill="#3b4351"/><path d="M320.09,61.1v.44c0,1,.12,2.29,1.26,2.29s1.2-1.21,1.2-1.68H324a2.48,2.48,0,0,1-2.65,2.72c-1.23,0-2.76-.36-2.76-3.85,0-2,.44-4.08,2.79-4.08,2.1,0,2.66,1.28,2.66,3.36v.8Zm2.42-1v-.41c0-.95-.31-1.68-1.16-1.68s-1.26,1-1.26,1.93v.16Z" fill="#3b4351"/><path d="M325.27,54.67h1.51V58h0a1.74,1.74,0,0,1,1.71-1.08c1.15,0,2.32.52,2.32,3.87,0,2.59-.71,4.06-2.46,4.06a1.62,1.62,0,0,1-1.66-1.12h0v.92h-1.43Zm2.7,9c1.07,0,1.28-1.08,1.28-2.79,0-2-.33-2.73-1.18-2.73-1.18,0-1.37,1-1.37,2.84C326.7,62.62,326.93,63.67,328,63.67Z" fill="#3b4351"/><path d="M332,57.14h1.51v1.18h0a1.88,1.88,0,0,1,1.75-1.38.92.92,0,0,1,.37.06v1.54a2.3,2.3,0,0,0-.63-.08c-.69,0-1.52.3-1.52,1.71v4.5H332Z" fill="#3b4351"/><path d="M337.63,61.1v.44c0,1,.13,2.29,1.26,2.29s1.2-1.21,1.2-1.68h1.43a2.48,2.48,0,0,1-2.64,2.72c-1.24,0-2.76-.36-2.76-3.85,0-2,.43-4.08,2.78-4.08,2.1,0,2.67,1.28,2.67,3.36v.8Zm2.42-1v-.41c0-.95-.31-1.68-1.16-1.68s-1.26,1-1.26,1.93v.16Z" fill="#3b4351"/><path d="M342.29,57.14h1.57l1.05,5.94h0l1.12-5.94h1.71l1.12,5.94h0l1-5.94h1.52l-1.73,7.53h-1.69l-1.18-5.85h0l-1.08,5.85H344Z" fill="#3b4351"/><path d="M317.47,80.09v.21c0,1.81-.74,3.57-3.08,3.57-2.52,0-3.31-1.62-3.31-5.2s.79-5.19,3.32-5.19c2.85,0,3,2.08,3,3.14v.18h-1.6v-.17c0-.94-.28-2-1.43-1.95s-1.71.73-1.71,3.95.52,4,1.71,4c1.35,0,1.49-1.47,1.49-2.41v-.17Z" fill="#3b4351"/><path d="M322.34,82.79h0a2.17,2.17,0,0,1-1.93,1.08c-1.12,0-1.88-.52-1.88-2.46V76.14H320v5.41c0,.84.37,1.12,1,1.12a1.18,1.18,0,0,0,1.23-1.26V76.14h1.51v7.53h-1.43Z" fill="#3b4351"/><path d="M328.47,78.34v-.2c0-.6-.21-1.16-1-1.16-.6,0-1.08.27-1.08,1s.27.83,1.07,1.11l1,.33a2,2,0,0,1,1.64,2.17c0,1.61-1.19,2.3-2.7,2.3-1.91,0-2.48-.88-2.48-2.34v-.28h1.34v.24c0,.88.3,1.34,1.18,1.34s1.23-.42,1.23-1.1a1.09,1.09,0,0,0-.82-1.11l-1.24-.43A2,2,0,0,1,325,78c0-1.42,1-2.08,2.58-2.08,1.92,0,2.35,1.12,2.35,2.06v.34Z" fill="#3b4351"/><path d="M331.19,73.67h1.51V77l0,0a2.16,2.16,0,0,1,1.85-1c1.15,0,1.88.52,1.88,2v5.68H335V78.51c0-1-.28-1.36-1-1.36s-1.21.47-1.21,1.47v5h-1.51Z" fill="#3b4351"/><path d="M341,79.91c0-2.36.61-4,2.8-4s2.82,1.61,2.82,4-.73,4-2.82,4S341,82.26,341,79.91Zm2.8,2.84c1.11,0,1.3-.92,1.3-2.84,0-1.67-.19-2.85-1.3-2.85s-1.29,1.18-1.29,2.85C342.5,81.83,342.71,82.75,343.79,82.75Z" fill="#3b4351"/><path d="M347.76,76.14h1.52v1.18h0a1.86,1.86,0,0,1,1.75-1.38.87.87,0,0,1,.36.06v1.54a2.18,2.18,0,0,0-.63-.08c-.69,0-1.51.3-1.51,1.71v4.5h-1.52Z" fill="#3b4351"/><path d="M311.1,95.14h1.43V96h0a2.12,2.12,0,0,1,1.81-1.08,1.64,1.64,0,0,1,1.75,1.15,2,2,0,0,1,1.9-1.15c1.07,0,1.84.55,1.84,2v5.72h-1.52V97.51c0-1-.29-1.36-.91-1.36s-1.2.47-1.2,1.47v5h-1.51V97.51c0-1-.3-1.36-.93-1.36s-1.19.49-1.19,1.47v5H311.1Z" fill="#3b4351"/><path d="M321.09,98.91c0-2.36.62-4,2.81-4s2.81,1.61,2.81,4-.73,4-2.81,4S321.09,101.26,321.09,98.91Zm2.81,2.84c1.1,0,1.3-.92,1.3-2.84,0-1.67-.2-2.85-1.3-2.85s-1.29,1.18-1.29,2.85C322.61,100.83,322.82,101.75,323.9,101.75Z" fill="#3b4351"/><path d="M331.72,101.75h0a1.6,1.6,0,0,1-1.65,1.12c-1.75,0-2.46-1.48-2.46-4.06,0-3.35,1.17-3.87,2.32-3.87A1.74,1.74,0,0,1,331.61,96h0V92.67h1.51v10h-1.43Zm-1.37-5.6c-.85,0-1.18.7-1.18,2.73,0,1.71.21,2.79,1.28,2.79s1.27-1,1.27-2.68C331.72,97.18,331.53,96.15,330.35,96.15Z" fill="#3b4351"/><path d="M335.91,99.1v.44c0,1,.12,2.29,1.26,2.29s1.2-1.21,1.2-1.68h1.43a2.48,2.48,0,0,1-2.65,2.72c-1.23,0-2.76-.36-2.76-3.85,0-2,.44-4.08,2.79-4.08,2.1,0,2.66,1.28,2.66,3.36v.8Zm2.42-1v-.41c0-1-.31-1.68-1.16-1.68s-1.26,1-1.26,1.93v.16Z" fill="#3b4351"/><path d="M341.09,95.14h1.51v1.18h0a1.86,1.86,0,0,1,1.75-1.38.87.87,0,0,1,.36.06v1.54a2.18,2.18,0,0,0-.63-.08c-.68,0-1.51.3-1.51,1.71v4.5h-1.51Z" fill="#3b4351"/><path d="M345.64,95.14h1.43V96h0A2.17,2.17,0,0,1,349,94.94c1.15,0,1.88.52,1.88,2v5.68H349.4V97.51c0-1-.26-1.36-1-1.36-.61,0-1.2.46-1.2,1.47v5h-1.51Z" fill="#3b4351"/><path d="M306.43,111.67h2.05l2.63,10h-1.67l-.61-2.45H305.9l-.65,2.45h-1.66Zm2.13,6.28L307.41,113h0L306.19,118Z" fill="#3b4351"/><path d="M311.71,111.67h1.51V115h0a1.74,1.74,0,0,1,1.71-1.08c1.15,0,2.32.52,2.32,3.87,0,2.59-.71,4.06-2.46,4.06a1.62,1.62,0,0,1-1.66-1.12h0v.92h-1.43Zm2.7,9c1.07,0,1.28-1.08,1.28-2.79,0-2-.33-2.73-1.18-2.73-1.18,0-1.37,1-1.37,2.84C313.14,119.62,313.38,120.67,314.41,120.67Z" fill="#3b4351"/><path d="M336.24,111.56h1.51v1.51h-1.51Zm0,2.58h1.51v7.53h-1.51Z" fill="#3b4351"/><path d="M346.08,111.56h1.51v1.51h-1.51Zm0,2.58h1.51v7.53h-1.51Z" fill="#3b4351"/><path d="M237.27,64.25h5.41V65.6h-3.81v2.77h3.59v1.34h-3.59v3.2h3.92v1.34h-5.52Z" fill="#3b4351"/><path d="M245.42,74.9a1,1,0,0,0,1.09.89,1.25,1.25,0,0,0,1.28-1.41V73.16h0a1.82,1.82,0,0,1-1.71,1c-1.75,0-2.25-1.73-2.25-3.8,0-1.65.25-3.88,2.39-3.88a1.66,1.66,0,0,1,1.65,1.12h0v-.92h1.43v7.17c0,1.83-.78,2.94-2.81,2.94-2.25,0-2.5-1.32-2.5-1.93ZM246.49,73c1.17,0,1.3-1.48,1.3-2.67s-.16-2.59-1.21-2.59-1.27,1.12-1.27,2.52S245.37,73,246.49,73Z" fill="#3b4351"/><path d="M251.65,66.72l1.3,5.66h0l1.21-5.66h1.58l-2.07,7.81c-.61,2.06-1.07,2.34-2.64,2.3a2.45,2.45,0,0,1-.6-.06v-1.2a2.05,2.05,0,0,0,.49.06c.52,0,.86-.1,1-.59l.2-.62L250,66.72Z" fill="#3b4351"/><path d="M259.86,74.45a1.74,1.74,0,0,1-1.71-1.08h0v3.35h-1.51v-10H258v.92h0a1.8,1.8,0,0,1,1.7-1.12c1.72,0,2.42,1.47,2.42,4.06C262.18,73.75,260.91,74.45,259.86,74.45Zm-.55-6.72c-1,0-1.27,1-1.27,2.67,0,1.81.22,2.84,1.28,2.84.86,0,1.26-.64,1.26-2.73C260.58,68.8,260.37,67.73,259.31,67.73Z" fill="#3b4351"/><path d="M262.67,66.72h1V64.57h1.52v2.15h1.23v1.12h-1.23v4.49c0,.61.17.8.68.8a2.75,2.75,0,0,0,.55,0v1.12a5.11,5.11,0,0,1-1.22.13c-1,0-1.53-.3-1.53-1.82V67.84h-1Z" fill="#3b4351"/><path d="M270.66,64.14h1.51v1.51h-1.51Zm0,2.58h1.51v7.53h-1.51Z" fill="#3b4351"/><path d="M273.7,66.72h1.43v.88h0a2.17,2.17,0,0,1,1.93-1.08c1.15,0,1.88.52,1.88,2v5.68h-1.51V69.08c0-1-.27-1.35-1.05-1.35-.62,0-1.21.46-1.21,1.47v5H273.7Z" fill="#3b4351"/><path d="M238.38,92.45a1.74,1.74,0,0,1-1.71-1.08h0v3.35h-1.51v-10h1.43v.92h0a1.78,1.78,0,0,1,1.69-1.12c1.72,0,2.42,1.47,2.42,4.06C240.7,91.75,239.43,92.45,238.38,92.45Zm-.55-6.72c-1,0-1.27,1-1.27,2.67,0,1.81.22,2.84,1.29,2.84.85,0,1.26-.64,1.26-2.73C239.11,86.8,238.9,85.73,237.83,85.73Z" fill="#3b4351"/><path d="M241.57,88.49c0-2.36.62-4,2.8-4s2.82,1.61,2.82,4-.73,4-2.82,4S241.57,90.84,241.57,88.49Zm2.8,2.84c1.11,0,1.3-.93,1.3-2.84,0-1.67-.19-2.85-1.3-2.85s-1.29,1.18-1.29,2.85C243.08,90.4,243.29,91.33,244.37,91.33Z" fill="#3b4351"/><path d="M247.74,84.72h1.57l1.05,5.94h0l1.12-5.94h1.71l1.12,5.94h0l1-5.94h1.51l-1.72,7.53h-1.7l-1.18-5.85h0l-1.08,5.85h-1.77Z" fill="#3b4351"/><path d="M259.15,88.68v.44c0,1,.13,2.29,1.27,2.29s1.2-1.22,1.2-1.68h1.43a2.48,2.48,0,0,1-2.65,2.72c-1.23,0-2.76-.37-2.76-3.85,0-2,.44-4.08,2.79-4.08,2.1,0,2.66,1.28,2.66,3.36v.8Zm2.43-1v-.4c0-.95-.31-1.68-1.16-1.68s-1.27,1-1.27,1.93v.15Z" fill="#3b4351"/><path d="M264.33,84.72h1.52v1.17h0a1.87,1.87,0,0,1,1.76-1.37.87.87,0,0,1,.36.06v1.54a2.11,2.11,0,0,0-.63-.09c-.69,0-1.51.31-1.51,1.71v4.51h-1.52Z" fill="#3b4351"/><path d="M271.81,88.49c0-2.36.62-4,2.8-4s2.82,1.61,2.82,4-.73,4-2.82,4S271.81,90.84,271.81,88.49Zm2.8,2.84c1.11,0,1.3-.93,1.3-2.84,0-1.67-.19-2.85-1.3-2.85s-1.29,1.18-1.29,2.85C273.32,90.4,273.53,91.33,274.61,91.33Z" fill="#3b4351"/><path d="M279.05,85.84H278V84.72h1.05V84c0-1.42.68-1.88,1.92-1.88a6.4,6.4,0,0,1,.82,0v1.16h-.42c-.56,0-.81.21-.81.72v.66h1.23v1.12h-1.23v6.41h-1.51Z" fill="#3b4351"/><path d="M236.7,100.25h1.6v8.66h3.86v1.34H236.7Z" fill="#3b4351"/><path d="M243.49,102.72l1.3,5.66h0l1.2-5.66h1.59l-2.08,7.81c-.6,2.06-1.06,2.34-2.63,2.3a2.45,2.45,0,0,1-.6-.06v-1.2a2.05,2.05,0,0,0,.49.06c.52,0,.85-.1,1-.59l.2-.62-2.15-7.7Z" fill="#3b4351"/><path d="M248.44,100.25H250v3.35h0a1.74,1.74,0,0,1,1.7-1.08c1.15,0,2.33.52,2.33,3.87,0,2.59-.71,4.06-2.47,4.06a1.61,1.61,0,0,1-1.65-1.12h0v.92h-1.43Zm2.71,9c1.06,0,1.27-1.07,1.27-2.78,0-2-.32-2.73-1.17-2.73-1.18,0-1.38,1-1.38,2.84C249.87,108.19,250.11,109.24,251.15,109.24Z" fill="#3b4351"/><path d="M255.25,100.14h1.51v1.51h-1.51Zm0,2.58h1.51v7.53h-1.51Z" fill="#3b4351"/><path d="M263.23,108.68c0,.28.17.54.39.54a.57.57,0,0,0,.26,0v1a1.76,1.76,0,0,1-.75.18c-.67,0-1.23-.27-1.27-1h0a2,2,0,0,1-1.88,1.11c-1.22,0-2-.66-2-2.12a2.06,2.06,0,0,1,1.75-2.36l1.18-.33c.55-.15.88-.3.88-1s-.24-1.12-1-1.12c-1,0-1.15.71-1.15,1.44h-1.43c0-1.61.66-2.48,2.65-2.48,1.33,0,2.39.52,2.39,1.85Zm-1.43-2.4a13.82,13.82,0,0,1-1.68.7,1.23,1.23,0,0,0-.61,1.21c0,.63.3,1.14.93,1.14.91,0,1.36-.67,1.36-1.79Z" fill="#3b4351"/><path d="M264.77,102.72h1.43v.88h0a2.17,2.17,0,0,1,1.93-1.08c1.15,0,1.88.52,1.88,2v5.68h-1.51v-5.17c0-1-.27-1.35-1.05-1.35-.62,0-1.21.46-1.21,1.47v5h-1.51Z" fill="#3b4351"/><path d="M274.75,104.92v-.2c0-.6-.21-1.16-1-1.16-.6,0-1.08.26-1.08,1s.27.82,1.06,1.1l1,.34a2,2,0,0,1,1.64,2.17c0,1.61-1.19,2.3-2.7,2.3-1.91,0-2.48-.88-2.48-2.34v-.28h1.34v.24c0,.88.3,1.34,1.18,1.34s1.23-.42,1.23-1.1a1.09,1.09,0,0,0-.83-1.11l-1.23-.43a2,2,0,0,1-1.61-2.18c0-1.41,1-2.07,2.58-2.07,1.92,0,2.35,1.12,2.35,2.06v.34Z" fill="#3b4351"/><path d="M277.62,108.4h1.6v1.85h-1.6Z" fill="#3b4351"/></g><g id="Amorites"><path d="M1017.34,26.66H1023c2.62,0,4.7,1.18,4.7,4.24q0,3.16-2.57,4v.05c1.91.34,3.14,1.5,3.14,4.46s-2.11,4.78-5.4,4.78h-5.53Zm5,7.38a2.45,2.45,0,0,0,2.58-2.77c0-2.08-1.25-2.5-2.82-2.5h-2V34Zm.57,8c1.66,0,2.57-1,2.57-3.09a2.65,2.65,0,0,0-2.74-3h-2.6v6Z" fill="#3b4351"/><path d="M1039,41.41c0,.49.29.94.69.94a1,1,0,0,0,.44-.08V44a2.86,2.86,0,0,1-1.3.32c-1.18,0-2.16-.47-2.23-1.74h0a3.39,3.39,0,0,1-3.28,1.93c-2.14,0-3.43-1.15-3.43-3.7,0-2.94,1.29-3.55,3.06-4.14l2.06-.56c1-.27,1.54-.54,1.54-1.69s-.41-2-1.81-2c-1.77,0-2,1.25-2,2.52h-2.5c0-2.82,1.15-4.34,4.63-4.34,2.33,0,4.19.91,4.19,3.24Zm-2.5-4.21a20,20,0,0,1-2.94,1.22,2.18,2.18,0,0,0-1.08,2.14c0,1.1.54,2,1.64,2,1.6,0,2.38-1.17,2.38-3.13Z" fill="#3b4351"/><path d="M1041.66,26.66h2.65v5.86h0a3,3,0,0,1,3-1.89c2,0,4.07.91,4.07,6.77,0,4.53-1.25,7.1-4.32,7.1a2.82,2.82,0,0,1-2.89-2h0v1.62h-2.5Zm4.73,15.73c1.87,0,2.23-1.88,2.23-4.87,0-3.56-.56-4.78-2.06-4.78-2,0-2.4,1.81-2.4,5C1044.16,40.56,1044.58,42.39,1046.39,42.39Z" fill="#3b4351"/><path d="M1054.92,31l2.28,9.9h0l2.1-9.9h2.77l-3.62,13.67c-1.06,3.6-1.87,4.09-4.61,4a5.44,5.44,0,0,1-1.06-.1V46.46a3.2,3.2,0,0,0,.86.1c.91,0,1.5-.17,1.79-1l.34-1.08L1052.08,31Z" fill="#3b4351"/><path d="M1063.71,26.66h2.65v17.5h-2.65Z" fill="#3b4351"/><path d="M1068.51,37.57c0-4.12,1.08-6.94,4.91-6.94s4.92,2.82,4.92,6.94-1.27,6.93-4.92,6.93S1068.51,41.68,1068.51,37.57Zm4.91,5c1.93,0,2.27-1.62,2.27-5,0-2.92-.34-5-2.27-5s-2.26,2.06-2.26,5C1071.16,40.92,1071.53,42.54,1073.42,42.54Z" fill="#3b4351"/><path d="M1080.37,31h2.5v1.54h.08a3.77,3.77,0,0,1,3.38-1.89c2,0,3.28.91,3.28,3.58v9.95H1087v-9c0-1.77-.46-2.38-1.83-2.38-1.08,0-2.11.81-2.11,2.57v8.85h-2.65Z" fill="#3b4351"/><path d="M1092.28,26.47h2.65v2.64h-2.65Zm0,4.51h2.65V44.16h-2.65Z" fill="#3b4351"/><path d="M1106.25,41.41c0,.49.29.94.68.94a1,1,0,0,0,.44-.08V44a2.83,2.83,0,0,1-1.3.32c-1.17,0-2.15-.47-2.23-1.74h0a3.42,3.42,0,0,1-3.29,1.93c-2.13,0-3.43-1.15-3.43-3.7,0-2.94,1.3-3.55,3.06-4.14l2.06-.56c1-.27,1.55-.54,1.55-1.69s-.42-2-1.82-2c-1.76,0-2,1.25-2,2.52h-2.5c0-2.82,1.15-4.34,4.64-4.34,2.32,0,4.19.91,4.19,3.24Zm-2.5-4.21a20.94,20.94,0,0,1-2.94,1.22,2.18,2.18,0,0,0-1.08,2.14c0,1.1.54,2,1.64,2,1.59,0,2.38-1.17,2.38-3.13Z" fill="#3b4351"/><path d="M1108.94,31h2.5v1.54h.07a3.77,3.77,0,0,1,3.38-1.89c2,0,3.29.91,3.29,3.58v9.95h-2.65v-9c0-1.77-.47-2.38-1.84-2.38-1.08,0-2.11.81-2.11,2.57v8.85h-2.64Z" fill="#3b4351"/><path d="M1126.41,34.82v-.34c0-1-.37-2-1.74-2-1.06,0-1.89.46-1.89,1.71,0,1.05.47,1.45,1.86,1.94l1.69.59c2,.66,2.87,1.71,2.87,3.79,0,2.82-2.08,4-4.73,4-3.33,0-4.34-1.54-4.34-4.09v-.49h2.36v.42c0,1.54.51,2.35,2.06,2.35s2.15-.74,2.15-1.94a1.91,1.91,0,0,0-1.44-1.93l-2.16-.76c-2-.66-2.82-1.69-2.82-3.8,0-2.48,1.77-3.63,4.51-3.63,3.36,0,4.12,2,4.12,3.6v.59Z" fill="#3b4351"/></g></g></svg>