<svg id="Text" xmlns="http://www.w3.org/2000/svg" viewBox="0 0 1847.91 113"><title>bc1000text</title><g id="Hebrews"><path d="M541.1,80.25h2.8v7H549v-7h2.8V97.74H549V89.61H543.9v8.13h-2.8Z"/><path d="M554.73,80.25h9.45V82.6h-6.66v4.85h6.27V89.8h-6.27v5.59h6.86v2.35h-9.65Z"/><path d="M566.51,80.25h5.66c2.62,0,4.71,1.17,4.71,4.24,0,2.1-.86,3.43-2.58,4v.05c1.91.34,3.14,1.49,3.14,4.46s-2.11,4.77-5.39,4.77h-5.54Zm5,7.37a2.45,2.45,0,0,0,2.57-2.77c0-2.08-1.25-2.5-2.82-2.5h-2v5.27Zm.56,8c1.67,0,2.58-1.06,2.58-3.09a2.66,2.66,0,0,0-2.75-3h-2.6v6.06Z"/><path d="M579.67,80.25h6.17c2.45,0,4.44,1.25,4.44,4.51,0,2.25-1,4-2.92,4.28v0c1.77.18,2.65,1.13,2.75,3.58,0,1.15,0,2.5.09,3.56a1.92,1.92,0,0,0,.84,1.51h-3.16a2.86,2.86,0,0,1-.47-1.54c0-.51-.07-1-.07-1.57s0-1.1-.05-1.74c-.08-1.91-.66-2.74-2.55-2.74h-2.28v7.59h-2.79Zm5,7.79a2.58,2.58,0,0,0,2.79-2.84c0-1.87-.78-2.85-2.64-2.85h-2.38V88Z"/><path d="M592.82,80.25h9.46V82.6h-6.66v4.85h6.27V89.8h-6.27v5.59h6.86v2.35h-9.66Z"/><path d="M603.31,80.25h2.82l2.3,13.6h.05l2.3-13.6h2.94l2.36,13.67h0l2.28-13.67h2.77l-3.48,17.49h-3.23L612.2,84.56h-.05l-2.23,13.18h-3.23Z"/><path d="M624.92,92.33v.44c0,2.13,1,3.21,2.87,3.21a2.51,2.51,0,0,0,2.64-2.55c0-1.84-.93-2.64-2.5-3.11L626,89.66c-2.55-1-3.65-2.31-3.65-4.81,0-3.18,2.18-4.95,5.44-4.95,4.48,0,5,2.8,5,4.61v.39H630v-.36c0-1.6-.69-2.53-2.45-2.53a2.24,2.24,0,0,0-2.36,2.53c0,1.49.76,2.25,2.63,3l1.88.69c2.48.88,3.56,2.2,3.56,4.63,0,3.72-2.26,5.27-5.79,5.27-4.34,0-5.32-2.89-5.32-5.34v-.42Z"/></g></svg>