<svg xmlns="http://www.w3.org/2000/svg" viewBox="0 0 1847.91 113"><title>bc1000text</title><g id="YEARS"><g id="Right"><path d="M1784,63.91h6c2.78,0,5,1.25,5,4.5q0,3.36-2.72,4.21v0c2,.37,3.32,1.59,3.32,4.74s-2.23,5.07-5.72,5.07H1784Zm5.3,7.83c1.8,0,2.73-1.17,2.73-2.94,0-2.21-1.33-2.65-3-2.65H1787v5.59Zm.6,8.5c1.77,0,2.73-1.12,2.73-3.28a2.81,2.81,0,0,0-2.91-3.14H1787v6.42Z" fill="#3b4351"/><path d="M1797.31,79h3v3.44h-3Z" fill="#3b4351"/><path d="M1835.34,75.82v.39c0,3.36-1.37,6.63-5.72,6.63-4.68,0-6.13-3-6.13-9.64s1.45-9.65,6.16-9.65c5.28,0,5.59,3.87,5.59,5.82v.34h-3V69.4c0-1.74-.52-3.69-2.66-3.61s-3.17,1.35-3.17,7.33,1,7.49,3.17,7.49c2.5,0,2.76-2.74,2.76-4.48v-.31Z" fill="#3b4351"/><path d="M1837.06,79h3v3.44h-3Z" fill="#3b4351"/><path d="M1792.5,107.48V94.11h-3.82V92.19h.28c1.77,0,3.8-.44,4.35-2.76v-.36h2.15v18.41Z" fill="#3b4351"/><path d="M1805.84,89.07c3.53,0,5.51,2.21,5.51,9.39s-2,9.38-5.51,9.38-5.52-2.21-5.52-9.38S1802.3,89.07,1805.84,89.07Zm0,16.69c2,0,2.54-2,2.54-7.3s-.54-7.31-2.54-7.31-2.55,2-2.55,7.31S1803.83,105.76,1805.84,105.76Z" fill="#3b4351"/><path d="M1818.32,89.07c3.53,0,5.51,2.21,5.51,9.39s-2,9.38-5.51,9.38-5.52-2.21-5.52-9.38S1814.78,89.07,1818.32,89.07Zm0,16.69c2,0,2.54-2,2.54-7.3s-.54-7.31-2.54-7.31-2.55,2-2.55,7.31S1816.31,105.76,1818.32,105.76Z" fill="#3b4351"/><path d="M1830.8,89.07c3.53,0,5.51,2.21,5.51,9.39s-2,9.38-5.51,9.38-5.52-2.21-5.52-9.38S1827.26,89.07,1830.8,89.07Zm0,16.69c2,0,2.54-2,2.54-7.3s-.54-7.31-2.54-7.31-2.55,2-2.55,7.31S1828.79,105.76,1830.8,105.76Z" fill="#3b4351"/></g><g id="left"><path d="M9,65.82h6c2.78,0,5,1.25,5,4.5,0,2.23-.91,3.64-2.73,4.21v0c2,.37,3.33,1.59,3.33,4.73s-2.24,5.07-5.72,5.07H9Zm5.31,7.83c1.79,0,2.73-1.17,2.73-2.94,0-2.21-1.33-2.65-3-2.65H12v5.59Zm.59,8.5c1.77,0,2.73-1.12,2.73-3.28a2.81,2.81,0,0,0-2.91-3.14H12v6.42Z" fill="#3b4351"/><path d="M22.28,81h3v3.43h-3Z" fill="#3b4351"/><path d="M60.31,77.73v.39c0,3.35-1.38,6.63-5.72,6.63-4.68,0-6.14-3-6.14-9.65s1.46-9.64,6.16-9.64c5.28,0,5.59,3.87,5.59,5.82v.34h-3v-.31c0-1.75-.52-3.7-2.65-3.62S51.42,69,51.42,75s1,7.49,3.17,7.49c2.49,0,2.75-2.73,2.75-4.47v-.31Z" fill="#3b4351"/><path d="M62,81h3v3.43H62Z" fill="#3b4351"/><path d="M17.46,109.38V96H13.64V94.1h.29c1.77,0,3.79-.45,4.34-2.76V91h2.16v18.4Z" fill="#3b4351"/><path d="M30.8,91c3.54,0,5.51,2.21,5.51,9.38s-2,9.39-5.51,9.39-5.51-2.21-5.51-9.39S27.27,91,30.8,91Zm0,16.69c2,0,2.55-2,2.55-7.31s-.55-7.3-2.55-7.3-2.55,2-2.55,7.3S28.8,107.67,30.8,107.67Z" fill="#3b4351"/><path d="M43.28,91c3.54,0,5.51,2.21,5.51,9.38s-2,9.39-5.51,9.39-5.51-2.21-5.51-9.39S39.75,91,43.28,91Zm0,16.69c2,0,2.55-2,2.55-7.31s-.55-7.3-2.55-7.3-2.55,2-2.55,7.3S41.28,107.67,43.28,107.67Z" fill="#3b4351"/><path d="M55.76,91c3.54,0,5.51,2.21,5.51,9.38s-2,9.39-5.51,9.39-5.51-2.21-5.51-9.39S52.22,91,55.76,91Zm0,16.69c2,0,2.55-2,2.55-7.31s-.55-7.3-2.55-7.3-2.55,2-2.55,7.3S53.76,107.67,55.76,107.67Z" fill="#3b4351"/></g></g><g id="Nation_OUtlines" data-name="Nation OUtlines"><polygon id="Iranians" points="1263.29 227.17 1235.95 113 1211.95 -1.5 1241.29 -111.5 1280.62 -224 1217.95 -338.83 1163.29 -448.16 1140.62 -561.5 1175.95 -672 1153.29 -786.83 1137.95 -900.16 1188.62 -1011.5 1153.95 -1124.16 1161.95 -1237 1156.67 -1352.27 1152.84 -1469.5 1131.29 -1576 1198.62 -1686.5 1275.29 -1798.5 1277.29 -1912.16 1268.62 -2021.83 1283.88 -2133.83 1411.11 -2133.83 1445.69 -2022.27 1480.18 -1911.6 1462.18 -1798.5 1438.19 -1686.5 1387.19 -1576 1387.19 -1464 1420.19 -1349.07 1429.19 -1237 1400.69 -1124.08 1417.19 -1011 1343.69 -900 1325.69 -786 1345.19 -672 1313.69 -560 1298.69 -448 1310.69 -338 1348.19 -224 1313.69 -111 1285.19 0 1294.19 113 1372.19 227.17 1373.74 335.73 1375.34 447.73 1376.98 563 1335.62 673 1348.62 785 1391.1 897 1462.62 1008 1440.62 1120.73 1447.62 1237 1472.62 1349 1505.62 1460.73 1513.62 1570.73 1437.62 1682.73 1391.82 1797.73 1219.62 1683 1086.62 1571 890.71 1460.73 788.62 1349 767.62 1237 866.62 1121 1041.62 1007.73 1176.62 896.73 1205.62 784.73 1242.62 672.73 1294.62 563 1322.62 450.17 1240.62 336 1263.29 227.17" fill="none" stroke="#3b4351" stroke-miterlimit="10"/><polygon id="Indians" points="1372.19 227.17 1294.19 113 1285.19 0 1313.69 -111 1348.19 -224 1310.69 -338 1298.69 -448 1313.69 -560 1345.19 -672 1325.69 -786 1343.69 -900 1417.19 -1011 1400.69 -1124.08 1429.19 -1237 1419.27 -1352.27 1387.19 -1464 1387.19 -1576 1438.19 -1686.5 1462.18 -1798.5 1480.18 -1911.54 1445.82 -2021.83 1411.11 -2133.83 1545.86 -2133.83 1580.1 -2021.83 1593.12 -1911.6 1552.12 -1798.5 1514.62 -1686.5 1514.12 -1576.33 1553.12 -1464.27 1548.12 -1352 1519.62 -1237 1534.12 -1123.33 1575.12 -1011 1559.62 -900 1564.12 -786.27 1534.62 -672 1486.12 -560 1465.12 -448 1471.12 -338.83 1502.12 -224.83 1508.12 -111 1534.62 0 1542.77 78.86 1555.62 227.17 1554.62 336 1567.12 448 1542.12 562.73 1498.12 673 1490.62 785 1513.12 897 1568.62 1008 1544.12 1121 1530.62 1236.73 1523.62 1348.73 1532.62 1461 1565.12 1571 1543.62 1683 1514.12 1798 1490.12 1907.73 1495.62 2022 1517.12 2135.67 1528.12 2241 1580.62 2353.67 1578.12 2469.67 1578.12 2580.17 1560.12 2691.73 1526.62 2807 1467.62 2921 1381.62 3032.73 1270.62 3143 1090.12 3255.73 860.62 3364 1302.12 3479 1377.03 3591 1550.62 3704 1519.62 3813.83 1476.12 3926.83 1516.13 4040.83 1534.62 4153.17 1552.65 4263.83 1585.62 4377.73 1620.12 4492.83 1650.12 4603.83 1630.62 4711.73 1622.45 4828.73 1565.62 4939.83 1402.62 5053.17 1173.62 5165.83 1148.62 5276.83 1334.62 5391.83 1283.62 5505.83 1344.62 5614.83 1544.62 5727.83 1602.62 5842.17 1627.62 5953.83 1674.62 6066.73 1627.62 6181.83 1634.62 6293.83 1686.62 6405.83 1701.62 6518.83 1620.12 6630.83 1606.12 6741.83 1606.12 6855.66 1552.62 6855.66 1549.52 6741.83 1569.62 6630.83 1683.62 6518.83 1667.62 6405.83 1607.62 6293.83 1596.62 6181.17 1617.62 6066.83 1584.62 5953.83 1562.62 5841.83 1507.62 5727.83 1304.62 5614.73 1225.62 5505.73 1236.97 5468.78 1264.87 5391.83 1082.62 5276.83 1084.2 5166.34 1323.62 5053.83 1500.47 4939.73 1573.62 4828.83 1600.62 4711.83 1604.62 4603.83 1569.62 4492.83 1514.62 4377.83 1447.62 4263.73 1418.62 4151.83 1404.62 4040.83 1367.62 3926.83 1397.62 3813.83 1418.62 3703.73 1339.62 3590.73 1246.62 3479 748.62 3364 753.62 3256 910.76 3143 1053.62 3033 1195.2 2921 1311.62 2806.17 1353.62 2692 1348.62 2581 1364.62 2469.17 1406.62 2354 1401.62 2241 1429.62 2136 1394.62 2021.73 1393.2 1908 1391.82 1797.73 1437.52 1683 1513.62 1570.73 1505.64 1461 1472.62 1349.17 1447.62 1237 1440.63 1121 1462.62 1008 1391.1 897 1348.62 785 1332.62 673 1376.98 563 1375.34 447.73 1373.74 335.73 1372.19 227.17" fill="none" stroke="#3b4351" stroke-miterlimit="10"/><polygon id="Huns" points="1555.62 227.17 1545.73 113 1533.62 -0.33 1506.68 -110.36 1502.16 -224 1471.34 -338 1465.12 -448 1486.12 -560 1534.62 -672 1564.05 -786 1559.62 -900 1575.12 -1011 1534.24 -1123 1519.62 -1237 1548.12 -1352 1553.11 -1464 1514.47 -1576.27 1514.62 -1688.5 1552.12 -1798.5 1593.12 -1911.16 1580.1 -2021.83 1545.86 -2133.83 1633.99 -2133.83 1651.62 -2021.83 1667.62 -1911.16 1646.62 -1798.5 1620.62 -1686.5 1630.4 -1578.4 1650.62 -1464.33 1676.62 -1352 1700.12 -1237 1689.12 -1123 1714.62 -1011.33 1697.12 -900.27 1645.62 -786.27 1616.12 -672 1586.62 -560.27 1538.12 -448.27 1509.12 -338 1551.62 -224 1585.12 -111 1608.62 -0.33 1609.69 112.73 1610.76 225.73 1613.62 335.73 1625.12 447.73 1599.12 563.67 1557.59 673 1545.65 785 1558.62 897 1584.62 1007.73 1571.12 1121.17 1576.62 1237 1567.62 1349 1587.12 1461 1621.12 1571 1612.12 1683 1556.12 1798 1528.62 1908 1529.62 2022 1553.62 2136 1616.07 2241 1609.25 2354 1592.66 2470 1611.01 2580.73 1612.12 2692 1598.04 2807 1564.12 2921 1534.29 3033 1602.12 3142.73 1653.62 3256 1673.62 3364 1666.12 3479 1668.12 3590.67 1625.62 3703.67 1542.12 3813.83 1476.12 3926.83 1519.62 3813.83 1550.62 3704 1376.62 3590.73 1302.12 3479 860.62 3364 1090.12 3255.73 1270.62 3143 1381.62 3032.73 1467.62 2921 1526.62 2807 1560.12 2691.73 1578.12 2580.17 1578.12 2469.67 1580.62 2353.67 1528.12 2241 1517.12 2135.67 1495.62 2022 1490.12 1907.73 1514.12 1798 1543.62 1683 1565.12 1571 1532.62 1461 1523.62 1348.73 1530.62 1236.73 1544.12 1121 1568.62 1008 1513.12 897 1490.62 785 1498.12 673 1542.12 562.73 1567.12 448 1554.62 336 1555.62 227.17" fill="none" stroke="#3b4351" stroke-miterlimit="10"/><polygon id="Hitites" points="347.74 225.73 337.24 113 361.62 0 400.62 -111 439.62 -224 658.62 -338 742.62 -448 835.62 -560 785.62 -672 750.62 -786 770.62 -900 800.62 -1011.83 733.62 -1123.27 656.62 -1237.08 662.62 -1352 633.62 -1464 663.62 -1576 786.62 -1686.5 940.62 -1798.5 982.62 -1911.16 1042.62 -2021.83 1103.77 -2133.83 1152.07 -2133.83 1091.29 -2021.83 1025.29 -1911.16 1027.29 -1798.5 910.76 -1686.5 823.95 -1576 785.95 -1464 826.62 -1352 853.28 -1237 910.76 -1123.27 992.62 -1011 961.95 -900.83 971.95 -786.16 969.28 -672 975.28 -560.16 954.62 -450.16 857.28 -338 623.95 -224 566.62 -111 481.23 0 394.24 113 347.74 225.73" fill="none" stroke="#3b4351" stroke-miterlimit="10"/><polygon id="Greeks" points="1131.14 2241 1118.7 2136 998.71 2022 683.72 1908 467.73 1798 287.74 1683 231.95 1571 205.28 1461 169.95 1349 149.95 1237 137.95 1121 116.62 1008 111.95 897 95.28 785 85.95 673 75.42 563 75.42 389.67 75.42 -900 142.25 -786 145.25 -672 155.75 -560 172.25 -448 202.25 -338 223.25 -224 251.62 -111 250.62 0 221.95 113.84 228.6 225.73 199.95 335.84 217.95 447.84 237.43 563 262.62 673 259.95 785 319.29 897 349.95 1008 401.29 1121 527.28 1237 645.95 1349 761.95 1461 965.29 1571 965.95 1683 897.95 1797.17 910.76 1907.73 1099.37 2022 1168.66 2136.09 1131.14 2241" fill="none" stroke="#3b4351" stroke-miterlimit="10"/><polygon id="Egyptians" points="1195.2 2351.31 1131.14 2241 1168.66 2136.09 1099.2 2021.73 910.76 1907.73 897.95 1797.17 965.95 1683 965.28 1570.5 761.95 1461 645.95 1349 527.28 1237 401.29 1121 349.95 1008 319.29 897 259.95 785 262.62 673 238.62 563 217.95 448 199.95 336 228.62 226 221.62 113 250.62 0 251.62 -111 223.25 -224 271.57 -338 265.25 -448 305.74 -560 341.74 -672 376.24 -786 440.74 -900 467.73 -1010.09 443.74 -1123 381.96 -1237 242.75 -1352 298.62 -1464 424.24 -1576 460.24 -1686.5 397.24 -1798.5 319.24 -1911.16 319.24 -2021.83 298.62 -2133.83 1103.77 -2133.83 1042.62 -2021.83 982.62 -1911.16 940.62 -1798.5 786.62 -1686.5 663.62 -1576 633.62 -1464 662.62 -1352 656.62 -1237.08 733.62 -1123.27 800.62 -1011.83 770.62 -900 750.62 -786 785.62 -672 835.62 -560 742.62 -448 658.62 -338 439.62 -224 400.62 -111 361.62 0 302.62 113 310.62 226 282.62 336 271.95 448 305.95 673 323.95 784.5 432.62 897 476.62 1007.17 451.95 1121 555.95 1237 667.28 1349 813.28 1461 968.62 1571 995.95 1683 968.62 1797.84 940.62 1906.5 1130.91 2021.73 1189.62 2136.67 1157.7 2241 1195.2 2351.31" fill="none" stroke="#3b4351" stroke-miterlimit="10"/><polygon id="Chinese" points="1610.76 225.73 1609.69 112.73 1608.62 -0.33 1585.12 -111 1551.62 -224 1509.12 -338 1538.12 -448.27 1586.62 -560.27 1616.12 -672 1645.62 -786.27 1697.12 -900.27 1714.62 -1011.33 1689.12 -1123 1700.12 -1237 1676.62 -1352 1650.62 -1464.33 1630.62 -1576 1620.62 -1686.5 1646.62 -1798.5 1667.62 -1911.16 1651.62 -2021.83 1633.99 -2133.83 1768.79 -2133.83 1768.79 6066.83 1768.79 6181.73 1766.12 6293.83 1757.62 6405.83 1736.12 6518.73 1676.12 6630.73 1661.12 6741.83 1663.62 6855.66 1606.12 6855.66 1606.12 6741.73 1620.12 6630.83 1701.62 6518.83 1696.12 6405.67 1654.12 6293.83 1681.62 6181.83 1739.62 6066.73 1748.62 5953.67 1744.12 5841.67 1685.62 5727.83 1615.12 5617.17 1636.12 5505.83 1738.62 5391.83 1761.12 5276.83 1758.62 5165.83 1732.12 5053.83 1695.62 4939.83 1667.62 4828.83 1651.12 4711.83 1650.12 4603.83 1620.12 4492.83 1585.62 4377.73 1552.62 4263.73 1535.12 4151.83 1516.12 4040.73 1476.12 3926.83 1542.12 3813.83 1625.62 3703.67 1668.12 3590.67 1666.12 3479 1673.62 3364 1653.62 3256 1602.12 3142.73 1534.12 3032.73 1564.12 2921 1598.12 2806.73 1612.12 2692 1611.01 2580.73 1592.62 2469.73 1609.25 2354 1616.07 2241 1553.62 2136 1529.62 2022 1528.62 1907.73 1555.62 1798 1612.12 1683 1621.12 1571 1587.12 1461 1567.62 1349 1576.62 1237 1571.12 1121 1584.62 1007.73 1558.62 897 1545.62 784.73 1557.62 672.73 1599.62 563 1625.12 447.73 1613.62 335.73 1610.76 225.73" fill="none" stroke="#3b4351" stroke-miterlimit="10"/><polygon id="Amorites" points="1263.29 227.17 1240.62 336 1322.62 448 1294.62 563 1242.62 672.73 1205.62 784.73 1176.62 896.73 1041.62 1007.73 866.62 1121 767.62 1237 788.62 1349 890.71 1460.73 762.62 1348.73 716.62 1236.73 709.62 1121 755.62 1008 1054.29 896.73 1156.62 785 1173.62 671.17 1199.62 561.17 1138.62 448 910.76 336 832.62 225.73 949.95 113 1040.62 -0.27 1141.31 -111 1225.29 -224.16 1147.62 -338 1085.29 -448 1061.29 -560.27 1028.62 -672.27 971.95 -786.16 961.95 -900.83 992.62 -1011 910.76 -1123.27 853.28 -1237 826.62 -1352 785.95 -1464 823.95 -1576 910.76 -1686.5 1027.29 -1798.5 1025.29 -1911.16 1091.29 -2021.83 1152.07 -2133.83 1283.88 -2133.83 1268.62 -2021.83 1277.29 -1912.16 1275.29 -1798.5 1198.62 -1686.5 1131.29 -1576 1153.95 -1464 1156.67 -1352.27 1161.95 -1237 1153.95 -1124.16 1188.62 -1011.5 1137.95 -900.16 1153.29 -786.83 1175.95 -672 1140.62 -561.5 1163.29 -448.16 1217.95 -338.83 1280.62 -224 1241.29 -111.5 1211.95 -1.5 1235.95 113 1263.29 227.17" fill="none" stroke="#3b4351" stroke-miterlimit="10"/><polygon id="Assyrian_Kingdom" data-name="Assyrian Kingdom" points="631.95 225.73 635.28 113 679.9 0 701.28 -111 799.28 -224 980.62 -338 1007.95 -448 1020.62 -560 998.62 -672 971.95 -786.16 1028.62 -672.27 1061.29 -560.27 1085.29 -448 1147.62 -338 1225.29 -224.16 1141.31 -111 1040.62 -0.27 949.95 113 832.62 225.73 910.76 336 1138.62 448 1199.62 561.17 1173.62 671.17 1156.62 785 1054.29 896.73 755.62 1008 709.62 1121 716.62 1236.73 658.28 1121 654.62 1008 630.95 897 510.62 785 518.62 673 595.95 563 638.62 448 643.28 336 631.95 225.73" fill="none" stroke="#3b4351" stroke-miterlimit="10"/><polygon id="OPians" points="305.95 673 289.61 564.83 271.95 448 282.62 336 310.62 226 302.62 113 361.62 0 337.24 113 347.74 225.73 359.29 448 383.29 563 387.95 673 375.82 785 465.29 897 476.62 1007.17 432.62 897 323.95 784.5 305.95 673" fill="none" stroke="#3b4351" stroke-miterlimit="10"/><polygon id="Hebrews" points="635.28 113 631.95 225.73 643.28 336 638.62 448 595.95 563 518.62 673 510.62 785 630.95 897 654.62 1008 658.28 1121 716.62 1236.73 647.18 1121 644.62 1008 617.95 897 493.29 785 500.03 673 570.62 563 613.28 449 583.28 336 569.28 226 511.95 113 573.95 0 630.62 -111 697.58 -224 921.28 -338 989.95 -448 1020.62 -560 1007.95 -448 980.62 -338 799.28 -224 701.28 -111 679.9 0 635.28 113" fill="none" stroke="#3b4351" stroke-miterlimit="10"/><polygon id="Syrians" points="500.03 673 493.29 785 439.95 673 428.62 563 479.29 448 509.95 336 538.62 226 511.95 113 569.28 226 583.28 336 613.28 449 570.62 563 500.03 673" fill="none" stroke="#3b4351" stroke-miterlimit="10"/><polygon points="1130.91 2021.73 940.62 1906.5 968.62 1797.84 995.95 1683 968.62 1571 813.28 1461 667.28 1349 624.62 1237 611.95 1121 608.62 1008 523.28 897 375.82 785 387.95 673 383.29 563 359.29 448 340.62 337.16 347.74 225.73 394.24 113 481.23 0 566.62 -111 623.95 -224 857.28 -338 954.62 -450.16 975.28 -560.16 969.28 -672 971.95 -786.16 998.62 -672 1020.62 -560 989.95 -448 921.28 -338 697.58 -224 630.62 -111 573.95 0 511.95 113 538.62 226 509.95 336 479.29 448 428.62 563 439.95 673 493.29 785 617.95 897 644.62 1008 647.18 1121 716.62 1236.73 762.62 1348.73 890.71 1460.73 1086.62 1571 1219.62 1683 1225.12 1798 1186.62 1908 1130.91 2021.73" fill="none" stroke="#3b4351" stroke-miterlimit="10"/></g><g id="Text"><g id="Hittites"><g id="small"><path d="M379.25,16.66h5.4V18h-3.81v2.77h3.59v1.35h-3.59v3.19h3.92v1.35h-5.51Z" fill="#3b4351"/><path d="M385.88,19.13h1.43V20h0a2.17,2.17,0,0,1,1.94-1.08c1.14,0,1.87.52,1.87,2.05v5.69h-1.51V21.5c0-1-.27-1.36-1-1.36-.62,0-1.21.46-1.21,1.47v5.06h-1.51Z" fill="#3b4351"/><path d="M396.47,25.74h0a1.61,1.61,0,0,1-1.65,1.12c-1.75,0-2.47-1.48-2.47-4.06,0-3.35,1.18-3.87,2.33-3.87a1.73,1.73,0,0,1,1.7,1.08h0V16.66h1.52v10h-1.43Zm-1.38-5.6c-.85,0-1.17.7-1.17,2.73,0,1.71.21,2.79,1.27,2.79s1.28-1.05,1.28-2.68C396.47,21.17,396.27,20.14,395.09,20.14Z" fill="#3b4351"/><path d="M402.41,22.9c0-2.36.62-4,2.81-4s2.81,1.61,2.81,4-.73,4-2.81,4S402.41,25.25,402.41,22.9Zm2.81,2.84c1.1,0,1.3-.92,1.3-2.84,0-1.67-.2-2.85-1.3-2.85s-1.29,1.18-1.29,2.85C403.93,24.82,404.14,25.74,405.22,25.74Z" fill="#3b4351"/><path d="M409.65,20.25h-1V19.13h1v-.7c0-1.42.69-1.88,1.92-1.88.32,0,.6,0,.83,0v1.17H412c-.56,0-.81.21-.81.71v.66h1.23v1.12h-1.23v6.42h-1.52Z" fill="#3b4351"/><path d="M374,42.66h1.6v4h2.94v-4h1.6v10h-1.6V48h-2.94v4.65H374Z" fill="#3b4351"/><path d="M381.71,42.55h1.51v1.52h-1.51Zm0,2.58h1.51v7.54h-1.51Z" fill="#3b4351"/><path d="M384.07,45.13h1V43h1.51v2.14h1.24v1.12h-1.24v4.5c0,.6.17.8.69.8a2.72,2.72,0,0,0,.55,0v1.12a4.69,4.69,0,0,1-1.22.13c-1,0-1.53-.29-1.53-1.82V46.25h-1Z" fill="#3b4351"/><path d="M388,45.13h1V43h1.52v2.14h1.23v1.12h-1.23v4.5c0,.6.16.8.68.8a2.64,2.64,0,0,0,.55,0v1.12a4.64,4.64,0,0,1-1.22.13c-1,0-1.53-.29-1.53-1.82V46.25h-1Z" fill="#3b4351"/><path d="M392.6,42.55h1.51v1.52H392.6Zm0,2.58h1.51v7.54H392.6Z" fill="#3b4351"/><path d="M395,45.13h1V43h1.52v2.14h1.23v1.12h-1.23v4.5c0,.6.16.8.68.8a2.64,2.64,0,0,0,.55,0v1.12a4.64,4.64,0,0,1-1.22.13c-1,0-1.53-.29-1.53-1.82V46.25h-1Z" fill="#3b4351"/><path d="M400.83,49.09v.44c0,1,.13,2.3,1.26,2.3s1.21-1.22,1.21-1.69h1.43a2.48,2.48,0,0,1-2.65,2.72c-1.23,0-2.76-.36-2.76-3.85,0-2,.43-4.08,2.79-4.08,2.1,0,2.66,1.28,2.66,3.37v.79Zm2.43-1v-.41c0-.95-.31-1.68-1.17-1.68s-1.26,1-1.26,1.93v.16Z" fill="#3b4351"/><path d="M363.56,68.66H369V70h-3.81v2.77h3.59v1.35h-3.59v3.19h3.93v1.35h-5.52Z" fill="#3b4351"/><path d="M370.26,71.13h1.43V72h0a2.13,2.13,0,0,1,1.81-1.08,1.63,1.63,0,0,1,1.75,1.15,2.07,2.07,0,0,1,1.91-1.15c1.06,0,1.83.55,1.83,2v5.73h-1.51V73.5c0-1-.3-1.36-.91-1.36s-1.21.47-1.21,1.47v5.06h-1.51V73.5c0-1-.29-1.36-.92-1.36s-1.2.49-1.2,1.47v5.06h-1.51Z" fill="#3b4351"/><path d="M383.8,78.86a1.72,1.72,0,0,1-1.71-1.08h0v3.35h-1.51v-10H382v.92h0a1.78,1.78,0,0,1,1.69-1.12c1.73,0,2.43,1.47,2.43,4.07C386.13,78.16,384.85,78.86,383.8,78.86Zm-.54-6.72c-1,0-1.28,1-1.28,2.67,0,1.81.22,2.85,1.29,2.85.85,0,1.26-.65,1.26-2.73C384.53,73.22,384.32,72.14,383.26,72.14Z" fill="#3b4351"/><path d="M387.36,68.55h1.51v1.52h-1.51Zm0,2.58h1.51v7.54h-1.51Z" fill="#3b4351"/><path d="M390.39,71.13h1.52v1.18h0a1.88,1.88,0,0,1,1.76-1.38.87.87,0,0,1,.36.06v1.54a2.18,2.18,0,0,0-.63-.08c-.69,0-1.51.3-1.51,1.71v4.51h-1.52Z" fill="#3b4351"/><path d="M396,75.09v.44c0,1,.13,2.3,1.26,2.3s1.21-1.22,1.21-1.69h1.43a2.48,2.48,0,0,1-2.65,2.72c-1.23,0-2.76-.36-2.76-3.85,0-2,.43-4.08,2.79-4.08,2.1,0,2.66,1.28,2.66,3.37v.79Zm2.43-1v-.41c0-1-.31-1.68-1.17-1.68s-1.26,1-1.26,1.93v.16Z" fill="#3b4351"/><path d="M400.84,76.82h1.59v1.85h-1.59Z" fill="#3b4351"/></g></g><g id="Hebrews-2" data-name="Hebrews"><path d="M541.1,80.25h2.8v7H549v-7h2.8V97.74H549V89.61H543.9v8.13h-2.8Z" fill="#3b4351"/><path d="M554.73,80.25h9.45V82.6h-6.66v4.85h6.27V89.8h-6.27v5.59h6.86v2.35h-9.65Z" fill="#3b4351"/><path d="M566.51,80.25h5.66c2.62,0,4.71,1.17,4.71,4.24,0,2.1-.86,3.43-2.58,4v.05c1.91.34,3.14,1.49,3.14,4.46s-2.11,4.77-5.39,4.77h-5.54Zm5,7.37a2.45,2.45,0,0,0,2.57-2.77c0-2.08-1.25-2.5-2.82-2.5h-2v5.27Zm.56,8c1.67,0,2.58-1.06,2.58-3.09a2.66,2.66,0,0,0-2.75-3h-2.6v6.06Z" fill="#3b4351"/><path d="M579.67,80.25h6.17c2.45,0,4.44,1.25,4.44,4.51,0,2.25-1,4-2.92,4.28v0c1.77.18,2.65,1.13,2.75,3.58,0,1.15,0,2.5.09,3.56a1.92,1.92,0,0,0,.84,1.51h-3.16a2.86,2.86,0,0,1-.47-1.54c0-.51-.07-1-.07-1.57s0-1.1-.05-1.74c-.08-1.91-.66-2.74-2.55-2.74h-2.28v7.59h-2.79Zm5,7.79a2.58,2.58,0,0,0,2.79-2.84c0-1.87-.78-2.85-2.64-2.85h-2.38V88Z" fill="#3b4351"/><path d="M592.82,80.25h9.46V82.6h-6.66v4.85h6.27V89.8h-6.27v5.59h6.86v2.35h-9.66Z" fill="#3b4351"/><path d="M603.31,80.25h2.82l2.3,13.6h.05l2.3-13.6h2.94l2.36,13.67h0l2.28-13.67h2.77l-3.48,17.49h-3.23L612.2,84.56h-.05l-2.23,13.18h-3.23Z" fill="#3b4351"/><path d="M624.92,92.33v.44c0,2.13,1,3.21,2.87,3.21a2.51,2.51,0,0,0,2.64-2.55c0-1.84-.93-2.64-2.5-3.11L626,89.66c-2.55-1-3.65-2.31-3.65-4.81,0-3.18,2.18-4.95,5.44-4.95,4.48,0,5,2.8,5,4.61v.39H630v-.36c0-1.6-.69-2.53-2.45-2.53a2.24,2.24,0,0,0-2.36,2.53c0,1.49.76,2.25,2.63,3l1.88.69c2.48.88,3.56,2.2,3.56,4.63,0,3.72-2.26,5.27-5.79,5.27-4.34,0-5.32-2.89-5.32-5.34v-.42Z" fill="#3b4351"/></g><g id="Egytians"><g id="small-2" data-name="small"><path d="M251.43,8.66h3.17c1.91,0,2.75,1.21,2.75,2.92a2.71,2.71,0,0,1-2.92,2.95H253v4.14h-1.6Zm1.6,4.67h1.13a1.5,1.5,0,0,0,1.6-1.72c0-1.08-.44-1.74-1.71-1.74h-1Z" fill="#3b4351"/><path d="M258.33,8.66h1.51v3.28l.05,0a2.14,2.14,0,0,1,1.85-1c1.14,0,1.87.52,1.87,2.05v5.69H262.1V13.5c0-1-.28-1.36-1.05-1.36s-1.21.47-1.21,1.47v5.06h-1.51Z" fill="#3b4351"/><path d="M270,17.1c0,.28.17.53.39.53a.54.54,0,0,0,.25,0v1a1.55,1.55,0,0,1-.74.18c-.67,0-1.23-.27-1.27-1h0a2,2,0,0,1-1.88,1.1c-1.22,0-2-.66-2-2.11a2.08,2.08,0,0,1,1.75-2.37l1.18-.32c.55-.16.88-.31.88-1s-.24-1.12-1-1.12c-1,0-1.14.71-1.14,1.44H265c0-1.61.66-2.48,2.65-2.48,1.33,0,2.39.52,2.39,1.85Zm-1.43-2.41a12.39,12.39,0,0,1-1.68.7,1.25,1.25,0,0,0-.62,1.22c0,.63.31,1.13.94,1.13.91,0,1.36-.67,1.36-1.79Z" fill="#3b4351"/><path d="M271.55,11.13h1.51v1.18h0a1.86,1.86,0,0,1,1.75-1.38.87.87,0,0,1,.36.06v1.54a2.18,2.18,0,0,0-.63-.08c-.68,0-1.51.3-1.51,1.71v4.51h-1.51Z" fill="#3b4351"/><path d="M275.66,14.9c0-2.36.62-4,2.8-4s2.82,1.61,2.82,4-.73,4-2.82,4S275.66,17.25,275.66,14.9Zm2.8,2.84c1.11,0,1.31-.92,1.31-2.84,0-1.67-.2-2.85-1.31-2.85s-1.28,1.18-1.28,2.85C277.18,16.82,277.39,17.74,278.46,17.74Z" fill="#3b4351"/><path d="M287.38,17.1c0,.28.17.53.4.53a.57.57,0,0,0,.25,0v1a1.58,1.58,0,0,1-.74.18c-.68,0-1.24-.27-1.28-1h0a1.94,1.94,0,0,1-1.87,1.1c-1.22,0-2-.66-2-2.11a2.09,2.09,0,0,1,1.76-2.37l1.17-.32c.55-.16.88-.31.88-1s-.23-1.12-1-1.12c-1,0-1.15.71-1.15,1.44h-1.43c0-1.61.66-2.48,2.65-2.48,1.33,0,2.39.52,2.39,1.85ZM286,14.69a11.41,11.41,0,0,1-1.68.7,1.24,1.24,0,0,0-.61,1.22c0,.63.31,1.13.94,1.13.91,0,1.35-.67,1.35-1.79Z" fill="#3b4351"/><path d="M288.92,8.66h1.51v3.28l.05,0a2.14,2.14,0,0,1,1.85-1c1.14,0,1.87.52,1.87,2.05v5.69h-1.51V13.5c0-1-.28-1.36-1.05-1.36-.62,0-1.21.47-1.21,1.47v5.06h-1.51Z" fill="#3b4351"/><path d="M299.08,11.13h1.43V12h.05a2.1,2.1,0,0,1,1.8-1.08,1.63,1.63,0,0,1,1.75,1.15A2.07,2.07,0,0,1,306,10.93c1.06,0,1.83.55,1.83,2v5.73h-1.51V13.5c0-1-.29-1.36-.91-1.36s-1.2.47-1.2,1.47v5.06h-1.52V13.5c0-1-.29-1.36-.92-1.36s-1.19.49-1.19,1.47v5.06h-1.52Z" fill="#3b4351"/><path d="M314.32,17.1c0,.28.17.53.39.53a.54.54,0,0,0,.25,0v1a1.55,1.55,0,0,1-.74.18c-.67,0-1.23-.27-1.27-1h0a2,2,0,0,1-1.88,1.1c-1.22,0-2-.66-2-2.11a2.08,2.08,0,0,1,1.75-2.37l1.18-.32c.54-.16.88-.31.88-1s-.24-1.12-1-1.12c-1,0-1.14.71-1.14,1.44h-1.43c0-1.61.65-2.48,2.64-2.48,1.33,0,2.4.52,2.4,1.85Zm-1.43-2.41a12.39,12.39,0,0,1-1.68.7,1.25,1.25,0,0,0-.62,1.22c0,.63.31,1.13.94,1.13.91,0,1.36-.67,1.36-1.79Z" fill="#3b4351"/><path d="M315.86,11.13h1.51v1.18h0a1.86,1.86,0,0,1,1.75-1.38.87.87,0,0,1,.36.06v1.54a2.18,2.18,0,0,0-.63-.08c-.68,0-1.51.3-1.51,1.71v4.51h-1.51Z" fill="#3b4351"/><path d="M320.27,11.13h1.51v1.18h0a1.86,1.86,0,0,1,1.75-1.38.87.87,0,0,1,.36.06v1.54a2.18,2.18,0,0,0-.63-.08c-.68,0-1.51.3-1.51,1.71v4.51h-1.51Z" fill="#3b4351"/><path d="M324.75,8.55h1.51v1.52h-1.51Zm0,2.58h1.51v7.54h-1.51Z" fill="#3b4351"/><path d="M329.09,15.09v.44c0,1,.12,2.3,1.26,2.3s1.2-1.22,1.2-1.69H333a2.48,2.48,0,0,1-2.65,2.72c-1.23,0-2.76-.36-2.76-3.85,0-2,.44-4.08,2.79-4.08,2.1,0,2.66,1.28,2.66,3.37v.79Zm2.42-1v-.41c0-1-.31-1.68-1.16-1.68s-1.26.95-1.26,1.93v.16Z" fill="#3b4351"/><path d="M338.12,17.74h0a1.61,1.61,0,0,1-1.65,1.12c-1.75,0-2.47-1.48-2.47-4.06,0-3.35,1.18-3.87,2.33-3.87A1.75,1.75,0,0,1,338,12h0V8.66h1.52v10h-1.43Zm-1.37-5.6c-.86,0-1.18.7-1.18,2.73,0,1.71.21,2.79,1.27,2.79s1.28-1.05,1.28-2.68C338.12,13.17,337.92,12.14,336.75,12.14Z" fill="#3b4351"/><path d="M255.77,35.13h1V33h1.51v2.14h1.23v1.12h-1.23v4.5c0,.6.17.8.69.8a2.61,2.61,0,0,0,.54,0v1.12a4.56,4.56,0,0,1-1.21.13c-1,0-1.53-.29-1.53-1.82V36.25h-1Z" fill="#3b4351"/><path d="M260,38.9c0-2.36.62-4,2.8-4s2.82,1.61,2.82,4-.73,4-2.82,4S260,41.25,260,38.9Zm2.8,2.84c1.11,0,1.31-.92,1.31-2.84,0-1.67-.2-2.85-1.31-2.85s-1.28,1.18-1.28,2.85C261.56,40.82,261.77,41.74,262.84,41.74Z" fill="#3b4351"/><path d="M270.28,32.66h1.59V37h0l3-4.36h1.75l-2.89,4.22,3.2,5.79h-1.81l-2.42-4.5-.89,1.26v3.24h-1.59Z" fill="#3b4351"/><path d="M277.51,32.55H279v1.52h-1.52Zm0,2.58H279v7.54h-1.52Z" fill="#3b4351"/><path d="M280.55,35.13H282V36h0A2.18,2.18,0,0,1,284,34.93c1.14,0,1.87.52,1.87,2v5.69h-1.51V37.5c0-1-.27-1.36-1.05-1.36-.62,0-1.2.46-1.2,1.47v5.06h-1.52Z" fill="#3b4351"/><path d="M291.14,41.74h0a1.61,1.61,0,0,1-1.65,1.12c-1.75,0-2.47-1.48-2.47-4.06,0-3.35,1.18-3.87,2.33-3.87A1.75,1.75,0,0,1,291,36h0V32.66h1.52v10h-1.43Zm-1.37-5.6c-.86,0-1.18.7-1.18,2.73,0,1.71.21,2.79,1.27,2.79s1.28-1,1.28-2.68C291.14,37.17,290.94,36.14,289.77,36.14Z" fill="#3b4351"/><path d="M297.48,32.66h2.84c3.14,0,3.53,2.05,3.53,5s-.39,5-3.53,5h-2.84Zm1.6,8.8h1.31c1.32,0,1.86-.87,1.86-3.79s-.47-3.8-1.86-3.8h-1.31Z" fill="#3b4351"/><path d="M310.11,41.1c0,.28.17.53.39.53a.54.54,0,0,0,.25,0v1a1.55,1.55,0,0,1-.74.18c-.67,0-1.23-.27-1.27-1h0a2,2,0,0,1-1.88,1.1c-1.22,0-2-.66-2-2.11a2.08,2.08,0,0,1,1.75-2.37l1.18-.32c.54-.16.88-.31.88-1s-.24-1.12-1-1.12c-1,0-1.14.71-1.14,1.44h-1.43c0-1.61.65-2.48,2.64-2.48,1.33,0,2.4.52,2.4,1.85Zm-1.43-2.41a12.39,12.39,0,0,1-1.68.7,1.23,1.23,0,0,0-.62,1.22c0,.63.31,1.13.94,1.13.91,0,1.36-.67,1.36-1.79Z" fill="#3b4351"/><path d="M310.93,35.13h1.63l1.31,5.94h0l1.19-5.94h1.61l-2,7.54H313Z" fill="#3b4351"/><path d="M317.6,32.55h1.51v1.52H317.6Zm0,2.58h1.51v7.54H317.6Z" fill="#3b4351"/><path d="M324.49,41.74h0a1.61,1.61,0,0,1-1.65,1.12c-1.76,0-2.47-1.48-2.47-4.06,0-3.35,1.18-3.87,2.32-3.87A1.74,1.74,0,0,1,324.37,36h0V32.66h1.51v10h-1.42Zm-1.38-5.6c-.85,0-1.17.7-1.17,2.73,0,1.71.21,2.79,1.27,2.79s1.28-1,1.28-2.68C324.49,37.17,324.29,36.14,323.11,36.14Z" fill="#3b4351"/><path d="M301.91,62.21h5.41v1.34h-3.81v2.77h3.58v1.35h-3.58v3.19h3.92v1.35h-5.52Z" fill="#3b4351"/><path d="M307.87,64.67h1V62.53h1.51v2.14h1.24v1.12h-1.24v4.5c0,.6.17.8.69.8a2.72,2.72,0,0,0,.55,0v1.12a4.69,4.69,0,0,1-1.22.13c-1,0-1.53-.29-1.53-1.82V65.79h-1Z" fill="#3b4351"/><path d="M312.44,62.21H314v3.27l0,0a2.16,2.16,0,0,1,1.85-1c1.15,0,1.88.52,1.88,2v5.69h-1.51V67c0-1-.28-1.36-1-1.36s-1.21.48-1.21,1.47v5.06h-1.51Z" fill="#3b4351"/><path d="M319.24,62.09h1.52v1.52h-1.52Zm0,2.58h1.52v7.54h-1.52Z" fill="#3b4351"/><path d="M322,68.44c0-2.35.61-4,2.8-4s2.81,1.62,2.81,4-.73,4-2.81,4S322,70.79,322,68.44Zm2.8,2.84c1.1,0,1.3-.92,1.3-2.84,0-1.67-.2-2.84-1.3-2.84s-1.29,1.17-1.29,2.84C323.5,70.36,323.71,71.28,324.79,71.28Z" fill="#3b4351"/><path d="M332,72.4a1.72,1.72,0,0,1-1.71-1.08h0v3.35h-1.52v-10h1.43v.93h0a1.77,1.77,0,0,1,1.69-1.13c1.73,0,2.43,1.48,2.43,4.07C334.34,71.7,333.06,72.4,332,72.4Zm-.54-6.72c-1,0-1.28,1-1.28,2.67,0,1.81.23,2.85,1.29,2.85.85,0,1.26-.65,1.26-2.73C332.74,66.76,332.53,65.68,331.47,65.68Z" fill="#3b4351"/><path d="M335.57,62.09h1.51v1.52h-1.51Zm0,2.58h1.51v7.54h-1.51Z" fill="#3b4351"/><path d="M343.55,70.64c0,.28.17.53.39.53a.54.54,0,0,0,.25,0v1a1.55,1.55,0,0,1-.74.18c-.67,0-1.23-.27-1.27-1h0a2,2,0,0,1-1.88,1.1c-1.22,0-2-.66-2-2.11a2.08,2.08,0,0,1,1.75-2.37l1.18-.32c.54-.16.88-.31.88-1s-.24-1.12-1-1.12c-1,0-1.15.72-1.15,1.44h-1.42c0-1.61.65-2.48,2.64-2.48,1.33,0,2.4.52,2.4,1.85Zm-1.43-2.41a12.39,12.39,0,0,1-1.68.7,1.25,1.25,0,0,0-.62,1.22c0,.63.31,1.13.94,1.13.91,0,1.36-.67,1.36-1.79Z" fill="#3b4351"/><path d="M310.45,91.85a1,1,0,0,0,1.09.9,1.25,1.25,0,0,0,1.28-1.42V90.11h0a1.82,1.82,0,0,1-1.71,1c-1.75,0-2.25-1.72-2.25-3.8,0-1.65.25-3.88,2.39-3.88a1.66,1.66,0,0,1,1.65,1.13h0v-.93h1.43v7.17c0,1.84-.78,2.94-2.81,2.94-2.25,0-2.5-1.31-2.5-1.93Zm1.07-1.9c1.17,0,1.3-1.49,1.3-2.68s-.16-2.59-1.21-2.59-1.27,1.12-1.27,2.52S310.4,90,311.52,90Z" fill="#3b4351"/><path d="M320.62,89.64c0,.28.17.53.39.53a.54.54,0,0,0,.25,0v1a1.58,1.58,0,0,1-.74.18c-.67,0-1.23-.27-1.28-1h0a2,2,0,0,1-1.88,1.1c-1.22,0-2-.66-2-2.11a2.08,2.08,0,0,1,1.75-2.37l1.18-.32c.54-.16.88-.31.88-1s-.24-1.12-1-1.12c-1,0-1.15.72-1.15,1.44h-1.43c0-1.61.66-2.48,2.65-2.48,1.33,0,2.4.52,2.4,1.85Zm-1.43-2.41a12.39,12.39,0,0,1-1.68.7,1.23,1.23,0,0,0-.62,1.22c0,.63.31,1.13.94,1.13.91,0,1.36-.67,1.36-1.79Z" fill="#3b4351"/><path d="M322.22,81.09h1.52v1.52h-1.52Zm0,2.58h1.52v7.54h-1.52Z" fill="#3b4351"/><path d="M325.26,83.67h1.43v.88h0a2.18,2.18,0,0,1,1.94-1.08c1.14,0,1.87.52,1.87,2v5.69H329V86c0-1-.27-1.36-1-1.36-.62,0-1.2.46-1.2,1.47v5.06h-1.52Z" fill="#3b4351"/><path d="M335.25,85.87v-.2c0-.6-.21-1.16-1-1.16-.6,0-1.08.27-1.08,1s.27.83,1.07,1.11l1,.33a2,2,0,0,1,1.64,2.18c0,1.61-1.19,2.29-2.7,2.29-1.91,0-2.48-.88-2.48-2.34v-.28H333V89c0,.88.3,1.35,1.18,1.35s1.23-.42,1.23-1.11a1.09,1.09,0,0,0-.82-1.11l-1.24-.43a2,2,0,0,1-1.61-2.17c0-1.42,1-2.08,2.58-2.08,1.92,0,2.35,1.13,2.35,2.06v.34Z" fill="#3b4351"/><path d="M249.69,100.09h1.51v1.52h-1.51Zm0,2.58h1.51v7.54h-1.51Z" fill="#3b4351"/><path d="M252.73,102.67h1.43v.88h0a2.17,2.17,0,0,1,1.93-1.08c1.15,0,1.88.52,1.88,2v5.69H256.5V105c0-1-.27-1.36-1.05-1.36-.62,0-1.21.46-1.21,1.47v5.06h-1.51Z" fill="#3b4351"/><path d="M263.32,109.28h0a1.61,1.61,0,0,1-1.65,1.12c-1.76,0-2.47-1.48-2.47-4.06,0-3.35,1.18-3.87,2.33-3.87a1.74,1.74,0,0,1,1.7,1.08h0v-3.34h1.52v10h-1.43Zm-1.38-5.6c-.85,0-1.17.7-1.17,2.73,0,1.71.21,2.79,1.27,2.79s1.28-1,1.28-2.68C263.32,104.72,263.12,103.68,261.94,103.68Z" fill="#3b4351"/><path d="M267.5,106.63v.44c0,1,.13,2.3,1.26,2.3s1.21-1.22,1.21-1.68h1.42a2.47,2.47,0,0,1-2.64,2.71c-1.24,0-2.76-.36-2.76-3.85,0-2,.43-4.08,2.79-4.08,2.1,0,2.66,1.28,2.66,3.37v.79Zm2.42-1v-.41c0-1-.3-1.68-1.16-1.68s-1.26.95-1.26,1.93v.16Z" fill="#3b4351"/><path d="M275.93,110.4a1.72,1.72,0,0,1-1.71-1.08h0v3.35h-1.51v-10h1.43v.93h0a1.77,1.77,0,0,1,1.69-1.13c1.72,0,2.42,1.48,2.42,4.07C278.25,109.7,277,110.4,275.93,110.4Zm-.55-6.72c-1,0-1.27,1-1.27,2.67,0,1.81.22,2.85,1.29,2.85.85,0,1.26-.65,1.26-2.73C276.66,104.76,276.45,103.68,275.38,103.68Z" fill="#3b4351"/><path d="M280.72,106.63v.44c0,1,.12,2.3,1.26,2.3s1.2-1.22,1.2-1.68h1.43A2.48,2.48,0,0,1,282,110.4c-1.23,0-2.76-.36-2.76-3.85,0-2,.44-4.08,2.79-4.08,2.1,0,2.66,1.28,2.66,3.37v.79Zm2.42-1v-.41c0-1-.31-1.68-1.16-1.68s-1.26.95-1.26,1.93v.16Z" fill="#3b4351"/><path d="M285.9,102.67h1.42v.88h.05a2.15,2.15,0,0,1,1.93-1.08c1.15,0,1.88.52,1.88,2v5.69h-1.52V105c0-1-.26-1.36-1.05-1.36-.61,0-1.2.46-1.2,1.47v5.06H285.9Z" fill="#3b4351"/><path d="M296.48,109.28h0a1.6,1.6,0,0,1-1.65,1.12c-1.75,0-2.46-1.48-2.46-4.06,0-3.35,1.17-3.87,2.32-3.87a1.74,1.74,0,0,1,1.71,1.08h0v-3.34h1.51v10h-1.43Zm-1.37-5.6c-.86,0-1.18.7-1.18,2.73,0,1.71.21,2.79,1.28,2.79s1.27-1,1.27-2.68C296.48,104.72,296.29,103.68,295.11,103.68Z" fill="#3b4351"/><path d="M300.67,106.63v.44c0,1,.12,2.3,1.26,2.3s1.2-1.22,1.2-1.68h1.43a2.48,2.48,0,0,1-2.65,2.71c-1.23,0-2.76-.36-2.76-3.85,0-2,.44-4.08,2.79-4.08,2.1,0,2.66,1.28,2.66,3.37v.79Zm2.42-1v-.41c0-1-.31-1.68-1.16-1.68s-1.26.95-1.26,1.93v.16Z" fill="#3b4351"/><path d="M305.85,102.67h1.42v.88h.05a2.15,2.15,0,0,1,1.93-1.08c1.15,0,1.88.52,1.88,2v5.69h-1.52V105c0-1-.26-1.36-1.05-1.36-.61,0-1.2.46-1.2,1.47v5.06h-1.51Z" fill="#3b4351"/><path d="M317.66,107.46c-.11,1.81-.7,2.94-2.57,2.94-2.19,0-2.8-1.61-2.8-4s.61-4,2.8-4a2.44,2.44,0,0,1,2.59,2.71h-1.51c0-.7-.19-1.63-1.08-1.58-1.08,0-1.29,1.17-1.29,2.84s.21,2.84,1.29,2.84c.84,0,1.15-.68,1.15-1.82Z" fill="#3b4351"/><path d="M320.1,106.63v.44c0,1,.12,2.3,1.26,2.3s1.2-1.22,1.2-1.68H324a2.48,2.48,0,0,1-2.65,2.71c-1.23,0-2.76-.36-2.76-3.85,0-2,.44-4.08,2.79-4.08,2.1,0,2.66,1.28,2.66,3.37v.79Zm2.42-1v-.41c0-1-.31-1.68-1.16-1.68s-1.26.95-1.26,1.93v.16Z" fill="#3b4351"/></g></g></g></svg>