<svg xmlns="http://www.w3.org/2000/svg" viewBox="0 0 1847.91 111"><title>bc1050text</title><g id="YEARS"><g id="Right"><path d="M1787.21,104.46V91.09h-3.82V89.17h.29c1.77,0,3.79-.44,4.34-2.76v-.36h2.16v18.41Z" fill="#3b4351"/><path d="M1800.55,86.05c3.54,0,5.51,2.21,5.51,9.39s-2,9.38-5.51,9.38-5.51-2.21-5.51-9.38S1797,86.05,1800.55,86.05Zm0,16.69c2,0,2.55-2,2.55-7.3s-.55-7.31-2.55-7.31-2.55,2-2.55,7.31S1798.55,102.74,1800.55,102.74Z" fill="#3b4351"/><path d="M1807.62,99.49h2.81v.5a2.35,2.35,0,0,0,2.42,2.6c2.08,0,2.63-2,2.63-4.19s-.58-3.93-2.48-3.93a2.35,2.35,0,0,0-2.41,1.69l-2.63-.1.91-9.65h8.87v2.37h-6.66l-.6,4.84,0,0a4.08,4.08,0,0,1,3.1-1.43c3.85,0,4.81,3.25,4.81,6.08,0,3.69-1.69,6.5-5.67,6.5-3.3,0-5.15-1.69-5.15-4.94Z" fill="#3b4351"/><path d="M1825.51,86.05c3.54,0,5.51,2.21,5.51,9.39s-2,9.38-5.51,9.38-5.51-2.21-5.51-9.38S1822,86.05,1825.51,86.05Zm0,16.69c2,0,2.55-2,2.55-7.3s-.55-7.31-2.55-7.31-2.55,2-2.55,7.31S1823.51,102.74,1825.51,102.74Z" fill="#3b4351"/></g><g id="left"><path d="M17.46,108.06V94.69H13.64V92.77h.29c1.77,0,3.79-.44,4.34-2.76v-.36h2.16v18.41Z" fill="#3b4351"/><path d="M30.8,89.65c3.54,0,5.51,2.21,5.51,9.39s-2,9.38-5.51,9.38-5.51-2.21-5.51-9.38S27.27,89.65,30.8,89.65Zm0,16.69c2,0,2.55-2,2.55-7.3s-.55-7.31-2.55-7.31-2.55,2-2.55,7.31S28.8,106.34,30.8,106.34Z" fill="#3b4351"/><path d="M37.87,103.09h2.81v.5a2.36,2.36,0,0,0,2.42,2.6c2.08,0,2.63-2,2.63-4.19s-.58-3.93-2.48-3.93a2.35,2.35,0,0,0-2.41,1.69l-2.63-.1L39.12,90H48v2.37H41.33l-.6,4.84.06,0a4,4,0,0,1,3.09-1.43c3.85,0,4.81,3.25,4.81,6.08,0,3.69-1.69,6.5-5.67,6.5-3.3,0-5.15-1.69-5.15-4.94Z" fill="#3b4351"/><path d="M55.76,89.65c3.54,0,5.51,2.21,5.51,9.39s-2,9.38-5.51,9.38-5.51-2.21-5.51-9.38S52.22,89.65,55.76,89.65Zm0,16.69c2,0,2.55-2,2.55-7.3s-.55-7.31-2.55-7.31-2.55,2-2.55,7.31S53.76,106.34,55.76,106.34Z" fill="#3b4351"/></g></g><g id="Text"><g id="Indians"><path d="M1366.35,12h2.79V29.49h-2.79Z" fill="#3b4351"/><path d="M1371.91,12h3.41l5.07,13h0V12h2.65V29.49h-3.41l-5.07-13.38h0V29.49h-2.65Z" fill="#3b4351"/><path d="M1386,12h5c5.49,0,6.17,3.57,6.17,8.74s-.68,8.75-6.17,8.75h-5Zm2.8,15.39h2.3c2.31,0,3.26-1.52,3.26-6.65,0-4.92-.83-6.64-3.26-6.64h-2.3Z" fill="#3b4351"/><path d="M1399.47,12h2.8V29.49h-2.8Z" fill="#3b4351"/><path d="M1408.34,12h3.58l4.61,17.49h-2.92l-1.08-4.29h-5.12l-1.13,4.29h-2.91Zm3.73,11-2-8.62h0L1407.93,23Z" fill="#3b4351"/><path d="M1417.75,12h3.41l5.07,13h0V12h2.65V29.49h-3.41l-5.07-13.38h0V29.49h-2.65Z" fill="#3b4351"/><path d="M1434,24.08v.44c0,2.13,1,3.21,2.87,3.21a2.51,2.51,0,0,0,2.64-2.55c0-1.84-.93-2.65-2.5-3.11l-1.91-.66c-2.55-1-3.65-2.31-3.65-4.81,0-3.18,2.18-5,5.44-5,4.49,0,5,2.8,5,4.61v.39H1439v-.37c0-1.59-.69-2.52-2.45-2.52a2.24,2.24,0,0,0-2.36,2.52c0,1.5.76,2.26,2.63,3l1.88.69c2.48.88,3.56,2.2,3.56,4.63,0,3.72-2.26,5.27-5.79,5.27-4.33,0-5.31-2.9-5.31-5.35v-.41Z" fill="#3b4351"/><path d="M1409.85,39a20.65,20.65,0,0,0-2.79,11,21.38,21.38,0,0,0,2.79,11H1408a18.71,18.71,0,0,1,0-22Z" fill="#3b4351"/><path d="M1411.3,39h2.79v7h5.15V39H1422V56.49h-2.79V48.36h-5.15v8.13h-2.79Z" fill="#3b4351"/><path d="M1424.87,38.8h2.65v2.65h-2.65Zm0,4.51h2.65V56.49h-2.65Z" fill="#3b4351"/><path d="M1430.18,43.31h2.5v1.54h.08a3.78,3.78,0,0,1,3.38-1.88c2,0,3.28.9,3.28,3.57v10h-2.64v-9c0-1.76-.47-2.38-1.84-2.38-1.08,0-2.11.81-2.11,2.58v8.84h-2.65Z" fill="#3b4351"/><path d="M1448.71,54.88h0a2.83,2.83,0,0,1-2.89,2c-3.07,0-4.32-2.6-4.32-7.11,0-5.86,2.06-6.76,4.07-6.76a3,3,0,0,1,3,1.88h0V39h2.65V56.49h-2.5Zm-2.4-9.81c-1.5,0-2.06,1.23-2.06,4.78,0,3,.37,4.88,2.23,4.88s2.23-1.84,2.23-4.68C1448.71,46.89,1448.36,45.07,1446.31,45.07Z" fill="#3b4351"/><path d="M1460.49,55h-.07a3.79,3.79,0,0,1-3.38,1.89c-2,0-3.29-.91-3.29-4.32V43.31h2.65v9.46c0,1.47.64,2,1.79,2a2.06,2.06,0,0,0,2.16-2.21V43.31H1463V56.49h-2.5Z" fill="#3b4351"/><path d="M1471.22,47.16v-.35c0-1.05-.37-2-1.74-2-1,0-1.88.46-1.88,1.71,0,1.06.46,1.45,1.86,1.94l1.69.59c2,.66,2.87,1.71,2.87,3.8,0,2.81-2.09,4-4.73,4-3.34,0-4.34-1.55-4.34-4.1v-.49h2.35v.42c0,1.54.52,2.35,2.06,2.35s2.16-.73,2.16-1.93a1.91,1.91,0,0,0-1.45-1.94l-2.16-.76c-2-.66-2.81-1.69-2.81-3.8,0-2.47,1.76-3.62,4.5-3.62,3.36,0,4.12,2,4.12,3.6v.59Z" fill="#3b4351"/><path d="M1474.7,61a20.67,20.67,0,0,0,2.79-11,21.38,21.38,0,0,0-2.79-11h1.89a18.71,18.71,0,0,1,0,22Z" fill="#3b4351"/></g><g id="Chinese"><path d="M1619.74,25.45v.37c0,3.16-1.3,6.24-5.4,6.24-4.41,0-5.78-2.84-5.78-9.09s1.37-9.09,5.81-9.09c5,0,5.27,3.65,5.27,5.49v.32h-2.8V19.4c0-1.65-.49-3.48-2.5-3.41s-3,1.27-3,6.91.91,7.06,3,7.06c2.36,0,2.6-2.58,2.6-4.22v-.29Z" fill="#3b4351"/><path d="M1621.52,14.22h2.65V20l.07.05a3.77,3.77,0,0,1,3.24-1.82c2,0,3.28.91,3.28,3.58v10h-2.65v-9c0-1.74-.49-2.38-1.83-2.38-1.08,0-2.11.84-2.11,2.58v8.84h-2.65Z" fill="#3b4351"/><path d="M1632.79,25.13c0-4.12,1.08-6.94,4.9-6.94s4.93,2.82,4.93,6.94-1.28,6.93-4.93,6.93S1632.79,29.25,1632.79,25.13Zm4.9,5c1.94,0,2.28-1.61,2.28-5,0-2.92-.34-5-2.28-5s-2.25,2.05-2.25,5C1635.44,28.49,1635.81,30.1,1637.69,30.1Z" fill="#3b4351"/><path d="M1651.39,30.18h-.08a3.78,3.78,0,0,1-3.38,1.88c-2,0-3.28-.9-3.28-4.31V18.54h2.65V28c0,1.47.63,2,1.78,2a2.06,2.06,0,0,0,2.16-2.21V18.54h2.65V31.72h-2.5Z" fill="#3b4351"/><path d="M1662.48,14.22h5c5.49,0,6.17,3.58,6.17,8.75s-.68,8.75-6.17,8.75h-5Zm2.8,15.39h2.3c2.31,0,3.26-1.51,3.26-6.64,0-4.92-.83-6.64-3.26-6.64h-2.3Z" fill="#3b4351"/><path d="M1677.7,18.54l2.28,9.9h0l2.11-9.9h2.76l-3.62,13.67c-1.06,3.6-1.87,4.09-4.61,4a4.62,4.62,0,0,1-1.05-.1V34a3.51,3.51,0,0,0,.85.09c.91,0,1.5-.17,1.79-1l.35-1.07-3.75-13.48Z" fill="#3b4351"/><path d="M1686.37,18.54h2.5v1.54h.07a3.82,3.82,0,0,1,3.39-1.89c2,0,3.28.91,3.28,3.58v10H1693v-9c0-1.76-.46-2.38-1.83-2.38-1.08,0-2.11.81-2.11,2.58v8.84h-2.65Z" fill="#3b4351"/><path d="M1706.81,29c0,.49.29.93.68.93a1,1,0,0,0,.44-.08v1.72a2.78,2.78,0,0,1-1.29.32c-1.18,0-2.16-.47-2.23-1.74h-.05a3.41,3.41,0,0,1-3.29,1.93c-2.13,0-3.43-1.15-3.43-3.7,0-2.94,1.3-3.55,3.06-4.14l2.06-.56c1-.27,1.55-.54,1.55-1.69s-.42-2-1.82-2c-1.76,0-2,1.25-2,2.52H1698c0-2.82,1.16-4.34,4.64-4.34,2.32,0,4.19.91,4.19,3.24Zm-2.5-4.22a20.5,20.5,0,0,1-2.94,1.23,2.17,2.17,0,0,0-1.08,2.13c0,1.1.54,2,1.64,2,1.59,0,2.38-1.17,2.38-3.13Z" fill="#3b4351"/><path d="M1715.18,22.39V22c0-1.05-.36-2-1.74-2-1,0-1.88.46-1.88,1.71,0,1.06.46,1.45,1.86,1.94l1.69.59c2,.66,2.87,1.71,2.87,3.8,0,2.81-2.08,4-4.73,4-3.33,0-4.34-1.54-4.34-4.09v-.49h2.35v.42c0,1.54.52,2.35,2.06,2.35s2.16-.73,2.16-1.93a1.91,1.91,0,0,0-1.45-1.94l-2.15-.76c-2-.66-2.82-1.69-2.82-3.8,0-2.47,1.76-3.63,4.51-3.63,3.36,0,4.11,2,4.11,3.61v.59Z" fill="#3b4351"/><path d="M1718.76,18.54h1.81V14.79h2.65v3.75h2.16v2h-2.16v7.86c0,1.06.29,1.4,1.2,1.4a5.1,5.1,0,0,0,1-.07v2a8.58,8.58,0,0,1-2.14.22c-1.76,0-2.67-.52-2.67-3.19V20.5h-1.81Z" fill="#3b4351"/><path d="M1728.51,18.54l2.28,9.9h0l2.11-9.9h2.77l-3.63,13.67c-1,3.6-1.86,4.09-4.61,4a4.73,4.73,0,0,1-1-.1V34a3.54,3.54,0,0,0,.86.09c.9,0,1.49-.17,1.79-1l.34-1.07-3.75-13.48Z" fill="#3b4351"/></g><g id="Egytians"><g id="small"><path d="M281.43,7.06H285a2.31,2.31,0,0,1,2.53,2.57c0,1.29-.56,2.29-1.66,2.45v0c1,.1,1.51.65,1.56,2.05,0,.66,0,1.43.06,2a1.1,1.1,0,0,0,.48.87h-1.81a1.84,1.84,0,0,1-.27-.89c0-.29,0-.6,0-.89s0-.63,0-1c0-1.09-.37-1.57-1.45-1.57H283v4.35h-1.59Zm2.87,4.45a1.48,1.48,0,0,0,1.6-1.63c0-1.06-.45-1.62-1.52-1.62H283v3.25Z" fill="#3b4351"/><path d="M293.79,15.49c0,.28.17.53.39.53a.59.59,0,0,0,.26,0v1a1.63,1.63,0,0,1-.75.18c-.67,0-1.23-.27-1.27-1h0a2,2,0,0,1-1.88,1.1c-1.21,0-2-.66-2-2.11a2.09,2.09,0,0,1,1.75-2.37l1.18-.32c.55-.16.88-.31.88-1s-.24-1.12-1-1.12c-1,0-1.15.72-1.15,1.44h-1.43c0-1.61.66-2.48,2.65-2.48,1.33,0,2.39.52,2.39,1.85Zm-1.43-2.41a12.39,12.39,0,0,1-1.68.7,1.24,1.24,0,0,0-.61,1.22c0,.63.3,1.13.93,1.13.91,0,1.36-.67,1.36-1.79Z" fill="#3b4351"/><path d="M295.4,9.52h1.43v.88h0a2.12,2.12,0,0,1,1.81-1.08,1.64,1.64,0,0,1,1.75,1.15,2,2,0,0,1,1.9-1.15c1.07,0,1.84.55,1.84,2v5.73h-1.52V11.89c0-1-.29-1.36-.91-1.36s-1.2.48-1.2,1.47v5.06H299V11.89c0-1-.3-1.36-.93-1.36s-1.19.49-1.19,1.47v5.06H295.4Z" fill="#3b4351"/><path d="M307,13.48v.44c0,1,.13,2.3,1.26,2.3s1.21-1.22,1.21-1.68h1.43a2.48,2.48,0,0,1-2.65,2.71c-1.23,0-2.76-.36-2.76-3.85,0-2,.43-4.08,2.79-4.08,2.1,0,2.66,1.28,2.66,3.37v.79Zm2.42-1V12c0-.95-.3-1.68-1.16-1.68s-1.26,1-1.26,1.93v.16Z" fill="#3b4351"/><path d="M315.42,11.72v-.2c0-.6-.21-1.16-1-1.16-.61,0-1.08.27-1.08,1s.26.83,1.06,1.11l1,.33A2,2,0,0,1,317,15c0,1.61-1.19,2.29-2.71,2.29-1.9,0-2.48-.88-2.48-2.34v-.28h1.35v.24c0,.88.29,1.35,1.18,1.35s1.23-.42,1.23-1.11a1.1,1.1,0,0,0-.83-1.11l-1.23-.43a2,2,0,0,1-1.61-2.17c0-1.42,1-2.08,2.58-2.08,1.91,0,2.35,1.13,2.35,2.06v.34Z" fill="#3b4351"/><path d="M319.44,13.48v.44c0,1,.12,2.3,1.26,2.3s1.2-1.22,1.2-1.68h1.43a2.48,2.48,0,0,1-2.65,2.71c-1.23,0-2.76-.36-2.76-3.85,0-2,.44-4.08,2.79-4.08,2.1,0,2.66,1.28,2.66,3.37v.79Zm2.42-1V12c0-.95-.31-1.68-1.16-1.68s-1.26,1-1.26,1.93v.16Z" fill="#3b4351"/><path d="M327.87,11.72v-.2c0-.6-.21-1.16-1-1.16-.6,0-1.08.27-1.08,1s.27.83,1.07,1.11l1,.33A2,2,0,0,1,329.46,15c0,1.61-1.19,2.29-2.7,2.29-1.91,0-2.48-.88-2.48-2.34v-.28h1.34v.24c0,.88.3,1.35,1.18,1.35S328,15.8,328,15.11a1.1,1.1,0,0,0-.82-1.11L326,13.57a2,2,0,0,1-1.62-2.17c0-1.42,1-2.08,2.58-2.08,1.92,0,2.35,1.13,2.35,2.06v.34Z" fill="#3b4351"/><path d="M335.85,12l-2.41-4.91h1.76l1.6,3.31,1.57-3.31h1.72L337.67,12l2.55,5.09h-1.77l-1.74-3.62-1.78,3.62h-1.72Z" fill="#3b4351"/><path d="M341,7.06h1.59v10H341Z" fill="#3b4351"/><path d="M344.08,7.06h1.59v10h-1.59Z" fill="#3b4351"/><path d="M347.31,15.21h1.6v1.85h-1.6Z" fill="#3b4351"/><path d="M280.11,33l-2.41-4.91h1.77l1.59,3.31,1.57-3.31h1.73L281.93,33l2.55,5.09h-1.76L281,34.44l-1.78,3.62h-1.72Z" fill="#3b4351"/><path d="M287.11,33l-2.41-4.91h1.77l1.59,3.31,1.57-3.31h1.73L288.93,33l2.55,5.09h-1.76L288,34.44l-1.78,3.62h-1.72Z" fill="#3b4351"/><path d="M292.23,28.06h1.6v10h-1.6Z" fill="#3b4351"/><path d="M298.56,32.72v-.2c0-.6-.21-1.16-1-1.16-.6,0-1.08.27-1.08,1s.27.83,1.07,1.11l1,.33A2,2,0,0,1,300.16,36c0,1.61-1.19,2.29-2.7,2.29-1.91,0-2.48-.88-2.48-2.34v-.28h1.34v.24c0,.88.3,1.35,1.18,1.35s1.23-.42,1.23-1.11a1.1,1.1,0,0,0-.82-1.11l-1.24-.43a2,2,0,0,1-1.61-2.17c0-1.42,1-2.08,2.58-2.08,1.92,0,2.35,1.13,2.35,2.06v.34Z" fill="#3b4351"/><path d="M300.61,30.52h1V28.38h1.52v2.14h1.23v1.12h-1.23v4.5c0,.6.16.8.68.8a2.64,2.64,0,0,0,.55,0V38a4.64,4.64,0,0,1-1.22.13c-1,0-1.53-.29-1.53-1.82V31.64h-1Z" fill="#3b4351"/><path d="M308.63,28.06h2.84c3.14,0,3.53,2,3.53,5s-.39,5-3.53,5h-2.84Zm1.6,8.79h1.31c1.32,0,1.86-.87,1.86-3.79s-.47-3.8-1.86-3.8h-1.31Z" fill="#3b4351"/><path d="M317.32,30.52l1.31,5.66h0l1.21-5.66h1.58l-2.07,7.82c-.6,2.06-1.07,2.34-2.64,2.29a3,3,0,0,1-.6-.05V39.37a1.65,1.65,0,0,0,.49.06c.52,0,.86-.1,1-.59l.2-.62-2.14-7.7Z" fill="#3b4351"/><path d="M322.28,30.52h1.43v.88h0a2.17,2.17,0,0,1,1.93-1.08c1.15,0,1.88.52,1.88,2v5.69h-1.51V32.89c0-1-.27-1.36-1.05-1.36-.62,0-1.21.46-1.21,1.47v5.06h-1.51Z" fill="#3b4351"/><path d="M334,36.49c0,.28.16.53.39.53a.57.57,0,0,0,.25,0v1a1.58,1.58,0,0,1-.74.18c-.67,0-1.23-.27-1.28-1h0a2,2,0,0,1-1.88,1.1c-1.22,0-2-.66-2-2.11a2.08,2.08,0,0,1,1.75-2.37l1.18-.32c.54-.16.88-.31.88-1s-.24-1.12-1-1.12c-1,0-1.15.72-1.15,1.44h-1.43c0-1.61.66-2.48,2.65-2.48,1.33,0,2.4.52,2.4,1.85Zm-1.43-2.41a12.39,12.39,0,0,1-1.68.7,1.23,1.23,0,0,0-.62,1.22c0,.63.31,1.13.94,1.13.91,0,1.36-.67,1.36-1.79Z" fill="#3b4351"/><path d="M338.74,32.72v-.2c0-.6-.21-1.16-1-1.16-.6,0-1.08.27-1.08,1s.27.83,1.07,1.11l1,.33A2,2,0,0,1,340.34,36c0,1.61-1.19,2.29-2.7,2.29-1.91,0-2.48-.88-2.48-2.34v-.28h1.34v.24c0,.88.3,1.35,1.18,1.35s1.23-.42,1.23-1.11a1.1,1.1,0,0,0-.82-1.11l-1.24-.43a2,2,0,0,1-1.61-2.17c0-1.42,1-2.08,2.58-2.08,1.92,0,2.35,1.13,2.35,2.06v.34Z" fill="#3b4351"/><path d="M340.79,30.52h1V28.38h1.51v2.14h1.24v1.12h-1.24v4.5c0,.6.17.8.69.8a2.64,2.64,0,0,0,.55,0V38a4.64,4.64,0,0,1-1.22.13c-1,0-1.53-.29-1.53-1.82V31.64h-1Z" fill="#3b4351"/><path d="M346.36,30.52l1.3,5.66h0l1.2-5.66h1.59l-2.08,7.82c-.6,2.06-1.06,2.34-2.63,2.29a3,3,0,0,1-.6-.05V39.37a1.65,1.65,0,0,0,.49.06c.52,0,.85-.1,1-.59l.2-.62-2.15-7.7Z" fill="#3b4351"/><path d="M350.43,36.21H352v1.85h-1.6Z" fill="#3b4351"/><path d="M261.09,49.06h3.16c1.92,0,2.76,1.2,2.76,2.91a2.71,2.71,0,0,1-2.93,3h-1.4v4.14h-1.59Zm1.59,4.66h1.14A1.5,1.5,0,0,0,265.41,52c0-1.08-.43-1.74-1.71-1.74h-1Z" fill="#3b4351"/><path d="M269.29,55.48v.44c0,1,.13,2.3,1.26,2.3s1.21-1.22,1.21-1.68h1.42a2.47,2.47,0,0,1-2.64,2.71c-1.24,0-2.76-.36-2.76-3.85,0-2,.43-4.08,2.78-4.08,2.11,0,2.67,1.28,2.67,3.37v.79Zm2.42-1V54c0-.95-.31-1.68-1.16-1.68s-1.26,1-1.26,1.93v.16Z" fill="#3b4351"/><path d="M274.47,51.52H276V52.7h0a1.88,1.88,0,0,1,1.75-1.38.87.87,0,0,1,.36.06v1.54a2.18,2.18,0,0,0-.63-.08c-.68,0-1.51.31-1.51,1.71v4.51h-1.51Z" fill="#3b4351"/><path d="M279,48.94h1.51v1.52H279Zm0,2.58h1.51v7.54H279Z" fill="#3b4351"/><path d="M281.69,55.29c0-2.35.62-4,2.8-4s2.82,1.62,2.82,4-.73,4-2.82,4S281.69,57.64,281.69,55.29Zm2.8,2.84c1.11,0,1.31-.92,1.31-2.84,0-1.67-.2-2.84-1.31-2.84s-1.28,1.17-1.28,2.84C283.21,57.21,283.42,58.13,284.49,58.13Z" fill="#3b4351"/><path d="M292.32,58.13h0a1.61,1.61,0,0,1-1.65,1.12c-1.75,0-2.47-1.48-2.47-4.06,0-3.35,1.18-3.87,2.33-3.87a1.74,1.74,0,0,1,1.71,1.08h0V49.06h1.51v10h-1.43ZM291,52.53c-.86,0-1.18.7-1.18,2.73,0,1.71.21,2.79,1.28,2.79s1.27-1,1.27-2.68C292.32,53.57,292.12,52.53,291,52.53Z" fill="#3b4351"/><path d="M298.27,55.29c0-2.35.61-4,2.8-4s2.82,1.62,2.82,4-.73,4-2.82,4S298.27,57.64,298.27,55.29Zm2.8,2.84c1.11,0,1.3-.92,1.3-2.84,0-1.67-.19-2.84-1.3-2.84s-1.29,1.17-1.29,2.84C299.78,57.21,300,58.13,301.07,58.13Z" fill="#3b4351"/><path d="M305.51,52.64h-1.05V51.52h1.05v-.7c0-1.41.68-1.88,1.92-1.88a6.2,6.2,0,0,1,.82.05v1.16h-.42c-.56,0-.81.21-.81.71v.66h1.23v1.12H307v6.42h-1.51Z" fill="#3b4351"/><path d="M316.15,58.13h0a1.61,1.61,0,0,1-1.65,1.12c-1.75,0-2.47-1.48-2.47-4.06,0-3.35,1.18-3.87,2.33-3.87A1.75,1.75,0,0,1,316,52.4h0V49.06h1.52v10h-1.43Zm-1.37-5.6c-.86,0-1.18.7-1.18,2.73,0,1.71.21,2.79,1.27,2.79s1.28-1,1.28-2.68C316.15,53.57,316,52.53,314.78,52.53Z" fill="#3b4351"/><path d="M320.33,55.48v.44c0,1,.13,2.3,1.26,2.3s1.21-1.22,1.21-1.68h1.43a2.48,2.48,0,0,1-2.65,2.71c-1.23,0-2.76-.36-2.76-3.85,0-2,.43-4.08,2.79-4.08,2.1,0,2.66,1.28,2.66,3.37v.79Zm2.43-1V54c0-.95-.31-1.68-1.17-1.68s-1.26,1-1.26,1.93v.16Z" fill="#3b4351"/><path d="M330.6,56.31c-.12,1.81-.7,2.94-2.58,2.94-2.19,0-2.8-1.61-2.8-4s.61-4,2.8-4A2.44,2.44,0,0,1,330.61,54H329.1c0-.7-.18-1.63-1.08-1.58-1.08,0-1.29,1.17-1.29,2.84s.21,2.84,1.29,2.84c.84,0,1.15-.68,1.15-1.82Z" fill="#3b4351"/><path d="M336.67,57.49c0,.28.17.53.39.53a.59.59,0,0,0,.26,0v1a1.63,1.63,0,0,1-.75.18c-.67,0-1.23-.27-1.27-1h0a1.94,1.94,0,0,1-1.88,1.1c-1.21,0-2-.66-2-2.11a2.09,2.09,0,0,1,1.75-2.37l1.18-.32c.55-.16.88-.31.88-1s-.23-1.12-1-1.12c-1,0-1.15.72-1.15,1.44h-1.43c0-1.61.66-2.48,2.65-2.48,1.33,0,2.39.52,2.39,1.85Zm-1.43-2.41a12.39,12.39,0,0,1-1.68.7A1.24,1.24,0,0,0,333,57c0,.63.3,1.13.94,1.13.91,0,1.35-.67,1.35-1.79Z" fill="#3b4351"/><path d="M342.06,58.13h0a1.6,1.6,0,0,1-1.65,1.12c-1.75,0-2.46-1.48-2.46-4.06,0-3.35,1.17-3.87,2.32-3.87A1.74,1.74,0,0,1,342,52.4h0V49.06h1.51v10h-1.43Zm-1.37-5.6c-.86,0-1.18.7-1.18,2.73,0,1.71.21,2.79,1.28,2.79s1.27-1,1.27-2.68C342.06,53.57,341.87,52.53,340.69,52.53Z" fill="#3b4351"/><path d="M346.25,55.48v.44c0,1,.12,2.3,1.26,2.3s1.2-1.22,1.2-1.68h1.43a2.48,2.48,0,0,1-2.65,2.71c-1.23,0-2.76-.36-2.76-3.85,0-2,.44-4.08,2.79-4.08,2.1,0,2.66,1.28,2.66,3.37v.79Zm2.42-1V54c0-.95-.31-1.68-1.16-1.68s-1.26,1-1.26,1.93v.16Z" fill="#3b4351"/><path d="M351.43,51.52h1.42v.88h0a2.15,2.15,0,0,1,1.93-1.08c1.15,0,1.88.52,1.88,2v5.69h-1.52V53.89c0-1-.26-1.36-1.05-1.36-.61,0-1.2.46-1.2,1.47v5.06h-1.51Z" fill="#3b4351"/><path d="M363.24,56.31c-.11,1.81-.7,2.94-2.57,2.94-2.19,0-2.8-1.61-2.8-4s.61-4,2.8-4A2.44,2.44,0,0,1,363.26,54h-1.51c0-.7-.19-1.63-1.08-1.58-1.08,0-1.29,1.17-1.29,2.84s.21,2.84,1.29,2.84c.84,0,1.15-.68,1.15-1.82Z" fill="#3b4351"/><path d="M365.68,55.48v.44c0,1,.12,2.3,1.26,2.3s1.2-1.22,1.2-1.68h1.43a2.48,2.48,0,0,1-2.65,2.71c-1.23,0-2.76-.36-2.76-3.85,0-2,.44-4.08,2.79-4.08,2.1,0,2.66,1.28,2.66,3.37v.79Zm2.42-1V54c0-.95-.31-1.68-1.16-1.68s-1.26,1-1.26,1.93v.16Z" fill="#3b4351"/><path d="M288.36,78.49c0,.28.17.53.39.53a.54.54,0,0,0,.25,0v1a1.55,1.55,0,0,1-.74.18c-.67,0-1.23-.27-1.27-1h0a2,2,0,0,1-1.88,1.1c-1.22,0-2-.66-2-2.11a2.08,2.08,0,0,1,1.75-2.37l1.18-.32c.54-.16.88-.31.88-1s-.24-1.12-1-1.12c-1,0-1.14.72-1.14,1.44h-1.43c0-1.61.66-2.48,2.64-2.48,1.33,0,2.4.52,2.4,1.85Zm-1.43-2.41a12.39,12.39,0,0,1-1.68.7,1.25,1.25,0,0,0-.62,1.22c0,.63.31,1.13.94,1.13.91,0,1.36-.67,1.36-1.79Z" fill="#3b4351"/><path d="M289.9,72.52h1.43v.88h0a2.17,2.17,0,0,1,1.93-1.08c1.15,0,1.88.52,1.88,2.05v5.69h-1.52V74.89c0-1-.26-1.36-1.05-1.36-.61,0-1.2.46-1.2,1.47v5.06H289.9Z" fill="#3b4351"/><path d="M300.48,79.13h0a1.6,1.6,0,0,1-1.65,1.12c-1.75,0-2.46-1.48-2.46-4.06,0-3.35,1.17-3.87,2.32-3.87a1.74,1.74,0,0,1,1.71,1.08h0V70.06h1.51v10h-1.43Zm-1.37-5.6c-.85,0-1.18.7-1.18,2.73,0,1.71.21,2.79,1.28,2.79s1.27-1,1.27-2.68C300.48,74.57,300.29,73.53,299.11,73.53Z" fill="#3b4351"/><path d="M310.58,79.13h0a1.61,1.61,0,0,1-1.65,1.12c-1.76,0-2.47-1.48-2.47-4.06,0-3.35,1.18-3.87,2.33-3.87a1.74,1.74,0,0,1,1.7,1.08h0V70.06H312v10h-1.43Zm-1.38-5.6c-.85,0-1.17.7-1.17,2.73,0,1.71.21,2.79,1.27,2.79s1.28-1,1.28-2.68C310.58,74.57,310.38,73.53,309.2,73.53Z" fill="#3b4351"/><path d="M314.76,76.48v.44c0,1,.13,2.3,1.26,2.3s1.21-1.22,1.21-1.68h1.43A2.48,2.48,0,0,1,316,80.25c-1.24,0-2.76-.36-2.76-3.85,0-2,.43-4.08,2.79-4.08,2.1,0,2.66,1.28,2.66,3.37v.79Zm2.42-1V75c0-1-.3-1.68-1.16-1.68s-1.26,1-1.26,1.93v.16Z" fill="#3b4351"/><path d="M325,77.31c-.11,1.81-.7,2.94-2.57,2.94-2.19,0-2.8-1.61-2.8-4s.61-4,2.8-4A2.44,2.44,0,0,1,325,75h-1.51c0-.7-.19-1.63-1.08-1.58-1.08,0-1.29,1.17-1.29,2.84s.21,2.84,1.29,2.84c.84,0,1.15-.68,1.15-1.82Z" fill="#3b4351"/><path d="M326.23,70.06h1.51v10h-1.51Z" fill="#3b4351"/><path d="M329.33,69.94h1.52v1.52h-1.52Zm0,2.58h1.52v7.54h-1.52Z" fill="#3b4351"/><path d="M332.37,72.52h1.43v.88h0a2.18,2.18,0,0,1,1.94-1.08c1.14,0,1.87.52,1.87,2.05v5.69h-1.51V74.89c0-1-.27-1.36-1.05-1.36-.62,0-1.21.46-1.21,1.47v5.06h-1.51Z" fill="#3b4351"/><path d="M340.41,76.48v.44c0,1,.12,2.3,1.26,2.3s1.2-1.22,1.2-1.68h1.43a2.47,2.47,0,0,1-2.64,2.71c-1.24,0-2.76-.36-2.76-3.85,0-2,.43-4.08,2.78-4.08,2.1,0,2.66,1.28,2.66,3.37v.79Zm2.42-1V75c0-1-.31-1.68-1.16-1.68s-1.26,1-1.26,1.93v.16Z" fill="#3b4351"/><path d="M345.22,78.21h1.6v1.85h-1.6Z" fill="#3b4351"/><path d="M269,95.66h2.84c3.14,0,3.53,2,3.53,5s-.39,5-3.53,5H269Zm1.6,8.8H272c1.31,0,1.86-.87,1.86-3.79s-.48-3.8-1.86-3.8h-1.32Z" fill="#3b4351"/><path d="M281.66,104.1c0,.28.17.53.39.53a.59.59,0,0,0,.26,0v1a1.63,1.63,0,0,1-.75.18c-.67,0-1.23-.27-1.27-1h0a1.94,1.94,0,0,1-1.88,1.1c-1.21,0-2-.66-2-2.11a2.09,2.09,0,0,1,1.75-2.37l1.18-.32c.55-.16.88-.31.88-1S280,99,279.2,99c-1,0-1.15.71-1.15,1.44h-1.43c0-1.61.66-2.48,2.65-2.48,1.33,0,2.39.52,2.39,1.85Zm-1.43-2.41a11.88,11.88,0,0,1-1.68.7,1.24,1.24,0,0,0-.61,1.22c0,.63.3,1.13.93,1.13.92,0,1.36-.67,1.36-1.79Z" fill="#3b4351"/><path d="M287.05,104.78h0a2.15,2.15,0,0,1-1.93,1.08c-1.12,0-1.88-.52-1.88-2.46V98.13h1.51v5.41c0,.84.37,1.12,1,1.12A1.18,1.18,0,0,0,287,103.4V98.13h1.51v7.54h-1.43Z" fill="#3b4351"/><path d="M291.45,106.31a1,1,0,0,0,1.09.9,1.25,1.25,0,0,0,1.27-1.42v-1.22h0a1.82,1.82,0,0,1-1.71,1c-1.75,0-2.26-1.72-2.26-3.8,0-1.65.25-3.88,2.4-3.88a1.67,1.67,0,0,1,1.65,1.12h0v-.92h1.43v7.17c0,1.84-.79,2.94-2.82,2.94-2.24,0-2.49-1.31-2.49-1.93Zm1.06-1.9c1.18,0,1.3-1.49,1.3-2.68s-.15-2.59-1.2-2.59-1.28,1.12-1.28,2.52S291.39,104.41,292.51,104.41Z" fill="#3b4351"/><path d="M296.67,95.66h1.51v3.28l0,0a2.16,2.16,0,0,1,1.85-1c1.15,0,1.88.52,1.88,2v5.69h-1.51V100.5c0-1-.28-1.36-1.06-1.36-.61,0-1.2.47-1.2,1.47v5.06h-1.51Z" fill="#3b4351"/><path d="M302.73,98.13h1V96h1.51v2.14h1.23v1.12h-1.23v4.5c0,.6.17.8.68.8a2.64,2.64,0,0,0,.55,0v1.12a4.64,4.64,0,0,1-1.22.13c-1,0-1.52-.29-1.52-1.82V99.25h-1Z" fill="#3b4351"/><path d="M308.6,102.09v.44c0,1,.12,2.3,1.26,2.3s1.2-1.22,1.2-1.69h1.43a2.48,2.48,0,0,1-2.65,2.72c-1.23,0-2.76-.36-2.76-3.85,0-2,.44-4.08,2.79-4.08,2.1,0,2.66,1.28,2.66,3.37v.79Zm2.42-1v-.41c0-1-.31-1.68-1.16-1.68s-1.26,1-1.26,1.93v.16Z" fill="#3b4351"/><path d="M313.78,98.13h1.51v1.18h0a1.86,1.86,0,0,1,1.75-1.38.87.87,0,0,1,.36.06v1.54a2.18,2.18,0,0,0-.63-.08c-.69,0-1.51.3-1.51,1.71v4.51h-1.51Z" fill="#3b4351"/><path d="M321.25,101.9c0-2.36.62-4,2.8-4s2.82,1.61,2.82,4-.73,4-2.82,4S321.25,104.25,321.25,101.9Zm2.8,2.84c1.11,0,1.3-.92,1.3-2.84,0-1.67-.19-2.85-1.3-2.85s-1.29,1.18-1.29,2.85C322.76,103.82,323,104.74,324.05,104.74Z" fill="#3b4351"/><path d="M328.49,99.25h-1.05V98.13h1.05v-.7c0-1.42.69-1.88,1.92-1.88.32,0,.6,0,.82,0v1.17h-.42c-.56,0-.81.21-.81.71v.66h1.23v1.12H330v6.42h-1.51Z" fill="#3b4351"/></g></g></g></svg>