<svg xmlns="http://www.w3.org/2000/svg" viewBox="0 0 1847.91 111"><title>bc1050text</title><g id="Text"><g id="Indians"><path d="M1366.35,12h2.79V29.49h-2.79Z"/><path d="M1371.91,12h3.41l5.07,13h0V12h2.65V29.49h-3.41l-5.07-13.38h0V29.49h-2.65Z"/><path d="M1386,12h5c5.49,0,6.17,3.57,6.17,8.74s-.68,8.75-6.17,8.75h-5Zm2.8,15.39h2.3c2.31,0,3.26-1.52,3.26-6.65,0-4.92-.83-6.64-3.26-6.64h-2.3Z"/><path d="M1399.47,12h2.8V29.49h-2.8Z"/><path d="M1408.34,12h3.58l4.61,17.49h-2.92l-1.08-4.29h-5.12l-1.13,4.29h-2.91Zm3.73,11-2-8.62h0L1407.93,23Z"/><path d="M1417.75,12h3.41l5.07,13h0V12h2.65V29.49h-3.41l-5.07-13.38h0V29.49h-2.65Z"/><path d="M1434,24.08v.44c0,2.13,1,3.21,2.87,3.21a2.51,2.51,0,0,0,2.64-2.55c0-1.84-.93-2.65-2.5-3.11l-1.91-.66c-2.55-1-3.65-2.31-3.65-4.81,0-3.18,2.18-5,5.44-5,4.49,0,5,2.8,5,4.61v.39H1439v-.37c0-1.59-.69-2.52-2.45-2.52a2.24,2.24,0,0,0-2.36,2.52c0,1.5.76,2.26,2.63,3l1.88.69c2.48.88,3.56,2.2,3.56,4.63,0,3.72-2.26,5.27-5.79,5.27-4.33,0-5.31-2.9-5.31-5.35v-.41Z"/><path d="M1409.85,39a20.65,20.65,0,0,0-2.79,11,21.38,21.38,0,0,0,2.79,11H1408a18.71,18.71,0,0,1,0-22Z"/><path d="M1411.3,39h2.79v7h5.15V39H1422V56.49h-2.79V48.36h-5.15v8.13h-2.79Z"/><path d="M1424.87,38.8h2.65v2.65h-2.65Zm0,4.51h2.65V56.49h-2.65Z"/><path d="M1430.18,43.31h2.5v1.54h.08a3.78,3.78,0,0,1,3.38-1.88c2,0,3.28.9,3.28,3.57v10h-2.64v-9c0-1.76-.47-2.38-1.84-2.38-1.08,0-2.11.81-2.11,2.58v8.84h-2.65Z"/><path d="M1448.71,54.88h0a2.83,2.83,0,0,1-2.89,2c-3.07,0-4.32-2.6-4.32-7.11,0-5.86,2.06-6.76,4.07-6.76a3,3,0,0,1,3,1.88h0V39h2.65V56.49h-2.5Zm-2.4-9.81c-1.5,0-2.06,1.23-2.06,4.78,0,3,.37,4.88,2.23,4.88s2.23-1.84,2.23-4.68C1448.71,46.89,1448.36,45.07,1446.31,45.07Z"/><path d="M1460.49,55h-.07a3.79,3.79,0,0,1-3.38,1.89c-2,0-3.29-.91-3.29-4.32V43.31h2.65v9.46c0,1.47.64,2,1.79,2a2.06,2.06,0,0,0,2.16-2.21V43.31H1463V56.49h-2.5Z"/><path d="M1471.22,47.16v-.35c0-1.05-.37-2-1.74-2-1,0-1.88.46-1.88,1.71,0,1.06.46,1.45,1.86,1.94l1.69.59c2,.66,2.87,1.71,2.87,3.8,0,2.81-2.09,4-4.73,4-3.34,0-4.34-1.55-4.34-4.1v-.49h2.35v.42c0,1.54.52,2.35,2.06,2.35s2.16-.73,2.16-1.93a1.91,1.91,0,0,0-1.45-1.94l-2.16-.76c-2-.66-2.81-1.69-2.81-3.8,0-2.47,1.76-3.62,4.5-3.62,3.36,0,4.12,2,4.12,3.6v.59Z"/><path d="M1474.7,61a20.67,20.67,0,0,0,2.79-11,21.38,21.38,0,0,0-2.79-11h1.89a18.71,18.71,0,0,1,0,22Z"/></g><g id="Chinese"><path d="M1619.74,25.45v.37c0,3.16-1.3,6.24-5.4,6.24-4.41,0-5.78-2.84-5.78-9.09s1.37-9.09,5.81-9.09c5,0,5.27,3.65,5.27,5.49v.32h-2.8V19.4c0-1.65-.49-3.48-2.5-3.41s-3,1.27-3,6.91.91,7.06,3,7.06c2.36,0,2.6-2.58,2.6-4.22v-.29Z"/><path d="M1621.52,14.22h2.65V20l.07.05a3.77,3.77,0,0,1,3.24-1.82c2,0,3.28.91,3.28,3.58v10h-2.65v-9c0-1.74-.49-2.38-1.83-2.38-1.08,0-2.11.84-2.11,2.58v8.84h-2.65Z"/><path d="M1632.79,25.13c0-4.12,1.08-6.94,4.9-6.94s4.93,2.82,4.93,6.94-1.28,6.93-4.93,6.93S1632.79,29.25,1632.79,25.13Zm4.9,5c1.94,0,2.28-1.61,2.28-5,0-2.92-.34-5-2.28-5s-2.25,2.05-2.25,5C1635.44,28.49,1635.81,30.1,1637.69,30.1Z"/><path d="M1651.39,30.18h-.08a3.78,3.78,0,0,1-3.38,1.88c-2,0-3.28-.9-3.28-4.31V18.54h2.65V28c0,1.47.63,2,1.78,2a2.06,2.06,0,0,0,2.16-2.21V18.54h2.65V31.72h-2.5Z"/><path d="M1662.48,14.22h5c5.49,0,6.17,3.58,6.17,8.75s-.68,8.75-6.17,8.75h-5Zm2.8,15.39h2.3c2.31,0,3.26-1.51,3.26-6.64,0-4.92-.83-6.64-3.26-6.64h-2.3Z"/><path d="M1677.7,18.54l2.28,9.9h0l2.11-9.9h2.76l-3.62,13.67c-1.06,3.6-1.87,4.09-4.61,4a4.62,4.62,0,0,1-1.05-.1V34a3.51,3.51,0,0,0,.85.09c.91,0,1.5-.17,1.79-1l.35-1.07-3.75-13.48Z"/><path d="M1686.37,18.54h2.5v1.54h.07a3.82,3.82,0,0,1,3.39-1.89c2,0,3.28.91,3.28,3.58v10H1693v-9c0-1.76-.46-2.38-1.83-2.38-1.08,0-2.11.81-2.11,2.58v8.84h-2.65Z"/><path d="M1706.81,29c0,.49.29.93.68.93a1,1,0,0,0,.44-.08v1.72a2.78,2.78,0,0,1-1.29.32c-1.18,0-2.16-.47-2.23-1.74h-.05a3.41,3.41,0,0,1-3.29,1.93c-2.13,0-3.43-1.15-3.43-3.7,0-2.94,1.3-3.55,3.06-4.14l2.06-.56c1-.27,1.55-.54,1.55-1.69s-.42-2-1.82-2c-1.76,0-2,1.25-2,2.52H1698c0-2.82,1.16-4.34,4.64-4.34,2.32,0,4.19.91,4.19,3.24Zm-2.5-4.22a20.5,20.5,0,0,1-2.94,1.23,2.17,2.17,0,0,0-1.08,2.13c0,1.1.54,2,1.64,2,1.59,0,2.38-1.17,2.38-3.13Z"/><path d="M1715.18,22.39V22c0-1.05-.36-2-1.74-2-1,0-1.88.46-1.88,1.71,0,1.06.46,1.45,1.86,1.94l1.69.59c2,.66,2.87,1.71,2.87,3.8,0,2.81-2.08,4-4.73,4-3.33,0-4.34-1.54-4.34-4.09v-.49h2.35v.42c0,1.54.52,2.35,2.06,2.35s2.16-.73,2.16-1.93a1.91,1.91,0,0,0-1.45-1.94l-2.15-.76c-2-.66-2.82-1.69-2.82-3.8,0-2.47,1.76-3.63,4.51-3.63,3.36,0,4.11,2,4.11,3.61v.59Z"/><path d="M1718.76,18.54h1.81V14.79h2.65v3.75h2.16v2h-2.16v7.86c0,1.06.29,1.4,1.2,1.4a5.1,5.1,0,0,0,1-.07v2a8.58,8.58,0,0,1-2.14.22c-1.76,0-2.67-.52-2.67-3.19V20.5h-1.81Z"/><path d="M1728.51,18.54l2.28,9.9h0l2.11-9.9h2.77l-3.63,13.67c-1,3.6-1.86,4.09-4.61,4a4.73,4.73,0,0,1-1-.1V34a3.54,3.54,0,0,0,.86.09c.9,0,1.49-.17,1.79-1l.34-1.07-3.75-13.48Z"/></g></g><g id="YEARS"><g id="Right"><path d="M1777.94,104.46V91.09h-3.83V89.17h.29c1.77,0,3.8-.44,4.34-2.76v-.36h2.16v18.41Z"/><path d="M1791.27,86.05c3.54,0,5.52,2.21,5.52,9.39s-2,9.38-5.52,9.38-5.51-2.21-5.51-9.38S1787.74,86.05,1791.27,86.05Zm0,16.69c2,0,2.55-2,2.55-7.3s-.54-7.31-2.55-7.31-2.54,2-2.54,7.31S1789.27,102.74,1791.27,102.74Z"/><path d="M1798.35,99.49h2.8v.5a2.36,2.36,0,0,0,2.42,2.6c2.08,0,2.63-2,2.63-4.19s-.57-3.93-2.47-3.93a2.36,2.36,0,0,0-2.42,1.69l-2.63-.1.91-9.65h8.87v2.37h-6.66l-.59,4.84,0,0a4,4,0,0,1,3.09-1.43c3.85,0,4.81,3.25,4.81,6.08,0,3.69-1.69,6.5-5.67,6.5-3.3,0-5.14-1.69-5.14-4.94Z"/><path d="M1816.23,86.05c3.54,0,5.52,2.21,5.52,9.39s-2,9.38-5.52,9.38-5.51-2.21-5.51-9.38S1812.7,86.05,1816.23,86.05Zm0,16.69c2,0,2.55-2,2.55-7.3s-.55-7.31-2.55-7.31-2.55,2-2.55,7.31S1814.23,102.74,1816.23,102.74Z"/></g><g id="Layer_34" data-name="Layer 34"><path d="M18.19,108.06V94.69H14.37V92.77h.28c1.77,0,3.8-.44,4.34-2.76v-.36h2.16v18.41Z"/><path d="M31.52,89.65C35.06,89.65,37,91.86,37,99s-2,9.39-5.52,9.39S26,106.21,26,99,28,89.65,31.52,89.65Zm0,16.69c2,0,2.55-2,2.55-7.31s-.54-7.3-2.55-7.3S29,93.7,29,99,29.52,106.34,31.52,106.34Z"/><path d="M38.6,103.09h2.8v.49a2.35,2.35,0,0,0,2.42,2.6c2.08,0,2.63-2,2.63-4.18s-.57-3.93-2.47-3.93a2.36,2.36,0,0,0-2.42,1.69l-2.63-.1L39.84,90h8.87v2.37H42.05l-.59,4.83,0,.06a4,4,0,0,1,3.09-1.43c3.85,0,4.81,3.25,4.81,6.08,0,3.69-1.69,6.5-5.67,6.5-3.3,0-5.14-1.69-5.14-4.94Z"/><path d="M56.48,89.65C60,89.65,62,91.86,62,99s-2,9.39-5.52,9.39S51,106.21,51,99,53,89.65,56.48,89.65Zm0,16.69c2,0,2.55-2,2.55-7.31s-.54-7.3-2.55-7.3-2.54,2-2.54,7.3S54.48,106.34,56.48,106.34Z"/></g></g></svg>