<svg xmlns="http://www.w3.org/2000/svg" viewBox="0 0 1847.91 113"><title>bc1000text</title><g id="YEARS"><g id="Right"><path d="M1778.74,62.41h6c2.78,0,5,1.25,5,4.5q0,3.36-2.73,4.21v0c2,.37,3.33,1.59,3.33,4.74S1788.1,81,1784.62,81h-5.88Zm5.31,7.83c1.79,0,2.73-1.17,2.73-2.94,0-2.21-1.33-2.65-3-2.65h-2.08v5.59Zm.59,8.5c1.77,0,2.73-1.12,2.73-3.28a2.81,2.81,0,0,0-2.91-3.14h-2.75v6.42Z" fill="#3b4351"/><path d="M1792,77.54h3V81h-3Z" fill="#3b4351"/><path d="M1830.06,74.32v.39c0,3.35-1.38,6.63-5.72,6.63-4.68,0-6.14-3-6.14-9.65s1.46-9.64,6.17-9.64c5.27,0,5.59,3.87,5.59,5.82v.34h-3V67.9c0-1.74-.52-3.69-2.65-3.62s-3.17,1.36-3.17,7.34,1,7.48,3.17,7.48c2.5,0,2.76-2.73,2.76-4.47v-.31Z" fill="#3b4351"/><path d="M1831.78,77.54h3V81h-3Z" fill="#3b4351"/><path d="M1787.21,106V92.61h-3.82V90.69h.29c1.77,0,3.8-.44,4.34-2.76v-.36h2.16V106Z" fill="#3b4351"/><path d="M1800.55,87.57c3.54,0,5.51,2.21,5.51,9.38s-2,9.39-5.51,9.39S1795,104.13,1795,97,1797,87.57,1800.55,87.57Zm0,16.69c2,0,2.55-2,2.55-7.31s-.55-7.3-2.55-7.3-2.55,2-2.55,7.3S1798.55,104.26,1800.55,104.26Z" fill="#3b4351"/><path d="M1813,87.57c3.54,0,5.51,2.21,5.51,9.38s-2,9.39-5.51,9.39-5.51-2.21-5.51-9.39S1809.5,87.57,1813,87.57Zm0,16.69c2,0,2.55-2,2.55-7.31s-.55-7.3-2.55-7.3-2.55,2-2.55,7.3S1811,104.26,1813,104.26Z" fill="#3b4351"/><path d="M1825.51,87.57c3.54,0,5.51,2.21,5.51,9.38s-2,9.39-5.51,9.39S1820,104.13,1820,97,1822,87.57,1825.51,87.57Zm0,16.69c2,0,2.55-2,2.55-7.31s-.55-7.3-2.55-7.3-2.55,2-2.55,7.3S1823.51,104.26,1825.51,104.26Z" fill="#3b4351"/></g><g id="left"><path d="M9,66h6c2.78,0,5,1.25,5,4.5,0,2.23-.91,3.64-2.73,4.21v0c2,.37,3.33,1.59,3.33,4.73s-2.24,5.08-5.72,5.08H9Zm5.31,7.83c1.79,0,2.73-1.17,2.73-2.94,0-2.21-1.33-2.65-3-2.65H12v5.59Zm.59,8.5c1.77,0,2.73-1.12,2.73-3.28a2.81,2.81,0,0,0-2.91-3.14H12v6.42Z" fill="#3b4351"/><path d="M22.28,81.14h3v3.44h-3Z" fill="#3b4351"/><path d="M60.31,77.92v.39c0,3.35-1.38,6.63-5.72,6.63-4.68,0-6.14-3-6.14-9.65s1.46-9.64,6.16-9.64c5.28,0,5.59,3.87,5.59,5.82v.34h-3V71.5c0-1.75-.52-3.7-2.65-3.62s-3.17,1.35-3.17,7.33,1,7.49,3.17,7.49c2.49,0,2.75-2.73,2.75-4.47v-.31Z" fill="#3b4351"/><path d="M62,81.14h3v3.44H62Z" fill="#3b4351"/><path d="M17.46,109.58V96.21H13.64V94.29h.29c1.77,0,3.79-.45,4.34-2.76v-.36h2.16v18.41Z" fill="#3b4351"/><path d="M30.8,91.17c3.54,0,5.51,2.21,5.51,9.38s-2,9.39-5.51,9.39-5.51-2.21-5.51-9.39S27.27,91.17,30.8,91.17Zm0,16.69c2,0,2.55-2,2.55-7.31s-.55-7.3-2.55-7.3-2.55,2-2.55,7.3S28.8,107.86,30.8,107.86Z" fill="#3b4351"/><path d="M43.28,91.17c3.54,0,5.51,2.21,5.51,9.38s-2,9.39-5.51,9.39-5.51-2.21-5.51-9.39S39.75,91.17,43.28,91.17Zm0,16.69c2,0,2.55-2,2.55-7.31s-.55-7.3-2.55-7.3-2.55,2-2.55,7.3S41.28,107.86,43.28,107.86Z" fill="#3b4351"/><path d="M55.76,91.17c3.54,0,5.51,2.21,5.51,9.38s-2,9.39-5.51,9.39-5.51-2.21-5.51-9.39S52.22,91.17,55.76,91.17Zm0,16.69c2,0,2.55-2,2.55-7.31s-.55-7.3-2.55-7.3-2.55,2-2.55,7.3S53.76,107.86,55.76,107.86Z" fill="#3b4351"/></g></g><g id="Text"><g id="Hebrews"><path d="M541.1,80.25h2.8v7H549v-7h2.8V97.74H549V89.61H543.9v8.13h-2.8Z" fill="#3b4351"/><path d="M554.73,80.25h9.45V82.6h-6.66v4.85h6.27V89.8h-6.27v5.59h6.86v2.35h-9.65Z" fill="#3b4351"/><path d="M566.51,80.25h5.66c2.62,0,4.71,1.17,4.71,4.24,0,2.1-.86,3.43-2.58,4v.05c1.91.34,3.14,1.49,3.14,4.46s-2.11,4.77-5.39,4.77h-5.54Zm5,7.37a2.45,2.45,0,0,0,2.57-2.77c0-2.08-1.25-2.5-2.82-2.5h-2v5.27Zm.56,8c1.67,0,2.58-1.06,2.58-3.09a2.66,2.66,0,0,0-2.75-3h-2.6v6.06Z" fill="#3b4351"/><path d="M579.67,80.25h6.17c2.45,0,4.44,1.25,4.44,4.51,0,2.25-1,4-2.92,4.28v0c1.77.18,2.65,1.13,2.75,3.58,0,1.15,0,2.5.09,3.56a1.92,1.92,0,0,0,.84,1.51h-3.16a2.86,2.86,0,0,1-.47-1.54c0-.51-.07-1-.07-1.57s0-1.1-.05-1.74c-.08-1.91-.66-2.74-2.55-2.74h-2.28v7.59h-2.79Zm5,7.79a2.58,2.58,0,0,0,2.79-2.84c0-1.87-.78-2.85-2.64-2.85h-2.38V88Z" fill="#3b4351"/><path d="M592.82,80.25h9.46V82.6h-6.66v4.85h6.27V89.8h-6.27v5.59h6.86v2.35h-9.66Z" fill="#3b4351"/><path d="M603.31,80.25h2.82l2.3,13.6h.05l2.3-13.6h2.94l2.36,13.67h0l2.28-13.67h2.77l-3.48,17.49h-3.23L612.2,84.56h-.05l-2.23,13.18h-3.23Z" fill="#3b4351"/><path d="M624.92,92.33v.44c0,2.13,1,3.21,2.87,3.21a2.51,2.51,0,0,0,2.64-2.55c0-1.84-.93-2.64-2.5-3.11L626,89.66c-2.55-1-3.65-2.31-3.65-4.81,0-3.18,2.18-4.95,5.44-4.95,4.48,0,5,2.8,5,4.61v.39H630v-.36c0-1.6-.69-2.53-2.45-2.53a2.24,2.24,0,0,0-2.36,2.53c0,1.49.76,2.25,2.63,3l1.88.69c2.48.88,3.56,2.2,3.56,4.63,0,3.72-2.26,5.27-5.79,5.27-4.34,0-5.32-2.89-5.32-5.34v-.42Z" fill="#3b4351"/></g><g id="Egytians"><g id="small"><path d="M251.43,8.66h3.17c1.91,0,2.75,1.21,2.75,2.92a2.71,2.71,0,0,1-2.92,2.95H253v4.14h-1.6Zm1.6,4.67h1.13a1.5,1.5,0,0,0,1.6-1.72c0-1.08-.44-1.74-1.71-1.74h-1Z" fill="#3b4351"/><path d="M258.33,8.66h1.51v3.28l.05,0a2.14,2.14,0,0,1,1.85-1c1.14,0,1.87.52,1.87,2.05v5.69H262.1V13.5c0-1-.28-1.36-1.05-1.36s-1.21.47-1.21,1.47v5.06h-1.51Z" fill="#3b4351"/><path d="M270,17.1c0,.28.17.53.39.53a.54.54,0,0,0,.25,0v1a1.55,1.55,0,0,1-.74.18c-.67,0-1.23-.27-1.27-1h0a2,2,0,0,1-1.88,1.1c-1.22,0-2-.66-2-2.11a2.08,2.08,0,0,1,1.75-2.37l1.18-.32c.55-.16.88-.31.88-1s-.24-1.12-1-1.12c-1,0-1.14.71-1.14,1.44H265c0-1.61.66-2.48,2.65-2.48,1.33,0,2.39.52,2.39,1.85Zm-1.43-2.41a12.39,12.39,0,0,1-1.68.7,1.25,1.25,0,0,0-.62,1.22c0,.63.31,1.13.94,1.13.91,0,1.36-.67,1.36-1.79Z" fill="#3b4351"/><path d="M271.55,11.13h1.51v1.18h0a1.86,1.86,0,0,1,1.75-1.38.87.87,0,0,1,.36.06v1.54a2.18,2.18,0,0,0-.63-.08c-.68,0-1.51.3-1.51,1.71v4.51h-1.51Z" fill="#3b4351"/><path d="M275.66,14.9c0-2.36.62-4,2.8-4s2.82,1.61,2.82,4-.73,4-2.82,4S275.66,17.25,275.66,14.9Zm2.8,2.84c1.11,0,1.31-.92,1.31-2.84,0-1.67-.2-2.85-1.31-2.85s-1.28,1.18-1.28,2.85C277.18,16.82,277.39,17.74,278.46,17.74Z" fill="#3b4351"/><path d="M287.38,17.1c0,.28.17.53.4.53a.57.57,0,0,0,.25,0v1a1.58,1.58,0,0,1-.74.18c-.68,0-1.24-.27-1.28-1h0a1.94,1.94,0,0,1-1.87,1.1c-1.22,0-2-.66-2-2.11a2.09,2.09,0,0,1,1.76-2.37l1.17-.32c.55-.16.88-.31.88-1s-.23-1.12-1-1.12c-1,0-1.15.71-1.15,1.44h-1.43c0-1.61.66-2.48,2.65-2.48,1.33,0,2.39.52,2.39,1.85ZM286,14.69a11.41,11.41,0,0,1-1.68.7,1.24,1.24,0,0,0-.61,1.22c0,.63.31,1.13.94,1.13.91,0,1.35-.67,1.35-1.79Z" fill="#3b4351"/><path d="M288.92,8.66h1.51v3.28l.05,0a2.14,2.14,0,0,1,1.85-1c1.14,0,1.87.52,1.87,2.05v5.69h-1.51V13.5c0-1-.28-1.36-1.05-1.36-.62,0-1.21.47-1.21,1.47v5.06h-1.51Z" fill="#3b4351"/><path d="M299.08,11.13h1.43V12h.05a2.1,2.1,0,0,1,1.8-1.08,1.63,1.63,0,0,1,1.75,1.15A2.07,2.07,0,0,1,306,10.93c1.06,0,1.83.55,1.83,2v5.73h-1.51V13.5c0-1-.29-1.36-.91-1.36s-1.2.47-1.2,1.47v5.06h-1.52V13.5c0-1-.29-1.36-.92-1.36s-1.19.49-1.19,1.47v5.06h-1.52Z" fill="#3b4351"/><path d="M314.32,17.1c0,.28.17.53.39.53a.54.54,0,0,0,.25,0v1a1.55,1.55,0,0,1-.74.18c-.67,0-1.23-.27-1.27-1h0a2,2,0,0,1-1.88,1.1c-1.22,0-2-.66-2-2.11a2.08,2.08,0,0,1,1.75-2.37l1.18-.32c.54-.16.88-.31.88-1s-.24-1.12-1-1.12c-1,0-1.14.71-1.14,1.44h-1.43c0-1.61.65-2.48,2.64-2.48,1.33,0,2.4.52,2.4,1.85Zm-1.43-2.41a12.39,12.39,0,0,1-1.68.7,1.25,1.25,0,0,0-.62,1.22c0,.63.31,1.13.94,1.13.91,0,1.36-.67,1.36-1.79Z" fill="#3b4351"/><path d="M315.86,11.13h1.51v1.18h0a1.86,1.86,0,0,1,1.75-1.38.87.87,0,0,1,.36.06v1.54a2.18,2.18,0,0,0-.63-.08c-.68,0-1.51.3-1.51,1.71v4.51h-1.51Z" fill="#3b4351"/><path d="M320.27,11.13h1.51v1.18h0a1.86,1.86,0,0,1,1.75-1.38.87.87,0,0,1,.36.06v1.54a2.18,2.18,0,0,0-.63-.08c-.68,0-1.51.3-1.51,1.71v4.51h-1.51Z" fill="#3b4351"/><path d="M324.75,8.55h1.51v1.52h-1.51Zm0,2.58h1.51v7.54h-1.51Z" fill="#3b4351"/><path d="M329.09,15.09v.44c0,1,.12,2.3,1.26,2.3s1.2-1.22,1.2-1.69H333a2.48,2.48,0,0,1-2.65,2.72c-1.23,0-2.76-.36-2.76-3.85,0-2,.44-4.08,2.79-4.08,2.1,0,2.66,1.28,2.66,3.37v.79Zm2.42-1v-.41c0-1-.31-1.68-1.16-1.68s-1.26.95-1.26,1.93v.16Z" fill="#3b4351"/><path d="M338.12,17.74h0a1.61,1.61,0,0,1-1.65,1.12c-1.75,0-2.47-1.48-2.47-4.06,0-3.35,1.18-3.87,2.33-3.87A1.75,1.75,0,0,1,338,12h0V8.66h1.52v10h-1.43Zm-1.37-5.6c-.86,0-1.18.7-1.18,2.73,0,1.71.21,2.79,1.27,2.79s1.28-1.05,1.28-2.68C338.12,13.17,337.92,12.14,336.75,12.14Z" fill="#3b4351"/><path d="M255.77,35.13h1V33h1.51v2.14h1.23v1.12h-1.23v4.5c0,.6.17.8.69.8a2.61,2.61,0,0,0,.54,0v1.12a4.56,4.56,0,0,1-1.21.13c-1,0-1.53-.29-1.53-1.82V36.25h-1Z" fill="#3b4351"/><path d="M260,38.9c0-2.36.62-4,2.8-4s2.82,1.61,2.82,4-.73,4-2.82,4S260,41.25,260,38.9Zm2.8,2.84c1.11,0,1.31-.92,1.31-2.84,0-1.67-.2-2.85-1.31-2.85s-1.28,1.18-1.28,2.85C261.56,40.82,261.77,41.74,262.84,41.74Z" fill="#3b4351"/><path d="M270.28,32.66h1.59V37h0l3-4.36h1.75l-2.89,4.22,3.2,5.79h-1.81l-2.42-4.5-.89,1.26v3.24h-1.59Z" fill="#3b4351"/><path d="M277.51,32.55H279v1.52h-1.52Zm0,2.58H279v7.54h-1.52Z" fill="#3b4351"/><path d="M280.55,35.13H282V36h0A2.18,2.18,0,0,1,284,34.93c1.14,0,1.87.52,1.87,2v5.69h-1.51V37.5c0-1-.27-1.36-1.05-1.36-.62,0-1.2.46-1.2,1.47v5.06h-1.52Z" fill="#3b4351"/><path d="M291.14,41.74h0a1.61,1.61,0,0,1-1.65,1.12c-1.75,0-2.47-1.48-2.47-4.06,0-3.35,1.18-3.87,2.33-3.87A1.75,1.75,0,0,1,291,36h0V32.66h1.52v10h-1.43Zm-1.37-5.6c-.86,0-1.18.7-1.18,2.73,0,1.71.21,2.79,1.27,2.79s1.28-1,1.28-2.68C291.14,37.17,290.94,36.14,289.77,36.14Z" fill="#3b4351"/><path d="M297.48,32.66h2.84c3.14,0,3.53,2.05,3.53,5s-.39,5-3.53,5h-2.84Zm1.6,8.8h1.31c1.32,0,1.86-.87,1.86-3.79s-.47-3.8-1.86-3.8h-1.31Z" fill="#3b4351"/><path d="M310.11,41.1c0,.28.17.53.39.53a.54.54,0,0,0,.25,0v1a1.55,1.55,0,0,1-.74.18c-.67,0-1.23-.27-1.27-1h0a2,2,0,0,1-1.88,1.1c-1.22,0-2-.66-2-2.11a2.08,2.08,0,0,1,1.75-2.37l1.18-.32c.54-.16.88-.31.88-1s-.24-1.12-1-1.12c-1,0-1.14.71-1.14,1.44h-1.43c0-1.61.65-2.48,2.64-2.48,1.33,0,2.4.52,2.4,1.85Zm-1.43-2.41a12.39,12.39,0,0,1-1.68.7,1.23,1.23,0,0,0-.62,1.22c0,.63.31,1.13.94,1.13.91,0,1.36-.67,1.36-1.79Z" fill="#3b4351"/><path d="M310.93,35.13h1.63l1.31,5.94h0l1.19-5.94h1.61l-2,7.54H313Z" fill="#3b4351"/><path d="M317.6,32.55h1.51v1.52H317.6Zm0,2.58h1.51v7.54H317.6Z" fill="#3b4351"/><path d="M324.49,41.74h0a1.61,1.61,0,0,1-1.65,1.12c-1.76,0-2.47-1.48-2.47-4.06,0-3.35,1.18-3.87,2.32-3.87A1.74,1.74,0,0,1,324.37,36h0V32.66h1.51v10h-1.42Zm-1.38-5.6c-.85,0-1.17.7-1.17,2.73,0,1.71.21,2.79,1.27,2.79s1.28-1,1.28-2.68C324.49,37.17,324.29,36.14,323.11,36.14Z" fill="#3b4351"/><path d="M301.91,62.21h5.41v1.34h-3.81v2.77h3.58v1.35h-3.58v3.19h3.92v1.35h-5.52Z" fill="#3b4351"/><path d="M307.87,64.67h1V62.53h1.51v2.14h1.24v1.12h-1.24v4.5c0,.6.17.8.69.8a2.72,2.72,0,0,0,.55,0v1.12a4.69,4.69,0,0,1-1.22.13c-1,0-1.53-.29-1.53-1.82V65.79h-1Z" fill="#3b4351"/><path d="M312.44,62.21H314v3.27l0,0a2.16,2.16,0,0,1,1.85-1c1.15,0,1.88.52,1.88,2v5.69h-1.51V67c0-1-.28-1.36-1-1.36s-1.21.48-1.21,1.47v5.06h-1.51Z" fill="#3b4351"/><path d="M319.24,62.09h1.52v1.52h-1.52Zm0,2.58h1.52v7.54h-1.52Z" fill="#3b4351"/><path d="M322,68.44c0-2.35.61-4,2.8-4s2.81,1.62,2.81,4-.73,4-2.81,4S322,70.79,322,68.44Zm2.8,2.84c1.1,0,1.3-.92,1.3-2.84,0-1.67-.2-2.84-1.3-2.84s-1.29,1.17-1.29,2.84C323.5,70.36,323.71,71.28,324.79,71.28Z" fill="#3b4351"/><path d="M332,72.4a1.72,1.72,0,0,1-1.71-1.08h0v3.35h-1.52v-10h1.43v.93h0a1.77,1.77,0,0,1,1.69-1.13c1.73,0,2.43,1.48,2.43,4.07C334.34,71.7,333.06,72.4,332,72.4Zm-.54-6.72c-1,0-1.28,1-1.28,2.67,0,1.81.23,2.85,1.29,2.85.85,0,1.26-.65,1.26-2.73C332.74,66.76,332.53,65.68,331.47,65.68Z" fill="#3b4351"/><path d="M335.57,62.09h1.51v1.52h-1.51Zm0,2.58h1.51v7.54h-1.51Z" fill="#3b4351"/><path d="M343.55,70.64c0,.28.17.53.39.53a.54.54,0,0,0,.25,0v1a1.55,1.55,0,0,1-.74.18c-.67,0-1.23-.27-1.27-1h0a2,2,0,0,1-1.88,1.1c-1.22,0-2-.66-2-2.11a2.08,2.08,0,0,1,1.75-2.37l1.18-.32c.54-.16.88-.31.88-1s-.24-1.12-1-1.12c-1,0-1.15.72-1.15,1.44h-1.42c0-1.61.65-2.48,2.64-2.48,1.33,0,2.4.52,2.4,1.85Zm-1.43-2.41a12.39,12.39,0,0,1-1.68.7,1.25,1.25,0,0,0-.62,1.22c0,.63.31,1.13.94,1.13.91,0,1.36-.67,1.36-1.79Z" fill="#3b4351"/><path d="M310.45,91.85a1,1,0,0,0,1.09.9,1.25,1.25,0,0,0,1.28-1.42V90.11h0a1.82,1.82,0,0,1-1.71,1c-1.75,0-2.25-1.72-2.25-3.8,0-1.65.25-3.88,2.39-3.88a1.66,1.66,0,0,1,1.65,1.13h0v-.93h1.43v7.17c0,1.84-.78,2.94-2.81,2.94-2.25,0-2.5-1.31-2.5-1.93Zm1.07-1.9c1.17,0,1.3-1.49,1.3-2.68s-.16-2.59-1.21-2.59-1.27,1.12-1.27,2.52S310.4,90,311.52,90Z" fill="#3b4351"/><path d="M320.62,89.64c0,.28.17.53.39.53a.54.54,0,0,0,.25,0v1a1.58,1.58,0,0,1-.74.18c-.67,0-1.23-.27-1.28-1h0a2,2,0,0,1-1.88,1.1c-1.22,0-2-.66-2-2.11a2.08,2.08,0,0,1,1.75-2.37l1.18-.32c.54-.16.88-.31.88-1s-.24-1.12-1-1.12c-1,0-1.15.72-1.15,1.44h-1.43c0-1.61.66-2.48,2.65-2.48,1.33,0,2.4.52,2.4,1.85Zm-1.43-2.41a12.39,12.39,0,0,1-1.68.7,1.23,1.23,0,0,0-.62,1.22c0,.63.31,1.13.94,1.13.91,0,1.36-.67,1.36-1.79Z" fill="#3b4351"/><path d="M322.22,81.09h1.52v1.52h-1.52Zm0,2.58h1.52v7.54h-1.52Z" fill="#3b4351"/><path d="M325.26,83.67h1.43v.88h0a2.18,2.18,0,0,1,1.94-1.08c1.14,0,1.87.52,1.87,2v5.69H329V86c0-1-.27-1.36-1-1.36-.62,0-1.2.46-1.2,1.47v5.06h-1.52Z" fill="#3b4351"/><path d="M335.25,85.87v-.2c0-.6-.21-1.16-1-1.16-.6,0-1.08.27-1.08,1s.27.83,1.07,1.11l1,.33a2,2,0,0,1,1.64,2.18c0,1.61-1.19,2.29-2.7,2.29-1.91,0-2.48-.88-2.48-2.34v-.28H333V89c0,.88.3,1.35,1.18,1.35s1.23-.42,1.23-1.11a1.09,1.09,0,0,0-.82-1.11l-1.24-.43a2,2,0,0,1-1.61-2.17c0-1.42,1-2.08,2.58-2.08,1.92,0,2.35,1.13,2.35,2.06v.34Z" fill="#3b4351"/><path d="M249.69,100.09h1.51v1.52h-1.51Zm0,2.58h1.51v7.54h-1.51Z" fill="#3b4351"/><path d="M252.73,102.67h1.43v.88h0a2.17,2.17,0,0,1,1.93-1.08c1.15,0,1.88.52,1.88,2v5.69H256.5V105c0-1-.27-1.36-1.05-1.36-.62,0-1.21.46-1.21,1.47v5.06h-1.51Z" fill="#3b4351"/><path d="M263.32,109.28h0a1.61,1.61,0,0,1-1.65,1.12c-1.76,0-2.47-1.48-2.47-4.06,0-3.35,1.18-3.87,2.33-3.87a1.74,1.74,0,0,1,1.7,1.08h0v-3.34h1.52v10h-1.43Zm-1.38-5.6c-.85,0-1.17.7-1.17,2.73,0,1.71.21,2.79,1.27,2.79s1.28-1,1.28-2.68C263.32,104.72,263.12,103.68,261.94,103.68Z" fill="#3b4351"/><path d="M267.5,106.63v.44c0,1,.13,2.3,1.26,2.3s1.21-1.22,1.21-1.68h1.42a2.47,2.47,0,0,1-2.64,2.71c-1.24,0-2.76-.36-2.76-3.85,0-2,.43-4.08,2.79-4.08,2.1,0,2.66,1.28,2.66,3.37v.79Zm2.42-1v-.41c0-1-.3-1.68-1.16-1.68s-1.26.95-1.26,1.93v.16Z" fill="#3b4351"/><path d="M275.93,110.4a1.72,1.72,0,0,1-1.71-1.08h0v3.35h-1.51v-10h1.43v.93h0a1.77,1.77,0,0,1,1.69-1.13c1.72,0,2.42,1.48,2.42,4.07C278.25,109.7,277,110.4,275.93,110.4Zm-.55-6.72c-1,0-1.27,1-1.27,2.67,0,1.81.22,2.85,1.29,2.85.85,0,1.26-.65,1.26-2.73C276.66,104.76,276.45,103.68,275.38,103.68Z" fill="#3b4351"/><path d="M280.72,106.63v.44c0,1,.12,2.3,1.26,2.3s1.2-1.22,1.2-1.68h1.43A2.48,2.48,0,0,1,282,110.4c-1.23,0-2.76-.36-2.76-3.85,0-2,.44-4.08,2.79-4.08,2.1,0,2.66,1.28,2.66,3.37v.79Zm2.42-1v-.41c0-1-.31-1.68-1.16-1.68s-1.26.95-1.26,1.93v.16Z" fill="#3b4351"/><path d="M285.9,102.67h1.42v.88h.05a2.15,2.15,0,0,1,1.93-1.08c1.15,0,1.88.52,1.88,2v5.69h-1.52V105c0-1-.26-1.36-1.05-1.36-.61,0-1.2.46-1.2,1.47v5.06H285.9Z" fill="#3b4351"/><path d="M296.48,109.28h0a1.6,1.6,0,0,1-1.65,1.12c-1.75,0-2.46-1.48-2.46-4.06,0-3.35,1.17-3.87,2.32-3.87a1.74,1.74,0,0,1,1.71,1.08h0v-3.34h1.51v10h-1.43Zm-1.37-5.6c-.86,0-1.18.7-1.18,2.73,0,1.71.21,2.79,1.28,2.79s1.27-1,1.27-2.68C296.48,104.72,296.29,103.68,295.11,103.68Z" fill="#3b4351"/><path d="M300.67,106.63v.44c0,1,.12,2.3,1.26,2.3s1.2-1.22,1.2-1.68h1.43a2.48,2.48,0,0,1-2.65,2.71c-1.23,0-2.76-.36-2.76-3.85,0-2,.44-4.08,2.79-4.08,2.1,0,2.66,1.28,2.66,3.37v.79Zm2.42-1v-.41c0-1-.31-1.68-1.16-1.68s-1.26.95-1.26,1.93v.16Z" fill="#3b4351"/><path d="M305.85,102.67h1.42v.88h.05a2.15,2.15,0,0,1,1.93-1.08c1.15,0,1.88.52,1.88,2v5.69h-1.52V105c0-1-.26-1.36-1.05-1.36-.61,0-1.2.46-1.2,1.47v5.06h-1.51Z" fill="#3b4351"/><path d="M317.66,107.46c-.11,1.81-.7,2.94-2.57,2.94-2.19,0-2.8-1.61-2.8-4s.61-4,2.8-4a2.44,2.44,0,0,1,2.59,2.71h-1.51c0-.7-.19-1.63-1.08-1.58-1.08,0-1.29,1.17-1.29,2.84s.21,2.84,1.29,2.84c.84,0,1.15-.68,1.15-1.82Z" fill="#3b4351"/><path d="M320.1,106.63v.44c0,1,.12,2.3,1.26,2.3s1.2-1.22,1.2-1.68H324a2.48,2.48,0,0,1-2.65,2.71c-1.23,0-2.76-.36-2.76-3.85,0-2,.44-4.08,2.79-4.08,2.1,0,2.66,1.28,2.66,3.37v.79Zm2.42-1v-.41c0-1-.31-1.68-1.16-1.68s-1.26.95-1.26,1.93v.16Z" fill="#3b4351"/></g></g></g></svg>