<svg xmlns="http://www.w3.org/2000/svg" viewBox="0 0 1847.91 113"><title>bc1000text</title><g id="YEARS"><g id="Right"><path d="M1785.86,62.41h6c2.78,0,5,1.25,5,4.5q0,3.36-2.73,4.21v0c2,.37,3.33,1.59,3.33,4.74s-2.24,5.07-5.72,5.07h-5.88Zm5.31,7.83c1.79,0,2.73-1.17,2.73-2.94,0-2.21-1.33-2.65-3-2.65h-2.08v5.59Zm.6,8.5c1.76,0,2.72-1.12,2.72-3.28a2.81,2.81,0,0,0-2.91-3.14h-2.75v6.42Z"/><path d="M1799.15,77.54h3V81h-3Z"/><path d="M1822.94,74.32v.39c0,3.35-1.38,6.63-5.72,6.63-4.68,0-6.14-3-6.14-9.65s1.46-9.64,6.16-9.64c5.28,0,5.59,3.87,5.59,5.82v.34h-3V67.9c0-1.74-.52-3.69-2.65-3.62s-3.17,1.36-3.17,7.34,1,7.48,3.17,7.48c2.49,0,2.75-2.73,2.75-4.47v-.31Z"/><path d="M1824.65,77.54h3V81h-3Z"/><path d="M1787.21,106V92.61h-3.82V90.69h.29c1.77,0,3.8-.44,4.34-2.76v-.36h2.16V106Z"/><path d="M1800.55,87.57c3.54,0,5.51,2.21,5.51,9.38s-2,9.39-5.51,9.39S1795,104.13,1795,97,1797,87.57,1800.55,87.57Zm0,16.69c2,0,2.55-2,2.55-7.31s-.55-7.3-2.55-7.3-2.55,2-2.55,7.3S1798.55,104.26,1800.55,104.26Z"/><path d="M1813,87.57c3.54,0,5.51,2.21,5.51,9.38s-2,9.39-5.51,9.39-5.51-2.21-5.51-9.39S1809.5,87.57,1813,87.57Zm0,16.69c2,0,2.55-2,2.55-7.31s-.55-7.3-2.55-7.3-2.55,2-2.55,7.3S1811,104.26,1813,104.26Z"/><path d="M1825.51,87.57c3.54,0,5.51,2.21,5.51,9.38s-2,9.39-5.51,9.39S1820,104.13,1820,97,1822,87.57,1825.51,87.57Zm0,16.69c2,0,2.55-2,2.55-7.31s-.55-7.3-2.55-7.3-2.55,2-2.55,7.3S1823.51,104.26,1825.51,104.26Z"/></g><g id="left"><path d="M16.11,66h6c2.78,0,5,1.25,5,4.5,0,2.23-.91,3.64-2.73,4.21v0c2,.37,3.33,1.59,3.33,4.73S25.47,84.58,22,84.58H16.11Zm5.31,7.83c1.79,0,2.73-1.17,2.73-2.94,0-2.21-1.33-2.65-3-2.65H19.08v5.59Zm.59,8.5c1.77,0,2.73-1.12,2.73-3.28a2.81,2.81,0,0,0-2.91-3.14H19.08v6.42Z"/><path d="M29.4,81.14h3v3.44h-3Z"/><path d="M53.19,77.92v.39c0,3.35-1.38,6.63-5.72,6.63-4.68,0-6.14-3-6.14-9.65s1.46-9.64,6.16-9.64c5.28,0,5.59,3.87,5.59,5.82v.34h-3V71.5c0-1.75-.52-3.7-2.65-3.62s-3.17,1.35-3.17,7.33,1,7.49,3.17,7.49c2.49,0,2.75-2.73,2.75-4.47v-.31Z"/><path d="M54.9,81.14h3v3.44h-3Z"/><path d="M17.46,109.58V96.21H13.64V94.29h.29c1.77,0,3.79-.45,4.34-2.76v-.36h2.16v18.41Z"/><path d="M30.8,91.17c3.54,0,5.51,2.21,5.51,9.38s-2,9.39-5.51,9.39-5.51-2.21-5.51-9.39S27.27,91.17,30.8,91.17Zm0,16.69c2,0,2.55-2,2.55-7.31s-.55-7.3-2.55-7.3-2.55,2-2.55,7.3S28.8,107.86,30.8,107.86Z"/><path d="M43.28,91.17c3.54,0,5.51,2.21,5.51,9.38s-2,9.39-5.51,9.39-5.51-2.21-5.51-9.39S39.75,91.17,43.28,91.17Zm0,16.69c2,0,2.55-2,2.55-7.31s-.55-7.3-2.55-7.3-2.55,2-2.55,7.3S41.28,107.86,43.28,107.86Z"/><path d="M55.76,91.17c3.54,0,5.51,2.21,5.51,9.38s-2,9.39-5.51,9.39-5.51-2.21-5.51-9.39S52.22,91.17,55.76,91.17Zm0,16.69c2,0,2.55-2,2.55-7.31s-.55-7.3-2.55-7.3-2.55,2-2.55,7.3S53.76,107.86,55.76,107.86Z"/></g></g><g id="Text"><g id="Hebrews"><path d="M541.1,80.25h2.8v7H549v-7h2.8V97.74H549V89.61H543.9v8.13h-2.8Z" fill="#3b4351"/><path d="M554.73,80.25h9.45V82.6h-6.66v4.85h6.27V89.8h-6.27v5.59h6.86v2.35h-9.65Z" fill="#3b4351"/><path d="M566.51,80.25h5.66c2.62,0,4.71,1.17,4.71,4.24,0,2.1-.86,3.43-2.58,4v.05c1.91.34,3.14,1.49,3.14,4.46s-2.11,4.77-5.39,4.77h-5.54Zm5,7.37a2.45,2.45,0,0,0,2.57-2.77c0-2.08-1.25-2.5-2.82-2.5h-2v5.27Zm.56,8c1.67,0,2.58-1.06,2.58-3.09a2.66,2.66,0,0,0-2.75-3h-2.6v6.06Z" fill="#3b4351"/><path d="M579.67,80.25h6.17c2.45,0,4.44,1.25,4.44,4.51,0,2.25-1,4-2.92,4.28v0c1.77.18,2.65,1.13,2.75,3.58,0,1.15,0,2.5.09,3.56a1.92,1.92,0,0,0,.84,1.51h-3.16a2.86,2.86,0,0,1-.47-1.54c0-.51-.07-1-.07-1.57s0-1.1-.05-1.74c-.08-1.91-.66-2.74-2.55-2.74h-2.28v7.59h-2.79Zm5,7.79a2.58,2.58,0,0,0,2.79-2.84c0-1.87-.78-2.85-2.64-2.85h-2.38V88Z" fill="#3b4351"/><path d="M592.82,80.25h9.46V82.6h-6.66v4.85h6.27V89.8h-6.27v5.59h6.86v2.35h-9.66Z" fill="#3b4351"/><path d="M603.31,80.25h2.82l2.3,13.6h.05l2.3-13.6h2.94l2.36,13.67h0l2.28-13.67h2.77l-3.48,17.49h-3.23L612.2,84.56h-.05l-2.23,13.18h-3.23Z" fill="#3b4351"/><path d="M624.92,92.33v.44c0,2.13,1,3.21,2.87,3.21a2.51,2.51,0,0,0,2.64-2.55c0-1.84-.93-2.64-2.5-3.11L626,89.66c-2.55-1-3.65-2.31-3.65-4.81,0-3.18,2.18-4.95,5.44-4.95,4.48,0,5,2.8,5,4.61v.39H630v-.36c0-1.6-.69-2.53-2.45-2.53a2.24,2.24,0,0,0-2.36,2.53c0,1.49.76,2.25,2.63,3l1.88.69c2.48.88,3.56,2.2,3.56,4.63,0,3.72-2.26,5.27-5.79,5.27-4.34,0-5.32-2.89-5.32-5.34v-.42Z" fill="#3b4351"/></g></g></svg>