<svg xmlns="http://www.w3.org/2000/svg" viewBox="0 0 1847.91 113"><title>bc1000text</title><g id="YEARS"><g id="Right"><path d="M1775,62.41h6c2.78,0,5,1.25,5,4.5q0,3.36-2.73,4.21v0c2,.37,3.33,1.59,3.33,4.74s-2.23,5.07-5.72,5.07H1775Zm5.3,7.83c1.79,0,2.73-1.17,2.73-2.94,0-2.21-1.33-2.65-3-2.65h-2.08v5.59Zm.6,8.5c1.77,0,2.73-1.12,2.73-3.28a2.81,2.81,0,0,0-2.91-3.14h-2.76v6.42Z"/><path d="M1788.25,77.54h3V81h-3Z"/><path d="M1812,74.32v.39c0,3.35-1.38,6.63-5.72,6.63-4.68,0-6.14-3-6.14-9.65s1.46-9.64,6.17-9.64c5.28,0,5.59,3.87,5.59,5.82v.34h-3V67.9c0-1.74-.52-3.69-2.65-3.62s-3.17,1.36-3.17,7.34,1,7.48,3.17,7.48c2.5,0,2.76-2.73,2.76-4.47v-.31Z"/><path d="M1813.76,77.54h3V81h-3Z"/><path d="M1776.32,106V92.61h-3.82V90.69h.28c1.77,0,3.8-.44,4.34-2.76v-.36h2.16V106Z"/><path d="M1789.66,87.57c3.53,0,5.51,2.21,5.51,9.38s-2,9.39-5.51,9.39-5.52-2.21-5.52-9.39S1786.12,87.57,1789.66,87.57Zm0,16.69c2,0,2.54-2,2.54-7.31s-.54-7.3-2.54-7.3-2.55,2-2.55,7.3S1787.65,104.26,1789.66,104.26Z"/><path d="M1802.14,87.57c3.53,0,5.51,2.21,5.51,9.38s-2,9.39-5.51,9.39-5.52-2.21-5.52-9.39S1798.6,87.57,1802.14,87.57Zm0,16.69c2,0,2.54-2,2.54-7.31s-.54-7.3-2.54-7.3-2.55,2-2.55,7.3S1800.13,104.26,1802.14,104.26Z"/><path d="M1814.61,87.57c3.54,0,5.52,2.21,5.52,9.38s-2,9.39-5.52,9.39-5.51-2.21-5.51-9.39S1811.08,87.57,1814.61,87.57Zm0,16.69c2,0,2.55-2,2.55-7.31s-.54-7.3-2.55-7.3-2.54,2-2.54,7.3S1812.61,104.26,1814.61,104.26Z"/></g><g id="Layer_34" data-name="Layer 34"><path d="M15.22,66h6c2.78,0,5,1.25,5,4.5,0,2.23-.91,3.64-2.72,4.21v0c2,.37,3.32,1.59,3.32,4.73s-2.23,5.07-5.72,5.07H15.22Zm5.3,7.83c1.8,0,2.73-1.17,2.73-2.94,0-2.21-1.33-2.65-3-2.65H18.18v5.59Zm.6,8.5c1.77,0,2.73-1.12,2.73-3.28a2.81,2.81,0,0,0-2.91-3.14H18.18v6.42Z"/><path d="M28.5,81.14h3v3.43h-3Z"/><path d="M52.29,77.92v.39c0,3.35-1.38,6.63-5.72,6.63-4.68,0-6.13-3-6.13-9.65s1.45-9.64,6.16-9.64c5.28,0,5.59,3.87,5.59,5.82v.34h-3V71.5c0-1.75-.52-3.7-2.65-3.62s-3.17,1.35-3.17,7.33,1,7.49,3.17,7.49c2.5,0,2.76-2.73,2.76-4.47v-.31Z"/><path d="M54,81.14h3v3.43H54Z"/><path d="M16.57,109.57V96.21H12.75V94.29H13c1.77,0,3.8-.45,4.34-2.76v-.36h2.16v18.4Z"/><path d="M29.91,91.17c3.53,0,5.51,2.21,5.51,9.38s-2,9.39-5.51,9.39-5.52-2.21-5.52-9.39S26.37,91.17,29.91,91.17Zm0,16.69c2,0,2.54-2,2.54-7.31s-.54-7.3-2.54-7.3-2.55,2-2.55,7.3S27.9,107.86,29.91,107.86Z"/><path d="M42.39,91.17c3.53,0,5.51,2.21,5.51,9.38s-2,9.39-5.51,9.39-5.52-2.21-5.52-9.39S38.85,91.17,42.39,91.17Zm0,16.69c2,0,2.54-2,2.54-7.31s-.54-7.3-2.54-7.3-2.55,2-2.55,7.3S40.38,107.86,42.39,107.86Z"/><path d="M54.87,91.17c3.53,0,5.51,2.21,5.51,9.38s-2,9.39-5.51,9.39-5.52-2.21-5.52-9.39S51.33,91.17,54.87,91.17Zm0,16.69c2,0,2.54-2,2.54-7.31s-.54-7.3-2.54-7.3-2.55,2-2.55,7.3S52.86,107.86,54.87,107.86Z"/></g></g></svg>