<svg xmlns="http://www.w3.org/2000/svg" viewBox="0 0 1847.91 111"><title>bc1050text</title><g id="YEARS"><g id="Right"><path d="M1792.5,98.32V85h-3.82V83h.28c1.77,0,3.8-.44,4.35-2.75v-.37h2.15V98.32Z" fill="#3b4351"/><path d="M1805.84,79.91c3.53,0,5.51,2.21,5.51,9.39s-2,9.39-5.51,9.39-5.52-2.21-5.52-9.39S1802.3,79.91,1805.84,79.91Zm0,16.7c2,0,2.54-2,2.54-7.31s-.54-7.31-2.54-7.31-2.55,2-2.55,7.31S1803.83,96.61,1805.84,96.61Z" fill="#3b4351"/><path d="M1812.91,93.36h2.81v.49a2.35,2.35,0,0,0,2.41,2.6c2.08,0,2.63-2,2.63-4.18s-.57-3.93-2.47-3.93a2.35,2.35,0,0,0-2.42,1.69l-2.62-.11.91-9.64H1823v2.36h-6.65l-.6,4.84,0,0a4.06,4.06,0,0,1,3.09-1.43c3.85,0,4.81,3.25,4.81,6.09,0,3.69-1.69,6.5-5.66,6.5-3.31,0-5.15-1.69-5.15-4.94Z" fill="#3b4351"/><path d="M1830.8,79.91c3.53,0,5.51,2.21,5.51,9.39s-2,9.39-5.51,9.39-5.52-2.21-5.52-9.39S1827.26,79.91,1830.8,79.91Zm0,16.7c2,0,2.54-2,2.54-7.31S1832.8,82,1830.8,82s-2.55,2-2.55,7.31S1828.79,96.61,1830.8,96.61Z" fill="#3b4351"/></g><g id="left"><path d="M17.46,100.23V86.87H13.64V84.94h.29c1.77,0,3.79-.44,4.34-2.75v-.37h2.16v18.41Z" fill="#3b4351"/><path d="M30.8,81.82c3.54,0,5.51,2.21,5.51,9.39s-2,9.38-5.51,9.38-5.51-2.21-5.51-9.38S27.27,81.82,30.8,81.82Zm0,16.69c2,0,2.55-2,2.55-7.3S32.8,83.9,30.8,83.9s-2.55,2-2.55,7.31S28.8,98.51,30.8,98.51Z" fill="#3b4351"/><path d="M37.87,95.26h2.81v.5a2.35,2.35,0,0,0,2.42,2.6c2.08,0,2.63-2,2.63-4.19s-.58-3.92-2.48-3.92a2.34,2.34,0,0,0-2.41,1.69l-2.63-.11.91-9.64H48v2.36H41.33l-.6,4.84.06,0A4,4,0,0,1,43.88,88c3.85,0,4.81,3.25,4.81,6.08,0,3.7-1.69,6.5-5.67,6.5-3.3,0-5.15-1.69-5.15-4.94Z" fill="#3b4351"/><path d="M55.76,81.82c3.54,0,5.51,2.21,5.51,9.39s-2,9.38-5.51,9.38-5.51-2.21-5.51-9.38S52.22,81.82,55.76,81.82Zm0,16.69c2,0,2.55-2,2.55-7.3s-.55-7.31-2.55-7.31-2.55,2-2.55,7.31S53.76,98.51,55.76,98.51Z" fill="#3b4351"/></g></g><g id="Nation_OUtlines" data-name="Nation OUtlines"><polygon id="Iranians" points="1263.29 338.17 1235.95 224 1211.95 109.5 1241.29 -0.5 1280.62 -113 1217.95 -227.83 1163.29 -337.16 1140.62 -450.5 1175.95 -561 1153.29 -675.83 1137.95 -789.16 1188.62 -900.5 1153.95 -1013.16 1161.95 -1126 1156.67 -1241.27 1152.84 -1358.5 1131.29 -1465 1198.62 -1575.5 1275.29 -1687.5 1277.29 -1801.16 1268.62 -1910.83 1283.88 -2022.83 1411.11 -2022.83 1445.69 -1911.27 1480.18 -1800.6 1462.18 -1687.5 1438.19 -1575.5 1387.19 -1465 1387.19 -1353 1420.19 -1238.07 1429.19 -1126 1400.69 -1013.08 1417.19 -900 1343.69 -789 1325.69 -675 1345.19 -561 1313.69 -449 1298.69 -337 1310.69 -227 1348.19 -113 1313.69 0 1285.19 111 1294.19 224 1372.19 338.17 1373.74 446.73 1375.34 558.73 1376.98 674 1335.62 784 1348.62 896 1391.1 1008 1462.62 1119 1440.62 1231.73 1447.62 1348 1472.62 1460 1505.62 1571.73 1513.62 1681.73 1437.62 1793.73 1391.82 1908.73 1219.62 1794 1086.62 1682 890.71 1571.73 788.62 1460 767.62 1348 866.62 1232 1041.62 1118.73 1176.62 1007.73 1205.62 895.73 1242.62 783.73 1294.62 674 1322.62 561.17 1240.62 447 1263.29 338.17" fill="none" stroke="#3b4351" stroke-miterlimit="10"/><polygon id="Indians" points="1372.19 338.17 1294.19 224 1285.19 111 1313.69 0 1348.19 -113 1310.69 -227 1298.69 -337 1313.69 -449 1345.19 -561 1325.69 -675 1343.69 -789 1417.19 -900 1400.69 -1013.08 1429.19 -1126 1419.27 -1241.27 1387.19 -1353 1387.19 -1465 1438.19 -1575.5 1462.18 -1687.5 1480.18 -1800.54 1445.82 -1910.83 1411.11 -2022.83 1545.86 -2022.83 1580.1 -1910.83 1593.12 -1800.6 1552.12 -1687.5 1514.62 -1575.5 1514.12 -1465.33 1553.12 -1353.27 1548.12 -1241 1519.62 -1126 1534.12 -1012.33 1575.12 -900 1559.62 -789 1564.12 -675.27 1534.62 -561 1486.12 -449 1465.12 -337 1471.12 -227.83 1502.12 -113.83 1508.12 0 1534.62 111 1542.77 189.86 1555.62 338.17 1554.62 447 1567.12 559 1542.12 673.73 1498.12 784 1490.62 896 1513.12 1008 1568.62 1119 1544.12 1232 1530.62 1347.73 1523.62 1459.73 1532.62 1572 1565.12 1682 1543.62 1794 1514.12 1909 1490.12 2018.73 1495.62 2133 1517.12 2246.67 1528.12 2352 1580.62 2464.67 1578.12 2580.67 1578.12 2691.17 1560.12 2802.73 1526.62 2918 1467.62 3032 1381.62 3143.73 1270.62 3254 1090.12 3366.73 860.62 3475 1302.12 3590 1377.03 3702 1550.62 3815 1519.62 3924.83 1476.12 4037.83 1516.13 4151.83 1534.62 4264.17 1552.65 4374.83 1585.62 4488.73 1620.12 4603.83 1650.12 4714.83 1630.62 4822.73 1622.45 4939.73 1565.62 5050.83 1402.62 5164.17 1173.62 5276.83 1148.62 5387.83 1334.62 5502.83 1283.62 5616.83 1344.62 5725.83 1544.62 5838.83 1602.62 5953.17 1627.62 6064.83 1674.62 6177.73 1627.62 6292.83 1634.62 6404.83 1686.62 6516.83 1701.62 6629.83 1620.12 6741.83 1606.12 6852.83 1606.12 6966.66 1552.62 6966.66 1549.52 6852.83 1569.62 6741.83 1683.62 6629.83 1667.62 6516.83 1607.62 6404.83 1596.62 6292.17 1617.62 6177.83 1584.62 6064.83 1562.62 5952.83 1507.62 5838.83 1304.62 5725.73 1225.62 5616.73 1236.97 5579.78 1264.87 5502.83 1082.62 5387.83 1084.2 5277.34 1323.62 5164.83 1500.47 5050.73 1573.62 4939.83 1600.62 4822.83 1604.62 4714.83 1569.62 4603.83 1514.62 4488.83 1447.62 4374.73 1418.62 4262.83 1404.62 4151.83 1367.62 4037.83 1397.62 3924.83 1418.62 3814.73 1339.62 3701.73 1246.62 3590 748.62 3475 753.62 3367 910.76 3254 1053.62 3144 1195.2 3032 1311.62 2917.17 1353.62 2803 1348.62 2692 1364.62 2580.17 1406.62 2465 1401.62 2352 1429.62 2247 1394.62 2132.73 1393.2 2019 1391.82 1908.73 1437.52 1794 1513.62 1681.73 1505.64 1572 1472.62 1460.17 1447.62 1348 1440.63 1232 1462.62 1119 1391.1 1008 1348.62 896 1332.62 784 1376.98 674 1375.34 558.73 1373.74 446.73 1372.19 338.17" fill="none" stroke="#3b4351" stroke-miterlimit="10"/><polygon id="Huns" points="1555.62 338.17 1545.73 224 1533.62 110.67 1506.68 0.65 1502.16 -113 1471.34 -227 1465.12 -337 1486.12 -449 1534.62 -561 1564.05 -675 1559.62 -789 1575.12 -900 1534.24 -1012 1519.62 -1126 1548.12 -1241 1553.11 -1353 1514.47 -1465.27 1514.62 -1577.5 1552.12 -1687.5 1593.12 -1800.16 1580.1 -1910.83 1545.86 -2022.83 1633.99 -2022.83 1651.62 -1910.83 1667.62 -1800.16 1646.62 -1687.5 1620.62 -1575.5 1630.4 -1467.4 1650.62 -1353.33 1676.62 -1241 1700.12 -1126 1689.12 -1012 1714.62 -900.33 1697.12 -789.27 1645.62 -675.27 1616.12 -561 1586.62 -449.27 1538.12 -337.27 1509.12 -227 1551.62 -113 1585.12 0 1608.62 110.67 1609.69 223.73 1610.76 336.73 1613.62 446.73 1625.12 558.73 1599.12 674.67 1557.59 784 1545.65 896 1558.62 1008 1584.62 1118.73 1571.12 1232.17 1576.62 1348 1567.62 1460 1587.12 1572 1621.12 1682 1612.12 1794 1556.12 1909 1528.62 2019 1529.62 2133 1553.62 2247 1616.07 2352 1609.25 2465 1592.66 2581 1611.01 2691.73 1612.12 2803 1598.04 2918 1564.12 3032 1534.29 3144 1602.12 3253.73 1653.62 3367 1673.62 3475 1666.12 3590 1668.12 3701.67 1625.62 3814.67 1542.12 3924.83 1476.12 4037.83 1519.62 3924.83 1550.62 3815 1376.62 3701.73 1302.12 3590 860.62 3475 1090.12 3366.73 1270.62 3254 1381.62 3143.73 1467.62 3032 1526.62 2918 1560.12 2802.73 1578.12 2691.17 1578.12 2580.67 1580.62 2464.67 1528.12 2352 1517.12 2246.67 1495.62 2133 1490.12 2018.73 1514.12 1909 1543.62 1794 1565.12 1682 1532.62 1572 1523.62 1459.73 1530.62 1347.73 1544.12 1232 1568.62 1119 1513.12 1008 1490.62 896 1498.12 784 1542.12 673.73 1567.12 559 1554.62 447 1555.62 338.17" fill="none" stroke="#3b4351" stroke-miterlimit="10"/><polygon id="Hitites" points="347.74 336.73 337.24 224 361.62 111 400.62 0 439.62 -113 658.62 -227 742.62 -337 835.62 -449 785.62 -561 750.62 -675 770.62 -789 800.62 -900.83 733.62 -1012.27 656.62 -1126.08 662.62 -1241 633.62 -1353 663.62 -1465 786.62 -1575.5 940.62 -1687.5 982.62 -1800.16 1042.62 -1910.83 1103.77 -2022.83 1152.07 -2022.83 1091.29 -1910.83 1025.29 -1800.16 1027.29 -1687.5 910.76 -1575.5 823.95 -1465 785.95 -1353 826.62 -1241 853.28 -1126 910.76 -1012.27 992.62 -900 961.95 -789.83 971.95 -675.16 969.28 -561 975.28 -449.16 954.62 -339.16 857.28 -227 623.95 -113 566.62 0 481.23 111 394.24 224 347.74 336.73" fill="none" stroke="#3b4351" stroke-miterlimit="10"/><polygon id="Greeks" points="1131.14 2352 1118.7 2247 998.71 2133 683.72 2019 467.73 1909 287.74 1794 231.95 1682 205.28 1572 169.95 1460 149.95 1348 137.95 1232 116.62 1119 111.95 1008 95.28 896 85.95 784 75.42 674 75.42 500.67 75.42 -789 142.25 -675 145.25 -561 155.75 -449 172.25 -337 202.25 -227 223.25 -113 251.62 0 250.62 111 221.95 224.84 228.6 336.73 199.95 446.84 217.95 558.84 237.43 674 262.62 784 259.95 896 319.29 1008 349.95 1119 401.29 1232 527.28 1348 645.95 1460 761.95 1572 965.29 1682 965.95 1794 897.95 1908.17 910.76 2018.73 1099.37 2133 1168.66 2247.09 1131.14 2352" fill="none" stroke="#3b4351" stroke-miterlimit="10"/><polygon id="Egyptians" points="1195.2 2462.31 1131.14 2352 1168.66 2247.09 1099.2 2132.73 910.76 2018.73 897.95 1908.17 965.95 1794 965.28 1681.5 761.95 1572 645.95 1460 527.28 1348 401.29 1232 349.95 1119 319.29 1008 259.95 896 262.62 784 238.62 674 217.95 559 199.95 447 228.62 337 221.62 224 250.62 111 251.62 0 223.25 -113 271.57 -227 265.25 -337 305.74 -449 341.74 -561 376.24 -675 440.74 -789 467.73 -899.09 443.74 -1012 381.96 -1126 242.75 -1241 298.62 -1353 424.24 -1465 460.24 -1575.5 397.24 -1687.5 319.24 -1800.16 319.24 -1910.83 298.62 -2022.83 1103.77 -2022.83 1042.62 -1910.83 982.62 -1800.16 940.62 -1687.5 786.62 -1575.5 663.62 -1465 633.62 -1353 662.62 -1241 656.62 -1126.08 733.62 -1012.27 800.62 -900.83 770.62 -789 750.62 -675 785.62 -561 835.62 -449 742.62 -337 658.62 -227 439.62 -113 400.62 0 361.62 111 302.62 224 310.62 337 282.62 447 271.95 559 305.95 784 323.95 895.5 432.62 1008 476.62 1118.17 451.95 1232 555.95 1348 667.28 1460 813.28 1572 968.62 1682 995.95 1794 968.62 1908.84 940.62 2017.5 1130.91 2132.73 1189.62 2247.67 1157.7 2352 1195.2 2462.31" fill="none" stroke="#3b4351" stroke-miterlimit="10"/><polygon id="Chinese" points="1610.76 336.73 1609.69 223.73 1608.62 110.67 1585.12 0 1551.62 -113 1509.12 -227 1538.12 -337.27 1586.62 -449.27 1616.12 -561 1645.62 -675.27 1697.12 -789.27 1714.62 -900.33 1689.12 -1012 1700.12 -1126 1676.62 -1241 1650.62 -1353.33 1630.62 -1465 1620.62 -1575.5 1646.62 -1687.5 1667.62 -1800.16 1651.62 -1910.83 1633.99 -2022.83 1768.79 -2022.83 1768.79 6177.83 1768.79 6292.73 1766.12 6404.83 1757.62 6516.83 1736.12 6629.73 1676.12 6741.73 1661.12 6852.83 1663.62 6966.66 1606.12 6966.66 1606.12 6852.73 1620.12 6741.83 1701.62 6629.83 1696.12 6516.67 1654.12 6404.83 1681.62 6292.83 1739.62 6177.73 1748.62 6064.67 1744.12 5952.67 1685.62 5838.83 1615.12 5728.17 1636.12 5616.83 1738.62 5502.83 1761.12 5387.83 1758.62 5276.83 1732.12 5164.83 1695.62 5050.83 1667.62 4939.83 1651.12 4822.83 1650.12 4714.83 1620.12 4603.83 1585.62 4488.73 1552.62 4374.73 1535.12 4262.83 1516.12 4151.73 1476.12 4037.83 1542.12 3924.83 1625.62 3814.67 1668.12 3701.67 1666.12 3590 1673.62 3475 1653.62 3367 1602.12 3253.73 1534.12 3143.73 1564.12 3032 1598.12 2917.73 1612.12 2803 1611.01 2691.73 1592.62 2580.73 1609.25 2465 1616.07 2352 1553.62 2247 1529.62 2133 1528.62 2018.73 1555.62 1909 1612.12 1794 1621.12 1682 1587.12 1572 1567.62 1460 1576.62 1348 1571.12 1232 1584.62 1118.73 1558.62 1008 1545.62 895.73 1557.62 783.73 1599.62 674 1625.12 558.73 1613.62 446.73 1610.76 336.73" fill="none" stroke="#3b4351" stroke-miterlimit="10"/><polygon id="Amorites" points="1263.29 338.17 1240.62 447 1322.62 559 1294.62 674 1242.62 783.73 1205.62 895.73 1176.62 1007.73 1041.62 1118.73 866.62 1232 767.62 1348 788.62 1460 890.71 1571.73 762.62 1459.73 716.62 1347.73 709.62 1232 755.62 1119 1054.29 1007.73 1156.62 896 1173.62 782.17 1199.62 672.17 1138.62 559 910.76 447 832.62 336.73 949.95 224 1040.62 110.73 1141.31 0 1225.29 -113.16 1147.62 -227 1085.29 -337 1061.29 -449.27 1028.62 -561.27 971.95 -675.16 961.95 -789.83 992.62 -900 910.76 -1012.27 853.28 -1126 826.62 -1241 785.95 -1353 823.95 -1465 910.76 -1575.5 1027.29 -1687.5 1025.29 -1800.16 1091.29 -1910.83 1152.07 -2022.83 1283.88 -2022.83 1268.62 -1910.83 1277.29 -1801.16 1275.29 -1687.5 1198.62 -1575.5 1131.29 -1465 1153.95 -1353 1156.67 -1241.27 1161.95 -1126 1153.95 -1013.16 1188.62 -900.5 1137.95 -789.16 1153.29 -675.83 1175.95 -561 1140.62 -450.5 1163.29 -337.16 1217.95 -227.83 1280.62 -113 1241.29 -0.5 1211.95 109.5 1235.95 224 1263.29 338.17" fill="none" stroke="#3b4351" stroke-miterlimit="10"/><polygon id="Assyrian_Kingdom" data-name="Assyrian Kingdom" points="631.95 336.73 635.28 224 679.9 111 701.28 0 799.28 -113 980.62 -227 1007.95 -337 1020.62 -449 998.62 -561 971.95 -675.16 1028.62 -561.27 1061.29 -449.27 1085.29 -337 1147.62 -227 1225.29 -113.16 1141.31 0 1040.62 110.73 949.95 224 832.62 336.73 910.76 447 1138.62 559 1199.62 672.17 1173.62 782.17 1156.62 896 1054.29 1007.73 755.62 1119 709.62 1232 716.62 1347.73 658.28 1232 654.62 1119 630.95 1008 510.62 896 518.62 784 595.95 674 638.62 559 643.28 447 631.95 336.73" fill="none" stroke="#3b4351" stroke-miterlimit="10"/><polygon id="OPians" points="305.95 784 289.61 675.83 271.95 559 282.62 447 310.62 337 302.62 224 361.62 111 337.24 224 347.74 336.73 359.29 559 383.29 674 387.95 784 375.82 896 465.29 1008 476.62 1118.17 432.62 1008 323.95 895.5 305.95 784" fill="none" stroke="#3b4351" stroke-miterlimit="10"/><polygon id="Hebrews" points="635.28 224 631.95 336.73 643.28 447 638.62 559 595.95 674 518.62 784 510.62 896 630.95 1008 654.62 1119 658.28 1232 716.62 1347.73 647.18 1232 644.62 1119 617.95 1008 493.29 896 500.03 784 570.62 674 613.28 560 583.28 447 569.28 337 511.95 224 573.95 111 630.62 0 697.58 -113 921.28 -227 989.95 -337 1020.62 -449 1007.95 -337 980.62 -227 799.28 -113 701.28 0 679.9 111 635.28 224" fill="none" stroke="#3b4351" stroke-miterlimit="10"/><polygon points="1130.91 2132.73 940.62 2017.5 968.62 1908.84 995.95 1794 968.62 1682 813.28 1572 667.28 1460 624.62 1348 611.95 1232 608.62 1119 523.28 1008 375.82 896 387.95 784 383.29 674 359.29 559 340.62 448.16 347.74 336.73 394.24 224 481.23 111 566.62 0 623.95 -113 857.28 -227 954.62 -339.16 975.28 -449.16 969.28 -561 971.95 -675.16 998.62 -561 1020.62 -449 989.95 -337 921.28 -227 697.58 -113 630.62 0 573.95 111 511.95 224 538.62 337 509.95 447 479.29 559 428.62 674 439.95 784 493.29 896 617.95 1008 644.62 1119 647.18 1232 716.62 1347.73 762.62 1459.73 890.71 1571.73 1086.62 1682 1219.62 1794 1225.12 1909 1186.62 2019 1130.91 2132.73" fill="none" stroke="#3b4351" stroke-miterlimit="10"/></g><g id="Text"><g id="Indians-2" data-name="Indians"><path d="M1366.35,12h2.79V29.49h-2.79Z" fill="#3b4351"/><path d="M1371.91,12h3.41l5.07,13h0V12h2.65V29.49h-3.41l-5.07-13.38h0V29.49h-2.65Z" fill="#3b4351"/><path d="M1386,12h5c5.49,0,6.17,3.57,6.17,8.74s-.68,8.75-6.17,8.75h-5Zm2.8,15.39h2.3c2.31,0,3.26-1.52,3.26-6.65,0-4.92-.83-6.64-3.26-6.64h-2.3Z" fill="#3b4351"/><path d="M1399.47,12h2.8V29.49h-2.8Z" fill="#3b4351"/><path d="M1408.34,12h3.58l4.61,17.49h-2.92l-1.08-4.29h-5.12l-1.13,4.29h-2.91Zm3.73,11-2-8.62h0L1407.93,23Z" fill="#3b4351"/><path d="M1417.75,12h3.41l5.07,13h0V12h2.65V29.49h-3.41l-5.07-13.38h0V29.49h-2.65Z" fill="#3b4351"/><path d="M1434,24.08v.44c0,2.13,1,3.21,2.87,3.21a2.51,2.51,0,0,0,2.64-2.55c0-1.84-.93-2.65-2.5-3.11l-1.91-.66c-2.55-1-3.65-2.31-3.65-4.81,0-3.18,2.18-5,5.44-5,4.49,0,5,2.8,5,4.61v.39H1439v-.37c0-1.59-.69-2.52-2.45-2.52a2.24,2.24,0,0,0-2.36,2.52c0,1.5.76,2.26,2.63,3l1.88.69c2.48.88,3.56,2.2,3.56,4.63,0,3.72-2.26,5.27-5.79,5.27-4.33,0-5.31-2.9-5.31-5.35v-.41Z" fill="#3b4351"/><path d="M1409.85,39a20.65,20.65,0,0,0-2.79,11,21.38,21.38,0,0,0,2.79,11H1408a18.71,18.71,0,0,1,0-22Z" fill="#3b4351"/><path d="M1411.3,39h2.79v7h5.15V39H1422V56.49h-2.79V48.36h-5.15v8.13h-2.79Z" fill="#3b4351"/><path d="M1424.87,38.8h2.65v2.65h-2.65Zm0,4.51h2.65V56.49h-2.65Z" fill="#3b4351"/><path d="M1430.18,43.31h2.5v1.54h.08a3.78,3.78,0,0,1,3.38-1.88c2,0,3.28.9,3.28,3.57v10h-2.64v-9c0-1.76-.47-2.38-1.84-2.38-1.08,0-2.11.81-2.11,2.58v8.84h-2.65Z" fill="#3b4351"/><path d="M1448.71,54.88h0a2.83,2.83,0,0,1-2.89,2c-3.07,0-4.32-2.6-4.32-7.11,0-5.86,2.06-6.76,4.07-6.76a3,3,0,0,1,3,1.88h0V39h2.65V56.49h-2.5Zm-2.4-9.81c-1.5,0-2.06,1.23-2.06,4.78,0,3,.37,4.88,2.23,4.88s2.23-1.84,2.23-4.68C1448.71,46.89,1448.36,45.07,1446.31,45.07Z" fill="#3b4351"/><path d="M1460.49,55h-.07a3.79,3.79,0,0,1-3.38,1.89c-2,0-3.29-.91-3.29-4.32V43.31h2.65v9.46c0,1.47.64,2,1.79,2a2.06,2.06,0,0,0,2.16-2.21V43.31H1463V56.49h-2.5Z" fill="#3b4351"/><path d="M1471.22,47.16v-.35c0-1.05-.37-2-1.74-2-1,0-1.88.46-1.88,1.71,0,1.06.46,1.45,1.86,1.94l1.69.59c2,.66,2.87,1.71,2.87,3.8,0,2.81-2.09,4-4.73,4-3.34,0-4.34-1.55-4.34-4.1v-.49h2.35v.42c0,1.54.52,2.35,2.06,2.35s2.16-.73,2.16-1.93a1.91,1.91,0,0,0-1.45-1.94l-2.16-.76c-2-.66-2.81-1.69-2.81-3.8,0-2.47,1.76-3.62,4.5-3.62,3.36,0,4.12,2,4.12,3.6v.59Z" fill="#3b4351"/><path d="M1474.7,61a20.67,20.67,0,0,0,2.79-11,21.38,21.38,0,0,0-2.79-11h1.89a18.71,18.71,0,0,1,0,22Z" fill="#3b4351"/></g><g id="Chinese-2" data-name="Chinese"><path d="M1619.74,25.45v.37c0,3.16-1.3,6.24-5.4,6.24-4.41,0-5.78-2.84-5.78-9.09s1.37-9.09,5.81-9.09c5,0,5.27,3.65,5.27,5.49v.32h-2.8V19.4c0-1.65-.49-3.48-2.5-3.41s-3,1.27-3,6.91.91,7.06,3,7.06c2.36,0,2.6-2.58,2.6-4.22v-.29Z" fill="#3b4351"/><path d="M1621.52,14.22h2.65V20l.07.05a3.77,3.77,0,0,1,3.24-1.82c2,0,3.28.91,3.28,3.58v10h-2.65v-9c0-1.74-.49-2.38-1.83-2.38-1.08,0-2.11.84-2.11,2.58v8.84h-2.65Z" fill="#3b4351"/><path d="M1632.79,25.13c0-4.12,1.08-6.94,4.9-6.94s4.93,2.82,4.93,6.94-1.28,6.93-4.93,6.93S1632.79,29.25,1632.79,25.13Zm4.9,5c1.94,0,2.28-1.61,2.28-5,0-2.92-.34-5-2.28-5s-2.25,2.05-2.25,5C1635.44,28.49,1635.81,30.1,1637.69,30.1Z" fill="#3b4351"/><path d="M1651.39,30.18h-.08a3.78,3.78,0,0,1-3.38,1.88c-2,0-3.28-.9-3.28-4.31V18.54h2.65V28c0,1.47.63,2,1.78,2a2.06,2.06,0,0,0,2.16-2.21V18.54h2.65V31.72h-2.5Z" fill="#3b4351"/><path d="M1662.48,14.22h5c5.49,0,6.17,3.58,6.17,8.75s-.68,8.75-6.17,8.75h-5Zm2.8,15.39h2.3c2.31,0,3.26-1.51,3.26-6.64,0-4.92-.83-6.64-3.26-6.64h-2.3Z" fill="#3b4351"/><path d="M1677.7,18.54l2.28,9.9h0l2.11-9.9h2.76l-3.62,13.67c-1.06,3.6-1.87,4.09-4.61,4a4.62,4.62,0,0,1-1.05-.1V34a3.51,3.51,0,0,0,.85.09c.91,0,1.5-.17,1.79-1l.35-1.07-3.75-13.48Z" fill="#3b4351"/><path d="M1686.37,18.54h2.5v1.54h.07a3.82,3.82,0,0,1,3.39-1.89c2,0,3.28.91,3.28,3.58v10H1693v-9c0-1.76-.46-2.38-1.83-2.38-1.08,0-2.11.81-2.11,2.58v8.84h-2.65Z" fill="#3b4351"/><path d="M1706.81,29c0,.49.29.93.68.93a1,1,0,0,0,.44-.08v1.72a2.78,2.78,0,0,1-1.29.32c-1.18,0-2.16-.47-2.23-1.74h-.05a3.41,3.41,0,0,1-3.29,1.93c-2.13,0-3.43-1.15-3.43-3.7,0-2.94,1.3-3.55,3.06-4.14l2.06-.56c1-.27,1.55-.54,1.55-1.69s-.42-2-1.82-2c-1.76,0-2,1.25-2,2.52H1698c0-2.82,1.16-4.34,4.64-4.34,2.32,0,4.19.91,4.19,3.24Zm-2.5-4.22a20.5,20.5,0,0,1-2.94,1.23,2.17,2.17,0,0,0-1.08,2.13c0,1.1.54,2,1.64,2,1.59,0,2.38-1.17,2.38-3.13Z" fill="#3b4351"/><path d="M1715.18,22.39V22c0-1.05-.36-2-1.74-2-1,0-1.88.46-1.88,1.71,0,1.06.46,1.45,1.86,1.94l1.69.59c2,.66,2.87,1.71,2.87,3.8,0,2.81-2.08,4-4.73,4-3.33,0-4.34-1.54-4.34-4.09v-.49h2.35v.42c0,1.54.52,2.35,2.06,2.35s2.16-.73,2.16-1.93a1.91,1.91,0,0,0-1.45-1.94l-2.15-.76c-2-.66-2.82-1.69-2.82-3.8,0-2.47,1.76-3.63,4.51-3.63,3.36,0,4.11,2,4.11,3.61v.59Z" fill="#3b4351"/><path d="M1718.76,18.54h1.81V14.79h2.65v3.75h2.16v2h-2.16v7.86c0,1.06.29,1.4,1.2,1.4a5.1,5.1,0,0,0,1-.07v2a8.58,8.58,0,0,1-2.14.22c-1.76,0-2.67-.52-2.67-3.19V20.5h-1.81Z" fill="#3b4351"/><path d="M1728.51,18.54l2.28,9.9h0l2.11-9.9h2.77l-3.63,13.67c-1,3.6-1.86,4.09-4.61,4a4.73,4.73,0,0,1-1-.1V34a3.54,3.54,0,0,0,.86.09c.9,0,1.49-.17,1.79-1l.34-1.07-3.75-13.48Z" fill="#3b4351"/></g><g id="Hittites"><g id="small"><path d="M409.47,10.55h1.6v10h-1.6Z" fill="#3b4351"/><path d="M412.55,13H414v.88h0A2.17,2.17,0,0,1,416,12.82c1.15,0,1.88.52,1.88,2v5.69h-1.51V15.39c0-1-.27-1.36-1.05-1.36-.62,0-1.21.46-1.21,1.47v5.06h-1.51Z" fill="#3b4351"/><path d="M418.65,13h1.63L421.59,19h0L422.81,13h1.61l-2,7.54h-1.76Z" fill="#3b4351"/><path d="M430,19c0,.28.17.53.4.53a.57.57,0,0,0,.25,0v1a1.58,1.58,0,0,1-.74.18c-.68,0-1.24-.27-1.28-1h0a1.94,1.94,0,0,1-1.87,1.1c-1.22,0-2-.66-2-2.11a2.09,2.09,0,0,1,1.76-2.37l1.17-.32c.55-.16.88-.31.88-1s-.23-1.12-1-1.12c-1,0-1.15.72-1.15,1.44H425c0-1.61.66-2.48,2.65-2.48,1.33,0,2.39.52,2.39,1.85Zm-1.43-2.41a11.88,11.88,0,0,1-1.68.7,1.24,1.24,0,0,0-.61,1.22c0,.63.31,1.13.94,1.13.91,0,1.35-.67,1.35-1.79Z" fill="#3b4351"/><path d="M434.81,15.22V15c0-.6-.21-1.16-1-1.16-.61,0-1.08.27-1.08,1s.26.83,1.06,1.11l1,.33a2,2,0,0,1,1.64,2.18c0,1.61-1.19,2.29-2.71,2.29-1.9,0-2.48-.88-2.48-2.34v-.28h1.35v.24c0,.88.29,1.35,1.18,1.35S435,19.3,435,18.61a1.09,1.09,0,0,0-.83-1.11l-1.23-.43a2,2,0,0,1-1.61-2.17c0-1.42,1-2.08,2.58-2.08,1.92,0,2.35,1.12,2.35,2.06v.34Z" fill="#3b4351"/><path d="M437.59,10.44h1.52V12h-1.52Zm0,2.58h1.52v7.54h-1.52Z" fill="#3b4351"/><path d="M445.58,19c0,.28.17.53.39.53a.54.54,0,0,0,.25,0v1a1.58,1.58,0,0,1-.74.18c-.67,0-1.23-.27-1.28-1h0a2,2,0,0,1-1.88,1.1c-1.22,0-2-.66-2-2.11a2.08,2.08,0,0,1,1.75-2.37l1.18-.32c.54-.16.88-.31.88-1s-.24-1.12-1-1.12c-1,0-1.15.72-1.15,1.44h-1.43c0-1.61.66-2.48,2.65-2.48,1.33,0,2.4.52,2.4,1.85Zm-1.43-2.41a12.39,12.39,0,0,1-1.68.7,1.23,1.23,0,0,0-.62,1.22c0,.63.31,1.13.94,1.13.91,0,1.36-.67,1.36-1.79Z" fill="#3b4351"/><path d="M447.11,13h1.43v.88h0a2.15,2.15,0,0,1,1.93-1.08c1.15,0,1.88.52,1.88,2v5.69h-1.52V15.39c0-1-.26-1.36-1.05-1.36-.61,0-1.2.46-1.2,1.47v5.06h-1.52Z" fill="#3b4351"/><path d="M457.21,10.55h1.51V13.9h0a1.74,1.74,0,0,1,1.71-1.08c1.15,0,2.32.52,2.32,3.87,0,2.59-.71,4.06-2.46,4.06a1.62,1.62,0,0,1-1.66-1.12h0v.93h-1.43Zm2.7,9c1.07,0,1.28-1.08,1.28-2.79,0-2-.33-2.73-1.18-2.73-1.18,0-1.37,1-1.37,2.84C458.64,18.5,458.88,19.55,459.91,19.55Z" fill="#3b4351"/><path d="M464.78,13l1.31,5.66h0L467.32,13h1.58l-2.07,7.82c-.6,2.06-1.07,2.34-2.64,2.29a3,3,0,0,1-.6-.05V21.87a1.65,1.65,0,0,0,.49.06c.52,0,.86-.1,1-.59l.2-.62L463.16,13Z" fill="#3b4351"/><path d="M474.57,10.55h2l2.64,10h-1.67L477,18.1H474l-.65,2.46h-1.66Zm2.13,6.28-1.15-4.93h0l-1.19,4.93Z" fill="#3b4351"/><path d="M483.1,15.22V15c0-.6-.21-1.16-1-1.16-.6,0-1.08.27-1.08,1s.27.83,1.07,1.11l1,.33a2,2,0,0,1,1.64,2.18c0,1.61-1.19,2.29-2.7,2.29-1.91,0-2.48-.88-2.48-2.34v-.28h1.34v.24c0,.88.3,1.35,1.18,1.35s1.23-.42,1.23-1.11a1.09,1.09,0,0,0-.82-1.11l-1.24-.43a2,2,0,0,1-1.61-2.17c0-1.42,1-2.08,2.58-2.08,1.92,0,2.35,1.12,2.35,2.06v.34Z" fill="#3b4351"/><path d="M489.06,15.22V15c0-.6-.21-1.16-1-1.16-.61,0-1.08.27-1.08,1s.26.83,1.06,1.11l1,.33a2,2,0,0,1,1.64,2.18c0,1.61-1.19,2.29-2.71,2.29-1.9,0-2.48-.88-2.48-2.34v-.28h1.35v.24c0,.88.29,1.35,1.18,1.35s1.23-.42,1.23-1.11a1.09,1.09,0,0,0-.83-1.11l-1.23-.43a2,2,0,0,1-1.61-2.17c0-1.42,1-2.08,2.58-2.08,1.91,0,2.35,1.12,2.35,2.06v.34Z" fill="#3b4351"/><path d="M492.78,13l1.31,5.66h0L495.32,13h1.58l-2.07,7.82c-.6,2.06-1.07,2.34-2.64,2.29a3,3,0,0,1-.6-.05V21.87a1.65,1.65,0,0,0,.49.06c.52,0,.86-.1,1-.59l.2-.62L491.16,13Z" fill="#3b4351"/><path d="M497.74,13h1.51V14.2h0A1.88,1.88,0,0,1,501,12.82a.87.87,0,0,1,.36.06v1.54a2.18,2.18,0,0,0-.63-.08c-.68,0-1.51.31-1.51,1.71v4.51h-1.51Z" fill="#3b4351"/><path d="M502.22,10.44h1.51V12h-1.51Zm0,2.58h1.51v7.54h-1.51Z" fill="#3b4351"/><path d="M510.2,19c0,.28.17.53.39.53a.54.54,0,0,0,.25,0v1a1.55,1.55,0,0,1-.74.18c-.67,0-1.23-.27-1.27-1h0a2,2,0,0,1-1.88,1.1c-1.22,0-2-.66-2-2.11a2.08,2.08,0,0,1,1.75-2.37l1.18-.32c.55-.16.88-.31.88-1s-.24-1.12-1-1.12c-1,0-1.14.72-1.14,1.44h-1.43c0-1.61.66-2.48,2.65-2.48,1.33,0,2.39.52,2.39,1.85Zm-1.43-2.41a12.39,12.39,0,0,1-1.68.7,1.25,1.25,0,0,0-.62,1.22c0,.63.31,1.13.94,1.13.91,0,1.36-.67,1.36-1.79Z" fill="#3b4351"/><path d="M511.74,13h1.43v.88h0a2.17,2.17,0,0,1,1.93-1.08c1.15,0,1.88.52,1.88,2v5.69h-1.51V15.39c0-1-.27-1.36-1.06-1.36-.61,0-1.2.46-1.2,1.47v5.06h-1.51Z" fill="#3b4351"/><path d="M521.72,15.22V15c0-.6-.21-1.16-1-1.16-.61,0-1.08.27-1.08,1s.26.83,1.06,1.11l1,.33a2,2,0,0,1,1.64,2.18c0,1.61-1.19,2.29-2.71,2.29-1.9,0-2.47-.88-2.47-2.34v-.28h1.34v.24c0,.88.29,1.35,1.18,1.35s1.23-.42,1.23-1.11a1.09,1.09,0,0,0-.83-1.11l-1.23-.43a2,2,0,0,1-1.61-2.17c0-1.42,1-2.08,2.58-2.08,1.92,0,2.35,1.12,2.35,2.06v.34Z" fill="#3b4351"/><path d="M524.59,18.71h1.6v1.85h-1.6Z" fill="#3b4351"/><path d="M389.5,73h2.05l2.63,10h-1.66l-.62-2.45H389L388.33,83h-1.67Zm2.13,6.28-1.15-4.93h0l-1.19,4.93Z" fill="#3b4351"/><path d="M394.78,75.48h1.51v1.18h0a1.87,1.87,0,0,1,1.75-1.38.92.92,0,0,1,.37.06v1.54a2.23,2.23,0,0,0-.63-.09c-.69,0-1.52.31-1.52,1.71V83h-1.51Z" fill="#3b4351"/><path d="M404.05,81.45c0,.28.17.53.39.53a.78.78,0,0,0,.26,0v1a1.76,1.76,0,0,1-.75.18c-.67,0-1.23-.27-1.27-1h0a1.94,1.94,0,0,1-1.88,1.11c-1.22,0-2-.66-2-2.11a2.07,2.07,0,0,1,1.75-2.37l1.18-.32c.55-.16.88-.31.88-1s-.24-1.12-1-1.12c-1,0-1.15.71-1.15,1.44H399c0-1.61.66-2.48,2.65-2.48,1.33,0,2.39.52,2.39,1.85ZM402.62,79a13.82,13.82,0,0,1-1.68.7,1.23,1.23,0,0,0-.61,1.22c0,.63.3,1.13.93,1.13.91,0,1.36-.67,1.36-1.79Z" fill="#3b4351"/><path d="M405.66,75.48h1.43v.88h0a2.12,2.12,0,0,1,1.81-1.08,1.65,1.65,0,0,1,1.75,1.15,2,2,0,0,1,1.9-1.15c1.07,0,1.84.55,1.84,2V83h-1.52V77.85c0-1-.29-1.36-.91-1.36s-1.2.47-1.2,1.47V83h-1.51V77.85c0-1-.3-1.36-.93-1.36s-1.19.49-1.19,1.47V83h-1.51Z" fill="#3b4351"/><path d="M417.25,79.44v.44c0,1,.13,2.29,1.26,2.29s1.21-1.21,1.21-1.68h1.42a2.47,2.47,0,0,1-2.64,2.72c-1.24,0-2.76-.36-2.76-3.85,0-2,.43-4.08,2.79-4.08,2.1,0,2.66,1.28,2.66,3.36v.8Zm2.42-1V78c0-1-.3-1.68-1.16-1.68s-1.26,1-1.26,1.93v.16Z" fill="#3b4351"/><path d="M427.37,81.45c0,.28.17.53.4.53a.76.76,0,0,0,.25,0v1a1.71,1.71,0,0,1-.74.18c-.68,0-1.24-.27-1.28-1h0a1.93,1.93,0,0,1-1.87,1.11c-1.22,0-2-.66-2-2.11a2.07,2.07,0,0,1,1.75-2.37l1.17-.32c.55-.16.89-.31.89-1s-.24-1.12-1-1.12c-1,0-1.15.71-1.15,1.44h-1.43c0-1.61.66-2.48,2.65-2.48,1.33,0,2.39.52,2.39,1.85ZM426,79a13.82,13.82,0,0,1-1.68.7,1.22,1.22,0,0,0-.62,1.22c0,.63.31,1.13.94,1.13.91,0,1.36-.67,1.36-1.79Z" fill="#3b4351"/><path d="M428.91,75.48h1.43v.88h0a2.18,2.18,0,0,1,1.94-1.08c1.14,0,1.87.52,1.87,2V83h-1.51V77.85c0-1-.27-1.36-1.05-1.36-.62,0-1.21.46-1.21,1.47V83h-1.51Z" fill="#3b4351"/><path d="M439.08,73h1.51V83h-1.51Z" fill="#3b4351"/><path d="M447.06,81.45c0,.28.17.53.39.53a.72.72,0,0,0,.25,0v1a1.71,1.71,0,0,1-.74.18c-.67,0-1.23-.27-1.27-1h0a1.94,1.94,0,0,1-1.88,1.11c-1.22,0-2-.66-2-2.11a2.07,2.07,0,0,1,1.75-2.37l1.18-.32c.54-.16.88-.31.88-1s-.24-1.12-1-1.12c-1,0-1.15.71-1.15,1.44H442c0-1.61.65-2.48,2.64-2.48,1.33,0,2.4.52,2.4,1.85ZM445.63,79a13.82,13.82,0,0,1-1.68.7,1.22,1.22,0,0,0-.62,1.22c0,.63.31,1.13.94,1.13.91,0,1.36-.67,1.36-1.79Z" fill="#3b4351"/><path d="M448.6,75.48H450v.88h.05A2.15,2.15,0,0,1,452,75.28c1.15,0,1.88.52,1.88,2V83h-1.52V77.85c0-1-.26-1.36-1.05-1.36-.61,0-1.2.46-1.2,1.47V83H448.6Z" fill="#3b4351"/><path d="M456.84,83.66a1,1,0,0,0,1.09.9,1.25,1.25,0,0,0,1.28-1.42V81.92h0a1.82,1.82,0,0,1-1.71,1c-1.75,0-2.25-1.72-2.25-3.8,0-1.65.25-3.88,2.39-3.88a1.68,1.68,0,0,1,1.66,1.12h0v-.92h1.43v7.17c0,1.84-.78,2.94-2.81,2.94-2.24,0-2.5-1.31-2.5-1.93Zm1.07-1.91c1.17,0,1.3-1.48,1.3-2.67s-.15-2.59-1.21-2.59-1.27,1.12-1.27,2.52S456.79,81.75,457.91,81.75Z" fill="#3b4351"/><path d="M465.92,82.13h-.05a2.15,2.15,0,0,1-1.93,1.08c-1.12,0-1.88-.52-1.88-2.46V75.48h1.52v5.41c0,.84.36,1.12,1,1.12a1.17,1.17,0,0,0,1.23-1.26V75.48h1.51V83h-1.42Z" fill="#3b4351"/><path d="M473.74,81.45c0,.28.17.53.39.53a.78.78,0,0,0,.26,0v1a1.76,1.76,0,0,1-.75.18c-.67,0-1.23-.27-1.27-1h0a1.94,1.94,0,0,1-1.88,1.11c-1.21,0-2-.66-2-2.11a2.08,2.08,0,0,1,1.75-2.37l1.18-.32c.55-.16.88-.31.88-1s-.23-1.12-1-1.12c-1,0-1.15.71-1.15,1.44H468.7c0-1.61.66-2.48,2.65-2.48,1.33,0,2.39.52,2.39,1.85ZM472.31,79a13.82,13.82,0,0,1-1.68.7A1.23,1.23,0,0,0,470,81c0,.63.3,1.13.93,1.13.91,0,1.36-.67,1.36-1.79Z" fill="#3b4351"/><path d="M476.79,83.66a1,1,0,0,0,1.09.9,1.25,1.25,0,0,0,1.28-1.42V81.92h0a1.82,1.82,0,0,1-1.71,1c-1.75,0-2.25-1.72-2.25-3.8,0-1.65.25-3.88,2.39-3.88a1.68,1.68,0,0,1,1.66,1.12h0v-.92h1.43v7.17c0,1.84-.78,2.94-2.81,2.94-2.24,0-2.5-1.31-2.5-1.93Zm1.07-1.91c1.17,0,1.3-1.48,1.3-2.67S479,76.49,478,76.49s-1.27,1.12-1.27,2.52S476.74,81.75,477.86,81.75Z" fill="#3b4351"/><path d="M483.32,79.44v.44c0,1,.12,2.29,1.26,2.29s1.2-1.21,1.2-1.68h1.43a2.48,2.48,0,0,1-2.65,2.72c-1.23,0-2.76-.36-2.76-3.85,0-2,.44-4.08,2.79-4.08,2.1,0,2.66,1.28,2.66,3.36v.8Zm2.42-1V78c0-1-.31-1.68-1.16-1.68s-1.26,1-1.26,1.93v.16Z" fill="#3b4351"/><path d="M407.45,101.09h0a1.61,1.61,0,0,1-1.65,1.12c-1.75,0-2.47-1.48-2.47-4.06,0-3.35,1.18-3.87,2.33-3.87a1.75,1.75,0,0,1,1.71,1.08h0V92h1.52v10h-1.43Zm-1.38-5.6c-.85,0-1.17.7-1.17,2.73,0,1.71.21,2.79,1.27,2.79s1.28-1.05,1.28-2.68C407.45,96.52,407.25,95.49,406.07,95.49Z" fill="#3b4351"/><path d="M411.63,98.44v.44c0,1,.13,2.29,1.26,2.29s1.21-1.21,1.21-1.68h1.43a2.48,2.48,0,0,1-2.65,2.72c-1.23,0-2.76-.36-2.76-3.85,0-2,.43-4.08,2.79-4.08,2.1,0,2.66,1.28,2.66,3.36v.8Zm2.43-1V97c0-1-.31-1.68-1.17-1.68s-1.26,1-1.26,1.93v.16Z" fill="#3b4351"/><path d="M416.18,94.48h1.63l1.31,5.94h0l1.19-5.94H422L420,102H418.2Z" fill="#3b4351"/><path d="M424.08,98.44v.44c0,1,.12,2.29,1.26,2.29s1.2-1.21,1.2-1.68H428a2.48,2.48,0,0,1-2.65,2.72c-1.23,0-2.76-.36-2.76-3.85,0-2,.44-4.08,2.79-4.08,2.1,0,2.66,1.28,2.66,3.36v.8Zm2.42-1V97c0-1-.31-1.68-1.16-1.68s-1.26,1-1.26,1.93v.16Z" fill="#3b4351"/><path d="M429.33,92h1.51v10h-1.51Z" fill="#3b4351"/><path d="M432.07,98.25c0-2.36.62-4,2.8-4s2.82,1.61,2.82,4-.73,4-2.82,4S432.07,100.6,432.07,98.25Zm2.8,2.84c1.11,0,1.31-.92,1.31-2.84,0-1.67-.2-2.85-1.31-2.85s-1.29,1.18-1.29,2.85C433.58,100.17,433.79,101.09,434.87,101.09Z" fill="#3b4351"/><path d="M442.1,102.21a1.74,1.74,0,0,1-1.71-1.08h0v3.35h-1.51v-10h1.43v.92h0a1.8,1.8,0,0,1,1.7-1.12c1.72,0,2.42,1.47,2.42,4.06C444.42,101.51,443.15,102.21,442.1,102.21Zm-.55-6.72c-1,0-1.27,1.05-1.27,2.67,0,1.81.22,2.85,1.28,2.85.86,0,1.27-.65,1.27-2.74C442.83,96.57,442.62,95.49,441.55,95.49Z" fill="#3b4351"/><path d="M446.88,98.44v.44c0,1,.13,2.29,1.26,2.29s1.21-1.21,1.21-1.68h1.43a2.48,2.48,0,0,1-2.65,2.72c-1.23,0-2.76-.36-2.76-3.85,0-2,.44-4.08,2.79-4.08,2.1,0,2.66,1.28,2.66,3.36v.8Zm2.43-1V97c0-1-.31-1.68-1.17-1.68s-1.26,1-1.26,1.93v.16Z" fill="#3b4351"/><path d="M455.91,101.09h0a1.62,1.62,0,0,1-1.66,1.12c-1.75,0-2.46-1.48-2.46-4.06,0-3.35,1.18-3.87,2.32-3.87a1.74,1.74,0,0,1,1.71,1.08h0V92h1.51v10h-1.43Zm-1.37-5.6c-.85,0-1.17.7-1.17,2.73,0,1.71.21,2.79,1.27,2.79s1.27-1.05,1.27-2.68C455.91,96.52,455.72,95.49,454.54,95.49Z" fill="#3b4351"/><path d="M459,100.17h1.6V102H459Z" fill="#3b4351"/></g></g><g id="Egytians"><g id="small-2" data-name="small"><path d="M281.43,7.06H285a2.31,2.31,0,0,1,2.53,2.57c0,1.29-.56,2.29-1.66,2.45v0c1,.1,1.51.65,1.56,2.05,0,.66,0,1.43.06,2a1.1,1.1,0,0,0,.48.87h-1.81a1.84,1.84,0,0,1-.27-.89c0-.29,0-.6,0-.89s0-.63,0-1c0-1.09-.37-1.57-1.45-1.57H283v4.35h-1.59Zm2.87,4.45a1.48,1.48,0,0,0,1.6-1.63c0-1.06-.45-1.62-1.52-1.62H283v3.25Z" fill="#3b4351"/><path d="M293.79,15.49c0,.28.17.53.39.53a.59.59,0,0,0,.26,0v1a1.63,1.63,0,0,1-.75.18c-.67,0-1.23-.27-1.27-1h0a2,2,0,0,1-1.88,1.1c-1.21,0-2-.66-2-2.11a2.09,2.09,0,0,1,1.75-2.37l1.18-.32c.55-.16.88-.31.88-1s-.24-1.12-1-1.12c-1,0-1.15.72-1.15,1.44h-1.43c0-1.61.66-2.48,2.65-2.48,1.33,0,2.39.52,2.39,1.85Zm-1.43-2.41a12.39,12.39,0,0,1-1.68.7,1.24,1.24,0,0,0-.61,1.22c0,.63.3,1.13.93,1.13.91,0,1.36-.67,1.36-1.79Z" fill="#3b4351"/><path d="M295.4,9.52h1.43v.88h0a2.12,2.12,0,0,1,1.81-1.08,1.64,1.64,0,0,1,1.75,1.15,2,2,0,0,1,1.9-1.15c1.07,0,1.84.55,1.84,2v5.73h-1.52V11.89c0-1-.29-1.36-.91-1.36s-1.2.48-1.2,1.47v5.06H299V11.89c0-1-.3-1.36-.93-1.36s-1.19.49-1.19,1.47v5.06H295.4Z" fill="#3b4351"/><path d="M307,13.48v.44c0,1,.13,2.3,1.26,2.3s1.21-1.22,1.21-1.68h1.43a2.48,2.48,0,0,1-2.65,2.71c-1.23,0-2.76-.36-2.76-3.85,0-2,.43-4.08,2.79-4.08,2.1,0,2.66,1.28,2.66,3.37v.79Zm2.42-1V12c0-.95-.3-1.68-1.16-1.68s-1.26,1-1.26,1.93v.16Z" fill="#3b4351"/><path d="M315.42,11.72v-.2c0-.6-.21-1.16-1-1.16-.61,0-1.08.27-1.08,1s.26.83,1.06,1.11l1,.33A2,2,0,0,1,317,15c0,1.61-1.19,2.29-2.71,2.29-1.9,0-2.48-.88-2.48-2.34v-.28h1.35v.24c0,.88.29,1.35,1.18,1.35s1.23-.42,1.23-1.11a1.1,1.1,0,0,0-.83-1.11l-1.23-.43a2,2,0,0,1-1.61-2.17c0-1.42,1-2.08,2.58-2.08,1.91,0,2.35,1.13,2.35,2.06v.34Z" fill="#3b4351"/><path d="M319.44,13.48v.44c0,1,.12,2.3,1.26,2.3s1.2-1.22,1.2-1.68h1.43a2.48,2.48,0,0,1-2.65,2.71c-1.23,0-2.76-.36-2.76-3.85,0-2,.44-4.08,2.79-4.08,2.1,0,2.66,1.28,2.66,3.37v.79Zm2.42-1V12c0-.95-.31-1.68-1.16-1.68s-1.26,1-1.26,1.93v.16Z" fill="#3b4351"/><path d="M327.87,11.72v-.2c0-.6-.21-1.16-1-1.16-.6,0-1.08.27-1.08,1s.27.83,1.07,1.11l1,.33A2,2,0,0,1,329.46,15c0,1.61-1.19,2.29-2.7,2.29-1.91,0-2.48-.88-2.48-2.34v-.28h1.34v.24c0,.88.3,1.35,1.18,1.35S328,15.8,328,15.11a1.1,1.1,0,0,0-.82-1.11L326,13.57a2,2,0,0,1-1.62-2.17c0-1.42,1-2.08,2.58-2.08,1.92,0,2.35,1.13,2.35,2.06v.34Z" fill="#3b4351"/><path d="M335.85,12l-2.41-4.91h1.76l1.6,3.31,1.57-3.31h1.72L337.67,12l2.55,5.09h-1.77l-1.74-3.62-1.78,3.62h-1.72Z" fill="#3b4351"/><path d="M341,7.06h1.59v10H341Z" fill="#3b4351"/><path d="M344.08,7.06h1.59v10h-1.59Z" fill="#3b4351"/><path d="M347.31,15.21h1.6v1.85h-1.6Z" fill="#3b4351"/><path d="M280.11,33l-2.41-4.91h1.77l1.59,3.31,1.57-3.31h1.73L281.93,33l2.55,5.09h-1.76L281,34.44l-1.78,3.62h-1.72Z" fill="#3b4351"/><path d="M287.11,33l-2.41-4.91h1.77l1.59,3.31,1.57-3.31h1.73L288.93,33l2.55,5.09h-1.76L288,34.44l-1.78,3.62h-1.72Z" fill="#3b4351"/><path d="M292.23,28.06h1.6v10h-1.6Z" fill="#3b4351"/><path d="M298.56,32.72v-.2c0-.6-.21-1.16-1-1.16-.6,0-1.08.27-1.08,1s.27.83,1.07,1.11l1,.33A2,2,0,0,1,300.16,36c0,1.61-1.19,2.29-2.7,2.29-1.91,0-2.48-.88-2.48-2.34v-.28h1.34v.24c0,.88.3,1.35,1.18,1.35s1.23-.42,1.23-1.11a1.1,1.1,0,0,0-.82-1.11l-1.24-.43a2,2,0,0,1-1.61-2.17c0-1.42,1-2.08,2.58-2.08,1.92,0,2.35,1.13,2.35,2.06v.34Z" fill="#3b4351"/><path d="M300.61,30.52h1V28.38h1.52v2.14h1.23v1.12h-1.23v4.5c0,.6.16.8.68.8a2.64,2.64,0,0,0,.55,0V38a4.64,4.64,0,0,1-1.22.13c-1,0-1.53-.29-1.53-1.82V31.64h-1Z" fill="#3b4351"/><path d="M308.63,28.06h2.84c3.14,0,3.53,2,3.53,5s-.39,5-3.53,5h-2.84Zm1.6,8.79h1.31c1.32,0,1.86-.87,1.86-3.79s-.47-3.8-1.86-3.8h-1.31Z" fill="#3b4351"/><path d="M317.32,30.52l1.31,5.66h0l1.21-5.66h1.58l-2.07,7.82c-.6,2.06-1.07,2.34-2.64,2.29a3,3,0,0,1-.6-.05V39.37a1.65,1.65,0,0,0,.49.06c.52,0,.86-.1,1-.59l.2-.62-2.14-7.7Z" fill="#3b4351"/><path d="M322.28,30.52h1.43v.88h0a2.17,2.17,0,0,1,1.93-1.08c1.15,0,1.88.52,1.88,2v5.69h-1.51V32.89c0-1-.27-1.36-1.05-1.36-.62,0-1.21.46-1.21,1.47v5.06h-1.51Z" fill="#3b4351"/><path d="M334,36.49c0,.28.16.53.39.53a.57.57,0,0,0,.25,0v1a1.58,1.58,0,0,1-.74.18c-.67,0-1.23-.27-1.28-1h0a2,2,0,0,1-1.88,1.1c-1.22,0-2-.66-2-2.11a2.08,2.08,0,0,1,1.75-2.37l1.18-.32c.54-.16.88-.31.88-1s-.24-1.12-1-1.12c-1,0-1.15.72-1.15,1.44h-1.43c0-1.61.66-2.48,2.65-2.48,1.33,0,2.4.52,2.4,1.85Zm-1.43-2.41a12.39,12.39,0,0,1-1.68.7,1.23,1.23,0,0,0-.62,1.22c0,.63.31,1.13.94,1.13.91,0,1.36-.67,1.36-1.79Z" fill="#3b4351"/><path d="M338.74,32.72v-.2c0-.6-.21-1.16-1-1.16-.6,0-1.08.27-1.08,1s.27.83,1.07,1.11l1,.33A2,2,0,0,1,340.34,36c0,1.61-1.19,2.29-2.7,2.29-1.91,0-2.48-.88-2.48-2.34v-.28h1.34v.24c0,.88.3,1.35,1.18,1.35s1.23-.42,1.23-1.11a1.1,1.1,0,0,0-.82-1.11l-1.24-.43a2,2,0,0,1-1.61-2.17c0-1.42,1-2.08,2.58-2.08,1.92,0,2.35,1.13,2.35,2.06v.34Z" fill="#3b4351"/><path d="M340.79,30.52h1V28.38h1.51v2.14h1.24v1.12h-1.24v4.5c0,.6.17.8.69.8a2.64,2.64,0,0,0,.55,0V38a4.64,4.64,0,0,1-1.22.13c-1,0-1.53-.29-1.53-1.82V31.64h-1Z" fill="#3b4351"/><path d="M346.36,30.52l1.3,5.66h0l1.2-5.66h1.59l-2.08,7.82c-.6,2.06-1.06,2.34-2.63,2.29a3,3,0,0,1-.6-.05V39.37a1.65,1.65,0,0,0,.49.06c.52,0,.85-.1,1-.59l.2-.62-2.15-7.7Z" fill="#3b4351"/><path d="M350.43,36.21H352v1.85h-1.6Z" fill="#3b4351"/><path d="M261.09,49.06h3.16c1.92,0,2.76,1.2,2.76,2.91a2.71,2.71,0,0,1-2.93,3h-1.4v4.14h-1.59Zm1.59,4.66h1.14A1.5,1.5,0,0,0,265.41,52c0-1.08-.43-1.74-1.71-1.74h-1Z" fill="#3b4351"/><path d="M269.29,55.48v.44c0,1,.13,2.3,1.26,2.3s1.21-1.22,1.21-1.68h1.42a2.47,2.47,0,0,1-2.64,2.71c-1.24,0-2.76-.36-2.76-3.85,0-2,.43-4.08,2.78-4.08,2.11,0,2.67,1.28,2.67,3.37v.79Zm2.42-1V54c0-.95-.31-1.68-1.16-1.68s-1.26,1-1.26,1.93v.16Z" fill="#3b4351"/><path d="M274.47,51.52H276V52.7h0a1.88,1.88,0,0,1,1.75-1.38.87.87,0,0,1,.36.06v1.54a2.18,2.18,0,0,0-.63-.08c-.68,0-1.51.31-1.51,1.71v4.51h-1.51Z" fill="#3b4351"/><path d="M279,48.94h1.51v1.52H279Zm0,2.58h1.51v7.54H279Z" fill="#3b4351"/><path d="M281.69,55.29c0-2.35.62-4,2.8-4s2.82,1.62,2.82,4-.73,4-2.82,4S281.69,57.64,281.69,55.29Zm2.8,2.84c1.11,0,1.31-.92,1.31-2.84,0-1.67-.2-2.84-1.31-2.84s-1.28,1.17-1.28,2.84C283.21,57.21,283.42,58.13,284.49,58.13Z" fill="#3b4351"/><path d="M292.32,58.13h0a1.61,1.61,0,0,1-1.65,1.12c-1.75,0-2.47-1.48-2.47-4.06,0-3.35,1.18-3.87,2.33-3.87a1.74,1.74,0,0,1,1.71,1.08h0V49.06h1.51v10h-1.43ZM291,52.53c-.86,0-1.18.7-1.18,2.73,0,1.71.21,2.79,1.28,2.79s1.27-1,1.27-2.68C292.32,53.57,292.12,52.53,291,52.53Z" fill="#3b4351"/><path d="M298.27,55.29c0-2.35.61-4,2.8-4s2.82,1.62,2.82,4-.73,4-2.82,4S298.27,57.64,298.27,55.29Zm2.8,2.84c1.11,0,1.3-.92,1.3-2.84,0-1.67-.19-2.84-1.3-2.84s-1.29,1.17-1.29,2.84C299.78,57.21,300,58.13,301.07,58.13Z" fill="#3b4351"/><path d="M305.51,52.64h-1.05V51.52h1.05v-.7c0-1.41.68-1.88,1.92-1.88a6.2,6.2,0,0,1,.82.05v1.16h-.42c-.56,0-.81.21-.81.71v.66h1.23v1.12H307v6.42h-1.51Z" fill="#3b4351"/><path d="M316.15,58.13h0a1.61,1.61,0,0,1-1.65,1.12c-1.75,0-2.47-1.48-2.47-4.06,0-3.35,1.18-3.87,2.33-3.87A1.75,1.75,0,0,1,316,52.4h0V49.06h1.52v10h-1.43Zm-1.37-5.6c-.86,0-1.18.7-1.18,2.73,0,1.71.21,2.79,1.27,2.79s1.28-1,1.28-2.68C316.15,53.57,316,52.53,314.78,52.53Z" fill="#3b4351"/><path d="M320.33,55.48v.44c0,1,.13,2.3,1.26,2.3s1.21-1.22,1.21-1.68h1.43a2.48,2.48,0,0,1-2.65,2.71c-1.23,0-2.76-.36-2.76-3.85,0-2,.43-4.08,2.79-4.08,2.1,0,2.66,1.28,2.66,3.37v.79Zm2.43-1V54c0-.95-.31-1.68-1.17-1.68s-1.26,1-1.26,1.93v.16Z" fill="#3b4351"/><path d="M330.6,56.31c-.12,1.81-.7,2.94-2.58,2.94-2.19,0-2.8-1.61-2.8-4s.61-4,2.8-4A2.44,2.44,0,0,1,330.61,54H329.1c0-.7-.18-1.63-1.08-1.58-1.08,0-1.29,1.17-1.29,2.84s.21,2.84,1.29,2.84c.84,0,1.15-.68,1.15-1.82Z" fill="#3b4351"/><path d="M336.67,57.49c0,.28.17.53.39.53a.59.59,0,0,0,.26,0v1a1.63,1.63,0,0,1-.75.18c-.67,0-1.23-.27-1.27-1h0a1.94,1.94,0,0,1-1.88,1.1c-1.21,0-2-.66-2-2.11a2.09,2.09,0,0,1,1.75-2.37l1.18-.32c.55-.16.88-.31.88-1s-.23-1.12-1-1.12c-1,0-1.15.72-1.15,1.44h-1.43c0-1.61.66-2.48,2.65-2.48,1.33,0,2.39.52,2.39,1.85Zm-1.43-2.41a12.39,12.39,0,0,1-1.68.7A1.24,1.24,0,0,0,333,57c0,.63.3,1.13.94,1.13.91,0,1.35-.67,1.35-1.79Z" fill="#3b4351"/><path d="M342.06,58.13h0a1.6,1.6,0,0,1-1.65,1.12c-1.75,0-2.46-1.48-2.46-4.06,0-3.35,1.17-3.87,2.32-3.87A1.74,1.74,0,0,1,342,52.4h0V49.06h1.51v10h-1.43Zm-1.37-5.6c-.86,0-1.18.7-1.18,2.73,0,1.71.21,2.79,1.28,2.79s1.27-1,1.27-2.68C342.06,53.57,341.87,52.53,340.69,52.53Z" fill="#3b4351"/><path d="M346.25,55.48v.44c0,1,.12,2.3,1.26,2.3s1.2-1.22,1.2-1.68h1.43a2.48,2.48,0,0,1-2.65,2.71c-1.23,0-2.76-.36-2.76-3.85,0-2,.44-4.08,2.79-4.08,2.1,0,2.66,1.28,2.66,3.37v.79Zm2.42-1V54c0-.95-.31-1.68-1.16-1.68s-1.26,1-1.26,1.93v.16Z" fill="#3b4351"/><path d="M351.43,51.52h1.42v.88h0a2.15,2.15,0,0,1,1.93-1.08c1.15,0,1.88.52,1.88,2v5.69h-1.52V53.89c0-1-.26-1.36-1.05-1.36-.61,0-1.2.46-1.2,1.47v5.06h-1.51Z" fill="#3b4351"/><path d="M363.24,56.31c-.11,1.81-.7,2.94-2.57,2.94-2.19,0-2.8-1.61-2.8-4s.61-4,2.8-4A2.44,2.44,0,0,1,363.26,54h-1.51c0-.7-.19-1.63-1.08-1.58-1.08,0-1.29,1.17-1.29,2.84s.21,2.84,1.29,2.84c.84,0,1.15-.68,1.15-1.82Z" fill="#3b4351"/><path d="M365.68,55.48v.44c0,1,.12,2.3,1.26,2.3s1.2-1.22,1.2-1.68h1.43a2.48,2.48,0,0,1-2.65,2.71c-1.23,0-2.76-.36-2.76-3.85,0-2,.44-4.08,2.79-4.08,2.1,0,2.66,1.28,2.66,3.37v.79Zm2.42-1V54c0-.95-.31-1.68-1.16-1.68s-1.26,1-1.26,1.93v.16Z" fill="#3b4351"/><path d="M288.36,78.49c0,.28.17.53.39.53a.54.54,0,0,0,.25,0v1a1.55,1.55,0,0,1-.74.18c-.67,0-1.23-.27-1.27-1h0a2,2,0,0,1-1.88,1.1c-1.22,0-2-.66-2-2.11a2.08,2.08,0,0,1,1.75-2.37l1.18-.32c.54-.16.88-.31.88-1s-.24-1.12-1-1.12c-1,0-1.14.72-1.14,1.44h-1.43c0-1.61.66-2.48,2.64-2.48,1.33,0,2.4.52,2.4,1.85Zm-1.43-2.41a12.39,12.39,0,0,1-1.68.7,1.25,1.25,0,0,0-.62,1.22c0,.63.31,1.13.94,1.13.91,0,1.36-.67,1.36-1.79Z" fill="#3b4351"/><path d="M289.9,72.52h1.43v.88h0a2.17,2.17,0,0,1,1.93-1.08c1.15,0,1.88.52,1.88,2.05v5.69h-1.52V74.89c0-1-.26-1.36-1.05-1.36-.61,0-1.2.46-1.2,1.47v5.06H289.9Z" fill="#3b4351"/><path d="M300.48,79.13h0a1.6,1.6,0,0,1-1.65,1.12c-1.75,0-2.46-1.48-2.46-4.06,0-3.35,1.17-3.87,2.32-3.87a1.74,1.74,0,0,1,1.71,1.08h0V70.06h1.51v10h-1.43Zm-1.37-5.6c-.85,0-1.18.7-1.18,2.73,0,1.71.21,2.79,1.28,2.79s1.27-1,1.27-2.68C300.48,74.57,300.29,73.53,299.11,73.53Z" fill="#3b4351"/><path d="M310.58,79.13h0a1.61,1.61,0,0,1-1.65,1.12c-1.76,0-2.47-1.48-2.47-4.06,0-3.35,1.18-3.87,2.33-3.87a1.74,1.74,0,0,1,1.7,1.08h0V70.06H312v10h-1.43Zm-1.38-5.6c-.85,0-1.17.7-1.17,2.73,0,1.71.21,2.79,1.27,2.79s1.28-1,1.28-2.68C310.58,74.57,310.38,73.53,309.2,73.53Z" fill="#3b4351"/><path d="M314.76,76.48v.44c0,1,.13,2.3,1.26,2.3s1.21-1.22,1.21-1.68h1.43A2.48,2.48,0,0,1,316,80.25c-1.24,0-2.76-.36-2.76-3.85,0-2,.43-4.08,2.79-4.08,2.1,0,2.66,1.28,2.66,3.37v.79Zm2.42-1V75c0-1-.3-1.68-1.16-1.68s-1.26,1-1.26,1.93v.16Z" fill="#3b4351"/><path d="M325,77.31c-.11,1.81-.7,2.94-2.57,2.94-2.19,0-2.8-1.61-2.8-4s.61-4,2.8-4A2.44,2.44,0,0,1,325,75h-1.51c0-.7-.19-1.63-1.08-1.58-1.08,0-1.29,1.17-1.29,2.84s.21,2.84,1.29,2.84c.84,0,1.15-.68,1.15-1.82Z" fill="#3b4351"/><path d="M326.23,70.06h1.51v10h-1.51Z" fill="#3b4351"/><path d="M329.33,69.94h1.52v1.52h-1.52Zm0,2.58h1.52v7.54h-1.52Z" fill="#3b4351"/><path d="M332.37,72.52h1.43v.88h0a2.18,2.18,0,0,1,1.94-1.08c1.14,0,1.87.52,1.87,2.05v5.69h-1.51V74.89c0-1-.27-1.36-1.05-1.36-.62,0-1.21.46-1.21,1.47v5.06h-1.51Z" fill="#3b4351"/><path d="M340.41,76.48v.44c0,1,.12,2.3,1.26,2.3s1.2-1.22,1.2-1.68h1.43a2.47,2.47,0,0,1-2.64,2.71c-1.24,0-2.76-.36-2.76-3.85,0-2,.43-4.08,2.78-4.08,2.1,0,2.66,1.28,2.66,3.37v.79Zm2.42-1V75c0-1-.31-1.68-1.16-1.68s-1.26,1-1.26,1.93v.16Z" fill="#3b4351"/><path d="M345.22,78.21h1.6v1.85h-1.6Z" fill="#3b4351"/><path d="M269,95.66h2.84c3.14,0,3.53,2,3.53,5s-.39,5-3.53,5H269Zm1.6,8.8H272c1.31,0,1.86-.87,1.86-3.79s-.48-3.8-1.86-3.8h-1.32Z" fill="#3b4351"/><path d="M281.66,104.1c0,.28.17.53.39.53a.59.59,0,0,0,.26,0v1a1.63,1.63,0,0,1-.75.18c-.67,0-1.23-.27-1.27-1h0a1.94,1.94,0,0,1-1.88,1.1c-1.21,0-2-.66-2-2.11a2.09,2.09,0,0,1,1.75-2.37l1.18-.32c.55-.16.88-.31.88-1S280,99,279.2,99c-1,0-1.15.71-1.15,1.44h-1.43c0-1.61.66-2.48,2.65-2.48,1.33,0,2.39.52,2.39,1.85Zm-1.43-2.41a11.88,11.88,0,0,1-1.68.7,1.24,1.24,0,0,0-.61,1.22c0,.63.3,1.13.93,1.13.92,0,1.36-.67,1.36-1.79Z" fill="#3b4351"/><path d="M287.05,104.78h0a2.15,2.15,0,0,1-1.93,1.08c-1.12,0-1.88-.52-1.88-2.46V98.13h1.51v5.41c0,.84.37,1.12,1,1.12A1.18,1.18,0,0,0,287,103.4V98.13h1.51v7.54h-1.43Z" fill="#3b4351"/><path d="M291.45,106.31a1,1,0,0,0,1.09.9,1.25,1.25,0,0,0,1.27-1.42v-1.22h0a1.82,1.82,0,0,1-1.71,1c-1.75,0-2.26-1.72-2.26-3.8,0-1.65.25-3.88,2.4-3.88a1.67,1.67,0,0,1,1.65,1.12h0v-.92h1.43v7.17c0,1.84-.79,2.94-2.82,2.94-2.24,0-2.49-1.31-2.49-1.93Zm1.06-1.9c1.18,0,1.3-1.49,1.3-2.68s-.15-2.59-1.2-2.59-1.28,1.12-1.28,2.52S291.39,104.41,292.51,104.41Z" fill="#3b4351"/><path d="M296.67,95.66h1.51v3.28l0,0a2.16,2.16,0,0,1,1.85-1c1.15,0,1.88.52,1.88,2v5.69h-1.51V100.5c0-1-.28-1.36-1.06-1.36-.61,0-1.2.47-1.2,1.47v5.06h-1.51Z" fill="#3b4351"/><path d="M302.73,98.13h1V96h1.51v2.14h1.23v1.12h-1.23v4.5c0,.6.17.8.68.8a2.64,2.64,0,0,0,.55,0v1.12a4.64,4.64,0,0,1-1.22.13c-1,0-1.52-.29-1.52-1.82V99.25h-1Z" fill="#3b4351"/><path d="M308.6,102.09v.44c0,1,.12,2.3,1.26,2.3s1.2-1.22,1.2-1.69h1.43a2.48,2.48,0,0,1-2.65,2.72c-1.23,0-2.76-.36-2.76-3.85,0-2,.44-4.08,2.79-4.08,2.1,0,2.66,1.28,2.66,3.37v.79Zm2.42-1v-.41c0-1-.31-1.68-1.16-1.68s-1.26,1-1.26,1.93v.16Z" fill="#3b4351"/><path d="M313.78,98.13h1.51v1.18h0a1.86,1.86,0,0,1,1.75-1.38.87.87,0,0,1,.36.06v1.54a2.18,2.18,0,0,0-.63-.08c-.69,0-1.51.3-1.51,1.71v4.51h-1.51Z" fill="#3b4351"/><path d="M321.25,101.9c0-2.36.62-4,2.8-4s2.82,1.61,2.82,4-.73,4-2.82,4S321.25,104.25,321.25,101.9Zm2.8,2.84c1.11,0,1.3-.92,1.3-2.84,0-1.67-.19-2.85-1.3-2.85s-1.29,1.18-1.29,2.85C322.76,103.82,323,104.74,324.05,104.74Z" fill="#3b4351"/><path d="M328.49,99.25h-1.05V98.13h1.05v-.7c0-1.42.69-1.88,1.92-1.88.32,0,.6,0,.82,0v1.17h-.42c-.56,0-.81.21-.81.71v.66h1.23v1.12H330v6.42h-1.51Z" fill="#3b4351"/></g></g></g></svg>