<svg xmlns="http://www.w3.org/2000/svg" viewBox="0 0 1847.91 113"><title>bc1100text</title><g id="Text"><g id="Hittites"><path d="M455.9,27.5h2.79v7h5.15v-7h2.79V45h-2.79V36.86h-5.15V45H455.9Z"/><path d="M469.47,27.3h2.65V30h-2.65Zm0,4.51h2.65V45h-2.65Z"/><path d="M473.61,31.81h1.81V28.06h2.65v3.75h2.16v2h-2.16v7.87c0,1,.29,1.39,1.2,1.39a5.1,5.1,0,0,0,1-.07v2a8.58,8.58,0,0,1-2.14.22c-1.76,0-2.67-.52-2.67-3.19V33.77h-1.81Z"/><path d="M480.42,31.81h1.81V28.06h2.65v3.75H487v2h-2.16v7.87c0,1,.3,1.39,1.2,1.39a5.1,5.1,0,0,0,1-.07v2a8.55,8.55,0,0,1-2.13.22c-1.77,0-2.68-.52-2.68-3.19V33.77h-1.81Z"/><path d="M488.53,27.3h2.65V30h-2.65Zm0,4.51h2.65V45h-2.65Z"/><path d="M492.67,31.81h1.81V28.06h2.65v3.75h2.16v2h-2.16v7.87c0,1,.29,1.39,1.2,1.39a5.1,5.1,0,0,0,1-.07v2a8.55,8.55,0,0,1-2.13.22c-1.77,0-2.68-.52-2.68-3.19V33.77h-1.81Z"/><path d="M502.94,38.74v.76c0,1.77.22,4,2.2,4s2.11-2.13,2.11-2.94h2.5c0,3-1.76,4.76-4.63,4.76-2.16,0-4.83-.64-4.83-6.74,0-3.46.76-7.13,4.88-7.13,3.67,0,4.65,2.23,4.65,5.88v1.39Zm4.24-1.81v-.71c0-1.67-.54-2.94-2-2.94-1.66,0-2.2,1.67-2.2,3.38v.27Z"/><path d="M518.05,27.5h9.46v2.35h-6.66V34.7h6.27v2.35h-6.27v5.59h6.86V45h-9.66Z"/><path d="M529.79,31.81h2.5v1.54h.07a3.69,3.69,0,0,1,3.16-1.88,2.87,2.87,0,0,1,3.07,2,3.59,3.59,0,0,1,3.33-2c1.86,0,3.21,1,3.21,3.5V45h-2.65V36c0-1.74-.51-2.38-1.59-2.38s-2.11.84-2.11,2.58V45h-2.65V36c0-1.74-.51-2.38-1.61-2.38s-2.09.86-2.09,2.58V45h-2.64Z"/><path d="M553.48,45.34a3,3,0,0,1-3-1.89h0v5.86H547.8V31.81h2.49v1.62h.05a3.13,3.13,0,0,1,3-2c3,0,4.24,2.57,4.24,7.1C557.55,44.11,555.32,45.34,553.48,45.34Zm-1-11.77c-1.81,0-2.23,1.84-2.23,4.68,0,3.16.4,5,2.26,5,1.49,0,2.2-1.13,2.2-4.78C554.75,35.46,554.39,33.57,552.52,33.57Z"/><path d="M559.7,27.3h2.65V30H559.7Zm0,4.51h2.65V45H559.7Z"/><path d="M565,31.81h2.64v2.06h.05a3.26,3.26,0,0,1,3.07-2.4,1.53,1.53,0,0,1,.63.09v2.7a3.73,3.73,0,0,0-1.1-.15c-1.2,0-2.65.54-2.65,3V45H565Z"/><path d="M574.87,38.74v.76c0,1.77.22,4,2.2,4s2.11-2.13,2.11-2.94h2.5c0,3-1.76,4.76-4.63,4.76-2.16,0-4.83-.64-4.83-6.74,0-3.46.76-7.13,4.88-7.13,3.67,0,4.65,2.23,4.65,5.88v1.39Zm4.24-1.81v-.71c0-1.67-.54-2.94-2-2.94-1.66,0-2.2,1.67-2.2,3.38v.27Z"/></g><g id="Assyrians"><path d="M874,41.12h3.58l4.61,17.5h-2.92l-1.08-4.29H873l-1.12,4.29H869Zm3.73,11-2-8.63h0l-2.08,8.63Z"/><path d="M885.53,53.2v.44q0,3.21,2.86,3.21A2.51,2.51,0,0,0,891,54.31c0-1.84-.93-2.65-2.5-3.12l-1.91-.66c-2.55-1-3.65-2.3-3.65-4.8,0-3.19,2.18-4.95,5.44-4.95,4.48,0,5,2.79,5,4.61v.39h-2.79v-.37c0-1.59-.69-2.52-2.46-2.52a2.23,2.23,0,0,0-2.35,2.52c0,1.5.76,2.25,2.62,3l1.89.68c2.48.88,3.55,2.21,3.55,4.63,0,3.73-2.25,5.27-5.78,5.27-4.34,0-5.32-2.89-5.32-5.34V53.2Z"/><path d="M898.24,53.2v.44q0,3.21,2.87,3.21a2.51,2.51,0,0,0,2.65-2.54c0-1.84-.93-2.65-2.5-3.12l-1.91-.66c-2.55-1-3.66-2.3-3.66-4.8,0-3.19,2.19-4.95,5.44-4.95,4.49,0,5,2.79,5,4.61v.39h-2.79v-.37c0-1.59-.69-2.52-2.45-2.52a2.23,2.23,0,0,0-2.35,2.52c0,1.5.76,2.25,2.62,3l1.89.68c2.47.88,3.55,2.21,3.55,4.63,0,3.73-2.25,5.27-5.78,5.27-4.34,0-5.32-2.89-5.32-5.34V53.2Z"/><path d="M911.77,51.78l-4.51-10.66h3.11l2.94,7.55,3-7.55h2.91l-4.68,10.66v6.84h-2.79Z"/><path d="M920.59,41.12h6.17c2.45,0,4.44,1.25,4.44,4.51,0,2.26-1,4-2.92,4.29v0c1.76.17,2.65,1.13,2.75,3.58,0,1.15,0,2.5.09,3.55a1.92,1.92,0,0,0,.84,1.52H928.8a2.93,2.93,0,0,1-.47-1.55c-.05-.51-.07-1-.07-1.56s0-1.11,0-1.74c-.08-1.92-.66-2.75-2.55-2.75h-2.28v7.6h-2.79Zm5,7.79a2.57,2.57,0,0,0,2.79-2.84c0-1.86-.78-2.84-2.64-2.84h-2.38v5.68Z"/><path d="M933.62,41.12h2.79v17.5h-2.79Z"/><path d="M942.49,41.12h3.58l4.6,17.5h-2.91l-1.08-4.29h-5.12l-1.13,4.29h-2.92Zm3.72,11-2-8.63h0l-2.09,8.63Z"/><path d="M951.9,41.12h3.4l5.07,13h0v-13h2.65v17.5h-3.41l-5.07-13.38h-.05V58.62H951.9Z"/><path d="M983.6,41.12h2.79v7.62h.05l5.29-7.62h3.07l-5,7.38,5.59,10.12h-3.16l-4.24-7.87L986.39,53v5.66H983.6Z"/><path d="M996.27,40.93h2.64v2.64h-2.64Zm0,4.5h2.64V58.62h-2.64Z"/><path d="M1001.58,45.43h2.5V47h.07a3.79,3.79,0,0,1,3.39-1.89c2,0,3.28.91,3.28,3.58v9.95h-2.65v-9c0-1.77-.46-2.38-1.84-2.38-1.07,0-2.1.81-2.1,2.57v8.85h-2.65Z"/><path d="M1016,59.75a1.73,1.73,0,0,0,1.91,1.56,2.18,2.18,0,0,0,2.23-2.47V56.71h0a3.18,3.18,0,0,1-3,1.81c-3.06,0-3.94-3-3.94-6.64,0-2.89.44-6.79,4.19-6.79a2.91,2.91,0,0,1,2.89,2h0V45.43h2.5V58c0,3.21-1.37,5.15-4.93,5.15-3.92,0-4.36-2.31-4.36-3.38Zm1.86-3.34c2.06,0,2.28-2.59,2.28-4.68s-.27-4.53-2.1-4.53-2.23,2-2.23,4.41C1015.82,53.86,1015.91,56.41,1017.87,56.41Z"/><path d="M1031.89,57h-.05a2.82,2.82,0,0,1-2.89,2c-3.07,0-4.32-2.6-4.32-7.11,0-5.85,2.06-6.76,4.07-6.76a3,3,0,0,1,3,1.89h0V41.12h2.65v17.5h-2.5Zm-2.4-9.8c-1.5,0-2.06,1.22-2.06,4.78,0,3,.37,4.87,2.23,4.87s2.23-1.83,2.23-4.68C1031.89,49,1031.55,47.2,1029.49,47.2Z"/><path d="M1036.42,52c0-4.12,1.08-6.94,4.9-6.94s4.93,2.82,4.93,6.94S1045,59,1041.32,59,1036.42,56.14,1036.42,52Zm4.9,5c1.94,0,2.28-1.62,2.28-5,0-2.92-.34-5-2.28-5s-2.26,2.06-2.26,5C1039.06,55.38,1039.43,57,1041.32,57Z"/><path d="M1048.4,45.43h2.5V47h.07a3.68,3.68,0,0,1,3.16-1.89,2.88,2.88,0,0,1,3.07,2,3.61,3.61,0,0,1,3.33-2c1.86,0,3.21,1,3.21,3.51v10h-2.65v-9c0-1.74-.51-2.38-1.59-2.38s-2.11.83-2.11,2.57v8.85h-2.64v-9c0-1.74-.52-2.38-1.62-2.38s-2.08.86-2.08,2.57v8.85h-2.65Z"/></g></g><g id="YEARS"><g id="Right"><path d="M1787.21,105.13V91.76h-3.82V89.84h.29c1.77,0,3.79-.45,4.34-2.76v-.36h2.16v18.41Z"/><path d="M1799.69,105.13V91.76h-3.82V89.84h.29c1.77,0,3.79-.45,4.34-2.76v-.36h2.16v18.41Z"/><path d="M1813,86.72c3.54,0,5.51,2.21,5.51,9.38s-2,9.39-5.51,9.39-5.51-2.21-5.51-9.39S1809.49,86.72,1813,86.72Zm0,16.69c2,0,2.55-2,2.55-7.31s-.55-7.3-2.55-7.3-2.55,2-2.55,7.3S1811,103.41,1813,103.41Z"/><path d="M1825.51,86.72c3.54,0,5.51,2.21,5.51,9.38s-2,9.39-5.51,9.39-5.51-2.21-5.51-9.39S1822,86.72,1825.51,86.72Zm0,16.69c2,0,2.55-2,2.55-7.31s-.55-7.3-2.55-7.3-2.55,2-2.55,7.3S1823.51,103.41,1825.51,103.41Z"/></g><g id="left"><path d="M17.46,108.72V95.36H13.64V93.44h.29c1.77,0,3.79-.45,4.34-2.76v-.36h2.16v18.4Z"/><path d="M29.94,108.72V95.36H26.12V93.44h.29c1.77,0,3.79-.45,4.34-2.76v-.36h2.16v18.4Z"/><path d="M43.28,90.32c3.54,0,5.51,2.21,5.51,9.38s-2,9.39-5.51,9.39-5.51-2.21-5.51-9.39S39.75,90.32,43.28,90.32Zm0,16.69c2,0,2.55-2,2.55-7.31s-.55-7.3-2.55-7.3-2.55,2-2.55,7.3S41.28,107,43.28,107Z"/><path d="M55.76,90.32c3.54,0,5.51,2.21,5.51,9.38s-2,9.39-5.51,9.39-5.51-2.21-5.51-9.39S52.22,90.32,55.76,90.32Zm0,16.69c2,0,2.55-2,2.55-7.31s-.55-7.3-2.55-7.3-2.55,2-2.55,7.3S53.76,107,55.76,107Z"/></g></g></svg>