<svg xmlns="http://www.w3.org/2000/svg" viewBox="0 0 1847.91 113"><title>bc1100text</title><g id="YEARS"><g id="Right"><path d="M1792.5,98.83V85.47h-3.82V83.54h.28c1.77,0,3.8-.44,4.35-2.75v-.37h2.15V98.83Z" fill="#3b4351"/><path d="M1805,98.83V85.47h-3.82V83.54h.28c1.77,0,3.8-.44,4.34-2.75v-.37h2.16V98.83Z" fill="#3b4351"/><path d="M1818.32,80.42c3.53,0,5.51,2.21,5.51,9.39s-2,9.39-5.51,9.39-5.52-2.21-5.52-9.39S1814.78,80.42,1818.32,80.42Zm0,16.7c2,0,2.54-2,2.54-7.31s-.54-7.31-2.54-7.31-2.55,2-2.55,7.31S1816.31,97.12,1818.32,97.12Z" fill="#3b4351"/><path d="M1830.8,80.42c3.53,0,5.51,2.21,5.51,9.39s-2,9.39-5.51,9.39-5.52-2.21-5.52-9.39S1827.26,80.42,1830.8,80.42Zm0,16.7c2,0,2.54-2,2.54-7.31s-.54-7.31-2.54-7.31-2.55,2-2.55,7.31S1828.79,97.12,1830.8,97.12Z" fill="#3b4351"/></g><g id="left"><path d="M17.46,100.74V87.38H13.64V85.45h.29c1.77,0,3.79-.44,4.34-2.76v-.36h2.16v18.41Z" fill="#3b4351"/><path d="M29.94,100.74V87.38H26.12V85.45h.29c1.77,0,3.79-.44,4.34-2.76v-.36h2.16v18.41Z" fill="#3b4351"/><path d="M43.28,82.33c3.54,0,5.51,2.21,5.51,9.39s-2,9.38-5.51,9.38-5.51-2.21-5.51-9.38S39.75,82.33,43.28,82.33Zm0,16.69c2,0,2.55-2,2.55-7.3s-.55-7.31-2.55-7.31-2.55,2-2.55,7.31S41.28,99,43.28,99Z" fill="#3b4351"/><path d="M55.76,82.33c3.54,0,5.51,2.21,5.51,9.39s-2,9.38-5.51,9.38-5.51-2.21-5.51-9.38S52.22,82.33,55.76,82.33Zm0,16.69c2,0,2.55-2,2.55-7.3s-.55-7.31-2.55-7.31-2.55,2-2.55,7.31S53.76,99,55.76,99Z" fill="#3b4351"/></g></g><g id="Nation_OUtlines" data-name="Nation OUtlines"><polygon id="Iranians" points="1263.29 451.17 1235.95 337 1211.95 222.5 1241.29 112.5 1280.62 0 1217.95 -114.83 1163.29 -224.16 1140.62 -337.5 1175.95 -448 1153.29 -562.83 1137.95 -676.16 1188.62 -787.5 1153.95 -900.16 1161.95 -1013 1156.67 -1128.27 1152.84 -1245.5 1131.29 -1352 1198.62 -1462.5 1275.29 -1574.5 1277.29 -1688.16 1268.62 -1797.83 1283.88 -1909.83 1411.11 -1909.83 1445.69 -1798.27 1480.18 -1687.6 1462.18 -1574.5 1438.19 -1462.5 1387.19 -1352 1387.19 -1240 1420.19 -1125.07 1429.19 -1013 1400.69 -900.08 1417.19 -787 1343.69 -676 1325.69 -562 1345.19 -448 1313.69 -336 1298.69 -224 1310.69 -114 1348.19 0 1313.69 113 1285.19 224 1294.19 337 1372.19 451.17 1373.74 559.73 1375.34 671.73 1376.98 787 1335.62 897 1348.62 1009 1391.1 1121 1462.62 1232 1440.62 1344.73 1447.62 1461 1472.62 1573 1505.62 1684.73 1513.62 1794.73 1437.62 1906.73 1391.82 2021.73 1219.62 1907 1086.62 1795 890.71 1684.73 788.62 1573 767.62 1461 866.62 1345 1041.62 1231.73 1176.62 1120.73 1205.62 1008.73 1242.62 896.73 1294.62 787 1322.62 674.17 1240.62 560 1263.29 451.17" fill="none" stroke="#3b4351" stroke-miterlimit="10"/><polygon id="Indians" points="1372.19 451.17 1294.19 337 1285.19 224 1313.69 113 1348.19 0 1310.69 -114 1298.69 -224 1313.69 -336 1345.19 -448 1325.69 -562 1343.69 -676 1417.19 -787 1400.69 -900.08 1429.19 -1013 1419.27 -1128.27 1387.19 -1240 1387.19 -1352 1438.19 -1462.5 1462.18 -1574.5 1480.18 -1687.54 1445.82 -1797.83 1411.11 -1909.83 1545.86 -1909.83 1580.1 -1797.83 1593.12 -1687.6 1552.12 -1574.5 1514.62 -1462.5 1514.12 -1352.33 1553.12 -1240.27 1548.12 -1128 1519.62 -1013 1534.12 -899.33 1575.12 -787 1559.62 -676 1564.12 -562.27 1534.62 -448 1486.12 -336 1465.12 -224 1471.12 -114.83 1502.12 -0.83 1508.12 113 1534.62 224 1542.77 302.86 1555.62 451.17 1554.62 560 1567.12 672 1542.12 786.73 1498.12 897 1490.62 1009 1513.12 1121 1568.62 1232 1544.12 1345 1530.62 1460.73 1523.62 1572.73 1532.62 1685 1565.12 1795 1543.62 1907 1514.12 2022 1490.12 2131.73 1495.62 2246 1517.12 2359.67 1528.12 2465 1580.62 2577.67 1578.12 2693.67 1578.12 2804.17 1560.12 2915.73 1526.62 3031 1467.62 3145 1381.62 3256.73 1270.62 3367 1090.12 3479.73 860.62 3588 1302.12 3703 1377.03 3815 1550.62 3928 1519.62 4037.83 1476.12 4150.83 1516.13 4264.83 1534.62 4377.17 1552.65 4487.83 1585.62 4601.73 1620.12 4716.83 1650.12 4827.83 1630.62 4935.73 1622.45 5052.73 1565.62 5163.83 1402.62 5277.17 1173.62 5389.83 1148.62 5500.83 1334.62 5615.83 1283.62 5729.83 1344.62 5838.83 1544.62 5951.83 1602.62 6066.17 1627.62 6177.83 1674.62 6290.73 1627.62 6405.83 1634.62 6517.83 1686.62 6629.83 1701.62 6742.83 1620.12 6854.83 1606.12 6965.83 1606.12 7079.66 1552.62 7079.66 1549.52 6965.83 1569.62 6854.83 1683.62 6742.83 1667.62 6629.83 1607.62 6517.83 1596.62 6405.17 1617.62 6290.83 1584.62 6177.83 1562.62 6065.83 1507.62 5951.83 1304.62 5838.73 1225.62 5729.73 1236.97 5692.78 1264.87 5615.83 1082.62 5500.83 1084.2 5390.34 1323.62 5277.83 1500.47 5163.73 1573.62 5052.83 1600.62 4935.83 1604.62 4827.83 1569.62 4716.83 1514.62 4601.83 1447.62 4487.73 1418.62 4375.83 1404.62 4264.83 1367.62 4150.83 1397.62 4037.83 1418.62 3927.73 1339.62 3814.73 1246.62 3703 748.62 3588 753.62 3480 910.76 3367 1053.62 3257 1195.2 3145 1311.62 3030.17 1353.62 2916 1348.62 2805 1364.62 2693.17 1406.62 2578 1401.62 2465 1429.62 2360 1394.62 2245.73 1393.2 2132 1391.82 2021.73 1437.52 1907 1513.62 1794.73 1505.64 1685 1472.62 1573.17 1447.62 1461 1440.63 1345 1462.62 1232 1391.1 1121 1348.62 1009 1332.62 897 1376.98 787 1375.34 671.73 1373.74 559.73 1372.19 451.17" fill="none" stroke="#3b4351" stroke-miterlimit="10"/><polygon id="Huns" points="1555.62 451.17 1545.73 337 1533.62 223.67 1506.68 113.64 1502.16 0 1471.34 -114 1465.12 -224 1486.12 -336 1534.62 -448 1564.05 -562 1559.62 -676 1575.12 -787 1534.24 -899 1519.62 -1013 1548.12 -1128 1553.11 -1240 1514.47 -1352.27 1514.62 -1464.5 1552.12 -1574.5 1593.12 -1687.16 1580.1 -1797.83 1545.86 -1909.83 1633.99 -1909.83 1651.62 -1797.83 1667.62 -1687.16 1646.62 -1574.5 1620.62 -1462.5 1630.4 -1354.4 1650.62 -1240.33 1676.62 -1128 1700.12 -1013 1689.12 -899 1714.62 -787.33 1697.12 -676.27 1645.62 -562.27 1616.12 -448 1586.62 -336.27 1538.12 -224.27 1509.12 -114 1551.62 0 1585.12 113 1608.62 223.67 1609.69 336.73 1610.76 449.73 1613.62 559.73 1625.12 671.73 1599.12 787.67 1557.59 897 1545.65 1009 1558.62 1121 1584.62 1231.73 1571.12 1345.17 1576.62 1461 1567.62 1573 1587.12 1685 1621.12 1795 1612.12 1907 1556.12 2022 1528.62 2132 1529.62 2246 1553.62 2360 1616.07 2465 1609.25 2578 1592.66 2694 1611.01 2804.73 1612.12 2916 1598.04 3031 1564.12 3145 1534.29 3257 1602.12 3366.73 1653.62 3480 1673.62 3588 1666.12 3703 1668.12 3814.67 1625.62 3927.67 1542.12 4037.83 1476.12 4150.83 1519.62 4037.83 1550.62 3928 1376.62 3814.73 1302.12 3703 860.62 3588 1090.12 3479.73 1270.62 3367 1381.62 3256.73 1467.62 3145 1526.62 3031 1560.12 2915.73 1578.12 2804.17 1578.12 2693.67 1580.62 2577.67 1528.12 2465 1517.12 2359.67 1495.62 2246 1490.12 2131.73 1514.12 2022 1543.62 1907 1565.12 1795 1532.62 1685 1523.62 1572.73 1530.62 1460.73 1544.12 1345 1568.62 1232 1513.12 1121 1490.62 1009 1498.12 897 1542.12 786.73 1567.12 672 1554.62 560 1555.62 451.17" fill="none" stroke="#3b4351" stroke-miterlimit="10"/><polygon id="Hitites" points="347.74 449.73 337.24 337 361.62 224 400.62 113 439.62 0 658.62 -114 742.62 -224 835.62 -336 785.62 -448 750.62 -562 770.62 -676 800.62 -787.83 733.62 -899.27 656.62 -1013.08 662.62 -1128 633.62 -1240 663.62 -1352 786.62 -1462.5 940.62 -1574.5 982.62 -1687.16 1042.62 -1797.83 1103.77 -1909.83 1152.07 -1909.83 1091.29 -1797.83 1025.29 -1687.16 1027.29 -1574.5 910.76 -1462.5 823.95 -1352 785.95 -1240 826.62 -1128 853.28 -1013 910.76 -899.27 992.62 -787 961.95 -676.83 971.95 -562.16 969.28 -448 975.28 -336.16 954.62 -226.16 857.28 -114 623.95 0 566.62 113 481.23 224 394.24 337 347.74 449.73" fill="none" stroke="#3b4351" stroke-miterlimit="10"/><polygon id="Greeks" points="1131.14 2465 1118.7 2360 998.71 2246 683.72 2132 467.73 2022 287.74 1907 231.95 1795 205.28 1685 169.95 1573 149.95 1461 137.95 1345 116.62 1232 111.95 1121 95.28 1009 85.95 897 75.42 787 75.42 613.67 75.42 -676 142.25 -562 145.25 -448 155.75 -336 172.25 -224 202.25 -114 223.25 0 251.62 113 250.62 224 221.95 337.84 228.6 449.73 199.95 559.84 217.95 671.84 237.43 787 262.62 897 259.95 1009 319.29 1121 349.95 1232 401.29 1345 527.28 1461 645.95 1573 761.95 1685 965.29 1795 965.95 1907 897.95 2021.17 910.76 2131.73 1099.37 2246 1168.66 2360.09 1131.14 2465" fill="none" stroke="#3b4351" stroke-miterlimit="10"/><polygon id="Egyptians" points="1195.2 2575.31 1131.14 2465 1168.66 2360.09 1099.2 2245.73 910.76 2131.73 897.95 2021.17 965.95 1907 965.28 1794.5 761.95 1685 645.95 1573 527.28 1461 401.29 1345 349.95 1232 319.29 1121 259.95 1009 262.62 897 238.62 787 217.95 672 199.95 560 228.62 450 221.62 337 250.62 224 251.62 113 223.25 0 271.57 -114 265.25 -224 305.74 -336 341.74 -448 376.24 -562 440.74 -676 467.73 -786.09 443.74 -899 381.96 -1013 242.75 -1128 298.62 -1240 424.24 -1352 460.24 -1462.5 397.24 -1574.5 319.24 -1687.16 319.24 -1797.83 298.62 -1909.83 1103.77 -1909.83 1042.62 -1797.83 982.62 -1687.16 940.62 -1574.5 786.62 -1462.5 663.62 -1352 633.62 -1240 662.62 -1128 656.62 -1013.08 733.62 -899.27 800.62 -787.83 770.62 -676 750.62 -562 785.62 -448 835.62 -336 742.62 -224 658.62 -114 439.62 0 400.62 113 361.62 224 302.62 337 310.62 450 282.62 560 271.95 672 305.95 897 323.95 1008.5 432.62 1121 476.62 1231.17 451.95 1345 555.95 1461 667.28 1573 813.28 1685 968.62 1795 995.95 1907 968.62 2021.84 940.62 2130.5 1130.91 2245.73 1189.62 2360.67 1157.7 2465 1195.2 2575.31" fill="none" stroke="#3b4351" stroke-miterlimit="10"/><polygon id="Chinese" points="1610.76 449.73 1609.69 336.73 1608.62 223.67 1585.12 113 1551.62 0 1509.12 -114 1538.12 -224.27 1586.62 -336.27 1616.12 -448 1645.62 -562.27 1697.12 -676.27 1714.62 -787.33 1689.12 -899 1700.12 -1013 1676.62 -1128 1650.62 -1240.33 1630.62 -1352 1620.62 -1462.5 1646.62 -1574.5 1667.62 -1687.16 1651.62 -1797.83 1633.99 -1909.83 1768.79 -1909.83 1768.79 6290.83 1768.79 6405.73 1766.12 6517.83 1757.62 6629.83 1736.12 6742.73 1676.12 6854.73 1661.12 6965.83 1663.62 7079.66 1606.12 7079.66 1606.12 6965.73 1620.12 6854.83 1701.62 6742.83 1696.12 6629.67 1654.12 6517.83 1681.62 6405.83 1739.62 6290.73 1748.62 6177.67 1744.12 6065.67 1685.62 5951.83 1615.12 5841.17 1636.12 5729.83 1738.62 5615.83 1761.12 5500.83 1758.62 5389.83 1732.12 5277.83 1695.62 5163.83 1667.62 5052.83 1651.12 4935.83 1650.12 4827.83 1620.12 4716.83 1585.62 4601.73 1552.62 4487.73 1535.12 4375.83 1516.12 4264.73 1476.12 4150.83 1542.12 4037.83 1625.62 3927.67 1668.12 3814.67 1666.12 3703 1673.62 3588 1653.62 3480 1602.12 3366.73 1534.12 3256.73 1564.12 3145 1598.12 3030.73 1612.12 2916 1611.01 2804.73 1592.62 2693.73 1609.25 2578 1616.07 2465 1553.62 2360 1529.62 2246 1528.62 2131.73 1555.62 2022 1612.12 1907 1621.12 1795 1587.12 1685 1567.62 1573 1576.62 1461 1571.12 1345 1584.62 1231.73 1558.62 1121 1545.62 1008.73 1557.62 896.73 1599.62 787 1625.12 671.73 1613.62 559.73 1610.76 449.73" fill="none" stroke="#3b4351" stroke-miterlimit="10"/><polygon id="Amorites" points="1263.29 451.17 1240.62 560 1322.62 672 1294.62 787 1242.62 896.73 1205.62 1008.73 1176.62 1120.73 1041.62 1231.73 866.62 1345 767.62 1461 788.62 1573 890.71 1684.73 762.62 1572.73 716.62 1460.73 709.62 1345 755.62 1232 1054.29 1120.73 1156.62 1009 1173.62 895.17 1199.62 785.17 1138.62 672 910.76 560 832.62 449.73 949.95 337 1040.62 223.73 1141.31 113 1225.29 -0.16 1147.62 -114 1085.29 -224 1061.29 -336.27 1028.62 -448.27 971.95 -562.16 961.95 -676.83 992.62 -787 910.76 -899.27 853.28 -1013 826.62 -1128 785.95 -1240 823.95 -1352 910.76 -1462.5 1027.29 -1574.5 1025.29 -1687.16 1091.29 -1797.83 1152.07 -1909.83 1283.88 -1909.83 1268.62 -1797.83 1277.29 -1688.16 1275.29 -1574.5 1198.62 -1462.5 1131.29 -1352 1153.95 -1240 1156.67 -1128.27 1161.95 -1013 1153.95 -900.16 1188.62 -787.5 1137.95 -676.16 1153.29 -562.83 1175.95 -448 1140.62 -337.5 1163.29 -224.16 1217.95 -114.83 1280.62 0 1241.29 112.5 1211.95 222.5 1235.95 337 1263.29 451.17" fill="none" stroke="#3b4351" stroke-miterlimit="10"/><polygon id="Aegeans" points="223.25 0 202.25 -114 172.25 -224 155.75 -336 145.25 -448 142.25 -562 75.42 -676 75.42 -1909.83 298.62 -1909.83 319.24 -1797.83 319.24 -1687.16 397.24 -1574.5 460.24 -1462.5 424.24 -1352 298.62 -1240 242.75 -1128 381.96 -1013 443.74 -899 467.73 -786.09 440.74 -676 376.24 -562 341.74 -448 305.74 -336 265.25 -224 271.57 -114 223.25 0" fill="none" stroke="#3b4351" stroke-miterlimit="10"/><polygon id="Assyrian_Kingdom" data-name="Assyrian Kingdom" points="631.95 449.73 635.28 337 679.9 224 701.28 113 799.28 0 980.62 -114 1007.95 -224 1020.62 -336 998.62 -448 971.95 -562.16 1028.62 -448.27 1061.29 -336.27 1085.29 -224 1147.62 -114 1225.29 -0.16 1141.31 113 1040.62 223.73 949.95 337 832.62 449.73 910.76 560 1138.62 672 1199.62 785.17 1173.62 895.17 1156.62 1009 1054.29 1120.73 755.62 1232 709.62 1345 716.62 1460.73 658.28 1345 654.62 1232 630.95 1121 510.62 1009 518.62 897 595.95 787 638.62 672 643.28 560 631.95 449.73" fill="none" stroke="#3b4351" stroke-miterlimit="10"/><polygon id="Hebrews" points="635.28 337 631.95 449.73 643.28 560 638.62 672 595.95 787 518.62 897 510.62 1009 630.95 1121 654.62 1232 658.28 1345 716.62 1460.73 647.18 1345 644.62 1232 617.95 1121 493.29 1009 500.03 897 570.62 787 613.28 673 583.28 560 569.28 450 511.95 337 573.95 224 630.62 113 697.58 0 921.28 -114 989.95 -224 1020.62 -336 1007.95 -224 980.62 -114 799.28 0 701.28 113 679.9 224 635.28 337" fill="none" stroke="#3b4351" stroke-miterlimit="10"/><polygon points="1130.91 2245.73 940.62 2130.5 968.62 2021.84 995.95 1907 968.62 1795 813.28 1685 667.28 1573 624.62 1461 611.95 1345 608.62 1232 523.28 1121 375.82 1009 387.95 897 383.29 787 359.29 672 340.62 561.16 347.74 449.73 394.24 337 481.23 224 566.62 113 623.95 0 857.28 -114 954.62 -226.16 975.28 -336.16 969.28 -448 971.95 -562.16 998.62 -448 1020.62 -336 989.95 -224 921.28 -114 697.58 0 630.62 113 573.95 224 511.95 337 538.62 450 509.95 560 479.29 672 428.62 787 439.95 897 493.29 1009 617.95 1121 644.62 1232 647.18 1345 716.62 1460.73 762.62 1572.73 890.71 1684.73 1086.62 1795 1219.62 1907 1225.12 2022 1186.62 2132 1130.91 2245.73" fill="none" stroke="#3b4351" stroke-miterlimit="10"/></g><g id="Text"><g id="Hittites"><g id="large"><path d="M455.9,27.5h2.79v7h5.15v-7h2.79V45h-2.79V36.86h-5.15V45H455.9Z" fill="#3b4351"/><path d="M469.47,27.3h2.65V30h-2.65Zm0,4.51h2.65V45h-2.65Z" fill="#3b4351"/><path d="M473.61,31.81h1.81V28.06h2.65v3.75h2.16v2h-2.16v7.87c0,1,.29,1.39,1.2,1.39a5.1,5.1,0,0,0,1-.07v2a8.58,8.58,0,0,1-2.14.22c-1.76,0-2.67-.52-2.67-3.19V33.77h-1.81Z" fill="#3b4351"/><path d="M480.42,31.81h1.81V28.06h2.65v3.75H487v2h-2.16v7.87c0,1,.3,1.39,1.2,1.39a5.1,5.1,0,0,0,1-.07v2a8.55,8.55,0,0,1-2.13.22c-1.77,0-2.68-.52-2.68-3.19V33.77h-1.81Z" fill="#3b4351"/><path d="M488.53,27.3h2.65V30h-2.65Zm0,4.51h2.65V45h-2.65Z" fill="#3b4351"/><path d="M492.67,31.81h1.81V28.06h2.65v3.75h2.16v2h-2.16v7.87c0,1,.29,1.39,1.2,1.39a5.1,5.1,0,0,0,1-.07v2a8.55,8.55,0,0,1-2.13.22c-1.77,0-2.68-.52-2.68-3.19V33.77h-1.81Z" fill="#3b4351"/><path d="M502.94,38.74v.76c0,1.77.22,4,2.2,4s2.11-2.13,2.11-2.94h2.5c0,3-1.76,4.76-4.63,4.76-2.16,0-4.83-.64-4.83-6.74,0-3.46.76-7.13,4.88-7.13,3.67,0,4.65,2.23,4.65,5.88v1.39Zm4.24-1.81v-.71c0-1.67-.54-2.94-2-2.94-1.66,0-2.2,1.67-2.2,3.38v.27Z" fill="#3b4351"/><path d="M518.05,27.5h9.46v2.35h-6.66V34.7h6.27v2.35h-6.27v5.59h6.86V45h-9.66Z" fill="#3b4351"/><path d="M529.79,31.81h2.5v1.54h.07a3.69,3.69,0,0,1,3.16-1.88,2.87,2.87,0,0,1,3.07,2,3.59,3.59,0,0,1,3.33-2c1.86,0,3.21,1,3.21,3.5V45h-2.65V36c0-1.74-.51-2.38-1.59-2.38s-2.11.84-2.11,2.58V45h-2.65V36c0-1.74-.51-2.38-1.61-2.38s-2.09.86-2.09,2.58V45h-2.64Z" fill="#3b4351"/><path d="M553.48,45.34a3,3,0,0,1-3-1.89h0v5.86H547.8V31.81h2.49v1.62h.05a3.13,3.13,0,0,1,3-2c3,0,4.24,2.57,4.24,7.1C557.55,44.11,555.32,45.34,553.48,45.34Zm-1-11.77c-1.81,0-2.23,1.84-2.23,4.68,0,3.16.4,5,2.26,5,1.49,0,2.2-1.13,2.2-4.78C554.75,35.46,554.39,33.57,552.52,33.57Z" fill="#3b4351"/><path d="M559.7,27.3h2.65V30H559.7Zm0,4.51h2.65V45H559.7Z" fill="#3b4351"/><path d="M565,31.81h2.64v2.06h.05a3.26,3.26,0,0,1,3.07-2.4,1.53,1.53,0,0,1,.63.09v2.7a3.73,3.73,0,0,0-1.1-.15c-1.2,0-2.65.54-2.65,3V45H565Z" fill="#3b4351"/><path d="M574.87,38.74v.76c0,1.77.22,4,2.2,4s2.11-2.13,2.11-2.94h2.5c0,3-1.76,4.76-4.63,4.76-2.16,0-4.83-.64-4.83-6.74,0-3.46.76-7.13,4.88-7.13,3.67,0,4.65,2.23,4.65,5.88v1.39Zm4.24-1.81v-.71c0-1.67-.54-2.94-2-2.94-1.66,0-2.2,1.67-2.2,3.38v.27Z" fill="#3b4351"/></g></g><g id="Egytians"><g id="small-2" data-name="small"><path d="M245-5.34h3.53a2.32,2.32,0,0,1,2.53,2.58c0,1.29-.56,2.29-1.66,2.45v0c1,.1,1.51.65,1.56,2.05,0,.65,0,1.43.06,2a1.1,1.1,0,0,0,.48.87H249.7a1.84,1.84,0,0,1-.27-.89c0-.29,0-.6,0-.89s0-.63,0-1c0-1.09-.37-1.57-1.45-1.57H246.6V4.67H245Zm2.87,4.46a1.48,1.48,0,0,0,1.6-1.63c0-1.06-.45-1.62-1.52-1.62H246.6V-.88Z" fill="#3b4351"/><path d="M257.37,3.1c0,.28.17.53.39.53a.59.59,0,0,0,.26,0v1a1.63,1.63,0,0,1-.75.18c-.67,0-1.23-.27-1.27-1h0a2,2,0,0,1-1.88,1.1c-1.21,0-2-.66-2-2.11A2.09,2.09,0,0,1,253.88.38l1.18-.32c.55-.16.88-.31.88-1S255.7-2,254.91-2c-1,0-1.15.71-1.15,1.44h-1.43c0-1.61.66-2.48,2.65-2.48,1.33,0,2.39.52,2.39,1.85ZM255.94.69a12.39,12.39,0,0,1-1.68.7,1.24,1.24,0,0,0-.61,1.22c0,.63.3,1.13.93,1.13.91,0,1.36-.67,1.36-1.79Z" fill="#3b4351"/><path d="M259-2.87h1.43V-2h0a2.12,2.12,0,0,1,1.81-1.08A1.64,1.64,0,0,1,264-1.92a2,2,0,0,1,1.9-1.15c1.07,0,1.84.55,1.84,2V4.67h-1.52V-.5c0-1-.29-1.36-.91-1.36s-1.2.47-1.2,1.47V4.67h-1.51V-.5c0-1-.3-1.36-.93-1.36s-1.19.49-1.19,1.47V4.67H259Z" fill="#3b4351"/><path d="M270.57,1.09v.44c0,1,.13,2.3,1.26,2.3S273,2.61,273,2.14h1.43a2.48,2.48,0,0,1-2.65,2.72c-1.23,0-2.76-.36-2.76-3.85,0-2,.43-4.08,2.79-4.08,2.1,0,2.66,1.28,2.66,3.37v.79Zm2.43-1V-.35c0-.95-.31-1.68-1.17-1.68s-1.26.95-1.26,1.93V.06Z" fill="#3b4351"/><path d="M279-.67v-.2c0-.6-.21-1.16-1-1.16-.61,0-1.08.27-1.08,1s.26.83,1.06,1.11l1,.33a2,2,0,0,1,1.64,2.17c0,1.62-1.19,2.3-2.71,2.3-1.9,0-2.48-.88-2.48-2.34V2.24h1.35v.24c0,.88.29,1.35,1.18,1.35s1.23-.42,1.23-1.11a1.09,1.09,0,0,0-.83-1.11l-1.23-.43A2,2,0,0,1,275.5-1c0-1.42,1-2.08,2.58-2.08,1.92,0,2.35,1.12,2.35,2.06v.34Z" fill="#3b4351"/><path d="M283,1.09v.44c0,1,.12,2.3,1.26,2.3s1.2-1.22,1.2-1.69h1.43a2.48,2.48,0,0,1-2.65,2.72C283,4.86,281.5,4.5,281.5,1c0-2,.44-4.08,2.79-4.08,2.1,0,2.66,1.28,2.66,3.37v.79Zm2.42-1V-.35c0-.95-.31-1.68-1.16-1.68S283-1.08,283-.1V.06Z" fill="#3b4351"/><path d="M291.45-.67v-.2c0-.6-.21-1.16-1-1.16-.6,0-1.08.27-1.08,1s.27.83,1.07,1.11l1,.33A2,2,0,0,1,293,2.56c0,1.62-1.19,2.3-2.7,2.3-1.91,0-2.48-.88-2.48-2.34V2.24h1.34v.24c0,.88.3,1.35,1.18,1.35s1.23-.42,1.23-1.11a1.09,1.09,0,0,0-.82-1.11l-1.23-.43A2,2,0,0,1,287.94-1c0-1.42,1-2.08,2.58-2.08,1.92,0,2.35,1.12,2.35,2.06v.34Z" fill="#3b4351"/><path d="M296.19-5.34h1.69l1.7,8h0l1.79-8h1.7l-2.53,10h-2Z" fill="#3b4351"/><path d="M326.89-5.34h5.33V-4h-3.74v2.77H332V.13h-3.52V4.67h-1.59Z" fill="#3b4351"/><path d="M333.34-5.45h1.51v1.52h-1.51Zm0,2.58h1.51V4.67h-1.51Z" fill="#3b4351"/><path d="M336.38-2.87h1.43V-2h0a2.17,2.17,0,0,1,1.93-1.08c1.15,0,1.88.52,1.88,2.05V4.67h-1.51V-.5c0-1-.27-1.36-1.06-1.36-.61,0-1.2.46-1.2,1.47V4.67h-1.51Z" fill="#3b4351"/><path d="M348.06,3.1c0,.28.16.53.39.53a.57.57,0,0,0,.25,0v1a1.58,1.58,0,0,1-.74.18c-.67,0-1.23-.27-1.28-1h0a2,2,0,0,1-1.88,1.1c-1.22,0-2-.66-2-2.11A2.08,2.08,0,0,1,344.57.38l1.18-.32c.54-.16.88-.31.88-1s-.24-1.12-1-1.12c-1,0-1.15.71-1.15,1.44H343c0-1.61.66-2.48,2.65-2.48,1.33,0,2.4.52,2.4,1.85ZM346.63.69a12.39,12.39,0,0,1-1.68.7,1.23,1.23,0,0,0-.62,1.22c0,.63.31,1.13.94,1.13.91,0,1.36-.67,1.36-1.79Z" fill="#3b4351"/><path d="M349.66-5.34h1.52v10h-1.52Z" fill="#3b4351"/><path d="M359.91,3.74h0a1.6,1.6,0,0,1-1.65,1.12c-1.75,0-2.46-1.48-2.46-4.06,0-3.35,1.17-3.87,2.32-3.87A1.74,1.74,0,0,1,359.8-2h0V-5.34h1.51v10h-1.43Zm-1.37-5.6c-.85,0-1.18.7-1.18,2.73,0,1.71.21,2.79,1.28,2.79s1.27-1.05,1.27-2.68C359.91-.83,359.72-1.86,358.54-1.86Z" fill="#3b4351"/><path d="M362.87-5.45h1.51v1.52h-1.51Zm0,2.58h1.51V4.67h-1.51Z" fill="#3b4351"/><path d="M369.15-.67v-.2c0-.6-.21-1.16-1-1.16-.6,0-1.08.27-1.08,1s.27.83,1.06,1.11l1,.33a2,2,0,0,1,1.64,2.17c0,1.62-1.19,2.3-2.7,2.3-1.91,0-2.48-.88-2.48-2.34V2.24h1.34v.24c0,.88.3,1.35,1.18,1.35s1.23-.42,1.23-1.11a1.09,1.09,0,0,0-.83-1.11l-1.23-.43A2,2,0,0,1,365.65-1c0-1.42,1-2.08,2.58-2.08,1.92,0,2.35,1.12,2.35,2.06v.34Z" fill="#3b4351"/><path d="M375.12-.67v-.2c0-.6-.21-1.16-1-1.16-.6,0-1.08.27-1.08,1s.27.83,1.07,1.11l1,.33a2,2,0,0,1,1.64,2.17c0,1.62-1.19,2.3-2.7,2.3-1.91,0-2.48-.88-2.48-2.34V2.24h1.34v.24c0,.88.3,1.35,1.18,1.35s1.23-.42,1.23-1.11a1.09,1.09,0,0,0-.82-1.11l-1.23-.43A2,2,0,0,1,371.61-1c0-1.42,1-2.08,2.58-2.08,1.92,0,2.35,1.12,2.35,2.06v.34Z" fill="#3b4351"/><path d="M377.54.9c0-2.36.61-4,2.8-4s2.81,1.61,2.81,4-.73,4-2.81,4S377.54,3.25,377.54.9Zm2.8,2.84c1.1,0,1.3-.92,1.3-2.84,0-1.67-.2-2.85-1.3-2.85S379.05-.77,379.05.9C379.05,2.82,379.26,3.74,380.34,3.74Z" fill="#3b4351"/><path d="M384.38-5.34h1.52v10h-1.52Z" fill="#3b4351"/><path d="M391.27,3.78h0a2.15,2.15,0,0,1-1.93,1.08c-1.12,0-1.88-.52-1.88-2.46V-2.87h1.51V2.54c0,.84.37,1.12,1,1.12a1.18,1.18,0,0,0,1.23-1.26V-2.87h1.51V4.67h-1.43Z" fill="#3b4351"/><path d="M393.48-2.87h1V-5H396v2.14h1.23v1.12H396v4.5c0,.6.17.8.69.8a2.61,2.61,0,0,0,.54,0V4.62a4.56,4.56,0,0,1-1.21.13c-1,0-1.53-.29-1.53-1.82V-1.75h-1Z" fill="#3b4351"/><path d="M398.12-5.45h1.51v1.52h-1.51Zm0,2.58h1.51V4.67h-1.51Z" fill="#3b4351"/><path d="M400.86.9c0-2.36.62-4,2.8-4s2.82,1.61,2.82,4-.73,4-2.82,4S400.86,3.25,400.86.9Zm2.8,2.84c1.11,0,1.3-.92,1.3-2.84,0-1.67-.19-2.85-1.3-2.85S402.37-.77,402.37.9C402.37,2.82,402.58,3.74,403.66,3.74Z" fill="#3b4351"/><path d="M407.64-2.87h1.42V-2h.05A2.15,2.15,0,0,1,411-3.07c1.15,0,1.88.52,1.88,2.05V4.67H411.4V-.5c0-1-.26-1.36-1-1.36-.61,0-1.2.46-1.2,1.47V4.67h-1.51Z" fill="#3b4351"/><path d="M278.93,21.9c0-2.36.61-4,2.8-4s2.81,1.61,2.81,4-.72,4-2.81,4S278.93,24.25,278.93,21.9Zm2.8,2.84c1.11,0,1.3-.92,1.3-2.84,0-1.67-.19-2.85-1.3-2.85s-1.29,1.18-1.29,2.85C280.44,23.82,280.65,24.74,281.73,24.74Z" fill="#3b4351"/><path d="M286.17,19.25h-1.05V18.13h1.05v-.7c0-1.42.68-1.88,1.92-1.88.32,0,.6,0,.82,0v1.17h-.42c-.56,0-.81.21-.81.71v.66h1.23v1.12h-1.23v6.42h-1.51Z" fill="#3b4351"/><path d="M293.05,15.66h5.41V17h-3.81v2.77h3.59v1.35h-3.59v3.19h3.92v1.35h-5.52Z" fill="#3b4351"/><path d="M299.76,18.13h1.43V19h0A2.12,2.12,0,0,1,303,17.93a1.64,1.64,0,0,1,1.75,1.15,2,2,0,0,1,1.9-1.15c1.07,0,1.84.55,1.84,2v5.73H307V20.5c0-1-.3-1.36-.91-1.36s-1.21.47-1.21,1.47v5.06h-1.51V20.5c0-1-.3-1.36-.93-1.36s-1.19.49-1.19,1.47v5.06h-1.51Z" fill="#3b4351"/><path d="M313.3,25.86a1.72,1.72,0,0,1-1.71-1.08h0v3.35h-1.51v-10h1.43v.92h0a1.78,1.78,0,0,1,1.69-1.12c1.72,0,2.42,1.47,2.42,4.07C315.62,25.16,314.35,25.86,313.3,25.86Zm-.55-6.72c-1,0-1.27,1.05-1.27,2.67,0,1.81.22,2.85,1.29,2.85.85,0,1.26-.65,1.26-2.73C314,20.22,313.82,19.14,312.75,19.14Z" fill="#3b4351"/><path d="M316.85,15.55h1.52v1.52h-1.52Zm0,2.58h1.52v7.54h-1.52Z" fill="#3b4351"/><path d="M319.89,18.13h1.51v1.18h0a1.88,1.88,0,0,1,1.75-1.38.92.92,0,0,1,.37.06v1.54a2.24,2.24,0,0,0-.63-.08c-.69,0-1.52.3-1.52,1.71v4.51h-1.51Z" fill="#3b4351"/><path d="M325.52,22.09v.44c0,1,.13,2.3,1.26,2.3S328,23.61,328,23.14h1.42a2.47,2.47,0,0,1-2.64,2.72c-1.24,0-2.76-.36-2.76-3.85,0-2,.43-4.08,2.78-4.08,2.11,0,2.67,1.28,2.67,3.37v.79Zm2.42-1v-.41c0-.95-.3-1.68-1.16-1.68s-1.26,1-1.26,1.93v.16Z" fill="#3b4351"/><path d="M334.13,15.55h1.51v1.52h-1.51Zm0,2.58h1.51v7.54h-1.51Z" fill="#3b4351"/><path d="M337.17,18.13h1.43V19h0a2.17,2.17,0,0,1,1.93-1.08c1.15,0,1.88.52,1.88,2.05v5.69h-1.52V20.5c0-1-.26-1.36-1.05-1.36-.61,0-1.2.46-1.2,1.47v5.06h-1.51Z" fill="#3b4351"/><path d="M346.74,18.13h1.57l1.05,5.94h0l1.12-5.94h1.71l1.12,5.94h0l1-5.94h1.52l-1.73,7.54H352.5l-1.18-5.86h0l-1.07,5.86h-1.77Z" fill="#3b4351"/><path d="M361.63,24.1c0,.28.17.53.39.53a.54.54,0,0,0,.25,0v1a1.58,1.58,0,0,1-.74.18c-.67,0-1.23-.27-1.28-1h0a2,2,0,0,1-1.88,1.1c-1.22,0-2-.66-2-2.11a2.08,2.08,0,0,1,1.75-2.37l1.18-.32c.54-.16.88-.31.88-1S360,19,359.16,19c-1,0-1.15.71-1.15,1.44h-1.43c0-1.61.66-2.48,2.65-2.48,1.33,0,2.4.52,2.4,1.85Zm-1.43-2.41a12.39,12.39,0,0,1-1.68.7,1.23,1.23,0,0,0-.62,1.22c0,.63.31,1.13.94,1.13.91,0,1.36-.67,1.36-1.79Z" fill="#3b4351"/><path d="M363.16,18.13h1.52v1.18h0a1.88,1.88,0,0,1,1.76-1.38.87.87,0,0,1,.36.06v1.54a2.18,2.18,0,0,0-.63-.08c-.69,0-1.51.3-1.51,1.71v4.51h-1.52Z" fill="#3b4351"/><path d="M370.42,18.13H372L373,24.07h0l1.12-5.94h1.71L377,24.07h0l1-5.94h1.51l-1.72,7.54h-1.7L375,19.81h0l-1.08,5.86h-1.77Z" fill="#3b4351"/><path d="M380.59,15.55h1.52v1.52h-1.52Zm0,2.58h1.52v7.54h-1.52Z" fill="#3b4351"/><path d="M383,18.13h1V16h1.51v2.14h1.23v1.12h-1.23v4.5c0,.6.17.8.69.8a2.61,2.61,0,0,0,.54-.05v1.12a4.64,4.64,0,0,1-1.22.13c-1,0-1.52-.29-1.52-1.82V19.25h-1Z" fill="#3b4351"/><path d="M387.52,15.66H389v3.28l0,0a2.14,2.14,0,0,1,1.85-1c1.15,0,1.87.52,1.87,2.05v5.69h-1.51V20.5c0-1-.28-1.36-1.05-1.36s-1.2.47-1.2,1.47v5.06h-1.52Z" fill="#3b4351"/><path d="M277.76,43.08v.21c0,1.81-.74,3.57-3.08,3.57-2.52,0-3.3-1.62-3.3-5.19s.78-5.2,3.32-5.2c2.84,0,3,2.09,3,3.14v.18h-1.6v-.17c0-.94-.28-2-1.43-1.95S273,38.4,273,41.62s.52,4,1.71,4c1.35,0,1.49-1.47,1.49-2.41v-.17Z" fill="#3b4351"/><path d="M278.78,39.13h1.52v1.18h0a1.88,1.88,0,0,1,1.76-1.38.87.87,0,0,1,.36.06v1.54a2.18,2.18,0,0,0-.63-.08c-.69,0-1.51.3-1.51,1.71v4.51h-1.52Z" fill="#3b4351"/><path d="M284.41,43.09v.44c0,1,.13,2.3,1.26,2.3s1.21-1.22,1.21-1.69h1.43a2.48,2.48,0,0,1-2.65,2.72c-1.23,0-2.76-.36-2.76-3.85,0-2,.43-4.08,2.79-4.08,2.1,0,2.66,1.28,2.66,3.37v.79Zm2.43-1v-.41c0-.95-.31-1.68-1.17-1.68s-1.26,1-1.26,1.93v.16Z" fill="#3b4351"/><path d="M288.92,39.13h1V37h1.51v2.14h1.23v1.12h-1.23v4.5c0,.6.17.8.68.8a2.64,2.64,0,0,0,.55,0v1.12a4.64,4.64,0,0,1-1.22.13c-1,0-1.52-.29-1.52-1.82V40.25h-1Z" fill="#3b4351"/><path d="M298.43,45.1c0,.28.17.53.39.53a.54.54,0,0,0,.25,0v1a1.58,1.58,0,0,1-.74.18c-.67,0-1.23-.27-1.27-1h0a2,2,0,0,1-1.88,1.1c-1.22,0-2-.66-2-2.11a2.08,2.08,0,0,1,1.75-2.37l1.18-.32c.54-.16.88-.31.88-1S296.76,40,296,40c-1,0-1.15.71-1.15,1.44h-1.42c0-1.61.65-2.48,2.64-2.48,1.33,0,2.4.52,2.4,1.85ZM297,42.69a12.39,12.39,0,0,1-1.68.7,1.23,1.23,0,0,0-.62,1.22c0,.63.31,1.13.94,1.13.91,0,1.36-.67,1.36-1.79Z" fill="#3b4351"/><path d="M300,39.13h1.42V40h.05a2.15,2.15,0,0,1,1.93-1.08c1.15,0,1.88.52,1.88,2v5.69h-1.52V41.5c0-1-.26-1.36-1.05-1.36-.61,0-1.2.46-1.2,1.47v5.06H300Z" fill="#3b4351"/><path d="M310,41.33v-.2c0-.6-.21-1.16-1-1.16-.6,0-1.07.27-1.07,1s.26.83,1.06,1.11l1,.33a2,2,0,0,1,1.64,2.17c0,1.62-1.2,2.3-2.71,2.3-1.9,0-2.48-.88-2.48-2.34v-.28h1.35v.24c0,.88.29,1.35,1.17,1.35s1.24-.42,1.24-1.11a1.09,1.09,0,0,0-.83-1.11l-1.23-.43A2,2,0,0,1,306.45,41c0-1.42,1-2.08,2.57-2.08,1.92,0,2.36,1.12,2.36,2.06v.34Z" fill="#3b4351"/><path d="M321,45.1c0,.28.17.53.39.53a.54.54,0,0,0,.25,0v1a1.58,1.58,0,0,1-.74.18c-.67,0-1.23-.27-1.28-1h0a2,2,0,0,1-1.88,1.1c-1.22,0-2-.66-2-2.11a2.08,2.08,0,0,1,1.75-2.37l1.18-.32c.54-.16.88-.31.88-1s-.24-1.12-1-1.12c-1,0-1.15.71-1.15,1.44h-1.43c0-1.61.66-2.48,2.65-2.48,1.33,0,2.4.52,2.4,1.85Zm-1.43-2.41a12.39,12.39,0,0,1-1.68.7,1.23,1.23,0,0,0-.62,1.22c0,.63.31,1.13.94,1.13.91,0,1.36-.67,1.36-1.79Z" fill="#3b4351"/><path d="M322.5,39.13h1.43V40H324a2.15,2.15,0,0,1,1.93-1.08c1.15,0,1.88.52,1.88,2v5.69h-1.52V41.5c0-1-.26-1.36-1-1.36-.61,0-1.2.46-1.2,1.47v5.06H322.5Z" fill="#3b4351"/><path d="M333.09,45.74h0a1.61,1.61,0,0,1-1.65,1.12c-1.75,0-2.47-1.48-2.47-4.06,0-3.35,1.18-3.87,2.33-3.87A1.74,1.74,0,0,1,333,40h0V36.66h1.51v10h-1.43Zm-1.37-5.6c-.86,0-1.18.7-1.18,2.73,0,1.71.21,2.79,1.28,2.79s1.27-1,1.27-2.68C333.09,41.17,332.89,40.14,331.72,40.14Z" fill="#3b4351"/><path d="M340.8,36.66h2.05l2.63,10h-1.66l-.62-2.46h-2.93l-.64,2.46H338Zm2.13,6.28L341.78,38h0l-1.19,4.93Z" fill="#3b4351"/><path d="M346.08,39.13h1.51v1.18h0a1.88,1.88,0,0,1,1.75-1.38.92.92,0,0,1,.37.06v1.54a2.3,2.3,0,0,0-.63-.08c-.69,0-1.52.3-1.52,1.71v4.51h-1.51Z" fill="#3b4351"/><path d="M355.35,45.1c0,.28.17.53.39.53a.59.59,0,0,0,.26,0v1a1.63,1.63,0,0,1-.75.18c-.67,0-1.23-.27-1.27-1h0a2,2,0,0,1-1.88,1.1c-1.22,0-2-.66-2-2.11a2.08,2.08,0,0,1,1.75-2.37l1.18-.32c.55-.16.88-.31.88-1s-.24-1.12-1-1.12c-1,0-1.15.71-1.15,1.44h-1.43c0-1.61.66-2.48,2.65-2.48,1.33,0,2.39.52,2.39,1.85Zm-1.43-2.41a12.39,12.39,0,0,1-1.68.7,1.24,1.24,0,0,0-.61,1.22c0,.63.3,1.13.93,1.13.91,0,1.36-.67,1.36-1.79Z" fill="#3b4351"/><path d="M357,39.13h1.43V40h0a2.12,2.12,0,0,1,1.81-1.08A1.65,1.65,0,0,1,362,40.08a2,2,0,0,1,1.9-1.15c1.07,0,1.84.55,1.84,2v5.73h-1.52V41.5c0-1-.29-1.36-.91-1.36s-1.2.47-1.2,1.47v5.06h-1.51V41.5c0-1-.3-1.36-.93-1.36s-1.19.49-1.19,1.47v5.06H357Z" fill="#3b4351"/><path d="M368.55,43.09v.44c0,1,.13,2.3,1.26,2.3S371,44.61,371,44.14h1.43a2.48,2.48,0,0,1-2.65,2.72c-1.24,0-2.76-.36-2.76-3.85,0-2,.43-4.08,2.79-4.08,2.1,0,2.66,1.28,2.66,3.37v.79Zm2.42-1v-.41c0-.95-.3-1.68-1.16-1.68s-1.26,1-1.26,1.93v.16Z" fill="#3b4351"/><path d="M378.67,45.1c0,.28.17.53.4.53a.57.57,0,0,0,.25,0v1a1.58,1.58,0,0,1-.74.18c-.68,0-1.24-.27-1.28-1h0a1.94,1.94,0,0,1-1.87,1.1c-1.22,0-2-.66-2-2.11a2.08,2.08,0,0,1,1.75-2.37l1.17-.32c.55-.16.89-.31.89-1S377,40,376.21,40c-1,0-1.15.71-1.15,1.44h-1.43c0-1.61.66-2.48,2.65-2.48,1.33,0,2.39.52,2.39,1.85Zm-1.42-2.41a12.39,12.39,0,0,1-1.68.7,1.23,1.23,0,0,0-.62,1.22c0,.63.31,1.13.94,1.13.91,0,1.36-.67,1.36-1.79Z" fill="#3b4351"/><path d="M380.21,39.13h1.43V40h0a2.18,2.18,0,0,1,1.94-1.08c1.14,0,1.87.52,1.87,2v5.69H384V41.5c0-1-.27-1.36-1.05-1.36-.62,0-1.2.46-1.2,1.47v5.06h-1.52Z" fill="#3b4351"/><path d="M390.2,41.33v-.2c0-.6-.21-1.16-1-1.16-.6,0-1.08.27-1.08,1s.27.83,1.07,1.11l1,.33a2,2,0,0,1,1.64,2.17c0,1.62-1.19,2.3-2.7,2.3-1.91,0-2.48-.88-2.48-2.34v-.28H388v.24c0,.88.3,1.35,1.18,1.35s1.23-.42,1.23-1.11a1.09,1.09,0,0,0-.82-1.11l-1.24-.43A2,2,0,0,1,386.69,41c0-1.42,1-2.08,2.58-2.08,1.92,0,2.35,1.12,2.35,2.06v.34Z" fill="#3b4351"/><path d="M393.06,44.82h1.6v1.85h-1.6Z" fill="#3b4351"/><path d="M299.66,57.66h3.53a2.32,2.32,0,0,1,2.54,2.58c0,1.29-.57,2.29-1.67,2.45v0c1,.1,1.51.65,1.57,2,0,.65,0,1.43.05,2a1.13,1.13,0,0,0,.48.87h-1.81a1.74,1.74,0,0,1-.26-.89,8.85,8.85,0,0,1,0-.89c0-.3,0-.63,0-1,0-1.09-.38-1.57-1.46-1.57h-1.3v4.35h-1.6Zm2.87,4.46a1.48,1.48,0,0,0,1.6-1.63c0-1.06-.45-1.62-1.51-1.62h-1.36v3.25Z" fill="#3b4351"/><path d="M312,66.1c0,.28.17.53.4.53a.57.57,0,0,0,.25,0v1a1.58,1.58,0,0,1-.74.18c-.68,0-1.24-.27-1.28-1h0a1.94,1.94,0,0,1-1.87,1.1c-1.22,0-2-.66-2-2.11a2.08,2.08,0,0,1,1.75-2.37l1.17-.32c.55-.16.89-.31.89-1s-.24-1.12-1-1.12c-1,0-1.15.71-1.15,1.44H307c0-1.61.66-2.48,2.65-2.48,1.33,0,2.39.52,2.39,1.85Zm-1.42-2.41a12,12,0,0,1-1.69.7,1.24,1.24,0,0,0-.61,1.22c0,.63.31,1.13.94,1.13.91,0,1.36-.67,1.36-1.79Z" fill="#3b4351"/><path d="M313.63,60.13h1.43V61h0a2.12,2.12,0,0,1,1.81-1.08,1.63,1.63,0,0,1,1.75,1.15,2,2,0,0,1,1.9-1.15c1.07,0,1.84.55,1.84,2v5.73h-1.51V62.5c0-1-.3-1.36-.91-1.36s-1.21.47-1.21,1.47v5.06h-1.51V62.5c0-1-.29-1.36-.93-1.36s-1.19.49-1.19,1.47v5.06h-1.51Z" fill="#3b4351"/><path d="M325.22,64.09v.44c0,1,.13,2.3,1.26,2.3s1.21-1.22,1.21-1.69h1.43a2.48,2.48,0,0,1-2.65,2.72c-1.23,0-2.76-.36-2.76-3.85,0-2,.44-4.08,2.79-4.08,2.1,0,2.66,1.28,2.66,3.37v.79Zm2.43-1v-.41c0-.95-.31-1.68-1.17-1.68s-1.26,1-1.26,1.93v.16Z" fill="#3b4351"/><path d="M333.65,62.33v-.2c0-.6-.21-1.16-1-1.16-.6,0-1.08.27-1.08,1s.27.83,1.06,1.11l1,.33a2,2,0,0,1,1.64,2.17c0,1.62-1.19,2.3-2.7,2.3-1.91,0-2.48-.88-2.48-2.34v-.28h1.34v.24c0,.88.3,1.35,1.18,1.35s1.23-.42,1.23-1.11a1.09,1.09,0,0,0-.83-1.11l-1.23-.43A2,2,0,0,1,330.15,62c0-1.42,1-2.08,2.58-2.08,1.92,0,2.35,1.12,2.35,2.06v.34Z" fill="#3b4351"/><path d="M337.67,64.09v.44c0,1,.13,2.3,1.26,2.3s1.21-1.22,1.21-1.69h1.42a2.47,2.47,0,0,1-2.64,2.72c-1.24,0-2.76-.36-2.76-3.85,0-2,.43-4.08,2.78-4.08,2.11,0,2.67,1.28,2.67,3.37v.79Zm2.42-1v-.41c0-.95-.31-1.68-1.16-1.68s-1.26,1-1.26,1.93v.16Z" fill="#3b4351"/><path d="M346.1,62.33v-.2c0-.6-.21-1.16-1-1.16-.6,0-1.07.27-1.07,1s.26.83,1.06,1.11l1,.33a2,2,0,0,1,1.64,2.17c0,1.62-1.2,2.3-2.71,2.3-1.9,0-2.48-.88-2.48-2.34v-.28h1.35v.24c0,.88.29,1.35,1.17,1.35s1.24-.42,1.24-1.11a1.09,1.09,0,0,0-.83-1.11l-1.23-.43A2,2,0,0,1,342.6,62c0-1.42,1-2.08,2.57-2.08,1.92,0,2.36,1.12,2.36,2.06v.34Z" fill="#3b4351"/><path d="M354.08,62.58l-2.41-4.92h1.76L355,61l1.57-3.32h1.72l-2.42,4.92,2.55,5.09h-1.77L355,64.05l-1.78,3.62h-1.73Z" fill="#3b4351"/><path d="M359.33,65.82h1.59v1.85h-1.59Z" fill="#3b4351"/><path d="M281,78.66h3.17c1.92,0,2.76,1.21,2.76,2.92a2.72,2.72,0,0,1-2.93,3h-1.4v4.14H281Zm1.6,4.67h1.13a1.5,1.5,0,0,0,1.6-1.72c0-1.08-.44-1.74-1.71-1.74h-1Z" fill="#3b4351"/><path d="M287.9,81.13h1.52v1.18h0a1.88,1.88,0,0,1,1.75-1.38.92.92,0,0,1,.37.06v1.54a2.24,2.24,0,0,0-.63-.08c-.69,0-1.51.3-1.51,1.71v4.51H287.9Z" fill="#3b4351"/><path d="M292.38,78.55h1.51v1.52h-1.51Zm0,2.58h1.51v7.54h-1.51Z" fill="#3b4351"/><path d="M296.72,85.09v.44c0,1,.13,2.3,1.26,2.3s1.21-1.22,1.21-1.69h1.43A2.48,2.48,0,0,1,298,88.86c-1.23,0-2.76-.36-2.76-3.85,0-2,.43-4.08,2.79-4.08,2.1,0,2.66,1.28,2.66,3.37v.79Zm2.43-1v-.41c0-1-.31-1.68-1.17-1.68s-1.26,1-1.26,1.93v.16Z" fill="#3b4351"/><path d="M305.15,83.33v-.2c0-.6-.21-1.16-1-1.16-.6,0-1.08.27-1.08,1s.27.83,1.06,1.11l1,.33a2,2,0,0,1,1.64,2.17c0,1.62-1.19,2.3-2.7,2.3-1.91,0-2.48-.88-2.48-2.34v-.28h1.34v.24c0,.88.29,1.35,1.18,1.35s1.23-.42,1.23-1.11a1.09,1.09,0,0,0-.83-1.11l-1.23-.43A2,2,0,0,1,301.65,83c0-1.42,1-2.08,2.58-2.08,1.92,0,2.35,1.12,2.35,2.06v.34Z" fill="#3b4351"/><path d="M307.19,81.13h1V79h1.51v2.14H311v1.12h-1.24v4.5c0,.6.17.8.69.8a2.72,2.72,0,0,0,.55,0v1.12a4.69,4.69,0,0,1-1.22.13c-1,0-1.53-.29-1.53-1.82V82.25h-1Z" fill="#3b4351"/><path d="M315,83.33v-.2c0-.6-.21-1.16-1-1.16-.6,0-1.08.27-1.08,1s.27.83,1.07,1.11l1,.33a2,2,0,0,1,1.63,2.17c0,1.62-1.19,2.3-2.7,2.3-1.9,0-2.48-.88-2.48-2.34v-.28h1.35v.24c0,.88.29,1.35,1.17,1.35s1.24-.42,1.24-1.11a1.09,1.09,0,0,0-.83-1.11l-1.23-.43A2,2,0,0,1,311.51,83c0-1.42,1-2.08,2.57-2.08,1.92,0,2.36,1.12,2.36,2.06v.34Z" fill="#3b4351"/><path d="M320.79,84.9c0-2.36.61-4,2.8-4s2.81,1.61,2.81,4-.72,4-2.81,4S320.79,87.25,320.79,84.9Zm2.8,2.84c1.11,0,1.3-.92,1.3-2.84,0-1.67-.19-2.85-1.3-2.85s-1.29,1.18-1.29,2.85C322.3,86.82,322.51,87.74,323.59,87.74Z" fill="#3b4351"/><path d="M328,82.25h-1V81.13h1v-.7c0-1.42.68-1.88,1.92-1.88.32,0,.6,0,.82,0v1.17h-.42c-.56,0-.81.21-.81.71v.66h1.23v1.12h-1.23v6.42H328Z" fill="#3b4351"/><path d="M336.29,78.66h2l2.64,10H339.3l-.62-2.46h-2.93l-.64,2.46h-1.67Zm2.13,6.28L337.27,80h0l-1.19,4.93Z" fill="#3b4351"/><path d="M341.63,81.13h1.43V82h0a2.13,2.13,0,0,1,1.81-1.08,1.63,1.63,0,0,1,1.75,1.15,2.07,2.07,0,0,1,1.91-1.15c1.06,0,1.83.55,1.83,2v5.73h-1.51V83.5c0-1-.29-1.36-.91-1.36s-1.21.47-1.21,1.47v5.06h-1.51V83.5c0-1-.29-1.36-.92-1.36s-1.19.49-1.19,1.47v5.06h-1.52Z" fill="#3b4351"/><path d="M352,81.13h1.43V82h0a2.13,2.13,0,0,1,1.81-1.08A1.63,1.63,0,0,1,357,82.08a2.07,2.07,0,0,1,1.91-1.15c1.06,0,1.83.55,1.83,2v5.73h-1.51V83.5c0-1-.29-1.36-.91-1.36s-1.2.47-1.2,1.47v5.06h-1.52V83.5c0-1-.29-1.36-.92-1.36s-1.19.49-1.19,1.47v5.06H352Z" fill="#3b4351"/><path d="M362,84.9c0-2.36.62-4,2.8-4s2.82,1.61,2.82,4-.73,4-2.82,4S362,87.25,362,84.9Zm2.8,2.84c1.11,0,1.3-.92,1.3-2.84,0-1.67-.19-2.85-1.3-2.85s-1.29,1.18-1.29,2.85C363.5,86.82,363.71,87.74,364.79,87.74Z" fill="#3b4351"/><path d="M368.77,81.13h1.42V82h.05a2.15,2.15,0,0,1,1.93-1.08c1.15,0,1.88.52,1.88,2v5.69h-1.52V83.5c0-1-.26-1.36-1-1.36-.61,0-1.2.46-1.2,1.47v5.06h-1.51Z" fill="#3b4351"/><path d="M301,99.55h1.51v1.52H301Zm0,2.58h1.51v7.54H301Z" fill="#3b4351"/><path d="M304,102.13h1.43V103h0a2.17,2.17,0,0,1,1.93-1.08c1.15,0,1.88.52,1.88,2v5.69h-1.51V104.5c0-1-.27-1.36-1.05-1.36-.62,0-1.21.46-1.21,1.47v5.06H304Z" fill="#3b4351"/><path d="M317.36,109.86a1.72,1.72,0,0,1-1.71-1.08h0v3.35h-1.52v-10h1.43v.92h0a1.78,1.78,0,0,1,1.69-1.12c1.73,0,2.43,1.47,2.43,4.07C319.69,109.16,318.41,109.86,317.36,109.86Zm-.54-6.72c-1,0-1.28,1-1.28,2.67,0,1.81.23,2.85,1.29,2.85.85,0,1.26-.65,1.26-2.73C318.09,104.22,317.88,103.14,316.82,103.14Z" fill="#3b4351"/><path d="M320.55,105.9c0-2.36.62-4,2.8-4s2.82,1.61,2.82,4-.73,4-2.82,4S320.55,108.25,320.55,105.9Zm2.8,2.84c1.11,0,1.31-.92,1.31-2.84,0-1.67-.2-2.85-1.31-2.85s-1.28,1.18-1.28,2.85C322.07,107.82,322.28,108.74,323.35,108.74Z" fill="#3b4351"/><path d="M326.73,102.13h1.57l1.05,5.94h0l1.12-5.94h1.71l1.12,5.94h0l1-5.94h1.51l-1.72,7.54h-1.7l-1.17-5.86h0l-1.08,5.86h-1.76Z" fill="#3b4351"/><path d="M338.14,106.09v.44c0,1,.12,2.3,1.26,2.3s1.2-1.22,1.2-1.69H342a2.48,2.48,0,0,1-2.65,2.72c-1.23,0-2.76-.36-2.76-3.85,0-2,.44-4.08,2.79-4.08,2.1,0,2.66,1.28,2.66,3.37v.79Zm2.42-1v-.41c0-1-.31-1.68-1.16-1.68s-1.26,1-1.26,1.93v.16Z" fill="#3b4351"/><path d="M343.32,102.13h1.51v1.18h0a1.86,1.86,0,0,1,1.75-1.38.87.87,0,0,1,.36.06v1.54a2.18,2.18,0,0,0-.63-.08c-.68,0-1.51.3-1.51,1.71v4.51h-1.51Z" fill="#3b4351"/><path d="M346.59,107.82h1.6v1.85h-1.6Z" fill="#3b4351"/></g></g><g id="Assyrians"><path d="M874,41.12h3.58l4.61,17.5h-2.92l-1.08-4.29H873l-1.12,4.29H869Zm3.73,11-2-8.63h0l-2.08,8.63Z" fill="#3b4351"/><path d="M885.53,53.2v.44q0,3.21,2.86,3.21A2.51,2.51,0,0,0,891,54.31c0-1.84-.93-2.65-2.5-3.12l-1.91-.66c-2.55-1-3.65-2.3-3.65-4.8,0-3.19,2.18-4.95,5.44-4.95,4.48,0,5,2.79,5,4.61v.39h-2.79v-.37c0-1.59-.69-2.52-2.46-2.52a2.23,2.23,0,0,0-2.35,2.52c0,1.5.76,2.25,2.62,3l1.89.68c2.48.88,3.55,2.21,3.55,4.63,0,3.73-2.25,5.27-5.78,5.27-4.34,0-5.32-2.89-5.32-5.34V53.2Z" fill="#3b4351"/><path d="M898.24,53.2v.44q0,3.21,2.87,3.21a2.51,2.51,0,0,0,2.65-2.54c0-1.84-.93-2.65-2.5-3.12l-1.91-.66c-2.55-1-3.66-2.3-3.66-4.8,0-3.19,2.19-4.95,5.44-4.95,4.49,0,5,2.79,5,4.61v.39h-2.79v-.37c0-1.59-.69-2.52-2.45-2.52a2.23,2.23,0,0,0-2.35,2.52c0,1.5.76,2.25,2.62,3l1.89.68c2.47.88,3.55,2.21,3.55,4.63,0,3.73-2.25,5.27-5.78,5.27-4.34,0-5.32-2.89-5.32-5.34V53.2Z" fill="#3b4351"/><path d="M911.77,51.78l-4.51-10.66h3.11l2.94,7.55,3-7.55h2.91l-4.68,10.66v6.84h-2.79Z" fill="#3b4351"/><path d="M920.59,41.12h6.17c2.45,0,4.44,1.25,4.44,4.51,0,2.26-1,4-2.92,4.29v0c1.76.17,2.65,1.13,2.75,3.58,0,1.15,0,2.5.09,3.55a1.92,1.92,0,0,0,.84,1.52H928.8a2.93,2.93,0,0,1-.47-1.55c-.05-.51-.07-1-.07-1.56s0-1.11,0-1.74c-.08-1.92-.66-2.75-2.55-2.75h-2.28v7.6h-2.79Zm5,7.79a2.57,2.57,0,0,0,2.79-2.84c0-1.86-.78-2.84-2.64-2.84h-2.38v5.68Z" fill="#3b4351"/><path d="M933.62,41.12h2.79v17.5h-2.79Z" fill="#3b4351"/><path d="M942.49,41.12h3.58l4.6,17.5h-2.91l-1.08-4.29h-5.12l-1.13,4.29h-2.92Zm3.72,11-2-8.63h0l-2.09,8.63Z" fill="#3b4351"/><path d="M951.9,41.12h3.4l5.07,13h0v-13h2.65v17.5h-3.41l-5.07-13.38h-.05V58.62H951.9Z" fill="#3b4351"/><path d="M983.6,41.12h2.79v7.62h.05l5.29-7.62h3.07l-5,7.38,5.59,10.12h-3.16l-4.24-7.87L986.39,53v5.66H983.6Z" fill="#3b4351"/><path d="M996.27,40.93h2.64v2.64h-2.64Zm0,4.5h2.64V58.62h-2.64Z" fill="#3b4351"/><path d="M1001.58,45.43h2.5V47h.07a3.79,3.79,0,0,1,3.39-1.89c2,0,3.28.91,3.28,3.58v9.95h-2.65v-9c0-1.77-.46-2.38-1.84-2.38-1.07,0-2.1.81-2.1,2.57v8.85h-2.65Z" fill="#3b4351"/><path d="M1016,59.75a1.73,1.73,0,0,0,1.91,1.56,2.18,2.18,0,0,0,2.23-2.47V56.71h0a3.18,3.18,0,0,1-3,1.81c-3.06,0-3.94-3-3.94-6.64,0-2.89.44-6.79,4.19-6.79a2.91,2.91,0,0,1,2.89,2h0V45.43h2.5V58c0,3.21-1.37,5.15-4.93,5.15-3.92,0-4.36-2.31-4.36-3.38Zm1.86-3.34c2.06,0,2.28-2.59,2.28-4.68s-.27-4.53-2.1-4.53-2.23,2-2.23,4.41C1015.82,53.86,1015.91,56.41,1017.87,56.41Z" fill="#3b4351"/><path d="M1031.89,57h-.05a2.82,2.82,0,0,1-2.89,2c-3.07,0-4.32-2.6-4.32-7.11,0-5.85,2.06-6.76,4.07-6.76a3,3,0,0,1,3,1.89h0V41.12h2.65v17.5h-2.5Zm-2.4-9.8c-1.5,0-2.06,1.22-2.06,4.78,0,3,.37,4.87,2.23,4.87s2.23-1.83,2.23-4.68C1031.89,49,1031.55,47.2,1029.49,47.2Z" fill="#3b4351"/><path d="M1036.42,52c0-4.12,1.08-6.94,4.9-6.94s4.93,2.82,4.93,6.94S1045,59,1041.32,59,1036.42,56.14,1036.42,52Zm4.9,5c1.94,0,2.28-1.62,2.28-5,0-2.92-.34-5-2.28-5s-2.26,2.06-2.26,5C1039.06,55.38,1039.43,57,1041.32,57Z" fill="#3b4351"/><path d="M1048.4,45.43h2.5V47h.07a3.68,3.68,0,0,1,3.16-1.89,2.88,2.88,0,0,1,3.07,2,3.61,3.61,0,0,1,3.33-2c1.86,0,3.21,1,3.21,3.51v10h-2.65v-9c0-1.74-.51-2.38-1.59-2.38s-2.11.83-2.11,2.57v8.85h-2.64v-9c0-1.74-.52-2.38-1.62-2.38s-2.08.86-2.08,2.57v8.85h-2.65Z" fill="#3b4351"/></g></g></svg>