<svg xmlns="http://www.w3.org/2000/svg" viewBox="0 0 1847.91 114"><title>bc1150text</title><g id="YEARS"><g id="Right"><path d="M1792.5,100.34V87h-3.82V85.05h.28c1.77,0,3.8-.44,4.35-2.75v-.37h2.15v18.41Z" fill="#3b4351"/><path d="M1805,100.34V87h-3.82V85.05h.28c1.77,0,3.8-.44,4.34-2.75v-.37h2.16v18.41Z" fill="#3b4351"/><path d="M1812.91,95.38h2.81v.49a2.35,2.35,0,0,0,2.41,2.6c2.08,0,2.63-2,2.63-4.19s-.57-3.92-2.47-3.92a2.35,2.35,0,0,0-2.42,1.69l-2.62-.11.91-9.64H1823v2.36h-6.65l-.6,4.84,0,0a4.06,4.06,0,0,1,3.09-1.43c3.85,0,4.81,3.25,4.81,6.09,0,3.69-1.69,6.5-5.66,6.5-3.31,0-5.15-1.69-5.15-4.94Z" fill="#3b4351"/><path d="M1830.8,81.93c3.53,0,5.51,2.21,5.51,9.39s-2,9.39-5.51,9.39-5.52-2.21-5.52-9.39S1827.26,81.93,1830.8,81.93Zm0,16.7c2,0,2.54-2,2.54-7.31S1832.8,84,1830.8,84s-2.55,2-2.55,7.31S1828.79,98.63,1830.8,98.63Z" fill="#3b4351"/></g><g id="left"><path d="M17.46,102.25V88.89H13.64V87h.29c1.77,0,3.79-.44,4.34-2.75v-.37h2.16v18.41Z" fill="#3b4351"/><path d="M29.94,102.25V88.89H26.12V87h.29c1.77,0,3.79-.44,4.34-2.75v-.37h2.16v18.41Z" fill="#3b4351"/><path d="M37.87,97.28h2.81v.5a2.35,2.35,0,0,0,2.42,2.6c2.08,0,2.63-2,2.63-4.19s-.58-3.92-2.48-3.92A2.34,2.34,0,0,0,40.84,94l-2.63-.11.91-9.64H48v2.36H41.33l-.6,4.84.06,0A4,4,0,0,1,43.88,90c3.85,0,4.81,3.25,4.81,6.08,0,3.7-1.69,6.5-5.67,6.5-3.3,0-5.15-1.69-5.15-4.94Z" fill="#3b4351"/><path d="M55.76,83.84c3.54,0,5.51,2.21,5.51,9.39s-2,9.38-5.51,9.38-5.51-2.21-5.51-9.38S52.22,83.84,55.76,83.84Zm0,16.69c2,0,2.55-2,2.55-7.3s-.55-7.31-2.55-7.31-2.55,2-2.55,7.31S53.76,100.53,55.76,100.53Z" fill="#3b4351"/></g></g><g id="Nation_OUtlines" data-name="Nation OUtlines"><polygon id="Iranians" points="1263.29 565.17 1235.95 451 1211.95 336.5 1241.29 226.5 1280.62 114 1217.95 -0.83 1163.29 -110.16 1140.62 -223.5 1175.95 -334 1153.29 -448.83 1137.95 -562.16 1188.62 -673.5 1153.95 -786.16 1161.95 -899 1156.67 -1014.27 1152.84 -1131.5 1131.29 -1238 1198.62 -1348.5 1275.29 -1460.5 1277.29 -1574.16 1268.62 -1683.83 1283.88 -1795.83 1411.11 -1795.83 1445.69 -1684.27 1480.18 -1573.6 1462.18 -1460.5 1438.19 -1348.5 1387.19 -1238 1387.19 -1126 1420.19 -1011.07 1429.19 -899 1400.69 -786.08 1417.19 -673 1343.69 -562 1325.69 -448 1345.19 -334 1313.69 -222 1298.69 -110 1310.69 0 1348.19 114 1313.69 227 1285.19 338 1294.19 451 1372.19 565.17 1373.74 673.73 1375.34 785.73 1376.98 901 1335.62 1011 1348.62 1123 1391.1 1235 1462.62 1346 1440.62 1458.73 1447.62 1575 1472.62 1687 1505.62 1798.73 1513.62 1908.73 1437.62 2020.73 1391.82 2135.73 1219.62 2021 1086.62 1909 890.71 1798.73 788.62 1687 767.62 1575 866.62 1459 1041.62 1345.73 1176.62 1234.73 1205.62 1122.73 1242.62 1010.73 1294.62 901 1322.62 788.17 1240.62 674 1263.29 565.17" fill="none" stroke="#3b4351" stroke-miterlimit="10"/><polygon id="Indians" points="1372.19 565.17 1294.19 451 1285.19 338 1313.69 227 1348.19 114 1310.69 0 1298.69 -110 1313.69 -222 1345.19 -334 1325.69 -448 1343.69 -562 1417.19 -673 1400.69 -786.08 1429.19 -899 1419.27 -1014.27 1387.19 -1126 1387.19 -1238 1438.19 -1348.5 1462.18 -1460.5 1480.18 -1573.54 1445.82 -1683.83 1411.11 -1795.83 1545.86 -1795.83 1580.1 -1683.83 1593.12 -1573.6 1552.12 -1460.5 1514.62 -1348.5 1514.12 -1238.33 1553.12 -1126.27 1548.12 -1014 1519.62 -899 1534.12 -785.33 1575.12 -673 1559.62 -562 1564.12 -448.27 1534.62 -334 1486.12 -222 1465.12 -110 1471.12 -0.83 1502.12 113.17 1508.12 227 1534.62 338 1542.77 416.86 1555.62 565.17 1554.62 674 1567.12 786 1542.12 900.73 1498.12 1011 1490.62 1123 1513.12 1235 1568.62 1346 1544.12 1459 1530.62 1574.73 1523.62 1686.73 1532.62 1799 1565.12 1909 1543.62 2021 1514.12 2136 1490.12 2245.73 1495.62 2360 1517.12 2473.67 1528.12 2579 1580.62 2691.67 1578.12 2807.67 1578.12 2918.17 1560.12 3029.73 1526.62 3145 1467.62 3259 1381.62 3370.73 1270.62 3481 1090.12 3593.73 860.62 3702 1302.12 3817 1377.03 3929 1550.62 4042 1519.62 4151.83 1476.12 4264.83 1516.13 4378.83 1534.62 4491.17 1552.65 4601.83 1585.62 4715.73 1620.12 4830.83 1650.12 4941.83 1630.62 5049.73 1622.45 5166.73 1565.62 5277.83 1402.62 5391.17 1173.62 5503.83 1148.62 5614.83 1334.62 5729.83 1283.62 5843.83 1344.62 5952.83 1544.62 6065.83 1602.62 6180.17 1627.62 6291.83 1674.62 6404.73 1627.62 6519.83 1634.62 6631.83 1686.62 6743.83 1701.62 6856.83 1620.12 6968.83 1606.12 7079.83 1606.12 7193.66 1552.62 7193.66 1549.52 7079.83 1569.62 6968.83 1683.62 6856.83 1667.62 6743.83 1607.62 6631.83 1596.62 6519.17 1617.62 6404.83 1584.62 6291.83 1562.62 6179.83 1507.62 6065.83 1304.62 5952.73 1225.62 5843.73 1236.97 5806.78 1264.87 5729.83 1082.62 5614.83 1084.2 5504.34 1323.62 5391.83 1500.47 5277.73 1573.62 5166.83 1600.62 5049.83 1604.62 4941.83 1569.62 4830.83 1514.62 4715.83 1447.62 4601.73 1418.62 4489.83 1404.62 4378.83 1367.62 4264.83 1397.62 4151.83 1418.62 4041.73 1339.62 3928.73 1246.62 3817 748.62 3702 753.62 3594 910.76 3481 1053.62 3371 1195.2 3259 1311.62 3144.17 1353.62 3030 1348.62 2919 1364.62 2807.17 1406.62 2692 1401.62 2579 1429.62 2474 1394.62 2359.73 1393.2 2246 1391.82 2135.73 1437.52 2021 1513.62 1908.73 1505.64 1799 1472.62 1687.17 1447.62 1575 1440.63 1459 1462.62 1346 1391.1 1235 1348.62 1123 1332.62 1011 1376.98 901 1375.34 785.73 1373.74 673.73 1372.19 565.17" fill="none" stroke="#3b4351" stroke-miterlimit="10"/><polygon id="Huns" points="1555.62 565.17 1545.73 451 1533.62 337.67 1506.68 227.65 1502.16 114 1471.34 0 1465.12 -110 1486.12 -222 1534.62 -334 1564.05 -448 1559.62 -562 1575.12 -673 1534.24 -785 1519.62 -899 1548.12 -1014 1553.11 -1126 1514.47 -1238.27 1514.62 -1350.5 1552.12 -1460.5 1593.12 -1573.16 1580.1 -1683.83 1545.86 -1795.83 1633.99 -1795.83 1651.62 -1683.83 1667.62 -1573.16 1646.62 -1460.5 1620.62 -1348.5 1630.4 -1240.4 1650.62 -1126.33 1676.62 -1014 1700.12 -899 1689.12 -785 1714.62 -673.33 1697.12 -562.27 1645.62 -448.27 1616.12 -334 1586.62 -222.27 1538.12 -110.27 1509.12 0 1551.62 114 1585.12 227 1608.62 337.67 1609.69 450.73 1610.76 563.73 1613.62 673.73 1625.12 785.73 1599.12 901.67 1557.59 1011 1545.65 1123 1558.62 1235 1584.62 1345.73 1571.12 1459.17 1576.62 1575 1567.62 1687 1587.12 1799 1621.12 1909 1612.12 2021 1556.12 2136 1528.62 2246 1529.62 2360 1553.62 2474 1616.07 2579 1609.25 2692 1592.66 2808 1611.01 2918.73 1612.12 3030 1598.04 3145 1564.12 3259 1534.29 3371 1602.12 3480.73 1653.62 3594 1673.62 3702 1666.12 3817 1668.12 3928.67 1625.62 4041.67 1542.12 4151.83 1476.12 4264.83 1519.62 4151.83 1550.62 4042 1376.62 3928.73 1302.12 3817 860.62 3702 1090.12 3593.73 1270.62 3481 1381.62 3370.73 1467.62 3259 1526.62 3145 1560.12 3029.73 1578.12 2918.17 1578.12 2807.67 1580.62 2691.67 1528.12 2579 1517.12 2473.67 1495.62 2360 1490.12 2245.73 1514.12 2136 1543.62 2021 1565.12 1909 1532.62 1799 1523.62 1686.73 1530.62 1574.73 1544.12 1459 1568.62 1346 1513.12 1235 1490.62 1123 1498.12 1011 1542.12 900.73 1567.12 786 1554.62 674 1555.62 565.17" fill="none" stroke="#3b4351" stroke-miterlimit="10"/><polygon id="Hitites" points="347.74 563.73 337.24 451 361.62 338 400.62 227 439.62 114 658.62 0 742.62 -110 835.62 -222 785.62 -334 750.62 -448 770.62 -562 800.62 -673.83 733.62 -785.27 656.62 -899.08 662.62 -1014 633.62 -1126 663.62 -1238 786.62 -1348.5 940.62 -1460.5 982.62 -1573.16 1042.62 -1683.83 1103.77 -1795.83 1152.07 -1795.83 1091.29 -1683.83 1025.29 -1573.16 1027.29 -1460.5 910.76 -1348.5 823.95 -1238 785.95 -1126 826.62 -1014 853.28 -899 910.76 -785.27 992.62 -673 961.95 -562.83 971.95 -448.16 969.28 -334 975.28 -222.16 954.62 -112.16 857.28 0 623.95 114 566.62 227 481.23 338 394.24 451 347.74 563.73" fill="none" stroke="#3b4351" stroke-miterlimit="10"/><polygon id="Greeks" points="1131.14 2579 1118.7 2474 998.71 2360 683.72 2246 467.73 2136 287.74 2021 231.95 1909 205.28 1799 169.95 1687 149.95 1575 137.95 1459 116.62 1346 111.95 1235 95.28 1123 85.95 1011 75.42 901 75.42 727.67 75.42 -562 142.25 -448 145.25 -334 155.75 -222 172.25 -110 202.25 0 223.25 114 251.62 227 250.62 338 221.95 451.84 228.6 563.73 199.95 673.84 217.95 785.84 237.43 901 262.62 1011 259.95 1123 319.29 1235 349.95 1346 401.29 1459 527.28 1575 645.95 1687 761.95 1799 965.29 1909 965.95 2021 897.95 2135.17 910.76 2245.73 1099.37 2360 1168.66 2474.09 1131.14 2579" fill="none" stroke="#3b4351" stroke-miterlimit="10"/><polygon id="Egyptians" points="1195.2 2689.31 1131.14 2579 1168.66 2474.09 1099.2 2359.73 910.76 2245.73 897.95 2135.17 965.95 2021 965.28 1908.5 761.95 1799 645.95 1687 527.28 1575 401.29 1459 349.95 1346 319.29 1235 259.95 1123 262.62 1011 238.62 901 217.95 786 199.95 674 228.62 564 221.62 451 250.62 338 251.62 227 223.25 114 271.57 0 265.25 -110 305.74 -222 341.74 -334 376.24 -448 440.74 -562 467.73 -672.09 443.74 -785 381.96 -899 242.75 -1014 298.62 -1126 424.24 -1238 460.24 -1348.5 397.24 -1460.5 319.24 -1573.16 319.24 -1683.83 298.62 -1795.83 1103.77 -1795.83 1042.62 -1683.83 982.62 -1573.16 940.62 -1460.5 786.62 -1348.5 663.62 -1238 633.62 -1126 662.62 -1014 656.62 -899.08 733.62 -785.27 800.62 -673.83 770.62 -562 750.62 -448 785.62 -334 835.62 -222 742.62 -110 658.62 0 439.62 114 400.62 227 361.62 338 302.62 451 310.62 564 282.62 674 271.95 786 305.95 1011 323.95 1122.5 432.62 1235 476.62 1345.17 451.95 1459 555.95 1575 667.28 1687 813.28 1799 968.62 1909 995.95 2021 968.62 2135.84 940.62 2244.5 1130.91 2359.73 1189.62 2474.67 1157.7 2579 1195.2 2689.31" fill="none" stroke="#3b4351" stroke-miterlimit="10"/><polygon id="Chinese" points="1610.76 563.73 1609.69 450.73 1608.62 337.67 1585.12 227 1551.62 114 1509.12 0 1538.12 -110.27 1586.62 -222.27 1616.12 -334 1645.62 -448.27 1697.12 -562.27 1714.62 -673.33 1689.12 -785 1700.12 -899 1676.62 -1014 1650.62 -1126.33 1630.62 -1238 1620.62 -1348.5 1646.62 -1460.5 1667.62 -1573.16 1651.62 -1683.83 1633.99 -1795.83 1768.79 -1795.83 1768.79 6404.83 1768.79 6519.73 1766.12 6631.83 1757.62 6743.83 1736.12 6856.73 1676.12 6968.73 1661.12 7079.83 1663.62 7193.66 1606.12 7193.66 1606.12 7079.73 1620.12 6968.83 1701.62 6856.83 1696.12 6743.67 1654.12 6631.83 1681.62 6519.83 1739.62 6404.73 1748.62 6291.67 1744.12 6179.67 1685.62 6065.83 1615.12 5955.17 1636.12 5843.83 1738.62 5729.83 1761.12 5614.83 1758.62 5503.83 1732.12 5391.83 1695.62 5277.83 1667.62 5166.83 1651.12 5049.83 1650.12 4941.83 1620.12 4830.83 1585.62 4715.73 1552.62 4601.73 1535.12 4489.83 1516.12 4378.73 1476.12 4264.83 1542.12 4151.83 1625.62 4041.67 1668.12 3928.67 1666.12 3817 1673.62 3702 1653.62 3594 1602.12 3480.73 1534.12 3370.73 1564.12 3259 1598.12 3144.73 1612.12 3030 1611.01 2918.73 1592.62 2807.73 1609.25 2692 1616.07 2579 1553.62 2474 1529.62 2360 1528.62 2245.73 1555.62 2136 1612.12 2021 1621.12 1909 1587.12 1799 1567.62 1687 1576.62 1575 1571.12 1459 1584.62 1345.73 1558.62 1235 1545.62 1122.73 1557.62 1010.73 1599.62 901 1625.12 785.73 1613.62 673.73 1610.76 563.73" fill="none" stroke="#3b4351" stroke-miterlimit="10"/><polygon id="Amorites" points="1263.29 565.17 1240.62 674 1322.62 786 1294.62 901 1242.62 1010.73 1205.62 1122.73 1176.62 1234.73 1041.62 1345.73 866.62 1459 767.62 1575 788.62 1687 890.71 1798.73 762.62 1686.73 716.62 1574.73 709.62 1459 755.62 1346 1054.29 1234.73 1156.62 1123 1173.62 1009.17 1199.62 899.17 1138.62 786 910.76 674 832.62 563.73 949.95 451 1040.62 337.73 1141.31 227 1225.29 113.84 1147.62 0 1085.29 -110 1061.29 -222.27 1028.62 -334.27 971.95 -448.16 961.95 -562.83 992.62 -673 910.76 -785.27 853.28 -899 826.62 -1014 785.95 -1126 823.95 -1238 910.76 -1348.5 1027.29 -1460.5 1025.29 -1573.16 1091.29 -1683.83 1152.07 -1795.83 1283.88 -1795.83 1268.62 -1683.83 1277.29 -1574.16 1275.29 -1460.5 1198.62 -1348.5 1131.29 -1238 1153.95 -1126 1156.67 -1014.27 1161.95 -899 1153.95 -786.16 1188.62 -673.5 1137.95 -562.16 1153.29 -448.83 1175.95 -334 1140.62 -223.5 1163.29 -110.16 1217.95 -0.83 1280.62 114 1241.29 226.5 1211.95 336.5 1235.95 451 1263.29 565.17" fill="none" stroke="#3b4351" stroke-miterlimit="10"/><polygon id="Aegeans" points="223.25 114 202.25 0 172.25 -110 155.75 -222 145.25 -334 142.25 -448 75.42 -562 75.42 -1795.83 298.62 -1795.83 319.24 -1683.83 319.24 -1573.16 397.24 -1460.5 460.24 -1348.5 424.24 -1238 298.62 -1126 242.75 -1014 381.96 -899 443.74 -785 467.73 -672.09 440.74 -562 376.24 -448 341.74 -334 305.74 -222 265.25 -110 271.57 0 223.25 114" fill="none" stroke="#3b4351" stroke-miterlimit="10"/><polygon id="Assyrian_Kingdom" data-name="Assyrian Kingdom" points="631.95 563.73 635.28 451 679.9 338 701.28 227 799.28 114 980.62 0 1007.95 -110 1020.62 -222 998.62 -334 971.95 -448.16 1028.62 -334.27 1061.29 -222.27 1085.29 -110 1147.62 0 1225.29 113.84 1141.31 227 1040.62 337.73 949.95 451 832.62 563.73 910.76 674 1138.62 786 1199.62 899.17 1173.62 1009.17 1156.62 1123 1054.29 1234.73 755.62 1346 709.62 1459 716.62 1574.73 658.28 1459 654.62 1346 630.95 1235 510.62 1123 518.62 1011 595.95 901 638.62 786 643.28 674 631.95 563.73" fill="none" stroke="#3b4351" stroke-miterlimit="10"/><polygon id="Hebrews" points="635.28 451 631.95 563.73 643.28 674 638.62 786 595.95 901 518.62 1011 510.62 1123 630.95 1235 654.62 1346 658.28 1459 716.62 1574.73 647.18 1459 644.62 1346 617.95 1235 493.29 1123 500.03 1011 570.62 901 613.28 787 583.28 674 569.28 564 511.95 451 573.95 338 630.62 227 697.58 114 921.28 0 989.95 -110 1020.62 -222 1007.95 -110 980.62 0 799.28 114 701.28 227 679.9 338 635.28 451" fill="none" stroke="#3b4351" stroke-miterlimit="10"/><polygon points="1130.91 2359.73 940.62 2244.5 968.62 2135.84 995.95 2021 968.62 1909 813.28 1799 667.28 1687 624.62 1575 611.95 1459 608.62 1346 523.28 1235 375.82 1123 387.95 1011 383.29 901 359.29 786 340.62 675.16 347.74 563.73 394.24 451 481.23 338 566.62 227 623.95 114 857.28 0 954.62 -112.16 975.28 -222.16 969.28 -334 971.95 -448.16 998.62 -334 1020.62 -222 989.95 -110 921.28 0 697.58 114 630.62 227 573.95 338 511.95 451 538.62 564 509.95 674 479.29 786 428.62 901 439.95 1011 493.29 1123 617.95 1235 644.62 1346 647.18 1459 716.62 1574.73 762.62 1686.73 890.71 1798.73 1086.62 1909 1219.62 2021 1225.12 2136 1186.62 2246 1130.91 2359.73" fill="none" stroke="#3b4351" stroke-miterlimit="10"/></g><g id="Text"><g id="Chinese-2" data-name="Chinese"><path d="M1558.84,11.24h4.36l3.08,13h0l3-13h4.27V28.73H1571V14.18h0l-3.53,14.55h-2.35l-3.53-14.55h0V28.73h-2.64Z" fill="#3b4351"/><path d="M1576.48,11h2.64v2.65h-2.64Zm0,4.51h2.64V28.73h-2.64Z" fill="#3b4351"/><path d="M1588.53,27.12h0a2.83,2.83,0,0,1-2.89,2c-3.06,0-4.31-2.6-4.31-7.11,0-5.86,2-6.76,4.06-6.76a3,3,0,0,1,3,1.88h.05V11.24H1591V28.73h-2.5Zm-2.4-9.81c-1.5,0-2.06,1.23-2.06,4.78,0,3,.37,4.88,2.23,4.88s2.23-1.84,2.23-4.68C1588.53,19.13,1588.19,17.31,1586.13,17.31Z" fill="#3b4351"/><path d="M1600.31,27.12h0a2.83,2.83,0,0,1-2.9,2c-3.06,0-4.31-2.6-4.31-7.11,0-5.86,2.06-6.76,4.07-6.76a3.06,3.06,0,0,1,3,1.88h.05V11.24h2.64V28.73h-2.5Zm-2.4-9.81c-1.49,0-2.06,1.23-2.06,4.78,0,3,.37,4.88,2.23,4.88s2.23-1.84,2.23-4.68C1600.31,19.13,1600,17.31,1597.91,17.31Z" fill="#3b4351"/><path d="M1605.48,11.24h2.65V28.73h-2.65Z" fill="#3b4351"/><path d="M1613.08,22.48v.76c0,1.77.22,4,2.2,4s2.11-2.13,2.11-2.94h2.5c0,3-1.77,4.76-4.63,4.76-2.16,0-4.83-.64-4.83-6.74,0-3.46.76-7.13,4.88-7.13,3.67,0,4.65,2.23,4.65,5.88v1.39Zm4.24-1.81V20c0-1.67-.54-2.94-2-2.94-1.66,0-2.2,1.67-2.2,3.38v.27Z" fill="#3b4351"/><path d="M1628.19,11.24h2.8v7.62h0l5.3-7.62h3.06l-5.05,7.37,5.59,10.12h-3.16l-4.24-7.86-1.54,2.2v5.66h-2.8Z" fill="#3b4351"/><path d="M1640.86,11h2.65v2.65h-2.65Zm0,4.51h2.65V28.73h-2.65Z" fill="#3b4351"/><path d="M1646.17,15.55h2.5v1.54h.08a3.78,3.78,0,0,1,3.38-1.88c2,0,3.28.9,3.28,3.57v10h-2.64v-9c0-1.76-.47-2.38-1.84-2.38-1.08,0-2.11.81-2.11,2.58v8.84h-2.65Z" fill="#3b4351"/><path d="M1660.6,29.86a1.73,1.73,0,0,0,1.92,1.57,2.19,2.19,0,0,0,2.23-2.48V26.82h0a3.2,3.2,0,0,1-3,1.82c-3.07,0-4-3-4-6.65,0-2.89.44-6.78,4.19-6.78a2.9,2.9,0,0,1,2.89,2h.05V15.55h2.5V28.1c0,3.21-1.37,5.14-4.92,5.14-3.92,0-4.36-2.3-4.36-3.38Zm1.87-3.33c2.06,0,2.28-2.6,2.28-4.68s-.27-4.54-2.11-4.54-2.23,2-2.23,4.41C1660.41,24,1660.51,26.53,1662.47,26.53Z" fill="#3b4351"/><path d="M1676.48,27.12h0a2.83,2.83,0,0,1-2.89,2c-3.06,0-4.31-2.6-4.31-7.11,0-5.86,2.06-6.76,4.07-6.76a3.06,3.06,0,0,1,3,1.88h0V11.24H1679V28.73h-2.5Zm-2.4-9.81c-1.49,0-2.06,1.23-2.06,4.78,0,3,.37,4.88,2.23,4.88s2.23-1.84,2.23-4.68C1676.48,19.13,1676.14,17.31,1674.08,17.31Z" fill="#3b4351"/><path d="M1681,22.14c0-4.12,1.08-6.93,4.9-6.93s4.93,2.81,4.93,6.93-1.28,6.94-4.93,6.94S1681,26.26,1681,22.14Zm4.9,5c1.94,0,2.28-1.62,2.28-5,0-2.91-.34-5-2.28-5s-2.25,2.06-2.25,5C1683.66,25.5,1684,27.12,1685.91,27.12Z" fill="#3b4351"/><path d="M1693,15.55h2.5v1.54h.08a3.69,3.69,0,0,1,3.16-1.88,2.85,2.85,0,0,1,3.06,2,3.59,3.59,0,0,1,3.33-2c1.87,0,3.21.95,3.21,3.5v10h-2.64v-9c0-1.74-.52-2.38-1.6-2.38s-2.1.84-2.1,2.58v8.84h-2.65v-9c0-1.74-.52-2.38-1.62-2.38s-2.08.86-2.08,2.58v8.84H1693Z" fill="#3b4351"/></g><g id="Hittites"><g id="small"><path d="M648.87,28v.21c0,1.81-.75,3.57-3.08,3.57-2.53,0-3.31-1.62-3.31-5.2s.78-5.19,3.32-5.19c2.84,0,3,2.08,3,3.13v.19h-1.6v-.17c0-.94-.28-2-1.42-1.95s-1.71.73-1.71,3.95.51,4,1.71,4,1.48-1.48,1.48-2.41V28Z" fill="#3b4351"/><path d="M649.59,27.82c0-2.36.62-4,2.8-4s2.82,1.61,2.82,4-.73,4-2.82,4S649.59,30.17,649.59,27.82Zm2.8,2.84c1.11,0,1.31-.92,1.31-2.84,0-1.67-.2-2.85-1.31-2.85s-1.29,1.18-1.29,2.85C651.1,29.74,651.31,30.66,652.39,30.66Z" fill="#3b4351"/><path d="M656.44,24.05h1.43v.88h0a2.12,2.12,0,0,1,1.81-1.08A1.65,1.65,0,0,1,661.47,25a2,2,0,0,1,1.9-1.15c1.07,0,1.84.55,1.84,2v5.72h-1.52V26.42c0-1-.29-1.36-.91-1.36s-1.2.47-1.2,1.47v5h-1.51V26.42c0-1-.3-1.36-.93-1.36s-1.19.49-1.19,1.47v5h-1.51Z" fill="#3b4351"/><path d="M666.8,24.05h1.43v.88h0a2.12,2.12,0,0,1,1.81-1.08A1.65,1.65,0,0,1,671.83,25a2,2,0,0,1,1.9-1.15c1.07,0,1.84.55,1.84,2v5.72h-1.52V26.42c0-1-.29-1.36-.91-1.36s-1.2.47-1.2,1.47v5h-1.51V26.42c0-1-.3-1.36-.93-1.36s-1.19.49-1.19,1.47v5H666.8Z" fill="#3b4351"/><path d="M678.39,28v.44c0,1,.13,2.29,1.26,2.29s1.21-1.21,1.21-1.68h1.42a2.47,2.47,0,0,1-2.64,2.72c-1.24,0-2.76-.36-2.76-3.85,0-2,.43-4.08,2.78-4.08,2.11,0,2.67,1.28,2.67,3.36V28Zm2.42-1v-.41c0-.95-.31-1.68-1.16-1.68s-1.26.95-1.26,1.93V27Z" fill="#3b4351"/><path d="M683.57,24.05h1.51v1.17h0a1.87,1.87,0,0,1,1.75-1.37.92.92,0,0,1,.37.06v1.54a2.32,2.32,0,0,0-.64-.08c-.68,0-1.51.3-1.51,1.7v4.51h-1.51Z" fill="#3b4351"/><path d="M693,28.84c-.11,1.81-.7,2.94-2.58,2.94-2.18,0-2.8-1.61-2.8-4s.62-4,2.8-4A2.44,2.44,0,0,1,693,26.56h-1.51c0-.7-.18-1.63-1.08-1.59-1.08,0-1.29,1.18-1.29,2.85s.21,2.84,1.29,2.84c.84,0,1.15-.69,1.15-1.82Z" fill="#3b4351"/><path d="M694.18,21.47h1.51V23h-1.51Zm0,2.58h1.51v7.53h-1.51Z" fill="#3b4351"/><path d="M702.16,30c0,.28.17.53.4.53a.76.76,0,0,0,.25,0v1a1.71,1.71,0,0,1-.74.18c-.68,0-1.24-.27-1.28-1h0a1.93,1.93,0,0,1-1.87,1.11c-1.22,0-2-.66-2-2.11a2.08,2.08,0,0,1,1.76-2.37l1.17-.32c.55-.16.88-.31.88-1s-.23-1.12-1-1.12c-1,0-1.15.71-1.15,1.44h-1.43c0-1.61.66-2.48,2.65-2.48,1.33,0,2.39.52,2.39,1.85Zm-1.43-2.41a13.18,13.18,0,0,1-1.68.7,1.23,1.23,0,0,0-.61,1.22c0,.63.31,1.13.94,1.13.91,0,1.35-.67,1.35-1.79Z" fill="#3b4351"/><path d="M703.77,21.58h1.51v10h-1.51Z" fill="#3b4351"/><path d="M715.11,30c0,.28.17.53.4.53a.76.76,0,0,0,.25,0v1a1.71,1.71,0,0,1-.74.18c-.68,0-1.24-.27-1.28-1h0a1.93,1.93,0,0,1-1.87,1.11c-1.22,0-2-.66-2-2.11a2.08,2.08,0,0,1,1.75-2.37L712.8,27c.55-.16.88-.31.88-1s-.23-1.12-1-1.12c-1,0-1.15.71-1.15,1.44h-1.43c0-1.61.66-2.48,2.65-2.48,1.33,0,2.39.52,2.39,1.85Zm-1.43-2.41a13.18,13.18,0,0,1-1.68.7,1.23,1.23,0,0,0-.61,1.22c0,.63.31,1.13.94,1.13.91,0,1.35-.67,1.35-1.79Z" fill="#3b4351"/><path d="M721.73,28.84c-.11,1.81-.7,2.94-2.57,2.94-2.19,0-2.8-1.61-2.8-4s.61-4,2.8-4a2.44,2.44,0,0,1,2.59,2.71h-1.51c0-.7-.19-1.63-1.08-1.59-1.08,0-1.29,1.18-1.29,2.85s.21,2.84,1.29,2.84c.84,0,1.15-.69,1.15-1.82Z" fill="#3b4351"/><path d="M722.19,24.05h1V21.91h1.51v2.14H726v1.12h-1.24v4.5c0,.6.17.79.69.79a2.81,2.81,0,0,0,.55,0v1.12a4.69,4.69,0,0,1-1.22.13c-1,0-1.53-.3-1.53-1.82V25.17h-1Z" fill="#3b4351"/><path d="M726.83,21.47h1.51V23h-1.51Zm0,2.58h1.51v7.53h-1.51Z" fill="#3b4351"/><path d="M729.24,24.05h1.62L732.18,30h0l1.19-5.94H735l-2,7.53h-1.77Z" fill="#3b4351"/><path d="M735.9,21.47h1.51V23H735.9Zm0,2.58h1.51v7.53H735.9Z" fill="#3b4351"/><path d="M738.27,24.05h1V21.91h1.51v2.14h1.24v1.12h-1.24v4.5c0,.6.17.79.69.79a2.75,2.75,0,0,0,.55,0v1.12a4.64,4.64,0,0,1-1.22.13c-1,0-1.53-.3-1.53-1.82V25.17h-1Z" fill="#3b4351"/><path d="M743.84,24.05l1.3,5.66h0l1.2-5.66H748l-2.08,7.81c-.6,2.06-1.06,2.34-2.63,2.3a3,3,0,0,1-.6,0V32.9a2.05,2.05,0,0,0,.49.06c.52,0,.85-.1,1-.59l.2-.62-2.15-7.7Z" fill="#3b4351"/><path d="M747.91,29.74h1.6v1.84h-1.6Z" fill="#3b4351"/><path d="M530.59,85.08v.21c0,1.81-.74,3.57-3.08,3.57-2.52,0-3.31-1.62-3.31-5.19s.79-5.2,3.32-5.2c2.84,0,3,2.09,3,3.14v.18h-1.59v-.17c0-.94-.28-2-1.43-2s-1.71.73-1.71,4,.52,4,1.71,4c1.34,0,1.48-1.47,1.48-2.41v-.17Z" fill="#3b4351"/><path d="M531.61,78.66h1.51v3.28l0,0a2.16,2.16,0,0,1,1.85-1c1.15,0,1.88.52,1.88,2v5.69h-1.51V83.5c0-1-.28-1.36-1.06-1.36-.61,0-1.2.47-1.2,1.47v5.06h-1.51Z" fill="#3b4351"/><path d="M538.41,78.55h1.51v1.51h-1.51Zm0,2.58h1.51v7.54h-1.51Z" fill="#3b4351"/><path d="M542.75,85.09v.44c0,1,.13,2.3,1.26,2.3s1.21-1.22,1.21-1.69h1.43A2.48,2.48,0,0,1,544,88.86c-1.23,0-2.76-.36-2.76-3.85,0-2,.43-4.08,2.79-4.08,2.1,0,2.66,1.28,2.66,3.37v.79Zm2.43-1v-.41c0-1-.31-1.68-1.17-1.68s-1.26,1-1.26,1.93v.16Z" fill="#3b4351"/><path d="M548.39,82.25h-1V81.13h1v-.7c0-1.42.69-1.88,1.92-1.88.32,0,.6,0,.83,0v1.17h-.42c-.56,0-.81.21-.81.71v.66h1.23v1.12h-1.23v6.42h-1.52Z" fill="#3b4351"/><path d="M560.27,85.92c-.11,1.81-.7,2.94-2.58,2.94-2.18,0-2.8-1.61-2.8-4s.62-4,2.8-4a2.44,2.44,0,0,1,2.59,2.71h-1.51c0-.7-.18-1.63-1.08-1.59-1.08,0-1.29,1.18-1.29,2.85s.21,2.84,1.29,2.84c.84,0,1.15-.69,1.15-1.82Z" fill="#3b4351"/><path d="M561.47,78.55H563v1.51h-1.51Zm0,2.58H563v7.54h-1.51Z" fill="#3b4351"/><path d="M563.83,81.13h1V79h1.51v2.14h1.24v1.12h-1.24v4.5c0,.6.17.79.69.79a2.81,2.81,0,0,0,.55,0v1.12a4.69,4.69,0,0,1-1.22.13c-1,0-1.53-.29-1.53-1.82V82.25h-1Z" fill="#3b4351"/><path d="M569.41,81.13l1.3,5.66h0l1.2-5.66h1.59L571.45,89c-.6,2-1.06,2.34-2.63,2.29a3,3,0,0,1-.6,0V90a2,2,0,0,0,.49.06c.52,0,.85-.1,1-.59l.2-.62-2.15-7.7Z" fill="#3b4351"/><path d="M584,85.08v.21c0,1.81-.74,3.57-3.08,3.57-2.52,0-3.31-1.62-3.31-5.19s.79-5.2,3.32-5.2c2.85,0,3,2.09,3,3.14v.18h-1.59v-.17c0-.94-.28-2-1.43-2s-1.71.73-1.71,4,.52,4,1.71,4c1.34,0,1.48-1.47,1.48-2.41v-.17Z" fill="#3b4351"/><path d="M589.93,87.1c0,.28.17.53.4.53a.57.57,0,0,0,.25,0v1a1.58,1.58,0,0,1-.74.18c-.68,0-1.24-.27-1.28-1h0a1.94,1.94,0,0,1-1.87,1.1c-1.22,0-2-.66-2-2.11a2.09,2.09,0,0,1,1.76-2.37l1.17-.32c.55-.16.88-.31.88-1s-.23-1.12-1-1.12c-1,0-1.15.71-1.15,1.44h-1.43c0-1.61.66-2.48,2.65-2.48,1.33,0,2.39.52,2.39,1.85Zm-1.43-2.41a11.88,11.88,0,0,1-1.68.7,1.24,1.24,0,0,0-.61,1.22c0,.63.31,1.13.94,1.13.91,0,1.35-.67,1.35-1.79Z" fill="#3b4351"/><path d="M591.47,81.13H593v1.18h0a1.88,1.88,0,0,1,1.75-1.38.92.92,0,0,1,.37.06v1.54a2.3,2.3,0,0,0-.63-.08c-.69,0-1.52.3-1.52,1.71v4.51h-1.51Z" fill="#3b4351"/><path d="M600.88,85.92c-.11,1.81-.7,2.94-2.58,2.94-2.18,0-2.8-1.61-2.8-4s.62-4,2.8-4a2.44,2.44,0,0,1,2.59,2.71h-1.51c0-.7-.18-1.63-1.08-1.59-1.07,0-1.28,1.18-1.28,2.85s.21,2.84,1.28,2.84c.84,0,1.15-.69,1.15-1.82Z" fill="#3b4351"/><path d="M601.93,78.66h1.51v3.28l0,0a2.16,2.16,0,0,1,1.85-1c1.15,0,1.88.52,1.88,2v5.69H605.7V83.5c0-1-.28-1.36-1.05-1.36s-1.21.47-1.21,1.47v5.06h-1.51Z" fill="#3b4351"/><path d="M610,85.09v.44c0,1,.13,2.3,1.27,2.3s1.2-1.22,1.2-1.69h1.43a2.48,2.48,0,0,1-2.65,2.72c-1.23,0-2.76-.36-2.76-3.85,0-2,.44-4.08,2.79-4.08,2.1,0,2.66,1.28,2.66,3.37v.79Zm2.43-1v-.41c0-1-.31-1.68-1.16-1.68s-1.27,1-1.27,1.93v.16Z" fill="#3b4351"/><path d="M615.21,81.13h1.43V82h0a2.13,2.13,0,0,1,1.81-1.08,1.63,1.63,0,0,1,1.75,1.15,2.07,2.07,0,0,1,1.91-1.15c1.06,0,1.83.55,1.83,2v5.73h-1.51V83.5c0-1-.29-1.36-.91-1.36s-1.21.47-1.21,1.47v5.06h-1.51V83.5c0-1-.29-1.36-.92-1.36s-1.19.49-1.19,1.47v5.06h-1.52Z" fill="#3b4351"/><path d="M625.57,78.55h1.52v1.51h-1.52Zm0,2.58h1.52v7.54h-1.52Z" fill="#3b4351"/><path d="M631.86,83.33v-.2c0-.6-.21-1.16-1-1.16-.61,0-1.08.27-1.08,1s.26.83,1.06,1.11l1,.33a2,2,0,0,1,1.64,2.17c0,1.62-1.19,2.3-2.71,2.3-1.9,0-2.47-.88-2.47-2.34v-.28h1.34v.24c0,.88.29,1.35,1.18,1.35S632,87.4,632,86.72a1.09,1.09,0,0,0-.83-1.11L630,85.18A2,2,0,0,1,628.36,83c0-1.42,1-2.08,2.58-2.08,1.92,0,2.35,1.12,2.35,2.06v.34Z" fill="#3b4351"/><path d="M634.58,78.66h1.51v3.28l0,0a2.14,2.14,0,0,1,1.85-1c1.15,0,1.88.52,1.88,2v5.69h-1.52V83.5c0-1-.28-1.36-1.05-1.36-.61,0-1.2.47-1.2,1.47v5.06h-1.51Z" fill="#3b4351"/></g></g><g id="Egytians"><g id="small-2" data-name="small"><path d="M287.28,11.26v.25c0,1.22.55,1.84,1.64,1.84a1.44,1.44,0,0,0,1.51-1.46A1.68,1.68,0,0,0,289,10.11l-1.09-.37A2.67,2.67,0,0,1,285.82,7c0-1.82,1.25-2.83,3.11-2.83,2.57,0,2.83,1.6,2.83,2.63V7h-1.59V6.81c0-.91-.4-1.44-1.4-1.44a1.27,1.27,0,0,0-1.35,1.44c0,.85.43,1.29,1.5,1.69l1.08.39a2.56,2.56,0,0,1,2,2.65c0,2.13-1.29,3-3.31,3a2.74,2.74,0,0,1-3-3.05v-.24Z" fill="#3b4351"/><path d="M294.52,10.79v.43c0,1,.12,2.3,1.26,2.3s1.2-1.22,1.2-1.68h1.43a2.47,2.47,0,0,1-2.64,2.71c-1.24,0-2.76-.36-2.76-3.85,0-2,.43-4.07,2.78-4.07,2.1,0,2.66,1.27,2.66,3.36v.8Zm2.42-1V9.34c0-.95-.31-1.68-1.16-1.68s-1.26.95-1.26,1.94v.15Z" fill="#3b4351"/><path d="M299,6.82h1V4.68h1.51V6.82h1.24V7.94h-1.24v4.5c0,.6.17.8.69.8a3.78,3.78,0,0,0,.55,0v1.12a5.17,5.17,0,0,1-1.22.12c-1,0-1.53-.29-1.53-1.82V7.94h-1Z" fill="#3b4351"/><path d="M303.66,4.24h1.51V5.76h-1.51Zm0,2.58h1.51v7.54h-1.51Z" fill="#3b4351"/><path d="M310.09,4.36h1.59v10h-1.59Z" fill="#3b4351"/><path d="M313.19,4.36h1.6v10h-1.6Z" fill="#3b4351"/><path d="M316.43,12.51H318v1.85h-1.59Z" fill="#3b4351"/><path d="M359.85,9.27l-2.4-4.91h1.76l1.6,3.32,1.57-3.32h1.72l-2.42,4.91,2.55,5.09h-1.77l-1.74-3.62-1.78,3.62h-1.72Z" fill="#3b4351"/><path d="M366.85,9.27l-2.4-4.91h1.76l1.6,3.32,1.57-3.32h1.72l-2.42,4.91,2.55,5.09h-1.77l-1.74-3.62-1.78,3.62h-1.72Z" fill="#3b4351"/><path d="M371.28,6.82h1V4.68h1.52V6.82h1.23V7.94h-1.23v4.5c0,.6.17.8.68.8a3.78,3.78,0,0,0,.55,0v1.12a5.17,5.17,0,0,1-1.22.12c-1,0-1.53-.29-1.53-1.82V7.94h-1Z" fill="#3b4351"/><path d="M375.84,4.36h1.51V7.63l0,0a2.13,2.13,0,0,1,1.85-1c1.14,0,1.87.51,1.87,2v5.69h-1.51V9.19c0-1-.28-1.36-1.05-1.36s-1.21.48-1.21,1.47v5.06h-1.51Z" fill="#3b4351"/><path d="M386,4.36h2.85c3.14,0,3.53,2,3.53,5s-.39,5-3.53,5H386Zm1.6,8.79H389c1.31,0,1.86-.87,1.86-3.79s-.48-3.8-1.86-3.8h-1.32Z" fill="#3b4351"/><path d="M394.73,6.82l1.3,5.66h0l1.2-5.66h1.59l-2.08,7.82c-.6,2.06-1.06,2.34-2.63,2.3a3.05,3.05,0,0,1-.6-.06V15.67a1.65,1.65,0,0,0,.49.06c.52,0,.85-.1,1-.59l.2-.61L393.1,6.82Z" fill="#3b4351"/><path d="M399.68,6.82h1.43V7.7h0a2.17,2.17,0,0,1,1.94-1.07c1.15,0,1.87.51,1.87,2v5.69h-1.51V9.19c0-1-.26-1.36-1.05-1.36-.61,0-1.2.46-1.2,1.47v5.06h-1.52Z" fill="#3b4351"/><path d="M411.36,12.79c0,.28.17.53.39.53a.59.59,0,0,0,.26,0v1a1.63,1.63,0,0,1-.75.18c-.67,0-1.23-.26-1.27-1h0a1.94,1.94,0,0,1-1.88,1.1c-1.21,0-2-.65-2-2.11a2.09,2.09,0,0,1,1.75-2.37l1.18-.32c.55-.15.88-.31.88-1s-.23-1.12-1-1.12c-1,0-1.15.72-1.15,1.44h-1.43c0-1.61.66-2.47,2.65-2.47,1.33,0,2.39.51,2.39,1.84Zm-1.43-2.41a10.81,10.81,0,0,1-1.68.7,1.24,1.24,0,0,0-.61,1.22c0,.63.3,1.13.94,1.13.91,0,1.35-.67,1.35-1.79Z" fill="#3b4351"/><path d="M416.15,9v-.2c0-.6-.21-1.16-1-1.16-.6,0-1.07.27-1.07,1s.26.83,1.06,1.11l1,.34a2,2,0,0,1,1.64,2.17c0,1.61-1.19,2.29-2.71,2.29-1.9,0-2.48-.88-2.48-2.34v-.28h1.35v.24c0,.89.29,1.35,1.17,1.35s1.24-.42,1.24-1.11a1.1,1.1,0,0,0-.83-1.11l-1.23-.43a2,2,0,0,1-1.61-2.17c0-1.42,1-2.07,2.58-2.07,1.91,0,2.35,1.12,2.35,2.06V9Z" fill="#3b4351"/><path d="M418.19,6.82h1V4.68h1.51V6.82H422V7.94h-1.23v4.5c0,.6.17.8.69.8a3.74,3.74,0,0,0,.54,0v1.12a5.11,5.11,0,0,1-1.22.12c-1,0-1.52-.29-1.52-1.82V7.94h-1Z" fill="#3b4351"/><path d="M423.76,6.82l1.31,5.66h0l1.2-5.66h1.58l-2.07,7.82c-.6,2.06-1.07,2.34-2.63,2.3a3.15,3.15,0,0,1-.61-.06V15.67a1.69,1.69,0,0,0,.49.06c.52,0,.86-.1,1-.59l.19-.61-2.14-7.71Z" fill="#3b4351"/><path d="M427.84,12.51h1.59v1.85h-1.59Z" fill="#3b4351"/><path d="M466.05,4.36h3.53a2.31,2.31,0,0,1,2.53,2.57c0,1.29-.56,2.29-1.66,2.46v0c1,.1,1.51.65,1.57,2.05,0,.66,0,1.43.05,2a1.1,1.1,0,0,0,.48.87h-1.81a1.7,1.7,0,0,1-.26-.88c0-.3-.05-.61-.05-.9s0-.63,0-1c0-1.09-.37-1.56-1.45-1.56h-1.3v4.34h-1.6Zm2.87,4.45a1.48,1.48,0,0,0,1.6-1.62c0-1.07-.45-1.63-1.52-1.63h-1.35V8.81Z" fill="#3b4351"/><path d="M478.41,12.79c0,.28.17.53.4.53a.57.57,0,0,0,.25,0v1a1.58,1.58,0,0,1-.74.18c-.68,0-1.24-.26-1.28-1h0a1.94,1.94,0,0,1-1.87,1.1c-1.22,0-2-.65-2-2.11a2.09,2.09,0,0,1,1.76-2.37l1.17-.32c.55-.15.88-.31.88-1s-.23-1.12-1-1.12c-1,0-1.15.72-1.15,1.44h-1.43c0-1.61.66-2.47,2.65-2.47,1.33,0,2.39.51,2.39,1.84ZM477,10.38a10.81,10.81,0,0,1-1.68.7,1.24,1.24,0,0,0-.61,1.22c0,.63.31,1.13.94,1.13.91,0,1.35-.67,1.35-1.79Z" fill="#3b4351"/><path d="M480,6.82h1.43V7.7h0a2.11,2.11,0,0,1,1.81-1.07,1.62,1.62,0,0,1,1.75,1.14A2.06,2.06,0,0,1,487,6.63c1.07,0,1.84.54,1.84,2v5.73h-1.51V9.19c0-1-.3-1.36-.91-1.36s-1.21.48-1.21,1.47v5.06h-1.51V9.19c0-1-.3-1.36-.93-1.36s-1.19.49-1.19,1.47v5.06H480Z" fill="#3b4351"/><path d="M491.61,10.79v.43c0,1,.13,2.3,1.26,2.3s1.21-1.22,1.21-1.68h1.43a2.48,2.48,0,0,1-2.65,2.71c-1.23,0-2.76-.36-2.76-3.85,0-2,.43-4.07,2.79-4.07,2.1,0,2.66,1.27,2.66,3.36v.8Zm2.43-1V9.34c0-.95-.31-1.68-1.17-1.68s-1.26.95-1.26,1.94v.15Z" fill="#3b4351"/><path d="M500,9v-.2c0-.6-.21-1.16-1-1.16-.6,0-1.08.27-1.08,1s.27.83,1.06,1.11l1,.34a2,2,0,0,1,1.64,2.17c0,1.61-1.19,2.29-2.7,2.29-1.91,0-2.48-.88-2.48-2.34v-.28h1.34v.24c0,.89.3,1.35,1.18,1.35s1.23-.42,1.23-1.11a1.1,1.1,0,0,0-.83-1.11l-1.23-.43a2,2,0,0,1-1.61-2.17c0-1.42,1-2.07,2.58-2.07,1.92,0,2.35,1.12,2.35,2.06V9Z" fill="#3b4351"/><path d="M504.06,10.79v.43c0,1,.12,2.3,1.26,2.3s1.2-1.22,1.2-1.68H508a2.47,2.47,0,0,1-2.64,2.71c-1.24,0-2.76-.36-2.76-3.85,0-2,.43-4.07,2.78-4.07,2.1,0,2.67,1.27,2.67,3.36v.8Zm2.42-1V9.34c0-.95-.31-1.68-1.16-1.68s-1.26.95-1.26,1.94v.15Z" fill="#3b4351"/><path d="M512.49,9v-.2c0-.6-.21-1.16-1-1.16-.6,0-1.08.27-1.08,1s.27.83,1.07,1.11l1,.34a2,2,0,0,1,1.63,2.17c0,1.61-1.19,2.29-2.7,2.29-1.9,0-2.48-.88-2.48-2.34v-.28h1.35v.24c0,.89.29,1.35,1.17,1.35s1.24-.42,1.24-1.11a1.1,1.1,0,0,0-.83-1.11l-1.23-.43A2,2,0,0,1,509,8.7c0-1.42,1-2.07,2.57-2.07,1.92,0,2.36,1.12,2.36,2.06V9Z" fill="#3b4351"/><path d="M518.59,4.36h1.6v10h-1.6Z" fill="#3b4351"/><path d="M521.7,4.36h1.59v10H521.7Z" fill="#3b4351"/><path d="M524.81,4.36h1.59v10h-1.59Z" fill="#3b4351"/><path d="M528,12.51h1.6v1.85H528Z" fill="#3b4351"/><path d="M452.47,28.36h2.85c3.13,0,3.53,2,3.53,5s-.4,5-3.53,5h-2.85Zm1.6,8.79h1.32c1.31,0,1.86-.87,1.86-3.79s-.48-3.8-1.86-3.8h-1.32Z" fill="#3b4351"/><path d="M461.46,34.79v.43c0,1,.13,2.3,1.26,2.3s1.21-1.22,1.21-1.68h1.43a2.48,2.48,0,0,1-2.65,2.71c-1.23,0-2.76-.36-2.76-3.85,0-2,.43-4.07,2.79-4.07,2.1,0,2.66,1.27,2.66,3.36v.8Zm2.43-1v-.41c0-1-.31-1.68-1.17-1.68s-1.26.95-1.26,1.94v.15Z" fill="#3b4351"/><path d="M471.73,35.61c-.12,1.81-.7,2.94-2.58,2.94-2.19,0-2.8-1.61-2.8-4s.61-4,2.8-4a2.43,2.43,0,0,1,2.59,2.7h-1.51c0-.7-.18-1.63-1.08-1.58-1.08,0-1.29,1.17-1.29,2.84s.21,2.84,1.29,2.84c.84,0,1.15-.68,1.15-1.82Z" fill="#3b4351"/><path d="M477.8,36.79c0,.28.17.53.39.53a.59.59,0,0,0,.26,0v1a1.63,1.63,0,0,1-.75.18c-.67,0-1.23-.26-1.27-1h0a1.94,1.94,0,0,1-1.88,1.1c-1.21,0-2-.65-2-2.11a2.09,2.09,0,0,1,1.75-2.37l1.18-.32c.55-.15.88-.31.88-1s-.23-1.12-1-1.12c-1,0-1.15.72-1.15,1.44h-1.43c0-1.61.66-2.47,2.65-2.47,1.33,0,2.39.51,2.39,1.84Zm-1.43-2.41a11.23,11.23,0,0,1-1.68.7,1.24,1.24,0,0,0-.61,1.22c0,.63.3,1.13.93,1.13.91,0,1.36-.67,1.36-1.79Z" fill="#3b4351"/><path d="M480.35,30.82l1.3,5.66h0l1.2-5.66h1.59l-2.08,7.82c-.6,2.06-1.06,2.34-2.63,2.3a3.05,3.05,0,0,1-.6-.06V39.67a1.65,1.65,0,0,0,.49.06c.52,0,.85-.1,1-.59l.2-.61-2.15-7.71Z" fill="#3b4351"/><path d="M488.37,34.59c0-2.35.62-4,2.8-4s2.82,1.61,2.82,4-.73,4-2.82,4S488.37,36.94,488.37,34.59Zm2.8,2.84c1.11,0,1.3-.92,1.3-2.84,0-1.67-.19-2.84-1.3-2.84s-1.29,1.17-1.29,2.84C489.88,36.51,490.09,37.43,491.17,37.43Z" fill="#3b4351"/><path d="M495.61,31.94h-1.05V30.82h1.05v-.7c0-1.41.68-1.88,1.92-1.88a6.2,6.2,0,0,1,.82.05v1.16h-.42c-.56,0-.81.21-.81.71v.66h1.23v1.12h-1.23v6.42h-1.51Z" fill="#3b4351"/><path d="M501.72,30.82h1V28.68h1.51v2.14h1.24v1.12h-1.24v4.5c0,.6.17.8.69.8a3.9,3.9,0,0,0,.55,0v1.12a5.23,5.23,0,0,1-1.22.12c-1,0-1.53-.29-1.53-1.82V31.94h-1Z" fill="#3b4351"/><path d="M506.29,28.36h1.51v3.27l0,0a2.15,2.15,0,0,1,1.85-1c1.15,0,1.88.51,1.88,2v5.69h-1.51V33.19c0-1-.28-1.36-1.05-1.36s-1.21.48-1.21,1.47v5.06h-1.51Z" fill="#3b4351"/><path d="M514.33,34.79v.43c0,1,.12,2.3,1.26,2.3s1.2-1.22,1.2-1.68h1.43a2.48,2.48,0,0,1-2.65,2.71c-1.23,0-2.76-.36-2.76-3.85,0-2,.44-4.07,2.79-4.07,2.1,0,2.66,1.27,2.66,3.36v.8Zm2.42-1v-.41c0-1-.31-1.68-1.16-1.68s-1.26.95-1.26,1.94v.15Z" fill="#3b4351"/><path d="M523,28.36h5.41V29.7h-3.81v2.77h3.59v1.35h-3.59V37h3.92v1.35H523Z" fill="#3b4351"/><path d="M529.67,30.82h1.43v.88h0A2.11,2.11,0,0,1,533,30.63a1.64,1.64,0,0,1,1.75,1.14,2.06,2.06,0,0,1,1.9-1.14c1.07,0,1.84.54,1.84,2v5.73h-1.52V33.19c0-1-.29-1.36-.91-1.36s-1.2.48-1.2,1.47v5.06H533.3V33.19c0-1-.3-1.36-.93-1.36s-1.19.49-1.19,1.47v5.06h-1.51Z" fill="#3b4351"/><path d="M543.21,38.55a1.73,1.73,0,0,1-1.71-1.07h0v3.34H540v-10h1.43v.93h0a1.79,1.79,0,0,1,1.7-1.12c1.72,0,2.42,1.47,2.42,4.06C545.53,37.85,544.26,38.55,543.21,38.55Zm-.55-6.72c-1,0-1.27,1.05-1.27,2.68,0,1.8.22,2.84,1.29,2.84.85,0,1.26-.64,1.26-2.73C543.94,32.91,543.73,31.83,542.66,31.83Z" fill="#3b4351"/><path d="M546.76,28.24h1.51v1.52h-1.51Zm0,2.58h1.51v7.54h-1.51Z" fill="#3b4351"/><path d="M549.8,30.82h1.51V32h0a1.87,1.87,0,0,1,1.75-1.37.94.94,0,0,1,.37.05v1.54a2.3,2.3,0,0,0-.63-.08c-.69,0-1.52.31-1.52,1.71v4.51H549.8Z" fill="#3b4351"/><path d="M555.43,34.79v.43c0,1,.12,2.3,1.26,2.3s1.2-1.22,1.2-1.68h1.43a2.47,2.47,0,0,1-2.64,2.71c-1.24,0-2.76-.36-2.76-3.85,0-2,.43-4.07,2.78-4.07,2.1,0,2.66,1.27,2.66,3.36v.8Zm2.42-1v-.41c0-1-.31-1.68-1.16-1.68s-1.26.95-1.26,1.94v.15Z" fill="#3b4351"/><path d="M560.24,36.51h1.6v1.85h-1.6Z" fill="#3b4351"/><path d="M275.66,45.66H281V47h-3.74v2.77h3.51v1.35h-3.51v4.54h-1.6Z" fill="#3b4351"/><path d="M285.9,54.78h0a2.16,2.16,0,0,1-1.94,1.08c-1.12,0-1.87-.52-1.87-2.46V48.13h1.51v5.41c0,.84.36,1.12,1,1.12a1.17,1.17,0,0,0,1.23-1.26V48.13h1.52v7.54H285.9Z" fill="#3b4351"/><path d="M288.78,48.13h1.51v1.18h0a1.88,1.88,0,0,1,1.75-1.38.84.84,0,0,1,.36.06v1.54a2.18,2.18,0,0,0-.63-.08c-.68,0-1.51.3-1.51,1.71v4.51h-1.51Z" fill="#3b4351"/><path d="M292.52,48.13h1V46h1.52v2.14h1.23v1.12h-1.23v4.5c0,.6.16.8.68.8a2.64,2.64,0,0,0,.55,0v1.12a4.64,4.64,0,0,1-1.22.13c-1,0-1.53-.29-1.53-1.82V49.25h-1Z" fill="#3b4351"/><path d="M297.08,45.66h1.51v3.28l.05,0a2.13,2.13,0,0,1,1.84-1c1.15,0,1.88.52,1.88,2v5.69h-1.51V50.5c0-1-.28-1.36-1.05-1.36s-1.21.47-1.21,1.47v5.06h-1.51Z" fill="#3b4351"/><path d="M305.12,52.09v.44c0,1,.12,2.3,1.26,2.3s1.2-1.22,1.2-1.69H309a2.48,2.48,0,0,1-2.65,2.72c-1.23,0-2.76-.36-2.76-3.85,0-2,.44-4.08,2.79-4.08,2.1,0,2.66,1.28,2.66,3.37v.79Zm2.42-1v-.41c0-.95-.31-1.68-1.16-1.68s-1.26,1-1.26,1.93v.16Z" fill="#3b4351"/><path d="M310.3,48.13h1.51v1.18h0a1.86,1.86,0,0,1,1.75-1.38A.87.87,0,0,1,314,48v1.54a2.18,2.18,0,0,0-.63-.08c-.68,0-1.51.3-1.51,1.71v4.51H310.3Z" fill="#3b4351"/><path d="M323,54.1c0,.28.17.53.39.53a.59.59,0,0,0,.26,0v1a1.63,1.63,0,0,1-.75.18c-.67,0-1.23-.27-1.27-1h0a2,2,0,0,1-1.88,1.1c-1.22,0-2-.66-2-2.11a2.08,2.08,0,0,1,1.75-2.37l1.18-.32c.55-.16.88-.31.88-1s-.24-1.12-1-1.12c-1,0-1.15.71-1.15,1.44H318c0-1.61.66-2.48,2.65-2.48,1.33,0,2.39.52,2.39,1.85Zm-1.43-2.41a12.39,12.39,0,0,1-1.68.7,1.24,1.24,0,0,0-.61,1.22c0,.63.3,1.13.93,1.13.91,0,1.36-.67,1.36-1.79Z" fill="#3b4351"/><path d="M323.88,48.13h1V46h1.52v2.14h1.23v1.12h-1.23v4.5c0,.6.16.8.68.8a2.64,2.64,0,0,0,.55,0v1.12a4.64,4.64,0,0,1-1.22.13c-1,0-1.53-.29-1.53-1.82V49.25h-1Z" fill="#3b4351"/><path d="M327.77,48.13h1V46h1.52v2.14h1.23v1.12h-1.23v4.5c0,.6.17.8.68.8a2.64,2.64,0,0,0,.55,0v1.12a4.64,4.64,0,0,1-1.22.13c-1,0-1.53-.29-1.53-1.82V49.25h-1Z" fill="#3b4351"/><path d="M337.28,54.1c0,.28.17.53.39.53a.54.54,0,0,0,.25,0v1a1.58,1.58,0,0,1-.74.18c-.67,0-1.23-.27-1.28-1h0a2,2,0,0,1-1.88,1.1c-1.22,0-2-.66-2-2.11a2.08,2.08,0,0,1,1.75-2.37l1.18-.32c.54-.16.88-.31.88-1s-.24-1.12-1-1.12c-1,0-1.15.71-1.15,1.44h-1.43c0-1.61.66-2.48,2.65-2.48,1.33,0,2.4.52,2.4,1.85Zm-1.43-2.41a12.39,12.39,0,0,1-1.68.7,1.23,1.23,0,0,0-.62,1.22c0,.63.31,1.13.94,1.13.91,0,1.36-.67,1.36-1.79Z" fill="#3b4351"/><path d="M343.9,52.92c-.11,1.81-.7,2.94-2.58,2.94-2.18,0-2.8-1.61-2.8-4s.62-4,2.8-4a2.44,2.44,0,0,1,2.59,2.71H342.4c0-.7-.18-1.63-1.08-1.59-1.08,0-1.29,1.18-1.29,2.85s.21,2.84,1.29,2.84c.84,0,1.15-.68,1.15-1.82Z" fill="#3b4351"/><path d="M345,45.66h1.51v5.62h0l2.28-3.15h1.75L348.25,51l2.57,4.64h-1.66l-1.85-3.44-.85,1v2.4H345Z" fill="#3b4351"/><path d="M354.68,50.33v-.2c0-.6-.21-1.16-1-1.16-.6,0-1.08.27-1.08,1s.27.83,1.07,1.11l1,.33a2,2,0,0,1,1.63,2.17c0,1.62-1.19,2.3-2.7,2.3-1.9,0-2.48-.88-2.48-2.34v-.28h1.35v.24c0,.88.29,1.35,1.17,1.35s1.24-.42,1.24-1.11a1.09,1.09,0,0,0-.83-1.11l-1.23-.43A2,2,0,0,1,351.18,50c0-1.42,1-2.08,2.57-2.08,1.92,0,2.36,1.12,2.36,2.06v.34Z" fill="#3b4351"/><path d="M360.75,45.66h1.51V49h0A1.75,1.75,0,0,1,364,47.93c1.15,0,2.33.52,2.33,3.87,0,2.59-.72,4.06-2.47,4.06a1.61,1.61,0,0,1-1.65-1.12h0v.93h-1.43Zm2.7,9c1.07,0,1.28-1.08,1.28-2.79,0-2-.32-2.73-1.18-2.73-1.17,0-1.37,1-1.37,2.84C362.18,53.61,362.42,54.66,363.45,54.66Z" fill="#3b4351"/><path d="M368.33,48.13l1.3,5.66h0l1.2-5.66h1.58L370.37,56c-.6,2.06-1.06,2.34-2.63,2.29a3,3,0,0,1-.6-.05V57a2,2,0,0,0,.49.06c.51,0,.85-.1,1-.59l.19-.62-2.14-7.7Z" fill="#3b4351"/><path d="M376.56,45.66h1.59v8.66H382v1.35h-5.46Z" fill="#3b4351"/><path d="M383.35,48.13l1.3,5.66h0l1.2-5.66h1.59L385.39,56c-.6,2.06-1.06,2.34-2.63,2.29a3,3,0,0,1-.6-.05V57a2.05,2.05,0,0,0,.49.06c.52,0,.85-.1,1-.59l.2-.62-2.15-7.7Z" fill="#3b4351"/><path d="M388.3,45.66h1.52V49h0a1.75,1.75,0,0,1,1.71-1.08c1.15,0,2.33.52,2.33,3.87,0,2.59-.72,4.06-2.47,4.06a1.61,1.61,0,0,1-1.65-1.12h0v.93H388.3Zm2.71,9c1.06,0,1.27-1.08,1.27-2.79,0-2-.32-2.73-1.18-2.73-1.17,0-1.37,1-1.37,2.84C389.73,53.61,390,54.66,391,54.66Z" fill="#3b4351"/><path d="M395.11,45.55h1.51v1.52h-1.51Zm0,2.58h1.51v7.54h-1.51Z" fill="#3b4351"/><path d="M403.09,54.1c0,.28.17.53.39.53a.54.54,0,0,0,.25,0v1a1.55,1.55,0,0,1-.74.18c-.67,0-1.23-.27-1.27-1h0a2,2,0,0,1-1.88,1.1c-1.22,0-2-.66-2-2.11a2.08,2.08,0,0,1,1.75-2.37l1.18-.32c.55-.16.88-.31.88-1s-.24-1.12-1-1.12c-1,0-1.14.71-1.14,1.44h-1.43c0-1.61.66-2.48,2.64-2.48,1.34,0,2.4.52,2.4,1.85Zm-1.43-2.41a12.39,12.39,0,0,1-1.68.7,1.25,1.25,0,0,0-.62,1.22c0,.63.31,1.13.94,1.13.91,0,1.36-.67,1.36-1.79Z" fill="#3b4351"/><path d="M404.63,48.13h1.43V49h0A2.17,2.17,0,0,1,408,47.93c1.15,0,1.88.52,1.88,2v5.69H408.4V50.5c0-1-.27-1.36-1.06-1.36-.61,0-1.2.46-1.2,1.47v5.06h-1.51Z" fill="#3b4351"/><path d="M414.61,50.33v-.2c0-.6-.21-1.16-1-1.16-.61,0-1.08.27-1.08,1s.26.83,1.06,1.11l1,.33a2,2,0,0,1,1.64,2.17c0,1.62-1.19,2.3-2.71,2.3-1.9,0-2.48-.88-2.48-2.34v-.28h1.35v.24c0,.88.29,1.35,1.18,1.35s1.23-.42,1.23-1.11a1.09,1.09,0,0,0-.83-1.11l-1.23-.43A2,2,0,0,1,411.11,50c0-1.42,1-2.08,2.58-2.08,1.92,0,2.35,1.12,2.35,2.06v.34Z" fill="#3b4351"/><path d="M417.48,53.82h1.6v1.85h-1.6Z" fill="#3b4351"/><path d="M259.4,66.66H261v10H259.4Z" fill="#3b4351"/><path d="M262.48,69.13h1.43V70h0a2.17,2.17,0,0,1,1.93-1.08c1.15,0,1.88.52,1.88,2v5.69h-1.51V71.5c0-1-.27-1.36-1.06-1.36-.61,0-1.2.46-1.2,1.47v5.06h-1.51Z" fill="#3b4351"/><path d="M268.58,69.13h1.63l1.31,5.94h0l1.19-5.94h1.61l-2,7.54H270.6Z" fill="#3b4351"/><path d="M280,75.1c0,.28.17.53.39.53a.59.59,0,0,0,.26,0v1a1.63,1.63,0,0,1-.75.18c-.67,0-1.23-.27-1.27-1h0a2,2,0,0,1-1.88,1.1c-1.22,0-2-.66-2-2.11a2.08,2.08,0,0,1,1.75-2.37l1.18-.32c.55-.16.88-.31.88-1s-.24-1.12-1-1.12c-1,0-1.15.71-1.15,1.44h-1.43c0-1.61.66-2.48,2.65-2.48,1.33,0,2.39.52,2.39,1.85Zm-1.43-2.41a12.39,12.39,0,0,1-1.68.7,1.24,1.24,0,0,0-.61,1.22c0,.63.3,1.13.93,1.13.91,0,1.36-.67,1.36-1.79Z" fill="#3b4351"/><path d="M284.74,71.33v-.2c0-.6-.21-1.16-1-1.16-.6,0-1.07.27-1.07,1s.26.83,1.06,1.11l1,.33a2,2,0,0,1,1.64,2.17c0,1.62-1.2,2.3-2.71,2.3-1.9,0-2.48-.88-2.48-2.34v-.28h1.35v.24c0,.88.29,1.35,1.17,1.35s1.24-.42,1.24-1.11a1.09,1.09,0,0,0-.83-1.11l-1.23-.43A2,2,0,0,1,281.24,71c0-1.42,1-2.08,2.57-2.08,1.92,0,2.36,1.12,2.36,2.06v.34Z" fill="#3b4351"/><path d="M287.52,66.55H289v1.52h-1.52Zm0,2.58H289v7.54h-1.52Z" fill="#3b4351"/><path d="M290.27,72.9c0-2.36.61-4,2.8-4s2.81,1.61,2.81,4-.73,4-2.81,4S290.27,75.25,290.27,72.9Zm2.8,2.84c1.1,0,1.3-.92,1.3-2.84,0-1.67-.2-2.85-1.3-2.85s-1.29,1.18-1.29,2.85C291.78,74.82,292,75.74,293.07,75.74Z" fill="#3b4351"/><path d="M297,69.13h1.43V70h0a2.18,2.18,0,0,1,1.94-1.08c1.14,0,1.87.52,1.87,2v5.69h-1.51V71.5c0-1-.27-1.36-1.05-1.36-.62,0-1.2.46-1.2,1.47v5.06H297Z" fill="#3b4351"/><path d="M307.14,66.66h1.51V70h0a1.74,1.74,0,0,1,1.71-1.08c1.14,0,2.32.52,2.32,3.87,0,2.59-.71,4.06-2.46,4.06a1.61,1.61,0,0,1-1.66-1.12h0v.93h-1.42Zm2.7,9c1.06,0,1.27-1.08,1.27-2.79,0-2-.32-2.73-1.17-2.73-1.18,0-1.38,1-1.38,2.84C308.56,74.61,308.8,75.66,309.84,75.66Z" fill="#3b4351"/><path d="M314.71,69.13l1.3,5.66h0l1.21-5.66h1.58L316.76,77c-.61,2.06-1.07,2.34-2.64,2.29a3,3,0,0,1-.6,0V78A2.05,2.05,0,0,0,314,78c.52,0,.85-.1,1-.59l.2-.62-2.14-7.7Z" fill="#3b4351"/><path d="M329.27,73.08v.21c0,1.81-.74,3.57-3.08,3.57-2.52,0-3.3-1.62-3.3-5.19s.78-5.2,3.32-5.2c2.84,0,3,2.09,3,3.14v.18h-1.6v-.17c0-.94-.28-2-1.43-2s-1.71.73-1.71,4,.52,4,1.71,4c1.35,0,1.49-1.47,1.49-2.41v-.17Z" fill="#3b4351"/><path d="M330.29,69.13h1.51v1.18h0a1.88,1.88,0,0,1,1.75-1.38A.92.92,0,0,1,334,69v1.54a2.24,2.24,0,0,0-.63-.08c-.69,0-1.52.3-1.52,1.71v4.51h-1.51Z" fill="#3b4351"/><path d="M335.92,73.09v.44c0,1,.13,2.3,1.26,2.3s1.21-1.22,1.21-1.69h1.42a2.47,2.47,0,0,1-2.64,2.72c-1.24,0-2.76-.36-2.76-3.85,0-2,.43-4.08,2.78-4.08,2.11,0,2.67,1.28,2.67,3.37v.79Zm2.42-1v-.41c0-1-.3-1.68-1.16-1.68s-1.26,1-1.26,1.93v.16Z" fill="#3b4351"/><path d="M340.43,69.13h1V67H343v2.14h1.23v1.12H343v4.5c0,.6.16.8.68.8a2.64,2.64,0,0,0,.55,0v1.12a4.64,4.64,0,0,1-1.22.13c-1,0-1.53-.29-1.53-1.82V70.25h-1Z" fill="#3b4351"/><path d="M349.94,75.1c0,.28.16.53.39.53a.57.57,0,0,0,.25,0v1a1.58,1.58,0,0,1-.74.18c-.67,0-1.23-.27-1.28-1h0a2,2,0,0,1-1.88,1.1c-1.22,0-2-.66-2-2.11a2.08,2.08,0,0,1,1.75-2.37l1.17-.32c.55-.16.89-.31.89-1s-.24-1.12-1-1.12c-1,0-1.15.71-1.15,1.44h-1.43c0-1.61.66-2.48,2.65-2.48,1.33,0,2.4.52,2.4,1.85Zm-1.43-2.41a12.39,12.39,0,0,1-1.68.7,1.23,1.23,0,0,0-.62,1.22c0,.63.31,1.13.94,1.13.91,0,1.36-.67,1.36-1.79Z" fill="#3b4351"/><path d="M351.47,69.13h1.43V70h0a2.18,2.18,0,0,1,1.94-1.08c1.15,0,1.87.52,1.87,2v5.69h-1.51V71.5c0-1-.26-1.36-1.05-1.36-.62,0-1.2.46-1.2,1.47v5.06h-1.52Z" fill="#3b4351"/><path d="M361.46,71.33v-.2c0-.6-.21-1.16-1-1.16-.6,0-1.08.27-1.08,1s.27.83,1.07,1.11l1,.33a2,2,0,0,1,1.64,2.17c0,1.62-1.19,2.3-2.7,2.3-1.9,0-2.48-.88-2.48-2.34v-.28h1.35v.24c0,.88.29,1.35,1.17,1.35s1.24-.42,1.24-1.11a1.09,1.09,0,0,0-.83-1.11l-1.23-.43A2,2,0,0,1,358,71c0-1.42,1-2.08,2.58-2.08,1.92,0,2.36,1.12,2.36,2.06v.34Z" fill="#3b4351"/><path d="M364.33,74.82h1.59v1.85h-1.59Z" fill="#3b4351"/><path d="M370.92,66.66h1.6v10h-1.6Z" fill="#3b4351"/><path d="M374,69.13h1.43V70h0a2.17,2.17,0,0,1,1.93-1.08c1.15,0,1.88.52,1.88,2v5.69h-1.51V71.5c0-1-.27-1.36-1-1.36-.62,0-1.21.46-1.21,1.47v5.06H374Z" fill="#3b4351"/><path d="M380.1,69.13h1.63L383,75.07h0l1.19-5.94h1.61l-2,7.54h-1.76Z" fill="#3b4351"/><path d="M391.47,75.1c0,.28.17.53.4.53a.57.57,0,0,0,.25,0v1a1.58,1.58,0,0,1-.74.18c-.68,0-1.24-.27-1.28-1h0a1.94,1.94,0,0,1-1.87,1.1c-1.22,0-2-.66-2-2.11A2.09,2.09,0,0,1,388,72.38l1.17-.32c.55-.16.88-.31.88-1S389.81,70,389,70c-1,0-1.15.71-1.15,1.44h-1.43c0-1.61.66-2.48,2.65-2.48,1.33,0,2.39.52,2.39,1.85ZM390,72.69a11.88,11.88,0,0,1-1.68.7,1.24,1.24,0,0,0-.61,1.22c0,.63.31,1.13.94,1.13.91,0,1.35-.67,1.35-1.79Z" fill="#3b4351"/><path d="M396.26,71.33v-.2c0-.6-.21-1.16-1-1.16-.61,0-1.08.27-1.08,1s.26.83,1.06,1.11l1,.33a2,2,0,0,1,1.64,2.17c0,1.62-1.19,2.3-2.71,2.3-1.9,0-2.48-.88-2.48-2.34v-.28H394v.24c0,.88.29,1.35,1.18,1.35s1.23-.42,1.23-1.11a1.09,1.09,0,0,0-.83-1.11l-1.23-.43A2,2,0,0,1,392.76,71c0-1.42,1-2.08,2.58-2.08,1.91,0,2.35,1.12,2.35,2.06v.34Z" fill="#3b4351"/><path d="M399,66.55h1.52v1.52H399Zm0,2.58h1.52v7.54H399Z" fill="#3b4351"/><path d="M401.79,72.9c0-2.36.61-4,2.8-4s2.82,1.61,2.82,4-.73,4-2.82,4S401.79,75.25,401.79,72.9Zm2.8,2.84c1.11,0,1.3-.92,1.3-2.84,0-1.67-.19-2.85-1.3-2.85s-1.29,1.18-1.29,2.85C403.3,74.82,403.51,75.74,404.59,75.74Z" fill="#3b4351"/><path d="M408.56,69.13H410V70H410A2.15,2.15,0,0,1,412,68.93c1.15,0,1.88.52,1.88,2v5.69h-1.52V71.5c0-1-.26-1.36-1.05-1.36-.61,0-1.2.46-1.2,1.47v5.06h-1.52Z" fill="#3b4351"/><path d="M418.66,66.66h1.51V70h0a1.74,1.74,0,0,1,1.71-1.08c1.15,0,2.32.52,2.32,3.87,0,2.59-.71,4.06-2.46,4.06a1.62,1.62,0,0,1-1.66-1.12h0v.93h-1.43Zm2.7,9c1.07,0,1.28-1.08,1.28-2.79,0-2-.33-2.73-1.18-2.73-1.18,0-1.37,1-1.37,2.84C420.09,74.61,420.33,75.66,421.36,75.66Z" fill="#3b4351"/><path d="M426.23,69.13l1.31,5.66h0l1.21-5.66h1.58L428.28,77c-.6,2.06-1.07,2.34-2.64,2.29a3,3,0,0,1-.6,0V78a2.05,2.05,0,0,0,.49.06c.52,0,.86-.1,1-.59l.19-.62-2.14-7.7Z" fill="#3b4351"/><path d="M327.3,96.5h0a2.07,2.07,0,0,1-2.18,1.36c-2.19,0-3-1.62-3-5.19s1-5.2,3.32-5.2a2.72,2.72,0,0,1,2.93,2.88v.19h-1.52V90.3c0-.74-.31-1.63-1.4-1.63s-1.74.76-1.74,4,.54,4,1.62,4S327,95.79,327,93.6h-1.68V92.4h3.2v5.27H327.3Z" fill="#3b4351"/><path d="M329.78,90.13h1.51v1.18h0a1.86,1.86,0,0,1,1.75-1.38.87.87,0,0,1,.36.06v1.54a2.18,2.18,0,0,0-.63-.08c-.68,0-1.51.3-1.51,1.71v4.51h-1.51Z" fill="#3b4351"/><path d="M335.4,94.09v.44c0,1,.13,2.3,1.26,2.3s1.21-1.22,1.21-1.69h1.43a2.48,2.48,0,0,1-2.65,2.72c-1.23,0-2.76-.36-2.76-3.85,0-2,.44-4.08,2.79-4.08,2.1,0,2.66,1.28,2.66,3.37v.79Zm2.43-1v-.41c0-1-.31-1.68-1.17-1.68s-1.26,1-1.26,1.93v.16Z" fill="#3b4351"/><path d="M341.89,94.09v.44c0,1,.12,2.3,1.26,2.3s1.2-1.22,1.2-1.69h1.43a2.48,2.48,0,0,1-2.65,2.72c-1.23,0-2.76-.36-2.76-3.85,0-2,.44-4.08,2.79-4.08,2.1,0,2.66,1.28,2.66,3.37v.79Zm2.42-1v-.41c0-1-.31-1.68-1.16-1.68s-1.26,1-1.26,1.93v.16Z" fill="#3b4351"/><path d="M352.15,94.92c-.11,1.81-.7,2.94-2.58,2.94-2.18,0-2.8-1.61-2.8-4s.62-4,2.8-4a2.44,2.44,0,0,1,2.59,2.71h-1.51c0-.7-.18-1.63-1.08-1.59-1.08,0-1.29,1.18-1.29,2.85s.21,2.84,1.29,2.84c.84,0,1.15-.68,1.15-1.82Z" fill="#3b4351"/><path d="M354.58,94.09v.44c0,1,.13,2.3,1.26,2.3s1.21-1.22,1.21-1.69h1.43a2.48,2.48,0,0,1-2.65,2.72c-1.23,0-2.76-.36-2.76-3.85,0-2,.44-4.08,2.79-4.08,2.1,0,2.66,1.28,2.66,3.37v.79Zm2.43-1v-.41c0-1-.31-1.68-1.17-1.68s-1.26,1-1.26,1.93v.16Z" fill="#3b4351"/><path d="M359.4,95.82H361v1.85h-1.6Z" fill="#3b4351"/><path d="M245,108.66h3.53a2.32,2.32,0,0,1,2.53,2.58c0,1.29-.56,2.29-1.66,2.45v0c1,.1,1.51.65,1.56,2,0,.65,0,1.43.06,2a1.1,1.1,0,0,0,.48.87H249.7a1.84,1.84,0,0,1-.27-.89c0-.29,0-.6,0-.89s0-.63,0-1c0-1.09-.37-1.57-1.45-1.57H246.6v4.35H245Zm2.87,4.46a1.48,1.48,0,0,0,1.6-1.63c0-1.06-.45-1.62-1.52-1.62H246.6v3.25Z" fill="#3b4351"/><path d="M257.37,117.1c0,.28.17.53.39.53a.59.59,0,0,0,.26,0v1a1.63,1.63,0,0,1-.75.18c-.67,0-1.23-.27-1.27-1h0a2,2,0,0,1-1.88,1.1c-1.21,0-2-.66-2-2.11a2.09,2.09,0,0,1,1.75-2.37l1.18-.32c.55-.16.88-.31.88-1s-.24-1.12-1-1.12c-1,0-1.15.71-1.15,1.44h-1.43c0-1.61.66-2.48,2.65-2.48,1.33,0,2.39.52,2.39,1.85Zm-1.43-2.41a12.39,12.39,0,0,1-1.68.7,1.24,1.24,0,0,0-.61,1.22c0,.63.3,1.13.93,1.13.91,0,1.36-.67,1.36-1.79Z" fill="#3b4351"/><path d="M259,111.13h1.43V112h0a2.12,2.12,0,0,1,1.81-1.08,1.64,1.64,0,0,1,1.75,1.15,2,2,0,0,1,1.9-1.15c1.07,0,1.84.55,1.84,2v5.73h-1.52V113.5c0-1-.29-1.36-.91-1.36s-1.2.47-1.2,1.47v5.06h-1.51V113.5c0-1-.3-1.36-.93-1.36s-1.19.49-1.19,1.47v5.06H259Z" fill="#3b4351"/><path d="M270.57,115.09v.44c0,1,.13,2.3,1.26,2.3s1.21-1.22,1.21-1.69h1.43a2.48,2.48,0,0,1-2.65,2.72c-1.23,0-2.76-.36-2.76-3.85,0-2,.43-4.08,2.79-4.08,2.1,0,2.66,1.28,2.66,3.37v.79Zm2.43-1v-.41c0-1-.31-1.68-1.17-1.68s-1.26,1-1.26,1.93v.16Z" fill="#3b4351"/><path d="M279,113.33v-.2c0-.6-.21-1.16-1-1.16-.61,0-1.08.27-1.08,1s.26.83,1.06,1.11l1,.33a2,2,0,0,1,1.64,2.17c0,1.62-1.19,2.3-2.71,2.3-1.9,0-2.48-.88-2.48-2.34v-.28h1.35v.24c0,.88.29,1.35,1.18,1.35s1.23-.42,1.23-1.11a1.09,1.09,0,0,0-.83-1.11l-1.23-.43A2,2,0,0,1,275.5,113c0-1.42,1-2.08,2.58-2.08,1.92,0,2.35,1.12,2.35,2.06v.34Z" fill="#3b4351"/><path d="M283,115.09v.44c0,1,.12,2.3,1.26,2.3s1.2-1.22,1.2-1.69h1.43a2.48,2.48,0,0,1-2.65,2.72c-1.23,0-2.76-.36-2.76-3.85,0-2,.44-4.08,2.79-4.08,2.1,0,2.66,1.28,2.66,3.37v.79Zm2.42-1v-.41c0-1-.31-1.68-1.16-1.68s-1.26,1-1.26,1.93v.16Z" fill="#3b4351"/><path d="M291.45,113.33v-.2c0-.6-.21-1.16-1-1.16-.6,0-1.08.27-1.08,1s.27.83,1.07,1.11l1,.33a2,2,0,0,1,1.64,2.17c0,1.62-1.19,2.3-2.7,2.3-1.91,0-2.48-.88-2.48-2.34v-.28h1.34v.24c0,.88.3,1.35,1.18,1.35s1.23-.42,1.23-1.11a1.09,1.09,0,0,0-.82-1.11l-1.23-.43a2,2,0,0,1-1.62-2.17c0-1.42,1-2.08,2.58-2.08,1.92,0,2.35,1.12,2.35,2.06v.34Z" fill="#3b4351"/><path d="M296.19,108.66h1.69l1.7,8h0l1.79-8h1.7l-2.53,10h-2Z" fill="#3b4351"/><path d="M326.89,108.66h5.33V110h-3.74v2.77H332v1.35h-3.52v4.54h-1.59Z" fill="#3b4351"/><path d="M333.34,108.55h1.51v1.52h-1.51Zm0,2.58h1.51v7.54h-1.51Z" fill="#3b4351"/><path d="M336.38,111.13h1.43V112h0a2.17,2.17,0,0,1,1.93-1.08c1.15,0,1.88.52,1.88,2v5.69h-1.51V113.5c0-1-.27-1.36-1.06-1.36-.61,0-1.2.46-1.2,1.47v5.06h-1.51Z" fill="#3b4351"/><path d="M348.06,117.1c0,.28.16.53.39.53a.57.57,0,0,0,.25,0v1a1.58,1.58,0,0,1-.74.18c-.67,0-1.23-.27-1.28-1h0a2,2,0,0,1-1.88,1.1c-1.22,0-2-.66-2-2.11a2.08,2.08,0,0,1,1.75-2.37l1.18-.32c.54-.16.88-.31.88-1s-.24-1.12-1-1.12c-1,0-1.15.71-1.15,1.44H343c0-1.61.66-2.48,2.65-2.48,1.33,0,2.4.52,2.4,1.85Zm-1.43-2.41a12.39,12.39,0,0,1-1.68.7,1.23,1.23,0,0,0-.62,1.22c0,.63.31,1.13.94,1.13.91,0,1.36-.67,1.36-1.79Z" fill="#3b4351"/><path d="M349.66,108.66h1.52v10h-1.52Z" fill="#3b4351"/><path d="M359.91,117.74h0a1.6,1.6,0,0,1-1.65,1.12c-1.75,0-2.46-1.48-2.46-4.06,0-3.35,1.17-3.87,2.32-3.87A1.74,1.74,0,0,1,359.8,112h0v-3.35h1.51v10h-1.43Zm-1.37-5.6c-.85,0-1.18.7-1.18,2.73,0,1.71.21,2.79,1.28,2.79s1.27-1,1.27-2.68C359.91,113.17,359.72,112.14,358.54,112.14Z" fill="#3b4351"/><path d="M362.87,108.55h1.51v1.52h-1.51Zm0,2.58h1.51v7.54h-1.51Z" fill="#3b4351"/><path d="M369.15,113.33v-.2c0-.6-.21-1.16-1-1.16-.6,0-1.08.27-1.08,1s.27.83,1.06,1.11l1,.33a2,2,0,0,1,1.64,2.17c0,1.62-1.19,2.3-2.7,2.3-1.91,0-2.48-.88-2.48-2.34v-.28h1.34v.24c0,.88.3,1.35,1.18,1.35s1.23-.42,1.23-1.11a1.09,1.09,0,0,0-.83-1.11l-1.23-.43a2,2,0,0,1-1.61-2.17c0-1.42,1-2.08,2.58-2.08,1.92,0,2.35,1.12,2.35,2.06v.34Z" fill="#3b4351"/><path d="M375.12,113.33v-.2c0-.6-.21-1.16-1-1.16-.6,0-1.08.27-1.08,1s.27.83,1.07,1.11l1,.33a2,2,0,0,1,1.64,2.17c0,1.62-1.19,2.3-2.7,2.3-1.91,0-2.48-.88-2.48-2.34v-.28h1.34v.24c0,.88.3,1.35,1.18,1.35s1.23-.42,1.23-1.11a1.09,1.09,0,0,0-.82-1.11l-1.23-.43a2,2,0,0,1-1.62-2.17c0-1.42,1-2.08,2.58-2.08,1.92,0,2.35,1.12,2.35,2.06v.34Z" fill="#3b4351"/><path d="M377.54,114.9c0-2.36.61-4,2.8-4s2.81,1.61,2.81,4-.73,4-2.81,4S377.54,117.25,377.54,114.9Zm2.8,2.84c1.1,0,1.3-.92,1.3-2.84,0-1.67-.2-2.85-1.3-2.85s-1.29,1.18-1.29,2.85C379.05,116.82,379.26,117.74,380.34,117.74Z" fill="#3b4351"/><path d="M384.38,108.66h1.52v10h-1.52Z" fill="#3b4351"/><path d="M391.27,117.78h0a2.15,2.15,0,0,1-1.93,1.08c-1.12,0-1.88-.52-1.88-2.46v-5.27h1.51v5.41c0,.84.37,1.12,1,1.12a1.18,1.18,0,0,0,1.23-1.26v-5.27h1.51v7.54h-1.43Z" fill="#3b4351"/><path d="M393.48,111.13h1V109H396v2.14h1.23v1.12H396v4.5c0,.6.17.8.69.8a2.61,2.61,0,0,0,.54,0v1.12a4.56,4.56,0,0,1-1.21.13c-1,0-1.53-.29-1.53-1.82v-4.68h-1Z" fill="#3b4351"/><path d="M398.12,108.55h1.51v1.52h-1.51Zm0,2.58h1.51v7.54h-1.51Z" fill="#3b4351"/><path d="M400.86,114.9c0-2.36.62-4,2.8-4s2.82,1.61,2.82,4-.73,4-2.82,4S400.86,117.25,400.86,114.9Zm2.8,2.84c1.11,0,1.3-.92,1.3-2.84,0-1.67-.19-2.85-1.3-2.85s-1.29,1.18-1.29,2.85C402.37,116.82,402.58,117.74,403.66,117.74Z" fill="#3b4351"/><path d="M407.64,111.13h1.42V112h.05a2.15,2.15,0,0,1,1.93-1.08c1.15,0,1.88.52,1.88,2v5.69H411.4V113.5c0-1-.26-1.36-1-1.36-.61,0-1.2.46-1.2,1.47v5.06h-1.51Z" fill="#3b4351"/></g></g></g></svg>