<svg xmlns="http://www.w3.org/2000/svg" viewBox="0 0 1847.91 114"><title>bc1150text</title><g id="Text"><g id="Chinese"><path d="M1558.84,11.24h4.36l3.08,13h0l3-13h4.27V28.73H1571V14.18h0l-3.53,14.55h-2.35l-3.53-14.55h0V28.73h-2.64Z"/><path d="M1576.48,11h2.64v2.65h-2.64Zm0,4.51h2.64V28.73h-2.64Z"/><path d="M1588.53,27.12h0a2.83,2.83,0,0,1-2.89,2c-3.06,0-4.31-2.6-4.31-7.11,0-5.86,2-6.76,4.06-6.76a3,3,0,0,1,3,1.88h.05V11.24H1591V28.73h-2.5Zm-2.4-9.81c-1.5,0-2.06,1.23-2.06,4.78,0,3,.37,4.88,2.23,4.88s2.23-1.84,2.23-4.68C1588.53,19.13,1588.19,17.31,1586.13,17.31Z"/><path d="M1600.31,27.12h0a2.83,2.83,0,0,1-2.9,2c-3.06,0-4.31-2.6-4.31-7.11,0-5.86,2.06-6.76,4.07-6.76a3.06,3.06,0,0,1,3,1.88h.05V11.24h2.64V28.73h-2.5Zm-2.4-9.81c-1.49,0-2.06,1.23-2.06,4.78,0,3,.37,4.88,2.23,4.88s2.23-1.84,2.23-4.68C1600.31,19.13,1600,17.31,1597.91,17.31Z"/><path d="M1605.48,11.24h2.65V28.73h-2.65Z"/><path d="M1613.08,22.48v.76c0,1.77.22,4,2.2,4s2.11-2.13,2.11-2.94h2.5c0,3-1.77,4.76-4.63,4.76-2.16,0-4.83-.64-4.83-6.74,0-3.46.76-7.13,4.88-7.13,3.67,0,4.65,2.23,4.65,5.88v1.39Zm4.24-1.81V20c0-1.67-.54-2.94-2-2.94-1.66,0-2.2,1.67-2.2,3.38v.27Z"/><path d="M1628.19,11.24h2.8v7.62h0l5.3-7.62h3.06l-5.05,7.37,5.59,10.12h-3.16l-4.24-7.86-1.54,2.2v5.66h-2.8Z"/><path d="M1640.86,11h2.65v2.65h-2.65Zm0,4.51h2.65V28.73h-2.65Z"/><path d="M1646.17,15.55h2.5v1.54h.08a3.78,3.78,0,0,1,3.38-1.88c2,0,3.28.9,3.28,3.57v10h-2.64v-9c0-1.76-.47-2.38-1.84-2.38-1.08,0-2.11.81-2.11,2.58v8.84h-2.65Z"/><path d="M1660.6,29.86a1.73,1.73,0,0,0,1.92,1.57,2.19,2.19,0,0,0,2.23-2.48V26.82h0a3.2,3.2,0,0,1-3,1.82c-3.07,0-4-3-4-6.65,0-2.89.44-6.78,4.19-6.78a2.9,2.9,0,0,1,2.89,2h.05V15.55h2.5V28.1c0,3.21-1.37,5.14-4.92,5.14-3.92,0-4.36-2.3-4.36-3.38Zm1.87-3.33c2.06,0,2.28-2.6,2.28-4.68s-.27-4.54-2.11-4.54-2.23,2-2.23,4.41C1660.41,24,1660.51,26.53,1662.47,26.53Z"/><path d="M1676.48,27.12h0a2.83,2.83,0,0,1-2.89,2c-3.06,0-4.31-2.6-4.31-7.11,0-5.86,2.06-6.76,4.07-6.76a3.06,3.06,0,0,1,3,1.88h0V11.24H1679V28.73h-2.5Zm-2.4-9.81c-1.49,0-2.06,1.23-2.06,4.78,0,3,.37,4.88,2.23,4.88s2.23-1.84,2.23-4.68C1676.48,19.13,1676.14,17.31,1674.08,17.31Z"/><path d="M1681,22.14c0-4.12,1.08-6.93,4.9-6.93s4.93,2.81,4.93,6.93-1.28,6.94-4.93,6.94S1681,26.26,1681,22.14Zm4.9,5c1.94,0,2.28-1.62,2.28-5,0-2.91-.34-5-2.28-5s-2.25,2.06-2.25,5C1683.66,25.5,1684,27.12,1685.91,27.12Z"/><path d="M1693,15.55h2.5v1.54h.08a3.69,3.69,0,0,1,3.16-1.88,2.85,2.85,0,0,1,3.06,2,3.59,3.59,0,0,1,3.33-2c1.87,0,3.21.95,3.21,3.5v10h-2.64v-9c0-1.74-.52-2.38-1.6-2.38s-2.1.84-2.1,2.58v8.84h-2.65v-9c0-1.74-.52-2.38-1.62-2.38s-2.08.86-2.08,2.58v8.84H1693Z"/></g></g><g id="YEARS"><g id="Right"><path d="M1787.21,106.79V93.43h-3.82V91.5h.29c1.77,0,3.79-.44,4.34-2.75v-.37h2.16v18.41Z"/><path d="M1799.69,106.79V93.43h-3.82V91.5h.29c1.77,0,3.79-.44,4.34-2.75v-.37h2.16v18.41Z"/><path d="M1807.62,101.83h2.81v.49a2.35,2.35,0,0,0,2.42,2.6c2.08,0,2.63-2,2.63-4.19s-.58-3.92-2.48-3.92a2.34,2.34,0,0,0-2.41,1.69l-2.63-.11.91-9.64h8.87v2.36h-6.66l-.6,4.84,0,0a4.08,4.08,0,0,1,3.1-1.43c3.85,0,4.81,3.25,4.81,6.09,0,3.69-1.69,6.5-5.67,6.5-3.3,0-5.15-1.69-5.15-4.94Z"/><path d="M1825.51,88.38c3.54,0,5.51,2.21,5.51,9.39s-2,9.39-5.51,9.39S1820,105,1820,97.77,1822,88.38,1825.51,88.38Zm0,16.7c2,0,2.55-2,2.55-7.31s-.55-7.31-2.55-7.31-2.55,2-2.55,7.31S1823.51,105.08,1825.51,105.08Z"/></g><g id="left"><path d="M17.46,110.39V97H13.64V95.1h.29c1.77,0,3.79-.44,4.34-2.75V92h2.16v18.41Z"/><path d="M29.94,110.39V97H26.12V95.1h.29c1.77,0,3.79-.44,4.34-2.75V92h2.16v18.41Z"/><path d="M37.87,105.42h2.81v.5a2.35,2.35,0,0,0,2.42,2.6c2.08,0,2.63-2,2.63-4.19s-.58-3.92-2.48-3.92a2.34,2.34,0,0,0-2.41,1.69L38.21,102l.91-9.64H48v2.36H41.33l-.6,4.84.06,0a4,4,0,0,1,3.09-1.43c3.85,0,4.81,3.25,4.81,6.08,0,3.7-1.69,6.51-5.67,6.51-3.3,0-5.15-1.7-5.15-5Z"/><path d="M55.76,92c3.54,0,5.51,2.21,5.51,9.39s-2,9.39-5.51,9.39-5.51-2.22-5.51-9.39S52.22,92,55.76,92Zm0,16.7c2,0,2.55-2,2.55-7.31s-.55-7.31-2.55-7.31-2.55,2-2.55,7.31S53.76,108.68,55.76,108.68Z"/></g></g></svg>