<svg xmlns="http://www.w3.org/2000/svg" viewBox="0 0 1847.91 113"><title>bc1100text</title><g id="Text"><g id="Hittites"><path d="M455.9,27.5h2.79v7h5.15v-7h2.79V45h-2.79V36.86h-5.15V45H455.9Z"/><path d="M469.47,27.3h2.65V30h-2.65Zm0,4.51h2.65V45h-2.65Z"/><path d="M473.61,31.81h1.81V28.06h2.65v3.75h2.16v2h-2.16v7.87c0,1,.29,1.39,1.2,1.39a5.1,5.1,0,0,0,1-.07v2a8.58,8.58,0,0,1-2.14.22c-1.76,0-2.67-.52-2.67-3.19V33.77h-1.81Z"/><path d="M480.42,31.81h1.81V28.06h2.65v3.75H487v2h-2.16v7.87c0,1,.3,1.39,1.2,1.39a5.1,5.1,0,0,0,1-.07v2a8.55,8.55,0,0,1-2.13.22c-1.77,0-2.68-.52-2.68-3.19V33.77h-1.81Z"/><path d="M488.53,27.3h2.65V30h-2.65Zm0,4.51h2.65V45h-2.65Z"/><path d="M492.67,31.81h1.81V28.06h2.65v3.75h2.16v2h-2.16v7.87c0,1,.29,1.39,1.2,1.39a5.1,5.1,0,0,0,1-.07v2a8.55,8.55,0,0,1-2.13.22c-1.77,0-2.68-.52-2.68-3.19V33.77h-1.81Z"/><path d="M502.94,38.74v.76c0,1.77.22,4,2.2,4s2.11-2.13,2.11-2.94h2.5c0,3-1.76,4.76-4.63,4.76-2.16,0-4.83-.64-4.83-6.74,0-3.46.76-7.13,4.88-7.13,3.67,0,4.65,2.23,4.65,5.88v1.39Zm4.24-1.81v-.71c0-1.67-.54-2.94-2-2.94-1.66,0-2.2,1.67-2.2,3.38v.27Z"/><path d="M518.05,27.5h9.46v2.35h-6.66V34.7h6.27v2.35h-6.27v5.59h6.86V45h-9.66Z"/><path d="M529.79,31.81h2.5v1.54h.07a3.69,3.69,0,0,1,3.16-1.88,2.87,2.87,0,0,1,3.07,2,3.59,3.59,0,0,1,3.33-2c1.86,0,3.21,1,3.21,3.5V45h-2.65V36c0-1.74-.51-2.38-1.59-2.38s-2.11.84-2.11,2.58V45h-2.65V36c0-1.74-.51-2.38-1.61-2.38s-2.09.86-2.09,2.58V45h-2.64Z"/><path d="M553.48,45.34a3,3,0,0,1-3-1.89h0v5.86H547.8V31.81h2.49v1.62h.05a3.13,3.13,0,0,1,3-2c3,0,4.24,2.57,4.24,7.1C557.55,44.11,555.32,45.34,553.48,45.34Zm-1-11.77c-1.81,0-2.23,1.84-2.23,4.68,0,3.16.4,5,2.26,5,1.49,0,2.2-1.13,2.2-4.78C554.75,35.46,554.39,33.57,552.52,33.57Z"/><path d="M559.7,27.3h2.65V30H559.7Zm0,4.51h2.65V45H559.7Z"/><path d="M565,31.81h2.64v2.06h.05a3.26,3.26,0,0,1,3.07-2.4,1.53,1.53,0,0,1,.63.09v2.7a3.73,3.73,0,0,0-1.1-.15c-1.2,0-2.65.54-2.65,3V45H565Z"/><path d="M574.87,38.74v.76c0,1.77.22,4,2.2,4s2.11-2.13,2.11-2.94h2.5c0,3-1.76,4.76-4.63,4.76-2.16,0-4.83-.64-4.83-6.74,0-3.46.76-7.13,4.88-7.13,3.67,0,4.65,2.23,4.65,5.88v1.39Zm4.24-1.81v-.71c0-1.67-.54-2.94-2-2.94-1.66,0-2.2,1.67-2.2,3.38v.27Z"/></g></g><g id="YEARS"><g id="Right"><path d="M1773.78,105.13V91.76H1770V89.84h.28c1.77,0,3.8-.45,4.34-2.76v-.36h2.16v18.41Z"/><path d="M1786.26,105.13V91.76h-3.83V89.84h.29c1.77,0,3.8-.45,4.34-2.76v-.36h2.16v18.41Z"/><path d="M1799.59,86.72c3.54,0,5.52,2.21,5.52,9.38s-2,9.39-5.52,9.39-5.51-2.21-5.51-9.39S1796.06,86.72,1799.59,86.72Zm0,16.69c2,0,2.55-2,2.55-7.31s-.54-7.3-2.55-7.3-2.54,2-2.54,7.3S1797.59,103.41,1799.59,103.41Z"/><path d="M1812.07,86.72c3.54,0,5.52,2.21,5.52,9.38s-2,9.39-5.52,9.39-5.51-2.21-5.51-9.39S1808.54,86.72,1812.07,86.72Zm0,16.69c2,0,2.55-2,2.55-7.31s-.54-7.3-2.55-7.3-2.54,2-2.54,7.3S1810.07,103.41,1812.07,103.41Z"/></g><g id="Layer_34" data-name="Layer 34"><path d="M14,108.72V95.36H10.21V93.43h.28c1.77,0,3.8-.44,4.34-2.75v-.37H17v18.41Z"/><path d="M26.51,108.72V95.36H22.68V93.43H23c1.77,0,3.8-.44,4.34-2.75v-.37h2.16v18.41Z"/><path d="M39.84,90.31c3.54,0,5.52,2.21,5.52,9.39s-2,9.39-5.52,9.39-5.51-2.21-5.51-9.39S36.31,90.31,39.84,90.31Zm0,16.7c2,0,2.55-2,2.55-7.31s-.54-7.31-2.55-7.31-2.54,2-2.54,7.31S37.84,107,39.84,107Z"/><path d="M52.32,90.31c3.54,0,5.52,2.21,5.52,9.39s-2,9.39-5.52,9.39-5.51-2.21-5.51-9.39S48.79,90.31,52.32,90.31Zm0,16.7c2,0,2.55-2,2.55-7.31s-.54-7.31-2.55-7.31-2.54,2-2.54,7.31S50.32,107,52.32,107Z"/></g></g></svg>