<svg xmlns="http://www.w3.org/2000/svg" viewBox="0 0 1847.91 110"><title>bc1200text</title><g id="YEARS"><g id="Right"><path d="M1792.5,97.85V84.49h-3.82V82.56h.28c1.77,0,3.8-.44,4.35-2.75v-.37h2.15V97.85Z" fill="#3b4351"/><path d="M1811.22,97.85h-10.77c0-8,7.73-7.82,7.73-13.54,0-1.54-.65-2.79-2.29-2.79-2.21,0-2.58,2-2.58,3.85h-2.8c0-3.64,1.5-5.93,5.43-5.93,3.74,0,5.2,2.24,5.2,4.92,0,6.11-6,6.47-7.38,11h7.46Z" fill="#3b4351"/><path d="M1818.32,79.44c3.53,0,5.51,2.21,5.51,9.39s-2,9.39-5.51,9.39-5.52-2.21-5.52-9.39S1814.78,79.44,1818.32,79.44Zm0,16.7c2,0,2.54-2,2.54-7.31s-.54-7.31-2.54-7.31-2.55,2-2.55,7.31S1816.31,96.14,1818.32,96.14Z" fill="#3b4351"/><path d="M1830.8,79.44c3.53,0,5.51,2.21,5.51,9.39s-2,9.39-5.51,9.39-5.52-2.21-5.52-9.39S1827.26,79.44,1830.8,79.44Zm0,16.7c2,0,2.54-2,2.54-7.31s-.54-7.31-2.54-7.31-2.55,2-2.55,7.31S1828.79,96.14,1830.8,96.14Z" fill="#3b4351"/></g><g id="left"><path d="M17.46,99.76V86.39H13.64V84.47h.29c1.77,0,3.79-.44,4.34-2.76v-.36h2.16V99.76Z" fill="#3b4351"/><path d="M36.18,99.76H25.42c0-8,7.72-7.83,7.72-13.55,0-1.53-.65-2.78-2.29-2.78-2.21,0-2.57,2-2.57,3.85H25.47c0-3.64,1.51-5.93,5.44-5.93,3.74,0,5.2,2.24,5.2,4.91,0,6.11-6,6.48-7.39,11h7.46Z" fill="#3b4351"/><path d="M43.28,81.35c3.54,0,5.51,2.21,5.51,9.39s-2,9.38-5.51,9.38-5.51-2.21-5.51-9.38S39.75,81.35,43.28,81.35Zm0,16.69c2,0,2.55-2,2.55-7.3s-.55-7.31-2.55-7.31-2.55,2-2.55,7.31S41.28,98,43.28,98Z" fill="#3b4351"/><path d="M55.76,81.35c3.54,0,5.51,2.21,5.51,9.39s-2,9.38-5.51,9.38-5.51-2.21-5.51-9.38S52.22,81.35,55.76,81.35Zm0,16.69c2,0,2.55-2,2.55-7.3s-.55-7.31-2.55-7.31-2.55,2-2.55,7.31S53.76,98,55.76,98Z" fill="#3b4351"/></g></g><g id="Nation_OUtlines" data-name="Nation OUtlines"><polygon id="Iranians" points="1263.29 675.17 1235.95 561 1211.95 446.5 1241.29 336.5 1280.62 224 1217.95 109.17 1163.29 -0.16 1140.62 -113.5 1175.95 -224 1153.29 -338.83 1137.95 -452.16 1188.62 -563.5 1153.95 -676.16 1161.95 -789 1156.67 -904.27 1152.84 -1021.5 1131.29 -1128 1198.62 -1238.5 1275.29 -1350.5 1277.29 -1464.16 1268.62 -1573.83 1283.88 -1685.83 1411.11 -1685.83 1445.69 -1574.27 1480.18 -1463.6 1462.18 -1350.5 1438.19 -1238.5 1387.19 -1128 1387.19 -1016 1420.19 -901.07 1429.19 -789 1400.69 -676.08 1417.19 -563 1343.69 -452 1325.69 -338 1345.19 -224 1313.69 -112 1298.69 0 1310.69 110 1348.19 224 1313.69 337 1285.19 448 1294.19 561 1372.19 675.17 1373.74 783.73 1375.34 895.73 1376.98 1011 1335.62 1121 1348.62 1233 1391.1 1345 1462.62 1456 1440.62 1568.73 1447.62 1685 1472.62 1797 1505.62 1908.73 1513.62 2018.73 1437.62 2130.73 1391.82 2245.73 1219.62 2131 1086.62 2019 890.71 1908.73 788.62 1797 767.62 1685 866.62 1569 1041.62 1455.73 1176.62 1344.73 1205.62 1232.73 1242.62 1120.73 1294.62 1011 1322.62 898.17 1240.62 784 1263.29 675.17" fill="none" stroke="#3b4351" stroke-miterlimit="10"/><polygon id="Indians" points="1372.19 675.17 1294.19 561 1285.19 448 1313.69 337 1348.19 224 1310.69 110 1298.69 0 1313.69 -112 1345.19 -224 1325.69 -338 1343.69 -452 1417.19 -563 1400.69 -676.08 1429.19 -789 1419.27 -904.27 1387.19 -1016 1387.19 -1128 1438.19 -1238.5 1462.18 -1350.5 1480.18 -1463.54 1445.82 -1573.83 1411.11 -1685.83 1545.86 -1685.83 1580.1 -1573.83 1593.12 -1463.6 1552.12 -1350.5 1514.62 -1238.5 1514.12 -1128.33 1553.12 -1016.27 1548.12 -904 1519.62 -789 1534.12 -675.33 1575.12 -563 1559.62 -452 1564.12 -338.27 1534.62 -224 1486.12 -112 1465.12 0 1471.12 109.17 1502.12 223.17 1508.12 337 1534.62 448 1542.77 526.86 1555.62 675.17 1554.62 784 1567.12 896 1542.12 1010.73 1498.12 1121 1490.62 1233 1513.12 1345 1568.62 1456 1544.12 1569 1530.62 1684.73 1523.62 1796.73 1532.62 1909 1565.12 2019 1543.62 2131 1514.12 2246 1490.12 2355.73 1495.62 2470 1517.12 2583.67 1528.12 2689 1580.62 2801.67 1578.12 2917.67 1578.12 3028.17 1560.12 3139.73 1526.62 3255 1467.62 3369 1381.62 3480.73 1270.62 3591 1090.12 3703.73 860.62 3812 1302.12 3927 1377.03 4039 1550.62 4152 1519.62 4261.83 1476.12 4374.83 1516.13 4488.83 1534.62 4601.17 1552.65 4711.83 1585.62 4825.73 1620.12 4940.83 1650.12 5051.83 1630.62 5159.73 1622.45 5276.73 1565.62 5387.83 1402.62 5501.17 1173.62 5613.83 1148.62 5724.83 1334.62 5839.83 1283.62 5953.83 1344.62 6062.83 1544.62 6175.83 1602.62 6290.17 1627.62 6401.83 1674.62 6514.73 1627.62 6629.83 1634.62 6741.83 1686.62 6853.83 1701.62 6966.83 1620.12 7078.83 1606.12 7189.83 1606.12 7303.66 1552.62 7303.66 1549.52 7189.83 1569.62 7078.83 1683.62 6966.83 1667.62 6853.83 1607.62 6741.83 1596.62 6629.17 1617.62 6514.83 1584.62 6401.83 1562.62 6289.83 1507.62 6175.83 1304.62 6062.73 1225.62 5953.73 1236.97 5916.78 1264.87 5839.83 1082.62 5724.83 1084.2 5614.34 1323.62 5501.83 1500.47 5387.73 1573.62 5276.83 1600.62 5159.83 1604.62 5051.83 1569.62 4940.83 1514.62 4825.83 1447.62 4711.73 1418.62 4599.83 1404.62 4488.83 1367.62 4374.83 1397.62 4261.83 1418.62 4151.73 1339.62 4038.73 1246.62 3927 748.62 3812 753.62 3704 910.76 3591 1053.62 3481 1195.2 3369 1311.62 3254.17 1353.62 3140 1348.62 3029 1364.62 2917.17 1406.62 2802 1401.62 2689 1429.62 2584 1394.62 2469.73 1393.2 2356 1391.82 2245.73 1437.52 2131 1513.62 2018.73 1505.64 1909 1472.62 1797.17 1447.62 1685 1440.63 1569 1462.62 1456 1391.1 1345 1348.62 1233 1332.62 1121 1376.98 1011 1375.34 895.73 1373.74 783.73 1372.19 675.17" fill="none" stroke="#3b4351" stroke-miterlimit="10"/><polygon id="Huns" points="1555.62 675.17 1545.73 561 1533.62 447.67 1506.68 337.64 1502.16 224 1471.34 110 1465.12 0 1486.12 -112 1534.62 -224 1564.05 -338 1559.62 -452 1575.12 -563 1534.24 -675 1519.62 -789 1548.12 -904 1553.11 -1016 1514.47 -1128.27 1514.62 -1240.5 1552.12 -1350.5 1593.12 -1463.16 1580.1 -1573.83 1545.86 -1685.83 1633.99 -1685.83 1651.62 -1573.83 1667.62 -1463.16 1646.62 -1350.5 1620.62 -1238.5 1630.4 -1130.4 1650.62 -1016.33 1676.62 -904 1700.12 -789 1689.12 -675 1714.62 -563.33 1697.12 -452.27 1645.62 -338.27 1616.12 -224 1586.62 -112.27 1538.12 -0.27 1509.12 110 1551.62 224 1585.12 337 1608.62 447.67 1609.69 560.73 1610.76 673.73 1613.62 783.73 1625.12 895.73 1599.12 1011.67 1557.59 1121 1545.65 1233 1558.62 1345 1584.62 1455.73 1571.12 1569.17 1576.62 1685 1567.62 1797 1587.12 1909 1621.12 2019 1612.12 2131 1556.12 2246 1528.62 2356 1529.62 2470 1553.62 2584 1616.07 2689 1609.25 2802 1592.66 2918 1611.01 3028.73 1612.12 3140 1598.04 3255 1564.12 3369 1534.29 3481 1602.12 3590.73 1653.62 3704 1673.62 3812 1666.12 3927 1668.12 4038.67 1625.62 4151.67 1542.12 4261.83 1476.12 4374.83 1519.62 4261.83 1550.62 4152 1376.62 4038.73 1302.12 3927 860.62 3812 1090.12 3703.73 1270.62 3591 1381.62 3480.73 1467.62 3369 1526.62 3255 1560.12 3139.73 1578.12 3028.17 1578.12 2917.67 1580.62 2801.67 1528.12 2689 1517.12 2583.67 1495.62 2470 1490.12 2355.73 1514.12 2246 1543.62 2131 1565.12 2019 1532.62 1909 1523.62 1796.73 1530.62 1684.73 1544.12 1569 1568.62 1456 1513.12 1345 1490.62 1233 1498.12 1121 1542.12 1010.73 1567.12 896 1554.62 784 1555.62 675.17" fill="none" stroke="#3b4351" stroke-miterlimit="10"/><polygon id="Hitites" points="347.74 673.73 337.24 561 361.62 448 400.62 337 439.62 224 658.62 110 742.62 0 835.62 -112 785.62 -224 750.62 -338 770.62 -452 800.62 -563.83 733.62 -675.27 656.62 -789.08 662.62 -904 633.62 -1016 663.62 -1128 786.62 -1238.5 940.62 -1350.5 982.62 -1463.16 1042.62 -1573.83 1103.77 -1685.83 1152.07 -1685.83 1091.29 -1573.83 1025.29 -1463.16 1027.29 -1350.5 910.76 -1238.5 823.95 -1128 785.95 -1016 826.62 -904 853.28 -789 910.76 -675.27 992.62 -563 961.95 -452.83 971.95 -338.16 969.28 -224 975.28 -112.16 954.62 -2.16 857.28 110 623.95 224 566.62 337 481.23 448 394.24 561 347.74 673.73" fill="none" stroke="#3b4351" stroke-miterlimit="10"/><polygon id="Greeks" points="1131.14 2689 1118.7 2584 998.71 2470 683.72 2356 467.73 2246 287.74 2131 231.95 2019 205.28 1909 169.95 1797 149.95 1685 137.95 1569 116.62 1456 111.95 1345 95.28 1233 85.95 1121 75.42 1011 75.42 837.67 75.42 -452 142.25 -338 145.25 -224 155.75 -112 172.25 0 202.25 110 223.25 224 251.62 337 250.62 448 221.95 561.84 228.6 673.73 199.95 783.84 217.95 895.84 237.43 1011 262.62 1121 259.95 1233 319.29 1345 349.95 1456 401.29 1569 527.28 1685 645.95 1797 761.95 1909 965.29 2019 965.95 2131 897.95 2245.17 910.76 2355.73 1099.37 2470 1168.66 2584.09 1131.14 2689" fill="none" stroke="#3b4351" stroke-miterlimit="10"/><polygon id="Egyptians" points="1195.2 2799.31 1131.14 2689 1168.66 2584.09 1099.2 2469.73 910.76 2355.73 897.95 2245.17 965.95 2131 965.28 2018.5 761.95 1909 645.95 1797 527.28 1685 401.29 1569 349.95 1456 319.29 1345 259.95 1233 262.62 1121 238.62 1011 217.95 896 199.95 784 228.62 674 221.62 561 250.62 448 251.62 337 223.25 224 271.57 110 265.25 0 305.74 -112 341.74 -224 376.24 -338 440.74 -452 467.73 -562.09 443.74 -675 381.96 -789 242.75 -904 298.62 -1016 424.24 -1128 460.24 -1238.5 397.24 -1350.5 319.24 -1463.16 319.24 -1573.83 298.62 -1685.83 1103.77 -1685.83 1042.62 -1573.83 982.62 -1463.16 940.62 -1350.5 786.62 -1238.5 663.62 -1128 633.62 -1016 662.62 -904 656.62 -789.08 733.62 -675.27 800.62 -563.83 770.62 -452 750.62 -338 785.62 -224 835.62 -112 742.62 0 658.62 110 439.62 224 400.62 337 361.62 448 302.62 561 310.62 674 282.62 784 271.95 896 305.95 1121 323.95 1232.5 432.62 1345 476.62 1455.17 451.95 1569 555.95 1685 667.28 1797 813.28 1909 968.62 2019 995.95 2131 968.62 2245.84 940.62 2354.5 1130.91 2469.73 1189.62 2584.67 1157.7 2689 1195.2 2799.31" fill="none" stroke="#3b4351" stroke-miterlimit="10"/><polygon id="Chinese" points="1610.76 673.73 1609.69 560.73 1608.62 447.67 1585.12 337 1551.62 224 1509.12 110 1538.12 -0.27 1586.62 -112.27 1616.12 -224 1645.62 -338.27 1697.12 -452.27 1714.62 -563.33 1689.12 -675 1700.12 -789 1676.62 -904 1650.62 -1016.33 1630.62 -1128 1620.62 -1238.5 1646.62 -1350.5 1667.62 -1463.16 1651.62 -1573.83 1633.99 -1685.83 1768.79 -1685.83 1768.79 6514.83 1768.79 6629.73 1766.12 6741.83 1757.62 6853.83 1736.12 6966.73 1676.12 7078.73 1661.12 7189.83 1663.62 7303.66 1606.12 7303.66 1606.12 7189.73 1620.12 7078.83 1701.62 6966.83 1696.12 6853.67 1654.12 6741.83 1681.62 6629.83 1739.62 6514.73 1748.62 6401.67 1744.12 6289.67 1685.62 6175.83 1615.12 6065.17 1636.12 5953.83 1738.62 5839.83 1761.12 5724.83 1758.62 5613.83 1732.12 5501.83 1695.62 5387.83 1667.62 5276.83 1651.12 5159.83 1650.12 5051.83 1620.12 4940.83 1585.62 4825.73 1552.62 4711.73 1535.12 4599.83 1516.12 4488.73 1476.12 4374.83 1542.12 4261.83 1625.62 4151.67 1668.12 4038.67 1666.12 3927 1673.62 3812 1653.62 3704 1602.12 3590.73 1534.12 3480.73 1564.12 3369 1598.12 3254.73 1612.12 3140 1611.01 3028.73 1592.62 2917.73 1609.25 2802 1616.07 2689 1553.62 2584 1529.62 2470 1528.62 2355.73 1555.62 2246 1612.12 2131 1621.12 2019 1587.12 1909 1567.62 1797 1576.62 1685 1571.12 1569 1584.62 1455.73 1558.62 1345 1545.62 1232.73 1557.62 1120.73 1599.62 1011 1625.12 895.73 1613.62 783.73 1610.76 673.73" fill="none" stroke="#3b4351" stroke-miterlimit="10"/><polygon id="Amorites" points="1263.29 675.17 1240.62 784 1322.62 896 1294.62 1011 1242.62 1120.73 1205.62 1232.73 1176.62 1344.73 1041.62 1455.73 866.62 1569 767.62 1685 788.62 1797 890.71 1908.73 762.62 1796.73 716.62 1684.73 709.62 1569 755.62 1456 1054.29 1344.73 1156.62 1233 1173.62 1119.17 1199.62 1009.17 1138.62 896 910.76 784 832.62 673.73 949.95 561 1040.62 447.73 1141.31 337 1225.29 223.84 1147.62 110 1085.29 0 1061.29 -112.27 1028.62 -224.27 971.95 -338.16 961.95 -452.83 992.62 -563 910.76 -675.27 853.28 -789 826.62 -904 785.95 -1016 823.95 -1128 910.76 -1238.5 1027.29 -1350.5 1025.29 -1463.16 1091.29 -1573.83 1152.07 -1685.83 1283.88 -1685.83 1268.62 -1573.83 1277.29 -1464.16 1275.29 -1350.5 1198.62 -1238.5 1131.29 -1128 1153.95 -1016 1156.67 -904.27 1161.95 -789 1153.95 -676.16 1188.62 -563.5 1137.95 -452.16 1153.29 -338.83 1175.95 -224 1140.62 -113.5 1163.29 -0.16 1217.95 109.17 1280.62 224 1241.29 336.5 1211.95 446.5 1235.95 561 1263.29 675.17" fill="none" stroke="#3b4351" stroke-miterlimit="10"/><polygon id="Aegeans" points="223.25 224 202.25 110 172.25 0 155.75 -112 145.25 -224 142.25 -338 75.42 -452 75.42 -1685.83 298.62 -1685.83 319.24 -1573.83 319.24 -1463.16 397.24 -1350.5 460.24 -1238.5 424.24 -1128 298.62 -1016 242.75 -904 381.96 -789 443.74 -675 467.73 -562.09 440.74 -452 376.24 -338 341.74 -224 305.74 -112 265.25 0 271.57 110 223.25 224" fill="none" stroke="#3b4351" stroke-miterlimit="10"/><polygon id="Assyrian_Kingdom" data-name="Assyrian Kingdom" points="631.95 673.73 635.28 561 679.9 448 701.28 337 799.28 224 980.62 110 1007.95 0 1020.62 -112 998.62 -224 971.95 -338.16 1028.62 -224.27 1061.29 -112.27 1085.29 0 1147.62 110 1225.29 223.84 1141.31 337 1040.62 447.73 949.95 561 832.62 673.73 910.76 784 1138.62 896 1199.62 1009.17 1173.62 1119.17 1156.62 1233 1054.29 1344.73 755.62 1456 709.62 1569 716.62 1684.73 658.28 1569 654.62 1456 630.95 1345 510.62 1233 518.62 1121 595.95 1011 638.62 896 643.28 784 631.95 673.73" fill="none" stroke="#3b4351" stroke-miterlimit="10"/><polygon id="Hebrews" points="635.28 561 631.95 673.73 643.28 784 638.62 896 595.95 1011 518.62 1121 510.62 1233 630.95 1345 654.62 1456 658.28 1569 716.62 1684.73 647.18 1569 644.62 1456 617.95 1345 493.29 1233 500.03 1121 570.62 1011 613.28 897 583.28 784 569.28 674 511.95 561 573.95 448 630.62 337 697.58 224 921.28 110 989.95 0 1020.62 -112 1007.95 0 980.62 110 799.28 224 701.28 337 679.9 448 635.28 561" fill="none" stroke="#3b4351" stroke-miterlimit="10"/><polygon points="1130.91 2469.73 940.62 2354.5 968.62 2245.84 995.95 2131 968.62 2019 813.28 1909 667.28 1797 624.62 1685 611.95 1569 608.62 1456 523.28 1345 375.82 1233 387.95 1121 383.29 1011 359.29 896 340.62 785.16 347.74 673.73 394.24 561 481.23 448 566.62 337 623.95 224 857.28 110 954.62 -2.16 975.28 -112.16 969.28 -224 971.95 -338.16 998.62 -224 1020.62 -112 989.95 0 921.28 110 697.58 224 630.62 337 573.95 448 511.95 561 538.62 674 509.95 784 479.29 896 428.62 1011 439.95 1121 493.29 1233 617.95 1345 644.62 1456 647.18 1569 716.62 1684.73 762.62 1796.73 890.71 1908.73 1086.62 2019 1219.62 2131 1225.12 2246 1186.62 2356 1130.91 2469.73" fill="none" stroke="#3b4351" stroke-miterlimit="10"/></g><g id="Text"><g id="Greeks-2" data-name="Greeks"><path d="M105.44,105.46h0a3.63,3.63,0,0,1-3.82,2.38c-3.82,0-5.2-2.85-5.2-9.1s1.77-9.09,5.81-9.09a4.76,4.76,0,0,1,5.12,5V95h-2.64V94.6c0-1.3-.54-2.84-2.45-2.84s-3,1.32-3,6.91.93,7.06,2.82,7.06c2.13,0,2.91-1.52,2.91-5.34H102V98.28h5.59v9.21h-2.11Z" fill="#3b4351"/><path d="M110,90h6.17c2.45,0,4.44,1.25,4.44,4.5,0,2.26-1,4-2.92,4.29v0c1.77.17,2.65,1.13,2.75,3.58,0,1.15,0,2.5.09,3.55a1.92,1.92,0,0,0,.84,1.52h-3.16a2.92,2.92,0,0,1-.47-1.54c0-.52-.07-1.06-.07-1.57s0-1.1-.05-1.74c-.08-1.91-.66-2.74-2.55-2.74h-2.28v7.59H110Zm5,7.79A2.58,2.58,0,0,0,117.76,95c0-1.87-.78-2.85-2.64-2.85h-2.38v5.69Z" fill="#3b4351"/><path d="M123.1,90h9.46v2.35H125.9V97.2h6.27v2.35H125.9v5.59h6.86v2.35H123.1Z" fill="#3b4351"/><path d="M134.89,90h9.46v2.35h-6.67V97.2H144v2.35h-6.27v5.59h6.86v2.35h-9.65Z" fill="#3b4351"/><path d="M146.67,90h2.79v7.62h0l5.3-7.62h3.06l-5.05,7.37,5.59,10.12h-3.16L151,99.63l-1.55,2.2v5.66h-2.79Z" fill="#3b4351"/><path d="M161.54,102.08v.44c0,2.13,1,3.21,2.87,3.21a2.51,2.51,0,0,0,2.65-2.55c0-1.84-.93-2.65-2.5-3.11l-1.91-.66c-2.55-1-3.66-2.31-3.66-4.81,0-3.18,2.19-4.95,5.44-4.95,4.49,0,4.95,2.8,4.95,4.61v.39h-2.79v-.37c0-1.59-.69-2.52-2.45-2.52a2.23,2.23,0,0,0-2.35,2.52c0,1.5.76,2.26,2.62,3l1.89.69c2.47.88,3.55,2.2,3.55,4.63,0,3.72-2.25,5.27-5.78,5.27-4.34,0-5.32-2.9-5.32-5.35v-.41Z" fill="#3b4351"/></g><g id="Chinese-2" data-name="Chinese"><path d="M1552.08,22.72v.37c0,3.16-1.3,6.25-5.39,6.25-4.41,0-5.78-2.85-5.78-9.1s1.37-9.09,5.81-9.09c5,0,5.26,3.65,5.26,5.49V17h-2.79v-.29c0-1.65-.49-3.48-2.5-3.41s-3,1.27-3,6.91.91,7.06,3,7.06c2.35,0,2.6-2.57,2.6-4.22v-.29Z" fill="#3b4351"/><path d="M1553.87,11.5h2.64v5.73l.08.05a3.76,3.76,0,0,1,3.23-1.81c2,0,3.29.9,3.29,3.57V29h-2.65V20c0-1.74-.49-2.38-1.84-2.38-1.08,0-2.11.84-2.11,2.58V29h-2.64Z" fill="#3b4351"/><path d="M1565.77,11.3h2.65V14h-2.65Zm0,4.51h2.65V29h-2.65Z" fill="#3b4351"/><path d="M1571.09,15.81h2.5v1.54h.07a3.79,3.79,0,0,1,3.39-1.88c2,0,3.28.9,3.28,3.57V29h-2.65V20c0-1.76-.46-2.38-1.84-2.38-1.07,0-2.1.81-2.1,2.58V29h-2.65Z" fill="#3b4351"/><path d="M1585.15,22.74v.76c0,1.77.22,4,2.21,4s2.11-2.13,2.11-2.94h2.5c0,3-1.77,4.76-4.64,4.76-2.15,0-4.82-.64-4.82-6.74,0-3.46.76-7.13,4.87-7.13,3.68,0,4.66,2.23,4.66,5.88v1.39Zm4.24-1.81v-.71c0-1.67-.54-2.94-2-2.94-1.67,0-2.21,1.67-2.21,3.38v.27Z" fill="#3b4351"/><path d="M1599.9,19.66v-.35c0-1-.36-2-1.74-2-1.05,0-1.88.46-1.88,1.71,0,1.06.46,1.45,1.86,1.94l1.69.59c2,.66,2.87,1.71,2.87,3.8,0,2.82-2.09,4-4.73,4-3.34,0-4.34-1.55-4.34-4.1v-.49H1596v.42c0,1.54.52,2.35,2.06,2.35s2.16-.73,2.16-1.93a1.91,1.91,0,0,0-1.45-1.94l-2.15-.76c-2-.66-2.82-1.69-2.82-3.8,0-2.47,1.76-3.62,4.51-3.62,3.35,0,4.11,2,4.11,3.6v.59Z" fill="#3b4351"/><path d="M1606.93,22.74v.76c0,1.77.22,4,2.21,4s2.11-2.13,2.11-2.94h2.5c0,3-1.77,4.76-4.64,4.76-2.15,0-4.82-.64-4.82-6.74,0-3.46.76-7.13,4.87-7.13,3.68,0,4.66,2.23,4.66,5.88v1.39Zm4.24-1.81v-.71c0-1.67-.54-2.94-2-2.94-1.67,0-2.21,1.67-2.21,3.38v.27Z" fill="#3b4351"/><path d="M1621.93,11.5h2.79V29h-2.79Z" fill="#3b4351"/><path d="M1627.44,15.81h2.5v1.54h.07a3.69,3.69,0,0,1,3.16-1.88,2.87,2.87,0,0,1,3.07,2,3.59,3.59,0,0,1,3.33-2c1.86,0,3.21,1,3.21,3.5V29h-2.65V20c0-1.74-.51-2.38-1.59-2.38s-2.11.84-2.11,2.58V29h-2.64V20c0-1.74-.52-2.38-1.62-2.38s-2.08.86-2.08,2.58V29h-2.65Z" fill="#3b4351"/><path d="M1651.13,29.34a3,3,0,0,1-3-1.89h-.05v5.86h-2.64V15.81h2.5v1.62h0a3.13,3.13,0,0,1,3-2c3,0,4.24,2.57,4.24,7.1C1655.2,28.11,1653,29.34,1651.13,29.34Zm-1-11.77c-1.82,0-2.23,1.84-2.23,4.68,0,3.17.39,5,2.25,5,1.5,0,2.21-1.13,2.21-4.78C1652.41,19.46,1652,17.57,1650.18,17.57Z" fill="#3b4351"/><path d="M1659.51,22.74v.76c0,1.77.22,4,2.21,4s2.1-2.13,2.1-2.94h2.5c0,3-1.76,4.76-4.63,4.76-2.16,0-4.83-.64-4.83-6.74,0-3.46.76-7.13,4.88-7.13,3.68,0,4.66,2.23,4.66,5.88v1.39Zm4.24-1.81v-.71c0-1.67-.54-2.94-2-2.94-1.67,0-2.21,1.67-2.21,3.38v.27Z" fill="#3b4351"/><path d="M1668.57,15.81h2.65v2.06h0a3.26,3.26,0,0,1,3.06-2.4,1.61,1.61,0,0,1,.64.09v2.7a3.84,3.84,0,0,0-1.1-.15c-1.2,0-2.65.54-2.65,3V29h-2.65Z" fill="#3b4351"/><path d="M1676.41,11.3h2.65V14h-2.65Zm0,4.51h2.65V29h-2.65Z" fill="#3b4351"/><path d="M1690.38,26.25c0,.49.29.93.69.93a1.22,1.22,0,0,0,.44-.07v1.71a2.86,2.86,0,0,1-1.3.32c-1.18,0-2.16-.47-2.23-1.74h0a3.41,3.41,0,0,1-3.28,1.94c-2.14,0-3.43-1.16-3.43-3.7,0-2.95,1.29-3.56,3.06-4.15l2.06-.56c1-.27,1.54-.54,1.54-1.69s-.42-2-1.81-2c-1.77,0-2,1.25-2,2.52h-2.5c0-2.82,1.15-4.33,4.63-4.33,2.33,0,4.19.9,4.19,3.23Zm-2.5-4.22a20.5,20.5,0,0,1-2.94,1.23,2.17,2.17,0,0,0-1.08,2.13c0,1.1.54,2,1.64,2,1.6,0,2.38-1.18,2.38-3.14Z" fill="#3b4351"/><path d="M1693.2,11.5h2.64V29h-2.64Z" fill="#3b4351"/><path d="M1704.56,11.5h5.54c3.36,0,4.83,2.1,4.83,5.09,0,3.14-1.86,5.17-5.12,5.17h-2.45V29h-2.8Zm2.8,8.16h2c1.5,0,2.8-.79,2.8-3,0-1.89-.76-3-3-3h-1.78Z" fill="#3b4351"/><path d="M1716.13,22.4c0-4.12,1.07-6.93,4.9-6.93s4.92,2.81,4.92,6.93-1.27,6.94-4.92,6.94S1716.13,26.52,1716.13,22.4Zm4.9,5c1.93,0,2.28-1.62,2.28-5,0-2.92-.35-5-2.28-5s-2.26,2.05-2.26,5C1718.77,25.76,1719.14,27.38,1721,27.38Z" fill="#3b4351"/><path d="M1726.93,15.81h2.75l1.83,10.39h0l2-10.39h3l2,10.39h0l1.82-10.39H1743L1740,29h-3l-2.06-10.24h0L1733,29h-3.09Z" fill="#3b4351"/><path d="M1746.9,22.74v.76c0,1.77.22,4,2.2,4s2.11-2.13,2.11-2.94h2.5c0,3-1.76,4.76-4.63,4.76-2.16,0-4.83-.64-4.83-6.74,0-3.46.76-7.13,4.88-7.13,3.67,0,4.65,2.23,4.65,5.88v1.39Zm4.24-1.81v-.71c0-1.67-.54-2.94-2-2.94-1.66,0-2.2,1.67-2.2,3.38v.27Z" fill="#3b4351"/><path d="M1756,15.81h2.65v2.06h.05a3.26,3.26,0,0,1,3.06-2.4,1.61,1.61,0,0,1,.64.09v2.7a3.84,3.84,0,0,0-1.1-.15c-1.2,0-2.65.54-2.65,3V29H1756Z" fill="#3b4351"/></g><g id="Hittites"><g id="small"><path d="M794.13,7.08h1.51v3.28l0,0a2.16,2.16,0,0,1,1.85-1c1.15,0,1.88.52,1.88,2.05v5.68H797.9V11.92c0-1-.28-1.36-1-1.36s-1.21.47-1.21,1.47v5h-1.51Z" fill="#3b4351"/><path d="M802.16,13.51V14c0,1,.13,2.29,1.27,2.29s1.2-1.21,1.2-1.68h1.43a2.48,2.48,0,0,1-2.65,2.72c-1.23,0-2.76-.36-2.76-3.85,0-2,.44-4.08,2.79-4.08,2.1,0,2.66,1.28,2.66,3.36v.8Zm2.43-1v-.41c0-1-.31-1.68-1.16-1.68s-1.27.95-1.27,1.93v.16Z" fill="#3b4351"/><path d="M807.41,7h1.52V8.48h-1.52Zm0,2.58h1.52v7.53h-1.52Z" fill="#3b4351"/><path d="M812,17.73a1,1,0,0,0,1.1.89,1.24,1.24,0,0,0,1.27-1.41V16h0a1.82,1.82,0,0,1-1.71,1c-1.75,0-2.25-1.72-2.25-3.8,0-1.65.25-3.88,2.39-3.88a1.68,1.68,0,0,1,1.66,1.12h0V9.55h1.42v7.17c0,1.83-.78,2.94-2.81,2.94-2.24,0-2.49-1.32-2.49-1.93ZM813,15.82c1.18,0,1.3-1.48,1.3-2.67s-.15-2.59-1.2-2.59-1.28,1.12-1.28,2.52S811.91,15.82,813,15.82Z" fill="#3b4351"/><path d="M817.19,7.08h1.51v3.28l0,0a2.14,2.14,0,0,1,1.85-1c1.15,0,1.88.52,1.88,2.05v5.68H821V11.92c0-1-.28-1.36-1.05-1.36-.61,0-1.2.47-1.2,1.47v5h-1.51Z" fill="#3b4351"/><path d="M823.25,9.55h1V7.41h1.52V9.55H827v1.12H825.8v4.5c0,.6.16.79.68.79a2.75,2.75,0,0,0,.55,0V17a4.64,4.64,0,0,1-1.22.13c-1,0-1.53-.3-1.53-1.82V10.67h-1Z" fill="#3b4351"/><path d="M830.88,13.32c0-2.36.61-4,2.8-4s2.81,1.61,2.81,4-.72,4-2.81,4S830.88,15.67,830.88,13.32Zm2.8,2.84c1.11,0,1.3-.92,1.3-2.84,0-1.67-.19-2.85-1.3-2.85s-1.29,1.18-1.29,2.85C832.39,15.24,832.6,16.16,833.68,16.16Z" fill="#3b4351"/><path d="M838.12,10.67h-1.06V9.55h1.06v-.7c0-1.42.68-1.88,1.91-1.88a6.47,6.47,0,0,1,.83,0V8.18h-.42c-.56,0-.81.21-.81.71v.66h1.23v1.12h-1.23v6.41h-1.51Z" fill="#3b4351"/><path d="M848.15,17.28a1.72,1.72,0,0,1-1.7-1.08h0v3.35h-1.51v-10h1.42v.92h0a1.79,1.79,0,0,1,1.7-1.12c1.72,0,2.42,1.47,2.42,4.06C850.48,16.58,849.21,17.28,848.15,17.28Zm-.54-6.72c-1,0-1.28,1-1.28,2.67,0,1.81.23,2.85,1.29,2.85.86,0,1.26-.65,1.26-2.74C848.88,11.64,848.67,10.56,847.61,10.56Z" fill="#3b4351"/><path d="M851.34,13.32c0-2.36.62-4,2.81-4S857,11,857,13.32s-.73,4-2.81,4S851.34,15.67,851.34,13.32Zm2.81,2.84c1.1,0,1.3-.92,1.3-2.84,0-1.67-.2-2.85-1.3-2.85s-1.29,1.18-1.29,2.85C852.86,15.24,853.07,16.16,854.15,16.16Z" fill="#3b4351"/><path d="M857.52,9.55h1.57l1,5.94h0l1.12-5.94H863l1.12,5.94h0l1-5.94h1.51L865,17.08h-1.69l-1.18-5.85h0L861,17.08h-1.76Z" fill="#3b4351"/><path d="M868.93,13.51V14c0,1,.13,2.29,1.26,2.29s1.2-1.21,1.2-1.68h1.43a2.48,2.48,0,0,1-2.64,2.72c-1.24,0-2.76-.36-2.76-3.85,0-2,.43-4.08,2.78-4.08,2.11,0,2.67,1.28,2.67,3.36v.8Zm2.42-1v-.41c0-1-.31-1.68-1.16-1.68s-1.26.95-1.26,1.93v.16Z" fill="#3b4351"/><path d="M874.11,9.55h1.51v1.17h0a1.87,1.87,0,0,1,1.75-1.37.87.87,0,0,1,.36.06V11a2.18,2.18,0,0,0-.63-.08c-.68,0-1.51.3-1.51,1.7v4.51h-1.51Z" fill="#3b4351"/><path d="M786.84,38.2h0a2.17,2.17,0,0,1-1.93,1.08c-1.12,0-1.88-.52-1.88-2.46V31.55h1.51V37c0,.84.37,1.12,1,1.12a1.17,1.17,0,0,0,1.23-1.26V31.55h1.51v7.53h-1.43Z" fill="#3b4351"/><path d="M789.73,31.55h1.42v.88h.05a2.15,2.15,0,0,1,1.93-1.08c1.15,0,1.88.52,1.88,2v5.68h-1.52V33.92c0-1-.26-1.36-1-1.36-.61,0-1.2.46-1.2,1.47v5h-1.51Z" fill="#3b4351"/><path d="M800.31,38.16h0a1.6,1.6,0,0,1-1.65,1.12c-1.75,0-2.47-1.48-2.47-4.06,0-3.35,1.18-3.87,2.33-3.87a1.74,1.74,0,0,1,1.71,1.08h0V29.08h1.51v10h-1.43Zm-1.37-5.6c-.86,0-1.18.7-1.18,2.73,0,1.71.21,2.79,1.28,2.79s1.27-1,1.27-2.68C800.31,33.59,800.12,32.56,798.94,32.56Z" fill="#3b4351"/><path d="M804.5,35.51V36c0,1,.12,2.29,1.26,2.29S807,37,807,36.56h1.43a2.48,2.48,0,0,1-2.65,2.72c-1.23,0-2.76-.36-2.76-3.85,0-2,.44-4.08,2.79-4.08,2.1,0,2.66,1.28,2.66,3.36v.8Zm2.42-1v-.41c0-1-.31-1.68-1.16-1.68s-1.26,1-1.26,1.93v.16Z" fill="#3b4351"/><path d="M809.68,31.55h1.51v1.17h0A1.85,1.85,0,0,1,813,31.35a.87.87,0,0,1,.36.06V33a2.18,2.18,0,0,0-.63-.08c-.69,0-1.51.3-1.51,1.7v4.51h-1.51Z" fill="#3b4351"/><path d="M817.54,29.08h1.6v4h2.94v-4h1.6v10h-1.6V34.43h-2.94v4.65h-1.6Z" fill="#3b4351"/><path d="M830.17,37.52c0,.28.17.53.4.53a.76.76,0,0,0,.25,0v1a1.71,1.71,0,0,1-.74.18c-.68,0-1.24-.27-1.28-1h0a1.93,1.93,0,0,1-1.87,1.11c-1.22,0-2-.66-2-2.11a2.08,2.08,0,0,1,1.76-2.37l1.17-.32c.55-.16.88-.31.88-1s-.23-1.12-1-1.12c-1,0-1.15.71-1.15,1.44h-1.43c0-1.61.66-2.48,2.65-2.48,1.33,0,2.39.52,2.39,1.85Zm-1.43-2.41a13.18,13.18,0,0,1-1.68.7,1.23,1.23,0,0,0-.61,1.22c0,.63.31,1.13.94,1.13.91,0,1.35-.67,1.35-1.79Z" fill="#3b4351"/><path d="M831,31.55h1V29.41h1.51v2.14h1.23v1.12h-1.23v4.5c0,.6.17.79.68.79a2.75,2.75,0,0,0,.55,0V39a4.64,4.64,0,0,1-1.22.13c-1,0-1.52-.3-1.52-1.82V32.67h-1Z" fill="#3b4351"/><path d="M834.93,31.55h1V29.41h1.51v2.14h1.23v1.12h-1.23v4.5c0,.6.17.79.69.79a2.7,2.7,0,0,0,.54,0V39a4.64,4.64,0,0,1-1.22.13c-1,0-1.52-.3-1.52-1.82V32.67h-1Z" fill="#3b4351"/><path d="M843.35,38.2h0a2.18,2.18,0,0,1-1.94,1.08c-1.12,0-1.87-.52-1.87-2.46V31.55H841V37c0,.84.36,1.12,1,1.12a1.17,1.17,0,0,0,1.23-1.26V31.55h1.52v7.53h-1.43Z" fill="#3b4351"/><path d="M849.48,33.75v-.2c0-.6-.21-1.16-1-1.16-.6,0-1.07.26-1.07,1s.26.83,1.06,1.11l1,.33A2,2,0,0,1,851.08,37c0,1.61-1.2,2.3-2.71,2.3-1.9,0-2.48-.88-2.48-2.34v-.28h1.35v.24c0,.88.29,1.34,1.17,1.34s1.24-.42,1.24-1.1a1.09,1.09,0,0,0-.83-1.11l-1.23-.43A2,2,0,0,1,846,33.42c0-1.41,1-2.07,2.57-2.07,1.92,0,2.36,1.12,2.36,2.06v.34Z" fill="#3b4351"/><path d="M852.26,29h1.52v1.51h-1.52Zm0,2.58h1.52v7.53h-1.52Z" fill="#3b4351"/><path d="M855.37,29.08h1.51v10h-1.51Z" fill="#3b4351"/><path d="M861.8,29.08h1.59v10H861.8Z" fill="#3b4351"/><path d="M864.9,29.08h1.6v10h-1.6Z" fill="#3b4351"/><path d="M868.14,37.24h1.6v1.84h-1.6Z" fill="#3b4351"/><path d="M761.3,68.25h2l2.63,10h-1.66l-.62-2.45h-2.93l-.64,2.45h-1.67Zm2.13,6.28-1.15-4.93h0l-1.19,4.93Z" fill="#3b4351"/><path d="M766.57,70.72h1.52v1.17h0a1.87,1.87,0,0,1,1.75-1.37.92.92,0,0,1,.37.06v1.54a2.24,2.24,0,0,0-.63-.08c-.69,0-1.51.3-1.51,1.7v4.51h-1.52Z" fill="#3b4351"/><path d="M775.84,76.69c0,.28.17.53.4.53a.76.76,0,0,0,.25,0v1a1.71,1.71,0,0,1-.74.18c-.68,0-1.24-.27-1.28-1h0a1.93,1.93,0,0,1-1.87,1.11c-1.22,0-2-.66-2-2.12A2.07,2.07,0,0,1,772.36,74l1.17-.32c.55-.16.88-.31.88-1s-.23-1.12-1-1.12c-1,0-1.15.71-1.15,1.44H770.8c0-1.61.66-2.48,2.65-2.48,1.33,0,2.39.52,2.39,1.85Zm-1.43-2.41a13.18,13.18,0,0,1-1.68.7,1.23,1.23,0,0,0-.61,1.22c0,.63.31,1.13.94,1.13.91,0,1.35-.67,1.35-1.79Z" fill="#3b4351"/><path d="M777.45,70.72h1.43v.88h0a2.12,2.12,0,0,1,1.81-1.08,1.63,1.63,0,0,1,1.75,1.15,2,2,0,0,1,1.9-1.15c1.07,0,1.84.55,1.84,2v5.72h-1.51V73.09c0-1-.3-1.36-.91-1.36s-1.21.47-1.21,1.47v5h-1.51V73.09c0-1-.3-1.36-.93-1.36S779,72.22,779,73.2v5h-1.51Z" fill="#3b4351"/><path d="M789,74.68v.44c0,1,.13,2.29,1.26,2.29s1.21-1.21,1.21-1.68h1.43a2.48,2.48,0,0,1-2.65,2.72c-1.23,0-2.76-.36-2.76-3.85,0-2,.43-4.08,2.79-4.08,2.1,0,2.66,1.28,2.66,3.36v.8Zm2.43-1v-.41c0-.95-.31-1.68-1.17-1.68s-1.26,1-1.26,1.93v.16Z" fill="#3b4351"/><path d="M799.17,76.69c0,.28.17.53.39.53a.72.72,0,0,0,.25,0v1a1.71,1.71,0,0,1-.74.18c-.67,0-1.23-.27-1.28-1h0a1.94,1.94,0,0,1-1.88,1.11c-1.22,0-2-.66-2-2.12A2.06,2.06,0,0,1,795.68,74l1.18-.32c.54-.16.88-.31.88-1s-.24-1.12-1-1.12c-1,0-1.15.71-1.15,1.44h-1.43c0-1.61.66-2.48,2.65-2.48,1.33,0,2.4.52,2.4,1.85Zm-1.43-2.41a13.82,13.82,0,0,1-1.68.7,1.22,1.22,0,0,0-.62,1.22c0,.63.31,1.13.94,1.13.91,0,1.36-.67,1.36-1.79Z" fill="#3b4351"/><path d="M800.7,70.72h1.43v.88h0a2.15,2.15,0,0,1,1.93-1.08c1.15,0,1.88.52,1.88,2v5.68h-1.52V73.09c0-1-.26-1.36-1.05-1.36-.61,0-1.2.46-1.2,1.47v5H800.7Z" fill="#3b4351"/><path d="M815.88,75.51c-.11,1.81-.7,2.94-2.57,2.94-2.19,0-2.81-1.61-2.81-4s.62-4,2.81-4a2.44,2.44,0,0,1,2.59,2.71h-1.52c0-.7-.18-1.63-1.07-1.59-1.08,0-1.29,1.18-1.29,2.85s.21,2.84,1.29,2.84c.84,0,1.14-.69,1.14-1.82Z" fill="#3b4351"/><path d="M818.32,74.68v.44c0,1,.12,2.29,1.26,2.29s1.2-1.21,1.2-1.68h1.43a2.48,2.48,0,0,1-2.65,2.72c-1.23,0-2.76-.36-2.76-3.85,0-2,.44-4.08,2.79-4.08,2.1,0,2.66,1.28,2.66,3.36v.8Zm2.42-1v-.41c0-.95-.31-1.68-1.16-1.68s-1.26,1-1.26,1.93v.16Z" fill="#3b4351"/><path d="M823.5,70.72h1.42v.88H825a2.15,2.15,0,0,1,1.93-1.08c1.15,0,1.88.52,1.88,2v5.68h-1.52V73.09c0-1-.26-1.36-1-1.36-.61,0-1.2.46-1.2,1.47v5H823.5Z" fill="#3b4351"/><path d="M829.56,70.72h1V68.58h1.52v2.14h1.23v1.12h-1.23v4.49c0,.61.16.8.68.8a2.75,2.75,0,0,0,.55,0v1.12a4.64,4.64,0,0,1-1.22.13c-1,0-1.53-.3-1.53-1.82V71.84h-1Z" fill="#3b4351"/><path d="M834.12,70.72h1.51v1.17h0a1.87,1.87,0,0,1,1.75-1.37.92.92,0,0,1,.37.06v1.54a2.24,2.24,0,0,0-.63-.08c-.69,0-1.52.3-1.52,1.7v4.51h-1.51Z" fill="#3b4351"/><path d="M839.75,74.68v.44c0,1,.13,2.29,1.26,2.29s1.21-1.21,1.21-1.68h1.42A2.47,2.47,0,0,1,841,78.45c-1.24,0-2.76-.36-2.76-3.85,0-2,.43-4.08,2.78-4.08,2.11,0,2.67,1.28,2.67,3.36v.8Zm2.42-1v-.41c0-.95-.3-1.68-1.16-1.68s-1.26,1-1.26,1.93v.16Z" fill="#3b4351"/><path d="M772.2,95.69c0,.28.17.53.4.53a.76.76,0,0,0,.25,0v1a1.71,1.71,0,0,1-.74.18c-.68,0-1.24-.27-1.28-1h0a1.93,1.93,0,0,1-1.87,1.11c-1.22,0-2-.66-2-2.12A2.07,2.07,0,0,1,768.72,93l1.17-.32c.55-.16.88-.31.88-1s-.23-1.12-1-1.12c-1,0-1.15.71-1.15,1.44h-1.43c0-1.61.66-2.48,2.65-2.48,1.33,0,2.39.52,2.39,1.85Zm-1.43-2.41a13.18,13.18,0,0,1-1.68.7,1.23,1.23,0,0,0-.61,1.22c0,.63.31,1.13.94,1.13.91,0,1.35-.67,1.35-1.79Z" fill="#3b4351"/><path d="M773.07,89.72h1V87.58h1.52v2.14h1.23v1.12h-1.23v4.49c0,.61.17.8.68.8a2.75,2.75,0,0,0,.55,0v1.12a4.64,4.64,0,0,1-1.22.13c-1,0-1.53-.3-1.53-1.82V90.84h-1Z" fill="#3b4351"/><path d="M781.09,87.25h2.84c3.14,0,3.53,2,3.53,5s-.39,5-3.53,5h-2.84Zm1.6,8.8H784c1.32,0,1.87-.87,1.87-3.8s-.48-3.79-1.87-3.79h-1.31Z" fill="#3b4351"/><path d="M793.72,95.69c0,.28.17.53.39.53a.78.78,0,0,0,.26,0v1a1.76,1.76,0,0,1-.75.18c-.67,0-1.23-.27-1.27-1h0a1.94,1.94,0,0,1-1.88,1.11c-1.21,0-2-.66-2-2.12A2.07,2.07,0,0,1,790.23,93l1.18-.32c.55-.16.88-.31.88-1s-.24-1.12-1-1.12c-1,0-1.15.71-1.15,1.44h-1.43c0-1.61.66-2.48,2.65-2.48,1.33,0,2.39.52,2.39,1.85Zm-1.43-2.41a13.82,13.82,0,0,1-1.68.7A1.23,1.23,0,0,0,790,95.2c0,.63.3,1.13.93,1.13.91,0,1.36-.67,1.36-1.79Z" fill="#3b4351"/><path d="M795.33,89.72h1.43v.88h0a2.12,2.12,0,0,1,1.81-1.08,1.65,1.65,0,0,1,1.75,1.15,2,2,0,0,1,1.9-1.15c1.07,0,1.84.55,1.84,2v5.72h-1.52V92.09c0-1-.29-1.36-.91-1.36s-1.2.47-1.2,1.47v5H799V92.09c0-1-.3-1.36-.93-1.36s-1.19.49-1.19,1.47v5h-1.51Z" fill="#3b4351"/><path d="M810.56,95.69c0,.28.17.53.4.53a.76.76,0,0,0,.25,0v1a1.71,1.71,0,0,1-.74.18c-.68,0-1.24-.27-1.28-1h0a1.93,1.93,0,0,1-1.87,1.11c-1.22,0-2-.66-2-2.12A2.07,2.07,0,0,1,807.08,93l1.17-.32c.55-.16.88-.31.88-1s-.23-1.12-1-1.12c-1,0-1.15.71-1.15,1.44h-1.43c0-1.61.66-2.48,2.65-2.48,1.33,0,2.39.52,2.39,1.85Zm-1.43-2.41a13.18,13.18,0,0,1-1.68.7,1.23,1.23,0,0,0-.61,1.22c0,.63.31,1.13.94,1.13.91,0,1.35-.67,1.35-1.79Z" fill="#3b4351"/><path d="M815.35,91.92v-.2c0-.6-.21-1.16-1-1.16-.61,0-1.08.26-1.08,1s.26.83,1.06,1.11l1,.33A2,2,0,0,1,817,95.15c0,1.61-1.19,2.3-2.71,2.3-1.9,0-2.48-.88-2.48-2.34v-.28h1.35v.24c0,.88.29,1.34,1.18,1.34s1.23-.42,1.23-1.1a1.09,1.09,0,0,0-.83-1.11l-1.23-.43a2,2,0,0,1-1.61-2.18c0-1.41,1-2.07,2.58-2.07,1.91,0,2.35,1.12,2.35,2.06v.34Z" fill="#3b4351"/><path d="M823.15,94.51c-.11,1.81-.7,2.94-2.58,2.94-2.18,0-2.8-1.61-2.8-4s.62-4,2.8-4a2.44,2.44,0,0,1,2.59,2.71h-1.51c0-.7-.18-1.63-1.08-1.59-1.08,0-1.29,1.18-1.29,2.85s.21,2.84,1.29,2.84c.84,0,1.15-.69,1.15-1.82Z" fill="#3b4351"/><path d="M828.13,96.37h0a2.17,2.17,0,0,1-1.93,1.08c-1.12,0-1.88-.52-1.88-2.47V89.72h1.51v5.4c0,.85.37,1.13,1,1.13A1.18,1.18,0,0,0,828.05,95V89.72h1.51v7.53h-1.43Z" fill="#3b4351"/><path d="M834.26,91.92v-.2c0-.6-.21-1.16-1-1.16-.6,0-1.08.26-1.08,1s.27.83,1.07,1.11l1,.33a2,2,0,0,1,1.64,2.17c0,1.61-1.19,2.3-2.7,2.3-1.91,0-2.48-.88-2.48-2.34v-.28H832v.24c0,.88.3,1.34,1.18,1.34s1.23-.42,1.23-1.1a1.09,1.09,0,0,0-.82-1.11l-1.24-.43a2,2,0,0,1-1.61-2.18c0-1.41,1-2.07,2.58-2.07,1.92,0,2.35,1.12,2.35,2.06v.34Z" fill="#3b4351"/></g></g><g id="Egytians"><g id="small-2" data-name="small"><path d="M360.05,13.91v.21c0,1.8-.75,3.57-3.09,3.57-2.52,0-3.3-1.63-3.3-5.2s.78-5.2,3.32-5.2c2.84,0,3,2.09,3,3.14v.18h-1.6v-.16c0-.94-.28-2-1.43-1.95s-1.7.73-1.7,3.95.51,4,1.7,4c1.35,0,1.49-1.47,1.49-2.41v-.16Z" fill="#3b4351"/><path d="M361.13,7.49h1.52v10h-1.52Z" fill="#3b4351"/><path d="M363.88,13.72c0-2.35.62-4,2.8-4s2.82,1.61,2.82,4-.73,4-2.82,4S363.88,16.08,363.88,13.72Zm2.8,2.85c1.11,0,1.3-.93,1.3-2.85,0-1.66-.19-2.84-1.3-2.84s-1.29,1.18-1.29,2.84C365.39,15.64,365.6,16.57,366.68,16.57Z" fill="#3b4351"/><path d="M373.9,12.15V12c0-.6-.21-1.16-1-1.16-.6,0-1.08.26-1.08,1s.27.82,1.07,1.1l1,.34a2,2,0,0,1,1.64,2.17c0,1.61-1.19,2.3-2.7,2.3-1.91,0-2.48-.89-2.48-2.34v-.28h1.34v.24c0,.88.3,1.34,1.18,1.34s1.23-.42,1.23-1.11a1.09,1.09,0,0,0-.82-1.1L372,14a2,2,0,0,1-1.61-2.17c0-1.41,1-2.07,2.58-2.07,1.92,0,2.35,1.12,2.35,2.06v.33Z" fill="#3b4351"/><path d="M377.92,13.92v.43c0,1,.13,2.3,1.26,2.3s1.21-1.22,1.21-1.68h1.43a2.48,2.48,0,0,1-2.65,2.72c-1.24,0-2.76-.37-2.76-3.85,0-2,.43-4.08,2.79-4.08,2.1,0,2.66,1.27,2.66,3.36v.8Zm2.42-1v-.4c0-1-.3-1.68-1.16-1.68s-1.26.95-1.26,1.93v.15Z" fill="#3b4351"/><path d="M386.17,13.72c0-2.35.61-4,2.8-4s2.81,1.61,2.81,4-.73,4-2.81,4S386.17,16.08,386.17,13.72Zm2.8,2.85c1.1,0,1.3-.93,1.3-2.85,0-1.66-.2-2.84-1.3-2.84s-1.29,1.18-1.29,2.84C387.68,15.64,387.89,16.57,389,16.57Z" fill="#3b4351"/><path d="M393.4,11.08h-1V10h1V9.25c0-1.41.69-1.87,1.92-1.87a6.47,6.47,0,0,1,.83,0V8.58h-.42c-.56,0-.81.21-.81.72V10h1.23v1.12h-1.23v6.41H393.4Z" fill="#3b4351"/><path d="M399.52,10h1V7.81h1.51V10h1.23v1.12h-1.23v4.49c0,.6.17.8.69.8a2.7,2.7,0,0,0,.54,0v1.12a5,5,0,0,1-1.21.13c-1,0-1.53-.3-1.53-1.83V11.08h-1Z" fill="#3b4351"/><path d="M404.09,7.49h1.51v3.28l0,0a2.16,2.16,0,0,1,1.85-1c1.15,0,1.88.52,1.88,2v5.69h-1.52V12.32c0-1-.28-1.36-1.05-1.36-.61,0-1.2.48-1.2,1.47v5.06h-1.51Z" fill="#3b4351"/><path d="M412.12,13.92v.43c0,1,.13,2.3,1.26,2.3s1.21-1.22,1.21-1.68H416a2.48,2.48,0,0,1-2.65,2.72c-1.23,0-2.76-.37-2.76-3.85,0-2,.43-4.08,2.79-4.08,2.1,0,2.66,1.27,2.66,3.36v.8Zm2.43-1v-.4c0-1-.31-1.68-1.17-1.68s-1.26.95-1.26,1.93v.15Z" fill="#3b4351"/><path d="M420.69,7.49h1.6v10h-1.6Z" fill="#3b4351"/><path d="M423.84,10h1.43v.88h0a2.12,2.12,0,0,1,1.81-1.08,1.64,1.64,0,0,1,1.75,1.15,2,2,0,0,1,1.9-1.15c1.07,0,1.84.55,1.84,2v5.73H431.1V12.32c0-1-.3-1.36-.91-1.36s-1.21.48-1.21,1.47v5.06h-1.51V12.32c0-1-.3-1.36-.93-1.36s-1.19.49-1.19,1.47v5.06h-1.51Z" fill="#3b4351"/><path d="M437.38,17.69a1.74,1.74,0,0,1-1.71-1.08h0V20h-1.51V10h1.43v.92h0a1.78,1.78,0,0,1,1.69-1.12c1.72,0,2.42,1.47,2.42,4.06C439.7,17,438.43,17.69,437.38,17.69ZM436.83,11c-1,0-1.27,1-1.27,2.68,0,1.81.22,2.84,1.29,2.84.85,0,1.26-.64,1.26-2.73C438.11,12,437.9,11,436.83,11Z" fill="#3b4351"/><path d="M442.17,13.92v.43c0,1,.12,2.3,1.26,2.3s1.2-1.22,1.2-1.68h1.43a2.48,2.48,0,0,1-2.65,2.72c-1.23,0-2.76-.37-2.76-3.85,0-2,.44-4.08,2.79-4.08,2.1,0,2.66,1.27,2.66,3.36v.8Zm2.42-1v-.4c0-1-.31-1.68-1.16-1.68s-1.26.95-1.26,1.93v.15Z" fill="#3b4351"/><path d="M447.35,10h1.51v1.17h0a1.85,1.85,0,0,1,1.75-1.37.89.89,0,0,1,.36.05v1.55a1.83,1.83,0,0,0-.63-.09c-.69,0-1.51.31-1.51,1.71v4.51h-1.51Z" fill="#3b4351"/><path d="M451.83,7.38h1.51V8.89h-1.51Zm0,2.58h1.51v7.53h-1.51Z" fill="#3b4351"/><path d="M459.81,15.92c0,.28.17.53.39.53a.54.54,0,0,0,.25,0v1a1.58,1.58,0,0,1-.74.19c-.67,0-1.23-.27-1.28-1h0a2,2,0,0,1-1.88,1.11c-1.22,0-2-.66-2-2.12a2.06,2.06,0,0,1,1.75-2.36l1.18-.33c.54-.15.88-.31.88-1s-.24-1.12-1-1.12c-1,0-1.15.71-1.15,1.44h-1.42c0-1.61.65-2.48,2.64-2.48,1.33,0,2.4.52,2.4,1.85Zm-1.43-2.41a11.23,11.23,0,0,1-1.68.7,1.23,1.23,0,0,0-.62,1.22c0,.63.31,1.14.94,1.14.91,0,1.36-.68,1.36-1.8Z" fill="#3b4351"/><path d="M461.41,7.49h1.52v10h-1.52Z" fill="#3b4351"/><path d="M467.91,7.49h5.41V8.83h-3.81v2.78h3.58V13h-3.58v3.2h3.92v1.34h-5.52Z" fill="#3b4351"/><path d="M474.55,10h1.51v1.17h0a1.85,1.85,0,0,1,1.75-1.37.89.89,0,0,1,.36.05v1.55a1.83,1.83,0,0,0-.63-.09c-.68,0-1.51.31-1.51,1.71v4.51h-1.51Z" fill="#3b4351"/><path d="M483.82,15.92c0,.28.17.53.39.53a.54.54,0,0,0,.25,0v1a1.58,1.58,0,0,1-.74.19c-.67,0-1.23-.27-1.28-1h0a2,2,0,0,1-1.88,1.11c-1.22,0-2-.66-2-2.12a2.06,2.06,0,0,1,1.75-2.36l1.18-.33c.54-.15.88-.31.88-1s-.24-1.12-1-1.12c-1,0-1.15.71-1.15,1.44h-1.43c0-1.61.66-2.48,2.65-2.48,1.33,0,2.4.52,2.4,1.85Zm-1.43-2.41a11.23,11.23,0,0,1-1.68.7,1.23,1.23,0,0,0-.62,1.22c0,.63.31,1.14.94,1.14.91,0,1.36-.68,1.36-1.8Z" fill="#3b4351"/><path d="M493.66,15.92c0,.28.17.53.39.53a.54.54,0,0,0,.25,0v1a1.58,1.58,0,0,1-.74.19c-.67,0-1.23-.27-1.27-1h0a2,2,0,0,1-1.88,1.11c-1.22,0-2-.66-2-2.12a2.06,2.06,0,0,1,1.75-2.36l1.18-.33c.54-.15.88-.31.88-1s-.24-1.12-1-1.12c-1,0-1.15.71-1.15,1.44h-1.42c0-1.61.65-2.48,2.64-2.48,1.33,0,2.4.52,2.4,1.85Zm-1.43-2.41a11.23,11.23,0,0,1-1.68.7,1.23,1.23,0,0,0-.62,1.22c0,.63.31,1.14.94,1.14.91,0,1.36-.68,1.36-1.8Z" fill="#3b4351"/><path d="M495.2,10h1.42v.88h.05a2.17,2.17,0,0,1,1.93-1.08c1.15,0,1.88.52,1.88,2v5.69H499V12.32c0-1-.26-1.36-1-1.36-.61,0-1.2.47-1.2,1.47v5.06H495.2Z" fill="#3b4351"/><path d="M505.78,16.57h0a1.6,1.6,0,0,1-1.65,1.12c-1.75,0-2.46-1.49-2.46-4.07,0-3.34,1.17-3.86,2.32-3.86a1.74,1.74,0,0,1,1.71,1.08h0V7.49h1.51v10h-1.43ZM504.41,11c-.85,0-1.18.7-1.18,2.74,0,1.7.21,2.78,1.28,2.78s1.27-1.05,1.27-2.67C505.78,12,505.59,11,504.41,11Z" fill="#3b4351"/><path d="M512,10h1.52v1.17h0a1.87,1.87,0,0,1,1.76-1.37.89.89,0,0,1,.36.05v1.55a1.83,1.83,0,0,0-.63-.09c-.69,0-1.51.31-1.51,1.71v4.51H512Z" fill="#3b4351"/><path d="M521.29,15.92c0,.28.17.53.4.53a.57.57,0,0,0,.25,0v1a1.58,1.58,0,0,1-.74.19c-.68,0-1.24-.27-1.28-1h0A1.94,1.94,0,0,1,518,17.69c-1.22,0-2-.66-2-2.12a2.06,2.06,0,0,1,1.75-2.36l1.17-.33c.55-.15.89-.31.89-1s-.24-1.12-1-1.12c-1,0-1.15.71-1.15,1.44h-1.43c0-1.61.66-2.48,2.65-2.48,1.33,0,2.39.52,2.39,1.85Zm-1.42-2.41a10.92,10.92,0,0,1-1.69.7,1.24,1.24,0,0,0-.61,1.22c0,.63.31,1.14.94,1.14.91,0,1.36-.68,1.36-1.8Z" fill="#3b4351"/><path d="M526.08,17.69a1.74,1.74,0,0,1-1.71-1.08h0V20h-1.51V10h1.43v.92h0A1.78,1.78,0,0,1,526,9.76c1.73,0,2.43,1.47,2.43,4.06C528.41,17,527.13,17.69,526.08,17.69ZM525.53,11c-1,0-1.27,1-1.27,2.68,0,1.81.22,2.84,1.29,2.84.85,0,1.26-.64,1.26-2.73C526.81,12,526.6,11,525.53,11Z" fill="#3b4351"/><path d="M529.64,7.38h1.51V8.89h-1.51Zm0,2.58h1.51v7.53h-1.51Z" fill="#3b4351"/><path d="M536.53,16.57h0a1.62,1.62,0,0,1-1.66,1.12c-1.75,0-2.46-1.49-2.46-4.07,0-3.34,1.18-3.86,2.32-3.86a1.74,1.74,0,0,1,1.71,1.08h0V7.49H538v10h-1.42ZM535.15,11c-.85,0-1.17.7-1.17,2.74,0,1.7.21,2.78,1.27,2.78s1.28-1.05,1.28-2.67C536.53,12,536.33,11,535.15,11Z" fill="#3b4351"/><path d="M546.62,16.57h0a1.61,1.61,0,0,1-1.65,1.12c-1.75,0-2.47-1.49-2.47-4.07,0-3.34,1.18-3.86,2.33-3.86a1.75,1.75,0,0,1,1.71,1.08h0V7.49h1.51v10h-1.43ZM545.25,11c-.86,0-1.18.7-1.18,2.74,0,1.7.21,2.78,1.27,2.78s1.28-1.05,1.28-2.67C546.62,12,546.42,11,545.25,11Z" fill="#3b4351"/><path d="M550.8,13.92v.43c0,1,.13,2.3,1.26,2.3s1.21-1.22,1.21-1.68h1.43a2.48,2.48,0,0,1-2.65,2.72c-1.23,0-2.76-.37-2.76-3.85,0-2,.44-4.08,2.79-4.08,2.1,0,2.66,1.27,2.66,3.36v.8Zm2.43-1v-.4c0-1-.31-1.68-1.17-1.68s-1.26.95-1.26,1.93v.15Z" fill="#3b4351"/><path d="M561.07,14.75c-.11,1.8-.7,2.94-2.58,2.94-2.18,0-2.8-1.61-2.8-4s.62-4,2.8-4a2.43,2.43,0,0,1,2.59,2.7h-1.51c0-.7-.18-1.62-1.08-1.58-1.08,0-1.29,1.18-1.29,2.84s.21,2.85,1.29,2.85c.84,0,1.15-.69,1.15-1.82Z" fill="#3b4351"/><path d="M562.27,7.49h1.51v10h-1.51Z" fill="#3b4351"/><path d="M565.38,7.38h1.51V8.89h-1.51Zm0,2.58h1.51v7.53h-1.51Z" fill="#3b4351"/><path d="M568.41,10h1.43v.88h0a2.15,2.15,0,0,1,1.93-1.08c1.15,0,1.88.52,1.88,2v5.69h-1.52V12.32c0-1-.26-1.36-1-1.36-.61,0-1.2.47-1.2,1.47v5.06h-1.52Z" fill="#3b4351"/><path d="M576.45,13.92v.43c0,1,.13,2.3,1.26,2.3s1.21-1.22,1.21-1.68h1.43a2.48,2.48,0,0,1-2.65,2.72c-1.24,0-2.76-.37-2.76-3.85,0-2,.43-4.08,2.79-4.08,2.1,0,2.66,1.27,2.66,3.36v.8Zm2.42-1v-.4c0-1-.3-1.68-1.16-1.68s-1.26.95-1.26,1.93v.15Z" fill="#3b4351"/><path d="M585.06,7.38h1.51V8.89h-1.51Zm0,2.58h1.51v7.53h-1.51Z" fill="#3b4351"/><path d="M588.1,10h1.43v.88h0a2.17,2.17,0,0,1,1.93-1.08c1.15,0,1.88.52,1.88,2v5.69h-1.51V12.32c0-1-.27-1.36-1-1.36-.62,0-1.21.47-1.21,1.47v5.06H588.1Z" fill="#3b4351"/><path d="M599.66,7.49h2.05l2.63,10h-1.67L602.06,15h-2.93l-.64,2.45h-1.67Zm2.13,6.28-1.15-4.94h0l-1.19,4.94Z" fill="#3b4351"/><path d="M604.94,10h1.51v1.17h0a1.87,1.87,0,0,1,1.75-1.37.94.94,0,0,1,.37.05v1.55a1.91,1.91,0,0,0-.63-.09c-.69,0-1.52.31-1.52,1.71v4.51h-1.51Z" fill="#3b4351"/><path d="M608.68,10h1V7.81h1.52V10h1.23v1.12h-1.23v4.49c0,.6.16.8.68.8a2.75,2.75,0,0,0,.55,0v1.12a5.11,5.11,0,0,1-1.22.13c-1,0-1.53-.3-1.53-1.83V11.08h-1Z" fill="#3b4351"/><path d="M613.4,15.64H615v1.85H613.4Z" fill="#3b4351"/><path d="M335.33,31.49h5.4v1.34h-3.81v2.78h3.59V37h-3.59v3.2h3.92v1.34h-5.51Z" fill="#3b4351"/><path d="M343.47,42.14a1,1,0,0,0,1.1.89,1.24,1.24,0,0,0,1.27-1.41V40.4h0a1.82,1.82,0,0,1-1.71,1c-1.75,0-2.25-1.73-2.25-3.8,0-1.65.25-3.88,2.39-3.88a1.66,1.66,0,0,1,1.66,1.12h0V34h1.42v7.17c0,1.83-.78,2.94-2.81,2.94-2.24,0-2.49-1.32-2.49-1.93Zm1.07-1.91c1.18,0,1.3-1.48,1.3-2.67s-.15-2.6-1.2-2.6-1.28,1.12-1.28,2.52S343.42,40.23,344.54,40.23Z" fill="#3b4351"/><path d="M349.7,34,351,39.61h0L352.24,34h1.58l-2.07,7.81c-.6,2.06-1.07,2.34-2.63,2.3a3.15,3.15,0,0,1-.61-.06v-1.2a2.09,2.09,0,0,0,.49,0c.52,0,.86-.09,1-.58l.19-.62L348.08,34Z" fill="#3b4351"/><path d="M357.91,41.69a1.74,1.74,0,0,1-1.71-1.08h0V44h-1.51V34h1.43v.92h0a1.78,1.78,0,0,1,1.69-1.12c1.72,0,2.42,1.47,2.42,4.06C360.23,41,359,41.69,357.91,41.69ZM357.36,35c-1,0-1.27,1-1.27,2.68,0,1.81.22,2.84,1.29,2.84.85,0,1.26-.64,1.26-2.73C358.64,36,358.43,35,357.36,35Z" fill="#3b4351"/><path d="M360.72,34h1V31.81h1.51V34h1.23v1.12h-1.23v4.49c0,.6.17.8.69.8a2.7,2.7,0,0,0,.54,0v1.12a5.11,5.11,0,0,1-1.22.13c-1,0-1.52-.3-1.52-1.83V35.08h-1Z" fill="#3b4351"/><path d="M373.59,39.92c0,.28.17.53.39.53a.54.54,0,0,0,.25,0v1a1.55,1.55,0,0,1-.74.19c-.67,0-1.23-.27-1.27-1h0a2,2,0,0,1-1.88,1.11c-1.22,0-2-.66-2-2.12a2.06,2.06,0,0,1,1.75-2.36l1.18-.33c.54-.15.88-.31.88-1s-.24-1.12-1-1.12c-1,0-1.14.71-1.14,1.44h-1.43c0-1.61.65-2.48,2.64-2.48,1.33,0,2.4.52,2.4,1.85Zm-1.43-2.41a11.23,11.23,0,0,1-1.68.7,1.25,1.25,0,0,0-.62,1.22c0,.63.31,1.14.94,1.14.91,0,1.36-.68,1.36-1.8Z" fill="#3b4351"/><path d="M374.45,34h1V31.81H377V34h1.24v1.12H377v4.49c0,.6.17.8.69.8a2.81,2.81,0,0,0,.55,0v1.12a5.17,5.17,0,0,1-1.22.13c-1,0-1.53-.3-1.53-1.83V35.08h-1Z" fill="#3b4351"/><path d="M378.35,34h1V31.81h1.52V34h1.23v1.12H380.9v4.49c0,.6.16.8.68.8a2.75,2.75,0,0,0,.55,0v1.12a5.11,5.11,0,0,1-1.22.13c-1,0-1.53-.3-1.53-1.83V35.08h-1Z" fill="#3b4351"/><path d="M387.86,39.92c0,.28.16.53.39.53a.57.57,0,0,0,.25,0v1a1.58,1.58,0,0,1-.74.19c-.67,0-1.24-.27-1.28-1h0a1.94,1.94,0,0,1-1.87,1.11c-1.22,0-2-.66-2-2.12a2.06,2.06,0,0,1,1.75-2.36l1.17-.33c.55-.15.89-.31.89-1s-.24-1.12-1-1.12c-1,0-1.15.71-1.15,1.44h-1.43c0-1.61.66-2.48,2.65-2.48,1.33,0,2.4.52,2.4,1.85Zm-1.43-2.41a11.23,11.23,0,0,1-1.68.7,1.23,1.23,0,0,0-.62,1.22c0,.63.31,1.14.94,1.14.91,0,1.36-.68,1.36-1.8Z" fill="#3b4351"/><path d="M394.48,38.75c-.11,1.8-.7,2.94-2.58,2.94-2.18,0-2.8-1.61-2.8-4s.62-4,2.8-4a2.43,2.43,0,0,1,2.59,2.7H393c0-.7-.18-1.62-1.08-1.58-1.08,0-1.29,1.18-1.29,2.84s.21,2.85,1.29,2.85c.84,0,1.15-.69,1.15-1.82Z" fill="#3b4351"/><path d="M395.52,31.49H397v5.62h0L399.35,34l1.75,0-2.27,2.91,2.56,4.64h-1.65l-1.85-3.43-.85,1v2.39h-1.52Z" fill="#3b4351"/><path d="M403.23,37.92v.43c0,1,.12,2.3,1.26,2.3s1.2-1.22,1.2-1.68h1.43a2.48,2.48,0,0,1-2.65,2.72c-1.23,0-2.76-.37-2.76-3.85,0-2,.44-4.08,2.79-4.08,2.1,0,2.66,1.27,2.66,3.36v.8Zm2.42-1v-.4c0-1-.31-1.68-1.16-1.68s-1.26,1-1.26,1.93v.15Z" fill="#3b4351"/><path d="M412.26,40.57h0a1.61,1.61,0,0,1-1.65,1.12c-1.76,0-2.47-1.49-2.47-4.07,0-3.34,1.18-3.86,2.33-3.86a1.74,1.74,0,0,1,1.7,1.08h0V31.49h1.52v10h-1.43ZM410.88,35c-.85,0-1.17.7-1.17,2.74,0,1.7.21,2.78,1.27,2.78s1.28-1,1.28-2.67C412.26,36,412.06,35,410.88,35Z" fill="#3b4351"/><path d="M418.5,31.49H420v3.35h0a1.74,1.74,0,0,1,1.71-1.08c1.15,0,2.32.52,2.32,3.86,0,2.6-.71,4.07-2.46,4.07A1.62,1.62,0,0,1,420,40.57h0v.92H418.5Zm2.7,9c1.07,0,1.28-1.08,1.28-2.78,0-2-.33-2.74-1.18-2.74-1.18,0-1.37,1-1.37,2.85C419.93,39.43,420.17,40.48,421.2,40.48Z" fill="#3b4351"/><path d="M426.07,34l1.31,5.65h0L428.61,34h1.58l-2.07,7.81c-.6,2.06-1.07,2.34-2.64,2.3a3.05,3.05,0,0,1-.6-.06v-1.2a2,2,0,0,0,.49,0c.52,0,.86-.09,1-.58l.2-.62L424.45,34Z" fill="#3b4351"/><path d="M434.3,31.49h1.6v8.66h3.87v1.34H434.3Z" fill="#3b4351"/><path d="M441.09,34l1.31,5.65h0l1.2-5.65h1.58l-2.07,7.81c-.6,2.06-1.06,2.34-2.63,2.3a3.15,3.15,0,0,1-.61-.06v-1.2a2.09,2.09,0,0,0,.49,0c.52,0,.86-.09,1-.58l.19-.62L439.47,34Z" fill="#3b4351"/><path d="M446.05,31.49h1.51v3.35h0a1.74,1.74,0,0,1,1.71-1.08c1.15,0,2.32.52,2.32,3.86,0,2.6-.71,4.07-2.46,4.07a1.61,1.61,0,0,1-1.65-1.12h0v.92h-1.43Zm2.7,9c1.07,0,1.28-1.08,1.28-2.78,0-2-.32-2.74-1.18-2.74-1.17,0-1.37,1-1.37,2.85C447.48,39.43,447.72,40.48,448.75,40.48Z" fill="#3b4351"/><path d="M452.85,31.38h1.52v1.51h-1.52Zm0,2.58h1.52v7.53h-1.52Z" fill="#3b4351"/><path d="M460.84,39.92c0,.28.16.53.39.53a.57.57,0,0,0,.25,0v1a1.58,1.58,0,0,1-.74.19c-.67,0-1.23-.27-1.28-1h0a2,2,0,0,1-1.88,1.11c-1.22,0-2-.66-2-2.12a2.06,2.06,0,0,1,1.75-2.36l1.18-.33c.54-.15.88-.31.88-1s-.24-1.12-1-1.12c-1,0-1.15.71-1.15,1.44h-1.43c0-1.61.66-2.48,2.65-2.48,1.33,0,2.4.52,2.4,1.85Zm-1.43-2.41a11.23,11.23,0,0,1-1.68.7,1.23,1.23,0,0,0-.62,1.22c0,.63.31,1.14.94,1.14.91,0,1.36-.68,1.36-1.8Z" fill="#3b4351"/><path d="M462.37,34h1.43v.88h0a2.18,2.18,0,0,1,1.94-1.08c1.15,0,1.87.52,1.87,2v5.69h-1.51V36.32c0-1-.26-1.36-1.05-1.36-.61,0-1.2.47-1.2,1.47v5.06h-1.52Z" fill="#3b4351"/><path d="M472.36,36.15V36c0-.6-.21-1.16-1-1.16-.6,0-1.08.26-1.08,1s.27.82,1.07,1.1l1,.34A2,2,0,0,1,474,39.39c0,1.61-1.19,2.3-2.7,2.3-1.9,0-2.48-.89-2.48-2.34v-.28h1.35v.24c0,.88.29,1.34,1.17,1.34s1.24-.42,1.24-1.11a1.09,1.09,0,0,0-.83-1.1L470.47,38a2,2,0,0,1-1.61-2.17c0-1.41,1-2.07,2.57-2.07,1.92,0,2.36,1.12,2.36,2.06v.33Z" fill="#3b4351"/><path d="M483.38,39.92c0,.28.16.53.39.53a.57.57,0,0,0,.25,0v1a1.58,1.58,0,0,1-.74.19c-.67,0-1.23-.27-1.28-1h0a2,2,0,0,1-1.88,1.11c-1.22,0-2-.66-2-2.12a2.06,2.06,0,0,1,1.75-2.36l1.17-.33c.55-.15.89-.31.89-1s-.24-1.12-1-1.12c-1,0-1.15.71-1.15,1.44h-1.43c0-1.61.66-2.48,2.65-2.48,1.33,0,2.4.52,2.4,1.85ZM482,37.51a11.23,11.23,0,0,1-1.68.7,1.23,1.23,0,0,0-.62,1.22c0,.63.31,1.14.94,1.14.91,0,1.36-.68,1.36-1.8Z" fill="#3b4351"/><path d="M484.91,34h1.43v.88h0a2.18,2.18,0,0,1,1.94-1.08c1.15,0,1.87.52,1.87,2v5.69h-1.51V36.32c0-1-.26-1.36-1.05-1.36-.62,0-1.2.47-1.2,1.47v5.06h-1.52Z" fill="#3b4351"/><path d="M495.5,40.57h0a1.61,1.61,0,0,1-1.65,1.12c-1.75,0-2.47-1.49-2.47-4.07,0-3.34,1.18-3.86,2.33-3.86a1.75,1.75,0,0,1,1.71,1.08h0V31.49h1.51v10H495.5ZM494.13,35c-.86,0-1.18.7-1.18,2.74,0,1.7.21,2.78,1.27,2.78s1.28-1,1.28-2.67C495.5,36,495.3,35,494.13,35Z" fill="#3b4351"/><path d="M501.81,31.49h1.51v10h-1.51Z" fill="#3b4351"/><path d="M504.55,37.72c0-2.35.62-4,2.81-4s2.81,1.61,2.81,4-.73,4-2.81,4S504.55,40.08,504.55,37.72Zm2.81,2.85c1.1,0,1.3-.93,1.3-2.85,0-1.66-.2-2.84-1.3-2.84s-1.29,1.18-1.29,2.84C506.07,39.64,506.28,40.57,507.36,40.57Z" fill="#3b4351"/><path d="M514.58,36.15V36c0-.6-.21-1.16-1-1.16-.61,0-1.08.26-1.08,1s.26.82,1.06,1.1l1,.34a2,2,0,0,1,1.64,2.17c0,1.61-1.19,2.3-2.71,2.3-1.9,0-2.48-.89-2.48-2.34v-.28h1.35v.24c0,.88.29,1.34,1.18,1.34s1.23-.42,1.23-1.11a1.09,1.09,0,0,0-.83-1.1L512.69,38a2,2,0,0,1-1.61-2.17c0-1.41,1-2.07,2.58-2.07,1.92,0,2.35,1.12,2.35,2.06v.33Z" fill="#3b4351"/><path d="M518.6,37.92v.43c0,1,.12,2.3,1.26,2.3s1.2-1.22,1.2-1.68h1.43a2.48,2.48,0,0,1-2.65,2.72c-1.23,0-2.76-.37-2.76-3.85,0-2,.44-4.08,2.79-4.08,2.1,0,2.66,1.27,2.66,3.36v.8Zm2.42-1v-.4c0-1-.31-1.68-1.16-1.68s-1.26,1-1.26,1.93v.15Z" fill="#3b4351"/><path d="M527,36.15V36c0-.6-.21-1.16-1-1.16-.6,0-1.08.26-1.08,1s.27.82,1.07,1.1l1,.34a2,2,0,0,1,1.64,2.17c0,1.61-1.19,2.3-2.7,2.3-1.91,0-2.48-.89-2.48-2.34v-.28h1.35v.24c0,.88.29,1.34,1.17,1.34s1.23-.42,1.23-1.11a1.09,1.09,0,0,0-.82-1.1L525.14,38a2,2,0,0,1-1.62-2.17c0-1.41,1-2.07,2.58-2.07,1.92,0,2.35,1.12,2.35,2.06v.33Z" fill="#3b4351"/><path d="M533.1,31.49h1.51v3.28l0,0a2.13,2.13,0,0,1,1.84-1c1.15,0,1.88.52,1.88,2v5.69h-1.51V36.32c0-1-.28-1.36-1-1.36s-1.21.48-1.21,1.47v5.06H533.1Z" fill="#3b4351"/><path d="M539.54,37.72c0-2.35.62-4,2.8-4s2.82,1.61,2.82,4-.73,4-2.82,4S539.54,40.08,539.54,37.72Zm2.8,2.85c1.11,0,1.3-.93,1.3-2.85,0-1.66-.19-2.84-1.3-2.84s-1.29,1.18-1.29,2.84C541.05,39.64,541.26,40.57,542.34,40.57Z" fill="#3b4351"/><path d="M546.39,31.49h1.51v10h-1.51Z" fill="#3b4351"/><path d="M553.28,40.57h0a1.61,1.61,0,0,1-1.65,1.12c-1.76,0-2.47-1.49-2.47-4.07,0-3.34,1.18-3.86,2.32-3.86a1.74,1.74,0,0,1,1.71,1.08h0V31.49h1.51v10h-1.42ZM551.9,35c-.85,0-1.17.7-1.17,2.74,0,1.7.21,2.78,1.27,2.78s1.28-1,1.28-2.67C553.28,36,553.08,35,551.9,35Z" fill="#3b4351"/><path d="M559.22,37.72c0-2.35.62-4,2.81-4s2.81,1.61,2.81,4-.73,4-2.81,4S559.22,40.08,559.22,37.72ZM562,40.57c1.1,0,1.3-.93,1.3-2.85,0-1.66-.2-2.84-1.3-2.84s-1.29,1.18-1.29,2.84C560.74,39.64,561,40.57,562,40.57Z" fill="#3b4351"/><path d="M566,34h1.43v.88h0a2.17,2.17,0,0,1,1.93-1.08c1.15,0,1.88.52,1.88,2v5.69h-1.51V36.32c0-1-.27-1.36-1-1.36-.62,0-1.21.47-1.21,1.47v5.06H566Z" fill="#3b4351"/><path d="M576.19,31.49h3.17c1.92,0,2.76,1.2,2.76,2.91a2.72,2.72,0,0,1-2.93,3h-1.4v4.13h-1.6Zm1.6,4.66h1.13a1.5,1.5,0,0,0,1.6-1.72c0-1.08-.43-1.74-1.71-1.74h-1Z" fill="#3b4351"/><path d="M583.09,31.49h1.52v3.28l0,0a2.14,2.14,0,0,1,1.85-1c1.15,0,1.87.52,1.87,2v5.69h-1.51V36.32c0-1-.28-1.36-1.05-1.36-.62,0-1.2.48-1.2,1.47v5.06h-1.52Z" fill="#3b4351"/><path d="M589.53,37.72c0-2.35.62-4,2.8-4s2.82,1.61,2.82,4-.73,4-2.82,4S589.53,40.08,589.53,37.72Zm2.8,2.85c1.11,0,1.31-.93,1.31-2.85,0-1.66-.2-2.84-1.31-2.84s-1.28,1.18-1.28,2.84C591.05,39.64,591.26,40.57,592.33,40.57Z" fill="#3b4351"/><path d="M597.61,37.92v.43c0,1,.13,2.3,1.26,2.3s1.21-1.22,1.21-1.68h1.43a2.48,2.48,0,0,1-2.65,2.72c-1.23,0-2.76-.37-2.76-3.85,0-2,.43-4.08,2.79-4.08,2.1,0,2.66,1.27,2.66,3.36v.8Zm2.43-1v-.4c0-1-.31-1.68-1.17-1.68s-1.26,1-1.26,1.93v.15Z" fill="#3b4351"/><path d="M602.79,34h1.43v.88h0a2.17,2.17,0,0,1,1.94-1.08c1.14,0,1.87.52,1.87,2v5.69h-1.51V36.32c0-1-.27-1.36-1-1.36-.62,0-1.21.47-1.21,1.47v5.06h-1.51Z" fill="#3b4351"/><path d="M610.83,37.92v.43c0,1,.12,2.3,1.26,2.3s1.2-1.22,1.2-1.68h1.43a2.48,2.48,0,0,1-2.65,2.72c-1.23,0-2.76-.37-2.76-3.85,0-2,.44-4.08,2.79-4.08,2.1,0,2.66,1.27,2.66,3.36v.8Zm2.42-1v-.4c0-1-.31-1.68-1.16-1.68s-1.26,1-1.26,1.93v.15Z" fill="#3b4351"/><path d="M621.09,38.75c-.11,1.8-.7,2.94-2.58,2.94-2.18,0-2.8-1.61-2.8-4s.62-4,2.8-4a2.44,2.44,0,0,1,2.6,2.7h-1.52c0-.7-.18-1.62-1.08-1.58-1.07,0-1.28,1.18-1.28,2.84s.21,2.85,1.28,2.85c.84,0,1.15-.69,1.15-1.82Z" fill="#3b4351"/><path d="M622.29,31.38h1.52v1.51h-1.52Zm0,2.58h1.52v7.53h-1.52Z" fill="#3b4351"/><path d="M630.28,39.92c0,.28.16.53.39.53a.57.57,0,0,0,.25,0v1a1.58,1.58,0,0,1-.74.19c-.67,0-1.24-.27-1.28-1h0A1.94,1.94,0,0,1,627,41.69c-1.22,0-2-.66-2-2.12a2.06,2.06,0,0,1,1.75-2.36l1.17-.33c.55-.15.89-.31.89-1s-.24-1.12-1-1.12c-1,0-1.15.71-1.15,1.44h-1.43c0-1.61.66-2.48,2.65-2.48,1.33,0,2.4.52,2.4,1.85Zm-1.43-2.41a11.23,11.23,0,0,1-1.68.7,1.23,1.23,0,0,0-.62,1.22c0,.63.31,1.14.94,1.14.91,0,1.36-.68,1.36-1.8Z" fill="#3b4351"/><path d="M632,39.64h1.59v1.85H632Z" fill="#3b4351"/><path d="M354.05,55.49h3.16c1.92,0,2.76,1.2,2.76,2.91a2.71,2.71,0,0,1-2.92,3h-1.41v4.13h-1.59Zm1.59,4.66h1.14a1.5,1.5,0,0,0,1.6-1.72c0-1.08-.44-1.74-1.71-1.74h-1Z" fill="#3b4351"/><path d="M361,55.49h1.51v3.28l0,0a2.16,2.16,0,0,1,1.85-1c1.15,0,1.88.52,1.88,2v5.69h-1.51V60.32c0-1-.28-1.36-1.05-1.36s-1.21.48-1.21,1.47v5.06H361Z" fill="#3b4351"/><path d="M372.63,63.92c0,.28.17.53.39.53a.54.54,0,0,0,.25,0v1a1.58,1.58,0,0,1-.74.19c-.67,0-1.23-.27-1.27-1h0a2,2,0,0,1-1.88,1.11c-1.22,0-2-.66-2-2.12a2.06,2.06,0,0,1,1.75-2.36l1.18-.33c.54-.15.88-.31.88-1s-.24-1.12-1-1.12c-1,0-1.15.71-1.15,1.44h-1.42c0-1.61.65-2.48,2.64-2.48,1.33,0,2.4.52,2.4,1.85Zm-1.43-2.41a11.23,11.23,0,0,1-1.68.7,1.23,1.23,0,0,0-.62,1.22c0,.63.31,1.14.94,1.14.91,0,1.36-.68,1.36-1.8Z" fill="#3b4351"/><path d="M374.17,58h1.51v1.17h0a1.85,1.85,0,0,1,1.75-1.37.89.89,0,0,1,.36.05v1.55a1.83,1.83,0,0,0-.63-.09c-.69,0-1.51.31-1.51,1.71v4.51h-1.51Z" fill="#3b4351"/><path d="M378.28,61.72c0-2.35.62-4,2.8-4s2.82,1.61,2.82,4-.73,4-2.82,4S378.28,64.08,378.28,61.72Zm2.8,2.85c1.11,0,1.31-.93,1.31-2.85,0-1.66-.2-2.84-1.31-2.84s-1.29,1.18-1.29,2.84C379.79,63.64,380,64.57,381.08,64.57Z" fill="#3b4351"/><path d="M390,63.92c0,.28.17.53.39.53a.59.59,0,0,0,.26,0v1a1.62,1.62,0,0,1-.75.19c-.67,0-1.23-.27-1.27-1h0a2,2,0,0,1-1.88,1.11c-1.21,0-2-.66-2-2.12a2.07,2.07,0,0,1,1.75-2.36l1.18-.33c.55-.15.88-.31.88-1s-.24-1.12-1-1.12c-1,0-1.15.71-1.15,1.44H385c0-1.61.66-2.48,2.65-2.48,1.33,0,2.39.52,2.39,1.85Zm-1.43-2.41a11.23,11.23,0,0,1-1.68.7,1.24,1.24,0,0,0-.61,1.22c0,.63.3,1.14.93,1.14.91,0,1.36-.68,1.36-1.8Z" fill="#3b4351"/><path d="M391.54,55.49h1.51v3.28l0,0a2.16,2.16,0,0,1,1.85-1c1.15,0,1.88.52,1.88,2v5.69h-1.51V60.32c0-1-.28-1.36-1.05-1.36s-1.21.48-1.21,1.47v5.06h-1.51Z" fill="#3b4351"/><path d="M401.73,55.49h2.49L406,62.9h0l1.73-7.41h2.44v10h-1.51V57.17h0l-2,8.32h-1.34l-2-8.32h0v8.32h-1.51Z" fill="#3b4351"/><path d="M413,61.92v.43c0,1,.13,2.3,1.26,2.3s1.21-1.22,1.21-1.68h1.43a2.48,2.48,0,0,1-2.65,2.72c-1.23,0-2.76-.37-2.76-3.85,0-2,.43-4.08,2.79-4.08,2.1,0,2.66,1.27,2.66,3.36v.8Zm2.43-1v-.4c0-1-.31-1.68-1.17-1.68s-1.26,1-1.26,1.93v.15Z" fill="#3b4351"/><path d="M418.22,58h1.52v1.17h0a1.87,1.87,0,0,1,1.75-1.37.94.94,0,0,1,.37.05v1.55a1.87,1.87,0,0,0-.63-.09c-.69,0-1.51.31-1.51,1.71v4.51h-1.52Z" fill="#3b4351"/><path d="M422.77,58h1.43v.88h0a2.18,2.18,0,0,1,1.94-1.08c1.14,0,1.87.52,1.87,2v5.69h-1.51V60.32c0-1-.27-1.36-1.05-1.36-.62,0-1.2.47-1.2,1.47v5.06h-1.52Z" fill="#3b4351"/><path d="M430.81,61.92v.43c0,1,.12,2.3,1.26,2.3s1.2-1.22,1.2-1.68h1.43a2.48,2.48,0,0,1-2.64,2.72c-1.24,0-2.76-.37-2.76-3.85,0-2,.43-4.08,2.78-4.08,2.1,0,2.67,1.27,2.67,3.36v.8Zm2.42-1v-.4c0-1-.31-1.68-1.16-1.68s-1.26,1-1.26,1.93v.15Z" fill="#3b4351"/><path d="M439.24,65.69a1.74,1.74,0,0,1-1.71-1.08h0V68H436V58h1.43v.92h0a1.8,1.8,0,0,1,1.7-1.12c1.72,0,2.42,1.47,2.42,4.06C441.56,65,440.29,65.69,439.24,65.69ZM438.69,59c-1,0-1.27,1-1.27,2.68,0,1.81.22,2.84,1.29,2.84.85,0,1.26-.64,1.26-2.73C440,60,439.76,59,438.69,59Z" fill="#3b4351"/><path d="M442.05,58h1V55.81h1.51V58h1.23v1.12H444.6v4.49c0,.6.17.8.69.8a2.7,2.7,0,0,0,.54,0v1.12a5.11,5.11,0,0,1-1.22.13c-1,0-1.52-.3-1.52-1.83V59.08h-1Z" fill="#3b4351"/><path d="M451.56,63.92c0,.28.17.53.39.53a.54.54,0,0,0,.25,0v1a1.58,1.58,0,0,1-.74.19c-.67,0-1.23-.27-1.27-1h0a2,2,0,0,1-1.88,1.11c-1.22,0-2-.66-2-2.12a2.06,2.06,0,0,1,1.75-2.36l1.18-.33c.54-.15.88-.31.88-1s-.24-1.12-1-1.12c-1,0-1.15.71-1.15,1.44h-1.42c0-1.61.65-2.48,2.64-2.48,1.33,0,2.4.52,2.4,1.85Zm-1.43-2.41a11.23,11.23,0,0,1-1.68.7,1.25,1.25,0,0,0-.62,1.22c0,.63.31,1.14.94,1.14.91,0,1.36-.68,1.36-1.8Z" fill="#3b4351"/><path d="M453.1,55.49h1.51v3.28l0,0a2.15,2.15,0,0,1,1.85-1c1.15,0,1.88.52,1.88,2v5.69h-1.52V60.32c0-1-.28-1.36-1.05-1.36-.61,0-1.2.48-1.2,1.47v5.06H453.1Z" fill="#3b4351"/><path d="M460,63.64h1.6v1.85H460Z" fill="#3b4351"/><path d="M286.05,90.36h3.16c1.92,0,2.76,1.2,2.76,2.91a2.72,2.72,0,0,1-2.92,3h-1.41v4.13h-1.59ZM287.64,95h1.14a1.51,1.51,0,0,0,1.6-1.72c0-1.08-.44-1.74-1.71-1.74h-1Z" fill="#3b4351"/><path d="M293,90.36h1.51v3.27l0,0a2.15,2.15,0,0,1,1.85-1c1.15,0,1.88.51,1.88,2v5.69h-1.51V95.19c0-1-.28-1.36-1.05-1.36s-1.21.48-1.21,1.47v5.06H293Z" fill="#3b4351"/><path d="M304.63,98.79c0,.28.17.53.39.53a.54.54,0,0,0,.25,0v1a1.58,1.58,0,0,1-.74.18c-.67,0-1.23-.26-1.27-1h0a2,2,0,0,1-1.88,1.1c-1.22,0-2-.65-2-2.11a2.08,2.08,0,0,1,1.75-2.37l1.18-.32c.54-.15.88-.31.88-1s-.24-1.12-1-1.12c-1,0-1.15.72-1.15,1.44h-1.42c0-1.61.65-2.47,2.64-2.47,1.33,0,2.4.51,2.4,1.84Zm-1.43-2.41a11.23,11.23,0,0,1-1.68.7,1.23,1.23,0,0,0-.62,1.22c0,.63.31,1.13.94,1.13.91,0,1.36-.67,1.36-1.79Z" fill="#3b4351"/><path d="M306.17,92.82h1.51V94h0a1.85,1.85,0,0,1,1.75-1.37.89.89,0,0,1,.36.05v1.54a2.18,2.18,0,0,0-.63-.08c-.69,0-1.51.31-1.51,1.71v4.51h-1.51Z" fill="#3b4351"/><path d="M310.28,96.59c0-2.35.62-4,2.8-4s2.82,1.61,2.82,4-.73,4-2.82,4S310.28,98.94,310.28,96.59Zm2.8,2.84c1.11,0,1.31-.92,1.31-2.84,0-1.67-.2-2.84-1.31-2.84s-1.29,1.17-1.29,2.84C311.79,98.51,312,99.43,313.08,99.43Z" fill="#3b4351"/><path d="M322,98.79c0,.28.17.53.39.53a.59.59,0,0,0,.26,0v1a1.63,1.63,0,0,1-.75.18c-.67,0-1.23-.26-1.27-1h0a2,2,0,0,1-1.88,1.1c-1.21,0-2-.65-2-2.11a2.09,2.09,0,0,1,1.75-2.37l1.18-.32c.55-.15.88-.31.88-1s-.24-1.12-1-1.12c-1,0-1.15.72-1.15,1.44H317c0-1.61.66-2.47,2.65-2.47,1.33,0,2.39.51,2.39,1.84Zm-1.43-2.41a11.23,11.23,0,0,1-1.68.7,1.24,1.24,0,0,0-.61,1.22c0,.63.3,1.13.93,1.13.91,0,1.36-.67,1.36-1.79Z" fill="#3b4351"/><path d="M323.54,90.36h1.51v3.27l0,0a2.15,2.15,0,0,1,1.85-1c1.15,0,1.88.51,1.88,2v5.69h-1.51V95.19c0-1-.28-1.36-1.05-1.36s-1.21.48-1.21,1.47v5.06h-1.51Z" fill="#3b4351"/><path d="M335,97.26v.25c0,1.22.55,1.84,1.64,1.84a1.44,1.44,0,0,0,1.52-1.46,1.69,1.69,0,0,0-1.43-1.78l-1.1-.37A2.67,2.67,0,0,1,333.51,93c0-1.82,1.24-2.83,3.11-2.83,2.56,0,2.83,1.6,2.83,2.63V93h-1.6v-.21c0-.91-.39-1.44-1.4-1.44a1.27,1.27,0,0,0-1.35,1.44c0,.85.44,1.29,1.5,1.69l1.08.39a2.55,2.55,0,0,1,2,2.65c0,2.13-1.29,3-3.3,3a2.74,2.74,0,0,1-3-3v-.24Z" fill="#3b4351"/><path d="M341,90.24h1.51v1.52H341Zm0,2.58h1.51v7.54H341Z" fill="#3b4351"/><path d="M347.26,100.55a1.73,1.73,0,0,1-1.71-1.07h0v3.34H344v-10h1.43v.93h0a1.79,1.79,0,0,1,1.7-1.12c1.72,0,2.42,1.47,2.42,4.06C349.58,99.85,348.31,100.55,347.26,100.55Zm-.55-6.72c-1,0-1.27,1-1.27,2.68,0,1.8.22,2.84,1.28,2.84.86,0,1.26-.64,1.26-2.73C348,94.91,347.77,93.83,346.71,93.83Z" fill="#3b4351"/><path d="M350.07,92.82h1V90.68h1.52v2.14h1.23v1.12h-1.23v4.5c0,.6.17.8.68.8a3.78,3.78,0,0,0,.55,0v1.12a5.17,5.17,0,0,1-1.22.12c-1,0-1.53-.29-1.53-1.82V93.94h-1Z" fill="#3b4351"/><path d="M359.58,98.79c0,.28.17.53.39.53a.54.54,0,0,0,.25,0v1a1.58,1.58,0,0,1-.74.18c-.67,0-1.23-.26-1.28-1h0a2,2,0,0,1-1.88,1.1c-1.22,0-2-.65-2-2.11a2.08,2.08,0,0,1,1.75-2.37l1.18-.32c.54-.15.88-.31.88-1s-.24-1.12-1-1.12c-1,0-1.15.72-1.15,1.44h-1.43c0-1.61.66-2.47,2.65-2.47,1.33,0,2.4.51,2.4,1.84Zm-1.43-2.41a11.23,11.23,0,0,1-1.68.7,1.23,1.23,0,0,0-.62,1.22c0,.63.31,1.13.94,1.13.91,0,1.36-.67,1.36-1.79Z" fill="#3b4351"/><path d="M361.11,90.36h1.52v3.27l0,0a2.13,2.13,0,0,1,1.85-1c1.15,0,1.88.51,1.88,2v5.69h-1.52V95.19c0-1-.28-1.36-1.05-1.36-.61,0-1.2.48-1.2,1.47v5.06h-1.52Z" fill="#3b4351"/><path d="M368,98.51h1.6v1.85H368Z" fill="#3b4351"/><path d="M423.08,90.36h3.53a2.31,2.31,0,0,1,2.53,2.57c0,1.29-.56,2.29-1.66,2.46v0c1,.1,1.51.65,1.57,2,0,.66,0,1.43.05,2a1.1,1.1,0,0,0,.48.87h-1.81a1.7,1.7,0,0,1-.26-.88c0-.3-.05-.61-.05-.9s0-.63,0-1c0-1.09-.37-1.56-1.45-1.56h-1.3v4.34h-1.6ZM426,94.81a1.48,1.48,0,0,0,1.6-1.62c0-1.07-.45-1.63-1.52-1.63h-1.35v3.25Z" fill="#3b4351"/><path d="M430.57,90.24h1.51v1.52h-1.51Zm0,2.58h1.51v7.54h-1.51Z" fill="#3b4351"/><path d="M436.86,95v-.2c0-.6-.21-1.16-1-1.16-.6,0-1.08.27-1.08,1s.27.83,1.07,1.11l1,.34a2,2,0,0,1,1.64,2.17c0,1.61-1.19,2.29-2.7,2.29-1.91,0-2.48-.88-2.48-2.34v-.28h1.34v.24c0,.89.3,1.35,1.18,1.35S437,99.1,437,98.41a1.1,1.1,0,0,0-.82-1.11L435,96.87a2,2,0,0,1-1.61-2.17c0-1.42,1-2.07,2.58-2.07,1.92,0,2.35,1.12,2.35,2.06V95Z" fill="#3b4351"/><path d="M440.87,96.79v.43c0,1,.13,2.3,1.26,2.3s1.21-1.22,1.21-1.68h1.43a2.48,2.48,0,0,1-2.65,2.71c-1.23,0-2.76-.36-2.76-3.85,0-2,.43-4.07,2.79-4.07,2.1,0,2.66,1.27,2.66,3.36v.8Zm2.43-1v-.41c0-1-.31-1.68-1.17-1.68s-1.26,1-1.26,1.94v.15Z" fill="#3b4351"/><path d="M449.12,96.59c0-2.35.61-4,2.8-4s2.81,1.61,2.81,4-.72,4-2.81,4S449.12,98.94,449.12,96.59Zm2.8,2.84c1.11,0,1.3-.92,1.3-2.84,0-1.67-.19-2.84-1.3-2.84s-1.29,1.17-1.29,2.84C450.63,98.51,450.84,99.43,451.92,99.43Z" fill="#3b4351"/><path d="M456.36,93.94h-1.05V92.82h1.05v-.7c0-1.41.68-1.88,1.92-1.88a6.2,6.2,0,0,1,.82.05v1.16h-.42c-.56,0-.81.21-.81.71v.66h1.23v1.12h-1.23v6.42h-1.51Z" fill="#3b4351"/><path d="M462.47,92.82h1V90.68H465v2.14h1.24v1.12H465v4.5c0,.6.17.8.69.8a3.9,3.9,0,0,0,.55,0v1.12a5.23,5.23,0,0,1-1.22.12c-1,0-1.53-.29-1.53-1.82V93.94h-1Z" fill="#3b4351"/><path d="M467,90.36h1.51v3.27l0,0a2.15,2.15,0,0,1,1.85-1c1.15,0,1.88.51,1.88,2v5.69h-1.51V95.19c0-1-.28-1.36-1.05-1.36s-1.21.48-1.21,1.47v5.06H467Z" fill="#3b4351"/><path d="M475.07,96.79v.43c0,1,.13,2.3,1.27,2.3s1.2-1.22,1.2-1.68H479a2.48,2.48,0,0,1-2.65,2.71c-1.23,0-2.76-.36-2.76-3.85,0-2,.44-4.07,2.79-4.07,2.1,0,2.66,1.27,2.66,3.36v.8Zm2.43-1v-.41c0-1-.31-1.68-1.16-1.68s-1.27,1-1.27,1.94v.15Z" fill="#3b4351"/><path d="M483.71,90.36h3.17c1.92,0,2.76,1.2,2.76,2.91a2.72,2.72,0,0,1-2.93,3h-1.4v4.13h-1.6Zm1.6,4.66h1.13A1.5,1.5,0,0,0,488,93.3c0-1.08-.43-1.74-1.71-1.74h-1Z" fill="#3b4351"/><path d="M490.61,92.82h1.52V94h0a1.87,1.87,0,0,1,1.76-1.37.89.89,0,0,1,.36.05v1.54a2.18,2.18,0,0,0-.63-.08c-.69,0-1.51.31-1.51,1.71v4.51h-1.52Z" fill="#3b4351"/><path d="M495.09,90.24h1.52v1.52h-1.52Zm0,2.58h1.52v7.54h-1.52Z" fill="#3b4351"/><path d="M499.43,96.79v.43c0,1,.13,2.3,1.26,2.3s1.21-1.22,1.21-1.68h1.43a2.48,2.48,0,0,1-2.65,2.71c-1.23,0-2.76-.36-2.76-3.85,0-2,.44-4.07,2.79-4.07,2.1,0,2.66,1.27,2.66,3.36v.8Zm2.43-1v-.41c0-1-.31-1.68-1.17-1.68s-1.26,1-1.26,1.94v.15Z" fill="#3b4351"/><path d="M507.86,95v-.2c0-.6-.21-1.16-1-1.16-.6,0-1.08.27-1.08,1s.27.83,1.06,1.11l1,.34a2,2,0,0,1,1.64,2.17c0,1.61-1.19,2.29-2.7,2.29-1.91,0-2.48-.88-2.48-2.34v-.28h1.34v.24c0,.89.3,1.35,1.18,1.35S508,99.1,508,98.41a1.1,1.1,0,0,0-.83-1.11L506,96.87a2,2,0,0,1-1.61-2.17c0-1.42,1-2.07,2.58-2.07,1.92,0,2.35,1.12,2.35,2.06V95Z" fill="#3b4351"/><path d="M509.9,92.82h1V90.68h1.51v2.14h1.24v1.12h-1.24v4.5c0,.6.17.8.69.8a3.9,3.9,0,0,0,.55,0v1.12a5.23,5.23,0,0,1-1.22.12c-1,0-1.53-.29-1.53-1.82V93.94h-1Z" fill="#3b4351"/><path d="M514.47,90.36H516v3.27l0,0a2.15,2.15,0,0,1,1.85-1c1.15,0,1.88.51,1.88,2v5.69h-1.51V95.19c0-1-.28-1.36-1-1.36S516,94.31,516,95.3v5.06h-1.51Z" fill="#3b4351"/><path d="M520.91,96.59c0-2.35.62-4,2.8-4s2.82,1.61,2.82,4-.73,4-2.82,4S520.91,98.94,520.91,96.59Zm2.8,2.84c1.11,0,1.3-.92,1.3-2.84,0-1.67-.19-2.84-1.3-2.84s-1.29,1.17-1.29,2.84C522.42,98.51,522.63,99.43,523.71,99.43Z" fill="#3b4351"/><path d="M531.54,99.43h0a1.61,1.61,0,0,1-1.65,1.12c-1.76,0-2.47-1.48-2.47-4.06,0-3.35,1.18-3.86,2.33-3.86a1.73,1.73,0,0,1,1.7,1.07h0V90.36H533v10h-1.43Zm-1.38-5.6c-.85,0-1.17.7-1.17,2.73,0,1.71.21,2.79,1.27,2.79s1.28-1,1.28-2.68C531.54,94.87,531.34,93.83,530.16,93.83Z" fill="#3b4351"/></g></g><g id="Ageans"><g id="Title"><g id="small-3" data-name="small"><path d="M206,34.5h5.33v1.34h-3.74v2.78h3.52V40h-3.52V44.5H206Z" fill="#3b4351"/><path d="M217.36,42.93c0,.28.17.53.4.53a.57.57,0,0,0,.25,0v1a1.58,1.58,0,0,1-.74.18c-.68,0-1.24-.26-1.28-1h0a1.94,1.94,0,0,1-1.87,1.11c-1.22,0-2-.66-2-2.12a2.08,2.08,0,0,1,1.75-2.37l1.17-.32c.55-.15.89-.31.89-1s-.24-1.12-1-1.12c-1,0-1.15.72-1.15,1.45h-1.43c0-1.61.66-2.48,2.65-2.48,1.33,0,2.39.52,2.39,1.85Zm-1.42-2.41a11.23,11.23,0,0,1-1.68.7,1.23,1.23,0,0,0-.62,1.22c0,.63.31,1.14.94,1.14.91,0,1.36-.68,1.36-1.8Z" fill="#3b4351"/><path d="M219,34.5h1.51v10H219Z" fill="#3b4351"/><path d="M222.08,34.5h1.51v10h-1.51Z" fill="#3b4351"/><path d="M228.18,40.73c0-2.35.62-4,2.81-4s2.81,1.61,2.81,4-.73,4-2.81,4S228.18,43.09,228.18,40.73ZM231,43.58c1.1,0,1.3-.93,1.3-2.85,0-1.67-.2-2.84-1.3-2.84s-1.29,1.17-1.29,2.84C229.7,42.65,229.91,43.58,231,43.58Z" fill="#3b4351"/><path d="M235.42,38.08h-1V37h1v-.7c0-1.41.69-1.87,1.92-1.87a6.67,6.67,0,0,1,.83,0v1.16h-.42c-.56,0-.82.21-.82.72V37h1.24v1.12h-1.24V44.5h-1.51Z" fill="#3b4351"/><path d="M211.86,60.84h-2.38V59.5h6.32v1.34h-2.34V69.5h-1.6Z" fill="#3b4351"/><path d="M215.57,62h1.51v1.18h0a1.87,1.87,0,0,1,1.75-1.37.94.94,0,0,1,.37,0v1.54a2.3,2.3,0,0,0-.63-.08c-.69,0-1.52.31-1.52,1.71V69.5h-1.51Z" fill="#3b4351"/><path d="M219.69,65.73c0-2.35.61-4,2.8-4s2.81,1.61,2.81,4-.73,4-2.81,4S219.69,68.09,219.69,65.73Zm2.8,2.85c1.1,0,1.3-.93,1.3-2.85,0-1.67-.2-2.84-1.3-2.84s-1.29,1.17-1.29,2.84C221.2,67.65,221.41,68.58,222.49,68.58Z" fill="#3b4351"/><path d="M227.39,62l1.3,5.66h0l1.2-5.66h1.58l-2.07,7.82c-.6,2.06-1.06,2.34-2.63,2.3a3.05,3.05,0,0,1-.6-.06v-1.2a2,2,0,0,0,.49.05c.51,0,.85-.1,1-.59l.19-.61L225.76,62Z" fill="#3b4351"/><path d="M231.46,67.65h1.6V69.5h-1.6Z" fill="#3b4351"/></g></g></g></g></svg>