<svg xmlns="http://www.w3.org/2000/svg" viewBox="0 0 1847.91 112"><title>bc1250text</title><g id="YEARS"><g id="Right"><path d="M1787.21,105.13V91.76h-3.82V89.84h.29c1.77,0,3.79-.45,4.34-2.76v-.36h2.16v18.41Z"/><path d="M1805.93,105.13h-10.76c0-8,7.72-7.83,7.72-13.55,0-1.54-.65-2.78-2.29-2.78-2.21,0-2.57,2-2.57,3.84h-2.81c0-3.64,1.51-5.92,5.43-5.92,3.75,0,5.21,2.23,5.21,4.91,0,6.11-6,6.47-7.39,11h7.46Z"/><path d="M1807.62,100.16h2.81v.49a2.35,2.35,0,0,0,2.42,2.6c2.08,0,2.63-2,2.63-4.18s-.58-3.93-2.48-3.93a2.35,2.35,0,0,0-2.41,1.69l-2.63-.1.91-9.65h8.87v2.37h-6.66l-.6,4.83,0,0a4.11,4.11,0,0,1,3.1-1.43c3.85,0,4.81,3.26,4.81,6.09,0,3.69-1.69,6.5-5.67,6.5-3.3,0-5.15-1.69-5.15-4.94Z"/><path d="M1825.51,86.72c3.54,0,5.51,2.21,5.51,9.38s-2,9.39-5.51,9.39-5.51-2.21-5.51-9.39S1822,86.72,1825.51,86.72Zm0,16.69c2,0,2.55-2,2.55-7.31s-.55-7.3-2.55-7.3-2.55,2-2.55,7.3S1823.51,103.41,1825.51,103.41Z"/></g><g id="left"><path d="M17.46,108.72V95.36H13.64V93.44h.29c1.77,0,3.79-.45,4.34-2.76v-.36h2.16v18.4Z"/><path d="M36.18,108.72H25.42c0-8,7.72-7.82,7.72-13.54,0-1.54-.65-2.78-2.29-2.78-2.21,0-2.57,2-2.57,3.84H25.47c0-3.64,1.51-5.92,5.44-5.92,3.74,0,5.2,2.23,5.2,4.91,0,6.11-6,6.47-7.39,11h7.46Z"/><path d="M37.87,103.76h2.81v.49a2.35,2.35,0,0,0,2.42,2.6c2.08,0,2.63-2,2.63-4.18s-.58-3.93-2.48-3.93a2.35,2.35,0,0,0-2.41,1.69l-2.63-.1.91-9.65H48v2.37H41.33l-.6,4.83.06.05a4,4,0,0,1,3.09-1.43c3.85,0,4.81,3.25,4.81,6.09,0,3.69-1.69,6.5-5.67,6.5-3.3,0-5.15-1.69-5.15-4.94Z"/><path d="M55.76,90.32c3.54,0,5.51,2.21,5.51,9.38s-2,9.39-5.51,9.39-5.51-2.21-5.51-9.39S52.22,90.32,55.76,90.32Zm0,16.69c2,0,2.55-2,2.55-7.31s-.55-7.3-2.55-7.3-2.55,2-2.55,7.3S53.76,107,55.76,107Z"/></g></g><g id="Text"><g id="Hittites"><path d="M831.66,56h2.79v7h5.15V56h2.79V73.49H839.6V65.36h-5.15v8.13h-2.79Z"/><path d="M845.16,56H848V73.49h-2.79Z"/><path d="M853.58,58.35h-4.16V56h11.05v2.35h-4.09V73.49h-2.8Z"/><path d="M864.93,58.35h-4.17V56h11v2.35h-4.09V73.49h-2.79Z"/><path d="M873.28,56h2.79V73.49h-2.79Z"/><path d="M881.71,58.35h-4.17V56H888.6v2.35h-4.1V73.49h-2.79Z"/><path d="M890.18,56h9.46v2.35H893V63.2h6.27v2.35H893v5.59h6.86v2.35h-9.66Z"/><path d="M904.13,68.08v.44c0,2.13,1,3.21,2.86,3.21a2.51,2.51,0,0,0,2.65-2.55c0-1.84-.93-2.65-2.5-3.11l-1.91-.66c-2.55-1-3.65-2.31-3.65-4.81,0-3.18,2.18-5,5.44-5,4.48,0,5,2.8,5,4.61v.39h-2.8v-.37c0-1.59-.68-2.52-2.45-2.52a2.23,2.23,0,0,0-2.35,2.52c0,1.5.76,2.26,2.62,3l1.89.69c2.47.88,3.55,2.2,3.55,4.63,0,3.72-2.25,5.27-5.78,5.27-4.34,0-5.32-2.9-5.32-5.35v-.41Z"/></g><g id="Ageans"><g id="Title"><g id="small-2" data-name="small"><path d="M186.73,16.23c0-2.35.62-4,2.8-4s2.82,1.61,2.82,4-.73,4-2.82,4S186.73,18.59,186.73,16.23Zm2.8,2.85c1.11,0,1.3-.93,1.3-2.85,0-1.67-.19-2.84-1.3-2.84s-1.29,1.17-1.29,2.84C188.24,18.15,188.45,19.08,189.53,19.08Z"/><path d="M194,13.58h-1.05V12.46H194v-.7c0-1.41.68-1.87,1.92-1.87a6.4,6.4,0,0,1,.82,0v1.16h-.42c-.56,0-.81.21-.81.72v.65h1.23v1.12h-1.23V20H194Z"/><path d="M205.8,18.84h0a2.07,2.07,0,0,1-2.18,1.36c-2.19,0-3-1.63-3-5.2s1-5.2,3.32-5.2a2.73,2.73,0,0,1,2.93,2.89v.18h-1.52v-.24c0-.74-.31-1.62-1.4-1.62s-1.74.75-1.74,4,.54,4,1.62,4,1.66-.87,1.66-3h-1.68V14.73H207V20H205.8Z"/><path d="M213.22,18.43c0,.28.17.53.39.53a.54.54,0,0,0,.25,0v1a1.55,1.55,0,0,1-.74.18c-.67,0-1.23-.26-1.27-1h0a2,2,0,0,1-1.88,1.11c-1.22,0-2-.66-2-2.12a2.08,2.08,0,0,1,1.75-2.37l1.18-.32c.55-.15.88-.31.88-1s-.24-1.12-1-1.12c-1,0-1.14.72-1.14,1.45h-1.43c0-1.61.66-2.48,2.65-2.48,1.33,0,2.39.52,2.39,1.85ZM211.79,16a11.23,11.23,0,0,1-1.68.7,1.25,1.25,0,0,0-.62,1.22c0,.63.31,1.14.94,1.14.91,0,1.36-.68,1.36-1.8Z"/><path d="M214.38,18.82l3.29-5.08h-3.09V12.46h4.8v1.25l-3.17,5h3.17V20h-5Z"/><path d="M225.4,18.43c0,.28.17.53.39.53a.54.54,0,0,0,.25,0v1a1.55,1.55,0,0,1-.74.18c-.67,0-1.23-.26-1.27-1h0a2,2,0,0,1-1.88,1.11c-1.22,0-2-.66-2-2.12a2.08,2.08,0,0,1,1.75-2.37l1.18-.32c.55-.15.88-.31.88-1s-.24-1.12-1-1.12c-1,0-1.14.72-1.14,1.45h-1.43c0-1.61.66-2.48,2.65-2.48,1.33,0,2.39.52,2.39,1.85ZM224,16a11.23,11.23,0,0,1-1.68.7,1.25,1.25,0,0,0-.62,1.22c0,.63.31,1.14.94,1.14.91,0,1.36-.68,1.36-1.8Z"/><path d="M227.09,18.15h1.6V20a1.88,1.88,0,0,1-1.6,2.16v-.82c.44-.11.7-.51.7-1.13V20h-.7Z"/><path d="M238.18,18.84h0A2.06,2.06,0,0,1,236,20.2c-2.19,0-3-1.63-3-5.2s1-5.2,3.32-5.2a2.73,2.73,0,0,1,2.93,2.89v.18h-1.52v-.24c0-.74-.3-1.62-1.4-1.62s-1.73.75-1.73,4,.53,4,1.61,4,1.66-.87,1.66-3h-1.68V14.73h3.2V20h-1.21Z"/><path d="M245.6,18.43c0,.28.17.53.39.53a.59.59,0,0,0,.26,0v1a1.63,1.63,0,0,1-.75.18c-.67,0-1.23-.26-1.27-1h0a2,2,0,0,1-1.88,1.11c-1.21,0-2-.66-2-2.12a2.09,2.09,0,0,1,1.75-2.37l1.18-.32c.55-.15.88-.31.88-1s-.23-1.12-1-1.12c-1,0-1.15.72-1.15,1.45h-1.43c0-1.61.66-2.48,2.65-2.48,1.33,0,2.39.52,2.39,1.85ZM244.17,16a11.23,11.23,0,0,1-1.68.7,1.24,1.24,0,0,0-.61,1.22c0,.63.3,1.14.93,1.14.92,0,1.36-.68,1.36-1.8Z"/><path d="M246.47,12.46h1V10.32H249v2.14h1.23v1.12H249v4.5c0,.6.16.8.68.8a2.75,2.75,0,0,0,.55,0V20a5.17,5.17,0,0,1-1.22.12c-1,0-1.53-.29-1.53-1.82V13.58h-1Z"/><path d="M251,10h1.51v3.28l.05,0a2.15,2.15,0,0,1,1.85-1c1.14,0,1.87.52,1.87,2V20H254.8V14.83c0-1-.28-1.36-1.05-1.36-.62,0-1.21.48-1.21,1.47V20H251Z"/><path d="M182.82,44.43c0,.28.17.53.39.53a.54.54,0,0,0,.25,0v1a1.55,1.55,0,0,1-.74.18c-.67,0-1.23-.26-1.27-1h0a2,2,0,0,1-1.88,1.11c-1.22,0-2-.66-2-2.12a2.08,2.08,0,0,1,1.75-2.37l1.18-.32c.55-.15.88-.31.88-1s-.24-1.12-1-1.12c-1,0-1.14.72-1.14,1.45h-1.43c0-1.61.66-2.48,2.65-2.48,1.33,0,2.39.52,2.39,1.85ZM181.39,42a11.23,11.23,0,0,1-1.68.7,1.25,1.25,0,0,0-.62,1.22c0,.63.31,1.14.94,1.14.91,0,1.36-.68,1.36-1.8Z"/><path d="M184.36,38.46h1.43v.89h0a2.15,2.15,0,0,1,1.93-1.08c1.15,0,1.88.52,1.88,2V46h-1.51V40.83c0-1-.27-1.36-1-1.36-.62,0-1.21.46-1.21,1.47V46h-1.51Z"/><path d="M194.94,45.08h0a1.62,1.62,0,0,1-1.66,1.12c-1.75,0-2.46-1.49-2.46-4.07,0-3.34,1.17-3.86,2.32-3.86a1.73,1.73,0,0,1,1.71,1.08h0V36h1.51V46h-1.43Zm-1.37-5.61c-.85,0-1.18.7-1.18,2.73,0,1.71.21,2.79,1.28,2.79s1.27-1.05,1.27-2.67C194.94,40.51,194.75,39.47,193.57,39.47Z"/><path d="M202.19,43v.49c0,.81.17,1.51,1.07,1.51,1.06,0,1.06-1,1.06-2V36h1.6v7.24c0,2.21-1.09,3-2.69,3-2.06,0-2.51-1.26-2.55-2.57V43Z"/><path d="M207.11,42.23c0-2.35.61-4,2.8-4s2.81,1.61,2.81,4-.72,4-2.81,4S207.11,44.59,207.11,42.23Zm2.8,2.85c1.11,0,1.3-.93,1.3-2.85,0-1.67-.19-2.84-1.3-2.84s-1.29,1.17-1.29,2.84C208.62,44.15,208.83,45.08,209.91,45.08Z"/><path d="M217.13,46.2a1.74,1.74,0,0,1-1.71-1.08h0v3.35h-1.52v-10h1.43v.93h0A1.78,1.78,0,0,1,217,38.27c1.73,0,2.43,1.47,2.43,4.06C219.46,45.5,218.18,46.2,217.13,46.2Zm-.54-6.73c-1,0-1.28,1.05-1.28,2.68,0,1.81.23,2.84,1.29,2.84.85,0,1.26-.64,1.26-2.73C217.86,40.55,217.65,39.47,216.59,39.47Z"/><path d="M223.87,46.2a1.74,1.74,0,0,1-1.71-1.08h0v3.35h-1.51v-10h1.43v.93h0a1.8,1.8,0,0,1,1.7-1.12c1.72,0,2.42,1.47,2.42,4.06C226.19,45.5,224.92,46.2,223.87,46.2Zm-.55-6.73c-1,0-1.27,1.05-1.27,2.68,0,1.81.22,2.84,1.28,2.84.86,0,1.27-.64,1.27-2.73C224.6,40.55,224.39,39.47,223.32,39.47Z"/><path d="M232.3,44.43c0,.28.16.53.39.53a.57.57,0,0,0,.25,0v1a1.58,1.58,0,0,1-.74.18c-.67,0-1.24-.26-1.28-1h0A1.94,1.94,0,0,1,229,46.2c-1.22,0-2-.66-2-2.12a2.08,2.08,0,0,1,1.75-2.37l1.17-.32c.55-.15.89-.31.89-1s-.24-1.12-1-1.12c-1,0-1.15.72-1.15,1.45h-1.43c0-1.61.66-2.48,2.65-2.48,1.33,0,2.4.52,2.4,1.85ZM230.87,42a11.23,11.23,0,0,1-1.68.7,1.23,1.23,0,0,0-.62,1.22c0,.63.31,1.14.94,1.14.91,0,1.36-.68,1.36-1.8Z"/><path d="M234,44.15h1.59V46c0,1.12-.36,1.92-1.59,2.16v-.82a1,1,0,0,0,.7-1.13V46H234Z"/><path d="M239.52,38.46h1.56l1.06,5.94h0l1.12-5.94H245l1.12,5.94h0l1-5.94h1.51L247,46h-1.7l-1.17-5.86h0L243,46h-1.76Z"/><path d="M250.93,42.43v.43c0,1,.12,2.3,1.26,2.3s1.2-1.22,1.2-1.68h1.43a2.48,2.48,0,0,1-2.65,2.72c-1.23,0-2.76-.37-2.76-3.86,0-2,.44-4.07,2.79-4.07,2.1,0,2.66,1.27,2.66,3.36v.8Zm2.42-1V41c0-1-.31-1.69-1.16-1.69s-1.26,1-1.26,1.94v.15Z"/><path d="M256.11,38.46h1.51v1.18h0a1.85,1.85,0,0,1,1.75-1.37.89.89,0,0,1,.36,0v1.54a2.18,2.18,0,0,0-.63-.08c-.68,0-1.51.31-1.51,1.71V46h-1.51Z"/><path d="M261.74,42.43v.43c0,1,.12,2.3,1.26,2.3s1.2-1.22,1.2-1.68h1.43A2.48,2.48,0,0,1,263,46.2c-1.23,0-2.76-.37-2.76-3.86,0-2,.44-4.07,2.79-4.07,2.1,0,2.66,1.27,2.66,3.36v.8Zm2.42-1V41c0-1-.31-1.69-1.16-1.69s-1.26,1-1.26,1.94v.15Z"/><path d="M177.48,72.2a1.74,1.74,0,0,1-1.71-1.08h0v3.35h-1.51v-10h1.43v.93h0a1.78,1.78,0,0,1,1.69-1.12c1.72,0,2.42,1.47,2.42,4.06C179.8,71.5,178.53,72.2,177.48,72.2Zm-.55-6.73c-1,0-1.27,1-1.27,2.68,0,1.81.22,2.84,1.29,2.84.85,0,1.26-.64,1.26-2.73C178.21,66.55,178,65.47,176.93,65.47Z"/><path d="M180.67,68.23c0-2.35.62-4,2.8-4s2.82,1.61,2.82,4-.73,4-2.82,4S180.67,70.59,180.67,68.23Zm2.8,2.85c1.11,0,1.3-.93,1.3-2.85,0-1.67-.19-2.84-1.3-2.84s-1.29,1.17-1.29,2.84C182.18,70.15,182.39,71.08,183.47,71.08Z"/><path d="M190.69,66.66v-.19c0-.61-.21-1.17-1-1.17-.6,0-1.08.27-1.08,1s.27.82,1.07,1.1l1,.34a2,2,0,0,1,1.64,2.17c0,1.61-1.19,2.3-2.7,2.3-1.91,0-2.48-.89-2.48-2.34v-.28h1.34v.23c0,.89.3,1.35,1.18,1.35s1.23-.42,1.23-1.11A1.09,1.09,0,0,0,190,69l-1.24-.44a2,2,0,0,1-1.61-2.17c0-1.41,1-2.07,2.58-2.07,1.92,0,2.35,1.12,2.35,2.06v.33Z"/><path d="M196.66,66.66v-.19c0-.61-.21-1.17-1-1.17-.6,0-1.07.27-1.07,1s.26.82,1.06,1.1l1,.34a2,2,0,0,1,1.64,2.17c0,1.61-1.2,2.3-2.71,2.3-1.9,0-2.48-.89-2.48-2.34v-.28h1.35v.23c0,.89.29,1.35,1.17,1.35s1.24-.42,1.24-1.11A1.09,1.09,0,0,0,196,69l-1.23-.44a2,2,0,0,1-1.61-2.17c0-1.41,1-2.07,2.57-2.07,1.92,0,2.36,1.12,2.36,2.06v.33Z"/><path d="M199.44,61.89H201V63.4h-1.51Zm0,2.57H201V72h-1.51Z"/><path d="M202.48,62H204v3.35h0a1.73,1.73,0,0,1,1.71-1.08c1.15,0,2.33.52,2.33,3.86,0,2.6-.72,4.07-2.47,4.07a1.61,1.61,0,0,1-1.65-1.12h0V72h-1.43Zm2.7,9c1.07,0,1.28-1.08,1.28-2.79,0-2-.32-2.73-1.18-2.73-1.18,0-1.37,1-1.37,2.85C203.91,69.94,204.15,71,205.18,71Z"/><path d="M209.28,62h1.52V72h-1.52Z"/><path d="M213.33,64.46l1.3,5.66h0l1.21-5.66h1.58l-2.07,7.82c-.61,2.06-1.07,2.34-2.64,2.3a3.05,3.05,0,0,1-.6-.06v-1.2a2,2,0,0,0,.49.05c.52,0,.85-.1,1-.59l.2-.61-2.14-7.71Z"/><path d="M221.35,68.23c0-2.35.62-4,2.8-4s2.82,1.61,2.82,4-.73,4-2.82,4S221.35,70.59,221.35,68.23Zm2.8,2.85c1.11,0,1.31-.93,1.31-2.85,0-1.67-.2-2.84-1.31-2.84s-1.29,1.17-1.29,2.84C222.86,70.15,223.07,71.08,224.15,71.08Z"/><path d="M228.59,65.58h-1.05V64.46h1.05v-.7c0-1.41.69-1.87,1.92-1.87a6.67,6.67,0,0,1,.83,0v1.16h-.42c-.57,0-.82.21-.82.72v.65h1.24v1.12H230.1V72h-1.51Z"/><path d="M241.63,68.41v.21c0,1.81-.75,3.58-3.08,3.58-2.53,0-3.31-1.63-3.31-5.2s.78-5.2,3.32-5.2c2.84,0,3,2.09,3,3.14v.18H240V65c0-.93-.28-2-1.42-1.94s-1.71.73-1.71,3.95.51,4,1.71,4S240,69.52,240,68.58v-.17Z"/><path d="M242.65,64.46h1.51v1.18h0a1.85,1.85,0,0,1,1.75-1.37.89.89,0,0,1,.36,0v1.54a2.18,2.18,0,0,0-.63-.08c-.69,0-1.51.31-1.51,1.71V72h-1.51Z"/><path d="M248.27,68.43v.43c0,1,.13,2.3,1.27,2.3s1.2-1.22,1.2-1.68h1.43a2.48,2.48,0,0,1-2.65,2.72c-1.23,0-2.76-.37-2.76-3.86,0-2,.44-4.07,2.79-4.07,2.1,0,2.66,1.27,2.66,3.36v.8Zm2.43-1V67c0-1-.31-1.69-1.16-1.69s-1.27,1-1.27,1.94v.15Z"/><path d="M252.78,64.46h1V62.32h1.51v2.14h1.23v1.12h-1.23v4.5c0,.6.17.8.69.8a2.7,2.7,0,0,0,.54,0V72a5.17,5.17,0,0,1-1.22.12c-1,0-1.52-.29-1.52-1.82V65.58h-1Z"/><path d="M262.29,70.43c0,.28.17.53.39.53a.54.54,0,0,0,.25,0v1a1.55,1.55,0,0,1-.74.18c-.67,0-1.23-.26-1.27-1h0A2,2,0,0,1,259,72.2c-1.22,0-2-.66-2-2.12a2.08,2.08,0,0,1,1.75-2.37l1.18-.32c.54-.15.88-.31.88-1s-.24-1.12-1-1.12c-1,0-1.14.72-1.14,1.45h-1.43c0-1.61.66-2.48,2.64-2.48,1.34,0,2.4.52,2.4,1.85ZM260.86,68a11.23,11.23,0,0,1-1.68.7,1.25,1.25,0,0,0-.62,1.22c0,.63.31,1.14.94,1.14.91,0,1.36-.68,1.36-1.8Z"/><path d="M263.83,64.46h1.43v.89h0a2.15,2.15,0,0,1,1.93-1.08c1.15,0,1.88.52,1.88,2V72H267.6V66.83c0-1-.27-1.36-1.06-1.36-.61,0-1.2.46-1.2,1.47V72h-1.51Z"/><path d="M206.81,94.23c0-2.35.62-4,2.8-4s2.82,1.61,2.82,4-.73,4-2.82,4S206.81,96.59,206.81,94.23Zm2.8,2.85c1.11,0,1.31-.93,1.31-2.85,0-1.67-.2-2.84-1.31-2.84s-1.28,1.17-1.28,2.84C208.33,96.15,208.54,97.08,209.61,97.08Z"/><path d="M213.59,90.46h1.51v1.18h0a1.87,1.87,0,0,1,1.75-1.37.94.94,0,0,1,.37,0v1.54a2.32,2.32,0,0,0-.64-.08c-.68,0-1.51.31-1.51,1.71V98h-1.51Z"/><path d="M218.07,87.89h1.51V89.4h-1.51Zm0,2.57h1.51V98h-1.51Z"/><path d="M222.62,98.64a1,1,0,0,0,1.09.9A1.25,1.25,0,0,0,225,98.13V96.91h0a1.81,1.81,0,0,1-1.71,1c-1.75,0-2.26-1.72-2.26-3.79,0-1.65.26-3.88,2.4-3.88A1.65,1.65,0,0,1,225,91.39h0v-.93h1.43v7.18c0,1.83-.78,2.94-2.82,2.94-2.24,0-2.49-1.32-2.49-1.94Zm1.06-1.9c1.18,0,1.31-1.49,1.31-2.68s-.16-2.59-1.21-2.59-1.27,1.12-1.27,2.52S222.56,96.74,223.68,96.74Z"/><path d="M227.91,87.89h1.51V89.4h-1.51Zm0,2.57h1.51V98h-1.51Z"/><path d="M231,90.46h1.43v.89h0a2.15,2.15,0,0,1,1.93-1.08c1.15,0,1.88.52,1.88,2V98h-1.51V92.83c0-1-.27-1.36-1.05-1.36-.62,0-1.21.46-1.21,1.47V98H231Z"/></g></g></g></g></svg>