<svg id="Text" xmlns="http://www.w3.org/2000/svg" viewBox="0 0 1847.91 110"><title>bc1200text</title><g id="Chinese"><path d="M1552.08,22.72v.37c0,3.16-1.3,6.25-5.39,6.25-4.41,0-5.78-2.85-5.78-9.1s1.37-9.09,5.81-9.09c5,0,5.26,3.65,5.26,5.49V17h-2.79v-.29c0-1.65-.49-3.48-2.5-3.41s-3,1.27-3,6.91.91,7.06,3,7.06c2.35,0,2.6-2.57,2.6-4.22v-.29Z"/><path d="M1553.87,11.5h2.64v5.73l.08.05a3.76,3.76,0,0,1,3.23-1.81c2,0,3.29.9,3.29,3.57V29h-2.65V20c0-1.74-.49-2.38-1.84-2.38-1.08,0-2.11.84-2.11,2.58V29h-2.64Z"/><path d="M1565.77,11.3h2.65V14h-2.65Zm0,4.51h2.65V29h-2.65Z"/><path d="M1571.09,15.81h2.5v1.54h.07a3.79,3.79,0,0,1,3.39-1.88c2,0,3.28.9,3.28,3.57V29h-2.65V20c0-1.76-.46-2.38-1.84-2.38-1.07,0-2.1.81-2.1,2.58V29h-2.65Z"/><path d="M1585.15,22.74v.76c0,1.77.22,4,2.21,4s2.11-2.13,2.11-2.94h2.5c0,3-1.77,4.76-4.64,4.76-2.15,0-4.82-.64-4.82-6.74,0-3.46.76-7.13,4.87-7.13,3.68,0,4.66,2.23,4.66,5.88v1.39Zm4.24-1.81v-.71c0-1.67-.54-2.94-2-2.94-1.67,0-2.21,1.67-2.21,3.38v.27Z"/><path d="M1599.9,19.66v-.35c0-1-.36-2-1.74-2-1.05,0-1.88.46-1.88,1.71,0,1.06.46,1.45,1.86,1.94l1.69.59c2,.66,2.87,1.71,2.87,3.8,0,2.82-2.09,4-4.73,4-3.34,0-4.34-1.55-4.34-4.1v-.49H1596v.42c0,1.54.52,2.35,2.06,2.35s2.16-.73,2.16-1.93a1.91,1.91,0,0,0-1.45-1.94l-2.15-.76c-2-.66-2.82-1.69-2.82-3.8,0-2.47,1.76-3.62,4.51-3.62,3.35,0,4.11,2,4.11,3.6v.59Z"/><path d="M1606.93,22.74v.76c0,1.77.22,4,2.21,4s2.11-2.13,2.11-2.94h2.5c0,3-1.77,4.76-4.64,4.76-2.15,0-4.82-.64-4.82-6.74,0-3.46.76-7.13,4.87-7.13,3.68,0,4.66,2.23,4.66,5.88v1.39Zm4.24-1.81v-.71c0-1.67-.54-2.94-2-2.94-1.67,0-2.21,1.67-2.21,3.38v.27Z"/><path d="M1621.93,11.5h2.79V29h-2.79Z"/><path d="M1627.44,15.81h2.5v1.54h.07a3.69,3.69,0,0,1,3.16-1.88,2.87,2.87,0,0,1,3.07,2,3.59,3.59,0,0,1,3.33-2c1.86,0,3.21,1,3.21,3.5V29h-2.65V20c0-1.74-.51-2.38-1.59-2.38s-2.11.84-2.11,2.58V29h-2.64V20c0-1.74-.52-2.38-1.62-2.38s-2.08.86-2.08,2.58V29h-2.65Z"/><path d="M1651.13,29.34a3,3,0,0,1-3-1.89h-.05v5.86h-2.64V15.81h2.5v1.62h0a3.13,3.13,0,0,1,3-2c3,0,4.24,2.57,4.24,7.1C1655.2,28.11,1653,29.34,1651.13,29.34Zm-1-11.77c-1.82,0-2.23,1.84-2.23,4.68,0,3.17.39,5,2.25,5,1.5,0,2.21-1.13,2.21-4.78C1652.41,19.46,1652,17.57,1650.18,17.57Z"/><path d="M1659.51,22.74v.76c0,1.77.22,4,2.21,4s2.1-2.13,2.1-2.94h2.5c0,3-1.76,4.76-4.63,4.76-2.16,0-4.83-.64-4.83-6.74,0-3.46.76-7.13,4.88-7.13,3.68,0,4.66,2.23,4.66,5.88v1.39Zm4.24-1.81v-.71c0-1.67-.54-2.94-2-2.94-1.67,0-2.21,1.67-2.21,3.38v.27Z"/><path d="M1668.57,15.81h2.65v2.06h0a3.26,3.26,0,0,1,3.06-2.4,1.61,1.61,0,0,1,.64.09v2.7a3.84,3.84,0,0,0-1.1-.15c-1.2,0-2.65.54-2.65,3V29h-2.65Z"/><path d="M1676.41,11.3h2.65V14h-2.65Zm0,4.51h2.65V29h-2.65Z"/><path d="M1690.38,26.25c0,.49.29.93.69.93a1.22,1.22,0,0,0,.44-.07v1.71a2.86,2.86,0,0,1-1.3.32c-1.18,0-2.16-.47-2.23-1.74h0a3.41,3.41,0,0,1-3.28,1.94c-2.14,0-3.43-1.16-3.43-3.7,0-2.95,1.29-3.56,3.06-4.15l2.06-.56c1-.27,1.54-.54,1.54-1.69s-.42-2-1.81-2c-1.77,0-2,1.25-2,2.52h-2.5c0-2.82,1.15-4.33,4.63-4.33,2.33,0,4.19.9,4.19,3.23Zm-2.5-4.22a20.5,20.5,0,0,1-2.94,1.23,2.17,2.17,0,0,0-1.08,2.13c0,1.1.54,2,1.64,2,1.6,0,2.38-1.18,2.38-3.14Z"/><path d="M1693.2,11.5h2.64V29h-2.64Z"/><path d="M1704.56,11.5h5.54c3.36,0,4.83,2.1,4.83,5.09,0,3.14-1.86,5.17-5.12,5.17h-2.45V29h-2.8Zm2.8,8.16h2c1.5,0,2.8-.79,2.8-3,0-1.89-.76-3-3-3h-1.78Z"/><path d="M1716.13,22.4c0-4.12,1.07-6.93,4.9-6.93s4.92,2.81,4.92,6.93-1.27,6.94-4.92,6.94S1716.13,26.52,1716.13,22.4Zm4.9,5c1.93,0,2.28-1.62,2.28-5,0-2.92-.35-5-2.28-5s-2.26,2.05-2.26,5C1718.77,25.76,1719.14,27.38,1721,27.38Z"/><path d="M1726.93,15.81h2.75l1.83,10.39h0l2-10.39h3l2,10.39h0l1.82-10.39H1743L1740,29h-3l-2.06-10.24h0L1733,29h-3.09Z"/><path d="M1746.9,22.74v.76c0,1.77.22,4,2.2,4s2.11-2.13,2.11-2.94h2.5c0,3-1.76,4.76-4.63,4.76-2.16,0-4.83-.64-4.83-6.74,0-3.46.76-7.13,4.88-7.13,3.67,0,4.65,2.23,4.65,5.88v1.39Zm4.24-1.81v-.71c0-1.67-.54-2.94-2-2.94-1.66,0-2.2,1.67-2.2,3.38v.27Z"/><path d="M1756,15.81h2.65v2.06h.05a3.26,3.26,0,0,1,3.06-2.4,1.61,1.61,0,0,1,.64.09v2.7a3.84,3.84,0,0,0-1.1-.15c-1.2,0-2.65.54-2.65,3V29H1756Z"/></g><g id="Greeks"><path d="M105.44,105.46h0a3.63,3.63,0,0,1-3.82,2.38c-3.82,0-5.2-2.85-5.2-9.1s1.77-9.09,5.81-9.09a4.76,4.76,0,0,1,5.12,5V95h-2.64V94.6c0-1.3-.54-2.84-2.45-2.84s-3,1.32-3,6.91.93,7.06,2.82,7.06c2.13,0,2.91-1.52,2.91-5.34H102V98.28h5.59v9.21h-2.11Z"/><path d="M110,90h6.17c2.45,0,4.44,1.25,4.44,4.5,0,2.26-1,4-2.92,4.29v0c1.77.17,2.65,1.13,2.75,3.58,0,1.15,0,2.5.09,3.55a1.92,1.92,0,0,0,.84,1.52h-3.16a2.92,2.92,0,0,1-.47-1.54c0-.52-.07-1.06-.07-1.57s0-1.1-.05-1.74c-.08-1.91-.66-2.74-2.55-2.74h-2.28v7.59H110Zm5,7.79A2.58,2.58,0,0,0,117.76,95c0-1.87-.78-2.85-2.64-2.85h-2.38v5.69Z"/><path d="M123.1,90h9.46v2.35H125.9V97.2h6.27v2.35H125.9v5.59h6.86v2.35H123.1Z"/><path d="M134.89,90h9.46v2.35h-6.67V97.2H144v2.35h-6.27v5.59h6.86v2.35h-9.65Z"/><path d="M146.67,90h2.79v7.62h0l5.3-7.62h3.06l-5.05,7.37,5.59,10.12h-3.16L151,99.63l-1.55,2.2v5.66h-2.79Z"/><path d="M161.54,102.08v.44c0,2.13,1,3.21,2.87,3.21a2.51,2.51,0,0,0,2.65-2.55c0-1.84-.93-2.65-2.5-3.11l-1.91-.66c-2.55-1-3.66-2.31-3.66-4.81,0-3.18,2.19-4.95,5.44-4.95,4.49,0,4.95,2.8,4.95,4.61v.39h-2.79v-.37c0-1.59-.69-2.52-2.45-2.52a2.23,2.23,0,0,0-2.35,2.52c0,1.5.76,2.26,2.62,3l1.89.69c2.47.88,3.55,2.2,3.55,4.63,0,3.72-2.25,5.27-5.78,5.27-4.34,0-5.32-2.9-5.32-5.35v-.41Z"/></g></svg>