<svg xmlns="http://www.w3.org/2000/svg" viewBox="0 0 1847.91 112"><title>bc1250text</title><g id="Text"><g id="Hittites"><path d="M831.66,56h2.79v7h5.15V56h2.79V73.49H839.6V65.36h-5.15v8.13h-2.79Z"/><path d="M845.16,56H848V73.49h-2.79Z"/><path d="M853.58,58.35h-4.16V56h11.05v2.35h-4.09V73.49h-2.8Z"/><path d="M864.93,58.35h-4.17V56h11v2.35h-4.09V73.49h-2.79Z"/><path d="M873.28,56h2.79V73.49h-2.79Z"/><path d="M881.71,58.35h-4.17V56H888.6v2.35h-4.1V73.49h-2.79Z"/><path d="M890.18,56h9.46v2.35H893V63.2h6.27v2.35H893v5.59h6.86v2.35h-9.66Z"/><path d="M904.13,68.08v.44c0,2.13,1,3.21,2.86,3.21a2.51,2.51,0,0,0,2.65-2.55c0-1.84-.93-2.65-2.5-3.11l-1.91-.66c-2.55-1-3.65-2.31-3.65-4.81,0-3.18,2.18-5,5.44-5,4.48,0,5,2.8,5,4.61v.39h-2.8v-.37c0-1.59-.68-2.52-2.45-2.52a2.23,2.23,0,0,0-2.35,2.52c0,1.5.76,2.26,2.62,3l1.89.69c2.47.88,3.55,2.2,3.55,4.63,0,3.72-2.25,5.27-5.78,5.27-4.34,0-5.32-2.9-5.32-5.35v-.41Z"/></g></g><g id="YEARS"><g id="Right"><path d="M1787.21,105.13V91.76h-3.82V89.84h.29c1.77,0,3.79-.45,4.34-2.76v-.36h2.16v18.41Z"/><path d="M1805.93,105.13h-10.76c0-8,7.72-7.83,7.72-13.55,0-1.54-.65-2.78-2.29-2.78-2.21,0-2.57,2-2.57,3.84h-2.81c0-3.64,1.51-5.92,5.43-5.92,3.75,0,5.21,2.23,5.21,4.91,0,6.11-6,6.47-7.39,11h7.46Z"/><path d="M1807.62,100.16h2.81v.49a2.35,2.35,0,0,0,2.42,2.6c2.08,0,2.63-2,2.63-4.18s-.58-3.93-2.48-3.93a2.35,2.35,0,0,0-2.41,1.69l-2.63-.1.91-9.65h8.87v2.37h-6.66l-.6,4.83,0,0a4.11,4.11,0,0,1,3.1-1.43c3.85,0,4.81,3.26,4.81,6.09,0,3.69-1.69,6.5-5.67,6.5-3.3,0-5.15-1.69-5.15-4.94Z"/><path d="M1825.51,86.72c3.54,0,5.51,2.21,5.51,9.38s-2,9.39-5.51,9.39-5.51-2.21-5.51-9.39S1822,86.72,1825.51,86.72Zm0,16.69c2,0,2.55-2,2.55-7.31s-.55-7.3-2.55-7.3-2.55,2-2.55,7.3S1823.51,103.41,1825.51,103.41Z"/></g><g id="left"><path d="M17.46,108.72V95.36H13.64V93.44h.29c1.77,0,3.79-.45,4.34-2.76v-.36h2.16v18.4Z"/><path d="M36.18,108.72H25.42c0-8,7.72-7.82,7.72-13.54,0-1.54-.65-2.78-2.29-2.78-2.21,0-2.57,2-2.57,3.84H25.47c0-3.64,1.51-5.92,5.44-5.92,3.74,0,5.2,2.23,5.2,4.91,0,6.11-6,6.47-7.39,11h7.46Z"/><path d="M37.87,103.76h2.81v.49a2.35,2.35,0,0,0,2.42,2.6c2.08,0,2.63-2,2.63-4.18s-.58-3.93-2.48-3.93a2.35,2.35,0,0,0-2.41,1.69l-2.63-.1.91-9.65H48v2.37H41.33l-.6,4.83.06.05a4,4,0,0,1,3.09-1.43c3.85,0,4.81,3.25,4.81,6.09,0,3.69-1.69,6.5-5.67,6.5-3.3,0-5.15-1.69-5.15-4.94Z"/><path d="M55.76,90.32c3.54,0,5.51,2.21,5.51,9.38s-2,9.39-5.51,9.39-5.51-2.21-5.51-9.39S52.22,90.32,55.76,90.32Zm0,16.69c2,0,2.55-2,2.55-7.31s-.55-7.3-2.55-7.3-2.55,2-2.55,7.3S53.76,107,55.76,107Z"/></g></g></svg>