<svg xmlns="http://www.w3.org/2000/svg" viewBox="0 0 1847.91 112"><title>bc1250text</title><g id="YEARS"><g id="Right"><path d="M1787.21,105.13V91.76h-3.82V89.84h.29c1.77,0,3.79-.45,4.34-2.76v-.36h2.16v18.41Z" fill="#3b4351"/><path d="M1805.93,105.13h-10.76c0-8,7.72-7.83,7.72-13.55,0-1.54-.65-2.78-2.29-2.78-2.21,0-2.57,2-2.57,3.84h-2.81c0-3.64,1.51-5.92,5.43-5.92,3.75,0,5.21,2.23,5.21,4.91,0,6.11-6,6.47-7.39,11h7.46Z" fill="#3b4351"/><path d="M1807.62,100.16h2.81v.49a2.35,2.35,0,0,0,2.42,2.6c2.08,0,2.63-2,2.63-4.18s-.58-3.93-2.48-3.93a2.35,2.35,0,0,0-2.41,1.69l-2.63-.1.91-9.65h8.87v2.37h-6.66l-.6,4.83,0,0a4.11,4.11,0,0,1,3.1-1.43c3.85,0,4.81,3.26,4.81,6.09,0,3.69-1.69,6.5-5.67,6.5-3.3,0-5.15-1.69-5.15-4.94Z" fill="#3b4351"/><path d="M1825.51,86.72c3.54,0,5.51,2.21,5.51,9.38s-2,9.39-5.51,9.39-5.51-2.21-5.51-9.39S1822,86.72,1825.51,86.72Zm0,16.69c2,0,2.55-2,2.55-7.31s-.55-7.3-2.55-7.3-2.55,2-2.55,7.3S1823.51,103.41,1825.51,103.41Z" fill="#3b4351"/></g><g id="left"><path d="M17.46,108.72V95.36H13.64V93.44h.29c1.77,0,3.79-.45,4.34-2.76v-.36h2.16v18.4Z" fill="#3b4351"/><path d="M36.18,108.72H25.42c0-8,7.72-7.82,7.72-13.54,0-1.54-.65-2.78-2.29-2.78-2.21,0-2.57,2-2.57,3.84H25.47c0-3.64,1.51-5.92,5.44-5.92,3.74,0,5.2,2.23,5.2,4.91,0,6.11-6,6.47-7.39,11h7.46Z" fill="#3b4351"/><path d="M37.87,103.76h2.81v.49a2.35,2.35,0,0,0,2.42,2.6c2.08,0,2.63-2,2.63-4.18s-.58-3.93-2.48-3.93a2.35,2.35,0,0,0-2.41,1.69l-2.63-.1.91-9.65H48v2.37H41.33l-.6,4.83.06.05a4,4,0,0,1,3.09-1.43c3.85,0,4.81,3.25,4.81,6.09,0,3.69-1.69,6.5-5.67,6.5-3.3,0-5.15-1.69-5.15-4.94Z" fill="#3b4351"/><path d="M55.76,90.32c3.54,0,5.51,2.21,5.51,9.38s-2,9.39-5.51,9.39-5.51-2.21-5.51-9.39S52.22,90.32,55.76,90.32Zm0,16.69c2,0,2.55-2,2.55-7.31s-.55-7.3-2.55-7.3-2.55,2-2.55,7.3S53.76,107,55.76,107Z" fill="#3b4351"/></g></g><g id="Text"><g id="Hittites"><path d="M831.66,56h2.79v7h5.15V56h2.79V73.49H839.6V65.36h-5.15v8.13h-2.79Z" fill="#3b4351"/><path d="M845.16,56H848V73.49h-2.79Z" fill="#3b4351"/><path d="M853.58,58.35h-4.16V56h11.05v2.35h-4.09V73.49h-2.8Z" fill="#3b4351"/><path d="M864.93,58.35h-4.17V56h11v2.35h-4.09V73.49h-2.79Z" fill="#3b4351"/><path d="M873.28,56h2.79V73.49h-2.79Z" fill="#3b4351"/><path d="M881.71,58.35h-4.17V56H888.6v2.35h-4.1V73.49h-2.79Z" fill="#3b4351"/><path d="M890.18,56h9.46v2.35H893V63.2h6.27v2.35H893v5.59h6.86v2.35h-9.66Z" fill="#3b4351"/><path d="M904.13,68.08v.44c0,2.13,1,3.21,2.86,3.21a2.51,2.51,0,0,0,2.65-2.55c0-1.84-.93-2.65-2.5-3.11l-1.91-.66c-2.55-1-3.65-2.31-3.65-4.81,0-3.18,2.18-5,5.44-5,4.48,0,5,2.8,5,4.61v.39h-2.8v-.37c0-1.59-.68-2.52-2.45-2.52a2.23,2.23,0,0,0-2.35,2.52c0,1.5.76,2.26,2.62,3l1.89.69c2.47.88,3.55,2.2,3.55,4.63,0,3.72-2.25,5.27-5.78,5.27-4.34,0-5.32-2.9-5.32-5.35v-.41Z" fill="#3b4351"/></g><g id="Egytians"><g id="small"><path d="M406.89,6.83h3.53A2.31,2.31,0,0,1,413,9.4c0,1.29-.56,2.29-1.67,2.45v0c1,.1,1.52.65,1.57,2,0,.66,0,1.43.06,2a1.1,1.1,0,0,0,.47.87h-1.8a1.61,1.61,0,0,1-.27-.88c0-.3,0-.61,0-.9s0-.63,0-1c0-1.09-.38-1.56-1.46-1.56h-1.3v4.34h-1.6Zm2.88,4.45a1.47,1.47,0,0,0,1.59-1.62c0-1.07-.45-1.63-1.51-1.63h-1.36v3.25Z" fill="#3b4351"/><path d="M419.26,15.26c0,.28.17.53.39.53a.54.54,0,0,0,.25,0v1a1.55,1.55,0,0,1-.74.18c-.67,0-1.23-.26-1.27-1h0A2,2,0,0,1,416,17c-1.22,0-2-.65-2-2.11a2.08,2.08,0,0,1,1.75-2.37l1.18-.32c.54-.16.88-.31.88-1s-.24-1.12-1-1.12c-1,0-1.14.72-1.14,1.44h-1.43c0-1.61.65-2.47,2.64-2.47,1.33,0,2.4.51,2.4,1.84Zm-1.43-2.41a11.23,11.23,0,0,1-1.68.7,1.25,1.25,0,0,0-.62,1.22c0,.63.31,1.13.94,1.13.91,0,1.36-.67,1.36-1.79Z" fill="#3b4351"/><path d="M420.87,9.29h1.43v.88h0a2.1,2.1,0,0,1,1.8-1.07,1.64,1.64,0,0,1,1.76,1.14,2.06,2.06,0,0,1,1.9-1.14c1.07,0,1.84.54,1.84,2v5.73h-1.52V11.66c0-1-.29-1.36-.91-1.36s-1.2.48-1.2,1.47v5.06h-1.52V11.66c0-1-.29-1.36-.92-1.36s-1.19.49-1.19,1.47v5.06h-1.51Z" fill="#3b4351"/><path d="M432.46,13.26v.43c0,1,.13,2.3,1.26,2.3s1.2-1.22,1.2-1.68h1.43A2.47,2.47,0,0,1,433.71,17c-1.24,0-2.76-.36-2.76-3.85,0-2,.43-4.07,2.78-4.07,2.1,0,2.67,1.27,2.67,3.36v.8Zm2.42-1v-.41c0-1-.31-1.68-1.16-1.68s-1.26.95-1.26,1.93v.16Z" fill="#3b4351"/><path d="M440.89,11.49v-.2c0-.6-.21-1.16-1-1.16-.6,0-1.08.27-1.08,1s.27.83,1.07,1.11l1,.34a2,2,0,0,1,1.64,2.17c0,1.61-1.2,2.29-2.71,2.29-1.9,0-2.48-.88-2.48-2.34V14.4h1.35v.24c0,.88.29,1.35,1.17,1.35s1.24-.42,1.24-1.11a1.1,1.1,0,0,0-.83-1.11L439,13.34a2,2,0,0,1-1.61-2.17c0-1.42,1-2.07,2.57-2.07,1.92,0,2.36,1.12,2.36,2.05v.34Z" fill="#3b4351"/><path d="M444.91,13.26v.43c0,1,.12,2.3,1.26,2.3s1.2-1.22,1.2-1.68h1.43A2.48,2.48,0,0,1,446.15,17c-1.23,0-2.76-.36-2.76-3.85,0-2,.44-4.07,2.79-4.07,2.1,0,2.66,1.27,2.66,3.36v.8Zm2.42-1v-.41c0-1-.31-1.68-1.16-1.68s-1.26.95-1.26,1.93v.16Z" fill="#3b4351"/><path d="M453.33,11.49v-.2c0-.6-.21-1.16-1-1.16-.6,0-1.08.27-1.08,1s.27.83,1.07,1.11l1,.34a2,2,0,0,1,1.64,2.17c0,1.61-1.19,2.29-2.7,2.29-1.91,0-2.48-.88-2.48-2.34V14.4h1.34v.24c0,.88.3,1.35,1.18,1.35s1.23-.42,1.23-1.11a1.1,1.1,0,0,0-.82-1.11l-1.24-.43a2,2,0,0,1-1.61-2.17c0-1.42,1-2.07,2.58-2.07,1.92,0,2.35,1.12,2.35,2.05v.34Z" fill="#3b4351"/><path d="M459.44,6.83H461v10h-1.59Z" fill="#3b4351"/><path d="M462.54,6.83h1.6v10h-1.6Z" fill="#3b4351"/><path d="M465.78,15h1.59v1.85c0,1.12-.36,1.92-1.59,2.15v-.81a1,1,0,0,0,.7-1.13v-.21h-.7Z" fill="#3b4351"/><path d="M471.15,9.29h1V7.15h1.51V9.29h1.23v1.12H473.7v4.5c0,.6.17.8.69.8a3.63,3.63,0,0,0,.54,0v1.12a5.08,5.08,0,0,1-1.21.12c-1,0-1.53-.29-1.53-1.82V10.41h-1Z" fill="#3b4351"/><path d="M475.72,6.83h1.51V10.1l0,0a2.15,2.15,0,0,1,1.85-1c1.15,0,1.88.51,1.88,2v5.69h-1.51V11.66c0-1-.28-1.36-1.05-1.36s-1.21.48-1.21,1.47v5.06h-1.51Z" fill="#3b4351"/><path d="M483.75,13.26v.43c0,1,.13,2.3,1.27,2.3s1.2-1.22,1.2-1.68h1.43A2.48,2.48,0,0,1,485,17c-1.23,0-2.76-.36-2.76-3.85,0-2,.44-4.07,2.79-4.07,2.1,0,2.66,1.27,2.66,3.36v.8Zm2.43-1v-.41c0-1-.31-1.68-1.16-1.68s-1.27.95-1.27,1.93v.16Z" fill="#3b4351"/><path d="M497.34,15.67h0A2.09,2.09,0,0,1,495.12,17c-2.18,0-3-1.62-3-5.19s1-5.2,3.32-5.2a2.72,2.72,0,0,1,2.93,2.89V9.7h-1.51V9.46c0-.74-.31-1.63-1.4-1.63s-1.74.76-1.74,3.95.53,4,1.61,4S497,15,497,12.77h-1.68V11.56h3.19v5.27h-1.2Z" fill="#3b4351"/><path d="M499.81,9.29h1.51v1.18h0A1.87,1.87,0,0,1,503.1,9.1a.94.94,0,0,1,.37.05v1.54a2.24,2.24,0,0,0-.63-.08c-.69,0-1.52.31-1.52,1.71v4.51h-1.51Z" fill="#3b4351"/><path d="M505.44,13.26v.43c0,1,.13,2.3,1.26,2.3s1.21-1.22,1.21-1.68h1.42A2.47,2.47,0,0,1,506.69,17c-1.24,0-2.76-.36-2.76-3.85,0-2,.43-4.07,2.78-4.07,2.11,0,2.67,1.27,2.67,3.36v.8Zm2.42-1v-.41c0-1-.3-1.68-1.16-1.68s-1.26.95-1.26,1.93v.16Z" fill="#3b4351"/><path d="M515.56,15.26c0,.28.17.53.4.53a.57.57,0,0,0,.25,0v1a1.58,1.58,0,0,1-.74.18c-.68,0-1.24-.26-1.28-1h0a1.94,1.94,0,0,1-1.87,1.1c-1.22,0-2-.65-2-2.11a2.08,2.08,0,0,1,1.75-2.37l1.17-.32c.55-.16.89-.31.89-1s-.24-1.12-1-1.12c-1,0-1.15.72-1.15,1.44h-1.43c0-1.61.66-2.47,2.65-2.47,1.33,0,2.39.51,2.39,1.84Zm-1.42-2.41a10.92,10.92,0,0,1-1.69.7,1.24,1.24,0,0,0-.61,1.22c0,.63.31,1.13.94,1.13.91,0,1.36-.67,1.36-1.79Z" fill="#3b4351"/><path d="M516.43,9.29h1V7.15H519V9.29h1.23v1.12H519v4.5c0,.6.17.8.68.8a3.78,3.78,0,0,0,.55,0v1.12a5.17,5.17,0,0,1-1.22.12c-1,0-1.52-.29-1.52-1.82V10.41h-1Z" fill="#3b4351"/><path d="M521.15,15h1.59v1.85c0,1.12-.36,1.92-1.59,2.15v-.81a1,1,0,0,0,.7-1.13v-.21h-.7Z" fill="#3b4351"/><path d="M527.2,6.83h1.51v3.34h0a1.73,1.73,0,0,1,1.7-1.07c1.15,0,2.33.51,2.33,3.86,0,2.59-.71,4.06-2.47,4.06a1.61,1.61,0,0,1-1.65-1.12h0v.93H527.2Zm2.7,9c1.06,0,1.27-1.08,1.27-2.79,0-2-.32-2.73-1.17-2.73-1.18,0-1.38,1-1.38,2.84C528.62,14.77,528.86,15.82,529.9,15.82Z" fill="#3b4351"/><path d="M537.78,16h0A2.16,2.16,0,0,1,535.81,17c-1.12,0-1.88-.51-1.88-2.46V9.29h1.51V14.7c0,.84.37,1.12,1,1.12a1.18,1.18,0,0,0,1.24-1.26V9.29h1.51v7.54h-1.43Z" fill="#3b4351"/><path d="M540.73,6.71h1.52V8.23h-1.52Zm0,2.58h1.52v7.54h-1.52Z" fill="#3b4351"/><path d="M543.84,6.83h1.51v10h-1.51Z" fill="#3b4351"/><path d="M550.73,15.9h0A1.61,1.61,0,0,1,549.05,17c-1.75,0-2.47-1.48-2.47-4.06,0-3.35,1.18-3.86,2.33-3.86a1.74,1.74,0,0,1,1.71,1.07h0V6.83h1.51v10h-1.43Zm-1.37-5.6c-.86,0-1.18.7-1.18,2.73,0,1.71.21,2.79,1.28,2.79s1.27-1.05,1.27-2.68C550.73,11.34,550.53,10.3,549.36,10.3Z" fill="#3b4351"/><path d="M556.86,11.49v-.2c0-.6-.21-1.16-1-1.16-.6,0-1.08.27-1.08,1s.27.83,1.06,1.11l1,.34a2,2,0,0,1,1.64,2.17c0,1.61-1.19,2.29-2.7,2.29-1.91,0-2.48-.88-2.48-2.34V14.4h1.34v.24c0,.88.3,1.35,1.18,1.35s1.23-.42,1.23-1.11a1.1,1.1,0,0,0-.83-1.11L555,13.34a2,2,0,0,1-1.61-2.17c0-1.42,1-2.07,2.58-2.07,1.92,0,2.35,1.12,2.35,2.05v.34Z" fill="#3b4351"/><path d="M563,9.29h1.42v.88h.05a2.1,2.1,0,0,1,1.8-1.07A1.64,1.64,0,0,1,568,10.24a2.06,2.06,0,0,1,1.9-1.14c1.06,0,1.84.54,1.84,2v5.73h-1.52V11.66c0-1-.29-1.36-.91-1.36s-1.2.48-1.2,1.47v5.06h-1.52V11.66c0-1-.29-1.36-.92-1.36s-1.19.49-1.19,1.47v5.06H563Z" fill="#3b4351"/><path d="M578.24,15.26c0,.28.17.53.39.53a.59.59,0,0,0,.26,0v1a1.63,1.63,0,0,1-.75.18c-.67,0-1.23-.26-1.27-1h0A2,2,0,0,1,575,17c-1.22,0-2-.65-2-2.11a2.08,2.08,0,0,1,1.75-2.37l1.18-.32c.55-.16.88-.31.88-1s-.24-1.12-1-1.12c-1,0-1.15.72-1.15,1.44H573.2c0-1.61.66-2.47,2.65-2.47,1.33,0,2.39.51,2.39,1.84Zm-1.43-2.41a11.23,11.23,0,0,1-1.68.7,1.24,1.24,0,0,0-.61,1.22c0,.63.3,1.13.93,1.13.91,0,1.36-.67,1.36-1.79Z" fill="#3b4351"/><path d="M579.78,9.29h1.43v.88h0a2.16,2.16,0,0,1,1.93-1.07c1.15,0,1.88.51,1.88,2v5.69h-1.51V11.66c0-1-.27-1.36-1-1.36-.62,0-1.21.46-1.21,1.47v5.06h-1.51Z" fill="#3b4351"/><path d="M587.52,9.29l1.3,5.66h0l1.21-5.66h1.58l-2.07,7.82c-.61,2.06-1.07,2.34-2.64,2.29a3,3,0,0,1-.6,0V18.14a1.65,1.65,0,0,0,.49.06c.52,0,.85-.1,1-.59L588,17,585.9,9.29Z" fill="#3b4351"/><path d="M595.16,9.29h1V7.15h1.51V9.29H599v1.12h-1.24v4.5c0,.6.17.8.69.8a3.9,3.9,0,0,0,.55,0v1.12a5.23,5.23,0,0,1-1.22.12c-1,0-1.53-.29-1.53-1.82V10.41h-1Z" fill="#3b4351"/><path d="M601,13.26v.43c0,1,.13,2.3,1.26,2.3s1.21-1.22,1.21-1.68h1.42A2.47,2.47,0,0,1,602.28,17c-1.24,0-2.76-.36-2.76-3.85,0-2,.43-4.07,2.79-4.07,2.1,0,2.66,1.27,2.66,3.36v.8Zm2.42-1v-.41c0-1-.3-1.68-1.16-1.68s-1.26.95-1.26,1.93v.16Z" fill="#3b4351"/><path d="M606.28,9.29h1.43v.88h0a2.11,2.11,0,0,1,1.81-1.07,1.63,1.63,0,0,1,1.75,1.14,2.06,2.06,0,0,1,1.9-1.14c1.07,0,1.84.54,1.84,2v5.73h-1.51V11.66c0-1-.3-1.36-.91-1.36s-1.21.48-1.21,1.47v5.06h-1.51V11.66c0-1-.3-1.36-.93-1.36s-1.19.49-1.19,1.47v5.06h-1.51Z" fill="#3b4351"/><path d="M619.82,17A1.73,1.73,0,0,1,618.11,16h0v3.34h-1.51v-10H618v.93h0a1.76,1.76,0,0,1,1.69-1.12c1.72,0,2.42,1.47,2.42,4.06C622.14,16.32,620.87,17,619.82,17Zm-.55-6.72c-1,0-1.27,1-1.27,2.68,0,1.8.22,2.84,1.29,2.84.85,0,1.26-.65,1.26-2.73C620.55,11.38,620.34,10.3,619.27,10.3Z" fill="#3b4351"/><path d="M623.37,6.83h1.52v10h-1.52Z" fill="#3b4351"/><path d="M627.71,13.26v.43c0,1,.13,2.3,1.27,2.3s1.2-1.22,1.2-1.68h1.43A2.48,2.48,0,0,1,629,17c-1.23,0-2.76-.36-2.76-3.85,0-2,.44-4.07,2.79-4.07,2.1,0,2.66,1.27,2.66,3.36v.8Zm2.43-1v-.41c0-1-.31-1.68-1.16-1.68s-1.27.95-1.27,1.93v.16Z" fill="#3b4351"/><path d="M636.14,11.49v-.2c0-.6-.21-1.16-1-1.16-.6,0-1.08.27-1.08,1s.27.83,1.06,1.11l1,.34a2,2,0,0,1,1.64,2.17c0,1.61-1.19,2.29-2.7,2.29-1.91,0-2.48-.88-2.48-2.34V14.4h1.34v.24c0,.88.3,1.35,1.18,1.35s1.23-.42,1.23-1.11a1.1,1.1,0,0,0-.83-1.11l-1.23-.43a2,2,0,0,1-1.61-2.17c0-1.42,1-2.07,2.58-2.07,1.92,0,2.35,1.12,2.35,2.05v.34Z" fill="#3b4351"/><path d="M647.16,15.26c0,.28.17.53.39.53a.59.59,0,0,0,.26,0v1a1.63,1.63,0,0,1-.75.18c-.67,0-1.23-.26-1.27-1h0a2,2,0,0,1-1.88,1.1c-1.21,0-2-.65-2-2.11a2.09,2.09,0,0,1,1.75-2.37l1.18-.32c.55-.16.88-.31.88-1s-.23-1.12-1-1.12c-1,0-1.15.72-1.15,1.44h-1.43c0-1.61.66-2.47,2.65-2.47,1.33,0,2.39.51,2.39,1.84Zm-1.43-2.41a11.23,11.23,0,0,1-1.68.7,1.24,1.24,0,0,0-.61,1.22c0,.63.3,1.13.93,1.13.91,0,1.36-.67,1.36-1.79Z" fill="#3b4351"/><path d="M648.7,9.29h1.43v.88h0A2.16,2.16,0,0,1,652.1,9.1c1.15,0,1.88.51,1.88,2v5.69h-1.51V11.66c0-1-.27-1.36-1.05-1.36-.62,0-1.21.46-1.21,1.47v5.06H648.7Z" fill="#3b4351"/><path d="M659.29,15.9h0A1.62,1.62,0,0,1,657.6,17c-1.75,0-2.46-1.48-2.46-4.06,0-3.35,1.18-3.86,2.32-3.86a1.74,1.74,0,0,1,1.71,1.07h0V6.83h1.51v10h-1.42Zm-1.38-5.6c-.85,0-1.17.7-1.17,2.73,0,1.71.21,2.79,1.27,2.79s1.28-1.05,1.28-2.68C659.29,11.34,659.09,10.3,657.91,10.3Z" fill="#3b4351"/><path d="M668.78,17A1.73,1.73,0,0,1,667.07,16h0v3.34h-1.51v-10H667v.93h0a1.79,1.79,0,0,1,1.7-1.12c1.72,0,2.42,1.47,2.42,4.06C671.1,16.32,669.83,17,668.78,17Zm-.55-6.72c-1,0-1.27,1-1.27,2.68,0,1.8.22,2.84,1.28,2.84.86,0,1.26-.65,1.26-2.73C669.5,11.38,669.29,10.3,668.23,10.3Z" fill="#3b4351"/><path d="M677.2,15.26c0,.28.17.53.4.53a.57.57,0,0,0,.25,0v1a1.58,1.58,0,0,1-.74.18c-.68,0-1.24-.26-1.28-1h0a1.94,1.94,0,0,1-1.87,1.1c-1.22,0-2-.65-2-2.11a2.08,2.08,0,0,1,1.75-2.37l1.17-.32c.55-.16.89-.31.89-1s-.24-1.12-1-1.12c-1,0-1.15.72-1.15,1.44h-1.43c0-1.61.66-2.47,2.65-2.47,1.33,0,2.39.51,2.39,1.84Zm-1.42-2.41a11.23,11.23,0,0,1-1.68.7,1.23,1.23,0,0,0-.62,1.22c0,.63.31,1.13.94,1.13.91,0,1.36-.67,1.36-1.79Z" fill="#3b4351"/><path d="M678.81,6.83h1.52v10h-1.52Z" fill="#3b4351"/><path d="M686.79,15.26c0,.28.17.53.4.53a.57.57,0,0,0,.25,0v1a1.58,1.58,0,0,1-.74.18c-.68,0-1.24-.26-1.28-1h0a1.94,1.94,0,0,1-1.87,1.1c-1.22,0-2-.65-2-2.11a2.08,2.08,0,0,1,1.75-2.37l1.17-.32c.55-.16.89-.31.89-1s-.24-1.12-1-1.12c-1,0-1.15.72-1.15,1.44h-1.43c0-1.61.66-2.47,2.65-2.47,1.33,0,2.39.51,2.39,1.84Zm-1.42-2.41a11.23,11.23,0,0,1-1.68.7,1.23,1.23,0,0,0-.62,1.22c0,.63.31,1.13.94,1.13.91,0,1.36-.67,1.36-1.79Z" fill="#3b4351"/><path d="M693.42,14.08c-.11,1.81-.7,2.94-2.58,2.94-2.19,0-2.8-1.61-2.8-4s.61-4,2.8-4a2.43,2.43,0,0,1,2.59,2.7h-1.51c0-.7-.18-1.63-1.08-1.58-1.08,0-1.29,1.17-1.29,2.84s.21,2.84,1.29,2.84c.84,0,1.15-.68,1.15-1.82Z" fill="#3b4351"/><path d="M695.85,13.26v.43c0,1,.13,2.3,1.26,2.3s1.21-1.22,1.21-1.68h1.43A2.48,2.48,0,0,1,697.1,17c-1.24,0-2.76-.36-2.76-3.85,0-2,.43-4.07,2.79-4.07,2.1,0,2.66,1.27,2.66,3.36v.8Zm2.42-1v-.41c0-1-.3-1.68-1.16-1.68s-1.26.95-1.26,1.93v.16Z" fill="#3b4351"/><path d="M704.28,11.49v-.2c0-.6-.21-1.16-1-1.16-.61,0-1.08.27-1.08,1s.26.83,1.06,1.11l1,.34a2,2,0,0,1,1.64,2.17c0,1.61-1.19,2.29-2.71,2.29-1.9,0-2.48-.88-2.48-2.34V14.4H702v.24c0,.88.29,1.35,1.18,1.35s1.23-.42,1.23-1.11a1.1,1.1,0,0,0-.83-1.11l-1.23-.43a2,2,0,0,1-1.61-2.17c0-1.42,1-2.07,2.58-2.07,1.91,0,2.35,1.12,2.35,2.05v.34Z" fill="#3b4351"/><path d="M707.15,15h1.6v1.85h-1.6Z" fill="#3b4351"/><path d="M499.23,40.5h-2.39V39.16h6.32V40.5h-2.34v8.66h-1.59Z" fill="#3b4351"/><path d="M504.24,45.59V46c0,1,.12,2.3,1.26,2.3s1.2-1.22,1.2-1.68h1.43a2.48,2.48,0,0,1-2.65,2.72c-1.23,0-2.76-.37-2.76-3.86,0-2,.44-4.07,2.79-4.07,2.1,0,2.66,1.27,2.66,3.36v.8Zm2.42-1v-.41c0-1-.31-1.68-1.16-1.68s-1.26,1-1.26,1.94v.15Z" fill="#3b4351"/><path d="M509.49,41.62h1.43v.89h0a2.09,2.09,0,0,1,1.8-1.08,1.65,1.65,0,0,1,1.76,1.15,2,2,0,0,1,1.9-1.15c1.07,0,1.84.54,1.84,2v5.73h-1.52V44c0-1-.29-1.36-.91-1.36s-1.2.48-1.2,1.47v5.06h-1.52V44c0-1-.29-1.36-.92-1.36S511,43.12,511,44.1v5.06h-1.51Z" fill="#3b4351"/><path d="M523,49.36a1.74,1.74,0,0,1-1.71-1.08h0v3.34h-1.51v-10h1.43v.93h0a1.8,1.8,0,0,1,1.7-1.12c1.72,0,2.42,1.47,2.42,4.06C525.35,48.66,524.08,49.36,523,49.36Zm-.55-6.73c-1,0-1.27,1-1.27,2.68,0,1.8.22,2.84,1.28,2.84.86,0,1.26-.64,1.26-2.73C523.75,43.71,523.54,42.63,522.48,42.63Z" fill="#3b4351"/><path d="M526.58,39.16h1.51v10h-1.51Z" fill="#3b4351"/><path d="M530.92,45.59V46c0,1,.13,2.3,1.26,2.3s1.21-1.22,1.21-1.68h1.43a2.48,2.48,0,0,1-2.65,2.72c-1.24,0-2.76-.37-2.76-3.86,0-2,.43-4.07,2.79-4.07,2.1,0,2.66,1.27,2.66,3.36v.8Zm2.42-1v-.41c0-1-.3-1.68-1.16-1.68s-1.26,1-1.26,1.94v.15Z" fill="#3b4351"/><path d="M539.17,45.39c0-2.35.61-4,2.8-4s2.81,1.61,2.81,4-.73,4-2.81,4S539.17,47.75,539.17,45.39Zm2.8,2.85c1.1,0,1.3-.93,1.3-2.85,0-1.67-.2-2.84-1.3-2.84s-1.29,1.17-1.29,2.84C540.68,47.31,540.89,48.24,542,48.24Z" fill="#3b4351"/><path d="M546.4,42.74h-1V41.62h1v-.7c0-1.41.69-1.87,1.92-1.87a6.47,6.47,0,0,1,.83,0v1.16h-.42c-.56,0-.81.21-.81.72v.65h1.23v1.12h-1.23v6.42H546.4Z" fill="#3b4351"/><path d="M554.66,39.16h2.05l2.63,10h-1.66l-.62-2.45h-2.93l-.64,2.45h-1.67Zm2.13,6.27-1.14-4.93h0l-1.19,4.93Z" fill="#3b4351"/><path d="M560,41.62h1.43v.89h0a2.11,2.11,0,0,1,1.81-1.08A1.63,1.63,0,0,1,565,42.58,2.07,2.07,0,0,1,567,41.43c1.06,0,1.83.54,1.83,2v5.73h-1.51V44c0-1-.3-1.36-.91-1.36s-1.21.48-1.21,1.47v5.06h-1.51V44c0-1-.29-1.36-.92-1.36s-1.2.49-1.2,1.47v5.06H560Z" fill="#3b4351"/><path d="M570.37,41.62h1.43v.89h0a2.11,2.11,0,0,1,1.81-1.08,1.63,1.63,0,0,1,1.75,1.15,2.06,2.06,0,0,1,1.91-1.15c1.06,0,1.83.54,1.83,2v5.73h-1.51V44c0-1-.3-1.36-.91-1.36s-1.21.48-1.21,1.47v5.06H574V44c0-1-.29-1.36-.92-1.36s-1.2.49-1.2,1.47v5.06h-1.51Z" fill="#3b4351"/><path d="M580.37,45.39c0-2.35.61-4,2.8-4S586,43,586,45.39s-.72,4-2.81,4S580.37,47.75,580.37,45.39Zm2.8,2.85c1.11,0,1.3-.93,1.3-2.85,0-1.67-.19-2.84-1.3-2.84s-1.29,1.17-1.29,2.84C581.88,47.31,582.09,48.24,583.17,48.24Z" fill="#3b4351"/><path d="M587.14,41.62h1.43v.89h0a2.16,2.16,0,0,1,1.94-1.08c1.15,0,1.87.52,1.87,2v5.69h-1.51V44c0-1-.26-1.36-1-1.36-.61,0-1.2.46-1.2,1.47v5.06h-1.52Z" fill="#3b4351"/><path d="M602.18,47.59c0,.28.17.53.39.53a.59.59,0,0,0,.26,0v1a1.63,1.63,0,0,1-.75.18c-.67,0-1.23-.26-1.27-1h0a2,2,0,0,1-1.88,1.11c-1.21,0-2-.66-2-2.12a2.09,2.09,0,0,1,1.75-2.37l1.18-.32c.55-.15.88-.31.88-1s-.23-1.12-1-1.12c-1,0-1.15.72-1.15,1.45h-1.43c0-1.61.66-2.48,2.65-2.48,1.33,0,2.39.52,2.39,1.85Zm-1.43-2.41a11.23,11.23,0,0,1-1.68.7,1.24,1.24,0,0,0-.61,1.22c0,.63.3,1.14.93,1.14.92,0,1.36-.68,1.36-1.8Z" fill="#3b4351"/><path d="M603.72,41.62h1.43v.89h0a2.15,2.15,0,0,1,1.93-1.08c1.15,0,1.88.52,1.88,2v5.69h-1.51V44c0-1-.27-1.36-1-1.36-.62,0-1.21.46-1.21,1.47v5.06h-1.51Z" fill="#3b4351"/><path d="M614.31,48.24h0a1.61,1.61,0,0,1-1.66,1.12c-1.75,0-2.46-1.49-2.46-4.07,0-3.34,1.18-3.86,2.32-3.86a1.73,1.73,0,0,1,1.71,1.08h0V39.16h1.51v10h-1.42Zm-1.38-5.61c-.85,0-1.17.7-1.17,2.73,0,1.71.21,2.79,1.27,2.79s1.28-1,1.28-2.67C614.31,43.67,614.11,42.63,612.93,42.63Z" fill="#3b4351"/><path d="M620.65,39.16h1.59v4h2.94v-4h1.6v10h-1.6V44.51h-2.94v4.65h-1.59Z" fill="#3b4351"/><path d="M628,45.39c0-2.35.61-4,2.8-4s2.81,1.61,2.81,4-.72,4-2.81,4S628,47.75,628,45.39Zm2.8,2.85c1.11,0,1.3-.93,1.3-2.85,0-1.67-.19-2.84-1.3-2.84s-1.29,1.17-1.29,2.84C629.55,47.31,629.76,48.24,630.84,48.24Z" fill="#3b4351"/><path d="M638.67,48.28h0a2.15,2.15,0,0,1-1.93,1.08c-1.12,0-1.88-.52-1.88-2.47V41.62h1.52V47c0,.84.36,1.12,1,1.12a1.17,1.17,0,0,0,1.23-1.26V41.62h1.51v7.54h-1.42Z" fill="#3b4351"/><path d="M644.8,43.82v-.19c0-.61-.21-1.17-1-1.17-.6,0-1.08.27-1.08,1s.27.83,1.07,1.11l1,.34a2,2,0,0,1,1.64,2.17c0,1.61-1.19,2.3-2.7,2.3-1.9,0-2.48-.89-2.48-2.34v-.28h1.35V47c0,.89.29,1.35,1.17,1.35S645,47.9,645,47.21a1.1,1.1,0,0,0-.83-1.1l-1.23-.44a2,2,0,0,1-1.62-2.17c0-1.41,1-2.07,2.58-2.07,1.92,0,2.36,1.12,2.36,2.06v.33Z" fill="#3b4351"/><path d="M648.81,45.59V46c0,1,.13,2.3,1.26,2.3s1.21-1.22,1.21-1.68h1.43a2.48,2.48,0,0,1-2.65,2.72c-1.23,0-2.76-.37-2.76-3.86,0-2,.44-4.07,2.79-4.07,2.1,0,2.66,1.27,2.66,3.36v.8Zm2.43-1v-.41c0-1-.31-1.68-1.17-1.68s-1.26,1-1.26,1.94v.15Z" fill="#3b4351"/><path d="M657.06,45.39c0-2.35.62-4,2.8-4s2.82,1.61,2.82,4-.73,4-2.82,4S657.06,47.75,657.06,45.39Zm2.8,2.85c1.11,0,1.3-.93,1.3-2.85,0-1.67-.19-2.84-1.3-2.84s-1.29,1.17-1.29,2.84C658.57,47.31,658.78,48.24,659.86,48.24Z" fill="#3b4351"/><path d="M664.3,42.74h-1V41.62h1v-.7c0-1.41.68-1.87,1.92-1.87a6.4,6.4,0,0,1,.82,0v1.16h-.42c-.56,0-.81.21-.81.72v.65H667v1.12h-1.23v6.42H664.3Z" fill="#3b4351"/><path d="M671.18,39.16h3.53a2.31,2.31,0,0,1,2.54,2.58c0,1.28-.56,2.28-1.67,2.45v0c1,.1,1.52.65,1.57,2,0,.66,0,1.43.06,2a1.08,1.08,0,0,0,.47.87h-1.8a1.61,1.61,0,0,1-.27-.88c0-.3,0-.61,0-.9s0-.63,0-1c0-1.1-.38-1.57-1.46-1.57h-1.3v4.34h-1.6Zm2.88,4.45A1.47,1.47,0,0,0,675.65,42c0-1.07-.45-1.63-1.51-1.63h-1.36v3.25Z" fill="#3b4351"/><path d="M683.55,47.59c0,.28.17.53.39.53a.54.54,0,0,0,.25,0v1a1.55,1.55,0,0,1-.74.18c-.67,0-1.23-.26-1.27-1h0a2,2,0,0,1-1.88,1.11c-1.22,0-2-.66-2-2.12a2.08,2.08,0,0,1,1.75-2.37l1.18-.32c.54-.15.88-.31.88-1s-.24-1.12-1-1.12c-1,0-1.14.72-1.14,1.45h-1.43c0-1.61.65-2.48,2.64-2.48,1.33,0,2.4.52,2.4,1.85Zm-1.43-2.41a11.23,11.23,0,0,1-1.68.7,1.25,1.25,0,0,0-.62,1.22c0,.63.31,1.14.94,1.14.91,0,1.36-.68,1.36-1.8Z" fill="#3b4351"/><path d="M685.16,41.62h1.43v.89h0a2.09,2.09,0,0,1,1.8-1.08,1.65,1.65,0,0,1,1.76,1.15,2,2,0,0,1,1.9-1.15c1.07,0,1.84.54,1.84,2v5.73h-1.52V44c0-1-.29-1.36-.91-1.36s-1.2.48-1.2,1.47v5.06h-1.52V44c0-1-.29-1.36-.92-1.36s-1.19.49-1.19,1.47v5.06h-1.51Z" fill="#3b4351"/><path d="M696.75,45.59V46c0,1,.13,2.3,1.26,2.3s1.2-1.22,1.2-1.68h1.43A2.48,2.48,0,0,1,698,49.36c-1.24,0-2.76-.37-2.76-3.86,0-2,.43-4.07,2.78-4.07,2.1,0,2.67,1.27,2.67,3.36v.8Zm2.42-1v-.41c0-1-.31-1.68-1.16-1.68s-1.26,1-1.26,1.94v.15Z" fill="#3b4351"/><path d="M705.18,43.82v-.19c0-.61-.21-1.17-1-1.17-.6,0-1.08.27-1.08,1s.27.83,1.07,1.11l1,.34a2,2,0,0,1,1.64,2.17c0,1.61-1.2,2.3-2.71,2.3-1.9,0-2.48-.89-2.48-2.34v-.28h1.35V47c0,.89.29,1.35,1.17,1.35s1.24-.42,1.24-1.11a1.09,1.09,0,0,0-.83-1.1l-1.23-.44a2,2,0,0,1-1.61-2.17c0-1.41,1-2.07,2.57-2.07,1.92,0,2.36,1.12,2.36,2.06v.33Z" fill="#3b4351"/><path d="M709.2,45.59V46c0,1,.12,2.3,1.26,2.3s1.2-1.22,1.2-1.68h1.43a2.48,2.48,0,0,1-2.65,2.72c-1.23,0-2.76-.37-2.76-3.86,0-2,.44-4.07,2.79-4.07,2.1,0,2.66,1.27,2.66,3.36v.8Zm2.42-1v-.41c0-1-.31-1.68-1.16-1.68s-1.26,1-1.26,1.94v.15Z" fill="#3b4351"/><path d="M717.62,43.82v-.19c0-.61-.21-1.17-1-1.17-.6,0-1.08.27-1.08,1s.27.83,1.07,1.11l1,.34a2,2,0,0,1,1.64,2.17c0,1.61-1.19,2.3-2.7,2.3-1.91,0-2.48-.89-2.48-2.34v-.28h1.34V47c0,.89.3,1.35,1.18,1.35s1.23-.42,1.23-1.11a1.09,1.09,0,0,0-.82-1.1l-1.24-.44a2,2,0,0,1-1.61-2.17c0-1.41,1-2.07,2.58-2.07,1.92,0,2.35,1.12,2.35,2.06v.33Z" fill="#3b4351"/><path d="M728.64,47.59c0,.28.17.53.4.53a.57.57,0,0,0,.25,0v1a1.63,1.63,0,0,1-.75.18c-.67,0-1.23-.26-1.27-1h0a1.94,1.94,0,0,1-1.87,1.11c-1.22,0-2-.66-2-2.12a2.09,2.09,0,0,1,1.75-2.37l1.18-.32c.55-.15.88-.31.88-1s-.23-1.12-1-1.12c-1,0-1.15.72-1.15,1.45H723.6c0-1.61.66-2.48,2.65-2.48,1.33,0,2.39.52,2.39,1.85Zm-1.43-2.41a10.81,10.81,0,0,1-1.68.7,1.24,1.24,0,0,0-.61,1.22c0,.63.31,1.14.94,1.14.91,0,1.35-.68,1.35-1.8Z" fill="#3b4351"/><path d="M729.51,41.62h1V39.48h1.52v2.14h1.23v1.12h-1.23v4.5c0,.6.17.8.68.8a3.78,3.78,0,0,0,.55,0v1.12a5.17,5.17,0,0,1-1.22.12c-1,0-1.53-.29-1.53-1.82V42.74h-1Z" fill="#3b4351"/><path d="M737.53,39.16h1.6v4.35h0l3-4.35h1.75l-2.88,4.21,3.19,5.79h-1.81L740,44.66l-.88,1.26v3.24h-1.6Z" fill="#3b4351"/><path d="M749.64,47.59c0,.28.17.53.4.53a.57.57,0,0,0,.25,0v1a1.63,1.63,0,0,1-.75.18c-.67,0-1.23-.26-1.27-1h0a1.94,1.94,0,0,1-1.87,1.11c-1.22,0-2-.66-2-2.12a2.09,2.09,0,0,1,1.75-2.37l1.18-.32c.55-.15.88-.31.88-1s-.23-1.12-1-1.12c-1,0-1.15.72-1.15,1.45H744.6c0-1.61.66-2.48,2.65-2.48,1.33,0,2.39.52,2.39,1.85Zm-1.43-2.41a10.81,10.81,0,0,1-1.68.7,1.24,1.24,0,0,0-.61,1.22c0,.63.31,1.14.94,1.14.91,0,1.35-.68,1.35-1.8Z" fill="#3b4351"/><path d="M751.18,41.62h1.51V42.8h0a1.87,1.87,0,0,1,1.75-1.37.94.94,0,0,1,.37,0V43a2.3,2.3,0,0,0-.63-.08c-.69,0-1.52.31-1.52,1.71v4.51h-1.51Z" fill="#3b4351"/><path d="M755.73,41.62h1.43v.89h0a2.15,2.15,0,0,1,1.93-1.08c1.15,0,1.88.52,1.88,2v5.69H759.5V44c0-1-.27-1.36-1-1.36-.62,0-1.21.46-1.21,1.47v5.06h-1.51Z" fill="#3b4351"/><path d="M767.41,47.59c0,.28.17.53.39.53a.54.54,0,0,0,.25,0v1a1.58,1.58,0,0,1-.74.18c-.67,0-1.23-.26-1.27-1h0a2,2,0,0,1-1.88,1.11c-1.22,0-2-.66-2-2.12a2.08,2.08,0,0,1,1.75-2.37l1.18-.32c.54-.15.88-.31.88-1s-.24-1.12-1-1.12c-1,0-1.15.72-1.15,1.45h-1.42c0-1.61.65-2.48,2.64-2.48,1.33,0,2.4.52,2.4,1.85ZM766,45.18a11.23,11.23,0,0,1-1.68.7,1.23,1.23,0,0,0-.62,1.22c0,.63.31,1.14.94,1.14.91,0,1.36-.68,1.36-1.8Z" fill="#3b4351"/><path d="M769,39.16h1.51v5.62h0l2.28-3.16h1.75l-2.27,2.91,2.56,4.64h-1.65l-1.85-3.43-.85,1v2.4H769Z" fill="#3b4351"/><path d="M775.58,47.31h1.6v1.85h-1.6Z" fill="#3b4351"/><path d="M297.55,63.16h1.59v4h2.95v-4h1.59v10h-1.59V68.51h-2.95v4.65h-1.59Z" fill="#3b4351"/><path d="M306.54,69.59V70c0,1,.12,2.3,1.26,2.3s1.2-1.22,1.2-1.68h1.43a2.48,2.48,0,0,1-2.65,2.72c-1.23,0-2.76-.37-2.76-3.86,0-2,.44-4.07,2.79-4.07,2.1,0,2.66,1.27,2.66,3.36v.8Zm2.42-1v-.41c0-1-.31-1.68-1.16-1.68s-1.26,1-1.26,1.94v.15Z" fill="#3b4351"/><path d="M311.72,63.16h1.51v3.35h0A1.73,1.73,0,0,1,315,65.43c1.14,0,2.32.52,2.32,3.86,0,2.59-.71,4.07-2.46,4.07a1.61,1.61,0,0,1-1.66-1.12h0v.92h-1.42Zm2.7,9c1.06,0,1.27-1.08,1.27-2.79,0-2-.32-2.73-1.17-2.73-1.18,0-1.38,1-1.38,2.85C313.14,71.1,313.38,72.15,314.42,72.15Z" fill="#3b4351"/><path d="M318.45,65.62H320V66.8h0a1.87,1.87,0,0,1,1.75-1.37.94.94,0,0,1,.37,0V67a2.3,2.3,0,0,0-.63-.08c-.69,0-1.52.31-1.52,1.71v4.51h-1.51Z" fill="#3b4351"/><path d="M324.08,69.59V70c0,1,.12,2.3,1.26,2.3s1.2-1.22,1.2-1.68H328a2.48,2.48,0,0,1-2.65,2.72c-1.23,0-2.76-.37-2.76-3.86,0-2,.44-4.07,2.79-4.07,2.1,0,2.66,1.27,2.66,3.36v.8Zm2.42-1v-.41c0-1-.31-1.68-1.16-1.68s-1.26,1-1.26,1.94v.15Z" fill="#3b4351"/><path d="M328.74,65.62h1.57l1.05,5.94h0l1.12-5.94h1.71l1.12,5.94h0l1-5.94h1.51l-1.72,7.54H334.5l-1.18-5.86h0l-1.08,5.86h-1.76Z" fill="#3b4351"/><path d="M342.1,67.82v-.19c0-.61-.21-1.17-1-1.17-.6,0-1.08.27-1.08,1s.27.83,1.07,1.11l1,.34a2,2,0,0,1,1.64,2.17c0,1.61-1.19,2.3-2.7,2.3-1.91,0-2.48-.89-2.48-2.34v-.28h1.35V71c0,.89.29,1.35,1.17,1.35s1.24-.42,1.24-1.11a1.1,1.1,0,0,0-.83-1.1l-1.23-.44a2,2,0,0,1-1.62-2.17c0-1.41,1-2.07,2.58-2.07,1.92,0,2.36,1.12,2.36,2.06v.33Z" fill="#3b4351"/><path d="M352,72.28h0a2.17,2.17,0,0,1-1.93,1.08c-1.12,0-1.88-.52-1.88-2.47V65.62h1.51V71c0,.84.37,1.12,1,1.12a1.18,1.18,0,0,0,1.23-1.26V65.62h1.51v7.54H352Z" fill="#3b4351"/><path d="M354.9,65.62h1.43v.89h.05a2.13,2.13,0,0,1,1.93-1.08c1.15,0,1.88.52,1.88,2v5.69h-1.52V68c0-1-.26-1.36-1.05-1.36-.61,0-1.2.46-1.2,1.47v5.06H354.9Z" fill="#3b4351"/><path d="M365.49,72.24h0a1.61,1.61,0,0,1-1.65,1.12c-1.75,0-2.47-1.49-2.47-4.07,0-3.34,1.18-3.86,2.33-3.86a1.73,1.73,0,0,1,1.71,1.08h0V63.16h1.51v10h-1.43Zm-1.37-5.61c-.86,0-1.18.7-1.18,2.73,0,1.71.21,2.79,1.28,2.79s1.27-1.05,1.27-2.67C365.49,67.67,365.29,66.63,364.12,66.63Z" fill="#3b4351"/><path d="M369.68,69.59V70c0,1,.12,2.3,1.26,2.3s1.2-1.22,1.2-1.68h1.43a2.48,2.48,0,0,1-2.65,2.72c-1.23,0-2.76-.37-2.76-3.86,0-2,.44-4.07,2.79-4.07,2.1,0,2.66,1.27,2.66,3.36v.8Zm2.42-1v-.41c0-1-.31-1.68-1.16-1.68s-1.26,1-1.26,1.94v.15Z" fill="#3b4351"/><path d="M374.85,65.62h1.52V66.8h0a1.87,1.87,0,0,1,1.76-1.37.89.89,0,0,1,.36,0V67a2.18,2.18,0,0,0-.63-.08c-.69,0-1.51.31-1.51,1.71v4.51h-1.52Z" fill="#3b4351"/><path d="M382.72,63.16h2.5L387,70.57h0l1.74-7.41h2.43v10h-1.51V64.84h0l-2,8.32h-1.34l-2-8.32h0v8.32h-1.51Z" fill="#3b4351"/><path d="M392.44,69.39c0-2.35.61-4,2.8-4s2.81,1.61,2.81,4-.72,4-2.81,4S392.44,71.75,392.44,69.39Zm2.8,2.85c1.11,0,1.3-.93,1.3-2.85,0-1.67-.19-2.84-1.3-2.84S394,67.72,394,69.39C394,71.31,394.16,72.24,395.24,72.24Z" fill="#3b4351"/><path d="M402.46,67.82v-.19c0-.61-.21-1.17-1-1.17-.6,0-1.08.27-1.08,1s.27.83,1.06,1.11l1,.34a2,2,0,0,1,1.64,2.17c0,1.61-1.19,2.3-2.7,2.3-1.91,0-2.48-.89-2.48-2.34v-.28h1.34V71c0,.89.3,1.35,1.18,1.35s1.23-.42,1.23-1.11a1.09,1.09,0,0,0-.82-1.1l-1.24-.44A2,2,0,0,1,399,67.5c0-1.41,1-2.07,2.58-2.07,1.92,0,2.35,1.12,2.35,2.06v.33Z" fill="#3b4351"/><path d="M406.48,69.59V70c0,1,.13,2.3,1.26,2.3S409,71.1,409,70.64h1.42a2.48,2.48,0,0,1-2.64,2.72c-1.24,0-2.76-.37-2.76-3.86,0-2,.43-4.07,2.78-4.07,2.11,0,2.67,1.27,2.67,3.36v.8Zm2.42-1v-.41c0-1-.3-1.68-1.16-1.68s-1.26,1-1.26,1.94v.15Z" fill="#3b4351"/><path d="M414.91,67.82v-.19c0-.61-.21-1.17-1-1.17-.6,0-1.07.27-1.07,1s.26.83,1.06,1.11l1,.34a2,2,0,0,1,1.64,2.17c0,1.61-1.19,2.3-2.71,2.3-1.9,0-2.48-.89-2.48-2.34v-.28h1.35V71c0,.89.29,1.35,1.17,1.35s1.24-.42,1.24-1.11a1.09,1.09,0,0,0-.83-1.1L413,69.67a2,2,0,0,1-1.61-2.17c0-1.41,1-2.07,2.57-2.07,1.92,0,2.36,1.12,2.36,2.06v.33Z" fill="#3b4351"/><path d="M422.29,69.59V70c0,1,.12,2.3,1.26,2.3s1.2-1.22,1.2-1.68h1.43a2.48,2.48,0,0,1-2.65,2.72c-1.23,0-2.76-.37-2.76-3.86,0-2,.44-4.07,2.79-4.07,2.1,0,2.66,1.27,2.66,3.36v.8Zm2.42-1v-.41c0-1-.31-1.68-1.16-1.68s-1.26,1-1.26,1.94v.15Z" fill="#3b4351"/><path d="M430.71,67.82v-.19c0-.61-.21-1.17-1-1.17-.6,0-1.08.27-1.08,1s.27.83,1.07,1.11l1,.34a2,2,0,0,1,1.64,2.17c0,1.61-1.19,2.3-2.7,2.3-1.91,0-2.48-.89-2.48-2.34v-.28h1.34V71c0,.89.3,1.35,1.18,1.35s1.23-.42,1.23-1.11a1.09,1.09,0,0,0-.82-1.1l-1.24-.44a2,2,0,0,1-1.61-2.17c0-1.41,1-2.07,2.58-2.07,1.92,0,2.35,1.12,2.35,2.06v.33Z" fill="#3b4351"/><path d="M438.51,70.41c-.11,1.81-.7,3-2.57,3-2.19,0-2.81-1.61-2.81-4s.62-4,2.81-4a2.43,2.43,0,0,1,2.59,2.7H437c0-.7-.19-1.62-1.08-1.58-1.08,0-1.29,1.17-1.29,2.84s.21,2.85,1.29,2.85c.84,0,1.14-.69,1.14-1.83Z" fill="#3b4351"/><path d="M444.59,71.59c0,.28.17.53.39.53a.54.54,0,0,0,.25,0v1a1.55,1.55,0,0,1-.74.18c-.67,0-1.23-.26-1.27-1h0a2,2,0,0,1-1.88,1.11c-1.22,0-2-.66-2-2.12a2.08,2.08,0,0,1,1.75-2.37l1.18-.32c.54-.15.88-.31.88-1s-.24-1.12-1-1.12c-1,0-1.14.72-1.14,1.45h-1.43c0-1.61.65-2.48,2.64-2.48,1.33,0,2.4.52,2.4,1.85Zm-1.43-2.41a11.23,11.23,0,0,1-1.68.7,1.25,1.25,0,0,0-.62,1.22c0,.63.31,1.14.94,1.14.91,0,1.36-.68,1.36-1.8Z" fill="#3b4351"/><path d="M449.38,73.36a1.74,1.74,0,0,1-1.71-1.08h0v3.34h-1.51v-10h1.43v.93h0a1.8,1.8,0,0,1,1.7-1.12c1.72,0,2.42,1.47,2.42,4.06C451.7,72.66,450.43,73.36,449.38,73.36Zm-.55-6.73c-1,0-1.27,1.05-1.27,2.68,0,1.8.22,2.84,1.28,2.84.86,0,1.26-.64,1.26-2.73C450.1,67.71,449.89,66.63,448.83,66.63Z" fill="#3b4351"/><path d="M454.16,69.59V70c0,1,.13,2.3,1.26,2.3s1.21-1.22,1.21-1.68h1.43a2.48,2.48,0,0,1-2.65,2.72c-1.23,0-2.76-.37-2.76-3.86,0-2,.43-4.07,2.79-4.07,2.1,0,2.66,1.27,2.66,3.36v.8Zm2.43-1v-.41c0-1-.31-1.68-1.17-1.68s-1.26,1-1.26,1.94v.15Z" fill="#3b4351"/><path d="M462.8,63.16h5.41V64.5H464.4v2.78H468v1.34H464.4v3.19h3.92v1.35H462.8Z" fill="#3b4351"/><path d="M471,73.8a1,1,0,0,0,1.09.9,1.25,1.25,0,0,0,1.28-1.41V72.07h0a1.81,1.81,0,0,1-1.71,1c-1.75,0-2.26-1.72-2.26-3.79,0-1.66.26-3.88,2.4-3.88a1.65,1.65,0,0,1,1.65,1.12h0v-.93h1.43V72.8c0,1.83-.79,2.94-2.82,2.94-2.24,0-2.49-1.32-2.49-1.94ZM472,71.9c1.18,0,1.31-1.49,1.31-2.68s-.16-2.59-1.21-2.59-1.27,1.12-1.27,2.52S470.89,71.9,472,71.9Z" fill="#3b4351"/><path d="M477.18,65.62l1.3,5.66h0l1.2-5.66h1.59l-2.08,7.82c-.6,2.06-1.06,2.34-2.63,2.3a3.05,3.05,0,0,1-.6-.06v-1.2a2,2,0,0,0,.49,0c.52,0,.85-.1,1-.59l.2-.61-2.15-7.71Z" fill="#3b4351"/><path d="M485.38,73.36a1.74,1.74,0,0,1-1.71-1.08h0v3.34h-1.52v-10h1.43v.93h0a1.79,1.79,0,0,1,1.7-1.12c1.72,0,2.42,1.47,2.42,4.06C487.71,72.66,486.43,73.36,485.38,73.36Zm-.54-6.73c-1,0-1.28,1.05-1.28,2.68,0,1.8.23,2.84,1.29,2.84.86,0,1.26-.64,1.26-2.73C486.11,67.71,485.9,66.63,484.84,66.63Z" fill="#3b4351"/><path d="M488.2,65.62h1V63.48h1.52v2.14H492v1.12h-1.23v4.5c0,.6.16.8.68.8a3.78,3.78,0,0,0,.55,0v1.12a5.17,5.17,0,0,1-1.22.12c-1,0-1.53-.29-1.53-1.82V66.74h-1Z" fill="#3b4351"/><path d="M492.83,63.05h1.51v1.51h-1.51Zm0,2.57h1.51v7.54h-1.51Z" fill="#3b4351"/><path d="M500.81,71.59c0,.28.17.53.39.53a.59.59,0,0,0,.26,0v1a1.63,1.63,0,0,1-.75.18c-.67,0-1.23-.26-1.27-1h0a1.94,1.94,0,0,1-1.87,1.11c-1.22,0-2-.66-2-2.12a2.09,2.09,0,0,1,1.75-2.37l1.18-.32c.55-.15.88-.31.88-1s-.23-1.12-1-1.12c-1,0-1.15.72-1.15,1.45h-1.43c0-1.61.66-2.48,2.65-2.48,1.33,0,2.39.52,2.39,1.85Zm-1.43-2.41a10.81,10.81,0,0,1-1.68.7,1.24,1.24,0,0,0-.61,1.22c0,.63.3,1.14.94,1.14.91,0,1.35-.68,1.35-1.8Z" fill="#3b4351"/><path d="M502.35,65.62h1.43v.89h0a2.15,2.15,0,0,1,1.93-1.08c1.15,0,1.88.52,1.88,2v5.69h-1.51V68c0-1-.27-1.36-1.05-1.36-.62,0-1.21.46-1.21,1.47v5.06h-1.51Z" fill="#3b4351"/><path d="M512.44,63.16H514v3.35h0a1.74,1.74,0,0,1,1.71-1.08c1.15,0,2.33.52,2.33,3.86,0,2.59-.72,4.07-2.47,4.07a1.61,1.61,0,0,1-1.65-1.12h0v.92h-1.43Zm2.71,9c1.06,0,1.27-1.08,1.27-2.79,0-2-.32-2.73-1.17-2.73-1.18,0-1.38,1-1.38,2.85C513.87,71.1,514.11,72.15,515.15,72.15Z" fill="#3b4351"/><path d="M518.88,69.39c0-2.35.62-4,2.8-4s2.82,1.61,2.82,4-.73,4-2.82,4S518.88,71.75,518.88,69.39Zm2.8,2.85c1.11,0,1.31-.93,1.31-2.85,0-1.67-.2-2.84-1.31-2.84s-1.28,1.17-1.28,2.84C520.4,71.31,520.61,72.24,521.68,72.24Z" fill="#3b4351"/><path d="M525.66,65.62h1.43v.89h0a2.15,2.15,0,0,1,1.93-1.08c1.15,0,1.88.52,1.88,2v5.69h-1.51V68c0-1-.27-1.36-1-1.36-.62,0-1.21.46-1.21,1.47v5.06h-1.51Z" fill="#3b4351"/><path d="M536.25,72.24h0a1.61,1.61,0,0,1-1.66,1.12c-1.75,0-2.46-1.49-2.46-4.07,0-3.34,1.18-3.86,2.32-3.86a1.73,1.73,0,0,1,1.71,1.08h0V63.16h1.51v10h-1.42Zm-1.38-5.61c-.85,0-1.17.7-1.17,2.73,0,1.71.21,2.79,1.27,2.79s1.28-1.05,1.28-2.67C536.25,67.67,536.05,66.63,534.87,66.63Z" fill="#3b4351"/><path d="M544.07,71.59c0,.28.17.53.39.53a.59.59,0,0,0,.26,0v1a1.63,1.63,0,0,1-.75.18c-.67,0-1.23-.26-1.27-1h0a2,2,0,0,1-1.88,1.11c-1.21,0-2-.66-2-2.12a2.09,2.09,0,0,1,1.75-2.37l1.18-.32c.55-.15.88-.31.88-1s-.23-1.12-1-1.12c-1,0-1.15.72-1.15,1.45H539c0-1.61.66-2.48,2.65-2.48,1.33,0,2.39.52,2.39,1.85Zm-1.43-2.41a11.23,11.23,0,0,1-1.68.7,1.24,1.24,0,0,0-.61,1.22c0,.63.3,1.14.93,1.14.91,0,1.36-.68,1.36-1.8Z" fill="#3b4351"/><path d="M547.12,73.8a1,1,0,0,0,1.09.9,1.25,1.25,0,0,0,1.28-1.41V72.07h0a1.81,1.81,0,0,1-1.71,1c-1.75,0-2.25-1.72-2.25-3.79,0-1.66.25-3.88,2.39-3.88a1.66,1.66,0,0,1,1.66,1.12h0v-.93H551V72.8c0,1.83-.78,2.94-2.81,2.94-2.24,0-2.5-1.32-2.5-1.94Zm1.07-1.9c1.17,0,1.3-1.49,1.3-2.68s-.15-2.59-1.21-2.59S547,67.75,547,69.15,547.07,71.9,548.19,71.9Z" fill="#3b4351"/><path d="M553.65,69.59V70c0,1,.12,2.3,1.26,2.3s1.2-1.22,1.2-1.68h1.43a2.48,2.48,0,0,1-2.65,2.72c-1.23,0-2.76-.37-2.76-3.86,0-2,.44-4.07,2.79-4.07,2.1,0,2.66,1.27,2.66,3.36v.8Zm2.42-1v-.41c0-1-.31-1.68-1.16-1.68s-1.26,1-1.26,1.94v.15Z" fill="#3b4351"/><path d="M558.46,71.31h1.6v1.85h-1.6Z" fill="#3b4351"/><path d="M297.55,87.16H303V88.5h-3.81v2.78h3.59v1.34h-3.59v3.19h3.93v1.35h-5.52Z" fill="#3b4351"/><path d="M305.7,97.8a1,1,0,0,0,1.09.9,1.24,1.24,0,0,0,1.27-1.41V96.07h0a1.81,1.81,0,0,1-1.71,1c-1.75,0-2.26-1.72-2.26-3.79,0-1.66.25-3.88,2.4-3.88a1.66,1.66,0,0,1,1.65,1.12h0v-.93h1.43V96.8c0,1.83-.79,2.94-2.82,2.94-2.24,0-2.49-1.32-2.49-1.94Zm1.06-1.9c1.18,0,1.3-1.49,1.3-2.68s-.15-2.59-1.2-2.59-1.28,1.12-1.28,2.52S305.64,95.9,306.76,95.9Z" fill="#3b4351"/><path d="M311.93,89.62l1.3,5.66h0l1.2-5.66H316L314,97.44c-.6,2.06-1.06,2.34-2.63,2.3a3.05,3.05,0,0,1-.6-.06v-1.2a2,2,0,0,0,.49,0c.51,0,.85-.1,1-.59l.19-.61-2.14-7.71Z" fill="#3b4351"/><path d="M320.13,97.36a1.74,1.74,0,0,1-1.71-1.08h0v3.34h-1.51v-10h1.43v.93h0A1.78,1.78,0,0,1,320,89.43c1.73,0,2.43,1.47,2.43,4.06C322.46,96.66,321.18,97.36,320.13,97.36Zm-.55-6.73c-1,0-1.27,1.05-1.27,2.68,0,1.8.22,2.84,1.29,2.84.85,0,1.26-.64,1.26-2.73C320.86,91.71,320.65,90.63,319.58,90.63Z" fill="#3b4351"/><path d="M322.94,89.62h1V87.48h1.51v2.14h1.23v1.12h-1.23v4.5c0,.6.17.8.69.8a3.74,3.74,0,0,0,.54,0v1.12a5.08,5.08,0,0,1-1.21.12c-1,0-1.53-.29-1.53-1.82V90.74h-1Z" fill="#3b4351"/><path d="M332.17,93.59V94c0,1,.13,2.3,1.26,2.3s1.21-1.22,1.21-1.68h1.42a2.48,2.48,0,0,1-2.64,2.72c-1.24,0-2.76-.37-2.76-3.86,0-2,.43-4.07,2.78-4.07,2.11,0,2.67,1.27,2.67,3.36v.8Zm2.42-1v-.41c0-1-.31-1.68-1.16-1.68s-1.26,1-1.26,1.94v.15Z" fill="#3b4351"/><path d="M338.64,93.25l-1.95-3.63h1.65l1.18,2.5,1.23-2.5h1.63l-2,3.63,2,3.91h-1.64l-1.31-2.79-1.32,2.79h-1.61Z" fill="#3b4351"/><path d="M344.53,93.59V94c0,1,.13,2.3,1.26,2.3S347,95.1,347,94.64h1.43a2.48,2.48,0,0,1-2.65,2.72c-1.23,0-2.76-.37-2.76-3.86,0-2,.43-4.07,2.79-4.07,2.1,0,2.66,1.27,2.66,3.36v.8Zm2.42-1v-.41c0-1-.3-1.68-1.16-1.68s-1.26,1-1.26,1.94v.15Z" fill="#3b4351"/><path d="M349.71,89.62h1.51V90.8h0A1.87,1.87,0,0,1,353,89.43a.94.94,0,0,1,.37,0V91a2.3,2.3,0,0,0-.63-.08c-.69,0-1.52.31-1.52,1.71v4.51h-1.51Z" fill="#3b4351"/><path d="M353.45,89.62h1V87.48H356v2.14h1.23v1.12H356v4.5c0,.6.17.8.68.8a3.78,3.78,0,0,0,.55,0v1.12a5.17,5.17,0,0,1-1.22.12c-1,0-1.53-.29-1.53-1.82V90.74h-1Z" fill="#3b4351"/><path d="M361.26,91.82v-.19c0-.61-.21-1.17-1-1.17-.6,0-1.08.27-1.08,1s.27.83,1.06,1.11l1,.34a2,2,0,0,1,1.64,2.17c0,1.61-1.19,2.3-2.7,2.3-1.91,0-2.48-.89-2.48-2.34v-.28H359V95c0,.89.3,1.35,1.18,1.35s1.23-.42,1.23-1.11a1.09,1.09,0,0,0-.83-1.1l-1.23-.44a2,2,0,0,1-1.61-2.17c0-1.41,1-2.07,2.58-2.07,1.92,0,2.35,1.12,2.35,2.06v.33Z" fill="#3b4351"/><path d="M367.41,87.05h1.51v1.51h-1.51Zm0,2.57h1.51v7.54h-1.51Z" fill="#3b4351"/><path d="M370.51,89.62h1.43v.89h0a2.11,2.11,0,0,1,1.81-1.08,1.63,1.63,0,0,1,1.75,1.15,2.07,2.07,0,0,1,1.91-1.15c1.06,0,1.83.54,1.83,2v5.73h-1.51V92c0-1-.29-1.36-.91-1.36s-1.21.48-1.21,1.47v5.06h-1.51V92c0-1-.29-1.36-.92-1.36S372,91.12,372,92.1v5.06h-1.52Z" fill="#3b4351"/><path d="M384.05,97.36a1.74,1.74,0,0,1-1.71-1.08h0v3.34H380.8v-10h1.43v.93h0a1.79,1.79,0,0,1,1.7-1.12c1.72,0,2.42,1.47,2.42,4.06C386.38,96.66,385.1,97.36,384.05,97.36Zm-.54-6.73c-1,0-1.28,1.05-1.28,2.68,0,1.8.23,2.84,1.29,2.84.86,0,1.26-.64,1.26-2.73C384.78,91.71,384.57,90.63,383.51,90.63Z" fill="#3b4351"/><path d="M388.84,93.59V94c0,1,.13,2.3,1.26,2.3s1.21-1.22,1.21-1.68h1.42a2.48,2.48,0,0,1-2.64,2.72c-1.24,0-2.76-.37-2.76-3.86,0-2,.43-4.07,2.79-4.07,2.1,0,2.66,1.27,2.66,3.36v.8Zm2.42-1v-.41c0-1-.3-1.68-1.16-1.68s-1.26,1-1.26,1.94v.15Z" fill="#3b4351"/><path d="M394,89.62h1.51V90.8h0a1.87,1.87,0,0,1,1.75-1.37.94.94,0,0,1,.37,0V91a2.3,2.3,0,0,0-.63-.08c-.69,0-1.52.31-1.52,1.71v4.51H394Z" fill="#3b4351"/><path d="M398.5,87.05H400v1.51H398.5Zm0,2.57H400v7.54H398.5Z" fill="#3b4351"/><path d="M406.48,95.59c0,.28.17.53.39.53a.59.59,0,0,0,.26,0v1a1.63,1.63,0,0,1-.75.18c-.67,0-1.23-.26-1.27-1h0a2,2,0,0,1-1.88,1.11c-1.21,0-2-.66-2-2.12A2.09,2.09,0,0,1,403,92.87l1.18-.32c.55-.15.88-.31.88-1s-.23-1.12-1-1.12c-1,0-1.15.72-1.15,1.45h-1.43c0-1.61.66-2.48,2.65-2.48,1.33,0,2.39.52,2.39,1.85Zm-1.43-2.41a11.23,11.23,0,0,1-1.68.7,1.24,1.24,0,0,0-.61,1.22c0,.63.3,1.14.93,1.14.91,0,1.36-.68,1.36-1.8Z" fill="#3b4351"/><path d="M408.09,87.16h1.51v10h-1.51Z" fill="#3b4351"/><path d="M414.56,87.05h1.51v1.51h-1.51Zm0,2.57h1.51v7.54h-1.51Z" fill="#3b4351"/><path d="M417.6,89.62H419v.89h.05A2.13,2.13,0,0,1,421,89.43c1.15,0,1.88.52,1.88,2v5.69h-1.52V92c0-1-.26-1.36-1.05-1.36-.61,0-1.2.46-1.2,1.47v5.06H417.6Z" fill="#3b4351"/><path d="M424.79,90.74h-1.05V89.62h1.05v-.7c0-1.41.69-1.87,1.92-1.87a6.67,6.67,0,0,1,.83,0v1.16h-.42c-.56,0-.82.21-.82.72v.65h1.24v1.12H426.3v6.42h-1.51Zm3.5-3.58h1.52v10h-1.52Z" fill="#3b4351"/><path d="M435.18,96.28h0a2.17,2.17,0,0,1-1.93,1.08c-1.12,0-1.88-.52-1.88-2.47V89.62h1.51V95c0,.84.37,1.12,1,1.12a1.18,1.18,0,0,0,1.24-1.26V89.62h1.51v7.54h-1.43Z" fill="#3b4351"/><path d="M439.37,93.59V94c0,1,.12,2.3,1.26,2.3s1.2-1.22,1.2-1.68h1.43a2.48,2.48,0,0,1-2.65,2.72c-1.23,0-2.76-.37-2.76-3.86,0-2,.44-4.07,2.79-4.07,2.1,0,2.66,1.27,2.66,3.36v.8Zm2.42-1v-.41c0-1-.31-1.68-1.16-1.68s-1.26,1-1.26,1.94v.15Z" fill="#3b4351"/><path d="M444.54,89.62H446v.89h0A2.13,2.13,0,0,1,448,89.43c1.15,0,1.88.52,1.88,2v5.69h-1.52V92c0-1-.26-1.36-1.05-1.36-.61,0-1.2.46-1.2,1.47v5.06h-1.52Z" fill="#3b4351"/><path d="M456.36,94.41c-.11,1.81-.7,3-2.57,3-2.19,0-2.81-1.61-2.81-4s.62-4,2.81-4a2.43,2.43,0,0,1,2.59,2.7h-1.52c0-.7-.18-1.62-1.07-1.58-1.08,0-1.29,1.17-1.29,2.84s.21,2.85,1.29,2.85c.84,0,1.14-.69,1.14-1.83Z" fill="#3b4351"/><path d="M458.8,93.59V94c0,1,.12,2.3,1.26,2.3s1.2-1.22,1.2-1.68h1.43A2.48,2.48,0,0,1,460,97.36c-1.23,0-2.76-.37-2.76-3.86,0-2,.44-4.07,2.79-4.07,2.1,0,2.66,1.27,2.66,3.36v.8Zm2.42-1v-.41c0-1-.31-1.68-1.16-1.68s-1.26,1-1.26,1.94v.15Z" fill="#3b4351"/><path d="M468.64,93.59V94c0,1,.13,2.3,1.26,2.3s1.2-1.22,1.2-1.68h1.43a2.48,2.48,0,0,1-2.64,2.72c-1.24,0-2.76-.37-2.76-3.86,0-2,.43-4.07,2.78-4.07,2.1,0,2.67,1.27,2.67,3.36v.8Zm2.42-1v-.41c0-1-.31-1.68-1.16-1.68s-1.26,1-1.26,1.94v.15Z" fill="#3b4351"/><path d="M475.11,93.25l-1.95-3.63h1.65l1.18,2.5,1.23-2.5h1.63l-2,3.63,2,3.91h-1.64L476,94.37l-1.32,2.79h-1.61Z" fill="#3b4351"/><path d="M479,89.62h1V87.48h1.52v2.14h1.23v1.12h-1.23v4.5c0,.6.16.8.68.8a3.78,3.78,0,0,0,.55,0v1.12a5.17,5.17,0,0,1-1.22.12c-1,0-1.53-.29-1.53-1.82V90.74h-1Z" fill="#3b4351"/><path d="M484.89,93.59V94c0,1,.13,2.3,1.26,2.3s1.21-1.22,1.21-1.68h1.43a2.48,2.48,0,0,1-2.65,2.72c-1.23,0-2.76-.37-2.76-3.86,0-2,.43-4.07,2.79-4.07,2.1,0,2.66,1.27,2.66,3.36v.8Zm2.43-1v-.41c0-1-.31-1.68-1.17-1.68s-1.26,1-1.26,1.94v.15Z" fill="#3b4351"/><path d="M490.07,89.62h1.43v.89h0a2.16,2.16,0,0,1,1.94-1.08c1.14,0,1.87.52,1.87,2v5.69h-1.51V92c0-1-.27-1.36-1-1.36-.62,0-1.21.46-1.21,1.47v5.06h-1.51Z" fill="#3b4351"/><path d="M500.66,96.24h0A1.61,1.61,0,0,1,499,97.36c-1.75,0-2.47-1.49-2.47-4.07,0-3.34,1.18-3.86,2.33-3.86a1.74,1.74,0,0,1,1.71,1.08h0V87.16h1.52v10h-1.43Zm-1.37-5.61c-.86,0-1.18.7-1.18,2.73,0,1.71.21,2.79,1.27,2.79s1.28-1.05,1.28-2.67C500.66,91.67,500.46,90.63,499.29,90.63Z" fill="#3b4351"/><path d="M503.61,87.05h1.51v1.51h-1.51Zm0,2.57h1.51v7.54h-1.51Z" fill="#3b4351"/><path d="M506.65,89.62h1.43v.89h0a2.15,2.15,0,0,1,1.93-1.08c1.15,0,1.88.52,1.88,2v5.69h-1.51V92c0-1-.27-1.36-1.05-1.36-.62,0-1.21.46-1.21,1.47v5.06h-1.51Z" fill="#3b4351"/><path d="M514.89,97.8a1,1,0,0,0,1.1.9,1.24,1.24,0,0,0,1.27-1.41V96.07h0a1.81,1.81,0,0,1-1.71,1c-1.75,0-2.25-1.72-2.25-3.79,0-1.66.25-3.88,2.39-3.88a1.66,1.66,0,0,1,1.66,1.12h0v-.93h1.42V96.8c0,1.83-.78,2.94-2.81,2.94-2.24,0-2.49-1.32-2.49-1.94ZM516,95.9c1.18,0,1.3-1.49,1.3-2.68s-.15-2.59-1.2-2.59-1.28,1.12-1.28,2.52S514.84,95.9,516,95.9Z" fill="#3b4351"/><path d="M523.94,90.74h-1.05V89.62h1.05v-.7c0-1.41.68-1.87,1.92-1.87a6.4,6.4,0,0,1,.82,0v1.16h-.42c-.56,0-.81.21-.81.72v.65h1.23v1.12h-1.23v6.42h-1.51Z" fill="#3b4351"/><path d="M527.37,89.62h1.51V90.8h0a1.85,1.85,0,0,1,1.75-1.37.89.89,0,0,1,.36,0V91a2.18,2.18,0,0,0-.63-.08c-.68,0-1.51.31-1.51,1.71v4.51h-1.51Z" fill="#3b4351"/><path d="M531.48,93.39c0-2.35.62-4,2.8-4s2.82,1.61,2.82,4-.73,4-2.82,4S531.48,95.75,531.48,93.39Zm2.8,2.85c1.11,0,1.31-.93,1.31-2.85,0-1.67-.2-2.84-1.31-2.84S533,91.72,533,93.39C533,95.31,533.21,96.24,534.28,96.24Z" fill="#3b4351"/><path d="M538.33,89.62h1.43v.89h0a2.09,2.09,0,0,1,1.81-1.08,1.64,1.64,0,0,1,1.75,1.15,2,2,0,0,1,1.9-1.15c1.07,0,1.84.54,1.84,2v5.73h-1.52V92c0-1-.29-1.36-.91-1.36s-1.2.48-1.2,1.47v5.06H542V92c0-1-.3-1.36-.93-1.36s-1.19.49-1.19,1.47v5.06h-1.51Z" fill="#3b4351"/><path d="M552.08,87.16h5.4V88.5h-3.81v2.78h3.59v1.34h-3.59v3.19h3.93v1.35h-5.52Z" fill="#3b4351"/><path d="M558,89.62h1V87.48h1.51v2.14h1.23v1.12h-1.23v4.5c0,.6.17.8.69.8a3.74,3.74,0,0,0,.54,0v1.12a5.17,5.17,0,0,1-1.22.12c-1,0-1.52-.29-1.52-1.82V90.74h-1Z" fill="#3b4351"/><path d="M562.6,87.16h1.52v3.28l0,0a2.15,2.15,0,0,1,1.85-1c1.15,0,1.88.52,1.88,2v5.69h-1.52V92c0-1-.28-1.36-1-1.36-.61,0-1.2.48-1.2,1.47v5.06H562.6Z" fill="#3b4351"/><path d="M569.41,87.05h1.51v1.51h-1.51Zm0,2.57h1.51v7.54h-1.51Z" fill="#3b4351"/><path d="M572.15,93.39c0-2.35.62-4,2.8-4s2.82,1.61,2.82,4-.73,4-2.82,4S572.15,95.75,572.15,93.39Zm2.8,2.85c1.11,0,1.31-.93,1.31-2.85,0-1.67-.2-2.84-1.31-2.84s-1.28,1.17-1.28,2.84C573.67,95.31,573.88,96.24,575,96.24Z" fill="#3b4351"/><path d="M582.18,97.36a1.74,1.74,0,0,1-1.71-1.08h0v3.34h-1.51v-10h1.43v.93h0a1.78,1.78,0,0,1,1.69-1.12c1.72,0,2.42,1.47,2.42,4.06C584.5,96.66,583.23,97.36,582.18,97.36Zm-.55-6.73c-1,0-1.27,1.05-1.27,2.68,0,1.8.22,2.84,1.29,2.84.85,0,1.26-.64,1.26-2.73C582.91,91.71,582.7,90.63,581.63,90.63Z" fill="#3b4351"/><path d="M585.73,87.05h1.52v1.51h-1.52Zm0,2.57h1.52v7.54h-1.52Z" fill="#3b4351"/><path d="M593.71,95.59c0,.28.17.53.4.53a.57.57,0,0,0,.25,0v1a1.58,1.58,0,0,1-.74.18c-.68,0-1.24-.26-1.28-1h0a1.94,1.94,0,0,1-1.87,1.11c-1.22,0-2-.66-2-2.12a2.08,2.08,0,0,1,1.75-2.37l1.17-.32c.55-.15.89-.31.89-1s-.24-1.12-1-1.12c-1,0-1.15.72-1.15,1.45h-1.43c0-1.61.66-2.48,2.65-2.48,1.33,0,2.39.52,2.39,1.85Zm-1.42-2.41a11.23,11.23,0,0,1-1.68.7A1.23,1.23,0,0,0,590,95.1c0,.63.31,1.14.94,1.14.91,0,1.36-.68,1.36-1.8Z" fill="#3b4351"/><path d="M597.94,89.62h1V87.48h1.51v2.14h1.23v1.12h-1.23v4.5c0,.6.17.8.69.8a3.74,3.74,0,0,0,.54,0v1.12a5.17,5.17,0,0,1-1.22.12c-1,0-1.52-.29-1.52-1.82V90.74h-1Z" fill="#3b4351"/><path d="M602.21,93.39c0-2.35.62-4,2.8-4s2.82,1.61,2.82,4-.73,4-2.82,4S602.21,95.75,602.21,93.39Zm2.8,2.85c1.11,0,1.3-.93,1.3-2.85,0-1.67-.19-2.84-1.3-2.84s-1.29,1.17-1.29,2.84C603.72,95.31,603.93,96.24,605,96.24Z" fill="#3b4351"/><path d="M613.57,88.5h-2.39V87.16h6.32V88.5h-2.34v8.66h-1.59Z" fill="#3b4351"/><path d="M618.31,87.16h1.51v3.28l0,0a2.15,2.15,0,0,1,1.84-1c1.15,0,1.88.52,1.88,2v5.69h-1.51V92c0-1-.28-1.36-1.05-1.36s-1.21.48-1.21,1.47v5.06h-1.51Z" fill="#3b4351"/><path d="M625,89.62h1.52V90.8h0a1.87,1.87,0,0,1,1.76-1.37.89.89,0,0,1,.36,0V91a2.18,2.18,0,0,0-.63-.08c-.69,0-1.51.31-1.51,1.71v4.51H625Z" fill="#3b4351"/><path d="M634.31,95.59c0,.28.17.53.4.53a.57.57,0,0,0,.25,0v1a1.58,1.58,0,0,1-.74.18c-.68,0-1.24-.26-1.28-1h0A1.94,1.94,0,0,1,631,97.36c-1.22,0-2-.66-2-2.12a2.08,2.08,0,0,1,1.75-2.37l1.17-.32c.55-.15.89-.31.89-1s-.24-1.12-1-1.12c-1,0-1.15.72-1.15,1.45h-1.43c0-1.61.66-2.48,2.65-2.48,1.33,0,2.39.52,2.39,1.85Zm-1.42-2.41a10.92,10.92,0,0,1-1.69.7,1.24,1.24,0,0,0-.61,1.22c0,.63.31,1.14.94,1.14.91,0,1.36-.68,1.36-1.8Z" fill="#3b4351"/><path d="M640.94,94.41c-.12,1.81-.7,3-2.58,3-2.19,0-2.8-1.61-2.8-4s.61-4,2.8-4a2.43,2.43,0,0,1,2.59,2.7h-1.51c0-.7-.18-1.62-1.08-1.58-1.08,0-1.29,1.17-1.29,2.84s.21,2.85,1.29,2.85c.84,0,1.15-.69,1.15-1.83Z" fill="#3b4351"/><path d="M643.37,93.59V94c0,1,.13,2.3,1.26,2.3s1.21-1.22,1.21-1.68h1.42a2.48,2.48,0,0,1-2.64,2.72c-1.24,0-2.76-.37-2.76-3.86,0-2,.43-4.07,2.78-4.07,2.11,0,2.67,1.27,2.67,3.36v.8Zm2.42-1v-.41c0-1-.3-1.68-1.16-1.68s-1.26,1-1.26,1.94v.15Z" fill="#3b4351"/><path d="M648.19,95.31h1.59v1.85h-1.59Z" fill="#3b4351"/></g></g><g id="Ageans"><g id="Title"><g id="small-2" data-name="small"><path d="M186.73,16.23c0-2.35.62-4,2.8-4s2.82,1.61,2.82,4-.73,4-2.82,4S186.73,18.59,186.73,16.23Zm2.8,2.85c1.11,0,1.3-.93,1.3-2.85,0-1.67-.19-2.84-1.3-2.84s-1.29,1.17-1.29,2.84C188.24,18.15,188.45,19.08,189.53,19.08Z" fill="#3b4351"/><path d="M194,13.58h-1.05V12.46H194v-.7c0-1.41.68-1.87,1.92-1.87a6.4,6.4,0,0,1,.82,0v1.16h-.42c-.56,0-.81.21-.81.72v.65h1.23v1.12h-1.23V20H194Z" fill="#3b4351"/><path d="M205.8,18.84h0a2.07,2.07,0,0,1-2.18,1.36c-2.19,0-3-1.63-3-5.2s1-5.2,3.32-5.2a2.73,2.73,0,0,1,2.93,2.89v.18h-1.52v-.24c0-.74-.31-1.62-1.4-1.62s-1.74.75-1.74,4,.54,4,1.62,4,1.66-.87,1.66-3h-1.68V14.73H207V20H205.8Z" fill="#3b4351"/><path d="M213.22,18.43c0,.28.17.53.39.53a.54.54,0,0,0,.25,0v1a1.55,1.55,0,0,1-.74.18c-.67,0-1.23-.26-1.27-1h0a2,2,0,0,1-1.88,1.11c-1.22,0-2-.66-2-2.12a2.08,2.08,0,0,1,1.75-2.37l1.18-.32c.55-.15.88-.31.88-1s-.24-1.12-1-1.12c-1,0-1.14.72-1.14,1.45h-1.43c0-1.61.66-2.48,2.65-2.48,1.33,0,2.39.52,2.39,1.85ZM211.79,16a11.23,11.23,0,0,1-1.68.7,1.25,1.25,0,0,0-.62,1.22c0,.63.31,1.14.94,1.14.91,0,1.36-.68,1.36-1.8Z" fill="#3b4351"/><path d="M214.38,18.82l3.29-5.08h-3.09V12.46h4.8v1.25l-3.17,5h3.17V20h-5Z" fill="#3b4351"/><path d="M225.4,18.43c0,.28.17.53.39.53a.54.54,0,0,0,.25,0v1a1.55,1.55,0,0,1-.74.18c-.67,0-1.23-.26-1.27-1h0a2,2,0,0,1-1.88,1.11c-1.22,0-2-.66-2-2.12a2.08,2.08,0,0,1,1.75-2.37l1.18-.32c.55-.15.88-.31.88-1s-.24-1.12-1-1.12c-1,0-1.14.72-1.14,1.45h-1.43c0-1.61.66-2.48,2.65-2.48,1.33,0,2.39.52,2.39,1.85ZM224,16a11.23,11.23,0,0,1-1.68.7,1.25,1.25,0,0,0-.62,1.22c0,.63.31,1.14.94,1.14.91,0,1.36-.68,1.36-1.8Z" fill="#3b4351"/><path d="M227.09,18.15h1.6V20a1.88,1.88,0,0,1-1.6,2.16v-.82c.44-.11.7-.51.7-1.13V20h-.7Z" fill="#3b4351"/><path d="M238.18,18.84h0A2.06,2.06,0,0,1,236,20.2c-2.19,0-3-1.63-3-5.2s1-5.2,3.32-5.2a2.73,2.73,0,0,1,2.93,2.89v.18h-1.52v-.24c0-.74-.3-1.62-1.4-1.62s-1.73.75-1.73,4,.53,4,1.61,4,1.66-.87,1.66-3h-1.68V14.73h3.2V20h-1.21Z" fill="#3b4351"/><path d="M245.6,18.43c0,.28.17.53.39.53a.59.59,0,0,0,.26,0v1a1.63,1.63,0,0,1-.75.18c-.67,0-1.23-.26-1.27-1h0a2,2,0,0,1-1.88,1.11c-1.21,0-2-.66-2-2.12a2.09,2.09,0,0,1,1.75-2.37l1.18-.32c.55-.15.88-.31.88-1s-.23-1.12-1-1.12c-1,0-1.15.72-1.15,1.45h-1.43c0-1.61.66-2.48,2.65-2.48,1.33,0,2.39.52,2.39,1.85ZM244.17,16a11.23,11.23,0,0,1-1.68.7,1.24,1.24,0,0,0-.61,1.22c0,.63.3,1.14.93,1.14.92,0,1.36-.68,1.36-1.8Z" fill="#3b4351"/><path d="M246.47,12.46h1V10.32H249v2.14h1.23v1.12H249v4.5c0,.6.16.8.68.8a2.75,2.75,0,0,0,.55,0V20a5.17,5.17,0,0,1-1.22.12c-1,0-1.53-.29-1.53-1.82V13.58h-1Z" fill="#3b4351"/><path d="M251,10h1.51v3.28l.05,0a2.15,2.15,0,0,1,1.85-1c1.14,0,1.87.52,1.87,2V20H254.8V14.83c0-1-.28-1.36-1.05-1.36-.62,0-1.21.48-1.21,1.47V20H251Z" fill="#3b4351"/><path d="M182.82,44.43c0,.28.17.53.39.53a.54.54,0,0,0,.25,0v1a1.55,1.55,0,0,1-.74.18c-.67,0-1.23-.26-1.27-1h0a2,2,0,0,1-1.88,1.11c-1.22,0-2-.66-2-2.12a2.08,2.08,0,0,1,1.75-2.37l1.18-.32c.55-.15.88-.31.88-1s-.24-1.12-1-1.12c-1,0-1.14.72-1.14,1.45h-1.43c0-1.61.66-2.48,2.65-2.48,1.33,0,2.39.52,2.39,1.85ZM181.39,42a11.23,11.23,0,0,1-1.68.7,1.25,1.25,0,0,0-.62,1.22c0,.63.31,1.14.94,1.14.91,0,1.36-.68,1.36-1.8Z" fill="#3b4351"/><path d="M184.36,38.46h1.43v.89h0a2.15,2.15,0,0,1,1.93-1.08c1.15,0,1.88.52,1.88,2V46h-1.51V40.83c0-1-.27-1.36-1-1.36-.62,0-1.21.46-1.21,1.47V46h-1.51Z" fill="#3b4351"/><path d="M194.94,45.08h0a1.62,1.62,0,0,1-1.66,1.12c-1.75,0-2.46-1.49-2.46-4.07,0-3.34,1.17-3.86,2.32-3.86a1.73,1.73,0,0,1,1.71,1.08h0V36h1.51V46h-1.43Zm-1.37-5.61c-.85,0-1.18.7-1.18,2.73,0,1.71.21,2.79,1.28,2.79s1.27-1.05,1.27-2.67C194.94,40.51,194.75,39.47,193.57,39.47Z" fill="#3b4351"/><path d="M202.19,43v.49c0,.81.17,1.51,1.07,1.51,1.06,0,1.06-1,1.06-2V36h1.6v7.24c0,2.21-1.09,3-2.69,3-2.06,0-2.51-1.26-2.55-2.57V43Z" fill="#3b4351"/><path d="M207.11,42.23c0-2.35.61-4,2.8-4s2.81,1.61,2.81,4-.72,4-2.81,4S207.11,44.59,207.11,42.23Zm2.8,2.85c1.11,0,1.3-.93,1.3-2.85,0-1.67-.19-2.84-1.3-2.84s-1.29,1.17-1.29,2.84C208.62,44.15,208.83,45.08,209.91,45.08Z" fill="#3b4351"/><path d="M217.13,46.2a1.74,1.74,0,0,1-1.71-1.08h0v3.35h-1.52v-10h1.43v.93h0A1.78,1.78,0,0,1,217,38.27c1.73,0,2.43,1.47,2.43,4.06C219.46,45.5,218.18,46.2,217.13,46.2Zm-.54-6.73c-1,0-1.28,1.05-1.28,2.68,0,1.81.23,2.84,1.29,2.84.85,0,1.26-.64,1.26-2.73C217.86,40.55,217.65,39.47,216.59,39.47Z" fill="#3b4351"/><path d="M223.87,46.2a1.74,1.74,0,0,1-1.71-1.08h0v3.35h-1.51v-10h1.43v.93h0a1.8,1.8,0,0,1,1.7-1.12c1.72,0,2.42,1.47,2.42,4.06C226.19,45.5,224.92,46.2,223.87,46.2Zm-.55-6.73c-1,0-1.27,1.05-1.27,2.68,0,1.81.22,2.84,1.28,2.84.86,0,1.27-.64,1.27-2.73C224.6,40.55,224.39,39.47,223.32,39.47Z" fill="#3b4351"/><path d="M232.3,44.43c0,.28.16.53.39.53a.57.57,0,0,0,.25,0v1a1.58,1.58,0,0,1-.74.18c-.67,0-1.24-.26-1.28-1h0A1.94,1.94,0,0,1,229,46.2c-1.22,0-2-.66-2-2.12a2.08,2.08,0,0,1,1.75-2.37l1.17-.32c.55-.15.89-.31.89-1s-.24-1.12-1-1.12c-1,0-1.15.72-1.15,1.45h-1.43c0-1.61.66-2.48,2.65-2.48,1.33,0,2.4.52,2.4,1.85ZM230.87,42a11.23,11.23,0,0,1-1.68.7,1.23,1.23,0,0,0-.62,1.22c0,.63.31,1.14.94,1.14.91,0,1.36-.68,1.36-1.8Z" fill="#3b4351"/><path d="M234,44.15h1.59V46c0,1.12-.36,1.92-1.59,2.16v-.82a1,1,0,0,0,.7-1.13V46H234Z" fill="#3b4351"/><path d="M239.52,38.46h1.56l1.06,5.94h0l1.12-5.94H245l1.12,5.94h0l1-5.94h1.51L247,46h-1.7l-1.17-5.86h0L243,46h-1.76Z" fill="#3b4351"/><path d="M250.93,42.43v.43c0,1,.12,2.3,1.26,2.3s1.2-1.22,1.2-1.68h1.43a2.48,2.48,0,0,1-2.65,2.72c-1.23,0-2.76-.37-2.76-3.86,0-2,.44-4.07,2.79-4.07,2.1,0,2.66,1.27,2.66,3.36v.8Zm2.42-1V41c0-1-.31-1.69-1.16-1.69s-1.26,1-1.26,1.94v.15Z" fill="#3b4351"/><path d="M256.11,38.46h1.51v1.18h0a1.85,1.85,0,0,1,1.75-1.37.89.89,0,0,1,.36,0v1.54a2.18,2.18,0,0,0-.63-.08c-.68,0-1.51.31-1.51,1.71V46h-1.51Z" fill="#3b4351"/><path d="M261.74,42.43v.43c0,1,.12,2.3,1.26,2.3s1.2-1.22,1.2-1.68h1.43A2.48,2.48,0,0,1,263,46.2c-1.23,0-2.76-.37-2.76-3.86,0-2,.44-4.07,2.79-4.07,2.1,0,2.66,1.27,2.66,3.36v.8Zm2.42-1V41c0-1-.31-1.69-1.16-1.69s-1.26,1-1.26,1.94v.15Z" fill="#3b4351"/><path d="M177.48,72.2a1.74,1.74,0,0,1-1.71-1.08h0v3.35h-1.51v-10h1.43v.93h0a1.78,1.78,0,0,1,1.69-1.12c1.72,0,2.42,1.47,2.42,4.06C179.8,71.5,178.53,72.2,177.48,72.2Zm-.55-6.73c-1,0-1.27,1-1.27,2.68,0,1.81.22,2.84,1.29,2.84.85,0,1.26-.64,1.26-2.73C178.21,66.55,178,65.47,176.93,65.47Z" fill="#3b4351"/><path d="M180.67,68.23c0-2.35.62-4,2.8-4s2.82,1.61,2.82,4-.73,4-2.82,4S180.67,70.59,180.67,68.23Zm2.8,2.85c1.11,0,1.3-.93,1.3-2.85,0-1.67-.19-2.84-1.3-2.84s-1.29,1.17-1.29,2.84C182.18,70.15,182.39,71.08,183.47,71.08Z" fill="#3b4351"/><path d="M190.69,66.66v-.19c0-.61-.21-1.17-1-1.17-.6,0-1.08.27-1.08,1s.27.82,1.07,1.1l1,.34a2,2,0,0,1,1.64,2.17c0,1.61-1.19,2.3-2.7,2.3-1.91,0-2.48-.89-2.48-2.34v-.28h1.34v.23c0,.89.3,1.35,1.18,1.35s1.23-.42,1.23-1.11A1.09,1.09,0,0,0,190,69l-1.24-.44a2,2,0,0,1-1.61-2.17c0-1.41,1-2.07,2.58-2.07,1.92,0,2.35,1.12,2.35,2.06v.33Z" fill="#3b4351"/><path d="M196.66,66.66v-.19c0-.61-.21-1.17-1-1.17-.6,0-1.07.27-1.07,1s.26.82,1.06,1.1l1,.34a2,2,0,0,1,1.64,2.17c0,1.61-1.2,2.3-2.71,2.3-1.9,0-2.48-.89-2.48-2.34v-.28h1.35v.23c0,.89.29,1.35,1.17,1.35s1.24-.42,1.24-1.11A1.09,1.09,0,0,0,196,69l-1.23-.44a2,2,0,0,1-1.61-2.17c0-1.41,1-2.07,2.57-2.07,1.92,0,2.36,1.12,2.36,2.06v.33Z" fill="#3b4351"/><path d="M199.44,61.89H201V63.4h-1.51Zm0,2.57H201V72h-1.51Z" fill="#3b4351"/><path d="M202.48,62H204v3.35h0a1.73,1.73,0,0,1,1.71-1.08c1.15,0,2.33.52,2.33,3.86,0,2.6-.72,4.07-2.47,4.07a1.61,1.61,0,0,1-1.65-1.12h0V72h-1.43Zm2.7,9c1.07,0,1.28-1.08,1.28-2.79,0-2-.32-2.73-1.18-2.73-1.18,0-1.37,1-1.37,2.85C203.91,69.94,204.15,71,205.18,71Z" fill="#3b4351"/><path d="M209.28,62h1.52V72h-1.52Z" fill="#3b4351"/><path d="M213.33,64.46l1.3,5.66h0l1.21-5.66h1.58l-2.07,7.82c-.61,2.06-1.07,2.34-2.64,2.3a3.05,3.05,0,0,1-.6-.06v-1.2a2,2,0,0,0,.49.05c.52,0,.85-.1,1-.59l.2-.61-2.14-7.71Z" fill="#3b4351"/><path d="M221.35,68.23c0-2.35.62-4,2.8-4s2.82,1.61,2.82,4-.73,4-2.82,4S221.35,70.59,221.35,68.23Zm2.8,2.85c1.11,0,1.31-.93,1.31-2.85,0-1.67-.2-2.84-1.31-2.84s-1.29,1.17-1.29,2.84C222.86,70.15,223.07,71.08,224.15,71.08Z" fill="#3b4351"/><path d="M228.59,65.58h-1.05V64.46h1.05v-.7c0-1.41.69-1.87,1.92-1.87a6.67,6.67,0,0,1,.83,0v1.16h-.42c-.57,0-.82.21-.82.72v.65h1.24v1.12H230.1V72h-1.51Z" fill="#3b4351"/><path d="M241.63,68.41v.21c0,1.81-.75,3.58-3.08,3.58-2.53,0-3.31-1.63-3.31-5.2s.78-5.2,3.32-5.2c2.84,0,3,2.09,3,3.14v.18H240V65c0-.93-.28-2-1.42-1.94s-1.71.73-1.71,3.95.51,4,1.71,4S240,69.52,240,68.58v-.17Z" fill="#3b4351"/><path d="M242.65,64.46h1.51v1.18h0a1.85,1.85,0,0,1,1.75-1.37.89.89,0,0,1,.36,0v1.54a2.18,2.18,0,0,0-.63-.08c-.69,0-1.51.31-1.51,1.71V72h-1.51Z" fill="#3b4351"/><path d="M248.27,68.43v.43c0,1,.13,2.3,1.27,2.3s1.2-1.22,1.2-1.68h1.43a2.48,2.48,0,0,1-2.65,2.72c-1.23,0-2.76-.37-2.76-3.86,0-2,.44-4.07,2.79-4.07,2.1,0,2.66,1.27,2.66,3.36v.8Zm2.43-1V67c0-1-.31-1.69-1.16-1.69s-1.27,1-1.27,1.94v.15Z" fill="#3b4351"/><path d="M252.78,64.46h1V62.32h1.51v2.14h1.23v1.12h-1.23v4.5c0,.6.17.8.69.8a2.7,2.7,0,0,0,.54,0V72a5.17,5.17,0,0,1-1.22.12c-1,0-1.52-.29-1.52-1.82V65.58h-1Z" fill="#3b4351"/><path d="M262.29,70.43c0,.28.17.53.39.53a.54.54,0,0,0,.25,0v1a1.55,1.55,0,0,1-.74.18c-.67,0-1.23-.26-1.27-1h0A2,2,0,0,1,259,72.2c-1.22,0-2-.66-2-2.12a2.08,2.08,0,0,1,1.75-2.37l1.18-.32c.54-.15.88-.31.88-1s-.24-1.12-1-1.12c-1,0-1.14.72-1.14,1.45h-1.43c0-1.61.66-2.48,2.64-2.48,1.34,0,2.4.52,2.4,1.85ZM260.86,68a11.23,11.23,0,0,1-1.68.7,1.25,1.25,0,0,0-.62,1.22c0,.63.31,1.14.94,1.14.91,0,1.36-.68,1.36-1.8Z" fill="#3b4351"/><path d="M263.83,64.46h1.43v.89h0a2.15,2.15,0,0,1,1.93-1.08c1.15,0,1.88.52,1.88,2V72H267.6V66.83c0-1-.27-1.36-1.06-1.36-.61,0-1.2.46-1.2,1.47V72h-1.51Z" fill="#3b4351"/><path d="M206.81,94.23c0-2.35.62-4,2.8-4s2.82,1.61,2.82,4-.73,4-2.82,4S206.81,96.59,206.81,94.23Zm2.8,2.85c1.11,0,1.31-.93,1.31-2.85,0-1.67-.2-2.84-1.31-2.84s-1.28,1.17-1.28,2.84C208.33,96.15,208.54,97.08,209.61,97.08Z" fill="#3b4351"/><path d="M213.59,90.46h1.51v1.18h0a1.87,1.87,0,0,1,1.75-1.37.94.94,0,0,1,.37,0v1.54a2.32,2.32,0,0,0-.64-.08c-.68,0-1.51.31-1.51,1.71V98h-1.51Z" fill="#3b4351"/><path d="M218.07,87.89h1.51V89.4h-1.51Zm0,2.57h1.51V98h-1.51Z" fill="#3b4351"/><path d="M222.62,98.64a1,1,0,0,0,1.09.9A1.25,1.25,0,0,0,225,98.13V96.91h0a1.81,1.81,0,0,1-1.71,1c-1.75,0-2.26-1.72-2.26-3.79,0-1.65.26-3.88,2.4-3.88A1.65,1.65,0,0,1,225,91.39h0v-.93h1.43v7.18c0,1.83-.78,2.94-2.82,2.94-2.24,0-2.49-1.32-2.49-1.94Zm1.06-1.9c1.18,0,1.31-1.49,1.31-2.68s-.16-2.59-1.21-2.59-1.27,1.12-1.27,2.52S222.56,96.74,223.68,96.74Z" fill="#3b4351"/><path d="M227.91,87.89h1.51V89.4h-1.51Zm0,2.57h1.51V98h-1.51Z" fill="#3b4351"/><path d="M231,90.46h1.43v.89h0a2.15,2.15,0,0,1,1.93-1.08c1.15,0,1.88.52,1.88,2V98h-1.51V92.83c0-1-.27-1.36-1.05-1.36-.62,0-1.21.46-1.21,1.47V98H231Z" fill="#3b4351"/></g></g></g></g></svg>