<svg id="Text" xmlns="http://www.w3.org/2000/svg" viewBox="0 0 1847.91 112"><title>bc1250text</title><g id="Hittites"><path d="M831.66,56h2.79v7h5.15V56h2.79V73.49H839.6V65.36h-5.15v8.13h-2.79Z"/><path d="M845.16,56H848V73.49h-2.79Z"/><path d="M853.58,58.35h-4.16V56h11.05v2.35h-4.09V73.49h-2.8Z"/><path d="M864.93,58.35h-4.17V56h11v2.35h-4.09V73.49h-2.79Z"/><path d="M873.28,56h2.79V73.49h-2.79Z"/><path d="M881.71,58.35h-4.17V56H888.6v2.35h-4.1V73.49h-2.79Z"/><path d="M890.18,56h9.46v2.35H893V63.2h6.27v2.35H893v5.59h6.86v2.35h-9.66Z"/><path d="M904.13,68.08v.44c0,2.13,1,3.21,2.86,3.21a2.51,2.51,0,0,0,2.65-2.55c0-1.84-.93-2.65-2.5-3.11l-1.91-.66c-2.55-1-3.65-2.31-3.65-4.81,0-3.18,2.18-5,5.44-5,4.48,0,5,2.8,5,4.61v.39h-2.8v-.37c0-1.59-.68-2.52-2.45-2.52a2.23,2.23,0,0,0-2.35,2.52c0,1.5.76,2.26,2.62,3l1.89.69c2.47.88,3.55,2.2,3.55,4.63,0,3.72-2.25,5.27-5.78,5.27-4.34,0-5.32-2.9-5.32-5.35v-.41Z"/></g></svg>