<svg xmlns="http://www.w3.org/2000/svg" viewBox="0 0 1847.91 112"><title>bc1250text</title><g id="Text"><g id="Hittites"><path d="M831.66,56h2.79v7h5.15V56h2.79V73.49H839.6V65.36h-5.15v8.13h-2.79Z"/><path d="M845.16,56H848V73.49h-2.79Z"/><path d="M853.58,58.35h-4.16V56h11.05v2.35h-4.09V73.49h-2.8Z"/><path d="M864.93,58.35h-4.17V56h11v2.35h-4.09V73.49h-2.79Z"/><path d="M873.28,56h2.79V73.49h-2.79Z"/><path d="M881.71,58.35h-4.17V56H888.6v2.35h-4.1V73.49h-2.79Z"/><path d="M890.18,56h9.46v2.35H893V63.2h6.27v2.35H893v5.59h6.86v2.35h-9.66Z"/><path d="M904.13,68.08v.44c0,2.13,1,3.21,2.86,3.21a2.51,2.51,0,0,0,2.65-2.55c0-1.84-.93-2.65-2.5-3.11l-1.91-.66c-2.55-1-3.65-2.31-3.65-4.81,0-3.18,2.18-5,5.44-5,4.48,0,5,2.8,5,4.61v.39h-2.8v-.37c0-1.59-.68-2.52-2.45-2.52a2.23,2.23,0,0,0-2.35,2.52c0,1.5.76,2.26,2.62,3l1.89.69c2.47.88,3.55,2.2,3.55,4.63,0,3.72-2.25,5.27-5.78,5.27-4.34,0-5.32-2.9-5.32-5.35v-.41Z"/></g></g><g id="YEARS"><g id="Right"><path d="M1778.94,105.13V91.76h-3.83V89.84h.29c1.77,0,3.8-.45,4.34-2.76v-.36h2.16v18.41Z"/><path d="M1797.66,105.13h-10.77c0-8,7.72-7.83,7.72-13.55,0-1.54-.65-2.78-2.28-2.78-2.21,0-2.58,2-2.58,3.84h-2.81c0-3.64,1.51-5.92,5.44-5.92,3.74,0,5.2,2.23,5.2,4.91,0,6.11-6,6.47-7.39,11h7.47Z"/><path d="M1799.35,100.16h2.8v.49a2.35,2.35,0,0,0,2.42,2.6c2.08,0,2.63-2,2.63-4.18s-.57-3.93-2.47-3.93a2.36,2.36,0,0,0-2.42,1.69l-2.63-.1.91-9.65h8.87v2.37h-6.66l-.59,4.83,0,0a4.08,4.08,0,0,1,3.09-1.43c3.85,0,4.81,3.26,4.81,6.09,0,3.69-1.69,6.5-5.67,6.5-3.3,0-5.14-1.69-5.14-4.94Z"/><path d="M1817.23,86.72c3.54,0,5.52,2.21,5.52,9.38s-2,9.39-5.52,9.39-5.51-2.21-5.51-9.39S1813.7,86.72,1817.23,86.72Zm0,16.69c2,0,2.55-2,2.55-7.31s-.55-7.3-2.55-7.3-2.55,2-2.55,7.3S1815.23,103.41,1817.23,103.41Z"/></g><g id="Layer_34" data-name="Layer 34"><path d="M19.19,108.72V95.36H15.37V93.43h.28c1.77,0,3.8-.44,4.34-2.75v-.37h2.16v18.41Z"/><path d="M37.91,108.72H27.14c0-8,7.72-7.82,7.72-13.54,0-1.54-.64-2.79-2.28-2.79-2.21,0-2.58,2-2.58,3.85H27.19c0-3.64,1.51-5.93,5.44-5.93,3.74,0,5.2,2.24,5.2,4.92,0,6.11-6,6.47-7.39,11h7.47Z"/><path d="M39.6,103.76h2.8v.49a2.35,2.35,0,0,0,2.42,2.6c2.08,0,2.63-2,2.63-4.18s-.57-3.93-2.47-3.93a2.35,2.35,0,0,0-2.42,1.69l-2.63-.11.91-9.64h8.87V93H43.05l-.59,4.84,0,.05A4,4,0,0,1,45.6,96.5c3.85,0,4.81,3.25,4.81,6.09,0,3.69-1.69,6.5-5.67,6.5-3.3,0-5.14-1.69-5.14-4.94Z"/><path d="M57.48,90.31C61,90.31,63,92.52,63,99.7s-2,9.39-5.52,9.39S52,106.88,52,99.7,54,90.31,57.48,90.31Zm0,16.7c2,0,2.55-2,2.55-7.31s-.54-7.31-2.55-7.31-2.54,2-2.54,7.31S55.48,107,57.48,107Z"/></g></g></svg>