<svg xmlns="http://www.w3.org/2000/svg" viewBox="0 0 1847.91 114"><title>bc1350text</title><g id="YEARS"><g id="Right"><path d="M1792.5,98.38V85h-3.82V83.09h.28c1.77,0,3.8-.44,4.35-2.75V80h2.15V98.38Z" fill="#3b4351"/><path d="M1803.21,93.26c0,1.61.55,3.41,2.52,3.41s2.58-1.49,2.58-3.31c0-2.29-.73-3.43-3-3.43h-1.15V87.85h1.07c2,0,2.65-1.35,2.65-3.15,0-1.32-.6-2.65-2.13-2.65-1.82,0-2.34,1.56-2.34,3.23h-2.81c0-3.46,1.77-5.31,5.3-5.31,2.21,0,4.94,1,4.94,4.71a3.9,3.9,0,0,1-2.93,4v.08c1.89.18,3.35,1.66,3.35,4.26,0,3.67-1.79,5.7-5.62,5.7-3.32,0-5.25-1.64-5.25-5.49Z" fill="#3b4351"/><path d="M1812.91,93.41h2.81v.5a2.35,2.35,0,0,0,2.41,2.6c2.08,0,2.63-2,2.63-4.19s-.57-3.92-2.47-3.92a2.35,2.35,0,0,0-2.42,1.69l-2.62-.11.91-9.64H1823V82.7h-6.65l-.6,4.84,0,0a4.06,4.06,0,0,1,3.09-1.43c3.85,0,4.81,3.25,4.81,6.08,0,3.7-1.69,6.51-5.66,6.51-3.31,0-5.15-1.7-5.15-5Z" fill="#3b4351"/><path d="M1830.8,80c3.53,0,5.51,2.21,5.51,9.39s-2,9.39-5.51,9.39-5.52-2.22-5.52-9.39S1827.26,80,1830.8,80Zm0,16.7c2,0,2.54-2,2.54-7.31s-.54-7.31-2.54-7.31-2.55,2-2.55,7.31S1828.79,96.67,1830.8,96.67Z" fill="#3b4351"/></g><g id="left"><path d="M17.46,100.29V86.92H13.64V85h.29c1.77,0,3.79-.44,4.34-2.76v-.36h2.16v18.41Z" fill="#3b4351"/><path d="M28.18,95.17c0,1.61.54,3.4,2.52,3.4s2.57-1.48,2.57-3.3c0-2.29-.73-3.43-3-3.43H29.14V89.76H30.2c2,0,2.66-1.35,2.66-3.15,0-1.32-.6-2.65-2.14-2.65-1.82,0-2.34,1.56-2.34,3.22h-2.8c0-3.45,1.76-5.3,5.3-5.3,2.21,0,4.94,1,4.94,4.7a3.91,3.91,0,0,1-2.94,4v.07c1.9.19,3.36,1.67,3.36,4.27,0,3.66-1.8,5.69-5.62,5.69-3.33,0-5.25-1.64-5.25-5.48Z" fill="#3b4351"/><path d="M37.87,95.32h2.81v.5a2.36,2.36,0,0,0,2.42,2.6c2.08,0,2.63-2,2.63-4.19s-.58-3.93-2.48-3.93A2.35,2.35,0,0,0,40.84,92l-2.63-.1.91-9.65H48v2.37H41.33l-.6,4.84.06,0a4,4,0,0,1,3.09-1.43c3.85,0,4.81,3.25,4.81,6.08,0,3.69-1.69,6.5-5.67,6.5-3.3,0-5.15-1.69-5.15-4.94Z" fill="#3b4351"/><path d="M55.76,81.88c3.54,0,5.51,2.21,5.51,9.39s-2,9.38-5.51,9.38-5.51-2.21-5.51-9.38S52.22,81.88,55.76,81.88Zm0,16.69c2,0,2.55-2,2.55-7.3S57.76,84,55.76,84s-2.55,2-2.55,7.31S53.76,98.57,55.76,98.57Z" fill="#3b4351"/></g></g><g id="Nation_OUtlines" data-name="Nation OUtlines"><polygon id="Iranians" points="1263.29 1013.17 1235.95 899 1211.95 784.5 1241.29 674.5 1280.62 562 1217.95 447.17 1163.29 337.84 1140.62 224.5 1175.95 114 1153.29 -0.83 1137.95 -114.16 1188.62 -225.5 1153.95 -338.16 1161.95 -451 1156.67 -566.27 1152.84 -683.5 1131.29 -790 1198.62 -900.5 1275.29 -1012.5 1277.29 -1126.16 1268.62 -1235.83 1283.88 -1347.83 1411.11 -1347.83 1445.69 -1236.27 1480.18 -1125.6 1462.18 -1012.5 1438.19 -900.5 1387.19 -790 1387.19 -678 1420.19 -563.07 1429.19 -451 1400.69 -338.08 1417.19 -225 1343.69 -114 1325.69 0 1345.19 114 1313.69 226 1298.69 338 1310.69 448 1348.19 562 1313.69 675 1285.19 786 1294.19 899 1372.19 1013.17 1373.74 1121.73 1375.34 1233.73 1376.98 1349 1335.62 1459 1348.62 1571 1391.1 1683 1462.62 1794 1440.62 1906.73 1447.62 2023 1472.62 2135 1505.62 2246.73 1513.62 2356.73 1437.62 2468.73 1391.82 2583.73 1219.62 2469 1086.62 2357 890.71 2246.73 788.62 2135 767.62 2023 866.62 1907 1041.62 1793.73 1176.62 1682.73 1205.62 1570.73 1242.62 1458.73 1294.62 1349 1322.62 1236.17 1240.62 1122 1263.29 1013.17" fill="none" stroke="#3b4351" stroke-miterlimit="10"/><polygon id="Indians" points="1372.19 1013.17 1294.19 899 1285.19 786 1313.69 675 1348.19 562 1310.69 448 1298.69 338 1313.69 226 1345.19 114 1325.69 0 1343.69 -114 1417.19 -225 1400.69 -338.08 1429.19 -451 1419.27 -566.27 1387.19 -678 1387.19 -790 1438.19 -900.5 1462.18 -1012.5 1480.18 -1125.54 1445.82 -1235.83 1411.11 -1347.83 1545.86 -1347.83 1580.1 -1235.83 1593.12 -1125.6 1552.12 -1012.5 1514.62 -900.5 1514.12 -790.33 1553.12 -678.27 1548.12 -566 1519.62 -451 1534.12 -337.33 1575.12 -225 1559.62 -114 1564.12 -0.27 1534.62 114 1486.12 226 1465.12 338 1471.12 447.17 1502.12 561.17 1508.12 675 1534.62 786 1542.77 864.86 1555.62 1013.17 1554.62 1122 1567.12 1234 1542.12 1348.73 1498.12 1459 1490.62 1571 1513.12 1683 1568.62 1794 1544.12 1907 1530.62 2022.73 1523.62 2134.73 1532.62 2247 1565.12 2357 1543.62 2469 1514.12 2584 1490.12 2693.73 1495.62 2808 1517.12 2921.67 1528.12 3027 1580.62 3139.67 1578.12 3255.67 1578.12 3366.17 1560.12 3477.73 1526.62 3593 1467.62 3707 1381.62 3818.73 1270.62 3929 1090.12 4041.73 860.62 4150 1302.12 4265 1377.03 4377 1550.62 4490 1519.62 4599.83 1476.12 4712.83 1516.13 4826.83 1534.62 4939.17 1552.65 5049.83 1585.62 5163.73 1620.12 5278.83 1650.12 5389.83 1630.62 5497.73 1622.45 5614.73 1565.62 5725.83 1402.62 5839.17 1173.62 5951.83 1148.62 6062.83 1334.62 6177.83 1283.62 6291.83 1344.62 6400.83 1544.62 6513.83 1602.62 6628.17 1627.62 6739.83 1674.62 6852.73 1627.62 6967.83 1634.62 7079.83 1686.62 7191.83 1701.62 7304.83 1620.12 7416.83 1606.12 7527.83 1606.12 7641.66 1552.62 7641.66 1549.52 7527.83 1569.62 7416.83 1683.62 7304.83 1667.62 7191.83 1607.62 7079.83 1596.62 6967.17 1617.62 6852.83 1584.62 6739.83 1562.62 6627.83 1507.62 6513.83 1304.62 6400.73 1225.62 6291.73 1236.97 6254.78 1264.87 6177.83 1082.62 6062.83 1084.2 5952.34 1323.62 5839.83 1500.47 5725.73 1573.62 5614.83 1600.62 5497.83 1604.62 5389.83 1569.62 5278.83 1514.62 5163.83 1447.62 5049.73 1418.62 4937.83 1404.62 4826.83 1367.62 4712.83 1397.62 4599.83 1418.62 4489.73 1339.62 4376.73 1246.62 4265 748.62 4150 753.62 4042 910.76 3929 1053.62 3819 1195.2 3707 1311.62 3592.17 1353.62 3478 1348.62 3367 1364.62 3255.17 1406.62 3140 1401.62 3027 1429.62 2922 1394.62 2807.73 1393.2 2694 1391.82 2583.73 1437.52 2469 1513.62 2356.73 1505.64 2247 1472.62 2135.17 1447.62 2023 1440.63 1907 1462.62 1794 1391.1 1683 1348.62 1571 1332.62 1459 1376.98 1349 1375.34 1233.73 1373.74 1121.73 1372.19 1013.17" fill="none" stroke="#3b4351" stroke-miterlimit="10"/><polygon id="Huns" points="1555.62 1013.17 1545.73 899 1533.62 785.67 1506.68 675.64 1502.16 562 1471.34 448 1465.12 338 1486.12 226 1534.62 114 1564.05 0 1559.62 -114 1575.12 -225 1534.24 -337 1519.62 -451 1548.12 -566 1553.11 -678 1514.47 -790.27 1514.62 -902.5 1552.12 -1012.5 1593.12 -1125.16 1580.1 -1235.83 1545.86 -1347.83 1633.99 -1347.83 1651.62 -1235.83 1667.62 -1125.16 1646.62 -1012.5 1620.62 -900.5 1630.4 -792.4 1650.62 -678.33 1676.62 -566 1700.12 -451 1689.12 -337 1714.62 -225.33 1697.12 -114.27 1645.62 -0.27 1616.12 114 1586.62 225.73 1538.12 337.73 1509.12 448 1551.62 562 1585.12 675 1608.62 785.67 1609.69 898.73 1610.76 1011.73 1613.62 1121.73 1625.12 1233.73 1599.12 1349.67 1557.59 1459 1545.65 1571 1558.62 1683 1584.62 1793.73 1571.12 1907.17 1576.62 2023 1567.62 2135 1587.12 2247 1621.12 2357 1612.12 2469 1556.12 2584 1528.62 2694 1529.62 2808 1553.62 2922 1616.07 3027 1609.25 3140 1592.66 3256 1611.01 3366.73 1612.12 3478 1598.04 3593 1564.12 3707 1534.29 3819 1602.12 3928.73 1653.62 4042 1673.62 4150 1666.12 4265 1668.12 4376.67 1625.62 4489.67 1542.12 4599.83 1476.12 4712.83 1519.62 4599.83 1550.62 4490 1376.62 4376.73 1302.12 4265 860.62 4150 1090.12 4041.73 1270.62 3929 1381.62 3818.73 1467.62 3707 1526.62 3593 1560.12 3477.73 1578.12 3366.17 1578.12 3255.67 1580.62 3139.67 1528.12 3027 1517.12 2921.67 1495.62 2808 1490.12 2693.73 1514.12 2584 1543.62 2469 1565.12 2357 1532.62 2247 1523.62 2134.73 1530.62 2022.73 1544.12 1907 1568.62 1794 1513.12 1683 1490.62 1571 1498.12 1459 1542.12 1348.73 1567.12 1234 1554.62 1122 1555.62 1013.17" fill="none" stroke="#3b4351" stroke-miterlimit="10"/><polygon id="Hitites" points="347.74 1011.73 337.24 899 361.62 786 400.62 675 439.62 562 658.62 448 742.62 338 835.62 226 785.62 114 750.62 0 770.62 -114 800.62 -225.83 733.62 -337.27 656.62 -451.08 662.62 -566 633.62 -678 663.62 -790 786.62 -900.5 940.62 -1012.5 982.62 -1125.16 1042.62 -1235.83 1103.77 -1347.83 1152.07 -1347.83 1091.29 -1235.83 1025.29 -1125.16 1027.29 -1012.5 910.76 -900.5 823.95 -790 785.95 -678 826.62 -566 853.28 -451 910.76 -337.27 992.62 -225 961.95 -114.83 971.95 -0.16 969.28 114 975.28 225.84 954.62 335.84 857.28 448 623.95 562 566.62 675 481.23 786 394.24 899 347.74 1011.73" fill="none" stroke="#3b4351" stroke-miterlimit="10"/><polygon id="Greeks" points="1131.14 3027 1118.7 2922 998.71 2808 683.72 2694 467.73 2584 287.74 2469 231.95 2357 205.28 2247 169.95 2135 149.95 2023 137.95 1907 116.62 1794 111.95 1683 95.28 1571 85.95 1459 75.42 1349 75.42 1175.67 75.42 -114 142.25 0 145.25 114 155.75 226 172.25 338 202.25 448 223.25 562 251.62 675 250.62 786 221.95 899.84 228.6 1011.73 199.95 1121.84 217.95 1233.84 237.43 1349 262.62 1459 259.95 1571 319.29 1683 349.95 1794 401.29 1907 527.28 2023 645.95 2135 761.95 2247 965.29 2357 965.95 2469 897.95 2583.17 910.76 2693.73 1099.37 2808 1168.66 2922.09 1131.14 3027" fill="none" stroke="#3b4351" stroke-miterlimit="10"/><polygon id="Egyptians" points="1195.2 3137.31 1131.14 3027 1168.66 2922.09 1099.2 2807.73 910.76 2693.73 897.95 2583.17 965.95 2469 965.28 2356.5 761.95 2247 645.95 2135 527.28 2023 401.29 1907 349.95 1794 319.29 1683 259.95 1571 262.62 1459 238.62 1349 217.95 1234 199.95 1122 228.62 1012 221.62 899 250.62 786 251.62 675 223.25 562 271.57 448 265.25 338 305.74 226 341.74 114 376.24 0 440.74 -114 467.73 -224.09 443.74 -337 381.96 -451 242.75 -566 298.62 -678 424.24 -790 460.24 -900.5 397.24 -1012.5 319.24 -1125.16 319.24 -1235.83 298.62 -1347.83 1103.77 -1347.83 1042.62 -1235.83 982.62 -1125.16 940.62 -1012.5 786.62 -900.5 663.62 -790 633.62 -678 662.62 -566 656.62 -451.08 733.62 -337.27 800.62 -225.83 770.62 -114 750.62 0 785.62 114 835.62 226 742.62 338 658.62 448 439.62 562 400.62 675 361.62 786 302.62 899 310.62 1012 282.62 1122 271.95 1234 305.95 1459 323.95 1570.5 432.62 1683 476.62 1793.17 451.95 1907 555.95 2023 667.28 2135 813.28 2247 968.62 2357 995.95 2469 968.62 2583.84 940.62 2692.5 1130.91 2807.73 1189.62 2922.67 1157.7 3027 1195.2 3137.31" fill="none" stroke="#3b4351" stroke-miterlimit="10"/><polygon id="Chinese" points="1610.76 1011.73 1609.69 898.73 1608.62 785.67 1585.12 675 1551.62 562 1509.12 448 1538.12 337.73 1586.62 225.73 1616.12 114 1645.62 -0.27 1697.12 -114.27 1714.62 -225.33 1689.12 -337 1700.12 -451 1676.62 -566 1650.62 -678.33 1630.62 -790 1620.62 -900.5 1646.62 -1012.5 1667.62 -1125.16 1651.62 -1235.83 1633.99 -1347.83 1768.79 -1347.83 1768.79 6852.83 1768.79 6967.73 1766.12 7079.83 1757.62 7191.83 1736.12 7304.73 1676.12 7416.73 1661.12 7527.83 1663.62 7641.66 1606.12 7641.66 1606.12 7527.73 1620.12 7416.83 1701.62 7304.83 1696.12 7191.67 1654.12 7079.83 1681.62 6967.83 1739.62 6852.73 1748.62 6739.67 1744.12 6627.67 1685.62 6513.83 1615.12 6403.17 1636.12 6291.83 1738.62 6177.83 1761.12 6062.83 1758.62 5951.83 1732.12 5839.83 1695.62 5725.83 1667.62 5614.83 1651.12 5497.83 1650.12 5389.83 1620.12 5278.83 1585.62 5163.73 1552.62 5049.73 1535.12 4937.83 1516.12 4826.73 1476.12 4712.83 1542.12 4599.83 1625.62 4489.67 1668.12 4376.67 1666.12 4265 1673.62 4150 1653.62 4042 1602.12 3928.73 1534.12 3818.73 1564.12 3707 1598.12 3592.73 1612.12 3478 1611.01 3366.73 1592.62 3255.73 1609.25 3140 1616.07 3027 1553.62 2922 1529.62 2808 1528.62 2693.73 1555.62 2584 1612.12 2469 1621.12 2357 1587.12 2247 1567.62 2135 1576.62 2023 1571.12 1907 1584.62 1793.73 1558.62 1683 1545.62 1570.73 1557.62 1458.73 1599.62 1349 1625.12 1233.73 1613.62 1121.73 1610.76 1011.73" fill="none" stroke="#3b4351" stroke-miterlimit="10"/><polygon id="Amorites" points="1263.29 1013.17 1240.62 1122 1322.62 1234 1294.62 1349 1242.62 1458.73 1205.62 1570.73 1176.62 1682.73 1041.62 1793.73 866.62 1907 767.62 2023 788.62 2135 890.71 2246.73 762.62 2134.73 716.62 2022.73 709.62 1907 755.62 1794 1054.29 1682.73 1156.62 1571 1173.62 1457.17 1199.62 1347.17 1138.62 1234 910.76 1122 832.62 1011.73 949.95 899 1040.62 785.73 1141.31 675 1225.29 561.84 1147.62 448 1085.29 338 1061.29 225.73 1028.62 113.73 971.95 -0.16 961.95 -114.83 992.62 -225 910.76 -337.27 853.28 -451 826.62 -566 785.95 -678 823.95 -790 910.76 -900.5 1027.29 -1012.5 1025.29 -1125.16 1091.29 -1235.83 1152.07 -1347.83 1283.88 -1347.83 1268.62 -1235.83 1277.29 -1126.16 1275.29 -1012.5 1198.62 -900.5 1131.29 -790 1153.95 -678 1156.67 -566.27 1161.95 -451 1153.95 -338.16 1188.62 -225.5 1137.95 -114.16 1153.29 -0.83 1175.95 114 1140.62 224.5 1163.29 337.84 1217.95 447.17 1280.62 562 1241.29 674.5 1211.95 784.5 1235.95 899 1263.29 1013.17" fill="none" stroke="#3b4351" stroke-miterlimit="10"/><polygon id="Aegeans" points="223.25 562 202.25 448 172.25 338 155.75 226 145.25 114 142.25 0 75.42 -114 75.42 -1347.83 298.62 -1347.83 319.24 -1235.83 319.24 -1125.16 397.24 -1012.5 460.24 -900.5 424.24 -790 298.62 -678 242.75 -566 381.96 -451 443.74 -337 467.73 -224.09 440.74 -114 376.24 0 341.74 114 305.74 226 265.25 338 271.57 448 223.25 562" fill="none" stroke="#3b4351" stroke-miterlimit="10"/><polygon id="Assyrian_Kingdom" data-name="Assyrian Kingdom" points="631.95 1011.73 635.28 899 679.9 786 701.28 675 799.28 562 980.62 448 1007.95 338 1020.62 226 998.62 114 971.95 -0.16 1028.62 113.73 1061.29 225.73 1085.29 338 1147.62 448 1225.29 561.84 1141.31 675 1040.62 785.73 949.95 899 832.62 1011.73 910.76 1122 1138.62 1234 1199.62 1347.17 1173.62 1457.17 1156.62 1571 1054.29 1682.73 755.62 1794 709.62 1907 716.62 2022.73 658.28 1907 654.62 1794 630.95 1683 510.62 1571 518.62 1459 595.95 1349 638.62 1234 643.28 1122 631.95 1011.73" fill="none" stroke="#3b4351" stroke-miterlimit="10"/><polygon points="1130.91 2807.73 940.62 2692.5 968.62 2583.84 995.95 2469 968.62 2357 813.28 2247 667.28 2135 624.62 2023 611.95 1907 608.62 1794 523.28 1683 375.82 1571 387.95 1459 383.29 1349 359.29 1234 340.62 1123.16 347.74 1011.73 394.24 899 481.23 786 566.62 675 623.95 562 857.28 448 954.62 335.84 975.28 225.84 969.28 114 971.95 -0.16 998.62 114 1020.62 226 989.95 338 921.28 448 697.58 562 630.62 675 573.95 786 511.95 899 538.62 1012 509.95 1122 479.29 1234 428.62 1349 439.95 1459 493.29 1571 617.95 1683 644.62 1794 647.18 1907 716.62 2022.73 762.62 2134.73 890.71 2246.73 1086.62 2357 1219.62 2469 1225.12 2584 1186.62 2694 1130.91 2807.73" fill="none" stroke="#3b4351" stroke-miterlimit="10"/></g><g id="Text"><g id="Chinese-2" data-name="Chinese"><path d="M1665.28,93.58V94c0,3.16-1.3,6.25-5.39,6.25-4.41,0-5.78-2.84-5.78-9.09s1.37-9.09,5.8-9.09c5,0,5.27,3.65,5.27,5.49v.31h-2.79v-.29c0-1.64-.49-3.48-2.5-3.41s-3,1.28-3,6.91.91,7.06,3,7.06c2.35,0,2.6-2.57,2.6-4.21v-.3Z" fill="#3b4351"/><path d="M1667.24,82.36H1670v7h5.15v-7H1678v17.5h-2.79V91.72H1670v8.14h-2.79Z" fill="#3b4351"/><path d="M1680.74,82.36h2.79v17.5h-2.79Z" fill="#3b4351"/><path d="M1686.3,82.36h3.4l5.08,13h0v-13h2.64v17.5h-3.4L1689,86.48h0V99.86h-2.64Z" fill="#3b4351"/><path d="M1700.36,82.36h9.46v2.35h-6.67v4.85h6.28v2.36h-6.28V97.5H1710v2.36h-9.66Z" fill="#3b4351"/><path d="M1714.3,94.44v.44c0,2.13,1,3.21,2.87,3.21a2.5,2.5,0,0,0,2.64-2.55c0-1.83-.93-2.64-2.5-3.11l-1.91-.66c-2.55-1-3.65-2.3-3.65-4.8,0-3.19,2.18-5,5.44-5,4.49,0,5,2.79,5,4.6V87h-2.79v-.37c0-1.6-.69-2.53-2.45-2.53a2.24,2.24,0,0,0-2.35,2.53c0,1.49.76,2.25,2.62,3l1.89.69c2.47.88,3.55,2.2,3.55,4.63,0,3.73-2.26,5.27-5.79,5.27-4.33,0-5.31-2.89-5.31-5.34v-.42Z" fill="#3b4351"/><path d="M1724.86,82.36h9.46v2.35h-6.67v4.85h6.28v2.36h-6.28V97.5h6.87v2.36h-9.66Z" fill="#3b4351"/></g><g id="Hittites"><g id="small"><path d="M786.11,28.37h0a2.07,2.07,0,0,1-2.18,1.36c-2.19,0-3-1.62-3-5.19s1-5.2,3.32-5.2a2.72,2.72,0,0,1,2.92,2.88v.19h-1.51v-.24c0-.74-.31-1.63-1.4-1.63s-1.74.76-1.74,3.95.54,4,1.61,4,1.67-.87,1.67-3.06h-1.68v-1.2h3.19v5.27h-1.2Z" fill="#3b4351"/><path d="M788.29,25.77c0-2.35.62-4,2.8-4s2.82,1.62,2.82,4-.73,4-2.82,4S788.29,28.12,788.29,25.77Zm2.8,2.84c1.11,0,1.31-.92,1.31-2.84,0-1.67-.2-2.84-1.31-2.84s-1.29,1.17-1.29,2.84C789.8,27.69,790,28.61,791.09,28.61Z" fill="#3b4351"/><path d="M795.14,19.54h1.51v10h-1.51Z" fill="#3b4351"/><path d="M802,28.61h0a1.61,1.61,0,0,1-1.65,1.12c-1.75,0-2.47-1.48-2.47-4.06,0-3.35,1.18-3.87,2.33-3.87a1.73,1.73,0,0,1,1.7,1.08h0V19.54h1.52v10H802ZM800.65,23c-.85,0-1.17.7-1.17,2.73,0,1.71.21,2.79,1.27,2.79S802,27.48,802,25.85C802,24.05,801.83,23,800.65,23Z" fill="#3b4351"/><path d="M806.21,26v.44c0,1,.13,2.3,1.26,2.3s1.21-1.22,1.21-1.68h1.43a2.48,2.48,0,0,1-2.65,2.71c-1.23,0-2.76-.36-2.76-3.85,0-2,.43-4.08,2.79-4.08,2.1,0,2.66,1.28,2.66,3.37V26Zm2.43-1v-.41c0-.95-.31-1.68-1.17-1.68s-1.26.95-1.26,1.93v.16Z" fill="#3b4351"/><path d="M811.39,22h1.43v.88h0a2.17,2.17,0,0,1,1.93-1.08c1.15,0,1.88.52,1.88,2.05v5.69h-1.51V24.37c0-1-.27-1.36-1-1.36-.62,0-1.21.46-1.21,1.47v5.06h-1.51Z" fill="#3b4351"/><path d="M823,19.54h2l2.63,10H826l-.62-2.45h-2.93l-.64,2.45h-1.67Zm2.13,6.27-1.15-4.93h0l-1.19,4.93Z" fill="#3b4351"/><path d="M829.75,30.18a1,1,0,0,0,1.09.9,1.25,1.25,0,0,0,1.27-1.42V28.44h0a1.82,1.82,0,0,1-1.7,1c-1.76,0-2.26-1.72-2.26-3.8,0-1.65.25-3.88,2.4-3.88a1.67,1.67,0,0,1,1.65,1.13h0V22h1.43v7.17c0,1.84-.79,2.94-2.82,2.94-2.24,0-2.49-1.31-2.49-1.93Zm1.06-1.9c1.18,0,1.3-1.49,1.3-2.68S832,23,830.91,23s-1.28,1.12-1.28,2.52S829.69,28.28,830.81,28.28Z" fill="#3b4351"/><path d="M836.27,26v.44c0,1,.13,2.3,1.26,2.3s1.21-1.22,1.21-1.68h1.42a2.47,2.47,0,0,1-2.64,2.71c-1.24,0-2.76-.36-2.76-3.85,0-2,.43-4.08,2.78-4.08,2.11,0,2.67,1.28,2.67,3.37V26Zm2.42-1v-.41c0-.95-.3-1.68-1.16-1.68s-1.26.95-1.26,1.93v.16Z" fill="#3b4351"/><path d="M844.51,25.77c0-2.35.62-4,2.81-4s2.81,1.62,2.81,4-.73,4-2.81,4S844.51,28.12,844.51,25.77Zm2.81,2.84c1.1,0,1.3-.92,1.3-2.84,0-1.67-.2-2.84-1.3-2.84S846,24.1,846,25.77C846,27.69,846.24,28.61,847.32,28.61Z" fill="#3b4351"/><path d="M851.75,23.12h-1V22h1v-.7c0-1.41.69-1.88,1.92-1.88a6.48,6.48,0,0,1,.83,0v1.16h-.42c-.56,0-.81.21-.81.71V22h1.23v1.12h-1.23v6.42h-1.52Z" fill="#3b4351"/><path d="M858.64,19.54h1.6v4h2.94v-4h1.6v10h-1.6V24.89h-2.94v4.65h-1.6Z" fill="#3b4351"/><path d="M866.4,19.42h1.51v1.52H866.4Zm0,2.58h1.51v7.54H866.4Z" fill="#3b4351"/><path d="M868.76,22h1V19.86h1.51V22h1.23v1.12h-1.23v4.5c0,.6.17.8.69.8a2.61,2.61,0,0,0,.54-.05V29.5a5.08,5.08,0,0,1-1.21.12c-1,0-1.53-.29-1.53-1.82V23.12h-1Z" fill="#3b4351"/><path d="M873.4,19.42h1.51v1.52H873.4Zm0,2.58h1.51v7.54H873.4Z" fill="#3b4351"/><path d="M875.76,22h1V19.86h1.51V22h1.23v1.12h-1.23v4.5c0,.6.17.8.69.8a2.61,2.61,0,0,0,.54-.05V29.5a5.08,5.08,0,0,1-1.21.12c-1,0-1.53-.29-1.53-1.82V23.12h-1Z" fill="#3b4351"/><path d="M879.65,22h1V19.86h1.51V22h1.24v1.12H882.2v4.5c0,.6.17.8.69.8a2.72,2.72,0,0,0,.55-.05V29.5a5.23,5.23,0,0,1-1.22.12c-1,0-1.53-.29-1.53-1.82V23.12h-1Z" fill="#3b4351"/><path d="M885.52,26v.44c0,1,.13,2.3,1.26,2.3S888,27.48,888,27h1.43a2.48,2.48,0,0,1-2.65,2.71c-1.23,0-2.76-.36-2.76-3.85,0-2,.43-4.08,2.79-4.08,2.1,0,2.66,1.28,2.66,3.37V26Zm2.43-1v-.41c0-.95-.31-1.68-1.17-1.68s-1.26.95-1.26,1.93v.16Z" fill="#3b4351"/><path d="M899.15,26.79c-.12,1.81-.7,2.94-2.58,2.94-2.19,0-2.8-1.61-2.8-4s.61-4,2.8-4a2.44,2.44,0,0,1,2.59,2.71h-1.51c0-.7-.19-1.63-1.08-1.58-1.08,0-1.29,1.17-1.29,2.84s.21,2.84,1.29,2.84c.84,0,1.15-.68,1.15-1.82Z" fill="#3b4351"/><path d="M900.35,19.42h1.51v1.52h-1.51Zm0,2.58h1.51v7.54h-1.51Z" fill="#3b4351"/><path d="M902.75,22h1.63l1.32,5.94h0L906.91,22h1.61l-2,7.54h-1.77Z" fill="#3b4351"/><path d="M909.42,19.42h1.51v1.52h-1.51Zm0,2.58h1.51v7.54h-1.51Z" fill="#3b4351"/><path d="M912.53,19.54H914v10h-1.51Z" fill="#3b4351"/><path d="M915.63,19.42h1.52v1.52h-1.52Zm0,2.58h1.52v7.54h-1.52Z" fill="#3b4351"/><path d="M921.92,24.2V24c0-.6-.21-1.16-1-1.16-.6,0-1.08.27-1.08,1s.27.83,1.06,1.11l1,.33a2.05,2.05,0,0,1,1.64,2.18c0,1.61-1.19,2.29-2.7,2.29-1.91,0-2.48-.88-2.48-2.34v-.28h1.34v.24c0,.88.3,1.35,1.18,1.35s1.23-.42,1.23-1.11a1.1,1.1,0,0,0-.83-1.11L920,26.05a2,2,0,0,1-1.61-2.17c0-1.42,1-2.08,2.58-2.08,1.92,0,2.35,1.13,2.35,2.06v.34Z" fill="#3b4351"/><path d="M929.58,28c0,.28.17.53.39.53a.62.62,0,0,0,.26,0v1a1.63,1.63,0,0,1-.75.18c-.67,0-1.23-.27-1.27-1h0a2,2,0,0,1-1.88,1.1c-1.22,0-2-.66-2-2.11a2.08,2.08,0,0,1,1.75-2.37l1.18-.32c.55-.16.88-.31.88-1s-.24-1.12-1-1.12c-1,0-1.15.72-1.15,1.44h-1.43c0-1.61.66-2.48,2.65-2.48,1.33,0,2.39.52,2.39,1.85Zm-1.43-2.41a11.23,11.23,0,0,1-1.68.7,1.25,1.25,0,0,0-.62,1.22c0,.63.31,1.13.94,1.13.91,0,1.36-.67,1.36-1.79Z" fill="#3b4351"/><path d="M930.45,22h1V19.86H933V22h1.24v1.12H933v4.5c0,.6.17.8.69.8a2.64,2.64,0,0,0,.55-.05V29.5a5.17,5.17,0,0,1-1.22.12c-1,0-1.53-.29-1.53-1.82V23.12h-1Z" fill="#3b4351"/><path d="M935.08,19.42h1.51v1.52h-1.51Zm0,2.58h1.51v7.54h-1.51Z" fill="#3b4351"/><path d="M937.82,25.77c0-2.35.62-4,2.8-4s2.82,1.62,2.82,4-.73,4-2.82,4S937.82,28.12,937.82,25.77Zm2.8,2.84c1.11,0,1.31-.92,1.31-2.84,0-1.67-.2-2.84-1.31-2.84s-1.28,1.17-1.28,2.84C939.34,27.69,939.55,28.61,940.62,28.61Z" fill="#3b4351"/><path d="M944.6,22H946v.88h0A2.17,2.17,0,0,1,948,21.8c1.15,0,1.88.52,1.88,2.05v5.69h-1.51V24.37c0-1-.27-1.36-1-1.36-.62,0-1.21.46-1.21,1.47v5.06H944.6Z" fill="#3b4351"/><path d="M839.81,56.52v.26c0,1.22.54,1.83,1.63,1.83A1.44,1.44,0,0,0,843,57.15a1.67,1.67,0,0,0-1.43-1.77L840.44,55a2.67,2.67,0,0,1-2.09-2.75c0-1.82,1.25-2.83,3.11-2.83,2.56,0,2.83,1.6,2.83,2.64v.22h-1.6v-.21c0-.91-.39-1.44-1.4-1.44A1.27,1.27,0,0,0,840,52.07c0,.85.43,1.29,1.49,1.69l1.08.4a2.53,2.53,0,0,1,2,2.64c0,2.13-1.28,3-3.3,3a2.75,2.75,0,0,1-3-3.06v-.24Z" fill="#3b4351"/><path d="M845.81,49.51h1.51V51h-1.51Zm0,2.57h1.51v7.54h-1.51Z" fill="#3b4351"/><path d="M852.7,58.7h0A1.61,1.61,0,0,1,851,59.82c-1.75,0-2.47-1.49-2.47-4.07,0-3.34,1.18-3.86,2.33-3.86A1.73,1.73,0,0,1,852.59,53h0V49.62h1.51v10H852.7Zm-1.37-5.61c-.86,0-1.18.7-1.18,2.73,0,1.71.21,2.79,1.28,2.79s1.27-1,1.27-2.67C852.7,54.13,852.5,53.09,851.33,53.09Z" fill="#3b4351"/><path d="M855.29,55.85c0-2.35.62-4,2.8-4s2.82,1.61,2.82,4-.73,4-2.82,4S855.29,58.21,855.29,55.85Zm2.8,2.85c1.11,0,1.3-.93,1.3-2.85,0-1.66-.19-2.84-1.3-2.84s-1.29,1.18-1.29,2.84C856.8,57.77,857,58.7,858.09,58.7Z" fill="#3b4351"/><path d="M862.06,52.08h1.43V53h0a2.13,2.13,0,0,1,1.93-1.08c1.15,0,1.88.52,1.88,2v5.69h-1.52V54.45c0-1-.26-1.36-1.05-1.36-.61,0-1.2.46-1.2,1.47v5.06h-1.52Z" fill="#3b4351"/><path d="M872.62,53.2h-1V52.08h1v-.7c0-1.41.69-1.87,1.92-1.87a6.67,6.67,0,0,1,.83,0v1.16H875c-.56,0-.82.21-.82.72v.65h1.24V53.2h-1.24v6.42h-1.51Z" fill="#3b4351"/><path d="M875.76,55.85c0-2.35.61-4,2.8-4s2.81,1.61,2.81,4-.73,4-2.81,4S875.76,58.21,875.76,55.85Zm2.8,2.85c1.1,0,1.3-.93,1.3-2.85,0-1.66-.2-2.84-1.3-2.84s-1.29,1.18-1.29,2.84C877.27,57.77,877.48,58.7,878.56,58.7Z" fill="#3b4351"/><path d="M886.38,58.74h0a2.17,2.17,0,0,1-1.93,1.08c-1.12,0-1.88-.52-1.88-2.47V52.08h1.52v5.41c0,.84.36,1.12,1,1.12a1.17,1.17,0,0,0,1.23-1.26V52.08h1.51v7.54h-1.43Z" fill="#3b4351"/><path d="M889.27,52.08h1.43V53h0a2.15,2.15,0,0,1,1.93-1.08c1.15,0,1.88.52,1.88,2v5.69H893V54.45c0-1-.26-1.36-1-1.36-.61,0-1.2.46-1.2,1.47v5.06h-1.51Z" fill="#3b4351"/><path d="M899.85,58.7h0a1.6,1.6,0,0,1-1.65,1.12c-1.75,0-2.46-1.49-2.46-4.07,0-3.34,1.17-3.86,2.32-3.86A1.73,1.73,0,0,1,899.74,53h0V49.62h1.51v10h-1.43Zm-1.37-5.61c-.85,0-1.18.7-1.18,2.73,0,1.71.21,2.79,1.28,2.79s1.27-1,1.27-2.67C899.85,54.13,899.66,53.09,898.48,53.09Z" fill="#3b4351"/><path d="M904,56.05v.43c0,1,.12,2.3,1.26,2.3s1.2-1.22,1.2-1.68h1.43a2.48,2.48,0,0,1-2.65,2.72c-1.23,0-2.76-.37-2.76-3.86,0-2,.44-4.07,2.79-4.07,2.1,0,2.66,1.27,2.66,3.36v.8Zm2.42-1v-.4c0-1-.31-1.69-1.16-1.69s-1.26,1-1.26,1.94V55Z" fill="#3b4351"/><path d="M913.07,58.7h0a1.61,1.61,0,0,1-1.65,1.12c-1.75,0-2.47-1.49-2.47-4.07,0-3.34,1.18-3.86,2.33-3.86A1.74,1.74,0,0,1,913,53h0V49.62h1.52v10h-1.43Zm-1.37-5.61c-.86,0-1.18.7-1.18,2.73,0,1.71.21,2.79,1.27,2.79s1.28-1,1.28-2.67C913.07,54.13,912.87,53.09,911.7,53.09Z" fill="#3b4351"/><path d="M919.31,49.62h1.51V53h0a1.73,1.73,0,0,1,1.71-1.08c1.15,0,2.32.52,2.32,3.86,0,2.6-.71,4.07-2.46,4.07a1.6,1.6,0,0,1-1.65-1.12h0v.92h-1.43Zm2.7,9c1.07,0,1.28-1.08,1.28-2.79,0-2-.32-2.73-1.18-2.73-1.18,0-1.37,1-1.37,2.85C920.74,57.56,921,58.61,922,58.61Z" fill="#3b4351"/><path d="M926.88,52.08l1.31,5.66h0l1.2-5.66H931l-2.07,7.82c-.6,2.06-1.07,2.34-2.63,2.3a3.15,3.15,0,0,1-.61-.06v-1.2a2.09,2.09,0,0,0,.49.05c.52,0,.86-.1,1-.59l.19-.61-2.14-7.71Z" fill="#3b4351"/><path d="M935.3,49.62h3.16c1.92,0,2.76,1.2,2.76,2.91a2.71,2.71,0,0,1-2.92,3h-1.41v4.13H935.3Zm1.59,4.66H938a1.51,1.51,0,0,0,1.6-1.72c0-1.08-.44-1.74-1.71-1.74h-1Z" fill="#3b4351"/><path d="M942.2,49.62h1.51V52.9l0,0a2.18,2.18,0,0,1,1.85-1c1.15,0,1.88.52,1.88,2v5.69H946V54.45c0-1-.28-1.36-1.05-1.36-.62,0-1.21.48-1.21,1.47v5.06H942.2Z" fill="#3b4351"/><path d="M948.64,55.85c0-2.35.62-4,2.8-4s2.82,1.61,2.82,4-.73,4-2.82,4S948.64,58.21,948.64,55.85Zm2.8,2.85c1.11,0,1.3-.93,1.3-2.85,0-1.66-.19-2.84-1.3-2.84s-1.29,1.18-1.29,2.84C950.15,57.77,950.36,58.7,951.44,58.7Z" fill="#3b4351"/><path d="M956.72,56.05v.43c0,1,.12,2.3,1.26,2.3s1.2-1.22,1.2-1.68h1.43A2.48,2.48,0,0,1,958,59.82c-1.23,0-2.76-.37-2.76-3.86,0-2,.44-4.07,2.79-4.07,2.1,0,2.66,1.27,2.66,3.36v.8Zm2.42-1v-.4c0-1-.31-1.69-1.16-1.69s-1.26,1-1.26,1.94V55Z" fill="#3b4351"/><path d="M961.9,52.08h1.43V53h0a2.15,2.15,0,0,1,1.93-1.08c1.15,0,1.88.52,1.88,2v5.69h-1.51V54.45c0-1-.27-1.36-1.06-1.36-.61,0-1.2.46-1.2,1.47v5.06H961.9Z" fill="#3b4351"/><path d="M969.93,56.05v.43c0,1,.13,2.3,1.26,2.3s1.21-1.22,1.21-1.68h1.43a2.48,2.48,0,0,1-2.65,2.72c-1.23,0-2.76-.37-2.76-3.86,0-2,.44-4.07,2.79-4.07,2.1,0,2.66,1.27,2.66,3.36v.8Zm2.43-1v-.4c0-1-.31-1.69-1.17-1.69s-1.26,1-1.26,1.94V55Z" fill="#3b4351"/><path d="M980.2,56.87c-.11,1.81-.7,3-2.58,3-2.18,0-2.8-1.61-2.8-4s.62-4,2.8-4a2.43,2.43,0,0,1,2.59,2.7H978.7c0-.7-.18-1.62-1.08-1.58-1.08,0-1.29,1.18-1.29,2.84s.21,2.85,1.29,2.85c.84,0,1.15-.69,1.15-1.83Z" fill="#3b4351"/><path d="M981.4,49.51h1.51V51H981.4Zm0,2.57h1.51v7.54H981.4Z" fill="#3b4351"/><path d="M989.38,58.05c0,.28.17.53.39.53a.59.59,0,0,0,.26,0v1a1.63,1.63,0,0,1-.75.18c-.67,0-1.23-.26-1.27-1h0a2,2,0,0,1-1.88,1.11c-1.21,0-2-.66-2-2.12a2.09,2.09,0,0,1,1.75-2.37l1.18-.32c.55-.15.88-.31.88-1s-.23-1.12-1-1.12c-1,0-1.15.72-1.15,1.45h-1.43c0-1.61.66-2.48,2.65-2.48,1.33,0,2.39.52,2.39,1.85ZM988,55.64a11.23,11.23,0,0,1-1.68.7,1.24,1.24,0,0,0-.61,1.22c0,.63.3,1.14.93,1.14.91,0,1.36-.68,1.36-1.8Z" fill="#3b4351"/><path d="M990.92,52.08h1.43V53h0a2.15,2.15,0,0,1,1.93-1.08c1.15,0,1.88.52,1.88,2v5.69h-1.51V54.45c0-1-.27-1.36-1.05-1.36-.62,0-1.21.46-1.21,1.47v5.06h-1.51Z" fill="#3b4351"/><path d="M1000.9,54.28v-.19c0-.61-.21-1.17-1-1.17-.6,0-1.08.27-1.08,1s.27.83,1.06,1.11l1,.34a2,2,0,0,1,1.64,2.17c0,1.61-1.19,2.3-2.7,2.3-1.91,0-2.48-.89-2.48-2.34V57.2h1.34v.23c0,.89.3,1.35,1.18,1.35s1.23-.42,1.23-1.11a1.09,1.09,0,0,0-.83-1.1L999,56.13A2,2,0,0,1,997.4,54c0-1.41,1-2.07,2.58-2.07,1.92,0,2.35,1.12,2.35,2.06v.33Z" fill="#3b4351"/><path d="M1003.77,57.77h1.6v1.85h-1.6Z" fill="#3b4351"/><path d="M813.11,73.6h1.6v10h-1.6Z" fill="#3b4351"/><path d="M816.19,76.07h1.51v1.17h0a1.87,1.87,0,0,1,1.75-1.37.77.77,0,0,1,.37.06v1.54a2.17,2.17,0,0,0-.63-.09c-.69,0-1.52.31-1.52,1.71V83.6h-1.51Z" fill="#3b4351"/><path d="M820.31,79.83c0-2.35.61-4,2.8-4s2.81,1.61,2.81,4-.72,4-2.81,4S820.31,82.19,820.31,79.83Zm2.8,2.85c1.1,0,1.3-.93,1.3-2.85,0-1.66-.2-2.84-1.3-2.84s-1.29,1.18-1.29,2.84C821.82,81.75,822,82.68,823.11,82.68Z" fill="#3b4351"/><path d="M827.08,76.07h1.43V77h0a2.18,2.18,0,0,1,1.94-1.08c1.15,0,1.87.52,1.87,2V83.6h-1.51V78.43c0-1-.27-1.35-1.05-1.35-.62,0-1.2.46-1.2,1.47v5h-1.52Z" fill="#3b4351"/><path d="M837.25,76.07h1.43V77h0a2.11,2.11,0,0,1,1.8-1.08A1.65,1.65,0,0,1,842.28,77a2,2,0,0,1,1.9-1.15c1.07,0,1.84.55,1.84,2V83.6H844.5V78.43c0-1-.29-1.35-.91-1.35s-1.2.47-1.2,1.47v5h-1.52V78.43c0-1-.29-1.35-.92-1.35s-1.19.49-1.19,1.47v5h-1.51Z" fill="#3b4351"/><path d="M847.61,73.49h1.51V75h-1.51Zm0,2.58h1.51V83.6h-1.51Z" fill="#3b4351"/><path d="M850.64,76.07h1.43V77h0a2.15,2.15,0,0,1,1.93-1.08c1.15,0,1.88.52,1.88,2V83.6h-1.52V78.43c0-1-.26-1.35-1-1.35-.61,0-1.2.46-1.2,1.47v5h-1.52Z" fill="#3b4351"/><path d="M858.68,80v.43c0,1,.13,2.3,1.26,2.3s1.21-1.22,1.21-1.68h1.43a2.48,2.48,0,0,1-2.65,2.72c-1.24,0-2.76-.37-2.76-3.85,0-2,.43-4.08,2.79-4.08,2.1,0,2.66,1.28,2.66,3.36V80Zm2.42-1v-.4c0-1-.3-1.68-1.16-1.68s-1.26,1-1.26,1.93V79Z" fill="#3b4351"/><path d="M867.11,78.27v-.2c0-.6-.21-1.16-1-1.16-.61,0-1.08.26-1.08,1s.26.82,1.06,1.1l1,.34a2,2,0,0,1,1.64,2.17c0,1.61-1.19,2.3-2.71,2.3-1.9,0-2.48-.88-2.48-2.34v-.28h1.35v.24c0,.88.29,1.34,1.18,1.34s1.23-.42,1.23-1.1a1.09,1.09,0,0,0-.83-1.11l-1.23-.43a2,2,0,0,1-1.61-2.18c0-1.41,1-2.07,2.58-2.07,1.91,0,2.35,1.12,2.35,2.06v.34Z" fill="#3b4351"/><path d="M872.67,76.07h1.56L875.29,82h0l1.12-5.94h1.71L879.26,82h0l1-5.94h1.51l-1.72,7.53h-1.7l-1.17-5.85h0l-1.08,5.85h-1.77Z" fill="#3b4351"/><path d="M882.4,79.83c0-2.35.61-4,2.8-4s2.81,1.61,2.81,4-.73,4-2.81,4S882.4,82.19,882.4,79.83Zm2.8,2.85c1.1,0,1.3-.93,1.3-2.85,0-1.66-.2-2.84-1.3-2.84s-1.29,1.18-1.29,2.84C883.91,81.75,884.12,82.68,885.2,82.68Z" fill="#3b4351"/><path d="M889.17,76.07h1.51v1.17h0a1.87,1.87,0,0,1,1.75-1.37.77.77,0,0,1,.37.06v1.54a2.17,2.17,0,0,0-.63-.09c-.69,0-1.52.31-1.52,1.71V83.6h-1.51Z" fill="#3b4351"/><path d="M893.58,73.6h1.51v5.62h0l2.29-3.15,1.75,0L896.89,79l2.56,4.63H897.8L896,80.17l-.86,1V83.6h-1.51Z" fill="#3b4351"/><path d="M901.28,80v.43c0,1,.13,2.3,1.26,2.3s1.21-1.22,1.21-1.68h1.43a2.48,2.48,0,0,1-2.65,2.72c-1.23,0-2.76-.37-2.76-3.85,0-2,.43-4.08,2.79-4.08,2.1,0,2.66,1.28,2.66,3.36V80Zm2.43-1v-.4c0-1-.31-1.68-1.17-1.68s-1.26,1-1.26,1.93V79Z" fill="#3b4351"/><path d="M910.31,82.68h0a1.62,1.62,0,0,1-1.66,1.12c-1.75,0-2.46-1.49-2.46-4.06,0-3.35,1.17-3.87,2.32-3.87A1.74,1.74,0,0,1,910.2,77h0V73.6h1.51v10h-1.43Zm-1.37-5.6c-.85,0-1.18.7-1.18,2.73,0,1.71.21,2.78,1.28,2.78s1.27-1,1.27-2.67C910.31,78.11,910.12,77.08,908.94,77.08Z" fill="#3b4351"/><path d="M916.26,79.83c0-2.35.62-4,2.8-4s2.82,1.61,2.82,4-.73,4-2.82,4S916.26,82.19,916.26,79.83Zm2.8,2.85c1.11,0,1.31-.93,1.31-2.85,0-1.66-.2-2.84-1.31-2.84s-1.29,1.18-1.29,2.84C917.77,81.75,918,82.68,919.06,82.68Z" fill="#3b4351"/><path d="M923,76.07h1.43V77h0a2.17,2.17,0,0,1,1.93-1.08c1.15,0,1.88.52,1.88,2V83.6h-1.51V78.43c0-1-.27-1.35-1.06-1.35-.61,0-1.2.46-1.2,1.47v5H923Z" fill="#3b4351"/><path d="M932.46,76.07h1V73.92H935v2.15h1.23v1.12H935v4.49c0,.61.17.8.68.8a2.75,2.75,0,0,0,.55,0v1.12a5.11,5.11,0,0,1-1.22.13c-1,0-1.52-.3-1.52-1.82V77.19h-1Z" fill="#3b4351"/><path d="M937,73.6h1.52v3.28l0,0a2.14,2.14,0,0,1,1.85-1c1.15,0,1.87.52,1.87,2V83.6h-1.51V78.43c0-1-.28-1.35-1-1.35s-1.2.47-1.2,1.47v5H937Z" fill="#3b4351"/><path d="M945.06,80v.43c0,1,.13,2.3,1.26,2.3s1.2-1.22,1.2-1.68H949a2.48,2.48,0,0,1-2.64,2.72c-1.24,0-2.76-.37-2.76-3.85,0-2,.43-4.08,2.78-4.08,2.1,0,2.67,1.28,2.67,3.36V80Zm2.42-1v-.4c0-1-.31-1.68-1.16-1.68s-1.26,1-1.26,1.93V79Z" fill="#3b4351"/><path d="M823.83,98.6h3.24c1.5,0,2.69.67,2.69,2.42a2.09,2.09,0,0,1-1.47,2.27v0c1.09.2,1.79.86,1.79,2.55s-1.2,2.73-3.08,2.73h-3.17Zm2.86,4.22a1.4,1.4,0,0,0,1.47-1.58c0-1.2-.71-1.43-1.61-1.43h-1.12v3Zm.32,4.58c1,0,1.47-.6,1.47-1.77a1.51,1.51,0,0,0-1.56-1.69h-1.49v3.46Z" fill="#3b4351"/><path d="M831.32,98.6h1.52v10h-1.52Z" fill="#3b4351"/><path d="M839.31,107c0,.28.16.54.39.54a.55.55,0,0,0,.25,0v1a1.58,1.58,0,0,1-.74.19c-.67,0-1.23-.27-1.28-1h0A1.94,1.94,0,0,1,836,108.8c-1.22,0-2-.66-2-2.12a2.06,2.06,0,0,1,1.75-2.36L837,104c.54-.15.88-.3.88-1s-.24-1.12-1-1.12c-1,0-1.15.71-1.15,1.44h-1.43c0-1.61.66-2.48,2.65-2.48,1.33,0,2.4.52,2.4,1.85Zm-1.43-2.41a12.44,12.44,0,0,1-1.68.71,1.22,1.22,0,0,0-.62,1.21c0,.63.31,1.14.94,1.14.91,0,1.36-.67,1.36-1.79Z" fill="#3b4351"/><path d="M845.93,105.86c-.11,1.8-.7,2.94-2.58,2.94-2.18,0-2.8-1.61-2.8-4s.62-4,2.8-4a2.43,2.43,0,0,1,2.59,2.7h-1.51c0-.7-.18-1.62-1.08-1.58-1.08,0-1.29,1.18-1.29,2.84s.21,2.85,1.29,2.85c.84,0,1.15-.69,1.15-1.82Z" fill="#3b4351"/><path d="M847,98.6h1.51v5.62h0l2.28-3.15,1.75,0L850.28,104l2.56,4.63h-1.65l-1.85-3.43-.85,1v2.39H847Z" fill="#3b4351"/><path d="M858.15,105.51v.25c0,1.22.54,1.83,1.64,1.83a1.43,1.43,0,0,0,1.51-1.45,1.68,1.68,0,0,0-1.43-1.78l-1.09-.38c-1.46-.56-2.09-1.32-2.09-2.74,0-1.83,1.25-2.83,3.11-2.83,2.56,0,2.83,1.59,2.83,2.63v.22H861v-.21c0-.91-.39-1.44-1.4-1.44a1.28,1.28,0,0,0-1.34,1.44c0,.86.43,1.29,1.5,1.7l1.08.39a2.55,2.55,0,0,1,2,2.65c0,2.13-1.29,3-3.31,3a2.74,2.74,0,0,1-3-3v-.24Z" fill="#3b4351"/><path d="M865.39,105v.44c0,1,.12,2.29,1.26,2.29s1.2-1.22,1.2-1.68h1.43a2.48,2.48,0,0,1-2.65,2.72c-1.23,0-2.76-.36-2.76-3.85,0-2,.44-4.08,2.79-4.08,2.1,0,2.66,1.28,2.66,3.36v.8Zm2.42-1v-.4c0-1-.31-1.68-1.16-1.68s-1.26,1-1.26,1.93V104Z" fill="#3b4351"/><path d="M875.51,107c0,.28.17.54.39.54a.52.52,0,0,0,.25,0v1a1.55,1.55,0,0,1-.74.19c-.67,0-1.23-.27-1.27-1h0a1.94,1.94,0,0,1-1.88,1.11c-1.22,0-2-.66-2-2.12a2.06,2.06,0,0,1,1.75-2.36l1.18-.33c.55-.15.88-.3.88-1s-.24-1.12-1-1.12c-1,0-1.14.71-1.14,1.44h-1.43c0-1.61.66-2.48,2.64-2.48,1.34,0,2.4.52,2.4,1.85Zm-1.43-2.41a12.44,12.44,0,0,1-1.68.71,1.23,1.23,0,0,0-.62,1.21c0,.63.31,1.14.94,1.14.91,0,1.36-.67,1.36-1.79Z" fill="#3b4351"/><path d="M877.2,106.75h1.6v1.85a1.88,1.88,0,0,1-1.6,2.16V110c.44-.11.7-.52.7-1.14v-.21h-.7Z" fill="#3b4351"/><path d="M888.19,107c0,.28.17.54.4.54a.55.55,0,0,0,.25,0v1a1.58,1.58,0,0,1-.74.19c-.68,0-1.24-.27-1.28-1h0a1.93,1.93,0,0,1-1.87,1.11c-1.22,0-2-.66-2-2.12a2.07,2.07,0,0,1,1.76-2.36l1.17-.33c.55-.15.89-.3.89-1s-.24-1.12-1-1.12c-1,0-1.15.71-1.15,1.44h-1.43c0-1.61.66-2.48,2.65-2.48,1.33,0,2.39.52,2.39,1.85Zm-1.42-2.41a12,12,0,0,1-1.69.71,1.23,1.23,0,0,0-.61,1.21c0,.63.31,1.14.94,1.14.91,0,1.36-.67,1.36-1.79Z" fill="#3b4351"/><path d="M889.73,101.07h1.43V102h0a2.17,2.17,0,0,1,1.94-1.08c1.14,0,1.87.52,1.87,2v5.68H893.5v-5.17c0-1-.27-1.35-1-1.35-.62,0-1.21.46-1.21,1.47v5h-1.51Z" fill="#3b4351"/><path d="M900.32,107.68h0a1.61,1.61,0,0,1-1.65,1.12c-1.75,0-2.47-1.49-2.47-4.06,0-3.35,1.18-3.87,2.33-3.87a1.73,1.73,0,0,1,1.7,1.08h0V98.6h1.52v10h-1.43Zm-1.38-5.6c-.85,0-1.17.7-1.17,2.73,0,1.71.21,2.78,1.27,2.78s1.28-1,1.28-2.67C900.32,103.11,900.12,102.08,898.94,102.08Z" fill="#3b4351"/><path d="M906.63,98.49h1.51V100h-1.51Zm0,2.58h1.51v7.53h-1.51Z" fill="#3b4351"/><path d="M909.67,101.07h1.51v1.17h0a1.85,1.85,0,0,1,1.75-1.37.73.73,0,0,1,.36.06v1.54a2.11,2.11,0,0,0-.63-.09c-.68,0-1.51.31-1.51,1.71v4.51h-1.51Z" fill="#3b4351"/><path d="M913.78,104.83c0-2.35.62-4,2.8-4s2.82,1.61,2.82,4-.73,4-2.82,4S913.78,107.19,913.78,104.83Zm2.8,2.85c1.11,0,1.31-.93,1.31-2.85,0-1.66-.2-2.84-1.31-2.84s-1.28,1.18-1.28,2.84C915.3,106.75,915.51,107.68,916.58,107.68Z" fill="#3b4351"/><path d="M920.56,101.07H922V102h0a2.17,2.17,0,0,1,1.93-1.08c1.15,0,1.88.52,1.88,2v5.68h-1.51v-5.17c0-1-.27-1.35-1.05-1.35-.62,0-1.21.46-1.21,1.47v5h-1.51Z" fill="#3b4351"/></g></g><g id="Egytians"><g id="small-2" data-name="small"><path d="M382.81,9.74H386c1.92,0,2.76,1.21,2.76,2.92a2.72,2.72,0,0,1-2.93,2.95h-1.4v4.14h-1.6Zm1.6,4.67h1.13a1.5,1.5,0,0,0,1.6-1.72c0-1.08-.43-1.74-1.71-1.74h-1Z" fill="#3b4351"/><path d="M391,16.17v.44c0,1,.12,2.29,1.26,2.29s1.2-1.21,1.2-1.68h1.43a2.48,2.48,0,0,1-2.65,2.72c-1.23,0-2.76-.36-2.76-3.85,0-2,.44-4.08,2.79-4.08,2.1,0,2.66,1.28,2.66,3.36v.8Zm2.42-1v-.41c0-1-.31-1.68-1.16-1.68S391,14,391,15v.16Z" fill="#3b4351"/><path d="M396.2,12.21h1.51v1.18h0A1.86,1.86,0,0,1,399.49,12a.87.87,0,0,1,.36.06v1.54a2.18,2.18,0,0,0-.63-.08c-.69,0-1.51.3-1.51,1.7v4.52H396.2Z" fill="#3b4351"/><path d="M400.67,9.63h1.52v1.51h-1.52Zm0,2.58h1.52v7.54h-1.52Z" fill="#3b4351"/><path d="M403.42,16c0-2.36.62-4,2.8-4S409,13.62,409,16s-.73,4-2.82,4S403.42,18.33,403.42,16Zm2.8,2.84c1.11,0,1.3-.92,1.3-2.84,0-1.67-.19-2.85-1.3-2.85s-1.29,1.18-1.29,2.85C404.93,17.9,405.14,18.82,406.22,18.82Z" fill="#3b4351"/><path d="M414.05,18.82h0a1.61,1.61,0,0,1-1.65,1.12c-1.76,0-2.47-1.48-2.47-4.06,0-3.35,1.18-3.87,2.33-3.87a1.74,1.74,0,0,1,1.7,1.08h0V9.74h1.52v10h-1.43Zm-1.38-5.6c-.85,0-1.17.7-1.17,2.73,0,1.71.21,2.79,1.27,2.79s1.28-1,1.28-2.68C414.05,14.25,413.85,13.22,412.67,13.22Z" fill="#3b4351"/><path d="M420,16c0-2.36.62-4,2.81-4s2.81,1.61,2.81,4-.73,4-2.81,4S420,18.33,420,16Zm2.81,2.84c1.1,0,1.3-.92,1.3-2.84,0-1.67-.2-2.85-1.3-2.85s-1.29,1.18-1.29,2.85C421.51,17.9,421.72,18.82,422.8,18.82Z" fill="#3b4351"/><path d="M427.23,13.33h-1.05V12.21h1.05v-.7c0-1.42.69-1.88,1.92-1.88.32,0,.6,0,.83,0v1.17h-.42c-.56,0-.81.21-.81.71v.66H430v1.12h-1.23v6.42h-1.52Z" fill="#3b4351"/><path d="M433.35,12.21h1V10.07h1.51v2.14h1.23v1.12H435.9v4.5c0,.6.17.79.69.79a2.7,2.7,0,0,0,.54,0V19.7a4.64,4.64,0,0,1-1.22.13c-1,0-1.52-.29-1.52-1.82V13.33h-1Z" fill="#3b4351"/><path d="M437.91,9.74h1.52V13l0,0a2.14,2.14,0,0,1,1.85-1c1.15,0,1.88.52,1.88,2.05v5.69h-1.52V14.58c0-1-.28-1.36-1.05-1.36-.61,0-1.2.47-1.2,1.47v5.06h-1.52Z" fill="#3b4351"/><path d="M446,16.17v.44c0,1,.13,2.29,1.26,2.29s1.21-1.21,1.21-1.68h1.43a2.48,2.48,0,0,1-2.65,2.72c-1.24,0-2.76-.36-2.76-3.85,0-2,.43-4.08,2.79-4.08,2.1,0,2.66,1.28,2.66,3.36v.8Zm2.42-1v-.41c0-1-.3-1.68-1.16-1.68S446,14,446,15v.16Z" fill="#3b4351"/><path d="M455.71,11.09h-2.38V9.74h6.32v1.35h-2.34v8.66h-1.6Z" fill="#3b4351"/><path d="M460.72,16.17v.44c0,1,.13,2.29,1.26,2.29s1.21-1.21,1.21-1.68h1.43A2.48,2.48,0,0,1,462,19.94c-1.24,0-2.76-.36-2.76-3.85,0-2,.43-4.08,2.79-4.08,2.1,0,2.66,1.28,2.66,3.36v.8Zm2.42-1v-.41c0-1-.3-1.68-1.16-1.68s-1.26.95-1.26,1.93v.16Z" fill="#3b4351"/><path d="M466,9.74h1.51v10H466Z" fill="#3b4351"/><path d="M468.91,15h3.67v1.43h-3.67Z" fill="#3b4351"/><path d="M478.88,18.18c0,.28.17.53.39.53a.72.72,0,0,0,.25,0v1a1.55,1.55,0,0,1-.74.18c-.67,0-1.23-.27-1.27-1h0a1.94,1.94,0,0,1-1.88,1.11c-1.22,0-2-.66-2-2.11a2.07,2.07,0,0,1,1.75-2.37l1.18-.32c.55-.16.88-.31.88-1s-.24-1.12-1-1.12c-1,0-1.14.71-1.14,1.44h-1.43c0-1.61.66-2.48,2.65-2.48,1.33,0,2.39.52,2.39,1.85Zm-1.43-2.41a12.39,12.39,0,0,1-1.68.7,1.25,1.25,0,0,0-.62,1.22c0,.63.31,1.13.94,1.13.91,0,1.36-.67,1.36-1.79Z" fill="#3b4351"/><path d="M480.49,9.74H482v10h-1.51Z" fill="#3b4351"/><path d="M483.43,15h3.67v1.43h-3.67Z" fill="#3b4351"/><path d="M490.44,9.74h2.05l2.63,10h-1.67l-.61-2.46h-2.93l-.64,2.46H487.6ZM492.57,16l-1.15-4.93h0L490.2,16Z" fill="#3b4351"/><path d="M495.72,12.21h1.51v1.18h0A1.88,1.88,0,0,1,499,12a.92.92,0,0,1,.37.06v1.54a2.3,2.3,0,0,0-.63-.08c-.69,0-1.52.3-1.52,1.7v4.52h-1.51Z" fill="#3b4351"/><path d="M500.34,12.21h1.43v.88h0A2.12,2.12,0,0,1,503.62,12a1.64,1.64,0,0,1,1.75,1.15,2,2,0,0,1,1.9-1.15c1.07,0,1.84.55,1.84,2v5.73H507.6V14.58c0-1-.3-1.36-.92-1.36s-1.2.47-1.2,1.47v5.06H504V14.58c0-1-.3-1.36-.93-1.36s-1.19.49-1.19,1.47v5.06h-1.51Z" fill="#3b4351"/><path d="M515.57,18.18c0,.28.17.53.4.53a.76.76,0,0,0,.25,0v1a1.58,1.58,0,0,1-.74.18c-.68,0-1.24-.27-1.28-1h0a1.93,1.93,0,0,1-1.87,1.11c-1.22,0-2-.66-2-2.11a2.08,2.08,0,0,1,1.76-2.37l1.17-.32c.55-.16.88-.31.88-1s-.23-1.12-1-1.12c-1,0-1.15.71-1.15,1.44h-1.43c0-1.61.66-2.48,2.65-2.48,1.33,0,2.39.52,2.39,1.85Zm-1.43-2.41a11.41,11.41,0,0,1-1.68.7,1.24,1.24,0,0,0-.61,1.22c0,.63.31,1.13.94,1.13.91,0,1.35-.67,1.35-1.79Z" fill="#3b4351"/><path d="M517.11,12.21h1.43v.88h0A2.17,2.17,0,0,1,520.52,12c1.14,0,1.87.52,1.87,2.05v5.69h-1.51V14.58c0-1-.27-1.36-1-1.36-.62,0-1.21.46-1.21,1.47v5.06h-1.51Z" fill="#3b4351"/><path d="M528.79,18.18c0,.28.17.53.39.53a.72.72,0,0,0,.25,0v1a1.55,1.55,0,0,1-.74.18c-.67,0-1.23-.27-1.27-1h0a1.94,1.94,0,0,1-1.88,1.11c-1.22,0-2-.66-2-2.11a2.07,2.07,0,0,1,1.75-2.37l1.18-.32c.54-.16.88-.31.88-1s-.24-1.12-1-1.12c-1,0-1.14.71-1.14,1.44h-1.43c0-1.61.66-2.48,2.64-2.48,1.34,0,2.4.52,2.4,1.85Zm-1.43-2.41a12.39,12.39,0,0,1-1.68.7,1.25,1.25,0,0,0-.62,1.22c0,.63.31,1.13.94,1.13.91,0,1.36-.67,1.36-1.79Z" fill="#3b4351"/><path d="M533.76,9.74h1.51v10h-1.51Z" fill="#3b4351"/><path d="M538.1,16.17v.44c0,1,.12,2.29,1.26,2.29s1.2-1.21,1.2-1.68H542a2.48,2.48,0,0,1-2.65,2.72c-1.23,0-2.76-.36-2.76-3.85,0-2,.44-4.08,2.79-4.08,2.1,0,2.66,1.28,2.66,3.36v.8Zm2.42-1v-.41c0-1-.31-1.68-1.16-1.68S538.1,14,538.1,15v.16Z" fill="#3b4351"/><path d="M542.6,12.21h1V10.07h1.51v2.14h1.24v1.12h-1.24v4.5c0,.6.17.79.69.79a2.81,2.81,0,0,0,.55,0V19.7a4.69,4.69,0,0,1-1.22.13c-1,0-1.53-.29-1.53-1.82V13.33h-1Z" fill="#3b4351"/><path d="M546.5,12.21h1V10.07h1.52v2.14h1.23v1.12h-1.23v4.5c0,.6.16.79.68.79a2.75,2.75,0,0,0,.55,0V19.7a4.64,4.64,0,0,1-1.22.13c-1,0-1.53-.29-1.53-1.82V13.33h-1Z" fill="#3b4351"/><path d="M552.36,16.17v.44c0,1,.13,2.29,1.26,2.29s1.21-1.21,1.21-1.68h1.43a2.48,2.48,0,0,1-2.65,2.72c-1.23,0-2.76-.36-2.76-3.85,0-2,.44-4.08,2.79-4.08,2.1,0,2.66,1.28,2.66,3.36v.8Zm2.43-1v-.41c0-1-.31-1.68-1.17-1.68s-1.26.95-1.26,1.93v.16Z" fill="#3b4351"/><path d="M557.54,12.21h1.52v1.18h0A1.88,1.88,0,0,1,560.83,12a.92.92,0,0,1,.37.06v1.54a2.24,2.24,0,0,0-.63-.08c-.69,0-1.51.3-1.51,1.7v4.52h-1.52Z" fill="#3b4351"/><path d="M565.2,14.41v-.2c0-.6-.21-1.16-1-1.16-.6,0-1.08.27-1.08,1s.27.83,1.06,1.11l1,.33a2,2,0,0,1,1.64,2.17c0,1.61-1.19,2.3-2.7,2.3-1.91,0-2.48-.88-2.48-2.34v-.28H563v.24c0,.88.3,1.34,1.18,1.34s1.23-.42,1.23-1.1a1.09,1.09,0,0,0-.83-1.11l-1.23-.43a2,2,0,0,1-1.61-2.17c0-1.42,1-2.08,2.58-2.08,1.92,0,2.35,1.12,2.35,2.06v.34Z" fill="#3b4351"/><path d="M568.07,17.9h1.6v1.85a1.87,1.87,0,0,1-1.6,2.15v-.81a1,1,0,0,0,.7-1.13v-.21h-.7Z" fill="#3b4351"/><path d="M579.2,17c-.11,1.81-.7,2.94-2.57,2.94-2.19,0-2.81-1.61-2.81-4s.62-4,2.81-4a2.44,2.44,0,0,1,2.59,2.71H577.7c0-.7-.18-1.63-1.07-1.59-1.08,0-1.29,1.18-1.29,2.85s.21,2.84,1.29,2.84c.84,0,1.14-.69,1.14-1.82Z" fill="#3b4351"/><path d="M580.4,9.74h1.52v10H580.4Z" fill="#3b4351"/><path d="M588.39,18.18c0,.28.16.53.39.53a.76.76,0,0,0,.25,0v1a1.58,1.58,0,0,1-.74.18c-.67,0-1.23-.27-1.28-1h0a1.94,1.94,0,0,1-1.88,1.11c-1.22,0-2-.66-2-2.11a2.07,2.07,0,0,1,1.75-2.37l1.18-.32c.54-.16.88-.31.88-1s-.24-1.12-1-1.12c-1,0-1.15.71-1.15,1.44h-1.43c0-1.61.66-2.48,2.65-2.48,1.33,0,2.4.52,2.4,1.85ZM587,15.77a12.39,12.39,0,0,1-1.68.7,1.23,1.23,0,0,0-.62,1.22c0,.63.31,1.13.94,1.13.91,0,1.36-.67,1.36-1.79Z" fill="#3b4351"/><path d="M590.93,12.21l1.3,5.66h0l1.21-5.66h1.58L593,20c-.61,2-1.07,2.33-2.64,2.29a3,3,0,0,1-.6-.05V21.06a2.05,2.05,0,0,0,.49.06c.52,0,.86-.1,1-.59l.2-.62-2.14-7.7Z" fill="#3b4351"/><path d="M598.58,12.21h1V10.07h1.51v2.14h1.24v1.12h-1.24v4.5c0,.6.17.79.69.79a2.75,2.75,0,0,0,.55,0V19.7a4.64,4.64,0,0,1-1.22.13c-1,0-1.53-.29-1.53-1.82V13.33h-1Z" fill="#3b4351"/><path d="M608.08,18.18c0,.28.17.53.4.53a.76.76,0,0,0,.25,0v1a1.58,1.58,0,0,1-.74.18c-.68,0-1.24-.27-1.28-1h0a1.93,1.93,0,0,1-1.87,1.11c-1.22,0-2-.66-2-2.11a2.07,2.07,0,0,1,1.75-2.37l1.17-.32c.55-.16.89-.31.89-1s-.24-1.12-1-1.12c-1,0-1.15.71-1.15,1.44H603c0-1.61.66-2.48,2.65-2.48,1.33,0,2.39.52,2.39,1.85Zm-1.42-2.41a12,12,0,0,1-1.69.7,1.24,1.24,0,0,0-.61,1.22c0,.63.31,1.13.94,1.13.91,0,1.36-.67,1.36-1.79Z" fill="#3b4351"/><path d="M609.62,9.74h1.51v3.35h0A1.74,1.74,0,0,1,612.87,12c1.15,0,2.33.52,2.33,3.87,0,2.59-.72,4.06-2.47,4.06a1.61,1.61,0,0,1-1.65-1.12h0v.93h-1.43Zm2.7,9c1.07,0,1.28-1.08,1.28-2.79,0-2-.32-2.73-1.18-2.73-1.17,0-1.37,1-1.37,2.84C611.05,17.69,611.29,18.74,612.32,18.74Z" fill="#3b4351"/><path d="M616.43,9.74h1.51v10h-1.51Z" fill="#3b4351"/><path d="M620.77,16.17v.44c0,1,.12,2.29,1.26,2.29s1.2-1.21,1.2-1.68h1.43A2.48,2.48,0,0,1,622,19.94c-1.23,0-2.76-.36-2.76-3.85,0-2,.44-4.08,2.79-4.08,2.1,0,2.66,1.28,2.66,3.36v.8Zm2.42-1v-.41c0-1-.31-1.68-1.16-1.68s-1.26.95-1.26,1.93v.16Z" fill="#3b4351"/><path d="M625.27,12.21h1V10.07h1.51v2.14h1.23v1.12h-1.23v4.5c0,.6.17.79.69.79a2.7,2.7,0,0,0,.54,0V19.7a4.56,4.56,0,0,1-1.21.13c-1,0-1.53-.29-1.53-1.82V13.33h-1Z" fill="#3b4351"/><path d="M633.09,14.41v-.2c0-.6-.21-1.16-1-1.16-.6,0-1.08.27-1.08,1s.27.83,1.07,1.11l1,.33a2,2,0,0,1,1.64,2.17c0,1.61-1.19,2.3-2.7,2.3-1.9,0-2.48-.88-2.48-2.34v-.28h1.35v.24c0,.88.29,1.34,1.17,1.34s1.23-.42,1.23-1.1a1.08,1.08,0,0,0-.82-1.11l-1.23-.43a2,2,0,0,1-1.62-2.17c0-1.42,1-2.08,2.58-2.08,1.92,0,2.36,1.12,2.36,2.06v.34Z" fill="#3b4351"/><path d="M638.87,16c0-2.36.61-4,2.8-4s2.81,1.61,2.81,4-.72,4-2.81,4S638.87,18.33,638.87,16Zm2.8,2.84c1.1,0,1.3-.92,1.3-2.84,0-1.67-.2-2.85-1.3-2.85s-1.29,1.18-1.29,2.85C640.38,17.9,640.59,18.82,641.67,18.82Z" fill="#3b4351"/><path d="M646.1,13.33h-1.05V12.21h1.05v-.7c0-1.42.69-1.88,1.92-1.88.33,0,.61,0,.83,0v1.17h-.42c-.56,0-.81.21-.81.71v.66h1.23v1.12h-1.23v6.42H646.1Z" fill="#3b4351"/><path d="M653,9.63h1.52v1.51H653Zm0,2.58h1.52v7.54H653Z" fill="#3b4351"/><path d="M656,12.21h1.43v.88h0A2.18,2.18,0,0,1,659.41,12c1.15,0,1.87.52,1.87,2.05v5.69h-1.51V14.58c0-1-.27-1.36-1-1.36-.62,0-1.2.46-1.2,1.47v5.06H656Z" fill="#3b4351"/><path d="M662.06,12.21h1V10.07h1.51v2.14h1.24v1.12h-1.24v4.5c0,.6.17.79.69.79a2.81,2.81,0,0,0,.55,0V19.7a4.69,4.69,0,0,1-1.22.13c-1,0-1.53-.29-1.53-1.82V13.33h-1Z" fill="#3b4351"/><path d="M667.93,16.17v.44c0,1,.13,2.29,1.26,2.29s1.21-1.21,1.21-1.68h1.43a2.48,2.48,0,0,1-2.65,2.72c-1.23,0-2.76-.36-2.76-3.85,0-2,.43-4.08,2.79-4.08,2.1,0,2.66,1.28,2.66,3.36v.8Zm2.42-1v-.41c0-1-.3-1.68-1.16-1.68s-1.26.95-1.26,1.93v.16Z" fill="#3b4351"/><path d="M673.11,12.21h1.51v1.18h0A1.88,1.88,0,0,1,676.4,12a.92.92,0,0,1,.37.06v1.54a2.3,2.3,0,0,0-.63-.08c-.69,0-1.52.3-1.52,1.7v4.52h-1.51Z" fill="#3b4351"/><path d="M677.66,12.21h1.43v.88h0A2.17,2.17,0,0,1,681.06,12c1.15,0,1.88.52,1.88,2.05v5.69h-1.51V14.58c0-1-.27-1.36-1-1.36-.62,0-1.21.46-1.21,1.47v5.06h-1.51Z" fill="#3b4351"/><path d="M689.34,18.18c0,.28.17.53.39.53a.72.72,0,0,0,.25,0v1a1.55,1.55,0,0,1-.74.18c-.67,0-1.23-.27-1.27-1h0a1.94,1.94,0,0,1-1.88,1.11c-1.22,0-2-.66-2-2.11a2.07,2.07,0,0,1,1.75-2.37l1.18-.32c.54-.16.88-.31.88-1s-.24-1.12-1-1.12c-1,0-1.14.71-1.14,1.44H684.3c0-1.61.65-2.48,2.64-2.48,1.33,0,2.4.52,2.4,1.85Zm-1.43-2.41a12.39,12.39,0,0,1-1.68.7,1.23,1.23,0,0,0-.62,1.22c0,.63.31,1.13.94,1.13.91,0,1.36-.67,1.36-1.79Z" fill="#3b4351"/><path d="M690.2,12.21h1V10.07h1.51v2.14H694v1.12h-1.24v4.5c0,.6.17.79.69.79a2.81,2.81,0,0,0,.55,0V19.7a4.69,4.69,0,0,1-1.22.13c-1,0-1.53-.29-1.53-1.82V13.33h-1Z" fill="#3b4351"/><path d="M694.84,9.63h1.51v1.51h-1.51Zm0,2.58h1.51v7.54h-1.51Z" fill="#3b4351"/><path d="M697.58,16c0-2.36.62-4,2.8-4s2.82,1.61,2.82,4-.73,4-2.82,4S697.58,18.33,697.58,16Zm2.8,2.84c1.11,0,1.31-.92,1.31-2.84,0-1.67-.2-2.85-1.31-2.85S699.1,14.31,699.1,16C699.1,17.9,699.31,18.82,700.38,18.82Z" fill="#3b4351"/><path d="M704.36,12.21h1.43v.88h0A2.17,2.17,0,0,1,707.76,12c1.15,0,1.88.52,1.88,2.05v5.69h-1.51V14.58c0-1-.27-1.36-1-1.36-.62,0-1.21.46-1.21,1.47v5.06h-1.51Z" fill="#3b4351"/><path d="M711,15h3.67v1.43H711Z" fill="#3b4351"/><path d="M401.18,38.18c0,.28.17.53.39.53a.78.78,0,0,0,.26,0v1a1.63,1.63,0,0,1-.75.18c-.67,0-1.23-.27-1.27-1h0a1.94,1.94,0,0,1-1.88,1.11c-1.21,0-2-.66-2-2.11a2.08,2.08,0,0,1,1.75-2.37l1.18-.32c.55-.16.88-.31.88-1s-.23-1.12-1-1.12c-1,0-1.15.71-1.15,1.44h-1.43c0-1.61.66-2.48,2.65-2.48,1.33,0,2.39.52,2.39,1.85Zm-1.43-2.41a12.39,12.39,0,0,1-1.68.7,1.24,1.24,0,0,0-.61,1.22c0,.63.3,1.13.93,1.13.91,0,1.36-.67,1.36-1.79Z" fill="#3b4351"/><path d="M402.79,29.74h1.51v10h-1.51Z" fill="#3b4351"/><path d="M414.27,37c-.11,1.81-.7,2.94-2.58,2.94-2.18,0-2.8-1.61-2.8-4s.62-4,2.8-4a2.44,2.44,0,0,1,2.6,2.71h-1.52c0-.7-.18-1.63-1.08-1.59-1.07,0-1.28,1.18-1.28,2.85s.21,2.84,1.28,2.84c.84,0,1.15-.69,1.15-1.82Z" fill="#3b4351"/><path d="M415.11,36c0-2.36.62-4,2.8-4s2.82,1.61,2.82,4-.73,4-2.82,4S415.11,38.33,415.11,36Zm2.8,2.84c1.11,0,1.3-.92,1.3-2.84,0-1.67-.19-2.85-1.3-2.85s-1.29,1.18-1.29,2.85C416.62,37.9,416.83,38.82,417.91,38.82Z" fill="#3b4351"/><path d="M421.88,32.21h1.52v1.18h0A1.86,1.86,0,0,1,425.18,32a.87.87,0,0,1,.36.06v1.54a2.18,2.18,0,0,0-.63-.08c-.69,0-1.51.3-1.51,1.7v4.52h-1.52Z" fill="#3b4351"/><path d="M426.29,32.21h1.52v1.18h0A1.88,1.88,0,0,1,429.59,32a.87.87,0,0,1,.36.06v1.54a2.18,2.18,0,0,0-.63-.08c-.69,0-1.51.3-1.51,1.7v4.52h-1.52Z" fill="#3b4351"/><path d="M431.92,36.17v.44c0,1,.13,2.29,1.26,2.29s1.21-1.21,1.21-1.68h1.43a2.48,2.48,0,0,1-2.65,2.72c-1.23,0-2.76-.36-2.76-3.85,0-2,.43-4.08,2.79-4.08,2.1,0,2.66,1.28,2.66,3.36v.8Zm2.43-1v-.41c0-.95-.31-1.68-1.17-1.68s-1.26,1-1.26,1.93v.16Z" fill="#3b4351"/><path d="M440.35,34.41v-.2c0-.6-.21-1.16-1-1.16-.61,0-1.08.27-1.08,1s.26.83,1.06,1.11l1,.33A2,2,0,0,1,442,37.64c0,1.61-1.19,2.3-2.7,2.3-1.91,0-2.48-.88-2.48-2.34v-.28h1.34v.24c0,.88.29,1.34,1.18,1.34s1.23-.42,1.23-1.1a1.09,1.09,0,0,0-.83-1.11l-1.23-.43a2,2,0,0,1-1.61-2.17c0-1.42,1-2.08,2.58-2.08,1.92,0,2.35,1.12,2.35,2.06v.34Z" fill="#3b4351"/><path d="M446.32,39.94a1.72,1.72,0,0,1-1.71-1.08h0v3.35h-1.51v-10h1.42v.92h0a1.79,1.79,0,0,1,1.7-1.12c1.72,0,2.42,1.47,2.42,4.07C448.64,39.24,447.37,39.94,446.32,39.94Zm-.55-6.72c-1,0-1.28,1.05-1.28,2.67,0,1.81.23,2.85,1.29,2.85.86,0,1.26-.65,1.26-2.74C447,34.3,446.83,33.22,445.77,33.22Z" fill="#3b4351"/><path d="M449.51,36c0-2.36.61-4,2.8-4s2.81,1.61,2.81,4-.73,4-2.81,4S449.51,38.33,449.51,36Zm2.8,2.84c1.1,0,1.3-.92,1.3-2.84,0-1.67-.2-2.85-1.3-2.85S451,34.31,451,36C451,37.9,451.23,38.82,452.31,38.82Z" fill="#3b4351"/><path d="M456.28,32.21h1.43v.88h0A2.18,2.18,0,0,1,459.69,32c1.14,0,1.87.52,1.87,2.05v5.69h-1.51V34.58c0-1-.27-1.36-1.05-1.36-.62,0-1.21.46-1.21,1.47v5.06h-1.51Z" fill="#3b4351"/><path d="M466.87,38.82h0a1.61,1.61,0,0,1-1.65,1.12c-1.75,0-2.47-1.48-2.47-4.06,0-3.35,1.18-3.87,2.33-3.87a1.75,1.75,0,0,1,1.71,1.08h0V29.74h1.52v10h-1.43Zm-1.38-5.6c-.85,0-1.17.7-1.17,2.73,0,1.71.21,2.79,1.27,2.79s1.28-1.05,1.28-2.68C466.87,34.25,466.67,33.22,465.49,33.22Z" fill="#3b4351"/><path d="M471.05,36.17v.44c0,1,.13,2.29,1.26,2.29s1.21-1.21,1.21-1.68H475a2.48,2.48,0,0,1-2.65,2.72c-1.23,0-2.76-.36-2.76-3.85,0-2,.43-4.08,2.79-4.08,2.1,0,2.66,1.28,2.66,3.36v.8Zm2.43-1v-.41c0-.95-.31-1.68-1.17-1.68s-1.26,1-1.26,1.93v.16Z" fill="#3b4351"/><path d="M476.23,32.21h1.43v.88h0A2.17,2.17,0,0,1,479.64,32c1.14,0,1.87.52,1.87,2.05v5.69H480V34.58c0-1-.27-1.36-1.05-1.36-.62,0-1.21.46-1.21,1.47v5.06h-1.51Z" fill="#3b4351"/><path d="M488.05,37c-.11,1.81-.7,2.94-2.58,2.94-2.18,0-2.8-1.61-2.8-4s.62-4,2.8-4a2.44,2.44,0,0,1,2.59,2.71h-1.51c0-.7-.18-1.63-1.08-1.59-1.08,0-1.29,1.18-1.29,2.85s.21,2.84,1.29,2.84c.84,0,1.15-.69,1.15-1.82Z" fill="#3b4351"/><path d="M490.48,36.17v.44c0,1,.13,2.29,1.26,2.29S493,37.69,493,37.22h1.43a2.48,2.48,0,0,1-2.65,2.72c-1.23,0-2.76-.36-2.76-3.85,0-2,.44-4.08,2.79-4.08,2.1,0,2.66,1.28,2.66,3.36v.8Zm2.43-1v-.41c0-.95-.31-1.68-1.17-1.68s-1.26,1-1.26,1.93v.16Z" fill="#3b4351"/><path d="M495.3,37.9h1.6v1.85h-1.6Z" fill="#3b4351"/><path d="M503.34,29.74h2l2.63,10h-1.66l-.62-2.46H502.8l-.64,2.46h-1.67ZM505.47,36l-1.15-4.93h0L503.1,36Z" fill="#3b4351"/><path d="M508.68,32.21h1.43v.88h0A2.13,2.13,0,0,1,512,32a1.63,1.63,0,0,1,1.75,1.15A2.07,2.07,0,0,1,515.62,32c1.06,0,1.83.55,1.83,2v5.73h-1.51V34.58c0-1-.3-1.36-.91-1.36s-1.21.47-1.21,1.47v5.06h-1.51V34.58c0-1-.29-1.36-.92-1.36s-1.19.49-1.19,1.47v5.06h-1.52Z" fill="#3b4351"/><path d="M520.28,36.17v.44c0,1,.12,2.29,1.26,2.29s1.2-1.21,1.2-1.68h1.43a2.48,2.48,0,0,1-2.65,2.72c-1.23,0-2.76-.36-2.76-3.85,0-2,.44-4.08,2.79-4.08,2.1,0,2.66,1.28,2.66,3.36v.8Zm2.42-1v-.41c0-.95-.31-1.68-1.16-1.68s-1.26,1-1.26,1.93v.16Z" fill="#3b4351"/><path d="M525.45,32.21h1.43v.88h0A2.15,2.15,0,0,1,528.86,32c1.15,0,1.88.52,1.88,2.05v5.69h-1.52V34.58c0-1-.26-1.36-1.05-1.36-.61,0-1.2.46-1.2,1.47v5.06h-1.52Z" fill="#3b4351"/><path d="M532.19,29.74h1.51V33l0,0a2.16,2.16,0,0,1,1.85-1c1.15,0,1.88.52,1.88,2.05v5.69H536V34.58c0-1-.28-1.36-1.05-1.36s-1.21.47-1.21,1.47v5.06h-1.51Z" fill="#3b4351"/><path d="M540.23,36.17v.44c0,1,.12,2.29,1.26,2.29s1.2-1.21,1.2-1.68h1.43a2.48,2.48,0,0,1-2.65,2.72c-1.23,0-2.76-.36-2.76-3.85,0-2,.44-4.08,2.79-4.08,2.1,0,2.66,1.28,2.66,3.36v.8Zm2.42-1v-.41c0-.95-.31-1.68-1.16-1.68s-1.26,1-1.26,1.93v.16Z" fill="#3b4351"/><path d="M544.73,32.21h1V30.07h1.51v2.14h1.23v1.12h-1.23v4.5c0,.6.17.79.69.79a2.7,2.7,0,0,0,.54,0V39.7a4.56,4.56,0,0,1-1.21.13c-1,0-1.53-.29-1.53-1.82V33.33h-1Z" fill="#3b4351"/><path d="M550.6,36.17v.44c0,1,.13,2.29,1.26,2.29s1.2-1.21,1.2-1.68h1.43a2.48,2.48,0,0,1-2.64,2.72c-1.24,0-2.76-.36-2.76-3.85,0-2,.43-4.08,2.78-4.08,2.11,0,2.67,1.28,2.67,3.36v.8Zm2.42-1v-.41c0-.95-.31-1.68-1.16-1.68S550.6,34,550.6,35v.16Z" fill="#3b4351"/><path d="M559,39.94a1.72,1.72,0,0,1-1.71-1.08h0v3.35h-1.51v-10h1.43v.92h0A1.78,1.78,0,0,1,558.93,32c1.72,0,2.42,1.47,2.42,4.07C561.35,39.24,560.08,39.94,559,39.94Zm-.55-6.72c-1,0-1.27,1.05-1.27,2.67,0,1.81.22,2.85,1.29,2.85.85,0,1.26-.65,1.26-2.74C559.76,34.3,559.55,33.22,558.48,33.22Z" fill="#3b4351"/><path d="M565.9,29.74h1.6v10h-1.6Z" fill="#3b4351"/><path d="M569,29.74h1.6v10H569Z" fill="#3b4351"/><path d="M572.12,29.74h1.59v10h-1.59Z" fill="#3b4351"/><path d="M575.35,37.9H577v1.85a1.87,1.87,0,0,1-1.6,2.15v-.81a1,1,0,0,0,.7-1.13v-.21h-.7Z" fill="#3b4351"/><path d="M581.47,29.74H583v10h-1.51Z" fill="#3b4351"/><path d="M588.36,38.86h0a2.16,2.16,0,0,1-1.94,1.08c-1.12,0-1.87-.52-1.87-2.46V32.21H586v5.41c0,.84.36,1.12,1,1.12a1.17,1.17,0,0,0,1.23-1.26V32.21h1.52v7.54h-1.43Z" fill="#3b4351"/><path d="M592.61,35.84l-1.94-3.63h1.65l1.18,2.49,1.23-2.49h1.62l-2,3.63,2.05,3.91H594.8L593.48,37l-1.32,2.79h-1.61Z" fill="#3b4351"/><path d="M601.06,38.86h0a2.13,2.13,0,0,1-1.93,1.08c-1.12,0-1.88-.52-1.88-2.46V32.21h1.52v5.41c0,.84.36,1.12,1,1.12A1.17,1.17,0,0,0,601,37.48V32.21h1.51v7.54h-1.42Z" fill="#3b4351"/><path d="M603.94,32.21h1.51v1.18h0A1.86,1.86,0,0,1,607.23,32a.87.87,0,0,1,.36.06v1.54a2.18,2.18,0,0,0-.63-.08c-.68,0-1.51.3-1.51,1.7v4.52h-1.51Z" fill="#3b4351"/><path d="M609.61,32.21l1.3,5.66h0l1.2-5.66h1.59L611.65,40c-.6,2-1.06,2.33-2.63,2.29a3,3,0,0,1-.6,0V41.06a2,2,0,0,0,.49.06c.52,0,.85-.1,1-.59l.2-.62L608,32.21Z" fill="#3b4351"/><path d="M614.46,35h3.67v1.43h-3.67Z" fill="#3b4351"/><path d="M619.56,29.74h1.51v10h-1.51Z" fill="#3b4351"/><path d="M622.3,36c0-2.36.62-4,2.81-4s2.81,1.61,2.81,4-.73,4-2.81,4S622.3,38.33,622.3,36Zm2.81,2.84c1.1,0,1.3-.92,1.3-2.84,0-1.67-.2-2.85-1.3-2.85s-1.29,1.18-1.29,2.85C623.82,37.9,624,38.82,625.11,38.82Z" fill="#3b4351"/><path d="M628.37,32.21H630l1.32,5.94h0l1.19-5.94h1.61l-2,7.54h-1.77Z" fill="#3b4351"/><path d="M635,29.63h1.51v1.51H635Zm0,2.58h1.51v7.54H635Z" fill="#3b4351"/><path d="M638.07,32.21h1.43v.88h0A2.17,2.17,0,0,1,641.47,32c1.15,0,1.88.52,1.88,2.05v5.69h-1.51V34.58c0-1-.27-1.36-1.05-1.36-.62,0-1.21.46-1.21,1.47v5.06h-1.51Z" fill="#3b4351"/><path d="M646.31,40.39a1,1,0,0,0,1.1.9,1.25,1.25,0,0,0,1.27-1.42V38.65h0a1.82,1.82,0,0,1-1.7,1c-1.76,0-2.26-1.72-2.26-3.8,0-1.65.25-3.88,2.4-3.88a1.67,1.67,0,0,1,1.65,1.12h0v-.92h1.42v7.17c0,1.84-.78,2.94-2.81,2.94-2.24,0-2.49-1.31-2.49-1.93Zm1.07-1.91c1.18,0,1.3-1.48,1.3-2.67s-.15-2.59-1.2-2.59-1.28,1.12-1.28,2.52S646.26,38.48,647.38,38.48Z" fill="#3b4351"/><path d="M655,29.74h3.17c1.92,0,2.76,1.21,2.76,2.92a2.72,2.72,0,0,1-2.93,3h-1.4v4.14H655Zm1.6,4.67h1.14a1.5,1.5,0,0,0,1.59-1.72c0-1.08-.43-1.74-1.71-1.74h-1Z" fill="#3b4351"/><path d="M661.9,29.74h1.51V33l0,0a2.15,2.15,0,0,1,1.85-1c1.15,0,1.88.52,1.88,2.05v5.69h-1.52V34.58c0-1-.28-1.36-1-1.36-.61,0-1.2.47-1.2,1.47v5.06H661.9Z" fill="#3b4351"/><path d="M673.57,38.18c0,.28.17.53.4.53a.76.76,0,0,0,.25,0v1a1.58,1.58,0,0,1-.74.18c-.68,0-1.24-.27-1.28-1h0a1.93,1.93,0,0,1-1.87,1.11c-1.22,0-2-.66-2-2.11a2.07,2.07,0,0,1,1.75-2.37l1.17-.32c.55-.16.89-.31.89-1s-.24-1.12-1-1.12c-1,0-1.15.71-1.15,1.44h-1.43c0-1.61.66-2.48,2.65-2.48,1.33,0,2.39.52,2.39,1.85Zm-1.42-2.41a12,12,0,0,1-1.69.7,1.24,1.24,0,0,0-.61,1.22c0,.63.31,1.13.94,1.13.91,0,1.36-.67,1.36-1.79Z" fill="#3b4351"/><path d="M675.11,32.21h1.51v1.18h0A1.88,1.88,0,0,1,678.4,32a.92.92,0,0,1,.37.06v1.54a2.24,2.24,0,0,0-.63-.08c-.69,0-1.52.3-1.52,1.7v4.52h-1.51Z" fill="#3b4351"/><path d="M684.38,38.18c0,.28.17.53.39.53a.78.78,0,0,0,.26,0v1a1.63,1.63,0,0,1-.75.18c-.67,0-1.23-.27-1.27-1h0a1.93,1.93,0,0,1-1.88,1.11c-1.21,0-2-.66-2-2.11a2.08,2.08,0,0,1,1.75-2.37l1.18-.32c.55-.16.88-.31.88-1s-.23-1.12-1-1.12c-1,0-1.15.71-1.15,1.44h-1.43c0-1.61.66-2.48,2.65-2.48,1.33,0,2.39.52,2.39,1.85ZM683,35.77a12.39,12.39,0,0,1-1.68.7,1.24,1.24,0,0,0-.61,1.22c0,.63.3,1.13.93,1.13.91,0,1.36-.67,1.36-1.79Z" fill="#3b4351"/><path d="M685.63,36c0-2.36.61-4,2.8-4s2.81,1.61,2.81,4-.73,4-2.81,4S685.63,38.33,685.63,36Zm2.8,2.84c1.1,0,1.3-.92,1.3-2.84,0-1.67-.2-2.85-1.3-2.85s-1.29,1.18-1.29,2.85C687.14,37.9,687.35,38.82,688.43,38.82Z" fill="#3b4351"/><path d="M692.4,29.74h1.51V33l.05,0a2.14,2.14,0,0,1,1.85-1c1.14,0,1.87.52,1.87,2.05v5.69h-1.51V34.58c0-1-.28-1.36-1-1.36s-1.21.47-1.21,1.47v5.06H692.4Z" fill="#3b4351"/><path d="M699.29,37.9h1.6v1.85h-1.6Z" fill="#3b4351"/><path d="M509.35,56.16v.21c0,1.81-.74,3.57-3.08,3.57-2.52,0-3.31-1.62-3.31-5.2s.79-5.19,3.32-5.19c2.85,0,3,2.08,3,3.14v.18h-1.6V52.7c0-.94-.28-2-1.43-2s-1.71.73-1.71,4,.52,4,1.71,4c1.34,0,1.48-1.47,1.48-2.41v-.17Z" fill="#3b4351"/><path d="M515.31,58.18c0,.28.17.53.4.53a.76.76,0,0,0,.25,0v1a1.58,1.58,0,0,1-.74.18c-.68,0-1.24-.27-1.28-1h0A1.93,1.93,0,0,1,512,59.94c-1.22,0-2-.66-2-2.11a2.07,2.07,0,0,1,1.75-2.37l1.17-.32c.55-.16.89-.31.89-1s-.24-1.12-1-1.12c-1,0-1.15.71-1.15,1.44h-1.43c0-1.61.66-2.48,2.65-2.48,1.33,0,2.39.52,2.39,1.85Zm-1.42-2.41a12,12,0,0,1-1.69.7,1.24,1.24,0,0,0-.61,1.22c0,.63.31,1.13.94,1.13.91,0,1.36-.67,1.36-1.79Z" fill="#3b4351"/><path d="M520.1,59.94a1.72,1.72,0,0,1-1.71-1.08h0v3.35h-1.51v-10h1.43v.92h0A1.78,1.78,0,0,1,520,52c1.73,0,2.43,1.47,2.43,4.07C522.43,59.24,521.15,59.94,520.1,59.94Zm-.54-6.72c-1,0-1.28,1.05-1.28,2.67,0,1.81.22,2.85,1.29,2.85.85,0,1.26-.65,1.26-2.74C520.83,54.3,520.62,53.22,519.56,53.22Z" fill="#3b4351"/><path d="M523.66,49.63h1.51v1.51h-1.51Zm0,2.58h1.51v7.54h-1.51Z" fill="#3b4351"/><path d="M526,52.21h1V50.07h1.51v2.14h1.23v1.12h-1.23v4.5c0,.6.17.79.69.79a2.7,2.7,0,0,0,.54,0V59.7a4.59,4.59,0,0,1-1.22.13c-1,0-1.52-.29-1.52-1.82V53.33h-1Z" fill="#3b4351"/><path d="M535.53,58.18c0,.28.17.53.39.53a.72.72,0,0,0,.25,0v1a1.55,1.55,0,0,1-.74.18c-.67,0-1.23-.27-1.27-1h0a1.94,1.94,0,0,1-1.88,1.11c-1.22,0-2-.66-2-2.11A2.07,2.07,0,0,1,532,55.46l1.18-.32c.55-.16.88-.31.88-1s-.24-1.12-1-1.12c-1,0-1.14.71-1.14,1.44h-1.43c0-1.61.66-2.48,2.65-2.48,1.33,0,2.39.52,2.39,1.85Zm-1.43-2.41a12.39,12.39,0,0,1-1.68.7,1.25,1.25,0,0,0-.62,1.22c0,.63.31,1.13.94,1.13.91,0,1.36-.67,1.36-1.79Z" fill="#3b4351"/><path d="M537.14,49.74h1.51v10h-1.51Z" fill="#3b4351"/><path d="M548.48,58.18c0,.28.17.53.39.53a.72.72,0,0,0,.25,0v1a1.55,1.55,0,0,1-.74.18c-.67,0-1.23-.27-1.27-1h0a1.94,1.94,0,0,1-1.88,1.11c-1.22,0-2-.66-2-2.11A2.07,2.07,0,0,1,545,55.46l1.18-.32c.55-.16.88-.31.88-1s-.24-1.12-1-1.12c-1,0-1.14.71-1.14,1.44h-1.43c0-1.61.66-2.48,2.64-2.48,1.34,0,2.4.52,2.4,1.85Zm-1.43-2.41a12.39,12.39,0,0,1-1.68.7,1.25,1.25,0,0,0-.62,1.22c0,.63.31,1.13.94,1.13.91,0,1.36-.67,1.36-1.79Z" fill="#3b4351"/><path d="M549.35,52.21h1V50.07h1.51v2.14h1.24v1.12h-1.24v4.5c0,.6.17.79.69.79a2.75,2.75,0,0,0,.55,0V59.7a4.64,4.64,0,0,1-1.22.13c-1,0-1.53-.29-1.53-1.82V53.33h-1Z" fill="#3b4351"/><path d="M558.49,51.09h-2.38V49.74h6.31v1.35h-2.33v8.66h-1.6Z" fill="#3b4351"/><path d="M563.23,49.74h1.52V53l0,0a2.14,2.14,0,0,1,1.85-1c1.15,0,1.87.52,1.87,2.05v5.69H567V54.58c0-1-.28-1.36-1-1.36s-1.2.47-1.2,1.47v5.06h-1.52Z" fill="#3b4351"/><path d="M571.27,56.17v.44c0,1,.13,2.29,1.26,2.29s1.21-1.21,1.21-1.68h1.42a2.47,2.47,0,0,1-2.64,2.72c-1.24,0-2.76-.36-2.76-3.85,0-2,.43-4.08,2.78-4.08,2.11,0,2.67,1.28,2.67,3.36v.8Zm2.42-1v-.41c0-.95-.3-1.68-1.16-1.68s-1.26,1-1.26,1.93v.16Z" fill="#3b4351"/><path d="M576.45,49.74H578v3.35h0A1.74,1.74,0,0,1,579.7,52c1.15,0,2.32.52,2.32,3.87,0,2.59-.71,4.06-2.46,4.06a1.6,1.6,0,0,1-1.65-1.12h0v.93h-1.43Zm2.7,9c1.07,0,1.28-1.08,1.28-2.79,0-2-.33-2.73-1.18-2.73-1.18,0-1.37,1-1.37,2.84C577.88,57.69,578.12,58.74,579.15,58.74Z" fill="#3b4351"/><path d="M584.49,56.17v.44c0,1,.12,2.29,1.26,2.29s1.2-1.21,1.2-1.68h1.43a2.48,2.48,0,0,1-2.65,2.72c-1.23,0-2.76-.36-2.76-3.85,0-2,.44-4.08,2.79-4.08,2.1,0,2.66,1.28,2.66,3.36v.8Zm2.42-1v-.41c0-.95-.31-1.68-1.16-1.68s-1.26,1-1.26,1.93v.16Z" fill="#3b4351"/><path d="M592.91,54.41v-.2c0-.6-.21-1.16-1-1.16-.6,0-1.08.27-1.08,1s.27.83,1.07,1.11l1,.33a2,2,0,0,1,1.64,2.17c0,1.61-1.19,2.3-2.7,2.3-1.91,0-2.48-.88-2.48-2.34v-.28h1.34v.24c0,.88.3,1.34,1.18,1.34s1.23-.42,1.23-1.1a1.09,1.09,0,0,0-.82-1.11L591,56.26a2,2,0,0,1-1.61-2.17c0-1.42,1-2.08,2.58-2.08,1.92,0,2.35,1.12,2.35,2.06v.34Z" fill="#3b4351"/><path d="M431.68,73.33h2l2.64,10h-1.67l-.62-2.45h-2.93l-.64,2.45h-1.67Zm2.13,6.27-1.15-4.93h0l-1.19,4.93Z" fill="#3b4351"/><path d="M437,75.79h1.43v.88h0a2.12,2.12,0,0,1,1.81-1.07,1.62,1.62,0,0,1,1.75,1.14A2.08,2.08,0,0,1,444,75.6c1.06,0,1.83.54,1.83,2v5.73h-1.51V78.16c0-1-.29-1.36-.91-1.36s-1.21.48-1.21,1.47v5.06h-1.51V78.16c0-1-.29-1.36-.92-1.36s-1.19.49-1.19,1.47v5.06H437Z" fill="#3b4351"/><path d="M448.62,79.76v.43c0,1,.12,2.3,1.26,2.3s1.2-1.22,1.2-1.68h1.43a2.48,2.48,0,0,1-2.65,2.71c-1.23,0-2.76-.36-2.76-3.85,0-2,.44-4.07,2.79-4.07,2.1,0,2.66,1.27,2.66,3.36v.8Zm2.42-1v-.41c0-1-.31-1.68-1.16-1.68s-1.26,1-1.26,1.93v.16Z" fill="#3b4351"/><path d="M453.8,75.79h1.42v.88h0a2.15,2.15,0,0,1,1.93-1.07c1.15,0,1.88.51,1.88,2v5.69h-1.52V78.16c0-1-.26-1.36-1.05-1.36-.61,0-1.2.46-1.2,1.47v5.06H453.8Z" fill="#3b4351"/><path d="M460.53,73.33H462V76.6l0,0a2.15,2.15,0,0,1,1.85-1c1.15,0,1.88.51,1.88,2v5.69H464.3V78.16c0-1-.28-1.36-1.05-1.36s-1.21.48-1.21,1.47v5.06h-1.51Z" fill="#3b4351"/><path d="M467,79.56c0-2.35.62-4,2.8-4s2.82,1.61,2.82,4-.73,4-2.82,4S467,81.91,467,79.56Zm2.8,2.84c1.11,0,1.3-.92,1.3-2.84,0-1.67-.19-2.84-1.3-2.84s-1.29,1.17-1.29,2.84C468.48,81.48,468.69,82.4,469.77,82.4Z" fill="#3b4351"/><path d="M473.07,75.79h1V73.65h1.51v2.14h1.23v1.12h-1.23v4.5c0,.6.17.8.69.8a3.63,3.63,0,0,0,.54,0v1.12a5.08,5.08,0,0,1-1.21.12c-1,0-1.53-.29-1.53-1.82V76.91h-1Z" fill="#3b4351"/><path d="M478.94,79.76v.43c0,1,.13,2.3,1.26,2.3s1.21-1.22,1.21-1.68h1.42a2.47,2.47,0,0,1-2.64,2.71c-1.24,0-2.76-.36-2.76-3.85,0-2,.43-4.07,2.78-4.07,2.11,0,2.67,1.27,2.67,3.36v.8Zm2.42-1v-.41c0-1-.3-1.68-1.16-1.68s-1.26,1-1.26,1.93v.16Z" fill="#3b4351"/><path d="M487.37,83.52a1.73,1.73,0,0,1-1.71-1.07h0v3.34h-1.51v-10h1.43v.93h0a1.76,1.76,0,0,1,1.69-1.12c1.72,0,2.42,1.47,2.42,4.06C489.69,82.82,488.42,83.52,487.37,83.52Zm-.55-6.72c-1,0-1.27,1-1.27,2.68,0,1.8.22,2.84,1.29,2.84.85,0,1.26-.65,1.26-2.73C488.1,77.88,487.89,76.8,486.82,76.8Z" fill="#3b4351"/><path d="M494.24,73.33h1.6v10h-1.6Z" fill="#3b4351"/><path d="M496.51,73.33h1.69l1.7,8h0l1.79-8h1.69l-2.52,10h-2Z" fill="#3b4351"/><path d="M502.92,81.48h1.6v1.85c0,1.12-.37,1.92-1.6,2.15v-.81a1,1,0,0,0,.7-1.13v-.21h-.7Z" fill="#3b4351"/><path d="M508.67,79.56c0-2.35.62-4,2.81-4s2.81,1.61,2.81,4-.73,4-2.81,4S508.67,81.91,508.67,79.56Zm2.81,2.84c1.1,0,1.3-.92,1.3-2.84,0-1.67-.2-2.84-1.3-2.84s-1.29,1.17-1.29,2.84C510.19,81.48,510.4,82.4,511.48,82.4Z" fill="#3b4351"/><path d="M515.45,75.79H517V77h0a1.87,1.87,0,0,1,1.75-1.37.94.94,0,0,1,.37.05v1.54a2.24,2.24,0,0,0-.63-.08c-.69,0-1.52.31-1.52,1.71v4.51h-1.51Z" fill="#3b4351"/><path d="M523.25,73.33h1.6v10h-1.6Z" fill="#3b4351"/><path d="M526.33,73.33h1.51v5.61h0l2.28-3.15h1.75l-2.27,2.91,2.57,4.64h-1.66L528.7,79.9l-.86,1v2.4h-1.51Z" fill="#3b4351"/><path d="M532.81,73.33h1.51V76.6l0,0a2.12,2.12,0,0,1,1.84-1c1.15,0,1.88.51,1.88,2v5.69h-1.51V78.16c0-1-.28-1.36-1.05-1.36s-1.21.48-1.21,1.47v5.06h-1.51Z" fill="#3b4351"/><path d="M539.54,75.79H541v.88h0A2.15,2.15,0,0,1,543,75.6c1.15,0,1.88.51,1.88,2v5.69h-1.52V78.16c0-1-.26-1.36-1-1.36-.61,0-1.2.46-1.2,1.47v5.06h-1.52Z" fill="#3b4351"/><path d="M551.22,81.76c0,.28.17.53.4.53a.57.57,0,0,0,.25,0v1a1.63,1.63,0,0,1-.75.18c-.67,0-1.23-.26-1.27-1h0a1.94,1.94,0,0,1-1.87,1.1c-1.22,0-2-.65-2-2.11A2.09,2.09,0,0,1,547.73,79l1.18-.32c.55-.16.88-.31.88-1s-.23-1.12-1-1.12c-1,0-1.15.72-1.15,1.44h-1.43c0-1.61.66-2.47,2.65-2.47,1.33,0,2.39.51,2.39,1.84Zm-1.43-2.41a10.81,10.81,0,0,1-1.68.7,1.24,1.24,0,0,0-.61,1.22c0,.63.31,1.13.94,1.13.91,0,1.35-.67,1.35-1.79Z" fill="#3b4351"/><path d="M552.09,75.79h1V73.65h1.52v2.14h1.23v1.12h-1.23v4.5c0,.6.17.8.68.8a3.78,3.78,0,0,0,.55,0v1.12a5.17,5.17,0,0,1-1.22.12c-1,0-1.53-.29-1.53-1.82V76.91h-1Z" fill="#3b4351"/><path d="M556.36,79.56c0-2.35.61-4,2.8-4s2.82,1.61,2.82,4-.73,4-2.82,4S556.36,81.91,556.36,79.56Zm2.8,2.84c1.11,0,1.3-.92,1.3-2.84,0-1.67-.19-2.84-1.3-2.84s-1.29,1.17-1.29,2.84C557.87,81.48,558.08,82.4,559.16,82.4Z" fill="#3b4351"/><path d="M563.13,75.79h1.43v.88h0a2.17,2.17,0,0,1,1.94-1.07c1.15,0,1.87.51,1.87,2v5.69H566.9V78.16c0-1-.26-1.36-1-1.36-.61,0-1.2.46-1.2,1.47v5.06h-1.52Z" fill="#3b4351"/><path d="M578.17,81.76c0,.28.17.53.39.53a.59.59,0,0,0,.26,0v1a1.63,1.63,0,0,1-.75.18c-.67,0-1.23-.26-1.27-1h0a1.94,1.94,0,0,1-1.88,1.1c-1.21,0-2-.65-2-2.11A2.09,2.09,0,0,1,574.68,79l1.18-.32c.55-.16.88-.31.88-1s-.23-1.12-1-1.12c-1,0-1.15.72-1.15,1.44h-1.43c0-1.61.66-2.47,2.65-2.47,1.33,0,2.39.51,2.39,1.84Zm-1.43-2.41a11.23,11.23,0,0,1-1.68.7,1.24,1.24,0,0,0-.61,1.22c0,.63.3,1.13.94,1.13.91,0,1.35-.67,1.35-1.79Z" fill="#3b4351"/><path d="M579.71,75.79h1.43v.88h0a2.16,2.16,0,0,1,1.93-1.07c1.15,0,1.88.51,1.88,2v5.69h-1.51V78.16c0-1-.27-1.36-1.05-1.36-.62,0-1.21.46-1.21,1.47v5.06h-1.51Z" fill="#3b4351"/><path d="M590.3,82.4h0a1.61,1.61,0,0,1-1.66,1.12c-1.75,0-2.46-1.48-2.46-4.06,0-3.35,1.18-3.86,2.32-3.86a1.74,1.74,0,0,1,1.71,1.07h0V73.33h1.51v10H590.3Zm-1.38-5.6c-.85,0-1.17.7-1.17,2.73,0,1.71.21,2.79,1.27,2.79s1.28-1,1.28-2.68C590.3,77.84,590.1,76.8,588.92,76.8Z" fill="#3b4351"/><path d="M596.54,73.33h1.51V76.6l0,0a2.15,2.15,0,0,1,1.85-1c1.15,0,1.88.51,1.88,2v5.69h-1.51V78.16c0-1-.28-1.36-1.06-1.36-.61,0-1.2.48-1.2,1.47v5.06h-1.51Z" fill="#3b4351"/><path d="M603.34,73.21h1.51v1.52h-1.51Zm0,2.58h1.51v7.54h-1.51Z" fill="#3b4351"/><path d="M609.63,78v-.2c0-.6-.21-1.16-1-1.16-.6,0-1.07.27-1.07,1s.26.83,1.06,1.11l1,.34a2,2,0,0,1,1.64,2.17c0,1.61-1.19,2.29-2.71,2.29-1.9,0-2.48-.88-2.48-2.34V80.9h1.35v.24c0,.88.29,1.35,1.17,1.35s1.24-.42,1.24-1.11a1.1,1.1,0,0,0-.83-1.11l-1.23-.43a2,2,0,0,1-1.61-2.17c0-1.42,1-2.07,2.57-2.07,1.92,0,2.36,1.12,2.36,2.05V78Z" fill="#3b4351"/><path d="M620.44,83.19a3.1,3.1,0,0,1-1.57.33c-2.3,0-3.31-1.62-3.31-5.19s1-5.2,3.31-5.2,3.3,1.62,3.3,5.2a8.06,8.06,0,0,1-.78,4l1,1.08-.95.85Zm-.84-2.62.66.66a10.32,10.32,0,0,0,.32-3c0-3.36-.76-4-1.71-4s-1.71.59-1.71,4,.76,4,1.71,4a1.19,1.19,0,0,0,.57-.1l-.75-.74Z" fill="#3b4351"/><path d="M627.34,82.45h0a2.17,2.17,0,0,1-1.94,1.07c-1.12,0-1.87-.51-1.87-2.46V75.79H625V81.2c0,.84.36,1.12,1,1.12a1.18,1.18,0,0,0,1.24-1.26V75.79h1.51v7.54h-1.43Z" fill="#3b4351"/><path d="M631.52,79.76v.43c0,1,.13,2.3,1.26,2.3S634,81.27,634,80.81h1.43a2.48,2.48,0,0,1-2.65,2.71c-1.23,0-2.76-.36-2.76-3.85,0-2,.44-4.07,2.79-4.07,2.1,0,2.66,1.27,2.66,3.36v.8Zm2.43-1v-.41c0-1-.31-1.68-1.17-1.68s-1.26,1-1.26,1.93v.16Z" fill="#3b4351"/><path d="M638,79.76v.43c0,1,.12,2.3,1.26,2.3s1.2-1.22,1.2-1.68h1.43a2.48,2.48,0,0,1-2.65,2.71c-1.23,0-2.76-.36-2.76-3.85,0-2,.44-4.07,2.79-4.07,2.1,0,2.66,1.27,2.66,3.36v.8Zm2.42-1v-.41c0-1-.31-1.68-1.16-1.68s-1.26,1-1.26,1.93v.16Z" fill="#3b4351"/><path d="M643.18,75.79h1.43v.88h0a2.15,2.15,0,0,1,1.93-1.07c1.15,0,1.88.51,1.88,2v5.69H647V78.16c0-1-.26-1.36-1.05-1.36-.61,0-1.2.46-1.2,1.47v5.06h-1.52Z" fill="#3b4351"/><path d="M653.38,73.33h1.94l2.9,7.45h0V73.33h1.51v10h-1.94l-2.9-7.65h0v7.65h-1.51Z" fill="#3b4351"/><path d="M662.62,79.76v.43c0,1,.12,2.3,1.26,2.3s1.2-1.22,1.2-1.68h1.43a2.48,2.48,0,0,1-2.65,2.71c-1.23,0-2.76-.36-2.76-3.85,0-2,.44-4.07,2.79-4.07,2.1,0,2.66,1.27,2.66,3.36v.8Zm2.42-1v-.41c0-1-.31-1.68-1.16-1.68s-1.26,1-1.26,1.93v.16Z" fill="#3b4351"/><path d="M668.26,76.91h-1V75.79h1v-.7c0-1.41.68-1.88,1.92-1.88a6.2,6.2,0,0,1,.82.05v1.16h-.42c-.56,0-.81.21-.81.71v.66H671v1.12h-1.23v6.42h-1.51Z" fill="#3b4351"/><path d="M671.69,75.79h1.51V77h0A1.87,1.87,0,0,1,675,75.6a.89.89,0,0,1,.36.05v1.54a2.18,2.18,0,0,0-.63-.08c-.68,0-1.51.31-1.51,1.71v4.51h-1.51Z" fill="#3b4351"/><path d="M677.32,79.76v.43c0,1,.12,2.3,1.26,2.3s1.2-1.22,1.2-1.68h1.43a2.48,2.48,0,0,1-2.65,2.71c-1.23,0-2.76-.36-2.76-3.85,0-2,.44-4.07,2.79-4.07,2.1,0,2.66,1.27,2.66,3.36v.8Zm2.42-1v-.41c0-1-.31-1.68-1.16-1.68s-1.26,1-1.26,1.93v.16Z" fill="#3b4351"/><path d="M681.82,75.79h1V73.65h1.51v2.14h1.24v1.12h-1.24v4.5c0,.6.17.8.69.8a3.9,3.9,0,0,0,.55,0v1.12a5.23,5.23,0,0,1-1.22.12c-1,0-1.53-.29-1.53-1.82V76.91h-1Z" fill="#3b4351"/><path d="M687.69,79.76v.43c0,1,.13,2.3,1.26,2.3s1.21-1.22,1.21-1.68h1.42a2.47,2.47,0,0,1-2.64,2.71c-1.24,0-2.76-.36-2.76-3.85,0-2,.43-4.07,2.79-4.07,2.1,0,2.66,1.27,2.66,3.36v.8Zm2.42-1v-.41c0-1-.3-1.68-1.16-1.68s-1.26,1-1.26,1.93v.16Z" fill="#3b4351"/><path d="M692.51,81.48h1.59v1.85h-1.59Z" fill="#3b4351"/><path d="M370.91,97.33h3.53A2.32,2.32,0,0,1,377,99.9c0,1.29-.56,2.29-1.67,2.45v0c1,.1,1.51.65,1.57,2.05,0,.66,0,1.43.05,2a1.13,1.13,0,0,0,.48.87H375.6a1.7,1.7,0,0,1-.26-.88c0-.3,0-.61,0-.9s0-.63,0-1c0-1.09-.38-1.56-1.46-1.56h-1.3v4.34h-1.6Zm2.87,4.45a1.48,1.48,0,0,0,1.6-1.62c0-1.07-.45-1.63-1.51-1.63h-1.36v3.25Z" fill="#3b4351"/><path d="M379.63,103.76v.43c0,1,.13,2.3,1.26,2.3s1.21-1.22,1.21-1.68h1.43a2.48,2.48,0,0,1-2.65,2.71c-1.23,0-2.76-.36-2.76-3.85,0-2,.43-4.07,2.79-4.07,2.1,0,2.66,1.27,2.66,3.36v.8Zm2.43-1v-.41c0-1-.31-1.68-1.17-1.68s-1.26,1-1.26,1.93v.16Z" fill="#3b4351"/><path d="M384.88,97.33h1.51v10h-1.51Z" fill="#3b4351"/><path d="M388,97.21h1.51v1.52H388Zm0,2.58h1.51v7.54H388Z" fill="#3b4351"/><path d="M392.54,108a1,1,0,0,0,1.09.9,1.25,1.25,0,0,0,1.28-1.42v-1.22h0a1.82,1.82,0,0,1-1.71,1c-1.75,0-2.25-1.72-2.25-3.79,0-1.66.25-3.88,2.39-3.88a1.65,1.65,0,0,1,1.65,1.12h0v-.93h1.43V107c0,1.84-.78,2.94-2.81,2.94-2.25,0-2.5-1.31-2.5-1.93Zm1.07-1.9c1.17,0,1.3-1.49,1.3-2.68s-.16-2.59-1.21-2.59-1.27,1.12-1.27,2.52S392.48,106.07,393.61,106.07Z" fill="#3b4351"/><path d="M397.83,97.21h1.51v1.52h-1.51Zm0,2.58h1.51v7.54h-1.51Z" fill="#3b4351"/><path d="M400.58,103.56c0-2.35.61-4,2.8-4s2.81,1.61,2.81,4-.73,4-2.81,4S400.58,105.91,400.58,103.56Zm2.8,2.84c1.1,0,1.3-.92,1.3-2.84,0-1.67-.2-2.84-1.3-2.84s-1.29,1.17-1.29,2.84C402.09,105.48,402.3,106.4,403.38,106.4Z" fill="#3b4351"/><path d="M411.2,106.45h0a2.16,2.16,0,0,1-1.93,1.07c-1.12,0-1.88-.51-1.88-2.46V99.79h1.51v5.41c0,.84.37,1.12,1,1.12a1.17,1.17,0,0,0,1.23-1.26V99.79h1.51v7.54H411.2Z" fill="#3b4351"/><path d="M417.34,102v-.2c0-.6-.21-1.16-1-1.16-.6,0-1.08.27-1.08,1s.27.83,1.07,1.11l1,.34a2,2,0,0,1,1.64,2.17c0,1.61-1.19,2.29-2.7,2.29-1.91,0-2.48-.88-2.48-2.34v-.28h1.34v.24c0,.88.3,1.35,1.18,1.35s1.23-.42,1.23-1.11a1.1,1.1,0,0,0-.82-1.11l-1.24-.43a2,2,0,0,1-1.61-2.17c0-1.42,1-2.07,2.58-2.07,1.92,0,2.35,1.12,2.35,2.05V102Z" fill="#3b4351"/><path d="M423.48,99.79h1.43v.88h0a2.11,2.11,0,0,1,1.81-1.07,1.63,1.63,0,0,1,1.75,1.14,2.06,2.06,0,0,1,1.9-1.14c1.07,0,1.84.54,1.84,2v5.73h-1.51v-5.17c0-1-.3-1.36-.91-1.36s-1.21.48-1.21,1.47v5.06h-1.51v-5.17c0-1-.3-1.36-.93-1.36s-1.19.49-1.19,1.47v5.06h-1.51Z" fill="#3b4351"/><path d="M433.48,103.56c0-2.35.61-4,2.8-4s2.81,1.61,2.81,4-.73,4-2.81,4S433.48,105.91,433.48,103.56Zm2.8,2.84c1.1,0,1.3-.92,1.3-2.84,0-1.67-.2-2.84-1.3-2.84s-1.29,1.17-1.29,2.84C435,105.48,435.2,106.4,436.28,106.4Z" fill="#3b4351"/><path d="M439.54,99.79h1.62l1.32,5.94h0l1.19-5.94h1.61l-2,7.54h-1.77Z" fill="#3b4351"/><path d="M447.43,103.76v.43c0,1,.13,2.3,1.26,2.3s1.21-1.22,1.21-1.68h1.43a2.48,2.48,0,0,1-2.65,2.71c-1.23,0-2.76-.36-2.76-3.85,0-2,.44-4.07,2.79-4.07,2.1,0,2.66,1.27,2.66,3.36v.8Zm2.43-1v-.41c0-1-.31-1.68-1.17-1.68s-1.26,1-1.26,1.93v.16Z" fill="#3b4351"/><path d="M452.68,99.79h1.43v.88h0A2.12,2.12,0,0,1,456,99.6a1.62,1.62,0,0,1,1.75,1.14,2.08,2.08,0,0,1,1.91-1.14c1.06,0,1.83.54,1.83,2v5.73h-1.51v-5.17c0-1-.3-1.36-.91-1.36s-1.21.48-1.21,1.47v5.06h-1.51v-5.17c0-1-.29-1.36-.92-1.36s-1.19.49-1.19,1.47v5.06h-1.52Z" fill="#3b4351"/><path d="M464.28,103.76v.43c0,1,.12,2.3,1.26,2.3s1.2-1.22,1.2-1.68h1.43a2.48,2.48,0,0,1-2.65,2.71c-1.23,0-2.76-.36-2.76-3.85,0-2,.44-4.07,2.79-4.07,2.1,0,2.66,1.27,2.66,3.36v.8Zm2.42-1v-.41c0-1-.31-1.68-1.16-1.68s-1.26,1-1.26,1.93v.16Z" fill="#3b4351"/><path d="M469.45,99.79h1.43v.88h.05a2.15,2.15,0,0,1,1.93-1.07c1.15,0,1.88.51,1.88,2v5.69h-1.52v-5.17c0-1-.26-1.36-1.05-1.36-.61,0-1.2.46-1.2,1.47v5.06h-1.52Z" fill="#3b4351"/><path d="M475.52,99.79h1V97.65h1.52v2.14h1.23v1.12h-1.23v4.5c0,.6.16.8.68.8a3.78,3.78,0,0,0,.55,0v1.12a5.17,5.17,0,0,1-1.22.12c-1,0-1.53-.29-1.53-1.82v-4.68h-1Z" fill="#3b4351"/><path d="M483.44,97.33H485v3.34h0a1.74,1.74,0,0,1,1.71-1.07c1.15,0,2.33.51,2.33,3.86,0,2.59-.72,4.06-2.47,4.06a1.61,1.61,0,0,1-1.65-1.12h0v.93h-1.43Zm2.7,9c1.07,0,1.28-1.08,1.28-2.79,0-2-.32-2.73-1.18-2.73-1.17,0-1.37,1-1.37,2.84C484.87,105.27,485.11,106.32,486.14,106.32Z" fill="#3b4351"/><path d="M495.12,105.76c0,.28.17.53.39.53a.54.54,0,0,0,.25,0v1a1.55,1.55,0,0,1-.74.18c-.67,0-1.23-.26-1.27-1h0a2,2,0,0,1-1.88,1.1c-1.22,0-2-.65-2-2.11a2.08,2.08,0,0,1,1.75-2.37l1.18-.32c.54-.16.88-.31.88-1s-.24-1.12-1-1.12c-1,0-1.14.72-1.14,1.44h-1.43c0-1.61.65-2.47,2.64-2.47,1.33,0,2.4.51,2.4,1.84Zm-1.43-2.41a11.23,11.23,0,0,1-1.68.7,1.25,1.25,0,0,0-.62,1.22c0,.63.31,1.13.94,1.13.91,0,1.36-.67,1.36-1.79Z" fill="#3b4351"/><path d="M499.91,102v-.2c0-.6-.21-1.16-1-1.16-.6,0-1.08.27-1.08,1s.27.83,1.07,1.11l1,.34a2,2,0,0,1,1.64,2.17c0,1.61-1.19,2.29-2.7,2.29-1.91,0-2.48-.88-2.48-2.34v-.28h1.34v.24c0,.88.3,1.35,1.18,1.35s1.23-.42,1.23-1.11a1.1,1.1,0,0,0-.82-1.11l-1.23-.43a2,2,0,0,1-1.62-2.17c0-1.42,1-2.07,2.58-2.07,1.92,0,2.35,1.12,2.35,2.05V102Z" fill="#3b4351"/><path d="M503.92,103.76v.43c0,1,.13,2.3,1.26,2.3s1.21-1.22,1.21-1.68h1.43a2.48,2.48,0,0,1-2.65,2.71c-1.23,0-2.76-.36-2.76-3.85,0-2,.43-4.07,2.79-4.07,2.1,0,2.66,1.27,2.66,3.36v.8Zm2.43-1v-.41c0-1-.31-1.68-1.17-1.68s-1.26,1-1.26,1.93v.16Z" fill="#3b4351"/><path d="M513,106.4h0a1.62,1.62,0,0,1-1.66,1.12c-1.75,0-2.46-1.48-2.46-4.06,0-3.35,1.17-3.86,2.32-3.86a1.74,1.74,0,0,1,1.71,1.07h0V97.33h1.51v10H513Zm-1.37-5.6c-.85,0-1.17.7-1.17,2.73,0,1.71.21,2.79,1.27,2.79s1.27-1,1.27-2.68C513,101.84,512.76,100.8,511.58,100.8Z" fill="#3b4351"/><path d="M518.9,103.56c0-2.35.62-4,2.8-4s2.82,1.61,2.82,4-.73,4-2.82,4S518.9,105.91,518.9,103.56Zm2.8,2.84c1.11,0,1.31-.92,1.31-2.84,0-1.67-.2-2.84-1.31-2.84s-1.29,1.17-1.29,2.84C520.41,105.48,520.62,106.4,521.7,106.4Z" fill="#3b4351"/><path d="M525.68,99.79h1.43v.88h0a2.16,2.16,0,0,1,1.93-1.07c1.15,0,1.88.51,1.88,2v5.69h-1.51v-5.17c0-1-.27-1.36-1.05-1.36-.62,0-1.21.46-1.21,1.47v5.06h-1.51Z" fill="#3b4351"/><path d="M535.46,99.48c0-1.12.37-1.92,1.6-2.15v.81a1,1,0,0,0-.7,1.13v.21h.7v1.85h-1.6Zm2.5,0c0-1.12.36-1.92,1.59-2.15v.81a1,1,0,0,0-.7,1.13v.21h.7v1.85H538Z" fill="#3b4351"/><path d="M541.08,102.33c0-3.58,1-5.2,3.3-5.2s3.31,1.62,3.31,5.2-1,5.19-3.31,5.19S541.08,105.9,541.08,102.33Zm5,0c0-3.36-.75-4-1.71-4s-1.71.59-1.71,4,.76,4,1.71,4S546.09,105.72,546.09,102.28Z" fill="#3b4351"/><path d="M549,99.79h1.43v.88h0a2.17,2.17,0,0,1,1.94-1.07c1.14,0,1.87.51,1.87,2v5.69h-1.51v-5.17c0-1-.27-1.36-1-1.36-.62,0-1.2.46-1.2,1.47v5.06H549Z" fill="#3b4351"/><path d="M557,103.76v.43c0,1,.12,2.3,1.26,2.3s1.2-1.22,1.2-1.68h1.43a2.47,2.47,0,0,1-2.64,2.71c-1.24,0-2.76-.36-2.76-3.85,0-2,.43-4.07,2.78-4.07,2.1,0,2.67,1.27,2.67,3.36v.8Zm2.42-1v-.41c0-1-.31-1.68-1.16-1.68s-1.26,1-1.26,1.93v.16Z" fill="#3b4351"/><path d="M570.62,106.17h0a2.08,2.08,0,0,1-2.18,1.35c-2.19,0-3-1.62-3-5.19s1-5.2,3.32-5.2a2.71,2.71,0,0,1,2.92,2.89v.18h-1.51V100c0-.74-.31-1.63-1.4-1.63s-1.74.76-1.74,4,.54,4,1.62,4,1.66-.87,1.66-3h-1.68v-1.21h3.2v5.27h-1.21Z" fill="#3b4351"/><path d="M572.8,103.56c0-2.35.62-4,2.8-4s2.82,1.61,2.82,4-.73,4-2.82,4S572.8,105.91,572.8,103.56Zm2.8,2.84c1.11,0,1.31-.92,1.31-2.84,0-1.67-.2-2.84-1.31-2.84s-1.29,1.17-1.29,2.84C574.31,105.48,574.52,106.4,575.6,106.4Z" fill="#3b4351"/><path d="M583.43,106.4h0a1.61,1.61,0,0,1-1.65,1.12c-1.75,0-2.47-1.48-2.47-4.06,0-3.35,1.18-3.86,2.33-3.86a1.74,1.74,0,0,1,1.71,1.07h0V97.33h1.51v10h-1.43Zm-1.37-5.6c-.86,0-1.18.7-1.18,2.73,0,1.71.21,2.79,1.28,2.79s1.27-1,1.27-2.68C583.43,101.84,583.23,100.8,582.06,100.8Z" fill="#3b4351"/><path d="M586.52,97.33h1.6v1.85a1.87,1.87,0,0,1-1.6,2.15v-.81a1,1,0,0,0,.7-1.13v-.21h-.7Zm2.5,0h1.59v1.85c0,1.12-.36,1.91-1.59,2.15v-.81a1,1,0,0,0,.7-1.13v-.21H589Z" fill="#3b4351"/><path d="M595.19,97.21h1.51v1.52h-1.51Zm0,2.58h1.51v7.54h-1.51Z" fill="#3b4351"/><path d="M602.08,106.4h0a1.61,1.61,0,0,1-1.65,1.12c-1.75,0-2.47-1.48-2.47-4.06,0-3.35,1.18-3.86,2.33-3.86a1.75,1.75,0,0,1,1.71,1.07h0V97.33h1.52v10h-1.43Zm-1.38-5.6c-.85,0-1.17.7-1.17,2.73,0,1.71.21,2.79,1.27,2.79s1.28-1,1.28-2.68C602.08,101.84,601.88,100.8,600.7,100.8Z" fill="#3b4351"/><path d="M606.26,103.76v.43c0,1,.13,2.3,1.26,2.3s1.21-1.22,1.21-1.68h1.43a2.48,2.48,0,0,1-2.65,2.71c-1.23,0-2.76-.36-2.76-3.85,0-2,.43-4.07,2.79-4.07,2.1,0,2.66,1.27,2.66,3.36v.8Zm2.43-1v-.41c0-1-.31-1.68-1.17-1.68s-1.26,1-1.26,1.93v.16Z" fill="#3b4351"/><path d="M616.39,105.76c0,.28.16.53.39.53a.57.57,0,0,0,.25,0v1a1.58,1.58,0,0,1-.74.18c-.67,0-1.23-.26-1.28-1h0a2,2,0,0,1-1.88,1.1c-1.22,0-2-.65-2-2.11A2.08,2.08,0,0,1,612.9,103l1.17-.32c.55-.16.89-.31.89-1s-.24-1.12-1-1.12c-1,0-1.15.72-1.15,1.44h-1.43c0-1.61.66-2.47,2.65-2.47,1.33,0,2.4.51,2.4,1.84ZM615,103.35a11.23,11.23,0,0,1-1.68.7,1.23,1.23,0,0,0-.62,1.22c0,.63.31,1.13.94,1.13.91,0,1.36-.67,1.36-1.79Z" fill="#3b4351"/><path d="M618.08,105.48h1.59v1.85h-1.59Z" fill="#3b4351"/><path d="M679.62,98.67h-2.38V97.33h6.32v1.34h-2.34v8.66h-1.6Z" fill="#3b4351"/><path d="M687.18,106.45h0a2.16,2.16,0,0,1-1.93,1.07c-1.12,0-1.88-.51-1.88-2.46V99.79h1.51v5.41c0,.84.37,1.12,1,1.12a1.18,1.18,0,0,0,1.24-1.26V99.79h1.51v7.54h-1.43Z" fill="#3b4351"/><path d="M689.39,99.79h1V97.65h1.51v2.14h1.23v1.12h-1.23v4.5c0,.6.17.8.69.8a3.74,3.74,0,0,0,.54,0v1.12a5.17,5.17,0,0,1-1.22.12c-1,0-1.52-.29-1.52-1.82v-4.68h-1Z" fill="#3b4351"/><path d="M695.26,103.76v.43c0,1,.12,2.3,1.26,2.3s1.2-1.22,1.2-1.68h1.43a2.48,2.48,0,0,1-2.65,2.71c-1.23,0-2.76-.36-2.76-3.85,0-2,.44-4.07,2.79-4.07,2.1,0,2.66,1.27,2.66,3.36v.8Zm2.42-1v-.41c0-1-.31-1.68-1.16-1.68s-1.26,1-1.26,1.93v.16Z" fill="#3b4351"/><path d="M700.44,99.79h1.43v.88h0a2.16,2.16,0,0,1,1.93-1.07c1.15,0,1.88.51,1.88,2v5.69H704.2v-5.17c0-1-.26-1.36-1.05-1.36-.61,0-1.2.46-1.2,1.47v5.06h-1.51Z" fill="#3b4351"/><path d="M707.17,97.33h1.51v5.61h0L711,99.79h1.76l-2.27,2.91,2.56,4.64h-1.65l-1.85-3.43-.86,1v2.4h-1.51Z" fill="#3b4351"/><path d="M713.65,97.33h1.52v3.27l0,0a2.13,2.13,0,0,1,1.85-1c1.14,0,1.87.51,1.87,2v5.69h-1.51v-5.17c0-1-.28-1.36-1-1.36s-1.2.48-1.2,1.47v5.06h-1.52Z" fill="#3b4351"/><path d="M725.33,105.76c0,.28.17.53.39.53a.59.59,0,0,0,.26,0v1a1.63,1.63,0,0,1-.75.18c-.67,0-1.23-.26-1.27-1h0a2,2,0,0,1-1.88,1.1c-1.22,0-2-.65-2-2.11a2.08,2.08,0,0,1,1.75-2.37l1.18-.32c.55-.16.88-.31.88-1s-.24-1.12-1-1.12c-1,0-1.15.72-1.15,1.44h-1.43c0-1.61.66-2.47,2.65-2.47,1.33,0,2.39.51,2.39,1.84Zm-1.43-2.41a11.23,11.23,0,0,1-1.68.7,1.24,1.24,0,0,0-.61,1.22c0,.63.3,1.13.93,1.13.91,0,1.36-.67,1.36-1.79Z" fill="#3b4351"/><path d="M726.94,99.79h1.43v.88h0a2.11,2.11,0,0,1,1.81-1.07,1.64,1.64,0,0,1,1.75,1.14,2.06,2.06,0,0,1,1.9-1.14c1.07,0,1.84.54,1.84,2v5.73h-1.52v-5.17c0-1-.29-1.36-.91-1.36s-1.2.48-1.2,1.47v5.06h-1.51v-5.17c0-1-.3-1.36-.93-1.36s-1.19.49-1.19,1.47v5.06h-1.51Z" fill="#3b4351"/><path d="M736.93,103.56c0-2.35.62-4,2.81-4s2.81,1.61,2.81,4-.73,4-2.81,4S736.93,105.91,736.93,103.56Zm2.81,2.84c1.1,0,1.3-.92,1.3-2.84,0-1.67-.2-2.84-1.3-2.84s-1.29,1.17-1.29,2.84C738.45,105.48,738.66,106.4,739.74,106.4Z" fill="#3b4351"/><path d="M743.71,99.79h1.43v.88h0a2.16,2.16,0,0,1,1.93-1.07c1.15,0,1.88.51,1.88,2v5.69h-1.51v-5.17c0-1-.27-1.36-1.05-1.36-.62,0-1.21.46-1.21,1.47v5.06h-1.51Z" fill="#3b4351"/><path d="M752.76,97.13H754l-3.18,10.39h-1.24Z" fill="#3b4351"/></g></g><g id="Ageans"><g id="Title"><g id="small-3" data-name="small"><path d="M197.58,5.5h2.49l1.76,7.41h0L203.6,5.5H206v10h-1.52V7.18h0l-2,8.32h-1.35l-2-8.32h0V15.5h-1.51Z" fill="#3b4351"/><path d="M208.59,8l1.31,5.66h0L211.13,8h1.58l-2.07,7.82c-.6,2.06-1.06,2.34-2.63,2.3a3.15,3.15,0,0,1-.61-.06v-1.2a2.09,2.09,0,0,0,.49.05c.52,0,.86-.1,1-.59l.19-.61L207,8Z" fill="#3b4351"/><path d="M218.63,12.75c-.11,1.81-.7,2.95-2.57,2.95-2.19,0-2.8-1.61-2.8-4s.61-4,2.8-4a2.43,2.43,0,0,1,2.59,2.7h-1.51c0-.7-.19-1.62-1.08-1.58-1.08,0-1.29,1.17-1.29,2.84s.21,2.85,1.29,2.85c.84,0,1.15-.69,1.15-1.83Z" fill="#3b4351"/><path d="M221.07,11.93v.43c0,1,.12,2.3,1.26,2.3s1.2-1.22,1.2-1.68H225a2.48,2.48,0,0,1-2.64,2.72c-1.24,0-2.76-.37-2.76-3.86,0-2,.43-4.07,2.78-4.07,2.1,0,2.66,1.27,2.66,3.36v.8Zm2.42-1v-.4c0-1-.31-1.69-1.16-1.69s-1.26,1-1.26,1.94v.15Z" fill="#3b4351"/><path d="M226.25,8h1.43v.89h0a2.15,2.15,0,0,1,1.93-1.08c1.15,0,1.88.52,1.88,2V15.5H230V10.33c0-1-.27-1.36-1.05-1.36-.62,0-1.21.46-1.21,1.47V15.5h-1.51Z" fill="#3b4351"/><path d="M237.93,13.93c0,.28.16.53.39.53a.57.57,0,0,0,.25,0v1a1.58,1.58,0,0,1-.74.18c-.67,0-1.23-.26-1.28-1h0a2,2,0,0,1-1.88,1.11c-1.22,0-2-.66-2-2.12a2.08,2.08,0,0,1,1.75-2.37l1.18-.32c.54-.15.88-.31.88-1s-.24-1.12-1-1.12c-1,0-1.15.72-1.15,1.45h-1.43c0-1.61.66-2.48,2.65-2.48,1.33,0,2.4.52,2.4,1.85Zm-1.43-2.41a11.23,11.23,0,0,1-1.68.7,1.23,1.23,0,0,0-.62,1.22c0,.63.31,1.14.94,1.14.91,0,1.36-.68,1.36-1.8Z" fill="#3b4351"/><path d="M240.77,11.93v.43c0,1,.12,2.3,1.26,2.3s1.2-1.22,1.2-1.68h1.43A2.48,2.48,0,0,1,242,15.7c-1.23,0-2.76-.37-2.76-3.86,0-2,.44-4.07,2.79-4.07,2.1,0,2.66,1.27,2.66,3.36v.8Zm2.42-1v-.4c0-1-.31-1.69-1.16-1.69s-1.26,1-1.26,1.94v.15Z" fill="#3b4351"/><path d="M254.25,13.93c0,.28.17.53.39.53a.54.54,0,0,0,.25,0v1a1.55,1.55,0,0,1-.74.18c-.67,0-1.23-.26-1.27-1h0A2,2,0,0,1,251,15.7c-1.22,0-2-.66-2-2.12a2.08,2.08,0,0,1,1.75-2.37l1.18-.32c.55-.15.88-.31.88-1s-.24-1.12-1-1.12c-1,0-1.14.72-1.14,1.45h-1.43c0-1.61.66-2.48,2.64-2.48,1.34,0,2.4.52,2.4,1.85Zm-1.43-2.41a11.23,11.23,0,0,1-1.68.7,1.25,1.25,0,0,0-.62,1.22c0,.63.31,1.14.94,1.14.91,0,1.36-.68,1.36-1.8Z" fill="#3b4351"/><path d="M255.79,8h1.43v.89h0a2.15,2.15,0,0,1,1.93-1.08c1.15,0,1.88.52,1.88,2V15.5h-1.51V10.33c0-1-.27-1.36-1.06-1.36-.61,0-1.2.46-1.2,1.47V15.5h-1.51Z" fill="#3b4351"/><path d="M266.37,14.58h0a1.62,1.62,0,0,1-1.66,1.12c-1.75,0-2.46-1.49-2.46-4.07,0-3.34,1.17-3.86,2.32-3.86a1.73,1.73,0,0,1,1.71,1.08h0V5.5h1.51v10h-1.43ZM265,9c-.85,0-1.18.7-1.18,2.73,0,1.71.21,2.79,1.28,2.79s1.27-1.05,1.27-2.67C266.37,10,266.18,9,265,9Z" fill="#3b4351"/><path d="M273.83,6.84h-2.38V5.5h6.32V6.84h-2.34V15.5h-1.6Z" fill="#3b4351"/><path d="M278.55,8l1.3,5.66h0L281.09,8h1.58l-2.07,7.82c-.61,2.06-1.07,2.34-2.64,2.3a3.05,3.05,0,0,1-.6-.06v-1.2a2,2,0,0,0,.49.05c.52,0,.86-.1,1-.59l.2-.61L276.93,8Z" fill="#3b4351"/><path d="M283.51,8H285V9.14h0a1.85,1.85,0,0,1,1.75-1.37.89.89,0,0,1,.36.05V9.36a2.18,2.18,0,0,0-.63-.08c-.68,0-1.51.31-1.51,1.71V15.5h-1.51Z" fill="#3b4351"/><path d="M288.06,8h1.43v.89h0a2.15,2.15,0,0,1,1.93-1.08c1.15,0,1.88.52,1.88,2V15.5h-1.51V10.33c0-1-.27-1.36-1.06-1.36-.61,0-1.2.46-1.2,1.47V15.5h-1.51Z" fill="#3b4351"/><path d="M298,10.16V10c0-.61-.21-1.17-1-1.17-.61,0-1.08.27-1.08,1s.26.82,1.06,1.1l1,.34a2,2,0,0,1,1.64,2.17c0,1.61-1.19,2.3-2.71,2.3-1.9,0-2.48-.89-2.48-2.34v-.28h1.35v.23c0,.89.29,1.35,1.18,1.35s1.23-.42,1.23-1.11a1.09,1.09,0,0,0-.83-1.1L296.15,12a2,2,0,0,1-1.61-2.17c0-1.41,1-2.07,2.58-2.07,1.92,0,2.35,1.12,2.35,2.06v.33Z" fill="#3b4351"/></g><g id="large-3" data-name="large"><path d="M196.67,42.24h3.58l4.61,17.5h-2.92l-1.07-4.29h-5.13l-1.12,4.29H191.7Zm3.73,11-2-8.62h0l-2.08,8.62Z" fill="#3b4351"/><path d="M206.08,42.24h9.46V44.6h-6.66v4.85h6.27V51.8h-6.27v5.59h6.86v2.35h-9.66Z" fill="#3b4351"/><path d="M226.52,57.71h-.05a3.64,3.64,0,0,1-3.83,2.37c-3.82,0-5.19-2.84-5.19-9.09s1.76-9.09,5.81-9.09A4.77,4.77,0,0,1,228.38,47v.32h-2.65v-.42c0-1.3-.54-2.84-2.45-2.84s-3,1.32-3,6.91.93,7.06,2.82,7.06c2.13,0,2.92-1.52,2.92-5.35H223v-2.1h5.58v9.21h-2.1Z" fill="#3b4351"/><path d="M231,42.24h9.46V44.6h-6.66v4.85h6.27V51.8h-6.27v5.59h6.86v2.35H231Z" fill="#3b4351"/><path d="M246.11,42.24h3.58l4.61,17.5h-2.92l-1.07-4.29h-5.13l-1.12,4.29h-2.92Zm3.73,11-2-8.62h-.05l-2.08,8.62Z" fill="#3b4351"/><path d="M255.52,42.24h3.41l5.07,13h.05v-13h2.65v17.5h-3.41l-5.07-13.38h-.05V59.74h-2.65Z" fill="#3b4351"/><path d="M271.74,54.33v.44c0,2.13,1,3.21,2.87,3.21a2.51,2.51,0,0,0,2.64-2.55,2.93,2.93,0,0,0-2.49-3.11l-1.92-.67c-2.55-1-3.65-2.3-3.65-4.8,0-3.18,2.18-5,5.44-5,4.49,0,4.95,2.79,4.95,4.61v.39h-2.79v-.37c0-1.59-.69-2.52-2.45-2.52A2.23,2.23,0,0,0,272,46.53c0,1.5.76,2.26,2.62,3l1.89.68c2.47.89,3.55,2.21,3.55,4.64,0,3.72-2.26,5.26-5.78,5.26-4.34,0-5.32-2.89-5.32-5.34v-.41Z" fill="#3b4351"/><path d="M167.12,75.83h4.36l3.09,13h.05l3-13h4.26v17.5h-2.65V78.77h0L175.7,93.33h-2.36l-3.52-14.56h0V93.33h-2.65Z" fill="#3b4351"/><path d="M186.4,80.15l2.28,9.9h0l2.11-9.9h2.77L190,93.82c-1,3.6-1.86,4.09-4.61,4a5.33,5.33,0,0,1-1.05-.1V95.63a3.11,3.11,0,0,0,.86.1c.9,0,1.49-.17,1.78-1l.35-1.08-3.75-13.47Z" fill="#3b4351"/><path d="M204,88.53c-.2,3.16-1.23,5.14-4.51,5.14-3.82,0-4.9-2.82-4.9-6.93s1.08-6.94,4.9-6.94S204,82.91,204,84.53h-2.64c0-1.22-.32-2.84-1.89-2.77-1.89,0-2.25,2.06-2.25,5s.36,5,2.25,5c1.47,0,2-1.2,2-3.18Z" fill="#3b4351"/><path d="M208.23,87.08v.76c0,1.76.22,4,2.21,4s2.1-2.13,2.1-2.94H215c0,3-1.76,4.75-4.63,4.75-2.16,0-4.83-.63-4.83-6.74,0-3.45.76-7.13,4.88-7.13,3.68,0,4.66,2.23,4.66,5.88v1.4Zm4.24-1.81v-.71c0-1.67-.54-2.94-2-2.94-1.67,0-2.21,1.66-2.21,3.38v.27Z" fill="#3b4351"/><path d="M217.29,80.15h2.5v1.54h.08a3.77,3.77,0,0,1,3.38-1.89c2,0,3.28.91,3.28,3.58v10h-2.64v-9c0-1.77-.47-2.38-1.84-2.38-1.08,0-2.11.81-2.11,2.57v8.85h-2.65Z" fill="#3b4351"/><path d="M237.73,90.58c0,.5.29.94.68.94a1,1,0,0,0,.45-.08v1.72a2.86,2.86,0,0,1-1.3.32c-1.18,0-2.16-.47-2.23-1.74h-.05A3.41,3.41,0,0,1,232,93.67c-2.13,0-3.43-1.15-3.43-3.7,0-2.94,1.3-3.55,3.07-4.14l2.06-.56c.95-.27,1.54-.54,1.54-1.69s-.42-2-1.81-2c-1.77,0-2,1.25-2,2.52h-2.5c0-2.82,1.15-4.34,4.63-4.34,2.33,0,4.19.91,4.19,3.24Zm-2.5-4.21a21.71,21.71,0,0,1-2.94,1.23,2.16,2.16,0,0,0-1.08,2.13c0,1.1.54,2,1.64,2,1.6,0,2.38-1.17,2.38-3.13Z" fill="#3b4351"/><path d="M242.7,87.08v.76c0,1.76.22,4,2.21,4s2.1-2.13,2.1-2.94h2.5c0,3-1.76,4.75-4.63,4.75-2.15,0-4.83-.63-4.83-6.74,0-3.45.76-7.13,4.88-7.13,3.68,0,4.66,2.23,4.66,5.88v1.4Zm4.24-1.81v-.71c0-1.67-.54-2.94-2-2.94-1.67,0-2.21,1.66-2.21,3.38v.27Z" fill="#3b4351"/><path d="M260.42,90.58c0,.5.29.94.68.94a1,1,0,0,0,.44-.08v1.72a2.83,2.83,0,0,1-1.3.32c-1.17,0-2.15-.47-2.23-1.74H258a3.39,3.39,0,0,1-3.28,1.93c-2.13,0-3.43-1.15-3.43-3.7,0-2.94,1.3-3.55,3.06-4.14l2.06-.56c1-.27,1.55-.54,1.55-1.69s-.42-2-1.82-2c-1.76,0-2,1.25-2,2.52h-2.5c0-2.82,1.16-4.34,4.64-4.34,2.32,0,4.19.91,4.19,3.24Zm-2.5-4.21A22.26,22.26,0,0,1,255,87.6a2.16,2.16,0,0,0-1.08,2.13c0,1.1.54,2,1.64,2,1.59,0,2.38-1.17,2.38-3.13Z" fill="#3b4351"/><path d="M263.11,80.15h2.5v1.54h.07a3.77,3.77,0,0,1,3.38-1.89c2,0,3.29.91,3.29,3.58v10H269.7v-9c0-1.77-.47-2.38-1.84-2.38-1.08,0-2.11.81-2.11,2.57v8.85h-2.64Z" fill="#3b4351"/><path d="M283.35,75.83h3.57l4.61,17.5h-2.92L287.54,89h-5.13l-1.12,4.29h-2.92Zm3.72,11-2-8.62H285l-2.08,8.62Z" fill="#3b4351"/><path d="M295.23,94.46A1.72,1.72,0,0,0,297.14,96a2.18,2.18,0,0,0,2.23-2.47V91.42h-.05a3.19,3.19,0,0,1-3,1.81c-3.06,0-3.94-3-3.94-6.64,0-2.89.44-6.79,4.19-6.79a2.93,2.93,0,0,1,2.89,2h0V80.15H302V92.69c0,3.21-1.38,5.15-4.93,5.15-3.92,0-4.36-2.3-4.36-3.38Zm1.86-3.34c2.06,0,2.28-2.59,2.28-4.68s-.27-4.53-2.11-4.53-2.23,2-2.23,4.41C295,88.58,295.13,91.12,297.09,91.12Z" fill="#3b4351"/><path d="M306.64,87.08v.76c0,1.76.23,4,2.21,4S311,89.73,311,88.92h2.5c0,3-1.77,4.75-4.63,4.75-2.16,0-4.83-.63-4.83-6.74,0-3.45.76-7.13,4.87-7.13,3.68,0,4.66,2.23,4.66,5.88v1.4Zm4.24-1.81v-.71c0-1.67-.54-2.94-2-2.94-1.67,0-2.21,1.66-2.21,3.38v.27Z" fill="#3b4351"/></g></g></g></g></svg>