<svg id="Text" xmlns="http://www.w3.org/2000/svg" viewBox="0 0 1847.91 114"><title>bc1350text</title><g id="Ageans"><g id="Title"><path d="M196.67,42.24h3.58l4.61,17.5h-2.92l-1.07-4.29h-5.13l-1.12,4.29H191.7Zm3.73,11-2-8.62h0l-2.08,8.62Z"/><path d="M206.08,42.24h9.46V44.6h-6.66v4.85h6.27V51.8h-6.27v5.59h6.86v2.35h-9.66Z"/><path d="M226.52,57.71h-.05a3.64,3.64,0,0,1-3.83,2.37c-3.82,0-5.19-2.84-5.19-9.09s1.76-9.09,5.81-9.09A4.77,4.77,0,0,1,228.38,47v.32h-2.65v-.42c0-1.3-.54-2.84-2.45-2.84s-3,1.32-3,6.91.93,7.06,2.82,7.06c2.13,0,2.92-1.52,2.92-5.35H223v-2.1h5.58v9.21h-2.1Z"/><path d="M231,42.24h9.46V44.6h-6.66v4.85h6.27V51.8h-6.27v5.59h6.86v2.35H231Z"/><path d="M246.11,42.24h3.58l4.61,17.5h-2.92l-1.07-4.29h-5.13l-1.12,4.29h-2.92Zm3.73,11-2-8.62h-.05l-2.08,8.62Z"/><path d="M255.52,42.24h3.41l5.07,13h.05v-13h2.65v17.5h-3.41l-5.07-13.38h-.05V59.74h-2.65Z"/><path d="M271.74,54.33v.44c0,2.13,1,3.21,2.87,3.21a2.51,2.51,0,0,0,2.64-2.55,2.93,2.93,0,0,0-2.49-3.11l-1.92-.67c-2.55-1-3.65-2.3-3.65-4.8,0-3.18,2.18-5,5.44-5,4.49,0,4.95,2.79,4.95,4.61v.39h-2.79v-.37c0-1.59-.69-2.52-2.45-2.52A2.23,2.23,0,0,0,272,46.53c0,1.5.76,2.26,2.62,3l1.89.68c2.47.89,3.55,2.21,3.55,4.64,0,3.72-2.26,5.26-5.78,5.26-4.34,0-5.32-2.89-5.32-5.34v-.41Z"/><path d="M167.12,75.83h4.36l3.09,13h.05l3-13h4.26v17.5h-2.65V78.77h0L175.7,93.33h-2.36l-3.52-14.56h0V93.33h-2.65Z"/><path d="M186.4,80.15l2.28,9.9h0l2.11-9.9h2.77L190,93.82c-1,3.6-1.86,4.09-4.61,4a5.33,5.33,0,0,1-1.05-.1V95.63a3.11,3.11,0,0,0,.86.1c.9,0,1.49-.17,1.78-1l.35-1.08-3.75-13.47Z"/><path d="M204,88.53c-.2,3.16-1.23,5.14-4.51,5.14-3.82,0-4.9-2.82-4.9-6.93s1.08-6.94,4.9-6.94S204,82.91,204,84.53h-2.64c0-1.22-.32-2.84-1.89-2.77-1.89,0-2.25,2.06-2.25,5s.36,5,2.25,5c1.47,0,2-1.2,2-3.18Z"/><path d="M208.23,87.08v.76c0,1.76.22,4,2.21,4s2.1-2.13,2.1-2.94H215c0,3-1.76,4.75-4.63,4.75-2.16,0-4.83-.63-4.83-6.74,0-3.45.76-7.13,4.88-7.13,3.68,0,4.66,2.23,4.66,5.88v1.4Zm4.24-1.81v-.71c0-1.67-.54-2.94-2-2.94-1.67,0-2.21,1.66-2.21,3.38v.27Z"/><path d="M217.29,80.15h2.5v1.54h.08a3.77,3.77,0,0,1,3.38-1.89c2,0,3.28.91,3.28,3.58v10h-2.64v-9c0-1.77-.47-2.38-1.84-2.38-1.08,0-2.11.81-2.11,2.57v8.85h-2.65Z"/><path d="M237.73,90.58c0,.5.29.94.68.94a1,1,0,0,0,.45-.08v1.72a2.86,2.86,0,0,1-1.3.32c-1.18,0-2.16-.47-2.23-1.74h-.05A3.41,3.41,0,0,1,232,93.67c-2.13,0-3.43-1.15-3.43-3.7,0-2.94,1.3-3.55,3.07-4.14l2.06-.56c.95-.27,1.54-.54,1.54-1.69s-.42-2-1.81-2c-1.77,0-2,1.25-2,2.52h-2.5c0-2.82,1.15-4.34,4.63-4.34,2.33,0,4.19.91,4.19,3.24Zm-2.5-4.21a21.71,21.71,0,0,1-2.94,1.23,2.16,2.16,0,0,0-1.08,2.13c0,1.1.54,2,1.64,2,1.6,0,2.38-1.17,2.38-3.13Z"/><path d="M242.7,87.08v.76c0,1.76.22,4,2.21,4s2.1-2.13,2.1-2.94h2.5c0,3-1.76,4.75-4.63,4.75-2.15,0-4.83-.63-4.83-6.74,0-3.45.76-7.13,4.88-7.13,3.68,0,4.66,2.23,4.66,5.88v1.4Zm4.24-1.81v-.71c0-1.67-.54-2.94-2-2.94-1.67,0-2.21,1.66-2.21,3.38v.27Z"/><path d="M260.42,90.58c0,.5.29.94.68.94a1,1,0,0,0,.44-.08v1.72a2.83,2.83,0,0,1-1.3.32c-1.17,0-2.15-.47-2.23-1.74H258a3.39,3.39,0,0,1-3.28,1.93c-2.13,0-3.43-1.15-3.43-3.7,0-2.94,1.3-3.55,3.06-4.14l2.06-.56c1-.27,1.55-.54,1.55-1.69s-.42-2-1.82-2c-1.76,0-2,1.25-2,2.52h-2.5c0-2.82,1.16-4.34,4.64-4.34,2.32,0,4.19.91,4.19,3.24Zm-2.5-4.21A22.26,22.26,0,0,1,255,87.6a2.16,2.16,0,0,0-1.08,2.13c0,1.1.54,2,1.64,2,1.59,0,2.38-1.17,2.38-3.13Z"/><path d="M263.11,80.15h2.5v1.54h.07a3.77,3.77,0,0,1,3.38-1.89c2,0,3.29.91,3.29,3.58v10H269.7v-9c0-1.77-.47-2.38-1.84-2.38-1.08,0-2.11.81-2.11,2.57v8.85h-2.64Z"/><path d="M283.35,75.83h3.57l4.61,17.5h-2.92L287.54,89h-5.13l-1.12,4.29h-2.92Zm3.72,11-2-8.62H285l-2.08,8.62Z"/><path d="M295.23,94.46A1.72,1.72,0,0,0,297.14,96a2.18,2.18,0,0,0,2.23-2.47V91.42h-.05a3.19,3.19,0,0,1-3,1.81c-3.06,0-3.94-3-3.94-6.64,0-2.89.44-6.79,4.19-6.79a2.93,2.93,0,0,1,2.89,2h0V80.15H302V92.69c0,3.21-1.38,5.15-4.93,5.15-3.92,0-4.36-2.3-4.36-3.38Zm1.86-3.34c2.06,0,2.28-2.59,2.28-4.68s-.27-4.53-2.11-4.53-2.23,2-2.23,4.41C295,88.58,295.13,91.12,297.09,91.12Z"/><path d="M306.64,87.08v.76c0,1.76.23,4,2.21,4S311,89.73,311,88.92h2.5c0,3-1.77,4.75-4.63,4.75-2.16,0-4.83-.63-4.83-6.74,0-3.45.76-7.13,4.87-7.13,3.68,0,4.66,2.23,4.66,5.88v1.4Zm4.24-1.81v-.71c0-1.67-.54-2.94-2-2.94-1.67,0-2.21,1.66-2.21,3.38v.27Z"/></g></g><g id="Chinese"><path d="M1665.28,93.58V94c0,3.16-1.3,6.25-5.39,6.25-4.41,0-5.78-2.84-5.78-9.09s1.37-9.09,5.8-9.09c5,0,5.27,3.65,5.27,5.49v.31h-2.79v-.29c0-1.64-.49-3.48-2.5-3.41s-3,1.28-3,6.91.91,7.06,3,7.06c2.35,0,2.6-2.57,2.6-4.21v-.3Z"/><path d="M1667.24,82.36H1670v7h5.15v-7H1678v17.5h-2.79V91.72H1670v8.14h-2.79Z"/><path d="M1680.74,82.36h2.79v17.5h-2.79Z"/><path d="M1686.3,82.36h3.4l5.08,13h0v-13h2.64v17.5h-3.4L1689,86.48h0V99.86h-2.64Z"/><path d="M1700.36,82.36h9.46v2.35h-6.67v4.85h6.28v2.36h-6.28V97.5H1710v2.36h-9.66Z"/><path d="M1714.3,94.44v.44c0,2.13,1,3.21,2.87,3.21a2.5,2.5,0,0,0,2.64-2.55c0-1.83-.93-2.64-2.5-3.11l-1.91-.66c-2.55-1-3.65-2.3-3.65-4.8,0-3.19,2.18-5,5.44-5,4.49,0,5,2.79,5,4.6V87h-2.79v-.37c0-1.6-.69-2.53-2.45-2.53a2.24,2.24,0,0,0-2.35,2.53c0,1.49.76,2.25,2.62,3l1.89.69c2.47.88,3.55,2.2,3.55,4.63,0,3.73-2.26,5.27-5.79,5.27-4.33,0-5.31-2.89-5.31-5.34v-.42Z"/><path d="M1724.86,82.36h9.46v2.35h-6.67v4.85h6.28v2.36h-6.28V97.5h6.87v2.36h-9.66Z"/></g></svg>