<svg xmlns="http://www.w3.org/2000/svg" viewBox="0 0 1847.91 112"><title>bc1300text</title><g id="Text"><g id="Huns"><path d="M1533.69,47.53h2.79v7h5.15v-7h2.79V65h-2.79V56.89h-5.15V65h-2.79Z"/><path d="M1553.88,63.48h-.08a3.77,3.77,0,0,1-3.38,1.89c-2,0-3.28-.91-3.28-4.31V51.84h2.65V61.3c0,1.47.63,2,1.78,2a2.05,2.05,0,0,0,2.16-2.2V51.84h2.65V65h-2.5Z"/><path d="M1558.92,51.84h2.5v1.55h.08a3.77,3.77,0,0,1,3.38-1.89c2,0,3.28.91,3.28,3.58V65h-2.64V56c0-1.77-.47-2.38-1.84-2.38-1.08,0-2.11.81-2.11,2.57V65h-2.65Z"/><path d="M1576.39,55.69v-.34c0-1.06-.37-2-1.74-2-1.05,0-1.88.47-1.88,1.72,0,1,.46,1.45,1.86,1.94l1.69.58c2,.67,2.87,1.72,2.87,3.8,0,2.82-2.09,4-4.73,4-3.34,0-4.34-1.54-4.34-4.09v-.49h2.35v.42c0,1.54.52,2.35,2.06,2.35s2.16-.74,2.16-1.94a1.9,1.9,0,0,0-1.45-1.93l-2.16-.76c-2-.67-2.81-1.69-2.81-3.8,0-2.48,1.76-3.63,4.5-3.63,3.36,0,4.12,2,4.12,3.6v.59Z"/></g><g id="Egytians"><path d="M502.37,36.16h9.46v2.35h-6.66v4.86h6.27v2.35h-6.27v5.59H512v2.35h-9.66Z"/><path d="M522.81,51.62h0A3.62,3.62,0,0,1,518.94,54c-3.83,0-5.2-2.84-5.2-9.09s1.77-9.09,5.81-9.09a4.76,4.76,0,0,1,5.12,5v.32H522v-.42c0-1.3-.54-2.84-2.45-2.84s-3,1.32-3,6.91.93,7,2.81,7c2.14,0,2.92-1.51,2.92-5.34h-2.94v-2.1h5.59v9.21h-2.11Z"/><path d="M530.28,46.82l-4.51-10.66h3.11l2.94,7.55,3-7.55h2.91l-4.68,10.66v6.84h-2.79Z"/><path d="M539.1,36.16h5.54c3.36,0,4.83,2.11,4.83,5.1,0,3.14-1.87,5.17-5.13,5.17h-2.45v7.23H539.1Zm2.79,8.16h2c1.49,0,2.79-.78,2.79-3,0-1.89-.76-3-3-3h-1.79Z"/><path d="M554.22,38.51h-4.17V36.16H561.1v2.35H557V53.66h-2.79Z"/><path d="M562.57,36.16h2.79v17.5h-2.79Z"/><path d="M571.44,36.16H575l4.6,17.5h-2.91l-1.08-4.29h-5.12l-1.13,4.29h-2.92Zm3.72,11-2-8.63h0L571,47.14Z"/><path d="M580.85,36.16h3.4l5.08,13h0v-13H592v17.5h-3.4l-5.08-13.38h0V53.66h-2.64Z"/><path d="M597.07,48.24v.44q0,3.21,2.86,3.21a2.51,2.51,0,0,0,2.65-2.54c0-1.84-.93-2.65-2.5-3.12l-1.91-.66c-2.55-1-3.65-2.3-3.65-4.8,0-3.19,2.18-5,5.44-5,4.48,0,4.95,2.79,4.95,4.61v.39h-2.8v-.37c0-1.59-.68-2.52-2.45-2.52a2.23,2.23,0,0,0-2.35,2.52c0,1.5.76,2.26,2.62,3l1.89.68c2.48.88,3.55,2.21,3.55,4.63,0,3.73-2.25,5.27-5.78,5.27-4.34,0-5.32-2.89-5.32-5.34v-.42Z"/></g><g id="Hebrews"><path d="M942.81,36.62h2.8v7h5.14v-7h2.8v17.5h-2.8V46h-5.14v8.14h-2.8Z"/><path d="M956.44,36.62h9.45V39h-6.66v4.86h6.27v2.35h-6.27v5.59h6.86v2.35h-9.65Z"/><path d="M968.22,36.62h5.66c2.62,0,4.71,1.18,4.71,4.24q0,3.16-2.58,4v.05c1.91.34,3.14,1.49,3.14,4.46s-2.11,4.78-5.39,4.78h-5.54Zm5,7.38a2.45,2.45,0,0,0,2.57-2.77c0-2.08-1.25-2.5-2.82-2.5h-2V44Zm.56,8c1.67,0,2.58-1,2.58-3.09a2.65,2.65,0,0,0-2.75-3H971v6Z"/><path d="M981.38,36.62h6.17c2.45,0,4.44,1.25,4.44,4.51,0,2.26-1,4-2.92,4.29v0c1.77.17,2.65,1.13,2.75,3.58,0,1.15,0,2.5.09,3.55a1.92,1.92,0,0,0,.84,1.52h-3.16a2.93,2.93,0,0,1-.47-1.55c0-.51-.07-1-.07-1.56s0-1.11,0-1.74c-.08-1.92-.66-2.75-2.55-2.75h-2.28v7.6h-2.79Zm5,7.79a2.57,2.57,0,0,0,2.79-2.84c0-1.86-.78-2.84-2.64-2.84h-2.38v5.68Z"/><path d="M994.53,36.62H1004V39h-6.66v4.86h6.27v2.35h-6.27v5.59h6.86v2.35h-9.66Z"/><path d="M1005,36.62h2.82l2.3,13.6h.05l2.3-13.6h2.94l2.36,13.68h0l2.28-13.68h2.77l-3.48,17.5h-3.23l-2.26-13.19h0l-2.22,13.19h-3.24Z"/><path d="M1026.63,48.7v.44c0,2.14.95,3.21,2.87,3.21a2.5,2.5,0,0,0,2.64-2.54c0-1.84-.93-2.65-2.5-3.12l-1.91-.66c-2.55-1-3.65-2.3-3.65-4.8,0-3.19,2.18-4.95,5.44-4.95,4.48,0,5,2.79,5,4.61v.39h-2.79v-.37c0-1.59-.69-2.52-2.45-2.52a2.23,2.23,0,0,0-2.36,2.52c0,1.5.76,2.25,2.63,3l1.88.68c2.48.88,3.55,2.21,3.55,4.63,0,3.73-2.25,5.27-5.78,5.27-4.34,0-5.32-2.89-5.32-5.34V48.7Z"/></g></g><g id="YEARS"><g id="Right"><path d="M1787.21,106.27V92.9h-3.82V91h.29c1.77,0,3.79-.45,4.34-2.76v-.36h2.16v18.41Z"/><path d="M1797.93,101.14c0,1.61.54,3.41,2.52,3.41s2.57-1.48,2.57-3.3c0-2.29-.73-3.44-3-3.44h-1.14V95.73H1800c2,0,2.65-1.35,2.65-3.14,0-1.33-.59-2.65-2.13-2.65-1.82,0-2.34,1.56-2.34,3.22h-2.81c0-3.46,1.77-5.3,5.31-5.3,2.21,0,4.94,1,4.94,4.7,0,1.9-1.14,3.75-2.94,4v.08c1.9.18,3.36,1.66,3.36,4.27,0,3.66-1.8,5.69-5.62,5.69-3.33,0-5.25-1.64-5.25-5.49Z"/><path d="M1813,87.86c3.54,0,5.51,2.21,5.51,9.38s-2,9.39-5.51,9.39-5.51-2.21-5.51-9.39S1809.49,87.86,1813,87.86Zm0,16.69c2,0,2.55-2,2.55-7.31s-.55-7.3-2.55-7.3-2.55,2-2.55,7.3S1811,104.55,1813,104.55Z"/><path d="M1825.51,87.86c3.54,0,5.51,2.21,5.51,9.38s-2,9.39-5.51,9.39-5.51-2.21-5.51-9.39S1822,87.86,1825.51,87.86Zm0,16.69c2,0,2.55-2,2.55-7.31s-.55-7.3-2.55-7.3-2.55,2-2.55,7.3S1823.51,104.55,1825.51,104.55Z"/></g><g id="left"><path d="M17.46,109.86V96.5H13.64V94.58h.29c1.77,0,3.79-.45,4.34-2.76v-.36h2.16v18.4Z"/><path d="M28.18,104.74c0,1.61.54,3.41,2.52,3.41s2.57-1.48,2.57-3.3c0-2.29-.73-3.44-3-3.44H29.14V99.33H30.2c2,0,2.66-1.35,2.66-3.14,0-1.33-.6-2.65-2.14-2.65-1.82,0-2.34,1.56-2.34,3.22h-2.8c0-3.46,1.76-5.3,5.3-5.3,2.21,0,4.94,1,4.94,4.7,0,1.9-1.14,3.75-2.94,4v.08c1.9.18,3.36,1.66,3.36,4.26,0,3.67-1.8,5.7-5.62,5.7-3.33,0-5.25-1.64-5.25-5.49Z"/><path d="M43.28,91.46c3.54,0,5.51,2.21,5.51,9.38s-2,9.39-5.51,9.39-5.51-2.21-5.51-9.39S39.75,91.46,43.28,91.46Zm0,16.69c2,0,2.55-2,2.55-7.31s-.55-7.3-2.55-7.3-2.55,2-2.55,7.3S41.28,108.15,43.28,108.15Z"/><path d="M55.76,91.46c3.54,0,5.51,2.21,5.51,9.38s-2,9.39-5.51,9.39-5.51-2.21-5.51-9.39S52.22,91.46,55.76,91.46Zm0,16.69c2,0,2.55-2,2.55-7.31s-.55-7.3-2.55-7.3-2.55,2-2.55,7.3S53.76,108.15,55.76,108.15Z"/></g></g></svg>