<svg xmlns="http://www.w3.org/2000/svg" viewBox="0 0 1847.91 112"><title>bc1300text</title><g id="YEARS"><g id="Right"><path d="M1787.21,106.27V92.9h-3.82V91h.29c1.77,0,3.79-.45,4.34-2.76v-.36h2.16v18.41Z"/><path d="M1797.93,101.14c0,1.61.54,3.41,2.52,3.41s2.57-1.48,2.57-3.3c0-2.29-.73-3.44-3-3.44h-1.14V95.73H1800c2,0,2.65-1.35,2.65-3.14,0-1.33-.59-2.65-2.13-2.65-1.82,0-2.34,1.56-2.34,3.22h-2.81c0-3.46,1.77-5.3,5.31-5.3,2.21,0,4.94,1,4.94,4.7,0,1.9-1.14,3.75-2.94,4v.08c1.9.18,3.36,1.66,3.36,4.27,0,3.66-1.8,5.69-5.62,5.69-3.33,0-5.25-1.64-5.25-5.49Z"/><path d="M1813,87.86c3.54,0,5.51,2.21,5.51,9.38s-2,9.39-5.51,9.39-5.51-2.21-5.51-9.39S1809.49,87.86,1813,87.86Zm0,16.69c2,0,2.55-2,2.55-7.31s-.55-7.3-2.55-7.3-2.55,2-2.55,7.3S1811,104.55,1813,104.55Z"/><path d="M1825.51,87.86c3.54,0,5.51,2.21,5.51,9.38s-2,9.39-5.51,9.39-5.51-2.21-5.51-9.39S1822,87.86,1825.51,87.86Zm0,16.69c2,0,2.55-2,2.55-7.31s-.55-7.3-2.55-7.3-2.55,2-2.55,7.3S1823.51,104.55,1825.51,104.55Z"/></g><g id="left"><path d="M17.46,109.86V96.5H13.64V94.58h.29c1.77,0,3.79-.45,4.34-2.76v-.36h2.16v18.4Z"/><path d="M28.18,104.74c0,1.61.54,3.41,2.52,3.41s2.57-1.48,2.57-3.3c0-2.29-.73-3.44-3-3.44H29.14V99.33H30.2c2,0,2.66-1.35,2.66-3.14,0-1.33-.6-2.65-2.14-2.65-1.82,0-2.34,1.56-2.34,3.22h-2.8c0-3.46,1.76-5.3,5.3-5.3,2.21,0,4.94,1,4.94,4.7,0,1.9-1.14,3.75-2.94,4v.08c1.9.18,3.36,1.66,3.36,4.26,0,3.67-1.8,5.7-5.62,5.7-3.33,0-5.25-1.64-5.25-5.49Z"/><path d="M43.28,91.46c3.54,0,5.51,2.21,5.51,9.38s-2,9.39-5.51,9.39-5.51-2.21-5.51-9.39S39.75,91.46,43.28,91.46Zm0,16.69c2,0,2.55-2,2.55-7.31s-.55-7.3-2.55-7.3-2.55,2-2.55,7.3S41.28,108.15,43.28,108.15Z"/><path d="M55.76,91.46c3.54,0,5.51,2.21,5.51,9.38s-2,9.39-5.51,9.39-5.51-2.21-5.51-9.39S52.22,91.46,55.76,91.46Zm0,16.69c2,0,2.55-2,2.55-7.31s-.55-7.3-2.55-7.3-2.55,2-2.55,7.3S53.76,108.15,55.76,108.15Z"/></g></g><g id="Text"><g id="Huns"><path d="M1533.69,47.53h2.79v7h5.15v-7h2.79V65h-2.79V56.89h-5.15V65h-2.79Z"/><path d="M1553.88,63.48h-.08a3.77,3.77,0,0,1-3.38,1.89c-2,0-3.28-.91-3.28-4.31V51.84h2.65V61.3c0,1.47.63,2,1.78,2a2.05,2.05,0,0,0,2.16-2.2V51.84h2.65V65h-2.5Z"/><path d="M1558.92,51.84h2.5v1.55h.08a3.77,3.77,0,0,1,3.38-1.89c2,0,3.28.91,3.28,3.58V65h-2.64V56c0-1.77-.47-2.38-1.84-2.38-1.08,0-2.11.81-2.11,2.57V65h-2.65Z"/><path d="M1576.39,55.69v-.34c0-1.06-.37-2-1.74-2-1.05,0-1.88.47-1.88,1.72,0,1,.46,1.45,1.86,1.94l1.69.58c2,.67,2.87,1.72,2.87,3.8,0,2.82-2.09,4-4.73,4-3.34,0-4.34-1.54-4.34-4.09v-.49h2.35v.42c0,1.54.52,2.35,2.06,2.35s2.16-.74,2.16-1.94a1.9,1.9,0,0,0-1.45-1.93l-2.16-.76c-2-.67-2.81-1.69-2.81-3.8,0-2.48,1.76-3.63,4.5-3.63,3.36,0,4.12,2,4.12,3.6v.59Z"/></g><g id="Hebrews"><path d="M942.81,36.62h2.8v7h5.14v-7h2.8v17.5h-2.8V46h-5.14v8.14h-2.8Z"/><path d="M956.44,36.62h9.45V39h-6.66v4.86h6.27v2.35h-6.27v5.59h6.86v2.35h-9.65Z"/><path d="M968.22,36.62h5.66c2.62,0,4.71,1.18,4.71,4.24q0,3.16-2.58,4v.05c1.91.34,3.14,1.49,3.14,4.46s-2.11,4.78-5.39,4.78h-5.54Zm5,7.38a2.45,2.45,0,0,0,2.57-2.77c0-2.08-1.25-2.5-2.82-2.5h-2V44Zm.56,8c1.67,0,2.58-1,2.58-3.09a2.65,2.65,0,0,0-2.75-3H971v6Z"/><path d="M981.38,36.62h6.17c2.45,0,4.44,1.25,4.44,4.51,0,2.26-1,4-2.92,4.29v0c1.77.17,2.65,1.13,2.75,3.58,0,1.15,0,2.5.09,3.55a1.92,1.92,0,0,0,.84,1.52h-3.16a2.93,2.93,0,0,1-.47-1.55c0-.51-.07-1-.07-1.56s0-1.11,0-1.74c-.08-1.92-.66-2.75-2.55-2.75h-2.28v7.6h-2.79Zm5,7.79a2.57,2.57,0,0,0,2.79-2.84c0-1.86-.78-2.84-2.64-2.84h-2.38v5.68Z"/><path d="M994.53,36.62H1004V39h-6.66v4.86h6.27v2.35h-6.27v5.59h6.86v2.35h-9.66Z"/><path d="M1005,36.62h2.82l2.3,13.6h.05l2.3-13.6h2.94l2.36,13.68h0l2.28-13.68h2.77l-3.48,17.5h-3.23l-2.26-13.19h0l-2.22,13.19h-3.24Z"/><path d="M1026.63,48.7v.44c0,2.14.95,3.21,2.87,3.21a2.5,2.5,0,0,0,2.64-2.54c0-1.84-.93-2.65-2.5-3.12l-1.91-.66c-2.55-1-3.65-2.3-3.65-4.8,0-3.19,2.18-4.95,5.44-4.95,4.48,0,5,2.79,5,4.61v.39h-2.79v-.37c0-1.59-.69-2.52-2.45-2.52a2.23,2.23,0,0,0-2.36,2.52c0,1.5.76,2.25,2.63,3l1.88.68c2.48.88,3.55,2.21,3.55,4.63,0,3.73-2.25,5.27-5.78,5.27-4.34,0-5.32-2.89-5.32-5.34V48.7Z"/></g><g id="Egytians"><g id="large"><path d="M502.37,36.16h9.46v2.35h-6.66v4.86h6.27v2.35h-6.27v5.59H512v2.35h-9.66Z"/><path d="M522.81,51.62h0A3.62,3.62,0,0,1,518.94,54c-3.83,0-5.2-2.84-5.2-9.09s1.77-9.09,5.81-9.09a4.76,4.76,0,0,1,5.12,5v.32H522v-.42c0-1.3-.54-2.84-2.45-2.84s-3,1.32-3,6.91.93,7,2.81,7c2.14,0,2.92-1.51,2.92-5.34h-2.94v-2.1h5.59v9.21h-2.11Z"/><path d="M530.28,46.82l-4.51-10.66h3.11l2.94,7.55,3-7.55h2.91l-4.68,10.66v6.84h-2.79Z"/><path d="M539.1,36.16h5.54c3.36,0,4.83,2.11,4.83,5.1,0,3.14-1.87,5.17-5.13,5.17h-2.45v7.23H539.1Zm2.79,8.16h2c1.49,0,2.79-.78,2.79-3,0-1.89-.76-3-3-3h-1.79Z"/><path d="M554.22,38.51h-4.17V36.16H561.1v2.35H557V53.66h-2.79Z"/><path d="M562.57,36.16h2.79v17.5h-2.79Z"/><path d="M571.44,36.16H575l4.6,17.5h-2.91l-1.08-4.29h-5.12l-1.13,4.29h-2.92Zm3.72,11-2-8.63h0L571,47.14Z"/><path d="M580.85,36.16h3.4l5.08,13h0v-13H592v17.5h-3.4l-5.08-13.38h0V53.66h-2.64Z"/><path d="M597.07,48.24v.44q0,3.21,2.86,3.21a2.51,2.51,0,0,0,2.65-2.54c0-1.84-.93-2.65-2.5-3.12l-1.91-.66c-2.55-1-3.65-2.3-3.65-4.8,0-3.19,2.18-5,5.44-5,4.48,0,4.95,2.79,4.95,4.61v.39h-2.8v-.37c0-1.59-.68-2.52-2.45-2.52a2.23,2.23,0,0,0-2.35,2.52c0,1.5.76,2.26,2.62,3l1.89.68c2.48.88,3.55,2.21,3.55,4.63,0,3.73-2.25,5.27-5.78,5.27-4.34,0-5.32-2.89-5.32-5.34v-.42Z"/></g></g><g id="Ageans"><g id="Title"><g id="small-2" data-name="small"><path d="M169.21,33.67h5.41V35h-3.81v2.77h3.58v1.35h-3.58v3.19h3.92v1.35h-5.52Z"/><path d="M180.79,42.1c0,.28.17.53.39.53a.54.54,0,0,0,.25,0v1a1.58,1.58,0,0,1-.74.18c-.67,0-1.23-.27-1.27-1h0a2,2,0,0,1-1.88,1.1c-1.22,0-2-.66-2-2.11a2.08,2.08,0,0,1,1.75-2.37l1.18-.32c.54-.16.88-.31.88-1s-.24-1.12-1-1.12c-1,0-1.15.72-1.15,1.44h-1.42c0-1.61.65-2.48,2.64-2.48,1.33,0,2.4.52,2.4,1.85Zm-1.43-2.41a12.39,12.39,0,0,1-1.68.7,1.23,1.23,0,0,0-.62,1.22c0,.63.31,1.13.94,1.13.91,0,1.36-.67,1.36-1.79Z"/><path d="M182.33,36.13h1.51v1.18h0a1.86,1.86,0,0,1,1.75-1.38A.87.87,0,0,1,186,36v1.54a2.18,2.18,0,0,0-.63-.08c-.68,0-1.51.31-1.51,1.71v4.51h-1.51Z"/><path d="M186.81,33.67h1.51v10h-1.51Z"/><path d="M190.85,36.13l1.3,5.66h0l1.21-5.66H195L192.9,44c-.61,2.06-1.07,2.34-2.64,2.29a3,3,0,0,1-.6-.05V45a1.65,1.65,0,0,0,.49.06c.52,0,.86-.1,1-.59l.2-.62-2.14-7.7Z"/><path d="M205.41,40.08v.21c0,1.81-.74,3.57-3.08,3.57-2.52,0-3.3-1.62-3.3-5.19s.78-5.2,3.32-5.2c2.84,0,3,2.09,3,3.14v.18h-1.6v-.17c0-.94-.28-2-1.43-1.95s-1.71.73-1.71,3.95.52,4,1.71,4c1.35,0,1.49-1.47,1.49-2.41v-.17Z"/><path d="M206.43,36.13H208v1.18h0a1.88,1.88,0,0,1,1.76-1.38.87.87,0,0,1,.36.06v1.54a2.18,2.18,0,0,0-.63-.08c-.69,0-1.51.31-1.51,1.71v4.51h-1.52Z"/><path d="M212.06,40.09v.44c0,1,.13,2.3,1.26,2.3s1.21-1.22,1.21-1.69H216a2.48,2.48,0,0,1-2.65,2.72c-1.23,0-2.76-.36-2.76-3.85,0-2,.43-4.08,2.79-4.08,2.1,0,2.66,1.28,2.66,3.37v.79Zm2.43-1v-.41c0-.95-.31-1.68-1.17-1.68s-1.26,1-1.26,1.93v.16Z"/><path d="M216.57,36.13h1V34h1.51v2.14h1.23v1.12h-1.23v4.5c0,.6.17.8.68.8a2.64,2.64,0,0,0,.55,0v1.12a4.64,4.64,0,0,1-1.22.13c-1,0-1.52-.29-1.52-1.82V37.25h-1Z"/><path d="M226.08,42.1c0,.28.17.53.39.53a.54.54,0,0,0,.25,0v1a1.58,1.58,0,0,1-.74.18c-.67,0-1.23-.27-1.28-1h0a2,2,0,0,1-1.88,1.1c-1.22,0-2-.66-2-2.11a2.08,2.08,0,0,1,1.75-2.37l1.18-.32c.54-.16.88-.31.88-1s-.24-1.12-1-1.12c-1,0-1.15.72-1.15,1.44H221c0-1.61.65-2.48,2.64-2.48,1.33,0,2.4.52,2.4,1.85Zm-1.43-2.41a12.39,12.39,0,0,1-1.68.7,1.23,1.23,0,0,0-.62,1.22c0,.63.31,1.13.94,1.13.91,0,1.36-.67,1.36-1.79Z"/><path d="M227.62,36.13H229V37h.05A2.15,2.15,0,0,1,231,35.93c1.15,0,1.88.52,1.88,2v5.69h-1.52V38.5c0-1-.26-1.36-1-1.36-.61,0-1.2.46-1.2,1.47v5.06h-1.51Z"/><path d="M237.6,38.33v-.2c0-.6-.21-1.16-1-1.16-.6,0-1.07.27-1.07,1s.26.83,1.06,1.11l1,.33a2,2,0,0,1,1.64,2.18c0,1.61-1.2,2.29-2.71,2.29-1.9,0-2.48-.88-2.48-2.34v-.28h1.35v.24c0,.88.29,1.35,1.17,1.35s1.24-.42,1.24-1.11a1.09,1.09,0,0,0-.83-1.11l-1.23-.43A2,2,0,0,1,234.1,38c0-1.42,1-2.08,2.57-2.08,1.92,0,2.36,1.13,2.36,2.06v.34Z"/><path d="M247.52,42.74h0a1.62,1.62,0,0,1-1.66,1.12c-1.75,0-2.46-1.48-2.46-4.06,0-3.35,1.18-3.87,2.32-3.87A1.74,1.74,0,0,1,247.41,37h0V33.67H249v10h-1.43Zm-1.37-5.6c-.85,0-1.17.7-1.17,2.73,0,1.71.21,2.79,1.27,2.79s1.27-1,1.27-2.68C247.52,38.18,247.33,37.14,246.15,37.14Z"/><path d="M250.41,36.13h1.51v1.18h0a1.86,1.86,0,0,1,1.75-1.38.87.87,0,0,1,.36.06v1.54a2.18,2.18,0,0,0-.63-.08c-.68,0-1.51.31-1.51,1.71v4.51h-1.51Z"/><path d="M254.89,33.55h1.51v1.52h-1.51Zm0,2.58h1.51v7.54h-1.51Z"/><path d="M257.29,36.13h1.63l1.32,5.94h0l1.19-5.94h1.61l-2,7.54h-1.77Z"/><path d="M265.19,40.09v.44c0,1,.13,2.3,1.26,2.3s1.21-1.22,1.21-1.69h1.42a2.47,2.47,0,0,1-2.64,2.72c-1.24,0-2.76-.36-2.76-3.85,0-2,.43-4.08,2.79-4.08,2.1,0,2.66,1.28,2.66,3.37v.79Zm2.42-1v-.41c0-.95-.3-1.68-1.16-1.68s-1.26,1-1.26,1.93v.16Z"/><path d="M270.37,36.13h1.43V37h0a2.17,2.17,0,0,1,1.93-1.08c1.15,0,1.88.52,1.88,2v5.69h-1.51V38.5c0-1-.27-1.36-1.05-1.36-.62,0-1.21.46-1.21,1.47v5.06h-1.51Z"/><path d="M280.53,33.55h1.52v1.52h-1.52Zm0,2.58h1.52v7.54h-1.52Z"/><path d="M283.57,36.13H285V37h0A2.18,2.18,0,0,1,287,35.93c1.14,0,1.87.52,1.87,2v5.69h-1.51V38.5c0-1-.27-1.36-1-1.36-.62,0-1.21.46-1.21,1.47v5.06h-1.51Z"/><path d="M289.63,36.13h1V34h1.51v2.14h1.23v1.12h-1.23v4.5c0,.6.17.8.69.8a2.61,2.61,0,0,0,.54,0v1.12a4.56,4.56,0,0,1-1.21.13c-1,0-1.53-.29-1.53-1.82V37.25h-1Z"/><path d="M293.9,39.9c0-2.35.62-4,2.8-4s2.82,1.62,2.82,4-.73,4-2.82,4S293.9,42.25,293.9,39.9Zm2.8,2.84c1.11,0,1.31-.92,1.31-2.84,0-1.67-.2-2.84-1.31-2.84s-1.28,1.17-1.28,2.84C295.42,41.82,295.63,42.74,296.7,42.74Z"/><path d="M220.93,65.57v.25c0,1.22.55,1.84,1.64,1.84a1.44,1.44,0,0,0,1.51-1.46,1.68,1.68,0,0,0-1.43-1.78L221.56,64c-1.46-.56-2.09-1.31-2.09-2.74,0-1.82,1.25-2.83,3.11-2.83,2.57,0,2.83,1.6,2.83,2.63v.23h-1.59v-.21c0-.91-.4-1.45-1.4-1.45a1.28,1.28,0,0,0-1.35,1.45c0,.85.44,1.29,1.5,1.69l1.08.39a2.55,2.55,0,0,1,2,2.65c0,2.13-1.29,3-3.31,3a2.74,2.74,0,0,1-3-3v-.24Z"/><path d="M227.87,61.13l1.31,5.66h0l1.2-5.66H232L229.92,69c-.6,2.06-1.06,2.34-2.63,2.29a3.14,3.14,0,0,1-.61,0V70a1.69,1.69,0,0,0,.49.06c.52,0,.86-.1,1-.59l.19-.62-2.14-7.7Z"/><path d="M232.83,61.13h1.51v1.18h0a1.88,1.88,0,0,1,1.75-1.38.92.92,0,0,1,.37.06v1.54a2.3,2.3,0,0,0-.63-.08c-.69,0-1.52.31-1.52,1.71v4.51h-1.51Z"/><path d="M237.31,58.55h1.51v1.52h-1.51Zm0,2.58h1.51v7.54h-1.51Z"/><path d="M245.29,67.1c0,.28.17.53.39.53a.59.59,0,0,0,.26,0v1a1.63,1.63,0,0,1-.75.18c-.67,0-1.23-.27-1.27-1h0a1.94,1.94,0,0,1-1.87,1.1c-1.22,0-2-.66-2-2.11a2.09,2.09,0,0,1,1.75-2.37l1.18-.32c.55-.16.88-.31.88-1s-.23-1.12-1-1.12c-1,0-1.15.72-1.15,1.44h-1.43c0-1.61.66-2.48,2.65-2.48,1.33,0,2.39.52,2.39,1.85Zm-1.43-2.41a12.39,12.39,0,0,1-1.68.7,1.24,1.24,0,0,0-.61,1.22c0,.63.3,1.13.94,1.13.91,0,1.35-.67,1.35-1.79Z"/><path d="M247,66.82h1.6v1.85H247Z"/><path d="M185,97.34h-2.38V96h6.32v1.34H186.6V106H185Z"/><path d="M189.75,96h1.51v3.28l0,0a2.18,2.18,0,0,1,1.85-1c1.15,0,1.88.52,1.88,2V106h-1.51v-5.17c0-1-.28-1.36-1.05-1.36-.62,0-1.21.48-1.21,1.47V106h-1.51Z"/><path d="M197.78,102.43v.43c0,1,.13,2.3,1.27,2.3s1.2-1.22,1.2-1.68h1.43A2.48,2.48,0,0,1,199,106.2c-1.23,0-2.76-.37-2.76-3.86,0-2,.44-4.07,2.79-4.07,2.1,0,2.66,1.27,2.66,3.36v.8Zm2.43-1V101c0-1-.31-1.69-1.16-1.69s-1.27,1-1.27,1.94v.15Z"/><path d="M206.42,96h3.17c1.92,0,2.76,1.2,2.76,2.91a2.72,2.72,0,0,1-2.93,3H208V106h-1.6Zm1.6,4.66h1.13a1.5,1.5,0,0,0,1.6-1.72c0-1.08-.43-1.74-1.71-1.74h-1Z"/><path d="M213.32,96h1.52v3.28l0,0a2.15,2.15,0,0,1,1.85-1c1.15,0,1.87.52,1.87,2V106h-1.51v-5.17c0-1-.28-1.36-1.05-1.36-.62,0-1.2.48-1.2,1.47V106h-1.52Z"/><path d="M220.13,95.89h1.51V97.4h-1.51Zm0,2.57h1.51V106h-1.51Z"/><path d="M223.24,96h1.51v10h-1.51Z"/><path d="M226.34,95.89h1.52V97.4h-1.52Zm0,2.57h1.52V106h-1.52Z"/><path d="M232.63,100.66v-.19c0-.61-.21-1.17-1-1.17-.61,0-1.08.27-1.08,1s.26.82,1.06,1.1l1,.34a2,2,0,0,1,1.64,2.17c0,1.61-1.19,2.3-2.71,2.3-1.9,0-2.48-.89-2.48-2.34v-.28h1.35v.23c0,.89.29,1.35,1.18,1.35s1.23-.42,1.23-1.11A1.09,1.09,0,0,0,232,103l-1.23-.44a2,2,0,0,1-1.61-2.17c0-1.41,1-2.07,2.58-2.07,1.91,0,2.35,1.12,2.35,2.06v.33Z"/><path d="M234.67,98.46h1V96.32h1.51v2.14h1.23v1.12h-1.23v4.5c0,.6.17.8.69.8a2.7,2.7,0,0,0,.54,0V106a5.08,5.08,0,0,1-1.21.12c-1,0-1.53-.29-1.53-1.82V99.58h-1Z"/><path d="M239.31,95.89h1.51V97.4h-1.51Zm0,2.57h1.51V106h-1.51Z"/><path d="M242.34,98.46h1.43v.89h0a2.13,2.13,0,0,1,1.93-1.08c1.15,0,1.88.52,1.88,2V106h-1.52v-5.17c0-1-.26-1.36-1.05-1.36-.61,0-1.2.46-1.2,1.47V106h-1.52Z"/><path d="M250.38,102.43v.43c0,1,.13,2.3,1.26,2.3s1.21-1.22,1.21-1.68h1.43a2.48,2.48,0,0,1-2.65,2.72c-1.24,0-2.76-.37-2.76-3.86,0-2,.43-4.07,2.79-4.07,2.1,0,2.66,1.27,2.66,3.36v.8Zm2.42-1V101c0-1-.3-1.69-1.16-1.69s-1.26,1-1.26,1.94v.15Z"/><path d="M258.81,100.66v-.19c0-.61-.21-1.17-1-1.17-.61,0-1.08.27-1.08,1s.26.82,1.06,1.1l1,.34a2,2,0,0,1,1.64,2.17c0,1.61-1.19,2.3-2.71,2.3-1.9,0-2.48-.89-2.48-2.34v-.28h1.35v.23c0,.89.29,1.35,1.18,1.35s1.23-.42,1.23-1.11a1.09,1.09,0,0,0-.83-1.1l-1.23-.44a2,2,0,0,1-1.61-2.17c0-1.41,1-2.07,2.58-2.07,1.91,0,2.35,1.12,2.35,2.06v.33Z"/></g></g></g></g></svg>