<svg xmlns="http://www.w3.org/2000/svg" viewBox="0 0 1847.91 112"><title>bc1300text</title><g id="YEARS"><g id="Right"><path d="M1787.21,106.27V92.9h-3.82V91h.29c1.77,0,3.79-.45,4.34-2.76v-.36h2.16v18.41Z" fill="#3b4351"/><path d="M1797.93,101.14c0,1.61.54,3.41,2.52,3.41s2.57-1.48,2.57-3.3c0-2.29-.73-3.44-3-3.44h-1.14V95.73H1800c2,0,2.65-1.35,2.65-3.14,0-1.33-.59-2.65-2.13-2.65-1.82,0-2.34,1.56-2.34,3.22h-2.81c0-3.46,1.77-5.3,5.31-5.3,2.21,0,4.94,1,4.94,4.7,0,1.9-1.14,3.75-2.94,4v.08c1.9.18,3.36,1.66,3.36,4.27,0,3.66-1.8,5.69-5.62,5.69-3.33,0-5.25-1.64-5.25-5.49Z" fill="#3b4351"/><path d="M1813,87.86c3.54,0,5.51,2.21,5.51,9.38s-2,9.39-5.51,9.39-5.51-2.21-5.51-9.39S1809.49,87.86,1813,87.86Zm0,16.69c2,0,2.55-2,2.55-7.31s-.55-7.3-2.55-7.3-2.55,2-2.55,7.3S1811,104.55,1813,104.55Z" fill="#3b4351"/><path d="M1825.51,87.86c3.54,0,5.51,2.21,5.51,9.38s-2,9.39-5.51,9.39-5.51-2.21-5.51-9.39S1822,87.86,1825.51,87.86Zm0,16.69c2,0,2.55-2,2.55-7.31s-.55-7.3-2.55-7.3-2.55,2-2.55,7.3S1823.51,104.55,1825.51,104.55Z" fill="#3b4351"/></g><g id="left"><path d="M17.46,109.86V96.5H13.64V94.58h.29c1.77,0,3.79-.45,4.34-2.76v-.36h2.16v18.4Z" fill="#3b4351"/><path d="M28.18,104.74c0,1.61.54,3.41,2.52,3.41s2.57-1.48,2.57-3.3c0-2.29-.73-3.44-3-3.44H29.14V99.33H30.2c2,0,2.66-1.35,2.66-3.14,0-1.33-.6-2.65-2.14-2.65-1.82,0-2.34,1.56-2.34,3.22h-2.8c0-3.46,1.76-5.3,5.3-5.3,2.21,0,4.94,1,4.94,4.7,0,1.9-1.14,3.75-2.94,4v.08c1.9.18,3.36,1.66,3.36,4.26,0,3.67-1.8,5.7-5.62,5.7-3.33,0-5.25-1.64-5.25-5.49Z" fill="#3b4351"/><path d="M43.28,91.46c3.54,0,5.51,2.21,5.51,9.38s-2,9.39-5.51,9.39-5.51-2.21-5.51-9.39S39.75,91.46,43.28,91.46Zm0,16.69c2,0,2.55-2,2.55-7.31s-.55-7.3-2.55-7.3-2.55,2-2.55,7.3S41.28,108.15,43.28,108.15Z" fill="#3b4351"/><path d="M55.76,91.46c3.54,0,5.51,2.21,5.51,9.38s-2,9.39-5.51,9.39-5.51-2.21-5.51-9.39S52.22,91.46,55.76,91.46Zm0,16.69c2,0,2.55-2,2.55-7.31s-.55-7.3-2.55-7.3-2.55,2-2.55,7.3S53.76,108.15,55.76,108.15Z" fill="#3b4351"/></g></g><g id="Text"><g id="Huns"><path d="M1533.69,47.53h2.79v7h5.15v-7h2.79V65h-2.79V56.89h-5.15V65h-2.79Z" fill="#3b4351"/><path d="M1553.88,63.48h-.08a3.77,3.77,0,0,1-3.38,1.89c-2,0-3.28-.91-3.28-4.31V51.84h2.65V61.3c0,1.47.63,2,1.78,2a2.05,2.05,0,0,0,2.16-2.2V51.84h2.65V65h-2.5Z" fill="#3b4351"/><path d="M1558.92,51.84h2.5v1.55h.08a3.77,3.77,0,0,1,3.38-1.89c2,0,3.28.91,3.28,3.58V65h-2.64V56c0-1.77-.47-2.38-1.84-2.38-1.08,0-2.11.81-2.11,2.57V65h-2.65Z" fill="#3b4351"/><path d="M1576.39,55.69v-.34c0-1.06-.37-2-1.74-2-1.05,0-1.88.47-1.88,1.72,0,1,.46,1.45,1.86,1.94l1.69.58c2,.67,2.87,1.72,2.87,3.8,0,2.82-2.09,4-4.73,4-3.34,0-4.34-1.54-4.34-4.09v-.49h2.35v.42c0,1.54.52,2.35,2.06,2.35s2.16-.74,2.16-1.94a1.9,1.9,0,0,0-1.45-1.93l-2.16-.76c-2-.67-2.81-1.69-2.81-3.8,0-2.48,1.76-3.63,4.5-3.63,3.36,0,4.12,2,4.12,3.6v.59Z" fill="#3b4351"/></g><g id="Hebrews"><path d="M942.81,36.62h2.8v7h5.14v-7h2.8v17.5h-2.8V46h-5.14v8.14h-2.8Z" fill="#3b4351"/><path d="M956.44,36.62h9.45V39h-6.66v4.86h6.27v2.35h-6.27v5.59h6.86v2.35h-9.65Z" fill="#3b4351"/><path d="M968.22,36.62h5.66c2.62,0,4.71,1.18,4.71,4.24q0,3.16-2.58,4v.05c1.91.34,3.14,1.49,3.14,4.46s-2.11,4.78-5.39,4.78h-5.54Zm5,7.38a2.45,2.45,0,0,0,2.57-2.77c0-2.08-1.25-2.5-2.82-2.5h-2V44Zm.56,8c1.67,0,2.58-1,2.58-3.09a2.65,2.65,0,0,0-2.75-3H971v6Z" fill="#3b4351"/><path d="M981.38,36.62h6.17c2.45,0,4.44,1.25,4.44,4.51,0,2.26-1,4-2.92,4.29v0c1.77.17,2.65,1.13,2.75,3.58,0,1.15,0,2.5.09,3.55a1.92,1.92,0,0,0,.84,1.52h-3.16a2.93,2.93,0,0,1-.47-1.55c0-.51-.07-1-.07-1.56s0-1.11,0-1.74c-.08-1.92-.66-2.75-2.55-2.75h-2.28v7.6h-2.79Zm5,7.79a2.57,2.57,0,0,0,2.79-2.84c0-1.86-.78-2.84-2.64-2.84h-2.38v5.68Z" fill="#3b4351"/><path d="M994.53,36.62H1004V39h-6.66v4.86h6.27v2.35h-6.27v5.59h6.86v2.35h-9.66Z" fill="#3b4351"/><path d="M1005,36.62h2.82l2.3,13.6h.05l2.3-13.6h2.94l2.36,13.68h0l2.28-13.68h2.77l-3.48,17.5h-3.23l-2.26-13.19h0l-2.22,13.19h-3.24Z" fill="#3b4351"/><path d="M1026.63,48.7v.44c0,2.14.95,3.21,2.87,3.21a2.5,2.5,0,0,0,2.64-2.54c0-1.84-.93-2.65-2.5-3.12l-1.91-.66c-2.55-1-3.65-2.3-3.65-4.8,0-3.19,2.18-4.95,5.44-4.95,4.48,0,5,2.79,5,4.61v.39h-2.79v-.37c0-1.59-.69-2.52-2.45-2.52a2.23,2.23,0,0,0-2.36,2.52c0,1.5.76,2.25,2.63,3l1.88.68c2.48.88,3.55,2.21,3.55,4.63,0,3.73-2.25,5.27-5.78,5.27-4.34,0-5.32-2.89-5.32-5.34V48.7Z" fill="#3b4351"/></g><g id="Egytians"><g id="large"><path d="M502.37,36.16h9.46v2.35h-6.66v4.86h6.27v2.35h-6.27v5.59H512v2.35h-9.66Z" fill="#3b4351"/><path d="M522.81,51.62h0A3.62,3.62,0,0,1,518.94,54c-3.83,0-5.2-2.84-5.2-9.09s1.77-9.09,5.81-9.09a4.76,4.76,0,0,1,5.12,5v.32H522v-.42c0-1.3-.54-2.84-2.45-2.84s-3,1.32-3,6.91.93,7,2.81,7c2.14,0,2.92-1.51,2.92-5.34h-2.94v-2.1h5.59v9.21h-2.11Z" fill="#3b4351"/><path d="M530.28,46.82l-4.51-10.66h3.11l2.94,7.55,3-7.55h2.91l-4.68,10.66v6.84h-2.79Z" fill="#3b4351"/><path d="M539.1,36.16h5.54c3.36,0,4.83,2.11,4.83,5.1,0,3.14-1.87,5.17-5.13,5.17h-2.45v7.23H539.1Zm2.79,8.16h2c1.49,0,2.79-.78,2.79-3,0-1.89-.76-3-3-3h-1.79Z" fill="#3b4351"/><path d="M554.22,38.51h-4.17V36.16H561.1v2.35H557V53.66h-2.79Z" fill="#3b4351"/><path d="M562.57,36.16h2.79v17.5h-2.79Z" fill="#3b4351"/><path d="M571.44,36.16H575l4.6,17.5h-2.91l-1.08-4.29h-5.12l-1.13,4.29h-2.92Zm3.72,11-2-8.63h0L571,47.14Z" fill="#3b4351"/><path d="M580.85,36.16h3.4l5.08,13h0v-13H592v17.5h-3.4l-5.08-13.38h0V53.66h-2.64Z" fill="#3b4351"/><path d="M597.07,48.24v.44q0,3.21,2.86,3.21a2.51,2.51,0,0,0,2.65-2.54c0-1.84-.93-2.65-2.5-3.12l-1.91-.66c-2.55-1-3.65-2.3-3.65-4.8,0-3.19,2.18-5,5.44-5,4.48,0,4.95,2.79,4.95,4.61v.39h-2.8v-.37c0-1.59-.68-2.52-2.45-2.52a2.23,2.23,0,0,0-2.35,2.52c0,1.5.76,2.26,2.62,3l1.89.68c2.48.88,3.55,2.21,3.55,4.63,0,3.73-2.25,5.27-5.78,5.27-4.34,0-5.32-2.89-5.32-5.34v-.42Z" fill="#3b4351"/></g><g id="small"><path d="M394.7,7.33h3.53a2.31,2.31,0,0,1,2.53,2.57c0,1.29-.56,2.29-1.67,2.45v0c1,.1,1.52.65,1.57,2,0,.66,0,1.43.06,2a1.1,1.1,0,0,0,.48.87h-1.81a1.61,1.61,0,0,1-.27-.88c0-.3,0-.61,0-.9s0-.63,0-1c0-1.09-.38-1.56-1.45-1.56h-1.31v4.34H394.7Zm2.87,4.45a1.47,1.47,0,0,0,1.59-1.62c0-1.07-.44-1.63-1.51-1.63h-1.36v3.25Z" fill="#3b4351"/><path d="M403.42,13.76v.43c0,1,.13,2.3,1.26,2.3s1.2-1.22,1.2-1.68h1.43a2.47,2.47,0,0,1-2.64,2.71c-1.24,0-2.76-.36-2.76-3.85,0-2,.43-4.07,2.78-4.07,2.1,0,2.67,1.27,2.67,3.36v.8Zm2.42-1v-.41c0-1-.31-1.68-1.16-1.68s-1.26.95-1.26,1.93v.16Z" fill="#3b4351"/><path d="M407.93,9.79h1V7.65h1.52V9.79h1.23v1.12h-1.23v4.5c0,.6.16.8.68.8a3.78,3.78,0,0,0,.55,0v1.12a5.17,5.17,0,0,1-1.22.12c-1,0-1.53-.29-1.53-1.82V10.91h-1Z" fill="#3b4351"/><path d="M416.34,16.45h0a2.16,2.16,0,0,1-1.93,1.07c-1.12,0-1.88-.51-1.88-2.46V9.79H414V15.2c0,.84.37,1.12,1,1.12a1.18,1.18,0,0,0,1.23-1.26V9.79h1.51v7.54h-1.43Z" fill="#3b4351"/><path d="M419.22,9.79h1.52V11h0a1.85,1.85,0,0,1,1.75-1.37.89.89,0,0,1,.36.05v1.54a2.18,2.18,0,0,0-.63-.08c-.69,0-1.51.31-1.51,1.71v4.51h-1.52Z" fill="#3b4351"/><path d="M423.77,9.79h1.43v.88h.05a2.15,2.15,0,0,1,1.93-1.07c1.15,0,1.88.51,1.88,2v5.69h-1.52V12.16c0-1-.26-1.36-1.05-1.36-.61,0-1.2.46-1.2,1.47v5.06h-1.52Z" fill="#3b4351"/><path d="M433.2,9.79h1V7.65h1.52V9.79H437v1.12h-1.23v4.5c0,.6.16.8.68.8a3.78,3.78,0,0,0,.55,0v1.12a5.17,5.17,0,0,1-1.22.12c-1,0-1.53-.29-1.53-1.82V10.91h-1Z" fill="#3b4351"/><path d="M437.47,13.56c0-2.35.61-4,2.8-4s2.81,1.61,2.81,4-.73,4-2.81,4S437.47,15.91,437.47,13.56Zm2.8,2.84c1.1,0,1.3-.92,1.3-2.84,0-1.67-.2-2.84-1.3-2.84S439,11.89,439,13.56C439,15.48,439.19,16.4,440.27,16.4Z" fill="#3b4351"/><path d="M447.31,13.56c0-2.35.61-4,2.8-4s2.81,1.61,2.81,4-.72,4-2.81,4S447.31,15.91,447.31,13.56Zm2.8,2.84c1.11,0,1.3-.92,1.3-2.84,0-1.67-.19-2.84-1.3-2.84s-1.29,1.17-1.29,2.84C448.82,15.48,449,16.4,450.11,16.4Z" fill="#3b4351"/><path d="M454.15,7.33h1.52v10h-1.52Z" fill="#3b4351"/><path d="M461,16.4h0a1.62,1.62,0,0,1-1.66,1.12c-1.75,0-2.46-1.48-2.46-4.06,0-3.35,1.17-3.86,2.32-3.86a1.74,1.74,0,0,1,1.71,1.07h0V7.33h1.51v10H461Zm-1.37-5.6c-.85,0-1.18.7-1.18,2.73,0,1.71.21,2.79,1.28,2.79S461,15.27,461,13.64C461,11.84,460.85,10.8,459.67,10.8Z" fill="#3b4351"/><path d="M467.29,9.79h1.51V11h0a1.85,1.85,0,0,1,1.75-1.37.89.89,0,0,1,.36.05v1.54a2.18,2.18,0,0,0-.63-.08c-.69,0-1.51.31-1.51,1.71v4.51h-1.51Z" fill="#3b4351"/><path d="M472.91,13.76v.43c0,1,.13,2.3,1.26,2.3s1.21-1.22,1.21-1.68h1.43a2.48,2.48,0,0,1-2.65,2.71c-1.23,0-2.76-.36-2.76-3.85,0-2,.44-4.07,2.79-4.07,2.1,0,2.66,1.27,2.66,3.36v.8Zm2.43-1v-.41c0-1-.31-1.68-1.17-1.68s-1.26.95-1.26,1.93v.16Z" fill="#3b4351"/><path d="M478.16,7.33h1.52v10h-1.52Z" fill="#3b4351"/><path d="M481.27,7.21h1.51V8.73h-1.51Zm0,2.58h1.51v7.54h-1.51Z" fill="#3b4351"/><path d="M485.82,18a1,1,0,0,0,1.09.9,1.25,1.25,0,0,0,1.28-1.42V16.23h0a1.82,1.82,0,0,1-1.71,1c-1.75,0-2.25-1.72-2.25-3.79,0-1.66.25-3.88,2.39-3.88a1.67,1.67,0,0,1,1.66,1.12h0V9.79h1.43V17c0,1.84-.78,2.94-2.81,2.94-2.25,0-2.5-1.31-2.5-1.93Zm1.07-1.9c1.17,0,1.3-1.49,1.3-2.68S488,10.8,487,10.8s-1.27,1.12-1.27,2.52S485.77,16.07,486.89,16.07Z" fill="#3b4351"/><path d="M491.11,7.21h1.52V8.73h-1.52Zm0,2.58h1.52v7.54h-1.52Z" fill="#3b4351"/><path d="M493.86,13.56c0-2.35.61-4,2.8-4s2.81,1.61,2.81,4-.72,4-2.81,4S493.86,15.91,493.86,13.56Zm2.8,2.84c1.1,0,1.3-.92,1.3-2.84,0-1.67-.2-2.84-1.3-2.84s-1.29,1.17-1.29,2.84C495.37,15.48,495.58,16.4,496.66,16.4Z" fill="#3b4351"/><path d="M500.63,9.79h1.43v.88h0A2.17,2.17,0,0,1,504,9.6c1.14,0,1.87.51,1.87,2v5.69H504.4V12.16c0-1-.27-1.36-1-1.36-.62,0-1.2.46-1.2,1.47v5.06h-1.52Z" fill="#3b4351"/><path d="M507.52,15.48h1.6v1.85h-1.6Z" fill="#3b4351"/><path d="M514.18,7.33h3.17c1.92,0,2.76,1.2,2.76,2.91a2.72,2.72,0,0,1-2.93,3h-1.4v4.13h-1.6Zm1.6,4.66h1.14a1.5,1.5,0,0,0,1.59-1.72c0-1.08-.43-1.74-1.71-1.74h-1Z" fill="#3b4351"/><path d="M522.39,13.76v.43c0,1,.13,2.3,1.26,2.3s1.2-1.22,1.2-1.68h1.43a2.47,2.47,0,0,1-2.64,2.71c-1.24,0-2.76-.36-2.76-3.85,0-2,.43-4.07,2.78-4.07,2.1,0,2.67,1.27,2.67,3.36v.8Zm2.42-1v-.41c0-1-.31-1.68-1.16-1.68s-1.26.95-1.26,1.93v.16Z" fill="#3b4351"/><path d="M527.57,9.79h1.51V11h0a1.87,1.87,0,0,1,1.75-1.37.89.89,0,0,1,.36.05v1.54a2.18,2.18,0,0,0-.63-.08c-.68,0-1.51.31-1.51,1.71v4.51h-1.51Z" fill="#3b4351"/><path d="M532.05,7.21h1.51V8.73h-1.51Zm0,2.58h1.51v7.54h-1.51Z" fill="#3b4351"/><path d="M534.79,13.56c0-2.35.62-4,2.8-4s2.82,1.61,2.82,4-.73,4-2.82,4S534.79,15.91,534.79,13.56Zm2.8,2.84c1.11,0,1.31-.92,1.31-2.84,0-1.67-.2-2.84-1.31-2.84s-1.29,1.17-1.29,2.84C536.3,15.48,536.51,16.4,537.59,16.4Z" fill="#3b4351"/><path d="M545.42,16.4h0a1.61,1.61,0,0,1-1.65,1.12c-1.75,0-2.47-1.48-2.47-4.06,0-3.35,1.18-3.86,2.33-3.86a1.74,1.74,0,0,1,1.71,1.07h0V7.33h1.51v10h-1.43Zm-1.37-5.6c-.86,0-1.18.7-1.18,2.73,0,1.71.21,2.79,1.27,2.79s1.28-1.05,1.28-2.68C545.42,11.84,545.22,10.8,544.05,10.8Z" fill="#3b4351"/><path d="M551.37,13.56c0-2.35.61-4,2.8-4s2.81,1.61,2.81,4-.72,4-2.81,4S551.37,15.91,551.37,13.56Zm2.8,2.84c1.11,0,1.3-.92,1.3-2.84,0-1.67-.19-2.84-1.3-2.84s-1.29,1.17-1.29,2.84C552.88,15.48,553.09,16.4,554.17,16.4Z" fill="#3b4351"/><path d="M558.61,10.91h-1.05V9.79h1.05v-.7c0-1.41.68-1.88,1.91-1.88a6.25,6.25,0,0,1,.83,0V8.42h-.42c-.56,0-.81.21-.81.71v.66h1.23v1.12h-1.23v6.42h-1.51Z" fill="#3b4351"/><path d="M565.4,9.79h1.51V11h0a1.85,1.85,0,0,1,1.75-1.37.89.89,0,0,1,.36.05v1.54a2.18,2.18,0,0,0-.63-.08c-.69,0-1.51.31-1.51,1.71v4.51H565.4Z" fill="#3b4351"/><path d="M571,13.76v.43c0,1,.13,2.3,1.26,2.3s1.21-1.22,1.21-1.68h1.43a2.48,2.48,0,0,1-2.65,2.71c-1.23,0-2.76-.36-2.76-3.85,0-2,.44-4.07,2.79-4.07,2.1,0,2.66,1.27,2.66,3.36v.8Zm2.43-1v-.41c0-1-.31-1.68-1.17-1.68s-1.26.95-1.26,1.93v.16Z" fill="#3b4351"/><path d="M575.57,9.79h1.63l1.31,5.94h0l1.19-5.94h1.61l-2,7.54h-1.76Z" fill="#3b4351"/><path d="M581.87,13.56c0-2.35.62-4,2.8-4s2.82,1.61,2.82,4-.73,4-2.82,4S581.87,15.91,581.87,13.56Zm2.8,2.84c1.11,0,1.31-.92,1.31-2.84,0-1.67-.2-2.84-1.31-2.84s-1.28,1.17-1.28,2.84C583.39,15.48,583.6,16.4,584.67,16.4Z" fill="#3b4351"/><path d="M588.72,7.33h1.51v10h-1.51Z" fill="#3b4351"/><path d="M595.61,16.45h0a2.17,2.17,0,0,1-1.94,1.07c-1.12,0-1.87-.51-1.87-2.46V9.79h1.51V15.2c0,.84.36,1.12,1,1.12a1.17,1.17,0,0,0,1.23-1.26V9.79H597v7.54h-1.43Z" fill="#3b4351"/><path d="M597.82,9.79h1V7.65h1.52V9.79h1.23v1.12h-1.23v4.5c0,.6.17.8.68.8a3.78,3.78,0,0,0,.55,0v1.12a5.17,5.17,0,0,1-1.22.12c-1,0-1.53-.29-1.53-1.82V10.91h-1Z" fill="#3b4351"/><path d="M602.45,7.21H604V8.73h-1.52Zm0,2.58H604v7.54h-1.52Z" fill="#3b4351"/><path d="M605.2,13.56c0-2.35.61-4,2.8-4s2.81,1.61,2.81,4-.73,4-2.81,4S605.2,15.91,605.2,13.56ZM608,16.4c1.1,0,1.3-.92,1.3-2.84,0-1.67-.2-2.84-1.3-2.84s-1.29,1.17-1.29,2.84C606.71,15.48,606.92,16.4,608,16.4Z" fill="#3b4351"/><path d="M612,9.79h1.43v.88h0a2.17,2.17,0,0,1,1.94-1.07c1.14,0,1.87.51,1.87,2v5.69h-1.51V12.16c0-1-.27-1.36-1-1.36-.62,0-1.2.46-1.2,1.47v5.06H612Z" fill="#3b4351"/><path d="M627,15.76c0,.28.17.53.39.53a.59.59,0,0,0,.26,0v1a1.63,1.63,0,0,1-.75.18c-.67,0-1.23-.26-1.27-1h0a2,2,0,0,1-1.88,1.1c-1.22,0-2-.65-2-2.11A2.08,2.08,0,0,1,623.52,13l1.18-.32c.55-.16.88-.31.88-1s-.24-1.12-1-1.12c-1,0-1.15.72-1.15,1.44H622c0-1.61.66-2.47,2.65-2.47,1.33,0,2.39.51,2.39,1.84Zm-1.43-2.41a11.23,11.23,0,0,1-1.68.7,1.24,1.24,0,0,0-.61,1.22c0,.63.3,1.13.93,1.13.91,0,1.36-.67,1.36-1.79Z" fill="#3b4351"/><path d="M628.55,9.79H630v.88h0A2.16,2.16,0,0,1,632,9.6c1.15,0,1.88.51,1.88,2v5.69h-1.51V12.16c0-1-.27-1.36-1.05-1.36-.62,0-1.21.46-1.21,1.47v5.06h-1.51Z" fill="#3b4351"/><path d="M639.13,16.4h0a1.62,1.62,0,0,1-1.66,1.12c-1.75,0-2.46-1.48-2.46-4.06,0-3.35,1.17-3.86,2.32-3.86A1.74,1.74,0,0,1,639,10.67h0V7.33h1.51v10h-1.43Zm-1.37-5.6c-.85,0-1.18.7-1.18,2.73,0,1.71.21,2.79,1.28,2.79s1.27-1.05,1.27-2.68C639.13,11.84,638.94,10.8,637.76,10.8Z" fill="#3b4351"/><path d="M649.23,16.4h0a1.61,1.61,0,0,1-1.65,1.12c-1.75,0-2.47-1.48-2.47-4.06,0-3.35,1.18-3.86,2.33-3.86a1.75,1.75,0,0,1,1.71,1.07h0V7.33h1.52v10h-1.43Zm-1.38-5.6c-.85,0-1.17.7-1.17,2.73,0,1.71.21,2.79,1.27,2.79s1.28-1.05,1.28-2.68C649.23,11.84,649,10.8,647.85,10.8Z" fill="#3b4351"/><path d="M652.18,7.21h1.51V8.73h-1.51Zm0,2.58h1.51v7.54h-1.51Z" fill="#3b4351"/><path d="M658.47,12v-.2c0-.6-.21-1.16-1-1.16-.6,0-1.08.27-1.08,1s.27.83,1.07,1.11l1,.34a2,2,0,0,1,1.63,2.17c0,1.61-1.19,2.29-2.7,2.29-1.9,0-2.48-.88-2.48-2.34V14.9h1.35v.24c0,.88.29,1.35,1.17,1.35s1.24-.42,1.24-1.11a1.1,1.1,0,0,0-.83-1.11l-1.23-.43A2,2,0,0,1,655,11.67c0-1.42,1-2.07,2.57-2.07,1.92,0,2.36,1.12,2.36,2.05V12Z" fill="#3b4351"/><path d="M660.89,13.56c0-2.35.61-4,2.8-4s2.81,1.61,2.81,4-.72,4-2.81,4S660.89,15.91,660.89,13.56Zm2.8,2.84c1.11,0,1.3-.92,1.3-2.84,0-1.67-.19-2.84-1.3-2.84s-1.29,1.17-1.29,2.84C662.4,15.48,662.61,16.4,663.69,16.4Z" fill="#3b4351"/><path d="M667.66,9.79h1.52V11h0A1.87,1.87,0,0,1,671,9.6a.91.91,0,0,1,.37.05v1.54a2.24,2.24,0,0,0-.63-.08c-.69,0-1.51.31-1.51,1.71v4.51h-1.52Z" fill="#3b4351"/><path d="M673.5,18a1,1,0,0,0,1.09.9,1.25,1.25,0,0,0,1.28-1.42V16.23h0a1.82,1.82,0,0,1-1.71,1c-1.75,0-2.25-1.72-2.25-3.79,0-1.66.25-3.88,2.39-3.88a1.66,1.66,0,0,1,1.66,1.12h0V9.79h1.43V17c0,1.84-.78,2.94-2.81,2.94-2.24,0-2.5-1.31-2.5-1.93Zm1.07-1.9c1.17,0,1.3-1.49,1.3-2.68s-.15-2.59-1.21-2.59-1.27,1.12-1.27,2.52S673.45,16.07,674.57,16.07Z" fill="#3b4351"/><path d="M683.67,15.76c0,.28.17.53.39.53a.54.54,0,0,0,.25,0v1a1.58,1.58,0,0,1-.74.18c-.67,0-1.23-.26-1.28-1h0a2,2,0,0,1-1.88,1.1c-1.22,0-2-.65-2-2.11A2.08,2.08,0,0,1,680.18,13l1.18-.32c.54-.16.88-.31.88-1s-.24-1.12-1-1.12c-1,0-1.15.72-1.15,1.44h-1.43c0-1.61.66-2.47,2.65-2.47,1.33,0,2.4.51,2.4,1.84Zm-1.43-2.41a11.23,11.23,0,0,1-1.68.7,1.23,1.23,0,0,0-.62,1.22c0,.63.31,1.13.94,1.13.91,0,1.36-.67,1.36-1.79Z" fill="#3b4351"/><path d="M685.2,9.79h1.43v.88h0a2.15,2.15,0,0,1,1.93-1.07c1.15,0,1.88.51,1.88,2v5.69H689V12.16c0-1-.26-1.36-1.05-1.36-.61,0-1.2.46-1.2,1.47v5.06H685.2Z" fill="#3b4351"/><path d="M692,7.21h1.51V8.73H692Zm0,2.58h1.51v7.54H692Z" fill="#3b4351"/><path d="M694.67,16.15,698,11.07h-3.1V9.79h4.81V11l-3.17,5h3.17v1.28h-5Z" fill="#3b4351"/><path d="M705.69,15.76c0,.28.17.53.39.53a.54.54,0,0,0,.25,0v1a1.55,1.55,0,0,1-.74.18c-.67,0-1.23-.26-1.27-1h0a2,2,0,0,1-1.88,1.1c-1.22,0-2-.65-2-2.11A2.08,2.08,0,0,1,702.2,13l1.18-.32c.54-.16.88-.31.88-1s-.24-1.12-1-1.12c-1,0-1.14.72-1.14,1.44h-1.43c0-1.61.65-2.47,2.64-2.47,1.33,0,2.4.51,2.4,1.84Zm-1.43-2.41a11.23,11.23,0,0,1-1.68.7,1.23,1.23,0,0,0-.62,1.22c0,.63.31,1.13.94,1.13.91,0,1.36-.67,1.36-1.79Z" fill="#3b4351"/><path d="M706.55,9.79h1V7.65h1.51V9.79h1.24v1.12H709.1v4.5c0,.6.17.8.69.8a3.9,3.9,0,0,0,.55,0v1.12a5.23,5.23,0,0,1-1.22.12c-1,0-1.53-.29-1.53-1.82V10.91h-1Z" fill="#3b4351"/><path d="M711.19,7.21h1.51V8.73h-1.51Zm0,2.58h1.51v7.54h-1.51Z" fill="#3b4351"/><path d="M713.93,13.56c0-2.35.62-4,2.8-4s2.82,1.61,2.82,4-.73,4-2.82,4S713.93,15.91,713.93,13.56Zm2.8,2.84c1.11,0,1.31-.92,1.31-2.84,0-1.67-.2-2.84-1.31-2.84s-1.28,1.17-1.28,2.84C715.45,15.48,715.66,16.4,716.73,16.4Z" fill="#3b4351"/><path d="M720.71,9.79h1.43v.88h0a2.16,2.16,0,0,1,1.93-1.07c1.15,0,1.88.51,1.88,2v5.69h-1.51V12.16c0-1-.27-1.36-1.05-1.36-.62,0-1.21.46-1.21,1.47v5.06h-1.51Z" fill="#3b4351"/><path d="M727.6,15.48h1.59v1.85H727.6Z" fill="#3b4351"/><path d="M357.87,75.74l-2.41-4.91h1.76l1.6,3.32,1.57-3.32h1.72l-2.42,4.91,2.55,5.09h-1.77l-1.73-3.62L357,80.83h-1.73Z" fill="#3b4351"/><path d="M363,70.83h1.6v10H363Z" fill="#3b4351"/><path d="M368,75.74l-2.41-4.91h1.76l1.6,3.32,1.57-3.32h1.72l-2.42,4.91,2.55,5.09h-1.77l-1.74-3.62-1.77,3.62h-1.73Z" fill="#3b4351"/><path d="M372.4,73.29h1V71.15H375v2.14h1.23v1.12H375v4.5c0,.6.17.8.68.8a3.78,3.78,0,0,0,.55,0v1.12a5.17,5.17,0,0,1-1.22.12c-1,0-1.53-.29-1.53-1.82V74.41h-1Z" fill="#3b4351"/><path d="M377,70.83h1.52V74.1l0,0a2.13,2.13,0,0,1,1.85-1c1.15,0,1.87.51,1.87,2v5.69h-1.51V75.66c0-1-.28-1.36-1.05-1.36s-1.2.48-1.2,1.47v5.06H377Z" fill="#3b4351"/><path d="M387.15,70.83H390c3.14,0,3.53,2,3.53,5s-.39,5-3.53,5h-2.85Zm1.6,8.79h1.32c1.31,0,1.86-.87,1.86-3.79s-.48-3.8-1.86-3.8h-1.32Z" fill="#3b4351"/><path d="M395.85,73.29l1.3,5.66h0l1.2-5.66H400l-2.08,7.82c-.6,2.06-1.06,2.34-2.63,2.29a3,3,0,0,1-.6-.05V82.14a1.65,1.65,0,0,0,.49.06c.52,0,.85-.1,1-.59l.2-.61-2.15-7.71Z" fill="#3b4351"/><path d="M400.8,73.29h1.43v.88h0a2.15,2.15,0,0,1,1.93-1.07c1.15,0,1.88.51,1.88,2v5.69h-1.52V75.66c0-1-.26-1.36-1.05-1.36-.61,0-1.2.46-1.2,1.47v5.06H400.8Z" fill="#3b4351"/><path d="M412.48,79.26c0,.28.17.53.4.53a.57.57,0,0,0,.25,0v1a1.58,1.58,0,0,1-.74.18c-.68,0-1.24-.26-1.28-1h0a1.94,1.94,0,0,1-1.87,1.1c-1.22,0-2-.65-2-2.11A2.09,2.09,0,0,1,409,76.54l1.17-.32c.55-.16.88-.31.88-1s-.23-1.12-1-1.12c-1,0-1.15.72-1.15,1.44h-1.43c0-1.61.66-2.47,2.65-2.47,1.33,0,2.39.51,2.39,1.84Zm-1.43-2.41a10.81,10.81,0,0,1-1.68.7,1.24,1.24,0,0,0-.61,1.22c0,.63.31,1.13.94,1.13.91,0,1.35-.67,1.35-1.79Z" fill="#3b4351"/><path d="M417.27,75.49v-.2c0-.6-.21-1.16-1-1.16-.61,0-1.08.27-1.08,1s.26.83,1.06,1.11l1,.34a2,2,0,0,1,1.64,2.17c0,1.61-1.19,2.29-2.71,2.29-1.9,0-2.48-.88-2.48-2.34V78.4H415v.24c0,.88.29,1.35,1.18,1.35s1.23-.42,1.23-1.11a1.1,1.1,0,0,0-.83-1.11l-1.23-.43a2,2,0,0,1-1.61-2.17c0-1.42,1-2.07,2.58-2.07,1.91,0,2.35,1.12,2.35,2.05v.34Z" fill="#3b4351"/><path d="M419.31,73.29h1V71.15h1.51v2.14h1.23v1.12h-1.23v4.5c0,.6.17.8.69.8a3.74,3.74,0,0,0,.54,0v1.12a5.08,5.08,0,0,1-1.21.12c-1,0-1.53-.29-1.53-1.82V74.41h-1Z" fill="#3b4351"/><path d="M424.88,73.29,426.19,79h0l1.2-5.66H429l-2.07,7.82c-.6,2.06-1.06,2.34-2.63,2.29a3.14,3.14,0,0,1-.61-.05V82.14a1.69,1.69,0,0,0,.49.06c.52,0,.86-.1,1-.59l.19-.61-2.14-7.71Z" fill="#3b4351"/><path d="M429,79h1.6v1.85H429Z" fill="#3b4351"/><path d="M434.36,70.83H436l1.32,7.77h0l1.31-7.77h1.68l1.35,7.81h0l1.3-7.81h1.58l-2,10h-1.84l-1.29-7.54h0l-1.28,7.54h-1.85Z" fill="#3b4351"/><path d="M450.07,79.26c0,.28.17.53.4.53a.57.57,0,0,0,.25,0v1a1.58,1.58,0,0,1-.74.18c-.68,0-1.24-.26-1.28-1h0A1.94,1.94,0,0,1,446.8,81c-1.22,0-2-.65-2-2.11a2.09,2.09,0,0,1,1.75-2.37l1.18-.32c.55-.16.88-.31.88-1s-.23-1.12-1-1.12c-1,0-1.15.72-1.15,1.44H445c0-1.61.66-2.47,2.65-2.47,1.33,0,2.39.51,2.39,1.84Zm-1.43-2.41a10.81,10.81,0,0,1-1.68.7,1.24,1.24,0,0,0-.61,1.22c0,.63.31,1.13.94,1.13.91,0,1.35-.67,1.35-1.79Z" fill="#3b4351"/><path d="M451.61,73.29h1.51v1.18h0a1.87,1.87,0,0,1,1.75-1.37.94.94,0,0,1,.37.05v1.54a2.3,2.3,0,0,0-.63-.08c-.69,0-1.52.31-1.52,1.71v4.51h-1.51Z" fill="#3b4351"/><path d="M459.09,77.06c0-2.35.61-4,2.8-4s2.81,1.61,2.81,4-.73,4-2.81,4S459.09,79.41,459.09,77.06Zm2.8,2.84c1.1,0,1.3-.92,1.3-2.84,0-1.67-.2-2.84-1.3-2.84s-1.29,1.17-1.29,2.84C460.6,79,460.81,79.9,461.89,79.9Z" fill="#3b4351"/><path d="M465.86,73.29h1.43v.88h0a2.17,2.17,0,0,1,1.94-1.07c1.14,0,1.87.51,1.87,2v5.69h-1.51V75.66c0-1-.27-1.36-1.05-1.36-.62,0-1.21.46-1.21,1.47v5.06h-1.51Z" fill="#3b4351"/><path d="M476.05,70.83h1.6v4h2.94v-4h1.6v10h-1.6V76.18h-2.94v4.65h-1.6Z" fill="#3b4351"/><path d="M483.81,70.71h1.51v1.52h-1.51Zm0,2.58h1.51v7.54h-1.51Z" fill="#3b4351"/><path d="M486.18,73.29h1V71.15h1.51v2.14H490v1.12h-1.24v4.5c0,.6.17.8.69.8a3.78,3.78,0,0,0,.55,0v1.12a5.17,5.17,0,0,1-1.22.12c-1,0-1.53-.29-1.53-1.82V74.41h-1Z" fill="#3b4351"/><path d="M490.07,73.29h1V71.15h1.52v2.14h1.23v1.12h-1.23v4.5c0,.6.16.8.68.8a3.78,3.78,0,0,0,.55,0v1.12a5.17,5.17,0,0,1-1.22.12c-1,0-1.53-.29-1.53-1.82V74.41h-1Z" fill="#3b4351"/><path d="M494.7,70.71h1.51v1.52H494.7Zm0,2.58h1.51v7.54H494.7Z" fill="#3b4351"/><path d="M497.07,73.29h1V71.15h1.52v2.14h1.23v1.12h-1.23v4.5c0,.6.16.8.68.8a3.78,3.78,0,0,0,.55,0v1.12a5.17,5.17,0,0,1-1.22.12c-1,0-1.53-.29-1.53-1.82V74.41h-1Z" fill="#3b4351"/><path d="M502.93,77.26v.43c0,1,.13,2.3,1.27,2.3s1.2-1.22,1.2-1.68h1.43A2.48,2.48,0,0,1,504.18,81c-1.23,0-2.76-.36-2.76-3.85,0-2,.44-4.07,2.79-4.07,2.1,0,2.66,1.27,2.66,3.36v.8Zm2.43-1v-.41c0-1-.31-1.68-1.16-1.68s-1.27,1-1.27,1.93v.16Z" fill="#3b4351"/><path d="M511.36,75.49v-.2c0-.6-.21-1.16-1-1.16-.6,0-1.08.27-1.08,1s.27.83,1.06,1.11l1,.34A2,2,0,0,1,513,78.73c0,1.61-1.19,2.29-2.7,2.29-1.91,0-2.48-.88-2.48-2.34V78.4h1.34v.24c0,.88.3,1.35,1.18,1.35s1.23-.42,1.23-1.11a1.1,1.1,0,0,0-.83-1.11l-1.23-.43a2,2,0,0,1-1.61-2.17c0-1.42,1-2.07,2.58-2.07,1.92,0,2.35,1.12,2.35,2.05v.34Z" fill="#3b4351"/><path d="M514.23,79h1.6v1.85h-1.6Z" fill="#3b4351"/><path d="M520.9,70.83h3.16c1.92,0,2.76,1.2,2.76,2.91a2.72,2.72,0,0,1-2.93,3h-1.4v4.13H520.9Zm1.59,4.66h1.14a1.5,1.5,0,0,0,1.59-1.72c0-1.08-.43-1.74-1.71-1.74h-1Z" fill="#3b4351"/><path d="M527.8,70.83h1.51V74.1l0,0a2.15,2.15,0,0,1,1.85-1c1.15,0,1.88.51,1.88,2v5.69h-1.51V75.66c0-1-.28-1.36-1.06-1.36-.61,0-1.2.48-1.2,1.47v5.06H527.8Z" fill="#3b4351"/><path d="M539.48,79.26c0,.28.16.53.39.53a.57.57,0,0,0,.25,0v1a1.58,1.58,0,0,1-.74.18c-.67,0-1.24-.26-1.28-1h0A2,2,0,0,1,536.2,81c-1.22,0-2-.65-2-2.11A2.08,2.08,0,0,1,536,76.54l1.17-.32c.55-.16.89-.31.89-1s-.24-1.12-1-1.12c-1,0-1.15.72-1.15,1.44h-1.43c0-1.61.66-2.47,2.65-2.47,1.33,0,2.4.51,2.4,1.84Zm-1.43-2.41a11.23,11.23,0,0,1-1.68.7,1.23,1.23,0,0,0-.62,1.22c0,.63.31,1.13.94,1.13.91,0,1.36-.67,1.36-1.79Z" fill="#3b4351"/><path d="M541,73.29h1.52v1.18h0a1.87,1.87,0,0,1,1.75-1.37.94.94,0,0,1,.37.05v1.54a2.24,2.24,0,0,0-.63-.08c-.69,0-1.51.31-1.51,1.71v4.51H541Z" fill="#3b4351"/><path d="M545.13,77.06c0-2.35.62-4,2.8-4s2.82,1.61,2.82,4-.73,4-2.82,4S545.13,79.41,545.13,77.06Zm2.8,2.84c1.11,0,1.3-.92,1.3-2.84,0-1.67-.19-2.84-1.3-2.84s-1.29,1.17-1.29,2.84C546.64,79,546.85,79.9,547.93,79.9Z" fill="#3b4351"/><path d="M556.85,79.26c0,.28.17.53.39.53a.54.54,0,0,0,.25,0v1a1.55,1.55,0,0,1-.74.18c-.67,0-1.23-.26-1.27-1h0a2,2,0,0,1-1.88,1.1c-1.22,0-2-.65-2-2.11a2.08,2.08,0,0,1,1.75-2.37l1.18-.32c.54-.16.88-.31.88-1s-.24-1.12-1-1.12c-1,0-1.14.72-1.14,1.44h-1.43c0-1.61.65-2.47,2.64-2.47,1.33,0,2.4.51,2.4,1.84Zm-1.43-2.41a11.23,11.23,0,0,1-1.68.7,1.25,1.25,0,0,0-.62,1.22c0,.63.31,1.13.94,1.13.91,0,1.36-.67,1.36-1.79Z" fill="#3b4351"/><path d="M558.39,70.83h1.51V74.1l0,0a2.15,2.15,0,0,1,1.85-1c1.15,0,1.88.51,1.88,2v5.69h-1.52V75.66c0-1-.28-1.36-1-1.36-.61,0-1.2.48-1.2,1.47v5.06h-1.51Z" fill="#3b4351"/><path d="M568.58,70.83h1.6v4h2.94v-4h1.59v10h-1.59V76.18h-2.94v4.65h-1.6Z" fill="#3b4351"/><path d="M581.21,79.26c0,.28.17.53.39.53a.54.54,0,0,0,.25,0v1a1.55,1.55,0,0,1-.74.18c-.67,0-1.23-.26-1.27-1h0a2,2,0,0,1-1.88,1.1c-1.22,0-2-.65-2-2.11a2.08,2.08,0,0,1,1.75-2.37l1.18-.32c.54-.16.88-.31.88-1s-.24-1.12-1-1.12c-1,0-1.14.72-1.14,1.44h-1.43c0-1.61.65-2.47,2.64-2.47,1.33,0,2.4.51,2.4,1.84Zm-1.43-2.41a11.23,11.23,0,0,1-1.68.7,1.25,1.25,0,0,0-.62,1.22c0,.63.31,1.13.94,1.13.91,0,1.36-.67,1.36-1.79Z" fill="#3b4351"/><path d="M582.75,73.29h1.51v1.18h0A1.85,1.85,0,0,1,586,73.1a.89.89,0,0,1,.36.05v1.54a2.18,2.18,0,0,0-.63-.08c-.68,0-1.51.31-1.51,1.71v4.51h-1.51Z" fill="#3b4351"/><path d="M587.37,73.29h1.42v.88h.05a2.1,2.1,0,0,1,1.8-1.07,1.62,1.62,0,0,1,1.75,1.14,2.08,2.08,0,0,1,1.91-1.14c1.06,0,1.84.54,1.84,2v5.73h-1.52V75.66c0-1-.29-1.36-.91-1.36s-1.2.48-1.2,1.47v5.06H591V75.66c0-1-.29-1.36-.92-1.36s-1.19.49-1.19,1.47v5.06h-1.51Z" fill="#3b4351"/><path d="M597.66,70.83h1.51V74.1l0,0a2.14,2.14,0,0,1,1.85-1c1.15,0,1.88.51,1.88,2v5.69h-1.52V75.66c0-1-.28-1.36-1-1.36-.61,0-1.2.48-1.2,1.47v5.06h-1.51Z" fill="#3b4351"/><path d="M609.33,79.26c0,.28.17.53.4.53a.57.57,0,0,0,.25,0v1a1.58,1.58,0,0,1-.74.18c-.68,0-1.24-.26-1.28-1h0a1.94,1.94,0,0,1-1.87,1.1c-1.22,0-2-.65-2-2.11a2.08,2.08,0,0,1,1.75-2.37l1.17-.32c.55-.16.89-.31.89-1s-.24-1.12-1-1.12c-1,0-1.15.72-1.15,1.44h-1.43c0-1.61.66-2.47,2.65-2.47,1.33,0,2.39.51,2.39,1.84Zm-1.42-2.41a11.23,11.23,0,0,1-1.68.7,1.23,1.23,0,0,0-.62,1.22c0,.63.31,1.13.94,1.13.91,0,1.36-.67,1.36-1.79Z" fill="#3b4351"/><path d="M610.87,70.83h1.51v3.34h0a1.75,1.75,0,0,1,1.71-1.07c1.15,0,2.33.51,2.33,3.86,0,2.59-.72,4.06-2.47,4.06a1.61,1.61,0,0,1-1.65-1.12h0v.93h-1.43Zm2.71,9c1.06,0,1.27-1.08,1.27-2.79,0-2-.32-2.73-1.18-2.73-1.17,0-1.37,1-1.37,2.84C612.3,78.77,612.54,79.82,613.58,79.82Z" fill="#3b4351"/><path d="M621,73.29h1.51v1.18h0a1.85,1.85,0,0,1,1.75-1.37.89.89,0,0,1,.36.05v1.54a2.18,2.18,0,0,0-.63-.08c-.68,0-1.51.31-1.51,1.71v4.51H621Z" fill="#3b4351"/><path d="M626.59,77.26v.43c0,1,.13,2.3,1.26,2.3s1.21-1.22,1.21-1.68h1.43A2.48,2.48,0,0,1,627.84,81c-1.23,0-2.76-.36-2.76-3.85,0-2,.44-4.07,2.79-4.07,2.1,0,2.66,1.27,2.66,3.36v.8Zm2.43-1v-.41c0-1-.31-1.68-1.17-1.68s-1.26,1-1.26,1.93v.16Z" fill="#3b4351"/><path d="M635,75.49v-.2c0-.6-.21-1.16-1-1.16-.6,0-1.08.27-1.08,1s.27.83,1.06,1.11l1,.34a2,2,0,0,1,1.64,2.17c0,1.61-1.19,2.29-2.7,2.29-1.91,0-2.48-.88-2.48-2.34V78.4h1.34v.24c0,.88.3,1.35,1.18,1.35s1.23-.42,1.23-1.11a1.1,1.1,0,0,0-.83-1.11l-1.23-.43a2,2,0,0,1-1.61-2.17c0-1.42,1-2.07,2.58-2.07,1.92,0,2.35,1.12,2.35,2.05v.34Z" fill="#3b4351"/><path d="M637.06,73.29h1V71.15h1.51v2.14h1.24v1.12h-1.24v4.5c0,.6.17.8.69.8a3.9,3.9,0,0,0,.55,0v1.12a5.23,5.23,0,0,1-1.22.12c-1,0-1.53-.29-1.53-1.82V74.41h-1Z" fill="#3b4351"/><path d="M641.33,77.06c0-2.35.62-4,2.81-4s2.81,1.61,2.81,4-.73,4-2.81,4S641.33,79.41,641.33,77.06Zm2.81,2.84c1.1,0,1.3-.92,1.3-2.84,0-1.67-.2-2.84-1.3-2.84s-1.29,1.17-1.29,2.84C642.85,79,643.06,79.9,644.14,79.9Z" fill="#3b4351"/><path d="M648.11,73.29h1.51v1.18h0a1.87,1.87,0,0,1,1.75-1.37.94.94,0,0,1,.37.05v1.54a2.24,2.24,0,0,0-.63-.08c-.69,0-1.52.31-1.52,1.71v4.51h-1.51Z" fill="#3b4351"/><path d="M653.74,77.26v.43c0,1,.13,2.3,1.26,2.3s1.2-1.22,1.2-1.68h1.43A2.47,2.47,0,0,1,655,81c-1.24,0-2.76-.36-2.76-3.85,0-2,.43-4.07,2.78-4.07,2.11,0,2.67,1.27,2.67,3.36v.8Zm2.42-1v-.41c0-1-.31-1.68-1.16-1.68s-1.26,1-1.26,1.93v.16Z" fill="#3b4351"/><path d="M662.17,75.49v-.2c0-.6-.21-1.16-1-1.16-.6,0-1.07.27-1.07,1s.26.83,1.06,1.11l1,.34a2,2,0,0,1,1.64,2.17c0,1.61-1.2,2.29-2.71,2.29-1.9,0-2.48-.88-2.48-2.34V78.4h1.35v.24c0,.88.29,1.35,1.17,1.35s1.24-.42,1.24-1.11a1.1,1.1,0,0,0-.83-1.11l-1.23-.43a2,2,0,0,1-1.61-2.17c0-1.42,1-2.07,2.57-2.07,1.92,0,2.36,1.12,2.36,2.05v.34Z" fill="#3b4351"/><path d="M668,77.06c0-2.35.61-4,2.8-4s2.82,1.61,2.82,4-.73,4-2.82,4S668,79.41,668,77.06Zm2.8,2.84c1.11,0,1.3-.92,1.3-2.84,0-1.67-.19-2.84-1.3-2.84s-1.29,1.17-1.29,2.84C669.46,79,669.67,79.9,670.75,79.9Z" fill="#3b4351"/><path d="M674.72,73.29h1.52v1.18h0A1.85,1.85,0,0,1,678,73.1a.89.89,0,0,1,.36.05v1.54a2.18,2.18,0,0,0-.63-.08c-.69,0-1.51.31-1.51,1.71v4.51h-1.52Z" fill="#3b4351"/><path d="M682.9,79.9h0A1.6,1.6,0,0,1,681.22,81c-1.75,0-2.46-1.48-2.46-4.06,0-3.35,1.17-3.86,2.32-3.86a1.74,1.74,0,0,1,1.71,1.07h0V70.83h1.51v10H682.9Zm-1.37-5.6c-.85,0-1.18.7-1.18,2.73,0,1.71.21,2.79,1.28,2.79s1.27-1,1.27-2.68C682.9,75.34,682.71,74.3,681.53,74.3Z" fill="#3b4351"/><path d="M687.09,77.26v.43c0,1,.12,2.3,1.26,2.3s1.2-1.22,1.2-1.68H691A2.48,2.48,0,0,1,688.33,81c-1.23,0-2.76-.36-2.76-3.85,0-2,.44-4.07,2.79-4.07,2.1,0,2.66,1.27,2.66,3.36v.8Zm2.42-1v-.41c0-1-.31-1.68-1.16-1.68s-1.26,1-1.26,1.93v.16Z" fill="#3b4351"/><path d="M692.27,73.29h1.51v1.18h0a1.85,1.85,0,0,1,1.75-1.37.89.89,0,0,1,.36.05v1.54a2.18,2.18,0,0,0-.63-.08c-.68,0-1.51.31-1.51,1.71v4.51h-1.51Z" fill="#3b4351"/><path d="M695.54,79h1.6v1.85h-1.6Z" fill="#3b4351"/><path d="M702.21,70.83h3.53a2.31,2.31,0,0,1,2.53,2.57c0,1.29-.56,2.29-1.67,2.45v0c1,.1,1.52.65,1.57,2.05,0,.66,0,1.43.06,2a1.1,1.1,0,0,0,.47.87h-1.8a1.61,1.61,0,0,1-.27-.88c0-.3,0-.61,0-.9s0-.63,0-1c0-1.09-.38-1.56-1.46-1.56h-1.3v4.34h-1.59Zm2.87,4.45a1.47,1.47,0,0,0,1.59-1.62c0-1.07-.44-1.63-1.51-1.63H703.8v3.25Z" fill="#3b4351"/><path d="M714.57,79.26c0,.28.17.53.39.53a.54.54,0,0,0,.25,0v1a1.55,1.55,0,0,1-.74.18c-.67,0-1.23-.26-1.27-1h0a2,2,0,0,1-1.88,1.1c-1.22,0-2-.65-2-2.11a2.08,2.08,0,0,1,1.75-2.37l1.18-.32c.54-.16.88-.31.88-1s-.24-1.12-1-1.12c-1,0-1.14.72-1.14,1.44h-1.43c0-1.61.65-2.47,2.64-2.47,1.33,0,2.4.51,2.4,1.84Zm-1.43-2.41a11.23,11.23,0,0,1-1.68.7,1.25,1.25,0,0,0-.62,1.22c0,.63.31,1.13.94,1.13.91,0,1.36-.67,1.36-1.79Z" fill="#3b4351"/><path d="M716.18,73.29h1.43v.88h0a2.1,2.1,0,0,1,1.8-1.07,1.64,1.64,0,0,1,1.76,1.14,2.06,2.06,0,0,1,1.9-1.14c1.07,0,1.84.54,1.84,2v5.73h-1.52V75.66c0-1-.29-1.36-.91-1.36s-1.2.48-1.2,1.47v5.06H719.8V75.66c0-1-.29-1.36-.92-1.36s-1.19.49-1.19,1.47v5.06h-1.51Z" fill="#3b4351"/><path d="M727.77,77.26v.43c0,1,.13,2.3,1.26,2.3s1.2-1.22,1.2-1.68h1.43A2.47,2.47,0,0,1,729,81c-1.24,0-2.76-.36-2.76-3.85,0-2,.43-4.07,2.78-4.07,2.1,0,2.67,1.27,2.67,3.36v.8Zm2.42-1v-.41c0-1-.31-1.68-1.16-1.68s-1.26,1-1.26,1.93v.16Z" fill="#3b4351"/><path d="M736.2,75.49v-.2c0-.6-.21-1.16-1-1.16-.6,0-1.07.27-1.07,1s.26.83,1.06,1.11l1,.34a2,2,0,0,1,1.64,2.17c0,1.61-1.2,2.29-2.71,2.29-1.9,0-2.48-.88-2.48-2.34V78.4H734v.24c0,.88.29,1.35,1.17,1.35s1.24-.42,1.24-1.11a1.1,1.1,0,0,0-.83-1.11l-1.23-.43a2,2,0,0,1-1.61-2.17c0-1.42,1-2.07,2.57-2.07,1.92,0,2.36,1.12,2.36,2.05v.34Z" fill="#3b4351"/><path d="M740.22,77.26v.43c0,1,.12,2.3,1.26,2.3s1.2-1.22,1.2-1.68h1.43A2.48,2.48,0,0,1,741.46,81c-1.23,0-2.76-.36-2.76-3.85,0-2,.44-4.07,2.79-4.07,2.1,0,2.66,1.27,2.66,3.36v.8Zm2.42-1v-.41c0-1-.31-1.68-1.16-1.68s-1.26,1-1.26,1.93v.16Z" fill="#3b4351"/><path d="M748.64,75.49v-.2c0-.6-.21-1.16-1-1.16-.6,0-1.08.27-1.08,1s.27.83,1.07,1.11l1,.34a2,2,0,0,1,1.64,2.17c0,1.61-1.19,2.29-2.7,2.29-1.91,0-2.48-.88-2.48-2.34V78.4h1.34v.24c0,.88.3,1.35,1.18,1.35s1.23-.42,1.23-1.11a1.1,1.1,0,0,0-.82-1.11l-1.24-.43a2,2,0,0,1-1.61-2.17c0-1.42,1-2.07,2.58-2.07,1.92,0,2.35,1.12,2.35,2.05v.34Z" fill="#3b4351"/><path d="M754.75,70.83h1.59v10h-1.59Z" fill="#3b4351"/><path d="M758,79h1.6v1.85H758Z" fill="#3b4351"/><path d="M396.22,101.73V102c0,1.22.55,1.84,1.64,1.84a1.44,1.44,0,0,0,1.51-1.46,1.68,1.68,0,0,0-1.43-1.78l-1.09-.37c-1.46-.57-2.09-1.32-2.09-2.75,0-1.82,1.25-2.83,3.11-2.83,2.57,0,2.83,1.6,2.83,2.63v.23h-1.59v-.21c0-.91-.4-1.45-1.41-1.45a1.28,1.28,0,0,0-1.34,1.45c0,.85.43,1.29,1.5,1.69l1.08.39a2.56,2.56,0,0,1,2,2.65c0,2.13-1.29,3-3.31,3a2.74,2.74,0,0,1-3-3v-.24Z" fill="#3b4351"/><path d="M403.46,101.26v.43c0,1,.12,2.3,1.26,2.3s1.2-1.22,1.2-1.68h1.43A2.48,2.48,0,0,1,404.7,105c-1.23,0-2.75-.36-2.75-3.85,0-2,.43-4.07,2.78-4.07,2.1,0,2.66,1.27,2.66,3.36v.8Zm2.42-1v-.41c0-1-.31-1.68-1.16-1.68s-1.26,1-1.26,1.93v.16Z" fill="#3b4351"/><path d="M408,97.29h1V95.15h1.51v2.14h1.24v1.12h-1.24v4.5c0,.6.17.8.69.8a3.78,3.78,0,0,0,.55,0v1.12a5.17,5.17,0,0,1-1.22.12c-1,0-1.53-.29-1.53-1.82V98.41h-1Z" fill="#3b4351"/><path d="M412.6,94.71h1.51v1.52H412.6Zm0,2.58h1.51v7.54H412.6Z" fill="#3b4351"/><path d="M419,94.83h1.59v10H419Z" fill="#3b4351"/><path d="M422.26,103h1.6v1.85c0,1.12-.37,1.92-1.6,2.15v-.81A1,1,0,0,0,423,105v-.21h-.7Z" fill="#3b4351"/><path d="M427.79,97.29h1.57l1.05,5.94h0l1.12-5.94h1.71l1.12,5.94h0l1-5.94H437l-1.72,7.54h-1.69L432.37,99h0l-1.08,5.86H429.5Z" fill="#3b4351"/><path d="M442.67,103.26c0,.28.17.53.4.53a.57.57,0,0,0,.25,0v1a1.58,1.58,0,0,1-.74.18c-.68,0-1.24-.26-1.28-1h0a1.94,1.94,0,0,1-1.87,1.1c-1.22,0-2-.65-2-2.11a2.09,2.09,0,0,1,1.76-2.37l1.17-.32c.55-.16.89-.31.89-1s-.24-1.12-1-1.12c-1,0-1.15.72-1.15,1.44h-1.43c0-1.61.66-2.47,2.65-2.47,1.33,0,2.39.51,2.39,1.84Zm-1.42-2.41a10.92,10.92,0,0,1-1.69.7,1.24,1.24,0,0,0-.61,1.22c0,.63.31,1.13.94,1.13.91,0,1.36-.67,1.36-1.79Z" fill="#3b4351"/><path d="M445.72,105.47a1,1,0,0,0,1.1.9,1.25,1.25,0,0,0,1.27-1.42v-1.22h0a1.82,1.82,0,0,1-1.71,1c-1.75,0-2.25-1.72-2.25-3.79,0-1.66.25-3.88,2.39-3.88a1.66,1.66,0,0,1,1.66,1.12h0v-.93h1.42v7.17c0,1.84-.78,2.94-2.81,2.94-2.24,0-2.49-1.31-2.49-1.93Zm1.07-1.9c1.18,0,1.3-1.49,1.3-2.68s-.15-2.59-1.2-2.59-1.28,1.12-1.28,2.52S445.67,103.57,446.79,103.57Z" fill="#3b4351"/><path d="M452.25,101.26v.43c0,1,.12,2.3,1.26,2.3s1.2-1.22,1.2-1.68h1.43a2.48,2.48,0,0,1-2.65,2.71c-1.23,0-2.76-.36-2.76-3.85,0-2,.44-4.07,2.79-4.07,2.1,0,2.66,1.27,2.66,3.36v.8Zm2.42-1v-.41c0-1-.31-1.68-1.16-1.68s-1.26,1-1.26,1.93v.16Z" fill="#3b4351"/><path d="M460.68,99.49v-.2c0-.6-.21-1.16-1-1.16-.6,0-1.08.27-1.08,1s.27.83,1.07,1.11l1,.34a2,2,0,0,1,1.64,2.17c0,1.61-1.19,2.29-2.7,2.29-1.91,0-2.48-.88-2.48-2.34v-.28h1.35v.24c0,.88.29,1.35,1.17,1.35s1.24-.42,1.24-1.11a1.11,1.11,0,0,0-.83-1.11l-1.23-.43a2,2,0,0,1-1.62-2.17c0-1.42,1-2.07,2.58-2.07,1.92,0,2.36,1.12,2.36,2.05v.34Z" fill="#3b4351"/><path d="M470,99.49v-.2c0-.6-.21-1.16-1-1.16-.61,0-1.08.27-1.08,1s.26.83,1.06,1.11l1,.34a2,2,0,0,1,1.64,2.17c0,1.61-1.19,2.29-2.71,2.29-1.9,0-2.48-.88-2.48-2.34v-.28h1.35v.24c0,.88.29,1.35,1.18,1.35s1.23-.42,1.23-1.11a1.1,1.1,0,0,0-.83-1.11l-1.23-.43a2,2,0,0,1-1.61-2.17c0-1.42,1-2.07,2.58-2.07,1.92,0,2.35,1.12,2.35,2.05v.34Z" fill="#3b4351"/><path d="M476.57,104h-.05a2.15,2.15,0,0,1-1.93,1.07c-1.12,0-1.88-.51-1.88-2.46V97.29h1.52v5.41c0,.84.36,1.12,1,1.12a1.17,1.17,0,0,0,1.23-1.26V97.29H478v7.54h-1.43Z" fill="#3b4351"/><path d="M484.53,102.08c-.11,1.81-.7,2.94-2.57,2.94-2.19,0-2.81-1.61-2.81-4s.62-4,2.81-4a2.43,2.43,0,0,1,2.59,2.7H483c0-.7-.18-1.63-1.07-1.58-1.08,0-1.29,1.17-1.29,2.84s.21,2.84,1.29,2.84c.84,0,1.14-.68,1.14-1.82Z" fill="#3b4351"/><path d="M490.75,102.08c-.11,1.81-.7,2.94-2.58,2.94-2.18,0-2.8-1.61-2.8-4s.62-4,2.8-4a2.43,2.43,0,0,1,2.59,2.7h-1.51c0-.7-.18-1.63-1.08-1.58-1.08,0-1.29,1.17-1.29,2.84s.21,2.84,1.29,2.84c.84,0,1.15-.68,1.15-1.82Z" fill="#3b4351"/><path d="M493.18,101.26v.43c0,1,.13,2.3,1.26,2.3s1.21-1.22,1.21-1.68h1.43a2.48,2.48,0,0,1-2.65,2.71c-1.23,0-2.76-.36-2.76-3.85,0-2,.43-4.07,2.79-4.07,2.1,0,2.66,1.27,2.66,3.36v.8Zm2.43-1v-.41c0-1-.31-1.68-1.17-1.68s-1.26,1-1.26,1.93v.16Z" fill="#3b4351"/><path d="M501.61,99.49v-.2c0-.6-.21-1.16-1-1.16-.6,0-1.08.27-1.08,1s.27.83,1.06,1.11l1,.34a2,2,0,0,1,1.64,2.17c0,1.61-1.19,2.29-2.7,2.29-1.91,0-2.48-.88-2.48-2.34v-.28h1.34v.24c0,.88.29,1.35,1.18,1.35s1.23-.42,1.23-1.11a1.1,1.1,0,0,0-.83-1.11l-1.23-.43a2,2,0,0,1-1.61-2.17c0-1.42,1-2.07,2.58-2.07,1.92,0,2.35,1.12,2.35,2.05v.34Z" fill="#3b4351"/><path d="M507.58,99.49v-.2c0-.6-.21-1.16-1-1.16-.6,0-1.08.27-1.08,1s.27.83,1.07,1.11l1,.34a2,2,0,0,1,1.64,2.17c0,1.61-1.19,2.29-2.7,2.29-1.91,0-2.48-.88-2.48-2.34v-.28h1.34v.24c0,.88.3,1.35,1.18,1.35s1.23-.42,1.23-1.11a1.1,1.1,0,0,0-.82-1.11l-1.24-.43a2,2,0,0,1-1.61-2.17c0-1.42,1-2.07,2.58-2.07,1.92,0,2.35,1.12,2.35,2.05v.34Z" fill="#3b4351"/><path d="M510.75,98.41H509.7V97.29h1.05v-.7c0-1.41.69-1.88,1.92-1.88a6.48,6.48,0,0,1,.83.05v1.16h-.42c-.56,0-.81.21-.81.71v.66h1.23v1.12h-1.23v6.42h-1.52Z" fill="#3b4351"/><path d="M518,104h0a2.16,2.16,0,0,1-1.93,1.07c-1.12,0-1.88-.51-1.88-2.46V97.29h1.51v5.41c0,.84.37,1.12,1,1.12a1.17,1.17,0,0,0,1.23-1.26V97.29h1.51v7.54H518Z" fill="#3b4351"/><path d="M521,94.83h1.51v10H521Z" fill="#3b4351"/><path d="M526.87,97.29h1.56l1.05,5.94h0l1.12-5.94h1.71l1.12,5.94h0l1-5.94H536l-1.72,7.54h-1.7L531.45,99h0l-1.08,5.86h-1.77Z" fill="#3b4351"/><path d="M541.75,103.26c0,.28.17.53.39.53a.54.54,0,0,0,.25,0v1a1.55,1.55,0,0,1-.74.18c-.67,0-1.23-.26-1.27-1h0a2,2,0,0,1-1.88,1.1c-1.22,0-2-.65-2-2.11a2.08,2.08,0,0,1,1.75-2.37l1.18-.32c.55-.16.88-.31.88-1s-.24-1.12-1-1.12c-1,0-1.14.72-1.14,1.44h-1.43c0-1.61.66-2.47,2.64-2.47,1.34,0,2.4.51,2.4,1.84Zm-1.43-2.41a11.23,11.23,0,0,1-1.68.7,1.25,1.25,0,0,0-.62,1.22c0,.63.31,1.13.94,1.13.91,0,1.36-.67,1.36-1.79Z" fill="#3b4351"/><path d="M543.29,97.29h1.51v1.18h0a1.85,1.85,0,0,1,1.75-1.37.89.89,0,0,1,.36.05v1.54a2.18,2.18,0,0,0-.63-.08c-.68,0-1.51.31-1.51,1.71v4.51h-1.51Z" fill="#3b4351"/><path d="M551,99.49v-.2c0-.6-.21-1.16-1-1.16-.6,0-1.08.27-1.08,1s.27.83,1.07,1.11l1,.34a2,2,0,0,1,1.64,2.17c0,1.61-1.19,2.29-2.7,2.29-1.91,0-2.48-.88-2.48-2.34v-.28h1.35v.24c0,.88.29,1.35,1.17,1.35s1.23-.42,1.23-1.11a1.1,1.1,0,0,0-.82-1.11l-1.23-.43a2,2,0,0,1-1.62-2.17c0-1.42,1-2.07,2.58-2.07,1.92,0,2.36,1.12,2.36,2.05v.34Z" fill="#3b4351"/><path d="M556.73,101.06c0-2.35.61-4,2.8-4s2.81,1.61,2.81,4-.72,4-2.81,4S556.73,103.41,556.73,101.06Zm2.8,2.84c1.1,0,1.3-.92,1.3-2.84,0-1.67-.2-2.84-1.3-2.84s-1.29,1.17-1.29,2.84C558.24,103,558.45,103.9,559.53,103.9Z" fill="#3b4351"/><path d="M563.5,97.29h1.43v.88h0a2.17,2.17,0,0,1,1.94-1.07c1.15,0,1.87.51,1.87,2v5.69h-1.51V99.66c0-1-.27-1.36-1-1.36-.62,0-1.2.46-1.2,1.47v5.06H563.5Z" fill="#3b4351"/><path d="M575.07,94.83h2l2.64,10h-1.67l-.62-2.45h-2.92l-.65,2.45h-1.67Zm2.13,6.27-1.15-4.93h0l-1.19,4.93Z" fill="#3b4351"/><path d="M583.59,99.49v-.2c0-.6-.21-1.16-1-1.16-.6,0-1.08.27-1.08,1s.27.83,1.07,1.11l1,.34a2,2,0,0,1,1.64,2.17c0,1.61-1.19,2.29-2.7,2.29-1.91,0-2.48-.88-2.48-2.34v-.28h1.34v.24c0,.88.3,1.35,1.18,1.35s1.23-.42,1.23-1.11a1.1,1.1,0,0,0-.82-1.11l-1.24-.43a2,2,0,0,1-1.61-2.17c0-1.42,1-2.07,2.58-2.07,1.92,0,2.35,1.12,2.35,2.05v.34Z" fill="#3b4351"/><path d="M589.56,99.49v-.2c0-.6-.21-1.16-1-1.16-.6,0-1.08.27-1.08,1s.27.83,1.07,1.11l1,.34a2,2,0,0,1,1.64,2.17c0,1.61-1.2,2.29-2.71,2.29-1.9,0-2.48-.88-2.48-2.34v-.28h1.35v.24c0,.88.29,1.35,1.17,1.35s1.24-.42,1.24-1.11a1.1,1.1,0,0,0-.83-1.11l-1.23-.43a2,2,0,0,1-1.61-2.17c0-1.42,1-2.07,2.57-2.07,1.92,0,2.36,1.12,2.36,2.05v.34Z" fill="#3b4351"/><path d="M593.28,97.29l1.3,5.66h0l1.21-5.66h1.58l-2.07,7.82c-.61,2.06-1.07,2.34-2.64,2.29a3,3,0,0,1-.6-.05v-1.21a1.65,1.65,0,0,0,.49.06c.52,0,.85-.1,1-.59l.2-.61-2.14-7.71Z" fill="#3b4351"/><path d="M598.24,97.29h1.51v1.18h0a1.85,1.85,0,0,1,1.75-1.37.89.89,0,0,1,.36.05v1.54a2.18,2.18,0,0,0-.63-.08c-.68,0-1.51.31-1.51,1.71v4.51h-1.51Z" fill="#3b4351"/><path d="M602.72,94.71h1.51v1.52h-1.51Zm0,2.58h1.51v7.54h-1.51Z" fill="#3b4351"/><path d="M610.7,103.26c0,.28.17.53.39.53a.54.54,0,0,0,.25,0v1a1.58,1.58,0,0,1-.74.18c-.67,0-1.23-.26-1.27-1h0a2,2,0,0,1-1.88,1.1c-1.22,0-2-.65-2-2.11a2.08,2.08,0,0,1,1.75-2.37l1.18-.32c.54-.16.88-.31.88-1s-.24-1.12-1-1.12c-1,0-1.15.72-1.15,1.44h-1.42c0-1.61.65-2.47,2.64-2.47,1.33,0,2.4.51,2.4,1.84Zm-1.43-2.41a11.23,11.23,0,0,1-1.68.7,1.23,1.23,0,0,0-.62,1.22c0,.63.31,1.13.94,1.13.91,0,1.36-.67,1.36-1.79Z" fill="#3b4351"/><path d="M612.39,103H614v1.85c0,1.12-.37,1.92-1.6,2.15v-.81a1,1,0,0,0,.7-1.13v-.21h-.7Z" fill="#3b4351"/><path d="M618.54,94.83h5.4v1.34h-3.81v2.77h3.59v1.35h-3.59v3.19h3.92v1.35h-5.51Z" fill="#3b4351"/><path d="M624.5,97.29h1V95.15h1.51v2.14h1.23v1.12h-1.23v4.5c0,.6.17.8.69.8a3.74,3.74,0,0,0,.54,0v1.12a5.17,5.17,0,0,1-1.22.12c-1,0-1.52-.29-1.52-1.82V98.41h-1Z" fill="#3b4351"/><path d="M629.06,94.83h1.52V98.1l0,0a2.13,2.13,0,0,1,1.85-1c1.15,0,1.87.51,1.87,2v5.69h-1.51V99.66c0-1-.28-1.36-1.05-1.36s-1.2.48-1.2,1.47v5.06h-1.52Z" fill="#3b4351"/><path d="M635.87,94.71h1.51v1.52h-1.51Zm0,2.58h1.51v7.54h-1.51Z" fill="#3b4351"/><path d="M638.61,101.06c0-2.35.62-4,2.8-4s2.82,1.61,2.82,4-.73,4-2.82,4S638.61,103.41,638.61,101.06Zm2.8,2.84c1.11,0,1.31-.92,1.31-2.84,0-1.67-.2-2.84-1.31-2.84s-1.29,1.17-1.29,2.84C640.12,103,640.33,103.9,641.41,103.9Z" fill="#3b4351"/><path d="M648.64,105a1.73,1.73,0,0,1-1.71-1.07h0v3.34h-1.51v-10h1.43v.93h0a1.79,1.79,0,0,1,1.7-1.12c1.72,0,2.42,1.47,2.42,4.06C651,104.32,649.69,105,648.64,105Zm-.55-6.72c-1,0-1.27,1-1.27,2.68,0,1.8.22,2.84,1.28,2.84.86,0,1.27-.65,1.27-2.73C649.37,99.38,649.16,98.3,648.09,98.3Z" fill="#3b4351"/><path d="M652.19,94.71h1.51v1.52h-1.51Zm0,2.58h1.51v7.54h-1.51Z" fill="#3b4351"/><path d="M660.17,103.26c0,.28.17.53.4.53a.57.57,0,0,0,.25,0v1a1.58,1.58,0,0,1-.74.18c-.68,0-1.24-.26-1.28-1h0a1.94,1.94,0,0,1-1.87,1.1c-1.22,0-2-.65-2-2.11a2.09,2.09,0,0,1,1.76-2.37l1.17-.32c.55-.16.89-.31.89-1s-.24-1.12-1-1.12c-1,0-1.15.72-1.15,1.44h-1.43c0-1.61.66-2.47,2.65-2.47,1.33,0,2.39.51,2.39,1.84Zm-1.42-2.41a10.92,10.92,0,0,1-1.69.7,1.24,1.24,0,0,0-.61,1.22c0,.63.31,1.13.94,1.13.91,0,1.36-.67,1.36-1.79Z" fill="#3b4351"/><path d="M670,103.26c0,.28.16.53.39.53a.57.57,0,0,0,.25,0v1a1.58,1.58,0,0,1-.74.18c-.67,0-1.24-.26-1.28-1h0a2,2,0,0,1-1.88,1.1c-1.22,0-2-.65-2-2.11a2.08,2.08,0,0,1,1.75-2.37l1.17-.32c.55-.16.89-.31.89-1s-.24-1.12-1-1.12c-1,0-1.15.72-1.15,1.44H665c0-1.61.66-2.47,2.65-2.47,1.33,0,2.4.51,2.4,1.84Zm-1.43-2.41a11.23,11.23,0,0,1-1.68.7,1.23,1.23,0,0,0-.62,1.22c0,.63.31,1.13.94,1.13.91,0,1.36-.67,1.36-1.79Z" fill="#3b4351"/><path d="M671.55,97.29H673v.88h0A2.17,2.17,0,0,1,675,97.1c1.15,0,1.87.51,1.87,2v5.69h-1.51V99.66c0-1-.26-1.36-1.05-1.36-.62,0-1.2.46-1.2,1.47v5.06h-1.52Z" fill="#3b4351"/><path d="M682.14,103.9h0a1.61,1.61,0,0,1-1.65,1.12c-1.75,0-2.47-1.48-2.47-4.06,0-3.35,1.18-3.86,2.33-3.86A1.75,1.75,0,0,1,682,98.17h0V94.83h1.51v10h-1.43Zm-1.37-5.6c-.86,0-1.18.7-1.18,2.73,0,1.71.21,2.79,1.27,2.79s1.28-1,1.28-2.68C682.14,99.34,681.94,98.3,680.77,98.3Z" fill="#3b4351"/><path d="M689.85,94.83h2l2.63,10h-1.67l-.61-2.45h-2.93l-.64,2.45H687ZM692,101.1l-1.15-4.93h0l-1.19,4.93Z" fill="#3b4351"/><path d="M695.13,97.29h1.51v1.18h0a1.87,1.87,0,0,1,1.75-1.37.89.89,0,0,1,.36.05v1.54a2.18,2.18,0,0,0-.63-.08c-.68,0-1.51.31-1.51,1.71v4.51h-1.51Z" fill="#3b4351"/><path d="M704.4,103.26c0,.28.17.53.39.53a.54.54,0,0,0,.25,0v1a1.55,1.55,0,0,1-.74.18c-.67,0-1.23-.26-1.27-1h0a2,2,0,0,1-1.88,1.1c-1.22,0-2-.65-2-2.11a2.08,2.08,0,0,1,1.75-2.37l1.18-.32c.54-.16.88-.31.88-1s-.24-1.12-1-1.12c-1,0-1.14.72-1.14,1.44h-1.43c0-1.61.65-2.47,2.64-2.47,1.33,0,2.4.51,2.4,1.84ZM703,100.85a11.23,11.23,0,0,1-1.68.7,1.23,1.23,0,0,0-.62,1.22c0,.63.31,1.13.94,1.13.91,0,1.36-.67,1.36-1.79Z" fill="#3b4351"/><path d="M705.94,94.83h1.51v3.34h0a1.74,1.74,0,0,1,1.71-1.07c1.14,0,2.32.51,2.32,3.86,0,2.59-.71,4.06-2.46,4.06a1.62,1.62,0,0,1-1.66-1.12h0v.93h-1.43Zm2.7,9c1.06,0,1.27-1.08,1.27-2.79,0-2-.32-2.73-1.17-2.73-1.18,0-1.37,1-1.37,2.84C707.37,102.77,707.6,103.82,708.64,103.82Z" fill="#3b4351"/><path d="M712.74,94.71h1.51v1.52h-1.51Zm0,2.58h1.51v7.54h-1.51Z" fill="#3b4351"/><path d="M720.72,103.26c0,.28.17.53.4.53a.57.57,0,0,0,.25,0v1a1.63,1.63,0,0,1-.75.18c-.67,0-1.23-.26-1.27-1h0a1.94,1.94,0,0,1-1.87,1.1c-1.22,0-2-.65-2-2.11a2.09,2.09,0,0,1,1.75-2.37l1.18-.32c.55-.16.88-.31.88-1s-.23-1.12-1-1.12c-1,0-1.15.72-1.15,1.44h-1.43c0-1.61.66-2.47,2.65-2.47,1.33,0,2.39.51,2.39,1.84Zm-1.43-2.41a10.81,10.81,0,0,1-1.68.7,1.24,1.24,0,0,0-.61,1.22c0,.63.31,1.13.94,1.13.91,0,1.35-.67,1.35-1.79Z" fill="#3b4351"/></g></g><g id="Ageans"><g id="Title"><g id="small-2" data-name="small"><path d="M169.21,33.67h5.41V35h-3.81v2.77h3.58v1.35h-3.58v3.19h3.92v1.35h-5.52Z" fill="#3b4351"/><path d="M180.79,42.1c0,.28.17.53.39.53a.54.54,0,0,0,.25,0v1a1.58,1.58,0,0,1-.74.18c-.67,0-1.23-.27-1.27-1h0a2,2,0,0,1-1.88,1.1c-1.22,0-2-.66-2-2.11a2.08,2.08,0,0,1,1.75-2.37l1.18-.32c.54-.16.88-.31.88-1s-.24-1.12-1-1.12c-1,0-1.15.72-1.15,1.44h-1.42c0-1.61.65-2.48,2.64-2.48,1.33,0,2.4.52,2.4,1.85Zm-1.43-2.41a12.39,12.39,0,0,1-1.68.7,1.23,1.23,0,0,0-.62,1.22c0,.63.31,1.13.94,1.13.91,0,1.36-.67,1.36-1.79Z" fill="#3b4351"/><path d="M182.33,36.13h1.51v1.18h0a1.86,1.86,0,0,1,1.75-1.38A.87.87,0,0,1,186,36v1.54a2.18,2.18,0,0,0-.63-.08c-.68,0-1.51.31-1.51,1.71v4.51h-1.51Z" fill="#3b4351"/><path d="M186.81,33.67h1.51v10h-1.51Z" fill="#3b4351"/><path d="M190.85,36.13l1.3,5.66h0l1.21-5.66H195L192.9,44c-.61,2.06-1.07,2.34-2.64,2.29a3,3,0,0,1-.6-.05V45a1.65,1.65,0,0,0,.49.06c.52,0,.86-.1,1-.59l.2-.62-2.14-7.7Z" fill="#3b4351"/><path d="M205.41,40.08v.21c0,1.81-.74,3.57-3.08,3.57-2.52,0-3.3-1.62-3.3-5.19s.78-5.2,3.32-5.2c2.84,0,3,2.09,3,3.14v.18h-1.6v-.17c0-.94-.28-2-1.43-1.95s-1.71.73-1.71,3.95.52,4,1.71,4c1.35,0,1.49-1.47,1.49-2.41v-.17Z" fill="#3b4351"/><path d="M206.43,36.13H208v1.18h0a1.88,1.88,0,0,1,1.76-1.38.87.87,0,0,1,.36.06v1.54a2.18,2.18,0,0,0-.63-.08c-.69,0-1.51.31-1.51,1.71v4.51h-1.52Z" fill="#3b4351"/><path d="M212.06,40.09v.44c0,1,.13,2.3,1.26,2.3s1.21-1.22,1.21-1.69H216a2.48,2.48,0,0,1-2.65,2.72c-1.23,0-2.76-.36-2.76-3.85,0-2,.43-4.08,2.79-4.08,2.1,0,2.66,1.28,2.66,3.37v.79Zm2.43-1v-.41c0-.95-.31-1.68-1.17-1.68s-1.26,1-1.26,1.93v.16Z" fill="#3b4351"/><path d="M216.57,36.13h1V34h1.51v2.14h1.23v1.12h-1.23v4.5c0,.6.17.8.68.8a2.64,2.64,0,0,0,.55,0v1.12a4.64,4.64,0,0,1-1.22.13c-1,0-1.52-.29-1.52-1.82V37.25h-1Z" fill="#3b4351"/><path d="M226.08,42.1c0,.28.17.53.39.53a.54.54,0,0,0,.25,0v1a1.58,1.58,0,0,1-.74.18c-.67,0-1.23-.27-1.28-1h0a2,2,0,0,1-1.88,1.1c-1.22,0-2-.66-2-2.11a2.08,2.08,0,0,1,1.75-2.37l1.18-.32c.54-.16.88-.31.88-1s-.24-1.12-1-1.12c-1,0-1.15.72-1.15,1.44H221c0-1.61.65-2.48,2.64-2.48,1.33,0,2.4.52,2.4,1.85Zm-1.43-2.41a12.39,12.39,0,0,1-1.68.7,1.23,1.23,0,0,0-.62,1.22c0,.63.31,1.13.94,1.13.91,0,1.36-.67,1.36-1.79Z" fill="#3b4351"/><path d="M227.62,36.13H229V37h.05A2.15,2.15,0,0,1,231,35.93c1.15,0,1.88.52,1.88,2v5.69h-1.52V38.5c0-1-.26-1.36-1-1.36-.61,0-1.2.46-1.2,1.47v5.06h-1.51Z" fill="#3b4351"/><path d="M237.6,38.33v-.2c0-.6-.21-1.16-1-1.16-.6,0-1.07.27-1.07,1s.26.83,1.06,1.11l1,.33a2,2,0,0,1,1.64,2.18c0,1.61-1.2,2.29-2.71,2.29-1.9,0-2.48-.88-2.48-2.34v-.28h1.35v.24c0,.88.29,1.35,1.17,1.35s1.24-.42,1.24-1.11a1.09,1.09,0,0,0-.83-1.11l-1.23-.43A2,2,0,0,1,234.1,38c0-1.42,1-2.08,2.57-2.08,1.92,0,2.36,1.13,2.36,2.06v.34Z" fill="#3b4351"/><path d="M247.52,42.74h0a1.62,1.62,0,0,1-1.66,1.12c-1.75,0-2.46-1.48-2.46-4.06,0-3.35,1.18-3.87,2.32-3.87A1.74,1.74,0,0,1,247.41,37h0V33.67H249v10h-1.43Zm-1.37-5.6c-.85,0-1.17.7-1.17,2.73,0,1.71.21,2.79,1.27,2.79s1.27-1,1.27-2.68C247.52,38.18,247.33,37.14,246.15,37.14Z" fill="#3b4351"/><path d="M250.41,36.13h1.51v1.18h0a1.86,1.86,0,0,1,1.75-1.38.87.87,0,0,1,.36.06v1.54a2.18,2.18,0,0,0-.63-.08c-.68,0-1.51.31-1.51,1.71v4.51h-1.51Z" fill="#3b4351"/><path d="M254.89,33.55h1.51v1.52h-1.51Zm0,2.58h1.51v7.54h-1.51Z" fill="#3b4351"/><path d="M257.29,36.13h1.63l1.32,5.94h0l1.19-5.94h1.61l-2,7.54h-1.77Z" fill="#3b4351"/><path d="M265.19,40.09v.44c0,1,.13,2.3,1.26,2.3s1.21-1.22,1.21-1.69h1.42a2.47,2.47,0,0,1-2.64,2.72c-1.24,0-2.76-.36-2.76-3.85,0-2,.43-4.08,2.79-4.08,2.1,0,2.66,1.28,2.66,3.37v.79Zm2.42-1v-.41c0-.95-.3-1.68-1.16-1.68s-1.26,1-1.26,1.93v.16Z" fill="#3b4351"/><path d="M270.37,36.13h1.43V37h0a2.17,2.17,0,0,1,1.93-1.08c1.15,0,1.88.52,1.88,2v5.69h-1.51V38.5c0-1-.27-1.36-1.05-1.36-.62,0-1.21.46-1.21,1.47v5.06h-1.51Z" fill="#3b4351"/><path d="M280.53,33.55h1.52v1.52h-1.52Zm0,2.58h1.52v7.54h-1.52Z" fill="#3b4351"/><path d="M283.57,36.13H285V37h0A2.18,2.18,0,0,1,287,35.93c1.14,0,1.87.52,1.87,2v5.69h-1.51V38.5c0-1-.27-1.36-1-1.36-.62,0-1.21.46-1.21,1.47v5.06h-1.51Z" fill="#3b4351"/><path d="M289.63,36.13h1V34h1.51v2.14h1.23v1.12h-1.23v4.5c0,.6.17.8.69.8a2.61,2.61,0,0,0,.54,0v1.12a4.56,4.56,0,0,1-1.21.13c-1,0-1.53-.29-1.53-1.82V37.25h-1Z" fill="#3b4351"/><path d="M293.9,39.9c0-2.35.62-4,2.8-4s2.82,1.62,2.82,4-.73,4-2.82,4S293.9,42.25,293.9,39.9Zm2.8,2.84c1.11,0,1.31-.92,1.31-2.84,0-1.67-.2-2.84-1.31-2.84s-1.28,1.17-1.28,2.84C295.42,41.82,295.63,42.74,296.7,42.74Z" fill="#3b4351"/><path d="M220.93,65.57v.25c0,1.22.55,1.84,1.64,1.84a1.44,1.44,0,0,0,1.51-1.46,1.68,1.68,0,0,0-1.43-1.78L221.56,64c-1.46-.56-2.09-1.31-2.09-2.74,0-1.82,1.25-2.83,3.11-2.83,2.57,0,2.83,1.6,2.83,2.63v.23h-1.59v-.21c0-.91-.4-1.45-1.4-1.45a1.28,1.28,0,0,0-1.35,1.45c0,.85.44,1.29,1.5,1.69l1.08.39a2.55,2.55,0,0,1,2,2.65c0,2.13-1.29,3-3.31,3a2.74,2.74,0,0,1-3-3v-.24Z" fill="#3b4351"/><path d="M227.87,61.13l1.31,5.66h0l1.2-5.66H232L229.92,69c-.6,2.06-1.06,2.34-2.63,2.29a3.14,3.14,0,0,1-.61,0V70a1.69,1.69,0,0,0,.49.06c.52,0,.86-.1,1-.59l.19-.62-2.14-7.7Z" fill="#3b4351"/><path d="M232.83,61.13h1.51v1.18h0a1.88,1.88,0,0,1,1.75-1.38.92.92,0,0,1,.37.06v1.54a2.3,2.3,0,0,0-.63-.08c-.69,0-1.52.31-1.52,1.71v4.51h-1.51Z" fill="#3b4351"/><path d="M237.31,58.55h1.51v1.52h-1.51Zm0,2.58h1.51v7.54h-1.51Z" fill="#3b4351"/><path d="M245.29,67.1c0,.28.17.53.39.53a.59.59,0,0,0,.26,0v1a1.63,1.63,0,0,1-.75.18c-.67,0-1.23-.27-1.27-1h0a1.94,1.94,0,0,1-1.87,1.1c-1.22,0-2-.66-2-2.11a2.09,2.09,0,0,1,1.75-2.37l1.18-.32c.55-.16.88-.31.88-1s-.23-1.12-1-1.12c-1,0-1.15.72-1.15,1.44h-1.43c0-1.61.66-2.48,2.65-2.48,1.33,0,2.39.52,2.39,1.85Zm-1.43-2.41a12.39,12.39,0,0,1-1.68.7,1.24,1.24,0,0,0-.61,1.22c0,.63.3,1.13.94,1.13.91,0,1.35-.67,1.35-1.79Z" fill="#3b4351"/><path d="M247,66.82h1.6v1.85H247Z" fill="#3b4351"/><path d="M185,97.34h-2.38V96h6.32v1.34H186.6V106H185Z" fill="#3b4351"/><path d="M189.75,96h1.51v3.28l0,0a2.18,2.18,0,0,1,1.85-1c1.15,0,1.88.52,1.88,2V106h-1.51v-5.17c0-1-.28-1.36-1.05-1.36-.62,0-1.21.48-1.21,1.47V106h-1.51Z" fill="#3b4351"/><path d="M197.78,102.43v.43c0,1,.13,2.3,1.27,2.3s1.2-1.22,1.2-1.68h1.43A2.48,2.48,0,0,1,199,106.2c-1.23,0-2.76-.37-2.76-3.86,0-2,.44-4.07,2.79-4.07,2.1,0,2.66,1.27,2.66,3.36v.8Zm2.43-1V101c0-1-.31-1.69-1.16-1.69s-1.27,1-1.27,1.94v.15Z" fill="#3b4351"/><path d="M206.42,96h3.17c1.92,0,2.76,1.2,2.76,2.91a2.72,2.72,0,0,1-2.93,3H208V106h-1.6Zm1.6,4.66h1.13a1.5,1.5,0,0,0,1.6-1.72c0-1.08-.43-1.74-1.71-1.74h-1Z" fill="#3b4351"/><path d="M213.32,96h1.52v3.28l0,0a2.15,2.15,0,0,1,1.85-1c1.15,0,1.87.52,1.87,2V106h-1.51v-5.17c0-1-.28-1.36-1.05-1.36-.62,0-1.2.48-1.2,1.47V106h-1.52Z" fill="#3b4351"/><path d="M220.13,95.89h1.51V97.4h-1.51Zm0,2.57h1.51V106h-1.51Z" fill="#3b4351"/><path d="M223.24,96h1.51v10h-1.51Z" fill="#3b4351"/><path d="M226.34,95.89h1.52V97.4h-1.52Zm0,2.57h1.52V106h-1.52Z" fill="#3b4351"/><path d="M232.63,100.66v-.19c0-.61-.21-1.17-1-1.17-.61,0-1.08.27-1.08,1s.26.82,1.06,1.1l1,.34a2,2,0,0,1,1.64,2.17c0,1.61-1.19,2.3-2.71,2.3-1.9,0-2.48-.89-2.48-2.34v-.28h1.35v.23c0,.89.29,1.35,1.18,1.35s1.23-.42,1.23-1.11A1.09,1.09,0,0,0,232,103l-1.23-.44a2,2,0,0,1-1.61-2.17c0-1.41,1-2.07,2.58-2.07,1.91,0,2.35,1.12,2.35,2.06v.33Z" fill="#3b4351"/><path d="M234.67,98.46h1V96.32h1.51v2.14h1.23v1.12h-1.23v4.5c0,.6.17.8.69.8a2.7,2.7,0,0,0,.54,0V106a5.08,5.08,0,0,1-1.21.12c-1,0-1.53-.29-1.53-1.82V99.58h-1Z" fill="#3b4351"/><path d="M239.31,95.89h1.51V97.4h-1.51Zm0,2.57h1.51V106h-1.51Z" fill="#3b4351"/><path d="M242.34,98.46h1.43v.89h0a2.13,2.13,0,0,1,1.93-1.08c1.15,0,1.88.52,1.88,2V106h-1.52v-5.17c0-1-.26-1.36-1.05-1.36-.61,0-1.2.46-1.2,1.47V106h-1.52Z" fill="#3b4351"/><path d="M250.38,102.43v.43c0,1,.13,2.3,1.26,2.3s1.21-1.22,1.21-1.68h1.43a2.48,2.48,0,0,1-2.65,2.72c-1.24,0-2.76-.37-2.76-3.86,0-2,.43-4.07,2.79-4.07,2.1,0,2.66,1.27,2.66,3.36v.8Zm2.42-1V101c0-1-.3-1.69-1.16-1.69s-1.26,1-1.26,1.94v.15Z" fill="#3b4351"/><path d="M258.81,100.66v-.19c0-.61-.21-1.17-1-1.17-.61,0-1.08.27-1.08,1s.26.82,1.06,1.1l1,.34a2,2,0,0,1,1.64,2.17c0,1.61-1.19,2.3-2.71,2.3-1.9,0-2.48-.89-2.48-2.34v-.28h1.35v.23c0,.89.29,1.35,1.18,1.35s1.23-.42,1.23-1.11a1.09,1.09,0,0,0-.83-1.1l-1.23-.44a2,2,0,0,1-1.61-2.17c0-1.41,1-2.07,2.58-2.07,1.91,0,2.35,1.12,2.35,2.06v.33Z" fill="#3b4351"/></g></g></g></g></svg>