<svg xmlns="http://www.w3.org/2000/svg" viewBox="0 0 1847.91 114"><title>bc1350text</title><g id="YEARS"><g id="Right"><path d="M1787.21,105.59V92.23h-3.82V90.3h.29c1.77,0,3.79-.44,4.34-2.75v-.37h2.16v18.41Z"/><path d="M1797.93,100.47c0,1.61.54,3.41,2.52,3.41s2.57-1.48,2.57-3.3c0-2.29-.73-3.44-3-3.44h-1.14V95.06H1800c2,0,2.65-1.35,2.65-3.14,0-1.33-.59-2.66-2.13-2.66-1.82,0-2.34,1.57-2.34,3.23h-2.81c0-3.46,1.77-5.31,5.31-5.31,2.21,0,4.94,1,4.94,4.71a3.9,3.9,0,0,1-2.94,4V96c1.9.18,3.36,1.66,3.36,4.26,0,3.67-1.8,5.7-5.62,5.7-3.33,0-5.25-1.64-5.25-5.49Z"/><path d="M1807.62,100.63h2.81v.49a2.35,2.35,0,0,0,2.42,2.6c2.08,0,2.63-2,2.63-4.18s-.58-3.93-2.48-3.93a2.35,2.35,0,0,0-2.41,1.69l-2.63-.1.91-9.65h8.87v2.37h-6.66l-.6,4.83,0,0a4.08,4.08,0,0,1,3.1-1.43c3.85,0,4.81,3.25,4.81,6.09,0,3.69-1.69,6.5-5.67,6.5-3.3,0-5.15-1.69-5.15-4.94Z"/><path d="M1825.51,87.18c3.54,0,5.51,2.21,5.51,9.39s-2,9.39-5.51,9.39-5.51-2.21-5.51-9.39S1822,87.18,1825.51,87.18Zm0,16.7c2,0,2.55-2,2.55-7.31s-.55-7.31-2.55-7.31-2.55,2-2.55,7.31S1823.51,103.88,1825.51,103.88Z"/></g><g id="left"><path d="M17.46,109.19V95.83H13.64V93.9h.29c1.77,0,3.79-.44,4.34-2.75v-.37h2.16v18.41Z"/><path d="M28.18,104.07c0,1.61.54,3.41,2.52,3.41s2.57-1.49,2.57-3.31c0-2.28-.73-3.43-3-3.43H29.14V98.66H30.2c2,0,2.66-1.35,2.66-3.14,0-1.33-.6-2.66-2.14-2.66-1.82,0-2.34,1.56-2.34,3.23h-2.8c0-3.46,1.76-5.31,5.3-5.31,2.21,0,4.94,1,4.94,4.71a3.9,3.9,0,0,1-2.94,4v.08c1.9.18,3.36,1.66,3.36,4.26,0,3.67-1.8,5.7-5.62,5.7-3.33,0-5.25-1.64-5.25-5.49Z"/><path d="M37.87,104.23h2.81v.49a2.35,2.35,0,0,0,2.42,2.6c2.08,0,2.63-2,2.63-4.19s-.58-3.92-2.48-3.92a2.34,2.34,0,0,0-2.41,1.69l-2.63-.11.91-9.64H48v2.36H41.33l-.6,4.84.06.05A4,4,0,0,1,43.88,97c3.85,0,4.81,3.25,4.81,6.09,0,3.69-1.69,6.5-5.67,6.5-3.3,0-5.15-1.69-5.15-4.94Z"/><path d="M55.76,90.78c3.54,0,5.51,2.21,5.51,9.39s-2,9.39-5.51,9.39-5.51-2.21-5.51-9.39S52.22,90.78,55.76,90.78Zm0,16.7c2,0,2.55-2,2.55-7.31s-.55-7.31-2.55-7.31-2.55,2-2.55,7.31S53.76,107.48,55.76,107.48Z"/></g></g><g id="Text"><g id="Chinese"><path d="M1665.28,93.58V94c0,3.16-1.3,6.25-5.39,6.25-4.41,0-5.78-2.84-5.78-9.09s1.37-9.09,5.8-9.09c5,0,5.27,3.65,5.27,5.49v.31h-2.79v-.29c0-1.64-.49-3.48-2.5-3.41s-3,1.28-3,6.91.91,7.06,3,7.06c2.35,0,2.6-2.57,2.6-4.21v-.3Z" fill="#3b4351"/><path d="M1667.24,82.36H1670v7h5.15v-7H1678v17.5h-2.79V91.72H1670v8.14h-2.79Z" fill="#3b4351"/><path d="M1680.74,82.36h2.79v17.5h-2.79Z" fill="#3b4351"/><path d="M1686.3,82.36h3.4l5.08,13h0v-13h2.64v17.5h-3.4L1689,86.48h0V99.86h-2.64Z" fill="#3b4351"/><path d="M1700.36,82.36h9.46v2.35h-6.67v4.85h6.28v2.36h-6.28V97.5H1710v2.36h-9.66Z" fill="#3b4351"/><path d="M1714.3,94.44v.44c0,2.13,1,3.21,2.87,3.21a2.5,2.5,0,0,0,2.64-2.55c0-1.83-.93-2.64-2.5-3.11l-1.91-.66c-2.55-1-3.65-2.3-3.65-4.8,0-3.19,2.18-5,5.44-5,4.49,0,5,2.79,5,4.6V87h-2.79v-.37c0-1.6-.69-2.53-2.45-2.53a2.24,2.24,0,0,0-2.35,2.53c0,1.49.76,2.25,2.62,3l1.89.69c2.47.88,3.55,2.2,3.55,4.63,0,3.73-2.26,5.27-5.79,5.27-4.33,0-5.31-2.89-5.31-5.34v-.42Z" fill="#3b4351"/><path d="M1724.86,82.36h9.46v2.35h-6.67v4.85h6.28v2.36h-6.28V97.5h6.87v2.36h-9.66Z" fill="#3b4351"/></g><g id="Ageans"><g id="Title"><g id="small-2" data-name="small"><path d="M197.58,5.5h2.49l1.76,7.41h0L203.6,5.5H206v10h-1.52V7.18h0l-2,8.32h-1.35l-2-8.32h0V15.5h-1.51Z"/><path d="M208.59,8l1.31,5.66h0L211.13,8h1.58l-2.07,7.82c-.6,2.06-1.06,2.34-2.63,2.3a3.15,3.15,0,0,1-.61-.06v-1.2a2.09,2.09,0,0,0,.49.05c.52,0,.86-.1,1-.59l.19-.61L207,8Z"/><path d="M218.63,12.75c-.11,1.81-.7,2.95-2.57,2.95-2.19,0-2.8-1.61-2.8-4s.61-4,2.8-4a2.43,2.43,0,0,1,2.59,2.7h-1.51c0-.7-.19-1.62-1.08-1.58-1.08,0-1.29,1.17-1.29,2.84s.21,2.85,1.29,2.85c.84,0,1.15-.69,1.15-1.83Z"/><path d="M221.07,11.93v.43c0,1,.12,2.3,1.26,2.3s1.2-1.22,1.2-1.68H225a2.48,2.48,0,0,1-2.64,2.72c-1.24,0-2.76-.37-2.76-3.86,0-2,.43-4.07,2.78-4.07,2.1,0,2.66,1.27,2.66,3.36v.8Zm2.42-1v-.4c0-1-.31-1.69-1.16-1.69s-1.26,1-1.26,1.94v.15Z"/><path d="M226.25,8h1.43v.89h0a2.15,2.15,0,0,1,1.93-1.08c1.15,0,1.88.52,1.88,2V15.5H230V10.33c0-1-.27-1.36-1.05-1.36-.62,0-1.21.46-1.21,1.47V15.5h-1.51Z"/><path d="M237.93,13.93c0,.28.16.53.39.53a.57.57,0,0,0,.25,0v1a1.58,1.58,0,0,1-.74.18c-.67,0-1.23-.26-1.28-1h0a2,2,0,0,1-1.88,1.11c-1.22,0-2-.66-2-2.12a2.08,2.08,0,0,1,1.75-2.37l1.18-.32c.54-.15.88-.31.88-1s-.24-1.12-1-1.12c-1,0-1.15.72-1.15,1.45h-1.43c0-1.61.66-2.48,2.65-2.48,1.33,0,2.4.52,2.4,1.85Zm-1.43-2.41a11.23,11.23,0,0,1-1.68.7,1.23,1.23,0,0,0-.62,1.22c0,.63.31,1.14.94,1.14.91,0,1.36-.68,1.36-1.8Z"/><path d="M240.77,11.93v.43c0,1,.12,2.3,1.26,2.3s1.2-1.22,1.2-1.68h1.43A2.48,2.48,0,0,1,242,15.7c-1.23,0-2.76-.37-2.76-3.86,0-2,.44-4.07,2.79-4.07,2.1,0,2.66,1.27,2.66,3.36v.8Zm2.42-1v-.4c0-1-.31-1.69-1.16-1.69s-1.26,1-1.26,1.94v.15Z"/><path d="M254.25,13.93c0,.28.17.53.39.53a.54.54,0,0,0,.25,0v1a1.55,1.55,0,0,1-.74.18c-.67,0-1.23-.26-1.27-1h0A2,2,0,0,1,251,15.7c-1.22,0-2-.66-2-2.12a2.08,2.08,0,0,1,1.75-2.37l1.18-.32c.55-.15.88-.31.88-1s-.24-1.12-1-1.12c-1,0-1.14.72-1.14,1.45h-1.43c0-1.61.66-2.48,2.64-2.48,1.34,0,2.4.52,2.4,1.85Zm-1.43-2.41a11.23,11.23,0,0,1-1.68.7,1.25,1.25,0,0,0-.62,1.22c0,.63.31,1.14.94,1.14.91,0,1.36-.68,1.36-1.8Z"/><path d="M255.79,8h1.43v.89h0a2.15,2.15,0,0,1,1.93-1.08c1.15,0,1.88.52,1.88,2V15.5h-1.51V10.33c0-1-.27-1.36-1.06-1.36-.61,0-1.2.46-1.2,1.47V15.5h-1.51Z"/><path d="M266.37,14.58h0a1.62,1.62,0,0,1-1.66,1.12c-1.75,0-2.46-1.49-2.46-4.07,0-3.34,1.17-3.86,2.32-3.86a1.73,1.73,0,0,1,1.71,1.08h0V5.5h1.51v10h-1.43ZM265,9c-.85,0-1.18.7-1.18,2.73,0,1.71.21,2.79,1.28,2.79s1.27-1.05,1.27-2.67C266.37,10,266.18,9,265,9Z"/><path d="M273.83,6.84h-2.38V5.5h6.32V6.84h-2.34V15.5h-1.6Z"/><path d="M278.55,8l1.3,5.66h0L281.09,8h1.58l-2.07,7.82c-.61,2.06-1.07,2.34-2.64,2.3a3.05,3.05,0,0,1-.6-.06v-1.2a2,2,0,0,0,.49.05c.52,0,.86-.1,1-.59l.2-.61L276.93,8Z"/><path d="M283.51,8H285V9.14h0a1.85,1.85,0,0,1,1.75-1.37.89.89,0,0,1,.36.05V9.36a2.18,2.18,0,0,0-.63-.08c-.68,0-1.51.31-1.51,1.71V15.5h-1.51Z"/><path d="M288.06,8h1.43v.89h0a2.15,2.15,0,0,1,1.93-1.08c1.15,0,1.88.52,1.88,2V15.5h-1.51V10.33c0-1-.27-1.36-1.06-1.36-.61,0-1.2.46-1.2,1.47V15.5h-1.51Z"/><path d="M298,10.16V10c0-.61-.21-1.17-1-1.17-.61,0-1.08.27-1.08,1s.26.82,1.06,1.1l1,.34a2,2,0,0,1,1.64,2.17c0,1.61-1.19,2.3-2.71,2.3-1.9,0-2.48-.89-2.48-2.34v-.28h1.35v.23c0,.89.29,1.35,1.18,1.35s1.23-.42,1.23-1.11a1.09,1.09,0,0,0-.83-1.1L296.15,12a2,2,0,0,1-1.61-2.17c0-1.41,1-2.07,2.58-2.07,1.92,0,2.35,1.12,2.35,2.06v.33Z"/></g><g id="large-2" data-name="large"><path d="M196.67,42.24h3.58l4.61,17.5h-2.92l-1.07-4.29h-5.13l-1.12,4.29H191.7Zm3.73,11-2-8.62h0l-2.08,8.62Z"/><path d="M206.08,42.24h9.46V44.6h-6.66v4.85h6.27V51.8h-6.27v5.59h6.86v2.35h-9.66Z"/><path d="M226.52,57.71h-.05a3.64,3.64,0,0,1-3.83,2.37c-3.82,0-5.19-2.84-5.19-9.09s1.76-9.09,5.81-9.09A4.77,4.77,0,0,1,228.38,47v.32h-2.65v-.42c0-1.3-.54-2.84-2.45-2.84s-3,1.32-3,6.91.93,7.06,2.82,7.06c2.13,0,2.92-1.52,2.92-5.35H223v-2.1h5.58v9.21h-2.1Z"/><path d="M231,42.24h9.46V44.6h-6.66v4.85h6.27V51.8h-6.27v5.59h6.86v2.35H231Z"/><path d="M246.11,42.24h3.58l4.61,17.5h-2.92l-1.07-4.29h-5.13l-1.12,4.29h-2.92Zm3.73,11-2-8.62h-.05l-2.08,8.62Z"/><path d="M255.52,42.24h3.41l5.07,13h.05v-13h2.65v17.5h-3.41l-5.07-13.38h-.05V59.74h-2.65Z"/><path d="M271.74,54.33v.44c0,2.13,1,3.21,2.87,3.21a2.51,2.51,0,0,0,2.64-2.55,2.93,2.93,0,0,0-2.49-3.11l-1.92-.67c-2.55-1-3.65-2.3-3.65-4.8,0-3.18,2.18-5,5.44-5,4.49,0,4.95,2.79,4.95,4.61v.39h-2.79v-.37c0-1.59-.69-2.52-2.45-2.52A2.23,2.23,0,0,0,272,46.53c0,1.5.76,2.26,2.62,3l1.89.68c2.47.89,3.55,2.21,3.55,4.64,0,3.72-2.26,5.26-5.78,5.26-4.34,0-5.32-2.89-5.32-5.34v-.41Z"/><path d="M167.12,75.83h4.36l3.09,13h.05l3-13h4.26v17.5h-2.65V78.77h0L175.7,93.33h-2.36l-3.52-14.56h0V93.33h-2.65Z"/><path d="M186.4,80.15l2.28,9.9h0l2.11-9.9h2.77L190,93.82c-1,3.6-1.86,4.09-4.61,4a5.33,5.33,0,0,1-1.05-.1V95.63a3.11,3.11,0,0,0,.86.1c.9,0,1.49-.17,1.78-1l.35-1.08-3.75-13.47Z"/><path d="M204,88.53c-.2,3.16-1.23,5.14-4.51,5.14-3.82,0-4.9-2.82-4.9-6.93s1.08-6.94,4.9-6.94S204,82.91,204,84.53h-2.64c0-1.22-.32-2.84-1.89-2.77-1.89,0-2.25,2.06-2.25,5s.36,5,2.25,5c1.47,0,2-1.2,2-3.18Z"/><path d="M208.23,87.08v.76c0,1.76.22,4,2.21,4s2.1-2.13,2.1-2.94H215c0,3-1.76,4.75-4.63,4.75-2.16,0-4.83-.63-4.83-6.74,0-3.45.76-7.13,4.88-7.13,3.68,0,4.66,2.23,4.66,5.88v1.4Zm4.24-1.81v-.71c0-1.67-.54-2.94-2-2.94-1.67,0-2.21,1.66-2.21,3.38v.27Z"/><path d="M217.29,80.15h2.5v1.54h.08a3.77,3.77,0,0,1,3.38-1.89c2,0,3.28.91,3.28,3.58v10h-2.64v-9c0-1.77-.47-2.38-1.84-2.38-1.08,0-2.11.81-2.11,2.57v8.85h-2.65Z"/><path d="M237.73,90.58c0,.5.29.94.68.94a1,1,0,0,0,.45-.08v1.72a2.86,2.86,0,0,1-1.3.32c-1.18,0-2.16-.47-2.23-1.74h-.05A3.41,3.41,0,0,1,232,93.67c-2.13,0-3.43-1.15-3.43-3.7,0-2.94,1.3-3.55,3.07-4.14l2.06-.56c.95-.27,1.54-.54,1.54-1.69s-.42-2-1.81-2c-1.77,0-2,1.25-2,2.52h-2.5c0-2.82,1.15-4.34,4.63-4.34,2.33,0,4.19.91,4.19,3.24Zm-2.5-4.21a21.71,21.71,0,0,1-2.94,1.23,2.16,2.16,0,0,0-1.08,2.13c0,1.1.54,2,1.64,2,1.6,0,2.38-1.17,2.38-3.13Z"/><path d="M242.7,87.08v.76c0,1.76.22,4,2.21,4s2.1-2.13,2.1-2.94h2.5c0,3-1.76,4.75-4.63,4.75-2.15,0-4.83-.63-4.83-6.74,0-3.45.76-7.13,4.88-7.13,3.68,0,4.66,2.23,4.66,5.88v1.4Zm4.24-1.81v-.71c0-1.67-.54-2.94-2-2.94-1.67,0-2.21,1.66-2.21,3.38v.27Z"/><path d="M260.42,90.58c0,.5.29.94.68.94a1,1,0,0,0,.44-.08v1.72a2.83,2.83,0,0,1-1.3.32c-1.17,0-2.15-.47-2.23-1.74H258a3.39,3.39,0,0,1-3.28,1.93c-2.13,0-3.43-1.15-3.43-3.7,0-2.94,1.3-3.55,3.06-4.14l2.06-.56c1-.27,1.55-.54,1.55-1.69s-.42-2-1.82-2c-1.76,0-2,1.25-2,2.52h-2.5c0-2.82,1.16-4.34,4.64-4.34,2.32,0,4.19.91,4.19,3.24Zm-2.5-4.21A22.26,22.26,0,0,1,255,87.6a2.16,2.16,0,0,0-1.08,2.13c0,1.1.54,2,1.64,2,1.59,0,2.38-1.17,2.38-3.13Z"/><path d="M263.11,80.15h2.5v1.54h.07a3.77,3.77,0,0,1,3.38-1.89c2,0,3.29.91,3.29,3.58v10H269.7v-9c0-1.77-.47-2.38-1.84-2.38-1.08,0-2.11.81-2.11,2.57v8.85h-2.64Z"/><path d="M283.35,75.83h3.57l4.61,17.5h-2.92L287.54,89h-5.13l-1.12,4.29h-2.92Zm3.72,11-2-8.62H285l-2.08,8.62Z"/><path d="M295.23,94.46A1.72,1.72,0,0,0,297.14,96a2.18,2.18,0,0,0,2.23-2.47V91.42h-.05a3.19,3.19,0,0,1-3,1.81c-3.06,0-3.94-3-3.94-6.64,0-2.89.44-6.79,4.19-6.79a2.93,2.93,0,0,1,2.89,2h0V80.15H302V92.69c0,3.21-1.38,5.15-4.93,5.15-3.92,0-4.36-2.3-4.36-3.38Zm1.86-3.34c2.06,0,2.28-2.59,2.28-4.68s-.27-4.53-2.11-4.53-2.23,2-2.23,4.41C295,88.58,295.13,91.12,297.09,91.12Z"/><path d="M306.64,87.08v.76c0,1.76.23,4,2.21,4S311,89.73,311,88.92h2.5c0,3-1.77,4.75-4.63,4.75-2.16,0-4.83-.63-4.83-6.74,0-3.45.76-7.13,4.87-7.13,3.68,0,4.66,2.23,4.66,5.88v1.4Zm4.24-1.81v-.71c0-1.67-.54-2.94-2-2.94-1.67,0-2.21,1.66-2.21,3.38v.27Z"/></g></g></g></g></svg>