<svg xmlns="http://www.w3.org/2000/svg" viewBox="0 0 1847.91 114"><title>bc1400text</title><g id="YEARS"><g id="Right"><path d="M1787.21,104.93V91.56h-3.82V89.64h.29c1.77,0,3.79-.44,4.34-2.76v-.36h2.16v18.41Z"/><path d="M1794.86,98.24l6.37-11.72h3V98.43h2v2.36h-2v4.14h-2.81v-4.14h-6.57Zm6.57-7.41h0l-4.13,7.6h4.18Z"/><path d="M1813,86.52c3.54,0,5.51,2.21,5.51,9.38s-2,9.39-5.51,9.39-5.51-2.21-5.51-9.39S1809.49,86.52,1813,86.52Zm0,16.69c2,0,2.55-2,2.55-7.31s-.55-7.3-2.55-7.3-2.55,2-2.55,7.3S1811,103.21,1813,103.21Z"/><path d="M1825.51,86.52c3.54,0,5.51,2.21,5.51,9.38s-2,9.39-5.51,9.39-5.51-2.21-5.51-9.39S1822,86.52,1825.51,86.52Zm0,16.69c2,0,2.55-2,2.55-7.31s-.55-7.3-2.55-7.3-2.55,2-2.55,7.3S1823.51,103.21,1825.51,103.21Z"/></g><g id="left"><path d="M17.46,108.53V95.16H13.64V93.24h.29c1.77,0,3.79-.45,4.34-2.76v-.36h2.16v18.41Z"/><path d="M25.11,101.84l6.37-11.72h3V102h2v2.36h-2v4.14h-2.8v-4.14H25.11Zm6.58-7.41h-.06L27.5,102h4.19Z"/><path d="M43.28,90.12c3.54,0,5.51,2.21,5.51,9.38s-2,9.39-5.51,9.39-5.51-2.21-5.51-9.39S39.75,90.12,43.28,90.12Zm0,16.69c2,0,2.55-2,2.55-7.31s-.55-7.3-2.55-7.3-2.55,2-2.55,7.3S41.28,106.81,43.28,106.81Z"/><path d="M55.76,90.12c3.54,0,5.51,2.21,5.51,9.38s-2,9.39-5.51,9.39-5.51-2.21-5.51-9.39S52.22,90.12,55.76,90.12Zm0,16.69c2,0,2.55-2,2.55-7.31s-.55-7.3-2.55-7.3-2.55,2-2.55,7.3S53.76,106.81,55.76,106.81Z"/></g></g><g id="Text"><g id="Indians"><path d="M1359.34,83.5h2.8V101h-2.8Z" fill="#3b4351"/><path d="M1364.91,83.5h3.4l5.07,13h0v-13h2.65V101h-3.41l-5.07-13.38h0V101h-2.64Z" fill="#3b4351"/><path d="M1379,83.5h5c5.49,0,6.18,3.57,6.18,8.74s-.69,8.75-6.18,8.75h-5Zm2.79,15.39h2.3c2.31,0,3.26-1.52,3.26-6.65,0-4.92-.83-6.64-3.26-6.64h-2.3Z" fill="#3b4351"/><path d="M1392.47,83.5h2.79V101h-2.79Z" fill="#3b4351"/><path d="M1401.34,83.5h3.57l4.61,17.49h-2.91l-1.08-4.29h-5.12l-1.13,4.29h-2.92Zm3.72,11-2-8.62h0l-2.08,8.62Z" fill="#3b4351"/><path d="M1410.74,83.5h3.41l5.07,13h0v-13h2.65V101h-3.41l-5.07-13.38h0V101h-2.65Z" fill="#3b4351"/><path d="M1427,95.58V96c0,2.13,1,3.21,2.87,3.21a2.51,2.51,0,0,0,2.65-2.55c0-1.84-.93-2.65-2.5-3.11l-1.91-.66c-2.55-1-3.66-2.31-3.66-4.81,0-3.18,2.19-4.95,5.44-4.95,4.49,0,5,2.8,5,4.61v.39H1432v-.37c0-1.59-.68-2.52-2.45-2.52a2.23,2.23,0,0,0-2.35,2.52c0,1.5.76,2.26,2.62,3l1.89.69c2.47.88,3.55,2.2,3.55,4.63,0,3.72-2.25,5.27-5.78,5.27-4.34,0-5.32-2.9-5.32-5.35v-.41Z" fill="#3b4351"/><path d="M1448.3,83.5a20.65,20.65,0,0,0-2.79,11,21.38,21.38,0,0,0,2.79,11h-1.88a18.67,18.67,0,0,1,0-22Z" fill="#3b4351"/><path d="M1449.75,83.5h2.79v7h5.15v-7h2.79V101h-2.79V92.86h-5.15V101h-2.79Z" fill="#3b4351"/><path d="M1463.32,83.3H1466V86h-2.65Zm0,4.51H1466V101h-2.65Z" fill="#3b4351"/><path d="M1468.64,87.81h2.5v1.54h.07a3.78,3.78,0,0,1,3.38-1.88c2,0,3.28.9,3.28,3.57V101h-2.64V92c0-1.76-.47-2.38-1.84-2.38-1.08,0-2.11.81-2.11,2.58V101h-2.64Z" fill="#3b4351"/><path d="M1487.16,99.37h-.05a2.82,2.82,0,0,1-2.89,2c-3.06,0-4.31-2.6-4.31-7.11,0-5.86,2-6.76,4.06-6.76a3,3,0,0,1,3,1.88h0V83.5h2.65V101h-2.5Zm-2.4-9.8c-1.5,0-2.06,1.23-2.06,4.78,0,3,.37,4.88,2.23,4.88s2.23-1.84,2.23-4.68C1487.16,91.39,1486.82,89.57,1484.76,89.57Z" fill="#3b4351"/><path d="M1498.94,99.45h-.07a3.79,3.79,0,0,1-3.38,1.89c-2,0-3.29-.91-3.29-4.32V87.81h2.65v9.46c0,1.47.64,2,1.79,2A2.06,2.06,0,0,0,1498.8,97V87.81h2.64V101h-2.5Z" fill="#3b4351"/><path d="M1509.67,91.66v-.35c0-1-.36-2-1.74-2-1,0-1.88.46-1.88,1.71,0,1.06.46,1.45,1.86,1.94l1.69.59c2,.66,2.87,1.71,2.87,3.8,0,2.81-2.08,4-4.73,4-3.33,0-4.34-1.55-4.34-4.1v-.49h2.35v.42c0,1.54.52,2.35,2.06,2.35s2.16-.73,2.16-1.93a1.91,1.91,0,0,0-1.45-1.94l-2.15-.76c-2-.66-2.82-1.69-2.82-3.8,0-2.47,1.76-3.62,4.51-3.62,3.35,0,4.11,2,4.11,3.6v.59Z" fill="#3b4351"/><path d="M1513.15,105.5a20.67,20.67,0,0,0,2.79-11,21.38,21.38,0,0,0-2.79-11H1515a18.71,18.71,0,0,1,0,22Z" fill="#3b4351"/></g><g id="Chinese"><path d="M1711.85,43.66,1707.34,33h3.11l2.94,7.54,3-7.54h2.91l-4.68,10.66v6.83h-2.79Z" fill="#3b4351"/><path d="M1720.18,32.8h2.64v2.65h-2.64Zm0,4.51h2.64V50.49h-2.64Z" fill="#3b4351"/><path d="M1725.49,37.31h2.5v1.54h.08a3.78,3.78,0,0,1,3.38-1.88c2,0,3.28.9,3.28,3.57v10h-2.64v-9c0-1.76-.47-2.38-1.84-2.38-1.08,0-2.11.81-2.11,2.58v8.84h-2.65Z" fill="#3b4351"/><path d="M1685.73,60h5c5.48,0,6.17,3.57,6.17,8.74s-.69,8.75-6.17,8.75h-5Zm2.79,15.39h2.31c2.3,0,3.26-1.52,3.26-6.65,0-4.92-.84-6.64-3.26-6.64h-2.31Z" fill="#3b4351"/><path d="M1701,64.31l2.28,9.9h0l2.11-9.9h2.77L1704.52,78c-1,3.6-1.86,4.1-4.6,4a4.76,4.76,0,0,1-1.06-.1V79.8a3.65,3.65,0,0,0,.86.09c.91,0,1.5-.17,1.79-1l.34-1.08-3.75-13.48Z" fill="#3b4351"/><path d="M1709.62,64.31h2.5v1.54h.07a3.78,3.78,0,0,1,3.38-1.88c2,0,3.29.9,3.29,3.57v9.95h-2.65v-9c0-1.76-.46-2.38-1.84-2.38-1.08,0-2.1.81-2.1,2.58v8.84h-2.65Z" fill="#3b4351"/><path d="M1730.05,74.75c0,.49.3.93.69.93a1.18,1.18,0,0,0,.44-.07v1.71a2.83,2.83,0,0,1-1.3.32c-1.17,0-2.15-.47-2.23-1.74h-.05a3.4,3.4,0,0,1-3.28,1.94c-2.13,0-3.43-1.16-3.43-3.7,0-3,1.3-3.56,3.06-4.15l2.06-.56c1-.27,1.54-.54,1.54-1.69s-.41-2-1.81-2c-1.76,0-2,1.25-2,2.52h-2.5c0-2.82,1.15-4.33,4.63-4.33,2.33,0,4.19.9,4.19,3.23Zm-2.5-4.22a20,20,0,0,1-2.94,1.23,2.17,2.17,0,0,0-1.08,2.13c0,1.1.54,2,1.65,2,1.59,0,2.37-1.18,2.37-3.14Z" fill="#3b4351"/><path d="M1738.43,68.16v-.35c0-1-.37-2-1.74-2-1,0-1.89.46-1.89,1.71,0,1.06.47,1.45,1.87,1.94l1.69.59c2,.66,2.87,1.71,2.87,3.8,0,2.81-2.09,4-4.73,4-3.34,0-4.34-1.55-4.34-4.1v-.49h2.35v.42c0,1.54.51,2.35,2.06,2.35s2.16-.73,2.16-1.93a1.91,1.91,0,0,0-1.45-1.94l-2.16-.76c-2-.66-2.81-1.69-2.81-3.8,0-2.47,1.76-3.62,4.5-3.62,3.36,0,4.12,2,4.12,3.6v.59Z" fill="#3b4351"/><path d="M1742,64.31h1.81V60.56h2.65v3.75h2.15v2h-2.15v7.87c0,1,.29,1.39,1.2,1.39a4.91,4.91,0,0,0,.95-.07v2a8.44,8.44,0,0,1-2.13.22c-1.76,0-2.67-.52-2.67-3.19V66.27H1742Z" fill="#3b4351"/><path d="M1751.76,64.31l2.28,9.9h0l2.1-9.9H1759L1755.34,78c-1.06,3.6-1.87,4.1-4.61,4a4.62,4.62,0,0,1-1-.1V79.8a3.51,3.51,0,0,0,.85.09c.91,0,1.5-.17,1.79-1l.35-1.08-3.75-13.48Z" fill="#3b4351"/></g><g id="Egytians"><g id="large"><path d="M479.76,35.5h6.17c2.45,0,4.44,1.25,4.44,4.5,0,2.26-1,4-2.92,4.29v.05c1.77.17,2.65,1.13,2.75,3.58,0,1.15,0,2.5.09,3.55a1.92,1.92,0,0,0,.84,1.52H488a2.89,2.89,0,0,1-.47-1.54c-.05-.52-.07-1.06-.07-1.57s0-1.1-.05-1.74c-.08-1.91-.66-2.74-2.55-2.74h-2.28V53h-2.79Zm5,7.79a2.58,2.58,0,0,0,2.79-2.84c0-1.87-.78-2.85-2.64-2.85h-2.38v5.69Z" fill="#3b4351"/><path d="M492.86,35.3h2.65V38h-2.65Zm0,4.51h2.65V53h-2.65Z" fill="#3b4351"/><path d="M503.87,43.66v-.35c0-1.05-.37-2-1.74-2-1.06,0-1.89.46-1.89,1.71,0,1.06.46,1.45,1.86,1.94l1.69.59c2,.66,2.87,1.71,2.87,3.8,0,2.82-2.08,4-4.73,4-3.33,0-4.34-1.55-4.34-4.1v-.49h2.35v.42c0,1.54.52,2.35,2.06,2.35s2.16-.73,2.16-1.93a1.91,1.91,0,0,0-1.45-1.94l-2.15-.76c-2-.66-2.82-1.69-2.82-3.8,0-2.47,1.76-3.62,4.51-3.62,3.36,0,4.11,2,4.11,3.6v.59Z" fill="#3b4351"/><path d="M510.9,46.74v.76c0,1.77.22,4,2.2,4s2.11-2.13,2.11-2.94h2.5c0,3-1.77,4.76-4.63,4.76-2.16,0-4.83-.64-4.83-6.74,0-3.46.76-7.13,4.88-7.13,3.67,0,4.65,2.23,4.65,5.88v1.39Zm4.24-1.81v-.71c0-1.67-.54-2.94-2-2.94-1.67,0-2.2,1.67-2.2,3.38v.27Z" fill="#3b4351"/><path d="M525.33,46.4c0-4.12,1.07-6.93,4.9-6.93s4.92,2.81,4.92,6.93-1.27,6.94-4.92,6.94S525.33,50.52,525.33,46.4Zm4.9,5c1.93,0,2.28-1.62,2.28-5,0-2.92-.35-5-2.28-5s-2.26,2-2.26,5C528,49.76,528.34,51.38,530.23,51.38Z" fill="#3b4351"/><path d="M538,41.77h-1.84v-2H538V38.58c0-2.47,1.2-3.28,3.36-3.28a12.11,12.11,0,0,1,1.45.07v2h-.74c-1,0-1.42.36-1.42,1.25v1.15h2.16v2h-2.16V53H538Z" fill="#3b4351"/><path d="M550.05,35.5h9.45v2.35h-6.66V42.7h6.27v2.35h-6.27v5.59h6.86V53h-9.65Z" fill="#3b4351"/><path d="M564.31,54.12a1.72,1.72,0,0,0,1.91,1.57,2.19,2.19,0,0,0,2.23-2.48V51.08h-.05a3.19,3.19,0,0,1-3,1.81c-3.07,0-3.95-3-3.95-6.64,0-2.89.44-6.78,4.19-6.78a2.9,2.9,0,0,1,2.89,2h.05V39.81h2.5V52.36c0,3.21-1.37,5.14-4.92,5.14-3.92,0-4.36-2.3-4.36-3.38Zm1.86-3.33c2.06,0,2.28-2.6,2.28-4.68s-.27-4.54-2.11-4.54-2.23,2-2.23,4.41C564.11,48.24,564.21,50.79,566.17,50.79Z" fill="#3b4351"/><path d="M575.21,39.81l2.28,9.9h0l2.1-9.9h2.77l-3.62,13.67c-1.06,3.61-1.87,4.1-4.61,4a4.76,4.76,0,0,1-1.06-.1V55.3a3.65,3.65,0,0,0,.86.09c.91,0,1.5-.17,1.79-1l.34-1.08-3.75-13.48Z" fill="#3b4351"/><path d="M589.56,53.34a3,3,0,0,1-3-1.89h-.05v5.86h-2.65V39.81h2.5v1.62h0a3.1,3.1,0,0,1,3-2c3,0,4.24,2.57,4.24,7.1C593.63,52.11,591.4,53.34,589.56,53.34Zm-.95-11.77c-1.81,0-2.23,1.84-2.23,4.68,0,3.17.39,5,2.25,5,1.5,0,2.21-1.13,2.21-4.78C590.84,43.46,590.47,41.57,588.61,41.57Z" fill="#3b4351"/><path d="M594.49,39.81h1.81V36.06H599v3.75h2.15v2H599v7.87c0,1,.29,1.39,1.2,1.39a4.91,4.91,0,0,0,1-.07v2a8.44,8.44,0,0,1-2.13.22c-1.76,0-2.67-.52-2.67-3.19V41.77h-1.81Z" fill="#3b4351"/><path d="M602.6,35.3h2.64V38H602.6Zm0,4.51h2.64V53H602.6Z" fill="#3b4351"/><path d="M616.56,50.25c0,.49.3.93.69.93a1.18,1.18,0,0,0,.44-.07v1.71a2.83,2.83,0,0,1-1.3.32c-1.17,0-2.15-.47-2.23-1.74h0a3.4,3.4,0,0,1-3.28,1.94c-2.13,0-3.43-1.16-3.43-3.7,0-3,1.3-3.56,3.06-4.15l2.06-.56c1-.27,1.54-.54,1.54-1.69s-.41-2-1.81-2c-1.76,0-2,1.25-2,2.52h-2.5c0-2.82,1.15-4.33,4.63-4.33,2.33,0,4.19.9,4.19,3.23ZM614.06,46a20,20,0,0,1-2.94,1.23,2.16,2.16,0,0,0-1.07,2.13c0,1.1.53,2,1.64,2,1.59,0,2.37-1.18,2.37-3.14Z" fill="#3b4351"/><path d="M619.26,39.81h2.5v1.54h.07a3.78,3.78,0,0,1,3.38-1.88c2,0,3.29.9,3.29,3.57V53h-2.65V44c0-1.76-.47-2.38-1.84-2.38-1.08,0-2.11.81-2.11,2.58V53h-2.64Z" fill="#3b4351"/><path d="M637.09,35.5h9.46v2.35h-6.66V42.7h6.27v2.35h-6.27v5.59h6.86V53h-9.66Z" fill="#3b4351"/><path d="M648.83,39.81h2.5v1.54h.07a3.69,3.69,0,0,1,3.16-1.88,2.85,2.85,0,0,1,3.06,2,3.6,3.6,0,0,1,3.34-2c1.86,0,3.21,1,3.21,3.5V53h-2.65V44c0-1.74-.51-2.38-1.59-2.38s-2.11.84-2.11,2.58V53h-2.65V44c0-1.74-.51-2.38-1.61-2.38s-2.09.86-2.09,2.58V53h-2.64Z" fill="#3b4351"/><path d="M672.52,53.34a3,3,0,0,1-3-1.89h0v5.86h-2.65V39.81h2.5v1.62h0a3.13,3.13,0,0,1,3-2c3,0,4.24,2.57,4.24,7.1C676.59,52.11,674.36,53.34,672.52,53.34Zm-1-11.77c-1.81,0-2.23,1.84-2.23,4.68,0,3.17.4,5,2.26,5,1.49,0,2.2-1.13,2.2-4.78C673.79,43.46,673.43,41.57,671.56,41.57Z" fill="#3b4351"/><path d="M678.74,35.3h2.65V38h-2.65Zm0,4.51h2.65V53h-2.65Z" fill="#3b4351"/><path d="M684.06,39.81h2.64v2.06h0a3.26,3.26,0,0,1,3.07-2.4,1.53,1.53,0,0,1,.63.09v2.7a3.73,3.73,0,0,0-1.1-.15c-1.2,0-2.65.54-2.65,3V53h-2.64Z" fill="#3b4351"/><path d="M693.91,46.74v.76c0,1.77.22,4,2.2,4s2.11-2.13,2.11-2.94h2.5c0,3-1.77,4.76-4.63,4.76-2.16,0-4.83-.64-4.83-6.74,0-3.46.76-7.13,4.88-7.13,3.67,0,4.65,2.23,4.65,5.88v1.39Zm4.24-1.81v-.71c0-1.67-.54-2.94-2-2.94-1.66,0-2.2,1.67-2.2,3.38v.27Z" fill="#3b4351"/></g></g><g id="Ageans"><g id="Title"><g id="small-2" data-name="small"><path d="M177,38.91v.21c0,1.81-.74,3.58-3.08,3.58-2.52,0-3.31-1.63-3.31-5.2s.79-5.2,3.32-5.2c2.85,0,3,2.09,3,3.14v.18h-1.6v-.17c0-.93-.28-2-1.43-1.94s-1.71.73-1.71,4,.52,4,1.71,4c1.35,0,1.49-1.47,1.49-2.41v-.17Z"/><path d="M177.7,38.73c0-2.35.61-4,2.8-4s2.81,1.61,2.81,4-.72,4-2.81,4S177.7,41.09,177.7,38.73Zm2.8,2.85c1.1,0,1.3-.93,1.3-2.85,0-1.67-.2-2.84-1.3-2.84s-1.29,1.17-1.29,2.84C179.21,40.65,179.42,41.58,180.5,41.58Z"/><path d="M184.47,35h1.43v.89h0a2.16,2.16,0,0,1,1.94-1.08c1.15,0,1.87.52,1.87,2V42.5h-1.51V37.33c0-1-.26-1.36-1.05-1.36-.62,0-1.2.46-1.2,1.47V42.5h-1.52Z"/><path d="M191.67,36.08h-1V35h1v-.7c0-1.41.69-1.87,1.92-1.87a6.4,6.4,0,0,1,.82,0v1.16H194c-.56,0-.81.21-.81.72V35h1.23v1.12h-1.23V42.5h-1.51Zm3.5-3.58h1.51v10h-1.51Z"/><path d="M198.28,32.39h1.51V33.9h-1.51Zm0,2.57h1.51V42.5h-1.51Z"/><path d="M206.4,39.75c-.11,1.81-.7,3-2.58,3-2.18,0-2.8-1.61-2.8-4s.62-4,2.8-4a2.43,2.43,0,0,1,2.59,2.7H204.9c0-.7-.18-1.62-1.08-1.58-1.08,0-1.29,1.17-1.29,2.84s.21,2.85,1.29,2.85c.84,0,1.15-.69,1.15-1.83Z"/><path d="M206.86,35h1V32.82h1.52V35h1.23v1.12h-1.23v4.5c0,.6.17.8.68.8a2.75,2.75,0,0,0,.55,0v1.12a5.17,5.17,0,0,1-1.22.12c-1,0-1.53-.29-1.53-1.82V36.08h-1Z"/><path d="M214.26,35h1.57l1,5.94h0L218,35h1.71l1.12,5.94h0l1-5.94h1.51l-1.72,7.54H220l-1.18-5.86h0l-1.08,5.86H216Z"/><path d="M224.44,32.39H226V33.9h-1.51Zm0,2.57H226V42.5h-1.51Z"/><path d="M226.81,35h1V32.82h1.52V35h1.23v1.12h-1.23v4.5c0,.6.16.8.68.8a2.75,2.75,0,0,0,.55,0v1.12a5.17,5.17,0,0,1-1.22.12c-1,0-1.53-.29-1.53-1.82V36.08h-1Z"/><path d="M231.37,32.5h1.51v3.28l.05,0a2.15,2.15,0,0,1,1.85-1c1.14,0,1.87.52,1.87,2V42.5h-1.51V37.33c0-1-.28-1.36-1-1.36-.62,0-1.21.48-1.21,1.47V42.5h-1.51Z"/><path d="M241.54,32.39h1.51V33.9h-1.51Zm0,2.57h1.51V42.5h-1.51Z"/><path d="M244.57,35H246v.89h0A2.16,2.16,0,0,1,248,34.77c1.15,0,1.87.52,1.87,2V42.5h-1.51V37.33c0-1-.26-1.36-1.05-1.36-.62,0-1.2.46-1.2,1.47V42.5h-1.52Z"/><path d="M250.68,35h1.62l1.32,5.94h0L254.84,35h1.61l-2,7.54h-1.77Z"/><path d="M262.05,40.93c0,.28.17.53.39.53a.54.54,0,0,0,.25,0v1a1.58,1.58,0,0,1-.74.18c-.67,0-1.23-.26-1.27-1h0a2,2,0,0,1-1.88,1.11c-1.22,0-2-.66-2-2.12a2.08,2.08,0,0,1,1.75-2.37l1.18-.32c.54-.15.88-.31.88-1s-.24-1.12-1-1.12c-1,0-1.15.72-1.15,1.45H257c0-1.61.65-2.48,2.64-2.48,1.33,0,2.4.52,2.4,1.85Zm-1.43-2.41a11.23,11.23,0,0,1-1.68.7,1.23,1.23,0,0,0-.62,1.22c0,.63.31,1.14.94,1.14.91,0,1.36-.68,1.36-1.8Z"/><path d="M267.44,41.58h0a1.61,1.61,0,0,1-1.65,1.12c-1.75,0-2.47-1.49-2.47-4.07,0-3.34,1.18-3.86,2.33-3.86a1.74,1.74,0,0,1,1.71,1.08h0V32.5h1.52v10h-1.43ZM266.06,36c-.85,0-1.17.7-1.17,2.73,0,1.71.21,2.79,1.27,2.79s1.28-1.05,1.28-2.67C267.44,37,267.24,36,266.06,36Z"/><path d="M270.39,32.39h1.51V33.9h-1.51Zm0,2.57h1.51V42.5h-1.51Z"/><path d="M273.43,35h1.43v.89h0a2.15,2.15,0,0,1,1.93-1.08c1.15,0,1.88.52,1.88,2V42.5h-1.52V37.33c0-1-.26-1.36-1.05-1.36-.61,0-1.2.46-1.2,1.47V42.5h-1.51Z"/><path d="M281.67,43.14a1,1,0,0,0,1.1.9A1.24,1.24,0,0,0,284,42.63V41.41h0a1.81,1.81,0,0,1-1.71,1c-1.75,0-2.25-1.72-2.25-3.79,0-1.65.25-3.88,2.39-3.88a1.66,1.66,0,0,1,1.66,1.12h0V35h1.43v7.18c0,1.83-.78,2.94-2.81,2.94-2.24,0-2.5-1.32-2.5-1.94Zm1.07-1.9c1.17,0,1.3-1.49,1.3-2.68s-.15-2.59-1.2-2.59-1.28,1.12-1.28,2.52S281.62,41.24,282.74,41.24Z"/><path d="M295.3,41.34h0a2.08,2.08,0,0,1-2.19,1.36c-2.18,0-3-1.63-3-5.2s1-5.2,3.32-5.2a2.73,2.73,0,0,1,2.93,2.89v.18h-1.51v-.24c0-.74-.31-1.62-1.4-1.62s-1.74.75-1.74,4,.53,4,1.61,4,1.67-.87,1.67-3.05h-1.68V37.23h3.19V42.5h-1.2Z"/><path d="M297.77,35h1.52v1.18h0a1.87,1.87,0,0,1,1.75-1.37.94.94,0,0,1,.37,0v1.54a2.24,2.24,0,0,0-.63-.08c-.69,0-1.51.31-1.51,1.71V42.5h-1.52Z"/><path d="M303.4,38.93v.43c0,1,.13,2.3,1.26,2.3s1.21-1.22,1.21-1.68h1.42a2.48,2.48,0,0,1-2.64,2.72c-1.24,0-2.76-.37-2.76-3.86,0-2,.43-4.07,2.79-4.07,2.1,0,2.66,1.27,2.66,3.36v.8Zm2.42-1v-.4c0-1-.3-1.69-1.16-1.69s-1.26,1-1.26,1.94v.15Z"/><path d="M309.88,38.93v.43c0,1,.13,2.3,1.26,2.3s1.21-1.22,1.21-1.68h1.43a2.48,2.48,0,0,1-2.65,2.72c-1.23,0-2.76-.37-2.76-3.86,0-2,.43-4.07,2.79-4.07,2.1,0,2.66,1.27,2.66,3.36v.8Zm2.43-1v-.4c0-1-.31-1.69-1.17-1.69s-1.26,1-1.26,1.94v.15Z"/><path d="M315.06,32.5h1.51v5.62h0L318.89,35h1.75l-2.27,2.91,2.56,4.64h-1.65l-1.85-3.43-.86,1v2.4h-1.51Z"/><path d="M324.79,37.16V37c0-.61-.21-1.17-1-1.17-.6,0-1.08.27-1.08,1s.27.82,1.07,1.1l1,.34a2,2,0,0,1,1.64,2.17c0,1.61-1.19,2.3-2.7,2.3-1.91,0-2.48-.89-2.48-2.34v-.28h1.34v.23c0,.89.3,1.35,1.18,1.35s1.23-.42,1.23-1.11a1.09,1.09,0,0,0-.82-1.1L322.9,39a2,2,0,0,1-1.61-2.17c0-1.41,1-2.07,2.58-2.07,1.92,0,2.35,1.12,2.35,2.06v.33Z"/><path d="M201.33,69.93c0,.28.17.53.39.53a.59.59,0,0,0,.26,0v1a1.63,1.63,0,0,1-.75.18c-.67,0-1.23-.26-1.27-1h0a2,2,0,0,1-1.88,1.11c-1.22,0-2-.66-2-2.12a2.08,2.08,0,0,1,1.75-2.37l1.18-.32c.55-.15.88-.31.88-1s-.24-1.12-1-1.12c-1,0-1.15.72-1.15,1.45h-1.43c0-1.61.66-2.48,2.65-2.48,1.33,0,2.39.52,2.39,1.85Zm-1.43-2.41a11.23,11.23,0,0,1-1.68.7,1.24,1.24,0,0,0-.61,1.22c0,.63.3,1.14.93,1.14.91,0,1.36-.68,1.36-1.8Z"/><path d="M202.87,64h1.43v.89h0a2.15,2.15,0,0,1,1.93-1.08c1.15,0,1.88.52,1.88,2V71.5h-1.51V66.33c0-1-.27-1.36-1-1.36-.62,0-1.21.46-1.21,1.47V71.5h-1.51Z"/><path d="M213.45,70.58h0a1.62,1.62,0,0,1-1.66,1.12c-1.75,0-2.46-1.49-2.46-4.07,0-3.34,1.17-3.86,2.32-3.86a1.73,1.73,0,0,1,1.71,1.08h0V61.5h1.51v10h-1.43ZM212.08,65c-.85,0-1.17.7-1.17,2.73,0,1.71.21,2.79,1.27,2.79s1.27-1,1.27-2.67C213.45,66,213.26,65,212.08,65Z"/><path d="M220.16,65.08h-1V64h1v-.7c0-1.41.68-1.87,1.92-1.87a6.4,6.4,0,0,1,.82,0v1.16h-.42c-.56,0-.81.21-.81.72V64h1.23v1.12h-1.23V71.5h-1.51Z"/><path d="M228.53,69.93c0,.28.17.53.4.53a.57.57,0,0,0,.25,0v1a1.59,1.59,0,0,1-.75.18c-.67,0-1.23-.26-1.27-1h0a1.94,1.94,0,0,1-1.87,1.11c-1.22,0-2-.66-2-2.12A2.09,2.09,0,0,1,225,67.21l1.18-.32c.55-.15.88-.31.88-1s-.23-1.12-1-1.12c-1,0-1.15.72-1.15,1.45h-1.43c0-1.61.66-2.48,2.65-2.48,1.33,0,2.39.52,2.39,1.85Zm-1.43-2.41a10.81,10.81,0,0,1-1.68.7,1.24,1.24,0,0,0-.61,1.22c0,.63.31,1.14.94,1.14.91,0,1.35-.68,1.35-1.8Z"/><path d="M230.14,61.5h1.51v10h-1.51Z"/><path d="M233.25,61.5h1.51v10h-1.51Z"/><path d="M239.35,67.73c0-2.35.62-4,2.8-4s2.82,1.61,2.82,4-.73,4-2.82,4S239.35,70.09,239.35,67.73Zm2.8,2.85c1.11,0,1.31-.93,1.31-2.85,0-1.67-.2-2.84-1.31-2.84s-1.29,1.17-1.29,2.84C240.86,69.65,241.07,70.58,242.15,70.58Z"/><path d="M246.59,65.08h-1.05V64h1.05v-.7c0-1.41.69-1.87,1.92-1.87a6.4,6.4,0,0,1,.82,0v1.16h-.42c-.56,0-.81.21-.81.72V64h1.23v1.12H248.1V71.5h-1.51Z"/><path d="M259.63,67.91v.21c0,1.81-.75,3.58-3.09,3.58-2.52,0-3.3-1.63-3.3-5.2s.78-5.2,3.32-5.2c2.84,0,3,2.09,3,3.14v.18H258v-.17c0-.93-.28-2-1.43-1.94s-1.7.73-1.7,3.95.51,4,1.7,4c1.35,0,1.49-1.47,1.49-2.41v-.17Z"/><path d="M260.65,64h1.42v.89h.05a2.13,2.13,0,0,1,1.93-1.08c1.15,0,1.88.52,1.88,2V71.5h-1.52V66.33c0-1-.26-1.36-1.05-1.36-.61,0-1.2.46-1.2,1.47V71.5h-1.51Z"/><path d="M267.08,67.73c0-2.35.62-4,2.81-4s2.81,1.61,2.81,4-.73,4-2.81,4S267.08,70.09,267.08,67.73Zm2.81,2.85c1.1,0,1.3-.93,1.3-2.85,0-1.67-.2-2.84-1.3-2.84s-1.29,1.17-1.29,2.84C268.6,69.65,268.81,70.58,269.89,70.58Z"/><path d="M277.11,66.16V66c0-.61-.21-1.17-1-1.17-.61,0-1.08.27-1.08,1s.26.82,1.06,1.1l1,.34a2,2,0,0,1,1.64,2.17c0,1.61-1.19,2.3-2.71,2.3-1.9,0-2.48-.89-2.48-2.34v-.28h1.35v.23c0,.89.29,1.35,1.18,1.35s1.23-.42,1.23-1.11a1.09,1.09,0,0,0-.83-1.1L275.22,68a2,2,0,0,1-1.61-2.17c0-1.41,1-2.07,2.58-2.07,1.92,0,2.35,1.12,2.35,2.06v.33Z"/><path d="M283.07,66.16V66c0-.61-.21-1.17-1-1.17-.6,0-1.08.27-1.08,1s.27.82,1.07,1.1l1,.34a2,2,0,0,1,1.64,2.17c0,1.61-1.19,2.3-2.7,2.3-1.91,0-2.48-.89-2.48-2.34v-.28h1.34v.23c0,.89.3,1.35,1.18,1.35s1.23-.42,1.23-1.11a1.09,1.09,0,0,0-.82-1.1L281.18,68a2,2,0,0,1-1.61-2.17c0-1.41,1-2.07,2.58-2.07,1.92,0,2.35,1.12,2.35,2.06v.33Z"/><path d="M289.64,70.62h0a2.17,2.17,0,0,1-1.93,1.08c-1.12,0-1.88-.52-1.88-2.47V64h1.51v5.41c0,.84.37,1.12,1,1.12a1.18,1.18,0,0,0,1.24-1.26V64h1.51V71.5h-1.43Z"/><path d="M295.77,66.16V66c0-.61-.21-1.17-1-1.17-.6,0-1.08.27-1.08,1s.27.82,1.06,1.1l1,.34a2,2,0,0,1,1.64,2.17c0,1.61-1.19,2.3-2.7,2.3-1.91,0-2.48-.89-2.48-2.34v-.28h1.34v.23c0,.89.3,1.35,1.18,1.35s1.23-.42,1.23-1.11a1.09,1.09,0,0,0-.83-1.1L293.88,68a2,2,0,0,1-1.61-2.17c0-1.41,1-2.07,2.58-2.07,1.92,0,2.35,1.12,2.35,2.06v.33Z"/><path d="M298.64,69.65h1.6V71.5h-1.6Z"/><path d="M186.59,90.5h1.94l2.9,7.45h0V90.5H193v10H191l-2.9-7.65h0v7.65h-1.51Z"/><path d="M195.83,96.93v.43c0,1,.12,2.3,1.26,2.3s1.2-1.22,1.2-1.68h1.43a2.48,2.48,0,0,1-2.65,2.72c-1.23,0-2.76-.37-2.76-3.86,0-2,.44-4.07,2.79-4.07,2.1,0,2.66,1.27,2.66,3.36v.8Zm2.42-1v-.4c0-1-.31-1.69-1.16-1.69s-1.26,1-1.26,1.94v.15Z"/><path d="M200.49,93h1.57l1.05,5.94h0L204.26,93H206l1.13,5.94h0l1-5.94h1.51l-1.72,7.54h-1.69l-1.18-5.86h0L204,100.5H202.2Z"/><path d="M219,97.75c-.11,1.81-.7,3-2.58,3-2.18,0-2.8-1.61-2.8-4s.62-4,2.8-4a2.44,2.44,0,0,1,2.6,2.7h-1.52c0-.7-.18-1.62-1.08-1.58-1.07,0-1.28,1.17-1.28,2.84s.21,2.85,1.28,2.85c.84,0,1.15-.69,1.15-1.83Z"/><path d="M224,99.62h0a2.17,2.17,0,0,1-1.93,1.08c-1.12,0-1.88-.52-1.88-2.47V93h1.51v5.41c0,.84.37,1.12,1,1.12a1.17,1.17,0,0,0,1.23-1.26V93h1.51v7.54H224Z"/><path d="M227,90.5h1.51v10H227Z"/><path d="M229.34,93h1V90.82h1.51V93h1.23v1.12h-1.23v4.5c0,.6.17.8.69.8a2.7,2.7,0,0,0,.54,0v1.12a5.17,5.17,0,0,1-1.22.12c-1,0-1.52-.29-1.52-1.82V94.08h-1Z"/><path d="M237.76,99.62h0a2.18,2.18,0,0,1-1.94,1.08c-1.12,0-1.87-.52-1.87-2.47V93h1.51v5.41c0,.84.36,1.12,1,1.12a1.17,1.17,0,0,0,1.23-1.26V93h1.52v7.54h-1.43Z"/><path d="M240.64,93h1.51v1.18h0a1.87,1.87,0,0,1,1.75-1.37.94.94,0,0,1,.37,0v1.54a2.32,2.32,0,0,0-.64-.08c-.68,0-1.51.31-1.51,1.71v4.51h-1.51Z"/><path d="M249.91,98.93c0,.28.17.53.39.53a.54.54,0,0,0,.25,0v1a1.55,1.55,0,0,1-.74.18c-.67,0-1.23-.26-1.27-1h0a2,2,0,0,1-1.88,1.11c-1.22,0-2-.66-2-2.12a2.08,2.08,0,0,1,1.75-2.37l1.18-.32c.54-.15.88-.31.88-1s-.24-1.12-1-1.12c-1,0-1.14.72-1.14,1.45h-1.43c0-1.61.66-2.48,2.64-2.48,1.34,0,2.4.52,2.4,1.85Zm-1.43-2.41a11.23,11.23,0,0,1-1.68.7,1.25,1.25,0,0,0-.62,1.22c0,.63.31,1.14.94,1.14.91,0,1.36-.68,1.36-1.8Z"/><path d="M251.52,90.5H253v10h-1.51Z"/><path d="M263,97.75c-.11,1.81-.7,3-2.58,3-2.18,0-2.8-1.61-2.8-4s.62-4,2.8-4a2.43,2.43,0,0,1,2.59,2.7H261.5c0-.7-.18-1.62-1.08-1.58-1.08,0-1.29,1.17-1.29,2.84s.21,2.85,1.29,2.85c.84,0,1.15-.69,1.15-1.83Z"/><path d="M265.43,96.93v.43c0,1,.13,2.3,1.26,2.3s1.21-1.22,1.21-1.68h1.43a2.48,2.48,0,0,1-2.65,2.72c-1.23,0-2.76-.37-2.76-3.86,0-2,.43-4.07,2.79-4.07,2.1,0,2.66,1.27,2.66,3.36v.8Zm2.43-1v-.4c0-1-.31-1.69-1.17-1.69s-1.26,1-1.26,1.94v.15Z"/><path d="M270.61,93H272v.89h0A2.16,2.16,0,0,1,274,92.77c1.14,0,1.87.52,1.87,2v5.69h-1.51V95.33c0-1-.27-1.36-1.05-1.36-.62,0-1.2.46-1.2,1.47v5.06h-1.52Z"/><path d="M276.67,93h1V90.82h1.51V93h1.24v1.12h-1.24v4.5c0,.6.17.8.69.8a2.81,2.81,0,0,0,.55,0v1.12a5.23,5.23,0,0,1-1.22.12c-1,0-1.53-.29-1.53-1.82V94.08h-1Z"/><path d="M281.24,93h1.51v1.18h0a1.87,1.87,0,0,1,1.75-1.37.89.89,0,0,1,.36,0v1.54a2.18,2.18,0,0,0-.63-.08c-.68,0-1.51.31-1.51,1.71v4.51h-1.51Z"/><path d="M286.87,96.93v.43c0,1,.12,2.3,1.26,2.3s1.2-1.22,1.2-1.68h1.43a2.48,2.48,0,0,1-2.65,2.72c-1.23,0-2.76-.37-2.76-3.86,0-2,.44-4.07,2.79-4.07,2.1,0,2.66,1.27,2.66,3.36v.8Zm2.42-1v-.4c0-1-.31-1.69-1.16-1.69s-1.26,1-1.26,1.94v.15Z"/><path d="M295.3,95.16V95c0-.61-.21-1.17-1-1.17-.6,0-1.08.27-1.08,1s.27.82,1.07,1.1l1,.34a2,2,0,0,1,1.64,2.17c0,1.61-1.19,2.3-2.7,2.3-1.91,0-2.48-.89-2.48-2.34v-.28h1.34v.23c0,.89.3,1.35,1.18,1.35s1.23-.42,1.23-1.11a1.09,1.09,0,0,0-.82-1.1L293.4,97a2,2,0,0,1-1.61-2.17c0-1.41,1-2.07,2.58-2.07,1.92,0,2.35,1.12,2.35,2.06v.33Z"/><path d="M306.31,98.93c0,.28.17.53.4.53a.57.57,0,0,0,.25,0v1a1.58,1.58,0,0,1-.74.18c-.68,0-1.24-.26-1.28-1h0A1.94,1.94,0,0,1,303,100.7c-1.22,0-2-.66-2-2.12a2.08,2.08,0,0,1,1.75-2.37l1.17-.32c.55-.15.89-.31.89-1s-.24-1.12-1-1.12c-1,0-1.15.72-1.15,1.45h-1.43c0-1.61.66-2.48,2.65-2.48,1.33,0,2.39.52,2.39,1.85Zm-1.42-2.41a10.92,10.92,0,0,1-1.69.7,1.24,1.24,0,0,0-.61,1.22c0,.63.31,1.14.94,1.14.91,0,1.36-.68,1.36-1.8Z"/><path d="M307.18,93h1V90.82h1.51V93H311v1.12h-1.23v4.5c0,.6.17.8.69.8a2.7,2.7,0,0,0,.54,0v1.12a5.17,5.17,0,0,1-1.22.12c-1,0-1.52-.29-1.52-1.82V94.08h-1Z"/></g></g></g></g></svg>