<svg xmlns="http://www.w3.org/2000/svg" viewBox="0 0 1847.91 111"><title>bc1450text</title><g id="YEARS"><g id="Right"><path d="M1792.5,98.4V85h-3.82V83.11h.28c1.77,0,3.8-.44,4.35-2.76V80h2.15V98.4Z" fill="#3b4351"/><path d="M1800.14,91.72,1806.51,80h3V91.9h2v2.37h-2V98.4h-2.81V94.27h-6.58Zm6.58-7.41h0l-4.14,7.59h4.19Z" fill="#3b4351"/><path d="M1812.91,93.43h2.81v.5a2.35,2.35,0,0,0,2.41,2.6c2.08,0,2.63-2,2.63-4.19s-.57-3.92-2.47-3.92a2.35,2.35,0,0,0-2.42,1.68l-2.62-.1.91-9.65H1823v2.37h-6.65l-.6,4.84,0,0a4.06,4.06,0,0,1,3.09-1.43c3.85,0,4.81,3.25,4.81,6.08,0,3.7-1.69,6.5-5.66,6.5-3.31,0-5.15-1.69-5.15-4.94Z" fill="#3b4351"/><path d="M1830.8,80c3.53,0,5.51,2.21,5.51,9.39s-2,9.38-5.51,9.38-5.52-2.21-5.52-9.38S1827.26,80,1830.8,80Zm0,16.69c2,0,2.54-2,2.54-7.3s-.54-7.31-2.54-7.31-2.55,2-2.55,7.31S1828.79,96.68,1830.8,96.68Z" fill="#3b4351"/></g><g id="left"><path d="M17.46,100.31V86.94H13.64V85h.29c1.77,0,3.79-.44,4.34-2.76V81.9h2.16v18.41Z" fill="#3b4351"/><path d="M25.11,93.62,31.48,81.9h3V93.81h2v2.36h-2v4.14h-2.8V96.17H25.11Zm6.58-7.41h-.06l-4.13,7.6h4.19Z" fill="#3b4351"/><path d="M37.87,95.34h2.81v.49a2.35,2.35,0,0,0,2.42,2.6c2.08,0,2.63-2,2.63-4.18s-.58-3.93-2.48-3.93A2.35,2.35,0,0,0,40.84,92l-2.63-.1.91-9.65H48v2.37H41.33l-.6,4.83.06.06a4,4,0,0,1,3.09-1.43c3.85,0,4.81,3.25,4.81,6.08,0,3.69-1.69,6.5-5.67,6.5-3.3,0-5.15-1.69-5.15-4.94Z" fill="#3b4351"/><path d="M55.76,81.9c3.54,0,5.51,2.21,5.51,9.38s-2,9.39-5.51,9.39-5.51-2.21-5.51-9.39S52.22,81.9,55.76,81.9Zm0,16.69c2,0,2.55-2,2.55-7.31S57.76,84,55.76,84s-2.55,2-2.55,7.3S53.76,98.59,55.76,98.59Z" fill="#3b4351"/></g></g><g id="Nation_OUtlines" data-name="Nation OUtlines"><polygon id="Iranians" points="1263.29 1238.17 1235.95 1124 1211.95 1009.5 1241.29 899.5 1280.62 787 1217.95 672.17 1163.29 562.84 1140.62 449.5 1175.95 339 1153.29 224.17 1137.95 110.84 1188.62 -0.5 1153.95 -113.16 1161.95 -226 1156.67 -341.27 1152.84 -458.5 1131.29 -565 1198.62 -675.5 1275.29 -787.5 1277.29 -901.16 1268.62 -1010.83 1283.88 -1122.83 1411.11 -1122.83 1445.69 -1011.27 1480.18 -900.6 1462.18 -787.5 1438.19 -675.5 1387.19 -565 1387.19 -453 1420.19 -338.07 1429.19 -226 1400.69 -113.08 1417.19 0 1343.69 111 1325.69 225 1345.19 339 1313.69 451 1298.69 563 1310.69 673 1348.19 787 1313.69 900 1285.19 1011 1294.19 1124 1372.19 1238.17 1373.74 1346.73 1375.34 1458.73 1376.98 1574 1335.62 1684 1348.62 1796 1391.1 1908 1462.62 2019 1440.62 2131.73 1447.62 2248 1472.62 2360 1505.62 2471.73 1513.62 2581.73 1437.62 2693.73 1391.82 2808.73 1219.62 2694 1086.62 2582 890.71 2471.73 788.62 2360 767.62 2248 866.62 2132 1041.62 2018.73 1176.62 1907.73 1205.62 1795.73 1242.62 1683.73 1294.62 1574 1322.62 1461.17 1240.62 1347 1263.29 1238.17" fill="none" stroke="#3b4351" stroke-miterlimit="10"/><polygon id="Indians" points="1372.19 1238.17 1294.19 1124 1285.19 1011 1313.69 900 1348.19 787 1310.69 673 1298.69 563 1313.69 451 1345.19 339 1325.69 225 1343.69 111 1417.19 0 1400.69 -113.08 1429.19 -226 1419.27 -341.27 1387.19 -453 1387.19 -565 1438.19 -675.5 1462.18 -787.5 1480.18 -900.54 1445.82 -1010.83 1411.11 -1122.83 1545.86 -1122.83 1580.1 -1010.83 1593.12 -900.6 1552.12 -787.5 1514.62 -675.5 1514.12 -565.33 1553.12 -453.27 1548.12 -341 1519.62 -226 1534.12 -112.33 1575.12 0 1559.62 111 1564.12 224.73 1534.62 339 1486.12 451 1465.12 563 1471.12 672.17 1502.12 786.17 1508.12 900 1534.62 1011 1542.77 1089.86 1555.62 1238.17 1554.62 1347 1567.12 1459 1542.12 1573.73 1498.12 1684 1490.62 1796 1513.12 1908 1568.62 2019 1544.12 2132 1530.62 2247.73 1523.62 2359.73 1532.62 2472 1565.12 2582 1543.62 2694 1514.12 2809 1490.12 2918.73 1495.62 3033 1517.12 3146.67 1528.12 3252 1580.62 3364.67 1578.12 3480.67 1578.12 3591.17 1560.12 3702.73 1526.62 3818 1467.62 3932 1381.62 4043.73 1270.62 4154 1090.12 4266.73 860.62 4375 1302.12 4490 1377.03 4602 1550.62 4715 1519.62 4824.83 1476.12 4937.83 1516.13 5051.83 1534.62 5164.17 1552.65 5274.83 1585.62 5388.73 1620.12 5503.83 1650.12 5614.83 1630.62 5722.73 1622.45 5839.73 1565.62 5950.83 1402.62 6064.17 1173.62 6176.83 1148.62 6287.83 1334.62 6402.83 1283.62 6516.83 1344.62 6625.83 1544.62 6738.83 1602.62 6853.17 1627.62 6964.83 1674.62 7077.73 1627.62 7192.83 1634.62 7304.83 1686.62 7416.83 1701.62 7529.83 1620.12 7641.83 1606.12 7752.83 1606.12 7866.66 1552.62 7866.66 1549.52 7752.83 1569.62 7641.83 1683.62 7529.83 1667.62 7416.83 1607.62 7304.83 1596.62 7192.17 1617.62 7077.83 1584.62 6964.83 1562.62 6852.83 1507.62 6738.83 1304.62 6625.73 1225.62 6516.73 1236.97 6479.78 1264.87 6402.83 1082.62 6287.83 1084.2 6177.34 1323.62 6064.83 1500.47 5950.73 1573.62 5839.83 1600.62 5722.83 1604.62 5614.83 1569.62 5503.83 1514.62 5388.83 1447.62 5274.73 1418.62 5162.83 1404.62 5051.83 1367.62 4937.83 1397.62 4824.83 1418.62 4714.73 1339.62 4601.73 1246.62 4490 748.62 4375 753.62 4267 910.76 4154 1053.62 4044 1195.2 3932 1311.62 3817.17 1353.62 3703 1348.62 3592 1364.62 3480.17 1406.62 3365 1401.62 3252 1429.62 3147 1394.62 3032.73 1393.2 2919 1391.82 2808.73 1437.52 2694 1513.62 2581.73 1505.64 2472 1472.62 2360.17 1447.62 2248 1440.63 2132 1462.62 2019 1391.1 1908 1348.62 1796 1332.62 1684 1376.98 1574 1375.34 1458.73 1373.74 1346.73 1372.19 1238.17" fill="none" stroke="#3b4351" stroke-miterlimit="10"/><polygon id="Huns" points="1555.62 1238.17 1545.73 1124 1533.62 1010.67 1506.68 900.64 1502.16 787 1471.34 673 1465.12 563 1486.12 451 1534.62 339 1564.05 225 1559.62 111 1575.12 0 1534.24 -112 1519.62 -226 1548.12 -341 1553.11 -453 1514.47 -565.27 1514.62 -677.5 1552.12 -787.5 1593.12 -900.16 1580.1 -1010.83 1545.86 -1122.83 1633.99 -1122.83 1651.62 -1010.83 1667.62 -900.16 1646.62 -787.5 1620.62 -675.5 1630.4 -567.4 1650.62 -453.33 1676.62 -341 1700.12 -226 1689.12 -112 1714.62 -0.33 1697.12 110.73 1645.62 224.73 1616.12 339 1586.62 450.73 1538.12 562.73 1509.12 673 1551.62 787 1585.12 900 1608.62 1010.67 1609.69 1123.73 1610.76 1236.73 1613.62 1346.73 1625.12 1458.73 1599.12 1574.67 1557.59 1684 1545.65 1796 1558.62 1908 1584.62 2018.73 1571.12 2132.17 1576.62 2248 1567.62 2360 1587.12 2472 1621.12 2582 1612.12 2694 1556.12 2809 1528.62 2919 1529.62 3033 1553.62 3147 1616.07 3252 1609.25 3365 1592.66 3481 1611.01 3591.73 1612.12 3703 1598.04 3818 1564.12 3932 1534.29 4044 1602.12 4153.73 1653.62 4267 1673.62 4375 1666.12 4490 1668.12 4601.67 1625.62 4714.67 1542.12 4824.83 1476.12 4937.83 1519.62 4824.83 1550.62 4715 1376.62 4601.73 1302.12 4490 860.62 4375 1090.12 4266.73 1270.62 4154 1381.62 4043.73 1467.62 3932 1526.62 3818 1560.12 3702.73 1578.12 3591.17 1578.12 3480.67 1580.62 3364.67 1528.12 3252 1517.12 3146.67 1495.62 3033 1490.12 2918.73 1514.12 2809 1543.62 2694 1565.12 2582 1532.62 2472 1523.62 2359.73 1530.62 2247.73 1544.12 2132 1568.62 2019 1513.12 1908 1490.62 1796 1498.12 1684 1542.12 1573.73 1567.12 1459 1554.62 1347 1555.62 1238.17" fill="none" stroke="#3b4351" stroke-miterlimit="10"/><polygon id="Hitites" points="347.74 1236.73 337.24 1124 361.62 1011 400.62 900 439.62 787 658.62 673 742.62 563 835.62 451 785.62 339 750.62 225 770.62 111 800.62 -0.83 733.62 -112.27 656.62 -226.08 662.62 -341 633.62 -453 663.62 -565 786.62 -675.5 940.62 -787.5 982.62 -900.16 1042.62 -1010.83 1103.77 -1122.83 1152.07 -1122.83 1091.29 -1010.83 1025.29 -900.16 1027.29 -787.5 910.76 -675.5 823.95 -565 785.95 -453 826.62 -341 853.28 -226 910.76 -112.27 992.62 0 961.95 110.17 971.95 224.84 969.28 339 975.28 450.84 954.62 560.84 857.28 673 623.95 787 566.62 900 481.23 1011 394.24 1124 347.74 1236.73" fill="none" stroke="#3b4351" stroke-miterlimit="10"/><polygon id="Greeks" points="1131.14 3252 1118.7 3147 998.71 3033 683.72 2919 467.73 2809 287.74 2694 231.95 2582 205.28 2472 169.95 2360 149.95 2248 137.95 2132 116.62 2019 111.95 1908 95.28 1796 85.95 1684 75.42 1574 75.42 1400.67 75.42 111 142.25 225 145.25 339 155.75 451 172.25 563 202.25 673 223.25 787 251.62 900 250.62 1011 221.95 1124.84 228.6 1236.73 199.95 1346.84 217.95 1458.84 237.43 1574 262.62 1684 259.95 1796 319.29 1908 349.95 2019 401.29 2132 527.28 2248 645.95 2360 761.95 2472 965.29 2582 965.95 2694 897.95 2808.17 910.76 2918.73 1099.37 3033 1168.66 3147.09 1131.14 3252" fill="none" stroke="#3b4351" stroke-miterlimit="10"/><polygon id="Egyptians" points="1195.2 3362.31 1131.14 3252 1168.66 3147.09 1099.2 3032.73 910.76 2918.73 897.95 2808.17 965.95 2694 965.28 2581.5 761.95 2472 645.95 2360 527.28 2248 401.29 2132 349.95 2019 319.29 1908 259.95 1796 262.62 1684 238.62 1574 217.95 1459 199.95 1347 228.62 1237 221.62 1124 250.62 1011 251.62 900 223.25 787 271.57 673 265.25 563 305.74 451 341.74 339 376.24 225 440.74 111 467.73 0.91 443.74 -112 381.96 -226 242.75 -341 298.62 -453 424.24 -565 460.24 -675.5 397.24 -787.5 319.24 -900.16 319.24 -1010.83 298.62 -1122.83 1103.77 -1122.83 1042.62 -1010.83 982.62 -900.16 940.62 -787.5 786.62 -675.5 663.62 -565 633.62 -453 662.62 -341 656.62 -226.08 733.62 -112.27 800.62 -0.83 770.62 111 750.62 225 785.62 339 835.62 451 742.62 563 658.62 673 439.62 787 400.62 900 361.62 1011 302.62 1124 310.62 1237 282.62 1347 271.95 1459 305.95 1684 323.95 1795.5 432.62 1908 476.62 2018.17 451.95 2132 555.95 2248 667.28 2360 813.28 2472 968.62 2582 995.95 2694 968.62 2808.84 940.62 2917.5 1130.91 3032.73 1189.62 3147.67 1157.7 3252 1195.2 3362.31" fill="none" stroke="#3b4351" stroke-miterlimit="10"/><polygon id="Chinese" points="1610.76 1236.73 1609.69 1123.73 1608.62 1010.67 1585.12 900 1551.62 787 1509.12 673 1538.12 562.73 1586.62 450.73 1616.12 339 1645.62 224.73 1697.12 110.73 1714.62 -0.33 1689.12 -112 1700.12 -226 1676.62 -341 1650.62 -453.33 1630.62 -565 1620.62 -675.5 1646.62 -787.5 1667.62 -900.16 1651.62 -1010.83 1633.99 -1122.83 1768.79 -1122.83 1768.79 7077.83 1768.79 7192.73 1766.12 7304.83 1757.62 7416.83 1736.12 7529.73 1676.12 7641.73 1661.12 7752.83 1663.62 7866.66 1606.12 7866.66 1606.12 7752.73 1620.12 7641.83 1701.62 7529.83 1696.12 7416.67 1654.12 7304.83 1681.62 7192.83 1739.62 7077.73 1748.62 6964.67 1744.12 6852.67 1685.62 6738.83 1615.12 6628.17 1636.12 6516.83 1738.62 6402.83 1761.12 6287.83 1758.62 6176.83 1732.12 6064.83 1695.62 5950.83 1667.62 5839.83 1651.12 5722.83 1650.12 5614.83 1620.12 5503.83 1585.62 5388.73 1552.62 5274.73 1535.12 5162.83 1516.12 5051.73 1476.12 4937.83 1542.12 4824.83 1625.62 4714.67 1668.12 4601.67 1666.12 4490 1673.62 4375 1653.62 4267 1602.12 4153.73 1534.12 4043.73 1564.12 3932 1598.12 3817.73 1612.12 3703 1611.01 3591.73 1592.62 3480.73 1609.25 3365 1616.07 3252 1553.62 3147 1529.62 3033 1528.62 2918.73 1555.62 2809 1612.12 2694 1621.12 2582 1587.12 2472 1567.62 2360 1576.62 2248 1571.12 2132 1584.62 2018.73 1558.62 1908 1545.62 1795.73 1557.62 1683.73 1599.62 1574 1625.12 1458.73 1613.62 1346.73 1610.76 1236.73" fill="none" stroke="#3b4351" stroke-miterlimit="10"/><polygon id="Amorites" points="1263.29 1238.17 1240.62 1347 1322.62 1459 1294.62 1574 1242.62 1683.73 1205.62 1795.73 1176.62 1907.73 1041.62 2018.73 866.62 2132 767.62 2248 788.62 2360 890.71 2471.73 762.62 2359.73 716.62 2247.73 709.62 2132 755.62 2019 1054.29 1907.73 1156.62 1796 1173.62 1682.17 1199.62 1572.17 1138.62 1459 910.76 1347 832.62 1236.73 949.95 1124 1040.62 1010.73 1141.31 900 1225.29 786.84 1147.62 673 1085.29 563 1061.29 450.73 1028.62 338.73 971.95 224.84 961.95 110.17 992.62 0 910.76 -112.27 853.28 -226 826.62 -341 785.95 -453 823.95 -565 910.76 -675.5 1027.29 -787.5 1025.29 -900.16 1091.29 -1010.83 1152.07 -1122.83 1283.88 -1122.83 1268.62 -1010.83 1277.29 -901.16 1275.29 -787.5 1198.62 -675.5 1131.29 -565 1153.95 -453 1156.67 -341.27 1161.95 -226 1153.95 -113.16 1188.62 -0.5 1137.95 110.84 1153.29 224.17 1175.95 339 1140.62 449.5 1163.29 562.84 1217.95 672.17 1280.62 787 1241.29 899.5 1211.95 1009.5 1235.95 1124 1263.29 1238.17" fill="none" stroke="#3b4351" stroke-miterlimit="10"/><polygon id="Aegeans" points="223.25 787 202.25 673 172.25 563 155.75 451 145.25 339 142.25 225 75.42 111 75.42 -1122.83 298.62 -1122.83 319.24 -1010.83 319.24 -900.16 397.24 -787.5 460.24 -675.5 424.24 -565 298.62 -453 242.75 -341 381.96 -226 443.74 -112 467.73 0.91 440.74 111 376.24 225 341.74 339 305.74 451 265.25 563 271.57 673 223.25 787" fill="none" stroke="#3b4351" stroke-miterlimit="10"/></g><g id="Text"><g id="Iranians-2" data-name="Iranians"><path d="M1195.4,82.5h2.79V100h-2.79Z" fill="#3b4351"/><path d="M1201,82.5h6.18c2.45,0,4.43,1.25,4.43,4.5,0,2.26-1,4-2.92,4.29v0c1.77.17,2.65,1.13,2.75,3.58,0,1.15,0,2.5.1,3.55a1.89,1.89,0,0,0,.83,1.52h-3.16a3,3,0,0,1-.47-1.54c0-.52-.07-1.06-.07-1.57s0-1.1-.05-1.74c-.07-1.91-.66-2.74-2.55-2.74h-2.28V100H1201Zm5,7.79a2.58,2.58,0,0,0,2.8-2.84c0-1.87-.79-2.85-2.65-2.85h-2.38v5.69Z" fill="#3b4351"/><path d="M1217.42,82.5H1221l4.61,17.49h-2.92l-1.08-4.29h-5.12l-1.12,4.29h-2.92Zm3.73,11-2-8.62h-.05L1217,93.47Z" fill="#3b4351"/><path d="M1226.83,82.5h3.41l5.07,13h0v-13H1238V100h-3.41l-5.07-13.38h0V100h-2.65Z" fill="#3b4351"/><path d="M1240.77,82.5h2.79V100h-2.79Z" fill="#3b4351"/><path d="M1249.64,82.5h3.58l4.61,17.49h-2.92l-1.08-4.29h-5.12l-1.13,4.29h-2.91Zm3.73,11-2-8.62h0l-2.09,8.62Z" fill="#3b4351"/><path d="M1259.05,82.5h3.4l5.08,13h0v-13h2.64V100h-3.4l-5.08-13.38h0V100h-2.64Z" fill="#3b4351"/><path d="M1275.27,94.58V95c0,2.13,1,3.21,2.87,3.21a2.51,2.51,0,0,0,2.64-2.55c0-1.84-.93-2.65-2.5-3.11l-1.91-.66c-2.55-1-3.65-2.31-3.65-4.81,0-3.18,2.18-4.95,5.44-4.95,4.48,0,4.95,2.8,4.95,4.61v.39h-2.8v-.37c0-1.59-.68-2.52-2.45-2.52a2.23,2.23,0,0,0-2.35,2.52c0,1.5.76,2.26,2.63,3l1.88.69c2.48.88,3.55,2.2,3.55,4.63,0,3.72-2.25,5.27-5.78,5.27-4.34,0-5.32-2.9-5.32-5.35v-.41Z" fill="#3b4351"/></g><g id="Hittites"><g id="large"><path d="M827.56,11.5h2.8v7h5.14v-7h2.8V29h-2.8V20.86h-5.14V29h-2.8Z" fill="#3b4351"/><path d="M841.14,11.3h2.64V14h-2.64Zm0,4.51h2.64V29h-2.64Z" fill="#3b4351"/><path d="M845.28,15.81h1.81V12.06h2.65v3.75h2.15v2h-2.15v7.87c0,1.05.29,1.39,1.2,1.39a4.91,4.91,0,0,0,.95-.07v2a8.44,8.44,0,0,1-2.13.22c-1.76,0-2.67-.52-2.67-3.19V17.77h-1.81Z" fill="#3b4351"/><path d="M852.09,15.81h1.81V12.06h2.65v3.75h2.15v2h-2.15v7.87c0,1.05.29,1.39,1.2,1.39a4.91,4.91,0,0,0,1-.07v2a8.44,8.44,0,0,1-2.13.22c-1.76,0-2.67-.52-2.67-3.19V17.77h-1.81Z" fill="#3b4351"/><path d="M860.2,11.3h2.64V14H860.2Zm0,4.51h2.64V29H860.2Z" fill="#3b4351"/><path d="M864.34,15.81h1.81V12.06h2.65v3.75H871v2H868.8v7.87c0,1.05.29,1.39,1.2,1.39a4.91,4.91,0,0,0,1-.07v2a8.44,8.44,0,0,1-2.13.22c-1.76,0-2.67-.52-2.67-3.19V17.77h-1.81Z" fill="#3b4351"/><path d="M874.6,22.74v.76c0,1.77.22,4,2.21,4s2.11-2.13,2.11-2.94h2.5c0,3-1.77,4.76-4.63,4.76-2.16,0-4.83-.64-4.83-6.74,0-3.46.76-7.13,4.87-7.13,3.68,0,4.66,2.23,4.66,5.88v1.39Zm4.24-1.81v-.71c0-1.67-.54-2.94-2-2.94-1.67,0-2.21,1.67-2.21,3.38v.27Z" fill="#3b4351"/><path d="M889.72,11.5h9.46v2.35h-6.67V18.7h6.28v2.35h-6.28v5.59h6.86V29h-9.65Z" fill="#3b4351"/><path d="M901.45,15.81H904v1.54H904a3.69,3.69,0,0,1,3.16-1.88,2.85,2.85,0,0,1,3.06,2,3.59,3.59,0,0,1,3.33-2c1.87,0,3.22,1,3.22,3.5V29h-2.65V20c0-1.74-.52-2.38-1.59-2.38s-2.11.84-2.11,2.58V29H907.8V20c0-1.74-.51-2.38-1.62-2.38s-2.08.86-2.08,2.58V29h-2.65Z" fill="#3b4351"/><path d="M925.15,29.34a3,3,0,0,1-3-1.89h0v5.86h-2.65V15.81H922v1.62h0a3.12,3.12,0,0,1,3-2c3,0,4.24,2.57,4.24,7.1C929.22,28.11,927,29.34,925.15,29.34Zm-1-11.77c-1.81,0-2.23,1.84-2.23,4.68,0,3.16.39,5,2.26,5,1.49,0,2.2-1.13,2.2-4.78C926.42,19.46,926.05,17.57,924.19,17.57Z" fill="#3b4351"/><path d="M931.37,11.3H934V14h-2.65Zm0,4.51H934V29h-2.65Z" fill="#3b4351"/><path d="M936.68,15.81h2.65v2.06h0a3.26,3.26,0,0,1,3.06-2.4,1.61,1.61,0,0,1,.64.09v2.7a3.84,3.84,0,0,0-1.1-.15c-1.2,0-2.65.54-2.65,3V29h-2.65Z" fill="#3b4351"/><path d="M946.53,22.74v.76c0,1.77.22,4,2.21,4s2.11-2.13,2.11-2.94h2.5c0,3-1.77,4.76-4.63,4.76-2.16,0-4.83-.64-4.83-6.74,0-3.46.76-7.13,4.87-7.13,3.68,0,4.66,2.23,4.66,5.88v1.39Zm4.24-1.81v-.71c0-1.67-.54-2.94-2-2.94-1.67,0-2.21,1.67-2.21,3.38v.27Z" fill="#3b4351"/></g><g id="small"><path d="M832.74,47.84h1.51v1.51h-1.51Zm0,2.58h1.51V58h-1.51Z" fill="#3b4351"/><path d="M835.78,50.42h1.43v.88h0a2.17,2.17,0,0,1,1.93-1.08c1.15,0,1.88.52,1.88,2.05V58h-1.51V52.79c0-1-.27-1.36-1.06-1.36-.61,0-1.2.46-1.2,1.47V58h-1.51Z" fill="#3b4351"/><path d="M847.6,55.21c-.12,1.81-.7,2.94-2.58,2.94-2.19,0-2.8-1.61-2.8-4s.61-4,2.8-4a2.44,2.44,0,0,1,2.59,2.71H846.1c0-.7-.19-1.63-1.08-1.59-1.08,0-1.29,1.18-1.29,2.85S843.94,57,845,57c.84,0,1.15-.69,1.15-1.82Z" fill="#3b4351"/><path d="M848.8,48h1.51V58H848.8Z" fill="#3b4351"/><path d="M855.69,57.07h-.05a2.15,2.15,0,0,1-1.93,1.08c-1.12,0-1.88-.52-1.88-2.46V50.42h1.52v5.41c0,.84.36,1.12,1,1.12a1.17,1.17,0,0,0,1.23-1.26V50.42h1.52V58h-1.43Z" fill="#3b4351"/><path d="M862.42,57h0a1.61,1.61,0,0,1-1.65,1.12c-1.75,0-2.47-1.48-2.47-4.06,0-3.35,1.18-3.87,2.33-3.87a1.74,1.74,0,0,1,1.71,1.08h0V48h1.51V58h-1.43Zm-1.37-5.6c-.86,0-1.18.7-1.18,2.73,0,1.71.21,2.79,1.28,2.79s1.27-1.05,1.27-2.68C862.42,52.46,862.22,51.43,861.05,51.43Z" fill="#3b4351"/><path d="M865.37,47.84h1.52v1.51h-1.52Zm0,2.58h1.52V58h-1.52Z" fill="#3b4351"/><path d="M868.41,50.42h1.43v.88h0a2.17,2.17,0,0,1,1.93-1.08c1.15,0,1.88.52,1.88,2.05V58h-1.51V52.79c0-1-.27-1.36-1-1.36-.62,0-1.21.46-1.21,1.47V58h-1.51Z" fill="#3b4351"/><path d="M876.66,58.6a1,1,0,0,0,1.09.9A1.25,1.25,0,0,0,879,58.08V56.86h0a1.82,1.82,0,0,1-1.71,1c-1.75,0-2.26-1.72-2.26-3.8,0-1.65.25-3.88,2.4-3.88a1.67,1.67,0,0,1,1.65,1.12h0v-.92h1.43v7.17c0,1.83-.79,2.94-2.82,2.94-2.24,0-2.49-1.32-2.49-1.93Zm1.06-1.91c1.18,0,1.3-1.48,1.3-2.67s-.15-2.59-1.2-2.59-1.28,1.12-1.28,2.52S876.6,56.69,877.72,56.69Z" fill="#3b4351"/><path d="M885.34,48h3.16c1.92,0,2.76,1.21,2.76,2.92a2.71,2.71,0,0,1-2.93,3h-1.4V58h-1.59Zm1.59,4.67h1.14a1.5,1.5,0,0,0,1.59-1.73c0-1.07-.43-1.73-1.7-1.73h-1Z" fill="#3b4351"/><path d="M892.24,48h1.51v3.28l0,0a2.16,2.16,0,0,1,1.85-1c1.15,0,1.88.52,1.88,2.05V58H896V52.79c0-1-.28-1.36-1-1.36s-1.21.47-1.21,1.47V58h-1.51Z" fill="#3b4351"/><path d="M899,50.42h1.51v1.17h0a1.87,1.87,0,0,1,1.75-1.37.92.92,0,0,1,.37.06v1.54a2.24,2.24,0,0,0-.63-.08c-.69,0-1.52.3-1.52,1.7V58H899Z" fill="#3b4351"/><path d="M904.64,50.42l1.3,5.66h0l1.21-5.66h1.58l-2.07,7.81c-.61,2.06-1.07,2.34-2.64,2.3a3,3,0,0,1-.6-.05V59.27a2.05,2.05,0,0,0,.49.06c.52,0,.86-.1,1-.59l.2-.62L903,50.42Z" fill="#3b4351"/><path d="M911.11,58.6a1,1,0,0,0,1.09.9,1.25,1.25,0,0,0,1.28-1.42V56.86h0a1.82,1.82,0,0,1-1.71,1c-1.75,0-2.25-1.72-2.25-3.8,0-1.65.25-3.88,2.39-3.88a1.66,1.66,0,0,1,1.65,1.12h0v-.92H915v7.17c0,1.83-.78,2.94-2.82,2.94-2.24,0-2.49-1.32-2.49-1.93Zm1.06-1.91c1.18,0,1.31-1.48,1.31-2.67s-.16-2.59-1.21-2.59S911,52.55,911,54,911.05,56.69,912.17,56.69Z" fill="#3b4351"/><path d="M916.4,47.84h1.51v1.51H916.4Zm0,2.58h1.51V58H916.4Z" fill="#3b4351"/><path d="M924.38,56.39c0,.28.17.53.4.53a.76.76,0,0,0,.25,0v1a1.71,1.71,0,0,1-.74.18c-.68,0-1.24-.27-1.28-1h0a1.93,1.93,0,0,1-1.87,1.11c-1.22,0-2-.66-2-2.11a2.08,2.08,0,0,1,1.76-2.37l1.17-.32c.55-.16.88-.31.88-1s-.23-1.12-1-1.12c-1,0-1.15.71-1.15,1.44h-1.43c0-1.61.66-2.48,2.65-2.48,1.33,0,2.39.52,2.39,1.85ZM923,54a12.61,12.61,0,0,1-1.68.7,1.23,1.23,0,0,0-.61,1.22c0,.63.31,1.13.94,1.13.91,0,1.35-.67,1.35-1.79Z" fill="#3b4351"/><path d="M934.23,56.39c0,.28.16.53.39.53a.76.76,0,0,0,.25,0v1a1.71,1.71,0,0,1-.74.18c-.67,0-1.24-.27-1.28-1h0A2,2,0,0,1,931,58.15c-1.22,0-2-.66-2-2.11a2.07,2.07,0,0,1,1.75-2.37l1.17-.32c.55-.16.89-.31.89-1s-.24-1.12-1-1.12c-1,0-1.15.71-1.15,1.44h-1.43c0-1.61.66-2.48,2.65-2.48,1.33,0,2.4.52,2.4,1.85ZM932.8,54a13.82,13.82,0,0,1-1.68.7,1.22,1.22,0,0,0-.62,1.22c0,.63.31,1.13.94,1.13.91,0,1.36-.67,1.36-1.79Z" fill="#3b4351"/><path d="M935.76,50.42h1.43v.88h0a2.18,2.18,0,0,1,1.94-1.08c1.15,0,1.87.52,1.87,2.05V58h-1.51V52.79c0-1-.26-1.36-1-1.36-.62,0-1.2.46-1.2,1.47V58h-1.52Z" fill="#3b4351"/><path d="M946.35,57h0a1.61,1.61,0,0,1-1.65,1.12c-1.75,0-2.47-1.48-2.47-4.06,0-3.35,1.18-3.87,2.33-3.87a1.75,1.75,0,0,1,1.71,1.08h0V48h1.51V58h-1.43ZM945,51.43c-.86,0-1.18.7-1.18,2.73,0,1.71.21,2.79,1.27,2.79s1.28-1.05,1.28-2.68C946.35,52.46,946.15,51.43,945,51.43Z" fill="#3b4351"/><path d="M865.84,80.37v.21c0,1.81-.74,3.57-3.08,3.57-2.53,0-3.31-1.62-3.31-5.2s.78-5.19,3.32-5.19c2.84,0,3,2.08,3,3.13v.19h-1.6v-.17c0-.94-.28-2-1.42-2s-1.71.73-1.71,4,.52,4,1.71,4c1.34,0,1.48-1.48,1.48-2.41v-.17Z" fill="#3b4351"/><path d="M871.8,82.39c0,.28.17.53.39.53a.78.78,0,0,0,.26,0v1a1.76,1.76,0,0,1-.75.18c-.67,0-1.23-.27-1.27-1h0a1.94,1.94,0,0,1-1.88,1.11c-1.22,0-2-.66-2-2.11a2.07,2.07,0,0,1,1.75-2.37l1.18-.32c.55-.16.88-.31.88-1s-.24-1.12-1-1.12c-1,0-1.15.71-1.15,1.44h-1.43c0-1.61.66-2.48,2.65-2.48,1.33,0,2.39.52,2.39,1.85ZM870.37,80a13.82,13.82,0,0,1-1.68.7,1.23,1.23,0,0,0-.61,1.22c0,.63.3,1.13.93,1.13.91,0,1.36-.67,1.36-1.79Z" fill="#3b4351"/><path d="M876.59,84.15a1.74,1.74,0,0,1-1.71-1.08h0v3.35h-1.51v-10h1.43v.92h0a1.8,1.8,0,0,1,1.7-1.12c1.72,0,2.42,1.47,2.42,4.06C878.91,83.45,877.64,84.15,876.59,84.15ZM876,77.43c-1,0-1.27,1-1.27,2.67,0,1.81.22,2.85,1.29,2.85.85,0,1.26-.65,1.26-2.74C877.32,78.51,877.11,77.43,876,77.43Z" fill="#3b4351"/><path d="M883.32,84.15a1.74,1.74,0,0,1-1.71-1.08h0v3.35h-1.51v-10h1.43v.92h0a1.78,1.78,0,0,1,1.69-1.12c1.73,0,2.43,1.47,2.43,4.06C885.65,83.45,884.37,84.15,883.32,84.15Zm-.54-6.72c-1,0-1.28,1-1.28,2.67,0,1.81.23,2.85,1.29,2.85.85,0,1.26-.65,1.26-2.74C884.05,78.51,883.84,77.43,882.78,77.43Z" fill="#3b4351"/><path d="M886.51,80.19c0-2.36.62-4,2.8-4s2.82,1.61,2.82,4-.73,4-2.82,4S886.51,82.54,886.51,80.19Zm2.8,2.84c1.11,0,1.31-.92,1.31-2.84,0-1.67-.2-2.85-1.31-2.85S888,78.52,888,80.19C888,82.11,888.23,83,889.31,83Z" fill="#3b4351"/><path d="M897.14,83h0a1.61,1.61,0,0,1-1.65,1.12c-1.75,0-2.47-1.48-2.47-4.06,0-3.35,1.18-3.87,2.33-3.87A1.74,1.74,0,0,1,897,77.3h0V74h1.51V84h-1.43Zm-1.37-5.6c-.86,0-1.18.7-1.18,2.73,0,1.71.21,2.79,1.28,2.79s1.27-1,1.27-2.68C897.14,78.46,896.94,77.43,895.77,77.43Z" fill="#3b4351"/><path d="M899.73,80.19c0-2.36.61-4,2.8-4s2.81,1.61,2.81,4-.72,4-2.81,4S899.73,82.54,899.73,80.19Zm2.8,2.84c1.11,0,1.3-.92,1.3-2.84,0-1.67-.19-2.85-1.3-2.85s-1.29,1.18-1.29,2.85C901.24,82.11,901.45,83,902.53,83Z" fill="#3b4351"/><path d="M911.59,81.21c-.11,1.81-.7,2.94-2.58,2.94-2.18,0-2.8-1.61-2.8-4s.62-4,2.8-4a2.44,2.44,0,0,1,2.59,2.71h-1.51c0-.7-.18-1.63-1.08-1.59-1.08,0-1.29,1.18-1.29,2.85S907.93,83,909,83c.84,0,1.15-.69,1.15-1.82Z" fill="#3b4351"/><path d="M912.79,73.84h1.51v1.51h-1.51Zm0,2.58h1.51V84h-1.51Z" fill="#3b4351"/><path d="M920.77,82.39c0,.28.17.53.39.53a.78.78,0,0,0,.26,0v1a1.76,1.76,0,0,1-.75.18c-.67,0-1.23-.27-1.27-1h0a1.93,1.93,0,0,1-1.88,1.11c-1.21,0-2-.66-2-2.11a2.08,2.08,0,0,1,1.75-2.37l1.18-.32c.55-.16.88-.31.88-1s-.23-1.12-1-1.12c-1,0-1.15.71-1.15,1.44h-1.43c0-1.61.66-2.48,2.65-2.48,1.33,0,2.39.52,2.39,1.85ZM919.34,80a13.82,13.82,0,0,1-1.68.7,1.23,1.23,0,0,0-.61,1.22c0,.63.3,1.13.93,1.13.91,0,1.36-.67,1.36-1.79Z" fill="#3b4351"/></g></g><g id="Egytians"><g id="small-2" data-name="small"><path d="M514.35,18.63H512V17.28h6.31v1.35h-2.34v8.66h-1.59Z" fill="#3b4351"/><path d="M519.09,17.28h1.52v3.28l0,0a2.14,2.14,0,0,1,1.85-1c1.14,0,1.87.52,1.87,2.05v5.69h-1.51V22.12c0-1-.28-1.36-1.05-1.36-.62,0-1.2.47-1.2,1.47v5.06h-1.52Z" fill="#3b4351"/><path d="M529.68,26.4h0a2.16,2.16,0,0,1-1.94,1.08c-1.12,0-1.87-.52-1.87-2.46V19.75h1.51v5.41c0,.84.36,1.12,1,1.12A1.17,1.17,0,0,0,529.59,25V19.75h1.52v7.54h-1.43Z" fill="#3b4351"/><path d="M531.89,19.75h1V17.61h1.52v2.14h1.23v1.12h-1.23v4.5c0,.6.17.8.68.8a2.64,2.64,0,0,0,.55-.05v1.12a4.64,4.64,0,0,1-1.22.13c-1,0-1.53-.29-1.53-1.82V20.87h-1Z" fill="#3b4351"/><path d="M536.52,19.75H538v.88h0a2.13,2.13,0,0,1,1.81-1.08,1.63,1.63,0,0,1,1.75,1.15,2.07,2.07,0,0,1,1.91-1.15c1.06,0,1.83.55,1.83,2v5.73h-1.51V22.12c0-1-.3-1.36-.91-1.36s-1.21.47-1.21,1.47v5.06h-1.51V22.12c0-1-.29-1.36-.92-1.36s-1.19.49-1.19,1.47v5.06h-1.52Z" fill="#3b4351"/><path d="M546.52,23.52c0-2.35.61-4,2.8-4s2.82,1.62,2.82,4-.73,4-2.82,4S546.52,25.87,546.52,23.52Zm2.8,2.84c1.11,0,1.3-.92,1.3-2.84,0-1.67-.19-2.85-1.3-2.85S548,21.85,548,23.52C548,25.44,548.24,26.36,549.32,26.36Z" fill="#3b4351"/><path d="M556.54,22v-.2c0-.6-.21-1.16-1-1.16-.6,0-1.08.27-1.08,1s.27.83,1.07,1.11l1,.33a2,2,0,0,1,1.64,2.18c0,1.61-1.19,2.29-2.7,2.29-1.91,0-2.48-.88-2.48-2.34v-.28h1.34v.24c0,.88.3,1.35,1.18,1.35s1.23-.42,1.23-1.11a1.09,1.09,0,0,0-.82-1.11l-1.24-.43A2,2,0,0,1,553,21.63c0-1.42,1-2.08,2.58-2.08,1.92,0,2.35,1.12,2.35,2.06V22Z" fill="#3b4351"/><path d="M560.56,23.71v.44c0,1,.13,2.3,1.26,2.3S563,25.23,563,24.76h1.42a2.47,2.47,0,0,1-2.64,2.72c-1.24,0-2.76-.36-2.76-3.85,0-2,.43-4.08,2.79-4.08,2.1,0,2.66,1.28,2.66,3.37v.79Zm2.42-1v-.41c0-.95-.3-1.68-1.16-1.68s-1.26.95-1.26,1.93v.16Z" fill="#3b4351"/><path d="M569.13,17.28h1.59v10h-1.59Z" fill="#3b4351"/><path d="M572.24,17.28h1.59v10h-1.59Z" fill="#3b4351"/><path d="M575.34,17.28h1.6v10h-1.6Z" fill="#3b4351"/><path d="M581.48,19.44c0-1.12.36-1.92,1.59-2.16v.82a1,1,0,0,0-.7,1.13v.21h.7v1.85h-1.59Zm2.49,0c0-1.12.36-1.92,1.6-2.16v.82a1,1,0,0,0-.7,1.13v.21h.7v1.85H584Z" fill="#3b4351"/><path d="M587.33,17.28h5.4v1.35h-3.81V21.4h3.59v1.35h-3.59v3.19h3.93v1.35h-5.52Z" fill="#3b4351"/><path d="M595.48,27.93a1,1,0,0,0,1.09.9,1.25,1.25,0,0,0,1.27-1.42V26.19h0a1.82,1.82,0,0,1-1.71,1c-1.75,0-2.26-1.72-2.26-3.8,0-1.65.25-3.88,2.4-3.88a1.67,1.67,0,0,1,1.65,1.12h0v-.92h1.43v7.17c0,1.84-.79,2.94-2.82,2.94-2.24,0-2.49-1.31-2.49-1.93Zm1.06-1.9c1.18,0,1.3-1.49,1.3-2.68s-.15-2.59-1.2-2.59-1.28,1.12-1.28,2.52S595.42,26,596.54,26Z" fill="#3b4351"/><path d="M601.71,19.75l1.3,5.66h0l1.2-5.66h1.58l-2.07,7.82c-.6,2.06-1.06,2.34-2.63,2.29a3,3,0,0,1-.6-.05V28.6a2,2,0,0,0,.49.06c.51,0,.85-.1,1-.59l.19-.62-2.14-7.7Z" fill="#3b4351"/><path d="M609.91,27.48a1.72,1.72,0,0,1-1.71-1.08h0v3.35h-1.51v-10h1.43v.92h0a1.78,1.78,0,0,1,1.69-1.12c1.73,0,2.43,1.47,2.43,4.07C612.24,26.78,611,27.48,609.91,27.48Zm-.55-6.72c-1,0-1.27,1-1.27,2.67,0,1.81.22,2.85,1.29,2.85.85,0,1.26-.65,1.26-2.73C610.64,21.84,610.43,20.76,609.36,20.76Z" fill="#3b4351"/><path d="M612.72,19.75h1V17.61h1.51v2.14h1.23v1.12h-1.23v4.5c0,.6.17.8.69.8a2.54,2.54,0,0,0,.54-.05v1.12a4.56,4.56,0,0,1-1.21.13c-1,0-1.53-.29-1.53-1.82V20.87h-1Z" fill="#3b4351"/><path d="M617.36,17.17h1.51v1.52h-1.51Zm0,2.58h1.51v7.54h-1.51Z" fill="#3b4351"/><path d="M625.34,25.72c0,.28.17.53.39.53a.54.54,0,0,0,.25,0v1a1.55,1.55,0,0,1-.74.18c-.67,0-1.23-.27-1.27-1h0a2,2,0,0,1-1.88,1.1c-1.22,0-2-.66-2-2.11A2.08,2.08,0,0,1,621.85,23l1.18-.32c.55-.16.88-.31.88-1s-.24-1.12-1-1.12c-1,0-1.14.71-1.14,1.44H620.3c0-1.61.66-2.48,2.64-2.48,1.34,0,2.4.52,2.4,1.85Zm-1.43-2.41a12.39,12.39,0,0,1-1.68.7,1.25,1.25,0,0,0-.62,1.22c0,.63.31,1.13.94,1.13.91,0,1.36-.67,1.36-1.79Z" fill="#3b4351"/><path d="M626.88,19.75h1.43v.88h0a2.17,2.17,0,0,1,1.93-1.08c1.15,0,1.88.52,1.88,2.05v5.69h-1.52V22.12c0-1-.26-1.36-1-1.36-.61,0-1.2.46-1.2,1.47v5.06h-1.51Z" fill="#3b4351"/><path d="M637.07,17.28H639l2.89,7.46h0V17.28h1.52v10h-2l-2.9-7.65h0v7.65h-1.51Z" fill="#3b4351"/><path d="M650,25.72c0,.28.17.53.39.53a.59.59,0,0,0,.26,0v1a1.63,1.63,0,0,1-.75.18c-.67,0-1.23-.27-1.27-1h0a2,2,0,0,1-1.88,1.1c-1.22,0-2-.66-2-2.11A2.08,2.08,0,0,1,646.46,23l1.18-.32c.55-.16.88-.31.88-1s-.24-1.12-1-1.12c-1,0-1.15.71-1.15,1.44h-1.43c0-1.61.66-2.48,2.65-2.48,1.33,0,2.39.52,2.39,1.85Zm-1.43-2.41a12.39,12.39,0,0,1-1.68.7,1.24,1.24,0,0,0-.61,1.22c0,.63.3,1.13.93,1.13.91,0,1.36-.67,1.36-1.79Z" fill="#3b4351"/><path d="M654.74,27.48A1.72,1.72,0,0,1,653,26.4h0v3.35h-1.51v-10h1.43v.92h0a1.8,1.8,0,0,1,1.7-1.12c1.72,0,2.42,1.47,2.42,4.07C657.06,26.78,655.79,27.48,654.74,27.48Zm-.55-6.72c-1,0-1.27,1-1.27,2.67,0,1.81.22,2.85,1.29,2.85.85,0,1.26-.65,1.26-2.73C655.47,21.84,655.26,20.76,654.19,20.76Z" fill="#3b4351"/><path d="M657.93,23.52c0-2.35.61-4,2.8-4s2.82,1.62,2.82,4-.73,4-2.82,4S657.93,25.87,657.93,23.52Zm2.8,2.84c1.11,0,1.3-.92,1.3-2.84,0-1.67-.19-2.85-1.3-2.85s-1.29,1.18-1.29,2.85C659.44,25.44,659.65,26.36,660.73,26.36Z" fill="#3b4351"/><path d="M664.77,17.28h1.52v10h-1.52Z" fill="#3b4351"/><path d="M669.12,23.71v.44c0,1,.12,2.3,1.26,2.3s1.2-1.22,1.2-1.69H673a2.48,2.48,0,0,1-2.65,2.72c-1.23,0-2.76-.36-2.76-3.85,0-2,.44-4.08,2.79-4.08,2.1,0,2.66,1.28,2.66,3.37v.79Zm2.42-1v-.41c0-.95-.31-1.68-1.16-1.68s-1.26.95-1.26,1.93v.16Z" fill="#3b4351"/><path d="M674,23.52c0-2.35.62-4,2.8-4s2.82,1.62,2.82,4-.73,4-2.82,4S674,25.87,674,23.52Zm2.8,2.84c1.11,0,1.3-.92,1.3-2.84,0-1.67-.19-2.85-1.3-2.85s-1.29,1.18-1.29,2.85C675.51,25.44,675.72,26.36,676.8,26.36Z" fill="#3b4351"/><path d="M680.78,19.75h1.42v.88h0a2.15,2.15,0,0,1,1.93-1.08c1.15,0,1.88.52,1.88,2.05v5.69h-1.52V22.12c0-1-.26-1.36-1-1.36-.61,0-1.2.46-1.2,1.47v5.06h-1.51Z" fill="#3b4351"/><path d="M687.72,17.28h1.6v1.85a1.88,1.88,0,0,1-1.6,2.16v-.81a1.05,1.05,0,0,0,.7-1.14v-.21h-.7Zm2.49,0h1.6v1.85c0,1.12-.36,1.92-1.6,2.16v-.81c.44-.11.7-.52.7-1.14v-.21h-.7Z" fill="#3b4351"/><path d="M531,44.54c-.11,1.81-.7,2.94-2.57,2.94-2.19,0-2.8-1.61-2.8-4s.61-4,2.8-4a2.44,2.44,0,0,1,2.59,2.71h-1.51c0-.7-.19-1.63-1.08-1.59-1.08,0-1.29,1.18-1.29,2.85s.21,2.84,1.29,2.84c.84,0,1.15-.68,1.15-1.82Z" fill="#3b4351"/><path d="M531.88,43.52c0-2.35.62-4,2.8-4s2.82,1.62,2.82,4-.73,4-2.82,4S531.88,45.87,531.88,43.52Zm2.8,2.84c1.11,0,1.31-.92,1.31-2.84,0-1.67-.2-2.85-1.31-2.85s-1.29,1.18-1.29,2.85C533.39,45.44,533.6,46.36,534.68,46.36Z" fill="#3b4351"/><path d="M538.66,39.75h1.43v.88h0a2.17,2.17,0,0,1,1.93-1.08c1.15,0,1.88.52,1.88,2.05v5.69h-1.51V42.12c0-1-.27-1.36-1.06-1.36-.61,0-1.2.46-1.2,1.47v5.06h-1.51Z" fill="#3b4351"/><path d="M549.16,46.4h0a1.74,1.74,0,0,1-1.72,1.08c-1.18,0-2.31-.81-2.31-3.86,0-2.58.71-4.07,2.46-4.07a1.62,1.62,0,0,1,1.66,1.12h0v-.92h1.43v10h-1.51ZM548,40.76c-1.07,0-1.28,1.08-1.28,2.79,0,2,.41,2.73,1.18,2.73,1.18,0,1.37-1,1.37-2.85C549.24,41.81,549,40.76,548,40.76Z" fill="#3b4351"/><path d="M556,46.4h0A2.16,2.16,0,0,1,554,47.48c-1.12,0-1.87-.52-1.87-2.46V39.75h1.51v5.41c0,.84.36,1.12,1,1.12A1.17,1.17,0,0,0,555.89,45V39.75h1.52v7.54H556Z" fill="#3b4351"/><path d="M560.16,43.71v.44c0,1,.13,2.3,1.26,2.3s1.21-1.22,1.21-1.69h1.43a2.48,2.48,0,0,1-2.65,2.72c-1.23,0-2.76-.36-2.76-3.85,0-2,.43-4.08,2.79-4.08,2.1,0,2.66,1.28,2.66,3.37v.79Zm2.43-1v-.41c0-1-.31-1.68-1.17-1.68s-1.26.95-1.26,1.93v.16Z" fill="#3b4351"/><path d="M565.34,39.75h1.51v1.18h0a1.88,1.88,0,0,1,1.75-1.38.92.92,0,0,1,.37.06v1.54a2.24,2.24,0,0,0-.63-.08c-.69,0-1.52.3-1.52,1.71v4.51h-1.51Z" fill="#3b4351"/><path d="M573,42v-.2c0-.6-.21-1.16-1-1.16-.61,0-1.08.27-1.08,1s.26.83,1.06,1.11l1,.33a2,2,0,0,1,1.64,2.18c0,1.61-1.19,2.29-2.71,2.29-1.9,0-2.48-.88-2.48-2.34v-.28h1.35v.24c0,.88.29,1.35,1.18,1.35s1.23-.42,1.23-1.11a1.09,1.09,0,0,0-.83-1.11l-1.23-.43a2,2,0,0,1-1.61-2.17c0-1.42,1-2.08,2.58-2.08,1.92,0,2.35,1.12,2.35,2.06V42Z" fill="#3b4351"/><path d="M580.41,44.19v.25c0,1.22.54,1.84,1.63,1.84a1.44,1.44,0,0,0,1.52-1.46A1.69,1.69,0,0,0,582.13,43L581,42.66c-1.46-.56-2.09-1.31-2.09-2.74,0-1.82,1.25-2.83,3.11-2.83,2.56,0,2.83,1.6,2.83,2.63V40h-1.6v-.21c0-.91-.39-1.45-1.4-1.45a1.28,1.28,0,0,0-1.34,1.45c0,.85.43,1.28,1.49,1.69l1.08.39a2.54,2.54,0,0,1,2,2.65c0,2.13-1.28,3-3.3,3a2.74,2.74,0,0,1-3-3v-.24Z" fill="#3b4351"/><path d="M587.35,39.75l1.3,5.66h0l1.2-5.66h1.59l-2.08,7.82c-.6,2.06-1.06,2.34-2.63,2.29a3,3,0,0,1-.6,0V48.6a2.05,2.05,0,0,0,.49.06c.52,0,.85-.1,1-.59l.2-.62-2.15-7.7Z" fill="#3b4351"/><path d="M592.3,39.75h1.52v1.18h0a1.86,1.86,0,0,1,1.75-1.38.87.87,0,0,1,.36.06v1.54a2.18,2.18,0,0,0-.63-.08c-.69,0-1.51.3-1.51,1.71v4.51H592.3Z" fill="#3b4351"/><path d="M596.78,37.17h1.52v1.52h-1.52Zm0,2.58h1.52v7.54h-1.52Z" fill="#3b4351"/><path d="M604.77,45.72c0,.28.16.53.39.53a.57.57,0,0,0,.25,0v1a1.58,1.58,0,0,1-.74.18c-.67,0-1.23-.27-1.28-1h0a2,2,0,0,1-1.88,1.1c-1.22,0-2-.66-2-2.11A2.08,2.08,0,0,1,601.28,43l1.18-.32c.54-.16.88-.31.88-1s-.24-1.12-1-1.12c-1,0-1.15.71-1.15,1.44h-1.43c0-1.61.66-2.48,2.65-2.48,1.33,0,2.4.52,2.4,1.85Zm-1.43-2.41a12.39,12.39,0,0,1-1.68.7,1.23,1.23,0,0,0-.62,1.22c0,.63.31,1.13.94,1.13.91,0,1.36-.67,1.36-1.79Z" fill="#3b4351"/><path d="M614.61,45.72c0,.28.17.53.39.53a.54.54,0,0,0,.25,0v1a1.58,1.58,0,0,1-.74.18c-.67,0-1.23-.27-1.27-1h0a2,2,0,0,1-1.88,1.1c-1.22,0-2-.66-2-2.11A2.08,2.08,0,0,1,611.12,43l1.18-.32c.54-.16.88-.31.88-1s-.24-1.12-1-1.12c-1,0-1.15.71-1.15,1.44h-1.42c0-1.61.65-2.48,2.64-2.48,1.33,0,2.4.52,2.4,1.85Zm-1.43-2.41a12.39,12.39,0,0,1-1.68.7,1.23,1.23,0,0,0-.62,1.22c0,.63.31,1.13.94,1.13.91,0,1.36-.67,1.36-1.79Z" fill="#3b4351"/><path d="M616.15,39.75h1.42v.88h0a2.17,2.17,0,0,1,1.93-1.08c1.15,0,1.88.52,1.88,2.05v5.69h-1.52V42.12c0-1-.26-1.36-1-1.36-.61,0-1.2.46-1.2,1.47v5.06h-1.51Z" fill="#3b4351"/><path d="M626.73,46.36h0a1.6,1.6,0,0,1-1.65,1.12c-1.75,0-2.46-1.48-2.46-4.06,0-3.35,1.17-3.87,2.32-3.87a1.74,1.74,0,0,1,1.71,1.08h0V37.28h1.51v10h-1.43Zm-1.37-5.6c-.86,0-1.18.7-1.18,2.73,0,1.71.21,2.79,1.28,2.79s1.27-1.05,1.27-2.68C626.73,41.79,626.54,40.76,625.36,40.76Z" fill="#3b4351"/><path d="M633.07,37.28h5.41v1.35h-3.81V41.4h3.58v1.35h-3.58v3.19h3.92v1.35h-5.52Z" fill="#3b4351"/><path d="M639,39.75h1V37.61h1.51v2.14h1.24v1.12h-1.24v4.5c0,.6.17.8.69.8a2.64,2.64,0,0,0,.55-.05v1.12a4.64,4.64,0,0,1-1.22.13c-1,0-1.53-.29-1.53-1.82V40.87h-1Z" fill="#3b4351"/><path d="M643.6,37.28h1.51v3.28l0,0a2.16,2.16,0,0,1,1.85-1c1.15,0,1.88.52,1.88,2.05v5.69h-1.51V42.12c0-1-.28-1.36-1-1.36s-1.21.47-1.21,1.47v5.06H643.6Z" fill="#3b4351"/><path d="M650.4,37.17h1.52v1.52H650.4Zm0,2.58h1.52v7.54H650.4Z" fill="#3b4351"/><path d="M653.15,43.52c0-2.35.61-4,2.8-4s2.81,1.62,2.81,4-.72,4-2.81,4S653.15,45.87,653.15,43.52Zm2.8,2.84c1.11,0,1.3-.92,1.3-2.84,0-1.67-.19-2.85-1.3-2.85s-1.29,1.18-1.29,2.85C654.66,45.44,654.87,46.36,656,46.36Z" fill="#3b4351"/><path d="M663.17,47.48a1.72,1.72,0,0,1-1.71-1.08h0v3.35h-1.52v-10h1.43v.92h0a1.78,1.78,0,0,1,1.69-1.12c1.73,0,2.43,1.47,2.43,4.07C665.5,46.78,664.22,47.48,663.17,47.48Zm-.54-6.72c-1,0-1.28,1.05-1.28,2.67,0,1.81.23,2.85,1.29,2.85.86,0,1.26-.65,1.26-2.73C663.9,41.84,663.69,40.76,662.63,40.76Z" fill="#3b4351"/><path d="M666.73,37.17h1.51v1.52h-1.51Zm0,2.58h1.51v7.54h-1.51Z" fill="#3b4351"/><path d="M674.71,45.72c0,.28.17.53.39.53a.54.54,0,0,0,.25,0v1a1.55,1.55,0,0,1-.74.18c-.67,0-1.23-.27-1.27-1h0a2,2,0,0,1-1.88,1.1c-1.22,0-2-.66-2-2.11A2.08,2.08,0,0,1,671.22,43l1.18-.32c.54-.16.88-.31.88-1s-.24-1.12-1-1.12c-1,0-1.14.71-1.14,1.44h-1.43c0-1.61.66-2.48,2.64-2.48,1.33,0,2.4.52,2.4,1.85Zm-1.43-2.41a12.39,12.39,0,0,1-1.68.7,1.25,1.25,0,0,0-.62,1.22c0,.63.31,1.13.94,1.13.91,0,1.36-.67,1.36-1.79Z" fill="#3b4351"/><path d="M676.4,45.44H678v1.85h-1.6Z" fill="#3b4351"/><path d="M558.4,67.15a3.21,3.21,0,0,1-1.57.33c-2.3,0-3.31-1.62-3.31-5.19s1-5.2,3.31-5.2,3.31,1.62,3.31,5.2a8,8,0,0,1-.79,4l1,1.08-1,.85Zm-.84-2.62.66.66a10.32,10.32,0,0,0,.32-2.95c0-3.36-.76-4-1.71-4s-1.71.59-1.71,4,.76,4,1.71,4a1.16,1.16,0,0,0,.57-.1l-.75-.74Z" fill="#3b4351"/><path d="M565.3,66.4h0a2.15,2.15,0,0,1-1.93,1.08c-1.13,0-1.88-.52-1.88-2.46V59.75H563v5.41c0,.84.37,1.12,1,1.12A1.18,1.18,0,0,0,565.22,65V59.75h1.51v7.54H565.3Z" fill="#3b4351"/><path d="M569.49,63.71v.44c0,1,.12,2.3,1.26,2.3s1.2-1.22,1.2-1.69h1.43a2.48,2.48,0,0,1-2.65,2.72c-1.23,0-2.76-.36-2.76-3.85,0-2,.44-4.08,2.79-4.08,2.1,0,2.66,1.28,2.66,3.37v.79Zm2.42-1v-.41c0-1-.31-1.68-1.16-1.68s-1.26.95-1.26,1.93v.16Z" fill="#3b4351"/><path d="M576,63.71v.44c0,1,.12,2.3,1.26,2.3s1.2-1.22,1.2-1.69h1.43a2.48,2.48,0,0,1-2.65,2.72c-1.23,0-2.76-.36-2.76-3.85,0-2,.44-4.08,2.79-4.08,2.1,0,2.66,1.28,2.66,3.37v.79Zm2.42-1v-.41c0-1-.31-1.68-1.16-1.68s-1.26.95-1.26,1.93v.16Z" fill="#3b4351"/><path d="M581.15,59.75h1.43v.88h0a2.17,2.17,0,0,1,1.93-1.08c1.15,0,1.88.52,1.88,2.05v5.69h-1.52V62.12c0-1-.26-1.36-1-1.36-.61,0-1.2.46-1.2,1.47v5.06h-1.51Z" fill="#3b4351"/><path d="M591.34,57.28h1.59v4h3v-4h1.59v10h-1.59V62.64h-3v4.65h-1.59Z" fill="#3b4351"/><path d="M604,65.72c0,.28.17.53.39.53a.54.54,0,0,0,.25,0v1a1.58,1.58,0,0,1-.74.18c-.67,0-1.23-.27-1.27-1h0a2,2,0,0,1-1.88,1.1c-1.22,0-2-.66-2-2.11A2.08,2.08,0,0,1,600.48,63l1.18-.32c.54-.16.88-.31.88-1s-.24-1.12-1-1.12c-1,0-1.15.71-1.15,1.44h-1.42c0-1.61.65-2.48,2.64-2.48,1.33,0,2.4.52,2.4,1.85Zm-1.43-2.41a12.39,12.39,0,0,1-1.68.7,1.23,1.23,0,0,0-.62,1.22c0,.63.31,1.13.94,1.13.91,0,1.36-.67,1.36-1.79Z" fill="#3b4351"/><path d="M604.83,59.75h1V57.61h1.51v2.14h1.24v1.12h-1.24v4.5c0,.6.17.8.69.8a2.72,2.72,0,0,0,.55,0v1.12a4.69,4.69,0,0,1-1.22.13c-1,0-1.53-.29-1.53-1.82V60.87h-1Z" fill="#3b4351"/><path d="M612.65,62v-.2c0-.6-.21-1.16-1-1.16-.6,0-1.07.27-1.07,1s.26.83,1.06,1.11l1,.33a2,2,0,0,1,1.64,2.18c0,1.61-1.2,2.29-2.71,2.29-1.9,0-2.48-.88-2.48-2.34v-.28h1.35v.24c0,.88.29,1.35,1.17,1.35s1.24-.42,1.24-1.11a1.09,1.09,0,0,0-.83-1.11l-1.23-.43a2,2,0,0,1-1.61-2.17c0-1.42,1-2.08,2.57-2.08,1.92,0,2.36,1.12,2.36,2.06V62Z" fill="#3b4351"/><path d="M615.36,57.28h1.51v3.28l0,0a2.14,2.14,0,0,1,1.85-1c1.14,0,1.87.52,1.87,2.05v5.69h-1.51V62.12c0-1-.28-1.36-1-1.36s-1.21.47-1.21,1.47v5.06h-1.51Z" fill="#3b4351"/><path d="M623.4,63.71v.44c0,1,.12,2.3,1.26,2.3s1.2-1.22,1.2-1.69h1.43a2.48,2.48,0,0,1-2.64,2.72c-1.24,0-2.76-.36-2.76-3.85,0-2,.43-4.08,2.78-4.08,2.1,0,2.66,1.28,2.66,3.37v.79Zm2.42-1v-.41c0-1-.31-1.68-1.16-1.68s-1.26.95-1.26,1.93v.16Z" fill="#3b4351"/><path d="M631.83,67.48a1.72,1.72,0,0,1-1.71-1.08h0v3.35h-1.51v-10H630v.92h0a1.8,1.8,0,0,1,1.7-1.12c1.72,0,2.42,1.47,2.42,4.07C634.15,66.78,632.88,67.48,631.83,67.48Zm-.55-6.72c-1,0-1.27,1.05-1.27,2.67,0,1.81.22,2.85,1.29,2.85.85,0,1.26-.65,1.26-2.73C632.56,61.84,632.35,60.76,631.28,60.76Z" fill="#3b4351"/><path d="M638.56,62v-.2c0-.6-.21-1.16-1-1.16-.61,0-1.08.27-1.08,1s.26.83,1.06,1.11l1,.33a2,2,0,0,1,1.64,2.18c0,1.61-1.19,2.29-2.71,2.29-1.9,0-2.47-.88-2.47-2.34v-.28h1.34v.24c0,.88.29,1.35,1.18,1.35s1.23-.42,1.23-1.11a1.09,1.09,0,0,0-.83-1.11l-1.23-.43a2,2,0,0,1-1.61-2.17c0-1.42,1-2.08,2.58-2.08,1.92,0,2.35,1.12,2.35,2.06V62Z" fill="#3b4351"/><path d="M645.13,66.4h0a2.16,2.16,0,0,1-1.94,1.08c-1.12,0-1.87-.52-1.87-2.46V59.75h1.51v5.41c0,.84.36,1.12,1,1.12A1.17,1.17,0,0,0,645,65V59.75h1.52v7.54h-1.43Z" fill="#3b4351"/><path d="M647.34,59.75h1V57.61h1.52v2.14h1.23v1.12h-1.23v4.5c0,.6.16.8.68.8a2.64,2.64,0,0,0,.55,0v1.12a4.64,4.64,0,0,1-1.22.13c-1,0-1.53-.29-1.53-1.82V60.87h-1Z" fill="#3b4351"/><path d="M489,95.67h-2.38V94.33h6.32v1.34h-2.34v8.66H489Z" fill="#3b4351"/><path d="M493.71,94.33h1.51V97.6l0,0a2.15,2.15,0,0,1,1.85-1c1.15,0,1.88.51,1.88,2v5.69h-1.51V99.16c0-1-.28-1.36-1.06-1.36-.61,0-1.2.48-1.2,1.47v5.06h-1.51Z" fill="#3b4351"/><path d="M501.74,100.76v.43c0,1,.13,2.3,1.26,2.3s1.21-1.22,1.21-1.68h1.43a2.48,2.48,0,0,1-2.65,2.71c-1.23,0-2.76-.36-2.76-3.85,0-2,.44-4.07,2.79-4.07,2.1,0,2.66,1.27,2.66,3.36v.8Zm2.43-1v-.41c0-1-.31-1.68-1.17-1.68s-1.26,1-1.26,1.93v.16Z" fill="#3b4351"/><path d="M506.92,94.33h1.52v3.34h0a1.75,1.75,0,0,1,1.71-1.07c1.15,0,2.33.51,2.33,3.86,0,2.59-.72,4.06-2.47,4.06a1.61,1.61,0,0,1-1.65-1.12h0v.93h-1.43Zm2.71,9c1.06,0,1.27-1.08,1.27-2.79,0-2-.32-2.73-1.18-2.73-1.17,0-1.37,1-1.37,2.84C508.35,102.27,508.59,103.32,509.63,103.32Z" fill="#3b4351"/><path d="M515,100.76v.43c0,1,.13,2.3,1.26,2.3s1.21-1.22,1.21-1.68h1.42a2.47,2.47,0,0,1-2.64,2.71c-1.24,0-2.76-.36-2.76-3.85,0-2,.43-4.07,2.78-4.07,2.11,0,2.67,1.27,2.67,3.36v.8Zm2.42-1v-.41c0-1-.31-1.68-1.16-1.68s-1.26,1-1.26,1.93v.16Z" fill="#3b4351"/><path d="M523.39,99v-.2c0-.6-.21-1.16-1-1.16-.6,0-1.07.27-1.07,1s.26.83,1.06,1.11l1,.34a2,2,0,0,1,1.64,2.17c0,1.61-1.2,2.29-2.71,2.29-1.9,0-2.48-.88-2.48-2.34v-.28h1.35v.24c0,.88.29,1.35,1.17,1.35s1.24-.42,1.24-1.11a1.1,1.1,0,0,0-.83-1.11l-1.23-.43a2,2,0,0,1-1.61-2.17c0-1.42,1-2.07,2.57-2.07,1.92,0,2.36,1.12,2.36,2.05V99Z" fill="#3b4351"/><path d="M532.36,94.33a11.81,11.81,0,0,0-1.59,6.29,12.21,12.21,0,0,0,1.59,6.28h-1.08a10.68,10.68,0,0,1,0-12.57Z" fill="#3b4351"/><path d="M535.08,94.33h2l2.64,10h-1.67l-.62-2.45h-2.92l-.65,2.45h-1.67Zm2.13,6.27-1.15-4.93h0l-1.19,4.93Z" fill="#3b4351"/><path d="M540.42,96.79h1.43v.88h0a2.09,2.09,0,0,1,1.8-1.07,1.62,1.62,0,0,1,1.75,1.14,2.08,2.08,0,0,1,1.91-1.14c1.06,0,1.83.54,1.83,2v5.73h-1.51V99.16c0-1-.29-1.36-.91-1.36s-1.2.48-1.2,1.47v5.06h-1.52V99.16c0-1-.29-1.36-.92-1.36s-1.19.49-1.19,1.47v5.06h-1.52Z" fill="#3b4351"/><path d="M550.78,96.79h1.43v.88h0a2.09,2.09,0,0,1,1.8-1.07,1.62,1.62,0,0,1,1.75,1.14,2.08,2.08,0,0,1,1.91-1.14c1.06,0,1.83.54,1.83,2v5.73H558V99.16c0-1-.29-1.36-.91-1.36s-1.2.48-1.2,1.47v5.06h-1.52V99.16c0-1-.29-1.36-.92-1.36s-1.19.49-1.19,1.47v5.06h-1.52Z" fill="#3b4351"/><path d="M560.78,100.56c0-2.35.62-4,2.8-4s2.82,1.61,2.82,4-.73,4-2.82,4S560.78,102.91,560.78,100.56Zm2.8,2.84c1.11,0,1.3-.92,1.3-2.84,0-1.67-.19-2.84-1.3-2.84s-1.29,1.17-1.29,2.84C562.29,102.48,562.5,103.4,563.58,103.4Z" fill="#3b4351"/><path d="M567.56,96.79H569v.88h0A2.16,2.16,0,0,1,571,96.6c1.15,0,1.88.51,1.88,2v5.69h-1.52V99.16c0-1-.26-1.36-1.05-1.36-.61,0-1.2.46-1.2,1.47v5.06h-1.51Z" fill="#3b4351"/><path d="M573.56,106.9a11.8,11.8,0,0,0,1.6-6.28,12.23,12.23,0,0,0-1.6-6.29h1.08a10.68,10.68,0,0,1,0,12.57Z" fill="#3b4351"/><path d="M586.22,102.76c0,.28.17.53.39.53a.59.59,0,0,0,.26,0v1a1.63,1.63,0,0,1-.75.18c-.67,0-1.23-.26-1.27-1h0a2,2,0,0,1-1.88,1.1c-1.22,0-2-.65-2-2.11a2.08,2.08,0,0,1,1.75-2.37l1.18-.32c.55-.16.88-.31.88-1s-.24-1.12-1-1.12c-1,0-1.15.72-1.15,1.44h-1.43c0-1.61.66-2.47,2.65-2.47,1.33,0,2.39.51,2.39,1.84Zm-1.43-2.41a11.23,11.23,0,0,1-1.68.7,1.24,1.24,0,0,0-.61,1.22c0,.63.3,1.13.93,1.13.91,0,1.36-.67,1.36-1.79Z" fill="#3b4351"/><path d="M587.09,96.79h1V94.65h1.52v2.14h1.23v1.12h-1.23v4.5c0,.6.16.8.68.8a3.78,3.78,0,0,0,.55,0v1.12a5.17,5.17,0,0,1-1.22.12c-1,0-1.53-.29-1.53-1.82V97.91h-1Z" fill="#3b4351"/><path d="M595,94.33h1.51V97.6l0,0a2.15,2.15,0,0,1,1.85-1c1.15,0,1.88.51,1.88,2v5.69h-1.51V99.16c0-1-.28-1.36-1-1.36s-1.21.48-1.21,1.47v5.06H595Z" fill="#3b4351"/><path d="M603.05,100.76v.43c0,1,.12,2.3,1.26,2.3s1.2-1.22,1.2-1.68h1.43a2.48,2.48,0,0,1-2.65,2.71c-1.23,0-2.76-.36-2.76-3.85,0-2,.44-4.07,2.79-4.07,2.1,0,2.66,1.27,2.66,3.36v.8Zm2.42-1v-.41c0-1-.31-1.68-1.16-1.68s-1.26,1-1.26,1.93v.16Z" fill="#3b4351"/><path d="M608.3,94.21h1.51v1.52H608.3Zm0,2.58h1.51v7.54H608.3Z" fill="#3b4351"/><path d="M612.85,105a1,1,0,0,0,1.09.9,1.25,1.25,0,0,0,1.27-1.42v-1.22h0a1.82,1.82,0,0,1-1.71,1c-1.75,0-2.26-1.72-2.26-3.79,0-1.66.25-3.88,2.4-3.88a1.66,1.66,0,0,1,1.65,1.12h0v-.93h1.43V104c0,1.84-.79,2.94-2.82,2.94-2.24,0-2.49-1.31-2.49-1.93Zm1.06-1.9c1.18,0,1.3-1.49,1.3-2.68s-.15-2.59-1.2-2.59-1.28,1.12-1.28,2.52S612.79,103.07,613.91,103.07Z" fill="#3b4351"/><path d="M618.07,94.33h1.51V97.6l0,0a2.15,2.15,0,0,1,1.85-1c1.15,0,1.88.51,1.88,2v5.69h-1.51V99.16c0-1-.28-1.36-1.05-1.36s-1.21.48-1.21,1.47v5.06h-1.51Z" fill="#3b4351"/><path d="M624.13,96.79h1V94.65h1.51v2.14h1.23v1.12h-1.23v4.5c0,.6.17.8.69.8a3.74,3.74,0,0,0,.54,0v1.12a5.17,5.17,0,0,1-1.22.12c-1,0-1.52-.29-1.52-1.82V97.91h-1Z" fill="#3b4351"/><path d="M631.76,100.56c0-2.35.62-4,2.8-4s2.82,1.61,2.82,4-.73,4-2.82,4S631.76,102.91,631.76,100.56Zm2.8,2.84c1.11,0,1.3-.92,1.3-2.84,0-1.67-.19-2.84-1.3-2.84s-1.29,1.17-1.29,2.84C633.27,102.48,633.48,103.4,634.56,103.4Z" fill="#3b4351"/><path d="M639,97.91h-1V96.79h1v-.7c0-1.41.68-1.88,1.92-1.88a6.2,6.2,0,0,1,.82.05v1.16h-.42c-.56,0-.81.21-.81.71v.66h1.23v1.12h-1.23v6.42H639Z" fill="#3b4351"/><path d="M649,99v-.2c0-.6-.21-1.16-1-1.16-.6,0-1.08.27-1.08,1s.27.83,1.07,1.11l1,.34a2,2,0,0,1,1.63,2.17c0,1.61-1.19,2.29-2.7,2.29-1.9,0-2.48-.88-2.48-2.34v-.28h1.35v.24c0,.88.29,1.35,1.17,1.35s1.24-.42,1.24-1.11a1.1,1.1,0,0,0-.83-1.11l-1.23-.43a2,2,0,0,1-1.61-2.17c0-1.42,1-2.07,2.57-2.07,1.92,0,2.36,1.12,2.36,2.05V99Z" fill="#3b4351"/><path d="M655,104.52a1.73,1.73,0,0,1-1.71-1.07h0v3.34h-1.51v-10h1.43v.93h0a1.76,1.76,0,0,1,1.69-1.12c1.73,0,2.43,1.47,2.43,4.06C657.33,103.82,656.05,104.52,655,104.52Zm-.55-6.72c-1,0-1.27,1-1.27,2.68,0,1.8.22,2.84,1.29,2.84.85,0,1.26-.65,1.26-2.73C655.73,98.88,655.52,97.8,654.45,97.8Z" fill="#3b4351"/><path d="M658.56,94.33h1.51v10h-1.51Z" fill="#3b4351"/><path d="M662.9,100.76v.43c0,1,.12,2.3,1.26,2.3s1.2-1.22,1.2-1.68h1.43a2.48,2.48,0,0,1-2.65,2.71c-1.23,0-2.76-.36-2.76-3.85,0-2,.44-4.07,2.79-4.07,2.1,0,2.66,1.27,2.66,3.36v.8Zm2.42-1v-.41c0-1-.31-1.68-1.16-1.68s-1.26,1-1.26,1.93v.16Z" fill="#3b4351"/><path d="M668.08,96.79h1.42v.88h0a2.15,2.15,0,0,1,1.93-1.07c1.15,0,1.88.51,1.88,2v5.69h-1.52V99.16c0-1-.26-1.36-1.05-1.36-.61,0-1.2.46-1.2,1.47v5.06h-1.51Z" fill="#3b4351"/><path d="M678.66,103.4h0a1.61,1.61,0,0,1-1.65,1.12c-1.75,0-2.47-1.48-2.47-4.06,0-3.35,1.18-3.86,2.33-3.86a1.74,1.74,0,0,1,1.71,1.07h0V94.33h1.51v10h-1.43Zm-1.37-5.6c-.86,0-1.18.7-1.18,2.73,0,1.71.21,2.79,1.28,2.79s1.27-1,1.27-2.68C678.66,98.84,678.46,97.8,677.29,97.8Z" fill="#3b4351"/><path d="M681.25,100.56c0-2.35.62-4,2.8-4s2.82,1.61,2.82,4-.73,4-2.82,4S681.25,102.91,681.25,100.56Zm2.8,2.84c1.11,0,1.3-.92,1.3-2.84,0-1.67-.19-2.84-1.3-2.84s-1.29,1.17-1.29,2.84C682.76,102.48,683,103.4,684.05,103.4Z" fill="#3b4351"/><path d="M691.88,103.45h0a2.15,2.15,0,0,1-1.93,1.07c-1.12,0-1.88-.51-1.88-2.46V96.79h1.52v5.41c0,.84.36,1.12,1,1.12a1.17,1.17,0,0,0,1.23-1.26V96.79h1.52v7.54h-1.43Z" fill="#3b4351"/><path d="M694.76,96.79h1.51V98h0a1.87,1.87,0,0,1,1.75-1.37.89.89,0,0,1,.36.05v1.54a2.18,2.18,0,0,0-.63-.08c-.68,0-1.51.31-1.51,1.71v4.51h-1.51Z" fill="#3b4351"/><path d="M698,102.48h1.6v1.85H698Z" fill="#3b4351"/></g></g><g id="Amorites-2" data-name="Amorites"><path d="M1010,43.23h5.66c2.62,0,4.71,1.17,4.71,4.24,0,2.1-.86,3.43-2.57,4v0c1.91.35,3.13,1.5,3.13,4.46s-2.11,4.78-5.39,4.78H1010Zm5,7.37a2.45,2.45,0,0,0,2.57-2.77c0-2.08-1.25-2.5-2.81-2.5h-2V50.6Zm.56,8c1.67,0,2.58-1.06,2.58-3.09a2.65,2.65,0,0,0-2.75-3h-2.59v6.06Z" fill="#3b4351"/><path d="M1031.64,58c0,.49.29.93.68.93a1.06,1.06,0,0,0,.45-.07v1.71a2.86,2.86,0,0,1-1.3.32c-1.18,0-2.16-.47-2.23-1.74h0a3.41,3.41,0,0,1-3.29,1.94c-2.13,0-3.43-1.15-3.43-3.7,0-2.94,1.3-3.56,3.07-4.15l2-.56c1-.27,1.55-.54,1.55-1.69s-.42-2-1.82-2c-1.76,0-2,1.25-2,2.52h-2.5c0-2.81,1.16-4.33,4.64-4.33,2.32,0,4.19.9,4.19,3.23Zm-2.5-4.22A20.5,20.5,0,0,1,1026.2,55a2.17,2.17,0,0,0-1.08,2.13c0,1.1.54,2,1.64,2,1.59,0,2.38-1.18,2.38-3.14Z" fill="#3b4351"/><path d="M1034.33,43.23H1037v5.85h0a3,3,0,0,1,3-1.88c2,0,4.06.9,4.06,6.76,0,4.53-1.25,7.11-4.31,7.11a2.83,2.83,0,0,1-2.89-2h-.05v1.61h-2.5ZM1039.06,59c1.86,0,2.23-1.89,2.23-4.88,0-3.55-.56-4.78-2.06-4.78-2.06,0-2.4,1.82-2.4,5C1036.83,57.12,1037.25,59,1039.06,59Z" fill="#3b4351"/><path d="M1047.58,47.54l2.28,9.9h.05l2.11-9.9h2.77l-3.63,13.67c-1.05,3.61-1.86,4.1-4.6,4a4.76,4.76,0,0,1-1.06-.1V63a3.65,3.65,0,0,0,.86.09c.91,0,1.49-.17,1.79-1l.34-1.08-3.75-13.48Z" fill="#3b4351"/><path d="M1056.38,43.23H1059V60.72h-2.65Z" fill="#3b4351"/><path d="M1061.18,54.13c0-4.12,1.08-6.93,4.9-6.93S1071,50,1071,54.13s-1.28,6.94-4.93,6.94S1061.18,58.25,1061.18,54.13Zm4.9,5c1.94,0,2.28-1.62,2.28-5,0-2.91-.34-5-2.28-5s-2.25,2.06-2.25,5C1063.83,57.49,1064.2,59.11,1066.08,59.11Z" fill="#3b4351"/><path d="M1073,47.54h2.5v1.54h.07A3.78,3.78,0,0,1,1079,47.2c2,0,3.29.9,3.29,3.57v9.95h-2.65v-9c0-1.76-.46-2.38-1.84-2.38-1.07,0-2.1.81-2.1,2.58v8.84H1073Z" fill="#3b4351"/><path d="M1085,43h2.64v2.65H1085Zm0,4.51h2.64V60.72H1085Z" fill="#3b4351"/><path d="M1098.91,58c0,.49.3.93.69.93a1,1,0,0,0,.44-.07v1.71a2.83,2.83,0,0,1-1.3.32c-1.18,0-2.16-.47-2.23-1.74h0a3.4,3.4,0,0,1-3.28,1.94c-2.13,0-3.43-1.15-3.43-3.7,0-2.94,1.3-3.56,3.06-4.15l2.06-.56c1-.27,1.54-.54,1.54-1.69s-.41-2-1.81-2c-1.77,0-2,1.25-2,2.52h-2.5c0-2.81,1.15-4.33,4.63-4.33,2.33,0,4.19.9,4.19,3.23Zm-2.5-4.22a20,20,0,0,1-2.94,1.23,2.17,2.17,0,0,0-1.08,2.13c0,1.1.54,2,1.65,2,1.59,0,2.37-1.18,2.37-3.14Z" fill="#3b4351"/><path d="M1101.6,47.54h2.5v1.54h.08a3.78,3.78,0,0,1,3.38-1.88c2,0,3.28.9,3.28,3.57v9.95h-2.64v-9c0-1.76-.47-2.38-1.84-2.38-1.08,0-2.11.81-2.11,2.58v8.84h-2.65Z" fill="#3b4351"/><path d="M1119.07,51.39V51c0-1-.36-2-1.74-2-1,0-1.88.47-1.88,1.72,0,1.05.46,1.44,1.86,1.93l1.69.59c2,.66,2.87,1.71,2.87,3.8,0,2.82-2.08,4-4.73,4-3.33,0-4.34-1.55-4.34-4.1v-.49h2.35v.42c0,1.54.52,2.35,2.06,2.35s2.16-.73,2.16-1.93a1.91,1.91,0,0,0-1.45-1.94l-2.15-.76c-2-.66-2.82-1.69-2.82-3.8,0-2.47,1.76-3.62,4.51-3.62,3.35,0,4.11,2,4.11,3.6v.59Z" fill="#3b4351"/></g><g id="Ageans"><g id="Title"><g id="small-3" data-name="small"><path d="M111.73,16.93c0,.28.17.53.39.53a.54.54,0,0,0,.25,0v1a1.55,1.55,0,0,1-.74.18c-.67,0-1.23-.26-1.27-1h0a2,2,0,0,1-1.88,1.11c-1.22,0-2-.66-2-2.12a2.08,2.08,0,0,1,1.75-2.37l1.18-.32c.54-.15.88-.31.88-1s-.24-1.12-1-1.12c-1,0-1.14.72-1.14,1.45h-1.43c0-1.61.65-2.48,2.64-2.48,1.33,0,2.4.52,2.4,1.85Zm-1.43-2.41a11.23,11.23,0,0,1-1.68.7,1.23,1.23,0,0,0-.62,1.22c0,.63.31,1.14.94,1.14.91,0,1.36-.68,1.36-1.8Z" fill="#3b4351"/><path d="M113.27,11h1.51v1.18h0a1.85,1.85,0,0,1,1.75-1.37.89.89,0,0,1,.36.05v1.54a2.18,2.18,0,0,0-.63-.08c-.68,0-1.51.31-1.51,1.71V18.5h-1.51Z" fill="#3b4351"/><path d="M117,11h1V8.82h1.51V11h1.24v1.12h-1.24v4.5c0,.6.17.8.69.8a2.81,2.81,0,0,0,.55,0v1.12a5.23,5.23,0,0,1-1.22.12c-1,0-1.53-.29-1.53-1.82V12.08h-1Z" fill="#3b4351"/><path d="M121.72,16.65h1.6V18.5a1.88,1.88,0,0,1-1.6,2.16v-.82c.44-.11.7-.51.7-1.13V18.5h-.7Z" fill="#3b4351"/><path d="M132.71,16.93c0,.28.17.53.4.53a.57.57,0,0,0,.25,0v1a1.58,1.58,0,0,1-.74.18c-.68,0-1.24-.26-1.28-1h0a1.94,1.94,0,0,1-1.87,1.11c-1.22,0-2-.66-2-2.12a2.08,2.08,0,0,1,1.75-2.37l1.17-.32c.55-.15.89-.31.89-1s-.24-1.12-1-1.12c-1,0-1.15.72-1.15,1.45h-1.43c0-1.61.66-2.48,2.65-2.48,1.33,0,2.39.52,2.39,1.85Zm-1.42-2.41a11.23,11.23,0,0,1-1.68.7,1.23,1.23,0,0,0-.62,1.22c0,.63.31,1.14.94,1.14.91,0,1.36-.68,1.36-1.8Z" fill="#3b4351"/><path d="M134.25,11h1.52v1.18h0a1.87,1.87,0,0,1,1.75-1.37.94.94,0,0,1,.37.05v1.54a2.24,2.24,0,0,0-.63-.08c-.69,0-1.51.31-1.51,1.71V18.5h-1.52Z" fill="#3b4351"/><path d="M143.66,15.75c-.11,1.81-.7,2.95-2.57,2.95-2.19,0-2.81-1.61-2.81-4s.62-4,2.81-4a2.43,2.43,0,0,1,2.59,2.7h-1.52c0-.7-.18-1.62-1.07-1.58-1.08,0-1.29,1.17-1.29,2.84s.21,2.85,1.29,2.85c.84,0,1.14-.69,1.14-1.83Z" fill="#3b4351"/><path d="M144.71,8.5h1.51v3.28l0,0a2.18,2.18,0,0,1,1.85-1c1.15,0,1.88.52,1.88,2V18.5h-1.51V13.33c0-1-.28-1.36-1-1.36s-1.21.48-1.21,1.47V18.5h-1.51Z" fill="#3b4351"/><path d="M151.51,8.39H153V9.9h-1.52Zm0,2.57H153V18.5h-1.52Z" fill="#3b4351"/><path d="M153.88,11h1V8.82h1.51V11h1.23v1.12h-1.23v4.5c0,.6.17.8.69.8a2.7,2.7,0,0,0,.54,0v1.12a5.17,5.17,0,0,1-1.22.12c-1,0-1.52-.29-1.52-1.82V12.08h-1Z" fill="#3b4351"/><path d="M159.75,14.93v.43c0,1,.12,2.3,1.26,2.3s1.2-1.22,1.2-1.68h1.43A2.48,2.48,0,0,1,161,18.7c-1.23,0-2.76-.37-2.76-3.86,0-2,.44-4.07,2.79-4.07,2.1,0,2.66,1.27,2.66,3.36v.8Zm2.42-1v-.4c0-1-.31-1.69-1.16-1.69s-1.26,1-1.26,1.94v.15Z" fill="#3b4351"/><path d="M170,15.75c-.11,1.81-.7,2.95-2.58,2.95-2.18,0-2.8-1.61-2.8-4s.62-4,2.8-4a2.43,2.43,0,0,1,2.59,2.7h-1.51c0-.7-.18-1.62-1.08-1.58-1.08,0-1.29,1.17-1.29,2.84s.21,2.85,1.29,2.85c.84,0,1.15-.69,1.15-1.83Z" fill="#3b4351"/><path d="M170.47,11h1V8.82H173V11h1.23v1.12H173v4.5c0,.6.17.8.68.8a2.75,2.75,0,0,0,.55,0v1.12a5.17,5.17,0,0,1-1.22.12c-1,0-1.52-.29-1.52-1.82V12.08h-1Z" fill="#3b4351"/><path d="M178.89,17.62h0a2.17,2.17,0,0,1-1.93,1.08c-1.12,0-1.88-.52-1.88-2.47V11h1.52v5.41c0,.84.36,1.12,1,1.12a1.17,1.17,0,0,0,1.23-1.26V11h1.51V18.5h-1.42Z" fill="#3b4351"/><path d="M181.77,11h1.51v1.18h0a1.85,1.85,0,0,1,1.75-1.37.89.89,0,0,1,.36.05v1.54a2.18,2.18,0,0,0-.63-.08c-.68,0-1.51.31-1.51,1.71V18.5h-1.51Z" fill="#3b4351"/><path d="M187.4,14.93v.43c0,1,.12,2.3,1.26,2.3s1.2-1.22,1.2-1.68h1.43a2.48,2.48,0,0,1-2.65,2.72c-1.23,0-2.76-.37-2.76-3.86,0-2,.44-4.07,2.79-4.07,2.1,0,2.66,1.27,2.66,3.36v.8Zm2.42-1v-.4c0-1-.31-1.69-1.16-1.69s-1.26,1-1.26,1.94v.15Z" fill="#3b4351"/><path d="M200.88,16.93c0,.28.17.53.39.53a.54.54,0,0,0,.25,0v1a1.55,1.55,0,0,1-.74.18c-.67,0-1.23-.26-1.27-1h0a2,2,0,0,1-1.88,1.11c-1.22,0-2-.66-2-2.12a2.08,2.08,0,0,1,1.75-2.37l1.18-.32c.54-.15.88-.31.88-1s-.24-1.12-1-1.12c-1,0-1.14.72-1.14,1.45h-1.43c0-1.61.66-2.48,2.64-2.48,1.33,0,2.4.52,2.4,1.85Zm-1.43-2.41a11.23,11.23,0,0,1-1.68.7,1.25,1.25,0,0,0-.62,1.22c0,.63.31,1.14.94,1.14.91,0,1.36-.68,1.36-1.8Z" fill="#3b4351"/><path d="M202.42,11h1.43v.89h0a2.15,2.15,0,0,1,1.93-1.08c1.15,0,1.88.52,1.88,2V18.5h-1.52V13.33c0-1-.26-1.36-1.05-1.36-.61,0-1.2.46-1.2,1.47V18.5h-1.51Z" fill="#3b4351"/><path d="M213,17.58h0a1.6,1.6,0,0,1-1.65,1.12c-1.75,0-2.46-1.49-2.46-4.07,0-3.34,1.17-3.86,2.32-3.86a1.73,1.73,0,0,1,1.71,1.08h0V8.5h1.51v10H213ZM211.63,12c-.85,0-1.18.7-1.18,2.73,0,1.71.21,2.79,1.28,2.79s1.27-1,1.27-2.67C213,13,212.81,12,211.63,12Z" fill="#3b4351"/><path d="M222.49,13.16V13c0-.61-.21-1.17-1-1.17-.6,0-1.08.27-1.08,1s.27.82,1.07,1.1l1,.34a2,2,0,0,1,1.64,2.17c0,1.61-1.19,2.3-2.7,2.3-1.91,0-2.48-.89-2.48-2.34v-.28h1.34v.23c0,.89.3,1.35,1.18,1.35s1.23-.42,1.23-1.11a1.09,1.09,0,0,0-.82-1.1L220.6,15A2,2,0,0,1,219,12.84c0-1.41,1-2.07,2.58-2.07,1.92,0,2.35,1.12,2.35,2.06v.33Z" fill="#3b4351"/><path d="M230.15,16.93c0,.28.17.53.4.53a.57.57,0,0,0,.25,0v1a1.58,1.58,0,0,1-.74.18c-.68,0-1.24-.26-1.28-1h0a1.94,1.94,0,0,1-1.87,1.11c-1.22,0-2-.66-2-2.12a2.09,2.09,0,0,1,1.75-2.37l1.18-.32c.55-.15.88-.31.88-1s-.23-1.12-1-1.12c-1,0-1.15.72-1.15,1.45h-1.43c0-1.61.66-2.48,2.65-2.48,1.33,0,2.39.52,2.39,1.85Zm-1.43-2.41a10.81,10.81,0,0,1-1.68.7,1.24,1.24,0,0,0-.61,1.22c0,.63.31,1.14.94,1.14.91,0,1.35-.68,1.35-1.8Z" fill="#3b4351"/><path d="M231.69,11h1.43v.89h0a2.15,2.15,0,0,1,1.93-1.08c1.15,0,1.88.52,1.88,2V18.5h-1.51V13.33c0-1-.27-1.36-1.05-1.36-.62,0-1.21.46-1.21,1.47V18.5h-1.51Z" fill="#3b4351"/><path d="M238.49,8.39H240V9.9h-1.52Zm0,2.57H240V18.5h-1.52Z" fill="#3b4351"/><path d="M240.86,11h1V8.82h1.51V11h1.23v1.12h-1.23v4.5c0,.6.17.8.69.8a2.7,2.7,0,0,0,.54,0v1.12a5.17,5.17,0,0,1-1.22.12c-1,0-1.52-.29-1.52-1.82V12.08h-1Z" fill="#3b4351"/><path d="M245.49,8.39H247V9.9h-1.52Zm0,2.57H247V18.5h-1.52Z" fill="#3b4351"/><path d="M251.78,13.16V13c0-.61-.21-1.17-1-1.17-.61,0-1.08.27-1.08,1s.26.82,1.06,1.1l1,.34a2,2,0,0,1,1.64,2.17c0,1.61-1.19,2.3-2.71,2.3-1.9,0-2.47-.89-2.47-2.34v-.28h1.34v.23c0,.89.29,1.35,1.18,1.35s1.23-.42,1.23-1.11a1.09,1.09,0,0,0-.83-1.1L249.89,15a2,2,0,0,1-1.61-2.17c0-1.41,1-2.07,2.58-2.07,1.92,0,2.35,1.12,2.35,2.06v.33Z" fill="#3b4351"/><path d="M259.44,16.93c0,.28.17.53.39.53a.54.54,0,0,0,.25,0v1a1.55,1.55,0,0,1-.74.18c-.67,0-1.23-.26-1.27-1h0a2,2,0,0,1-1.88,1.11c-1.22,0-2-.66-2-2.12A2.08,2.08,0,0,1,256,14.21l1.18-.32c.55-.15.88-.31.88-1s-.24-1.12-1-1.12c-1,0-1.14.72-1.14,1.45H254.4c0-1.61.66-2.48,2.64-2.48,1.34,0,2.4.52,2.4,1.85ZM258,14.52a11.23,11.23,0,0,1-1.68.7,1.25,1.25,0,0,0-.62,1.22c0,.63.31,1.14.94,1.14.91,0,1.36-.68,1.36-1.8Z" fill="#3b4351"/><path d="M260.31,11h1V8.82h1.51V11h1.24v1.12h-1.24v4.5c0,.6.17.8.69.8a2.75,2.75,0,0,0,.55,0v1.12a5.17,5.17,0,0,1-1.22.12c-1,0-1.53-.29-1.53-1.82V12.08h-1Z" fill="#3b4351"/><path d="M264.94,8.39h1.51V9.9h-1.51Zm0,2.57h1.51V18.5h-1.51Z" fill="#3b4351"/><path d="M267.68,14.73c0-2.35.62-4,2.8-4s2.82,1.61,2.82,4-.73,4-2.82,4S267.68,17.09,267.68,14.73Zm2.8,2.85c1.11,0,1.31-.93,1.31-2.85,0-1.67-.2-2.84-1.31-2.84s-1.28,1.17-1.28,2.84C269.2,16.65,269.41,17.58,270.48,17.58Z" fill="#3b4351"/><path d="M274.46,11h1.43v.89h0a2.15,2.15,0,0,1,1.93-1.08c1.15,0,1.88.52,1.88,2V18.5h-1.51V13.33c0-1-.27-1.36-1.05-1.36-.62,0-1.21.46-1.21,1.47V18.5h-1.51Z" fill="#3b4351"/><path d="M281.35,16.65h1.59V18.5c0,1.12-.36,1.92-1.59,2.16v-.82a1,1,0,0,0,.7-1.13V18.5h-.7Z" fill="#3b4351"/><path d="M292.34,16.93c0,.28.17.53.39.53a.54.54,0,0,0,.25,0v1a1.55,1.55,0,0,1-.74.18c-.67,0-1.23-.26-1.27-1h0a2,2,0,0,1-1.88,1.11c-1.22,0-2-.66-2-2.12a2.08,2.08,0,0,1,1.75-2.37l1.18-.32c.54-.15.88-.31.88-1s-.24-1.12-1-1.12c-1,0-1.14.72-1.14,1.45H287.3c0-1.61.65-2.48,2.64-2.48,1.33,0,2.4.52,2.4,1.85Zm-1.43-2.41a11.23,11.23,0,0,1-1.68.7,1.25,1.25,0,0,0-.62,1.22c0,.63.31,1.14.94,1.14.91,0,1.36-.68,1.36-1.8Z" fill="#3b4351"/><path d="M293.88,11h1.43v.89h0a2.15,2.15,0,0,1,1.93-1.08c1.15,0,1.88.52,1.88,2V18.5h-1.52V13.33c0-1-.26-1.36-1.05-1.36-.61,0-1.2.46-1.2,1.47V18.5h-1.51Z" fill="#3b4351"/><path d="M304.46,17.58h0a1.6,1.6,0,0,1-1.65,1.12c-1.75,0-2.46-1.49-2.46-4.07,0-3.34,1.17-3.86,2.32-3.86a1.73,1.73,0,0,1,1.71,1.08h0V8.5h1.51v10h-1.43ZM303.09,12c-.85,0-1.18.7-1.18,2.73,0,1.71.21,2.79,1.28,2.79s1.27-1,1.27-2.67C304.46,13,304.27,12,303.09,12Z" fill="#3b4351"/><path d="M315.79,15.75c-.11,1.81-.7,2.95-2.58,2.95-2.18,0-2.8-1.61-2.8-4s.62-4,2.8-4a2.43,2.43,0,0,1,2.59,2.7h-1.51c0-.7-.18-1.62-1.08-1.58-1.08,0-1.29,1.17-1.29,2.84s.21,2.85,1.29,2.85c.84,0,1.15-.69,1.15-1.83Z" fill="#3b4351"/><path d="M316.63,14.73c0-2.35.61-4,2.8-4s2.81,1.61,2.81,4-.73,4-2.81,4S316.63,17.09,316.63,14.73Zm2.8,2.85c1.1,0,1.3-.93,1.3-2.85,0-1.67-.2-2.84-1.3-2.84s-1.29,1.17-1.29,2.84C318.14,16.65,318.35,17.58,319.43,17.58Z" fill="#3b4351"/><path d="M323.4,11h1.43v.89h0a2.16,2.16,0,0,1,1.94-1.08c1.14,0,1.87.52,1.87,2V18.5h-1.51V13.33c0-1-.27-1.36-1.05-1.36-.62,0-1.21.46-1.21,1.47V18.5H323.4Z" fill="#3b4351"/><path d="M333.39,13.16V13c0-.61-.21-1.17-1-1.17-.6,0-1.08.27-1.08,1s.27.82,1.07,1.1l1,.34A2,2,0,0,1,335,16.4c0,1.61-1.19,2.3-2.7,2.3-1.91,0-2.48-.89-2.48-2.34v-.28h1.34v.23c0,.89.3,1.35,1.18,1.35s1.23-.42,1.23-1.11a1.09,1.09,0,0,0-.82-1.1L331.49,15a2,2,0,0,1-1.61-2.17c0-1.41,1-2.07,2.58-2.07,1.92,0,2.35,1.12,2.35,2.06v.33Z" fill="#3b4351"/><path d="M335.43,11h1V8.82H338V11h1.23v1.12H338v4.5c0,.6.16.8.68.8a2.75,2.75,0,0,0,.55,0v1.12a5.17,5.17,0,0,1-1.22.12c-1,0-1.53-.29-1.53-1.82V12.08h-1Z" fill="#3b4351"/><path d="M340,11h1.51v1.18h0a1.87,1.87,0,0,1,1.75-1.37.94.94,0,0,1,.37.05v1.54a2.24,2.24,0,0,0-.63-.08c-.69,0-1.52.31-1.52,1.71V18.5H340Z" fill="#3b4351"/><path d="M348.25,17.62h0a2.17,2.17,0,0,1-1.93,1.08c-1.12,0-1.88-.52-1.88-2.47V11h1.51v5.41c0,.84.37,1.12,1,1.12a1.17,1.17,0,0,0,1.23-1.26V11h1.51V18.5h-1.43Z" fill="#3b4351"/><path d="M356.22,15.75c-.11,1.81-.7,2.95-2.58,2.95-2.18,0-2.8-1.61-2.8-4s.62-4,2.8-4a2.43,2.43,0,0,1,2.59,2.7h-1.51c0-.7-.18-1.62-1.08-1.58-1.08,0-1.29,1.17-1.29,2.84s.21,2.85,1.29,2.85c.84,0,1.15-.69,1.15-1.83Z" fill="#3b4351"/><path d="M356.68,11h1V8.82h1.51V11h1.23v1.12h-1.23v4.5c0,.6.17.8.68.8a2.75,2.75,0,0,0,.55,0v1.12a5.17,5.17,0,0,1-1.22.12c-1,0-1.52-.29-1.52-1.82V12.08h-1Z" fill="#3b4351"/><path d="M361.31,8.39h1.52V9.9h-1.52Zm0,2.57h1.52V18.5h-1.52Z" fill="#3b4351"/><path d="M364.06,14.73c0-2.35.61-4,2.8-4s2.81,1.61,2.81,4-.72,4-2.81,4S364.06,17.09,364.06,14.73Zm2.8,2.85c1.1,0,1.3-.93,1.3-2.85,0-1.67-.2-2.84-1.3-2.84s-1.29,1.17-1.29,2.84C365.57,16.65,365.78,17.58,366.86,17.58Z" fill="#3b4351"/><path d="M370.83,11h1.43v.89h0a2.16,2.16,0,0,1,1.94-1.08c1.15,0,1.87.52,1.87,2V18.5H374.6V13.33c0-1-.27-1.36-1.05-1.36-.62,0-1.2.46-1.2,1.47V18.5h-1.52Z" fill="#3b4351"/><path d="M380.63,14.73c0-2.35.62-4,2.8-4s2.82,1.61,2.82,4-.73,4-2.82,4S380.63,17.09,380.63,14.73Zm2.8,2.85c1.11,0,1.31-.93,1.31-2.85,0-1.67-.2-2.84-1.31-2.84s-1.28,1.17-1.28,2.84C382.15,16.65,382.36,17.58,383.43,17.58Z" fill="#3b4351"/><path d="M387.87,12.08h-1.05V11h1.05v-.7c0-1.41.69-1.87,1.92-1.87a6.67,6.67,0,0,1,.83,0V9.59h-.42c-.56,0-.82.21-.82.72V11h1.24v1.12h-1.24V18.5h-1.51Z" fill="#3b4351"/><path d="M399.75,15.75c-.12,1.81-.71,2.95-2.58,2.95-2.19,0-2.8-1.61-2.8-4s.61-4,2.8-4a2.43,2.43,0,0,1,2.59,2.7h-1.51c0-.7-.19-1.62-1.08-1.58-1.08,0-1.29,1.17-1.29,2.84s.21,2.85,1.29,2.85c.84,0,1.15-.69,1.15-1.83Z" fill="#3b4351"/><path d="M405.82,16.93c0,.28.17.53.39.53a.59.59,0,0,0,.26,0v1a1.63,1.63,0,0,1-.75.18c-.67,0-1.23-.26-1.27-1h0a2,2,0,0,1-1.88,1.11c-1.22,0-2-.66-2-2.12a2.08,2.08,0,0,1,1.75-2.37l1.18-.32c.55-.15.88-.31.88-1s-.24-1.12-1-1.12c-1,0-1.15.72-1.15,1.45h-1.43c0-1.61.66-2.48,2.65-2.48,1.33,0,2.39.52,2.39,1.85Zm-1.43-2.41a11.23,11.23,0,0,1-1.68.7,1.24,1.24,0,0,0-.61,1.22c0,.63.3,1.14.93,1.14.91,0,1.36-.68,1.36-1.8Z" fill="#3b4351"/><path d="M407.36,11h1.43v.89h0a2.15,2.15,0,0,1,1.93-1.08c1.15,0,1.88.52,1.88,2V18.5h-1.51V13.33c0-1-.27-1.36-1.05-1.36-.62,0-1.21.46-1.21,1.47V18.5h-1.51Z" fill="#3b4351"/><path d="M419,16.93c0,.28.16.53.39.53a.57.57,0,0,0,.25,0v1a1.58,1.58,0,0,1-.74.18c-.67,0-1.23-.26-1.28-1h0a2,2,0,0,1-1.88,1.11c-1.22,0-2-.66-2-2.12a2.08,2.08,0,0,1,1.75-2.37l1.18-.32c.54-.15.88-.31.88-1s-.24-1.12-1-1.12c-1,0-1.15.72-1.15,1.45H414c0-1.61.66-2.48,2.65-2.48,1.33,0,2.4.52,2.4,1.85Zm-1.43-2.41a11.23,11.23,0,0,1-1.68.7,1.23,1.23,0,0,0-.62,1.22c0,.63.31,1.14.94,1.14.91,0,1.36-.68,1.36-1.8Z" fill="#3b4351"/><path d="M420.64,8.5h1.52v10h-1.52Z" fill="#3b4351"/><path d="M426.93,13.16V13c0-.61-.21-1.17-1-1.17-.61,0-1.08.27-1.08,1s.26.82,1.06,1.1l1,.34a2,2,0,0,1,1.64,2.17c0,1.61-1.19,2.3-2.7,2.3-1.91,0-2.48-.89-2.48-2.34v-.28h1.34v.23c0,.89.29,1.35,1.18,1.35s1.23-.42,1.23-1.11a1.09,1.09,0,0,0-.83-1.1L425,15a2,2,0,0,1-1.61-2.17c0-1.41,1-2.07,2.58-2.07,1.92,0,2.35,1.12,2.35,2.06v.33Z" fill="#3b4351"/><path d="M429.8,16.65h1.6V18.5h-1.6Z" fill="#3b4351"/><path d="M177.8,34.5h1.61l1.32,7.77h0l1.32-7.77h1.68l1.34,7.81h0l1.3-7.81H188l-2,10h-1.85L182.89,37h0l-1.27,7.54h-1.85Z" fill="#3b4351"/><path d="M188.28,40.73c0-2.35.61-4,2.8-4s2.81,1.61,2.81,4-.73,4-2.81,4S188.28,43.09,188.28,40.73Zm2.8,2.85c1.1,0,1.3-.93,1.3-2.85,0-1.67-.2-2.84-1.3-2.84s-1.29,1.17-1.29,2.84C189.79,42.65,190,43.58,191.08,43.58Z" fill="#3b4351"/><path d="M195.05,37h1.52v1.18h0a1.87,1.87,0,0,1,1.75-1.37.94.94,0,0,1,.37,0v1.54a2.24,2.24,0,0,0-.63-.08c-.69,0-1.51.31-1.51,1.71V44.5h-1.52Z" fill="#3b4351"/><path d="M202.71,39.16V39c0-.61-.21-1.17-1-1.17-.6,0-1.08.27-1.08,1s.27.82,1.06,1.1l1,.34a2,2,0,0,1,1.64,2.17c0,1.61-1.19,2.3-2.7,2.3-1.91,0-2.48-.89-2.48-2.34v-.28h1.34v.23c0,.89.3,1.35,1.18,1.35s1.23-.42,1.23-1.11a1.09,1.09,0,0,0-.83-1.1L200.82,41a2,2,0,0,1-1.61-2.17c0-1.41,1-2.07,2.58-2.07,1.92,0,2.35,1.12,2.35,2.06v.33Z" fill="#3b4351"/><path d="M205.43,34.5h1.51v3.28l0,0a2.18,2.18,0,0,1,1.85-1c1.15,0,1.88.52,1.88,2V44.5h-1.52V39.33c0-1-.28-1.36-1.05-1.36-.61,0-1.2.48-1.2,1.47V44.5h-1.51Z" fill="#3b4351"/><path d="M212.23,34.39h1.51V35.9h-1.51Zm0,2.57h1.51V44.5h-1.51Z" fill="#3b4351"/><path d="M218.52,44.7a1.74,1.74,0,0,1-1.71-1.08h0V47h-1.51V37h1.43v.93h0a1.8,1.8,0,0,1,1.7-1.12c1.72,0,2.42,1.47,2.42,4.06C220.84,44,219.57,44.7,218.52,44.7ZM218,38c-1,0-1.27,1.05-1.27,2.68,0,1.81.22,2.84,1.29,2.84.85,0,1.26-.64,1.26-2.73C219.25,39.05,219,38,218,38Z" fill="#3b4351"/><path d="M225.07,40.73c0-2.35.61-4,2.8-4s2.81,1.61,2.81,4-.72,4-2.81,4S225.07,43.09,225.07,40.73Zm2.8,2.85c1.11,0,1.3-.93,1.3-2.85,0-1.67-.19-2.84-1.3-2.84s-1.29,1.17-1.29,2.84C226.58,42.65,226.79,43.58,227.87,43.58Z" fill="#3b4351"/><path d="M232.31,38.08h-1.05V37h1.05v-.7c0-1.41.68-1.87,1.92-1.87a6.4,6.4,0,0,1,.82,0v1.16h-.42c-.56,0-.81.21-.81.72V37h1.23v1.12h-1.23V44.5h-1.51Z" fill="#3b4351"/><path d="M238.42,37h1V34.82H241V37h1.23v1.12H241v4.5c0,.6.17.8.69.8a2.7,2.7,0,0,0,.54,0v1.12a5.08,5.08,0,0,1-1.21.12c-1,0-1.53-.29-1.53-1.82V38.08h-1Z" fill="#3b4351"/><path d="M243,34.5h1.51v3.28l0,0a2.18,2.18,0,0,1,1.85-1c1.15,0,1.88.52,1.88,2V44.5h-1.51V39.33c0-1-.28-1.36-1.06-1.36-.61,0-1.2.48-1.2,1.47V44.5H243Z" fill="#3b4351"/><path d="M251,40.93v.43c0,1,.13,2.3,1.27,2.3s1.2-1.22,1.2-1.68h1.43a2.48,2.48,0,0,1-2.65,2.72c-1.23,0-2.76-.37-2.76-3.86,0-2,.44-4.07,2.79-4.07,2.1,0,2.66,1.27,2.66,3.36v.8Zm2.43-1v-.4c0-1-.31-1.69-1.16-1.69s-1.27,1-1.27,1.94v.15Z" fill="#3b4351"/><path d="M264.61,43.34h0a2.08,2.08,0,0,1-2.19,1.36c-2.18,0-3-1.63-3-5.2s1-5.2,3.32-5.2a2.73,2.73,0,0,1,2.93,2.89v.18h-1.51v-.24c0-.74-.31-1.62-1.4-1.62s-1.74.75-1.74,4,.53,4,1.61,4,1.67-.87,1.67-3.05h-1.68V39.23h3.19V44.5h-1.2Z" fill="#3b4351"/><path d="M267.08,37h1.51v1.18h0a1.87,1.87,0,0,1,1.75-1.37.94.94,0,0,1,.37,0v1.54a2.3,2.3,0,0,0-.63-.08c-.69,0-1.52.31-1.52,1.71V44.5h-1.51Z" fill="#3b4351"/><path d="M272.71,40.93v.43c0,1,.13,2.3,1.26,2.3s1.21-1.22,1.21-1.68h1.42A2.48,2.48,0,0,1,274,44.7c-1.24,0-2.76-.37-2.76-3.86,0-2,.43-4.07,2.78-4.07,2.11,0,2.67,1.27,2.67,3.36v.8Zm2.42-1v-.4c0-1-.31-1.69-1.16-1.69s-1.26,1-1.26,1.94v.15Z" fill="#3b4351"/><path d="M282.83,42.93c0,.28.17.53.4.53a.57.57,0,0,0,.25,0v1a1.58,1.58,0,0,1-.74.18c-.68,0-1.24-.26-1.28-1h0a1.94,1.94,0,0,1-1.87,1.11c-1.22,0-2-.66-2-2.12a2.09,2.09,0,0,1,1.76-2.37l1.17-.32c.55-.15.88-.31.88-1s-.23-1.12-1-1.12c-1,0-1.15.72-1.15,1.45h-1.43c0-1.61.66-2.48,2.65-2.48,1.33,0,2.39.52,2.39,1.85Zm-1.43-2.41a10.81,10.81,0,0,1-1.68.7,1.24,1.24,0,0,0-.61,1.22c0,.63.31,1.14.94,1.14.91,0,1.35-.68,1.35-1.8Z" fill="#3b4351"/><path d="M283.7,37h1V34.82h1.51V37h1.23v1.12h-1.23v4.5c0,.6.17.8.68.8a2.75,2.75,0,0,0,.55,0v1.12a5.17,5.17,0,0,1-1.22.12c-1,0-1.52-.29-1.52-1.82V38.08h-1Z" fill="#3b4351"/><path d="M291.72,34.5h5.41v1.34h-3.81v2.78h3.58V40h-3.58v3.2h3.92V44.5h-5.52Z" fill="#3b4351"/><path d="M303.3,42.93c0,.28.17.53.39.53a.59.59,0,0,0,.26,0v1a1.63,1.63,0,0,1-.75.18c-.67,0-1.23-.26-1.27-1h0A2,2,0,0,1,300,44.7c-1.22,0-2-.66-2-2.12a2.08,2.08,0,0,1,1.75-2.37l1.18-.32c.55-.15.88-.31.88-1s-.24-1.12-1-1.12c-1,0-1.15.72-1.15,1.45h-1.43c0-1.61.66-2.48,2.65-2.48,1.33,0,2.39.52,2.39,1.85Zm-1.43-2.41a11.23,11.23,0,0,1-1.68.7,1.24,1.24,0,0,0-.61,1.22c0,.63.3,1.14.93,1.14.91,0,1.36-.68,1.36-1.8Z" fill="#3b4351"/><path d="M304.84,37h1.51v1.18h0a1.87,1.87,0,0,1,1.75-1.37.89.89,0,0,1,.36,0v1.54a2.18,2.18,0,0,0-.63-.08c-.68,0-1.51.31-1.51,1.71V44.5h-1.51Z" fill="#3b4351"/><path d="M308.58,37h1V34.82h1.52V37h1.23v1.12h-1.23v4.5c0,.6.16.8.68.8a2.75,2.75,0,0,0,.55,0v1.12a5.17,5.17,0,0,1-1.22.12c-1,0-1.53-.29-1.53-1.82V38.08h-1Z" fill="#3b4351"/><path d="M313.14,34.5h1.51v3.28l.05,0a2.15,2.15,0,0,1,1.84-1c1.15,0,1.88.52,1.88,2V44.5h-1.51V39.33c0-1-.28-1.36-1.05-1.36s-1.21.48-1.21,1.47V44.5h-1.51Z" fill="#3b4351"/><path d="M323.33,34.5h2.5l1.76,7.41h0l1.73-7.41h2.44v10h-1.51V36.18h0l-2,8.32h-1.34l-2-8.32h0V44.5h-1.51Z" fill="#3b4351"/><path d="M333.05,40.73c0-2.35.61-4,2.8-4s2.81,1.61,2.81,4-.72,4-2.81,4S333.05,43.09,333.05,40.73Zm2.8,2.85c1.11,0,1.3-.93,1.3-2.85,0-1.67-.19-2.84-1.3-2.84s-1.29,1.17-1.29,2.84C334.56,42.65,334.77,43.58,335.85,43.58Z" fill="#3b4351"/><path d="M339.15,37h1V34.82h1.51V37h1.23v1.12H341.7v4.5c0,.6.17.8.69.8a2.7,2.7,0,0,0,.54,0v1.12a5.17,5.17,0,0,1-1.22.12c-1,0-1.52-.29-1.52-1.82V38.08h-1Z" fill="#3b4351"/><path d="M343.72,34.5h1.51v3.28l0,0a2.15,2.15,0,0,1,1.85-1c1.15,0,1.88.52,1.88,2V44.5h-1.52V39.33c0-1-.28-1.36-1.05-1.36-.61,0-1.2.48-1.2,1.47V44.5h-1.51Z" fill="#3b4351"/><path d="M351.75,40.93v.43c0,1,.13,2.3,1.26,2.3s1.21-1.22,1.21-1.68h1.43A2.48,2.48,0,0,1,353,44.7c-1.23,0-2.76-.37-2.76-3.86,0-2,.43-4.07,2.79-4.07,2.1,0,2.66,1.27,2.66,3.36v.8Zm2.43-1v-.4c0-1-.31-1.69-1.17-1.69s-1.26,1-1.26,1.94v.15Z" fill="#3b4351"/><path d="M356.93,37h1.51v1.18h0a1.87,1.87,0,0,1,1.75-1.37.94.94,0,0,1,.37,0v1.54a2.24,2.24,0,0,0-.63-.08c-.69,0-1.52.31-1.52,1.71V44.5h-1.51Z" fill="#3b4351"/><path d="M177.5,60.5h5.4v1.34h-3.81v2.78h3.59V66h-3.59v3.2H183V70.5H177.5Z" fill="#3b4351"/><path d="M187.38,65.16V65c0-.61-.21-1.17-1-1.17-.6,0-1.08.27-1.08,1s.27.82,1.06,1.1l1,.34A2,2,0,0,1,189,68.4c0,1.61-1.19,2.3-2.7,2.3-1.91,0-2.48-.89-2.48-2.34v-.28h1.34v.23c0,.89.3,1.35,1.18,1.35s1.23-.42,1.23-1.11a1.09,1.09,0,0,0-.83-1.1L185.49,67a2,2,0,0,1-1.61-2.17c0-1.41,1-2.07,2.58-2.07,1.92,0,2.35,1.12,2.35,2.06v.33Z" fill="#3b4351"/><path d="M189.42,63h1V60.82H192V63h1.24v1.12H192v4.5c0,.6.17.8.69.8a2.81,2.81,0,0,0,.55,0v1.12a5.23,5.23,0,0,1-1.22.12c-1,0-1.53-.29-1.53-1.82V64.08h-1Z" fill="#3b4351"/><path d="M198.93,68.93c0,.28.17.53.4.53a.57.57,0,0,0,.25,0v1a1.58,1.58,0,0,1-.74.18c-.68,0-1.24-.26-1.28-1h0a1.94,1.94,0,0,1-1.87,1.11c-1.22,0-2-.66-2-2.12a2.09,2.09,0,0,1,1.76-2.37l1.17-.32c.55-.15.88-.31.88-1s-.23-1.12-1-1.12c-1,0-1.15.72-1.15,1.45h-1.43c0-1.61.66-2.48,2.65-2.48,1.33,0,2.39.52,2.39,1.85Zm-1.43-2.41a10.81,10.81,0,0,1-1.68.7,1.24,1.24,0,0,0-.61,1.22c0,.63.31,1.14.94,1.14.91,0,1.35-.68,1.35-1.8Z" fill="#3b4351"/><path d="M200.47,60.5H202v3.35h0a1.73,1.73,0,0,1,1.71-1.08c1.15,0,2.33.52,2.33,3.86,0,2.6-.72,4.07-2.47,4.07a1.61,1.61,0,0,1-1.65-1.12h0v.92h-1.43Zm2.7,9c1.07,0,1.28-1.08,1.28-2.79,0-2-.32-2.73-1.18-2.73-1.17,0-1.37,1-1.37,2.85C201.9,68.44,202.14,69.49,203.17,69.49Z" fill="#3b4351"/><path d="M207.27,60.5h1.52v10h-1.52Z" fill="#3b4351"/><path d="M210.38,60.39h1.51V61.9h-1.51Zm0,2.57h1.51V70.5h-1.51Z" fill="#3b4351"/><path d="M216.67,65.16V65c0-.61-.21-1.17-1-1.17-.6,0-1.07.27-1.07,1s.26.82,1.06,1.1l1,.34a2,2,0,0,1,1.64,2.17c0,1.61-1.19,2.3-2.71,2.3-1.9,0-2.48-.89-2.48-2.34v-.28h1.35v.23c0,.89.29,1.35,1.17,1.35s1.24-.42,1.24-1.11a1.09,1.09,0,0,0-.83-1.1L214.78,67a2,2,0,0,1-1.61-2.17c0-1.41,1-2.07,2.58-2.07,1.91,0,2.35,1.12,2.35,2.06v.33Z" fill="#3b4351"/><path d="M219.38,60.5h1.52v3.28l0,0a2.15,2.15,0,0,1,1.85-1c1.15,0,1.87.52,1.87,2V70.5h-1.51V65.33c0-1-.28-1.36-1.05-1.36-.62,0-1.2.48-1.2,1.47V70.5h-1.52Z" fill="#3b4351"/><path d="M226.19,63h1.43v.89h0a2.09,2.09,0,0,1,1.81-1.08,1.65,1.65,0,0,1,1.75,1.15,2,2,0,0,1,1.9-1.15c1.07,0,1.84.54,1.84,2V70.5h-1.52V65.33c0-1-.29-1.36-.91-1.36s-1.2.48-1.2,1.47V70.5h-1.51V65.33c0-1-.3-1.36-.93-1.36s-1.19.49-1.19,1.47V70.5h-1.51Z" fill="#3b4351"/><path d="M237.78,66.93v.43c0,1,.13,2.3,1.26,2.3s1.21-1.22,1.21-1.68h1.42A2.48,2.48,0,0,1,239,70.7c-1.24,0-2.76-.37-2.76-3.86,0-2,.43-4.07,2.78-4.07,2.11,0,2.67,1.27,2.67,3.36v.8Zm2.42-1v-.4c0-1-.31-1.69-1.16-1.69s-1.26,1-1.26,1.94v.15Z" fill="#3b4351"/><path d="M243,63h1.43v.89h0a2.15,2.15,0,0,1,1.93-1.08c1.15,0,1.88.52,1.88,2V70.5h-1.51V65.33c0-1-.27-1.36-1-1.36-.62,0-1.21.46-1.21,1.47V70.5H243Z" fill="#3b4351"/><path d="M249,63h1V60.82h1.51V63h1.23v1.12h-1.23v4.5c0,.6.17.8.69.8a2.7,2.7,0,0,0,.54,0v1.12a5.17,5.17,0,0,1-1.22.12c-1,0-1.52-.29-1.52-1.82V64.08h-1Z" fill="#3b4351"/><path d="M256.65,66.73c0-2.35.62-4,2.8-4s2.82,1.61,2.82,4-.73,4-2.82,4S256.65,69.09,256.65,66.73Zm2.8,2.85c1.11,0,1.31-.93,1.31-2.85,0-1.67-.2-2.84-1.31-2.84s-1.29,1.17-1.29,2.84C258.16,68.65,258.37,69.58,259.45,69.58Z" fill="#3b4351"/><path d="M263.89,64.08h-1.05V63h1.05v-.7c0-1.41.69-1.87,1.92-1.87a6.4,6.4,0,0,1,.82,0v1.16h-.42c-.56,0-.81.21-.81.72V63h1.23v1.12H265.4V70.5h-1.51Z" fill="#3b4351"/><path d="M275.76,67.75c-.11,1.81-.7,3-2.57,3-2.19,0-2.81-1.61-2.81-4s.62-4,2.81-4a2.43,2.43,0,0,1,2.59,2.7h-1.51c0-.7-.19-1.62-1.08-1.58-1.08,0-1.29,1.17-1.29,2.84s.21,2.85,1.29,2.85c.84,0,1.14-.69,1.14-1.83Z" fill="#3b4351"/><path d="M276.6,66.73c0-2.35.62-4,2.8-4s2.82,1.61,2.82,4-.73,4-2.82,4S276.6,69.09,276.6,66.73Zm2.8,2.85c1.11,0,1.3-.93,1.3-2.85,0-1.67-.19-2.84-1.3-2.84s-1.29,1.17-1.29,2.84C278.11,68.65,278.32,69.58,279.4,69.58Z" fill="#3b4351"/><path d="M283.45,60.5H285v10h-1.51Z" fill="#3b4351"/><path d="M286.19,66.73c0-2.35.62-4,2.8-4s2.82,1.61,2.82,4-.73,4-2.82,4S286.19,69.09,286.19,66.73Zm2.8,2.85c1.11,0,1.3-.93,1.3-2.85,0-1.67-.19-2.84-1.3-2.84s-1.29,1.17-1.29,2.84C287.7,68.65,287.91,69.58,289,69.58Z" fill="#3b4351"/><path d="M293,63h1.43v.89h0a2.15,2.15,0,0,1,1.93-1.08c1.15,0,1.88.52,1.88,2V70.5h-1.52V65.33c0-1-.26-1.36-1.05-1.36-.61,0-1.2.46-1.2,1.47V70.5H293Z" fill="#3b4351"/><path d="M299.77,60.39h1.51V61.9h-1.51Zm0,2.57h1.51V70.5h-1.51Z" fill="#3b4351"/><path d="M304.11,66.93v.43c0,1,.13,2.3,1.26,2.3s1.21-1.22,1.21-1.68H308a2.48,2.48,0,0,1-2.64,2.72c-1.24,0-2.76-.37-2.76-3.86,0-2,.43-4.07,2.79-4.07,2.1,0,2.66,1.27,2.66,3.36v.8Zm2.42-1v-.4c0-1-.3-1.69-1.16-1.69s-1.26,1-1.26,1.94v.15Z" fill="#3b4351"/><path d="M312.54,65.16V65c0-.61-.21-1.17-1-1.17-.6,0-1.07.27-1.07,1s.26.82,1.06,1.1l1,.34a2,2,0,0,1,1.64,2.17c0,1.61-1.19,2.3-2.71,2.3-1.9,0-2.48-.89-2.48-2.34v-.28h1.35v.23c0,.89.29,1.35,1.18,1.35s1.23-.42,1.23-1.11a1.09,1.09,0,0,0-.83-1.1L310.65,67A2,2,0,0,1,309,64.84c0-1.41,1-2.07,2.58-2.07,1.91,0,2.35,1.12,2.35,2.06v.33Z" fill="#3b4351"/><path d="M318.68,60.39h1.52V61.9h-1.52Zm0,2.57h1.52V70.5h-1.52Z" fill="#3b4351"/><path d="M321.72,63h1.43v.89h0a2.16,2.16,0,0,1,1.94-1.08c1.14,0,1.87.52,1.87,2V70.5h-1.51V65.33c0-1-.27-1.36-1.05-1.36-.62,0-1.21.46-1.21,1.47V70.5h-1.51Z" fill="#3b4351"/><path d="M333.15,67.4v.26c0,1.21.54,1.83,1.63,1.83A1.44,1.44,0,0,0,336.3,68a1.67,1.67,0,0,0-1.43-1.77l-1.09-.38a2.67,2.67,0,0,1-2.09-2.75c0-1.82,1.25-2.83,3.11-2.83,2.56,0,2.83,1.6,2.83,2.64v.22H336V63c0-.91-.39-1.44-1.4-1.44A1.27,1.27,0,0,0,333.29,63c0,.85.43,1.29,1.49,1.69l1.08.4a2.53,2.53,0,0,1,2,2.64c0,2.13-1.28,3-3.3,3a2.75,2.75,0,0,1-3-3.06V67.4Z" fill="#3b4351"/><path d="M339.15,60.39h1.51V61.9h-1.51Zm0,2.57h1.51V70.5h-1.51Z" fill="#3b4351"/><path d="M347.27,67.75c-.11,1.81-.7,3-2.57,3-2.19,0-2.81-1.61-2.81-4s.62-4,2.81-4a2.43,2.43,0,0,1,2.59,2.7h-1.51c0-.7-.19-1.62-1.08-1.58-1.08,0-1.29,1.17-1.29,2.84s.21,2.85,1.29,2.85c.84,0,1.15-.69,1.15-1.83Z" fill="#3b4351"/><path d="M348.47,60.39H350V61.9h-1.52Zm0,2.57H350V70.5h-1.52Z" fill="#3b4351"/><path d="M351.58,60.5h1.52v10h-1.52Z" fill="#3b4351"/><path d="M355.63,63l1.3,5.66h0l1.2-5.66h1.59l-2.08,7.82c-.6,2.06-1.06,2.34-2.63,2.3a3.05,3.05,0,0,1-.6-.06v-1.2a2,2,0,0,0,.49.05c.52,0,.85-.1,1-.59l.2-.61L354,63Z" fill="#3b4351"/><path d="M359.7,68.65h1.6V70.5c0,1.12-.36,1.92-1.6,2.16v-.82c.44-.11.7-.51.7-1.13V70.5h-.7Z" fill="#3b4351"/><path d="M200.09,93.4v.26c0,1.21.55,1.83,1.64,1.83A1.44,1.44,0,0,0,203.25,94a1.67,1.67,0,0,0-1.43-1.77l-1.1-.38a2.67,2.67,0,0,1-2.08-2.75c0-1.82,1.24-2.83,3.11-2.83,2.56,0,2.83,1.6,2.83,2.64v.22H203V89c0-.91-.39-1.44-1.4-1.44A1.28,1.28,0,0,0,200.23,89c0,.85.44,1.29,1.5,1.69l1.08.4a2.53,2.53,0,0,1,2,2.64c0,2.13-1.29,3-3.3,3a2.75,2.75,0,0,1-3-3.06V93.4Z" fill="#3b4351"/><path d="M205.73,92.73c0-2.35.62-4,2.81-4s2.81,1.61,2.81,4-.73,4-2.81,4S205.73,95.09,205.73,92.73Zm2.81,2.85c1.1,0,1.3-.93,1.3-2.85,0-1.67-.2-2.84-1.3-2.84s-1.29,1.17-1.29,2.84C207.25,94.65,207.46,95.58,208.54,95.58Z" fill="#3b4351"/><path d="M216.36,95.62h0a2.17,2.17,0,0,1-1.93,1.08c-1.12,0-1.88-.52-1.88-2.47V89H214v5.41c0,.84.37,1.12,1,1.12a1.18,1.18,0,0,0,1.23-1.26V89h1.51V96.5h-1.43Z" fill="#3b4351"/><path d="M218.57,89h1V86.82h1.51V89h1.23v1.12h-1.23v4.5c0,.6.17.8.69.8a2.7,2.7,0,0,0,.54,0v1.12a5.08,5.08,0,0,1-1.21.12c-1,0-1.53-.29-1.53-1.82V90.08h-1Z" fill="#3b4351"/><path d="M223.14,86.5h1.51v3.28l0,0a2.16,2.16,0,0,1,1.85-1c1.15,0,1.88.52,1.88,2V96.5H226.9V91.33c0-1-.28-1.36-1.05-1.36-.61,0-1.2.48-1.2,1.47V96.5h-1.51Z" fill="#3b4351"/><path d="M233.26,86.5h1.59v10h-1.59Z" fill="#3b4351"/><path d="M235.67,89h1V86.82h1.51V89h1.24v1.12h-1.24v4.5c0,.6.17.8.69.8a2.75,2.75,0,0,0,.55,0v1.12a5.17,5.17,0,0,1-1.22.12c-1,0-1.53-.29-1.53-1.82V90.08h-1Z" fill="#3b4351"/><path d="M245.17,94.93c0,.28.17.53.4.53a.57.57,0,0,0,.25,0v1a1.58,1.58,0,0,1-.74.18c-.68,0-1.24-.26-1.28-1h0a1.94,1.94,0,0,1-1.87,1.11c-1.22,0-2-.66-2-2.12a2.08,2.08,0,0,1,1.75-2.37l1.17-.32c.55-.15.89-.31.89-1s-.24-1.12-1-1.12c-1,0-1.15.72-1.15,1.45h-1.43c0-1.61.66-2.48,2.65-2.48,1.33,0,2.39.52,2.39,1.85Zm-1.42-2.41a10.92,10.92,0,0,1-1.69.7,1.24,1.24,0,0,0-.61,1.22c0,.63.31,1.14.94,1.14.91,0,1.36-.68,1.36-1.8Z" fill="#3b4351"/><path d="M246.78,86.5h1.51v10h-1.51Z" fill="#3b4351"/><path d="M250.83,89l1.3,5.66h0l1.2-5.66H255l-2.08,7.82c-.6,2.06-1.06,2.34-2.63,2.3a3.05,3.05,0,0,1-.6-.06v-1.2a2,2,0,0,0,.49.05c.52,0,.85-.1,1-.59l.2-.61L249.2,89Z" fill="#3b4351"/><path d="M264.09,94.93c0,.28.17.53.39.53a.54.54,0,0,0,.25,0v1a1.58,1.58,0,0,1-.74.18c-.67,0-1.23-.26-1.27-1h0a2,2,0,0,1-1.88,1.11c-1.22,0-2-.66-2-2.12a2.08,2.08,0,0,1,1.75-2.37l1.18-.32c.54-.15.88-.31.88-1s-.24-1.12-1-1.12c-1,0-1.15.72-1.15,1.45h-1.42c0-1.61.65-2.48,2.64-2.48,1.33,0,2.4.52,2.4,1.85Zm-1.43-2.41a11.23,11.23,0,0,1-1.68.7,1.23,1.23,0,0,0-.62,1.22c0,.63.31,1.14.94,1.14.91,0,1.36-.68,1.36-1.8Z" fill="#3b4351"/><path d="M265.63,89h1.42v.89h.05A2.13,2.13,0,0,1,269,88.77c1.15,0,1.88.52,1.88,2V96.5h-1.52V91.33c0-1-.26-1.36-1.05-1.36-.61,0-1.2.46-1.2,1.47V96.5h-1.51Z" fill="#3b4351"/><path d="M276.21,95.58h0a1.6,1.6,0,0,1-1.65,1.12c-1.75,0-2.47-1.49-2.47-4.07,0-3.34,1.18-3.86,2.33-3.86a1.73,1.73,0,0,1,1.71,1.08h0V86.5h1.51v10h-1.43ZM274.84,90c-.86,0-1.18.7-1.18,2.73,0,1.71.21,2.79,1.28,2.79s1.27-1,1.27-2.67C276.21,91,276,90,274.84,90Z" fill="#3b4351"/><path d="M283.92,86.5H286l2.63,10h-1.66l-.62-2.45h-2.93l-.64,2.45h-1.67Zm2.13,6.27-1.15-4.93h0l-1.19,4.93Z" fill="#3b4351"/><path d="M292.45,91.16V91c0-.61-.21-1.17-1-1.17-.61,0-1.08.27-1.08,1s.26.82,1.06,1.1l1,.34a2,2,0,0,1,1.64,2.17c0,1.61-1.19,2.3-2.71,2.3-1.9,0-2.48-.89-2.48-2.34v-.28h1.35v.23c0,.89.29,1.35,1.18,1.35s1.23-.42,1.23-1.11a1.09,1.09,0,0,0-.83-1.1L290.56,93A2,2,0,0,1,289,90.84c0-1.41,1-2.07,2.58-2.07,1.92,0,2.35,1.12,2.35,2.06v.33Z" fill="#3b4351"/><path d="M295.23,86.39h1.52V87.9h-1.52Zm0,2.57h1.52V96.5h-1.52Z" fill="#3b4351"/><path d="M303.22,94.93c0,.28.17.53.39.53a.54.54,0,0,0,.25,0v1a1.58,1.58,0,0,1-.74.18c-.67,0-1.23-.26-1.28-1h0a2,2,0,0,1-1.88,1.11c-1.22,0-2-.66-2-2.12a2.08,2.08,0,0,1,1.75-2.37l1.18-.32c.54-.15.88-.31.88-1s-.24-1.12-1-1.12c-1,0-1.15.72-1.15,1.45h-1.43c0-1.61.66-2.48,2.65-2.48,1.33,0,2.4.52,2.4,1.85Zm-1.43-2.41a11.23,11.23,0,0,1-1.68.7,1.23,1.23,0,0,0-.62,1.22c0,.63.31,1.14.94,1.14.91,0,1.36-.68,1.36-1.8Z" fill="#3b4351"/><path d="M308.21,86.5h2.5l1.76,7.41h0l1.74-7.41h2.43v10h-1.51V88.18h0l-2,8.32h-1.35l-2-8.32h0V96.5h-1.52Z" fill="#3b4351"/><path d="M318.29,86.39h1.51V87.9h-1.51Zm0,2.57h1.51V96.5h-1.51Z" fill="#3b4351"/><path d="M321.33,89h1.43v.89h0a2.15,2.15,0,0,1,1.93-1.08c1.15,0,1.88.52,1.88,2V96.5H325.1V91.33c0-1-.27-1.36-1.05-1.36-.62,0-1.21.46-1.21,1.47V96.5h-1.51Z" fill="#3b4351"/><path d="M327.77,92.73c0-2.35.62-4,2.8-4s2.82,1.61,2.82,4-.73,4-2.82,4S327.77,95.09,327.77,92.73Zm2.8,2.85c1.11,0,1.3-.93,1.3-2.85,0-1.67-.19-2.84-1.3-2.84s-1.29,1.17-1.29,2.84C329.28,94.65,329.49,95.58,330.57,95.58Z" fill="#3b4351"/><path d="M334.55,89h1.51v1.18h0a1.85,1.85,0,0,1,1.75-1.37.89.89,0,0,1,.36,0v1.54a2.18,2.18,0,0,0-.63-.08c-.68,0-1.51.31-1.51,1.71V96.5h-1.51Z" fill="#3b4351"/><path d="M337.82,94.65h1.6V96.5h-1.6Z" fill="#3b4351"/></g></g></g></g></svg>