<svg xmlns="http://www.w3.org/2000/svg" viewBox="0 0 1847.91 111"><title>bc1450text</title><g id="YEARS"><g id="Right"><path d="M1787.21,103.93V90.56h-3.82V88.64h.29c1.77,0,3.79-.44,4.34-2.76v-.36h2.16v18.41Z"/><path d="M1794.86,97.24l6.37-11.72h3V97.43h2v2.36h-2v4.14h-2.81V99.79h-6.57Zm6.57-7.41h0l-4.13,7.6h4.18Z"/><path d="M1807.62,99h2.81v.49a2.35,2.35,0,0,0,2.42,2.6c2.08,0,2.63-2,2.63-4.18s-.58-3.93-2.48-3.93a2.35,2.35,0,0,0-2.41,1.69l-2.63-.1.91-9.65h8.87v2.37h-6.66l-.6,4.83,0,.06a4.08,4.08,0,0,1,3.1-1.43c3.85,0,4.81,3.25,4.81,6.08,0,3.69-1.69,6.5-5.67,6.5-3.3,0-5.15-1.69-5.15-4.94Z"/><path d="M1825.51,85.52c3.54,0,5.51,2.21,5.51,9.38s-2,9.39-5.51,9.39-5.51-2.21-5.51-9.39S1822,85.52,1825.51,85.52Zm0,16.69c2,0,2.55-2,2.55-7.31s-.55-7.3-2.55-7.3-2.55,2-2.55,7.3S1823.51,102.21,1825.51,102.21Z"/></g><g id="left"><path d="M17.46,107.53V94.16H13.64V92.24h.29c1.77,0,3.79-.45,4.34-2.76v-.36h2.16v18.41Z"/><path d="M25.11,100.84l6.37-11.72h3V101h2v2.36h-2v4.14h-2.8v-4.14H25.11Zm6.58-7.41h-.06L27.5,101h4.19Z"/><path d="M37.87,102.56h2.81v.49a2.35,2.35,0,0,0,2.42,2.6c2.08,0,2.63-2,2.63-4.18s-.58-3.93-2.48-3.93a2.35,2.35,0,0,0-2.41,1.69l-2.63-.1.91-9.65H48v2.37H41.33l-.6,4.83.06,0a4.08,4.08,0,0,1,3.09-1.43c3.85,0,4.81,3.26,4.81,6.09,0,3.69-1.69,6.5-5.67,6.5-3.3,0-5.15-1.69-5.15-4.94Z"/><path d="M55.76,89.12c3.54,0,5.51,2.21,5.51,9.38s-2,9.39-5.51,9.39-5.51-2.21-5.51-9.39S52.22,89.12,55.76,89.12Zm0,16.69c2,0,2.55-2,2.55-7.31s-.55-7.3-2.55-7.3-2.55,2-2.55,7.3S53.76,105.81,55.76,105.81Z"/></g></g><g id="Text"><g id="Iranians"><path d="M1195.4,82.5h2.79V100h-2.79Z"/><path d="M1201,82.5h6.18c2.45,0,4.43,1.25,4.43,4.5,0,2.26-1,4-2.92,4.29v0c1.77.17,2.65,1.13,2.75,3.58,0,1.15,0,2.5.1,3.55a1.89,1.89,0,0,0,.83,1.52h-3.16a3,3,0,0,1-.47-1.54c0-.52-.07-1.06-.07-1.57s0-1.1-.05-1.74c-.07-1.91-.66-2.74-2.55-2.74h-2.28V100H1201Zm5,7.79a2.58,2.58,0,0,0,2.8-2.84c0-1.87-.79-2.85-2.65-2.85h-2.38v5.69Z"/><path d="M1217.42,82.5H1221l4.61,17.49h-2.92l-1.08-4.29h-5.12l-1.12,4.29h-2.92Zm3.73,11-2-8.62h-.05L1217,93.47Z"/><path d="M1226.83,82.5h3.41l5.07,13h0v-13H1238V100h-3.41l-5.07-13.38h0V100h-2.65Z"/><path d="M1240.77,82.5h2.79V100h-2.79Z"/><path d="M1249.64,82.5h3.58l4.61,17.49h-2.92l-1.08-4.29h-5.12l-1.13,4.29h-2.91Zm3.73,11-2-8.62h0l-2.09,8.62Z"/><path d="M1259.05,82.5h3.4l5.08,13h0v-13h2.64V100h-3.4l-5.08-13.38h0V100h-2.64Z"/><path d="M1275.27,94.58V95c0,2.13,1,3.21,2.87,3.21a2.51,2.51,0,0,0,2.64-2.55c0-1.84-.93-2.65-2.5-3.11l-1.91-.66c-2.55-1-3.65-2.31-3.65-4.81,0-3.18,2.18-4.95,5.44-4.95,4.48,0,4.95,2.8,4.95,4.61v.39h-2.8v-.37c0-1.59-.68-2.52-2.45-2.52a2.23,2.23,0,0,0-2.35,2.52c0,1.5.76,2.26,2.63,3l1.88.69c2.48.88,3.55,2.2,3.55,4.63,0,3.72-2.25,5.27-5.78,5.27-4.34,0-5.32-2.9-5.32-5.35v-.41Z"/></g><g id="Hittites"><path d="M827.56,11.5h2.8v7h5.14v-7h2.8V29h-2.8V20.86h-5.14V29h-2.8Z"/><path d="M841.14,11.3h2.64V14h-2.64Zm0,4.51h2.64V29h-2.64Z"/><path d="M845.28,15.81h1.81V12.06h2.65v3.75h2.15v2h-2.15v7.87c0,1.05.29,1.39,1.2,1.39a4.91,4.91,0,0,0,.95-.07v2a8.44,8.44,0,0,1-2.13.22c-1.76,0-2.67-.52-2.67-3.19V17.77h-1.81Z"/><path d="M852.09,15.81h1.81V12.06h2.65v3.75h2.15v2h-2.15v7.87c0,1.05.29,1.39,1.2,1.39a4.91,4.91,0,0,0,1-.07v2a8.44,8.44,0,0,1-2.13.22c-1.76,0-2.67-.52-2.67-3.19V17.77h-1.81Z"/><path d="M860.2,11.3h2.64V14H860.2Zm0,4.51h2.64V29H860.2Z"/><path d="M864.34,15.81h1.81V12.06h2.65v3.75H871v2H868.8v7.87c0,1.05.29,1.39,1.2,1.39a4.91,4.91,0,0,0,1-.07v2a8.44,8.44,0,0,1-2.13.22c-1.76,0-2.67-.52-2.67-3.19V17.77h-1.81Z"/><path d="M874.6,22.74v.76c0,1.77.22,4,2.21,4s2.11-2.13,2.11-2.94h2.5c0,3-1.77,4.76-4.63,4.76-2.16,0-4.83-.64-4.83-6.74,0-3.46.76-7.13,4.87-7.13,3.68,0,4.66,2.23,4.66,5.88v1.39Zm4.24-1.81v-.71c0-1.67-.54-2.94-2-2.94-1.67,0-2.21,1.67-2.21,3.38v.27Z"/><path d="M889.72,11.5h9.46v2.35h-6.67V18.7h6.28v2.35h-6.28v5.59h6.86V29h-9.65Z"/><path d="M901.45,15.81H904v1.54H904a3.69,3.69,0,0,1,3.16-1.88,2.85,2.85,0,0,1,3.06,2,3.59,3.59,0,0,1,3.33-2c1.87,0,3.22,1,3.22,3.5V29h-2.65V20c0-1.74-.52-2.38-1.59-2.38s-2.11.84-2.11,2.58V29H907.8V20c0-1.74-.51-2.38-1.62-2.38s-2.08.86-2.08,2.58V29h-2.65Z"/><path d="M925.15,29.34a3,3,0,0,1-3-1.89h0v5.86h-2.65V15.81H922v1.62h0a3.12,3.12,0,0,1,3-2c3,0,4.24,2.57,4.24,7.1C929.22,28.11,927,29.34,925.15,29.34Zm-1-11.77c-1.81,0-2.23,1.84-2.23,4.68,0,3.16.39,5,2.26,5,1.49,0,2.2-1.13,2.2-4.78C926.42,19.46,926.05,17.57,924.19,17.57Z"/><path d="M931.37,11.3H934V14h-2.65Zm0,4.51H934V29h-2.65Z"/><path d="M936.68,15.81h2.65v2.06h0a3.26,3.26,0,0,1,3.06-2.4,1.61,1.61,0,0,1,.64.09v2.7a3.84,3.84,0,0,0-1.1-.15c-1.2,0-2.65.54-2.65,3V29h-2.65Z"/><path d="M946.53,22.74v.76c0,1.77.22,4,2.21,4s2.11-2.13,2.11-2.94h2.5c0,3-1.77,4.76-4.63,4.76-2.16,0-4.83-.64-4.83-6.74,0-3.46.76-7.13,4.87-7.13,3.68,0,4.66,2.23,4.66,5.88v1.39Zm4.24-1.81v-.71c0-1.67-.54-2.94-2-2.94-1.67,0-2.21,1.67-2.21,3.38v.27Z"/></g><g id="Egytians"><g id="small"><path d="M514.35,14.51H512V13.16h6.31v1.35h-2.34v8.66h-1.59Z"/><path d="M519.09,13.16h1.52v3.28l0,0a2.14,2.14,0,0,1,1.85-1c1.14,0,1.87.52,1.87,2.05v5.69h-1.51V18c0-1-.28-1.36-1.05-1.36-.62,0-1.2.47-1.2,1.47v5.06h-1.52Z"/><path d="M529.68,22.28h0a2.16,2.16,0,0,1-1.94,1.08c-1.12,0-1.87-.52-1.87-2.46V15.63h1.51V21c0,.84.36,1.12,1,1.12a1.17,1.17,0,0,0,1.23-1.26V15.63h1.52v7.54h-1.43Z"/><path d="M531.89,15.63h1V13.49h1.52v2.14h1.23v1.12h-1.23v4.5c0,.6.17.8.68.8a2.64,2.64,0,0,0,.55-.05v1.12a4.64,4.64,0,0,1-1.22.13c-1,0-1.53-.29-1.53-1.82V16.75h-1Z"/><path d="M536.52,15.63H538v.88h0a2.13,2.13,0,0,1,1.81-1.08,1.63,1.63,0,0,1,1.75,1.15,2.07,2.07,0,0,1,1.91-1.15c1.06,0,1.83.55,1.83,2v5.73h-1.51V18c0-1-.3-1.36-.91-1.36s-1.21.47-1.21,1.47v5.06h-1.51V18c0-1-.29-1.36-.92-1.36s-1.19.49-1.19,1.47v5.06h-1.52Z"/><path d="M546.52,19.4c0-2.36.61-4,2.8-4s2.82,1.61,2.82,4-.73,4-2.82,4S546.52,21.75,546.52,19.4Zm2.8,2.84c1.11,0,1.3-.92,1.3-2.84,0-1.67-.19-2.85-1.3-2.85S548,17.73,548,19.4C548,21.32,548.24,22.24,549.32,22.24Z"/><path d="M556.54,17.83v-.2c0-.6-.21-1.16-1-1.16-.6,0-1.08.27-1.08,1s.27.83,1.07,1.11l1,.33a2,2,0,0,1,1.64,2.17c0,1.62-1.19,2.3-2.7,2.3-1.91,0-2.48-.88-2.48-2.34v-.28h1.34V21c0,.88.3,1.35,1.18,1.35s1.23-.42,1.23-1.11a1.09,1.09,0,0,0-.82-1.11l-1.24-.43A2,2,0,0,1,553,17.51c0-1.42,1-2.08,2.58-2.08,1.92,0,2.35,1.12,2.35,2.06v.34Z"/><path d="M560.56,19.59V20c0,1,.13,2.3,1.26,2.3S563,21.11,563,20.64h1.42a2.47,2.47,0,0,1-2.64,2.72c-1.24,0-2.76-.36-2.76-3.85,0-2,.43-4.08,2.79-4.08,2.1,0,2.66,1.28,2.66,3.37v.79Zm2.42-1v-.41c0-.95-.3-1.68-1.16-1.68s-1.26,1-1.26,1.93v.16Z"/><path d="M569.13,13.16h1.59v10h-1.59Z"/><path d="M572.24,13.16h1.59v10h-1.59Z"/><path d="M575.34,13.16h1.6v10h-1.6Z"/><path d="M581.48,15.32c0-1.12.36-1.92,1.59-2.16V14a1,1,0,0,0-.7,1.13v.21h.7v1.85h-1.59Zm2.49,0c0-1.12.36-1.92,1.6-2.16V14a1,1,0,0,0-.7,1.13v.21h.7v1.85H584Z"/><path d="M587.33,13.16h5.4v1.35h-3.81v2.77h3.59v1.35h-3.59v3.19h3.93v1.35h-5.52Z"/><path d="M595.48,23.81a1,1,0,0,0,1.09.9,1.25,1.25,0,0,0,1.27-1.42V22.07h0a1.82,1.82,0,0,1-1.71,1c-1.75,0-2.26-1.72-2.26-3.8,0-1.65.25-3.88,2.4-3.88a1.67,1.67,0,0,1,1.65,1.12h0v-.92h1.43V22.8c0,1.84-.79,2.94-2.82,2.94-2.24,0-2.49-1.31-2.49-1.93Zm1.06-1.9c1.18,0,1.3-1.49,1.3-2.68s-.15-2.59-1.2-2.59-1.28,1.12-1.28,2.52S595.42,21.91,596.54,21.91Z"/><path d="M601.71,15.63l1.3,5.66h0l1.2-5.66h1.58l-2.07,7.82c-.6,2.06-1.06,2.34-2.63,2.29a3,3,0,0,1-.6,0V24.48a2,2,0,0,0,.49.06c.51,0,.85-.1,1-.59l.19-.62-2.14-7.7Z"/><path d="M609.91,23.36a1.72,1.72,0,0,1-1.71-1.08h0v3.35h-1.51v-10h1.43v.92h0a1.78,1.78,0,0,1,1.69-1.12c1.73,0,2.43,1.47,2.43,4.07C612.24,22.66,611,23.36,609.91,23.36Zm-.55-6.72c-1,0-1.27,1.05-1.27,2.67,0,1.81.22,2.85,1.29,2.85.85,0,1.26-.65,1.26-2.73C610.64,17.72,610.43,16.64,609.36,16.64Z"/><path d="M612.72,15.63h1V13.49h1.51v2.14h1.23v1.12h-1.23v4.5c0,.6.17.8.69.8a2.54,2.54,0,0,0,.54-.05v1.12a4.56,4.56,0,0,1-1.21.13c-1,0-1.53-.29-1.53-1.82V16.75h-1Z"/><path d="M617.36,13.05h1.51v1.52h-1.51Zm0,2.58h1.51v7.54h-1.51Z"/><path d="M625.34,21.6c0,.28.17.53.39.53a.54.54,0,0,0,.25,0v1a1.55,1.55,0,0,1-.74.18c-.67,0-1.23-.27-1.27-1h0a2,2,0,0,1-1.88,1.1c-1.22,0-2-.66-2-2.11a2.08,2.08,0,0,1,1.75-2.37l1.18-.32c.55-.16.88-.31.88-1s-.24-1.12-1-1.12c-1,0-1.14.71-1.14,1.44H620.3c0-1.61.66-2.48,2.64-2.48,1.34,0,2.4.52,2.4,1.85Zm-1.43-2.41a12.39,12.39,0,0,1-1.68.7,1.25,1.25,0,0,0-.62,1.22c0,.63.31,1.13.94,1.13.91,0,1.36-.67,1.36-1.79Z"/><path d="M626.88,15.63h1.43v.88h0a2.17,2.17,0,0,1,1.93-1.08c1.15,0,1.88.52,1.88,2.05v5.69h-1.52V18c0-1-.26-1.36-1-1.36-.61,0-1.2.46-1.2,1.47v5.06h-1.51Z"/><path d="M637.07,13.16H639l2.89,7.46h0V13.16h1.52v10h-2l-2.9-7.65h0v7.65h-1.51Z"/><path d="M650,21.6c0,.28.17.53.39.53a.59.59,0,0,0,.26,0v1a1.63,1.63,0,0,1-.75.18c-.67,0-1.23-.27-1.27-1h0a2,2,0,0,1-1.88,1.1c-1.22,0-2-.66-2-2.11a2.08,2.08,0,0,1,1.75-2.37l1.18-.32c.55-.16.88-.31.88-1s-.24-1.12-1-1.12c-1,0-1.15.71-1.15,1.44h-1.43c0-1.61.66-2.48,2.65-2.48,1.33,0,2.39.52,2.39,1.85Zm-1.43-2.41a12.39,12.39,0,0,1-1.68.7,1.24,1.24,0,0,0-.61,1.22c0,.63.3,1.13.93,1.13.91,0,1.36-.67,1.36-1.79Z"/><path d="M654.74,23.36A1.72,1.72,0,0,1,653,22.28h0v3.35h-1.51v-10h1.43v.92h0a1.8,1.8,0,0,1,1.7-1.12c1.72,0,2.42,1.47,2.42,4.07C657.06,22.66,655.79,23.36,654.74,23.36Zm-.55-6.72c-1,0-1.27,1.05-1.27,2.67,0,1.81.22,2.85,1.29,2.85.85,0,1.26-.65,1.26-2.73C655.47,17.72,655.26,16.64,654.19,16.64Z"/><path d="M657.93,19.4c0-2.36.61-4,2.8-4s2.82,1.61,2.82,4-.73,4-2.82,4S657.93,21.75,657.93,19.4Zm2.8,2.84c1.11,0,1.3-.92,1.3-2.84,0-1.67-.19-2.85-1.3-2.85s-1.29,1.18-1.29,2.85C659.44,21.32,659.65,22.24,660.73,22.24Z"/><path d="M664.77,13.16h1.52v10h-1.52Z"/><path d="M669.12,19.59V20c0,1,.12,2.3,1.26,2.3s1.2-1.22,1.2-1.69H673a2.48,2.48,0,0,1-2.65,2.72c-1.23,0-2.76-.36-2.76-3.85,0-2,.44-4.08,2.79-4.08,2.1,0,2.66,1.28,2.66,3.37v.79Zm2.42-1v-.41c0-.95-.31-1.68-1.16-1.68s-1.26,1-1.26,1.93v.16Z"/><path d="M674,19.4c0-2.36.62-4,2.8-4s2.82,1.61,2.82,4-.73,4-2.82,4S674,21.75,674,19.4Zm2.8,2.84c1.11,0,1.3-.92,1.3-2.84,0-1.67-.19-2.85-1.3-2.85s-1.29,1.18-1.29,2.85C675.51,21.32,675.72,22.24,676.8,22.24Z"/><path d="M680.78,15.63h1.42v.88h0a2.15,2.15,0,0,1,1.93-1.08c1.15,0,1.88.52,1.88,2.05v5.69h-1.52V18c0-1-.26-1.36-1-1.36-.61,0-1.2.46-1.2,1.47v5.06h-1.51Z"/><path d="M687.72,13.16h1.6V15a1.88,1.88,0,0,1-1.6,2.16v-.81a1.05,1.05,0,0,0,.7-1.14V15h-.7Zm2.49,0h1.6V15c0,1.12-.36,1.92-1.6,2.16v-.81c.44-.11.7-.52.7-1.14V15h-.7Z"/><path d="M531,44.42c-.11,1.81-.7,2.94-2.57,2.94-2.19,0-2.8-1.61-2.8-4s.61-4,2.8-4a2.44,2.44,0,0,1,2.59,2.71h-1.51c0-.7-.19-1.63-1.08-1.59-1.08,0-1.29,1.18-1.29,2.85s.21,2.84,1.29,2.84c.84,0,1.15-.68,1.15-1.82Z"/><path d="M531.88,43.4c0-2.36.62-4,2.8-4s2.82,1.61,2.82,4-.73,4-2.82,4S531.88,45.75,531.88,43.4Zm2.8,2.84c1.11,0,1.31-.92,1.31-2.84,0-1.67-.2-2.85-1.31-2.85s-1.29,1.18-1.29,2.85C533.39,45.32,533.6,46.24,534.68,46.24Z"/><path d="M538.66,39.63h1.43v.88h0a2.17,2.17,0,0,1,1.93-1.08c1.15,0,1.88.52,1.88,2v5.69h-1.51V42c0-1-.27-1.36-1.06-1.36-.61,0-1.2.46-1.2,1.47v5.06h-1.51Z"/><path d="M549.16,46.28h0a1.74,1.74,0,0,1-1.72,1.08c-1.18,0-2.31-.81-2.31-3.86,0-2.58.71-4.07,2.46-4.07a1.62,1.62,0,0,1,1.66,1.12h0v-.92h1.43v10h-1.51ZM548,40.64c-1.07,0-1.28,1.08-1.28,2.79,0,2,.41,2.73,1.18,2.73,1.18,0,1.37-1,1.37-2.85C549.24,41.69,549,40.64,548,40.64Z"/><path d="M556,46.28h0A2.16,2.16,0,0,1,554,47.36c-1.12,0-1.87-.52-1.87-2.46V39.63h1.51V45c0,.84.36,1.12,1,1.12a1.17,1.17,0,0,0,1.23-1.26V39.63h1.52v7.54H556Z"/><path d="M560.16,43.59V44c0,1,.13,2.3,1.26,2.3s1.21-1.22,1.21-1.69h1.43a2.48,2.48,0,0,1-2.65,2.72c-1.23,0-2.76-.36-2.76-3.85,0-2,.43-4.08,2.79-4.08,2.1,0,2.66,1.28,2.66,3.37v.79Zm2.43-1v-.41c0-.95-.31-1.68-1.17-1.68s-1.26,1-1.26,1.93v.16Z"/><path d="M565.34,39.63h1.51v1.18h0a1.88,1.88,0,0,1,1.75-1.38.92.92,0,0,1,.37.06V41a2.24,2.24,0,0,0-.63-.08c-.69,0-1.52.3-1.52,1.71v4.51h-1.51Z"/><path d="M573,41.83v-.2c0-.6-.21-1.16-1-1.16-.61,0-1.08.27-1.08,1s.26.83,1.06,1.11l1,.33a2,2,0,0,1,1.64,2.17c0,1.62-1.19,2.3-2.71,2.3-1.9,0-2.48-.88-2.48-2.34v-.28h1.35V45c0,.88.29,1.35,1.18,1.35s1.23-.42,1.23-1.11a1.09,1.09,0,0,0-.83-1.11l-1.23-.43a2,2,0,0,1-1.61-2.17c0-1.42,1-2.08,2.58-2.08,1.92,0,2.35,1.12,2.35,2.06v.34Z"/><path d="M580.41,44.07v.25c0,1.22.54,1.84,1.63,1.84a1.44,1.44,0,0,0,1.52-1.46,1.69,1.69,0,0,0-1.43-1.78L581,42.54C579.58,42,579,41.23,579,39.8,579,38,580.2,37,582.06,37c2.56,0,2.83,1.6,2.83,2.63v.23h-1.6v-.21c0-.91-.39-1.45-1.4-1.45a1.28,1.28,0,0,0-1.34,1.45c0,.85.43,1.28,1.49,1.69l1.08.39a2.54,2.54,0,0,1,2,2.65c0,2.13-1.28,3-3.3,3a2.74,2.74,0,0,1-3-3v-.24Z"/><path d="M587.35,39.63l1.3,5.66h0l1.2-5.66h1.59l-2.08,7.82c-.6,2.06-1.06,2.34-2.63,2.29a3,3,0,0,1-.6-.05V48.48a2.05,2.05,0,0,0,.49.06c.52,0,.85-.1,1-.59l.2-.62-2.15-7.7Z"/><path d="M592.3,39.63h1.52v1.18h0a1.86,1.86,0,0,1,1.75-1.38.87.87,0,0,1,.36.06V41a2.18,2.18,0,0,0-.63-.08c-.69,0-1.51.3-1.51,1.71v4.51H592.3Z"/><path d="M596.78,37.05h1.52v1.52h-1.52Zm0,2.58h1.52v7.54h-1.52Z"/><path d="M604.77,45.6c0,.28.16.53.39.53a.57.57,0,0,0,.25,0v1a1.58,1.58,0,0,1-.74.18c-.67,0-1.23-.27-1.28-1h0a2,2,0,0,1-1.88,1.1c-1.22,0-2-.66-2-2.11a2.08,2.08,0,0,1,1.75-2.37l1.18-.32c.54-.16.88-.31.88-1s-.24-1.12-1-1.12c-1,0-1.15.71-1.15,1.44h-1.43c0-1.61.66-2.48,2.65-2.48,1.33,0,2.4.52,2.4,1.85Zm-1.43-2.41a12.39,12.39,0,0,1-1.68.7,1.23,1.23,0,0,0-.62,1.22c0,.63.31,1.13.94,1.13.91,0,1.36-.67,1.36-1.79Z"/><path d="M614.61,45.6c0,.28.17.53.39.53a.54.54,0,0,0,.25,0v1a1.58,1.58,0,0,1-.74.18c-.67,0-1.23-.27-1.27-1h0a2,2,0,0,1-1.88,1.1c-1.22,0-2-.66-2-2.11a2.08,2.08,0,0,1,1.75-2.37l1.18-.32c.54-.16.88-.31.88-1s-.24-1.12-1-1.12c-1,0-1.15.71-1.15,1.44h-1.42c0-1.61.65-2.48,2.64-2.48,1.33,0,2.4.52,2.4,1.85Zm-1.43-2.41a12.39,12.39,0,0,1-1.68.7,1.23,1.23,0,0,0-.62,1.22c0,.63.31,1.13.94,1.13.91,0,1.36-.67,1.36-1.79Z"/><path d="M616.15,39.63h1.42v.88h0a2.17,2.17,0,0,1,1.93-1.08c1.15,0,1.88.52,1.88,2v5.69h-1.52V42c0-1-.26-1.36-1-1.36-.61,0-1.2.46-1.2,1.47v5.06h-1.51Z"/><path d="M626.73,46.24h0a1.6,1.6,0,0,1-1.65,1.12c-1.75,0-2.46-1.48-2.46-4.06,0-3.35,1.17-3.87,2.32-3.87a1.74,1.74,0,0,1,1.71,1.08h0V37.16h1.51v10h-1.43Zm-1.37-5.6c-.86,0-1.18.7-1.18,2.73,0,1.71.21,2.79,1.28,2.79s1.27-1,1.27-2.68C626.73,41.67,626.54,40.64,625.36,40.64Z"/><path d="M633.07,37.16h5.41v1.35h-3.81v2.77h3.58v1.35h-3.58v3.19h3.92v1.35h-5.52Z"/><path d="M639,39.63h1V37.49h1.51v2.14h1.24v1.12h-1.24v4.5c0,.6.17.8.69.8a2.64,2.64,0,0,0,.55,0v1.12a4.64,4.64,0,0,1-1.22.13c-1,0-1.53-.29-1.53-1.82V40.75h-1Z"/><path d="M643.6,37.16h1.51v3.28l0,0a2.16,2.16,0,0,1,1.85-1c1.15,0,1.88.52,1.88,2v5.69h-1.51V42c0-1-.28-1.36-1-1.36s-1.21.47-1.21,1.47v5.06H643.6Z"/><path d="M650.4,37.05h1.52v1.52H650.4Zm0,2.58h1.52v7.54H650.4Z"/><path d="M653.15,43.4c0-2.36.61-4,2.8-4s2.81,1.61,2.81,4-.72,4-2.81,4S653.15,45.75,653.15,43.4Zm2.8,2.84c1.11,0,1.3-.92,1.3-2.84,0-1.67-.19-2.85-1.3-2.85s-1.29,1.18-1.29,2.85C654.66,45.32,654.87,46.24,656,46.24Z"/><path d="M663.17,47.36a1.72,1.72,0,0,1-1.71-1.08h0v3.35h-1.52v-10h1.43v.92h0a1.78,1.78,0,0,1,1.69-1.12c1.73,0,2.43,1.47,2.43,4.07C665.5,46.66,664.22,47.36,663.17,47.36Zm-.54-6.72c-1,0-1.28,1-1.28,2.67,0,1.81.23,2.85,1.29,2.85.86,0,1.26-.65,1.26-2.73C663.9,41.72,663.69,40.64,662.63,40.64Z"/><path d="M666.73,37.05h1.51v1.52h-1.51Zm0,2.58h1.51v7.54h-1.51Z"/><path d="M674.71,45.6c0,.28.17.53.39.53a.54.54,0,0,0,.25,0v1a1.55,1.55,0,0,1-.74.18c-.67,0-1.23-.27-1.27-1h0a2,2,0,0,1-1.88,1.1c-1.22,0-2-.66-2-2.11a2.08,2.08,0,0,1,1.75-2.37l1.18-.32c.54-.16.88-.31.88-1s-.24-1.12-1-1.12c-1,0-1.14.71-1.14,1.44h-1.43c0-1.61.66-2.48,2.64-2.48,1.33,0,2.4.52,2.4,1.85Zm-1.43-2.41a12.39,12.39,0,0,1-1.68.7,1.25,1.25,0,0,0-.62,1.22c0,.63.31,1.13.94,1.13.91,0,1.36-.67,1.36-1.79Z"/><path d="M676.4,45.32H678v1.85h-1.6Z"/><path d="M558.4,71a3.21,3.21,0,0,1-1.57.33c-2.3,0-3.31-1.62-3.31-5.19s1-5.2,3.31-5.2,3.31,1.62,3.31,5.2a8,8,0,0,1-.79,4l1,1.08-1,.85Zm-.84-2.62.66.65a10.19,10.19,0,0,0,.32-2.94c0-3.36-.76-4-1.71-4s-1.71.59-1.71,4,.76,4,1.71,4a1.16,1.16,0,0,0,.57-.1l-.75-.74Z"/><path d="M565.3,70.28h0a2.15,2.15,0,0,1-1.93,1.08c-1.13,0-1.88-.52-1.88-2.46V63.63H563V69c0,.84.37,1.12,1,1.12a1.18,1.18,0,0,0,1.24-1.26V63.63h1.51v7.54H565.3Z"/><path d="M569.49,67.59V68c0,1,.12,2.3,1.26,2.3s1.2-1.22,1.2-1.69h1.43a2.48,2.48,0,0,1-2.65,2.72c-1.23,0-2.76-.36-2.76-3.85,0-2,.44-4.08,2.79-4.08,2.1,0,2.66,1.28,2.66,3.37v.79Zm2.42-1v-.41c0-1-.31-1.68-1.16-1.68s-1.26,1-1.26,1.93v.16Z"/><path d="M576,67.59V68c0,1,.12,2.3,1.26,2.3s1.2-1.22,1.2-1.69h1.43a2.48,2.48,0,0,1-2.65,2.72c-1.23,0-2.76-.36-2.76-3.85,0-2,.44-4.08,2.79-4.08,2.1,0,2.66,1.28,2.66,3.37v.79Zm2.42-1v-.41c0-1-.31-1.68-1.16-1.68s-1.26,1-1.26,1.93v.16Z"/><path d="M581.15,63.63h1.43v.88h0a2.17,2.17,0,0,1,1.93-1.08c1.15,0,1.88.52,1.88,2.05v5.69h-1.52V66c0-1-.26-1.36-1-1.36-.61,0-1.2.46-1.2,1.47v5.06h-1.51Z"/><path d="M591.34,61.16h1.59v4h3v-4h1.59v10h-1.59V66.52h-3v4.65h-1.59Z"/><path d="M604,69.6c0,.28.17.53.39.53a.54.54,0,0,0,.25,0v1a1.58,1.58,0,0,1-.74.18c-.67,0-1.23-.27-1.27-1h0a2,2,0,0,1-1.88,1.1c-1.22,0-2-.66-2-2.11a2.08,2.08,0,0,1,1.75-2.37l1.18-.32c.54-.16.88-.31.88-1s-.24-1.12-1-1.12c-1,0-1.15.71-1.15,1.44h-1.42c0-1.61.65-2.48,2.64-2.48,1.33,0,2.4.52,2.4,1.85Zm-1.43-2.41a12.39,12.39,0,0,1-1.68.7,1.23,1.23,0,0,0-.62,1.22c0,.63.31,1.13.94,1.13.91,0,1.36-.67,1.36-1.79Z"/><path d="M604.83,63.63h1V61.49h1.51v2.14h1.24v1.12h-1.24v4.5c0,.6.17.8.69.8a2.72,2.72,0,0,0,.55,0v1.12a4.69,4.69,0,0,1-1.22.13c-1,0-1.53-.29-1.53-1.82V64.75h-1Z"/><path d="M612.65,65.83v-.2c0-.6-.21-1.16-1-1.16-.6,0-1.07.27-1.07,1s.26.83,1.06,1.11l1,.33a2,2,0,0,1,1.64,2.17c0,1.62-1.2,2.3-2.71,2.3-1.9,0-2.48-.88-2.48-2.34v-.28h1.35V69c0,.88.29,1.35,1.17,1.35s1.24-.42,1.24-1.11a1.09,1.09,0,0,0-.83-1.11l-1.23-.43a2,2,0,0,1-1.61-2.17c0-1.42,1-2.08,2.57-2.08,1.92,0,2.36,1.12,2.36,2.06v.34Z"/><path d="M615.36,61.16h1.51v3.28l0,0a2.14,2.14,0,0,1,1.85-1c1.14,0,1.87.52,1.87,2.05v5.69h-1.51V66c0-1-.28-1.36-1-1.36s-1.21.47-1.21,1.47v5.06h-1.51Z"/><path d="M623.4,67.59V68c0,1,.12,2.3,1.26,2.3s1.2-1.22,1.2-1.69h1.43a2.48,2.48,0,0,1-2.64,2.72c-1.24,0-2.76-.36-2.76-3.85,0-2,.43-4.08,2.78-4.08,2.1,0,2.66,1.28,2.66,3.37v.79Zm2.42-1v-.41c0-1-.31-1.68-1.16-1.68s-1.26,1-1.26,1.93v.16Z"/><path d="M631.83,71.36a1.72,1.72,0,0,1-1.71-1.08h0v3.35h-1.51v-10H630v.92h0a1.8,1.8,0,0,1,1.7-1.12c1.72,0,2.42,1.47,2.42,4.07C634.15,70.66,632.88,71.36,631.83,71.36Zm-.55-6.72c-1,0-1.27,1-1.27,2.67,0,1.81.22,2.85,1.29,2.85.85,0,1.26-.65,1.26-2.73C632.56,65.72,632.35,64.64,631.28,64.64Z"/><path d="M638.56,65.83v-.2c0-.6-.21-1.16-1-1.16-.61,0-1.08.27-1.08,1s.26.83,1.06,1.11l1,.33a2,2,0,0,1,1.64,2.17c0,1.62-1.19,2.3-2.71,2.3-1.9,0-2.47-.88-2.47-2.34v-.28h1.34V69c0,.88.29,1.35,1.18,1.35s1.23-.42,1.23-1.11a1.09,1.09,0,0,0-.83-1.11l-1.23-.43a2,2,0,0,1-1.61-2.17c0-1.42,1-2.08,2.58-2.08,1.92,0,2.35,1.12,2.35,2.06v.34Z"/><path d="M645.13,70.28h0a2.16,2.16,0,0,1-1.94,1.08c-1.12,0-1.87-.52-1.87-2.46V63.63h1.51V69c0,.84.36,1.12,1,1.12A1.17,1.17,0,0,0,645,68.9V63.63h1.52v7.54h-1.43Z"/><path d="M647.34,63.63h1V61.49h1.52v2.14h1.23v1.12h-1.23v4.5c0,.6.16.8.68.8a2.64,2.64,0,0,0,.55,0v1.12a4.64,4.64,0,0,1-1.22.13c-1,0-1.53-.29-1.53-1.82V64.75h-1Z"/></g></g><g id="Amorites"><path d="M1010,43.23h5.66c2.62,0,4.71,1.17,4.71,4.24,0,2.1-.86,3.43-2.57,4v0c1.91.35,3.13,1.5,3.13,4.46s-2.11,4.78-5.39,4.78H1010Zm5,7.37a2.45,2.45,0,0,0,2.57-2.77c0-2.08-1.25-2.5-2.81-2.5h-2V50.6Zm.56,8c1.67,0,2.58-1.06,2.58-3.09a2.65,2.65,0,0,0-2.75-3h-2.59v6.06Z"/><path d="M1031.64,58c0,.49.29.93.68.93a1.06,1.06,0,0,0,.45-.07v1.71a2.86,2.86,0,0,1-1.3.32c-1.18,0-2.16-.47-2.23-1.74h0a3.41,3.41,0,0,1-3.29,1.94c-2.13,0-3.43-1.15-3.43-3.7,0-2.94,1.3-3.56,3.07-4.15l2-.56c1-.27,1.55-.54,1.55-1.69s-.42-2-1.82-2c-1.76,0-2,1.25-2,2.52h-2.5c0-2.81,1.16-4.33,4.64-4.33,2.32,0,4.19.9,4.19,3.23Zm-2.5-4.22A20.5,20.5,0,0,1,1026.2,55a2.17,2.17,0,0,0-1.08,2.13c0,1.1.54,2,1.64,2,1.59,0,2.38-1.18,2.38-3.14Z"/><path d="M1034.33,43.23H1037v5.85h0a3,3,0,0,1,3-1.88c2,0,4.06.9,4.06,6.76,0,4.53-1.25,7.11-4.31,7.11a2.83,2.83,0,0,1-2.89-2h-.05v1.61h-2.5ZM1039.06,59c1.86,0,2.23-1.89,2.23-4.88,0-3.55-.56-4.78-2.06-4.78-2.06,0-2.4,1.82-2.4,5C1036.83,57.12,1037.25,59,1039.06,59Z"/><path d="M1047.58,47.54l2.28,9.9h.05l2.11-9.9h2.77l-3.63,13.67c-1.05,3.61-1.86,4.1-4.6,4a4.76,4.76,0,0,1-1.06-.1V63a3.65,3.65,0,0,0,.86.09c.91,0,1.49-.17,1.79-1l.34-1.08-3.75-13.48Z"/><path d="M1056.38,43.23H1059V60.72h-2.65Z"/><path d="M1061.18,54.13c0-4.12,1.08-6.93,4.9-6.93S1071,50,1071,54.13s-1.28,6.94-4.93,6.94S1061.18,58.25,1061.18,54.13Zm4.9,5c1.94,0,2.28-1.62,2.28-5,0-2.91-.34-5-2.28-5s-2.25,2.06-2.25,5C1063.83,57.49,1064.2,59.11,1066.08,59.11Z"/><path d="M1073,47.54h2.5v1.54h.07A3.78,3.78,0,0,1,1079,47.2c2,0,3.29.9,3.29,3.57v9.95h-2.65v-9c0-1.76-.46-2.38-1.84-2.38-1.07,0-2.1.81-2.1,2.58v8.84H1073Z"/><path d="M1085,43h2.64v2.65H1085Zm0,4.51h2.64V60.72H1085Z"/><path d="M1098.91,58c0,.49.3.93.69.93a1,1,0,0,0,.44-.07v1.71a2.83,2.83,0,0,1-1.3.32c-1.18,0-2.16-.47-2.23-1.74h0a3.4,3.4,0,0,1-3.28,1.94c-2.13,0-3.43-1.15-3.43-3.7,0-2.94,1.3-3.56,3.06-4.15l2.06-.56c1-.27,1.54-.54,1.54-1.69s-.41-2-1.81-2c-1.77,0-2,1.25-2,2.52h-2.5c0-2.81,1.15-4.33,4.63-4.33,2.33,0,4.19.9,4.19,3.23Zm-2.5-4.22a20,20,0,0,1-2.94,1.23,2.17,2.17,0,0,0-1.08,2.13c0,1.1.54,2,1.65,2,1.59,0,2.37-1.18,2.37-3.14Z"/><path d="M1101.6,47.54h2.5v1.54h.08a3.78,3.78,0,0,1,3.38-1.88c2,0,3.28.9,3.28,3.57v9.95h-2.64v-9c0-1.76-.47-2.38-1.84-2.38-1.08,0-2.11.81-2.11,2.58v8.84h-2.65Z"/><path d="M1119.07,51.39V51c0-1-.36-2-1.74-2-1,0-1.88.47-1.88,1.72,0,1.05.46,1.44,1.86,1.93l1.69.59c2,.66,2.87,1.71,2.87,3.8,0,2.82-2.08,4-4.73,4-3.33,0-4.34-1.55-4.34-4.1v-.49h2.35v.42c0,1.54.52,2.35,2.06,2.35s2.16-.73,2.16-1.93a1.91,1.91,0,0,0-1.45-1.94l-2.15-.76c-2-.66-2.82-1.69-2.82-3.8,0-2.47,1.76-3.62,4.51-3.62,3.35,0,4.11,2,4.11,3.6v.59Z"/></g><g id="Ageans"><g id="Title"><g id="small-2" data-name="small"><path d="M111.73,16.93c0,.28.17.53.39.53a.54.54,0,0,0,.25,0v1a1.55,1.55,0,0,1-.74.18c-.67,0-1.23-.26-1.27-1h0a2,2,0,0,1-1.88,1.11c-1.22,0-2-.66-2-2.12a2.08,2.08,0,0,1,1.75-2.37l1.18-.32c.54-.15.88-.31.88-1s-.24-1.12-1-1.12c-1,0-1.14.72-1.14,1.45h-1.43c0-1.61.65-2.48,2.64-2.48,1.33,0,2.4.52,2.4,1.85Zm-1.43-2.41a11.23,11.23,0,0,1-1.68.7,1.23,1.23,0,0,0-.62,1.22c0,.63.31,1.14.94,1.14.91,0,1.36-.68,1.36-1.8Z"/><path d="M113.27,11h1.51v1.18h0a1.85,1.85,0,0,1,1.75-1.37.89.89,0,0,1,.36.05v1.54a2.18,2.18,0,0,0-.63-.08c-.68,0-1.51.31-1.51,1.71V18.5h-1.51Z"/><path d="M117,11h1V8.82h1.51V11h1.24v1.12h-1.24v4.5c0,.6.17.8.69.8a2.81,2.81,0,0,0,.55,0v1.12a5.23,5.23,0,0,1-1.22.12c-1,0-1.53-.29-1.53-1.82V12.08h-1Z"/><path d="M121.72,16.65h1.6V18.5a1.88,1.88,0,0,1-1.6,2.16v-.82c.44-.11.7-.51.7-1.13V18.5h-.7Z"/><path d="M132.71,16.93c0,.28.17.53.4.53a.57.57,0,0,0,.25,0v1a1.58,1.58,0,0,1-.74.18c-.68,0-1.24-.26-1.28-1h0a1.94,1.94,0,0,1-1.87,1.11c-1.22,0-2-.66-2-2.12a2.08,2.08,0,0,1,1.75-2.37l1.17-.32c.55-.15.89-.31.89-1s-.24-1.12-1-1.12c-1,0-1.15.72-1.15,1.45h-1.43c0-1.61.66-2.48,2.65-2.48,1.33,0,2.39.52,2.39,1.85Zm-1.42-2.41a11.23,11.23,0,0,1-1.68.7,1.23,1.23,0,0,0-.62,1.22c0,.63.31,1.14.94,1.14.91,0,1.36-.68,1.36-1.8Z"/><path d="M134.25,11h1.52v1.18h0a1.87,1.87,0,0,1,1.75-1.37.94.94,0,0,1,.37.05v1.54a2.24,2.24,0,0,0-.63-.08c-.69,0-1.51.31-1.51,1.71V18.5h-1.52Z"/><path d="M143.66,15.75c-.11,1.81-.7,2.95-2.57,2.95-2.19,0-2.81-1.61-2.81-4s.62-4,2.81-4a2.43,2.43,0,0,1,2.59,2.7h-1.52c0-.7-.18-1.62-1.07-1.58-1.08,0-1.29,1.17-1.29,2.84s.21,2.85,1.29,2.85c.84,0,1.14-.69,1.14-1.83Z"/><path d="M144.71,8.5h1.51v3.28l0,0a2.18,2.18,0,0,1,1.85-1c1.15,0,1.88.52,1.88,2V18.5h-1.51V13.33c0-1-.28-1.36-1-1.36s-1.21.48-1.21,1.47V18.5h-1.51Z"/><path d="M151.51,8.39H153V9.9h-1.52Zm0,2.57H153V18.5h-1.52Z"/><path d="M153.88,11h1V8.82h1.51V11h1.23v1.12h-1.23v4.5c0,.6.17.8.69.8a2.7,2.7,0,0,0,.54,0v1.12a5.17,5.17,0,0,1-1.22.12c-1,0-1.52-.29-1.52-1.82V12.08h-1Z"/><path d="M159.75,14.93v.43c0,1,.12,2.3,1.26,2.3s1.2-1.22,1.2-1.68h1.43A2.48,2.48,0,0,1,161,18.7c-1.23,0-2.76-.37-2.76-3.86,0-2,.44-4.07,2.79-4.07,2.1,0,2.66,1.27,2.66,3.36v.8Zm2.42-1v-.4c0-1-.31-1.69-1.16-1.69s-1.26,1-1.26,1.94v.15Z"/><path d="M170,15.75c-.11,1.81-.7,2.95-2.58,2.95-2.18,0-2.8-1.61-2.8-4s.62-4,2.8-4a2.43,2.43,0,0,1,2.59,2.7h-1.51c0-.7-.18-1.62-1.08-1.58-1.08,0-1.29,1.17-1.29,2.84s.21,2.85,1.29,2.85c.84,0,1.15-.69,1.15-1.83Z"/><path d="M170.47,11h1V8.82H173V11h1.23v1.12H173v4.5c0,.6.17.8.68.8a2.75,2.75,0,0,0,.55,0v1.12a5.17,5.17,0,0,1-1.22.12c-1,0-1.52-.29-1.52-1.82V12.08h-1Z"/><path d="M178.89,17.62h0a2.17,2.17,0,0,1-1.93,1.08c-1.12,0-1.88-.52-1.88-2.47V11h1.52v5.41c0,.84.36,1.12,1,1.12a1.17,1.17,0,0,0,1.23-1.26V11h1.51V18.5h-1.42Z"/><path d="M181.77,11h1.51v1.18h0a1.85,1.85,0,0,1,1.75-1.37.89.89,0,0,1,.36.05v1.54a2.18,2.18,0,0,0-.63-.08c-.68,0-1.51.31-1.51,1.71V18.5h-1.51Z"/><path d="M187.4,14.93v.43c0,1,.12,2.3,1.26,2.3s1.2-1.22,1.2-1.68h1.43a2.48,2.48,0,0,1-2.65,2.72c-1.23,0-2.76-.37-2.76-3.86,0-2,.44-4.07,2.79-4.07,2.1,0,2.66,1.27,2.66,3.36v.8Zm2.42-1v-.4c0-1-.31-1.69-1.16-1.69s-1.26,1-1.26,1.94v.15Z"/><path d="M200.88,16.93c0,.28.17.53.39.53a.54.54,0,0,0,.25,0v1a1.55,1.55,0,0,1-.74.18c-.67,0-1.23-.26-1.27-1h0a2,2,0,0,1-1.88,1.11c-1.22,0-2-.66-2-2.12a2.08,2.08,0,0,1,1.75-2.37l1.18-.32c.54-.15.88-.31.88-1s-.24-1.12-1-1.12c-1,0-1.14.72-1.14,1.45h-1.43c0-1.61.66-2.48,2.64-2.48,1.33,0,2.4.52,2.4,1.85Zm-1.43-2.41a11.23,11.23,0,0,1-1.68.7,1.25,1.25,0,0,0-.62,1.22c0,.63.31,1.14.94,1.14.91,0,1.36-.68,1.36-1.8Z"/><path d="M202.42,11h1.43v.89h0a2.15,2.15,0,0,1,1.93-1.08c1.15,0,1.88.52,1.88,2V18.5h-1.52V13.33c0-1-.26-1.36-1.05-1.36-.61,0-1.2.46-1.2,1.47V18.5h-1.51Z"/><path d="M213,17.58h0a1.6,1.6,0,0,1-1.65,1.12c-1.75,0-2.46-1.49-2.46-4.07,0-3.34,1.17-3.86,2.32-3.86a1.73,1.73,0,0,1,1.71,1.08h0V8.5h1.51v10H213ZM211.63,12c-.85,0-1.18.7-1.18,2.73,0,1.71.21,2.79,1.28,2.79s1.27-1,1.27-2.67C213,13,212.81,12,211.63,12Z"/><path d="M222.49,13.16V13c0-.61-.21-1.17-1-1.17-.6,0-1.08.27-1.08,1s.27.82,1.07,1.1l1,.34a2,2,0,0,1,1.64,2.17c0,1.61-1.19,2.3-2.7,2.3-1.91,0-2.48-.89-2.48-2.34v-.28h1.34v.23c0,.89.3,1.35,1.18,1.35s1.23-.42,1.23-1.11a1.09,1.09,0,0,0-.82-1.1L220.6,15A2,2,0,0,1,219,12.84c0-1.41,1-2.07,2.58-2.07,1.92,0,2.35,1.12,2.35,2.06v.33Z"/><path d="M230.15,16.93c0,.28.17.53.4.53a.57.57,0,0,0,.25,0v1a1.58,1.58,0,0,1-.74.18c-.68,0-1.24-.26-1.28-1h0a1.94,1.94,0,0,1-1.87,1.11c-1.22,0-2-.66-2-2.12a2.09,2.09,0,0,1,1.75-2.37l1.18-.32c.55-.15.88-.31.88-1s-.23-1.12-1-1.12c-1,0-1.15.72-1.15,1.45h-1.43c0-1.61.66-2.48,2.65-2.48,1.33,0,2.39.52,2.39,1.85Zm-1.43-2.41a10.81,10.81,0,0,1-1.68.7,1.24,1.24,0,0,0-.61,1.22c0,.63.31,1.14.94,1.14.91,0,1.35-.68,1.35-1.8Z"/><path d="M231.69,11h1.43v.89h0a2.15,2.15,0,0,1,1.93-1.08c1.15,0,1.88.52,1.88,2V18.5h-1.51V13.33c0-1-.27-1.36-1.05-1.36-.62,0-1.21.46-1.21,1.47V18.5h-1.51Z"/><path d="M238.49,8.39H240V9.9h-1.52Zm0,2.57H240V18.5h-1.52Z"/><path d="M240.86,11h1V8.82h1.51V11h1.23v1.12h-1.23v4.5c0,.6.17.8.69.8a2.7,2.7,0,0,0,.54,0v1.12a5.17,5.17,0,0,1-1.22.12c-1,0-1.52-.29-1.52-1.82V12.08h-1Z"/><path d="M245.49,8.39H247V9.9h-1.52Zm0,2.57H247V18.5h-1.52Z"/><path d="M251.78,13.16V13c0-.61-.21-1.17-1-1.17-.61,0-1.08.27-1.08,1s.26.82,1.06,1.1l1,.34a2,2,0,0,1,1.64,2.17c0,1.61-1.19,2.3-2.71,2.3-1.9,0-2.47-.89-2.47-2.34v-.28h1.34v.23c0,.89.29,1.35,1.18,1.35s1.23-.42,1.23-1.11a1.09,1.09,0,0,0-.83-1.1L249.89,15a2,2,0,0,1-1.61-2.17c0-1.41,1-2.07,2.58-2.07,1.92,0,2.35,1.12,2.35,2.06v.33Z"/><path d="M259.44,16.93c0,.28.17.53.39.53a.54.54,0,0,0,.25,0v1a1.55,1.55,0,0,1-.74.18c-.67,0-1.23-.26-1.27-1h0a2,2,0,0,1-1.88,1.11c-1.22,0-2-.66-2-2.12A2.08,2.08,0,0,1,256,14.21l1.18-.32c.55-.15.88-.31.88-1s-.24-1.12-1-1.12c-1,0-1.14.72-1.14,1.45H254.4c0-1.61.66-2.48,2.64-2.48,1.34,0,2.4.52,2.4,1.85ZM258,14.52a11.23,11.23,0,0,1-1.68.7,1.25,1.25,0,0,0-.62,1.22c0,.63.31,1.14.94,1.14.91,0,1.36-.68,1.36-1.8Z"/><path d="M260.31,11h1V8.82h1.51V11h1.24v1.12h-1.24v4.5c0,.6.17.8.69.8a2.75,2.75,0,0,0,.55,0v1.12a5.17,5.17,0,0,1-1.22.12c-1,0-1.53-.29-1.53-1.82V12.08h-1Z"/><path d="M264.94,8.39h1.51V9.9h-1.51Zm0,2.57h1.51V18.5h-1.51Z"/><path d="M267.68,14.73c0-2.35.62-4,2.8-4s2.82,1.61,2.82,4-.73,4-2.82,4S267.68,17.09,267.68,14.73Zm2.8,2.85c1.11,0,1.31-.93,1.31-2.85,0-1.67-.2-2.84-1.31-2.84s-1.28,1.17-1.28,2.84C269.2,16.65,269.41,17.58,270.48,17.58Z"/><path d="M274.46,11h1.43v.89h0a2.15,2.15,0,0,1,1.93-1.08c1.15,0,1.88.52,1.88,2V18.5h-1.51V13.33c0-1-.27-1.36-1.05-1.36-.62,0-1.21.46-1.21,1.47V18.5h-1.51Z"/><path d="M281.35,16.65h1.59V18.5c0,1.12-.36,1.92-1.59,2.16v-.82a1,1,0,0,0,.7-1.13V18.5h-.7Z"/><path d="M292.34,16.93c0,.28.17.53.39.53a.54.54,0,0,0,.25,0v1a1.55,1.55,0,0,1-.74.18c-.67,0-1.23-.26-1.27-1h0a2,2,0,0,1-1.88,1.11c-1.22,0-2-.66-2-2.12a2.08,2.08,0,0,1,1.75-2.37l1.18-.32c.54-.15.88-.31.88-1s-.24-1.12-1-1.12c-1,0-1.14.72-1.14,1.45H287.3c0-1.61.65-2.48,2.64-2.48,1.33,0,2.4.52,2.4,1.85Zm-1.43-2.41a11.23,11.23,0,0,1-1.68.7,1.25,1.25,0,0,0-.62,1.22c0,.63.31,1.14.94,1.14.91,0,1.36-.68,1.36-1.8Z"/><path d="M293.88,11h1.43v.89h0a2.15,2.15,0,0,1,1.93-1.08c1.15,0,1.88.52,1.88,2V18.5h-1.52V13.33c0-1-.26-1.36-1.05-1.36-.61,0-1.2.46-1.2,1.47V18.5h-1.51Z"/><path d="M304.46,17.58h0a1.6,1.6,0,0,1-1.65,1.12c-1.75,0-2.46-1.49-2.46-4.07,0-3.34,1.17-3.86,2.32-3.86a1.73,1.73,0,0,1,1.71,1.08h0V8.5h1.51v10h-1.43ZM303.09,12c-.85,0-1.18.7-1.18,2.73,0,1.71.21,2.79,1.28,2.79s1.27-1,1.27-2.67C304.46,13,304.27,12,303.09,12Z"/><path d="M315.79,15.75c-.11,1.81-.7,2.95-2.58,2.95-2.18,0-2.8-1.61-2.8-4s.62-4,2.8-4a2.43,2.43,0,0,1,2.59,2.7h-1.51c0-.7-.18-1.62-1.08-1.58-1.08,0-1.29,1.17-1.29,2.84s.21,2.85,1.29,2.85c.84,0,1.15-.69,1.15-1.83Z"/><path d="M316.63,14.73c0-2.35.61-4,2.8-4s2.81,1.61,2.81,4-.73,4-2.81,4S316.63,17.09,316.63,14.73Zm2.8,2.85c1.1,0,1.3-.93,1.3-2.85,0-1.67-.2-2.84-1.3-2.84s-1.29,1.17-1.29,2.84C318.14,16.65,318.35,17.58,319.43,17.58Z"/><path d="M323.4,11h1.43v.89h0a2.16,2.16,0,0,1,1.94-1.08c1.14,0,1.87.52,1.87,2V18.5h-1.51V13.33c0-1-.27-1.36-1.05-1.36-.62,0-1.21.46-1.21,1.47V18.5H323.4Z"/><path d="M333.39,13.16V13c0-.61-.21-1.17-1-1.17-.6,0-1.08.27-1.08,1s.27.82,1.07,1.1l1,.34A2,2,0,0,1,335,16.4c0,1.61-1.19,2.3-2.7,2.3-1.91,0-2.48-.89-2.48-2.34v-.28h1.34v.23c0,.89.3,1.35,1.18,1.35s1.23-.42,1.23-1.11a1.09,1.09,0,0,0-.82-1.1L331.49,15a2,2,0,0,1-1.61-2.17c0-1.41,1-2.07,2.58-2.07,1.92,0,2.35,1.12,2.35,2.06v.33Z"/><path d="M335.43,11h1V8.82H338V11h1.23v1.12H338v4.5c0,.6.16.8.68.8a2.75,2.75,0,0,0,.55,0v1.12a5.17,5.17,0,0,1-1.22.12c-1,0-1.53-.29-1.53-1.82V12.08h-1Z"/><path d="M340,11h1.51v1.18h0a1.87,1.87,0,0,1,1.75-1.37.94.94,0,0,1,.37.05v1.54a2.24,2.24,0,0,0-.63-.08c-.69,0-1.52.31-1.52,1.71V18.5H340Z"/><path d="M348.25,17.62h0a2.17,2.17,0,0,1-1.93,1.08c-1.12,0-1.88-.52-1.88-2.47V11h1.51v5.41c0,.84.37,1.12,1,1.12a1.17,1.17,0,0,0,1.23-1.26V11h1.51V18.5h-1.43Z"/><path d="M356.22,15.75c-.11,1.81-.7,2.95-2.58,2.95-2.18,0-2.8-1.61-2.8-4s.62-4,2.8-4a2.43,2.43,0,0,1,2.59,2.7h-1.51c0-.7-.18-1.62-1.08-1.58-1.08,0-1.29,1.17-1.29,2.84s.21,2.85,1.29,2.85c.84,0,1.15-.69,1.15-1.83Z"/><path d="M356.68,11h1V8.82h1.51V11h1.23v1.12h-1.23v4.5c0,.6.17.8.68.8a2.75,2.75,0,0,0,.55,0v1.12a5.17,5.17,0,0,1-1.22.12c-1,0-1.52-.29-1.52-1.82V12.08h-1Z"/><path d="M361.31,8.39h1.52V9.9h-1.52Zm0,2.57h1.52V18.5h-1.52Z"/><path d="M364.06,14.73c0-2.35.61-4,2.8-4s2.81,1.61,2.81,4-.72,4-2.81,4S364.06,17.09,364.06,14.73Zm2.8,2.85c1.1,0,1.3-.93,1.3-2.85,0-1.67-.2-2.84-1.3-2.84s-1.29,1.17-1.29,2.84C365.57,16.65,365.78,17.58,366.86,17.58Z"/><path d="M370.83,11h1.43v.89h0a2.16,2.16,0,0,1,1.94-1.08c1.15,0,1.87.52,1.87,2V18.5H374.6V13.33c0-1-.27-1.36-1.05-1.36-.62,0-1.2.46-1.2,1.47V18.5h-1.52Z"/><path d="M380.63,14.73c0-2.35.62-4,2.8-4s2.82,1.61,2.82,4-.73,4-2.82,4S380.63,17.09,380.63,14.73Zm2.8,2.85c1.11,0,1.31-.93,1.31-2.85,0-1.67-.2-2.84-1.31-2.84s-1.28,1.17-1.28,2.84C382.15,16.65,382.36,17.58,383.43,17.58Z"/><path d="M387.87,12.08h-1.05V11h1.05v-.7c0-1.41.69-1.87,1.92-1.87a6.67,6.67,0,0,1,.83,0V9.59h-.42c-.56,0-.82.21-.82.72V11h1.24v1.12h-1.24V18.5h-1.51Z"/><path d="M399.75,15.75c-.12,1.81-.71,2.95-2.58,2.95-2.19,0-2.8-1.61-2.8-4s.61-4,2.8-4a2.43,2.43,0,0,1,2.59,2.7h-1.51c0-.7-.19-1.62-1.08-1.58-1.08,0-1.29,1.17-1.29,2.84s.21,2.85,1.29,2.85c.84,0,1.15-.69,1.15-1.83Z"/><path d="M405.82,16.93c0,.28.17.53.39.53a.59.59,0,0,0,.26,0v1a1.63,1.63,0,0,1-.75.18c-.67,0-1.23-.26-1.27-1h0a2,2,0,0,1-1.88,1.11c-1.22,0-2-.66-2-2.12a2.08,2.08,0,0,1,1.75-2.37l1.18-.32c.55-.15.88-.31.88-1s-.24-1.12-1-1.12c-1,0-1.15.72-1.15,1.45h-1.43c0-1.61.66-2.48,2.65-2.48,1.33,0,2.39.52,2.39,1.85Zm-1.43-2.41a11.23,11.23,0,0,1-1.68.7,1.24,1.24,0,0,0-.61,1.22c0,.63.3,1.14.93,1.14.91,0,1.36-.68,1.36-1.8Z"/><path d="M407.36,11h1.43v.89h0a2.15,2.15,0,0,1,1.93-1.08c1.15,0,1.88.52,1.88,2V18.5h-1.51V13.33c0-1-.27-1.36-1.05-1.36-.62,0-1.21.46-1.21,1.47V18.5h-1.51Z"/><path d="M419,16.93c0,.28.16.53.39.53a.57.57,0,0,0,.25,0v1a1.58,1.58,0,0,1-.74.18c-.67,0-1.23-.26-1.28-1h0a2,2,0,0,1-1.88,1.11c-1.22,0-2-.66-2-2.12a2.08,2.08,0,0,1,1.75-2.37l1.18-.32c.54-.15.88-.31.88-1s-.24-1.12-1-1.12c-1,0-1.15.72-1.15,1.45H414c0-1.61.66-2.48,2.65-2.48,1.33,0,2.4.52,2.4,1.85Zm-1.43-2.41a11.23,11.23,0,0,1-1.68.7,1.23,1.23,0,0,0-.62,1.22c0,.63.31,1.14.94,1.14.91,0,1.36-.68,1.36-1.8Z"/><path d="M420.64,8.5h1.52v10h-1.52Z"/><path d="M426.93,13.16V13c0-.61-.21-1.17-1-1.17-.61,0-1.08.27-1.08,1s.26.82,1.06,1.1l1,.34a2,2,0,0,1,1.64,2.17c0,1.61-1.19,2.3-2.7,2.3-1.91,0-2.48-.89-2.48-2.34v-.28h1.34v.23c0,.89.29,1.35,1.18,1.35s1.23-.42,1.23-1.11a1.09,1.09,0,0,0-.83-1.1L425,15a2,2,0,0,1-1.61-2.17c0-1.41,1-2.07,2.58-2.07,1.92,0,2.35,1.12,2.35,2.06v.33Z"/><path d="M429.8,16.65h1.6V18.5h-1.6Z"/><path d="M177.8,34.5h1.61l1.32,7.77h0l1.32-7.77h1.68l1.34,7.81h0l1.3-7.81H188l-2,10h-1.85L182.89,37h0l-1.27,7.54h-1.85Z"/><path d="M188.28,40.73c0-2.35.61-4,2.8-4s2.81,1.61,2.81,4-.73,4-2.81,4S188.28,43.09,188.28,40.73Zm2.8,2.85c1.1,0,1.3-.93,1.3-2.85,0-1.67-.2-2.84-1.3-2.84s-1.29,1.17-1.29,2.84C189.79,42.65,190,43.58,191.08,43.58Z"/><path d="M195.05,37h1.52v1.18h0a1.87,1.87,0,0,1,1.75-1.37.94.94,0,0,1,.37,0v1.54a2.24,2.24,0,0,0-.63-.08c-.69,0-1.51.31-1.51,1.71V44.5h-1.52Z"/><path d="M202.71,39.16V39c0-.61-.21-1.17-1-1.17-.6,0-1.08.27-1.08,1s.27.82,1.06,1.1l1,.34a2,2,0,0,1,1.64,2.17c0,1.61-1.19,2.3-2.7,2.3-1.91,0-2.48-.89-2.48-2.34v-.28h1.34v.23c0,.89.3,1.35,1.18,1.35s1.23-.42,1.23-1.11a1.09,1.09,0,0,0-.83-1.1L200.82,41a2,2,0,0,1-1.61-2.17c0-1.41,1-2.07,2.58-2.07,1.92,0,2.35,1.12,2.35,2.06v.33Z"/><path d="M205.43,34.5h1.51v3.28l0,0a2.18,2.18,0,0,1,1.85-1c1.15,0,1.88.52,1.88,2V44.5h-1.52V39.33c0-1-.28-1.36-1.05-1.36-.61,0-1.2.48-1.2,1.47V44.5h-1.51Z"/><path d="M212.23,34.39h1.51V35.9h-1.51Zm0,2.57h1.51V44.5h-1.51Z"/><path d="M218.52,44.7a1.74,1.74,0,0,1-1.71-1.08h0V47h-1.51V37h1.43v.93h0a1.8,1.8,0,0,1,1.7-1.12c1.72,0,2.42,1.47,2.42,4.06C220.84,44,219.57,44.7,218.52,44.7ZM218,38c-1,0-1.27,1.05-1.27,2.68,0,1.81.22,2.84,1.29,2.84.85,0,1.26-.64,1.26-2.73C219.25,39.05,219,38,218,38Z"/><path d="M225.07,40.73c0-2.35.61-4,2.8-4s2.81,1.61,2.81,4-.72,4-2.81,4S225.07,43.09,225.07,40.73Zm2.8,2.85c1.11,0,1.3-.93,1.3-2.85,0-1.67-.19-2.84-1.3-2.84s-1.29,1.17-1.29,2.84C226.58,42.65,226.79,43.58,227.87,43.58Z"/><path d="M232.31,38.08h-1.05V37h1.05v-.7c0-1.41.68-1.87,1.92-1.87a6.4,6.4,0,0,1,.82,0v1.16h-.42c-.56,0-.81.21-.81.72V37h1.23v1.12h-1.23V44.5h-1.51Z"/><path d="M238.42,37h1V34.82H241V37h1.23v1.12H241v4.5c0,.6.17.8.69.8a2.7,2.7,0,0,0,.54,0v1.12a5.08,5.08,0,0,1-1.21.12c-1,0-1.53-.29-1.53-1.82V38.08h-1Z"/><path d="M243,34.5h1.51v3.28l0,0a2.18,2.18,0,0,1,1.85-1c1.15,0,1.88.52,1.88,2V44.5h-1.51V39.33c0-1-.28-1.36-1.06-1.36-.61,0-1.2.48-1.2,1.47V44.5H243Z"/><path d="M251,40.93v.43c0,1,.13,2.3,1.27,2.3s1.2-1.22,1.2-1.68h1.43a2.48,2.48,0,0,1-2.65,2.72c-1.23,0-2.76-.37-2.76-3.86,0-2,.44-4.07,2.79-4.07,2.1,0,2.66,1.27,2.66,3.36v.8Zm2.43-1v-.4c0-1-.31-1.69-1.16-1.69s-1.27,1-1.27,1.94v.15Z"/><path d="M264.61,43.34h0a2.08,2.08,0,0,1-2.19,1.36c-2.18,0-3-1.63-3-5.2s1-5.2,3.32-5.2a2.73,2.73,0,0,1,2.93,2.89v.18h-1.51v-.24c0-.74-.31-1.62-1.4-1.62s-1.74.75-1.74,4,.53,4,1.61,4,1.67-.87,1.67-3.05h-1.68V39.23h3.19V44.5h-1.2Z"/><path d="M267.08,37h1.51v1.18h0a1.87,1.87,0,0,1,1.75-1.37.94.94,0,0,1,.37,0v1.54a2.3,2.3,0,0,0-.63-.08c-.69,0-1.52.31-1.52,1.71V44.5h-1.51Z"/><path d="M272.71,40.93v.43c0,1,.13,2.3,1.26,2.3s1.21-1.22,1.21-1.68h1.42A2.48,2.48,0,0,1,274,44.7c-1.24,0-2.76-.37-2.76-3.86,0-2,.43-4.07,2.78-4.07,2.11,0,2.67,1.27,2.67,3.36v.8Zm2.42-1v-.4c0-1-.31-1.69-1.16-1.69s-1.26,1-1.26,1.94v.15Z"/><path d="M282.83,42.93c0,.28.17.53.4.53a.57.57,0,0,0,.25,0v1a1.58,1.58,0,0,1-.74.18c-.68,0-1.24-.26-1.28-1h0a1.94,1.94,0,0,1-1.87,1.11c-1.22,0-2-.66-2-2.12a2.09,2.09,0,0,1,1.76-2.37l1.17-.32c.55-.15.88-.31.88-1s-.23-1.12-1-1.12c-1,0-1.15.72-1.15,1.45h-1.43c0-1.61.66-2.48,2.65-2.48,1.33,0,2.39.52,2.39,1.85Zm-1.43-2.41a10.81,10.81,0,0,1-1.68.7,1.24,1.24,0,0,0-.61,1.22c0,.63.31,1.14.94,1.14.91,0,1.35-.68,1.35-1.8Z"/><path d="M283.7,37h1V34.82h1.51V37h1.23v1.12h-1.23v4.5c0,.6.17.8.68.8a2.75,2.75,0,0,0,.55,0v1.12a5.17,5.17,0,0,1-1.22.12c-1,0-1.52-.29-1.52-1.82V38.08h-1Z"/><path d="M291.72,34.5h5.41v1.34h-3.81v2.78h3.58V40h-3.58v3.2h3.92V44.5h-5.52Z"/><path d="M303.3,42.93c0,.28.17.53.39.53a.59.59,0,0,0,.26,0v1a1.63,1.63,0,0,1-.75.18c-.67,0-1.23-.26-1.27-1h0A2,2,0,0,1,300,44.7c-1.22,0-2-.66-2-2.12a2.08,2.08,0,0,1,1.75-2.37l1.18-.32c.55-.15.88-.31.88-1s-.24-1.12-1-1.12c-1,0-1.15.72-1.15,1.45h-1.43c0-1.61.66-2.48,2.65-2.48,1.33,0,2.39.52,2.39,1.85Zm-1.43-2.41a11.23,11.23,0,0,1-1.68.7,1.24,1.24,0,0,0-.61,1.22c0,.63.3,1.14.93,1.14.91,0,1.36-.68,1.36-1.8Z"/><path d="M304.84,37h1.51v1.18h0a1.87,1.87,0,0,1,1.75-1.37.89.89,0,0,1,.36,0v1.54a2.18,2.18,0,0,0-.63-.08c-.68,0-1.51.31-1.51,1.71V44.5h-1.51Z"/><path d="M308.58,37h1V34.82h1.52V37h1.23v1.12h-1.23v4.5c0,.6.16.8.68.8a2.75,2.75,0,0,0,.55,0v1.12a5.17,5.17,0,0,1-1.22.12c-1,0-1.53-.29-1.53-1.82V38.08h-1Z"/><path d="M313.14,34.5h1.51v3.28l.05,0a2.15,2.15,0,0,1,1.84-1c1.15,0,1.88.52,1.88,2V44.5h-1.51V39.33c0-1-.28-1.36-1.05-1.36s-1.21.48-1.21,1.47V44.5h-1.51Z"/><path d="M323.33,34.5h2.5l1.76,7.41h0l1.73-7.41h2.44v10h-1.51V36.18h0l-2,8.32h-1.34l-2-8.32h0V44.5h-1.51Z"/><path d="M333.05,40.73c0-2.35.61-4,2.8-4s2.81,1.61,2.81,4-.72,4-2.81,4S333.05,43.09,333.05,40.73Zm2.8,2.85c1.11,0,1.3-.93,1.3-2.85,0-1.67-.19-2.84-1.3-2.84s-1.29,1.17-1.29,2.84C334.56,42.65,334.77,43.58,335.85,43.58Z"/><path d="M339.15,37h1V34.82h1.51V37h1.23v1.12H341.7v4.5c0,.6.17.8.69.8a2.7,2.7,0,0,0,.54,0v1.12a5.17,5.17,0,0,1-1.22.12c-1,0-1.52-.29-1.52-1.82V38.08h-1Z"/><path d="M343.72,34.5h1.51v3.28l0,0a2.15,2.15,0,0,1,1.85-1c1.15,0,1.88.52,1.88,2V44.5h-1.52V39.33c0-1-.28-1.36-1.05-1.36-.61,0-1.2.48-1.2,1.47V44.5h-1.51Z"/><path d="M351.75,40.93v.43c0,1,.13,2.3,1.26,2.3s1.21-1.22,1.21-1.68h1.43A2.48,2.48,0,0,1,353,44.7c-1.23,0-2.76-.37-2.76-3.86,0-2,.43-4.07,2.79-4.07,2.1,0,2.66,1.27,2.66,3.36v.8Zm2.43-1v-.4c0-1-.31-1.69-1.17-1.69s-1.26,1-1.26,1.94v.15Z"/><path d="M356.93,37h1.51v1.18h0a1.87,1.87,0,0,1,1.75-1.37.94.94,0,0,1,.37,0v1.54a2.24,2.24,0,0,0-.63-.08c-.69,0-1.52.31-1.52,1.71V44.5h-1.51Z"/><path d="M177.5,60.5h5.4v1.34h-3.81v2.78h3.59V66h-3.59v3.2H183V70.5H177.5Z"/><path d="M187.38,65.16V65c0-.61-.21-1.17-1-1.17-.6,0-1.08.27-1.08,1s.27.82,1.06,1.1l1,.34A2,2,0,0,1,189,68.4c0,1.61-1.19,2.3-2.7,2.3-1.91,0-2.48-.89-2.48-2.34v-.28h1.34v.23c0,.89.3,1.35,1.18,1.35s1.23-.42,1.23-1.11a1.09,1.09,0,0,0-.83-1.1L185.49,67a2,2,0,0,1-1.61-2.17c0-1.41,1-2.07,2.58-2.07,1.92,0,2.35,1.12,2.35,2.06v.33Z"/><path d="M189.42,63h1V60.82H192V63h1.24v1.12H192v4.5c0,.6.17.8.69.8a2.81,2.81,0,0,0,.55,0v1.12a5.23,5.23,0,0,1-1.22.12c-1,0-1.53-.29-1.53-1.82V64.08h-1Z"/><path d="M198.93,68.93c0,.28.17.53.4.53a.57.57,0,0,0,.25,0v1a1.58,1.58,0,0,1-.74.18c-.68,0-1.24-.26-1.28-1h0a1.94,1.94,0,0,1-1.87,1.11c-1.22,0-2-.66-2-2.12a2.09,2.09,0,0,1,1.76-2.37l1.17-.32c.55-.15.88-.31.88-1s-.23-1.12-1-1.12c-1,0-1.15.72-1.15,1.45h-1.43c0-1.61.66-2.48,2.65-2.48,1.33,0,2.39.52,2.39,1.85Zm-1.43-2.41a10.81,10.81,0,0,1-1.68.7,1.24,1.24,0,0,0-.61,1.22c0,.63.31,1.14.94,1.14.91,0,1.35-.68,1.35-1.8Z"/><path d="M200.47,60.5H202v3.35h0a1.73,1.73,0,0,1,1.71-1.08c1.15,0,2.33.52,2.33,3.86,0,2.6-.72,4.07-2.47,4.07a1.61,1.61,0,0,1-1.65-1.12h0v.92h-1.43Zm2.7,9c1.07,0,1.28-1.08,1.28-2.79,0-2-.32-2.73-1.18-2.73-1.17,0-1.37,1-1.37,2.85C201.9,68.44,202.14,69.49,203.17,69.49Z"/><path d="M207.27,60.5h1.52v10h-1.52Z"/><path d="M210.38,60.39h1.51V61.9h-1.51Zm0,2.57h1.51V70.5h-1.51Z"/><path d="M216.67,65.16V65c0-.61-.21-1.17-1-1.17-.6,0-1.07.27-1.07,1s.26.82,1.06,1.1l1,.34a2,2,0,0,1,1.64,2.17c0,1.61-1.19,2.3-2.71,2.3-1.9,0-2.48-.89-2.48-2.34v-.28h1.35v.23c0,.89.29,1.35,1.17,1.35s1.24-.42,1.24-1.11a1.09,1.09,0,0,0-.83-1.1L214.78,67a2,2,0,0,1-1.61-2.17c0-1.41,1-2.07,2.58-2.07,1.91,0,2.35,1.12,2.35,2.06v.33Z"/><path d="M219.38,60.5h1.52v3.28l0,0a2.15,2.15,0,0,1,1.85-1c1.15,0,1.87.52,1.87,2V70.5h-1.51V65.33c0-1-.28-1.36-1.05-1.36-.62,0-1.2.48-1.2,1.47V70.5h-1.52Z"/><path d="M226.19,63h1.43v.89h0a2.09,2.09,0,0,1,1.81-1.08,1.65,1.65,0,0,1,1.75,1.15,2,2,0,0,1,1.9-1.15c1.07,0,1.84.54,1.84,2V70.5h-1.52V65.33c0-1-.29-1.36-.91-1.36s-1.2.48-1.2,1.47V70.5h-1.51V65.33c0-1-.3-1.36-.93-1.36s-1.19.49-1.19,1.47V70.5h-1.51Z"/><path d="M237.78,66.93v.43c0,1,.13,2.3,1.26,2.3s1.21-1.22,1.21-1.68h1.42A2.48,2.48,0,0,1,239,70.7c-1.24,0-2.76-.37-2.76-3.86,0-2,.43-4.07,2.78-4.07,2.11,0,2.67,1.27,2.67,3.36v.8Zm2.42-1v-.4c0-1-.31-1.69-1.16-1.69s-1.26,1-1.26,1.94v.15Z"/><path d="M243,63h1.43v.89h0a2.15,2.15,0,0,1,1.93-1.08c1.15,0,1.88.52,1.88,2V70.5h-1.51V65.33c0-1-.27-1.36-1-1.36-.62,0-1.21.46-1.21,1.47V70.5H243Z"/><path d="M249,63h1V60.82h1.51V63h1.23v1.12h-1.23v4.5c0,.6.17.8.69.8a2.7,2.7,0,0,0,.54,0v1.12a5.17,5.17,0,0,1-1.22.12c-1,0-1.52-.29-1.52-1.82V64.08h-1Z"/><path d="M256.65,66.73c0-2.35.62-4,2.8-4s2.82,1.61,2.82,4-.73,4-2.82,4S256.65,69.09,256.65,66.73Zm2.8,2.85c1.11,0,1.31-.93,1.31-2.85,0-1.67-.2-2.84-1.31-2.84s-1.29,1.17-1.29,2.84C258.16,68.65,258.37,69.58,259.45,69.58Z"/><path d="M263.89,64.08h-1.05V63h1.05v-.7c0-1.41.69-1.87,1.92-1.87a6.4,6.4,0,0,1,.82,0v1.16h-.42c-.56,0-.81.21-.81.72V63h1.23v1.12H265.4V70.5h-1.51Z"/><path d="M275.76,67.75c-.11,1.81-.7,3-2.57,3-2.19,0-2.81-1.61-2.81-4s.62-4,2.81-4a2.43,2.43,0,0,1,2.59,2.7h-1.51c0-.7-.19-1.62-1.08-1.58-1.08,0-1.29,1.17-1.29,2.84s.21,2.85,1.29,2.85c.84,0,1.14-.69,1.14-1.83Z"/><path d="M276.6,66.73c0-2.35.62-4,2.8-4s2.82,1.61,2.82,4-.73,4-2.82,4S276.6,69.09,276.6,66.73Zm2.8,2.85c1.11,0,1.3-.93,1.3-2.85,0-1.67-.19-2.84-1.3-2.84s-1.29,1.17-1.29,2.84C278.11,68.65,278.32,69.58,279.4,69.58Z"/><path d="M283.45,60.5H285v10h-1.51Z"/><path d="M286.19,66.73c0-2.35.62-4,2.8-4s2.82,1.61,2.82,4-.73,4-2.82,4S286.19,69.09,286.19,66.73Zm2.8,2.85c1.11,0,1.3-.93,1.3-2.85,0-1.67-.19-2.84-1.3-2.84s-1.29,1.17-1.29,2.84C287.7,68.65,287.91,69.58,289,69.58Z"/><path d="M293,63h1.43v.89h0a2.15,2.15,0,0,1,1.93-1.08c1.15,0,1.88.52,1.88,2V70.5h-1.52V65.33c0-1-.26-1.36-1.05-1.36-.61,0-1.2.46-1.2,1.47V70.5H293Z"/><path d="M299.77,60.39h1.51V61.9h-1.51Zm0,2.57h1.51V70.5h-1.51Z"/><path d="M304.11,66.93v.43c0,1,.13,2.3,1.26,2.3s1.21-1.22,1.21-1.68H308a2.48,2.48,0,0,1-2.64,2.72c-1.24,0-2.76-.37-2.76-3.86,0-2,.43-4.07,2.79-4.07,2.1,0,2.66,1.27,2.66,3.36v.8Zm2.42-1v-.4c0-1-.3-1.69-1.16-1.69s-1.26,1-1.26,1.94v.15Z"/><path d="M312.54,65.16V65c0-.61-.21-1.17-1-1.17-.6,0-1.07.27-1.07,1s.26.82,1.06,1.1l1,.34a2,2,0,0,1,1.64,2.17c0,1.61-1.19,2.3-2.71,2.3-1.9,0-2.48-.89-2.48-2.34v-.28h1.35v.23c0,.89.29,1.35,1.18,1.35s1.23-.42,1.23-1.11a1.09,1.09,0,0,0-.83-1.1L310.65,67A2,2,0,0,1,309,64.84c0-1.41,1-2.07,2.58-2.07,1.91,0,2.35,1.12,2.35,2.06v.33Z"/><path d="M318.68,60.39h1.52V61.9h-1.52Zm0,2.57h1.52V70.5h-1.52Z"/><path d="M321.72,63h1.43v.89h0a2.16,2.16,0,0,1,1.94-1.08c1.14,0,1.87.52,1.87,2V70.5h-1.51V65.33c0-1-.27-1.36-1.05-1.36-.62,0-1.21.46-1.21,1.47V70.5h-1.51Z"/><path d="M333.15,67.4v.26c0,1.21.54,1.83,1.63,1.83A1.44,1.44,0,0,0,336.3,68a1.67,1.67,0,0,0-1.43-1.77l-1.09-.38a2.67,2.67,0,0,1-2.09-2.75c0-1.82,1.25-2.83,3.11-2.83,2.56,0,2.83,1.6,2.83,2.64v.22H336V63c0-.91-.39-1.44-1.4-1.44A1.27,1.27,0,0,0,333.29,63c0,.85.43,1.29,1.49,1.69l1.08.4a2.53,2.53,0,0,1,2,2.64c0,2.13-1.28,3-3.3,3a2.75,2.75,0,0,1-3-3.06V67.4Z"/><path d="M339.15,60.39h1.51V61.9h-1.51Zm0,2.57h1.51V70.5h-1.51Z"/><path d="M347.27,67.75c-.11,1.81-.7,3-2.57,3-2.19,0-2.81-1.61-2.81-4s.62-4,2.81-4a2.43,2.43,0,0,1,2.59,2.7h-1.51c0-.7-.19-1.62-1.08-1.58-1.08,0-1.29,1.17-1.29,2.84s.21,2.85,1.29,2.85c.84,0,1.15-.69,1.15-1.83Z"/><path d="M348.47,60.39H350V61.9h-1.52Zm0,2.57H350V70.5h-1.52Z"/><path d="M351.58,60.5h1.52v10h-1.52Z"/><path d="M355.63,63l1.3,5.66h0l1.2-5.66h1.59l-2.08,7.82c-.6,2.06-1.06,2.34-2.63,2.3a3.05,3.05,0,0,1-.6-.06v-1.2a2,2,0,0,0,.49.05c.52,0,.85-.1,1-.59l.2-.61L354,63Z"/><path d="M359.7,68.65h1.6V70.5c0,1.12-.36,1.92-1.6,2.16v-.82c.44-.11.7-.51.7-1.13V70.5h-.7Z"/><path d="M200.09,93.4v.26c0,1.21.55,1.83,1.64,1.83A1.44,1.44,0,0,0,203.25,94a1.67,1.67,0,0,0-1.43-1.77l-1.1-.38a2.67,2.67,0,0,1-2.08-2.75c0-1.82,1.24-2.83,3.11-2.83,2.56,0,2.83,1.6,2.83,2.64v.22H203V89c0-.91-.39-1.44-1.4-1.44A1.28,1.28,0,0,0,200.23,89c0,.85.44,1.29,1.5,1.69l1.08.4a2.53,2.53,0,0,1,2,2.64c0,2.13-1.29,3-3.3,3a2.75,2.75,0,0,1-3-3.06V93.4Z"/><path d="M205.73,92.73c0-2.35.62-4,2.81-4s2.81,1.61,2.81,4-.73,4-2.81,4S205.73,95.09,205.73,92.73Zm2.81,2.85c1.1,0,1.3-.93,1.3-2.85,0-1.67-.2-2.84-1.3-2.84s-1.29,1.17-1.29,2.84C207.25,94.65,207.46,95.58,208.54,95.58Z"/><path d="M216.36,95.62h0a2.17,2.17,0,0,1-1.93,1.08c-1.12,0-1.88-.52-1.88-2.47V89H214v5.41c0,.84.37,1.12,1,1.12a1.18,1.18,0,0,0,1.23-1.26V89h1.51V96.5h-1.43Z"/><path d="M218.57,89h1V86.82h1.51V89h1.23v1.12h-1.23v4.5c0,.6.17.8.69.8a2.7,2.7,0,0,0,.54,0v1.12a5.08,5.08,0,0,1-1.21.12c-1,0-1.53-.29-1.53-1.82V90.08h-1Z"/><path d="M223.14,86.5h1.51v3.28l0,0a2.16,2.16,0,0,1,1.85-1c1.15,0,1.88.52,1.88,2V96.5H226.9V91.33c0-1-.28-1.36-1.05-1.36-.61,0-1.2.48-1.2,1.47V96.5h-1.51Z"/><path d="M233.26,86.5h1.59v10h-1.59Z"/><path d="M235.67,89h1V86.82h1.51V89h1.24v1.12h-1.24v4.5c0,.6.17.8.69.8a2.75,2.75,0,0,0,.55,0v1.12a5.17,5.17,0,0,1-1.22.12c-1,0-1.53-.29-1.53-1.82V90.08h-1Z"/><path d="M245.17,94.93c0,.28.17.53.4.53a.57.57,0,0,0,.25,0v1a1.58,1.58,0,0,1-.74.18c-.68,0-1.24-.26-1.28-1h0a1.94,1.94,0,0,1-1.87,1.11c-1.22,0-2-.66-2-2.12a2.08,2.08,0,0,1,1.75-2.37l1.17-.32c.55-.15.89-.31.89-1s-.24-1.12-1-1.12c-1,0-1.15.72-1.15,1.45h-1.43c0-1.61.66-2.48,2.65-2.48,1.33,0,2.39.52,2.39,1.85Zm-1.42-2.41a10.92,10.92,0,0,1-1.69.7,1.24,1.24,0,0,0-.61,1.22c0,.63.31,1.14.94,1.14.91,0,1.36-.68,1.36-1.8Z"/><path d="M246.78,86.5h1.51v10h-1.51Z"/><path d="M250.83,89l1.3,5.66h0l1.2-5.66H255l-2.08,7.82c-.6,2.06-1.06,2.34-2.63,2.3a3.05,3.05,0,0,1-.6-.06v-1.2a2,2,0,0,0,.49.05c.52,0,.85-.1,1-.59l.2-.61L249.2,89Z"/><path d="M264.09,94.93c0,.28.17.53.39.53a.54.54,0,0,0,.25,0v1a1.58,1.58,0,0,1-.74.18c-.67,0-1.23-.26-1.27-1h0a2,2,0,0,1-1.88,1.11c-1.22,0-2-.66-2-2.12a2.08,2.08,0,0,1,1.75-2.37l1.18-.32c.54-.15.88-.31.88-1s-.24-1.12-1-1.12c-1,0-1.15.72-1.15,1.45h-1.42c0-1.61.65-2.48,2.64-2.48,1.33,0,2.4.52,2.4,1.85Zm-1.43-2.41a11.23,11.23,0,0,1-1.68.7,1.23,1.23,0,0,0-.62,1.22c0,.63.31,1.14.94,1.14.91,0,1.36-.68,1.36-1.8Z"/><path d="M265.63,89h1.42v.89h.05A2.13,2.13,0,0,1,269,88.77c1.15,0,1.88.52,1.88,2V96.5h-1.52V91.33c0-1-.26-1.36-1.05-1.36-.61,0-1.2.46-1.2,1.47V96.5h-1.51Z"/><path d="M276.21,95.58h0a1.6,1.6,0,0,1-1.65,1.12c-1.75,0-2.47-1.49-2.47-4.07,0-3.34,1.18-3.86,2.33-3.86a1.73,1.73,0,0,1,1.71,1.08h0V86.5h1.51v10h-1.43ZM274.84,90c-.86,0-1.18.7-1.18,2.73,0,1.71.21,2.79,1.28,2.79s1.27-1,1.27-2.67C276.21,91,276,90,274.84,90Z"/><path d="M283.92,86.5H286l2.63,10h-1.66l-.62-2.45h-2.93l-.64,2.45h-1.67Zm2.13,6.27-1.15-4.93h0l-1.19,4.93Z"/><path d="M292.45,91.16V91c0-.61-.21-1.17-1-1.17-.61,0-1.08.27-1.08,1s.26.82,1.06,1.1l1,.34a2,2,0,0,1,1.64,2.17c0,1.61-1.19,2.3-2.71,2.3-1.9,0-2.48-.89-2.48-2.34v-.28h1.35v.23c0,.89.29,1.35,1.18,1.35s1.23-.42,1.23-1.11a1.09,1.09,0,0,0-.83-1.1L290.56,93A2,2,0,0,1,289,90.84c0-1.41,1-2.07,2.58-2.07,1.92,0,2.35,1.12,2.35,2.06v.33Z"/><path d="M295.23,86.39h1.52V87.9h-1.52Zm0,2.57h1.52V96.5h-1.52Z"/><path d="M303.22,94.93c0,.28.17.53.39.53a.54.54,0,0,0,.25,0v1a1.58,1.58,0,0,1-.74.18c-.67,0-1.23-.26-1.28-1h0a2,2,0,0,1-1.88,1.11c-1.22,0-2-.66-2-2.12a2.08,2.08,0,0,1,1.75-2.37l1.18-.32c.54-.15.88-.31.88-1s-.24-1.12-1-1.12c-1,0-1.15.72-1.15,1.45h-1.43c0-1.61.66-2.48,2.65-2.48,1.33,0,2.4.52,2.4,1.85Zm-1.43-2.41a11.23,11.23,0,0,1-1.68.7,1.23,1.23,0,0,0-.62,1.22c0,.63.31,1.14.94,1.14.91,0,1.36-.68,1.36-1.8Z"/><path d="M308.21,86.5h2.5l1.76,7.41h0l1.74-7.41h2.43v10h-1.51V88.18h0l-2,8.32h-1.35l-2-8.32h0V96.5h-1.52Z"/><path d="M318.29,86.39h1.51V87.9h-1.51Zm0,2.57h1.51V96.5h-1.51Z"/><path d="M321.33,89h1.43v.89h0a2.15,2.15,0,0,1,1.93-1.08c1.15,0,1.88.52,1.88,2V96.5H325.1V91.33c0-1-.27-1.36-1.05-1.36-.62,0-1.21.46-1.21,1.47V96.5h-1.51Z"/><path d="M327.77,92.73c0-2.35.62-4,2.8-4s2.82,1.61,2.82,4-.73,4-2.82,4S327.77,95.09,327.77,92.73Zm2.8,2.85c1.11,0,1.3-.93,1.3-2.85,0-1.67-.19-2.84-1.3-2.84s-1.29,1.17-1.29,2.84C329.28,94.65,329.49,95.58,330.57,95.58Z"/><path d="M334.55,89h1.51v1.18h0a1.85,1.85,0,0,1,1.75-1.37.89.89,0,0,1,.36,0v1.54a2.18,2.18,0,0,0-.63-.08c-.68,0-1.51.31-1.51,1.71V96.5h-1.51Z"/><path d="M337.82,94.65h1.6V96.5h-1.6Z"/></g></g></g></g></svg>