<svg id="Text" xmlns="http://www.w3.org/2000/svg" viewBox="0 0 1847.91 114"><title>bc1400text</title><g id="Egytians"><path d="M479.76,35.5h6.17c2.45,0,4.44,1.25,4.44,4.5,0,2.26-1,4-2.92,4.29v.05c1.77.17,2.65,1.13,2.75,3.58,0,1.15,0,2.5.09,3.55a1.92,1.92,0,0,0,.84,1.52H488a2.89,2.89,0,0,1-.47-1.54c-.05-.52-.07-1.06-.07-1.57s0-1.1-.05-1.74c-.08-1.91-.66-2.74-2.55-2.74h-2.28V53h-2.79Zm5,7.79a2.58,2.58,0,0,0,2.79-2.84c0-1.87-.78-2.85-2.64-2.85h-2.38v5.69Z"/><path d="M492.86,35.3h2.65V38h-2.65Zm0,4.51h2.65V53h-2.65Z"/><path d="M503.87,43.66v-.35c0-1.05-.37-2-1.74-2-1.06,0-1.89.46-1.89,1.71,0,1.06.46,1.45,1.86,1.94l1.69.59c2,.66,2.87,1.71,2.87,3.8,0,2.82-2.08,4-4.73,4-3.33,0-4.34-1.55-4.34-4.1v-.49h2.35v.42c0,1.54.52,2.35,2.06,2.35s2.16-.73,2.16-1.93a1.91,1.91,0,0,0-1.45-1.94l-2.15-.76c-2-.66-2.82-1.69-2.82-3.8,0-2.47,1.76-3.62,4.51-3.62,3.36,0,4.11,2,4.11,3.6v.59Z"/><path d="M510.9,46.74v.76c0,1.77.22,4,2.2,4s2.11-2.13,2.11-2.94h2.5c0,3-1.77,4.76-4.63,4.76-2.16,0-4.83-.64-4.83-6.74,0-3.46.76-7.13,4.88-7.13,3.67,0,4.65,2.23,4.65,5.88v1.39Zm4.24-1.81v-.71c0-1.67-.54-2.94-2-2.94-1.67,0-2.2,1.67-2.2,3.38v.27Z"/><path d="M525.33,46.4c0-4.12,1.07-6.93,4.9-6.93s4.92,2.81,4.92,6.93-1.27,6.94-4.92,6.94S525.33,50.52,525.33,46.4Zm4.9,5c1.93,0,2.28-1.62,2.28-5,0-2.92-.35-5-2.28-5s-2.26,2-2.26,5C528,49.76,528.34,51.38,530.23,51.38Z"/><path d="M538,41.77h-1.84v-2H538V38.58c0-2.47,1.2-3.28,3.36-3.28a12.11,12.11,0,0,1,1.45.07v2h-.74c-1,0-1.42.36-1.42,1.25v1.15h2.16v2h-2.16V53H538Z"/><path d="M550.05,35.5h9.45v2.35h-6.66V42.7h6.27v2.35h-6.27v5.59h6.86V53h-9.65Z"/><path d="M564.31,54.12a1.72,1.72,0,0,0,1.91,1.57,2.19,2.19,0,0,0,2.23-2.48V51.08h-.05a3.19,3.19,0,0,1-3,1.81c-3.07,0-3.95-3-3.95-6.64,0-2.89.44-6.78,4.19-6.78a2.9,2.9,0,0,1,2.89,2h.05V39.81h2.5V52.36c0,3.21-1.37,5.14-4.92,5.14-3.92,0-4.36-2.3-4.36-3.38Zm1.86-3.33c2.06,0,2.28-2.6,2.28-4.68s-.27-4.54-2.11-4.54-2.23,2-2.23,4.41C564.11,48.24,564.21,50.79,566.17,50.79Z"/><path d="M575.21,39.81l2.28,9.9h0l2.1-9.9h2.77l-3.62,13.67c-1.06,3.61-1.87,4.1-4.61,4a4.76,4.76,0,0,1-1.06-.1V55.3a3.65,3.65,0,0,0,.86.09c.91,0,1.5-.17,1.79-1l.34-1.08-3.75-13.48Z"/><path d="M589.56,53.34a3,3,0,0,1-3-1.89h-.05v5.86h-2.65V39.81h2.5v1.62h0a3.1,3.1,0,0,1,3-2c3,0,4.24,2.57,4.24,7.1C593.63,52.11,591.4,53.34,589.56,53.34Zm-.95-11.77c-1.81,0-2.23,1.84-2.23,4.68,0,3.17.39,5,2.25,5,1.5,0,2.21-1.13,2.21-4.78C590.84,43.46,590.47,41.57,588.61,41.57Z"/><path d="M594.49,39.81h1.81V36.06H599v3.75h2.15v2H599v7.87c0,1,.29,1.39,1.2,1.39a4.91,4.91,0,0,0,1-.07v2a8.44,8.44,0,0,1-2.13.22c-1.76,0-2.67-.52-2.67-3.19V41.77h-1.81Z"/><path d="M602.6,35.3h2.64V38H602.6Zm0,4.51h2.64V53H602.6Z"/><path d="M616.56,50.25c0,.49.3.93.69.93a1.18,1.18,0,0,0,.44-.07v1.71a2.83,2.83,0,0,1-1.3.32c-1.17,0-2.15-.47-2.23-1.74h0a3.4,3.4,0,0,1-3.28,1.94c-2.13,0-3.43-1.16-3.43-3.7,0-3,1.3-3.56,3.06-4.15l2.06-.56c1-.27,1.54-.54,1.54-1.69s-.41-2-1.81-2c-1.76,0-2,1.25-2,2.52h-2.5c0-2.82,1.15-4.33,4.63-4.33,2.33,0,4.19.9,4.19,3.23ZM614.06,46a20,20,0,0,1-2.94,1.23,2.16,2.16,0,0,0-1.07,2.13c0,1.1.53,2,1.64,2,1.59,0,2.37-1.18,2.37-3.14Z"/><path d="M619.26,39.81h2.5v1.54h.07a3.78,3.78,0,0,1,3.38-1.88c2,0,3.29.9,3.29,3.57V53h-2.65V44c0-1.76-.47-2.38-1.84-2.38-1.08,0-2.11.81-2.11,2.58V53h-2.64Z"/><path d="M637.09,35.5h9.46v2.35h-6.66V42.7h6.27v2.35h-6.27v5.59h6.86V53h-9.66Z"/><path d="M648.83,39.81h2.5v1.54h.07a3.69,3.69,0,0,1,3.16-1.88,2.85,2.85,0,0,1,3.06,2,3.6,3.6,0,0,1,3.34-2c1.86,0,3.21,1,3.21,3.5V53h-2.65V44c0-1.74-.51-2.38-1.59-2.38s-2.11.84-2.11,2.58V53h-2.65V44c0-1.74-.51-2.38-1.61-2.38s-2.09.86-2.09,2.58V53h-2.64Z"/><path d="M672.52,53.34a3,3,0,0,1-3-1.89h0v5.86h-2.65V39.81h2.5v1.62h0a3.13,3.13,0,0,1,3-2c3,0,4.24,2.57,4.24,7.1C676.59,52.11,674.36,53.34,672.52,53.34Zm-1-11.77c-1.81,0-2.23,1.84-2.23,4.68,0,3.17.4,5,2.26,5,1.49,0,2.2-1.13,2.2-4.78C673.79,43.46,673.43,41.57,671.56,41.57Z"/><path d="M678.74,35.3h2.65V38h-2.65Zm0,4.51h2.65V53h-2.65Z"/><path d="M684.06,39.81h2.64v2.06h0a3.26,3.26,0,0,1,3.07-2.4,1.53,1.53,0,0,1,.63.09v2.7a3.73,3.73,0,0,0-1.1-.15c-1.2,0-2.65.54-2.65,3V53h-2.64Z"/><path d="M693.91,46.74v.76c0,1.77.22,4,2.2,4s2.11-2.13,2.11-2.94h2.5c0,3-1.77,4.76-4.63,4.76-2.16,0-4.83-.64-4.83-6.74,0-3.46.76-7.13,4.88-7.13,3.67,0,4.65,2.23,4.65,5.88v1.39Zm4.24-1.81v-.71c0-1.67-.54-2.94-2-2.94-1.66,0-2.2,1.67-2.2,3.38v.27Z"/></g><g id="Indians"><path d="M1359.34,83.5h2.8V101h-2.8Z"/><path d="M1364.91,83.5h3.4l5.07,13h0v-13h2.65V101h-3.41l-5.07-13.38h0V101h-2.64Z"/><path d="M1379,83.5h5c5.49,0,6.18,3.57,6.18,8.74s-.69,8.75-6.18,8.75h-5Zm2.79,15.39h2.3c2.31,0,3.26-1.52,3.26-6.65,0-4.92-.83-6.64-3.26-6.64h-2.3Z"/><path d="M1392.47,83.5h2.79V101h-2.79Z"/><path d="M1401.34,83.5h3.57l4.61,17.49h-2.91l-1.08-4.29h-5.12l-1.13,4.29h-2.92Zm3.72,11-2-8.62h0l-2.08,8.62Z"/><path d="M1410.74,83.5h3.41l5.07,13h0v-13h2.65V101h-3.41l-5.07-13.38h0V101h-2.65Z"/><path d="M1427,95.58V96c0,2.13,1,3.21,2.87,3.21a2.51,2.51,0,0,0,2.65-2.55c0-1.84-.93-2.65-2.5-3.11l-1.91-.66c-2.55-1-3.66-2.31-3.66-4.81,0-3.18,2.19-4.95,5.44-4.95,4.49,0,5,2.8,5,4.61v.39H1432v-.37c0-1.59-.68-2.52-2.45-2.52a2.23,2.23,0,0,0-2.35,2.52c0,1.5.76,2.26,2.62,3l1.89.69c2.47.88,3.55,2.2,3.55,4.63,0,3.72-2.25,5.27-5.78,5.27-4.34,0-5.32-2.9-5.32-5.35v-.41Z"/><path d="M1448.3,83.5a20.65,20.65,0,0,0-2.79,11,21.38,21.38,0,0,0,2.79,11h-1.88a18.67,18.67,0,0,1,0-22Z"/><path d="M1449.75,83.5h2.79v7h5.15v-7h2.79V101h-2.79V92.86h-5.15V101h-2.79Z"/><path d="M1463.32,83.3H1466V86h-2.65Zm0,4.51H1466V101h-2.65Z"/><path d="M1468.64,87.81h2.5v1.54h.07a3.78,3.78,0,0,1,3.38-1.88c2,0,3.28.9,3.28,3.57V101h-2.64V92c0-1.76-.47-2.38-1.84-2.38-1.08,0-2.11.81-2.11,2.58V101h-2.64Z"/><path d="M1487.16,99.37h-.05a2.82,2.82,0,0,1-2.89,2c-3.06,0-4.31-2.6-4.31-7.11,0-5.86,2-6.76,4.06-6.76a3,3,0,0,1,3,1.88h0V83.5h2.65V101h-2.5Zm-2.4-9.8c-1.5,0-2.06,1.23-2.06,4.78,0,3,.37,4.88,2.23,4.88s2.23-1.84,2.23-4.68C1487.16,91.39,1486.82,89.57,1484.76,89.57Z"/><path d="M1498.94,99.45h-.07a3.79,3.79,0,0,1-3.38,1.89c-2,0-3.29-.91-3.29-4.32V87.81h2.65v9.46c0,1.47.64,2,1.79,2A2.06,2.06,0,0,0,1498.8,97V87.81h2.64V101h-2.5Z"/><path d="M1509.67,91.66v-.35c0-1-.36-2-1.74-2-1,0-1.88.46-1.88,1.71,0,1.06.46,1.45,1.86,1.94l1.69.59c2,.66,2.87,1.71,2.87,3.8,0,2.81-2.08,4-4.73,4-3.33,0-4.34-1.55-4.34-4.1v-.49h2.35v.42c0,1.54.52,2.35,2.06,2.35s2.16-.73,2.16-1.93a1.91,1.91,0,0,0-1.45-1.94l-2.15-.76c-2-.66-2.82-1.69-2.82-3.8,0-2.47,1.76-3.62,4.51-3.62,3.35,0,4.11,2,4.11,3.6v.59Z"/><path d="M1513.15,105.5a20.67,20.67,0,0,0,2.79-11,21.38,21.38,0,0,0-2.79-11H1515a18.71,18.71,0,0,1,0,22Z"/></g><g id="Chinese"><path d="M1711.85,43.66,1707.34,33h3.11l2.94,7.54,3-7.54h2.91l-4.68,10.66v6.83h-2.79Z"/><path d="M1720.18,32.8h2.64v2.65h-2.64Zm0,4.51h2.64V50.49h-2.64Z"/><path d="M1725.49,37.31h2.5v1.54h.08a3.78,3.78,0,0,1,3.38-1.88c2,0,3.28.9,3.28,3.57v10h-2.64v-9c0-1.76-.47-2.38-1.84-2.38-1.08,0-2.11.81-2.11,2.58v8.84h-2.65Z"/><path d="M1685.73,60h5c5.48,0,6.17,3.57,6.17,8.74s-.69,8.75-6.17,8.75h-5Zm2.79,15.39h2.31c2.3,0,3.26-1.52,3.26-6.65,0-4.92-.84-6.64-3.26-6.64h-2.31Z"/><path d="M1701,64.31l2.28,9.9h0l2.11-9.9h2.77L1704.52,78c-1,3.6-1.86,4.1-4.6,4a4.76,4.76,0,0,1-1.06-.1V79.8a3.65,3.65,0,0,0,.86.09c.91,0,1.5-.17,1.79-1l.34-1.08-3.75-13.48Z"/><path d="M1709.62,64.31h2.5v1.54h.07a3.78,3.78,0,0,1,3.38-1.88c2,0,3.29.9,3.29,3.57v9.95h-2.65v-9c0-1.76-.46-2.38-1.84-2.38-1.08,0-2.1.81-2.1,2.58v8.84h-2.65Z"/><path d="M1730.05,74.75c0,.49.3.93.69.93a1.18,1.18,0,0,0,.44-.07v1.71a2.83,2.83,0,0,1-1.3.32c-1.17,0-2.15-.47-2.23-1.74h-.05a3.4,3.4,0,0,1-3.28,1.94c-2.13,0-3.43-1.16-3.43-3.7,0-3,1.3-3.56,3.06-4.15l2.06-.56c1-.27,1.54-.54,1.54-1.69s-.41-2-1.81-2c-1.76,0-2,1.25-2,2.52h-2.5c0-2.82,1.15-4.33,4.63-4.33,2.33,0,4.19.9,4.19,3.23Zm-2.5-4.22a20,20,0,0,1-2.94,1.23,2.17,2.17,0,0,0-1.08,2.13c0,1.1.54,2,1.65,2,1.59,0,2.37-1.18,2.37-3.14Z"/><path d="M1738.43,68.16v-.35c0-1-.37-2-1.74-2-1,0-1.89.46-1.89,1.71,0,1.06.47,1.45,1.87,1.94l1.69.59c2,.66,2.87,1.71,2.87,3.8,0,2.81-2.09,4-4.73,4-3.34,0-4.34-1.55-4.34-4.1v-.49h2.35v.42c0,1.54.51,2.35,2.06,2.35s2.16-.73,2.16-1.93a1.91,1.91,0,0,0-1.45-1.94l-2.16-.76c-2-.66-2.81-1.69-2.81-3.8,0-2.47,1.76-3.62,4.5-3.62,3.36,0,4.12,2,4.12,3.6v.59Z"/><path d="M1742,64.31h1.81V60.56h2.65v3.75h2.15v2h-2.15v7.87c0,1,.29,1.39,1.2,1.39a4.91,4.91,0,0,0,.95-.07v2a8.44,8.44,0,0,1-2.13.22c-1.76,0-2.67-.52-2.67-3.19V66.27H1742Z"/><path d="M1751.76,64.31l2.28,9.9h0l2.1-9.9H1759L1755.34,78c-1.06,3.6-1.87,4.1-4.61,4a4.62,4.62,0,0,1-1-.1V79.8a3.51,3.51,0,0,0,.85.09c.91,0,1.5-.17,1.79-1l.35-1.08-3.75-13.48Z"/></g></svg>