<svg id="Text" xmlns="http://www.w3.org/2000/svg" viewBox="0 0 1847.91 111"><title>bc1450text</title><g id="Hittites"><path d="M827.56,11.5h2.8v7h5.14v-7h2.8V29h-2.8V20.86h-5.14V29h-2.8Z"/><path d="M841.14,11.3h2.64V14h-2.64Zm0,4.51h2.64V29h-2.64Z"/><path d="M845.28,15.81h1.81V12.06h2.65v3.75h2.15v2h-2.15v7.87c0,1.05.29,1.39,1.2,1.39a4.91,4.91,0,0,0,.95-.07v2a8.44,8.44,0,0,1-2.13.22c-1.76,0-2.67-.52-2.67-3.19V17.77h-1.81Z"/><path d="M852.09,15.81h1.81V12.06h2.65v3.75h2.15v2h-2.15v7.87c0,1.05.29,1.39,1.2,1.39a4.91,4.91,0,0,0,1-.07v2a8.44,8.44,0,0,1-2.13.22c-1.76,0-2.67-.52-2.67-3.19V17.77h-1.81Z"/><path d="M860.2,11.3h2.64V14H860.2Zm0,4.51h2.64V29H860.2Z"/><path d="M864.34,15.81h1.81V12.06h2.65v3.75H871v2H868.8v7.87c0,1.05.29,1.39,1.2,1.39a4.91,4.91,0,0,0,1-.07v2a8.44,8.44,0,0,1-2.13.22c-1.76,0-2.67-.52-2.67-3.19V17.77h-1.81Z"/><path d="M874.6,22.74v.76c0,1.77.22,4,2.21,4s2.11-2.13,2.11-2.94h2.5c0,3-1.77,4.76-4.63,4.76-2.16,0-4.83-.64-4.83-6.74,0-3.46.76-7.13,4.87-7.13,3.68,0,4.66,2.23,4.66,5.88v1.39Zm4.24-1.81v-.71c0-1.67-.54-2.94-2-2.94-1.67,0-2.21,1.67-2.21,3.38v.27Z"/><path d="M889.72,11.5h9.46v2.35h-6.67V18.7h6.28v2.35h-6.28v5.59h6.86V29h-9.65Z"/><path d="M901.45,15.81H904v1.54H904a3.69,3.69,0,0,1,3.16-1.88,2.85,2.85,0,0,1,3.06,2,3.59,3.59,0,0,1,3.33-2c1.87,0,3.22,1,3.22,3.5V29h-2.65V20c0-1.74-.52-2.38-1.59-2.38s-2.11.84-2.11,2.58V29H907.8V20c0-1.74-.51-2.38-1.62-2.38s-2.08.86-2.08,2.58V29h-2.65Z"/><path d="M925.15,29.34a3,3,0,0,1-3-1.89h0v5.86h-2.65V15.81H922v1.62h0a3.12,3.12,0,0,1,3-2c3,0,4.24,2.57,4.24,7.1C929.22,28.11,927,29.34,925.15,29.34Zm-1-11.77c-1.81,0-2.23,1.84-2.23,4.68,0,3.16.39,5,2.26,5,1.49,0,2.2-1.13,2.2-4.78C926.42,19.46,926.05,17.57,924.19,17.57Z"/><path d="M931.37,11.3H934V14h-2.65Zm0,4.51H934V29h-2.65Z"/><path d="M936.68,15.81h2.65v2.06h0a3.26,3.26,0,0,1,3.06-2.4,1.61,1.61,0,0,1,.64.09v2.7a3.84,3.84,0,0,0-1.1-.15c-1.2,0-2.65.54-2.65,3V29h-2.65Z"/><path d="M946.53,22.74v.76c0,1.77.22,4,2.21,4s2.11-2.13,2.11-2.94h2.5c0,3-1.77,4.76-4.63,4.76-2.16,0-4.83-.64-4.83-6.74,0-3.46.76-7.13,4.87-7.13,3.68,0,4.66,2.23,4.66,5.88v1.39Zm4.24-1.81v-.71c0-1.67-.54-2.94-2-2.94-1.67,0-2.21,1.67-2.21,3.38v.27Z"/></g><g id="Amorites"><path d="M1010,43.23h5.66c2.62,0,4.71,1.17,4.71,4.24,0,2.1-.86,3.43-2.57,4v0c1.91.35,3.13,1.5,3.13,4.46s-2.11,4.78-5.39,4.78H1010Zm5,7.37a2.45,2.45,0,0,0,2.57-2.77c0-2.08-1.25-2.5-2.81-2.5h-2V50.6Zm.56,8c1.67,0,2.58-1.06,2.58-3.09a2.65,2.65,0,0,0-2.75-3h-2.59v6.06Z"/><path d="M1031.64,58c0,.49.29.93.68.93a1.06,1.06,0,0,0,.45-.07v1.71a2.86,2.86,0,0,1-1.3.32c-1.18,0-2.16-.47-2.23-1.74h0a3.41,3.41,0,0,1-3.29,1.94c-2.13,0-3.43-1.15-3.43-3.7,0-2.94,1.3-3.56,3.07-4.15l2-.56c1-.27,1.55-.54,1.55-1.69s-.42-2-1.82-2c-1.76,0-2,1.25-2,2.52h-2.5c0-2.81,1.16-4.33,4.64-4.33,2.32,0,4.19.9,4.19,3.23Zm-2.5-4.22A20.5,20.5,0,0,1,1026.2,55a2.17,2.17,0,0,0-1.08,2.13c0,1.1.54,2,1.64,2,1.59,0,2.38-1.18,2.38-3.14Z"/><path d="M1034.33,43.23H1037v5.85h0a3,3,0,0,1,3-1.88c2,0,4.06.9,4.06,6.76,0,4.53-1.25,7.11-4.31,7.11a2.83,2.83,0,0,1-2.89-2h-.05v1.61h-2.5ZM1039.06,59c1.86,0,2.23-1.89,2.23-4.88,0-3.55-.56-4.78-2.06-4.78-2.06,0-2.4,1.82-2.4,5C1036.83,57.12,1037.25,59,1039.06,59Z"/><path d="M1047.58,47.54l2.28,9.9h.05l2.11-9.9h2.77l-3.63,13.67c-1.05,3.61-1.86,4.1-4.6,4a4.76,4.76,0,0,1-1.06-.1V63a3.65,3.65,0,0,0,.86.09c.91,0,1.49-.17,1.79-1l.34-1.08-3.75-13.48Z"/><path d="M1056.38,43.23H1059V60.72h-2.65Z"/><path d="M1061.18,54.13c0-4.12,1.08-6.93,4.9-6.93S1071,50,1071,54.13s-1.28,6.94-4.93,6.94S1061.18,58.25,1061.18,54.13Zm4.9,5c1.94,0,2.28-1.62,2.28-5,0-2.91-.34-5-2.28-5s-2.25,2.06-2.25,5C1063.83,57.49,1064.2,59.11,1066.08,59.11Z"/><path d="M1073,47.54h2.5v1.54h.07A3.78,3.78,0,0,1,1079,47.2c2,0,3.29.9,3.29,3.57v9.95h-2.65v-9c0-1.76-.46-2.38-1.84-2.38-1.07,0-2.1.81-2.1,2.58v8.84H1073Z"/><path d="M1085,43h2.64v2.65H1085Zm0,4.51h2.64V60.72H1085Z"/><path d="M1098.91,58c0,.49.3.93.69.93a1,1,0,0,0,.44-.07v1.71a2.83,2.83,0,0,1-1.3.32c-1.18,0-2.16-.47-2.23-1.74h0a3.4,3.4,0,0,1-3.28,1.94c-2.13,0-3.43-1.15-3.43-3.7,0-2.94,1.3-3.56,3.06-4.15l2.06-.56c1-.27,1.54-.54,1.54-1.69s-.41-2-1.81-2c-1.77,0-2,1.25-2,2.52h-2.5c0-2.81,1.15-4.33,4.63-4.33,2.33,0,4.19.9,4.19,3.23Zm-2.5-4.22a20,20,0,0,1-2.94,1.23,2.17,2.17,0,0,0-1.08,2.13c0,1.1.54,2,1.65,2,1.59,0,2.37-1.18,2.37-3.14Z"/><path d="M1101.6,47.54h2.5v1.54h.08a3.78,3.78,0,0,1,3.38-1.88c2,0,3.28.9,3.28,3.57v9.95h-2.64v-9c0-1.76-.47-2.38-1.84-2.38-1.08,0-2.11.81-2.11,2.58v8.84h-2.65Z"/><path d="M1119.07,51.39V51c0-1-.36-2-1.74-2-1,0-1.88.47-1.88,1.72,0,1.05.46,1.44,1.86,1.93l1.69.59c2,.66,2.87,1.71,2.87,3.8,0,2.82-2.08,4-4.73,4-3.33,0-4.34-1.55-4.34-4.1v-.49h2.35v.42c0,1.54.52,2.35,2.06,2.35s2.16-.73,2.16-1.93a1.91,1.91,0,0,0-1.45-1.94l-2.15-.76c-2-.66-2.82-1.69-2.82-3.8,0-2.47,1.76-3.62,4.51-3.62,3.35,0,4.11,2,4.11,3.6v.59Z"/></g><g id="Iranians"><path d="M1195.4,82.5h2.79V100h-2.79Z"/><path d="M1201,82.5h6.18c2.45,0,4.43,1.25,4.43,4.5,0,2.26-1,4-2.92,4.29v0c1.77.17,2.65,1.13,2.75,3.58,0,1.15,0,2.5.1,3.55a1.89,1.89,0,0,0,.83,1.52h-3.16a3,3,0,0,1-.47-1.54c0-.52-.07-1.06-.07-1.57s0-1.1-.05-1.74c-.07-1.91-.66-2.74-2.55-2.74h-2.28V100H1201Zm5,7.79a2.58,2.58,0,0,0,2.8-2.84c0-1.87-.79-2.85-2.65-2.85h-2.38v5.69Z"/><path d="M1217.42,82.5H1221l4.61,17.49h-2.92l-1.08-4.29h-5.12l-1.12,4.29h-2.92Zm3.73,11-2-8.62h-.05L1217,93.47Z"/><path d="M1226.83,82.5h3.41l5.07,13h0v-13H1238V100h-3.41l-5.07-13.38h0V100h-2.65Z"/><path d="M1240.77,82.5h2.79V100h-2.79Z"/><path d="M1249.64,82.5h3.58l4.61,17.49h-2.92l-1.08-4.29h-5.12l-1.13,4.29h-2.91Zm3.73,11-2-8.62h0l-2.09,8.62Z"/><path d="M1259.05,82.5h3.4l5.08,13h0v-13h2.64V100h-3.4l-5.08-13.38h0V100h-2.64Z"/><path d="M1275.27,94.58V95c0,2.13,1,3.21,2.87,3.21a2.51,2.51,0,0,0,2.64-2.55c0-1.84-.93-2.65-2.5-3.11l-1.91-.66c-2.55-1-3.65-2.31-3.65-4.81,0-3.18,2.18-4.95,5.44-4.95,4.48,0,4.95,2.8,4.95,4.61v.39h-2.8v-.37c0-1.59-.68-2.52-2.45-2.52a2.23,2.23,0,0,0-2.35,2.52c0,1.5.76,2.26,2.63,3l1.88.69c2.48.88,3.55,2.2,3.55,4.63,0,3.72-2.25,5.27-5.78,5.27-4.34,0-5.32-2.9-5.32-5.35v-.41Z"/></g></svg>