<svg xmlns="http://www.w3.org/2000/svg" viewBox="0 0 1847.91 114"><title>bc1400text</title><g id="YEARS"><g id="Right"><path d="M1787.21,104.93V91.56h-3.82V89.64h.29c1.77,0,3.79-.44,4.34-2.76v-.36h2.16v18.41Z" fill="#3b4351"/><path d="M1794.86,98.24l6.37-11.72h3V98.43h2v2.36h-2v4.14h-2.81v-4.14h-6.57Zm6.57-7.41h0l-4.13,7.6h4.18Z" fill="#3b4351"/><path d="M1813,86.52c3.54,0,5.51,2.21,5.51,9.38s-2,9.39-5.51,9.39-5.51-2.21-5.51-9.39S1809.49,86.52,1813,86.52Zm0,16.69c2,0,2.55-2,2.55-7.31s-.55-7.3-2.55-7.3-2.55,2-2.55,7.3S1811,103.21,1813,103.21Z" fill="#3b4351"/><path d="M1825.51,86.52c3.54,0,5.51,2.21,5.51,9.38s-2,9.39-5.51,9.39-5.51-2.21-5.51-9.39S1822,86.52,1825.51,86.52Zm0,16.69c2,0,2.55-2,2.55-7.31s-.55-7.3-2.55-7.3-2.55,2-2.55,7.3S1823.51,103.21,1825.51,103.21Z" fill="#3b4351"/></g><g id="left"><path d="M17.46,108.53V95.16H13.64V93.24h.29c1.77,0,3.79-.45,4.34-2.76v-.36h2.16v18.41Z" fill="#3b4351"/><path d="M25.11,101.84l6.37-11.72h3V102h2v2.36h-2v4.14h-2.8v-4.14H25.11Zm6.58-7.41h-.06L27.5,102h4.19Z" fill="#3b4351"/><path d="M43.28,90.12c3.54,0,5.51,2.21,5.51,9.38s-2,9.39-5.51,9.39-5.51-2.21-5.51-9.39S39.75,90.12,43.28,90.12Zm0,16.69c2,0,2.55-2,2.55-7.31s-.55-7.3-2.55-7.3-2.55,2-2.55,7.3S41.28,106.81,43.28,106.81Z" fill="#3b4351"/><path d="M55.76,90.12c3.54,0,5.51,2.21,5.51,9.38s-2,9.39-5.51,9.39-5.51-2.21-5.51-9.39S52.22,90.12,55.76,90.12Zm0,16.69c2,0,2.55-2,2.55-7.31s-.55-7.3-2.55-7.3-2.55,2-2.55,7.3S53.76,106.81,55.76,106.81Z" fill="#3b4351"/></g></g><g id="Text"><g id="Indians"><path d="M1359.34,83.5h2.8V101h-2.8Z" fill="#3b4351"/><path d="M1364.91,83.5h3.4l5.07,13h0v-13h2.65V101h-3.41l-5.07-13.38h0V101h-2.64Z" fill="#3b4351"/><path d="M1379,83.5h5c5.49,0,6.18,3.57,6.18,8.74s-.69,8.75-6.18,8.75h-5Zm2.79,15.39h2.3c2.31,0,3.26-1.52,3.26-6.65,0-4.92-.83-6.64-3.26-6.64h-2.3Z" fill="#3b4351"/><path d="M1392.47,83.5h2.79V101h-2.79Z" fill="#3b4351"/><path d="M1401.34,83.5h3.57l4.61,17.49h-2.91l-1.08-4.29h-5.12l-1.13,4.29h-2.92Zm3.72,11-2-8.62h0l-2.08,8.62Z" fill="#3b4351"/><path d="M1410.74,83.5h3.41l5.07,13h0v-13h2.65V101h-3.41l-5.07-13.38h0V101h-2.65Z" fill="#3b4351"/><path d="M1427,95.58V96c0,2.13,1,3.21,2.87,3.21a2.51,2.51,0,0,0,2.65-2.55c0-1.84-.93-2.65-2.5-3.11l-1.91-.66c-2.55-1-3.66-2.31-3.66-4.81,0-3.18,2.19-4.95,5.44-4.95,4.49,0,5,2.8,5,4.61v.39H1432v-.37c0-1.59-.68-2.52-2.45-2.52a2.23,2.23,0,0,0-2.35,2.52c0,1.5.76,2.26,2.62,3l1.89.69c2.47.88,3.55,2.2,3.55,4.63,0,3.72-2.25,5.27-5.78,5.27-4.34,0-5.32-2.9-5.32-5.35v-.41Z" fill="#3b4351"/><path d="M1448.3,83.5a20.65,20.65,0,0,0-2.79,11,21.38,21.38,0,0,0,2.79,11h-1.88a18.67,18.67,0,0,1,0-22Z" fill="#3b4351"/><path d="M1449.75,83.5h2.79v7h5.15v-7h2.79V101h-2.79V92.86h-5.15V101h-2.79Z" fill="#3b4351"/><path d="M1463.32,83.3H1466V86h-2.65Zm0,4.51H1466V101h-2.65Z" fill="#3b4351"/><path d="M1468.64,87.81h2.5v1.54h.07a3.78,3.78,0,0,1,3.38-1.88c2,0,3.28.9,3.28,3.57V101h-2.64V92c0-1.76-.47-2.38-1.84-2.38-1.08,0-2.11.81-2.11,2.58V101h-2.64Z" fill="#3b4351"/><path d="M1487.16,99.37h-.05a2.82,2.82,0,0,1-2.89,2c-3.06,0-4.31-2.6-4.31-7.11,0-5.86,2-6.76,4.06-6.76a3,3,0,0,1,3,1.88h0V83.5h2.65V101h-2.5Zm-2.4-9.8c-1.5,0-2.06,1.23-2.06,4.78,0,3,.37,4.88,2.23,4.88s2.23-1.84,2.23-4.68C1487.16,91.39,1486.82,89.57,1484.76,89.57Z" fill="#3b4351"/><path d="M1498.94,99.45h-.07a3.79,3.79,0,0,1-3.38,1.89c-2,0-3.29-.91-3.29-4.32V87.81h2.65v9.46c0,1.47.64,2,1.79,2A2.06,2.06,0,0,0,1498.8,97V87.81h2.64V101h-2.5Z" fill="#3b4351"/><path d="M1509.67,91.66v-.35c0-1-.36-2-1.74-2-1,0-1.88.46-1.88,1.71,0,1.06.46,1.45,1.86,1.94l1.69.59c2,.66,2.87,1.71,2.87,3.8,0,2.81-2.08,4-4.73,4-3.33,0-4.34-1.55-4.34-4.1v-.49h2.35v.42c0,1.54.52,2.35,2.06,2.35s2.16-.73,2.16-1.93a1.91,1.91,0,0,0-1.45-1.94l-2.15-.76c-2-.66-2.82-1.69-2.82-3.8,0-2.47,1.76-3.62,4.51-3.62,3.35,0,4.11,2,4.11,3.6v.59Z" fill="#3b4351"/><path d="M1513.15,105.5a20.67,20.67,0,0,0,2.79-11,21.38,21.38,0,0,0-2.79-11H1515a18.71,18.71,0,0,1,0,22Z" fill="#3b4351"/></g><g id="Chinese"><path d="M1711.85,43.66,1707.34,33h3.11l2.94,7.54,3-7.54h2.91l-4.68,10.66v6.83h-2.79Z" fill="#3b4351"/><path d="M1720.18,32.8h2.64v2.65h-2.64Zm0,4.51h2.64V50.49h-2.64Z" fill="#3b4351"/><path d="M1725.49,37.31h2.5v1.54h.08a3.78,3.78,0,0,1,3.38-1.88c2,0,3.28.9,3.28,3.57v10h-2.64v-9c0-1.76-.47-2.38-1.84-2.38-1.08,0-2.11.81-2.11,2.58v8.84h-2.65Z" fill="#3b4351"/><path d="M1685.73,60h5c5.48,0,6.17,3.57,6.17,8.74s-.69,8.75-6.17,8.75h-5Zm2.79,15.39h2.31c2.3,0,3.26-1.52,3.26-6.65,0-4.92-.84-6.64-3.26-6.64h-2.31Z" fill="#3b4351"/><path d="M1701,64.31l2.28,9.9h0l2.11-9.9h2.77L1704.52,78c-1,3.6-1.86,4.1-4.6,4a4.76,4.76,0,0,1-1.06-.1V79.8a3.65,3.65,0,0,0,.86.09c.91,0,1.5-.17,1.79-1l.34-1.08-3.75-13.48Z" fill="#3b4351"/><path d="M1709.62,64.31h2.5v1.54h.07a3.78,3.78,0,0,1,3.38-1.88c2,0,3.29.9,3.29,3.57v9.95h-2.65v-9c0-1.76-.46-2.38-1.84-2.38-1.08,0-2.1.81-2.1,2.58v8.84h-2.65Z" fill="#3b4351"/><path d="M1730.05,74.75c0,.49.3.93.69.93a1.18,1.18,0,0,0,.44-.07v1.71a2.83,2.83,0,0,1-1.3.32c-1.17,0-2.15-.47-2.23-1.74h-.05a3.4,3.4,0,0,1-3.28,1.94c-2.13,0-3.43-1.16-3.43-3.7,0-3,1.3-3.56,3.06-4.15l2.06-.56c1-.27,1.54-.54,1.54-1.69s-.41-2-1.81-2c-1.76,0-2,1.25-2,2.52h-2.5c0-2.82,1.15-4.33,4.63-4.33,2.33,0,4.19.9,4.19,3.23Zm-2.5-4.22a20,20,0,0,1-2.94,1.23,2.17,2.17,0,0,0-1.08,2.13c0,1.1.54,2,1.65,2,1.59,0,2.37-1.18,2.37-3.14Z" fill="#3b4351"/><path d="M1738.43,68.16v-.35c0-1-.37-2-1.74-2-1,0-1.89.46-1.89,1.71,0,1.06.47,1.45,1.87,1.94l1.69.59c2,.66,2.87,1.71,2.87,3.8,0,2.81-2.09,4-4.73,4-3.34,0-4.34-1.55-4.34-4.1v-.49h2.35v.42c0,1.54.51,2.35,2.06,2.35s2.16-.73,2.16-1.93a1.91,1.91,0,0,0-1.45-1.94l-2.16-.76c-2-.66-2.81-1.69-2.81-3.8,0-2.47,1.76-3.62,4.5-3.62,3.36,0,4.12,2,4.12,3.6v.59Z" fill="#3b4351"/><path d="M1742,64.31h1.81V60.56h2.65v3.75h2.15v2h-2.15v7.87c0,1,.29,1.39,1.2,1.39a4.91,4.91,0,0,0,.95-.07v2a8.44,8.44,0,0,1-2.13.22c-1.76,0-2.67-.52-2.67-3.19V66.27H1742Z" fill="#3b4351"/><path d="M1751.76,64.31l2.28,9.9h0l2.1-9.9H1759L1755.34,78c-1.06,3.6-1.87,4.1-4.61,4a4.62,4.62,0,0,1-1-.1V79.8a3.51,3.51,0,0,0,.85.09c.91,0,1.5-.17,1.79-1l.35-1.08-3.75-13.48Z" fill="#3b4351"/></g><g id="Egytians"><g id="large"><path d="M479.76,35.5h6.17c2.45,0,4.44,1.25,4.44,4.5,0,2.26-1,4-2.92,4.29v.05c1.77.17,2.65,1.13,2.75,3.58,0,1.15,0,2.5.09,3.55a1.92,1.92,0,0,0,.84,1.52H488a2.89,2.89,0,0,1-.47-1.54c-.05-.52-.07-1.06-.07-1.57s0-1.1-.05-1.74c-.08-1.91-.66-2.74-2.55-2.74h-2.28V53h-2.79Zm5,7.79a2.58,2.58,0,0,0,2.79-2.84c0-1.87-.78-2.85-2.64-2.85h-2.38v5.69Z" fill="#3b4351"/><path d="M492.86,35.3h2.65V38h-2.65Zm0,4.51h2.65V53h-2.65Z" fill="#3b4351"/><path d="M503.87,43.66v-.35c0-1.05-.37-2-1.74-2-1.06,0-1.89.46-1.89,1.71,0,1.06.46,1.45,1.86,1.94l1.69.59c2,.66,2.87,1.71,2.87,3.8,0,2.82-2.08,4-4.73,4-3.33,0-4.34-1.55-4.34-4.1v-.49h2.35v.42c0,1.54.52,2.35,2.06,2.35s2.16-.73,2.16-1.93a1.91,1.91,0,0,0-1.45-1.94l-2.15-.76c-2-.66-2.82-1.69-2.82-3.8,0-2.47,1.76-3.62,4.51-3.62,3.36,0,4.11,2,4.11,3.6v.59Z" fill="#3b4351"/><path d="M510.9,46.74v.76c0,1.77.22,4,2.2,4s2.11-2.13,2.11-2.94h2.5c0,3-1.77,4.76-4.63,4.76-2.16,0-4.83-.64-4.83-6.74,0-3.46.76-7.13,4.88-7.13,3.67,0,4.65,2.23,4.65,5.88v1.39Zm4.24-1.81v-.71c0-1.67-.54-2.94-2-2.94-1.67,0-2.2,1.67-2.2,3.38v.27Z" fill="#3b4351"/><path d="M525.33,46.4c0-4.12,1.07-6.93,4.9-6.93s4.92,2.81,4.92,6.93-1.27,6.94-4.92,6.94S525.33,50.52,525.33,46.4Zm4.9,5c1.93,0,2.28-1.62,2.28-5,0-2.92-.35-5-2.28-5s-2.26,2-2.26,5C528,49.76,528.34,51.38,530.23,51.38Z" fill="#3b4351"/><path d="M538,41.77h-1.84v-2H538V38.58c0-2.47,1.2-3.28,3.36-3.28a12.11,12.11,0,0,1,1.45.07v2h-.74c-1,0-1.42.36-1.42,1.25v1.15h2.16v2h-2.16V53H538Z" fill="#3b4351"/><path d="M550.05,35.5h9.45v2.35h-6.66V42.7h6.27v2.35h-6.27v5.59h6.86V53h-9.65Z" fill="#3b4351"/><path d="M564.31,54.12a1.72,1.72,0,0,0,1.91,1.57,2.19,2.19,0,0,0,2.23-2.48V51.08h-.05a3.19,3.19,0,0,1-3,1.81c-3.07,0-3.95-3-3.95-6.64,0-2.89.44-6.78,4.19-6.78a2.9,2.9,0,0,1,2.89,2h.05V39.81h2.5V52.36c0,3.21-1.37,5.14-4.92,5.14-3.92,0-4.36-2.3-4.36-3.38Zm1.86-3.33c2.06,0,2.28-2.6,2.28-4.68s-.27-4.54-2.11-4.54-2.23,2-2.23,4.41C564.11,48.24,564.21,50.79,566.17,50.79Z" fill="#3b4351"/><path d="M575.21,39.81l2.28,9.9h0l2.1-9.9h2.77l-3.62,13.67c-1.06,3.61-1.87,4.1-4.61,4a4.76,4.76,0,0,1-1.06-.1V55.3a3.65,3.65,0,0,0,.86.09c.91,0,1.5-.17,1.79-1l.34-1.08-3.75-13.48Z" fill="#3b4351"/><path d="M589.56,53.34a3,3,0,0,1-3-1.89h-.05v5.86h-2.65V39.81h2.5v1.62h0a3.1,3.1,0,0,1,3-2c3,0,4.24,2.57,4.24,7.1C593.63,52.11,591.4,53.34,589.56,53.34Zm-.95-11.77c-1.81,0-2.23,1.84-2.23,4.68,0,3.17.39,5,2.25,5,1.5,0,2.21-1.13,2.21-4.78C590.84,43.46,590.47,41.57,588.61,41.57Z" fill="#3b4351"/><path d="M594.49,39.81h1.81V36.06H599v3.75h2.15v2H599v7.87c0,1,.29,1.39,1.2,1.39a4.91,4.91,0,0,0,1-.07v2a8.44,8.44,0,0,1-2.13.22c-1.76,0-2.67-.52-2.67-3.19V41.77h-1.81Z" fill="#3b4351"/><path d="M602.6,35.3h2.64V38H602.6Zm0,4.51h2.64V53H602.6Z" fill="#3b4351"/><path d="M616.56,50.25c0,.49.3.93.69.93a1.18,1.18,0,0,0,.44-.07v1.71a2.83,2.83,0,0,1-1.3.32c-1.17,0-2.15-.47-2.23-1.74h0a3.4,3.4,0,0,1-3.28,1.94c-2.13,0-3.43-1.16-3.43-3.7,0-3,1.3-3.56,3.06-4.15l2.06-.56c1-.27,1.54-.54,1.54-1.69s-.41-2-1.81-2c-1.76,0-2,1.25-2,2.52h-2.5c0-2.82,1.15-4.33,4.63-4.33,2.33,0,4.19.9,4.19,3.23ZM614.06,46a20,20,0,0,1-2.94,1.23,2.16,2.16,0,0,0-1.07,2.13c0,1.1.53,2,1.64,2,1.59,0,2.37-1.18,2.37-3.14Z" fill="#3b4351"/><path d="M619.26,39.81h2.5v1.54h.07a3.78,3.78,0,0,1,3.38-1.88c2,0,3.29.9,3.29,3.57V53h-2.65V44c0-1.76-.47-2.38-1.84-2.38-1.08,0-2.11.81-2.11,2.58V53h-2.64Z" fill="#3b4351"/><path d="M637.09,35.5h9.46v2.35h-6.66V42.7h6.27v2.35h-6.27v5.59h6.86V53h-9.66Z" fill="#3b4351"/><path d="M648.83,39.81h2.5v1.54h.07a3.69,3.69,0,0,1,3.16-1.88,2.85,2.85,0,0,1,3.06,2,3.6,3.6,0,0,1,3.34-2c1.86,0,3.21,1,3.21,3.5V53h-2.65V44c0-1.74-.51-2.38-1.59-2.38s-2.11.84-2.11,2.58V53h-2.65V44c0-1.74-.51-2.38-1.61-2.38s-2.09.86-2.09,2.58V53h-2.64Z" fill="#3b4351"/><path d="M672.52,53.34a3,3,0,0,1-3-1.89h0v5.86h-2.65V39.81h2.5v1.62h0a3.13,3.13,0,0,1,3-2c3,0,4.24,2.57,4.24,7.1C676.59,52.11,674.36,53.34,672.52,53.34Zm-1-11.77c-1.81,0-2.23,1.84-2.23,4.68,0,3.17.4,5,2.26,5,1.49,0,2.2-1.13,2.2-4.78C673.79,43.46,673.43,41.57,671.56,41.57Z" fill="#3b4351"/><path d="M678.74,35.3h2.65V38h-2.65Zm0,4.51h2.65V53h-2.65Z" fill="#3b4351"/><path d="M684.06,39.81h2.64v2.06h0a3.26,3.26,0,0,1,3.07-2.4,1.53,1.53,0,0,1,.63.09v2.7a3.73,3.73,0,0,0-1.1-.15c-1.2,0-2.65.54-2.65,3V53h-2.64Z" fill="#3b4351"/><path d="M693.91,46.74v.76c0,1.77.22,4,2.2,4s2.11-2.13,2.11-2.94h2.5c0,3-1.77,4.76-4.63,4.76-2.16,0-4.83-.64-4.83-6.74,0-3.46.76-7.13,4.88-7.13,3.67,0,4.65,2.23,4.65,5.88v1.39Zm4.24-1.81v-.71c0-1.67-.54-2.94-2-2.94-1.66,0-2.2,1.67-2.2,3.38v.27Z" fill="#3b4351"/></g><g id="small"><path d="M503.4,8.67H501V7.33h6.31V8.67H505v8.66H503.4Z" fill="#3b4351"/><path d="M508.41,13.76v.43c0,1,.12,2.3,1.26,2.3s1.2-1.22,1.2-1.68h1.43a2.47,2.47,0,0,1-2.64,2.71c-1.24,0-2.76-.36-2.76-3.85,0-2,.43-4.07,2.78-4.07,2.1,0,2.66,1.27,2.66,3.36v.8Zm2.42-1v-.41c0-1-.31-1.68-1.16-1.68s-1.26.95-1.26,1.93v.16Z" fill="#3b4351"/><path d="M513.66,9.79h1.43v.88h0a2.11,2.11,0,0,1,1.81-1.07,1.64,1.64,0,0,1,1.75,1.14,2.06,2.06,0,0,1,1.9-1.14c1.07,0,1.84.54,1.84,2v5.73h-1.52V12.16c0-1-.29-1.36-.91-1.36s-1.2.48-1.2,1.47v5.06h-1.51V12.16c0-1-.3-1.36-.93-1.36s-1.19.49-1.19,1.47v5.06h-1.51Z" fill="#3b4351"/><path d="M527.2,17.52a1.73,1.73,0,0,1-1.71-1.07h0v3.34H524v-10h1.43v.93h0a1.79,1.79,0,0,1,1.7-1.12c1.72,0,2.42,1.47,2.42,4.06C529.52,16.82,528.25,17.52,527.2,17.52Zm-.55-6.72c-1,0-1.27,1-1.27,2.68,0,1.8.22,2.84,1.28,2.84.86,0,1.27-.65,1.27-2.73C527.93,11.88,527.72,10.8,526.65,10.8Z" fill="#3b4351"/><path d="M530.75,7.33h1.51v10h-1.51Z" fill="#3b4351"/><path d="M535.09,13.76v.43c0,1,.13,2.3,1.26,2.3s1.21-1.22,1.21-1.68H539a2.48,2.48,0,0,1-2.65,2.71c-1.23,0-2.76-.36-2.76-3.85,0-2,.43-4.07,2.79-4.07,2.1,0,2.66,1.27,2.66,3.36v.8Zm2.43-1v-.41c0-1-.31-1.68-1.17-1.68s-1.26.95-1.26,1.93v.16Z" fill="#3b4351"/><path d="M543.52,12v-.2c0-.6-.21-1.16-1-1.16-.61,0-1.08.27-1.08,1s.26.83,1.06,1.11l1,.34a2,2,0,0,1,1.64,2.17c0,1.61-1.19,2.29-2.71,2.29-1.9,0-2.48-.88-2.48-2.34V14.9h1.35v.24c0,.88.29,1.35,1.18,1.35s1.23-.42,1.23-1.11a1.1,1.1,0,0,0-.83-1.11l-1.23-.43A2,2,0,0,1,540,11.67c0-1.42,1-2.07,2.58-2.07,1.92,0,2.35,1.12,2.35,2.05V12Z" fill="#3b4351"/><path d="M549.6,7.33h1.51v3.34h0a1.73,1.73,0,0,1,1.7-1.07c1.15,0,2.33.51,2.33,3.86,0,2.59-.71,4.06-2.47,4.06a1.61,1.61,0,0,1-1.65-1.12h0v.93H549.6Zm2.7,9c1.06,0,1.27-1.08,1.27-2.79,0-2-.32-2.73-1.17-2.73-1.18,0-1.38,1-1.38,2.84C551,15.27,551.26,16.32,552.3,16.32Z" fill="#3b4351"/><path d="M560.18,16.45h0a2.16,2.16,0,0,1-1.93,1.07c-1.12,0-1.88-.51-1.88-2.46V9.79h1.51V15.2c0,.84.37,1.12,1,1.12a1.18,1.18,0,0,0,1.24-1.26V9.79h1.51v7.54h-1.43Z" fill="#3b4351"/><path d="M563.13,7.21h1.52V8.73h-1.52Zm0,2.58h1.52v7.54h-1.52Z" fill="#3b4351"/><path d="M566.24,7.33h1.51v10h-1.51Z" fill="#3b4351"/><path d="M568.61,9.79h1V7.65h1.52V9.79h1.23v1.12h-1.23v4.5c0,.6.16.8.68.8a3.78,3.78,0,0,0,.55,0v1.12a5.17,5.17,0,0,1-1.22.12c-1,0-1.53-.29-1.53-1.82V10.91h-1Z" fill="#3b4351"/><path d="M581.48,15.76c0,.28.16.53.39.53a.57.57,0,0,0,.25,0v1a1.58,1.58,0,0,1-.74.18c-.68,0-1.24-.26-1.28-1h0a1.94,1.94,0,0,1-1.87,1.1c-1.22,0-2-.65-2-2.11A2.08,2.08,0,0,1,578,13l1.17-.32c.55-.16.89-.31.89-1s-.24-1.12-1-1.12c-1,0-1.15.72-1.15,1.44h-1.43c0-1.61.66-2.47,2.65-2.47,1.33,0,2.4.51,2.4,1.84Zm-1.43-2.41a11.23,11.23,0,0,1-1.68.7,1.23,1.23,0,0,0-.62,1.22c0,.63.31,1.13.94,1.13.91,0,1.36-.67,1.36-1.79Z" fill="#3b4351"/><path d="M582.34,9.79h1V7.65h1.51V9.79h1.23v1.12h-1.23v4.5c0,.6.17.8.69.8a3.74,3.74,0,0,0,.54,0v1.12a5.17,5.17,0,0,1-1.22.12c-1,0-1.52-.29-1.52-1.82V10.91h-1Z" fill="#3b4351"/><path d="M590.36,7.33H592v4.35h0l3-4.35h1.75l-2.88,4.21,3.19,5.79h-1.8l-2.43-4.5L592,14.09v3.24h-1.6Z" fill="#3b4351"/><path d="M602.48,15.76c0,.28.16.53.39.53a.57.57,0,0,0,.25,0v1a1.58,1.58,0,0,1-.74.18c-.68,0-1.24-.26-1.28-1h0a1.94,1.94,0,0,1-1.87,1.1c-1.22,0-2-.65-2-2.11A2.08,2.08,0,0,1,599,13l1.17-.32c.55-.16.89-.31.89-1s-.24-1.12-1-1.12c-1,0-1.15.72-1.15,1.44h-1.43c0-1.61.66-2.47,2.65-2.47,1.33,0,2.4.51,2.4,1.84Zm-1.43-2.41a11.23,11.23,0,0,1-1.68.7,1.23,1.23,0,0,0-.62,1.22c0,.63.31,1.13.94,1.13.91,0,1.36-.67,1.36-1.79Z" fill="#3b4351"/><path d="M604,9.79h1.52V11h0A1.87,1.87,0,0,1,607.3,9.6a.94.94,0,0,1,.37.05v1.54a2.24,2.24,0,0,0-.63-.08c-.69,0-1.51.31-1.51,1.71v4.51H604Z" fill="#3b4351"/><path d="M608.56,9.79H610v.88h0A2.17,2.17,0,0,1,612,9.6c1.14,0,1.87.51,1.87,2v5.69h-1.51V12.16c0-1-.27-1.36-1.05-1.36-.62,0-1.21.46-1.21,1.47v5.06h-1.51Z" fill="#3b4351"/><path d="M620.24,15.76c0,.28.17.53.39.53a.54.54,0,0,0,.25,0v1a1.55,1.55,0,0,1-.74.18c-.67,0-1.23-.26-1.27-1h0a2,2,0,0,1-1.88,1.1c-1.22,0-2-.65-2-2.11A2.08,2.08,0,0,1,616.75,13l1.18-.32c.55-.16.88-.31.88-1s-.24-1.12-1-1.12c-1,0-1.14.72-1.14,1.44H615.2c0-1.61.66-2.47,2.65-2.47,1.33,0,2.39.51,2.39,1.84Zm-1.43-2.41a11.23,11.23,0,0,1-1.68.7,1.25,1.25,0,0,0-.62,1.22c0,.63.31,1.13.94,1.13.91,0,1.36-.67,1.36-1.79Z" fill="#3b4351"/><path d="M621.78,7.33h1.51v5.61h0l2.28-3.15h1.75l-2.27,2.91,2.57,4.64H626l-1.85-3.43-.85,1v2.4h-1.51Z" fill="#3b4351"/><path d="M636.56,15.76c0,.28.17.53.4.53a.57.57,0,0,0,.25,0v1a1.58,1.58,0,0,1-.74.18c-.68,0-1.24-.26-1.28-1h0a1.94,1.94,0,0,1-1.87,1.1c-1.22,0-2-.65-2-2.11A2.08,2.08,0,0,1,633.08,13l1.17-.32c.55-.16.89-.31.89-1s-.24-1.12-1-1.12c-1,0-1.15.72-1.15,1.44h-1.43c0-1.61.66-2.47,2.65-2.47,1.33,0,2.39.51,2.39,1.84Zm-1.42-2.41a10.92,10.92,0,0,1-1.69.7,1.24,1.24,0,0,0-.61,1.22c0,.63.31,1.13.94,1.13.91,0,1.36-.67,1.36-1.79Z" fill="#3b4351"/><path d="M638.1,9.79h1.43v.88h0a2.16,2.16,0,0,1,1.94-1.07c1.14,0,1.87.51,1.87,2v5.69h-1.51V12.16c0-1-.27-1.36-1-1.36-.62,0-1.21.46-1.21,1.47v5.06H638.1Z" fill="#3b4351"/><path d="M648.69,16.4h0A1.61,1.61,0,0,1,647,17.52c-1.75,0-2.47-1.48-2.47-4.06,0-3.35,1.18-3.86,2.33-3.86a1.75,1.75,0,0,1,1.71,1.07h0V7.33h1.52v10h-1.43Zm-1.38-5.6c-.85,0-1.17.7-1.17,2.73,0,1.71.21,2.79,1.27,2.79s1.28-1.05,1.28-2.68C648.69,11.84,648.49,10.8,647.31,10.8Z" fill="#3b4351"/><path d="M654.85,7.33h1.59V16h3.87v1.35h-5.46Z" fill="#3b4351"/><path d="M665,16.45h0A2.15,2.15,0,0,1,663,17.52c-1.12,0-1.88-.51-1.88-2.46V9.79h1.52V15.2c0,.84.36,1.12,1,1.12a1.17,1.17,0,0,0,1.23-1.26V9.79h1.52v7.54H665Z" fill="#3b4351"/><path d="M669.25,13.42l-2-3.63H669l1.17,2.49,1.24-2.49H673l-2,3.63,2.05,3.91h-1.64l-1.32-2.79-1.32,2.79h-1.61Z" fill="#3b4351"/><path d="M673.55,13.56c0-2.35.61-4,2.8-4s2.82,1.61,2.82,4-.73,4-2.82,4S673.55,15.91,673.55,13.56Zm2.8,2.84c1.11,0,1.3-.92,1.3-2.84,0-1.67-.19-2.84-1.3-2.84s-1.29,1.17-1.29,2.84C675.06,15.48,675.27,16.4,676.35,16.4Z" fill="#3b4351"/><path d="M680.32,9.79h1.52V11h0a1.85,1.85,0,0,1,1.75-1.37.89.89,0,0,1,.36.05v1.54a2.18,2.18,0,0,0-.63-.08c-.69,0-1.51.31-1.51,1.71v4.51h-1.52Z" fill="#3b4351"/><path d="M683.6,15.48h1.6v1.85h-1.6Z" fill="#3b4351"/><path d="M418.52,76.13v.25c0,1.22.55,1.84,1.64,1.84a1.44,1.44,0,0,0,1.51-1.46A1.68,1.68,0,0,0,420.24,75l-1.09-.38c-1.46-.56-2.09-1.31-2.09-2.74,0-1.82,1.25-2.83,3.11-2.83,2.57,0,2.83,1.59,2.83,2.63v.22h-1.59v-.21c0-.91-.4-1.44-1.4-1.44a1.28,1.28,0,0,0-1.35,1.44c0,.86.44,1.29,1.5,1.7l1.08.39a2.55,2.55,0,0,1,2,2.65c0,2.13-1.29,3-3.31,3a2.74,2.74,0,0,1-3-3v-.24Z" fill="#3b4351"/><path d="M425.76,75.65v.44c0,1,.13,2.29,1.26,2.29s1.21-1.21,1.21-1.68h1.42A2.48,2.48,0,0,1,427,79.42c-1.24,0-2.76-.36-2.76-3.85,0-2,.43-4.08,2.78-4.08,2.11,0,2.67,1.28,2.67,3.36v.8Zm2.42-1v-.41c0-.95-.31-1.68-1.16-1.68s-1.26,1-1.26,1.93v.16Z" fill="#3b4351"/><path d="M436,76.48c-.11,1.81-.7,2.94-2.57,2.94-2.19,0-2.81-1.61-2.81-4s.62-4,2.81-4A2.44,2.44,0,0,1,436,74.2h-1.52c0-.7-.18-1.63-1.07-1.59-1.08,0-1.29,1.18-1.29,2.85s.21,2.84,1.29,2.84c.84,0,1.14-.69,1.14-1.82Z" fill="#3b4351"/><path d="M436.86,75.46c0-2.36.62-4,2.8-4s2.82,1.61,2.82,4-.73,4-2.82,4S436.86,77.81,436.86,75.46Zm2.8,2.84c1.11,0,1.3-.92,1.3-2.84,0-1.67-.19-2.85-1.3-2.85s-1.29,1.18-1.29,2.85C438.37,77.38,438.58,78.3,439.66,78.3Z" fill="#3b4351"/><path d="M443.64,71.69h1.43v.88h0A2.17,2.17,0,0,1,447,71.49c1.15,0,1.88.52,1.88,2.05v5.68H447.4V74.06c0-1-.26-1.36-1-1.36-.61,0-1.2.46-1.2,1.47v5h-1.51Z" fill="#3b4351"/><path d="M454.22,78.3h0a1.6,1.6,0,0,1-1.65,1.12c-1.75,0-2.46-1.48-2.46-4.06,0-3.35,1.17-3.87,2.32-3.87a1.74,1.74,0,0,1,1.71,1.08h0V69.22h1.51v10h-1.43Zm-1.37-5.6c-.85,0-1.18.7-1.18,2.73,0,1.71.21,2.79,1.28,2.79s1.27-1,1.27-2.68C454.22,73.73,454,72.7,452.85,72.7Z" fill="#3b4351"/><path d="M462,79.87a1,1,0,0,0,1.09.9,1.25,1.25,0,0,0,1.27-1.42V78.13h0a1.82,1.82,0,0,1-1.71,1c-1.75,0-2.26-1.72-2.26-3.8,0-1.65.25-3.88,2.4-3.88a1.67,1.67,0,0,1,1.65,1.12h0v-.92h1.43v7.17c0,1.84-.79,2.94-2.82,2.94-2.24,0-2.49-1.31-2.49-1.93ZM463,78c1.18,0,1.3-1.48,1.3-2.67s-.15-2.59-1.2-2.59-1.28,1.12-1.28,2.52S461.92,78,463,78Z" fill="#3b4351"/><path d="M467.28,71.69h1.51v1.18h0a1.87,1.87,0,0,1,1.75-1.38.92.92,0,0,1,.37.06v1.54a2.24,2.24,0,0,0-.63-.08c-.69,0-1.52.3-1.52,1.7v4.51h-1.51Z" fill="#3b4351"/><path d="M472.91,75.65v.44c0,1,.13,2.29,1.26,2.29s1.21-1.21,1.21-1.68h1.42a2.47,2.47,0,0,1-2.64,2.72c-1.24,0-2.76-.36-2.76-3.85,0-2,.43-4.08,2.78-4.08,2.11,0,2.67,1.28,2.67,3.36v.8Zm2.42-1v-.41c0-.95-.3-1.68-1.16-1.68s-1.26,1-1.26,1.93v.16Z" fill="#3b4351"/><path d="M483,77.66c0,.28.17.53.4.53a.76.76,0,0,0,.25,0v1a1.71,1.71,0,0,1-.74.18c-.68,0-1.24-.27-1.28-1h0a1.93,1.93,0,0,1-1.87,1.11c-1.22,0-2-.66-2-2.11a2.07,2.07,0,0,1,1.75-2.37l1.17-.32c.55-.16.89-.31.89-1s-.24-1.12-1-1.12c-1,0-1.15.71-1.15,1.44H478c0-1.61.66-2.48,2.65-2.48,1.33,0,2.39.52,2.39,1.85Zm-1.42-2.41a13.32,13.32,0,0,1-1.69.7,1.23,1.23,0,0,0-.61,1.22c0,.63.31,1.13.94,1.13.91,0,1.36-.67,1.36-1.79Z" fill="#3b4351"/><path d="M483.9,71.69h1V69.55h1.51v2.14h1.23v1.12h-1.23v4.5c0,.6.17.79.69.79a2.7,2.7,0,0,0,.54,0v1.12a4.64,4.64,0,0,1-1.22.13c-1,0-1.52-.3-1.52-1.82V72.81h-1Z" fill="#3b4351"/><path d="M496.77,77.66c0,.28.17.53.39.53a.72.72,0,0,0,.25,0v1a1.71,1.71,0,0,1-.74.18c-.67,0-1.23-.27-1.27-1h0a1.94,1.94,0,0,1-1.88,1.11c-1.22,0-2-.66-2-2.11a2.07,2.07,0,0,1,1.75-2.37l1.18-.32c.54-.16.88-.31.88-1s-.24-1.12-1-1.12c-1,0-1.15.71-1.15,1.44h-1.42c0-1.61.65-2.48,2.64-2.48,1.33,0,2.4.52,2.4,1.85Zm-1.43-2.41a13.82,13.82,0,0,1-1.68.7,1.22,1.22,0,0,0-.62,1.22c0,.63.31,1.13.94,1.13.91,0,1.36-.67,1.36-1.79Z" fill="#3b4351"/><path d="M498.31,71.69h1.51v1.18h0a1.85,1.85,0,0,1,1.75-1.38.87.87,0,0,1,.36.06v1.54a2.18,2.18,0,0,0-.63-.08c-.69,0-1.51.3-1.51,1.7v4.51h-1.51Z" fill="#3b4351"/><path d="M502,71.69h1V69.55h1.51v2.14h1.23v1.12h-1.23v4.5c0,.6.17.79.69.79a2.7,2.7,0,0,0,.54,0v1.12a4.56,4.56,0,0,1-1.21.13c-1,0-1.53-.3-1.53-1.82V72.81h-1Z" fill="#3b4351"/><path d="M513.22,79.42a1.74,1.74,0,0,1-1.71-1.08h0v3.35H510v-10h1.43v.92h0a1.8,1.8,0,0,1,1.7-1.12c1.72,0,2.42,1.47,2.42,4.06C515.54,78.72,514.27,79.42,513.22,79.42Zm-.55-6.72c-1,0-1.27,1-1.27,2.67,0,1.81.22,2.85,1.28,2.85.86,0,1.27-.65,1.27-2.74C514,73.78,513.74,72.7,512.67,72.7Z" fill="#3b4351"/><path d="M518,75.65v.44c0,1,.13,2.29,1.26,2.29s1.21-1.21,1.21-1.68h1.43a2.48,2.48,0,0,1-2.65,2.72c-1.23,0-2.76-.36-2.76-3.85,0-2,.44-4.08,2.79-4.08,2.1,0,2.66,1.28,2.66,3.36v.8Zm2.43-1v-.41c0-.95-.31-1.68-1.17-1.68s-1.26,1-1.26,1.93v.16Z" fill="#3b4351"/><path d="M523.18,71.69h1.52v1.18h0a1.87,1.87,0,0,1,1.75-1.38.92.92,0,0,1,.37.06v1.54a2.24,2.24,0,0,0-.63-.08c-.69,0-1.51.3-1.51,1.7v4.51h-1.52Z" fill="#3b4351"/><path d="M527.66,69.11h1.52v1.51h-1.52Zm0,2.58h1.52v7.53h-1.52Z" fill="#3b4351"/><path d="M530.41,75.46c0-2.36.61-4,2.8-4s2.81,1.61,2.81,4-.73,4-2.81,4S530.41,77.81,530.41,75.46Zm2.8,2.84c1.1,0,1.3-.92,1.3-2.84,0-1.67-.2-2.85-1.3-2.85s-1.29,1.18-1.29,2.85C531.92,77.38,532.13,78.3,533.21,78.3Z" fill="#3b4351"/><path d="M541,78.3h0a1.62,1.62,0,0,1-1.66,1.12c-1.75,0-2.46-1.48-2.46-4.06,0-3.35,1.17-3.87,2.32-3.87a1.74,1.74,0,0,1,1.71,1.08h0V69.22h1.51v10H541Zm-1.37-5.6c-.85,0-1.17.7-1.17,2.73,0,1.71.21,2.79,1.27,2.79s1.27-1,1.27-2.68C541,73.73,540.84,72.7,539.66,72.7Z" fill="#3b4351"/><path d="M550.53,73.89v-.2c0-.6-.21-1.16-1-1.16-.6,0-1.08.26-1.08,1s.27.83,1.07,1.11l1,.33a2,2,0,0,1,1.64,2.17c0,1.61-1.19,2.3-2.7,2.3-1.91,0-2.48-.88-2.48-2.34V76.8h1.34V77c0,.88.3,1.34,1.18,1.34s1.23-.42,1.23-1.1a1.09,1.09,0,0,0-.82-1.11l-1.24-.43A2,2,0,0,1,547,73.57c0-1.42,1-2.08,2.58-2.08,1.92,0,2.35,1.12,2.35,2.06v.34Z" fill="#3b4351"/><path d="M557.09,78.34h0a2.17,2.17,0,0,1-1.93,1.08c-1.12,0-1.88-.52-1.88-2.46V71.69h1.51V77.1c0,.84.37,1.12,1,1.12A1.18,1.18,0,0,0,557,77V71.69h1.51v7.53h-1.43Z" fill="#3b4351"/><path d="M565.06,76.48c-.11,1.81-.7,2.94-2.58,2.94-2.18,0-2.8-1.61-2.8-4s.62-4,2.8-4a2.44,2.44,0,0,1,2.59,2.71h-1.51c0-.7-.18-1.63-1.08-1.59-1.08,0-1.29,1.18-1.29,2.85s.21,2.84,1.29,2.84c.84,0,1.15-.69,1.15-1.82Z" fill="#3b4351"/><path d="M571.27,76.48c-.11,1.81-.7,2.94-2.57,2.94-2.19,0-2.8-1.61-2.8-4s.61-4,2.8-4a2.44,2.44,0,0,1,2.59,2.71h-1.51c0-.7-.19-1.63-1.08-1.59-1.08,0-1.29,1.18-1.29,2.85s.21,2.84,1.29,2.84c.84,0,1.15-.69,1.15-1.82Z" fill="#3b4351"/><path d="M573.71,75.65v.44c0,1,.12,2.29,1.26,2.29s1.2-1.21,1.2-1.68h1.43A2.48,2.48,0,0,1,575,79.42c-1.23,0-2.75-.36-2.75-3.85,0-2,.43-4.08,2.78-4.08,2.1,0,2.66,1.28,2.66,3.36v.8Zm2.42-1v-.41c0-.95-.31-1.68-1.16-1.68s-1.26,1-1.26,1.93v.16Z" fill="#3b4351"/><path d="M580.19,75.65v.44c0,1,.13,2.29,1.26,2.29s1.21-1.21,1.21-1.68h1.42a2.47,2.47,0,0,1-2.64,2.72c-1.24,0-2.76-.36-2.76-3.85,0-2,.43-4.08,2.78-4.08,2.11,0,2.67,1.28,2.67,3.36v.8Zm2.42-1v-.41c0-.95-.3-1.68-1.16-1.68s-1.26,1-1.26,1.93v.16Z" fill="#3b4351"/><path d="M589.22,78.3h0a1.6,1.6,0,0,1-1.65,1.12c-1.75,0-2.46-1.48-2.46-4.06,0-3.35,1.17-3.87,2.32-3.87a1.74,1.74,0,0,1,1.71,1.08h0V69.22h1.51v10h-1.43Zm-1.37-5.6c-.86,0-1.18.7-1.18,2.73,0,1.71.21,2.79,1.28,2.79s1.27-1,1.27-2.68C589.22,73.73,589,72.7,587.85,72.7Z" fill="#3b4351"/><path d="M593.41,75.65v.44c0,1,.12,2.29,1.26,2.29s1.2-1.21,1.2-1.68h1.43a2.48,2.48,0,0,1-2.65,2.72c-1.23,0-2.76-.36-2.76-3.85,0-2,.44-4.08,2.79-4.08,2.1,0,2.66,1.28,2.66,3.36v.8Zm2.42-1v-.41c0-.95-.31-1.68-1.16-1.68s-1.26,1-1.26,1.93v.16Z" fill="#3b4351"/><path d="M602.44,78.3h0a1.61,1.61,0,0,1-1.65,1.12c-1.75,0-2.47-1.48-2.47-4.06,0-3.35,1.18-3.87,2.33-3.87a1.75,1.75,0,0,1,1.71,1.08h0V69.22h1.52v10h-1.43Zm-1.38-5.6c-.85,0-1.17.7-1.17,2.73,0,1.71.21,2.79,1.27,2.79s1.28-1,1.28-2.68C602.44,73.73,602.24,72.7,601.06,72.7Z" fill="#3b4351"/><path d="M608.68,69.22h1.51v3.35h0a1.74,1.74,0,0,1,1.71-1.08c1.15,0,2.32.52,2.32,3.87,0,2.59-.71,4.06-2.46,4.06a1.6,1.6,0,0,1-1.65-1.12h0v.92h-1.43Zm2.7,9c1.07,0,1.28-1.08,1.28-2.79,0-2-.33-2.73-1.18-2.73-1.18,0-1.37,1-1.37,2.84C610.11,77.17,610.35,78.22,611.38,78.22Z" fill="#3b4351"/><path d="M616.25,71.69l1.31,5.66h0l1.21-5.66h1.58L618.3,79.5c-.6,2.06-1.07,2.34-2.64,2.3a3,3,0,0,1-.6,0V80.54a2.12,2.12,0,0,0,.49.06c.52,0,.86-.1,1-.59l.19-.62-2.14-7.7Z" fill="#3b4351"/><path d="M627.82,79.42a1.74,1.74,0,0,1-1.71-1.08h0v3.35h-1.51v-10H626v.92h0a1.78,1.78,0,0,1,1.69-1.12c1.72,0,2.42,1.47,2.42,4.06C630.14,78.72,628.87,79.42,627.82,79.42Zm-.55-6.72c-1,0-1.27,1-1.27,2.67,0,1.81.22,2.85,1.29,2.85.85,0,1.26-.65,1.26-2.74C628.55,73.78,628.34,72.7,627.27,72.7Z" fill="#3b4351"/><path d="M632.61,75.65v.44c0,1,.12,2.29,1.26,2.29s1.2-1.21,1.2-1.68h1.43a2.48,2.48,0,0,1-2.65,2.72c-1.23,0-2.76-.36-2.76-3.85,0-2,.44-4.08,2.79-4.08,2.1,0,2.66,1.28,2.66,3.36v.8Zm2.42-1v-.41c0-.95-.31-1.68-1.16-1.68s-1.26,1-1.26,1.93v.16Z" fill="#3b4351"/><path d="M637.78,71.69h1.52v1.18h0a1.85,1.85,0,0,1,1.75-1.38.87.87,0,0,1,.36.06v1.54a2.18,2.18,0,0,0-.63-.08c-.69,0-1.51.3-1.51,1.7v4.51h-1.52Z" fill="#3b4351"/><path d="M642.26,69.11h1.52v1.51h-1.52Zm0,2.58h1.52v7.53h-1.52Z" fill="#3b4351"/><path d="M645,75.46c0-2.36.61-4,2.8-4s2.81,1.61,2.81,4-.72,4-2.81,4S645,77.81,645,75.46Zm2.8,2.84c1.11,0,1.3-.92,1.3-2.84,0-1.67-.19-2.85-1.3-2.85s-1.29,1.18-1.29,2.85C646.52,77.38,646.73,78.3,647.81,78.3Z" fill="#3b4351"/><path d="M655.64,78.3h0A1.61,1.61,0,0,1,654,79.42c-1.75,0-2.46-1.48-2.46-4.06,0-3.35,1.18-3.87,2.32-3.87a1.74,1.74,0,0,1,1.71,1.08h0V69.22h1.51v10h-1.42Zm-1.38-5.6c-.85,0-1.17.7-1.17,2.73,0,1.71.21,2.79,1.27,2.79s1.28-1,1.28-2.68C655.64,73.73,655.44,72.7,654.26,72.7Z" fill="#3b4351"/><path d="M661.58,75.46c0-2.36.62-4,2.81-4s2.81,1.61,2.81,4-.73,4-2.81,4S661.58,77.81,661.58,75.46Zm2.81,2.84c1.1,0,1.3-.92,1.3-2.84,0-1.67-.2-2.85-1.3-2.85s-1.29,1.18-1.29,2.85C663.1,77.38,663.31,78.3,664.39,78.3Z" fill="#3b4351"/><path d="M668.82,72.81h-1.05V71.69h1.05V71c0-1.42.69-1.88,1.92-1.88a6.67,6.67,0,0,1,.83,0v1.17h-.42c-.56,0-.82.21-.82.71v.66h1.24v1.12h-1.24v6.41h-1.51Z" fill="#3b4351"/><path d="M675.09,71.69h1.57l1.05,5.94h0l1.12-5.94h1.71l1.12,5.94h0l1-5.94h1.51l-1.72,7.53h-1.7l-1.18-5.85h0l-1.08,5.85H676.8Z" fill="#3b4351"/><path d="M686.5,75.65v.44c0,1,.13,2.29,1.27,2.29s1.2-1.21,1.2-1.68h1.43a2.48,2.48,0,0,1-2.65,2.72c-1.23,0-2.76-.36-2.76-3.85,0-2,.44-4.08,2.79-4.08,2.1,0,2.66,1.28,2.66,3.36v.8Zm2.43-1v-.41c0-.95-.31-1.68-1.16-1.68s-1.27,1-1.27,1.93v.16Z" fill="#3b4351"/><path d="M696.63,77.66c0,.28.17.53.39.53a.72.72,0,0,0,.25,0v1a1.71,1.71,0,0,1-.74.18c-.67,0-1.23-.27-1.27-1h0a1.94,1.94,0,0,1-1.88,1.11c-1.22,0-2-.66-2-2.11a2.07,2.07,0,0,1,1.75-2.37l1.18-.32c.54-.16.88-.31.88-1s-.24-1.12-1-1.12c-1,0-1.15.71-1.15,1.44h-1.42c0-1.61.65-2.48,2.64-2.48,1.33,0,2.4.52,2.4,1.85Zm-1.43-2.41a13.82,13.82,0,0,1-1.68.7,1.22,1.22,0,0,0-.62,1.22c0,.63.31,1.13.94,1.13.91,0,1.36-.67,1.36-1.79Z" fill="#3b4351"/><path d="M698.24,69.22h1.51v10h-1.51Z" fill="#3b4351"/><path d="M700.6,71.69h1V69.55h1.51v2.14h1.23v1.12h-1.23v4.5c0,.6.17.79.69.79a2.7,2.7,0,0,0,.54,0v1.12a4.64,4.64,0,0,1-1.22.13c-1,0-1.52-.3-1.52-1.82V72.81h-1Z" fill="#3b4351"/><path d="M705.17,69.22h1.51V72.5l0,0a2.14,2.14,0,0,1,1.85-1c1.15,0,1.88.52,1.88,2.05v5.68h-1.52V74.06c0-1-.28-1.36-1-1.36-.61,0-1.2.47-1.2,1.47v5h-1.51Z" fill="#3b4351"/><path d="M720.2,77.66c0,.28.17.53.4.53a.76.76,0,0,0,.25,0v1a1.71,1.71,0,0,1-.74.18c-.68,0-1.24-.27-1.28-1h0a1.93,1.93,0,0,1-1.87,1.11c-1.22,0-2-.66-2-2.11a2.08,2.08,0,0,1,1.76-2.37l1.17-.32c.55-.16.88-.31.88-1s-.23-1.12-1-1.12c-1,0-1.15.71-1.15,1.44h-1.43c0-1.61.66-2.48,2.65-2.48,1.33,0,2.39.52,2.39,1.85Zm-1.43-2.41a13.18,13.18,0,0,1-1.68.7,1.23,1.23,0,0,0-.61,1.22c0,.63.31,1.13.94,1.13.91,0,1.35-.67,1.35-1.79Z" fill="#3b4351"/><path d="M721.74,71.69h1.43v.88h0a2.17,2.17,0,0,1,1.93-1.08c1.15,0,1.88.52,1.88,2.05v5.68h-1.51V74.06c0-1-.27-1.36-1-1.36-.62,0-1.21.46-1.21,1.47v5h-1.51Z" fill="#3b4351"/><path d="M732.33,78.3h0a1.61,1.61,0,0,1-1.65,1.12c-1.76,0-2.47-1.48-2.47-4.06,0-3.35,1.18-3.87,2.33-3.87a1.74,1.74,0,0,1,1.7,1.08h0V69.22h1.52v10h-1.43ZM731,72.7c-.85,0-1.17.7-1.17,2.73,0,1.71.21,2.79,1.27,2.79s1.28-1,1.28-2.68C732.33,73.73,732.13,72.7,731,72.7Z" fill="#3b4351"/><path d="M481.16,95.69h1.43v.88h0a2.13,2.13,0,0,1,1.81-1.08,1.63,1.63,0,0,1,1.75,1.15,2.07,2.07,0,0,1,1.91-1.15c1.06,0,1.83.55,1.83,2v5.72h-1.51V98.06c0-1-.3-1.36-.91-1.36s-1.21.47-1.21,1.47v5h-1.51V98.06c0-1-.29-1.36-.92-1.36s-1.19.49-1.19,1.47v5h-1.52Z" fill="#3b4351"/><path d="M491.16,99.46c0-2.36.61-4,2.8-4s2.82,1.61,2.82,4-.73,4-2.82,4S491.16,101.81,491.16,99.46Zm2.8,2.84c1.11,0,1.3-.92,1.3-2.84,0-1.67-.19-2.85-1.3-2.85s-1.29,1.18-1.29,2.85C492.67,101.38,492.88,102.3,494,102.3Z" fill="#3b4351"/><path d="M497.93,95.69h1.52v1.18h0a1.85,1.85,0,0,1,1.75-1.38.87.87,0,0,1,.36.06v1.54A2.18,2.18,0,0,0,501,97c-.69,0-1.51.3-1.51,1.7v4.51h-1.52Z" fill="#3b4351"/><path d="M507.2,101.66c0,.28.17.53.4.53a.76.76,0,0,0,.25,0v1a1.71,1.71,0,0,1-.74.18c-.68,0-1.24-.27-1.28-1h0a1.93,1.93,0,0,1-1.87,1.11c-1.22,0-2-.66-2-2.11a2.07,2.07,0,0,1,1.75-2.37l1.17-.32c.55-.16.89-.31.89-1s-.24-1.12-1-1.12c-1,0-1.15.71-1.15,1.44h-1.43c0-1.61.66-2.48,2.65-2.48,1.33,0,2.39.52,2.39,1.85Zm-1.42-2.41a13.82,13.82,0,0,1-1.68.7,1.22,1.22,0,0,0-.62,1.22c0,.63.31,1.13.94,1.13.91,0,1.36-.67,1.36-1.79Z" fill="#3b4351"/><path d="M508.81,93.22h1.51v10h-1.51Z" fill="#3b4351"/><path d="M519.06,102.3h0a1.6,1.6,0,0,1-1.65,1.12c-1.75,0-2.46-1.48-2.46-4.06,0-3.35,1.17-3.87,2.32-3.87A1.74,1.74,0,0,1,519,96.57h0V93.22h1.51v10h-1.43Zm-1.37-5.6c-.86,0-1.18.7-1.18,2.73,0,1.71.21,2.79,1.28,2.79s1.27-1,1.27-2.68C519.06,97.73,518.87,96.7,517.69,96.7Z" fill="#3b4351"/><path d="M523.25,99.65v.44c0,1,.12,2.29,1.26,2.29s1.2-1.21,1.2-1.68h1.43a2.48,2.48,0,0,1-2.65,2.72c-1.23,0-2.76-.36-2.76-3.85,0-2,.44-4.08,2.79-4.08,2.1,0,2.66,1.28,2.66,3.36v.8Zm2.42-1v-.41c0-.95-.31-1.68-1.16-1.68s-1.26,1-1.26,1.93v.16Z" fill="#3b4351"/><path d="M533.51,100.48c-.11,1.81-.7,2.94-2.58,2.94-2.18,0-2.8-1.61-2.8-4s.62-4,2.8-4a2.44,2.44,0,0,1,2.59,2.71H532c0-.7-.18-1.63-1.08-1.59-1.08,0-1.29,1.18-1.29,2.85s.21,2.84,1.29,2.84c.84,0,1.15-.69,1.15-1.82Z" fill="#3b4351"/><path d="M534.71,93.22h1.51v10h-1.51Z" fill="#3b4351"/><path d="M537.82,93.11h1.51v1.51h-1.51Zm0,2.58h1.51v7.53h-1.51Z" fill="#3b4351"/><path d="M540.86,95.69h1.43v.88h0a2.17,2.17,0,0,1,1.93-1.08c1.15,0,1.88.52,1.88,2.05v5.68h-1.51V98.06c0-1-.27-1.36-1.06-1.36-.61,0-1.2.46-1.2,1.47v5h-1.51Z" fill="#3b4351"/><path d="M548.89,99.65v.44c0,1,.13,2.29,1.26,2.29s1.21-1.21,1.21-1.68h1.43a2.48,2.48,0,0,1-2.65,2.72c-1.23,0-2.76-.36-2.76-3.85,0-2,.44-4.08,2.79-4.08,2.1,0,2.66,1.28,2.66,3.36v.8Zm2.43-1v-.41c0-.95-.31-1.68-1.17-1.68s-1.26,1-1.26,1.93v.16Z" fill="#3b4351"/><path d="M553.71,101.38h1.6v1.84h-1.6Z" fill="#3b4351"/><path d="M586.68,99.64v.21c0,1.81-.74,3.57-3.08,3.57-2.52,0-3.31-1.62-3.31-5.2s.79-5.19,3.32-5.19c2.85,0,3,2.08,3,3.14v.18H585v-.17c0-.94-.28-2-1.43-2s-1.71.73-1.71,4,.52,4,1.71,4,1.48-1.47,1.48-2.41v-.17Z" fill="#3b4351"/><path d="M587.77,93.22h1.51v10h-1.51Z" fill="#3b4351"/><path d="M590.88,93.11h1.51v1.51h-1.51Zm0,2.58h1.51v7.53h-1.51Z" fill="#3b4351"/><path d="M594,95.69h1.42v.88h.05a2.11,2.11,0,0,1,1.8-1.08A1.65,1.65,0,0,1,599,96.64a2,2,0,0,1,1.9-1.15c1.06,0,1.84.55,1.84,2v5.72h-1.52V98.06c0-1-.29-1.36-.91-1.36s-1.2.47-1.2,1.47v5h-1.52V98.06c0-1-.29-1.36-.92-1.36s-1.19.49-1.19,1.47v5H594Z" fill="#3b4351"/><path d="M609.22,101.66c0,.28.17.53.39.53a.78.78,0,0,0,.26,0v1a1.76,1.76,0,0,1-.75.18c-.67,0-1.23-.27-1.27-1h0a1.94,1.94,0,0,1-1.88,1.11c-1.22,0-2-.66-2-2.11a2.07,2.07,0,0,1,1.75-2.37l1.18-.32c.55-.16.88-.31.88-1s-.24-1.12-1-1.12c-1,0-1.15.71-1.15,1.44h-1.43c0-1.61.66-2.48,2.65-2.48,1.33,0,2.39.52,2.39,1.85Zm-1.43-2.41a13.82,13.82,0,0,1-1.68.7,1.23,1.23,0,0,0-.61,1.22c0,.63.3,1.13.93,1.13.91,0,1.36-.67,1.36-1.79Z" fill="#3b4351"/><path d="M612.13,99.32l-2-3.63h1.66L613,98.18l1.24-2.49h1.62l-2,3.63,2,3.9h-1.63L613,100.44l-1.32,2.78h-1.61Z" fill="#3b4351"/><path d="M619.79,99.46c0-2.36.61-4,2.8-4s2.81,1.61,2.81,4-.72,4-2.81,4S619.79,101.81,619.79,99.46Zm2.8,2.84c1.11,0,1.3-.92,1.3-2.84,0-1.67-.19-2.85-1.3-2.85s-1.29,1.18-1.29,2.85C621.3,101.38,621.51,102.3,622.59,102.3Z" fill="#3b4351"/><path d="M627,96.81h-1V95.69h1V95c0-1.42.68-1.88,1.92-1.88a6.4,6.4,0,0,1,.82,0v1.17h-.42c-.56,0-.81.21-.81.71v.66h1.23v1.12h-1.23v6.41H627Z" fill="#3b4351"/><path d="M635.12,99.65v.44c0,1,.12,2.29,1.26,2.29s1.2-1.21,1.2-1.68H639a2.48,2.48,0,0,1-2.64,2.72c-1.24,0-2.76-.36-2.76-3.85,0-2,.43-4.08,2.78-4.08,2.1,0,2.66,1.28,2.66,3.36v.8Zm2.42-1v-.41c0-.95-.31-1.68-1.16-1.68s-1.26,1-1.26,1.93v.16Z" fill="#3b4351"/><path d="M640.37,95.69h1.43v.88h0a2.12,2.12,0,0,1,1.81-1.08,1.65,1.65,0,0,1,1.75,1.15,2,2,0,0,1,1.9-1.15c1.07,0,1.84.55,1.84,2v5.72h-1.52V98.06c0-1-.29-1.36-.91-1.36s-1.2.47-1.2,1.47v5H644V98.06c0-1-.3-1.36-.93-1.36s-1.19.49-1.19,1.47v5h-1.51Z" fill="#3b4351"/><path d="M653.91,103.42a1.74,1.74,0,0,1-1.71-1.08h0v3.35h-1.51v-10h1.43v.92h0a1.8,1.8,0,0,1,1.7-1.12c1.72,0,2.42,1.47,2.42,4.06C656.23,102.72,655,103.42,653.91,103.42Zm-.55-6.72c-1,0-1.27,1-1.27,2.67,0,1.81.22,2.85,1.28,2.85.86,0,1.27-.65,1.27-2.74C654.64,97.78,654.43,96.7,653.36,96.7Z" fill="#3b4351"/><path d="M657.46,93.11H659v1.51h-1.51Zm0,2.58H659v7.53h-1.51Z" fill="#3b4351"/><path d="M660.5,95.69H662v1.18h0a1.87,1.87,0,0,1,1.75-1.38.92.92,0,0,1,.37.06v1.54a2.32,2.32,0,0,0-.64-.08c-.68,0-1.51.3-1.51,1.7v4.51H660.5Z" fill="#3b4351"/><path d="M666.13,99.65v.44c0,1,.12,2.29,1.26,2.29s1.2-1.21,1.2-1.68H670a2.48,2.48,0,0,1-2.65,2.72c-1.23,0-2.76-.36-2.76-3.85,0-2,.44-4.08,2.79-4.08,2.1,0,2.66,1.28,2.66,3.36v.8Zm2.42-1v-.41c0-.95-.31-1.68-1.16-1.68s-1.26,1-1.26,1.93v.16Z" fill="#3b4351"/></g></g><g id="Ageans"><g id="Title"><g id="small-2" data-name="small"><path d="M177,38.91v.21c0,1.81-.74,3.58-3.08,3.58-2.52,0-3.31-1.63-3.31-5.2s.79-5.2,3.32-5.2c2.85,0,3,2.09,3,3.14v.18h-1.6v-.17c0-.93-.28-2-1.43-1.94s-1.71.73-1.71,4,.52,4,1.71,4c1.35,0,1.49-1.47,1.49-2.41v-.17Z" fill="#3b4351"/><path d="M177.7,38.73c0-2.35.61-4,2.8-4s2.81,1.61,2.81,4-.72,4-2.81,4S177.7,41.09,177.7,38.73Zm2.8,2.85c1.1,0,1.3-.93,1.3-2.85,0-1.67-.2-2.84-1.3-2.84s-1.29,1.17-1.29,2.84C179.21,40.65,179.42,41.58,180.5,41.58Z" fill="#3b4351"/><path d="M184.47,35h1.43v.89h0a2.16,2.16,0,0,1,1.94-1.08c1.15,0,1.87.52,1.87,2V42.5h-1.51V37.33c0-1-.26-1.36-1.05-1.36-.62,0-1.2.46-1.2,1.47V42.5h-1.52Z" fill="#3b4351"/><path d="M191.67,36.08h-1V35h1v-.7c0-1.41.69-1.87,1.92-1.87a6.4,6.4,0,0,1,.82,0v1.16H194c-.56,0-.81.21-.81.72V35h1.23v1.12h-1.23V42.5h-1.51Zm3.5-3.58h1.51v10h-1.51Z" fill="#3b4351"/><path d="M198.28,32.39h1.51V33.9h-1.51Zm0,2.57h1.51V42.5h-1.51Z" fill="#3b4351"/><path d="M206.4,39.75c-.11,1.81-.7,3-2.58,3-2.18,0-2.8-1.61-2.8-4s.62-4,2.8-4a2.43,2.43,0,0,1,2.59,2.7H204.9c0-.7-.18-1.62-1.08-1.58-1.08,0-1.29,1.17-1.29,2.84s.21,2.85,1.29,2.85c.84,0,1.15-.69,1.15-1.83Z" fill="#3b4351"/><path d="M206.86,35h1V32.82h1.52V35h1.23v1.12h-1.23v4.5c0,.6.17.8.68.8a2.75,2.75,0,0,0,.55,0v1.12a5.17,5.17,0,0,1-1.22.12c-1,0-1.53-.29-1.53-1.82V36.08h-1Z" fill="#3b4351"/><path d="M214.26,35h1.57l1,5.94h0L218,35h1.71l1.12,5.94h0l1-5.94h1.51l-1.72,7.54H220l-1.18-5.86h0l-1.08,5.86H216Z" fill="#3b4351"/><path d="M224.44,32.39H226V33.9h-1.51Zm0,2.57H226V42.5h-1.51Z" fill="#3b4351"/><path d="M226.81,35h1V32.82h1.52V35h1.23v1.12h-1.23v4.5c0,.6.16.8.68.8a2.75,2.75,0,0,0,.55,0v1.12a5.17,5.17,0,0,1-1.22.12c-1,0-1.53-.29-1.53-1.82V36.08h-1Z" fill="#3b4351"/><path d="M231.37,32.5h1.51v3.28l.05,0a2.15,2.15,0,0,1,1.85-1c1.14,0,1.87.52,1.87,2V42.5h-1.51V37.33c0-1-.28-1.36-1-1.36-.62,0-1.21.48-1.21,1.47V42.5h-1.51Z" fill="#3b4351"/><path d="M241.54,32.39h1.51V33.9h-1.51Zm0,2.57h1.51V42.5h-1.51Z" fill="#3b4351"/><path d="M244.57,35H246v.89h0A2.16,2.16,0,0,1,248,34.77c1.15,0,1.87.52,1.87,2V42.5h-1.51V37.33c0-1-.26-1.36-1.05-1.36-.62,0-1.2.46-1.2,1.47V42.5h-1.52Z" fill="#3b4351"/><path d="M250.68,35h1.62l1.32,5.94h0L254.84,35h1.61l-2,7.54h-1.77Z" fill="#3b4351"/><path d="M262.05,40.93c0,.28.17.53.39.53a.54.54,0,0,0,.25,0v1a1.58,1.58,0,0,1-.74.18c-.67,0-1.23-.26-1.27-1h0a2,2,0,0,1-1.88,1.11c-1.22,0-2-.66-2-2.12a2.08,2.08,0,0,1,1.75-2.37l1.18-.32c.54-.15.88-.31.88-1s-.24-1.12-1-1.12c-1,0-1.15.72-1.15,1.45H257c0-1.61.65-2.48,2.64-2.48,1.33,0,2.4.52,2.4,1.85Zm-1.43-2.41a11.23,11.23,0,0,1-1.68.7,1.23,1.23,0,0,0-.62,1.22c0,.63.31,1.14.94,1.14.91,0,1.36-.68,1.36-1.8Z" fill="#3b4351"/><path d="M267.44,41.58h0a1.61,1.61,0,0,1-1.65,1.12c-1.75,0-2.47-1.49-2.47-4.07,0-3.34,1.18-3.86,2.33-3.86a1.74,1.74,0,0,1,1.71,1.08h0V32.5h1.52v10h-1.43ZM266.06,36c-.85,0-1.17.7-1.17,2.73,0,1.71.21,2.79,1.27,2.79s1.28-1.05,1.28-2.67C267.44,37,267.24,36,266.06,36Z" fill="#3b4351"/><path d="M270.39,32.39h1.51V33.9h-1.51Zm0,2.57h1.51V42.5h-1.51Z" fill="#3b4351"/><path d="M273.43,35h1.43v.89h0a2.15,2.15,0,0,1,1.93-1.08c1.15,0,1.88.52,1.88,2V42.5h-1.52V37.33c0-1-.26-1.36-1.05-1.36-.61,0-1.2.46-1.2,1.47V42.5h-1.51Z" fill="#3b4351"/><path d="M281.67,43.14a1,1,0,0,0,1.1.9A1.24,1.24,0,0,0,284,42.63V41.41h0a1.81,1.81,0,0,1-1.71,1c-1.75,0-2.25-1.72-2.25-3.79,0-1.65.25-3.88,2.39-3.88a1.66,1.66,0,0,1,1.66,1.12h0V35h1.43v7.18c0,1.83-.78,2.94-2.81,2.94-2.24,0-2.5-1.32-2.5-1.94Zm1.07-1.9c1.17,0,1.3-1.49,1.3-2.68s-.15-2.59-1.2-2.59-1.28,1.12-1.28,2.52S281.62,41.24,282.74,41.24Z" fill="#3b4351"/><path d="M295.3,41.34h0a2.08,2.08,0,0,1-2.19,1.36c-2.18,0-3-1.63-3-5.2s1-5.2,3.32-5.2a2.73,2.73,0,0,1,2.93,2.89v.18h-1.51v-.24c0-.74-.31-1.62-1.4-1.62s-1.74.75-1.74,4,.53,4,1.61,4,1.67-.87,1.67-3.05h-1.68V37.23h3.19V42.5h-1.2Z" fill="#3b4351"/><path d="M297.77,35h1.52v1.18h0a1.87,1.87,0,0,1,1.75-1.37.94.94,0,0,1,.37,0v1.54a2.24,2.24,0,0,0-.63-.08c-.69,0-1.51.31-1.51,1.71V42.5h-1.52Z" fill="#3b4351"/><path d="M303.4,38.93v.43c0,1,.13,2.3,1.26,2.3s1.21-1.22,1.21-1.68h1.42a2.48,2.48,0,0,1-2.64,2.72c-1.24,0-2.76-.37-2.76-3.86,0-2,.43-4.07,2.79-4.07,2.1,0,2.66,1.27,2.66,3.36v.8Zm2.42-1v-.4c0-1-.3-1.69-1.16-1.69s-1.26,1-1.26,1.94v.15Z" fill="#3b4351"/><path d="M309.88,38.93v.43c0,1,.13,2.3,1.26,2.3s1.21-1.22,1.21-1.68h1.43a2.48,2.48,0,0,1-2.65,2.72c-1.23,0-2.76-.37-2.76-3.86,0-2,.43-4.07,2.79-4.07,2.1,0,2.66,1.27,2.66,3.36v.8Zm2.43-1v-.4c0-1-.31-1.69-1.17-1.69s-1.26,1-1.26,1.94v.15Z" fill="#3b4351"/><path d="M315.06,32.5h1.51v5.62h0L318.89,35h1.75l-2.27,2.91,2.56,4.64h-1.65l-1.85-3.43-.86,1v2.4h-1.51Z" fill="#3b4351"/><path d="M324.79,37.16V37c0-.61-.21-1.17-1-1.17-.6,0-1.08.27-1.08,1s.27.82,1.07,1.1l1,.34a2,2,0,0,1,1.64,2.17c0,1.61-1.19,2.3-2.7,2.3-1.91,0-2.48-.89-2.48-2.34v-.28h1.34v.23c0,.89.3,1.35,1.18,1.35s1.23-.42,1.23-1.11a1.09,1.09,0,0,0-.82-1.1L322.9,39a2,2,0,0,1-1.61-2.17c0-1.41,1-2.07,2.58-2.07,1.92,0,2.35,1.12,2.35,2.06v.33Z" fill="#3b4351"/><path d="M201.33,69.93c0,.28.17.53.39.53a.59.59,0,0,0,.26,0v1a1.63,1.63,0,0,1-.75.18c-.67,0-1.23-.26-1.27-1h0a2,2,0,0,1-1.88,1.11c-1.22,0-2-.66-2-2.12a2.08,2.08,0,0,1,1.75-2.37l1.18-.32c.55-.15.88-.31.88-1s-.24-1.12-1-1.12c-1,0-1.15.72-1.15,1.45h-1.43c0-1.61.66-2.48,2.65-2.48,1.33,0,2.39.52,2.39,1.85Zm-1.43-2.41a11.23,11.23,0,0,1-1.68.7,1.24,1.24,0,0,0-.61,1.22c0,.63.3,1.14.93,1.14.91,0,1.36-.68,1.36-1.8Z" fill="#3b4351"/><path d="M202.87,64h1.43v.89h0a2.15,2.15,0,0,1,1.93-1.08c1.15,0,1.88.52,1.88,2V71.5h-1.51V66.33c0-1-.27-1.36-1-1.36-.62,0-1.21.46-1.21,1.47V71.5h-1.51Z" fill="#3b4351"/><path d="M213.45,70.58h0a1.62,1.62,0,0,1-1.66,1.12c-1.75,0-2.46-1.49-2.46-4.07,0-3.34,1.17-3.86,2.32-3.86a1.73,1.73,0,0,1,1.71,1.08h0V61.5h1.51v10h-1.43ZM212.08,65c-.85,0-1.17.7-1.17,2.73,0,1.71.21,2.79,1.27,2.79s1.27-1,1.27-2.67C213.45,66,213.26,65,212.08,65Z" fill="#3b4351"/><path d="M220.16,65.08h-1V64h1v-.7c0-1.41.68-1.87,1.92-1.87a6.4,6.4,0,0,1,.82,0v1.16h-.42c-.56,0-.81.21-.81.72V64h1.23v1.12h-1.23V71.5h-1.51Z" fill="#3b4351"/><path d="M228.53,69.93c0,.28.17.53.4.53a.57.57,0,0,0,.25,0v1a1.59,1.59,0,0,1-.75.18c-.67,0-1.23-.26-1.27-1h0a1.94,1.94,0,0,1-1.87,1.11c-1.22,0-2-.66-2-2.12A2.09,2.09,0,0,1,225,67.21l1.18-.32c.55-.15.88-.31.88-1s-.23-1.12-1-1.12c-1,0-1.15.72-1.15,1.45h-1.43c0-1.61.66-2.48,2.65-2.48,1.33,0,2.39.52,2.39,1.85Zm-1.43-2.41a10.81,10.81,0,0,1-1.68.7,1.24,1.24,0,0,0-.61,1.22c0,.63.31,1.14.94,1.14.91,0,1.35-.68,1.35-1.8Z" fill="#3b4351"/><path d="M230.14,61.5h1.51v10h-1.51Z" fill="#3b4351"/><path d="M233.25,61.5h1.51v10h-1.51Z" fill="#3b4351"/><path d="M239.35,67.73c0-2.35.62-4,2.8-4s2.82,1.61,2.82,4-.73,4-2.82,4S239.35,70.09,239.35,67.73Zm2.8,2.85c1.11,0,1.31-.93,1.31-2.85,0-1.67-.2-2.84-1.31-2.84s-1.29,1.17-1.29,2.84C240.86,69.65,241.07,70.58,242.15,70.58Z" fill="#3b4351"/><path d="M246.59,65.08h-1.05V64h1.05v-.7c0-1.41.69-1.87,1.92-1.87a6.4,6.4,0,0,1,.82,0v1.16h-.42c-.56,0-.81.21-.81.72V64h1.23v1.12H248.1V71.5h-1.51Z" fill="#3b4351"/><path d="M259.63,67.91v.21c0,1.81-.75,3.58-3.09,3.58-2.52,0-3.3-1.63-3.3-5.2s.78-5.2,3.32-5.2c2.84,0,3,2.09,3,3.14v.18H258v-.17c0-.93-.28-2-1.43-1.94s-1.7.73-1.7,3.95.51,4,1.7,4c1.35,0,1.49-1.47,1.49-2.41v-.17Z" fill="#3b4351"/><path d="M260.65,64h1.42v.89h.05a2.13,2.13,0,0,1,1.93-1.08c1.15,0,1.88.52,1.88,2V71.5h-1.52V66.33c0-1-.26-1.36-1.05-1.36-.61,0-1.2.46-1.2,1.47V71.5h-1.51Z" fill="#3b4351"/><path d="M267.08,67.73c0-2.35.62-4,2.81-4s2.81,1.61,2.81,4-.73,4-2.81,4S267.08,70.09,267.08,67.73Zm2.81,2.85c1.1,0,1.3-.93,1.3-2.85,0-1.67-.2-2.84-1.3-2.84s-1.29,1.17-1.29,2.84C268.6,69.65,268.81,70.58,269.89,70.58Z" fill="#3b4351"/><path d="M277.11,66.16V66c0-.61-.21-1.17-1-1.17-.61,0-1.08.27-1.08,1s.26.82,1.06,1.1l1,.34a2,2,0,0,1,1.64,2.17c0,1.61-1.19,2.3-2.71,2.3-1.9,0-2.48-.89-2.48-2.34v-.28h1.35v.23c0,.89.29,1.35,1.18,1.35s1.23-.42,1.23-1.11a1.09,1.09,0,0,0-.83-1.1L275.22,68a2,2,0,0,1-1.61-2.17c0-1.41,1-2.07,2.58-2.07,1.92,0,2.35,1.12,2.35,2.06v.33Z" fill="#3b4351"/><path d="M283.07,66.16V66c0-.61-.21-1.17-1-1.17-.6,0-1.08.27-1.08,1s.27.82,1.07,1.1l1,.34a2,2,0,0,1,1.64,2.17c0,1.61-1.19,2.3-2.7,2.3-1.91,0-2.48-.89-2.48-2.34v-.28h1.34v.23c0,.89.3,1.35,1.18,1.35s1.23-.42,1.23-1.11a1.09,1.09,0,0,0-.82-1.1L281.18,68a2,2,0,0,1-1.61-2.17c0-1.41,1-2.07,2.58-2.07,1.92,0,2.35,1.12,2.35,2.06v.33Z" fill="#3b4351"/><path d="M289.64,70.62h0a2.17,2.17,0,0,1-1.93,1.08c-1.12,0-1.88-.52-1.88-2.47V64h1.51v5.41c0,.84.37,1.12,1,1.12a1.18,1.18,0,0,0,1.24-1.26V64h1.51V71.5h-1.43Z" fill="#3b4351"/><path d="M295.77,66.16V66c0-.61-.21-1.17-1-1.17-.6,0-1.08.27-1.08,1s.27.82,1.06,1.1l1,.34a2,2,0,0,1,1.64,2.17c0,1.61-1.19,2.3-2.7,2.3-1.91,0-2.48-.89-2.48-2.34v-.28h1.34v.23c0,.89.3,1.35,1.18,1.35s1.23-.42,1.23-1.11a1.09,1.09,0,0,0-.83-1.1L293.88,68a2,2,0,0,1-1.61-2.17c0-1.41,1-2.07,2.58-2.07,1.92,0,2.35,1.12,2.35,2.06v.33Z" fill="#3b4351"/><path d="M298.64,69.65h1.6V71.5h-1.6Z" fill="#3b4351"/><path d="M186.59,90.5h1.94l2.9,7.45h0V90.5H193v10H191l-2.9-7.65h0v7.65h-1.51Z" fill="#3b4351"/><path d="M195.83,96.93v.43c0,1,.12,2.3,1.26,2.3s1.2-1.22,1.2-1.68h1.43a2.48,2.48,0,0,1-2.65,2.72c-1.23,0-2.76-.37-2.76-3.86,0-2,.44-4.07,2.79-4.07,2.1,0,2.66,1.27,2.66,3.36v.8Zm2.42-1v-.4c0-1-.31-1.69-1.16-1.69s-1.26,1-1.26,1.94v.15Z" fill="#3b4351"/><path d="M200.49,93h1.57l1.05,5.94h0L204.26,93H206l1.13,5.94h0l1-5.94h1.51l-1.72,7.54h-1.69l-1.18-5.86h0L204,100.5H202.2Z" fill="#3b4351"/><path d="M219,97.75c-.11,1.81-.7,3-2.58,3-2.18,0-2.8-1.61-2.8-4s.62-4,2.8-4a2.44,2.44,0,0,1,2.6,2.7h-1.52c0-.7-.18-1.62-1.08-1.58-1.07,0-1.28,1.17-1.28,2.84s.21,2.85,1.28,2.85c.84,0,1.15-.69,1.15-1.83Z" fill="#3b4351"/><path d="M224,99.62h0a2.17,2.17,0,0,1-1.93,1.08c-1.12,0-1.88-.52-1.88-2.47V93h1.51v5.41c0,.84.37,1.12,1,1.12a1.17,1.17,0,0,0,1.23-1.26V93h1.51v7.54H224Z" fill="#3b4351"/><path d="M227,90.5h1.51v10H227Z" fill="#3b4351"/><path d="M229.34,93h1V90.82h1.51V93h1.23v1.12h-1.23v4.5c0,.6.17.8.69.8a2.7,2.7,0,0,0,.54,0v1.12a5.17,5.17,0,0,1-1.22.12c-1,0-1.52-.29-1.52-1.82V94.08h-1Z" fill="#3b4351"/><path d="M237.76,99.62h0a2.18,2.18,0,0,1-1.94,1.08c-1.12,0-1.87-.52-1.87-2.47V93h1.51v5.41c0,.84.36,1.12,1,1.12a1.17,1.17,0,0,0,1.23-1.26V93h1.52v7.54h-1.43Z" fill="#3b4351"/><path d="M240.64,93h1.51v1.18h0a1.87,1.87,0,0,1,1.75-1.37.94.94,0,0,1,.37,0v1.54a2.32,2.32,0,0,0-.64-.08c-.68,0-1.51.31-1.51,1.71v4.51h-1.51Z" fill="#3b4351"/><path d="M249.91,98.93c0,.28.17.53.39.53a.54.54,0,0,0,.25,0v1a1.55,1.55,0,0,1-.74.18c-.67,0-1.23-.26-1.27-1h0a2,2,0,0,1-1.88,1.11c-1.22,0-2-.66-2-2.12a2.08,2.08,0,0,1,1.75-2.37l1.18-.32c.54-.15.88-.31.88-1s-.24-1.12-1-1.12c-1,0-1.14.72-1.14,1.45h-1.43c0-1.61.66-2.48,2.64-2.48,1.34,0,2.4.52,2.4,1.85Zm-1.43-2.41a11.23,11.23,0,0,1-1.68.7,1.25,1.25,0,0,0-.62,1.22c0,.63.31,1.14.94,1.14.91,0,1.36-.68,1.36-1.8Z" fill="#3b4351"/><path d="M251.52,90.5H253v10h-1.51Z" fill="#3b4351"/><path d="M263,97.75c-.11,1.81-.7,3-2.58,3-2.18,0-2.8-1.61-2.8-4s.62-4,2.8-4a2.43,2.43,0,0,1,2.59,2.7H261.5c0-.7-.18-1.62-1.08-1.58-1.08,0-1.29,1.17-1.29,2.84s.21,2.85,1.29,2.85c.84,0,1.15-.69,1.15-1.83Z" fill="#3b4351"/><path d="M265.43,96.93v.43c0,1,.13,2.3,1.26,2.3s1.21-1.22,1.21-1.68h1.43a2.48,2.48,0,0,1-2.65,2.72c-1.23,0-2.76-.37-2.76-3.86,0-2,.43-4.07,2.79-4.07,2.1,0,2.66,1.27,2.66,3.36v.8Zm2.43-1v-.4c0-1-.31-1.69-1.17-1.69s-1.26,1-1.26,1.94v.15Z" fill="#3b4351"/><path d="M270.61,93H272v.89h0A2.16,2.16,0,0,1,274,92.77c1.14,0,1.87.52,1.87,2v5.69h-1.51V95.33c0-1-.27-1.36-1.05-1.36-.62,0-1.2.46-1.2,1.47v5.06h-1.52Z" fill="#3b4351"/><path d="M276.67,93h1V90.82h1.51V93h1.24v1.12h-1.24v4.5c0,.6.17.8.69.8a2.81,2.81,0,0,0,.55,0v1.12a5.23,5.23,0,0,1-1.22.12c-1,0-1.53-.29-1.53-1.82V94.08h-1Z" fill="#3b4351"/><path d="M281.24,93h1.51v1.18h0a1.87,1.87,0,0,1,1.75-1.37.89.89,0,0,1,.36,0v1.54a2.18,2.18,0,0,0-.63-.08c-.68,0-1.51.31-1.51,1.71v4.51h-1.51Z" fill="#3b4351"/><path d="M286.87,96.93v.43c0,1,.12,2.3,1.26,2.3s1.2-1.22,1.2-1.68h1.43a2.48,2.48,0,0,1-2.65,2.72c-1.23,0-2.76-.37-2.76-3.86,0-2,.44-4.07,2.79-4.07,2.1,0,2.66,1.27,2.66,3.36v.8Zm2.42-1v-.4c0-1-.31-1.69-1.16-1.69s-1.26,1-1.26,1.94v.15Z" fill="#3b4351"/><path d="M295.3,95.16V95c0-.61-.21-1.17-1-1.17-.6,0-1.08.27-1.08,1s.27.82,1.07,1.1l1,.34a2,2,0,0,1,1.64,2.17c0,1.61-1.19,2.3-2.7,2.3-1.91,0-2.48-.89-2.48-2.34v-.28h1.34v.23c0,.89.3,1.35,1.18,1.35s1.23-.42,1.23-1.11a1.09,1.09,0,0,0-.82-1.1L293.4,97a2,2,0,0,1-1.61-2.17c0-1.41,1-2.07,2.58-2.07,1.92,0,2.35,1.12,2.35,2.06v.33Z" fill="#3b4351"/><path d="M306.31,98.93c0,.28.17.53.4.53a.57.57,0,0,0,.25,0v1a1.58,1.58,0,0,1-.74.18c-.68,0-1.24-.26-1.28-1h0A1.94,1.94,0,0,1,303,100.7c-1.22,0-2-.66-2-2.12a2.08,2.08,0,0,1,1.75-2.37l1.17-.32c.55-.15.89-.31.89-1s-.24-1.12-1-1.12c-1,0-1.15.72-1.15,1.45h-1.43c0-1.61.66-2.48,2.65-2.48,1.33,0,2.39.52,2.39,1.85Zm-1.42-2.41a10.92,10.92,0,0,1-1.69.7,1.24,1.24,0,0,0-.61,1.22c0,.63.31,1.14.94,1.14.91,0,1.36-.68,1.36-1.8Z" fill="#3b4351"/><path d="M307.18,93h1V90.82h1.51V93H311v1.12h-1.23v4.5c0,.6.17.8.69.8a2.7,2.7,0,0,0,.54,0v1.12a5.17,5.17,0,0,1-1.22.12c-1,0-1.52-.29-1.52-1.82V94.08h-1Z" fill="#3b4351"/></g></g></g></g></svg>