<svg xmlns="http://www.w3.org/2000/svg" viewBox="0 0 1847.91 112"><title>bc1500text</title><g id="YEARS"><g id="Right"><path d="M1784,62h6c2.79,0,5,1.25,5,4.5,0,2.23-.91,3.64-2.73,4.21v0c2,.36,3.32,1.59,3.32,4.73s-2.23,5.07-5.72,5.07H1784Zm5.3,7.82c1.8,0,2.73-1.17,2.73-2.93,0-2.21-1.32-2.66-3-2.66H1787v5.59Zm.6,8.51c1.77,0,2.73-1.12,2.73-3.28a2.82,2.82,0,0,0-2.91-3.15H1787v6.43Z" fill="#3b4351"/><path d="M1797.31,77.14h3v3.43h-3Z" fill="#3b4351"/><path d="M1835.34,73.92v.39c0,3.35-1.37,6.63-5.72,6.63-4.68,0-6.13-3-6.13-9.65s1.45-9.65,6.16-9.65c5.28,0,5.59,3.88,5.59,5.83v.34h-3v-.32c0-1.74-.52-3.69-2.66-3.61s-3.17,1.35-3.17,7.33,1,7.49,3.17,7.49c2.5,0,2.76-2.73,2.76-4.47v-.31Z" fill="#3b4351"/><path d="M1837.06,77.14h3v3.43h-3Z" fill="#3b4351"/><path d="M1792.5,105.57V92.21h-3.82V90.28h.28c1.77,0,3.8-.44,4.35-2.75v-.37h2.15v18.41Z" fill="#3b4351"/><path d="M1800.43,100.61h2.81v.49a2.35,2.35,0,0,0,2.41,2.6c2.08,0,2.63-2,2.63-4.19s-.57-3.92-2.47-3.92a2.35,2.35,0,0,0-2.42,1.69l-2.62-.11.91-9.64h8.86v2.36h-6.65l-.6,4.84,0,0a4.06,4.06,0,0,1,3.09-1.43c3.85,0,4.81,3.25,4.81,6.09,0,3.69-1.69,6.5-5.66,6.5-3.31,0-5.15-1.69-5.15-4.94Z" fill="#3b4351"/><path d="M1818.32,87.16c3.53,0,5.51,2.21,5.51,9.39s-2,9.39-5.51,9.39-5.52-2.21-5.52-9.39S1814.78,87.16,1818.32,87.16Zm0,16.7c2,0,2.54-2,2.54-7.31s-.54-7.31-2.54-7.31-2.55,2-2.55,7.31S1816.31,103.86,1818.32,103.86Z" fill="#3b4351"/><path d="M1830.8,87.16c3.53,0,5.51,2.21,5.51,9.39s-2,9.39-5.51,9.39-5.52-2.21-5.52-9.39S1827.26,87.16,1830.8,87.16Zm0,16.7c2,0,2.54-2,2.54-7.31s-.54-7.31-2.54-7.31-2.55,2-2.55,7.31S1828.79,103.86,1830.8,103.86Z" fill="#3b4351"/></g><g id="left"><path d="M9,63.92h6c2.78,0,5,1.24,5,4.49q0,3.36-2.73,4.21v.06c2,.36,3.33,1.58,3.33,4.73s-2.24,5.07-5.72,5.07H9Zm5.31,7.82c1.79,0,2.73-1.17,2.73-2.94,0-2.21-1.33-2.65-3-2.65H12v5.59Zm.6,8.5c1.76,0,2.72-1.12,2.72-3.27s-1.17-3.15-2.91-3.15H12v6.42Z" fill="#3b4351"/><path d="M22.28,79.05h3v3.43h-3Z" fill="#3b4351"/><path d="M60.31,75.82v.39c0,3.36-1.38,6.63-5.72,6.63-4.68,0-6.14-3-6.14-9.64s1.46-9.65,6.17-9.65c5.27,0,5.59,3.87,5.59,5.82v.34h-3V69.4c0-1.74-.52-3.69-2.65-3.61s-3.17,1.35-3.17,7.33,1,7.49,3.17,7.49c2.5,0,2.76-2.73,2.76-4.48v-.31Z" fill="#3b4351"/><path d="M62,79.05h3v3.43H62Z" fill="#3b4351"/><path d="M17.46,107.48V94.12H13.64V92.19h.29c1.77,0,3.79-.44,4.34-2.76v-.36h2.16v18.41Z" fill="#3b4351"/><path d="M25.39,102.51H28.2v.5a2.36,2.36,0,0,0,2.42,2.6c2.08,0,2.63-2,2.63-4.19s-.58-3.92-2.47-3.92a2.35,2.35,0,0,0-2.42,1.68l-2.63-.1.91-9.65h8.87V91.8H28.85l-.6,4.84.06,0a4,4,0,0,1,3.09-1.43c3.85,0,4.81,3.25,4.81,6.08,0,3.7-1.69,6.5-5.67,6.5-3.3,0-5.15-1.69-5.15-4.94Z" fill="#3b4351"/><path d="M43.28,89.07c3.54,0,5.51,2.21,5.51,9.39s-2,9.38-5.51,9.38-5.51-2.21-5.51-9.38S39.75,89.07,43.28,89.07Zm0,16.69c2,0,2.55-2,2.55-7.3s-.55-7.31-2.55-7.31-2.55,2-2.55,7.31S41.28,105.76,43.28,105.76Z" fill="#3b4351"/><path d="M55.76,89.07c3.54,0,5.51,2.21,5.51,9.39s-2,9.38-5.51,9.38-5.51-2.21-5.51-9.38S52.22,89.07,55.76,89.07Zm0,16.69c2,0,2.55-2,2.55-7.3s-.55-7.31-2.55-7.31-2.55,2-2.55,7.31S53.76,105.76,55.76,105.76Z" fill="#3b4351"/></g></g><g id="Nation_OUtlines" data-name="Nation OUtlines"><polygon id="Iranians" points="1263.29 1350.17 1235.95 1236 1211.95 1121.5 1241.29 1011.5 1280.62 899 1217.95 784.17 1163.29 674.84 1140.62 561.5 1175.95 451 1153.29 336.17 1137.95 222.84 1188.62 111.5 1153.95 -1.16 1161.95 -114 1156.67 -229.27 1152.84 -346.5 1131.29 -453 1198.62 -563.5 1275.29 -675.5 1277.29 -789.16 1268.62 -898.83 1283.88 -1010.83 1411.11 -1010.83 1445.69 -899.27 1480.18 -788.6 1462.18 -675.5 1438.19 -563.5 1387.19 -453 1387.19 -341 1420.19 -226.07 1429.19 -114 1400.69 -1.08 1417.19 112 1343.69 223 1325.69 337 1345.19 451 1313.69 563 1298.69 675 1310.69 785 1348.19 899 1313.69 1012 1285.19 1123 1294.19 1236 1372.19 1350.17 1373.74 1458.73 1375.34 1570.73 1376.98 1686 1335.62 1796 1348.62 1908 1391.1 2020 1462.62 2131 1440.62 2243.73 1447.62 2360 1472.62 2472 1505.62 2583.73 1513.62 2693.73 1437.62 2805.73 1391.82 2920.73 1219.62 2806 1086.62 2694 890.71 2583.73 788.62 2472 767.62 2360 866.62 2244 1041.62 2130.73 1176.62 2019.73 1205.62 1907.73 1242.62 1795.73 1294.62 1686 1322.62 1573.17 1240.62 1459 1263.29 1350.17" fill="none" stroke="#3b4351" stroke-miterlimit="10"/><polygon id="Indians" points="1372.19 1350.17 1294.19 1236 1285.19 1123 1313.69 1012 1348.19 899 1310.69 785 1298.69 675 1313.69 563 1345.19 451 1325.69 337 1343.69 223 1417.19 112 1400.69 -1.08 1429.19 -114 1419.27 -229.27 1387.19 -341 1387.19 -453 1438.19 -563.5 1462.18 -675.5 1480.18 -788.54 1445.82 -898.83 1411.11 -1010.83 1545.86 -1010.83 1580.1 -898.83 1593.12 -788.6 1552.12 -675.5 1514.62 -563.5 1514.12 -453.33 1553.12 -341.27 1548.12 -229 1519.62 -114 1534.12 -0.33 1575.12 112 1559.62 223 1564.12 336.73 1534.62 451 1486.12 563 1465.12 675 1471.12 784.17 1502.12 898.17 1508.12 1012 1534.62 1123 1542.77 1201.86 1555.62 1350.17 1554.62 1459 1567.12 1571 1542.12 1685.73 1498.12 1796 1490.62 1908 1513.12 2020 1568.62 2131 1544.12 2244 1530.62 2359.73 1523.62 2471.73 1532.62 2584 1565.12 2694 1543.62 2806 1514.12 2921 1490.12 3030.73 1495.62 3145 1517.12 3258.67 1528.12 3364 1580.62 3476.67 1578.12 3592.67 1578.12 3703.17 1560.12 3814.73 1526.62 3930 1467.62 4044 1381.62 4155.73 1270.62 4266 1090.12 4378.73 860.62 4487 1302.12 4602 1377.03 4714 1550.62 4827 1519.62 4936.83 1476.12 5049.83 1516.13 5163.83 1534.62 5276.17 1552.65 5386.83 1585.62 5500.73 1620.12 5615.83 1650.12 5726.83 1630.62 5834.73 1622.45 5951.73 1565.62 6062.83 1402.62 6176.17 1173.62 6288.83 1148.62 6399.83 1334.62 6514.83 1283.62 6628.83 1344.62 6737.83 1544.62 6850.83 1602.62 6965.17 1627.62 7076.83 1674.62 7189.73 1627.62 7304.83 1634.62 7416.83 1686.62 7528.83 1701.62 7641.83 1620.12 7753.83 1606.12 7864.83 1606.12 7978.66 1552.62 7978.66 1549.52 7864.83 1569.62 7753.83 1683.62 7641.83 1667.62 7528.83 1607.62 7416.83 1596.62 7304.17 1617.62 7189.83 1584.62 7076.83 1562.62 6964.83 1507.62 6850.83 1304.62 6737.73 1225.62 6628.73 1236.97 6591.78 1264.87 6514.83 1082.62 6399.83 1084.2 6289.34 1323.62 6176.83 1500.47 6062.73 1573.62 5951.83 1600.62 5834.83 1604.62 5726.83 1569.62 5615.83 1514.62 5500.83 1447.62 5386.73 1418.62 5274.83 1404.62 5163.83 1367.62 5049.83 1397.62 4936.83 1418.62 4826.73 1339.62 4713.73 1246.62 4602 748.62 4487 753.62 4379 910.76 4266 1053.62 4156 1195.2 4044 1311.62 3929.17 1353.62 3815 1348.62 3704 1364.62 3592.17 1406.62 3477 1401.62 3364 1429.62 3259 1394.62 3144.73 1393.2 3031 1391.82 2920.73 1437.52 2806 1513.62 2693.73 1505.64 2584 1472.62 2472.17 1447.62 2360 1440.63 2244 1462.62 2131 1391.1 2020 1348.62 1908 1332.62 1796 1376.98 1686 1375.34 1570.73 1373.74 1458.73 1372.19 1350.17" fill="none" stroke="#3b4351" stroke-miterlimit="10"/><polygon id="Huns" points="1555.62 1350.17 1545.73 1236 1533.62 1122.67 1506.68 1012.64 1502.16 899 1471.34 785 1465.12 675 1486.12 563 1534.62 451 1564.05 337 1559.62 223 1575.12 112 1534.24 0 1519.62 -114 1548.12 -229 1553.11 -341 1514.47 -453.27 1514.62 -565.5 1552.12 -675.5 1593.12 -788.16 1580.1 -898.83 1545.86 -1010.83 1633.99 -1010.83 1651.62 -898.83 1667.62 -788.16 1646.62 -675.5 1620.62 -563.5 1630.4 -455.4 1650.62 -341.33 1676.62 -229 1700.12 -114 1689.12 0 1714.62 111.67 1697.12 222.73 1645.62 336.73 1616.12 451 1586.62 562.73 1538.12 674.73 1509.12 785 1551.62 899 1585.12 1012 1608.62 1122.67 1609.69 1235.73 1610.76 1348.73 1613.62 1458.73 1625.12 1570.73 1599.12 1686.67 1557.59 1796 1545.65 1908 1558.62 2020 1584.62 2130.73 1571.12 2244.17 1576.62 2360 1567.62 2472 1587.12 2584 1621.12 2694 1612.12 2806 1556.12 2921 1528.62 3031 1529.62 3145 1553.62 3259 1616.07 3364 1609.25 3477 1592.66 3593 1611.01 3703.73 1612.12 3815 1598.04 3930 1564.12 4044 1534.29 4156 1602.12 4265.73 1653.62 4379 1673.62 4487 1666.12 4602 1668.12 4713.67 1625.62 4826.67 1542.12 4936.83 1476.12 5049.83 1519.62 4936.83 1550.62 4827 1376.62 4713.73 1302.12 4602 860.62 4487 1090.12 4378.73 1270.62 4266 1381.62 4155.73 1467.62 4044 1526.62 3930 1560.12 3814.73 1578.12 3703.17 1578.12 3592.67 1580.62 3476.67 1528.12 3364 1517.12 3258.67 1495.62 3145 1490.12 3030.73 1514.12 2921 1543.62 2806 1565.12 2694 1532.62 2584 1523.62 2471.73 1530.62 2359.73 1544.12 2244 1568.62 2131 1513.12 2020 1490.62 1908 1498.12 1796 1542.12 1685.73 1567.12 1571 1554.62 1459 1555.62 1350.17" fill="none" stroke="#3b4351" stroke-miterlimit="10"/><polygon id="Hitites" points="347.74 1348.73 337.24 1236 361.62 1123 400.62 1012 439.62 899 658.62 785 742.62 675 835.62 563 785.62 451 750.62 337 770.62 223 800.62 111.17 733.62 -0.27 656.62 -114.08 662.62 -229 633.62 -341 663.62 -453 786.62 -563.5 940.62 -675.5 982.62 -788.16 1042.62 -898.83 1103.77 -1010.83 1152.07 -1010.83 1091.29 -898.83 1025.29 -788.16 1027.29 -675.5 910.76 -563.5 823.95 -453 785.95 -341 826.62 -229 853.28 -114 910.76 -0.27 992.62 112 961.95 222.17 971.95 336.84 969.28 451 975.28 562.84 954.62 672.84 857.28 785 623.95 899 566.62 1012 481.23 1123 394.24 1236 347.74 1348.73" fill="none" stroke="#3b4351" stroke-miterlimit="10"/><polygon id="Egyptians" points="1195.2 3474.31 1131.14 3364 1168.66 3259.09 1099.2 3144.73 910.76 3030.73 897.95 2920.17 965.95 2806 965.28 2693.5 761.95 2584 645.95 2472 527.28 2360 401.29 2244 349.95 2131 319.29 2020 259.95 1908 262.62 1796 238.62 1686 217.95 1571 199.95 1459 228.62 1349 221.62 1236 250.62 1123 251.62 1012 223.25 899 271.57 785 265.25 675 305.74 563 341.74 451 376.24 337 440.74 223 467.73 112.91 443.74 0 381.96 -114 242.75 -229 298.62 -341 424.24 -453 460.24 -563.5 397.24 -675.5 319.24 -788.16 319.24 -898.83 298.62 -1010.83 1103.77 -1010.83 1042.62 -898.83 982.62 -788.16 940.62 -675.5 786.62 -563.5 663.62 -453 633.62 -341 662.62 -229 656.62 -114.08 733.62 -0.27 800.62 111.17 770.62 223 750.62 337 785.62 451 835.62 563 742.62 675 658.62 785 439.62 899 400.62 1012 361.62 1123 302.62 1236 310.62 1349 282.62 1459 271.95 1571 305.95 1796 323.95 1907.5 432.62 2020 476.62 2130.17 451.95 2244 555.95 2360 667.28 2472 813.28 2584 968.62 2694 995.95 2806 968.62 2920.84 940.62 3029.5 1130.91 3144.73 1189.62 3259.67 1157.7 3364 1195.2 3474.31" fill="none" stroke="#3b4351" stroke-miterlimit="10"/><polygon id="Chinese" points="1610.76 1348.73 1609.69 1235.73 1608.62 1122.67 1585.12 1012 1551.62 899 1509.12 785 1538.12 674.73 1586.62 562.73 1616.12 451 1645.62 336.73 1697.12 222.73 1714.62 111.67 1689.12 0 1700.12 -114 1676.62 -229 1650.62 -341.33 1630.62 -453 1620.62 -563.5 1646.62 -675.5 1667.62 -788.16 1651.62 -898.83 1633.99 -1010.83 1768.79 -1010.83 1768.79 7189.83 1768.79 7304.73 1766.12 7416.83 1757.62 7528.83 1736.12 7641.73 1676.12 7753.73 1661.12 7864.83 1663.62 7978.66 1606.12 7978.66 1606.12 7864.73 1620.12 7753.83 1701.62 7641.83 1696.12 7528.67 1654.12 7416.83 1681.62 7304.83 1739.62 7189.73 1748.62 7076.67 1744.12 6964.67 1685.62 6850.83 1615.12 6740.17 1636.12 6628.83 1738.62 6514.83 1761.12 6399.83 1758.62 6288.83 1732.12 6176.83 1695.62 6062.83 1667.62 5951.83 1651.12 5834.83 1650.12 5726.83 1620.12 5615.83 1585.62 5500.73 1552.62 5386.73 1535.12 5274.83 1516.12 5163.73 1476.12 5049.83 1542.12 4936.83 1625.62 4826.67 1668.12 4713.67 1666.12 4602 1673.62 4487 1653.62 4379 1602.12 4265.73 1534.12 4155.73 1564.12 4044 1598.12 3929.73 1612.12 3815 1611.01 3703.73 1592.62 3592.73 1609.25 3477 1616.07 3364 1553.62 3259 1529.62 3145 1528.62 3030.73 1555.62 2921 1612.12 2806 1621.12 2694 1587.12 2584 1567.62 2472 1576.62 2360 1571.12 2244 1584.62 2130.73 1558.62 2020 1545.62 1907.73 1557.62 1795.73 1599.62 1686 1625.12 1570.73 1613.62 1458.73 1610.76 1348.73" fill="none" stroke="#3b4351" stroke-miterlimit="10"/><polygon id="Amorites" points="1263.29 1350.17 1240.62 1459 1322.62 1571 1294.62 1686 1242.62 1795.73 1205.62 1907.73 1176.62 2019.73 1041.62 2130.73 866.62 2244 767.62 2360 788.62 2472 890.71 2583.73 762.62 2471.73 716.62 2359.73 709.62 2244 755.62 2131 1054.29 2019.73 1156.62 1908 1173.62 1794.17 1199.62 1684.17 1138.62 1571 910.76 1459 832.62 1348.73 949.95 1236 1040.62 1122.73 1141.31 1012 1225.29 898.84 1147.62 785 1085.29 675 1061.29 562.73 1028.62 450.73 971.95 336.84 961.95 222.17 992.62 112 910.76 -0.27 853.28 -114 826.62 -229 785.95 -341 823.95 -453 910.76 -563.5 1027.29 -675.5 1025.29 -788.16 1091.29 -898.83 1152.07 -1010.83 1283.88 -1010.83 1268.62 -898.83 1277.29 -789.16 1275.29 -675.5 1198.62 -563.5 1131.29 -453 1153.95 -341 1156.67 -229.27 1161.95 -114 1153.95 -1.16 1188.62 111.5 1137.95 222.84 1153.29 336.17 1175.95 451 1140.62 561.5 1163.29 674.84 1217.95 784.17 1280.62 899 1241.29 1011.5 1211.95 1121.5 1235.95 1236 1263.29 1350.17" fill="none" stroke="#3b4351" stroke-miterlimit="10"/><polygon id="Aegeans" points="223.25 899 202.25 785 172.25 675 155.75 563 145.25 451 142.25 337 75.42 223 75.42 -1010.83 298.62 -1010.83 319.24 -898.83 319.24 -788.16 397.24 -675.5 460.24 -563.5 424.24 -453 298.62 -341 242.75 -229 381.96 -114 443.74 0 467.73 112.91 440.74 223 376.24 337 341.74 451 305.74 563 265.25 675 271.57 785 223.25 899" fill="none" stroke="#3b4351" stroke-miterlimit="10"/></g><g id="Text"><g id="Huns-2" data-name="Huns"><path d="M1605.42,86.35h-4.16V84h11v2.35h-4.1v15.14h-2.79Z" fill="#3b4351"/><path d="M1620.56,98.75c0,.49.3.93.69.93a1.18,1.18,0,0,0,.44-.07v1.71a2.83,2.83,0,0,1-1.3.32c-1.17,0-2.16-.47-2.23-1.74h-.05a3.4,3.4,0,0,1-3.28,1.94c-2.13,0-3.43-1.16-3.43-3.7,0-3,1.3-3.56,3.06-4.15l2.06-.56c1-.27,1.54-.54,1.54-1.69s-.41-2-1.81-2c-1.76,0-2,1.25-2,2.52h-2.5c0-2.82,1.15-4.33,4.63-4.33,2.33,0,4.19.9,4.19,3.23Zm-2.5-4.22a20,20,0,0,1-2.94,1.23,2.17,2.17,0,0,0-1.08,2.13c0,1.1.54,2,1.65,2,1.59,0,2.37-1.17,2.37-3.13Z" fill="#3b4351"/><path d="M1623.26,88.31h2.64v2.06h0A3.26,3.26,0,0,1,1629,88a1.56,1.56,0,0,1,.63.09v2.7a3.73,3.73,0,0,0-1.1-.15c-1.2,0-2.65.54-2.65,3v7.89h-2.64Z" fill="#3b4351"/><path d="M1629.8,88.31h1.81V84.56h2.65v3.75h2.15v2h-2.15v7.87c0,1,.29,1.39,1.2,1.39a4.91,4.91,0,0,0,1-.07v2a8.44,8.44,0,0,1-2.13.22c-1.76,0-2.67-.52-2.67-3.19V90.27h-1.81Z" fill="#3b4351"/><path d="M1646.43,98.75c0,.49.3.93.69.93a1.18,1.18,0,0,0,.44-.07v1.71a2.83,2.83,0,0,1-1.3.32c-1.17,0-2.15-.47-2.23-1.74h0a3.4,3.4,0,0,1-3.28,1.94c-2.13,0-3.43-1.16-3.43-3.7,0-3,1.3-3.56,3.06-4.15l2.06-.56c1-.27,1.55-.54,1.55-1.69s-.42-2-1.82-2c-1.76,0-2,1.25-2,2.52h-2.5c0-2.82,1.16-4.33,4.63-4.33,2.33,0,4.19.9,4.19,3.23Zm-2.49-4.22a20.62,20.62,0,0,1-3,1.23,2.16,2.16,0,0,0-1.07,2.13c0,1.1.54,2,1.64,2,1.59,0,2.38-1.17,2.38-3.13Z" fill="#3b4351"/><path d="M1649.13,88.31h2.64v2.06h0a3.26,3.26,0,0,1,3.07-2.4,1.53,1.53,0,0,1,.63.09v2.7a3.73,3.73,0,0,0-1.1-.15c-1.2,0-2.65.54-2.65,3v7.89h-2.64Z" fill="#3b4351"/><path d="M1662.53,92.16v-.35c0-1-.37-2-1.74-2-1,0-1.89.46-1.89,1.71,0,1.06.47,1.45,1.87,1.94l1.69.59c2,.66,2.86,1.71,2.86,3.8,0,2.81-2.08,4-4.73,4-3.33,0-4.33-1.55-4.33-4.1v-.49h2.35v.42c0,1.54.51,2.35,2.06,2.35s2.15-.73,2.15-1.93a1.91,1.91,0,0,0-1.44-1.94l-2.16-.76c-2-.66-2.82-1.69-2.82-3.8,0-2.47,1.77-3.62,4.51-3.62,3.36,0,4.12,2,4.12,3.6v.59Z" fill="#3b4351"/></g><g id="Hittites"><g id="small"><path d="M796.66,28.66h1.59V33h0l3-4.36h1.75l-2.89,4.22,3.19,5.79h-1.8l-2.43-4.5-.88,1.26v3.24h-1.59Z" fill="#3b4351"/><path d="M803.89,28.55h1.52v1.51h-1.52Zm0,2.58h1.52v7.54h-1.52Z" fill="#3b4351"/><path d="M806.93,31.13h1.43V32h0a2.17,2.17,0,0,1,1.93-1.08c1.15,0,1.88.52,1.88,2v5.69H810.7V33.5c0-1-.27-1.36-1.05-1.36-.62,0-1.21.46-1.21,1.47v5.06h-1.51Z" fill="#3b4351"/><path d="M815.18,39.31a1,1,0,0,0,1.09.9,1.25,1.25,0,0,0,1.27-1.42V37.57h0a1.82,1.82,0,0,1-1.71,1c-1.75,0-2.26-1.72-2.26-3.8,0-1.65.26-3.88,2.4-3.88a1.67,1.67,0,0,1,1.65,1.12h0v-.92h1.43V38.3c0,1.84-.79,2.94-2.82,2.94-2.24,0-2.49-1.31-2.49-1.93Zm1.06-1.91c1.18,0,1.3-1.48,1.3-2.67s-.15-2.59-1.2-2.59-1.27,1.12-1.27,2.52S815.12,37.4,816.24,37.4Z" fill="#3b4351"/><path d="M823.86,28.66h1.59v4h2.94v-4H830v10h-1.6V34h-2.94v4.65h-1.59Z" fill="#3b4351"/><path d="M836.49,37.1c0,.28.17.53.39.53a.54.54,0,0,0,.25,0v1a1.58,1.58,0,0,1-.74.18c-.67,0-1.23-.27-1.28-1h0a2,2,0,0,1-1.88,1.1c-1.22,0-2-.66-2-2.11A2.08,2.08,0,0,1,833,34.38l1.18-.32c.54-.16.88-.31.88-1S834.82,32,834,32c-1,0-1.15.71-1.15,1.44h-1.43c0-1.61.66-2.48,2.65-2.48,1.33,0,2.4.52,2.4,1.85Zm-1.43-2.41a12.39,12.39,0,0,1-1.68.7,1.23,1.23,0,0,0-.62,1.22c0,.63.31,1.13.94,1.13.91,0,1.36-.67,1.36-1.79Z" fill="#3b4351"/><path d="M837.35,31.13h1V29h1.51v2.14h1.23v1.12H839.9v4.5c0,.6.17.79.69.79a2.7,2.7,0,0,0,.54,0v1.12a4.56,4.56,0,0,1-1.21.13c-1,0-1.53-.29-1.53-1.82V32.25h-1Z" fill="#3b4351"/><path d="M841.24,31.13h1V29h1.51v2.14H845v1.12h-1.24v4.5c0,.6.17.79.69.79a2.81,2.81,0,0,0,.55,0v1.12a4.69,4.69,0,0,1-1.22.13c-1,0-1.53-.29-1.53-1.82V32.25h-1Z" fill="#3b4351"/><path d="M849.66,37.78h0a2.15,2.15,0,0,1-1.93,1.08c-1.12,0-1.88-.52-1.88-2.46V31.13h1.51v5.41c0,.84.37,1.12,1,1.12a1.18,1.18,0,0,0,1.24-1.26V31.13h1.51v7.54h-1.43Z" fill="#3b4351"/><path d="M855.79,33.33v-.2c0-.6-.21-1.16-1-1.16-.6,0-1.08.27-1.08,1s.27.83,1.06,1.11l1,.33a2,2,0,0,1,1.64,2.17c0,1.62-1.19,2.3-2.7,2.3-1.91,0-2.48-.88-2.48-2.34v-.28h1.34v.24c0,.88.3,1.35,1.18,1.35S856,37.4,856,36.72a1.09,1.09,0,0,0-.83-1.11l-1.23-.43A2,2,0,0,1,852.29,33c0-1.42,1-2.08,2.58-2.08,1.92,0,2.35,1.12,2.35,2.06v.34Z" fill="#3b4351"/><path d="M858.58,28.55h1.51v1.51h-1.51Zm0,2.58h1.51v7.54h-1.51Z" fill="#3b4351"/><path d="M861.68,28.66h1.52v10h-1.52Z" fill="#3b4351"/><path d="M868.11,28.66h1.6v10h-1.6Z" fill="#3b4351"/><path d="M792,59.66h5.41V61h-3.81v2.77h3.58v1.35h-3.58v3.19h3.92v1.35H792Z" fill="#3b4351"/><path d="M800,65.76l-2-3.63h1.66l1.17,2.49,1.23-2.49h1.63l-2,3.63,2,3.91h-1.64l-1.31-2.79-1.32,2.79h-1.61Z" fill="#3b4351"/><path d="M807.84,69.86a1.72,1.72,0,0,1-1.71-1.08h0v3.35h-1.51v-10H806v.92h0a1.78,1.78,0,0,1,1.69-1.12c1.73,0,2.43,1.47,2.43,4.07C810.17,69.16,808.89,69.86,807.84,69.86Zm-.55-6.72c-1,0-1.27,1-1.27,2.67,0,1.81.22,2.85,1.29,2.85.85,0,1.26-.65,1.26-2.73C808.57,64.22,808.36,63.14,807.29,63.14Z" fill="#3b4351"/><path d="M816.27,68.1c0,.28.17.53.39.53a.54.54,0,0,0,.25,0v1a1.55,1.55,0,0,1-.74.18c-.67,0-1.23-.27-1.27-1h0a2,2,0,0,1-1.88,1.1c-1.22,0-2-.66-2-2.11a2.08,2.08,0,0,1,1.75-2.37l1.18-.32c.54-.16.88-.31.88-1s-.24-1.12-1-1.12c-1,0-1.14.71-1.14,1.44h-1.43c0-1.61.65-2.48,2.64-2.48,1.33,0,2.4.52,2.4,1.85Zm-1.43-2.41a12.39,12.39,0,0,1-1.68.7,1.25,1.25,0,0,0-.62,1.22c0,.63.31,1.13.94,1.13.91,0,1.36-.67,1.36-1.79Z" fill="#3b4351"/><path d="M817.81,62.13h1.43V63h0a2.17,2.17,0,0,1,1.93-1.08c1.15,0,1.88.52,1.88,2v5.69h-1.52V64.5c0-1-.26-1.36-1.05-1.36-.61,0-1.2.46-1.2,1.47v5.06h-1.51Z" fill="#3b4351"/><path d="M828.39,68.74h0a1.6,1.6,0,0,1-1.65,1.12c-1.75,0-2.46-1.48-2.46-4.06,0-3.35,1.17-3.87,2.32-3.87A1.74,1.74,0,0,1,828.28,63h0V59.66h1.51v10h-1.43ZM827,63.14c-.85,0-1.18.7-1.18,2.73,0,1.71.21,2.79,1.28,2.79s1.27-1,1.27-2.68C828.39,64.17,828.2,63.14,827,63.14Z" fill="#3b4351"/><path d="M834.52,64.33v-.2c0-.6-.21-1.16-1-1.16-.6,0-1.08.27-1.08,1s.27.83,1.07,1.11l1,.33a2,2,0,0,1,1.64,2.17c0,1.62-1.19,2.3-2.7,2.3-1.91,0-2.48-.88-2.48-2.34v-.28h1.34v.24c0,.88.3,1.35,1.18,1.35s1.23-.42,1.23-1.11a1.09,1.09,0,0,0-.82-1.11l-1.24-.43A2,2,0,0,1,831,64c0-1.42,1-2.08,2.58-2.08,1.92,0,2.35,1.12,2.35,2.06v.34Z" fill="#3b4351"/><path d="M840.7,59.66h1.59v4h2.94v-4h1.6v10h-1.6V65h-2.94v4.65H840.7Z" fill="#3b4351"/><path d="M848.45,59.55H850v1.52h-1.51Zm0,2.58H850v7.54h-1.51Z" fill="#3b4351"/><path d="M850.82,62.13h1V60h1.52v2.14h1.23v1.12h-1.23v4.5c0,.6.17.8.68.8a2.64,2.64,0,0,0,.55,0v1.12a4.64,4.64,0,0,1-1.22.13c-1,0-1.53-.29-1.53-1.82V63.25h-1Z" fill="#3b4351"/><path d="M854.71,62.13h1V60h1.51v2.14h1.23v1.12h-1.23v4.5c0,.6.17.8.69.8a2.61,2.61,0,0,0,.54,0v1.12a4.64,4.64,0,0,1-1.22.13c-1,0-1.52-.29-1.52-1.82V63.25h-1Z" fill="#3b4351"/><path d="M859.34,59.55h1.52v1.52h-1.52Zm0,2.58h1.52v7.54h-1.52Z" fill="#3b4351"/><path d="M861.71,62.13h1V60h1.51v2.14h1.23v1.12h-1.23v4.5c0,.6.17.8.69.8a2.61,2.61,0,0,0,.54,0v1.12a4.64,4.64,0,0,1-1.22.13c-1,0-1.52-.29-1.52-1.82V63.25h-1Z" fill="#3b4351"/><path d="M867.58,66.09v.44c0,1,.12,2.3,1.26,2.3s1.2-1.22,1.2-1.69h1.43a2.48,2.48,0,0,1-2.65,2.72c-1.23,0-2.76-.36-2.76-3.85,0-2,.44-4.08,2.79-4.08,2.1,0,2.66,1.28,2.66,3.37v.79Zm2.42-1v-.41c0-1-.31-1.68-1.16-1.68s-1.26,1-1.26,1.93v.16Z" fill="#3b4351"/><path d="M875.44,62.13h1V60H878v2.14h1.24v1.12H878v4.5c0,.6.17.8.69.8a2.72,2.72,0,0,0,.55,0v1.12a4.69,4.69,0,0,1-1.22.13c-1,0-1.53-.29-1.53-1.82V63.25h-1Z" fill="#3b4351"/><path d="M881.31,66.09v.44c0,1,.13,2.3,1.26,2.3s1.21-1.22,1.21-1.69h1.42a2.47,2.47,0,0,1-2.64,2.72c-1.24,0-2.76-.36-2.76-3.85,0-2,.43-4.08,2.79-4.08,2.1,0,2.66,1.28,2.66,3.37v.79Zm2.42-1v-.41c0-1-.3-1.68-1.16-1.68s-1.26,1-1.26,1.93v.16Z" fill="#3b4351"/><path d="M886.49,62.13H888v1.18h0a1.88,1.88,0,0,1,1.75-1.38.92.92,0,0,1,.37.06v1.54a2.3,2.3,0,0,0-.63-.08c-.69,0-1.52.3-1.52,1.71v4.51h-1.51Z" fill="#3b4351"/><path d="M890.9,62.13h1.51v1.18h0a1.88,1.88,0,0,1,1.75-1.38.92.92,0,0,1,.37.06v1.54a2.3,2.3,0,0,0-.63-.08c-.69,0-1.52.3-1.52,1.71v4.51H890.9Z" fill="#3b4351"/><path d="M895.38,59.55h1.51v1.52h-1.51Zm0,2.58h1.51v7.54h-1.51Z" fill="#3b4351"/><path d="M897.75,62.13h1V60h1.51v2.14h1.24v1.12h-1.24v4.5c0,.6.17.8.69.8a2.72,2.72,0,0,0,.55,0v1.12a4.69,4.69,0,0,1-1.22.13c-1,0-1.53-.29-1.53-1.82V63.25h-1Z" fill="#3b4351"/><path d="M902,65.9c0-2.36.61-4,2.8-4s2.81,1.61,2.81,4-.73,4-2.81,4S902,68.25,902,65.9Zm2.8,2.84c1.1,0,1.3-.92,1.3-2.84,0-1.67-.2-2.85-1.3-2.85s-1.29,1.18-1.29,2.85C903.53,67.82,903.74,68.74,904.82,68.74Z" fill="#3b4351"/><path d="M908.79,62.13h1.51v1.18h0a1.88,1.88,0,0,1,1.75-1.38.92.92,0,0,1,.37.06v1.54a2.24,2.24,0,0,0-.63-.08c-.69,0-1.52.3-1.52,1.71v4.51h-1.51Z" fill="#3b4351"/><path d="M914.46,62.13l1.3,5.66h0L917,62.13h1.58L916.51,70c-.61,2.06-1.07,2.34-2.64,2.29a3,3,0,0,1-.6,0V71a2.05,2.05,0,0,0,.49.06c.52,0,.86-.1,1-.59l.2-.62-2.14-7.7Z" fill="#3b4351"/><path d="M818.08,90.55h1.51v1.52h-1.51Zm0,2.58h1.51v7.54h-1.51Z" fill="#3b4351"/><path d="M821.11,93.13h1.43V94h.05a2.15,2.15,0,0,1,1.93-1.08c1.15,0,1.88.52,1.88,2v5.69h-1.52V95.5c0-1-.26-1.36-1-1.36-.61,0-1.2.46-1.2,1.47v5.06h-1.52Z" fill="#3b4351"/><path d="M827.18,93.13h1V91h1.52v2.14H831v1.12h-1.23v4.5c0,.6.16.8.68.8a2.64,2.64,0,0,0,.55,0v1.12a4.64,4.64,0,0,1-1.22.13c-1,0-1.53-.29-1.53-1.82V94.25h-1Z" fill="#3b4351"/><path d="M831.45,96.9c0-2.36.61-4,2.8-4s2.81,1.61,2.81,4-.73,4-2.81,4S831.45,99.25,831.45,96.9Zm2.8,2.84c1.1,0,1.3-.92,1.3-2.84,0-1.67-.2-2.85-1.3-2.85S833,95.23,833,96.9C833,98.82,833.17,99.74,834.25,99.74Z" fill="#3b4351"/><path d="M842.91,97.57v.25c0,1.22.55,1.84,1.64,1.84a1.43,1.43,0,0,0,1.51-1.46,1.68,1.68,0,0,0-1.42-1.78l-1.1-.38c-1.45-.56-2.08-1.31-2.08-2.74,0-1.82,1.24-2.83,3.11-2.83,2.56,0,2.83,1.6,2.83,2.63v.23h-1.6v-.21c0-.91-.39-1.45-1.4-1.45a1.28,1.28,0,0,0-1.35,1.45c0,.85.44,1.28,1.5,1.69l1.08.39a2.54,2.54,0,0,1,2,2.65c0,2.13-1.29,3-3.3,3a2.74,2.74,0,0,1-3-3v-.24Z" fill="#3b4351"/><path d="M849.86,93.13l1.3,5.66h0l1.2-5.66H854L851.9,101c-.6,2.06-1.06,2.34-2.63,2.29a3,3,0,0,1-.6,0V102a2,2,0,0,0,.49.06c.51,0,.85-.1,1-.59l.2-.62-2.15-7.7Z" fill="#3b4351"/><path d="M854.81,93.13h1.52v1.18h0a1.88,1.88,0,0,1,1.75-1.38.92.92,0,0,1,.37.06v1.54a2.24,2.24,0,0,0-.63-.08c-.69,0-1.51.3-1.51,1.71v4.51h-1.52Z" fill="#3b4351"/><path d="M864.08,99.1c0,.28.17.53.4.53a.57.57,0,0,0,.25,0v1a1.63,1.63,0,0,1-.75.18c-.67,0-1.23-.27-1.27-1h0a1.94,1.94,0,0,1-1.87,1.1c-1.22,0-2-.66-2-2.11a2.09,2.09,0,0,1,1.75-2.37l1.18-.32c.55-.16.88-.31.88-1s-.23-1.12-1-1.12c-1,0-1.15.71-1.15,1.44H859c0-1.61.66-2.48,2.65-2.48,1.33,0,2.39.52,2.39,1.85Zm-1.43-2.41a12.39,12.39,0,0,1-1.68.7,1.24,1.24,0,0,0-.61,1.22c0,.63.3,1.13.94,1.13.91,0,1.35-.67,1.35-1.79Z" fill="#3b4351"/><path d="M865.77,98.82h1.6v1.85c0,1.12-.36,1.91-1.6,2.15V102a1,1,0,0,0,.7-1.13v-.21h-.7Z" fill="#3b4351"/><path d="M873.12,97.09v.44c0,1,.13,2.3,1.27,2.3s1.2-1.22,1.2-1.69H877a2.48,2.48,0,0,1-2.65,2.72c-1.23,0-2.76-.36-2.76-3.85,0-2,.44-4.08,2.79-4.08,2.1,0,2.66,1.28,2.66,3.37v.79Zm2.43-1v-.41c0-1-.31-1.68-1.16-1.68s-1.27,1-1.27,1.93v.16Z" fill="#3b4351"/><path d="M881.55,95.33v-.2c0-.6-.21-1.16-1-1.16-.6,0-1.08.27-1.08,1s.27.83,1.07,1.11l1,.33a2,2,0,0,1,1.64,2.17c0,1.62-1.19,2.3-2.7,2.3-1.91,0-2.48-.88-2.48-2.34v-.28h1.34v.24c0,.88.3,1.35,1.18,1.35s1.23-.42,1.23-1.11a1.09,1.09,0,0,0-.82-1.11l-1.24-.43A2,2,0,0,1,878.05,95c0-1.42,1-2.08,2.58-2.08,1.92,0,2.35,1.12,2.35,2.06v.34Z" fill="#3b4351"/><path d="M883.6,93.13h1V91h1.51v2.14h1.24v1.12h-1.24v4.5c0,.6.17.8.69.8a2.64,2.64,0,0,0,.55,0v1.12a4.64,4.64,0,0,1-1.22.13c-1,0-1.53-.29-1.53-1.82V94.25h-1Z" fill="#3b4351"/><path d="M893.1,99.1c0,.28.17.53.4.53a.57.57,0,0,0,.25,0v1a1.58,1.58,0,0,1-.74.18c-.68,0-1.24-.27-1.28-1h0a1.94,1.94,0,0,1-1.87,1.1c-1.22,0-2-.66-2-2.11a2.08,2.08,0,0,1,1.75-2.37l1.17-.32c.55-.16.89-.31.89-1s-.24-1.12-1-1.12c-1,0-1.15.71-1.15,1.44h-1.43c0-1.61.66-2.48,2.65-2.48,1.33,0,2.39.52,2.39,1.85Zm-1.42-2.41a12.39,12.39,0,0,1-1.68.7,1.23,1.23,0,0,0-.62,1.22c0,.63.31,1.13.94,1.13.91,0,1.36-.67,1.36-1.79Z" fill="#3b4351"/><path d="M894.64,90.66h1.51V94h0a1.75,1.75,0,0,1,1.71-1.08c1.15,0,2.33.52,2.33,3.87,0,2.59-.72,4.06-2.47,4.06a1.61,1.61,0,0,1-1.65-1.12h0v.93h-1.43Zm2.71,9c1.06,0,1.27-1.08,1.27-2.79,0-2-.32-2.73-1.18-2.73-1.17,0-1.37,1-1.37,2.84C896.07,98.61,896.31,99.66,897.35,99.66Z" fill="#3b4351"/><path d="M901.45,90.66H903v10h-1.51Z" fill="#3b4351"/><path d="M904.55,90.55h1.52v1.52h-1.52Zm0,2.58h1.52v7.54h-1.52Z" fill="#3b4351"/><path d="M910.84,95.33v-.2c0-.6-.21-1.16-1-1.16-.61,0-1.08.27-1.08,1s.26.83,1.06,1.11l1,.33a2,2,0,0,1,1.64,2.17c0,1.62-1.19,2.3-2.71,2.3-1.9,0-2.47-.88-2.47-2.34v-.28h1.34v.24c0,.88.29,1.35,1.18,1.35s1.23-.42,1.23-1.11a1.09,1.09,0,0,0-.83-1.11L909,97.18A2,2,0,0,1,907.34,95c0-1.42,1-2.08,2.58-2.08,1.92,0,2.35,1.12,2.35,2.06v.34Z" fill="#3b4351"/><path d="M913.56,90.66h1.51v3.28l0,0a2.14,2.14,0,0,1,1.85-1c1.15,0,1.88.52,1.88,2v5.69h-1.52V95.5c0-1-.28-1.36-1.05-1.36-.61,0-1.2.47-1.2,1.47v5.06h-1.51Z" fill="#3b4351"/><path d="M920.36,90.55h1.51v1.52h-1.51Zm0,2.58h1.51v7.54h-1.51Z" fill="#3b4351"/><path d="M923.4,93.13h1.43V94h0a2.17,2.17,0,0,1,1.93-1.08c1.15,0,1.88.52,1.88,2v5.69h-1.51V95.5c0-1-.27-1.36-1.06-1.36-.61,0-1.2.46-1.2,1.47v5.06H923.4Z" fill="#3b4351"/><path d="M931.64,101.31a1,1,0,0,0,1.1.9,1.25,1.25,0,0,0,1.27-1.42V99.57h0a1.82,1.82,0,0,1-1.71,1c-1.75,0-2.25-1.72-2.25-3.8,0-1.65.25-3.88,2.39-3.88a1.68,1.68,0,0,1,1.66,1.12h0v-.92h1.42v7.17c0,1.84-.78,2.94-2.81,2.94-2.24,0-2.49-1.31-2.49-1.93Zm1.07-1.9c1.18,0,1.3-1.49,1.3-2.68s-.15-2.59-1.2-2.59-1.28,1.12-1.28,2.52S931.59,99.41,932.71,99.41Z" fill="#3b4351"/></g></g><g id="Egytians"><g id="small-2" data-name="small"><path d="M519.8-.81a1.72,1.72,0,0,1-1.71-1.08h0V1.46h-1.51v-10H518v.92h0a1.8,1.8,0,0,1,1.7-1.12c1.72,0,2.42,1.47,2.42,4.07C522.12-1.51,520.85-.81,519.8-.81Zm-.55-6.72c-1,0-1.27,1-1.27,2.67C518-3,518.2-2,519.26-2c.86,0,1.27-.65,1.27-2.73C520.53-6.45,520.32-7.53,519.25-7.53Z" fill="#3b4351"/><path d="M595.7-2.85h1.6V-1a1.87,1.87,0,0,1-1.6,2.15V.34a1,1,0,0,0,.7-1.13V-1h-.7Z" fill="#3b4351"/><path d="M645-.36a1,1,0,0,0,1.09.9,1.25,1.25,0,0,0,1.27-1.42V-2.1h0a1.83,1.83,0,0,1-1.71,1c-1.75,0-2.26-1.72-2.26-3.8,0-1.65.25-3.88,2.4-3.88a1.67,1.67,0,0,1,1.65,1.12h0v-.92h1.43v7.17c0,1.84-.79,2.94-2.82,2.94-2.24,0-2.49-1.31-2.49-1.93Zm1.06-1.91c1.18,0,1.3-1.48,1.3-2.67s-.15-2.59-1.2-2.59S644.88-6.41,644.88-5,644.94-2.27,646.06-2.27Z" fill="#3b4351"/><path d="M505.32,21.46h1V19.32h1.52v2.14h1.23v1.12h-1.23v4.5c0,.6.17.79.68.79a2.75,2.75,0,0,0,.55,0V29a4.64,4.64,0,0,1-1.22.13c-1,0-1.53-.29-1.53-1.82V22.58h-1Z" fill="#3b4351"/><path d="M509.88,19h1.51v3.28l.05,0a2.14,2.14,0,0,1,1.85-1c1.14,0,1.87.52,1.87,2V29h-1.51V23.83c0-1-.28-1.36-1-1.36s-1.21.47-1.21,1.47V29h-1.51Z" fill="#3b4351"/><path d="M517.92,25.42v.44c0,1,.12,2.3,1.26,2.3s1.2-1.22,1.2-1.69h1.43a2.48,2.48,0,0,1-2.64,2.72c-1.24,0-2.76-.36-2.76-3.85,0-2,.43-4.08,2.78-4.08,2.1,0,2.66,1.28,2.66,3.37v.79Zm2.42-1V24c0-.95-.31-1.68-1.16-1.68s-1.26.95-1.26,1.93v.16Z" fill="#3b4351"/><path d="M526.15,21.15c0-1.12.36-1.92,1.6-2.16v.82c-.44.11-.7.51-.7,1.13v.21h.7V23h-1.6Zm2.49,0a1.88,1.88,0,0,1,1.6-2.16v.82a1,1,0,0,0-.7,1.13v.21h.7V23h-1.6Z" fill="#3b4351"/><path d="M531.09,19h1.7l1.69,8h0l1.79-8H538l-2.52,10h-2Z" fill="#3b4351"/><path d="M543.33,27.43c0,.28.17.53.39.53a.83.83,0,0,0,.26,0v1a1.63,1.63,0,0,1-.75.18c-.67,0-1.23-.27-1.27-1h0a1.94,1.94,0,0,1-1.88,1.11c-1.22,0-2-.66-2-2.11a2.08,2.08,0,0,1,1.75-2.37l1.18-.32c.55-.16.88-.31.88-1s-.24-1.12-1-1.12c-1,0-1.15.71-1.15,1.44h-1.43c0-1.61.66-2.48,2.65-2.48,1.33,0,2.39.52,2.39,1.85ZM541.9,25a12.39,12.39,0,0,1-1.68.7,1.25,1.25,0,0,0-.62,1.22c0,.63.31,1.13.94,1.13.91,0,1.36-.67,1.36-1.79Z" fill="#3b4351"/><path d="M544.94,19h1.51V29h-1.51Z" fill="#3b4351"/><path d="M548.05,19h1.51V29h-1.51Z" fill="#3b4351"/><path d="M552.39,25.42v.44c0,1,.12,2.3,1.26,2.3s1.2-1.22,1.2-1.69h1.43a2.48,2.48,0,0,1-2.65,2.72c-1.23,0-2.76-.36-2.76-3.85,0-2,.44-4.08,2.79-4.08,2.1,0,2.66,1.28,2.66,3.37v.79Zm2.42-1V24c0-.95-.31-1.68-1.16-1.68s-1.26.95-1.26,1.93v.16Z" fill="#3b4351"/><path d="M558.57,21.46l1.31,5.66h0l1.2-5.66h1.58l-2.07,7.82c-.6,2-1.07,2.34-2.63,2.29a3.14,3.14,0,0,1-.61-.05V30.31a2.12,2.12,0,0,0,.49.06c.52,0,.86-.1,1-.59l.19-.62L557,21.46Z" fill="#3b4351"/><path d="M566.6,25.23c0-2.36.61-4,2.8-4s2.81,1.61,2.81,4-.73,4-2.81,4S566.6,27.58,566.6,25.23Zm2.8,2.84c1.1,0,1.3-.92,1.3-2.84,0-1.67-.2-2.85-1.3-2.85s-1.29,1.18-1.29,2.85C568.11,27.15,568.32,28.07,569.4,28.07Z" fill="#3b4351"/><path d="M573.83,22.58h-1.05V21.46h1.05v-.7c0-1.42.69-1.88,1.92-1.88.32,0,.6,0,.83,0v1.17h-.42c-.56,0-.81.21-.81.71v.66h1.23v1.12h-1.23V29h-1.52Z" fill="#3b4351"/><path d="M580,21.46h1V19.32h1.51v2.14h1.23v1.12H582.5v4.5c0,.6.17.79.69.79a2.7,2.7,0,0,0,.54,0V29a4.64,4.64,0,0,1-1.22.13c-1,0-1.52-.29-1.52-1.82V22.58h-1Z" fill="#3b4351"/><path d="M584.52,19H586v3.28l0,0a2.14,2.14,0,0,1,1.85-1c1.15,0,1.88.52,1.88,2V29h-1.52V23.83c0-1-.28-1.36-1-1.36-.61,0-1.2.47-1.2,1.47V29h-1.51Z" fill="#3b4351"/><path d="M592.55,25.42v.44c0,1,.13,2.3,1.26,2.3S595,26.94,595,26.47h1.43a2.48,2.48,0,0,1-2.65,2.72c-1.23,0-2.76-.36-2.76-3.85,0-2,.43-4.08,2.79-4.08,2.1,0,2.66,1.28,2.66,3.37v.79Zm2.43-1V24c0-.95-.31-1.68-1.17-1.68s-1.26.95-1.26,1.93v.16Z" fill="#3b4351"/><path d="M602.31,20.34h-2.38V19h6.32v1.35h-2.34V29h-1.6Z" fill="#3b4351"/><path d="M605.73,25.23c0-2.36.61-4,2.8-4s2.81,1.61,2.81,4-.73,4-2.81,4S605.73,27.58,605.73,25.23Zm2.8,2.84c1.1,0,1.3-.92,1.3-2.84,0-1.67-.2-2.85-1.3-2.85s-1.29,1.18-1.29,2.85C607.24,27.15,607.45,28.07,608.53,28.07Z" fill="#3b4351"/><path d="M612.57,21.46H614v.88h0a2.12,2.12,0,0,1,1.81-1.08,1.63,1.63,0,0,1,1.75,1.15,2,2,0,0,1,1.9-1.15c1.07,0,1.84.55,1.84,2V29h-1.51V23.83c0-1-.3-1.36-.91-1.36s-1.21.47-1.21,1.47V29H616.2V23.83c0-1-.29-1.36-.93-1.36s-1.19.49-1.19,1.47V29h-1.51Z" fill="#3b4351"/><path d="M622.86,19h1.51v3.35h0a1.74,1.74,0,0,1,1.71-1.08c1.15,0,2.33.52,2.33,3.87,0,2.59-.72,4.06-2.47,4.06a1.61,1.61,0,0,1-1.65-1.12h0V29h-1.43Zm2.7,9c1.07,0,1.28-1.08,1.28-2.79,0-2-.32-2.73-1.18-2.73-1.17,0-1.37,1-1.37,2.84C624.29,26.94,624.53,28,625.56,28Z" fill="#3b4351"/><path d="M632.84,23.66v-.2c0-.6-.21-1.16-1-1.16-.6,0-1.08.27-1.08,1s.27.83,1.07,1.11l1,.33a2,2,0,0,1,1.64,2.17c0,1.62-1.19,2.3-2.7,2.3-1.91,0-2.48-.88-2.48-2.34v-.28h1.34v.24c0,.88.3,1.35,1.18,1.35s1.23-.43,1.23-1.11a1.09,1.09,0,0,0-.82-1.11L631,25.51a2,2,0,0,1-1.61-2.17c0-1.42,1-2.08,2.58-2.08,1.92,0,2.35,1.12,2.35,2.06v.34Z" fill="#3b4351"/><path d="M635.71,27.15h1.6V29h-1.6Z" fill="#3b4351"/><path d="M638.09,19h1.6v1.85c0,1.12-.36,1.92-1.6,2.16v-.81c.44-.11.7-.52.7-1.14v-.21h-.7Zm2.5,0h1.59v1.85c0,1.12-.36,1.92-1.59,2.16v-.81a1.05,1.05,0,0,0,.7-1.14v-.21h-.7Z" fill="#3b4351"/><path d="M478,55.41v.21c0,1.81-.74,3.57-3.08,3.57-2.52,0-3.3-1.62-3.3-5.19s.78-5.2,3.32-5.2c2.84,0,3,2.09,3,3.14v.18h-1.6V52c0-.94-.28-2-1.43-2s-1.71.73-1.71,4,.52,4,1.71,4c1.35,0,1.49-1.47,1.49-2.41v-.17Z" fill="#3b4351"/><path d="M478.69,55.23c0-2.36.62-4,2.8-4s2.82,1.61,2.82,4-.73,4-2.82,4S478.69,57.58,478.69,55.23Zm2.8,2.84c1.11,0,1.3-.92,1.3-2.84,0-1.67-.19-2.85-1.3-2.85s-1.29,1.18-1.29,2.85C480.2,57.15,480.41,58.07,481.49,58.07Z" fill="#3b4351"/><path d="M485.54,51.46H487v.88H487a2.1,2.1,0,0,1,1.8-1.08,1.63,1.63,0,0,1,1.75,1.15,2.07,2.07,0,0,1,1.91-1.15c1.06,0,1.83.55,1.83,2V59h-1.51V53.83c0-1-.29-1.36-.91-1.36s-1.2.47-1.2,1.47V59h-1.52V53.83c0-1-.29-1.36-.92-1.36s-1.19.49-1.19,1.47V59h-1.51Z" fill="#3b4351"/><path d="M495.89,51.46h1.43v.88h.05a2.1,2.1,0,0,1,1.8-1.08,1.63,1.63,0,0,1,1.75,1.15,2.07,2.07,0,0,1,1.91-1.15c1.06,0,1.83.55,1.83,2V59h-1.51V53.83c0-1-.29-1.36-.91-1.36s-1.2.47-1.2,1.47V59h-1.52V53.83c0-1-.29-1.36-.92-1.36s-1.19.49-1.19,1.47V59h-1.52Z" fill="#3b4351"/><path d="M507.49,55.42v.44c0,1,.12,2.3,1.26,2.3s1.2-1.22,1.2-1.69h1.43a2.48,2.48,0,0,1-2.65,2.72c-1.23,0-2.76-.36-2.76-3.85,0-2,.44-4.08,2.79-4.08,2.1,0,2.66,1.28,2.66,3.37v.79Zm2.42-1V54c0-.95-.31-1.68-1.16-1.68s-1.26,1-1.26,1.93v.16Z" fill="#3b4351"/><path d="M512.67,51.46h1.51v1.18h0A1.86,1.86,0,0,1,516,51.26a.87.87,0,0,1,.36.06v1.54a2.18,2.18,0,0,0-.63-.08c-.68,0-1.51.3-1.51,1.71V59h-1.51Z" fill="#3b4351"/><path d="M522.08,56.25c-.11,1.81-.7,2.94-2.58,2.94-2.19,0-2.8-1.61-2.8-4s.61-4,2.8-4A2.44,2.44,0,0,1,522.09,54h-1.51c0-.7-.18-1.63-1.08-1.59-1.08,0-1.29,1.18-1.29,2.85s.21,2.84,1.29,2.84c.84,0,1.15-.69,1.15-1.82Z" fill="#3b4351"/><path d="M524.51,55.42v.44c0,1,.13,2.3,1.26,2.3S527,56.94,527,56.47h1.43a2.48,2.48,0,0,1-2.65,2.72c-1.24,0-2.76-.36-2.76-3.85,0-2,.43-4.08,2.79-4.08,2.1,0,2.66,1.28,2.66,3.37v.79Zm2.42-1V54c0-.95-.3-1.68-1.16-1.68s-1.26,1-1.26,1.93v.16Z" fill="#3b4351"/><path d="M532.53,51.46h1.57l1,5.94h0l1.12-5.94H538l1.12,5.94h0l1-5.94h1.52L540,59h-1.69l-1.18-5.86h0L536,59h-1.77Z" fill="#3b4351"/><path d="M542.71,48.88h1.51v1.51h-1.51Zm0,2.58h1.51V59h-1.51Z" fill="#3b4351"/><path d="M545.08,51.46h1V49.32h1.51v2.14h1.24v1.12h-1.24v4.5c0,.6.17.79.69.79a2.75,2.75,0,0,0,.55,0V59a4.64,4.64,0,0,1-1.22.13c-1,0-1.53-.29-1.53-1.82V52.58h-1Z" fill="#3b4351"/><path d="M549.64,49h1.51v3.28l0,0a2.16,2.16,0,0,1,1.85-1c1.15,0,1.88.52,1.88,2.05V59h-1.51V53.83c0-1-.28-1.36-1-1.36s-1.21.47-1.21,1.47V59h-1.51Z" fill="#3b4351"/><path d="M559.83,49h3.24c1.5,0,2.69.68,2.69,2.43a2.11,2.11,0,0,1-1.47,2.27v0c1.09.2,1.79.86,1.79,2.55S564.87,59,563,59h-3.17Zm2.86,4.22a1.4,1.4,0,0,0,1.47-1.58c0-1.19-.71-1.43-1.61-1.43h-1.12v3Zm.32,4.58c1,0,1.47-.6,1.47-1.76a1.52,1.52,0,0,0-1.57-1.7h-1.48v3.46Z" fill="#3b4351"/><path d="M572.2,57.43c0,.28.16.53.39.53a.76.76,0,0,0,.25,0v1a1.58,1.58,0,0,1-.74.18c-.67,0-1.23-.27-1.28-1h0a1.94,1.94,0,0,1-1.88,1.11c-1.22,0-2-.66-2-2.11a2.08,2.08,0,0,1,1.75-2.37l1.18-.32c.54-.16.88-.31.88-1s-.24-1.12-1-1.12c-1,0-1.15.71-1.15,1.44h-1.43c0-1.61.66-2.48,2.65-2.48,1.33,0,2.4.52,2.4,1.85ZM570.77,55a12.39,12.39,0,0,1-1.68.7,1.23,1.23,0,0,0-.62,1.22c0,.63.31,1.13.94,1.13.91,0,1.36-.67,1.36-1.79Z" fill="#3b4351"/><path d="M573.73,49h1.52v3.35h0A1.75,1.75,0,0,1,577,51.26c1.15,0,2.33.52,2.33,3.87,0,2.59-.72,4.06-2.47,4.06a1.61,1.61,0,0,1-1.65-1.12h0V59h-1.43Zm2.71,9c1.06,0,1.27-1.08,1.27-2.79,0-2-.32-2.73-1.17-2.73-1.18,0-1.38,1-1.38,2.84C575.16,56.94,575.4,58,576.44,58Z" fill="#3b4351"/><path d="M581.31,51.46l1.3,5.66h0l1.2-5.66h1.59l-2.08,7.82c-.6,2-1.06,2.34-2.63,2.29a3,3,0,0,1-.6,0V60.31a2.05,2.05,0,0,0,.49.06c.52,0,.85-.1,1-.59l.2-.62-2.15-7.7Z" fill="#3b4351"/><path d="M586.33,49h1.52V59h-1.52Z" fill="#3b4351"/><path d="M589.08,55.23c0-2.36.61-4,2.8-4s2.81,1.61,2.81,4-.72,4-2.81,4S589.08,57.58,589.08,55.23Zm2.8,2.84c1.11,0,1.3-.92,1.3-2.84,0-1.67-.19-2.85-1.3-2.85s-1.29,1.18-1.29,2.85C590.59,57.15,590.8,58.07,591.88,58.07Z" fill="#3b4351"/><path d="M595.85,51.46h1.43v.88h0a2.18,2.18,0,0,1,1.94-1.08c1.15,0,1.87.52,1.87,2.05V59h-1.51V53.83c0-1-.26-1.36-1-1.36-.62,0-1.2.46-1.2,1.47V59h-1.52Z" fill="#3b4351"/><path d="M602.74,57.15h1.6V59h-1.6Z" fill="#3b4351"/><path d="M609.22,49h1.6v8.66h3.87V59h-5.47Z" fill="#3b4351"/><path d="M615.59,48.88h1.52v1.51h-1.52Zm0,2.58h1.52V59h-1.52Z" fill="#3b4351"/><path d="M618,51.46h1V49.32h1.51v2.14h1.23v1.12h-1.23v4.5c0,.6.17.79.68.79a2.75,2.75,0,0,0,.55,0V59a4.64,4.64,0,0,1-1.22.13c-1,0-1.52-.29-1.52-1.82V52.58h-1Z" fill="#3b4351"/><path d="M623.83,55.42v.44c0,1,.12,2.3,1.26,2.3s1.2-1.22,1.2-1.69h1.43a2.48,2.48,0,0,1-2.65,2.72c-1.23,0-2.76-.36-2.76-3.85,0-2,.44-4.08,2.79-4.08,2.1,0,2.66,1.28,2.66,3.37v.79Zm2.42-1V54c0-.95-.31-1.68-1.16-1.68s-1.26,1-1.26,1.93v.16Z" fill="#3b4351"/><path d="M629,51.46h1.52v1.18h0a1.86,1.86,0,0,1,1.75-1.38.87.87,0,0,1,.36.06v1.54a2.18,2.18,0,0,0-.63-.08c-.69,0-1.51.3-1.51,1.71V59H629Z" fill="#3b4351"/><path d="M638.27,57.43c0,.28.17.53.4.53a.76.76,0,0,0,.25,0v1a1.58,1.58,0,0,1-.74.18c-.68,0-1.24-.27-1.28-1h0A1.93,1.93,0,0,1,635,59.19c-1.22,0-2-.66-2-2.11a2.08,2.08,0,0,1,1.75-2.37l1.17-.32c.55-.16.89-.31.89-1s-.24-1.12-1-1.12c-1,0-1.15.71-1.15,1.44h-1.43c0-1.61.66-2.48,2.65-2.48,1.33,0,2.39.52,2.39,1.85ZM636.85,55a12.39,12.39,0,0,1-1.68.7,1.23,1.23,0,0,0-.62,1.22c0,.63.31,1.13.94,1.13.91,0,1.36-.67,1.36-1.79Z" fill="#3b4351"/><path d="M639.81,51.46h1.52v1.18h0a1.88,1.88,0,0,1,1.75-1.38.92.92,0,0,1,.37.06v1.54a2.24,2.24,0,0,0-.63-.08c-.69,0-1.51.3-1.51,1.71V59h-1.52Z" fill="#3b4351"/><path d="M645.48,51.46l1.31,5.66h0L648,51.46h1.58l-2.07,7.82c-.6,2-1.07,2.34-2.64,2.29a3,3,0,0,1-.6,0V60.31a2.05,2.05,0,0,0,.49.06c.52,0,.86-.1,1-.59l.2-.62-2.14-7.7Z" fill="#3b4351"/><path d="M658.74,57.43c0,.28.17.53.39.53a.78.78,0,0,0,.26,0v1a1.63,1.63,0,0,1-.75.18c-.67,0-1.23-.27-1.27-1h0a1.93,1.93,0,0,1-1.88,1.11c-1.21,0-2-.66-2-2.11a2.09,2.09,0,0,1,1.75-2.37l1.18-.32c.55-.16.88-.31.88-1s-.23-1.12-1-1.12c-1,0-1.15.71-1.15,1.44H653.7c0-1.61.66-2.48,2.65-2.48,1.33,0,2.39.52,2.39,1.85ZM657.31,55a12.39,12.39,0,0,1-1.68.7,1.24,1.24,0,0,0-.61,1.22c0,.63.3,1.13.93,1.13.92,0,1.36-.67,1.36-1.79Z" fill="#3b4351"/><path d="M665.36,56.25c-.11,1.81-.7,2.94-2.57,2.94-2.19,0-2.8-1.61-2.8-4s.61-4,2.8-4A2.44,2.44,0,0,1,665.38,54h-1.51c0-.7-.19-1.63-1.08-1.59-1.08,0-1.29,1.18-1.29,2.85s.21,2.84,1.29,2.84c.84,0,1.15-.69,1.15-1.82Z" fill="#3b4351"/><path d="M665.82,51.46h1V49.32h1.51v2.14h1.23v1.12h-1.23v4.5c0,.6.17.79.69.79a2.7,2.7,0,0,0,.54,0V59a4.56,4.56,0,0,1-1.21.13c-1,0-1.53-.29-1.53-1.82V52.58h-1Z" fill="#3b4351"/><path d="M670.46,48.88H672v1.51h-1.51Zm0,2.58H672V59h-1.51Z" fill="#3b4351"/><path d="M672.87,51.46h1.62l1.32,5.94h0l1.2-5.94h1.61l-2,7.54h-1.77Z" fill="#3b4351"/><path d="M679.53,48.88H681v1.51h-1.51Zm0,2.58H681V59h-1.51Z" fill="#3b4351"/><path d="M681.89,51.46h1V49.32h1.51v2.14h1.24v1.12h-1.24v4.5c0,.6.17.79.69.79a2.81,2.81,0,0,0,.55,0V59a4.69,4.69,0,0,1-1.22.13c-1,0-1.53-.29-1.53-1.82V52.58h-1Z" fill="#3b4351"/><path d="M687.47,51.46l1.3,5.66h0l1.2-5.66h1.59l-2.08,7.82c-.6,2-1.06,2.34-2.63,2.29a3,3,0,0,1-.6,0V60.31a2.05,2.05,0,0,0,.49.06c.52,0,.85-.1,1-.59l.2-.62-2.15-7.7Z" fill="#3b4351"/><path d="M493.78,87.43c0,.28.17.53.4.53a.76.76,0,0,0,.25,0v1a1.58,1.58,0,0,1-.74.18c-.68,0-1.24-.27-1.28-1h0a1.93,1.93,0,0,1-1.87,1.11c-1.22,0-2-.66-2-2.11a2.08,2.08,0,0,1,1.75-2.37l1.17-.32c.55-.16.89-.31.89-1s-.24-1.12-1-1.12c-1,0-1.15.71-1.15,1.44h-1.43c0-1.61.66-2.48,2.65-2.48,1.33,0,2.39.52,2.39,1.85ZM492.36,85a12,12,0,0,1-1.69.7,1.24,1.24,0,0,0-.61,1.22c0,.63.31,1.13.94,1.13.91,0,1.36-.67,1.36-1.79Z" fill="#3b4351"/><path d="M495.32,81.46h1.43v.88h0a2.18,2.18,0,0,1,1.94-1.08c1.14,0,1.87.52,1.87,2V89h-1.51V83.83c0-1-.27-1.36-1-1.36-.62,0-1.21.46-1.21,1.47V89h-1.51Z" fill="#3b4351"/><path d="M505.91,88.07h0a1.61,1.61,0,0,1-1.65,1.12c-1.75,0-2.47-1.48-2.47-4.06,0-3.35,1.18-3.87,2.33-3.87a1.75,1.75,0,0,1,1.71,1.08h0V79h1.52V89h-1.43Zm-1.38-5.6c-.85,0-1.17.7-1.17,2.73,0,1.71.21,2.79,1.27,2.79s1.28-1,1.28-2.68C505.91,83.5,505.71,82.47,504.53,82.47Z" fill="#3b4351"/><path d="M517.23,86.25c-.11,1.81-.7,2.94-2.57,2.94-2.19,0-2.81-1.61-2.81-4s.62-4,2.81-4A2.44,2.44,0,0,1,517.25,84h-1.51c0-.7-.19-1.63-1.08-1.59-1.08,0-1.29,1.18-1.29,2.85s.21,2.84,1.29,2.84c.84,0,1.15-.69,1.15-1.82Z" fill="#3b4351"/><path d="M518.07,85.23c0-2.36.62-4,2.8-4s2.82,1.61,2.82,4-.73,4-2.82,4S518.07,87.58,518.07,85.23Zm2.8,2.84c1.11,0,1.31-.92,1.31-2.84,0-1.67-.2-2.85-1.31-2.85s-1.29,1.18-1.29,2.85C519.58,87.15,519.79,88.07,520.87,88.07Z" fill="#3b4351"/><path d="M524.92,81.46h1.43v.88h0a2.11,2.11,0,0,1,1.8-1.08A1.65,1.65,0,0,1,530,82.41a2,2,0,0,1,1.9-1.15c1.07,0,1.84.55,1.84,2V89h-1.52V83.83c0-1-.29-1.36-.91-1.36s-1.2.47-1.2,1.47V89h-1.52V83.83c0-1-.29-1.36-.92-1.36s-1.19.49-1.19,1.47V89h-1.51Z" fill="#3b4351"/><path d="M538.46,89.19a1.72,1.72,0,0,1-1.71-1.08h0v3.35h-1.51v-10h1.43v.92h0a1.8,1.8,0,0,1,1.7-1.12c1.72,0,2.42,1.47,2.42,4.07C540.78,88.49,539.51,89.19,538.46,89.19Zm-.55-6.72c-1,0-1.27,1-1.27,2.67,0,1.81.22,2.85,1.28,2.85.86,0,1.26-.65,1.26-2.73C539.18,83.55,539,82.47,537.91,82.47Z" fill="#3b4351"/><path d="M542,78.88h1.51v1.51H542Zm0,2.58h1.51V89H542Z" fill="#3b4351"/><path d="M545.12,79h1.51V89h-1.51Z" fill="#3b4351"/><path d="M553.1,87.43c0,.28.17.53.39.53a.78.78,0,0,0,.26,0v1a1.63,1.63,0,0,1-.75.18c-.67,0-1.23-.27-1.27-1h0a1.94,1.94,0,0,1-1.88,1.11c-1.22,0-2-.66-2-2.11a2.08,2.08,0,0,1,1.75-2.37l1.18-.32c.55-.16.88-.31.88-1s-.24-1.12-1-1.12c-1,0-1.15.71-1.15,1.44h-1.43c0-1.61.66-2.48,2.65-2.48,1.33,0,2.39.52,2.39,1.85ZM551.67,85a12.39,12.39,0,0,1-1.68.7,1.24,1.24,0,0,0-.61,1.22c0,.63.3,1.13.93,1.13.91,0,1.36-.67,1.36-1.79Z" fill="#3b4351"/><path d="M554,81.46h1V79.32h1.52v2.14h1.23v1.12h-1.23v4.5c0,.6.16.79.68.79a2.75,2.75,0,0,0,.55,0V89a4.64,4.64,0,0,1-1.22.13c-1,0-1.53-.29-1.53-1.82V82.58h-1Z" fill="#3b4351"/><path d="M558.6,78.88h1.51v1.51H558.6Zm0,2.58h1.51V89H558.6Z" fill="#3b4351"/><path d="M561.34,85.23c0-2.36.62-4,2.81-4s2.81,1.61,2.81,4-.73,4-2.81,4S561.34,87.58,561.34,85.23Zm2.81,2.84c1.1,0,1.3-.92,1.3-2.84,0-1.67-.2-2.85-1.3-2.85s-1.29,1.18-1.29,2.85C562.86,87.15,563.07,88.07,564.15,88.07Z" fill="#3b4351"/><path d="M568.12,81.46h1.43v.88h0a2.17,2.17,0,0,1,1.93-1.08c1.15,0,1.88.52,1.88,2V89h-1.51V83.83c0-1-.27-1.36-1-1.36-.62,0-1.21.46-1.21,1.47V89h-1.51Z" fill="#3b4351"/><path d="M577.92,85.23c0-2.36.62-4,2.8-4s2.82,1.61,2.82,4-.73,4-2.82,4S577.92,87.58,577.92,85.23Zm2.8,2.84c1.11,0,1.3-.92,1.3-2.84,0-1.67-.19-2.85-1.3-2.85s-1.29,1.18-1.29,2.85C579.43,87.15,579.64,88.07,580.72,88.07Z" fill="#3b4351"/><path d="M585.16,82.58h-1V81.46h1v-.7c0-1.42.68-1.88,1.92-1.88.32,0,.6,0,.82,0v1.17h-.42c-.56,0-.81.21-.81.71v.66h1.23v1.12h-1.23V89h-1.51Z" fill="#3b4351"/><path d="M591.28,81.46h1V79.32h1.52v2.14h1.23v1.12h-1.23v4.5c0,.6.16.79.68.79a2.75,2.75,0,0,0,.55,0V89a4.64,4.64,0,0,1-1.22.13c-1,0-1.53-.29-1.53-1.82V82.58h-1Z" fill="#3b4351"/><path d="M595.84,79h1.51v3.28l0,0a2.16,2.16,0,0,1,1.85-1c1.15,0,1.88.52,1.88,2V89h-1.51V83.83c0-1-.28-1.36-1.05-1.36-.62,0-1.21.47-1.21,1.47V89h-1.51Z" fill="#3b4351"/><path d="M603.88,85.42v.44c0,1,.12,2.3,1.26,2.3s1.2-1.22,1.2-1.69h1.43a2.48,2.48,0,0,1-2.65,2.72c-1.23,0-2.76-.36-2.76-3.85,0-2,.44-4.08,2.79-4.08,2.1,0,2.66,1.28,2.66,3.37v.79Zm2.42-1V84c0-1-.31-1.68-1.16-1.68s-1.26,1-1.26,1.93v.16Z" fill="#3b4351"/><path d="M612.11,81.15c0-1.12.36-1.92,1.59-2.16v.82a1,1,0,0,0-.7,1.13v.21h.7V83h-1.59Zm2.49,0A1.88,1.88,0,0,1,616.2,79v.82c-.44.11-.7.51-.7,1.13v.21h.7V83h-1.6Z" fill="#3b4351"/><path d="M618,79h3.24c1.49,0,2.69.68,2.69,2.43a2.11,2.11,0,0,1-1.48,2.27v0c1.1.2,1.8.86,1.8,2.55S623,89,621.13,89H618Zm2.86,4.22a1.4,1.4,0,0,0,1.47-1.58c0-1.19-.72-1.43-1.61-1.43h-1.12v3Zm.32,4.58c1,0,1.47-.6,1.47-1.76a1.52,1.52,0,0,0-1.57-1.7h-1.48v3.46Z" fill="#3b4351"/><path d="M625.09,85.23c0-2.36.61-4,2.8-4s2.81,1.61,2.81,4-.73,4-2.81,4S625.09,87.58,625.09,85.23Zm2.8,2.84c1.1,0,1.3-.92,1.3-2.84,0-1.67-.2-2.85-1.3-2.85s-1.29,1.18-1.29,2.85C626.6,87.15,626.81,88.07,627.89,88.07Z" fill="#3b4351"/><path d="M631.57,85.23c0-2.36.61-4,2.8-4s2.81,1.61,2.81,4-.72,4-2.81,4S631.57,87.58,631.57,85.23Zm2.8,2.84c1.11,0,1.3-.92,1.3-2.84,0-1.67-.19-2.85-1.3-2.85s-1.29,1.18-1.29,2.85C633.08,87.15,633.29,88.07,634.37,88.07Z" fill="#3b4351"/><path d="M638.34,79h1.52v5.62h0l2.29-3.15h1.75l-2.27,2.91L644.21,89h-1.65l-1.85-3.44-.85,1V89h-1.52Z" fill="#3b4351"/><path d="M647.89,85.23c0-2.36.62-4,2.8-4s2.82,1.61,2.82,4-.73,4-2.82,4S647.89,87.58,647.89,85.23Zm2.8,2.84c1.11,0,1.31-.92,1.31-2.84,0-1.67-.2-2.85-1.31-2.85s-1.29,1.18-1.29,2.85C649.4,87.15,649.61,88.07,650.69,88.07Z" fill="#3b4351"/><path d="M655.13,82.58h-1V81.46h1v-.7c0-1.42.69-1.88,1.92-1.88.32,0,.6,0,.82,0v1.17h-.42c-.56,0-.81.21-.81.71v.66h1.23v1.12h-1.23V89h-1.51Z" fill="#3b4351"/><path d="M661.25,81.46h1V79.32h1.52v2.14H665v1.12H663.8v4.5c0,.6.16.79.68.79a2.75,2.75,0,0,0,.55,0V89a4.64,4.64,0,0,1-1.22.13c-1,0-1.53-.29-1.53-1.82V82.58h-1Z" fill="#3b4351"/><path d="M665.81,79h1.51v3.28l0,0a2.14,2.14,0,0,1,1.85-1c1.14,0,1.87.52,1.87,2V89h-1.51V83.83c0-1-.28-1.36-1.05-1.36s-1.21.47-1.21,1.47V89h-1.51Z" fill="#3b4351"/><path d="M673.85,85.42v.44c0,1,.12,2.3,1.26,2.3s1.2-1.22,1.2-1.69h1.43a2.48,2.48,0,0,1-2.65,2.72c-1.23,0-2.76-.36-2.76-3.85,0-2,.44-4.08,2.79-4.08,2.1,0,2.66,1.28,2.66,3.37v.79Zm2.42-1V84c0-1-.31-1.68-1.16-1.68s-1.26,1-1.26,1.93v.16Z" fill="#3b4351"/><path d="M682.48,79h2.85c3.14,0,3.53,2.05,3.53,5s-.39,5-3.53,5h-2.85Zm1.6,8.8h1.32c1.31,0,1.86-.87,1.86-3.79s-.47-3.8-1.86-3.8h-1.32Z" fill="#3b4351"/><path d="M691.47,85.42v.44c0,1,.13,2.3,1.26,2.3s1.21-1.22,1.21-1.69h1.43a2.48,2.48,0,0,1-2.65,2.72c-1.23,0-2.76-.36-2.76-3.85,0-2,.43-4.08,2.79-4.08,2.1,0,2.66,1.28,2.66,3.37v.79Zm2.43-1V84c0-1-.31-1.68-1.17-1.68s-1.26,1-1.26,1.93v.16Z" fill="#3b4351"/><path d="M701.6,87.43c0,.28.17.53.39.53a.72.72,0,0,0,.25,0v1a1.58,1.58,0,0,1-.74.18c-.67,0-1.23-.27-1.27-1h0a1.94,1.94,0,0,1-1.88,1.11c-1.22,0-2-.66-2-2.11a2.08,2.08,0,0,1,1.75-2.37l1.18-.32c.54-.16.88-.31.88-1s-.24-1.12-1-1.12c-1,0-1.15.71-1.15,1.44h-1.42c0-1.61.65-2.48,2.64-2.48,1.33,0,2.4.52,2.4,1.85ZM700.17,85a12.39,12.39,0,0,1-1.68.7,1.23,1.23,0,0,0-.62,1.22c0,.63.31,1.13.94,1.13.91,0,1.36-.67,1.36-1.79Z" fill="#3b4351"/><path d="M707,88.07h0a1.61,1.61,0,0,1-1.65,1.12c-1.76,0-2.47-1.48-2.47-4.06,0-3.35,1.18-3.87,2.33-3.87a1.74,1.74,0,0,1,1.7,1.08h0V79h1.52V89H707Zm-1.38-5.6c-.85,0-1.17.7-1.17,2.73,0,1.71.21,2.79,1.27,2.79s1.28-1,1.28-2.68C707,83.5,706.79,82.47,705.61,82.47Z" fill="#3b4351"/><path d="M710.08,79h1.6v1.85a1.88,1.88,0,0,1-1.6,2.16v-.81a1.05,1.05,0,0,0,.7-1.14v-.21h-.7Zm2.49,0h1.6v1.85c0,1.12-.36,1.92-1.6,2.16v-.81c.44-.11.7-.52.7-1.14v-.21h-.7Z" fill="#3b4351"/></g></g><g id="Ageans"><g id="Title"><g id="small-3" data-name="small"><path d="M127.56,43.91v.21c0,1.81-.75,3.58-3.09,3.58-2.52,0-3.3-1.63-3.3-5.2s.78-5.2,3.32-5.2c2.84,0,3,2.09,3,3.14v.18h-1.6v-.17c0-.93-.28-2-1.43-1.94s-1.7.73-1.7,4,.51,4,1.7,4c1.35,0,1.49-1.47,1.49-2.41v-.17Z" fill="#3b4351"/><path d="M128.64,37.5h1.52v10h-1.52Z" fill="#3b4351"/><path d="M136.63,45.93c0,.28.16.53.39.53a.57.57,0,0,0,.25,0v1a1.58,1.58,0,0,1-.74.18c-.67,0-1.23-.26-1.28-1h0a2,2,0,0,1-1.88,1.11c-1.22,0-2-.66-2-2.12a2.08,2.08,0,0,1,1.75-2.37l1.18-.32c.54-.15.88-.31.88-1s-.24-1.12-1-1.12c-1,0-1.15.72-1.15,1.45h-1.43c0-1.61.66-2.48,2.65-2.48,1.33,0,2.4.52,2.4,1.85Zm-1.43-2.41a11.23,11.23,0,0,1-1.68.7,1.23,1.23,0,0,0-.62,1.22c0,.63.31,1.14.94,1.14.91,0,1.36-.68,1.36-1.8Z" fill="#3b4351"/><path d="M141.41,42.16V42c0-.61-.21-1.17-1-1.17-.6,0-1.08.27-1.08,1s.27.82,1.07,1.1l1,.34A2,2,0,0,1,143,45.4c0,1.61-1.19,2.3-2.7,2.3-1.91,0-2.48-.89-2.48-2.34v-.28h1.34v.23c0,.89.3,1.35,1.18,1.35s1.23-.42,1.23-1.11a1.09,1.09,0,0,0-.82-1.1L139.52,44a2,2,0,0,1-1.61-2.17c0-1.41,1-2.07,2.58-2.07,1.92,0,2.35,1.12,2.35,2.06v.33Z" fill="#3b4351"/><path d="M147.38,42.16V42c0-.61-.21-1.17-1-1.17-.6,0-1.07.27-1.07,1s.26.82,1.06,1.1l1,.34A2,2,0,0,1,149,45.4c0,1.61-1.2,2.3-2.71,2.3-1.9,0-2.48-.89-2.48-2.34v-.28h1.35v.23c0,.89.29,1.35,1.17,1.35s1.24-.42,1.24-1.11a1.09,1.09,0,0,0-.83-1.1L145.49,44a2,2,0,0,1-1.61-2.17c0-1.41,1-2.07,2.57-2.07,1.92,0,2.36,1.12,2.36,2.06v.33Z" fill="#3b4351"/><path d="M150.16,37.39h1.51V38.9h-1.51Zm0,2.57h1.51V47.5h-1.51Z" fill="#3b4351"/><path d="M158.28,44.75c-.11,1.81-.7,3-2.57,3-2.19,0-2.8-1.61-2.8-4s.61-4,2.8-4a2.43,2.43,0,0,1,2.59,2.7h-1.51c0-.7-.19-1.62-1.08-1.58-1.08,0-1.29,1.17-1.29,2.84s.21,2.85,1.29,2.85c.84,0,1.15-.69,1.15-1.83Z" fill="#3b4351"/><path d="M164.36,45.93c0,.28.17.53.39.53a.54.54,0,0,0,.25,0v1a1.55,1.55,0,0,1-.74.18c-.67,0-1.23-.26-1.27-1h0a2,2,0,0,1-1.88,1.11c-1.22,0-2-.66-2-2.12a2.08,2.08,0,0,1,1.75-2.37l1.18-.32c.55-.15.88-.31.88-1s-.24-1.12-1-1.12c-1,0-1.14.72-1.14,1.45h-1.43c0-1.61.66-2.48,2.64-2.48,1.34,0,2.4.52,2.4,1.85Zm-1.43-2.41a11.23,11.23,0,0,1-1.68.7,1.25,1.25,0,0,0-.62,1.22c0,.63.31,1.14.94,1.14.91,0,1.36-.68,1.36-1.8Z" fill="#3b4351"/><path d="M166,37.5h1.51v10H166Z" fill="#3b4351"/><path d="M172.46,37.5H175l1.76,7.41h0l1.74-7.41h2.43v10h-1.51V39.18h0l-2,8.32H176l-2-8.32h0V47.5h-1.52Z" fill="#3b4351"/><path d="M182.54,37.39h1.52V38.9h-1.52Zm0,2.57h1.52V47.5h-1.52Z" fill="#3b4351"/><path d="M185.58,40H187v.89h0A2.15,2.15,0,0,1,189,39.77c1.15,0,1.88.52,1.88,2V47.5h-1.51V42.33c0-1-.27-1.36-1-1.36-.62,0-1.21.46-1.21,1.47V47.5h-1.51Z" fill="#3b4351"/><path d="M192,43.73c0-2.35.62-4,2.8-4s2.82,1.61,2.82,4-.73,4-2.82,4S192,46.09,192,43.73Zm2.8,2.85c1.11,0,1.3-.93,1.3-2.85,0-1.67-.19-2.84-1.3-2.84s-1.29,1.17-1.29,2.84C193.53,45.65,193.74,46.58,194.82,46.58Z" fill="#3b4351"/><path d="M203.74,45.93c0,.28.17.53.39.53a.59.59,0,0,0,.26,0v1a1.63,1.63,0,0,1-.75.18c-.67,0-1.23-.26-1.27-1h0a2,2,0,0,1-1.88,1.11c-1.21,0-2-.66-2-2.12a2.09,2.09,0,0,1,1.75-2.37l1.18-.32c.55-.15.88-.31.88-1s-.24-1.12-1-1.12c-1,0-1.15.72-1.15,1.45H198.7c0-1.61.66-2.48,2.65-2.48,1.33,0,2.39.52,2.39,1.85Zm-1.43-2.41a11.23,11.23,0,0,1-1.68.7,1.24,1.24,0,0,0-.61,1.22c0,.63.3,1.14.93,1.14.91,0,1.36-.68,1.36-1.8Z" fill="#3b4351"/><path d="M205.28,40h1.43v.89h0a2.15,2.15,0,0,1,1.93-1.08c1.15,0,1.88.52,1.88,2V47.5h-1.51V42.33c0-1-.27-1.36-1.05-1.36-.62,0-1.21.46-1.21,1.47V47.5h-1.51Z" fill="#3b4351"/><path d="M220.32,45.93c0,.28.17.53.39.53a.54.54,0,0,0,.25,0v1a1.58,1.58,0,0,1-.74.18c-.67,0-1.23-.26-1.28-1h0A2,2,0,0,1,217,47.7c-1.22,0-2-.66-2-2.12a2.08,2.08,0,0,1,1.75-2.37l1.18-.32c.54-.15.88-.31.88-1s-.24-1.12-1-1.12c-1,0-1.15.72-1.15,1.45h-1.43c0-1.61.66-2.48,2.65-2.48,1.33,0,2.4.52,2.4,1.85Zm-1.43-2.41a11.23,11.23,0,0,1-1.68.7,1.23,1.23,0,0,0-.62,1.22c0,.63.31,1.14.94,1.14.91,0,1.36-.68,1.36-1.8Z" fill="#3b4351"/><path d="M221.85,40h1.52v1.18h0a1.87,1.87,0,0,1,1.76-1.37.89.89,0,0,1,.36,0v1.54a2.18,2.18,0,0,0-.63-.08c-.69,0-1.51.31-1.51,1.71V47.5h-1.52Z" fill="#3b4351"/><path d="M225.59,40h1V37.82h1.51V40h1.23v1.12h-1.23v4.5c0,.6.17.8.69.8a2.7,2.7,0,0,0,.54,0v1.12a5.08,5.08,0,0,1-1.21.12c-1,0-1.53-.29-1.53-1.82V41.08h-1Z" fill="#3b4351"/><path d="M236.77,47.7a1.74,1.74,0,0,1-1.71-1.08h0V50h-1.51V40h1.42v.93h0a1.79,1.79,0,0,1,1.7-1.12c1.72,0,2.42,1.47,2.42,4.06C239.09,47,237.82,47.7,236.77,47.7ZM236.22,41c-1,0-1.28,1.05-1.28,2.68,0,1.81.23,2.84,1.29,2.84.86,0,1.26-.64,1.26-2.73C237.49,42.05,237.28,41,236.22,41Z" fill="#3b4351"/><path d="M241.55,43.93v.43c0,1,.13,2.3,1.26,2.3S244,45.44,244,45h1.43a2.48,2.48,0,0,1-2.65,2.72c-1.23,0-2.76-.37-2.76-3.86,0-2,.43-4.07,2.79-4.07,2.1,0,2.66,1.27,2.66,3.36v.8Zm2.43-1v-.4c0-1-.31-1.69-1.17-1.69s-1.26,1-1.26,1.94v.15Z" fill="#3b4351"/><path d="M246.73,40h1.51v1.18h0A1.87,1.87,0,0,1,250,39.77a.94.94,0,0,1,.37,0v1.54a2.24,2.24,0,0,0-.63-.08c-.69,0-1.52.31-1.52,1.71V47.5h-1.51Z" fill="#3b4351"/><path d="M251.21,37.39h1.51V38.9h-1.51Zm0,2.57h1.51V47.5h-1.51Z" fill="#3b4351"/><path d="M254,43.73c0-2.35.62-4,2.81-4s2.81,1.61,2.81,4-.73,4-2.81,4S254,46.09,254,43.73Zm2.81,2.85c1.1,0,1.3-.93,1.3-2.85,0-1.67-.2-2.84-1.3-2.84s-1.29,1.17-1.29,2.84C255.47,45.65,255.68,46.58,256.76,46.58Z" fill="#3b4351"/><path d="M264.58,46.58h0a1.62,1.62,0,0,1-1.66,1.12c-1.75,0-2.46-1.49-2.46-4.07,0-3.34,1.17-3.86,2.32-3.86a1.73,1.73,0,0,1,1.71,1.08h0V37.5H266v10h-1.43ZM263.21,41c-.85,0-1.18.7-1.18,2.73,0,1.71.21,2.79,1.28,2.79s1.27-1.05,1.27-2.67C264.58,42,264.39,41,263.21,41Z" fill="#3b4351"/><path d="M267.62,45.65h1.6V47.5h-1.6Z" fill="#3b4351"/><path d="M280.43,43.91v.21c0,1.81-.74,3.58-3.08,3.58-2.52,0-3.31-1.63-3.31-5.2s.79-5.2,3.32-5.2c2.85,0,3,2.09,3,3.14v.18h-1.6v-.17c0-.93-.28-2-1.43-1.94s-1.71.73-1.71,4,.52,4,1.71,4c1.35,0,1.49-1.47,1.49-2.41v-.17Z" fill="#3b4351"/><path d="M281.45,40H283v1.18h0a1.87,1.87,0,0,1,1.75-1.37.94.94,0,0,1,.37,0v1.54a2.3,2.3,0,0,0-.63-.08c-.69,0-1.52.31-1.52,1.71V47.5h-1.51Z" fill="#3b4351"/><path d="M287.08,43.93v.43c0,1,.13,2.3,1.26,2.3s1.2-1.22,1.2-1.68H291a2.48,2.48,0,0,1-2.64,2.72c-1.24,0-2.76-.37-2.76-3.86,0-2,.43-4.07,2.78-4.07,2.1,0,2.67,1.27,2.67,3.36v.8Zm2.42-1v-.4c0-1-.31-1.69-1.16-1.69s-1.26,1-1.26,1.94v.15Z" fill="#3b4351"/><path d="M291.59,40h1V37.82h1.52V40h1.23v1.12h-1.23v4.5c0,.6.16.8.68.8a2.75,2.75,0,0,0,.55,0v1.12a5.17,5.17,0,0,1-1.22.12c-1,0-1.53-.29-1.53-1.82V41.08h-1Z" fill="#3b4351"/><path d="M301.1,45.93c0,.28.16.53.39.53a.57.57,0,0,0,.25,0v1a1.58,1.58,0,0,1-.74.18c-.67,0-1.24-.26-1.28-1h0a1.94,1.94,0,0,1-1.87,1.11c-1.22,0-2-.66-2-2.12a2.08,2.08,0,0,1,1.75-2.37l1.17-.32c.55-.15.89-.31.89-1s-.24-1.12-1-1.12c-1,0-1.15.72-1.15,1.45h-1.43c0-1.61.66-2.48,2.65-2.48,1.33,0,2.4.52,2.4,1.85Zm-1.43-2.41a11.23,11.23,0,0,1-1.68.7,1.23,1.23,0,0,0-.62,1.22c0,.63.31,1.14.94,1.14.91,0,1.36-.68,1.36-1.8Z" fill="#3b4351"/><path d="M302.63,40h1.43v.89h0A2.16,2.16,0,0,1,306,39.77c1.14,0,1.87.52,1.87,2V47.5H306.4V42.33c0-1-.27-1.36-1-1.36-.62,0-1.2.46-1.2,1.47V47.5h-1.52Z" fill="#3b4351"/><path d="M312.62,42.16V42c0-.61-.21-1.17-1-1.17-.6,0-1.08.27-1.08,1s.27.82,1.07,1.1l1,.34a2,2,0,0,1,1.64,2.17c0,1.61-1.19,2.3-2.7,2.3-1.91,0-2.48-.89-2.48-2.34v-.28h1.34v.23c0,.89.3,1.35,1.18,1.35s1.23-.42,1.23-1.11a1.09,1.09,0,0,0-.82-1.1L310.73,44a2,2,0,0,1-1.62-2.17c0-1.41,1-2.07,2.58-2.07,1.92,0,2.35,1.12,2.35,2.06v.33Z" fill="#3b4351"/><path d="M318.4,43.73c0-2.35.61-4,2.8-4s2.81,1.61,2.81,4-.73,4-2.81,4S318.4,46.09,318.4,43.73Zm2.8,2.85c1.1,0,1.3-.93,1.3-2.85,0-1.67-.2-2.84-1.3-2.84s-1.29,1.17-1.29,2.84C319.91,45.65,320.12,46.58,321.2,46.58Z" fill="#3b4351"/><path d="M325.63,41.08h-1.05V40h1.05v-.7c0-1.41.69-1.87,1.92-1.87a6.47,6.47,0,0,1,.83,0v1.16H328c-.56,0-.81.21-.81.72V40h1.23v1.12h-1.23V47.5h-1.52Z" fill="#3b4351"/><path d="M331.75,40h1V37.82h1.51V40h1.23v1.12H334.3v4.5c0,.6.17.8.69.8a2.7,2.7,0,0,0,.54,0v1.12a5.08,5.08,0,0,1-1.21.12c-1,0-1.53-.29-1.53-1.82V41.08h-1Z" fill="#3b4351"/><path d="M336.32,37.5h1.51v3.28l0,0a2.15,2.15,0,0,1,1.85-1c1.15,0,1.88.52,1.88,2V47.5h-1.52V42.33c0-1-.28-1.36-1.05-1.36-.61,0-1.2.48-1.2,1.47V47.5h-1.51Z" fill="#3b4351"/><path d="M343.12,37.39h1.51V38.9h-1.51Zm0,2.57h1.51V47.5h-1.51Z" fill="#3b4351"/><path d="M349.41,42.16V42c0-.61-.21-1.17-1-1.17-.6,0-1.08.27-1.08,1s.27.82,1.07,1.1l1,.34A2,2,0,0,1,351,45.4c0,1.61-1.19,2.3-2.7,2.3-1.9,0-2.48-.89-2.48-2.34v-.28h1.35v.23c0,.89.29,1.35,1.17,1.35s1.24-.42,1.24-1.11a1.09,1.09,0,0,0-.83-1.1L347.52,44a2,2,0,0,1-1.61-2.17c0-1.41,1-2.07,2.57-2.07,1.92,0,2.36,1.12,2.36,2.06v.33Z" fill="#3b4351"/><path d="M357,48.14a1,1,0,0,0,1.1.9,1.24,1.24,0,0,0,1.27-1.41V46.41h0a1.81,1.81,0,0,1-1.71,1c-1.75,0-2.25-1.72-2.25-3.79,0-1.65.25-3.88,2.39-3.88a1.66,1.66,0,0,1,1.66,1.12h0V40h1.42v7.18c0,1.83-.78,2.94-2.81,2.94-2.24,0-2.49-1.32-2.49-1.94Zm1.07-1.9c1.18,0,1.3-1.49,1.3-2.68s-.15-2.59-1.2-2.59-1.28,1.12-1.28,2.52S356.94,46.24,358.06,46.24Z" fill="#3b4351"/><path d="M362.3,40h1.51v1.18h0a1.87,1.87,0,0,1,1.75-1.37.86.86,0,0,1,.36,0v1.54a2.18,2.18,0,0,0-.63-.08c-.68,0-1.51.31-1.51,1.71V47.5H362.3Z" fill="#3b4351"/><path d="M367.93,43.93v.43c0,1,.12,2.3,1.26,2.3s1.2-1.22,1.2-1.68h1.43a2.48,2.48,0,0,1-2.65,2.72c-1.23,0-2.76-.37-2.76-3.86,0-2,.44-4.07,2.79-4.07,2.1,0,2.66,1.27,2.66,3.36v.8Zm2.42-1v-.4c0-1-.31-1.69-1.16-1.69s-1.26,1-1.26,1.94v.15Z" fill="#3b4351"/><path d="M378.05,45.93c0,.28.17.53.39.53a.59.59,0,0,0,.26,0v1a1.63,1.63,0,0,1-.75.18c-.67,0-1.23-.26-1.27-1h0a2,2,0,0,1-1.88,1.11c-1.21,0-2-.66-2-2.12a2.09,2.09,0,0,1,1.75-2.37l1.18-.32c.55-.15.88-.31.88-1s-.24-1.12-1-1.12c-1,0-1.15.72-1.15,1.45H373c0-1.61.66-2.48,2.65-2.48,1.33,0,2.39.52,2.39,1.85Zm-1.43-2.41a11.23,11.23,0,0,1-1.68.7,1.24,1.24,0,0,0-.61,1.22c0,.63.3,1.14.93,1.14.91,0,1.36-.68,1.36-1.8Z" fill="#3b4351"/><path d="M378.92,40h1V37.82h1.52V40h1.23v1.12h-1.23v4.5c0,.6.16.8.68.8a2.75,2.75,0,0,0,.55,0v1.12a5.17,5.17,0,0,1-1.22.12c-1,0-1.53-.29-1.53-1.82V41.08h-1Z" fill="#3b4351"/><path d="M106.27,101.75c-.11,1.81-.7,3-2.58,3-2.18,0-2.8-1.61-2.8-4s.62-4,2.8-4a2.43,2.43,0,0,1,2.59,2.7h-1.51c0-.7-.18-1.62-1.08-1.58-1.08,0-1.29,1.17-1.29,2.84s.21,2.85,1.29,2.85c.84,0,1.15-.69,1.15-1.83Z" fill="#3b4351"/><path d="M107.11,100.73c0-2.35.61-4,2.8-4s2.81,1.61,2.81,4-.73,4-2.81,4S107.11,103.09,107.11,100.73Zm2.8,2.85c1.1,0,1.3-.93,1.3-2.85,0-1.67-.2-2.84-1.3-2.84s-1.29,1.17-1.29,2.84C108.62,102.65,108.83,103.58,109.91,103.58Z" fill="#3b4351"/><path d="M114,97h1.43v.89h0a2.11,2.11,0,0,1,1.81-1.08A1.63,1.63,0,0,1,119,97.92a2.06,2.06,0,0,1,1.91-1.15c1.06,0,1.83.54,1.83,2v5.73h-1.51V99.33c0-1-.3-1.36-.91-1.36s-1.21.48-1.21,1.47v5.06h-1.51V99.33c0-1-.29-1.36-.92-1.36s-1.2.49-1.2,1.47v5.06H114Z" fill="#3b4351"/><path d="M127.49,104.7a1.74,1.74,0,0,1-1.71-1.08h0V107h-1.51V97h1.43v.93h0a1.78,1.78,0,0,1,1.69-1.12c1.73,0,2.43,1.47,2.43,4.06C129.82,104,128.54,104.7,127.49,104.7ZM127,98c-1,0-1.28,1-1.28,2.68,0,1.81.22,2.84,1.29,2.84.85,0,1.26-.64,1.26-2.73C128.22,99.05,128,98,127,98Z" fill="#3b4351"/><path d="M135.92,102.93c0,.28.17.53.39.53a.54.54,0,0,0,.25,0v1a1.55,1.55,0,0,1-.74.18c-.67,0-1.23-.26-1.27-1h0a2,2,0,0,1-1.88,1.11c-1.22,0-2-.66-2-2.12a2.08,2.08,0,0,1,1.75-2.37l1.18-.32c.55-.15.88-.31.88-1s-.24-1.12-1-1.12c-1,0-1.14.72-1.14,1.45h-1.43c0-1.61.66-2.48,2.65-2.48,1.33,0,2.39.52,2.39,1.85Zm-1.43-2.41a11.23,11.23,0,0,1-1.68.7,1.25,1.25,0,0,0-.62,1.22c0,.63.31,1.14.94,1.14.91,0,1.36-.68,1.36-1.8Z" fill="#3b4351"/><path d="M137.46,97H139v1.18h0a1.85,1.85,0,0,1,1.75-1.37.89.89,0,0,1,.36,0v1.54a2.18,2.18,0,0,0-.63-.08c-.68,0-1.51.31-1.51,1.71v4.51h-1.51Z" fill="#3b4351"/><path d="M141.94,94.39h1.51V95.9h-1.51Zm0,2.57h1.51v7.54h-1.51Z" fill="#3b4351"/><path d="M145,94.5h1.51v3.35h0a1.73,1.73,0,0,1,1.71-1.08c1.14,0,2.32.52,2.32,3.86,0,2.6-.71,4.07-2.47,4.07a1.61,1.61,0,0,1-1.65-1.12h0v.92H145Zm2.7,9c1.06,0,1.27-1.08,1.27-2.79,0-2-.32-2.73-1.17-2.73-1.18,0-1.38,1-1.38,2.85C146.4,102.44,146.64,103.49,147.68,103.49Z" fill="#3b4351"/><path d="M151.78,94.5h1.51v10h-1.51Z" fill="#3b4351"/><path d="M156.12,100.93v.43c0,1,.13,2.3,1.26,2.3s1.21-1.22,1.21-1.68H160a2.48,2.48,0,0,1-2.64,2.72c-1.24,0-2.76-.37-2.76-3.86,0-2,.43-4.07,2.78-4.07,2.11,0,2.67,1.27,2.67,3.36v.8Zm2.42-1v-.4c0-1-.31-1.69-1.16-1.69s-1.26,1-1.26,1.94v.15Z" fill="#3b4351"/><path d="M164.14,97h1.57l1,5.94h0L167.91,97h1.71l1.12,5.94h0l1-5.94h1.52l-1.73,7.54H169.9l-1.18-5.86h0l-1.08,5.86h-1.76Z" fill="#3b4351"/><path d="M174.32,94.39h1.51V95.9h-1.51Zm0,2.57h1.51v7.54h-1.51Z" fill="#3b4351"/><path d="M176.68,97h1V94.82h1.51V97h1.24v1.12h-1.24v4.5c0,.6.17.8.69.8a2.81,2.81,0,0,0,.55,0v1.12a5.23,5.23,0,0,1-1.22.12c-1,0-1.53-.29-1.53-1.82V98.08h-1Z" fill="#3b4351"/><path d="M181.25,94.5h1.51v3.28l0,0a2.18,2.18,0,0,1,1.85-1c1.15,0,1.88.52,1.88,2v5.69H185V99.33c0-1-.28-1.36-1.05-1.36-.62,0-1.21.48-1.21,1.47v5.06h-1.51Z" fill="#3b4351"/><path d="M191.44,94.5h5.41v1.34H193v2.78h3.58V100H193v3.2H197v1.34h-5.52Z" fill="#3b4351"/><path d="M199.59,105.14a1,1,0,0,0,1.09.9,1.25,1.25,0,0,0,1.28-1.41v-1.22h0a1.81,1.81,0,0,1-1.71,1c-1.75,0-2.26-1.72-2.26-3.79,0-1.65.26-3.88,2.4-3.88A1.65,1.65,0,0,1,202,97.89h0V97h1.43v7.18c0,1.83-.79,2.94-2.82,2.94-2.24,0-2.49-1.32-2.49-1.94Zm1.06-1.9c1.18,0,1.31-1.49,1.31-2.68S201.8,98,200.75,98s-1.27,1.12-1.27,2.52S199.53,103.24,200.65,103.24Z" fill="#3b4351"/><path d="M205.82,97l1.3,5.66h0l1.2-5.66h1.59l-2.08,7.82c-.6,2.06-1.06,2.34-2.63,2.3a3.05,3.05,0,0,1-.6-.06v-1.2a2,2,0,0,0,.49.05c.52,0,.85-.1,1-.59l.2-.61L204.19,97Z" fill="#3b4351"/><path d="M214,104.7a1.74,1.74,0,0,1-1.71-1.08h0V107h-1.52V97h1.43v.93h0a1.78,1.78,0,0,1,1.7-1.12c1.72,0,2.42,1.47,2.42,4.06C216.35,104,215.07,104.7,214,104.7ZM213.48,98c-1,0-1.28,1-1.28,2.68,0,1.81.23,2.84,1.29,2.84.86,0,1.26-.64,1.26-2.73C214.75,99.05,214.54,98,213.48,98Z" fill="#3b4351"/><path d="M216.84,97h1V94.82h1.51V97h1.24v1.12h-1.24v4.5c0,.6.17.8.69.8a2.75,2.75,0,0,0,.55,0v1.12a5.17,5.17,0,0,1-1.22.12c-1,0-1.53-.29-1.53-1.82V98.08h-1Z" fill="#3b4351"/><path d="M221.47,94.39H223V95.9h-1.51Zm0,2.57H223v7.54h-1.51Z" fill="#3b4351"/><path d="M229.45,102.93c0,.28.17.53.39.53a.59.59,0,0,0,.26,0v1a1.63,1.63,0,0,1-.75.18c-.67,0-1.23-.26-1.27-1h0a2,2,0,0,1-1.88,1.11c-1.21,0-2-.66-2-2.12a2.09,2.09,0,0,1,1.75-2.37l1.18-.32c.55-.15.88-.31.88-1s-.23-1.12-1-1.12c-1,0-1.15.72-1.15,1.45h-1.43c0-1.61.66-2.48,2.65-2.48,1.33,0,2.39.52,2.39,1.85ZM228,100.52a10.81,10.81,0,0,1-1.68.7,1.24,1.24,0,0,0-.61,1.22c0,.63.3,1.14.93,1.14.92,0,1.36-.68,1.36-1.8Z" fill="#3b4351"/><path d="M231,97h1.43v.89h0a2.15,2.15,0,0,1,1.93-1.08c1.15,0,1.88.52,1.88,2v5.69h-1.51V99.33c0-1-.27-1.36-1-1.36-.62,0-1.21.46-1.21,1.47v5.06H231Z" fill="#3b4351"/><path d="M241,99.16V99c0-.61-.21-1.17-1-1.17-.6,0-1.08.27-1.08,1s.27.82,1.06,1.1l1,.34a2,2,0,0,1,1.64,2.17c0,1.61-1.19,2.3-2.7,2.3-1.91,0-2.48-.89-2.48-2.34v-.28h1.34v.23c0,.89.3,1.35,1.18,1.35s1.23-.42,1.23-1.11a1.09,1.09,0,0,0-.83-1.1l-1.23-.44a2,2,0,0,1-1.61-2.17c0-1.41,1-2.07,2.58-2.07,1.92,0,2.35,1.12,2.35,2.06v.33Z" fill="#3b4351"/><path d="M252,102.93c0,.28.17.53.39.53a.59.59,0,0,0,.26,0v1a1.63,1.63,0,0,1-.75.18c-.67,0-1.23-.26-1.27-1h0a2,2,0,0,1-1.88,1.11c-1.21,0-2-.66-2-2.12a2.09,2.09,0,0,1,1.75-2.37l1.18-.32c.55-.15.88-.31.88-1s-.23-1.12-1-1.12c-1,0-1.15.72-1.15,1.45H247c0-1.61.66-2.48,2.65-2.48,1.33,0,2.39.52,2.39,1.85Zm-1.43-2.41a11.23,11.23,0,0,1-1.68.7,1.24,1.24,0,0,0-.61,1.22c0,.63.3,1.14.93,1.14.91,0,1.36-.68,1.36-1.8Z" fill="#3b4351"/><path d="M253.53,97H255v.89h0a2.15,2.15,0,0,1,1.93-1.08c1.15,0,1.88.52,1.88,2v5.69H257.3V99.33c0-1-.27-1.36-1.05-1.36-.62,0-1.21.46-1.21,1.47v5.06h-1.51Z" fill="#3b4351"/><path d="M264.12,103.58h0a1.62,1.62,0,0,1-1.66,1.12c-1.75,0-2.46-1.49-2.46-4.07,0-3.34,1.18-3.86,2.32-3.86A1.73,1.73,0,0,1,264,97.85h0V94.5h1.51v10h-1.42ZM262.74,98c-.85,0-1.17.7-1.17,2.73,0,1.71.21,2.79,1.27,2.79s1.28-1,1.28-2.67C264.12,99,263.92,98,262.74,98Z" fill="#3b4351"/><path d="M270.45,94.5h3.24c1.5,0,2.69.67,2.69,2.42a2.1,2.1,0,0,1-1.47,2.27v0c1.09.2,1.79.85,1.79,2.55s-1.2,2.73-3.08,2.73h-3.17Zm2.86,4.21a1.4,1.4,0,0,0,1.47-1.58c0-1.19-.71-1.43-1.61-1.43h-1.12v3Zm.32,4.59c1,0,1.48-.61,1.48-1.77a1.51,1.51,0,0,0-1.57-1.69h-1.49v3.46Z" fill="#3b4351"/><path d="M282.82,102.93c0,.28.17.53.39.53a.54.54,0,0,0,.25,0v1a1.55,1.55,0,0,1-.74.18c-.67,0-1.23-.26-1.27-1h0a2,2,0,0,1-1.88,1.11c-1.22,0-2-.66-2-2.12a2.08,2.08,0,0,1,1.75-2.37l1.18-.32c.54-.15.88-.31.88-1s-.24-1.12-1-1.12c-1,0-1.15.72-1.15,1.45h-1.42c0-1.61.65-2.48,2.64-2.48,1.33,0,2.4.52,2.4,1.85Zm-1.43-2.41a11.23,11.23,0,0,1-1.68.7,1.23,1.23,0,0,0-.62,1.22c0,.63.31,1.14.94,1.14.91,0,1.36-.68,1.36-1.8Z" fill="#3b4351"/><path d="M284.36,94.5h1.51v3.35h0a1.73,1.73,0,0,1,1.71-1.08c1.14,0,2.32.52,2.32,3.86,0,2.6-.71,4.07-2.46,4.07a1.62,1.62,0,0,1-1.66-1.12h0v.92h-1.43Zm2.7,9c1.06,0,1.27-1.08,1.27-2.79,0-2-.32-2.73-1.17-2.73-1.18,0-1.37,1-1.37,2.85C285.79,102.44,286,103.49,287.06,103.49Z" fill="#3b4351"/><path d="M291.93,97l1.3,5.66h0L294.47,97h1.58L294,104.78c-.61,2.06-1.07,2.34-2.64,2.3a3.05,3.05,0,0,1-.6-.06v-1.2a2,2,0,0,0,.49.05c.52,0,.85-.1,1-.59l.2-.61L290.31,97Z" fill="#3b4351"/><path d="M297,94.5h1.51v10H297Z" fill="#3b4351"/><path d="M299.7,100.73c0-2.35.62-4,2.8-4s2.82,1.61,2.82,4-.73,4-2.82,4S299.7,103.09,299.7,100.73Zm2.8,2.85c1.11,0,1.3-.93,1.3-2.85,0-1.67-.19-2.84-1.3-2.84s-1.29,1.17-1.29,2.84C301.21,102.65,301.42,103.58,302.5,103.58Z" fill="#3b4351"/><path d="M306.48,97h1.42v.89H308a2.13,2.13,0,0,1,1.93-1.08c1.15,0,1.88.52,1.88,2v5.69h-1.52V99.33c0-1-.26-1.36-1.05-1.36-.61,0-1.2.46-1.2,1.47v5.06h-1.51Z" fill="#3b4351"/><path d="M313.28,94.39h1.51V95.9h-1.51Zm0,2.57h1.51v7.54h-1.51Z" fill="#3b4351"/><path d="M321.26,102.93c0,.28.17.53.39.53a.59.59,0,0,0,.26,0v1a1.63,1.63,0,0,1-.75.18c-.67,0-1.23-.26-1.27-1h0A2,2,0,0,1,318,104.7c-1.21,0-2-.66-2-2.12a2.09,2.09,0,0,1,1.75-2.37l1.18-.32c.55-.15.88-.31.88-1s-.23-1.12-1-1.12c-1,0-1.15.72-1.15,1.45h-1.43c0-1.61.66-2.48,2.65-2.48,1.33,0,2.39.52,2.39,1.85Zm-1.43-2.41a11.23,11.23,0,0,1-1.68.7,1.24,1.24,0,0,0-.61,1.22c0,.63.3,1.14.94,1.14.91,0,1.35-.68,1.35-1.8Z" fill="#3b4351"/><path d="M322.8,97h1.43v.89h0a2.15,2.15,0,0,1,1.93-1.08c1.15,0,1.88.52,1.88,2v5.69h-1.51V99.33c0-1-.27-1.36-1.05-1.36-.62,0-1.21.46-1.21,1.47v5.06H322.8Z" fill="#3b4351"/><path d="M332.78,99.16V99c0-.61-.21-1.17-1-1.17-.6,0-1.08.27-1.08,1s.27.82,1.06,1.1l1,.34a2,2,0,0,1,1.64,2.17c0,1.61-1.19,2.3-2.7,2.3-1.91,0-2.48-.89-2.48-2.34v-.28h1.34v.23c0,.89.3,1.35,1.18,1.35s1.23-.42,1.23-1.11a1.09,1.09,0,0,0-.83-1.1l-1.23-.44a2,2,0,0,1-1.61-2.17c0-1.41,1-2.07,2.58-2.07,1.92,0,2.35,1.12,2.35,2.06v.33Z" fill="#3b4351"/><path d="M338.93,94.39h1.51V95.9h-1.51Zm0,2.57h1.51v7.54h-1.51Z" fill="#3b4351"/><path d="M342,97h1.42v.89h.05a2.13,2.13,0,0,1,1.93-1.08c1.15,0,1.88.52,1.88,2v5.69h-1.52V99.33c0-1-.26-1.36-1.05-1.36-.61,0-1.2.46-1.2,1.47v5.06H342Z" fill="#3b4351"/><path d="M355.91,103.58h0a1.61,1.61,0,0,1-1.65,1.12c-1.75,0-2.47-1.49-2.47-4.07,0-3.34,1.18-3.86,2.33-3.86a1.73,1.73,0,0,1,1.71,1.08h0V94.5h1.51v10h-1.43ZM354.54,98c-.86,0-1.18.7-1.18,2.73,0,1.71.21,2.79,1.28,2.79s1.27-1,1.27-2.67C355.91,99,355.71,98,354.54,98Z" fill="#3b4351"/><path d="M360.1,100.93v.43c0,1,.12,2.3,1.26,2.3s1.2-1.22,1.2-1.68H364a2.48,2.48,0,0,1-2.65,2.72c-1.23,0-2.76-.37-2.76-3.86,0-2,.44-4.07,2.79-4.07,2.1,0,2.66,1.27,2.66,3.36v.8Zm2.42-1v-.4c0-1-.31-1.69-1.16-1.69s-1.26,1-1.26,1.94v.15Z" fill="#3b4351"/><path d="M364.64,97h1.63l1.32,5.94h0L368.8,97h1.61l-2,7.54h-1.77Z" fill="#3b4351"/><path d="M372.54,100.93v.43c0,1,.13,2.3,1.26,2.3S375,102.44,375,102h1.42a2.48,2.48,0,0,1-2.64,2.72c-1.24,0-2.76-.37-2.76-3.86,0-2,.43-4.07,2.79-4.07,2.1,0,2.66,1.27,2.66,3.36v.8Zm2.42-1v-.4c0-1-.3-1.69-1.16-1.69s-1.26,1-1.26,1.94v.15Z" fill="#3b4351"/><path d="M377.79,94.5h1.51v10h-1.51Z" fill="#3b4351"/><path d="M380.53,100.73c0-2.35.62-4,2.81-4s2.81,1.61,2.81,4-.73,4-2.81,4S380.53,103.09,380.53,100.73Zm2.81,2.85c1.1,0,1.3-.93,1.3-2.85,0-1.67-.2-2.84-1.3-2.84s-1.29,1.17-1.29,2.84C382.05,102.65,382.26,103.58,383.34,103.58Z" fill="#3b4351"/><path d="M390.56,104.7a1.74,1.74,0,0,1-1.71-1.08h0V107h-1.51V97h1.43v.93h0a1.78,1.78,0,0,1,1.69-1.12c1.72,0,2.42,1.47,2.42,4.06C392.88,104,391.61,104.7,390.56,104.7ZM390,98c-1,0-1.27,1-1.27,2.68,0,1.81.22,2.84,1.29,2.84.85,0,1.26-.64,1.26-2.73C391.29,99.05,391.08,98,390,98Z" fill="#3b4351"/><path d="M394.11,97h1.43v.89h0a2.11,2.11,0,0,1,1.81-1.08,1.63,1.63,0,0,1,1.75,1.15,2.07,2.07,0,0,1,1.91-1.15c1.06,0,1.83.54,1.83,2v5.73h-1.51V99.33c0-1-.29-1.36-.91-1.36s-1.21.48-1.21,1.47v5.06h-1.51V99.33c0-1-.29-1.36-.92-1.36s-1.19.49-1.19,1.47v5.06h-1.52Z" fill="#3b4351"/><path d="M405.71,100.93v.43c0,1,.12,2.3,1.26,2.3s1.2-1.22,1.2-1.68h1.43A2.48,2.48,0,0,1,407,104.7c-1.23,0-2.76-.37-2.76-3.86,0-2,.44-4.07,2.79-4.07,2.1,0,2.66,1.27,2.66,3.36v.8Zm2.42-1v-.4c0-1-.31-1.69-1.16-1.69s-1.26,1-1.26,1.94v.15Z" fill="#3b4351"/><path d="M410.89,97h1.42v.89h.05a2.13,2.13,0,0,1,1.93-1.08c1.15,0,1.88.52,1.88,2v5.69h-1.52V99.33c0-1-.26-1.36-1-1.36-.61,0-1.2.46-1.2,1.47v5.06h-1.51Z" fill="#3b4351"/><path d="M417,97h1V94.82h1.52V97h1.23v1.12H419.5v4.5c0,.6.16.8.68.8a2.75,2.75,0,0,0,.55,0v1.12a5.17,5.17,0,0,1-1.22.12c-1,0-1.53-.29-1.53-1.82V98.08h-1Z" fill="#3b4351"/><path d="M424.58,100.73c0-2.35.61-4,2.8-4s2.81,1.61,2.81,4-.72,4-2.81,4S424.58,103.09,424.58,100.73Zm2.8,2.85c1.11,0,1.3-.93,1.3-2.85,0-1.67-.19-2.84-1.3-2.84s-1.29,1.17-1.29,2.84C426.09,102.65,426.3,103.58,427.38,103.58Z" fill="#3b4351"/><path d="M431.82,98.08h-1.05V97h1.05v-.7c0-1.41.68-1.87,1.91-1.87a6.47,6.47,0,0,1,.83,0v1.16h-.42c-.56,0-.81.21-.81.72V97h1.23v1.12h-1.23v6.42h-1.51Z" fill="#3b4351"/></g><g id="large-3" data-name="large"><path d="M196,12.08h3.58l4.6,17.5h-2.91l-1.08-4.29h-5.12L194,29.58H191Zm3.72,11-2-8.63h-.05l-2.08,8.63Z" fill="#3b4351"/><path d="M205.42,12.08h9.45v2.35h-6.66v4.86h6.27v2.35h-6.27v5.59h6.86v2.35h-9.65Z" fill="#3b4351"/><path d="M225.85,27.54h0A3.62,3.62,0,0,1,222,29.92c-3.82,0-5.2-2.84-5.2-9.09s1.77-9.09,5.81-9.09a4.76,4.76,0,0,1,5.12,5v.31h-2.64v-.41c0-1.3-.54-2.85-2.45-2.85s-3,1.33-3,6.92.93,7,2.81,7c2.14,0,2.92-1.52,2.92-5.34h-2.94V20.36H228v9.22h-2.11Z" fill="#3b4351"/><path d="M230.36,12.08h9.45v2.35h-6.66v4.86h6.27v2.35h-6.27v5.59H240v2.35h-9.65Z" fill="#3b4351"/><path d="M245.45,12.08H249l4.6,17.5h-2.91l-1.08-4.29h-5.12l-1.13,4.29h-2.92Zm3.72,11-2-8.63h0L245,23.06Z" fill="#3b4351"/><path d="M254.86,12.08h3.4l5.07,13h.05v-13H266v17.5h-3.41L257.55,16.2h-.05V29.58h-2.64Z" fill="#3b4351"/><path d="M271.07,24.16v.44c0,2.13,1,3.21,2.87,3.21a2.51,2.51,0,0,0,2.65-2.55c0-1.83-.93-2.64-2.5-3.11l-1.91-.66c-2.55-1-3.65-2.3-3.65-4.8,0-3.19,2.18-5,5.44-5,4.48,0,4.95,2.79,4.95,4.6v.4h-2.8v-.37c0-1.59-.68-2.53-2.45-2.53a2.24,2.24,0,0,0-2.35,2.53c0,1.49.76,2.25,2.62,3l1.89.69c2.47.88,3.55,2.21,3.55,4.63,0,3.73-2.25,5.27-5.78,5.27-4.34,0-5.32-2.89-5.32-5.34v-.42Z" fill="#3b4351"/><path d="M165.15,60.08h2.79V75.23h6.77v2.35h-9.56Z" fill="#3b4351"/><path d="M184.83,74.83c0,.49.29.93.68.93a1,1,0,0,0,.44-.07v1.72a2.83,2.83,0,0,1-1.3.31c-1.17,0-2.15-.46-2.23-1.74h0a3.42,3.42,0,0,1-3.29,1.94c-2.13,0-3.43-1.15-3.43-3.7,0-2.94,1.3-3.55,3.06-4.14l2.06-.56c1-.27,1.55-.54,1.55-1.7s-.42-2-1.82-2c-1.76,0-2,1.25-2,2.53H176c0-2.82,1.16-4.34,4.64-4.34,2.32,0,4.19.91,4.19,3.24Zm-2.5-4.21a20.94,20.94,0,0,1-2.94,1.22A2.18,2.18,0,0,0,178.31,74c0,1.1.54,2,1.64,2,1.59,0,2.38-1.18,2.38-3.14Z" fill="#3b4351"/><path d="M186.34,64.39h1.82V60.64h2.64v3.75H193v2H190.8v7.87c0,1,.3,1.4,1.2,1.4a4.91,4.91,0,0,0,1-.08v2a8.49,8.49,0,0,1-2.13.22c-1.77,0-2.67-.51-2.67-3.18V66.35h-1.82Z" fill="#3b4351"/><path d="M196.61,71.33v.76c0,1.76.22,4,2.2,4s2.11-2.13,2.11-2.94h2.5c0,3-1.76,4.75-4.63,4.75-2.16,0-4.83-.64-4.83-6.74,0-3.45.76-7.13,4.88-7.13,3.67,0,4.66,2.23,4.66,5.88v1.4Zm4.24-1.81V68.8c0-1.66-.54-2.94-2-2.94-1.66,0-2.2,1.67-2.2,3.39v.27Z" fill="#3b4351"/><path d="M211.72,60.08h4.37l3.08,13h.05l3-13h4.27v17.5h-2.65V63h0L220.3,77.58H218L214.42,63h0V77.58h-2.65Z" fill="#3b4351"/><path d="M229.36,59.88H232v2.65h-2.65Zm0,4.51H232V77.58h-2.65Z" fill="#3b4351"/><path d="M234.68,64.39h2.5v1.55h.07a3.77,3.77,0,0,1,3.38-1.89c2,0,3.29.91,3.29,3.58v10h-2.65v-9c0-1.77-.46-2.38-1.84-2.38-1.07,0-2.1.81-2.1,2.57v8.85h-2.65Z" fill="#3b4351"/><path d="M246,71c0-4.12,1.08-6.94,4.9-6.94s4.93,2.82,4.93,6.94-1.28,6.93-4.93,6.93S246,75.1,246,71Zm4.9,5c1.94,0,2.28-1.62,2.28-5,0-2.92-.34-5-2.28-5s-2.25,2.06-2.25,5C248.6,74.34,249,76,250.85,76Z" fill="#3b4351"/><path d="M266.46,74.83c0,.49.29.93.68.93a1.06,1.06,0,0,0,.45-.07v1.72a2.86,2.86,0,0,1-1.3.31c-1.18,0-2.16-.46-2.23-1.74H264a3.41,3.41,0,0,1-3.29,1.94c-2.13,0-3.43-1.15-3.43-3.7,0-2.94,1.3-3.55,3.07-4.14l2.05-.56c1-.27,1.55-.54,1.55-1.7s-.42-2-1.82-2c-1.76,0-2,1.25-2,2.53h-2.5c0-2.82,1.15-4.34,4.63-4.34,2.33,0,4.19.91,4.19,3.24ZM264,70.62A20.45,20.45,0,0,1,261,71.84,2.18,2.18,0,0,0,259.94,74c0,1.1.54,2,1.64,2,1.59,0,2.38-1.18,2.38-3.14Z" fill="#3b4351"/><path d="M269.15,64.39h2.5v1.55h.07a3.8,3.8,0,0,1,3.39-1.89c2,0,3.28.91,3.28,3.58v10h-2.65v-9c0-1.77-.46-2.38-1.84-2.38-1.07,0-2.1.81-2.1,2.57v8.85h-2.65Z" fill="#3b4351"/><path d="M287,60.08h5.53c3.36,0,4.83,2.11,4.83,5.1s-1.86,5.17-5.12,5.17h-2.45v7.23H287Zm2.79,8.16h2c1.49,0,2.79-.78,2.79-3,0-1.89-.76-3-3-3h-1.79Z" fill="#3b4351"/><path d="M301.34,71.33v.76c0,1.76.22,4,2.21,4s2.11-2.13,2.11-2.94h2.5c0,3-1.77,4.75-4.64,4.75-2.15,0-4.82-.64-4.82-6.74,0-3.45.76-7.13,4.87-7.13,3.68,0,4.66,2.23,4.66,5.88v1.4Zm4.24-1.81V68.8c0-1.66-.54-2.94-2-2.94-1.67,0-2.21,1.67-2.21,3.39v.27Z" fill="#3b4351"/><path d="M310.41,64.39h2.64v2.06h.05a3.26,3.26,0,0,1,3.07-2.4,1.36,1.36,0,0,1,.63.1v2.69a3.8,3.8,0,0,0-1.1-.14c-1.2,0-2.65.54-2.65,3v7.89h-2.64Z" fill="#3b4351"/><path d="M318.25,59.88h2.64v2.65h-2.64Zm0,4.51h2.64V77.58h-2.64Z" fill="#3b4351"/><path d="M323.05,71c0-4.12,1.08-6.94,4.9-6.94s4.93,2.82,4.93,6.94-1.28,6.93-4.93,6.93S323.05,75.1,323.05,71Zm4.9,5c1.94,0,2.28-1.62,2.28-5,0-2.92-.34-5-2.28-5s-2.25,2.06-2.25,5C325.7,74.34,326.06,76,328,76Z" fill="#3b4351"/><path d="M341.65,76h0a2.82,2.82,0,0,1-2.89,2c-3.07,0-4.32-2.6-4.32-7.11,0-5.85,2.06-6.76,4.07-6.76a3,3,0,0,1,3,1.89h.05V60.08h2.65v17.5h-2.5Zm-2.41-9.8c-1.49,0-2.05,1.22-2.05,4.78,0,3,.36,4.87,2.23,4.87s2.23-1.83,2.23-4.68C341.65,68,341.3,66.16,339.24,66.16Z" fill="#3b4351"/></g></g></g></g></svg>