<svg xmlns="http://www.w3.org/2000/svg" viewBox="0 0 1847.91 114"><title>bc1550text</title><g id="YEARS"><g id="Right"><path d="M1792.5,99.42V86.05h-3.82V84.13h.28c1.77,0,3.8-.44,4.35-2.76V81h2.15V99.42Z" fill="#3b4351"/><path d="M1800.43,94.45h2.81V95a2.35,2.35,0,0,0,2.41,2.6c2.08,0,2.63-2,2.63-4.19s-.57-3.93-2.47-3.93a2.36,2.36,0,0,0-2.42,1.69l-2.62-.1.91-9.65h8.86v2.37h-6.65l-.6,4.84,0,0a4.06,4.06,0,0,1,3.09-1.43c3.85,0,4.81,3.25,4.81,6.08,0,3.69-1.69,6.5-5.66,6.5-3.31,0-5.15-1.69-5.15-4.94Z" fill="#3b4351"/><path d="M1812.91,94.45h2.81V95a2.35,2.35,0,0,0,2.41,2.6c2.08,0,2.63-2,2.63-4.19s-.57-3.93-2.47-3.93a2.36,2.36,0,0,0-2.42,1.69l-2.62-.1.91-9.65H1823v2.37h-6.65l-.6,4.84,0,0a4.06,4.06,0,0,1,3.09-1.43c3.85,0,4.81,3.25,4.81,6.08,0,3.69-1.69,6.5-5.66,6.5-3.31,0-5.15-1.69-5.15-4.94Z" fill="#3b4351"/><path d="M1830.8,81c3.53,0,5.51,2.21,5.51,9.39s-2,9.38-5.51,9.38-5.52-2.21-5.52-9.38S1827.26,81,1830.8,81Zm0,16.69c2,0,2.54-2,2.54-7.3s-.54-7.31-2.54-7.31-2.55,2-2.55,7.31S1828.79,97.7,1830.8,97.7Z" fill="#3b4351"/></g><g id="left"><path d="M17.46,101.33V88H13.64V86h.29c1.77,0,3.79-.44,4.34-2.76v-.36h2.16v18.41Z" fill="#3b4351"/><path d="M25.39,96.36H28.2v.49a2.35,2.35,0,0,0,2.42,2.6c2.08,0,2.63-2,2.63-4.18s-.58-3.93-2.47-3.93A2.35,2.35,0,0,0,28.36,93l-2.63-.1.91-9.65h8.87v2.37H28.85l-.6,4.83.06.06a4,4,0,0,1,3.09-1.43c3.85,0,4.81,3.25,4.81,6.08,0,3.69-1.69,6.5-5.67,6.5-3.3,0-5.15-1.69-5.15-4.94Z" fill="#3b4351"/><path d="M37.87,96.36h2.81v.49a2.35,2.35,0,0,0,2.42,2.6c2.08,0,2.63-2,2.63-4.18s-.58-3.93-2.48-3.93A2.35,2.35,0,0,0,40.84,93l-2.63-.1.91-9.65H48v2.37H41.33l-.6,4.83.06.06a4,4,0,0,1,3.09-1.43c3.85,0,4.81,3.25,4.81,6.08,0,3.69-1.69,6.5-5.67,6.5-3.3,0-5.15-1.69-5.15-4.94Z" fill="#3b4351"/><path d="M55.76,82.92c3.54,0,5.51,2.21,5.51,9.38s-2,9.39-5.51,9.39-5.51-2.21-5.51-9.39S52.22,82.92,55.76,82.92Zm0,16.69c2,0,2.55-2,2.55-7.31S57.76,85,55.76,85s-2.55,2-2.55,7.3S53.76,99.61,55.76,99.61Z" fill="#3b4351"/></g></g><g id="Nation_OUtlines" data-name="Nation OUtlines"><polygon id="Iranians" points="1263.29 1464.17 1235.95 1350 1211.95 1235.5 1241.29 1125.5 1280.62 1013 1217.95 898.17 1163.29 788.84 1140.62 675.5 1175.95 565 1153.29 450.17 1137.95 336.84 1188.62 225.5 1153.95 112.84 1161.95 0 1156.67 -115.27 1152.84 -232.5 1131.29 -339 1198.62 -449.5 1275.29 -561.5 1277.29 -675.16 1268.62 -784.83 1283.88 -896.83 1411.11 -896.83 1445.69 -785.27 1480.18 -674.6 1462.18 -561.5 1438.19 -449.5 1387.19 -339 1387.19 -227 1420.19 -112.07 1429.19 0 1400.69 112.92 1417.19 226 1343.69 337 1325.69 451 1345.19 565 1313.69 677 1298.69 789 1310.69 899 1348.19 1013 1313.69 1126 1285.19 1237 1294.19 1350 1372.19 1464.17 1373.74 1572.73 1375.34 1684.73 1376.98 1800 1335.62 1910 1348.62 2022 1391.1 2134 1462.62 2245 1440.62 2357.73 1447.62 2474 1472.62 2586 1505.62 2697.73 1513.62 2807.73 1437.62 2919.73 1391.82 3034.73 1219.62 2920 1086.62 2808 890.71 2697.73 788.62 2586 767.62 2474 866.62 2358 1041.62 2244.73 1176.62 2133.73 1205.62 2021.73 1242.62 1909.73 1294.62 1800 1322.62 1687.17 1240.62 1573 1263.29 1464.17" fill="none" stroke="#3b4351" stroke-miterlimit="10"/><polygon id="Indians" points="1372.19 1464.17 1294.19 1350 1285.19 1237 1313.69 1126 1348.19 1013 1310.69 899 1298.69 789 1313.69 677 1345.19 565 1325.69 451 1343.69 337 1417.19 226 1400.69 112.92 1429.19 0 1419.27 -115.27 1387.19 -227 1387.19 -339 1438.19 -449.5 1462.18 -561.5 1480.18 -674.54 1445.82 -784.83 1411.11 -896.83 1545.86 -896.83 1580.1 -784.83 1593.12 -674.6 1552.12 -561.5 1514.62 -449.5 1514.12 -339.33 1553.12 -227.27 1548.12 -115 1519.62 0 1534.12 113.67 1575.12 226 1559.62 337 1564.12 450.73 1534.62 565 1486.12 677 1465.12 789 1471.12 898.17 1502.12 1012.17 1508.12 1126 1534.62 1237 1542.77 1315.86 1555.62 1464.17 1554.62 1573 1567.12 1685 1542.12 1799.73 1498.12 1910 1490.62 2022 1513.12 2134 1568.62 2245 1544.12 2358 1530.62 2473.73 1523.62 2585.73 1532.62 2698 1565.12 2808 1543.62 2920 1514.12 3035 1490.12 3144.73 1495.62 3259 1517.12 3372.67 1528.12 3478 1580.62 3590.67 1578.12 3706.67 1578.12 3817.17 1560.12 3928.73 1526.62 4044 1467.62 4158 1381.62 4269.73 1270.62 4380 1090.12 4492.73 860.62 4601 1302.12 4716 1377.03 4828 1550.62 4941 1519.62 5050.83 1476.12 5163.83 1516.13 5277.83 1534.62 5390.17 1552.65 5500.83 1585.62 5614.73 1620.12 5729.83 1650.12 5840.83 1630.62 5948.73 1622.45 6065.73 1565.62 6176.83 1402.62 6290.17 1173.62 6402.83 1148.62 6513.83 1334.62 6628.83 1283.62 6742.83 1344.62 6851.83 1544.62 6964.83 1602.62 7079.17 1627.62 7190.83 1674.62 7303.73 1627.62 7418.83 1634.62 7530.83 1686.62 7642.83 1701.62 7755.83 1620.12 7867.83 1606.12 7978.83 1606.12 8092.66 1552.62 8092.66 1549.52 7978.83 1569.62 7867.83 1683.62 7755.83 1667.62 7642.83 1607.62 7530.83 1596.62 7418.17 1617.62 7303.83 1584.62 7190.83 1562.62 7078.83 1507.62 6964.83 1304.62 6851.73 1225.62 6742.73 1236.97 6705.78 1264.87 6628.83 1082.62 6513.83 1084.2 6403.34 1323.62 6290.83 1500.47 6176.73 1573.62 6065.83 1600.62 5948.83 1604.62 5840.83 1569.62 5729.83 1514.62 5614.83 1447.62 5500.73 1418.62 5388.83 1404.62 5277.83 1367.62 5163.83 1397.62 5050.83 1418.62 4940.73 1339.62 4827.73 1246.62 4716 748.62 4601 753.62 4493 910.76 4380 1053.62 4270 1195.2 4158 1311.62 4043.17 1353.62 3929 1348.62 3818 1364.62 3706.17 1406.62 3591 1401.62 3478 1429.62 3373 1394.62 3258.73 1393.2 3145 1391.82 3034.73 1437.52 2920 1513.62 2807.73 1505.64 2698 1472.62 2586.17 1447.62 2474 1440.63 2358 1462.62 2245 1391.1 2134 1348.62 2022 1332.62 1910 1376.98 1800 1375.34 1684.73 1373.74 1572.73 1372.19 1464.17" fill="none" stroke="#3b4351" stroke-miterlimit="10"/><polygon id="Huns" points="1555.62 1464.17 1545.73 1350 1533.62 1236.67 1506.68 1126.64 1502.16 1013 1471.34 899 1465.12 789 1486.12 677 1534.62 565 1564.05 451 1559.62 337 1575.12 226 1534.24 114 1519.62 0 1548.12 -115 1553.11 -227 1514.47 -339.27 1514.62 -451.5 1552.12 -561.5 1593.12 -674.16 1580.1 -784.83 1545.86 -896.83 1633.99 -896.83 1651.62 -784.83 1667.62 -674.16 1646.62 -561.5 1620.62 -449.5 1630.4 -341.4 1650.62 -227.33 1676.62 -115 1700.12 0 1689.12 114 1714.62 225.67 1697.12 336.73 1645.62 450.73 1616.12 565 1586.62 676.73 1538.12 788.73 1509.12 899 1551.62 1013 1585.12 1126 1608.62 1236.67 1609.69 1349.73 1610.76 1462.73 1613.62 1572.73 1625.12 1684.73 1599.12 1800.67 1557.59 1910 1545.65 2022 1558.62 2134 1584.62 2244.73 1571.12 2358.17 1576.62 2474 1567.62 2586 1587.12 2698 1621.12 2808 1612.12 2920 1556.12 3035 1528.62 3145 1529.62 3259 1553.62 3373 1616.07 3478 1609.25 3591 1592.66 3707 1611.01 3817.73 1612.12 3929 1598.04 4044 1564.12 4158 1534.29 4270 1602.12 4379.73 1653.62 4493 1673.62 4601 1666.12 4716 1668.12 4827.67 1625.62 4940.67 1542.12 5050.83 1476.12 5163.83 1519.62 5050.83 1550.62 4941 1376.62 4827.73 1302.12 4716 860.62 4601 1090.12 4492.73 1270.62 4380 1381.62 4269.73 1467.62 4158 1526.62 4044 1560.12 3928.73 1578.12 3817.17 1578.12 3706.67 1580.62 3590.67 1528.12 3478 1517.12 3372.67 1495.62 3259 1490.12 3144.73 1514.12 3035 1543.62 2920 1565.12 2808 1532.62 2698 1523.62 2585.73 1530.62 2473.73 1544.12 2358 1568.62 2245 1513.12 2134 1490.62 2022 1498.12 1910 1542.12 1799.73 1567.12 1685 1554.62 1573 1555.62 1464.17" fill="none" stroke="#3b4351" stroke-miterlimit="10"/><polygon id="Hitites" points="347.74 1462.73 337.24 1350 361.62 1237 400.62 1126 439.62 1013 658.62 899 742.62 789 835.62 677 785.62 565 750.62 451 770.62 337 800.62 225.17 733.62 113.73 656.62 -0.08 662.62 -115 633.62 -227 663.62 -339 786.62 -449.5 940.62 -561.5 982.62 -674.16 1042.62 -784.83 1103.77 -896.83 1152.07 -896.83 1091.29 -784.83 1025.29 -674.16 1027.29 -561.5 910.76 -449.5 823.95 -339 785.95 -227 826.62 -115 853.28 0 910.76 113.73 992.62 226 961.95 336.17 971.95 450.84 969.28 565 975.28 676.84 954.62 786.84 857.28 899 623.95 1013 566.62 1126 481.23 1237 394.24 1350 347.74 1462.73" fill="none" stroke="#3b4351" stroke-miterlimit="10"/><polygon id="Egyptians" points="1195.2 3588.31 1131.14 3478 1168.66 3373.09 1099.2 3258.73 910.76 3144.73 897.95 3034.17 965.95 2920 965.28 2807.5 761.95 2698 645.95 2586 527.28 2474 401.29 2358 349.95 2245 319.29 2134 259.95 2022 262.62 1910 238.62 1800 217.95 1685 199.95 1573 228.62 1463 221.62 1350 250.62 1237 251.62 1126 223.25 1013 271.57 899 265.25 789 305.74 677 341.74 565 376.24 451 440.74 337 467.73 226.91 443.74 114 381.96 0 242.75 -115 298.62 -227 424.24 -339 460.24 -449.5 397.24 -561.5 319.24 -674.16 319.24 -784.83 298.62 -896.83 1103.77 -896.83 1042.62 -784.83 982.62 -674.16 940.62 -561.5 786.62 -449.5 663.62 -339 633.62 -227 662.62 -115 656.62 -0.08 733.62 113.73 800.62 225.17 770.62 337 750.62 451 785.62 565 835.62 677 742.62 789 658.62 899 439.62 1013 400.62 1126 361.62 1237 302.62 1350 310.62 1463 282.62 1573 271.95 1685 305.95 1910 323.95 2021.5 432.62 2134 476.62 2244.17 451.95 2358 555.95 2474 667.28 2586 813.28 2698 968.62 2808 995.95 2920 968.62 3034.84 940.62 3143.5 1130.91 3258.73 1189.62 3373.67 1157.7 3478 1195.2 3588.31" fill="none" stroke="#3b4351" stroke-miterlimit="10"/><polygon id="Chinese" points="1610.76 1462.73 1609.69 1349.73 1608.62 1236.67 1585.12 1126 1551.62 1013 1509.12 899 1538.12 788.73 1586.62 676.73 1616.12 565 1645.62 450.73 1697.12 336.73 1714.62 225.67 1689.12 114 1700.12 0 1676.62 -115 1650.62 -227.33 1630.62 -339 1620.62 -449.5 1646.62 -561.5 1667.62 -674.16 1651.62 -784.83 1633.99 -896.83 1768.79 -896.83 1768.79 7303.83 1768.79 7418.73 1766.12 7530.83 1757.62 7642.83 1736.12 7755.73 1676.12 7867.73 1661.12 7978.83 1663.62 8092.66 1606.12 8092.66 1606.12 7978.73 1620.12 7867.83 1701.62 7755.83 1696.12 7642.67 1654.12 7530.83 1681.62 7418.83 1739.62 7303.73 1748.62 7190.67 1744.12 7078.67 1685.62 6964.83 1615.12 6854.17 1636.12 6742.83 1738.62 6628.83 1761.12 6513.83 1758.62 6402.83 1732.12 6290.83 1695.62 6176.83 1667.62 6065.83 1651.12 5948.83 1650.12 5840.83 1620.12 5729.83 1585.62 5614.73 1552.62 5500.73 1535.12 5388.83 1516.12 5277.73 1476.12 5163.83 1542.12 5050.83 1625.62 4940.67 1668.12 4827.67 1666.12 4716 1673.62 4601 1653.62 4493 1602.12 4379.73 1534.12 4269.73 1564.12 4158 1598.12 4043.73 1612.12 3929 1611.01 3817.73 1592.62 3706.73 1609.25 3591 1616.07 3478 1553.62 3373 1529.62 3259 1528.62 3144.73 1555.62 3035 1612.12 2920 1621.12 2808 1587.12 2698 1567.62 2586 1576.62 2474 1571.12 2358 1584.62 2244.73 1558.62 2134 1545.62 2021.73 1557.62 1909.73 1599.62 1800 1625.12 1684.73 1613.62 1572.73 1610.76 1462.73" fill="none" stroke="#3b4351" stroke-miterlimit="10"/><polygon id="Amorites" points="1263.29 1464.17 1240.62 1573 1322.62 1685 1294.62 1800 1242.62 1909.73 1205.62 2021.73 1176.62 2133.73 1041.62 2244.73 866.62 2358 767.62 2474 788.62 2586 890.71 2697.73 762.62 2585.73 716.62 2473.73 709.62 2358 755.62 2245 1054.29 2133.73 1156.62 2022 1173.62 1908.17 1199.62 1798.17 1138.62 1685 910.76 1573 832.62 1462.73 949.95 1350 1040.62 1236.73 1141.31 1126 1225.29 1012.84 1147.62 899 1085.29 789 1061.29 676.73 1028.62 564.73 971.95 450.84 961.95 336.17 992.62 226 910.76 113.73 853.28 0 826.62 -115 785.95 -227 823.95 -339 910.76 -449.5 1027.29 -561.5 1025.29 -674.16 1091.29 -784.83 1152.07 -896.83 1283.88 -896.83 1268.62 -784.83 1277.29 -675.16 1275.29 -561.5 1198.62 -449.5 1131.29 -339 1153.95 -227 1156.67 -115.27 1161.95 0 1153.95 112.84 1188.62 225.5 1137.95 336.84 1153.29 450.17 1175.95 565 1140.62 675.5 1163.29 788.84 1217.95 898.17 1280.62 1013 1241.29 1125.5 1211.95 1235.5 1235.95 1350 1263.29 1464.17" fill="none" stroke="#3b4351" stroke-miterlimit="10"/><polygon id="Aegeans" points="223.25 1013 202.25 899 172.25 789 155.75 677 145.25 565 142.25 451 75.42 337 75.42 -896.83 298.62 -896.83 319.24 -784.83 319.24 -674.16 397.24 -561.5 460.24 -449.5 424.24 -339 298.62 -227 242.75 -115 381.96 0 443.74 114 467.73 226.91 440.74 337 376.24 451 341.74 565 305.74 677 265.25 789 271.57 899 223.25 1013" fill="none" stroke="#3b4351" stroke-miterlimit="10"/></g><g id="Text"><g id="Hittites"><g id="small"><path d="M717.15,21c0,.28.17.53.39.53a.72.72,0,0,0,.25,0v1a1.71,1.71,0,0,1-.74.18c-.67,0-1.23-.27-1.28-1h0a1.94,1.94,0,0,1-1.88,1.11c-1.22,0-2-.66-2-2.11a2.07,2.07,0,0,1,1.75-2.37l1.18-.32c.54-.16.88-.31.88-1s-.24-1.12-1-1.12c-1,0-1.15.71-1.15,1.44H712.1c0-1.61.66-2.48,2.65-2.48,1.33,0,2.4.52,2.4,1.85Zm-1.43-2.41a13.82,13.82,0,0,1-1.68.7,1.22,1.22,0,0,0-.62,1.22c0,.63.31,1.13.94,1.13.91,0,1.36-.67,1.36-1.79Z" fill="#3b4351"/><path d="M718.68,15.05h1.43v.88h0a2.15,2.15,0,0,1,1.93-1.08c1.15,0,1.88.52,1.88,2v5.68h-1.52V17.42c0-1-.26-1.36-1.05-1.36-.61,0-1.2.46-1.2,1.47v5h-1.52Z" fill="#3b4351"/><path d="M729.27,21.66h0a1.61,1.61,0,0,1-1.65,1.12c-1.75,0-2.47-1.48-2.47-4.06,0-3.35,1.18-3.87,2.33-3.87a1.74,1.74,0,0,1,1.71,1.08h0V12.58h1.51v10h-1.43Zm-1.37-5.6c-.86,0-1.18.7-1.18,2.73,0,1.71.21,2.79,1.28,2.79s1.27-1,1.27-2.68C729.27,17.09,729.07,16.06,727.9,16.06Z" fill="#3b4351"/><path d="M734.84,15.05h1V12.91h1.51v2.14h1.23v1.12h-1.23v4.5c0,.6.17.79.69.79a2.7,2.7,0,0,0,.54,0v1.12a4.64,4.64,0,0,1-1.22.13c-1,0-1.52-.3-1.52-1.82V16.17h-1Z" fill="#3b4351"/><path d="M740.71,19v.44c0,1,.12,2.29,1.26,2.29s1.2-1.21,1.2-1.68h1.43A2.48,2.48,0,0,1,742,22.78c-1.23,0-2.76-.36-2.76-3.85,0-2,.44-4.08,2.79-4.08,2.1,0,2.66,1.28,2.66,3.36V19Zm2.42-1v-.41c0-.95-.31-1.68-1.16-1.68s-1.26.95-1.26,1.93V18Z" fill="#3b4351"/><path d="M746,15.05h1.43v.88h0a2.11,2.11,0,0,1,1.8-1.08A1.65,1.65,0,0,1,751,16a2,2,0,0,1,1.9-1.15c1.06,0,1.84.55,1.84,2v5.72h-1.52V17.42c0-1-.29-1.36-.91-1.36s-1.2.47-1.2,1.47v5h-1.52V17.42c0-1-.29-1.36-.92-1.36s-1.19.49-1.19,1.47v5H746Z" fill="#3b4351"/><path d="M759.5,22.78a1.74,1.74,0,0,1-1.71-1.08h0v3.35h-1.51v-10h1.43V16h0a1.8,1.8,0,0,1,1.7-1.12c1.72,0,2.42,1.47,2.42,4.06C761.82,22.08,760.55,22.78,759.5,22.78ZM759,16.06c-1,0-1.27,1.05-1.27,2.67,0,1.81.22,2.85,1.28,2.85.86,0,1.26-.65,1.26-2.74C760.22,17.14,760,16.06,759,16.06Z" fill="#3b4351"/><path d="M763.05,12.58h1.51v10h-1.51Z" fill="#3b4351"/><path d="M767.39,19v.44c0,1,.13,2.29,1.26,2.29s1.21-1.21,1.21-1.68h1.43a2.48,2.48,0,0,1-2.65,2.72c-1.24,0-2.76-.36-2.76-3.85,0-2,.43-4.08,2.79-4.08,2.1,0,2.66,1.28,2.66,3.36V19Zm2.42-1v-.41c0-.95-.3-1.68-1.16-1.68s-1.26.95-1.26,1.93V18Z" fill="#3b4351"/><path d="M775.82,17.25v-.2c0-.6-.21-1.16-1-1.16-.61,0-1.08.26-1.08,1s.26.83,1.06,1.11l1,.33a2,2,0,0,1,1.64,2.17c0,1.61-1.19,2.3-2.71,2.3-1.9,0-2.48-.88-2.48-2.34v-.28h1.35v.24c0,.88.29,1.34,1.18,1.34s1.23-.42,1.23-1.1a1.09,1.09,0,0,0-.83-1.11l-1.23-.43a2,2,0,0,1-1.61-2.17c0-1.42,1-2.08,2.58-2.08,1.91,0,2.35,1.12,2.35,2.06v.34Z" fill="#3b4351"/><path d="M734.51,64.58h1.6v4h2.94v-4h1.6v10h-1.6V69.93h-2.94v4.65h-1.6Z" fill="#3b4351"/><path d="M742.27,64.47h1.51V66h-1.51Zm0,2.58h1.51v7.53h-1.51Z" fill="#3b4351"/><path d="M744.63,67.05h1V64.91h1.51v2.14h1.23v1.12h-1.23v4.5c0,.6.17.79.69.79a2.7,2.7,0,0,0,.54,0v1.12a4.56,4.56,0,0,1-1.21.13c-1,0-1.53-.3-1.53-1.82V68.17h-1Z" fill="#3b4351"/><path d="M748.52,67.05h1V64.91h1.51v2.14h1.24v1.12h-1.24v4.5c0,.6.17.79.69.79a2.81,2.81,0,0,0,.55,0v1.12a4.69,4.69,0,0,1-1.22.13c-1,0-1.53-.3-1.53-1.82V68.17h-1Z" fill="#3b4351"/><path d="M752.42,67.05h1V64.91H755v2.14h1.23v1.12H755v4.5c0,.6.16.79.68.79a2.75,2.75,0,0,0,.55,0v1.12a4.64,4.64,0,0,1-1.22.13c-1,0-1.53-.3-1.53-1.82V68.17h-1Z" fill="#3b4351"/><path d="M757.05,64.47h1.51V66h-1.51Zm0,2.58h1.51v7.53h-1.51Z" fill="#3b4351"/><path d="M759.42,67.05h1V64.91H762v2.14h1.23v1.12H762v4.5c0,.6.16.79.68.79a2.75,2.75,0,0,0,.55,0v1.12a4.64,4.64,0,0,1-1.22.13c-1,0-1.53-.3-1.53-1.82V68.17h-1Z" fill="#3b4351"/><path d="M765.28,71v.44c0,1,.13,2.29,1.26,2.29s1.21-1.21,1.21-1.68h1.43a2.48,2.48,0,0,1-2.65,2.72c-1.23,0-2.76-.36-2.76-3.85,0-2,.43-4.08,2.79-4.08,2.1,0,2.66,1.28,2.66,3.36V71Zm2.43-1v-.41c0-.95-.31-1.68-1.17-1.68s-1.26,1-1.26,1.93V70Z" fill="#3b4351"/><path d="M773.71,69.25v-.2c0-.6-.21-1.16-1-1.16-.6,0-1.08.26-1.08,1s.27.83,1.06,1.11l1,.33a2,2,0,0,1,1.64,2.17c0,1.61-1.19,2.3-2.7,2.3-1.91,0-2.48-.88-2.48-2.34v-.28h1.34v.24c0,.88.3,1.34,1.18,1.34s1.23-.42,1.23-1.1a1.09,1.09,0,0,0-.83-1.11l-1.23-.43a2,2,0,0,1-1.61-2.17c0-1.42,1-2.08,2.58-2.08,1.92,0,2.35,1.12,2.35,2.06v.34Z" fill="#3b4351"/><path d="M780.25,68.17h-1V67.05h1v-.7c0-1.42.68-1.88,1.92-1.88a6.4,6.4,0,0,1,.82,0v1.17h-.42c-.56,0-.81.21-.81.71v.66H783v1.12h-1.23v6.41h-1.51Zm3.5-3.7h1.51V66h-1.51Zm0,2.58h1.51v7.53h-1.51Z" fill="#3b4351"/><path d="M788.3,75.23a1,1,0,0,0,1.09.89,1.25,1.25,0,0,0,1.28-1.41V73.49h0a1.82,1.82,0,0,1-1.71,1c-1.75,0-2.26-1.72-2.26-3.8,0-1.65.26-3.88,2.4-3.88A1.66,1.66,0,0,1,790.72,68h0v-.92h1.43v7.17c0,1.84-.79,2.94-2.82,2.94-2.24,0-2.49-1.31-2.49-1.93Zm1.06-1.91c1.18,0,1.31-1.48,1.31-2.67s-.16-2.59-1.21-2.59-1.27,1.12-1.27,2.52S788.24,73.32,789.36,73.32Z" fill="#3b4351"/><path d="M793.52,64.58H795v3.28l0,0a2.16,2.16,0,0,1,1.85-1c1.15,0,1.88.52,1.88,2.05v5.68h-1.51V69.42c0-1-.28-1.36-1-1.36s-1.21.47-1.21,1.47v5h-1.51Z" fill="#3b4351"/><path d="M799.58,67.05h1V64.91h1.51v2.14h1.23v1.12h-1.23v4.5c0,.6.17.79.69.79a2.7,2.7,0,0,0,.54,0v1.12a4.59,4.59,0,0,1-1.22.13c-1,0-1.52-.3-1.52-1.82V68.17h-1Z" fill="#3b4351"/><path d="M807.6,64.58H813v1.35H809.2V68.7h3.59v1.35H809.2v3.19h3.92v1.34H807.6Z" fill="#3b4351"/><path d="M815.75,75.23a1,1,0,0,0,1.1.89,1.24,1.24,0,0,0,1.27-1.41V73.49h0a1.82,1.82,0,0,1-1.71,1c-1.75,0-2.25-1.72-2.25-3.8,0-1.65.25-3.88,2.39-3.88A1.68,1.68,0,0,1,818.18,68h0v-.92h1.43v7.17c0,1.84-.78,2.94-2.81,2.94-2.24,0-2.5-1.31-2.5-1.93Zm1.07-1.91c1.17,0,1.3-1.48,1.3-2.67s-.15-2.59-1.21-2.59-1.27,1.12-1.27,2.52S815.7,73.32,816.82,73.32Z" fill="#3b4351"/><path d="M822,67.05l1.3,5.66h0l1.21-5.66h1.58L824,74.86c-.61,2.06-1.07,2.34-2.64,2.3a3,3,0,0,1-.6,0V75.9a2.05,2.05,0,0,0,.49.06c.52,0,.86-.1,1-.59l.2-.62-2.14-7.7Z" fill="#3b4351"/><path d="M830.19,74.78a1.74,1.74,0,0,1-1.71-1.08h0v3.35h-1.51v-10h1.43V68h0a1.8,1.8,0,0,1,1.7-1.12c1.72,0,2.42,1.47,2.42,4.06C832.51,74.08,831.24,74.78,830.19,74.78Zm-.55-6.72c-1,0-1.27,1-1.27,2.67,0,1.81.22,2.85,1.28,2.85.86,0,1.27-.65,1.27-2.74C830.92,69.14,830.71,68.06,829.64,68.06Z" fill="#3b4351"/><path d="M833,67.05h1V64.91h1.51v2.14h1.23v1.12h-1.23v4.5c0,.6.17.79.68.79a2.75,2.75,0,0,0,.55,0v1.12a4.64,4.64,0,0,1-1.22.13c-1,0-1.52-.3-1.52-1.82V68.17h-1Z" fill="#3b4351"/><path d="M837.63,64.47h1.52V66h-1.52Zm0,2.58h1.52v7.53h-1.52Z" fill="#3b4351"/><path d="M845.62,73c0,.28.16.53.39.53a.76.76,0,0,0,.25,0v1a1.71,1.71,0,0,1-.74.18c-.67,0-1.23-.27-1.28-1h0a2,2,0,0,1-1.88,1.11c-1.22,0-2-.66-2-2.11a2.07,2.07,0,0,1,1.75-2.37L843.3,70c.55-.16.89-.31.89-1s-.24-1.12-1-1.12c-1,0-1.15.71-1.15,1.44h-1.43c0-1.61.66-2.48,2.65-2.48,1.33,0,2.4.52,2.4,1.85Zm-1.43-2.41a13.82,13.82,0,0,1-1.68.7,1.22,1.22,0,0,0-.62,1.22c0,.63.31,1.13.94,1.13.91,0,1.36-.67,1.36-1.79Z" fill="#3b4351"/><path d="M847.15,67.05h1.43v.88h0a2.18,2.18,0,0,1,1.94-1.08c1.15,0,1.87.52,1.87,2.05v5.68h-1.51V69.42c0-1-.26-1.36-1-1.36-.62,0-1.2.46-1.2,1.47v5h-1.52Z" fill="#3b4351"/><path d="M857.14,69.25v-.2c0-.6-.21-1.16-1-1.16-.6,0-1.08.26-1.08,1s.27.83,1.07,1.11l1,.33a2,2,0,0,1,1.64,2.17c0,1.61-1.19,2.3-2.7,2.3-1.91,0-2.48-.88-2.48-2.34v-.28h1.35v.24c0,.88.29,1.34,1.17,1.34s1.23-.42,1.23-1.1a1.09,1.09,0,0,0-.82-1.11l-1.23-.43a2,2,0,0,1-1.62-2.17c0-1.42,1-2.08,2.58-2.08,1.92,0,2.36,1.12,2.36,2.06v.34Z" fill="#3b4351"/><path d="M781.16,92c0,.28.16.53.39.53a.76.76,0,0,0,.25,0v1a1.71,1.71,0,0,1-.74.18c-.67,0-1.23-.27-1.28-1h0a2,2,0,0,1-1.88,1.11c-1.22,0-2-.66-2-2.11a2.07,2.07,0,0,1,1.75-2.37l1.17-.32c.55-.16.89-.31.89-1s-.24-1.12-1-1.12c-1,0-1.15.71-1.15,1.44h-1.43c0-1.61.66-2.48,2.65-2.48,1.33,0,2.4.52,2.4,1.85Zm-1.43-2.41a13.82,13.82,0,0,1-1.68.7,1.22,1.22,0,0,0-.62,1.22c0,.63.31,1.13.94,1.13.91,0,1.36-.67,1.36-1.79Z" fill="#3b4351"/><path d="M782,86.05h1V83.91h1.51v2.14h1.23v1.12h-1.23v4.5c0,.6.17.79.69.79a2.7,2.7,0,0,0,.54,0v1.12a4.64,4.64,0,0,1-1.22.13c-1,0-1.52-.3-1.52-1.82V87.17h-1Z" fill="#3b4351"/><path d="M790,83.58h2.5L794.3,91h0l1.74-7.41h2.43v10H797V85.26h0l-2,8.32H793.6l-2-8.32h0v8.32H790Z" fill="#3b4351"/><path d="M801.36,90v.44c0,1,.12,2.29,1.26,2.29s1.2-1.21,1.2-1.68h1.43a2.48,2.48,0,0,1-2.65,2.72c-1.23,0-2.76-.36-2.76-3.85,0-2,.44-4.08,2.79-4.08,2.1,0,2.66,1.28,2.66,3.36V90Zm2.42-1v-.41c0-.95-.31-1.68-1.16-1.68s-1.26,1-1.26,1.93V89Z" fill="#3b4351"/><path d="M808.05,94.23a1,1,0,0,0,1.09.9,1.25,1.25,0,0,0,1.27-1.42V92.49h0a1.82,1.82,0,0,1-1.71,1c-1.75,0-2.26-1.72-2.26-3.8,0-1.65.26-3.88,2.4-3.88A1.67,1.67,0,0,1,810.47,87h0v-.92h1.43v7.17c0,1.84-.79,2.94-2.82,2.94-2.24,0-2.49-1.31-2.49-1.93Zm1.06-1.91c1.18,0,1.3-1.48,1.3-2.67s-.15-2.59-1.2-2.59-1.27,1.12-1.27,2.52S808,92.32,809.11,92.32Z" fill="#3b4351"/><path d="M813.34,83.47h1.51V85h-1.51Zm0,2.58h1.51v7.53h-1.51Z" fill="#3b4351"/><path d="M820.23,92.66h0a1.61,1.61,0,0,1-1.65,1.12c-1.75,0-2.47-1.48-2.47-4.06,0-3.35,1.18-3.87,2.33-3.87a1.75,1.75,0,0,1,1.71,1.08h0V83.58h1.52v10h-1.43Zm-1.37-5.6c-.86,0-1.18.7-1.18,2.73,0,1.71.21,2.79,1.27,2.79s1.28-1,1.28-2.68C820.23,88.09,820,87.06,818.86,87.06Z" fill="#3b4351"/><path d="M822.82,89.82c0-2.36.61-4,2.8-4s2.81,1.61,2.81,4-.73,4-2.81,4S822.82,92.17,822.82,89.82Zm2.8,2.84c1.1,0,1.3-.92,1.3-2.84,0-1.67-.2-2.85-1.3-2.85s-1.29,1.18-1.29,2.85C824.33,91.74,824.54,92.66,825.62,92.66Z" fill="#3b4351"/><path d="M829.3,89.82c0-2.36.61-4,2.8-4s2.82,1.61,2.82,4-.73,4-2.82,4S829.3,92.17,829.3,89.82Zm2.8,2.84c1.11,0,1.3-.92,1.3-2.84,0-1.67-.19-2.85-1.3-2.85s-1.29,1.18-1.29,2.85C830.81,91.74,831,92.66,832.1,92.66Z" fill="#3b4351"/><path d="M836,91.74h1.59v1.84H836Z" fill="#3b4351"/></g></g><g id="Egytians"><g id="small-2" data-name="small"><path d="M533.9-9.7,535.21-4h0l1.21-5.66H538L536-1.89c-.6,2.06-1.07,2.34-2.64,2.3a2.45,2.45,0,0,1-.6-.06V-.85a2.09,2.09,0,0,0,.49,0c.52,0,.86-.09,1-.58l.19-.62-2.14-7.7Z" fill="#3b4351"/><path d="M582.72-2A1.74,1.74,0,0,1,581-3h0V.3h-1.51v-10h1.43v.92h0a1.78,1.78,0,0,1,1.69-1.12c1.73,0,2.43,1.47,2.43,4.06C585.05-2.67,583.77-2,582.72-2Zm-.54-6.73c-1,0-1.28,1-1.28,2.68,0,1.81.22,2.84,1.29,2.84.85,0,1.26-.64,1.26-2.73C583.45-7.62,583.24-8.7,582.18-8.7Z" fill="#3b4351"/><path d="M623.05-9.7,624.36-4h0l1.21-5.66h1.58L625.1-1.89C624.5.17,624,.45,622.47.41a2.53,2.53,0,0,1-.61-.06V-.85a2.09,2.09,0,0,0,.49,0c.52,0,.86-.09,1-.58l.19-.62-2.14-7.7Z" fill="#3b4351"/><path d="M456.08,17.83h2l2.63,10h-1.66l-.62-2.45h-2.93l-.64,2.45h-1.67Zm2.12,6.28-1.14-4.93h0l-1.19,4.93Z" fill="#3b4351"/><path d="M461.35,17.83h1.52v3.28l0,0a2.14,2.14,0,0,1,1.85-1c1.15,0,1.87.52,1.87,2v5.69h-1.51V22.66c0-1-.28-1.36-1.05-1.36s-1.2.48-1.2,1.48v5h-1.52Z" fill="#3b4351"/><path d="M468.16,20.3h1.43v.88h0a2.11,2.11,0,0,1,1.8-1.08,1.65,1.65,0,0,1,1.76,1.15,2,2,0,0,1,1.9-1.15c1.07,0,1.84.55,1.84,2v5.73h-1.52V22.66c0-1-.29-1.36-.91-1.36s-1.2.48-1.2,1.48v5h-1.52V22.66c0-1-.29-1.36-.92-1.36s-1.19.49-1.19,1.48v5h-1.51Z" fill="#3b4351"/><path d="M478.15,24.06c0-2.35.62-4,2.8-4s2.82,1.61,2.82,4S483,28,481,28,478.15,26.42,478.15,24.06Zm2.8,2.85c1.11,0,1.31-.93,1.31-2.85,0-1.66-.2-2.84-1.31-2.84s-1.28,1.18-1.28,2.84C479.67,26,479.88,26.91,481,26.91Z" fill="#3b4351"/><path d="M488.18,22.5v-.2c0-.6-.21-1.16-1-1.16-.6,0-1.08.26-1.08,1s.27.82,1.07,1.1l1,.34a2,2,0,0,1,1.64,2.17c0,1.61-1.2,2.3-2.71,2.3-1.9,0-2.48-.88-2.48-2.34v-.28h1.35v.24c0,.88.29,1.34,1.17,1.34s1.24-.42,1.24-1.11a1.09,1.09,0,0,0-.83-1.1l-1.23-.44a2,2,0,0,1-1.61-2.17c0-1.41,1-2.07,2.57-2.07,1.92,0,2.36,1.12,2.36,2.06v.34Z" fill="#3b4351"/><path d="M492.2,24.26v.43c0,1,.12,2.3,1.26,2.3s1.2-1.22,1.2-1.68h1.43A2.48,2.48,0,0,1,493.44,28c-1.23,0-2.76-.37-2.76-3.85,0-2,.44-4.08,2.79-4.08,2.1,0,2.66,1.27,2.66,3.36v.8Zm2.42-1v-.4c0-1-.31-1.68-1.16-1.68s-1.26.95-1.26,1.93v.15Z" fill="#3b4351"/><path d="M500.76,17.83h1.6v10h-1.6Z" fill="#3b4351"/><path d="M506.68,20.3h1.57l1.05,5.94h0l1.12-5.94h1.71l1.12,5.94h0l1-5.94h1.51l-1.72,7.53h-1.7L511.26,22h0l-1.08,5.85h-1.77Z" fill="#3b4351"/><path d="M516.86,17.72h1.51v1.51h-1.51Zm0,2.58h1.51v7.53h-1.51Z" fill="#3b4351"/><path d="M519.23,20.3h1V18.15h1.52V20.3H523v1.12h-1.23v4.49c0,.61.16.8.68.8a2.75,2.75,0,0,0,.55,0v1.12a5.11,5.11,0,0,1-1.22.13c-1,0-1.53-.3-1.53-1.82V21.42h-1Z" fill="#3b4351"/><path d="M523.79,17.83h1.51v3.28l.05,0a2.14,2.14,0,0,1,1.85-1c1.14,0,1.87.52,1.87,2v5.69h-1.51V22.66c0-1-.28-1.36-1-1.36s-1.21.48-1.21,1.48v5h-1.51Z" fill="#3b4351"/><path d="M538.83,26.26c0,.28.17.54.39.54a.52.52,0,0,0,.25-.05v1a1.55,1.55,0,0,1-.74.19c-.67,0-1.23-.27-1.27-1h0A2,2,0,0,1,535.55,28c-1.22,0-2-.66-2-2.12a2.06,2.06,0,0,1,1.75-2.36l1.18-.33c.55-.15.88-.3.88-1s-.24-1.12-1-1.12c-1,0-1.14.71-1.14,1.44h-1.43c0-1.61.66-2.48,2.64-2.48,1.34,0,2.4.52,2.4,1.85Zm-1.43-2.41a11.23,11.23,0,0,1-1.68.7,1.25,1.25,0,0,0-.62,1.22c0,.63.31,1.14.94,1.14.91,0,1.36-.67,1.36-1.8Z" fill="#3b4351"/><path d="M540.44,17.72H542v1.51h-1.51Zm0,2.58H542v7.53h-1.51Z" fill="#3b4351"/><path d="M547.33,26.91h0A1.61,1.61,0,0,1,545.65,28c-1.75,0-2.47-1.49-2.47-4.06,0-3.35,1.18-3.87,2.33-3.87a1.75,1.75,0,0,1,1.71,1.08h0V17.83h1.52v10h-1.43ZM546,21.3c-.85,0-1.17.7-1.17,2.74,0,1.71.21,2.78,1.27,2.78s1.28-1.05,1.28-2.67C547.33,22.34,547.13,21.3,546,21.3Z" fill="#3b4351"/><path d="M553.27,24.06c0-2.35.62-4,2.81-4s2.81,1.61,2.81,4-.73,4-2.81,4S553.27,26.42,553.27,24.06Zm2.81,2.85c1.1,0,1.3-.93,1.3-2.85,0-1.66-.2-2.84-1.3-2.84s-1.29,1.18-1.29,2.84C554.79,26,555,26.91,556.08,26.91Z" fill="#3b4351"/><path d="M560.51,21.42h-1V20.3h1v-.7c0-1.42.69-1.88,1.92-1.88a6.67,6.67,0,0,1,.83,0v1.16h-.42c-.56,0-.81.21-.81.72v.66h1.23v1.12H562v6.41h-1.52Z" fill="#3b4351"/><path d="M572.25,26.26c0,.28.17.54.39.54a.52.52,0,0,0,.25-.05v1a1.58,1.58,0,0,1-.74.19c-.67,0-1.23-.27-1.28-1h0A2,2,0,0,1,569,28c-1.22,0-2-.66-2-2.12a2.06,2.06,0,0,1,1.75-2.36l1.18-.33c.54-.15.88-.3.88-1s-.24-1.12-1-1.12c-1,0-1.15.71-1.15,1.44H567.2c0-1.61.66-2.48,2.65-2.48,1.33,0,2.4.52,2.4,1.85Zm-1.43-2.41a11.23,11.23,0,0,1-1.68.7,1.23,1.23,0,0,0-.62,1.22c0,.63.31,1.14.94,1.14.91,0,1.36-.67,1.36-1.8Z" fill="#3b4351"/><path d="M573.79,20.3h1.51v1.17h0a1.85,1.85,0,0,1,1.75-1.37.73.73,0,0,1,.36.06V21.7a1.83,1.83,0,0,0-.63-.09c-.69,0-1.51.31-1.51,1.71v4.51h-1.51Z" fill="#3b4351"/><path d="M578.4,20.3h1.43v.88h0a2.1,2.1,0,0,1,1.8-1.08,1.63,1.63,0,0,1,1.75,1.15,2.07,2.07,0,0,1,1.91-1.15c1.06,0,1.83.55,1.83,2v5.73h-1.51V22.66c0-1-.29-1.36-.91-1.36s-1.2.48-1.2,1.48v5H582V22.66c0-1-.29-1.36-.92-1.36s-1.19.49-1.19,1.48v5H578.4Z" fill="#3b4351"/><path d="M589.7,20.3,591,26h0l1.21-5.66h1.58l-2.07,7.81c-.6,2.06-1.07,2.34-2.64,2.3a2.45,2.45,0,0,1-.6-.06v-1.2a2,2,0,0,0,.49.05c.52,0,.86-.09,1-.58l.19-.62-2.14-7.7Z" fill="#3b4351"/><path d="M477.15,50.3h1.52v1.17h0a1.87,1.87,0,0,1,1.76-1.37.73.73,0,0,1,.36.06V51.7a1.83,1.83,0,0,0-.63-.09c-.69,0-1.51.31-1.51,1.71v4.51h-1.52Z" fill="#3b4351"/><path d="M486.42,56.26c0,.28.17.54.4.54a.55.55,0,0,0,.25,0v1a1.58,1.58,0,0,1-.74.19c-.68,0-1.24-.27-1.28-1h0A1.94,1.94,0,0,1,483.15,58c-1.22,0-2-.66-2-2.12a2.06,2.06,0,0,1,1.75-2.36l1.17-.33c.55-.15.89-.3.89-1s-.24-1.12-1-1.12c-1,0-1.15.71-1.15,1.44h-1.43c0-1.61.66-2.48,2.65-2.48,1.33,0,2.39.52,2.39,1.85ZM485,53.85a10.92,10.92,0,0,1-1.69.7,1.24,1.24,0,0,0-.61,1.22c0,.63.31,1.14.94,1.14.91,0,1.36-.67,1.36-1.8Z" fill="#3b4351"/><path d="M488,47.72h1.51v1.51H488Zm0,2.58h1.51v7.53H488Z" fill="#3b4351"/><path d="M494.32,52.5v-.2c0-.6-.21-1.16-1-1.16-.6,0-1.07.26-1.07,1s.26.82,1.06,1.1l1,.34a2,2,0,0,1,1.64,2.17c0,1.61-1.19,2.3-2.71,2.3-1.9,0-2.48-.88-2.48-2.34v-.28h1.35v.24c0,.88.29,1.34,1.17,1.34s1.24-.42,1.24-1.11a1.09,1.09,0,0,0-.83-1.1l-1.23-.44a2,2,0,0,1-1.61-2.17c0-1.41,1-2.07,2.57-2.07,1.92,0,2.36,1.12,2.36,2.06v.34Z" fill="#3b4351"/><path d="M498.34,54.26v.43c0,1,.12,2.3,1.26,2.3s1.2-1.22,1.2-1.68h1.43A2.48,2.48,0,0,1,499.58,58c-1.23,0-2.76-.37-2.76-3.85,0-2,.44-4.08,2.79-4.08,2.1,0,2.66,1.27,2.66,3.36v.8Zm2.42-1v-.4c0-1-.31-1.68-1.16-1.68s-1.26,1-1.26,1.93v.15Z" fill="#3b4351"/><path d="M507.37,56.91h0A1.61,1.61,0,0,1,505.69,58c-1.75,0-2.47-1.49-2.47-4.06,0-3.35,1.18-3.87,2.33-3.87a1.75,1.75,0,0,1,1.71,1.08h0V47.83h1.52v10h-1.43ZM506,51.3c-.85,0-1.17.7-1.17,2.74,0,1.71.21,2.78,1.27,2.78s1.28-1,1.28-2.67C507.37,52.34,507.17,51.3,506,51.3Z" fill="#3b4351"/><path d="M513.68,47.72h1.51v1.51h-1.51Zm0,2.58h1.51v7.53h-1.51Z" fill="#3b4351"/><path d="M516.72,50.3h1.43v.88h0a2.17,2.17,0,0,1,1.93-1.08c1.15,0,1.88.52,1.88,2v5.69h-1.51V52.66c0-1-.27-1.36-1.06-1.36-.61,0-1.2.47-1.2,1.48v5h-1.51Z" fill="#3b4351"/><path d="M526.91,47.83h5.41v1.35h-3.81V52h3.58v1.34h-3.58v3.2h3.92v1.34h-5.52Z" fill="#3b4351"/><path d="M532.87,50.3h1V48.15h1.51V50.3h1.23v1.12h-1.23v4.49c0,.61.17.8.69.8a2.7,2.7,0,0,0,.54,0v1.12a5,5,0,0,1-1.21.13c-1,0-1.53-.3-1.53-1.82V51.42h-1Z" fill="#3b4351"/><path d="M537.44,47.83H539v3.28l0,0a2.16,2.16,0,0,1,1.85-1c1.15,0,1.88.52,1.88,2v5.69H541.2V52.66c0-1-.28-1.36-1.05-1.36-.61,0-1.2.48-1.2,1.48v5h-1.51Z" fill="#3b4351"/><path d="M544.24,47.72h1.51v1.51h-1.51Zm0,2.58h1.51v7.53h-1.51Z" fill="#3b4351"/><path d="M547,54.06c0-2.35.62-4,2.81-4s2.81,1.61,2.81,4-.73,4-2.81,4S547,56.42,547,54.06Zm2.81,2.85c1.1,0,1.3-.93,1.3-2.85,0-1.66-.2-2.84-1.3-2.84s-1.29,1.18-1.29,2.84C548.5,56,548.71,56.91,549.79,56.91Z" fill="#3b4351"/><path d="M557,58A1.74,1.74,0,0,1,555.3,57h0V60.3h-1.51v-10h1.43v.92h0a1.78,1.78,0,0,1,1.69-1.12c1.73,0,2.43,1.47,2.43,4.06C559.34,57.33,558.06,58,557,58Zm-.55-6.73c-1,0-1.27,1.05-1.27,2.68,0,1.81.22,2.84,1.29,2.84.85,0,1.26-.64,1.26-2.73C557.74,52.38,557.53,51.3,556.46,51.3Z" fill="#3b4351"/><path d="M560.56,47.72h1.52v1.51h-1.52Zm0,2.58h1.52v7.53h-1.52Z" fill="#3b4351"/><path d="M568.55,56.26c0,.28.17.54.39.54a.52.52,0,0,0,.25,0v1a1.58,1.58,0,0,1-.74.19c-.67,0-1.23-.27-1.28-1h0A2,2,0,0,1,565.27,58c-1.22,0-2-.66-2-2.12a2.06,2.06,0,0,1,1.75-2.36l1.18-.33c.54-.15.88-.3.88-1s-.24-1.12-1-1.12c-1,0-1.15.71-1.15,1.44H563.5c0-1.61.66-2.48,2.65-2.48,1.33,0,2.4.52,2.4,1.85Zm-1.43-2.41a11.23,11.23,0,0,1-1.68.7,1.23,1.23,0,0,0-.62,1.22c0,.63.31,1.14.94,1.14.91,0,1.36-.67,1.36-1.8Z" fill="#3b4351"/><path d="M464.1,103h2l2.63,10h-1.66l-.62-2.46h-2.93l-.64,2.46h-1.67Zm2.13,6.28-1.15-4.93h0l-1.19,4.93Z" fill="#3b4351"/><path d="M469.45,105.46h1.43v.88h0a2.13,2.13,0,0,1,1.81-1.08,1.63,1.63,0,0,1,1.75,1.15,2.06,2.06,0,0,1,1.91-1.15c1.06,0,1.83.55,1.83,2V113h-1.51v-5.17c0-1-.3-1.36-.91-1.36s-1.21.47-1.21,1.47V113h-1.51v-5.17c0-1-.29-1.36-.92-1.36s-1.2.49-1.2,1.47V113h-1.51Z" fill="#3b4351"/><path d="M481,109.42v.44c0,1,.13,2.3,1.27,2.3s1.2-1.22,1.2-1.69h1.43a2.48,2.48,0,0,1-2.65,2.72c-1.23,0-2.76-.36-2.76-3.85,0-2,.44-4.08,2.79-4.08,2.1,0,2.66,1.28,2.66,3.37v.79Zm2.43-1V108c0-1-.31-1.68-1.16-1.68s-1.27,1-1.27,1.93v.16Z" fill="#3b4351"/><path d="M486.22,105.46h1.43v.88h0a2.18,2.18,0,0,1,1.94-1.08c1.15,0,1.87.52,1.87,2V113H490v-5.17c0-1-.26-1.36-1.05-1.36-.62,0-1.2.46-1.2,1.47V113h-1.52Z" fill="#3b4351"/><path d="M493,103h1.51v3.28l0,0a2.16,2.16,0,0,1,1.85-1c1.15,0,1.88.52,1.88,2V113h-1.51v-5.17c0-1-.28-1.36-1.06-1.36-.61,0-1.2.47-1.2,1.47V113H493Z" fill="#3b4351"/><path d="M499.4,109.23c0-2.36.61-4,2.8-4s2.81,1.61,2.81,4-.72,4-2.81,4S499.4,111.58,499.4,109.23Zm2.8,2.84c1.11,0,1.3-.92,1.3-2.84,0-1.67-.19-2.85-1.3-2.85s-1.29,1.18-1.29,2.85C500.91,111.15,501.12,112.07,502.2,112.07Z" fill="#3b4351"/><path d="M505.5,105.46h1v-2.14h1.51v2.14h1.23v1.12h-1.23v4.5c0,.6.17.79.69.79a2.7,2.7,0,0,0,.54,0V113a4.64,4.64,0,0,1-1.22.13c-1,0-1.52-.29-1.52-1.82v-4.68h-1Z" fill="#3b4351"/><path d="M511.37,109.42v.44c0,1,.12,2.3,1.26,2.3s1.2-1.22,1.2-1.69h1.43a2.48,2.48,0,0,1-2.65,2.72c-1.23,0-2.76-.36-2.76-3.85,0-2,.44-4.08,2.79-4.08,2.1,0,2.66,1.28,2.66,3.37v.79Zm2.42-1V108c0-1-.31-1.68-1.16-1.68s-1.26,1-1.26,1.93v.16Z" fill="#3b4351"/><path d="M519.8,113.19a1.72,1.72,0,0,1-1.71-1.08h0v3.35h-1.51v-10H518v.92h0a1.8,1.8,0,0,1,1.7-1.12c1.72,0,2.42,1.47,2.42,4.07C522.12,112.49,520.85,113.19,519.8,113.19Zm-.55-6.72c-1,0-1.27,1-1.27,2.67,0,1.81.22,2.85,1.28,2.85.86,0,1.27-.65,1.27-2.73C520.53,107.55,520.32,106.47,519.25,106.47Z" fill="#3b4351"/><path d="M526.67,103h1.6v10h-1.6Z" fill="#3b4351"/><path d="M529.9,111.15h1.6V113h-1.6Z" fill="#3b4351"/><path d="M537.69,104.34h-2.38V103h6.31v1.35h-2.34V113h-1.59Z" fill="#3b4351"/><path d="M542.43,103H544v3.28l0,0a2.14,2.14,0,0,1,1.85-1c1.14,0,1.87.52,1.87,2V113H546.2v-5.17c0-1-.28-1.36-1.05-1.36s-1.2.47-1.2,1.47V113h-1.52Z" fill="#3b4351"/><path d="M553,112.11h0a2.16,2.16,0,0,1-1.94,1.08c-1.12,0-1.87-.52-1.87-2.46v-5.27h1.51v5.41c0,.84.36,1.12,1,1.12a1.17,1.17,0,0,0,1.23-1.26v-5.27h1.52V113H553Z" fill="#3b4351"/><path d="M555.23,105.46h1v-2.14h1.52v2.14H559v1.12h-1.23v4.5c0,.6.17.79.68.79a2.75,2.75,0,0,0,.55,0V113a4.64,4.64,0,0,1-1.22.13c-1,0-1.53-.29-1.53-1.82v-4.68h-1Z" fill="#3b4351"/><path d="M559.86,105.46h1.43v.88h0a2.13,2.13,0,0,1,1.81-1.08,1.63,1.63,0,0,1,1.75,1.15,2.07,2.07,0,0,1,1.91-1.15c1.06,0,1.83.55,1.83,2V113h-1.51v-5.17c0-1-.3-1.36-.91-1.36s-1.21.47-1.21,1.47V113h-1.51v-5.17c0-1-.29-1.36-.92-1.36s-1.19.49-1.19,1.47V113h-1.52Z" fill="#3b4351"/><path d="M569.86,109.23c0-2.36.61-4,2.8-4s2.82,1.61,2.82,4-.73,4-2.82,4S569.86,111.58,569.86,109.23Zm2.8,2.84c1.11,0,1.3-.92,1.3-2.84,0-1.67-.19-2.85-1.3-2.85s-1.29,1.18-1.29,2.85C571.37,111.15,571.58,112.07,572.66,112.07Z" fill="#3b4351"/><path d="M579.88,107.66v-.2c0-.6-.21-1.16-1-1.16-.6,0-1.08.27-1.08,1s.27.83,1.07,1.11l1,.33a2,2,0,0,1,1.64,2.17c0,1.62-1.19,2.3-2.7,2.3-1.91,0-2.48-.88-2.48-2.34v-.28h1.34v.24c0,.88.3,1.35,1.18,1.35s1.23-.43,1.23-1.11a1.09,1.09,0,0,0-.82-1.11l-1.24-.43a2,2,0,0,1-1.61-2.17c0-1.42,1-2.08,2.58-2.08,1.92,0,2.35,1.12,2.35,2.06v.34Z" fill="#3b4351"/><path d="M583.9,109.42v.44c0,1,.13,2.3,1.26,2.3s1.21-1.22,1.21-1.69h1.43a2.48,2.48,0,0,1-2.65,2.72c-1.24,0-2.76-.36-2.76-3.85,0-2,.43-4.08,2.79-4.08,2.1,0,2.66,1.28,2.66,3.37v.79Zm2.42-1V108c0-1-.3-1.68-1.16-1.68s-1.26,1-1.26,1.93v.16Z" fill="#3b4351"/><path d="M592.47,103h1.6v10h-1.6Z" fill="#3b4351"/><path d="M595.7,111.15h1.6V113a1.87,1.87,0,0,1-1.6,2.15v-.81a1,1,0,0,0,.7-1.13V113h-.7Z" fill="#3b4351"/><path d="M602.21,106.58h-1.05v-1.12h1.05v-.7c0-1.42.69-1.88,1.92-1.88.32,0,.6,0,.83,0v1.17h-.42c-.56,0-.81.21-.81.71v.66H605v1.12h-1.23V113h-1.52Zm3.5-3.7h1.52v1.51h-1.52Zm0,2.58h1.52V113h-1.52Z" fill="#3b4351"/><path d="M608.75,105.46h1.51v1.18h0a1.88,1.88,0,0,1,1.75-1.38.92.92,0,0,1,.37.06v1.54a2.3,2.3,0,0,0-.63-.08c-.69,0-1.52.3-1.52,1.71V113h-1.51Z" fill="#3b4351"/><path d="M616.41,107.66v-.2c0-.6-.21-1.16-1-1.16-.6,0-1.07.27-1.07,1s.26.83,1.06,1.11l1,.33a2,2,0,0,1,1.64,2.17c0,1.62-1.19,2.3-2.71,2.3-1.9,0-2.48-.88-2.48-2.34v-.28h1.35v.24c0,.88.29,1.35,1.17,1.35s1.24-.43,1.24-1.11a1.09,1.09,0,0,0-.83-1.11l-1.23-.43a2,2,0,0,1-1.61-2.17c0-1.42,1-2.08,2.57-2.08,1.92,0,2.36,1.12,2.36,2.06v.34Z" fill="#3b4351"/><path d="M618.45,105.46h1v-2.14H621v2.14h1.23v1.12H621v4.5c0,.6.17.79.69.79a2.7,2.7,0,0,0,.54,0V113a4.64,4.64,0,0,1-1.22.13c-1,0-1.52-.29-1.52-1.82v-4.68h-1Z" fill="#3b4351"/><path d="M626.47,103h1.6v4.36h0l3-4.36h1.75L630,107.21l3.19,5.79h-1.8L629,108.5l-.88,1.26V113h-1.6Z" fill="#3b4351"/><path d="M633.71,102.88h1.51v1.51h-1.51Zm0,2.58h1.51V113h-1.51Z" fill="#3b4351"/><path d="M636.75,105.46h1.43v.88h0a2.17,2.17,0,0,1,1.93-1.08c1.15,0,1.88.52,1.88,2V113h-1.51v-5.17c0-1-.27-1.36-1-1.36-.62,0-1.21.46-1.21,1.47V113h-1.51Z" fill="#3b4351"/><path d="M645,113.64a1,1,0,0,0,1.09.9,1.25,1.25,0,0,0,1.27-1.42V111.9h0a1.83,1.83,0,0,1-1.71,1c-1.75,0-2.26-1.72-2.26-3.8,0-1.65.25-3.88,2.4-3.88a1.67,1.67,0,0,1,1.65,1.12h0v-.92h1.43v7.17c0,1.84-.79,2.94-2.82,2.94-2.24,0-2.49-1.31-2.49-1.93Zm1.06-1.91c1.18,0,1.3-1.48,1.3-2.67s-.15-2.59-1.2-2.59-1.28,1.12-1.28,2.52S644.94,111.73,646.06,111.73Z" fill="#3b4351"/><path d="M653.58,103h1.51v3.35h0a1.74,1.74,0,0,1,1.71-1.08c1.15,0,2.32.52,2.32,3.87,0,2.59-.71,4.06-2.46,4.06a1.62,1.62,0,0,1-1.66-1.12h0V113h-1.43Zm2.7,9c1.07,0,1.28-1.08,1.28-2.79,0-2-.33-2.73-1.18-2.73-1.18,0-1.37,1-1.37,2.84C655,110.94,655.24,112,656.28,112Z" fill="#3b4351"/><path d="M664.16,112.11h0a2.15,2.15,0,0,1-1.93,1.08c-1.12,0-1.88-.52-1.88-2.46v-5.27h1.51v5.41c0,.84.37,1.12,1,1.12a1.18,1.18,0,0,0,1.23-1.26v-5.27h1.51V113h-1.43Z" fill="#3b4351"/><path d="M667,105.46h1.52v1.18h0a1.86,1.86,0,0,1,1.75-1.38.87.87,0,0,1,.36.06v1.54a2.18,2.18,0,0,0-.63-.08c-.69,0-1.51.3-1.51,1.71V113H667Z" fill="#3b4351"/><path d="M671.52,102.88H673v1.51h-1.52Zm0,2.58H673V113h-1.52Z" fill="#3b4351"/><path d="M675.87,109.42v.44c0,1,.12,2.3,1.26,2.3s1.2-1.22,1.2-1.69h1.43a2.48,2.48,0,0,1-2.65,2.72c-1.23,0-2.76-.36-2.76-3.85,0-2,.44-4.08,2.79-4.08,2.1,0,2.66,1.28,2.66,3.37v.79Zm2.42-1V108c0-1-.31-1.68-1.16-1.68s-1.26,1-1.26,1.93v.16Z" fill="#3b4351"/><path d="M684.9,112.07h0a1.61,1.61,0,0,1-1.65,1.12c-1.76,0-2.47-1.48-2.47-4.06,0-3.35,1.18-3.87,2.33-3.87a1.74,1.74,0,0,1,1.7,1.08h0V103h1.52v10H684.9Zm-1.38-5.6c-.85,0-1.17.7-1.17,2.73,0,1.71.21,2.79,1.27,2.79s1.28-1,1.28-2.68C684.9,107.5,684.7,106.47,683.52,106.47Z" fill="#3b4351"/><path d="M691.21,102.88h1.51v1.51h-1.51Zm0,2.58h1.51V113h-1.51Z" fill="#3b4351"/><path d="M694.25,105.46h1.42v.88h.05a2.15,2.15,0,0,1,1.93-1.08c1.15,0,1.88.52,1.88,2V113H698v-5.17c0-1-.26-1.36-1-1.36-.61,0-1.2.46-1.2,1.47V113h-1.51Z" fill="#3b4351"/></g></g><g id="Ageans"><g id="Title"><g id="small-3" data-name="small"><path d="M159.79,21.91v.21c0,1.81-.74,3.58-3.08,3.58-2.52,0-3.31-1.63-3.31-5.2s.79-5.2,3.32-5.2c2.85,0,3,2.09,3,3.14v.18h-1.6v-.17c0-.93-.28-2-1.43-1.94s-1.71.73-1.71,3.95.52,4,1.71,4c1.34,0,1.48-1.47,1.48-2.41v-.17Z" fill="#3b4351"/><path d="M160.81,18h1.43v.89h0a2.15,2.15,0,0,1,1.93-1.08c1.15,0,1.88.52,1.88,2V25.5h-1.51V20.33c0-1-.27-1.36-1.05-1.36-.62,0-1.21.46-1.21,1.47V25.5h-1.51Z" fill="#3b4351"/><path d="M167.25,21.73c0-2.35.62-4,2.8-4s2.82,1.61,2.82,4-.73,4-2.82,4S167.25,24.09,167.25,21.73Zm2.8,2.85c1.11,0,1.3-.93,1.3-2.85,0-1.67-.19-2.84-1.3-2.84s-1.29,1.17-1.29,2.84C168.76,23.65,169,24.58,170.05,24.58Z" fill="#3b4351"/><path d="M177.28,20.16V20c0-.61-.21-1.17-1-1.17-.6,0-1.08.27-1.08,1s.27.82,1.07,1.1l1,.34a2,2,0,0,1,1.64,2.17c0,1.61-1.19,2.3-2.7,2.3-1.91,0-2.48-.89-2.48-2.34v-.28H175v.23c0,.89.3,1.35,1.18,1.35s1.23-.42,1.23-1.11a1.09,1.09,0,0,0-.82-1.1L175.38,22a2,2,0,0,1-1.61-2.17c0-1.41,1-2.07,2.58-2.07,1.92,0,2.35,1.12,2.35,2.06v.33Z" fill="#3b4351"/><path d="M183.24,20.16V20c0-.61-.21-1.17-1-1.17-.61,0-1.08.27-1.08,1s.26.82,1.06,1.1l1,.34a2,2,0,0,1,1.64,2.17c0,1.61-1.19,2.3-2.71,2.3-1.9,0-2.48-.89-2.48-2.34v-.28H181v.23c0,.89.29,1.35,1.18,1.35s1.23-.42,1.23-1.11a1.09,1.09,0,0,0-.83-1.1L181.35,22a2,2,0,0,1-1.61-2.17c0-1.41,1-2.07,2.58-2.07,1.91,0,2.35,1.12,2.35,2.06v.33Z" fill="#3b4351"/><path d="M189.81,24.62h-.05a2.15,2.15,0,0,1-1.93,1.08c-1.12,0-1.88-.52-1.88-2.47V18h1.52v5.41c0,.84.36,1.12,1,1.12a1.17,1.17,0,0,0,1.23-1.26V18h1.51V25.5h-1.42Z" fill="#3b4351"/><path d="M195.94,20.16V20c0-.61-.21-1.17-1-1.17-.6,0-1.08.27-1.08,1s.27.82,1.07,1.1l1,.34a2,2,0,0,1,1.63,2.17c0,1.61-1.19,2.3-2.7,2.3-1.9,0-2.48-.89-2.48-2.34v-.28h1.35v.23c0,.89.29,1.35,1.17,1.35s1.24-.42,1.24-1.11a1.09,1.09,0,0,0-.83-1.1L194.05,22a2,2,0,0,1-1.61-2.17c0-1.41,1-2.07,2.57-2.07,1.92,0,2.36,1.12,2.36,2.06v.33Z" fill="#3b4351"/><path d="M207,23.93c0,.28.16.53.39.53a.57.57,0,0,0,.25,0v1a1.58,1.58,0,0,1-.74.18c-.67,0-1.23-.26-1.28-1h0a2,2,0,0,1-1.88,1.11c-1.22,0-2-.66-2-2.12a2.08,2.08,0,0,1,1.75-2.37l1.17-.32c.55-.15.89-.31.89-1s-.24-1.12-1-1.12c-1,0-1.15.72-1.15,1.45h-1.43c0-1.61.66-2.48,2.65-2.48,1.33,0,2.4.52,2.4,1.85Zm-1.43-2.41a11.23,11.23,0,0,1-1.68.7,1.23,1.23,0,0,0-.62,1.22c0,.63.31,1.14.94,1.14.91,0,1.36-.68,1.36-1.8Z" fill="#3b4351"/><path d="M210,26.14a1,1,0,0,0,1.09.9,1.24,1.24,0,0,0,1.27-1.41V24.41h0a1.81,1.81,0,0,1-1.71,1c-1.75,0-2.26-1.72-2.26-3.79,0-1.65.25-3.88,2.4-3.88a1.66,1.66,0,0,1,1.65,1.12h0V18h1.43v7.18c0,1.83-.79,2.94-2.82,2.94-2.24,0-2.49-1.32-2.49-1.94Zm1.06-1.9c1.18,0,1.3-1.49,1.3-2.68s-.15-2.59-1.2-2.59-1.28,1.12-1.28,2.52S210,24.24,211.07,24.24Z" fill="#3b4351"/><path d="M220.17,23.93c0,.28.17.53.39.53a.59.59,0,0,0,.26,0v1a1.63,1.63,0,0,1-.75.18c-.67,0-1.23-.26-1.27-1h0a2,2,0,0,1-1.88,1.11c-1.21,0-2-.66-2-2.12a2.09,2.09,0,0,1,1.75-2.37l1.18-.32c.55-.15.88-.31.88-1s-.23-1.12-1-1.12c-1,0-1.15.72-1.15,1.45h-1.43c0-1.61.66-2.48,2.65-2.48,1.33,0,2.39.52,2.39,1.85Zm-1.43-2.41a11.23,11.23,0,0,1-1.68.7,1.24,1.24,0,0,0-.61,1.22c0,.63.3,1.14.93,1.14.91,0,1.36-.68,1.36-1.8Z" fill="#3b4351"/><path d="M221.78,15.39h1.51V16.9h-1.51Zm0,2.57h1.51V25.5h-1.51Z" fill="#3b4351"/><path d="M224.82,18h1.43v.89h0a2.15,2.15,0,0,1,1.93-1.08c1.15,0,1.88.52,1.88,2V25.5h-1.51V20.33c0-1-.27-1.36-1.06-1.36-.61,0-1.2.46-1.2,1.47V25.5h-1.51Z" fill="#3b4351"/><path d="M238.76,24.58h0a1.6,1.6,0,0,1-1.65,1.12c-1.75,0-2.46-1.49-2.46-4.07,0-3.34,1.17-3.86,2.32-3.86a1.73,1.73,0,0,1,1.71,1.08h0V15.5h1.51v10h-1.43ZM237.39,19c-.85,0-1.18.7-1.18,2.73,0,1.71.21,2.79,1.28,2.79s1.27-1,1.27-2.67C238.76,20,238.57,19,237.39,19Z" fill="#3b4351"/><path d="M243,21.93v.43c0,1,.12,2.3,1.26,2.3s1.2-1.22,1.2-1.68h1.43a2.48,2.48,0,0,1-2.65,2.72c-1.23,0-2.76-.37-2.76-3.86,0-2,.44-4.07,2.79-4.07,2.1,0,2.66,1.27,2.66,3.36v.8Zm2.42-1v-.4c0-1-.31-1.69-1.16-1.69s-1.26,1-1.26,1.94v.15Z" fill="#3b4351"/><path d="M251.38,20.16V20c0-.61-.21-1.17-1-1.17-.6,0-1.08.27-1.08,1s.27.82,1.07,1.1l1,.34A2,2,0,0,1,253,23.4c0,1.61-1.19,2.3-2.7,2.3-1.91,0-2.48-.89-2.48-2.34v-.28h1.34v.23c0,.89.3,1.35,1.18,1.35s1.23-.42,1.23-1.11a1.09,1.09,0,0,0-.82-1.1L249.48,22a2,2,0,0,1-1.61-2.17c0-1.41,1-2.07,2.58-2.07,1.92,0,2.35,1.12,2.35,2.06v.33Z" fill="#3b4351"/><path d="M253.42,18h1V15.82H256V18h1.23v1.12H256v4.5c0,.6.17.8.68.8a2.75,2.75,0,0,0,.55,0v1.12a5.17,5.17,0,0,1-1.22.12c-1,0-1.53-.29-1.53-1.82V19.08h-1Z" fill="#3b4351"/><path d="M258,18h1.52v1.18h0a1.87,1.87,0,0,1,1.75-1.37.94.94,0,0,1,.37.05v1.54a2.24,2.24,0,0,0-.63-.08c-.69,0-1.51.31-1.51,1.71V25.5H258Z" fill="#3b4351"/><path d="M262.1,21.73c0-2.35.61-4,2.8-4s2.82,1.61,2.82,4-.73,4-2.82,4S262.1,24.09,262.1,21.73Zm2.8,2.85c1.11,0,1.3-.93,1.3-2.85,0-1.67-.19-2.84-1.3-2.84s-1.29,1.17-1.29,2.84C263.61,23.65,263.82,24.58,264.9,24.58Z" fill="#3b4351"/><path d="M269.8,18l1.3,5.66h0l1.2-5.66h1.59l-2.08,7.82c-.6,2.06-1.06,2.34-2.63,2.3a3.05,3.05,0,0,1-.6-.06v-1.2a2,2,0,0,0,.49.05c.52,0,.85-.1,1-.59l.2-.61L268.17,18Z" fill="#3b4351"/><path d="M276,21.93v.43c0,1,.13,2.3,1.26,2.3s1.21-1.22,1.21-1.68h1.43a2.48,2.48,0,0,1-2.65,2.72c-1.23,0-2.76-.37-2.76-3.86,0-2,.43-4.07,2.79-4.07,2.1,0,2.66,1.27,2.66,3.36v.8Zm2.43-1v-.4c0-1-.31-1.69-1.17-1.69s-1.26,1-1.26,1.94v.15Z" fill="#3b4351"/><path d="M285,24.58h0a1.62,1.62,0,0,1-1.66,1.12c-1.75,0-2.46-1.49-2.46-4.07,0-3.34,1.17-3.86,2.32-3.86a1.73,1.73,0,0,1,1.71,1.08h0V15.5h1.51v10H285ZM283.63,19c-.85,0-1.18.7-1.18,2.73,0,1.71.21,2.79,1.28,2.79s1.27-1,1.27-2.67C285,20,284.81,19,283.63,19Z" fill="#3b4351"/><path d="M288,23.65h1.6V25.5H288Z" fill="#3b4351"/><path d="M116.52,45.4v.26c0,1.21.54,1.83,1.63,1.83A1.44,1.44,0,0,0,119.67,46a1.67,1.67,0,0,0-1.43-1.77l-1.09-.38a2.67,2.67,0,0,1-2.09-2.75c0-1.82,1.25-2.83,3.11-2.83,2.56,0,2.83,1.6,2.83,2.64v.22h-1.6V41c0-.91-.39-1.44-1.4-1.44A1.27,1.27,0,0,0,116.66,41c0,.85.43,1.29,1.49,1.69l1.08.4a2.53,2.53,0,0,1,2,2.64c0,2.13-1.28,3-3.3,3a2.75,2.75,0,0,1-3-3.06V45.4Z" fill="#3b4351"/><path d="M123.75,44.93v.43c0,1,.13,2.3,1.27,2.3s1.2-1.22,1.2-1.68h1.43A2.48,2.48,0,0,1,125,48.7c-1.23,0-2.76-.37-2.76-3.86,0-2,.44-4.07,2.79-4.07,2.1,0,2.66,1.27,2.66,3.36v.8Zm2.43-1v-.4c0-1-.31-1.69-1.16-1.69s-1.27,1-1.27,1.94v.15Z" fill="#3b4351"/><path d="M128.26,41h1V38.82h1.51V41H132v1.12h-1.23v4.5c0,.6.17.8.69.8a2.7,2.7,0,0,0,.54,0v1.12a5.17,5.17,0,0,1-1.22.12c-1,0-1.52-.29-1.52-1.82V42.08h-1Z" fill="#3b4351"/><path d="M132.15,41h1V38.82h1.51V41h1.23v1.12H134.7v4.5c0,.6.17.8.69.8a2.64,2.64,0,0,0,.54,0v1.12a5.08,5.08,0,0,1-1.21.12c-1,0-1.53-.29-1.53-1.82V42.08h-1Z" fill="#3b4351"/><path d="M136.79,38.5h1.51v10h-1.51Z" fill="#3b4351"/><path d="M141.13,44.93v.43c0,1,.12,2.3,1.26,2.3s1.2-1.22,1.2-1.68H145a2.48,2.48,0,0,1-2.65,2.72c-1.23,0-2.76-.37-2.76-3.86,0-2,.44-4.07,2.79-4.07,2.1,0,2.66,1.27,2.66,3.36v.8Zm2.42-1v-.4c0-1-.31-1.69-1.16-1.69s-1.26,1-1.26,1.94v.15Z" fill="#3b4351"/><path d="M150.16,47.58h0a1.61,1.61,0,0,1-1.65,1.12c-1.75,0-2.47-1.49-2.47-4.07,0-3.34,1.18-3.86,2.33-3.86a1.74,1.74,0,0,1,1.71,1.08h0V38.5h1.51v10h-1.43ZM148.79,42c-.86,0-1.18.7-1.18,2.73,0,1.71.21,2.79,1.27,2.79s1.28-1.05,1.28-2.67C150.16,43,150,42,148.79,42Z" fill="#3b4351"/><path d="M156.86,42.08h-1.05V41h1.05v-.7c0-1.41.69-1.87,1.92-1.87a6.67,6.67,0,0,1,.83,0v1.16h-.42c-.56,0-.81.21-.81.72V41h1.23v1.12h-1.23V48.5h-1.52Z" fill="#3b4351"/><path d="M165.24,46.93c0,.28.17.53.39.53a.54.54,0,0,0,.25,0v1a1.58,1.58,0,0,1-.74.18c-.67,0-1.23-.26-1.28-1h0A2,2,0,0,1,162,48.7c-1.22,0-2-.66-2-2.12a2.08,2.08,0,0,1,1.75-2.37l1.18-.32c.54-.15.88-.31.88-1s-.24-1.12-1-1.12c-1,0-1.15.72-1.15,1.45h-1.43c0-1.61.66-2.48,2.65-2.48,1.33,0,2.4.52,2.4,1.85Zm-1.43-2.41a11.23,11.23,0,0,1-1.68.7,1.23,1.23,0,0,0-.62,1.22c0,.63.31,1.14.94,1.14.91,0,1.36-.68,1.36-1.8Z" fill="#3b4351"/><path d="M166.77,41h1.52v1.18h0a1.85,1.85,0,0,1,1.75-1.37.89.89,0,0,1,.36,0v1.54a2.18,2.18,0,0,0-.63-.08c-.69,0-1.51.31-1.51,1.71V48.5h-1.52Z" fill="#3b4351"/><path d="M171.39,41h1.43v.89h.05a2.08,2.08,0,0,1,1.8-1.08,1.63,1.63,0,0,1,1.75,1.15,2.07,2.07,0,0,1,1.91-1.15c1.06,0,1.83.54,1.83,2V48.5h-1.51V43.33c0-1-.29-1.36-.91-1.36s-1.2.48-1.2,1.47V48.5H175V43.33c0-1-.29-1.36-.92-1.36s-1.19.49-1.19,1.47V48.5h-1.52Z" fill="#3b4351"/><path d="M181.75,38.39h1.52V39.9h-1.52Zm0,2.57h1.52V48.5h-1.52Z" fill="#3b4351"/><path d="M184.79,41h1.43v.89h0a2.16,2.16,0,0,1,1.94-1.08c1.14,0,1.87.52,1.87,2V48.5h-1.51V43.33c0-1-.27-1.36-1.05-1.36-.62,0-1.2.46-1.2,1.47V48.5h-1.52Z" fill="#3b4351"/><path d="M193,49.14a1,1,0,0,0,1.09.9,1.25,1.25,0,0,0,1.28-1.41V47.41h0a1.81,1.81,0,0,1-1.71,1c-1.75,0-2.26-1.72-2.26-3.79,0-1.65.26-3.88,2.4-3.88a1.65,1.65,0,0,1,1.65,1.12h0V41h1.43v7.18c0,1.83-.79,2.94-2.82,2.94-2.24,0-2.49-1.32-2.49-1.94Zm1.06-1.9c1.18,0,1.31-1.49,1.31-2.68S195.25,42,194.2,42s-1.27,1.12-1.27,2.52S193,47.24,194.1,47.24Z" fill="#3b4351"/><path d="M206.7,45.75c-.11,1.81-.7,3-2.57,3-2.19,0-2.8-1.61-2.8-4s.61-4,2.8-4a2.43,2.43,0,0,1,2.59,2.7h-1.51c0-.7-.19-1.62-1.08-1.58-1.08,0-1.29,1.17-1.29,2.84s.21,2.85,1.29,2.85c.84,0,1.15-.69,1.15-1.83Z" fill="#3b4351"/><path d="M207.54,44.73c0-2.35.62-4,2.8-4s2.82,1.61,2.82,4-.73,4-2.82,4S207.54,47.09,207.54,44.73Zm2.8,2.85c1.11,0,1.31-.93,1.31-2.85,0-1.67-.2-2.84-1.31-2.84s-1.29,1.17-1.29,2.84C209.05,46.65,209.26,47.58,210.34,47.58Z" fill="#3b4351"/><path d="M214.39,41h1.43v.89h0a2.09,2.09,0,0,1,1.8-1.08,1.65,1.65,0,0,1,1.76,1.15,2,2,0,0,1,1.9-1.15c1.07,0,1.84.54,1.84,2V48.5h-1.52V43.33c0-1-.29-1.36-.91-1.36s-1.2.48-1.2,1.47V48.5H218V43.33c0-1-.3-1.36-.93-1.36s-1.19.49-1.19,1.47V48.5h-1.51Z" fill="#3b4351"/><path d="M224.75,41h1.43v.89h0a2.09,2.09,0,0,1,1.8-1.08,1.65,1.65,0,0,1,1.76,1.15,2,2,0,0,1,1.9-1.15c1.07,0,1.84.54,1.84,2V48.5H232V43.33c0-1-.29-1.36-.91-1.36s-1.2.48-1.2,1.47V48.5h-1.52V43.33c0-1-.29-1.36-.92-1.36s-1.19.49-1.19,1.47V48.5h-1.51Z" fill="#3b4351"/><path d="M238.89,47.62h0a2.18,2.18,0,0,1-1.94,1.08c-1.12,0-1.87-.52-1.87-2.47V41h1.51v5.41c0,.84.36,1.12,1,1.12a1.18,1.18,0,0,0,1.24-1.26V41h1.51V48.5h-1.43Z" fill="#3b4351"/><path d="M241.77,41h1.43v.89h0a2.15,2.15,0,0,1,1.93-1.08c1.15,0,1.88.52,1.88,2V48.5h-1.51V43.33c0-1-.27-1.36-1-1.36-.62,0-1.21.46-1.21,1.47V48.5h-1.51Z" fill="#3b4351"/><path d="M248.57,38.39h1.52V39.9h-1.52Zm0,2.57h1.52V48.5h-1.52Z" fill="#3b4351"/><path d="M250.94,41h1V38.82h1.51V41h1.23v1.12h-1.23v4.5c0,.6.17.8.69.8a2.7,2.7,0,0,0,.54,0v1.12a5.17,5.17,0,0,1-1.22.12c-1,0-1.52-.29-1.52-1.82V42.08h-1Z" fill="#3b4351"/><path d="M255.57,38.39h1.52V39.9h-1.52Zm0,2.57h1.52V48.5h-1.52Z" fill="#3b4351"/><path d="M259.91,44.93v.43c0,1,.13,2.3,1.27,2.3s1.2-1.22,1.2-1.68h1.43a2.48,2.48,0,0,1-2.65,2.72c-1.23,0-2.76-.37-2.76-3.86,0-2,.44-4.07,2.79-4.07,2.1,0,2.66,1.27,2.66,3.36v.8Zm2.43-1v-.4c0-1-.31-1.69-1.16-1.69s-1.27,1-1.27,1.94v.15Z" fill="#3b4351"/><path d="M268.34,43.16V43c0-.61-.21-1.17-1-1.17-.6,0-1.08.27-1.08,1s.27.82,1.07,1.1l1,.34a2,2,0,0,1,1.64,2.17c0,1.61-1.19,2.3-2.7,2.3-1.91,0-2.48-.89-2.48-2.34v-.28h1.34v.23c0,.89.3,1.35,1.18,1.35s1.23-.42,1.23-1.11a1.09,1.09,0,0,0-.82-1.1L266.45,45a2,2,0,0,1-1.61-2.17c0-1.41,1-2.07,2.58-2.07,1.92,0,2.35,1.12,2.35,2.06v.33Z" fill="#3b4351"/><path d="M278.27,47.62h0a2.17,2.17,0,0,1-1.93,1.08c-1.13,0-1.88-.52-1.88-2.47V41h1.51v5.41c0,.84.37,1.12,1,1.12a1.18,1.18,0,0,0,1.24-1.26V41h1.51V48.5h-1.43Z" fill="#3b4351"/><path d="M281.15,41h1.43v.89h0a2.16,2.16,0,0,1,1.94-1.08c1.14,0,1.87.52,1.87,2V48.5h-1.51V43.33c0-1-.27-1.36-1.05-1.36-.62,0-1.21.46-1.21,1.47V48.5h-1.51Z" fill="#3b4351"/><path d="M291.74,47.58h0a1.61,1.61,0,0,1-1.65,1.12c-1.75,0-2.47-1.49-2.47-4.07,0-3.34,1.18-3.86,2.33-3.86a1.74,1.74,0,0,1,1.71,1.08h0V38.5h1.52v10h-1.43ZM290.36,42c-.85,0-1.17.7-1.17,2.73,0,1.71.21,2.79,1.27,2.79s1.28-1.05,1.28-2.67C291.74,43,291.54,42,290.36,42Z" fill="#3b4351"/><path d="M295.92,44.93v.43c0,1,.13,2.3,1.26,2.3s1.21-1.22,1.21-1.68h1.43a2.48,2.48,0,0,1-2.65,2.72c-1.23,0-2.76-.37-2.76-3.86,0-2,.43-4.07,2.79-4.07,2.1,0,2.66,1.27,2.66,3.36v.8Zm2.43-1v-.4c0-1-.31-1.69-1.17-1.69s-1.26,1-1.26,1.94v.15Z" fill="#3b4351"/><path d="M301.1,41h1.51v1.18h0a1.87,1.87,0,0,1,1.75-1.37.94.94,0,0,1,.37,0v1.54a2.24,2.24,0,0,0-.63-.08c-.69,0-1.52.31-1.52,1.71V48.5H301.1Z" fill="#3b4351"/><path d="M308.87,41h1.51v1.18h0a1.87,1.87,0,0,1,1.75-1.37.94.94,0,0,1,.37,0v1.54a2.24,2.24,0,0,0-.63-.08c-.69,0-1.52.31-1.52,1.71V48.5h-1.51Z" fill="#3b4351"/><path d="M317.13,47.62h0a2.17,2.17,0,0,1-1.93,1.08c-1.12,0-1.88-.52-1.88-2.47V41h1.51v5.41c0,.84.37,1.12,1,1.12a1.17,1.17,0,0,0,1.23-1.26V41h1.51V48.5h-1.43Z" fill="#3b4351"/><path d="M320.08,38.5h1.52v10h-1.52Z" fill="#3b4351"/><path d="M324.43,44.93v.43c0,1,.12,2.3,1.26,2.3s1.2-1.22,1.2-1.68h1.43a2.48,2.48,0,0,1-2.65,2.72c-1.23,0-2.76-.37-2.76-3.86,0-2,.44-4.07,2.79-4.07,2.1,0,2.66,1.27,2.66,3.36v.8Zm2.42-1v-.4c0-1-.31-1.69-1.16-1.69s-1.26,1-1.26,1.94v.15Z" fill="#3b4351"/><path d="M111.81,67.73c0-2.35.62-4,2.8-4s2.82,1.61,2.82,4-.73,4-2.82,4S111.81,70.09,111.81,67.73Zm2.8,2.85c1.11,0,1.31-.93,1.31-2.85,0-1.67-.2-2.84-1.31-2.84s-1.29,1.17-1.29,2.84C113.32,69.65,113.53,70.58,114.61,70.58Z" fill="#3b4351"/><path d="M119.05,65.08h-1V64h1v-.7c0-1.41.69-1.87,1.92-1.87a6.4,6.4,0,0,1,.82,0v1.16h-.42c-.56,0-.81.21-.81.72V64h1.23v1.12h-1.23V71.5h-1.51Z" fill="#3b4351"/><path d="M129.69,70.58h0A1.6,1.6,0,0,1,128,71.7c-1.75,0-2.47-1.49-2.47-4.07,0-3.34,1.18-3.86,2.33-3.86a1.73,1.73,0,0,1,1.71,1.08h0V61.5h1.51v10h-1.43ZM128.32,65c-.86,0-1.18.7-1.18,2.73,0,1.71.21,2.79,1.28,2.79s1.27-1,1.27-2.67C129.69,66,129.5,65,128.32,65Z" fill="#3b4351"/><path d="M133.88,67.93v.43c0,1,.12,2.3,1.26,2.3s1.2-1.22,1.2-1.68h1.43a2.48,2.48,0,0,1-2.65,2.72c-1.23,0-2.76-.37-2.76-3.86,0-2,.44-4.07,2.79-4.07,2.1,0,2.66,1.27,2.66,3.36v.8Zm2.42-1v-.4c0-1-.31-1.69-1.16-1.69s-1.26,1-1.26,1.94v.15Z" fill="#3b4351"/><path d="M142.3,66.16V66c0-.61-.21-1.17-1-1.17-.6,0-1.08.27-1.08,1s.27.82,1.07,1.1l1,.34a2,2,0,0,1,1.64,2.17c0,1.61-1.19,2.3-2.7,2.3-1.91,0-2.48-.89-2.48-2.34v-.28h1.34v.23c0,.89.3,1.35,1.18,1.35s1.23-.42,1.23-1.11a1.09,1.09,0,0,0-.82-1.1L140.41,68a2,2,0,0,1-1.61-2.17c0-1.41,1-2.07,2.58-2.07,1.92,0,2.35,1.12,2.35,2.06v.33Z" fill="#3b4351"/><path d="M148.27,71.7a1.74,1.74,0,0,1-1.71-1.08h0V74H145V64h1.43v.93h0a1.78,1.78,0,0,1,1.69-1.12c1.72,0,2.42,1.47,2.42,4.06C150.59,71,149.32,71.7,148.27,71.7ZM147.72,65c-1,0-1.27,1-1.27,2.68,0,1.81.22,2.84,1.29,2.84.85,0,1.26-.64,1.26-2.73C149,66.05,148.79,65,147.72,65Z" fill="#3b4351"/><path d="M151.46,67.73c0-2.35.62-4,2.8-4s2.82,1.61,2.82,4-.73,4-2.82,4S151.46,70.09,151.46,67.73Zm2.8,2.85c1.11,0,1.3-.93,1.3-2.85,0-1.67-.19-2.84-1.3-2.84S153,66.06,153,67.73C153,69.65,153.18,70.58,154.26,70.58Z" fill="#3b4351"/><path d="M157.56,64h1V61.82h1.51V64h1.23v1.12h-1.23v4.5c0,.6.17.8.69.8a2.7,2.7,0,0,0,.54,0v1.12a5.08,5.08,0,0,1-1.21.12c-1,0-1.53-.29-1.53-1.82V65.08h-1Z" fill="#3b4351"/><path d="M167.21,68.75c-.11,1.81-.7,3-2.58,3-2.18,0-2.8-1.61-2.8-4s.62-4,2.8-4a2.44,2.44,0,0,1,2.6,2.7h-1.52c0-.7-.18-1.62-1.08-1.58-1.07,0-1.28,1.17-1.28,2.84s.21,2.85,1.28,2.85c.84,0,1.15-.69,1.15-1.83Z" fill="#3b4351"/><path d="M171.77,64h1.43v.89h0a2.11,2.11,0,0,1,1.81-1.08,1.63,1.63,0,0,1,1.75,1.15,2.07,2.07,0,0,1,1.91-1.15c1.06,0,1.83.54,1.83,2V71.5H179V66.33c0-1-.3-1.36-.91-1.36s-1.21.48-1.21,1.47V71.5H175.4V66.33c0-1-.29-1.36-.92-1.36s-1.19.49-1.19,1.47V71.5h-1.52Z" fill="#3b4351"/><path d="M181.77,67.73c0-2.35.61-4,2.8-4s2.82,1.61,2.82,4-.73,4-2.82,4S181.77,70.09,181.77,67.73Zm2.8,2.85c1.11,0,1.3-.93,1.3-2.85,0-1.67-.19-2.84-1.3-2.84s-1.29,1.17-1.29,2.84C183.28,69.65,183.49,70.58,184.57,70.58Z" fill="#3b4351"/><path d="M188.54,64H190v.89H190A2.13,2.13,0,0,1,192,63.77c1.15,0,1.88.52,1.88,2V71.5h-1.52V66.33c0-1-.26-1.36-1.05-1.36-.61,0-1.2.46-1.2,1.47V71.5h-1.52Z" fill="#3b4351"/><path d="M200.22,69.93c0,.28.17.53.4.53a.57.57,0,0,0,.25,0v1a1.63,1.63,0,0,1-.75.18c-.67,0-1.23-.26-1.27-1h0A1.94,1.94,0,0,1,197,71.7c-1.22,0-2-.66-2-2.12a2.09,2.09,0,0,1,1.75-2.37l1.18-.32c.55-.15.88-.31.88-1s-.23-1.12-1-1.12c-1,0-1.15.72-1.15,1.45h-1.43c0-1.61.66-2.48,2.65-2.48,1.33,0,2.39.52,2.39,1.85Zm-1.43-2.41a10.81,10.81,0,0,1-1.68.7,1.24,1.24,0,0,0-.61,1.22c0,.63.31,1.14.94,1.14.91,0,1.35-.68,1.35-1.8Z" fill="#3b4351"/><path d="M201.76,64h1.51v1.18h0a1.87,1.87,0,0,1,1.75-1.37.94.94,0,0,1,.37,0v1.54a2.3,2.3,0,0,0-.63-.08c-.69,0-1.52.31-1.52,1.71V71.5h-1.51Z" fill="#3b4351"/><path d="M211.17,68.75c-.11,1.81-.7,3-2.58,3-2.18,0-2.8-1.61-2.8-4s.62-4,2.8-4a2.43,2.43,0,0,1,2.59,2.7h-1.51c0-.7-.18-1.62-1.08-1.58-1.08,0-1.29,1.17-1.29,2.84s.21,2.85,1.29,2.85c.84,0,1.15-.69,1.15-1.83Z" fill="#3b4351"/><path d="M212.22,61.5h1.51v3.28l0,0a2.18,2.18,0,0,1,1.85-1c1.15,0,1.88.52,1.88,2V71.5H216V66.33c0-1-.28-1.36-1.06-1.36-.61,0-1.2.48-1.2,1.47V71.5h-1.51Z" fill="#3b4351"/><path d="M221.79,64h1.57l1,5.94h0L225.56,64h1.71l1.12,5.94h0l1-5.94H231l-1.72,7.54h-1.7l-1.18-5.86h0l-1.08,5.86H223.5Z" fill="#3b4351"/><path d="M232,61.39h1.51V62.9H232ZM232,64h1.51V71.5H232Z" fill="#3b4351"/><path d="M234.34,64h1V61.82h1.52V64h1.23v1.12h-1.23v4.5c0,.6.16.8.68.8a2.75,2.75,0,0,0,.55,0v1.12a5.17,5.17,0,0,1-1.22.12c-1,0-1.53-.29-1.53-1.82V65.08h-1Z" fill="#3b4351"/><path d="M238.9,61.5h1.51v3.28l.05,0a2.15,2.15,0,0,1,1.85-1c1.14,0,1.87.52,1.87,2V71.5h-1.51V66.33c0-1-.28-1.36-1-1.36s-1.21.48-1.21,1.47V71.5H238.9Z" fill="#3b4351"/><path d="M249.06,61.5h1.52v10h-1.52Z" fill="#3b4351"/><path d="M256,70.62h0A2.17,2.17,0,0,1,254,71.7c-1.12,0-1.88-.52-1.88-2.47V64h1.52v5.41c0,.84.36,1.12,1,1.12a1.17,1.17,0,0,0,1.23-1.26V64h1.51V71.5H256Z" fill="#3b4351"/><path d="M260.21,67.59,258.26,64h1.65l1.18,2.5,1.23-2.5H264l-2,3.63,2,3.91h-1.64l-1.31-2.79-1.32,2.79h-1.61Z" fill="#3b4351"/><path d="M268.65,70.62h0a2.17,2.17,0,0,1-1.93,1.08c-1.12,0-1.88-.52-1.88-2.47V64h1.51v5.41c0,.84.37,1.12,1,1.12a1.18,1.18,0,0,0,1.23-1.26V64h1.51V71.5h-1.43Z" fill="#3b4351"/><path d="M271.53,64h1.52v1.18h0a1.87,1.87,0,0,1,1.76-1.37.89.89,0,0,1,.36,0v1.54a2.18,2.18,0,0,0-.63-.08c-.69,0-1.51.31-1.51,1.71V71.5h-1.52Z" fill="#3b4351"/><path d="M276,61.39h1.52V62.9H276ZM276,64h1.52V71.5H276Z" fill="#3b4351"/><path d="M278.76,67.73c0-2.35.61-4,2.8-4s2.81,1.61,2.81,4-.72,4-2.81,4S278.76,70.09,278.76,67.73Zm2.8,2.85c1.11,0,1.3-.93,1.3-2.85,0-1.67-.19-2.84-1.3-2.84s-1.29,1.17-1.29,2.84C280.27,69.65,280.48,70.58,281.56,70.58Z" fill="#3b4351"/><path d="M289.39,70.62h-.05a2.15,2.15,0,0,1-1.93,1.08c-1.12,0-1.88-.52-1.88-2.47V64h1.52v5.41c0,.84.36,1.12,1,1.12a1.17,1.17,0,0,0,1.23-1.26V64h1.51V71.5h-1.42Z" fill="#3b4351"/><path d="M295.52,66.16V66c0-.61-.21-1.17-1-1.17-.6,0-1.08.27-1.08,1s.27.82,1.07,1.1l1,.34a2,2,0,0,1,1.63,2.17c0,1.61-1.19,2.3-2.7,2.3-1.9,0-2.48-.89-2.48-2.34v-.28h1.35v.23c0,.89.29,1.35,1.17,1.35s1.23-.42,1.23-1.11a1.08,1.08,0,0,0-.82-1.1L293.63,68A2,2,0,0,1,292,65.84c0-1.41,1-2.07,2.57-2.07,1.92,0,2.36,1.12,2.36,2.06v.33Z" fill="#3b4351"/><path d="M306.68,68.75c-.12,1.81-.7,3-2.58,3-2.19,0-2.8-1.61-2.8-4s.61-4,2.8-4a2.43,2.43,0,0,1,2.59,2.7h-1.51c0-.7-.18-1.62-1.08-1.58-1.08,0-1.29,1.17-1.29,2.84s.21,2.85,1.29,2.85c.84,0,1.15-.69,1.15-1.83Z" fill="#3b4351"/><path d="M307.51,67.73c0-2.35.62-4,2.8-4s2.82,1.61,2.82,4-.73,4-2.82,4S307.51,70.09,307.51,67.73Zm2.8,2.85c1.11,0,1.31-.93,1.31-2.85,0-1.67-.2-2.84-1.31-2.84S309,66.06,309,67.73C309,69.65,309.24,70.58,310.31,70.58Z" fill="#3b4351"/><path d="M318.14,70.62h0a2.17,2.17,0,0,1-1.93,1.08c-1.12,0-1.88-.52-1.88-2.47V64h1.51v5.41c0,.84.37,1.12,1,1.12a1.18,1.18,0,0,0,1.24-1.26V64h1.51V71.5h-1.43Z" fill="#3b4351"/><path d="M321,64h1.52v1.18h0a1.87,1.87,0,0,1,1.75-1.37.94.94,0,0,1,.37,0v1.54a2.24,2.24,0,0,0-.63-.08c-.69,0-1.51.31-1.51,1.71V71.5H321Z" fill="#3b4351"/><path d="M324.76,64h1V61.82h1.51V64h1.23v1.12h-1.23v4.5c0,.6.17.8.69.8a2.7,2.7,0,0,0,.54,0v1.12a5.17,5.17,0,0,1-1.22.12c-1,0-1.52-.29-1.52-1.82V65.08h-1Z" fill="#3b4351"/><path d="M329.48,69.65h1.6V71.5h-1.6Z" fill="#3b4351"/><path d="M126,84.5h3.16c1.92,0,2.76,1.2,2.76,2.91a2.71,2.71,0,0,1-2.93,3h-1.4V94.5H126Zm1.59,4.66h1.14a1.51,1.51,0,0,0,1.6-1.72c0-1.08-.44-1.74-1.71-1.74h-1Z" fill="#3b4351"/><path d="M137.8,92.93c0,.28.17.53.4.53a.57.57,0,0,0,.25,0v1a1.58,1.58,0,0,1-.74.18c-.68,0-1.24-.26-1.28-1h0a1.94,1.94,0,0,1-1.87,1.11c-1.22,0-2-.66-2-2.12a2.09,2.09,0,0,1,1.76-2.37l1.17-.32c.55-.15.88-.31.88-1s-.23-1.12-1-1.12c-1,0-1.15.72-1.15,1.45h-1.43c0-1.61.66-2.48,2.65-2.48,1.33,0,2.39.52,2.39,1.85Zm-1.43-2.41a10.81,10.81,0,0,1-1.68.7,1.24,1.24,0,0,0-.61,1.22c0,.63.31,1.14.94,1.14.91,0,1.35-.68,1.35-1.8Z" fill="#3b4351"/><path d="M139.41,84.5h1.51v10h-1.51Z" fill="#3b4351"/><path d="M147.39,92.93c0,.28.17.53.4.53a.57.57,0,0,0,.25,0v1a1.58,1.58,0,0,1-.74.18c-.68,0-1.24-.26-1.28-1h0a1.94,1.94,0,0,1-1.87,1.11c-1.22,0-2-.66-2-2.12a2.09,2.09,0,0,1,1.76-2.37l1.17-.32c.55-.15.88-.31.88-1s-.23-1.12-1-1.12c-1,0-1.15.72-1.15,1.45h-1.43c0-1.61.66-2.48,2.65-2.48,1.33,0,2.39.52,2.39,1.85ZM146,90.52a10.81,10.81,0,0,1-1.68.7,1.24,1.24,0,0,0-.61,1.22c0,.63.31,1.14.94,1.14.91,0,1.35-.68,1.35-1.8Z" fill="#3b4351"/><path d="M154,91.75c-.12,1.81-.7,3-2.58,3-2.19,0-2.8-1.61-2.8-4s.61-4,2.8-4a2.43,2.43,0,0,1,2.59,2.7h-1.51c0-.7-.19-1.62-1.08-1.58-1.08,0-1.29,1.17-1.29,2.84s.21,2.85,1.29,2.85c.84,0,1.15-.69,1.15-1.83Z" fill="#3b4351"/><path d="M156.45,90.93v.43c0,1,.13,2.3,1.26,2.3s1.2-1.22,1.2-1.68h1.43a2.48,2.48,0,0,1-2.64,2.72c-1.24,0-2.76-.37-2.76-3.86,0-2,.43-4.07,2.78-4.07,2.11,0,2.67,1.27,2.67,3.36v.8Zm2.42-1v-.4c0-1-.31-1.69-1.16-1.69s-1.26,1-1.26,1.94v.15Z" fill="#3b4351"/><path d="M164.88,89.16V89c0-.61-.21-1.17-1-1.17-.6,0-1.07.27-1.07,1s.26.82,1.06,1.1l1,.34a2,2,0,0,1,1.64,2.17c0,1.61-1.2,2.3-2.71,2.3-1.9,0-2.48-.89-2.48-2.34v-.28h1.35v.23c0,.89.29,1.35,1.17,1.35s1.24-.42,1.24-1.11a1.09,1.09,0,0,0-.83-1.1L163,91a2,2,0,0,1-1.61-2.17c0-1.41,1-2.07,2.57-2.07,1.92,0,2.36,1.12,2.36,2.06v.33Z" fill="#3b4351"/><path d="M170.66,90.73c0-2.35.61-4,2.8-4s2.82,1.61,2.82,4-.73,4-2.82,4S170.66,93.09,170.66,90.73Zm2.8,2.85c1.11,0,1.3-.93,1.3-2.85,0-1.67-.19-2.84-1.3-2.84s-1.29,1.17-1.29,2.84C172.17,92.65,172.38,93.58,173.46,93.58Z" fill="#3b4351"/><path d="M177.9,88.08h-1.05V87h1.05v-.7c0-1.41.68-1.87,1.92-1.87a6.4,6.4,0,0,1,.82,0v1.16h-.42c-.56,0-.81.21-.81.72V87h1.23v1.12h-1.23V94.5H177.9Z" fill="#3b4351"/><path d="M186.16,84.5h2l2.64,10h-1.67l-.62-2.45h-2.93L185,94.5h-1.67Zm2.13,6.27-1.15-4.93h0l-1.19,4.93Z" fill="#3b4351"/><path d="M193,95.14A1,1,0,0,0,194,96a1.24,1.24,0,0,0,1.27-1.41V93.41h0a1.81,1.81,0,0,1-1.71,1c-1.75,0-2.26-1.72-2.26-3.79,0-1.65.25-3.88,2.4-3.88a1.66,1.66,0,0,1,1.65,1.12h0V87h1.43v7.18c0,1.83-.79,2.94-2.82,2.94-2.24,0-2.49-1.32-2.49-1.94Zm1.06-1.9c1.18,0,1.3-1.49,1.3-2.68s-.15-2.59-1.2-2.59-1.27,1.12-1.27,2.52S192.89,93.24,194,93.24Z" fill="#3b4351"/><path d="M198.17,84.5h1.51v3.28l0,0a2.18,2.18,0,0,1,1.85-1c1.15,0,1.88.52,1.88,2V94.5h-1.51V89.33c0-1-.28-1.36-1.05-1.36-.62,0-1.21.48-1.21,1.47V94.5h-1.51Z" fill="#3b4351"/><path d="M205,84.39h1.51V85.9H205ZM205,87h1.51V94.5H205Z" fill="#3b4351"/><path d="M213,92.93c0,.28.17.53.4.53a.57.57,0,0,0,.25,0v1a1.58,1.58,0,0,1-.74.18c-.68,0-1.24-.26-1.28-1h0a1.94,1.94,0,0,1-1.87,1.11c-1.22,0-2-.66-2-2.12a2.08,2.08,0,0,1,1.75-2.37l1.17-.32c.55-.15.89-.31.89-1s-.24-1.12-1-1.12c-1,0-1.15.72-1.15,1.45h-1.43c0-1.61.66-2.48,2.65-2.48,1.33,0,2.39.52,2.39,1.85Zm-1.42-2.41a11.23,11.23,0,0,1-1.68.7,1.23,1.23,0,0,0-.62,1.22c0,.63.31,1.14.94,1.14.91,0,1.36-.68,1.36-1.8Z" fill="#3b4351"/><path d="M219.07,85.84h-2.38V84.5H223v1.34h-2.34V94.5h-1.6Z" fill="#3b4351"/><path d="M222.78,87h1.51v1.18h0a1.87,1.87,0,0,1,1.75-1.37.94.94,0,0,1,.37,0v1.54a2.3,2.3,0,0,0-.63-.08c-.69,0-1.52.31-1.52,1.71V94.5h-1.51Z" fill="#3b4351"/><path d="M227.26,84.39h1.51V85.9h-1.51Zm0,2.57h1.51V94.5h-1.51Z" fill="#3b4351"/><path d="M235.24,92.93c0,.28.17.53.39.53a.59.59,0,0,0,.26,0v1a1.63,1.63,0,0,1-.75.18c-.67,0-1.23-.26-1.27-1h0A2,2,0,0,1,232,94.7c-1.21,0-2-.66-2-2.12a2.09,2.09,0,0,1,1.75-2.37l1.18-.32c.55-.15.88-.31.88-1s-.23-1.12-1-1.12c-1,0-1.15.72-1.15,1.45H230.2c0-1.61.66-2.48,2.65-2.48,1.33,0,2.39.52,2.39,1.85Zm-1.43-2.41a10.81,10.81,0,0,1-1.68.7,1.24,1.24,0,0,0-.61,1.22c0,.63.3,1.14.93,1.14.92,0,1.36-.68,1.36-1.8Z" fill="#3b4351"/><path d="M240.63,93.58h0A1.6,1.6,0,0,1,239,94.7c-1.75,0-2.46-1.49-2.46-4.07,0-3.34,1.17-3.86,2.32-3.86a1.73,1.73,0,0,1,1.71,1.08h0V84.5h1.51v10h-1.43ZM239.26,88c-.86,0-1.18.7-1.18,2.73,0,1.71.21,2.79,1.28,2.79s1.27-1,1.27-2.67C240.63,89,240.44,88,239.26,88Z" fill="#3b4351"/><path d="M248.46,92.93c0,.28.17.53.39.53a.54.54,0,0,0,.25,0v1a1.58,1.58,0,0,1-.74.18c-.67,0-1.23-.26-1.27-1h0a2,2,0,0,1-1.88,1.11c-1.22,0-2-.66-2-2.12A2.08,2.08,0,0,1,245,90.21l1.18-.32c.54-.15.88-.31.88-1s-.24-1.12-1-1.12c-1,0-1.15.72-1.15,1.45h-1.42c0-1.61.65-2.48,2.64-2.48,1.33,0,2.4.52,2.4,1.85ZM247,90.52a11.23,11.23,0,0,1-1.68.7,1.23,1.23,0,0,0-.62,1.22c0,.63.31,1.14.94,1.14.91,0,1.36-.68,1.36-1.8Z" fill="#3b4351"/><path d="M258.3,92.93c0,.28.17.53.39.53a.54.54,0,0,0,.25,0v1a1.55,1.55,0,0,1-.74.18c-.67,0-1.23-.26-1.27-1h0A2,2,0,0,1,255,94.7c-1.22,0-2-.66-2-2.12a2.08,2.08,0,0,1,1.75-2.37l1.18-.32c.55-.15.88-.31.88-1s-.24-1.12-1-1.12c-1,0-1.14.72-1.14,1.45h-1.43c0-1.61.66-2.48,2.64-2.48,1.34,0,2.4.52,2.4,1.85Zm-1.43-2.41a11.23,11.23,0,0,1-1.68.7,1.25,1.25,0,0,0-.62,1.22c0,.63.31,1.14.94,1.14.91,0,1.36-.68,1.36-1.8Z" fill="#3b4351"/><path d="M259.84,87h1.43v.89h0a2.15,2.15,0,0,1,1.93-1.08c1.15,0,1.88.52,1.88,2V94.5h-1.51V89.33c0-1-.27-1.36-1.06-1.36-.61,0-1.2.46-1.2,1.47V94.5h-1.51Z" fill="#3b4351"/><path d="M270.42,93.58h0a1.6,1.6,0,0,1-1.65,1.12c-1.75,0-2.46-1.49-2.46-4.07,0-3.34,1.17-3.86,2.32-3.86a1.73,1.73,0,0,1,1.71,1.08h0V84.5h1.51v10h-1.43ZM269.05,88c-.85,0-1.18.7-1.18,2.73,0,1.71.21,2.79,1.28,2.79s1.27-1,1.27-2.67C270.42,89,270.23,88,269.05,88Z" fill="#3b4351"/><path d="M276.76,84.5h3.17c1.92,0,2.76,1.2,2.76,2.91a2.72,2.72,0,0,1-2.93,3h-1.4V94.5h-1.6Zm1.6,4.66h1.13a1.5,1.5,0,0,0,1.6-1.72c0-1.08-.43-1.74-1.71-1.74h-1Z" fill="#3b4351"/><path d="M288.61,92.93c0,.28.17.53.39.53a.54.54,0,0,0,.25,0v1a1.55,1.55,0,0,1-.74.18c-.67,0-1.23-.26-1.27-1h0a2,2,0,0,1-1.88,1.11c-1.22,0-2-.66-2-2.12a2.08,2.08,0,0,1,1.75-2.37l1.18-.32c.54-.15.88-.31.88-1s-.24-1.12-1-1.12c-1,0-1.14.72-1.14,1.45h-1.43c0-1.61.66-2.48,2.64-2.48,1.33,0,2.4.52,2.4,1.85Zm-1.43-2.41a11.23,11.23,0,0,1-1.68.7,1.25,1.25,0,0,0-.62,1.22c0,.63.31,1.14.94,1.14.91,0,1.36-.68,1.36-1.8Z" fill="#3b4351"/><path d="M291.45,90.93v.43c0,1,.13,2.3,1.26,2.3s1.2-1.22,1.2-1.68h1.43a2.48,2.48,0,0,1-2.64,2.72c-1.24,0-2.76-.37-2.76-3.86,0-2,.43-4.07,2.78-4.07,2.11,0,2.67,1.27,2.67,3.36v.8Zm2.42-1v-.4c0-1-.31-1.69-1.16-1.69s-1.26,1-1.26,1.94v.15Z" fill="#3b4351"/><path d="M299.88,89.16V89c0-.61-.21-1.17-1-1.17-.6,0-1.07.27-1.07,1s.26.82,1.06,1.1l1,.34a2,2,0,0,1,1.64,2.17c0,1.61-1.2,2.3-2.71,2.3-1.9,0-2.48-.89-2.48-2.34v-.28h1.35v.23c0,.89.29,1.35,1.17,1.35s1.24-.42,1.24-1.11a1.09,1.09,0,0,0-.83-1.1L298,91a2,2,0,0,1-1.61-2.17c0-1.41,1-2.07,2.57-2.07,1.92,0,2.36,1.12,2.36,2.06v.33Z" fill="#3b4351"/><path d="M301.92,87h1V84.82h1.51V87h1.23v1.12h-1.23v4.5c0,.6.17.8.69.8a2.7,2.7,0,0,0,.54,0v1.12a5.17,5.17,0,0,1-1.22.12c-1,0-1.52-.29-1.52-1.82V88.08h-1Z" fill="#3b4351"/><path d="M306.19,90.73c0-2.35.62-4,2.8-4s2.82,1.61,2.82,4-.73,4-2.82,4S306.19,93.09,306.19,90.73Zm2.8,2.85c1.11,0,1.3-.93,1.3-2.85,0-1.67-.19-2.84-1.3-2.84s-1.29,1.17-1.29,2.84C307.7,92.65,307.91,93.58,309,93.58Z" fill="#3b4351"/><path d="M316.22,89.16V89c0-.61-.21-1.17-1-1.17-.6,0-1.08.27-1.08,1s.27.82,1.07,1.1l1,.34a2,2,0,0,1,1.64,2.17c0,1.61-1.19,2.3-2.7,2.3-1.91,0-2.48-.89-2.48-2.34v-.28H314v.23c0,.89.29,1.35,1.17,1.35s1.23-.42,1.23-1.11a1.09,1.09,0,0,0-.82-1.1L314.33,91a2,2,0,0,1-1.62-2.17c0-1.41,1-2.07,2.58-2.07,1.92,0,2.35,1.12,2.35,2.06v.33Z" fill="#3b4351"/></g></g></g></g></svg>