<svg xmlns="http://www.w3.org/2000/svg" viewBox="0 0 1847.91 112"><title>bc1500text</title><g id="YEARS"><g id="Right"><path d="M1785.86,62.08h6c2.78,0,5,1.25,5,4.5,0,2.23-.91,3.64-2.73,4.21v0c2,.37,3.33,1.59,3.33,4.73s-2.24,5.07-5.72,5.07h-5.88Zm5.31,7.83c1.79,0,2.73-1.17,2.73-2.94,0-2.21-1.33-2.66-3-2.66h-2.08v5.6Zm.6,8.5c1.76,0,2.72-1.12,2.72-3.28a2.81,2.81,0,0,0-2.91-3.14h-2.75v6.42Z"/><path d="M1799.15,77.21h3v3.43h-3Z"/><path d="M1822.94,74v.39c0,3.35-1.38,6.63-5.72,6.63-4.68,0-6.14-3-6.14-9.65s1.46-9.65,6.16-9.65c5.28,0,5.59,3.88,5.59,5.83v.34h-3v-.32c0-1.74-.52-3.69-2.65-3.61s-3.17,1.35-3.17,7.33,1,7.49,3.17,7.49c2.49,0,2.75-2.73,2.75-4.47V74Z"/><path d="M1824.65,77.21h3v3.43h-3Z"/><path d="M1787.21,105.64V92.28h-3.82V90.35h.29c1.77,0,3.8-.44,4.34-2.75v-.37h2.16v18.41Z"/><path d="M1795.14,100.68H1798v.49a2.35,2.35,0,0,0,2.42,2.6c2.08,0,2.63-2,2.63-4.18s-.58-3.93-2.47-3.93a2.34,2.34,0,0,0-2.42,1.69l-2.63-.1.91-9.65h8.87V90h-6.66l-.6,4.84.06,0a4,4,0,0,1,3.09-1.43c3.85,0,4.81,3.25,4.81,6.09,0,3.69-1.69,6.5-5.67,6.5-3.3,0-5.15-1.69-5.15-4.94Z"/><path d="M1813,87.23c3.54,0,5.51,2.21,5.51,9.39s-2,9.39-5.51,9.39-5.51-2.21-5.51-9.39S1809.5,87.23,1813,87.23Zm0,16.7c2,0,2.55-2,2.55-7.31s-.55-7.31-2.55-7.31-2.55,2-2.55,7.31S1811,103.93,1813,103.93Z"/><path d="M1825.51,87.23c3.54,0,5.51,2.21,5.51,9.39s-2,9.39-5.51,9.39-5.51-2.21-5.51-9.39S1822,87.23,1825.51,87.23Zm0,16.7c2,0,2.55-2,2.55-7.31s-.55-7.31-2.55-7.31-2.55,2-2.55,7.31S1823.51,103.93,1825.51,103.93Z"/></g><g id="left"><path d="M16.11,65.68h6c2.78,0,5,1.24,5,4.49,0,2.24-.91,3.64-2.73,4.22v0c2,.36,3.33,1.58,3.33,4.73S25.47,84.24,22,84.24H16.11Zm5.31,7.82c1.79,0,2.73-1.17,2.73-2.94,0-2.21-1.33-2.65-3-2.65H19.08V73.5ZM22,82c1.77,0,2.73-1.11,2.73-3.27a2.82,2.82,0,0,0-2.91-3.15H19.08V82Z"/><path d="M29.4,80.81h3v3.43h-3Z"/><path d="M53.19,77.58V78c0,3.35-1.38,6.63-5.72,6.63-4.68,0-6.14-3-6.14-9.65s1.46-9.65,6.16-9.65c5.28,0,5.59,3.88,5.59,5.83v.33h-3v-.31c0-1.74-.52-3.69-2.65-3.61S44.3,68.9,44.3,74.88s1,7.49,3.17,7.49c2.49,0,2.75-2.73,2.75-4.47v-.32Z"/><path d="M54.9,80.81h3v3.43h-3Z"/><path d="M17.46,109.24V95.88H13.64V94h.29c1.77,0,3.79-.44,4.34-2.75v-.37h2.16v18.41Z"/><path d="M25.39,104.27H28.2v.5a2.35,2.35,0,0,0,2.42,2.6c2.08,0,2.63-2,2.63-4.19s-.58-3.92-2.47-3.92A2.34,2.34,0,0,0,28.36,101l-2.63-.11.91-9.64h8.87v2.36H28.85l-.6,4.84.06,0A4,4,0,0,1,31.4,97c3.85,0,4.81,3.25,4.81,6.08,0,3.7-1.69,6.51-5.67,6.51-3.3,0-5.15-1.69-5.15-4.94Z"/><path d="M43.28,90.83c3.54,0,5.51,2.21,5.51,9.39s-2,9.39-5.51,9.39-5.51-2.22-5.51-9.39S39.75,90.83,43.28,90.83Zm0,16.7c2,0,2.55-2,2.55-7.31s-.55-7.31-2.55-7.31-2.55,2-2.55,7.31S41.28,107.53,43.28,107.53Z"/><path d="M55.76,90.83c3.54,0,5.51,2.21,5.51,9.39s-2,9.39-5.51,9.39-5.51-2.22-5.51-9.39S52.22,90.83,55.76,90.83Zm0,16.7c2,0,2.55-2,2.55-7.31s-.55-7.31-2.55-7.31-2.55,2-2.55,7.31S53.76,107.53,55.76,107.53Z"/></g></g><g id="Text"><g id="Huns"><path d="M1605.42,86.35h-4.16V84h11v2.35h-4.1v15.14h-2.79Z" fill="#3b4351"/><path d="M1620.56,98.75c0,.49.3.93.69.93a1.18,1.18,0,0,0,.44-.07v1.71a2.83,2.83,0,0,1-1.3.32c-1.17,0-2.16-.47-2.23-1.74h-.05a3.4,3.4,0,0,1-3.28,1.94c-2.13,0-3.43-1.16-3.43-3.7,0-3,1.3-3.56,3.06-4.15l2.06-.56c1-.27,1.54-.54,1.54-1.69s-.41-2-1.81-2c-1.76,0-2,1.25-2,2.52h-2.5c0-2.82,1.15-4.33,4.63-4.33,2.33,0,4.19.9,4.19,3.23Zm-2.5-4.22a20,20,0,0,1-2.94,1.23,2.17,2.17,0,0,0-1.08,2.13c0,1.1.54,2,1.65,2,1.59,0,2.37-1.17,2.37-3.13Z" fill="#3b4351"/><path d="M1623.26,88.31h2.64v2.06h0A3.26,3.26,0,0,1,1629,88a1.56,1.56,0,0,1,.63.09v2.7a3.73,3.73,0,0,0-1.1-.15c-1.2,0-2.65.54-2.65,3v7.89h-2.64Z" fill="#3b4351"/><path d="M1629.8,88.31h1.81V84.56h2.65v3.75h2.15v2h-2.15v7.87c0,1,.29,1.39,1.2,1.39a4.91,4.91,0,0,0,1-.07v2a8.44,8.44,0,0,1-2.13.22c-1.76,0-2.67-.52-2.67-3.19V90.27h-1.81Z" fill="#3b4351"/><path d="M1646.43,98.75c0,.49.3.93.69.93a1.18,1.18,0,0,0,.44-.07v1.71a2.83,2.83,0,0,1-1.3.32c-1.17,0-2.15-.47-2.23-1.74h0a3.4,3.4,0,0,1-3.28,1.94c-2.13,0-3.43-1.16-3.43-3.7,0-3,1.3-3.56,3.06-4.15l2.06-.56c1-.27,1.55-.54,1.55-1.69s-.42-2-1.82-2c-1.76,0-2,1.25-2,2.52h-2.5c0-2.82,1.16-4.33,4.63-4.33,2.33,0,4.19.9,4.19,3.23Zm-2.49-4.22a20.62,20.62,0,0,1-3,1.23,2.16,2.16,0,0,0-1.07,2.13c0,1.1.54,2,1.64,2,1.59,0,2.38-1.17,2.38-3.13Z" fill="#3b4351"/><path d="M1649.13,88.31h2.64v2.06h0a3.26,3.26,0,0,1,3.07-2.4,1.53,1.53,0,0,1,.63.09v2.7a3.73,3.73,0,0,0-1.1-.15c-1.2,0-2.65.54-2.65,3v7.89h-2.64Z" fill="#3b4351"/><path d="M1662.53,92.16v-.35c0-1-.37-2-1.74-2-1,0-1.89.46-1.89,1.71,0,1.06.47,1.45,1.87,1.94l1.69.59c2,.66,2.86,1.71,2.86,3.8,0,2.81-2.08,4-4.73,4-3.33,0-4.33-1.55-4.33-4.1v-.49h2.35v.42c0,1.54.51,2.35,2.06,2.35s2.15-.73,2.15-1.93a1.91,1.91,0,0,0-1.44-1.94l-2.16-.76c-2-.66-2.82-1.69-2.82-3.8,0-2.47,1.77-3.62,4.51-3.62,3.36,0,4.12,2,4.12,3.6v.59Z" fill="#3b4351"/></g><g id="Egytians"><g id="small"><path d="M504.17,17h1V14.82h1.51V17H508v1.12h-1.23v4.5c0,.6.17.79.69.79a2.7,2.7,0,0,0,.54,0v1.12a4.64,4.64,0,0,1-1.22.13c-1,0-1.52-.29-1.52-1.82V18.08h-1Z" fill="#3b4351"/><path d="M508.73,14.49h1.52v3.28l0,0a2.14,2.14,0,0,1,1.85-1c1.15,0,1.88.52,1.88,2V24.5H512.5V19.33c0-1-.28-1.36-1.05-1.36-.61,0-1.2.47-1.2,1.47V24.5h-1.52Z" fill="#3b4351"/><path d="M516.77,20.92v.44c0,1,.13,2.3,1.26,2.3s1.21-1.22,1.21-1.69h1.43A2.48,2.48,0,0,1,518,24.69c-1.23,0-2.76-.36-2.76-3.85,0-2,.43-4.08,2.79-4.08,2.1,0,2.66,1.28,2.66,3.37v.79Zm2.42-1v-.41c0-.95-.3-1.68-1.16-1.68s-1.26.95-1.26,1.93v.16Z" fill="#3b4351"/><path d="M525,16.65a1.88,1.88,0,0,1,1.6-2.16v.82a1,1,0,0,0-.7,1.13v.21h.7V18.5H525Zm2.5,0c0-1.12.36-1.92,1.59-2.16v.82a1,1,0,0,0-.7,1.13v.21h.7V18.5H527.5Z" fill="#3b4351"/><path d="M529.94,14.49h1.7l1.69,8h0l1.8-8h1.69l-2.52,10h-2Z" fill="#3b4351"/><path d="M542.18,22.93c0,.28.17.53.4.53a.76.76,0,0,0,.25,0v1a1.58,1.58,0,0,1-.74.18c-.68,0-1.24-.27-1.28-1h0a1.93,1.93,0,0,1-1.87,1.11c-1.22,0-2-.66-2-2.11a2.09,2.09,0,0,1,1.76-2.37l1.17-.32c.55-.16.88-.31.88-1s-.23-1.12-1-1.12c-1,0-1.15.71-1.15,1.44h-1.43c0-1.61.66-2.48,2.65-2.48,1.33,0,2.39.52,2.39,1.85Zm-1.43-2.41a11.88,11.88,0,0,1-1.68.7,1.24,1.24,0,0,0-.61,1.22c0,.63.31,1.13.94,1.13.91,0,1.35-.67,1.35-1.79Z" fill="#3b4351"/><path d="M543.79,14.49h1.51v10h-1.51Z" fill="#3b4351"/><path d="M546.9,14.49h1.51v10H546.9Z" fill="#3b4351"/><path d="M551.24,20.92v.44c0,1,.13,2.3,1.26,2.3s1.2-1.22,1.2-1.69h1.43a2.48,2.48,0,0,1-2.64,2.72c-1.24,0-2.76-.36-2.76-3.85,0-2,.43-4.08,2.78-4.08,2.1,0,2.67,1.28,2.67,3.37v.79Zm2.42-1v-.41c0-.95-.31-1.68-1.16-1.68s-1.26.95-1.26,1.93v.16Z" fill="#3b4351"/><path d="M557.43,17l1.3,5.66h0L560,17h1.58l-2.07,7.82c-.6,2-1.06,2.34-2.63,2.29a3,3,0,0,1-.6-.05V25.81a2,2,0,0,0,.49.06c.51,0,.85-.1,1-.59l.2-.62L555.8,17Z" fill="#3b4351"/><path d="M565.45,20.73c0-2.36.61-4,2.8-4s2.81,1.61,2.81,4-.72,4-2.81,4S565.45,23.08,565.45,20.73Zm2.8,2.84c1.11,0,1.3-.92,1.3-2.84,0-1.67-.19-2.85-1.3-2.85S567,19.06,567,20.73C567,22.65,567.17,23.57,568.25,23.57Z" fill="#3b4351"/><path d="M572.69,18.08h-1.05V17h1.05v-.7c0-1.42.68-1.88,1.92-1.88.32,0,.6,0,.82,0v1.17H575c-.56,0-.81.21-.81.71V17h1.23v1.12H574.2V24.5h-1.51Z" fill="#3b4351"/><path d="M578.8,17h1V14.82h1.51V17h1.24v1.12h-1.24v4.5c0,.6.17.79.69.79a2.81,2.81,0,0,0,.55,0v1.12a4.69,4.69,0,0,1-1.22.13c-1,0-1.53-.29-1.53-1.82V18.08h-1Z" fill="#3b4351"/><path d="M583.37,14.49h1.51v3.28l0,0a2.16,2.16,0,0,1,1.85-1c1.15,0,1.88.52,1.88,2V24.5h-1.51V19.33c0-1-.28-1.36-1-1.36s-1.21.47-1.21,1.47V24.5h-1.51Z" fill="#3b4351"/><path d="M591.4,20.92v.44c0,1,.13,2.3,1.27,2.3s1.2-1.22,1.2-1.69h1.43a2.48,2.48,0,0,1-2.65,2.72c-1.23,0-2.76-.36-2.76-3.85,0-2,.44-4.08,2.79-4.08,2.1,0,2.66,1.28,2.66,3.37v.79Zm2.43-1v-.41c0-.95-.31-1.68-1.16-1.68s-1.27.95-1.27,1.93v.16Z" fill="#3b4351"/><path d="M601.16,15.84h-2.38V14.49h6.32v1.35h-2.34V24.5h-1.6Z" fill="#3b4351"/><path d="M604.58,20.73c0-2.36.61-4,2.8-4s2.81,1.61,2.81,4-.72,4-2.81,4S604.58,23.08,604.58,20.73Zm2.8,2.84c1.11,0,1.3-.92,1.3-2.84,0-1.67-.19-2.85-1.3-2.85s-1.29,1.18-1.29,2.85C606.09,22.65,606.3,23.57,607.38,23.57Z" fill="#3b4351"/><path d="M611.42,17h1.43v.88h0a2.13,2.13,0,0,1,1.81-1.08,1.63,1.63,0,0,1,1.75,1.15,2.07,2.07,0,0,1,1.91-1.15c1.06,0,1.83.55,1.83,2V24.5h-1.51V19.33c0-1-.29-1.36-.91-1.36s-1.21.47-1.21,1.47V24.5h-1.51V19.33c0-1-.29-1.36-.92-1.36s-1.19.49-1.19,1.47V24.5h-1.52Z" fill="#3b4351"/><path d="M621.71,14.49h1.52v3.35h0A1.75,1.75,0,0,1,625,16.76c1.15,0,2.33.52,2.33,3.87,0,2.59-.72,4.06-2.47,4.06a1.61,1.61,0,0,1-1.65-1.12h0v.93h-1.43Zm2.71,9c1.06,0,1.27-1.08,1.27-2.79,0-2-.32-2.73-1.17-2.73-1.18,0-1.38,1-1.38,2.84C623.14,22.44,623.38,23.49,624.42,23.49Z" fill="#3b4351"/><path d="M631.7,19.16V19c0-.6-.21-1.16-1-1.16-.6,0-1.08.27-1.08,1s.27.83,1.07,1.11l1,.33a2,2,0,0,1,1.63,2.17c0,1.62-1.19,2.3-2.7,2.3-1.9,0-2.48-.88-2.48-2.34v-.28h1.35v.24c0,.88.29,1.35,1.17,1.35s1.24-.43,1.24-1.11a1.09,1.09,0,0,0-.83-1.11L629.81,21a2,2,0,0,1-1.61-2.17c0-1.42,1-2.08,2.57-2.08,1.92,0,2.36,1.12,2.36,2.06v.34Z" fill="#3b4351"/><path d="M634.57,22.65h1.59V24.5h-1.59Z" fill="#3b4351"/><path d="M637,14.49h1.59v1.85c0,1.12-.36,1.92-1.59,2.16v-.81a1.05,1.05,0,0,0,.7-1.14v-.21H637Zm2.49,0H641v1.85a1.88,1.88,0,0,1-1.6,2.16v-.81a1.05,1.05,0,0,0,.7-1.14v-.21h-.7Z" fill="#3b4351"/><path d="M484.63,55.91v.21c0,1.81-.74,3.57-3.08,3.57-2.52,0-3.3-1.62-3.3-5.19s.78-5.2,3.32-5.2c2.84,0,3,2.09,3,3.14v.18H483v-.17c0-.94-.28-2-1.43-2s-1.71.73-1.71,4,.52,4,1.71,4c1.35,0,1.49-1.47,1.49-2.41v-.17Z" fill="#3b4351"/><path d="M485.36,55.73c0-2.36.61-4,2.8-4s2.81,1.61,2.81,4-.72,4-2.81,4S485.36,58.08,485.36,55.73Zm2.8,2.84c1.11,0,1.3-.92,1.3-2.84,0-1.67-.19-2.85-1.3-2.85s-1.29,1.18-1.29,2.85C486.87,57.65,487.08,58.57,488.16,58.57Z" fill="#3b4351"/><path d="M492.2,52h1.43v.88h0a2.13,2.13,0,0,1,1.81-1.08,1.63,1.63,0,0,1,1.75,1.15,2.07,2.07,0,0,1,1.91-1.15c1.06,0,1.83.55,1.83,2V59.5h-1.51V54.33c0-1-.29-1.36-.91-1.36s-1.21.47-1.21,1.47V59.5h-1.51V54.33c0-1-.29-1.36-.92-1.36s-1.19.49-1.19,1.47V59.5H492.2Z" fill="#3b4351"/><path d="M502.56,52H504v.88h0a2.13,2.13,0,0,1,1.81-1.08,1.63,1.63,0,0,1,1.75,1.15,2.07,2.07,0,0,1,1.91-1.15c1.06,0,1.83.55,1.83,2V59.5h-1.51V54.33c0-1-.29-1.36-.91-1.36s-1.21.47-1.21,1.47V59.5h-1.51V54.33c0-1-.29-1.36-.92-1.36s-1.19.49-1.19,1.47V59.5h-1.52Z" fill="#3b4351"/><path d="M514.16,55.92v.44c0,1,.12,2.3,1.26,2.3s1.2-1.22,1.2-1.69h1.43a2.48,2.48,0,0,1-2.65,2.72c-1.23,0-2.76-.36-2.76-3.85,0-2,.44-4.08,2.79-4.08,2.1,0,2.66,1.28,2.66,3.37v.79Zm2.42-1v-.41c0-.95-.31-1.68-1.16-1.68s-1.26,1-1.26,1.93v.16Z" fill="#3b4351"/><path d="M519.34,52h1.51v1.18h0a1.86,1.86,0,0,1,1.75-1.38.87.87,0,0,1,.36.06v1.54a2.18,2.18,0,0,0-.63-.08c-.69,0-1.51.3-1.51,1.71V59.5h-1.51Z" fill="#3b4351"/><path d="M528.75,56.75c-.12,1.81-.7,2.94-2.58,2.94-2.19,0-2.8-1.61-2.8-4s.61-4,2.8-4a2.44,2.44,0,0,1,2.59,2.71h-1.51c0-.7-.19-1.63-1.08-1.59-1.08,0-1.29,1.18-1.29,2.85s.21,2.84,1.29,2.84c.84,0,1.15-.69,1.15-1.82Z" fill="#3b4351"/><path d="M531.18,55.92v.44c0,1,.13,2.3,1.26,2.3s1.2-1.22,1.2-1.69h1.43a2.48,2.48,0,0,1-2.64,2.72c-1.24,0-2.76-.36-2.76-3.85,0-2,.43-4.08,2.78-4.08,2.11,0,2.67,1.28,2.67,3.37v.79Zm2.42-1v-.41c0-.95-.31-1.68-1.16-1.68s-1.26,1-1.26,1.93v.16Z" fill="#3b4351"/><path d="M539.2,52h1.57l1.05,5.94h0L543,52h1.71l1.12,5.94h0l1-5.94h1.52l-1.73,7.54H545l-1.18-5.86h0l-1.08,5.86h-1.76Z" fill="#3b4351"/><path d="M549.38,49.38h1.51v1.51h-1.51Zm0,2.58h1.51V59.5h-1.51Z" fill="#3b4351"/><path d="M551.74,52h1V49.82h1.51V52h1.24v1.12h-1.24v4.5c0,.6.17.79.69.79a2.81,2.81,0,0,0,.55,0v1.12a4.69,4.69,0,0,1-1.22.13c-1,0-1.53-.29-1.53-1.82V53.08h-1Z" fill="#3b4351"/><path d="M556.31,49.49h1.51v3.28l0,0a2.16,2.16,0,0,1,1.85-1c1.15,0,1.88.52,1.88,2.05V59.5h-1.51V54.33c0-1-.28-1.36-1.05-1.36s-1.21.47-1.21,1.47V59.5h-1.51Z" fill="#3b4351"/><path d="M566.5,49.49h3.24c1.49,0,2.69.68,2.69,2.43A2.11,2.11,0,0,1,571,54.19v0c1.1.2,1.8.86,1.8,2.55s-1.21,2.74-3.08,2.74H566.5Zm2.86,4.22a1.4,1.4,0,0,0,1.47-1.58c0-1.19-.72-1.43-1.61-1.43H568.1v3Zm.32,4.58c1,0,1.47-.6,1.47-1.76a1.52,1.52,0,0,0-1.57-1.7H568.1v3.46Z" fill="#3b4351"/><path d="M578.86,57.93c0,.28.17.53.4.53a.76.76,0,0,0,.25,0v1a1.58,1.58,0,0,1-.74.18c-.68,0-1.24-.27-1.28-1h0a1.93,1.93,0,0,1-1.87,1.11c-1.22,0-2-.66-2-2.11a2.08,2.08,0,0,1,1.75-2.37l1.17-.32c.55-.16.89-.31.89-1s-.24-1.12-1-1.12c-1,0-1.15.71-1.15,1.44h-1.43c0-1.61.66-2.48,2.65-2.48,1.33,0,2.39.52,2.39,1.85Zm-1.42-2.41a12,12,0,0,1-1.69.7,1.24,1.24,0,0,0-.61,1.22c0,.63.31,1.13.94,1.13.91,0,1.36-.67,1.36-1.79Z" fill="#3b4351"/><path d="M580.4,49.49h1.51v3.35h0a1.75,1.75,0,0,1,1.71-1.08c1.15,0,2.33.52,2.33,3.87,0,2.59-.72,4.06-2.47,4.06a1.61,1.61,0,0,1-1.65-1.12h0v.93H580.4Zm2.7,9c1.07,0,1.28-1.08,1.28-2.79,0-2-.32-2.73-1.18-2.73-1.17,0-1.37,1-1.37,2.84C581.83,57.44,582.07,58.49,583.1,58.49Z" fill="#3b4351"/><path d="M588,52l1.3,5.66h0l1.2-5.66h1.58L590,59.78c-.6,2-1.06,2.34-2.63,2.29a3,3,0,0,1-.6,0V60.81a2,2,0,0,0,.49.06c.51,0,.85-.1,1-.59l.19-.62L586.35,52Z" fill="#3b4351"/><path d="M593,49.49h1.51v10H593Z" fill="#3b4351"/><path d="M595.75,55.73c0-2.36.61-4,2.8-4s2.81,1.61,2.81,4-.73,4-2.81,4S595.75,58.08,595.75,55.73Zm2.8,2.84c1.1,0,1.3-.92,1.3-2.84,0-1.67-.2-2.85-1.3-2.85s-1.29,1.18-1.29,2.85C597.26,57.65,597.47,58.57,598.55,58.57Z" fill="#3b4351"/><path d="M602.52,52H604v.88h0a2.17,2.17,0,0,1,1.94-1.08c1.14,0,1.87.52,1.87,2.05V59.5h-1.51V54.33c0-1-.27-1.36-1-1.36-.62,0-1.21.46-1.21,1.47V59.5h-1.51Z" fill="#3b4351"/><path d="M609.41,57.65H611V59.5h-1.6Z" fill="#3b4351"/><path d="M615.89,49.49h1.6v8.66h3.86V59.5h-5.46Z" fill="#3b4351"/><path d="M622.26,49.38h1.51v1.51h-1.51Zm0,2.58h1.51V59.5h-1.51Z" fill="#3b4351"/><path d="M624.63,52h1V49.82h1.52V52h1.23v1.12h-1.23v4.5c0,.6.16.79.68.79a2.75,2.75,0,0,0,.55,0v1.12a4.64,4.64,0,0,1-1.22.13c-1,0-1.53-.29-1.53-1.82V53.08h-1Z" fill="#3b4351"/><path d="M630.49,55.92v.44c0,1,.13,2.3,1.26,2.3S633,57.44,633,57h1.43a2.48,2.48,0,0,1-2.65,2.72c-1.23,0-2.76-.36-2.76-3.85,0-2,.43-4.08,2.79-4.08,2.1,0,2.66,1.28,2.66,3.37v.79Zm2.43-1v-.41c0-.95-.31-1.68-1.17-1.68s-1.26,1-1.26,1.93v.16Z" fill="#3b4351"/><path d="M635.67,52h1.52v1.18h0A1.88,1.88,0,0,1,639,51.76a.92.92,0,0,1,.37.06v1.54a2.24,2.24,0,0,0-.63-.08c-.69,0-1.51.3-1.51,1.71V59.5h-1.52Z" fill="#3b4351"/><path d="M644.94,57.93c0,.28.17.53.4.53a.76.76,0,0,0,.25,0v1a1.58,1.58,0,0,1-.74.18c-.68,0-1.24-.27-1.28-1h0a1.93,1.93,0,0,1-1.87,1.11c-1.22,0-2-.66-2-2.11a2.09,2.09,0,0,1,1.75-2.37l1.18-.32c.55-.16.88-.31.88-1s-.23-1.12-1-1.12c-1,0-1.15.71-1.15,1.44H639.9c0-1.61.66-2.48,2.65-2.48,1.33,0,2.39.52,2.39,1.85Zm-1.43-2.41a11.88,11.88,0,0,1-1.68.7,1.24,1.24,0,0,0-.61,1.22c0,.63.31,1.13.94,1.13.91,0,1.35-.67,1.35-1.79Z" fill="#3b4351"/><path d="M646.48,52H648v1.18h0a1.88,1.88,0,0,1,1.75-1.38.92.92,0,0,1,.37.06v1.54a2.3,2.3,0,0,0-.63-.08c-.69,0-1.52.3-1.52,1.71V59.5h-1.51Z" fill="#3b4351"/><path d="M652.15,52l1.3,5.66h0L654.69,52h1.58l-2.07,7.82c-.61,2-1.07,2.34-2.64,2.29a3,3,0,0,1-.6,0V60.81a2.05,2.05,0,0,0,.49.06c.52,0,.85-.1,1-.59l.2-.62L650.53,52Z" fill="#3b4351"/><path d="M665.41,57.93c0,.28.17.53.39.53a.72.72,0,0,0,.25,0v1a1.55,1.55,0,0,1-.74.18c-.67,0-1.23-.27-1.27-1h0a1.94,1.94,0,0,1-1.88,1.11c-1.22,0-2-.66-2-2.11a2.08,2.08,0,0,1,1.75-2.37l1.18-.32c.55-.16.88-.31.88-1s-.24-1.12-1-1.12c-1,0-1.14.71-1.14,1.44h-1.43c0-1.61.66-2.48,2.65-2.48,1.33,0,2.39.52,2.39,1.85ZM664,55.52a12.39,12.39,0,0,1-1.68.7,1.25,1.25,0,0,0-.62,1.22c0,.63.31,1.13.94,1.13.91,0,1.36-.67,1.36-1.79Z" fill="#3b4351"/><path d="M672,56.75c-.11,1.81-.7,2.94-2.58,2.94-2.18,0-2.8-1.61-2.8-4s.62-4,2.8-4a2.44,2.44,0,0,1,2.6,2.71h-1.52c0-.7-.18-1.63-1.08-1.59-1.07,0-1.28,1.18-1.28,2.85s.21,2.84,1.28,2.84c.85,0,1.15-.69,1.15-1.82Z" fill="#3b4351"/><path d="M672.49,52h1V49.82H675V52h1.23v1.12H675v4.5c0,.6.17.79.69.79a2.7,2.7,0,0,0,.54,0v1.12a4.64,4.64,0,0,1-1.22.13c-1,0-1.52-.29-1.52-1.82V53.08h-1Z" fill="#3b4351"/><path d="M677.13,49.38h1.51v1.51h-1.51Zm0,2.58h1.51V59.5h-1.51Z" fill="#3b4351"/><path d="M679.53,52h1.63l1.31,5.94h0L683.69,52h1.61l-2,7.54h-1.76Z" fill="#3b4351"/><path d="M686.2,49.38h1.51v1.51H686.2Zm0,2.58h1.51V59.5H686.2Z" fill="#3b4351"/><path d="M688.56,52h1V49.82h1.51V52h1.23v1.12h-1.23v4.5c0,.6.17.79.69.79a2.7,2.7,0,0,0,.54,0v1.12a4.56,4.56,0,0,1-1.21.13c-1,0-1.53-.29-1.53-1.82V53.08h-1Z" fill="#3b4351"/><path d="M694.14,52l1.3,5.66h0l1.2-5.66h1.58l-2.07,7.82c-.6,2-1.06,2.34-2.63,2.29a3,3,0,0,1-.6,0V60.81a2,2,0,0,0,.49.06c.51,0,.85-.1,1-.59l.19-.62L692.51,52Z" fill="#3b4351"/><path d="M503.79,92.93c0,.28.17.53.39.53a.72.72,0,0,0,.25,0v1a1.58,1.58,0,0,1-.74.18c-.67,0-1.23-.27-1.28-1h0a1.94,1.94,0,0,1-1.88,1.11c-1.22,0-2-.66-2-2.11a2.08,2.08,0,0,1,1.75-2.37l1.18-.32c.54-.16.88-.31.88-1s-.24-1.12-1-1.12c-1,0-1.15.71-1.15,1.44h-1.42c0-1.61.65-2.48,2.64-2.48,1.33,0,2.4.52,2.4,1.85Zm-1.43-2.41a12.39,12.39,0,0,1-1.68.7,1.23,1.23,0,0,0-.62,1.22c0,.63.31,1.13.94,1.13.91,0,1.36-.67,1.36-1.79Z" fill="#3b4351"/><path d="M505.33,87h1.42v.88h.05a2.15,2.15,0,0,1,1.93-1.08c1.15,0,1.88.52,1.88,2V94.5h-1.52V89.33c0-1-.26-1.36-1-1.36-.61,0-1.2.46-1.2,1.47V94.5h-1.51Z" fill="#3b4351"/><path d="M515.91,93.57h0a1.61,1.61,0,0,1-1.65,1.12c-1.75,0-2.47-1.48-2.47-4.06,0-3.35,1.18-3.87,2.33-3.87a1.74,1.74,0,0,1,1.71,1.08h0V84.49h1.51v10h-1.43ZM514.54,88c-.86,0-1.18.7-1.18,2.73,0,1.71.21,2.79,1.28,2.79s1.27-1,1.27-2.68C515.91,89,515.71,88,514.54,88Z" fill="#3b4351"/><path d="M527.24,91.75c-.11,1.81-.7,2.94-2.58,2.94-2.18,0-2.8-1.61-2.8-4s.62-4,2.8-4a2.44,2.44,0,0,1,2.59,2.71h-1.51c0-.7-.18-1.63-1.08-1.59-1.08,0-1.29,1.18-1.29,2.85s.21,2.84,1.29,2.84c.84,0,1.15-.69,1.15-1.82Z" fill="#3b4351"/><path d="M528.07,90.73c0-2.36.62-4,2.81-4s2.81,1.61,2.81,4-.73,4-2.81,4S528.07,93.08,528.07,90.73Zm2.81,2.84c1.1,0,1.3-.92,1.3-2.84,0-1.67-.2-2.85-1.3-2.85s-1.29,1.18-1.29,2.85C529.59,92.65,529.8,93.57,530.88,93.57Z" fill="#3b4351"/><path d="M534.92,87h1.43v.88h0a2.12,2.12,0,0,1,1.81-1.08A1.63,1.63,0,0,1,540,87.91a2,2,0,0,1,1.9-1.15c1.07,0,1.84.55,1.84,2V94.5h-1.51V89.33c0-1-.3-1.36-.91-1.36s-1.21.47-1.21,1.47V94.5h-1.51V89.33c0-1-.3-1.36-.93-1.36s-1.19.49-1.19,1.47V94.5h-1.51Z" fill="#3b4351"/><path d="M548.46,94.69a1.72,1.72,0,0,1-1.71-1.08h0V97h-1.51V87h1.43v.92h0a1.78,1.78,0,0,1,1.69-1.12c1.72,0,2.43,1.47,2.43,4.07C550.79,94,549.51,94.69,548.46,94.69ZM547.91,88c-1,0-1.27,1-1.27,2.67,0,1.81.22,2.85,1.29,2.85.85,0,1.26-.65,1.26-2.73C549.19,89.05,549,88,547.91,88Z" fill="#3b4351"/><path d="M552,84.38h1.52v1.51H552ZM552,87h1.52V94.5H552Z" fill="#3b4351"/><path d="M555.12,84.49h1.51v10h-1.51Z" fill="#3b4351"/><path d="M563.1,92.93c0,.28.17.53.4.53a.76.76,0,0,0,.25,0v1a1.58,1.58,0,0,1-.74.18c-.68,0-1.24-.27-1.28-1h0a1.93,1.93,0,0,1-1.87,1.11c-1.22,0-2-.66-2-2.11a2.08,2.08,0,0,1,1.75-2.37l1.17-.32c.55-.16.89-.31.89-1s-.24-1.12-1-1.12c-1,0-1.15.71-1.15,1.44h-1.43c0-1.61.66-2.48,2.65-2.48,1.33,0,2.39.52,2.39,1.85Zm-1.42-2.41a12.39,12.39,0,0,1-1.68.7,1.23,1.23,0,0,0-.62,1.22c0,.63.31,1.13.94,1.13.91,0,1.36-.67,1.36-1.79Z" fill="#3b4351"/><path d="M564,87h1V84.82h1.51V87h1.23v1.12h-1.23v4.5c0,.6.17.79.69.79a2.7,2.7,0,0,0,.54,0v1.12a4.64,4.64,0,0,1-1.22.13c-1,0-1.52-.29-1.52-1.82V88.08h-1Z" fill="#3b4351"/><path d="M568.6,84.38h1.52v1.51H568.6Zm0,2.58h1.52V94.5H568.6Z" fill="#3b4351"/><path d="M571.35,90.73c0-2.36.61-4,2.8-4s2.81,1.61,2.81,4-.72,4-2.81,4S571.35,93.08,571.35,90.73Zm2.8,2.84c1.11,0,1.3-.92,1.3-2.84,0-1.67-.19-2.85-1.3-2.85s-1.29,1.18-1.29,2.85C572.86,92.65,573.07,93.57,574.15,93.57Z" fill="#3b4351"/><path d="M578.12,87h1.43v.88h0a2.18,2.18,0,0,1,1.94-1.08c1.15,0,1.87.52,1.87,2V94.5h-1.51V89.33c0-1-.26-1.36-1-1.36-.61,0-1.2.46-1.2,1.47V94.5h-1.52Z" fill="#3b4351"/><path d="M587.92,90.73c0-2.36.62-4,2.81-4s2.81,1.61,2.81,4-.73,4-2.81,4S587.92,93.08,587.92,90.73Zm2.81,2.84c1.1,0,1.3-.92,1.3-2.84,0-1.67-.2-2.85-1.3-2.85s-1.29,1.18-1.29,2.85C589.44,92.65,589.65,93.57,590.73,93.57Z" fill="#3b4351"/><path d="M595.16,88.08h-1V87h1v-.7c0-1.42.69-1.88,1.92-1.88.32,0,.6,0,.83,0v1.17h-.42c-.56,0-.82.21-.82.71V87h1.24v1.12h-1.24V94.5h-1.51Z" fill="#3b4351"/><path d="M601.28,87h1V84.82h1.51V87h1.23v1.12h-1.23v4.5c0,.6.17.79.69.79a2.7,2.7,0,0,0,.54,0v1.12a4.64,4.64,0,0,1-1.22.13c-1,0-1.52-.29-1.52-1.82V88.08h-1Z" fill="#3b4351"/><path d="M605.84,84.49h1.52v3.28l0,0a2.14,2.14,0,0,1,1.85-1c1.15,0,1.87.52,1.87,2V94.5h-1.51V89.33c0-1-.28-1.36-1.05-1.36-.62,0-1.2.47-1.2,1.47V94.5h-1.52Z" fill="#3b4351"/><path d="M613.88,90.92v.44c0,1,.13,2.3,1.26,2.3s1.21-1.22,1.21-1.69h1.42a2.47,2.47,0,0,1-2.64,2.72c-1.24,0-2.76-.36-2.76-3.85,0-2,.43-4.08,2.78-4.08,2.11,0,2.67,1.28,2.67,3.37v.79Zm2.42-1v-.41c0-1-.3-1.68-1.16-1.68s-1.26,1-1.26,1.93v.16Z" fill="#3b4351"/><path d="M622.11,86.65a1.88,1.88,0,0,1,1.6-2.16v.82c-.44.11-.7.51-.7,1.13v.21h.7V88.5h-1.6Zm2.49,0a1.88,1.88,0,0,1,1.6-2.16v.82a1,1,0,0,0-.7,1.13v.21h.7V88.5h-1.6Z" fill="#3b4351"/><path d="M628,84.49h3.24c1.5,0,2.69.68,2.69,2.43a2.11,2.11,0,0,1-1.47,2.27v0c1.09.2,1.79.86,1.79,2.55s-1.2,2.74-3.08,2.74H628Zm2.86,4.22a1.4,1.4,0,0,0,1.47-1.58c0-1.19-.71-1.43-1.61-1.43h-1.12v3Zm.32,4.58c1,0,1.47-.6,1.47-1.76a1.52,1.52,0,0,0-1.57-1.7h-1.48v3.46Z" fill="#3b4351"/><path d="M635.09,90.73c0-2.36.62-4,2.8-4s2.82,1.61,2.82,4-.73,4-2.82,4S635.09,93.08,635.09,90.73Zm2.8,2.84c1.11,0,1.3-.92,1.3-2.84,0-1.67-.19-2.85-1.3-2.85s-1.29,1.18-1.29,2.85C636.6,92.65,636.81,93.57,637.89,93.57Z" fill="#3b4351"/><path d="M641.57,90.73c0-2.36.62-4,2.8-4s2.82,1.61,2.82,4-.73,4-2.82,4S641.57,93.08,641.57,90.73Zm2.8,2.84c1.11,0,1.31-.92,1.31-2.84,0-1.67-.2-2.85-1.31-2.85s-1.29,1.18-1.29,2.85C643.08,92.65,643.29,93.57,644.37,93.57Z" fill="#3b4351"/><path d="M648.35,84.49h1.51v5.62h0L652.17,87h1.75l-2.27,2.91,2.57,4.64h-1.66l-1.85-3.44-.85,1v2.4h-1.51Z" fill="#3b4351"/><path d="M657.89,90.73c0-2.36.62-4,2.81-4s2.81,1.61,2.81,4-.73,4-2.81,4S657.89,93.08,657.89,90.73Zm2.81,2.84c1.1,0,1.3-.92,1.3-2.84,0-1.67-.2-2.85-1.3-2.85s-1.29,1.18-1.29,2.85C659.41,92.65,659.62,93.57,660.7,93.57Z" fill="#3b4351"/><path d="M665.13,88.08h-1V87h1v-.7c0-1.42.69-1.88,1.92-1.88.32,0,.6,0,.83,0v1.17h-.42c-.56,0-.81.21-.81.71V87h1.23v1.12h-1.23V94.5h-1.52Z" fill="#3b4351"/><path d="M671.25,87h1V84.82h1.51V87H675v1.12H673.8v4.5c0,.6.17.79.69.79a2.7,2.7,0,0,0,.54,0v1.12a4.64,4.64,0,0,1-1.22.13c-1,0-1.52-.29-1.52-1.82V88.08h-1Z" fill="#3b4351"/><path d="M675.82,84.49h1.51v3.28l0,0a2.14,2.14,0,0,1,1.85-1c1.15,0,1.88.52,1.88,2V94.5h-1.52V89.33c0-1-.28-1.36-1.05-1.36-.61,0-1.2.47-1.2,1.47V94.5h-1.51Z" fill="#3b4351"/><path d="M683.85,90.92v.44c0,1,.13,2.3,1.26,2.3s1.21-1.22,1.21-1.69h1.43a2.48,2.48,0,0,1-2.65,2.72c-1.23,0-2.76-.36-2.76-3.85,0-2,.43-4.08,2.79-4.08,2.1,0,2.66,1.28,2.66,3.37v.79Zm2.42-1v-.41c0-1-.3-1.68-1.16-1.68s-1.26,1-1.26,1.93v.16Z" fill="#3b4351"/><path d="M692.49,84.49h2.84c3.14,0,3.53,2.05,3.53,5s-.39,5-3.53,5h-2.84Zm1.6,8.8h1.31c1.32,0,1.87-.87,1.87-3.79s-.48-3.8-1.87-3.8h-1.31Z" fill="#3b4351"/><path d="M701.48,90.92v.44c0,1,.12,2.3,1.26,2.3s1.2-1.22,1.2-1.69h1.43a2.48,2.48,0,0,1-2.65,2.72c-1.23,0-2.76-.36-2.76-3.85,0-2,.44-4.08,2.79-4.08,2.1,0,2.66,1.28,2.66,3.37v.79Zm2.42-1v-.41c0-1-.31-1.68-1.16-1.68s-1.26,1-1.26,1.93v.16Z" fill="#3b4351"/><path d="M711.6,92.93c0,.28.17.53.39.53a.78.78,0,0,0,.26,0v1a1.63,1.63,0,0,1-.75.18c-.67,0-1.23-.27-1.27-1h0a1.94,1.94,0,0,1-1.88,1.11c-1.21,0-2-.66-2-2.11a2.09,2.09,0,0,1,1.75-2.37l1.18-.32c.55-.16.88-.31.88-1s-.24-1.12-1-1.12c-1,0-1.15.71-1.15,1.44h-1.43c0-1.61.66-2.48,2.65-2.48,1.33,0,2.39.52,2.39,1.85Zm-1.43-2.41a12.39,12.39,0,0,1-1.68.7,1.24,1.24,0,0,0-.61,1.22c0,.63.3,1.13.93,1.13.91,0,1.36-.67,1.36-1.79Z" fill="#3b4351"/><path d="M717,93.57h0a1.61,1.61,0,0,1-1.65,1.12c-1.75,0-2.47-1.48-2.47-4.06,0-3.35,1.18-3.87,2.33-3.87a1.74,1.74,0,0,1,1.71,1.08h0V84.49h1.51v10H717ZM715.62,88c-.86,0-1.18.7-1.18,2.73,0,1.71.21,2.79,1.28,2.79s1.27-1,1.27-2.68C717,89,716.79,88,715.62,88Z" fill="#3b4351"/><path d="M720.08,84.49h1.6v1.85c0,1.12-.36,1.92-1.6,2.16v-.81c.44-.11.7-.52.7-1.14v-.21h-.7Zm2.5,0h1.59v1.85c0,1.12-.36,1.92-1.59,2.16v-.81a1.05,1.05,0,0,0,.7-1.14v-.21h-.7Z" fill="#3b4351"/></g></g><g id="Ageans"><g id="Title"><g id="small-2" data-name="small"><path d="M127.56,43.91v.21c0,1.81-.75,3.58-3.09,3.58-2.52,0-3.3-1.63-3.3-5.2s.78-5.2,3.32-5.2c2.84,0,3,2.09,3,3.14v.18h-1.6v-.17c0-.93-.28-2-1.43-1.94s-1.7.73-1.7,4,.51,4,1.7,4c1.35,0,1.49-1.47,1.49-2.41v-.17Z"/><path d="M128.64,37.5h1.52v10h-1.52Z"/><path d="M136.63,45.93c0,.28.16.53.39.53a.57.57,0,0,0,.25,0v1a1.58,1.58,0,0,1-.74.18c-.67,0-1.23-.26-1.28-1h0a2,2,0,0,1-1.88,1.11c-1.22,0-2-.66-2-2.12a2.08,2.08,0,0,1,1.75-2.37l1.18-.32c.54-.15.88-.31.88-1s-.24-1.12-1-1.12c-1,0-1.15.72-1.15,1.45h-1.43c0-1.61.66-2.48,2.65-2.48,1.33,0,2.4.52,2.4,1.85Zm-1.43-2.41a11.23,11.23,0,0,1-1.68.7,1.23,1.23,0,0,0-.62,1.22c0,.63.31,1.14.94,1.14.91,0,1.36-.68,1.36-1.8Z"/><path d="M141.41,42.16V42c0-.61-.21-1.17-1-1.17-.6,0-1.08.27-1.08,1s.27.82,1.07,1.1l1,.34A2,2,0,0,1,143,45.4c0,1.61-1.19,2.3-2.7,2.3-1.91,0-2.48-.89-2.48-2.34v-.28h1.34v.23c0,.89.3,1.35,1.18,1.35s1.23-.42,1.23-1.11a1.09,1.09,0,0,0-.82-1.1L139.52,44a2,2,0,0,1-1.61-2.17c0-1.41,1-2.07,2.58-2.07,1.92,0,2.35,1.12,2.35,2.06v.33Z"/><path d="M147.38,42.16V42c0-.61-.21-1.17-1-1.17-.6,0-1.07.27-1.07,1s.26.82,1.06,1.1l1,.34A2,2,0,0,1,149,45.4c0,1.61-1.2,2.3-2.71,2.3-1.9,0-2.48-.89-2.48-2.34v-.28h1.35v.23c0,.89.29,1.35,1.17,1.35s1.24-.42,1.24-1.11a1.09,1.09,0,0,0-.83-1.1L145.49,44a2,2,0,0,1-1.61-2.17c0-1.41,1-2.07,2.57-2.07,1.92,0,2.36,1.12,2.36,2.06v.33Z"/><path d="M150.16,37.39h1.51V38.9h-1.51Zm0,2.57h1.51V47.5h-1.51Z"/><path d="M158.28,44.75c-.11,1.81-.7,3-2.57,3-2.19,0-2.8-1.61-2.8-4s.61-4,2.8-4a2.43,2.43,0,0,1,2.59,2.7h-1.51c0-.7-.19-1.62-1.08-1.58-1.08,0-1.29,1.17-1.29,2.84s.21,2.85,1.29,2.85c.84,0,1.15-.69,1.15-1.83Z"/><path d="M164.36,45.93c0,.28.17.53.39.53a.54.54,0,0,0,.25,0v1a1.55,1.55,0,0,1-.74.18c-.67,0-1.23-.26-1.27-1h0a2,2,0,0,1-1.88,1.11c-1.22,0-2-.66-2-2.12a2.08,2.08,0,0,1,1.75-2.37l1.18-.32c.55-.15.88-.31.88-1s-.24-1.12-1-1.12c-1,0-1.14.72-1.14,1.45h-1.43c0-1.61.66-2.48,2.64-2.48,1.34,0,2.4.52,2.4,1.85Zm-1.43-2.41a11.23,11.23,0,0,1-1.68.7,1.25,1.25,0,0,0-.62,1.22c0,.63.31,1.14.94,1.14.91,0,1.36-.68,1.36-1.8Z"/><path d="M166,37.5h1.51v10H166Z"/><path d="M172.46,37.5H175l1.76,7.41h0l1.74-7.41h2.43v10h-1.51V39.18h0l-2,8.32H176l-2-8.32h0V47.5h-1.52Z"/><path d="M182.54,37.39h1.52V38.9h-1.52Zm0,2.57h1.52V47.5h-1.52Z"/><path d="M185.58,40H187v.89h0A2.15,2.15,0,0,1,189,39.77c1.15,0,1.88.52,1.88,2V47.5h-1.51V42.33c0-1-.27-1.36-1-1.36-.62,0-1.21.46-1.21,1.47V47.5h-1.51Z"/><path d="M192,43.73c0-2.35.62-4,2.8-4s2.82,1.61,2.82,4-.73,4-2.82,4S192,46.09,192,43.73Zm2.8,2.85c1.11,0,1.3-.93,1.3-2.85,0-1.67-.19-2.84-1.3-2.84s-1.29,1.17-1.29,2.84C193.53,45.65,193.74,46.58,194.82,46.58Z"/><path d="M203.74,45.93c0,.28.17.53.39.53a.59.59,0,0,0,.26,0v1a1.63,1.63,0,0,1-.75.18c-.67,0-1.23-.26-1.27-1h0a2,2,0,0,1-1.88,1.11c-1.21,0-2-.66-2-2.12a2.09,2.09,0,0,1,1.75-2.37l1.18-.32c.55-.15.88-.31.88-1s-.24-1.12-1-1.12c-1,0-1.15.72-1.15,1.45H198.7c0-1.61.66-2.48,2.65-2.48,1.33,0,2.39.52,2.39,1.85Zm-1.43-2.41a11.23,11.23,0,0,1-1.68.7,1.24,1.24,0,0,0-.61,1.22c0,.63.3,1.14.93,1.14.91,0,1.36-.68,1.36-1.8Z"/><path d="M205.28,40h1.43v.89h0a2.15,2.15,0,0,1,1.93-1.08c1.15,0,1.88.52,1.88,2V47.5h-1.51V42.33c0-1-.27-1.36-1.05-1.36-.62,0-1.21.46-1.21,1.47V47.5h-1.51Z"/><path d="M220.32,45.93c0,.28.17.53.39.53a.54.54,0,0,0,.25,0v1a1.58,1.58,0,0,1-.74.18c-.67,0-1.23-.26-1.28-1h0A2,2,0,0,1,217,47.7c-1.22,0-2-.66-2-2.12a2.08,2.08,0,0,1,1.75-2.37l1.18-.32c.54-.15.88-.31.88-1s-.24-1.12-1-1.12c-1,0-1.15.72-1.15,1.45h-1.43c0-1.61.66-2.48,2.65-2.48,1.33,0,2.4.52,2.4,1.85Zm-1.43-2.41a11.23,11.23,0,0,1-1.68.7,1.23,1.23,0,0,0-.62,1.22c0,.63.31,1.14.94,1.14.91,0,1.36-.68,1.36-1.8Z"/><path d="M221.85,40h1.52v1.18h0a1.87,1.87,0,0,1,1.76-1.37.89.89,0,0,1,.36,0v1.54a2.18,2.18,0,0,0-.63-.08c-.69,0-1.51.31-1.51,1.71V47.5h-1.52Z"/><path d="M225.59,40h1V37.82h1.51V40h1.23v1.12h-1.23v4.5c0,.6.17.8.69.8a2.7,2.7,0,0,0,.54,0v1.12a5.08,5.08,0,0,1-1.21.12c-1,0-1.53-.29-1.53-1.82V41.08h-1Z"/><path d="M236.77,47.7a1.74,1.74,0,0,1-1.71-1.08h0V50h-1.51V40h1.42v.93h0a1.79,1.79,0,0,1,1.7-1.12c1.72,0,2.42,1.47,2.42,4.06C239.09,47,237.82,47.7,236.77,47.7ZM236.22,41c-1,0-1.28,1.05-1.28,2.68,0,1.81.23,2.84,1.29,2.84.86,0,1.26-.64,1.26-2.73C237.49,42.05,237.28,41,236.22,41Z"/><path d="M241.55,43.93v.43c0,1,.13,2.3,1.26,2.3S244,45.44,244,45h1.43a2.48,2.48,0,0,1-2.65,2.72c-1.23,0-2.76-.37-2.76-3.86,0-2,.43-4.07,2.79-4.07,2.1,0,2.66,1.27,2.66,3.36v.8Zm2.43-1v-.4c0-1-.31-1.69-1.17-1.69s-1.26,1-1.26,1.94v.15Z"/><path d="M246.73,40h1.51v1.18h0A1.87,1.87,0,0,1,250,39.77a.94.94,0,0,1,.37,0v1.54a2.24,2.24,0,0,0-.63-.08c-.69,0-1.52.31-1.52,1.71V47.5h-1.51Z"/><path d="M251.21,37.39h1.51V38.9h-1.51Zm0,2.57h1.51V47.5h-1.51Z"/><path d="M254,43.73c0-2.35.62-4,2.81-4s2.81,1.61,2.81,4-.73,4-2.81,4S254,46.09,254,43.73Zm2.81,2.85c1.1,0,1.3-.93,1.3-2.85,0-1.67-.2-2.84-1.3-2.84s-1.29,1.17-1.29,2.84C255.47,45.65,255.68,46.58,256.76,46.58Z"/><path d="M264.58,46.58h0a1.62,1.62,0,0,1-1.66,1.12c-1.75,0-2.46-1.49-2.46-4.07,0-3.34,1.17-3.86,2.32-3.86a1.73,1.73,0,0,1,1.71,1.08h0V37.5H266v10h-1.43ZM263.21,41c-.85,0-1.18.7-1.18,2.73,0,1.71.21,2.79,1.28,2.79s1.27-1.05,1.27-2.67C264.58,42,264.39,41,263.21,41Z"/><path d="M267.62,45.65h1.6V47.5h-1.6Z"/><path d="M280.43,43.91v.21c0,1.81-.74,3.58-3.08,3.58-2.52,0-3.31-1.63-3.31-5.2s.79-5.2,3.32-5.2c2.85,0,3,2.09,3,3.14v.18h-1.6v-.17c0-.93-.28-2-1.43-1.94s-1.71.73-1.71,4,.52,4,1.71,4c1.35,0,1.49-1.47,1.49-2.41v-.17Z"/><path d="M281.45,40H283v1.18h0a1.87,1.87,0,0,1,1.75-1.37.94.94,0,0,1,.37,0v1.54a2.3,2.3,0,0,0-.63-.08c-.69,0-1.52.31-1.52,1.71V47.5h-1.51Z"/><path d="M287.08,43.93v.43c0,1,.13,2.3,1.26,2.3s1.2-1.22,1.2-1.68H291a2.48,2.48,0,0,1-2.64,2.72c-1.24,0-2.76-.37-2.76-3.86,0-2,.43-4.07,2.78-4.07,2.1,0,2.67,1.27,2.67,3.36v.8Zm2.42-1v-.4c0-1-.31-1.69-1.16-1.69s-1.26,1-1.26,1.94v.15Z"/><path d="M291.59,40h1V37.82h1.52V40h1.23v1.12h-1.23v4.5c0,.6.16.8.68.8a2.75,2.75,0,0,0,.55,0v1.12a5.17,5.17,0,0,1-1.22.12c-1,0-1.53-.29-1.53-1.82V41.08h-1Z"/><path d="M301.1,45.93c0,.28.16.53.39.53a.57.57,0,0,0,.25,0v1a1.58,1.58,0,0,1-.74.18c-.67,0-1.24-.26-1.28-1h0a1.94,1.94,0,0,1-1.87,1.11c-1.22,0-2-.66-2-2.12a2.08,2.08,0,0,1,1.75-2.37l1.17-.32c.55-.15.89-.31.89-1s-.24-1.12-1-1.12c-1,0-1.15.72-1.15,1.45h-1.43c0-1.61.66-2.48,2.65-2.48,1.33,0,2.4.52,2.4,1.85Zm-1.43-2.41a11.23,11.23,0,0,1-1.68.7,1.23,1.23,0,0,0-.62,1.22c0,.63.31,1.14.94,1.14.91,0,1.36-.68,1.36-1.8Z"/><path d="M302.63,40h1.43v.89h0A2.16,2.16,0,0,1,306,39.77c1.14,0,1.87.52,1.87,2V47.5H306.4V42.33c0-1-.27-1.36-1-1.36-.62,0-1.2.46-1.2,1.47V47.5h-1.52Z"/><path d="M312.62,42.16V42c0-.61-.21-1.17-1-1.17-.6,0-1.08.27-1.08,1s.27.82,1.07,1.1l1,.34a2,2,0,0,1,1.64,2.17c0,1.61-1.19,2.3-2.7,2.3-1.91,0-2.48-.89-2.48-2.34v-.28h1.34v.23c0,.89.3,1.35,1.18,1.35s1.23-.42,1.23-1.11a1.09,1.09,0,0,0-.82-1.1L310.73,44a2,2,0,0,1-1.62-2.17c0-1.41,1-2.07,2.58-2.07,1.92,0,2.35,1.12,2.35,2.06v.33Z"/><path d="M318.4,43.73c0-2.35.61-4,2.8-4s2.81,1.61,2.81,4-.73,4-2.81,4S318.4,46.09,318.4,43.73Zm2.8,2.85c1.1,0,1.3-.93,1.3-2.85,0-1.67-.2-2.84-1.3-2.84s-1.29,1.17-1.29,2.84C319.91,45.65,320.12,46.58,321.2,46.58Z"/><path d="M325.63,41.08h-1.05V40h1.05v-.7c0-1.41.69-1.87,1.92-1.87a6.47,6.47,0,0,1,.83,0v1.16H328c-.56,0-.81.21-.81.72V40h1.23v1.12h-1.23V47.5h-1.52Z"/><path d="M331.75,40h1V37.82h1.51V40h1.23v1.12H334.3v4.5c0,.6.17.8.69.8a2.7,2.7,0,0,0,.54,0v1.12a5.08,5.08,0,0,1-1.21.12c-1,0-1.53-.29-1.53-1.82V41.08h-1Z"/><path d="M336.32,37.5h1.51v3.28l0,0a2.15,2.15,0,0,1,1.85-1c1.15,0,1.88.52,1.88,2V47.5h-1.52V42.33c0-1-.28-1.36-1.05-1.36-.61,0-1.2.48-1.2,1.47V47.5h-1.51Z"/><path d="M343.12,37.39h1.51V38.9h-1.51Zm0,2.57h1.51V47.5h-1.51Z"/><path d="M349.41,42.16V42c0-.61-.21-1.17-1-1.17-.6,0-1.08.27-1.08,1s.27.82,1.07,1.1l1,.34A2,2,0,0,1,351,45.4c0,1.61-1.19,2.3-2.7,2.3-1.9,0-2.48-.89-2.48-2.34v-.28h1.35v.23c0,.89.29,1.35,1.17,1.35s1.24-.42,1.24-1.11a1.09,1.09,0,0,0-.83-1.1L347.52,44a2,2,0,0,1-1.61-2.17c0-1.41,1-2.07,2.57-2.07,1.92,0,2.36,1.12,2.36,2.06v.33Z"/><path d="M357,48.14a1,1,0,0,0,1.1.9,1.24,1.24,0,0,0,1.27-1.41V46.41h0a1.81,1.81,0,0,1-1.71,1c-1.75,0-2.25-1.72-2.25-3.79,0-1.65.25-3.88,2.39-3.88a1.66,1.66,0,0,1,1.66,1.12h0V40h1.42v7.18c0,1.83-.78,2.94-2.81,2.94-2.24,0-2.49-1.32-2.49-1.94Zm1.07-1.9c1.18,0,1.3-1.49,1.3-2.68s-.15-2.59-1.2-2.59-1.28,1.12-1.28,2.52S356.94,46.24,358.06,46.24Z"/><path d="M362.3,40h1.51v1.18h0a1.87,1.87,0,0,1,1.75-1.37.86.86,0,0,1,.36,0v1.54a2.18,2.18,0,0,0-.63-.08c-.68,0-1.51.31-1.51,1.71V47.5H362.3Z"/><path d="M367.93,43.93v.43c0,1,.12,2.3,1.26,2.3s1.2-1.22,1.2-1.68h1.43a2.48,2.48,0,0,1-2.65,2.72c-1.23,0-2.76-.37-2.76-3.86,0-2,.44-4.07,2.79-4.07,2.1,0,2.66,1.27,2.66,3.36v.8Zm2.42-1v-.4c0-1-.31-1.69-1.16-1.69s-1.26,1-1.26,1.94v.15Z"/><path d="M378.05,45.93c0,.28.17.53.39.53a.59.59,0,0,0,.26,0v1a1.63,1.63,0,0,1-.75.18c-.67,0-1.23-.26-1.27-1h0a2,2,0,0,1-1.88,1.11c-1.21,0-2-.66-2-2.12a2.09,2.09,0,0,1,1.75-2.37l1.18-.32c.55-.15.88-.31.88-1s-.24-1.12-1-1.12c-1,0-1.15.72-1.15,1.45H373c0-1.61.66-2.48,2.65-2.48,1.33,0,2.39.52,2.39,1.85Zm-1.43-2.41a11.23,11.23,0,0,1-1.68.7,1.24,1.24,0,0,0-.61,1.22c0,.63.3,1.14.93,1.14.91,0,1.36-.68,1.36-1.8Z"/><path d="M378.92,40h1V37.82h1.52V40h1.23v1.12h-1.23v4.5c0,.6.16.8.68.8a2.75,2.75,0,0,0,.55,0v1.12a5.17,5.17,0,0,1-1.22.12c-1,0-1.53-.29-1.53-1.82V41.08h-1Z"/><path d="M106.27,101.75c-.11,1.81-.7,3-2.58,3-2.18,0-2.8-1.61-2.8-4s.62-4,2.8-4a2.43,2.43,0,0,1,2.59,2.7h-1.51c0-.7-.18-1.62-1.08-1.58-1.08,0-1.29,1.17-1.29,2.84s.21,2.85,1.29,2.85c.84,0,1.15-.69,1.15-1.83Z"/><path d="M107.11,100.73c0-2.35.61-4,2.8-4s2.81,1.61,2.81,4-.73,4-2.81,4S107.11,103.09,107.11,100.73Zm2.8,2.85c1.1,0,1.3-.93,1.3-2.85,0-1.67-.2-2.84-1.3-2.84s-1.29,1.17-1.29,2.84C108.62,102.65,108.83,103.58,109.91,103.58Z"/><path d="M114,97h1.43v.89h0a2.11,2.11,0,0,1,1.81-1.08A1.63,1.63,0,0,1,119,97.92a2.06,2.06,0,0,1,1.91-1.15c1.06,0,1.83.54,1.83,2v5.73h-1.51V99.33c0-1-.3-1.36-.91-1.36s-1.21.48-1.21,1.47v5.06h-1.51V99.33c0-1-.29-1.36-.92-1.36s-1.2.49-1.2,1.47v5.06H114Z"/><path d="M127.49,104.7a1.74,1.74,0,0,1-1.71-1.08h0V107h-1.51V97h1.43v.93h0a1.78,1.78,0,0,1,1.69-1.12c1.73,0,2.43,1.47,2.43,4.06C129.82,104,128.54,104.7,127.49,104.7ZM127,98c-1,0-1.28,1-1.28,2.68,0,1.81.22,2.84,1.29,2.84.85,0,1.26-.64,1.26-2.73C128.22,99.05,128,98,127,98Z"/><path d="M135.92,102.93c0,.28.17.53.39.53a.54.54,0,0,0,.25,0v1a1.55,1.55,0,0,1-.74.18c-.67,0-1.23-.26-1.27-1h0a2,2,0,0,1-1.88,1.11c-1.22,0-2-.66-2-2.12a2.08,2.08,0,0,1,1.75-2.37l1.18-.32c.55-.15.88-.31.88-1s-.24-1.12-1-1.12c-1,0-1.14.72-1.14,1.45h-1.43c0-1.61.66-2.48,2.65-2.48,1.33,0,2.39.52,2.39,1.85Zm-1.43-2.41a11.23,11.23,0,0,1-1.68.7,1.25,1.25,0,0,0-.62,1.22c0,.63.31,1.14.94,1.14.91,0,1.36-.68,1.36-1.8Z"/><path d="M137.46,97H139v1.18h0a1.85,1.85,0,0,1,1.75-1.37.89.89,0,0,1,.36,0v1.54a2.18,2.18,0,0,0-.63-.08c-.68,0-1.51.31-1.51,1.71v4.51h-1.51Z"/><path d="M141.94,94.39h1.51V95.9h-1.51Zm0,2.57h1.51v7.54h-1.51Z"/><path d="M145,94.5h1.51v3.35h0a1.73,1.73,0,0,1,1.71-1.08c1.14,0,2.32.52,2.32,3.86,0,2.6-.71,4.07-2.47,4.07a1.61,1.61,0,0,1-1.65-1.12h0v.92H145Zm2.7,9c1.06,0,1.27-1.08,1.27-2.79,0-2-.32-2.73-1.17-2.73-1.18,0-1.38,1-1.38,2.85C146.4,102.44,146.64,103.49,147.68,103.49Z"/><path d="M151.78,94.5h1.51v10h-1.51Z"/><path d="M156.12,100.93v.43c0,1,.13,2.3,1.26,2.3s1.21-1.22,1.21-1.68H160a2.48,2.48,0,0,1-2.64,2.72c-1.24,0-2.76-.37-2.76-3.86,0-2,.43-4.07,2.78-4.07,2.11,0,2.67,1.27,2.67,3.36v.8Zm2.42-1v-.4c0-1-.31-1.69-1.16-1.69s-1.26,1-1.26,1.94v.15Z"/><path d="M164.14,97h1.57l1,5.94h0L167.91,97h1.71l1.12,5.94h0l1-5.94h1.52l-1.73,7.54H169.9l-1.18-5.86h0l-1.08,5.86h-1.76Z"/><path d="M174.32,94.39h1.51V95.9h-1.51Zm0,2.57h1.51v7.54h-1.51Z"/><path d="M176.68,97h1V94.82h1.51V97h1.24v1.12h-1.24v4.5c0,.6.17.8.69.8a2.81,2.81,0,0,0,.55,0v1.12a5.23,5.23,0,0,1-1.22.12c-1,0-1.53-.29-1.53-1.82V98.08h-1Z"/><path d="M181.25,94.5h1.51v3.28l0,0a2.18,2.18,0,0,1,1.85-1c1.15,0,1.88.52,1.88,2v5.69H185V99.33c0-1-.28-1.36-1.05-1.36-.62,0-1.21.48-1.21,1.47v5.06h-1.51Z"/><path d="M191.44,94.5h5.41v1.34H193v2.78h3.58V100H193v3.2H197v1.34h-5.52Z"/><path d="M199.59,105.14a1,1,0,0,0,1.09.9,1.25,1.25,0,0,0,1.28-1.41v-1.22h0a1.81,1.81,0,0,1-1.71,1c-1.75,0-2.26-1.72-2.26-3.79,0-1.65.26-3.88,2.4-3.88A1.65,1.65,0,0,1,202,97.89h0V97h1.43v7.18c0,1.83-.79,2.94-2.82,2.94-2.24,0-2.49-1.32-2.49-1.94Zm1.06-1.9c1.18,0,1.31-1.49,1.31-2.68S201.8,98,200.75,98s-1.27,1.12-1.27,2.52S199.53,103.24,200.65,103.24Z"/><path d="M205.82,97l1.3,5.66h0l1.2-5.66h1.59l-2.08,7.82c-.6,2.06-1.06,2.34-2.63,2.3a3.05,3.05,0,0,1-.6-.06v-1.2a2,2,0,0,0,.49.05c.52,0,.85-.1,1-.59l.2-.61L204.19,97Z"/><path d="M214,104.7a1.74,1.74,0,0,1-1.71-1.08h0V107h-1.52V97h1.43v.93h0a1.78,1.78,0,0,1,1.7-1.12c1.72,0,2.42,1.47,2.42,4.06C216.35,104,215.07,104.7,214,104.7ZM213.48,98c-1,0-1.28,1-1.28,2.68,0,1.81.23,2.84,1.29,2.84.86,0,1.26-.64,1.26-2.73C214.75,99.05,214.54,98,213.48,98Z"/><path d="M216.84,97h1V94.82h1.51V97h1.24v1.12h-1.24v4.5c0,.6.17.8.69.8a2.75,2.75,0,0,0,.55,0v1.12a5.17,5.17,0,0,1-1.22.12c-1,0-1.53-.29-1.53-1.82V98.08h-1Z"/><path d="M221.47,94.39H223V95.9h-1.51Zm0,2.57H223v7.54h-1.51Z"/><path d="M229.45,102.93c0,.28.17.53.39.53a.59.59,0,0,0,.26,0v1a1.63,1.63,0,0,1-.75.18c-.67,0-1.23-.26-1.27-1h0a2,2,0,0,1-1.88,1.11c-1.21,0-2-.66-2-2.12a2.09,2.09,0,0,1,1.75-2.37l1.18-.32c.55-.15.88-.31.88-1s-.23-1.12-1-1.12c-1,0-1.15.72-1.15,1.45h-1.43c0-1.61.66-2.48,2.65-2.48,1.33,0,2.39.52,2.39,1.85ZM228,100.52a10.81,10.81,0,0,1-1.68.7,1.24,1.24,0,0,0-.61,1.22c0,.63.3,1.14.93,1.14.92,0,1.36-.68,1.36-1.8Z"/><path d="M231,97h1.43v.89h0a2.15,2.15,0,0,1,1.93-1.08c1.15,0,1.88.52,1.88,2v5.69h-1.51V99.33c0-1-.27-1.36-1-1.36-.62,0-1.21.46-1.21,1.47v5.06H231Z"/><path d="M241,99.16V99c0-.61-.21-1.17-1-1.17-.6,0-1.08.27-1.08,1s.27.82,1.06,1.1l1,.34a2,2,0,0,1,1.64,2.17c0,1.61-1.19,2.3-2.7,2.3-1.91,0-2.48-.89-2.48-2.34v-.28h1.34v.23c0,.89.3,1.35,1.18,1.35s1.23-.42,1.23-1.11a1.09,1.09,0,0,0-.83-1.1l-1.23-.44a2,2,0,0,1-1.61-2.17c0-1.41,1-2.07,2.58-2.07,1.92,0,2.35,1.12,2.35,2.06v.33Z"/><path d="M252,102.93c0,.28.17.53.39.53a.59.59,0,0,0,.26,0v1a1.63,1.63,0,0,1-.75.18c-.67,0-1.23-.26-1.27-1h0a2,2,0,0,1-1.88,1.11c-1.21,0-2-.66-2-2.12a2.09,2.09,0,0,1,1.75-2.37l1.18-.32c.55-.15.88-.31.88-1s-.23-1.12-1-1.12c-1,0-1.15.72-1.15,1.45H247c0-1.61.66-2.48,2.65-2.48,1.33,0,2.39.52,2.39,1.85Zm-1.43-2.41a11.23,11.23,0,0,1-1.68.7,1.24,1.24,0,0,0-.61,1.22c0,.63.3,1.14.93,1.14.91,0,1.36-.68,1.36-1.8Z"/><path d="M253.53,97H255v.89h0a2.15,2.15,0,0,1,1.93-1.08c1.15,0,1.88.52,1.88,2v5.69H257.3V99.33c0-1-.27-1.36-1.05-1.36-.62,0-1.21.46-1.21,1.47v5.06h-1.51Z"/><path d="M264.12,103.58h0a1.62,1.62,0,0,1-1.66,1.12c-1.75,0-2.46-1.49-2.46-4.07,0-3.34,1.18-3.86,2.32-3.86A1.73,1.73,0,0,1,264,97.85h0V94.5h1.51v10h-1.42ZM262.74,98c-.85,0-1.17.7-1.17,2.73,0,1.71.21,2.79,1.27,2.79s1.28-1,1.28-2.67C264.12,99,263.92,98,262.74,98Z"/><path d="M270.45,94.5h3.24c1.5,0,2.69.67,2.69,2.42a2.1,2.1,0,0,1-1.47,2.27v0c1.09.2,1.79.85,1.79,2.55s-1.2,2.73-3.08,2.73h-3.17Zm2.86,4.21a1.4,1.4,0,0,0,1.47-1.58c0-1.19-.71-1.43-1.61-1.43h-1.12v3Zm.32,4.59c1,0,1.48-.61,1.48-1.77a1.51,1.51,0,0,0-1.57-1.69h-1.49v3.46Z"/><path d="M282.82,102.93c0,.28.17.53.39.53a.54.54,0,0,0,.25,0v1a1.55,1.55,0,0,1-.74.18c-.67,0-1.23-.26-1.27-1h0a2,2,0,0,1-1.88,1.11c-1.22,0-2-.66-2-2.12a2.08,2.08,0,0,1,1.75-2.37l1.18-.32c.54-.15.88-.31.88-1s-.24-1.12-1-1.12c-1,0-1.15.72-1.15,1.45h-1.42c0-1.61.65-2.48,2.64-2.48,1.33,0,2.4.52,2.4,1.85Zm-1.43-2.41a11.23,11.23,0,0,1-1.68.7,1.23,1.23,0,0,0-.62,1.22c0,.63.31,1.14.94,1.14.91,0,1.36-.68,1.36-1.8Z"/><path d="M284.36,94.5h1.51v3.35h0a1.73,1.73,0,0,1,1.71-1.08c1.14,0,2.32.52,2.32,3.86,0,2.6-.71,4.07-2.46,4.07a1.62,1.62,0,0,1-1.66-1.12h0v.92h-1.43Zm2.7,9c1.06,0,1.27-1.08,1.27-2.79,0-2-.32-2.73-1.17-2.73-1.18,0-1.37,1-1.37,2.85C285.79,102.44,286,103.49,287.06,103.49Z"/><path d="M291.93,97l1.3,5.66h0L294.47,97h1.58L294,104.78c-.61,2.06-1.07,2.34-2.64,2.3a3.05,3.05,0,0,1-.6-.06v-1.2a2,2,0,0,0,.49.05c.52,0,.85-.1,1-.59l.2-.61L290.31,97Z"/><path d="M297,94.5h1.51v10H297Z"/><path d="M299.7,100.73c0-2.35.62-4,2.8-4s2.82,1.61,2.82,4-.73,4-2.82,4S299.7,103.09,299.7,100.73Zm2.8,2.85c1.11,0,1.3-.93,1.3-2.85,0-1.67-.19-2.84-1.3-2.84s-1.29,1.17-1.29,2.84C301.21,102.65,301.42,103.58,302.5,103.58Z"/><path d="M306.48,97h1.42v.89H308a2.13,2.13,0,0,1,1.93-1.08c1.15,0,1.88.52,1.88,2v5.69h-1.52V99.33c0-1-.26-1.36-1.05-1.36-.61,0-1.2.46-1.2,1.47v5.06h-1.51Z"/><path d="M313.28,94.39h1.51V95.9h-1.51Zm0,2.57h1.51v7.54h-1.51Z"/><path d="M321.26,102.93c0,.28.17.53.39.53a.59.59,0,0,0,.26,0v1a1.63,1.63,0,0,1-.75.18c-.67,0-1.23-.26-1.27-1h0A2,2,0,0,1,318,104.7c-1.21,0-2-.66-2-2.12a2.09,2.09,0,0,1,1.75-2.37l1.18-.32c.55-.15.88-.31.88-1s-.23-1.12-1-1.12c-1,0-1.15.72-1.15,1.45h-1.43c0-1.61.66-2.48,2.65-2.48,1.33,0,2.39.52,2.39,1.85Zm-1.43-2.41a11.23,11.23,0,0,1-1.68.7,1.24,1.24,0,0,0-.61,1.22c0,.63.3,1.14.94,1.14.91,0,1.35-.68,1.35-1.8Z"/><path d="M322.8,97h1.43v.89h0a2.15,2.15,0,0,1,1.93-1.08c1.15,0,1.88.52,1.88,2v5.69h-1.51V99.33c0-1-.27-1.36-1.05-1.36-.62,0-1.21.46-1.21,1.47v5.06H322.8Z"/><path d="M332.78,99.16V99c0-.61-.21-1.17-1-1.17-.6,0-1.08.27-1.08,1s.27.82,1.06,1.1l1,.34a2,2,0,0,1,1.64,2.17c0,1.61-1.19,2.3-2.7,2.3-1.91,0-2.48-.89-2.48-2.34v-.28h1.34v.23c0,.89.3,1.35,1.18,1.35s1.23-.42,1.23-1.11a1.09,1.09,0,0,0-.83-1.1l-1.23-.44a2,2,0,0,1-1.61-2.17c0-1.41,1-2.07,2.58-2.07,1.92,0,2.35,1.12,2.35,2.06v.33Z"/><path d="M338.93,94.39h1.51V95.9h-1.51Zm0,2.57h1.51v7.54h-1.51Z"/><path d="M342,97h1.42v.89h.05a2.13,2.13,0,0,1,1.93-1.08c1.15,0,1.88.52,1.88,2v5.69h-1.52V99.33c0-1-.26-1.36-1.05-1.36-.61,0-1.2.46-1.2,1.47v5.06H342Z"/><path d="M355.91,103.58h0a1.61,1.61,0,0,1-1.65,1.12c-1.75,0-2.47-1.49-2.47-4.07,0-3.34,1.18-3.86,2.33-3.86a1.73,1.73,0,0,1,1.71,1.08h0V94.5h1.51v10h-1.43ZM354.54,98c-.86,0-1.18.7-1.18,2.73,0,1.71.21,2.79,1.28,2.79s1.27-1,1.27-2.67C355.91,99,355.71,98,354.54,98Z"/><path d="M360.1,100.93v.43c0,1,.12,2.3,1.26,2.3s1.2-1.22,1.2-1.68H364a2.48,2.48,0,0,1-2.65,2.72c-1.23,0-2.76-.37-2.76-3.86,0-2,.44-4.07,2.79-4.07,2.1,0,2.66,1.27,2.66,3.36v.8Zm2.42-1v-.4c0-1-.31-1.69-1.16-1.69s-1.26,1-1.26,1.94v.15Z"/><path d="M364.64,97h1.63l1.32,5.94h0L368.8,97h1.61l-2,7.54h-1.77Z"/><path d="M372.54,100.93v.43c0,1,.13,2.3,1.26,2.3S375,102.44,375,102h1.42a2.48,2.48,0,0,1-2.64,2.72c-1.24,0-2.76-.37-2.76-3.86,0-2,.43-4.07,2.79-4.07,2.1,0,2.66,1.27,2.66,3.36v.8Zm2.42-1v-.4c0-1-.3-1.69-1.16-1.69s-1.26,1-1.26,1.94v.15Z"/><path d="M377.79,94.5h1.51v10h-1.51Z"/><path d="M380.53,100.73c0-2.35.62-4,2.81-4s2.81,1.61,2.81,4-.73,4-2.81,4S380.53,103.09,380.53,100.73Zm2.81,2.85c1.1,0,1.3-.93,1.3-2.85,0-1.67-.2-2.84-1.3-2.84s-1.29,1.17-1.29,2.84C382.05,102.65,382.26,103.58,383.34,103.58Z"/><path d="M390.56,104.7a1.74,1.74,0,0,1-1.71-1.08h0V107h-1.51V97h1.43v.93h0a1.78,1.78,0,0,1,1.69-1.12c1.72,0,2.42,1.47,2.42,4.06C392.88,104,391.61,104.7,390.56,104.7ZM390,98c-1,0-1.27,1-1.27,2.68,0,1.81.22,2.84,1.29,2.84.85,0,1.26-.64,1.26-2.73C391.29,99.05,391.08,98,390,98Z"/><path d="M394.11,97h1.43v.89h0a2.11,2.11,0,0,1,1.81-1.08,1.63,1.63,0,0,1,1.75,1.15,2.07,2.07,0,0,1,1.91-1.15c1.06,0,1.83.54,1.83,2v5.73h-1.51V99.33c0-1-.29-1.36-.91-1.36s-1.21.48-1.21,1.47v5.06h-1.51V99.33c0-1-.29-1.36-.92-1.36s-1.19.49-1.19,1.47v5.06h-1.52Z"/><path d="M405.71,100.93v.43c0,1,.12,2.3,1.26,2.3s1.2-1.22,1.2-1.68h1.43A2.48,2.48,0,0,1,407,104.7c-1.23,0-2.76-.37-2.76-3.86,0-2,.44-4.07,2.79-4.07,2.1,0,2.66,1.27,2.66,3.36v.8Zm2.42-1v-.4c0-1-.31-1.69-1.16-1.69s-1.26,1-1.26,1.94v.15Z"/><path d="M410.89,97h1.42v.89h.05a2.13,2.13,0,0,1,1.93-1.08c1.15,0,1.88.52,1.88,2v5.69h-1.52V99.33c0-1-.26-1.36-1-1.36-.61,0-1.2.46-1.2,1.47v5.06h-1.51Z"/><path d="M417,97h1V94.82h1.52V97h1.23v1.12H419.5v4.5c0,.6.16.8.68.8a2.75,2.75,0,0,0,.55,0v1.12a5.17,5.17,0,0,1-1.22.12c-1,0-1.53-.29-1.53-1.82V98.08h-1Z"/><path d="M424.58,100.73c0-2.35.61-4,2.8-4s2.81,1.61,2.81,4-.72,4-2.81,4S424.58,103.09,424.58,100.73Zm2.8,2.85c1.11,0,1.3-.93,1.3-2.85,0-1.67-.19-2.84-1.3-2.84s-1.29,1.17-1.29,2.84C426.09,102.65,426.3,103.58,427.38,103.58Z"/><path d="M431.82,98.08h-1.05V97h1.05v-.7c0-1.41.68-1.87,1.91-1.87a6.47,6.47,0,0,1,.83,0v1.16h-.42c-.56,0-.81.21-.81.72V97h1.23v1.12h-1.23v6.42h-1.51Z"/></g><g id="large-2" data-name="large"><path d="M196,12.08h3.58l4.6,17.5h-2.91l-1.08-4.29h-5.12L194,29.58H191Zm3.72,11-2-8.63h-.05l-2.08,8.63Z"/><path d="M205.42,12.08h9.45v2.35h-6.66v4.86h6.27v2.35h-6.27v5.59h6.86v2.35h-9.65Z"/><path d="M225.85,27.54h0A3.62,3.62,0,0,1,222,29.92c-3.82,0-5.2-2.84-5.2-9.09s1.77-9.09,5.81-9.09a4.76,4.76,0,0,1,5.12,5v.31h-2.64v-.41c0-1.3-.54-2.85-2.45-2.85s-3,1.33-3,6.92.93,7,2.81,7c2.14,0,2.92-1.52,2.92-5.34h-2.94V20.36H228v9.22h-2.11Z"/><path d="M230.36,12.08h9.45v2.35h-6.66v4.86h6.27v2.35h-6.27v5.59H240v2.35h-9.65Z"/><path d="M245.45,12.08H249l4.6,17.5h-2.91l-1.08-4.29h-5.12l-1.13,4.29h-2.92Zm3.72,11-2-8.63h0L245,23.06Z"/><path d="M254.86,12.08h3.4l5.07,13h.05v-13H266v17.5h-3.41L257.55,16.2h-.05V29.58h-2.64Z"/><path d="M271.07,24.16v.44c0,2.13,1,3.21,2.87,3.21a2.51,2.51,0,0,0,2.65-2.55c0-1.83-.93-2.64-2.5-3.11l-1.91-.66c-2.55-1-3.65-2.3-3.65-4.8,0-3.19,2.18-5,5.44-5,4.48,0,4.95,2.79,4.95,4.6v.4h-2.8v-.37c0-1.59-.68-2.53-2.45-2.53a2.24,2.24,0,0,0-2.35,2.53c0,1.49.76,2.25,2.62,3l1.89.69c2.47.88,3.55,2.21,3.55,4.63,0,3.73-2.25,5.27-5.78,5.27-4.34,0-5.32-2.89-5.32-5.34v-.42Z"/><path d="M165.15,60.08h2.79V75.23h6.77v2.35h-9.56Z"/><path d="M184.83,74.83c0,.49.29.93.68.93a1,1,0,0,0,.44-.07v1.72a2.83,2.83,0,0,1-1.3.31c-1.17,0-2.15-.46-2.23-1.74h0a3.42,3.42,0,0,1-3.29,1.94c-2.13,0-3.43-1.15-3.43-3.7,0-2.94,1.3-3.55,3.06-4.14l2.06-.56c1-.27,1.55-.54,1.55-1.7s-.42-2-1.82-2c-1.76,0-2,1.25-2,2.53H176c0-2.82,1.16-4.34,4.64-4.34,2.32,0,4.19.91,4.19,3.24Zm-2.5-4.21a20.94,20.94,0,0,1-2.94,1.22A2.18,2.18,0,0,0,178.31,74c0,1.1.54,2,1.64,2,1.59,0,2.38-1.18,2.38-3.14Z"/><path d="M186.34,64.39h1.82V60.64h2.64v3.75H193v2H190.8v7.87c0,1,.3,1.4,1.2,1.4a4.91,4.91,0,0,0,1-.08v2a8.49,8.49,0,0,1-2.13.22c-1.77,0-2.67-.51-2.67-3.18V66.35h-1.82Z"/><path d="M196.61,71.33v.76c0,1.76.22,4,2.2,4s2.11-2.13,2.11-2.94h2.5c0,3-1.76,4.75-4.63,4.75-2.16,0-4.83-.64-4.83-6.74,0-3.45.76-7.13,4.88-7.13,3.67,0,4.66,2.23,4.66,5.88v1.4Zm4.24-1.81V68.8c0-1.66-.54-2.94-2-2.94-1.66,0-2.2,1.67-2.2,3.39v.27Z"/><path d="M211.72,60.08h4.37l3.08,13h.05l3-13h4.27v17.5h-2.65V63h0L220.3,77.58H218L214.42,63h0V77.58h-2.65Z"/><path d="M229.36,59.88H232v2.65h-2.65Zm0,4.51H232V77.58h-2.65Z"/><path d="M234.68,64.39h2.5v1.55h.07a3.77,3.77,0,0,1,3.38-1.89c2,0,3.29.91,3.29,3.58v10h-2.65v-9c0-1.77-.46-2.38-1.84-2.38-1.07,0-2.1.81-2.1,2.57v8.85h-2.65Z"/><path d="M246,71c0-4.12,1.08-6.94,4.9-6.94s4.93,2.82,4.93,6.94-1.28,6.93-4.93,6.93S246,75.1,246,71Zm4.9,5c1.94,0,2.28-1.62,2.28-5,0-2.92-.34-5-2.28-5s-2.25,2.06-2.25,5C248.6,74.34,249,76,250.85,76Z"/><path d="M266.46,74.83c0,.49.29.93.68.93a1.06,1.06,0,0,0,.45-.07v1.72a2.86,2.86,0,0,1-1.3.31c-1.18,0-2.16-.46-2.23-1.74H264a3.41,3.41,0,0,1-3.29,1.94c-2.13,0-3.43-1.15-3.43-3.7,0-2.94,1.3-3.55,3.07-4.14l2.05-.56c1-.27,1.55-.54,1.55-1.7s-.42-2-1.82-2c-1.76,0-2,1.25-2,2.53h-2.5c0-2.82,1.15-4.34,4.63-4.34,2.33,0,4.19.91,4.19,3.24ZM264,70.62A20.45,20.45,0,0,1,261,71.84,2.18,2.18,0,0,0,259.94,74c0,1.1.54,2,1.64,2,1.59,0,2.38-1.18,2.38-3.14Z"/><path d="M269.15,64.39h2.5v1.55h.07a3.8,3.8,0,0,1,3.39-1.89c2,0,3.28.91,3.28,3.58v10h-2.65v-9c0-1.77-.46-2.38-1.84-2.38-1.07,0-2.1.81-2.1,2.57v8.85h-2.65Z"/><path d="M287,60.08h5.53c3.36,0,4.83,2.11,4.83,5.1s-1.86,5.17-5.12,5.17h-2.45v7.23H287Zm2.79,8.16h2c1.49,0,2.79-.78,2.79-3,0-1.89-.76-3-3-3h-1.79Z"/><path d="M301.34,71.33v.76c0,1.76.22,4,2.21,4s2.11-2.13,2.11-2.94h2.5c0,3-1.77,4.75-4.64,4.75-2.15,0-4.82-.64-4.82-6.74,0-3.45.76-7.13,4.87-7.13,3.68,0,4.66,2.23,4.66,5.88v1.4Zm4.24-1.81V68.8c0-1.66-.54-2.94-2-2.94-1.67,0-2.21,1.67-2.21,3.39v.27Z"/><path d="M310.41,64.39h2.64v2.06h.05a3.26,3.26,0,0,1,3.07-2.4,1.36,1.36,0,0,1,.63.1v2.69a3.8,3.8,0,0,0-1.1-.14c-1.2,0-2.65.54-2.65,3v7.89h-2.64Z"/><path d="M318.25,59.88h2.64v2.65h-2.64Zm0,4.51h2.64V77.58h-2.64Z"/><path d="M323.05,71c0-4.12,1.08-6.94,4.9-6.94s4.93,2.82,4.93,6.94-1.28,6.93-4.93,6.93S323.05,75.1,323.05,71Zm4.9,5c1.94,0,2.28-1.62,2.28-5,0-2.92-.34-5-2.28-5s-2.25,2.06-2.25,5C325.7,74.34,326.06,76,328,76Z"/><path d="M341.65,76h0a2.82,2.82,0,0,1-2.89,2c-3.07,0-4.32-2.6-4.32-7.11,0-5.85,2.06-6.76,4.07-6.76a3,3,0,0,1,3,1.89h.05V60.08h2.65v17.5h-2.5Zm-2.41-9.8c-1.49,0-2.05,1.22-2.05,4.78,0,3,.36,4.87,2.23,4.87s2.23-1.83,2.23-4.68C341.65,68,341.3,66.16,339.24,66.16Z"/></g></g></g></g></svg>