<svg id="Text" xmlns="http://www.w3.org/2000/svg" viewBox="0 0 1847.91 112"><title>bc1500text</title><g id="Ageans"><g id="Title"><path d="M196,12.08h3.58l4.6,17.5h-2.91l-1.08-4.29h-5.12L194,29.58H191Zm3.72,11-2-8.63h-.05l-2.08,8.63Z"/><path d="M205.42,12.08h9.45v2.35h-6.66v4.86h6.27v2.35h-6.27v5.59h6.86v2.35h-9.65Z"/><path d="M225.85,27.54h0A3.62,3.62,0,0,1,222,29.92c-3.82,0-5.2-2.84-5.2-9.09s1.77-9.09,5.81-9.09a4.76,4.76,0,0,1,5.12,5v.31h-2.64v-.41c0-1.3-.54-2.85-2.45-2.85s-3,1.33-3,6.92.93,7,2.81,7c2.14,0,2.92-1.52,2.92-5.34h-2.94V20.36H228v9.22h-2.11Z"/><path d="M230.36,12.08h9.45v2.35h-6.66v4.86h6.27v2.35h-6.27v5.59H240v2.35h-9.65Z"/><path d="M245.45,12.08H249l4.6,17.5h-2.91l-1.08-4.29h-5.12l-1.13,4.29h-2.92Zm3.72,11-2-8.63h0L245,23.06Z"/><path d="M254.86,12.08h3.4l5.07,13h.05v-13H266v17.5h-3.41L257.55,16.2h-.05V29.58h-2.64Z"/><path d="M271.07,24.16v.44c0,2.13,1,3.21,2.87,3.21a2.51,2.51,0,0,0,2.65-2.55c0-1.83-.93-2.64-2.5-3.11l-1.91-.66c-2.55-1-3.65-2.3-3.65-4.8,0-3.19,2.18-5,5.44-5,4.48,0,4.95,2.79,4.95,4.6v.4h-2.8v-.37c0-1.59-.68-2.53-2.45-2.53a2.24,2.24,0,0,0-2.35,2.53c0,1.49.76,2.25,2.62,3l1.89.69c2.47.88,3.55,2.21,3.55,4.63,0,3.73-2.25,5.27-5.78,5.27-4.34,0-5.32-2.89-5.32-5.34v-.42Z"/><path d="M165.15,60.08h2.79V75.23h6.77v2.35h-9.56Z"/><path d="M184.83,74.83c0,.49.29.93.68.93a1,1,0,0,0,.44-.07v1.72a2.83,2.83,0,0,1-1.3.31c-1.17,0-2.15-.46-2.23-1.74h0a3.42,3.42,0,0,1-3.29,1.94c-2.13,0-3.43-1.15-3.43-3.7,0-2.94,1.3-3.55,3.06-4.14l2.06-.56c1-.27,1.55-.54,1.55-1.7s-.42-2-1.82-2c-1.76,0-2,1.25-2,2.53H176c0-2.82,1.16-4.34,4.64-4.34,2.32,0,4.19.91,4.19,3.24Zm-2.5-4.21a20.94,20.94,0,0,1-2.94,1.22A2.18,2.18,0,0,0,178.31,74c0,1.1.54,2,1.64,2,1.59,0,2.38-1.18,2.38-3.14Z"/><path d="M186.34,64.39h1.82V60.64h2.64v3.75H193v2H190.8v7.87c0,1,.3,1.4,1.2,1.4a4.91,4.91,0,0,0,1-.08v2a8.49,8.49,0,0,1-2.13.22c-1.77,0-2.67-.51-2.67-3.18V66.35h-1.82Z"/><path d="M196.61,71.33v.76c0,1.76.22,4,2.2,4s2.11-2.13,2.11-2.94h2.5c0,3-1.76,4.75-4.63,4.75-2.16,0-4.83-.64-4.83-6.74,0-3.45.76-7.13,4.88-7.13,3.67,0,4.66,2.23,4.66,5.88v1.4Zm4.24-1.81V68.8c0-1.66-.54-2.94-2-2.94-1.66,0-2.2,1.67-2.2,3.39v.27Z"/><path d="M211.72,60.08h4.37l3.08,13h.05l3-13h4.27v17.5h-2.65V63h0L220.3,77.58H218L214.42,63h0V77.58h-2.65Z"/><path d="M229.36,59.88H232v2.65h-2.65Zm0,4.51H232V77.58h-2.65Z"/><path d="M234.68,64.39h2.5v1.55h.07a3.77,3.77,0,0,1,3.38-1.89c2,0,3.29.91,3.29,3.58v10h-2.65v-9c0-1.77-.46-2.38-1.84-2.38-1.07,0-2.1.81-2.1,2.57v8.85h-2.65Z"/><path d="M246,71c0-4.12,1.08-6.94,4.9-6.94s4.93,2.82,4.93,6.94-1.28,6.93-4.93,6.93S246,75.1,246,71Zm4.9,5c1.94,0,2.28-1.62,2.28-5,0-2.92-.34-5-2.28-5s-2.25,2.06-2.25,5C248.6,74.34,249,76,250.85,76Z"/><path d="M266.46,74.83c0,.49.29.93.68.93a1.06,1.06,0,0,0,.45-.07v1.72a2.86,2.86,0,0,1-1.3.31c-1.18,0-2.16-.46-2.23-1.74H264a3.41,3.41,0,0,1-3.29,1.94c-2.13,0-3.43-1.15-3.43-3.7,0-2.94,1.3-3.55,3.07-4.14l2.05-.56c1-.27,1.55-.54,1.55-1.7s-.42-2-1.82-2c-1.76,0-2,1.25-2,2.53h-2.5c0-2.82,1.15-4.34,4.63-4.34,2.33,0,4.19.91,4.19,3.24ZM264,70.62A20.45,20.45,0,0,1,261,71.84,2.18,2.18,0,0,0,259.94,74c0,1.1.54,2,1.64,2,1.59,0,2.38-1.18,2.38-3.14Z"/><path d="M269.15,64.39h2.5v1.55h.07a3.8,3.8,0,0,1,3.39-1.89c2,0,3.28.91,3.28,3.58v10h-2.65v-9c0-1.77-.46-2.38-1.84-2.38-1.07,0-2.1.81-2.1,2.57v8.85h-2.65Z"/><path d="M287,60.08h5.53c3.36,0,4.83,2.11,4.83,5.1s-1.86,5.17-5.12,5.17h-2.45v7.23H287Zm2.79,8.16h2c1.49,0,2.79-.78,2.79-3,0-1.89-.76-3-3-3h-1.79Z"/><path d="M301.34,71.33v.76c0,1.76.22,4,2.21,4s2.11-2.13,2.11-2.94h2.5c0,3-1.77,4.75-4.64,4.75-2.15,0-4.82-.64-4.82-6.74,0-3.45.76-7.13,4.87-7.13,3.68,0,4.66,2.23,4.66,5.88v1.4Zm4.24-1.81V68.8c0-1.66-.54-2.94-2-2.94-1.67,0-2.21,1.67-2.21,3.39v.27Z"/><path d="M310.41,64.39h2.64v2.06h.05a3.26,3.26,0,0,1,3.07-2.4,1.36,1.36,0,0,1,.63.1v2.69a3.8,3.8,0,0,0-1.1-.14c-1.2,0-2.65.54-2.65,3v7.89h-2.64Z"/><path d="M318.25,59.88h2.64v2.65h-2.64Zm0,4.51h2.64V77.58h-2.64Z"/><path d="M323.05,71c0-4.12,1.08-6.94,4.9-6.94s4.93,2.82,4.93,6.94-1.28,6.93-4.93,6.93S323.05,75.1,323.05,71Zm4.9,5c1.94,0,2.28-1.62,2.28-5,0-2.92-.34-5-2.28-5s-2.25,2.06-2.25,5C325.7,74.34,326.06,76,328,76Z"/><path d="M341.65,76h0a2.82,2.82,0,0,1-2.89,2c-3.07,0-4.32-2.6-4.32-7.11,0-5.85,2.06-6.76,4.07-6.76a3,3,0,0,1,3,1.89h.05V60.08h2.65v17.5h-2.5Zm-2.41-9.8c-1.49,0-2.05,1.22-2.05,4.78,0,3,.36,4.87,2.23,4.87s2.23-1.83,2.23-4.68C341.65,68,341.3,66.16,339.24,66.16Z"/></g></g><g id="Huns"><path d="M1605.42,86.35h-4.16V84h11v2.35h-4.1v15.14h-2.79Z"/><path d="M1620.56,98.75c0,.49.3.93.69.93a1.18,1.18,0,0,0,.44-.07v1.71a2.83,2.83,0,0,1-1.3.32c-1.17,0-2.16-.47-2.23-1.74h-.05a3.4,3.4,0,0,1-3.28,1.94c-2.13,0-3.43-1.16-3.43-3.7,0-3,1.3-3.56,3.06-4.15l2.06-.56c1-.27,1.54-.54,1.54-1.69s-.41-2-1.81-2c-1.76,0-2,1.25-2,2.52h-2.5c0-2.82,1.15-4.33,4.63-4.33,2.33,0,4.19.9,4.19,3.23Zm-2.5-4.22a20,20,0,0,1-2.94,1.23,2.17,2.17,0,0,0-1.08,2.13c0,1.1.54,2,1.65,2,1.59,0,2.37-1.17,2.37-3.13Z"/><path d="M1623.26,88.31h2.64v2.06h0A3.26,3.26,0,0,1,1629,88a1.56,1.56,0,0,1,.63.09v2.7a3.73,3.73,0,0,0-1.1-.15c-1.2,0-2.65.54-2.65,3v7.89h-2.64Z"/><path d="M1629.8,88.31h1.81V84.56h2.65v3.75h2.15v2h-2.15v7.87c0,1,.29,1.39,1.2,1.39a4.91,4.91,0,0,0,1-.07v2a8.44,8.44,0,0,1-2.13.22c-1.76,0-2.67-.52-2.67-3.19V90.27h-1.81Z"/><path d="M1646.43,98.75c0,.49.3.93.69.93a1.18,1.18,0,0,0,.44-.07v1.71a2.83,2.83,0,0,1-1.3.32c-1.17,0-2.15-.47-2.23-1.74h0a3.4,3.4,0,0,1-3.28,1.94c-2.13,0-3.43-1.16-3.43-3.7,0-3,1.3-3.56,3.06-4.15l2.06-.56c1-.27,1.55-.54,1.55-1.69s-.42-2-1.82-2c-1.76,0-2,1.25-2,2.52h-2.5c0-2.82,1.16-4.33,4.63-4.33,2.33,0,4.19.9,4.19,3.23Zm-2.49-4.22a20.62,20.62,0,0,1-3,1.23,2.16,2.16,0,0,0-1.07,2.13c0,1.1.54,2,1.64,2,1.59,0,2.38-1.17,2.38-3.13Z"/><path d="M1649.13,88.31h2.64v2.06h0a3.26,3.26,0,0,1,3.07-2.4,1.53,1.53,0,0,1,.63.09v2.7a3.73,3.73,0,0,0-1.1-.15c-1.2,0-2.65.54-2.65,3v7.89h-2.64Z"/><path d="M1662.53,92.16v-.35c0-1-.37-2-1.74-2-1,0-1.89.46-1.89,1.71,0,1.06.47,1.45,1.87,1.94l1.69.59c2,.66,2.86,1.71,2.86,3.8,0,2.81-2.08,4-4.73,4-3.33,0-4.33-1.55-4.33-4.1v-.49h2.35v.42c0,1.54.51,2.35,2.06,2.35s2.15-.73,2.15-1.93a1.91,1.91,0,0,0-1.44-1.94l-2.16-.76c-2-.66-2.82-1.69-2.82-3.8,0-2.47,1.77-3.62,4.51-3.62,3.36,0,4.12,2,4.12,3.6v.59Z"/></g></svg>