<svg xmlns="http://www.w3.org/2000/svg" viewBox="0 0 1847.91 114"><title>bc1550text</title><g id="YEARS"><g id="Right"><path d="M1787.21,106.26V92.9h-3.82V91h.29c1.77,0,3.79-.44,4.34-2.75v-.37h2.16v18.41Z"/><path d="M1795.14,101.29H1798v.5a2.35,2.35,0,0,0,2.42,2.6c2.08,0,2.63-2,2.63-4.19s-.58-3.92-2.48-3.92a2.34,2.34,0,0,0-2.41,1.69l-2.63-.11.91-9.64h8.87v2.36h-6.66l-.6,4.84.06,0a4,4,0,0,1,3.09-1.43c3.85,0,4.81,3.25,4.81,6.08,0,3.7-1.69,6.5-5.67,6.5-3.3,0-5.15-1.69-5.15-4.94Z"/><path d="M1807.62,101.29h2.81v.5a2.35,2.35,0,0,0,2.42,2.6c2.08,0,2.63-2,2.63-4.19s-.58-3.92-2.48-3.92a2.34,2.34,0,0,0-2.41,1.69l-2.63-.11.91-9.64h8.87v2.36h-6.66l-.6,4.84,0,0a4.08,4.08,0,0,1,3.1-1.43c3.85,0,4.81,3.25,4.81,6.08,0,3.7-1.69,6.5-5.67,6.5-3.3,0-5.15-1.69-5.15-4.94Z"/><path d="M1825.51,87.85c3.54,0,5.51,2.21,5.51,9.39s-2,9.38-5.51,9.38-5.51-2.21-5.51-9.38S1822,87.85,1825.51,87.85Zm0,16.69c2,0,2.55-2,2.55-7.3s-.55-7.31-2.55-7.31-2.55,2-2.55,7.31S1823.51,104.54,1825.51,104.54Z"/></g><g id="left"><path d="M17.46,109.86V96.49H13.64V94.57h.29c1.77,0,3.79-.44,4.34-2.76v-.36h2.16v18.41Z"/><path d="M25.39,104.89H28.2v.5a2.36,2.36,0,0,0,2.42,2.6c2.08,0,2.63-2,2.63-4.19s-.58-3.93-2.47-3.93a2.35,2.35,0,0,0-2.42,1.69l-2.63-.1.91-9.65h8.87v2.37H28.85L28.25,99l.06,0a4,4,0,0,1,3.09-1.43c3.85,0,4.81,3.25,4.81,6.08,0,3.69-1.69,6.5-5.67,6.5-3.3,0-5.15-1.69-5.15-4.94Z"/><path d="M37.87,104.89h2.81v.5A2.36,2.36,0,0,0,43.1,108c2.08,0,2.63-2,2.63-4.19s-.58-3.93-2.48-3.93a2.35,2.35,0,0,0-2.41,1.69l-2.63-.1.91-9.65H48v2.37H41.33L40.73,99l.06,0a4,4,0,0,1,3.09-1.43c3.85,0,4.81,3.25,4.81,6.08,0,3.69-1.69,6.5-5.67,6.5-3.3,0-5.15-1.69-5.15-4.94Z"/><path d="M55.76,91.45c3.54,0,5.51,2.21,5.51,9.39s-2,9.38-5.51,9.38-5.51-2.21-5.51-9.38S52.22,91.45,55.76,91.45Zm0,16.69c2,0,2.55-2,2.55-7.3s-.55-7.31-2.55-7.31-2.55,2-2.55,7.31S53.76,108.14,55.76,108.14Z"/></g></g><g id="Text"><g id="Egytians"><g id="small"><path d="M443.93,13.83h2l2.63,10h-1.66l-.62-2.45h-2.93l-.64,2.45h-1.67Zm2.13,6.28-1.15-4.93h0l-1.19,4.93Z" fill="#3b4351"/><path d="M449.2,13.83h1.52v3.28l0,0a2.14,2.14,0,0,1,1.85-1c1.15,0,1.87.52,1.87,2v5.69H453V18.66c0-1-.28-1.36-1.05-1.36s-1.2.48-1.2,1.48v5H449.2Z" fill="#3b4351"/><path d="M456,16.3h1.43v.88h0a2.11,2.11,0,0,1,1.8-1.08A1.65,1.65,0,0,1,461,17.25a2,2,0,0,1,1.9-1.15c1.07,0,1.84.55,1.84,2v5.73h-1.52V18.66c0-1-.29-1.36-.91-1.36s-1.2.48-1.2,1.48v5h-1.52V18.66c0-1-.29-1.36-.92-1.36s-1.19.49-1.19,1.48v5H456Z" fill="#3b4351"/><path d="M466,20.06c0-2.35.62-4,2.8-4s2.82,1.61,2.82,4-.73,4-2.82,4S466,22.42,466,20.06Zm2.8,2.85c1.11,0,1.31-.93,1.31-2.85,0-1.66-.2-2.84-1.31-2.84s-1.28,1.18-1.28,2.84C467.52,22,467.73,22.91,468.8,22.91Z" fill="#3b4351"/><path d="M476,18.5v-.2c0-.6-.21-1.16-1-1.16-.6,0-1.07.26-1.07,1s.26.82,1.06,1.1l1,.34a2,2,0,0,1,1.64,2.17c0,1.61-1.2,2.3-2.71,2.3-1.9,0-2.48-.88-2.48-2.34v-.28h1.35v.24c0,.88.29,1.34,1.17,1.34s1.24-.42,1.24-1.11a1.09,1.09,0,0,0-.83-1.1l-1.23-.44a2,2,0,0,1-1.61-2.17c0-1.41,1-2.07,2.57-2.07,1.92,0,2.36,1.12,2.36,2.06v.34Z" fill="#3b4351"/><path d="M480.05,20.26v.43c0,1,.12,2.3,1.26,2.3s1.2-1.22,1.2-1.68h1.43A2.48,2.48,0,0,1,481.29,24c-1.23,0-2.76-.37-2.76-3.85,0-2,.44-4.08,2.79-4.08,2.1,0,2.66,1.27,2.66,3.36v.8Zm2.42-1v-.4c0-1-.31-1.68-1.16-1.68s-1.26.95-1.26,1.93v.15Z" fill="#3b4351"/><path d="M488.61,13.83h1.6v10h-1.6Z" fill="#3b4351"/><path d="M494.53,16.3h1.57l1,5.94h0l1.12-5.94H500l1.12,5.94h0l1-5.94h1.51L502,23.83h-1.7L499.11,18h0L498,23.83h-1.77Z" fill="#3b4351"/><path d="M504.71,13.72h1.51v1.51h-1.51Zm0,2.58h1.51v7.53h-1.51Z" fill="#3b4351"/><path d="M507.08,16.3h1V14.15h1.52V16.3h1.23v1.12h-1.23v4.49c0,.61.16.8.68.8a2.75,2.75,0,0,0,.55,0v1.12a5.11,5.11,0,0,1-1.22.13c-1,0-1.53-.3-1.53-1.82V17.42h-1Z" fill="#3b4351"/><path d="M511.64,13.83h1.51v3.28l.05,0a2.14,2.14,0,0,1,1.85-1c1.14,0,1.87.52,1.87,2v5.69h-1.51V18.66c0-1-.28-1.36-1-1.36s-1.21.48-1.21,1.48v5h-1.51Z" fill="#3b4351"/><path d="M526.68,22.26c0,.28.17.54.39.54a.52.52,0,0,0,.25-.05v1a1.55,1.55,0,0,1-.74.19c-.67,0-1.23-.27-1.27-1h0A2,2,0,0,1,523.4,24c-1.22,0-2-.66-2-2.12a2.06,2.06,0,0,1,1.75-2.36l1.18-.33c.55-.15.88-.3.88-1s-.24-1.12-1-1.12c-1,0-1.14.71-1.14,1.44h-1.43c0-1.61.66-2.48,2.65-2.48,1.33,0,2.39.52,2.39,1.85Zm-1.43-2.41a11.23,11.23,0,0,1-1.68.7,1.25,1.25,0,0,0-.62,1.22c0,.63.31,1.14.94,1.14.91,0,1.36-.67,1.36-1.8Z" fill="#3b4351"/><path d="M528.29,13.72h1.51v1.51h-1.51Zm0,2.58h1.51v7.53h-1.51Z" fill="#3b4351"/><path d="M535.18,22.91h0A1.61,1.61,0,0,1,533.5,24C531.75,24,531,22.54,531,20c0-3.35,1.18-3.87,2.33-3.87a1.75,1.75,0,0,1,1.71,1.08h0V13.83h1.52v10h-1.43ZM533.8,17.3c-.85,0-1.17.7-1.17,2.74,0,1.71.21,2.78,1.27,2.78s1.28-1.05,1.28-2.67C535.18,18.34,535,17.3,533.8,17.3Z" fill="#3b4351"/><path d="M541.12,20.06c0-2.35.62-4,2.81-4s2.81,1.61,2.81,4-.73,4-2.81,4S541.12,22.42,541.12,20.06Zm2.81,2.85c1.1,0,1.3-.93,1.3-2.85,0-1.66-.2-2.84-1.3-2.84s-1.29,1.18-1.29,2.84C542.64,22,542.85,22.91,543.93,22.91Z" fill="#3b4351"/><path d="M548.36,17.42h-1.05V16.3h1.05v-.7c0-1.42.69-1.88,1.92-1.88a6.67,6.67,0,0,1,.83,0v1.16h-.42c-.56,0-.81.21-.81.72v.66h1.23v1.12h-1.23v6.41h-1.52Z" fill="#3b4351"/><path d="M486.44,61.26c0,.28.17.54.4.54a.55.55,0,0,0,.25,0v1a1.58,1.58,0,0,1-.74.19c-.68,0-1.24-.27-1.28-1h0A1.94,1.94,0,0,1,483.17,63c-1.22,0-2-.66-2-2.12A2.07,2.07,0,0,1,483,58.55l1.17-.33c.55-.15.89-.3.89-1s-.24-1.12-1-1.12c-1,0-1.15.71-1.15,1.44H481.4c0-1.61.66-2.48,2.65-2.48,1.33,0,2.39.52,2.39,1.85ZM485,58.85a10.92,10.92,0,0,1-1.69.7,1.24,1.24,0,0,0-.61,1.22c0,.63.31,1.14.94,1.14.91,0,1.36-.67,1.36-1.8Z" fill="#3b4351"/><path d="M488,55.3h1.51v1.17h0a1.87,1.87,0,0,1,1.75-1.37.77.77,0,0,1,.37.06V56.7a1.87,1.87,0,0,0-.63-.09c-.69,0-1.52.31-1.52,1.71v4.51H488Z" fill="#3b4351"/><path d="M492.6,55.3H494v.88h0a2.12,2.12,0,0,1,1.81-1.08,1.63,1.63,0,0,1,1.75,1.15,2,2,0,0,1,1.9-1.15c1.07,0,1.84.55,1.84,2v5.73h-1.51V57.66c0-1-.3-1.36-.91-1.36s-1.21.48-1.21,1.48v5h-1.51V57.66c0-1-.3-1.36-.93-1.36s-1.19.49-1.19,1.48v5H492.6Z" fill="#3b4351"/><path d="M503.9,55.3,505.2,61h0l1.2-5.66H508l-2.08,7.81c-.6,2.06-1.06,2.34-2.63,2.3a2.45,2.45,0,0,1-.6-.06v-1.2a2,2,0,0,0,.49,0c.52,0,.85-.09,1-.58l.2-.62-2.15-7.7Z" fill="#3b4351"/><path d="M512.21,55.3h1.52v1.17h0a1.85,1.85,0,0,1,1.75-1.37.73.73,0,0,1,.36.06V56.7a1.83,1.83,0,0,0-.63-.09c-.69,0-1.51.31-1.51,1.71v4.51h-1.52Z" fill="#3b4351"/><path d="M521.48,61.26c0,.28.17.54.4.54a.55.55,0,0,0,.25,0v1a1.58,1.58,0,0,1-.74.19c-.68,0-1.24-.27-1.28-1h0A1.94,1.94,0,0,1,518.21,63c-1.22,0-2-.66-2-2.12A2.06,2.06,0,0,1,518,58.55l1.17-.33c.55-.15.89-.3.89-1s-.24-1.12-1-1.12c-1,0-1.15.71-1.15,1.44h-1.43c0-1.61.66-2.48,2.65-2.48,1.33,0,2.39.52,2.39,1.85Zm-1.42-2.41a11.23,11.23,0,0,1-1.68.7,1.23,1.23,0,0,0-.62,1.22c0,.63.31,1.14.94,1.14.91,0,1.36-.67,1.36-1.8Z" fill="#3b4351"/><path d="M523.09,52.72h1.51v1.51h-1.51Zm0,2.58h1.51v7.53h-1.51Z" fill="#3b4351"/><path d="M529.38,57.5v-.2c0-.6-.21-1.16-1-1.16-.61,0-1.08.26-1.08,1s.26.82,1.06,1.1l1,.34A2,2,0,0,1,531,60.73c0,1.61-1.19,2.3-2.71,2.3-1.9,0-2.48-.88-2.48-2.34v-.28h1.35v.24c0,.88.29,1.34,1.18,1.34s1.23-.42,1.23-1.11a1.09,1.09,0,0,0-.83-1.1l-1.23-.44a2,2,0,0,1-1.61-2.17c0-1.41,1-2.07,2.58-2.07,1.91,0,2.35,1.12,2.35,2.06v.34Z" fill="#3b4351"/><path d="M533.4,59.26v.43c0,1,.12,2.3,1.26,2.3s1.2-1.22,1.2-1.68h1.43A2.48,2.48,0,0,1,534.64,63c-1.23,0-2.76-.37-2.76-3.85,0-2,.44-4.08,2.79-4.08,2.1,0,2.66,1.27,2.66,3.36v.8Zm2.42-1v-.4c0-1-.31-1.68-1.16-1.68s-1.26,1-1.26,1.93v.15Z" fill="#3b4351"/><path d="M542.43,61.91h0A1.61,1.61,0,0,1,540.75,63c-1.75,0-2.47-1.49-2.47-4.06,0-3.35,1.18-3.87,2.33-3.87a1.75,1.75,0,0,1,1.71,1.08h0V52.83h1.52v10h-1.43Zm-1.37-5.61c-.86,0-1.18.7-1.18,2.74,0,1.71.21,2.78,1.27,2.78s1.28-1,1.28-2.67C542.43,57.34,542.23,56.3,541.06,56.3Z" fill="#3b4351"/><path d="M548.74,52.72h1.51v1.51h-1.51Zm0,2.58h1.51v7.53h-1.51Z" fill="#3b4351"/><path d="M551.78,55.3h1.43v.88h0a2.17,2.17,0,0,1,1.93-1.08c1.15,0,1.88.52,1.88,2v5.69h-1.51V57.66c0-1-.27-1.36-1-1.36-.62,0-1.21.47-1.21,1.48v5h-1.51Z" fill="#3b4351"/><path d="M562,52.83h5.41v1.35h-3.81V57h3.58v1.34h-3.58v3.2h3.92v1.34H562Z" fill="#3b4351"/><path d="M567.93,55.3h1V53.15h1.51V55.3h1.23v1.12h-1.23v4.49c0,.61.17.8.69.8a2.7,2.7,0,0,0,.54,0v1.12a5,5,0,0,1-1.21.13c-1,0-1.53-.3-1.53-1.82V56.42h-1Z" fill="#3b4351"/><path d="M572.5,52.83H574v3.28l0,0a2.16,2.16,0,0,1,1.85-1c1.15,0,1.88.52,1.88,2v5.69h-1.51V57.66c0-1-.28-1.36-1.06-1.36-.61,0-1.2.48-1.2,1.48v5H572.5Z" fill="#3b4351"/><path d="M579.3,52.72h1.51v1.51H579.3Zm0,2.58h1.51v7.53H579.3Z" fill="#3b4351"/><path d="M582,59.06c0-2.35.62-4,2.81-4s2.81,1.61,2.81,4-.73,4-2.81,4S582,61.42,582,59.06Zm2.81,2.85c1.1,0,1.3-.93,1.3-2.85,0-1.66-.2-2.84-1.3-2.84s-1.29,1.18-1.29,2.84C583.56,61,583.77,61.91,584.85,61.91Z" fill="#3b4351"/><path d="M592.07,63A1.74,1.74,0,0,1,590.36,62h0V65.3h-1.51v-10h1.43v.92h0A1.78,1.78,0,0,1,592,55.1c1.73,0,2.43,1.47,2.43,4.06C594.4,62.33,593.12,63,592.07,63Zm-.55-6.73c-1,0-1.27,1.05-1.27,2.68,0,1.81.22,2.84,1.29,2.84.85,0,1.26-.64,1.26-2.73C592.8,57.38,592.59,56.3,591.52,56.3Z" fill="#3b4351"/><path d="M595.62,52.72h1.52v1.51h-1.52Zm0,2.58h1.52v7.53h-1.52Z" fill="#3b4351"/><path d="M603.61,61.26c0,.28.17.54.39.54a.52.52,0,0,0,.25,0v1a1.58,1.58,0,0,1-.74.19c-.67,0-1.23-.27-1.28-1h0A2,2,0,0,1,600.33,63c-1.22,0-2-.66-2-2.12a2.06,2.06,0,0,1,1.75-2.36l1.18-.33c.54-.15.88-.3.88-1s-.24-1.12-1-1.12c-1,0-1.15.71-1.15,1.44h-1.43c0-1.61.66-2.48,2.65-2.48,1.33,0,2.4.52,2.4,1.85Zm-1.43-2.41a11.23,11.23,0,0,1-1.68.7,1.23,1.23,0,0,0-.62,1.22c0,.63.31,1.14.94,1.14.91,0,1.36-.67,1.36-1.8Z" fill="#3b4351"/><path d="M464.1,93.49h2l2.63,10h-1.66L466.5,101h-2.93l-.64,2.46h-1.67Zm2.13,6.28-1.15-4.93h0l-1.19,4.93Z" fill="#3b4351"/><path d="M469.45,96h1.43v.88h0a2.13,2.13,0,0,1,1.81-1.08,1.63,1.63,0,0,1,1.75,1.15,2.06,2.06,0,0,1,1.91-1.15c1.06,0,1.83.55,1.83,2v5.73h-1.51V98.33c0-1-.3-1.36-.91-1.36s-1.21.47-1.21,1.47v5.06h-1.51V98.33c0-1-.29-1.36-.92-1.36s-1.2.49-1.2,1.47v5.06h-1.51Z" fill="#3b4351"/><path d="M481,99.92v.44c0,1,.13,2.3,1.27,2.3s1.2-1.22,1.2-1.69h1.43a2.48,2.48,0,0,1-2.65,2.72c-1.23,0-2.76-.36-2.76-3.85,0-2,.44-4.08,2.79-4.08,2.1,0,2.66,1.28,2.66,3.37v.79Zm2.43-1v-.41c0-1-.31-1.68-1.16-1.68s-1.27,1-1.27,1.93v.16Z" fill="#3b4351"/><path d="M486.22,96h1.43v.88h0a2.18,2.18,0,0,1,1.94-1.08c1.15,0,1.87.52,1.87,2v5.69H490V98.33c0-1-.26-1.36-1.05-1.36-.62,0-1.2.46-1.2,1.47v5.06h-1.52Z" fill="#3b4351"/><path d="M493,93.49h1.51v3.28l0,0a2.16,2.16,0,0,1,1.85-1c1.15,0,1.88.52,1.88,2v5.69h-1.51V98.33c0-1-.28-1.36-1.06-1.36-.61,0-1.2.47-1.2,1.47v5.06H493Z" fill="#3b4351"/><path d="M499.4,99.73c0-2.36.61-4,2.8-4s2.81,1.61,2.81,4-.72,4-2.81,4S499.4,102.08,499.4,99.73Zm2.8,2.84c1.11,0,1.3-.92,1.3-2.84,0-1.67-.19-2.85-1.3-2.85s-1.29,1.18-1.29,2.85C500.91,101.65,501.12,102.57,502.2,102.57Z" fill="#3b4351"/><path d="M505.5,96h1V93.82h1.51V96h1.23v1.12h-1.23v4.5c0,.6.17.79.69.79a2.7,2.7,0,0,0,.54,0v1.12a4.64,4.64,0,0,1-1.22.13c-1,0-1.52-.29-1.52-1.82V97.08h-1Z" fill="#3b4351"/><path d="M511.37,99.92v.44c0,1,.12,2.3,1.26,2.3s1.2-1.22,1.2-1.69h1.43a2.48,2.48,0,0,1-2.65,2.72c-1.23,0-2.76-.36-2.76-3.85,0-2,.44-4.08,2.79-4.08,2.1,0,2.66,1.28,2.66,3.37v.79Zm2.42-1v-.41c0-1-.31-1.68-1.16-1.68s-1.26,1-1.26,1.93v.16Z" fill="#3b4351"/><path d="M519.8,103.69a1.72,1.72,0,0,1-1.71-1.08h0V106h-1.51V96H518v.92h0a1.8,1.8,0,0,1,1.7-1.12c1.72,0,2.42,1.47,2.42,4.07C522.12,103,520.85,103.69,519.8,103.69ZM519.25,97c-1,0-1.27,1-1.27,2.67,0,1.81.22,2.85,1.28,2.85.86,0,1.27-.65,1.27-2.73C520.53,98.05,520.32,97,519.25,97Z" fill="#3b4351"/><path d="M526.67,93.49h1.6v10h-1.6Z" fill="#3b4351"/><path d="M529.9,101.65h1.6v1.85h-1.6Z" fill="#3b4351"/><path d="M537.69,94.84h-2.38V93.49h6.31v1.35h-2.34v8.66h-1.59Z" fill="#3b4351"/><path d="M542.43,93.49H544v3.28l0,0a2.14,2.14,0,0,1,1.85-1c1.14,0,1.87.52,1.87,2v5.69H546.2V98.33c0-1-.28-1.36-1.05-1.36s-1.2.47-1.2,1.47v5.06h-1.52Z" fill="#3b4351"/><path d="M553,102.61h0a2.16,2.16,0,0,1-1.94,1.08c-1.12,0-1.87-.52-1.87-2.46V96h1.51v5.41c0,.84.36,1.12,1,1.12a1.17,1.17,0,0,0,1.23-1.26V96h1.52v7.54H553Z" fill="#3b4351"/><path d="M555.23,96h1V93.82h1.52V96H559v1.12h-1.23v4.5c0,.6.17.79.68.79a2.75,2.75,0,0,0,.55,0v1.12a4.64,4.64,0,0,1-1.22.13c-1,0-1.53-.29-1.53-1.82V97.08h-1Z" fill="#3b4351"/><path d="M559.86,96h1.43v.88h0a2.13,2.13,0,0,1,1.81-1.08,1.63,1.63,0,0,1,1.75,1.15,2.07,2.07,0,0,1,1.91-1.15c1.06,0,1.83.55,1.83,2v5.73h-1.51V98.33c0-1-.3-1.36-.91-1.36s-1.21.47-1.21,1.47v5.06h-1.51V98.33c0-1-.29-1.36-.92-1.36s-1.19.49-1.19,1.47v5.06h-1.52Z" fill="#3b4351"/><path d="M569.86,99.73c0-2.36.61-4,2.8-4s2.82,1.61,2.82,4-.73,4-2.82,4S569.86,102.08,569.86,99.73Zm2.8,2.84c1.11,0,1.3-.92,1.3-2.84,0-1.67-.19-2.85-1.3-2.85s-1.29,1.18-1.29,2.85C571.37,101.65,571.58,102.57,572.66,102.57Z" fill="#3b4351"/><path d="M579.88,98.16V98c0-.6-.21-1.16-1-1.16-.6,0-1.08.27-1.08,1s.27.83,1.07,1.11l1,.33a2,2,0,0,1,1.64,2.17c0,1.62-1.19,2.3-2.7,2.3-1.91,0-2.48-.88-2.48-2.34v-.28h1.34v.24c0,.88.3,1.35,1.18,1.35s1.23-.43,1.23-1.11a1.09,1.09,0,0,0-.82-1.11L578,100a2,2,0,0,1-1.61-2.17c0-1.42,1-2.08,2.58-2.08,1.92,0,2.35,1.12,2.35,2.06v.34Z" fill="#3b4351"/><path d="M583.9,99.92v.44c0,1,.13,2.3,1.26,2.3s1.21-1.22,1.21-1.69h1.43a2.48,2.48,0,0,1-2.65,2.72c-1.24,0-2.76-.36-2.76-3.85,0-2,.43-4.08,2.79-4.08,2.1,0,2.66,1.28,2.66,3.37v.79Zm2.42-1v-.41c0-1-.3-1.68-1.16-1.68s-1.26,1-1.26,1.93v.16Z" fill="#3b4351"/><path d="M592.47,93.49h1.6v10h-1.6Z" fill="#3b4351"/><path d="M595.7,101.65h1.6v1.85a1.87,1.87,0,0,1-1.6,2.15v-.81a1,1,0,0,0,.7-1.13v-.21h-.7Z" fill="#3b4351"/><path d="M602.21,97.08h-1.05V96h1.05v-.7c0-1.42.69-1.88,1.92-1.88.32,0,.6,0,.83,0v1.17h-.42c-.56,0-.81.21-.81.71V96H605v1.12h-1.23v6.42h-1.52Zm3.5-3.7h1.52v1.51h-1.52Zm0,2.58h1.52v7.54h-1.52Z" fill="#3b4351"/><path d="M608.75,96h1.51v1.18h0A1.88,1.88,0,0,1,612,95.76a.92.92,0,0,1,.37.06v1.54a2.3,2.3,0,0,0-.63-.08c-.69,0-1.52.3-1.52,1.71v4.51h-1.51Z" fill="#3b4351"/><path d="M616.41,98.16V98c0-.6-.21-1.16-1-1.16-.6,0-1.07.27-1.07,1s.26.83,1.06,1.11l1,.33a2,2,0,0,1,1.64,2.17c0,1.62-1.19,2.3-2.71,2.3-1.9,0-2.48-.88-2.48-2.34v-.28h1.35v.24c0,.88.29,1.35,1.17,1.35s1.24-.43,1.24-1.11a1.09,1.09,0,0,0-.83-1.11l-1.23-.43a2,2,0,0,1-1.61-2.17c0-1.42,1-2.08,2.57-2.08,1.92,0,2.36,1.12,2.36,2.06v.34Z" fill="#3b4351"/><path d="M618.45,96h1V93.82H621V96h1.23v1.12H621v4.5c0,.6.17.79.69.79a2.7,2.7,0,0,0,.54,0v1.12a4.64,4.64,0,0,1-1.22.13c-1,0-1.52-.29-1.52-1.82V97.08h-1Z" fill="#3b4351"/><path d="M626.47,93.49h1.6v4.36h0l3-4.36h1.75L630,97.71l3.19,5.79h-1.8L629,99l-.88,1.26v3.24h-1.6Z" fill="#3b4351"/><path d="M633.71,93.38h1.51v1.51h-1.51Zm0,2.58h1.51v7.54h-1.51Z" fill="#3b4351"/><path d="M636.75,96h1.43v.88h0a2.17,2.17,0,0,1,1.93-1.08c1.15,0,1.88.52,1.88,2v5.69h-1.51V98.33c0-1-.27-1.36-1-1.36-.62,0-1.21.46-1.21,1.47v5.06h-1.51Z" fill="#3b4351"/><path d="M645,104.14a1,1,0,0,0,1.09.9,1.25,1.25,0,0,0,1.27-1.42V102.4h0a1.83,1.83,0,0,1-1.71,1c-1.75,0-2.26-1.72-2.26-3.8,0-1.65.25-3.88,2.4-3.88a1.67,1.67,0,0,1,1.65,1.12h0V96h1.43v7.17c0,1.84-.79,2.94-2.82,2.94-2.24,0-2.49-1.31-2.49-1.93Zm1.06-1.91c1.18,0,1.3-1.48,1.3-2.67s-.15-2.59-1.2-2.59-1.28,1.12-1.28,2.52S644.94,102.23,646.06,102.23Z" fill="#3b4351"/><path d="M653.58,93.49h1.51v3.35h0a1.74,1.74,0,0,1,1.71-1.08c1.15,0,2.32.52,2.32,3.87,0,2.59-.71,4.06-2.46,4.06a1.62,1.62,0,0,1-1.66-1.12h0v.93h-1.43Zm2.7,9c1.07,0,1.28-1.08,1.28-2.79,0-2-.33-2.73-1.18-2.73-1.18,0-1.37,1-1.37,2.84C655,101.44,655.24,102.49,656.28,102.49Z" fill="#3b4351"/><path d="M664.16,102.61h0a2.15,2.15,0,0,1-1.93,1.08c-1.12,0-1.88-.52-1.88-2.46V96h1.51v5.41c0,.84.37,1.12,1,1.12a1.18,1.18,0,0,0,1.23-1.26V96h1.51v7.54h-1.43Z" fill="#3b4351"/><path d="M667,96h1.52v1.18h0a1.86,1.86,0,0,1,1.75-1.38.87.87,0,0,1,.36.06v1.54a2.18,2.18,0,0,0-.63-.08c-.69,0-1.51.3-1.51,1.71v4.51H667Z" fill="#3b4351"/><path d="M671.52,93.38H673v1.51h-1.52Zm0,2.58H673v7.54h-1.52Z" fill="#3b4351"/><path d="M675.87,99.92v.44c0,1,.12,2.3,1.26,2.3s1.2-1.22,1.2-1.69h1.43a2.48,2.48,0,0,1-2.65,2.72c-1.23,0-2.76-.36-2.76-3.85,0-2,.44-4.08,2.79-4.08,2.1,0,2.66,1.28,2.66,3.37v.79Zm2.42-1v-.41c0-1-.31-1.68-1.16-1.68s-1.26,1-1.26,1.93v.16Z" fill="#3b4351"/><path d="M684.9,102.57h0a1.61,1.61,0,0,1-1.65,1.12c-1.76,0-2.47-1.48-2.47-4.06,0-3.35,1.18-3.87,2.33-3.87a1.74,1.74,0,0,1,1.7,1.08h0V93.49h1.52v10H684.9ZM683.52,97c-.85,0-1.17.7-1.17,2.73,0,1.71.21,2.79,1.27,2.79s1.28-1,1.28-2.68C684.9,98,684.7,97,683.52,97Z" fill="#3b4351"/><path d="M691.21,93.38h1.51v1.51h-1.51Zm0,2.58h1.51v7.54h-1.51Z" fill="#3b4351"/><path d="M694.25,96h1.42v.88h.05a2.15,2.15,0,0,1,1.93-1.08c1.15,0,1.88.52,1.88,2v5.69H698V98.33c0-1-.26-1.36-1-1.36-.61,0-1.2.46-1.2,1.47v5.06h-1.51Z" fill="#3b4351"/></g></g><g id="Ageans"><g id="Title"><g id="small-2" data-name="small"><path d="M159.79,21.91v.21c0,1.81-.74,3.58-3.08,3.58-2.52,0-3.31-1.63-3.31-5.2s.79-5.2,3.32-5.2c2.85,0,3,2.09,3,3.14v.18h-1.6v-.17c0-.93-.28-2-1.43-1.94s-1.71.73-1.71,3.95.52,4,1.71,4c1.34,0,1.48-1.47,1.48-2.41v-.17Z"/><path d="M160.81,18h1.43v.89h0a2.15,2.15,0,0,1,1.93-1.08c1.15,0,1.88.52,1.88,2V25.5h-1.51V20.33c0-1-.27-1.36-1.05-1.36-.62,0-1.21.46-1.21,1.47V25.5h-1.51Z"/><path d="M167.25,21.73c0-2.35.62-4,2.8-4s2.82,1.61,2.82,4-.73,4-2.82,4S167.25,24.09,167.25,21.73Zm2.8,2.85c1.11,0,1.3-.93,1.3-2.85,0-1.67-.19-2.84-1.3-2.84s-1.29,1.17-1.29,2.84C168.76,23.65,169,24.58,170.05,24.58Z"/><path d="M177.28,20.16V20c0-.61-.21-1.17-1-1.17-.6,0-1.08.27-1.08,1s.27.82,1.07,1.1l1,.34a2,2,0,0,1,1.64,2.17c0,1.61-1.19,2.3-2.7,2.3-1.91,0-2.48-.89-2.48-2.34v-.28H175v.23c0,.89.3,1.35,1.18,1.35s1.23-.42,1.23-1.11a1.09,1.09,0,0,0-.82-1.1L175.38,22a2,2,0,0,1-1.61-2.17c0-1.41,1-2.07,2.58-2.07,1.92,0,2.35,1.12,2.35,2.06v.33Z"/><path d="M183.24,20.16V20c0-.61-.21-1.17-1-1.17-.61,0-1.08.27-1.08,1s.26.82,1.06,1.1l1,.34a2,2,0,0,1,1.64,2.17c0,1.61-1.19,2.3-2.71,2.3-1.9,0-2.48-.89-2.48-2.34v-.28H181v.23c0,.89.29,1.35,1.18,1.35s1.23-.42,1.23-1.11a1.09,1.09,0,0,0-.83-1.1L181.35,22a2,2,0,0,1-1.61-2.17c0-1.41,1-2.07,2.58-2.07,1.91,0,2.35,1.12,2.35,2.06v.33Z"/><path d="M189.81,24.62h-.05a2.15,2.15,0,0,1-1.93,1.08c-1.12,0-1.88-.52-1.88-2.47V18h1.52v5.41c0,.84.36,1.12,1,1.12a1.17,1.17,0,0,0,1.23-1.26V18h1.51V25.5h-1.42Z"/><path d="M195.94,20.16V20c0-.61-.21-1.17-1-1.17-.6,0-1.08.27-1.08,1s.27.82,1.07,1.1l1,.34a2,2,0,0,1,1.63,2.17c0,1.61-1.19,2.3-2.7,2.3-1.9,0-2.48-.89-2.48-2.34v-.28h1.35v.23c0,.89.29,1.35,1.17,1.35s1.24-.42,1.24-1.11a1.09,1.09,0,0,0-.83-1.1L194.05,22a2,2,0,0,1-1.61-2.17c0-1.41,1-2.07,2.57-2.07,1.92,0,2.36,1.12,2.36,2.06v.33Z"/><path d="M207,23.93c0,.28.16.53.39.53a.57.57,0,0,0,.25,0v1a1.58,1.58,0,0,1-.74.18c-.67,0-1.23-.26-1.28-1h0a2,2,0,0,1-1.88,1.11c-1.22,0-2-.66-2-2.12a2.08,2.08,0,0,1,1.75-2.37l1.17-.32c.55-.15.89-.31.89-1s-.24-1.12-1-1.12c-1,0-1.15.72-1.15,1.45h-1.43c0-1.61.66-2.48,2.65-2.48,1.33,0,2.4.52,2.4,1.85Zm-1.43-2.41a11.23,11.23,0,0,1-1.68.7,1.23,1.23,0,0,0-.62,1.22c0,.63.31,1.14.94,1.14.91,0,1.36-.68,1.36-1.8Z"/><path d="M210,26.14a1,1,0,0,0,1.09.9,1.24,1.24,0,0,0,1.27-1.41V24.41h0a1.81,1.81,0,0,1-1.71,1c-1.75,0-2.26-1.72-2.26-3.79,0-1.65.25-3.88,2.4-3.88a1.66,1.66,0,0,1,1.65,1.12h0V18h1.43v7.18c0,1.83-.79,2.94-2.82,2.94-2.24,0-2.49-1.32-2.49-1.94Zm1.06-1.9c1.18,0,1.3-1.49,1.3-2.68s-.15-2.59-1.2-2.59-1.28,1.12-1.28,2.52S210,24.24,211.07,24.24Z"/><path d="M220.17,23.93c0,.28.17.53.39.53a.59.59,0,0,0,.26,0v1a1.63,1.63,0,0,1-.75.18c-.67,0-1.23-.26-1.27-1h0a2,2,0,0,1-1.88,1.11c-1.21,0-2-.66-2-2.12a2.09,2.09,0,0,1,1.75-2.37l1.18-.32c.55-.15.88-.31.88-1s-.23-1.12-1-1.12c-1,0-1.15.72-1.15,1.45h-1.43c0-1.61.66-2.48,2.65-2.48,1.33,0,2.39.52,2.39,1.85Zm-1.43-2.41a11.23,11.23,0,0,1-1.68.7,1.24,1.24,0,0,0-.61,1.22c0,.63.3,1.14.93,1.14.91,0,1.36-.68,1.36-1.8Z"/><path d="M221.78,15.39h1.51V16.9h-1.51Zm0,2.57h1.51V25.5h-1.51Z"/><path d="M224.82,18h1.43v.89h0a2.15,2.15,0,0,1,1.93-1.08c1.15,0,1.88.52,1.88,2V25.5h-1.51V20.33c0-1-.27-1.36-1.06-1.36-.61,0-1.2.46-1.2,1.47V25.5h-1.51Z"/><path d="M238.76,24.58h0a1.6,1.6,0,0,1-1.65,1.12c-1.75,0-2.46-1.49-2.46-4.07,0-3.34,1.17-3.86,2.32-3.86a1.73,1.73,0,0,1,1.71,1.08h0V15.5h1.51v10h-1.43ZM237.39,19c-.85,0-1.18.7-1.18,2.73,0,1.71.21,2.79,1.28,2.79s1.27-1,1.27-2.67C238.76,20,238.57,19,237.39,19Z"/><path d="M243,21.93v.43c0,1,.12,2.3,1.26,2.3s1.2-1.22,1.2-1.68h1.43a2.48,2.48,0,0,1-2.65,2.72c-1.23,0-2.76-.37-2.76-3.86,0-2,.44-4.07,2.79-4.07,2.1,0,2.66,1.27,2.66,3.36v.8Zm2.42-1v-.4c0-1-.31-1.69-1.16-1.69s-1.26,1-1.26,1.94v.15Z"/><path d="M251.38,20.16V20c0-.61-.21-1.17-1-1.17-.6,0-1.08.27-1.08,1s.27.82,1.07,1.1l1,.34A2,2,0,0,1,253,23.4c0,1.61-1.19,2.3-2.7,2.3-1.91,0-2.48-.89-2.48-2.34v-.28h1.34v.23c0,.89.3,1.35,1.18,1.35s1.23-.42,1.23-1.11a1.09,1.09,0,0,0-.82-1.1L249.48,22a2,2,0,0,1-1.61-2.17c0-1.41,1-2.07,2.58-2.07,1.92,0,2.35,1.12,2.35,2.06v.33Z"/><path d="M253.42,18h1V15.82H256V18h1.23v1.12H256v4.5c0,.6.17.8.68.8a2.75,2.75,0,0,0,.55,0v1.12a5.17,5.17,0,0,1-1.22.12c-1,0-1.53-.29-1.53-1.82V19.08h-1Z"/><path d="M258,18h1.52v1.18h0a1.87,1.87,0,0,1,1.75-1.37.94.94,0,0,1,.37.05v1.54a2.24,2.24,0,0,0-.63-.08c-.69,0-1.51.31-1.51,1.71V25.5H258Z"/><path d="M262.1,21.73c0-2.35.61-4,2.8-4s2.82,1.61,2.82,4-.73,4-2.82,4S262.1,24.09,262.1,21.73Zm2.8,2.85c1.11,0,1.3-.93,1.3-2.85,0-1.67-.19-2.84-1.3-2.84s-1.29,1.17-1.29,2.84C263.61,23.65,263.82,24.58,264.9,24.58Z"/><path d="M269.8,18l1.3,5.66h0l1.2-5.66h1.59l-2.08,7.82c-.6,2.06-1.06,2.34-2.63,2.3a3.05,3.05,0,0,1-.6-.06v-1.2a2,2,0,0,0,.49.05c.52,0,.85-.1,1-.59l.2-.61L268.17,18Z"/><path d="M276,21.93v.43c0,1,.13,2.3,1.26,2.3s1.21-1.22,1.21-1.68h1.43a2.48,2.48,0,0,1-2.65,2.72c-1.23,0-2.76-.37-2.76-3.86,0-2,.43-4.07,2.79-4.07,2.1,0,2.66,1.27,2.66,3.36v.8Zm2.43-1v-.4c0-1-.31-1.69-1.17-1.69s-1.26,1-1.26,1.94v.15Z"/><path d="M285,24.58h0a1.62,1.62,0,0,1-1.66,1.12c-1.75,0-2.46-1.49-2.46-4.07,0-3.34,1.17-3.86,2.32-3.86a1.73,1.73,0,0,1,1.71,1.08h0V15.5h1.51v10H285ZM283.63,19c-.85,0-1.18.7-1.18,2.73,0,1.71.21,2.79,1.28,2.79s1.27-1,1.27-2.67C285,20,284.81,19,283.63,19Z"/><path d="M288,23.65h1.6V25.5H288Z"/><path d="M116.52,45.4v.26c0,1.21.54,1.83,1.63,1.83A1.44,1.44,0,0,0,119.67,46a1.67,1.67,0,0,0-1.43-1.77l-1.09-.38a2.67,2.67,0,0,1-2.09-2.75c0-1.82,1.25-2.83,3.11-2.83,2.56,0,2.83,1.6,2.83,2.64v.22h-1.6V41c0-.91-.39-1.44-1.4-1.44A1.27,1.27,0,0,0,116.66,41c0,.85.43,1.29,1.49,1.69l1.08.4a2.53,2.53,0,0,1,2,2.64c0,2.13-1.28,3-3.3,3a2.75,2.75,0,0,1-3-3.06V45.4Z"/><path d="M123.75,44.93v.43c0,1,.13,2.3,1.27,2.3s1.2-1.22,1.2-1.68h1.43A2.48,2.48,0,0,1,125,48.7c-1.23,0-2.76-.37-2.76-3.86,0-2,.44-4.07,2.79-4.07,2.1,0,2.66,1.27,2.66,3.36v.8Zm2.43-1v-.4c0-1-.31-1.69-1.16-1.69s-1.27,1-1.27,1.94v.15Z"/><path d="M128.26,41h1V38.82h1.51V41H132v1.12h-1.23v4.5c0,.6.17.8.69.8a2.7,2.7,0,0,0,.54,0v1.12a5.17,5.17,0,0,1-1.22.12c-1,0-1.52-.29-1.52-1.82V42.08h-1Z"/><path d="M132.15,41h1V38.82h1.51V41h1.23v1.12H134.7v4.5c0,.6.17.8.69.8a2.64,2.64,0,0,0,.54,0v1.12a5.08,5.08,0,0,1-1.21.12c-1,0-1.53-.29-1.53-1.82V42.08h-1Z"/><path d="M136.79,38.5h1.51v10h-1.51Z"/><path d="M141.13,44.93v.43c0,1,.12,2.3,1.26,2.3s1.2-1.22,1.2-1.68H145a2.48,2.48,0,0,1-2.65,2.72c-1.23,0-2.76-.37-2.76-3.86,0-2,.44-4.07,2.79-4.07,2.1,0,2.66,1.27,2.66,3.36v.8Zm2.42-1v-.4c0-1-.31-1.69-1.16-1.69s-1.26,1-1.26,1.94v.15Z"/><path d="M150.16,47.58h0a1.61,1.61,0,0,1-1.65,1.12c-1.75,0-2.47-1.49-2.47-4.07,0-3.34,1.18-3.86,2.33-3.86a1.74,1.74,0,0,1,1.71,1.08h0V38.5h1.51v10h-1.43ZM148.79,42c-.86,0-1.18.7-1.18,2.73,0,1.71.21,2.79,1.27,2.79s1.28-1.05,1.28-2.67C150.16,43,150,42,148.79,42Z"/><path d="M156.86,42.08h-1.05V41h1.05v-.7c0-1.41.69-1.87,1.92-1.87a6.67,6.67,0,0,1,.83,0v1.16h-.42c-.56,0-.81.21-.81.72V41h1.23v1.12h-1.23V48.5h-1.52Z"/><path d="M165.24,46.93c0,.28.17.53.39.53a.54.54,0,0,0,.25,0v1a1.58,1.58,0,0,1-.74.18c-.67,0-1.23-.26-1.28-1h0A2,2,0,0,1,162,48.7c-1.22,0-2-.66-2-2.12a2.08,2.08,0,0,1,1.75-2.37l1.18-.32c.54-.15.88-.31.88-1s-.24-1.12-1-1.12c-1,0-1.15.72-1.15,1.45h-1.43c0-1.61.66-2.48,2.65-2.48,1.33,0,2.4.52,2.4,1.85Zm-1.43-2.41a11.23,11.23,0,0,1-1.68.7,1.23,1.23,0,0,0-.62,1.22c0,.63.31,1.14.94,1.14.91,0,1.36-.68,1.36-1.8Z"/><path d="M166.77,41h1.52v1.18h0a1.85,1.85,0,0,1,1.75-1.37.89.89,0,0,1,.36,0v1.54a2.18,2.18,0,0,0-.63-.08c-.69,0-1.51.31-1.51,1.71V48.5h-1.52Z"/><path d="M171.39,41h1.43v.89h.05a2.08,2.08,0,0,1,1.8-1.08,1.63,1.63,0,0,1,1.75,1.15,2.07,2.07,0,0,1,1.91-1.15c1.06,0,1.83.54,1.83,2V48.5h-1.51V43.33c0-1-.29-1.36-.91-1.36s-1.2.48-1.2,1.47V48.5H175V43.33c0-1-.29-1.36-.92-1.36s-1.19.49-1.19,1.47V48.5h-1.52Z"/><path d="M181.75,38.39h1.52V39.9h-1.52Zm0,2.57h1.52V48.5h-1.52Z"/><path d="M184.79,41h1.43v.89h0a2.16,2.16,0,0,1,1.94-1.08c1.14,0,1.87.52,1.87,2V48.5h-1.51V43.33c0-1-.27-1.36-1.05-1.36-.62,0-1.2.46-1.2,1.47V48.5h-1.52Z"/><path d="M193,49.14a1,1,0,0,0,1.09.9,1.25,1.25,0,0,0,1.28-1.41V47.41h0a1.81,1.81,0,0,1-1.71,1c-1.75,0-2.26-1.72-2.26-3.79,0-1.65.26-3.88,2.4-3.88a1.65,1.65,0,0,1,1.65,1.12h0V41h1.43v7.18c0,1.83-.79,2.94-2.82,2.94-2.24,0-2.49-1.32-2.49-1.94Zm1.06-1.9c1.18,0,1.31-1.49,1.31-2.68S195.25,42,194.2,42s-1.27,1.12-1.27,2.52S193,47.24,194.1,47.24Z"/><path d="M206.7,45.75c-.11,1.81-.7,3-2.57,3-2.19,0-2.8-1.61-2.8-4s.61-4,2.8-4a2.43,2.43,0,0,1,2.59,2.7h-1.51c0-.7-.19-1.62-1.08-1.58-1.08,0-1.29,1.17-1.29,2.84s.21,2.85,1.29,2.85c.84,0,1.15-.69,1.15-1.83Z"/><path d="M207.54,44.73c0-2.35.62-4,2.8-4s2.82,1.61,2.82,4-.73,4-2.82,4S207.54,47.09,207.54,44.73Zm2.8,2.85c1.11,0,1.31-.93,1.31-2.85,0-1.67-.2-2.84-1.31-2.84s-1.29,1.17-1.29,2.84C209.05,46.65,209.26,47.58,210.34,47.58Z"/><path d="M214.39,41h1.43v.89h0a2.09,2.09,0,0,1,1.8-1.08,1.65,1.65,0,0,1,1.76,1.15,2,2,0,0,1,1.9-1.15c1.07,0,1.84.54,1.84,2V48.5h-1.52V43.33c0-1-.29-1.36-.91-1.36s-1.2.48-1.2,1.47V48.5H218V43.33c0-1-.3-1.36-.93-1.36s-1.19.49-1.19,1.47V48.5h-1.51Z"/><path d="M224.75,41h1.43v.89h0a2.09,2.09,0,0,1,1.8-1.08,1.65,1.65,0,0,1,1.76,1.15,2,2,0,0,1,1.9-1.15c1.07,0,1.84.54,1.84,2V48.5H232V43.33c0-1-.29-1.36-.91-1.36s-1.2.48-1.2,1.47V48.5h-1.52V43.33c0-1-.29-1.36-.92-1.36s-1.19.49-1.19,1.47V48.5h-1.51Z"/><path d="M238.89,47.62h0a2.18,2.18,0,0,1-1.94,1.08c-1.12,0-1.87-.52-1.87-2.47V41h1.51v5.41c0,.84.36,1.12,1,1.12a1.18,1.18,0,0,0,1.24-1.26V41h1.51V48.5h-1.43Z"/><path d="M241.77,41h1.43v.89h0a2.15,2.15,0,0,1,1.93-1.08c1.15,0,1.88.52,1.88,2V48.5h-1.51V43.33c0-1-.27-1.36-1-1.36-.62,0-1.21.46-1.21,1.47V48.5h-1.51Z"/><path d="M248.57,38.39h1.52V39.9h-1.52Zm0,2.57h1.52V48.5h-1.52Z"/><path d="M250.94,41h1V38.82h1.51V41h1.23v1.12h-1.23v4.5c0,.6.17.8.69.8a2.7,2.7,0,0,0,.54,0v1.12a5.17,5.17,0,0,1-1.22.12c-1,0-1.52-.29-1.52-1.82V42.08h-1Z"/><path d="M255.57,38.39h1.52V39.9h-1.52Zm0,2.57h1.52V48.5h-1.52Z"/><path d="M259.91,44.93v.43c0,1,.13,2.3,1.27,2.3s1.2-1.22,1.2-1.68h1.43a2.48,2.48,0,0,1-2.65,2.72c-1.23,0-2.76-.37-2.76-3.86,0-2,.44-4.07,2.79-4.07,2.1,0,2.66,1.27,2.66,3.36v.8Zm2.43-1v-.4c0-1-.31-1.69-1.16-1.69s-1.27,1-1.27,1.94v.15Z"/><path d="M268.34,43.16V43c0-.61-.21-1.17-1-1.17-.6,0-1.08.27-1.08,1s.27.82,1.07,1.1l1,.34a2,2,0,0,1,1.64,2.17c0,1.61-1.19,2.3-2.7,2.3-1.91,0-2.48-.89-2.48-2.34v-.28h1.34v.23c0,.89.3,1.35,1.18,1.35s1.23-.42,1.23-1.11a1.09,1.09,0,0,0-.82-1.1L266.45,45a2,2,0,0,1-1.61-2.17c0-1.41,1-2.07,2.58-2.07,1.92,0,2.35,1.12,2.35,2.06v.33Z"/><path d="M278.27,47.62h0a2.17,2.17,0,0,1-1.93,1.08c-1.13,0-1.88-.52-1.88-2.47V41h1.51v5.41c0,.84.37,1.12,1,1.12a1.18,1.18,0,0,0,1.24-1.26V41h1.51V48.5h-1.43Z"/><path d="M281.15,41h1.43v.89h0a2.16,2.16,0,0,1,1.94-1.08c1.14,0,1.87.52,1.87,2V48.5h-1.51V43.33c0-1-.27-1.36-1.05-1.36-.62,0-1.21.46-1.21,1.47V48.5h-1.51Z"/><path d="M291.74,47.58h0a1.61,1.61,0,0,1-1.65,1.12c-1.75,0-2.47-1.49-2.47-4.07,0-3.34,1.18-3.86,2.33-3.86a1.74,1.74,0,0,1,1.71,1.08h0V38.5h1.52v10h-1.43ZM290.36,42c-.85,0-1.17.7-1.17,2.73,0,1.71.21,2.79,1.27,2.79s1.28-1.05,1.28-2.67C291.74,43,291.54,42,290.36,42Z"/><path d="M295.92,44.93v.43c0,1,.13,2.3,1.26,2.3s1.21-1.22,1.21-1.68h1.43a2.48,2.48,0,0,1-2.65,2.72c-1.23,0-2.76-.37-2.76-3.86,0-2,.43-4.07,2.79-4.07,2.1,0,2.66,1.27,2.66,3.36v.8Zm2.43-1v-.4c0-1-.31-1.69-1.17-1.69s-1.26,1-1.26,1.94v.15Z"/><path d="M301.1,41h1.51v1.18h0a1.87,1.87,0,0,1,1.75-1.37.94.94,0,0,1,.37,0v1.54a2.24,2.24,0,0,0-.63-.08c-.69,0-1.52.31-1.52,1.71V48.5H301.1Z"/><path d="M308.87,41h1.51v1.18h0a1.87,1.87,0,0,1,1.75-1.37.94.94,0,0,1,.37,0v1.54a2.24,2.24,0,0,0-.63-.08c-.69,0-1.52.31-1.52,1.71V48.5h-1.51Z"/><path d="M317.13,47.62h0a2.17,2.17,0,0,1-1.93,1.08c-1.12,0-1.88-.52-1.88-2.47V41h1.51v5.41c0,.84.37,1.12,1,1.12a1.17,1.17,0,0,0,1.23-1.26V41h1.51V48.5h-1.43Z"/><path d="M320.08,38.5h1.52v10h-1.52Z"/><path d="M324.43,44.93v.43c0,1,.12,2.3,1.26,2.3s1.2-1.22,1.2-1.68h1.43a2.48,2.48,0,0,1-2.65,2.72c-1.23,0-2.76-.37-2.76-3.86,0-2,.44-4.07,2.79-4.07,2.1,0,2.66,1.27,2.66,3.36v.8Zm2.42-1v-.4c0-1-.31-1.69-1.16-1.69s-1.26,1-1.26,1.94v.15Z"/><path d="M111.81,67.73c0-2.35.62-4,2.8-4s2.82,1.61,2.82,4-.73,4-2.82,4S111.81,70.09,111.81,67.73Zm2.8,2.85c1.11,0,1.31-.93,1.31-2.85,0-1.67-.2-2.84-1.31-2.84s-1.29,1.17-1.29,2.84C113.32,69.65,113.53,70.58,114.61,70.58Z"/><path d="M119.05,65.08h-1V64h1v-.7c0-1.41.69-1.87,1.92-1.87a6.4,6.4,0,0,1,.82,0v1.16h-.42c-.56,0-.81.21-.81.72V64h1.23v1.12h-1.23V71.5h-1.51Z"/><path d="M129.69,70.58h0A1.6,1.6,0,0,1,128,71.7c-1.75,0-2.47-1.49-2.47-4.07,0-3.34,1.18-3.86,2.33-3.86a1.73,1.73,0,0,1,1.71,1.08h0V61.5h1.51v10h-1.43ZM128.32,65c-.86,0-1.18.7-1.18,2.73,0,1.71.21,2.79,1.28,2.79s1.27-1,1.27-2.67C129.69,66,129.5,65,128.32,65Z"/><path d="M133.88,67.93v.43c0,1,.12,2.3,1.26,2.3s1.2-1.22,1.2-1.68h1.43a2.48,2.48,0,0,1-2.65,2.72c-1.23,0-2.76-.37-2.76-3.86,0-2,.44-4.07,2.79-4.07,2.1,0,2.66,1.27,2.66,3.36v.8Zm2.42-1v-.4c0-1-.31-1.69-1.16-1.69s-1.26,1-1.26,1.94v.15Z"/><path d="M142.3,66.16V66c0-.61-.21-1.17-1-1.17-.6,0-1.08.27-1.08,1s.27.82,1.07,1.1l1,.34a2,2,0,0,1,1.64,2.17c0,1.61-1.19,2.3-2.7,2.3-1.91,0-2.48-.89-2.48-2.34v-.28h1.34v.23c0,.89.3,1.35,1.18,1.35s1.23-.42,1.23-1.11a1.09,1.09,0,0,0-.82-1.1L140.41,68a2,2,0,0,1-1.61-2.17c0-1.41,1-2.07,2.58-2.07,1.92,0,2.35,1.12,2.35,2.06v.33Z"/><path d="M148.27,71.7a1.74,1.74,0,0,1-1.71-1.08h0V74H145V64h1.43v.93h0a1.78,1.78,0,0,1,1.69-1.12c1.72,0,2.42,1.47,2.42,4.06C150.59,71,149.32,71.7,148.27,71.7ZM147.72,65c-1,0-1.27,1-1.27,2.68,0,1.81.22,2.84,1.29,2.84.85,0,1.26-.64,1.26-2.73C149,66.05,148.79,65,147.72,65Z"/><path d="M151.46,67.73c0-2.35.62-4,2.8-4s2.82,1.61,2.82,4-.73,4-2.82,4S151.46,70.09,151.46,67.73Zm2.8,2.85c1.11,0,1.3-.93,1.3-2.85,0-1.67-.19-2.84-1.3-2.84S153,66.06,153,67.73C153,69.65,153.18,70.58,154.26,70.58Z"/><path d="M157.56,64h1V61.82h1.51V64h1.23v1.12h-1.23v4.5c0,.6.17.8.69.8a2.7,2.7,0,0,0,.54,0v1.12a5.08,5.08,0,0,1-1.21.12c-1,0-1.53-.29-1.53-1.82V65.08h-1Z"/><path d="M167.21,68.75c-.11,1.81-.7,3-2.58,3-2.18,0-2.8-1.61-2.8-4s.62-4,2.8-4a2.44,2.44,0,0,1,2.6,2.7h-1.52c0-.7-.18-1.62-1.08-1.58-1.07,0-1.28,1.17-1.28,2.84s.21,2.85,1.28,2.85c.84,0,1.15-.69,1.15-1.83Z"/><path d="M171.77,64h1.43v.89h0a2.11,2.11,0,0,1,1.81-1.08,1.63,1.63,0,0,1,1.75,1.15,2.07,2.07,0,0,1,1.91-1.15c1.06,0,1.83.54,1.83,2V71.5H179V66.33c0-1-.3-1.36-.91-1.36s-1.21.48-1.21,1.47V71.5H175.4V66.33c0-1-.29-1.36-.92-1.36s-1.19.49-1.19,1.47V71.5h-1.52Z"/><path d="M181.77,67.73c0-2.35.61-4,2.8-4s2.82,1.61,2.82,4-.73,4-2.82,4S181.77,70.09,181.77,67.73Zm2.8,2.85c1.11,0,1.3-.93,1.3-2.85,0-1.67-.19-2.84-1.3-2.84s-1.29,1.17-1.29,2.84C183.28,69.65,183.49,70.58,184.57,70.58Z"/><path d="M188.54,64H190v.89H190A2.13,2.13,0,0,1,192,63.77c1.15,0,1.88.52,1.88,2V71.5h-1.52V66.33c0-1-.26-1.36-1.05-1.36-.61,0-1.2.46-1.2,1.47V71.5h-1.52Z"/><path d="M200.22,69.93c0,.28.17.53.4.53a.57.57,0,0,0,.25,0v1a1.63,1.63,0,0,1-.75.18c-.67,0-1.23-.26-1.27-1h0A1.94,1.94,0,0,1,197,71.7c-1.22,0-2-.66-2-2.12a2.09,2.09,0,0,1,1.75-2.37l1.18-.32c.55-.15.88-.31.88-1s-.23-1.12-1-1.12c-1,0-1.15.72-1.15,1.45h-1.43c0-1.61.66-2.48,2.65-2.48,1.33,0,2.39.52,2.39,1.85Zm-1.43-2.41a10.81,10.81,0,0,1-1.68.7,1.24,1.24,0,0,0-.61,1.22c0,.63.31,1.14.94,1.14.91,0,1.35-.68,1.35-1.8Z"/><path d="M201.76,64h1.51v1.18h0a1.87,1.87,0,0,1,1.75-1.37.94.94,0,0,1,.37,0v1.54a2.3,2.3,0,0,0-.63-.08c-.69,0-1.52.31-1.52,1.71V71.5h-1.51Z"/><path d="M211.17,68.75c-.11,1.81-.7,3-2.58,3-2.18,0-2.8-1.61-2.8-4s.62-4,2.8-4a2.43,2.43,0,0,1,2.59,2.7h-1.51c0-.7-.18-1.62-1.08-1.58-1.08,0-1.29,1.17-1.29,2.84s.21,2.85,1.29,2.85c.84,0,1.15-.69,1.15-1.83Z"/><path d="M212.22,61.5h1.51v3.28l0,0a2.18,2.18,0,0,1,1.85-1c1.15,0,1.88.52,1.88,2V71.5H216V66.33c0-1-.28-1.36-1.06-1.36-.61,0-1.2.48-1.2,1.47V71.5h-1.51Z"/><path d="M221.79,64h1.57l1,5.94h0L225.56,64h1.71l1.12,5.94h0l1-5.94H231l-1.72,7.54h-1.7l-1.18-5.86h0l-1.08,5.86H223.5Z"/><path d="M232,61.39h1.51V62.9H232ZM232,64h1.51V71.5H232Z"/><path d="M234.34,64h1V61.82h1.52V64h1.23v1.12h-1.23v4.5c0,.6.16.8.68.8a2.75,2.75,0,0,0,.55,0v1.12a5.17,5.17,0,0,1-1.22.12c-1,0-1.53-.29-1.53-1.82V65.08h-1Z"/><path d="M238.9,61.5h1.51v3.28l.05,0a2.15,2.15,0,0,1,1.85-1c1.14,0,1.87.52,1.87,2V71.5h-1.51V66.33c0-1-.28-1.36-1-1.36s-1.21.48-1.21,1.47V71.5H238.9Z"/><path d="M249.06,61.5h1.52v10h-1.52Z"/><path d="M256,70.62h0A2.17,2.17,0,0,1,254,71.7c-1.12,0-1.88-.52-1.88-2.47V64h1.52v5.41c0,.84.36,1.12,1,1.12a1.17,1.17,0,0,0,1.23-1.26V64h1.51V71.5H256Z"/><path d="M260.21,67.59,258.26,64h1.65l1.18,2.5,1.23-2.5H264l-2,3.63,2,3.91h-1.64l-1.31-2.79-1.32,2.79h-1.61Z"/><path d="M268.65,70.62h0a2.17,2.17,0,0,1-1.93,1.08c-1.12,0-1.88-.52-1.88-2.47V64h1.51v5.41c0,.84.37,1.12,1,1.12a1.18,1.18,0,0,0,1.23-1.26V64h1.51V71.5h-1.43Z"/><path d="M271.53,64h1.52v1.18h0a1.87,1.87,0,0,1,1.76-1.37.89.89,0,0,1,.36,0v1.54a2.18,2.18,0,0,0-.63-.08c-.69,0-1.51.31-1.51,1.71V71.5h-1.52Z"/><path d="M276,61.39h1.52V62.9H276ZM276,64h1.52V71.5H276Z"/><path d="M278.76,67.73c0-2.35.61-4,2.8-4s2.81,1.61,2.81,4-.72,4-2.81,4S278.76,70.09,278.76,67.73Zm2.8,2.85c1.11,0,1.3-.93,1.3-2.85,0-1.67-.19-2.84-1.3-2.84s-1.29,1.17-1.29,2.84C280.27,69.65,280.48,70.58,281.56,70.58Z"/><path d="M289.39,70.62h-.05a2.15,2.15,0,0,1-1.93,1.08c-1.12,0-1.88-.52-1.88-2.47V64h1.52v5.41c0,.84.36,1.12,1,1.12a1.17,1.17,0,0,0,1.23-1.26V64h1.51V71.5h-1.42Z"/><path d="M295.52,66.16V66c0-.61-.21-1.17-1-1.17-.6,0-1.08.27-1.08,1s.27.82,1.07,1.1l1,.34a2,2,0,0,1,1.63,2.17c0,1.61-1.19,2.3-2.7,2.3-1.9,0-2.48-.89-2.48-2.34v-.28h1.35v.23c0,.89.29,1.35,1.17,1.35s1.23-.42,1.23-1.11a1.08,1.08,0,0,0-.82-1.1L293.63,68A2,2,0,0,1,292,65.84c0-1.41,1-2.07,2.57-2.07,1.92,0,2.36,1.12,2.36,2.06v.33Z"/><path d="M306.68,68.75c-.12,1.81-.7,3-2.58,3-2.19,0-2.8-1.61-2.8-4s.61-4,2.8-4a2.43,2.43,0,0,1,2.59,2.7h-1.51c0-.7-.18-1.62-1.08-1.58-1.08,0-1.29,1.17-1.29,2.84s.21,2.85,1.29,2.85c.84,0,1.15-.69,1.15-1.83Z"/><path d="M307.51,67.73c0-2.35.62-4,2.8-4s2.82,1.61,2.82,4-.73,4-2.82,4S307.51,70.09,307.51,67.73Zm2.8,2.85c1.11,0,1.31-.93,1.31-2.85,0-1.67-.2-2.84-1.31-2.84S309,66.06,309,67.73C309,69.65,309.24,70.58,310.31,70.58Z"/><path d="M318.14,70.62h0a2.17,2.17,0,0,1-1.93,1.08c-1.12,0-1.88-.52-1.88-2.47V64h1.51v5.41c0,.84.37,1.12,1,1.12a1.18,1.18,0,0,0,1.24-1.26V64h1.51V71.5h-1.43Z"/><path d="M321,64h1.52v1.18h0a1.87,1.87,0,0,1,1.75-1.37.94.94,0,0,1,.37,0v1.54a2.24,2.24,0,0,0-.63-.08c-.69,0-1.51.31-1.51,1.71V71.5H321Z"/><path d="M324.76,64h1V61.82h1.51V64h1.23v1.12h-1.23v4.5c0,.6.17.8.69.8a2.7,2.7,0,0,0,.54,0v1.12a5.17,5.17,0,0,1-1.22.12c-1,0-1.52-.29-1.52-1.82V65.08h-1Z"/><path d="M329.48,69.65h1.6V71.5h-1.6Z"/><path d="M126,84.5h3.16c1.92,0,2.76,1.2,2.76,2.91a2.71,2.71,0,0,1-2.93,3h-1.4V94.5H126Zm1.59,4.66h1.14a1.51,1.51,0,0,0,1.6-1.72c0-1.08-.44-1.74-1.71-1.74h-1Z"/><path d="M137.8,92.93c0,.28.17.53.4.53a.57.57,0,0,0,.25,0v1a1.58,1.58,0,0,1-.74.18c-.68,0-1.24-.26-1.28-1h0a1.94,1.94,0,0,1-1.87,1.11c-1.22,0-2-.66-2-2.12a2.09,2.09,0,0,1,1.76-2.37l1.17-.32c.55-.15.88-.31.88-1s-.23-1.12-1-1.12c-1,0-1.15.72-1.15,1.45h-1.43c0-1.61.66-2.48,2.65-2.48,1.33,0,2.39.52,2.39,1.85Zm-1.43-2.41a10.81,10.81,0,0,1-1.68.7,1.24,1.24,0,0,0-.61,1.22c0,.63.31,1.14.94,1.14.91,0,1.35-.68,1.35-1.8Z"/><path d="M139.41,84.5h1.51v10h-1.51Z"/><path d="M147.39,92.93c0,.28.17.53.4.53a.57.57,0,0,0,.25,0v1a1.58,1.58,0,0,1-.74.18c-.68,0-1.24-.26-1.28-1h0a1.94,1.94,0,0,1-1.87,1.11c-1.22,0-2-.66-2-2.12a2.09,2.09,0,0,1,1.76-2.37l1.17-.32c.55-.15.88-.31.88-1s-.23-1.12-1-1.12c-1,0-1.15.72-1.15,1.45h-1.43c0-1.61.66-2.48,2.65-2.48,1.33,0,2.39.52,2.39,1.85ZM146,90.52a10.81,10.81,0,0,1-1.68.7,1.24,1.24,0,0,0-.61,1.22c0,.63.31,1.14.94,1.14.91,0,1.35-.68,1.35-1.8Z"/><path d="M154,91.75c-.12,1.81-.7,3-2.58,3-2.19,0-2.8-1.61-2.8-4s.61-4,2.8-4a2.43,2.43,0,0,1,2.59,2.7h-1.51c0-.7-.19-1.62-1.08-1.58-1.08,0-1.29,1.17-1.29,2.84s.21,2.85,1.29,2.85c.84,0,1.15-.69,1.15-1.83Z"/><path d="M156.45,90.93v.43c0,1,.13,2.3,1.26,2.3s1.2-1.22,1.2-1.68h1.43a2.48,2.48,0,0,1-2.64,2.72c-1.24,0-2.76-.37-2.76-3.86,0-2,.43-4.07,2.78-4.07,2.11,0,2.67,1.27,2.67,3.36v.8Zm2.42-1v-.4c0-1-.31-1.69-1.16-1.69s-1.26,1-1.26,1.94v.15Z"/><path d="M164.88,89.16V89c0-.61-.21-1.17-1-1.17-.6,0-1.07.27-1.07,1s.26.82,1.06,1.1l1,.34a2,2,0,0,1,1.64,2.17c0,1.61-1.2,2.3-2.71,2.3-1.9,0-2.48-.89-2.48-2.34v-.28h1.35v.23c0,.89.29,1.35,1.17,1.35s1.24-.42,1.24-1.11a1.09,1.09,0,0,0-.83-1.1L163,91a2,2,0,0,1-1.61-2.17c0-1.41,1-2.07,2.57-2.07,1.92,0,2.36,1.12,2.36,2.06v.33Z"/><path d="M170.66,90.73c0-2.35.61-4,2.8-4s2.82,1.61,2.82,4-.73,4-2.82,4S170.66,93.09,170.66,90.73Zm2.8,2.85c1.11,0,1.3-.93,1.3-2.85,0-1.67-.19-2.84-1.3-2.84s-1.29,1.17-1.29,2.84C172.17,92.65,172.38,93.58,173.46,93.58Z"/><path d="M177.9,88.08h-1.05V87h1.05v-.7c0-1.41.68-1.87,1.92-1.87a6.4,6.4,0,0,1,.82,0v1.16h-.42c-.56,0-.81.21-.81.72V87h1.23v1.12h-1.23V94.5H177.9Z"/><path d="M186.16,84.5h2l2.64,10h-1.67l-.62-2.45h-2.93L185,94.5h-1.67Zm2.13,6.27-1.15-4.93h0l-1.19,4.93Z"/><path d="M193,95.14A1,1,0,0,0,194,96a1.24,1.24,0,0,0,1.27-1.41V93.41h0a1.81,1.81,0,0,1-1.71,1c-1.75,0-2.26-1.72-2.26-3.79,0-1.65.25-3.88,2.4-3.88a1.66,1.66,0,0,1,1.65,1.12h0V87h1.43v7.18c0,1.83-.79,2.94-2.82,2.94-2.24,0-2.49-1.32-2.49-1.94Zm1.06-1.9c1.18,0,1.3-1.49,1.3-2.68s-.15-2.59-1.2-2.59-1.27,1.12-1.27,2.52S192.89,93.24,194,93.24Z"/><path d="M198.17,84.5h1.51v3.28l0,0a2.18,2.18,0,0,1,1.85-1c1.15,0,1.88.52,1.88,2V94.5h-1.51V89.33c0-1-.28-1.36-1.05-1.36-.62,0-1.21.48-1.21,1.47V94.5h-1.51Z"/><path d="M205,84.39h1.51V85.9H205ZM205,87h1.51V94.5H205Z"/><path d="M213,92.93c0,.28.17.53.4.53a.57.57,0,0,0,.25,0v1a1.58,1.58,0,0,1-.74.18c-.68,0-1.24-.26-1.28-1h0a1.94,1.94,0,0,1-1.87,1.11c-1.22,0-2-.66-2-2.12a2.08,2.08,0,0,1,1.75-2.37l1.17-.32c.55-.15.89-.31.89-1s-.24-1.12-1-1.12c-1,0-1.15.72-1.15,1.45h-1.43c0-1.61.66-2.48,2.65-2.48,1.33,0,2.39.52,2.39,1.85Zm-1.42-2.41a11.23,11.23,0,0,1-1.68.7,1.23,1.23,0,0,0-.62,1.22c0,.63.31,1.14.94,1.14.91,0,1.36-.68,1.36-1.8Z"/><path d="M219.07,85.84h-2.38V84.5H223v1.34h-2.34V94.5h-1.6Z"/><path d="M222.78,87h1.51v1.18h0a1.87,1.87,0,0,1,1.75-1.37.94.94,0,0,1,.37,0v1.54a2.3,2.3,0,0,0-.63-.08c-.69,0-1.52.31-1.52,1.71V94.5h-1.51Z"/><path d="M227.26,84.39h1.51V85.9h-1.51Zm0,2.57h1.51V94.5h-1.51Z"/><path d="M235.24,92.93c0,.28.17.53.39.53a.59.59,0,0,0,.26,0v1a1.63,1.63,0,0,1-.75.18c-.67,0-1.23-.26-1.27-1h0A2,2,0,0,1,232,94.7c-1.21,0-2-.66-2-2.12a2.09,2.09,0,0,1,1.75-2.37l1.18-.32c.55-.15.88-.31.88-1s-.23-1.12-1-1.12c-1,0-1.15.72-1.15,1.45H230.2c0-1.61.66-2.48,2.65-2.48,1.33,0,2.39.52,2.39,1.85Zm-1.43-2.41a10.81,10.81,0,0,1-1.68.7,1.24,1.24,0,0,0-.61,1.22c0,.63.3,1.14.93,1.14.92,0,1.36-.68,1.36-1.8Z"/><path d="M240.63,93.58h0A1.6,1.6,0,0,1,239,94.7c-1.75,0-2.46-1.49-2.46-4.07,0-3.34,1.17-3.86,2.32-3.86a1.73,1.73,0,0,1,1.71,1.08h0V84.5h1.51v10h-1.43ZM239.26,88c-.86,0-1.18.7-1.18,2.73,0,1.71.21,2.79,1.28,2.79s1.27-1,1.27-2.67C240.63,89,240.44,88,239.26,88Z"/><path d="M248.46,92.93c0,.28.17.53.39.53a.54.54,0,0,0,.25,0v1a1.58,1.58,0,0,1-.74.18c-.67,0-1.23-.26-1.27-1h0a2,2,0,0,1-1.88,1.11c-1.22,0-2-.66-2-2.12A2.08,2.08,0,0,1,245,90.21l1.18-.32c.54-.15.88-.31.88-1s-.24-1.12-1-1.12c-1,0-1.15.72-1.15,1.45h-1.42c0-1.61.65-2.48,2.64-2.48,1.33,0,2.4.52,2.4,1.85ZM247,90.52a11.23,11.23,0,0,1-1.68.7,1.23,1.23,0,0,0-.62,1.22c0,.63.31,1.14.94,1.14.91,0,1.36-.68,1.36-1.8Z"/><path d="M258.3,92.93c0,.28.17.53.39.53a.54.54,0,0,0,.25,0v1a1.55,1.55,0,0,1-.74.18c-.67,0-1.23-.26-1.27-1h0A2,2,0,0,1,255,94.7c-1.22,0-2-.66-2-2.12a2.08,2.08,0,0,1,1.75-2.37l1.18-.32c.55-.15.88-.31.88-1s-.24-1.12-1-1.12c-1,0-1.14.72-1.14,1.45h-1.43c0-1.61.66-2.48,2.64-2.48,1.34,0,2.4.52,2.4,1.85Zm-1.43-2.41a11.23,11.23,0,0,1-1.68.7,1.25,1.25,0,0,0-.62,1.22c0,.63.31,1.14.94,1.14.91,0,1.36-.68,1.36-1.8Z"/><path d="M259.84,87h1.43v.89h0a2.15,2.15,0,0,1,1.93-1.08c1.15,0,1.88.52,1.88,2V94.5h-1.51V89.33c0-1-.27-1.36-1.06-1.36-.61,0-1.2.46-1.2,1.47V94.5h-1.51Z"/><path d="M270.42,93.58h0a1.6,1.6,0,0,1-1.65,1.12c-1.75,0-2.46-1.49-2.46-4.07,0-3.34,1.17-3.86,2.32-3.86a1.73,1.73,0,0,1,1.71,1.08h0V84.5h1.51v10h-1.43ZM269.05,88c-.85,0-1.18.7-1.18,2.73,0,1.71.21,2.79,1.28,2.79s1.27-1,1.27-2.67C270.42,89,270.23,88,269.05,88Z"/><path d="M276.76,84.5h3.17c1.92,0,2.76,1.2,2.76,2.91a2.72,2.72,0,0,1-2.93,3h-1.4V94.5h-1.6Zm1.6,4.66h1.13a1.5,1.5,0,0,0,1.6-1.72c0-1.08-.43-1.74-1.71-1.74h-1Z"/><path d="M288.61,92.93c0,.28.17.53.39.53a.54.54,0,0,0,.25,0v1a1.55,1.55,0,0,1-.74.18c-.67,0-1.23-.26-1.27-1h0a2,2,0,0,1-1.88,1.11c-1.22,0-2-.66-2-2.12a2.08,2.08,0,0,1,1.75-2.37l1.18-.32c.54-.15.88-.31.88-1s-.24-1.12-1-1.12c-1,0-1.14.72-1.14,1.45h-1.43c0-1.61.66-2.48,2.64-2.48,1.33,0,2.4.52,2.4,1.85Zm-1.43-2.41a11.23,11.23,0,0,1-1.68.7,1.25,1.25,0,0,0-.62,1.22c0,.63.31,1.14.94,1.14.91,0,1.36-.68,1.36-1.8Z"/><path d="M291.45,90.93v.43c0,1,.13,2.3,1.26,2.3s1.2-1.22,1.2-1.68h1.43a2.48,2.48,0,0,1-2.64,2.72c-1.24,0-2.76-.37-2.76-3.86,0-2,.43-4.07,2.78-4.07,2.11,0,2.67,1.27,2.67,3.36v.8Zm2.42-1v-.4c0-1-.31-1.69-1.16-1.69s-1.26,1-1.26,1.94v.15Z"/><path d="M299.88,89.16V89c0-.61-.21-1.17-1-1.17-.6,0-1.07.27-1.07,1s.26.82,1.06,1.1l1,.34a2,2,0,0,1,1.64,2.17c0,1.61-1.2,2.3-2.71,2.3-1.9,0-2.48-.89-2.48-2.34v-.28h1.35v.23c0,.89.29,1.35,1.17,1.35s1.24-.42,1.24-1.11a1.09,1.09,0,0,0-.83-1.1L298,91a2,2,0,0,1-1.61-2.17c0-1.41,1-2.07,2.57-2.07,1.92,0,2.36,1.12,2.36,2.06v.33Z"/><path d="M301.92,87h1V84.82h1.51V87h1.23v1.12h-1.23v4.5c0,.6.17.8.69.8a2.7,2.7,0,0,0,.54,0v1.12a5.17,5.17,0,0,1-1.22.12c-1,0-1.52-.29-1.52-1.82V88.08h-1Z"/><path d="M306.19,90.73c0-2.35.62-4,2.8-4s2.82,1.61,2.82,4-.73,4-2.82,4S306.19,93.09,306.19,90.73Zm2.8,2.85c1.11,0,1.3-.93,1.3-2.85,0-1.67-.19-2.84-1.3-2.84s-1.29,1.17-1.29,2.84C307.7,92.65,307.91,93.58,309,93.58Z"/><path d="M316.22,89.16V89c0-.61-.21-1.17-1-1.17-.6,0-1.08.27-1.08,1s.27.82,1.07,1.1l1,.34a2,2,0,0,1,1.64,2.17c0,1.61-1.19,2.3-2.7,2.3-1.91,0-2.48-.89-2.48-2.34v-.28H314v.23c0,.89.29,1.35,1.17,1.35s1.23-.42,1.23-1.11a1.09,1.09,0,0,0-.82-1.1L314.33,91a2,2,0,0,1-1.62-2.17c0-1.41,1-2.07,2.58-2.07,1.92,0,2.35,1.12,2.35,2.06v.33Z"/></g></g></g></g></svg>