<svg xmlns="http://www.w3.org/2000/svg" viewBox="0 0 1847.91 114"><title>bc1550text</title><g id="YEARS"><g id="Right"><path d="M1787.21,106.26V92.9h-3.82V91h.29c1.77,0,3.79-.44,4.34-2.75v-.37h2.16v18.41Z"/><path d="M1795.14,101.29H1798v.5a2.35,2.35,0,0,0,2.42,2.6c2.08,0,2.63-2,2.63-4.19s-.58-3.92-2.48-3.92a2.34,2.34,0,0,0-2.41,1.69l-2.63-.11.91-9.64h8.87v2.36h-6.66l-.6,4.84.06,0a4,4,0,0,1,3.09-1.43c3.85,0,4.81,3.25,4.81,6.08,0,3.7-1.69,6.5-5.67,6.5-3.3,0-5.15-1.69-5.15-4.94Z"/><path d="M1807.62,101.29h2.81v.5a2.35,2.35,0,0,0,2.42,2.6c2.08,0,2.63-2,2.63-4.19s-.58-3.92-2.48-3.92a2.34,2.34,0,0,0-2.41,1.69l-2.63-.11.91-9.64h8.87v2.36h-6.66l-.6,4.84,0,0a4.08,4.08,0,0,1,3.1-1.43c3.85,0,4.81,3.25,4.81,6.08,0,3.7-1.69,6.5-5.67,6.5-3.3,0-5.15-1.69-5.15-4.94Z"/><path d="M1825.51,87.85c3.54,0,5.51,2.21,5.51,9.39s-2,9.38-5.51,9.38-5.51-2.21-5.51-9.38S1822,87.85,1825.51,87.85Zm0,16.69c2,0,2.55-2,2.55-7.3s-.55-7.31-2.55-7.31-2.55,2-2.55,7.31S1823.51,104.54,1825.51,104.54Z"/></g><g id="left"><path d="M17.46,109.86V96.49H13.64V94.57h.29c1.77,0,3.79-.44,4.34-2.76v-.36h2.16v18.41Z"/><path d="M25.39,104.89H28.2v.5a2.36,2.36,0,0,0,2.42,2.6c2.08,0,2.63-2,2.63-4.19s-.58-3.93-2.47-3.93a2.35,2.35,0,0,0-2.42,1.69l-2.63-.1.91-9.65h8.87v2.37H28.85L28.25,99l.06,0a4,4,0,0,1,3.09-1.43c3.85,0,4.81,3.25,4.81,6.08,0,3.69-1.69,6.5-5.67,6.5-3.3,0-5.15-1.69-5.15-4.94Z"/><path d="M37.87,104.89h2.81v.5A2.36,2.36,0,0,0,43.1,108c2.08,0,2.63-2,2.63-4.19s-.58-3.93-2.48-3.93a2.35,2.35,0,0,0-2.41,1.69l-2.63-.1.91-9.65H48v2.37H41.33L40.73,99l.06,0a4,4,0,0,1,3.09-1.43c3.85,0,4.81,3.25,4.81,6.08,0,3.69-1.69,6.5-5.67,6.5-3.3,0-5.15-1.69-5.15-4.94Z"/><path d="M55.76,91.45c3.54,0,5.51,2.21,5.51,9.39s-2,9.38-5.51,9.38-5.51-2.21-5.51-9.38S52.22,91.45,55.76,91.45Zm0,16.69c2,0,2.55-2,2.55-7.3s-.55-7.31-2.55-7.31-2.55,2-2.55,7.31S53.76,108.14,55.76,108.14Z"/></g></g></svg>