<svg xmlns="http://www.w3.org/2000/svg" viewBox="0 0 1847.91 115"><title>bc1600text</title><g id="Text"><g id="Iranians"><path d="M1205.39,11h5.66c2.62,0,4.7,1.17,4.7,4.23q0,3.16-2.57,4v0c1.91.35,3.14,1.5,3.14,4.46s-2.11,4.78-5.4,4.78h-5.53Zm5,7.37A2.45,2.45,0,0,0,1213,15.6c0-2.08-1.25-2.5-2.82-2.5h-2v5.27Zm.56,8c1.67,0,2.57-1.06,2.57-3.09a2.65,2.65,0,0,0-2.74-3h-2.6v6.06Z"/><path d="M1227,25.75c0,.49.3.93.69.93a1.22,1.22,0,0,0,.44-.07v1.71a2.86,2.86,0,0,1-1.3.32c-1.18,0-2.16-.47-2.23-1.74h0a3.4,3.4,0,0,1-3.28,1.94c-2.13,0-3.43-1.16-3.43-3.7,0-2.95,1.3-3.56,3.06-4.15l2.06-.56c1-.27,1.54-.54,1.54-1.69s-.41-2-1.81-2c-1.77,0-2,1.25-2,2.52h-2.5c0-2.82,1.15-4.33,4.63-4.33,2.33,0,4.19.9,4.19,3.23Zm-2.5-4.22a20,20,0,0,1-2.94,1.23,2.17,2.17,0,0,0-1.08,2.13c0,1.1.54,2,1.64,2,1.6,0,2.38-1.17,2.38-3.13Z"/><path d="M1229.71,11h2.65v5.85h.05a3,3,0,0,1,3-1.88c2,0,4.07.9,4.07,6.76,0,4.53-1.25,7.11-4.32,7.11a2.82,2.82,0,0,1-2.89-2h0v1.62h-2.5Zm4.73,15.73c1.87,0,2.23-1.89,2.23-4.88,0-3.55-.56-4.78-2.05-4.78-2.06,0-2.41,1.82-2.41,5C1232.21,24.89,1232.63,26.73,1234.44,26.73Z"/><path d="M1243,15.31l2.28,9.9h0l2.1-9.9h2.77L1246.55,29c-1.06,3.6-1.87,4.1-4.61,4a4.62,4.62,0,0,1-1-.1V30.8a3.51,3.51,0,0,0,.85.09c.91,0,1.5-.17,1.79-1l.35-1.07-3.75-13.48Z"/><path d="M1251.76,11h2.65V28.49h-2.65Z"/><path d="M1256.57,21.9c0-4.12,1.07-6.93,4.9-6.93s4.92,2.81,4.92,6.93-1.27,6.94-4.92,6.94S1256.57,26,1256.57,21.9Zm4.9,5c1.93,0,2.28-1.61,2.28-5,0-2.92-.35-5-2.28-5s-2.26,2.05-2.26,5C1259.21,25.26,1259.58,26.87,1261.47,26.87Z"/><path d="M1268.42,15.31h2.5v1.54h.08a3.78,3.78,0,0,1,3.38-1.88c2,0,3.28.9,3.28,3.57v10H1275v-9c0-1.76-.47-2.38-1.84-2.38-1.08,0-2.11.81-2.11,2.58v8.84h-2.65Z"/><path d="M1280.33,10.8H1283v2.65h-2.65Zm0,4.51H1283V28.49h-2.65Z"/><path d="M1294.3,25.75c0,.49.29.93.68.93a1.14,1.14,0,0,0,.44-.07v1.71a2.82,2.82,0,0,1-1.29.32c-1.18,0-2.16-.47-2.24-1.74h0a3.41,3.41,0,0,1-3.29,1.94c-2.13,0-3.43-1.16-3.43-3.7,0-2.95,1.3-3.56,3.06-4.15l2.06-.56c1-.27,1.55-.54,1.55-1.69s-.42-2-1.82-2c-1.76,0-2,1.25-2,2.52h-2.5c0-2.82,1.16-4.33,4.64-4.33,2.32,0,4.19.9,4.19,3.23Zm-2.5-4.22a21,21,0,0,1-2.94,1.23,2.17,2.17,0,0,0-1.08,2.13c0,1.1.54,2,1.64,2,1.59,0,2.38-1.17,2.38-3.13Z"/><path d="M1297,15.31h2.5v1.54h.07a3.78,3.78,0,0,1,3.38-1.88c2,0,3.29.9,3.29,3.57v10h-2.65v-9c0-1.76-.46-2.38-1.84-2.38-1.07,0-2.1.81-2.1,2.58v8.84H1297Z"/><path d="M1314.46,19.16v-.35c0-1-.37-2-1.74-2-1,0-1.89.46-1.89,1.71,0,1.06.47,1.45,1.86,1.94l1.7.59c2,.66,2.86,1.71,2.86,3.8,0,2.81-2.08,4-4.73,4-3.33,0-4.34-1.55-4.34-4.1v-.49h2.36v.42c0,1.54.51,2.35,2.06,2.35s2.15-.73,2.15-1.93a1.91,1.91,0,0,0-1.44-1.94l-2.16-.76c-2-.66-2.82-1.69-2.82-3.8,0-2.47,1.77-3.62,4.51-3.62,3.36,0,4.12,2,4.12,3.6v.59Z"/></g><g id="Huns"><path d="M1587.22,21.42h2.8v7h5.14v-7h2.8v17.5h-2.8V30.78H1590v8.14h-2.8Z"/><path d="M1603.42,21.42V34c0,2.23.88,3.19,2.57,3.19s2.55-1,2.55-3.19V21.42h2.79V33.75c0,4-2,5.51-5.34,5.51s-5.37-1.47-5.37-5.51V21.42Z"/><path d="M1614,21.42h3.41l5.07,13h0v-13h2.65v17.5h-3.41l-5.07-13.38h0V38.92H1614Z"/><path d="M1630.22,33.5V34c0,2.13,1,3.21,2.87,3.21a2.51,2.51,0,0,0,2.64-2.55c0-1.84-.93-2.65-2.5-3.11l-1.91-.67c-2.55-1-3.65-2.3-3.65-4.8,0-3.19,2.18-5,5.44-5,4.49,0,5,2.79,5,4.61v.39h-2.79v-.37c0-1.59-.69-2.52-2.45-2.52a2.24,2.24,0,0,0-2.36,2.52c0,1.5.76,2.26,2.63,3l1.88.68c2.48.89,3.56,2.21,3.56,4.63,0,3.73-2.26,5.27-5.79,5.27-4.33,0-5.31-2.89-5.31-5.34V33.5Z"/></g></g><g id="YEARS"><g id="Right"><path d="M1778.6,107.93V94.56h-3.82V92.64h.29c1.77,0,3.79-.44,4.34-2.76v-.36h2.16v18.41Z"/><path d="M1794.23,94c0-1.07-.52-2.39-2-2.39-2.78,0-2.94,3.64-2.94,6.34l.08,0A3.79,3.79,0,0,1,1793,96c2.52,0,4.55,1.82,4.55,5.49,0,4.24-1.77,6.76-5.64,6.76-4.66,0-5.54-3.54-5.54-8.81,0-5.52,1-10,5.88-10,3.25,0,5,1.43,5,4.47Zm-2.11,12.22c1.8,0,2.45-1.79,2.45-3.95,0-2.58-.76-4-2.45-4-2.18,0-2.55,1.9-2.55,4.11S1790.38,106.21,1792.12,106.21Z"/><path d="M1804.42,89.52c3.54,0,5.51,2.21,5.51,9.38s-2,9.39-5.51,9.39-5.51-2.21-5.51-9.39S1800.88,89.52,1804.42,89.52Zm0,16.69c2,0,2.55-2,2.55-7.31s-.55-7.3-2.55-7.3-2.55,2-2.55,7.3S1802.42,106.21,1804.42,106.21Z"/><path d="M1816.9,89.52c3.54,0,5.51,2.21,5.51,9.38s-2,9.39-5.51,9.39-5.51-2.21-5.51-9.39S1813.36,89.52,1816.9,89.52Zm0,16.69c2,0,2.55-2,2.55-7.31s-.55-7.3-2.55-7.3-2.55,2-2.55,7.3S1814.9,106.21,1816.9,106.21Z"/></g><g id="Layer_34" data-name="Layer 34"><path d="M18.85,111.52V98.16H15V96.24h.29c1.77,0,3.79-.45,4.34-2.76v-.36h2.16v18.4Z"/><path d="M34.48,97.59c0-1.07-.52-2.39-2-2.39-2.78,0-2.93,3.64-2.93,6.34l.07,0a3.79,3.79,0,0,1,3.59-2c2.52,0,4.55,1.82,4.55,5.49,0,4.24-1.77,6.76-5.64,6.76-4.65,0-5.54-3.54-5.54-8.82,0-5.51,1-9.95,5.88-9.95,3.25,0,5,1.43,5,4.47Zm-2.11,12.22c1.8,0,2.45-1.8,2.45-4,0-2.58-.76-4-2.45-4-2.18,0-2.54,1.9-2.54,4.11S30.63,109.81,32.37,109.81Z"/><path d="M44.67,93.12c3.54,0,5.51,2.21,5.51,9.38s-2,9.39-5.51,9.39-5.51-2.21-5.51-9.39S41.13,93.12,44.67,93.12Zm0,16.69c2,0,2.55-2,2.55-7.31s-.55-7.3-2.55-7.3-2.55,2-2.55,7.3S42.67,109.81,44.67,109.81Z"/><path d="M57.15,93.12c3.54,0,5.51,2.21,5.51,9.38s-2,9.39-5.51,9.39-5.51-2.21-5.51-9.39S53.61,93.12,57.15,93.12Zm0,16.69c2,0,2.55-2,2.55-7.31s-.55-7.3-2.55-7.3-2.55,2-2.55,7.3S55.15,109.81,57.15,109.81Z"/></g></g></svg>