<svg xmlns="http://www.w3.org/2000/svg" viewBox="0 0 1847.91 112"><title>bc1650text</title><g id="YEARS"><g id="Right"><path d="M1787.21,103.26V89.9h-3.82V88h.29c1.77,0,3.79-.44,4.34-2.75v-.37h2.16v18.41Z" fill="#3b4351"/><path d="M1802.84,89.32c0-1.06-.52-2.39-2-2.39-2.78,0-2.93,3.64-2.93,6.35l.07,0a3.77,3.77,0,0,1,3.59-2c2.52,0,4.55,1.82,4.55,5.48,0,4.24-1.77,6.76-5.64,6.76-4.65,0-5.54-3.53-5.54-8.81,0-5.51,1-10,5.88-10,3.25,0,5,1.43,5,4.47Zm-2.11,12.22c1.8,0,2.45-1.79,2.45-4,0-2.57-.76-4-2.45-4-2.18,0-2.55,1.9-2.55,4.11S1799,101.54,1800.73,101.54Z" fill="#3b4351"/><path d="M1807.62,98.29h2.81v.5a2.35,2.35,0,0,0,2.42,2.6c2.08,0,2.63-2,2.63-4.19s-.58-3.92-2.48-3.92a2.34,2.34,0,0,0-2.41,1.69l-2.63-.11.91-9.64h8.87v2.36h-6.66l-.6,4.84,0,0a4.08,4.08,0,0,1,3.1-1.43c3.85,0,4.81,3.25,4.81,6.08,0,3.7-1.69,6.5-5.67,6.5-3.3,0-5.15-1.69-5.15-4.94Z" fill="#3b4351"/><path d="M1825.51,84.85c3.54,0,5.51,2.21,5.51,9.39s-2,9.38-5.51,9.38-5.51-2.21-5.51-9.38S1822,84.85,1825.51,84.85Zm0,16.69c2,0,2.55-2,2.55-7.3s-.55-7.31-2.55-7.31-2.55,2-2.55,7.31S1823.51,101.54,1825.51,101.54Z" fill="#3b4351"/></g><g id="left"><path d="M17.46,106.86V93.49H13.64V91.57h.29c1.77,0,3.79-.44,4.34-2.76v-.36h2.16v18.41Z" fill="#3b4351"/><path d="M33.09,92.92c0-1.06-.52-2.39-2-2.39-2.78,0-2.93,3.64-2.93,6.34l.07.06a3.77,3.77,0,0,1,3.59-2c2.52,0,4.55,1.82,4.55,5.48,0,4.24-1.77,6.76-5.64,6.76-4.65,0-5.54-3.53-5.54-8.81,0-5.51,1-10,5.88-10,3.25,0,5,1.43,5,4.47ZM31,105.14c1.8,0,2.45-1.79,2.45-4,0-2.57-.76-4-2.45-4-2.18,0-2.54,1.9-2.54,4.11S29.24,105.14,31,105.14Z" fill="#3b4351"/><path d="M37.87,101.89h2.81v.5A2.36,2.36,0,0,0,43.1,105c2.08,0,2.63-2,2.63-4.19s-.58-3.93-2.48-3.93a2.35,2.35,0,0,0-2.41,1.69l-2.63-.1.91-9.65H48v2.37H41.33L40.73,96l.06,0a4,4,0,0,1,3.09-1.43c3.85,0,4.81,3.25,4.81,6.08,0,3.69-1.69,6.5-5.67,6.5-3.3,0-5.15-1.69-5.15-4.94Z" fill="#3b4351"/><path d="M55.76,88.45c3.54,0,5.51,2.21,5.51,9.39s-2,9.38-5.51,9.38-5.51-2.21-5.51-9.38S52.22,88.45,55.76,88.45Zm0,16.69c2,0,2.55-2,2.55-7.3s-.55-7.31-2.55-7.31-2.55,2-2.55,7.31S53.76,105.14,55.76,105.14Z" fill="#3b4351"/></g></g><g id="Text"><g id="Indians"><path d="M1430,10.17h2.79V27.66H1430Z" fill="#3b4351"/><path d="M1435.58,10.17h3.4l5.08,13h0v-13h2.65V27.66h-3.4l-5.08-13.38h0V27.66h-2.64Z" fill="#3b4351"/><path d="M1449.64,10.17h5c5.49,0,6.18,3.57,6.18,8.74s-.69,8.75-6.18,8.75h-5Zm2.79,15.39h2.31c2.3,0,3.26-1.52,3.26-6.65,0-4.92-.84-6.64-3.26-6.64h-2.31Z" fill="#3b4351"/><path d="M1463.14,10.17h2.79V27.66h-2.79Z" fill="#3b4351"/><path d="M1472,10.17h3.58l4.6,17.49h-2.91l-1.08-4.29h-5.12L1470,27.66H1467Zm3.72,11-2-8.62h0l-2.09,8.62Z" fill="#3b4351"/><path d="M1481.42,10.17h3.4l5.07,13h0v-13h2.65V27.66h-3.41l-5.07-13.38h0V27.66h-2.64Z" fill="#3b4351"/><path d="M1497.64,22.25v.44c0,2.13.95,3.21,2.86,3.21a2.51,2.51,0,0,0,2.65-2.55c0-1.84-.93-2.65-2.5-3.11l-1.91-.66c-2.55-1-3.65-2.31-3.65-4.81,0-3.18,2.18-4.95,5.44-4.95,4.48,0,5,2.8,5,4.61v.39h-2.8v-.37c0-1.59-.68-2.52-2.45-2.52a2.23,2.23,0,0,0-2.35,2.52c0,1.5.76,2.26,2.62,3l1.89.69c2.47.88,3.55,2.2,3.55,4.63,0,3.72-2.25,5.27-5.78,5.27-4.34,0-5.32-2.9-5.32-5.35v-.41Z" fill="#3b4351"/><path d="M1435.3,37.17a20.65,20.65,0,0,0-2.8,11,21.38,21.38,0,0,0,2.8,11h-1.89a18.71,18.71,0,0,1,0-22Z" fill="#3b4351"/><path d="M1436.74,37.17h2.8v7h5.14v-7h2.8V54.66h-2.8V46.53h-5.14v8.13h-2.8Z" fill="#3b4351"/><path d="M1450.31,37H1453v2.65h-2.65Zm0,4.51H1453V54.66h-2.65Z" fill="#3b4351"/><path d="M1455.63,41.48h2.5V43h.07a3.81,3.81,0,0,1,3.39-1.88c2,0,3.28.9,3.28,3.57v9.95h-2.65v-9c0-1.76-.46-2.38-1.83-2.38-1.08,0-2.11.81-2.11,2.58v8.84h-2.65Z" fill="#3b4351"/><path d="M1474.15,53.05h-.05a2.81,2.81,0,0,1-2.89,2c-3.06,0-4.31-2.6-4.31-7.11,0-5.86,2.06-6.76,4.07-6.76a3.06,3.06,0,0,1,3,1.88h0V37.17h2.64V54.66h-2.5Zm-2.4-9.81c-1.49,0-2.06,1.23-2.06,4.78,0,3,.37,4.88,2.23,4.88s2.23-1.84,2.23-4.68C1474.15,45.06,1473.81,43.24,1471.75,43.24Z" fill="#3b4351"/><path d="M1485.94,53.12h-.08a3.79,3.79,0,0,1-3.38,1.89c-2,0-3.28-.91-3.28-4.32V41.48h2.65v9.46c0,1.47.63,2,1.79,2a2.06,2.06,0,0,0,2.15-2.21V41.48h2.65V54.66h-2.5Z" fill="#3b4351"/><path d="M1496.67,45.33V45c0-1-.37-2-1.74-2-1,0-1.89.46-1.89,1.71,0,1.06.47,1.45,1.86,1.94l1.7.59c2,.66,2.86,1.71,2.86,3.8,0,2.81-2.08,4-4.73,4-3.33,0-4.34-1.55-4.34-4.1v-.49h2.36v.42c0,1.54.51,2.35,2.06,2.35s2.15-.73,2.15-1.93a1.91,1.91,0,0,0-1.44-1.94l-2.16-.76c-2-.66-2.82-1.69-2.82-3.8,0-2.47,1.77-3.62,4.51-3.62,3.36,0,4.12,2,4.12,3.6v.59Z" fill="#3b4351"/><path d="M1500.15,59.17a20.67,20.67,0,0,0,2.79-11,21.38,21.38,0,0,0-2.79-11H1502a18.67,18.67,0,0,1,0,22Z" fill="#3b4351"/></g><g id="Chinese"><path d="M1691.12,38.58V39c0,2.13,1,3.21,2.86,3.21a2.51,2.51,0,0,0,2.65-2.55c0-1.84-.93-2.65-2.5-3.11l-1.91-.66c-2.55-1-3.65-2.31-3.65-4.81,0-3.18,2.18-5,5.44-5,4.48,0,5,2.8,5,4.61v.39h-2.79v-.37c0-1.59-.69-2.52-2.45-2.52a2.23,2.23,0,0,0-2.36,2.52c0,1.5.76,2.26,2.62,3l1.89.69c2.48.88,3.56,2.2,3.56,4.63,0,3.72-2.26,5.27-5.79,5.27-4.34,0-5.32-2.9-5.32-5.35v-.41Z" fill="#3b4351"/><path d="M1701.51,26.5h2.64v5.73l.08.05a3.74,3.74,0,0,1,3.23-1.81c2,0,3.28.9,3.28,3.57V44h-2.64V35c0-1.74-.49-2.38-1.84-2.38-1.08,0-2.11.84-2.11,2.58V44h-2.64Z" fill="#3b4351"/><path d="M1721.94,41.25c0,.49.29.93.69.93a1.22,1.22,0,0,0,.44-.07v1.71a2.86,2.86,0,0,1-1.3.32c-1.18,0-2.16-.47-2.23-1.74h0a3.41,3.41,0,0,1-3.28,1.94c-2.14,0-3.44-1.16-3.44-3.7,0-3,1.3-3.56,3.07-4.15l2.06-.56c.95-.27,1.54-.54,1.54-1.69s-.42-2-1.81-2c-1.77,0-2,1.25-2,2.52h-2.5c0-2.82,1.15-4.33,4.63-4.33,2.33,0,4.19.9,4.19,3.23Zm-2.5-4.22a20.5,20.5,0,0,1-2.94,1.23,2.17,2.17,0,0,0-1.08,2.13c0,1.1.54,2,1.64,2,1.6,0,2.38-1.17,2.38-3.13Z" fill="#3b4351"/><path d="M1724.63,30.81h2.5v1.54h.08a3.78,3.78,0,0,1,3.38-1.88c2,0,3.28.9,3.28,3.57V44h-2.65V35c0-1.76-.46-2.38-1.83-2.38-1.08,0-2.11.81-2.11,2.58V44h-2.65Z" fill="#3b4351"/><path d="M1739.06,45.12a1.73,1.73,0,0,0,1.92,1.57,2.18,2.18,0,0,0,2.22-2.48V42.08h0a3.19,3.19,0,0,1-3,1.81c-3.07,0-4-3-4-6.64,0-2.89.44-6.78,4.19-6.78a2.9,2.9,0,0,1,2.89,2h0V30.81h2.5V43.36c0,3.21-1.37,5.14-4.92,5.14-3.93,0-4.37-2.3-4.37-3.38Zm1.87-3.33c2,0,2.27-2.6,2.27-4.68s-.27-4.54-2.1-4.54-2.23,2-2.23,4.41C1738.87,39.24,1739,41.79,1740.93,41.79Z" fill="#3b4351"/><path d="M1681.23,53.5h5c5.48,0,6.17,3.57,6.17,8.74s-.69,8.75-6.17,8.75h-5ZM1684,68.89h2.31c2.3,0,3.26-1.52,3.26-6.65,0-4.92-.84-6.64-3.26-6.64H1684Z" fill="#3b4351"/><path d="M1696.45,57.81l2.28,9.9h0l2.11-9.9h2.77L1700,71.48c-1,3.6-1.86,4.1-4.6,4a4.76,4.76,0,0,1-1.06-.1V73.3a3.65,3.65,0,0,0,.86.09c.91,0,1.5-.17,1.79-1l.34-1.08-3.75-13.48Z" fill="#3b4351"/><path d="M1705.12,57.81h2.5v1.54h.07a3.78,3.78,0,0,1,3.38-1.88c2,0,3.29.9,3.29,3.57V71h-2.65V62c0-1.76-.46-2.38-1.84-2.38-1.08,0-2.1.81-2.1,2.58V71h-2.65Z" fill="#3b4351"/><path d="M1725.55,68.25c0,.49.3.93.69.93a1.18,1.18,0,0,0,.44-.07v1.71a2.83,2.83,0,0,1-1.3.32c-1.17,0-2.15-.47-2.23-1.74h-.05a3.4,3.4,0,0,1-3.28,1.94c-2.13,0-3.43-1.16-3.43-3.7,0-3,1.3-3.56,3.06-4.15l2.06-.56c1-.27,1.54-.54,1.54-1.69s-.41-2-1.81-2c-1.76,0-2,1.25-2,2.52h-2.5c0-2.82,1.15-4.33,4.63-4.33,2.33,0,4.19.9,4.19,3.23Zm-2.5-4.22a20,20,0,0,1-2.94,1.23,2.17,2.17,0,0,0-1.08,2.13c0,1.1.54,2,1.65,2,1.59,0,2.37-1.18,2.37-3.14Z" fill="#3b4351"/><path d="M1733.93,61.66v-.35c0-1.05-.37-2-1.74-2-1,0-1.89.46-1.89,1.71,0,1.06.47,1.45,1.87,1.94l1.69.59c2,.66,2.87,1.71,2.87,3.8,0,2.81-2.09,4-4.73,4-3.34,0-4.34-1.55-4.34-4.1v-.49H1730v.42c0,1.54.51,2.35,2.06,2.35s2.16-.73,2.16-1.93a1.91,1.91,0,0,0-1.45-1.94l-2.16-.76c-2-.66-2.81-1.69-2.81-3.8,0-2.47,1.76-3.62,4.5-3.62,3.36,0,4.12,2,4.12,3.6v.59Z" fill="#3b4351"/><path d="M1737.51,57.81h1.81V54.06H1742v3.75h2.15v2H1742v7.87c0,1,.29,1.39,1.2,1.39a4.91,4.91,0,0,0,.95-.07v2a8.44,8.44,0,0,1-2.13.22c-1.76,0-2.67-.52-2.67-3.19V59.77h-1.81Z" fill="#3b4351"/><path d="M1747.26,57.81l2.28,9.9h0l2.1-9.9h2.77l-3.62,13.67c-1.06,3.6-1.87,4.1-4.61,4a4.62,4.62,0,0,1-1-.1V73.3a3.51,3.51,0,0,0,.85.09c.91,0,1.5-.17,1.79-1l.35-1.08-3.75-13.48Z" fill="#3b4351"/></g><g id="Egytians"><g id="small"><path d="M311.43,29.83H313v10h-1.6Z" fill="#3b4351"/><path d="M314.51,32.3h1.43v.88H316a2.15,2.15,0,0,1,1.93-1.08c1.15,0,1.88.52,1.88,2v5.69h-1.52V34.66c0-1-.26-1.36-1-1.36-.61,0-1.2.47-1.2,1.48v5h-1.52Z" fill="#3b4351"/><path d="M320.58,32.3h1V30.15h1.52V32.3h1.23v1.12h-1.23v4.49c0,.61.16.8.68.8a2.75,2.75,0,0,0,.55,0v1.12a5.11,5.11,0,0,1-1.22.13c-1,0-1.53-.3-1.53-1.82V33.42h-1Z" fill="#3b4351"/><path d="M325.14,32.3h1.51v1.17h0a1.87,1.87,0,0,1,1.75-1.37.77.77,0,0,1,.37.06V33.7a1.91,1.91,0,0,0-.63-.09c-.69,0-1.52.31-1.52,1.71v4.51h-1.51Z" fill="#3b4351"/><path d="M329.26,36.06c0-2.35.61-4,2.8-4s2.81,1.61,2.81,4-.73,4-2.81,4S329.26,38.42,329.26,36.06Zm2.8,2.85c1.1,0,1.3-.93,1.3-2.85,0-1.66-.2-2.84-1.3-2.84s-1.29,1.18-1.29,2.84C330.77,38,331,38.91,332.06,38.91Z" fill="#3b4351"/><path d="M339.88,38.91h0A1.62,1.62,0,0,1,338.2,40c-1.75,0-2.46-1.49-2.46-4.06,0-3.35,1.17-3.87,2.32-3.87a1.74,1.74,0,0,1,1.71,1.08h0V29.83h1.51v10h-1.43Zm-1.37-5.61c-.85,0-1.18.7-1.18,2.74,0,1.71.21,2.78,1.28,2.78s1.27-1,1.27-2.67C339.88,34.34,339.69,33.3,338.51,33.3Z" fill="#3b4351"/><path d="M346.62,39h0A2.18,2.18,0,0,1,344.64,40c-1.12,0-1.87-.52-1.87-2.47V32.3h1.51v5.4c0,.84.36,1.12,1,1.12a1.17,1.17,0,0,0,1.23-1.26V32.3h1.52v7.53h-1.43Z" fill="#3b4351"/><path d="M354.58,37.09c-.11,1.8-.7,2.94-2.57,2.94-2.19,0-2.8-1.61-2.8-4s.61-4,2.8-4a2.43,2.43,0,0,1,2.59,2.7h-1.51c0-.7-.19-1.62-1.08-1.58-1.08,0-1.29,1.18-1.29,2.84s.21,2.85,1.29,2.85c.84,0,1.15-.69,1.15-1.82Z" fill="#3b4351"/><path d="M355,32.3h1V30.15h1.51V32.3h1.24v1.12h-1.24v4.49c0,.61.17.8.69.8a2.88,2.88,0,0,0,.55,0v1.12a5.17,5.17,0,0,1-1.22.13c-1,0-1.53-.3-1.53-1.82V33.42h-1Z" fill="#3b4351"/><path d="M359.68,29.72h1.51v1.51h-1.51Zm0,2.58h1.51v7.53h-1.51Z" fill="#3b4351"/><path d="M362.42,36.06c0-2.35.62-4,2.8-4s2.82,1.61,2.82,4-.73,4-2.82,4S362.42,38.42,362.42,36.06Zm2.8,2.85c1.11,0,1.31-.93,1.31-2.85,0-1.66-.2-2.84-1.31-2.84s-1.29,1.18-1.29,2.84C363.93,38,364.14,38.91,365.22,38.91Z" fill="#3b4351"/><path d="M369.2,32.3h1.43v.88h0a2.17,2.17,0,0,1,1.93-1.08c1.15,0,1.88.52,1.88,2v5.69H373V34.66c0-1-.27-1.36-1.06-1.36-.61,0-1.2.47-1.2,1.48v5H369.2Z" fill="#3b4351"/><path d="M379,36.06c0-2.35.61-4,2.8-4s2.81,1.61,2.81,4-.72,4-2.81,4S379,38.42,379,36.06Zm2.8,2.85c1.11,0,1.3-.93,1.3-2.85,0-1.66-.19-2.84-1.3-2.84s-1.29,1.18-1.29,2.84C380.51,38,380.72,38.91,381.8,38.91Z" fill="#3b4351"/><path d="M386.24,33.42h-1.06V32.3h1.06v-.7c0-1.42.68-1.88,1.91-1.88a6.47,6.47,0,0,1,.83,0v1.16h-.42c-.56,0-.81.21-.81.72v.66H389v1.12h-1.23v6.41h-1.51Z" fill="#3b4351"/><path d="M393,29.83h1.51v3.28l0,0a2.14,2.14,0,0,1,1.85-1c1.15,0,1.88.52,1.88,2v5.69h-1.52V34.66c0-1-.28-1.36-1.05-1.36-.61,0-1.2.48-1.2,1.48v5H393Z" fill="#3b4351"/><path d="M399.46,36.06c0-2.35.62-4,2.81-4s2.81,1.61,2.81,4-.73,4-2.81,4S399.46,38.42,399.46,36.06Zm2.81,2.85c1.1,0,1.3-.93,1.3-2.85,0-1.66-.2-2.84-1.3-2.84S401,34.4,401,36.06C401,38,401.19,38.91,402.27,38.91Z" fill="#3b4351"/><path d="M406.24,32.3h1.51v1.17h0a1.87,1.87,0,0,1,1.75-1.37.77.77,0,0,1,.37.06V33.7a1.87,1.87,0,0,0-.63-.09c-.69,0-1.52.31-1.52,1.71v4.51h-1.51Z" fill="#3b4351"/><path d="M413.9,34.5v-.2c0-.6-.21-1.16-1-1.16-.61,0-1.08.26-1.08,1s.26.82,1.06,1.1l1,.34a2,2,0,0,1,1.64,2.17c0,1.61-1.19,2.3-2.71,2.3-1.9,0-2.48-.88-2.48-2.34v-.28h1.35v.24c0,.88.29,1.34,1.18,1.34s1.23-.42,1.23-1.11a1.09,1.09,0,0,0-.83-1.1L412,36.34a2,2,0,0,1-1.61-2.17c0-1.41,1-2.07,2.58-2.07,1.91,0,2.35,1.12,2.35,2.06v.34Z" fill="#3b4351"/><path d="M417.92,36.26v.43c0,1,.12,2.3,1.26,2.3s1.2-1.22,1.2-1.68h1.43A2.48,2.48,0,0,1,419.16,40c-1.23,0-2.76-.37-2.76-3.85,0-2,.44-4.08,2.79-4.08,2.1,0,2.66,1.27,2.66,3.36v.8Zm2.42-1v-.4c0-1-.31-1.68-1.16-1.68s-1.26,1-1.26,1.93v.15Z" fill="#3b4351"/><path d="M426.35,34.5v-.2c0-.6-.21-1.16-1-1.16-.6,0-1.08.26-1.08,1s.27.82,1.07,1.1l1,.34a2,2,0,0,1,1.64,2.17c0,1.61-1.19,2.3-2.7,2.3-1.91,0-2.48-.88-2.48-2.34v-.28h1.34v.24c0,.88.3,1.34,1.18,1.34s1.23-.42,1.23-1.11a1.09,1.09,0,0,0-.82-1.1l-1.24-.44a2,2,0,0,1-1.61-2.17c0-1.41,1-2.07,2.58-2.07,1.92,0,2.35,1.12,2.35,2.06v.34Z" fill="#3b4351"/><path d="M429.21,38h1.6v1.85h-1.6Z" fill="#3b4351"/><path d="M449.32,29.83h2.49l1.77,7.41h0l1.74-7.41h2.44v10h-1.51V31.51h0l-2,8.32h-1.34l-2-8.32h0v8.32h-1.51Z" fill="#3b4351"/><path d="M459.4,29.72h1.51v1.51H459.4Zm0,2.58h1.51v7.53H459.4Z" fill="#3b4351"/><path d="M462.51,29.83H464v10h-1.51Z" fill="#3b4351"/><path d="M465.61,29.72h1.52v1.51h-1.52Zm0,2.58h1.52v7.53h-1.52Z" fill="#3b4351"/><path d="M468,32.3h1V30.15h1.51V32.3h1.23v1.12h-1.23v4.49c0,.61.17.8.68.8a2.75,2.75,0,0,0,.55,0v1.12a5.11,5.11,0,0,1-1.22.13c-1,0-1.52-.3-1.52-1.82V33.42h-1Z" fill="#3b4351"/><path d="M477.49,38.26c0,.28.17.54.39.54a.52.52,0,0,0,.25,0v1a1.58,1.58,0,0,1-.74.19c-.67,0-1.23-.27-1.27-1h0A2,2,0,0,1,474.21,40c-1.22,0-2-.66-2-2.12A2.06,2.06,0,0,1,474,35.55l1.18-.33c.54-.15.88-.3.88-1s-.24-1.12-1-1.12c-1,0-1.15.71-1.15,1.44h-1.42c0-1.61.65-2.48,2.64-2.48,1.33,0,2.4.52,2.4,1.85Zm-1.43-2.41a11.23,11.23,0,0,1-1.68.7,1.23,1.23,0,0,0-.62,1.22c0,.63.31,1.14.94,1.14.91,0,1.36-.67,1.36-1.8Z" fill="#3b4351"/><path d="M479,32.3h1.51v1.17h0a1.85,1.85,0,0,1,1.75-1.37.73.73,0,0,1,.36.06V33.7a1.83,1.83,0,0,0-.63-.09c-.69,0-1.51.31-1.51,1.71v4.51H479Z" fill="#3b4351"/><path d="M484.7,32.3,486,38h0l1.2-5.66h1.58l-2.07,7.81c-.6,2.06-1.06,2.34-2.63,2.3a2.53,2.53,0,0,1-.61-.06v-1.2a2.12,2.12,0,0,0,.5.05c.51,0,.85-.09,1-.58l.19-.62-2.14-7.7Z" fill="#3b4351"/><path d="M493,32.3h1.51v1.17h0a1.87,1.87,0,0,1,1.75-1.37.77.77,0,0,1,.37.06V33.7a1.91,1.91,0,0,0-.63-.09c-.69,0-1.52.31-1.52,1.71v4.51H493Z" fill="#3b4351"/><path d="M498.64,36.26v.43c0,1,.13,2.3,1.26,2.3s1.2-1.22,1.2-1.68h1.43A2.48,2.48,0,0,1,499.89,40c-1.24,0-2.76-.37-2.76-3.85,0-2,.43-4.08,2.78-4.08,2.1,0,2.67,1.27,2.67,3.36v.8Zm2.42-1v-.4c0-1-.31-1.68-1.16-1.68s-1.26,1-1.26,1.93v.15Z" fill="#3b4351"/><path d="M507.07,34.5v-.2c0-.6-.21-1.16-1-1.16-.6,0-1.08.26-1.08,1s.27.82,1.07,1.1l1,.34a2,2,0,0,1,1.63,2.17c0,1.61-1.19,2.3-2.7,2.3-1.9,0-2.48-.88-2.48-2.34v-.28h1.35v.24c0,.88.29,1.34,1.17,1.34s1.24-.42,1.24-1.11a1.09,1.09,0,0,0-.83-1.1l-1.23-.44a2,2,0,0,1-1.61-2.17c0-1.41,1-2.07,2.57-2.07,1.92,0,2.36,1.12,2.36,2.06v.34Z" fill="#3b4351"/><path d="M509.49,36.06c0-2.35.61-4,2.8-4s2.81,1.61,2.81,4-.72,4-2.81,4S509.49,38.42,509.49,36.06Zm2.8,2.85c1.11,0,1.3-.93,1.3-2.85,0-1.66-.19-2.84-1.3-2.84S511,34.4,511,36.06C511,38,511.21,38.91,512.29,38.91Z" fill="#3b4351"/><path d="M520.12,39h0A2.15,2.15,0,0,1,518.14,40c-1.12,0-1.88-.52-1.88-2.47V32.3h1.52v5.4c0,.84.36,1.12,1,1.12A1.17,1.17,0,0,0,520,37.56V32.3h1.51v7.53h-1.42Z" fill="#3b4351"/><path d="M523,32.3h1.51v1.17h0a1.85,1.85,0,0,1,1.75-1.37.73.73,0,0,1,.36.06V33.7a1.83,1.83,0,0,0-.63-.09c-.68,0-1.51.31-1.51,1.71v4.51H523Z" fill="#3b4351"/><path d="M532.41,37.09c-.11,1.8-.7,2.94-2.58,2.94-2.18,0-2.8-1.61-2.8-4s.62-4,2.8-4a2.43,2.43,0,0,1,2.59,2.7h-1.51c0-.7-.18-1.62-1.08-1.58-1.08,0-1.29,1.18-1.29,2.84s.21,2.85,1.29,2.85c.84,0,1.15-.69,1.15-1.82Z" fill="#3b4351"/><path d="M534.84,36.26v.43c0,1,.13,2.3,1.26,2.3s1.21-1.22,1.21-1.68h1.43A2.48,2.48,0,0,1,536.09,40c-1.23,0-2.76-.37-2.76-3.85,0-2,.43-4.08,2.79-4.08,2.1,0,2.66,1.27,2.66,3.36v.8Zm2.43-1v-.4c0-1-.31-1.68-1.17-1.68s-1.26,1-1.26,1.93v.15Z" fill="#3b4351"/><path d="M543.27,34.5v-.2c0-.6-.21-1.16-1-1.16-.61,0-1.08.26-1.08,1s.26.82,1.06,1.1l1,.34a2,2,0,0,1,1.64,2.17c0,1.61-1.19,2.3-2.71,2.3-1.9,0-2.48-.88-2.48-2.34v-.28H541v.24c0,.88.29,1.34,1.18,1.34s1.23-.42,1.23-1.11a1.09,1.09,0,0,0-.83-1.1l-1.23-.44a2,2,0,0,1-1.61-2.17c0-1.41,1-2.07,2.58-2.07,1.92,0,2.35,1.12,2.35,2.06v.34Z" fill="#3b4351"/><path d="M553.2,38.91h0A1.61,1.61,0,0,1,551.52,40c-1.75,0-2.47-1.49-2.47-4.06,0-3.35,1.18-3.87,2.33-3.87a1.73,1.73,0,0,1,1.7,1.08h0V29.83h1.52v10H553.2Zm-1.38-5.61c-.85,0-1.17.7-1.17,2.74,0,1.71.21,2.78,1.27,2.78s1.28-1,1.28-2.67C553.2,34.34,553,33.3,551.82,33.3Z" fill="#3b4351"/><path d="M557.38,36.26v.43c0,1,.13,2.3,1.26,2.3s1.21-1.22,1.21-1.68h1.43A2.48,2.48,0,0,1,558.63,40c-1.23,0-2.76-.37-2.76-3.85,0-2,.43-4.08,2.79-4.08,2.1,0,2.66,1.27,2.66,3.36v.8Zm2.43-1v-.4c0-1-.31-1.68-1.17-1.68s-1.26,1-1.26,1.93v.15Z" fill="#3b4351"/><path d="M561.93,32.3h1.63l1.31,5.94h0l1.19-5.94h1.61l-2,7.53H564Z" fill="#3b4351"/><path d="M569.83,36.26v.43c0,1,.12,2.3,1.26,2.3s1.2-1.22,1.2-1.68h1.43A2.48,2.48,0,0,1,571.07,40c-1.23,0-2.76-.37-2.76-3.85,0-2,.44-4.08,2.79-4.08,2.1,0,2.66,1.27,2.66,3.36v.8Zm2.42-1v-.4c0-1-.31-1.68-1.16-1.68s-1.26,1-1.26,1.93v.15Z" fill="#3b4351"/><path d="M575.08,29.83h1.51v10h-1.51Z" fill="#3b4351"/><path d="M577.82,36.06c0-2.35.62-4,2.8-4s2.82,1.61,2.82,4-.73,4-2.82,4S577.82,38.42,577.82,36.06Zm2.8,2.85c1.11,0,1.3-.93,1.3-2.85,0-1.66-.19-2.84-1.3-2.84s-1.29,1.18-1.29,2.84C579.33,38,579.54,38.91,580.62,38.91Z" fill="#3b4351"/><path d="M587.85,40A1.74,1.74,0,0,1,586.14,39h0V42.3H584.6v-10H586v.92h0a1.8,1.8,0,0,1,1.7-1.12c1.72,0,2.42,1.47,2.42,4.06C590.17,39.33,588.9,40,587.85,40Zm-.55-6.73c-1,0-1.27,1.05-1.27,2.68,0,1.81.22,2.84,1.28,2.84.86,0,1.26-.64,1.26-2.73C588.57,34.38,588.36,33.3,587.3,33.3Z" fill="#3b4351"/><path d="M592.63,36.26v.43c0,1,.13,2.3,1.26,2.3s1.21-1.22,1.21-1.68h1.43A2.48,2.48,0,0,1,593.88,40c-1.23,0-2.76-.37-2.76-3.85,0-2,.43-4.08,2.79-4.08,2.1,0,2.66,1.27,2.66,3.36v.8Zm2.43-1v-.4c0-1-.31-1.68-1.17-1.68s-1.26,1-1.26,1.93v.15Z" fill="#3b4351"/><path d="M601.66,38.91h0A1.62,1.62,0,0,1,600,40c-1.75,0-2.46-1.49-2.46-4.06,0-3.35,1.17-3.87,2.32-3.87a1.74,1.74,0,0,1,1.71,1.08h0V29.83h1.51v10h-1.43Zm-1.37-5.61c-.85,0-1.17.7-1.17,2.74,0,1.71.21,2.78,1.27,2.78s1.27-1,1.27-2.67C601.66,34.34,601.47,33.3,600.29,33.3Z" fill="#3b4351"/><path d="M300.11,83h0A2.18,2.18,0,0,1,298.13,84c-1.12,0-1.87-.52-1.87-2.47V76.3h1.51v5.4c0,.84.36,1.12,1,1.12A1.18,1.18,0,0,0,300,81.56V76.3h1.51v7.53h-1.43Z" fill="#3b4351"/><path d="M303,76.3h1.43v.88h0a2.17,2.17,0,0,1,1.93-1.08c1.15,0,1.88.52,1.88,2v5.69h-1.51V78.66c0-1-.27-1.36-1.05-1.36-.62,0-1.21.47-1.21,1.48v5H303Z" fill="#3b4351"/><path d="M313.58,82.91h0A1.61,1.61,0,0,1,311.9,84c-1.76,0-2.47-1.49-2.47-4.06,0-3.35,1.18-3.87,2.33-3.87a1.74,1.74,0,0,1,1.7,1.08h0V73.83H315v10h-1.43ZM312.2,77.3c-.85,0-1.17.7-1.17,2.74,0,1.71.21,2.78,1.27,2.78s1.28-1,1.28-2.67C313.58,78.34,313.38,77.3,312.2,77.3Z" fill="#3b4351"/><path d="M317.76,80.26v.43c0,1,.13,2.3,1.26,2.3s1.21-1.22,1.21-1.68h1.43A2.48,2.48,0,0,1,319,84c-1.23,0-2.76-.37-2.76-3.85,0-2,.43-4.08,2.79-4.08,2.1,0,2.66,1.27,2.66,3.36v.8Zm2.42-1v-.4c0-1-.3-1.68-1.16-1.68s-1.26,1-1.26,1.93v.15Z" fill="#3b4351"/><path d="M322.94,76.3h1.51v1.17h0a1.87,1.87,0,0,1,1.75-1.37.77.77,0,0,1,.37.06V77.7a1.91,1.91,0,0,0-.63-.09c-.69,0-1.52.31-1.52,1.71v4.51h-1.51Z" fill="#3b4351"/><path d="M330.81,73.83h1.6v4.36h0l3-4.36h1.75l-2.89,4.22,3.2,5.78h-1.81l-2.42-4.49-.88,1.26v3.23h-1.6Z" fill="#3b4351"/><path d="M338.05,73.72h1.51v1.51h-1.51Zm0,2.58h1.51v7.53h-1.51Z" fill="#3b4351"/><path d="M341.08,76.3h1.43v.88h.05a2.15,2.15,0,0,1,1.93-1.08c1.15,0,1.88.52,1.88,2v5.69h-1.52V78.66c0-1-.26-1.36-1.05-1.36-.61,0-1.2.47-1.2,1.48v5h-1.52Z" fill="#3b4351"/><path d="M349.33,84.48a1,1,0,0,0,1.09.89A1.25,1.25,0,0,0,351.7,84V82.74h0a1.82,1.82,0,0,1-1.71,1c-1.75,0-2.25-1.73-2.25-3.8,0-1.65.25-3.88,2.39-3.88a1.65,1.65,0,0,1,1.65,1.12h0V76.3h1.43v7.17c0,1.83-.78,2.94-2.81,2.94-2.25,0-2.5-1.32-2.5-1.93Zm1.07-1.91c1.17,0,1.3-1.48,1.3-2.67s-.16-2.6-1.21-2.6-1.27,1.13-1.27,2.53S349.27,82.57,350.4,82.57Z" fill="#3b4351"/><path d="M358,73.83h1.6v4.36h0l3-4.36h1.75l-2.88,4.22,3.19,5.78h-1.81l-2.42-4.49-.88,1.26v3.23H358Z" fill="#3b4351"/><path d="M365.18,73.83h1.51v3.28l0,0a2.16,2.16,0,0,1,1.85-1c1.15,0,1.88.52,1.88,2v5.69H369V78.66c0-1-.28-1.36-1.05-1.36-.62,0-1.21.48-1.21,1.48v5h-1.51Z" fill="#3b4351"/><path d="M372,73.72h1.51v1.51H372Zm0,2.58h1.51v7.53H372Z" fill="#3b4351"/><path d="M380,82.26c0,.28.17.54.4.54a.55.55,0,0,0,.25,0v1a1.58,1.58,0,0,1-.74.19c-.68,0-1.24-.27-1.28-1h0A1.94,1.94,0,0,1,376.69,84c-1.22,0-2-.66-2-2.12a2.06,2.06,0,0,1,1.75-2.36l1.17-.33c.55-.15.89-.3.89-1s-.24-1.12-1-1.12c-1,0-1.15.71-1.15,1.44h-1.43c0-1.61.66-2.48,2.65-2.48,1.33,0,2.39.52,2.39,1.85Zm-1.42-2.41a10.92,10.92,0,0,1-1.69.7,1.24,1.24,0,0,0-.61,1.22c0,.63.31,1.14.94,1.14.91,0,1.36-.67,1.36-1.8Z" fill="#3b4351"/><path d="M381.5,76.3h1.43v.88h0a2.18,2.18,0,0,1,1.94-1.08c1.14,0,1.87.52,1.87,2v5.69h-1.51V78.66c0-1-.27-1.36-1-1.36-.62,0-1.21.47-1.21,1.48v5H381.5Z" fill="#3b4351"/><path d="M391.08,76.3h1.57l1.05,5.94h0l1.13-5.94h1.7l1.12,5.94h0l1-5.94h1.51l-1.72,7.53h-1.7L395.66,78h0l-1.08,5.85h-1.76Z" fill="#3b4351"/><path d="M401.19,73.83h1.51v3.28l0,0a2.14,2.14,0,0,1,1.85-1c1.15,0,1.88.52,1.88,2v5.69H405V78.66c0-1-.28-1.36-1.05-1.36-.61,0-1.2.48-1.2,1.48v5h-1.51Z" fill="#3b4351"/><path d="M407.62,80.06c0-2.35.62-4,2.81-4s2.81,1.61,2.81,4-.73,4-2.81,4S407.62,82.42,407.62,80.06Zm2.81,2.85c1.1,0,1.3-.93,1.3-2.85,0-1.66-.2-2.84-1.3-2.84s-1.29,1.18-1.29,2.84C409.14,82,409.35,82.91,410.43,82.91Z" fill="#3b4351"/><path d="M417.83,73.83h1.51v10h-1.51Z" fill="#3b4351"/><path d="M422.17,80.26v.43c0,1,.13,2.3,1.26,2.3s1.21-1.22,1.21-1.68h1.43A2.48,2.48,0,0,1,423.42,84c-1.23,0-2.76-.37-2.76-3.85,0-2,.43-4.08,2.79-4.08,2.1,0,2.66,1.27,2.66,3.36v.8Zm2.43-1v-.4c0-1-.31-1.68-1.17-1.68s-1.26,1-1.26,1.93v.15Z" fill="#3b4351"/><path d="M426.72,76.3h1.63l1.31,5.94h0l1.19-5.94h1.61l-2,7.53h-1.76Z" fill="#3b4351"/><path d="M433.38,73.72h1.52v1.51h-1.52Zm0,2.58h1.52v7.53h-1.52Z" fill="#3b4351"/><path d="M437.73,80.26v.43c0,1,.12,2.3,1.26,2.3s1.2-1.22,1.2-1.68h1.43A2.48,2.48,0,0,1,439,84c-1.23,0-2.76-.37-2.76-3.85,0-2,.44-4.08,2.79-4.08,2.1,0,2.66,1.27,2.66,3.36v.8Zm2.42-1v-.4c0-1-.31-1.68-1.16-1.68s-1.26,1-1.26,1.93v.15Z" fill="#3b4351"/><path d="M446.76,82.91h0A1.61,1.61,0,0,1,445.08,84c-1.76,0-2.47-1.49-2.47-4.06,0-3.35,1.18-3.87,2.33-3.87a1.74,1.74,0,0,1,1.7,1.08h0V73.83h1.52v10h-1.43Zm-1.38-5.61c-.85,0-1.17.7-1.17,2.74,0,1.71.21,2.78,1.27,2.78s1.28-1,1.28-2.67C446.76,78.34,446.56,77.3,445.38,77.3Z" fill="#3b4351"/><path d="M453,73.83h1.51v3.28l0,0a2.16,2.16,0,0,1,1.85-1c1.15,0,1.88.52,1.88,2v5.69h-1.51V78.66c0-1-.28-1.36-1-1.36s-1.21.48-1.21,1.48v5H453Z" fill="#3b4351"/><path d="M461,80.26v.43c0,1,.12,2.3,1.26,2.3s1.2-1.22,1.2-1.68h1.43A2.48,2.48,0,0,1,462.28,84c-1.23,0-2.76-.37-2.76-3.85,0-2,.44-4.08,2.79-4.08,2.1,0,2.66,1.27,2.66,3.36v.8Zm2.42-1v-.4c0-1-.31-1.68-1.16-1.68s-1.26,1-1.26,1.93v.15Z" fill="#3b4351"/><path d="M471.16,82.26c0,.28.17.54.39.54a.52.52,0,0,0,.25,0v1a1.58,1.58,0,0,1-.74.19c-.67,0-1.23-.27-1.27-1h0A2,2,0,0,1,467.88,84c-1.22,0-2-.66-2-2.12a2.06,2.06,0,0,1,1.75-2.36l1.18-.33c.54-.15.88-.3.88-1s-.24-1.12-1-1.12c-1,0-1.15.71-1.15,1.44h-1.42c0-1.61.65-2.48,2.64-2.48,1.33,0,2.4.52,2.4,1.85Zm-1.43-2.41a11.23,11.23,0,0,1-1.68.7,1.23,1.23,0,0,0-.62,1.22c0,.63.31,1.14.94,1.14.91,0,1.36-.67,1.36-1.8Z" fill="#3b4351"/><path d="M472,76.3h1.63l1.31,5.94h0l1.19-5.94h1.61l-2,7.53H474Z" fill="#3b4351"/><path d="M479.58,76.3,480.89,82h0l1.2-5.66h1.58l-2.07,7.81c-.6,2.06-1.07,2.34-2.63,2.3a2.53,2.53,0,0,1-.61-.06v-1.2a2.09,2.09,0,0,0,.49,0c.52,0,.86-.09,1-.58l.19-.62L478,76.3Z" fill="#3b4351"/><path d="M487.23,76.3h1V74.15h1.52V76.3H491v1.12h-1.23v4.49c0,.61.16.8.68.8a2.75,2.75,0,0,0,.55,0v1.12a5.11,5.11,0,0,1-1.22.13c-1,0-1.53-.3-1.53-1.82V77.42h-1Z" fill="#3b4351"/><path d="M491.79,76.3h1.51v1.17h0a1.87,1.87,0,0,1,1.75-1.37.77.77,0,0,1,.37.06V77.7a1.87,1.87,0,0,0-.63-.09c-.69,0-1.52.31-1.52,1.71v4.51h-1.51Z" fill="#3b4351"/><path d="M496.27,73.72h1.51v1.51h-1.51Zm0,2.58h1.51v7.53h-1.51Z" fill="#3b4351"/><path d="M499.31,73.83h1.51v3.35h0a1.74,1.74,0,0,1,1.71-1.08c1.15,0,2.32.52,2.32,3.87,0,2.59-.71,4.06-2.46,4.06a1.6,1.6,0,0,1-1.65-1.12h0v.92h-1.43Zm2.7,9c1.07,0,1.28-1.07,1.28-2.78,0-2-.32-2.74-1.18-2.74-1.18,0-1.37,1-1.37,2.85C500.74,81.77,501,82.82,502,82.82Z" fill="#3b4351"/><path d="M509.9,83h0A2.15,2.15,0,0,1,507.92,84c-1.12,0-1.88-.52-1.88-2.47V76.3h1.52v5.4c0,.84.36,1.12,1,1.12a1.17,1.17,0,0,0,1.23-1.26V76.3h1.51v7.53H509.9Z" fill="#3b4351"/><path d="M512.1,76.3h1V74.15h1.51V76.3h1.24v1.12h-1.24v4.49c0,.61.17.8.69.8a2.81,2.81,0,0,0,.55,0v1.12a5.17,5.17,0,0,1-1.22.13c-1,0-1.53-.3-1.53-1.82V77.42h-1Z" fill="#3b4351"/><path d="M518,80.26v.43c0,1,.13,2.3,1.26,2.3s1.21-1.22,1.21-1.68h1.43A2.48,2.48,0,0,1,519.22,84c-1.23,0-2.76-.37-2.76-3.85,0-2,.43-4.08,2.79-4.08,2.1,0,2.66,1.27,2.66,3.36v.8Zm2.43-1v-.4c0-1-.31-1.68-1.17-1.68s-1.26,1-1.26,1.93v.15Z" fill="#3b4351"/><path d="M526.22,80.06c0-2.35.61-4,2.8-4s2.81,1.61,2.81,4-.72,4-2.81,4S526.22,82.42,526.22,80.06Zm2.8,2.85c1.1,0,1.3-.93,1.3-2.85,0-1.66-.2-2.84-1.3-2.84s-1.29,1.18-1.29,2.84C527.73,82,527.94,82.91,529,82.91Z" fill="#3b4351"/><path d="M533.45,77.42H532.4V76.3h1.05v-.7c0-1.42.69-1.88,1.92-1.88a6.47,6.47,0,0,1,.83,0v1.16h-.42c-.56,0-.81.21-.81.72v.66h1.23v1.12H535v6.41h-1.52Z" fill="#3b4351"/><path d="M545.33,81.09c-.11,1.8-.7,2.94-2.58,2.94-2.18,0-2.8-1.61-2.8-4s.62-4,2.8-4a2.43,2.43,0,0,1,2.59,2.7h-1.51c0-.7-.18-1.62-1.08-1.58-1.08,0-1.29,1.18-1.29,2.84s.21,2.85,1.29,2.85c.84,0,1.15-.69,1.15-1.82Z" fill="#3b4351"/><path d="M546.17,80.06c0-2.35.61-4,2.8-4s2.81,1.61,2.81,4-.72,4-2.81,4S546.17,82.42,546.17,80.06Zm2.8,2.85c1.1,0,1.3-.93,1.3-2.85,0-1.66-.2-2.84-1.3-2.84s-1.29,1.18-1.29,2.84C547.68,82,547.89,82.91,549,82.91Z" fill="#3b4351"/><path d="M552.94,76.3h1.52v1.17h0a1.87,1.87,0,0,1,1.75-1.37.77.77,0,0,1,.37.06V77.7a1.87,1.87,0,0,0-.63-.09c-.69,0-1.51.31-1.51,1.71v4.51h-1.52Z" fill="#3b4351"/><path d="M557.49,76.3h1.43v.88h0a2.18,2.18,0,0,1,1.94-1.08c1.14,0,1.87.52,1.87,2v5.69h-1.51V78.66c0-1-.27-1.36-1-1.36-.62,0-1.2.47-1.2,1.48v5h-1.52Z" fill="#3b4351"/><path d="M568.05,77.42h-1V76.3h1v-.7c0-1.42.68-1.88,1.92-1.88a6.4,6.4,0,0,1,.82,0v1.16h-.42c-.56,0-.81.21-.81.72v.66h1.23v1.12h-1.23v6.41h-1.51Z" fill="#3b4351"/><path d="M571.48,76.3H573v1.17h0a1.87,1.87,0,0,1,1.75-1.37.73.73,0,0,1,.36.06V77.7a1.83,1.83,0,0,0-.63-.09c-.68,0-1.51.31-1.51,1.71v4.51h-1.51Z" fill="#3b4351"/><path d="M575.59,80.06c0-2.35.62-4,2.81-4s2.81,1.61,2.81,4-.73,4-2.81,4S575.59,82.42,575.59,80.06Zm2.81,2.85c1.1,0,1.3-.93,1.3-2.85,0-1.66-.2-2.84-1.3-2.84s-1.29,1.18-1.29,2.84C577.11,82,577.32,82.91,578.4,82.91Z" fill="#3b4351"/><path d="M582.44,76.3h1.43v.88h0a2.12,2.12,0,0,1,1.81-1.08,1.64,1.64,0,0,1,1.75,1.15,2,2,0,0,1,1.9-1.15c1.07,0,1.84.55,1.84,2v5.73H589.7V78.66c0-1-.3-1.36-.91-1.36s-1.21.48-1.21,1.48v5h-1.51V78.66c0-1-.3-1.36-.93-1.36s-1.19.49-1.19,1.48v5h-1.51Z" fill="#3b4351"/></g></g><g id="Amorites"><path d="M931.08,75h3.57l4.61,17.49h-2.91l-1.08-4.29h-5.13L929,92.49H926.1Zm3.72,11-2-8.62h0L930.66,86Z" fill="#3b4351"/><path d="M940.48,75h4.37l3.08,13H948l3-13h4.26V92.49h-2.64V77.94h0l-3.53,14.55h-2.35l-3.53-14.55h0V92.49h-2.65Z" fill="#3b4351"/><path d="M957.76,83.74c0-6.24,1.76-9.09,5.78-9.09s5.78,2.85,5.78,9.09-1.76,9.1-5.78,9.1S957.76,90,957.76,83.74Zm8.77-.07c0-5.88-1.33-6.91-3-6.91s-3,1-3,6.91,1.32,7.06,3,7.06S966.53,89.67,966.53,83.67Z" fill="#3b4351"/><path d="M971.79,75H978c2.45,0,4.43,1.25,4.43,4.5,0,2.26-1,4-2.91,4.29v0c1.76.17,2.65,1.13,2.74,3.58,0,1.15,0,2.5.1,3.55a1.92,1.92,0,0,0,.83,1.52H980a2.93,2.93,0,0,1-.46-1.54c0-.52-.08-1.06-.08-1.57s0-1.1-.05-1.74c-.07-1.91-.66-2.74-2.54-2.74h-2.28v7.59h-2.8Zm5,7.79A2.58,2.58,0,0,0,979.61,80c0-1.87-.78-2.85-2.65-2.85h-2.37v5.69Z" fill="#3b4351"/><path d="M984.83,75h2.79V92.49h-2.79Z" fill="#3b4351"/><path d="M993.26,77.35h-4.17V75h11v2.35h-4.09V92.49h-2.79Z" fill="#3b4351"/><path d="M1001.73,75h9.46v2.35h-6.66V82.2h6.27v2.35h-6.27v5.59h6.86v2.35h-9.66Z" fill="#3b4351"/><path d="M1015.67,87.08v.44c0,2.13,1,3.21,2.87,3.21a2.51,2.51,0,0,0,2.65-2.55c0-1.84-.93-2.65-2.5-3.11l-1.91-.66c-2.55-1-3.66-2.31-3.66-4.81,0-3.18,2.19-4.95,5.44-4.95,4.49,0,5,2.8,5,4.61v.39h-2.8v-.37c0-1.59-.69-2.52-2.45-2.52a2.23,2.23,0,0,0-2.35,2.52c0,1.5.76,2.26,2.62,3l1.89.69c2.47.88,3.55,2.2,3.55,4.63,0,3.72-2.25,5.27-5.78,5.27-4.34,0-5.32-2.9-5.32-5.35v-.41Z" fill="#3b4351"/></g><g id="Ageans"><g id="Title"><g id="small-2" data-name="small"><path d="M120.9,15.73c0-2.35.62-4,2.8-4s2.82,1.61,2.82,4-.73,4-2.82,4S120.9,18.09,120.9,15.73Zm2.8,2.85c1.11,0,1.3-.93,1.3-2.85,0-1.67-.19-2.84-1.3-2.84s-1.29,1.17-1.29,2.84C122.41,17.65,122.62,18.58,123.7,18.58Z" fill="#3b4351"/><path d="M128.14,13.08h-1V12h1v-.7c0-1.41.68-1.87,1.92-1.87a6.4,6.4,0,0,1,.82,0v1.16h-.42c-.56,0-.81.21-.81.72V12h1.23v1.12h-1.23V19.5h-1.51Z" fill="#3b4351"/><path d="M138.18,19.7a1.74,1.74,0,0,1-1.71-1.08h0V22h-1.51V12h1.43v.93h0a1.8,1.8,0,0,1,1.7-1.12c1.72,0,2.42,1.47,2.42,4.06C140.5,19,139.23,19.7,138.18,19.7ZM137.63,13c-1,0-1.27,1-1.27,2.68,0,1.81.22,2.84,1.28,2.84.86,0,1.26-.64,1.26-2.73C138.9,14.05,138.69,13,137.63,13Z" fill="#3b4351"/><path d="M141.37,15.73c0-2.35.61-4,2.8-4s2.81,1.61,2.81,4-.73,4-2.81,4S141.37,18.09,141.37,15.73Zm2.8,2.85c1.1,0,1.3-.93,1.3-2.85,0-1.67-.2-2.84-1.3-2.84s-1.29,1.17-1.29,2.84C142.88,17.65,143.09,18.58,144.17,18.58Z" fill="#3b4351"/><path d="M147.54,12h1.57l1,5.94h0L151.31,12H153l1.12,5.94h0l1-5.94h1.52L155,19.5H153.3l-1.18-5.86h0L151,19.5h-1.76Z" fill="#3b4351"/><path d="M159,15.93v.43c0,1,.13,2.3,1.26,2.3s1.21-1.22,1.21-1.68h1.43a2.48,2.48,0,0,1-2.65,2.72c-1.24,0-2.76-.37-2.76-3.86,0-2,.43-4.07,2.79-4.07,2.1,0,2.66,1.27,2.66,3.36v.8Zm2.42-1v-.4c0-1-.3-1.69-1.16-1.69s-1.26,1-1.26,1.94v.15Z" fill="#3b4351"/><path d="M164.13,12h1.51v1.18h0a1.87,1.87,0,0,1,1.75-1.37.94.94,0,0,1,.37.05v1.54a2.3,2.3,0,0,0-.63-.08c-.69,0-1.52.31-1.52,1.71V19.5h-1.51Z" fill="#3b4351"/><path d="M171.61,15.73c0-2.35.61-4,2.8-4s2.81,1.61,2.81,4-.73,4-2.81,4S171.61,18.09,171.61,15.73Zm2.8,2.85c1.1,0,1.3-.93,1.3-2.85,0-1.67-.2-2.84-1.3-2.84s-1.29,1.17-1.29,2.84C173.12,17.65,173.33,18.58,174.41,18.58Z" fill="#3b4351"/><path d="M178.84,13.08h-1.05V12h1.05v-.7c0-1.41.69-1.87,1.92-1.87a6.47,6.47,0,0,1,.83,0v1.16h-.42c-.56,0-.81.21-.81.72V12h1.23v1.12h-1.23V19.5h-1.52Z" fill="#3b4351"/><path d="M187,16.4v.26c0,1.21.55,1.83,1.64,1.83A1.44,1.44,0,0,0,190.12,17a1.67,1.67,0,0,0-1.43-1.77l-1.1-.38a2.67,2.67,0,0,1-2.08-2.75c0-1.82,1.24-2.83,3.11-2.83,2.56,0,2.83,1.6,2.83,2.64v.22h-1.6V12c0-.91-.39-1.44-1.4-1.44A1.28,1.28,0,0,0,187.1,12c0,.85.44,1.29,1.5,1.69l1.08.4a2.53,2.53,0,0,1,2,2.64c0,2.13-1.29,3-3.3,3a2.75,2.75,0,0,1-3-3.06V16.4Z" fill="#3b4351"/><path d="M194.2,15.93v.43c0,1,.13,2.3,1.26,2.3s1.21-1.22,1.21-1.68h1.43a2.48,2.48,0,0,1-2.65,2.72c-1.23,0-2.76-.37-2.76-3.86,0-2,.43-4.07,2.79-4.07,2.1,0,2.66,1.27,2.66,3.36v.8Zm2.43-1v-.4c0-1-.31-1.69-1.17-1.69s-1.26,1-1.26,1.94v.15Z" fill="#3b4351"/><path d="M204.33,17.93c0,.28.16.53.39.53a.57.57,0,0,0,.25,0v1a1.58,1.58,0,0,1-.74.18c-.67,0-1.23-.26-1.28-1h0a2,2,0,0,1-1.88,1.11c-1.22,0-2-.66-2-2.12a2.08,2.08,0,0,1,1.75-2.37l1.18-.32c.54-.15.88-.31.88-1s-.24-1.12-1-1.12c-1,0-1.15.72-1.15,1.45h-1.43c0-1.61.66-2.48,2.65-2.48,1.33,0,2.4.52,2.4,1.85Zm-1.43-2.41a11.23,11.23,0,0,1-1.68.7,1.23,1.23,0,0,0-.62,1.22c0,.63.31,1.14.94,1.14.91,0,1.36-.68,1.36-1.8Z" fill="#3b4351"/><path d="M205.77,14.74h3.67v1.43h-3.67Z" fill="#3b4351"/><path d="M210.89,9.5h1.6v4.35h0l3-4.35h1.75l-2.88,4.21,3.19,5.79h-1.81L213.37,15l-.88,1.26V19.5h-1.6Z" fill="#3b4351"/><path d="M218.13,9.39h1.51V10.9h-1.51Zm0,2.57h1.51V19.5h-1.51Z" fill="#3b4351"/><path d="M221.17,12h1.42v.89h0a2.13,2.13,0,0,1,1.93-1.08c1.15,0,1.88.52,1.88,2V19.5h-1.52V14.33c0-1-.26-1.36-1.05-1.36-.61,0-1.2.46-1.2,1.47V19.5h-1.51Z" fill="#3b4351"/><path d="M229.41,20.14a1,1,0,0,0,1.09.9,1.25,1.25,0,0,0,1.28-1.41V18.41h0a1.81,1.81,0,0,1-1.71,1c-1.75,0-2.25-1.72-2.25-3.79,0-1.65.25-3.88,2.39-3.88a1.66,1.66,0,0,1,1.66,1.12h0V12h1.43v7.18c0,1.83-.78,2.94-2.81,2.94-2.24,0-2.5-1.32-2.5-1.94Zm1.07-1.9c1.17,0,1.3-1.49,1.3-2.68S231.63,13,230.57,13s-1.27,1.12-1.27,2.52S229.36,18.24,230.48,18.24Z" fill="#3b4351"/><path d="M237.88,14.16V14c0-.61-.21-1.17-1-1.17-.6,0-1.08.27-1.08,1s.27.82,1.06,1.1l1,.34a2,2,0,0,1,1.64,2.17c0,1.61-1.19,2.3-2.7,2.3-1.91,0-2.48-.89-2.48-2.34v-.28h1.34v.23c0,.89.3,1.35,1.18,1.35s1.23-.42,1.23-1.11a1.09,1.09,0,0,0-.83-1.1L236,16a2,2,0,0,1-1.61-2.17c0-1.41,1-2.07,2.58-2.07,1.92,0,2.35,1.12,2.35,2.06v.33Z" fill="#3b4351"/><path d="M136.21,91.66h3.53a2.32,2.32,0,0,1,2.54,2.58c0,1.29-.56,2.29-1.67,2.45v0c1,.1,1.51.65,1.57,2,0,.65,0,1.43.06,2a1.1,1.1,0,0,0,.47.87h-1.8a1.64,1.64,0,0,1-.27-.89,8.83,8.83,0,0,1,0-.89c0-.3,0-.63,0-1,0-1.09-.38-1.57-1.46-1.57h-1.3v4.35h-1.6Zm2.87,4.46a1.48,1.48,0,0,0,1.6-1.63c0-1.06-.45-1.62-1.51-1.62h-1.36v3.25Z" fill="#3b4351"/><path d="M144.94,98.09v.44c0,1,.12,2.3,1.26,2.3s1.2-1.22,1.2-1.69h1.43a2.48,2.48,0,0,1-2.65,2.72c-1.23,0-2.76-.36-2.76-3.85,0-2,.44-4.08,2.79-4.08,2.1,0,2.66,1.28,2.66,3.37v.79Zm2.42-1v-.41c0-1-.31-1.68-1.16-1.68s-1.26,1-1.26,1.93v.16Z" fill="#3b4351"/><path d="M155.2,98.92c-.11,1.81-.7,2.94-2.58,2.94-2.18,0-2.8-1.61-2.8-4s.62-4,2.8-4a2.44,2.44,0,0,1,2.59,2.71H153.7c0-.7-.18-1.63-1.08-1.59-1.08,0-1.29,1.18-1.29,2.85s.21,2.84,1.29,2.84c.84,0,1.15-.68,1.15-1.82Z" fill="#3b4351"/><path d="M156,97.9c0-2.36.61-4,2.8-4s2.81,1.61,2.81,4-.72,4-2.81,4S156,100.25,156,97.9Zm2.8,2.84c1.1,0,1.3-.92,1.3-2.84,0-1.67-.2-2.85-1.3-2.85s-1.29,1.18-1.29,2.85C157.55,99.82,157.76,100.74,158.84,100.74Z" fill="#3b4351"/><path d="M162.1,94.13h1.62l1.32,5.94h0l1.19-5.94h1.61l-2,7.54h-1.76Z" fill="#3b4351"/><path d="M170,98.09v.44c0,1,.12,2.3,1.26,2.3s1.2-1.22,1.2-1.69h1.43a2.48,2.48,0,0,1-2.65,2.72c-1.23,0-2.76-.36-2.76-3.85,0-2,.44-4.08,2.79-4.08,2.1,0,2.66,1.28,2.66,3.37v.79Zm2.42-1v-.41c0-1-.31-1.68-1.16-1.68s-1.26,1-1.26,1.93v.16Z" fill="#3b4351"/><path d="M175.17,94.13h1.52v1.18h0a1.86,1.86,0,0,1,1.75-1.38.87.87,0,0,1,.36.06v1.54a2.18,2.18,0,0,0-.63-.08c-.69,0-1.51.3-1.51,1.71v4.51h-1.52Z" fill="#3b4351"/><path d="M180.84,94.13l1.31,5.66h0l1.2-5.66H185L182.89,102c-.6,2.06-1.06,2.34-2.63,2.29a3.14,3.14,0,0,1-.61,0V103a2.12,2.12,0,0,0,.49.06c.52,0,.86-.1,1-.59l.19-.62-2.14-7.7Z" fill="#3b4351"/></g></g></g></g></svg>