<svg xmlns="http://www.w3.org/2000/svg" viewBox="0 0 1847.91 115"><title>bc1600text</title><g id="YEARS"><g id="Right"><path d="M1787.21,107.93V94.56h-3.82V92.64h.29c1.77,0,3.79-.44,4.34-2.76v-.36h2.16v18.41Z"/><path d="M1802.84,94c0-1.07-.52-2.39-2-2.39-2.78,0-2.93,3.64-2.93,6.34l.07,0a3.79,3.79,0,0,1,3.59-1.95c2.52,0,4.55,1.82,4.55,5.49,0,4.24-1.77,6.76-5.64,6.76-4.65,0-5.54-3.54-5.54-8.81,0-5.52,1-10,5.88-10,3.25,0,5,1.43,5,4.47Zm-2.11,12.22c1.8,0,2.45-1.79,2.45-3.95,0-2.58-.76-4-2.45-4-2.18,0-2.55,1.9-2.55,4.11S1799,106.21,1800.73,106.21Z"/><path d="M1813,89.52c3.54,0,5.51,2.21,5.51,9.38s-2,9.39-5.51,9.39-5.51-2.21-5.51-9.39S1809.49,89.52,1813,89.52Zm0,16.69c2,0,2.55-2,2.55-7.31s-.55-7.3-2.55-7.3-2.55,2-2.55,7.3S1811,106.21,1813,106.21Z"/><path d="M1825.51,89.52c3.54,0,5.51,2.21,5.51,9.38s-2,9.39-5.51,9.39-5.51-2.21-5.51-9.39S1822,89.52,1825.51,89.52Zm0,16.69c2,0,2.55-2,2.55-7.31s-.55-7.3-2.55-7.3-2.55,2-2.55,7.3S1823.51,106.21,1825.51,106.21Z"/></g><g id="left"><path d="M17.46,111.53V98.16H13.64V96.24h.29c1.77,0,3.79-.45,4.34-2.76v-.36h2.16v18.41Z"/><path d="M33.09,97.59c0-1.07-.52-2.39-2-2.39-2.78,0-2.93,3.64-2.93,6.34l.07,0a3.79,3.79,0,0,1,3.59-2c2.52,0,4.55,1.82,4.55,5.49,0,4.24-1.77,6.76-5.64,6.76-4.65,0-5.54-3.54-5.54-8.81,0-5.52,1-10,5.88-10,3.25,0,5,1.43,5,4.47ZM31,109.81c1.8,0,2.45-1.79,2.45-4,0-2.58-.76-4-2.45-4-2.18,0-2.54,1.9-2.54,4.11S29.24,109.81,31,109.81Z"/><path d="M43.28,93.12c3.54,0,5.51,2.21,5.51,9.38s-2,9.39-5.51,9.39-5.51-2.21-5.51-9.39S39.75,93.12,43.28,93.12Zm0,16.69c2,0,2.55-2,2.55-7.31s-.55-7.3-2.55-7.3-2.55,2-2.55,7.3S41.28,109.81,43.28,109.81Z"/><path d="M55.76,93.12c3.54,0,5.51,2.21,5.51,9.38s-2,9.39-5.51,9.39-5.51-2.21-5.51-9.39S52.22,93.12,55.76,93.12Zm0,16.69c2,0,2.55-2,2.55-7.31s-.55-7.3-2.55-7.3-2.55,2-2.55,7.3S53.76,109.81,55.76,109.81Z"/></g></g><g id="Text"><g id="Iranians"><path d="M1205.39,11h5.66c2.62,0,4.7,1.17,4.7,4.23q0,3.16-2.57,4v0c1.91.35,3.14,1.5,3.14,4.46s-2.11,4.78-5.4,4.78h-5.53Zm5,7.37A2.45,2.45,0,0,0,1213,15.6c0-2.08-1.25-2.5-2.82-2.5h-2v5.27Zm.56,8c1.67,0,2.57-1.06,2.57-3.09a2.65,2.65,0,0,0-2.74-3h-2.6v6.06Z"/><path d="M1227,25.75c0,.49.3.93.69.93a1.22,1.22,0,0,0,.44-.07v1.71a2.86,2.86,0,0,1-1.3.32c-1.18,0-2.16-.47-2.23-1.74h0a3.4,3.4,0,0,1-3.28,1.94c-2.13,0-3.43-1.16-3.43-3.7,0-2.95,1.3-3.56,3.06-4.15l2.06-.56c1-.27,1.54-.54,1.54-1.69s-.41-2-1.81-2c-1.77,0-2,1.25-2,2.52h-2.5c0-2.82,1.15-4.33,4.63-4.33,2.33,0,4.19.9,4.19,3.23Zm-2.5-4.22a20,20,0,0,1-2.94,1.23,2.17,2.17,0,0,0-1.08,2.13c0,1.1.54,2,1.64,2,1.6,0,2.38-1.17,2.38-3.13Z"/><path d="M1229.71,11h2.65v5.85h.05a3,3,0,0,1,3-1.88c2,0,4.07.9,4.07,6.76,0,4.53-1.25,7.11-4.32,7.11a2.82,2.82,0,0,1-2.89-2h0v1.62h-2.5Zm4.73,15.73c1.87,0,2.23-1.89,2.23-4.88,0-3.55-.56-4.78-2.05-4.78-2.06,0-2.41,1.82-2.41,5C1232.21,24.89,1232.63,26.73,1234.44,26.73Z"/><path d="M1243,15.31l2.28,9.9h0l2.1-9.9h2.77L1246.55,29c-1.06,3.6-1.87,4.1-4.61,4a4.62,4.62,0,0,1-1-.1V30.8a3.51,3.51,0,0,0,.85.09c.91,0,1.5-.17,1.79-1l.35-1.07-3.75-13.48Z"/><path d="M1251.76,11h2.65V28.49h-2.65Z"/><path d="M1256.57,21.9c0-4.12,1.07-6.93,4.9-6.93s4.92,2.81,4.92,6.93-1.27,6.94-4.92,6.94S1256.57,26,1256.57,21.9Zm4.9,5c1.93,0,2.28-1.61,2.28-5,0-2.92-.35-5-2.28-5s-2.26,2.05-2.26,5C1259.21,25.26,1259.58,26.87,1261.47,26.87Z"/><path d="M1268.42,15.31h2.5v1.54h.08a3.78,3.78,0,0,1,3.38-1.88c2,0,3.28.9,3.28,3.57v10H1275v-9c0-1.76-.47-2.38-1.84-2.38-1.08,0-2.11.81-2.11,2.58v8.84h-2.65Z"/><path d="M1280.33,10.8H1283v2.65h-2.65Zm0,4.51H1283V28.49h-2.65Z"/><path d="M1294.3,25.75c0,.49.29.93.68.93a1.14,1.14,0,0,0,.44-.07v1.71a2.82,2.82,0,0,1-1.29.32c-1.18,0-2.16-.47-2.24-1.74h0a3.41,3.41,0,0,1-3.29,1.94c-2.13,0-3.43-1.16-3.43-3.7,0-2.95,1.3-3.56,3.06-4.15l2.06-.56c1-.27,1.55-.54,1.55-1.69s-.42-2-1.82-2c-1.76,0-2,1.25-2,2.52h-2.5c0-2.82,1.16-4.33,4.64-4.33,2.32,0,4.19.9,4.19,3.23Zm-2.5-4.22a21,21,0,0,1-2.94,1.23,2.17,2.17,0,0,0-1.08,2.13c0,1.1.54,2,1.64,2,1.59,0,2.38-1.17,2.38-3.13Z"/><path d="M1297,15.31h2.5v1.54h.07a3.78,3.78,0,0,1,3.38-1.88c2,0,3.29.9,3.29,3.57v10h-2.65v-9c0-1.76-.46-2.38-1.84-2.38-1.07,0-2.1.81-2.1,2.58v8.84H1297Z"/><path d="M1314.46,19.16v-.35c0-1-.37-2-1.74-2-1,0-1.89.46-1.89,1.71,0,1.06.47,1.45,1.86,1.94l1.7.59c2,.66,2.86,1.71,2.86,3.8,0,2.81-2.08,4-4.73,4-3.33,0-4.34-1.55-4.34-4.1v-.49h2.36v.42c0,1.54.51,2.35,2.06,2.35s2.15-.73,2.15-1.93a1.91,1.91,0,0,0-1.44-1.94l-2.16-.76c-2-.66-2.82-1.69-2.82-3.8,0-2.47,1.77-3.62,4.51-3.62,3.36,0,4.12,2,4.12,3.6v.59Z"/></g><g id="Huns"><path d="M1587.22,21.42h2.8v7h5.14v-7h2.8v17.5h-2.8V30.78H1590v8.14h-2.8Z"/><path d="M1603.42,21.42V34c0,2.23.88,3.19,2.57,3.19s2.55-1,2.55-3.19V21.42h2.79V33.75c0,4-2,5.51-5.34,5.51s-5.37-1.47-5.37-5.51V21.42Z"/><path d="M1614,21.42h3.41l5.07,13h0v-13h2.65v17.5h-3.41l-5.07-13.38h0V38.92H1614Z"/><path d="M1630.22,33.5V34c0,2.13,1,3.21,2.87,3.21a2.51,2.51,0,0,0,2.64-2.55c0-1.84-.93-2.65-2.5-3.11l-1.91-.67c-2.55-1-3.65-2.3-3.65-4.8,0-3.19,2.18-5,5.44-5,4.49,0,5,2.79,5,4.61v.39h-2.79v-.37c0-1.59-.69-2.52-2.45-2.52a2.24,2.24,0,0,0-2.36,2.52c0,1.5.76,2.26,2.63,3l1.88.68c2.48.89,3.56,2.21,3.56,4.63,0,3.73-2.26,5.27-5.79,5.27-4.33,0-5.31-2.89-5.31-5.34V33.5Z"/></g><g id="Egytians"><g id="small"><path d="M360.07,8.3h1.63L363,14.24h0l1.19-5.94h1.61l-2,7.53h-1.76Z"/><path d="M371.44,14.26c0,.28.17.54.4.54a.55.55,0,0,0,.25-.05v1a1.58,1.58,0,0,1-.74.19c-.68,0-1.24-.27-1.28-1h0A1.94,1.94,0,0,1,368.17,16c-1.22,0-2-.66-2-2.12A2.07,2.07,0,0,1,368,11.55l1.17-.33c.55-.15.89-.3.89-1s-.24-1.12-1-1.12c-1,0-1.15.71-1.15,1.44H366.4c0-1.61.66-2.48,2.65-2.48,1.33,0,2.39.52,2.39,1.85ZM370,11.85a10.92,10.92,0,0,1-1.69.7,1.24,1.24,0,0,0-.61,1.22c0,.63.31,1.14.94,1.14.91,0,1.36-.67,1.36-1.8Z"/><path d="M376.23,10.5v-.2c0-.6-.21-1.16-1-1.16-.61,0-1.08.26-1.08,1s.26.82,1.06,1.1l1,.34a2,2,0,0,1,1.64,2.17c0,1.61-1.19,2.3-2.71,2.3-1.9,0-2.48-.88-2.48-2.34v-.28H374v.24c0,.88.29,1.34,1.18,1.34s1.23-.42,1.23-1.11a1.09,1.09,0,0,0-.83-1.1l-1.23-.44a2,2,0,0,1-1.61-2.17c0-1.41,1-2.07,2.58-2.07,1.92,0,2.35,1.12,2.35,2.06v.34Z"/><path d="M382.19,10.5v-.2c0-.6-.21-1.16-1-1.16-.6,0-1.08.26-1.08,1s.27.82,1.07,1.1l1,.34a2,2,0,0,1,1.64,2.17c0,1.61-1.19,2.3-2.7,2.3-1.91,0-2.48-.88-2.48-2.34v-.28H380v.24c0,.88.3,1.34,1.18,1.34s1.23-.42,1.23-1.11a1.09,1.09,0,0,0-.82-1.1l-1.24-.44a2,2,0,0,1-1.61-2.17c0-1.41,1-2.07,2.58-2.07,1.92,0,2.35,1.12,2.35,2.06v.34Z"/><path d="M385,5.83h1.51v10H385Z"/><path d="M394.63,10.5v-.2c0-.6-.21-1.16-1-1.16-.6,0-1.08.26-1.08,1s.27.82,1.07,1.1l1,.34a2,2,0,0,1,1.64,2.17c0,1.61-1.19,2.3-2.7,2.3-1.91,0-2.48-.88-2.48-2.34v-.28h1.35v.24c0,.88.29,1.34,1.17,1.34s1.23-.42,1.23-1.11a1.09,1.09,0,0,0-.82-1.1l-1.23-.44a2,2,0,0,1-1.62-2.17c0-1.41,1-2.07,2.58-2.07,1.92,0,2.36,1.12,2.36,2.06v.34Z"/><path d="M396.67,8.3h1V6.15h1.52V8.3h1.23V9.42h-1.23v4.49c0,.61.17.8.68.8a2.75,2.75,0,0,0,.55,0v1.12a5.11,5.11,0,0,1-1.22.13c-1,0-1.53-.3-1.53-1.82V9.42h-1Z"/><path d="M406.18,14.26c0,.28.17.54.39.54a.52.52,0,0,0,.25-.05v1a1.58,1.58,0,0,1-.74.19c-.67,0-1.23-.27-1.28-1h0A2,2,0,0,1,402.9,16c-1.22,0-2-.66-2-2.12a2.06,2.06,0,0,1,1.75-2.36l1.18-.33c.54-.15.88-.3.88-1s-.24-1.12-1-1.12c-1,0-1.15.71-1.15,1.44h-1.43c0-1.61.66-2.48,2.65-2.48,1.33,0,2.4.52,2.4,1.85Zm-1.43-2.41a11.23,11.23,0,0,1-1.68.7,1.23,1.23,0,0,0-.62,1.22c0,.63.31,1.14.94,1.14.91,0,1.36-.67,1.36-1.8Z"/><path d="M407,8.3h1V6.15h1.51V8.3h1.23V9.42h-1.23v4.49c0,.61.17.8.69.8a2.7,2.7,0,0,0,.54,0v1.12a5,5,0,0,1-1.21.13c-1,0-1.53-.3-1.53-1.82V9.42h-1Z"/><path d="M412.91,12.26v.43c0,1,.13,2.3,1.26,2.3s1.2-1.22,1.2-1.68h1.43A2.48,2.48,0,0,1,414.16,16c-1.24,0-2.76-.37-2.76-3.85,0-2,.43-4.08,2.78-4.08,2.11,0,2.67,1.27,2.67,3.36v.8Zm2.42-1v-.4c0-1-.31-1.68-1.16-1.68s-1.26.95-1.26,1.93v.15Z"/><path d="M421.34,10.5v-.2c0-.6-.21-1.16-1-1.16-.6,0-1.07.26-1.07,1s.26.82,1.06,1.1l1,.34a2,2,0,0,1,1.64,2.17c0,1.61-1.2,2.3-2.71,2.3-1.9,0-2.48-.88-2.48-2.34v-.28h1.35v.24c0,.88.29,1.34,1.17,1.34s1.24-.42,1.24-1.11a1.09,1.09,0,0,0-.83-1.1l-1.23-.44a2,2,0,0,1-1.61-2.17c0-1.41,1-2.07,2.57-2.07,1.92,0,2.36,1.12,2.36,2.06v.34Z"/><path d="M432.36,14.26c0,.28.17.54.39.54a.52.52,0,0,0,.25-.05v1a1.58,1.58,0,0,1-.74.19c-.67,0-1.23-.27-1.28-1h0A2,2,0,0,1,429.08,16c-1.22,0-2-.66-2-2.12a2.06,2.06,0,0,1,1.75-2.36l1.18-.33c.54-.15.88-.3.88-1s-.24-1.12-1-1.12c-1,0-1.15.71-1.15,1.44h-1.43C427.31,9,428,8.1,430,8.1c1.33,0,2.4.52,2.4,1.85Zm-1.43-2.41a11.23,11.23,0,0,1-1.68.7,1.23,1.23,0,0,0-.62,1.22c0,.63.31,1.14.94,1.14.91,0,1.36-.67,1.36-1.8Z"/><path d="M433.89,8.3h1.43v.88h.05A2.15,2.15,0,0,1,437.3,8.1c1.15,0,1.88.52,1.88,2v5.69h-1.52V10.66c0-1-.26-1.36-1.05-1.36-.61,0-1.2.47-1.2,1.48v5.05h-1.52Z"/><path d="M444.48,14.91h0A1.61,1.61,0,0,1,442.8,16c-1.75,0-2.47-1.49-2.47-4.06,0-3.35,1.18-3.87,2.33-3.87a1.74,1.74,0,0,1,1.71,1.08h0V5.83h1.51v10h-1.43ZM443.11,9.3c-.86,0-1.18.7-1.18,2.74,0,1.71.21,2.78,1.28,2.78s1.27-1.05,1.27-2.67C444.48,10.34,444.28,9.3,443.11,9.3Z"/><path d="M450.79,5.83h1.51v10h-1.51Z"/><path d="M455.13,12.26v.43c0,1,.13,2.3,1.26,2.3s1.21-1.22,1.21-1.68H459A2.48,2.48,0,0,1,456.38,16c-1.23,0-2.76-.37-2.76-3.85,0-2,.43-4.08,2.79-4.08,2.1,0,2.66,1.27,2.66,3.36v.8Zm2.43-1v-.4c0-1-.31-1.68-1.17-1.68s-1.26.95-1.26,1.93v.15Z"/><path d="M460.77,9.42h-1V8.3h1V7.6c0-1.42.69-1.88,1.92-1.88a6.47,6.47,0,0,1,.83,0V6.92h-.42c-.56,0-.81.21-.81.72V8.3h1.23V9.42h-1.23v6.41h-1.52Z"/><path d="M463.53,8.3h1V6.15h1.51V8.3h1.23V9.42h-1.23v4.49c0,.61.17.8.69.8a2.7,2.7,0,0,0,.54,0v1.12a5,5,0,0,1-1.21.13c-1,0-1.53-.3-1.53-1.82V9.42h-1Z"/><path d="M471.53,8.3H473v.88H473a2.1,2.1,0,0,1,1.8-1.08,1.63,1.63,0,0,1,1.75,1.15,2.07,2.07,0,0,1,1.91-1.15c1.06,0,1.83.55,1.83,2v5.73h-1.51V10.66c0-1-.29-1.36-.91-1.36s-1.2.48-1.2,1.48v5.05h-1.52V10.66c0-1-.29-1.36-.92-1.36S473,9.79,473,10.78v5.05h-1.51Z"/><path d="M486.76,14.26c0,.28.17.54.39.54a.52.52,0,0,0,.25-.05v1a1.55,1.55,0,0,1-.74.19c-.67,0-1.23-.27-1.27-1h0A2,2,0,0,1,483.48,16c-1.22,0-2-.66-2-2.12a2.06,2.06,0,0,1,1.75-2.36l1.18-.33c.55-.15.88-.3.88-1s-.24-1.12-1-1.12c-1,0-1.14.71-1.14,1.44h-1.43c0-1.61.66-2.48,2.65-2.48,1.33,0,2.39.52,2.39,1.85Zm-1.43-2.41a11.23,11.23,0,0,1-1.68.7,1.25,1.25,0,0,0-.62,1.22c0,.63.31,1.14.94,1.14.91,0,1.36-.67,1.36-1.8Z"/><path d="M488.3,8.3h1.43v.88h0A2.17,2.17,0,0,1,491.7,8.1c1.15,0,1.88.52,1.88,2v5.69h-1.51V10.66c0-1-.27-1.36-1.05-1.36-.62,0-1.21.47-1.21,1.48v5.05H488.3Z"/><path d="M496,8.3l1.3,5.66h0l1.21-5.66h1.58l-2.07,7.81c-.61,2.06-1.07,2.34-2.64,2.3a2.45,2.45,0,0,1-.6-.06v-1.2a2,2,0,0,0,.49.05c.52,0,.85-.09,1-.58l.2-.62-2.14-7.7Z"/><path d="M504.43,8.3h1.42v.88h0a2.1,2.1,0,0,1,1.8-1.08,1.63,1.63,0,0,1,1.75,1.15,2.07,2.07,0,0,1,1.91-1.15c1.06,0,1.83.55,1.83,2v5.73h-1.51V10.66c0-1-.29-1.36-.91-1.36s-1.2.48-1.2,1.48v5.05h-1.52V10.66c0-1-.29-1.36-.92-1.36s-1.19.49-1.19,1.48v5.05h-1.51Z"/><path d="M514.42,12.06c0-2.35.62-4,2.8-4s2.82,1.61,2.82,4-.73,4-2.82,4S514.42,14.42,514.42,12.06Zm2.8,2.85c1.11,0,1.31-.93,1.31-2.85,0-1.66-.2-2.84-1.31-2.84s-1.29,1.18-1.29,2.84C515.93,14,516.14,14.91,517.22,14.91Z"/><path d="M521.2,8.3h1.43v.88h0A2.17,2.17,0,0,1,524.6,8.1c1.15,0,1.88.52,1.88,2v5.69H525V10.66c0-1-.27-1.36-1.06-1.36-.61,0-1.2.47-1.2,1.48v5.05H521.2Z"/><path d="M531.78,15h0A2.17,2.17,0,0,1,529.81,16c-1.12,0-1.88-.52-1.88-2.47V8.3h1.51v5.4c0,.84.37,1.12,1,1.12a1.18,1.18,0,0,0,1.23-1.26V8.3h1.51v7.53h-1.43Z"/><path d="M534.73,8.3h1.43v.88h.05A2.1,2.1,0,0,1,538,8.1a1.63,1.63,0,0,1,1.75,1.15,2.07,2.07,0,0,1,1.91-1.15c1.06,0,1.83.55,1.83,2v5.73H542V10.66c0-1-.29-1.36-.91-1.36s-1.2.48-1.2,1.48v5.05h-1.52V10.66c0-1-.29-1.36-.92-1.36s-1.19.49-1.19,1.48v5.05h-1.52Z"/><path d="M546.33,12.26v.43c0,1,.12,2.3,1.26,2.3s1.2-1.22,1.2-1.68h1.43A2.48,2.48,0,0,1,547.57,16c-1.23,0-2.76-.37-2.76-3.85,0-2,.44-4.08,2.79-4.08,2.1,0,2.66,1.27,2.66,3.36v.8Zm2.42-1v-.4c0-1-.31-1.68-1.16-1.68s-1.26.95-1.26,1.93v.15Z"/><path d="M551.51,8.3h1.43v.88h0a2.17,2.17,0,0,1,1.93-1.08c1.15,0,1.88.52,1.88,2v5.69h-1.52V10.66c0-1-.26-1.36-1-1.36-.61,0-1.2.47-1.2,1.48v5.05h-1.51Z"/><path d="M557.57,8.3h1V6.15h1.52V8.3h1.23V9.42h-1.23v4.49c0,.61.17.8.68.8a2.75,2.75,0,0,0,.55,0v1.12a5.11,5.11,0,0,1-1.22.13c-1,0-1.53-.3-1.53-1.82V9.42h-1Z"/><path d="M565.38,10.5v-.2c0-.6-.21-1.16-1-1.16-.6,0-1.08.26-1.08,1s.27.82,1.06,1.1l1,.34A2,2,0,0,1,567,13.73c0,1.61-1.19,2.3-2.7,2.3-1.91,0-2.48-.88-2.48-2.34v-.28h1.34v.24c0,.88.3,1.34,1.18,1.34s1.23-.42,1.23-1.11a1.09,1.09,0,0,0-.83-1.1l-1.23-.44a2,2,0,0,1-1.61-2.17c0-1.41,1-2.07,2.58-2.07,1.92,0,2.35,1.12,2.35,2.06v.34Z"/><path d="M389.8,44.39h2l2.64,10h-1.67l-.62-2.45h-2.93l-.64,2.45H387Zm2.13,6.28-1.15-4.93h0l-1.19,4.93Z"/><path d="M400.16,51.65c-.11,1.8-.7,2.94-2.58,2.94-2.18,0-2.8-1.61-2.8-4s.62-4,2.8-4a2.43,2.43,0,0,1,2.59,2.7h-1.51c0-.7-.18-1.62-1.08-1.58-1.08,0-1.29,1.18-1.29,2.84s.21,2.85,1.29,2.85c.84,0,1.15-.69,1.15-1.82Z"/><path d="M401.2,44.39h1.52v3.28l0,0a2.14,2.14,0,0,1,1.85-1c1.15,0,1.88.52,1.88,2.05v5.68H405V49.22c0-1-.28-1.35-1.05-1.35-.61,0-1.2.47-1.2,1.47v5H401.2Z"/><path d="M412.88,52.82c0,.28.17.54.4.54a.55.55,0,0,0,.25,0v1a1.58,1.58,0,0,1-.74.19c-.68,0-1.24-.27-1.28-1h0a1.93,1.93,0,0,1-1.87,1.11c-1.22,0-2-.66-2-2.12a2.07,2.07,0,0,1,1.76-2.36l1.17-.33c.55-.15.88-.3.88-1s-.23-1.12-1-1.12c-1,0-1.15.71-1.15,1.44h-1.43c0-1.61.66-2.48,2.65-2.48,1.33,0,2.39.52,2.39,1.85Zm-1.43-2.4a13.18,13.18,0,0,1-1.68.7,1.23,1.23,0,0,0-.61,1.21c0,.63.3,1.14.94,1.14.91,0,1.35-.67,1.35-1.79Z"/><path d="M414.49,44.28H416v1.51h-1.51Zm0,2.58H416v7.53h-1.51Z"/><path d="M422.61,51.65c-.11,1.8-.7,2.94-2.57,2.94-2.19,0-2.81-1.61-2.81-4s.62-4,2.81-4a2.43,2.43,0,0,1,2.59,2.7h-1.52c0-.7-.18-1.62-1.07-1.58-1.08,0-1.29,1.18-1.29,2.84s.21,2.85,1.29,2.85c.84,0,1.14-.69,1.14-1.82Z"/><path d="M430.35,54.59a1.72,1.72,0,0,1-1.7-1.08h0v3.35H427.1v-10h1.43v.92h0a1.79,1.79,0,0,1,1.7-1.12c1.72,0,2.42,1.47,2.42,4.06C432.68,53.89,431.4,54.59,430.35,54.59Zm-.54-6.72c-1,0-1.28,1.05-1.28,2.67,0,1.81.23,2.84,1.29,2.84.86,0,1.26-.64,1.26-2.73C431.08,48.94,430.87,47.87,429.81,47.87Z"/><path d="M435.14,50.82v.44c0,1,.13,2.29,1.26,2.29s1.21-1.22,1.21-1.68H439a2.47,2.47,0,0,1-2.64,2.72c-1.24,0-2.76-.36-2.76-3.85,0-2,.43-4.08,2.78-4.08,2.11,0,2.67,1.28,2.67,3.36v.8Zm2.42-1v-.4c0-1-.3-1.68-1.16-1.68s-1.26.95-1.26,1.93v.15Z"/><path d="M440.32,46.86h1.51V48h0a1.87,1.87,0,0,1,1.75-1.37.77.77,0,0,1,.37.06v1.54a2.23,2.23,0,0,0-.63-.09c-.69,0-1.52.31-1.52,1.71v4.51h-1.51Z"/><path d="M444.8,44.28h1.51v1.51H444.8Zm0,2.58h1.51v7.53H444.8Z"/><path d="M447.54,50.62c0-2.35.62-4,2.8-4s2.82,1.61,2.82,4-.73,4-2.82,4S447.54,53,447.54,50.62Zm2.8,2.85c1.11,0,1.31-.93,1.31-2.85,0-1.66-.2-2.84-1.31-2.84s-1.28,1.18-1.28,2.84C449.06,52.54,449.27,53.47,450.34,53.47Z"/><path d="M458.17,53.47h0a1.6,1.6,0,0,1-1.65,1.12c-1.75,0-2.46-1.49-2.46-4.06,0-3.35,1.17-3.87,2.32-3.87a1.74,1.74,0,0,1,1.71,1.08h0V44.39h1.51v10h-1.43Zm-1.37-5.6c-.85,0-1.18.7-1.18,2.73,0,1.71.21,2.78,1.28,2.78s1.27-1.05,1.27-2.67C458.17,48.9,458,47.87,456.8,47.87Z"/><path d="M464.48,44.28H466v1.51h-1.52Zm0,2.58H466v7.53h-1.52Z"/><path d="M467.52,46.86H469v.88h0a2.17,2.17,0,0,1,1.93-1.08c1.15,0,1.88.52,1.88,2.05v5.68h-1.51V49.22c0-1-.27-1.35-1.05-1.35-.62,0-1.21.46-1.21,1.47v5h-1.51Z"/><path d="M482.56,52.82c0,.28.17.54.39.54a.52.52,0,0,0,.25,0v1a1.58,1.58,0,0,1-.74.19c-.67,0-1.23-.27-1.27-1h0a1.94,1.94,0,0,1-1.88,1.11c-1.22,0-2-.66-2-2.12a2.06,2.06,0,0,1,1.75-2.36l1.18-.33c.54-.15.88-.3.88-1s-.24-1.12-1-1.12c-1,0-1.14.71-1.14,1.44h-1.43c0-1.61.65-2.48,2.64-2.48,1.33,0,2.4.52,2.4,1.85Zm-1.43-2.4a13.82,13.82,0,0,1-1.68.7,1.22,1.22,0,0,0-.62,1.21c0,.63.31,1.14.94,1.14.91,0,1.36-.67,1.36-1.79Z"/><path d="M484.1,46.86h1.51V48h0a1.85,1.85,0,0,1,1.75-1.37.73.73,0,0,1,.36.06v1.54a2.11,2.11,0,0,0-.63-.09c-.68,0-1.51.31-1.51,1.71v4.51H484.1Z"/><path d="M487.83,46.86h1V44.71h1.51v2.15h1.24V48h-1.24v4.49c0,.61.17.8.69.8a2.81,2.81,0,0,0,.55,0v1.12a4.69,4.69,0,0,1-1.22.13c-1,0-1.53-.3-1.53-1.82V48h-1Z"/><path d="M492.55,52.54h1.6v1.85h-1.6Z"/><path d="M421.27,93.75l-2.4-4.92h1.76l1.6,3.32,1.57-3.32h1.72l-2.42,4.92,2.54,5.08h-1.76l-1.74-3.61-1.78,3.61h-1.72Z"/><path d="M425.56,88.83h1.69l1.7,8h0l1.79-8h1.69l-2.52,10h-2Z"/><path d="M433.13,88.83h1.6v10h-1.6Z"/><path d="M436.24,88.83h1.6v10h-1.6Z"/><path d="M439.35,88.83h1.59v10h-1.59Z"/><path d="M441.75,91.29h1V89.15h1.51v2.14h1.23v1.13H444.3v4.49c0,.6.17.8.69.8a2.7,2.7,0,0,0,.54,0v1.12a5,5,0,0,1-1.21.13c-1,0-1.53-.3-1.53-1.83V92.42h-1Z"/><path d="M446.32,88.83h1.51v3.28l0,0a2.16,2.16,0,0,1,1.85-1c1.15,0,1.88.52,1.88,2v5.69h-1.52V93.66c0-1-.28-1.36-1.05-1.36-.61,0-1.2.48-1.2,1.47v5.06h-1.51Z"/><path d="M456.51,88.83h2.84c3.14,0,3.53,2,3.53,5s-.39,5-3.53,5h-2.84Zm1.59,8.8h1.32c1.32,0,1.87-.87,1.87-3.8s-.48-3.8-1.87-3.8H458.1Z"/><path d="M465.2,91.29,466.51,97h0l1.21-5.66h1.58l-2.07,7.82c-.6,2.06-1.07,2.34-2.64,2.3a3.05,3.05,0,0,1-.6-.06v-1.2a2,2,0,0,0,.49,0c.52,0,.86-.09,1-.58l.19-.62-2.14-7.71Z"/><path d="M470.16,91.29h1.43v.89h0a2.17,2.17,0,0,1,1.93-1.08c1.15,0,1.88.52,1.88,2v5.69h-1.51V93.66c0-1-.27-1.36-1.05-1.36-.62,0-1.21.47-1.21,1.47v5.06h-1.51Z"/><path d="M481.84,97.26c0,.28.16.53.39.53a.54.54,0,0,0,.25,0v1a1.58,1.58,0,0,1-.74.19c-.67,0-1.23-.27-1.28-1h0A2,2,0,0,1,478.56,99c-1.22,0-2-.66-2-2.12a2.08,2.08,0,0,1,1.75-2.37l1.18-.32c.54-.15.88-.31.88-1s-.24-1.12-1-1.12c-1,0-1.15.71-1.15,1.44h-1.43c0-1.61.66-2.48,2.65-2.48,1.33,0,2.4.52,2.4,1.85Zm-1.43-2.41a11.23,11.23,0,0,1-1.68.7,1.23,1.23,0,0,0-.62,1.22c0,.63.31,1.14.94,1.14.91,0,1.36-.68,1.36-1.8Z"/><path d="M486.62,93.49V93.3c0-.6-.21-1.16-1-1.16-.6,0-1.08.26-1.08,1s.27.82,1.07,1.1l1,.34a2,2,0,0,1,1.64,2.17c0,1.61-1.19,2.3-2.7,2.3-1.91,0-2.48-.89-2.48-2.34v-.28h1.34v.24c0,.88.3,1.34,1.18,1.34s1.23-.42,1.23-1.11a1.09,1.09,0,0,0-.82-1.1l-1.24-.44a2,2,0,0,1-1.61-2.17c0-1.41,1-2.07,2.58-2.07,1.92,0,2.35,1.12,2.35,2.06v.33Z"/><path d="M488.67,91.29h1V89.15h1.52v2.14h1.23v1.13h-1.23v4.49c0,.6.16.8.68.8a2.75,2.75,0,0,0,.55,0v1.12a5.11,5.11,0,0,1-1.22.13c-1,0-1.53-.3-1.53-1.83V92.42h-1Z"/><path d="M494.24,91.29l1.3,5.66h0l1.2-5.66h1.59l-2.08,7.82c-.6,2.06-1.06,2.34-2.63,2.3a3.05,3.05,0,0,1-.6-.06v-1.2a2,2,0,0,0,.49,0c.52,0,.85-.09,1-.58l.2-.62-2.15-7.71Z"/><path d="M522,89.83h1.59v4h2.95v-4h1.59v10h-1.59V95.18h-2.95v4.65H522Z"/><path d="M530.69,92.3,532,98h0l1.21-5.66h1.58l-2.07,7.81c-.61,2.06-1.07,2.34-2.64,2.3a2.45,2.45,0,0,1-.6-.06v-1.2a2,2,0,0,0,.49,0c.52,0,.86-.09,1-.58l.2-.62-2.14-7.7Z"/><path d="M535.65,89.83h1.51v5.62h0l2.28-3.15,1.75,0L539,95.2l2.57,4.63h-1.66L538,96.4l-.85,1v2.39h-1.51Z"/><path d="M545.38,94.5v-.2c0-.6-.21-1.16-1-1.16-.6,0-1.07.26-1.07,1s.26.82,1.06,1.1l1,.34A2,2,0,0,1,547,97.73c0,1.61-1.2,2.3-2.71,2.3-1.9,0-2.48-.88-2.48-2.34v-.28h1.35v.24c0,.88.29,1.34,1.17,1.34s1.24-.42,1.24-1.11a1.09,1.09,0,0,0-.83-1.1l-1.23-.44a2,2,0,0,1-1.61-2.17c0-1.41,1-2.07,2.57-2.07,1.92,0,2.36,1.12,2.36,2.06v.34Z"/><path d="M547.8,96.06c0-2.35.61-4,2.8-4s2.82,1.61,2.82,4-.73,4-2.82,4S547.8,98.42,547.8,96.06Zm2.8,2.85c1.11,0,1.3-.93,1.3-2.85,0-1.66-.19-2.84-1.3-2.84s-1.29,1.18-1.29,2.84C549.31,98,549.52,98.91,550.6,98.91Z"/><path d="M557.82,94.5v-.2c0-.6-.21-1.16-1-1.16-.6,0-1.08.26-1.08,1s.27.82,1.07,1.1l1,.34a2,2,0,0,1,1.64,2.17c0,1.61-1.19,2.3-2.7,2.3-1.91,0-2.48-.88-2.48-2.34v-.28h1.34v.24c0,.88.3,1.34,1.18,1.34s1.23-.42,1.23-1.11a1.09,1.09,0,0,0-.82-1.1l-1.24-.44a2,2,0,0,1-1.61-2.17c0-1.41,1-2.07,2.58-2.07,1.92,0,2.35,1.12,2.35,2.06v.34Z"/><path d="M565.2,96.26v.43c0,1,.13,2.3,1.26,2.3s1.21-1.22,1.21-1.68h1.43a2.48,2.48,0,0,1-2.65,2.72c-1.24,0-2.76-.37-2.76-3.85,0-2,.43-4.08,2.79-4.08,2.1,0,2.66,1.27,2.66,3.36v.8Zm2.42-1v-.4c0-1-.3-1.68-1.16-1.68s-1.26,1-1.26,1.93v.15Z"/><path d="M571.67,95.92l-1.95-3.62h1.65l1.18,2.49,1.23-2.49h1.63l-2,3.62,2,3.91h-1.64L572.54,97l-1.32,2.79h-1.61Z"/><path d="M579.51,100A1.74,1.74,0,0,1,577.8,99h0v3.35h-1.51v-10h1.43v.92h0a1.78,1.78,0,0,1,1.69-1.12c1.72,0,2.42,1.47,2.42,4.06C581.83,99.33,580.56,100,579.51,100ZM579,93.3c-1,0-1.27,1-1.27,2.68,0,1.81.22,2.84,1.29,2.84.85,0,1.26-.64,1.26-2.73C580.24,94.38,580,93.3,579,93.3Z"/><path d="M584.3,96.26v.43c0,1,.12,2.3,1.26,2.3s1.2-1.22,1.2-1.68h1.43a2.48,2.48,0,0,1-2.65,2.72c-1.23,0-2.76-.37-2.76-3.85,0-2,.44-4.08,2.79-4.08,2.1,0,2.66,1.27,2.66,3.36v.8Zm2.42-1v-.4c0-1-.31-1.68-1.16-1.68s-1.26,1-1.26,1.93v.15Z"/><path d="M589.55,89.83h1.51v10h-1.51Z"/><path d="M592.65,89.83h1.52v10h-1.52Z"/><path d="M597,96.26v.43c0,1,.13,2.3,1.27,2.3s1.2-1.22,1.2-1.68h1.43a2.48,2.48,0,0,1-2.65,2.72c-1.23,0-2.76-.37-2.76-3.85,0-2,.44-4.08,2.79-4.08,2.1,0,2.66,1.27,2.66,3.36v.8Zm2.43-1v-.4c0-1-.31-1.68-1.16-1.68s-1.27,1-1.27,1.93v.15Z"/><path d="M606,98.91h0a1.61,1.61,0,0,1-1.66,1.12c-1.75,0-2.46-1.49-2.46-4.06,0-3.35,1.18-3.87,2.32-3.87a1.74,1.74,0,0,1,1.71,1.08h0V89.83h1.51v10H606Zm-1.38-5.61c-.85,0-1.17.7-1.17,2.74,0,1.71.21,2.78,1.27,2.78s1.28-1,1.28-2.67C606,94.34,605.83,93.3,604.65,93.3Z"/><path d="M612.27,89.83h1.51v3.35h0a1.74,1.74,0,0,1,1.71-1.08c1.15,0,2.32.52,2.32,3.87,0,2.59-.71,4.06-2.46,4.06a1.62,1.62,0,0,1-1.66-1.12h0v.92h-1.43Zm2.7,9c1.07,0,1.28-1.07,1.28-2.78,0-2-.33-2.74-1.18-2.74-1.18,0-1.37,1-1.37,2.85C613.7,97.77,613.93,98.82,615,98.82Z"/><path d="M619.84,92.3l1.3,5.66h0l1.21-5.66H624l-2.07,7.81c-.61,2.06-1.07,2.34-2.64,2.3a2.45,2.45,0,0,1-.6-.06v-1.2a2,2,0,0,0,.49,0c.52,0,.86-.09,1-.58l.2-.62-2.14-7.7Z"/></g></g><g id="Ageans"><g id="Title"><g id="small-2" data-name="small"><path d="M110.06,11.1c0,.28.17.53.4.53a.57.57,0,0,0,.25,0v1a1.58,1.58,0,0,1-.74.18c-.68,0-1.24-.27-1.28-1h0a1.94,1.94,0,0,1-1.87,1.1c-1.22,0-2-.66-2-2.11a2.08,2.08,0,0,1,1.75-2.37l1.17-.32c.55-.16.89-.31.89-1S108.4,6,107.6,6c-1,0-1.15.71-1.15,1.44H105c0-1.61.66-2.48,2.65-2.48,1.33,0,2.39.52,2.39,1.85Zm-1.42-2.41a12,12,0,0,1-1.69.7,1.24,1.24,0,0,0-.61,1.22c0,.63.31,1.13.94,1.13.91,0,1.36-.67,1.36-1.79Z"/><path d="M111.6,5.13H113V6h0A2.18,2.18,0,0,1,115,4.93c1.14,0,1.87.52,1.87,2.05v5.69h-1.51V7.5c0-1-.27-1.36-1.05-1.36-.62,0-1.21.46-1.21,1.47v5.06H111.6Z"/><path d="M122.19,11.74h0a1.61,1.61,0,0,1-1.65,1.12c-1.75,0-2.47-1.48-2.47-4.06,0-3.35,1.18-3.87,2.33-3.87A1.75,1.75,0,0,1,122.08,6h0V2.66h1.52v10h-1.43Zm-1.38-5.6c-.85,0-1.17.7-1.17,2.73,0,1.71.21,2.79,1.27,2.79s1.28-1.05,1.28-2.68C122.19,7.17,122,6.14,120.81,6.14Z"/><path d="M128.43,5.13h1.51V6.31h0a1.88,1.88,0,0,1,1.75-1.38.92.92,0,0,1,.37.06V6.53a2.32,2.32,0,0,0-.64-.08c-.68,0-1.51.3-1.51,1.71v4.51h-1.51Z"/><path d="M137.7,11.1c0,.28.17.53.39.53a.54.54,0,0,0,.25,0v1a1.55,1.55,0,0,1-.74.18c-.67,0-1.23-.27-1.27-1h0a2,2,0,0,1-1.88,1.1c-1.22,0-2-.66-2-2.11a2.08,2.08,0,0,1,1.75-2.37l1.18-.32c.54-.16.88-.31.88-1S136,6,135.23,6c-1,0-1.14.71-1.14,1.44h-1.43c0-1.61.66-2.48,2.64-2.48,1.34,0,2.4.52,2.4,1.85Zm-1.43-2.41a12.39,12.39,0,0,1-1.68.7,1.25,1.25,0,0,0-.62,1.22c0,.63.31,1.13.94,1.13.91,0,1.36-.67,1.36-1.79Z"/><path d="M142.49,12.86a1.72,1.72,0,0,1-1.71-1.08h0v3.35h-1.51v-10h1.43v.92h0a1.8,1.8,0,0,1,1.7-1.12c1.72,0,2.42,1.47,2.42,4.07C144.81,12.16,143.54,12.86,142.49,12.86Zm-.55-6.72c-1,0-1.27,1.05-1.27,2.67,0,1.81.22,2.85,1.28,2.85.86,0,1.27-.65,1.27-2.73C143.22,7.22,143,6.14,141.94,6.14Z"/><path d="M146,2.55h1.51V4.07H146Zm0,2.58h1.51v7.54H146Z"/><path d="M152.93,11.74h0a1.61,1.61,0,0,1-1.65,1.12c-1.75,0-2.47-1.48-2.47-4.06,0-3.35,1.18-3.87,2.33-3.87A1.74,1.74,0,0,1,152.82,6h0V2.66h1.51v10h-1.43Zm-1.37-5.6c-.86,0-1.18.7-1.18,2.73,0,1.71.21,2.79,1.28,2.79s1.27-1.05,1.27-2.68C152.93,7.17,152.73,6.14,151.56,6.14Z"/><path d="M164.12,11.1c0,.28.17.53.39.53a.54.54,0,0,0,.25,0v1a1.58,1.58,0,0,1-.74.18c-.67,0-1.23-.27-1.28-1h0a2,2,0,0,1-1.88,1.1c-1.22,0-2-.66-2-2.11a2.08,2.08,0,0,1,1.75-2.37l1.18-.32c.54-.16.88-.31.88-1s-.24-1.12-1-1.12c-1,0-1.15.71-1.15,1.44h-1.43c0-1.61.66-2.48,2.65-2.48,1.33,0,2.4.52,2.4,1.85Zm-1.43-2.41a12.39,12.39,0,0,1-1.68.7,1.23,1.23,0,0,0-.62,1.22c0,.63.31,1.13.94,1.13.91,0,1.36-.67,1.36-1.79Z"/><path d="M169.51,11.74h0a1.61,1.61,0,0,1-1.65,1.12c-1.76,0-2.47-1.48-2.47-4.06,0-3.35,1.18-3.87,2.33-3.87A1.74,1.74,0,0,1,169.39,6h0V2.66h1.52v10h-1.43Zm-1.38-5.6c-.85,0-1.17.7-1.17,2.73,0,1.71.21,2.79,1.27,2.79s1.28-1.05,1.28-2.68C169.51,7.17,169.31,6.14,168.13,6.14Z"/><path d="M171.76,5.13h1.62l1.32,5.94h0l1.19-5.94h1.61l-2,7.54h-1.76Z"/><path d="M183.13,11.1c0,.28.17.53.39.53a.54.54,0,0,0,.25,0v1a1.55,1.55,0,0,1-.74.18c-.67,0-1.23-.27-1.27-1h0a2,2,0,0,1-1.88,1.1c-1.22,0-2-.66-2-2.11a2.08,2.08,0,0,1,1.75-2.37l1.18-.32c.54-.16.88-.31.88-1s-.24-1.12-1-1.12c-1,0-1.14.71-1.14,1.44h-1.43c0-1.61.65-2.48,2.64-2.48,1.33,0,2.4.52,2.4,1.85ZM181.7,8.69a12.39,12.39,0,0,1-1.68.7,1.25,1.25,0,0,0-.62,1.22c0,.63.31,1.13.94,1.13.91,0,1.36-.67,1.36-1.79Z"/><path d="M184.67,5.13h1.43V6h0a2.17,2.17,0,0,1,1.93-1.08c1.15,0,1.88.52,1.88,2.05v5.69h-1.52V7.5c0-1-.26-1.36-1.05-1.36-.61,0-1.2.46-1.2,1.47v5.06h-1.51Z"/><path d="M196.48,9.92c-.11,1.81-.7,2.94-2.57,2.94-2.19,0-2.8-1.61-2.8-4s.61-4,2.8-4a2.44,2.44,0,0,1,2.59,2.71H195c0-.7-.19-1.63-1.08-1.59-1.08,0-1.29,1.18-1.29,2.85s.21,2.84,1.29,2.84c.84,0,1.15-.68,1.15-1.82Z"/><path d="M198.92,9.09v.44c0,1,.12,2.3,1.26,2.3s1.2-1.22,1.2-1.69h1.43a2.48,2.48,0,0,1-2.64,2.72c-1.24,0-2.76-.36-2.76-3.85,0-2,.43-4.08,2.78-4.08,2.1,0,2.66,1.28,2.66,3.37v.79Zm2.42-1V7.65c0-1-.31-1.68-1.16-1.68s-1.26,1-1.26,1.93v.16Z"/><path d="M129.87,31.9c0-2.36.61-4,2.8-4s2.82,1.61,2.82,4-.73,4-2.82,4S129.87,34.25,129.87,31.9Zm2.8,2.84c1.11,0,1.3-.92,1.3-2.84,0-1.67-.19-2.85-1.3-2.85s-1.29,1.18-1.29,2.85C131.38,33.82,131.59,34.74,132.67,34.74Z"/><path d="M137.11,29.25h-1.05V28.13h1.05v-.7c0-1.42.68-1.88,1.92-1.88.32,0,.6,0,.82,0v1.17h-.42c-.56,0-.81.21-.81.71v.66h1.23v1.12h-1.23v6.42h-1.51Z"/><path d="M149,32.92c-.11,1.81-.7,2.94-2.58,2.94-2.18,0-2.8-1.61-2.8-4s.62-4,2.8-4a2.45,2.45,0,0,1,2.6,2.71h-1.52c0-.7-.18-1.63-1.08-1.59-1.07,0-1.28,1.18-1.28,2.85s.21,2.84,1.28,2.84c.84,0,1.15-.68,1.15-1.82Z"/><path d="M150.18,25.55h1.51v1.52h-1.51Zm0,2.58h1.51v7.54h-1.51Z"/><path d="M152.59,28.13h1.62l1.32,5.94h0l1.19-5.94h1.61l-2,7.54h-1.76Z"/><path d="M159.25,25.55h1.52v1.52h-1.52Zm0,2.58h1.52v7.54h-1.52Z"/><path d="M162.36,25.66h1.51v10h-1.51Z"/><path d="M165.47,25.55H167v1.52h-1.51Zm0,2.58H167v7.54h-1.51Z"/><path d="M171.76,30.33v-.2c0-.6-.21-1.16-1-1.16-.6,0-1.08.27-1.08,1s.27.83,1.07,1.11l1,.33a2,2,0,0,1,1.63,2.17c0,1.62-1.19,2.3-2.7,2.3-1.9,0-2.48-.88-2.48-2.34v-.28h1.35v.24c0,.88.29,1.35,1.17,1.35s1.24-.42,1.24-1.11a1.09,1.09,0,0,0-.83-1.11l-1.23-.43A2,2,0,0,1,168.26,30c0-1.42,1-2.08,2.57-2.08,1.92,0,2.36,1.12,2.36,2.06v.34Z"/><path d="M179.42,34.1c0,.28.16.53.39.53a.57.57,0,0,0,.25,0v1a1.58,1.58,0,0,1-.74.18c-.67,0-1.23-.27-1.28-1h0a2,2,0,0,1-1.88,1.1c-1.22,0-2-.66-2-2.11a2.08,2.08,0,0,1,1.75-2.37l1.17-.32c.55-.16.89-.31.89-1S177.75,29,177,29c-1,0-1.15.71-1.15,1.44h-1.43c0-1.61.66-2.48,2.65-2.48,1.33,0,2.4.52,2.4,1.85ZM178,31.69a12.39,12.39,0,0,1-1.68.7,1.23,1.23,0,0,0-.62,1.22c0,.63.31,1.13.94,1.13.91,0,1.36-.67,1.36-1.79Z"/><path d="M180.28,28.13h1V26h1.51v2.14h1.23v1.12h-1.23v4.5c0,.6.17.8.69.8a2.61,2.61,0,0,0,.54,0v1.12a4.64,4.64,0,0,1-1.22.13c-1,0-1.52-.29-1.52-1.82V29.25h-1Z"/><path d="M184.92,25.55h1.51v1.52h-1.51Zm0,2.58h1.51v7.54h-1.51Z"/><path d="M187.66,31.9c0-2.36.62-4,2.8-4s2.82,1.61,2.82,4-.73,4-2.82,4S187.66,34.25,187.66,31.9Zm2.8,2.84c1.11,0,1.3-.92,1.3-2.84,0-1.67-.19-2.85-1.3-2.85s-1.29,1.18-1.29,2.85C189.17,33.82,189.38,34.74,190.46,34.74Z"/><path d="M194.44,28.13h1.42V29h0a2.15,2.15,0,0,1,1.93-1.08c1.15,0,1.88.52,1.88,2.05v5.69H198.2V30.5c0-1-.26-1.36-1-1.36-.61,0-1.2.46-1.2,1.47v5.06h-1.51Z"/><path d="M122.15,51.13h1V49h1.52v2.14h1.23v1.12H124.7v4.5c0,.6.16.8.68.8a2.64,2.64,0,0,0,.55,0v1.12a4.64,4.64,0,0,1-1.22.13c-1,0-1.53-.29-1.53-1.82V52.25h-1Z"/><path d="M126.42,54.9c0-2.36.61-4,2.8-4s2.81,1.61,2.81,4-.72,4-2.81,4S126.42,57.25,126.42,54.9Zm2.8,2.84c1.11,0,1.3-.92,1.3-2.84,0-1.67-.19-2.85-1.3-2.85s-1.29,1.18-1.29,2.85C127.93,56.82,128.14,57.74,129.22,57.74Z"/><path d="M136.62,51.13h1.43V52h0a2.13,2.13,0,0,1,1.81-1.08,1.63,1.63,0,0,1,1.75,1.15,2.07,2.07,0,0,1,1.91-1.15c1.06,0,1.83.55,1.83,2v5.73h-1.51V53.5c0-1-.29-1.36-.91-1.36s-1.21.47-1.21,1.47v5.06h-1.51V53.5c0-1-.29-1.36-.92-1.36s-1.19.49-1.19,1.47v5.06h-1.52Z"/><path d="M146.62,54.9c0-2.36.62-4,2.8-4s2.82,1.61,2.82,4-.73,4-2.82,4S146.62,57.25,146.62,54.9Zm2.8,2.84c1.11,0,1.3-.92,1.3-2.84,0-1.67-.19-2.85-1.3-2.85s-1.29,1.18-1.29,2.85C148.13,56.82,148.34,57.74,149.42,57.74Z"/><path d="M156.64,53.33v-.2c0-.6-.21-1.16-1-1.16-.6,0-1.08.27-1.08,1s.27.83,1.07,1.11l1,.33a2,2,0,0,1,1.64,2.17c0,1.62-1.19,2.3-2.7,2.3-1.91,0-2.48-.88-2.48-2.34v-.28h1.34v.24c0,.88.3,1.35,1.18,1.35s1.23-.42,1.23-1.11a1.09,1.09,0,0,0-.82-1.11l-1.24-.43A2,2,0,0,1,153.14,53c0-1.42,1-2.08,2.58-2.08,1.92,0,2.35,1.12,2.35,2.06v.34Z"/><path d="M158.69,51.13h1V49h1.52v2.14h1.23v1.12h-1.23v4.5c0,.6.16.8.68.8a2.64,2.64,0,0,0,.55,0v1.12a4.64,4.64,0,0,1-1.22.13c-1,0-1.53-.29-1.53-1.82V52.25h-1Z"/><path d="M166.61,48.66h1.51V52h0a1.74,1.74,0,0,1,1.71-1.08c1.15,0,2.33.52,2.33,3.87,0,2.59-.72,4.06-2.47,4.06a1.61,1.61,0,0,1-1.65-1.12h0v.93h-1.43Zm2.7,9c1.07,0,1.28-1.08,1.28-2.79,0-2-.32-2.73-1.18-2.73-1.17,0-1.37,1-1.37,2.84C168,56.61,168.28,57.66,169.31,57.66Z"/><path d="M173.35,51.13h1.51v1.18h0a1.86,1.86,0,0,1,1.75-1.38A.87.87,0,0,1,177,51v1.54a2.18,2.18,0,0,0-.63-.08c-.69,0-1.51.3-1.51,1.71v4.51h-1.51Z"/><path d="M177.82,48.55h1.52v1.52h-1.52Zm0,2.58h1.52v7.54h-1.52Z"/><path d="M180.93,48.66h1.52v10h-1.52Z"/><path d="M184,48.66h1.51v10H184Z"/><path d="M187.15,48.55h1.51v1.52h-1.51Zm0,2.58h1.51v7.54h-1.51Z"/><path d="M195.13,57.1c0,.28.17.53.39.53a.59.59,0,0,0,.26,0v1a1.63,1.63,0,0,1-.75.18c-.67,0-1.23-.27-1.27-1h0a2,2,0,0,1-1.88,1.1c-1.22,0-2-.66-2-2.11a2.08,2.08,0,0,1,1.75-2.37l1.18-.32c.55-.16.88-.31.88-1s-.24-1.12-1-1.12c-1,0-1.15.71-1.15,1.44h-1.43c0-1.61.66-2.48,2.65-2.48,1.33,0,2.39.52,2.39,1.85Zm-1.43-2.41a12.39,12.39,0,0,1-1.68.7,1.24,1.24,0,0,0-.61,1.22c0,.63.3,1.13.93,1.13.91,0,1.36-.67,1.36-1.79Z"/><path d="M196.67,51.13h1.43V52h0a2.17,2.17,0,0,1,1.93-1.08c1.15,0,1.88.52,1.88,2v5.69h-1.51V53.5c0-1-.27-1.36-1.05-1.36-.62,0-1.21.46-1.21,1.47v5.06h-1.51Z"/><path d="M202.73,51.13h1V49h1.51v2.14h1.23v1.12h-1.23v4.5c0,.6.17.8.69.8a2.61,2.61,0,0,0,.54,0v1.12a4.64,4.64,0,0,1-1.22.13c-1,0-1.52-.29-1.52-1.82V52.25h-1Z"/><path d="M213.9,58.86a1.73,1.73,0,0,1-1.71-1.08h0v3.35h-1.52v-10h1.43v.92h0a1.79,1.79,0,0,1,1.7-1.12c1.72,0,2.42,1.47,2.42,4.07C216.23,58.16,215,58.86,213.9,58.86Zm-.54-6.72c-1,0-1.28,1-1.28,2.67,0,1.81.23,2.85,1.29,2.85.86,0,1.26-.65,1.26-2.73C214.63,53.22,214.42,52.14,213.36,52.14Z"/><path d="M218.69,55.09v.44c0,1,.13,2.3,1.26,2.3s1.21-1.22,1.21-1.69h1.42a2.47,2.47,0,0,1-2.64,2.72c-1.24,0-2.76-.36-2.76-3.85,0-2,.43-4.08,2.79-4.08,2.1,0,2.66,1.28,2.66,3.37v.79Zm2.42-1v-.41c0-.95-.3-1.68-1.16-1.68s-1.26,1-1.26,1.93v.16Z"/><path d="M223.87,51.13h1.51v1.18h0a1.88,1.88,0,0,1,1.75-1.38.92.92,0,0,1,.37.06v1.54a2.3,2.3,0,0,0-.63-.08c-.69,0-1.52.3-1.52,1.71v4.51h-1.51Z"/><path d="M228.35,48.55h1.51v1.52h-1.51Zm0,2.58h1.51v7.54h-1.51Z"/><path d="M231.09,54.9c0-2.36.62-4,2.8-4s2.82,1.61,2.82,4-.73,4-2.82,4S231.09,57.25,231.09,54.9Zm2.8,2.84c1.11,0,1.31-.92,1.31-2.84,0-1.67-.2-2.85-1.31-2.85s-1.28,1.18-1.28,2.85C232.61,56.82,232.82,57.74,233.89,57.74Z"/><path d="M241.72,57.74h0A1.6,1.6,0,0,1,240,58.86c-1.75,0-2.46-1.48-2.46-4.06,0-3.35,1.17-3.87,2.32-3.87A1.74,1.74,0,0,1,241.61,52h0V48.66h1.51v10h-1.43Zm-1.37-5.6c-.86,0-1.18.7-1.18,2.73,0,1.71.21,2.79,1.28,2.79s1.27-1,1.27-2.68C241.72,53.17,241.53,52.14,240.35,52.14Z"/><path d="M154.35,77.9c0-2.36.61-4,2.8-4s2.81,1.61,2.81,4-.72,4-2.81,4S154.35,80.25,154.35,77.9Zm2.8,2.84c1.11,0,1.3-.92,1.3-2.84,0-1.67-.19-2.85-1.3-2.85s-1.29,1.18-1.29,2.85C155.86,79.82,156.07,80.74,157.15,80.74Z"/><path d="M161.59,75.25h-1.05V74.13h1.05v-.7c0-1.42.68-1.88,1.92-1.88.32,0,.6,0,.82,0v1.17h-.42c-.56,0-.81.21-.81.71v.66h1.23v1.12H163.1v6.42h-1.51Z"/><path d="M168.47,71.66H171l1.76,7.41h0l1.74-7.41h2.43v10h-1.51V73.35h0l-2,8.32H172l-2-8.32h0v8.32h-1.52Z"/><path d="M178.55,71.55h1.52v1.52h-1.52Zm0,2.58h1.52v7.54h-1.52Z"/><path d="M181.59,74.13H183V75h0A2.18,2.18,0,0,1,185,73.93c1.14,0,1.87.52,1.87,2v5.69h-1.51V76.5c0-1-.27-1.36-1.05-1.36-.62,0-1.21.46-1.21,1.47v5.06h-1.51Z"/><path d="M188,77.9c0-2.36.62-4,2.8-4s2.82,1.61,2.82,4-.73,4-2.82,4S188,80.25,188,77.9Zm2.8,2.84c1.11,0,1.31-.92,1.31-2.84,0-1.67-.2-2.85-1.31-2.85s-1.29,1.18-1.29,2.85C189.54,79.82,189.75,80.74,190.83,80.74Z"/><path d="M199.75,80.1c0,.28.17.53.39.53a.59.59,0,0,0,.26,0v1a1.63,1.63,0,0,1-.75.18c-.67,0-1.23-.27-1.27-1h0a1.94,1.94,0,0,1-1.88,1.1c-1.21,0-2-.66-2-2.11a2.09,2.09,0,0,1,1.75-2.37l1.18-.32c.55-.16.88-.31.88-1s-.23-1.12-1-1.12c-1,0-1.15.71-1.15,1.44h-1.43c0-1.61.66-2.48,2.65-2.48,1.33,0,2.39.52,2.39,1.85Zm-1.43-2.41a12.39,12.39,0,0,1-1.68.7,1.24,1.24,0,0,0-.61,1.22c0,.63.3,1.13.93,1.13.91,0,1.36-.67,1.36-1.79Z"/><path d="M201.29,74.13h1.43V75h0a2.17,2.17,0,0,1,1.93-1.08c1.15,0,1.88.52,1.88,2v5.69h-1.51V76.5c0-1-.27-1.36-1.05-1.36-.62,0-1.21.46-1.21,1.47v5.06h-1.51Z"/><path d="M216.47,78.92c-.11,1.81-.7,2.94-2.58,2.94-2.18,0-2.8-1.61-2.8-4s.62-4,2.8-4a2.44,2.44,0,0,1,2.59,2.71H215c0-.7-.18-1.63-1.08-1.59-1.08,0-1.29,1.18-1.29,2.85s.21,2.84,1.29,2.84c.84,0,1.15-.68,1.15-1.82Z"/><path d="M221.45,80.78h0a2.15,2.15,0,0,1-1.93,1.08c-1.12,0-1.88-.52-1.88-2.46V74.13h1.51v5.41c0,.84.37,1.12,1,1.12a1.18,1.18,0,0,0,1.24-1.26V74.13h1.51v7.54h-1.43Z"/><path d="M224.4,71.66h1.52v10H224.4Z"/><path d="M226.77,74.13h1V72h1.51v2.14h1.23v1.12h-1.23v4.5c0,.6.17.8.68.8a2.64,2.64,0,0,0,.55,0v1.12a4.64,4.64,0,0,1-1.22.13c-1,0-1.52-.29-1.52-1.82V75.25h-1Z"/><path d="M235.18,80.78h0a2.15,2.15,0,0,1-1.93,1.08c-1.12,0-1.88-.52-1.88-2.46V74.13h1.52v5.41c0,.84.36,1.12,1,1.12a1.17,1.17,0,0,0,1.23-1.26V74.13h1.51v7.54h-1.43Z"/><path d="M238.07,74.13h1.51v1.18h0a1.86,1.86,0,0,1,1.75-1.38.87.87,0,0,1,.36.06v1.54a2.18,2.18,0,0,0-.63-.08c-.68,0-1.51.3-1.51,1.71v4.51h-1.51Z"/><path d="M243.7,78.09v.44c0,1,.12,2.3,1.26,2.3s1.2-1.22,1.2-1.69h1.43a2.48,2.48,0,0,1-2.65,2.72c-1.23,0-2.76-.36-2.76-3.85,0-2,.44-4.08,2.79-4.08,2.1,0,2.66,1.28,2.66,3.37v.79Zm2.42-1v-.41c0-1-.31-1.68-1.16-1.68s-1.26,1-1.26,1.93v.16Z"/><path d="M85.65,94.66h1.51V98h0a1.75,1.75,0,0,1,1.71-1.08c1.15,0,2.33.52,2.33,3.87,0,2.59-.72,4.06-2.47,4.06a1.61,1.61,0,0,1-1.65-1.12h0v.93H85.65Zm2.71,9c1.06,0,1.27-1.08,1.27-2.79,0-2-.32-2.73-1.18-2.73-1.17,0-1.37,1-1.37,2.84C87.08,102.61,87.32,103.66,88.36,103.66Z"/><path d="M92.39,97.13H93.9v1.18h0a1.86,1.86,0,0,1,1.75-1.38A.87.87,0,0,1,96,97v1.54a2.18,2.18,0,0,0-.63-.08c-.68,0-1.51.3-1.51,1.71v4.51H92.39Z"/><path d="M96.5,100.9c0-2.36.62-4,2.8-4s2.82,1.61,2.82,4-.73,4-2.82,4S96.5,103.25,96.5,100.9Zm2.8,2.84c1.11,0,1.31-.92,1.31-2.84,0-1.67-.2-2.85-1.31-2.85S98,99.23,98,100.9C98,102.82,98.22,103.74,99.3,103.74Z"/><path d="M107.13,103.78h0a2.15,2.15,0,0,1-1.94,1.08c-1.12,0-1.87-.52-1.87-2.46V97.13h1.51v5.41c0,.84.36,1.12,1,1.12a1.18,1.18,0,0,0,1.24-1.26V97.13h1.51v7.54h-1.43Z"/><path d="M111.52,105.31a1,1,0,0,0,1.1.9,1.25,1.25,0,0,0,1.27-1.42v-1.22h0a1.82,1.82,0,0,1-1.71,1c-1.75,0-2.25-1.72-2.25-3.8,0-1.65.25-3.88,2.39-3.88A1.68,1.68,0,0,1,114,98.05h0v-.92h1.42v7.17c0,1.84-.78,2.94-2.81,2.94-2.24,0-2.49-1.31-2.49-1.93Zm1.07-1.9c1.18,0,1.3-1.49,1.3-2.68s-.15-2.59-1.2-2.59-1.28,1.12-1.28,2.52S111.47,103.41,112.59,103.41Z"/><path d="M116.75,94.66h1.51v3.28l0,0a2.14,2.14,0,0,1,1.85-1c1.15,0,1.88.52,1.88,2v5.69h-1.52V99.5c0-1-.28-1.36-1.05-1.36-.61,0-1.2.47-1.2,1.47v5.06h-1.51Z"/><path d="M122.81,97.13h1V95h1.52v2.14h1.23v1.12h-1.23v4.5c0,.6.16.8.68.8a2.64,2.64,0,0,0,.55,0v1.12a4.64,4.64,0,0,1-1.22.13c-1,0-1.53-.29-1.53-1.82V98.25h-1Z"/><path d="M130.44,100.9c0-2.36.61-4,2.8-4s2.81,1.61,2.81,4-.72,4-2.81,4S130.44,103.25,130.44,100.9Zm2.8,2.84c1.11,0,1.3-.92,1.3-2.84,0-1.67-.19-2.85-1.3-2.85S132,99.23,132,100.9C132,102.82,132.16,103.74,133.24,103.74Z"/><path d="M136.54,97.13h1V95h1.51v2.14h1.23v1.12h-1.23v4.5c0,.6.17.8.69.8a2.61,2.61,0,0,0,.54,0v1.12a4.64,4.64,0,0,1-1.22.13c-1,0-1.52-.29-1.52-1.82V98.25h-1Z"/><path d="M144.54,94.66h1.51v10h-1.51Z"/><path d="M147.64,94.55h1.52v1.52h-1.52Zm0,2.58h1.52v7.54h-1.52Z"/><path d="M152.19,105.31a1,1,0,0,0,1.1.9,1.25,1.25,0,0,0,1.27-1.42v-1.22h0a1.82,1.82,0,0,1-1.71,1c-1.75,0-2.25-1.72-2.25-3.8,0-1.65.25-3.88,2.39-3.88a1.68,1.68,0,0,1,1.66,1.12h0v-.92h1.43v7.17c0,1.84-.78,2.94-2.81,2.94-2.24,0-2.49-1.31-2.49-1.93Zm1.07-1.9c1.17,0,1.3-1.49,1.3-2.68s-.15-2.59-1.2-2.59-1.28,1.12-1.28,2.52S152.14,103.41,153.26,103.41Z"/><path d="M157.41,94.66h1.52v3.28l0,0a2.14,2.14,0,0,1,1.85-1c1.15,0,1.88.52,1.88,2v5.69h-1.52V99.5c0-1-.28-1.36-1.05-1.36-.61,0-1.2.47-1.2,1.47v5.06h-1.52Z"/><path d="M163.48,97.13h1V95H166v2.14h1.23v1.12H166v4.5c0,.6.16.8.68.8a2.64,2.64,0,0,0,.55,0v1.12a4.64,4.64,0,0,1-1.22.13c-1,0-1.53-.29-1.53-1.82V98.25h-1Z"/><path d="M171.4,94.66h1.51V98h0a1.74,1.74,0,0,1,1.71-1.08c1.15,0,2.33.52,2.33,3.87,0,2.59-.72,4.06-2.47,4.06a1.61,1.61,0,0,1-1.65-1.12h0v.93H171.4Zm2.7,9c1.07,0,1.28-1.08,1.28-2.79,0-2-.32-2.73-1.18-2.73-1.17,0-1.37,1-1.37,2.84C172.83,102.61,173.07,103.66,174.1,103.66Z"/><path d="M179,97.13l1.3,5.66h0l1.2-5.66h1.58L181,105c-.6,2.06-1.06,2.34-2.63,2.29a3.14,3.14,0,0,1-.61,0V106a2.12,2.12,0,0,0,.49.06c.52,0,.86-.1,1-.59l.19-.62-2.14-7.7Z"/><path d="M188.59,101.09v.44c0,1,.13,2.3,1.26,2.3s1.21-1.22,1.21-1.69h1.43a2.48,2.48,0,0,1-2.65,2.72c-1.23,0-2.76-.36-2.76-3.85,0-2,.43-4.08,2.79-4.08,2.1,0,2.66,1.28,2.66,3.37v.79Zm2.43-1v-.41c0-1-.31-1.68-1.17-1.68s-1.26,1-1.26,1.93v.16Z"/><path d="M195.06,100.76l-1.95-3.63h1.66l1.17,2.49,1.24-2.49h1.62l-2,3.63,2,3.91h-1.64l-1.32-2.79-1.32,2.79H193Z"/><path d="M204.74,101.92c-.12,1.81-.7,2.94-2.58,2.94-2.19,0-2.8-1.61-2.8-4s.61-4,2.8-4a2.44,2.44,0,0,1,2.59,2.71h-1.51c0-.7-.18-1.63-1.08-1.59-1.08,0-1.29,1.18-1.29,2.85s.21,2.84,1.29,2.84c.84,0,1.15-.68,1.15-1.82Z"/><path d="M210.81,103.1c0,.28.17.53.39.53a.59.59,0,0,0,.26,0v1a1.63,1.63,0,0,1-.75.18c-.67,0-1.23-.27-1.27-1h0a1.94,1.94,0,0,1-1.87,1.1c-1.22,0-2-.66-2-2.11a2.09,2.09,0,0,1,1.75-2.37l1.18-.32c.55-.16.88-.31.88-1s-.23-1.12-1-1.12c-1,0-1.15.71-1.15,1.44h-1.43c0-1.61.66-2.48,2.65-2.48,1.33,0,2.39.52,2.39,1.85Zm-1.43-2.41a11.88,11.88,0,0,1-1.68.7,1.24,1.24,0,0,0-.61,1.22c0,.63.3,1.13.94,1.13.91,0,1.35-.67,1.35-1.79Z"/><path d="M211.64,97.13h1.62l1.32,5.94h0l1.19-5.94h1.61l-2,7.54h-1.77Z"/><path d="M223,103.1c0,.28.16.53.39.53a.57.57,0,0,0,.25,0v1a1.58,1.58,0,0,1-.74.18c-.67,0-1.23-.27-1.28-1h0a2,2,0,0,1-1.88,1.1c-1.22,0-2-.66-2-2.11a2.08,2.08,0,0,1,1.75-2.37l1.18-.32c.54-.16.88-.31.88-1s-.24-1.12-1-1.12c-1,0-1.15.71-1.15,1.44H218c0-1.61.66-2.48,2.65-2.48,1.33,0,2.4.52,2.4,1.85Zm-1.43-2.41a12.39,12.39,0,0,1-1.68.7,1.23,1.23,0,0,0-.62,1.22c0,.63.31,1.13.94,1.13.91,0,1.36-.67,1.36-1.79Z"/><path d="M223.87,97.13h1V95h1.51v2.14h1.23v1.12h-1.23v4.5c0,.6.17.8.69.8a2.61,2.61,0,0,0,.54,0v1.12a4.59,4.59,0,0,1-1.22.13c-1,0-1.52-.29-1.52-1.82V98.25h-1Z"/><path d="M228.51,94.55H230v1.52h-1.51Zm0,2.58H230v7.54h-1.51Z"/><path d="M231.25,100.9c0-2.36.62-4,2.8-4s2.82,1.61,2.82,4-.73,4-2.82,4S231.25,103.25,231.25,100.9Zm2.8,2.84c1.11,0,1.3-.92,1.3-2.84,0-1.67-.19-2.85-1.3-2.85s-1.29,1.18-1.29,2.85C232.76,102.82,233,103.74,234.05,103.74Z"/><path d="M238,97.13h1.42V98h.05a2.15,2.15,0,0,1,1.93-1.08c1.15,0,1.88.52,1.88,2v5.69h-1.52V99.5c0-1-.26-1.36-1-1.36-.61,0-1.2.46-1.2,1.47v5.06H238Z"/><path d="M248,99.33v-.2c0-.6-.21-1.16-1-1.16-.6,0-1.07.27-1.07,1s.26.83,1.06,1.11l1,.33a2,2,0,0,1,1.64,2.17c0,1.62-1.19,2.3-2.71,2.3-1.9,0-2.48-.88-2.48-2.34v-.28h1.35v.24c0,.88.29,1.35,1.17,1.35s1.24-.42,1.24-1.11a1.09,1.09,0,0,0-.83-1.11l-1.23-.43A2,2,0,0,1,244.51,99c0-1.42,1-2.08,2.57-2.08,1.92,0,2.36,1.12,2.36,2.06v.34Z"/><path d="M253.79,100.9c0-2.36.62-4,2.8-4s2.82,1.61,2.82,4-.73,4-2.82,4S253.79,103.25,253.79,100.9Zm2.8,2.84c1.11,0,1.3-.92,1.3-2.84,0-1.67-.19-2.85-1.3-2.85s-1.29,1.18-1.29,2.85C255.3,102.82,255.51,103.74,256.59,103.74Z"/><path d="M261,98.25h-1V97.13h1v-.7c0-1.42.68-1.88,1.92-1.88.32,0,.6,0,.82,0v1.17h-.42c-.56,0-.81.21-.81.71v.66h1.23v1.12h-1.23v6.42H261Z"/><path d="M269.15,101.57v.25c0,1.22.54,1.84,1.64,1.84a1.44,1.44,0,0,0,1.51-1.46,1.68,1.68,0,0,0-1.43-1.78l-1.09-.38c-1.46-.56-2.09-1.31-2.09-2.74,0-1.82,1.25-2.83,3.11-2.83,2.56,0,2.83,1.6,2.83,2.63v.23H272v-.21c0-.91-.39-1.45-1.4-1.45a1.28,1.28,0,0,0-1.34,1.45c0,.85.43,1.28,1.5,1.69l1.08.39a2.55,2.55,0,0,1,2,2.65c0,2.13-1.29,3-3.31,3a2.74,2.74,0,0,1-3-3v-.24Z"/><path d="M275.15,94.55h1.52v1.52h-1.52Zm0,2.58h1.52v7.54h-1.52Z"/><path d="M278.19,97.13h1.51v1.18h0a1.88,1.88,0,0,1,1.75-1.38.92.92,0,0,1,.37.06v1.54a2.24,2.24,0,0,0-.63-.08c-.69,0-1.52.3-1.52,1.71v4.51h-1.51Z"/><path d="M287.43,94.66h2.05l2.63,10h-1.67l-.61-2.46H286.9l-.64,2.46h-1.67Zm2.13,6.28L288.41,96h0l-1.19,4.93Z"/><path d="M292.71,97.13h1.51v1.18h0A1.88,1.88,0,0,1,296,96.93a.92.92,0,0,1,.37.06v1.54a2.32,2.32,0,0,0-.64-.08c-.68,0-1.51.3-1.51,1.71v4.51h-1.51Z"/><path d="M296.45,97.13h1V95H299v2.14h1.23v1.12H299v4.5c0,.6.16.8.68.8a2.64,2.64,0,0,0,.55,0v1.12a4.64,4.64,0,0,1-1.22.13c-1,0-1.53-.29-1.53-1.82V98.25h-1Z"/><path d="M301,94.66h1.51v3.28l.05,0a2.13,2.13,0,0,1,1.84-1c1.15,0,1.88.52,1.88,2v5.69h-1.51V99.5c0-1-.28-1.36-1-1.36s-1.21.47-1.21,1.47v5.06H301Z"/><path d="M311.6,103.78h0a2.16,2.16,0,0,1-1.94,1.08c-1.12,0-1.87-.52-1.87-2.46V97.13h1.51v5.41c0,.84.36,1.12,1,1.12a1.17,1.17,0,0,0,1.23-1.26V97.13H313v7.54H311.6Z"/><path d="M314.48,97.13H316v1.18h0a1.88,1.88,0,0,1,1.75-1.38.87.87,0,0,1,.36.06v1.54a2.18,2.18,0,0,0-.63-.08c-.68,0-1.51.3-1.51,1.71v4.51h-1.51Z"/><path d="M322.35,94.66h5.4V96h-3.81v2.77h3.59v1.35h-3.59v3.19h3.93v1.35h-5.52Z"/><path d="M328.35,97.13H330l1.31,5.94h0l1.19-5.94h1.61l-2,7.54h-1.76Z"/><path d="M339.72,103.1c0,.28.17.53.4.53a.57.57,0,0,0,.25,0v1a1.63,1.63,0,0,1-.75.18c-.67,0-1.23-.27-1.27-1h0a1.94,1.94,0,0,1-1.87,1.1c-1.22,0-2-.66-2-2.11a2.09,2.09,0,0,1,1.75-2.37l1.18-.32c.55-.16.88-.31.88-1s-.23-1.12-1-1.12c-1,0-1.15.71-1.15,1.44h-1.43c0-1.61.66-2.48,2.65-2.48,1.33,0,2.39.52,2.39,1.85Zm-1.43-2.41a11.88,11.88,0,0,1-1.68.7,1.24,1.24,0,0,0-.61,1.22c0,.63.31,1.13.94,1.13.91,0,1.35-.67,1.35-1.79Z"/><path d="M341.26,97.13h1.43V98h0a2.17,2.17,0,0,1,1.93-1.08c1.15,0,1.88.52,1.88,2v5.69H345V99.5c0-1-.27-1.36-1-1.36-.62,0-1.21.46-1.21,1.47v5.06h-1.51Z"/><path d="M351.24,99.33v-.2c0-.6-.21-1.16-1-1.16-.6,0-1.08.27-1.08,1s.27.83,1.07,1.11l1,.33a2,2,0,0,1,1.64,2.17c0,1.62-1.19,2.3-2.7,2.3-1.91,0-2.48-.88-2.48-2.34v-.28H349v.24c0,.88.3,1.35,1.18,1.35s1.23-.42,1.23-1.11a1.09,1.09,0,0,0-.82-1.11l-1.24-.43A2,2,0,0,1,347.74,99c0-1.42,1-2.08,2.58-2.08,1.92,0,2.35,1.12,2.35,2.06v.34Z"/></g></g></g></g></svg>