<svg xmlns="http://www.w3.org/2000/svg" viewBox="0 0 1847.91 115"><title>bc1600text</title><g id="YEARS"><g id="Right"><path d="M1792.5,101.93V88.56h-3.82V86.64h.28c1.77,0,3.8-.44,4.35-2.76v-.36h2.15v18.41Z" fill="#3b4351"/><path d="M1808.12,88c0-1.06-.52-2.39-2-2.39-2.78,0-2.94,3.64-2.94,6.34l.08.06a3.77,3.77,0,0,1,3.59-2c2.52,0,4.55,1.82,4.55,5.48,0,4.24-1.77,6.76-5.65,6.76-4.65,0-5.53-3.53-5.53-8.81,0-5.51,1-10,5.87-10,3.25,0,5,1.43,5,4.47Zm-2.1,12.22c1.79,0,2.44-1.79,2.44-3.95,0-2.57-.75-4-2.44-4-2.19,0-2.55,1.9-2.55,4.11S1804.28,100.21,1806,100.21Z" fill="#3b4351"/><path d="M1818.32,83.52c3.53,0,5.51,2.21,5.51,9.39s-2,9.38-5.51,9.38-5.52-2.21-5.52-9.38S1814.78,83.52,1818.32,83.52Zm0,16.69c2,0,2.54-2,2.54-7.3s-.54-7.31-2.54-7.31-2.55,2-2.55,7.31S1816.31,100.21,1818.32,100.21Z" fill="#3b4351"/><path d="M1830.8,83.52c3.53,0,5.51,2.21,5.51,9.39s-2,9.38-5.51,9.38-5.52-2.21-5.52-9.38S1827.26,83.52,1830.8,83.52Zm0,16.69c2,0,2.54-2,2.54-7.3s-.54-7.31-2.54-7.31-2.55,2-2.55,7.31S1828.79,100.21,1830.8,100.21Z" fill="#3b4351"/></g><g id="left"><path d="M17.46,103.84V90.47H13.64V88.55h.29c1.77,0,3.79-.45,4.34-2.76v-.36h2.16v18.41Z" fill="#3b4351"/><path d="M33.09,89.9c0-1.07-.52-2.39-2-2.39-2.78,0-2.93,3.64-2.93,6.34l.07.05a3.79,3.79,0,0,1,3.59-2c2.52,0,4.55,1.82,4.55,5.49,0,4.24-1.77,6.76-5.64,6.76-4.65,0-5.54-3.54-5.54-8.81,0-5.52,1-10,5.88-10,3.25,0,5,1.43,5,4.47ZM31,102.12c1.8,0,2.45-1.79,2.45-4,0-2.58-.76-4-2.45-4-2.18,0-2.54,1.9-2.54,4.11S29.24,102.12,31,102.12Z" fill="#3b4351"/><path d="M43.28,85.43c3.54,0,5.51,2.21,5.51,9.38s-2,9.39-5.51,9.39-5.51-2.21-5.51-9.39S39.75,85.43,43.28,85.43Zm0,16.69c2,0,2.55-2,2.55-7.31s-.55-7.3-2.55-7.3-2.55,2-2.55,7.3S41.28,102.12,43.28,102.12Z" fill="#3b4351"/><path d="M55.76,85.43c3.54,0,5.51,2.21,5.51,9.38s-2,9.39-5.51,9.39-5.51-2.21-5.51-9.39S52.22,85.43,55.76,85.43Zm0,16.69c2,0,2.55-2,2.55-7.31s-.55-7.3-2.55-7.3-2.55,2-2.55,7.3S53.76,102.12,55.76,102.12Z" fill="#3b4351"/></g></g><g id="Nation_OUtlines" data-name="Nation OUtlines"><polygon id="Iranians" points="1263.29 1579.17 1235.95 1465 1211.95 1350.5 1241.29 1240.5 1280.62 1128 1217.95 1013.17 1163.29 903.84 1140.62 790.5 1175.95 680 1153.29 565.17 1137.95 451.84 1188.62 340.5 1153.95 227.84 1161.95 115 1156.67 -0.27 1152.84 -117.5 1131.29 -224 1198.62 -334.5 1275.29 -446.5 1277.29 -560.16 1268.62 -669.83 1283.88 -781.83 1411.11 -781.83 1445.69 -670.27 1480.18 -559.6 1462.18 -446.5 1438.19 -334.5 1387.19 -224 1387.19 -112 1420.19 2.93 1429.19 115 1400.69 227.92 1417.19 341 1343.69 452 1325.69 566 1345.19 680 1313.69 792 1298.69 904 1310.69 1014 1348.19 1128 1313.69 1241 1285.19 1352 1294.19 1465 1372.19 1579.17 1373.74 1687.73 1375.34 1799.73 1376.98 1915 1335.62 2025 1348.62 2137 1391.1 2249 1462.62 2360 1440.62 2472.73 1447.62 2589 1472.62 2701 1505.62 2812.73 1513.62 2922.73 1437.62 3034.73 1391.82 3149.73 1219.62 3035 1086.62 2923 890.71 2812.73 788.62 2701 767.62 2589 866.62 2473 1041.62 2359.73 1176.62 2248.73 1205.62 2136.73 1242.62 2024.73 1294.62 1915 1322.62 1802.17 1240.62 1688 1263.29 1579.17" fill="none" stroke="#3b4351" stroke-miterlimit="10"/><polygon id="Indians" points="1372.19 1579.17 1294.19 1465 1285.19 1352 1313.69 1241 1348.19 1128 1310.69 1014 1298.69 904 1313.69 792 1345.19 680 1325.69 566 1343.69 452 1417.19 341 1400.69 227.92 1429.19 115 1419.27 -0.27 1387.19 -112 1387.19 -224 1438.19 -334.5 1462.18 -446.5 1480.18 -559.54 1445.82 -669.83 1411.11 -781.83 1545.86 -781.83 1580.1 -669.83 1593.12 -559.6 1552.12 -446.5 1514.62 -334.5 1514.12 -224.33 1553.12 -112.27 1548.12 0 1519.62 115 1534.12 228.67 1575.12 341 1559.62 452 1564.12 565.73 1534.62 680 1486.12 792 1465.12 904 1471.12 1013.17 1502.12 1127.17 1508.12 1241 1534.62 1352 1542.77 1430.86 1555.62 1579.17 1554.62 1688 1567.12 1800 1542.12 1914.73 1498.12 2025 1490.62 2137 1513.12 2249 1568.62 2360 1544.12 2473 1530.62 2588.73 1523.62 2700.73 1532.62 2813 1565.12 2923 1543.62 3035 1514.12 3150 1490.12 3259.73 1495.62 3374 1517.12 3487.67 1528.12 3593 1580.62 3705.67 1578.12 3821.67 1578.12 3932.17 1560.12 4043.73 1526.62 4159 1467.62 4273 1381.62 4384.73 1270.62 4495 1090.12 4607.73 860.62 4716 1302.12 4831 1377.03 4943 1550.62 5056 1519.62 5165.83 1476.12 5278.83 1516.13 5392.83 1534.62 5505.17 1552.65 5615.83 1585.62 5729.73 1620.12 5844.83 1650.12 5955.83 1630.62 6063.73 1622.45 6180.73 1565.62 6291.83 1402.62 6405.17 1173.62 6517.83 1148.62 6628.83 1334.62 6743.83 1283.62 6857.83 1344.62 6966.83 1544.62 7079.83 1602.62 7194.17 1627.62 7305.83 1674.62 7418.73 1627.62 7533.83 1634.62 7645.83 1686.62 7757.83 1701.62 7870.83 1620.12 7982.83 1606.12 8093.83 1606.12 8207.66 1552.62 8207.66 1549.52 8093.83 1569.62 7982.83 1683.62 7870.83 1667.62 7757.83 1607.62 7645.83 1596.62 7533.17 1617.62 7418.83 1584.62 7305.83 1562.62 7193.83 1507.62 7079.83 1304.62 6966.73 1225.62 6857.73 1236.97 6820.78 1264.87 6743.83 1082.62 6628.83 1084.2 6518.34 1323.62 6405.83 1500.47 6291.73 1573.62 6180.83 1600.62 6063.83 1604.62 5955.83 1569.62 5844.83 1514.62 5729.83 1447.62 5615.73 1418.62 5503.83 1404.62 5392.83 1367.62 5278.83 1397.62 5165.83 1418.62 5055.73 1339.62 4942.73 1246.62 4831 748.62 4716 753.62 4608 910.76 4495 1053.62 4385 1195.2 4273 1311.62 4158.17 1353.62 4044 1348.62 3933 1364.62 3821.17 1406.62 3706 1401.62 3593 1429.62 3488 1394.62 3373.73 1393.2 3260 1391.82 3149.73 1437.52 3035 1513.62 2922.73 1505.64 2813 1472.62 2701.17 1447.62 2589 1440.63 2473 1462.62 2360 1391.1 2249 1348.62 2137 1332.62 2025 1376.98 1915 1375.34 1799.73 1373.74 1687.73 1372.19 1579.17" fill="none" stroke="#3b4351" stroke-miterlimit="10"/><polygon id="Huns" points="1555.62 1579.17 1545.73 1465 1533.62 1351.67 1506.68 1241.64 1502.16 1128 1471.34 1014 1465.12 904 1486.12 792 1534.62 680 1564.05 566 1559.62 452 1575.12 341 1534.24 229 1519.62 115 1548.12 0 1553.11 -112 1514.47 -224.27 1514.62 -336.5 1552.12 -446.5 1593.12 -559.16 1580.1 -669.83 1545.86 -781.83 1633.99 -781.83 1651.62 -669.83 1667.62 -559.16 1646.62 -446.5 1620.62 -334.5 1630.4 -226.4 1650.62 -112.33 1676.62 0 1700.12 115 1689.12 229 1714.62 340.67 1697.12 451.73 1645.62 565.73 1616.12 680 1586.62 791.73 1538.12 903.73 1509.12 1014 1551.62 1128 1585.12 1241 1608.62 1351.67 1609.69 1464.73 1610.76 1577.73 1613.62 1687.73 1625.12 1799.73 1599.12 1915.67 1557.59 2025 1545.65 2137 1558.62 2249 1584.62 2359.73 1571.12 2473.17 1576.62 2589 1567.62 2701 1587.12 2813 1621.12 2923 1612.12 3035 1556.12 3150 1528.62 3260 1529.62 3374 1553.62 3488 1616.07 3593 1609.25 3706 1592.66 3822 1611.01 3932.73 1612.12 4044 1598.04 4159 1564.12 4273 1534.29 4385 1602.12 4494.73 1653.62 4608 1673.62 4716 1666.12 4831 1668.12 4942.67 1625.62 5055.67 1542.12 5165.83 1476.12 5278.83 1519.62 5165.83 1550.62 5056 1376.62 4942.73 1302.12 4831 860.62 4716 1090.12 4607.73 1270.62 4495 1381.62 4384.73 1467.62 4273 1526.62 4159 1560.12 4043.73 1578.12 3932.17 1578.12 3821.67 1580.62 3705.67 1528.12 3593 1517.12 3487.67 1495.62 3374 1490.12 3259.73 1514.12 3150 1543.62 3035 1565.12 2923 1532.62 2813 1523.62 2700.73 1530.62 2588.73 1544.12 2473 1568.62 2360 1513.12 2249 1490.62 2137 1498.12 2025 1542.12 1914.73 1567.12 1800 1554.62 1688 1555.62 1579.17" fill="none" stroke="#3b4351" stroke-miterlimit="10"/><polygon id="Hitites" points="347.74 1577.73 337.24 1465 361.62 1352 400.62 1241 439.62 1128 658.62 1014 742.62 904 835.62 792 785.62 680 750.62 566 770.62 452 800.62 340.17 733.62 228.73 656.62 114.92 662.62 0 633.62 -112 663.62 -224 786.62 -334.5 940.62 -446.5 982.62 -559.16 1042.62 -669.83 1103.77 -781.83 1152.07 -781.83 1091.29 -669.83 1025.29 -559.16 1027.29 -446.5 910.76 -334.5 823.95 -224 785.95 -112 826.62 0 853.28 115 910.76 228.73 992.62 341 961.95 451.17 971.95 565.84 969.28 680 975.28 791.84 954.62 901.84 857.28 1014 623.95 1128 566.62 1241 481.23 1352 394.24 1465 347.74 1577.73" fill="none" stroke="#3b4351" stroke-miterlimit="10"/><polygon id="Egyptians" points="1195.2 3703.31 1131.14 3593 1168.66 3488.09 1099.2 3373.73 910.76 3259.73 897.95 3149.17 965.95 3035 965.28 2922.5 761.95 2813 645.95 2701 527.28 2589 401.29 2473 349.95 2360 319.29 2249 259.95 2137 262.62 2025 238.62 1915 217.95 1800 199.95 1688 228.62 1578 221.62 1465 250.62 1352 251.62 1241 223.25 1128 271.57 1014 265.25 904 305.74 792 341.74 680 376.24 566 440.74 452 467.73 341.91 443.74 229 381.96 115 242.75 0 298.62 -112 424.24 -224 460.24 -334.5 397.24 -446.5 319.24 -559.16 319.24 -669.83 298.62 -781.83 1103.77 -781.83 1042.62 -669.83 982.62 -559.16 940.62 -446.5 786.62 -334.5 663.62 -224 633.62 -112 662.62 0 656.62 114.92 733.62 228.73 800.62 340.17 770.62 452 750.62 566 785.62 680 835.62 792 742.62 904 658.62 1014 439.62 1128 400.62 1241 361.62 1352 302.62 1465 310.62 1578 282.62 1688 271.95 1800 305.95 2025 323.95 2136.5 432.62 2249 476.62 2359.17 451.95 2473 555.95 2589 667.28 2701 813.28 2813 968.62 2923 995.95 3035 968.62 3149.84 940.62 3258.5 1130.91 3373.73 1189.62 3488.67 1157.7 3593 1195.2 3703.31" fill="none" stroke="#3b4351" stroke-miterlimit="10"/><polygon id="Chinese" points="1610.76 1577.73 1609.69 1464.73 1608.62 1351.67 1585.12 1241 1551.62 1128 1509.12 1014 1538.12 903.73 1586.62 791.73 1616.12 680 1645.62 565.73 1697.12 451.73 1714.62 340.67 1689.12 229 1700.12 115 1676.62 0 1650.62 -112.33 1630.62 -224 1620.62 -334.5 1646.62 -446.5 1667.62 -559.16 1651.62 -669.83 1633.99 -781.83 1768.79 -781.83 1768.79 7418.83 1768.79 7533.73 1766.12 7645.83 1757.62 7757.83 1736.12 7870.73 1676.12 7982.73 1661.12 8093.83 1663.62 8207.66 1606.12 8207.66 1606.12 8093.73 1620.12 7982.83 1701.62 7870.83 1696.12 7757.67 1654.12 7645.83 1681.62 7533.83 1739.62 7418.73 1748.62 7305.67 1744.12 7193.67 1685.62 7079.83 1615.12 6969.17 1636.12 6857.83 1738.62 6743.83 1761.12 6628.83 1758.62 6517.83 1732.12 6405.83 1695.62 6291.83 1667.62 6180.83 1651.12 6063.83 1650.12 5955.83 1620.12 5844.83 1585.62 5729.73 1552.62 5615.73 1535.12 5503.83 1516.12 5392.73 1476.12 5278.83 1542.12 5165.83 1625.62 5055.67 1668.12 4942.67 1666.12 4831 1673.62 4716 1653.62 4608 1602.12 4494.73 1534.12 4384.73 1564.12 4273 1598.12 4158.73 1612.12 4044 1611.01 3932.73 1592.62 3821.73 1609.25 3706 1616.07 3593 1553.62 3488 1529.62 3374 1528.62 3259.73 1555.62 3150 1612.12 3035 1621.12 2923 1587.12 2813 1567.62 2701 1576.62 2589 1571.12 2473 1584.62 2359.73 1558.62 2249 1545.62 2136.73 1557.62 2024.73 1599.62 1915 1625.12 1799.73 1613.62 1687.73 1610.76 1577.73" fill="none" stroke="#3b4351" stroke-miterlimit="10"/><polygon id="Amorites" points="1263.29 1579.17 1240.62 1688 1322.62 1800 1294.62 1915 1242.62 2024.73 1205.62 2136.73 1176.62 2248.73 1041.62 2359.73 866.62 2473 767.62 2589 788.62 2701 890.71 2812.73 762.62 2700.73 716.62 2588.73 709.62 2473 755.62 2360 1054.29 2248.73 1156.62 2137 1173.62 2023.17 1199.62 1913.17 1138.62 1800 910.76 1688 832.62 1577.73 949.95 1465 1040.62 1351.73 1141.31 1241 1225.29 1127.84 1147.62 1014 1085.29 904 1061.29 791.73 1028.62 679.73 971.95 565.84 961.95 451.17 992.62 341 910.76 228.73 853.28 115 826.62 0 785.95 -112 823.95 -224 910.76 -334.5 1027.29 -446.5 1025.29 -559.16 1091.29 -669.83 1152.07 -781.83 1283.88 -781.83 1268.62 -669.83 1277.29 -560.16 1275.29 -446.5 1198.62 -334.5 1131.29 -224 1153.95 -112 1156.67 -0.27 1161.95 115 1153.95 227.84 1188.62 340.5 1137.95 451.84 1153.29 565.17 1175.95 680 1140.62 790.5 1163.29 903.84 1217.95 1013.17 1280.62 1128 1241.29 1240.5 1211.95 1350.5 1235.95 1465 1263.29 1579.17" fill="none" stroke="#3b4351" stroke-miterlimit="10"/><polygon id="Aegeans" points="223.25 1128 202.25 1014 172.25 904 155.75 792 145.25 680 142.25 566 75.42 452 75.42 -781.83 298.62 -781.83 319.24 -669.83 319.24 -559.16 397.24 -446.5 460.24 -334.5 424.24 -224 298.62 -112 242.75 0 381.96 115 443.74 229 467.73 341.91 440.74 452 376.24 566 341.74 680 305.74 792 265.25 904 271.57 1014 223.25 1128" fill="none" stroke="#3b4351" stroke-miterlimit="10"/></g><g id="Text"><g id="Huns-2" data-name="Huns"><path d="M1587.22,21.42h2.8v7h5.14v-7h2.8v17.5h-2.8V30.78H1590v8.14h-2.8Z" fill="#3b4351"/><path d="M1603.42,21.42V34c0,2.23.88,3.19,2.57,3.19s2.55-1,2.55-3.19V21.42h2.79V33.75c0,4-2,5.51-5.34,5.51s-5.37-1.47-5.37-5.51V21.42Z" fill="#3b4351"/><path d="M1614,21.42h3.41l5.07,13h0v-13h2.65v17.5h-3.41l-5.07-13.38h0V38.92H1614Z" fill="#3b4351"/><path d="M1630.22,33.5V34c0,2.13,1,3.21,2.87,3.21a2.51,2.51,0,0,0,2.64-2.55c0-1.84-.93-2.65-2.5-3.11l-1.91-.67c-2.55-1-3.65-2.3-3.65-4.8,0-3.19,2.18-5,5.44-5,4.49,0,5,2.79,5,4.61v.39h-2.79v-.37c0-1.59-.69-2.52-2.45-2.52a2.24,2.24,0,0,0-2.36,2.52c0,1.5.76,2.26,2.63,3l1.88.68c2.48.89,3.56,2.21,3.56,4.63,0,3.73-2.26,5.27-5.79,5.27-4.33,0-5.31-2.89-5.31-5.34V33.5Z" fill="#3b4351"/></g><g id="Iranians-2" data-name="Iranians"><path d="M1205.39,11h5.66c2.62,0,4.7,1.17,4.7,4.23q0,3.16-2.57,4v0c1.91.35,3.14,1.5,3.14,4.46s-2.11,4.78-5.4,4.78h-5.53Zm5,7.37A2.45,2.45,0,0,0,1213,15.6c0-2.08-1.25-2.5-2.82-2.5h-2v5.27Zm.56,8c1.67,0,2.57-1.06,2.57-3.09a2.65,2.65,0,0,0-2.74-3h-2.6v6.06Z" fill="#3b4351"/><path d="M1227,25.75c0,.49.3.93.69.93a1.22,1.22,0,0,0,.44-.07v1.71a2.86,2.86,0,0,1-1.3.32c-1.18,0-2.16-.47-2.23-1.74h0a3.4,3.4,0,0,1-3.28,1.94c-2.13,0-3.43-1.16-3.43-3.7,0-2.95,1.3-3.56,3.06-4.15l2.06-.56c1-.27,1.54-.54,1.54-1.69s-.41-2-1.81-2c-1.77,0-2,1.25-2,2.52h-2.5c0-2.82,1.15-4.33,4.63-4.33,2.33,0,4.19.9,4.19,3.23Zm-2.5-4.22a20,20,0,0,1-2.94,1.23,2.17,2.17,0,0,0-1.08,2.13c0,1.1.54,2,1.64,2,1.6,0,2.38-1.17,2.38-3.13Z" fill="#3b4351"/><path d="M1229.71,11h2.65v5.85h.05a3,3,0,0,1,3-1.88c2,0,4.07.9,4.07,6.76,0,4.53-1.25,7.11-4.32,7.11a2.82,2.82,0,0,1-2.89-2h0v1.62h-2.5Zm4.73,15.73c1.87,0,2.23-1.89,2.23-4.88,0-3.55-.56-4.78-2.05-4.78-2.06,0-2.41,1.82-2.41,5C1232.21,24.89,1232.63,26.73,1234.44,26.73Z" fill="#3b4351"/><path d="M1243,15.31l2.28,9.9h0l2.1-9.9h2.77L1246.55,29c-1.06,3.6-1.87,4.1-4.61,4a4.62,4.62,0,0,1-1-.1V30.8a3.51,3.51,0,0,0,.85.09c.91,0,1.5-.17,1.79-1l.35-1.07-3.75-13.48Z" fill="#3b4351"/><path d="M1251.76,11h2.65V28.49h-2.65Z" fill="#3b4351"/><path d="M1256.57,21.9c0-4.12,1.07-6.93,4.9-6.93s4.92,2.81,4.92,6.93-1.27,6.94-4.92,6.94S1256.57,26,1256.57,21.9Zm4.9,5c1.93,0,2.28-1.61,2.28-5,0-2.92-.35-5-2.28-5s-2.26,2.05-2.26,5C1259.21,25.26,1259.58,26.87,1261.47,26.87Z" fill="#3b4351"/><path d="M1268.42,15.31h2.5v1.54h.08a3.78,3.78,0,0,1,3.38-1.88c2,0,3.28.9,3.28,3.57v10H1275v-9c0-1.76-.47-2.38-1.84-2.38-1.08,0-2.11.81-2.11,2.58v8.84h-2.65Z" fill="#3b4351"/><path d="M1280.33,10.8H1283v2.65h-2.65Zm0,4.51H1283V28.49h-2.65Z" fill="#3b4351"/><path d="M1294.3,25.75c0,.49.29.93.68.93a1.14,1.14,0,0,0,.44-.07v1.71a2.82,2.82,0,0,1-1.29.32c-1.18,0-2.16-.47-2.24-1.74h0a3.41,3.41,0,0,1-3.29,1.94c-2.13,0-3.43-1.16-3.43-3.7,0-2.95,1.3-3.56,3.06-4.15l2.06-.56c1-.27,1.55-.54,1.55-1.69s-.42-2-1.82-2c-1.76,0-2,1.25-2,2.52h-2.5c0-2.82,1.16-4.33,4.64-4.33,2.32,0,4.19.9,4.19,3.23Zm-2.5-4.22a21,21,0,0,1-2.94,1.23,2.17,2.17,0,0,0-1.08,2.13c0,1.1.54,2,1.64,2,1.59,0,2.38-1.17,2.38-3.13Z" fill="#3b4351"/><path d="M1297,15.31h2.5v1.54h.07a3.78,3.78,0,0,1,3.38-1.88c2,0,3.29.9,3.29,3.57v10h-2.65v-9c0-1.76-.46-2.38-1.84-2.38-1.07,0-2.1.81-2.1,2.58v8.84H1297Z" fill="#3b4351"/><path d="M1314.46,19.16v-.35c0-1-.37-2-1.74-2-1,0-1.89.46-1.89,1.71,0,1.06.47,1.45,1.86,1.94l1.7.59c2,.66,2.86,1.71,2.86,3.8,0,2.81-2.08,4-4.73,4-3.33,0-4.34-1.55-4.34-4.1v-.49h2.36v.42c0,1.54.51,2.35,2.06,2.35s2.15-.73,2.15-1.93a1.91,1.91,0,0,0-1.44-1.94l-2.16-.76c-2-.66-2.82-1.69-2.82-3.8,0-2.47,1.77-3.62,4.51-3.62,3.36,0,4.12,2,4.12,3.6v.59Z" fill="#3b4351"/></g><g id="Hittites"><g id="small"><path d="M686.56,14.75c-.11,1.81-.7,2.94-2.58,2.94-2.18,0-2.8-1.61-2.8-4s.62-4,2.8-4a2.44,2.44,0,0,1,2.59,2.71h-1.51c0-.7-.18-1.63-1.08-1.59-1.08,0-1.29,1.18-1.29,2.85s.21,2.84,1.29,2.84c.84,0,1.15-.68,1.15-1.82Z" fill="#3b4351"/><path d="M687.76,7.38h1.51V8.9h-1.51Zm0,2.58h1.51V17.5h-1.51Z" fill="#3b4351"/><path d="M690.12,10h1V7.82h1.51V10h1.24v1.12h-1.24v4.5c0,.6.17.8.69.8a2.72,2.72,0,0,0,.55-.05v1.12a4.69,4.69,0,0,1-1.22.13c-1,0-1.53-.29-1.53-1.82V11.08h-1Z" fill="#3b4351"/><path d="M695.7,10l1.3,5.66h0l1.2-5.66h1.59l-2.08,7.82c-.6,2.06-1.06,2.34-2.63,2.29a3,3,0,0,1-.6-.05V18.81a2.05,2.05,0,0,0,.49.06c.52,0,.85-.1,1-.59l.2-.62L694.07,10Z" fill="#3b4351"/><path d="M709,15.93c0,.28.17.53.39.53a.54.54,0,0,0,.25,0v1a1.58,1.58,0,0,1-.74.18c-.67,0-1.23-.27-1.28-1h0a2,2,0,0,1-1.88,1.1c-1.22,0-2-.66-2-2.11a2.08,2.08,0,0,1,1.75-2.37l1.18-.32c.54-.16.88-.31.88-1s-.24-1.12-1-1.12c-1,0-1.15.71-1.15,1.44h-1.43c0-1.61.66-2.48,2.65-2.48,1.33,0,2.4.52,2.4,1.85Zm-1.43-2.41a12.39,12.39,0,0,1-1.68.7,1.23,1.23,0,0,0-.62,1.22c0,.63.31,1.13.94,1.13.91,0,1.36-.67,1.36-1.79Z" fill="#3b4351"/><path d="M709.82,10h1V7.82h1.51V10h1.23v1.12h-1.23v4.5c0,.6.17.8.69.8a2.61,2.61,0,0,0,.54-.05v1.12a4.56,4.56,0,0,1-1.21.13c-1,0-1.53-.29-1.53-1.82V11.08h-1Z" fill="#3b4351"/><path d="M717.85,7.49h1.59v4.36h0l3-4.36h1.75l-2.89,4.22,3.19,5.79h-1.8L720.32,13l-.88,1.26V17.5h-1.59Z" fill="#3b4351"/><path d="M725,7.49h1.52v3.28l0,0a2.14,2.14,0,0,1,1.85-1c1.15,0,1.87.52,1.87,2.05V17.5h-1.51V12.33c0-1-.28-1.36-1-1.36s-1.2.47-1.2,1.47V17.5H725Z" fill="#3b4351"/><path d="M736.69,15.93c0,.28.17.53.39.53a.59.59,0,0,0,.26,0v1a1.63,1.63,0,0,1-.75.18c-.67,0-1.23-.27-1.27-1h0a2,2,0,0,1-1.88,1.1c-1.21,0-2-.66-2-2.11a2.09,2.09,0,0,1,1.75-2.37l1.18-.32c.55-.16.88-.31.88-1s-.24-1.12-1-1.12c-1,0-1.15.71-1.15,1.44h-1.43c0-1.61.66-2.48,2.65-2.48,1.33,0,2.39.52,2.39,1.85Zm-1.43-2.41a12.39,12.39,0,0,1-1.68.7,1.24,1.24,0,0,0-.61,1.22c0,.63.3,1.13.93,1.13.91,0,1.36-.67,1.36-1.79Z" fill="#3b4351"/><path d="M737.56,10h1V7.82h1.52V10h1.23v1.12h-1.23v4.5c0,.6.16.8.68.8a2.64,2.64,0,0,0,.55-.05v1.12a4.64,4.64,0,0,1-1.22.13c-1,0-1.53-.29-1.53-1.82V11.08h-1Z" fill="#3b4351"/><path d="M741.45,10h1V7.82H744V10h1.23v1.12H744v4.5c0,.6.17.8.68.8a2.64,2.64,0,0,0,.55-.05v1.12a4.64,4.64,0,0,1-1.22.13c-1,0-1.52-.29-1.52-1.82V11.08h-1Z" fill="#3b4351"/><path d="M746.08,7.38h1.52V8.9h-1.52Zm0,2.58h1.52V17.5h-1.52Z" fill="#3b4351"/><path d="M749.27,15.65h1.6V17.5c0,1.12-.36,1.92-1.6,2.15v-.81a1,1,0,0,0,.71-1.13V17.5h-.71Z" fill="#3b4351"/><path d="M754.65,10h1V7.82h1.51V10h1.23v1.12H757.2v4.5c0,.6.17.8.69.8a2.61,2.61,0,0,0,.54-.05v1.12a4.64,4.64,0,0,1-1.22.13c-1,0-1.52-.29-1.52-1.82V11.08h-1Z" fill="#3b4351"/><path d="M759.22,7.49h1.51v3.28l0,0a2.14,2.14,0,0,1,1.85-1c1.15,0,1.88.52,1.88,2.05V17.5H763V12.33c0-1-.28-1.36-1.05-1.36-.61,0-1.2.47-1.2,1.47V17.5h-1.51Z" fill="#3b4351"/><path d="M767.25,13.92v.44c0,1,.13,2.3,1.26,2.3s1.21-1.22,1.21-1.69h1.43a2.48,2.48,0,0,1-2.65,2.72c-1.23,0-2.76-.36-2.76-3.85,0-2,.43-4.08,2.79-4.08,2.1,0,2.66,1.28,2.66,3.37v.79Zm2.42-1v-.41c0-1-.3-1.68-1.16-1.68s-1.26.95-1.26,1.93v.16Z" fill="#3b4351"/><path d="M686.71,41.69A1.72,1.72,0,0,1,685,40.61h0V44h-1.51V34h1.43v.92h0a1.78,1.78,0,0,1,1.69-1.12c1.73,0,2.43,1.47,2.43,4.07C689,41,687.76,41.69,686.71,41.69ZM686.16,35c-1,0-1.27,1.05-1.27,2.67,0,1.81.22,2.85,1.29,2.85.85,0,1.26-.65,1.26-2.73C687.44,36.05,687.23,35,686.16,35Z" fill="#3b4351"/><path d="M690.2,34h1.51v1.18h0a1.86,1.86,0,0,1,1.75-1.38.87.87,0,0,1,.36.06v1.54a2.18,2.18,0,0,0-.63-.08c-.69,0-1.51.3-1.51,1.71V41.5H690.2Z" fill="#3b4351"/><path d="M695.82,37.92v.44c0,1,.13,2.3,1.26,2.3s1.21-1.22,1.21-1.69h1.43a2.48,2.48,0,0,1-2.65,2.72c-1.23,0-2.76-.36-2.76-3.85,0-2,.44-4.08,2.79-4.08,2.1,0,2.66,1.28,2.66,3.37v.79Zm2.43-1v-.41c0-.95-.31-1.68-1.17-1.68s-1.26,1-1.26,1.93v.16Z" fill="#3b4351"/><path d="M704.25,36.16V36c0-.6-.21-1.16-1-1.16-.6,0-1.08.27-1.08,1s.27.83,1.06,1.11l1,.33a2,2,0,0,1,1.64,2.17c0,1.62-1.19,2.3-2.7,2.3-1.91,0-2.48-.88-2.48-2.34v-.28H702v.24c0,.88.3,1.35,1.18,1.35s1.23-.42,1.23-1.11a1.09,1.09,0,0,0-.83-1.11L702.36,38a2,2,0,0,1-1.61-2.17c0-1.42,1-2.08,2.58-2.08,1.92,0,2.35,1.12,2.35,2.06v.34Z" fill="#3b4351"/><path d="M708.27,37.92v.44c0,1,.13,2.3,1.26,2.3s1.2-1.22,1.2-1.69h1.43a2.48,2.48,0,0,1-2.64,2.72c-1.24,0-2.76-.36-2.76-3.85,0-2,.43-4.08,2.78-4.08,2.1,0,2.67,1.28,2.67,3.37v.79Zm2.42-1v-.41c0-.95-.31-1.68-1.16-1.68s-1.26,1-1.26,1.93v.16Z" fill="#3b4351"/><path d="M713.45,34h1.43v.88h0a2.17,2.17,0,0,1,1.93-1.08c1.15,0,1.88.52,1.88,2.05V41.5h-1.51V36.33c0-1-.27-1.36-1.05-1.36-.62,0-1.21.46-1.21,1.47V41.5h-1.51Z" fill="#3b4351"/><path d="M719.51,34h1V31.82h1.51V34h1.23v1.12h-1.23v4.5c0,.6.17.8.69.8a2.61,2.61,0,0,0,.54-.05v1.12a4.64,4.64,0,0,1-1.22.13c-1,0-1.52-.29-1.52-1.82V35.08h-1Z" fill="#3b4351"/><path d="M727.53,31.49h3.24c1.5,0,2.69.68,2.69,2.43A2.11,2.11,0,0,1,732,36.19v0c1.09.19,1.79.85,1.79,2.54s-1.2,2.74-3.08,2.74h-3.17Zm2.86,4.22a1.4,1.4,0,0,0,1.47-1.58c0-1.19-.71-1.43-1.61-1.43h-1.12v3Zm.32,4.58c.95,0,1.47-.6,1.47-1.76a1.52,1.52,0,0,0-1.57-1.7h-1.48v3.46Z" fill="#3b4351"/><path d="M734.66,37.73c0-2.36.61-4,2.8-4s2.82,1.61,2.82,4-.73,4-2.82,4S734.66,40.08,734.66,37.73Zm2.8,2.84c1.11,0,1.3-.92,1.3-2.84,0-1.67-.19-2.85-1.3-2.85s-1.29,1.18-1.29,2.85C736.17,39.65,736.38,40.57,737.46,40.57Z" fill="#3b4351"/><path d="M743,42.14A1,1,0,0,0,744,43a1.25,1.25,0,0,0,1.27-1.42V40.4h0a1.82,1.82,0,0,1-1.71,1c-1.75,0-2.26-1.72-2.26-3.8,0-1.65.25-3.88,2.4-3.88a1.67,1.67,0,0,1,1.65,1.12h0V34h1.43v7.17c0,1.84-.79,2.94-2.82,2.94-2.24,0-2.49-1.31-2.49-1.93Zm1.06-1.9c1.18,0,1.3-1.49,1.3-2.68s-.15-2.59-1.2-2.59-1.27,1.12-1.27,2.52S742.89,40.24,744,40.24Z" fill="#3b4351"/><path d="M748.17,31.49h1.51v3.28l0,0a2.16,2.16,0,0,1,1.85-1c1.15,0,1.88.52,1.88,2.05V41.5h-1.51V36.33c0-1-.28-1.36-1.05-1.36s-1.21.47-1.21,1.47V41.5h-1.51Z" fill="#3b4351"/><path d="M759.85,39.93c0,.28.17.53.39.53a.57.57,0,0,0,.25,0v1a1.58,1.58,0,0,1-.74.18c-.67,0-1.23-.27-1.28-1h0a2,2,0,0,1-1.88,1.1c-1.22,0-2-.66-2-2.11a2.08,2.08,0,0,1,1.75-2.37l1.18-.32c.54-.16.88-.31.88-1s-.24-1.12-1-1.12c-1,0-1.15.71-1.15,1.44H754.8c0-1.61.66-2.48,2.65-2.48,1.33,0,2.4.52,2.4,1.85Zm-1.43-2.41a12.39,12.39,0,0,1-1.68.7,1.23,1.23,0,0,0-.62,1.22c0,.63.31,1.13.94,1.13.91,0,1.36-.67,1.36-1.79Z" fill="#3b4351"/><path d="M761,40.32l3.29-5.09h-3.1V34H766v1.25l-3.17,5H766V41.5h-5Z" fill="#3b4351"/><path d="M767.24,39.65h1.59V41.5h-1.59Z" fill="#3b4351"/><path d="M698.37,94.58H700v10h-1.6Z" fill="#3b4351"/><path d="M701.52,97.05H703v.88h0a2.12,2.12,0,0,1,1.81-1.08A1.63,1.63,0,0,1,706.55,98a2,2,0,0,1,1.9-1.15c1.07,0,1.84.55,1.84,2v5.72h-1.51V99.42c0-1-.3-1.36-.91-1.36s-1.21.47-1.21,1.47v5h-1.51V99.42c0-1-.3-1.36-.93-1.36s-1.19.49-1.19,1.47v5h-1.51Z" fill="#3b4351"/><path d="M715.06,104.78a1.74,1.74,0,0,1-1.71-1.08h0v3.35h-1.51v-10h1.43V98h0A1.78,1.78,0,0,1,715,96.85c1.73,0,2.43,1.47,2.43,4.06C717.39,104.08,716.11,104.78,715.06,104.78Zm-.55-6.72c-1,0-1.27,1-1.27,2.67,0,1.81.22,2.85,1.29,2.85.85,0,1.26-.65,1.26-2.74C715.79,99.14,715.58,98.06,714.51,98.06Z" fill="#3b4351"/><path d="M718.25,100.82c0-2.36.62-4,2.8-4s2.82,1.61,2.82,4-.73,4-2.82,4S718.25,103.17,718.25,100.82Zm2.8,2.84c1.11,0,1.3-.92,1.3-2.84,0-1.67-.19-2.85-1.3-2.85s-1.29,1.18-1.29,2.85C719.76,102.74,720,103.66,721.05,103.66Z" fill="#3b4351"/><path d="M728.28,99.25v-.2c0-.6-.21-1.16-1-1.16-.6,0-1.08.26-1.08,1s.27.83,1.07,1.11l1,.33a2,2,0,0,1,1.64,2.17c0,1.61-1.19,2.3-2.7,2.3-1.91,0-2.48-.88-2.48-2.34v-.28H726v.24c0,.88.29,1.34,1.17,1.34s1.23-.42,1.23-1.1a1.09,1.09,0,0,0-.82-1.11l-1.23-.43a2,2,0,0,1-1.62-2.17c0-1.42,1-2.08,2.58-2.08,1.92,0,2.35,1.12,2.35,2.06v.34Z" fill="#3b4351"/><path d="M731.06,94.47h1.51V96h-1.51Zm0,2.58h1.51v7.53h-1.51Z" fill="#3b4351"/><path d="M734.1,97.05h1.43v.88h0a2.17,2.17,0,0,1,1.93-1.08c1.15,0,1.88.52,1.88,2.05v5.68h-1.51V99.42c0-1-.27-1.36-1-1.36-.62,0-1.21.46-1.21,1.47v5H734.1Z" fill="#3b4351"/><path d="M742.35,105.23a1,1,0,0,0,1.09.89,1.24,1.24,0,0,0,1.27-1.41v-1.22h0a1.82,1.82,0,0,1-1.7,1c-1.76,0-2.26-1.72-2.26-3.8,0-1.65.25-3.88,2.4-3.88A1.67,1.67,0,0,1,744.77,98h0v-.92h1.43v7.17c0,1.84-.79,2.94-2.82,2.94-2.24,0-2.49-1.31-2.49-1.93Zm1.06-1.91c1.18,0,1.3-1.48,1.3-2.67s-.15-2.59-1.2-2.59-1.28,1.12-1.28,2.52S742.29,103.32,743.41,103.32Z" fill="#3b4351"/><path d="M754.18,104.78a1.74,1.74,0,0,1-1.71-1.08h0v3.35h-1.51v-10h1.42V98h0a1.79,1.79,0,0,1,1.7-1.12c1.72,0,2.42,1.47,2.42,4.06C756.5,104.08,755.23,104.78,754.18,104.78Zm-.55-6.72c-1,0-1.28,1-1.28,2.67,0,1.81.23,2.85,1.29,2.85.86,0,1.26-.65,1.26-2.74C754.9,99.14,754.69,98.06,753.63,98.06Z" fill="#3b4351"/><path d="M762.6,103c0,.28.17.53.4.53a.76.76,0,0,0,.25,0v1a1.71,1.71,0,0,1-.74.18c-.68,0-1.24-.27-1.28-1h0a1.93,1.93,0,0,1-1.87,1.11c-1.22,0-2-.66-2-2.11a2.07,2.07,0,0,1,1.75-2.37l1.17-.32c.55-.16.89-.31.89-1s-.24-1.12-1-1.12c-1,0-1.15.71-1.15,1.44h-1.43c0-1.61.66-2.48,2.65-2.48,1.33,0,2.39.52,2.39,1.85Zm-1.42-2.41a13.82,13.82,0,0,1-1.68.7,1.22,1.22,0,0,0-.62,1.22c0,.63.31,1.13.94,1.13.91,0,1.36-.67,1.36-1.79Z" fill="#3b4351"/><path d="M764.21,94.58h1.51v10h-1.51Z" fill="#3b4351"/><path d="M772.19,103c0,.28.17.53.4.53a.76.76,0,0,0,.25,0v1a1.71,1.71,0,0,1-.74.18c-.68,0-1.24-.27-1.28-1h0a1.93,1.93,0,0,1-1.87,1.11c-1.22,0-2-.66-2-2.11a2.07,2.07,0,0,1,1.75-2.37l1.17-.32c.55-.16.89-.31.89-1s-.24-1.12-1-1.12c-1,0-1.15.71-1.15,1.44h-1.43c0-1.61.66-2.48,2.65-2.48,1.33,0,2.39.52,2.39,1.85Zm-1.42-2.41a13.32,13.32,0,0,1-1.69.7,1.23,1.23,0,0,0-.61,1.22c0,.63.31,1.13.94,1.13.91,0,1.36-.67,1.36-1.79Z" fill="#3b4351"/><path d="M778.82,101.84c-.12,1.81-.7,2.94-2.58,2.94-2.19,0-2.8-1.61-2.8-4s.61-4,2.8-4a2.44,2.44,0,0,1,2.59,2.71h-1.51c0-.7-.18-1.63-1.08-1.59-1.08,0-1.29,1.18-1.29,2.85s.21,2.84,1.29,2.84c.84,0,1.15-.69,1.15-1.82Z" fill="#3b4351"/><path d="M781.25,101v.44c0,1,.13,2.29,1.26,2.29s1.21-1.21,1.21-1.68h1.42a2.47,2.47,0,0,1-2.64,2.72c-1.24,0-2.76-.36-2.76-3.85,0-2,.43-4.08,2.78-4.08,2.11,0,2.67,1.28,2.67,3.36v.8Zm2.42-1v-.41c0-.95-.3-1.68-1.16-1.68s-1.26,1-1.26,1.93V100Z" fill="#3b4351"/><path d="M789.68,99.25v-.2c0-.6-.21-1.16-1-1.16-.6,0-1.07.26-1.07,1s.26.83,1.06,1.11l1,.33a2,2,0,0,1,1.64,2.17c0,1.61-1.19,2.3-2.71,2.3-1.9,0-2.48-.88-2.48-2.34v-.28h1.35v.24c0,.88.29,1.34,1.17,1.34s1.24-.42,1.24-1.1a1.09,1.09,0,0,0-.83-1.11l-1.23-.43a2,2,0,0,1-1.61-2.17c0-1.42,1-2.08,2.57-2.08,1.92,0,2.36,1.12,2.36,2.06v.34Z" fill="#3b4351"/></g></g><g id="Egytians"><g id="small-2" data-name="small"><path d="M360.07,8.3h1.63L363,14.24h0l1.19-5.94h1.61l-2,7.53h-1.76Z" fill="#3b4351"/><path d="M371.44,14.26c0,.28.17.54.4.54a.55.55,0,0,0,.25-.05v1a1.58,1.58,0,0,1-.74.19c-.68,0-1.24-.27-1.28-1h0A1.94,1.94,0,0,1,368.17,16c-1.22,0-2-.66-2-2.12A2.07,2.07,0,0,1,368,11.55l1.17-.33c.55-.15.89-.3.89-1s-.24-1.12-1-1.12c-1,0-1.15.71-1.15,1.44H366.4c0-1.61.66-2.48,2.65-2.48,1.33,0,2.39.52,2.39,1.85ZM370,11.85a10.92,10.92,0,0,1-1.69.7,1.24,1.24,0,0,0-.61,1.22c0,.63.31,1.14.94,1.14.91,0,1.36-.67,1.36-1.8Z" fill="#3b4351"/><path d="M376.23,10.5v-.2c0-.6-.21-1.16-1-1.16-.61,0-1.08.26-1.08,1s.26.82,1.06,1.1l1,.34a2,2,0,0,1,1.64,2.17c0,1.61-1.19,2.3-2.71,2.3-1.9,0-2.48-.88-2.48-2.34v-.28H374v.24c0,.88.29,1.34,1.18,1.34s1.23-.42,1.23-1.11a1.09,1.09,0,0,0-.83-1.1l-1.23-.44a2,2,0,0,1-1.61-2.17c0-1.41,1-2.07,2.58-2.07,1.92,0,2.35,1.12,2.35,2.06v.34Z" fill="#3b4351"/><path d="M382.19,10.5v-.2c0-.6-.21-1.16-1-1.16-.6,0-1.08.26-1.08,1s.27.82,1.07,1.1l1,.34a2,2,0,0,1,1.64,2.17c0,1.61-1.19,2.3-2.7,2.3-1.91,0-2.48-.88-2.48-2.34v-.28H380v.24c0,.88.3,1.34,1.18,1.34s1.23-.42,1.23-1.11a1.09,1.09,0,0,0-.82-1.1l-1.24-.44a2,2,0,0,1-1.61-2.17c0-1.41,1-2.07,2.58-2.07,1.92,0,2.35,1.12,2.35,2.06v.34Z" fill="#3b4351"/><path d="M385,5.83h1.51v10H385Z" fill="#3b4351"/><path d="M394.63,10.5v-.2c0-.6-.21-1.16-1-1.16-.6,0-1.08.26-1.08,1s.27.82,1.07,1.1l1,.34a2,2,0,0,1,1.64,2.17c0,1.61-1.19,2.3-2.7,2.3-1.91,0-2.48-.88-2.48-2.34v-.28h1.35v.24c0,.88.29,1.34,1.17,1.34s1.23-.42,1.23-1.11a1.09,1.09,0,0,0-.82-1.1l-1.23-.44a2,2,0,0,1-1.62-2.17c0-1.41,1-2.07,2.58-2.07,1.92,0,2.36,1.12,2.36,2.06v.34Z" fill="#3b4351"/><path d="M396.67,8.3h1V6.15h1.52V8.3h1.23V9.42h-1.23v4.49c0,.61.17.8.68.8a2.75,2.75,0,0,0,.55,0v1.12a5.11,5.11,0,0,1-1.22.13c-1,0-1.53-.3-1.53-1.82V9.42h-1Z" fill="#3b4351"/><path d="M406.18,14.26c0,.28.17.54.39.54a.52.52,0,0,0,.25-.05v1a1.58,1.58,0,0,1-.74.19c-.67,0-1.23-.27-1.28-1h0A2,2,0,0,1,402.9,16c-1.22,0-2-.66-2-2.12a2.06,2.06,0,0,1,1.75-2.36l1.18-.33c.54-.15.88-.3.88-1s-.24-1.12-1-1.12c-1,0-1.15.71-1.15,1.44h-1.43c0-1.61.66-2.48,2.65-2.48,1.33,0,2.4.52,2.4,1.85Zm-1.43-2.41a11.23,11.23,0,0,1-1.68.7,1.23,1.23,0,0,0-.62,1.22c0,.63.31,1.14.94,1.14.91,0,1.36-.67,1.36-1.8Z" fill="#3b4351"/><path d="M407,8.3h1V6.15h1.51V8.3h1.23V9.42h-1.23v4.49c0,.61.17.8.69.8a2.7,2.7,0,0,0,.54,0v1.12a5,5,0,0,1-1.21.13c-1,0-1.53-.3-1.53-1.82V9.42h-1Z" fill="#3b4351"/><path d="M412.91,12.26v.43c0,1,.13,2.3,1.26,2.3s1.2-1.22,1.2-1.68h1.43A2.48,2.48,0,0,1,414.16,16c-1.24,0-2.76-.37-2.76-3.85,0-2,.43-4.08,2.78-4.08,2.11,0,2.67,1.27,2.67,3.36v.8Zm2.42-1v-.4c0-1-.31-1.68-1.16-1.68s-1.26.95-1.26,1.93v.15Z" fill="#3b4351"/><path d="M421.34,10.5v-.2c0-.6-.21-1.16-1-1.16-.6,0-1.07.26-1.07,1s.26.82,1.06,1.1l1,.34a2,2,0,0,1,1.64,2.17c0,1.61-1.2,2.3-2.71,2.3-1.9,0-2.48-.88-2.48-2.34v-.28h1.35v.24c0,.88.29,1.34,1.17,1.34s1.24-.42,1.24-1.11a1.09,1.09,0,0,0-.83-1.1l-1.23-.44a2,2,0,0,1-1.61-2.17c0-1.41,1-2.07,2.57-2.07,1.92,0,2.36,1.12,2.36,2.06v.34Z" fill="#3b4351"/><path d="M432.36,14.26c0,.28.17.54.39.54a.52.52,0,0,0,.25-.05v1a1.58,1.58,0,0,1-.74.19c-.67,0-1.23-.27-1.28-1h0A2,2,0,0,1,429.08,16c-1.22,0-2-.66-2-2.12a2.06,2.06,0,0,1,1.75-2.36l1.18-.33c.54-.15.88-.3.88-1s-.24-1.12-1-1.12c-1,0-1.15.71-1.15,1.44h-1.43C427.31,9,428,8.1,430,8.1c1.33,0,2.4.52,2.4,1.85Zm-1.43-2.41a11.23,11.23,0,0,1-1.68.7,1.23,1.23,0,0,0-.62,1.22c0,.63.31,1.14.94,1.14.91,0,1.36-.67,1.36-1.8Z" fill="#3b4351"/><path d="M433.89,8.3h1.43v.88h.05A2.15,2.15,0,0,1,437.3,8.1c1.15,0,1.88.52,1.88,2v5.69h-1.52V10.66c0-1-.26-1.36-1.05-1.36-.61,0-1.2.47-1.2,1.48v5.05h-1.52Z" fill="#3b4351"/><path d="M444.48,14.91h0A1.61,1.61,0,0,1,442.8,16c-1.75,0-2.47-1.49-2.47-4.06,0-3.35,1.18-3.87,2.33-3.87a1.74,1.74,0,0,1,1.71,1.08h0V5.83h1.51v10h-1.43ZM443.11,9.3c-.86,0-1.18.7-1.18,2.74,0,1.71.21,2.78,1.28,2.78s1.27-1.05,1.27-2.67C444.48,10.34,444.28,9.3,443.11,9.3Z" fill="#3b4351"/><path d="M450.79,5.83h1.51v10h-1.51Z" fill="#3b4351"/><path d="M455.13,12.26v.43c0,1,.13,2.3,1.26,2.3s1.21-1.22,1.21-1.68H459A2.48,2.48,0,0,1,456.38,16c-1.23,0-2.76-.37-2.76-3.85,0-2,.43-4.08,2.79-4.08,2.1,0,2.66,1.27,2.66,3.36v.8Zm2.43-1v-.4c0-1-.31-1.68-1.17-1.68s-1.26.95-1.26,1.93v.15Z" fill="#3b4351"/><path d="M460.77,9.42h-1V8.3h1V7.6c0-1.42.69-1.88,1.92-1.88a6.47,6.47,0,0,1,.83,0V6.92h-.42c-.56,0-.81.21-.81.72V8.3h1.23V9.42h-1.23v6.41h-1.52Z" fill="#3b4351"/><path d="M463.53,8.3h1V6.15h1.51V8.3h1.23V9.42h-1.23v4.49c0,.61.17.8.69.8a2.7,2.7,0,0,0,.54,0v1.12a5,5,0,0,1-1.21.13c-1,0-1.53-.3-1.53-1.82V9.42h-1Z" fill="#3b4351"/><path d="M471.53,8.3H473v.88H473a2.1,2.1,0,0,1,1.8-1.08,1.63,1.63,0,0,1,1.75,1.15,2.07,2.07,0,0,1,1.91-1.15c1.06,0,1.83.55,1.83,2v5.73h-1.51V10.66c0-1-.29-1.36-.91-1.36s-1.2.48-1.2,1.48v5.05h-1.52V10.66c0-1-.29-1.36-.92-1.36S473,9.79,473,10.78v5.05h-1.51Z" fill="#3b4351"/><path d="M486.76,14.26c0,.28.17.54.39.54a.52.52,0,0,0,.25-.05v1a1.55,1.55,0,0,1-.74.19c-.67,0-1.23-.27-1.27-1h0A2,2,0,0,1,483.48,16c-1.22,0-2-.66-2-2.12a2.06,2.06,0,0,1,1.75-2.36l1.18-.33c.55-.15.88-.3.88-1s-.24-1.12-1-1.12c-1,0-1.14.71-1.14,1.44h-1.43c0-1.61.66-2.48,2.65-2.48,1.33,0,2.39.52,2.39,1.85Zm-1.43-2.41a11.23,11.23,0,0,1-1.68.7,1.25,1.25,0,0,0-.62,1.22c0,.63.31,1.14.94,1.14.91,0,1.36-.67,1.36-1.8Z" fill="#3b4351"/><path d="M488.3,8.3h1.43v.88h0A2.17,2.17,0,0,1,491.7,8.1c1.15,0,1.88.52,1.88,2v5.69h-1.51V10.66c0-1-.27-1.36-1.05-1.36-.62,0-1.21.47-1.21,1.48v5.05H488.3Z" fill="#3b4351"/><path d="M496,8.3l1.3,5.66h0l1.21-5.66h1.58l-2.07,7.81c-.61,2.06-1.07,2.34-2.64,2.3a2.45,2.45,0,0,1-.6-.06v-1.2a2,2,0,0,0,.49.05c.52,0,.85-.09,1-.58l.2-.62-2.14-7.7Z" fill="#3b4351"/><path d="M504.43,8.3h1.42v.88h0a2.1,2.1,0,0,1,1.8-1.08,1.63,1.63,0,0,1,1.75,1.15,2.07,2.07,0,0,1,1.91-1.15c1.06,0,1.83.55,1.83,2v5.73h-1.51V10.66c0-1-.29-1.36-.91-1.36s-1.2.48-1.2,1.48v5.05h-1.52V10.66c0-1-.29-1.36-.92-1.36s-1.19.49-1.19,1.48v5.05h-1.51Z" fill="#3b4351"/><path d="M514.42,12.06c0-2.35.62-4,2.8-4s2.82,1.61,2.82,4-.73,4-2.82,4S514.42,14.42,514.42,12.06Zm2.8,2.85c1.11,0,1.31-.93,1.31-2.85,0-1.66-.2-2.84-1.31-2.84s-1.29,1.18-1.29,2.84C515.93,14,516.14,14.91,517.22,14.91Z" fill="#3b4351"/><path d="M521.2,8.3h1.43v.88h0A2.17,2.17,0,0,1,524.6,8.1c1.15,0,1.88.52,1.88,2v5.69H525V10.66c0-1-.27-1.36-1.06-1.36-.61,0-1.2.47-1.2,1.48v5.05H521.2Z" fill="#3b4351"/><path d="M531.78,15h0A2.17,2.17,0,0,1,529.81,16c-1.12,0-1.88-.52-1.88-2.47V8.3h1.51v5.4c0,.84.37,1.12,1,1.12a1.18,1.18,0,0,0,1.23-1.26V8.3h1.51v7.53h-1.43Z" fill="#3b4351"/><path d="M534.73,8.3h1.43v.88h.05A2.1,2.1,0,0,1,538,8.1a1.63,1.63,0,0,1,1.75,1.15,2.07,2.07,0,0,1,1.91-1.15c1.06,0,1.83.55,1.83,2v5.73H542V10.66c0-1-.29-1.36-.91-1.36s-1.2.48-1.2,1.48v5.05h-1.52V10.66c0-1-.29-1.36-.92-1.36s-1.19.49-1.19,1.48v5.05h-1.52Z" fill="#3b4351"/><path d="M546.33,12.26v.43c0,1,.12,2.3,1.26,2.3s1.2-1.22,1.2-1.68h1.43A2.48,2.48,0,0,1,547.57,16c-1.23,0-2.76-.37-2.76-3.85,0-2,.44-4.08,2.79-4.08,2.1,0,2.66,1.27,2.66,3.36v.8Zm2.42-1v-.4c0-1-.31-1.68-1.16-1.68s-1.26.95-1.26,1.93v.15Z" fill="#3b4351"/><path d="M551.51,8.3h1.43v.88h0a2.17,2.17,0,0,1,1.93-1.08c1.15,0,1.88.52,1.88,2v5.69h-1.52V10.66c0-1-.26-1.36-1-1.36-.61,0-1.2.47-1.2,1.48v5.05h-1.51Z" fill="#3b4351"/><path d="M557.57,8.3h1V6.15h1.52V8.3h1.23V9.42h-1.23v4.49c0,.61.17.8.68.8a2.75,2.75,0,0,0,.55,0v1.12a5.11,5.11,0,0,1-1.22.13c-1,0-1.53-.3-1.53-1.82V9.42h-1Z" fill="#3b4351"/><path d="M565.38,10.5v-.2c0-.6-.21-1.16-1-1.16-.6,0-1.08.26-1.08,1s.27.82,1.06,1.1l1,.34A2,2,0,0,1,567,13.73c0,1.61-1.19,2.3-2.7,2.3-1.91,0-2.48-.88-2.48-2.34v-.28h1.34v.24c0,.88.3,1.34,1.18,1.34s1.23-.42,1.23-1.11a1.09,1.09,0,0,0-.83-1.1l-1.23-.44a2,2,0,0,1-1.61-2.17c0-1.41,1-2.07,2.58-2.07,1.92,0,2.35,1.12,2.35,2.06v.34Z" fill="#3b4351"/><path d="M389.8,44.39h2l2.64,10h-1.67l-.62-2.45h-2.93l-.64,2.45H387Zm2.13,6.28-1.15-4.93h0l-1.19,4.93Z" fill="#3b4351"/><path d="M400.16,51.65c-.11,1.8-.7,2.94-2.58,2.94-2.18,0-2.8-1.61-2.8-4s.62-4,2.8-4a2.43,2.43,0,0,1,2.59,2.7h-1.51c0-.7-.18-1.62-1.08-1.58-1.08,0-1.29,1.18-1.29,2.84s.21,2.85,1.29,2.85c.84,0,1.15-.69,1.15-1.82Z" fill="#3b4351"/><path d="M401.2,44.39h1.52v3.28l0,0a2.14,2.14,0,0,1,1.85-1c1.15,0,1.88.52,1.88,2.05v5.68H405V49.22c0-1-.28-1.35-1.05-1.35-.61,0-1.2.47-1.2,1.47v5H401.2Z" fill="#3b4351"/><path d="M412.88,52.82c0,.28.17.54.4.54a.55.55,0,0,0,.25,0v1a1.58,1.58,0,0,1-.74.19c-.68,0-1.24-.27-1.28-1h0a1.93,1.93,0,0,1-1.87,1.11c-1.22,0-2-.66-2-2.12a2.07,2.07,0,0,1,1.76-2.36l1.17-.33c.55-.15.88-.3.88-1s-.23-1.12-1-1.12c-1,0-1.15.71-1.15,1.44h-1.43c0-1.61.66-2.48,2.65-2.48,1.33,0,2.39.52,2.39,1.85Zm-1.43-2.4a13.18,13.18,0,0,1-1.68.7,1.23,1.23,0,0,0-.61,1.21c0,.63.3,1.14.94,1.14.91,0,1.35-.67,1.35-1.79Z" fill="#3b4351"/><path d="M414.49,44.28H416v1.51h-1.51Zm0,2.58H416v7.53h-1.51Z" fill="#3b4351"/><path d="M422.61,51.65c-.11,1.8-.7,2.94-2.57,2.94-2.19,0-2.81-1.61-2.81-4s.62-4,2.81-4a2.43,2.43,0,0,1,2.59,2.7h-1.52c0-.7-.18-1.62-1.07-1.58-1.08,0-1.29,1.18-1.29,2.84s.21,2.85,1.29,2.85c.84,0,1.14-.69,1.14-1.82Z" fill="#3b4351"/><path d="M430.35,54.59a1.72,1.72,0,0,1-1.7-1.08h0v3.35H427.1v-10h1.43v.92h0a1.79,1.79,0,0,1,1.7-1.12c1.72,0,2.42,1.47,2.42,4.06C432.68,53.89,431.4,54.59,430.35,54.59Zm-.54-6.72c-1,0-1.28,1.05-1.28,2.67,0,1.81.23,2.84,1.29,2.84.86,0,1.26-.64,1.26-2.73C431.08,48.94,430.87,47.87,429.81,47.87Z" fill="#3b4351"/><path d="M435.14,50.82v.44c0,1,.13,2.29,1.26,2.29s1.21-1.22,1.21-1.68H439a2.47,2.47,0,0,1-2.64,2.72c-1.24,0-2.76-.36-2.76-3.85,0-2,.43-4.08,2.78-4.08,2.11,0,2.67,1.28,2.67,3.36v.8Zm2.42-1v-.4c0-1-.3-1.68-1.16-1.68s-1.26.95-1.26,1.93v.15Z" fill="#3b4351"/><path d="M440.32,46.86h1.51V48h0a1.87,1.87,0,0,1,1.75-1.37.77.77,0,0,1,.37.06v1.54a2.23,2.23,0,0,0-.63-.09c-.69,0-1.52.31-1.52,1.71v4.51h-1.51Z" fill="#3b4351"/><path d="M444.8,44.28h1.51v1.51H444.8Zm0,2.58h1.51v7.53H444.8Z" fill="#3b4351"/><path d="M447.54,50.62c0-2.35.62-4,2.8-4s2.82,1.61,2.82,4-.73,4-2.82,4S447.54,53,447.54,50.62Zm2.8,2.85c1.11,0,1.31-.93,1.31-2.85,0-1.66-.2-2.84-1.31-2.84s-1.28,1.18-1.28,2.84C449.06,52.54,449.27,53.47,450.34,53.47Z" fill="#3b4351"/><path d="M458.17,53.47h0a1.6,1.6,0,0,1-1.65,1.12c-1.75,0-2.46-1.49-2.46-4.06,0-3.35,1.17-3.87,2.32-3.87a1.74,1.74,0,0,1,1.71,1.08h0V44.39h1.51v10h-1.43Zm-1.37-5.6c-.85,0-1.18.7-1.18,2.73,0,1.71.21,2.78,1.28,2.78s1.27-1.05,1.27-2.67C458.17,48.9,458,47.87,456.8,47.87Z" fill="#3b4351"/><path d="M464.48,44.28H466v1.51h-1.52Zm0,2.58H466v7.53h-1.52Z" fill="#3b4351"/><path d="M467.52,46.86H469v.88h0a2.17,2.17,0,0,1,1.93-1.08c1.15,0,1.88.52,1.88,2.05v5.68h-1.51V49.22c0-1-.27-1.35-1.05-1.35-.62,0-1.21.46-1.21,1.47v5h-1.51Z" fill="#3b4351"/><path d="M482.56,52.82c0,.28.17.54.39.54a.52.52,0,0,0,.25,0v1a1.58,1.58,0,0,1-.74.19c-.67,0-1.23-.27-1.27-1h0a1.94,1.94,0,0,1-1.88,1.11c-1.22,0-2-.66-2-2.12a2.06,2.06,0,0,1,1.75-2.36l1.18-.33c.54-.15.88-.3.88-1s-.24-1.12-1-1.12c-1,0-1.14.71-1.14,1.44h-1.43c0-1.61.65-2.48,2.64-2.48,1.33,0,2.4.52,2.4,1.85Zm-1.43-2.4a13.82,13.82,0,0,1-1.68.7,1.22,1.22,0,0,0-.62,1.21c0,.63.31,1.14.94,1.14.91,0,1.36-.67,1.36-1.79Z" fill="#3b4351"/><path d="M484.1,46.86h1.51V48h0a1.85,1.85,0,0,1,1.75-1.37.73.73,0,0,1,.36.06v1.54a2.11,2.11,0,0,0-.63-.09c-.68,0-1.51.31-1.51,1.71v4.51H484.1Z" fill="#3b4351"/><path d="M487.83,46.86h1V44.71h1.51v2.15h1.24V48h-1.24v4.49c0,.61.17.8.69.8a2.81,2.81,0,0,0,.55,0v1.12a4.69,4.69,0,0,1-1.22.13c-1,0-1.53-.3-1.53-1.82V48h-1Z" fill="#3b4351"/><path d="M492.55,52.54h1.6v1.85h-1.6Z" fill="#3b4351"/><path d="M420.11,93.75l-2.41-4.92h1.77l1.59,3.32,1.57-3.32h1.73l-2.43,4.92,2.55,5.08h-1.76L421,95.22l-1.78,3.61h-1.72Z" fill="#3b4351"/><path d="M424.39,88.83h1.7l1.69,8h0l1.8-8h1.69l-2.52,10h-2Z" fill="#3b4351"/><path d="M432,88.83h1.6v10H432Z" fill="#3b4351"/><path d="M435.08,88.83h1.59v10h-1.59Z" fill="#3b4351"/><path d="M438.18,88.83h1.6v10h-1.6Z" fill="#3b4351"/><path d="M440.59,91.29h1V89.15h1.51v2.14h1.23v1.13h-1.23v4.49c0,.6.17.8.69.8a2.7,2.7,0,0,0,.54,0v1.12a5.11,5.11,0,0,1-1.22.13c-1,0-1.52-.3-1.52-1.83V92.42h-1Z" fill="#3b4351"/><path d="M445.15,88.83h1.52v3.28l0,0a2.14,2.14,0,0,1,1.85-1c1.15,0,1.87.52,1.87,2v5.69h-1.51V93.66c0-1-.28-1.36-1.05-1.36-.61,0-1.2.48-1.2,1.47v5.06h-1.52Z" fill="#3b4351"/><path d="M455.35,88.83h2.84c3.14,0,3.53,2,3.53,5s-.39,5-3.53,5h-2.84Zm1.59,8.8h1.32c1.32,0,1.86-.87,1.86-3.8s-.47-3.8-1.86-3.8h-1.32Z" fill="#3b4351"/><path d="M464,91.29l1.3,5.66h0l1.21-5.66h1.58l-2.07,7.82c-.61,2.06-1.07,2.34-2.64,2.3a3.05,3.05,0,0,1-.6-.06v-1.2a2,2,0,0,0,.49,0c.52,0,.85-.09,1-.58l.2-.62-2.14-7.71Z" fill="#3b4351"/><path d="M469,91.29h1.43v.89h0a2.17,2.17,0,0,1,1.93-1.08c1.15,0,1.88.52,1.88,2v5.69h-1.52V93.66c0-1-.26-1.36-1.05-1.36-.61,0-1.2.47-1.2,1.47v5.06H469Z" fill="#3b4351"/><path d="M480.67,97.26c0,.28.17.53.4.53a.57.57,0,0,0,.25,0v1a1.58,1.58,0,0,1-.74.19c-.68,0-1.24-.27-1.28-1h0A1.94,1.94,0,0,1,477.4,99c-1.22,0-2-.66-2-2.12a2.08,2.08,0,0,1,1.75-2.37l1.17-.32c.55-.15.89-.31.89-1s-.24-1.12-1-1.12c-1,0-1.15.71-1.15,1.44h-1.43c0-1.61.66-2.48,2.65-2.48,1.33,0,2.39.52,2.39,1.85Zm-1.42-2.41a10.92,10.92,0,0,1-1.69.7,1.24,1.24,0,0,0-.61,1.22c0,.63.31,1.14.94,1.14.91,0,1.36-.68,1.36-1.8Z" fill="#3b4351"/><path d="M485.46,93.49V93.3c0-.6-.21-1.16-1-1.16-.61,0-1.08.26-1.08,1s.26.82,1.06,1.1l1,.34a2,2,0,0,1,1.64,2.17c0,1.61-1.19,2.3-2.71,2.3-1.9,0-2.47-.89-2.47-2.34v-.28h1.34v.24c0,.88.3,1.34,1.18,1.34s1.23-.42,1.23-1.11a1.09,1.09,0,0,0-.83-1.1l-1.23-.44A2,2,0,0,1,482,93.17c0-1.41,1-2.07,2.58-2.07,1.92,0,2.35,1.12,2.35,2.06v.33Z" fill="#3b4351"/><path d="M487.5,91.29h1V89.15h1.51v2.14h1.24v1.13h-1.24v4.49c0,.6.17.8.69.8a2.81,2.81,0,0,0,.55,0v1.12a5.17,5.17,0,0,1-1.22.13c-1,0-1.53-.3-1.53-1.83V92.42h-1Z" fill="#3b4351"/><path d="M493.08,91.29l1.3,5.66h0l1.2-5.66h1.58l-2.07,7.82c-.6,2.06-1.06,2.34-2.63,2.3a3.05,3.05,0,0,1-.6-.06v-1.2a2,2,0,0,0,.49,0c.51,0,.85-.09,1-.58l.19-.62-2.14-7.71Z" fill="#3b4351"/><path d="M497.15,97h1.6v1.85h-1.6Z" fill="#3b4351"/><path d="M525.21,102.83h1.6v4h2.94v-4h1.59v10h-1.59v-4.65h-2.94v4.65h-1.6Z" fill="#3b4351"/><path d="M533.9,105.3l1.31,5.66h0l1.21-5.66H538L536,113.11c-.6,2.06-1.07,2.34-2.64,2.3a2.45,2.45,0,0,1-.6-.06v-1.2a2.09,2.09,0,0,0,.49,0c.52,0,.86-.09,1-.58l.19-.62-2.14-7.7Z" fill="#3b4351"/><path d="M538.86,102.83h1.51v5.62h0l2.28-3.15,1.75,0-2.27,2.92,2.57,4.63h-1.65l-1.85-3.43-.86,1v2.39h-1.51Z" fill="#3b4351"/><path d="M548.59,107.5v-.2c0-.6-.21-1.16-1-1.16-.61,0-1.08.26-1.08,1s.26.82,1.06,1.1l1,.34a2,2,0,0,1,1.64,2.17c0,1.61-1.19,2.3-2.71,2.3-1.9,0-2.48-.88-2.48-2.34v-.28h1.35v.24c0,.88.29,1.34,1.18,1.34s1.23-.42,1.23-1.11a1.09,1.09,0,0,0-.83-1.1l-1.23-.44a2,2,0,0,1-1.61-2.17c0-1.41,1-2.07,2.58-2.07,1.91,0,2.35,1.12,2.35,2.06v.34Z" fill="#3b4351"/><path d="M551,109.06c0-2.35.62-4,2.8-4s2.82,1.61,2.82,4-.73,4-2.82,4S551,111.42,551,109.06Zm2.8,2.85c1.11,0,1.3-.93,1.3-2.85,0-1.66-.19-2.84-1.3-2.84s-1.29,1.18-1.29,2.84C552.52,111,552.73,111.91,553.81,111.91Z" fill="#3b4351"/><path d="M561,107.5v-.2c0-.6-.21-1.16-1-1.16-.6,0-1.08.26-1.08,1s.27.82,1.07,1.1l1,.34a2,2,0,0,1,1.64,2.17c0,1.61-1.19,2.3-2.7,2.3-1.91,0-2.48-.88-2.48-2.34v-.28h1.34v.24c0,.88.3,1.34,1.18,1.34s1.23-.42,1.23-1.11a1.09,1.09,0,0,0-.82-1.1l-1.24-.44a2,2,0,0,1-1.61-2.17c0-1.41,1-2.07,2.58-2.07,1.92,0,2.35,1.12,2.35,2.06v.34Z" fill="#3b4351"/><path d="M568.41,109.26v.43c0,1,.13,2.3,1.26,2.3s1.21-1.22,1.21-1.68h1.43a2.48,2.48,0,0,1-2.65,2.72c-1.23,0-2.76-.37-2.76-3.85,0-2,.43-4.08,2.79-4.08,2.1,0,2.66,1.27,2.66,3.36v.8Zm2.43-1v-.4c0-1-.31-1.68-1.17-1.68s-1.26,1-1.26,1.93v.15Z" fill="#3b4351"/><path d="M574.88,108.92l-2-3.62h1.66l1.17,2.49L577,105.3h1.62l-2,3.62,2,3.91h-1.63L575.75,110l-1.32,2.79h-1.61Z" fill="#3b4351"/><path d="M582.72,113A1.74,1.74,0,0,1,581,112h0v3.35h-1.51v-10h1.43v.92h0a1.78,1.78,0,0,1,1.69-1.12c1.73,0,2.43,1.47,2.43,4.06C585.05,112.33,583.77,113,582.72,113Zm-.54-6.73c-1,0-1.28,1-1.28,2.68,0,1.81.22,2.84,1.29,2.84.85,0,1.26-.64,1.26-2.73C583.45,107.38,583.24,106.3,582.18,106.3Z" fill="#3b4351"/><path d="M587.51,109.26v.43c0,1,.12,2.3,1.26,2.3s1.2-1.22,1.2-1.68h1.43a2.48,2.48,0,0,1-2.64,2.72c-1.24,0-2.76-.37-2.76-3.85,0-2,.43-4.08,2.78-4.08,2.1,0,2.66,1.27,2.66,3.36v.8Zm2.42-1v-.4c0-1-.31-1.68-1.16-1.68s-1.26,1-1.26,1.93v.15Z" fill="#3b4351"/><path d="M592.76,102.83h1.51v10h-1.51Z" fill="#3b4351"/><path d="M595.87,102.83h1.51v10h-1.51Z" fill="#3b4351"/><path d="M600.21,109.26v.43c0,1,.12,2.3,1.26,2.3s1.2-1.22,1.2-1.68h1.43a2.48,2.48,0,0,1-2.65,2.72c-1.23,0-2.76-.37-2.76-3.85,0-2,.44-4.08,2.79-4.08,2.1,0,2.66,1.27,2.66,3.36v.8Zm2.42-1v-.4c0-1-.31-1.68-1.16-1.68s-1.26,1-1.26,1.93v.15Z" fill="#3b4351"/><path d="M609.24,111.91h0a1.61,1.61,0,0,1-1.65,1.12c-1.75,0-2.47-1.49-2.47-4.06,0-3.35,1.18-3.87,2.33-3.87a1.75,1.75,0,0,1,1.71,1.08h0v-3.35h1.52v10h-1.43Zm-1.38-5.61c-.85,0-1.17.7-1.17,2.74,0,1.71.21,2.78,1.27,2.78s1.28-1,1.28-2.67C609.24,107.34,609,106.3,607.86,106.3Z" fill="#3b4351"/><path d="M615.48,102.83H617v3.35h0a1.74,1.74,0,0,1,1.71-1.08c1.15,0,2.32.52,2.32,3.87,0,2.59-.71,4.06-2.46,4.06a1.6,1.6,0,0,1-1.65-1.12h0v.92h-1.43Zm2.7,9c1.07,0,1.28-1.07,1.28-2.78,0-2-.32-2.74-1.18-2.74-1.18,0-1.37,1-1.37,2.85C616.91,110.77,617.15,111.82,618.18,111.82Z" fill="#3b4351"/><path d="M623.05,105.3l1.31,5.66h0l1.21-5.66h1.58l-2.07,7.81c-.6,2.06-1.07,2.34-2.63,2.3a2.53,2.53,0,0,1-.61-.06v-1.2a2.09,2.09,0,0,0,.49,0c.52,0,.86-.09,1-.58l.19-.62-2.14-7.7Z" fill="#3b4351"/></g></g><g id="Ageans"><g id="Title"><g id="small-3" data-name="small"><path d="M110.06,11.1c0,.28.17.53.4.53a.57.57,0,0,0,.25,0v1a1.58,1.58,0,0,1-.74.18c-.68,0-1.24-.27-1.28-1h0a1.94,1.94,0,0,1-1.87,1.1c-1.22,0-2-.66-2-2.11a2.08,2.08,0,0,1,1.75-2.37l1.17-.32c.55-.16.89-.31.89-1S108.4,6,107.6,6c-1,0-1.15.71-1.15,1.44H105c0-1.61.66-2.48,2.65-2.48,1.33,0,2.39.52,2.39,1.85Zm-1.42-2.41a12,12,0,0,1-1.69.7,1.24,1.24,0,0,0-.61,1.22c0,.63.31,1.13.94,1.13.91,0,1.36-.67,1.36-1.79Z" fill="#3b4351"/><path d="M111.6,5.13H113V6h0A2.18,2.18,0,0,1,115,4.93c1.14,0,1.87.52,1.87,2.05v5.69h-1.51V7.5c0-1-.27-1.36-1.05-1.36-.62,0-1.21.46-1.21,1.47v5.06H111.6Z" fill="#3b4351"/><path d="M122.19,11.74h0a1.61,1.61,0,0,1-1.65,1.12c-1.75,0-2.47-1.48-2.47-4.06,0-3.35,1.18-3.87,2.33-3.87A1.75,1.75,0,0,1,122.08,6h0V2.66h1.52v10h-1.43Zm-1.38-5.6c-.85,0-1.17.7-1.17,2.73,0,1.71.21,2.79,1.27,2.79s1.28-1.05,1.28-2.68C122.19,7.17,122,6.14,120.81,6.14Z" fill="#3b4351"/><path d="M128.43,5.13h1.51V6.31h0a1.88,1.88,0,0,1,1.75-1.38.92.92,0,0,1,.37.06V6.53a2.32,2.32,0,0,0-.64-.08c-.68,0-1.51.3-1.51,1.71v4.51h-1.51Z" fill="#3b4351"/><path d="M137.7,11.1c0,.28.17.53.39.53a.54.54,0,0,0,.25,0v1a1.55,1.55,0,0,1-.74.18c-.67,0-1.23-.27-1.27-1h0a2,2,0,0,1-1.88,1.1c-1.22,0-2-.66-2-2.11a2.08,2.08,0,0,1,1.75-2.37l1.18-.32c.54-.16.88-.31.88-1S136,6,135.23,6c-1,0-1.14.71-1.14,1.44h-1.43c0-1.61.66-2.48,2.64-2.48,1.34,0,2.4.52,2.4,1.85Zm-1.43-2.41a12.39,12.39,0,0,1-1.68.7,1.25,1.25,0,0,0-.62,1.22c0,.63.31,1.13.94,1.13.91,0,1.36-.67,1.36-1.79Z" fill="#3b4351"/><path d="M142.49,12.86a1.72,1.72,0,0,1-1.71-1.08h0v3.35h-1.51v-10h1.43v.92h0a1.8,1.8,0,0,1,1.7-1.12c1.72,0,2.42,1.47,2.42,4.07C144.81,12.16,143.54,12.86,142.49,12.86Zm-.55-6.72c-1,0-1.27,1.05-1.27,2.67,0,1.81.22,2.85,1.28,2.85.86,0,1.27-.65,1.27-2.73C143.22,7.22,143,6.14,141.94,6.14Z" fill="#3b4351"/><path d="M146,2.55h1.51V4.07H146Zm0,2.58h1.51v7.54H146Z" fill="#3b4351"/><path d="M152.93,11.74h0a1.61,1.61,0,0,1-1.65,1.12c-1.75,0-2.47-1.48-2.47-4.06,0-3.35,1.18-3.87,2.33-3.87A1.74,1.74,0,0,1,152.82,6h0V2.66h1.51v10h-1.43Zm-1.37-5.6c-.86,0-1.18.7-1.18,2.73,0,1.71.21,2.79,1.28,2.79s1.27-1.05,1.27-2.68C152.93,7.17,152.73,6.14,151.56,6.14Z" fill="#3b4351"/><path d="M164.12,11.1c0,.28.17.53.39.53a.54.54,0,0,0,.25,0v1a1.58,1.58,0,0,1-.74.18c-.67,0-1.23-.27-1.28-1h0a2,2,0,0,1-1.88,1.1c-1.22,0-2-.66-2-2.11a2.08,2.08,0,0,1,1.75-2.37l1.18-.32c.54-.16.88-.31.88-1s-.24-1.12-1-1.12c-1,0-1.15.71-1.15,1.44h-1.43c0-1.61.66-2.48,2.65-2.48,1.33,0,2.4.52,2.4,1.85Zm-1.43-2.41a12.39,12.39,0,0,1-1.68.7,1.23,1.23,0,0,0-.62,1.22c0,.63.31,1.13.94,1.13.91,0,1.36-.67,1.36-1.79Z" fill="#3b4351"/><path d="M169.51,11.74h0a1.61,1.61,0,0,1-1.65,1.12c-1.76,0-2.47-1.48-2.47-4.06,0-3.35,1.18-3.87,2.33-3.87A1.74,1.74,0,0,1,169.39,6h0V2.66h1.52v10h-1.43Zm-1.38-5.6c-.85,0-1.17.7-1.17,2.73,0,1.71.21,2.79,1.27,2.79s1.28-1.05,1.28-2.68C169.51,7.17,169.31,6.14,168.13,6.14Z" fill="#3b4351"/><path d="M171.76,5.13h1.62l1.32,5.94h0l1.19-5.94h1.61l-2,7.54h-1.76Z" fill="#3b4351"/><path d="M183.13,11.1c0,.28.17.53.39.53a.54.54,0,0,0,.25,0v1a1.55,1.55,0,0,1-.74.18c-.67,0-1.23-.27-1.27-1h0a2,2,0,0,1-1.88,1.1c-1.22,0-2-.66-2-2.11a2.08,2.08,0,0,1,1.75-2.37l1.18-.32c.54-.16.88-.31.88-1s-.24-1.12-1-1.12c-1,0-1.14.71-1.14,1.44h-1.43c0-1.61.65-2.48,2.64-2.48,1.33,0,2.4.52,2.4,1.85ZM181.7,8.69a12.39,12.39,0,0,1-1.68.7,1.25,1.25,0,0,0-.62,1.22c0,.63.31,1.13.94,1.13.91,0,1.36-.67,1.36-1.79Z" fill="#3b4351"/><path d="M184.67,5.13h1.43V6h0a2.17,2.17,0,0,1,1.93-1.08c1.15,0,1.88.52,1.88,2.05v5.69h-1.52V7.5c0-1-.26-1.36-1.05-1.36-.61,0-1.2.46-1.2,1.47v5.06h-1.51Z" fill="#3b4351"/><path d="M196.48,9.92c-.11,1.81-.7,2.94-2.57,2.94-2.19,0-2.8-1.61-2.8-4s.61-4,2.8-4a2.44,2.44,0,0,1,2.59,2.71H195c0-.7-.19-1.63-1.08-1.59-1.08,0-1.29,1.18-1.29,2.85s.21,2.84,1.29,2.84c.84,0,1.15-.68,1.15-1.82Z" fill="#3b4351"/><path d="M198.92,9.09v.44c0,1,.12,2.3,1.26,2.3s1.2-1.22,1.2-1.69h1.43a2.48,2.48,0,0,1-2.64,2.72c-1.24,0-2.76-.36-2.76-3.85,0-2,.43-4.08,2.78-4.08,2.1,0,2.66,1.28,2.66,3.37v.79Zm2.42-1V7.65c0-1-.31-1.68-1.16-1.68s-1.26,1-1.26,1.93v.16Z" fill="#3b4351"/><path d="M129.87,31.9c0-2.36.61-4,2.8-4s2.82,1.61,2.82,4-.73,4-2.82,4S129.87,34.25,129.87,31.9Zm2.8,2.84c1.11,0,1.3-.92,1.3-2.84,0-1.67-.19-2.85-1.3-2.85s-1.29,1.18-1.29,2.85C131.38,33.82,131.59,34.74,132.67,34.74Z" fill="#3b4351"/><path d="M137.11,29.25h-1.05V28.13h1.05v-.7c0-1.42.68-1.88,1.92-1.88.32,0,.6,0,.82,0v1.17h-.42c-.56,0-.81.21-.81.71v.66h1.23v1.12h-1.23v6.42h-1.51Z" fill="#3b4351"/><path d="M149,32.92c-.11,1.81-.7,2.94-2.58,2.94-2.18,0-2.8-1.61-2.8-4s.62-4,2.8-4a2.45,2.45,0,0,1,2.6,2.71h-1.52c0-.7-.18-1.63-1.08-1.59-1.07,0-1.28,1.18-1.28,2.85s.21,2.84,1.28,2.84c.84,0,1.15-.68,1.15-1.82Z" fill="#3b4351"/><path d="M150.18,25.55h1.51v1.52h-1.51Zm0,2.58h1.51v7.54h-1.51Z" fill="#3b4351"/><path d="M152.59,28.13h1.62l1.32,5.94h0l1.19-5.94h1.61l-2,7.54h-1.76Z" fill="#3b4351"/><path d="M159.25,25.55h1.52v1.52h-1.52Zm0,2.58h1.52v7.54h-1.52Z" fill="#3b4351"/><path d="M162.36,25.66h1.51v10h-1.51Z" fill="#3b4351"/><path d="M165.47,25.55H167v1.52h-1.51Zm0,2.58H167v7.54h-1.51Z" fill="#3b4351"/><path d="M171.76,30.33v-.2c0-.6-.21-1.16-1-1.16-.6,0-1.08.27-1.08,1s.27.83,1.07,1.11l1,.33a2,2,0,0,1,1.63,2.17c0,1.62-1.19,2.3-2.7,2.3-1.9,0-2.48-.88-2.48-2.34v-.28h1.35v.24c0,.88.29,1.35,1.17,1.35s1.24-.42,1.24-1.11a1.09,1.09,0,0,0-.83-1.11l-1.23-.43A2,2,0,0,1,168.26,30c0-1.42,1-2.08,2.57-2.08,1.92,0,2.36,1.12,2.36,2.06v.34Z" fill="#3b4351"/><path d="M179.42,34.1c0,.28.16.53.39.53a.57.57,0,0,0,.25,0v1a1.58,1.58,0,0,1-.74.18c-.67,0-1.23-.27-1.28-1h0a2,2,0,0,1-1.88,1.1c-1.22,0-2-.66-2-2.11a2.08,2.08,0,0,1,1.75-2.37l1.17-.32c.55-.16.89-.31.89-1S177.75,29,177,29c-1,0-1.15.71-1.15,1.44h-1.43c0-1.61.66-2.48,2.65-2.48,1.33,0,2.4.52,2.4,1.85ZM178,31.69a12.39,12.39,0,0,1-1.68.7,1.23,1.23,0,0,0-.62,1.22c0,.63.31,1.13.94,1.13.91,0,1.36-.67,1.36-1.79Z" fill="#3b4351"/><path d="M180.28,28.13h1V26h1.51v2.14h1.23v1.12h-1.23v4.5c0,.6.17.8.69.8a2.61,2.61,0,0,0,.54,0v1.12a4.64,4.64,0,0,1-1.22.13c-1,0-1.52-.29-1.52-1.82V29.25h-1Z" fill="#3b4351"/><path d="M184.92,25.55h1.51v1.52h-1.51Zm0,2.58h1.51v7.54h-1.51Z" fill="#3b4351"/><path d="M187.66,31.9c0-2.36.62-4,2.8-4s2.82,1.61,2.82,4-.73,4-2.82,4S187.66,34.25,187.66,31.9Zm2.8,2.84c1.11,0,1.3-.92,1.3-2.84,0-1.67-.19-2.85-1.3-2.85s-1.29,1.18-1.29,2.85C189.17,33.82,189.38,34.74,190.46,34.74Z" fill="#3b4351"/><path d="M194.44,28.13h1.42V29h0a2.15,2.15,0,0,1,1.93-1.08c1.15,0,1.88.52,1.88,2.05v5.69H198.2V30.5c0-1-.26-1.36-1-1.36-.61,0-1.2.46-1.2,1.47v5.06h-1.51Z" fill="#3b4351"/><path d="M122.15,51.13h1V49h1.52v2.14h1.23v1.12H124.7v4.5c0,.6.16.8.68.8a2.64,2.64,0,0,0,.55,0v1.12a4.64,4.64,0,0,1-1.22.13c-1,0-1.53-.29-1.53-1.82V52.25h-1Z" fill="#3b4351"/><path d="M126.42,54.9c0-2.36.61-4,2.8-4s2.81,1.61,2.81,4-.72,4-2.81,4S126.42,57.25,126.42,54.9Zm2.8,2.84c1.11,0,1.3-.92,1.3-2.84,0-1.67-.19-2.85-1.3-2.85s-1.29,1.18-1.29,2.85C127.93,56.82,128.14,57.74,129.22,57.74Z" fill="#3b4351"/><path d="M136.62,51.13h1.43V52h0a2.13,2.13,0,0,1,1.81-1.08,1.63,1.63,0,0,1,1.75,1.15,2.07,2.07,0,0,1,1.91-1.15c1.06,0,1.83.55,1.83,2v5.73h-1.51V53.5c0-1-.29-1.36-.91-1.36s-1.21.47-1.21,1.47v5.06h-1.51V53.5c0-1-.29-1.36-.92-1.36s-1.19.49-1.19,1.47v5.06h-1.52Z" fill="#3b4351"/><path d="M146.62,54.9c0-2.36.62-4,2.8-4s2.82,1.61,2.82,4-.73,4-2.82,4S146.62,57.25,146.62,54.9Zm2.8,2.84c1.11,0,1.3-.92,1.3-2.84,0-1.67-.19-2.85-1.3-2.85s-1.29,1.18-1.29,2.85C148.13,56.82,148.34,57.74,149.42,57.74Z" fill="#3b4351"/><path d="M156.64,53.33v-.2c0-.6-.21-1.16-1-1.16-.6,0-1.08.27-1.08,1s.27.83,1.07,1.11l1,.33a2,2,0,0,1,1.64,2.17c0,1.62-1.19,2.3-2.7,2.3-1.91,0-2.48-.88-2.48-2.34v-.28h1.34v.24c0,.88.3,1.35,1.18,1.35s1.23-.42,1.23-1.11a1.09,1.09,0,0,0-.82-1.11l-1.24-.43A2,2,0,0,1,153.14,53c0-1.42,1-2.08,2.58-2.08,1.92,0,2.35,1.12,2.35,2.06v.34Z" fill="#3b4351"/><path d="M158.69,51.13h1V49h1.52v2.14h1.23v1.12h-1.23v4.5c0,.6.16.8.68.8a2.64,2.64,0,0,0,.55,0v1.12a4.64,4.64,0,0,1-1.22.13c-1,0-1.53-.29-1.53-1.82V52.25h-1Z" fill="#3b4351"/><path d="M166.61,48.66h1.51V52h0a1.74,1.74,0,0,1,1.71-1.08c1.15,0,2.33.52,2.33,3.87,0,2.59-.72,4.06-2.47,4.06a1.61,1.61,0,0,1-1.65-1.12h0v.93h-1.43Zm2.7,9c1.07,0,1.28-1.08,1.28-2.79,0-2-.32-2.73-1.18-2.73-1.17,0-1.37,1-1.37,2.84C168,56.61,168.28,57.66,169.31,57.66Z" fill="#3b4351"/><path d="M173.35,51.13h1.51v1.18h0a1.86,1.86,0,0,1,1.75-1.38A.87.87,0,0,1,177,51v1.54a2.18,2.18,0,0,0-.63-.08c-.69,0-1.51.3-1.51,1.71v4.51h-1.51Z" fill="#3b4351"/><path d="M177.82,48.55h1.52v1.52h-1.52Zm0,2.58h1.52v7.54h-1.52Z" fill="#3b4351"/><path d="M180.93,48.66h1.52v10h-1.52Z" fill="#3b4351"/><path d="M184,48.66h1.51v10H184Z" fill="#3b4351"/><path d="M187.15,48.55h1.51v1.52h-1.51Zm0,2.58h1.51v7.54h-1.51Z" fill="#3b4351"/><path d="M195.13,57.1c0,.28.17.53.39.53a.59.59,0,0,0,.26,0v1a1.63,1.63,0,0,1-.75.18c-.67,0-1.23-.27-1.27-1h0a2,2,0,0,1-1.88,1.1c-1.22,0-2-.66-2-2.11a2.08,2.08,0,0,1,1.75-2.37l1.18-.32c.55-.16.88-.31.88-1s-.24-1.12-1-1.12c-1,0-1.15.71-1.15,1.44h-1.43c0-1.61.66-2.48,2.65-2.48,1.33,0,2.39.52,2.39,1.85Zm-1.43-2.41a12.39,12.39,0,0,1-1.68.7,1.24,1.24,0,0,0-.61,1.22c0,.63.3,1.13.93,1.13.91,0,1.36-.67,1.36-1.79Z" fill="#3b4351"/><path d="M196.67,51.13h1.43V52h0a2.17,2.17,0,0,1,1.93-1.08c1.15,0,1.88.52,1.88,2v5.69h-1.51V53.5c0-1-.27-1.36-1.05-1.36-.62,0-1.21.46-1.21,1.47v5.06h-1.51Z" fill="#3b4351"/><path d="M202.73,51.13h1V49h1.51v2.14h1.23v1.12h-1.23v4.5c0,.6.17.8.69.8a2.61,2.61,0,0,0,.54,0v1.12a4.64,4.64,0,0,1-1.22.13c-1,0-1.52-.29-1.52-1.82V52.25h-1Z" fill="#3b4351"/><path d="M213.9,58.86a1.73,1.73,0,0,1-1.71-1.08h0v3.35h-1.52v-10h1.43v.92h0a1.79,1.79,0,0,1,1.7-1.12c1.72,0,2.42,1.47,2.42,4.07C216.23,58.16,215,58.86,213.9,58.86Zm-.54-6.72c-1,0-1.28,1-1.28,2.67,0,1.81.23,2.85,1.29,2.85.86,0,1.26-.65,1.26-2.73C214.63,53.22,214.42,52.14,213.36,52.14Z" fill="#3b4351"/><path d="M218.69,55.09v.44c0,1,.13,2.3,1.26,2.3s1.21-1.22,1.21-1.69h1.42a2.47,2.47,0,0,1-2.64,2.72c-1.24,0-2.76-.36-2.76-3.85,0-2,.43-4.08,2.79-4.08,2.1,0,2.66,1.28,2.66,3.37v.79Zm2.42-1v-.41c0-.95-.3-1.68-1.16-1.68s-1.26,1-1.26,1.93v.16Z" fill="#3b4351"/><path d="M223.87,51.13h1.51v1.18h0a1.88,1.88,0,0,1,1.75-1.38.92.92,0,0,1,.37.06v1.54a2.3,2.3,0,0,0-.63-.08c-.69,0-1.52.3-1.52,1.71v4.51h-1.51Z" fill="#3b4351"/><path d="M228.35,48.55h1.51v1.52h-1.51Zm0,2.58h1.51v7.54h-1.51Z" fill="#3b4351"/><path d="M231.09,54.9c0-2.36.62-4,2.8-4s2.82,1.61,2.82,4-.73,4-2.82,4S231.09,57.25,231.09,54.9Zm2.8,2.84c1.11,0,1.31-.92,1.31-2.84,0-1.67-.2-2.85-1.31-2.85s-1.28,1.18-1.28,2.85C232.61,56.82,232.82,57.74,233.89,57.74Z" fill="#3b4351"/><path d="M241.72,57.74h0A1.6,1.6,0,0,1,240,58.86c-1.75,0-2.46-1.48-2.46-4.06,0-3.35,1.17-3.87,2.32-3.87A1.74,1.74,0,0,1,241.61,52h0V48.66h1.51v10h-1.43Zm-1.37-5.6c-.86,0-1.18.7-1.18,2.73,0,1.71.21,2.79,1.28,2.79s1.27-1,1.27-2.68C241.72,53.17,241.53,52.14,240.35,52.14Z" fill="#3b4351"/><path d="M154.35,77.9c0-2.36.61-4,2.8-4s2.81,1.61,2.81,4-.72,4-2.81,4S154.35,80.25,154.35,77.9Zm2.8,2.84c1.11,0,1.3-.92,1.3-2.84,0-1.67-.19-2.85-1.3-2.85s-1.29,1.18-1.29,2.85C155.86,79.82,156.07,80.74,157.15,80.74Z" fill="#3b4351"/><path d="M161.59,75.25h-1.05V74.13h1.05v-.7c0-1.42.68-1.88,1.92-1.88.32,0,.6,0,.82,0v1.17h-.42c-.56,0-.81.21-.81.71v.66h1.23v1.12H163.1v6.42h-1.51Z" fill="#3b4351"/><path d="M168.47,71.66H171l1.76,7.41h0l1.74-7.41h2.43v10h-1.51V73.35h0l-2,8.32H172l-2-8.32h0v8.32h-1.52Z" fill="#3b4351"/><path d="M178.55,71.55h1.52v1.52h-1.52Zm0,2.58h1.52v7.54h-1.52Z" fill="#3b4351"/><path d="M181.59,74.13H183V75h0A2.18,2.18,0,0,1,185,73.93c1.14,0,1.87.52,1.87,2v5.69h-1.51V76.5c0-1-.27-1.36-1.05-1.36-.62,0-1.21.46-1.21,1.47v5.06h-1.51Z" fill="#3b4351"/><path d="M188,77.9c0-2.36.62-4,2.8-4s2.82,1.61,2.82,4-.73,4-2.82,4S188,80.25,188,77.9Zm2.8,2.84c1.11,0,1.31-.92,1.31-2.84,0-1.67-.2-2.85-1.31-2.85s-1.29,1.18-1.29,2.85C189.54,79.82,189.75,80.74,190.83,80.74Z" fill="#3b4351"/><path d="M199.75,80.1c0,.28.17.53.39.53a.59.59,0,0,0,.26,0v1a1.63,1.63,0,0,1-.75.18c-.67,0-1.23-.27-1.27-1h0a1.94,1.94,0,0,1-1.88,1.1c-1.21,0-2-.66-2-2.11a2.09,2.09,0,0,1,1.75-2.37l1.18-.32c.55-.16.88-.31.88-1s-.23-1.12-1-1.12c-1,0-1.15.71-1.15,1.44h-1.43c0-1.61.66-2.48,2.65-2.48,1.33,0,2.39.52,2.39,1.85Zm-1.43-2.41a12.39,12.39,0,0,1-1.68.7,1.24,1.24,0,0,0-.61,1.22c0,.63.3,1.13.93,1.13.91,0,1.36-.67,1.36-1.79Z" fill="#3b4351"/><path d="M201.29,74.13h1.43V75h0a2.17,2.17,0,0,1,1.93-1.08c1.15,0,1.88.52,1.88,2v5.69h-1.51V76.5c0-1-.27-1.36-1.05-1.36-.62,0-1.21.46-1.21,1.47v5.06h-1.51Z" fill="#3b4351"/><path d="M216.47,78.92c-.11,1.81-.7,2.94-2.58,2.94-2.18,0-2.8-1.61-2.8-4s.62-4,2.8-4a2.44,2.44,0,0,1,2.59,2.71H215c0-.7-.18-1.63-1.08-1.59-1.08,0-1.29,1.18-1.29,2.85s.21,2.84,1.29,2.84c.84,0,1.15-.68,1.15-1.82Z" fill="#3b4351"/><path d="M221.45,80.78h0a2.15,2.15,0,0,1-1.93,1.08c-1.12,0-1.88-.52-1.88-2.46V74.13h1.51v5.41c0,.84.37,1.12,1,1.12a1.18,1.18,0,0,0,1.24-1.26V74.13h1.51v7.54h-1.43Z" fill="#3b4351"/><path d="M224.4,71.66h1.52v10H224.4Z" fill="#3b4351"/><path d="M226.77,74.13h1V72h1.51v2.14h1.23v1.12h-1.23v4.5c0,.6.17.8.68.8a2.64,2.64,0,0,0,.55,0v1.12a4.64,4.64,0,0,1-1.22.13c-1,0-1.52-.29-1.52-1.82V75.25h-1Z" fill="#3b4351"/><path d="M235.18,80.78h0a2.15,2.15,0,0,1-1.93,1.08c-1.12,0-1.88-.52-1.88-2.46V74.13h1.52v5.41c0,.84.36,1.12,1,1.12a1.17,1.17,0,0,0,1.23-1.26V74.13h1.51v7.54h-1.43Z" fill="#3b4351"/><path d="M238.07,74.13h1.51v1.18h0a1.86,1.86,0,0,1,1.75-1.38.87.87,0,0,1,.36.06v1.54a2.18,2.18,0,0,0-.63-.08c-.68,0-1.51.3-1.51,1.71v4.51h-1.51Z" fill="#3b4351"/><path d="M243.7,78.09v.44c0,1,.12,2.3,1.26,2.3s1.2-1.22,1.2-1.69h1.43a2.48,2.48,0,0,1-2.65,2.72c-1.23,0-2.76-.36-2.76-3.85,0-2,.44-4.08,2.79-4.08,2.1,0,2.66,1.28,2.66,3.37v.79Zm2.42-1v-.41c0-1-.31-1.68-1.16-1.68s-1.26,1-1.26,1.93v.16Z" fill="#3b4351"/><path d="M85.65,94.66h1.51V98h0a1.75,1.75,0,0,1,1.71-1.08c1.15,0,2.33.52,2.33,3.87,0,2.59-.72,4.06-2.47,4.06a1.61,1.61,0,0,1-1.65-1.12h0v.93H85.65Zm2.71,9c1.06,0,1.27-1.08,1.27-2.79,0-2-.32-2.73-1.18-2.73-1.17,0-1.37,1-1.37,2.84C87.08,102.61,87.32,103.66,88.36,103.66Z" fill="#3b4351"/><path d="M92.39,97.13H93.9v1.18h0a1.86,1.86,0,0,1,1.75-1.38A.87.87,0,0,1,96,97v1.54a2.18,2.18,0,0,0-.63-.08c-.68,0-1.51.3-1.51,1.71v4.51H92.39Z" fill="#3b4351"/><path d="M96.5,100.9c0-2.36.62-4,2.8-4s2.82,1.61,2.82,4-.73,4-2.82,4S96.5,103.25,96.5,100.9Zm2.8,2.84c1.11,0,1.31-.92,1.31-2.84,0-1.67-.2-2.85-1.31-2.85S98,99.23,98,100.9C98,102.82,98.22,103.74,99.3,103.74Z" fill="#3b4351"/><path d="M107.13,103.78h0a2.15,2.15,0,0,1-1.94,1.08c-1.12,0-1.87-.52-1.87-2.46V97.13h1.51v5.41c0,.84.36,1.12,1,1.12a1.18,1.18,0,0,0,1.24-1.26V97.13h1.51v7.54h-1.43Z" fill="#3b4351"/><path d="M111.52,105.31a1,1,0,0,0,1.1.9,1.25,1.25,0,0,0,1.27-1.42v-1.22h0a1.82,1.82,0,0,1-1.71,1c-1.75,0-2.25-1.72-2.25-3.8,0-1.65.25-3.88,2.39-3.88A1.68,1.68,0,0,1,114,98.05h0v-.92h1.42v7.17c0,1.84-.78,2.94-2.81,2.94-2.24,0-2.49-1.31-2.49-1.93Zm1.07-1.9c1.18,0,1.3-1.49,1.3-2.68s-.15-2.59-1.2-2.59-1.28,1.12-1.28,2.52S111.47,103.41,112.59,103.41Z" fill="#3b4351"/><path d="M116.75,94.66h1.51v3.28l0,0a2.14,2.14,0,0,1,1.85-1c1.15,0,1.88.52,1.88,2v5.69h-1.52V99.5c0-1-.28-1.36-1.05-1.36-.61,0-1.2.47-1.2,1.47v5.06h-1.51Z" fill="#3b4351"/><path d="M122.81,97.13h1V95h1.52v2.14h1.23v1.12h-1.23v4.5c0,.6.16.8.68.8a2.64,2.64,0,0,0,.55,0v1.12a4.64,4.64,0,0,1-1.22.13c-1,0-1.53-.29-1.53-1.82V98.25h-1Z" fill="#3b4351"/><path d="M130.44,100.9c0-2.36.61-4,2.8-4s2.81,1.61,2.81,4-.72,4-2.81,4S130.44,103.25,130.44,100.9Zm2.8,2.84c1.11,0,1.3-.92,1.3-2.84,0-1.67-.19-2.85-1.3-2.85S132,99.23,132,100.9C132,102.82,132.16,103.74,133.24,103.74Z" fill="#3b4351"/><path d="M136.54,97.13h1V95h1.51v2.14h1.23v1.12h-1.23v4.5c0,.6.17.8.69.8a2.61,2.61,0,0,0,.54,0v1.12a4.64,4.64,0,0,1-1.22.13c-1,0-1.52-.29-1.52-1.82V98.25h-1Z" fill="#3b4351"/><path d="M144.54,94.66h1.51v10h-1.51Z" fill="#3b4351"/><path d="M147.64,94.55h1.52v1.52h-1.52Zm0,2.58h1.52v7.54h-1.52Z" fill="#3b4351"/><path d="M152.19,105.31a1,1,0,0,0,1.1.9,1.25,1.25,0,0,0,1.27-1.42v-1.22h0a1.82,1.82,0,0,1-1.71,1c-1.75,0-2.25-1.72-2.25-3.8,0-1.65.25-3.88,2.39-3.88a1.68,1.68,0,0,1,1.66,1.12h0v-.92h1.43v7.17c0,1.84-.78,2.94-2.81,2.94-2.24,0-2.49-1.31-2.49-1.93Zm1.07-1.9c1.17,0,1.3-1.49,1.3-2.68s-.15-2.59-1.2-2.59-1.28,1.12-1.28,2.52S152.14,103.41,153.26,103.41Z" fill="#3b4351"/><path d="M157.41,94.66h1.52v3.28l0,0a2.14,2.14,0,0,1,1.85-1c1.15,0,1.88.52,1.88,2v5.69h-1.52V99.5c0-1-.28-1.36-1.05-1.36-.61,0-1.2.47-1.2,1.47v5.06h-1.52Z" fill="#3b4351"/><path d="M163.48,97.13h1V95H166v2.14h1.23v1.12H166v4.5c0,.6.16.8.68.8a2.64,2.64,0,0,0,.55,0v1.12a4.64,4.64,0,0,1-1.22.13c-1,0-1.53-.29-1.53-1.82V98.25h-1Z" fill="#3b4351"/><path d="M171.4,94.66h1.51V98h0a1.74,1.74,0,0,1,1.71-1.08c1.15,0,2.33.52,2.33,3.87,0,2.59-.72,4.06-2.47,4.06a1.61,1.61,0,0,1-1.65-1.12h0v.93H171.4Zm2.7,9c1.07,0,1.28-1.08,1.28-2.79,0-2-.32-2.73-1.18-2.73-1.17,0-1.37,1-1.37,2.84C172.83,102.61,173.07,103.66,174.1,103.66Z" fill="#3b4351"/><path d="M179,97.13l1.3,5.66h0l1.2-5.66h1.58L181,105c-.6,2.06-1.06,2.34-2.63,2.29a3.14,3.14,0,0,1-.61,0V106a2.12,2.12,0,0,0,.49.06c.52,0,.86-.1,1-.59l.19-.62-2.14-7.7Z" fill="#3b4351"/><path d="M188.59,101.09v.44c0,1,.13,2.3,1.26,2.3s1.21-1.22,1.21-1.69h1.43a2.48,2.48,0,0,1-2.65,2.72c-1.23,0-2.76-.36-2.76-3.85,0-2,.43-4.08,2.79-4.08,2.1,0,2.66,1.28,2.66,3.37v.79Zm2.43-1v-.41c0-1-.31-1.68-1.17-1.68s-1.26,1-1.26,1.93v.16Z" fill="#3b4351"/><path d="M195.06,100.76l-1.95-3.63h1.66l1.17,2.49,1.24-2.49h1.62l-2,3.63,2,3.91h-1.64l-1.32-2.79-1.32,2.79H193Z" fill="#3b4351"/><path d="M204.74,101.92c-.12,1.81-.7,2.94-2.58,2.94-2.19,0-2.8-1.61-2.8-4s.61-4,2.8-4a2.44,2.44,0,0,1,2.59,2.71h-1.51c0-.7-.18-1.63-1.08-1.59-1.08,0-1.29,1.18-1.29,2.85s.21,2.84,1.29,2.84c.84,0,1.15-.68,1.15-1.82Z" fill="#3b4351"/><path d="M210.81,103.1c0,.28.17.53.39.53a.59.59,0,0,0,.26,0v1a1.63,1.63,0,0,1-.75.18c-.67,0-1.23-.27-1.27-1h0a1.94,1.94,0,0,1-1.87,1.1c-1.22,0-2-.66-2-2.11a2.09,2.09,0,0,1,1.75-2.37l1.18-.32c.55-.16.88-.31.88-1s-.23-1.12-1-1.12c-1,0-1.15.71-1.15,1.44h-1.43c0-1.61.66-2.48,2.65-2.48,1.33,0,2.39.52,2.39,1.85Zm-1.43-2.41a11.88,11.88,0,0,1-1.68.7,1.24,1.24,0,0,0-.61,1.22c0,.63.3,1.13.94,1.13.91,0,1.35-.67,1.35-1.79Z" fill="#3b4351"/><path d="M211.64,97.13h1.62l1.32,5.94h0l1.19-5.94h1.61l-2,7.54h-1.77Z" fill="#3b4351"/><path d="M223,103.1c0,.28.16.53.39.53a.57.57,0,0,0,.25,0v1a1.58,1.58,0,0,1-.74.18c-.67,0-1.23-.27-1.28-1h0a2,2,0,0,1-1.88,1.1c-1.22,0-2-.66-2-2.11a2.08,2.08,0,0,1,1.75-2.37l1.18-.32c.54-.16.88-.31.88-1s-.24-1.12-1-1.12c-1,0-1.15.71-1.15,1.44H218c0-1.61.66-2.48,2.65-2.48,1.33,0,2.4.52,2.4,1.85Zm-1.43-2.41a12.39,12.39,0,0,1-1.68.7,1.23,1.23,0,0,0-.62,1.22c0,.63.31,1.13.94,1.13.91,0,1.36-.67,1.36-1.79Z" fill="#3b4351"/><path d="M223.87,97.13h1V95h1.51v2.14h1.23v1.12h-1.23v4.5c0,.6.17.8.69.8a2.61,2.61,0,0,0,.54,0v1.12a4.59,4.59,0,0,1-1.22.13c-1,0-1.52-.29-1.52-1.82V98.25h-1Z" fill="#3b4351"/><path d="M228.51,94.55H230v1.52h-1.51Zm0,2.58H230v7.54h-1.51Z" fill="#3b4351"/><path d="M231.25,100.9c0-2.36.62-4,2.8-4s2.82,1.61,2.82,4-.73,4-2.82,4S231.25,103.25,231.25,100.9Zm2.8,2.84c1.11,0,1.3-.92,1.3-2.84,0-1.67-.19-2.85-1.3-2.85s-1.29,1.18-1.29,2.85C232.76,102.82,233,103.74,234.05,103.74Z" fill="#3b4351"/><path d="M238,97.13h1.42V98h.05a2.15,2.15,0,0,1,1.93-1.08c1.15,0,1.88.52,1.88,2v5.69h-1.52V99.5c0-1-.26-1.36-1-1.36-.61,0-1.2.46-1.2,1.47v5.06H238Z" fill="#3b4351"/><path d="M248,99.33v-.2c0-.6-.21-1.16-1-1.16-.6,0-1.07.27-1.07,1s.26.83,1.06,1.11l1,.33a2,2,0,0,1,1.64,2.17c0,1.62-1.19,2.3-2.71,2.3-1.9,0-2.48-.88-2.48-2.34v-.28h1.35v.24c0,.88.29,1.35,1.17,1.35s1.24-.42,1.24-1.11a1.09,1.09,0,0,0-.83-1.11l-1.23-.43A2,2,0,0,1,244.51,99c0-1.42,1-2.08,2.57-2.08,1.92,0,2.36,1.12,2.36,2.06v.34Z" fill="#3b4351"/><path d="M253.79,100.9c0-2.36.62-4,2.8-4s2.82,1.61,2.82,4-.73,4-2.82,4S253.79,103.25,253.79,100.9Zm2.8,2.84c1.11,0,1.3-.92,1.3-2.84,0-1.67-.19-2.85-1.3-2.85s-1.29,1.18-1.29,2.85C255.3,102.82,255.51,103.74,256.59,103.74Z" fill="#3b4351"/><path d="M261,98.25h-1V97.13h1v-.7c0-1.42.68-1.88,1.92-1.88.32,0,.6,0,.82,0v1.17h-.42c-.56,0-.81.21-.81.71v.66h1.23v1.12h-1.23v6.42H261Z" fill="#3b4351"/><path d="M269.15,101.57v.25c0,1.22.54,1.84,1.64,1.84a1.44,1.44,0,0,0,1.51-1.46,1.68,1.68,0,0,0-1.43-1.78l-1.09-.38c-1.46-.56-2.09-1.31-2.09-2.74,0-1.82,1.25-2.83,3.11-2.83,2.56,0,2.83,1.6,2.83,2.63v.23H272v-.21c0-.91-.39-1.45-1.4-1.45a1.28,1.28,0,0,0-1.34,1.45c0,.85.43,1.28,1.5,1.69l1.08.39a2.55,2.55,0,0,1,2,2.65c0,2.13-1.29,3-3.31,3a2.74,2.74,0,0,1-3-3v-.24Z" fill="#3b4351"/><path d="M275.15,94.55h1.52v1.52h-1.52Zm0,2.58h1.52v7.54h-1.52Z" fill="#3b4351"/><path d="M278.19,97.13h1.51v1.18h0a1.88,1.88,0,0,1,1.75-1.38.92.92,0,0,1,.37.06v1.54a2.24,2.24,0,0,0-.63-.08c-.69,0-1.52.3-1.52,1.71v4.51h-1.51Z" fill="#3b4351"/><path d="M287.43,94.66h2.05l2.63,10h-1.67l-.61-2.46H286.9l-.64,2.46h-1.67Zm2.13,6.28L288.41,96h0l-1.19,4.93Z" fill="#3b4351"/><path d="M292.71,97.13h1.51v1.18h0A1.88,1.88,0,0,1,296,96.93a.92.92,0,0,1,.37.06v1.54a2.32,2.32,0,0,0-.64-.08c-.68,0-1.51.3-1.51,1.71v4.51h-1.51Z" fill="#3b4351"/><path d="M296.45,97.13h1V95H299v2.14h1.23v1.12H299v4.5c0,.6.16.8.68.8a2.64,2.64,0,0,0,.55,0v1.12a4.64,4.64,0,0,1-1.22.13c-1,0-1.53-.29-1.53-1.82V98.25h-1Z" fill="#3b4351"/><path d="M301,94.66h1.51v3.28l.05,0a2.13,2.13,0,0,1,1.84-1c1.15,0,1.88.52,1.88,2v5.69h-1.51V99.5c0-1-.28-1.36-1-1.36s-1.21.47-1.21,1.47v5.06H301Z" fill="#3b4351"/><path d="M311.6,103.78h0a2.16,2.16,0,0,1-1.94,1.08c-1.12,0-1.87-.52-1.87-2.46V97.13h1.51v5.41c0,.84.36,1.12,1,1.12a1.17,1.17,0,0,0,1.23-1.26V97.13H313v7.54H311.6Z" fill="#3b4351"/><path d="M314.48,97.13H316v1.18h0a1.88,1.88,0,0,1,1.75-1.38.87.87,0,0,1,.36.06v1.54a2.18,2.18,0,0,0-.63-.08c-.68,0-1.51.3-1.51,1.71v4.51h-1.51Z" fill="#3b4351"/><path d="M322.35,94.66h5.4V96h-3.81v2.77h3.59v1.35h-3.59v3.19h3.93v1.35h-5.52Z" fill="#3b4351"/><path d="M328.35,97.13H330l1.31,5.94h0l1.19-5.94h1.61l-2,7.54h-1.76Z" fill="#3b4351"/><path d="M339.72,103.1c0,.28.17.53.4.53a.57.57,0,0,0,.25,0v1a1.63,1.63,0,0,1-.75.18c-.67,0-1.23-.27-1.27-1h0a1.94,1.94,0,0,1-1.87,1.1c-1.22,0-2-.66-2-2.11a2.09,2.09,0,0,1,1.75-2.37l1.18-.32c.55-.16.88-.31.88-1s-.23-1.12-1-1.12c-1,0-1.15.71-1.15,1.44h-1.43c0-1.61.66-2.48,2.65-2.48,1.33,0,2.39.52,2.39,1.85Zm-1.43-2.41a11.88,11.88,0,0,1-1.68.7,1.24,1.24,0,0,0-.61,1.22c0,.63.31,1.13.94,1.13.91,0,1.35-.67,1.35-1.79Z" fill="#3b4351"/><path d="M341.26,97.13h1.43V98h0a2.17,2.17,0,0,1,1.93-1.08c1.15,0,1.88.52,1.88,2v5.69H345V99.5c0-1-.27-1.36-1-1.36-.62,0-1.21.46-1.21,1.47v5.06h-1.51Z" fill="#3b4351"/><path d="M351.24,99.33v-.2c0-.6-.21-1.16-1-1.16-.6,0-1.08.27-1.08,1s.27.83,1.07,1.11l1,.33a2,2,0,0,1,1.64,2.17c0,1.62-1.19,2.3-2.7,2.3-1.91,0-2.48-.88-2.48-2.34v-.28H349v.24c0,.88.3,1.35,1.18,1.35s1.23-.42,1.23-1.11a1.09,1.09,0,0,0-.82-1.11l-1.24-.43A2,2,0,0,1,347.74,99c0-1.42,1-2.08,2.58-2.08,1.92,0,2.35,1.12,2.35,2.06v.34Z" fill="#3b4351"/></g></g></g></g></svg>