<svg xmlns="http://www.w3.org/2000/svg" viewBox="0 0 1847.91 112"><title>bc1650text</title><g id="Text"><g id="Indians"><path d="M1430,10.17h2.79V27.66H1430Z"/><path d="M1435.58,10.17h3.4l5.08,13h0v-13h2.65V27.66h-3.4l-5.08-13.38h0V27.66h-2.64Z"/><path d="M1449.64,10.17h5c5.49,0,6.18,3.57,6.18,8.74s-.69,8.75-6.18,8.75h-5Zm2.79,15.39h2.31c2.3,0,3.26-1.52,3.26-6.65,0-4.92-.84-6.64-3.26-6.64h-2.31Z"/><path d="M1463.14,10.17h2.79V27.66h-2.79Z"/><path d="M1472,10.17h3.58l4.6,17.49h-2.91l-1.08-4.29h-5.12L1470,27.66H1467Zm3.72,11-2-8.62h0l-2.09,8.62Z"/><path d="M1481.42,10.17h3.4l5.07,13h0v-13h2.65V27.66h-3.41l-5.07-13.38h0V27.66h-2.64Z"/><path d="M1497.64,22.25v.44c0,2.13.95,3.21,2.86,3.21a2.51,2.51,0,0,0,2.65-2.55c0-1.84-.93-2.65-2.5-3.11l-1.91-.66c-2.55-1-3.65-2.31-3.65-4.81,0-3.18,2.18-4.95,5.44-4.95,4.48,0,5,2.8,5,4.61v.39h-2.8v-.37c0-1.59-.68-2.52-2.45-2.52a2.23,2.23,0,0,0-2.35,2.52c0,1.5.76,2.26,2.62,3l1.89.69c2.47.88,3.55,2.2,3.55,4.63,0,3.72-2.25,5.27-5.78,5.27-4.34,0-5.32-2.9-5.32-5.35v-.41Z"/><path d="M1435.3,37.17a20.65,20.65,0,0,0-2.8,11,21.38,21.38,0,0,0,2.8,11h-1.89a18.71,18.71,0,0,1,0-22Z"/><path d="M1436.74,37.17h2.8v7h5.14v-7h2.8V54.66h-2.8V46.53h-5.14v8.13h-2.8Z"/><path d="M1450.31,37H1453v2.65h-2.65Zm0,4.51H1453V54.66h-2.65Z"/><path d="M1455.63,41.48h2.5V43h.07a3.81,3.81,0,0,1,3.39-1.88c2,0,3.28.9,3.28,3.57v9.95h-2.65v-9c0-1.76-.46-2.38-1.83-2.38-1.08,0-2.11.81-2.11,2.58v8.84h-2.65Z"/><path d="M1474.15,53.05h-.05a2.81,2.81,0,0,1-2.89,2c-3.06,0-4.31-2.6-4.31-7.11,0-5.86,2.06-6.76,4.07-6.76a3.06,3.06,0,0,1,3,1.88h0V37.17h2.64V54.66h-2.5Zm-2.4-9.81c-1.49,0-2.06,1.23-2.06,4.78,0,3,.37,4.88,2.23,4.88s2.23-1.84,2.23-4.68C1474.15,45.06,1473.81,43.24,1471.75,43.24Z"/><path d="M1485.94,53.12h-.08a3.79,3.79,0,0,1-3.38,1.89c-2,0-3.28-.91-3.28-4.32V41.48h2.65v9.46c0,1.47.63,2,1.79,2a2.06,2.06,0,0,0,2.15-2.21V41.48h2.65V54.66h-2.5Z"/><path d="M1496.67,45.33V45c0-1-.37-2-1.74-2-1,0-1.89.46-1.89,1.71,0,1.06.47,1.45,1.86,1.94l1.7.59c2,.66,2.86,1.71,2.86,3.8,0,2.81-2.08,4-4.73,4-3.33,0-4.34-1.55-4.34-4.1v-.49h2.36v.42c0,1.54.51,2.35,2.06,2.35s2.15-.73,2.15-1.93a1.91,1.91,0,0,0-1.44-1.94l-2.16-.76c-2-.66-2.82-1.69-2.82-3.8,0-2.47,1.77-3.62,4.51-3.62,3.36,0,4.12,2,4.12,3.6v.59Z"/><path d="M1500.15,59.17a20.67,20.67,0,0,0,2.79-11,21.38,21.38,0,0,0-2.79-11H1502a18.67,18.67,0,0,1,0,22Z"/></g><g id="Chinese"><path d="M1691.12,38.58V39c0,2.13,1,3.21,2.86,3.21a2.51,2.51,0,0,0,2.65-2.55c0-1.84-.93-2.65-2.5-3.11l-1.91-.66c-2.55-1-3.65-2.31-3.65-4.81,0-3.18,2.18-5,5.44-5,4.48,0,5,2.8,5,4.61v.39h-2.79v-.37c0-1.59-.69-2.52-2.45-2.52a2.23,2.23,0,0,0-2.36,2.52c0,1.5.76,2.26,2.62,3l1.89.69c2.48.88,3.56,2.2,3.56,4.63,0,3.72-2.26,5.27-5.79,5.27-4.34,0-5.32-2.9-5.32-5.35v-.41Z"/><path d="M1701.51,26.5h2.64v5.73l.08.05a3.74,3.74,0,0,1,3.23-1.81c2,0,3.28.9,3.28,3.57V44h-2.64V35c0-1.74-.49-2.38-1.84-2.38-1.08,0-2.11.84-2.11,2.58V44h-2.64Z"/><path d="M1721.94,41.25c0,.49.29.93.69.93a1.22,1.22,0,0,0,.44-.07v1.71a2.86,2.86,0,0,1-1.3.32c-1.18,0-2.16-.47-2.23-1.74h0a3.41,3.41,0,0,1-3.28,1.94c-2.14,0-3.44-1.16-3.44-3.7,0-3,1.3-3.56,3.07-4.15l2.06-.56c.95-.27,1.54-.54,1.54-1.69s-.42-2-1.81-2c-1.77,0-2,1.25-2,2.52h-2.5c0-2.82,1.15-4.33,4.63-4.33,2.33,0,4.19.9,4.19,3.23Zm-2.5-4.22a20.5,20.5,0,0,1-2.94,1.23,2.17,2.17,0,0,0-1.08,2.13c0,1.1.54,2,1.64,2,1.6,0,2.38-1.17,2.38-3.13Z"/><path d="M1724.63,30.81h2.5v1.54h.08a3.78,3.78,0,0,1,3.38-1.88c2,0,3.28.9,3.28,3.57V44h-2.65V35c0-1.76-.46-2.38-1.83-2.38-1.08,0-2.11.81-2.11,2.58V44h-2.65Z"/><path d="M1739.06,45.12a1.73,1.73,0,0,0,1.92,1.57,2.18,2.18,0,0,0,2.22-2.48V42.08h0a3.19,3.19,0,0,1-3,1.81c-3.07,0-4-3-4-6.64,0-2.89.44-6.78,4.19-6.78a2.9,2.9,0,0,1,2.89,2h0V30.81h2.5V43.36c0,3.21-1.37,5.14-4.92,5.14-3.93,0-4.37-2.3-4.37-3.38Zm1.87-3.33c2,0,2.27-2.6,2.27-4.68s-.27-4.54-2.1-4.54-2.23,2-2.23,4.41C1738.87,39.24,1739,41.79,1740.93,41.79Z"/><path d="M1681.23,53.5h5c5.48,0,6.17,3.57,6.17,8.74s-.69,8.75-6.17,8.75h-5ZM1684,68.89h2.31c2.3,0,3.26-1.52,3.26-6.65,0-4.92-.84-6.64-3.26-6.64H1684Z"/><path d="M1696.45,57.81l2.28,9.9h0l2.11-9.9h2.77L1700,71.48c-1,3.6-1.86,4.1-4.6,4a4.76,4.76,0,0,1-1.06-.1V73.3a3.65,3.65,0,0,0,.86.09c.91,0,1.5-.17,1.79-1l.34-1.08-3.75-13.48Z"/><path d="M1705.12,57.81h2.5v1.54h.07a3.78,3.78,0,0,1,3.38-1.88c2,0,3.29.9,3.29,3.57V71h-2.65V62c0-1.76-.46-2.38-1.84-2.38-1.08,0-2.1.81-2.1,2.58V71h-2.65Z"/><path d="M1725.55,68.25c0,.49.3.93.69.93a1.18,1.18,0,0,0,.44-.07v1.71a2.83,2.83,0,0,1-1.3.32c-1.17,0-2.15-.47-2.23-1.74h-.05a3.4,3.4,0,0,1-3.28,1.94c-2.13,0-3.43-1.16-3.43-3.7,0-3,1.3-3.56,3.06-4.15l2.06-.56c1-.27,1.54-.54,1.54-1.69s-.41-2-1.81-2c-1.76,0-2,1.25-2,2.52h-2.5c0-2.82,1.15-4.33,4.63-4.33,2.33,0,4.19.9,4.19,3.23Zm-2.5-4.22a20,20,0,0,1-2.94,1.23,2.17,2.17,0,0,0-1.08,2.13c0,1.1.54,2,1.65,2,1.59,0,2.37-1.18,2.37-3.14Z"/><path d="M1733.93,61.66v-.35c0-1.05-.37-2-1.74-2-1,0-1.89.46-1.89,1.71,0,1.06.47,1.45,1.87,1.94l1.69.59c2,.66,2.87,1.71,2.87,3.8,0,2.81-2.09,4-4.73,4-3.34,0-4.34-1.55-4.34-4.1v-.49H1730v.42c0,1.54.51,2.35,2.06,2.35s2.16-.73,2.16-1.93a1.91,1.91,0,0,0-1.45-1.94l-2.16-.76c-2-.66-2.81-1.69-2.81-3.8,0-2.47,1.76-3.62,4.5-3.62,3.36,0,4.12,2,4.12,3.6v.59Z"/><path d="M1737.51,57.81h1.81V54.06H1742v3.75h2.15v2H1742v7.87c0,1,.29,1.39,1.2,1.39a4.91,4.91,0,0,0,.95-.07v2a8.44,8.44,0,0,1-2.13.22c-1.76,0-2.67-.52-2.67-3.19V59.77h-1.81Z"/><path d="M1747.26,57.81l2.28,9.9h0l2.1-9.9h2.77l-3.62,13.67c-1.06,3.6-1.87,4.1-4.61,4a4.62,4.62,0,0,1-1-.1V73.3a3.51,3.51,0,0,0,.85.09c.91,0,1.5-.17,1.79-1l.35-1.08-3.75-13.48Z"/></g><g id="Amorites"><path d="M931.08,75h3.57l4.61,17.49h-2.91l-1.08-4.29h-5.13L929,92.49H926.1Zm3.72,11-2-8.62h0L930.66,86Z"/><path d="M940.48,75h4.37l3.08,13H948l3-13h4.26V92.49h-2.64V77.94h0l-3.53,14.55h-2.35l-3.53-14.55h0V92.49h-2.65Z"/><path d="M957.76,83.74c0-6.24,1.76-9.09,5.78-9.09s5.78,2.85,5.78,9.09-1.76,9.1-5.78,9.1S957.76,90,957.76,83.74Zm8.77-.07c0-5.88-1.33-6.91-3-6.91s-3,1-3,6.91,1.32,7.06,3,7.06S966.53,89.67,966.53,83.67Z"/><path d="M971.79,75H978c2.45,0,4.43,1.25,4.43,4.5,0,2.26-1,4-2.91,4.29v0c1.76.17,2.65,1.13,2.74,3.58,0,1.15,0,2.5.1,3.55a1.92,1.92,0,0,0,.83,1.52H980a2.93,2.93,0,0,1-.46-1.54c0-.52-.08-1.06-.08-1.57s0-1.1-.05-1.74c-.07-1.91-.66-2.74-2.54-2.74h-2.28v7.59h-2.8Zm5,7.79A2.58,2.58,0,0,0,979.61,80c0-1.87-.78-2.85-2.65-2.85h-2.37v5.69Z"/><path d="M984.83,75h2.79V92.49h-2.79Z"/><path d="M993.26,77.35h-4.17V75h11v2.35h-4.09V92.49h-2.79Z"/><path d="M1001.73,75h9.46v2.35h-6.66V82.2h6.27v2.35h-6.27v5.59h6.86v2.35h-9.66Z"/><path d="M1015.67,87.08v.44c0,2.13,1,3.21,2.87,3.21a2.51,2.51,0,0,0,2.65-2.55c0-1.84-.93-2.65-2.5-3.11l-1.91-.66c-2.55-1-3.66-2.31-3.66-4.81,0-3.18,2.19-4.95,5.44-4.95,4.49,0,5,2.8,5,4.61v.39h-2.8v-.37c0-1.59-.69-2.52-2.45-2.52a2.23,2.23,0,0,0-2.35,2.52c0,1.5.76,2.26,2.62,3l1.89.69c2.47.88,3.55,2.2,3.55,4.63,0,3.72-2.25,5.27-5.78,5.27-4.34,0-5.32-2.9-5.32-5.35v-.41Z"/></g></g><g id="YEARS"><g id="Right"><path d="M1787.21,103.26V89.9h-3.82V88h.29c1.77,0,3.79-.44,4.34-2.75v-.37h2.16v18.41Z"/><path d="M1802.84,89.32c0-1.06-.52-2.39-2-2.39-2.78,0-2.93,3.64-2.93,6.35l.07,0a3.77,3.77,0,0,1,3.59-2c2.52,0,4.55,1.82,4.55,5.48,0,4.24-1.77,6.76-5.64,6.76-4.65,0-5.54-3.53-5.54-8.81,0-5.51,1-10,5.88-10,3.25,0,5,1.43,5,4.47Zm-2.11,12.22c1.8,0,2.45-1.79,2.45-4,0-2.57-.76-4-2.45-4-2.18,0-2.55,1.9-2.55,4.11S1799,101.54,1800.73,101.54Z"/><path d="M1807.62,98.29h2.81v.5a2.35,2.35,0,0,0,2.42,2.6c2.08,0,2.63-2,2.63-4.19s-.58-3.92-2.48-3.92a2.34,2.34,0,0,0-2.41,1.69l-2.63-.11.91-9.64h8.87v2.36h-6.66l-.6,4.84,0,0a4.08,4.08,0,0,1,3.1-1.43c3.85,0,4.81,3.25,4.81,6.08,0,3.7-1.69,6.5-5.67,6.5-3.3,0-5.15-1.69-5.15-4.94Z"/><path d="M1825.51,84.85c3.54,0,5.51,2.21,5.51,9.39s-2,9.38-5.51,9.38-5.51-2.21-5.51-9.38S1822,84.85,1825.51,84.85Zm0,16.69c2,0,2.55-2,2.55-7.3s-.55-7.31-2.55-7.31-2.55,2-2.55,7.31S1823.51,101.54,1825.51,101.54Z"/></g><g id="left"><path d="M17.46,106.86V93.49H13.64V91.57h.29c1.77,0,3.79-.44,4.34-2.76v-.36h2.16v18.41Z"/><path d="M33.09,92.92c0-1.06-.52-2.39-2-2.39-2.78,0-2.93,3.64-2.93,6.34l.07.06a3.77,3.77,0,0,1,3.59-2c2.52,0,4.55,1.82,4.55,5.48,0,4.24-1.77,6.76-5.64,6.76-4.65,0-5.54-3.53-5.54-8.81,0-5.51,1-10,5.88-10,3.25,0,5,1.43,5,4.47ZM31,105.14c1.8,0,2.45-1.79,2.45-4,0-2.57-.76-4-2.45-4-2.18,0-2.54,1.9-2.54,4.11S29.24,105.14,31,105.14Z"/><path d="M37.87,101.89h2.81v.5A2.36,2.36,0,0,0,43.1,105c2.08,0,2.63-2,2.63-4.19s-.58-3.93-2.48-3.93a2.35,2.35,0,0,0-2.41,1.69l-2.63-.1.91-9.65H48v2.37H41.33L40.73,96l.06,0a4,4,0,0,1,3.09-1.43c3.85,0,4.81,3.25,4.81,6.08,0,3.69-1.69,6.5-5.67,6.5-3.3,0-5.15-1.69-5.15-4.94Z"/><path d="M55.76,88.45c3.54,0,5.51,2.21,5.51,9.39s-2,9.38-5.51,9.38-5.51-2.21-5.51-9.38S52.22,88.45,55.76,88.45Zm0,16.69c2,0,2.55-2,2.55-7.3s-.55-7.31-2.55-7.31-2.55,2-2.55,7.31S53.76,105.14,55.76,105.14Z"/></g></g></svg>