<svg xmlns="http://www.w3.org/2000/svg" viewBox="0 0 1847.91 110.5"><title>bc1750text</title><g id="Text"><g id="Amorites"><path d="M966.65,10.58h2.79V18.2h0l5.3-7.62h3.06L972.8,18l5.59,10.12h-3.16L971,20.21l-1.55,2.2v5.66h-2.79Z"/><path d="M987.84,25.33c0,.49.3.93.69.93a1,1,0,0,0,.44-.07V27.9a2.83,2.83,0,0,1-1.3.32c-1.17,0-2.15-.46-2.23-1.74h-.05a3.4,3.4,0,0,1-3.28,1.94c-2.13,0-3.43-1.15-3.43-3.7,0-2.94,1.3-3.56,3.06-4.14L983.8,20c1-.27,1.54-.54,1.54-1.69s-.41-2-1.81-2c-1.76,0-2,1.25-2,2.52H979c0-2.81,1.15-4.33,4.63-4.33,2.33,0,4.19.9,4.19,3.23Zm-2.5-4.22a20,20,0,0,1-2.94,1.23,2.16,2.16,0,0,0-1.07,2.13c0,1.1.53,2,1.64,2,1.59,0,2.37-1.18,2.37-3.14Z"/><path d="M996.22,18.74v-.35c0-1.05-.37-2-1.74-2-1.05,0-1.88.47-1.88,1.72,0,1.05.46,1.44,1.86,1.93l1.69.59c2,.66,2.87,1.72,2.87,3.8,0,2.82-2.09,4-4.73,4-3.34,0-4.34-1.55-4.34-4.1v-.49h2.35v.42c0,1.55.52,2.35,2.06,2.35s2.16-.73,2.16-1.93a1.91,1.91,0,0,0-1.45-1.94L992.91,22c-2-.66-2.81-1.69-2.81-3.8,0-2.47,1.76-3.62,4.5-3.62,3.36,0,4.12,2,4.12,3.6v.59Z"/><path d="M1006.66,18.74v-.35c0-1.05-.37-2-1.74-2-1,0-1.89.47-1.89,1.72,0,1.05.47,1.44,1.86,1.93l1.7.59c2,.66,2.86,1.72,2.86,3.8,0,2.82-2.08,4-4.73,4-3.33,0-4.33-1.55-4.33-4.1v-.49h2.35v.42c0,1.55.51,2.35,2.06,2.35s2.15-.73,2.15-1.93a1.91,1.91,0,0,0-1.44-1.94l-2.16-.76c-2-.66-2.82-1.69-2.82-3.8,0-2.47,1.77-3.62,4.51-3.62,3.36,0,4.12,2,4.12,3.6v.59Z"/><path d="M1011.53,10.38h2.65V13h-2.65Zm0,4.51h2.65V28.07h-2.65Z"/><path d="M1015.67,14.89h1.82V11.14h2.64v3.75h2.16v2h-2.16v7.87c0,1.05.3,1.39,1.2,1.39a5,5,0,0,0,1-.07v2a8.44,8.44,0,0,1-2.13.22c-1.77,0-2.67-.51-2.67-3.18V16.85h-1.82Z"/><path d="M1025.94,21.82v.76c0,1.77.22,4,2.2,4s2.11-2.13,2.11-2.94h2.5c0,3-1.76,4.76-4.63,4.76-2.16,0-4.83-.64-4.83-6.74,0-3.46.76-7.13,4.88-7.13,3.68,0,4.66,2.23,4.66,5.88v1.39Zm4.24-1.81V19.3c0-1.67-.54-2.94-2-2.94-1.66,0-2.2,1.67-2.2,3.38V20Z"/><path d="M1041.06,10.58h5c5.49,0,6.17,3.57,6.17,8.75s-.68,8.74-6.17,8.74h-5ZM1043.85,26h2.3c2.31,0,3.26-1.52,3.26-6.64,0-4.93-.83-6.65-3.26-6.65h-2.3Z"/><path d="M1056.27,14.89l2.28,9.9h0l2.11-9.9h2.76l-3.62,13.67c-1.06,3.61-1.87,4.1-4.61,4a5.26,5.26,0,0,1-1-.09V30.38a3.53,3.53,0,0,0,.85.1c.91,0,1.5-.18,1.79-1l.35-1.08-3.75-13.48Z"/><path d="M1064.94,14.89h2.5v1.54h.08a3.78,3.78,0,0,1,3.38-1.88c2,0,3.28.9,3.28,3.57v10h-2.65V19c0-1.76-.46-2.38-1.83-2.38-1.08,0-2.11.81-2.11,2.58v8.84h-2.65Z"/><path d="M1085.38,25.33c0,.49.29.93.68.93a1,1,0,0,0,.44-.07V27.9a2.78,2.78,0,0,1-1.29.32c-1.18,0-2.16-.46-2.23-1.74h0a3.41,3.41,0,0,1-3.29,1.94c-2.13,0-3.43-1.15-3.43-3.7,0-2.94,1.3-3.56,3.06-4.14l2.06-.57c1-.27,1.55-.54,1.55-1.69s-.42-2-1.82-2c-1.76,0-2,1.25-2,2.52h-2.5c0-2.81,1.15-4.33,4.63-4.33,2.33,0,4.19.9,4.19,3.23Zm-2.5-4.22a20.5,20.5,0,0,1-2.94,1.23,2.17,2.17,0,0,0-1.08,2.13c0,1.1.54,2,1.64,2,1.59,0,2.38-1.18,2.38-3.14Z"/><path d="M1093.76,18.74v-.35c0-1.05-.37-2-1.74-2-1.06,0-1.89.47-1.89,1.72,0,1.05.46,1.44,1.86,1.93l1.69.59c2,.66,2.87,1.72,2.87,3.8,0,2.82-2.08,4-4.73,4-3.33,0-4.34-1.55-4.34-4.1v-.49h2.35v.42c0,1.55.52,2.35,2.06,2.35s2.16-.73,2.16-1.93a1.91,1.91,0,0,0-1.45-1.94l-2.15-.76c-2-.66-2.82-1.69-2.82-3.8,0-2.47,1.76-3.62,4.51-3.62,3.36,0,4.11,2,4.11,3.6v.59Z"/><path d="M1097.33,14.89h1.81V11.14h2.65v3.75H1104v2h-2.16v7.87c0,1.05.29,1.39,1.2,1.39a5.1,5.1,0,0,0,1-.07v2a8.58,8.58,0,0,1-2.14.22c-1.76,0-2.67-.51-2.67-3.18V16.85h-1.81Z"/><path d="M1107.08,14.89l2.28,9.9h.05l2.11-9.9h2.77l-3.63,13.67c-1.05,3.61-1.86,4.1-4.61,4a5.39,5.39,0,0,1-1-.09V30.38a3.55,3.55,0,0,0,.86.1c.9,0,1.49-.18,1.79-1l.34-1.08-3.75-13.48Z"/></g><g id="Ageans"><g id="Title"><path d="M133.22,9.6h-4.17V7.24h11.06V9.6H136V24.74h-2.79Z"/><path d="M141.52,7.24h2.65V13l.07,0a3.78,3.78,0,0,1,3.24-1.82c2,0,3.28.91,3.28,3.58v10h-2.64v-9c0-1.74-.49-2.38-1.84-2.38-1.08,0-2.11.83-2.11,2.57v8.85h-2.65Z"/><path d="M153.43,7.05h2.65V9.69h-2.65Zm0,4.51h2.65V24.74h-2.65Z"/><path d="M158.75,11.56h2.64v2.06h.05a3.26,3.26,0,0,1,3.07-2.41,1.53,1.53,0,0,1,.63.1V14a3.42,3.42,0,0,0-1.1-.15c-1.2,0-2.65.54-2.65,3v7.89h-2.64Z"/><path d="M173.06,23.12H173a2.82,2.82,0,0,1-2.89,2c-3.07,0-4.32-2.59-4.32-7.1,0-5.86,2.06-6.77,4.07-6.77a3,3,0,0,1,3,1.89h0V7.24h2.65v17.5h-2.5Zm-2.41-9.8c-1.49,0-2.05,1.23-2.05,4.78,0,3,.36,4.88,2.23,4.88s2.23-1.84,2.23-4.68C173.06,15.13,172.71,13.32,170.65,13.32Z"/><path d="M184.15,7.24h4.36l3.09,13h.05l3-13H199v17.5h-2.64V10.18h-.05l-3.53,14.56h-2.35l-3.53-14.56h0V24.74h-2.65Z"/><path d="M201.79,7.05h2.65V9.69h-2.65Zm0,4.51h2.65V24.74h-2.65Z"/><path d="M213.85,23.12h0a2.82,2.82,0,0,1-2.89,2c-3.07,0-4.32-2.59-4.32-7.1,0-5.86,2.06-6.77,4.07-6.77a3,3,0,0,1,3,1.89h0V7.24h2.65v17.5h-2.5Zm-2.4-9.8c-1.5,0-2.06,1.23-2.06,4.78,0,3,.36,4.88,2.23,4.88s2.23-1.84,2.23-4.68C213.85,15.13,213.5,13.32,211.45,13.32Z"/><path d="M225.63,23.12h0a2.82,2.82,0,0,1-2.89,2c-3.06,0-4.31-2.59-4.31-7.1,0-5.86,2.06-6.77,4.07-6.77a3,3,0,0,1,3,1.89h0V7.24h2.65v17.5h-2.5Zm-2.4-9.8c-1.5,0-2.06,1.23-2.06,4.78,0,3,.37,4.88,2.23,4.88s2.23-1.84,2.23-4.68C225.63,15.13,225.29,13.32,223.23,13.32Z"/><path d="M230.8,7.24h2.65v17.5H230.8Z"/><path d="M238.39,18.49v.76c0,1.77.22,4,2.21,4s2.11-2.13,2.11-2.94h2.5c0,3-1.77,4.75-4.64,4.75-2.15,0-4.82-.63-4.82-6.74,0-3.45.76-7.13,4.87-7.13,3.68,0,4.66,2.23,4.66,5.88v1.4Zm4.24-1.81V16c0-1.67-.54-2.94-2-2.94-1.67,0-2.21,1.66-2.21,3.38v.27Z"/><path d="M253.51,7.24h4.36l3.09,13H261l3-13h4.26v17.5h-2.65V10.18h0l-3.53,14.56h-2.36L256.2,10.18h0V24.74h-2.65Z"/><path d="M271.15,7.05h2.65V9.69h-2.65Zm0,4.51h2.65V24.74h-2.65Z"/><path d="M276.46,11.56H279V13.1H279a3.77,3.77,0,0,1,3.38-1.89c2,0,3.28.91,3.28,3.58v10h-2.64v-9c0-1.77-.47-2.38-1.84-2.38-1.08,0-2.11.81-2.11,2.57v8.85h-2.65Z"/><path d="M287.73,18.15c0-4.12,1.08-6.94,4.91-6.94s4.92,2.82,4.92,6.94-1.27,6.93-4.92,6.93S287.73,22.27,287.73,18.15Zm4.91,5c1.93,0,2.27-1.61,2.27-5,0-2.92-.34-5-2.27-5s-2.26,2.06-2.26,5C290.38,21.51,290.75,23.12,292.64,23.12Z"/><path d="M308.24,22c0,.49.3.93.69.93a1,1,0,0,0,.44-.08v1.72a2.83,2.83,0,0,1-1.3.32c-1.18,0-2.16-.47-2.23-1.74h0a3.39,3.39,0,0,1-3.28,1.93c-2.13,0-3.43-1.15-3.43-3.7,0-2.94,1.3-3.55,3.06-4.14l2.06-.56c.95-.27,1.54-.54,1.54-1.69s-.41-2-1.81-2c-1.77,0-2,1.25-2,2.52h-2.5c0-2.82,1.15-4.34,4.63-4.34,2.33,0,4.19.91,4.19,3.24Zm-2.5-4.22A21.19,21.19,0,0,1,302.8,19a2.16,2.16,0,0,0-1.08,2.13c0,1.1.54,2,1.65,2,1.59,0,2.37-1.17,2.37-3.13Z"/><path d="M310.94,11.56h2.49V13.1h.08a3.77,3.77,0,0,1,3.38-1.89c2,0,3.28.91,3.28,3.58v10h-2.64v-9c0-1.77-.47-2.38-1.84-2.38-1.08,0-2.11.81-2.11,2.57v8.85h-2.64Z"/><path d="M328.77,7.24h5.54c3.36,0,4.83,2.11,4.83,5.1,0,3.14-1.87,5.17-5.12,5.17h-2.46v7.23h-2.79Zm2.79,8.16h2c1.49,0,2.79-.78,2.79-3,0-1.89-.76-3-3-3h-1.79Z"/><path d="M343.13,18.49v.76c0,1.77.22,4,2.2,4s2.11-2.13,2.11-2.94h2.5c0,3-1.76,4.75-4.63,4.75-2.16,0-4.83-.63-4.83-6.74,0-3.45.76-7.13,4.88-7.13,3.67,0,4.65,2.23,4.65,5.88v1.4Zm4.24-1.81V16c0-1.67-.54-2.94-2-2.94-1.66,0-2.2,1.66-2.2,3.38v.27Z"/><path d="M352.19,11.56h2.65v2.06h.05A3.26,3.26,0,0,1,358,11.21a1.59,1.59,0,0,1,.64.1V14a3.51,3.51,0,0,0-1.1-.15c-1.2,0-2.65.54-2.65,3v7.89h-2.65Z"/><path d="M360,7.05h2.65V9.69H360Zm0,4.51h2.65V24.74H360Z"/><path d="M364.83,18.15c0-4.12,1.08-6.94,4.9-6.94s4.93,2.82,4.93,6.94-1.27,6.93-4.93,6.93S364.83,22.27,364.83,18.15Zm4.9,5c1.94,0,2.28-1.61,2.28-5,0-2.92-.34-5-2.28-5s-2.25,2.06-2.25,5C367.48,21.51,367.85,23.12,369.73,23.12Z"/><path d="M383.43,23.12h-.05a2.82,2.82,0,0,1-2.89,2c-3.06,0-4.31-2.59-4.31-7.1,0-5.86,2.06-6.77,4.07-6.77a3,3,0,0,1,3,1.89h0V7.24h2.65v17.5h-2.5Zm-2.4-9.8c-1.5,0-2.06,1.23-2.06,4.78,0,3,.37,4.88,2.23,4.88s2.23-1.84,2.23-4.68C383.43,15.13,383.09,13.32,381,13.32Z"/></g></g></g><g id="YEARS"><g id="Right"><path d="M1781.27,102.41V89h-3.82V87.12h.28c1.77,0,3.8-.44,4.35-2.76V84h2.15v18.41Z"/><path d="M1789.15,84.36h10.92V86.7a32.25,32.25,0,0,0-5.8,15.71h-3.12A31.47,31.47,0,0,1,1797.21,87h-8.06Z"/><path d="M1801.68,97.44h2.81v.5a2.35,2.35,0,0,0,2.42,2.6c2.08,0,2.62-2,2.62-4.19s-.57-3.93-2.47-3.93a2.36,2.36,0,0,0-2.42,1.69L1802,94l.91-9.65h8.86v2.37h-6.65l-.6,4.84,0,.05a4.06,4.06,0,0,1,3.09-1.43c3.85,0,4.82,3.25,4.82,6.08,0,3.69-1.69,6.5-5.67,6.5-3.31,0-5.15-1.69-5.15-4.94Z"/><path d="M1819.57,84c3.53,0,5.51,2.21,5.51,9.39s-2,9.38-5.51,9.38-5.52-2.21-5.52-9.38S1816,84,1819.57,84Zm0,16.69c2,0,2.54-2,2.54-7.3s-.54-7.31-2.54-7.31-2.55,2-2.55,7.31S1817.56,100.69,1819.57,100.69Z"/></g><g id="Layer_34" data-name="Layer 34"><path d="M21.52,106V92.64H17.7V90.72H18c1.77,0,3.8-.44,4.35-2.76V87.6h2.16V106Z"/><path d="M29.4,88H40.32V90.3A32.21,32.21,0,0,0,34.52,106H31.4a31.54,31.54,0,0,1,6.06-15.4H29.4Z"/><path d="M41.93,101h2.81v.49a2.35,2.35,0,0,0,2.42,2.6c2.08,0,2.62-2,2.62-4.18S49.21,96,47.31,96a2.36,2.36,0,0,0-2.42,1.69l-2.62-.1L43.18,88H52v2.37H45.39l-.6,4.83.05.06a4.06,4.06,0,0,1,3.1-1.43c3.84,0,4.81,3.25,4.81,6.08,0,3.69-1.69,6.5-5.67,6.5-3.3,0-5.15-1.69-5.15-4.94Z"/><path d="M59.82,87.6c3.53,0,5.51,2.21,5.51,9.38s-2,9.39-5.51,9.39S54.3,104.16,54.3,97,56.28,87.6,59.82,87.6Zm0,16.69c2,0,2.55-2,2.55-7.31s-.55-7.3-2.55-7.3-2.55,2-2.55,7.3S57.82,104.29,59.82,104.29Z"/></g></g></svg>