<svg xmlns="http://www.w3.org/2000/svg" viewBox="0 0 1847.91 112.27"><title>bc1700text</title><g id="YEARS"><g id="Right"><path d="M1787.21,103.85V90.49h-3.82V88.57h.29c1.77,0,3.79-.45,4.34-2.76v-.36h2.16v18.4Z"/><path d="M1795.09,85.81H1806v2.34a32.18,32.18,0,0,0-5.8,15.7h-3.12a31.51,31.51,0,0,1,6.06-15.39h-8.06Z"/><path d="M1813,85.45c3.54,0,5.51,2.21,5.51,9.38s-2,9.39-5.51,9.39-5.51-2.21-5.51-9.39S1809.49,85.45,1813,85.45Zm0,16.69c2,0,2.55-2,2.55-7.31s-.55-7.3-2.55-7.3-2.55,2-2.55,7.3S1811,102.14,1813,102.14Z"/><path d="M1825.51,85.45c3.54,0,5.51,2.21,5.51,9.38s-2,9.39-5.51,9.39S1820,102,1820,94.83,1822,85.45,1825.51,85.45Zm0,16.69c2,0,2.55-2,2.55-7.31s-.55-7.3-2.55-7.3-2.55,2-2.55,7.3S1823.51,102.14,1825.51,102.14Z"/></g><g id="left"><path d="M17.46,107.45V94.09H13.64V92.17h.29c1.77,0,3.79-.45,4.34-2.76V89h2.16v18.41Z"/><path d="M25.34,89.41H36.26v2.34a32.18,32.18,0,0,0-5.8,15.7H27.34A31.51,31.51,0,0,1,33.4,92.06H25.34Z"/><path d="M43.28,89c3.54,0,5.51,2.21,5.51,9.39s-2,9.39-5.51,9.39-5.51-2.21-5.51-9.39S39.75,89,43.28,89Zm0,16.7c2,0,2.55-2,2.55-7.31s-.55-7.31-2.55-7.31-2.55,2-2.55,7.31S41.28,105.74,43.28,105.74Z"/><path d="M55.76,89c3.54,0,5.51,2.21,5.51,9.39s-2,9.39-5.51,9.39-5.51-2.21-5.51-9.39S52.22,89,55.76,89Zm0,16.7c2,0,2.55-2,2.55-7.31s-.55-7.31-2.55-7.31-2.55,2-2.55,7.31S53.76,105.74,55.76,105.74Z"/></g></g><g id="Text"><g id="Hittites"><path d="M693.82,17.63h2.79v7h5.15v-7h2.79v17.5h-2.79V27h-5.15v8.14h-2.79Z" fill="#3b4351"/><path d="M707.32,17.63h2.79v17.5h-2.79Z" fill="#3b4351"/><path d="M715.75,20h-4.17V17.63h11V20h-4.09V35.13h-2.79Z" fill="#3b4351"/><path d="M727.09,20h-4.17V17.63H734V20h-4.1V35.13h-2.79Z" fill="#3b4351"/><path d="M735.44,17.63h2.8v17.5h-2.8Z" fill="#3b4351"/><path d="M743.87,20h-4.16V17.63h11V20h-4.09V35.13h-2.8Z" fill="#3b4351"/><path d="M752.35,17.63h9.46V20h-6.67v4.85h6.27v2.36h-6.27v5.58H762v2.36h-9.65Z" fill="#3b4351"/><path d="M766.29,29.71v.44c0,2.13,1,3.21,2.87,3.21a2.5,2.5,0,0,0,2.64-2.55c0-1.83-.93-2.64-2.5-3.11L767.39,27c-2.55-1-3.65-2.3-3.65-4.8,0-3.19,2.18-4.95,5.44-4.95,4.48,0,5,2.79,5,4.6v.4h-2.79v-.37c0-1.59-.69-2.53-2.45-2.53a2.25,2.25,0,0,0-2.36,2.53c0,1.49.76,2.25,2.63,3l1.88.69c2.48.88,3.56,2.2,3.56,4.63,0,3.73-2.26,5.27-5.79,5.27-4.33,0-5.31-2.89-5.31-5.34v-.42Z" fill="#3b4351"/></g><g id="Egytians"><g id="large"><path d="M481.17,82.76H484v7h5.15v-7h2.79v17.5h-2.79V92.13H484v8.13h-2.79Z" fill="#3b4351"/><path d="M496.39,87.08l2.27,9.9h0l2.11-9.9h2.77L500,100.75c-1,3.6-1.86,4.09-4.6,4a4.76,4.76,0,0,1-1.06-.1v-2.11a3.2,3.2,0,0,0,.86.1c.91,0,1.5-.17,1.79-1l.34-1.07-3.75-13.48Z" fill="#3b4351"/><path d="M505.06,82.76h2.64v9.83h.05l4-5.51,3.06,0-4,5.1,4.49,8.11h-2.9l-3.23-6-1.5,1.81v4.19h-2.64Z" fill="#3b4351"/><path d="M522.09,90.92v-.34c0-1-.37-2-1.74-2-1.06,0-1.89.46-1.89,1.71,0,1.06.47,1.45,1.86,1.94l1.69.59c2,.66,2.87,1.71,2.87,3.8,0,2.81-2.08,4-4.73,4-3.33,0-4.34-1.54-4.34-4.09V96h2.36v.42c0,1.54.51,2.35,2.05,2.35s2.16-.73,2.16-1.93a1.91,1.91,0,0,0-1.45-1.94l-2.15-.76c-2-.66-2.82-1.69-2.82-3.8,0-2.47,1.77-3.63,4.51-3.63,3.36,0,4.12,2,4.12,3.61v.58Z" fill="#3b4351"/><path d="M526.32,93.67c0-4.12,1.08-6.94,4.91-6.94s4.92,2.82,4.92,6.94-1.27,6.93-4.92,6.93S526.32,97.79,526.32,93.67Zm4.91,5c1.93,0,2.27-1.61,2.27-5,0-2.92-.34-5-2.27-5s-2.26,2.06-2.26,5C529,97,529.34,98.64,531.23,98.64Z" fill="#3b4351"/><path d="M543.87,90.92v-.34c0-1-.37-2-1.74-2-1.06,0-1.89.46-1.89,1.71,0,1.06.47,1.45,1.86,1.94l1.69.59c2,.66,2.87,1.71,2.87,3.8,0,2.81-2.08,4-4.73,4-3.33,0-4.34-1.54-4.34-4.09V96H540v.42c0,1.54.51,2.35,2,2.35s2.16-.73,2.16-1.93a1.91,1.91,0,0,0-1.44-1.94l-2.16-.76c-2-.66-2.82-1.69-2.82-3.8,0-2.47,1.77-3.63,4.51-3.63,3.36,0,4.12,2,4.12,3.61v.58Z" fill="#3b4351"/><path d="M554.67,82.76h2.79v7.63h0l5.3-7.63h3.06l-5,7.38,5.59,10.12h-3.16L559,92.4l-1.55,2.2v5.66h-2.79Z" fill="#3b4351"/><path d="M567.34,82.57H570v2.65h-2.64Zm0,4.51H570v13.18h-2.64Z" fill="#3b4351"/><path d="M572.65,87.08h2.5v1.54h.08a3.79,3.79,0,0,1,3.38-1.89c2,0,3.28.91,3.28,3.58v10h-2.65v-9c0-1.77-.46-2.38-1.83-2.38-1.08,0-2.11.81-2.11,2.58v8.84h-2.65Z" fill="#3b4351"/><path d="M587.08,101.39A1.73,1.73,0,0,0,589,103a2.19,2.19,0,0,0,2.23-2.48V98.35h-.05a3.19,3.19,0,0,1-3,1.81c-3.07,0-4-3-4-6.64,0-2.89.44-6.79,4.19-6.79a2.91,2.91,0,0,1,2.89,2h0V87.08h2.5V99.62c0,3.21-1.37,5.15-4.92,5.15-3.93,0-4.37-2.3-4.37-3.38ZM589,98.06c2,0,2.28-2.6,2.28-4.68s-.27-4.54-2.11-4.54-2.23,2-2.23,4.41C586.89,95.51,587,98.06,589,98.06Z" fill="#3b4351"/><path d="M601.91,90.92v-.34c0-1-.37-2-1.74-2-1.06,0-1.89.46-1.89,1.71,0,1.06.47,1.45,1.86,1.94l1.69.59c2,.66,2.87,1.71,2.87,3.8,0,2.81-2.08,4-4.73,4-3.33,0-4.34-1.54-4.34-4.09V96H598v.42c0,1.54.51,2.35,2,2.35s2.16-.73,2.16-1.93a1.91,1.91,0,0,0-1.45-1.94l-2.15-.76c-2-.66-2.82-1.69-2.82-3.8,0-2.47,1.76-3.63,4.51-3.63,3.36,0,4.12,2,4.12,3.61v.58Z" fill="#3b4351"/></g><g id="small"><path d="M432.25,13.32h1.51v1.51h-1.51Zm0,2.58h1.51v7.54h-1.51Z" fill="#3b4351"/><path d="M438.54,18.1v-.2c0-.6-.21-1.16-1-1.16-.6,0-1.07.27-1.07,1s.26.83,1.06,1.11l1,.33a2,2,0,0,1,1.64,2.17c0,1.61-1.19,2.3-2.71,2.3-1.9,0-2.48-.88-2.48-2.34V21h1.35v.24c0,.88.29,1.34,1.18,1.34s1.23-.42,1.23-1.1a1.09,1.09,0,0,0-.83-1.11L436.65,20A2,2,0,0,1,435,17.78c0-1.42,1-2.08,2.58-2.08,1.91,0,2.35,1.12,2.35,2.06v.34Z" fill="#3b4351"/><path d="M444.68,13.32h1.52v1.51h-1.52Zm0,2.58h1.52v7.54h-1.52Z" fill="#3b4351"/><path d="M447.72,15.9h1.43v.88h0a2.18,2.18,0,0,1,1.94-1.08c1.14,0,1.87.52,1.87,2.05v5.69h-1.51V18.27c0-1-.27-1.36-1.05-1.36-.62,0-1.21.46-1.21,1.47v5.06h-1.51Z" fill="#3b4351"/><path d="M453.78,15.9h1V13.76h1.51V15.9h1.23V17h-1.23v4.5c0,.6.17.79.69.79a2.64,2.64,0,0,0,.54,0v1.12a4.56,4.56,0,0,1-1.21.13c-1,0-1.53-.29-1.53-1.82V17h-1Z" fill="#3b4351"/><path d="M458.35,15.9h1.51v1.18h0a1.86,1.86,0,0,1,1.75-1.38.87.87,0,0,1,.36.06V17.3a2.18,2.18,0,0,0-.63-.08c-.68,0-1.51.3-1.51,1.7v4.52h-1.51Z" fill="#3b4351"/><path d="M462.46,19.67c0-2.36.62-4,2.8-4s2.82,1.61,2.82,4-.73,4-2.82,4S462.46,22,462.46,19.67Zm2.8,2.84c1.11,0,1.31-.92,1.31-2.84,0-1.67-.2-2.85-1.31-2.85S464,18,464,19.67C464,21.59,464.19,22.51,465.26,22.51Z" fill="#3b4351"/><path d="M473.09,22.51h0a1.6,1.6,0,0,1-1.65,1.12c-1.75,0-2.47-1.48-2.47-4.06,0-3.35,1.18-3.87,2.33-3.87A1.74,1.74,0,0,1,473,16.78h0V13.43h1.51v10h-1.43Zm-1.37-5.6c-.86,0-1.18.7-1.18,2.73,0,1.71.21,2.79,1.28,2.79s1.27-1.05,1.27-2.68C473.09,17.94,472.89,16.91,471.72,16.91Z" fill="#3b4351"/><path d="M479.83,22.55h-.05a2.15,2.15,0,0,1-1.93,1.08c-1.12,0-1.88-.52-1.88-2.46V15.9h1.52v5.41c0,.84.36,1.12,1,1.12a1.17,1.17,0,0,0,1.23-1.26V15.9h1.51v7.54h-1.42Z" fill="#3b4351"/><path d="M487.79,20.69c-.11,1.81-.7,2.94-2.58,2.94-2.18,0-2.8-1.61-2.8-4s.62-4,2.8-4a2.44,2.44,0,0,1,2.6,2.71h-1.52c0-.7-.18-1.63-1.08-1.59-1.07,0-1.28,1.18-1.28,2.85s.21,2.84,1.28,2.84c.84,0,1.15-.69,1.15-1.82Z" fill="#3b4351"/><path d="M490.23,19.86v.44c0,1,.12,2.29,1.26,2.29s1.2-1.21,1.2-1.68h1.43a2.48,2.48,0,0,1-2.65,2.72c-1.23,0-2.76-.36-2.76-3.85,0-2,.44-4.08,2.79-4.08,2.1,0,2.66,1.28,2.66,3.36v.8Zm2.42-1v-.41c0-1-.31-1.68-1.16-1.68s-1.26,1-1.26,1.93v.16Z" fill="#3b4351"/><path d="M499.26,22.51h0a1.61,1.61,0,0,1-1.65,1.12c-1.76,0-2.47-1.48-2.47-4.06,0-3.35,1.18-3.87,2.33-3.87a1.74,1.74,0,0,1,1.7,1.08h0V13.43h1.52v10h-1.43Zm-1.38-5.6c-.85,0-1.17.7-1.17,2.73,0,1.71.21,2.79,1.27,2.79s1.28-1.05,1.28-2.68C499.26,17.94,499.06,16.91,497.88,16.91Z" fill="#3b4351"/><path d="M505.5,13.43H507v3.35h0a1.74,1.74,0,0,1,1.71-1.08c1.15,0,2.32.52,2.32,3.87,0,2.59-.71,4.06-2.46,4.06A1.62,1.62,0,0,1,507,22.51h0v.93H505.5Zm2.7,9c1.07,0,1.28-1.08,1.28-2.79,0-2-.33-2.73-1.18-2.73-1.18,0-1.37,1-1.37,2.84C506.93,21.38,507.17,22.43,508.2,22.43Z" fill="#3b4351"/><path d="M513.07,15.9l1.31,5.66h0l1.21-5.66h1.58l-2.07,7.82c-.6,2.05-1.07,2.33-2.64,2.29a3,3,0,0,1-.6-.05V24.75a2.05,2.05,0,0,0,.49.06c.52,0,.86-.1,1-.59l.2-.62-2.14-7.7Z" fill="#3b4351"/><path d="M521.46,13.32H523v1.51h-1.51Zm0,2.58H523v7.54h-1.51Z" fill="#3b4351"/><path d="M524.5,15.9h1.42v.88H526a2.17,2.17,0,0,1,1.93-1.08c1.15,0,1.88.52,1.88,2.05v5.69h-1.52V18.27c0-1-.26-1.36-1-1.36-.61,0-1.2.46-1.2,1.47v5.06H524.5Z" fill="#3b4351"/><path d="M530.6,15.9h1.62l1.32,5.94h0l1.19-5.94h1.61l-2,7.54h-1.76Z" fill="#3b4351"/><path d="M542,21.87c0,.28.17.53.39.53a.72.72,0,0,0,.25,0v1a1.55,1.55,0,0,1-.74.18c-.67,0-1.23-.27-1.27-1h0a1.94,1.94,0,0,1-1.88,1.11c-1.22,0-2-.66-2-2.11a2.07,2.07,0,0,1,1.75-2.37l1.18-.32c.55-.16.88-.31.88-1s-.24-1.12-1-1.12c-1,0-1.14.71-1.14,1.44h-1.43c0-1.61.66-2.48,2.65-2.48,1.33,0,2.39.52,2.39,1.85Zm-1.43-2.41a12.39,12.39,0,0,1-1.68.7,1.25,1.25,0,0,0-.62,1.22c0,.63.31,1.13.94,1.13.91,0,1.36-.67,1.36-1.79Z" fill="#3b4351"/><path d="M542.84,15.9h1V13.76h1.51V15.9h1.24V17h-1.24v4.5c0,.6.17.79.69.79a2.75,2.75,0,0,0,.55,0v1.12a4.64,4.64,0,0,1-1.22.13c-1,0-1.53-.29-1.53-1.82V17h-1Z" fill="#3b4351"/><path d="M547.47,13.32H549v1.51h-1.51Zm0,2.58H549v7.54h-1.51Z" fill="#3b4351"/><path d="M550.21,19.67c0-2.36.62-4,2.81-4s2.81,1.61,2.81,4-.73,4-2.81,4S550.21,22,550.21,19.67ZM553,22.51c1.1,0,1.3-.92,1.3-2.84,0-1.67-.2-2.85-1.3-2.85s-1.29,1.18-1.29,2.85C551.73,21.59,551.94,22.51,553,22.51Z" fill="#3b4351"/><path d="M557,15.9h1.43v.88h0a2.17,2.17,0,0,1,1.93-1.08c1.15,0,1.88.52,1.88,2.05v5.69h-1.51V18.27c0-1-.27-1.36-1-1.36-.62,0-1.21.46-1.21,1.47v5.06H557Z" fill="#3b4351"/><path d="M566.79,19.67c0-2.36.62-4,2.8-4s2.82,1.61,2.82,4-.73,4-2.82,4S566.79,22,566.79,19.67Zm2.8,2.84c1.11,0,1.3-.92,1.3-2.84,0-1.67-.19-2.85-1.3-2.85S568.3,18,568.3,19.67C568.3,21.59,568.51,22.51,569.59,22.51Z" fill="#3b4351"/><path d="M574,17h-1V15.9h1v-.7c0-1.42.68-1.88,1.92-1.88.32,0,.6,0,.82,0v1.17h-.42c-.56,0-.81.21-.81.71v.66h1.23V17h-1.23v6.42H574Z" fill="#3b4351"/><path d="M582.15,20.34v.25c0,1.22.54,1.84,1.64,1.84A1.44,1.44,0,0,0,585.3,21a1.68,1.68,0,0,0-1.43-1.78l-1.09-.38c-1.46-.56-2.09-1.31-2.09-2.74,0-1.82,1.25-2.83,3.11-2.83,2.56,0,2.83,1.59,2.83,2.63v.23H585v-.22c0-.91-.39-1.44-1.4-1.44a1.28,1.28,0,0,0-1.34,1.44c0,.86.43,1.29,1.5,1.7l1.08.39a2.55,2.55,0,0,1,2,2.65c0,2.13-1.29,3-3.31,3a2.74,2.74,0,0,1-3-3.05v-.24Z" fill="#3b4351"/><path d="M589.39,19.86v.44c0,1,.12,2.29,1.26,2.29s1.2-1.21,1.2-1.68h1.43a2.48,2.48,0,0,1-2.65,2.72c-1.23,0-2.76-.36-2.76-3.85,0-2,.44-4.08,2.79-4.08,2.1,0,2.66,1.28,2.66,3.36v.8Zm2.42-1v-.41c0-1-.31-1.68-1.16-1.68s-1.26,1-1.26,1.93v.16Z" fill="#3b4351"/><path d="M594.64,15.9h1.42v.88h.05a2.1,2.1,0,0,1,1.8-1.08,1.63,1.63,0,0,1,1.75,1.15,2.07,2.07,0,0,1,1.91-1.15c1.06,0,1.83.55,1.83,2v5.73h-1.51V18.27c0-1-.29-1.36-.91-1.36s-1.2.47-1.2,1.47v5.06h-1.52V18.27c0-1-.29-1.36-.92-1.36s-1.19.49-1.19,1.47v5.06h-1.51Z" fill="#3b4351"/><path d="M605,13.32h1.51v1.51H605Zm0,2.58h1.51v7.54H605Z" fill="#3b4351"/><path d="M607.36,15.9h1V13.76h1.51V15.9h1.23V17h-1.23v4.5c0,.6.17.79.69.79a2.7,2.7,0,0,0,.54,0v1.12a4.64,4.64,0,0,1-1.22.13c-1,0-1.52-.29-1.52-1.82V17h-1Z" fill="#3b4351"/><path d="M612,13.32h1.51v1.51H612Zm0,2.58h1.51v7.54H612Z" fill="#3b4351"/><path d="M620.12,20.69c-.11,1.81-.7,2.94-2.58,2.94-2.18,0-2.8-1.61-2.8-4s.62-4,2.8-4a2.44,2.44,0,0,1,2.59,2.71h-1.51c0-.7-.18-1.63-1.08-1.59-1.08,0-1.29,1.18-1.29,2.85s.21,2.84,1.29,2.84c.84,0,1.15-.69,1.15-1.82Z" fill="#3b4351"/><path d="M424.55,50.43h1.95l2.9,7.46h0V50.43h1.52v10H429l-2.9-7.65h0v7.65h-1.51Z" fill="#3b4351"/><path d="M432.19,56.67c0-2.36.62-4,2.81-4s2.81,1.61,2.81,4-.73,4-2.81,4S432.19,59,432.19,56.67ZM435,59.51c1.1,0,1.3-.92,1.3-2.84,0-1.67-.2-2.85-1.3-2.85s-1.29,1.18-1.29,2.85C433.71,58.59,433.92,59.51,435,59.51Z" fill="#3b4351"/><path d="M439,52.9h1.43v.88h0a2.12,2.12,0,0,1,1.81-1.08,1.64,1.64,0,0,1,1.75,1.15A2,2,0,0,1,446,52.7c1.07,0,1.84.55,1.84,2v5.73H446.3V55.27c0-1-.3-1.36-.91-1.36s-1.21.47-1.21,1.47v5.06h-1.51V55.27c0-1-.3-1.36-.93-1.36s-1.19.49-1.19,1.47v5.06H439Z" fill="#3b4351"/><path d="M454.27,58.87c0,.28.17.53.4.53a.76.76,0,0,0,.25,0v1a1.58,1.58,0,0,1-.74.18c-.68,0-1.24-.27-1.28-1h0A1.93,1.93,0,0,1,451,60.63c-1.22,0-2-.66-2-2.11a2.07,2.07,0,0,1,1.75-2.37l1.17-.32c.55-.16.89-.31.89-1s-.24-1.12-1-1.12c-1,0-1.15.71-1.15,1.44h-1.43c0-1.61.66-2.48,2.65-2.48,1.33,0,2.39.52,2.39,1.85Zm-1.42-2.41a12,12,0,0,1-1.69.7,1.24,1.24,0,0,0-.61,1.22c0,.63.31,1.13.94,1.13.91,0,1.36-.67,1.36-1.79Z" fill="#3b4351"/><path d="M459.66,59.51h0A1.62,1.62,0,0,1,458,60.63c-1.75,0-2.46-1.48-2.46-4.06,0-3.35,1.17-3.87,2.32-3.87a1.74,1.74,0,0,1,1.71,1.08h0V50.43h1.51v10h-1.43Zm-1.37-5.6c-.85,0-1.18.7-1.18,2.73,0,1.71.21,2.79,1.28,2.79s1.27-1,1.27-2.68C459.66,54.94,459.47,53.91,458.29,53.91Z" fill="#3b4351"/><path d="M465.79,55.1v-.2c0-.6-.21-1.16-1-1.16-.6,0-1.08.27-1.08,1s.27.83,1.07,1.11l1,.33a2,2,0,0,1,1.64,2.17c0,1.61-1.19,2.3-2.7,2.3-1.91,0-2.48-.88-2.48-2.34V58h1.34v.24c0,.88.3,1.34,1.18,1.34s1.23-.42,1.23-1.1a1.09,1.09,0,0,0-.82-1.11L463.9,57a2,2,0,0,1-1.61-2.17c0-1.42,1-2.08,2.58-2.08,1.92,0,2.35,1.12,2.35,2.06v.34Z" fill="#3b4351"/><path d="M474.77,50.43a11.84,11.84,0,0,0-1.6,6.29,12.23,12.23,0,0,0,1.6,6.29h-1.08a10.7,10.7,0,0,1,0-12.58Z" fill="#3b4351"/><path d="M475.59,50.43h3.24c1.5,0,2.69.68,2.69,2.43a2.11,2.11,0,0,1-1.47,2.27v0c1.09.2,1.79.86,1.79,2.55s-1.2,2.74-3.08,2.74h-3.17Zm2.86,4.22a1.4,1.4,0,0,0,1.47-1.58c0-1.19-.71-1.43-1.61-1.43h-1.12v3Zm.32,4.58c1,0,1.47-.6,1.47-1.76a1.52,1.52,0,0,0-1.57-1.7h-1.48v3.46Z" fill="#3b4351"/><path d="M484.32,56.86v.44c0,1,.12,2.29,1.26,2.29s1.2-1.21,1.2-1.68h1.43a2.48,2.48,0,0,1-2.65,2.72c-1.23,0-2.76-.36-2.76-3.85,0-2,.44-4.08,2.79-4.08,2.1,0,2.66,1.28,2.66,3.36v.8Zm2.42-1v-.41c0-1-.31-1.68-1.16-1.68s-1.26.95-1.26,1.93v.16Z" fill="#3b4351"/><path d="M493.35,59.51h0a1.61,1.61,0,0,1-1.65,1.12c-1.76,0-2.47-1.48-2.47-4.06,0-3.35,1.18-3.87,2.33-3.87a1.74,1.74,0,0,1,1.7,1.08h0V50.43h1.52v10h-1.43ZM492,53.91c-.85,0-1.17.7-1.17,2.73,0,1.71.21,2.79,1.27,2.79s1.28-1,1.28-2.68C493.35,54.94,493.15,53.91,492,53.91Z" fill="#3b4351"/><path d="M495.93,56.67c0-2.36.62-4,2.81-4s2.81,1.61,2.81,4-.73,4-2.81,4S495.93,59,495.93,56.67Zm2.81,2.84c1.1,0,1.3-.92,1.3-2.84,0-1.67-.2-2.85-1.3-2.85s-1.29,1.18-1.29,2.85C497.45,58.59,497.66,59.51,498.74,59.51Z" fill="#3b4351"/><path d="M506.56,59.55h0a2.15,2.15,0,0,1-1.93,1.08c-1.12,0-1.88-.52-1.88-2.46V52.9h1.51v5.41c0,.84.37,1.12,1,1.12a1.18,1.18,0,0,0,1.23-1.26V52.9H508v7.54h-1.43Z" fill="#3b4351"/><path d="M509.51,50.32H511v1.51h-1.52Zm0,2.58H511v7.54h-1.52Z" fill="#3b4351"/><path d="M512.55,52.9H514v.88h0A2.18,2.18,0,0,1,516,52.7c1.14,0,1.87.52,1.87,2v5.69h-1.51V55.27c0-1-.27-1.36-1.05-1.36-.62,0-1.2.46-1.2,1.47v5.06h-1.52Z" fill="#3b4351"/><path d="M518.56,63a11.81,11.81,0,0,0,1.59-6.29,12.24,12.24,0,0,0-1.59-6.29h1.08a10.7,10.7,0,0,1,0,12.58Z" fill="#3b4351"/><path d="M525.75,52.9h1.57l1,5.94h0l1.12-5.94h1.71l1.12,5.94h0l1-5.94h1.51l-1.72,7.54h-1.7l-1.18-5.86h0l-1.08,5.86h-1.77Z" fill="#3b4351"/><path d="M535.86,50.43h1.51v3.28l0,0a2.14,2.14,0,0,1,1.85-1c1.14,0,1.87.52,1.87,2v5.69h-1.51V55.27c0-1-.28-1.36-1-1.36s-1.21.47-1.21,1.47v5.06h-1.51Z" fill="#3b4351"/><path d="M542.3,56.67c0-2.36.62-4,2.8-4s2.82,1.61,2.82,4-.73,4-2.82,4S542.3,59,542.3,56.67Zm2.8,2.84c1.11,0,1.31-.92,1.31-2.84,0-1.67-.2-2.85-1.31-2.85s-1.29,1.18-1.29,2.85C543.81,58.59,544,59.51,545.1,59.51Z" fill="#3b4351"/><path d="M552.44,52.9H554v1.18h0a1.86,1.86,0,0,1,1.75-1.38.87.87,0,0,1,.36.06V54.3a2.18,2.18,0,0,0-.63-.08c-.68,0-1.51.3-1.51,1.7v4.52h-1.51Z" fill="#3b4351"/><path d="M560.7,59.55h0a2.16,2.16,0,0,1-1.94,1.08c-1.12,0-1.87-.52-1.87-2.46V52.9h1.51v5.41c0,.84.36,1.12,1,1.12a1.18,1.18,0,0,0,1.24-1.26V52.9h1.51v7.54H560.7Z" fill="#3b4351"/><path d="M563.65,50.43h1.51v10h-1.51Z" fill="#3b4351"/><path d="M568,56.86v.44c0,1,.13,2.29,1.26,2.29s1.21-1.21,1.21-1.68h1.43a2.48,2.48,0,0,1-2.65,2.72c-1.23,0-2.76-.36-2.76-3.85,0-2,.43-4.08,2.79-4.08,2.1,0,2.66,1.28,2.66,3.36v.8Zm2.43-1v-.41c0-1-.31-1.68-1.17-1.68s-1.26.95-1.26,1.93v.16Z" fill="#3b4351"/><path d="M337.11,87.43h5.4v1.35H338.7v2.77h3.59V92.9H338.7v3.19h3.93v1.35h-5.52Z" fill="#3b4351"/><path d="M345.26,98.08a1,1,0,0,0,1.09.9,1.25,1.25,0,0,0,1.27-1.42V96.34h0a1.82,1.82,0,0,1-1.7,1c-1.76,0-2.26-1.72-2.26-3.8,0-1.65.25-3.88,2.4-3.88a1.67,1.67,0,0,1,1.65,1.12h0V89.9h1.43v7.17c0,1.84-.79,2.94-2.82,2.94-2.24,0-2.49-1.31-2.49-1.93Zm1.06-1.91c1.18,0,1.3-1.48,1.3-2.67s-.15-2.59-1.2-2.59-1.28,1.12-1.28,2.52S345.2,96.17,346.32,96.17Z" fill="#3b4351"/><path d="M351.48,89.9l1.31,5.66h0L354,89.9h1.58l-2.07,7.82c-.6,2-1.06,2.33-2.63,2.29a3.14,3.14,0,0,1-.61-.05V98.75a2.12,2.12,0,0,0,.49.06c.52,0,.86-.1,1-.59l.19-.62-2.14-7.7Z" fill="#3b4351"/><path d="M359.69,97.63A1.72,1.72,0,0,1,358,96.55h0V99.9h-1.51v-10h1.43v.92h0a1.78,1.78,0,0,1,1.69-1.12c1.72,0,2.43,1.47,2.43,4.07C362,96.93,360.74,97.63,359.69,97.63Zm-.55-6.72c-1,0-1.27,1-1.27,2.67,0,1.81.22,2.85,1.29,2.85.85,0,1.26-.65,1.26-2.74C360.42,92,360.21,90.91,359.14,90.91Z" fill="#3b4351"/><path d="M362.5,89.9h1V87.76h1.51V89.9h1.23V91h-1.23v4.5c0,.6.17.79.69.79a2.7,2.7,0,0,0,.54,0v1.12a4.56,4.56,0,0,1-1.21.13c-1,0-1.53-.29-1.53-1.82V91h-1Z" fill="#3b4351"/><path d="M374.28,96.55h0a2.16,2.16,0,0,1-1.94,1.08c-1.12,0-1.87-.52-1.87-2.46V89.9h1.51v5.41c0,.84.36,1.12,1,1.12a1.17,1.17,0,0,0,1.23-1.26V89.9h1.52v7.54h-1.43Z" fill="#3b4351"/><path d="M377.16,89.9h1.43v.88h0a2.17,2.17,0,0,1,1.93-1.08c1.15,0,1.88.52,1.88,2v5.69h-1.51V92.27c0-1-.27-1.36-1.05-1.36-.62,0-1.21.46-1.21,1.47v5.06h-1.51Z" fill="#3b4351"/><path d="M387.75,96.51h0a1.61,1.61,0,0,1-1.66,1.12c-1.75,0-2.46-1.48-2.46-4.06,0-3.35,1.18-3.87,2.32-3.87a1.74,1.74,0,0,1,1.71,1.08h0V87.43h1.51v10h-1.42Zm-1.38-5.6c-.85,0-1.17.7-1.17,2.73,0,1.71.21,2.79,1.27,2.79s1.28-1.05,1.28-2.68C387.75,91.94,387.55,90.91,386.37,90.91Z" fill="#3b4351"/><path d="M391.93,93.86v.44c0,1,.13,2.29,1.26,2.29s1.21-1.21,1.21-1.68h1.42a2.47,2.47,0,0,1-2.64,2.72c-1.24,0-2.76-.36-2.76-3.85,0-2,.43-4.08,2.78-4.08,2.11,0,2.67,1.28,2.67,3.36v.8Zm2.42-1v-.41c0-1-.3-1.68-1.16-1.68s-1.26,1-1.26,1.93v.16Z" fill="#3b4351"/><path d="M397.11,89.9h1.51v1.18h0a1.88,1.88,0,0,1,1.75-1.38.92.92,0,0,1,.37.06V91.3a2.3,2.3,0,0,0-.63-.08c-.69,0-1.52.3-1.52,1.7v4.52h-1.51Z" fill="#3b4351"/><path d="M404.21,89.9h1V87.76h1.52V89.9H408V91h-1.23v4.5c0,.6.16.79.68.79a2.75,2.75,0,0,0,.55,0v1.12a4.64,4.64,0,0,1-1.22.13c-1,0-1.53-.29-1.53-1.82V91h-1Z" fill="#3b4351"/><path d="M408.77,87.43h1.51v3.28l.05,0a2.14,2.14,0,0,1,1.85-1c1.14,0,1.87.52,1.87,2v5.69h-1.51V92.27c0-1-.28-1.36-1.05-1.36s-1.21.47-1.21,1.47v5.06h-1.51Z" fill="#3b4351"/><path d="M416.81,93.86v.44c0,1,.12,2.29,1.26,2.29s1.2-1.21,1.2-1.68h1.43a2.48,2.48,0,0,1-2.65,2.72c-1.23,0-2.76-.36-2.76-3.85,0-2,.44-4.08,2.79-4.08,2.1,0,2.66,1.28,2.66,3.36v.8Zm2.42-1v-.41c0-1-.31-1.68-1.16-1.68s-1.26,1-1.26,1.93v.16Z" fill="#3b4351"/><path d="M425.35,89.9h1.43v.88h0a2.17,2.17,0,0,1,1.93-1.08c1.15,0,1.88.52,1.88,2v5.69h-1.51V92.27c0-1-.27-1.36-1.06-1.36-.61,0-1.2.46-1.2,1.47v5.06h-1.51Z" fill="#3b4351"/><path d="M437,95.87c0,.28.16.53.39.53a.76.76,0,0,0,.25,0v1a1.58,1.58,0,0,1-.74.18c-.67,0-1.24-.27-1.28-1h0a1.93,1.93,0,0,1-1.87,1.11c-1.22,0-2-.66-2-2.11a2.07,2.07,0,0,1,1.75-2.37l1.17-.32c.55-.16.89-.31.89-1s-.24-1.12-1-1.12c-1,0-1.15.71-1.15,1.44H432c0-1.61.66-2.48,2.65-2.48,1.33,0,2.4.52,2.4,1.85Zm-1.43-2.41a12.39,12.39,0,0,1-1.68.7,1.23,1.23,0,0,0-.62,1.22c0,.63.31,1.13.94,1.13.91,0,1.36-.67,1.36-1.79Z" fill="#3b4351"/><path d="M438.63,89.9h1.43v.88h0a2.13,2.13,0,0,1,1.81-1.08,1.63,1.63,0,0,1,1.75,1.15,2.07,2.07,0,0,1,1.91-1.15c1.06,0,1.83.55,1.83,2v5.73h-1.51V92.27c0-1-.3-1.36-.91-1.36s-1.21.47-1.21,1.47v5.06h-1.51V92.27c0-1-.29-1.36-.92-1.36s-1.19.49-1.19,1.47v5.06h-1.52Z" fill="#3b4351"/><path d="M450.23,93.86v.44c0,1,.12,2.29,1.26,2.29s1.2-1.21,1.2-1.68h1.43a2.48,2.48,0,0,1-2.65,2.72c-1.23,0-2.76-.36-2.76-3.85,0-2,.44-4.08,2.79-4.08,2.1,0,2.66,1.28,2.66,3.36v.8Zm2.42-1v-.41c0-1-.31-1.68-1.16-1.68s-1.26,1-1.26,1.93v.16Z" fill="#3b4351"/><path d="M458.47,93.67c0-2.36.62-4,2.8-4s2.82,1.61,2.82,4-.73,4-2.82,4S458.47,96,458.47,93.67Zm2.8,2.84c1.11,0,1.3-.92,1.3-2.84,0-1.67-.19-2.85-1.3-2.85S460,92,460,93.67C460,95.59,460.19,96.51,461.27,96.51Z" fill="#3b4351"/><path d="M465.71,91h-1V89.9h1v-.7c0-1.42.68-1.88,1.92-1.88.32,0,.6,0,.82,0v1.17H468c-.56,0-.81.21-.81.71v.66h1.23V91h-1.23v6.42h-1.51Z" fill="#3b4351"/></g></g><g id="Ageans"><g id="Title"><g id="small-2" data-name="small"><path d="M114.76,9.5h-1.05V8.38h1.05v-.7c0-1.41.69-1.88,1.92-1.88a6.2,6.2,0,0,1,.82,0V7h-.42c-.56,0-.81.21-.81.71v.66h1.23V9.5h-1.23v6.42h-1.51Z"/><path d="M123.13,14.35c0,.28.17.53.4.53a.57.57,0,0,0,.25,0v1A1.58,1.58,0,0,1,123,16c-.68,0-1.24-.26-1.28-1h0a1.94,1.94,0,0,1-1.87,1.1c-1.22,0-2-.65-2-2.11a2.09,2.09,0,0,1,1.76-2.37l1.17-.32c.55-.16.88-.31.88-1s-.23-1.12-1-1.12c-1,0-1.15.72-1.15,1.44h-1.43c0-1.61.66-2.47,2.65-2.47,1.33,0,2.39.51,2.39,1.84Zm-1.43-2.41a10.81,10.81,0,0,1-1.68.7,1.24,1.24,0,0,0-.61,1.22c0,.63.31,1.13.94,1.13.91,0,1.35-.67,1.35-1.79Z"/><path d="M124.67,5.92h1.51V9.26h0a1.74,1.74,0,0,1,1.71-1.07c1.15,0,2.33.51,2.33,3.86,0,2.59-.72,4.06-2.47,4.06A1.61,1.61,0,0,1,126.13,15h0v.93h-1.43Zm2.7,9c1.07,0,1.28-1.08,1.28-2.79,0-2-.32-2.73-1.18-2.73-1.17,0-1.37,1-1.37,2.84C126.1,13.86,126.34,14.91,127.37,14.91Z"/><path d="M131.48,5.92H133v10h-1.51Z"/><path d="M135.82,12.35v.43c0,1,.12,2.3,1.26,2.3s1.2-1.22,1.2-1.68h1.43a2.48,2.48,0,0,1-2.65,2.71c-1.23,0-2.76-.36-2.76-3.85,0-2,.44-4.07,2.79-4.07,2.1,0,2.66,1.27,2.66,3.36v.8Zm2.42-1V10.9c0-1-.31-1.68-1.16-1.68s-1.26.95-1.26,1.93v.16Z"/><path d="M144.06,12.15c0-2.35.62-4,2.8-4s2.82,1.61,2.82,4-.73,4-2.82,4S144.06,14.5,144.06,12.15Zm2.8,2.84c1.11,0,1.3-.92,1.3-2.84,0-1.67-.19-2.84-1.3-2.84s-1.29,1.17-1.29,2.84C145.57,14.07,145.78,15,146.86,15Z"/><path d="M151.3,9.5h-1.05V8.38h1.05v-.7c0-1.41.68-1.88,1.92-1.88a6.2,6.2,0,0,1,.82,0V7h-.42c-.56,0-.81.21-.81.71v.66H154V9.5h-1.23v6.42H151.3Z"/><path d="M157.42,8.38h1V6.24H160V8.38h1.23V9.5H160V14c0,.6.16.8.68.8a2.64,2.64,0,0,0,.55-.05v1.13A5.17,5.17,0,0,1,160,16c-1,0-1.53-.29-1.53-1.82V9.5h-1Z"/><path d="M162,5.92h1.51V9.19l0,0a2.12,2.12,0,0,1,1.84-1c1.15,0,1.88.51,1.88,2v5.69h-1.51V10.75c0-1-.28-1.36-1.05-1.36-.62,0-1.21.48-1.21,1.47v5.06H162Z"/><path d="M170,12.35v.43c0,1,.12,2.3,1.26,2.3s1.2-1.22,1.2-1.68h1.43a2.48,2.48,0,0,1-2.65,2.71c-1.23,0-2.76-.36-2.76-3.85,0-2,.44-4.07,2.79-4.07,2.1,0,2.66,1.27,2.66,3.36v.8Zm2.42-1V10.9c0-1-.31-1.68-1.16-1.68s-1.26.95-1.26,1.93v.16Z"/><path d="M178.65,5.92h2.5l1.76,7.41h0l1.74-7.41h2.43v10H185.6V7.6h0l-2,8.32h-1.35l-2-8.32h0v8.32h-1.52Z"/><path d="M188.73,5.8h1.52V7.32h-1.52Zm0,2.58h1.52v7.54h-1.52Z"/><path d="M191.77,8.38h1.43v.88h0a2.17,2.17,0,0,1,1.94-1.07c1.14,0,1.87.51,1.87,2v5.69h-1.51V10.75c0-1-.27-1.36-1-1.36-.62,0-1.21.46-1.21,1.47v5.06h-1.51Z"/><path d="M198.21,12.15c0-2.35.62-4,2.8-4s2.82,1.61,2.82,4-.73,4-2.82,4S198.21,14.5,198.21,12.15ZM201,15c1.11,0,1.31-.92,1.31-2.84,0-1.67-.2-2.84-1.31-2.84s-1.28,1.17-1.28,2.84C199.73,14.07,199.93,15,201,15Z"/><path d="M204.32,8.38h1V6.24h1.51V8.38h1.24V9.5h-1.24V14c0,.6.17.8.69.8a2.64,2.64,0,0,0,.55-.05v1.13a5.17,5.17,0,0,1-1.22.12c-1,0-1.53-.29-1.53-1.82V9.5h-1Z"/><path d="M213.82,14.35c0,.28.17.53.4.53a.57.57,0,0,0,.25,0v1a1.58,1.58,0,0,1-.74.18c-.68,0-1.24-.26-1.28-1h0a1.94,1.94,0,0,1-1.87,1.1c-1.22,0-2-.65-2-2.11a2.08,2.08,0,0,1,1.75-2.37l1.17-.32c.55-.16.89-.31.89-1s-.24-1.12-1-1.12c-1,0-1.15.72-1.15,1.44h-1.43c0-1.61.66-2.47,2.65-2.47,1.33,0,2.39.51,2.39,1.84Zm-1.42-2.41a11.23,11.23,0,0,1-1.68.7,1.23,1.23,0,0,0-.62,1.22c0,.63.31,1.13.94,1.13.91,0,1.36-.67,1.36-1.79Z"/><path d="M219.21,15h0a2.16,2.16,0,0,1-1.93,1.07c-1.12,0-1.88-.51-1.88-2.46V8.38h1.51v5.41c0,.84.37,1.12,1,1.12a1.17,1.17,0,0,0,1.23-1.26V8.38h1.51v7.54h-1.43Z"/><path d="M222.1,8.38h1.51V9.56h0a1.85,1.85,0,0,1,1.75-1.37.89.89,0,0,1,.36.05V9.78a2.18,2.18,0,0,0-.63-.08c-.69,0-1.51.31-1.51,1.71v4.51H222.1Z"/><path d="M225.37,14.07H227v1.85h-1.6Z"/><path d="M232,5.92h3.16c1.92,0,2.76,1.2,2.76,2.91a2.72,2.72,0,0,1-2.93,3h-1.4v4.13H232Zm1.59,4.66h1.14a1.5,1.5,0,0,0,1.59-1.72c0-1.08-.43-1.74-1.71-1.74h-1Z"/><path d="M238.64,12.15c0-2.35.62-4,2.8-4s2.82,1.61,2.82,4-.73,4-2.82,4S238.64,14.5,238.64,12.15Zm2.8,2.84c1.11,0,1.31-.92,1.31-2.84,0-1.67-.2-2.84-1.31-2.84s-1.28,1.17-1.28,2.84C240.16,14.07,240.37,15,241.44,15Z"/><path d="M245.49,5.92H247v10h-1.51Z"/><path d="M249.54,8.38l1.3,5.66h0l1.2-5.66h1.58l-2.07,7.82c-.6,2.06-1.06,2.34-2.63,2.29a3,3,0,0,1-.6,0V17.23a1.61,1.61,0,0,0,.49.06c.51,0,.85-.1,1-.59l.19-.61-2.14-7.71Z"/><path d="M259.58,13.17c-.12,1.81-.7,2.94-2.58,2.94-2.19,0-2.8-1.61-2.8-4s.61-4,2.8-4a2.43,2.43,0,0,1,2.59,2.7h-1.51c0-.7-.19-1.63-1.08-1.58-1.08,0-1.29,1.17-1.29,2.84S255.92,15,257,15c.84,0,1.15-.68,1.15-1.82Z"/><path d="M260.62,5.92h1.52V9.19l0,0a2.13,2.13,0,0,1,1.85-1c1.15,0,1.87.51,1.87,2v5.69h-1.51V10.75c0-1-.28-1.36-1.05-1.36-.62,0-1.2.48-1.2,1.47v5.06h-1.52Z"/><path d="M267.36,8.38h1.51V9.56h0a1.85,1.85,0,0,1,1.75-1.37.89.89,0,0,1,.36.05V9.78a2.18,2.18,0,0,0-.63-.08c-.68,0-1.51.31-1.51,1.71v4.51h-1.51Z"/><path d="M271.47,12.15c0-2.35.62-4,2.8-4s2.82,1.61,2.82,4-.73,4-2.82,4S271.47,14.5,271.47,12.15Zm2.8,2.84c1.11,0,1.31-.92,1.31-2.84,0-1.67-.2-2.84-1.31-2.84S273,10.48,273,12.15C273,14.07,273.19,15,274.27,15Z"/><path d="M278.32,8.38h1.43v.88h0a2.11,2.11,0,0,1,1.81-1.07,1.64,1.64,0,0,1,1.75,1.14,2.06,2.06,0,0,1,1.9-1.14c1.07,0,1.84.54,1.84,2v5.73h-1.52V10.75c0-1-.29-1.36-.91-1.36s-1.2.48-1.2,1.47v5.06H282V10.75c0-1-.3-1.36-.93-1.36s-1.19.49-1.19,1.47v5.06h-1.51Z"/><path d="M289.91,12.35v.43c0,1,.13,2.3,1.26,2.3s1.21-1.22,1.21-1.68h1.43a2.48,2.48,0,0,1-2.65,2.71c-1.24,0-2.76-.36-2.76-3.85,0-2,.43-4.07,2.78-4.07,2.11,0,2.67,1.27,2.67,3.36v.8Zm2.42-1V10.9c0-1-.3-1.68-1.16-1.68s-1.26.95-1.26,1.93v.16Z"/><path d="M301.7,16.11A1.73,1.73,0,0,1,300,15h0v3.34h-1.51v-10h1.43v.93h0a1.76,1.76,0,0,1,1.69-1.12c1.72,0,2.42,1.47,2.42,4.06C304,15.41,302.75,16.11,301.7,16.11Zm-.55-6.72c-1,0-1.27,1-1.27,2.68,0,1.8.22,2.84,1.29,2.84.85,0,1.26-.65,1.26-2.73C302.43,10.47,302.22,9.39,301.15,9.39Z"/><path d="M304.89,12.15c0-2.35.62-4,2.8-4s2.82,1.61,2.82,4-.73,4-2.82,4S304.89,14.5,304.89,12.15Zm2.8,2.84c1.11,0,1.3-.92,1.3-2.84,0-1.67-.19-2.84-1.3-2.84s-1.29,1.17-1.29,2.84C306.4,14.07,306.61,15,307.69,15Z"/><path d="M311,8.38h1V6.24h1.51V8.38h1.23V9.5h-1.23V14c0,.6.17.8.69.8a2.54,2.54,0,0,0,.54-.05v1.13a5.08,5.08,0,0,1-1.21.12c-1,0-1.53-.29-1.53-1.82V9.5h-1Z"/><path d="M314.89,8.38h1V6.24h1.51V8.38h1.24V9.5h-1.24V14c0,.6.17.8.69.8a2.64,2.64,0,0,0,.55-.05v1.13a5.17,5.17,0,0,1-1.22.12c-1,0-1.53-.29-1.53-1.82V9.5h-1Z"/><path d="M320.75,12.35v.43c0,1,.13,2.3,1.26,2.3s1.21-1.22,1.21-1.68h1.43A2.48,2.48,0,0,1,322,16.11c-1.23,0-2.76-.36-2.76-3.85,0-2,.43-4.07,2.79-4.07,2.1,0,2.66,1.27,2.66,3.36v.8Zm2.43-1V10.9c0-1-.31-1.68-1.17-1.68s-1.26.95-1.26,1.93v.16Z"/><path d="M325.93,8.38h1.51V9.56h0a1.87,1.87,0,0,1,1.75-1.37.94.94,0,0,1,.37.05V9.78A2.24,2.24,0,0,0,329,9.7c-.69,0-1.52.31-1.52,1.71v4.51h-1.51Z"/><path d="M331.6,8.38,332.9,14h0l1.21-5.66h1.58l-2.07,7.82c-.61,2.06-1.07,2.34-2.64,2.29a3,3,0,0,1-.6,0V17.23a1.65,1.65,0,0,0,.49.06c.52,0,.86-.1,1-.59l.2-.61L330,8.38Z"/><path d="M335.68,14.07h1.59v1.85h-1.59Z"/><path d="M101.83,45.33v.21c0,1.81-.74,3.58-3.08,3.58-2.52,0-3.31-1.63-3.31-5.2s.79-5.2,3.32-5.2c2.85,0,3,2.09,3,3.14V42h-1.6v-.17c0-.93-.28-2-1.43-1.94s-1.71.72-1.71,4,.52,4,1.71,4c1.34,0,1.48-1.47,1.48-2.41v-.17Z"/><path d="M102.85,41.38h1.43v.89h0a2.15,2.15,0,0,1,1.93-1.08c1.15,0,1.88.52,1.88,2v5.69h-1.51V43.75c0-1-.27-1.36-1.05-1.36-.62,0-1.21.46-1.21,1.47v5.06h-1.51Z"/><path d="M109.29,45.15c0-2.35.62-4,2.8-4s2.82,1.61,2.82,4-.73,4-2.82,4S109.29,47.5,109.29,45.15Zm2.8,2.85c1.11,0,1.3-.93,1.3-2.85,0-1.67-.19-2.84-1.3-2.84s-1.29,1.17-1.29,2.84C110.8,47.07,111,48,112.09,48Z"/><path d="M119.32,43.58v-.19c0-.61-.21-1.17-1-1.17-.6,0-1.08.27-1.08,1s.27.83,1.07,1.11l1,.34a2,2,0,0,1,1.64,2.17c0,1.61-1.19,2.3-2.7,2.3-1.91,0-2.48-.89-2.48-2.34V46.5h1.34v.23c0,.89.3,1.35,1.18,1.35s1.23-.42,1.23-1.11a1.09,1.09,0,0,0-.82-1.1l-1.24-.44a2,2,0,0,1-1.61-2.17c0-1.41,1-2.07,2.58-2.07,1.92,0,2.35,1.12,2.35,2.06v.33Z"/><path d="M125.28,43.58v-.19c0-.61-.21-1.17-1-1.17-.6,0-1.07.27-1.07,1s.26.83,1.06,1.11l1,.34a2,2,0,0,1,1.64,2.17c0,1.61-1.19,2.3-2.71,2.3-1.9,0-2.48-.89-2.48-2.34V46.5H123v.23c0,.89.29,1.35,1.17,1.35s1.24-.42,1.24-1.11a1.09,1.09,0,0,0-.83-1.1l-1.23-.44a2,2,0,0,1-1.61-2.17c0-1.41,1-2.07,2.57-2.07,1.92,0,2.36,1.12,2.36,2.06v.33Z"/><path d="M131.85,48h0a2.15,2.15,0,0,1-1.93,1.08c-1.12,0-1.88-.52-1.88-2.47V41.38h1.52v5.41c0,.84.36,1.12,1,1.12a1.17,1.17,0,0,0,1.23-1.26V41.38h1.51v7.54h-1.42Z"/><path d="M138,43.58v-.19c0-.61-.21-1.17-1-1.17-.6,0-1.08.27-1.08,1s.27.83,1.07,1.11l1,.34a2,2,0,0,1,1.64,2.17c0,1.61-1.19,2.3-2.7,2.3-1.9,0-2.48-.89-2.48-2.34V46.5h1.35v.23c0,.89.29,1.35,1.17,1.35s1.23-.42,1.23-1.11a1.08,1.08,0,0,0-.82-1.1l-1.23-.44a2,2,0,0,1-1.61-2.17c0-1.41,1-2.07,2.57-2.07,1.92,0,2.36,1.12,2.36,2.06v.33Z"/><path d="M147.9,48h0a1.6,1.6,0,0,1-1.65,1.12c-1.75,0-2.46-1.49-2.46-4.07,0-3.34,1.17-3.86,2.32-3.86a1.73,1.73,0,0,1,1.71,1.08h0V38.92h1.51v10H147.9Zm-1.37-5.61c-.85,0-1.18.7-1.18,2.73,0,1.71.21,2.79,1.28,2.79s1.27-1,1.27-2.67C147.9,43.43,147.71,42.39,146.53,42.39Z"/><path d="M152.09,45.35v.43c0,1,.12,2.3,1.26,2.3s1.2-1.22,1.2-1.68H156a2.48,2.48,0,0,1-2.65,2.72c-1.23,0-2.76-.37-2.76-3.86,0-2,.44-4.07,2.79-4.07,2.1,0,2.66,1.27,2.66,3.36v.8Zm2.42-1V43.9c0-.95-.31-1.68-1.16-1.68s-1.26,1-1.26,1.94v.15Z"/><path d="M160.52,43.58v-.19c0-.61-.21-1.17-1-1.17-.6,0-1.08.27-1.08,1s.27.83,1.07,1.11l1,.34a2,2,0,0,1,1.64,2.17c0,1.61-1.19,2.3-2.7,2.3-1.91,0-2.48-.89-2.48-2.34V46.5h1.35v.23c0,.89.29,1.35,1.17,1.35s1.23-.42,1.23-1.11a1.09,1.09,0,0,0-.82-1.1l-1.23-.44A2,2,0,0,1,157,43.26c0-1.41,1-2.07,2.58-2.07,1.92,0,2.36,1.12,2.36,2.06v.33Z"/><path d="M162.56,41.38h1V39.24h1.51v2.14h1.23V42.5h-1.23V47c0,.6.17.8.68.8a3.78,3.78,0,0,0,.55,0v1.12a5.17,5.17,0,0,1-1.22.12c-1,0-1.52-.29-1.52-1.82V42.5h-1Z"/><path d="M167.12,41.38h1.52v1.18h0a1.87,1.87,0,0,1,1.75-1.37.94.94,0,0,1,.37.05v1.54a2.24,2.24,0,0,0-.63-.08c-.69,0-1.51.31-1.51,1.71v4.51h-1.52Z"/><path d="M171.24,45.15c0-2.35.61-4,2.8-4s2.82,1.61,2.82,4-.73,4-2.82,4S171.24,47.5,171.24,45.15ZM174,48c1.11,0,1.3-.93,1.3-2.85,0-1.67-.19-2.84-1.3-2.84s-1.29,1.17-1.29,2.84C172.75,47.07,173,48,174,48Z"/><path d="M178.94,41.38l1.3,5.66h0l1.2-5.66h1.59L181,49.2c-.6,2.06-1.06,2.34-2.63,2.3a3.05,3.05,0,0,1-.6-.06v-1.2a2,2,0,0,0,.49,0c.52,0,.85-.1,1-.59l.2-.61-2.15-7.71Z"/><path d="M185.11,45.35v.43c0,1,.13,2.3,1.26,2.3s1.21-1.22,1.21-1.68H189a2.48,2.48,0,0,1-2.65,2.72c-1.23,0-2.76-.37-2.76-3.86,0-2,.43-4.07,2.79-4.07,2.1,0,2.66,1.27,2.66,3.36v.8Zm2.43-1V43.9c0-.95-.31-1.68-1.17-1.68s-1.26,1-1.26,1.94v.15Z"/><path d="M194.14,48h0a1.62,1.62,0,0,1-1.66,1.12c-1.75,0-2.46-1.49-2.46-4.07,0-3.34,1.17-3.86,2.32-3.86A1.73,1.73,0,0,1,194,42.27h0V38.92h1.51v10h-1.43Zm-1.37-5.61c-.85,0-1.17.7-1.17,2.73,0,1.71.21,2.79,1.27,2.79s1.27-1,1.27-2.67C194.14,43.43,194,42.39,192.77,42.39Z"/><path d="M197.18,47.07h1.6v1.85a1.88,1.88,0,0,1-1.6,2.16v-.82a1,1,0,0,0,.7-1.13v-.21h-.7Z"/><path d="M206.48,49.12A1.74,1.74,0,0,1,204.77,48h0v3.34h-1.51v-10h1.43v.93h0a1.8,1.8,0,0,1,1.7-1.12c1.72,0,2.42,1.47,2.42,4.06C208.8,48.42,207.53,49.12,206.48,49.12Zm-.55-6.73c-1,0-1.27,1-1.27,2.68,0,1.8.22,2.84,1.29,2.84.85,0,1.26-.64,1.26-2.73C207.21,43.47,207,42.39,205.93,42.39Z"/><path d="M209.67,45.15c0-2.35.61-4,2.8-4s2.82,1.61,2.82,4-.73,4-2.82,4S209.67,47.5,209.67,45.15Zm2.8,2.85c1.11,0,1.3-.93,1.3-2.85,0-1.67-.19-2.84-1.3-2.84s-1.29,1.17-1.29,2.84C211.18,47.07,211.39,48,212.47,48Z"/><path d="M219.69,43.58v-.19c0-.61-.21-1.17-1-1.17-.6,0-1.08.27-1.08,1s.27.83,1.07,1.11l1,.34a2,2,0,0,1,1.64,2.17c0,1.61-1.19,2.3-2.7,2.3-1.91,0-2.48-.89-2.48-2.34V46.5h1.34v.23c0,.89.3,1.35,1.18,1.35s1.23-.42,1.23-1.11a1.09,1.09,0,0,0-.82-1.1l-1.24-.44a2,2,0,0,1-1.61-2.17c0-1.41,1-2.07,2.58-2.07,1.92,0,2.35,1.12,2.35,2.06v.33Z"/><path d="M225.66,43.58v-.19c0-.61-.21-1.17-1-1.17-.6,0-1.08.27-1.08,1s.27.83,1.07,1.11l1,.34a2,2,0,0,1,1.63,2.17c0,1.61-1.19,2.3-2.7,2.3-1.9,0-2.48-.89-2.48-2.34V46.5h1.35v.23c0,.89.29,1.35,1.17,1.35s1.24-.42,1.24-1.11a1.09,1.09,0,0,0-.83-1.1l-1.23-.44a2,2,0,0,1-1.61-2.17c0-1.41,1-2.07,2.57-2.07,1.92,0,2.36,1.12,2.36,2.06v.33Z"/><path d="M228.44,38.81H230v1.51h-1.51Zm0,2.57H230v7.54h-1.51Z"/><path d="M231.48,38.92H233v3.35h0a1.73,1.73,0,0,1,1.71-1.08c1.15,0,2.32.52,2.32,3.86,0,2.59-.71,4.07-2.46,4.07A1.6,1.6,0,0,1,232.94,48h0v.92h-1.43Zm2.7,9c1.07,0,1.28-1.08,1.28-2.79,0-2-.32-2.73-1.18-2.73-1.18,0-1.37,1-1.37,2.85C232.91,46.86,233.15,47.91,234.18,47.91Z"/><path d="M238.28,38.92h1.52v10h-1.52Z"/><path d="M242.33,41.38l1.3,5.66h0l1.21-5.66h1.58l-2.08,7.82c-.6,2.06-1.06,2.34-2.63,2.3a3.05,3.05,0,0,1-.6-.06v-1.2a2,2,0,0,0,.49,0c.52,0,.85-.1,1-.59l.2-.61-2.15-7.71Z"/><path d="M250.64,38.92h1.52v3.35h0a1.73,1.73,0,0,1,1.7-1.08c1.15,0,2.33.52,2.33,3.86,0,2.59-.71,4.07-2.47,4.07A1.61,1.61,0,0,1,252.1,48h0v.92h-1.43Zm2.71,9c1.06,0,1.27-1.08,1.27-2.79,0-2-.32-2.73-1.17-2.73-1.18,0-1.38,1-1.38,2.85C252.07,46.86,252.31,47.91,253.35,47.91Z"/><path d="M258.22,41.38l1.3,5.66h0l1.21-5.66h1.58l-2.07,7.82c-.61,2.06-1.07,2.34-2.64,2.3a3.05,3.05,0,0,1-.6-.06v-1.2a2,2,0,0,0,.49,0c.52,0,.85-.1,1-.59l.2-.61-2.14-7.71Z"/><path d="M267.84,45.35v.43c0,1,.12,2.3,1.26,2.3s1.2-1.22,1.2-1.68h1.43a2.48,2.48,0,0,1-2.65,2.72c-1.23,0-2.76-.37-2.76-3.86,0-2,.44-4.07,2.79-4.07,2.1,0,2.66,1.27,2.66,3.36v.8Zm2.42-1V43.9c0-.95-.31-1.68-1.16-1.68s-1.26,1-1.26,1.94v.15Z"/><path d="M278,47.35c0,.28.17.53.39.53a.59.59,0,0,0,.26,0v1a1.63,1.63,0,0,1-.75.18c-.67,0-1.23-.26-1.27-1h0a2,2,0,0,1-1.88,1.11c-1.21,0-2-.66-2-2.12a2.09,2.09,0,0,1,1.75-2.37l1.18-.32c.55-.15.88-.31.88-1s-.24-1.12-1-1.12c-1,0-1.15.72-1.15,1.45h-1.43c0-1.61.66-2.48,2.65-2.48,1.33,0,2.39.52,2.39,1.85Zm-1.43-2.41a11.23,11.23,0,0,1-1.68.7,1.24,1.24,0,0,0-.61,1.22c0,.63.3,1.14.93,1.14.91,0,1.36-.68,1.36-1.8Z"/><path d="M279.5,41.38H281v1.18h0a1.87,1.87,0,0,1,1.75-1.37.89.89,0,0,1,.36.05v1.54a2.18,2.18,0,0,0-.63-.08c-.68,0-1.51.31-1.51,1.71v4.51H279.5Z"/><path d="M283.24,41.38h1V39.24h1.52v2.14H287V42.5h-1.23V47c0,.6.16.8.68.8a3.78,3.78,0,0,0,.55,0v1.12a5.17,5.17,0,0,1-1.22.12c-1,0-1.53-.29-1.53-1.82V42.5h-1Z"/><path d="M287.8,38.92h1.51V42.2l.05,0a2.15,2.15,0,0,1,1.84-1c1.15,0,1.88.52,1.88,2v5.69h-1.51V43.75c0-1-.28-1.36-1.05-1.36-.62,0-1.21.48-1.21,1.47v5.06H287.8Z"/><path d="M298.3,48h0a1.75,1.75,0,0,1-1.72,1.08c-1.18,0-2.31-.82-2.31-3.87,0-2.58.71-4.06,2.47-4.06a1.61,1.61,0,0,1,1.65,1.12h0v-.93h1.43v10H298.3Zm-1.19-5.65c-1.06,0-1.27,1.08-1.27,2.79,0,2,.4,2.73,1.17,2.73,1.18,0,1.38-1,1.38-2.84C298.39,43.44,298.15,42.39,297.11,42.39Z"/><path d="M305.12,48h0a2.17,2.17,0,0,1-1.93,1.08c-1.13,0-1.88-.52-1.88-2.47V41.38h1.51v5.41c0,.84.37,1.12,1,1.12A1.18,1.18,0,0,0,305,46.65V41.38h1.51v7.54h-1.43Z"/><path d="M313,47.35c0,.28.17.53.39.53a.54.54,0,0,0,.25,0v1a1.58,1.58,0,0,1-.74.18c-.67,0-1.23-.26-1.28-1h0a2,2,0,0,1-1.88,1.11c-1.22,0-2-.66-2-2.12a2.08,2.08,0,0,1,1.75-2.37l1.18-.32c.54-.15.88-.31.88-1s-.24-1.12-1-1.12c-1,0-1.15.72-1.15,1.45H307.9c0-1.61.66-2.48,2.65-2.48,1.33,0,2.4.52,2.4,1.85Zm-1.43-2.41a11.23,11.23,0,0,1-1.68.7,1.23,1.23,0,0,0-.62,1.22c0,.63.31,1.14.94,1.14.91,0,1.36-.68,1.36-1.8Z"/><path d="M314.48,38.92H316v5.62h0l2.29-3.16h1.75l-2.27,2.91,2.56,4.64H318.7l-1.85-3.43-.85,1v2.4h-1.52Z"/><path d="M322.18,45.35v.43c0,1,.13,2.3,1.27,2.3s1.2-1.22,1.2-1.68h1.43a2.48,2.48,0,0,1-2.65,2.72c-1.23,0-2.76-.37-2.76-3.86,0-2,.44-4.07,2.79-4.07,2.1,0,2.66,1.27,2.66,3.36v.8Zm2.43-1V43.9c0-.95-.31-1.68-1.16-1.68s-1.27,1-1.27,1.94v.15Z"/><path d="M327,47.07h1.6v1.85H327Z"/><path d="M119.07,98.11h-2.39V96.77H123v1.34h-2.34v8.66h-1.59Z"/><path d="M124.08,103.2v.43c0,1,.12,2.3,1.26,2.3s1.2-1.22,1.2-1.68H128a2.48,2.48,0,0,1-2.64,2.72c-1.24,0-2.76-.37-2.76-3.86,0-2,.43-4.07,2.78-4.07,2.1,0,2.66,1.27,2.66,3.36v.8Zm2.42-1v-.41c0-1-.31-1.68-1.16-1.68s-1.26,1-1.26,1.94v.15Z"/><path d="M129.33,99.23h1.43v.89h0A2.09,2.09,0,0,1,132.61,99a1.65,1.65,0,0,1,1.75,1.15,2,2,0,0,1,1.9-1.15c1.07,0,1.84.54,1.84,2v5.73h-1.52V101.6c0-1-.29-1.36-.91-1.36s-1.2.48-1.2,1.47v5.06H133V101.6c0-1-.3-1.36-.93-1.36s-1.19.49-1.19,1.47v5.06h-1.51Z"/><path d="M142.87,107a1.74,1.74,0,0,1-1.71-1.08h0v3.34h-1.51v-10h1.43v.93h0a1.79,1.79,0,0,1,1.7-1.12c1.72,0,2.42,1.47,2.42,4.06C145.19,106.26,143.92,107,142.87,107Zm-.55-6.73c-1,0-1.27,1.05-1.27,2.68,0,1.8.22,2.84,1.28,2.84.86,0,1.27-.64,1.27-2.73C143.6,101.32,143.39,100.24,142.32,100.24Z"/><path d="M146.06,103c0-2.35.61-4,2.8-4s2.81,1.61,2.81,4-.72,4-2.81,4S146.06,105.35,146.06,103Zm2.8,2.84c1.11,0,1.3-.92,1.3-2.84,0-1.67-.19-2.84-1.3-2.84s-1.29,1.17-1.29,2.84C147.57,104.92,147.78,105.84,148.86,105.84Z"/><path d="M152.83,99.23h1.52v1.18h0A1.87,1.87,0,0,1,156.12,99a.91.91,0,0,1,.37,0v1.54a2.24,2.24,0,0,0-.63-.08c-.69,0-1.51.31-1.51,1.71v4.51h-1.52Z"/><path d="M162.1,105.2c0,.28.17.53.4.53a.57.57,0,0,0,.25,0v1a1.58,1.58,0,0,1-.74.18c-.68,0-1.24-.26-1.28-1h0a1.94,1.94,0,0,1-1.87,1.11c-1.22,0-2-.66-2-2.12a2.09,2.09,0,0,1,1.76-2.37l1.17-.32c.55-.15.88-.31.88-1s-.23-1.12-1-1.12c-1,0-1.15.72-1.15,1.45h-1.43c0-1.61.66-2.48,2.65-2.48,1.33,0,2.39.52,2.39,1.85Zm-1.43-2.41a10.81,10.81,0,0,1-1.68.7,1.24,1.24,0,0,0-.61,1.22c0,.63.31,1.13.94,1.13.91,0,1.35-.67,1.35-1.79Z"/><path d="M163.64,99.23h1.51v1.18h0A1.87,1.87,0,0,1,166.93,99a.94.94,0,0,1,.37,0v1.54a2.3,2.3,0,0,0-.63-.08c-.69,0-1.52.31-1.52,1.71v4.51h-1.51Z"/><path d="M169.31,99.23l1.3,5.66h0l1.21-5.66h1.58l-2.07,7.82c-.61,2.06-1.07,2.34-2.64,2.3a3.05,3.05,0,0,1-.6-.06v-1.2a2,2,0,0,0,.49,0c.52,0,.86-.1,1-.59l.2-.61-2.14-7.71Z"/><path d="M181.48,105.84h0A1.61,1.61,0,0,1,179.8,107c-1.75,0-2.47-1.49-2.47-4.07,0-3.34,1.18-3.86,2.33-3.86a1.74,1.74,0,0,1,1.71,1.08h0V96.77h1.52v10h-1.43Zm-1.37-5.6c-.86,0-1.18.7-1.18,2.73,0,1.71.21,2.79,1.27,2.79s1.28-1.05,1.28-2.68C181.48,101.28,181.28,100.24,180.11,100.24Z"/><path d="M184.43,96.66h1.51v1.51h-1.51Zm0,2.57h1.51v7.54h-1.51Z"/><path d="M187.54,99.23H189v.89h0A2.09,2.09,0,0,1,190.82,99a1.65,1.65,0,0,1,1.75,1.15,2,2,0,0,1,1.9-1.15c1.07,0,1.84.54,1.84,2v5.73h-1.52V101.6c0-1-.29-1.36-.91-1.36s-1.2.48-1.2,1.47v5.06h-1.51V101.6c0-1-.3-1.36-.93-1.36s-1.19.49-1.19,1.47v5.06h-1.51Z"/><path d="M197.9,96.66h1.51v1.51H197.9Zm0,2.57h1.51v7.54H197.9Z"/><path d="M200.94,99.23h1.42v.89h0A2.13,2.13,0,0,1,204.34,99c1.15,0,1.88.52,1.88,2v5.69H204.7V101.6c0-1-.26-1.36-1-1.36-.61,0-1.2.46-1.2,1.47v5.06h-1.51Z"/><path d="M211.52,105.89h0a2.17,2.17,0,0,1-1.93,1.08c-1.12,0-1.88-.52-1.88-2.47V99.23h1.51v5.41c0,.84.37,1.12,1,1.12a1.18,1.18,0,0,0,1.24-1.26V99.23H213v7.54h-1.43Z"/><path d="M219.35,105.2c0,.28.17.53.39.53a.54.54,0,0,0,.25,0v1a1.58,1.58,0,0,1-.74.18c-.67,0-1.23-.26-1.27-1h0a2,2,0,0,1-1.88,1.11c-1.22,0-2-.66-2-2.12a2.08,2.08,0,0,1,1.75-2.37l1.18-.32c.54-.15.88-.31.88-1s-.24-1.12-1-1.12c-1,0-1.15.72-1.15,1.45h-1.42c0-1.61.65-2.48,2.64-2.48,1.33,0,2.4.52,2.4,1.85Zm-1.43-2.41a11.23,11.23,0,0,1-1.68.7,1.23,1.23,0,0,0-.62,1.22c0,.63.31,1.13.94,1.13.91,0,1.36-.67,1.36-1.79Z"/><path d="M220.21,99.23h1V97.09h1.51v2.14H224v1.12h-1.23v4.5c0,.6.17.8.69.8a3.74,3.74,0,0,0,.54,0v1.12a5.08,5.08,0,0,1-1.21.12c-1,0-1.53-.29-1.53-1.82v-4.68h-1Z"/><path d="M224.85,96.66h1.51v1.51h-1.51Zm0,2.57h1.51v7.54h-1.51Z"/><path d="M227.59,103c0-2.35.62-4,2.8-4s2.82,1.61,2.82,4-.73,4-2.82,4S227.59,105.35,227.59,103Zm2.8,2.84c1.11,0,1.31-.92,1.31-2.84,0-1.67-.2-2.84-1.31-2.84s-1.29,1.17-1.29,2.84C229.1,104.92,229.31,105.84,230.39,105.84Z"/><path d="M234.37,99.23h1.43v.89h0A2.15,2.15,0,0,1,237.77,99c1.15,0,1.88.52,1.88,2v5.69h-1.51V101.6c0-1-.27-1.36-1.06-1.36-.61,0-1.2.46-1.2,1.47v5.06h-1.51Z"/></g></g></g></g></svg>