<svg xmlns="http://www.w3.org/2000/svg" viewBox="0 0 1847.91 110.5"><title>bc1750text</title><g id="YEARS"><g id="Right"><path d="M1787.21,102.41V89h-3.82V87.12h.29c1.77,0,3.79-.44,4.34-2.76V84h2.16v18.41Z"/><path d="M1795.09,84.36H1806V86.7a32.25,32.25,0,0,0-5.8,15.71h-3.12A31.47,31.47,0,0,1,1803.15,87h-8.06Z"/><path d="M1807.62,97.44h2.81v.5a2.35,2.35,0,0,0,2.42,2.6c2.08,0,2.63-2,2.63-4.19s-.58-3.93-2.48-3.93a2.35,2.35,0,0,0-2.41,1.69L1808,94l.91-9.65h8.87v2.37h-6.66l-.6,4.84,0,.05a4.08,4.08,0,0,1,3.1-1.43c3.85,0,4.81,3.25,4.81,6.08,0,3.69-1.69,6.5-5.67,6.5-3.3,0-5.15-1.69-5.15-4.94Z"/><path d="M1825.51,84c3.54,0,5.51,2.21,5.51,9.39s-2,9.38-5.51,9.38-5.51-2.21-5.51-9.38S1822,84,1825.51,84Zm0,16.69c2,0,2.55-2,2.55-7.3s-.55-7.31-2.55-7.31-2.55,2-2.55,7.31S1823.51,100.69,1825.51,100.69Z"/></g><g id="left"><path d="M17.46,106V92.64H13.64V90.72h.29c1.77,0,3.79-.44,4.34-2.76V87.6h2.16V106Z"/><path d="M25.34,88H36.26V90.3A32.21,32.21,0,0,0,30.46,106H27.34a31.54,31.54,0,0,1,6.06-15.4H25.34Z"/><path d="M37.87,101h2.81v.49a2.35,2.35,0,0,0,2.42,2.6c2.08,0,2.63-2,2.63-4.18S45.15,96,43.25,96a2.35,2.35,0,0,0-2.41,1.69l-2.63-.1L39.12,88H48v2.37H41.33l-.6,4.83.06.06a4,4,0,0,1,3.09-1.43c3.85,0,4.81,3.25,4.81,6.08,0,3.69-1.69,6.5-5.67,6.5-3.3,0-5.15-1.69-5.15-4.94Z"/><path d="M55.76,87.6c3.54,0,5.51,2.21,5.51,9.38s-2,9.39-5.51,9.39-5.51-2.21-5.51-9.39S52.22,87.6,55.76,87.6Zm0,16.69c2,0,2.55-2,2.55-7.31s-.55-7.3-2.55-7.3-2.55,2-2.55,7.3S53.76,104.29,55.76,104.29Z"/></g></g><g id="Text"><g id="Egytians"><g id="small"><path d="M531.09,16.23h3.16c1.92,0,2.76,1.21,2.76,2.92a2.71,2.71,0,0,1-2.93,3h-1.4v4.13h-1.59Zm1.59,4.67h1.14a1.5,1.5,0,0,0,1.59-1.73c0-1.07-.43-1.73-1.7-1.73h-1Z"/><path d="M538,18.7h1.51v1.17h0a1.86,1.86,0,0,1,1.75-1.37.87.87,0,0,1,.36.06V20.1A2.11,2.11,0,0,0,541,20c-.68,0-1.51.31-1.51,1.71v4.51H538Z"/><path d="M542.47,16.12H544v1.51h-1.51Zm0,2.58H544v7.53h-1.51Z"/><path d="M545.51,18.7h1.42v.88H547a2.15,2.15,0,0,1,1.93-1.08c1.15,0,1.88.52,1.88,2.05v5.68h-1.52V21.07c0-1-.26-1.36-1-1.36-.61,0-1.2.46-1.2,1.47v5.05h-1.51Z"/><path d="M557.32,23.49c-.11,1.81-.7,2.94-2.57,2.94-2.19,0-2.81-1.61-2.81-4s.62-4,2.81-4a2.44,2.44,0,0,1,2.59,2.71h-1.52c0-.7-.18-1.63-1.07-1.59-1.08,0-1.29,1.18-1.29,2.85s.21,2.84,1.29,2.84c.84,0,1.14-.69,1.14-1.82Z"/><path d="M559.76,22.66v.44c0,1,.12,2.29,1.26,2.29s1.2-1.22,1.2-1.68h1.43A2.48,2.48,0,0,1,561,26.43c-1.23,0-2.76-.36-2.76-3.85,0-2,.44-4.08,2.79-4.08,2.1,0,2.66,1.28,2.66,3.36v.8Zm2.42-1v-.41c0-.95-.31-1.68-1.16-1.68s-1.26.95-1.26,1.93v.16Z"/><path d="M568.19,20.9v-.2c0-.6-.21-1.16-1-1.16-.6,0-1.08.26-1.08,1s.27.83,1.07,1.11l1,.33a2,2,0,0,1,1.64,2.17c0,1.61-1.19,2.3-2.7,2.3-1.9,0-2.48-.88-2.48-2.34v-.28H566v.24c0,.88.29,1.34,1.17,1.34s1.23-.42,1.23-1.1a1.09,1.09,0,0,0-.82-1.11l-1.23-.43a2,2,0,0,1-1.62-2.18c0-1.41,1-2.07,2.58-2.07,1.92,0,2.36,1.12,2.36,2.06v.34Z"/><path d="M574.15,20.9v-.2c0-.6-.21-1.16-1-1.16-.61,0-1.08.26-1.08,1s.26.83,1.06,1.11l1,.33a2,2,0,0,1,1.64,2.17c0,1.61-1.19,2.3-2.71,2.3-1.9,0-2.48-.88-2.48-2.34v-.28h1.35v.24c0,.88.29,1.34,1.18,1.34s1.23-.42,1.23-1.1a1.09,1.09,0,0,0-.83-1.11l-1.23-.43a2,2,0,0,1-1.61-2.18c0-1.41,1-2.07,2.58-2.07,1.91,0,2.35,1.12,2.35,2.06v.34Z"/><path d="M581.56,23.14v.25c0,1.22.54,1.84,1.63,1.84a1.44,1.44,0,0,0,1.52-1.46A1.68,1.68,0,0,0,583.28,22l-1.09-.38c-1.46-.56-2.09-1.32-2.09-2.74,0-1.82,1.25-2.83,3.11-2.83,2.56,0,2.83,1.59,2.83,2.63v.22h-1.6v-.21c0-.91-.39-1.44-1.4-1.44a1.27,1.27,0,0,0-1.34,1.44c0,.86.43,1.29,1.49,1.7l1.08.39a2.54,2.54,0,0,1,2,2.65c0,2.13-1.28,3-3.3,3a2.74,2.74,0,0,1-3-3.05v-.24Z"/><path d="M588.79,22.66v.44c0,1,.13,2.29,1.26,2.29s1.21-1.22,1.21-1.68h1.43A2.48,2.48,0,0,1,590,26.43c-1.23,0-2.76-.36-2.76-3.85,0-2,.43-4.08,2.79-4.08,2.1,0,2.66,1.28,2.66,3.36v.8Zm2.43-1v-.41c0-.95-.31-1.68-1.17-1.68s-1.26.95-1.26,1.93v.16Z"/><path d="M594,16.23h1.52v3.35h0a1.75,1.75,0,0,1,1.71-1.08c1.15,0,2.33.52,2.33,3.87,0,2.59-.72,4.06-2.47,4.06a1.61,1.61,0,0,1-1.65-1.12h0v.92H594Zm2.71,9c1.06,0,1.27-1.08,1.27-2.79,0-2-.32-2.73-1.18-2.73-1.17,0-1.37,1-1.37,2.84C595.4,24.17,595.64,25.23,596.68,25.23Z"/><path d="M602,22.66v.44c0,1,.13,2.29,1.26,2.29s1.2-1.22,1.2-1.68h1.43a2.48,2.48,0,0,1-2.64,2.72c-1.24,0-2.76-.36-2.76-3.85,0-2,.43-4.08,2.78-4.08,2.11,0,2.66,1.28,2.66,3.36v.8Zm2.42-1v-.41c0-.95-.31-1.68-1.16-1.68s-1.26.95-1.26,1.93v.16Z"/><path d="M607.19,16.23h1.51v5.62h0L611,18.7l1.75,0-2.27,2.92,2.57,4.63H611.4l-1.84-3.43-.86,1v2.39h-1.51Z"/><path d="M613.67,18.7h1.43v.88h0a2.17,2.17,0,0,1,1.93-1.08c1.15,0,1.88.52,1.88,2.05v5.68h-1.51V21.07c0-1-.27-1.36-1.05-1.36-.62,0-1.21.46-1.21,1.47v5.05h-1.51Z"/><path d="M621.71,22.66v.44c0,1,.12,2.29,1.26,2.29s1.2-1.22,1.2-1.68h1.43A2.48,2.48,0,0,1,623,26.43c-1.23,0-2.76-.36-2.76-3.85,0-2,.44-4.08,2.79-4.08,2.1,0,2.66,1.28,2.66,3.36v.8Zm2.42-1v-.41c0-.95-.31-1.68-1.16-1.68s-1.26.95-1.26,1.93v.16Z"/><path d="M627.35,19.82H626.3V18.7h1.05V18c0-1.42.69-1.88,1.92-1.88a6.67,6.67,0,0,1,.83,0v1.17h-.43c-.56,0-.81.21-.81.71v.66h1.24v1.12h-1.24v6.41h-1.51Z"/><path d="M630.78,18.7h1.51v1.17h0a1.87,1.87,0,0,1,1.75-1.37.87.87,0,0,1,.36.06V20.1a2.11,2.11,0,0,0-.63-.09c-.68,0-1.51.31-1.51,1.71v4.51h-1.51Z"/><path d="M639,25.35h0a2.17,2.17,0,0,1-1.93,1.08c-1.13,0-1.88-.52-1.88-2.47V18.7h1.51v5.4c0,.85.37,1.13,1,1.13A1.18,1.18,0,0,0,639,24V18.7h1.51v7.53H639Z"/><path d="M643.23,22.66v.44c0,1,.12,2.29,1.26,2.29s1.2-1.22,1.2-1.68h1.43a2.48,2.48,0,0,1-2.65,2.72c-1.23,0-2.76-.36-2.76-3.85,0-2,.44-4.08,2.79-4.08,2.1,0,2.66,1.28,2.66,3.36v.8Zm2.42-1v-.41c0-.95-.31-1.68-1.16-1.68s-1.26.95-1.26,1.93v.16Z"/><path d="M648,24.38h1.6v1.85H648Z"/><path d="M477.49,54.58l-2.41-4.92h1.77l1.6,3.32L480,49.66h1.73l-2.43,4.92,2.55,5.08H480.1l-1.74-3.61-1.78,3.61h-1.72Z"/><path d="M482.62,49.66h1.59v10h-1.59Z"/><path d="M485.72,49.66h1.6v10h-1.6Z"/><path d="M488.83,49.66h1.6v10h-1.6Z"/><path d="M495.37,49.66h2.84c3.14,0,3.53,2.05,3.53,5s-.39,5-3.53,5h-2.84Zm1.6,8.8h1.31c1.32,0,1.87-.87,1.87-3.8s-.48-3.79-1.87-3.79H497Z"/><path d="M504.06,52.13l1.31,5.66h0l1.21-5.66h1.58l-2.07,7.81c-.6,2.06-1.07,2.34-2.63,2.3a2.53,2.53,0,0,1-.61-.06V61a2.12,2.12,0,0,0,.49.06c.52,0,.86-.1,1-.59l.19-.62-2.14-7.7Z"/><path d="M509,52.13h1.43V53h0a2.17,2.17,0,0,1,1.93-1.08c1.15,0,1.88.52,1.88,2v5.68h-1.51V54.49c0-1-.27-1.35-1-1.35-.62,0-1.21.46-1.21,1.47v5H509Z"/><path d="M520.7,58.09c0,.28.17.54.39.54a.52.52,0,0,0,.25-.05v1a1.58,1.58,0,0,1-.74.19c-.67,0-1.23-.27-1.27-1h0a2,2,0,0,1-1.88,1.11c-1.22,0-2-.66-2-2.12a2.06,2.06,0,0,1,1.75-2.36l1.18-.33c.54-.15.88-.3.88-1S519,53,518.23,53c-1,0-1.15.71-1.15,1.44h-1.42c0-1.61.65-2.48,2.64-2.48,1.33,0,2.4.52,2.4,1.85Zm-1.43-2.41a11.23,11.23,0,0,1-1.68.7A1.23,1.23,0,0,0,517,57.6c0,.63.31,1.14.94,1.14.91,0,1.36-.67,1.36-1.79Z"/><path d="M525.48,54.33v-.2c0-.6-.21-1.16-1-1.16-.6,0-1.08.26-1.08,1s.27.82,1.07,1.1l1,.34a2,2,0,0,1,1.64,2.17c0,1.61-1.19,2.3-2.7,2.3-1.91,0-2.48-.88-2.48-2.34v-.28h1.34v.24c0,.88.3,1.34,1.18,1.34s1.23-.42,1.23-1.1a1.09,1.09,0,0,0-.82-1.11l-1.24-.44A2,2,0,0,1,522,54c0-1.41,1-2.07,2.58-2.07,1.92,0,2.35,1.12,2.35,2.06v.34Z"/><path d="M527.53,52.13h1V50h1.52v2.15h1.23v1.12h-1.23v4.49c0,.61.16.8.68.8a2.75,2.75,0,0,0,.55,0v1.12a5.11,5.11,0,0,1-1.22.13c-1,0-1.53-.3-1.53-1.82V53.25h-1Z"/><path d="M533.1,52.13l1.3,5.66h0l1.21-5.66h1.58l-2.08,7.81c-.6,2.06-1.06,2.34-2.63,2.3a2.45,2.45,0,0,1-.6-.06V61a2.05,2.05,0,0,0,.49.06c.52,0,.85-.1,1-.59l.2-.62-2.14-7.7Z"/><path d="M537.17,57.81h1.6v1.85c0,1.12-.36,1.92-1.6,2.16V61c.44-.11.7-.52.7-1.14v-.21h-.7Z"/><path d="M548.17,58.09c0,.28.16.54.39.54a.55.55,0,0,0,.25-.05v1a1.58,1.58,0,0,1-.74.19c-.67,0-1.24-.27-1.28-1h0a2,2,0,0,1-1.88,1.11c-1.22,0-2-.66-2-2.12a2.06,2.06,0,0,1,1.75-2.36l1.17-.33c.55-.15.89-.3.89-1s-.24-1.12-1-1.12c-1,0-1.15.71-1.15,1.44h-1.43c0-1.61.66-2.48,2.65-2.48,1.33,0,2.4.52,2.4,1.85Zm-1.43-2.41a11.23,11.23,0,0,1-1.68.7,1.23,1.23,0,0,0-.62,1.22c0,.63.31,1.14.94,1.14.91,0,1.36-.67,1.36-1.79Z"/><path d="M556.31,59.86a1.74,1.74,0,0,1-1.71-1.08h0v3.35h-1.52v-10h1.43v.92h0a1.78,1.78,0,0,1,1.69-1.12c1.73,0,2.43,1.47,2.43,4.06C558.64,59.16,557.36,59.86,556.31,59.86Zm-.54-6.72c-1,0-1.28,1-1.28,2.67,0,1.81.23,2.84,1.29,2.84.85,0,1.26-.64,1.26-2.73C557,54.21,556.83,53.14,555.77,53.14Z"/><path d="M561.1,56.09v.44c0,1,.13,2.29,1.26,2.29s1.2-1.22,1.2-1.68H565a2.48,2.48,0,0,1-2.64,2.72c-1.24,0-2.76-.37-2.76-3.85,0-2,.43-4.08,2.78-4.08,2.11,0,2.67,1.28,2.67,3.36v.8Zm2.42-1v-.4c0-.95-.31-1.68-1.16-1.68s-1.26,1-1.26,1.93v.15Z"/><path d="M566.28,52.13h1.51V53.3h0a1.87,1.87,0,0,1,1.75-1.37.73.73,0,0,1,.36.06v1.54a2.11,2.11,0,0,0-.63-.09c-.68,0-1.51.31-1.51,1.71v4.51h-1.51Z"/><path d="M570.76,49.55h1.51v1.51h-1.51Zm0,2.58h1.51v7.53h-1.51Z"/><path d="M573.5,55.89c0-2.35.62-4,2.8-4s2.82,1.61,2.82,4-.73,4-2.82,4S573.5,58.25,573.5,55.89Zm2.8,2.85c1.11,0,1.31-.93,1.31-2.85,0-1.66-.2-2.84-1.31-2.84S575,54.23,575,55.89C575,57.81,575.23,58.74,576.3,58.74Z"/><path d="M584.13,58.74h0a1.61,1.61,0,0,1-1.65,1.12c-1.75,0-2.47-1.49-2.47-4.06,0-3.35,1.18-3.87,2.33-3.87A1.74,1.74,0,0,1,584,53h0V49.66h1.51v10h-1.43Zm-1.37-5.6c-.86,0-1.18.7-1.18,2.73,0,1.71.21,2.78,1.28,2.78s1.27-1,1.27-2.67C584.13,54.17,583.93,53.14,582.76,53.14Z"/><path d="M590.08,55.89c0-2.35.61-4,2.8-4s2.81,1.61,2.81,4-.72,4-2.81,4S590.08,58.25,590.08,55.89Zm2.8,2.85c1.11,0,1.3-.93,1.3-2.85,0-1.66-.19-2.84-1.3-2.84s-1.29,1.18-1.29,2.84C591.59,57.81,591.8,58.74,592.88,58.74Z"/><path d="M597.32,53.25h-1.05V52.13h1.05v-.7c0-1.42.68-1.88,1.92-1.88a6.4,6.4,0,0,1,.82,0v1.16h-.42c-.56,0-.81.21-.81.72v.66h1.23v1.12h-1.23v6.41h-1.51Z"/><path d="M604.18,49.55h1.51v1.51h-1.51Zm0,2.58h1.51v7.53h-1.51Z"/><path d="M607.21,52.13h1.43V53h0a2.18,2.18,0,0,1,1.94-1.08c1.15,0,1.87.52,1.87,2v5.68H611V54.49c0-1-.26-1.35-1.05-1.35-.62,0-1.2.46-1.2,1.47v5h-1.52Z"/><path d="M613.28,52.13h1V50h1.51v2.15h1.24v1.12h-1.24v4.49c0,.61.17.8.69.8a2.75,2.75,0,0,0,.55,0v1.12a5.11,5.11,0,0,1-1.22.13c-1,0-1.53-.3-1.53-1.82V53.25h-1Z"/><path d="M619.14,56.09v.44c0,1,.13,2.29,1.26,2.29s1.21-1.22,1.21-1.68H623a2.48,2.48,0,0,1-2.65,2.72c-1.23,0-2.76-.37-2.76-3.85,0-2,.43-4.08,2.79-4.08,2.1,0,2.66,1.28,2.66,3.36v.8Zm2.43-1v-.4c0-.95-.31-1.68-1.17-1.68s-1.26,1-1.26,1.93v.15Z"/><path d="M624.32,52.13h1.51V53.3h0a1.87,1.87,0,0,1,1.75-1.37A.77.77,0,0,1,628,52v1.54a2.17,2.17,0,0,0-.63-.09c-.69,0-1.52.31-1.52,1.71v4.51h-1.51Z"/><path d="M628.87,52.13h1.43V53h0a2.17,2.17,0,0,1,1.94-1.08c1.14,0,1.87.52,1.87,2v5.68h-1.51V54.49c0-1-.27-1.35-1-1.35-.62,0-1.21.46-1.21,1.47v5h-1.51Z"/><path d="M640.55,58.09c0,.28.17.54.39.54a.52.52,0,0,0,.25-.05v1a1.55,1.55,0,0,1-.74.19c-.67,0-1.23-.27-1.27-1h0a2,2,0,0,1-1.88,1.11c-1.22,0-2-.66-2-2.12a2.06,2.06,0,0,1,1.75-2.36l1.18-.33c.55-.15.88-.3.88-1s-.24-1.12-1-1.12c-1,0-1.14.71-1.14,1.44h-1.43c0-1.61.66-2.48,2.64-2.48,1.34,0,2.4.52,2.4,1.85Zm-1.43-2.41a11.23,11.23,0,0,1-1.68.7,1.25,1.25,0,0,0-.62,1.22c0,.63.31,1.14.94,1.14.91,0,1.36-.67,1.36-1.79Z"/><path d="M642.16,49.66h1.51v10h-1.51Z"/><path d="M651.8,54.33v-.2c0-.6-.21-1.16-1-1.16-.6,0-1.08.26-1.08,1s.27.82,1.07,1.1l1,.34a2,2,0,0,1,1.64,2.17c0,1.61-1.19,2.3-2.7,2.3-1.91,0-2.48-.88-2.48-2.34v-.28h1.34v.24c0,.88.3,1.34,1.18,1.34s1.23-.42,1.23-1.1a1.09,1.09,0,0,0-.82-1.11l-1.24-.44A2,2,0,0,1,648.3,54c0-1.41,1-2.07,2.58-2.07,1.92,0,2.35,1.12,2.35,2.06v.34Z"/><path d="M653.85,52.13h1V50h1.52v2.15h1.23v1.12H656.4v4.49c0,.61.16.8.68.8a2.75,2.75,0,0,0,.55,0v1.12a5.11,5.11,0,0,1-1.22.13c-1,0-1.53-.3-1.53-1.82V53.25h-1Z"/><path d="M658.41,52.13h1.51V53.3h0a1.87,1.87,0,0,1,1.75-1.37.77.77,0,0,1,.37.06v1.54a2.23,2.23,0,0,0-.63-.09c-.69,0-1.52.31-1.52,1.71v4.51h-1.51Z"/><path d="M662.89,49.55h1.51v1.51h-1.51Zm0,2.58h1.51v7.53h-1.51Z"/><path d="M666.39,53.25h-1V52.13h1v-.7c0-1.42.69-1.88,1.92-1.88a6.67,6.67,0,0,1,.83,0v1.16h-.42c-.56,0-.82.21-.82.72v.66h1.24v1.12H667.9v6.41h-1.51Z"/><path d="M671.12,56.09v.44c0,1,.13,2.29,1.26,2.29s1.21-1.22,1.21-1.68H675a2.48,2.48,0,0,1-2.65,2.72c-1.23,0-2.76-.37-2.76-3.85,0-2,.43-4.08,2.79-4.08,2.1,0,2.66,1.28,2.66,3.36v.8Zm2.43-1v-.4c0-.95-.31-1.68-1.17-1.68s-1.26,1-1.26,1.93v.15Z"/><path d="M488.63,95.09c0,.28.17.54.4.54a.55.55,0,0,0,.25,0v1a1.58,1.58,0,0,1-.74.19c-.68,0-1.24-.27-1.28-1h0a1.94,1.94,0,0,1-1.87,1.11c-1.22,0-2-.66-2-2.12a2.07,2.07,0,0,1,1.75-2.36l1.18-.33c.55-.15.88-.3.88-1S487,90,486.17,90c-1,0-1.15.71-1.15,1.44h-1.43c0-1.61.66-2.48,2.65-2.48,1.33,0,2.39.52,2.39,1.85Zm-1.43-2.41a10.81,10.81,0,0,1-1.68.7,1.24,1.24,0,0,0-.61,1.22c0,.63.31,1.14.94,1.14.91,0,1.35-.67,1.35-1.79Z"/><path d="M490.17,89.13h1.43V90h0a2.17,2.17,0,0,1,1.93-1.08c1.15,0,1.88.52,1.88,2v5.68h-1.51V91.49c0-1-.27-1.35-1.05-1.35-.62,0-1.21.46-1.21,1.47v5h-1.51Z"/><path d="M500.76,95.74h0a1.61,1.61,0,0,1-1.65,1.12c-1.76,0-2.47-1.49-2.47-4.06,0-3.35,1.18-3.87,2.32-3.87A1.74,1.74,0,0,1,500.64,90h0V86.66h1.51v10h-1.42Zm-1.38-5.6c-.85,0-1.17.7-1.17,2.73,0,1.71.21,2.78,1.27,2.78s1.28-1.05,1.28-2.67C500.76,91.17,500.56,90.14,499.38,90.14Z"/><path d="M510.85,95.74h0a1.61,1.61,0,0,1-1.65,1.12c-1.75,0-2.47-1.49-2.47-4.06,0-3.35,1.18-3.87,2.33-3.87A1.74,1.74,0,0,1,510.74,90h0V86.66h1.51v10h-1.43Zm-1.37-5.6c-.86,0-1.18.7-1.18,2.73,0,1.71.21,2.78,1.28,2.78s1.27-1.05,1.27-2.67C510.85,91.17,510.65,90.14,509.48,90.14Z"/><path d="M513.8,86.55h1.51v1.51H513.8Zm0,2.58h1.51v7.53H513.8Z"/><path d="M520.09,91.33v-.2c0-.6-.21-1.16-1-1.16-.6,0-1.07.26-1.07,1s.26.82,1.06,1.1l1,.34a2,2,0,0,1,1.64,2.17c0,1.61-1.19,2.3-2.71,2.3-1.9,0-2.48-.88-2.48-2.34v-.28h1.35v.24c0,.88.29,1.34,1.17,1.34s1.24-.42,1.24-1.1a1.09,1.09,0,0,0-.83-1.11l-1.23-.44A2,2,0,0,1,516.59,91c0-1.41,1-2.07,2.57-2.07,1.92,0,2.36,1.12,2.36,2.06v.34Z"/><path d="M522.51,92.89c0-2.35.62-4,2.8-4s2.82,1.61,2.82,4-.73,4-2.82,4S522.51,95.25,522.51,92.89Zm2.8,2.85c1.11,0,1.3-.93,1.3-2.85,0-1.66-.19-2.84-1.3-2.84S524,91.23,524,92.89C524,94.81,524.23,95.74,525.31,95.74Z"/><path d="M529.29,89.13h1.51V90.3h0a1.85,1.85,0,0,1,1.75-1.37.73.73,0,0,1,.36.06v1.54a2.11,2.11,0,0,0-.63-.09c-.69,0-1.51.31-1.51,1.71v4.51h-1.51Z"/><path d="M537.46,95.74h0a1.6,1.6,0,0,1-1.65,1.12c-1.75,0-2.46-1.49-2.46-4.06,0-3.35,1.17-3.87,2.32-3.87A1.74,1.74,0,0,1,537.35,90h0V86.66h1.51v10h-1.43Zm-1.37-5.6c-.85,0-1.18.7-1.18,2.73,0,1.71.21,2.78,1.28,2.78s1.27-1.05,1.27-2.67C537.46,91.17,537.27,90.14,536.09,90.14Z"/><path d="M541.65,93.09v.44c0,1,.12,2.29,1.26,2.29s1.2-1.22,1.2-1.68h1.43a2.48,2.48,0,0,1-2.65,2.72c-1.23,0-2.76-.37-2.76-3.85,0-2,.44-4.08,2.79-4.08,2.1,0,2.66,1.28,2.66,3.36v.8Zm2.42-1v-.4c0-1-.31-1.68-1.16-1.68s-1.26,1-1.26,1.93v.15Z"/><path d="M546.83,89.13h1.51V90.3h0a1.85,1.85,0,0,1,1.75-1.37.73.73,0,0,1,.36.06v1.54a2.11,2.11,0,0,0-.63-.09c-.68,0-1.51.31-1.51,1.71v4.51h-1.51Z"/><path d="M550.1,94.81h1.6v1.85c0,1.12-.36,1.92-1.6,2.16V98c.44-.11.7-.52.7-1.14v-.21h-.7Z"/><path d="M556.15,86.66h1.51V90h0a1.74,1.74,0,0,1,1.71-1.08c1.15,0,2.33.52,2.33,3.87,0,2.59-.72,4.06-2.47,4.06a1.61,1.61,0,0,1-1.65-1.12h0v.92h-1.43Zm2.7,9c1.07,0,1.28-1.07,1.28-2.78,0-2-.32-2.73-1.18-2.73-1.17,0-1.37,1-1.37,2.84C557.58,94.6,557.82,95.65,558.85,95.65Z"/><path d="M566.74,95.78h0a2.15,2.15,0,0,1-1.93,1.08c-1.12,0-1.88-.52-1.88-2.47V89.13h1.52v5.4c0,.84.36,1.12,1,1.12a1.17,1.17,0,0,0,1.23-1.26V89.13h1.52v7.53h-1.43Z"/><path d="M569,89.13h1V87h1.52v2.15h1.23v1.12H571.5v4.49c0,.61.16.8.68.8a2.75,2.75,0,0,0,.55,0v1.12a5.11,5.11,0,0,1-1.22.13c-1,0-1.53-.3-1.53-1.82V90.25h-1Z"/><path d="M576.87,89.13h1.43V90h0a2.17,2.17,0,0,1,1.93-1.08c1.15,0,1.88.52,1.88,2v5.68h-1.51V91.49c0-1-.27-1.35-1-1.35-.62,0-1.21.46-1.21,1.47v5h-1.51Z"/><path d="M584.91,93.09v.44c0,1,.12,2.29,1.26,2.29s1.2-1.22,1.2-1.68h1.43a2.48,2.48,0,0,1-2.65,2.72c-1.23,0-2.76-.37-2.76-3.85,0-2,.44-4.08,2.79-4.08,2.1,0,2.66,1.28,2.66,3.36v.8Zm2.42-1v-.4c0-1-.31-1.68-1.16-1.68s-1.26,1-1.26,1.93v.15Z"/><path d="M589.57,89.13h1.57l1.05,5.94h0l1.12-5.94H595l1.13,5.94h0l1-5.94h1.51L597,96.66h-1.69l-1.18-5.85h0L593,96.66h-1.76Z"/><path d="M603,86.66h1.51V90h0a1.74,1.74,0,0,1,1.71-1.08c1.14,0,2.32.52,2.32,3.87,0,2.59-.71,4.06-2.46,4.06a1.61,1.61,0,0,1-1.66-1.12h0v.92H603Zm2.7,9c1.06,0,1.27-1.07,1.27-2.78,0-2-.32-2.73-1.17-2.73-1.18,0-1.38,1-1.38,2.84C604.46,94.6,604.7,95.65,605.74,95.65Z"/><path d="M609.84,86.66h1.51v10h-1.51Z"/><path d="M612.58,92.89c0-2.35.62-4,2.81-4s2.81,1.61,2.81,4-.73,4-2.81,4S612.58,95.25,612.58,92.89Zm2.81,2.85c1.1,0,1.3-.93,1.3-2.85,0-1.66-.2-2.84-1.3-2.84s-1.29,1.18-1.29,2.84C614.1,94.81,614.31,95.74,615.39,95.74Z"/><path d="M619.07,92.89c0-2.35.61-4,2.8-4s2.81,1.61,2.81,4-.73,4-2.81,4S619.07,95.25,619.07,92.89Zm2.8,2.85c1.1,0,1.3-.93,1.3-2.85,0-1.66-.2-2.84-1.3-2.84s-1.29,1.18-1.29,2.84C620.58,94.81,620.79,95.74,621.87,95.74Z"/><path d="M629.69,95.74h0A1.62,1.62,0,0,1,628,96.86c-1.75,0-2.46-1.49-2.46-4.06,0-3.35,1.17-3.87,2.32-3.87A1.74,1.74,0,0,1,629.58,90h0V86.66h1.51v10h-1.43Zm-1.37-5.6c-.85,0-1.18.7-1.18,2.73,0,1.71.21,2.78,1.28,2.78s1.27-1.05,1.27-2.67C629.69,91.17,629.5,90.14,628.32,90.14Z"/></g></g><g id="Amorites"><path d="M966.65,10.58h2.79V18.2h0l5.3-7.62h3.06L972.8,18l5.59,10.12h-3.16L971,20.21l-1.55,2.2v5.66h-2.79Z"/><path d="M987.84,25.33c0,.49.3.93.69.93a1,1,0,0,0,.44-.07V27.9a2.83,2.83,0,0,1-1.3.32c-1.17,0-2.15-.46-2.23-1.74h-.05a3.4,3.4,0,0,1-3.28,1.94c-2.13,0-3.43-1.15-3.43-3.7,0-2.94,1.3-3.56,3.06-4.14L983.8,20c1-.27,1.54-.54,1.54-1.69s-.41-2-1.81-2c-1.76,0-2,1.25-2,2.52H979c0-2.81,1.15-4.33,4.63-4.33,2.33,0,4.19.9,4.19,3.23Zm-2.5-4.22a20,20,0,0,1-2.94,1.23,2.16,2.16,0,0,0-1.07,2.13c0,1.1.53,2,1.64,2,1.59,0,2.37-1.18,2.37-3.14Z"/><path d="M996.22,18.74v-.35c0-1.05-.37-2-1.74-2-1.05,0-1.88.47-1.88,1.72,0,1.05.46,1.44,1.86,1.93l1.69.59c2,.66,2.87,1.72,2.87,3.8,0,2.82-2.09,4-4.73,4-3.34,0-4.34-1.55-4.34-4.1v-.49h2.35v.42c0,1.55.52,2.35,2.06,2.35s2.16-.73,2.16-1.93a1.91,1.91,0,0,0-1.45-1.94L992.91,22c-2-.66-2.81-1.69-2.81-3.8,0-2.47,1.76-3.62,4.5-3.62,3.36,0,4.12,2,4.12,3.6v.59Z"/><path d="M1006.66,18.74v-.35c0-1.05-.37-2-1.74-2-1,0-1.89.47-1.89,1.72,0,1.05.47,1.44,1.86,1.93l1.7.59c2,.66,2.86,1.72,2.86,3.8,0,2.82-2.08,4-4.73,4-3.33,0-4.33-1.55-4.33-4.1v-.49h2.35v.42c0,1.55.51,2.35,2.06,2.35s2.15-.73,2.15-1.93a1.91,1.91,0,0,0-1.44-1.94l-2.16-.76c-2-.66-2.82-1.69-2.82-3.8,0-2.47,1.77-3.62,4.51-3.62,3.36,0,4.12,2,4.12,3.6v.59Z"/><path d="M1011.53,10.38h2.65V13h-2.65Zm0,4.51h2.65V28.07h-2.65Z"/><path d="M1015.67,14.89h1.82V11.14h2.64v3.75h2.16v2h-2.16v7.87c0,1.05.3,1.39,1.2,1.39a5,5,0,0,0,1-.07v2a8.44,8.44,0,0,1-2.13.22c-1.77,0-2.67-.51-2.67-3.18V16.85h-1.82Z"/><path d="M1025.94,21.82v.76c0,1.77.22,4,2.2,4s2.11-2.13,2.11-2.94h2.5c0,3-1.76,4.76-4.63,4.76-2.16,0-4.83-.64-4.83-6.74,0-3.46.76-7.13,4.88-7.13,3.68,0,4.66,2.23,4.66,5.88v1.39Zm4.24-1.81V19.3c0-1.67-.54-2.94-2-2.94-1.66,0-2.2,1.67-2.2,3.38V20Z"/><path d="M1041.06,10.58h5c5.49,0,6.17,3.57,6.17,8.75s-.68,8.74-6.17,8.74h-5ZM1043.85,26h2.3c2.31,0,3.26-1.52,3.26-6.64,0-4.93-.83-6.65-3.26-6.65h-2.3Z"/><path d="M1056.27,14.89l2.28,9.9h0l2.11-9.9h2.76l-3.62,13.67c-1.06,3.61-1.87,4.1-4.61,4a5.26,5.26,0,0,1-1-.09V30.38a3.53,3.53,0,0,0,.85.1c.91,0,1.5-.18,1.79-1l.35-1.08-3.75-13.48Z"/><path d="M1064.94,14.89h2.5v1.54h.08a3.78,3.78,0,0,1,3.38-1.88c2,0,3.28.9,3.28,3.57v10h-2.65V19c0-1.76-.46-2.38-1.83-2.38-1.08,0-2.11.81-2.11,2.58v8.84h-2.65Z"/><path d="M1085.38,25.33c0,.49.29.93.68.93a1,1,0,0,0,.44-.07V27.9a2.78,2.78,0,0,1-1.29.32c-1.18,0-2.16-.46-2.23-1.74h0a3.41,3.41,0,0,1-3.29,1.94c-2.13,0-3.43-1.15-3.43-3.7,0-2.94,1.3-3.56,3.06-4.14l2.06-.57c1-.27,1.55-.54,1.55-1.69s-.42-2-1.82-2c-1.76,0-2,1.25-2,2.52h-2.5c0-2.81,1.15-4.33,4.63-4.33,2.33,0,4.19.9,4.19,3.23Zm-2.5-4.22a20.5,20.5,0,0,1-2.94,1.23,2.17,2.17,0,0,0-1.08,2.13c0,1.1.54,2,1.64,2,1.59,0,2.38-1.18,2.38-3.14Z"/><path d="M1093.76,18.74v-.35c0-1.05-.37-2-1.74-2-1.06,0-1.89.47-1.89,1.72,0,1.05.46,1.44,1.86,1.93l1.69.59c2,.66,2.87,1.72,2.87,3.8,0,2.82-2.08,4-4.73,4-3.33,0-4.34-1.55-4.34-4.1v-.49h2.35v.42c0,1.55.52,2.35,2.06,2.35s2.16-.73,2.16-1.93a1.91,1.91,0,0,0-1.45-1.94l-2.15-.76c-2-.66-2.82-1.69-2.82-3.8,0-2.47,1.76-3.62,4.51-3.62,3.36,0,4.11,2,4.11,3.6v.59Z"/><path d="M1097.33,14.89h1.81V11.14h2.65v3.75H1104v2h-2.16v7.87c0,1.05.29,1.39,1.2,1.39a5.1,5.1,0,0,0,1-.07v2a8.58,8.58,0,0,1-2.14.22c-1.76,0-2.67-.51-2.67-3.18V16.85h-1.81Z"/><path d="M1107.08,14.89l2.28,9.9h.05l2.11-9.9h2.77l-3.63,13.67c-1.05,3.61-1.86,4.1-4.61,4a5.39,5.39,0,0,1-1-.09V30.38a3.55,3.55,0,0,0,.86.1c.9,0,1.49-.18,1.79-1l.34-1.08-3.75-13.48Z"/></g><g id="Ageans"><g id="Title"><g id="small-2" data-name="small"><path d="M97.33,65.05v.25c0,1.22.55,1.84,1.64,1.84a1.44,1.44,0,0,0,1.51-1.46,1.68,1.68,0,0,0-1.43-1.78L98,63.52c-1.46-.56-2.09-1.31-2.09-2.74C95.87,59,97.12,58,99,58c2.57,0,2.83,1.59,2.83,2.63v.22h-1.59v-.21c0-.91-.4-1.44-1.41-1.44a1.28,1.28,0,0,0-1.34,1.44c0,.86.43,1.29,1.5,1.7l1.08.39a2.55,2.55,0,0,1,2,2.65c0,2.13-1.29,3-3.31,3a2.74,2.74,0,0,1-3-3v-.24Z"/><path d="M107.12,67.26h0a2.18,2.18,0,0,1-1.94,1.08c-1.12,0-1.87-.52-1.87-2.46V60.61h1.51V66c0,.84.36,1.12,1,1.12A1.17,1.17,0,0,0,107,65.88V60.61h1.52v7.53h-1.43Z"/><path d="M110.07,60.61h1.43v.88h0a2.12,2.12,0,0,1,1.81-1.08,1.64,1.64,0,0,1,1.75,1.15,2,2,0,0,1,1.9-1.15c1.07,0,1.84.55,1.84,2v5.72h-1.51V63c0-1-.3-1.36-.91-1.36s-1.21.47-1.21,1.47v5H113.7V63c0-1-.3-1.36-.93-1.36s-1.19.49-1.19,1.47v5h-1.51Z"/><path d="M123.61,68.34a1.74,1.74,0,0,1-1.71-1.08h0v3.35h-1.51v-10h1.43v.92h0a1.78,1.78,0,0,1,1.69-1.12c1.72,0,2.42,1.47,2.42,4.06C125.93,67.64,124.66,68.34,123.61,68.34Zm-.55-6.72c-1,0-1.27,1.05-1.27,2.67,0,1.81.22,2.85,1.29,2.85.85,0,1.26-.65,1.26-2.74C124.34,62.7,124.13,61.62,123.06,61.62Z"/><path d="M126.42,60.61h1V58.47H129v2.14h1.23v1.12H129v4.5c0,.6.17.79.69.79a2.7,2.7,0,0,0,.54,0V68.1a4.59,4.59,0,0,1-1.22.13c-1,0-1.52-.3-1.52-1.82V61.73h-1Z"/><path d="M134.84,67.26h0a2.18,2.18,0,0,1-1.94,1.08c-1.12,0-1.87-.52-1.87-2.46V60.61h1.51V66c0,.84.36,1.12,1,1.12a1.17,1.17,0,0,0,1.23-1.26V60.61h1.52v7.53h-1.43Z"/><path d="M137.43,64.38c0-2.36.61-4,2.8-4S143,62,143,64.38s-.73,4-2.81,4S137.43,66.73,137.43,64.38Zm2.8,2.84c1.1,0,1.3-.92,1.3-2.84,0-1.67-.2-2.85-1.3-2.85s-1.29,1.18-1.29,2.85C138.94,66.3,139.15,67.22,140.23,67.22Z"/><path d="M148.05,67.26h0a2.17,2.17,0,0,1-1.93,1.08c-1.12,0-1.88-.52-1.88-2.46V60.61h1.51V66c0,.84.37,1.12,1,1.12A1.18,1.18,0,0,0,148,65.88V60.61h1.51v7.53h-1.43Z"/><path d="M154.18,62.81v-.2c0-.6-.2-1.16-1-1.16-.6,0-1.08.27-1.08,1s.27.83,1.07,1.11l1,.33A2,2,0,0,1,155.78,66c0,1.61-1.19,2.3-2.7,2.3-1.91,0-2.48-.88-2.48-2.34v-.28h1.34V66c0,.88.3,1.34,1.18,1.34s1.23-.42,1.23-1.1a1.09,1.09,0,0,0-.82-1.11l-1.24-.43a2,2,0,0,1-1.61-2.17c0-1.42,1-2.08,2.58-2.08,1.92,0,2.35,1.12,2.35,2.06v.34Z"/><path d="M163.51,68.34a1.74,1.74,0,0,1-1.71-1.08h0v3.35h-1.51v-10h1.43v.92h0a1.78,1.78,0,0,1,1.69-1.12c1.72,0,2.42,1.47,2.42,4.06C165.83,67.64,164.56,68.34,163.51,68.34ZM163,61.62c-1,0-1.27,1.05-1.27,2.67,0,1.81.22,2.85,1.29,2.85.85,0,1.26-.65,1.26-2.74C164.24,62.7,164,61.62,163,61.62Z"/><path d="M171.94,66.58c0,.28.17.53.39.53a.72.72,0,0,0,.25,0v1a1.71,1.71,0,0,1-.74.18c-.67,0-1.23-.27-1.28-1h0a1.94,1.94,0,0,1-1.88,1.11c-1.22,0-2-.66-2-2.11a2.08,2.08,0,0,1,1.75-2.37l1.18-.32c.54-.16.88-.31.88-1s-.24-1.12-1-1.12c-1,0-1.15.71-1.15,1.44h-1.43c0-1.61.66-2.48,2.65-2.48,1.33,0,2.4.52,2.4,1.85Zm-1.43-2.41a13.82,13.82,0,0,1-1.68.7,1.23,1.23,0,0,0-.62,1.22c0,.63.31,1.13.94,1.13.91,0,1.36-.67,1.36-1.79Z"/><path d="M173.54,58.14h1.52v10h-1.52Z"/><path d="M181.53,66.58c0,.28.17.53.39.53a.72.72,0,0,0,.25,0v1a1.71,1.71,0,0,1-.74.18c-.67,0-1.23-.27-1.28-1h0a1.94,1.94,0,0,1-1.88,1.11c-1.22,0-2-.66-2-2.11A2.08,2.08,0,0,1,178,63.86l1.18-.32c.54-.16.88-.31.88-1s-.24-1.12-1-1.12c-1,0-1.15.71-1.15,1.44h-1.43c0-1.61.66-2.48,2.65-2.48,1.33,0,2.4.52,2.4,1.85Zm-1.43-2.41a13.82,13.82,0,0,1-1.68.7,1.23,1.23,0,0,0-.62,1.22c0,.63.31,1.13.94,1.13.91,0,1.36-.67,1.36-1.79Z"/><path d="M188.15,65.4c-.11,1.81-.7,2.94-2.58,2.94-2.18,0-2.8-1.61-2.8-4s.62-4,2.8-4a2.44,2.44,0,0,1,2.59,2.71h-1.51c0-.7-.18-1.63-1.08-1.59-1.08,0-1.29,1.18-1.29,2.85s.21,2.84,1.29,2.84c.84,0,1.15-.69,1.15-1.82Z"/><path d="M190.58,64.57V65c0,1,.13,2.29,1.26,2.29s1.21-1.21,1.21-1.68h1.43a2.48,2.48,0,0,1-2.65,2.72c-1.23,0-2.76-.36-2.76-3.85,0-2,.43-4.08,2.79-4.08,2.1,0,2.66,1.28,2.66,3.36v.8Zm2.43-1v-.41c0-1-.31-1.68-1.17-1.68s-1.26.95-1.26,1.93v.16Z"/><path d="M199,62.81v-.2c0-.6-.21-1.16-1-1.16-.6,0-1.08.27-1.08,1s.27.83,1.06,1.11l1,.33A2,2,0,0,1,200.61,66c0,1.61-1.19,2.3-2.7,2.3-1.91,0-2.48-.88-2.48-2.34v-.28h1.34V66c0,.88.29,1.34,1.18,1.34s1.23-.42,1.23-1.1a1.09,1.09,0,0,0-.83-1.11l-1.23-.43a2,2,0,0,1-1.61-2.17c0-1.42,1-2.08,2.58-2.08,1.92,0,2.35,1.12,2.35,2.06v.34Z"/><path d="M205.09,58.14h1.51v3.35h0a1.74,1.74,0,0,1,1.71-1.08c1.14,0,2.32.52,2.32,3.87,0,2.59-.71,4.06-2.46,4.06a1.62,1.62,0,0,1-1.66-1.12h0v.92h-1.43Zm2.7,9c1.06,0,1.27-1.08,1.27-2.79,0-2-.32-2.73-1.17-2.73-1.18,0-1.37,1-1.37,2.84C206.52,66.09,206.75,67.14,207.79,67.14Z"/><path d="M215.67,67.26h0a2.17,2.17,0,0,1-1.93,1.08c-1.12,0-1.88-.52-1.88-2.46V60.61h1.51V66c0,.84.37,1.12,1,1.12a1.18,1.18,0,0,0,1.24-1.26V60.61h1.51v7.53h-1.43Z"/><path d="M218.62,58h1.52v1.51h-1.52Zm0,2.58h1.52v7.53h-1.52Z"/><path d="M221.73,58.14h1.51v10h-1.51Z"/><path d="M224.1,60.61h1V58.47h1.52v2.14h1.23v1.12h-1.23v4.5c0,.6.16.79.68.79a2.75,2.75,0,0,0,.55,0V68.1a4.64,4.64,0,0,1-1.22.13c-1,0-1.53-.3-1.53-1.82V61.73h-1Z"/><path d="M237,66.58c0,.28.16.53.39.53a.76.76,0,0,0,.25,0v1a1.71,1.71,0,0,1-.74.18c-.67,0-1.23-.27-1.28-1h0a1.94,1.94,0,0,1-1.88,1.11c-1.22,0-2-.66-2-2.11a2.08,2.08,0,0,1,1.75-2.37l1.17-.32c.55-.16.89-.31.89-1s-.24-1.12-1-1.12c-1,0-1.15.71-1.15,1.44h-1.43c0-1.61.66-2.48,2.65-2.48,1.33,0,2.4.52,2.4,1.85Zm-1.43-2.41a13.82,13.82,0,0,1-1.68.7,1.23,1.23,0,0,0-.62,1.22c0,.63.31,1.13.94,1.13.91,0,1.36-.67,1.36-1.79Z"/><path d="M237.83,60.61h1V58.47h1.51v2.14h1.23v1.12h-1.23v4.5c0,.6.17.79.69.79a2.7,2.7,0,0,0,.54,0V68.1a4.59,4.59,0,0,1-1.22.13c-1,0-1.52-.3-1.52-1.82V61.73h-1Z"/><path d="M245.85,58.14H249c1.92,0,2.76,1.21,2.76,2.92a2.72,2.72,0,0,1-2.93,3h-1.4v4.13h-1.6Zm1.6,4.67h1.14a1.5,1.5,0,0,0,1.59-1.72c0-1.08-.43-1.74-1.71-1.74h-1Z"/><path d="M252.76,58.14h1.51v3.28l0,0a2.14,2.14,0,0,1,1.85-1c1.15,0,1.88.52,1.88,2.05v5.68h-1.52V63c0-1-.28-1.36-1-1.36-.61,0-1.2.47-1.2,1.47v5h-1.51Z"/><path d="M264.43,66.58c0,.28.17.53.4.53a.76.76,0,0,0,.25,0v1a1.71,1.71,0,0,1-.74.18c-.68,0-1.24-.27-1.28-1h0a1.93,1.93,0,0,1-1.87,1.11c-1.22,0-2-.66-2-2.11A2.08,2.08,0,0,1,261,63.86l1.17-.32c.55-.16.89-.31.89-1s-.24-1.12-1-1.12c-1,0-1.15.71-1.15,1.44h-1.43c0-1.61.66-2.48,2.65-2.48,1.33,0,2.39.52,2.39,1.85ZM263,64.17a13.32,13.32,0,0,1-1.69.7,1.24,1.24,0,0,0-.61,1.22c0,.63.31,1.13.94,1.13.91,0,1.36-.67,1.36-1.79Z"/><path d="M267.27,64.57V65c0,1,.13,2.29,1.26,2.29s1.21-1.21,1.21-1.68h1.43a2.48,2.48,0,0,1-2.65,2.72c-1.23,0-2.76-.36-2.76-3.85,0-2,.44-4.08,2.79-4.08,2.1,0,2.66,1.28,2.66,3.36v.8Zm2.43-1v-.41c0-1-.31-1.68-1.17-1.68s-1.26.95-1.26,1.93v.16Z"/><path d="M275.7,62.81v-.2c0-.6-.21-1.16-1-1.16-.6,0-1.08.27-1.08,1s.27.83,1.06,1.11l1,.33A2,2,0,0,1,277.3,66c0,1.61-1.19,2.3-2.7,2.3-1.91,0-2.48-.88-2.48-2.34v-.28h1.34V66c0,.88.3,1.34,1.18,1.34s1.23-.42,1.23-1.1a1.09,1.09,0,0,0-.83-1.11l-1.23-.43a2,2,0,0,1-1.61-2.17c0-1.42,1-2.08,2.58-2.08,1.92,0,2.35,1.12,2.35,2.06v.34Z"/><path d="M277.74,60.61h1V58.47h1.51v2.14h1.24v1.12h-1.24v4.5c0,.6.17.79.69.79a2.81,2.81,0,0,0,.55,0V68.1a4.69,4.69,0,0,1-1.22.13c-1,0-1.53-.3-1.53-1.82V61.73h-1Z"/><path d="M282,64.38c0-2.36.61-4,2.8-4s2.81,1.61,2.81,4-.73,4-2.81,4S282,66.73,282,64.38Zm2.8,2.84c1.1,0,1.3-.92,1.3-2.84,0-1.67-.2-2.85-1.3-2.85s-1.29,1.18-1.29,2.85C283.53,66.3,283.74,67.22,284.82,67.22Z"/><path d="M292,62.81v-.2c0-.6-.21-1.16-1-1.16-.61,0-1.08.27-1.08,1s.26.83,1.06,1.11l1,.33A2,2,0,0,1,293.64,66c0,1.61-1.19,2.3-2.71,2.3-1.9,0-2.48-.88-2.48-2.34v-.28h1.35V66c0,.88.29,1.34,1.18,1.34s1.23-.42,1.23-1.1a1.09,1.09,0,0,0-.83-1.11l-1.23-.43a2,2,0,0,1-1.61-2.17c0-1.42,1-2.08,2.58-2.08,1.92,0,2.35,1.12,2.35,2.06v.34Z"/><path d="M303.06,66.58c0,.28.17.53.39.53a.72.72,0,0,0,.25,0v1a1.68,1.68,0,0,1-.74.18c-.67,0-1.23-.27-1.27-1h0a1.94,1.94,0,0,1-1.88,1.11c-1.22,0-2-.66-2-2.11a2.08,2.08,0,0,1,1.75-2.37l1.18-.32c.54-.16.88-.31.88-1s-.24-1.12-1-1.12c-1,0-1.14.71-1.14,1.44H298c0-1.61.66-2.48,2.64-2.48,1.33,0,2.4.52,2.4,1.85Zm-1.43-2.41a13.82,13.82,0,0,1-1.68.7,1.25,1.25,0,0,0-.62,1.22c0,.63.31,1.13.94,1.13.91,0,1.36-.67,1.36-1.79Z"/><path d="M304.6,60.61H306v.88h0A2.17,2.17,0,0,1,308,60.41c1.15,0,1.88.52,1.88,2.05v5.68h-1.52V63c0-1-.26-1.36-1.05-1.36-.61,0-1.2.46-1.2,1.47v5H304.6Z"/><path d="M315.18,67.22h0a1.6,1.6,0,0,1-1.65,1.12c-1.75,0-2.46-1.48-2.46-4.06,0-3.35,1.17-3.87,2.32-3.87a1.74,1.74,0,0,1,1.71,1.08h0V58.14h1.51v10h-1.43Zm-1.37-5.6c-.85,0-1.18.7-1.18,2.73,0,1.71.21,2.79,1.28,2.79s1.27-1,1.27-2.68C315.18,62.65,315,61.62,313.81,61.62Z"/><path d="M321.52,58.14H324l1.76,7.41h0l1.74-7.41H330v10h-1.51V59.82h0l-2,8.32h-1.35l-2-8.32h0v8.32h-1.52Z"/><path d="M336.48,66.58c0,.28.16.53.39.53a.76.76,0,0,0,.25,0v1a1.71,1.71,0,0,1-.74.18c-.67,0-1.23-.27-1.28-1h0a1.94,1.94,0,0,1-1.88,1.11c-1.22,0-2-.66-2-2.11A2.08,2.08,0,0,1,333,63.86l1.18-.32c.54-.16.88-.31.88-1s-.24-1.12-1-1.12c-1,0-1.15.71-1.15,1.44h-1.43c0-1.61.66-2.48,2.65-2.48,1.33,0,2.4.52,2.4,1.85Zm-1.43-2.41a13.82,13.82,0,0,1-1.68.7,1.23,1.23,0,0,0-.62,1.22c0,.63.31,1.13.94,1.13.91,0,1.36-.67,1.36-1.79Z"/><path d="M338.08,58.14h1.52v10h-1.52Z"/><path d="M341.19,58.14h1.51v10h-1.51Z"/><path d="M344.3,58h1.51v1.51H344.3Zm0,2.58h1.51v7.53H344.3Z"/><path d="M352.28,66.58c0,.28.17.53.4.53a.76.76,0,0,0,.25,0v1a1.76,1.76,0,0,1-.75.18c-.67,0-1.23-.27-1.27-1h0A1.93,1.93,0,0,1,349,68.34c-1.22,0-2-.66-2-2.11a2.08,2.08,0,0,1,1.75-2.37l1.18-.32c.55-.16.88-.31.88-1s-.23-1.12-1-1.12c-1,0-1.15.71-1.15,1.44h-1.43c0-1.61.66-2.48,2.65-2.48,1.33,0,2.39.52,2.39,1.85Zm-1.43-2.41a13.18,13.18,0,0,1-1.68.7,1.24,1.24,0,0,0-.61,1.22c0,.63.3,1.13.94,1.13.91,0,1.35-.67,1.35-1.79Z"/><path d="M354,66.3h1.6v1.84H354Z"/><path d="M97.29,87.14h3.23c1.5,0,2.69.68,2.69,2.43a2.11,2.11,0,0,1-1.47,2.27v0c1.1.2,1.8.86,1.8,2.55s-1.21,2.74-3.09,2.74H97.29Zm2.86,4.22a1.4,1.4,0,0,0,1.47-1.58c0-1.19-.72-1.43-1.61-1.43H98.89v3Zm.32,4.58c1,0,1.47-.6,1.47-1.76a1.52,1.52,0,0,0-1.57-1.7H98.89v3.46Z"/><path d="M108.56,96.26h0a2.15,2.15,0,0,1-1.94,1.08c-1.12,0-1.87-.52-1.87-2.46V89.61h1.51V95c0,.84.36,1.12,1,1.12a1.18,1.18,0,0,0,1.24-1.26V89.61H110v7.54h-1.43Z"/><path d="M111.51,87.14H113v10h-1.51Z"/><path d="M114.62,87.14h1.51v10h-1.51Z"/><path d="M117.56,92.38h3.67v1.43h-3.67Z"/><path d="M122.59,89.61h1.51v1.18h0a1.86,1.86,0,0,1,1.75-1.38.87.87,0,0,1,.36.06V91a2.18,2.18,0,0,0-.63-.08c-.69,0-1.51.3-1.51,1.7v4.52h-1.51Z"/><path d="M127.06,87h1.52v1.51h-1.52Zm0,2.58h1.52v7.54h-1.52Z"/><path d="M130.1,89.61h1.43v.88h0a2.18,2.18,0,0,1,1.94-1.08c1.14,0,1.87.52,1.87,2v5.69h-1.51V92c0-1-.27-1.36-1.05-1.36-.62,0-1.2.46-1.2,1.47v5.06H130.1Z"/><path d="M138.35,97.79a1,1,0,0,0,1.09.9,1.25,1.25,0,0,0,1.28-1.42V96.05h0a1.82,1.82,0,0,1-1.71,1c-1.75,0-2.26-1.72-2.26-3.8,0-1.65.26-3.88,2.4-3.88a1.66,1.66,0,0,1,1.65,1.12h0v-.92h1.43v7.17c0,1.84-.79,2.94-2.82,2.94-2.24,0-2.49-1.31-2.49-1.93Zm1.06-1.91c1.18,0,1.31-1.48,1.31-2.67s-.16-2.59-1.21-2.59-1.27,1.12-1.27,2.52S138.29,95.88,139.41,95.88Z"/><path d="M150.18,91.81v-.2c0-.6-.21-1.16-1-1.16-.6,0-1.07.27-1.07,1s.26.83,1.06,1.11l1,.33A2,2,0,0,1,151.78,95c0,1.61-1.19,2.3-2.71,2.3-1.9,0-2.48-.88-2.48-2.34v-.28h1.35V95c0,.88.29,1.34,1.18,1.34s1.23-.42,1.23-1.1a1.09,1.09,0,0,0-.83-1.11l-1.23-.43a2,2,0,0,1-1.61-2.17c0-1.42,1-2.08,2.58-2.08,1.91,0,2.35,1.12,2.35,2.06v.34Z"/><path d="M156.14,97.34a1.73,1.73,0,0,1-1.71-1.08h0v3.35h-1.52v-10h1.43v.92h0a1.79,1.79,0,0,1,1.7-1.12c1.72,0,2.42,1.47,2.42,4.07C158.47,96.64,157.19,97.34,156.14,97.34Zm-.54-6.72c-1,0-1.28,1-1.28,2.67,0,1.81.23,2.85,1.29,2.85.86,0,1.26-.65,1.26-2.74C156.87,91.7,156.66,90.62,155.6,90.62Z"/><path d="M159.33,93.38c0-2.36.62-4,2.81-4S165,91,165,93.38s-.73,4-2.81,4S159.33,95.73,159.33,93.38Zm2.81,2.84c1.1,0,1.3-.92,1.3-2.84,0-1.67-.2-2.85-1.3-2.85s-1.29,1.18-1.29,2.85C160.85,95.3,161.06,96.22,162.14,96.22Z"/><path d="M166.11,89.61h1.51v1.18h0a1.88,1.88,0,0,1,1.75-1.38.92.92,0,0,1,.37.06V91a2.3,2.3,0,0,0-.63-.08c-.69,0-1.52.3-1.52,1.7v4.52h-1.51Z"/><path d="M169.85,89.61h1V87.47h1.52v2.14h1.23v1.12H172.4v4.5c0,.6.16.79.68.79a2.75,2.75,0,0,0,.55,0V97.1a4.64,4.64,0,0,1-1.22.13c-1,0-1.53-.29-1.53-1.82V90.73h-1Z"/><path d="M177.66,91.81v-.2c0-.6-.21-1.16-1-1.16-.61,0-1.08.27-1.08,1s.26.83,1.06,1.11l1,.33A2,2,0,0,1,179.26,95c0,1.61-1.19,2.3-2.7,2.3-1.91,0-2.48-.88-2.48-2.34v-.28h1.34V95c0,.88.29,1.34,1.18,1.34s1.23-.42,1.23-1.1a1.09,1.09,0,0,0-.83-1.11l-1.23-.43a2,2,0,0,1-1.61-2.17c0-1.42,1-2.08,2.58-2.08,1.92,0,2.35,1.12,2.35,2.06v.34Z"/><path d="M188.68,95.58c0,.28.17.53.39.53a.72.72,0,0,0,.25,0v1a1.55,1.55,0,0,1-.74.18c-.67,0-1.23-.27-1.27-1h0a1.94,1.94,0,0,1-1.88,1.11c-1.22,0-2-.66-2-2.11a2.08,2.08,0,0,1,1.75-2.37l1.18-.32c.55-.16.88-.31.88-1s-.24-1.12-1-1.12c-1,0-1.14.71-1.14,1.44h-1.43c0-1.61.66-2.48,2.64-2.48,1.34,0,2.4.52,2.4,1.85Zm-1.43-2.41a12.39,12.39,0,0,1-1.68.7,1.25,1.25,0,0,0-.62,1.22c0,.63.31,1.13.94,1.13.91,0,1.36-.67,1.36-1.79Z"/><path d="M189.55,89.61h1V87.47h1.51v2.14h1.24v1.12h-1.24v4.5c0,.6.17.79.69.79a2.75,2.75,0,0,0,.55,0V97.1a4.64,4.64,0,0,1-1.22.13c-1,0-1.53-.29-1.53-1.82V90.73h-1Z"/><path d="M203.72,93.56v.21c0,1.81-.75,3.57-3.08,3.57-2.53,0-3.31-1.62-3.31-5.2s.78-5.19,3.32-5.19c2.84,0,3,2.08,3,3.14v.18h-1.6V90.1c0-.94-.28-2-1.42-1.95s-1.71.73-1.71,3.95.51,4,1.71,4,1.48-1.47,1.48-2.41v-.17Z"/><path d="M204.74,89.61h1.42v.88h.05a2.15,2.15,0,0,1,1.93-1.08c1.15,0,1.88.52,1.88,2v5.69H208.5V92c0-1-.26-1.36-1.05-1.36-.61,0-1.2.46-1.2,1.47v5.06h-1.51Z"/><path d="M211.18,93.38c0-2.36.61-4,2.8-4s2.81,1.61,2.81,4-.73,4-2.81,4S211.18,95.73,211.18,93.38Zm2.8,2.84c1.1,0,1.3-.92,1.3-2.84,0-1.67-.2-2.85-1.3-2.85s-1.29,1.18-1.29,2.85C212.69,95.3,212.9,96.22,214,96.22Z"/><path d="M221.2,91.81v-.2c0-.6-.21-1.16-1-1.16-.61,0-1.08.27-1.08,1s.26.83,1.06,1.11l1,.33A2,2,0,0,1,222.8,95c0,1.61-1.19,2.3-2.71,2.3-1.9,0-2.48-.88-2.48-2.34v-.28H219V95c0,.88.29,1.34,1.18,1.34s1.23-.42,1.23-1.1a1.09,1.09,0,0,0-.83-1.11l-1.23-.43a2,2,0,0,1-1.61-2.17c0-1.42,1-2.08,2.58-2.08,1.92,0,2.35,1.12,2.35,2.06v.34Z"/><path d="M227.16,91.81v-.2c0-.6-.21-1.16-1-1.16-.6,0-1.08.27-1.08,1s.27.83,1.07,1.11l1,.33A2,2,0,0,1,228.76,95c0,1.61-1.19,2.3-2.7,2.3-1.91,0-2.48-.88-2.48-2.34v-.28h1.34V95c0,.88.3,1.34,1.18,1.34s1.23-.42,1.23-1.1a1.09,1.09,0,0,0-.82-1.11l-1.24-.43a2,2,0,0,1-1.61-2.17c0-1.42,1-2.08,2.58-2.08,1.92,0,2.35,1.12,2.35,2.06v.34Z"/><path d="M233.73,96.26h0a2.15,2.15,0,0,1-1.93,1.08c-1.12,0-1.88-.52-1.88-2.46V89.61h1.51V95c0,.84.37,1.12,1,1.12a1.18,1.18,0,0,0,1.24-1.26V89.61h1.51v7.54h-1.43Z"/><path d="M239.86,91.81v-.2c0-.6-.21-1.16-1-1.16-.6,0-1.08.27-1.08,1s.27.83,1.06,1.11l1,.33A2,2,0,0,1,241.46,95c0,1.61-1.19,2.3-2.7,2.3-1.91,0-2.48-.88-2.48-2.34v-.28h1.34V95c0,.88.3,1.34,1.18,1.34s1.23-.42,1.23-1.1a1.09,1.09,0,0,0-.83-1.11L238,93.66a2,2,0,0,1-1.61-2.17c0-1.42,1-2.08,2.58-2.08,1.92,0,2.35,1.12,2.35,2.06v.34Z"/><path d="M249.19,97.34a1.72,1.72,0,0,1-1.71-1.08h0v3.35h-1.51v-10h1.43v.92h0a1.8,1.8,0,0,1,1.7-1.12c1.72,0,2.42,1.47,2.42,4.07C251.51,96.64,250.24,97.34,249.19,97.34Zm-.55-6.72c-1,0-1.27,1-1.27,2.67,0,1.81.22,2.85,1.28,2.85.86,0,1.26-.65,1.26-2.74C249.91,91.7,249.7,90.62,248.64,90.62Z"/><path d="M252.38,93.38c0-2.36.61-4,2.8-4S258,91,258,93.38s-.72,4-2.81,4S252.38,95.73,252.38,93.38Zm2.8,2.84c1.1,0,1.3-.92,1.3-2.84,0-1.67-.2-2.85-1.3-2.85s-1.29,1.18-1.29,2.85C253.89,95.3,254.1,96.22,255.18,96.22Z"/><path d="M262.4,91.81v-.2c0-.6-.21-1.16-1-1.16-.6,0-1.08.27-1.08,1s.27.83,1.06,1.11l1,.33A2,2,0,0,1,264,95c0,1.61-1.19,2.3-2.7,2.3-1.91,0-2.48-.88-2.48-2.34v-.28h1.34V95c0,.88.3,1.34,1.18,1.34s1.23-.42,1.23-1.1a1.09,1.09,0,0,0-.83-1.11l-1.23-.43a2,2,0,0,1-1.61-2.17c0-1.42,1-2.08,2.58-2.08,1.92,0,2.35,1.12,2.35,2.06v.34Z"/><path d="M268.37,91.81v-.2c0-.6-.21-1.16-1-1.16-.6,0-1.08.27-1.08,1s.27.83,1.07,1.11l1,.33A2,2,0,0,1,270,95c0,1.61-1.19,2.3-2.7,2.3-1.91,0-2.48-.88-2.48-2.34v-.28h1.34V95c0,.88.3,1.34,1.18,1.34s1.23-.42,1.23-1.1a1.09,1.09,0,0,0-.82-1.11l-1.23-.43a2,2,0,0,1-1.62-2.17c0-1.42,1-2.08,2.58-2.08,1.92,0,2.35,1.12,2.35,2.06v.34Z"/><path d="M271.15,87h1.51v1.51h-1.51Zm0,2.58h1.51v7.54h-1.51Z"/><path d="M274.19,87.14h1.51v3.35h0a1.74,1.74,0,0,1,1.71-1.08c1.15,0,2.32.52,2.32,3.87,0,2.59-.71,4.06-2.46,4.06a1.62,1.62,0,0,1-1.66-1.12h0v.93h-1.43Zm2.7,9c1.07,0,1.28-1.08,1.28-2.79,0-2-.33-2.73-1.18-2.73-1.18,0-1.37,1-1.37,2.84C275.62,95.09,275.85,96.14,276.89,96.14Z"/><path d="M281,87.14h1.51v10H281Z"/><path d="M285,89.61l1.3,5.66h0l1.2-5.66h1.59l-2.08,7.82c-.6,2-1.06,2.33-2.63,2.29a3,3,0,0,1-.6,0V98.46a2.05,2.05,0,0,0,.49.06c.52,0,.85-.1,1-.59l.2-.62-2.15-7.7Z"/><path d="M294.87,97.79a1,1,0,0,0,1.09.9,1.25,1.25,0,0,0,1.27-1.42V96.05h0a1.82,1.82,0,0,1-1.71,1c-1.75,0-2.26-1.72-2.26-3.8,0-1.65.25-3.88,2.4-3.88a1.67,1.67,0,0,1,1.65,1.12h0v-.92h1.43v7.17c0,1.84-.79,2.94-2.82,2.94-2.24,0-2.49-1.31-2.49-1.93Zm1.06-1.91c1.18,0,1.3-1.48,1.3-2.67s-.15-2.59-1.2-2.59-1.28,1.12-1.28,2.52S294.81,95.88,295.93,95.88Z"/><path d="M305,95.58c0,.28.17.53.39.53a.78.78,0,0,0,.26,0v1a1.63,1.63,0,0,1-.75.18c-.67,0-1.23-.27-1.27-1h0a1.93,1.93,0,0,1-1.88,1.11c-1.21,0-2-.66-2-2.11a2.08,2.08,0,0,1,1.75-2.37l1.18-.32c.55-.16.88-.31.88-1s-.23-1.12-1-1.12c-1,0-1.15.71-1.15,1.44H300c0-1.61.66-2.48,2.65-2.48,1.33,0,2.39.52,2.39,1.85Zm-1.43-2.41a12.39,12.39,0,0,1-1.68.7,1.24,1.24,0,0,0-.61,1.22c0,.63.3,1.13.93,1.13.91,0,1.36-.67,1.36-1.79Z"/><path d="M305.85,89.61h1.63l1.32,5.94h0l1.2-5.94h1.61l-2,7.54h-1.77Z"/><path d="M313.75,93.57V94c0,1,.13,2.29,1.26,2.29s1.21-1.21,1.21-1.68h1.43A2.48,2.48,0,0,1,315,97.34c-1.23,0-2.76-.36-2.76-3.85,0-2,.43-4.08,2.79-4.08,2.1,0,2.66,1.28,2.66,3.37v.79Zm2.43-1v-.41c0-.95-.31-1.68-1.17-1.68s-1.26,1-1.26,1.93v.16Z"/><path d="M322.29,89.61h1.51v1.18h0a1.88,1.88,0,0,1,1.75-1.38.92.92,0,0,1,.37.06V91a2.24,2.24,0,0,0-.63-.08c-.69,0-1.52.3-1.52,1.7v4.52h-1.51Z"/><path d="M326.77,87h1.51v1.51h-1.51Zm0,2.58h1.51v7.54h-1.51Z"/><path d="M333.06,91.81v-.2c0-.6-.21-1.16-1-1.16-.6,0-1.08.27-1.08,1s.27.83,1.07,1.11l1,.33A2,2,0,0,1,334.66,95c0,1.61-1.2,2.3-2.71,2.3-1.9,0-2.48-.88-2.48-2.34v-.28h1.35V95c0,.88.29,1.34,1.17,1.34s1.24-.42,1.24-1.1a1.09,1.09,0,0,0-.83-1.11l-1.23-.43a2,2,0,0,1-1.61-2.17c0-1.42,1-2.08,2.57-2.08,1.92,0,2.36,1.12,2.36,2.06v.34Z"/><path d="M337.08,93.57V94c0,1,.12,2.29,1.26,2.29s1.2-1.21,1.2-1.68H341a2.48,2.48,0,0,1-2.65,2.72c-1.23,0-2.76-.36-2.76-3.85,0-2,.44-4.08,2.79-4.08,2.1,0,2.66,1.28,2.66,3.37v.79Zm2.42-1v-.41c0-.95-.31-1.68-1.16-1.68s-1.26,1-1.26,1.93v.16Z"/><path d="M344.94,89.61h1V87.47h1.51v2.14h1.23v1.12h-1.23v4.5c0,.6.17.79.69.79a2.7,2.7,0,0,0,.54,0V97.1a4.56,4.56,0,0,1-1.21.13c-1,0-1.53-.29-1.53-1.82V90.73h-1Z"/><path d="M349.21,93.38c0-2.36.62-4,2.8-4s2.82,1.61,2.82,4-.73,4-2.82,4S349.21,95.73,349.21,93.38Zm2.8,2.84c1.11,0,1.31-.92,1.31-2.84,0-1.67-.2-2.85-1.31-2.85s-1.28,1.18-1.28,2.85C350.73,95.3,350.93,96.22,352,96.22Z"/></g><g id="large-2" data-name="large"><path d="M133.22,9.6h-4.17V7.24h11.06V9.6H136V24.74h-2.79Z"/><path d="M141.52,7.24h2.65V13l.07,0a3.78,3.78,0,0,1,3.24-1.82c2,0,3.28.91,3.28,3.58v10h-2.64v-9c0-1.74-.49-2.38-1.84-2.38-1.08,0-2.11.83-2.11,2.57v8.85h-2.65Z"/><path d="M153.43,7.05h2.65V9.69h-2.65Zm0,4.51h2.65V24.74h-2.65Z"/><path d="M158.75,11.56h2.64v2.06h.05a3.26,3.26,0,0,1,3.07-2.41,1.53,1.53,0,0,1,.63.1V14a3.42,3.42,0,0,0-1.1-.15c-1.2,0-2.65.54-2.65,3v7.89h-2.64Z"/><path d="M173.06,23.12H173a2.82,2.82,0,0,1-2.89,2c-3.07,0-4.32-2.59-4.32-7.1,0-5.86,2.06-6.77,4.07-6.77a3,3,0,0,1,3,1.89h0V7.24h2.65v17.5h-2.5Zm-2.41-9.8c-1.49,0-2.05,1.23-2.05,4.78,0,3,.36,4.88,2.23,4.88s2.23-1.84,2.23-4.68C173.06,15.13,172.71,13.32,170.65,13.32Z"/><path d="M184.15,7.24h4.36l3.09,13h.05l3-13H199v17.5h-2.64V10.18h-.05l-3.53,14.56h-2.35l-3.53-14.56h0V24.74h-2.65Z"/><path d="M201.79,7.05h2.65V9.69h-2.65Zm0,4.51h2.65V24.74h-2.65Z"/><path d="M213.85,23.12h0a2.82,2.82,0,0,1-2.89,2c-3.07,0-4.32-2.59-4.32-7.1,0-5.86,2.06-6.77,4.07-6.77a3,3,0,0,1,3,1.89h0V7.24h2.65v17.5h-2.5Zm-2.4-9.8c-1.5,0-2.06,1.23-2.06,4.78,0,3,.36,4.88,2.23,4.88s2.23-1.84,2.23-4.68C213.85,15.13,213.5,13.32,211.45,13.32Z"/><path d="M225.63,23.12h0a2.82,2.82,0,0,1-2.89,2c-3.06,0-4.31-2.59-4.31-7.1,0-5.86,2.06-6.77,4.07-6.77a3,3,0,0,1,3,1.89h0V7.24h2.65v17.5h-2.5Zm-2.4-9.8c-1.5,0-2.06,1.23-2.06,4.78,0,3,.37,4.88,2.23,4.88s2.23-1.84,2.23-4.68C225.63,15.13,225.29,13.32,223.23,13.32Z"/><path d="M230.8,7.24h2.65v17.5H230.8Z"/><path d="M238.39,18.49v.76c0,1.77.22,4,2.21,4s2.11-2.13,2.11-2.94h2.5c0,3-1.77,4.75-4.64,4.75-2.15,0-4.82-.63-4.82-6.74,0-3.45.76-7.13,4.87-7.13,3.68,0,4.66,2.23,4.66,5.88v1.4Zm4.24-1.81V16c0-1.67-.54-2.94-2-2.94-1.67,0-2.21,1.66-2.21,3.38v.27Z"/><path d="M253.51,7.24h4.36l3.09,13H261l3-13h4.26v17.5h-2.65V10.18h0l-3.53,14.56h-2.36L256.2,10.18h0V24.74h-2.65Z"/><path d="M271.15,7.05h2.65V9.69h-2.65Zm0,4.51h2.65V24.74h-2.65Z"/><path d="M276.46,11.56H279V13.1H279a3.77,3.77,0,0,1,3.38-1.89c2,0,3.28.91,3.28,3.58v10h-2.64v-9c0-1.77-.47-2.38-1.84-2.38-1.08,0-2.11.81-2.11,2.57v8.85h-2.65Z"/><path d="M287.73,18.15c0-4.12,1.08-6.94,4.91-6.94s4.92,2.82,4.92,6.94-1.27,6.93-4.92,6.93S287.73,22.27,287.73,18.15Zm4.91,5c1.93,0,2.27-1.61,2.27-5,0-2.92-.34-5-2.27-5s-2.26,2.06-2.26,5C290.38,21.51,290.75,23.12,292.64,23.12Z"/><path d="M308.24,22c0,.49.3.93.69.93a1,1,0,0,0,.44-.08v1.72a2.83,2.83,0,0,1-1.3.32c-1.18,0-2.16-.47-2.23-1.74h0a3.39,3.39,0,0,1-3.28,1.93c-2.13,0-3.43-1.15-3.43-3.7,0-2.94,1.3-3.55,3.06-4.14l2.06-.56c.95-.27,1.54-.54,1.54-1.69s-.41-2-1.81-2c-1.77,0-2,1.25-2,2.52h-2.5c0-2.82,1.15-4.34,4.63-4.34,2.33,0,4.19.91,4.19,3.24Zm-2.5-4.22A21.19,21.19,0,0,1,302.8,19a2.16,2.16,0,0,0-1.08,2.13c0,1.1.54,2,1.65,2,1.59,0,2.37-1.17,2.37-3.13Z"/><path d="M310.94,11.56h2.49V13.1h.08a3.77,3.77,0,0,1,3.38-1.89c2,0,3.28.91,3.28,3.58v10h-2.64v-9c0-1.77-.47-2.38-1.84-2.38-1.08,0-2.11.81-2.11,2.57v8.85h-2.64Z"/><path d="M328.77,7.24h5.54c3.36,0,4.83,2.11,4.83,5.1,0,3.14-1.87,5.17-5.12,5.17h-2.46v7.23h-2.79Zm2.79,8.16h2c1.49,0,2.79-.78,2.79-3,0-1.89-.76-3-3-3h-1.79Z"/><path d="M343.13,18.49v.76c0,1.77.22,4,2.2,4s2.11-2.13,2.11-2.94h2.5c0,3-1.76,4.75-4.63,4.75-2.16,0-4.83-.63-4.83-6.74,0-3.45.76-7.13,4.88-7.13,3.67,0,4.65,2.23,4.65,5.88v1.4Zm4.24-1.81V16c0-1.67-.54-2.94-2-2.94-1.66,0-2.2,1.66-2.2,3.38v.27Z"/><path d="M352.19,11.56h2.65v2.06h.05A3.26,3.26,0,0,1,358,11.21a1.59,1.59,0,0,1,.64.1V14a3.51,3.51,0,0,0-1.1-.15c-1.2,0-2.65.54-2.65,3v7.89h-2.65Z"/><path d="M360,7.05h2.65V9.69H360Zm0,4.51h2.65V24.74H360Z"/><path d="M364.83,18.15c0-4.12,1.08-6.94,4.9-6.94s4.93,2.82,4.93,6.94-1.27,6.93-4.93,6.93S364.83,22.27,364.83,18.15Zm4.9,5c1.94,0,2.28-1.61,2.28-5,0-2.92-.34-5-2.28-5s-2.25,2.06-2.25,5C367.48,21.51,367.85,23.12,369.73,23.12Z"/><path d="M383.43,23.12h-.05a2.82,2.82,0,0,1-2.89,2c-3.06,0-4.31-2.59-4.31-7.1,0-5.86,2.06-6.77,4.07-6.77a3,3,0,0,1,3,1.89h0V7.24h2.65v17.5h-2.5Zm-2.4-9.8c-1.5,0-2.06,1.23-2.06,4.78,0,3,.37,4.88,2.23,4.88s2.23-1.84,2.23-4.68C383.43,15.13,383.09,13.32,381,13.32Z"/></g></g></g></g></svg>