<svg id="Text" xmlns="http://www.w3.org/2000/svg" viewBox="0 0 1847.91 112.27"><title>bc1700text</title><g id="Hittites"><path d="M693.82,17.63h2.79v7h5.15v-7h2.79v17.5h-2.79V27h-5.15v8.14h-2.79Z"/><path d="M707.32,17.63h2.79v17.5h-2.79Z"/><path d="M715.75,20h-4.17V17.63h11V20h-4.09V35.13h-2.79Z"/><path d="M727.09,20h-4.17V17.63H734V20h-4.1V35.13h-2.79Z"/><path d="M735.44,17.63h2.8v17.5h-2.8Z"/><path d="M743.87,20h-4.16V17.63h11V20h-4.09V35.13h-2.8Z"/><path d="M752.35,17.63h9.46V20h-6.67v4.85h6.27v2.36h-6.27v5.58H762v2.36h-9.65Z"/><path d="M766.29,29.71v.44c0,2.13,1,3.21,2.87,3.21a2.5,2.5,0,0,0,2.64-2.55c0-1.83-.93-2.64-2.5-3.11L767.39,27c-2.55-1-3.65-2.3-3.65-4.8,0-3.19,2.18-4.95,5.44-4.95,4.48,0,5,2.79,5,4.6v.4h-2.79v-.37c0-1.59-.69-2.53-2.45-2.53a2.25,2.25,0,0,0-2.36,2.53c0,1.49.76,2.25,2.63,3l1.88.69c2.48.88,3.56,2.2,3.56,4.63,0,3.73-2.26,5.27-5.79,5.27-4.33,0-5.31-2.89-5.31-5.34v-.42Z"/></g><g id="Egytians"><path d="M481.17,82.76H484v7h5.15v-7h2.79v17.5h-2.79V92.13H484v8.13h-2.79Z"/><path d="M496.39,87.08l2.27,9.9h0l2.11-9.9h2.77L500,100.75c-1,3.6-1.86,4.09-4.6,4a4.76,4.76,0,0,1-1.06-.1v-2.11a3.2,3.2,0,0,0,.86.1c.91,0,1.5-.17,1.79-1l.34-1.07-3.75-13.48Z"/><path d="M505.06,82.76h2.64v9.83h.05l4-5.51,3.06,0-4,5.1,4.49,8.11h-2.9l-3.23-6-1.5,1.81v4.19h-2.64Z"/><path d="M522.09,90.92v-.34c0-1-.37-2-1.74-2-1.06,0-1.89.46-1.89,1.71,0,1.06.47,1.45,1.86,1.94l1.69.59c2,.66,2.87,1.71,2.87,3.8,0,2.81-2.08,4-4.73,4-3.33,0-4.34-1.54-4.34-4.09V96h2.36v.42c0,1.54.51,2.35,2.05,2.35s2.16-.73,2.16-1.93a1.91,1.91,0,0,0-1.45-1.94l-2.15-.76c-2-.66-2.82-1.69-2.82-3.8,0-2.47,1.77-3.63,4.51-3.63,3.36,0,4.12,2,4.12,3.61v.58Z"/><path d="M526.32,93.67c0-4.12,1.08-6.94,4.91-6.94s4.92,2.82,4.92,6.94-1.27,6.93-4.92,6.93S526.32,97.79,526.32,93.67Zm4.91,5c1.93,0,2.27-1.61,2.27-5,0-2.92-.34-5-2.27-5s-2.26,2.06-2.26,5C529,97,529.34,98.64,531.23,98.64Z"/><path d="M543.87,90.92v-.34c0-1-.37-2-1.74-2-1.06,0-1.89.46-1.89,1.71,0,1.06.47,1.45,1.86,1.94l1.69.59c2,.66,2.87,1.71,2.87,3.8,0,2.81-2.08,4-4.73,4-3.33,0-4.34-1.54-4.34-4.09V96H540v.42c0,1.54.51,2.35,2,2.35s2.16-.73,2.16-1.93a1.91,1.91,0,0,0-1.44-1.94l-2.16-.76c-2-.66-2.82-1.69-2.82-3.8,0-2.47,1.77-3.63,4.51-3.63,3.36,0,4.12,2,4.12,3.61v.58Z"/><path d="M554.67,82.76h2.79v7.63h0l5.3-7.63h3.06l-5,7.38,5.59,10.12h-3.16L559,92.4l-1.55,2.2v5.66h-2.79Z"/><path d="M567.34,82.57H570v2.65h-2.64Zm0,4.51H570v13.18h-2.64Z"/><path d="M572.65,87.08h2.5v1.54h.08a3.79,3.79,0,0,1,3.38-1.89c2,0,3.28.91,3.28,3.58v10h-2.65v-9c0-1.77-.46-2.38-1.83-2.38-1.08,0-2.11.81-2.11,2.58v8.84h-2.65Z"/><path d="M587.08,101.39A1.73,1.73,0,0,0,589,103a2.19,2.19,0,0,0,2.23-2.48V98.35h-.05a3.19,3.19,0,0,1-3,1.81c-3.07,0-4-3-4-6.64,0-2.89.44-6.79,4.19-6.79a2.91,2.91,0,0,1,2.89,2h0V87.08h2.5V99.62c0,3.21-1.37,5.15-4.92,5.15-3.93,0-4.37-2.3-4.37-3.38ZM589,98.06c2,0,2.28-2.6,2.28-4.68s-.27-4.54-2.11-4.54-2.23,2-2.23,4.41C586.89,95.51,587,98.06,589,98.06Z"/><path d="M601.91,90.92v-.34c0-1-.37-2-1.74-2-1.06,0-1.89.46-1.89,1.71,0,1.06.47,1.45,1.86,1.94l1.69.59c2,.66,2.87,1.71,2.87,3.8,0,2.81-2.08,4-4.73,4-3.33,0-4.34-1.54-4.34-4.09V96H598v.42c0,1.54.51,2.35,2,2.35s2.16-.73,2.16-1.93a1.91,1.91,0,0,0-1.45-1.94l-2.15-.76c-2-.66-2.82-1.69-2.82-3.8,0-2.47,1.76-3.63,4.51-3.63,3.36,0,4.12,2,4.12,3.61v.58Z"/></g></svg>