<svg xmlns="http://www.w3.org/2000/svg" viewBox="0 0 1847.91 112.67"><title>bc1850text</title><g id="Text"><g id="Egytians"><path d="M565.54,88.22H575v2.36h-6.66v4.85h6.27v2.35h-6.27v5.59h6.86v2.35h-9.66Z"/><path d="M586,103.69h-.05a3.64,3.64,0,0,1-3.83,2.37c-3.82,0-5.19-2.84-5.19-9.09s1.76-9.09,5.81-9.09a4.77,4.77,0,0,1,5.12,5.05v.32h-2.65v-.42c0-1.3-.54-2.84-2.45-2.84s-3,1.32-3,6.91.93,7.06,2.82,7.06c2.13,0,2.92-1.52,2.92-5.35H582.5v-2.1h5.58v9.21H586Z"/><path d="M593.45,98.88l-4.51-10.66h3.11L595,95.77l3-7.55h2.91l-4.68,10.66v6.84h-2.79Z"/><path d="M602.27,88.22h5.53c3.36,0,4.83,2.11,4.83,5.1,0,3.14-1.86,5.17-5.12,5.17h-2.45v7.23h-2.79Zm2.79,8.16h2c1.49,0,2.79-.78,2.79-3,0-1.89-.76-3-3-3h-1.79Z"/><path d="M617.38,90.58h-4.16V88.22h11v2.36h-4.09v15.14h-2.8Z"/><path d="M625.74,88.22h2.79v17.5h-2.79Z"/><path d="M634.61,88.22h3.57l4.61,17.5h-2.91l-1.08-4.29h-5.12l-1.13,4.29h-2.92Zm3.72,11-2-8.62h-.05l-2.08,8.62Z"/><path d="M644,88.22h3.41l5.07,13h0v-13h2.65v17.5h-3.41l-5.07-13.38h-.05v13.38H644Z"/><path d="M660.23,100.3v.45c0,2.13,1,3.21,2.87,3.21a2.51,2.51,0,0,0,2.65-2.55c0-1.84-.93-2.65-2.5-3.12l-1.91-.66c-2.55-1-3.66-2.3-3.66-4.8,0-3.19,2.19-5,5.44-5,4.49,0,5,2.79,5,4.61v.39h-2.8v-.37c0-1.59-.68-2.52-2.45-2.52a2.23,2.23,0,0,0-2.35,2.52c0,1.5.76,2.26,2.62,3l1.89.68c2.47.89,3.55,2.21,3.55,4.63,0,3.73-2.25,5.27-5.78,5.27-4.34,0-5.32-2.89-5.32-5.34v-.42Z"/></g><g id="Amorites"><path d="M1089,50.22h5.66c2.62,0,4.7,1.18,4.7,4.24q0,3.16-2.57,4v0c1.91.34,3.14,1.5,3.14,4.46s-2.11,4.78-5.4,4.78H1089Zm5,7.38a2.45,2.45,0,0,0,2.57-2.77c0-2.08-1.25-2.5-2.82-2.5h-2V57.6Zm.56,8c1.66,0,2.57-1,2.57-3.08a2.65,2.65,0,0,0-2.74-3h-2.6v6Z"/><path d="M1110.59,65c0,.49.3.93.69.93a1,1,0,0,0,.44-.08v1.72a2.86,2.86,0,0,1-1.3.32c-1.18,0-2.16-.47-2.23-1.74h0a3.39,3.39,0,0,1-3.28,1.93c-2.13,0-3.43-1.15-3.43-3.7,0-2.94,1.3-3.55,3.06-4.14l2.06-.56c1-.27,1.54-.54,1.54-1.69s-.41-2-1.81-2c-1.77,0-2,1.25-2,2.52h-2.5c0-2.82,1.15-4.34,4.63-4.34,2.33,0,4.19.91,4.19,3.24Zm-2.5-4.22a21.19,21.19,0,0,1-2.94,1.23,2.16,2.16,0,0,0-1.08,2.13c0,1.1.54,2,1.65,2,1.59,0,2.37-1.17,2.37-3.13Z"/><path d="M1113.28,50.22h2.65v5.86h0a3,3,0,0,1,3-1.89c2,0,4.07.91,4.07,6.77,0,4.53-1.25,7.1-4.32,7.1a2.82,2.82,0,0,1-2.89-2h0v1.62h-2.5ZM1118,66c1.87,0,2.23-1.89,2.23-4.88,0-3.55-.56-4.78-2.06-4.78-2,0-2.4,1.81-2.4,5C1115.78,64.12,1116.2,66,1118,66Z"/><path d="M1126.54,54.54l2.28,9.9h0l2.1-9.9h2.77l-3.62,13.67c-1.06,3.6-1.87,4.09-4.61,4a5.26,5.26,0,0,1-1-.1V70a3.09,3.09,0,0,0,.85.1c.91,0,1.5-.17,1.79-1l.35-1.08-3.75-13.47Z"/><path d="M1135.33,50.22H1138v17.5h-2.65Z"/><path d="M1140.14,61.13c0-4.12,1.07-6.94,4.9-6.94S1150,57,1150,61.13s-1.27,6.93-4.92,6.93S1140.14,65.24,1140.14,61.13Zm4.9,5c1.93,0,2.28-1.61,2.28-5,0-2.92-.35-5-2.28-5s-2.26,2.06-2.26,5C1142.78,64.49,1143.15,66.1,1145,66.1Z"/><path d="M1152,54.54h2.5v1.54h.08a3.77,3.77,0,0,1,3.38-1.89c2,0,3.28.91,3.28,3.58v9.95h-2.64v-9c0-1.77-.47-2.38-1.84-2.38-1.08,0-2.11.81-2.11,2.57v8.85H1152Z"/><path d="M1163.9,50h2.65v2.64h-2.65Zm0,4.51h2.65V67.72h-2.65Z"/><path d="M1177.87,65c0,.49.29.93.68.93a1,1,0,0,0,.44-.08v1.72a2.79,2.79,0,0,1-1.3.32c-1.17,0-2.15-.47-2.22-1.74h0a3.41,3.41,0,0,1-3.29,1.93c-2.13,0-3.43-1.15-3.43-3.7,0-2.94,1.3-3.55,3.06-4.14l2.06-.56c1-.27,1.55-.54,1.55-1.69s-.42-2-1.82-2c-1.76,0-2,1.25-2,2.52H1169c0-2.82,1.16-4.34,4.64-4.34,2.32,0,4.19.91,4.19,3.24Zm-2.5-4.22a22.26,22.26,0,0,1-2.94,1.23,2.16,2.16,0,0,0-1.08,2.13c0,1.1.54,2,1.64,2,1.59,0,2.38-1.17,2.38-3.13Z"/><path d="M1180.56,54.54h2.5v1.54h.07a3.77,3.77,0,0,1,3.38-1.89c2,0,3.29.91,3.29,3.58v9.95h-2.65v-9c0-1.77-.46-2.38-1.84-2.38-1.08,0-2.1.81-2.1,2.57v8.85h-2.65Z"/><path d="M1198,58.38V58c0-1-.37-2-1.74-2-1.06,0-1.89.46-1.89,1.71,0,1.06.47,1.45,1.86,1.94l1.7.59c2,.66,2.86,1.71,2.86,3.79,0,2.82-2.08,4-4.73,4-3.33,0-4.33-1.54-4.33-4.09v-.49h2.35v.42c0,1.54.51,2.35,2.06,2.35s2.15-.74,2.15-1.94a1.91,1.91,0,0,0-1.44-1.93l-2.16-.76c-2-.66-2.82-1.69-2.82-3.8,0-2.47,1.77-3.63,4.51-3.63,3.36,0,4.12,2,4.12,3.61v.58Z"/></g><g id="Ageans"><g id="Title"><path d="M94.92,23.41v.44c0,2.13,1,3.21,2.87,3.21a2.51,2.51,0,0,0,2.65-2.55c0-1.83-.93-2.64-2.5-3.11L96,20.74c-2.55-1-3.66-2.3-3.66-4.8,0-3.19,2.19-4.95,5.44-4.95,4.49,0,5,2.79,5,4.6V16H100v-.37c0-1.6-.69-2.53-2.45-2.53a2.23,2.23,0,0,0-2.35,2.53c0,1.49.76,2.25,2.62,3l1.89.69c2.47.88,3.55,2.2,3.55,4.63,0,3.73-2.25,5.27-5.78,5.27-4.34,0-5.32-2.89-5.32-5.34v-.42Z"/><path d="M107.59,22.58v.76c0,1.76.22,4,2.2,4s2.11-2.14,2.11-2.95h2.5c0,3-1.76,4.76-4.63,4.76-2.16,0-4.83-.64-4.83-6.74,0-3.46.76-7.13,4.88-7.13,3.67,0,4.66,2.23,4.66,5.88v1.4Zm4.24-1.82v-.71c0-1.66-.54-2.94-2-2.94-1.66,0-2.2,1.67-2.2,3.38v.27Z"/><path d="M125.55,24c-.2,3.16-1.23,5.15-4.51,5.15-3.82,0-4.9-2.82-4.9-6.94s1.08-6.93,4.9-6.93,4.53,3.11,4.53,4.73h-2.64c0-1.23-.32-2.84-1.89-2.77-1.89,0-2.25,2.06-2.25,5s.36,5,2.25,5c1.47,0,2-1.2,2-3.19Z"/><path d="M127,22.23c0-4.11,1.07-6.93,4.9-6.93s4.92,2.82,4.92,6.93-1.27,6.94-4.92,6.94S127,26.35,127,22.23Zm4.9,5c1.93,0,2.28-1.62,2.28-5,0-2.91-.35-5-2.28-5s-2.26,2.06-2.26,5C129.66,25.59,130,27.21,131.92,27.21Z"/><path d="M138.87,15.64h2.5v1.55h.08a3.77,3.77,0,0,1,3.38-1.89c2,0,3.28.91,3.28,3.58v10h-2.64v-9c0-1.76-.47-2.37-1.84-2.37-1.08,0-2.11.81-2.11,2.57v8.85h-2.65Z"/><path d="M157.4,27.21h-.05a2.82,2.82,0,0,1-2.89,2c-3.07,0-4.32-2.6-4.32-7.11,0-5.85,2.06-6.76,4.07-6.76a3,3,0,0,1,3,1.89h.05V11.33h2.65v17.5h-2.5Zm-2.4-9.8c-1.5,0-2.06,1.22-2.06,4.77,0,3,.36,4.88,2.23,4.88s2.23-1.84,2.23-4.68C157.4,19.22,157.05,17.41,155,17.41Z"/><path d="M168.49,11.33h4.37l3.08,13H176l3-13h4.26v17.5h-2.64V14.27h-.05l-3.53,14.56h-2.35l-3.53-14.56h-.05V28.83h-2.65Z"/><path d="M186.13,11.13h2.65v2.65h-2.65Zm0,4.51h2.65V28.83h-2.65Z"/><path d="M198.19,27.21h-.05a2.82,2.82,0,0,1-2.89,2c-3.07,0-4.32-2.6-4.32-7.11,0-5.85,2.06-6.76,4.07-6.76a3,3,0,0,1,3,1.89h0V11.33h2.65v17.5h-2.5Zm-2.4-9.8c-1.5,0-2.06,1.22-2.06,4.77,0,3,.37,4.88,2.23,4.88s2.23-1.84,2.23-4.68C198.19,19.22,197.85,17.41,195.79,17.41Z"/><path d="M210,27.21h-.05a2.82,2.82,0,0,1-2.89,2c-3.06,0-4.31-2.6-4.31-7.11,0-5.85,2.06-6.76,4.07-6.76a3.05,3.05,0,0,1,3,1.89h.05V11.33h2.64v17.5H210Zm-2.4-9.8c-1.49,0-2.06,1.22-2.06,4.77,0,3,.37,4.88,2.23,4.88S210,25.22,210,22.38C210,19.22,209.63,17.41,207.57,17.41Z"/><path d="M215.14,11.33h2.65v17.5h-2.65Z"/><path d="M222.73,22.58v.76c0,1.76.23,4,2.21,4s2.11-2.14,2.11-2.95h2.5c0,3-1.77,4.76-4.63,4.76-2.16,0-4.83-.64-4.83-6.74,0-3.46.76-7.13,4.87-7.13,3.68,0,4.66,2.23,4.66,5.88v1.4ZM227,20.76v-.71c0-1.66-.54-2.94-2-2.94-1.67,0-2.21,1.67-2.21,3.38v.27Z"/><path d="M237.85,11.33h4.36l3.09,13h0l3-13h4.26v17.5H250V14.27h0l-3.53,14.56h-2.35l-3.53-14.56h-.05V28.83h-2.65Z"/><path d="M255.49,11.13h2.65v2.65h-2.65Zm0,4.51h2.65V28.83h-2.65Z"/><path d="M260.81,15.64h2.5v1.55h.07a3.77,3.77,0,0,1,3.38-1.89c2,0,3.28.91,3.28,3.58v10H267.4v-9c0-1.76-.47-2.37-1.84-2.37-1.08,0-2.11.81-2.11,2.57v8.85h-2.64Z"/><path d="M272.08,22.23c0-4.11,1.07-6.93,4.9-6.93s4.92,2.82,4.92,6.93-1.27,6.94-4.92,6.94S272.08,26.35,272.08,22.23Zm4.9,5c1.93,0,2.28-1.62,2.28-5,0-2.91-.35-5-2.28-5s-2.26,2.06-2.26,5C274.72,25.59,275.09,27.21,277,27.21Z"/><path d="M292.58,26.08c0,.49.3.93.69.93a1,1,0,0,0,.44-.07v1.71a2.71,2.71,0,0,1-1.3.32c-1.17,0-2.15-.46-2.23-1.74h-.05a3.4,3.4,0,0,1-3.28,1.94c-2.13,0-3.43-1.15-3.43-3.7,0-2.94,1.3-3.55,3.06-4.14l2.06-.57c1-.27,1.54-.54,1.54-1.69s-.41-2-1.81-2c-1.76,0-2,1.25-2,2.53h-2.5c0-2.82,1.15-4.34,4.63-4.34,2.33,0,4.19.91,4.19,3.23Zm-2.5-4.21a20,20,0,0,1-2.94,1.22,2.16,2.16,0,0,0-1.07,2.13c0,1.11.53,2,1.64,2,1.59,0,2.37-1.18,2.37-3.14Z"/><path d="M295.28,15.64h2.5v1.55h.07a3.77,3.77,0,0,1,3.38-1.89c2,0,3.29.91,3.29,3.58v10h-2.65v-9c0-1.76-.47-2.37-1.84-2.37-1.08,0-2.11.81-2.11,2.57v8.85h-2.64Z"/><path d="M170.06,38.33h5.54c3.36,0,4.83,2.11,4.83,5.1s-1.86,5.17-5.12,5.17h-2.45v7.23h-2.8Zm2.8,8.16h2c1.5,0,2.79-.78,2.79-3,0-1.88-.76-3-3-3h-1.78Z"/><path d="M184.42,49.58v.76c0,1.76.22,4,2.2,4s2.11-2.14,2.11-3h2.5c0,3-1.76,4.76-4.63,4.76-2.16,0-4.83-.64-4.83-6.74,0-3.46.76-7.13,4.88-7.13,3.68,0,4.66,2.23,4.66,5.88v1.4Zm4.24-1.82v-.71c0-1.66-.54-2.94-2-2.94-1.66,0-2.2,1.67-2.2,3.38v.27Z"/><path d="M193.48,42.64h2.65V44.7h.05a3.26,3.26,0,0,1,3.06-2.4,1.43,1.43,0,0,1,.64.1v2.69a3.91,3.91,0,0,0-1.1-.14c-1.2,0-2.65.53-2.65,3v7.89h-2.65Z"/><path d="M201.32,38.13H204v2.65h-2.65Zm0,4.51H204V55.83h-2.65Z"/><path d="M206.12,49.23c0-4.11,1.08-6.93,4.91-6.93S216,45.12,216,49.23s-1.27,6.94-4.92,6.94S206.12,53.35,206.12,49.23Zm4.91,5c1.93,0,2.28-1.62,2.28-5,0-2.91-.35-5-2.28-5s-2.26,2.06-2.26,5C208.77,52.59,209.14,54.21,211,54.21Z"/><path d="M224.72,54.21h-.05a2.82,2.82,0,0,1-2.89,2c-3.06,0-4.31-2.6-4.31-7.11,0-5.85,2.06-6.76,4.07-6.76a3.05,3.05,0,0,1,3,1.89h0V38.33h2.65v17.5h-2.5Zm-2.4-9.8c-1.49,0-2.06,1.22-2.06,4.77,0,3,.37,4.88,2.23,4.88s2.23-1.84,2.23-4.68C224.72,46.22,224.38,44.41,222.32,44.41Z"/></g></g></g><g id="YEARS"><g id="Right"><path d="M1783.6,104.26V90.9h-3.82V89h.29c1.77,0,3.79-.44,4.34-2.75v-.37h2.16v18.41Z"/><path d="M1791.38,99.11c0-2.73,1.3-4.21,3.14-4.6v-.05c-1.58-.55-2.54-1.77-2.54-4,0-2.89,1.87-4.63,5-4.63s5,1.74,5,4.63c0,2.21-1,3.43-2.55,4v.05c1.85.39,3.15,1.87,3.15,4.6,0,3.64-1.8,5.51-5.57,5.51S1791.38,102.75,1791.38,99.11Zm5.56,3.43c2.08,0,2.6-1.53,2.6-3.48s-.52-3.48-2.6-3.48-2.6,1.53-2.6,3.48S1794.86,102.54,1796.94,102.54Zm0-9c1.85,0,2.32-1.36,2.32-2.81s-.47-2.76-2.32-2.76-2.31,1.3-2.31,2.76S1795.1,93.5,1796.94,93.5Z"/><path d="M1804,99.29h2.81v.5a2.35,2.35,0,0,0,2.42,2.6c2.08,0,2.62-2,2.62-4.19s-.57-3.92-2.47-3.92A2.34,2.34,0,0,0,1807,96l-2.63-.11.91-9.64h8.87v2.36h-6.66l-.6,4.84.05,0A4.08,4.08,0,0,1,1810,92c3.85,0,4.81,3.25,4.81,6.08,0,3.7-1.69,6.5-5.67,6.5-3.3,0-5.15-1.69-5.15-4.94Z"/><path d="M1821.9,85.85c3.54,0,5.51,2.21,5.51,9.39s-2,9.38-5.51,9.38-5.51-2.21-5.51-9.38S1818.36,85.85,1821.9,85.85Zm0,16.69c2,0,2.55-2,2.55-7.3s-.55-7.31-2.55-7.31-2.55,2-2.55,7.31S1819.9,102.54,1821.9,102.54Z"/></g><g id="Layer_34" data-name="Layer 34"><path d="M23.85,107.86V94.49H20V92.57h.29c1.77,0,3.79-.44,4.34-2.76v-.36h2.16v18.41Z"/><path d="M31.63,102.71c0-2.73,1.3-4.21,3.14-4.6v0c-1.58-.55-2.54-1.77-2.54-4,0-2.89,1.87-4.63,5-4.63s5,1.74,5,4.63c0,2.21-1,3.43-2.55,4v0c1.85.39,3.15,1.87,3.15,4.6,0,3.64-1.8,5.51-5.57,5.51S31.63,106.35,31.63,102.71Zm5.56,3.43c2.08,0,2.6-1.53,2.6-3.48s-.52-3.49-2.6-3.49-2.6,1.54-2.6,3.49S35.11,106.14,37.19,106.14Zm0-9c1.85,0,2.32-1.35,2.32-2.8s-.47-2.76-2.32-2.76-2.31,1.3-2.31,2.76S35.35,97.09,37.19,97.09Z"/><path d="M44.26,102.89h2.81v.5a2.36,2.36,0,0,0,2.42,2.6c2.08,0,2.63-2,2.63-4.19s-.58-3.93-2.48-3.93a2.35,2.35,0,0,0-2.41,1.69l-2.63-.1.91-9.65h8.87v2.37H47.72L47.12,97l.05,0a4.08,4.08,0,0,1,3.1-1.43c3.85,0,4.81,3.25,4.81,6.08,0,3.69-1.69,6.5-5.67,6.5-3.3,0-5.15-1.69-5.15-4.94Z"/><path d="M62.15,89.45c3.54,0,5.51,2.21,5.51,9.39s-2,9.38-5.51,9.38-5.51-2.21-5.51-9.38S58.61,89.45,62.15,89.45Zm0,16.69c2,0,2.55-2,2.55-7.3s-.55-7.31-2.55-7.31-2.55,2-2.55,7.31S60.15,106.14,62.15,106.14Z"/></g></g></svg>