<svg xmlns="http://www.w3.org/2000/svg" viewBox="0 0 1698.3 107.62"><defs><style>.cls-1{opacity:0.82;}.cls-2{fill:none;stroke:#fff;}.cls-10,.cls-2,.cls-3,.cls-4,.cls-5,.cls-6,.cls-7,.cls-8,.cls-9{stroke-miterlimit:10;}.cls-3{fill:#e96b41;}.cls-10,.cls-3,.cls-4,.cls-5,.cls-6,.cls-7,.cls-8,.cls-9{stroke:#000;stroke-width:4px;}.cls-4{fill:#e59b96;}.cls-5{fill:#e7ce6c;}.cls-6{fill:#658f63;}.cls-7{fill:#8ea8a3;}.cls-8{fill:#e09993;}.cls-9{fill:#ecd862;}.cls-10{fill:#eb7347;}</style></defs><title>bc1850</title><g id="Layer_1" data-name="Layer 1" class="cls-1"><g id="Template"><rect id="Chart_border" data-name="Chart border" class="cls-2" x="1.93" y="-220.79" width="1694.92" height="334.79"/></g><g id="_1900_BC" data-name="1900 BC"><g id="nations"><polygon id="aegeans" class="cls-3" points="243.74 0.2 1.96 0.2 1.95 -110.44 243.73 -110.44 243.74 0.2"/><polygon id="egyptians" class="cls-4" points="906.41 0.2 243.74 0.2 243.73 -110.44 969.03 -110.44 906.41 0.2"/><polygon id="hitities" class="cls-5" points="950.99 0.2 906.41 0.2 969.03 -110.44 1016.81 -110.44 950.99 0.2"/><polygon id="amorites" class="cls-6" points="1203.41 0.2 950.32 0.79 1016.81 -110.44 1196.81 -110.44 1203.41 0.2"/><polygon id="iranians" class="cls-7" points="1407.99 -0.39 1204.07 -0.39 1196.81 -110.44 1372.81 -110.44 1407.99 -0.39"/><polygon id="indians" class="cls-8" points="1517.41 0.2 1407.99 -0.39 1372.81 -110.44 1507.31 -110.44 1517.41 0.2"/><polygon id="huns" class="cls-9" points="1596.91 0.2 1517.41 0.2 1507.31 -110.44 1578.81 -110.44 1596.91 0.2"/><polygon id="chinese" class="cls-10" points="1696.87 0.2 1596.91 0.2 1578.81 -110.44 1696.86 -110.44 1696.87 0.2"/></g></g><g id="_1850_BC" data-name="1850 BC"><g id="nations-2" data-name="nations"><polygon id="aegeans-2" data-name="aegeans" class="cls-3" points="325.91 110.59 1.97 110.59 1.96 -0.64 243.75 -0.05 325.91 110.59"/><polygon id="egyptians-2" data-name="egyptians" class="cls-4" points="865.24 110.59 325.91 110.59 243.75 -0.05 906.41 -0.64 865.24 110.59"/><polygon id="hitities-2" data-name="hitities" class="cls-5" points="951.01 110.59 865.24 110.59 906.41 -0.64 950.32 -0.05 951.01 110.59"/><polygon id="amorites-2" data-name="amorites" class="cls-6" points="1203.42 110.59 950.34 111.19 950.32 -0.05 1204.07 -1.23 1203.42 110.59"/><polygon id="iranians-2" data-name="iranians" class="cls-7" points="1385.91 110 1204.09 110 1203.41 -0.64 1407.99 -1.23 1385.91 110"/><polygon id="indians-2" data-name="indians" class="cls-8" points="1477.9 110.42 1385.91 110 1407.99 -1.23 1517.41 -0.64 1477.9 110.42"/><polygon id="huns-2" data-name="huns" class="cls-9" points="1569.91 110 1477.9 110.42 1517.41 -0.64 1596.91 -0.64 1569.91 110"/><polygon id="chinese-2" data-name="chinese" class="cls-10" points="1696.88 110.59 1569.91 110 1596.91 -0.64 1696.88 -0.05 1696.88 110.59"/></g></g></g></svg>