<svg id="Text" xmlns="http://www.w3.org/2000/svg" viewBox="0 0 1847.91 112"><title>bc1800text</title><g id="Ageans"><g id="Title"><path d="M202.34,77.91h3.58l4.61,17.5h-2.92l-1.08-4.29h-5.12l-1.13,4.29h-2.91Zm3.73,11-2-8.63H204l-2.08,8.63Z"/><path d="M211.75,77.91h9.46v2.35h-6.67v4.86h6.28v2.35h-6.28v5.58h6.86v2.36h-9.65Z"/><path d="M232.18,93.37h-.05a3.62,3.62,0,0,1-3.82,2.38c-3.82,0-5.19-2.84-5.19-9.09s1.76-9.09,5.8-9.09a4.77,4.77,0,0,1,5.13,5.05v.31H231.4v-.41c0-1.3-.54-2.85-2.45-2.85s-3,1.33-3,6.92.93,7,2.82,7c2.13,0,2.91-1.52,2.91-5.34H228.7V86.19h5.59v9.22h-2.11Z"/><path d="M236.69,77.91h9.46v2.35h-6.67v4.86h6.28v2.35h-6.28v5.58h6.86v2.36h-9.65Z"/><path d="M251.78,77.91h3.58L260,95.41h-2.92L256,91.12h-5.12l-1.13,4.29h-2.91Zm3.73,11-2-8.63h-.05l-2.08,8.63Z"/><path d="M261.19,77.91h3.41l5.07,13h.05v-13h2.64v17.5H269L263.88,82h0V95.41h-2.65Z"/><path d="M277.41,90v.44c0,2.14.95,3.21,2.87,3.21a2.5,2.5,0,0,0,2.64-2.55c0-1.83-.93-2.64-2.5-3.11l-1.91-.66c-2.55-1-3.65-2.3-3.65-4.8,0-3.19,2.18-5,5.44-5,4.48,0,4.95,2.79,4.95,4.6v.4h-2.79V82.2c0-1.59-.69-2.53-2.45-2.53a2.24,2.24,0,0,0-2.36,2.53c0,1.49.76,2.25,2.63,3l1.88.69c2.48.88,3.56,2.21,3.56,4.63,0,3.73-2.26,5.27-5.79,5.27-4.34,0-5.32-2.89-5.32-5.34V90Z"/></g></g><g id="Iranians"><path d="M1291,23.56h5.66c2.63,0,4.71,1.17,4.71,4.24,0,2.1-.86,3.43-2.57,4v.05c1.91.34,3.13,1.49,3.13,4.46s-2.1,4.77-5.39,4.77H1291Zm5,7.37a2.46,2.46,0,0,0,2.58-2.77c0-2.08-1.25-2.5-2.82-2.5h-2v5.27Zm.57,8c1.66,0,2.57-1.06,2.57-3.09a2.65,2.65,0,0,0-2.75-3h-2.59V39Z"/><path d="M1312.65,38.31c0,.49.29.93.69.93a1,1,0,0,0,.44-.07v1.71a2.86,2.86,0,0,1-1.3.32c-1.18,0-2.16-.46-2.23-1.74h0a3.41,3.41,0,0,1-3.29,1.94c-2.13,0-3.43-1.16-3.43-3.7,0-2.94,1.3-3.56,3.07-4.15l2.06-.56c1-.27,1.54-.54,1.54-1.69s-.42-2-1.81-2c-1.77,0-2,1.25-2,2.52h-2.5c0-2.81,1.15-4.33,4.63-4.33,2.33,0,4.19.9,4.19,3.23Zm-2.5-4.22a20.5,20.5,0,0,1-2.94,1.23,2.17,2.17,0,0,0-1.08,2.13c0,1.1.54,2,1.64,2,1.6,0,2.38-1.18,2.38-3.14Z"/><path d="M1315.34,23.56H1318v5.85h0a3,3,0,0,1,3-1.88c2,0,4.07.9,4.07,6.76,0,4.53-1.25,7.11-4.32,7.11a2.83,2.83,0,0,1-2.89-2h-.05v1.61h-2.5Zm4.73,15.73c1.86,0,2.23-1.89,2.23-4.88,0-3.55-.56-4.78-2.06-4.78-2.06,0-2.4,1.82-2.4,5C1317.84,37.45,1318.26,39.29,1320.07,39.29Z"/><path d="M1328.6,27.87l2.28,9.9h0l2.11-9.9h2.77l-3.63,13.67c-1.05,3.61-1.86,4.1-4.6,4a4.76,4.76,0,0,1-1.06-.1v-2.1a3.67,3.67,0,0,0,.86.1c.91,0,1.5-.18,1.79-1l.34-1.08-3.75-13.48Z"/><path d="M1337.39,23.56H1340V41.05h-2.65Z"/><path d="M1342.19,34.46c0-4.12,1.08-6.93,4.9-6.93s4.93,2.81,4.93,6.93-1.27,6.94-4.93,6.94S1342.19,38.58,1342.19,34.46Zm4.9,5c1.94,0,2.28-1.62,2.28-5,0-2.91-.34-5-2.28-5s-2.25,2.06-2.25,5C1344.84,37.82,1345.21,39.44,1347.09,39.44Z"/><path d="M1354.05,27.87h2.5v1.54h.07a3.81,3.81,0,0,1,3.39-1.88c2,0,3.28.9,3.28,3.57v9.95h-2.65V32c0-1.76-.46-2.38-1.83-2.38-1.08,0-2.11.81-2.11,2.58v8.84h-2.65Z"/><path d="M1366,23.36h2.64V26H1366Zm0,4.51h2.64V41.05H1366Z"/><path d="M1379.92,38.31c0,.49.3.93.69.93a1,1,0,0,0,.44-.07v1.71a2.83,2.83,0,0,1-1.3.32c-1.17,0-2.15-.46-2.23-1.74h0a3.4,3.4,0,0,1-3.28,1.94c-2.13,0-3.43-1.16-3.43-3.7,0-2.94,1.3-3.56,3.06-4.15l2.06-.56c1-.27,1.54-.54,1.54-1.69s-.41-2-1.81-2c-1.76,0-2,1.25-2,2.52h-2.5c0-2.81,1.15-4.33,4.63-4.33,2.33,0,4.19.9,4.19,3.23Zm-2.5-4.22a20,20,0,0,1-2.94,1.23,2.16,2.16,0,0,0-1.07,2.13c0,1.1.53,2,1.64,2,1.59,0,2.37-1.18,2.37-3.14Z"/><path d="M1382.62,27.87h2.5v1.54h.07a3.78,3.78,0,0,1,3.38-1.88c2,0,3.29.9,3.29,3.57v9.95h-2.65V32c0-1.76-.47-2.38-1.84-2.38-1.08,0-2.11.81-2.11,2.58v8.84h-2.64Z"/><path d="M1400.09,31.72v-.35c0-1.05-.37-2-1.74-2-1.06,0-1.89.47-1.89,1.72,0,1.05.47,1.44,1.86,1.93l1.69.59c2,.66,2.87,1.71,2.87,3.8,0,2.82-2.08,4-4.73,4-3.33,0-4.34-1.55-4.34-4.1v-.49h2.36v.42c0,1.54.51,2.35,2,2.35s2.16-.73,2.16-1.93a1.91,1.91,0,0,0-1.45-1.94l-2.15-.76c-2-.66-2.82-1.69-2.82-3.8,0-2.47,1.77-3.62,4.51-3.62,3.36,0,4.12,2,4.12,3.6v.59Z"/></g><g id="Huns"><path d="M1576,47.56h4.37l3.08,13h0l3-13h4.26V65.05h-2.64V50.5h0l-3.53,14.55h-2.35l-3.53-14.55h0V65.05H1576Z"/><path d="M1593.3,56.3c0-6.24,1.76-9.09,5.78-9.09s5.78,2.85,5.78,9.09-1.76,9.1-5.78,9.1S1593.3,62.55,1593.3,56.3Zm8.77-.07c0-5.88-1.33-6.91-3-6.91s-3,1-3,6.91,1.32,7.06,3,7.06S1602.07,62.24,1602.07,56.23Z"/><path d="M1607.33,47.56h3.41l5.07,13h0v-13h2.65V65.05h-3.41L1610,51.67h0V65.05h-2.65Z"/><path d="M1630.05,63h0a3.64,3.64,0,0,1-3.82,2.38c-3.83,0-5.2-2.85-5.2-9.1s1.76-9.09,5.81-9.09a4.77,4.77,0,0,1,5.12,5v.32h-2.65v-.42c0-1.3-.54-2.84-2.45-2.84s-3,1.32-3,6.91.93,7.06,2.82,7.06c2.13,0,2.92-1.52,2.92-5.34h-2.94V55.84h5.58v9.21h-2.1Z"/><path d="M1634.14,56.3c0-6.24,1.76-9.09,5.78-9.09s5.78,2.85,5.78,9.09-1.76,9.1-5.78,9.1S1634.14,62.55,1634.14,56.3Zm8.77-.07c0-5.88-1.32-6.91-3-6.91s-3,1-3,6.91,1.32,7.06,3,7.06S1642.91,62.24,1642.91,56.23Z"/><path d="M1647.86,47.56h2.79V62.7h6.76v2.35h-9.55Z"/><path d="M1658.93,47.56h2.79V65.05h-2.79Z"/><path d="M1667.8,47.56h3.58l4.6,17.49h-2.91L1672,60.76h-5.12l-1.13,4.29h-2.92Zm3.72,11-2-8.62h0l-2.09,8.62Z"/><path d="M1677.21,47.56h3.4l5.07,13h0v-13h2.65V65.05H1685l-5.07-13.38h-.05V65.05h-2.64Z"/><path d="M1693.43,59.64v.44c0,2.13,1,3.21,2.86,3.21a2.51,2.51,0,0,0,2.65-2.55c0-1.84-.93-2.65-2.5-3.11l-1.91-.66c-2.55-1-3.65-2.31-3.65-4.81,0-3.18,2.18-4.95,5.44-4.95,4.48,0,5,2.8,5,4.61v.39h-2.8v-.37c0-1.59-.68-2.52-2.45-2.52a2.23,2.23,0,0,0-2.35,2.52c0,1.5.76,2.26,2.62,3l1.89.69c2.47.88,3.55,2.2,3.55,4.63,0,3.72-2.25,5.27-5.78,5.27-4.34,0-5.32-2.89-5.32-5.35v-.41Z"/></g></svg>