<svg xmlns="http://www.w3.org/2000/svg" viewBox="0 0 1847.91 112.67"><title>bc1850text</title><g id="YEARS"><g id="Right"><path d="M1787.21,104.26V90.9h-3.82V89h.29c1.77,0,3.79-.44,4.34-2.75v-.37h2.16v18.41Z"/><path d="M1795,99.11c0-2.73,1.3-4.21,3.14-4.6v-.05c-1.58-.55-2.54-1.77-2.54-4,0-2.89,1.87-4.63,5-4.63s5,1.74,5,4.63c0,2.21-1,3.43-2.55,4v.05c1.84.39,3.15,1.87,3.15,4.6,0,3.64-1.8,5.51-5.57,5.51S1795,102.75,1795,99.11Zm5.56,3.43c2.08,0,2.6-1.53,2.6-3.48s-.52-3.48-2.6-3.48-2.6,1.53-2.6,3.48S1798.47,102.54,1800.55,102.54Zm0-9c1.85,0,2.32-1.36,2.32-2.81s-.47-2.76-2.32-2.76-2.31,1.3-2.31,2.76S1798.71,93.5,1800.55,93.5Z"/><path d="M1807.62,99.29h2.81v.5a2.35,2.35,0,0,0,2.42,2.6c2.08,0,2.63-2,2.63-4.19s-.58-3.92-2.48-3.92a2.34,2.34,0,0,0-2.41,1.69l-2.63-.11.91-9.64h8.87v2.36h-6.66l-.6,4.84,0,0a4.08,4.08,0,0,1,3.1-1.43c3.85,0,4.81,3.25,4.81,6.08,0,3.7-1.69,6.5-5.67,6.5-3.3,0-5.15-1.69-5.15-4.94Z"/><path d="M1825.51,85.85c3.54,0,5.51,2.21,5.51,9.39s-2,9.38-5.51,9.38-5.51-2.21-5.51-9.38S1822,85.85,1825.51,85.85Zm0,16.69c2,0,2.55-2,2.55-7.3s-.55-7.31-2.55-7.31-2.55,2-2.55,7.31S1823.51,102.54,1825.51,102.54Z"/></g><g id="left"><path d="M17.46,107.86V94.49H13.64V92.57h.29c1.77,0,3.79-.44,4.34-2.76v-.36h2.16v18.41Z"/><path d="M25.24,102.71c0-2.73,1.3-4.21,3.14-4.6v0c-1.58-.55-2.54-1.77-2.54-4,0-2.89,1.87-4.63,5-4.63s5,1.74,5,4.63c0,2.21-1,3.43-2.55,4v0c1.85.39,3.15,1.87,3.15,4.6,0,3.64-1.8,5.51-5.57,5.51S25.24,106.35,25.24,102.71Zm5.56,3.43c2.08,0,2.6-1.53,2.6-3.48s-.52-3.49-2.6-3.49-2.6,1.54-2.6,3.49S28.72,106.14,30.8,106.14Zm0-9c1.85,0,2.32-1.35,2.32-2.8s-.47-2.76-2.32-2.76-2.31,1.3-2.31,2.76S29,97.09,30.8,97.09Z"/><path d="M37.87,102.89h2.81v.5A2.36,2.36,0,0,0,43.1,106c2.08,0,2.63-2,2.63-4.19s-.58-3.93-2.48-3.93a2.35,2.35,0,0,0-2.41,1.69l-2.63-.1.91-9.65H48v2.37H41.33L40.73,97l.06,0a4,4,0,0,1,3.09-1.43c3.85,0,4.81,3.25,4.81,6.08,0,3.69-1.69,6.5-5.67,6.5-3.3,0-5.15-1.69-5.15-4.94Z"/><path d="M55.76,89.45c3.54,0,5.51,2.21,5.51,9.39s-2,9.38-5.51,9.38-5.51-2.21-5.51-9.38S52.22,89.45,55.76,89.45Zm0,16.69c2,0,2.55-2,2.55-7.3s-.55-7.31-2.55-7.31-2.55,2-2.55,7.31S53.76,106.14,55.76,106.14Z"/></g></g><g id="Text"><g id="Egytians"><g id="large"><path d="M565.54,88.22H575v2.36h-6.66v4.85h6.27v2.35h-6.27v5.59h6.86v2.35h-9.66Z" fill="#3b4351"/><path d="M586,103.69h-.05a3.64,3.64,0,0,1-3.83,2.37c-3.82,0-5.19-2.84-5.19-9.09s1.76-9.09,5.81-9.09a4.77,4.77,0,0,1,5.12,5.05v.32h-2.65v-.42c0-1.3-.54-2.84-2.45-2.84s-3,1.32-3,6.91.93,7.06,2.82,7.06c2.13,0,2.92-1.52,2.92-5.35H582.5v-2.1h5.58v9.21H586Z" fill="#3b4351"/><path d="M593.45,98.88l-4.51-10.66h3.11L595,95.77l3-7.55h2.91l-4.68,10.66v6.84h-2.79Z" fill="#3b4351"/><path d="M602.27,88.22h5.53c3.36,0,4.83,2.11,4.83,5.1,0,3.14-1.86,5.17-5.12,5.17h-2.45v7.23h-2.79Zm2.79,8.16h2c1.49,0,2.79-.78,2.79-3,0-1.89-.76-3-3-3h-1.79Z" fill="#3b4351"/><path d="M617.38,90.58h-4.16V88.22h11v2.36h-4.09v15.14h-2.8Z" fill="#3b4351"/><path d="M625.74,88.22h2.79v17.5h-2.79Z" fill="#3b4351"/><path d="M634.61,88.22h3.57l4.61,17.5h-2.91l-1.08-4.29h-5.12l-1.13,4.29h-2.92Zm3.72,11-2-8.62h-.05l-2.08,8.62Z" fill="#3b4351"/><path d="M644,88.22h3.41l5.07,13h0v-13h2.65v17.5h-3.41l-5.07-13.38h-.05v13.38H644Z" fill="#3b4351"/><path d="M660.23,100.3v.45c0,2.13,1,3.21,2.87,3.21a2.51,2.51,0,0,0,2.65-2.55c0-1.84-.93-2.65-2.5-3.12l-1.91-.66c-2.55-1-3.66-2.3-3.66-4.8,0-3.19,2.19-5,5.44-5,4.49,0,5,2.79,5,4.61v.39h-2.8v-.37c0-1.59-.68-2.52-2.45-2.52a2.23,2.23,0,0,0-2.35,2.52c0,1.5.76,2.26,2.62,3l1.89.68c2.47.89,3.55,2.21,3.55,4.63,0,3.73-2.25,5.27-5.78,5.27-4.34,0-5.32-2.89-5.32-5.34v-.42Z" fill="#3b4351"/></g><g id="small"><path d="M393.86,4h1.52V5.53h-1.52Zm0,2.58h1.52v7.53h-1.52Z" fill="#3b4351"/><path d="M396.9,6.6h1.51V7.77h0a1.87,1.87,0,0,1,1.75-1.37.77.77,0,0,1,.37.06V8a1.87,1.87,0,0,0-.63-.09c-.69,0-1.52.31-1.52,1.71v4.51H396.9Z" fill="#3b4351"/><path d="M401.31,6.6h1.51V7.77h0A1.87,1.87,0,0,1,404.6,6.4a.77.77,0,0,1,.37.06V8a1.87,1.87,0,0,0-.63-.09c-.69,0-1.52.31-1.52,1.71v4.51h-1.51Z" fill="#3b4351"/><path d="M405.79,4h1.51V5.53h-1.51Zm0,2.58h1.51v7.53h-1.51Z" fill="#3b4351"/><path d="M410.34,14.78a1,1,0,0,0,1.09.89,1.25,1.25,0,0,0,1.28-1.41V13h0a1.82,1.82,0,0,1-1.71,1c-1.75,0-2.25-1.73-2.25-3.8,0-1.65.25-3.88,2.39-3.88a1.67,1.67,0,0,1,1.66,1.12h0V6.6h1.43v7.17c0,1.83-.78,2.94-2.81,2.94-2.25,0-2.5-1.32-2.5-1.93Zm1.07-1.91c1.17,0,1.3-1.48,1.3-2.67s-.15-2.6-1.21-2.6-1.27,1.12-1.27,2.53S410.29,12.87,411.41,12.87Z" fill="#3b4351"/><path d="M420.51,12.56c0,.28.17.54.39.54a.52.52,0,0,0,.25,0v1a1.58,1.58,0,0,1-.74.19c-.67,0-1.23-.27-1.28-1h0a2,2,0,0,1-1.88,1.11c-1.22,0-2-.66-2-2.12A2.06,2.06,0,0,1,417,9.85l1.18-.33c.54-.15.88-.31.88-1s-.24-1.12-1-1.12c-1,0-1.15.71-1.15,1.44h-1.43c0-1.61.66-2.48,2.65-2.48,1.33,0,2.4.52,2.4,1.85Zm-1.43-2.41a11.23,11.23,0,0,1-1.68.7,1.23,1.23,0,0,0-.62,1.22c0,.63.31,1.14.94,1.14.91,0,1.36-.68,1.36-1.8Z" fill="#3b4351"/><path d="M421.37,6.6h1V4.45h1.51V6.6h1.23V7.72h-1.23v4.49c0,.6.17.8.69.8a2.7,2.7,0,0,0,.54,0v1.12a5,5,0,0,1-1.21.13c-1,0-1.53-.3-1.53-1.83V7.72h-1Z" fill="#3b4351"/><path d="M426,4h1.51V5.53H426Zm0,2.58h1.51v7.53H426Z" fill="#3b4351"/><path d="M428.75,10.36c0-2.35.62-4,2.8-4s2.82,1.61,2.82,4-.73,4-2.82,4S428.75,12.72,428.75,10.36Zm2.8,2.85c1.11,0,1.3-.93,1.3-2.85,0-1.66-.19-2.84-1.3-2.84s-1.29,1.18-1.29,2.84C430.26,12.28,430.47,13.21,431.55,13.21Z" fill="#3b4351"/><path d="M435.53,6.6H437v.88h0a2.17,2.17,0,0,1,1.93-1.08c1.15,0,1.88.52,1.88,2v5.69h-1.52V9c0-1-.26-1.36-1.05-1.36-.61,0-1.2.47-1.2,1.48v5.05h-1.51Z" fill="#3b4351"/><path d="M445.69,4h1.51V5.53h-1.51Zm0,2.58h1.51v7.53h-1.51Z" fill="#3b4351"/><path d="M448.73,6.6h1.43v.88h0a2.17,2.17,0,0,1,1.93-1.08c1.15,0,1.88.52,1.88,2v5.69H452.5V9c0-1-.27-1.36-1.05-1.36-.62,0-1.21.47-1.21,1.48v5.05h-1.51Z" fill="#3b4351"/><path d="M458.15,6.6h1V4.45h1.51V6.6h1.23V7.72H460.7v4.49c0,.6.17.8.69.8a2.7,2.7,0,0,0,.54,0v1.12a5.11,5.11,0,0,1-1.22.13c-1,0-1.52-.3-1.52-1.83V7.72h-1Z" fill="#3b4351"/><path d="M462.71,4.13h1.52V7.41l0,0a2.14,2.14,0,0,1,1.85-1c1.15,0,1.88.52,1.88,2v5.69h-1.52V9c0-1-.28-1.36-1.05-1.36-.61,0-1.2.48-1.2,1.48v5.05h-1.52Z" fill="#3b4351"/><path d="M470.75,10.56V11c0,1,.13,2.3,1.26,2.3s1.21-1.22,1.21-1.68h1.42A2.47,2.47,0,0,1,472,14.33c-1.24,0-2.76-.37-2.76-3.85,0-2,.43-4.08,2.79-4.08,2.1,0,2.66,1.27,2.66,3.36v.8Zm2.42-1v-.4c0-1-.3-1.68-1.16-1.68s-1.26,1-1.26,1.93v.15Z" fill="#3b4351"/><path d="M479.39,4.13h5.33V5.47H481V8.25h3.52V9.59H481v4.54h-1.59Z" fill="#3b4351"/><path d="M490.72,12.56c0,.28.16.54.39.54a.55.55,0,0,0,.25,0v1a1.58,1.58,0,0,1-.74.19c-.67,0-1.23-.27-1.28-1h0a2,2,0,0,1-1.88,1.11c-1.22,0-2-.66-2-2.12a2.06,2.06,0,0,1,1.75-2.36l1.18-.33c.54-.15.88-.31.88-1s-.24-1.12-1-1.12c-1,0-1.15.71-1.15,1.44h-1.43c0-1.61.66-2.48,2.65-2.48,1.33,0,2.4.52,2.4,1.85Zm-1.43-2.41a11.23,11.23,0,0,1-1.68.7,1.23,1.23,0,0,0-.62,1.22c0,.63.31,1.14.94,1.14.91,0,1.36-.68,1.36-1.8Z" fill="#3b4351"/><path d="M493.26,6.6l1.3,5.65h0L495.8,6.6h1.58l-2.07,7.81c-.61,2.06-1.07,2.34-2.64,2.3a2.45,2.45,0,0,1-.6-.06v-1.2a2,2,0,0,0,.49.05c.52,0,.86-.09,1-.58l.2-.62-2.14-7.7Z" fill="#3b4351"/><path d="M502.07,13.25h0a2.18,2.18,0,0,1-1.94,1.08c-1.12,0-1.87-.52-1.87-2.47V6.6h1.51V12c0,.84.36,1.12,1,1.12A1.18,1.18,0,0,0,502,11.86V6.6h1.51v7.53h-1.43Z" fill="#3b4351"/><path d="M505,6.6h1.43v.88h0A2.12,2.12,0,0,1,508.3,6.4a1.63,1.63,0,0,1,1.75,1.15A2,2,0,0,1,512,6.4c1.07,0,1.84.55,1.84,2v5.73h-1.51V9c0-1-.3-1.36-.91-1.36s-1.21.48-1.21,1.48v5.05h-1.51V9c0-1-.29-1.36-.92-1.36s-1.2.49-1.2,1.48v5.05H505Z" fill="#3b4351"/><path d="M515.47,12.28h1.59v1.85h-1.59Z" fill="#3b4351"/><path d="M522.13,4.13h2.49l1.77,7.41h0l1.73-7.41h2.44v10h-1.51V5.81h0l-2,8.32h-1.34l-2-8.32h0v8.32h-1.51Z" fill="#3b4351"/><path d="M532.21,4h1.51V5.53h-1.51Zm0,2.58h1.51v7.53h-1.51Z" fill="#3b4351"/><path d="M535.25,6.6h1.43v.88h0a2.17,2.17,0,0,1,1.93-1.08c1.15,0,1.88.52,1.88,2v5.69H539V9c0-1-.27-1.36-1.06-1.36-.61,0-1.2.47-1.2,1.48v5.05h-1.51Z" fill="#3b4351"/><path d="M543.28,10.56V11c0,1,.13,2.3,1.26,2.3s1.21-1.22,1.21-1.68h1.43a2.48,2.48,0,0,1-2.65,2.72c-1.23,0-2.76-.37-2.76-3.85,0-2,.43-4.08,2.79-4.08,2.1,0,2.66,1.27,2.66,3.36v.8Zm2.43-1v-.4c0-1-.31-1.68-1.17-1.68s-1.26,1-1.26,1.93v.15Z" fill="#3b4351"/><path d="M551.71,8.79V8.6c0-.6-.21-1.16-1-1.16-.6,0-1.08.26-1.08,1s.27.82,1.06,1.1l1,.34A2,2,0,0,1,553.31,12c0,1.61-1.19,2.3-2.7,2.3-1.91,0-2.48-.88-2.48-2.34v-.28h1.34V12c0,.88.3,1.34,1.18,1.34s1.23-.42,1.23-1.11a1.09,1.09,0,0,0-.83-1.1l-1.23-.44a2,2,0,0,1-1.61-2.17c0-1.41,1-2.07,2.58-2.07,1.92,0,2.35,1.12,2.35,2.06v.33Z" fill="#3b4351"/><path d="M557.27,6.6h1.57l1,5.93h0L561,6.6h1.71l1.12,5.93h0l1-5.93h1.51l-1.72,7.53H563l-1.18-5.85h0l-1.08,5.85H559Z" fill="#3b4351"/><path d="M567,10.36c0-2.35.62-4,2.8-4s2.82,1.61,2.82,4-.73,4-2.82,4S567,12.72,567,10.36Zm2.8,2.85c1.11,0,1.3-.93,1.3-2.85,0-1.66-.19-2.84-1.3-2.84s-1.29,1.18-1.29,2.84C568.51,12.28,568.72,13.21,569.8,13.21Z" fill="#3b4351"/><path d="M573.78,6.6h1.51V7.77h0a1.85,1.85,0,0,1,1.75-1.37.73.73,0,0,1,.36.06V8a1.83,1.83,0,0,0-.63-.09c-.69,0-1.51.31-1.51,1.71v4.51h-1.51Z" fill="#3b4351"/><path d="M578.19,4.13h1.51V9.75h0L582,6.6l1.75,0-2.27,2.91,2.56,4.64H582.4l-1.85-3.43-.85,1v2.39h-1.51Z" fill="#3b4351"/><path d="M585.89,10.56V11c0,1,.12,2.3,1.26,2.3s1.2-1.22,1.2-1.68h1.43a2.48,2.48,0,0,1-2.65,2.72c-1.23,0-2.76-.37-2.76-3.85,0-2,.44-4.08,2.79-4.08,2.1,0,2.66,1.27,2.66,3.36v.8Zm2.42-1v-.4c0-1-.31-1.68-1.16-1.68s-1.26,1-1.26,1.93v.15Z" fill="#3b4351"/><path d="M594.92,13.21h0a1.61,1.61,0,0,1-1.65,1.12c-1.75,0-2.47-1.49-2.47-4.06,0-3.35,1.18-3.87,2.33-3.87a1.75,1.75,0,0,1,1.71,1.08h0V4.13h1.52v10h-1.43ZM593.55,7.6c-.86,0-1.18.7-1.18,2.74,0,1.7.21,2.78,1.27,2.78s1.28-1,1.28-2.67C594.92,8.64,594.72,7.6,593.55,7.6Z" fill="#3b4351"/><path d="M601.62,7.72h-1V6.6h1V5.89c0-1.41.69-1.87,1.92-1.87a6.67,6.67,0,0,1,.83,0V5.22H604c-.56,0-.82.21-.82.72V6.6h1.24V7.72h-1.24v6.41h-1.51Z" fill="#3b4351"/><path d="M604.76,10.36c0-2.35.61-4,2.8-4s2.81,1.61,2.81,4-.72,4-2.81,4S604.76,12.72,604.76,10.36Zm2.8,2.85c1.11,0,1.3-.93,1.3-2.85,0-1.66-.19-2.84-1.3-2.84s-1.29,1.18-1.29,2.84C606.27,12.28,606.48,13.21,607.56,13.21Z" fill="#3b4351"/><path d="M611.53,6.6h1.52V7.77h0a1.85,1.85,0,0,1,1.75-1.37.73.73,0,0,1,.36.06V8a1.83,1.83,0,0,0-.63-.09c-.69,0-1.51.31-1.51,1.71v4.51h-1.52Z" fill="#3b4351"/><path d="M620.82,14.78a1,1,0,0,0,1.09.89,1.24,1.24,0,0,0,1.27-1.41V13h0a1.82,1.82,0,0,1-1.71,1c-1.75,0-2.26-1.73-2.26-3.8,0-1.65.25-3.88,2.4-3.88a1.66,1.66,0,0,1,1.65,1.12h0V6.6h1.43v7.17c0,1.83-.79,2.94-2.82,2.94-2.24,0-2.49-1.32-2.49-1.93Zm1.06-1.91c1.18,0,1.3-1.48,1.3-2.67S623,7.6,622,7.6s-1.28,1.12-1.28,2.53S620.76,12.87,621.88,12.87Z" fill="#3b4351"/><path d="M625.74,10.36c0-2.35.62-4,2.8-4s2.82,1.61,2.82,4-.73,4-2.82,4S625.74,12.72,625.74,10.36Zm2.8,2.85c1.11,0,1.31-.93,1.31-2.85,0-1.66-.2-2.84-1.31-2.84s-1.28,1.18-1.28,2.84C627.26,12.28,627.47,13.21,628.54,13.21Z" fill="#3b4351"/><path d="M632.59,4h1.51V5.53h-1.51Zm0,2.58h1.51v7.53h-1.51Z" fill="#3b4351"/><path d="M635.7,4.13h1.51v10H635.7Z" fill="#3b4351"/><path d="M642.59,13.21h0a1.61,1.61,0,0,1-1.65,1.12c-1.75,0-2.47-1.49-2.47-4.06,0-3.35,1.18-3.87,2.33-3.87a1.75,1.75,0,0,1,1.71,1.08h0V4.13H644v10h-1.43ZM641.21,7.6c-.85,0-1.17.7-1.17,2.74,0,1.7.21,2.78,1.27,2.78s1.28-1,1.28-2.67C642.59,8.64,642.39,7.6,641.21,7.6Z" fill="#3b4351"/><path d="M645.62,12.28h1.6v1.85c0,1.12-.36,1.92-1.6,2.16v-.81a1,1,0,0,0,.7-1.14v-.21h-.7Z" fill="#3b4351"/><path d="M654.92,8.79V8.6c0-.6-.21-1.16-1-1.16-.6,0-1.07.26-1.07,1s.26.82,1.06,1.1l1,.34A2,2,0,0,1,656.52,12c0,1.61-1.19,2.3-2.71,2.3-1.9,0-2.48-.88-2.48-2.34v-.28h1.35V12c0,.88.29,1.34,1.18,1.34s1.23-.42,1.23-1.11a1.09,1.09,0,0,0-.83-1.1L653,10.64a2,2,0,0,1-1.61-2.17c0-1.41,1-2.07,2.58-2.07,1.91,0,2.35,1.12,2.35,2.06v.33Z" fill="#3b4351"/><path d="M657.7,4h1.52V5.53H657.7Zm0,2.58h1.52v7.53H657.7Z" fill="#3b4351"/><path d="M660.81,4.13h1.51v10h-1.51Z" fill="#3b4351"/><path d="M663.22,6.6h1.62l1.32,5.93h0l1.19-5.93H669l-2,7.53h-1.76Z" fill="#3b4351"/><path d="M671.12,10.56V11c0,1,.12,2.3,1.26,2.3s1.2-1.22,1.2-1.68H675a2.48,2.48,0,0,1-2.65,2.72c-1.23,0-2.76-.37-2.76-3.85,0-2,.44-4.08,2.79-4.08,2.1,0,2.66,1.27,2.66,3.36v.8Zm2.42-1v-.4c0-1-.31-1.68-1.16-1.68s-1.26,1-1.26,1.93v.15Z" fill="#3b4351"/><path d="M676.29,6.6h1.52V7.77h0a1.85,1.85,0,0,1,1.75-1.37.73.73,0,0,1,.36.06V8a1.83,1.83,0,0,0-.63-.09c-.69,0-1.51.31-1.51,1.71v4.51h-1.52Z" fill="#3b4351"/><path d="M679.57,12.28h1.6v1.85a1.88,1.88,0,0,1-1.6,2.16v-.81a1.06,1.06,0,0,0,.7-1.14v-.21h-.7Z" fill="#3b4351"/><path d="M690.7,11.39c-.11,1.8-.7,2.94-2.58,2.94-2.18,0-2.8-1.61-2.8-4s.62-4,2.8-4a2.44,2.44,0,0,1,2.6,2.7H689.2c0-.7-.18-1.62-1.08-1.58-1.07,0-1.28,1.18-1.28,2.84s.21,2.85,1.28,2.85c.85,0,1.15-.69,1.15-1.82Z" fill="#3b4351"/><path d="M691.54,10.36c0-2.35.62-4,2.8-4s2.82,1.61,2.82,4-.73,4-2.82,4S691.54,12.72,691.54,10.36Zm2.8,2.85c1.11,0,1.3-.93,1.3-2.85,0-1.66-.19-2.84-1.3-2.84s-1.29,1.18-1.29,2.84C693.05,12.28,693.26,13.21,694.34,13.21Z" fill="#3b4351"/><path d="M701.57,14.33a1.74,1.74,0,0,1-1.71-1.08h0V16.6h-1.51V6.6h1.43v.92h0a1.8,1.8,0,0,1,1.7-1.12c1.72,0,2.42,1.47,2.42,4.06C703.89,13.63,702.62,14.33,701.57,14.33ZM701,7.6c-1,0-1.27,1.05-1.27,2.68,0,1.81.22,2.84,1.28,2.84.86,0,1.26-.64,1.26-2.73C702.29,8.68,702.08,7.6,701,7.6Z" fill="#3b4351"/><path d="M708.3,14.33a1.74,1.74,0,0,1-1.71-1.08h0V16.6h-1.51V6.6h1.43v.92h0A1.78,1.78,0,0,1,708.2,6.4c1.72,0,2.42,1.47,2.42,4.06C710.62,13.63,709.35,14.33,708.3,14.33Zm-.55-6.73c-1,0-1.27,1.05-1.27,2.68,0,1.81.22,2.84,1.29,2.84.85,0,1.26-.64,1.26-2.73C709,8.68,708.82,7.6,707.75,7.6Z" fill="#3b4351"/><path d="M713.09,10.56V11c0,1,.12,2.3,1.26,2.3s1.2-1.22,1.2-1.68H717a2.48,2.48,0,0,1-2.65,2.72c-1.23,0-2.76-.37-2.76-3.85,0-2,.44-4.08,2.79-4.08,2.1,0,2.66,1.27,2.66,3.36v.8Zm2.42-1v-.4c0-1-.31-1.68-1.16-1.68s-1.26,1-1.26,1.93v.15Z" fill="#3b4351"/><path d="M718.27,6.6h1.51V7.77h0a1.85,1.85,0,0,1,1.75-1.37.73.73,0,0,1,.36.06V8a1.83,1.83,0,0,0-.63-.09c-.69,0-1.51.31-1.51,1.71v4.51h-1.51Z" fill="#3b4351"/><path d="M731,12.56c0,.28.17.54.39.54a.49.49,0,0,0,.25,0v1a1.55,1.55,0,0,1-.74.19c-.67,0-1.23-.27-1.27-1h0a2,2,0,0,1-1.88,1.11c-1.22,0-2-.66-2-2.12a2.06,2.06,0,0,1,1.75-2.36l1.18-.33c.55-.15.88-.31.88-1s-.24-1.12-1-1.12c-1,0-1.15.71-1.15,1.44h-1.43c0-1.61.66-2.48,2.64-2.48,1.34,0,2.4.52,2.4,1.85Zm-1.43-2.41a11.23,11.23,0,0,1-1.68.7,1.25,1.25,0,0,0-.62,1.22c0,.63.31,1.14.94,1.14.91,0,1.36-.68,1.36-1.8Z" fill="#3b4351"/><path d="M732.52,6.6H734v.88h0a2.17,2.17,0,0,1,1.93-1.08c1.15,0,1.88.52,1.88,2v5.69h-1.51V9c0-1-.27-1.36-1-1.36-.62,0-1.21.47-1.21,1.48v5.05h-1.51Z" fill="#3b4351"/><path d="M743.1,13.21h0a1.62,1.62,0,0,1-1.66,1.12c-1.75,0-2.46-1.49-2.46-4.06,0-3.35,1.17-3.87,2.32-3.87A1.74,1.74,0,0,1,743,7.48h0V4.13h1.51v10H743.1ZM741.73,7.6c-.85,0-1.18.7-1.18,2.74,0,1.7.21,2.78,1.28,2.78s1.27-1,1.27-2.67C743.1,8.64,742.91,7.6,741.73,7.6Z" fill="#3b4351"/><path d="M748.67,6.6h1V4.45h1.51V6.6h1.23V7.72h-1.23v4.49c0,.6.17.8.69.8a2.7,2.7,0,0,0,.54,0v1.12a5,5,0,0,1-1.21.13c-1,0-1.53-.3-1.53-1.83V7.72h-1Z" fill="#3b4351"/><path d="M753.31,4h1.51V5.53h-1.51Zm0,2.58h1.51v7.53h-1.51Z" fill="#3b4351"/><path d="M756.34,6.6h1.43v.88h0a2.18,2.18,0,0,1,1.94-1.08c1.15,0,1.87.52,1.87,2v5.69h-1.51V9c0-1-.26-1.36-1.05-1.36-.62,0-1.2.47-1.2,1.48v5.05h-1.52Z" fill="#3b4351"/><path d="M763.23,12.28h1.6v1.85h-1.6Z" fill="#3b4351"/><path d="M769.89,4.13h2.85c3.13,0,3.53,2.05,3.53,5s-.4,5-3.53,5h-2.85Zm1.6,8.8h1.32c1.31,0,1.86-.87,1.86-3.8s-.48-3.8-1.86-3.8h-1.32Z" fill="#3b4351"/><path d="M778.88,10.56V11c0,1,.13,2.3,1.26,2.3s1.21-1.22,1.21-1.68h1.43a2.48,2.48,0,0,1-2.65,2.72c-1.23,0-2.76-.37-2.76-3.85,0-2,.43-4.08,2.79-4.08,2.1,0,2.66,1.27,2.66,3.36v.8Zm2.43-1v-.4c0-1-.31-1.68-1.17-1.68s-1.26,1-1.26,1.93v.15Z" fill="#3b4351"/><path d="M789.15,11.39c-.11,1.8-.7,2.94-2.58,2.94-2.19,0-2.8-1.61-2.8-4s.61-4,2.8-4a2.43,2.43,0,0,1,2.59,2.7h-1.51c0-.7-.18-1.62-1.08-1.58-1.08,0-1.29,1.18-1.29,2.84s.21,2.85,1.29,2.85c.84,0,1.15-.69,1.15-1.82Z" fill="#3b4351"/><path d="M790.35,4.13h1.51v10h-1.51Z" fill="#3b4351"/><path d="M793.46,4H795V5.53h-1.51Zm0,2.58H795v7.53h-1.51Z" fill="#3b4351"/><path d="M796.49,6.6h1.43v.88h0A2.18,2.18,0,0,1,799.9,6.4c1.15,0,1.87.52,1.87,2v5.69h-1.51V9c0-1-.26-1.36-1-1.36-.62,0-1.2.47-1.2,1.48v5.05h-1.52Z" fill="#3b4351"/><path d="M804.53,10.56V11c0,1,.13,2.3,1.26,2.3s1.2-1.22,1.2-1.68h1.43a2.48,2.48,0,0,1-2.64,2.72c-1.24,0-2.76-.37-2.76-3.85,0-2,.43-4.08,2.78-4.08,2.11,0,2.66,1.27,2.66,3.36v.8Zm2.42-1v-.4c0-1-.31-1.68-1.16-1.68s-1.26,1-1.26,1.93v.15Z" fill="#3b4351"/><path d="M813.14,4h1.51V5.53h-1.51Zm0,2.58h1.51v7.53h-1.51Z" fill="#3b4351"/><path d="M816.18,6.6h1.43v.88h0a2.17,2.17,0,0,1,1.93-1.08c1.15,0,1.88.52,1.88,2v5.69h-1.52V9c0-1-.26-1.36-1.05-1.36-.61,0-1.2.47-1.2,1.48v5.05h-1.51Z" fill="#3b4351"/><path d="M827.74,4.13h2l2.63,10h-1.67l-.61-2.45h-2.93l-.65,2.45H824.9Zm2.13,6.28-1.15-4.94h0l-1.19,4.94Z" fill="#3b4351"/><path d="M833,6.6h1.51V7.77h0a1.85,1.85,0,0,1,1.75-1.37.73.73,0,0,1,.36.06V8a1.83,1.83,0,0,0-.63-.09c-.68,0-1.51.31-1.51,1.71v4.51H833Z" fill="#3b4351"/><path d="M836.75,6.6h1V4.45h1.51V6.6h1.24V7.72H839.3v4.49c0,.6.17.8.69.8a2.81,2.81,0,0,0,.55,0v1.12a5.17,5.17,0,0,1-1.22.13c-1,0-1.53-.3-1.53-1.83V7.72h-1Z" fill="#3b4351"/><path d="M845.14,7.72h-1V6.6h1V5.89c0-1.41.69-1.87,1.92-1.87a6.67,6.67,0,0,1,.83,0V5.22h-.42c-.56,0-.82.21-.82.72V6.6h1.24V7.72h-1.24v6.41h-1.51Z" fill="#3b4351"/><path d="M848.28,10.36c0-2.35.61-4,2.8-4s2.81,1.61,2.81,4-.72,4-2.81,4S848.28,12.72,848.28,10.36Zm2.8,2.85c1.11,0,1.3-.93,1.3-2.85,0-1.66-.19-2.84-1.3-2.84s-1.29,1.18-1.29,2.84C849.79,12.28,850,13.21,851.08,13.21Z" fill="#3b4351"/><path d="M855.05,6.6h1.52V7.77h0a1.87,1.87,0,0,1,1.76-1.37.73.73,0,0,1,.36.06V8a1.83,1.83,0,0,0-.63-.09c-.69,0-1.51.31-1.51,1.71v4.51h-1.52Z" fill="#3b4351"/><path d="M859.67,6.6h1.43v.88h0A2.1,2.1,0,0,1,863,6.4a1.63,1.63,0,0,1,1.75,1.15,2.07,2.07,0,0,1,1.91-1.15c1.06,0,1.83.55,1.83,2v5.73h-1.51V9c0-1-.29-1.36-.91-1.36s-1.2.48-1.2,1.48v5.05H863.3V9c0-1-.29-1.36-.92-1.36s-1.19.49-1.19,1.48v5.05h-1.52Z" fill="#3b4351"/><path d="M873.21,8.79V8.6c0-.6-.21-1.16-1-1.16-.6,0-1.08.26-1.08,1s.27.82,1.07,1.1l1,.34A2,2,0,0,1,874.81,12c0,1.61-1.19,2.3-2.7,2.3-1.91,0-2.48-.88-2.48-2.34v-.28H871V12c0,.88.3,1.34,1.18,1.34s1.23-.42,1.23-1.11a1.09,1.09,0,0,0-.82-1.1l-1.24-.44a2,2,0,0,1-1.61-2.17c0-1.41,1-2.07,2.58-2.07,1.92,0,2.35,1.12,2.35,2.06v.33Z" fill="#3b4351"/><path d="M876.08,12.28h1.6v1.85c0,1.12-.36,1.92-1.6,2.16v-.81a1,1,0,0,0,.7-1.14v-.21h-.7Z" fill="#3b4351"/><path d="M398.27,50.22h5.34v1.35h-3.74v2.77h3.52v1.35h-3.52v4.53h-1.6Z" fill="#3b4351"/><path d="M404.36,56.46c0-2.36.62-4,2.8-4s2.82,1.61,2.82,4-.73,4-2.82,4S404.36,58.81,404.36,56.46Zm2.8,2.84c1.11,0,1.31-.93,1.31-2.84,0-1.67-.2-2.85-1.31-2.85s-1.28,1.18-1.28,2.85C405.88,58.37,406.09,59.3,407.16,59.3Z" fill="#3b4351"/><path d="M411.14,52.69h1.51v1.17h0a1.87,1.87,0,0,1,1.75-1.37.87.87,0,0,1,.36.06v1.54a2.11,2.11,0,0,0-.63-.09c-.68,0-1.51.31-1.51,1.71v4.51h-1.51Z" fill="#3b4351"/><path d="M416.77,56.65v.44c0,1,.12,2.29,1.26,2.29s1.2-1.22,1.2-1.68h1.43A2.48,2.48,0,0,1,418,60.42c-1.23,0-2.76-.36-2.76-3.85,0-2,.44-4.08,2.79-4.08,2.1,0,2.66,1.28,2.66,3.36v.8Zm2.42-1v-.41c0-1-.31-1.68-1.16-1.68s-1.26.95-1.26,1.93v.16Z" fill="#3b4351"/><path d="M422,50.11h1.51v1.51H422Zm0,2.58h1.51v7.53H422Z" fill="#3b4351"/><path d="M426.57,60.87a1,1,0,0,0,1.09.89,1.24,1.24,0,0,0,1.27-1.41V59.13h0a1.83,1.83,0,0,1-1.71,1c-1.75,0-2.26-1.73-2.26-3.8,0-1.65.25-3.88,2.4-3.88A1.67,1.67,0,0,1,429,53.61h0v-.92h1.43v7.17c0,1.83-.79,2.94-2.82,2.94-2.24,0-2.49-1.32-2.49-1.93ZM427.63,59c1.18,0,1.3-1.48,1.3-2.67s-.15-2.59-1.2-2.59-1.28,1.12-1.28,2.52S426.51,59,427.63,59Z" fill="#3b4351"/><path d="M431.79,52.69h1.43v.88h0a2.17,2.17,0,0,1,1.93-1.08c1.15,0,1.88.52,1.88,2v5.68h-1.52V55.06c0-1-.26-1.36-1.05-1.36-.61,0-1.2.46-1.2,1.47v5h-1.51Z" fill="#3b4351"/><path d="M447,57.48c-.12,1.8-.71,2.94-2.58,2.94-2.19,0-2.8-1.61-2.8-4s.61-4,2.8-4a2.43,2.43,0,0,1,2.59,2.7h-1.51c0-.7-.19-1.62-1.08-1.58-1.08,0-1.29,1.18-1.29,2.85s.21,2.84,1.29,2.84c.84,0,1.15-.69,1.15-1.82Z" fill="#3b4351"/><path d="M447.8,56.46c0-2.36.62-4,2.8-4s2.82,1.61,2.82,4-.73,4-2.82,4S447.8,58.81,447.8,56.46Zm2.8,2.84c1.11,0,1.31-.93,1.31-2.84,0-1.67-.2-2.85-1.31-2.85s-1.28,1.18-1.28,2.85C449.32,58.37,449.53,59.3,450.6,59.3Z" fill="#3b4351"/><path d="M454.58,52.69H456v.88h0A2.17,2.17,0,0,1,458,52.49c1.15,0,1.88.52,1.88,2v5.68h-1.51V55.06c0-1-.27-1.36-1.05-1.36-.62,0-1.21.46-1.21,1.47v5h-1.51Z" fill="#3b4351"/><path d="M465.08,59.34h0a1.75,1.75,0,0,1-1.72,1.08c-1.18,0-2.31-.81-2.31-3.87,0-2.57.71-4.06,2.46-4.06a1.62,1.62,0,0,1,1.66,1.12h0v-.92h1.43v10h-1.51Zm-1.19-5.64c-1.06,0-1.27,1.07-1.27,2.78,0,2,.4,2.74,1.17,2.74,1.18,0,1.37-1,1.37-2.85C465.16,54.75,464.93,53.7,463.89,53.7Z" fill="#3b4351"/><path d="M471.9,59.34h0a2.18,2.18,0,0,1-1.94,1.08c-1.12,0-1.87-.52-1.87-2.47V52.69h1.51v5.4c0,.84.36,1.13,1,1.13A1.18,1.18,0,0,0,471.81,58V52.69h1.52v7.53H471.9Z" fill="#3b4351"/><path d="M476.08,56.65v.44c0,1,.13,2.29,1.26,2.29s1.21-1.22,1.21-1.68H480a2.48,2.48,0,0,1-2.65,2.72c-1.23,0-2.76-.36-2.76-3.85,0-2,.43-4.08,2.79-4.08,2.1,0,2.66,1.28,2.66,3.36v.8Zm2.42-1v-.41c0-1-.3-1.68-1.16-1.68s-1.26.95-1.26,1.93v.16Z" fill="#3b4351"/><path d="M484.51,54.89v-.2c0-.6-.21-1.16-1-1.16-.61,0-1.08.26-1.08,1s.26.82,1.06,1.11l1,.33a2,2,0,0,1,1.64,2.17c0,1.61-1.19,2.3-2.71,2.3-1.9,0-2.47-.88-2.47-2.34V57.8h1.34V58c0,.88.29,1.34,1.18,1.34s1.23-.42,1.23-1.1a1.09,1.09,0,0,0-.83-1.11l-1.23-.43A2,2,0,0,1,481,54.56c0-1.41,1-2.07,2.58-2.07,1.92,0,2.35,1.12,2.35,2.06v.34Z" fill="#3b4351"/><path d="M486.55,52.69h1V50.54h1.51v2.15h1.23v1.12H489.1V58.3c0,.61.17.8.69.8a2.64,2.64,0,0,0,.54,0v1.12a4.56,4.56,0,0,1-1.21.13c-1,0-1.53-.3-1.53-1.82V53.81h-1Z" fill="#3b4351"/><path d="M494.37,54.89v-.2c0-.6-.21-1.16-1-1.16-.6,0-1.08.26-1.08,1s.27.82,1.07,1.11l1,.33A2,2,0,0,1,496,58.12c0,1.61-1.19,2.3-2.7,2.3-1.9,0-2.48-.88-2.48-2.34V57.8h1.35V58c0,.88.29,1.34,1.17,1.34s1.24-.42,1.24-1.1a1.1,1.1,0,0,0-.83-1.11l-1.23-.43a2,2,0,0,1-1.61-2.18c0-1.41,1-2.07,2.57-2.07,1.92,0,2.36,1.12,2.36,2.06v.34Z" fill="#3b4351"/><path d="M497.24,58.37h1.59v1.85h-1.59Z" fill="#3b4351"/><path d="M505.13,57.13v.25c0,1.22.55,1.84,1.64,1.84a1.44,1.44,0,0,0,1.51-1.46A1.68,1.68,0,0,0,506.85,56l-1.09-.38c-1.46-.56-2.09-1.32-2.09-2.74,0-1.83,1.25-2.83,3.11-2.83,2.57,0,2.83,1.59,2.83,2.63v.22H508v-.21c0-.91-.4-1.44-1.4-1.44a1.28,1.28,0,0,0-1.35,1.44c0,.86.44,1.29,1.5,1.7l1.08.39a2.55,2.55,0,0,1,2,2.65c0,2.13-1.29,3-3.31,3a2.74,2.74,0,0,1-3-3.05v-.24Z" fill="#3b4351"/><path d="M512.08,52.69l1.3,5.66h0l1.2-5.66h1.58l-2.07,7.81c-.6,2.06-1.06,2.34-2.63,2.3a2.53,2.53,0,0,1-.61-.06v-1.2a2.12,2.12,0,0,0,.49.06c.52,0,.86-.1,1-.59l.19-.62-2.14-7.7Z" fill="#3b4351"/><path d="M517,52.69h1.51v1.17h0a1.87,1.87,0,0,1,1.75-1.37.92.92,0,0,1,.37.06v1.54a2.23,2.23,0,0,0-.63-.09c-.69,0-1.52.31-1.52,1.71v4.51H517Z" fill="#3b4351"/><path d="M521.51,50.11H523v1.51h-1.51Zm0,2.58H523v7.53h-1.51Z" fill="#3b4351"/><path d="M529.49,58.65c0,.28.17.54.39.54a.57.57,0,0,0,.26,0v1a1.76,1.76,0,0,1-.75.18c-.67,0-1.23-.27-1.27-1h0a1.93,1.93,0,0,1-1.88,1.11c-1.21,0-2-.66-2-2.12A2.07,2.07,0,0,1,526,55.94l1.18-.32c.55-.16.88-.31.88-1s-.23-1.12-1-1.12c-1,0-1.15.71-1.15,1.44h-1.43c0-1.61.66-2.48,2.65-2.48,1.33,0,2.39.52,2.39,1.85Zm-1.43-2.4a13.82,13.82,0,0,1-1.68.7,1.23,1.23,0,0,0-.61,1.21c0,.63.3,1.14.93,1.14.92,0,1.36-.67,1.36-1.79Z" fill="#3b4351"/><path d="M537.64,60.42a1.74,1.74,0,0,1-1.71-1.08h0v3.35h-1.51v-10h1.43v.92h0a1.78,1.78,0,0,1,1.69-1.12c1.73,0,2.43,1.47,2.43,4.06C540,59.72,538.69,60.42,537.64,60.42Zm-.55-6.72c-1,0-1.27,1-1.27,2.67,0,1.81.22,2.85,1.29,2.85.85,0,1.26-.65,1.26-2.74C538.37,54.77,538.16,53.7,537.09,53.7Z" fill="#3b4351"/><path d="M541.19,50.22h1.52v10h-1.52Z" fill="#3b4351"/><path d="M548.08,59.34h0a2.17,2.17,0,0,1-1.93,1.08c-1.12,0-1.88-.52-1.88-2.47V52.69h1.51v5.4c0,.84.37,1.13,1,1.13A1.19,1.19,0,0,0,548,58V52.69h1.51v7.53h-1.43Z" fill="#3b4351"/><path d="M551,52.69h1.43v.88h.05a2.15,2.15,0,0,1,1.93-1.08c1.15,0,1.88.52,1.88,2v5.68h-1.52V55.06c0-1-.26-1.36-1.05-1.36-.61,0-1.2.46-1.2,1.47v5H551Z" fill="#3b4351"/><path d="M561.55,59.3h0a1.61,1.61,0,0,1-1.65,1.12c-1.75,0-2.47-1.49-2.47-4.06,0-3.35,1.18-3.87,2.33-3.87a1.74,1.74,0,0,1,1.71,1.08h0V50.22H563v10h-1.43Zm-1.37-5.6c-.86,0-1.18.7-1.18,2.73,0,1.71.21,2.79,1.28,2.79s1.27-1.06,1.27-2.68C561.55,54.73,561.35,53.7,560.18,53.7Z" fill="#3b4351"/><path d="M565.73,56.65v.44c0,1,.13,2.29,1.27,2.29s1.2-1.22,1.2-1.68h1.43A2.48,2.48,0,0,1,567,60.42c-1.23,0-2.76-.36-2.76-3.85,0-2,.44-4.08,2.79-4.08,2.1,0,2.66,1.28,2.66,3.36v.8Zm2.43-1v-.41c0-1-.31-1.68-1.16-1.68s-1.27.95-1.27,1.93v.16Z" fill="#3b4351"/><path d="M570.91,52.69h1.52v1.17h0a1.87,1.87,0,0,1,1.76-1.37.87.87,0,0,1,.36.06v1.54a2.11,2.11,0,0,0-.63-.09c-.69,0-1.51.31-1.51,1.71v4.51h-1.52Z" fill="#3b4351"/><path d="M576.54,56.65v.44c0,1,.13,2.29,1.26,2.29S579,58.16,579,57.7h1.43a2.48,2.48,0,0,1-2.65,2.72c-1.23,0-2.76-.36-2.76-3.85,0-2,.43-4.08,2.79-4.08,2.1,0,2.66,1.28,2.66,3.36v.8Zm2.43-1v-.41c0-1-.31-1.68-1.17-1.68s-1.26.95-1.26,1.93v.16Z" fill="#3b4351"/><path d="M585.57,59.3h0a1.62,1.62,0,0,1-1.66,1.12c-1.75,0-2.46-1.49-2.46-4.06,0-3.35,1.18-3.87,2.32-3.87a1.74,1.74,0,0,1,1.71,1.08h0V50.22H587v10h-1.43Zm-1.37-5.6c-.85,0-1.17.7-1.17,2.73,0,1.71.21,2.79,1.27,2.79s1.27-1.06,1.27-2.68C585.57,54.73,585.38,53.7,584.2,53.7Z" fill="#3b4351"/><path d="M588.61,58.37h1.6v1.85h-1.6Z" fill="#3b4351"/><path d="M596.51,57.13v.25c0,1.22.54,1.84,1.64,1.84a1.44,1.44,0,0,0,1.51-1.46A1.68,1.68,0,0,0,598.23,56l-1.09-.38c-1.46-.56-2.09-1.32-2.09-2.74,0-1.83,1.25-2.83,3.11-2.83,2.56,0,2.83,1.59,2.83,2.63v.22h-1.6v-.21c0-.91-.39-1.44-1.4-1.44a1.27,1.27,0,0,0-1.34,1.44c0,.86.43,1.29,1.5,1.7l1.07.39a2.54,2.54,0,0,1,2,2.65c0,2.13-1.28,3-3.3,3a2.74,2.74,0,0,1-3-3.05v-.24Z" fill="#3b4351"/><path d="M603.74,56.65v.44c0,1,.13,2.29,1.26,2.29s1.21-1.22,1.21-1.68h1.43A2.48,2.48,0,0,1,605,60.42c-1.23,0-2.76-.36-2.76-3.85,0-2,.43-4.08,2.79-4.08,2.1,0,2.66,1.28,2.66,3.36v.8Zm2.43-1v-.41c0-1-.31-1.68-1.17-1.68s-1.26.95-1.26,1.93v.16Z" fill="#3b4351"/><path d="M612.17,54.89v-.2c0-.6-.21-1.16-1-1.16-.6,0-1.08.26-1.08,1s.27.82,1.06,1.11l1,.33a2,2,0,0,1,1.64,2.17c0,1.61-1.19,2.3-2.7,2.3-1.91,0-2.48-.88-2.48-2.34V57.8h1.34V58c0,.88.3,1.34,1.18,1.34s1.23-.42,1.23-1.1a1.09,1.09,0,0,0-.83-1.11l-1.23-.43a2,2,0,0,1-1.61-2.18c0-1.41,1-2.07,2.58-2.07,1.92,0,2.35,1.12,2.35,2.06v.34Z" fill="#3b4351"/><path d="M614.59,56.46c0-2.36.62-4,2.8-4s2.82,1.61,2.82,4-.73,4-2.82,4S614.59,58.81,614.59,56.46Zm2.8,2.84c1.11,0,1.31-.93,1.31-2.84,0-1.67-.2-2.85-1.31-2.85s-1.28,1.18-1.28,2.85C616.11,58.37,616.32,59.3,617.39,59.3Z" fill="#3b4351"/><path d="M624.62,54.89v-.2c0-.6-.21-1.16-1-1.16-.6,0-1.07.26-1.07,1s.26.82,1.06,1.11l1,.33a2,2,0,0,1,1.64,2.17c0,1.61-1.19,2.3-2.71,2.3-1.9,0-2.48-.88-2.48-2.34V57.8h1.35V58c0,.88.29,1.34,1.17,1.34s1.24-.42,1.24-1.1a1.09,1.09,0,0,0-.83-1.11l-1.23-.43a2,2,0,0,1-1.61-2.18c0-1.41,1-2.07,2.58-2.07,1.91,0,2.35,1.12,2.35,2.06v.34Z" fill="#3b4351"/><path d="M626.66,52.69h1V50.54h1.51v2.15h1.23v1.12h-1.23V58.3c0,.61.17.8.69.8a2.7,2.7,0,0,0,.54,0v1.12a4.64,4.64,0,0,1-1.22.13c-1,0-1.52-.3-1.52-1.82V53.81h-1Z" fill="#3b4351"/><path d="M631.23,52.69h1.51v1.17h0a1.85,1.85,0,0,1,1.75-1.37.87.87,0,0,1,.36.06v1.54a2.11,2.11,0,0,0-.63-.09c-.69,0-1.51.31-1.51,1.71v4.51h-1.51Z" fill="#3b4351"/><path d="M635.71,50.11h1.51v1.51h-1.51Zm0,2.58h1.51v7.53h-1.51Z" fill="#3b4351"/><path d="M642,54.89v-.2c0-.6-.21-1.16-1-1.16-.6,0-1.08.26-1.08,1s.27.82,1.06,1.11l1,.33a2,2,0,0,1,1.64,2.17c0,1.61-1.19,2.3-2.7,2.3-1.91,0-2.48-.88-2.48-2.34V57.8h1.34V58c0,.88.3,1.34,1.18,1.34s1.23-.42,1.23-1.1a1.09,1.09,0,0,0-.83-1.11l-1.23-.43a2,2,0,0,1-1.61-2.18c0-1.41,1-2.07,2.58-2.07,1.92,0,2.35,1.12,2.35,2.06v.34Z" fill="#3b4351"/><path d="M648.09,50.22h1.6v10h-1.6Z" fill="#3b4351"/><path d="M651.2,50.22h1.6v10h-1.6Z" fill="#3b4351"/><path d="M654.31,50.22h1.6v10h-1.6Z" fill="#3b4351"/><path d="M657.54,58.37h1.6v1.85h-1.6Z" fill="#3b4351"/><path d="M664.2,50.22h3.17c1.92,0,2.76,1.21,2.76,2.92a2.71,2.71,0,0,1-2.93,3h-1.4v4.13h-1.6Zm1.6,4.67h1.14a1.5,1.5,0,0,0,1.59-1.73c0-1.07-.43-1.73-1.7-1.73h-1Z" fill="#3b4351"/><path d="M672.41,56.65v.44c0,1,.13,2.29,1.26,2.29s1.2-1.22,1.2-1.68h1.43a2.47,2.47,0,0,1-2.64,2.72c-1.24,0-2.76-.36-2.76-3.85,0-2,.43-4.08,2.78-4.08,2.11,0,2.67,1.28,2.67,3.36v.8Zm2.42-1v-.41c0-1-.3-1.68-1.16-1.68s-1.26.95-1.26,1.93v.16Z" fill="#3b4351"/><path d="M677.59,52.69h1.51v1.17h0a1.87,1.87,0,0,1,1.75-1.37.92.92,0,0,1,.37.06v1.54a2.23,2.23,0,0,0-.63-.09c-.69,0-1.52.31-1.52,1.71v4.51h-1.51Z" fill="#3b4351"/><path d="M682.07,50.11h1.51v1.51h-1.51Zm0,2.58h1.51v7.53h-1.51Z" fill="#3b4351"/><path d="M684.81,56.46c0-2.36.62-4,2.8-4s2.82,1.61,2.82,4-.73,4-2.82,4S684.81,58.81,684.81,56.46Zm2.8,2.84c1.11,0,1.31-.93,1.31-2.84,0-1.67-.2-2.85-1.31-2.85s-1.28,1.18-1.28,2.85C686.33,58.37,686.54,59.3,687.61,59.3Z" fill="#3b4351"/><path d="M695.44,59.3h0a1.6,1.6,0,0,1-1.65,1.12c-1.75,0-2.46-1.49-2.46-4.06,0-3.35,1.17-3.87,2.32-3.87a1.74,1.74,0,0,1,1.71,1.08h0V50.22h1.51v10h-1.43Zm-1.37-5.6c-.86,0-1.18.7-1.18,2.73,0,1.71.21,2.79,1.28,2.79s1.27-1.06,1.27-2.68C695.44,54.73,695.25,53.7,694.07,53.7Z" fill="#3b4351"/><path d="M701.39,56.46c0-2.36.62-4,2.8-4s2.82,1.61,2.82,4-.73,4-2.82,4S701.39,58.81,701.39,56.46Zm2.8,2.84c1.11,0,1.3-.93,1.3-2.84,0-1.67-.19-2.85-1.3-2.85s-1.29,1.18-1.29,2.85C702.9,58.37,703.11,59.3,704.19,59.3Z" fill="#3b4351"/><path d="M708.63,53.81h-1V52.69h1V52c0-1.42.68-1.88,1.92-1.88a6.4,6.4,0,0,1,.82,0v1.16H711c-.56,0-.81.21-.81.72v.66h1.23v1.12h-1.23v6.41h-1.51Z" fill="#3b4351"/><path d="M714.9,52.69h1.57l1,5.94h0l1.12-5.94h1.71l1.12,5.94h0l1-5.94h1.51l-1.72,7.53h-1.69l-1.18-5.85h0l-1.08,5.85h-1.76Z" fill="#3b4351"/><path d="M726.31,56.65v.44c0,1,.13,2.29,1.26,2.29s1.21-1.22,1.21-1.68h1.42a2.47,2.47,0,0,1-2.64,2.72c-1.24,0-2.76-.36-2.76-3.85,0-2,.43-4.08,2.78-4.08,2.11,0,2.67,1.28,2.67,3.36v.8Zm2.42-1v-.41c0-1-.3-1.68-1.16-1.68s-1.26.95-1.26,1.93v.16Z" fill="#3b4351"/><path d="M736.43,58.65c0,.28.17.54.4.54a.55.55,0,0,0,.25,0v1a1.71,1.71,0,0,1-.74.18c-.68,0-1.24-.27-1.28-1h0a1.93,1.93,0,0,1-1.87,1.11c-1.22,0-2-.66-2-2.12A2.06,2.06,0,0,1,733,55.94l1.17-.32c.55-.16.89-.31.89-1s-.24-1.12-1-1.12c-1,0-1.15.71-1.15,1.44h-1.43c0-1.61.66-2.48,2.65-2.48,1.33,0,2.39.52,2.39,1.85ZM735,56.25a13.82,13.82,0,0,1-1.68.7,1.22,1.22,0,0,0-.62,1.21c0,.63.31,1.14.94,1.14.91,0,1.36-.67,1.36-1.79Z" fill="#3b4351"/><path d="M738,50.22h1.52v10H738Z" fill="#3b4351"/><path d="M740.41,52.69h1V50.54H743v2.15h1.23v1.12H743V58.3c0,.61.16.8.68.8a2.75,2.75,0,0,0,.55,0v1.12a4.64,4.64,0,0,1-1.22.13c-1,0-1.53-.3-1.53-1.82V53.81h-1Z" fill="#3b4351"/><path d="M745,50.22h1.51V53.5l0,0a2.13,2.13,0,0,1,1.84-1c1.15,0,1.88.52,1.88,2v5.68h-1.51V55.06c0-1-.28-1.36-1-1.36s-1.21.47-1.21,1.47v5H745Z" fill="#3b4351"/></g></g><g id="Amorites"><path d="M1089,50.22h5.66c2.62,0,4.7,1.18,4.7,4.24q0,3.16-2.57,4v0c1.91.34,3.14,1.5,3.14,4.46s-2.11,4.78-5.4,4.78H1089Zm5,7.38a2.45,2.45,0,0,0,2.57-2.77c0-2.08-1.25-2.5-2.82-2.5h-2V57.6Zm.56,8c1.66,0,2.57-1,2.57-3.08a2.65,2.65,0,0,0-2.74-3h-2.6v6Z" fill="#3b4351"/><path d="M1110.59,65c0,.49.3.93.69.93a1,1,0,0,0,.44-.08v1.72a2.86,2.86,0,0,1-1.3.32c-1.18,0-2.16-.47-2.23-1.74h0a3.39,3.39,0,0,1-3.28,1.93c-2.13,0-3.43-1.15-3.43-3.7,0-2.94,1.3-3.55,3.06-4.14l2.06-.56c1-.27,1.54-.54,1.54-1.69s-.41-2-1.81-2c-1.77,0-2,1.25-2,2.52h-2.5c0-2.82,1.15-4.34,4.63-4.34,2.33,0,4.19.91,4.19,3.24Zm-2.5-4.22a21.19,21.19,0,0,1-2.94,1.23,2.16,2.16,0,0,0-1.08,2.13c0,1.1.54,2,1.65,2,1.59,0,2.37-1.17,2.37-3.13Z" fill="#3b4351"/><path d="M1113.28,50.22h2.65v5.86h0a3,3,0,0,1,3-1.89c2,0,4.07.91,4.07,6.77,0,4.53-1.25,7.1-4.32,7.1a2.82,2.82,0,0,1-2.89-2h0v1.62h-2.5ZM1118,66c1.87,0,2.23-1.89,2.23-4.88,0-3.55-.56-4.78-2.06-4.78-2,0-2.4,1.81-2.4,5C1115.78,64.12,1116.2,66,1118,66Z" fill="#3b4351"/><path d="M1126.54,54.54l2.28,9.9h0l2.1-9.9h2.77l-3.62,13.67c-1.06,3.6-1.87,4.09-4.61,4a5.26,5.26,0,0,1-1-.1V70a3.09,3.09,0,0,0,.85.1c.91,0,1.5-.17,1.79-1l.35-1.08-3.75-13.47Z" fill="#3b4351"/><path d="M1135.33,50.22H1138v17.5h-2.65Z" fill="#3b4351"/><path d="M1140.14,61.13c0-4.12,1.07-6.94,4.9-6.94S1150,57,1150,61.13s-1.27,6.93-4.92,6.93S1140.14,65.24,1140.14,61.13Zm4.9,5c1.93,0,2.28-1.61,2.28-5,0-2.92-.35-5-2.28-5s-2.26,2.06-2.26,5C1142.78,64.49,1143.15,66.1,1145,66.1Z" fill="#3b4351"/><path d="M1152,54.54h2.5v1.54h.08a3.77,3.77,0,0,1,3.38-1.89c2,0,3.28.91,3.28,3.58v9.95h-2.64v-9c0-1.77-.47-2.38-1.84-2.38-1.08,0-2.11.81-2.11,2.57v8.85H1152Z" fill="#3b4351"/><path d="M1163.9,50h2.65v2.64h-2.65Zm0,4.51h2.65V67.72h-2.65Z" fill="#3b4351"/><path d="M1177.87,65c0,.49.29.93.68.93a1,1,0,0,0,.44-.08v1.72a2.79,2.79,0,0,1-1.3.32c-1.17,0-2.15-.47-2.22-1.74h0a3.41,3.41,0,0,1-3.29,1.93c-2.13,0-3.43-1.15-3.43-3.7,0-2.94,1.3-3.55,3.06-4.14l2.06-.56c1-.27,1.55-.54,1.55-1.69s-.42-2-1.82-2c-1.76,0-2,1.25-2,2.52H1169c0-2.82,1.16-4.34,4.64-4.34,2.32,0,4.19.91,4.19,3.24Zm-2.5-4.22a22.26,22.26,0,0,1-2.94,1.23,2.16,2.16,0,0,0-1.08,2.13c0,1.1.54,2,1.64,2,1.59,0,2.38-1.17,2.38-3.13Z" fill="#3b4351"/><path d="M1180.56,54.54h2.5v1.54h.07a3.77,3.77,0,0,1,3.38-1.89c2,0,3.29.91,3.29,3.58v9.95h-2.65v-9c0-1.77-.46-2.38-1.84-2.38-1.08,0-2.1.81-2.1,2.57v8.85h-2.65Z" fill="#3b4351"/><path d="M1198,58.38V58c0-1-.37-2-1.74-2-1.06,0-1.89.46-1.89,1.71,0,1.06.47,1.45,1.86,1.94l1.7.59c2,.66,2.86,1.71,2.86,3.79,0,2.82-2.08,4-4.73,4-3.33,0-4.33-1.54-4.33-4.09v-.49h2.35v.42c0,1.54.51,2.35,2.06,2.35s2.15-.74,2.15-1.94a1.91,1.91,0,0,0-1.44-1.93l-2.16-.76c-2-.66-2.82-1.69-2.82-3.8,0-2.47,1.77-3.63,4.51-3.63,3.36,0,4.12,2,4.12,3.61v.58Z" fill="#3b4351"/></g><g id="Ageans"><g id="Title"><g id="small-2" data-name="small"><path d="M100,64.7h3.23c1.5,0,2.69.67,2.69,2.42a2.09,2.09,0,0,1-1.47,2.27v0c1.09.2,1.79.86,1.79,2.55s-1.2,2.73-3.08,2.73H100Zm2.85,4.22a1.41,1.41,0,0,0,1.48-1.58c0-1.2-.72-1.43-1.62-1.43h-1.12v3Zm.33,4.58c1,0,1.47-.6,1.47-1.77A1.52,1.52,0,0,0,103.07,70h-1.49V73.5Z"/><path d="M107.41,67.17h1.51v1.17h0A1.85,1.85,0,0,1,110.7,67a.73.73,0,0,1,.36.06v1.54a2.11,2.11,0,0,0-.63-.09c-.68,0-1.51.31-1.51,1.71V74.7h-1.51Z"/><path d="M111.52,70.93c0-2.35.62-4,2.8-4s2.82,1.61,2.82,4-.73,4-2.82,4S111.52,73.29,111.52,70.93Zm2.8,2.85c1.11,0,1.31-.93,1.31-2.85,0-1.66-.2-2.84-1.31-2.84S113,69.27,113,70.93C113,72.85,113.25,73.78,114.32,73.78Z"/><path d="M118.3,67.17h1.43v.88h0A2.17,2.17,0,0,1,121.7,67c1.15,0,1.88.52,1.88,2V74.7h-1.51V69.53c0-1-.27-1.35-1-1.35-.62,0-1.21.46-1.21,1.47v5H118.3Z"/><path d="M124.65,73.53l3.3-5.09h-3.1V67.17h4.8v1.24l-3.16,5h3.16V74.7h-5Z"/><path d="M132,71.13v.44c0,1,.13,2.29,1.26,2.29s1.21-1.22,1.21-1.68h1.43a2.48,2.48,0,0,1-2.65,2.72c-1.23,0-2.76-.37-2.76-3.85,0-2,.43-4.08,2.79-4.08,2.1,0,2.66,1.28,2.66,3.36v.8Zm2.43-1v-.4c0-1-.31-1.68-1.17-1.68S132,69,132,69.94v.15Z"/><path d="M140.46,69.37v-.2c0-.6-.21-1.16-1-1.16-.61,0-1.08.26-1.08,1s.26.82,1.06,1.1l1,.34a2,2,0,0,1,1.64,2.17c0,1.61-1.19,2.3-2.71,2.3-1.9,0-2.47-.88-2.47-2.34v-.28h1.34v.24c0,.88.29,1.34,1.18,1.34s1.23-.42,1.23-1.1a1.09,1.09,0,0,0-.83-1.11l-1.23-.43A2,2,0,0,1,137,69c0-1.41,1-2.07,2.58-2.07,1.92,0,2.35,1.12,2.35,2.06v.34Z"/><path d="M149.79,74.9a1.73,1.73,0,0,1-1.71-1.08h0v3.35h-1.51v-10H148v.92h0a1.79,1.79,0,0,1,1.7-1.12c1.72,0,2.42,1.47,2.42,4.06C152.11,74.2,150.84,74.9,149.79,74.9Zm-.55-6.72c-1,0-1.28,1-1.28,2.67,0,1.81.23,2.84,1.29,2.84.86,0,1.26-.64,1.26-2.73C150.51,69.25,150.3,68.18,149.24,68.18Z"/><path d="M153,70.93c0-2.35.61-4,2.8-4s2.81,1.61,2.81,4-.73,4-2.81,4S153,73.29,153,70.93Zm2.8,2.85c1.1,0,1.3-.93,1.3-2.85,0-1.66-.2-2.84-1.3-2.84s-1.29,1.18-1.29,2.84C154.49,72.85,154.7,73.78,155.78,73.78Z"/><path d="M159.08,67.17h1V65h1.51v2.15h1.23v1.12h-1.23v4.49c0,.61.17.8.68.8a2.75,2.75,0,0,0,.55,0v1.12a5.11,5.11,0,0,1-1.22.13c-1,0-1.52-.3-1.52-1.82V68.29h-1Z"/><path d="M163,67.17h1V65h1.51v2.15h1.23v1.12h-1.23v4.49c0,.61.17.8.69.8a2.7,2.7,0,0,0,.54,0v1.12a5.11,5.11,0,0,1-1.22.13c-1,0-1.52-.3-1.52-1.82V68.29h-1Z"/><path d="M168.84,71.13v.44c0,1,.12,2.29,1.26,2.29s1.2-1.22,1.2-1.68h1.43a2.48,2.48,0,0,1-2.65,2.72c-1.23,0-2.75-.37-2.75-3.85,0-2,.43-4.08,2.78-4.08,2.1,0,2.66,1.28,2.66,3.36v.8Zm2.42-1v-.4c0-1-.31-1.68-1.16-1.68s-1.26.95-1.26,1.93v.15Z"/><path d="M174,67.17h1.51v1.17h0A1.85,1.85,0,0,1,177.31,67a.73.73,0,0,1,.36.06v1.54a2.11,2.11,0,0,0-.63-.09c-.68,0-1.51.31-1.51,1.71V74.7H174Z"/><path d="M179.69,67.17l1.3,5.66h0l1.2-5.66h1.59L181.73,75c-.6,2.06-1.06,2.34-2.63,2.3a2.45,2.45,0,0,1-.6-.06V76a2,2,0,0,0,.49.06c.52,0,.85-.1,1-.59l.2-.62-2.15-7.7Z"/><path d="M193,73.13c0,.28.17.54.39.54a.52.52,0,0,0,.25,0v1a1.58,1.58,0,0,1-.74.19c-.67,0-1.23-.27-1.28-1h0a2,2,0,0,1-1.88,1.11c-1.22,0-2-.66-2-2.12a2.06,2.06,0,0,1,1.75-2.36l1.18-.33c.54-.15.88-.3.88-1s-.24-1.12-1-1.12c-1,0-1.15.71-1.15,1.44H187.9c0-1.61.66-2.48,2.65-2.48,1.33,0,2.4.52,2.4,1.85Zm-1.43-2.41a12.44,12.44,0,0,1-1.68.71,1.22,1.22,0,0,0-.62,1.21c0,.63.31,1.14.94,1.14.91,0,1.36-.67,1.36-1.79Z"/><path d="M194.48,67.17h1.43v.88H196A2.15,2.15,0,0,1,197.89,67c1.15,0,1.88.52,1.88,2V74.7h-1.52V69.53c0-1-.26-1.35-1.05-1.35-.61,0-1.2.46-1.2,1.47v5h-1.52Z"/><path d="M205.07,73.78h0a1.61,1.61,0,0,1-1.65,1.12c-1.75,0-2.47-1.49-2.47-4.06,0-3.35,1.18-3.87,2.33-3.87A1.74,1.74,0,0,1,205,68.05h0V64.7h1.51v10h-1.43Zm-1.37-5.6c-.86,0-1.18.7-1.18,2.73,0,1.71.21,2.78,1.28,2.78s1.27-1,1.27-2.67C205.07,69.21,204.87,68.18,203.7,68.18Z"/><path d="M210.64,67.17h1V65h1.51v2.15h1.23v1.12h-1.23v4.49c0,.61.17.8.69.8a2.7,2.7,0,0,0,.54,0v1.12a5.11,5.11,0,0,1-1.22.13c-1,0-1.52-.3-1.52-1.82V68.29h-1Z"/><path d="M215.27,64.59h1.52V66.1h-1.52Zm0,2.58h1.52V74.7h-1.52Z"/><path d="M217.64,67.17h1V65h1.51v2.15h1.23v1.12h-1.23v4.49c0,.61.17.8.69.8a2.7,2.7,0,0,0,.54,0v1.12a5.11,5.11,0,0,1-1.22.13c-1,0-1.52-.3-1.52-1.82V68.29h-1Z"/><path d="M222.27,64.7h1.52v10h-1.52Z"/><path d="M226.62,71.13v.44c0,1,.12,2.29,1.26,2.29s1.2-1.22,1.2-1.68h1.43a2.48,2.48,0,0,1-2.65,2.72c-1.23,0-2.76-.37-2.76-3.85,0-2,.44-4.08,2.79-4.08,2.1,0,2.66,1.28,2.66,3.36v.8Zm2.42-1v-.4c0-1-.31-1.68-1.16-1.68s-1.26.95-1.26,1.93v.15Z"/><path d="M235,69.37v-.2c0-.6-.21-1.16-1-1.16-.6,0-1.08.26-1.08,1s.27.82,1.07,1.1l1,.34a2,2,0,0,1,1.64,2.17c0,1.61-1.19,2.3-2.7,2.3-1.91,0-2.48-.88-2.48-2.34v-.28h1.34v.24c0,.88.3,1.34,1.18,1.34s1.23-.42,1.23-1.1a1.09,1.09,0,0,0-.82-1.11l-1.24-.43A2,2,0,0,1,231.54,69c0-1.41,1-2.07,2.58-2.07,1.92,0,2.35,1.12,2.35,2.06v.34Z"/><path d="M241.19,64.59h1.51V66.1h-1.51Zm0,2.58h1.51V74.7h-1.51Z"/><path d="M244.23,67.17h1.42v.88h0A2.15,2.15,0,0,1,247.63,67c1.15,0,1.88.52,1.88,2V74.7H248V69.53c0-1-.26-1.35-1.05-1.35-.61,0-1.2.46-1.2,1.47v5h-1.51Z"/><path d="M259.26,73.13c0,.28.17.54.4.54a.55.55,0,0,0,.25,0v1a1.58,1.58,0,0,1-.74.19c-.68,0-1.24-.27-1.28-1h0A1.94,1.94,0,0,1,256,74.9c-1.22,0-2-.66-2-2.12a2.06,2.06,0,0,1,1.75-2.36l1.17-.33c.55-.15.89-.3.89-1s-.24-1.12-1-1.12c-1,0-1.15.71-1.15,1.44h-1.43c0-1.61.66-2.48,2.65-2.48,1.33,0,2.39.52,2.39,1.85Zm-1.42-2.41a12,12,0,0,1-1.69.71,1.23,1.23,0,0,0-.61,1.21c0,.63.31,1.14.94,1.14.91,0,1.36-.67,1.36-1.79Z"/><path d="M260.8,67.17h1.51v1.17h0A1.87,1.87,0,0,1,264.09,67a.77.77,0,0,1,.37.06v1.54a2.17,2.17,0,0,0-.63-.09c-.69,0-1.52.31-1.52,1.71V74.7H260.8Z"/><path d="M270.21,72c-.11,1.8-.7,2.94-2.58,2.94-2.18,0-2.8-1.61-2.8-4s.62-4,2.8-4a2.44,2.44,0,0,1,2.6,2.7h-1.52c0-.7-.18-1.62-1.08-1.58-1.07,0-1.28,1.18-1.28,2.84s.21,2.85,1.28,2.85c.85,0,1.15-.69,1.15-1.82Z"/><path d="M271.26,64.7h1.51V68l0,0a2.16,2.16,0,0,1,1.85-1c1.15,0,1.88.52,1.88,2V74.7H275V69.53c0-1-.28-1.35-1-1.35s-1.21.47-1.21,1.47v5h-1.51Z"/><path d="M282.94,73.13c0,.28.17.54.39.54a.52.52,0,0,0,.25,0v1a1.58,1.58,0,0,1-.74.19c-.67,0-1.23-.27-1.28-1h0a2,2,0,0,1-1.88,1.11c-1.22,0-2-.66-2-2.12a2.06,2.06,0,0,1,1.75-2.36l1.18-.33c.54-.15.88-.3.88-1s-.24-1.12-1-1.12c-1,0-1.15.71-1.15,1.44h-1.43c0-1.61.66-2.48,2.65-2.48,1.33,0,2.4.52,2.4,1.85Zm-1.43-2.41a12.44,12.44,0,0,1-1.68.71,1.22,1.22,0,0,0-.62,1.21c0,.63.31,1.14.94,1.14.91,0,1.36-.67,1.36-1.79Z"/><path d="M284.54,64.59h1.52V66.1h-1.52Zm0,2.58h1.52V74.7h-1.52Z"/><path d="M292.67,72c-.11,1.8-.7,2.94-2.58,2.94-2.18,0-2.8-1.61-2.8-4s.62-4,2.8-4a2.43,2.43,0,0,1,2.59,2.7h-1.51c0-.7-.18-1.62-1.08-1.58-1.08,0-1.29,1.18-1.29,2.84s.21,2.85,1.29,2.85c.84,0,1.15-.69,1.15-1.82Z"/><path d="M300.41,69.37v-.2c0-.6-.21-1.16-1-1.16-.6,0-1.07.26-1.07,1s.26.82,1.06,1.1l1,.34A2,2,0,0,1,302,72.6c0,1.61-1.2,2.3-2.71,2.3-1.9,0-2.48-.88-2.48-2.34v-.28h1.35v.24c0,.88.29,1.34,1.17,1.34s1.24-.42,1.24-1.1a1.09,1.09,0,0,0-.83-1.11l-1.23-.43A2,2,0,0,1,296.91,69c0-1.41,1-2.07,2.57-2.07,1.92,0,2.36,1.12,2.36,2.06v.34Z"/><path d="M302.45,67.17h1V65H305v2.15h1.23v1.12H305v4.49c0,.61.17.8.69.8a2.7,2.7,0,0,0,.54,0v1.12a5.11,5.11,0,0,1-1.22.13c-1,0-1.52-.3-1.52-1.82V68.29h-1Z"/><path d="M308,67.17l1.31,5.66h0l1.21-5.66h1.58L310.07,75c-.6,2.06-1.07,2.34-2.64,2.3a2.45,2.45,0,0,1-.6-.06V76a2.05,2.05,0,0,0,.49.06c.52,0,.86-.1,1-.59l.19-.62-2.14-7.7Z"/><path d="M313.05,64.7h1.51v10h-1.51Z"/><path d="M317.39,71.13v.44c0,1,.13,2.29,1.26,2.29s1.2-1.22,1.2-1.68h1.43a2.48,2.48,0,0,1-2.64,2.72c-1.24,0-2.76-.37-2.76-3.85,0-2,.43-4.08,2.78-4.08,2.1,0,2.67,1.28,2.67,3.36v.8Zm2.42-1v-.4c0-1-.31-1.68-1.16-1.68s-1.26.95-1.26,1.93v.15Z"/><path d="M115.14,81.7h1.6v4h2.94v-4h1.6v10h-1.6V87.05h-2.94V91.7h-1.6Z"/><path d="M124.13,88.13v.44c0,1,.13,2.29,1.26,2.29s1.21-1.22,1.21-1.68H128a2.47,2.47,0,0,1-2.64,2.72c-1.24,0-2.76-.37-2.76-3.85,0-2,.43-4.08,2.78-4.08,2.11,0,2.67,1.28,2.67,3.36v.8Zm2.42-1v-.4c0-1-.3-1.68-1.16-1.68s-1.26.95-1.26,1.93v.15Z"/><path d="M129.38,81.59h1.51V83.1h-1.51Zm0,2.58h1.51V91.7h-1.51Z"/><path d="M132.42,84.17h1.51v1.17h0A1.85,1.85,0,0,1,135.71,84a.73.73,0,0,1,.36.06v1.54a2.11,2.11,0,0,0-.63-.09c-.68,0-1.51.31-1.51,1.71V91.7h-1.51Z"/><path d="M136.53,87.93c0-2.35.62-4,2.8-4s2.82,1.61,2.82,4-.73,4-2.82,4S136.53,90.29,136.53,87.93Zm2.8,2.85c1.11,0,1.31-.93,1.31-2.85,0-1.66-.2-2.84-1.31-2.84s-1.28,1.18-1.28,2.84C138.05,89.85,138.26,90.78,139.33,90.78Z"/><path d="M144.82,92.35a1,1,0,0,0,1.09.89,1.25,1.25,0,0,0,1.28-1.41V90.61h0a1.82,1.82,0,0,1-1.71,1c-1.75,0-2.25-1.73-2.25-3.8,0-1.65.25-3.88,2.39-3.88a1.69,1.69,0,0,1,1.66,1.12h0v-.92h1.43v7.17c0,1.83-.78,2.94-2.81,2.94-2.25,0-2.5-1.32-2.5-1.93Zm1.07-1.91c1.17,0,1.3-1.48,1.3-2.67S147,85.18,146,85.18s-1.27,1.12-1.27,2.52S144.77,90.44,145.89,90.44Z"/><path d="M150.11,81.7h1.52v10h-1.52Z"/><path d="M154.16,84.17l1.3,5.66h0l1.2-5.66h1.59L156.2,92c-.6,2.06-1.06,2.34-2.63,2.3a2.45,2.45,0,0,1-.6-.06V93a2.05,2.05,0,0,0,.49.06c.52,0,.85-.1,1-.59l.2-.62-2.15-7.7Z"/><path d="M162.36,91.9a1.72,1.72,0,0,1-1.7-1.08h0v3.35h-1.52v-10h1.43v.92h0a1.79,1.79,0,0,1,1.7-1.12c1.72,0,2.42,1.47,2.42,4.06C164.69,91.2,163.41,91.9,162.36,91.9Zm-.54-6.72c-1,0-1.28,1-1.28,2.67,0,1.81.23,2.84,1.29,2.84.86,0,1.26-.64,1.26-2.73C163.09,86.25,162.88,85.18,161.82,85.18Z"/><path d="M165.85,81.7h1.51V85l0,0a2.16,2.16,0,0,1,1.85-1c1.15,0,1.88.52,1.88,2V91.7h-1.51V86.53c0-1-.28-1.35-1.05-1.35-.62,0-1.21.47-1.21,1.47v5h-1.51Z"/><path d="M172.65,81.59h1.51V83.1h-1.51Zm0,2.58h1.51V91.7h-1.51Z"/><path d="M180.77,89c-.11,1.8-.7,2.94-2.57,2.94-2.19,0-2.8-1.61-2.8-4s.61-4,2.8-4a2.43,2.43,0,0,1,2.59,2.7h-1.51c0-.7-.19-1.62-1.08-1.58-1.08,0-1.29,1.18-1.29,2.84s.21,2.85,1.29,2.85c.84,0,1.15-.69,1.15-1.82Z"/><path d="M185.27,84.17h1.51v1.17h0A1.85,1.85,0,0,1,188.56,84a.73.73,0,0,1,.36.06v1.54a2.11,2.11,0,0,0-.63-.09c-.68,0-1.51.31-1.51,1.71V91.7h-1.51Z"/><path d="M190.89,88.13v.44c0,1,.13,2.29,1.27,2.29s1.2-1.22,1.2-1.68h1.43a2.48,2.48,0,0,1-2.65,2.72c-1.23,0-2.76-.37-2.76-3.85,0-2,.44-4.08,2.79-4.08,2.1,0,2.66,1.28,2.66,3.36v.8Zm2.43-1v-.4c0-1-.31-1.68-1.16-1.68s-1.27.95-1.27,1.93v.15Z"/><path d="M201.16,89c-.11,1.8-.7,2.94-2.58,2.94-2.18,0-2.8-1.61-2.8-4s.62-4,2.8-4a2.43,2.43,0,0,1,2.59,2.7h-1.51c0-.7-.18-1.62-1.08-1.58-1.08,0-1.29,1.18-1.29,2.84s.21,2.85,1.29,2.85c.84,0,1.15-.69,1.15-1.82Z"/><path d="M202,87.93c0-2.35.61-4,2.8-4s2.81,1.61,2.81,4-.73,4-2.81,4S202,90.29,202,87.93Zm2.8,2.85c1.1,0,1.3-.93,1.3-2.85,0-1.66-.2-2.84-1.3-2.84s-1.29,1.18-1.29,2.84C203.51,89.85,203.72,90.78,204.8,90.78Z"/><path d="M208.77,84.17h1.51v1.17h0A1.87,1.87,0,0,1,212.06,84a.77.77,0,0,1,.37.06v1.54a2.17,2.17,0,0,0-.63-.09c-.69,0-1.52.31-1.52,1.71V91.7h-1.51Z"/><path d="M217,90.78h0a1.61,1.61,0,0,1-1.65,1.12c-1.75,0-2.47-1.49-2.47-4.06,0-3.35,1.18-3.87,2.33-3.87a1.75,1.75,0,0,1,1.71,1.08h0V81.7h1.51v10H217Zm-1.37-5.6c-.86,0-1.18.7-1.18,2.73,0,1.71.21,2.78,1.27,2.78S217,89.64,217,88C217,86.21,216.75,85.18,215.58,85.18Z"/><path d="M223.08,86.37v-.2c0-.6-.21-1.16-1-1.16-.61,0-1.08.26-1.08,1s.26.82,1.06,1.1l1,.34a2,2,0,0,1,1.64,2.17c0,1.61-1.19,2.3-2.71,2.3-1.9,0-2.48-.88-2.48-2.34v-.28h1.35v.24c0,.88.29,1.34,1.18,1.34s1.23-.42,1.23-1.1a1.09,1.09,0,0,0-.83-1.11l-1.23-.43A2,2,0,0,1,219.58,86c0-1.41,1-2.07,2.58-2.07,1.92,0,2.35,1.12,2.35,2.06v.34Z"/><path d="M228.86,87.93c0-2.35.62-4,2.8-4s2.82,1.61,2.82,4-.73,4-2.82,4S228.86,90.29,228.86,87.93Zm2.8,2.85c1.11,0,1.3-.93,1.3-2.85,0-1.66-.19-2.84-1.3-2.84s-1.29,1.18-1.29,2.84C230.37,89.85,230.58,90.78,231.66,90.78Z"/><path d="M235.64,84.17h1.43v.88h0A2.17,2.17,0,0,1,239,84c1.15,0,1.88.52,1.88,2V91.7H239.4V86.53c0-1-.26-1.35-1.05-1.35-.61,0-1.2.46-1.2,1.47v5h-1.51Z"/><path d="M250.81,89c-.11,1.8-.7,2.94-2.57,2.94-2.19,0-2.8-1.61-2.8-4s.61-4,2.8-4a2.43,2.43,0,0,1,2.59,2.7h-1.51c0-.7-.19-1.62-1.08-1.58-1.08,0-1.29,1.18-1.29,2.84s.21,2.85,1.29,2.85c.84,0,1.15-.69,1.15-1.82Z"/><path d="M252,81.7h1.51v10H252Z"/><path d="M260,90.13c0,.28.17.54.39.54a.52.52,0,0,0,.25,0v1a1.58,1.58,0,0,1-.74.19c-.67,0-1.23-.27-1.27-1h0a2,2,0,0,1-1.88,1.11c-1.22,0-2-.66-2-2.12a2.06,2.06,0,0,1,1.75-2.36l1.18-.33c.54-.15.88-.3.88-1s-.24-1.12-1-1.12c-1,0-1.15.71-1.15,1.44H255c0-1.61.65-2.48,2.64-2.48,1.33,0,2.4.52,2.4,1.85Zm-1.43-2.41a12.44,12.44,0,0,1-1.68.71,1.22,1.22,0,0,0-.62,1.21c0,.63.31,1.14.94,1.14.91,0,1.36-.67,1.36-1.79Z"/><path d="M262.54,84.17l1.31,5.66h0l1.2-5.66h1.58L264.59,92c-.6,2.06-1.07,2.34-2.63,2.3a2.53,2.53,0,0,1-.61-.06V93a2.12,2.12,0,0,0,.49.06c.52,0,.86-.1,1-.59l.19-.62-2.14-7.7Z"/><path d="M270.19,84.17h1V82h1.52v2.15H274v1.12h-1.23v4.49c0,.61.16.8.68.8a2.75,2.75,0,0,0,.55,0v1.12a5.11,5.11,0,0,1-1.22.13c-1,0-1.53-.3-1.53-1.82V85.29h-1Z"/><path d="M279.7,90.13c0,.28.16.54.39.54a.55.55,0,0,0,.25,0v1a1.58,1.58,0,0,1-.74.19c-.67,0-1.23-.27-1.28-1h0a2,2,0,0,1-1.88,1.11c-1.22,0-2-.66-2-2.12a2.06,2.06,0,0,1,1.75-2.36l1.18-.33c.54-.15.88-.3.88-1S278,85,277.23,85c-1,0-1.15.71-1.15,1.44h-1.43c0-1.61.66-2.48,2.65-2.48,1.33,0,2.4.52,2.4,1.85Zm-1.43-2.41a12.44,12.44,0,0,1-1.68.71,1.22,1.22,0,0,0-.62,1.21c0,.63.31,1.14.94,1.14.91,0,1.36-.67,1.36-1.79Z"/><path d="M281.23,81.7h1.52v3.35h0A1.75,1.75,0,0,1,284.48,84c1.15,0,2.33.52,2.33,3.87,0,2.59-.72,4.06-2.47,4.06a1.61,1.61,0,0,1-1.65-1.12h0v.92h-1.43Zm2.71,9c1.06,0,1.27-1.07,1.27-2.78,0-2-.32-2.73-1.17-2.73-1.18,0-1.38,1-1.38,2.84C282.66,89.64,282.9,90.69,283.94,90.69Z"/><path d="M288,81.7h1.51v10H288Z"/><path d="M292.38,88.13v.44c0,1,.12,2.29,1.26,2.29s1.2-1.22,1.2-1.68h1.43a2.48,2.48,0,0,1-2.65,2.72c-1.23,0-2.75-.37-2.75-3.85,0-2,.43-4.08,2.78-4.08,2.1,0,2.66,1.28,2.66,3.36v.8Zm2.42-1v-.4c0-1-.31-1.68-1.16-1.68s-1.26.95-1.26,1.93v.15Z"/><path d="M296.89,84.17h1V82h1.51v2.15h1.24v1.12h-1.24v4.49c0,.61.17.8.69.8a2.75,2.75,0,0,0,.55,0v1.12a5.11,5.11,0,0,1-1.22.13c-1,0-1.53-.3-1.53-1.82V85.29h-1Z"/><path d="M304.7,86.37v-.2c0-.6-.21-1.16-1-1.16-.6,0-1.07.26-1.07,1s.26.82,1.06,1.1l1,.34a2,2,0,0,1,1.64,2.17c0,1.61-1.19,2.3-2.71,2.3-1.9,0-2.48-.88-2.48-2.34v-.28h1.35v.24c0,.88.29,1.34,1.17,1.34s1.24-.42,1.24-1.1a1.09,1.09,0,0,0-.83-1.11l-1.23-.43A2,2,0,0,1,301.2,86c0-1.41,1-2.07,2.57-2.07,1.92,0,2.36,1.12,2.36,2.06v.34Z"/><path d="M226.17,107.13c0,.28.17.54.39.54a.57.57,0,0,0,.26,0v1a1.62,1.62,0,0,1-.75.19c-.67,0-1.23-.27-1.27-1h0a2,2,0,0,1-1.88,1.11c-1.21,0-2-.66-2-2.12a2.07,2.07,0,0,1,1.75-2.36l1.18-.33c.55-.15.88-.3.88-1s-.24-1.12-1-1.12c-1,0-1.15.71-1.15,1.44h-1.43c0-1.61.66-2.48,2.65-2.48,1.33,0,2.39.52,2.39,1.85Zm-1.43-2.41a12.44,12.44,0,0,1-1.68.71,1.23,1.23,0,0,0-.61,1.21c0,.63.3,1.14.93,1.14.91,0,1.36-.67,1.36-1.79Z"/><path d="M231,103.37v-.2c0-.6-.21-1.16-1-1.16-.6,0-1.07.26-1.07,1s.26.82,1.06,1.1l1,.34a2,2,0,0,1,1.64,2.17c0,1.61-1.2,2.3-2.71,2.3-1.9,0-2.48-.88-2.48-2.34v-.28h1.35v.24c0,.88.29,1.34,1.17,1.34s1.24-.42,1.24-1.1a1.09,1.09,0,0,0-.83-1.11l-1.23-.43a2,2,0,0,1-1.61-2.18c0-1.41,1-2.07,2.57-2.07,1.92,0,2.36,1.12,2.36,2.06v.34Z"/><path d="M238,101.17l1.3,5.66h0l1.21-5.66h1.58L240.09,109c-.61,2.06-1.07,2.34-2.64,2.3a2.45,2.45,0,0,1-.6-.06V110a2.05,2.05,0,0,0,.49.06c.52,0,.86-.1,1-.59l.2-.62-2.14-7.7Z"/><path d="M244.22,105.13v.44c0,1,.12,2.29,1.26,2.29s1.2-1.22,1.2-1.68h1.43a2.48,2.48,0,0,1-2.65,2.72c-1.23,0-2.76-.37-2.76-3.85,0-2,.44-4.08,2.79-4.08,2.1,0,2.66,1.28,2.66,3.36v.8Zm2.42-1v-.4c0-1-.31-1.68-1.16-1.68s-1.26.95-1.26,1.93v.15Z"/><path d="M248.72,101.17h1V99h1.51v2.15h1.23v1.12h-1.23v4.49c0,.61.17.8.69.8a2.7,2.7,0,0,0,.54,0v1.12a5,5,0,0,1-1.21.13c-1,0-1.53-.3-1.53-1.82v-4.68h-1Z"/><path d="M260.5,107.82h0a2.18,2.18,0,0,1-1.94,1.08c-1.12,0-1.87-.52-1.87-2.47v-5.26h1.51v5.4c0,.84.36,1.12,1,1.12a1.17,1.17,0,0,0,1.23-1.26v-5.26h1.52v7.53H260.5Z"/><path d="M263.38,101.17h1.43v.88h0a2.17,2.17,0,0,1,1.93-1.08c1.15,0,1.88.52,1.88,2v5.68h-1.51v-5.17c0-1-.27-1.35-1-1.35-.62,0-1.21.46-1.21,1.47v5h-1.51Z"/><path d="M274,107.78h0a1.61,1.61,0,0,1-1.65,1.12c-1.76,0-2.47-1.49-2.47-4.06,0-3.35,1.18-3.87,2.32-3.87a1.74,1.74,0,0,1,1.71,1.08h0V98.7h1.51v10H274Zm-1.38-5.6c-.85,0-1.17.7-1.17,2.73,0,1.71.21,2.78,1.27,2.78s1.28-1,1.28-2.67C274,103.21,273.77,102.18,272.59,102.18Z"/><path d="M278.15,105.13v.44c0,1,.13,2.29,1.26,2.29s1.21-1.22,1.21-1.68H282a2.47,2.47,0,0,1-2.64,2.72c-1.24,0-2.76-.37-2.76-3.85,0-2,.43-4.08,2.79-4.08,2.1,0,2.66,1.28,2.66,3.36v.8Zm2.42-1v-.4c0-1-.3-1.68-1.16-1.68s-1.26.95-1.26,1.93v.15Z"/><path d="M288.41,106c-.11,1.8-.7,2.94-2.57,2.94-2.19,0-2.8-1.61-2.8-4s.61-4,2.8-4a2.43,2.43,0,0,1,2.59,2.7h-1.51c0-.7-.19-1.62-1.08-1.58-1.08,0-1.29,1.18-1.29,2.84s.21,2.85,1.29,2.85c.84,0,1.15-.69,1.15-1.82Z"/><path d="M289.62,98.59h1.51v1.51h-1.51Zm0,2.58h1.51v7.53h-1.51Z"/><path d="M295.9,108.9a1.74,1.74,0,0,1-1.71-1.08h0v3.35h-1.52v-10h1.43v.92h0a1.78,1.78,0,0,1,1.7-1.12c1.72,0,2.42,1.47,2.42,4.06C298.23,108.2,297,108.9,295.9,108.9Zm-.54-6.72c-1,0-1.28,1-1.28,2.67,0,1.81.23,2.84,1.29,2.84.86,0,1.26-.64,1.26-2.73C296.63,103.25,296.42,102.18,295.36,102.18Z"/><path d="M299.39,98.7h1.51V102l0,0a2.16,2.16,0,0,1,1.85-1c1.15,0,1.88.52,1.88,2v5.68h-1.51v-5.17c0-1-.28-1.35-1.06-1.35-.61,0-1.2.47-1.2,1.47v5h-1.51Z"/><path d="M307.42,105.13v.44c0,1,.13,2.29,1.26,2.29s1.21-1.22,1.21-1.68h1.43a2.48,2.48,0,0,1-2.65,2.72c-1.23,0-2.76-.37-2.76-3.85,0-2,.44-4.08,2.79-4.08,2.1,0,2.66,1.28,2.66,3.36v.8Zm2.43-1v-.4c0-1-.31-1.68-1.17-1.68s-1.26.95-1.26,1.93v.15Z"/><path d="M312.6,101.17h1.52v1.17h0a1.87,1.87,0,0,1,1.75-1.37.75.75,0,0,1,.37.06v1.54a2.17,2.17,0,0,0-.63-.09c-.69,0-1.51.31-1.51,1.71v4.51H312.6Z"/><path d="M318.23,105.13v.44c0,1,.13,2.29,1.26,2.29s1.21-1.22,1.21-1.68h1.43a2.48,2.48,0,0,1-2.65,2.72c-1.23,0-2.76-.37-2.76-3.85,0-2,.43-4.08,2.79-4.08,2.1,0,2.66,1.28,2.66,3.36v.8Zm2.43-1v-.4c0-1-.31-1.68-1.17-1.68s-1.26.95-1.26,1.93v.15Z"/><path d="M327.26,107.78h0a1.6,1.6,0,0,1-1.65,1.12c-1.75,0-2.46-1.49-2.46-4.06,0-3.35,1.17-3.87,2.32-3.87a1.74,1.74,0,0,1,1.71,1.08h0V98.7h1.51v10h-1.43Zm-1.37-5.6c-.85,0-1.18.7-1.18,2.73,0,1.71.21,2.78,1.28,2.78s1.27-1,1.27-2.67C327.26,103.21,327.07,102.18,325.89,102.18Z"/></g><g id="large-2" data-name="large"><path d="M94.92,23.41v.44c0,2.13,1,3.21,2.87,3.21a2.51,2.51,0,0,0,2.65-2.55c0-1.83-.93-2.64-2.5-3.11L96,20.74c-2.55-1-3.66-2.3-3.66-4.8,0-3.19,2.19-4.95,5.44-4.95,4.49,0,5,2.79,5,4.6V16H100v-.37c0-1.6-.69-2.53-2.45-2.53a2.23,2.23,0,0,0-2.35,2.53c0,1.49.76,2.25,2.62,3l1.89.69c2.47.88,3.55,2.2,3.55,4.63,0,3.73-2.25,5.27-5.78,5.27-4.34,0-5.32-2.89-5.32-5.34v-.42Z"/><path d="M107.59,22.58v.76c0,1.76.22,4,2.2,4s2.11-2.14,2.11-2.95h2.5c0,3-1.76,4.76-4.63,4.76-2.16,0-4.83-.64-4.83-6.74,0-3.46.76-7.13,4.88-7.13,3.67,0,4.66,2.23,4.66,5.88v1.4Zm4.24-1.82v-.71c0-1.66-.54-2.94-2-2.94-1.66,0-2.2,1.67-2.2,3.38v.27Z"/><path d="M125.55,24c-.2,3.16-1.23,5.15-4.51,5.15-3.82,0-4.9-2.82-4.9-6.94s1.08-6.93,4.9-6.93,4.53,3.11,4.53,4.73h-2.64c0-1.23-.32-2.84-1.89-2.77-1.89,0-2.25,2.06-2.25,5s.36,5,2.25,5c1.47,0,2-1.2,2-3.19Z"/><path d="M127,22.23c0-4.11,1.07-6.93,4.9-6.93s4.92,2.82,4.92,6.93-1.27,6.94-4.92,6.94S127,26.35,127,22.23Zm4.9,5c1.93,0,2.28-1.62,2.28-5,0-2.91-.35-5-2.28-5s-2.26,2.06-2.26,5C129.66,25.59,130,27.21,131.92,27.21Z"/><path d="M138.87,15.64h2.5v1.55h.08a3.77,3.77,0,0,1,3.38-1.89c2,0,3.28.91,3.28,3.58v10h-2.64v-9c0-1.76-.47-2.37-1.84-2.37-1.08,0-2.11.81-2.11,2.57v8.85h-2.65Z"/><path d="M157.4,27.21h-.05a2.82,2.82,0,0,1-2.89,2c-3.07,0-4.32-2.6-4.32-7.11,0-5.85,2.06-6.76,4.07-6.76a3,3,0,0,1,3,1.89h.05V11.33h2.65v17.5h-2.5Zm-2.4-9.8c-1.5,0-2.06,1.22-2.06,4.77,0,3,.36,4.88,2.23,4.88s2.23-1.84,2.23-4.68C157.4,19.22,157.05,17.41,155,17.41Z"/><path d="M168.49,11.33h4.37l3.08,13H176l3-13h4.26v17.5h-2.64V14.27h-.05l-3.53,14.56h-2.35l-3.53-14.56h-.05V28.83h-2.65Z"/><path d="M186.13,11.13h2.65v2.65h-2.65Zm0,4.51h2.65V28.83h-2.65Z"/><path d="M198.19,27.21h-.05a2.82,2.82,0,0,1-2.89,2c-3.07,0-4.32-2.6-4.32-7.11,0-5.85,2.06-6.76,4.07-6.76a3,3,0,0,1,3,1.89h0V11.33h2.65v17.5h-2.5Zm-2.4-9.8c-1.5,0-2.06,1.22-2.06,4.77,0,3,.37,4.88,2.23,4.88s2.23-1.84,2.23-4.68C198.19,19.22,197.85,17.41,195.79,17.41Z"/><path d="M210,27.21h-.05a2.82,2.82,0,0,1-2.89,2c-3.06,0-4.31-2.6-4.31-7.11,0-5.85,2.06-6.76,4.07-6.76a3.05,3.05,0,0,1,3,1.89h.05V11.33h2.64v17.5H210Zm-2.4-9.8c-1.49,0-2.06,1.22-2.06,4.77,0,3,.37,4.88,2.23,4.88S210,25.22,210,22.38C210,19.22,209.63,17.41,207.57,17.41Z"/><path d="M215.14,11.33h2.65v17.5h-2.65Z"/><path d="M222.73,22.58v.76c0,1.76.23,4,2.21,4s2.11-2.14,2.11-2.95h2.5c0,3-1.77,4.76-4.63,4.76-2.16,0-4.83-.64-4.83-6.74,0-3.46.76-7.13,4.87-7.13,3.68,0,4.66,2.23,4.66,5.88v1.4ZM227,20.76v-.71c0-1.66-.54-2.94-2-2.94-1.67,0-2.21,1.67-2.21,3.38v.27Z"/><path d="M237.85,11.33h4.36l3.09,13h0l3-13h4.26v17.5H250V14.27h0l-3.53,14.56h-2.35l-3.53-14.56h-.05V28.83h-2.65Z"/><path d="M255.49,11.13h2.65v2.65h-2.65Zm0,4.51h2.65V28.83h-2.65Z"/><path d="M260.81,15.64h2.5v1.55h.07a3.77,3.77,0,0,1,3.38-1.89c2,0,3.28.91,3.28,3.58v10H267.4v-9c0-1.76-.47-2.37-1.84-2.37-1.08,0-2.11.81-2.11,2.57v8.85h-2.64Z"/><path d="M272.08,22.23c0-4.11,1.07-6.93,4.9-6.93s4.92,2.82,4.92,6.93-1.27,6.94-4.92,6.94S272.08,26.35,272.08,22.23Zm4.9,5c1.93,0,2.28-1.62,2.28-5,0-2.91-.35-5-2.28-5s-2.26,2.06-2.26,5C274.72,25.59,275.09,27.21,277,27.21Z"/><path d="M292.58,26.08c0,.49.3.93.69.93a1,1,0,0,0,.44-.07v1.71a2.71,2.71,0,0,1-1.3.32c-1.17,0-2.15-.46-2.23-1.74h-.05a3.4,3.4,0,0,1-3.28,1.94c-2.13,0-3.43-1.15-3.43-3.7,0-2.94,1.3-3.55,3.06-4.14l2.06-.57c1-.27,1.54-.54,1.54-1.69s-.41-2-1.81-2c-1.76,0-2,1.25-2,2.53h-2.5c0-2.82,1.15-4.34,4.63-4.34,2.33,0,4.19.91,4.19,3.23Zm-2.5-4.21a20,20,0,0,1-2.94,1.22,2.16,2.16,0,0,0-1.07,2.13c0,1.11.53,2,1.64,2,1.59,0,2.37-1.18,2.37-3.14Z"/><path d="M295.28,15.64h2.5v1.55h.07a3.77,3.77,0,0,1,3.38-1.89c2,0,3.29.91,3.29,3.58v10h-2.65v-9c0-1.76-.47-2.37-1.84-2.37-1.08,0-2.11.81-2.11,2.57v8.85h-2.64Z"/><path d="M170.06,38.33h5.54c3.36,0,4.83,2.11,4.83,5.1s-1.86,5.17-5.12,5.17h-2.45v7.23h-2.8Zm2.8,8.16h2c1.5,0,2.79-.78,2.79-3,0-1.88-.76-3-3-3h-1.78Z"/><path d="M184.42,49.58v.76c0,1.76.22,4,2.2,4s2.11-2.14,2.11-3h2.5c0,3-1.76,4.76-4.63,4.76-2.16,0-4.83-.64-4.83-6.74,0-3.46.76-7.13,4.88-7.13,3.68,0,4.66,2.23,4.66,5.88v1.4Zm4.24-1.82v-.71c0-1.66-.54-2.94-2-2.94-1.66,0-2.2,1.67-2.2,3.38v.27Z"/><path d="M193.48,42.64h2.65V44.7h.05a3.26,3.26,0,0,1,3.06-2.4,1.43,1.43,0,0,1,.64.1v2.69a3.91,3.91,0,0,0-1.1-.14c-1.2,0-2.65.53-2.65,3v7.89h-2.65Z"/><path d="M201.32,38.13H204v2.65h-2.65Zm0,4.51H204V55.83h-2.65Z"/><path d="M206.12,49.23c0-4.11,1.08-6.93,4.91-6.93S216,45.12,216,49.23s-1.27,6.94-4.92,6.94S206.12,53.35,206.12,49.23Zm4.91,5c1.93,0,2.28-1.62,2.28-5,0-2.91-.35-5-2.28-5s-2.26,2.06-2.26,5C208.77,52.59,209.14,54.21,211,54.21Z"/><path d="M224.72,54.21h-.05a2.82,2.82,0,0,1-2.89,2c-3.06,0-4.31-2.6-4.31-7.11,0-5.85,2.06-6.76,4.07-6.76a3.05,3.05,0,0,1,3,1.89h0V38.33h2.65v17.5h-2.5Zm-2.4-9.8c-1.49,0-2.06,1.22-2.06,4.77,0,3,.37,4.88,2.23,4.88s2.23-1.84,2.23-4.68C224.72,46.22,224.38,44.41,222.32,44.41Z"/></g></g></g></g></svg>