<svg xmlns="http://www.w3.org/2000/svg" viewBox="0 0 1847.91 112"><title>bc1800text</title><g id="YEARS"><g id="Right"><path d="M1787.21,104V90.59h-3.82V88.67h.29c1.77,0,3.79-.44,4.34-2.76v-.36h2.16V104Z"/><path d="M1795,98.81c0-2.73,1.3-4.21,3.14-4.6v-.06c-1.58-.54-2.54-1.76-2.54-4,0-2.89,1.87-4.63,5-4.63s5,1.74,5,4.63c0,2.21-1,3.43-2.55,4v.06c1.84.39,3.15,1.87,3.15,4.6,0,3.64-1.8,5.51-5.57,5.51S1795,102.45,1795,98.81Zm5.56,3.43c2.08,0,2.6-1.53,2.6-3.48s-.52-3.49-2.6-3.49-2.6,1.54-2.6,3.49S1798.47,102.24,1800.55,102.24Zm0-9c1.85,0,2.32-1.35,2.32-2.81s-.47-2.75-2.32-2.75-2.31,1.3-2.31,2.75S1798.71,93.19,1800.55,93.19Z"/><path d="M1813,85.55c3.54,0,5.51,2.21,5.51,9.38s-2,9.39-5.51,9.39-5.51-2.21-5.51-9.39S1809.49,85.55,1813,85.55Zm0,16.69c2,0,2.55-2,2.55-7.31s-.55-7.3-2.55-7.3-2.55,2-2.55,7.3S1811,102.24,1813,102.24Z"/><path d="M1825.51,85.55c3.54,0,5.51,2.21,5.51,9.38s-2,9.39-5.51,9.39-5.51-2.21-5.51-9.39S1822,85.55,1825.51,85.55Zm0,16.69c2,0,2.55-2,2.55-7.31s-.55-7.3-2.55-7.3-2.55,2-2.55,7.3S1823.51,102.24,1825.51,102.24Z"/></g><g id="left"><path d="M17.46,107.56V94.19H13.64V92.27h.29c1.77,0,3.79-.45,4.34-2.76v-.36h2.16v18.41Z"/><path d="M25.24,102.41c0-2.73,1.3-4.22,3.14-4.61v0c-1.58-.54-2.54-1.76-2.54-4,0-2.89,1.87-4.63,5-4.63s5,1.74,5,4.63c0,2.21-1,3.43-2.55,4v0c1.85.39,3.15,1.88,3.15,4.61,0,3.64-1.8,5.51-5.57,5.51S25.24,106.05,25.24,102.41Zm5.56,3.43c2.08,0,2.6-1.53,2.6-3.48s-.52-3.49-2.6-3.49-2.6,1.53-2.6,3.49S28.72,105.84,30.8,105.84Zm0-9c1.85,0,2.32-1.35,2.32-2.81s-.47-2.75-2.32-2.75-2.31,1.3-2.31,2.75S29,96.79,30.8,96.79Z"/><path d="M43.28,89.15c3.54,0,5.51,2.21,5.51,9.38s-2,9.39-5.51,9.39-5.51-2.21-5.51-9.39S39.75,89.15,43.28,89.15Zm0,16.69c2,0,2.55-2,2.55-7.31s-.55-7.3-2.55-7.3-2.55,2-2.55,7.3S41.28,105.84,43.28,105.84Z"/><path d="M55.76,89.15c3.54,0,5.51,2.21,5.51,9.38s-2,9.39-5.51,9.39-5.51-2.21-5.51-9.39S52.22,89.15,55.76,89.15Zm0,16.69c2,0,2.55-2,2.55-7.31s-.55-7.3-2.55-7.3-2.55,2-2.55,7.3S53.76,105.84,55.76,105.84Z"/></g></g><g id="Text"><g id="Iranians"><path d="M1291,23.56h5.66c2.63,0,4.71,1.17,4.71,4.24,0,2.1-.86,3.43-2.57,4v.05c1.91.34,3.13,1.49,3.13,4.46s-2.1,4.77-5.39,4.77H1291Zm5,7.37a2.46,2.46,0,0,0,2.58-2.77c0-2.08-1.25-2.5-2.82-2.5h-2v5.27Zm.57,8c1.66,0,2.57-1.06,2.57-3.09a2.65,2.65,0,0,0-2.75-3h-2.59V39Z" fill="#3b4351"/><path d="M1312.65,38.31c0,.49.29.93.69.93a1,1,0,0,0,.44-.07v1.71a2.86,2.86,0,0,1-1.3.32c-1.18,0-2.16-.46-2.23-1.74h0a3.41,3.41,0,0,1-3.29,1.94c-2.13,0-3.43-1.16-3.43-3.7,0-2.94,1.3-3.56,3.07-4.15l2.06-.56c1-.27,1.54-.54,1.54-1.69s-.42-2-1.81-2c-1.77,0-2,1.25-2,2.52h-2.5c0-2.81,1.15-4.33,4.63-4.33,2.33,0,4.19.9,4.19,3.23Zm-2.5-4.22a20.5,20.5,0,0,1-2.94,1.23,2.17,2.17,0,0,0-1.08,2.13c0,1.1.54,2,1.64,2,1.6,0,2.38-1.18,2.38-3.14Z" fill="#3b4351"/><path d="M1315.34,23.56H1318v5.85h0a3,3,0,0,1,3-1.88c2,0,4.07.9,4.07,6.76,0,4.53-1.25,7.11-4.32,7.11a2.83,2.83,0,0,1-2.89-2h-.05v1.61h-2.5Zm4.73,15.73c1.86,0,2.23-1.89,2.23-4.88,0-3.55-.56-4.78-2.06-4.78-2.06,0-2.4,1.82-2.4,5C1317.84,37.45,1318.26,39.29,1320.07,39.29Z" fill="#3b4351"/><path d="M1328.6,27.87l2.28,9.9h0l2.11-9.9h2.77l-3.63,13.67c-1.05,3.61-1.86,4.1-4.6,4a4.76,4.76,0,0,1-1.06-.1v-2.1a3.67,3.67,0,0,0,.86.1c.91,0,1.5-.18,1.79-1l.34-1.08-3.75-13.48Z" fill="#3b4351"/><path d="M1337.39,23.56H1340V41.05h-2.65Z" fill="#3b4351"/><path d="M1342.19,34.46c0-4.12,1.08-6.93,4.9-6.93s4.93,2.81,4.93,6.93-1.27,6.94-4.93,6.94S1342.19,38.58,1342.19,34.46Zm4.9,5c1.94,0,2.28-1.62,2.28-5,0-2.91-.34-5-2.28-5s-2.25,2.06-2.25,5C1344.84,37.82,1345.21,39.44,1347.09,39.44Z" fill="#3b4351"/><path d="M1354.05,27.87h2.5v1.54h.07a3.81,3.81,0,0,1,3.39-1.88c2,0,3.28.9,3.28,3.57v9.95h-2.65V32c0-1.76-.46-2.38-1.83-2.38-1.08,0-2.11.81-2.11,2.58v8.84h-2.65Z" fill="#3b4351"/><path d="M1366,23.36h2.64V26H1366Zm0,4.51h2.64V41.05H1366Z" fill="#3b4351"/><path d="M1379.92,38.31c0,.49.3.93.69.93a1,1,0,0,0,.44-.07v1.71a2.83,2.83,0,0,1-1.3.32c-1.17,0-2.15-.46-2.23-1.74h0a3.4,3.4,0,0,1-3.28,1.94c-2.13,0-3.43-1.16-3.43-3.7,0-2.94,1.3-3.56,3.06-4.15l2.06-.56c1-.27,1.54-.54,1.54-1.69s-.41-2-1.81-2c-1.76,0-2,1.25-2,2.52h-2.5c0-2.81,1.15-4.33,4.63-4.33,2.33,0,4.19.9,4.19,3.23Zm-2.5-4.22a20,20,0,0,1-2.94,1.23,2.16,2.16,0,0,0-1.07,2.13c0,1.1.53,2,1.64,2,1.59,0,2.37-1.18,2.37-3.14Z" fill="#3b4351"/><path d="M1382.62,27.87h2.5v1.54h.07a3.78,3.78,0,0,1,3.38-1.88c2,0,3.29.9,3.29,3.57v9.95h-2.65V32c0-1.76-.47-2.38-1.84-2.38-1.08,0-2.11.81-2.11,2.58v8.84h-2.64Z" fill="#3b4351"/><path d="M1400.09,31.72v-.35c0-1.05-.37-2-1.74-2-1.06,0-1.89.47-1.89,1.72,0,1.05.47,1.44,1.86,1.93l1.69.59c2,.66,2.87,1.71,2.87,3.8,0,2.82-2.08,4-4.73,4-3.33,0-4.34-1.55-4.34-4.1v-.49h2.36v.42c0,1.54.51,2.35,2,2.35s2.16-.73,2.16-1.93a1.91,1.91,0,0,0-1.45-1.94l-2.15-.76c-2-.66-2.82-1.69-2.82-3.8,0-2.47,1.77-3.62,4.51-3.62,3.36,0,4.12,2,4.12,3.6v.59Z" fill="#3b4351"/></g><g id="Huns"><path d="M1576,47.56h4.37l3.08,13h0l3-13h4.26V65.05h-2.64V50.5h0l-3.53,14.55h-2.35l-3.53-14.55h0V65.05H1576Z" fill="#3b4351"/><path d="M1593.3,56.3c0-6.24,1.76-9.09,5.78-9.09s5.78,2.85,5.78,9.09-1.76,9.1-5.78,9.1S1593.3,62.55,1593.3,56.3Zm8.77-.07c0-5.88-1.33-6.91-3-6.91s-3,1-3,6.91,1.32,7.06,3,7.06S1602.07,62.24,1602.07,56.23Z" fill="#3b4351"/><path d="M1607.33,47.56h3.41l5.07,13h0v-13h2.65V65.05h-3.41L1610,51.67h0V65.05h-2.65Z" fill="#3b4351"/><path d="M1630.05,63h0a3.64,3.64,0,0,1-3.82,2.38c-3.83,0-5.2-2.85-5.2-9.1s1.76-9.09,5.81-9.09a4.77,4.77,0,0,1,5.12,5v.32h-2.65v-.42c0-1.3-.54-2.84-2.45-2.84s-3,1.32-3,6.91.93,7.06,2.82,7.06c2.13,0,2.92-1.52,2.92-5.34h-2.94V55.84h5.58v9.21h-2.1Z" fill="#3b4351"/><path d="M1634.14,56.3c0-6.24,1.76-9.09,5.78-9.09s5.78,2.85,5.78,9.09-1.76,9.1-5.78,9.1S1634.14,62.55,1634.14,56.3Zm8.77-.07c0-5.88-1.32-6.91-3-6.91s-3,1-3,6.91,1.32,7.06,3,7.06S1642.91,62.24,1642.91,56.23Z" fill="#3b4351"/><path d="M1647.86,47.56h2.79V62.7h6.76v2.35h-9.55Z" fill="#3b4351"/><path d="M1658.93,47.56h2.79V65.05h-2.79Z" fill="#3b4351"/><path d="M1667.8,47.56h3.58l4.6,17.49h-2.91L1672,60.76h-5.12l-1.13,4.29h-2.92Zm3.72,11-2-8.62h0l-2.09,8.62Z" fill="#3b4351"/><path d="M1677.21,47.56h3.4l5.07,13h0v-13h2.65V65.05H1685l-5.07-13.38h-.05V65.05h-2.64Z" fill="#3b4351"/><path d="M1693.43,59.64v.44c0,2.13,1,3.21,2.86,3.21a2.51,2.51,0,0,0,2.65-2.55c0-1.84-.93-2.65-2.5-3.11l-1.91-.66c-2.55-1-3.65-2.31-3.65-4.81,0-3.18,2.18-4.95,5.44-4.95,4.48,0,5,2.8,5,4.61v.39h-2.8v-.37c0-1.59-.68-2.52-2.45-2.52a2.23,2.23,0,0,0-2.35,2.52c0,1.5.76,2.26,2.62,3l1.89.69c2.47.88,3.55,2.2,3.55,4.63,0,3.72-2.25,5.27-5.78,5.27-4.34,0-5.32-2.89-5.32-5.35v-.41Z" fill="#3b4351"/></g><g id="Egytians"><g id="small"><path d="M480.69,16.61h1.61l1.32,7.77h0L485,16.61h1.68L488,24.42h0l1.3-7.81h1.58l-2,10h-1.85l-1.29-7.54h0l-1.28,7.54h-1.85Z" fill="#3b4351"/><path d="M491.16,22.84c0-2.35.62-4,2.8-4s2.82,1.61,2.82,4-.73,4-2.82,4S491.16,25.2,491.16,22.84Zm2.8,2.85c1.11,0,1.31-.93,1.31-2.85,0-1.66-.2-2.84-1.31-2.84s-1.29,1.18-1.29,2.84C492.67,24.76,492.88,25.69,494,25.69Z" fill="#3b4351"/><path d="M497.94,19.07h1.51v1.18h0a1.87,1.87,0,0,1,1.75-1.37.89.89,0,0,1,.36.05v1.54a2.18,2.18,0,0,0-.63-.08c-.68,0-1.51.31-1.51,1.71v4.51h-1.51Z" fill="#3b4351"/><path d="M505.6,21.27v-.19c0-.61-.21-1.17-1-1.17-.6,0-1.07.27-1.07,1s.26.82,1.06,1.1l1,.34a2,2,0,0,1,1.64,2.17c0,1.61-1.2,2.3-2.71,2.3-1.9,0-2.48-.89-2.48-2.34v-.28h1.35v.23c0,.89.29,1.35,1.17,1.35s1.24-.42,1.24-1.11a1.09,1.09,0,0,0-.83-1.1l-1.23-.44A2,2,0,0,1,502.1,21c0-1.41,1-2.07,2.57-2.07,1.92,0,2.36,1.12,2.36,2.06v.33Z" fill="#3b4351"/><path d="M508.31,16.61h1.52v3.28l0,0a2.15,2.15,0,0,1,1.85-1c1.15,0,1.87.52,1.87,2v5.69h-1.51V21.44c0-1-.28-1.36-1.05-1.36-.62,0-1.2.48-1.2,1.47v5.06h-1.52Z" fill="#3b4351"/><path d="M515.12,16.5h1.51V18h-1.51Zm0,2.57h1.51v7.54h-1.51Z" fill="#3b4351"/><path d="M521.4,26.81a1.74,1.74,0,0,1-1.71-1.08h0v3.35h-1.52v-10h1.43V20h0a1.78,1.78,0,0,1,1.69-1.12c1.73,0,2.43,1.47,2.43,4.06C523.73,26.11,522.45,26.81,521.4,26.81Zm-.54-6.73c-1,0-1.28,1.05-1.28,2.68,0,1.81.23,2.84,1.29,2.84.86,0,1.26-.64,1.26-2.73C522.13,21.16,521.92,20.08,520.86,20.08Z" fill="#3b4351"/><path d="M528,22.84c0-2.35.62-4,2.8-4s2.82,1.61,2.82,4-.73,4-2.82,4S528,25.2,528,22.84Zm2.8,2.85c1.11,0,1.31-.93,1.31-2.85,0-1.66-.2-2.84-1.31-2.84s-1.29,1.18-1.29,2.84C529.46,24.76,529.67,25.69,530.75,25.69Z" fill="#3b4351"/><path d="M535.19,20.19h-1.05V19.07h1.05v-.7c0-1.41.69-1.87,1.92-1.87a6.67,6.67,0,0,1,.83,0V17.7h-.42c-.56,0-.82.21-.82.72v.65h1.24v1.12H536.7v6.42h-1.51Z" fill="#3b4351"/><path d="M545.23,21.27v-.19c0-.61-.21-1.17-1-1.17-.61,0-1.08.27-1.08,1s.26.82,1.06,1.1l1,.34a2,2,0,0,1,1.64,2.17c0,1.61-1.19,2.3-2.71,2.3-1.9,0-2.48-.89-2.48-2.34v-.28H543v.23c0,.89.29,1.35,1.18,1.35s1.23-.42,1.23-1.11a1.09,1.09,0,0,0-.83-1.1l-1.23-.44A2,2,0,0,1,541.73,21c0-1.41,1-2.07,2.58-2.07,1.91,0,2.35,1.12,2.35,2.06v.33Z" fill="#3b4351"/><path d="M551.8,25.73h0a2.15,2.15,0,0,1-1.93,1.08c-1.12,0-1.88-.52-1.88-2.47V19.07h1.52v5.41c0,.84.36,1.12,1,1.12a1.17,1.17,0,0,0,1.23-1.26V19.07h1.51v7.54H551.8Z" fill="#3b4351"/><path d="M554.68,19.07h1.43V20h0a2.15,2.15,0,0,1,1.93-1.08c1.15,0,1.88.52,1.88,2v5.69h-1.51V21.44c0-1-.27-1.36-1.05-1.36-.62,0-1.21.47-1.21,1.47v5.06h-1.51Z" fill="#3b4351"/><path d="M561.31,21.85H565v1.43h-3.67Z" fill="#3b4351"/><path d="M567.85,27.25a1,1,0,0,0,1.09.9,1.25,1.25,0,0,0,1.28-1.41V25.52h0a1.81,1.81,0,0,1-1.71,1c-1.75,0-2.25-1.72-2.25-3.79,0-1.65.25-3.88,2.39-3.88A1.65,1.65,0,0,1,570.27,20h0v-.93h1.43v7.18c0,1.83-.78,2.94-2.81,2.94-2.25,0-2.5-1.32-2.5-1.94Zm1.07-1.9c1.17,0,1.3-1.49,1.3-2.68s-.16-2.59-1.21-2.59-1.27,1.12-1.27,2.52S567.8,25.35,568.92,25.35Z" fill="#3b4351"/><path d="M572.78,22.84c0-2.35.61-4,2.8-4s2.81,1.61,2.81,4-.72,4-2.81,4S572.78,25.2,572.78,22.84Zm2.8,2.85c1.11,0,1.3-.93,1.3-2.85,0-1.66-.19-2.84-1.3-2.84s-1.29,1.18-1.29,2.84C574.29,24.76,574.5,25.69,575.58,25.69Z" fill="#3b4351"/><path d="M583.41,25.69h0a1.61,1.61,0,0,1-1.65,1.12c-1.76,0-2.47-1.49-2.47-4.07,0-3.34,1.18-3.86,2.33-3.86a1.73,1.73,0,0,1,1.7,1.08h0V16.61h1.51v10h-1.42ZM582,20.08c-.85,0-1.17.7-1.17,2.73,0,1.71.21,2.79,1.27,2.79s1.28-1.05,1.28-2.67C583.41,21.12,583.21,20.08,582,20.08Z" fill="#3b4351"/><path d="M589.55,21.85h3.67v1.43h-3.67Z" fill="#3b4351"/><path d="M598,16.61h3.53a2.32,2.32,0,0,1,2.54,2.58c0,1.28-.56,2.28-1.67,2.45v0c1,.09,1.51.64,1.57,2,0,.66,0,1.43.06,2a1.08,1.08,0,0,0,.47.87h-1.8a1.61,1.61,0,0,1-.27-.88c0-.3,0-.6,0-.9s0-.63,0-1c0-1.1-.38-1.57-1.46-1.57h-1.3v4.34H598Zm2.88,4.45a1.47,1.47,0,0,0,1.59-1.62c0-1.07-.45-1.63-1.51-1.63h-1.36v3.25Z" fill="#3b4351"/><path d="M610.4,25c0,.28.17.53.39.53a.54.54,0,0,0,.25,0v1a1.58,1.58,0,0,1-.74.18c-.67,0-1.23-.26-1.27-1h0a2,2,0,0,1-1.88,1.11c-1.22,0-2-.66-2-2.12a2.08,2.08,0,0,1,1.75-2.37l1.18-.32c.54-.15.88-.31.88-1s-.24-1.13-1-1.13c-1,0-1.15.72-1.15,1.45h-1.43c0-1.61.66-2.48,2.65-2.48,1.33,0,2.4.52,2.4,1.85ZM609,22.63a11.23,11.23,0,0,1-1.68.7,1.23,1.23,0,0,0-.62,1.22c0,.63.31,1.14.94,1.14.91,0,1.36-.68,1.36-1.8Z" fill="#3b4351"/><path d="M612.09,24.76h1.6v1.85h-1.6Z" fill="#3b4351"/><path d="M618.75,16.61h3.17c1.92,0,2.76,1.2,2.76,2.91a2.72,2.72,0,0,1-2.93,3h-1.4v4.13h-1.6Zm1.6,4.66h1.13a1.5,1.5,0,0,0,1.6-1.72c0-1.08-.43-1.74-1.71-1.74h-1Z" fill="#3b4351"/><path d="M625.65,19.07h1.52v1.18h0A1.85,1.85,0,0,1,629,18.88a.89.89,0,0,1,.36.05v1.54a2.18,2.18,0,0,0-.63-.08c-.69,0-1.51.31-1.51,1.71v4.51h-1.52Z" fill="#3b4351"/><path d="M629.77,22.84c0-2.35.62-4,2.8-4s2.82,1.61,2.82,4-.73,4-2.82,4S629.77,25.2,629.77,22.84Zm2.8,2.85c1.11,0,1.3-.93,1.3-2.85,0-1.66-.19-2.84-1.3-2.84s-1.29,1.18-1.29,2.84C631.28,24.76,631.49,25.69,632.57,25.69Z" fill="#3b4351"/><path d="M639.8,21.27v-.19c0-.61-.21-1.17-1-1.17-.6,0-1.08.27-1.08,1s.27.82,1.07,1.1l1,.34a2,2,0,0,1,1.64,2.17c0,1.61-1.19,2.3-2.7,2.3-1.9,0-2.48-.89-2.48-2.34v-.28h1.35v.23c0,.89.29,1.35,1.17,1.35s1.23-.42,1.23-1.11a1.09,1.09,0,0,0-.82-1.1l-1.23-.44A2,2,0,0,1,636.29,21c0-1.41,1-2.07,2.58-2.07,1.92,0,2.36,1.12,2.36,2.06v.33Z" fill="#3b4351"/><path d="M645.76,26.81a1.74,1.74,0,0,1-1.71-1.08h0v3.35h-1.51v-10h1.43V20h0a1.78,1.78,0,0,1,1.69-1.12c1.72,0,2.43,1.47,2.43,4.06C648.09,26.11,646.81,26.81,645.76,26.81Zm-.55-6.73c-1,0-1.27,1.05-1.27,2.68,0,1.81.22,2.84,1.29,2.84.85,0,1.26-.64,1.26-2.73C646.49,21.16,646.28,20.08,645.21,20.08Z" fill="#3b4351"/><path d="M650.55,23v.43c0,1,.12,2.3,1.26,2.3s1.2-1.22,1.2-1.68h1.43a2.48,2.48,0,0,1-2.65,2.72c-1.23,0-2.76-.37-2.76-3.86,0-2,.44-4.07,2.79-4.07,2.1,0,2.66,1.27,2.66,3.36V23ZM653,22v-.4c0-1-.31-1.69-1.16-1.69s-1.26,1-1.26,1.94V22Z" fill="#3b4351"/><path d="M655.73,19.07h1.51v1.18h0A1.85,1.85,0,0,1,659,18.88a.89.89,0,0,1,.36.05v1.54a2.18,2.18,0,0,0-.63-.08c-.68,0-1.51.31-1.51,1.71v4.51h-1.51Z" fill="#3b4351"/><path d="M660.21,16.5h1.51V18h-1.51Zm0,2.57h1.51v7.54h-1.51Z" fill="#3b4351"/><path d="M662.57,19.07h1V16.93h1.51v2.14h1.23v1.12h-1.23v4.5c0,.6.17.8.69.8a2.7,2.7,0,0,0,.54,0v1.12a5.17,5.17,0,0,1-1.22.12c-1,0-1.52-.29-1.52-1.82V20.19h-1Z" fill="#3b4351"/><path d="M668.14,19.07l1.31,5.66h0l1.21-5.66h1.58l-2.07,7.82c-.6,2.06-1.07,2.34-2.63,2.3a3.15,3.15,0,0,1-.61-.06v-1.2a2.09,2.09,0,0,0,.49.05c.52,0,.86-.1,1-.59l.19-.61-2.14-7.71Z" fill="#3b4351"/><path d="M680.31,25.73h0a2.17,2.17,0,0,1-1.93,1.08c-1.13,0-1.88-.52-1.88-2.47V19.07H678v5.41c0,.84.37,1.12,1,1.12a1.18,1.18,0,0,0,1.24-1.26V19.07h1.51v7.54h-1.43Z" fill="#3b4351"/><path d="M683.19,19.07h1.43V20h0a2.16,2.16,0,0,1,1.94-1.08c1.15,0,1.87.52,1.87,2v5.69H687V21.44c0-1-.27-1.36-1.05-1.36-.62,0-1.21.47-1.21,1.47v5.06h-1.51Z" fill="#3b4351"/><path d="M693.78,25.69h0a1.61,1.61,0,0,1-1.65,1.12c-1.75,0-2.47-1.49-2.47-4.07,0-3.34,1.18-3.86,2.33-3.86A1.74,1.74,0,0,1,693.67,20h0V16.61h1.52v10h-1.43Zm-1.37-5.61c-.86,0-1.18.7-1.18,2.73,0,1.71.21,2.79,1.27,2.79s1.28-1.05,1.28-2.67C693.78,21.12,693.58,20.08,692.41,20.08Z" fill="#3b4351"/><path d="M698,23v.43c0,1,.13,2.3,1.26,2.3s1.21-1.22,1.21-1.68h1.43a2.48,2.48,0,0,1-2.65,2.72c-1.23,0-2.76-.37-2.76-3.86,0-2,.43-4.07,2.79-4.07,2.1,0,2.66,1.27,2.66,3.36V23Zm2.42-1v-.4c0-1-.3-1.69-1.16-1.69s-1.26,1-1.26,1.94V22Z" fill="#3b4351"/><path d="M703.14,19.07h1.51v1.18h0a1.87,1.87,0,0,1,1.75-1.37.94.94,0,0,1,.37.05v1.54a2.24,2.24,0,0,0-.63-.08c-.69,0-1.52.31-1.52,1.71v4.51h-1.51Z" fill="#3b4351"/><path d="M712.38,16.61h2l2.63,10H715.4l-.62-2.45h-2.93l-.64,2.45h-1.67Zm2.13,6.27L713.36,18h0l-1.19,4.93Z" fill="#3b4351"/><path d="M717.73,19.07h1.43V20h0A2.09,2.09,0,0,1,721,18.88,1.63,1.63,0,0,1,722.76,20a2,2,0,0,1,1.9-1.15c1.07,0,1.84.54,1.84,2v5.73H725V21.44c0-1-.3-1.36-.91-1.36s-1.21.48-1.21,1.47v5.06h-1.51V21.44c0-1-.3-1.36-.93-1.36s-1.19.49-1.19,1.47v5.06h-1.51Z" fill="#3b4351"/><path d="M729.32,23v.43c0,1,.13,2.3,1.26,2.3s1.21-1.22,1.21-1.68h1.43a2.48,2.48,0,0,1-2.65,2.72c-1.23,0-2.76-.37-2.76-3.86,0-2,.43-4.07,2.79-4.07,2.1,0,2.66,1.27,2.66,3.36V23Zm2.43-1v-.4c0-1-.31-1.69-1.17-1.69s-1.26,1-1.26,1.94V22Z" fill="#3b4351"/><path d="M734.5,19.07h1.43V20h0a2.16,2.16,0,0,1,1.94-1.08c1.14,0,1.87.52,1.87,2v5.69h-1.51V21.44c0-1-.27-1.36-1-1.36-.62,0-1.21.47-1.21,1.47v5.06H734.5Z" fill="#3b4351"/><path d="M742.54,23v.43c0,1,.12,2.3,1.26,2.3s1.2-1.22,1.2-1.68h1.43a2.48,2.48,0,0,1-2.65,2.72c-1.23,0-2.75-.37-2.75-3.86,0-2,.43-4.07,2.78-4.07,2.1,0,2.66,1.27,2.66,3.36V23ZM745,22v-.4c0-1-.31-1.69-1.16-1.69s-1.26,1-1.26,1.94V22Z" fill="#3b4351"/><path d="M747.79,19.07h1.43V20h0a2.09,2.09,0,0,1,1.81-1.08A1.65,1.65,0,0,1,752.82,20a2,2,0,0,1,1.9-1.15c1.07,0,1.84.54,1.84,2v5.73H755V21.44c0-1-.29-1.36-.91-1.36s-1.2.48-1.2,1.47v5.06h-1.51V21.44c0-1-.3-1.36-.93-1.36s-1.19.49-1.19,1.47v5.06h-1.51Z" fill="#3b4351"/><path d="M758.08,16.61h1.51v3.28l0,0a2.18,2.18,0,0,1,1.85-1c1.15,0,1.88.52,1.88,2v5.69h-1.51V21.44c0-1-.28-1.36-1.05-1.36-.62,0-1.21.48-1.21,1.47v5.06h-1.51Z" fill="#3b4351"/><path d="M766.11,23v.43c0,1,.13,2.3,1.26,2.3s1.21-1.22,1.21-1.68H770a2.48,2.48,0,0,1-2.65,2.72c-1.23,0-2.76-.37-2.76-3.86,0-2,.44-4.07,2.79-4.07,2.1,0,2.66,1.27,2.66,3.36V23Zm2.43-1v-.4c0-1-.31-1.69-1.17-1.69s-1.26,1-1.26,1.94V22Z" fill="#3b4351"/><path d="M770.62,19.07h1V16.93h1.51v2.14h1.23v1.12h-1.23v4.5c0,.6.17.8.69.8a2.7,2.7,0,0,0,.54,0v1.12a5.17,5.17,0,0,1-1.22.12c-1,0-1.52-.29-1.52-1.82V20.19h-1Z" fill="#3b4351"/><path d="M778.57,16.61h1.6v10h-1.6Z" fill="#3b4351"/><path d="M781.68,16.61h1.6v10h-1.6Z" fill="#3b4351"/><path d="M784.79,16.61h1.59v10h-1.59Z" fill="#3b4351"/><path d="M788,24.76h1.6v1.85H788Z" fill="#3b4351"/><path d="M498.42,57.22H502a2.32,2.32,0,0,1,2.54,2.58c0,1.29-.56,2.28-1.67,2.45v0c1,.1,1.52.64,1.57,2,0,.66,0,1.43.06,2a1.06,1.06,0,0,0,.47.86h-1.8a1.61,1.61,0,0,1-.27-.88,8.83,8.83,0,0,1,0-.89c0-.3,0-.63,0-1,0-1.09-.38-1.57-1.46-1.57H500v4.34h-1.6Zm2.88,4.46a1.47,1.47,0,0,0,1.59-1.63c0-1.06-.45-1.62-1.51-1.62H500v3.25Z" fill="#3b4351"/><path d="M507.15,63.65v.44c0,1,.12,2.29,1.26,2.29s1.2-1.21,1.2-1.68H511a2.48,2.48,0,0,1-2.65,2.72c-1.23,0-2.76-.36-2.76-3.85,0-2,.44-4.08,2.79-4.08,2.1,0,2.66,1.28,2.66,3.36v.8Zm2.42-1v-.41c0-1-.31-1.68-1.16-1.68s-1.26.95-1.26,1.93v.16Z" fill="#3b4351"/><path d="M515.58,61.89v-.2c0-.6-.21-1.16-1-1.16-.6,0-1.08.27-1.08,1s.27.83,1.07,1.11l1,.33a2,2,0,0,1,1.64,2.17c0,1.61-1.19,2.3-2.7,2.3-1.91,0-2.48-.88-2.48-2.34V64.8h1.35V65c0,.88.29,1.34,1.17,1.34s1.23-.42,1.23-1.1a1.09,1.09,0,0,0-.82-1.11l-1.24-.43a2,2,0,0,1-1.61-2.17c0-1.42,1-2.08,2.58-2.08,1.92,0,2.36,1.12,2.36,2.06v.34Z" fill="#3b4351"/><path d="M519.59,63.65v.44c0,1,.13,2.29,1.26,2.29s1.21-1.21,1.21-1.68h1.43a2.48,2.48,0,0,1-2.65,2.72c-1.23,0-2.76-.36-2.76-3.85,0-2,.43-4.08,2.79-4.08,2.1,0,2.66,1.28,2.66,3.36v.8Zm2.43-1v-.41c0-1-.31-1.68-1.17-1.68s-1.26.95-1.26,1.93v.16Z" fill="#3b4351"/><path d="M524.77,59.69h1.52v1.18h0a1.87,1.87,0,0,1,1.75-1.38.89.89,0,0,1,.37.06v1.54a2.24,2.24,0,0,0-.63-.08c-.69,0-1.51.3-1.51,1.7v4.51h-1.52Z" fill="#3b4351"/><path d="M528.8,59.69h1.63l1.32,5.94h0l1.2-5.94h1.61l-2,7.53h-1.77Z" fill="#3b4351"/><path d="M535.1,63.46c0-2.36.62-4,2.81-4s2.81,1.61,2.81,4-.73,4-2.81,4S535.1,65.81,535.1,63.46Zm2.81,2.84c1.1,0,1.3-.92,1.3-2.84,0-1.67-.2-2.85-1.3-2.85s-1.29,1.18-1.29,2.85C536.62,65.38,536.83,66.3,537.91,66.3Z" fill="#3b4351"/><path d="M542,57.11h1.51v1.51H542Zm0,2.58h1.51v7.53H542Z" fill="#3b4351"/><path d="M545,59.69h1.51v1.18h0a1.87,1.87,0,0,1,1.75-1.38.87.87,0,0,1,.36.06v1.54A2.18,2.18,0,0,0,548,61c-.68,0-1.51.3-1.51,1.7v4.51H545Z" fill="#3b4351"/><path d="M552.46,63.46c0-2.36.62-4,2.81-4s2.81,1.61,2.81,4-.73,4-2.81,4S552.46,65.81,552.46,63.46Zm2.81,2.84c1.1,0,1.3-.92,1.3-2.84,0-1.67-.2-2.85-1.3-2.85S554,61.79,554,63.46C554,65.38,554.19,66.3,555.27,66.3Z" fill="#3b4351"/><path d="M559.7,60.81h-1.05V59.69h1.05V59c0-1.42.69-1.88,1.92-1.88.32,0,.6,0,.83,0v1.17H562c-.56,0-.81.21-.81.71v.66h1.23v1.12h-1.23v6.41H559.7Z" fill="#3b4351"/><path d="M566.41,57.22H568v8.66h3.86v1.34h-5.46Z" fill="#3b4351"/><path d="M577.65,65.66c0,.28.17.53.4.53a.76.76,0,0,0,.25,0v1a1.71,1.71,0,0,1-.74.18c-.68,0-1.24-.27-1.28-1h0a1.93,1.93,0,0,1-1.87,1.11c-1.22,0-2-.66-2-2.11a2.08,2.08,0,0,1,1.76-2.37l1.17-.32c.55-.16.88-.31.88-1s-.23-1.12-1-1.12c-1,0-1.15.71-1.15,1.44h-1.43c0-1.61.66-2.48,2.65-2.48,1.33,0,2.39.52,2.39,1.85Zm-1.43-2.41a13.18,13.18,0,0,1-1.68.7,1.24,1.24,0,0,0-.61,1.22c0,.63.3,1.13.94,1.13.91,0,1.35-.67,1.35-1.79Z" fill="#3b4351"/><path d="M579.19,57.22h1.51v5.62h0L583,59.69l1.75,0-2.27,2.92,2.56,4.63h-1.65l-1.85-3.43-.86,1v2.39h-1.51Z" fill="#3b4351"/><path d="M586.89,63.65v.44c0,1,.13,2.29,1.26,2.29s1.21-1.21,1.21-1.68h1.43a2.48,2.48,0,0,1-2.65,2.72c-1.23,0-2.76-.36-2.76-3.85,0-2,.43-4.08,2.79-4.08,2.1,0,2.66,1.28,2.66,3.36v.8Zm2.42-1v-.41c0-1-.3-1.68-1.16-1.68s-1.26.95-1.26,1.93v.16Z" fill="#3b4351"/><path d="M595.53,57.22H598l1.77,7.41h0l1.73-7.41H604v10h-1.51V58.9h0l-2,8.32h-1.34l-2-8.32h0v8.32h-1.51Z" fill="#3b4351"/><path d="M605.25,63.46c0-2.36.61-4,2.8-4s2.81,1.61,2.81,4-.73,4-2.81,4S605.25,65.81,605.25,63.46Zm2.8,2.84c1.1,0,1.3-.92,1.3-2.84,0-1.67-.2-2.85-1.3-2.85s-1.29,1.18-1.29,2.85C606.76,65.38,607,66.3,608.05,66.3Z" fill="#3b4351"/><path d="M613.32,63.65v.44c0,1,.13,2.29,1.27,2.29s1.2-1.21,1.2-1.68h1.43a2.48,2.48,0,0,1-2.65,2.72c-1.23,0-2.76-.36-2.76-3.85,0-2,.44-4.08,2.79-4.08,2.1,0,2.66,1.28,2.66,3.36v.8Zm2.43-1v-.41c0-1-.31-1.68-1.16-1.68s-1.27.95-1.27,1.93v.16Z" fill="#3b4351"/><path d="M618.5,59.69H620v1.18h0a1.85,1.85,0,0,1,1.75-1.38.87.87,0,0,1,.36.06v1.54a2.18,2.18,0,0,0-.63-.08c-.69,0-1.51.3-1.51,1.7v4.51H618.5Z" fill="#3b4351"/><path d="M623,57.11h1.52v1.51H623Zm0,2.58h1.52v7.53H623Z" fill="#3b4351"/><path d="M629.27,61.89v-.2c0-.6-.21-1.16-1-1.16-.61,0-1.08.27-1.08,1s.26.83,1.06,1.11l1,.33a2,2,0,0,1,1.64,2.17c0,1.61-1.19,2.3-2.71,2.3-1.9,0-2.47-.88-2.47-2.34V64.8H627V65c0,.88.29,1.34,1.18,1.34s1.23-.42,1.23-1.1a1.09,1.09,0,0,0-.83-1.11l-1.23-.43a2,2,0,0,1-1.61-2.17c0-1.42,1-2.08,2.58-2.08,1.92,0,2.35,1.12,2.35,2.06v.34Z" fill="#3b4351"/><path d="M640.43,64.48c-.11,1.81-.7,2.94-2.58,2.94-2.18,0-2.8-1.61-2.8-4s.62-4,2.8-4a2.44,2.44,0,0,1,2.59,2.71h-1.51c0-.7-.18-1.63-1.08-1.59-1.08,0-1.29,1.18-1.29,2.85s.21,2.84,1.29,2.84c.84,0,1.15-.69,1.15-1.82Z" fill="#3b4351"/><path d="M641.27,63.46c0-2.36.61-4,2.8-4s2.82,1.61,2.82,4-.73,4-2.82,4S641.27,65.81,641.27,63.46Zm2.8,2.84c1.11,0,1.3-.92,1.3-2.84,0-1.67-.19-2.85-1.3-2.85s-1.29,1.18-1.29,2.85C642.78,65.38,643,66.3,644.07,66.3Z" fill="#3b4351"/><path d="M648,59.69h1.43v.88h0a2.15,2.15,0,0,1,1.93-1.08c1.15,0,1.87.52,1.87,2v5.68h-1.51V62.06c0-1-.26-1.36-1-1.36-.62,0-1.2.46-1.2,1.47v5H648Z" fill="#3b4351"/><path d="M658,61.89v-.2c0-.6-.21-1.16-1-1.16-.6,0-1.08.27-1.08,1s.27.83,1.07,1.11l1,.33a2,2,0,0,1,1.63,2.17c0,1.61-1.19,2.3-2.7,2.3-1.9,0-2.48-.88-2.48-2.34V64.8h1.35V65c0,.88.29,1.34,1.17,1.34s1.24-.42,1.24-1.1a1.09,1.09,0,0,0-.83-1.11l-1.23-.43a2,2,0,0,1-1.61-2.17c0-1.42,1-2.08,2.57-2.08,1.92,0,2.36,1.12,2.36,2.06v.34Z" fill="#3b4351"/><path d="M660.07,59.69h1V57.55h1.51v2.14h1.23v1.12h-1.23v4.5c0,.6.17.79.69.79a2.7,2.7,0,0,0,.54,0v1.12a4.64,4.64,0,0,1-1.22.13c-1,0-1.52-.3-1.52-1.82V60.81h-1Z" fill="#3b4351"/><path d="M664.63,59.69h1.52v1.18h0a1.87,1.87,0,0,1,1.76-1.38.87.87,0,0,1,.36.06v1.54a2.18,2.18,0,0,0-.63-.08c-.69,0-1.51.3-1.51,1.7v4.51h-1.52Z" fill="#3b4351"/><path d="M672.89,66.34h0a2.15,2.15,0,0,1-1.93,1.08c-1.12,0-1.88-.52-1.88-2.46V59.69h1.52V65.1c0,.84.36,1.12,1,1.12A1.17,1.17,0,0,0,672.81,65V59.69h1.51v7.53h-1.43Z" fill="#3b4351"/><path d="M680.86,64.48c-.11,1.81-.7,2.94-2.58,2.94-2.18,0-2.8-1.61-2.8-4s.62-4,2.8-4a2.45,2.45,0,0,1,2.6,2.71h-1.52c0-.7-.18-1.63-1.08-1.59-1.07,0-1.28,1.18-1.28,2.85s.21,2.84,1.28,2.84c.84,0,1.15-.69,1.15-1.82Z" fill="#3b4351"/><path d="M681.32,59.69h1V57.55h1.51v2.14h1.23v1.12h-1.23v4.5c0,.6.17.79.69.79a2.7,2.7,0,0,0,.54,0v1.12a4.64,4.64,0,0,1-1.22.13c-1,0-1.52-.3-1.52-1.82V60.81h-1Z" fill="#3b4351"/><path d="M687.19,63.65v.44c0,1,.12,2.29,1.26,2.29s1.2-1.21,1.2-1.68h1.43a2.48,2.48,0,0,1-2.65,2.72c-1.23,0-2.76-.36-2.76-3.85,0-2,.44-4.08,2.79-4.08,2.1,0,2.66,1.28,2.66,3.36v.8Zm2.42-1v-.41c0-1-.31-1.68-1.16-1.68s-1.26.95-1.26,1.93v.16Z" fill="#3b4351"/><path d="M696.22,66.3h0a1.61,1.61,0,0,1-1.65,1.12c-1.75,0-2.47-1.48-2.47-4.06,0-3.35,1.18-3.87,2.33-3.87a1.75,1.75,0,0,1,1.71,1.08h0V57.22h1.52v10h-1.43Zm-1.37-5.6c-.86,0-1.18.7-1.18,2.73,0,1.71.21,2.79,1.27,2.79s1.28-1,1.28-2.68C696.22,61.73,696,60.7,694.85,60.7Z" fill="#3b4351"/><path d="M707.4,65.66c0,.28.17.53.4.53a.76.76,0,0,0,.25,0v1a1.71,1.71,0,0,1-.74.18c-.68,0-1.24-.27-1.28-1h0a1.93,1.93,0,0,1-1.87,1.11c-1.22,0-2-.66-2-2.11a2.07,2.07,0,0,1,1.75-2.37l1.17-.32c.55-.16.89-.31.89-1s-.24-1.12-1-1.12c-1,0-1.15.71-1.15,1.44h-1.43c0-1.61.66-2.48,2.65-2.48,1.33,0,2.39.52,2.39,1.85ZM706,63.25a13.32,13.32,0,0,1-1.69.7,1.24,1.24,0,0,0-.61,1.22c0,.63.31,1.13.94,1.13.91,0,1.36-.67,1.36-1.79Z" fill="#3b4351"/><path d="M708.27,59.69h1V57.55h1.51v2.14h1.23v1.12h-1.23v4.5c0,.6.17.79.69.79a2.7,2.7,0,0,0,.54,0v1.12a4.64,4.64,0,0,1-1.22.13c-1,0-1.52-.3-1.52-1.82V60.81h-1Z" fill="#3b4351"/><path d="M716.29,57.22h5.34v1.35h-3.74v2.77h3.51v1.35h-3.51v4.53h-1.6Z" fill="#3b4351"/><path d="M727.62,65.66c0,.28.17.53.39.53a.78.78,0,0,0,.26,0v1a1.76,1.76,0,0,1-.75.18c-.67,0-1.23-.27-1.27-1h0a1.94,1.94,0,0,1-1.88,1.11c-1.22,0-2-.66-2-2.11a2.07,2.07,0,0,1,1.75-2.37l1.18-.32c.55-.16.88-.31.88-1s-.24-1.12-1-1.12c-1,0-1.15.71-1.15,1.44h-1.43c0-1.61.66-2.48,2.65-2.48,1.33,0,2.39.52,2.39,1.85Zm-1.43-2.41a13.82,13.82,0,0,1-1.68.7,1.25,1.25,0,0,0-.62,1.22c0,.63.31,1.13.94,1.13.91,0,1.36-.67,1.36-1.79Z" fill="#3b4351"/><path d="M730.17,59.69l1.3,5.66h0l1.2-5.66h1.59l-2.08,7.81c-.6,2.06-1.06,2.34-2.63,2.3a3,3,0,0,1-.6,0V68.54a2,2,0,0,0,.49.06c.51,0,.85-.1,1-.59l.19-.62-2.14-7.7Z" fill="#3b4351"/><path d="M739,66.34h0A2.17,2.17,0,0,1,737,67.42c-1.12,0-1.88-.52-1.88-2.46V59.69h1.52V65.1c0,.84.36,1.12,1,1.12A1.17,1.17,0,0,0,738.89,65V59.69h1.51v7.53H739Z" fill="#3b4351"/><path d="M741.93,59.69h1.42v.88h0a2.1,2.1,0,0,1,1.8-1.08A1.63,1.63,0,0,1,747,60.64a2.07,2.07,0,0,1,1.91-1.15c1.06,0,1.83.55,1.83,2v5.72h-1.51V62.06c0-1-.29-1.36-.91-1.36s-1.2.47-1.2,1.47v5h-1.52V62.06c0-1-.29-1.36-.92-1.36s-1.19.49-1.19,1.47v5h-1.51Z" fill="#3b4351"/><path d="M752.37,65.38H754v1.84h-1.6Z" fill="#3b4351"/><path d="M492.76,91.57h2l2.64,10h-1.67l-.62-2.45h-2.92l-.65,2.45h-1.67Zm2.13,6.27-1.15-4.93h0l-1.19,4.93Z" fill="#3b4351"/><path d="M498.1,94h1.43v.88h.05a2.09,2.09,0,0,1,1.8-1.07A1.62,1.62,0,0,1,503.13,95,2.08,2.08,0,0,1,505,93.84c1.06,0,1.83.54,1.83,2v5.73h-1.51V96.4c0-1-.29-1.36-.91-1.36s-1.2.48-1.2,1.47v5.06h-1.52V96.4c0-1-.29-1.36-.92-1.36s-1.19.49-1.19,1.47v5.06H498.1Z" fill="#3b4351"/><path d="M509.7,98v.43c0,1,.12,2.3,1.26,2.3s1.2-1.22,1.2-1.68h1.43a2.48,2.48,0,0,1-2.65,2.71c-1.23,0-2.76-.36-2.76-3.85,0-2,.44-4.07,2.79-4.07,2.1,0,2.66,1.27,2.66,3.36V98Zm2.42-1v-.41c0-1-.31-1.68-1.16-1.68s-1.26.95-1.26,1.94V97Z" fill="#3b4351"/><path d="M514.88,94h1.43v.88h0a2.16,2.16,0,0,1,1.93-1.07c1.15,0,1.88.51,1.88,2v5.69h-1.52V96.4c0-1-.26-1.36-1-1.36-.61,0-1.2.46-1.2,1.47v5.06h-1.51Z" fill="#3b4351"/><path d="M522.91,98v.43c0,1,.13,2.3,1.26,2.3s1.21-1.22,1.21-1.68h1.43a2.48,2.48,0,0,1-2.65,2.71c-1.23,0-2.76-.36-2.76-3.85,0-2,.43-4.07,2.79-4.07,2.1,0,2.66,1.27,2.66,3.36V98Zm2.43-1v-.41c0-1-.31-1.68-1.17-1.68s-1.26.95-1.26,1.94V97Z" fill="#3b4351"/><path d="M528.16,94h1.43v.88h0a2.12,2.12,0,0,1,1.81-1.07A1.62,1.62,0,0,1,533.19,95a2.07,2.07,0,0,1,1.91-1.14c1.06,0,1.83.54,1.83,2v5.73h-1.51V96.4c0-1-.3-1.36-.91-1.36s-1.21.48-1.21,1.47v5.06h-1.51V96.4c0-1-.29-1.36-.92-1.36s-1.19.49-1.19,1.47v5.06h-1.52Z" fill="#3b4351"/><path d="M538.45,91.57H540v3.27l0,0a2.13,2.13,0,0,1,1.85-1c1.15,0,1.87.51,1.87,2v5.69h-1.51V96.4c0-1-.28-1.36-1.05-1.36-.62,0-1.2.48-1.2,1.47v5.06h-1.52Z" fill="#3b4351"/><path d="M546.49,98v.43c0,1,.12,2.3,1.26,2.3s1.2-1.22,1.2-1.68h1.43a2.48,2.48,0,0,1-2.65,2.71c-1.23,0-2.75-.36-2.75-3.85,0-2,.43-4.07,2.78-4.07,2.1,0,2.66,1.27,2.66,3.36V98Zm2.42-1v-.41c0-1-.31-1.68-1.16-1.68s-1.26.95-1.26,1.94V97Z" fill="#3b4351"/><path d="M551,94h1V91.89h1.52V94h1.23v1.12h-1.23v4.5c0,.6.16.8.68.8a2.64,2.64,0,0,0,.55,0v1.13a5.17,5.17,0,0,1-1.22.12c-1,0-1.53-.29-1.53-1.82V95.15h-1Z" fill="#3b4351"/><path d="M559,91.57h1.59v10H559Z" fill="#3b4351"/><path d="M561.21,91.57h1.7l1.69,8h0l1.8-8h1.69l-2.52,10h-2Z" fill="#3b4351"/><path d="M572.12,91.57h1.51v3.34h0a1.74,1.74,0,0,1,1.71-1.07c1.15,0,2.33.51,2.33,3.86,0,2.59-.72,4.06-2.47,4.06a1.61,1.61,0,0,1-1.65-1.12h0v.93h-1.43Zm2.7,9c1.07,0,1.28-1.08,1.28-2.79,0-2-.32-2.73-1.18-2.73-1.17,0-1.37,1-1.37,2.84C573.55,99.51,573.79,100.56,574.82,100.56Z" fill="#3b4351"/><path d="M582.71,100.69h-.05a2.15,2.15,0,0,1-1.93,1.07c-1.12,0-1.88-.51-1.88-2.46V94h1.52v5.41c0,.84.36,1.12,1,1.12a1.17,1.17,0,0,0,1.23-1.26V94h1.51v7.54h-1.42Z" fill="#3b4351"/><path d="M585.66,91.45h1.51V93h-1.51Zm0,2.58h1.51v7.54h-1.51Z" fill="#3b4351"/><path d="M588.77,91.57h1.51v10h-1.51Z" fill="#3b4351"/><path d="M591.13,94h1V91.89h1.51V94h1.23v1.12h-1.23v4.5c0,.6.17.8.69.8a2.61,2.61,0,0,0,.54,0v1.13a5.17,5.17,0,0,1-1.22.12c-1,0-1.52-.29-1.52-1.82V95.15h-1Z" fill="#3b4351"/><path d="M598.38,94h1V91.89h1.51V94h1.23v1.12h-1.23v4.5c0,.6.17.8.69.8a2.61,2.61,0,0,0,.54,0v1.13a5.17,5.17,0,0,1-1.22.12c-1,0-1.52-.29-1.52-1.82V95.15h-1Z" fill="#3b4351"/><path d="M604.25,98v.43c0,1,.12,2.3,1.26,2.3s1.2-1.22,1.2-1.68h1.43a2.48,2.48,0,0,1-2.65,2.71c-1.23,0-2.75-.36-2.75-3.85,0-2,.43-4.07,2.78-4.07,2.1,0,2.66,1.27,2.66,3.36V98Zm2.42-1v-.41c0-1-.31-1.68-1.16-1.68s-1.26.95-1.26,1.94V97Z" fill="#3b4351"/><path d="M609.5,94h1.43v.88h0a2.11,2.11,0,0,1,1.81-1.07A1.64,1.64,0,0,1,614.53,95a2.06,2.06,0,0,1,1.9-1.14c1.07,0,1.84.54,1.84,2v5.73h-1.52V96.4c0-1-.29-1.36-.91-1.36s-1.2.48-1.2,1.47v5.06h-1.51V96.4c0-1-.3-1.36-.93-1.36s-1.19.49-1.19,1.47v5.06H609.5Z" fill="#3b4351"/><path d="M623,101.76a1.73,1.73,0,0,1-1.71-1.07h0V104h-1.51V94h1.43V95h0a1.76,1.76,0,0,1,1.69-1.12c1.72,0,2.42,1.47,2.42,4.06C625.36,101.06,624.09,101.76,623,101.76ZM622.49,95c-1,0-1.27,1-1.27,2.68,0,1.8.22,2.84,1.29,2.84.85,0,1.26-.65,1.26-2.73C623.77,96.12,623.56,95,622.49,95Z" fill="#3b4351"/><path d="M626.59,91.57h1.51v10h-1.51Z" fill="#3b4351"/><path d="M630.93,98v.43c0,1,.13,2.3,1.26,2.3s1.21-1.22,1.21-1.68h1.43a2.48,2.48,0,0,1-2.65,2.71c-1.23,0-2.76-.36-2.76-3.85,0-2,.43-4.07,2.79-4.07,2.1,0,2.66,1.27,2.66,3.36V98Zm2.42-1v-.41c0-1-.3-1.68-1.16-1.68s-1.26.95-1.26,1.94V97Z" fill="#3b4351"/><path d="M638.8,94h1V91.89h1.51V94h1.23v1.12h-1.23v4.5c0,.6.17.8.69.8a2.61,2.61,0,0,0,.54,0v1.13a5.17,5.17,0,0,1-1.22.12c-1,0-1.52-.29-1.52-1.82V95.15h-1Z" fill="#3b4351"/><path d="M643.07,97.8c0-2.35.62-4,2.8-4s2.82,1.61,2.82,4-.73,4-2.82,4S643.07,100.15,643.07,97.8Zm2.8,2.84c1.11,0,1.3-.92,1.3-2.84,0-1.67-.19-2.84-1.3-2.84s-1.29,1.17-1.29,2.84C644.58,99.72,644.79,100.64,645.87,100.64Z" fill="#3b4351"/><path d="M653.07,96.57c0-3.57,1-5.2,3.3-5.2s3.31,1.63,3.31,5.2-1,5.19-3.31,5.19S653.07,100.14,653.07,96.57Zm5,0c0-3.37-.76-4-1.71-4s-1.71.59-1.71,4,.76,4,1.71,4S658.08,100,658.08,96.53Z" fill="#3b4351"/><path d="M664.24,96.23V96c0-.6-.21-1.16-1-1.16-.61,0-1.08.27-1.08,1s.26.83,1.06,1.11l1,.34a2,2,0,0,1,1.64,2.17c0,1.61-1.19,2.29-2.71,2.29-1.9,0-2.48-.88-2.48-2.34v-.28H662v.24c0,.88.29,1.35,1.18,1.35s1.23-.42,1.23-1.11a1.1,1.1,0,0,0-.83-1.11l-1.23-.43a2,2,0,0,1-1.61-2.17c0-1.42,1-2.07,2.58-2.07,1.91,0,2.35,1.12,2.35,2v.34Z" fill="#3b4351"/><path d="M667,91.45h1.52V93H667ZM667,94h1.52v7.54H667Z" fill="#3b4351"/><path d="M670.06,94h1.51v1.18h0a1.87,1.87,0,0,1,1.75-1.37.94.94,0,0,1,.37,0v1.54a2.24,2.24,0,0,0-.63-.08c-.69,0-1.52.31-1.52,1.71v4.51h-1.51Z" fill="#3b4351"/><path d="M674.54,91.45h1.52V93h-1.52Zm0,2.58h1.52v7.54h-1.52Z" fill="#3b4351"/><path d="M680.83,96.23V96c0-.6-.21-1.16-1-1.16-.6,0-1.07.27-1.07,1s.26.83,1.06,1.11l1,.34a2,2,0,0,1,1.64,2.17c0,1.61-1.19,2.29-2.71,2.29-1.9,0-2.48-.88-2.48-2.34v-.28h1.35v.24c0,.88.29,1.35,1.18,1.35s1.23-.42,1.23-1.11a1.1,1.1,0,0,0-.83-1.11l-1.23-.43a2,2,0,0,1-1.61-2.17c0-1.42,1-2.07,2.57-2.07,1.92,0,2.36,1.12,2.36,2v.34Z" fill="#3b4351"/><path d="M691.85,100c0,.28.17.53.39.53a.54.54,0,0,0,.25,0v1a1.58,1.58,0,0,1-.74.18c-.67,0-1.23-.26-1.27-1h0a2,2,0,0,1-1.88,1.1c-1.22,0-2-.65-2-2.11a2.08,2.08,0,0,1,1.75-2.37l1.18-.32c.54-.15.88-.31.88-1s-.24-1.12-1-1.12c-1,0-1.15.72-1.15,1.44h-1.42c0-1.61.65-2.47,2.64-2.47,1.33,0,2.4.51,2.4,1.84Zm-1.43-2.41a11.23,11.23,0,0,1-1.68.7,1.23,1.23,0,0,0-.62,1.22c0,.63.31,1.13.94,1.13.91,0,1.36-.67,1.36-1.79Z" fill="#3b4351"/><path d="M692.71,94h1V91.89h1.51V94h1.24v1.12h-1.24v4.5c0,.6.17.8.69.8a2.72,2.72,0,0,0,.55,0v1.13a5.23,5.23,0,0,1-1.22.12c-1,0-1.53-.29-1.53-1.82V95.15h-1Z" fill="#3b4351"/><path d="M702.11,91.57h2l2.64,10h-1.67l-.62-2.45h-2.92l-.65,2.45h-1.66Zm2.13,6.27-1.15-4.93h0l-1.19,4.93Z" fill="#3b4351"/><path d="M707.39,91.57h1.51v3.34h0a1.74,1.74,0,0,1,1.71-1.07c1.14,0,2.32.51,2.32,3.86,0,2.59-.71,4.06-2.46,4.06a1.61,1.61,0,0,1-1.66-1.12h0v.93h-1.42Zm2.7,9c1.06,0,1.27-1.08,1.27-2.79,0-2-.32-2.73-1.17-2.73-1.18,0-1.38,1-1.38,2.84C708.81,99.51,709.05,100.56,710.09,100.56Z" fill="#3b4351"/><path d="M715,94l1.3,5.66h0L717.5,94h1.58L717,101.85c-.61,2.06-1.07,2.34-2.64,2.3a3.05,3.05,0,0,1-.6-.06v-1.21a1.65,1.65,0,0,0,.49.06c.52,0,.85-.1,1-.59l.2-.61L713.34,94Z" fill="#3b4351"/><path d="M723.77,100.64h0a1.61,1.61,0,0,1-1.65,1.12c-1.75,0-2.47-1.48-2.47-4.06,0-3.35,1.18-3.86,2.33-3.86a1.75,1.75,0,0,1,1.71,1.07h0V91.57h1.52v10h-1.43ZM722.39,95c-.85,0-1.17.7-1.17,2.73,0,1.71.21,2.79,1.27,2.79s1.28-1,1.28-2.68C723.77,96.08,723.57,95,722.39,95Z" fill="#3b4351"/><path d="M726.35,97.8c0-2.35.62-4,2.81-4s2.81,1.61,2.81,4-.73,4-2.81,4S726.35,100.15,726.35,97.8Zm2.81,2.84c1.1,0,1.3-.92,1.3-2.84,0-1.67-.2-2.84-1.3-2.84s-1.29,1.17-1.29,2.84C727.87,99.72,728.08,100.64,729.16,100.64Z" fill="#3b4351"/><path d="M736.38,96.23V96c0-.6-.21-1.16-1-1.16-.61,0-1.08.27-1.08,1s.26.83,1.06,1.11l1,.34A2,2,0,0,1,738,99.47c0,1.61-1.19,2.29-2.71,2.29-1.9,0-2.47-.88-2.47-2.34v-.28h1.34v.24c0,.88.29,1.35,1.18,1.35s1.23-.42,1.23-1.11a1.1,1.1,0,0,0-.83-1.11l-1.23-.43a2,2,0,0,1-1.61-2.17c0-1.42,1-2.07,2.58-2.07,1.92,0,2.35,1.12,2.35,2v.34Z" fill="#3b4351"/><path d="M739.25,99.72h1.6v1.85h-1.6Z" fill="#3b4351"/></g></g><g id="Ageans"><g id="Title"><g id="small-2" data-name="small"><path d="M106.67,33.37v.21c0,1.8-.74,3.57-3.08,3.57-2.52,0-3.31-1.63-3.31-5.2s.79-5.19,3.32-5.19c2.85,0,3,2.08,3,3.13v.19H105v-.17c0-.94-.28-2-1.43-1.95s-1.71.73-1.71,3.95.52,4,1.71,4c1.34,0,1.48-1.47,1.48-2.4v-.17Z"/><path d="M107.69,29.42h1.51v1.17h0A1.87,1.87,0,0,1,111,29.22a.87.87,0,0,1,.36.06v1.54a2.11,2.11,0,0,0-.63-.09c-.68,0-1.51.31-1.51,1.71V37h-1.51Z"/><path d="M113.32,33.38v.44c0,1,.12,2.29,1.26,2.29s1.2-1.22,1.2-1.68h1.43a2.48,2.48,0,0,1-2.65,2.72c-1.23,0-2.76-.36-2.76-3.85,0-2,.44-4.08,2.79-4.08,2.1,0,2.66,1.28,2.66,3.36v.8Zm2.42-1v-.4c0-1-.31-1.68-1.16-1.68s-1.26.95-1.26,1.93v.15Z"/><path d="M117.82,29.42h1V27.27h1.51v2.15h1.24v1.12h-1.24V35c0,.61.17.8.69.8a2.81,2.81,0,0,0,.55,0v1.12a4.69,4.69,0,0,1-1.22.13c-1,0-1.53-.3-1.53-1.82V30.54h-1Z"/><path d="M127.33,35.38c0,.28.17.54.4.54a.55.55,0,0,0,.25-.05v1a1.76,1.76,0,0,1-.75.18c-.67,0-1.23-.27-1.27-1h0a1.93,1.93,0,0,1-1.87,1.11c-1.22,0-2-.66-2-2.12a2.07,2.07,0,0,1,1.75-2.36l1.18-.33c.55-.15.88-.3.88-1s-.23-1.12-1-1.12c-1,0-1.15.71-1.15,1.44h-1.43c0-1.61.66-2.48,2.65-2.48,1.33,0,2.39.52,2.39,1.85ZM125.9,33a13.18,13.18,0,0,1-1.68.7,1.23,1.23,0,0,0-.61,1.21c0,.63.3,1.14.94,1.14.91,0,1.35-.67,1.35-1.79Z"/><path d="M128.87,29.42h1.43v.88h0a2.17,2.17,0,0,1,1.93-1.08c1.15,0,1.88.52,1.88,2.05V37h-1.51V31.78c0-1-.27-1.35-1-1.35-.62,0-1.21.46-1.21,1.47V37h-1.51Z"/><path d="M138.85,31.62v-.2c0-.6-.21-1.16-1-1.16-.6,0-1.08.26-1.08,1s.27.82,1.07,1.1l1,.34a2,2,0,0,1,1.64,2.17c0,1.61-1.19,2.3-2.7,2.3-1.91,0-2.48-.88-2.48-2.34v-.28h1.34v.24c0,.88.3,1.34,1.18,1.34S139,35.69,139,35a1.09,1.09,0,0,0-.82-1.11L137,33.47a2,2,0,0,1-1.61-2.18c0-1.41,1-2.07,2.58-2.07,1.92,0,2.35,1.12,2.35,2.06v.34Z"/><path d="M144.26,29.42h1V27.27h1.51v2.15H148v1.12H146.8V35c0,.61.17.8.69.8a2.75,2.75,0,0,0,.55,0v1.12a4.64,4.64,0,0,1-1.22.13c-1,0-1.53-.3-1.53-1.82V30.54h-1Z"/><path d="M148.82,27h1.51v3.28l0,0a2.16,2.16,0,0,1,1.85-1c1.15,0,1.88.52,1.88,2.05V37h-1.51V31.78c0-1-.28-1.35-1.05-1.35-.62,0-1.21.47-1.21,1.47V37h-1.51Z"/><path d="M156.86,33.38v.44c0,1,.12,2.29,1.26,2.29s1.2-1.22,1.2-1.68h1.43a2.48,2.48,0,0,1-2.65,2.72c-1.23,0-2.76-.36-2.76-3.85,0-2,.44-4.08,2.79-4.08,2.1,0,2.66,1.28,2.66,3.36v.8Zm2.42-1v-.4c0-1-.31-1.68-1.16-1.68s-1.26.95-1.26,1.93v.15Z"/><path d="M165.47,27H167V37h-1.51Z"/><path d="M169.81,33.38v.44c0,1,.12,2.29,1.26,2.29s1.2-1.22,1.2-1.68h1.43a2.48,2.48,0,0,1-2.65,2.72c-1.23,0-2.76-.36-2.76-3.85,0-2,.44-4.08,2.79-4.08,2.1,0,2.66,1.28,2.66,3.36v.8Zm2.42-1v-.4c0-1-.31-1.68-1.16-1.68s-1.26.95-1.26,1.93v.15Z"/><path d="M179.93,35.38c0,.28.17.54.39.54a.52.52,0,0,0,.25-.05v1a1.68,1.68,0,0,1-.74.18c-.67,0-1.23-.27-1.27-1h0a1.94,1.94,0,0,1-1.88,1.11c-1.22,0-2-.66-2-2.12a2.06,2.06,0,0,1,1.75-2.36l1.18-.33c.54-.15.88-.3.88-1s-.24-1.12-1-1.12c-1,0-1.14.71-1.14,1.44h-1.43c0-1.61.66-2.48,2.64-2.48,1.34,0,2.4.52,2.4,1.85ZM178.5,33a13.82,13.82,0,0,1-1.68.7,1.23,1.23,0,0,0-.62,1.21c0,.63.31,1.14.94,1.14.91,0,1.36-.67,1.36-1.79Z"/><path d="M185.32,36h0a1.61,1.61,0,0,1-1.65,1.12c-1.75,0-2.47-1.49-2.47-4.06,0-3.35,1.18-3.87,2.33-3.87a1.75,1.75,0,0,1,1.71,1.08h0V27h1.51V37h-1.43ZM184,30.43c-.86,0-1.18.7-1.18,2.73,0,1.71.21,2.78,1.27,2.78s1.28-1,1.28-2.67C185.32,31.46,185.12,30.43,184,30.43Z"/><path d="M188.27,26.84h1.51v1.51h-1.51Zm0,2.58h1.51V37h-1.51Z"/><path d="M191.31,29.42h1.43v.88h0a2.17,2.17,0,0,1,1.93-1.08c1.15,0,1.88.52,1.88,2.05V37h-1.51V31.78c0-1-.27-1.35-1.05-1.35-.62,0-1.21.46-1.21,1.47V37h-1.51Z"/><path d="M199.56,37.6a1,1,0,0,0,1.09.89,1.24,1.24,0,0,0,1.27-1.41V35.86h0a1.82,1.82,0,0,1-1.7,1c-1.76,0-2.26-1.73-2.26-3.8,0-1.65.25-3.88,2.4-3.88A1.67,1.67,0,0,1,202,30.34h0v-.92h1.43v7.17c0,1.83-.79,2.94-2.82,2.94-2.24,0-2.49-1.32-2.49-1.93Zm1.06-1.91c1.18,0,1.3-1.48,1.3-2.67s-.15-2.59-1.2-2.59-1.28,1.12-1.28,2.52S199.5,35.69,200.62,35.69Z"/><path d="M211.39,31.62v-.2c0-.6-.21-1.16-1-1.16-.6,0-1.08.26-1.08,1s.27.82,1.07,1.1l1,.34A2,2,0,0,1,213,34.85c0,1.61-1.19,2.3-2.7,2.3-1.91,0-2.48-.88-2.48-2.34v-.28h1.34v.24c0,.88.3,1.34,1.18,1.34s1.23-.42,1.23-1.1a1.09,1.09,0,0,0-.82-1.11l-1.23-.43a2,2,0,0,1-1.62-2.18c0-1.41,1-2.07,2.58-2.07,1.92,0,2.35,1.12,2.35,2.06v.34Z"/><path d="M215.4,33.38v.44c0,1,.13,2.29,1.26,2.29s1.21-1.22,1.21-1.68h1.43a2.48,2.48,0,0,1-2.65,2.72c-1.23,0-2.76-.36-2.76-3.85,0-2,.43-4.08,2.79-4.08,2.1,0,2.66,1.28,2.66,3.36v.8Zm2.43-1v-.4c0-1-.31-1.68-1.17-1.68s-1.26.95-1.26,1.93v.15Z"/><path d="M225.53,35.38c0,.28.17.54.39.54a.52.52,0,0,0,.25-.05v1a1.71,1.71,0,0,1-.74.18c-.67,0-1.23-.27-1.28-1h0a1.94,1.94,0,0,1-1.88,1.11c-1.22,0-2-.66-2-2.12A2.06,2.06,0,0,1,222,32.67l1.18-.33c.54-.15.88-.3.88-1s-.24-1.12-1-1.12c-1,0-1.15.71-1.15,1.44h-1.43c0-1.61.66-2.48,2.65-2.48,1.33,0,2.4.52,2.4,1.85ZM224.1,33a13.82,13.82,0,0,1-1.68.7,1.22,1.22,0,0,0-.62,1.21c0,.63.31,1.14.94,1.14.91,0,1.36-.67,1.36-1.79Z"/><path d="M233.67,37.15A1.74,1.74,0,0,1,232,36.07h0v3.35h-1.52v-10h1.43v.92h0a1.79,1.79,0,0,1,1.7-1.12c1.72,0,2.42,1.47,2.42,4.06C236,36.45,234.72,37.15,233.67,37.15Zm-.54-6.72c-1,0-1.28,1.05-1.28,2.67,0,1.81.23,2.84,1.29,2.84.86,0,1.26-.64,1.26-2.73C234.4,31.5,234.19,30.43,233.13,30.43Z"/><path d="M236.86,33.19c0-2.36.62-4,2.81-4s2.81,1.61,2.81,4-.73,4-2.81,4S236.86,35.54,236.86,33.19ZM239.67,36c1.1,0,1.3-.93,1.3-2.84,0-1.67-.2-2.85-1.3-2.85s-1.29,1.18-1.29,2.85C238.38,35.1,238.59,36,239.67,36Z"/><path d="M243,29.42h1.57l1,5.94h0l1.13-5.94h1.7l1.13,5.94h0l1-5.94h1.51L250.49,37h-1.7l-1.17-5.85h0L246.51,37h-1.76Z"/><path d="M254.45,33.38v.44c0,1,.12,2.29,1.26,2.29s1.2-1.22,1.2-1.68h1.43a2.48,2.48,0,0,1-2.64,2.72c-1.24,0-2.76-.36-2.76-3.85,0-2,.43-4.08,2.78-4.08,2.1,0,2.66,1.28,2.66,3.36v.8Zm2.42-1v-.4c0-1-.31-1.68-1.16-1.68s-1.26.95-1.26,1.93v.15Z"/><path d="M259.63,29.42h1.51v1.17h0a1.85,1.85,0,0,1,1.75-1.37.87.87,0,0,1,.36.06v1.54a2.11,2.11,0,0,0-.63-.09c-.68,0-1.51.31-1.51,1.71V37h-1.51Z"/><path d="M267.1,33.19c0-2.36.62-4,2.8-4s2.82,1.61,2.82,4-.73,4-2.82,4S267.1,35.54,267.1,33.19ZM269.9,36c1.11,0,1.31-.93,1.31-2.84,0-1.67-.2-2.85-1.31-2.85s-1.28,1.18-1.28,2.85C268.62,35.1,268.83,36,269.9,36Z"/><path d="M274.34,30.54h-1V29.42h1v-.7c0-1.42.69-1.88,1.92-1.88a6.67,6.67,0,0,1,.83,0V28h-.42c-.56,0-.82.21-.82.72v.66h1.24v1.12h-1.24V37h-1.51Z"/><path d="M280.46,29.42h1V27.27H283v2.15h1.23v1.12H283V35c0,.61.17.8.68.8a2.75,2.75,0,0,0,.55,0v1.12A4.64,4.64,0,0,1,283,37c-1,0-1.52-.3-1.52-1.82V30.54h-1Z"/><path d="M285,27h1.52v3.28l0,0a2.14,2.14,0,0,1,1.85-1c1.15,0,1.87.52,1.87,2.05V37h-1.51V31.78c0-1-.28-1.35-1.05-1.35s-1.2.47-1.2,1.47V37H285Z"/><path d="M293.06,33.38v.44c0,1,.13,2.29,1.26,2.29s1.21-1.22,1.21-1.68H297a2.47,2.47,0,0,1-2.64,2.72c-1.24,0-2.76-.36-2.76-3.85,0-2,.43-4.08,2.78-4.08,2.11,0,2.67,1.28,2.67,3.36v.8Zm2.42-1v-.4c0-1-.31-1.68-1.16-1.68s-1.26.95-1.26,1.93v.15Z"/><path d="M301.7,27h2.49L306,34.36h0L307.72,27h2.44V37h-1.52V28.63h0l-2,8.32h-1.35l-2-8.32h0V37H301.7Z"/><path d="M313,33.38v.44c0,1,.13,2.29,1.26,2.29s1.21-1.22,1.21-1.68h1.42a2.48,2.48,0,0,1-2.64,2.72c-1.24,0-2.76-.36-2.76-3.85,0-2,.43-4.08,2.78-4.08,2.11,0,2.67,1.28,2.67,3.36v.8Zm2.42-1v-.4c0-1-.31-1.68-1.16-1.68s-1.26.95-1.26,1.93v.15Z"/><path d="M322,36h0a1.61,1.61,0,0,1-1.65,1.12c-1.75,0-2.47-1.49-2.47-4.06,0-3.35,1.18-3.87,2.33-3.87a1.74,1.74,0,0,1,1.71,1.08h0V27h1.51V37H322Zm-1.37-5.6c-.86,0-1.18.7-1.18,2.73,0,1.71.21,2.78,1.28,2.78s1.27-1,1.27-2.67C322,31.46,321.84,30.43,320.67,30.43Z"/><path d="M325,26.84h1.52v1.51H325Zm0,2.58h1.52V37H325Z"/><path d="M327.36,29.42h1V27.27h1.52v2.15h1.23v1.12h-1.23V35c0,.61.17.8.68.8a2.75,2.75,0,0,0,.55,0v1.12a4.64,4.64,0,0,1-1.22.13c-1,0-1.53-.3-1.53-1.82V30.54h-1Z"/><path d="M333.23,33.38v.44c0,1,.12,2.29,1.26,2.29s1.2-1.22,1.2-1.68h1.43a2.48,2.48,0,0,1-2.65,2.72c-1.23,0-2.76-.36-2.76-3.85,0-2,.44-4.08,2.79-4.08,2.1,0,2.66,1.28,2.66,3.36v.8Zm2.42-1v-.4c0-1-.31-1.68-1.16-1.68s-1.26.95-1.26,1.93v.15Z"/><path d="M338.4,29.42h1.52v1.17h0a1.85,1.85,0,0,1,1.75-1.37.87.87,0,0,1,.36.06v1.54a2.11,2.11,0,0,0-.63-.09c-.69,0-1.51.31-1.51,1.71V37H338.4Z"/><path d="M347.67,35.38c0,.28.17.54.4.54a.55.55,0,0,0,.25-.05v1a1.71,1.71,0,0,1-.74.18c-.68,0-1.24-.27-1.28-1h0a1.93,1.93,0,0,1-1.87,1.11c-1.22,0-2-.66-2-2.12a2.06,2.06,0,0,1,1.75-2.36l1.17-.33c.55-.15.89-.3.89-1s-.24-1.12-1-1.12c-1,0-1.15.71-1.15,1.44h-1.43c0-1.61.66-2.48,2.65-2.48,1.33,0,2.39.52,2.39,1.85ZM346.25,33a13.82,13.82,0,0,1-1.68.7,1.22,1.22,0,0,0-.62,1.21c0,.63.31,1.14.94,1.14.91,0,1.36-.67,1.36-1.79Z"/><path d="M349.21,29.42h1.43v.88h0a2.18,2.18,0,0,1,1.94-1.08c1.14,0,1.87.52,1.87,2.05V37H353V31.78c0-1-.27-1.35-1.05-1.35-.62,0-1.2.46-1.2,1.47V37h-1.52Z"/><path d="M357.25,33.38v.44c0,1,.12,2.29,1.26,2.29s1.2-1.22,1.2-1.68h1.43a2.48,2.48,0,0,1-2.64,2.72c-1.24,0-2.76-.36-2.76-3.85,0-2,.43-4.08,2.78-4.08,2.1,0,2.66,1.28,2.66,3.36v.8Zm2.42-1v-.4c0-1-.31-1.68-1.16-1.68s-1.26.95-1.26,1.93v.15Z"/><path d="M367.37,35.38c0,.28.17.54.4.54a.55.55,0,0,0,.25-.05v1a1.76,1.76,0,0,1-.75.18c-.67,0-1.23-.27-1.27-1h0a1.93,1.93,0,0,1-1.87,1.11c-1.22,0-2-.66-2-2.12a2.07,2.07,0,0,1,1.75-2.36l1.18-.33c.55-.15.88-.3.88-1s-.23-1.12-1-1.12c-1,0-1.15.71-1.15,1.44h-1.43c0-1.61.66-2.48,2.65-2.48,1.33,0,2.39.52,2.39,1.85ZM365.94,33a13.18,13.18,0,0,1-1.68.7,1.23,1.23,0,0,0-.61,1.21c0,.63.3,1.14.94,1.14.91,0,1.35-.67,1.35-1.79Z"/><path d="M368.91,29.42h1.43v.88h0a2.17,2.17,0,0,1,1.93-1.08c1.15,0,1.88.52,1.88,2.05V37h-1.51V31.78c0-1-.27-1.35-1.05-1.35-.62,0-1.21.46-1.21,1.47V37h-1.51Z"/></g><g id="large-2" data-name="large"><path d="M202.34,77.91h3.58l4.61,17.5h-2.92l-1.08-4.29h-5.12l-1.13,4.29h-2.91Zm3.73,11-2-8.63H204l-2.08,8.63Z"/><path d="M211.75,77.91h9.46v2.35h-6.67v4.86h6.28v2.35h-6.28v5.58h6.86v2.36h-9.65Z"/><path d="M232.18,93.37h-.05a3.62,3.62,0,0,1-3.82,2.38c-3.82,0-5.19-2.84-5.19-9.09s1.76-9.09,5.8-9.09a4.77,4.77,0,0,1,5.13,5.05v.31H231.4v-.41c0-1.3-.54-2.85-2.45-2.85s-3,1.33-3,6.92.93,7,2.82,7c2.13,0,2.91-1.52,2.91-5.34H228.7V86.19h5.59v9.22h-2.11Z"/><path d="M236.69,77.91h9.46v2.35h-6.67v4.86h6.28v2.35h-6.28v5.58h6.86v2.36h-9.65Z"/><path d="M251.78,77.91h3.58L260,95.41h-2.92L256,91.12h-5.12l-1.13,4.29h-2.91Zm3.73,11-2-8.63h-.05l-2.08,8.63Z"/><path d="M261.19,77.91h3.41l5.07,13h.05v-13h2.64v17.5H269L263.88,82h0V95.41h-2.65Z"/><path d="M277.41,90v.44c0,2.14.95,3.21,2.87,3.21a2.5,2.5,0,0,0,2.64-2.55c0-1.83-.93-2.64-2.5-3.11l-1.91-.66c-2.55-1-3.65-2.3-3.65-4.8,0-3.19,2.18-5,5.44-5,4.48,0,4.95,2.79,4.95,4.6v.4h-2.79V82.2c0-1.59-.69-2.53-2.45-2.53a2.24,2.24,0,0,0-2.36,2.53c0,1.49.76,2.25,2.63,3l1.88.69c2.48.88,3.56,2.21,3.56,4.63,0,3.73-2.26,5.27-5.79,5.27-4.34,0-5.32-2.89-5.32-5.34V90Z"/></g></g></g></g></svg>