<svg xmlns="http://www.w3.org/2000/svg" viewBox="0 0 1698.1 110.72"><defs><style>.cls-1{opacity:0.82;}.cls-2{fill:none;stroke:#fff;}.cls-10,.cls-2,.cls-3,.cls-4,.cls-5,.cls-6,.cls-7,.cls-8,.cls-9{stroke-miterlimit:10;}.cls-3{fill:#e96b41;}.cls-10,.cls-3,.cls-4,.cls-5,.cls-6,.cls-7,.cls-8,.cls-9{stroke:#000;stroke-width:4px;}.cls-4{fill:#e59b96;}.cls-5{fill:#e7ce6c;}.cls-6{fill:#658f63;}.cls-7{fill:#8ea8a3;}.cls-8{fill:#e09993;}.cls-9{fill:#ecd862;}.cls-10{fill:#eb7347;}</style></defs><title>bc1800</title><g id="Layer_1" data-name="Layer 1" class="cls-1"><g id="Template"><rect id="Chart_border" data-name="Chart border" class="cls-2" x="1.73" y="-328.41" width="1694.92" height="334.79"/></g><g id="_1850_BC" data-name="1850 BC"><g id="nations"><polygon id="aegeans" class="cls-3" points="325.7 2.97 1.77 2.97 1.75 -108.27 243.55 -107.67 325.7 2.97"/><polygon id="egyptians" class="cls-4" points="865.04 2.97 325.7 2.97 243.55 -107.67 906.21 -108.27 865.04 2.97"/><polygon id="hitities" class="cls-5" points="950.81 2.97 865.04 2.97 906.21 -108.27 950.12 -107.67 950.81 2.97"/><polygon id="amorites" class="cls-6" points="1203.22 2.97 950.14 3.56 950.12 -107.67 1203.87 -108.86 1203.22 2.97"/><polygon id="iranians" class="cls-7" points="1385.7 2.38 1203.89 2.38 1203.2 -108.27 1407.79 -108.86 1385.7 2.38"/><polygon id="indians" class="cls-8" points="1477.7 2.79 1385.7 2.38 1407.79 -108.86 1517.2 -108.27 1477.7 2.79"/><polygon id="huns" class="cls-9" points="1569.7 2.38 1477.7 2.79 1517.2 -108.27 1596.7 -108.27 1569.7 2.38"/><polygon id="chinese" class="cls-10" points="1696.68 2.97 1569.7 2.38 1596.7 -108.27 1696.68 -107.67 1696.68 2.97"/></g></g><g id="_1850_BC-2" data-name="1850 BC"><g id="nations-2" data-name="nations"><polygon id="aegeans-2" data-name="aegeans" class="cls-3" points="386.2 113.74 2.24 114.21 2.26 2.97 326.19 2.97 386.2 113.74"/><polygon id="egyptians-2" data-name="egyptians" class="cls-4" points="710.71 114.03 386.2 113.74 326.19 2.97 865.53 2.97 710.71 114.03"/><polygon id="hitities-2" data-name="hitities" class="cls-5" points="836.71 114.8 710.71 114.03 865.53 2.97 951.29 2.97 836.71 114.8"/><polygon id="amorites-2" data-name="amorites" class="cls-6" points="1122.7 114.8 836.71 114.8 950.63 2.38 1203.71 2.97 1122.7 114.8"/><polygon id="iranians-2" data-name="iranians" class="cls-7" points="1363.2 114.8 1122.7 114.8 1204.38 3.56 1386.19 3.56 1363.2 114.8"/><polygon id="indians-2" data-name="indians" class="cls-8" points="1440.45 114.5 1363.2 114.8 1386.19 3.56 1478.19 3.15 1440.45 114.5"/><polygon id="huns-2" data-name="huns" class="cls-9" points="1546.2 114.3 1440.45 114.5 1478.19 3.15 1570.19 3.56 1546.2 114.3"/><polygon id="chinese-2" data-name="chinese" class="cls-10" points="1697.17 113.62 1546.2 114.3 1570.19 3.56 1697.17 2.97 1697.17 113.62"/></g></g></g></svg>