<svg id="Text" xmlns="http://www.w3.org/2000/svg" viewBox="0 0 1847.91 110.67"><title>bc1900text</title><g id="Chinese"><path d="M1695.25,55.33H1698v7h5.15v-7H1706v17.5h-2.79V64.69H1698v8.14h-2.79Z"/><path d="M1714.38,63.49v-.34c0-1.06-.37-2-1.74-2-1.05,0-1.88.47-1.88,1.72,0,1.05.46,1.44,1.86,1.93l1.69.59c2,.66,2.87,1.72,2.87,3.8,0,2.82-2.09,4-4.73,4-3.34,0-4.34-1.54-4.34-4.09v-.49h2.35V69c0,1.55.52,2.36,2.06,2.36s2.16-.74,2.16-1.94a1.91,1.91,0,0,0-1.45-1.94l-2.16-.76c-2-.66-2.81-1.69-2.81-3.79,0-2.48,1.76-3.63,4.51-3.63,3.35,0,4.11,2,4.11,3.6v.59Z"/><path d="M1719.26,55.13h2.64v2.65h-2.64Zm0,4.51h2.64V72.83h-2.64Z"/><path d="M1733.22,70.08c0,.49.3.93.69.93a1,1,0,0,0,.44-.07v1.71a2.71,2.71,0,0,1-1.3.32c-1.17,0-2.16-.46-2.23-1.74h0a3.4,3.4,0,0,1-3.28,1.94c-2.13,0-3.43-1.15-3.43-3.7,0-2.94,1.3-3.55,3.06-4.14l2.06-.57c1-.27,1.54-.54,1.54-1.69s-.41-2-1.81-2c-1.77,0-2,1.25-2,2.53h-2.5c0-2.82,1.15-4.34,4.63-4.34,2.33,0,4.19.91,4.19,3.23Zm-2.5-4.21a20,20,0,0,1-2.94,1.22,2.17,2.17,0,0,0-1.08,2.13c0,1.11.54,2,1.65,2,1.59,0,2.37-1.18,2.37-3.14Z"/><path d="M1678.23,82.33h5c5.49,0,6.17,3.58,6.17,8.75s-.68,8.75-6.17,8.75h-5ZM1681,97.72h2.31c2.3,0,3.26-1.52,3.26-6.64,0-4.93-.84-6.64-3.26-6.64H1681Z"/><path d="M1693.45,86.64l2.28,9.9h0l2.11-9.9h2.77L1697,100.32c-1,3.6-1.86,4.09-4.6,4a5.44,5.44,0,0,1-1.06-.1v-2.11a3.67,3.67,0,0,0,.86.1c.91,0,1.5-.17,1.79-1l.34-1.08-3.75-13.48Z"/><path d="M1702.12,86.64h2.5v1.55h.07a3.77,3.77,0,0,1,3.38-1.89c2,0,3.29.91,3.29,3.58v10h-2.65v-9c0-1.76-.46-2.37-1.84-2.37-1.07,0-2.1.81-2.1,2.57v8.85h-2.65Z"/><path d="M1722.55,97.08c0,.49.3.93.69.93a1,1,0,0,0,.44-.07v1.71a2.71,2.71,0,0,1-1.3.32c-1.17,0-2.15-.46-2.23-1.74h-.05a3.4,3.4,0,0,1-3.28,1.94c-2.13,0-3.43-1.15-3.43-3.7,0-2.94,1.3-3.55,3.06-4.14l2.06-.57c1-.27,1.54-.54,1.54-1.69s-.41-2-1.81-2c-1.76,0-2,1.25-2,2.53h-2.5c0-2.82,1.15-4.34,4.63-4.34,2.33,0,4.19.91,4.19,3.23Zm-2.5-4.21a20,20,0,0,1-2.94,1.22,2.16,2.16,0,0,0-1.07,2.13c0,1.11.53,2,1.64,2,1.59,0,2.37-1.18,2.37-3.14Z"/><path d="M1730.93,90.49v-.34c0-1.06-.37-2-1.74-2-1,0-1.88.47-1.88,1.72,0,1,.46,1.44,1.86,1.93l1.69.59c2,.66,2.87,1.72,2.87,3.8,0,2.82-2.09,4-4.73,4-3.34,0-4.34-1.54-4.34-4.09v-.49H1727V96c0,1.55.52,2.36,2.06,2.36s2.16-.74,2.16-1.94a1.91,1.91,0,0,0-1.45-1.94l-2.16-.76c-2-.66-2.81-1.69-2.81-3.79,0-2.48,1.76-3.63,4.5-3.63,3.36,0,4.12,2,4.12,3.6v.59Z"/><path d="M1734.51,86.64h1.81V82.89H1739v3.75h2.15v2H1739v7.87c0,1,.29,1.4,1.2,1.4a4.8,4.8,0,0,0,.95-.08v2a8.44,8.44,0,0,1-2.13.22c-1.76,0-2.67-.51-2.67-3.18V88.6h-1.81Z"/><path d="M1744.26,86.64l2.28,9.9h0l2.1-9.9h2.77l-3.62,13.68c-1.06,3.6-1.87,4.09-4.61,4a5.26,5.26,0,0,1-1-.1v-2.11a3.53,3.53,0,0,0,.85.1c.91,0,1.5-.17,1.79-1l.35-1.08-3.75-13.48Z"/></g></svg>