<svg xmlns="http://www.w3.org/2000/svg" viewBox="0 0 1847.91 112"><title>bc1950text</title><g id="YEARS"><g id="Right"><path d="M1792.5,96.32V83h-3.82V81h.28c1.77,0,3.8-.45,4.35-2.76v-.36h2.15v18.4Z" fill="#3b4351"/><path d="M1803.55,92.22c0,1.06.52,2.39,2,2.39,2.79,0,2.94-3.64,2.94-6.35l-.08-.05a3.75,3.75,0,0,1-3.58,2c-2.53,0-4.55-1.82-4.55-5.48,0-4.24,1.71-6.76,5.64-6.76,4.65,0,5.54,3.53,5.54,8.81,0,5.51-1,10-5.88,10-3.25,0-5-1.43-5-4.47Zm2.1-12.22c-1.79,0-2.44,1.79-2.44,4,0,2.57.75,4,2.44,4,2.19,0,2.55-1.9,2.55-4.11S1807.4,80,1805.65,80Z" fill="#3b4351"/><path d="M1812.91,91.36h2.81v.49a2.35,2.35,0,0,0,2.41,2.6c2.08,0,2.63-2,2.63-4.18s-.57-3.93-2.47-3.93a2.36,2.36,0,0,0-2.42,1.69l-2.62-.1.91-9.65H1823v2.37h-6.65l-.6,4.83,0,0a4.06,4.06,0,0,1,3.09-1.43c3.85,0,4.81,3.25,4.81,6.09,0,3.69-1.69,6.5-5.66,6.5-3.31,0-5.15-1.69-5.15-4.94Z" fill="#3b4351"/><path d="M1830.8,77.92c3.53,0,5.51,2.21,5.51,9.38s-2,9.39-5.51,9.39-5.52-2.21-5.52-9.39S1827.26,77.92,1830.8,77.92Zm0,16.69c2,0,2.54-2,2.54-7.31s-.54-7.3-2.54-7.3-2.55,2-2.55,7.3S1828.79,94.61,1830.8,94.61Z" fill="#3b4351"/></g><g id="left"><path d="M17.46,98.23V84.87H13.64V82.94h.29c1.77,0,3.79-.44,4.34-2.75v-.37h2.16V98.23Z" fill="#3b4351"/><path d="M28.51,94.12c0,1.07.52,2.4,2,2.4,2.78,0,2.94-3.64,2.94-6.35l-.08,0a3.77,3.77,0,0,1-3.59,1.95c-2.52,0-4.55-1.82-4.55-5.49,0-4.24,1.72-6.76,5.64-6.76,4.66,0,5.54,3.54,5.54,8.82,0,5.51-1,10-5.87,10-3.25,0-5-1.43-5-4.48ZM30.62,81.9c-1.79,0-2.44,1.8-2.44,3.95,0,2.58.75,4,2.44,4,2.18,0,2.55-1.89,2.55-4.1S32.36,81.9,30.62,81.9Z" fill="#3b4351"/><path d="M37.87,93.27h2.81v.49a2.35,2.35,0,0,0,2.42,2.6c2.08,0,2.63-2,2.63-4.19s-.58-3.92-2.48-3.92a2.34,2.34,0,0,0-2.41,1.69l-2.63-.11.91-9.64H48v2.36H41.33l-.6,4.84.06,0A4,4,0,0,1,43.88,86c3.85,0,4.81,3.25,4.81,6.09,0,3.69-1.69,6.5-5.67,6.5-3.3,0-5.15-1.69-5.15-4.94Z" fill="#3b4351"/><path d="M55.76,79.82c3.54,0,5.51,2.21,5.51,9.39s-2,9.39-5.51,9.39-5.51-2.21-5.51-9.39S52.22,79.82,55.76,79.82Zm0,16.7c2,0,2.55-2,2.55-7.31s-.55-7.31-2.55-7.31-2.55,2-2.55,7.31S53.76,96.52,55.76,96.52Z" fill="#3b4351"/></g></g><g id="Nation_OUtlines" data-name="Nation OUtlines"><polygon id="Iranians" points="1263.29 2361 1235.95 2246.83 1211.95 2132.33 1241.29 2022.33 1280.62 1909.83 1217.95 1795 1163.29 1685.67 1140.62 1572.33 1175.95 1461.83 1153.29 1347 1137.95 1233.67 1188.62 1122.33 1153.95 1009.67 1161.95 896.83 1156.67 781.56 1152.84 664.33 1131.29 557.83 1198.62 447.33 1275.29 335.33 1277.29 221.67 1268.62 112 1283.88 0 1411.11 0 1445.69 111.56 1480.18 222.23 1462.18 335.33 1438.19 447.33 1387.19 557.83 1387.19 669.83 1420.19 784.76 1429.19 896.83 1400.69 1009.75 1417.19 1122.83 1343.69 1233.83 1325.69 1347.83 1345.19 1461.83 1313.69 1573.83 1298.69 1685.83 1310.69 1795.83 1348.19 1909.83 1313.69 2022.83 1285.19 2133.83 1294.19 2246.83 1372.19 2361 1373.74 2469.56 1375.34 2581.56 1376.98 2696.83 1335.62 2806.83 1348.62 2918.83 1391.1 3030.83 1462.62 3141.83 1440.62 3254.56 1447.62 3370.83 1472.62 3482.83 1505.62 3594.56 1513.62 3704.56 1437.62 3816.56 1391.82 3931.56 1219.62 3816.83 1086.62 3704.83 890.71 3594.56 788.62 3482.83 767.62 3370.83 866.62 3254.83 1041.62 3141.56 1176.62 3030.56 1205.62 2918.56 1242.62 2806.56 1294.62 2696.83 1322.62 2584 1240.62 2469.83 1263.29 2361" fill="none" stroke="#3b4351" stroke-miterlimit="10"/><polygon id="Indians" points="1372.19 2361 1294.19 2246.83 1285.19 2133.83 1313.69 2022.83 1348.19 1909.83 1310.69 1795.83 1298.69 1685.83 1313.69 1573.83 1345.19 1461.83 1325.69 1347.83 1343.69 1233.83 1417.19 1122.83 1400.69 1009.75 1429.19 896.83 1419.27 781.56 1387.19 669.83 1387.19 557.83 1438.19 447.33 1462.18 335.33 1480.18 222.29 1445.82 112 1411.11 0 1545.86 0 1580.1 112 1593.12 222.23 1552.12 335.33 1514.62 447.33 1514.12 557.5 1553.12 669.56 1548.12 781.83 1519.62 896.83 1534.12 1010.5 1575.12 1122.83 1559.62 1233.83 1564.12 1347.56 1534.62 1461.83 1486.12 1573.83 1465.12 1685.83 1471.12 1795 1502.12 1909 1508.12 2022.83 1534.62 2133.83 1542.77 2212.69 1555.62 2361 1554.62 2469.83 1567.12 2581.83 1542.12 2696.56 1498.12 2806.83 1490.62 2918.83 1513.12 3030.83 1568.62 3141.83 1544.12 3254.83 1530.62 3370.56 1523.62 3482.56 1532.62 3594.83 1565.12 3704.83 1543.62 3816.83 1514.12 3931.83 1490.12 4041.56 1495.62 4155.83 1517.12 4269.5 1528.12 4374.83 1580.62 4487.5 1578.12 4603.5 1578.12 4714 1560.12 4825.56 1526.62 4940.83 1467.62 5054.83 1381.62 5166.56 1270.62 5276.83 1090.12 5389.56 860.62 5497.83 1302.12 5612.83 1377.03 5724.83 1550.62 5837.83 1519.62 5947.66 1476.12 6060.66 1516.13 6174.66 1534.62 6287 1552.65 6397.66 1585.62 6511.56 1620.12 6626.66 1650.12 6737.66 1630.62 6845.56 1622.45 6962.56 1565.62 7073.66 1402.62 7187 1173.62 7299.66 1148.62 7410.66 1334.62 7525.66 1283.62 7639.66 1344.62 7748.66 1544.62 7861.66 1602.62 7976 1627.62 8087.66 1674.62 8200.56 1627.62 8315.66 1634.62 8427.66 1686.62 8539.66 1701.62 8652.66 1620.12 8764.66 1606.12 8875.66 1606.12 8989.49 1552.62 8989.49 1549.52 8875.66 1569.62 8764.66 1683.62 8652.66 1667.62 8539.66 1607.62 8427.66 1596.62 8315 1617.62 8200.66 1584.62 8087.66 1562.62 7975.66 1507.62 7861.66 1304.62 7748.56 1225.62 7639.56 1236.97 7602.61 1264.87 7525.66 1082.62 7410.66 1084.2 7300.17 1323.62 7187.66 1500.47 7073.56 1573.62 6962.66 1600.62 6845.66 1604.62 6737.66 1569.62 6626.66 1514.62 6511.66 1447.62 6397.56 1418.62 6285.66 1404.62 6174.66 1367.62 6060.66 1397.62 5947.66 1418.62 5837.56 1339.62 5724.56 1246.62 5612.83 748.62 5497.83 753.62 5389.83 910.76 5276.83 1053.62 5166.83 1195.2 5054.83 1311.62 4940 1353.62 4825.83 1348.62 4714.83 1364.62 4603 1406.62 4487.83 1401.62 4374.83 1429.62 4269.83 1394.62 4155.56 1393.2 4041.83 1391.82 3931.56 1437.52 3816.83 1513.62 3704.56 1505.64 3594.83 1472.62 3483 1447.62 3370.83 1440.63 3254.83 1462.62 3141.83 1391.1 3030.83 1348.62 2918.83 1332.62 2806.83 1376.98 2696.83 1375.34 2581.56 1373.74 2469.56 1372.19 2361" fill="none" stroke="#3b4351" stroke-miterlimit="10"/><polygon id="Huns" points="1555.62 2361 1545.73 2246.83 1533.62 2133.5 1506.68 2023.47 1502.16 1909.83 1471.34 1795.83 1465.12 1685.83 1486.12 1573.83 1534.62 1461.83 1564.05 1347.83 1559.62 1233.83 1575.12 1122.83 1534.24 1010.83 1519.62 896.83 1548.12 781.83 1553.11 669.83 1514.47 557.56 1514.62 445.33 1552.12 335.33 1593.12 222.67 1580.1 112 1545.86 0 1633.99 0 1651.62 112 1667.62 222.67 1646.62 335.33 1620.62 447.33 1630.4 555.43 1650.62 669.5 1676.62 781.83 1700.12 896.83 1689.12 1010.83 1714.62 1122.5 1697.12 1233.56 1645.62 1347.56 1616.12 1461.83 1586.62 1573.56 1538.12 1685.56 1509.12 1795.83 1551.62 1909.83 1585.12 2022.83 1608.62 2133.5 1609.69 2246.56 1610.76 2359.56 1613.62 2469.56 1625.12 2581.56 1599.12 2697.5 1557.59 2806.83 1545.65 2918.83 1558.62 3030.83 1584.62 3141.56 1571.12 3255 1576.62 3370.83 1567.62 3482.83 1587.12 3594.83 1621.12 3704.83 1612.12 3816.83 1556.12 3931.83 1528.62 4041.83 1529.62 4155.83 1553.62 4269.83 1616.07 4374.83 1609.25 4487.83 1592.66 4603.83 1611.01 4714.56 1612.12 4825.83 1598.04 4940.83 1564.12 5054.83 1534.29 5166.83 1602.12 5276.56 1653.62 5389.83 1673.62 5497.83 1666.12 5612.83 1668.12 5724.5 1625.62 5837.5 1542.12 5947.66 1476.12 6060.66 1519.62 5947.66 1550.62 5837.83 1376.62 5724.56 1302.12 5612.83 860.62 5497.83 1090.12 5389.56 1270.62 5276.83 1381.62 5166.56 1467.62 5054.83 1526.62 4940.83 1560.12 4825.56 1578.12 4714 1578.12 4603.5 1580.62 4487.5 1528.12 4374.83 1517.12 4269.5 1495.62 4155.83 1490.12 4041.56 1514.12 3931.83 1543.62 3816.83 1565.12 3704.83 1532.62 3594.83 1523.62 3482.56 1530.62 3370.56 1544.12 3254.83 1568.62 3141.83 1513.12 3030.83 1490.62 2918.83 1498.12 2806.83 1542.12 2696.56 1567.12 2581.83 1554.62 2469.83 1555.62 2361" fill="none" stroke="#3b4351" stroke-miterlimit="10"/><polygon id="Hitites" points="347.74 2359.56 337.24 2246.83 361.62 2133.83 400.62 2022.83 439.62 1909.83 658.62 1795.83 742.62 1685.83 835.62 1573.83 785.62 1461.83 750.62 1347.83 770.62 1233.83 800.62 1122 733.62 1010.56 656.62 896.75 662.62 781.83 633.62 669.83 663.62 557.83 786.62 447.33 940.62 335.33 982.62 222.67 1042.62 112 1103.77 0 1152.07 0 1091.29 112 1025.29 222.67 1027.29 335.33 910.76 447.33 823.95 557.83 785.95 669.83 826.62 781.83 853.28 896.83 910.76 1010.56 992.62 1122.83 961.95 1233 971.95 1347.67 969.28 1461.83 975.28 1573.67 954.62 1683.67 857.28 1795.83 623.95 1909.83 566.62 2022.83 481.23 2133.83 394.24 2246.83 347.74 2359.56" fill="none" stroke="#3b4351" stroke-miterlimit="10"/><polygon id="Egyptians" points="1195.2 4485.14 1131.14 4374.83 1168.66 4269.92 1099.2 4155.56 910.76 4041.56 897.95 3931 965.95 3816.83 965.28 3704.33 761.95 3594.83 645.95 3482.83 527.28 3370.83 401.29 3254.83 349.95 3141.83 319.29 3030.83 259.95 2918.83 262.62 2806.83 238.62 2696.83 217.95 2581.83 199.95 2469.83 228.62 2359.83 221.62 2246.83 250.62 2133.83 251.62 2022.83 223.25 1909.83 271.57 1795.83 265.25 1685.83 305.74 1573.83 341.74 1461.83 376.24 1347.83 440.74 1233.83 467.73 1123.74 443.74 1010.83 381.96 896.83 242.75 781.83 298.62 669.83 424.24 557.83 460.24 447.33 397.24 335.33 319.24 222.67 319.24 112 298.62 0 1103.77 0 1042.62 112 982.62 222.67 940.62 335.33 786.62 447.33 663.62 557.83 633.62 669.83 662.62 781.83 656.62 896.75 733.62 1010.56 800.62 1122 770.62 1233.83 750.62 1347.83 785.62 1461.83 835.62 1573.83 742.62 1685.83 658.62 1795.83 439.62 1909.83 400.62 2022.83 361.62 2133.83 302.62 2246.83 310.62 2359.83 282.62 2469.83 271.95 2581.83 305.95 2806.83 323.95 2918.33 432.62 3030.83 476.62 3141 451.95 3254.83 555.95 3370.83 667.28 3482.83 813.28 3594.83 968.62 3704.83 995.95 3816.83 968.62 3931.67 940.62 4040.33 1130.91 4155.56 1189.62 4270.5 1157.7 4374.83 1195.2 4485.14" fill="none" stroke="#3b4351" stroke-miterlimit="10"/><polygon id="Chinese" points="1610.76 2359.56 1609.69 2246.56 1608.62 2133.5 1585.12 2022.83 1551.62 1909.83 1509.12 1795.83 1538.12 1685.56 1586.62 1573.56 1616.12 1461.83 1645.62 1347.56 1697.12 1233.56 1714.62 1122.5 1689.12 1010.83 1700.12 896.83 1676.62 781.83 1650.62 669.5 1630.62 557.83 1620.62 447.33 1646.62 335.33 1667.62 222.67 1651.62 112 1633.99 0 1768.79 0 1768.79 8200.66 1768.79 8315.56 1766.12 8427.66 1757.62 8539.66 1736.12 8652.56 1676.12 8764.56 1661.12 8875.66 1663.62 8989.49 1606.12 8989.49 1606.12 8875.56 1620.12 8764.66 1701.62 8652.66 1696.12 8539.5 1654.12 8427.66 1681.62 8315.66 1739.62 8200.56 1748.62 8087.5 1744.12 7975.5 1685.62 7861.66 1615.12 7751 1636.12 7639.66 1738.62 7525.66 1761.12 7410.66 1758.62 7299.66 1732.12 7187.66 1695.62 7073.66 1667.62 6962.66 1651.12 6845.66 1650.12 6737.66 1620.12 6626.66 1585.62 6511.56 1552.62 6397.56 1535.12 6285.66 1516.12 6174.56 1476.12 6060.66 1542.12 5947.66 1625.62 5837.5 1668.12 5724.5 1666.12 5612.83 1673.62 5497.83 1653.62 5389.83 1602.12 5276.56 1534.12 5166.56 1564.12 5054.83 1598.12 4940.56 1612.12 4825.83 1611.01 4714.56 1592.62 4603.56 1609.25 4487.83 1616.07 4374.83 1553.62 4269.83 1529.62 4155.83 1528.62 4041.56 1555.62 3931.83 1612.12 3816.83 1621.12 3704.83 1587.12 3594.83 1567.62 3482.83 1576.62 3370.83 1571.12 3254.83 1584.62 3141.56 1558.62 3030.83 1545.62 2918.56 1557.62 2806.56 1599.62 2696.83 1625.12 2581.56 1613.62 2469.56 1610.76 2359.56" fill="none" stroke="#3b4351" stroke-miterlimit="10"/><polygon id="Amorites" points="1263.29 2361 1240.62 2469.83 1322.62 2581.83 1294.62 2696.83 1242.62 2806.56 1205.62 2918.56 1176.62 3030.56 1041.62 3141.56 866.62 3254.83 767.62 3370.83 788.62 3482.83 890.71 3594.56 762.62 3482.56 716.62 3370.56 709.62 3254.83 755.62 3141.83 1054.29 3030.56 1156.62 2918.83 1173.62 2805 1199.62 2695 1138.62 2581.83 910.76 2469.83 832.62 2359.56 949.95 2246.83 1040.62 2133.56 1141.31 2022.83 1225.29 1909.67 1147.62 1795.83 1085.29 1685.83 1061.29 1573.56 1028.62 1461.56 971.95 1347.67 961.95 1233 992.62 1122.83 910.76 1010.56 853.28 896.83 826.62 781.83 785.95 669.83 823.95 557.83 910.76 447.33 1027.29 335.33 1025.29 222.67 1091.29 112 1152.07 0 1283.88 0 1268.62 112 1277.29 221.67 1275.29 335.33 1198.62 447.33 1131.29 557.83 1153.95 669.83 1156.67 781.56 1161.95 896.83 1153.95 1009.67 1188.62 1122.33 1137.95 1233.67 1153.29 1347 1175.95 1461.83 1140.62 1572.33 1163.29 1685.67 1217.95 1795 1280.62 1909.83 1241.29 2022.33 1211.95 2132.33 1235.95 2246.83 1263.29 2361" fill="none" stroke="#3b4351" stroke-miterlimit="10"/><polygon id="Aegeans" points="223.25 1909.83 202.25 1795.83 172.25 1685.83 155.75 1573.83 145.25 1461.83 142.25 1347.83 75.42 1233.83 75.42 0 298.62 0 319.24 112 319.24 222.67 397.24 335.33 460.24 447.33 424.24 557.83 298.62 669.83 242.75 781.83 381.96 896.83 443.74 1010.83 467.73 1123.74 440.74 1233.83 376.24 1347.83 341.74 1461.83 305.74 1573.83 265.25 1685.83 271.57 1795.83 223.25 1909.83" fill="none" stroke="#3b4351" stroke-miterlimit="10"/></g><g id="Text"><g id="Indians-2" data-name="Indians"><path d="M1449.64,15a20.65,20.65,0,0,0-2.8,11,21.38,21.38,0,0,0,2.8,11h-1.89a18.71,18.71,0,0,1,0-22Z" fill="#3b4351"/><path d="M1451.08,15h2.79v7H1459V15h2.79V32.49H1459V24.36h-5.15v8.13h-2.79Z" fill="#3b4351"/><path d="M1464.65,14.8h2.65v2.65h-2.65Zm0,4.51h2.65V32.49h-2.65Z" fill="#3b4351"/><path d="M1470,19.31h2.5v1.54h.07a3.78,3.78,0,0,1,3.38-1.88c2,0,3.29.9,3.29,3.57v10h-2.65v-9c0-1.76-.46-2.38-1.84-2.38-1.08,0-2.1.81-2.1,2.58v8.84H1470Z" fill="#3b4351"/><path d="M1488.49,30.88h0a2.82,2.82,0,0,1-2.89,2c-3.06,0-4.31-2.6-4.31-7.11,0-5.86,2.06-6.76,4.07-6.76a3.06,3.06,0,0,1,3,1.88h0V15H1491V32.49h-2.5Zm-2.4-9.81c-1.49,0-2.06,1.23-2.06,4.78,0,3,.37,4.88,2.23,4.88s2.23-1.84,2.23-4.68C1488.49,22.89,1488.15,21.07,1486.09,21.07Z" fill="#3b4351"/><path d="M1500.28,31h-.08a3.79,3.79,0,0,1-3.38,1.89c-2,0-3.28-.91-3.28-4.32V19.31h2.64v9.46c0,1.47.64,2,1.79,2a2.06,2.06,0,0,0,2.16-2.21V19.31h2.65V32.49h-2.5Z" fill="#3b4351"/><path d="M1511,23.16v-.35c0-1-.37-2-1.74-2-1.06,0-1.89.46-1.89,1.71,0,1.06.47,1.45,1.86,1.94l1.69.59c2,.66,2.87,1.71,2.87,3.8,0,2.81-2.08,4-4.73,4-3.33,0-4.34-1.55-4.34-4.1v-.49h2.36v.42c0,1.54.51,2.35,2.05,2.35s2.16-.73,2.16-1.93a1.91,1.91,0,0,0-1.45-1.94l-2.15-.76c-2-.66-2.82-1.69-2.82-3.8,0-2.47,1.76-3.62,4.51-3.62,3.36,0,4.12,2,4.12,3.6v.59Z" fill="#3b4351"/><path d="M1514.48,37a20.68,20.68,0,0,0,2.8-11,21.38,21.38,0,0,0-2.8-11h1.89a18.71,18.71,0,0,1,0,22Z" fill="#3b4351"/></g><g id="Hittites"><g id="small"><path d="M1110.4,11.36h1.6v10h-1.6Z" fill="#3b4351"/><path d="M1113.48,13.82h1.43v.89h0a2.13,2.13,0,0,1,1.93-1.08c1.15,0,1.88.52,1.88,2v5.69h-1.52V16.19c0-1-.26-1.36-1-1.36-.61,0-1.2.47-1.2,1.47v5.06h-1.52Z" fill="#3b4351"/><path d="M1124.07,20.44h0a1.61,1.61,0,0,1-1.65,1.12c-1.75,0-2.47-1.49-2.47-4.07,0-3.34,1.18-3.86,2.33-3.86a1.73,1.73,0,0,1,1.71,1.08h0V11.36h1.51v10h-1.43Zm-1.37-5.61c-.86,0-1.18.7-1.18,2.73,0,1.71.21,2.79,1.28,2.79s1.27-1.05,1.27-2.67C1124.07,15.87,1123.87,14.83,1122.7,14.83Z" fill="#3b4351"/><path d="M1126.66,17.59c0-2.35.61-4,2.8-4s2.82,1.61,2.82,4-.73,4-2.82,4S1126.66,20,1126.66,17.59Zm2.8,2.85c1.11,0,1.3-.93,1.3-2.85,0-1.66-.19-2.84-1.3-2.84s-1.29,1.18-1.29,2.84C1128.17,19.51,1128.38,20.44,1129.46,20.44Z" fill="#3b4351"/><path d="M1133.34,16.6H1137V18h-3.67Z" fill="#3b4351"/><path d="M1083.86,30.36h5.41V31.7h-3.81v2.78h3.59v1.34h-3.59V39h3.92v1.34h-5.52Z" fill="#3b4351"/><path d="M1094.35,39.48h0a2.17,2.17,0,0,1-1.93,1.08c-1.12,0-1.88-.52-1.88-2.47V32.82H1092v5.41c0,.84.37,1.12,1,1.12a1.18,1.18,0,0,0,1.24-1.26V32.82h1.51v7.54h-1.43Z" fill="#3b4351"/><path d="M1097.23,32.82h1.52V34h0a1.87,1.87,0,0,1,1.75-1.37.94.94,0,0,1,.37,0v1.55a1.87,1.87,0,0,0-.63-.09c-.69,0-1.51.31-1.51,1.71v4.51h-1.52Z" fill="#3b4351"/><path d="M1101.35,36.59c0-2.35.61-4,2.8-4s2.82,1.61,2.82,4-.73,4-2.82,4S1101.35,39,1101.35,36.59Zm2.8,2.85c1.11,0,1.3-.93,1.3-2.85,0-1.66-.19-2.84-1.3-2.84s-1.29,1.18-1.29,2.84C1102.86,38.51,1103.07,39.44,1104.15,39.44Z" fill="#3b4351"/><path d="M1111.37,40.56a1.74,1.74,0,0,1-1.71-1.08h0v3.35h-1.52v-10h1.43v.93h0a1.78,1.78,0,0,1,1.7-1.12c1.72,0,2.42,1.47,2.42,4.06C1113.7,39.86,1112.42,40.56,1111.37,40.56Zm-.54-6.73c-1,0-1.28,1.05-1.28,2.68,0,1.81.23,2.84,1.29,2.84.86,0,1.26-.64,1.26-2.73C1112.1,34.91,1111.89,33.83,1110.83,33.83Z" fill="#3b4351"/><path d="M1116.16,36.79v.43c0,1,.13,2.3,1.26,2.3s1.21-1.22,1.21-1.68h1.43a2.48,2.48,0,0,1-2.65,2.72c-1.24,0-2.76-.37-2.76-3.86,0-2,.43-4.07,2.78-4.07,2.11,0,2.67,1.27,2.67,3.36v.8Zm2.42-1v-.4c0-1-.3-1.69-1.16-1.69s-1.26,1-1.26,1.94v.15Z" fill="#3b4351"/><path d="M1126.28,38.79c0,.28.17.53.4.53a.57.57,0,0,0,.25,0v1a1.58,1.58,0,0,1-.74.18c-.68,0-1.24-.26-1.28-1h0a1.94,1.94,0,0,1-1.87,1.11c-1.22,0-2-.66-2-2.12a2.08,2.08,0,0,1,1.75-2.37l1.17-.32c.55-.15.89-.31.89-1s-.24-1.13-1-1.13c-1,0-1.15.72-1.15,1.45h-1.43c0-1.61.66-2.48,2.65-2.48,1.33,0,2.39.52,2.39,1.85Zm-1.42-2.41a11.23,11.23,0,0,1-1.68.7,1.23,1.23,0,0,0-.62,1.22c0,.63.31,1.14.94,1.14.91,0,1.36-.68,1.36-1.8Z" fill="#3b4351"/><path d="M1127.82,32.82h1.43v.89h0a2.16,2.16,0,0,1,1.94-1.08c1.14,0,1.87.52,1.87,2v5.69h-1.51V35.19c0-1-.27-1.36-1-1.36-.62,0-1.21.47-1.21,1.47v5.06h-1.51Z" fill="#3b4351"/><path d="M1137.81,35v-.19c0-.6-.21-1.17-1-1.17-.6,0-1.08.27-1.08,1s.27.82,1.07,1.1l1,.34a2,2,0,0,1,1.64,2.17c0,1.61-1.19,2.3-2.7,2.3-1.91,0-2.48-.89-2.48-2.34v-.28h1.34v.24c0,.88.3,1.34,1.18,1.34s1.23-.42,1.23-1.11a1.09,1.09,0,0,0-.82-1.1l-1.24-.44a2,2,0,0,1-1.61-2.17c0-1.41,1-2.07,2.58-2.07,1.92,0,2.35,1.12,2.35,2.06V35Z" fill="#3b4351"/><path d="M1081,49.36h1.6v4h2.94v-4h1.6v10h-1.6V54.71h-2.94v4.65H1081Z" fill="#3b4351"/><path d="M1088.71,49.25h1.51v1.51h-1.51Zm0,2.57h1.51v7.54h-1.51Z" fill="#3b4351"/><path d="M1091.07,51.82h1V49.68h1.51v2.14h1.24V53h-1.24v4.49c0,.6.17.8.69.8a2.81,2.81,0,0,0,.55,0v1.12a5.23,5.23,0,0,1-1.22.12c-1,0-1.53-.29-1.53-1.82V53h-1Z" fill="#3b4351"/><path d="M1095,51.82h1V49.68h1.52v2.14h1.23V53h-1.23v4.49c0,.6.16.8.68.8a2.75,2.75,0,0,0,.55,0v1.12a5.17,5.17,0,0,1-1.22.12c-1,0-1.53-.29-1.53-1.82V53h-1Z" fill="#3b4351"/><path d="M1099.6,49.25h1.51v1.51h-1.51Zm0,2.57h1.51v7.54h-1.51Z" fill="#3b4351"/><path d="M1102,51.82h1V49.68h1.52v2.14h1.23V53h-1.23v4.49c0,.6.16.8.68.8a2.75,2.75,0,0,0,.55,0v1.12a5.17,5.17,0,0,1-1.22.12c-1,0-1.53-.29-1.53-1.82V53h-1Z" fill="#3b4351"/><path d="M1107.83,55.79v.43c0,1,.13,2.3,1.27,2.3s1.2-1.22,1.2-1.68h1.43a2.48,2.48,0,0,1-2.65,2.72c-1.23,0-2.76-.37-2.76-3.86,0-2,.44-4.07,2.79-4.07,2.1,0,2.66,1.27,2.66,3.36v.8Zm2.43-1v-.4c0-1-.31-1.69-1.16-1.69s-1.27,1-1.27,1.94v.15Z" fill="#3b4351"/><path d="M1116.26,54v-.19c0-.6-.21-1.17-1-1.17-.6,0-1.08.27-1.08,1s.27.82,1.06,1.1l1,.34a2,2,0,0,1,1.64,2.17c0,1.61-1.19,2.3-2.7,2.3-1.91,0-2.48-.89-2.48-2.34v-.28H1114v.24c0,.88.3,1.34,1.18,1.34s1.23-.42,1.23-1.11a1.09,1.09,0,0,0-.83-1.1l-1.23-.44a2,2,0,0,1-1.61-2.17c0-1.41,1-2.07,2.58-2.07,1.92,0,2.35,1.12,2.35,2.06V54Z" fill="#3b4351"/><path d="M1062.16,87.36a11.81,11.81,0,0,0-1.6,6.29,12.23,12.23,0,0,0,1.6,6.29h-1.08a10.7,10.7,0,0,1,0-12.58Z" fill="#3b4351"/><path d="M1063,87.36h1.6v4h2.94v-4h1.6v10h-1.6V92.71h-2.94v4.65H1063Z" fill="#3b4351"/><path d="M1075.61,95.79c0,.28.17.53.39.53a.59.59,0,0,0,.26,0v1a1.63,1.63,0,0,1-.75.18c-.67,0-1.23-.26-1.27-1h0a2,2,0,0,1-1.88,1.11c-1.21,0-2-.66-2-2.12a2.09,2.09,0,0,1,1.75-2.37l1.18-.32c.55-.15.88-.31.88-1s-.24-1.12-1-1.12c-1,0-1.15.71-1.15,1.44h-1.43c0-1.61.66-2.48,2.65-2.48,1.33,0,2.39.52,2.39,1.85Zm-1.43-2.41a11.23,11.23,0,0,1-1.68.7,1.24,1.24,0,0,0-.61,1.22c0,.63.3,1.14.93,1.14.91,0,1.36-.68,1.36-1.8Z" fill="#3b4351"/><path d="M1076.48,89.82h1V87.68H1079v2.14h1.23V91H1079v4.49c0,.6.16.8.68.8a2.75,2.75,0,0,0,.55,0v1.12a5.17,5.17,0,0,1-1.22.12c-1,0-1.53-.29-1.53-1.82V91h-1Z" fill="#3b4351"/><path d="M1080.37,89.82h1V87.68h1.51v2.14h1.23V91h-1.23v4.49c0,.6.17.8.68.8a2.75,2.75,0,0,0,.55,0v1.12a5.17,5.17,0,0,1-1.22.12c-1,0-1.52-.29-1.52-1.82V91h-1Z" fill="#3b4351"/><path d="M1085,87.25h1.52v1.51H1085Zm0,2.57h1.52v7.54H1085Z" fill="#3b4351"/><path d="M1087.31,99.94a11.84,11.84,0,0,0,1.6-6.29,12.23,12.23,0,0,0-1.6-6.29h1.08a10.7,10.7,0,0,1,0,12.58Z" fill="#3b4351"/></g></g><g id="Egytians"><g id="large-2" data-name="large"><path d="M539.53,50.5h4.36l3.09,13h0l3-13h4.26V68h-2.65V53.44h0L548.11,68h-2.36l-3.53-14.55h-.05V68h-2.64Z" fill="#3b4351"/><path d="M557.17,50.3h2.64V53h-2.64Zm0,4.51h2.64V68h-2.64Z" fill="#3b4351"/><path d="M569.22,66.38h-.05a2.82,2.82,0,0,1-2.89,2c-3.06,0-4.31-2.6-4.31-7.11,0-5.86,2.06-6.76,4.07-6.76a3.06,3.06,0,0,1,3,1.88h.05V50.5h2.64V68h-2.5Zm-2.4-9.81c-1.49,0-2.06,1.23-2.06,4.78,0,3,.37,4.88,2.23,4.88s2.23-1.84,2.23-4.68C569.22,58.39,568.88,56.57,566.82,56.57Z" fill="#3b4351"/><path d="M581,66.38h0a2.83,2.83,0,0,1-2.89,2c-3.07,0-4.32-2.6-4.32-7.11,0-5.86,2.06-6.76,4.07-6.76a3,3,0,0,1,3,1.88h.05V50.5h2.65V68H581Zm-2.4-9.81c-1.5,0-2.06,1.23-2.06,4.78,0,3,.36,4.88,2.23,4.88S581,64.39,581,61.55C581,58.39,580.66,56.57,578.61,56.57Z" fill="#3b4351"/><path d="M586.17,50.5h2.65V68h-2.65Z" fill="#3b4351"/><path d="M593.77,61.74v.76c0,1.77.22,4,2.21,4s2.1-2.13,2.1-2.94h2.5c0,3-1.76,4.76-4.63,4.76-2.16,0-4.83-.64-4.83-6.74,0-3.46.76-7.13,4.88-7.13,3.68,0,4.66,2.23,4.66,5.88v1.39ZM598,59.93v-.71c0-1.67-.54-2.94-2-2.94-1.67,0-2.21,1.67-2.21,3.38v.27Z" fill="#3b4351"/><path d="M608.89,50.5h9.45v2.35h-6.66V57.7H618v2.35h-6.27v5.59h6.86V68h-9.65Z" fill="#3b4351"/><path d="M623.14,69.12a1.73,1.73,0,0,0,1.92,1.57,2.19,2.19,0,0,0,2.23-2.48V66.08h0a3.19,3.19,0,0,1-3,1.81c-3.07,0-4-3-4-6.64,0-2.89.44-6.78,4.19-6.78a2.9,2.9,0,0,1,2.89,2h0V54.81h2.5V67.36c0,3.21-1.37,5.14-4.92,5.14-3.92,0-4.37-2.3-4.37-3.38ZM625,65.79c2.06,0,2.28-2.6,2.28-4.68s-.27-4.54-2.11-4.54S623,58.53,623,61C623,63.24,623.05,65.79,625,65.79Z" fill="#3b4351"/><path d="M634.05,54.81l2.28,9.9h0l2.11-9.9h2.77l-3.63,13.67c-1,3.61-1.86,4.1-4.6,4a4.76,4.76,0,0,1-1.06-.1V70.3a3.65,3.65,0,0,0,.86.09c.91,0,1.5-.17,1.79-1l.34-1.08L631.2,54.81Z" fill="#3b4351"/><path d="M648.4,68.34a3,3,0,0,1-3-1.89h0v5.86h-2.65V54.81h2.5v1.62h0a3.1,3.1,0,0,1,3-2c3,0,4.24,2.57,4.24,7.1C652.47,67.11,650.24,68.34,648.4,68.34Zm-.95-11.77c-1.81,0-2.23,1.84-2.23,4.68,0,3.17.39,5,2.25,5,1.5,0,2.21-1.13,2.21-4.78C649.68,58.46,649.31,56.57,647.45,56.57Z" fill="#3b4351"/><path d="M653.33,54.81h1.81V51.06h2.65v3.75h2.15v2h-2.15v7.87c0,1,.29,1.39,1.2,1.39a4.91,4.91,0,0,0,1-.07v2a8.44,8.44,0,0,1-2.13.22c-1.76,0-2.67-.51-2.67-3.19V56.77h-1.81Z" fill="#3b4351"/><path d="M661.44,50.3h2.64V53h-2.64Zm0,4.51h2.64V68h-2.64Z" fill="#3b4351"/><path d="M675.4,65.25c0,.49.3.93.69.93a1.18,1.18,0,0,0,.44-.07v1.71a2.83,2.83,0,0,1-1.3.32c-1.17,0-2.15-.47-2.23-1.74h0a3.4,3.4,0,0,1-3.28,1.94c-2.13,0-3.43-1.16-3.43-3.7,0-3,1.3-3.56,3.06-4.15l2.06-.56c1-.27,1.54-.54,1.54-1.69s-.41-2-1.81-2c-1.76,0-2,1.25-2,2.52h-2.5c0-2.82,1.15-4.33,4.63-4.33,2.33,0,4.19.9,4.19,3.23ZM672.9,61A20,20,0,0,1,670,62.26a2.17,2.17,0,0,0-1.08,2.13c0,1.1.54,2,1.65,2,1.59,0,2.37-1.18,2.37-3.14Z" fill="#3b4351"/><path d="M678.1,54.81h2.5v1.54h.07a3.78,3.78,0,0,1,3.38-1.88c2,0,3.28.9,3.28,3.57V68h-2.64V59c0-1.76-.47-2.38-1.84-2.38-1.08,0-2.11.81-2.11,2.58V68H678.1Z" fill="#3b4351"/><path d="M695.93,50.5h5.54c3.36,0,4.83,2.1,4.83,5.09s-1.87,5.17-5.12,5.17h-2.45V68h-2.8Zm2.8,8.16h2c1.49,0,2.79-.79,2.79-3,0-1.89-.76-3-3-3h-1.78Z" fill="#3b4351"/><path d="M710.29,61.74v.76c0,1.77.22,4,2.2,4s2.11-2.13,2.11-2.94h2.5c0,3-1.76,4.76-4.63,4.76-2.16,0-4.83-.64-4.83-6.74,0-3.46.76-7.13,4.88-7.13,3.67,0,4.66,2.23,4.66,5.88v1.39Zm4.24-1.81v-.71c0-1.67-.54-2.94-2-2.94-1.66,0-2.2,1.67-2.2,3.38v.27Z" fill="#3b4351"/><path d="M719.35,54.81H722v2.06h0a3.26,3.26,0,0,1,3.06-2.4,1.61,1.61,0,0,1,.64.09v2.7a3.84,3.84,0,0,0-1.1-.15c-1.2,0-2.65.54-2.65,3V68h-2.65Z" fill="#3b4351"/><path d="M727.19,50.3h2.65V53h-2.65Zm0,4.51h2.65V68h-2.65Z" fill="#3b4351"/><path d="M732,61.4c0-4.12,1.08-6.93,4.91-6.93s4.92,2.81,4.92,6.93-1.27,6.94-4.92,6.94S732,65.52,732,61.4Zm4.91,5c1.93,0,2.27-1.62,2.27-5,0-2.92-.34-5-2.27-5s-2.26,2-2.26,5C734.64,64.76,735,66.38,736.9,66.38Z" fill="#3b4351"/><path d="M750.59,66.38h-.05a2.83,2.83,0,0,1-2.89,2c-3.06,0-4.31-2.6-4.31-7.11,0-5.86,2.06-6.76,4.07-6.76a3.06,3.06,0,0,1,3,1.88h0V50.5h2.65V68h-2.5Zm-2.4-9.81c-1.49,0-2.06,1.23-2.06,4.78,0,3,.37,4.88,2.23,4.88s2.23-1.84,2.23-4.68C750.59,58.39,750.25,56.57,748.19,56.57Z" fill="#3b4351"/></g><g id="small-2" data-name="small"><path d="M335,13.41h5.41v1.35h-3.81v2.77h3.58v1.35h-3.58v3.19h3.92v1.34H335Z" fill="#3b4351"/><path d="M343.18,24.06a1,1,0,0,0,1.09.89,1.24,1.24,0,0,0,1.27-1.41V22.32h0a1.82,1.82,0,0,1-1.71,1c-1.75,0-2.26-1.72-2.26-3.8,0-1.65.25-3.88,2.4-3.88a1.67,1.67,0,0,1,1.65,1.12h0v-.92h1.43v7.17c0,1.83-.79,2.94-2.82,2.94-2.24,0-2.49-1.32-2.49-1.93Zm1.06-1.91c1.18,0,1.3-1.48,1.3-2.67s-.15-2.59-1.2-2.59-1.27,1.12-1.27,2.52S343.12,22.15,344.24,22.15Z" fill="#3b4351"/><path d="M349.41,15.88l1.3,5.66h0l1.2-5.66h1.58l-2.07,7.81c-.6,2.06-1.06,2.34-2.63,2.3a3,3,0,0,1-.6,0V24.73a2,2,0,0,0,.49.06c.51,0,.85-.1,1-.59l.2-.62-2.15-7.7Z" fill="#3b4351"/><path d="M357.61,23.61a1.74,1.74,0,0,1-1.71-1.08h0v3.35h-1.51v-10h1.43v.92h0a1.78,1.78,0,0,1,1.69-1.12c1.73,0,2.43,1.47,2.43,4.06C359.94,22.91,358.66,23.61,357.61,23.61Zm-.54-6.72c-1,0-1.28,1.05-1.28,2.67,0,1.81.23,2.85,1.29,2.85.85,0,1.26-.65,1.26-2.74C358.34,18,358.13,16.89,357.07,16.89Z" fill="#3b4351"/><path d="M360.42,15.88h1V13.73H363v2.15h1.24V17H363v4.5c0,.6.17.79.69.79a2.81,2.81,0,0,0,.55,0v1.12a4.69,4.69,0,0,1-1.22.13c-1,0-1.53-.3-1.53-1.82V17h-1Z" fill="#3b4351"/><path d="M365.06,13.3h1.51v1.51h-1.51Zm0,2.58h1.51v7.53h-1.51Z" fill="#3b4351"/><path d="M373,21.85c0,.28.17.53.39.53a.72.72,0,0,0,.25,0v1a1.68,1.68,0,0,1-.74.18c-.67,0-1.23-.27-1.27-1h0a1.94,1.94,0,0,1-1.88,1.11c-1.22,0-2-.66-2-2.11a2.07,2.07,0,0,1,1.75-2.37l1.18-.32c.55-.16.88-.31.88-1s-.24-1.12-1-1.12c-1,0-1.15.71-1.15,1.44H368c0-1.61.66-2.48,2.65-2.48,1.33,0,2.39.52,2.39,1.85Zm-1.43-2.41a13.82,13.82,0,0,1-1.68.7,1.23,1.23,0,0,0-.62,1.21c0,.64.31,1.14.94,1.14.91,0,1.36-.67,1.36-1.79Z" fill="#3b4351"/><path d="M374.58,15.88H376v.88h0A2.17,2.17,0,0,1,378,15.68c1.15,0,1.88.52,1.88,2.05v5.68h-1.51V18.25c0-1-.27-1.36-1.05-1.36-.62,0-1.21.46-1.21,1.47v5.05h-1.51Z" fill="#3b4351"/><path d="M384.56,18.08v-.2c0-.6-.21-1.16-1-1.16-.61,0-1.08.26-1.08,1s.26.83,1.06,1.11l1,.33a2,2,0,0,1,1.64,2.17c0,1.61-1.19,2.3-2.71,2.3-1.9,0-2.47-.88-2.47-2.34V21h1.34v.24c0,.88.29,1.34,1.18,1.34s1.23-.42,1.23-1.1a1.09,1.09,0,0,0-.83-1.11l-1.23-.43a2,2,0,0,1-1.61-2.17c0-1.42,1-2.08,2.58-2.08,1.92,0,2.35,1.12,2.35,2.06v.34Z" fill="#3b4351"/><path d="M390.64,13.41h1.51v3.28l0,0a2.14,2.14,0,0,1,1.85-1c1.15,0,1.88.52,1.88,2.05v5.68H394.4V18.25c0-1-.28-1.36-1-1.36-.61,0-1.2.47-1.2,1.47v5.05h-1.51Z" fill="#3b4351"/><path d="M402.31,21.85c0,.28.17.53.4.53a.76.76,0,0,0,.25,0v1a1.71,1.71,0,0,1-.74.18c-.68,0-1.24-.27-1.28-1h0A1.93,1.93,0,0,1,399,23.61c-1.22,0-2-.66-2-2.11a2.07,2.07,0,0,1,1.75-2.37l1.17-.32c.55-.16.89-.31.89-1s-.24-1.12-1-1.12c-1,0-1.15.71-1.15,1.44h-1.43c0-1.61.66-2.48,2.65-2.48,1.33,0,2.39.52,2.39,1.85Zm-1.42-2.41a13.32,13.32,0,0,1-1.69.7,1.23,1.23,0,0,0-.61,1.21c0,.64.31,1.14.94,1.14.91,0,1.36-.67,1.36-1.79Z" fill="#3b4351"/><path d="M403.14,15.88h1.62l1.32,5.94h0l1.19-5.94h1.61l-2,7.53h-1.77Z" fill="#3b4351"/><path d="M411,19.84v.44c0,1,.13,2.29,1.26,2.29s1.21-1.22,1.21-1.68h1.43a2.48,2.48,0,0,1-2.65,2.72c-1.23,0-2.76-.36-2.76-3.85,0-2,.44-4.08,2.79-4.08,2.1,0,2.66,1.28,2.66,3.36v.8Zm2.43-1V18.4c0-.95-.31-1.68-1.17-1.68s-1.26,1-1.26,1.93v.16Z" fill="#3b4351"/><path d="M419.57,13.41h1.52v3.35h0a1.75,1.75,0,0,1,1.71-1.08c1.15,0,2.33.52,2.33,3.87,0,2.59-.72,4.06-2.47,4.06A1.61,1.61,0,0,1,421,22.49h0v.92h-1.43Zm2.71,9c1.06,0,1.27-1.08,1.27-2.79,0-2-.32-2.73-1.18-2.73-1.17,0-1.37,1-1.37,2.84C421,21.35,421.24,22.41,422.28,22.41Z" fill="#3b4351"/><path d="M427.15,15.88l1.3,5.66h0l1.2-5.66h1.59l-2.08,7.81c-.6,2.06-1.06,2.34-2.63,2.3a3,3,0,0,1-.6,0V24.73a2,2,0,0,0,.49.06c.52,0,.85-.1,1-.59l.2-.62-2.15-7.7Z" fill="#3b4351"/><path d="M434.79,15.88h1V13.73h1.51v2.15h1.23V17h-1.23v4.5c0,.6.17.79.69.79a2.7,2.7,0,0,0,.54,0v1.12a4.64,4.64,0,0,1-1.22.13c-1,0-1.52-.3-1.52-1.82V17h-1Z" fill="#3b4351"/><path d="M439.35,13.41h1.52v3.28l0,0a2.14,2.14,0,0,1,1.85-1c1.15,0,1.88.52,1.88,2.05v5.68h-1.52V18.25c0-1-.28-1.36-1.05-1.36-.61,0-1.2.47-1.2,1.47v5.05h-1.52Z" fill="#3b4351"/><path d="M446.16,13.3h1.51v1.51h-1.51Zm0,2.58h1.51v7.53h-1.51Z" fill="#3b4351"/><path d="M452.45,18.08v-.2c0-.6-.21-1.16-1-1.16-.6,0-1.08.26-1.08,1s.27.83,1.07,1.11l1,.33A2,2,0,0,1,454,21.31c0,1.61-1.19,2.3-2.7,2.3-1.91,0-2.48-.88-2.48-2.34V21h1.34v.24c0,.88.3,1.34,1.18,1.34s1.23-.42,1.23-1.1a1.09,1.09,0,0,0-.82-1.11l-1.23-.43a2,2,0,0,1-1.62-2.17c0-1.42,1-2.08,2.58-2.08,1.92,0,2.35,1.12,2.35,2.06v.34Z" fill="#3b4351"/><path d="M457.85,15.88h1V13.73h1.52v2.15h1.23V17H460.4v4.5c0,.6.17.79.68.79a2.75,2.75,0,0,0,.55,0v1.12a4.64,4.64,0,0,1-1.22.13c-1,0-1.53-.3-1.53-1.82V17h-1Z" fill="#3b4351"/><path d="M462.48,13.3H464v1.51h-1.52Zm0,2.58H464v7.53h-1.52Z" fill="#3b4351"/><path d="M465.59,15.88H467v.88h0a2.12,2.12,0,0,1,1.81-1.08,1.64,1.64,0,0,1,1.75,1.15,2,2,0,0,1,1.9-1.15c1.07,0,1.84.55,1.84,2v5.72h-1.51V18.25c0-1-.3-1.36-.91-1.36s-1.21.47-1.21,1.47v5.05h-1.51V18.25c0-1-.3-1.36-.93-1.36s-1.19.49-1.19,1.47v5.05h-1.51Z" fill="#3b4351"/><path d="M477.18,19.84v.44c0,1,.13,2.29,1.26,2.29s1.21-1.22,1.21-1.68h1.43a2.48,2.48,0,0,1-2.65,2.72c-1.23,0-2.76-.36-2.76-3.85,0-2,.43-4.08,2.79-4.08,2.1,0,2.66,1.28,2.66,3.36v.8Zm2.43-1V18.4c0-.95-.31-1.68-1.17-1.68s-1.26,1-1.26,1.93v.16Z" fill="#3b4351"/><path d="M489.57,22.49h0a1.62,1.62,0,0,1-1.66,1.12c-1.75,0-2.46-1.48-2.46-4.06,0-3.35,1.17-3.87,2.32-3.87a1.74,1.74,0,0,1,1.71,1.08h0V13.41H491v10h-1.43Zm-1.37-5.6c-.85,0-1.18.7-1.18,2.73,0,1.71.21,2.79,1.28,2.79s1.27-1.06,1.27-2.68C489.57,17.92,489.38,16.89,488.2,16.89Z" fill="#3b4351"/><path d="M493.76,19.84v.44c0,1,.12,2.29,1.26,2.29s1.2-1.22,1.2-1.68h1.43A2.48,2.48,0,0,1,495,23.61c-1.24,0-2.76-.36-2.76-3.85,0-2,.43-4.08,2.78-4.08,2.1,0,2.66,1.28,2.66,3.36v.8Zm2.42-1V18.4c0-.95-.31-1.68-1.16-1.68s-1.26,1-1.26,1.93v.16Z" fill="#3b4351"/><path d="M498.31,15.88h1.62l1.32,5.94h0l1.19-5.94h1.61l-2,7.53h-1.77Z" fill="#3b4351"/><path d="M506.2,19.84v.44c0,1,.13,2.29,1.27,2.29s1.2-1.22,1.2-1.68h1.43a2.48,2.48,0,0,1-2.65,2.72c-1.23,0-2.76-.36-2.76-3.85,0-2,.44-4.08,2.79-4.08,2.1,0,2.66,1.28,2.66,3.36v.8Zm2.43-1V18.4c0-.95-.31-1.68-1.16-1.68s-1.27,1-1.27,1.93v.16Z" fill="#3b4351"/><path d="M511.45,13.41H513v10h-1.52Z" fill="#3b4351"/><path d="M514.2,19.65c0-2.36.61-4,2.8-4s2.81,1.61,2.81,4-.72,4-2.81,4S514.2,22,514.2,19.65Zm2.8,2.84c1.11,0,1.3-.92,1.3-2.84,0-1.67-.19-2.85-1.3-2.85s-1.29,1.18-1.29,2.85C515.71,21.57,515.92,22.49,517,22.49Z" fill="#3b4351"/><path d="M524.22,23.61a1.74,1.74,0,0,1-1.71-1.08h0v3.35H521v-10h1.43v.92h0a1.78,1.78,0,0,1,1.69-1.12c1.73,0,2.43,1.47,2.43,4.06C526.55,22.91,525.27,23.61,524.22,23.61Zm-.54-6.72c-1,0-1.28,1.05-1.28,2.67,0,1.81.23,2.85,1.29,2.85.86,0,1.26-.65,1.26-2.74C525,18,524.74,16.89,523.68,16.89Z" fill="#3b4351"/><path d="M529,19.84v.44c0,1,.13,2.29,1.26,2.29s1.21-1.22,1.21-1.68h1.42a2.47,2.47,0,0,1-2.64,2.72c-1.24,0-2.76-.36-2.76-3.85,0-2,.43-4.08,2.78-4.08C532.39,15.68,533,17,533,19v.8Zm2.42-1V18.4c0-.95-.31-1.68-1.16-1.68s-1.26,1-1.26,1.93v.16Z" fill="#3b4351"/><path d="M538,22.49h0a1.6,1.6,0,0,1-1.65,1.12c-1.75,0-2.47-1.48-2.47-4.06,0-3.35,1.18-3.87,2.33-3.87a1.74,1.74,0,0,1,1.71,1.08h0V13.41h1.51v10H538Zm-1.37-5.6c-.86,0-1.18.7-1.18,2.73,0,1.71.21,2.79,1.28,2.79S538,21.35,538,19.73C538,17.92,537.85,16.89,536.67,16.89Z" fill="#3b4351"/><path d="M549.23,21.85c0,.28.17.53.39.53a.72.72,0,0,0,.25,0v1a1.71,1.71,0,0,1-.74.18c-.67,0-1.23-.27-1.28-1h0A1.94,1.94,0,0,1,546,23.61c-1.22,0-2-.66-2-2.11a2.07,2.07,0,0,1,1.75-2.37l1.18-.32c.54-.16.88-.31.88-1s-.24-1.12-1-1.12c-1,0-1.15.71-1.15,1.44h-1.43c0-1.61.66-2.48,2.65-2.48,1.33,0,2.4.52,2.4,1.85Zm-1.43-2.41a13.82,13.82,0,0,1-1.68.7,1.22,1.22,0,0,0-.62,1.21c0,.64.31,1.14.94,1.14.91,0,1.36-.67,1.36-1.79Z" fill="#3b4351"/><path d="M552.28,24.06a1,1,0,0,0,1.09.89,1.24,1.24,0,0,0,1.27-1.41V22.32h0a1.82,1.82,0,0,1-1.71,1c-1.75,0-2.26-1.72-2.26-3.8,0-1.65.26-3.88,2.4-3.88a1.67,1.67,0,0,1,1.65,1.12h0v-.92h1.43v7.17c0,1.83-.79,2.94-2.82,2.94-2.24,0-2.49-1.32-2.49-1.93Zm1.06-1.91c1.18,0,1.3-1.48,1.3-2.67s-.15-2.59-1.2-2.59-1.27,1.12-1.27,2.52S552.22,22.15,553.34,22.15Z" fill="#3b4351"/><path d="M557.58,15.88h1.52v1.17h0a1.87,1.87,0,0,1,1.75-1.37.92.92,0,0,1,.37.06v1.54a2.17,2.17,0,0,0-.63-.09c-.69,0-1.51.31-1.51,1.71v4.51h-1.52Z" fill="#3b4351"/><path d="M562.06,13.3h1.52v1.51h-1.52Zm0,2.58h1.52v7.53h-1.52Z" fill="#3b4351"/><path d="M570.18,20.67c-.11,1.81-.7,2.94-2.57,2.94-2.19,0-2.8-1.61-2.8-4s.61-4,2.8-4a2.44,2.44,0,0,1,2.59,2.71h-1.51c0-.7-.19-1.63-1.08-1.59-1.08,0-1.29,1.18-1.29,2.85s.21,2.84,1.29,2.84c.84,0,1.15-.69,1.15-1.82Z" fill="#3b4351"/><path d="M575.17,22.53h0a2.18,2.18,0,0,1-1.94,1.08c-1.12,0-1.87-.52-1.87-2.47V15.88h1.51v5.4c0,.85.36,1.13,1,1.13a1.18,1.18,0,0,0,1.23-1.27V15.88h1.52v7.53h-1.43Z" fill="#3b4351"/><path d="M578.12,13.41h1.51v10h-1.51Z" fill="#3b4351"/><path d="M580.49,15.88h1V13.73H583v2.15h1.23V17H583v4.5c0,.6.16.79.68.79a2.75,2.75,0,0,0,.55,0v1.12a4.64,4.64,0,0,1-1.22.13c-1,0-1.53-.3-1.53-1.82V17h-1Z" fill="#3b4351"/><path d="M588.9,22.53h0a2.17,2.17,0,0,1-1.93,1.08c-1.12,0-1.88-.52-1.88-2.47V15.88h1.51v5.4c0,.85.37,1.13,1,1.13a1.18,1.18,0,0,0,1.23-1.27V15.88h1.51v7.53H588.9Z" fill="#3b4351"/><path d="M591.78,15.88h1.52v1.17h0a1.87,1.87,0,0,1,1.76-1.37.87.87,0,0,1,.36.06v1.54a2.11,2.11,0,0,0-.63-.09c-.69,0-1.51.31-1.51,1.71v4.51h-1.52Z" fill="#3b4351"/><path d="M597.41,19.84v.44c0,1,.13,2.29,1.26,2.29s1.21-1.22,1.21-1.68h1.43a2.48,2.48,0,0,1-2.65,2.72c-1.23,0-2.76-.36-2.76-3.85,0-2,.43-4.08,2.79-4.08,2.1,0,2.66,1.28,2.66,3.36v.8Zm2.43-1V18.4c0-.95-.31-1.68-1.17-1.68s-1.26,1-1.26,1.93v.16Z" fill="#3b4351"/><path d="M602.23,21.57h1.6v1.84a1.88,1.88,0,0,1-1.6,2.16v-.81a1.05,1.05,0,0,0,.7-1.14v-.21h-.7Z" fill="#3b4351"/><path d="M611.53,18.08v-.2c0-.6-.21-1.16-1-1.16-.6,0-1.08.26-1.08,1s.27.83,1.07,1.11l1,.33a2,2,0,0,1,1.64,2.17c0,1.61-1.19,2.3-2.7,2.3-1.91,0-2.48-.88-2.48-2.34V21h1.34v.24c0,.88.3,1.34,1.18,1.34s1.23-.42,1.23-1.1a1.09,1.09,0,0,0-.82-1.11l-1.24-.43A2,2,0,0,1,608,17.76c0-1.42,1-2.08,2.58-2.08,1.92,0,2.35,1.12,2.35,2.06v.34Z" fill="#3b4351"/><path d="M614.24,13.41h1.51v3.28l0,0a2.16,2.16,0,0,1,1.85-1c1.15,0,1.88.52,1.88,2.05v5.68H618V18.25c0-1-.28-1.36-1-1.36s-1.21.47-1.21,1.47v5.05h-1.51Z" fill="#3b4351"/><path d="M621,13.3h1.52v1.51H621Zm0,2.58h1.52v7.53H621Z" fill="#3b4351"/><path d="M627.33,23.61a1.74,1.74,0,0,1-1.71-1.08h0v3.35h-1.51v-10h1.43v.92h0a1.78,1.78,0,0,1,1.69-1.12c1.73,0,2.43,1.47,2.43,4.06C629.66,22.91,628.38,23.61,627.33,23.61Zm-.55-6.72c-1,0-1.27,1.05-1.27,2.67,0,1.81.22,2.85,1.29,2.85.85,0,1.26-.65,1.26-2.74C628.06,18,627.85,16.89,626.78,16.89Z" fill="#3b4351"/><path d="M630.82,13.41h1.51v3.35h0a1.74,1.74,0,0,1,1.7-1.08c1.15,0,2.33.52,2.33,3.87,0,2.59-.71,4.06-2.47,4.06a1.61,1.61,0,0,1-1.65-1.12h0v.92h-1.42Zm2.7,9c1.06,0,1.27-1.08,1.27-2.79,0-2-.32-2.73-1.17-2.73-1.18,0-1.38,1-1.38,2.84C632.24,21.35,632.48,22.41,633.52,22.41Z" fill="#3b4351"/><path d="M641.4,22.53h0a2.17,2.17,0,0,1-1.93,1.08c-1.12,0-1.88-.52-1.88-2.47V15.88h1.51v5.4c0,.85.37,1.13,1,1.13a1.18,1.18,0,0,0,1.24-1.27V15.88h1.51v7.53H641.4Z" fill="#3b4351"/><path d="M644.35,13.3h1.52v1.51h-1.52Zm0,2.58h1.52v7.53h-1.52Z" fill="#3b4351"/><path d="M647.46,13.41H649v10h-1.51Z" fill="#3b4351"/><path d="M654.35,22.49h0a1.61,1.61,0,0,1-1.65,1.12c-1.75,0-2.47-1.48-2.47-4.06,0-3.35,1.18-3.87,2.33-3.87a1.74,1.74,0,0,1,1.71,1.08h0V13.41h1.51v10h-1.43ZM653,16.89c-.86,0-1.18.7-1.18,2.73,0,1.71.21,2.79,1.28,2.79s1.27-1.06,1.27-2.68C654.35,17.92,654.15,16.89,653,16.89Z" fill="#3b4351"/><path d="M657.3,13.3h1.52v1.51H657.3Zm0,2.58h1.52v7.53H657.3Z" fill="#3b4351"/><path d="M660.34,15.88h1.43v.88h0a2.17,2.17,0,0,1,1.93-1.08c1.15,0,1.88.52,1.88,2.05v5.68h-1.51V18.25c0-1-.27-1.36-1.05-1.36-.62,0-1.21.46-1.21,1.47v5.05h-1.51Z" fill="#3b4351"/><path d="M668.59,24.06a1,1,0,0,0,1.09.89A1.24,1.24,0,0,0,671,23.54V22.32h0a1.82,1.82,0,0,1-1.71,1c-1.75,0-2.26-1.72-2.26-3.8,0-1.65.25-3.88,2.4-3.88A1.67,1.67,0,0,1,671,16.8h0v-.92h1.43v7.17c0,1.83-.79,2.94-2.82,2.94-2.24,0-2.49-1.32-2.49-1.93Zm1.06-1.91c1.18,0,1.3-1.48,1.3-2.67s-.15-2.59-1.2-2.59-1.27,1.12-1.27,2.52S668.53,22.15,669.65,22.15Z" fill="#3b4351"/><path d="M673.71,21.57h1.6v1.84a1.88,1.88,0,0,1-1.6,2.16v-.81a1.05,1.05,0,0,0,.7-1.14v-.21h-.7Z" fill="#3b4351"/><path d="M681.27,24.06a1,1,0,0,0,1.09.89,1.25,1.25,0,0,0,1.28-1.41V22.32h0a1.82,1.82,0,0,1-1.71,1c-1.75,0-2.25-1.72-2.25-3.8,0-1.65.25-3.88,2.39-3.88a1.66,1.66,0,0,1,1.65,1.12h0v-.92h1.43v7.17c0,1.83-.78,2.94-2.81,2.94-2.25,0-2.5-1.32-2.5-1.93Zm1.07-1.91c1.17,0,1.3-1.48,1.3-2.67s-.16-2.59-1.21-2.59-1.27,1.12-1.27,2.52S681.22,22.15,682.34,22.15Z" fill="#3b4351"/><path d="M686.2,19.65c0-2.36.61-4,2.8-4s2.82,1.61,2.82,4-.73,4-2.82,4S686.2,22,686.2,19.65Zm2.8,2.84c1.11,0,1.3-.92,1.3-2.84,0-1.67-.19-2.85-1.3-2.85s-1.29,1.18-1.29,2.85C687.71,21.57,687.92,22.49,689,22.49Z" fill="#3b4351"/><path d="M692.26,15.88h1.63l1.31,5.94h0l1.19-5.94H698l-2,7.53h-1.76Z" fill="#3b4351"/><path d="M700.16,19.84v.44c0,1,.12,2.29,1.26,2.29s1.2-1.22,1.2-1.68h1.43a2.48,2.48,0,0,1-2.65,2.72c-1.23,0-2.76-.36-2.76-3.85,0-2,.44-4.08,2.79-4.08,2.1,0,2.66,1.28,2.66,3.36v.8Zm2.42-1V18.4c0-.95-.31-1.68-1.16-1.68s-1.26,1-1.26,1.93v.16Z" fill="#3b4351"/><path d="M705.34,15.88h1.51v1.17h0a1.85,1.85,0,0,1,1.75-1.37.87.87,0,0,1,.36.06v1.54a2.11,2.11,0,0,0-.63-.09c-.68,0-1.51.31-1.51,1.71v4.51h-1.51Z" fill="#3b4351"/><path d="M709.89,15.88h1.42v.88h.05a2.15,2.15,0,0,1,1.93-1.08c1.15,0,1.88.52,1.88,2.05v5.68h-1.52V18.25c0-1-.26-1.36-1-1.36-.61,0-1.2.46-1.2,1.47v5.05h-1.51Z" fill="#3b4351"/><path d="M716.69,15.88h1.43v.88h0A2.12,2.12,0,0,1,720,15.68a1.64,1.64,0,0,1,1.75,1.15,2,2,0,0,1,1.9-1.15c1.07,0,1.84.55,1.84,2v5.72H724V18.25c0-1-.3-1.36-.91-1.36s-1.21.47-1.21,1.47v5.05h-1.51V18.25c0-1-.3-1.36-.93-1.36s-1.19.49-1.19,1.47v5.05h-1.51Z" fill="#3b4351"/><path d="M728.28,19.84v.44c0,1,.13,2.29,1.26,2.29s1.21-1.22,1.21-1.68h1.43a2.48,2.48,0,0,1-2.65,2.72c-1.23,0-2.76-.36-2.76-3.85,0-2,.43-4.08,2.79-4.08,2.1,0,2.66,1.28,2.66,3.36v.8Zm2.43-1V18.4c0-.95-.31-1.68-1.17-1.68s-1.26,1-1.26,1.93v.16Z" fill="#3b4351"/><path d="M733.46,15.88h1.43v.88h0a2.17,2.17,0,0,1,1.94-1.08c1.14,0,1.87.52,1.87,2.05v5.68h-1.51V18.25c0-1-.27-1.36-1.05-1.36-.62,0-1.21.46-1.21,1.47v5.05h-1.51Z" fill="#3b4351"/><path d="M739.52,15.88h1V13.73h1.51v2.15h1.23V17h-1.23v4.5c0,.6.17.79.69.79a2.7,2.7,0,0,0,.54,0v1.12a4.56,4.56,0,0,1-1.21.13c-1,0-1.53-.3-1.53-1.82V17h-1Z" fill="#3b4351"/><path d="M744.24,21.57h1.6v1.84a1.88,1.88,0,0,1-1.6,2.16v-.81c.44-.11.7-.52.7-1.14v-.21h-.7Z" fill="#3b4351"/><path d="M755.37,20.67c-.11,1.81-.7,2.94-2.57,2.94-2.19,0-2.8-1.61-2.8-4s.61-4,2.8-4a2.44,2.44,0,0,1,2.59,2.71h-1.51c0-.7-.19-1.63-1.08-1.59-1.08,0-1.29,1.18-1.29,2.85s.21,2.84,1.29,2.84c.84,0,1.15-.69,1.15-1.82Z" fill="#3b4351"/><path d="M756.21,19.65c0-2.36.62-4,2.8-4s2.82,1.61,2.82,4-.73,4-2.82,4S756.21,22,756.21,19.65Zm2.8,2.84c1.11,0,1.31-.92,1.31-2.84,0-1.67-.2-2.85-1.31-2.85s-1.29,1.18-1.29,2.85C757.72,21.57,757.93,22.49,759,22.49Z" fill="#3b4351"/><path d="M763.06,15.88h1.43v.88h0a2.11,2.11,0,0,1,1.8-1.08,1.65,1.65,0,0,1,1.76,1.15,2,2,0,0,1,1.9-1.15c1.07,0,1.84.55,1.84,2v5.72h-1.52V18.25c0-1-.29-1.36-.91-1.36s-1.2.47-1.2,1.47v5.05h-1.52V18.25c0-1-.29-1.36-.92-1.36s-1.19.49-1.19,1.47v5.05h-1.51Z" fill="#3b4351"/><path d="M773.42,15.88h1.43v.88h0a2.11,2.11,0,0,1,1.8-1.08,1.65,1.65,0,0,1,1.76,1.15,2,2,0,0,1,1.9-1.15c1.07,0,1.84.55,1.84,2v5.72h-1.52V18.25c0-1-.29-1.36-.91-1.36s-1.2.47-1.2,1.47v5.05H777V18.25c0-1-.29-1.36-.92-1.36s-1.19.49-1.19,1.47v5.05h-1.51Z" fill="#3b4351"/><path d="M785,19.84v.44c0,1,.13,2.29,1.26,2.29s1.21-1.22,1.21-1.68h1.42a2.48,2.48,0,0,1-2.64,2.72c-1.24,0-2.76-.36-2.76-3.85,0-2,.43-4.08,2.78-4.08C788.39,15.68,789,17,789,19v.8Zm2.42-1V18.4c0-.95-.31-1.68-1.16-1.68s-1.26,1-1.26,1.93v.16Z" fill="#3b4351"/><path d="M790.19,15.88h1.51v1.17h0a1.87,1.87,0,0,1,1.75-1.37.87.87,0,0,1,.36.06v1.54a2.11,2.11,0,0,0-.63-.09c-.68,0-1.51.31-1.51,1.71v4.51h-1.51Z" fill="#3b4351"/><path d="M799.6,20.67c-.11,1.81-.7,2.94-2.58,2.94-2.18,0-2.8-1.61-2.8-4s.62-4,2.8-4a2.44,2.44,0,0,1,2.59,2.71H798.1c0-.7-.18-1.63-1.08-1.59-1.08,0-1.29,1.18-1.29,2.85s.21,2.84,1.29,2.84c.84,0,1.15-.69,1.15-1.82Z" fill="#3b4351"/><path d="M802,19.84v.44c0,1,.13,2.29,1.26,2.29s1.21-1.22,1.21-1.68h1.43a2.48,2.48,0,0,1-2.65,2.72c-1.23,0-2.76-.36-2.76-3.85,0-2,.43-4.08,2.79-4.08,2.1,0,2.66,1.28,2.66,3.36v.8Zm2.43-1V18.4c0-.95-.31-1.68-1.17-1.68s-1.26,1-1.26,1.93v.16Z" fill="#3b4351"/><path d="M806.85,21.57h1.6v1.84a1.88,1.88,0,0,1-1.6,2.16v-.81a1.05,1.05,0,0,0,.7-1.14v-.21h-.7Z" fill="#3b4351"/><path d="M817.84,21.85c0,.28.17.53.39.53a.78.78,0,0,0,.26,0v1a1.76,1.76,0,0,1-.75.18c-.67,0-1.23-.27-1.27-1h0a1.94,1.94,0,0,1-1.88,1.11c-1.22,0-2-.66-2-2.11a2.07,2.07,0,0,1,1.75-2.37l1.18-.32c.55-.16.88-.31.88-1s-.24-1.12-1-1.12c-1,0-1.15.71-1.15,1.44H812.8c0-1.61.66-2.48,2.65-2.48,1.33,0,2.39.52,2.39,1.85Zm-1.43-2.41a13.82,13.82,0,0,1-1.68.7,1.23,1.23,0,0,0-.61,1.21c0,.64.3,1.14.93,1.14.91,0,1.36-.67,1.36-1.79Z" fill="#3b4351"/><path d="M819.38,15.88h1.51v1.17h0a1.87,1.87,0,0,1,1.75-1.37.87.87,0,0,1,.36.06v1.54a2.11,2.11,0,0,0-.63-.09c-.68,0-1.51.31-1.51,1.71v4.51h-1.51Z" fill="#3b4351"/><path d="M823.12,15.88h1V13.73h1.51v2.15h1.24V17h-1.24v4.5c0,.6.17.79.69.79a2.75,2.75,0,0,0,.55,0v1.12a4.64,4.64,0,0,1-1.22.13c-1,0-1.53-.3-1.53-1.82V17h-1Z" fill="#3b4351"/><path d="M827.83,21.57h1.6v1.84c0,1.12-.36,1.92-1.6,2.16v-.81c.44-.11.7-.52.7-1.14v-.21h-.7Z" fill="#3b4351"/><path d="M834,13.41h1.51v10H834Z" fill="#3b4351"/><path d="M841.93,21.85c0,.28.17.53.4.53a.76.76,0,0,0,.25,0v1a1.71,1.71,0,0,1-.74.18c-.68,0-1.24-.27-1.28-1h0a1.93,1.93,0,0,1-1.87,1.11c-1.22,0-2-.66-2-2.11a2.07,2.07,0,0,1,1.75-2.37l1.17-.32c.55-.16.89-.31.89-1s-.24-1.12-1-1.12c-1,0-1.15.71-1.15,1.44h-1.43c0-1.61.66-2.48,2.65-2.48,1.33,0,2.39.52,2.39,1.85Zm-1.42-2.41a13.32,13.32,0,0,1-1.69.7,1.23,1.23,0,0,0-.61,1.21c0,.64.31,1.14.94,1.14.91,0,1.36-.67,1.36-1.79Z" fill="#3b4351"/><path d="M843,15.88h1.57l1.05,5.94h0l1.12-5.94h1.71l1.12,5.94h0l1-5.94h1.51l-1.72,7.53h-1.7l-1.18-5.85h0l-1.08,5.85h-1.77Z" fill="#3b4351"/><path d="M855.9,15.88h1.57l1,5.94h0l1.12-5.94h1.71l1.12,5.94h0l1-5.94h1.52l-1.73,7.53h-1.69l-1.18-5.85h0l-1.08,5.85h-1.77Z" fill="#3b4351"/><path d="M866,15.88h1.51v1.17h0a1.87,1.87,0,0,1,1.75-1.37.92.92,0,0,1,.37.06v1.54a2.17,2.17,0,0,0-.63-.09c-.69,0-1.52.31-1.52,1.71v4.51H866Z" fill="#3b4351"/><path d="M870.49,13.3H872v1.51h-1.51Zm0,2.58H872v7.53h-1.51Z" fill="#3b4351"/><path d="M872.86,15.88h1V13.73h1.52v2.15h1.23V17h-1.23v4.5c0,.6.16.79.68.79a2.75,2.75,0,0,0,.55,0v1.12a4.64,4.64,0,0,1-1.22.13c-1,0-1.53-.3-1.53-1.82V17h-1Z" fill="#3b4351"/><path d="M877.49,13.3H879v1.51h-1.51Zm0,2.58H879v7.53h-1.51Z" fill="#3b4351"/><path d="M880.53,15.88H882v.88h0a2.17,2.17,0,0,1,1.93-1.08c1.15,0,1.88.52,1.88,2.05v5.68H884.3V18.25c0-1-.27-1.36-1-1.36-.62,0-1.21.46-1.21,1.47v5.05h-1.51Z" fill="#3b4351"/><path d="M888.78,24.06a1,1,0,0,0,1.09.89,1.24,1.24,0,0,0,1.27-1.41V22.32h0a1.82,1.82,0,0,1-1.7,1c-1.76,0-2.26-1.72-2.26-3.8,0-1.65.25-3.88,2.4-3.88a1.67,1.67,0,0,1,1.65,1.12h0v-.92h1.43v7.17c0,1.83-.79,2.94-2.82,2.94-2.24,0-2.49-1.32-2.49-1.93Zm1.06-1.91c1.18,0,1.3-1.48,1.3-2.67s-.15-2.59-1.2-2.59-1.28,1.12-1.28,2.52S888.72,22.15,889.84,22.15Z" fill="#3b4351"/><path d="M902.3,21.85c0,.28.17.53.39.53a.78.78,0,0,0,.26,0v1a1.76,1.76,0,0,1-.75.18c-.67,0-1.23-.27-1.27-1h0A1.94,1.94,0,0,1,899,23.61c-1.22,0-2-.66-2-2.11a2.07,2.07,0,0,1,1.75-2.37l1.18-.32c.55-.16.88-.31.88-1s-.24-1.12-1-1.12c-1,0-1.15.71-1.15,1.44h-1.43c0-1.61.66-2.48,2.65-2.48,1.33,0,2.39.52,2.39,1.85Zm-1.43-2.41a13.82,13.82,0,0,1-1.68.7,1.23,1.23,0,0,0-.61,1.21c0,.64.3,1.14.93,1.14.91,0,1.36-.67,1.36-1.79Z" fill="#3b4351"/><path d="M903.84,15.88h1.43v.88h0a2.17,2.17,0,0,1,1.93-1.08c1.15,0,1.88.52,1.88,2.05v5.68h-1.51V18.25c0-1-.27-1.36-1.05-1.36-.62,0-1.21.46-1.21,1.47v5.05h-1.51Z" fill="#3b4351"/><path d="M914.42,22.49h0a1.62,1.62,0,0,1-1.66,1.12c-1.75,0-2.46-1.48-2.46-4.06,0-3.35,1.17-3.87,2.32-3.87a1.74,1.74,0,0,1,1.71,1.08h0V13.41h1.51v10h-1.43Zm-1.37-5.6c-.85,0-1.18.7-1.18,2.73,0,1.71.21,2.79,1.28,2.79s1.27-1.06,1.27-2.68C914.42,17.92,914.23,16.89,913.05,16.89Z" fill="#3b4351"/><path d="M920.74,15.88h1.42v.88h.05a2.1,2.1,0,0,1,1.8-1.08,1.63,1.63,0,0,1,1.75,1.15,2.07,2.07,0,0,1,1.91-1.15c1.06,0,1.83.55,1.83,2v5.72H928V18.25c0-1-.29-1.36-.91-1.36s-1.2.47-1.2,1.47v5.05h-1.52V18.25c0-1-.29-1.36-.92-1.36s-1.19.49-1.19,1.47v5.05h-1.51Z" fill="#3b4351"/><path d="M936,21.85c0,.28.17.53.39.53a.72.72,0,0,0,.25,0v1a1.68,1.68,0,0,1-.74.18c-.67,0-1.23-.27-1.27-1h0a1.94,1.94,0,0,1-1.88,1.11c-1.22,0-2-.66-2-2.11a2.07,2.07,0,0,1,1.75-2.37l1.18-.32c.55-.16.88-.31.88-1s-.24-1.12-1-1.12c-1,0-1.14.71-1.14,1.44h-1.43c0-1.61.66-2.48,2.65-2.48,1.33,0,2.39.52,2.39,1.85Zm-1.43-2.41a13.82,13.82,0,0,1-1.68.7,1.23,1.23,0,0,0-.62,1.21c0,.64.31,1.14.94,1.14.91,0,1.36-.67,1.36-1.79Z" fill="#3b4351"/><path d="M936.84,15.88h1V13.73h1.51v2.15h1.24V17h-1.24v4.5c0,.6.17.79.69.79a2.75,2.75,0,0,0,.55,0v1.12a4.64,4.64,0,0,1-1.22.13c-1,0-1.53-.3-1.53-1.82V17h-1Z" fill="#3b4351"/><path d="M941.4,13.41h1.51v3.28l0,0a2.16,2.16,0,0,1,1.85-1c1.15,0,1.88.52,1.88,2.05v5.68h-1.51V18.25c0-1-.28-1.36-1-1.36s-1.21.47-1.21,1.47v5.05H941.4Z" fill="#3b4351"/><path d="M949.44,19.84v.44c0,1,.12,2.29,1.26,2.29s1.2-1.22,1.2-1.68h1.43a2.48,2.48,0,0,1-2.65,2.72c-1.23,0-2.76-.36-2.76-3.85,0-2,.44-4.08,2.79-4.08,2.1,0,2.66,1.28,2.66,3.36v.8Zm2.42-1V18.4c0-.95-.31-1.68-1.16-1.68s-1.26,1-1.26,1.93v.16Z" fill="#3b4351"/><path d="M954.69,15.88h1.42v.88h0a2.1,2.1,0,0,1,1.8-1.08,1.63,1.63,0,0,1,1.75,1.15,2.07,2.07,0,0,1,1.91-1.15c1.06,0,1.83.55,1.83,2v5.72h-1.51V18.25c0-1-.29-1.36-.91-1.36s-1.2.47-1.2,1.47v5.05h-1.52V18.25c0-1-.29-1.36-.92-1.36s-1.19.49-1.19,1.47v5.05h-1.51Z" fill="#3b4351"/><path d="M969.92,21.85c0,.28.17.53.39.53a.72.72,0,0,0,.25,0v1a1.68,1.68,0,0,1-.74.18c-.67,0-1.23-.27-1.27-1h0a1.94,1.94,0,0,1-1.88,1.11c-1.22,0-2-.66-2-2.11a2.07,2.07,0,0,1,1.75-2.37l1.18-.32c.55-.16.88-.31.88-1s-.24-1.12-1-1.12c-1,0-1.14.71-1.14,1.44h-1.43c0-1.61.66-2.48,2.64-2.48,1.34,0,2.4.52,2.4,1.85Zm-1.43-2.41a13.82,13.82,0,0,1-1.68.7,1.23,1.23,0,0,0-.62,1.21c0,.64.31,1.14.94,1.14.91,0,1.36-.67,1.36-1.79Z" fill="#3b4351"/><path d="M970.79,15.88h1V13.73h1.51v2.15h1.24V17h-1.24v4.5c0,.6.17.79.69.79a2.75,2.75,0,0,0,.55,0v1.12a4.64,4.64,0,0,1-1.22.13c-1,0-1.53-.3-1.53-1.82V17h-1Z" fill="#3b4351"/><path d="M975.42,13.3h1.51v1.51h-1.51Zm0,2.58h1.51v7.53h-1.51Z" fill="#3b4351"/><path d="M983.54,20.67c-.11,1.81-.7,2.94-2.58,2.94-2.18,0-2.8-1.61-2.8-4s.62-4,2.8-4a2.44,2.44,0,0,1,2.6,2.71H982c0-.7-.18-1.63-1.08-1.59-1.07,0-1.28,1.18-1.28,2.85s.21,2.84,1.28,2.84c.85,0,1.15-.69,1.15-1.82Z" fill="#3b4351"/><path d="M987.92,18.08v-.2c0-.6-.21-1.16-1-1.16-.6,0-1.08.26-1.08,1s.27.83,1.06,1.11l1,.33a2,2,0,0,1,1.64,2.17c0,1.61-1.19,2.3-2.7,2.3-1.91,0-2.48-.88-2.48-2.34V21h1.34v.24c0,.88.3,1.34,1.18,1.34s1.23-.42,1.23-1.1a1.09,1.09,0,0,0-.82-1.11L986,19.93a2,2,0,0,1-1.61-2.17c0-1.42,1-2.08,2.58-2.08,1.92,0,2.35,1.12,2.35,2.06v.34Z" fill="#3b4351"/><path d="M364.83,59.34h-2.38V58h6.31v1.35h-2.34V68h-1.59Z" fill="#3b4351"/><path d="M368,60.46h1.57l1.05,5.94h0l1.12-5.94h1.71l1.12,5.94h0l1-5.94h1.51L375.47,68h-1.69l-1.18-5.86h0L371.49,68h-1.76Z" fill="#3b4351"/><path d="M379.43,64.42v.44c0,1,.13,2.3,1.26,2.3s1.2-1.22,1.2-1.69h1.43a2.48,2.48,0,0,1-2.64,2.72c-1.24,0-2.76-.36-2.76-3.85,0-2,.43-4.08,2.78-4.08,2.1,0,2.67,1.28,2.67,3.37v.79Zm2.42-1V63c0-.95-.31-1.68-1.16-1.68s-1.26,1-1.26,1.93v.16Z" fill="#3b4351"/><path d="M384.68,58h1.51V68h-1.51Z" fill="#3b4351"/><path d="M387,60.46h1V58.32h1.51v2.14h1.24v1.12h-1.24v4.5c0,.6.17.8.69.8a2.72,2.72,0,0,0,.55,0V68a4.69,4.69,0,0,1-1.22.13c-1,0-1.53-.29-1.53-1.82V61.58h-1Z" fill="#3b4351"/><path d="M391.61,58h1.51v3.28l0,0a2.16,2.16,0,0,1,1.85-1c1.15,0,1.88.52,1.88,2.05V68h-1.51V62.83c0-1-.28-1.36-1.05-1.36-.62,0-1.21.47-1.21,1.47V68h-1.51Z" fill="#3b4351"/><path d="M401.8,58h2.84c3.14,0,3.53,2,3.53,5s-.39,5-3.53,5H401.8Zm1.6,8.8h1.31c1.32,0,1.87-.87,1.87-3.79s-.48-3.8-1.87-3.8H403.4Z" fill="#3b4351"/><path d="M410.49,60.46l1.31,5.66h0l1.2-5.66h1.58l-2.07,7.82c-.6,2.06-1.06,2.34-2.63,2.29a3.14,3.14,0,0,1-.61,0V69.31a2.12,2.12,0,0,0,.49.06c.52,0,.86-.1,1-.59l.19-.62-2.14-7.7Z" fill="#3b4351"/><path d="M415.45,60.46h1.43v.88h0a2.17,2.17,0,0,1,1.93-1.08c1.15,0,1.88.52,1.88,2.05V68h-1.51V62.83c0-1-.27-1.36-1.05-1.36-.62,0-1.21.46-1.21,1.47V68h-1.51Z" fill="#3b4351"/><path d="M427.13,66.43c0,.28.17.53.39.53a.54.54,0,0,0,.25,0v1a1.58,1.58,0,0,1-.74.18c-.67,0-1.23-.27-1.27-1h0a2,2,0,0,1-1.88,1.1c-1.22,0-2-.66-2-2.11a2.08,2.08,0,0,1,1.75-2.37l1.18-.32c.54-.16.88-.31.88-1s-.24-1.12-1-1.12c-1,0-1.15.72-1.15,1.44h-1.42c0-1.61.65-2.48,2.64-2.48,1.33,0,2.4.52,2.4,1.85ZM425.7,64a12.39,12.39,0,0,1-1.68.7,1.23,1.23,0,0,0-.62,1.22c0,.63.31,1.13.94,1.13.91,0,1.36-.67,1.36-1.79Z" fill="#3b4351"/><path d="M431.92,62.66v-.2c0-.6-.21-1.16-1-1.16-.6,0-1.08.27-1.08,1s.27.83,1.07,1.11l1,.33a2,2,0,0,1,1.64,2.18c0,1.61-1.19,2.29-2.7,2.29-1.91,0-2.48-.88-2.48-2.34v-.28h1.34v.24c0,.88.3,1.35,1.18,1.35s1.23-.42,1.23-1.11a1.09,1.09,0,0,0-.82-1.11L430,64.51a2,2,0,0,1-1.61-2.17c0-1.42,1-2.08,2.58-2.08,1.92,0,2.35,1.12,2.35,2.06v.34Z" fill="#3b4351"/><path d="M434,60.46h1V58.32h1.52v2.14h1.23v1.12h-1.23v4.5c0,.6.16.8.68.8a2.64,2.64,0,0,0,.55,0V68a4.64,4.64,0,0,1-1.22.13c-1,0-1.53-.29-1.53-1.82V61.58h-1Z" fill="#3b4351"/><path d="M439.53,60.46l1.3,5.66h0l1.21-5.66h1.58l-2.07,7.82c-.61,2.06-1.07,2.34-2.64,2.29a3,3,0,0,1-.6,0V69.31a2.05,2.05,0,0,0,.49.06c.52,0,.85-.1,1-.59l.2-.62-2.14-7.7Z" fill="#3b4351"/><path d="M443.6,66.15h1.6V68h-1.6Z" fill="#3b4351"/><path d="M472.2,64.9v.25c0,1.22.54,1.84,1.64,1.84a1.44,1.44,0,0,0,1.51-1.46,1.68,1.68,0,0,0-1.43-1.78l-1.09-.38c-1.46-.56-2.09-1.31-2.09-2.74,0-1.82,1.25-2.83,3.11-2.83,2.56,0,2.83,1.6,2.83,2.63v.23h-1.6v-.21c0-.91-.39-1.45-1.4-1.45a1.28,1.28,0,0,0-1.34,1.45c0,.85.43,1.28,1.5,1.69l1.07.39a2.55,2.55,0,0,1,2,2.65c0,2.13-1.29,3-3.31,3a2.74,2.74,0,0,1-3-3V64.9Z" fill="#3b4351"/><path d="M479.44,64.42v.44c0,1,.12,2.3,1.26,2.3s1.2-1.22,1.2-1.69h1.43a2.48,2.48,0,0,1-2.65,2.72c-1.23,0-2.76-.36-2.76-3.85,0-2,.44-4.08,2.79-4.08,2.1,0,2.66,1.28,2.66,3.37v.79Zm2.42-1V63c0-.95-.31-1.68-1.16-1.68s-1.26,1-1.26,1.93v.16Z" fill="#3b4351"/><path d="M489.7,65.25c-.11,1.81-.7,2.94-2.58,2.94-2.18,0-2.8-1.61-2.8-4s.62-4,2.8-4A2.44,2.44,0,0,1,489.71,63H488.2c0-.7-.18-1.63-1.08-1.59-1.08,0-1.29,1.18-1.29,2.85s.21,2.84,1.29,2.84c.84,0,1.15-.68,1.15-1.82Z" fill="#3b4351"/><path d="M490.54,64.23c0-2.35.61-4,2.8-4s2.81,1.62,2.81,4-.72,4-2.81,4S490.54,66.58,490.54,64.23Zm2.8,2.84c1.1,0,1.3-.92,1.3-2.84,0-1.67-.2-2.85-1.3-2.85s-1.29,1.18-1.29,2.85C492.05,66.15,492.26,67.07,493.34,67.07Z" fill="#3b4351"/><path d="M497.31,60.46h1.43v.88h0a2.18,2.18,0,0,1,1.94-1.08c1.15,0,1.87.52,1.87,2.05V68h-1.51V62.83c0-1-.27-1.36-1.05-1.36-.62,0-1.2.46-1.2,1.47V68h-1.52Z" fill="#3b4351"/><path d="M507.9,67.07h0a1.61,1.61,0,0,1-1.65,1.12c-1.75,0-2.47-1.48-2.47-4.06,0-3.35,1.18-3.87,2.33-3.87a1.75,1.75,0,0,1,1.71,1.08h0V58h1.52V68H507.9Zm-1.37-5.6c-.86,0-1.18.7-1.18,2.73,0,1.71.21,2.79,1.27,2.79s1.28-1,1.28-2.68C507.9,62.51,507.7,61.47,506.53,61.47Z" fill="#3b4351"/><path d="M513.85,64.23c0-2.35.61-4,2.8-4s2.81,1.62,2.81,4-.73,4-2.81,4S513.85,66.58,513.85,64.23Zm2.8,2.84c1.1,0,1.3-.92,1.3-2.84,0-1.67-.2-2.85-1.3-2.85s-1.29,1.18-1.29,2.85C515.36,66.15,515.57,67.07,516.65,67.07Z" fill="#3b4351"/><path d="M520.62,60.46h1.52v1.18h0a1.88,1.88,0,0,1,1.75-1.38.92.92,0,0,1,.37.06v1.54a2.24,2.24,0,0,0-.63-.08c-.69,0-1.51.3-1.51,1.71V68h-1.52Z" fill="#3b4351"/><path d="M817.68,58h3.53a2.32,2.32,0,0,1,2.54,2.58c0,1.29-.56,2.28-1.67,2.45v0c1,.1,1.51.65,1.57,2,0,.65,0,1.42.05,2a1.13,1.13,0,0,0,.48.87h-1.81a1.74,1.74,0,0,1-.26-.89,8.83,8.83,0,0,1,0-.89c0-.3,0-.63,0-1,0-1.09-.38-1.57-1.46-1.57h-1.3V68h-1.6Zm2.87,4.46a1.48,1.48,0,0,0,1.6-1.63c0-1.06-.45-1.62-1.51-1.62h-1.36v3.25Z" fill="#3b4351"/><path d="M826.4,64.42v.44c0,1,.13,2.3,1.26,2.3s1.21-1.22,1.21-1.69h1.43a2.48,2.48,0,0,1-2.65,2.72c-1.23,0-2.76-.36-2.76-3.85,0-2,.43-4.08,2.79-4.08,2.1,0,2.66,1.28,2.66,3.37v.79Zm2.43-1V63c0-.95-.31-1.68-1.17-1.68s-1.26,1-1.26,1.93v.16Z" fill="#3b4351"/><path d="M831.48,63.23h3.67v1.43h-3.67Z" fill="#3b4351"/><path d="M840.36,67.11h0a2.15,2.15,0,0,1-1.93,1.08c-1.12,0-1.88-.52-1.88-2.46V60.46H838v5.41c0,.84.37,1.12,1,1.12a1.18,1.18,0,0,0,1.23-1.26V60.46h1.51V68h-1.43Z" fill="#3b4351"/><path d="M843.24,60.46h1.43v.88h0a2.18,2.18,0,0,1,1.94-1.08c1.15,0,1.87.52,1.87,2.05V68H847V62.83c0-1-.26-1.36-1-1.36-.61,0-1.2.46-1.2,1.47V68h-1.52Z" fill="#3b4351"/><path d="M850.05,57.88h1.51V59.4h-1.51Zm0,2.58h1.51V68h-1.51Z" fill="#3b4351"/><path d="M853.55,61.58h-1V60.46h1v-.7c0-1.42.68-1.88,1.92-1.88.32,0,.6,0,.82,0v1.17h-.42c-.56,0-.81.21-.81.71v.66h1.23v1.12h-1.23V68h-1.51Zm3.5-3.7h1.51V59.4h-1.51Zm0,2.58h1.51V68h-1.51Z" fill="#3b4351"/><path d="M865.17,65.25c-.11,1.81-.7,2.94-2.58,2.94-2.18,0-2.8-1.61-2.8-4s.62-4,2.8-4A2.44,2.44,0,0,1,865.18,63h-1.51c0-.7-.18-1.63-1.08-1.59-1.08,0-1.29,1.18-1.29,2.85s.21,2.84,1.29,2.84c.84,0,1.15-.69,1.15-1.82Z" fill="#3b4351"/><path d="M871.25,66.43c0,.28.16.53.39.53a.57.57,0,0,0,.25,0v1a1.58,1.58,0,0,1-.74.18c-.67,0-1.23-.27-1.28-1h0a2,2,0,0,1-1.88,1.1c-1.22,0-2-.66-2-2.11a2.08,2.08,0,0,1,1.75-2.37l1.17-.32c.55-.16.89-.31.89-1s-.24-1.12-1-1.12c-1,0-1.15.71-1.15,1.44H866.2c0-1.61.66-2.48,2.65-2.48,1.33,0,2.4.52,2.4,1.85ZM869.82,64a12.39,12.39,0,0,1-1.68.7,1.23,1.23,0,0,0-.62,1.22c0,.63.31,1.13.94,1.13.91,0,1.36-.67,1.36-1.79Z" fill="#3b4351"/><path d="M872.11,60.46h1V58.32h1.51v2.14h1.23v1.12h-1.23v4.5c0,.6.17.8.69.8a2.61,2.61,0,0,0,.54,0V68a4.64,4.64,0,0,1-1.22.13c-1,0-1.52-.29-1.52-1.82V61.58h-1Z" fill="#3b4351"/><path d="M876.75,57.88h1.51V59.4h-1.51Zm0,2.58h1.51V68h-1.51Z" fill="#3b4351"/><path d="M879.49,64.23c0-2.36.62-4,2.8-4s2.82,1.61,2.82,4-.73,4-2.82,4S879.49,66.58,879.49,64.23Zm2.8,2.84c1.11,0,1.3-.92,1.3-2.84,0-1.67-.19-2.85-1.3-2.85S881,62.56,881,64.23C881,66.15,881.21,67.07,882.29,67.07Z" fill="#3b4351"/><path d="M886.27,60.46h1.42v.88h0a2.15,2.15,0,0,1,1.93-1.08c1.15,0,1.88.52,1.88,2.05V68H890V62.83c0-1-.26-1.36-1-1.36-.61,0-1.2.46-1.2,1.47V68h-1.51Z" fill="#3b4351"/><path d="M896.06,64.23c0-2.36.62-4,2.81-4s2.81,1.61,2.81,4-.73,4-2.81,4S896.06,66.58,896.06,64.23Zm2.81,2.84c1.1,0,1.3-.92,1.3-2.84,0-1.67-.2-2.85-1.3-2.85s-1.29,1.18-1.29,2.85C897.58,66.15,897.79,67.07,898.87,67.07Z" fill="#3b4351"/><path d="M903.3,61.58h-1V60.46h1v-.7c0-1.42.69-1.88,1.92-1.88.32,0,.6,0,.83,0v1.17h-.42c-.56,0-.81.21-.81.71v.66h1.23v1.12h-1.23V68H903.3Z" fill="#3b4351"/><path d="M910.19,58h5.41v1.35h-3.81v2.77h3.58v1.35h-3.58v3.19h3.92V68h-5.52Z" fill="#3b4351"/><path d="M918.34,68.64a1,1,0,0,0,1.09.9,1.25,1.25,0,0,0,1.28-1.42V66.9h0a1.82,1.82,0,0,1-1.71,1c-1.75,0-2.26-1.72-2.26-3.8,0-1.65.26-3.88,2.4-3.88a1.66,1.66,0,0,1,1.65,1.12h0v-.92h1.43v7.17c0,1.84-.78,2.94-2.82,2.94-2.24,0-2.49-1.31-2.49-1.93Zm1.06-1.91c1.18,0,1.31-1.48,1.31-2.67s-.16-2.59-1.21-2.59-1.27,1.12-1.27,2.52S918.28,66.73,919.4,66.73Z" fill="#3b4351"/><path d="M924.57,60.46l1.3,5.66h0l1.2-5.66h1.59l-2.08,7.82c-.6,2-1.06,2.34-2.63,2.29a3,3,0,0,1-.6,0V69.31a2.05,2.05,0,0,0,.49.06c.52,0,.85-.1,1-.59l.2-.62-2.15-7.7Z" fill="#3b4351"/><path d="M932.77,68.19a1.71,1.71,0,0,1-1.7-1.08h0v3.35h-1.52v-10H931v.92h0a1.79,1.79,0,0,1,1.7-1.12c1.72,0,2.42,1.47,2.42,4.07C935.1,67.49,933.83,68.19,932.77,68.19Zm-.54-6.72c-1,0-1.28,1.05-1.28,2.67,0,1.81.23,2.85,1.29,2.85.86,0,1.26-.65,1.26-2.73C933.5,62.55,933.29,61.47,932.23,61.47Z" fill="#3b4351"/><path d="M935.59,60.46h1V58.32h1.52v2.14h1.23v1.12h-1.23v4.5c0,.6.16.8.68.8a2.64,2.64,0,0,0,.55,0V68a4.64,4.64,0,0,1-1.22.13c-1,0-1.53-.29-1.53-1.82V61.58h-1Z" fill="#3b4351"/><path d="M357.07,91.2h1.51v1.51h-1.51Zm0,2.57h1.51v7.54h-1.51Z" fill="#3b4351"/><path d="M360.11,93.77h1.43v.89h0a2.15,2.15,0,0,1,1.93-1.08c1.15,0,1.88.52,1.88,2v5.69h-1.51V96.14c0-1-.27-1.36-1.05-1.36-.62,0-1.21.46-1.21,1.47v5.06h-1.51Z" fill="#3b4351"/><path d="M366.17,93.77h1V91.63h1.51v2.14H370v1.12h-1.23v4.5c0,.6.17.8.69.8a2.7,2.7,0,0,0,.54,0v1.12a5.17,5.17,0,0,1-1.22.12c-1,0-1.52-.29-1.52-1.82V94.89h-1Z" fill="#3b4351"/><path d="M370.44,97.54c0-2.35.62-4,2.8-4s2.82,1.61,2.82,4-.73,4-2.82,4S370.44,99.9,370.44,97.54Zm2.8,2.85c1.11,0,1.3-.93,1.3-2.85,0-1.66-.19-2.84-1.3-2.84S372,95.88,372,97.54C372,99.46,372.16,100.39,373.24,100.39Z" fill="#3b4351"/><path d="M385.52,99.74c0,.28.17.53.39.53a.54.54,0,0,0,.25,0v1a1.55,1.55,0,0,1-.74.18c-.67,0-1.23-.26-1.27-1h0a2,2,0,0,1-1.88,1.11c-1.22,0-2-.66-2-2.12A2.08,2.08,0,0,1,382,97l1.18-.32c.55-.15.88-.31.88-1s-.24-1.12-1-1.12c-1,0-1.14.72-1.14,1.45h-1.43c0-1.61.66-2.48,2.64-2.48,1.34,0,2.4.52,2.4,1.85Zm-1.43-2.41a11.23,11.23,0,0,1-1.68.7,1.25,1.25,0,0,0-.62,1.22c0,.63.31,1.14.94,1.14.91,0,1.36-.68,1.36-1.8Z" fill="#3b4351"/><path d="M393.67,96v-.19c0-.61-.21-1.17-1-1.17-.6,0-1.08.27-1.08,1s.27.83,1.07,1.11l1,.34a2,2,0,0,1,1.64,2.17c0,1.61-1.19,2.3-2.7,2.3-1.9,0-2.48-.89-2.48-2.34v-.28h1.35v.24c0,.88.29,1.34,1.17,1.34s1.23-.42,1.23-1.11a1.08,1.08,0,0,0-.82-1.1l-1.23-.44a2,2,0,0,1-1.62-2.17c0-1.41,1-2.07,2.58-2.07,1.92,0,2.36,1.12,2.36,2.06V96Z" fill="#3b4351"/><path d="M395.71,93.77h1V91.63h1.51v2.14h1.23v1.12h-1.23v4.5c0,.6.17.8.68.8a2.75,2.75,0,0,0,.55,0v1.12a5.17,5.17,0,0,1-1.22.12c-1,0-1.52-.29-1.52-1.82V94.89h-1Z" fill="#3b4351"/><path d="M400.27,93.77h1.52V95h0a1.87,1.87,0,0,1,1.75-1.37.91.91,0,0,1,.37,0v1.54a2.24,2.24,0,0,0-.63-.08c-.69,0-1.51.31-1.51,1.71v4.51h-1.52Z" fill="#3b4351"/><path d="M404.39,97.54c0-2.35.62-4,2.8-4s2.82,1.61,2.82,4-.73,4-2.82,4S404.39,99.9,404.39,97.54Zm2.8,2.85c1.11,0,1.3-.93,1.3-2.85,0-1.66-.19-2.84-1.3-2.84s-1.29,1.18-1.29,2.84C405.9,99.46,406.11,100.39,407.19,100.39Z" fill="#3b4351"/><path d="M411.16,93.77h1.43v.89h.05a2.13,2.13,0,0,1,1.93-1.08c1.15,0,1.88.52,1.88,2v5.69h-1.52V96.14c0-1-.26-1.36-1.05-1.36-.61,0-1.2.46-1.2,1.47v5.06h-1.52Z" fill="#3b4351"/><path d="M419.41,102a1,1,0,0,0,1.09.9,1.25,1.25,0,0,0,1.28-1.41v-1.22h0a1.81,1.81,0,0,1-1.71,1c-1.75,0-2.25-1.72-2.25-3.79,0-1.65.25-3.88,2.39-3.88a1.65,1.65,0,0,1,1.65,1.12h0v-.93h1.43V101c0,1.83-.78,2.94-2.81,2.94-2.25,0-2.5-1.32-2.5-1.94Zm1.07-1.9c1.17,0,1.3-1.49,1.3-2.68s-.16-2.59-1.21-2.59-1.27,1.12-1.27,2.52S419.36,100.05,420.48,100.05Z" fill="#3b4351"/><path d="M428.45,94.89H427.4V93.77h1.05v-.7c0-1.41.69-1.87,1.92-1.87a6.47,6.47,0,0,1,.83,0V92.4h-.42c-.56,0-.81.21-.81.72v.65h1.23v1.12H430v6.42h-1.52Z" fill="#3b4351"/><path d="M433.19,97.74v.43c0,1,.12,2.3,1.26,2.3s1.2-1.22,1.2-1.68h1.43a2.48,2.48,0,0,1-2.65,2.72c-1.23,0-2.76-.37-2.76-3.86,0-2,.44-4.07,2.79-4.07,2.1,0,2.66,1.27,2.66,3.36v.8Zm2.42-1v-.4c0-1-.31-1.69-1.16-1.69s-1.26,1-1.26,1.94v.15Z" fill="#3b4351"/><path d="M442.22,100.43h0a2.18,2.18,0,0,1-1.94,1.08c-1.12,0-1.87-.52-1.87-2.47V93.77h1.51v5.41c0,.84.36,1.12,1,1.12A1.17,1.17,0,0,0,442.13,99V93.77h1.52v7.54h-1.43Z" fill="#3b4351"/><path d="M449,100.39h0a1.6,1.6,0,0,1-1.65,1.12c-1.75,0-2.46-1.49-2.46-4.07,0-3.34,1.17-3.86,2.32-3.86a1.73,1.73,0,0,1,1.71,1.08h0V91.31h1.51v10H449Zm-1.37-5.61c-.85,0-1.18.7-1.18,2.73,0,1.71.21,2.79,1.28,2.79s1.27-1,1.27-2.67C449,95.82,448.76,94.78,447.58,94.78Z" fill="#3b4351"/><path d="M456.78,99.74c0,.28.17.53.39.53a.54.54,0,0,0,.25,0v1a1.55,1.55,0,0,1-.74.18c-.67,0-1.23-.26-1.27-1h0a2,2,0,0,1-1.88,1.11c-1.22,0-2-.66-2-2.12A2.08,2.08,0,0,1,453.29,97l1.18-.32c.54-.15.88-.31.88-1s-.24-1.12-1-1.12c-1,0-1.15.72-1.15,1.45h-1.42c0-1.61.65-2.48,2.64-2.48,1.33,0,2.4.52,2.4,1.85Zm-1.43-2.41a11.23,11.23,0,0,1-1.68.7,1.25,1.25,0,0,0-.62,1.22c0,.63.31,1.14.94,1.14.91,0,1.36-.68,1.36-1.8Z" fill="#3b4351"/><path d="M458.39,91.31h1.51v10h-1.51Z" fill="#3b4351"/><path d="M466.11,98.21v.26c0,1.22.55,1.83,1.64,1.83a1.44,1.44,0,0,0,1.52-1.46,1.67,1.67,0,0,0-1.43-1.77l-1.09-.38a2.67,2.67,0,0,1-2.09-2.75c0-1.82,1.24-2.83,3.11-2.83,2.56,0,2.83,1.6,2.83,2.64V94H469v-.21c0-.91-.39-1.44-1.4-1.44a1.28,1.28,0,0,0-1.35,1.44c0,.85.44,1.29,1.5,1.69l1.08.4a2.53,2.53,0,0,1,2,2.64c0,2.13-1.29,3-3.3,3a2.75,2.75,0,0,1-3-3.06v-.24Z" fill="#3b4351"/><path d="M471.38,93.77h1V91.63h1.52v2.14h1.23v1.12h-1.23v4.5c0,.6.17.8.68.8a2.75,2.75,0,0,0,.55,0v1.12a5.17,5.17,0,0,1-1.22.12c-1,0-1.53-.29-1.53-1.82V94.89h-1Z" fill="#3b4351"/><path d="M480.89,99.74c0,.28.17.53.39.53a.54.54,0,0,0,.25,0v1a1.58,1.58,0,0,1-.74.18c-.67,0-1.23-.26-1.28-1h0a2,2,0,0,1-1.88,1.11c-1.22,0-2-.66-2-2.12A2.08,2.08,0,0,1,477.4,97l1.18-.32c.54-.15.88-.31.88-1s-.24-1.12-1-1.12c-1,0-1.15.72-1.15,1.45h-1.43c0-1.61.66-2.48,2.65-2.48,1.33,0,2.4.52,2.4,1.85Zm-1.43-2.41a11.23,11.23,0,0,1-1.68.7,1.23,1.23,0,0,0-.62,1.22c0,.63.31,1.14.94,1.14.91,0,1.36-.68,1.36-1.8Z" fill="#3b4351"/><path d="M481.75,93.77h1V91.63h1.51v2.14h1.23v1.12H484.3v4.5c0,.6.17.8.69.8a2.7,2.7,0,0,0,.54,0v1.12a5.08,5.08,0,0,1-1.21.12c-1,0-1.53-.29-1.53-1.82V94.89h-1Z" fill="#3b4351"/><path d="M487.62,97.74v.43c0,1,.13,2.3,1.26,2.3s1.2-1.22,1.2-1.68h1.43a2.48,2.48,0,0,1-2.64,2.72c-1.24,0-2.76-.37-2.76-3.86,0-2,.43-4.07,2.78-4.07,2.1,0,2.67,1.27,2.67,3.36v.8Zm2.42-1v-.4c0-1-.31-1.69-1.16-1.69s-1.26,1-1.26,1.94v.15Z" fill="#3b4351"/><path d="M500,100.43h0a2.17,2.17,0,0,1-1.93,1.08c-1.13,0-1.88-.52-1.88-2.47V93.77h1.51v5.41c0,.84.37,1.12,1,1.12A1.18,1.18,0,0,0,499.93,99V93.77h1.51v7.54H500Z" fill="#3b4351"/><path d="M502.89,93.77h1.43v.89h0a2.16,2.16,0,0,1,1.94-1.08c1.14,0,1.87.52,1.87,2v5.69h-1.51V96.14c0-1-.27-1.36-1.05-1.36-.62,0-1.21.46-1.21,1.47v5.06h-1.51Z" fill="#3b4351"/><path d="M513.48,100.39h0a1.61,1.61,0,0,1-1.65,1.12c-1.75,0-2.47-1.49-2.47-4.07,0-3.34,1.18-3.86,2.33-3.86a1.74,1.74,0,0,1,1.71,1.08h0V91.31h1.52v10h-1.43Zm-1.38-5.61c-.85,0-1.17.7-1.17,2.73,0,1.71.21,2.79,1.27,2.79s1.28-1,1.28-2.67C513.48,95.82,513.28,94.78,512.1,94.78Z" fill="#3b4351"/><path d="M517.66,97.74v.43c0,1,.13,2.3,1.26,2.3s1.21-1.22,1.21-1.68h1.43a2.48,2.48,0,0,1-2.65,2.72c-1.23,0-2.76-.37-2.76-3.86,0-2,.43-4.07,2.79-4.07,2.1,0,2.66,1.27,2.66,3.36v.8Zm2.43-1v-.4c0-1-.31-1.69-1.17-1.69s-1.26,1-1.26,1.94v.15Z" fill="#3b4351"/><path d="M522.84,93.77h1.51V95h0a1.87,1.87,0,0,1,1.75-1.37.94.94,0,0,1,.37,0v1.54a2.24,2.24,0,0,0-.63-.08c-.69,0-1.52.31-1.52,1.71v4.51h-1.51Z" fill="#3b4351"/><path d="M529.94,93.77h1V91.63h1.51v2.14h1.23v1.12h-1.23v4.5c0,.6.17.8.68.8a2.75,2.75,0,0,0,.55,0v1.12a5.17,5.17,0,0,1-1.22.12c-1,0-1.52-.29-1.52-1.82V94.89h-1Z" fill="#3b4351"/><path d="M534.5,91.31H536v3.28l0,0a2.15,2.15,0,0,1,1.85-1c1.15,0,1.87.52,1.87,2v5.69h-1.51V96.14c0-1-.28-1.36-1-1.36s-1.2.48-1.2,1.47v5.06H534.5Z" fill="#3b4351"/><path d="M542.54,97.74v.43c0,1,.13,2.3,1.26,2.3S545,99.25,545,98.79h1.42a2.48,2.48,0,0,1-2.64,2.72c-1.24,0-2.76-.37-2.76-3.86,0-2,.43-4.07,2.78-4.07,2.11,0,2.67,1.27,2.67,3.36v.8Zm2.42-1v-.4c0-1-.3-1.69-1.16-1.69s-1.26,1-1.26,1.94v.15Z" fill="#3b4351"/><path d="M552.3,92.65h-2.38V91.31h6.31v1.34h-2.34v8.66H552.3Z" fill="#3b4351"/><path d="M557,91.31h1.52v3.28l0,0a2.15,2.15,0,0,1,1.85-1c1.15,0,1.87.52,1.87,2v5.69h-1.51V96.14c0-1-.28-1.36-1-1.36s-1.2.48-1.2,1.47v5.06H557Z" fill="#3b4351"/><path d="M565.08,97.74v.43c0,1,.13,2.3,1.26,2.3s1.2-1.22,1.2-1.68H569a2.48,2.48,0,0,1-2.64,2.72c-1.24,0-2.76-.37-2.76-3.86,0-2,.43-4.07,2.78-4.07,2.11,0,2.67,1.27,2.67,3.36v.8Zm2.42-1v-.4c0-1-.3-1.69-1.16-1.69s-1.26,1-1.26,1.94v.15Z" fill="#3b4351"/><path d="M570.26,91.31h1.51v3.35h0a1.73,1.73,0,0,1,1.71-1.08c1.15,0,2.32.52,2.32,3.86,0,2.6-.71,4.07-2.46,4.07a1.6,1.6,0,0,1-1.65-1.12h0v.92h-1.43Zm2.7,9c1.07,0,1.28-1.08,1.28-2.79,0-2-.32-2.73-1.18-2.73-1.18,0-1.37,1-1.37,2.85C571.69,99.25,571.93,100.3,573,100.3Z" fill="#3b4351"/><path d="M581.94,99.74c0,.28.17.53.39.53a.54.54,0,0,0,.25,0v1a1.58,1.58,0,0,1-.74.18c-.67,0-1.23-.26-1.27-1h0a2,2,0,0,1-1.88,1.11c-1.22,0-2-.66-2-2.12A2.08,2.08,0,0,1,578.45,97l1.18-.32c.54-.15.88-.31.88-1s-.24-1.12-1-1.12c-1,0-1.15.72-1.15,1.45h-1.43c0-1.61.66-2.48,2.65-2.48,1.33,0,2.4.52,2.4,1.85Zm-1.43-2.41a11.23,11.23,0,0,1-1.68.7,1.23,1.23,0,0,0-.62,1.22c0,.63.31,1.14.94,1.14.91,0,1.36-.68,1.36-1.8Z" fill="#3b4351"/><path d="M583.48,93.77h1.42v.89H585a2.13,2.13,0,0,1,1.93-1.08c1.15,0,1.88.52,1.88,2v5.69h-1.52V96.14c0-1-.26-1.36-1-1.36-.61,0-1.2.46-1.2,1.47v5.06h-1.51Z" fill="#3b4351"/><path d="M593.67,91.31h1.59v4.36h0l3-4.36h1.75l-2.89,4.21,3.2,5.79h-1.81l-2.42-4.5-.89,1.26v3.24h-1.59Z" fill="#3b4351"/><path d="M600.91,91.2h1.51v1.51h-1.51Zm0,2.57h1.51v7.54h-1.51Z" fill="#3b4351"/><path d="M603.94,93.77h1.43v.89h0a2.16,2.16,0,0,1,1.94-1.08c1.15,0,1.87.52,1.87,2v5.69h-1.51V96.14c0-1-.27-1.36-1.05-1.36-.62,0-1.21.46-1.21,1.47v5.06h-1.51Z" fill="#3b4351"/><path d="M612.19,102a1,1,0,0,0,1.09.9,1.25,1.25,0,0,0,1.28-1.41v-1.22h0a1.81,1.81,0,0,1-1.71,1c-1.75,0-2.26-1.72-2.26-3.79,0-1.65.26-3.88,2.4-3.88a1.65,1.65,0,0,1,1.65,1.12h0v-.93h1.43V101c0,1.83-.79,2.94-2.82,2.94-2.24,0-2.49-1.32-2.49-1.94Zm1.06-1.9c1.18,0,1.31-1.49,1.31-2.68s-.16-2.59-1.21-2.59-1.27,1.12-1.27,2.52S612.13,100.05,613.25,100.05Z" fill="#3b4351"/><path d="M620.66,96v-.19c0-.61-.21-1.17-1-1.17-.6,0-1.07.27-1.07,1s.26.83,1.06,1.11l1,.34a2,2,0,0,1,1.64,2.17c0,1.61-1.19,2.3-2.71,2.3-1.9,0-2.48-.89-2.48-2.34v-.28h1.35v.24c0,.88.29,1.34,1.17,1.34s1.24-.42,1.24-1.11a1.09,1.09,0,0,0-.83-1.1l-1.23-.44a2,2,0,0,1-1.61-2.17c0-1.41,1-2.07,2.57-2.07,1.92,0,2.36,1.12,2.36,2.06V96Z" fill="#3b4351"/><path d="M623.53,99.46h1.59v1.85h-1.59Z" fill="#3b4351"/><path d="M690.48,91.31h2l2.63,10h-1.67l-.61-2.45H690l-.65,2.45h-1.66Zm2.13,6.27-1.15-4.93h0l-1.19,4.93Z" fill="#3b4351"/><path d="M695.83,93.77h1.43v.89h0a2.09,2.09,0,0,1,1.8-1.08,1.65,1.65,0,0,1,1.76,1.15,2,2,0,0,1,1.9-1.15c1.07,0,1.84.54,1.84,2v5.73h-1.52V96.14c0-1-.29-1.36-.91-1.36s-1.2.48-1.2,1.47v5.06h-1.52V96.14c0-1-.29-1.36-.92-1.36s-1.19.49-1.19,1.47v5.06h-1.51Z" fill="#3b4351"/><path d="M707.42,97.74v.43c0,1,.13,2.3,1.26,2.3s1.21-1.22,1.21-1.68h1.42a2.48,2.48,0,0,1-2.64,2.72c-1.24,0-2.76-.37-2.76-3.86,0-2,.43-4.07,2.78-4.07,2.11,0,2.67,1.27,2.67,3.36v.8Zm2.42-1v-.41c0-1-.31-1.68-1.16-1.68s-1.26,1-1.26,1.94v.15Z" fill="#3b4351"/><path d="M712.6,93.77H714v.89h0A2.15,2.15,0,0,1,716,93.58c1.15,0,1.88.52,1.88,2v5.69h-1.51V96.14c0-1-.27-1.36-1-1.36-.62,0-1.21.46-1.21,1.47v5.06H712.6Z" fill="#3b4351"/><path d="M720.64,97.74v.43c0,1,.12,2.3,1.26,2.3s1.2-1.22,1.2-1.68h1.43a2.48,2.48,0,0,1-2.65,2.72c-1.23,0-2.76-.37-2.76-3.86,0-2,.44-4.07,2.79-4.07,2.1,0,2.66,1.27,2.66,3.36v.8Zm2.42-1v-.41c0-1-.31-1.68-1.16-1.68s-1.26,1-1.26,1.94v.15Z" fill="#3b4351"/><path d="M725.88,93.77h1.43v.89h.05a2.08,2.08,0,0,1,1.8-1.08,1.63,1.63,0,0,1,1.75,1.15,2.07,2.07,0,0,1,1.91-1.15c1.06,0,1.83.54,1.83,2v5.73h-1.51V96.14c0-1-.29-1.36-.91-1.36s-1.2.48-1.2,1.47v5.06h-1.52V96.14c0-1-.29-1.36-.92-1.36s-1.19.49-1.19,1.47v5.06h-1.52Z" fill="#3b4351"/><path d="M736.17,91.31h1.52v3.28l0,0a2.15,2.15,0,0,1,1.85-1c1.15,0,1.88.52,1.88,2v5.69h-1.52V96.14c0-1-.28-1.36-1.05-1.36-.61,0-1.2.48-1.2,1.47v5.06h-1.52Z" fill="#3b4351"/><path d="M744.21,97.74v.43c0,1,.13,2.3,1.26,2.3s1.21-1.22,1.21-1.68h1.43a2.48,2.48,0,0,1-2.65,2.72c-1.23,0-2.76-.37-2.76-3.86,0-2,.43-4.07,2.79-4.07,2.1,0,2.66,1.27,2.66,3.36v.8Zm2.42-1v-.41c0-1-.3-1.68-1.16-1.68s-1.26,1-1.26,1.94v.15Z" fill="#3b4351"/><path d="M748.72,93.77h1V91.63h1.52v2.14h1.23v1.12h-1.23v4.5c0,.6.17.8.68.8a2.75,2.75,0,0,0,.55,0v1.12a5.17,5.17,0,0,1-1.22.12c-1,0-1.53-.29-1.53-1.82V94.89h-1Z" fill="#3b4351"/><path d="M756.67,91.31h1.6v10h-1.6Z" fill="#3b4351"/><path d="M763.11,91.31h1.51v3.35h0a1.73,1.73,0,0,1,1.71-1.08c1.15,0,2.32.52,2.32,3.86,0,2.6-.71,4.07-2.46,4.07a1.61,1.61,0,0,1-1.65-1.12h0v.92h-1.43Zm2.7,9c1.07,0,1.28-1.08,1.28-2.79,0-2-.32-2.73-1.18-2.73-1.18,0-1.37,1-1.37,2.85C764.54,99.25,764.78,100.3,765.81,100.3Z" fill="#3b4351"/><path d="M773.7,100.43h-.05a2.15,2.15,0,0,1-1.93,1.08c-1.12,0-1.88-.52-1.88-2.47V93.77h1.52v5.41c0,.84.36,1.12,1,1.12A1.17,1.17,0,0,0,773.61,99V93.77h1.51v7.54H773.7Z" fill="#3b4351"/><path d="M776.65,91.2h1.51v1.51h-1.51Zm0,2.57h1.51v7.54h-1.51Z" fill="#3b4351"/><path d="M779.76,91.31h1.51v10h-1.51Z" fill="#3b4351"/><path d="M786.65,100.39h0a1.61,1.61,0,0,1-1.66,1.12c-1.75,0-2.46-1.49-2.46-4.07,0-3.34,1.18-3.86,2.32-3.86a1.73,1.73,0,0,1,1.71,1.08h0V91.31h1.51v10h-1.42Zm-1.38-5.61c-.85,0-1.17.7-1.17,2.73,0,1.71.21,2.79,1.27,2.79s1.28-1,1.28-2.67C786.65,95.82,786.45,94.78,785.27,94.78Z" fill="#3b4351"/><path d="M792.78,96v-.19c0-.61-.21-1.17-1-1.17-.6,0-1.08.27-1.08,1s.27.83,1.07,1.11l1,.34a2,2,0,0,1,1.63,2.17c0,1.61-1.19,2.3-2.7,2.3-1.9,0-2.48-.89-2.48-2.34v-.28h1.35v.23c0,.89.29,1.35,1.17,1.35s1.24-.42,1.24-1.11a1.09,1.09,0,0,0-.83-1.1l-1.23-.44a2,2,0,0,1-1.61-2.17c0-1.41,1-2.07,2.57-2.07,1.92,0,2.36,1.12,2.36,2.06V96Z" fill="#3b4351"/><path d="M803.8,99.74c0,.28.16.53.39.53a.57.57,0,0,0,.25,0v1a1.58,1.58,0,0,1-.74.18c-.67,0-1.23-.26-1.28-1h0a2,2,0,0,1-1.88,1.11c-1.22,0-2-.66-2-2.12A2.08,2.08,0,0,1,800.31,97l1.17-.32c.55-.15.89-.31.89-1s-.24-1.12-1-1.12c-1,0-1.15.72-1.15,1.45h-1.43c0-1.61.66-2.48,2.65-2.48,1.33,0,2.4.52,2.4,1.85Zm-1.43-2.41a11.23,11.23,0,0,1-1.68.7,1.23,1.23,0,0,0-.62,1.22c0,.63.31,1.14.94,1.14.91,0,1.36-.68,1.36-1.8Z" fill="#3b4351"/><path d="M809.91,92.65h-2.38V91.31h6.32v1.34h-2.34v8.66h-1.6Z" fill="#3b4351"/><path d="M814.92,97.74v.43c0,1,.13,2.3,1.26,2.3s1.21-1.22,1.21-1.68h1.43a2.48,2.48,0,0,1-2.65,2.72c-1.23,0-2.76-.37-2.76-3.86,0-2,.44-4.07,2.79-4.07,2.1,0,2.66,1.27,2.66,3.36v.8Zm2.43-1v-.41c0-1-.31-1.68-1.17-1.68s-1.26,1-1.26,1.94v.15Z" fill="#3b4351"/><path d="M820.17,93.77h1.43v.89h0a2.11,2.11,0,0,1,1.81-1.08,1.63,1.63,0,0,1,1.75,1.15,2.07,2.07,0,0,1,1.91-1.15c1.06,0,1.83.54,1.83,2v5.73h-1.51V96.14c0-1-.29-1.36-.91-1.36s-1.21.48-1.21,1.47v5.06H823.8V96.14c0-1-.29-1.36-.92-1.36s-1.19.49-1.19,1.47v5.06h-1.52Z" fill="#3b4351"/><path d="M833.71,101.51a1.74,1.74,0,0,1-1.71-1.08h0v3.34h-1.52v-10h1.43v.93h0a1.78,1.78,0,0,1,1.69-1.12c1.73,0,2.43,1.47,2.43,4.06C836,100.81,834.76,101.51,833.71,101.51Zm-.54-6.73c-1,0-1.28,1-1.28,2.68,0,1.8.23,2.84,1.29,2.84.86,0,1.26-.64,1.26-2.73C834.44,95.86,834.23,94.78,833.17,94.78Z" fill="#3b4351"/><path d="M837.27,91.31h1.51v10h-1.51Z" fill="#3b4351"/><path d="M841.61,97.74v.43c0,1,.12,2.3,1.26,2.3s1.2-1.22,1.2-1.68h1.43a2.48,2.48,0,0,1-2.65,2.72c-1.23,0-2.76-.37-2.76-3.86,0-2,.44-4.07,2.79-4.07,2.1,0,2.66,1.27,2.66,3.36v.8Zm2.42-1v-.41c0-1-.31-1.68-1.16-1.68s-1.26,1-1.26,1.94v.15Z" fill="#3b4351"/><path d="M849.85,97.54c0-2.35.62-4,2.8-4s2.82,1.61,2.82,4-.73,4-2.82,4S849.85,99.9,849.85,97.54Zm2.8,2.85c1.11,0,1.31-.93,1.31-2.85,0-1.66-.2-2.84-1.31-2.84s-1.28,1.18-1.28,2.84C851.37,99.46,851.58,100.39,852.65,100.39Z" fill="#3b4351"/><path d="M857.09,94.89H856V93.77h1.05v-.7c0-1.41.69-1.87,1.92-1.87a6.67,6.67,0,0,1,.83,0V92.4h-.42c-.56,0-.82.21-.82.72v.65h1.24v1.12H858.6v6.42h-1.51Z" fill="#3b4351"/><path d="M865.35,91.31h2l2.63,10h-1.67l-.61-2.45h-2.93l-.64,2.45h-1.67Zm2.13,6.27-1.15-4.93h0l-1.19,4.93Z" fill="#3b4351"/><path d="M870.7,93.77h1.43v.89h0A2.09,2.09,0,0,1,874,93.58a1.64,1.64,0,0,1,1.75,1.15,2,2,0,0,1,1.9-1.15c1.07,0,1.84.54,1.84,2v5.73H878V96.14c0-1-.29-1.36-.91-1.36s-1.2.48-1.2,1.47v5.06h-1.51V96.14c0-1-.3-1.36-.93-1.36s-1.19.49-1.19,1.47v5.06H870.7Z" fill="#3b4351"/><path d="M881.06,93.77h1.43v.89h0a2.09,2.09,0,0,1,1.81-1.08,1.64,1.64,0,0,1,1.75,1.15,2,2,0,0,1,1.9-1.15c1.07,0,1.84.54,1.84,2v5.73h-1.52V96.14c0-1-.29-1.36-.91-1.36s-1.2.48-1.2,1.47v5.06h-1.51V96.14c0-1-.3-1.36-.93-1.36s-1.19.49-1.19,1.47v5.06h-1.51Z" fill="#3b4351"/><path d="M891.05,97.54c0-2.35.62-4,2.81-4s2.81,1.61,2.81,4-.73,4-2.81,4S891.05,99.9,891.05,97.54Zm2.81,2.85c1.1,0,1.3-.93,1.3-2.85,0-1.66-.2-2.84-1.3-2.84s-1.29,1.18-1.29,2.84C892.57,99.46,892.78,100.39,893.86,100.39Z" fill="#3b4351"/><path d="M897.83,93.77h1.43v.89h0a2.15,2.15,0,0,1,1.93-1.08c1.15,0,1.88.52,1.88,2v5.69H901.6V96.14c0-1-.27-1.36-1.05-1.36-.62,0-1.21.46-1.21,1.47v5.06h-1.51Z" fill="#3b4351"/><path d="M912.87,99.74c0,.28.17.53.39.53a.54.54,0,0,0,.25,0v1a1.58,1.58,0,0,1-.74.18c-.67,0-1.23-.26-1.27-1h0a2,2,0,0,1-1.88,1.11c-1.22,0-2-.66-2-2.12A2.08,2.08,0,0,1,909.38,97l1.18-.32c.54-.15.88-.31.88-1s-.24-1.12-1-1.12c-1,0-1.14.72-1.14,1.45h-1.43c0-1.61.65-2.48,2.64-2.48,1.33,0,2.4.52,2.4,1.85Zm-1.43-2.41a11.23,11.23,0,0,1-1.68.7,1.23,1.23,0,0,0-.62,1.22c0,.63.31,1.14.94,1.14.91,0,1.36-.68,1.36-1.8Z" fill="#3b4351"/><path d="M913.73,93.77h1V91.63h1.51v2.14h1.24v1.12h-1.24v4.5c0,.6.17.8.69.8a2.81,2.81,0,0,0,.55,0v1.12a5.23,5.23,0,0,1-1.22.12c-1,0-1.53-.29-1.53-1.82V94.89h-1Z" fill="#3b4351"/><path d="M922.88,92.65H920.5V91.31h6.31v1.34h-2.33v8.66h-1.6Z" fill="#3b4351"/><path d="M927.62,91.31h1.52v3.28l0,0a2.15,2.15,0,0,1,1.85-1c1.15,0,1.87.52,1.87,2v5.69h-1.51V96.14c0-1-.28-1.36-1-1.36s-1.2.48-1.2,1.47v5.06h-1.52Z" fill="#3b4351"/><path d="M935.66,97.74v.43c0,1,.13,2.3,1.26,2.3s1.2-1.22,1.2-1.68h1.43a2.48,2.48,0,0,1-2.64,2.72c-1.24,0-2.76-.37-2.76-3.86,0-2,.43-4.07,2.78-4.07,2.11,0,2.67,1.27,2.67,3.36v.8Zm2.42-1v-.41c0-1-.31-1.68-1.16-1.68s-1.26,1-1.26,1.94v.15Z" fill="#3b4351"/><path d="M940.84,91.31h1.51v3.35h0a1.73,1.73,0,0,1,1.71-1.08c1.15,0,2.32.52,2.32,3.86,0,2.6-.71,4.07-2.46,4.07a1.6,1.6,0,0,1-1.65-1.12h0v.92h-1.43Zm2.7,9c1.07,0,1.28-1.08,1.28-2.79,0-2-.32-2.73-1.18-2.73-1.18,0-1.37,1-1.37,2.85C942.27,99.25,942.51,100.3,943.54,100.3Z" fill="#3b4351"/><path d="M948.88,97.74v.43c0,1,.12,2.3,1.26,2.3s1.2-1.22,1.2-1.68h1.43a2.48,2.48,0,0,1-2.65,2.72c-1.23,0-2.76-.37-2.76-3.86,0-2,.44-4.07,2.79-4.07,2.1,0,2.66,1.27,2.66,3.36v.8Zm2.42-1v-.41c0-1-.31-1.68-1.16-1.68s-1.26,1-1.26,1.94v.15Z" fill="#3b4351"/><path d="M957.31,96v-.19c0-.61-.22-1.17-1-1.17-.6,0-1.08.27-1.08,1s.27.83,1.07,1.11l1,.34a2,2,0,0,1,1.64,2.17c0,1.61-1.19,2.3-2.7,2.3-1.91,0-2.48-.89-2.48-2.34v-.28h1.34v.23c0,.89.3,1.35,1.18,1.35s1.23-.42,1.23-1.11a1.09,1.09,0,0,0-.82-1.1l-1.24-.44a2,2,0,0,1-1.61-2.17c0-1.41,1-2.07,2.58-2.07,1.92,0,2.35,1.12,2.35,2.06V96Z" fill="#3b4351"/><path d="M960.17,99.46h1.6v1.85h-1.6Z" fill="#3b4351"/></g></g><g id="Ageans"><g id="Title"><g id="small-3" data-name="small"><path d="M116.16,14.16h2.49l1.77,7.41h0l1.73-7.41h2.44v10h-1.51V15.84h0l-2,8.32h-1.34l-2-8.32h0v8.32h-1.51Z" fill="#3b4351"/><path d="M127.47,20.59V21c0,1,.13,2.3,1.26,2.3s1.21-1.22,1.21-1.68h1.43a2.48,2.48,0,0,1-2.65,2.72c-1.23,0-2.76-.37-2.76-3.85,0-2,.43-4.08,2.79-4.08,2.1,0,2.66,1.27,2.66,3.36v.8Zm2.43-1v-.4c0-.95-.31-1.68-1.17-1.68s-1.26,1-1.26,1.93v.15Z" fill="#3b4351"/><path d="M136.5,23.24h0a1.62,1.62,0,0,1-1.66,1.12c-1.75,0-2.46-1.49-2.46-4.06,0-3.35,1.18-3.87,2.32-3.87a1.74,1.74,0,0,1,1.71,1.08h0V14.16h1.51v10H136.5Zm-1.37-5.61c-.85,0-1.17.71-1.17,2.74,0,1.71.21,2.78,1.27,2.78s1.27-1,1.27-2.67C136.5,18.67,136.31,17.63,135.13,17.63Z" fill="#3b4351"/><path d="M139.46,14.05H141v1.51h-1.51Zm0,2.58H141v7.53h-1.51Z" fill="#3b4351"/><path d="M141.82,16.63h1V14.48h1.51v2.15h1.23v1.12h-1.23v4.49c0,.61.17.8.69.8a2.7,2.7,0,0,0,.54,0v1.12a5,5,0,0,1-1.21.13c-1,0-1.53-.3-1.53-1.82V17.75h-1Z" fill="#3b4351"/><path d="M147.69,20.59V21c0,1,.13,2.3,1.26,2.3s1.2-1.22,1.2-1.68h1.43a2.48,2.48,0,0,1-2.64,2.72c-1.24,0-2.76-.37-2.76-3.85,0-2,.43-4.08,2.78-4.08,2.1,0,2.67,1.27,2.67,3.36v.8Zm2.42-1v-.4c0-.95-.31-1.68-1.16-1.68s-1.26,1-1.26,1.93v.15Z" fill="#3b4351"/><path d="M152.87,16.63h1.51V17.8h0a1.87,1.87,0,0,1,1.75-1.37.73.73,0,0,1,.36.06V18a2.11,2.11,0,0,0-.63-.09c-.68,0-1.51.31-1.51,1.71v4.51h-1.51Z" fill="#3b4351"/><path d="M157.28,16.63h1.51V17.8h0a1.87,1.87,0,0,1,1.75-1.37.73.73,0,0,1,.36.06V18a2.11,2.11,0,0,0-.63-.09c-.68,0-1.51.31-1.51,1.71v4.51h-1.51Z" fill="#3b4351"/><path d="M166.55,22.59c0,.28.17.54.39.54a.52.52,0,0,0,.25-.05v1a1.58,1.58,0,0,1-.74.19c-.67,0-1.23-.27-1.27-1h0a2,2,0,0,1-1.88,1.11c-1.22,0-2-.66-2-2.12a2.06,2.06,0,0,1,1.75-2.36l1.18-.33c.54-.15.88-.3.88-1s-.24-1.12-1-1.12c-1,0-1.15.71-1.15,1.44h-1.42c0-1.61.65-2.48,2.64-2.48,1.33,0,2.4.52,2.4,1.85Zm-1.43-2.41a11.23,11.23,0,0,1-1.68.7,1.23,1.23,0,0,0-.62,1.22c0,.63.31,1.14.94,1.14.91,0,1.36-.67,1.36-1.8Z" fill="#3b4351"/><path d="M168.09,16.63h1.42v.88h.05a2.15,2.15,0,0,1,1.93-1.08c1.15,0,1.88.52,1.88,2.05v5.68h-1.52V19c0-1-.26-1.36-1-1.36-.61,0-1.2.47-1.2,1.48v5.05h-1.51Z" fill="#3b4351"/><path d="M176.12,20.59V21c0,1,.13,2.3,1.26,2.3s1.21-1.22,1.21-1.68H180a2.48,2.48,0,0,1-2.65,2.72c-1.23,0-2.76-.37-2.76-3.85,0-2,.43-4.08,2.79-4.08,2.1,0,2.66,1.27,2.66,3.36v.8Zm2.43-1v-.4c0-.95-.31-1.68-1.17-1.68s-1.26,1-1.26,1.93v.15Z" fill="#3b4351"/><path d="M186.25,22.59c0,.28.16.54.39.54a.55.55,0,0,0,.25-.05v1a1.58,1.58,0,0,1-.74.19c-.67,0-1.23-.27-1.28-1h0A2,2,0,0,1,183,24.36c-1.22,0-2-.66-2-2.12a2.06,2.06,0,0,1,1.75-2.36l1.17-.33c.55-.15.89-.3.89-1s-.24-1.12-1-1.12c-1,0-1.15.71-1.15,1.44H181.2c0-1.61.66-2.48,2.65-2.48,1.33,0,2.4.52,2.4,1.85Zm-1.43-2.41a11.23,11.23,0,0,1-1.68.7,1.23,1.23,0,0,0-.62,1.22c0,.63.31,1.14.94,1.14.91,0,1.36-.67,1.36-1.8Z" fill="#3b4351"/><path d="M187.78,16.63h1.43v.88h0a2.18,2.18,0,0,1,1.94-1.08c1.15,0,1.87.52,1.87,2.05v5.68h-1.51V19c0-1-.26-1.36-1.05-1.36-.62,0-1.2.47-1.2,1.48v5.05h-1.52Z" fill="#3b4351"/><path d="M199.35,14.16h2l2.64,10h-1.67l-.62-2.45h-2.92l-.65,2.45h-1.66Zm2.13,6.28-1.15-4.93h0l-1.19,4.93Z" fill="#3b4351"/><path d="M205.93,20.59V21c0,1,.12,2.3,1.26,2.3s1.2-1.22,1.2-1.68h1.43a2.48,2.48,0,0,1-2.64,2.72c-1.24,0-2.76-.37-2.76-3.85,0-2,.43-4.08,2.78-4.08,2.1,0,2.66,1.27,2.66,3.36v.8Zm2.42-1v-.4c0-.95-.31-1.68-1.16-1.68s-1.26,1-1.26,1.93v.15Z" fill="#3b4351"/><path d="M212.62,24.81a1,1,0,0,0,1.09.89A1.25,1.25,0,0,0,215,24.29V23.07h0a1.82,1.82,0,0,1-1.71,1c-1.75,0-2.25-1.73-2.25-3.8,0-1.65.25-3.88,2.39-3.88A1.65,1.65,0,0,1,215,17.55h0v-.92h1.43V23.8c0,1.83-.78,2.94-2.82,2.94-2.24,0-2.49-1.32-2.49-1.93Zm1.06-1.91c1.18,0,1.31-1.48,1.31-2.67s-.16-2.6-1.21-2.6-1.27,1.13-1.27,2.53S212.56,22.9,213.68,22.9Z" fill="#3b4351"/><path d="M219.14,20.59V21c0,1,.13,2.3,1.27,2.3s1.2-1.22,1.2-1.68H223a2.48,2.48,0,0,1-2.65,2.72c-1.23,0-2.76-.37-2.76-3.85,0-2,.44-4.08,2.79-4.08,2.1,0,2.66,1.27,2.66,3.36v.8Zm2.43-1v-.4c0-.95-.31-1.68-1.16-1.68s-1.27,1-1.27,1.93v.15Z" fill="#3b4351"/><path d="M229.27,22.59c0,.28.17.54.39.54a.52.52,0,0,0,.25-.05v1a1.58,1.58,0,0,1-.74.19c-.67,0-1.23-.27-1.27-1h0A2,2,0,0,1,226,24.36c-1.22,0-2-.66-2-2.12a2.06,2.06,0,0,1,1.75-2.36l1.18-.33c.54-.15.88-.3.88-1s-.24-1.12-1-1.12c-1,0-1.15.71-1.15,1.44h-1.42c0-1.61.65-2.48,2.64-2.48,1.33,0,2.4.52,2.4,1.85Zm-1.43-2.41a11.23,11.23,0,0,1-1.68.7,1.23,1.23,0,0,0-.62,1.22c0,.63.31,1.14.94,1.14.91,0,1.36-.67,1.36-1.8Z" fill="#3b4351"/><path d="M230.81,16.63h1.42v.88h.05a2.15,2.15,0,0,1,1.93-1.08c1.15,0,1.88.52,1.88,2.05v5.68h-1.52V19c0-1-.26-1.36-1-1.36-.61,0-1.2.47-1.2,1.48v5.05h-1.51Z" fill="#3b4351"/><path d="M240.79,18.83v-.2c0-.6-.21-1.16-1-1.16-.6,0-1.07.26-1.07,1s.26.82,1.06,1.1l1,.34a2,2,0,0,1,1.64,2.17c0,1.61-1.19,2.3-2.71,2.3-1.9,0-2.48-.88-2.48-2.34v-.28h1.35V22c0,.88.29,1.34,1.17,1.34s1.24-.42,1.24-1.1a1.09,1.09,0,0,0-.83-1.11l-1.23-.44a2,2,0,0,1-1.61-2.17c0-1.41,1-2.07,2.57-2.07,1.92,0,2.36,1.12,2.36,2.06v.34Z" fill="#3b4351"/><path d="M106.71,39.39c0-2.35.62-4,2.8-4s2.82,1.61,2.82,4-.73,4-2.82,4S106.71,41.75,106.71,39.39Zm2.8,2.85c1.11,0,1.31-.93,1.31-2.85,0-1.66-.2-2.84-1.31-2.84s-1.29,1.18-1.29,2.84C108.22,41.31,108.43,42.24,109.51,42.24Z" fill="#3b4351"/><path d="M113.49,35.63H115V36.8h0a1.85,1.85,0,0,1,1.75-1.37.73.73,0,0,1,.36.06V37a2.11,2.11,0,0,0-.63-.09c-.68,0-1.51.31-1.51,1.71v4.51h-1.51Z" fill="#3b4351"/><path d="M124.51,37.83v-.2c0-.6-.21-1.16-1-1.16-.6,0-1.08.26-1.08,1s.27.82,1.07,1.1l1,.34a2,2,0,0,1,1.64,2.17c0,1.61-1.19,2.3-2.7,2.3-1.91,0-2.48-.88-2.48-2.34v-.28h1.35V41c0,.88.29,1.34,1.17,1.34s1.23-.42,1.23-1.1a1.09,1.09,0,0,0-.82-1.11l-1.23-.44A2,2,0,0,1,121,37.5c0-1.41,1-2.07,2.58-2.07,1.92,0,2.35,1.12,2.35,2.06v.34Z" fill="#3b4351"/><path d="M128.52,39.59V40c0,1,.13,2.3,1.26,2.3S131,41.1,131,40.64h1.43a2.48,2.48,0,0,1-2.65,2.72c-1.23,0-2.76-.37-2.76-3.85,0-2,.43-4.08,2.79-4.08,2.1,0,2.66,1.27,2.66,3.36v.8Zm2.43-1v-.4c0-.95-.31-1.68-1.17-1.68s-1.26,1-1.26,1.93v.15Z" fill="#3b4351"/><path d="M138.65,41.59c0,.28.17.54.39.54a.52.52,0,0,0,.25-.05v1a1.58,1.58,0,0,1-.74.19c-.67,0-1.23-.27-1.28-1h0a2,2,0,0,1-1.88,1.11c-1.22,0-2-.66-2-2.12a2.06,2.06,0,0,1,1.75-2.36l1.18-.33c.54-.15.88-.3.88-1s-.24-1.12-1-1.12c-1,0-1.15.71-1.15,1.44H133.6c0-1.61.66-2.48,2.65-2.48,1.33,0,2.4.52,2.4,1.85Zm-1.43-2.41a11.23,11.23,0,0,1-1.68.7,1.23,1.23,0,0,0-.62,1.22c0,.63.31,1.14.94,1.14.91,0,1.36-.67,1.36-1.8Z" fill="#3b4351"/><path d="M140.09,38.4h3.67v1.43h-3.67Z" fill="#3b4351"/><path d="M146.62,43.81a1,1,0,0,0,1.1.89A1.24,1.24,0,0,0,149,43.29V42.07h0a1.82,1.82,0,0,1-1.7,1c-1.76,0-2.26-1.73-2.26-3.8,0-1.65.25-3.88,2.4-3.88a1.66,1.66,0,0,1,1.65,1.12h0v-.92h1.42V42.8c0,1.83-.78,2.94-2.81,2.94-2.24,0-2.49-1.32-2.49-1.93Zm1.07-1.91c1.18,0,1.3-1.48,1.3-2.67s-.15-2.6-1.2-2.6-1.28,1.13-1.28,2.53S146.57,41.9,147.69,41.9Z" fill="#3b4351"/><path d="M151.55,39.39c0-2.35.62-4,2.8-4s2.82,1.61,2.82,4-.73,4-2.82,4S151.55,41.75,151.55,39.39Zm2.8,2.85c1.11,0,1.31-.93,1.31-2.85,0-1.66-.2-2.84-1.31-2.84s-1.29,1.18-1.29,2.84C153.06,41.31,153.27,42.24,154.35,42.24Z" fill="#3b4351"/><path d="M158.4,33.05h1.51v1.51H158.4Zm0,2.58h1.51v7.53H158.4Z" fill="#3b4351"/><path d="M161.44,35.63h1.42v.88h0a2.17,2.17,0,0,1,1.93-1.08c1.15,0,1.88.52,1.88,2v5.68H165.2V38c0-1-.26-1.36-1-1.36-.61,0-1.2.47-1.2,1.48v5h-1.51Z" fill="#3b4351"/><path d="M169.68,43.81a1,1,0,0,0,1.1.89,1.24,1.24,0,0,0,1.27-1.41V42.07h0a1.82,1.82,0,0,1-1.71,1c-1.75,0-2.25-1.73-2.25-3.8,0-1.65.25-3.88,2.39-3.88a1.66,1.66,0,0,1,1.66,1.12h0v-.92h1.43V42.8c0,1.83-.78,2.94-2.81,2.94-2.24,0-2.5-1.32-2.5-1.93Zm1.07-1.91c1.17,0,1.3-1.48,1.3-2.67s-.15-2.6-1.2-2.6-1.28,1.13-1.28,2.53S169.63,41.9,170.75,41.9Z" fill="#3b4351"/><path d="M183.35,40.42c-.11,1.8-.7,2.94-2.58,2.94-2.18,0-2.8-1.61-2.8-4s.62-4,2.8-4a2.43,2.43,0,0,1,2.59,2.7h-1.51c0-.7-.18-1.62-1.08-1.58-1.08,0-1.29,1.18-1.29,2.84s.21,2.85,1.29,2.85c.84,0,1.15-.69,1.15-1.82Z" fill="#3b4351"/><path d="M184.48,35.63H186V36.8h0a1.87,1.87,0,0,1,1.75-1.37.77.77,0,0,1,.37.06V37a2.25,2.25,0,0,0-.64-.09c-.68,0-1.51.31-1.51,1.71v4.51h-1.51Z" fill="#3b4351"/><path d="M190.11,39.59V40c0,1,.12,2.3,1.26,2.3s1.2-1.22,1.2-1.68H194a2.48,2.48,0,0,1-2.65,2.72c-1.23,0-2.76-.37-2.76-3.85,0-2,.44-4.08,2.79-4.08,2.1,0,2.66,1.27,2.66,3.36v.8Zm2.42-1v-.4c0-.95-.31-1.68-1.16-1.68s-1.26,1-1.26,1.93v.15Z" fill="#3b4351"/><path d="M194.61,35.63h1V33.48h1.51v2.15h1.24v1.12h-1.24v4.49c0,.61.17.8.69.8a2.81,2.81,0,0,0,.55,0v1.12a5.17,5.17,0,0,1-1.22.13c-1,0-1.53-.3-1.53-1.82V36.75h-1Z" fill="#3b4351"/><path d="M204.12,41.59c0,.28.17.54.4.54a.55.55,0,0,0,.25-.05v1a1.58,1.58,0,0,1-.74.19c-.68,0-1.24-.27-1.28-1h0a1.94,1.94,0,0,1-1.87,1.11c-1.22,0-2-.66-2-2.12a2.07,2.07,0,0,1,1.76-2.36l1.17-.33c.55-.15.88-.3.88-1s-.23-1.12-1-1.12c-1,0-1.15.71-1.15,1.44h-1.43c0-1.61.66-2.48,2.65-2.48,1.33,0,2.39.52,2.39,1.85Zm-1.43-2.41a10.81,10.81,0,0,1-1.68.7,1.24,1.24,0,0,0-.61,1.22c0,.63.31,1.14.94,1.14.91,0,1.35-.67,1.35-1.8Z" fill="#3b4351"/><path d="M205.66,35.63h1.43v.88h0a2.17,2.17,0,0,1,1.93-1.08c1.15,0,1.88.52,1.88,2v5.68h-1.51V38c0-1-.27-1.36-1.05-1.36-.62,0-1.21.47-1.21,1.48v5h-1.51Z" fill="#3b4351"/><path d="M215.64,37.83v-.2c0-.6-.21-1.16-1-1.16-.6,0-1.08.26-1.08,1s.27.82,1.07,1.1l1,.34a2,2,0,0,1,1.64,2.17c0,1.61-1.19,2.3-2.7,2.3-1.91,0-2.48-.88-2.48-2.34v-.28h1.34V41c0,.88.3,1.34,1.18,1.34s1.23-.42,1.23-1.1a1.09,1.09,0,0,0-.82-1.11l-1.24-.44a2,2,0,0,1-1.61-2.17c0-1.41,1-2.07,2.58-2.07,1.92,0,2.35,1.12,2.35,2.06v.34Z" fill="#3b4351"/><path d="M221.42,39.39c0-2.35.62-4,2.81-4S227,37,227,39.39s-.73,4-2.81,4S221.42,41.75,221.42,39.39Zm2.81,2.85c1.1,0,1.3-.93,1.3-2.85,0-1.66-.2-2.84-1.3-2.84s-1.29,1.18-1.29,2.84C222.94,41.31,223.15,42.24,224.23,42.24Z" fill="#3b4351"/><path d="M228.66,36.75h-1V35.63h1v-.7c0-1.42.69-1.88,1.92-1.88a6.67,6.67,0,0,1,.83,0v1.16H231c-.56,0-.81.21-.81.72v.66h1.23v1.12h-1.23v6.41h-1.52Z" fill="#3b4351"/><path d="M234.78,35.63h1V33.48h1.51v2.15h1.23v1.12h-1.23v4.49c0,.61.17.8.69.8a2.7,2.7,0,0,0,.54,0v1.12a5.11,5.11,0,0,1-1.22.13c-1,0-1.52-.3-1.52-1.82V36.75h-1Z" fill="#3b4351"/><path d="M239.34,33.16h1.52v3.28l0,0a2.14,2.14,0,0,1,1.85-1c1.15,0,1.88.52,1.88,2v5.68h-1.52V38c0-1-.28-1.36-1.05-1.36-.61,0-1.2.48-1.2,1.48v5h-1.52Z" fill="#3b4351"/><path d="M247.38,39.59V40c0,1,.13,2.3,1.26,2.3s1.21-1.22,1.21-1.68h1.43a2.48,2.48,0,0,1-2.65,2.72c-1.24,0-2.76-.37-2.76-3.85,0-2,.43-4.08,2.79-4.08,2.1,0,2.66,1.27,2.66,3.36v.8Zm2.42-1v-.4c0-.95-.3-1.68-1.16-1.68s-1.26,1-1.26,1.93v.15Z" fill="#3b4351"/></g><g id="large-3" data-name="large"><path d="M98.82,59.66h9.33V62h-6.54v4.86h6.15v2.35h-6.15v7.94H98.82Z" fill="#3b4351"/><path d="M110.11,59.47h2.65v2.64h-2.65Zm0,4.51h2.65V77.16h-2.65Z" fill="#3b4351"/><path d="M115.43,64h2.64V66h.05a3.26,3.26,0,0,1,3.07-2.4,1.5,1.5,0,0,1,.63.1v2.7a3.42,3.42,0,0,0-1.1-.15c-1.2,0-2.65.54-2.65,3v7.89h-2.64Z" fill="#3b4351"/><path d="M128.83,67.82v-.34c0-1-.37-2-1.74-2-1,0-1.89.46-1.89,1.71,0,1,.47,1.45,1.87,1.94l1.69.59c2,.66,2.86,1.71,2.86,3.79,0,2.82-2.08,4-4.73,4-3.33,0-4.33-1.54-4.33-4.09v-.49h2.35v.42c0,1.54.51,2.35,2.06,2.35s2.15-.74,2.15-1.94a1.91,1.91,0,0,0-1.44-1.93l-2.16-.76c-2-.66-2.82-1.69-2.82-3.8,0-2.48,1.77-3.63,4.51-3.63,3.36,0,4.12,2,4.12,3.6v.59Z" fill="#3b4351"/><path d="M132.41,64h1.81V60.23h2.65V64H139v2h-2.15V73.8c0,1.06.29,1.4,1.2,1.4a5.87,5.87,0,0,0,1-.07v2a8.93,8.93,0,0,1-2.13.22c-1.76,0-2.67-.52-2.67-3.19V65.94h-1.81Z" fill="#3b4351"/><path d="M146.44,59.66h4.37l3.08,13h.05l3-13h4.27v17.5H158.6V62.6h0L155,77.16h-2.35L149.14,62.6h0V77.16h-2.65Z" fill="#3b4351"/><path d="M164.08,59.47h2.65v2.64h-2.65Zm0,4.51h2.65V77.16h-2.65Z" fill="#3b4351"/><path d="M176.14,75.54h0a2.82,2.82,0,0,1-2.89,2c-3.07,0-4.32-2.6-4.32-7.1,0-5.86,2.06-6.77,4.07-6.77a3,3,0,0,1,3,1.89H176V59.66h2.65v17.5h-2.5Zm-2.4-9.8c-1.5,0-2.06,1.22-2.06,4.78,0,3,.37,4.87,2.23,4.87s2.23-1.83,2.23-4.68C176.14,67.55,175.8,65.74,173.74,65.74Z" fill="#3b4351"/><path d="M187.92,75.54h0a2.82,2.82,0,0,1-2.89,2c-3.06,0-4.31-2.6-4.31-7.1,0-5.86,2.06-6.77,4.07-6.77a3.05,3.05,0,0,1,3,1.89h.05V59.66h2.64v17.5h-2.5Zm-2.4-9.8c-1.49,0-2.06,1.22-2.06,4.78,0,3,.37,4.87,2.23,4.87s2.23-1.83,2.23-4.68C187.92,67.55,187.58,65.74,185.52,65.74Z" fill="#3b4351"/><path d="M193.09,59.66h2.65v17.5h-2.65Z" fill="#3b4351"/><path d="M200.68,70.91v.76c0,1.76.23,4,2.21,4S205,73.56,205,72.75h2.5c0,3-1.77,4.75-4.63,4.75-2.16,0-4.83-.64-4.83-6.74,0-3.45.76-7.13,4.87-7.13,3.68,0,4.66,2.23,4.66,5.88v1.4Zm4.24-1.81v-.71c0-1.67-.53-2.94-2-2.94-1.67,0-2.21,1.66-2.21,3.38v.27Z" fill="#3b4351"/><path d="M215.8,59.66h4.36l3.09,13h.05l3-13h4.26v17.5H228V62.6h-.05l-3.53,14.56H222L218.5,62.6h-.05V77.16H215.8Z" fill="#3b4351"/><path d="M233.44,59.47h2.65v2.64h-2.65Zm0,4.51h2.65V77.16h-2.65Z" fill="#3b4351"/><path d="M238.76,64h2.5v1.54h.07a3.77,3.77,0,0,1,3.38-1.89c2,0,3.28.91,3.28,3.58v10h-2.64v-9c0-1.77-.47-2.38-1.84-2.38-1.08,0-2.11.81-2.11,2.57v8.85h-2.64Z" fill="#3b4351"/><path d="M250,70.57c0-4.12,1.07-6.94,4.9-6.94s4.92,2.82,4.92,6.94-1.27,6.93-4.92,6.93S250,74.68,250,70.57Zm4.9,5c1.93,0,2.28-1.62,2.28-5,0-2.92-.35-5-2.28-5s-2.26,2.06-2.26,5C252.67,73.92,253,75.54,254.93,75.54Z" fill="#3b4351"/><path d="M270.53,74.41c0,.49.3.94.69.94a1,1,0,0,0,.44-.08V77a2.83,2.83,0,0,1-1.3.32c-1.17,0-2.15-.47-2.23-1.74h-.05a3.41,3.41,0,0,1-3.28,1.93c-2.13,0-3.43-1.15-3.43-3.7,0-2.94,1.3-3.55,3.06-4.14l2.06-.56c1-.27,1.54-.54,1.54-1.69s-.41-2-1.81-2c-1.76,0-2,1.25-2,2.52h-2.5c0-2.82,1.15-4.34,4.63-4.34,2.33,0,4.19.91,4.19,3.24ZM268,70.2a20,20,0,0,1-2.94,1.22A2.17,2.17,0,0,0,264,73.56c0,1.1.53,2,1.64,2,1.59,0,2.37-1.17,2.37-3.14Z" fill="#3b4351"/><path d="M273.23,64h2.5v1.54h.07a3.77,3.77,0,0,1,3.38-1.89c2,0,3.29.91,3.29,3.58v10h-2.65v-9c0-1.77-.47-2.38-1.84-2.38-1.08,0-2.11.81-2.11,2.57v8.85h-2.64Z" fill="#3b4351"/><path d="M162.06,86.66h5.54c3.36,0,4.83,2.11,4.83,5.1s-1.86,5.17-5.12,5.17h-2.45v7.23h-2.8Zm2.8,8.16h2c1.5,0,2.79-.78,2.79-3,0-1.89-.76-3-3-3h-1.78Z" fill="#3b4351"/><path d="M176.42,97.91v.76c0,1.76.22,4,2.2,4s2.11-2.13,2.11-2.94h2.5c0,3-1.76,4.75-4.63,4.75-2.16,0-4.83-.63-4.83-6.74,0-3.45.76-7.13,4.88-7.13,3.68,0,4.66,2.23,4.66,5.88v1.4Zm4.24-1.81v-.71c0-1.67-.54-2.94-2-2.94-1.66,0-2.2,1.66-2.2,3.38v.27Z" fill="#3b4351"/><path d="M185.48,91h2.65v2h.05a3.26,3.26,0,0,1,3.06-2.4,1.59,1.59,0,0,1,.64.1v2.7a3.51,3.51,0,0,0-1.1-.15c-1.2,0-2.65.54-2.65,3v7.89h-2.65Z" fill="#3b4351"/><path d="M193.32,86.47H196v2.64h-2.65Zm0,4.51H196v13.18h-2.65Z" fill="#3b4351"/><path d="M198.12,97.57c0-4.12,1.08-6.94,4.91-6.94S208,93.45,208,97.57s-1.27,6.93-4.92,6.93S198.12,101.68,198.12,97.57Zm4.91,5c1.93,0,2.28-1.62,2.28-5,0-2.92-.35-5-2.28-5s-2.26,2.06-2.26,5C200.77,100.92,201.14,102.54,203,102.54Z" fill="#3b4351"/><path d="M216.72,102.54h-.05a2.82,2.82,0,0,1-2.89,2c-3.06,0-4.31-2.6-4.31-7.1,0-5.86,2.06-6.77,4.07-6.77a3.05,3.05,0,0,1,3,1.89h0V86.66h2.65v17.5h-2.5Zm-2.4-9.8c-1.49,0-2.06,1.22-2.06,4.78,0,3,.37,4.88,2.23,4.88s2.23-1.84,2.23-4.69C216.72,94.55,216.38,92.74,214.32,92.74Z" fill="#3b4351"/></g></g></g></g></svg>