<svg xmlns="http://www.w3.org/2000/svg" viewBox="0 0 1847.91 110.67"><title>bc1900text</title><g id="YEARS"><g id="Right"><path d="M1787.21,102.41V89.05h-3.82V87.12h.29c1.77,0,3.79-.44,4.34-2.75V84h2.16v18.41Z" fill="#3b4351"/><path d="M1798.26,98.3c0,1.07.52,2.4,2,2.4,2.78,0,2.94-3.64,2.94-6.35l-.08,0a3.77,3.77,0,0,1-3.59,2c-2.52,0-4.55-1.82-4.55-5.49,0-4.24,1.72-6.76,5.64-6.76,4.66,0,5.54,3.54,5.54,8.82,0,5.51-1,10-5.87,10-3.25,0-5-1.43-5-4.48Zm2.11-12.22c-1.8,0-2.44,1.8-2.44,4,0,2.57.75,4,2.44,4,2.18,0,2.55-1.89,2.55-4.1S1802.11,86.08,1800.37,86.08Z" fill="#3b4351"/><path d="M1813,84c3.54,0,5.51,2.21,5.51,9.39s-2,9.39-5.51,9.39-5.51-2.21-5.51-9.39S1809.49,84,1813,84Zm0,16.7c2,0,2.55-2,2.55-7.31s-.55-7.31-2.55-7.31-2.55,2-2.55,7.31S1811,100.7,1813,100.7Z" fill="#3b4351"/><path d="M1825.51,84c3.54,0,5.51,2.21,5.51,9.39s-2,9.39-5.51,9.39-5.51-2.21-5.51-9.39S1822,84,1825.51,84Zm0,16.7c2,0,2.55-2,2.55-7.31s-.55-7.31-2.55-7.31-2.55,2-2.55,7.31S1823.51,100.7,1825.51,100.7Z" fill="#3b4351"/></g><g id="left"><path d="M17.46,106V92.65H13.64V90.72h.29c1.77,0,3.79-.44,4.34-2.75V87.6h2.16V106Z" fill="#3b4351"/><path d="M28.51,101.9c0,1.07.52,2.39,2,2.39,2.78,0,2.94-3.64,2.94-6.34l-.08,0a3.79,3.79,0,0,1-3.59,1.95c-2.52,0-4.55-1.82-4.55-5.49,0-4.24,1.72-6.76,5.64-6.76,4.66,0,5.54,3.54,5.54,8.82,0,5.51-1,10-5.87,10-3.25,0-5-1.43-5-4.47Zm2.11-12.22c-1.79,0-2.44,1.8-2.44,3.95,0,2.58.75,4,2.44,4,2.18,0,2.55-1.9,2.55-4.11S32.36,89.68,30.62,89.68Z" fill="#3b4351"/><path d="M43.28,87.6c3.54,0,5.51,2.21,5.51,9.39s-2,9.38-5.51,9.38-5.51-2.21-5.51-9.38S39.75,87.6,43.28,87.6Zm0,16.69c2,0,2.55-2,2.55-7.3s-.55-7.31-2.55-7.31-2.55,2-2.55,7.31S41.28,104.29,43.28,104.29Z" fill="#3b4351"/><path d="M55.76,87.6c3.54,0,5.51,2.21,5.51,9.39s-2,9.38-5.51,9.38-5.51-2.21-5.51-9.38S52.22,87.6,55.76,87.6Zm0,16.69c2,0,2.55-2,2.55-7.3s-.55-7.31-2.55-7.31-2.55,2-2.55,7.31S53.76,104.29,55.76,104.29Z" fill="#3b4351"/></g></g><g id="Text"><g id="Chinese"><path d="M1695.25,55.33H1698v7h5.15v-7H1706v17.5h-2.79V64.69H1698v8.14h-2.79Z" fill="#3b4351"/><path d="M1714.38,63.49v-.34c0-1.06-.37-2-1.74-2-1.05,0-1.88.47-1.88,1.72,0,1.05.46,1.44,1.86,1.93l1.69.59c2,.66,2.87,1.72,2.87,3.8,0,2.82-2.09,4-4.73,4-3.34,0-4.34-1.54-4.34-4.09v-.49h2.35V69c0,1.55.52,2.36,2.06,2.36s2.16-.74,2.16-1.94a1.91,1.91,0,0,0-1.45-1.94l-2.16-.76c-2-.66-2.81-1.69-2.81-3.79,0-2.48,1.76-3.63,4.51-3.63,3.35,0,4.11,2,4.11,3.6v.59Z" fill="#3b4351"/><path d="M1719.26,55.13h2.64v2.65h-2.64Zm0,4.51h2.64V72.83h-2.64Z" fill="#3b4351"/><path d="M1733.22,70.08c0,.49.3.93.69.93a1,1,0,0,0,.44-.07v1.71a2.71,2.71,0,0,1-1.3.32c-1.17,0-2.16-.46-2.23-1.74h0a3.4,3.4,0,0,1-3.28,1.94c-2.13,0-3.43-1.15-3.43-3.7,0-2.94,1.3-3.55,3.06-4.14l2.06-.57c1-.27,1.54-.54,1.54-1.69s-.41-2-1.81-2c-1.77,0-2,1.25-2,2.53h-2.5c0-2.82,1.15-4.34,4.63-4.34,2.33,0,4.19.91,4.19,3.23Zm-2.5-4.21a20,20,0,0,1-2.94,1.22,2.17,2.17,0,0,0-1.08,2.13c0,1.11.54,2,1.65,2,1.59,0,2.37-1.18,2.37-3.14Z" fill="#3b4351"/><path d="M1678.23,82.33h5c5.49,0,6.17,3.58,6.17,8.75s-.68,8.75-6.17,8.75h-5ZM1681,97.72h2.31c2.3,0,3.26-1.52,3.26-6.64,0-4.93-.84-6.64-3.26-6.64H1681Z" fill="#3b4351"/><path d="M1693.45,86.64l2.28,9.9h0l2.11-9.9h2.77L1697,100.32c-1,3.6-1.86,4.09-4.6,4a5.44,5.44,0,0,1-1.06-.1v-2.11a3.67,3.67,0,0,0,.86.1c.91,0,1.5-.17,1.79-1l.34-1.08-3.75-13.48Z" fill="#3b4351"/><path d="M1702.12,86.64h2.5v1.55h.07a3.77,3.77,0,0,1,3.38-1.89c2,0,3.29.91,3.29,3.58v10h-2.65v-9c0-1.76-.46-2.37-1.84-2.37-1.07,0-2.1.81-2.1,2.57v8.85h-2.65Z" fill="#3b4351"/><path d="M1722.55,97.08c0,.49.3.93.69.93a1,1,0,0,0,.44-.07v1.71a2.71,2.71,0,0,1-1.3.32c-1.17,0-2.15-.46-2.23-1.74h-.05a3.4,3.4,0,0,1-3.28,1.94c-2.13,0-3.43-1.15-3.43-3.7,0-2.94,1.3-3.55,3.06-4.14l2.06-.57c1-.27,1.54-.54,1.54-1.69s-.41-2-1.81-2c-1.76,0-2,1.25-2,2.53h-2.5c0-2.82,1.15-4.34,4.63-4.34,2.33,0,4.19.91,4.19,3.23Zm-2.5-4.21a20,20,0,0,1-2.94,1.22,2.16,2.16,0,0,0-1.07,2.13c0,1.11.53,2,1.64,2,1.59,0,2.37-1.18,2.37-3.14Z" fill="#3b4351"/><path d="M1730.93,90.49v-.34c0-1.06-.37-2-1.74-2-1,0-1.88.47-1.88,1.72,0,1,.46,1.44,1.86,1.93l1.69.59c2,.66,2.87,1.72,2.87,3.8,0,2.82-2.09,4-4.73,4-3.34,0-4.34-1.54-4.34-4.09v-.49H1727V96c0,1.55.52,2.36,2.06,2.36s2.16-.74,2.16-1.94a1.91,1.91,0,0,0-1.45-1.94l-2.16-.76c-2-.66-2.81-1.69-2.81-3.79,0-2.48,1.76-3.63,4.5-3.63,3.36,0,4.12,2,4.12,3.6v.59Z" fill="#3b4351"/><path d="M1734.51,86.64h1.81V82.89H1739v3.75h2.15v2H1739v7.87c0,1,.29,1.4,1.2,1.4a4.8,4.8,0,0,0,.95-.08v2a8.44,8.44,0,0,1-2.13.22c-1.76,0-2.67-.51-2.67-3.18V88.6h-1.81Z" fill="#3b4351"/><path d="M1744.26,86.64l2.28,9.9h0l2.1-9.9h2.77l-3.62,13.68c-1.06,3.6-1.87,4.09-4.61,4a5.26,5.26,0,0,1-1-.1v-2.11a3.53,3.53,0,0,0,.85.1c.91,0,1.5-.17,1.79-1l.35-1.08-3.75-13.48Z" fill="#3b4351"/></g><g id="Egytians"><g id="small"><path d="M362.52,26.56v.25c0,1.22.55,1.83,1.64,1.83a1.43,1.43,0,0,0,1.51-1.45,1.68,1.68,0,0,0-1.43-1.78L363.15,25a2.67,2.67,0,0,1-2.09-2.75c0-1.82,1.25-2.82,3.11-2.82,2.57,0,2.83,1.59,2.83,2.63v.22h-1.6V22.1c0-.91-.39-1.44-1.4-1.44a1.28,1.28,0,0,0-1.34,1.44c0,.86.43,1.29,1.5,1.7l1.08.39a2.55,2.55,0,0,1,2,2.65c0,2.13-1.29,3-3.31,3a2.75,2.75,0,0,1-3-3.06v-.23Z" fill="#3b4351"/><path d="M369.76,26.08v.44c0,1,.12,2.29,1.26,2.29s1.2-1.22,1.2-1.68h1.43A2.48,2.48,0,0,1,371,29.85c-1.23,0-2.76-.37-2.76-3.85,0-2,.44-4.08,2.79-4.08,2.1,0,2.66,1.28,2.66,3.36v.8Zm2.42-1v-.4c0-.95-.31-1.68-1.16-1.68s-1.26.95-1.26,1.93V25Z" fill="#3b4351"/><path d="M378.19,24.32v-.2c0-.6-.21-1.16-1-1.16-.6,0-1.08.26-1.08,1s.27.82,1.07,1.1l1,.34a2,2,0,0,1,1.64,2.17c0,1.61-1.19,2.3-2.7,2.3-1.91,0-2.48-.88-2.48-2.34v-.28h1.34v.24c0,.88.3,1.34,1.18,1.34s1.23-.42,1.23-1.1a1.09,1.09,0,0,0-.82-1.11l-1.24-.43A2,2,0,0,1,374.68,24c0-1.41,1-2.07,2.58-2.07,1.92,0,2.35,1.12,2.35,2.06v.34Z" fill="#3b4351"/><path d="M380.61,25.88c0-2.35.61-4,2.8-4s2.81,1.61,2.81,4-.73,4-2.81,4S380.61,28.24,380.61,25.88Zm2.8,2.85c1.1,0,1.3-.93,1.3-2.85,0-1.66-.2-2.84-1.3-2.84s-1.29,1.18-1.29,2.84C382.12,27.8,382.33,28.73,383.41,28.73Z" fill="#3b4351"/><path d="M390.63,24.32v-.2c0-.6-.21-1.16-1-1.16-.6,0-1.08.26-1.08,1s.27.82,1.06,1.1l1,.34a2,2,0,0,1,1.64,2.17c0,1.61-1.19,2.3-2.7,2.3-1.91,0-2.48-.88-2.48-2.34v-.28h1.34v.24c0,.88.29,1.34,1.18,1.34s1.23-.42,1.23-1.1A1.09,1.09,0,0,0,390,26.6l-1.23-.43A2,2,0,0,1,387.13,24c0-1.41,1-2.07,2.58-2.07,1.92,0,2.35,1.12,2.35,2.06v.34Z" fill="#3b4351"/><path d="M392.67,22.12h1V20h1.51v2.15h1.24v1.12h-1.24v4.49c0,.61.17.8.69.8a2.81,2.81,0,0,0,.55,0v1.12a5.17,5.17,0,0,1-1.22.13c-1,0-1.53-.3-1.53-1.82V23.24h-1Z" fill="#3b4351"/><path d="M397.24,22.12h1.51v1.17h0a1.87,1.87,0,0,1,1.75-1.37.73.73,0,0,1,.36.06v1.54a2.11,2.11,0,0,0-.63-.09c-.68,0-1.51.31-1.51,1.71v4.51h-1.51Z" fill="#3b4351"/><path d="M401.72,19.54h1.51v1.51h-1.51Zm0,2.58h1.51v7.53h-1.51Z" fill="#3b4351"/><path d="M408,24.32v-.2c0-.6-.21-1.16-1-1.16-.6,0-1.08.26-1.08,1s.27.82,1.07,1.1l1,.34a2,2,0,0,1,1.64,2.17c0,1.61-1.19,2.3-2.7,2.3-1.91,0-2.48-.88-2.48-2.34v-.28h1.34v.24c0,.88.3,1.34,1.18,1.34s1.23-.42,1.23-1.1a1.09,1.09,0,0,0-.82-1.11l-1.24-.43A2,2,0,0,1,404.5,24c0-1.41,1-2.07,2.58-2.07,1.92,0,2.35,1.12,2.35,2.06v.34Z" fill="#3b4351"/><path d="M414.11,19.65h1.59v10h-1.59Z" fill="#3b4351"/><path d="M425.63,26.91c-.11,1.8-.7,2.94-2.58,2.94-2.18,0-2.8-1.61-2.8-4s.62-4,2.8-4a2.44,2.44,0,0,1,2.6,2.7h-1.52c0-.7-.18-1.62-1.08-1.58-1.07,0-1.28,1.18-1.28,2.84s.21,2.85,1.28,2.85c.84,0,1.15-.69,1.15-1.82Z" fill="#3b4351"/><path d="M426.47,25.88c0-2.35.62-4,2.8-4s2.82,1.61,2.82,4-.73,4-2.82,4S426.47,28.24,426.47,25.88Zm2.8,2.85c1.11,0,1.3-.93,1.3-2.85,0-1.66-.19-2.84-1.3-2.84S428,24.22,428,25.88C428,27.8,428.19,28.73,429.27,28.73Z" fill="#3b4351"/><path d="M433.25,22.12h1.42V23h.05a2.15,2.15,0,0,1,1.93-1.08c1.15,0,1.88.52,1.88,2v5.68H437V24.48c0-1-.26-1.35-1.05-1.35-.61,0-1.2.46-1.2,1.47v5h-1.51Z" fill="#3b4351"/><path d="M443.75,28.77h0A1.75,1.75,0,0,1,442,29.85c-1.18,0-2.32-.81-2.32-3.87,0-2.57.72-4.06,2.47-4.06A1.61,1.61,0,0,1,443.8,23h0v-.92h1.43v10h-1.51Zm-1.19-5.64c-1.07,0-1.28,1.07-1.28,2.78,0,2,.41,2.73,1.18,2.73,1.17,0,1.37-1,1.37-2.84C443.83,24.18,443.59,23.13,442.56,23.13Z" fill="#3b4351"/><path d="M450.56,28.77h0a2.17,2.17,0,0,1-1.93,1.08c-1.12,0-1.88-.52-1.88-2.47V22.12h1.52v5.4c0,.84.36,1.12,1,1.12a1.17,1.17,0,0,0,1.23-1.26V22.12H452v7.53h-1.43Z" fill="#3b4351"/><path d="M454.75,26.08v.44c0,1,.13,2.29,1.26,2.29s1.2-1.22,1.2-1.68h1.43A2.48,2.48,0,0,1,456,29.85c-1.24,0-2.76-.37-2.76-3.85,0-2,.43-4.08,2.78-4.08,2.1,0,2.67,1.28,2.67,3.36v.8Zm2.42-1v-.4c0-.95-.31-1.68-1.16-1.68s-1.26.95-1.26,1.93V25Z" fill="#3b4351"/><path d="M459.93,22.12h1.51v1.17h0a1.87,1.87,0,0,1,1.75-1.37.73.73,0,0,1,.36.06v1.54a2.11,2.11,0,0,0-.63-.09c-.68,0-1.51.31-1.51,1.71v4.51h-1.51Z" fill="#3b4351"/><path d="M467.59,24.32v-.2c0-.6-.21-1.16-1-1.16-.6,0-1.07.26-1.07,1s.26.82,1.06,1.1l1,.34a2,2,0,0,1,1.63,2.17c0,1.61-1.19,2.3-2.7,2.3-1.9,0-2.48-.88-2.48-2.34v-.28h1.35v.24c0,.88.29,1.34,1.17,1.34s1.24-.42,1.24-1.1a1.09,1.09,0,0,0-.83-1.11l-1.23-.43A2,2,0,0,1,464.09,24c0-1.41,1-2.07,2.57-2.07C468.58,21.92,469,23,469,24v.34Z" fill="#3b4351"/><path d="M473.76,19.65h1.95l2.9,7.45h0V19.65h1.52v10H478.2L475.3,22h0v7.65h-1.51Z" fill="#3b4351"/><path d="M485.55,28.77h0a2.18,2.18,0,0,1-1.94,1.08c-1.12,0-1.87-.52-1.87-2.47V22.12h1.51v5.4c0,.84.36,1.12,1,1.12a1.18,1.18,0,0,0,1.24-1.26V22.12H487v7.53h-1.43Z" fill="#3b4351"/><path d="M488.43,19.65h1.51V23h0a1.74,1.74,0,0,1,1.71-1.08c1.15,0,2.33.52,2.33,3.87,0,2.59-.72,4.06-2.47,4.06a1.61,1.61,0,0,1-1.65-1.12h0v.92h-1.43Zm2.7,9c1.07,0,1.28-1.07,1.28-2.78,0-2-.32-2.73-1.18-2.73-1.17,0-1.37,1-1.37,2.84C489.86,27.59,490.1,28.64,491.13,28.64Z" fill="#3b4351"/><path d="M495.24,19.54h1.51v1.51h-1.51Zm0,2.58h1.51v7.53h-1.51Z" fill="#3b4351"/><path d="M503.22,28.08c0,.28.17.54.39.54a.52.52,0,0,0,.25-.05v1a1.58,1.58,0,0,1-.74.19c-.67,0-1.23-.27-1.27-1h0a2,2,0,0,1-1.88,1.11c-1.22,0-2-.66-2-2.12a2.06,2.06,0,0,1,1.75-2.36l1.18-.33c.54-.15.88-.3.88-1s-.24-1.12-1-1.12c-1,0-1.15.71-1.15,1.44h-1.42c0-1.61.65-2.48,2.64-2.48,1.33,0,2.4.52,2.4,1.85Zm-1.43-2.41a12.44,12.44,0,0,1-1.68.71,1.21,1.21,0,0,0-.62,1.21c0,.63.31,1.14.94,1.14.91,0,1.36-.67,1.36-1.79Z" fill="#3b4351"/><path d="M504.91,27.8h1.6v1.85h-1.6Z" fill="#3b4351"/><path d="M511.57,19.65H517V21h-3.81v2.77h3.59v1.34h-3.59v3.2h3.92v1.34h-5.52Z" fill="#3b4351"/><path d="M519.72,30.3a1,1,0,0,0,1.09.89,1.25,1.25,0,0,0,1.28-1.41V28.56h0a1.82,1.82,0,0,1-1.71,1c-1.75,0-2.25-1.73-2.25-3.8,0-1.65.25-3.88,2.39-3.88A1.65,1.65,0,0,1,522.14,23h0v-.92h1.43v7.17c0,1.83-.78,2.94-2.81,2.94-2.25,0-2.5-1.32-2.5-1.93Zm1.07-1.91c1.17,0,1.3-1.48,1.3-2.67s-.16-2.59-1.21-2.59-1.27,1.12-1.27,2.52S519.67,28.39,520.79,28.39Z" fill="#3b4351"/><path d="M526,22.12l1.3,5.66h0l1.21-5.66h1.58L528,29.93c-.61,2.06-1.07,2.34-2.64,2.3a2.45,2.45,0,0,1-.6-.06V31a2.05,2.05,0,0,0,.49.06c.52,0,.86-.1,1-.59l.2-.62-2.14-7.7Z" fill="#3b4351"/><path d="M534.16,29.85a1.74,1.74,0,0,1-1.71-1.08h0v3.35h-1.51v-10h1.43V23h0a1.8,1.8,0,0,1,1.7-1.12c1.72,0,2.42,1.47,2.42,4.06C536.48,29.15,535.21,29.85,534.16,29.85Zm-.55-6.72c-1,0-1.27,1.05-1.27,2.67,0,1.81.22,2.84,1.28,2.84.86,0,1.26-.64,1.26-2.73C534.88,24.2,534.67,23.13,533.61,23.13Z" fill="#3b4351"/><path d="M537,22.12h1V20h1.52v2.15h1.23v1.12h-1.23v4.49c0,.61.17.8.68.8a2.75,2.75,0,0,0,.55,0v1.12a5.11,5.11,0,0,1-1.22.13c-1,0-1.53-.3-1.53-1.82V23.24h-1Z" fill="#3b4351"/><path d="M541.6,19.54h1.52v1.51H541.6Zm0,2.58h1.52v7.53H541.6Z" fill="#3b4351"/><path d="M549.59,28.08c0,.28.16.54.39.54a.55.55,0,0,0,.25-.05v1a1.58,1.58,0,0,1-.74.19c-.68,0-1.24-.27-1.28-1h0a1.94,1.94,0,0,1-1.87,1.11c-1.22,0-2-.66-2-2.12a2.06,2.06,0,0,1,1.75-2.36l1.17-.33c.55-.15.89-.3.89-1s-.24-1.12-1-1.12c-1,0-1.15.71-1.15,1.44h-1.43c0-1.61.66-2.48,2.65-2.48,1.33,0,2.4.52,2.4,1.85Zm-1.43-2.41a12.44,12.44,0,0,1-1.68.71,1.21,1.21,0,0,0-.62,1.21c0,.63.31,1.14.94,1.14.91,0,1.36-.67,1.36-1.79Z" fill="#3b4351"/><path d="M551.12,22.12h1.43V23h0a2.18,2.18,0,0,1,1.94-1.08c1.15,0,1.87.52,1.87,2v5.68h-1.51V24.48c0-1-.27-1.35-1-1.35-.62,0-1.2.46-1.2,1.47v5h-1.52Z" fill="#3b4351"/><path d="M566.3,26.91c-.11,1.8-.7,2.94-2.58,2.94-2.18,0-2.8-1.61-2.8-4s.62-4,2.8-4a2.43,2.43,0,0,1,2.59,2.7H564.8c0-.7-.18-1.62-1.08-1.58-1.08,0-1.29,1.18-1.29,2.84s.21,2.85,1.29,2.85c.84,0,1.15-.69,1.15-1.82Z" fill="#3b4351"/><path d="M571.28,28.77h0a2.17,2.17,0,0,1-1.93,1.08c-1.12,0-1.88-.52-1.88-2.47V22.12h1.51v5.4c0,.84.37,1.12,1,1.12a1.17,1.17,0,0,0,1.23-1.26V22.12h1.51v7.53h-1.43Z" fill="#3b4351"/><path d="M574.24,19.65h1.51v10h-1.51Z" fill="#3b4351"/><path d="M576.6,22.12h1V20h1.51v2.15h1.23v1.12h-1.23v4.49c0,.61.17.8.69.8a2.7,2.7,0,0,0,.54,0v1.12a5.11,5.11,0,0,1-1.22.13c-1,0-1.52-.3-1.52-1.82V23.24h-1Z" fill="#3b4351"/><path d="M585,28.77h0A2.15,2.15,0,0,1,583,29.85c-1.12,0-1.88-.52-1.88-2.47V22.12h1.52v5.4c0,.84.36,1.12,1,1.12a1.17,1.17,0,0,0,1.23-1.26V22.12h1.51v7.53H585Z" fill="#3b4351"/><path d="M587.9,22.12h1.51v1.17h0a1.86,1.86,0,0,1,1.75-1.37.73.73,0,0,1,.36.06v1.54a2.11,2.11,0,0,0-.63-.09c-.68,0-1.51.31-1.51,1.71v4.51H587.9Z" fill="#3b4351"/><path d="M593.53,26.08v.44c0,1,.12,2.29,1.26,2.29s1.2-1.22,1.2-1.68h1.43a2.48,2.48,0,0,1-2.65,2.72c-1.23,0-2.76-.37-2.76-3.85,0-2,.44-4.08,2.79-4.08,2.1,0,2.66,1.28,2.66,3.36v.8ZM596,25v-.4c0-.95-.31-1.68-1.16-1.68s-1.26.95-1.26,1.93V25Z" fill="#3b4351"/><path d="M607,28.08c0,.28.17.54.39.54a.49.49,0,0,0,.25-.05v1a1.55,1.55,0,0,1-.74.19c-.67,0-1.23-.27-1.27-1h0a2,2,0,0,1-1.88,1.11c-1.22,0-2-.66-2-2.12a2.06,2.06,0,0,1,1.75-2.36L604.7,25c.55-.15.88-.3.88-1s-.24-1.12-1-1.12c-1,0-1.15.71-1.15,1.44H602c0-1.61.66-2.48,2.64-2.48,1.34,0,2.4.52,2.4,1.85Zm-1.43-2.41a12.44,12.44,0,0,1-1.68.71,1.22,1.22,0,0,0-.62,1.21c0,.63.31,1.14.94,1.14.91,0,1.36-.67,1.36-1.79Z" fill="#3b4351"/><path d="M607.88,22.12h1V20h1.52v2.15h1.23v1.12h-1.23v4.49c0,.61.16.8.68.8a2.75,2.75,0,0,0,.55,0v1.12a5.11,5.11,0,0,1-1.22.13c-1,0-1.53-.3-1.53-1.82V23.24h-1Z" fill="#3b4351"/><path d="M615.42,28.48l3.29-5.09h-3.09V22.12h4.8v1.24l-3.16,5h3.16v1.27h-5Z" fill="#3b4351"/><path d="M622.8,26.08v.44c0,1,.13,2.29,1.26,2.29s1.21-1.22,1.21-1.68h1.42a2.47,2.47,0,0,1-2.64,2.72c-1.24,0-2.76-.37-2.76-3.85,0-2,.43-4.08,2.79-4.08,2.1,0,2.66,1.28,2.66,3.36v.8Zm2.42-1v-.4c0-.95-.3-1.68-1.16-1.68s-1.26.95-1.26,1.93V25Z" fill="#3b4351"/><path d="M628,22.12h1.43V23h0a2.17,2.17,0,0,1,1.93-1.08c1.15,0,1.88.52,1.88,2v5.68h-1.51V24.48c0-1-.27-1.35-1-1.35-.62,0-1.21.46-1.21,1.47v5H628Z" fill="#3b4351"/><path d="M634.78,19.54h1.52v1.51h-1.52Zm0,2.58h1.52v7.53h-1.52Z" fill="#3b4351"/><path d="M637.15,22.12h1V20h1.51v2.15h1.23v1.12H639.7v4.49c0,.61.17.8.69.8a2.7,2.7,0,0,0,.54,0v1.12a5.11,5.11,0,0,1-1.22.13c-1,0-1.52-.3-1.52-1.82V23.24h-1Z" fill="#3b4351"/><path d="M641.71,19.65h1.52v3.28l0,0a2.14,2.14,0,0,1,1.85-1c1.15,0,1.87.52,1.87,2v5.68h-1.51V24.48c0-1-.28-1.35-1.05-1.35-.62,0-1.2.47-1.2,1.47v5h-1.52Z" fill="#3b4351"/><path d="M648.6,22.48h1.6v1.85h-1.6Zm0,5.32h1.6v1.85a1.88,1.88,0,0,1-1.6,2.16V31a1.05,1.05,0,0,0,.7-1.14v-.21h-.7Z" fill="#3b4351"/><path d="M655.63,23.24h-1V22.12h1v-.7c0-1.42.68-1.88,1.92-1.88a6.4,6.4,0,0,1,.82,0v1.16H658c-.56,0-.81.21-.81.72v.66h1.23v1.12h-1.23v6.41h-1.51Zm3.5-3.7h1.51v1.51h-1.51Zm0,2.58h1.51v7.53h-1.51Z" fill="#3b4351"/><path d="M662.17,22.12h1.42V23h0a2.15,2.15,0,0,1,1.93-1.08c1.15,0,1.88.52,1.88,2v5.68h-1.52V24.48c0-1-.26-1.35-1-1.35-.61,0-1.2.46-1.2,1.47v5h-1.51Z" fill="#3b4351"/><path d="M670.2,26.08v.44c0,1,.13,2.29,1.26,2.29s1.21-1.22,1.21-1.68h1.43a2.48,2.48,0,0,1-2.65,2.72c-1.23,0-2.76-.37-2.76-3.85,0-2,.43-4.08,2.79-4.08,2.1,0,2.66,1.28,2.66,3.36v.8Zm2.42-1v-.4c0-.95-.3-1.68-1.16-1.68s-1.26.95-1.26,1.93V25Z" fill="#3b4351"/><path d="M678.63,24.32v-.2c0-.6-.21-1.16-1-1.16-.61,0-1.08.26-1.08,1s.26.82,1.06,1.1l1,.34a2,2,0,0,1,1.64,2.17c0,1.61-1.19,2.3-2.71,2.3-1.9,0-2.47-.88-2.47-2.34v-.28h1.34v.24c0,.88.29,1.34,1.18,1.34s1.23-.42,1.23-1.1A1.09,1.09,0,0,0,678,26.6l-1.23-.43A2,2,0,0,1,675.13,24c0-1.41,1-2.07,2.58-2.07,1.92,0,2.35,1.12,2.35,2.06v.34Z" fill="#3b4351"/><path d="M680.67,22.12h1V20h1.51v2.15h1.23v1.12h-1.23v4.49c0,.61.17.8.69.8a2.7,2.7,0,0,0,.54,0v1.12a5,5,0,0,1-1.21.13c-1,0-1.53-.3-1.53-1.82V23.24h-1Z" fill="#3b4351"/><path d="M693.54,28.08c0,.28.17.54.39.54a.57.57,0,0,0,.26-.05v1a1.62,1.62,0,0,1-.75.19c-.67,0-1.23-.27-1.27-1h0a2,2,0,0,1-1.88,1.11c-1.21,0-2-.66-2-2.12a2.07,2.07,0,0,1,1.75-2.36l1.18-.33c.55-.15.88-.3.88-1s-.24-1.12-1-1.12c-1,0-1.15.71-1.15,1.44H688.5c0-1.61.66-2.48,2.65-2.48,1.33,0,2.39.52,2.39,1.85Zm-1.43-2.41a12.44,12.44,0,0,1-1.68.71,1.22,1.22,0,0,0-.61,1.21c0,.63.3,1.14.93,1.14.91,0,1.36-.67,1.36-1.79Z" fill="#3b4351"/><path d="M695.08,22.12h1.43V23h0a2.17,2.17,0,0,1,1.93-1.08c1.15,0,1.88.52,1.88,2v5.68h-1.51V24.48c0-1-.27-1.35-1.05-1.35-.62,0-1.21.46-1.21,1.47v5h-1.51Z" fill="#3b4351"/><path d="M705.66,28.73h0A1.62,1.62,0,0,1,704,29.85c-1.75,0-2.46-1.49-2.46-4.06,0-3.35,1.18-3.87,2.32-3.87A1.74,1.74,0,0,1,705.55,23h0V19.65h1.51v10h-1.43Zm-1.37-5.6c-.85,0-1.17.7-1.17,2.73,0,1.71.21,2.78,1.27,2.78s1.27-1.05,1.27-2.67C705.66,24.16,705.47,23.13,704.29,23.13Z" fill="#3b4351"/><path d="M712,22.12h1.42V23h.05a2.1,2.1,0,0,1,1.8-1.08A1.63,1.63,0,0,1,717,23.07a2.07,2.07,0,0,1,1.91-1.15c1.06,0,1.83.55,1.83,2v5.73h-1.51V24.48c0-1-.29-1.35-.91-1.35s-1.2.47-1.2,1.47v5H715.6V24.48c0-1-.29-1.35-.92-1.35s-1.19.49-1.19,1.47v5H712Z" fill="#3b4351"/><path d="M722,25.88c0-2.35.62-4,2.8-4s2.82,1.61,2.82,4-.73,4-2.82,4S722,28.24,722,25.88Zm2.8,2.85c1.11,0,1.3-.93,1.3-2.85,0-1.66-.19-2.84-1.3-2.84s-1.29,1.18-1.29,2.84C723.48,27.8,723.69,28.73,724.77,28.73Z" fill="#3b4351"/><path d="M732,24.32v-.2c0-.6-.21-1.16-1-1.16-.6,0-1.08.26-1.08,1s.27.82,1.07,1.1l1,.34a2,2,0,0,1,1.63,2.17c0,1.61-1.19,2.3-2.7,2.3-1.9,0-2.48-.88-2.48-2.34v-.28h1.35v.24c0,.88.29,1.34,1.17,1.34s1.24-.42,1.24-1.1a1.09,1.09,0,0,0-.83-1.11l-1.23-.43A2,2,0,0,1,728.5,24c0-1.41,1-2.07,2.57-2.07,1.92,0,2.36,1.12,2.36,2.06v.34Z" fill="#3b4351"/><path d="M734,22.12h1V20h1.51v2.15h1.23v1.12h-1.23v4.49c0,.61.17.8.68.8a2.75,2.75,0,0,0,.55,0v1.12a5.11,5.11,0,0,1-1.22.13c-1,0-1.52-.3-1.52-1.82V23.24h-1Z" fill="#3b4351"/><path d="M745.21,29.85a1.74,1.74,0,0,1-1.71-1.08h0v3.35H742v-10h1.43V23h0a1.78,1.78,0,0,1,1.69-1.12c1.73,0,2.43,1.47,2.43,4.06C747.54,29.15,746.26,29.85,745.21,29.85Zm-.54-6.72c-1,0-1.28,1.05-1.28,2.67,0,1.81.22,2.84,1.29,2.84.85,0,1.26-.64,1.26-2.73C745.94,24.2,745.73,23.13,744.67,23.13Z" fill="#3b4351"/><path d="M750,26.08v.44c0,1,.12,2.29,1.26,2.29s1.2-1.22,1.2-1.68h1.43a2.48,2.48,0,0,1-2.65,2.72c-1.23,0-2.75-.37-2.75-3.85,0-2,.43-4.08,2.78-4.08,2.1,0,2.66,1.28,2.66,3.36v.8Zm2.42-1v-.4c0-.95-.31-1.68-1.16-1.68s-1.26.95-1.26,1.93V25Z" fill="#3b4351"/><path d="M755.18,22.12h1.51v1.17h0a1.87,1.87,0,0,1,1.75-1.37.73.73,0,0,1,.36.06v1.54a2.11,2.11,0,0,0-.63-.09c-.68,0-1.51.31-1.51,1.71v4.51h-1.51Z" fill="#3b4351"/><path d="M760.05,23.24h-1V22.12h1v-.7c0-1.42.69-1.88,1.92-1.88a6.67,6.67,0,0,1,.83,0v1.16h-.42c-.56,0-.82.21-.82.72v.66h1.24v1.12h-1.24v6.41h-1.51Z" fill="#3b4351"/><path d="M764.78,26.08v.44c0,1,.13,2.29,1.26,2.29s1.21-1.22,1.21-1.68h1.43A2.48,2.48,0,0,1,766,29.85c-1.23,0-2.76-.37-2.76-3.85,0-2,.43-4.08,2.79-4.08,2.1,0,2.66,1.28,2.66,3.36v.8Zm2.43-1v-.4c0-.95-.31-1.68-1.17-1.68s-1.26.95-1.26,1.93V25Z" fill="#3b4351"/><path d="M775.05,26.91c-.12,1.8-.7,2.94-2.58,2.94-2.19,0-2.8-1.61-2.8-4s.61-4,2.8-4a2.43,2.43,0,0,1,2.59,2.7h-1.51c0-.7-.18-1.62-1.08-1.58-1.08,0-1.29,1.18-1.29,2.84s.21,2.85,1.29,2.85c.84,0,1.15-.69,1.15-1.82Z" fill="#3b4351"/><path d="M775.51,22.12h1V20h1.52v2.15h1.23v1.12h-1.23v4.49c0,.61.16.8.68.8a2.75,2.75,0,0,0,.55,0v1.12a5.11,5.11,0,0,1-1.22.13c-1,0-1.53-.3-1.53-1.82V23.24h-1Z" fill="#3b4351"/><path d="M788.37,28.08c0,.28.17.54.4.54a.55.55,0,0,0,.25-.05v1a1.58,1.58,0,0,1-.74.19c-.68,0-1.24-.27-1.28-1h0a1.94,1.94,0,0,1-1.87,1.11c-1.22,0-2-.66-2-2.12a2.06,2.06,0,0,1,1.75-2.36l1.17-.33c.55-.15.88-.3.88-1s-.23-1.12-1-1.12c-1,0-1.15.71-1.15,1.44h-1.43c0-1.61.66-2.48,2.65-2.48,1.33,0,2.39.52,2.39,1.85Zm-1.43-2.41a11.92,11.92,0,0,1-1.68.71,1.22,1.22,0,0,0-.61,1.21c0,.63.31,1.14.94,1.14.91,0,1.35-.67,1.35-1.79Z" fill="#3b4351"/><path d="M789.91,22.12h1.51v1.17h0a1.87,1.87,0,0,1,1.75-1.37.77.77,0,0,1,.37.06v1.54a2.17,2.17,0,0,0-.63-.09c-.69,0-1.52.31-1.52,1.71v4.51h-1.51Z" fill="#3b4351"/><path d="M793.65,22.12h1V20h1.51v2.15h1.23v1.12H796.2v4.49c0,.61.17.8.69.8a2.7,2.7,0,0,0,.54,0v1.12a5.11,5.11,0,0,1-1.22.13c-1,0-1.52-.3-1.52-1.82V23.24h-1Z" fill="#3b4351"/><path d="M802,23.24H801V22.12H802v-.7c0-1.42.68-1.88,1.91-1.88a6.47,6.47,0,0,1,.83,0v1.16h-.42c-.56,0-.81.21-.81.72v.66h1.23v1.12h-1.23v6.41H802Z" fill="#3b4351"/><path d="M805.17,25.88c0-2.35.62-4,2.8-4s2.82,1.61,2.82,4-.73,4-2.82,4S805.17,28.24,805.17,25.88Zm2.8,2.85c1.11,0,1.3-.93,1.3-2.85,0-1.66-.19-2.84-1.3-2.84s-1.29,1.18-1.29,2.84C806.68,27.8,806.89,28.73,808,28.73Z" fill="#3b4351"/><path d="M812,22.12h1.51v1.17h0a1.86,1.86,0,0,1,1.75-1.37.73.73,0,0,1,.36.06v1.54a2.11,2.11,0,0,0-.63-.09c-.68,0-1.51.31-1.51,1.71v4.51H812Z" fill="#3b4351"/><path d="M816.57,22.12H818V23h0a2.12,2.12,0,0,1,1.81-1.08,1.65,1.65,0,0,1,1.75,1.15,2,2,0,0,1,1.9-1.15c1.07,0,1.84.55,1.84,2v5.73h-1.52V24.48c0-1-.29-1.35-.91-1.35s-1.2.47-1.2,1.47v5H820.2V24.48c0-1-.3-1.35-.93-1.35s-1.19.49-1.19,1.47v5h-1.51Z" fill="#3b4351"/><path d="M830.11,24.32v-.2c0-.6-.21-1.16-1-1.16-.6,0-1.08.26-1.08,1s.27.82,1.07,1.1l1,.34a2,2,0,0,1,1.63,2.17c0,1.61-1.19,2.3-2.7,2.3-1.9,0-2.48-.88-2.48-2.34v-.28h1.35v.24c0,.88.29,1.34,1.17,1.34s1.24-.42,1.24-1.1a1.09,1.09,0,0,0-.83-1.11l-1.23-.43A2,2,0,0,1,826.61,24c0-1.41,1-2.07,2.57-2.07,1.92,0,2.36,1.12,2.36,2.06v.34Z" fill="#3b4351"/><path d="M833,27.8h1.59v1.85H833Z" fill="#3b4351"/><path d="M377.15,61h2.05l2.63,10h-1.67l-.61-2.46h-2.93L376,71h-1.67Zm2.13,6.28-1.15-4.93h0l-1.19,4.93Z" fill="#3b4351"/><path d="M382.5,63.49h1.43v.88h0a2.12,2.12,0,0,1,1.81-1.08,1.64,1.64,0,0,1,1.75,1.15,2,2,0,0,1,1.9-1.15c1.07,0,1.84.55,1.84,2V71h-1.51V65.86c0-1-.3-1.36-.91-1.36s-1.21.47-1.21,1.47V71h-1.51V65.86c0-1-.3-1.36-.93-1.36S384,65,384,66V71H382.5Z" fill="#3b4351"/><path d="M394.09,67.45v.44c0,1,.13,2.29,1.26,2.29s1.21-1.21,1.21-1.68H398a2.48,2.48,0,0,1-2.65,2.72c-1.23,0-2.76-.36-2.76-3.85,0-2,.43-4.08,2.79-4.08,2.1,0,2.66,1.28,2.66,3.36v.8Zm2.43-1V66c0-1-.31-1.68-1.17-1.68s-1.26,1-1.26,1.93v.16Z" fill="#3b4351"/><path d="M399.27,63.49h1.43v.88h0a2.17,2.17,0,0,1,1.94-1.08c1.14,0,1.87.52,1.87,2.05V71H403V65.86c0-1-.27-1.36-1.05-1.36-.62,0-1.21.46-1.21,1.47V71h-1.51Z" fill="#3b4351"/><path d="M407.31,67.45v.44c0,1,.12,2.29,1.26,2.29s1.2-1.21,1.2-1.68h1.43a2.48,2.48,0,0,1-2.65,2.72c-1.23,0-2.76-.36-2.76-3.85,0-2,.44-4.08,2.79-4.08,2.1,0,2.66,1.28,2.66,3.36v.8Zm2.42-1V66c0-1-.31-1.68-1.16-1.68s-1.26,1-1.26,1.93v.16Z" fill="#3b4351"/><path d="M412.56,63.49H414v.88h0a2.11,2.11,0,0,1,1.8-1.08,1.65,1.65,0,0,1,1.76,1.15,2,2,0,0,1,1.9-1.15c1.07,0,1.84.55,1.84,2V71h-1.52V65.86c0-1-.29-1.36-.91-1.36s-1.2.47-1.2,1.47V71h-1.52V65.86c0-1-.29-1.36-.92-1.36s-1.19.49-1.19,1.47V71h-1.51Z" fill="#3b4351"/><path d="M422.85,61h1.51V64.3l0,0a2.16,2.16,0,0,1,1.85-1c1.15,0,1.88.52,1.88,2.05V71h-1.52V65.86c0-1-.28-1.36-1.05-1.36-.61,0-1.2.47-1.2,1.47V71h-1.51Z" fill="#3b4351"/><path d="M430.88,67.45v.44c0,1,.13,2.29,1.26,2.29s1.21-1.21,1.21-1.68h1.43a2.48,2.48,0,0,1-2.65,2.72c-1.23,0-2.76-.36-2.76-3.85,0-2,.44-4.08,2.79-4.08,2.1,0,2.66,1.28,2.66,3.36v.8Zm2.43-1V66c0-1-.31-1.68-1.17-1.68s-1.26,1-1.26,1.93v.16Z" fill="#3b4351"/><path d="M435.39,63.49h1V61.35h1.51v2.14h1.23v1.12h-1.23v4.5c0,.6.17.79.69.79a2.7,2.7,0,0,0,.54,0V71a4.64,4.64,0,0,1-1.22.13c-1,0-1.52-.3-1.52-1.82V64.61h-1Z" fill="#3b4351"/><path d="M443.34,61h1.6V71h-1.6Z" fill="#3b4351"/><path d="M446.45,61h1.6V71h-1.6Z" fill="#3b4351"/><path d="M449.68,69.18h1.6V71h-1.6Z" fill="#3b4351"/><path d="M475.94,67.44v.21c0,1.81-.75,3.57-3.09,3.57-2.52,0-3.3-1.62-3.3-5.2s.78-5.19,3.32-5.19c2.84,0,3,2.09,3,3.14v.18h-1.6V64c0-.94-.28-2-1.43-1.95s-1.7.73-1.7,4,.51,4,1.7,4c1.35,0,1.49-1.47,1.49-2.41v-.17Z" fill="#3b4351"/><path d="M477,61h1.51V71H477Z" fill="#3b4351"/><path d="M485,69.46c0,.28.17.53.39.53a.72.72,0,0,0,.25,0v1a1.58,1.58,0,0,1-.74.18c-.67,0-1.23-.27-1.27-1h0a1.94,1.94,0,0,1-1.88,1.11c-1.22,0-2-.66-2-2.11a2.08,2.08,0,0,1,1.75-2.37l1.18-.32c.54-.16.88-.31.88-1s-.24-1.12-1-1.12c-1,0-1.15.71-1.15,1.44H480c0-1.61.65-2.48,2.64-2.48,1.33,0,2.4.52,2.4,1.85Zm-1.43-2.41a12.39,12.39,0,0,1-1.68.7,1.23,1.23,0,0,0-.62,1.22c0,.63.31,1.13.94,1.13.91,0,1.36-.67,1.36-1.79Z" fill="#3b4351"/><path d="M489.8,65.69v-.2c0-.6-.21-1.16-1-1.16-.6,0-1.08.27-1.08,1s.27.83,1.07,1.11l1,.33a2,2,0,0,1,1.64,2.17c0,1.62-1.19,2.3-2.7,2.3-1.91,0-2.48-.88-2.48-2.34V68.6h1.34v.24c0,.88.3,1.34,1.18,1.34s1.23-.42,1.23-1.1a1.09,1.09,0,0,0-.82-1.11l-1.24-.43a2,2,0,0,1-1.61-2.17c0-1.42,1-2.08,2.58-2.08,1.92,0,2.35,1.12,2.35,2.06v.34Z" fill="#3b4351"/><path d="M495.76,65.69v-.2c0-.6-.21-1.16-1-1.16-.6,0-1.07.27-1.07,1s.26.83,1.06,1.11l1,.33a2,2,0,0,1,1.64,2.17c0,1.62-1.19,2.3-2.71,2.3-1.9,0-2.48-.88-2.48-2.34V68.6h1.35v.24c0,.88.29,1.34,1.17,1.34s1.24-.42,1.24-1.1A1.09,1.09,0,0,0,495.1,68l-1.23-.43a2,2,0,0,1-1.61-2.17c0-1.42,1-2.08,2.57-2.08,1.92,0,2.36,1.12,2.36,2.06v.34Z" fill="#3b4351"/><path d="M498.54,60.91h1.52v1.51h-1.52Zm0,2.58h1.52V71h-1.52Z" fill="#3b4351"/><path d="M506.67,68.28c-.12,1.81-.7,2.94-2.58,2.94-2.19,0-2.8-1.61-2.8-4s.61-4,2.8-4A2.44,2.44,0,0,1,506.68,66h-1.51c0-.7-.19-1.63-1.08-1.59-1.08,0-1.29,1.18-1.29,2.85s.21,2.84,1.29,2.84c.84,0,1.15-.69,1.15-1.82Z" fill="#3b4351"/><path d="M512.74,69.46c0,.28.17.53.39.53a.78.78,0,0,0,.26,0v1a1.63,1.63,0,0,1-.75.18c-.67,0-1.23-.27-1.27-1h0a1.94,1.94,0,0,1-1.88,1.11c-1.21,0-2-.66-2-2.11a2.09,2.09,0,0,1,1.75-2.37l1.18-.32c.55-.16.88-.31.88-1s-.24-1.12-1-1.12c-1,0-1.15.71-1.15,1.44H507.7c0-1.61.66-2.48,2.65-2.48,1.33,0,2.39.52,2.39,1.85Zm-1.43-2.41a12.39,12.39,0,0,1-1.68.7A1.24,1.24,0,0,0,509,69c0,.63.3,1.13.93,1.13.91,0,1.36-.67,1.36-1.79Z" fill="#3b4351"/><path d="M514.35,61h1.51V71h-1.51Z" fill="#3b4351"/><path d="M525.69,69.46c0,.28.17.53.39.53a.78.78,0,0,0,.26,0v1a1.63,1.63,0,0,1-.75.18c-.67,0-1.23-.27-1.27-1h0a1.94,1.94,0,0,1-1.88,1.11c-1.22,0-2-.66-2-2.11a2.08,2.08,0,0,1,1.75-2.37l1.18-.32c.55-.16.88-.31.88-1s-.24-1.12-1-1.12c-1,0-1.15.71-1.15,1.44h-1.43c0-1.61.66-2.48,2.65-2.48,1.33,0,2.39.52,2.39,1.85Zm-1.43-2.41a12.39,12.39,0,0,1-1.68.7A1.24,1.24,0,0,0,522,69c0,.63.3,1.13.93,1.13.91,0,1.36-.67,1.36-1.79Z" fill="#3b4351"/><path d="M527.23,63.49h1.51v1.18h0a1.88,1.88,0,0,1,1.75-1.38.87.87,0,0,1,.36.06v1.54a2.18,2.18,0,0,0-.63-.08c-.68,0-1.51.3-1.51,1.7V71h-1.51Z" fill="#3b4351"/><path d="M531,63.49h1V61.35h1.52v2.14h1.23v1.12h-1.23v4.5c0,.6.16.79.68.79a2.75,2.75,0,0,0,.55,0V71a4.64,4.64,0,0,1-1.22.13c-1,0-1.53-.3-1.53-1.82V64.61h-1Z" fill="#3b4351"/><path d="M543.83,69.46c0,.28.17.53.4.53a.76.76,0,0,0,.25,0v1a1.58,1.58,0,0,1-.74.18c-.68,0-1.24-.27-1.28-1h0a1.93,1.93,0,0,1-1.87,1.11c-1.22,0-2-.66-2-2.11a2.08,2.08,0,0,1,1.75-2.37l1.17-.32c.55-.16.89-.31.89-1s-.24-1.12-1-1.12c-1,0-1.15.71-1.15,1.44h-1.43c0-1.61.66-2.48,2.65-2.48,1.33,0,2.39.52,2.39,1.85Zm-1.42-2.41a12.39,12.39,0,0,1-1.68.7,1.23,1.23,0,0,0-.62,1.22c0,.63.31,1.13.94,1.13.91,0,1.36-.67,1.36-1.79Z" fill="#3b4351"/><path d="M545.37,63.49h1.43v.88h0a2.18,2.18,0,0,1,1.94-1.08c1.14,0,1.87.52,1.87,2.05V71h-1.51V65.86c0-1-.27-1.36-1-1.36-.62,0-1.2.46-1.2,1.47V71h-1.52Z" fill="#3b4351"/><path d="M556,70.1h0a1.61,1.61,0,0,1-1.65,1.12c-1.75,0-2.47-1.48-2.47-4.06,0-3.35,1.18-3.87,2.33-3.87a1.75,1.75,0,0,1,1.71,1.08h0V61h1.52V71H556Zm-1.37-5.6c-.86,0-1.18.7-1.18,2.73,0,1.71.21,2.79,1.27,2.79S556,69,556,67.34C556,65.53,555.76,64.5,554.59,64.5Z" fill="#3b4351"/><path d="M567.14,69.46c0,.28.17.53.4.53a.76.76,0,0,0,.25,0v1a1.58,1.58,0,0,1-.74.18c-.68,0-1.24-.27-1.28-1h0a1.93,1.93,0,0,1-1.87,1.11c-1.22,0-2-.66-2-2.11a2.08,2.08,0,0,1,1.75-2.37l1.17-.32c.55-.16.89-.31.89-1s-.24-1.12-1-1.12c-1,0-1.15.71-1.15,1.44H562.1c0-1.61.66-2.48,2.65-2.48,1.33,0,2.39.52,2.39,1.85Zm-1.42-2.41a12,12,0,0,1-1.69.7,1.24,1.24,0,0,0-.61,1.22c0,.63.31,1.13.94,1.13.91,0,1.36-.67,1.36-1.79Z" fill="#3b4351"/><path d="M568.68,63.49h1.51v1.18h0A1.88,1.88,0,0,1,572,63.29a.92.92,0,0,1,.37.06v1.54a2.24,2.24,0,0,0-.63-.08c-.69,0-1.52.3-1.52,1.7V71h-1.51Z" fill="#3b4351"/><path d="M578.09,68.28c-.11,1.81-.7,2.94-2.57,2.94-2.19,0-2.81-1.61-2.81-4s.62-4,2.81-4A2.44,2.44,0,0,1,578.11,66h-1.52c0-.7-.18-1.63-1.07-1.59-1.08,0-1.29,1.18-1.29,2.85s.21,2.84,1.29,2.84c.83,0,1.14-.69,1.14-1.82Z" fill="#3b4351"/><path d="M579.14,61h1.51V64.3l0,0a2.16,2.16,0,0,1,1.85-1c1.15,0,1.88.52,1.88,2.05V71h-1.51V65.86c0-1-.28-1.36-1-1.36s-1.21.47-1.21,1.47V71h-1.51Z" fill="#3b4351"/><path d="M585.94,60.91h1.52v1.51h-1.52Zm0,2.58h1.52V71h-1.52Z" fill="#3b4351"/><path d="M588.31,63.49h1V61.35h1.51v2.14h1.23v1.12h-1.23v4.5c0,.6.17.79.68.79a2.75,2.75,0,0,0,.55,0V71a4.64,4.64,0,0,1-1.22.13c-1,0-1.52-.3-1.52-1.82V64.61h-1Z" fill="#3b4351"/><path d="M594.18,67.45v.44c0,1,.12,2.29,1.26,2.29s1.2-1.21,1.2-1.68h1.43a2.48,2.48,0,0,1-2.65,2.72c-1.23,0-2.76-.36-2.76-3.85,0-2,.44-4.08,2.79-4.08,2.1,0,2.66,1.28,2.66,3.36v.8Zm2.42-1V66c0-1-.31-1.68-1.16-1.68s-1.26,1-1.26,1.93v.16Z" fill="#3b4351"/><path d="M604.44,68.28c-.11,1.81-.7,2.94-2.58,2.94-2.18,0-2.8-1.61-2.8-4s.62-4,2.8-4A2.44,2.44,0,0,1,604.45,66h-1.51c0-.7-.18-1.63-1.08-1.59-1.08,0-1.29,1.18-1.29,2.85s.21,2.84,1.29,2.84c.84,0,1.15-.69,1.15-1.82Z" fill="#3b4351"/><path d="M604.9,63.49h1V61.35h1.52v2.14h1.23v1.12h-1.23v4.5c0,.6.17.79.68.79a2.75,2.75,0,0,0,.55,0V71a4.64,4.64,0,0,1-1.22.13c-1,0-1.53-.3-1.53-1.82V64.61h-1Z" fill="#3b4351"/><path d="M613.31,70.14h0a2.17,2.17,0,0,1-1.93,1.08c-1.12,0-1.88-.52-1.88-2.46V63.49H611V68.9c0,.84.36,1.12,1,1.12a1.17,1.17,0,0,0,1.23-1.26V63.49h1.51V71h-1.43Z" fill="#3b4351"/><path d="M616.2,63.49h1.51v1.18h0a1.86,1.86,0,0,1,1.75-1.38.87.87,0,0,1,.36.06v1.54a2.18,2.18,0,0,0-.63-.08c-.69,0-1.51.3-1.51,1.7V71H616.2Z" fill="#3b4351"/><path d="M621.82,67.45v.44c0,1,.13,2.29,1.27,2.29s1.2-1.21,1.2-1.68h1.43a2.48,2.48,0,0,1-2.65,2.72c-1.23,0-2.76-.36-2.76-3.85,0-2,.44-4.08,2.79-4.08,2.1,0,2.66,1.28,2.66,3.36v.8Zm2.43-1V66c0-1-.31-1.68-1.16-1.68s-1.27,1-1.27,1.93v.16Z" fill="#3b4351"/><path d="M626.64,69.18h1.6V71h-1.6Z" fill="#3b4351"/><path d="M643.38,61h2.85c3.13,0,3.53,2,3.53,5s-.4,5-3.53,5h-2.85Zm1.6,8.8h1.32c1.31,0,1.86-.87,1.86-3.8s-.48-3.79-1.86-3.79H645Z" fill="#3b4351"/><path d="M656,69.46c0,.28.17.53.4.53a.76.76,0,0,0,.25,0v1a1.58,1.58,0,0,1-.74.18c-.68,0-1.24-.27-1.28-1h0a1.93,1.93,0,0,1-1.87,1.11c-1.22,0-2-.66-2-2.11a2.09,2.09,0,0,1,1.76-2.37l1.17-.32c.55-.16.88-.31.88-1s-.23-1.12-1-1.12c-1,0-1.15.71-1.15,1.44H651c0-1.61.66-2.48,2.65-2.48,1.33,0,2.39.52,2.39,1.85Zm-1.43-2.41a11.88,11.88,0,0,1-1.68.7,1.24,1.24,0,0,0-.61,1.22c0,.63.31,1.13.94,1.13.91,0,1.35-.67,1.35-1.79Z" fill="#3b4351"/><path d="M657.62,63.49h1.43v.88h0a2.12,2.12,0,0,1,1.81-1.08,1.63,1.63,0,0,1,1.75,1.15,2.05,2.05,0,0,1,1.91-1.15c1.06,0,1.83.55,1.83,2V71h-1.51V65.86c0-1-.3-1.36-.91-1.36s-1.21.47-1.21,1.47V71h-1.51V65.86c0-1-.3-1.36-.93-1.36s-1.19.49-1.19,1.47V71h-1.51Z" fill="#3b4351"/><path d="M671.16,65.69v-.2c0-.6-.21-1.16-1-1.16-.61,0-1.08.27-1.08,1s.26.83,1.06,1.11l1,.33a2,2,0,0,1,1.64,2.17c0,1.62-1.19,2.3-2.71,2.3-1.9,0-2.47-.88-2.47-2.34V68.6h1.34v.24c0,.88.29,1.34,1.18,1.34s1.23-.42,1.23-1.1A1.09,1.09,0,0,0,670.5,68l-1.23-.43a2,2,0,0,1-1.61-2.17c0-1.42,1-2.08,2.58-2.08,1.92,0,2.35,1.12,2.35,2.06v.34Z" fill="#3b4351"/><path d="M682.18,69.46c0,.28.17.53.39.53a.72.72,0,0,0,.25,0v1a1.55,1.55,0,0,1-.74.18c-.67,0-1.23-.27-1.27-1h0a1.94,1.94,0,0,1-1.88,1.11c-1.22,0-2-.66-2-2.11a2.08,2.08,0,0,1,1.75-2.37l1.18-.32c.55-.16.88-.31.88-1s-.24-1.12-1-1.12c-1,0-1.15.71-1.15,1.44h-1.43c0-1.61.66-2.48,2.64-2.48,1.34,0,2.4.52,2.4,1.85Zm-1.43-2.41a12.39,12.39,0,0,1-1.68.7,1.25,1.25,0,0,0-.62,1.22c0,.63.31,1.13.94,1.13.91,0,1.36-.67,1.36-1.79Z" fill="#3b4351"/><path d="M683.72,63.49h1.43v.88h0a2.17,2.17,0,0,1,1.93-1.08c1.15,0,1.88.52,1.88,2.05V71h-1.51V65.86c0-1-.27-1.36-1-1.36-.62,0-1.21.46-1.21,1.47V71h-1.51Z" fill="#3b4351"/><path d="M694.3,70.1h0a1.62,1.62,0,0,1-1.66,1.12c-1.75,0-2.46-1.48-2.46-4.06,0-3.35,1.17-3.87,2.32-3.87a1.74,1.74,0,0,1,1.71,1.08h0V61h1.51V71H694.3Zm-1.37-5.6c-.85,0-1.18.7-1.18,2.73,0,1.71.21,2.79,1.28,2.79s1.27-1,1.27-2.68C694.3,65.53,694.11,64.5,692.93,64.5Z" fill="#3b4351"/><path d="M705.63,68.28c-.11,1.81-.7,2.94-2.58,2.94-2.18,0-2.8-1.61-2.8-4s.62-4,2.8-4A2.44,2.44,0,0,1,705.64,66h-1.51c0-.7-.18-1.63-1.08-1.59-1.08,0-1.29,1.18-1.29,2.85s.21,2.84,1.29,2.84c.84,0,1.15-.69,1.15-1.82Z" fill="#3b4351"/><path d="M711.7,69.46c0,.28.17.53.4.53a.76.76,0,0,0,.25,0v1a1.58,1.58,0,0,1-.74.18c-.68,0-1.24-.27-1.28-1h0a1.93,1.93,0,0,1-1.87,1.11c-1.22,0-2-.66-2-2.11a2.08,2.08,0,0,1,1.75-2.37l1.17-.32c.55-.16.89-.31.89-1s-.24-1.12-1-1.12c-1,0-1.15.71-1.15,1.44h-1.43c0-1.61.66-2.48,2.65-2.48,1.33,0,2.39.52,2.39,1.85Zm-1.42-2.41a12.39,12.39,0,0,1-1.68.7A1.23,1.23,0,0,0,708,69c0,.63.31,1.13.94,1.13.91,0,1.36-.67,1.36-1.79Z" fill="#3b4351"/><path d="M713.24,63.49h1.43v.88h0a2.18,2.18,0,0,1,1.94-1.08c1.15,0,1.87.52,1.87,2.05V71H717V65.86c0-1-.27-1.36-1-1.36-.62,0-1.2.46-1.2,1.47V71h-1.52Z" fill="#3b4351"/><path d="M724.92,69.46c0,.28.17.53.39.53a.67.67,0,0,0,.25,0v1a1.55,1.55,0,0,1-.74.18c-.67,0-1.23-.27-1.27-1h0a1.94,1.94,0,0,1-1.88,1.11c-1.22,0-2-.66-2-2.11a2.08,2.08,0,0,1,1.75-2.37l1.18-.32c.55-.16.88-.31.88-1s-.24-1.12-1-1.12c-1,0-1.15.71-1.15,1.44h-1.43c0-1.61.66-2.48,2.64-2.48,1.34,0,2.4.52,2.4,1.85Zm-1.43-2.41a12.39,12.39,0,0,1-1.68.7,1.25,1.25,0,0,0-.62,1.22c0,.63.31,1.13.94,1.13.91,0,1.36-.67,1.36-1.79Z" fill="#3b4351"/><path d="M726.53,61H728V71h-1.51Z" fill="#3b4351"/><path d="M732.82,65.69v-.2c0-.6-.22-1.16-1-1.16-.6,0-1.08.27-1.08,1s.27.83,1.07,1.11l1,.33a2,2,0,0,1,1.64,2.17c0,1.62-1.19,2.3-2.7,2.3-1.91,0-2.48-.88-2.48-2.34V68.6h1.34v.24c0,.88.3,1.34,1.18,1.34s1.23-.42,1.23-1.1a1.09,1.09,0,0,0-.82-1.11l-1.24-.43a2,2,0,0,1-1.61-2.17c0-1.42,1-2.08,2.58-2.08,1.92,0,2.35,1.12,2.35,2.06v.34Z" fill="#3b4351"/><path d="M744,68.28c-.12,1.81-.71,2.94-2.58,2.94-2.19,0-2.8-1.61-2.8-4s.61-4,2.8-4A2.44,2.44,0,0,1,744,66h-1.51c0-.7-.19-1.63-1.08-1.59-1.08,0-1.29,1.18-1.29,2.85s.21,2.84,1.29,2.84c.84,0,1.15-.69,1.15-1.82Z" fill="#3b4351"/><path d="M744.81,67.26c0-2.36.62-4,2.8-4s2.82,1.61,2.82,4-.73,4-2.82,4S744.81,69.61,744.81,67.26Zm2.8,2.84c1.11,0,1.31-.92,1.31-2.84,0-1.67-.2-2.85-1.31-2.85s-1.29,1.18-1.29,2.85C746.32,69.18,746.53,70.1,747.61,70.1Z" fill="#3b4351"/><path d="M751.59,63.49H753v.88h0A2.17,2.17,0,0,1,755,63.29c1.15,0,1.88.52,1.88,2.05V71h-1.51V65.86c0-1-.27-1.36-1.05-1.36-.62,0-1.21.46-1.21,1.47V71h-1.51Z" fill="#3b4351"/><path d="M761.57,65.69v-.2c0-.6-.21-1.16-1-1.16-.61,0-1.08.27-1.08,1s.26.83,1.06,1.11l1,.33a2,2,0,0,1,1.64,2.17c0,1.62-1.19,2.3-2.71,2.3-1.9,0-2.47-.88-2.47-2.34V68.6h1.34v.24c0,.88.29,1.34,1.18,1.34s1.23-.42,1.23-1.1a1.09,1.09,0,0,0-.83-1.11l-1.23-.43a2,2,0,0,1-1.61-2.17c0-1.42,1-2.08,2.58-2.08,1.92,0,2.35,1.12,2.35,2.06v.34Z" fill="#3b4351"/><path d="M763.61,63.49h1V61.35h1.51v2.14h1.23v1.12h-1.23v4.5c0,.6.17.79.69.79a2.64,2.64,0,0,0,.54,0V71a4.56,4.56,0,0,1-1.21.13c-1,0-1.53-.3-1.53-1.82V64.61h-1Z" fill="#3b4351"/><path d="M768.18,63.49h1.51v1.18h0a1.86,1.86,0,0,1,1.75-1.38.87.87,0,0,1,.36.06v1.54a2.18,2.18,0,0,0-.63-.08c-.68,0-1.51.3-1.51,1.7V71h-1.51Z" fill="#3b4351"/><path d="M776.44,70.14h0a2.17,2.17,0,0,1-1.94,1.08c-1.12,0-1.87-.52-1.87-2.46V63.49h1.51V68.9c0,.84.36,1.12,1,1.12a1.17,1.17,0,0,0,1.23-1.26V63.49h1.52V71h-1.43Z" fill="#3b4351"/><path d="M784.41,68.28c-.12,1.81-.71,2.94-2.58,2.94-2.19,0-2.8-1.61-2.8-4s.61-4,2.8-4A2.44,2.44,0,0,1,784.42,66h-1.51c0-.7-.19-1.63-1.08-1.59-1.08,0-1.29,1.18-1.29,2.85s.21,2.84,1.29,2.84c.84,0,1.15-.69,1.15-1.82Z" fill="#3b4351"/><path d="M784.86,63.49h1V61.35h1.51v2.14h1.24v1.12h-1.24v4.5c0,.6.17.79.69.79a2.81,2.81,0,0,0,.55,0V71a4.69,4.69,0,0,1-1.22.13c-1,0-1.53-.3-1.53-1.82V64.61h-1Z" fill="#3b4351"/><path d="M790.73,67.45v.44c0,1,.13,2.29,1.26,2.29S793.2,69,793.2,68.5h1.42A2.47,2.47,0,0,1,792,71.22c-1.24,0-2.76-.36-2.76-3.85,0-2,.43-4.08,2.79-4.08,2.1,0,2.66,1.28,2.66,3.36v.8Zm2.42-1V66c0-1-.3-1.68-1.16-1.68s-1.26,1-1.26,1.93v.16Z" fill="#3b4351"/><path d="M799.76,70.1h0a1.6,1.6,0,0,1-1.65,1.12c-1.75,0-2.46-1.48-2.46-4.06,0-3.35,1.17-3.87,2.32-3.87a1.74,1.74,0,0,1,1.71,1.08h0V61h1.51V71h-1.43Zm-1.37-5.6c-.85,0-1.18.7-1.18,2.73,0,1.71.21,2.79,1.28,2.79s1.27-1,1.27-2.68C799.76,65.53,799.57,64.5,798.39,64.5Z" fill="#3b4351"/><path d="M811,69.46c0,.28.17.53.39.53a.72.72,0,0,0,.25,0v1a1.58,1.58,0,0,1-.74.18c-.67,0-1.23-.27-1.27-1h0a1.94,1.94,0,0,1-1.88,1.11c-1.22,0-2-.66-2-2.11a2.08,2.08,0,0,1,1.75-2.37l1.18-.32c.54-.16.88-.31.88-1s-.24-1.12-1-1.12c-1,0-1.15.71-1.15,1.44H805.9c0-1.61.66-2.48,2.65-2.48,1.33,0,2.4.52,2.4,1.85Zm-1.43-2.41a12.39,12.39,0,0,1-1.68.7,1.23,1.23,0,0,0-.62,1.22c0,.63.31,1.13.94,1.13.91,0,1.36-.67,1.36-1.79Z" fill="#3b4351"/><path d="M812.49,63.49h1.42v.88H814a2.15,2.15,0,0,1,1.93-1.08c1.15,0,1.88.52,1.88,2.05V71h-1.52V65.86c0-1-.26-1.36-1-1.36-.61,0-1.2.46-1.2,1.47V71h-1.51Z" fill="#3b4351"/><path d="M823.07,70.1h0a1.61,1.61,0,0,1-1.65,1.12c-1.75,0-2.46-1.48-2.46-4.06,0-3.35,1.17-3.87,2.32-3.87A1.74,1.74,0,0,1,823,64.37h0V61h1.51V71h-1.43Zm-1.37-5.6c-.86,0-1.18.7-1.18,2.73,0,1.71.21,2.79,1.28,2.79s1.27-1,1.27-2.68C823.07,65.53,822.88,64.5,821.7,64.5Z" fill="#3b4351"/><path d="M829.38,61h1.51V71h-1.51Z" fill="#3b4351"/><path d="M837.36,69.46c0,.28.17.53.4.53a.76.76,0,0,0,.25,0v1a1.58,1.58,0,0,1-.74.18c-.68,0-1.24-.27-1.28-1h0a1.93,1.93,0,0,1-1.87,1.11c-1.22,0-2-.66-2-2.11a2.08,2.08,0,0,1,1.75-2.37l1.17-.32c.55-.16.88-.31.88-1s-.23-1.12-1-1.12c-1,0-1.15.71-1.15,1.44h-1.43c0-1.61.66-2.48,2.65-2.48,1.33,0,2.39.52,2.39,1.85Zm-1.43-2.41a11.41,11.41,0,0,1-1.68.7,1.24,1.24,0,0,0-.61,1.22c0,.63.31,1.13.94,1.13.91,0,1.35-.67,1.35-1.79Z" fill="#3b4351"/><path d="M838.9,63.49h1.43v.88h0a2.18,2.18,0,0,1,1.94-1.08c1.14,0,1.87.52,1.87,2.05V71h-1.51V65.86c0-1-.27-1.36-1-1.36-.62,0-1.21.46-1.21,1.47V71H838.9Z" fill="#3b4351"/><path d="M849.49,70.1h0a1.61,1.61,0,0,1-1.65,1.12c-1.75,0-2.47-1.48-2.47-4.06,0-3.35,1.18-3.87,2.33-3.87a1.75,1.75,0,0,1,1.71,1.08h0V61h1.52V71h-1.43Zm-1.38-5.6c-.85,0-1.17.7-1.17,2.73,0,1.71.21,2.79,1.27,2.79s1.28-1,1.28-2.68C849.49,65.53,849.29,64.5,848.11,64.5Z" fill="#3b4351"/><path d="M855.62,65.69v-.2c0-.6-.21-1.16-1-1.16-.6,0-1.07.27-1.07,1s.26.83,1.06,1.11l1,.33a2,2,0,0,1,1.64,2.17c0,1.62-1.2,2.3-2.71,2.3-1.9,0-2.48-.88-2.48-2.34V68.6h1.35v.24c0,.88.29,1.34,1.17,1.34s1.24-.42,1.24-1.1A1.09,1.09,0,0,0,855,68l-1.23-.43a2,2,0,0,1-1.61-2.17c0-1.42,1-2.08,2.57-2.08,1.92,0,2.36,1.12,2.36,2.06v.34Z" fill="#3b4351"/><path d="M861.69,63.49h1.52v1.18h0A1.88,1.88,0,0,1,865,63.29a.89.89,0,0,1,.37.06v1.54a2.24,2.24,0,0,0-.63-.08c-.69,0-1.51.3-1.51,1.7V71h-1.52Z" fill="#3b4351"/><path d="M867.32,67.45v.44c0,1,.13,2.29,1.26,2.29s1.21-1.21,1.21-1.68h1.43a2.48,2.48,0,0,1-2.65,2.72c-1.23,0-2.76-.36-2.76-3.85,0-2,.43-4.08,2.79-4.08,2.1,0,2.66,1.28,2.66,3.36v.8Zm2.42-1V66c0-1-.3-1.68-1.16-1.68s-1.26,1-1.26,1.93v.16Z" fill="#3b4351"/><path d="M877.59,68.28c-.12,1.81-.7,2.94-2.58,2.94-2.19,0-2.8-1.61-2.8-4s.61-4,2.8-4A2.44,2.44,0,0,1,877.6,66h-1.51c0-.7-.19-1.63-1.08-1.59-1.08,0-1.29,1.18-1.29,2.85s.21,2.84,1.29,2.84c.84,0,1.15-.69,1.15-1.82Z" fill="#3b4351"/><path d="M878.79,61h1.51V71h-1.51Z" fill="#3b4351"/><path d="M886.77,69.46c0,.28.17.53.39.53a.72.72,0,0,0,.25,0v1a1.55,1.55,0,0,1-.74.18c-.67,0-1.23-.27-1.27-1h0a1.94,1.94,0,0,1-1.88,1.11c-1.22,0-2-.66-2-2.11a2.08,2.08,0,0,1,1.75-2.37l1.18-.32c.54-.16.88-.31.88-1s-.24-1.12-1-1.12c-1,0-1.14.71-1.14,1.44h-1.43c0-1.61.66-2.48,2.64-2.48,1.33,0,2.4.52,2.4,1.85Zm-1.43-2.41a12.39,12.39,0,0,1-1.68.7A1.25,1.25,0,0,0,883,69c0,.63.31,1.13.94,1.13.91,0,1.36-.67,1.36-1.79Z" fill="#3b4351"/><path d="M888.38,60.91h1.51v1.51h-1.51Zm0,2.58h1.51V71h-1.51Z" fill="#3b4351"/><path d="M891.48,63.49h1.43v.88H893a2.1,2.1,0,0,1,1.8-1.08,1.63,1.63,0,0,1,1.75,1.15,2.07,2.07,0,0,1,1.91-1.15c1.06,0,1.83.55,1.83,2V71h-1.51V65.86c0-1-.29-1.36-.91-1.36s-1.2.47-1.2,1.47V71h-1.52V65.86c0-1-.29-1.36-.92-1.36S893,65,893,66V71h-1.52Z" fill="#3b4351"/><path d="M903.08,67.45v.44c0,1,.12,2.29,1.26,2.29s1.2-1.21,1.2-1.68H907a2.48,2.48,0,0,1-2.65,2.72c-1.23,0-2.76-.36-2.76-3.85,0-2,.44-4.08,2.79-4.08,2.1,0,2.66,1.28,2.66,3.36v.8Zm2.42-1V66c0-1-.31-1.68-1.16-1.68s-1.26,1-1.26,1.93v.16Z" fill="#3b4351"/><path d="M912.11,70.1h0a1.61,1.61,0,0,1-1.65,1.12c-1.75,0-2.47-1.48-2.47-4.06,0-3.35,1.18-3.87,2.33-3.87A1.75,1.75,0,0,1,912,64.37h0V61h1.52V71h-1.43Zm-1.37-5.6c-.86,0-1.18.7-1.18,2.73,0,1.71.21,2.79,1.27,2.79s1.28-1,1.28-2.68C912.11,65.53,911.91,64.5,910.74,64.5Z" fill="#3b4351"/><path d="M918.35,61h1.51v3.35h0a1.74,1.74,0,0,1,1.71-1.08c1.15,0,2.33.52,2.33,3.87,0,2.59-.72,4.06-2.47,4.06a1.61,1.61,0,0,1-1.65-1.12h0V71h-1.43Zm2.7,9c1.07,0,1.28-1.08,1.28-2.79,0-2-.32-2.73-1.18-2.73-1.17,0-1.37,1-1.37,2.84C919.78,69,920,70,921.05,70Z" fill="#3b4351"/><path d="M925.93,63.49l1.3,5.66h0l1.2-5.66H930L928,71.31c-.6,2-1.06,2.33-2.63,2.29a3.14,3.14,0,0,1-.61,0V72.34a2.12,2.12,0,0,0,.49.06c.52,0,.86-.1,1-.59l.19-.62-2.14-7.7Z" fill="#3b4351"/></g></g><g id="Ageans"><g id="Title"><g id="small-2" data-name="small"><path d="M136.31,5.16h1.52V8.44l0,0a2.14,2.14,0,0,1,1.85-1c1.15,0,1.87.52,1.87,2.05v5.68h-1.51V10c0-1-.28-1.36-1.05-1.36-.62,0-1.2.48-1.2,1.48v5.05h-1.52Z" fill="#3b4351"/><path d="M148,13.59c0,.28.17.54.39.54a.57.57,0,0,0,.26-.05v1a1.62,1.62,0,0,1-.75.19c-.67,0-1.23-.27-1.27-1h0a2,2,0,0,1-1.88,1.11c-1.21,0-2-.66-2-2.12a2.07,2.07,0,0,1,1.75-2.36l1.18-.33c.55-.15.88-.3.88-1s-.24-1.12-1-1.12c-1,0-1.15.71-1.15,1.44H143c0-1.61.66-2.48,2.65-2.48,1.33,0,2.39.52,2.39,1.85Zm-1.43-2.41a11.23,11.23,0,0,1-1.68.7,1.24,1.24,0,0,0-.61,1.22c0,.63.3,1.14.93,1.14.91,0,1.36-.67,1.36-1.8Z" fill="#3b4351"/><path d="M148.81,7.63h1.63l1.32,5.94h0L153,7.63h1.62l-2,7.53h-1.77Z" fill="#3b4351"/><path d="M156.71,11.59V12c0,1,.13,2.3,1.26,2.3s1.21-1.22,1.21-1.68h1.43A2.48,2.48,0,0,1,158,15.36c-1.23,0-2.76-.37-2.76-3.85,0-2,.43-4.08,2.79-4.08,2.1,0,2.66,1.27,2.66,3.36v.8Zm2.42-1v-.4c0-1-.3-1.68-1.16-1.68s-1.26.95-1.26,1.93v.15Z" fill="#3b4351"/><path d="M169.1,14.24h0a1.6,1.6,0,0,1-1.65,1.12c-1.75,0-2.46-1.49-2.46-4.06,0-3.35,1.17-3.87,2.32-3.87A1.74,1.74,0,0,1,169,8.51h0V5.16h1.51v10H169.1Zm-1.37-5.61c-.85,0-1.18.7-1.18,2.74,0,1.71.21,2.78,1.28,2.78s1.27-1.05,1.27-2.67C169.1,9.67,168.91,8.63,167.73,8.63Z" fill="#3b4351"/><path d="M173.29,11.59V12c0,1,.12,2.3,1.26,2.3s1.2-1.22,1.2-1.68h1.43a2.48,2.48,0,0,1-2.65,2.72c-1.23,0-2.76-.37-2.76-3.85,0-2,.44-4.08,2.79-4.08,2.1,0,2.66,1.27,2.66,3.36v.8Zm2.42-1v-.4c0-1-.31-1.68-1.16-1.68s-1.26.95-1.26,1.93v.15Z" fill="#3b4351"/><path d="M177.84,7.63h1.62l1.32,5.94h0L182,7.63h1.61l-2,7.53h-1.77Z" fill="#3b4351"/><path d="M185.73,11.59V12c0,1,.13,2.3,1.26,2.3s1.21-1.22,1.21-1.68h1.43A2.48,2.48,0,0,1,187,15.36c-1.23,0-2.76-.37-2.76-3.85,0-2,.43-4.08,2.79-4.08,2.1,0,2.66,1.27,2.66,3.36v.8Zm2.43-1v-.4c0-1-.31-1.68-1.17-1.68s-1.26.95-1.26,1.93v.15Z" fill="#3b4351"/><path d="M191,5.16h1.51v10H191Z" fill="#3b4351"/><path d="M193.73,11.39c0-2.35.61-4,2.8-4s2.81,1.61,2.81,4-.73,4-2.81,4S193.73,13.75,193.73,11.39Zm2.8,2.85c1.1,0,1.3-.93,1.3-2.85,0-1.66-.2-2.84-1.3-2.84s-1.29,1.18-1.29,2.84C195.24,13.31,195.45,14.24,196.53,14.24Z" fill="#3b4351"/><path d="M203.75,15.36A1.74,1.74,0,0,1,202,14.28h0v3.35H200.5v-10h1.43v.92h0a1.78,1.78,0,0,1,1.69-1.12c1.73,0,2.43,1.47,2.43,4.06C206.08,14.66,204.8,15.36,203.75,15.36Zm-.55-6.73c-1,0-1.27,1.06-1.27,2.68,0,1.81.22,2.84,1.29,2.84.85,0,1.26-.64,1.26-2.73C204.48,9.71,204.27,8.63,203.2,8.63Z" fill="#3b4351"/><path d="M208.54,11.59V12c0,1,.12,2.3,1.26,2.3s1.2-1.22,1.2-1.68h1.43a2.48,2.48,0,0,1-2.64,2.72c-1.24,0-2.76-.37-2.76-3.85,0-2,.43-4.08,2.78-4.08,2.1,0,2.66,1.27,2.66,3.36v.8Zm2.42-1v-.4c0-1-.31-1.68-1.16-1.68s-1.26.95-1.26,1.93v.15Z" fill="#3b4351"/><path d="M217.57,14.24h0a1.61,1.61,0,0,1-1.65,1.12c-1.75,0-2.47-1.49-2.47-4.06,0-3.35,1.18-3.87,2.33-3.87a1.74,1.74,0,0,1,1.71,1.08h0V5.16H219v10h-1.43ZM216.2,8.63c-.86,0-1.18.7-1.18,2.74,0,1.71.21,2.78,1.27,2.78s1.28-1.05,1.28-2.67C217.57,9.67,217.37,8.63,216.2,8.63Z" fill="#3b4351"/><path d="M228.76,13.59c0,.28.16.54.39.54a.55.55,0,0,0,.25-.05v1a1.58,1.58,0,0,1-.74.19c-.67,0-1.23-.27-1.28-1h0a2,2,0,0,1-1.88,1.11c-1.22,0-2-.66-2-2.12a2.06,2.06,0,0,1,1.75-2.36l1.17-.33c.55-.15.89-.3.89-1s-.24-1.12-1-1.12c-1,0-1.15.71-1.15,1.44h-1.43c0-1.61.66-2.48,2.65-2.48,1.33,0,2.4.52,2.4,1.85Zm-1.43-2.41a11.23,11.23,0,0,1-1.68.7A1.23,1.23,0,0,0,225,13.1c0,.63.31,1.14.94,1.14.91,0,1.36-.67,1.36-1.8Z" fill="#3b4351"/><path d="M238.74,12.42c-.11,1.8-.7,2.94-2.58,2.94-2.18,0-2.8-1.61-2.8-4s.62-4,2.8-4a2.43,2.43,0,0,1,2.59,2.7h-1.51c0-.7-.18-1.62-1.08-1.58-1.08,0-1.29,1.18-1.29,2.84s.21,2.85,1.29,2.85c.84,0,1.15-.69,1.15-1.82Z" fill="#3b4351"/><path d="M243.72,14.28h0a2.17,2.17,0,0,1-1.93,1.08c-1.12,0-1.88-.52-1.88-2.47V7.63h1.51V13c0,.84.37,1.12,1,1.12a1.18,1.18,0,0,0,1.24-1.26V7.63h1.51v7.53h-1.43Z" fill="#3b4351"/><path d="M246.67,5.16h1.52v10h-1.52Z" fill="#3b4351"/><path d="M249,7.63h1V5.48h1.51V7.63h1.23V8.75h-1.23v4.49c0,.61.17.8.68.8a2.75,2.75,0,0,0,.55,0v1.12a5.11,5.11,0,0,1-1.22.13c-1,0-1.52-.3-1.52-1.82V8.75h-1Z" fill="#3b4351"/><path d="M257.45,14.28h0a2.17,2.17,0,0,1-1.93,1.08c-1.12,0-1.88-.52-1.88-2.47V7.63h1.52V13c0,.84.36,1.12,1,1.12a1.17,1.17,0,0,0,1.23-1.26V7.63h1.51v7.53h-1.43Z" fill="#3b4351"/><path d="M260.34,7.63h1.51V8.8h0a1.85,1.85,0,0,1,1.75-1.37.73.73,0,0,1,.36.06V9a1.83,1.83,0,0,0-.63-.09c-.68,0-1.51.31-1.51,1.71v4.51h-1.51Z" fill="#3b4351"/><path d="M266,11.59V12c0,1,.12,2.3,1.26,2.3s1.2-1.22,1.2-1.68h1.43a2.48,2.48,0,0,1-2.65,2.72c-1.23,0-2.76-.37-2.76-3.85,0-2,.44-4.08,2.79-4.08,2.1,0,2.66,1.27,2.66,3.36v.8Zm2.42-1v-.4c0-1-.31-1.68-1.16-1.68S266,9.42,266,10.4v.15Z" fill="#3b4351"/><path d="M140.74,33.28h0a2.18,2.18,0,0,1-1.94,1.08c-1.12,0-1.87-.52-1.87-2.47V26.63h1.51V32c0,.84.36,1.12,1,1.12a1.18,1.18,0,0,0,1.24-1.26V26.63h1.51v7.53h-1.43Z" fill="#3b4351"/><path d="M143.62,26.63h1.43v.88h0A2.17,2.17,0,0,1,147,26.43c1.15,0,1.88.52,1.88,2.05v5.68h-1.51V29c0-1-.27-1.36-1-1.36-.62,0-1.21.47-1.21,1.48v5h-1.51Z" fill="#3b4351"/><path d="M154.21,33.24h0a1.61,1.61,0,0,1-1.65,1.12c-1.76,0-2.47-1.49-2.47-4.06,0-3.35,1.18-3.87,2.33-3.87a1.74,1.74,0,0,1,1.7,1.08h0V24.16h1.52v10h-1.43Zm-1.38-5.61c-.85,0-1.17.7-1.17,2.74,0,1.71.21,2.78,1.27,2.78s1.28-1,1.28-2.67C154.21,28.67,154,27.63,152.83,27.63Z" fill="#3b4351"/><path d="M158.39,30.59V31c0,1,.13,2.3,1.26,2.3s1.21-1.22,1.21-1.68h1.43a2.48,2.48,0,0,1-2.65,2.72c-1.23,0-2.76-.37-2.76-3.85,0-2,.43-4.08,2.79-4.08,2.1,0,2.66,1.27,2.66,3.36v.8Zm2.42-1v-.4c0-1-.3-1.68-1.16-1.68s-1.26,1-1.26,1.93v.15Z" fill="#3b4351"/><path d="M163.57,26.63h1.51V27.8h0a1.87,1.87,0,0,1,1.75-1.37.77.77,0,0,1,.37.06V28a1.91,1.91,0,0,0-.63-.09c-.69,0-1.52.31-1.52,1.71v4.51h-1.51Z" fill="#3b4351"/><path d="M171.44,24.16h5.41v1.35H173v2.77h3.58v1.34H173v3.2H177v1.34h-5.52Z" fill="#3b4351"/><path d="M179.59,34.81a1,1,0,0,0,1.09.89A1.24,1.24,0,0,0,182,34.29V33.07h0a1.82,1.82,0,0,1-1.71,1c-1.75,0-2.26-1.73-2.26-3.8,0-1.65.25-3.88,2.4-3.88A1.66,1.66,0,0,1,182,27.55h0v-.92h1.43V33.8c0,1.83-.79,2.94-2.82,2.94-2.24,0-2.49-1.32-2.49-1.93Zm1.06-1.91c1.18,0,1.3-1.48,1.3-2.67s-.15-2.6-1.2-2.6-1.27,1.13-1.27,2.53S179.53,32.9,180.65,32.9Z" fill="#3b4351"/><path d="M185.82,26.63l1.3,5.66h0l1.2-5.66h1.58l-2.07,7.81c-.6,2.06-1.06,2.34-2.63,2.3a2.45,2.45,0,0,1-.6-.06v-1.2a2,2,0,0,0,.49.05c.51,0,.85-.09,1-.58l.19-.62-2.14-7.7Z" fill="#3b4351"/><path d="M194,34.36a1.74,1.74,0,0,1-1.71-1.08h0v3.35h-1.51v-10h1.43v.92h0a1.78,1.78,0,0,1,1.69-1.12c1.73,0,2.43,1.47,2.43,4.06C196.35,33.66,195.07,34.36,194,34.36Zm-.54-6.73c-1,0-1.28,1.06-1.28,2.68,0,1.81.22,2.84,1.29,2.84.85,0,1.26-.64,1.26-2.73C194.75,28.71,194.54,27.63,193.48,27.63Z" fill="#3b4351"/><path d="M196.83,26.63h1V24.48h1.51v2.15h1.24v1.12h-1.24v4.49c0,.61.17.8.69.8a2.81,2.81,0,0,0,.55,0v1.12a5.17,5.17,0,0,1-1.22.13c-1,0-1.53-.3-1.53-1.82V27.75h-1Z" fill="#3b4351"/><path d="M201.47,24.05H203v1.51h-1.51Zm0,2.58H203v7.53h-1.51Z" fill="#3b4351"/><path d="M209.45,32.59c0,.28.17.54.39.54a.52.52,0,0,0,.25-.05v1a1.55,1.55,0,0,1-.74.19c-.67,0-1.23-.27-1.27-1h0a2,2,0,0,1-1.88,1.11c-1.22,0-2-.66-2-2.12A2.06,2.06,0,0,1,206,29.88l1.18-.33c.55-.15.88-.3.88-1s-.24-1.12-1-1.12c-1,0-1.14.71-1.14,1.44h-1.43c0-1.61.66-2.48,2.65-2.48,1.33,0,2.39.52,2.39,1.85ZM208,30.18a11.23,11.23,0,0,1-1.68.7,1.25,1.25,0,0,0-.62,1.22c0,.63.31,1.14.94,1.14.91,0,1.36-.67,1.36-1.8Z" fill="#3b4351"/><path d="M211,26.63h1.43v.88h0a2.17,2.17,0,0,1,1.93-1.08c1.15,0,1.88.52,1.88,2.05v5.68h-1.51V29c0-1-.27-1.36-1.06-1.36-.61,0-1.2.47-1.2,1.48v5H211Z" fill="#3b4351"/><path d="M221.15,24.05h1.51v1.51h-1.51Zm0,2.58h1.51v7.53h-1.51Z" fill="#3b4351"/><path d="M224.19,26.63h1.43v.88h0a2.17,2.17,0,0,1,1.93-1.08c1.15,0,1.88.52,1.88,2.05v5.68H228V29c0-1-.27-1.36-1.05-1.36-.62,0-1.21.47-1.21,1.48v5h-1.51Z" fill="#3b4351"/><path d="M231.39,27.75h-1.06V26.63h1.06v-.7c0-1.42.68-1.88,1.91-1.88a6.47,6.47,0,0,1,.83,0v1.16h-.42c-.56,0-.81.21-.81.72v.66h1.23v1.12H232.9v6.41h-1.51Zm3.5-3.59h1.51v10h-1.51Z" fill="#3b4351"/><path d="M241.78,33.28h-.05a2.17,2.17,0,0,1-1.93,1.08c-1.12,0-1.88-.52-1.88-2.47V26.63h1.52V32c0,.84.36,1.12,1,1.12a1.17,1.17,0,0,0,1.23-1.26V26.63h1.51v7.53h-1.42Z" fill="#3b4351"/><path d="M246,30.59V31c0,1,.13,2.3,1.26,2.3s1.21-1.22,1.21-1.68h1.42a2.47,2.47,0,0,1-2.64,2.72c-1.24,0-2.76-.37-2.76-3.85,0-2,.43-4.08,2.78-4.08,2.11,0,2.67,1.27,2.67,3.36v.8Zm2.42-1v-.4c0-1-.31-1.68-1.16-1.68s-1.26,1-1.26,1.93v.15Z" fill="#3b4351"/><path d="M251.14,26.63h1.43v.88h0a2.17,2.17,0,0,1,1.93-1.08c1.15,0,1.88.52,1.88,2.05v5.68h-1.51V29c0-1-.27-1.36-1-1.36-.62,0-1.21.47-1.21,1.48v5h-1.51Z" fill="#3b4351"/><path d="M263,31.42c-.11,1.8-.7,2.94-2.58,2.94-2.18,0-2.8-1.61-2.8-4s.62-4,2.8-4a2.43,2.43,0,0,1,2.59,2.7h-1.51c0-.7-.18-1.62-1.08-1.58-1.08,0-1.29,1.18-1.29,2.84s.21,2.85,1.29,2.85c.84,0,1.15-.69,1.15-1.82Z" fill="#3b4351"/><path d="M265.39,30.59V31c0,1,.13,2.3,1.26,2.3s1.21-1.22,1.21-1.68h1.43a2.48,2.48,0,0,1-2.65,2.72c-1.23,0-2.76-.37-2.76-3.85,0-2,.43-4.08,2.79-4.08,2.1,0,2.66,1.27,2.66,3.36v.8Zm2.42-1v-.4c0-1-.3-1.68-1.16-1.68s-1.26,1-1.26,1.93v.15Z" fill="#3b4351"/><path d="M106.46,51.59c0,.28.17.54.39.54a.57.57,0,0,0,.26-.05v1a1.62,1.62,0,0,1-.75.19c-.67,0-1.23-.27-1.27-1h0a2,2,0,0,1-1.88,1.11c-1.22,0-2-.66-2-2.12A2.06,2.06,0,0,1,103,48.88l1.18-.33c.55-.15.88-.3.88-1s-.24-1.12-1-1.12c-1,0-1.15.71-1.15,1.44h-1.43c0-1.61.66-2.48,2.65-2.48,1.33,0,2.39.52,2.39,1.85ZM105,49.18a11.23,11.23,0,0,1-1.68.7,1.24,1.24,0,0,0-.61,1.22c0,.63.3,1.14.93,1.14.91,0,1.36-.67,1.36-1.8Z" fill="#3b4351"/><path d="M108,45.63h1.43v.88h0a2.17,2.17,0,0,1,1.93-1.08c1.15,0,1.88.52,1.88,2v5.68h-1.51V48c0-1-.27-1.36-1-1.36-.62,0-1.21.47-1.21,1.48v5H108Z" fill="#3b4351"/><path d="M118.58,52.24h0a1.62,1.62,0,0,1-1.66,1.12c-1.75,0-2.46-1.49-2.46-4.06,0-3.35,1.17-3.87,2.32-3.87a1.74,1.74,0,0,1,1.71,1.08h0V43.16H120v10h-1.43Zm-1.37-5.61c-.85,0-1.17.7-1.17,2.74,0,1.71.21,2.78,1.27,2.78s1.27-1,1.27-2.67C118.58,47.67,118.39,46.63,117.21,46.63Z" fill="#3b4351"/><path d="M124.83,43.16h1.51v3.35h0a1.74,1.74,0,0,1,1.71-1.08c1.14,0,2.32.52,2.32,3.87,0,2.59-.71,4.06-2.46,4.06a1.61,1.61,0,0,1-1.66-1.12h0v.92h-1.42Zm2.7,9c1.06,0,1.27-1.07,1.27-2.78,0-2-.32-2.74-1.17-2.74-1.18,0-1.38,1-1.38,2.85C126.25,51.1,126.49,52.15,127.53,52.15Z" fill="#3b4351"/><path d="M135.41,52.28h0a2.17,2.17,0,0,1-1.93,1.08c-1.12,0-1.88-.52-1.88-2.47V45.63h1.51V51c0,.84.37,1.12,1,1.12a1.18,1.18,0,0,0,1.23-1.26V45.63h1.51v7.53h-1.43Z" fill="#3b4351"/><path d="M138.36,43.05h1.52v1.51h-1.52Zm0,2.58h1.52v7.53h-1.52Z" fill="#3b4351"/><path d="M141.47,43.16H143v10h-1.51Z" fill="#3b4351"/><path d="M143.84,45.63h1V43.48h1.52v2.15h1.23v1.12h-1.23v4.49c0,.61.16.8.68.8a2.75,2.75,0,0,0,.55,0v1.12a5.11,5.11,0,0,1-1.22.13c-1,0-1.53-.3-1.53-1.82V46.75h-1Z" fill="#3b4351"/><path d="M151.83,45.63h1.43v.88h0a2.12,2.12,0,0,1,1.81-1.08,1.63,1.63,0,0,1,1.75,1.15,2.05,2.05,0,0,1,1.91-1.15c1.06,0,1.83.55,1.83,2v5.73h-1.51V48c0-1-.3-1.36-.91-1.36s-1.21.48-1.21,1.48v5h-1.51V48c0-1-.29-1.36-.92-1.36s-1.2.5-1.2,1.48v5h-1.51Z" fill="#3b4351"/><path d="M161.83,49.39c0-2.35.61-4,2.8-4s2.81,1.61,2.81,4-.72,4-2.81,4S161.83,51.75,161.83,49.39Zm2.8,2.85c1.11,0,1.3-.93,1.3-2.85,0-1.66-.19-2.84-1.3-2.84s-1.29,1.18-1.29,2.84C163.34,51.31,163.55,52.24,164.63,52.24Z" fill="#3b4351"/><path d="M168.6,45.63H170v.88h0A2.18,2.18,0,0,1,172,45.43c1.15,0,1.87.52,1.87,2v5.68h-1.51V48c0-1-.26-1.36-1.05-1.36-.62,0-1.2.47-1.2,1.48v5H168.6Z" fill="#3b4351"/><path d="M179.19,52.28h0a2.18,2.18,0,0,1-1.94,1.08c-1.12,0-1.87-.52-1.87-2.47V45.63h1.51V51c0,.84.36,1.12,1,1.12a1.18,1.18,0,0,0,1.24-1.26V45.63h1.51v7.53h-1.43Z" fill="#3b4351"/><path d="M182.14,45.63h1.43v.88h0a2.12,2.12,0,0,1,1.81-1.08,1.63,1.63,0,0,1,1.75,1.15,2,2,0,0,1,1.9-1.15c1.07,0,1.84.55,1.84,2v5.73H189.4V48c0-1-.3-1.36-.91-1.36s-1.21.48-1.21,1.48v5h-1.51V48c0-1-.29-1.36-.93-1.36s-1.19.5-1.19,1.48v5h-1.51Z" fill="#3b4351"/><path d="M193.73,49.59V50c0,1,.13,2.3,1.26,2.3s1.21-1.22,1.21-1.68h1.43A2.48,2.48,0,0,1,195,53.36c-1.23,0-2.76-.37-2.76-3.85,0-2,.44-4.08,2.79-4.08,2.1,0,2.66,1.27,2.66,3.36v.8Zm2.43-1v-.4c0-1-.31-1.68-1.17-1.68s-1.26,1-1.26,1.93v.15Z" fill="#3b4351"/><path d="M198.91,45.63h1.43v.88h0a2.18,2.18,0,0,1,1.94-1.08c1.15,0,1.87.52,1.87,2v5.68h-1.51V48c0-1-.27-1.36-1.05-1.36-.62,0-1.2.47-1.2,1.48v5h-1.52Z" fill="#3b4351"/><path d="M205,45.63h1V43.48h1.51v2.15h1.24v1.12h-1.24v4.49c0,.61.17.8.69.8a2.81,2.81,0,0,0,.55,0v1.12a5.17,5.17,0,0,1-1.22.13c-1,0-1.53-.3-1.53-1.82V46.75h-1Z" fill="#3b4351"/><path d="M214.48,51.59c0,.28.17.54.4.54a.55.55,0,0,0,.25-.05v1a1.58,1.58,0,0,1-.74.19c-.68,0-1.24-.27-1.28-1h0a1.94,1.94,0,0,1-1.87,1.11c-1.22,0-2-.66-2-2.12A2.07,2.07,0,0,1,211,48.88l1.17-.33c.55-.15.88-.3.88-1s-.23-1.12-1-1.12c-1,0-1.15.71-1.15,1.44h-1.43c0-1.61.66-2.48,2.65-2.48,1.33,0,2.39.52,2.39,1.85Zm-1.43-2.41a10.81,10.81,0,0,1-1.68.7,1.24,1.24,0,0,0-.61,1.22c0,.63.31,1.14.94,1.14.91,0,1.35-.67,1.35-1.8Z" fill="#3b4351"/><path d="M216.09,43.16h1.51v10h-1.51Z" fill="#3b4351"/><path d="M227.57,50.42c-.11,1.8-.7,2.94-2.57,2.94-2.19,0-2.81-1.61-2.81-4s.62-4,2.81-4a2.43,2.43,0,0,1,2.59,2.7h-1.52c0-.7-.18-1.62-1.07-1.58-1.08,0-1.29,1.18-1.29,2.84s.21,2.85,1.29,2.85c.84,0,1.14-.69,1.14-1.82Z" fill="#3b4351"/><path d="M228.77,43.05h1.52v1.51h-1.52Zm0,2.58h1.52v7.53h-1.52Z" fill="#3b4351"/><path d="M231.14,45.63h1V43.48h1.51v2.15h1.23v1.12h-1.23v4.49c0,.61.17.8.69.8a2.7,2.7,0,0,0,.54,0v1.12a5.11,5.11,0,0,1-1.22.13c-1,0-1.52-.3-1.52-1.82V46.75h-1Z" fill="#3b4351"/><path d="M236.71,45.63,238,51.29h0l1.21-5.66h1.58l-2.07,7.81c-.6,2.06-1.07,2.34-2.64,2.3a2.45,2.45,0,0,1-.6-.06v-1.2a2,2,0,0,0,.49.05c.52,0,.86-.09,1-.58l.19-.62-2.14-7.7Z" fill="#3b4351"/><path d="M250,51.59c0,.28.17.54.4.54a.55.55,0,0,0,.25-.05v1a1.62,1.62,0,0,1-.75.19c-.67,0-1.23-.27-1.27-1h0a1.94,1.94,0,0,1-1.87,1.11c-1.22,0-2-.66-2-2.12a2.07,2.07,0,0,1,1.75-2.36l1.18-.33c.55-.15.88-.3.88-1s-.23-1.12-1-1.12c-1,0-1.15.71-1.15,1.44h-1.43c0-1.61.66-2.48,2.65-2.48,1.33,0,2.39.52,2.39,1.85Zm-1.43-2.41a10.81,10.81,0,0,1-1.68.7,1.24,1.24,0,0,0-.61,1.22c0,.63.31,1.14.94,1.14.91,0,1.35-.67,1.35-1.8Z" fill="#3b4351"/><path d="M252.52,45.63l1.3,5.66h0l1.2-5.66h1.59l-2.08,7.81c-.6,2.06-1.06,2.34-2.63,2.3a2.45,2.45,0,0,1-.6-.06v-1.2a2,2,0,0,0,.49.05c.52,0,.85-.09,1-.58l.2-.62-2.15-7.7Z" fill="#3b4351"/><path d="M267.08,49.58v.21c0,1.8-.74,3.57-3.08,3.57-2.52,0-3.31-1.63-3.31-5.2S261.48,43,264,43c2.85,0,3,2.09,3,3.14v.18h-1.6v-.16c0-.94-.28-2-1.43-1.95s-1.71.73-1.71,3.95.52,4,1.71,4,1.48-1.47,1.48-2.41v-.16Z" fill="#3b4351"/><path d="M268.1,45.63h1.43v.88h0a2.17,2.17,0,0,1,1.93-1.08c1.15,0,1.88.52,1.88,2v5.68h-1.51V48c0-1-.27-1.36-1.05-1.36-.62,0-1.21.47-1.21,1.48v5H268.1Z" fill="#3b4351"/><path d="M274.54,49.39c0-2.35.62-4,2.8-4s2.82,1.61,2.82,4-.73,4-2.82,4S274.54,51.75,274.54,49.39Zm2.8,2.85c1.11,0,1.3-.93,1.3-2.85,0-1.66-.19-2.84-1.3-2.84s-1.29,1.18-1.29,2.84C276.05,51.31,276.26,52.24,277.34,52.24Z" fill="#3b4351"/><path d="M284.57,47.83v-.2c0-.6-.21-1.16-1-1.16-.6,0-1.08.26-1.08,1s.27.82,1.07,1.1l1,.34a2,2,0,0,1,1.64,2.17c0,1.61-1.19,2.3-2.7,2.3-1.91,0-2.48-.88-2.48-2.34v-.28h1.34V51c0,.88.3,1.34,1.18,1.34s1.23-.42,1.23-1.11a1.09,1.09,0,0,0-.82-1.1l-1.24-.44a2,2,0,0,1-1.61-2.17c0-1.41,1-2.07,2.58-2.07,1.92,0,2.35,1.12,2.35,2.06v.34Z" fill="#3b4351"/><path d="M290.53,47.83v-.2c0-.6-.21-1.16-1-1.16-.6,0-1.07.26-1.07,1s.26.82,1.06,1.1l1,.34a2,2,0,0,1,1.64,2.17c0,1.61-1.19,2.3-2.71,2.3-1.9,0-2.48-.88-2.48-2.34v-.28h1.35V51c0,.88.29,1.34,1.17,1.34s1.24-.42,1.24-1.11a1.09,1.09,0,0,0-.83-1.1l-1.23-.44A2,2,0,0,1,287,47.5c0-1.41,1-2.07,2.57-2.07,1.92,0,2.36,1.12,2.36,2.06v.34Z" fill="#3b4351"/><path d="M297.1,52.28h-.05a2.15,2.15,0,0,1-1.93,1.08c-1.12,0-1.88-.52-1.88-2.47V45.63h1.52V51c0,.84.36,1.12,1,1.12A1.17,1.17,0,0,0,297,50.89V45.63h1.51v7.53H297.1Z" fill="#3b4351"/><path d="M303.23,47.83v-.2c0-.6-.21-1.16-1-1.16-.6,0-1.08.26-1.08,1s.27.82,1.07,1.1l1,.34a2,2,0,0,1,1.64,2.17c0,1.61-1.19,2.3-2.7,2.3-1.9,0-2.48-.88-2.48-2.34v-.28H301V51c0,.88.29,1.34,1.17,1.34s1.23-.42,1.23-1.11a1.08,1.08,0,0,0-.82-1.1l-1.23-.44a2,2,0,0,1-1.61-2.17c0-1.41,1-2.07,2.57-2.07,1.92,0,2.36,1.12,2.36,2.06v.34Z" fill="#3b4351"/><path d="M119.84,72.36a1.72,1.72,0,0,1-1.7-1.08h0v3.35h-1.52v-10H118v.92h0a1.79,1.79,0,0,1,1.7-1.12c1.72,0,2.42,1.47,2.42,4.06C122.17,71.66,120.89,72.36,119.84,72.36Zm-.54-6.73c-1,0-1.28,1.06-1.28,2.68,0,1.81.23,2.84,1.29,2.84.86,0,1.26-.64,1.26-2.73C120.57,66.71,120.36,65.63,119.3,65.63Z" fill="#3b4351"/><path d="M123,68.39c0-2.35.62-4,2.81-4s2.81,1.61,2.81,4-.73,4-2.81,4S123,70.75,123,68.39Zm2.81,2.85c1.1,0,1.3-.93,1.3-2.85,0-1.66-.2-2.84-1.3-2.84s-1.29,1.18-1.29,2.84C124.55,70.31,124.76,71.24,125.84,71.24Z" fill="#3b4351"/><path d="M129.88,62.16h1.51v10h-1.51Z" fill="#3b4351"/><path d="M133,62.05h1.51v1.51H133Zm0,2.58h1.51v7.53H133Z" fill="#3b4351"/><path d="M135.35,64.63h1V62.48h1.51v2.15h1.24v1.12H137.9v4.49c0,.61.17.8.69.8a2.81,2.81,0,0,0,.55,0v1.12a5.17,5.17,0,0,1-1.22.13c-1,0-1.53-.3-1.53-1.82V65.75h-1Z" fill="#3b4351"/><path d="M140,62.05h1.51v1.51H140Zm0,2.58h1.51v7.53H140Z" fill="#3b4351"/><path d="M148.11,69.42c-.11,1.8-.7,2.94-2.58,2.94-2.18,0-2.8-1.61-2.8-4s.62-4,2.8-4a2.43,2.43,0,0,1,2.59,2.7h-1.51c0-.7-.18-1.62-1.08-1.58-1.08,0-1.28,1.18-1.28,2.84s.2,2.85,1.28,2.85c.84,0,1.15-.69,1.15-1.82Z" fill="#3b4351"/><path d="M154.19,70.59c0,.28.16.54.39.54a.55.55,0,0,0,.25,0v1a1.58,1.58,0,0,1-.74.19c-.67,0-1.23-.27-1.28-1h0a2,2,0,0,1-1.88,1.11c-1.22,0-2-.66-2-2.12a2.06,2.06,0,0,1,1.75-2.36l1.18-.33c.54-.15.88-.3.88-1s-.24-1.12-1-1.12c-1,0-1.15.71-1.15,1.44h-1.43c0-1.61.66-2.48,2.65-2.48,1.33,0,2.4.52,2.4,1.85Zm-1.43-2.41a11.23,11.23,0,0,1-1.68.7,1.23,1.23,0,0,0-.62,1.22c0,.63.31,1.14.94,1.14.91,0,1.36-.67,1.36-1.8Z" fill="#3b4351"/><path d="M155.79,62.16h1.52v10h-1.52Z" fill="#3b4351"/><path d="M167.14,70.59c0,.28.16.54.39.54a.55.55,0,0,0,.25,0v1a1.58,1.58,0,0,1-.74.19c-.67,0-1.23-.27-1.28-1h0a2,2,0,0,1-1.88,1.11c-1.22,0-2-.66-2-2.12a2.06,2.06,0,0,1,1.75-2.36l1.18-.33c.54-.15.88-.3.88-1s-.24-1.12-1-1.12c-1,0-1.15.71-1.15,1.44h-1.43c0-1.61.66-2.48,2.65-2.48,1.33,0,2.4.52,2.4,1.85Zm-1.43-2.41a11.23,11.23,0,0,1-1.68.7,1.23,1.23,0,0,0-.62,1.22c0,.63.31,1.14.94,1.14.91,0,1.36-.67,1.36-1.8Z" fill="#3b4351"/><path d="M168.67,64.63h1.43v.88h0a2.18,2.18,0,0,1,1.94-1.08c1.15,0,1.87.52,1.87,2v5.68h-1.51V67c0-1-.26-1.36-1.05-1.36-.62,0-1.2.47-1.2,1.48v5h-1.52Z" fill="#3b4351"/><path d="M179.26,71.24h0a1.61,1.61,0,0,1-1.65,1.12c-1.75,0-2.47-1.49-2.47-4.06,0-3.35,1.18-3.87,2.33-3.87a1.74,1.74,0,0,1,1.71,1.08h0V62.16h1.51v10h-1.43Zm-1.37-5.61c-.86,0-1.18.7-1.18,2.74,0,1.71.21,2.78,1.27,2.78s1.28-1.05,1.28-2.67C179.26,66.67,179.06,65.63,177.89,65.63Z" fill="#3b4351"/><path d="M190.59,69.42c-.12,1.8-.7,2.94-2.58,2.94-2.19,0-2.8-1.61-2.8-4s.61-4,2.8-4a2.43,2.43,0,0,1,2.59,2.7h-1.51c0-.7-.18-1.62-1.08-1.58-1.08,0-1.29,1.18-1.29,2.84s.21,2.85,1.29,2.85c.84,0,1.15-.69,1.15-1.82Z" fill="#3b4351"/><path d="M191.42,68.39c0-2.35.62-4,2.8-4S197,66,197,68.39s-.73,4-2.82,4S191.42,70.75,191.42,68.39Zm2.8,2.85c1.11,0,1.31-.93,1.31-2.85,0-1.66-.2-2.84-1.31-2.84s-1.28,1.18-1.28,2.84C192.94,70.31,193.15,71.24,194.22,71.24Z" fill="#3b4351"/><path d="M198.27,64.63h1.43v.88h0a2.12,2.12,0,0,1,1.81-1.08,1.64,1.64,0,0,1,1.75,1.15,2,2,0,0,1,1.9-1.15c1.07,0,1.84.55,1.84,2v5.73h-1.52V67c0-1-.29-1.36-.91-1.36s-1.2.48-1.2,1.48v5H201.9V67c0-1-.3-1.36-.93-1.36s-1.19.5-1.19,1.48v5h-1.51Z" fill="#3b4351"/><path d="M208.63,64.63h1.43v.88h0a2.12,2.12,0,0,1,1.81-1.08,1.64,1.64,0,0,1,1.75,1.15,2,2,0,0,1,1.9-1.15c1.07,0,1.84.55,1.84,2v5.73h-1.52V67c0-1-.29-1.36-.91-1.36s-1.2.48-1.2,1.48v5h-1.51V67c0-1-.3-1.36-.93-1.36s-1.19.5-1.19,1.48v5h-1.51Z" fill="#3b4351"/><path d="M220.22,68.59V69c0,1,.13,2.3,1.26,2.3s1.21-1.22,1.21-1.68h1.43a2.48,2.48,0,0,1-2.65,2.72c-1.23,0-2.76-.37-2.76-3.85,0-2,.43-4.08,2.79-4.08,2.1,0,2.66,1.27,2.66,3.36v.8Zm2.42-1v-.4c0-1-.3-1.68-1.16-1.68s-1.26,1-1.26,1.93v.15Z" fill="#3b4351"/><path d="M225.4,64.63h1.51V65.8h0a1.87,1.87,0,0,1,1.75-1.37.77.77,0,0,1,.37.06V66a1.91,1.91,0,0,0-.63-.09c-.69,0-1.52.31-1.52,1.71v4.51H225.4Z" fill="#3b4351"/><path d="M234.81,69.42c-.11,1.8-.7,2.94-2.58,2.94-2.18,0-2.8-1.61-2.8-4s.62-4,2.8-4a2.44,2.44,0,0,1,2.6,2.7h-1.52c0-.7-.18-1.62-1.08-1.58-1.07,0-1.28,1.18-1.28,2.84s.21,2.85,1.28,2.85c.84,0,1.15-.69,1.15-1.82Z" fill="#3b4351"/><path d="M236,62.05h1.51v1.51H236Zm0,2.58h1.51v7.53H236Z" fill="#3b4351"/><path d="M244,70.59c0,.28.17.54.4.54a.55.55,0,0,0,.25,0v1a1.58,1.58,0,0,1-.74.19c-.68,0-1.24-.27-1.28-1h0a1.94,1.94,0,0,1-1.87,1.11c-1.22,0-2-.66-2-2.12a2.06,2.06,0,0,1,1.75-2.36l1.17-.33c.55-.15.89-.3.89-1s-.24-1.12-1-1.12c-1,0-1.15.71-1.15,1.44H239c0-1.61.66-2.48,2.65-2.48,1.33,0,2.39.52,2.39,1.85Zm-1.42-2.41a11.23,11.23,0,0,1-1.68.7,1.23,1.23,0,0,0-.62,1.22c0,.63.31,1.14.94,1.14.91,0,1.36-.67,1.36-1.8Z" fill="#3b4351"/><path d="M245.6,62.16h1.51v10H245.6Z" fill="#3b4351"/><path d="M257.08,69.42c-.11,1.8-.7,2.94-2.57,2.94-2.19,0-2.8-1.61-2.8-4s.61-4,2.8-4a2.43,2.43,0,0,1,2.59,2.7h-1.51c0-.7-.19-1.62-1.08-1.58-1.08,0-1.29,1.18-1.29,2.84s.21,2.85,1.29,2.85c.84,0,1.15-.69,1.15-1.82Z" fill="#3b4351"/><path d="M263.16,70.59c0,.28.17.54.39.54a.52.52,0,0,0,.25,0v1a1.55,1.55,0,0,1-.74.19c-.67,0-1.23-.27-1.27-1h0a2,2,0,0,1-1.88,1.11c-1.22,0-2-.66-2-2.12a2.06,2.06,0,0,1,1.75-2.36l1.18-.33c.55-.15.88-.3.88-1s-.24-1.12-1-1.12c-1,0-1.14.71-1.14,1.44h-1.43c0-1.61.66-2.48,2.65-2.48,1.33,0,2.39.52,2.39,1.85Zm-1.43-2.41a11.23,11.23,0,0,1-1.68.7,1.25,1.25,0,0,0-.62,1.22c0,.63.31,1.14.94,1.14.91,0,1.36-.67,1.36-1.8Z" fill="#3b4351"/><path d="M268,72.36a1.74,1.74,0,0,1-1.71-1.08h0v3.35H264.7v-10h1.43v.92h0a1.8,1.8,0,0,1,1.7-1.12c1.72,0,2.42,1.47,2.42,4.06C270.27,71.66,269,72.36,268,72.36Zm-.55-6.73c-1,0-1.27,1.06-1.27,2.68,0,1.81.22,2.84,1.28,2.84.86,0,1.27-.64,1.27-2.73C268.68,66.71,268.47,65.63,267.4,65.63Z" fill="#3b4351"/><path d="M271.5,62.05H273v1.51H271.5Zm0,2.58H273v7.53H271.5Z" fill="#3b4351"/><path d="M273.87,64.63h1V62.48h1.52v2.15h1.23v1.12h-1.23v4.49c0,.61.16.8.68.8a2.75,2.75,0,0,0,.55,0v1.12a5.11,5.11,0,0,1-1.22.13c-1,0-1.53-.3-1.53-1.82V65.75h-1Z" fill="#3b4351"/><path d="M283.38,70.59c0,.28.16.54.39.54a.55.55,0,0,0,.25,0v1a1.58,1.58,0,0,1-.74.19c-.67,0-1.23-.27-1.28-1h0a2,2,0,0,1-1.88,1.11c-1.22,0-2-.66-2-2.12a2.06,2.06,0,0,1,1.75-2.36l1.17-.33c.55-.15.89-.3.89-1s-.24-1.12-1-1.12c-1,0-1.15.71-1.15,1.44h-1.43c0-1.61.66-2.48,2.65-2.48,1.33,0,2.4.52,2.4,1.85ZM282,68.18a11.23,11.23,0,0,1-1.68.7,1.23,1.23,0,0,0-.62,1.22c0,.63.31,1.14.94,1.14.91,0,1.36-.67,1.36-1.8Z" fill="#3b4351"/><path d="M285,62.16h1.52v10H285Z" fill="#3b4351"/><path d="M288.18,70.31h1.59v1.85c0,1.12-.36,1.92-1.59,2.16v-.81a1.05,1.05,0,0,0,.7-1.14v-.21h-.7Z" fill="#3b4351"/><path d="M113.45,83.63h1V81.48H116v2.15h1.23v1.12H116v4.49c0,.61.17.8.69.8a2.7,2.7,0,0,0,.54,0v1.12a5.11,5.11,0,0,1-1.22.13c-1,0-1.52-.3-1.52-1.82V84.75h-1Z" fill="#3b4351"/><path d="M118,83.63h1.51V84.8h0a1.85,1.85,0,0,1,1.75-1.37.73.73,0,0,1,.36.06V85a1.83,1.83,0,0,0-.63-.09c-.69,0-1.51.31-1.51,1.71v4.51H118Z" fill="#3b4351"/><path d="M127.29,89.59c0,.28.16.54.39.54a.55.55,0,0,0,.25,0v1a1.58,1.58,0,0,1-.74.19c-.67,0-1.24-.27-1.28-1h0A2,2,0,0,1,124,91.36c-1.22,0-2-.66-2-2.12a2.06,2.06,0,0,1,1.75-2.36l1.17-.33c.55-.15.89-.3.89-1s-.24-1.12-1-1.12c-1,0-1.15.71-1.15,1.44h-1.43c0-1.61.66-2.48,2.65-2.48,1.33,0,2.4.52,2.4,1.85Zm-1.43-2.41a11.23,11.23,0,0,1-1.68.7,1.23,1.23,0,0,0-.62,1.22c0,.63.31,1.14.94,1.14.91,0,1.36-.67,1.36-1.8Z" fill="#3b4351"/><path d="M132.68,90.24h0A1.61,1.61,0,0,1,131,91.36c-1.75,0-2.46-1.49-2.46-4.06,0-3.35,1.18-3.87,2.32-3.87a1.74,1.74,0,0,1,1.71,1.08h0V81.16h1.51v10h-1.42Zm-1.38-5.61c-.85,0-1.17.7-1.17,2.74,0,1.71.21,2.78,1.27,2.78s1.28-1.05,1.28-2.67C132.68,85.67,132.48,84.63,131.3,84.63Z" fill="#3b4351"/><path d="M135.63,81.05h1.51v1.51h-1.51Zm0,2.58h1.51v7.53h-1.51Z" fill="#3b4351"/><path d="M138.66,83.63h1.43v.88h0a2.15,2.15,0,0,1,1.93-1.08c1.15,0,1.88.52,1.88,2v5.68h-1.52V86c0-1-.26-1.36-1.05-1.36-.61,0-1.2.47-1.2,1.48v5h-1.52Z" fill="#3b4351"/><path d="M146.91,91.81a1,1,0,0,0,1.09.89,1.25,1.25,0,0,0,1.28-1.41V90.07h0a1.82,1.82,0,0,1-1.71,1c-1.75,0-2.25-1.73-2.25-3.8,0-1.65.25-3.88,2.39-3.88a1.65,1.65,0,0,1,1.65,1.12h0v-.92h1.43V90.8c0,1.83-.78,2.94-2.81,2.94-2.25,0-2.5-1.32-2.5-1.93ZM148,89.9c1.17,0,1.3-1.48,1.3-2.67s-.16-2.6-1.21-2.6-1.27,1.13-1.27,2.53S146.86,89.9,148,89.9Z" fill="#3b4351"/><path d="M155,83.63h1.57l1.05,5.94h0l1.12-5.94h1.71l1.12,5.94h0l1-5.94h1.51l-1.72,7.53h-1.7l-1.18-5.85h0l-1.08,5.85h-1.77Z" fill="#3b4351"/><path d="M165.15,81.05h1.51v1.51h-1.51Zm0,2.58h1.51v7.53h-1.51Z" fill="#3b4351"/><path d="M167.52,83.63h1V81.48h1.52v2.15h1.23v1.12h-1.23v4.49c0,.61.17.8.68.8a2.75,2.75,0,0,0,.55,0v1.12a5.11,5.11,0,0,1-1.22.13c-1,0-1.53-.3-1.53-1.82V84.75h-1Z" fill="#3b4351"/><path d="M172.08,81.16h1.52v3.28l0,0a2.14,2.14,0,0,1,1.85-1c1.14,0,1.87.52,1.87,2v5.68h-1.51V86c0-1-.28-1.36-1-1.36s-1.2.48-1.2,1.48v5h-1.52Z" fill="#3b4351"/><path d="M182.27,81.16h5.41v1.35h-3.81v2.77h3.59v1.34h-3.59v3.2h3.92v1.34h-5.52Z" fill="#3b4351"/><path d="M190.42,91.81a1,1,0,0,0,1.1.89,1.24,1.24,0,0,0,1.27-1.41V90.07h0a1.82,1.82,0,0,1-1.71,1c-1.75,0-2.25-1.73-2.25-3.8,0-1.65.25-3.88,2.39-3.88a1.66,1.66,0,0,1,1.66,1.12h0v-.92h1.43V90.8c0,1.83-.78,2.94-2.81,2.94-2.24,0-2.5-1.32-2.5-1.93Zm1.07-1.91c1.17,0,1.3-1.48,1.3-2.67s-.15-2.6-1.2-2.6-1.28,1.13-1.28,2.53S190.37,89.9,191.49,89.9Z" fill="#3b4351"/><path d="M196.65,83.63l1.3,5.66h0l1.21-5.66h1.58l-2.07,7.81c-.6,2.06-1.07,2.34-2.64,2.3a2.45,2.45,0,0,1-.6-.06v-1.2a2,2,0,0,0,.49,0c.52,0,.86-.09,1-.58l.2-.62L195,83.63Z" fill="#3b4351"/><path d="M204.86,91.36a1.74,1.74,0,0,1-1.71-1.08h0v3.35h-1.51v-10H203v.92h0a1.8,1.8,0,0,1,1.7-1.12c1.72,0,2.42,1.47,2.42,4.06C207.18,90.66,205.91,91.36,204.86,91.36Zm-.55-6.73c-1,0-1.27,1.06-1.27,2.68,0,1.81.22,2.84,1.29,2.84.85,0,1.26-.64,1.26-2.73C205.59,85.71,205.38,84.63,204.31,84.63Z" fill="#3b4351"/><path d="M209.27,83.63l1.3,5.66h0l1.2-5.66h1.58l-2.07,7.81c-.6,2.06-1.06,2.34-2.63,2.3a2.45,2.45,0,0,1-.6-.06v-1.2a2,2,0,0,0,.49,0c.51,0,.85-.09,1-.58l.19-.62-2.14-7.7Z" fill="#3b4351"/><path d="M222.53,89.59c0,.28.16.54.39.54a.55.55,0,0,0,.25,0v1a1.58,1.58,0,0,1-.74.19c-.67,0-1.23-.27-1.28-1h0a2,2,0,0,1-1.88,1.11c-1.22,0-2-.66-2-2.12A2.06,2.06,0,0,1,219,86.88l1.17-.33c.55-.15.89-.3.89-1s-.24-1.12-1-1.12c-1,0-1.15.71-1.15,1.44h-1.43c0-1.61.66-2.48,2.65-2.48,1.33,0,2.4.52,2.4,1.85Zm-1.43-2.41a11.23,11.23,0,0,1-1.68.7,1.23,1.23,0,0,0-.62,1.22c0,.63.31,1.14.94,1.14.91,0,1.36-.67,1.36-1.8Z" fill="#3b4351"/><path d="M224.06,83.63h1.43v.88h0a2.18,2.18,0,0,1,1.94-1.08c1.15,0,1.87.52,1.87,2v5.68h-1.51V86c0-1-.26-1.36-1.05-1.36-.62,0-1.2.47-1.2,1.48v5h-1.52Z" fill="#3b4351"/><path d="M234.65,90.24h0A1.61,1.61,0,0,1,233,91.36c-1.75,0-2.47-1.49-2.47-4.06,0-3.35,1.18-3.87,2.33-3.87a1.75,1.75,0,0,1,1.71,1.08h0V81.16h1.51v10h-1.43Zm-1.37-5.61c-.86,0-1.18.7-1.18,2.74,0,1.71.21,2.78,1.27,2.78s1.28-1.05,1.28-2.67C234.65,85.67,234.45,84.63,233.28,84.63Z" fill="#3b4351"/><path d="M241,81.16h3.23c1.5,0,2.69.67,2.69,2.42a2.1,2.1,0,0,1-1.47,2.27v0c1.1.2,1.8.86,1.8,2.55s-1.21,2.73-3.09,2.73H241Zm2.86,4.22a1.41,1.41,0,0,0,1.47-1.59c0-1.19-.72-1.42-1.61-1.42h-1.12v3Zm.32,4.58c1,0,1.47-.61,1.47-1.77a1.51,1.51,0,0,0-1.57-1.69h-1.48V90Z" fill="#3b4351"/><path d="M253.35,89.59c0,.28.17.54.4.54a.55.55,0,0,0,.25,0v1a1.58,1.58,0,0,1-.74.19c-.68,0-1.24-.27-1.28-1h0a1.94,1.94,0,0,1-1.87,1.11c-1.22,0-2-.66-2-2.12a2.07,2.07,0,0,1,1.76-2.36l1.17-.33c.55-.15.88-.3.88-1s-.23-1.12-1-1.12c-1,0-1.15.71-1.15,1.44h-1.43c0-1.61.66-2.48,2.65-2.48,1.33,0,2.39.52,2.39,1.85Zm-1.43-2.41a10.81,10.81,0,0,1-1.68.7,1.24,1.24,0,0,0-.61,1.22c0,.63.31,1.14.94,1.14.91,0,1.35-.67,1.35-1.8Z" fill="#3b4351"/><path d="M254.89,81.16h1.51v3.35h0a1.74,1.74,0,0,1,1.71-1.08c1.15,0,2.33.52,2.33,3.87,0,2.59-.72,4.06-2.47,4.06a1.61,1.61,0,0,1-1.65-1.12h0v.92h-1.43Zm2.7,9c1.07,0,1.28-1.07,1.28-2.78,0-2-.32-2.74-1.18-2.74-1.17,0-1.37,1-1.37,2.85C256.32,89.1,256.56,90.15,257.59,90.15Z" fill="#3b4351"/><path d="M262.46,83.63l1.31,5.66h0l1.2-5.66h1.58l-2.07,7.81c-.6,2.06-1.06,2.34-2.63,2.3a2.53,2.53,0,0,1-.61-.06v-1.2a2.09,2.09,0,0,0,.49,0c.52,0,.86-.09,1-.58l.19-.62-2.14-7.7Z" fill="#3b4351"/><path d="M267.49,81.16H269v10h-1.51Z" fill="#3b4351"/><path d="M270.23,87.39c0-2.35.62-4,2.81-4s2.81,1.61,2.81,4-.73,4-2.81,4S270.23,89.75,270.23,87.39ZM273,90.24c1.1,0,1.3-.93,1.3-2.85,0-1.66-.2-2.84-1.3-2.84s-1.29,1.18-1.29,2.84C271.75,89.31,272,90.24,273,90.24Z" fill="#3b4351"/><path d="M277,83.63h1.43v.88h0a2.17,2.17,0,0,1,1.93-1.08c1.15,0,1.88.52,1.88,2v5.68h-1.51V86c0-1-.27-1.36-1-1.36-.62,0-1.21.47-1.21,1.48v5H277Z" fill="#3b4351"/><path d="M283.81,81.05h1.52v1.51h-1.52Zm0,2.58h1.52v7.53h-1.52Z" fill="#3b4351"/><path d="M291.8,89.59c0,.28.16.54.39.54a.55.55,0,0,0,.25,0v1a1.58,1.58,0,0,1-.74.19c-.67,0-1.23-.27-1.28-1h0a2,2,0,0,1-1.88,1.11c-1.22,0-2-.66-2-2.12a2.06,2.06,0,0,1,1.75-2.36l1.18-.33c.54-.15.88-.3.88-1s-.24-1.12-1-1.12c-1,0-1.15.71-1.15,1.44h-1.43c0-1.61.66-2.48,2.65-2.48,1.33,0,2.4.52,2.4,1.85Zm-1.43-2.41a11.23,11.23,0,0,1-1.68.7,1.23,1.23,0,0,0-.62,1.22c0,.63.31,1.14.94,1.14.91,0,1.36-.67,1.36-1.8Z" fill="#3b4351"/></g></g></g></g></svg>