<svg xmlns="http://www.w3.org/2000/svg" viewBox="0 0 1698.1 109.6"><defs><style>.cls-1{opacity:0.82;}.cls-2{fill:none;stroke:#fff;}.cls-10,.cls-2,.cls-3,.cls-4,.cls-5,.cls-6,.cls-7,.cls-8,.cls-9{stroke-miterlimit:10;}.cls-3{fill:#e96b41;}.cls-10,.cls-3,.cls-4,.cls-5,.cls-6,.cls-7,.cls-8,.cls-9{stroke:#000;stroke-width:4px;}.cls-4{fill:#e59b96;}.cls-5{fill:#e7ce6c;}.cls-6{fill:#658f63;}.cls-7{fill:#8ea8a3;}.cls-8{fill:#e09993;}.cls-9{fill:#ecd862;}.cls-10{fill:#eb7347;}</style></defs><title>bc1900</title><g id="Layer_1" data-name="Layer 1" class="cls-1"><g id="Template"><rect id="Chart_border" data-name="Chart border" class="cls-2" x="1.73" y="-111.19" width="1694.92" height="334.79"/></g><g id="_1950_BC" data-name="1950 BC"><g id="Aegeans"><polygon class="cls-3" points="243.51 -0.89 1.73 -0.89 1.73 -110.06 225.89 -110.39 243.51 -0.89"/><polygon class="cls-4" points="968.81 -0.89 243.51 -0.89 225.89 -110.39 1029.17 -110.39 968.81 -0.89"/><polygon class="cls-5" points="1016.59 -0.89 968.81 -0.89 1029.17 -110.39 1077.59 -110.39 1016.59 -0.89"/><polygon class="cls-6" points="1196.59 -0.89 1016.59 -0.89 1077.59 -110.39 1211.09 -110.39 1196.59 -0.89"/><polygon class="cls-7" points="1372.59 -0.89 1196.59 -0.89 1211.09 -110.39 1336.09 -110.39 1372.59 -0.89"/><polygon class="cls-8" points="1507.09 -0.89 1372.59 -0.89 1336.09 -110.39 1472.59 -110.39 1507.09 -0.89"/><polygon id="huns" class="cls-9" points="1578.59 -0.89 1507.09 -0.89 1472.59 -110.39 1559.59 -110.39 1578.59 -0.89"/><polygon id="chinese" class="cls-10" points="1696.64 -0.89 1578.59 -0.89 1559.59 -110.39 1696.64 -110.39 1696.64 -0.89"/></g></g><g id="_1900_BC" data-name="1900 BC"><g id="nations"><polygon id="aegeans-2" data-name="aegeans" class="cls-3" points="243.54 109.8 1.76 109.8 1.75 -0.85 243.53 -0.85 243.54 109.8"/><polygon id="egyptians" class="cls-4" points="906.21 109.8 243.54 109.8 243.53 -0.85 968.83 -0.85 906.21 109.8"/><polygon id="hitities" class="cls-5" points="950.79 109.8 906.21 109.8 968.83 -0.85 1016.61 -0.85 950.79 109.8"/><polygon id="amorites" class="cls-6" points="1203.21 109.8 950.12 110.39 1016.61 -0.85 1196.61 -0.85 1203.21 109.8"/><polygon id="iranians" class="cls-7" points="1407.79 109.21 1203.87 109.21 1196.61 -0.85 1372.61 -0.85 1407.79 109.21"/><polygon id="indians" class="cls-8" points="1517.21 109.8 1407.79 109.21 1372.61 -0.85 1507.11 -0.85 1517.21 109.8"/><polygon id="huns-2" data-name="huns" class="cls-9" points="1596.71 109.8 1517.21 109.8 1507.11 -0.85 1578.61 -0.85 1596.71 109.8"/><polygon id="chinese-2" data-name="chinese" class="cls-10" points="1696.67 109.8 1596.71 109.8 1578.61 -0.85 1696.66 -0.85 1696.67 109.8"/></g></g><g id="_1850_BC" data-name="1850 BC"><g id="nations-2" data-name="nations"><polygon id="aegeans-3" data-name="aegeans" class="cls-3" points="325.71 220.19 1.77 220.19 1.76 108.96 243.55 109.55 325.71 220.19"/><polygon id="egyptians-2" data-name="egyptians" class="cls-4" points="865.04 220.19 325.71 220.19 243.55 109.55 906.21 108.96 865.04 220.19"/><polygon id="hitities-2" data-name="hitities" class="cls-5" points="950.81 220.19 865.04 220.19 906.21 108.96 950.12 109.55 950.81 220.19"/><polygon id="amorites-2" data-name="amorites" class="cls-6" points="1203.22 220.19 950.14 220.78 950.12 109.55 1203.87 108.36 1203.22 220.19"/><polygon id="iranians-2" data-name="iranians" class="cls-7" points="1385.71 219.6 1203.89 219.6 1203.21 108.96 1407.79 108.36 1385.71 219.6"/><polygon id="indians-2" data-name="indians" class="cls-8" points="1477.7 220.01 1385.71 219.6 1407.79 108.36 1517.21 108.96 1477.7 220.01"/><polygon id="huns-3" data-name="huns" class="cls-9" points="1569.71 219.6 1477.7 220.01 1517.21 108.96 1596.71 108.96 1569.71 219.6"/><polygon id="chinese-3" data-name="chinese" class="cls-10" points="1696.68 220.19 1569.71 219.6 1596.71 108.96 1696.68 109.55 1696.68 220.19"/></g></g></g></svg>