<svg id="Text" xmlns="http://www.w3.org/2000/svg" viewBox="0 0 1847.91 112"><title>bc1950text</title><g id="Indians"><path d="M1449.64,15a20.65,20.65,0,0,0-2.8,11,21.38,21.38,0,0,0,2.8,11h-1.89a18.71,18.71,0,0,1,0-22Z"/><path d="M1451.08,15h2.79v7H1459V15h2.79V32.49H1459V24.36h-5.15v8.13h-2.79Z"/><path d="M1464.65,14.8h2.65v2.65h-2.65Zm0,4.51h2.65V32.49h-2.65Z"/><path d="M1470,19.31h2.5v1.54h.07a3.78,3.78,0,0,1,3.38-1.88c2,0,3.29.9,3.29,3.57v10h-2.65v-9c0-1.76-.46-2.38-1.84-2.38-1.08,0-2.1.81-2.1,2.58v8.84H1470Z"/><path d="M1488.49,30.88h0a2.82,2.82,0,0,1-2.89,2c-3.06,0-4.31-2.6-4.31-7.11,0-5.86,2.06-6.76,4.07-6.76a3.06,3.06,0,0,1,3,1.88h0V15H1491V32.49h-2.5Zm-2.4-9.81c-1.49,0-2.06,1.23-2.06,4.78,0,3,.37,4.88,2.23,4.88s2.23-1.84,2.23-4.68C1488.49,22.89,1488.15,21.07,1486.09,21.07Z"/><path d="M1500.28,31h-.08a3.79,3.79,0,0,1-3.38,1.89c-2,0-3.28-.91-3.28-4.32V19.31h2.64v9.46c0,1.47.64,2,1.79,2a2.06,2.06,0,0,0,2.16-2.21V19.31h2.65V32.49h-2.5Z"/><path d="M1511,23.16v-.35c0-1-.37-2-1.74-2-1.06,0-1.89.46-1.89,1.71,0,1.06.47,1.45,1.86,1.94l1.69.59c2,.66,2.87,1.71,2.87,3.8,0,2.81-2.08,4-4.73,4-3.33,0-4.34-1.55-4.34-4.1v-.49h2.36v.42c0,1.54.51,2.35,2.05,2.35s2.16-.73,2.16-1.93a1.91,1.91,0,0,0-1.45-1.94l-2.15-.76c-2-.66-2.82-1.69-2.82-3.8,0-2.47,1.76-3.62,4.51-3.62,3.36,0,4.12,2,4.12,3.6v.59Z"/><path d="M1514.48,37a20.68,20.68,0,0,0,2.8-11,21.38,21.38,0,0,0-2.8-11h1.89a18.71,18.71,0,0,1,0,22Z"/></g><g id="Egytians"><path d="M539.53,50.5h4.36l3.09,13h0l3-13h4.26V68h-2.65V53.44h0L548.11,68h-2.36l-3.53-14.55h-.05V68h-2.64Z"/><path d="M557.17,50.3h2.64V53h-2.64Zm0,4.51h2.64V68h-2.64Z"/><path d="M569.22,66.38h-.05a2.82,2.82,0,0,1-2.89,2c-3.06,0-4.31-2.6-4.31-7.11,0-5.86,2.06-6.76,4.07-6.76a3.06,3.06,0,0,1,3,1.88h.05V50.5h2.64V68h-2.5Zm-2.4-9.81c-1.49,0-2.06,1.23-2.06,4.78,0,3,.37,4.88,2.23,4.88s2.23-1.84,2.23-4.68C569.22,58.39,568.88,56.57,566.82,56.57Z"/><path d="M581,66.38h0a2.83,2.83,0,0,1-2.89,2c-3.07,0-4.32-2.6-4.32-7.11,0-5.86,2.06-6.76,4.07-6.76a3,3,0,0,1,3,1.88h.05V50.5h2.65V68H581Zm-2.4-9.81c-1.5,0-2.06,1.23-2.06,4.78,0,3,.36,4.88,2.23,4.88S581,64.39,581,61.55C581,58.39,580.66,56.57,578.61,56.57Z"/><path d="M586.17,50.5h2.65V68h-2.65Z"/><path d="M593.77,61.74v.76c0,1.77.22,4,2.21,4s2.1-2.13,2.1-2.94h2.5c0,3-1.76,4.76-4.63,4.76-2.16,0-4.83-.64-4.83-6.74,0-3.46.76-7.13,4.88-7.13,3.68,0,4.66,2.23,4.66,5.88v1.39ZM598,59.93v-.71c0-1.67-.54-2.94-2-2.94-1.67,0-2.21,1.67-2.21,3.38v.27Z"/><path d="M608.89,50.5h9.45v2.35h-6.66V57.7H618v2.35h-6.27v5.59h6.86V68h-9.65Z"/><path d="M623.14,69.12a1.73,1.73,0,0,0,1.92,1.57,2.19,2.19,0,0,0,2.23-2.48V66.08h0a3.19,3.19,0,0,1-3,1.81c-3.07,0-4-3-4-6.64,0-2.89.44-6.78,4.19-6.78a2.9,2.9,0,0,1,2.89,2h0V54.81h2.5V67.36c0,3.21-1.37,5.14-4.92,5.14-3.92,0-4.37-2.3-4.37-3.38ZM625,65.79c2.06,0,2.28-2.6,2.28-4.68s-.27-4.54-2.11-4.54S623,58.53,623,61C623,63.24,623.05,65.79,625,65.79Z"/><path d="M634.05,54.81l2.28,9.9h0l2.11-9.9h2.77l-3.63,13.67c-1,3.61-1.86,4.1-4.6,4a4.76,4.76,0,0,1-1.06-.1V70.3a3.65,3.65,0,0,0,.86.09c.91,0,1.5-.17,1.79-1l.34-1.08L631.2,54.81Z"/><path d="M648.4,68.34a3,3,0,0,1-3-1.89h0v5.86h-2.65V54.81h2.5v1.62h0a3.1,3.1,0,0,1,3-2c3,0,4.24,2.57,4.24,7.1C652.47,67.11,650.24,68.34,648.4,68.34Zm-.95-11.77c-1.81,0-2.23,1.84-2.23,4.68,0,3.17.39,5,2.25,5,1.5,0,2.21-1.13,2.21-4.78C649.68,58.46,649.31,56.57,647.45,56.57Z"/><path d="M653.33,54.81h1.81V51.06h2.65v3.75h2.15v2h-2.15v7.87c0,1,.29,1.39,1.2,1.39a4.91,4.91,0,0,0,1-.07v2a8.44,8.44,0,0,1-2.13.22c-1.76,0-2.67-.51-2.67-3.19V56.77h-1.81Z"/><path d="M661.44,50.3h2.64V53h-2.64Zm0,4.51h2.64V68h-2.64Z"/><path d="M675.4,65.25c0,.49.3.93.69.93a1.18,1.18,0,0,0,.44-.07v1.71a2.83,2.83,0,0,1-1.3.32c-1.17,0-2.15-.47-2.23-1.74h0a3.4,3.4,0,0,1-3.28,1.94c-2.13,0-3.43-1.16-3.43-3.7,0-3,1.3-3.56,3.06-4.15l2.06-.56c1-.27,1.54-.54,1.54-1.69s-.41-2-1.81-2c-1.76,0-2,1.25-2,2.52h-2.5c0-2.82,1.15-4.33,4.63-4.33,2.33,0,4.19.9,4.19,3.23ZM672.9,61A20,20,0,0,1,670,62.26a2.17,2.17,0,0,0-1.08,2.13c0,1.1.54,2,1.65,2,1.59,0,2.37-1.18,2.37-3.14Z"/><path d="M678.1,54.81h2.5v1.54h.07a3.78,3.78,0,0,1,3.38-1.88c2,0,3.28.9,3.28,3.57V68h-2.64V59c0-1.76-.47-2.38-1.84-2.38-1.08,0-2.11.81-2.11,2.58V68H678.1Z"/><path d="M695.93,50.5h5.54c3.36,0,4.83,2.1,4.83,5.09s-1.87,5.17-5.12,5.17h-2.45V68h-2.8Zm2.8,8.16h2c1.49,0,2.79-.79,2.79-3,0-1.89-.76-3-3-3h-1.78Z"/><path d="M710.29,61.74v.76c0,1.77.22,4,2.2,4s2.11-2.13,2.11-2.94h2.5c0,3-1.76,4.76-4.63,4.76-2.16,0-4.83-.64-4.83-6.74,0-3.46.76-7.13,4.88-7.13,3.67,0,4.66,2.23,4.66,5.88v1.39Zm4.24-1.81v-.71c0-1.67-.54-2.94-2-2.94-1.66,0-2.2,1.67-2.2,3.38v.27Z"/><path d="M719.35,54.81H722v2.06h0a3.26,3.26,0,0,1,3.06-2.4,1.61,1.61,0,0,1,.64.09v2.7a3.84,3.84,0,0,0-1.1-.15c-1.2,0-2.65.54-2.65,3V68h-2.65Z"/><path d="M727.19,50.3h2.65V53h-2.65Zm0,4.51h2.65V68h-2.65Z"/><path d="M732,61.4c0-4.12,1.08-6.93,4.91-6.93s4.92,2.81,4.92,6.93-1.27,6.94-4.92,6.94S732,65.52,732,61.4Zm4.91,5c1.93,0,2.27-1.62,2.27-5,0-2.92-.34-5-2.27-5s-2.26,2-2.26,5C734.64,64.76,735,66.38,736.9,66.38Z"/><path d="M750.59,66.38h-.05a2.83,2.83,0,0,1-2.89,2c-3.06,0-4.31-2.6-4.31-7.11,0-5.86,2.06-6.76,4.07-6.76a3.06,3.06,0,0,1,3,1.88h0V50.5h2.65V68h-2.5Zm-2.4-9.81c-1.49,0-2.06,1.23-2.06,4.78,0,3,.37,4.88,2.23,4.88s2.23-1.84,2.23-4.68C750.59,58.39,750.25,56.57,748.19,56.57Z"/></g><g id="Ageans"><g id="Title"><path d="M98.82,59.66h9.33V62h-6.54v4.86h6.15v2.35h-6.15v7.94H98.82Z"/><path d="M110.11,59.47h2.65v2.64h-2.65Zm0,4.51h2.65V77.16h-2.65Z"/><path d="M115.43,64h2.64V66h.05a3.26,3.26,0,0,1,3.07-2.4,1.5,1.5,0,0,1,.63.1v2.7a3.42,3.42,0,0,0-1.1-.15c-1.2,0-2.65.54-2.65,3v7.89h-2.64Z"/><path d="M128.83,67.82v-.34c0-1-.37-2-1.74-2-1,0-1.89.46-1.89,1.71,0,1,.47,1.45,1.87,1.94l1.69.59c2,.66,2.86,1.71,2.86,3.79,0,2.82-2.08,4-4.73,4-3.33,0-4.33-1.54-4.33-4.09v-.49h2.35v.42c0,1.54.51,2.35,2.06,2.35s2.15-.74,2.15-1.94a1.91,1.91,0,0,0-1.44-1.93l-2.16-.76c-2-.66-2.82-1.69-2.82-3.8,0-2.48,1.77-3.63,4.51-3.63,3.36,0,4.12,2,4.12,3.6v.59Z"/><path d="M132.41,64h1.81V60.23h2.65V64H139v2h-2.15V73.8c0,1.06.29,1.4,1.2,1.4a5.87,5.87,0,0,0,1-.07v2a8.93,8.93,0,0,1-2.13.22c-1.76,0-2.67-.52-2.67-3.19V65.94h-1.81Z"/><path d="M146.44,59.66h4.37l3.08,13h.05l3-13h4.27v17.5H158.6V62.6h0L155,77.16h-2.35L149.14,62.6h0V77.16h-2.65Z"/><path d="M164.08,59.47h2.65v2.64h-2.65Zm0,4.51h2.65V77.16h-2.65Z"/><path d="M176.14,75.54h0a2.82,2.82,0,0,1-2.89,2c-3.07,0-4.32-2.6-4.32-7.1,0-5.86,2.06-6.77,4.07-6.77a3,3,0,0,1,3,1.89H176V59.66h2.65v17.5h-2.5Zm-2.4-9.8c-1.5,0-2.06,1.22-2.06,4.78,0,3,.37,4.87,2.23,4.87s2.23-1.83,2.23-4.68C176.14,67.55,175.8,65.74,173.74,65.74Z"/><path d="M187.92,75.54h0a2.82,2.82,0,0,1-2.89,2c-3.06,0-4.31-2.6-4.31-7.1,0-5.86,2.06-6.77,4.07-6.77a3.05,3.05,0,0,1,3,1.89h.05V59.66h2.64v17.5h-2.5Zm-2.4-9.8c-1.49,0-2.06,1.22-2.06,4.78,0,3,.37,4.87,2.23,4.87s2.23-1.83,2.23-4.68C187.92,67.55,187.58,65.74,185.52,65.74Z"/><path d="M193.09,59.66h2.65v17.5h-2.65Z"/><path d="M200.68,70.91v.76c0,1.76.23,4,2.21,4S205,73.56,205,72.75h2.5c0,3-1.77,4.75-4.63,4.75-2.16,0-4.83-.64-4.83-6.74,0-3.45.76-7.13,4.87-7.13,3.68,0,4.66,2.23,4.66,5.88v1.4Zm4.24-1.81v-.71c0-1.67-.53-2.94-2-2.94-1.67,0-2.21,1.66-2.21,3.38v.27Z"/><path d="M215.8,59.66h4.36l3.09,13h.05l3-13h4.26v17.5H228V62.6h-.05l-3.53,14.56H222L218.5,62.6h-.05V77.16H215.8Z"/><path d="M233.44,59.47h2.65v2.64h-2.65Zm0,4.51h2.65V77.16h-2.65Z"/><path d="M238.76,64h2.5v1.54h.07a3.77,3.77,0,0,1,3.38-1.89c2,0,3.28.91,3.28,3.58v10h-2.64v-9c0-1.77-.47-2.38-1.84-2.38-1.08,0-2.11.81-2.11,2.57v8.85h-2.64Z"/><path d="M250,70.57c0-4.12,1.07-6.94,4.9-6.94s4.92,2.82,4.92,6.94-1.27,6.93-4.92,6.93S250,74.68,250,70.57Zm4.9,5c1.93,0,2.28-1.62,2.28-5,0-2.92-.35-5-2.28-5s-2.26,2.06-2.26,5C252.67,73.92,253,75.54,254.93,75.54Z"/><path d="M270.53,74.41c0,.49.3.94.69.94a1,1,0,0,0,.44-.08V77a2.83,2.83,0,0,1-1.3.32c-1.17,0-2.15-.47-2.23-1.74h-.05a3.41,3.41,0,0,1-3.28,1.93c-2.13,0-3.43-1.15-3.43-3.7,0-2.94,1.3-3.55,3.06-4.14l2.06-.56c1-.27,1.54-.54,1.54-1.69s-.41-2-1.81-2c-1.76,0-2,1.25-2,2.52h-2.5c0-2.82,1.15-4.34,4.63-4.34,2.33,0,4.19.91,4.19,3.24ZM268,70.2a20,20,0,0,1-2.94,1.22A2.17,2.17,0,0,0,264,73.56c0,1.1.53,2,1.64,2,1.59,0,2.37-1.17,2.37-3.14Z"/><path d="M273.23,64h2.5v1.54h.07a3.77,3.77,0,0,1,3.38-1.89c2,0,3.29.91,3.29,3.58v10h-2.65v-9c0-1.77-.47-2.38-1.84-2.38-1.08,0-2.11.81-2.11,2.57v8.85h-2.64Z"/><path d="M162.06,86.66h5.54c3.36,0,4.83,2.11,4.83,5.1s-1.86,5.17-5.12,5.17h-2.45v7.23h-2.8Zm2.8,8.16h2c1.5,0,2.79-.78,2.79-3,0-1.89-.76-3-3-3h-1.78Z"/><path d="M176.42,97.91v.76c0,1.76.22,4,2.2,4s2.11-2.13,2.11-2.94h2.5c0,3-1.76,4.75-4.63,4.75-2.16,0-4.83-.63-4.83-6.74,0-3.45.76-7.13,4.88-7.13,3.68,0,4.66,2.23,4.66,5.88v1.4Zm4.24-1.81v-.71c0-1.67-.54-2.94-2-2.94-1.66,0-2.2,1.66-2.2,3.38v.27Z"/><path d="M185.48,91h2.65v2h.05a3.26,3.26,0,0,1,3.06-2.4,1.59,1.59,0,0,1,.64.1v2.7a3.51,3.51,0,0,0-1.1-.15c-1.2,0-2.65.54-2.65,3v7.89h-2.65Z"/><path d="M193.32,86.47H196v2.64h-2.65Zm0,4.51H196v13.18h-2.65Z"/><path d="M198.12,97.57c0-4.12,1.08-6.94,4.91-6.94S208,93.45,208,97.57s-1.27,6.93-4.92,6.93S198.12,101.68,198.12,97.57Zm4.91,5c1.93,0,2.28-1.62,2.28-5,0-2.92-.35-5-2.28-5s-2.26,2.06-2.26,5C200.77,100.92,201.14,102.54,203,102.54Z"/><path d="M216.72,102.54h-.05a2.82,2.82,0,0,1-2.89,2c-3.06,0-4.31-2.6-4.31-7.1,0-5.86,2.06-6.77,4.07-6.77a3.05,3.05,0,0,1,3,1.89h0V86.66h2.65v17.5h-2.5Zm-2.4-9.8c-1.49,0-2.06,1.22-2.06,4.78,0,3,.37,4.88,2.23,4.88s2.23-1.84,2.23-4.69C216.72,94.55,216.38,92.74,214.32,92.74Z"/></g></g></svg>