<svg xmlns="http://www.w3.org/2000/svg" viewBox="0 0 1698.44 106.52"><defs><style>.cls-1{opacity:0.82;}.cls-2{fill:none;stroke:#fff;}.cls-10,.cls-11,.cls-2,.cls-4,.cls-5,.cls-6,.cls-7,.cls-8,.cls-9{stroke-miterlimit:10;}.cls-3{fill:#e9ddbe;}.cls-4{fill:#e96b41;}.cls-10,.cls-11,.cls-4,.cls-5,.cls-6,.cls-7,.cls-8,.cls-9{stroke:#000;stroke-width:4px;}.cls-5{fill:#e59b96;}.cls-6{fill:#e7ce6c;}.cls-7{fill:#658f63;}.cls-8{fill:#8ea8a3;}.cls-9{fill:#e09993;}.cls-10{fill:#ecd862;}.cls-11{fill:#eb7347;}</style></defs><title>bc1950</title><g id="Layer_1" data-name="Layer 1" class="cls-1"><g id="Template"><rect id="Chart_border" data-name="Chart border" class="cls-2" x="2.06" y="-4.67" width="1694.92" height="334.79"/><rect class="cls-3" x="-74.44" y="-85.36" width="1847.91" height="190.19"/></g><g id="_1950_BC" data-name="1950 BC"><g id="Aegeans"><polygon class="cls-4" points="243.84 105.63 2.06 105.63 2.06 -3.54 226.22 -3.88 243.84 105.63"/><polygon class="cls-5" points="969.14 105.63 243.84 105.63 226.22 -3.88 1029.51 -3.88 969.14 105.63"/><polygon class="cls-6" points="1016.92 105.63 969.14 105.63 1029.51 -3.88 1077.92 -3.88 1016.92 105.63"/><polygon class="cls-7" points="1196.92 105.63 1016.92 105.63 1077.92 -3.88 1211.42 -3.88 1196.92 105.63"/><polygon class="cls-8" points="1372.92 105.63 1196.92 105.63 1211.42 -3.88 1336.42 -3.88 1372.92 105.63"/><polygon class="cls-9" points="1507.42 105.63 1372.92 105.63 1336.42 -3.88 1472.92 -3.88 1507.42 105.63"/><polygon id="huns" class="cls-10" points="1578.92 105.63 1507.42 105.63 1472.92 -3.88 1559.92 -3.88 1578.92 105.63"/><polygon id="chinese" class="cls-11" points="1696.97 105.63 1578.92 105.63 1559.92 -3.88 1696.97 -3.88 1696.97 105.63"/></g></g><g id="_1900_BC" data-name="1900 BC"><g id="nations"><polygon id="aegeans-2" data-name="aegeans" class="cls-4" points="243.87 216.32 2.09 216.32 2.08 105.67 243.87 105.67 243.87 216.32"/><polygon id="egyptians" class="cls-5" points="906.54 216.32 243.87 216.32 243.87 105.67 969.16 105.67 906.54 216.32"/><polygon id="hitities" class="cls-6" points="951.12 216.32 906.54 216.32 969.16 105.67 1016.95 105.67 951.12 216.32"/><polygon id="amorites" class="cls-7" points="1203.54 216.32 950.46 216.91 1016.95 105.67 1196.94 105.67 1203.54 216.32"/><polygon id="iranians" class="cls-8" points="1408.12 215.73 1204.21 215.73 1196.94 105.67 1372.94 105.67 1408.12 215.73"/><polygon id="indians" class="cls-9" points="1517.54 216.32 1408.12 215.73 1372.94 105.67 1507.44 105.67 1517.54 216.32"/><polygon id="huns-2" data-name="huns" class="cls-10" points="1597.04 216.32 1517.54 216.32 1507.44 105.67 1578.94 105.67 1597.04 216.32"/><polygon id="chinese-2" data-name="chinese" class="cls-11" points="1697 216.32 1597.04 216.32 1578.94 105.67 1696.99 105.67 1697 216.32"/></g></g></g></svg>