<svg xmlns="http://www.w3.org/2000/svg" viewBox="0 0 1847.91 113"><title>ce0000text</title><g id="YEARS"><g id="Right"><path d="M1792.14,84.89h3.8l4.89,18.57h-3.1l-1.14-4.55h-5.44l-1.19,4.55h-3.1Zm3.95,11.65L1794,87.39h0l-2.21,9.15Z"/><path d="M1802.23,100h3v3.43h-3Z"/><path d="M1808.36,84.89h5.28c5.83,0,6.55,3.8,6.55,9.29s-.72,9.28-6.55,9.28h-5.28Zm3,16.33h2.44c2.45,0,3.46-1.61,3.46-7,0-5.23-.88-7.05-3.46-7.05h-2.44Z"/><path d="M1821.88,100h3v3.43h-3Z"/></g><g id="left"><path d="M22.39,88.49h3.8l4.89,18.57H28l-1.14-4.55H21.4l-1.19,4.55h-3.1Zm3.95,11.65L24.21,91h-.05L22,100.14Z"/><path d="M32.48,103.62h3v3.44h-3Z"/><path d="M38.62,88.49h5.27c5.83,0,6.56,3.8,6.56,9.29s-.73,9.28-6.56,9.28H38.62Zm3,16.33H44c2.45,0,3.46-1.61,3.46-7,0-5.23-.88-7-3.46-7H41.58Z"/><path d="M52.13,103.62h3v3.44h-3Z"/></g></g><g id="Text"><g id="Romans"><path d="M681,24.21h6.17c2.45,0,4.44,1.25,4.44,4.51,0,2.26-1,4-2.92,4.29v.05c1.77.17,2.65,1.13,2.75,3.58,0,1.15,0,2.5.09,3.55a1.92,1.92,0,0,0,.84,1.52h-3.16a2.92,2.92,0,0,1-.47-1.54c0-.52-.07-1.05-.07-1.57s0-1.1-.05-1.74c-.07-1.91-.66-2.74-2.55-2.74h-2.28v7.59H681Zm5,7.8a2.58,2.58,0,0,0,2.79-2.84c0-1.87-.78-2.85-2.64-2.85h-2.38V32Z" fill="#3b4351"/><path d="M693.77,33c0-6.25,1.76-9.09,5.78-9.09s5.78,2.84,5.78,9.09-1.76,9.1-5.78,9.1S693.77,39.21,693.77,33Zm8.77-.07c0-5.88-1.32-6.91-3-6.91s-3,1-3,6.91,1.32,7.06,3,7.06S702.54,38.89,702.54,32.89Z" fill="#3b4351"/><path d="M707.81,24.21h4.36l3.09,13h0l3-13h4.27v17.5H720V27.16h-.05l-3.53,14.55H714L710.5,27.16h0V41.71h-2.64Z" fill="#3b4351"/><path d="M728.8,24.21h3.58L737,41.71h-2.92L733,37.42h-5.12l-1.13,4.29h-2.91Zm3.73,11-2-8.62h0l-2.08,8.62Z" fill="#3b4351"/><path d="M738.21,24.21h3.41l5.07,13h0v-13h2.64v17.5H746l-5.07-13.38h0V41.71h-2.65Z" fill="#3b4351"/><path d="M754.43,36.3v.44c0,2.13,1,3.21,2.87,3.21a2.51,2.51,0,0,0,2.64-2.55c0-1.84-.93-2.65-2.5-3.11l-1.91-.67c-2.55-1-3.65-2.3-3.65-4.8,0-3.18,2.18-4.95,5.44-4.95,4.49,0,4.95,2.8,4.95,4.61v.39h-2.79V28.5c0-1.59-.69-2.52-2.45-2.52a2.24,2.24,0,0,0-2.36,2.52c0,1.5.76,2.26,2.63,3l1.88.69c2.48.88,3.56,2.2,3.56,4.63,0,3.72-2.26,5.27-5.79,5.27-4.33,0-5.31-2.9-5.31-5.35V36.3Z" fill="#3b4351"/></g><g id="Teutons_-_goths" data-name="Teutons - goths"><path d="M92.55,97.71h0a3.63,3.63,0,0,1-3.82,2.38c-3.82,0-5.19-2.84-5.19-9.09s1.76-9.1,5.8-9.1a4.77,4.77,0,0,1,5.13,5v.32H91.77v-.42c0-1.29-.54-2.84-2.45-2.84s-3,1.33-3,6.91S87.21,98,89.1,98C91.23,98,92,96.46,92,92.64H89.07V90.53h5.59v9.21H92.55Z" fill="#3b4351"/><path d="M96.37,93.15c0-4.11,1.08-6.93,4.9-6.93s4.93,2.82,4.93,6.93-1.27,6.94-4.93,6.94S96.37,97.27,96.37,93.15Zm4.9,5c1.94,0,2.28-1.62,2.28-5,0-2.91-.34-5-2.28-5S99,90.24,99,93.15C99,96.51,99.39,98.13,101.27,98.13Z" fill="#3b4351"/><path d="M107.05,86.56h1.82V82.81h2.64v3.75h2.16v2h-2.16v7.87c0,1,.3,1.39,1.21,1.39a4.91,4.91,0,0,0,1-.07v2a8.44,8.44,0,0,1-2.13.22c-1.77,0-2.67-.51-2.67-3.18V88.52h-1.82Z" fill="#3b4351"/><path d="M115,82.25h2.65V88l.07,0A3.76,3.76,0,0,1,121,86.22c2,0,3.28.9,3.28,3.57v9.95h-2.65v-9c0-1.74-.49-2.37-1.83-2.37-1.08,0-2.11.83-2.11,2.57v8.84H115Z" fill="#3b4351"/><path d="M132.51,90.41v-.35c0-1-.37-2-1.74-2-1.05,0-1.89.47-1.89,1.72,0,1,.47,1.44,1.87,1.93l1.69.59c2,.66,2.87,1.72,2.87,3.8,0,2.82-2.09,4-4.73,4-3.34,0-4.34-1.55-4.34-4.09v-.5h2.35v.42c0,1.55.51,2.35,2.06,2.35s2.16-.73,2.16-1.93a1.91,1.91,0,0,0-1.45-1.94l-2.16-.76c-2-.66-2.82-1.69-2.82-3.8,0-2.47,1.77-3.62,4.51-3.62,3.36,0,4.12,2,4.12,3.6v.59Z" fill="#3b4351"/></g></g></svg>