<svg xmlns="http://www.w3.org/2000/svg" viewBox="0 0 1847.91 113"><title>ce0000text</title><g id="YEARS"><g id="Right"><path d="M1797.43,87.76h3.79l4.89,18.56H1803l-1.15-4.55h-5.43l-1.2,4.55h-3.09Zm4,11.65-2.13-9.15h-.06L1797,99.41Z" fill="#3b4351"/><path d="M1807.51,102.89h3v3.43h-3Z" fill="#3b4351"/><path d="M1813.65,87.76h5.28c5.82,0,6.55,3.79,6.55,9.28s-.73,9.28-6.55,9.28h-5.28Zm3,16.33h2.45c2.44,0,3.46-1.61,3.46-7,0-5.23-.89-7-3.46-7h-2.45Z" fill="#3b4351"/><path d="M1827.17,102.89h3v3.43h-3Z" fill="#3b4351"/></g><g id="left"><path d="M22.39,89.67h3.8l4.89,18.56H28l-1.14-4.55H21.4l-1.19,4.55h-3.1Zm3.95,11.64-2.13-9.15h-.05L22,101.31Z" fill="#3b4351"/><path d="M32.48,104.8h3v3.43h-3Z" fill="#3b4351"/><path d="M38.62,89.67h5.27c5.83,0,6.56,3.79,6.56,9.28s-.73,9.28-6.56,9.28H38.62Zm3,16.32H44c2.45,0,3.46-1.61,3.46-7,0-5.23-.88-7-3.46-7H41.58Z" fill="#3b4351"/><path d="M52.13,104.8h3v3.43h-3Z" fill="#3b4351"/></g></g><g id="Nation_OUtlines" data-name="Nation OUtlines"><polygon id="Romans" points="854.62 3486.83 829.93 3373.83 711.95 3264.83 764.62 3150.83 729.95 3035.83 845.28 2924.83 1002.62 2812.83 1065.29 2698.83 1021.28 2587.83 995.34 2470.83 815.28 2362.83 703.28 2251.83 687.28 2136.83 737.95 2022.83 780.62 1910.83 712.62 1799.83 645.95 1685.83 550.62 1572.83 491.95 1463 453.95 1350 455.29 1238 435.95 1123 470.62 1015 322.62 1015 416.12 902 480.12 792 410.62 680 316.95 566 248.28 451 210.28 340 175.95 229 159.62 113 91.28 0 83.12 -105 117.62 -219 151.37 -333 129.62 -443 109.62 -558 99.62 -670 73.12 -780 75.42 -1678 85.95 -1568 95.28 -1456 111.95 -1344 116.62 -1233 137.95 -1120 149.95 -1004 169.95 -892 205.28 -780 231.95 -670 287.74 -558 467.73 -443 683.72 -333 998.71 -219 1118.7 -105 1131.14 0 1195.2 113 1182.62 229 1245.62 340 1220.62 451 1122.62 566 981.62 680 880.12 792 717.95 902 593.62 1015 616.62 1123 717.28 1238 839.28 1352.84 863.28 1463 915.28 1572.83 810.62 1685.83 885.95 1799.83 1037.95 1910.83 1125.95 2022.83 1253.95 2136.83 1213.95 2251.83 1202.62 2362.83 1169.95 2470.83 1161.29 2587.83 1218.62 2698.83 1131.95 2812.83 936.62 2924.83 798.62 3035.83 819.28 3150.83 759.95 3264.83 849.28 3373.83 854.62 3486.83" fill="none" stroke="#3b4351" stroke-miterlimit="10"/><polygon id="Indians" points="1372.19 -2013.83 1294.19 -2128 1285.19 -2241 1313.69 -2352 1348.19 -2465 1310.69 -2579 1298.69 -2689 1313.69 -2801 1345.19 -2913 1325.69 -3027 1343.69 -3141 1417.19 -3252 1400.69 -3365.08 1429.19 -3478 1419.27 -3593.27 1387.19 -3705 1387.19 -3817 1438.19 -3927.5 1462.18 -4039.5 1480.18 -4152.54 1445.82 -4262.83 1411.11 -4374.83 1545.86 -4374.83 1580.1 -4262.83 1593.12 -4152.6 1552.12 -4039.5 1514.62 -3927.5 1514.12 -3817.33 1553.12 -3705.27 1548.12 -3593 1519.62 -3478 1534.12 -3364.33 1575.12 -3252 1559.62 -3141 1564.12 -3027.27 1534.62 -2913 1486.12 -2801 1465.12 -2689 1471.12 -2579.83 1502.12 -2465.83 1508.12 -2352 1534.62 -2241 1542.77 -2162.14 1555.62 -2013.83 1554.62 -1905 1567.12 -1793 1542.12 -1678.27 1498.12 -1568 1490.62 -1456 1513.12 -1344 1568.62 -1233 1544.12 -1120 1530.62 -1004.27 1523.62 -892.27 1532.62 -780 1565.12 -670 1543.62 -558 1514.12 -443 1490.12 -333.27 1495.62 -219 1517.12 -105.33 1528.12 0 1580.62 112.67 1578.12 228.67 1578.12 339.17 1560.12 450.73 1526.62 566 1467.62 680 1381.62 791.73 1270.62 902 1090.12 1014.73 860.62 1123 1302.12 1238 1377.03 1350 1550.62 1463 1519.62 1572.83 1476.12 1685.83 1516.13 1799.83 1534.62 1912.17 1552.65 2022.83 1585.62 2136.73 1620.12 2251.83 1650.12 2362.83 1630.62 2470.73 1622.45 2587.73 1565.62 2698.83 1402.62 2812.17 1173.62 2924.83 1148.62 3035.83 1334.62 3150.83 1283.62 3264.83 1344.62 3373.83 1544.62 3486.83 1602.62 3601.17 1627.62 3712.83 1674.62 3825.73 1627.62 3940.83 1634.62 4052.83 1686.62 4164.83 1701.62 4277.83 1620.12 4389.83 1606.12 4500.83 1606.12 4614.66 1552.62 4614.66 1549.52 4500.83 1569.62 4389.83 1683.62 4277.83 1667.62 4164.83 1607.62 4052.83 1596.62 3940.17 1617.62 3825.83 1584.62 3712.83 1562.62 3600.83 1507.62 3486.83 1304.62 3373.73 1225.62 3264.73 1236.97 3227.78 1264.87 3150.83 1082.62 3035.83 1084.2 2925.34 1323.62 2812.83 1500.47 2698.73 1573.62 2587.83 1600.62 2470.83 1604.62 2362.83 1569.62 2251.83 1514.62 2136.83 1447.62 2022.73 1418.62 1910.83 1404.62 1799.83 1367.62 1685.83 1397.62 1572.83 1418.62 1462.73 1339.62 1349.73 1246.62 1238 748.62 1123 753.62 1015 910.76 902 1053.62 792 1195.2 680 1311.62 565.17 1353.62 451 1348.62 340 1364.62 228.17 1406.62 113 1401.62 0 1429.62 -105 1394.62 -219.27 1393.2 -333 1391.82 -443.27 1437.52 -558 1513.62 -670.27 1505.64 -780 1472.62 -891.83 1447.62 -1004 1440.63 -1120 1462.62 -1233 1391.1 -1344 1348.62 -1456 1332.62 -1568 1376.98 -1678 1375.34 -1793.27 1373.74 -1905.27 1372.19 -2013.83" fill="none" stroke="#3b4351" stroke-miterlimit="10"/><polygon id="Huns" points="1555.62 -2013.83 1545.73 -2128 1533.62 -2241.33 1506.68 -2351.36 1502.16 -2465 1471.34 -2579 1465.12 -2689 1486.12 -2801 1534.62 -2913 1564.05 -3027 1559.62 -3141 1575.12 -3252 1534.24 -3364 1519.62 -3478 1548.12 -3593 1553.11 -3705 1514.47 -3817.27 1514.62 -3929.5 1552.12 -4039.5 1593.12 -4152.16 1580.1 -4262.83 1545.86 -4374.83 1633.99 -4374.83 1651.62 -4262.83 1667.62 -4152.16 1646.62 -4039.5 1620.62 -3927.5 1630.4 -3819.4 1650.62 -3705.33 1676.62 -3593 1700.12 -3478 1689.12 -3364 1714.62 -3252.33 1697.12 -3141.27 1645.62 -3027.27 1616.12 -2913 1586.62 -2801.27 1538.12 -2689.27 1509.12 -2579 1551.62 -2465 1585.12 -2352 1608.62 -2241.33 1609.69 -2128.27 1610.76 -2015.27 1613.62 -1905.27 1625.12 -1793.27 1599.12 -1677.33 1557.59 -1568 1545.65 -1456 1558.62 -1344 1584.62 -1233.27 1571.12 -1119.83 1576.62 -1004 1567.62 -892 1587.12 -780 1621.12 -670 1612.12 -558 1556.12 -443 1528.62 -333 1529.62 -219 1553.62 -105 1616.07 0 1609.25 113 1592.66 229 1611.01 339.73 1612.12 451 1598.04 566 1564.12 680 1534.29 792 1602.12 901.73 1653.62 1015 1673.62 1123 1666.12 1238 1668.12 1349.67 1625.62 1462.67 1542.12 1572.83 1476.12 1685.83 1519.62 1572.83 1550.62 1463 1376.62 1349.73 1302.12 1238 860.62 1123 1090.12 1014.73 1270.62 902 1381.62 791.73 1467.62 680 1526.62 566 1560.12 450.73 1578.12 339.17 1578.12 228.67 1580.62 112.67 1528.12 0 1517.12 -105.33 1495.62 -219 1490.12 -333.27 1514.12 -443 1543.62 -558 1565.12 -670 1532.62 -780 1523.62 -892.27 1530.62 -1004.27 1544.12 -1120 1568.62 -1233 1513.12 -1344 1490.62 -1456 1498.12 -1568 1542.12 -1678.27 1567.12 -1793 1554.62 -1905 1555.62 -2013.83" fill="none" stroke="#3b4351" stroke-miterlimit="10"/><polygon id="Greeks" points="1131.14 0 1118.7 -105 998.71 -219 683.72 -333 467.73 -443 287.74 -558 231.95 -670 205.28 -780 169.95 -892 149.95 -1004 137.95 -1120 116.62 -1233 111.95 -1344 95.28 -1456 85.95 -1568 75.42 -1678 75.42 -1851.33 75.42 -3141 142.25 -3027 145.25 -2913 155.75 -2801 172.25 -2689 202.25 -2579 223.25 -2465 251.62 -2352 250.62 -2241 221.95 -2127.16 228.6 -2015.27 199.95 -1905.16 217.95 -1793.16 237.43 -1678 262.62 -1568 259.95 -1456 319.29 -1344 349.95 -1233 401.29 -1120 527.28 -1004 645.95 -892 761.95 -780 965.29 -670 965.95 -558 897.95 -443.83 910.76 -333.27 1099.37 -219 1168.66 -104.91 1131.14 0" fill="none" stroke="#3b4351" stroke-miterlimit="10"/><polygon id="Egyptians" points="1195.2 110.31 1131.14 0 1168.66 -104.91 1099.2 -219.27 910.76 -333.27 897.95 -443.83 965.95 -558 965.28 -670.5 761.95 -780 645.95 -892 527.28 -1004 401.29 -1120 349.95 -1233 319.29 -1344 259.95 -1456 262.62 -1568 238.62 -1678 217.95 -1793 199.95 -1905 228.62 -2015 221.62 -2128 250.62 -2241 251.62 -2352 223.25 -2465 271.57 -2579 265.25 -2689 305.74 -2801 341.74 -2913 376.24 -3027 440.74 -3141 467.73 -3251.09 443.74 -3364 381.96 -3478 242.75 -3593 298.62 -3705 424.24 -3817 460.24 -3927.5 397.24 -4039.5 319.24 -4152.16 319.24 -4262.83 298.62 -4374.83 1103.77 -4374.83 1042.62 -4262.83 982.62 -4152.16 940.62 -4039.5 786.62 -3927.5 663.62 -3817 633.62 -3705 662.62 -3593 656.62 -3478.08 733.62 -3364.27 800.62 -3252.83 770.62 -3141 750.62 -3027 785.62 -2913 835.62 -2801 742.62 -2689 658.62 -2579 439.62 -2465 400.62 -2352 361.62 -2241 302.62 -2128 310.62 -2015 282.62 -1905 271.95 -1793 305.95 -1568 323.95 -1456.5 432.62 -1344 476.62 -1233.83 451.95 -1120 555.95 -1004 667.28 -892 813.28 -780 968.62 -670 995.95 -558 968.62 -443.16 940.62 -334.5 1130.91 -219.27 1189.62 -104.33 1157.7 0 1195.2 110.31" fill="none" stroke="#3b4351" stroke-miterlimit="10"/><polygon id="Chinese" points="1610.76 -2015.27 1609.69 -2128.27 1608.62 -2241.33 1585.12 -2352 1551.62 -2465 1509.12 -2579 1538.12 -2689.27 1586.62 -2801.27 1616.12 -2913 1645.62 -3027.27 1697.12 -3141.27 1714.62 -3252.33 1689.12 -3364 1700.12 -3478 1676.62 -3593 1650.62 -3705.33 1630.62 -3817 1620.62 -3927.5 1646.62 -4039.5 1667.62 -4152.16 1651.62 -4262.83 1633.99 -4374.83 1768.79 -4374.83 1768.79 3825.83 1768.79 3940.73 1766.12 4052.83 1757.62 4164.83 1736.12 4277.73 1676.12 4389.73 1661.12 4500.83 1663.62 4614.66 1606.12 4614.66 1606.12 4500.73 1620.12 4389.83 1701.62 4277.83 1696.12 4164.67 1654.12 4052.83 1681.62 3940.83 1739.62 3825.73 1748.62 3712.67 1744.12 3600.67 1685.62 3486.83 1615.12 3376.17 1636.12 3264.83 1738.62 3150.83 1761.12 3035.83 1758.62 2924.83 1732.12 2812.83 1695.62 2698.83 1667.62 2587.83 1651.12 2470.83 1650.12 2362.83 1620.12 2251.83 1585.62 2136.73 1552.62 2022.73 1535.12 1910.83 1516.12 1799.73 1476.12 1685.83 1542.12 1572.83 1625.62 1462.67 1668.12 1349.67 1666.12 1238 1673.62 1123 1653.62 1015 1602.12 901.73 1534.12 791.73 1564.12 680 1598.12 565.73 1612.12 451 1611.01 339.73 1592.62 228.73 1609.25 113 1616.07 0 1553.62 -105 1529.62 -219 1528.62 -333.27 1555.62 -443 1612.12 -558 1621.12 -670 1587.12 -780 1567.62 -892 1576.62 -1004 1571.12 -1120 1584.62 -1233.27 1558.62 -1344 1545.62 -1456.27 1557.62 -1568.27 1599.62 -1678 1625.12 -1793.27 1613.62 -1905.27 1610.76 -2015.27" fill="none" stroke="#3b4351" stroke-miterlimit="10"/><polygon id="Teutons_-Goths" data-name="Teutons -Goths" points="712.62 1799.83 392.87 1685.83 333.12 1572.83 298.12 1463 257.62 1350 192.12 1238 189.69 1123 168.12 1015 138.62 904.41 101.12 792 73.12 682.67 73.12 -780 99.62 -670 109.62 -558 129.3 -440.61 151.37 -333 117.62 -219 83.12 -105 91.28 0 159.62 113 175.95 229 210.28 340 248.28 451 316.95 566 410.62 680 480.12 792 416.12 902 322.62 1015 328.12 1123 455.29 1238 453.95 1350 425.12 1463 461.12 1572.83 536.62 1685.83 712.62 1799.83" fill="none" stroke="#3b4351" stroke-miterlimit="10"/><polygon id="Bactri" points="1394.62 -219.27 1429.62 -105 1401.62 0 1363.19 -105 1341.62 -219 1333.62 -329.4 1391.82 -443.27 1393.2 -333 1394.62 -219.27" fill="none" stroke="#3b4351" stroke-miterlimit="10"/><polygon id="Parthian_empire" data-name="Parthian empire" points="1245.62 340 1182.62 229 1195.2 110.31 1157.7 0 1189.62 -104.33 1218.62 -219 1333.62 -329.4 1341.62 -219 1363.19 -105 1401.62 0 1406.62 113 1364.62 228.17 1348.62 340 1353.62 451 1311.62 565.17 1220.62 451 1245.62 340" fill="none" stroke="#3b4351" stroke-miterlimit="10"/></g><g id="Text"><g id="Romans-2" data-name="Romans"><path d="M681,24.21h6.17c2.45,0,4.44,1.25,4.44,4.51,0,2.26-1,4-2.92,4.29v.05c1.77.17,2.65,1.13,2.75,3.58,0,1.15,0,2.5.09,3.55a1.92,1.92,0,0,0,.84,1.52h-3.16a2.92,2.92,0,0,1-.47-1.54c0-.52-.07-1.05-.07-1.57s0-1.1-.05-1.74c-.07-1.91-.66-2.74-2.55-2.74h-2.28v7.59H681Zm5,7.8a2.58,2.58,0,0,0,2.79-2.84c0-1.87-.78-2.85-2.64-2.85h-2.38V32Z" fill="#3b4351"/><path d="M693.77,33c0-6.25,1.76-9.09,5.78-9.09s5.78,2.84,5.78,9.09-1.76,9.1-5.78,9.1S693.77,39.21,693.77,33Zm8.77-.07c0-5.88-1.32-6.91-3-6.91s-3,1-3,6.91,1.32,7.06,3,7.06S702.54,38.89,702.54,32.89Z" fill="#3b4351"/><path d="M707.81,24.21h4.36l3.09,13h0l3-13h4.27v17.5H720V27.16h-.05l-3.53,14.55H714L710.5,27.16h0V41.71h-2.64Z" fill="#3b4351"/><path d="M728.8,24.21h3.58L737,41.71h-2.92L733,37.42h-5.12l-1.13,4.29h-2.91Zm3.73,11-2-8.62h0l-2.08,8.62Z" fill="#3b4351"/><path d="M738.21,24.21h3.41l5.07,13h0v-13h2.64v17.5H746l-5.07-13.38h0V41.71h-2.65Z" fill="#3b4351"/><path d="M754.43,36.3v.44c0,2.13,1,3.21,2.87,3.21a2.51,2.51,0,0,0,2.64-2.55c0-1.84-.93-2.65-2.5-3.11l-1.91-.67c-2.55-1-3.65-2.3-3.65-4.8,0-3.18,2.18-4.95,5.44-4.95,4.49,0,4.95,2.8,4.95,4.61v.39h-2.79V28.5c0-1.59-.69-2.52-2.45-2.52a2.24,2.24,0,0,0-2.36,2.52c0,1.5.76,2.26,2.63,3l1.88.69c2.48.88,3.56,2.2,3.56,4.63,0,3.72-2.26,5.27-5.79,5.27-4.33,0-5.31-2.9-5.31-5.35V36.3Z" fill="#3b4351"/></g><g id="Teutons_-_goths" data-name="Teutons - goths"><path d="M92.55,97.71h0a3.63,3.63,0,0,1-3.82,2.38c-3.82,0-5.19-2.84-5.19-9.09s1.76-9.1,5.8-9.1a4.77,4.77,0,0,1,5.13,5v.32H91.77v-.42c0-1.29-.54-2.84-2.45-2.84s-3,1.33-3,6.91S87.21,98,89.1,98C91.23,98,92,96.46,92,92.64H89.07V90.53h5.59v9.21H92.55Z" fill="#3b4351"/><path d="M96.37,93.15c0-4.11,1.08-6.93,4.9-6.93s4.93,2.82,4.93,6.93-1.27,6.94-4.93,6.94S96.37,97.27,96.37,93.15Zm4.9,5c1.94,0,2.28-1.62,2.28-5,0-2.91-.34-5-2.28-5S99,90.24,99,93.15C99,96.51,99.39,98.13,101.27,98.13Z" fill="#3b4351"/><path d="M107.05,86.56h1.82V82.81h2.64v3.75h2.16v2h-2.16v7.87c0,1,.3,1.39,1.21,1.39a4.91,4.91,0,0,0,1-.07v2a8.44,8.44,0,0,1-2.13.22c-1.77,0-2.67-.51-2.67-3.18V88.52h-1.82Z" fill="#3b4351"/><path d="M115,82.25h2.65V88l.07,0A3.76,3.76,0,0,1,121,86.22c2,0,3.28.9,3.28,3.57v9.95h-2.65v-9c0-1.74-.49-2.37-1.83-2.37-1.08,0-2.11.83-2.11,2.57v8.84H115Z" fill="#3b4351"/><path d="M132.51,90.41v-.35c0-1-.37-2-1.74-2-1.05,0-1.89.47-1.89,1.72,0,1,.47,1.44,1.87,1.93l1.69.59c2,.66,2.87,1.72,2.87,3.8,0,2.82-2.09,4-4.73,4-3.34,0-4.34-1.55-4.34-4.09v-.5h2.35v.42c0,1.55.51,2.35,2.06,2.35s2.16-.73,2.16-1.93a1.91,1.91,0,0,0-1.45-1.94l-2.16-.76c-2-.66-2.82-1.69-2.82-3.8,0-2.47,1.77-3.62,4.51-3.62,3.36,0,4.12,2,4.12,3.6v.59Z" fill="#3b4351"/></g></g></svg>