<svg id="Text" xmlns="http://www.w3.org/2000/svg" viewBox="0 0 1847.91 113"><title>ce0000text</title><g id="Romans"><path d="M681,24.21h6.17c2.45,0,4.44,1.25,4.44,4.51,0,2.26-1,4-2.92,4.29v.05c1.77.17,2.65,1.13,2.75,3.58,0,1.15,0,2.5.09,3.55a1.92,1.92,0,0,0,.84,1.52h-3.16a2.92,2.92,0,0,1-.47-1.54c0-.52-.07-1.05-.07-1.57s0-1.1-.05-1.74c-.07-1.91-.66-2.74-2.55-2.74h-2.28v7.59H681Zm5,7.8a2.58,2.58,0,0,0,2.79-2.84c0-1.87-.78-2.85-2.64-2.85h-2.38V32Z"/><path d="M693.77,33c0-6.25,1.76-9.09,5.78-9.09s5.78,2.84,5.78,9.09-1.76,9.1-5.78,9.1S693.77,39.21,693.77,33Zm8.77-.07c0-5.88-1.32-6.91-3-6.91s-3,1-3,6.91,1.32,7.06,3,7.06S702.54,38.89,702.54,32.89Z"/><path d="M707.81,24.21h4.36l3.09,13h0l3-13h4.27v17.5H720V27.16h-.05l-3.53,14.55H714L710.5,27.16h0V41.71h-2.64Z"/><path d="M728.8,24.21h3.58L737,41.71h-2.92L733,37.42h-5.12l-1.13,4.29h-2.91Zm3.73,11-2-8.62h0l-2.08,8.62Z"/><path d="M738.21,24.21h3.41l5.07,13h0v-13h2.64v17.5H746l-5.07-13.38h0V41.71h-2.65Z"/><path d="M754.43,36.3v.44c0,2.13,1,3.21,2.87,3.21a2.51,2.51,0,0,0,2.64-2.55c0-1.84-.93-2.65-2.5-3.11l-1.91-.67c-2.55-1-3.65-2.3-3.65-4.8,0-3.18,2.18-4.95,5.44-4.95,4.49,0,4.95,2.8,4.95,4.61v.39h-2.79V28.5c0-1.59-.69-2.52-2.45-2.52a2.24,2.24,0,0,0-2.36,2.52c0,1.5.76,2.26,2.63,3l1.88.69c2.48.88,3.56,2.2,3.56,4.63,0,3.72-2.26,5.27-5.79,5.27-4.33,0-5.31-2.9-5.31-5.35V36.3Z"/></g></svg>