<svg id="Text" xmlns="http://www.w3.org/2000/svg" viewBox="0 0 1847.91 116"><title>ce0050text</title><g id="Romans"><path d="M230.42,27.44v.86c0,1.42.3,2.65,1.86,2.65,1.87,0,1.87-1.72,1.87-3.48V15.21h2.79V27.88c0,3.88-1.91,5.18-4.7,5.18-3.61,0-4.39-2.21-4.46-4.49V27.44Z"/><path d="M241.81,26.46v.76c0,1.77.22,4,2.21,4s2.11-2.13,2.11-2.94h2.5c0,3-1.77,4.76-4.63,4.76-2.16,0-4.83-.64-4.83-6.74,0-3.46.76-7.13,4.87-7.13,3.68,0,4.66,2.23,4.66,5.88v1.39Zm4.24-1.81v-.71c0-1.67-.54-2.94-2-2.94-1.67,0-2.21,1.67-2.21,3.38v.27Z"/><path d="M256.56,23.38V23c0-1.05-.36-2-1.74-2-1,0-1.88.46-1.88,1.71,0,1.06.46,1.45,1.86,1.94l1.69.59c2,.66,2.87,1.71,2.87,3.8,0,2.81-2.09,4-4.73,4-3.34,0-4.34-1.55-4.34-4.1v-.49h2.35v.42c0,1.54.52,2.35,2.06,2.35s2.16-.73,2.16-1.93a1.91,1.91,0,0,0-1.45-1.94l-2.15-.76c-2-.66-2.82-1.69-2.82-3.8,0-2.47,1.76-3.62,4.51-3.62,3.35,0,4.11,2,4.11,3.6v.59Z"/><path d="M268.05,31.17H268a3.79,3.79,0,0,1-3.38,1.89c-2,0-3.28-.91-3.28-4.32V19.53H264V29c0,1.47.64,2,1.79,2a2.06,2.06,0,0,0,2.16-2.21V19.53h2.64V32.71h-2.5Z"/><path d="M278.78,23.38V23c0-1.05-.36-2-1.74-2-1.05,0-1.88.46-1.88,1.71,0,1.06.46,1.45,1.86,1.94l1.69.59c2,.66,2.87,1.71,2.87,3.8,0,2.81-2.08,4-4.73,4-3.33,0-4.34-1.55-4.34-4.1v-.49h2.35v.42c0,1.54.52,2.35,2.06,2.35s2.16-.73,2.16-1.93a1.91,1.91,0,0,0-1.45-1.94l-2.15-.76c-2-.66-2.82-1.69-2.82-3.8,0-2.47,1.76-3.62,4.51-3.62,3.35,0,4.11,2,4.11,3.6v.59Z"/><path d="M288.9,26.12c0-4.12,1.08-6.93,4.9-6.93s4.93,2.81,4.93,6.93-1.28,6.94-4.93,6.94S288.9,30.24,288.9,26.12Zm4.9,5c1.94,0,2.28-1.61,2.28-5,0-2.92-.34-5-2.28-5s-2.25,2.05-2.25,5C291.55,29.48,291.92,31.09,293.8,31.09Z"/><path d="M301.57,21.49h-1.84v-2h1.84V18.3c0-2.47,1.2-3.28,3.36-3.28a11.83,11.83,0,0,1,1.44.07v2h-.73c-1,0-1.43.36-1.43,1.25v1.15h2.16v2h-2.16V32.71h-2.64Z"/><path d="M313.62,15.21H317l5.07,13h0v-13h2.65v17.5h-3.41l-5.07-13.38h-.05V32.71h-2.65Z"/><path d="M336.16,30c0,.49.3.93.69.93a1.18,1.18,0,0,0,.44-.07v1.71a2.83,2.83,0,0,1-1.3.32c-1.17,0-2.15-.47-2.23-1.74h-.05a3.4,3.4,0,0,1-3.28,1.94c-2.13,0-3.43-1.16-3.43-3.7,0-2.95,1.3-3.56,3.06-4.15l2.06-.56c1-.27,1.54-.54,1.54-1.69s-.41-2-1.81-2c-1.76,0-2,1.25-2,2.52h-2.5c0-2.81,1.15-4.33,4.63-4.33,2.33,0,4.19.9,4.19,3.23Zm-2.5-4.22A20,20,0,0,1,330.72,27a2.17,2.17,0,0,0-1.08,2.13c0,1.1.54,2,1.65,2,1.59,0,2.37-1.17,2.37-3.13Z"/><path d="M338.19,30.65,344,21.76h-5.41V19.53h8.4v2.18l-5.54,8.77h5.54v2.23h-8.75Z"/><path d="M357.48,30c0,.49.29.93.68.93a1.24,1.24,0,0,0,.45-.07v1.71a2.86,2.86,0,0,1-1.3.32c-1.18,0-2.16-.47-2.23-1.74H355a3.41,3.41,0,0,1-3.29,1.94c-2.13,0-3.43-1.16-3.43-3.7,0-2.95,1.3-3.56,3.07-4.15l2.05-.56c1-.27,1.55-.54,1.55-1.69s-.42-2-1.82-2c-1.76,0-2,1.25-2,2.52h-2.5c0-2.81,1.15-4.33,4.63-4.33,2.33,0,4.19.9,4.19,3.23ZM355,25.75A20.5,20.5,0,0,1,352,27,2.17,2.17,0,0,0,351,29.11c0,1.1.54,2,1.64,2,1.59,0,2.38-1.17,2.38-3.13Z"/><path d="M360.17,19.53h2.65v2.06h.05a3.24,3.24,0,0,1,3.06-2.4,1.61,1.61,0,0,1,.64.09V22a3.87,3.87,0,0,0-1.11-.15c-1.2,0-2.64.54-2.64,3v7.89h-2.65Z"/><path d="M370,26.46v.76c0,1.77.22,4,2.21,4s2.1-2.13,2.1-2.94h2.5c0,3-1.76,4.76-4.63,4.76-2.16,0-4.83-.64-4.83-6.74,0-3.46.76-7.13,4.88-7.13,3.68,0,4.66,2.23,4.66,5.88v1.39Zm4.24-1.81v-.71c0-1.67-.54-2.94-2-2.94-1.67,0-2.21,1.67-2.21,3.38v.27Z"/><path d="M377.91,19.53h1.81V15.78h2.65v3.75h2.15v2h-2.15v7.87c0,1.05.29,1.39,1.2,1.39a4.91,4.91,0,0,0,.95-.07v2a8.44,8.44,0,0,1-2.13.22c-1.76,0-2.67-.52-2.67-3.19V21.49h-1.81Z"/><path d="M385.9,15.21h2.64V21l.08.05a3.74,3.74,0,0,1,3.23-1.81c2,0,3.28.9,3.28,3.57v10h-2.64v-9c0-1.74-.49-2.38-1.84-2.38-1.08,0-2.11.84-2.11,2.58v8.84H385.9Z"/><path d="M732.57,98.44v.37c0,3.16-1.3,6.25-5.39,6.25-4.41,0-5.78-2.85-5.78-9.1s1.37-9.09,5.81-9.09c5,0,5.26,3.65,5.26,5.49v.32h-2.79v-.29c0-1.65-.49-3.48-2.5-3.41s-3,1.27-3,6.91.91,7.06,3,7.06c2.35,0,2.6-2.58,2.6-4.22v-.29Z"/><path d="M734.36,87.21H737V93l.08,0a3.76,3.76,0,0,1,3.23-1.81c2,0,3.29.9,3.29,3.57v9.95H741v-9c0-1.74-.49-2.38-1.84-2.38-1.08,0-2.11.84-2.11,2.58v8.84h-2.64Z"/><path d="M746.14,91.53h2.65v2.06h.05a3.26,3.26,0,0,1,3.06-2.4,1.61,1.61,0,0,1,.64.09V94a3.84,3.84,0,0,0-1.1-.15c-1.21,0-2.65.54-2.65,3v7.89h-2.65Z"/><path d="M754,87h2.65v2.65H754Zm0,4.51h2.65v13.18H754Z"/><path d="M765,95.38V95c0-1-.36-2-1.74-2-1,0-1.88.46-1.88,1.71,0,1.06.46,1.45,1.86,1.94l1.69.59c2,.66,2.87,1.71,2.87,3.8,0,2.81-2.09,4-4.73,4-3.34,0-4.34-1.55-4.34-4.1v-.49h2.35v.42c0,1.54.52,2.35,2.06,2.35s2.16-.73,2.16-1.93a1.91,1.91,0,0,0-1.45-1.94l-2.15-.76c-2-.66-2.82-1.69-2.82-3.8,0-2.47,1.76-3.62,4.51-3.62,3.35,0,4.11,2,4.11,3.6v.59Z"/><path d="M768.56,91.53h1.81V87.78H773v3.75h2.16v2H773v7.87c0,1,.29,1.39,1.2,1.39a5.1,5.1,0,0,0,1-.07v2a8.58,8.58,0,0,1-2.14.22c-1.76,0-2.67-.52-2.67-3.19V93.49h-1.81Z"/><path d="M776.67,87h2.65v2.65h-2.65Zm0,4.51h2.65v13.18h-2.65Z"/><path d="M790.64,102c0,.49.29.93.68.93a1.18,1.18,0,0,0,.44-.07v1.71a2.83,2.83,0,0,1-1.3.32c-1.17,0-2.15-.47-2.23-1.74h-.05a3.4,3.4,0,0,1-3.28,1.94c-2.13,0-3.43-1.16-3.43-3.7,0-3,1.3-3.56,3.06-4.15l2.06-.56c1-.27,1.55-.54,1.55-1.69s-.42-2-1.82-2c-1.76,0-2,1.25-2,2.52h-2.5c0-2.81,1.15-4.33,4.63-4.33,2.33,0,4.2.9,4.2,3.23Zm-2.5-4.22A20.62,20.62,0,0,1,785.19,99a2.18,2.18,0,0,0-1.07,2.13c0,1.1.54,2,1.64,2,1.59,0,2.38-1.17,2.38-3.13Z"/><path d="M793.33,91.53h2.5v1.54h.07a3.78,3.78,0,0,1,3.38-1.88c2,0,3.29.9,3.29,3.57v9.95h-2.65v-9c0-1.76-.47-2.38-1.84-2.38-1.08,0-2.11.81-2.11,2.58v8.84h-2.64Z"/><path d="M821.92,98.44v.37c0,3.16-1.3,6.25-5.39,6.25-4.41,0-5.78-2.85-5.78-9.1s1.37-9.09,5.8-9.09c5,0,5.27,3.65,5.27,5.49v.32H819v-.29c0-1.65-.49-3.48-2.5-3.41s-3,1.27-3,6.91.91,7.06,3,7.06c2.35,0,2.6-2.58,2.6-4.22v-.29Z"/><path d="M823.71,87.21h2.64V93l.08,0a3.76,3.76,0,0,1,3.23-1.81c2,0,3.29.9,3.29,3.57v9.95H830.3v-9c0-1.74-.49-2.38-1.84-2.38-1.08,0-2.11.84-2.11,2.58v8.84h-2.64Z"/><path d="M842.23,103.17h-.07a3.79,3.79,0,0,1-3.38,1.89c-2,0-3.29-.91-3.29-4.32V91.53h2.65V101c0,1.47.64,2,1.79,2a2.06,2.06,0,0,0,2.15-2.21V91.53h2.65v13.18h-2.5Z"/><path d="M847.28,91.53h2.64v2.06H850a3.26,3.26,0,0,1,3.06-2.4,1.61,1.61,0,0,1,.64.09V94a3.78,3.78,0,0,0-1.1-.15c-1.2,0-2.65.54-2.65,3v7.89h-2.64Z"/><path d="M863.74,99.91c-.19,3.16-1.22,5.15-4.51,5.15-3.82,0-4.9-2.82-4.9-6.94s1.08-6.93,4.9-6.93,4.54,3.11,4.54,4.73h-2.65c0-1.23-.32-2.85-1.89-2.77-1.88,0-2.25,2-2.25,5s.37,5,2.25,5c1.47,0,2-1.2,2-3.18Z"/><path d="M865.58,87.21h2.64V93l.08,0a3.76,3.76,0,0,1,3.23-1.81c2,0,3.28.9,3.28,3.57v9.95h-2.64v-9c0-1.74-.49-2.38-1.84-2.38-1.08,0-2.11.84-2.11,2.58v8.84h-2.64Z"/><path d="M900.16,44.16h6.18c2.45,0,4.43,1.25,4.43,4.51,0,2.26-1,4-2.91,4.29v0c1.76.17,2.64,1.13,2.74,3.58,0,1.15,0,2.5.1,3.55a1.92,1.92,0,0,0,.83,1.52h-3.16a2.93,2.93,0,0,1-.46-1.54c0-.52-.08-1.06-.08-1.57s0-1.1-.05-1.74c-.07-1.91-.66-2.75-2.54-2.75H903v7.6h-2.8Zm5,7.8A2.58,2.58,0,0,0,908,49.11c0-1.86-.78-2.84-2.65-2.84H903V52Z"/><path d="M912.63,55.07c0-4.12,1.08-6.94,4.9-6.94s4.93,2.82,4.93,6.94S921.19,62,917.53,62,912.63,59.18,912.63,55.07Zm4.9,5c1.94,0,2.28-1.62,2.28-5,0-2.92-.34-5-2.28-5s-2.25,2.06-2.25,5C915.28,58.42,915.65,60,917.53,60Z"/><path d="M924.61,48.48h2.5V50h.08a3.68,3.68,0,0,1,3.16-1.89,2.86,2.86,0,0,1,3.06,2,3.61,3.61,0,0,1,3.33-2c1.87,0,3.21,1,3.21,3.51v10h-2.64v-9c0-1.74-.52-2.38-1.59-2.38s-2.11.83-2.11,2.57v8.85H931v-9c0-1.74-.51-2.38-1.62-2.38s-2.08.86-2.08,2.57v8.85h-2.65Z"/><path d="M951.27,58.92c0,.49.3.93.69.93a1,1,0,0,0,.44-.08v1.72a2.83,2.83,0,0,1-1.3.32c-1.18,0-2.16-.47-2.23-1.74h0A3.39,3.39,0,0,1,945.54,62c-2.13,0-3.43-1.15-3.43-3.7,0-2.94,1.3-3.55,3.06-4.14l2.06-.56c.95-.27,1.54-.54,1.54-1.69s-.41-2-1.81-2c-1.77,0-2,1.25-2,2.52h-2.5c0-2.82,1.15-4.34,4.63-4.34,2.33,0,4.19.91,4.19,3.24Zm-2.5-4.22a21.19,21.19,0,0,1-2.94,1.23,2.16,2.16,0,0,0-1.08,2.13c0,1.1.54,2,1.65,2,1.59,0,2.37-1.17,2.37-3.13Z"/><path d="M954,48.48h2.5V50h.08a3.77,3.77,0,0,1,3.38-1.89c2,0,3.28.91,3.28,3.58v9.95h-2.64v-9c0-1.77-.47-2.38-1.84-2.38-1.08,0-2.11.81-2.11,2.57v8.85H954Z"/><path d="M971.8,44.16h9.46v2.36h-6.67v4.85h6.28v2.35h-6.28v5.59h6.87v2.35H971.8Z"/><path d="M983.54,48.48H986V50h.08a3.68,3.68,0,0,1,3.16-1.89,2.86,2.86,0,0,1,3.06,2,3.61,3.61,0,0,1,3.34-2c1.86,0,3.21,1,3.21,3.51v10h-2.65v-9c0-1.74-.52-2.38-1.59-2.38s-2.11.83-2.11,2.57v8.85h-2.65v-9c0-1.74-.51-2.38-1.61-2.38s-2.09.86-2.09,2.57v8.85h-2.64Z"/><path d="M1007.23,62a3,3,0,0,1-3-1.88h0V66h-2.65V48.48h2.5v1.61h.05a3.13,3.13,0,0,1,3-2c3,0,4.24,2.58,4.24,7.11C1011.3,60.78,1009.07,62,1007.23,62Zm-1-11.76c-1.81,0-2.23,1.84-2.23,4.68,0,3.16.39,5,2.26,5,1.49,0,2.2-1.13,2.2-4.78C1008.5,52.13,1008.13,50.24,1006.27,50.24Z"/><path d="M1013.45,44h2.65v2.64h-2.65Zm0,4.51h2.65V61.66h-2.65Z"/><path d="M1018.77,48.48h2.64v2.05h.05a3.26,3.26,0,0,1,3.06-2.4,1.59,1.59,0,0,1,.64.1v2.7a3.47,3.47,0,0,0-1.1-.15c-1.2,0-2.65.54-2.65,3v7.89h-2.64Z"/><path d="M1028.61,55.41v.76c0,1.76.23,4,2.21,4s2.11-2.13,2.11-2.94h2.5c0,3-1.77,4.75-4.63,4.75-2.16,0-4.83-.63-4.83-6.74,0-3.45.76-7.13,4.87-7.13,3.68,0,4.66,2.23,4.66,5.88v1.4Zm4.24-1.81v-.71c0-1.67-.54-2.94-2-2.94-1.67,0-2.21,1.66-2.21,3.38v.27Z"/></g></svg>