<svg xmlns="http://www.w3.org/2000/svg" viewBox="0 0 1847.91 116"><title>ce0050text</title><g id="YEARS"><g id="Right"><path d="M1803.55,103.15h2.81v.49a2.35,2.35,0,0,0,2.42,2.6c2.08,0,2.62-2,2.62-4.18s-.57-3.93-2.47-3.93a2.36,2.36,0,0,0-2.42,1.69l-2.62-.1.91-9.65h8.86v2.37H1807l-.6,4.83,0,0a4.06,4.06,0,0,1,3.1-1.43c3.84,0,4.81,3.25,4.81,6.09,0,3.69-1.69,6.5-5.67,6.5-3.31,0-5.15-1.69-5.15-4.94Z" fill="#3b4351"/><path d="M1821.44,89.71c3.53,0,5.51,2.21,5.51,9.38s-2,9.39-5.51,9.39-5.52-2.21-5.52-9.39S1817.9,89.71,1821.44,89.71Zm0,16.69c2,0,2.54-2,2.54-7.31s-.54-7.3-2.54-7.3-2.55,2-2.55,7.3S1819.43,106.4,1821.44,106.4Z" fill="#3b4351"/></g><g id="left"><path d="M28.51,105.05h2.81v.5a2.35,2.35,0,0,0,2.42,2.6c2.08,0,2.63-2,2.63-4.19S35.79,100,33.9,100a2.34,2.34,0,0,0-2.42,1.69l-2.63-.11L29.76,92h8.87v2.36H32l-.6,4.84.06,0a4,4,0,0,1,3.09-1.43c3.85,0,4.81,3.25,4.81,6.08,0,3.7-1.69,6.5-5.67,6.5-3.3,0-5.15-1.68-5.15-4.93Z" fill="#3b4351"/><path d="M46.4,91.61c3.54,0,5.51,2.21,5.51,9.39s-2,9.38-5.51,9.38-5.51-2.21-5.51-9.38S42.87,91.61,46.4,91.61Zm0,16.69c2,0,2.55-2,2.55-7.3s-.55-7.31-2.55-7.31-2.55,2-2.55,7.31S44.4,108.3,46.4,108.3Z" fill="#3b4351"/></g></g><g id="Nation_OUtlines" data-name="Nation OUtlines"><polygon id="Romans" points="854.62 3373.83 829.93 3260.83 711.95 3151.83 764.62 3037.83 729.95 2922.83 845.28 2811.83 1002.62 2699.83 1065.29 2585.83 1021.28 2474.83 995.34 2357.83 815.28 2249.83 703.28 2138.83 687.28 2023.83 737.95 1909.83 780.62 1797.83 712.62 1686.83 645.95 1572.83 550.62 1459.83 491.95 1350 453.95 1237 455.29 1125 435.95 1010 470.62 902 322.62 902 416.12 789 480.12 679 410.62 567 316.95 453 248.28 338 210.28 227 175.95 116 159.62 0 91.28 -113 83.12 -218 117.62 -332 151.37 -446 129.62 -556 109.62 -671 99.62 -783 73.12 -893 75.42 -1791 85.95 -1681 95.28 -1569 111.95 -1457 116.62 -1346 137.95 -1233 149.95 -1117 169.95 -1005 205.28 -893 231.95 -783 287.74 -671 467.73 -556 683.72 -446 998.71 -332 1118.7 -218 1131.14 -113 1195.2 0 1182.62 116 1245.62 227 1220.62 338 1122.62 453 981.62 567 880.12 679 717.95 789 593.62 902 616.62 1010 717.28 1125 839.28 1239.84 863.28 1350 915.28 1459.83 810.62 1572.83 885.95 1686.83 1037.95 1797.83 1125.95 1909.83 1253.95 2023.83 1213.95 2138.83 1202.62 2249.83 1169.95 2357.83 1161.29 2474.83 1218.62 2585.83 1131.95 2699.83 936.62 2811.83 798.62 2922.83 819.28 3037.83 759.95 3151.83 849.28 3260.83 854.62 3373.83" fill="none" stroke="#3b4351" stroke-miterlimit="10"/><polygon id="Indians" points="1372.19 -2126.83 1294.19 -2241 1285.19 -2354 1313.69 -2465 1348.19 -2578 1310.69 -2692 1298.69 -2802 1313.69 -2914 1345.19 -3026 1325.69 -3140 1343.69 -3254 1417.19 -3365 1400.69 -3478.08 1429.19 -3591 1419.27 -3706.27 1387.19 -3818 1387.19 -3930 1438.19 -4040.5 1462.18 -4152.5 1480.18 -4265.54 1445.82 -4375.83 1411.11 -4487.83 1545.86 -4487.83 1580.1 -4375.83 1593.12 -4265.6 1552.12 -4152.5 1514.62 -4040.5 1514.12 -3930.33 1553.12 -3818.27 1548.12 -3706 1519.62 -3591 1534.12 -3477.33 1575.12 -3365 1559.62 -3254 1564.12 -3140.27 1534.62 -3026 1486.12 -2914 1465.12 -2802 1471.12 -2692.83 1502.12 -2578.83 1508.12 -2465 1534.62 -2354 1542.77 -2275.14 1555.62 -2126.83 1554.62 -2018 1567.12 -1906 1542.12 -1791.27 1498.12 -1681 1490.62 -1569 1513.12 -1457 1568.62 -1346 1544.12 -1233 1530.62 -1117.27 1523.62 -1005.27 1532.62 -893 1565.12 -783 1543.62 -671 1514.12 -556 1490.12 -446.27 1495.62 -332 1517.12 -218.33 1528.12 -113 1580.62 -0.33 1578.12 115.67 1578.12 226.17 1560.12 337.73 1526.62 453 1467.62 567 1381.62 678.73 1270.62 789 1090.12 901.73 860.62 1010 1302.12 1125 1377.03 1237 1550.62 1350 1519.62 1459.83 1476.12 1572.83 1516.13 1686.83 1534.62 1799.17 1552.65 1909.83 1585.62 2023.73 1620.12 2138.83 1650.12 2249.83 1630.62 2357.73 1622.45 2474.73 1565.62 2585.83 1402.62 2699.17 1173.62 2811.83 1148.62 2922.83 1334.62 3037.83 1283.62 3151.83 1344.62 3260.83 1544.62 3373.83 1602.62 3488.17 1627.62 3599.83 1674.62 3712.73 1627.62 3827.83 1634.62 3939.83 1686.62 4051.83 1701.62 4164.83 1620.12 4276.83 1606.12 4387.83 1606.12 4501.66 1552.62 4501.66 1549.52 4387.83 1569.62 4276.83 1683.62 4164.83 1667.62 4051.83 1607.62 3939.83 1596.62 3827.17 1617.62 3712.83 1584.62 3599.83 1562.62 3487.83 1507.62 3373.83 1304.62 3260.73 1225.62 3151.73 1236.97 3114.78 1264.87 3037.83 1082.62 2922.83 1084.2 2812.34 1323.62 2699.83 1500.47 2585.73 1573.62 2474.83 1600.62 2357.83 1604.62 2249.83 1569.62 2138.83 1514.62 2023.83 1447.62 1909.73 1418.62 1797.83 1404.62 1686.83 1367.62 1572.83 1397.62 1459.83 1418.62 1349.73 1339.62 1236.73 1246.62 1125 748.62 1010 753.62 902 910.76 789 1053.62 679 1195.2 567 1311.62 452.17 1353.62 338 1348.62 227 1364.62 115.17 1406.62 0 1401.62 -113 1429.62 -218 1394.62 -332.27 1393.2 -446 1391.82 -556.27 1437.52 -671 1513.62 -783.27 1505.64 -893 1472.62 -1004.83 1447.62 -1117 1440.63 -1233 1462.62 -1346 1391.1 -1457 1348.62 -1569 1332.62 -1681 1376.98 -1791 1375.34 -1906.27 1373.74 -2018.27 1372.19 -2126.83" fill="none" stroke="#3b4351" stroke-miterlimit="10"/><polygon id="Huns" points="1555.62 -2126.83 1545.73 -2241 1533.62 -2354.33 1506.68 -2464.36 1502.16 -2578 1471.34 -2692 1465.12 -2802 1486.12 -2914 1534.62 -3026 1564.05 -3140 1559.62 -3254 1575.12 -3365 1534.24 -3477 1519.62 -3591 1548.12 -3706 1553.11 -3818 1514.47 -3930.27 1514.62 -4042.5 1552.12 -4152.5 1593.12 -4265.16 1580.1 -4375.83 1545.86 -4487.83 1633.99 -4487.83 1651.62 -4375.83 1667.62 -4265.16 1646.62 -4152.5 1620.62 -4040.5 1630.4 -3932.4 1650.62 -3818.33 1676.62 -3706 1700.12 -3591 1689.12 -3477 1714.62 -3365.33 1697.12 -3254.27 1645.62 -3140.27 1616.12 -3026 1586.62 -2914.27 1538.12 -2802.27 1509.12 -2692 1551.62 -2578 1585.12 -2465 1608.62 -2354.33 1609.69 -2241.27 1610.76 -2128.27 1613.62 -2018.27 1625.12 -1906.27 1599.12 -1790.33 1557.59 -1681 1545.65 -1569 1558.62 -1457 1584.62 -1346.27 1571.12 -1232.83 1576.62 -1117 1567.62 -1005 1587.12 -893 1621.12 -783 1612.12 -671 1556.12 -556 1528.62 -446 1529.62 -332 1553.62 -218 1616.07 -113 1609.25 0 1592.66 116 1611.01 226.73 1612.12 338 1598.04 453 1564.12 567 1534.29 679 1602.12 788.73 1653.62 902 1673.62 1010 1666.12 1125 1668.12 1236.67 1625.62 1349.67 1542.12 1459.83 1476.12 1572.83 1519.62 1459.83 1550.62 1350 1376.62 1236.73 1302.12 1125 860.62 1010 1090.12 901.73 1270.62 789 1381.62 678.73 1467.62 567 1526.62 453 1560.12 337.73 1578.12 226.17 1578.12 115.67 1580.62 -0.33 1528.12 -113 1517.12 -218.33 1495.62 -332 1490.12 -446.27 1514.12 -556 1543.62 -671 1565.12 -783 1532.62 -893 1523.62 -1005.27 1530.62 -1117.27 1544.12 -1233 1568.62 -1346 1513.12 -1457 1490.62 -1569 1498.12 -1681 1542.12 -1791.27 1567.12 -1906 1554.62 -2018 1555.62 -2126.83" fill="none" stroke="#3b4351" stroke-miterlimit="10"/><polygon id="Chinese" points="1610.76 -2128.27 1609.69 -2241.27 1608.62 -2354.33 1585.12 -2465 1551.62 -2578 1509.12 -2692 1538.12 -2802.27 1586.62 -2914.27 1616.12 -3026 1645.62 -3140.27 1697.12 -3254.27 1714.62 -3365.33 1689.12 -3477 1700.12 -3591 1676.62 -3706 1650.62 -3818.33 1630.62 -3930 1620.62 -4040.5 1646.62 -4152.5 1667.62 -4265.16 1651.62 -4375.83 1633.99 -4487.83 1768.79 -4487.83 1768.79 3712.83 1768.79 3827.73 1766.12 3939.83 1757.62 4051.83 1736.12 4164.73 1676.12 4276.73 1661.12 4387.83 1663.62 4501.66 1606.12 4501.66 1606.12 4387.73 1620.12 4276.83 1701.62 4164.83 1696.12 4051.67 1654.12 3939.83 1681.62 3827.83 1739.62 3712.73 1748.62 3599.67 1744.12 3487.67 1685.62 3373.83 1615.12 3263.17 1636.12 3151.83 1738.62 3037.83 1761.12 2922.83 1758.62 2811.83 1732.12 2699.83 1695.62 2585.83 1667.62 2474.83 1651.12 2357.83 1650.12 2249.83 1620.12 2138.83 1585.62 2023.73 1552.62 1909.73 1535.12 1797.83 1516.12 1686.73 1476.12 1572.83 1542.12 1459.83 1625.62 1349.67 1668.12 1236.67 1666.12 1125 1673.62 1010 1653.62 902 1602.12 788.73 1534.12 678.73 1564.12 567 1598.12 452.73 1612.12 338 1611.01 226.73 1592.62 115.73 1609.25 0 1616.07 -113 1553.62 -218 1529.62 -332 1528.62 -446.27 1555.62 -556 1612.12 -671 1621.12 -783 1587.12 -893 1567.62 -1005 1576.62 -1117 1571.12 -1233 1584.62 -1346.27 1558.62 -1457 1545.62 -1569.27 1557.62 -1681.27 1599.62 -1791 1625.12 -1906.27 1613.62 -2018.27 1610.76 -2128.27" fill="none" stroke="#3b4351" stroke-miterlimit="10"/><polygon id="Teutons_-Goths" data-name="Teutons -Goths" points="712.62 1686.83 392.87 1572.83 333.12 1459.83 298.12 1350 257.62 1237 192.12 1125 189.69 1010 168.12 902 138.62 791.41 101.12 679 73.12 569.67 73.12 -893 99.62 -783 109.62 -671 129.3 -553.61 151.37 -446 117.62 -332 83.12 -218 91.28 -113 159.62 0 175.95 116 210.28 227 248.28 338 316.95 453 410.62 567 480.12 679 416.12 789 322.62 902 328.12 1010 455.29 1125 453.95 1237 425.12 1350 461.12 1459.83 536.62 1572.83 712.62 1686.83" fill="none" stroke="#3b4351" stroke-miterlimit="10"/><polygon id="Parthian_empire" data-name="Parthian empire" points="1245.62 227 1182.62 116 1195.2 -2.69 1157.7 -113 1189.62 -217.33 1218.62 -332 1333.62 -442.4 1341.62 -332 1363.19 -218 1401.62 -113 1406.62 0 1364.62 115.17 1348.62 227 1353.62 338 1311.62 452.17 1220.62 338 1245.62 227" fill="none" stroke="#3b4351" stroke-miterlimit="10"/></g><g id="Text"><g id="Romans-2" data-name="Romans"><path d="M230.42,27.44v.86c0,1.42.3,2.65,1.86,2.65,1.87,0,1.87-1.72,1.87-3.48V15.21h2.79V27.88c0,3.88-1.91,5.18-4.7,5.18-3.61,0-4.39-2.21-4.46-4.49V27.44Z" fill="#3b4351"/><path d="M241.81,26.46v.76c0,1.77.22,4,2.21,4s2.11-2.13,2.11-2.94h2.5c0,3-1.77,4.76-4.63,4.76-2.16,0-4.83-.64-4.83-6.74,0-3.46.76-7.13,4.87-7.13,3.68,0,4.66,2.23,4.66,5.88v1.39Zm4.24-1.81v-.71c0-1.67-.54-2.94-2-2.94-1.67,0-2.21,1.67-2.21,3.38v.27Z" fill="#3b4351"/><path d="M256.56,23.38V23c0-1.05-.36-2-1.74-2-1,0-1.88.46-1.88,1.71,0,1.06.46,1.45,1.86,1.94l1.69.59c2,.66,2.87,1.71,2.87,3.8,0,2.81-2.09,4-4.73,4-3.34,0-4.34-1.55-4.34-4.1v-.49h2.35v.42c0,1.54.52,2.35,2.06,2.35s2.16-.73,2.16-1.93a1.91,1.91,0,0,0-1.45-1.94l-2.15-.76c-2-.66-2.82-1.69-2.82-3.8,0-2.47,1.76-3.62,4.51-3.62,3.35,0,4.11,2,4.11,3.6v.59Z" fill="#3b4351"/><path d="M268.05,31.17H268a3.79,3.79,0,0,1-3.38,1.89c-2,0-3.28-.91-3.28-4.32V19.53H264V29c0,1.47.64,2,1.79,2a2.06,2.06,0,0,0,2.16-2.21V19.53h2.64V32.71h-2.5Z" fill="#3b4351"/><path d="M278.78,23.38V23c0-1.05-.36-2-1.74-2-1.05,0-1.88.46-1.88,1.71,0,1.06.46,1.45,1.86,1.94l1.69.59c2,.66,2.87,1.71,2.87,3.8,0,2.81-2.08,4-4.73,4-3.33,0-4.34-1.55-4.34-4.1v-.49h2.35v.42c0,1.54.52,2.35,2.06,2.35s2.16-.73,2.16-1.93a1.91,1.91,0,0,0-1.45-1.94l-2.15-.76c-2-.66-2.82-1.69-2.82-3.8,0-2.47,1.76-3.62,4.51-3.62,3.35,0,4.11,2,4.11,3.6v.59Z" fill="#3b4351"/><path d="M288.9,26.12c0-4.12,1.08-6.93,4.9-6.93s4.93,2.81,4.93,6.93-1.28,6.94-4.93,6.94S288.9,30.24,288.9,26.12Zm4.9,5c1.94,0,2.28-1.61,2.28-5,0-2.92-.34-5-2.28-5s-2.25,2.05-2.25,5C291.55,29.48,291.92,31.09,293.8,31.09Z" fill="#3b4351"/><path d="M301.57,21.49h-1.84v-2h1.84V18.3c0-2.47,1.2-3.28,3.36-3.28a11.83,11.83,0,0,1,1.44.07v2h-.73c-1,0-1.43.36-1.43,1.25v1.15h2.16v2h-2.16V32.71h-2.64Z" fill="#3b4351"/><path d="M313.62,15.21H317l5.07,13h0v-13h2.65v17.5h-3.41l-5.07-13.38h-.05V32.71h-2.65Z" fill="#3b4351"/><path d="M336.16,30c0,.49.3.93.69.93a1.18,1.18,0,0,0,.44-.07v1.71a2.83,2.83,0,0,1-1.3.32c-1.17,0-2.15-.47-2.23-1.74h-.05a3.4,3.4,0,0,1-3.28,1.94c-2.13,0-3.43-1.16-3.43-3.7,0-2.95,1.3-3.56,3.06-4.15l2.06-.56c1-.27,1.54-.54,1.54-1.69s-.41-2-1.81-2c-1.76,0-2,1.25-2,2.52h-2.5c0-2.81,1.15-4.33,4.63-4.33,2.33,0,4.19.9,4.19,3.23Zm-2.5-4.22A20,20,0,0,1,330.72,27a2.17,2.17,0,0,0-1.08,2.13c0,1.1.54,2,1.65,2,1.59,0,2.37-1.17,2.37-3.13Z" fill="#3b4351"/><path d="M338.19,30.65,344,21.76h-5.41V19.53h8.4v2.18l-5.54,8.77h5.54v2.23h-8.75Z" fill="#3b4351"/><path d="M357.48,30c0,.49.29.93.68.93a1.24,1.24,0,0,0,.45-.07v1.71a2.86,2.86,0,0,1-1.3.32c-1.18,0-2.16-.47-2.23-1.74H355a3.41,3.41,0,0,1-3.29,1.94c-2.13,0-3.43-1.16-3.43-3.7,0-2.95,1.3-3.56,3.07-4.15l2.05-.56c1-.27,1.55-.54,1.55-1.69s-.42-2-1.82-2c-1.76,0-2,1.25-2,2.52h-2.5c0-2.81,1.15-4.33,4.63-4.33,2.33,0,4.19.9,4.19,3.23ZM355,25.75A20.5,20.5,0,0,1,352,27,2.17,2.17,0,0,0,351,29.11c0,1.1.54,2,1.64,2,1.59,0,2.38-1.17,2.38-3.13Z" fill="#3b4351"/><path d="M360.17,19.53h2.65v2.06h.05a3.24,3.24,0,0,1,3.06-2.4,1.61,1.61,0,0,1,.64.09V22a3.87,3.87,0,0,0-1.11-.15c-1.2,0-2.64.54-2.64,3v7.89h-2.65Z" fill="#3b4351"/><path d="M370,26.46v.76c0,1.77.22,4,2.21,4s2.1-2.13,2.1-2.94h2.5c0,3-1.76,4.76-4.63,4.76-2.16,0-4.83-.64-4.83-6.74,0-3.46.76-7.13,4.88-7.13,3.68,0,4.66,2.23,4.66,5.88v1.39Zm4.24-1.81v-.71c0-1.67-.54-2.94-2-2.94-1.67,0-2.21,1.67-2.21,3.38v.27Z" fill="#3b4351"/><path d="M377.91,19.53h1.81V15.78h2.65v3.75h2.15v2h-2.15v7.87c0,1.05.29,1.39,1.2,1.39a4.91,4.91,0,0,0,.95-.07v2a8.44,8.44,0,0,1-2.13.22c-1.76,0-2.67-.52-2.67-3.19V21.49h-1.81Z" fill="#3b4351"/><path d="M385.9,15.21h2.64V21l.08.05a3.74,3.74,0,0,1,3.23-1.81c2,0,3.28.9,3.28,3.57v10h-2.64v-9c0-1.74-.49-2.38-1.84-2.38-1.08,0-2.11.84-2.11,2.58v8.84H385.9Z" fill="#3b4351"/><path d="M732.57,98.44v.37c0,3.16-1.3,6.25-5.39,6.25-4.41,0-5.78-2.85-5.78-9.1s1.37-9.09,5.81-9.09c5,0,5.26,3.65,5.26,5.49v.32h-2.79v-.29c0-1.65-.49-3.48-2.5-3.41s-3,1.27-3,6.91.91,7.06,3,7.06c2.35,0,2.6-2.58,2.6-4.22v-.29Z" fill="#3b4351"/><path d="M734.36,87.21H737V93l.08,0a3.76,3.76,0,0,1,3.23-1.81c2,0,3.29.9,3.29,3.57v9.95H741v-9c0-1.74-.49-2.38-1.84-2.38-1.08,0-2.11.84-2.11,2.58v8.84h-2.64Z" fill="#3b4351"/><path d="M746.14,91.53h2.65v2.06h.05a3.26,3.26,0,0,1,3.06-2.4,1.61,1.61,0,0,1,.64.09V94a3.84,3.84,0,0,0-1.1-.15c-1.21,0-2.65.54-2.65,3v7.89h-2.65Z" fill="#3b4351"/><path d="M754,87h2.65v2.65H754Zm0,4.51h2.65v13.18H754Z" fill="#3b4351"/><path d="M765,95.38V95c0-1-.36-2-1.74-2-1,0-1.88.46-1.88,1.71,0,1.06.46,1.45,1.86,1.94l1.69.59c2,.66,2.87,1.71,2.87,3.8,0,2.81-2.09,4-4.73,4-3.34,0-4.34-1.55-4.34-4.1v-.49h2.35v.42c0,1.54.52,2.35,2.06,2.35s2.16-.73,2.16-1.93a1.91,1.91,0,0,0-1.45-1.94l-2.15-.76c-2-.66-2.82-1.69-2.82-3.8,0-2.47,1.76-3.62,4.51-3.62,3.35,0,4.11,2,4.11,3.6v.59Z" fill="#3b4351"/><path d="M768.56,91.53h1.81V87.78H773v3.75h2.16v2H773v7.87c0,1,.29,1.39,1.2,1.39a5.1,5.1,0,0,0,1-.07v2a8.58,8.58,0,0,1-2.14.22c-1.76,0-2.67-.52-2.67-3.19V93.49h-1.81Z" fill="#3b4351"/><path d="M776.67,87h2.65v2.65h-2.65Zm0,4.51h2.65v13.18h-2.65Z" fill="#3b4351"/><path d="M790.64,102c0,.49.29.93.68.93a1.18,1.18,0,0,0,.44-.07v1.71a2.83,2.83,0,0,1-1.3.32c-1.17,0-2.15-.47-2.23-1.74h-.05a3.4,3.4,0,0,1-3.28,1.94c-2.13,0-3.43-1.16-3.43-3.7,0-3,1.3-3.56,3.06-4.15l2.06-.56c1-.27,1.55-.54,1.55-1.69s-.42-2-1.82-2c-1.76,0-2,1.25-2,2.52h-2.5c0-2.81,1.15-4.33,4.63-4.33,2.33,0,4.2.9,4.2,3.23Zm-2.5-4.22A20.62,20.62,0,0,1,785.19,99a2.18,2.18,0,0,0-1.07,2.13c0,1.1.54,2,1.64,2,1.59,0,2.38-1.17,2.38-3.13Z" fill="#3b4351"/><path d="M793.33,91.53h2.5v1.54h.07a3.78,3.78,0,0,1,3.38-1.88c2,0,3.29.9,3.29,3.57v9.95h-2.65v-9c0-1.76-.47-2.38-1.84-2.38-1.08,0-2.11.81-2.11,2.58v8.84h-2.64Z" fill="#3b4351"/><path d="M821.92,98.44v.37c0,3.16-1.3,6.25-5.39,6.25-4.41,0-5.78-2.85-5.78-9.1s1.37-9.09,5.8-9.09c5,0,5.27,3.65,5.27,5.49v.32H819v-.29c0-1.65-.49-3.48-2.5-3.41s-3,1.27-3,6.91.91,7.06,3,7.06c2.35,0,2.6-2.58,2.6-4.22v-.29Z" fill="#3b4351"/><path d="M823.71,87.21h2.64V93l.08,0a3.76,3.76,0,0,1,3.23-1.81c2,0,3.29.9,3.29,3.57v9.95H830.3v-9c0-1.74-.49-2.38-1.84-2.38-1.08,0-2.11.84-2.11,2.58v8.84h-2.64Z" fill="#3b4351"/><path d="M842.23,103.17h-.07a3.79,3.79,0,0,1-3.38,1.89c-2,0-3.29-.91-3.29-4.32V91.53h2.65V101c0,1.47.64,2,1.79,2a2.06,2.06,0,0,0,2.15-2.21V91.53h2.65v13.18h-2.5Z" fill="#3b4351"/><path d="M847.28,91.53h2.64v2.06H850a3.26,3.26,0,0,1,3.06-2.4,1.61,1.61,0,0,1,.64.09V94a3.78,3.78,0,0,0-1.1-.15c-1.2,0-2.65.54-2.65,3v7.89h-2.64Z" fill="#3b4351"/><path d="M863.74,99.91c-.19,3.16-1.22,5.15-4.51,5.15-3.82,0-4.9-2.82-4.9-6.94s1.08-6.93,4.9-6.93,4.54,3.11,4.54,4.73h-2.65c0-1.23-.32-2.85-1.89-2.77-1.88,0-2.25,2-2.25,5s.37,5,2.25,5c1.47,0,2-1.2,2-3.18Z" fill="#3b4351"/><path d="M865.58,87.21h2.64V93l.08,0a3.76,3.76,0,0,1,3.23-1.81c2,0,3.28.9,3.28,3.57v9.95h-2.64v-9c0-1.74-.49-2.38-1.84-2.38-1.08,0-2.11.84-2.11,2.58v8.84h-2.64Z" fill="#3b4351"/><path d="M900.16,44.16h6.18c2.45,0,4.43,1.25,4.43,4.51,0,2.26-1,4-2.91,4.29v0c1.76.17,2.64,1.13,2.74,3.58,0,1.15,0,2.5.1,3.55a1.92,1.92,0,0,0,.83,1.52h-3.16a2.93,2.93,0,0,1-.46-1.54c0-.52-.08-1.06-.08-1.57s0-1.1-.05-1.74c-.07-1.91-.66-2.75-2.54-2.75H903v7.6h-2.8Zm5,7.8A2.58,2.58,0,0,0,908,49.11c0-1.86-.78-2.84-2.65-2.84H903V52Z" fill="#3b4351"/><path d="M912.63,55.07c0-4.12,1.08-6.94,4.9-6.94s4.93,2.82,4.93,6.94S921.19,62,917.53,62,912.63,59.18,912.63,55.07Zm4.9,5c1.94,0,2.28-1.62,2.28-5,0-2.92-.34-5-2.28-5s-2.25,2.06-2.25,5C915.28,58.42,915.65,60,917.53,60Z" fill="#3b4351"/><path d="M924.61,48.48h2.5V50h.08a3.68,3.68,0,0,1,3.16-1.89,2.86,2.86,0,0,1,3.06,2,3.61,3.61,0,0,1,3.33-2c1.87,0,3.21,1,3.21,3.51v10h-2.64v-9c0-1.74-.52-2.38-1.59-2.38s-2.11.83-2.11,2.57v8.85H931v-9c0-1.74-.51-2.38-1.62-2.38s-2.08.86-2.08,2.57v8.85h-2.65Z" fill="#3b4351"/><path d="M951.27,58.92c0,.49.3.93.69.93a1,1,0,0,0,.44-.08v1.72a2.83,2.83,0,0,1-1.3.32c-1.18,0-2.16-.47-2.23-1.74h0A3.39,3.39,0,0,1,945.54,62c-2.13,0-3.43-1.15-3.43-3.7,0-2.94,1.3-3.55,3.06-4.14l2.06-.56c.95-.27,1.54-.54,1.54-1.69s-.41-2-1.81-2c-1.77,0-2,1.25-2,2.52h-2.5c0-2.82,1.15-4.34,4.63-4.34,2.33,0,4.19.91,4.19,3.24Zm-2.5-4.22a21.19,21.19,0,0,1-2.94,1.23,2.16,2.16,0,0,0-1.08,2.13c0,1.1.54,2,1.65,2,1.59,0,2.37-1.17,2.37-3.13Z" fill="#3b4351"/><path d="M954,48.48h2.5V50h.08a3.77,3.77,0,0,1,3.38-1.89c2,0,3.28.91,3.28,3.58v9.95h-2.64v-9c0-1.77-.47-2.38-1.84-2.38-1.08,0-2.11.81-2.11,2.57v8.85H954Z" fill="#3b4351"/><path d="M971.8,44.16h9.46v2.36h-6.67v4.85h6.28v2.35h-6.28v5.59h6.87v2.35H971.8Z" fill="#3b4351"/><path d="M983.54,48.48H986V50h.08a3.68,3.68,0,0,1,3.16-1.89,2.86,2.86,0,0,1,3.06,2,3.61,3.61,0,0,1,3.34-2c1.86,0,3.21,1,3.21,3.51v10h-2.65v-9c0-1.74-.52-2.38-1.59-2.38s-2.11.83-2.11,2.57v8.85h-2.65v-9c0-1.74-.51-2.38-1.61-2.38s-2.09.86-2.09,2.57v8.85h-2.64Z" fill="#3b4351"/><path d="M1007.23,62a3,3,0,0,1-3-1.88h0V66h-2.65V48.48h2.5v1.61h.05a3.13,3.13,0,0,1,3-2c3,0,4.24,2.58,4.24,7.11C1011.3,60.78,1009.07,62,1007.23,62Zm-1-11.76c-1.81,0-2.23,1.84-2.23,4.68,0,3.16.39,5,2.26,5,1.49,0,2.2-1.13,2.2-4.78C1008.5,52.13,1008.13,50.24,1006.27,50.24Z" fill="#3b4351"/><path d="M1013.45,44h2.65v2.64h-2.65Zm0,4.51h2.65V61.66h-2.65Z" fill="#3b4351"/><path d="M1018.77,48.48h2.64v2.05h.05a3.26,3.26,0,0,1,3.06-2.4,1.59,1.59,0,0,1,.64.1v2.7a3.47,3.47,0,0,0-1.1-.15c-1.2,0-2.65.54-2.65,3v7.89h-2.64Z" fill="#3b4351"/><path d="M1028.61,55.41v.76c0,1.76.23,4,2.21,4s2.11-2.13,2.11-2.94h2.5c0,3-1.77,4.75-4.63,4.75-2.16,0-4.83-.63-4.83-6.74,0-3.45.76-7.13,4.87-7.13,3.68,0,4.66,2.23,4.66,5.88v1.4Zm4.24-1.81v-.71c0-1.67-.54-2.94-2-2.94-1.67,0-2.21,1.66-2.21,3.38v.27Z" fill="#3b4351"/></g></g></svg>