<svg xmlns="http://www.w3.org/2000/svg" viewBox="0 0 1847.91 111"><title>ce0150text</title><g id="YEARS"><g id="Right"><path d="M1798.74,106.09V92.73h-3.82V90.81h.28c1.77,0,3.8-.45,4.35-2.76v-.36h2.15v18.4Z" fill="#3b4351"/><path d="M1806.67,101.13h2.81v.49a2.35,2.35,0,0,0,2.41,2.6c2.09,0,2.63-2,2.63-4.18s-.57-3.93-2.47-3.93a2.36,2.36,0,0,0-2.42,1.69l-2.62-.1.91-9.65h8.86v2.37h-6.65l-.6,4.83,0,0a4.06,4.06,0,0,1,3.09-1.43c3.85,0,4.81,3.25,4.81,6.09,0,3.69-1.69,6.5-5.66,6.5-3.31,0-5.15-1.69-5.15-4.94Z" fill="#3b4351"/><path d="M1824.56,87.69c3.53,0,5.51,2.21,5.51,9.38s-2,9.39-5.51,9.39-5.52-2.21-5.52-9.39S1821,87.69,1824.56,87.69Zm0,16.69c2,0,2.54-2,2.54-7.31s-.54-7.3-2.54-7.3-2.55,2-2.55,7.3S1822.55,104.38,1824.56,104.38Z" fill="#3b4351"/></g><g id="left"><path d="M23.7,108V94.64H19.88V92.71h.29c1.77,0,3.79-.44,4.34-2.75v-.37h2.16V108Z" fill="#3b4351"/><path d="M31.63,103h2.81v.49a2.35,2.35,0,0,0,2.42,2.6c2.08,0,2.63-2,2.63-4.19S38.91,98,37,98a2.34,2.34,0,0,0-2.42,1.69L32,99.6,32.88,90h8.87v2.36H35.09l-.6,4.84.06,0a4,4,0,0,1,3.09-1.43c3.85,0,4.81,3.25,4.81,6.09,0,3.69-1.69,6.5-5.67,6.5-3.3,0-5.15-1.69-5.15-4.94Z" fill="#3b4351"/><path d="M49.52,89.59C53.06,89.59,55,91.8,55,99s-2,9.39-5.51,9.39S44,106.16,44,99,46,89.59,49.52,89.59Zm0,16.7c2,0,2.55-2,2.55-7.31s-.55-7.31-2.55-7.31S47,93.65,47,99,47.52,106.29,49.52,106.29Z" fill="#3b4351"/></g></g><g id="Nation_OUtlines" data-name="Nation OUtlines"><polygon id="Romans" points="854.62 3146.83 829.93 3033.83 711.95 2924.83 764.62 2810.83 729.95 2695.83 845.28 2584.83 1002.62 2472.83 1065.29 2358.83 1021.28 2247.83 995.34 2130.83 815.28 2022.83 703.28 1911.83 687.28 1796.83 737.95 1682.83 780.62 1570.83 712.62 1459.83 645.95 1345.83 550.62 1232.83 491.95 1123 453.95 1010 455.29 898 435.95 783 470.62 675 322.62 675 416.12 562 480.12 452 410.62 340 316.95 226 248.28 111 210.28 0 175.95 -111 159.62 -227 91.28 -340 83.12 -445 117.62 -559 151.37 -673 129.62 -783 109.62 -898 99.62 -1010 73.12 -1120 75.42 -2018 85.95 -1908 95.28 -1796 111.95 -1684 116.62 -1573 137.95 -1460 149.95 -1344 169.95 -1232 205.28 -1120 231.95 -1010 287.74 -898 467.73 -783 683.72 -673 998.71 -559 1118.7 -445 1131.14 -340 1195.2 -227 1182.62 -111 1245.62 0 1220.62 111 1122.62 226 981.62 340 880.12 452 717.95 562 593.62 675 616.62 783 717.28 898 839.28 1012.84 863.28 1123 915.28 1232.83 810.62 1345.83 885.95 1459.83 1037.95 1570.83 1125.95 1682.83 1253.95 1796.83 1213.95 1911.83 1202.62 2022.83 1169.95 2130.83 1161.29 2247.83 1218.62 2358.83 1131.95 2472.83 936.62 2584.83 798.62 2695.83 819.28 2810.83 759.95 2924.83 849.28 3033.83 854.62 3146.83" fill="none" stroke="#3b4351" stroke-miterlimit="10"/><polygon id="Indians" points="1372.19 -2353.83 1294.19 -2468 1285.19 -2581 1313.69 -2692 1348.19 -2805 1310.69 -2919 1298.69 -3029 1313.69 -3141 1345.19 -3253 1325.69 -3367 1343.69 -3481 1417.19 -3592 1400.69 -3705.08 1429.19 -3818 1419.27 -3933.27 1387.19 -4045 1387.19 -4157 1438.19 -4267.5 1462.18 -4379.5 1480.18 -4492.54 1445.82 -4602.83 1411.11 -4714.83 1545.86 -4714.83 1580.1 -4602.83 1593.12 -4492.6 1552.12 -4379.5 1514.62 -4267.5 1514.12 -4157.33 1553.12 -4045.27 1548.12 -3933 1519.62 -3818 1534.12 -3704.33 1575.12 -3592 1559.62 -3481 1564.12 -3367.27 1534.62 -3253 1486.12 -3141 1465.12 -3029 1471.12 -2919.83 1502.12 -2805.83 1508.12 -2692 1534.62 -2581 1542.77 -2502.14 1555.62 -2353.83 1554.62 -2245 1567.12 -2133 1542.12 -2018.27 1498.12 -1908 1490.62 -1796 1513.12 -1684 1568.62 -1573 1544.12 -1460 1530.62 -1344.27 1523.62 -1232.27 1532.62 -1120 1565.12 -1010 1543.62 -898 1514.12 -783 1490.12 -673.27 1495.62 -559 1517.12 -445.33 1528.12 -340 1580.62 -227.33 1578.12 -111.33 1578.12 -0.83 1560.12 110.73 1526.62 226 1467.62 340 1381.62 451.73 1270.62 562 1090.12 674.73 860.62 783 1302.12 898 1377.03 1010 1550.62 1123 1519.62 1232.83 1476.12 1345.83 1516.13 1459.83 1534.62 1572.17 1552.65 1682.83 1585.62 1796.73 1620.12 1911.83 1650.12 2022.83 1630.62 2130.73 1622.45 2247.73 1565.62 2358.83 1402.62 2472.17 1173.62 2584.83 1148.62 2695.83 1334.62 2810.83 1283.62 2924.83 1344.62 3033.83 1544.62 3146.83 1602.62 3261.17 1627.62 3372.83 1674.62 3485.73 1627.62 3600.83 1634.62 3712.83 1686.62 3824.83 1701.62 3937.83 1620.12 4049.83 1606.12 4160.83 1606.12 4274.66 1552.62 4274.66 1549.52 4160.83 1569.62 4049.83 1683.62 3937.83 1667.62 3824.83 1607.62 3712.83 1596.62 3600.17 1617.62 3485.83 1584.62 3372.83 1562.62 3260.83 1507.62 3146.83 1304.62 3033.73 1225.62 2924.73 1236.97 2887.78 1264.87 2810.83 1082.62 2695.83 1084.2 2585.34 1323.62 2472.83 1500.47 2358.73 1573.62 2247.83 1600.62 2130.83 1604.62 2022.83 1569.62 1911.83 1514.62 1796.83 1447.62 1682.73 1418.62 1570.83 1404.62 1459.83 1367.62 1345.83 1397.62 1232.83 1418.62 1122.73 1339.62 1009.73 1246.62 898 748.62 783 753.62 675 910.76 562 1053.62 452 1195.2 340 1311.62 225.17 1353.62 111 1348.62 0 1364.62 -111.83 1406.62 -227 1401.62 -340 1429.62 -445 1394.62 -559.27 1393.2 -673 1391.82 -783.27 1437.52 -898 1513.62 -1010.27 1505.64 -1120 1472.62 -1231.83 1447.62 -1344 1440.63 -1460 1462.62 -1573 1391.1 -1684 1348.62 -1796 1332.62 -1908 1376.98 -2018 1375.34 -2133.27 1373.74 -2245.27 1372.19 -2353.83" fill="none" stroke="#3b4351" stroke-miterlimit="10"/><polygon id="Huns" points="1555.62 -2353.83 1545.73 -2468 1533.62 -2581.33 1506.68 -2691.36 1502.16 -2805 1471.34 -2919 1465.12 -3029 1486.12 -3141 1534.62 -3253 1564.05 -3367 1559.62 -3481 1575.12 -3592 1534.24 -3704 1519.62 -3818 1548.12 -3933 1553.11 -4045 1514.47 -4157.27 1514.62 -4269.5 1552.12 -4379.5 1593.12 -4492.16 1580.1 -4602.83 1545.86 -4714.83 1633.99 -4714.83 1651.62 -4602.83 1667.62 -4492.16 1646.62 -4379.5 1620.62 -4267.5 1630.4 -4159.4 1650.62 -4045.33 1676.62 -3933 1700.12 -3818 1689.12 -3704 1714.62 -3592.33 1697.12 -3481.27 1645.62 -3367.27 1616.12 -3253 1586.62 -3141.27 1538.12 -3029.27 1509.12 -2919 1551.62 -2805 1585.12 -2692 1608.62 -2581.33 1609.69 -2468.27 1610.76 -2355.27 1613.62 -2245.27 1625.12 -2133.27 1599.12 -2017.33 1557.59 -1908 1545.65 -1796 1558.62 -1684 1584.62 -1573.27 1571.12 -1459.83 1576.62 -1344 1567.62 -1232 1587.12 -1120 1621.12 -1010 1612.12 -898 1556.12 -783 1528.62 -673 1529.62 -559 1553.62 -445 1616.07 -340 1609.25 -227 1592.66 -111 1611.01 -0.27 1612.12 111 1598.04 226 1564.12 340 1534.29 452 1602.12 561.73 1653.62 675 1673.62 783 1666.12 898 1668.12 1009.67 1625.62 1122.67 1542.12 1232.83 1476.12 1345.83 1519.62 1232.83 1550.62 1123 1376.62 1009.73 1302.12 898 860.62 783 1090.12 674.73 1270.62 562 1381.62 451.73 1467.62 340 1526.62 226 1560.12 110.73 1578.12 -0.83 1578.12 -111.33 1580.62 -227.33 1528.12 -340 1517.12 -445.33 1495.62 -559 1490.12 -673.27 1514.12 -783 1543.62 -898 1565.12 -1010 1532.62 -1120 1523.62 -1232.27 1530.62 -1344.27 1544.12 -1460 1568.62 -1573 1513.12 -1684 1490.62 -1796 1498.12 -1908 1542.12 -2018.27 1567.12 -2133 1554.62 -2245 1555.62 -2353.83" fill="none" stroke="#3b4351" stroke-miterlimit="10"/><polygon id="Chinese" points="1610.76 -2355.27 1609.69 -2468.27 1608.62 -2581.33 1585.12 -2692 1551.62 -2805 1509.12 -2919 1538.12 -3029.27 1586.62 -3141.27 1616.12 -3253 1645.62 -3367.27 1697.12 -3481.27 1714.62 -3592.33 1689.12 -3704 1700.12 -3818 1676.62 -3933 1650.62 -4045.33 1630.62 -4157 1620.62 -4267.5 1646.62 -4379.5 1667.62 -4492.16 1651.62 -4602.83 1633.99 -4714.83 1768.79 -4714.83 1768.79 3485.83 1768.79 3600.73 1766.12 3712.83 1757.62 3824.83 1736.12 3937.73 1676.12 4049.73 1661.12 4160.83 1663.62 4274.66 1606.12 4274.66 1606.12 4160.73 1620.12 4049.83 1701.62 3937.83 1696.12 3824.67 1654.12 3712.83 1681.62 3600.83 1739.62 3485.73 1748.62 3372.67 1744.12 3260.67 1685.62 3146.83 1615.12 3036.17 1636.12 2924.83 1738.62 2810.83 1761.12 2695.83 1758.62 2584.83 1732.12 2472.83 1695.62 2358.83 1667.62 2247.83 1651.12 2130.83 1650.12 2022.83 1620.12 1911.83 1585.62 1796.73 1552.62 1682.73 1535.12 1570.83 1516.12 1459.73 1476.12 1345.83 1542.12 1232.83 1625.62 1122.67 1668.12 1009.67 1666.12 898 1673.62 783 1653.62 675 1602.12 561.73 1534.12 451.73 1564.12 340 1598.12 225.73 1612.12 111 1611.01 -0.27 1592.62 -111.27 1609.25 -227 1616.07 -340 1553.62 -445 1529.62 -559 1528.62 -673.27 1555.62 -783 1612.12 -898 1621.12 -1010 1587.12 -1120 1567.62 -1232 1576.62 -1344 1571.12 -1460 1584.62 -1573.27 1558.62 -1684 1545.62 -1796.27 1557.62 -1908.27 1599.62 -2018 1625.12 -2133.27 1613.62 -2245.27 1610.76 -2355.27" fill="none" stroke="#3b4351" stroke-miterlimit="10"/><polygon id="Teutons_-Goths" data-name="Teutons -Goths" points="712.62 1459.83 392.87 1345.83 333.12 1232.83 298.12 1123 257.62 1010 192.12 898 189.69 783 168.12 675 138.62 564.41 101.12 452 73.12 342.67 73.12 -1120 99.62 -1010 109.62 -898 129.3 -780.61 151.37 -673 117.62 -559 83.12 -445 91.28 -340 159.62 -227 175.95 -111 210.28 0 248.28 111 316.95 226 410.62 340 480.12 452 416.12 562 322.62 675 328.12 783 455.29 898 453.95 1010 425.12 1123 461.12 1232.83 536.62 1345.83 712.62 1459.83" fill="none" stroke="#3b4351" stroke-miterlimit="10"/><polygon id="Parthian_empire" data-name="Parthian empire" points="1245.62 0 1182.62 -111 1195.2 -229.69 1157.7 -340 1189.62 -444.33 1218.62 -559 1333.62 -669.4 1341.62 -559 1363.19 -445 1401.62 -340 1406.62 -227 1364.62 -111.83 1348.62 0 1353.62 111 1311.62 225.17 1220.62 111 1245.62 0" fill="none" stroke="#3b4351" stroke-miterlimit="10"/><polygon id="Moslem_Arabs_and_Persian" data-name="Moslem Arabs and Persian" points="717.95 562 880.12 452 981.62 340 1122.62 226 1220.62 111 1311.62 225.17 1195.2 340 1053.62 452 910.76 562 753.62 675 593.62 675 717.95 562" fill="none" stroke="#3b4351" stroke-miterlimit="10"/></g><g id="Text"><g id="Romans-2" data-name="Romans"><path d="M632.16,43.88h6.18c2.45,0,4.43,1.25,4.43,4.51,0,2.26-1,4-2.91,4.29v0c1.76.17,2.64,1.13,2.74,3.58,0,1.15,0,2.5.1,3.55a1.92,1.92,0,0,0,.83,1.52h-3.16a2.94,2.94,0,0,1-.46-1.55c0-.51-.08-1-.08-1.56s0-1.11-.05-1.74c-.07-1.91-.66-2.75-2.54-2.75H635v7.6h-2.8Zm5,7.79A2.57,2.57,0,0,0,640,48.83C640,47,639.2,46,637.33,46H635v5.68Z" fill="#3b4351"/><path d="M644.63,54.79c0-4.12,1.08-6.94,4.9-6.94s4.93,2.82,4.93,6.94-1.27,6.93-4.93,6.93S644.63,58.9,644.63,54.79Zm4.9,5c1.94,0,2.28-1.62,2.28-5,0-2.92-.34-5-2.28-5s-2.25,2.06-2.25,5C647.28,58.14,647.65,59.76,649.53,59.76Z" fill="#3b4351"/><path d="M656.61,48.2h2.5v1.54h.08a3.68,3.68,0,0,1,3.16-1.89,2.86,2.86,0,0,1,3.06,2,3.61,3.61,0,0,1,3.33-2c1.87,0,3.21,1,3.21,3.51v10h-2.64v-9c0-1.74-.52-2.38-1.59-2.38s-2.11.83-2.11,2.57v8.85H663v-9c0-1.74-.51-2.38-1.62-2.38s-2.08.86-2.08,2.57v8.85h-2.65Z" fill="#3b4351"/><path d="M683.27,58.63c0,.49.3.94.69.94a1,1,0,0,0,.44-.08v1.72a2.83,2.83,0,0,1-1.3.32c-1.18,0-2.16-.47-2.23-1.74h0a3.41,3.41,0,0,1-3.28,1.93c-2.13,0-3.43-1.15-3.43-3.7,0-2.94,1.3-3.55,3.06-4.14l2.06-.56c.95-.27,1.54-.54,1.54-1.69s-.41-2-1.81-2c-1.77,0-2,1.25-2,2.52h-2.5c0-2.82,1.15-4.34,4.63-4.34,2.33,0,4.19.91,4.19,3.24Zm-2.5-4.21a20,20,0,0,1-2.94,1.22,2.18,2.18,0,0,0-1.08,2.14c0,1.1.54,2,1.65,2,1.59,0,2.37-1.18,2.37-3.14Z" fill="#3b4351"/><path d="M686,48.2h2.5v1.54h.08a3.77,3.77,0,0,1,3.38-1.89c2,0,3.28.91,3.28,3.58v10h-2.64v-9c0-1.77-.47-2.38-1.84-2.38-1.08,0-2.11.81-2.11,2.57v8.85H686Z" fill="#3b4351"/><path d="M703.8,43.88h9.46v2.35h-6.67v4.86h6.28v2.35h-6.28V59h6.87v2.35H703.8Z" fill="#3b4351"/><path d="M715.54,48.2H718v1.54h.07a3.68,3.68,0,0,1,3.16-1.89,2.86,2.86,0,0,1,3.06,2,3.61,3.61,0,0,1,3.34-2c1.86,0,3.21,1,3.21,3.51v10h-2.65v-9c0-1.74-.52-2.38-1.59-2.38s-2.11.83-2.11,2.57v8.85h-2.65v-9c0-1.74-.51-2.38-1.61-2.38s-2.09.86-2.09,2.57v8.85h-2.64Z" fill="#3b4351"/><path d="M739.23,61.72a3,3,0,0,1-3-1.89h0v5.86h-2.65V48.2H736v1.61h.05a3.14,3.14,0,0,1,3-2c3,0,4.24,2.57,4.24,7.11C743.3,60.5,741.07,61.72,739.23,61.72Zm-1-11.76c-1.81,0-2.23,1.84-2.23,4.68,0,3.16.39,5,2.26,5,1.49,0,2.2-1.12,2.2-4.77C740.5,51.85,740.13,50,738.27,50Z" fill="#3b4351"/><path d="M745.45,43.69h2.65v2.64h-2.65Zm0,4.51h2.65V61.38h-2.65Z" fill="#3b4351"/><path d="M750.77,48.2h2.64v2h.05a3.26,3.26,0,0,1,3.06-2.4,1.59,1.59,0,0,1,.64.1v2.7a3.47,3.47,0,0,0-1.1-.15c-1.2,0-2.65.54-2.65,3v7.89h-2.64Z" fill="#3b4351"/><path d="M760.61,55.13v.76c0,1.76.23,4,2.21,4s2.11-2.13,2.11-2.94h2.5c0,3-1.77,4.75-4.63,4.75-2.16,0-4.83-.64-4.83-6.74,0-3.45.76-7.13,4.87-7.13,3.68,0,4.66,2.23,4.66,5.88v1.4Zm4.24-1.81v-.71c0-1.67-.54-2.94-2-2.94-1.67,0-2.21,1.66-2.21,3.38v.27Z" fill="#3b4351"/></g></g></svg>