<svg xmlns="http://www.w3.org/2000/svg" viewBox="0 0 1847.91 111"><title>ce0100text</title><g id="YEARS"><g id="Right"><path d="M1798.74,104.6V91.24h-3.82V89.32h.28c1.77,0,3.8-.45,4.35-2.76V86.2h2.15v18.4Z" fill="#3b4351"/><path d="M1812.08,86.2c3.53,0,5.51,2.21,5.51,9.38s-2,9.39-5.51,9.39-5.52-2.21-5.52-9.39S1808.54,86.2,1812.08,86.2Zm0,16.69c2,0,2.54-2,2.54-7.31s-.54-7.3-2.54-7.3-2.55,2-2.55,7.3S1810.07,102.89,1812.08,102.89Z" fill="#3b4351"/><path d="M1824.56,86.2c3.53,0,5.51,2.21,5.51,9.38s-2,9.39-5.51,9.39-5.52-2.21-5.52-9.39S1821,86.2,1824.56,86.2Zm0,16.69c2,0,2.54-2,2.54-7.31s-.54-7.3-2.54-7.3-2.55,2-2.55,7.3S1822.55,102.89,1824.56,102.89Z" fill="#3b4351"/></g><g id="left"><path d="M23.7,106.51V93.15H19.88V91.22h.29c1.77,0,3.79-.44,4.34-2.75V88.1h2.16v18.41Z" fill="#3b4351"/><path d="M37,88.1c3.54,0,5.51,2.21,5.51,9.39s-2,9.38-5.51,9.38-5.51-2.2-5.51-9.38S33.51,88.1,37,88.1Zm0,16.69c2,0,2.55-2,2.55-7.3S39,90.18,37,90.18s-2.55,2-2.55,7.31S35,104.79,37,104.79Z" fill="#3b4351"/><path d="M49.52,88.1c3.54,0,5.51,2.21,5.51,9.39s-2,9.38-5.51,9.38S44,104.67,44,97.49,46,88.1,49.52,88.1Zm0,16.69c2,0,2.55-2,2.55-7.3s-.55-7.31-2.55-7.31S47,92.16,47,97.49,47.52,104.79,49.52,104.79Z" fill="#3b4351"/></g></g><g id="Nation_OUtlines" data-name="Nation OUtlines"><polygon id="Romans" points="854.62 3257.83 829.93 3144.83 711.95 3035.83 764.62 2921.83 729.95 2806.83 845.28 2695.83 1002.62 2583.83 1065.29 2469.83 1021.28 2358.83 995.34 2241.83 815.28 2133.83 703.28 2022.83 687.28 1907.83 737.95 1793.83 780.62 1681.83 712.62 1570.83 645.95 1456.83 550.62 1343.83 491.95 1234 453.95 1121 455.29 1009 435.95 894 470.62 786 322.62 786 416.12 673 480.12 563 410.62 451 316.95 337 248.28 222 210.28 111 175.95 0 159.62 -116 91.28 -229 83.12 -334 117.62 -448 151.37 -562 129.62 -672 109.62 -787 99.62 -899 73.12 -1009 75.42 -1907 85.95 -1797 95.28 -1685 111.95 -1573 116.62 -1462 137.95 -1349 149.95 -1233 169.95 -1121 205.28 -1009 231.95 -899 287.74 -787 467.73 -672 683.72 -562 998.71 -448 1118.7 -334 1131.14 -229 1195.2 -116 1182.62 0 1245.62 111 1220.62 222 1122.62 337 981.62 451 880.12 563 717.95 673 593.62 786 616.62 894 717.28 1009 839.28 1123.84 863.28 1234 915.28 1343.83 810.62 1456.83 885.95 1570.83 1037.95 1681.83 1125.95 1793.83 1253.95 1907.83 1213.95 2022.83 1202.62 2133.83 1169.95 2241.83 1161.29 2358.83 1218.62 2469.83 1131.95 2583.83 936.62 2695.83 798.62 2806.83 819.28 2921.83 759.95 3035.83 849.28 3144.83 854.62 3257.83" fill="none" stroke="#3b4351" stroke-miterlimit="10"/><polygon id="Indians" points="1372.19 -2242.83 1294.19 -2357 1285.19 -2470 1313.69 -2581 1348.19 -2694 1310.69 -2808 1298.69 -2918 1313.69 -3030 1345.19 -3142 1325.69 -3256 1343.69 -3370 1417.19 -3481 1400.69 -3594.08 1429.19 -3707 1419.27 -3822.27 1387.19 -3934 1387.19 -4046 1438.19 -4156.5 1462.18 -4268.5 1480.18 -4381.54 1445.82 -4491.83 1411.11 -4603.83 1545.86 -4603.83 1580.1 -4491.83 1593.12 -4381.6 1552.12 -4268.5 1514.62 -4156.5 1514.12 -4046.33 1553.12 -3934.27 1548.12 -3822 1519.62 -3707 1534.12 -3593.33 1575.12 -3481 1559.62 -3370 1564.12 -3256.27 1534.62 -3142 1486.12 -3030 1465.12 -2918 1471.12 -2808.83 1502.12 -2694.83 1508.12 -2581 1534.62 -2470 1542.77 -2391.14 1555.62 -2242.83 1554.62 -2134 1567.12 -2022 1542.12 -1907.27 1498.12 -1797 1490.62 -1685 1513.12 -1573 1568.62 -1462 1544.12 -1349 1530.62 -1233.27 1523.62 -1121.27 1532.62 -1009 1565.12 -899 1543.62 -787 1514.12 -672 1490.12 -562.27 1495.62 -448 1517.12 -334.33 1528.12 -229 1580.62 -116.33 1578.12 -0.33 1578.12 110.17 1560.12 221.73 1526.62 337 1467.62 451 1381.62 562.73 1270.62 673 1090.12 785.73 860.62 894 1302.12 1009 1377.03 1121 1550.62 1234 1519.62 1343.83 1476.12 1456.83 1516.13 1570.83 1534.62 1683.17 1552.65 1793.83 1585.62 1907.73 1620.12 2022.83 1650.12 2133.83 1630.62 2241.73 1622.45 2358.73 1565.62 2469.83 1402.62 2583.17 1173.62 2695.83 1148.62 2806.83 1334.62 2921.83 1283.62 3035.83 1344.62 3144.83 1544.62 3257.83 1602.62 3372.17 1627.62 3483.83 1674.62 3596.73 1627.62 3711.83 1634.62 3823.83 1686.62 3935.83 1701.62 4048.83 1620.12 4160.83 1606.12 4271.83 1606.12 4385.66 1552.62 4385.66 1549.52 4271.83 1569.62 4160.83 1683.62 4048.83 1667.62 3935.83 1607.62 3823.83 1596.62 3711.17 1617.62 3596.83 1584.62 3483.83 1562.62 3371.83 1507.62 3257.83 1304.62 3144.73 1225.62 3035.73 1236.97 2998.78 1264.87 2921.83 1082.62 2806.83 1084.2 2696.34 1323.62 2583.83 1500.47 2469.73 1573.62 2358.83 1600.62 2241.83 1604.62 2133.83 1569.62 2022.83 1514.62 1907.83 1447.62 1793.73 1418.62 1681.83 1404.62 1570.83 1367.62 1456.83 1397.62 1343.83 1418.62 1233.73 1339.62 1120.73 1246.62 1009 748.62 894 753.62 786 910.76 673 1053.62 563 1195.2 451 1311.62 336.17 1353.62 222 1348.62 111 1364.62 -0.83 1406.62 -116 1401.62 -229 1429.62 -334 1394.62 -448.27 1393.2 -562 1391.82 -672.27 1437.52 -787 1513.62 -899.27 1505.64 -1009 1472.62 -1120.83 1447.62 -1233 1440.63 -1349 1462.62 -1462 1391.1 -1573 1348.62 -1685 1332.62 -1797 1376.98 -1907 1375.34 -2022.27 1373.74 -2134.27 1372.19 -2242.83" fill="none" stroke="#3b4351" stroke-miterlimit="10"/><polygon id="Huns" points="1555.62 -2242.83 1545.73 -2357 1533.62 -2470.33 1506.68 -2580.36 1502.16 -2694 1471.34 -2808 1465.12 -2918 1486.12 -3030 1534.62 -3142 1564.05 -3256 1559.62 -3370 1575.12 -3481 1534.24 -3593 1519.62 -3707 1548.12 -3822 1553.11 -3934 1514.47 -4046.27 1514.62 -4158.5 1552.12 -4268.5 1593.12 -4381.16 1580.1 -4491.83 1545.86 -4603.83 1633.99 -4603.83 1651.62 -4491.83 1667.62 -4381.16 1646.62 -4268.5 1620.62 -4156.5 1630.4 -4048.4 1650.62 -3934.33 1676.62 -3822 1700.12 -3707 1689.12 -3593 1714.62 -3481.33 1697.12 -3370.27 1645.62 -3256.27 1616.12 -3142 1586.62 -3030.27 1538.12 -2918.27 1509.12 -2808 1551.62 -2694 1585.12 -2581 1608.62 -2470.33 1609.69 -2357.27 1610.76 -2244.27 1613.62 -2134.27 1625.12 -2022.27 1599.12 -1906.33 1557.59 -1797 1545.65 -1685 1558.62 -1573 1584.62 -1462.27 1571.12 -1348.83 1576.62 -1233 1567.62 -1121 1587.12 -1009 1621.12 -899 1612.12 -787 1556.12 -672 1528.62 -562 1529.62 -448 1553.62 -334 1616.07 -229 1609.25 -116 1592.66 0 1611.01 110.73 1612.12 222 1598.04 337 1564.12 451 1534.29 563 1602.12 672.73 1653.62 786 1673.62 894 1666.12 1009 1668.12 1120.67 1625.62 1233.67 1542.12 1343.83 1476.12 1456.83 1519.62 1343.83 1550.62 1234 1376.62 1120.73 1302.12 1009 860.62 894 1090.12 785.73 1270.62 673 1381.62 562.73 1467.62 451 1526.62 337 1560.12 221.73 1578.12 110.17 1578.12 -0.33 1580.62 -116.33 1528.12 -229 1517.12 -334.33 1495.62 -448 1490.12 -562.27 1514.12 -672 1543.62 -787 1565.12 -899 1532.62 -1009 1523.62 -1121.27 1530.62 -1233.27 1544.12 -1349 1568.62 -1462 1513.12 -1573 1490.62 -1685 1498.12 -1797 1542.12 -1907.27 1567.12 -2022 1554.62 -2134 1555.62 -2242.83" fill="none" stroke="#3b4351" stroke-miterlimit="10"/><polygon id="Chinese" points="1610.76 -2244.27 1609.69 -2357.27 1608.62 -2470.33 1585.12 -2581 1551.62 -2694 1509.12 -2808 1538.12 -2918.27 1586.62 -3030.27 1616.12 -3142 1645.62 -3256.27 1697.12 -3370.27 1714.62 -3481.33 1689.12 -3593 1700.12 -3707 1676.62 -3822 1650.62 -3934.33 1630.62 -4046 1620.62 -4156.5 1646.62 -4268.5 1667.62 -4381.16 1651.62 -4491.83 1633.99 -4603.83 1768.79 -4603.83 1768.79 3596.83 1768.79 3711.73 1766.12 3823.83 1757.62 3935.83 1736.12 4048.73 1676.12 4160.73 1661.12 4271.83 1663.62 4385.66 1606.12 4385.66 1606.12 4271.73 1620.12 4160.83 1701.62 4048.83 1696.12 3935.67 1654.12 3823.83 1681.62 3711.83 1739.62 3596.73 1748.62 3483.67 1744.12 3371.67 1685.62 3257.83 1615.12 3147.17 1636.12 3035.83 1738.62 2921.83 1761.12 2806.83 1758.62 2695.83 1732.12 2583.83 1695.62 2469.83 1667.62 2358.83 1651.12 2241.83 1650.12 2133.83 1620.12 2022.83 1585.62 1907.73 1552.62 1793.73 1535.12 1681.83 1516.12 1570.73 1476.12 1456.83 1542.12 1343.83 1625.62 1233.67 1668.12 1120.67 1666.12 1009 1673.62 894 1653.62 786 1602.12 672.73 1534.12 562.73 1564.12 451 1598.12 336.73 1612.12 222 1611.01 110.73 1592.62 -0.27 1609.25 -116 1616.07 -229 1553.62 -334 1529.62 -448 1528.62 -562.27 1555.62 -672 1612.12 -787 1621.12 -899 1587.12 -1009 1567.62 -1121 1576.62 -1233 1571.12 -1349 1584.62 -1462.27 1558.62 -1573 1545.62 -1685.27 1557.62 -1797.27 1599.62 -1907 1625.12 -2022.27 1613.62 -2134.27 1610.76 -2244.27" fill="none" stroke="#3b4351" stroke-miterlimit="10"/><polygon id="Teutons_-Goths" data-name="Teutons -Goths" points="712.62 1570.83 392.87 1456.83 333.12 1343.83 298.12 1234 257.62 1121 192.12 1009 189.69 894 168.12 786 138.62 675.41 101.12 563 73.12 453.67 73.12 -1009 99.62 -899 109.62 -787 129.3 -669.61 151.37 -562 117.62 -448 83.12 -334 91.28 -229 159.62 -116 175.95 0 210.28 111 248.28 222 316.95 337 410.62 451 480.12 563 416.12 673 322.62 786 328.12 894 455.29 1009 453.95 1121 425.12 1234 461.12 1343.83 536.62 1456.83 712.62 1570.83" fill="none" stroke="#3b4351" stroke-miterlimit="10"/><polygon id="Parthian_empire" data-name="Parthian empire" points="1245.62 111 1182.62 0 1195.2 -118.69 1157.7 -229 1189.62 -333.33 1218.62 -448 1333.62 -558.4 1341.62 -448 1363.19 -334 1401.62 -229 1406.62 -116 1364.62 -0.83 1348.62 111 1353.62 222 1311.62 336.17 1220.62 222 1245.62 111" fill="none" stroke="#3b4351" stroke-miterlimit="10"/></g><g id="Text"><g id="Chinese-2" data-name="Chinese"><path d="M1587.45,31.5h2.79V46.64H1597V49h-9.55Z" fill="#3b4351"/><path d="M1607.12,46.25c0,.49.29.93.69.93a1.22,1.22,0,0,0,.44-.07v1.71a2.86,2.86,0,0,1-1.3.32c-1.18,0-2.16-.47-2.23-1.74h0a3.41,3.41,0,0,1-3.28,1.94c-2.14,0-3.43-1.16-3.43-3.71,0-2.94,1.29-3.55,3.06-4.14l2.06-.56c1-.27,1.54-.54,1.54-1.69s-.42-2-1.81-2c-1.77,0-2,1.25-2,2.52h-2.5c0-2.82,1.15-4.34,4.63-4.34,2.33,0,4.19.91,4.19,3.24Zm-2.5-4.22a20,20,0,0,1-2.94,1.23,2.17,2.17,0,0,0-1.08,2.13c0,1.1.54,2,1.64,2,1.6,0,2.38-1.17,2.38-3.13Z" fill="#3b4351"/><path d="M1608.64,35.81h1.81V32.06h2.65v3.75h2.15v2h-2.15v7.86c0,1.06.29,1.4,1.2,1.4a4.91,4.91,0,0,0,1-.07v2a8.44,8.44,0,0,1-2.13.22c-1.76,0-2.67-.52-2.67-3.19V37.77h-1.81Z" fill="#3b4351"/><path d="M1618.9,42.74v.76c0,1.77.22,4,2.21,4s2.11-2.13,2.11-2.94h2.5c0,3-1.77,4.76-4.64,4.76-2.15,0-4.82-.64-4.82-6.74,0-3.46.76-7.14,4.87-7.14,3.68,0,4.66,2.24,4.66,5.89v1.39Zm4.24-1.81v-.71c0-1.67-.54-2.94-2-2.94-1.67,0-2.21,1.67-2.21,3.38v.27Z" fill="#3b4351"/><path d="M1628,35.81h2.64v2.06h.05a3.27,3.27,0,0,1,3.07-2.41,1.5,1.5,0,0,1,.63.1v2.7a3.73,3.73,0,0,0-1.1-.15c-1.2,0-2.65.54-2.65,3V49H1628Z" fill="#3b4351"/><path d="M1641.74,31.5h2.79v7h5.15v-7h2.79V49h-2.79V40.86h-5.15V49h-2.79Z" fill="#3b4351"/><path d="M1663.84,46.25c0,.49.29.93.68.93a1.14,1.14,0,0,0,.44-.07v1.71a2.78,2.78,0,0,1-1.29.32c-1.18,0-2.16-.47-2.23-1.74h0a3.41,3.41,0,0,1-3.29,1.94c-2.13,0-3.43-1.16-3.43-3.71,0-2.94,1.3-3.55,3.06-4.14l2.06-.56c1-.27,1.55-.54,1.55-1.69s-.42-2-1.82-2c-1.76,0-2,1.25-2,2.52H1655c0-2.82,1.15-4.34,4.63-4.34,2.33,0,4.19.91,4.19,3.24Zm-2.5-4.22a20.5,20.5,0,0,1-2.94,1.23,2.17,2.17,0,0,0-1.08,2.13c0,1.1.54,2,1.64,2,1.59,0,2.38-1.17,2.38-3.13Z" fill="#3b4351"/><path d="M1666.53,35.81h2.5v1.54h.07a3.8,3.8,0,0,1,3.38-1.89c2,0,3.29.91,3.29,3.58V49h-2.65V40c0-1.76-.46-2.38-1.84-2.38-1.07,0-2.1.81-2.1,2.58V49h-2.65Z" fill="#3b4351"/><path d="M1684.37,31.5h5c5.49,0,6.18,3.57,6.18,8.74s-.69,8.75-6.18,8.75h-5Zm2.79,15.38h2.3c2.31,0,3.26-1.51,3.26-6.64,0-4.92-.83-6.64-3.26-6.64h-2.3Z" fill="#3b4351"/><path d="M1699.58,35.81l2.28,9.9h.05l2.11-9.9h2.76l-3.62,13.67c-1.06,3.6-1.86,4.1-4.61,4a4.62,4.62,0,0,1-1-.1V51.3a3.51,3.51,0,0,0,.85.09c.91,0,1.5-.17,1.79-1l.35-1.08-3.75-13.48Z" fill="#3b4351"/><path d="M1708.25,35.81h2.5v1.54h.08a3.79,3.79,0,0,1,3.38-1.89c2,0,3.28.91,3.28,3.58V49h-2.64V40c0-1.76-.47-2.38-1.84-2.38-1.08,0-2.11.81-2.11,2.58V49h-2.65Z" fill="#3b4351"/><path d="M1728.69,46.25c0,.49.29.93.68.93a1.14,1.14,0,0,0,.44-.07v1.71a2.78,2.78,0,0,1-1.29.32c-1.18,0-2.16-.47-2.23-1.74h0a3.41,3.41,0,0,1-3.29,1.94c-2.13,0-3.43-1.16-3.43-3.71,0-2.94,1.3-3.55,3.07-4.14l2.05-.56c1-.27,1.55-.54,1.55-1.69s-.42-2-1.82-2c-1.76,0-2,1.25-2,2.52h-2.5c0-2.82,1.15-4.34,4.63-4.34,2.33,0,4.19.91,4.19,3.24Zm-2.5-4.22a20.5,20.5,0,0,1-2.94,1.23,2.17,2.17,0,0,0-1.08,2.13c0,1.1.54,2,1.64,2,1.59,0,2.38-1.17,2.38-3.13Z" fill="#3b4351"/><path d="M1737.07,39.66v-.35c0-1.05-.37-2-1.74-2-1.06,0-1.89.46-1.89,1.71,0,1.06.46,1.45,1.86,1.94l1.69.59c2,.66,2.87,1.71,2.87,3.8,0,2.81-2.08,4-4.73,4-3.33,0-4.34-1.55-4.34-4.1v-.49h2.35v.42c0,1.54.52,2.35,2.06,2.35s2.16-.73,2.16-1.93a1.91,1.91,0,0,0-1.45-1.94l-2.15-.76c-2-.66-2.82-1.69-2.82-3.8,0-2.47,1.76-3.63,4.51-3.63,3.36,0,4.11,2,4.11,3.61v.59Z" fill="#3b4351"/><path d="M1740.64,35.81h1.81V32.06h2.65v3.75h2.16v2h-2.16v7.86c0,1.06.29,1.4,1.2,1.4a5.1,5.1,0,0,0,1-.07v2a8.55,8.55,0,0,1-2.13.22c-1.77,0-2.68-.52-2.68-3.19V37.77h-1.81Z" fill="#3b4351"/><path d="M1750.39,35.81l2.28,9.9h0l2.11-9.9h2.77L1754,49.48c-1,3.6-1.86,4.1-4.61,4a4.73,4.73,0,0,1-1-.1V51.3a3.54,3.54,0,0,0,.86.09c.9,0,1.49-.17,1.79-1l.34-1.08-3.75-13.48Z" fill="#3b4351"/></g></g></svg>