<svg xmlns="http://www.w3.org/2000/svg" viewBox="0 0 1847.91 111"><title>ce0150text</title><g id="Text"><g id="Romans"><path d="M632.16,43.88h6.18c2.45,0,4.43,1.25,4.43,4.51,0,2.26-1,4-2.91,4.29v0c1.76.17,2.64,1.13,2.74,3.58,0,1.15,0,2.5.1,3.55a1.92,1.92,0,0,0,.83,1.52h-3.16a2.94,2.94,0,0,1-.46-1.55c0-.51-.08-1-.08-1.56s0-1.11-.05-1.74c-.07-1.91-.66-2.75-2.54-2.75H635v7.6h-2.8Zm5,7.79A2.57,2.57,0,0,0,640,48.83C640,47,639.2,46,637.33,46H635v5.68Z"/><path d="M644.63,54.79c0-4.12,1.08-6.94,4.9-6.94s4.93,2.82,4.93,6.94-1.27,6.93-4.93,6.93S644.63,58.9,644.63,54.79Zm4.9,5c1.94,0,2.28-1.62,2.28-5,0-2.92-.34-5-2.28-5s-2.25,2.06-2.25,5C647.28,58.14,647.65,59.76,649.53,59.76Z"/><path d="M656.61,48.2h2.5v1.54h.08a3.68,3.68,0,0,1,3.16-1.89,2.86,2.86,0,0,1,3.06,2,3.61,3.61,0,0,1,3.33-2c1.87,0,3.21,1,3.21,3.51v10h-2.64v-9c0-1.74-.52-2.38-1.59-2.38s-2.11.83-2.11,2.57v8.85H663v-9c0-1.74-.51-2.38-1.62-2.38s-2.08.86-2.08,2.57v8.85h-2.65Z"/><path d="M683.27,58.63c0,.49.3.94.69.94a1,1,0,0,0,.44-.08v1.72a2.83,2.83,0,0,1-1.3.32c-1.18,0-2.16-.47-2.23-1.74h0a3.41,3.41,0,0,1-3.28,1.93c-2.13,0-3.43-1.15-3.43-3.7,0-2.94,1.3-3.55,3.06-4.14l2.06-.56c.95-.27,1.54-.54,1.54-1.69s-.41-2-1.81-2c-1.77,0-2,1.25-2,2.52h-2.5c0-2.82,1.15-4.34,4.63-4.34,2.33,0,4.19.91,4.19,3.24Zm-2.5-4.21a20,20,0,0,1-2.94,1.22,2.18,2.18,0,0,0-1.08,2.14c0,1.1.54,2,1.65,2,1.59,0,2.37-1.18,2.37-3.14Z"/><path d="M686,48.2h2.5v1.54h.08a3.77,3.77,0,0,1,3.38-1.89c2,0,3.28.91,3.28,3.58v10h-2.64v-9c0-1.77-.47-2.38-1.84-2.38-1.08,0-2.11.81-2.11,2.57v8.85H686Z"/><path d="M703.8,43.88h9.46v2.35h-6.67v4.86h6.28v2.35h-6.28V59h6.87v2.35H703.8Z"/><path d="M715.54,48.2H718v1.54h.07a3.68,3.68,0,0,1,3.16-1.89,2.86,2.86,0,0,1,3.06,2,3.61,3.61,0,0,1,3.34-2c1.86,0,3.21,1,3.21,3.51v10h-2.65v-9c0-1.74-.52-2.38-1.59-2.38s-2.11.83-2.11,2.57v8.85h-2.65v-9c0-1.74-.51-2.38-1.61-2.38s-2.09.86-2.09,2.57v8.85h-2.64Z"/><path d="M739.23,61.72a3,3,0,0,1-3-1.89h0v5.86h-2.65V48.2H736v1.61h.05a3.14,3.14,0,0,1,3-2c3,0,4.24,2.57,4.24,7.11C743.3,60.5,741.07,61.72,739.23,61.72Zm-1-11.76c-1.81,0-2.23,1.84-2.23,4.68,0,3.16.39,5,2.26,5,1.49,0,2.2-1.12,2.2-4.77C740.5,51.85,740.13,50,738.27,50Z"/><path d="M745.45,43.69h2.65v2.64h-2.65Zm0,4.51h2.65V61.38h-2.65Z"/><path d="M750.77,48.2h2.64v2h.05a3.26,3.26,0,0,1,3.06-2.4,1.59,1.59,0,0,1,.64.1v2.7a3.47,3.47,0,0,0-1.1-.15c-1.2,0-2.65.54-2.65,3v7.89h-2.64Z"/><path d="M760.61,55.13v.76c0,1.76.23,4,2.21,4s2.11-2.13,2.11-2.94h2.5c0,3-1.77,4.75-4.63,4.75-2.16,0-4.83-.64-4.83-6.74,0-3.45.76-7.13,4.87-7.13,3.68,0,4.66,2.23,4.66,5.88v1.4Zm4.24-1.81v-.71c0-1.67-.54-2.94-2-2.94-1.67,0-2.21,1.66-2.21,3.38v.27Z"/></g></g><g id="YEARS"><g id="Right"><path d="M1791.27,101.12V87.76h-3.82V85.84h.28c1.77,0,3.8-.45,4.35-2.76v-.36h2.15v18.4Z"/><path d="M1799.2,96.16H1802v.49a2.35,2.35,0,0,0,2.42,2.6c2.08,0,2.62-2,2.62-4.18s-.57-3.93-2.47-3.93a2.36,2.36,0,0,0-2.42,1.69l-2.62-.1.91-9.65h8.86v2.37h-6.65l-.6,4.83,0,0a4.1,4.1,0,0,1,3.1-1.43c3.84,0,4.81,3.26,4.81,6.09,0,3.69-1.69,6.5-5.67,6.5-3.3,0-5.15-1.69-5.15-4.94Z"/><path d="M1817.09,82.72c3.53,0,5.51,2.21,5.51,9.38s-2,9.39-5.51,9.39-5.51-2.21-5.51-9.39S1813.55,82.72,1817.09,82.72Zm0,16.69c2,0,2.55-2,2.55-7.31s-.55-7.3-2.55-7.3-2.55,2-2.55,7.3S1815.09,99.41,1817.09,99.41Z"/></g><g id="Layer_34" data-name="Layer 34"><path d="M31.52,104.72V91.36H27.7V89.43H28c1.77,0,3.8-.44,4.35-2.75v-.37h2.16v18.41Z"/><path d="M39.45,99.76h2.81v.49a2.35,2.35,0,0,0,2.42,2.6c2.08,0,2.62-2,2.62-4.18s-.57-3.93-2.47-3.93a2.35,2.35,0,0,0-2.42,1.69l-2.62-.11.91-9.64h8.86V89H42.91l-.6,4.84,0,.05a4.06,4.06,0,0,1,3.1-1.43c3.84,0,4.81,3.25,4.81,6.09,0,3.69-1.69,6.5-5.67,6.5-3.3,0-5.15-1.69-5.15-4.94Z"/><path d="M57.34,86.31c3.53,0,5.51,2.21,5.51,9.39s-2,9.39-5.51,9.39-5.51-2.21-5.51-9.39S53.8,86.31,57.34,86.31Zm0,16.7c2,0,2.55-2,2.55-7.31s-.55-7.31-2.55-7.31-2.55,2-2.55,7.31S55.34,103,57.34,103Z"/></g></g></svg>