<svg xmlns="http://www.w3.org/2000/svg" viewBox="0 0 1847.91 111"><title>ce0100text</title><g id="YEARS"><g id="Right"><path d="M1793.45,99.79V86.43h-3.82V84.5h.29c1.77,0,3.79-.44,4.34-2.75v-.37h2.16V99.79Z"/><path d="M1806.79,81.38c3.54,0,5.51,2.21,5.51,9.39s-2,9.39-5.51,9.39-5.51-2.21-5.51-9.39S1803.26,81.38,1806.79,81.38Zm0,16.7c2,0,2.55-2,2.55-7.31s-.55-7.31-2.55-7.31-2.55,2-2.55,7.31S1804.79,98.08,1806.79,98.08Z"/><path d="M1819.27,81.38c3.54,0,5.51,2.21,5.51,9.39s-2,9.39-5.51,9.39-5.51-2.21-5.51-9.39S1815.73,81.38,1819.27,81.38Zm0,16.7c2,0,2.55-2,2.55-7.31s-.55-7.31-2.55-7.31-2.55,2-2.55,7.31S1817.27,98.08,1819.27,98.08Z"/></g><g id="left"><path d="M23.7,103.39V90H19.88V88.1h.29c1.77,0,3.79-.44,4.34-2.75V85h2.16v18.41Z"/><path d="M37,85c3.54,0,5.51,2.21,5.51,9.39s-2,9.39-5.51,9.39-5.51-2.22-5.51-9.39S33.51,85,37,85Zm0,16.7c2,0,2.55-2,2.55-7.31S39,87.06,37,87.06s-2.55,2-2.55,7.31S35,101.68,37,101.68Z"/><path d="M49.52,85C53.06,85,55,87.19,55,94.37s-2,9.39-5.51,9.39S44,101.54,44,94.37,46,85,49.52,85Zm0,16.7c2,0,2.55-2,2.55-7.31s-.55-7.31-2.55-7.31S47,89,47,94.37,47.52,101.68,49.52,101.68Z"/></g></g><g id="Text"><g id="Chinese"><path d="M1587.45,31.5h2.79V46.64H1597V49h-9.55Z" fill="#3b4351"/><path d="M1607.12,46.25c0,.49.29.93.69.93a1.22,1.22,0,0,0,.44-.07v1.71a2.86,2.86,0,0,1-1.3.32c-1.18,0-2.16-.47-2.23-1.74h0a3.41,3.41,0,0,1-3.28,1.94c-2.14,0-3.43-1.16-3.43-3.71,0-2.94,1.29-3.55,3.06-4.14l2.06-.56c1-.27,1.54-.54,1.54-1.69s-.42-2-1.81-2c-1.77,0-2,1.25-2,2.52h-2.5c0-2.82,1.15-4.34,4.63-4.34,2.33,0,4.19.91,4.19,3.24Zm-2.5-4.22a20,20,0,0,1-2.94,1.23,2.17,2.17,0,0,0-1.08,2.13c0,1.1.54,2,1.64,2,1.6,0,2.38-1.17,2.38-3.13Z" fill="#3b4351"/><path d="M1608.64,35.81h1.81V32.06h2.65v3.75h2.15v2h-2.15v7.86c0,1.06.29,1.4,1.2,1.4a4.91,4.91,0,0,0,1-.07v2a8.44,8.44,0,0,1-2.13.22c-1.76,0-2.67-.52-2.67-3.19V37.77h-1.81Z" fill="#3b4351"/><path d="M1618.9,42.74v.76c0,1.77.22,4,2.21,4s2.11-2.13,2.11-2.94h2.5c0,3-1.77,4.76-4.64,4.76-2.15,0-4.82-.64-4.82-6.74,0-3.46.76-7.14,4.87-7.14,3.68,0,4.66,2.24,4.66,5.89v1.39Zm4.24-1.81v-.71c0-1.67-.54-2.94-2-2.94-1.67,0-2.21,1.67-2.21,3.38v.27Z" fill="#3b4351"/><path d="M1628,35.81h2.64v2.06h.05a3.27,3.27,0,0,1,3.07-2.41,1.5,1.5,0,0,1,.63.1v2.7a3.73,3.73,0,0,0-1.1-.15c-1.2,0-2.65.54-2.65,3V49H1628Z" fill="#3b4351"/><path d="M1641.74,31.5h2.79v7h5.15v-7h2.79V49h-2.79V40.86h-5.15V49h-2.79Z" fill="#3b4351"/><path d="M1663.84,46.25c0,.49.29.93.68.93a1.14,1.14,0,0,0,.44-.07v1.71a2.78,2.78,0,0,1-1.29.32c-1.18,0-2.16-.47-2.23-1.74h0a3.41,3.41,0,0,1-3.29,1.94c-2.13,0-3.43-1.16-3.43-3.71,0-2.94,1.3-3.55,3.06-4.14l2.06-.56c1-.27,1.55-.54,1.55-1.69s-.42-2-1.82-2c-1.76,0-2,1.25-2,2.52H1655c0-2.82,1.15-4.34,4.63-4.34,2.33,0,4.19.91,4.19,3.24Zm-2.5-4.22a20.5,20.5,0,0,1-2.94,1.23,2.17,2.17,0,0,0-1.08,2.13c0,1.1.54,2,1.64,2,1.59,0,2.38-1.17,2.38-3.13Z" fill="#3b4351"/><path d="M1666.53,35.81h2.5v1.54h.07a3.8,3.8,0,0,1,3.38-1.89c2,0,3.29.91,3.29,3.58V49h-2.65V40c0-1.76-.46-2.38-1.84-2.38-1.07,0-2.1.81-2.1,2.58V49h-2.65Z" fill="#3b4351"/><path d="M1684.37,31.5h5c5.49,0,6.18,3.57,6.18,8.74s-.69,8.75-6.18,8.75h-5Zm2.79,15.38h2.3c2.31,0,3.26-1.51,3.26-6.64,0-4.92-.83-6.64-3.26-6.64h-2.3Z" fill="#3b4351"/><path d="M1699.58,35.81l2.28,9.9h.05l2.11-9.9h2.76l-3.62,13.67c-1.06,3.6-1.86,4.1-4.61,4a4.62,4.62,0,0,1-1-.1V51.3a3.51,3.51,0,0,0,.85.09c.91,0,1.5-.17,1.79-1l.35-1.08-3.75-13.48Z" fill="#3b4351"/><path d="M1708.25,35.81h2.5v1.54h.08a3.79,3.79,0,0,1,3.38-1.89c2,0,3.28.91,3.28,3.58V49h-2.64V40c0-1.76-.47-2.38-1.84-2.38-1.08,0-2.11.81-2.11,2.58V49h-2.65Z" fill="#3b4351"/><path d="M1728.69,46.25c0,.49.29.93.68.93a1.14,1.14,0,0,0,.44-.07v1.71a2.78,2.78,0,0,1-1.29.32c-1.18,0-2.16-.47-2.23-1.74h0a3.41,3.41,0,0,1-3.29,1.94c-2.13,0-3.43-1.16-3.43-3.71,0-2.94,1.3-3.55,3.07-4.14l2.05-.56c1-.27,1.55-.54,1.55-1.69s-.42-2-1.82-2c-1.76,0-2,1.25-2,2.52h-2.5c0-2.82,1.15-4.34,4.63-4.34,2.33,0,4.19.91,4.19,3.24Zm-2.5-4.22a20.5,20.5,0,0,1-2.94,1.23,2.17,2.17,0,0,0-1.08,2.13c0,1.1.54,2,1.64,2,1.59,0,2.38-1.17,2.38-3.13Z" fill="#3b4351"/><path d="M1737.07,39.66v-.35c0-1.05-.37-2-1.74-2-1.06,0-1.89.46-1.89,1.71,0,1.06.46,1.45,1.86,1.94l1.69.59c2,.66,2.87,1.71,2.87,3.8,0,2.81-2.08,4-4.73,4-3.33,0-4.34-1.55-4.34-4.1v-.49h2.35v.42c0,1.54.52,2.35,2.06,2.35s2.16-.73,2.16-1.93a1.91,1.91,0,0,0-1.45-1.94l-2.15-.76c-2-.66-2.82-1.69-2.82-3.8,0-2.47,1.76-3.63,4.51-3.63,3.36,0,4.11,2,4.11,3.61v.59Z" fill="#3b4351"/><path d="M1740.64,35.81h1.81V32.06h2.65v3.75h2.16v2h-2.16v7.86c0,1.06.29,1.4,1.2,1.4a5.1,5.1,0,0,0,1-.07v2a8.55,8.55,0,0,1-2.13.22c-1.77,0-2.68-.52-2.68-3.19V37.77h-1.81Z" fill="#3b4351"/><path d="M1750.39,35.81l2.28,9.9h0l2.11-9.9h2.77L1754,49.48c-1,3.6-1.86,4.1-4.61,4a4.73,4.73,0,0,1-1-.1V51.3a3.54,3.54,0,0,0,.86.09c.9,0,1.49-.17,1.79-1l.34-1.08-3.75-13.48Z" fill="#3b4351"/></g></g></svg>