<svg xmlns="http://www.w3.org/2000/svg" viewBox="0 0 1847.91 114"><title>ce0250text</title><g id="YEARS"><g id="Right"><path d="M1805,105.08h-10.76c0-8,7.72-7.83,7.72-13.55,0-1.53-.65-2.78-2.29-2.78-2.21,0-2.58,2-2.58,3.85h-2.8c0-3.64,1.5-5.93,5.43-5.93,3.75,0,5.2,2.23,5.2,4.91,0,6.11-6,6.47-7.38,11H1805Z" fill="#3b4351"/><path d="M1806.67,100.11h2.81v.49a2.35,2.35,0,0,0,2.41,2.6c2.09,0,2.63-2,2.63-4.18s-.57-3.93-2.47-3.93a2.36,2.36,0,0,0-2.42,1.69l-2.62-.1.91-9.65h8.86V89.4h-6.65l-.6,4.83,0,.06a4,4,0,0,1,3.09-1.43c3.85,0,4.81,3.25,4.81,6.08,0,3.69-1.69,6.5-5.66,6.5-3.31,0-5.15-1.69-5.15-4.94Z" fill="#3b4351"/><path d="M1824.56,86.67c3.53,0,5.51,2.21,5.51,9.38s-2,9.39-5.51,9.39-5.52-2.21-5.52-9.39S1821,86.67,1824.56,86.67Zm0,16.69c2,0,2.54-2,2.54-7.31s-.54-7.3-2.54-7.3-2.55,2-2.55,7.3S1822.55,103.36,1824.56,103.36Z" fill="#3b4351"/></g><g id="left"><path d="M29.94,107H19.18c0-8,7.72-7.82,7.72-13.54,0-1.54-.65-2.79-2.29-2.79-2.21,0-2.57,2-2.57,3.85H19.23c0-3.64,1.51-5.93,5.44-5.93,3.74,0,5.2,2.24,5.2,4.92,0,6.11-6,6.47-7.39,11h7.46Z" fill="#3b4351"/><path d="M31.63,102h2.81v.49a2.35,2.35,0,0,0,2.42,2.6c2.08,0,2.63-2,2.63-4.19S38.91,97,37,97a2.34,2.34,0,0,0-2.42,1.69L32,98.58l.91-9.64h8.87V91.3H35.09l-.6,4.84.06,0a4,4,0,0,1,3.09-1.43c3.85,0,4.81,3.25,4.81,6.09,0,3.69-1.69,6.5-5.67,6.5-3.3,0-5.15-1.69-5.15-4.94Z" fill="#3b4351"/><path d="M49.52,88.57C53.06,88.57,55,90.78,55,98s-2,9.39-5.51,9.39S44,105.14,44,98,46,88.57,49.52,88.57Zm0,16.7c2,0,2.55-2,2.55-7.31s-.55-7.31-2.55-7.31S47,92.63,47,98,47.52,105.27,49.52,105.27Z" fill="#3b4351"/></g></g><g id="Nation_OUtlines" data-name="Nation OUtlines"><polygon id="Romans" points="854.62 2920.83 829.93 2807.83 711.95 2698.83 764.62 2584.83 729.95 2469.83 845.28 2358.83 1002.62 2246.83 1065.29 2132.83 1021.28 2021.83 995.34 1904.83 815.28 1796.83 703.28 1685.83 687.28 1570.83 737.95 1456.83 780.62 1344.83 712.62 1233.83 645.95 1119.83 550.62 1006.83 491.95 897 453.95 784 455.29 672 435.95 557 470.62 449 322.62 449 416.12 336 480.12 226 410.62 114 316.95 0 248.28 -115 210.28 -226 175.95 -337 159.62 -453 91.28 -566 83.12 -671 117.62 -785 151.37 -899 129.62 -1009 109.62 -1124 99.62 -1236 73.12 -1346 75.42 -2244 85.95 -2134 95.28 -2022 111.95 -1910 116.62 -1799 137.95 -1686 149.95 -1570 169.95 -1458 205.28 -1346 231.95 -1236 287.74 -1124 467.73 -1009 683.72 -899 998.71 -785 1118.7 -671 1131.14 -566 1195.2 -453 1182.62 -337 1245.62 -226 1220.62 -115 1122.62 0 981.62 114 880.12 226 717.95 336 593.62 449 616.62 557 717.28 672 839.28 786.84 863.28 897 915.28 1006.83 810.62 1119.83 885.95 1233.83 1037.95 1344.83 1125.95 1456.83 1253.95 1570.83 1213.95 1685.83 1202.62 1796.83 1169.95 1904.83 1161.29 2021.83 1218.62 2132.83 1131.95 2246.83 936.62 2358.83 798.62 2469.83 819.28 2584.83 759.95 2698.83 849.28 2807.83 854.62 2920.83" fill="none" stroke="#3b4351" stroke-miterlimit="10"/><polygon id="Indians" points="1372.19 -2579.83 1294.19 -2694 1285.19 -2807 1313.69 -2918 1348.19 -3031 1310.69 -3145 1298.69 -3255 1313.69 -3367 1345.19 -3479 1325.69 -3593 1343.69 -3707 1417.19 -3818 1400.69 -3931.08 1429.19 -4044 1419.27 -4159.27 1387.19 -4271 1387.19 -4383 1438.19 -4493.5 1462.18 -4605.5 1480.18 -4718.54 1445.82 -4828.83 1411.11 -4940.83 1545.86 -4940.83 1580.1 -4828.83 1593.12 -4718.6 1552.12 -4605.5 1514.62 -4493.5 1514.12 -4383.33 1553.12 -4271.27 1548.12 -4159 1519.62 -4044 1534.12 -3930.33 1575.12 -3818 1559.62 -3707 1564.12 -3593.27 1534.62 -3479 1486.12 -3367 1465.12 -3255 1471.12 -3145.83 1502.12 -3031.83 1508.12 -2918 1534.62 -2807 1542.77 -2728.14 1555.62 -2579.83 1554.62 -2471 1567.12 -2359 1542.12 -2244.27 1498.12 -2134 1490.62 -2022 1513.12 -1910 1568.62 -1799 1544.12 -1686 1530.62 -1570.27 1523.62 -1458.27 1532.62 -1346 1565.12 -1236 1543.62 -1124 1514.12 -1009 1490.12 -899.27 1495.62 -785 1517.12 -671.33 1528.12 -566 1580.62 -453.33 1578.12 -337.33 1578.12 -226.83 1560.12 -115.27 1526.62 0 1467.62 114 1381.62 225.73 1270.62 336 1090.12 448.73 860.62 557 1302.12 672 1377.03 784 1550.62 897 1519.62 1006.83 1476.12 1119.83 1516.13 1233.83 1534.62 1346.17 1552.65 1456.83 1585.62 1570.73 1620.12 1685.83 1650.12 1796.83 1630.62 1904.73 1622.45 2021.73 1565.62 2132.83 1402.62 2246.17 1173.62 2358.83 1148.62 2469.83 1334.62 2584.83 1283.62 2698.83 1344.62 2807.83 1544.62 2920.83 1602.62 3035.17 1627.62 3146.83 1674.62 3259.73 1627.62 3374.83 1634.62 3486.83 1686.62 3598.83 1701.62 3711.83 1620.12 3823.83 1606.12 3934.83 1606.12 4048.66 1552.62 4048.66 1549.52 3934.83 1569.62 3823.83 1683.62 3711.83 1667.62 3598.83 1607.62 3486.83 1596.62 3374.17 1617.62 3259.83 1584.62 3146.83 1562.62 3034.83 1507.62 2920.83 1304.62 2807.73 1225.62 2698.73 1236.97 2661.78 1264.87 2584.83 1082.62 2469.83 1084.2 2359.34 1323.62 2246.83 1500.47 2132.73 1573.62 2021.83 1600.62 1904.83 1604.62 1796.83 1569.62 1685.83 1514.62 1570.83 1447.62 1456.73 1418.62 1344.83 1404.62 1233.83 1367.62 1119.83 1397.62 1006.83 1418.62 896.73 1339.62 783.73 1246.62 672 748.62 557 753.62 449 910.76 336 1053.62 226 1195.2 114 1311.62 -0.83 1353.62 -115 1348.62 -226 1364.62 -337.83 1406.62 -453 1401.62 -566 1429.62 -671 1394.62 -785.27 1393.2 -899 1391.82 -1009.27 1437.52 -1124 1513.62 -1236.27 1505.64 -1346 1472.62 -1457.83 1447.62 -1570 1440.63 -1686 1462.62 -1799 1391.1 -1910 1348.62 -2022 1332.62 -2134 1376.98 -2244 1375.34 -2359.27 1373.74 -2471.27 1372.19 -2579.83" fill="none" stroke="#3b4351" stroke-miterlimit="10"/><polygon id="Huns" points="1555.62 -2579.83 1545.73 -2694 1533.62 -2807.33 1506.68 -2917.36 1502.16 -3031 1471.34 -3145 1465.12 -3255 1486.12 -3367 1534.62 -3479 1564.05 -3593 1559.62 -3707 1575.12 -3818 1534.24 -3930 1519.62 -4044 1548.12 -4159 1553.11 -4271 1514.47 -4383.27 1514.62 -4495.5 1552.12 -4605.5 1593.12 -4718.16 1580.1 -4828.83 1545.86 -4940.83 1633.99 -4940.83 1651.62 -4828.83 1667.62 -4718.16 1646.62 -4605.5 1620.62 -4493.5 1630.4 -4385.4 1650.62 -4271.33 1676.62 -4159 1700.12 -4044 1689.12 -3930 1714.62 -3818.33 1697.12 -3707.27 1645.62 -3593.27 1616.12 -3479 1586.62 -3367.27 1538.12 -3255.27 1509.12 -3145 1551.62 -3031 1585.12 -2918 1608.62 -2807.33 1609.69 -2694.27 1610.76 -2581.27 1613.62 -2471.27 1625.12 -2359.27 1599.12 -2243.33 1557.59 -2134 1545.65 -2022 1558.62 -1910 1584.62 -1799.27 1571.12 -1685.83 1576.62 -1570 1567.62 -1458 1587.12 -1346 1621.12 -1236 1612.12 -1124 1556.12 -1009 1528.62 -899 1529.62 -785 1553.62 -671 1616.07 -566 1609.25 -453 1592.66 -337 1611.01 -226.27 1612.12 -115 1598.04 0 1564.12 114 1534.29 226 1602.12 335.73 1653.62 449 1673.62 557 1666.12 672 1668.12 783.67 1625.62 896.67 1542.12 1006.83 1476.12 1119.83 1519.62 1006.83 1550.62 897 1376.62 783.73 1302.12 672 860.62 557 1090.12 448.73 1270.62 336 1381.62 225.73 1467.62 114 1526.62 0 1560.12 -115.27 1578.12 -226.83 1578.12 -337.33 1580.62 -453.33 1528.12 -566 1517.12 -671.33 1495.62 -785 1490.12 -899.27 1514.12 -1009 1543.62 -1124 1565.12 -1236 1532.62 -1346 1523.62 -1458.27 1530.62 -1570.27 1544.12 -1686 1568.62 -1799 1513.12 -1910 1490.62 -2022 1498.12 -2134 1542.12 -2244.27 1567.12 -2359 1554.62 -2471 1555.62 -2579.83" fill="none" stroke="#3b4351" stroke-miterlimit="10"/><polygon id="Chinese" points="1610.76 -2581.27 1609.69 -2694.27 1608.62 -2807.33 1585.12 -2918 1551.62 -3031 1509.12 -3145 1538.12 -3255.27 1586.62 -3367.27 1616.12 -3479 1645.62 -3593.27 1697.12 -3707.27 1714.62 -3818.33 1689.12 -3930 1700.12 -4044 1676.62 -4159 1650.62 -4271.33 1630.62 -4383 1620.62 -4493.5 1646.62 -4605.5 1667.62 -4718.16 1651.62 -4828.83 1633.99 -4940.83 1768.79 -4940.83 1768.79 3259.83 1768.79 3374.73 1766.12 3486.83 1757.62 3598.83 1736.12 3711.73 1676.12 3823.73 1661.12 3934.83 1663.62 4048.66 1606.12 4048.66 1606.12 3934.73 1620.12 3823.83 1701.62 3711.83 1696.12 3598.67 1654.12 3486.83 1681.62 3374.83 1739.62 3259.73 1748.62 3146.67 1744.12 3034.67 1685.62 2920.83 1615.12 2810.17 1636.12 2698.83 1738.62 2584.83 1761.12 2469.83 1758.62 2358.83 1732.12 2246.83 1695.62 2132.83 1667.62 2021.83 1651.12 1904.83 1650.12 1796.83 1620.12 1685.83 1585.62 1570.73 1552.62 1456.73 1535.12 1344.83 1516.12 1233.73 1476.12 1119.83 1542.12 1006.83 1625.62 896.67 1668.12 783.67 1666.12 672 1673.62 557 1653.62 449 1602.12 335.73 1534.12 225.73 1564.12 114 1598.12 -0.27 1612.12 -115 1611.01 -226.27 1592.62 -337.27 1609.25 -453 1616.07 -566 1553.62 -671 1529.62 -785 1528.62 -899.27 1555.62 -1009 1612.12 -1124 1621.12 -1236 1587.12 -1346 1567.62 -1458 1576.62 -1570 1571.12 -1686 1584.62 -1799.27 1558.62 -1910 1545.62 -2022.27 1557.62 -2134.27 1599.62 -2244 1625.12 -2359.27 1613.62 -2471.27 1610.76 -2581.27" fill="none" stroke="#3b4351" stroke-miterlimit="10"/><polygon id="Teutons_-_Franks" data-name="Teutons - Franks" points="600.62 1456.83 277.29 1456.83 235.95 1344.83 189.95 1233.83 180.62 1119.83 142.62 1006.83 139.95 897 120.62 784 99.95 672 73.12 557 73.12 114 101.12 226 138.62 338.42 168.12 449 189.69 557 192.12 672 257.62 784 298.12 897 333.12 1006.83 392.87 1119.83 712.62 1233.83 676.62 1344.83 600.62 1456.83" fill="none" stroke="#3b4351" stroke-miterlimit="10"/><polygon id="Teutons_-Goths" data-name="Teutons -Goths" points="712.62 1233.83 392.87 1119.83 333.12 1006.83 298.12 897 257.62 784 192.12 672 189.69 557 168.12 449 138.62 338.42 101.12 226 73.12 116.67 73.12 -1346 99.62 -1236 109.62 -1124 129.3 -1006.61 151.37 -899 117.62 -785 83.12 -671 91.28 -566 159.62 -453 175.95 -337 210.28 -226 248.28 -115 316.95 0 410.62 114 480.12 226 416.12 336 322.62 449 328.12 557 455.29 672 453.95 784 425.12 897 461.12 1006.83 536.62 1119.83 712.62 1233.83" fill="none" stroke="#3b4351" stroke-miterlimit="10"/><polygon id="Parthian_empire" data-name="Parthian empire" points="1245.62 -226 1182.62 -337 1195.2 -455.69 1157.7 -566 1189.62 -670.33 1218.62 -785 1333.62 -895.4 1341.62 -785 1363.19 -671 1401.62 -566 1406.62 -453 1364.62 -337.83 1348.62 -226 1353.62 -115 1311.62 -0.83 1220.62 -115 1245.62 -226" fill="none" stroke="#3b4351" stroke-miterlimit="10"/><polygon id="Moslem_Arabs_and_Persian" data-name="Moslem Arabs and Persian" points="717.95 336 880.12 226 981.62 114 1122.62 0 1220.62 -115 1311.62 -0.83 1195.2 114 1053.62 226 910.76 336 753.62 449 593.62 449 717.95 336" fill="none" stroke="#3b4351" stroke-miterlimit="10"/></g><g id="Text"><g id="Romans-2" data-name="Romans"><path d="M632.53,11.38h6.17c2.45,0,4.44,1.25,4.44,4.51,0,2.26-1,4-2.92,4.29v.05c1.77.17,2.65,1.13,2.75,3.58,0,1.15,0,2.5.09,3.55a1.92,1.92,0,0,0,.84,1.52h-3.16a2.93,2.93,0,0,1-.47-1.55c0-.51-.07-1-.07-1.56s0-1.11-.05-1.74c-.07-1.91-.66-2.75-2.55-2.75h-2.28v7.6h-2.79Zm5,7.79a2.57,2.57,0,0,0,2.79-2.84c0-1.86-.78-2.84-2.64-2.84h-2.38v5.68Z" fill="#3b4351"/><path d="M645.27,20.13c0-6.25,1.76-9.09,5.78-9.09s5.78,2.84,5.78,9.09-1.76,9.09-5.78,9.09S645.27,26.38,645.27,20.13Zm8.77-.07c0-5.88-1.32-6.91-3-6.91s-3,1-3,6.91,1.32,7.05,3,7.05S654,26.06,654,20.06Z" fill="#3b4351"/><path d="M659.31,11.38h4.36l3.09,13h0l3-13h4.27v17.5h-2.65V14.32h-.05l-3.53,14.56h-2.35L662,14.32h0V28.88h-2.64Z" fill="#3b4351"/><path d="M680.3,11.38h3.58l4.61,17.5h-2.92l-1.08-4.29h-5.12l-1.13,4.29h-2.91Zm3.73,11-2-8.63h0l-2.08,8.63Z" fill="#3b4351"/><path d="M689.71,11.38h3.41l5.07,13h0v-13h2.64v17.5h-3.4L692.41,15.5h0V28.88h-2.65Z" fill="#3b4351"/><path d="M705.93,23.46v.44c0,2.14,1,3.21,2.87,3.21a2.5,2.5,0,0,0,2.64-2.54c0-1.84-.93-2.65-2.5-3.12L707,20.79c-2.55-1-3.65-2.3-3.65-4.8,0-3.19,2.18-5,5.44-5,4.49,0,4.95,2.79,4.95,4.61V16H711v-.37c0-1.59-.69-2.52-2.45-2.52a2.24,2.24,0,0,0-2.36,2.52c0,1.5.76,2.25,2.63,3l1.88.68c2.48.88,3.56,2.21,3.56,4.63,0,3.73-2.26,5.27-5.79,5.27-4.33,0-5.31-2.89-5.31-5.34v-.42Z" fill="#3b4351"/></g><g id="Teutons_-_goths" data-name="Teutons - goths"><path d="M167.22,17.21h-4.16V14.85h11.05v2.36H170V32.35h-2.8Z" fill="#3b4351"/><path d="M175.7,14.85h9.46v2.36h-6.67v4.85h6.28v2.35h-6.28V30h6.86v2.35H175.7Z" fill="#3b4351"/><path d="M190.06,14.85V27.4c0,2.23.88,3.19,2.57,3.19s2.55-1,2.55-3.19V14.85H198V27.18c0,4-2,5.51-5.34,5.51s-5.37-1.47-5.37-5.51V14.85Z" fill="#3b4351"/><path d="M203.51,17.21h-4.17V14.85h11v2.36H206.3V32.35h-2.79Z" fill="#3b4351"/><path d="M210.83,23.6c0-6.25,1.77-9.09,5.78-9.09s5.79,2.84,5.79,9.09-1.77,9.09-5.79,9.09S210.83,29.85,210.83,23.6Zm8.77-.07c0-5.88-1.32-6.91-3-6.91s-3,1-3,6.91,1.33,7.06,3,7.06S219.6,29.53,219.6,23.53Z" fill="#3b4351"/><path d="M224.87,14.85h3.41l5.07,13h.05v-13H236v17.5h-3.4L227.57,19h0V32.35h-2.65Z" fill="#3b4351"/><path d="M241.09,26.93v.44c0,2.14.95,3.22,2.87,3.22A2.51,2.51,0,0,0,246.6,28c0-1.84-.93-2.65-2.5-3.12l-1.91-.66c-2.55-1-3.65-2.3-3.65-4.8,0-3.19,2.18-5,5.44-5,4.49,0,5,2.79,5,4.61v.39h-2.79v-.37c0-1.59-.69-2.52-2.45-2.52a2.24,2.24,0,0,0-2.36,2.52c0,1.5.76,2.26,2.63,3l1.88.68c2.48.88,3.56,2.21,3.56,4.63,0,3.73-2.26,5.27-5.79,5.27-4.33,0-5.31-2.89-5.31-5.34v-.42Z" fill="#3b4351"/></g></g></svg>