<svg id="Text" xmlns="http://www.w3.org/2000/svg" viewBox="0 0 1847.91 114"><title>ce0250text</title><g id="Romans"><path d="M632.53,11.38h6.17c2.45,0,4.44,1.25,4.44,4.51,0,2.26-1,4-2.92,4.29v.05c1.77.17,2.65,1.13,2.75,3.58,0,1.15,0,2.5.09,3.55a1.92,1.92,0,0,0,.84,1.52h-3.16a2.93,2.93,0,0,1-.47-1.55c0-.51-.07-1-.07-1.56s0-1.11-.05-1.74c-.07-1.91-.66-2.75-2.55-2.75h-2.28v7.6h-2.79Zm5,7.79a2.57,2.57,0,0,0,2.79-2.84c0-1.86-.78-2.84-2.64-2.84h-2.38v5.68Z"/><path d="M645.27,20.13c0-6.25,1.76-9.09,5.78-9.09s5.78,2.84,5.78,9.09-1.76,9.09-5.78,9.09S645.27,26.38,645.27,20.13Zm8.77-.07c0-5.88-1.32-6.91-3-6.91s-3,1-3,6.91,1.32,7.05,3,7.05S654,26.06,654,20.06Z"/><path d="M659.31,11.38h4.36l3.09,13h0l3-13h4.27v17.5h-2.65V14.32h-.05l-3.53,14.56h-2.35L662,14.32h0V28.88h-2.64Z"/><path d="M680.3,11.38h3.58l4.61,17.5h-2.92l-1.08-4.29h-5.12l-1.13,4.29h-2.91Zm3.73,11-2-8.63h0l-2.08,8.63Z"/><path d="M689.71,11.38h3.41l5.07,13h0v-13h2.64v17.5h-3.4L692.41,15.5h0V28.88h-2.65Z"/><path d="M705.93,23.46v.44c0,2.14,1,3.21,2.87,3.21a2.5,2.5,0,0,0,2.64-2.54c0-1.84-.93-2.65-2.5-3.12L707,20.79c-2.55-1-3.65-2.3-3.65-4.8,0-3.19,2.18-5,5.44-5,4.49,0,4.95,2.79,4.95,4.61V16H711v-.37c0-1.59-.69-2.52-2.45-2.52a2.24,2.24,0,0,0-2.36,2.52c0,1.5.76,2.25,2.63,3l1.88.68c2.48.88,3.56,2.21,3.56,4.63,0,3.73-2.26,5.27-5.79,5.27-4.33,0-5.31-2.89-5.31-5.34v-.42Z"/></g></svg>