<svg xmlns="http://www.w3.org/2000/svg" viewBox="0 0 1847.91 115"><title>ce0200text</title><g id="YEARS"><g id="Right"><path d="M1799.69,104.79h-10.76c0-8,7.72-7.82,7.72-13.54,0-1.54-.65-2.79-2.29-2.79-2.21,0-2.57,2-2.57,3.85H1789c0-3.64,1.51-5.93,5.44-5.93,3.74,0,5.2,2.24,5.2,4.92,0,6.11-6,6.47-7.39,11h7.46Z" fill="#3b4351"/><path d="M1806.79,86.38c3.54,0,5.51,2.21,5.51,9.39s-2,9.39-5.51,9.39-5.51-2.21-5.51-9.39S1803.26,86.38,1806.79,86.38Zm0,16.7c2,0,2.55-2,2.55-7.31s-.55-7.31-2.55-7.31-2.55,2-2.55,7.31S1804.79,103.08,1806.79,103.08Z" fill="#3b4351"/><path d="M1819.27,86.38c3.54,0,5.51,2.21,5.51,9.39s-2,9.39-5.51,9.39-5.51-2.21-5.51-9.39S1815.73,86.38,1819.27,86.38Zm0,16.7c2,0,2.55-2,2.55-7.31s-.55-7.31-2.55-7.31-2.55,2-2.55,7.31S1817.27,103.08,1819.27,103.08Z" fill="#3b4351"/></g><g id="left"><path d="M29.94,108.39H19.18c0-8,7.72-7.83,7.72-13.55,0-1.53-.65-2.78-2.29-2.78-2.21,0-2.57,2-2.57,3.85H19.23c0-3.64,1.51-5.93,5.44-5.93,3.74,0,5.2,2.24,5.2,4.92,0,6.11-6,6.47-7.39,11h7.46Z" fill="#3b4351"/><path d="M37,90c3.54,0,5.51,2.21,5.51,9.39s-2,9.39-5.51,9.39-5.51-2.22-5.51-9.39S33.51,90,37,90Zm0,16.7c2,0,2.55-2,2.55-7.31S39,92.06,37,92.06s-2.55,2-2.55,7.31S35,106.68,37,106.68Z" fill="#3b4351"/><path d="M49.52,90C53.06,90,55,92.19,55,99.37s-2,9.39-5.51,9.39S44,106.54,44,99.37,46,90,49.52,90Zm0,16.7c2,0,2.55-2,2.55-7.31s-.55-7.31-2.55-7.31S47,94,47,99.37,47.52,106.68,49.52,106.68Z" fill="#3b4351"/></g></g><g id="Text"><g id="Huns"><path d="M1545,89.25h2.79v7H1553v-7h2.79v17.5H1553V98.61h-5.15v8.14H1545Z" fill="#3b4351"/><path d="M1565.21,105.21h-.07a3.79,3.79,0,0,1-3.39,1.88c-2,0-3.28-.9-3.28-4.31V93.57h2.65V103c0,1.47.63,2,1.79,2a2.06,2.06,0,0,0,2.15-2.21V93.57h2.65v13.18h-2.5Z" fill="#3b4351"/><path d="M1570.26,93.57h2.49v1.54h.08a3.77,3.77,0,0,1,3.38-1.89c2,0,3.28.91,3.28,3.58v10h-2.64v-9c0-1.77-.47-2.38-1.84-2.38-1.08,0-2.11.81-2.11,2.57v8.85h-2.64Z" fill="#3b4351"/><path d="M1587.72,97.41v-.34c0-1-.36-2-1.74-2-1,0-1.88.46-1.88,1.71,0,1.06.46,1.45,1.86,1.94l1.69.59c2,.66,2.87,1.71,2.87,3.79,0,2.82-2.09,4-4.73,4-3.33,0-4.34-1.54-4.34-4.09v-.49h2.35v.42c0,1.54.52,2.35,2.06,2.35s2.16-.74,2.16-1.94a1.91,1.91,0,0,0-1.45-1.93l-2.15-.76c-2-.66-2.82-1.69-2.82-3.8,0-2.48,1.76-3.63,4.51-3.63,3.35,0,4.11,2,4.11,3.61v.58Z" fill="#3b4351"/></g><g id="Persians"><path d="M1173.42,72.87v.44c0,2.14,1,3.22,2.87,3.22a2.51,2.51,0,0,0,2.65-2.55c0-1.84-.93-2.65-2.5-3.12l-1.91-.66c-2.55-1-3.66-2.3-3.66-4.8,0-3.19,2.19-5,5.44-5,4.49,0,5,2.79,5,4.61v.39h-2.8v-.37c0-1.59-.68-2.52-2.45-2.52a2.23,2.23,0,0,0-2.35,2.52c0,1.5.76,2.26,2.62,3l1.89.68c2.47.88,3.55,2.21,3.55,4.63,0,3.73-2.25,5.27-5.78,5.27-4.34,0-5.32-2.89-5.32-5.34v-.42Z" fill="#3b4351"/><path d="M1192.46,75.54c0,.5.3.94.69.94a1,1,0,0,0,.44-.08v1.72a2.86,2.86,0,0,1-1.3.32c-1.18,0-2.16-.47-2.23-1.74h0a3.39,3.39,0,0,1-3.28,1.93c-2.13,0-3.43-1.15-3.43-3.7,0-2.94,1.3-3.55,3.06-4.14l2.06-.56c.95-.27,1.54-.54,1.54-1.69s-.41-2-1.81-2c-1.77,0-2,1.25-2,2.52h-2.5c0-2.82,1.15-4.34,4.63-4.34,2.33,0,4.19.91,4.19,3.24Zm-2.5-4.21a20,20,0,0,1-2.94,1.22,2.18,2.18,0,0,0-1.08,2.14c0,1.1.54,2,1.64,2,1.6,0,2.38-1.17,2.38-3.13Z" fill="#3b4351"/><path d="M1200.84,69v-.34c0-1-.37-2-1.74-2-1,0-1.89.46-1.89,1.71,0,1,.47,1.45,1.86,1.94l1.7.59c2,.66,2.86,1.71,2.86,3.79,0,2.82-2.08,4-4.73,4-3.33,0-4.33-1.54-4.33-4.09v-.49h2.35v.42c0,1.54.51,2.35,2.06,2.35s2.15-.74,2.15-1.94a1.91,1.91,0,0,0-1.44-1.93l-2.16-.76c-2-.66-2.82-1.69-2.82-3.8,0-2.48,1.77-3.63,4.51-3.63,3.36,0,4.12,2,4.12,3.61V69Z" fill="#3b4351"/><path d="M1211.28,69v-.34c0-1-.37-2-1.74-2-1.06,0-1.89.46-1.89,1.71,0,1,.46,1.45,1.86,1.94l1.69.59c2,.66,2.87,1.71,2.87,3.79,0,2.82-2.08,4-4.73,4-3.33,0-4.34-1.54-4.34-4.09v-.49h2.35v.42c0,1.54.52,2.35,2.06,2.35s2.16-.74,2.16-1.94a1.91,1.91,0,0,0-1.45-1.93l-2.15-.76c-2-.66-2.82-1.69-2.82-3.8,0-2.48,1.76-3.63,4.51-3.63,3.36,0,4.12,2,4.12,3.61V69Z" fill="#3b4351"/><path d="M1224.68,75.54c0,.5.29.94.68.94a1,1,0,0,0,.45-.08v1.72a2.86,2.86,0,0,1-1.3.32c-1.18,0-2.16-.47-2.23-1.74h0a3.41,3.41,0,0,1-3.29,1.93c-2.13,0-3.43-1.15-3.43-3.7,0-2.94,1.3-3.55,3.07-4.14l2.06-.56c.95-.27,1.54-.54,1.54-1.69s-.42-2-1.81-2c-1.77,0-2,1.25-2,2.52h-2.5c0-2.82,1.15-4.34,4.63-4.34,2.33,0,4.19.91,4.19,3.24Zm-2.5-4.21a20.45,20.45,0,0,1-2.94,1.22,2.18,2.18,0,0,0-1.08,2.14c0,1.1.54,2,1.64,2,1.59,0,2.38-1.17,2.38-3.13Z" fill="#3b4351"/><path d="M1227.37,65.11h2.5v1.54h.07a3.8,3.8,0,0,1,3.39-1.89c2,0,3.28.91,3.28,3.58v10H1234v-9c0-1.77-.46-2.38-1.83-2.38-1.08,0-2.11.81-2.11,2.57v8.85h-2.65Z" fill="#3b4351"/><path d="M1239.28,60.6h2.64v2.64h-2.64Zm0,4.51h2.64V78.29h-2.64Z" fill="#3b4351"/><path d="M1253.24,75.54c0,.5.3.94.69.94a1,1,0,0,0,.44-.08v1.72a2.83,2.83,0,0,1-1.3.32c-1.17,0-2.15-.47-2.23-1.74h0a3.39,3.39,0,0,1-3.28,1.93c-2.13,0-3.43-1.15-3.43-3.7,0-2.94,1.3-3.55,3.06-4.14l2.06-.56c1-.27,1.54-.54,1.54-1.69s-.41-2-1.81-2c-1.76,0-2,1.25-2,2.52h-2.5c0-2.82,1.15-4.34,4.63-4.34,2.33,0,4.19.91,4.19,3.24Zm-2.5-4.21a20,20,0,0,1-2.94,1.22,2.17,2.17,0,0,0-1.07,2.14c0,1.1.54,2,1.64,2,1.59,0,2.37-1.17,2.37-3.13Z" fill="#3b4351"/><path d="M1255.94,65.11h2.5v1.54h.07a3.77,3.77,0,0,1,3.38-1.89c2,0,3.29.91,3.29,3.58v10h-2.65v-9c0-1.77-.47-2.38-1.84-2.38-1.08,0-2.11.81-2.11,2.57v8.85h-2.64Z" fill="#3b4351"/><path d="M1172.16,87.79h5.54c3.36,0,4.83,2.11,4.83,5.1,0,3.14-1.87,5.17-5.12,5.17H1175v7.23h-2.79ZM1175,96h2c1.49,0,2.79-.78,2.79-3,0-1.89-.76-3-3-3H1175Z" fill="#3b4351"/><path d="M1184.41,87.79h9.46v2.35h-6.67V95h6.28v2.35h-6.28v5.59h6.87v2.35h-9.66Z" fill="#3b4351"/><path d="M1196.2,87.79h6.17c2.45,0,4.44,1.25,4.44,4.51,0,2.26-1,4-2.92,4.29v0c1.76.17,2.65,1.13,2.75,3.58,0,1.15,0,2.5.09,3.55a1.92,1.92,0,0,0,.84,1.52h-3.17a3,3,0,0,1-.46-1.54c0-.52-.07-1.06-.07-1.57s0-1.11,0-1.74c-.08-1.91-.67-2.75-2.55-2.75H1199v7.6h-2.79Zm5,7.8a2.58,2.58,0,0,0,2.79-2.85c0-1.86-.78-2.84-2.64-2.84H1199v5.69Z" fill="#3b4351"/><path d="M1211.51,99.87v.44c0,2.14,1,3.22,2.87,3.22A2.51,2.51,0,0,0,1217,101c0-1.84-.93-2.65-2.5-3.12l-1.91-.66c-2.55-1-3.65-2.3-3.65-4.8,0-3.19,2.18-5,5.44-5,4.48,0,4.95,2.79,4.95,4.61v.39h-2.79v-.37c0-1.59-.69-2.52-2.45-2.52a2.23,2.23,0,0,0-2.36,2.52c0,1.5.76,2.26,2.63,3l1.88.68c2.48.88,3.56,2.21,3.56,4.63,0,3.73-2.26,5.27-5.79,5.27-4.34,0-5.32-2.89-5.32-5.34v-.42Z" fill="#3b4351"/><path d="M1221.94,87.79h2.8v17.5h-2.8Z" fill="#3b4351"/><path d="M1230.81,87.79h3.58l4.61,17.5h-2.92L1235,101h-5.12l-1.12,4.29h-2.92Zm3.73,11-2-8.63h0l-2.08,8.63Z" fill="#3b4351"/><path d="M1240.22,87.79h3.41l5.07,13h0v-13h2.65v17.5H1248l-5.07-13.38h-.05v13.38h-2.65Z" fill="#3b4351"/><path d="M1256.44,99.87v.44c0,2.14,1,3.22,2.87,3.22A2.51,2.51,0,0,0,1262,101c0-1.84-.93-2.65-2.5-3.12l-1.91-.66c-2.55-1-3.65-2.3-3.65-4.8,0-3.19,2.18-5,5.44-5,4.49,0,5,2.79,5,4.61v.39h-2.79v-.37c0-1.59-.69-2.52-2.45-2.52a2.24,2.24,0,0,0-2.36,2.52c0,1.5.76,2.26,2.63,3l1.88.68c2.48.88,3.56,2.21,3.56,4.63,0,3.73-2.26,5.27-5.79,5.27-4.33,0-5.31-2.89-5.31-5.34v-.42Z" fill="#3b4351"/></g></g></svg>