<svg id="Text" xmlns="http://www.w3.org/2000/svg" viewBox="0 0 1847.91 115"><title>ce0200text</title><g id="Huns"><path d="M1545,89.25h2.79v7H1553v-7h2.79v17.5H1553V98.61h-5.15v8.14H1545Z"/><path d="M1565.21,105.21h-.07a3.79,3.79,0,0,1-3.39,1.88c-2,0-3.28-.9-3.28-4.31V93.57h2.65V103c0,1.47.63,2,1.79,2a2.06,2.06,0,0,0,2.15-2.21V93.57h2.65v13.18h-2.5Z"/><path d="M1570.26,93.57h2.49v1.54h.08a3.77,3.77,0,0,1,3.38-1.89c2,0,3.28.91,3.28,3.58v10h-2.64v-9c0-1.77-.47-2.38-1.84-2.38-1.08,0-2.11.81-2.11,2.57v8.85h-2.64Z"/><path d="M1587.72,97.41v-.34c0-1-.36-2-1.74-2-1,0-1.88.46-1.88,1.71,0,1.06.46,1.45,1.86,1.94l1.69.59c2,.66,2.87,1.71,2.87,3.79,0,2.82-2.09,4-4.73,4-3.33,0-4.34-1.54-4.34-4.09v-.49h2.35v.42c0,1.54.52,2.35,2.06,2.35s2.16-.74,2.16-1.94a1.91,1.91,0,0,0-1.45-1.93l-2.15-.76c-2-.66-2.82-1.69-2.82-3.8,0-2.48,1.76-3.63,4.51-3.63,3.35,0,4.11,2,4.11,3.61v.58Z"/></g></svg>