<svg xmlns="http://www.w3.org/2000/svg" viewBox="0 0 1847.91 115"><title>ce0200text</title><g id="YEARS"><g id="Right"><path d="M1805,107.59h-10.76c0-8,7.72-7.83,7.72-13.55,0-1.54-.65-2.78-2.29-2.78-2.21,0-2.58,2-2.58,3.85h-2.8c0-3.65,1.5-5.93,5.43-5.93,3.75,0,5.2,2.23,5.2,4.91,0,6.11-6,6.47-7.38,11H1805Z" fill="#3b4351"/><path d="M1812.08,89.18c3.53,0,5.51,2.21,5.51,9.38s-2,9.39-5.51,9.39-5.52-2.21-5.52-9.39S1808.54,89.18,1812.08,89.18Zm0,16.69c2,0,2.54-2,2.54-7.31s-.54-7.3-2.54-7.3-2.55,2-2.55,7.3S1810.07,105.87,1812.08,105.87Z" fill="#3b4351"/><path d="M1824.56,89.18c3.53,0,5.51,2.21,5.51,9.38s-2,9.39-5.51,9.39-5.52-2.21-5.52-9.39S1821,89.18,1824.56,89.18Zm0,16.69c2,0,2.54-2,2.54-7.31s-.54-7.3-2.54-7.3-2.55,2-2.55,7.3S1822.55,105.87,1824.56,105.87Z" fill="#3b4351"/></g><g id="left"><path d="M29.94,109.49H19.18c0-8,7.72-7.82,7.72-13.54,0-1.54-.65-2.79-2.29-2.79-2.21,0-2.57,2-2.57,3.85H19.23c0-3.64,1.51-5.93,5.44-5.93,3.74,0,5.2,2.24,5.2,4.92,0,6.11-6,6.47-7.39,11h7.46Z" fill="#3b4351"/><path d="M37,91.08c3.54,0,5.51,2.21,5.51,9.39s-2,9.39-5.51,9.39-5.51-2.21-5.51-9.39S33.51,91.08,37,91.08Zm0,16.7c2,0,2.55-2,2.55-7.31S39,93.16,37,93.16s-2.55,2-2.55,7.31S35,107.78,37,107.78Z" fill="#3b4351"/><path d="M49.52,91.08c3.54,0,5.51,2.21,5.51,9.39s-2,9.39-5.51,9.39S44,107.65,44,100.47,46,91.08,49.52,91.08Zm0,16.7c2,0,2.55-2,2.55-7.31s-.55-7.31-2.55-7.31-2.55,2-2.55,7.31S47.52,107.78,49.52,107.78Z" fill="#3b4351"/></g></g><g id="Nation_OUtlines" data-name="Nation OUtlines"><polygon id="Romans" points="854.62 3035.83 829.93 2922.83 711.95 2813.83 764.62 2699.83 729.95 2584.83 845.28 2473.83 1002.62 2361.83 1065.29 2247.83 1021.28 2136.83 995.34 2019.83 815.28 1911.83 703.28 1800.83 687.28 1685.83 737.95 1571.83 780.62 1459.83 712.62 1348.83 645.95 1234.83 550.62 1121.83 491.95 1012 453.95 899 455.29 787 435.95 672 470.62 564 322.62 564 416.12 451 480.12 341 410.62 229 316.95 115 248.28 0 210.28 -111 175.95 -222 159.62 -338 91.28 -451 83.12 -556 117.62 -670 151.37 -784 129.62 -894 109.62 -1009 99.62 -1121 73.12 -1231 75.42 -2129 85.95 -2019 95.28 -1907 111.95 -1795 116.62 -1684 137.95 -1571 149.95 -1455 169.95 -1343 205.28 -1231 231.95 -1121 287.74 -1009 467.73 -894 683.72 -784 998.71 -670 1118.7 -556 1131.14 -451 1195.2 -338 1182.62 -222 1245.62 -111 1220.62 0 1122.62 115 981.62 229 880.12 341 717.95 451 593.62 564 616.62 672 717.28 787 839.28 901.84 863.28 1012 915.28 1121.83 810.62 1234.83 885.95 1348.83 1037.95 1459.83 1125.95 1571.83 1253.95 1685.83 1213.95 1800.83 1202.62 1911.83 1169.95 2019.83 1161.29 2136.83 1218.62 2247.83 1131.95 2361.83 936.62 2473.83 798.62 2584.83 819.28 2699.83 759.95 2813.83 849.28 2922.83 854.62 3035.83" fill="none" stroke="#3b4351" stroke-miterlimit="10"/><polygon id="Indians" points="1372.19 -2464.83 1294.19 -2579 1285.19 -2692 1313.69 -2803 1348.19 -2916 1310.69 -3030 1298.69 -3140 1313.69 -3252 1345.19 -3364 1325.69 -3478 1343.69 -3592 1417.19 -3703 1400.69 -3816.08 1429.19 -3929 1419.27 -4044.27 1387.19 -4156 1387.19 -4268 1438.19 -4378.5 1462.18 -4490.5 1480.18 -4603.54 1445.82 -4713.83 1411.11 -4825.83 1545.86 -4825.83 1580.1 -4713.83 1593.12 -4603.6 1552.12 -4490.5 1514.62 -4378.5 1514.12 -4268.33 1553.12 -4156.27 1548.12 -4044 1519.62 -3929 1534.12 -3815.33 1575.12 -3703 1559.62 -3592 1564.12 -3478.27 1534.62 -3364 1486.12 -3252 1465.12 -3140 1471.12 -3030.83 1502.12 -2916.83 1508.12 -2803 1534.62 -2692 1542.77 -2613.14 1555.62 -2464.83 1554.62 -2356 1567.12 -2244 1542.12 -2129.27 1498.12 -2019 1490.62 -1907 1513.12 -1795 1568.62 -1684 1544.12 -1571 1530.62 -1455.27 1523.62 -1343.27 1532.62 -1231 1565.12 -1121 1543.62 -1009 1514.12 -894 1490.12 -784.27 1495.62 -670 1517.12 -556.33 1528.12 -451 1580.62 -338.33 1578.12 -222.33 1578.12 -111.83 1560.12 -0.27 1526.62 115 1467.62 229 1381.62 340.73 1270.62 451 1090.12 563.73 860.62 672 1302.12 787 1377.03 899 1550.62 1012 1519.62 1121.83 1476.12 1234.83 1516.13 1348.83 1534.62 1461.17 1552.65 1571.83 1585.62 1685.73 1620.12 1800.83 1650.12 1911.83 1630.62 2019.73 1622.45 2136.73 1565.62 2247.83 1402.62 2361.17 1173.62 2473.83 1148.62 2584.83 1334.62 2699.83 1283.62 2813.83 1344.62 2922.83 1544.62 3035.83 1602.62 3150.17 1627.62 3261.83 1674.62 3374.73 1627.62 3489.83 1634.62 3601.83 1686.62 3713.83 1701.62 3826.83 1620.12 3938.83 1606.12 4049.83 1606.12 4163.66 1552.62 4163.66 1549.52 4049.83 1569.62 3938.83 1683.62 3826.83 1667.62 3713.83 1607.62 3601.83 1596.62 3489.17 1617.62 3374.83 1584.62 3261.83 1562.62 3149.83 1507.62 3035.83 1304.62 2922.73 1225.62 2813.73 1236.97 2776.78 1264.87 2699.83 1082.62 2584.83 1084.2 2474.34 1323.62 2361.83 1500.47 2247.73 1573.62 2136.83 1600.62 2019.83 1604.62 1911.83 1569.62 1800.83 1514.62 1685.83 1447.62 1571.73 1418.62 1459.83 1404.62 1348.83 1367.62 1234.83 1397.62 1121.83 1418.62 1011.73 1339.62 898.73 1246.62 787 748.62 672 753.62 564 910.76 451 1053.62 341 1195.2 229 1311.62 114.17 1353.62 0 1348.62 -111 1364.62 -222.83 1406.62 -338 1401.62 -451 1429.62 -556 1394.62 -670.27 1393.2 -784 1391.82 -894.27 1437.52 -1009 1513.62 -1121.27 1505.64 -1231 1472.62 -1342.83 1447.62 -1455 1440.63 -1571 1462.62 -1684 1391.1 -1795 1348.62 -1907 1332.62 -2019 1376.98 -2129 1375.34 -2244.27 1373.74 -2356.27 1372.19 -2464.83" fill="none" stroke="#3b4351" stroke-miterlimit="10"/><polygon id="Huns" points="1555.62 -2464.83 1545.73 -2579 1533.62 -2692.33 1506.68 -2802.36 1502.16 -2916 1471.34 -3030 1465.12 -3140 1486.12 -3252 1534.62 -3364 1564.05 -3478 1559.62 -3592 1575.12 -3703 1534.24 -3815 1519.62 -3929 1548.12 -4044 1553.11 -4156 1514.47 -4268.27 1514.62 -4380.5 1552.12 -4490.5 1593.12 -4603.16 1580.1 -4713.83 1545.86 -4825.83 1633.99 -4825.83 1651.62 -4713.83 1667.62 -4603.16 1646.62 -4490.5 1620.62 -4378.5 1630.4 -4270.4 1650.62 -4156.33 1676.62 -4044 1700.12 -3929 1689.12 -3815 1714.62 -3703.33 1697.12 -3592.27 1645.62 -3478.27 1616.12 -3364 1586.62 -3252.27 1538.12 -3140.27 1509.12 -3030 1551.62 -2916 1585.12 -2803 1608.62 -2692.33 1609.69 -2579.27 1610.76 -2466.27 1613.62 -2356.27 1625.12 -2244.27 1599.12 -2128.33 1557.59 -2019 1545.65 -1907 1558.62 -1795 1584.62 -1684.27 1571.12 -1570.83 1576.62 -1455 1567.62 -1343 1587.12 -1231 1621.12 -1121 1612.12 -1009 1556.12 -894 1528.62 -784 1529.62 -670 1553.62 -556 1616.07 -451 1609.25 -338 1592.66 -222 1611.01 -111.27 1612.12 0 1598.04 115 1564.12 229 1534.29 341 1602.12 450.73 1653.62 564 1673.62 672 1666.12 787 1668.12 898.67 1625.62 1011.67 1542.12 1121.83 1476.12 1234.83 1519.62 1121.83 1550.62 1012 1376.62 898.73 1302.12 787 860.62 672 1090.12 563.73 1270.62 451 1381.62 340.73 1467.62 229 1526.62 115 1560.12 -0.27 1578.12 -111.83 1578.12 -222.33 1580.62 -338.33 1528.12 -451 1517.12 -556.33 1495.62 -670 1490.12 -784.27 1514.12 -894 1543.62 -1009 1565.12 -1121 1532.62 -1231 1523.62 -1343.27 1530.62 -1455.27 1544.12 -1571 1568.62 -1684 1513.12 -1795 1490.62 -1907 1498.12 -2019 1542.12 -2129.27 1567.12 -2244 1554.62 -2356 1555.62 -2464.83" fill="none" stroke="#3b4351" stroke-miterlimit="10"/><polygon id="Chinese" points="1610.76 -2466.27 1609.69 -2579.27 1608.62 -2692.33 1585.12 -2803 1551.62 -2916 1509.12 -3030 1538.12 -3140.27 1586.62 -3252.27 1616.12 -3364 1645.62 -3478.27 1697.12 -3592.27 1714.62 -3703.33 1689.12 -3815 1700.12 -3929 1676.62 -4044 1650.62 -4156.33 1630.62 -4268 1620.62 -4378.5 1646.62 -4490.5 1667.62 -4603.16 1651.62 -4713.83 1633.99 -4825.83 1768.79 -4825.83 1768.79 3374.83 1768.79 3489.73 1766.12 3601.83 1757.62 3713.83 1736.12 3826.73 1676.12 3938.73 1661.12 4049.83 1663.62 4163.66 1606.12 4163.66 1606.12 4049.73 1620.12 3938.83 1701.62 3826.83 1696.12 3713.67 1654.12 3601.83 1681.62 3489.83 1739.62 3374.73 1748.62 3261.67 1744.12 3149.67 1685.62 3035.83 1615.12 2925.17 1636.12 2813.83 1738.62 2699.83 1761.12 2584.83 1758.62 2473.83 1732.12 2361.83 1695.62 2247.83 1667.62 2136.83 1651.12 2019.83 1650.12 1911.83 1620.12 1800.83 1585.62 1685.73 1552.62 1571.73 1535.12 1459.83 1516.12 1348.73 1476.12 1234.83 1542.12 1121.83 1625.62 1011.67 1668.12 898.67 1666.12 787 1673.62 672 1653.62 564 1602.12 450.73 1534.12 340.73 1564.12 229 1598.12 114.73 1612.12 0 1611.01 -111.27 1592.62 -222.27 1609.25 -338 1616.07 -451 1553.62 -556 1529.62 -670 1528.62 -784.27 1555.62 -894 1612.12 -1009 1621.12 -1121 1587.12 -1231 1567.62 -1343 1576.62 -1455 1571.12 -1571 1584.62 -1684.27 1558.62 -1795 1545.62 -1907.27 1557.62 -2019.27 1599.62 -2129 1625.12 -2244.27 1613.62 -2356.27 1610.76 -2466.27" fill="none" stroke="#3b4351" stroke-miterlimit="10"/><polygon id="Teutons_-Goths" data-name="Teutons -Goths" points="712.62 1348.83 392.87 1234.83 333.12 1121.83 298.12 1012 257.62 899 192.12 787 189.69 672 168.12 564 138.62 453.42 101.12 341 73.12 231.67 73.12 -1231 99.62 -1121 109.62 -1009 129.3 -891.61 151.37 -784 117.62 -670 83.12 -556 91.28 -451 159.62 -338 175.95 -222 210.28 -111 248.28 0 316.95 115 410.62 229 480.12 341 416.12 451 322.62 564 328.12 672 455.29 787 453.95 899 425.12 1012 461.12 1121.83 536.62 1234.83 712.62 1348.83" fill="none" stroke="#3b4351" stroke-miterlimit="10"/><polygon id="Parthian_empire" data-name="Parthian empire" points="1245.62 -111 1182.62 -222 1195.2 -340.69 1157.7 -451 1189.62 -555.33 1218.62 -670 1333.62 -780.4 1341.62 -670 1363.19 -556 1401.62 -451 1406.62 -338 1364.62 -222.83 1348.62 -111 1353.62 0 1311.62 114.17 1220.62 0 1245.62 -111" fill="none" stroke="#3b4351" stroke-miterlimit="10"/><polygon id="Moslem_Arabs_and_Persian" data-name="Moslem Arabs and Persian" points="717.95 451 880.12 341 981.62 229 1122.62 115 1220.62 0 1311.62 114.17 1195.2 229 1053.62 341 910.76 451 753.62 564 593.62 564 717.95 451" fill="none" stroke="#3b4351" stroke-miterlimit="10"/></g><g id="Text"><g id="Huns-2" data-name="Huns"><path d="M1545,89.25h2.79v7H1553v-7h2.79v17.5H1553V98.61h-5.15v8.14H1545Z" fill="#3b4351"/><path d="M1565.21,105.21h-.07a3.79,3.79,0,0,1-3.39,1.88c-2,0-3.28-.9-3.28-4.31V93.57h2.65V103c0,1.47.63,2,1.79,2a2.06,2.06,0,0,0,2.15-2.21V93.57h2.65v13.18h-2.5Z" fill="#3b4351"/><path d="M1570.26,93.57h2.49v1.54h.08a3.77,3.77,0,0,1,3.38-1.89c2,0,3.28.91,3.28,3.58v10h-2.64v-9c0-1.77-.47-2.38-1.84-2.38-1.08,0-2.11.81-2.11,2.57v8.85h-2.64Z" fill="#3b4351"/><path d="M1587.72,97.41v-.34c0-1-.36-2-1.74-2-1,0-1.88.46-1.88,1.71,0,1.06.46,1.45,1.86,1.94l1.69.59c2,.66,2.87,1.71,2.87,3.79,0,2.82-2.09,4-4.73,4-3.33,0-4.34-1.54-4.34-4.09v-.49h2.35v.42c0,1.54.52,2.35,2.06,2.35s2.16-.74,2.16-1.94a1.91,1.91,0,0,0-1.45-1.93l-2.15-.76c-2-.66-2.82-1.69-2.82-3.8,0-2.48,1.76-3.63,4.51-3.63,3.35,0,4.11,2,4.11,3.61v.58Z" fill="#3b4351"/></g><g id="Persians"><path d="M1173.42,72.87v.44c0,2.14,1,3.22,2.87,3.22a2.51,2.51,0,0,0,2.65-2.55c0-1.84-.93-2.65-2.5-3.12l-1.91-.66c-2.55-1-3.66-2.3-3.66-4.8,0-3.19,2.19-5,5.44-5,4.49,0,5,2.79,5,4.61v.39h-2.8v-.37c0-1.59-.68-2.52-2.45-2.52a2.23,2.23,0,0,0-2.35,2.52c0,1.5.76,2.26,2.62,3l1.89.68c2.47.88,3.55,2.21,3.55,4.63,0,3.73-2.25,5.27-5.78,5.27-4.34,0-5.32-2.89-5.32-5.34v-.42Z" fill="#3b4351"/><path d="M1192.46,75.54c0,.5.3.94.69.94a1,1,0,0,0,.44-.08v1.72a2.86,2.86,0,0,1-1.3.32c-1.18,0-2.16-.47-2.23-1.74h0a3.39,3.39,0,0,1-3.28,1.93c-2.13,0-3.43-1.15-3.43-3.7,0-2.94,1.3-3.55,3.06-4.14l2.06-.56c.95-.27,1.54-.54,1.54-1.69s-.41-2-1.81-2c-1.77,0-2,1.25-2,2.52h-2.5c0-2.82,1.15-4.34,4.63-4.34,2.33,0,4.19.91,4.19,3.24Zm-2.5-4.21a20,20,0,0,1-2.94,1.22,2.18,2.18,0,0,0-1.08,2.14c0,1.1.54,2,1.64,2,1.6,0,2.38-1.17,2.38-3.13Z" fill="#3b4351"/><path d="M1200.84,69v-.34c0-1-.37-2-1.74-2-1,0-1.89.46-1.89,1.71,0,1,.47,1.45,1.86,1.94l1.7.59c2,.66,2.86,1.71,2.86,3.79,0,2.82-2.08,4-4.73,4-3.33,0-4.33-1.54-4.33-4.09v-.49h2.35v.42c0,1.54.51,2.35,2.06,2.35s2.15-.74,2.15-1.94a1.91,1.91,0,0,0-1.44-1.93l-2.16-.76c-2-.66-2.82-1.69-2.82-3.8,0-2.48,1.77-3.63,4.51-3.63,3.36,0,4.12,2,4.12,3.61V69Z" fill="#3b4351"/><path d="M1211.28,69v-.34c0-1-.37-2-1.74-2-1.06,0-1.89.46-1.89,1.71,0,1,.46,1.45,1.86,1.94l1.69.59c2,.66,2.87,1.71,2.87,3.79,0,2.82-2.08,4-4.73,4-3.33,0-4.34-1.54-4.34-4.09v-.49h2.35v.42c0,1.54.52,2.35,2.06,2.35s2.16-.74,2.16-1.94a1.91,1.91,0,0,0-1.45-1.93l-2.15-.76c-2-.66-2.82-1.69-2.82-3.8,0-2.48,1.76-3.63,4.51-3.63,3.36,0,4.12,2,4.12,3.61V69Z" fill="#3b4351"/><path d="M1224.68,75.54c0,.5.29.94.68.94a1,1,0,0,0,.45-.08v1.72a2.86,2.86,0,0,1-1.3.32c-1.18,0-2.16-.47-2.23-1.74h0a3.41,3.41,0,0,1-3.29,1.93c-2.13,0-3.43-1.15-3.43-3.7,0-2.94,1.3-3.55,3.07-4.14l2.06-.56c.95-.27,1.54-.54,1.54-1.69s-.42-2-1.81-2c-1.77,0-2,1.25-2,2.52h-2.5c0-2.82,1.15-4.34,4.63-4.34,2.33,0,4.19.91,4.19,3.24Zm-2.5-4.21a20.45,20.45,0,0,1-2.94,1.22,2.18,2.18,0,0,0-1.08,2.14c0,1.1.54,2,1.64,2,1.59,0,2.38-1.17,2.38-3.13Z" fill="#3b4351"/><path d="M1227.37,65.11h2.5v1.54h.07a3.8,3.8,0,0,1,3.39-1.89c2,0,3.28.91,3.28,3.58v10H1234v-9c0-1.77-.46-2.38-1.83-2.38-1.08,0-2.11.81-2.11,2.57v8.85h-2.65Z" fill="#3b4351"/><path d="M1239.28,60.6h2.64v2.64h-2.64Zm0,4.51h2.64V78.29h-2.64Z" fill="#3b4351"/><path d="M1253.24,75.54c0,.5.3.94.69.94a1,1,0,0,0,.44-.08v1.72a2.83,2.83,0,0,1-1.3.32c-1.17,0-2.15-.47-2.23-1.74h0a3.39,3.39,0,0,1-3.28,1.93c-2.13,0-3.43-1.15-3.43-3.7,0-2.94,1.3-3.55,3.06-4.14l2.06-.56c1-.27,1.54-.54,1.54-1.69s-.41-2-1.81-2c-1.76,0-2,1.25-2,2.52h-2.5c0-2.82,1.15-4.34,4.63-4.34,2.33,0,4.19.91,4.19,3.24Zm-2.5-4.21a20,20,0,0,1-2.94,1.22,2.17,2.17,0,0,0-1.07,2.14c0,1.1.54,2,1.64,2,1.59,0,2.37-1.17,2.37-3.13Z" fill="#3b4351"/><path d="M1255.94,65.11h2.5v1.54h.07a3.77,3.77,0,0,1,3.38-1.89c2,0,3.29.91,3.29,3.58v10h-2.65v-9c0-1.77-.47-2.38-1.84-2.38-1.08,0-2.11.81-2.11,2.57v8.85h-2.64Z" fill="#3b4351"/><path d="M1172.16,87.79h5.54c3.36,0,4.83,2.11,4.83,5.1,0,3.14-1.87,5.17-5.12,5.17H1175v7.23h-2.79ZM1175,96h2c1.49,0,2.79-.78,2.79-3,0-1.89-.76-3-3-3H1175Z" fill="#3b4351"/><path d="M1184.41,87.79h9.46v2.35h-6.67V95h6.28v2.35h-6.28v5.59h6.87v2.35h-9.66Z" fill="#3b4351"/><path d="M1196.2,87.79h6.17c2.45,0,4.44,1.25,4.44,4.51,0,2.26-1,4-2.92,4.29v0c1.76.17,2.65,1.13,2.75,3.58,0,1.15,0,2.5.09,3.55a1.92,1.92,0,0,0,.84,1.52h-3.17a3,3,0,0,1-.46-1.54c0-.52-.07-1.06-.07-1.57s0-1.11,0-1.74c-.08-1.91-.67-2.75-2.55-2.75H1199v7.6h-2.79Zm5,7.8a2.58,2.58,0,0,0,2.79-2.85c0-1.86-.78-2.84-2.64-2.84H1199v5.69Z" fill="#3b4351"/><path d="M1211.51,99.87v.44c0,2.14,1,3.22,2.87,3.22A2.51,2.51,0,0,0,1217,101c0-1.84-.93-2.65-2.5-3.12l-1.91-.66c-2.55-1-3.65-2.3-3.65-4.8,0-3.19,2.18-5,5.44-5,4.48,0,4.95,2.79,4.95,4.61v.39h-2.79v-.37c0-1.59-.69-2.52-2.45-2.52a2.23,2.23,0,0,0-2.36,2.52c0,1.5.76,2.26,2.63,3l1.88.68c2.48.88,3.56,2.21,3.56,4.63,0,3.73-2.26,5.27-5.79,5.27-4.34,0-5.32-2.89-5.32-5.34v-.42Z" fill="#3b4351"/><path d="M1221.94,87.79h2.8v17.5h-2.8Z" fill="#3b4351"/><path d="M1230.81,87.79h3.58l4.61,17.5h-2.92L1235,101h-5.12l-1.12,4.29h-2.92Zm3.73,11-2-8.63h0l-2.08,8.63Z" fill="#3b4351"/><path d="M1240.22,87.79h3.41l5.07,13h0v-13h2.65v17.5H1248l-5.07-13.38h-.05v13.38h-2.65Z" fill="#3b4351"/><path d="M1256.44,99.87v.44c0,2.14,1,3.22,2.87,3.22A2.51,2.51,0,0,0,1262,101c0-1.84-.93-2.65-2.5-3.12l-1.91-.66c-2.55-1-3.65-2.3-3.65-4.8,0-3.19,2.18-5,5.44-5,4.49,0,5,2.79,5,4.61v.39h-2.79v-.37c0-1.59-.69-2.52-2.45-2.52a2.24,2.24,0,0,0-2.36,2.52c0,1.5.76,2.26,2.63,3l1.88.68c2.48.88,3.56,2.21,3.56,4.63,0,3.73-2.26,5.27-5.79,5.27-4.33,0-5.31-2.89-5.31-5.34v-.42Z" fill="#3b4351"/></g></g></svg>