<svg xmlns="http://www.w3.org/2000/svg" viewBox="0 0 1847.91 114"><title>ce0250text</title><g id="YEARS"><g id="Right"><path d="M1799.69,104.12h-10.76c0-8,7.72-7.82,7.72-13.54,0-1.54-.65-2.78-2.29-2.78-2.21,0-2.57,2-2.57,3.84H1789c0-3.64,1.51-5.92,5.44-5.92,3.74,0,5.2,2.23,5.2,4.91,0,6.11-6,6.48-7.39,11h7.46Z"/><path d="M1801.38,99.16h2.81v.49a2.35,2.35,0,0,0,2.42,2.6c2.08,0,2.63-2,2.63-4.18s-.58-3.93-2.47-3.93a2.35,2.35,0,0,0-2.42,1.69l-2.63-.1.91-9.65h8.87v2.37h-6.66l-.6,4.83.06,0a4.08,4.08,0,0,1,3.09-1.43c3.85,0,4.81,3.26,4.81,6.09,0,3.69-1.69,6.5-5.67,6.5-3.3,0-5.15-1.69-5.15-4.94Z"/><path d="M1819.27,85.72c3.54,0,5.51,2.21,5.51,9.38s-2,9.39-5.51,9.39-5.51-2.21-5.51-9.39S1815.73,85.72,1819.27,85.72Zm0,16.69c2,0,2.55-2,2.55-7.31s-.55-7.3-2.55-7.3-2.55,2-2.55,7.3S1817.27,102.41,1819.27,102.41Z"/></g><g id="left"><path d="M29.94,107.72H19.18c0-8,7.72-7.82,7.72-13.54,0-1.54-.65-2.78-2.29-2.78-2.21,0-2.57,2-2.57,3.84H19.23c0-3.64,1.51-5.92,5.44-5.92,3.74,0,5.2,2.23,5.2,4.91,0,6.11-6,6.47-7.39,11h7.46Z"/><path d="M31.63,102.76h2.81v.49a2.35,2.35,0,0,0,2.42,2.6c2.08,0,2.63-2,2.63-4.18s-.58-3.93-2.47-3.93a2.35,2.35,0,0,0-2.42,1.69L32,99.33l.91-9.65h8.87V92H35.09l-.6,4.84.06.05a4,4,0,0,1,3.09-1.43c3.85,0,4.81,3.25,4.81,6.09,0,3.69-1.69,6.5-5.67,6.5-3.3,0-5.15-1.69-5.15-4.94Z"/><path d="M49.52,89.32c3.54,0,5.51,2.21,5.51,9.38s-2,9.39-5.51,9.39S44,105.88,44,98.7,46,89.32,49.52,89.32Zm0,16.69c2,0,2.55-2,2.55-7.31s-.55-7.3-2.55-7.3S47,93.37,47,98.7,47.52,106,49.52,106Z"/></g></g><g id="Text"><g id="Romans"><path d="M632.53,11.38h6.17c2.45,0,4.44,1.25,4.44,4.51,0,2.26-1,4-2.92,4.29v.05c1.77.17,2.65,1.13,2.75,3.58,0,1.15,0,2.5.09,3.55a1.92,1.92,0,0,0,.84,1.52h-3.16a2.93,2.93,0,0,1-.47-1.55c0-.51-.07-1-.07-1.56s0-1.11-.05-1.74c-.07-1.91-.66-2.75-2.55-2.75h-2.28v7.6h-2.79Zm5,7.79a2.57,2.57,0,0,0,2.79-2.84c0-1.86-.78-2.84-2.64-2.84h-2.38v5.68Z" fill="#3b4351"/><path d="M645.27,20.13c0-6.25,1.76-9.09,5.78-9.09s5.78,2.84,5.78,9.09-1.76,9.09-5.78,9.09S645.27,26.38,645.27,20.13Zm8.77-.07c0-5.88-1.32-6.91-3-6.91s-3,1-3,6.91,1.32,7.05,3,7.05S654,26.06,654,20.06Z" fill="#3b4351"/><path d="M659.31,11.38h4.36l3.09,13h0l3-13h4.27v17.5h-2.65V14.32h-.05l-3.53,14.56h-2.35L662,14.32h0V28.88h-2.64Z" fill="#3b4351"/><path d="M680.3,11.38h3.58l4.61,17.5h-2.92l-1.08-4.29h-5.12l-1.13,4.29h-2.91Zm3.73,11-2-8.63h0l-2.08,8.63Z" fill="#3b4351"/><path d="M689.71,11.38h3.41l5.07,13h0v-13h2.64v17.5h-3.4L692.41,15.5h0V28.88h-2.65Z" fill="#3b4351"/><path d="M705.93,23.46v.44c0,2.14,1,3.21,2.87,3.21a2.5,2.5,0,0,0,2.64-2.54c0-1.84-.93-2.65-2.5-3.12L707,20.79c-2.55-1-3.65-2.3-3.65-4.8,0-3.19,2.18-5,5.44-5,4.49,0,4.95,2.79,4.95,4.61V16H711v-.37c0-1.59-.69-2.52-2.45-2.52a2.24,2.24,0,0,0-2.36,2.52c0,1.5.76,2.25,2.63,3l1.88.68c2.48.88,3.56,2.21,3.56,4.63,0,3.73-2.26,5.27-5.79,5.27-4.33,0-5.31-2.89-5.31-5.34v-.42Z" fill="#3b4351"/></g><g id="Teutons_-_goths" data-name="Teutons - goths"><path d="M167.22,17.21h-4.16V14.85h11.05v2.36H170V32.35h-2.8Z" fill="#3b4351"/><path d="M175.7,14.85h9.46v2.36h-6.67v4.85h6.28v2.35h-6.28V30h6.86v2.35H175.7Z" fill="#3b4351"/><path d="M190.06,14.85V27.4c0,2.23.88,3.19,2.57,3.19s2.55-1,2.55-3.19V14.85H198V27.18c0,4-2,5.51-5.34,5.51s-5.37-1.47-5.37-5.51V14.85Z" fill="#3b4351"/><path d="M203.51,17.21h-4.17V14.85h11v2.36H206.3V32.35h-2.79Z" fill="#3b4351"/><path d="M210.83,23.6c0-6.25,1.77-9.09,5.78-9.09s5.79,2.84,5.79,9.09-1.77,9.09-5.79,9.09S210.83,29.85,210.83,23.6Zm8.77-.07c0-5.88-1.32-6.91-3-6.91s-3,1-3,6.91,1.33,7.06,3,7.06S219.6,29.53,219.6,23.53Z" fill="#3b4351"/><path d="M224.87,14.85h3.41l5.07,13h.05v-13H236v17.5h-3.4L227.57,19h0V32.35h-2.65Z" fill="#3b4351"/><path d="M241.09,26.93v.44c0,2.14.95,3.22,2.87,3.22A2.51,2.51,0,0,0,246.6,28c0-1.84-.93-2.65-2.5-3.12l-1.91-.66c-2.55-1-3.65-2.3-3.65-4.8,0-3.19,2.18-5,5.44-5,4.49,0,5,2.79,5,4.61v.39h-2.79v-.37c0-1.59-.69-2.52-2.45-2.52a2.24,2.24,0,0,0-2.36,2.52c0,1.5.76,2.26,2.63,3l1.88.68c2.48.88,3.56,2.21,3.56,4.63,0,3.73-2.26,5.27-5.79,5.27-4.33,0-5.31-2.89-5.31-5.34v-.42Z" fill="#3b4351"/></g></g></svg>