<svg xmlns="http://www.w3.org/2000/svg" viewBox="0 0 1847.91 112"><title>ce0300text</title><g id="YEARS"><g id="Right"><path d="M1797,98.44c0,1.62.55,3.41,2.52,3.41s2.58-1.48,2.58-3.3c0-2.29-.73-3.43-3-3.43h-1.15V93H1799c2,0,2.65-1.36,2.65-3.15,0-1.33-.6-2.65-2.13-2.65-1.82,0-2.34,1.56-2.34,3.22h-2.81c0-3.46,1.77-5.3,5.31-5.3,2.21,0,4.94,1,4.94,4.7,0,1.9-1.15,3.75-2.94,4V94c1.9.18,3.35,1.67,3.35,4.27,0,3.66-1.79,5.69-5.61,5.69-3.33,0-5.26-1.64-5.26-5.49Z" fill="#3b4351"/><path d="M1812.08,85.16c3.53,0,5.51,2.21,5.51,9.38s-2,9.39-5.51,9.39-5.52-2.21-5.52-9.39S1808.54,85.16,1812.08,85.16Zm0,16.69c2,0,2.54-2,2.54-7.31s-.54-7.3-2.54-7.3-2.55,2-2.55,7.3S1810.07,101.85,1812.08,101.85Z" fill="#3b4351"/><path d="M1824.56,85.16c3.53,0,5.51,2.21,5.51,9.38s-2,9.39-5.51,9.39-5.52-2.21-5.52-9.39S1821,85.16,1824.56,85.16Zm0,16.69c2,0,2.54-2,2.54-7.31s-.54-7.3-2.54-7.3-2.55,2-2.55,7.3S1822.55,101.85,1824.56,101.85Z" fill="#3b4351"/></g><g id="left"><path d="M21.94,100.35c0,1.61.54,3.41,2.52,3.41s2.57-1.48,2.57-3.3C27,98.17,26.3,97,24,97H22.9V94.94H24c2,0,2.66-1.35,2.66-3.14,0-1.33-.6-2.66-2.14-2.66-1.82,0-2.34,1.57-2.34,3.23h-2.8c0-3.46,1.76-5.31,5.3-5.31,2.21,0,4.94,1,4.94,4.71a3.9,3.9,0,0,1-2.94,4v.08c1.9.18,3.36,1.66,3.36,4.26,0,3.67-1.8,5.7-5.62,5.7-3.33,0-5.25-1.64-5.25-5.49Z" fill="#3b4351"/><path d="M37,87.06c3.54,0,5.51,2.21,5.51,9.39s-2,9.39-5.51,9.39-5.51-2.21-5.51-9.39S33.51,87.06,37,87.06Zm0,16.7c2,0,2.55-2,2.55-7.31S39,89.14,37,89.14s-2.55,2-2.55,7.31S35,103.76,37,103.76Z" fill="#3b4351"/><path d="M49.52,87.06c3.54,0,5.51,2.21,5.51,9.39s-2,9.39-5.51,9.39S44,103.63,44,96.45,46,87.06,49.52,87.06Zm0,16.7c2,0,2.55-2,2.55-7.31s-.55-7.31-2.55-7.31S47,91.12,47,96.45,47.52,103.76,49.52,103.76Z" fill="#3b4351"/></g></g><g id="Nation_OUtlines" data-name="Nation OUtlines"><polygon id="Romans" points="854.62 2806.83 829.93 2693.83 711.95 2584.83 764.62 2470.83 729.95 2355.83 845.28 2244.83 1002.62 2132.83 1065.29 2018.83 1021.28 1907.83 995.34 1790.83 815.28 1682.83 703.28 1571.83 687.28 1456.83 737.95 1342.83 780.62 1230.83 712.62 1119.83 645.95 1005.83 550.62 892.83 491.95 783 453.95 670 455.29 558 435.95 443 470.62 335 322.62 335 416.12 222 480.12 112 410.62 0 316.95 -114 248.28 -229 210.28 -340 175.95 -451 159.62 -567 91.28 -680 83.12 -785 117.62 -899 151.37 -1013 129.62 -1123 109.62 -1238 99.62 -1350 73.12 -1460 75.42 -2358 85.95 -2248 95.28 -2136 111.95 -2024 116.62 -1913 137.95 -1800 149.95 -1684 169.95 -1572 205.28 -1460 231.95 -1350 287.74 -1238 467.73 -1123 683.72 -1013 998.71 -899 1118.7 -785 1131.14 -680 1195.2 -567 1182.62 -451 1245.62 -340 1220.62 -229 1122.62 -114 981.62 0 880.12 112 717.95 222 593.62 335 616.62 443 717.28 558 839.28 672.84 863.28 783 915.28 892.83 810.62 1005.83 885.95 1119.83 1037.95 1230.83 1125.95 1342.83 1253.95 1456.83 1213.95 1571.83 1202.62 1682.83 1169.95 1790.83 1161.29 1907.83 1218.62 2018.83 1131.95 2132.83 936.62 2244.83 798.62 2355.83 819.28 2470.83 759.95 2584.83 849.28 2693.83 854.62 2806.83" fill="none" stroke="#3b4351" stroke-miterlimit="10"/><polygon id="Indians" points="1372.19 -2693.83 1294.19 -2808 1285.19 -2921 1313.69 -3032 1348.19 -3145 1310.69 -3259 1298.69 -3369 1313.69 -3481 1345.19 -3593 1325.69 -3707 1343.69 -3821 1417.19 -3932 1400.69 -4045.08 1429.19 -4158 1419.27 -4273.27 1387.19 -4385 1387.19 -4497 1438.19 -4607.5 1462.18 -4719.5 1480.18 -4832.54 1445.82 -4942.83 1411.11 -5054.83 1545.86 -5054.83 1580.1 -4942.83 1593.12 -4832.6 1552.12 -4719.5 1514.62 -4607.5 1514.12 -4497.33 1553.12 -4385.27 1548.12 -4273 1519.62 -4158 1534.12 -4044.33 1575.12 -3932 1559.62 -3821 1564.12 -3707.27 1534.62 -3593 1486.12 -3481 1465.12 -3369 1471.12 -3259.83 1502.12 -3145.83 1508.12 -3032 1534.62 -2921 1542.77 -2842.14 1555.62 -2693.83 1554.62 -2585 1567.12 -2473 1542.12 -2358.27 1498.12 -2248 1490.62 -2136 1513.12 -2024 1568.62 -1913 1544.12 -1800 1530.62 -1684.27 1523.62 -1572.27 1532.62 -1460 1565.12 -1350 1543.62 -1238 1514.12 -1123 1490.12 -1013.27 1495.62 -899 1517.12 -785.33 1528.12 -680 1580.62 -567.33 1578.12 -451.33 1578.12 -340.83 1560.12 -229.27 1526.62 -114 1467.62 0 1381.62 111.73 1270.62 222 1090.12 334.73 860.62 443 1302.12 558 1377.03 670 1550.62 783 1519.62 892.83 1476.12 1005.83 1516.13 1119.83 1534.62 1232.17 1552.65 1342.83 1585.62 1456.73 1620.12 1571.83 1650.12 1682.83 1630.62 1790.73 1622.45 1907.73 1565.62 2018.83 1402.62 2132.17 1173.62 2244.83 1148.62 2355.83 1334.62 2470.83 1283.62 2584.83 1344.62 2693.83 1544.62 2806.83 1602.62 2921.17 1627.62 3032.83 1674.62 3145.73 1627.62 3260.83 1634.62 3372.83 1686.62 3484.83 1701.62 3597.83 1620.12 3709.83 1606.12 3820.83 1606.12 3934.66 1552.62 3934.66 1549.52 3820.83 1569.62 3709.83 1683.62 3597.83 1667.62 3484.83 1607.62 3372.83 1596.62 3260.17 1617.62 3145.83 1584.62 3032.83 1562.62 2920.83 1507.62 2806.83 1304.62 2693.73 1225.62 2584.73 1236.97 2547.78 1264.87 2470.83 1082.62 2355.83 1084.2 2245.34 1323.62 2132.83 1500.47 2018.73 1573.62 1907.83 1600.62 1790.83 1604.62 1682.83 1569.62 1571.83 1514.62 1456.83 1447.62 1342.73 1418.62 1230.83 1404.62 1119.83 1367.62 1005.83 1397.62 892.83 1418.62 782.73 1339.62 669.73 1246.62 558 748.62 443 753.62 335 910.76 222 1053.62 112 1195.2 0 1311.62 -114.83 1353.62 -229 1348.62 -340 1364.62 -451.83 1406.62 -567 1401.62 -680 1429.62 -785 1394.62 -899.27 1393.2 -1013 1391.82 -1123.27 1437.52 -1238 1513.62 -1350.27 1505.64 -1460 1472.62 -1571.83 1447.62 -1684 1440.63 -1800 1462.62 -1913 1391.1 -2024 1348.62 -2136 1332.62 -2248 1376.98 -2358 1375.34 -2473.27 1373.74 -2585.27 1372.19 -2693.83" fill="none" stroke="#3b4351" stroke-miterlimit="10"/><polygon id="Huns" points="1555.62 -2693.83 1545.73 -2808 1533.62 -2921.33 1506.68 -3031.36 1502.16 -3145 1471.34 -3259 1465.12 -3369 1486.12 -3481 1534.62 -3593 1564.05 -3707 1559.62 -3821 1575.12 -3932 1534.24 -4044 1519.62 -4158 1548.12 -4273 1553.11 -4385 1514.47 -4497.27 1514.62 -4609.5 1552.12 -4719.5 1593.12 -4832.16 1580.1 -4942.83 1545.86 -5054.83 1633.99 -5054.83 1651.62 -4942.83 1667.62 -4832.16 1646.62 -4719.5 1620.62 -4607.5 1630.4 -4499.4 1650.62 -4385.33 1676.62 -4273 1700.12 -4158 1689.12 -4044 1714.62 -3932.33 1697.12 -3821.27 1645.62 -3707.27 1616.12 -3593 1586.62 -3481.27 1538.12 -3369.27 1509.12 -3259 1551.62 -3145 1585.12 -3032 1608.62 -2921.33 1609.69 -2808.27 1610.76 -2695.27 1613.62 -2585.27 1625.12 -2473.27 1599.12 -2357.33 1557.59 -2248 1545.65 -2136 1558.62 -2024 1584.62 -1913.27 1571.12 -1799.83 1576.62 -1684 1567.62 -1572 1587.12 -1460 1621.12 -1350 1612.12 -1238 1556.12 -1123 1528.62 -1013 1529.62 -899 1553.62 -785 1616.07 -680 1609.25 -567 1592.66 -451 1611.01 -340.27 1612.12 -229 1598.04 -114 1564.12 0 1534.29 112 1602.12 221.73 1653.62 335 1673.62 443 1666.12 558 1668.12 669.67 1625.62 782.67 1542.12 892.83 1476.12 1005.83 1519.62 892.83 1550.62 783 1376.62 669.73 1302.12 558 860.62 443 1090.12 334.73 1270.62 222 1381.62 111.73 1467.62 0 1526.62 -114 1560.12 -229.27 1578.12 -340.83 1578.12 -451.33 1580.62 -567.33 1528.12 -680 1517.12 -785.33 1495.62 -899 1490.12 -1013.27 1514.12 -1123 1543.62 -1238 1565.12 -1350 1532.62 -1460 1523.62 -1572.27 1530.62 -1684.27 1544.12 -1800 1568.62 -1913 1513.12 -2024 1490.62 -2136 1498.12 -2248 1542.12 -2358.27 1567.12 -2473 1554.62 -2585 1555.62 -2693.83" fill="none" stroke="#3b4351" stroke-miterlimit="10"/><polygon id="Chinese" points="1610.76 -2695.27 1609.69 -2808.27 1608.62 -2921.33 1585.12 -3032 1551.62 -3145 1509.12 -3259 1538.12 -3369.27 1586.62 -3481.27 1616.12 -3593 1645.62 -3707.27 1697.12 -3821.27 1714.62 -3932.33 1689.12 -4044 1700.12 -4158 1676.62 -4273 1650.62 -4385.33 1630.62 -4497 1620.62 -4607.5 1646.62 -4719.5 1667.62 -4832.16 1651.62 -4942.83 1633.99 -5054.83 1768.79 -5054.83 1768.79 3145.83 1768.79 3260.73 1766.12 3372.83 1757.62 3484.83 1736.12 3597.73 1676.12 3709.73 1661.12 3820.83 1663.62 3934.66 1606.12 3934.66 1606.12 3820.73 1620.12 3709.83 1701.62 3597.83 1696.12 3484.67 1654.12 3372.83 1681.62 3260.83 1739.62 3145.73 1748.62 3032.67 1744.12 2920.67 1685.62 2806.83 1615.12 2696.17 1636.12 2584.83 1738.62 2470.83 1761.12 2355.83 1758.62 2244.83 1732.12 2132.83 1695.62 2018.83 1667.62 1907.83 1651.12 1790.83 1650.12 1682.83 1620.12 1571.83 1585.62 1456.73 1552.62 1342.73 1535.12 1230.83 1516.12 1119.73 1476.12 1005.83 1542.12 892.83 1625.62 782.67 1668.12 669.67 1666.12 558 1673.62 443 1653.62 335 1602.12 221.73 1534.12 111.73 1564.12 0 1598.12 -114.27 1612.12 -229 1611.01 -340.27 1592.62 -451.27 1609.25 -567 1616.07 -680 1553.62 -785 1529.62 -899 1528.62 -1013.27 1555.62 -1123 1612.12 -1238 1621.12 -1350 1587.12 -1460 1567.62 -1572 1576.62 -1684 1571.12 -1800 1584.62 -1913.27 1558.62 -2024 1545.62 -2136.27 1557.62 -2248.27 1599.62 -2358 1625.12 -2473.27 1613.62 -2585.27 1610.76 -2695.27" fill="none" stroke="#3b4351" stroke-miterlimit="10"/><polygon id="Teutons_-_Franks" data-name="Teutons - Franks" points="600.62 1342.83 277.29 1342.83 235.95 1230.83 189.95 1119.83 180.62 1005.83 142.62 892.83 139.95 783 120.62 670 99.95 558 73.12 443 73.12 0 101.12 112 138.62 224.41 168.12 335 189.69 443 192.12 558 257.62 670 298.12 783 333.12 892.83 392.87 1005.83 712.62 1119.83 676.62 1230.83 600.62 1342.83" fill="none" stroke="#3b4351" stroke-miterlimit="10"/><polygon id="Teutons_-Goths" data-name="Teutons -Goths" points="712.62 1119.83 392.87 1005.83 333.12 892.83 298.12 783 257.62 670 192.12 558 189.69 443 168.12 335 138.62 224.41 101.12 112 73.12 2.67 73.12 -1460 99.62 -1350 109.62 -1238 129.3 -1120.61 151.37 -1013 117.62 -899 83.12 -785 91.28 -680 159.62 -567 175.95 -451 210.28 -340 248.28 -229 316.95 -114 410.62 0 480.12 112 416.12 222 322.62 335 328.12 443 455.29 558 453.95 670 425.12 783 461.12 892.83 536.62 1005.83 712.62 1119.83" fill="none" stroke="#3b4351" stroke-miterlimit="10"/><polygon id="Moslem_Arabs_and_Persian" data-name="Moslem Arabs and Persian" points="717.95 222 880.12 112 981.62 0 1122.62 -114 1220.62 -229 1311.62 -114.83 1195.2 0 1053.62 112 910.76 222 753.62 335 593.62 335 717.95 222" fill="none" stroke="#3b4351" stroke-miterlimit="10"/></g><g id="Text"><g id="Indians-2" data-name="Indians"><path d="M1289.5,28.46h0a3.63,3.63,0,0,1-3.82,2.38c-3.82,0-5.2-2.85-5.2-9.1s1.77-9.09,5.81-9.09a4.76,4.76,0,0,1,5.12,5V18h-2.64V17.6c0-1.3-.54-2.84-2.45-2.84s-3,1.32-3,6.91.93,7.06,2.82,7.06c2.13,0,2.91-1.52,2.91-5.34H1286V21.28h5.59v9.21h-2.11Z" fill="#3b4351"/><path d="M1300.58,29h-.08a3.79,3.79,0,0,1-3.38,1.89c-2,0-3.28-.91-3.28-4.32V17.31h2.64v9.46c0,1.47.64,2,1.79,2a2.06,2.06,0,0,0,2.16-2.21V17.31h2.64V30.49h-2.49Z" fill="#3b4351"/><path d="M1311.31,30.84a3,3,0,0,1-3-1.89h0v5.86h-2.65V17.31h2.5v1.62h.05a3.11,3.11,0,0,1,3-2c3,0,4.24,2.58,4.24,7.11C1315.37,29.61,1313.14,30.84,1311.31,30.84Zm-1-11.77c-1.81,0-2.23,1.84-2.23,4.68,0,3.16.39,5,2.25,5,1.5,0,2.21-1.13,2.21-4.78C1312.58,21,1312.21,19.07,1310.35,19.07Z" fill="#3b4351"/><path d="M1316.23,17.31H1318V13.56h2.65v3.75h2.16v2h-2.16v7.86c0,1.06.29,1.4,1.2,1.4a5.1,5.1,0,0,0,1-.07v2a8.58,8.58,0,0,1-2.14.22c-1.76,0-2.67-.52-2.67-3.19V19.27h-1.81Z" fill="#3b4351"/><path d="M1332.87,27.75c0,.49.29.93.68.93a1.14,1.14,0,0,0,.44-.07v1.71a2.79,2.79,0,0,1-1.3.32c-1.17,0-2.15-.47-2.22-1.74h0a3.41,3.41,0,0,1-3.29,1.94c-2.13,0-3.43-1.16-3.43-3.71,0-2.94,1.3-3.55,3.06-4.14l2.06-.56c1-.27,1.55-.54,1.55-1.69s-.42-2-1.82-2c-1.76,0-2,1.25-2,2.52H1324c0-2.82,1.16-4.34,4.64-4.34,2.32,0,4.19.91,4.19,3.24Zm-2.5-4.22a21,21,0,0,1-2.94,1.23,2.17,2.17,0,0,0-1.08,2.13c0,1.1.54,2,1.64,2,1.59,0,2.38-1.17,2.38-3.13Z" fill="#3b4351"/><path d="M1341.61,13h5c5.48,0,6.17,3.57,6.17,8.74s-.69,8.75-6.17,8.75h-5Zm2.79,15.38h2.31c2.3,0,3.26-1.51,3.26-6.64,0-4.92-.84-6.64-3.26-6.64h-2.31Z" fill="#3b4351"/><path d="M1356.83,17.31l2.27,9.9h.05l2.11-9.9H1364L1360.4,31c-1.05,3.6-1.86,4.1-4.6,4a4.76,4.76,0,0,1-1.06-.1V32.8a3.65,3.65,0,0,0,.86.09c.91,0,1.5-.17,1.79-1l.34-1.08L1354,17.31Z" fill="#3b4351"/><path d="M1365.5,17.31h2.5v1.54h.07a3.79,3.79,0,0,1,3.38-1.89c2,0,3.29.91,3.29,3.58v10h-2.65v-9c0-1.76-.47-2.38-1.84-2.38-1.08,0-2.11.81-2.11,2.58v8.84h-2.64Z" fill="#3b4351"/><path d="M1385.93,27.75c0,.49.3.93.69.93a1.22,1.22,0,0,0,.44-.07v1.71a2.83,2.83,0,0,1-1.3.32c-1.17,0-2.16-.47-2.23-1.74h0a3.4,3.4,0,0,1-3.28,1.94c-2.13,0-3.43-1.16-3.43-3.71,0-2.94,1.3-3.55,3.06-4.14l2.06-.56c1-.27,1.54-.54,1.54-1.69s-.41-2-1.81-2c-1.77,0-2,1.25-2,2.52h-2.5c0-2.82,1.15-4.34,4.63-4.34,2.33,0,4.19.91,4.19,3.24Zm-2.5-4.22a20,20,0,0,1-2.94,1.23,2.17,2.17,0,0,0-1.08,2.13c0,1.1.54,2,1.65,2,1.59,0,2.37-1.17,2.37-3.13Z" fill="#3b4351"/><path d="M1394.31,21.16v-.35c0-1-.37-2-1.74-2-1,0-1.89.46-1.89,1.71,0,1.06.47,1.45,1.87,1.94l1.69.59c2,.66,2.86,1.71,2.86,3.8,0,2.81-2.08,4-4.73,4-3.33,0-4.33-1.55-4.33-4.1v-.49h2.35v.42c0,1.54.51,2.35,2.06,2.35s2.15-.73,2.15-1.93a1.91,1.91,0,0,0-1.44-1.94l-2.16-.76c-2-.66-2.82-1.69-2.82-3.8,0-2.47,1.77-3.63,4.51-3.63,3.36,0,4.12,2,4.12,3.61v.59Z" fill="#3b4351"/><path d="M1397.89,17.31h1.81V13.56h2.65v3.75h2.15v2h-2.15v7.86c0,1.06.29,1.4,1.2,1.4a4.91,4.91,0,0,0,1-.07v2a8.44,8.44,0,0,1-2.13.22c-1.76,0-2.67-.52-2.67-3.19V19.27h-1.81Z" fill="#3b4351"/><path d="M1407.64,17.31l2.28,9.9h0l2.1-9.9h2.77L1411.22,31c-1.06,3.6-1.87,4.1-4.61,4a4.62,4.62,0,0,1-1-.1V32.8a3.51,3.51,0,0,0,.85.09c.91,0,1.5-.17,1.79-1l.34-1.08-3.74-13.48Z" fill="#3b4351"/><path d="M1295.94,40a20.65,20.65,0,0,0-2.79,11,21.38,21.38,0,0,0,2.79,11h-1.89a18.71,18.71,0,0,1,0-22Z" fill="#3b4351"/><path d="M1297.38,40h2.8v7h5.14V40h2.8V57.49h-2.8V49.36h-5.14v8.13h-2.8Z" fill="#3b4351"/><path d="M1311,39.8h2.64v2.65H1311Zm0,4.51h2.64V57.49H1311Z" fill="#3b4351"/><path d="M1316.27,44.31h2.5v1.54h.08a3.78,3.78,0,0,1,3.38-1.88c2,0,3.28.9,3.28,3.57v10h-2.64v-9c0-1.76-.47-2.38-1.84-2.38-1.08,0-2.11.81-2.11,2.58v8.84h-2.65Z" fill="#3b4351"/><path d="M1334.8,55.87h0a2.82,2.82,0,0,1-2.89,2c-3.07,0-4.32-2.6-4.32-7.11,0-5.86,2.06-6.76,4.07-6.76a3,3,0,0,1,3,1.88h.05V40h2.65V57.49h-2.5Zm-2.41-9.8c-1.49,0-2.05,1.23-2.05,4.78,0,3,.36,4.88,2.23,4.88s2.23-1.84,2.23-4.68C1334.8,47.89,1334.45,46.07,1332.39,46.07Z" fill="#3b4351"/><path d="M1346.58,56h-.07a3.79,3.79,0,0,1-3.38,1.89c-2,0-3.29-.91-3.29-4.32V44.31h2.65v9.46c0,1.47.64,2,1.79,2a2.06,2.06,0,0,0,2.15-2.21V44.31h2.65V57.49h-2.5Z" fill="#3b4351"/><path d="M1357.31,48.16v-.35c0-1.05-.37-2-1.74-2-1,0-1.89.46-1.89,1.71,0,1.06.47,1.45,1.87,1.94l1.69.59c2,.66,2.86,1.71,2.86,3.8,0,2.81-2.08,4-4.72,4-3.34,0-4.34-1.55-4.34-4.1v-.49h2.35v.42c0,1.54.51,2.35,2.06,2.35s2.15-.73,2.15-1.93a1.9,1.9,0,0,0-1.44-1.94l-2.16-.76c-2-.66-2.82-1.69-2.82-3.8,0-2.47,1.77-3.62,4.51-3.62,3.36,0,4.12,2,4.12,3.6v.59Z" fill="#3b4351"/><path d="M1360.79,62a20.67,20.67,0,0,0,2.79-11,21.38,21.38,0,0,0-2.79-11h1.89a18.71,18.71,0,0,1,0,22Z" fill="#3b4351"/></g><g id="Chinese-2" data-name="Chinese"><path d="M1553.7,88.24h-4.17V85.89h11.06v2.35h-4.1v15.15h-2.79Z" fill="#3b4351"/><path d="M1562,85.89h2.64v5.74l.08,0a3.74,3.74,0,0,1,3.23-1.81c2,0,3.28.91,3.28,3.58v10h-2.64v-9c0-1.74-.49-2.38-1.84-2.38-1.08,0-2.11.83-2.11,2.57v8.85H1562Z" fill="#3b4351"/><path d="M1573.79,90.2h2.65v2.06h0a3.26,3.26,0,0,1,3.07-2.4,1.59,1.59,0,0,1,.64.1v2.7a3.54,3.54,0,0,0-1.11-.15c-1.2,0-2.64.54-2.64,3v7.89h-2.65Z" fill="#3b4351"/><path d="M1583.64,97.14v.76c0,1.76.22,4,2.2,4S1588,99.79,1588,99h2.5c0,3-1.76,4.75-4.63,4.75-2.16,0-4.83-.64-4.83-6.74,0-3.45.76-7.13,4.88-7.13,3.67,0,4.65,2.23,4.65,5.88v1.4Zm4.24-1.81v-.71c0-1.67-.54-3-2-3-1.66,0-2.2,1.67-2.2,3.39v.27Z" fill="#3b4351"/><path d="M1595,97.14v.76c0,1.76.22,4,2.21,4s2.11-2.13,2.11-2.94h2.49c0,3-1.76,4.75-4.63,4.75-2.15,0-4.82-.64-4.82-6.74,0-3.45.76-7.13,4.87-7.13,3.68,0,4.66,2.23,4.66,5.88v1.4Zm4.24-1.81v-.71c0-1.67-.54-3-2-3-1.67,0-2.21,1.67-2.21,3.39v.27Z" fill="#3b4351"/><path d="M1610.1,85.89h2.79v7.62h0l5.29-7.62h3.07l-5,7.38,5.59,10.12h-3.17l-4.24-7.87-1.54,2.21v5.66h-2.79Z" fill="#3b4351"/><path d="M1622.76,85.7h2.65v2.64h-2.65Zm0,4.5h2.65v13.19h-2.65Z" fill="#3b4351"/><path d="M1628.08,90.2h2.5v1.55h.07a3.77,3.77,0,0,1,3.38-1.89c2,0,3.29.91,3.29,3.58v10h-2.65v-9c0-1.77-.46-2.38-1.84-2.38-1.07,0-2.1.81-2.1,2.57v8.85h-2.65Z" fill="#3b4351"/><path d="M1642.51,104.52a1.73,1.73,0,0,0,1.91,1.56,2.18,2.18,0,0,0,2.23-2.47v-2.13h-.05a3.18,3.18,0,0,1-3,1.81c-3.06,0-3.94-3-3.94-6.64,0-2.89.44-6.79,4.19-6.79a2.91,2.91,0,0,1,2.89,2h0V90.2h2.5v12.55c0,3.21-1.37,5.15-4.93,5.15-3.92,0-4.36-2.31-4.36-3.38Zm1.86-3.34c2.06,0,2.28-2.59,2.28-4.68s-.27-4.53-2.1-4.53-2.24,2-2.24,4.41C1642.31,98.63,1642.41,101.18,1644.37,101.18Z" fill="#3b4351"/><path d="M1658.39,101.77h-.05a2.82,2.82,0,0,1-2.89,2c-3.07,0-4.32-2.6-4.32-7.11,0-5.85,2.06-6.76,4.07-6.76a3,3,0,0,1,3,1.89h0V85.89h2.65v17.5h-2.5ZM1656,92c-1.5,0-2.06,1.22-2.06,4.78,0,3,.37,4.87,2.23,4.87s2.23-1.83,2.23-4.68C1658.39,93.78,1658,92,1656,92Z" fill="#3b4351"/><path d="M1662.92,96.8c0-4.12,1.08-6.94,4.9-6.94s4.92,2.82,4.92,6.94-1.27,6.93-4.92,6.93S1662.92,100.91,1662.92,96.8Zm4.9,5c1.93,0,2.28-1.62,2.28-5,0-2.92-.35-5-2.28-5s-2.26,2.06-2.26,5C1665.56,100.15,1665.93,101.77,1667.82,101.77Z" fill="#3b4351"/><path d="M1674.9,90.2h2.5v1.55h.07a3.68,3.68,0,0,1,3.16-1.89,2.88,2.88,0,0,1,3.07,2,3.61,3.61,0,0,1,3.33-2c1.86,0,3.21,1,3.21,3.51v10h-2.65v-9c0-1.74-.51-2.38-1.59-2.38s-2.11.83-2.11,2.57v8.85h-2.65v-9c0-1.74-.51-2.38-1.61-2.38s-2.08.86-2.08,2.57v8.85h-2.65Z" fill="#3b4351"/><path d="M1699,85.89h5.53c3.36,0,4.83,2.11,4.83,5.1s-1.86,5.17-5.12,5.17h-2.45v7.23H1699Zm2.79,8.16h2c1.49,0,2.79-.78,2.79-3,0-1.89-.76-3-3-3h-1.79Z" fill="#3b4351"/><path d="M1713.31,97.14v.76c0,1.76.23,4,2.21,4s2.11-2.13,2.11-2.94h2.5c0,3-1.77,4.75-4.63,4.75-2.16,0-4.83-.64-4.83-6.74,0-3.45.76-7.13,4.87-7.13,3.68,0,4.66,2.23,4.66,5.88v1.4Zm4.24-1.81v-.71c0-1.67-.53-3-2-3-1.67,0-2.21,1.67-2.21,3.39v.27Z" fill="#3b4351"/><path d="M1722.38,90.2H1725v2.06h0a3.26,3.26,0,0,1,3.07-2.4,1.5,1.5,0,0,1,.63.1v2.7a3.42,3.42,0,0,0-1.1-.15c-1.2,0-2.64.54-2.64,3v7.89h-2.65Z" fill="#3b4351"/><path d="M1730.22,85.7h2.65v2.64h-2.65Zm0,4.5h2.65v13.19h-2.65Z" fill="#3b4351"/><path d="M1735,96.8c0-4.12,1.08-6.94,4.9-6.94s4.93,2.82,4.93,6.94-1.28,6.93-4.93,6.93S1735,100.91,1735,96.8Zm4.9,5c1.94,0,2.28-1.62,2.28-5,0-2.92-.34-5-2.28-5s-2.25,2.06-2.25,5C1737.67,100.15,1738,101.77,1739.92,101.77Z" fill="#3b4351"/><path d="M1753.62,101.77h0a2.82,2.82,0,0,1-2.89,2c-3.07,0-4.32-2.6-4.32-7.11,0-5.85,2.06-6.76,4.07-6.76a3,3,0,0,1,3,1.89h0V85.89h2.65v17.5h-2.5Zm-2.4-9.8c-1.5,0-2.06,1.22-2.06,4.78,0,3,.36,4.87,2.23,4.87s2.23-1.83,2.23-4.68C1753.62,93.78,1753.27,92,1751.22,92Z" fill="#3b4351"/></g></g></svg>