<svg xmlns="http://www.w3.org/2000/svg" viewBox="0 0 1847.91 110"><title>ce0350text</title><g id="YEARS"><g id="Right"><path d="M1797,98.94c0,1.61.55,3.4,2.52,3.4s2.58-1.48,2.58-3.3c0-2.29-.73-3.43-3-3.43h-1.15V93.53H1799c2,0,2.65-1.36,2.65-3.15,0-1.33-.6-2.65-2.13-2.65-1.82,0-2.34,1.56-2.34,3.22h-2.81c0-3.46,1.77-5.3,5.31-5.3,2.21,0,4.94,1,4.94,4.7,0,1.9-1.15,3.75-2.94,4v.08c1.9.18,3.35,1.67,3.35,4.27,0,3.66-1.79,5.69-5.61,5.69-3.33,0-5.26-1.64-5.26-5.48Z" fill="#3b4351"/><path d="M1806.67,99.09h2.81v.49a2.35,2.35,0,0,0,2.41,2.61c2.09,0,2.63-2,2.63-4.19s-.57-3.93-2.47-3.93a2.36,2.36,0,0,0-2.42,1.69l-2.62-.1.91-9.65h8.86v2.37h-6.65l-.6,4.83,0,.06a4.06,4.06,0,0,1,3.09-1.43c3.85,0,4.81,3.25,4.81,6.08,0,3.69-1.69,6.5-5.66,6.5-3.31,0-5.15-1.69-5.15-4.94Z" fill="#3b4351"/><path d="M1824.56,85.65c3.53,0,5.51,2.21,5.51,9.39s-2,9.38-5.51,9.38S1819,102.21,1819,95,1821,85.65,1824.56,85.65Zm0,16.69c2,0,2.54-2,2.54-7.3s-.54-7.31-2.54-7.31-2.55,2-2.55,7.31S1822.55,102.34,1824.56,102.34Z" fill="#3b4351"/></g><g id="left"><path d="M21.94,100.84c0,1.61.54,3.41,2.52,3.41S27,102.77,27,101c0-2.29-.73-3.44-3-3.44H22.9V95.43H24c2,0,2.66-1.35,2.66-3.14,0-1.33-.6-2.66-2.14-2.66-1.82,0-2.34,1.57-2.34,3.23h-2.8c0-3.46,1.76-5.31,5.3-5.31,2.21,0,4.94,1,4.94,4.71,0,1.9-1.14,3.75-2.94,4v.08c1.9.18,3.36,1.66,3.36,4.26,0,3.67-1.8,5.7-5.62,5.7-3.33,0-5.25-1.64-5.25-5.49Z" fill="#3b4351"/><path d="M31.63,101h2.81v.49a2.35,2.35,0,0,0,2.42,2.6c2.08,0,2.63-2,2.63-4.18S38.91,96,37,96a2.35,2.35,0,0,0-2.42,1.69L32,97.57l.91-9.65h8.87v2.37H35.09l-.6,4.83.06,0a4,4,0,0,1,3.09-1.43c3.85,0,4.81,3.25,4.81,6.09,0,3.69-1.69,6.5-5.67,6.5-3.3,0-5.15-1.69-5.15-4.94Z" fill="#3b4351"/><path d="M49.52,87.55c3.54,0,5.51,2.22,5.51,9.39s-2,9.39-5.51,9.39S44,104.12,44,96.94,46,87.55,49.52,87.55Zm0,16.7c2,0,2.55-2,2.55-7.31s-.55-7.31-2.55-7.31S47,91.61,47,96.94,47.52,104.25,49.52,104.25Z" fill="#3b4351"/></g></g><g id="Nation_OUtlines" data-name="Nation OUtlines"><polygon id="Romans" points="854.62 2694.83 829.93 2581.83 711.95 2472.83 764.62 2358.83 729.95 2243.83 845.28 2132.83 1002.62 2020.83 1065.29 1906.83 1021.28 1795.83 995.34 1678.83 815.28 1570.83 703.28 1459.83 687.28 1344.83 737.95 1230.83 780.62 1118.83 712.62 1007.83 645.95 893.83 550.62 780.83 491.95 671 453.95 558 455.29 446 435.95 331 470.62 223 322.62 223 416.12 110 480.12 0 410.62 -112 316.95 -226 248.28 -341 210.28 -452 175.95 -563 159.62 -679 91.28 -792 83.12 -897 117.62 -1011 151.37 -1125 129.62 -1235 109.62 -1350 99.62 -1462 73.12 -1572 75.42 -2470 85.95 -2360 95.28 -2248 111.95 -2136 116.62 -2025 137.95 -1912 149.95 -1796 169.95 -1684 205.28 -1572 231.95 -1462 287.74 -1350 467.73 -1235 683.72 -1125 998.71 -1011 1118.7 -897 1131.14 -792 1195.2 -679 1182.62 -563 1245.62 -452 1220.62 -341 1122.62 -226 981.62 -112 880.12 0 717.95 110 593.62 223 616.62 331 717.28 446 839.28 560.84 863.28 671 915.28 780.83 810.62 893.83 885.95 1007.83 1037.95 1118.83 1125.95 1230.83 1253.95 1344.83 1213.95 1459.83 1202.62 1570.83 1169.95 1678.83 1161.29 1795.83 1218.62 1906.83 1131.95 2020.83 936.62 2132.83 798.62 2243.83 819.28 2358.83 759.95 2472.83 849.28 2581.83 854.62 2694.83" fill="none" stroke="#3b4351" stroke-miterlimit="10"/><polygon id="Indians" points="1372.19 -2805.83 1294.19 -2920 1285.19 -3033 1313.69 -3144 1348.19 -3257 1310.69 -3371 1298.69 -3481 1313.69 -3593 1345.19 -3705 1325.69 -3819 1343.69 -3933 1417.19 -4044 1400.69 -4157.08 1429.19 -4270 1419.27 -4385.27 1387.19 -4497 1387.19 -4609 1438.19 -4719.5 1462.18 -4831.5 1480.18 -4944.54 1445.82 -5054.83 1411.11 -5166.83 1545.86 -5166.83 1580.1 -5054.83 1593.12 -4944.6 1552.12 -4831.5 1514.62 -4719.5 1514.12 -4609.33 1553.12 -4497.27 1548.12 -4385 1519.62 -4270 1534.12 -4156.33 1575.12 -4044 1559.62 -3933 1564.12 -3819.27 1534.62 -3705 1486.12 -3593 1465.12 -3481 1471.12 -3371.83 1502.12 -3257.83 1508.12 -3144 1534.62 -3033 1542.77 -2954.14 1555.62 -2805.83 1554.62 -2697 1567.12 -2585 1542.12 -2470.27 1498.12 -2360 1490.62 -2248 1513.12 -2136 1568.62 -2025 1544.12 -1912 1530.62 -1796.27 1523.62 -1684.27 1532.62 -1572 1565.12 -1462 1543.62 -1350 1514.12 -1235 1490.12 -1125.27 1495.62 -1011 1517.12 -897.33 1528.12 -792 1580.62 -679.33 1578.12 -563.33 1578.12 -452.83 1560.12 -341.27 1526.62 -226 1467.62 -112 1381.62 -0.27 1270.62 110 1090.12 222.73 860.62 331 1302.12 446 1377.03 558 1550.62 671 1519.62 780.83 1476.12 893.83 1516.13 1007.83 1534.62 1120.17 1552.65 1230.83 1585.62 1344.73 1620.12 1459.83 1650.12 1570.83 1630.62 1678.73 1622.45 1795.73 1565.62 1906.83 1402.62 2020.17 1173.62 2132.83 1148.62 2243.83 1334.62 2358.83 1283.62 2472.83 1344.62 2581.83 1544.62 2694.83 1602.62 2809.17 1627.62 2920.83 1674.62 3033.73 1627.62 3148.83 1634.62 3260.83 1686.62 3372.83 1701.62 3485.83 1620.12 3597.83 1606.12 3708.83 1606.12 3822.66 1552.62 3822.66 1549.52 3708.83 1569.62 3597.83 1683.62 3485.83 1667.62 3372.83 1607.62 3260.83 1596.62 3148.17 1617.62 3033.83 1584.62 2920.83 1562.62 2808.83 1507.62 2694.83 1304.62 2581.73 1225.62 2472.73 1236.97 2435.78 1264.87 2358.83 1082.62 2243.83 1084.2 2133.34 1323.62 2020.83 1500.47 1906.73 1573.62 1795.83 1600.62 1678.83 1604.62 1570.83 1569.62 1459.83 1514.62 1344.83 1447.62 1230.73 1418.62 1118.83 1404.62 1007.83 1367.62 893.83 1397.62 780.83 1418.62 670.73 1339.62 557.73 1246.62 446 748.62 331 753.62 223 910.76 110 1053.62 0 1195.2 -112 1311.62 -226.83 1353.62 -341 1348.62 -452 1364.62 -563.83 1406.62 -679 1401.62 -792 1429.62 -897 1394.62 -1011.27 1393.2 -1125 1391.82 -1235.27 1437.52 -1350 1513.62 -1462.27 1505.64 -1572 1472.62 -1683.83 1447.62 -1796 1440.63 -1912 1462.62 -2025 1391.1 -2136 1348.62 -2248 1332.62 -2360 1376.98 -2470 1375.34 -2585.27 1373.74 -2697.27 1372.19 -2805.83" fill="none" stroke="#3b4351" stroke-miterlimit="10"/><polygon id="Huns" points="1555.62 -2805.83 1545.73 -2920 1533.62 -3033.33 1506.68 -3143.36 1502.16 -3257 1471.34 -3371 1465.12 -3481 1486.12 -3593 1534.62 -3705 1564.05 -3819 1559.62 -3933 1575.12 -4044 1534.24 -4156 1519.62 -4270 1548.12 -4385 1553.11 -4497 1514.47 -4609.27 1514.62 -4721.5 1552.12 -4831.5 1593.12 -4944.16 1580.1 -5054.83 1545.86 -5166.83 1633.99 -5166.83 1651.62 -5054.83 1667.62 -4944.16 1646.62 -4831.5 1620.62 -4719.5 1630.4 -4611.4 1650.62 -4497.33 1676.62 -4385 1700.12 -4270 1689.12 -4156 1714.62 -4044.33 1697.12 -3933.27 1645.62 -3819.27 1616.12 -3705 1586.62 -3593.27 1538.12 -3481.27 1509.12 -3371 1551.62 -3257 1585.12 -3144 1608.62 -3033.33 1609.69 -2920.27 1610.76 -2807.27 1613.62 -2697.27 1625.12 -2585.27 1599.12 -2469.33 1557.59 -2360 1545.65 -2248 1558.62 -2136 1584.62 -2025.27 1571.12 -1911.83 1576.62 -1796 1567.62 -1684 1587.12 -1572 1621.12 -1462 1612.12 -1350 1556.12 -1235 1528.62 -1125 1529.62 -1011 1553.62 -897 1616.07 -792 1609.25 -679 1592.66 -563 1611.01 -452.27 1612.12 -341 1598.04 -226 1564.12 -112 1534.29 0 1602.12 109.73 1653.62 223 1673.62 331 1666.12 446 1668.12 557.67 1625.62 670.67 1542.12 780.83 1476.12 893.83 1519.62 780.83 1550.62 671 1376.62 557.73 1302.12 446 860.62 331 1090.12 222.73 1270.62 110 1381.62 -0.27 1467.62 -112 1526.62 -226 1560.12 -341.27 1578.12 -452.83 1578.12 -563.33 1580.62 -679.33 1528.12 -792 1517.12 -897.33 1495.62 -1011 1490.12 -1125.27 1514.12 -1235 1543.62 -1350 1565.12 -1462 1532.62 -1572 1523.62 -1684.27 1530.62 -1796.27 1544.12 -1912 1568.62 -2025 1513.12 -2136 1490.62 -2248 1498.12 -2360 1542.12 -2470.27 1567.12 -2585 1554.62 -2697 1555.62 -2805.83" fill="none" stroke="#3b4351" stroke-miterlimit="10"/><polygon id="Chinese" points="1610.76 -2807.27 1609.69 -2920.27 1608.62 -3033.33 1585.12 -3144 1551.62 -3257 1509.12 -3371 1538.12 -3481.27 1586.62 -3593.27 1616.12 -3705 1645.62 -3819.27 1697.12 -3933.27 1714.62 -4044.33 1689.12 -4156 1700.12 -4270 1676.62 -4385 1650.62 -4497.33 1630.62 -4609 1620.62 -4719.5 1646.62 -4831.5 1667.62 -4944.16 1651.62 -5054.83 1633.99 -5166.83 1768.79 -5166.83 1768.79 3033.83 1768.79 3148.73 1766.12 3260.83 1757.62 3372.83 1736.12 3485.73 1676.12 3597.73 1661.12 3708.83 1663.62 3822.66 1606.12 3822.66 1606.12 3708.73 1620.12 3597.83 1701.62 3485.83 1696.12 3372.67 1654.12 3260.83 1681.62 3148.83 1739.62 3033.73 1748.62 2920.67 1744.12 2808.67 1685.62 2694.83 1615.12 2584.17 1636.12 2472.83 1738.62 2358.83 1761.12 2243.83 1758.62 2132.83 1732.12 2020.83 1695.62 1906.83 1667.62 1795.83 1651.12 1678.83 1650.12 1570.83 1620.12 1459.83 1585.62 1344.73 1552.62 1230.73 1535.12 1118.83 1516.12 1007.73 1476.12 893.83 1542.12 780.83 1625.62 670.67 1668.12 557.67 1666.12 446 1673.62 331 1653.62 223 1602.12 109.73 1534.12 -0.27 1564.12 -112 1598.12 -226.27 1612.12 -341 1611.01 -452.27 1592.62 -563.27 1609.25 -679 1616.07 -792 1553.62 -897 1529.62 -1011 1528.62 -1125.27 1555.62 -1235 1612.12 -1350 1621.12 -1462 1587.12 -1572 1567.62 -1684 1576.62 -1796 1571.12 -1912 1584.62 -2025.27 1558.62 -2136 1545.62 -2248.27 1557.62 -2360.27 1599.62 -2470 1625.12 -2585.27 1613.62 -2697.27 1610.76 -2807.27" fill="none" stroke="#3b4351" stroke-miterlimit="10"/><polygon id="Teutons_-_Franks" data-name="Teutons - Franks" points="600.62 1230.83 277.29 1230.83 235.95 1118.83 189.95 1007.83 180.62 893.83 142.62 780.83 139.95 671 120.62 558 99.95 446 73.12 331 73.12 -112 101.12 0 138.62 112.42 168.12 223 189.69 331 192.12 446 257.62 558 298.12 671 333.12 780.83 392.87 893.83 712.62 1007.83 676.62 1118.83 600.62 1230.83" fill="none" stroke="#3b4351" stroke-miterlimit="10"/><polygon id="Teutons_-Goths" data-name="Teutons -Goths" points="712.62 1007.83 392.87 893.83 333.12 780.83 298.12 671 257.62 558 192.12 446 189.69 331 168.12 223 138.62 112.42 101.12 0 73.12 -109.33 73.12 -1572 99.62 -1462 109.62 -1350 129.3 -1232.61 151.37 -1125 117.62 -1011 83.12 -897 91.28 -792 159.62 -679 175.95 -563 210.28 -452 248.28 -341 316.95 -226 410.62 -112 480.12 0 416.12 110 322.62 223 328.12 331 455.29 446 453.95 558 425.12 671 461.12 780.83 536.62 893.83 712.62 1007.83" fill="none" stroke="#3b4351" stroke-miterlimit="10"/><polygon id="Moslem_Arabs_and_Persian" data-name="Moslem Arabs and Persian" points="717.95 110 880.12 0 981.62 -112 1122.62 -226 1220.62 -341 1311.62 -226.83 1195.2 -112 1053.62 0 910.76 110 753.62 223 593.62 223 717.95 110" fill="none" stroke="#3b4351" stroke-miterlimit="10"/></g><g id="Text"><g id="Teutons_-_goths" data-name="Teutons - goths"><path d="M149,24.09c0-6.25,1.76-9.09,5.78-9.09s5.78,2.84,5.78,9.09-1.76,9.09-5.78,9.09S149,30.34,149,24.09Zm8.77-.08c0-5.88-1.32-6.91-3-6.91s-3,1-3,6.91,1.32,7.06,3,7.06S157.81,30,157.81,24Z" fill="#3b4351"/><path d="M168.59,23.5v-.34c0-1.06-.37-2-1.74-2-1.06,0-1.89.47-1.89,1.72,0,1.05.47,1.44,1.86,1.93l1.7.59c2,.66,2.86,1.72,2.86,3.8,0,2.82-2.08,4-4.73,4-3.33,0-4.34-1.55-4.34-4.09V28.6h2.36V29c0,1.55.51,2.36,2.06,2.36s2.15-.74,2.15-1.94a1.91,1.91,0,0,0-1.44-1.94l-2.16-.76c-2-.66-2.82-1.69-2.82-3.79,0-2.48,1.77-3.63,4.51-3.63,3.36,0,4.12,2,4.12,3.6v.59Z" fill="#3b4351"/><path d="M172.16,19.65H174V15.9h2.64v3.75h2.16v2h-2.16v7.87c0,1.05.3,1.39,1.2,1.39a5,5,0,0,0,1-.07v2a8.44,8.44,0,0,1-2.13.22c-1.77,0-2.67-.51-2.67-3.18V21.61h-1.82Z" fill="#3b4351"/><path d="M180.15,19.65h2.65v2.06h0a3.24,3.24,0,0,1,3.06-2.4,1.43,1.43,0,0,1,.64.1V22.1a3.94,3.94,0,0,0-1.11-.14c-1.2,0-2.64.53-2.64,3v7.89h-2.65Z" fill="#3b4351"/><path d="M187.35,26.24c0-4.11,1.08-6.93,4.9-6.93s4.93,2.82,4.93,6.93-1.27,6.94-4.93,6.94S187.35,30.36,187.35,26.24Zm4.9,5c1.94,0,2.28-1.62,2.28-5,0-2.91-.34-5-2.28-5s-2.25,2.06-2.25,5C190,29.6,190.37,31.22,192.25,31.22Z" fill="#3b4351"/><path d="M199,24.5h6.42V27H199Z" fill="#3b4351"/><path d="M216.66,30.8h0a3.64,3.64,0,0,1-3.82,2.38c-3.83,0-5.2-2.84-5.2-9.09S209.35,15,213.4,15a4.76,4.76,0,0,1,5.12,5v.32h-2.65V20c0-1.3-.54-2.85-2.45-2.85s-3,1.33-3,6.91.93,7.06,2.82,7.06c2.13,0,2.92-1.52,2.92-5.34h-2.94V23.62h5.58v9.22h-2.1Z" fill="#3b4351"/><path d="M220.48,26.24c0-4.11,1.08-6.93,4.9-6.93s4.92,2.82,4.92,6.93-1.27,6.94-4.92,6.94S220.48,30.36,220.48,26.24Zm4.9,5c1.93,0,2.28-1.62,2.28-5,0-2.91-.35-5-2.28-5s-2.26,2.06-2.26,5C223.12,29.6,223.49,31.22,225.38,31.22Z" fill="#3b4351"/><path d="M231.16,19.65H233V15.9h2.65v3.75h2.15v2h-2.15v7.87c0,1.05.29,1.39,1.2,1.39a4.91,4.91,0,0,0,1-.07v2a8.44,8.44,0,0,1-2.13.22c-1.76,0-2.67-.51-2.67-3.18V21.61h-1.81Z" fill="#3b4351"/><path d="M239.15,15.34h2.64v5.73l.08.05a3.76,3.76,0,0,1,3.23-1.81c2,0,3.28.91,3.28,3.58v10h-2.64V23.79c0-1.74-.49-2.37-1.84-2.37-1.08,0-2.11.83-2.11,2.57v8.85h-2.64Z" fill="#3b4351"/><path d="M256.62,23.5v-.34c0-1.06-.37-2-1.74-2-1.06,0-1.89.47-1.89,1.72,0,1.05.46,1.44,1.86,1.93l1.69.59c2,.66,2.87,1.72,2.87,3.8,0,2.82-2.08,4-4.73,4-3.33,0-4.34-1.55-4.34-4.09V28.6h2.35V29c0,1.55.52,2.36,2.06,2.36s2.16-.74,2.16-1.94a1.91,1.91,0,0,0-1.45-1.94l-2.15-.76c-2-.66-2.82-1.69-2.82-3.79,0-2.48,1.76-3.63,4.51-3.63,3.36,0,4.11,2,4.11,3.6v.59Z" fill="#3b4351"/><path d="M275.9,30.09c0,.49.29.93.68.93A1,1,0,0,0,277,31v1.71a2.67,2.67,0,0,1-1.29.32c-1.18,0-2.16-.46-2.23-1.74h-.05a3.41,3.41,0,0,1-3.29,1.94c-2.13,0-3.43-1.15-3.43-3.7,0-2.94,1.3-3.55,3.07-4.14l2.05-.57c1-.27,1.55-.54,1.55-1.69s-.42-2-1.82-2c-1.76,0-2,1.25-2,2.53h-2.5c0-2.82,1.15-4.34,4.63-4.34,2.33,0,4.19.91,4.19,3.23Zm-2.5-4.21a20.45,20.45,0,0,1-2.94,1.22,2.17,2.17,0,0,0-1.08,2.13c0,1.11.54,2,1.64,2,1.59,0,2.38-1.18,2.38-3.14Z" fill="#3b4351"/><path d="M278.59,19.65h2.5V21.2h.07a3.77,3.77,0,0,1,3.38-1.89c2,0,3.29.91,3.29,3.58v10h-2.65V23.79c0-1.76-.46-2.37-1.84-2.37-1.07,0-2.1.8-2.1,2.57v8.85h-2.65Z" fill="#3b4351"/><path d="M297.11,31.22h-.05a2.8,2.8,0,0,1-2.89,2c-3.06,0-4.31-2.6-4.31-7.11,0-5.85,2.06-6.76,4.07-6.76a3.05,3.05,0,0,1,3,1.89H297V15.34h2.64v17.5h-2.5Zm-2.4-9.8c-1.49,0-2.06,1.22-2.06,4.78,0,3,.37,4.87,2.23,4.87s2.23-1.84,2.23-4.68C297.11,23.23,296.77,21.42,294.71,21.42Z" fill="#3b4351"/><path d="M305.71,15.34h3l3,14h.05l3.14-14h3l-4.41,17.5h-3.55Z" fill="#3b4351"/><path d="M319,15.14h2.65v2.65H319Zm0,4.51h2.65V32.84H319Z" fill="#3b4351"/><path d="M330,23.5v-.34c0-1.06-.37-2-1.74-2-1.05,0-1.89.47-1.89,1.72,0,1.05.47,1.44,1.87,1.93l1.69.59c2,.66,2.86,1.72,2.86,3.8,0,2.82-2.08,4-4.73,4-3.33,0-4.33-1.55-4.33-4.09V28.6h2.35V29c0,1.55.51,2.36,2.06,2.36s2.15-.74,2.15-1.94a1.91,1.91,0,0,0-1.44-1.94l-2.16-.76c-2-.66-2.82-1.69-2.82-3.79,0-2.48,1.77-3.63,4.51-3.63,3.36,0,4.12,2,4.12,3.6v.59Z" fill="#3b4351"/><path d="M334.91,15.14h2.65v2.65h-2.65Zm0,4.51h2.65V32.84h-2.65Z" fill="#3b4351"/><path d="M340.06,24.5h6.42V27h-6.42Z" fill="#3b4351"/><path d="M357.68,30.8h-.05a3.65,3.65,0,0,1-3.83,2.38c-3.82,0-5.19-2.84-5.19-9.09S350.37,15,354.42,15a4.76,4.76,0,0,1,5.12,5v.32h-2.65V20c0-1.3-.54-2.85-2.45-2.85s-3,1.33-3,6.91.93,7.06,2.82,7.06c2.13,0,2.92-1.52,2.92-5.34H354.2V23.62h5.58v9.22h-2.1Z" fill="#3b4351"/><path d="M361.5,26.24c0-4.11,1.07-6.93,4.9-6.93s4.92,2.82,4.92,6.93-1.27,6.94-4.92,6.94S361.5,30.36,361.5,26.24Zm4.9,5c1.93,0,2.28-1.62,2.28-5,0-2.91-.35-5-2.28-5s-2.26,2.06-2.26,5C364.14,29.6,364.51,31.22,366.4,31.22Z" fill="#3b4351"/><path d="M372.18,19.65H374V15.9h2.65v3.75h2.15v2h-2.15v7.87c0,1.05.29,1.39,1.2,1.39a4.91,4.91,0,0,0,1-.07v2a8.44,8.44,0,0,1-2.13.22c-1.76,0-2.67-.51-2.67-3.18V21.61h-1.81Z" fill="#3b4351"/><path d="M380.16,15.34h2.65v5.73l.07.05a3.77,3.77,0,0,1,3.24-1.81c2,0,3.28.91,3.28,3.58v10h-2.64V23.79c0-1.74-.49-2.37-1.84-2.37-1.08,0-2.11.83-2.11,2.57v8.85h-2.65Z" fill="#3b4351"/><path d="M397.63,23.5v-.34c0-1.06-.36-2-1.74-2-1.05,0-1.88.47-1.88,1.72,0,1.05.46,1.44,1.86,1.93l1.69.59c2,.66,2.87,1.72,2.87,3.8,0,2.82-2.09,4-4.73,4-3.33,0-4.34-1.55-4.34-4.09V28.6h2.35V29c0,1.55.52,2.36,2.06,2.36s2.16-.74,2.16-1.94a1.91,1.91,0,0,0-1.45-1.94l-2.15-.76c-2-.66-2.82-1.69-2.82-3.79,0-2.48,1.76-3.63,4.51-3.63,3.35,0,4.11,2,4.11,3.6v.59Z" fill="#3b4351"/></g></g></svg>