<svg xmlns="http://www.w3.org/2000/svg" viewBox="0 0 1847.91 112"><title>ce0300text</title><g id="Text"><g id="Indians"><path d="M1289.5,28.46h0a3.63,3.63,0,0,1-3.82,2.38c-3.82,0-5.2-2.85-5.2-9.1s1.77-9.09,5.81-9.09a4.76,4.76,0,0,1,5.12,5V18h-2.64V17.6c0-1.3-.54-2.84-2.45-2.84s-3,1.32-3,6.91.93,7.06,2.82,7.06c2.13,0,2.91-1.52,2.91-5.34H1286V21.28h5.59v9.21h-2.11Z"/><path d="M1300.58,29h-.08a3.79,3.79,0,0,1-3.38,1.89c-2,0-3.28-.91-3.28-4.32V17.31h2.64v9.46c0,1.47.64,2,1.79,2a2.06,2.06,0,0,0,2.16-2.21V17.31h2.64V30.49h-2.49Z"/><path d="M1311.31,30.84a3,3,0,0,1-3-1.89h0v5.86h-2.65V17.31h2.5v1.62h.05a3.11,3.11,0,0,1,3-2c3,0,4.24,2.58,4.24,7.11C1315.37,29.61,1313.14,30.84,1311.31,30.84Zm-1-11.77c-1.81,0-2.23,1.84-2.23,4.68,0,3.16.39,5,2.25,5,1.5,0,2.21-1.13,2.21-4.78C1312.58,21,1312.21,19.07,1310.35,19.07Z"/><path d="M1316.23,17.31H1318V13.56h2.65v3.75h2.16v2h-2.16v7.86c0,1.06.29,1.4,1.2,1.4a5.1,5.1,0,0,0,1-.07v2a8.58,8.58,0,0,1-2.14.22c-1.76,0-2.67-.52-2.67-3.19V19.27h-1.81Z"/><path d="M1332.87,27.75c0,.49.29.93.68.93a1.14,1.14,0,0,0,.44-.07v1.71a2.79,2.79,0,0,1-1.3.32c-1.17,0-2.15-.47-2.22-1.74h0a3.41,3.41,0,0,1-3.29,1.94c-2.13,0-3.43-1.16-3.43-3.71,0-2.94,1.3-3.55,3.06-4.14l2.06-.56c1-.27,1.55-.54,1.55-1.69s-.42-2-1.82-2c-1.76,0-2,1.25-2,2.52H1324c0-2.82,1.16-4.34,4.64-4.34,2.32,0,4.19.91,4.19,3.24Zm-2.5-4.22a21,21,0,0,1-2.94,1.23,2.17,2.17,0,0,0-1.08,2.13c0,1.1.54,2,1.64,2,1.59,0,2.38-1.17,2.38-3.13Z"/><path d="M1341.61,13h5c5.48,0,6.17,3.57,6.17,8.74s-.69,8.75-6.17,8.75h-5Zm2.79,15.38h2.31c2.3,0,3.26-1.51,3.26-6.64,0-4.92-.84-6.64-3.26-6.64h-2.31Z"/><path d="M1356.83,17.31l2.27,9.9h.05l2.11-9.9H1364L1360.4,31c-1.05,3.6-1.86,4.1-4.6,4a4.76,4.76,0,0,1-1.06-.1V32.8a3.65,3.65,0,0,0,.86.09c.91,0,1.5-.17,1.79-1l.34-1.08L1354,17.31Z"/><path d="M1365.5,17.31h2.5v1.54h.07a3.79,3.79,0,0,1,3.38-1.89c2,0,3.29.91,3.29,3.58v10h-2.65v-9c0-1.76-.47-2.38-1.84-2.38-1.08,0-2.11.81-2.11,2.58v8.84h-2.64Z"/><path d="M1385.93,27.75c0,.49.3.93.69.93a1.22,1.22,0,0,0,.44-.07v1.71a2.83,2.83,0,0,1-1.3.32c-1.17,0-2.16-.47-2.23-1.74h0a3.4,3.4,0,0,1-3.28,1.94c-2.13,0-3.43-1.16-3.43-3.71,0-2.94,1.3-3.55,3.06-4.14l2.06-.56c1-.27,1.54-.54,1.54-1.69s-.41-2-1.81-2c-1.77,0-2,1.25-2,2.52h-2.5c0-2.82,1.15-4.34,4.63-4.34,2.33,0,4.19.91,4.19,3.24Zm-2.5-4.22a20,20,0,0,1-2.94,1.23,2.17,2.17,0,0,0-1.08,2.13c0,1.1.54,2,1.65,2,1.59,0,2.37-1.17,2.37-3.13Z"/><path d="M1394.31,21.16v-.35c0-1-.37-2-1.74-2-1,0-1.89.46-1.89,1.71,0,1.06.47,1.45,1.87,1.94l1.69.59c2,.66,2.86,1.71,2.86,3.8,0,2.81-2.08,4-4.73,4-3.33,0-4.33-1.55-4.33-4.1v-.49h2.35v.42c0,1.54.51,2.35,2.06,2.35s2.15-.73,2.15-1.93a1.91,1.91,0,0,0-1.44-1.94l-2.16-.76c-2-.66-2.82-1.69-2.82-3.8,0-2.47,1.77-3.63,4.51-3.63,3.36,0,4.12,2,4.12,3.61v.59Z"/><path d="M1397.89,17.31h1.81V13.56h2.65v3.75h2.15v2h-2.15v7.86c0,1.06.29,1.4,1.2,1.4a4.91,4.91,0,0,0,1-.07v2a8.44,8.44,0,0,1-2.13.22c-1.76,0-2.67-.52-2.67-3.19V19.27h-1.81Z"/><path d="M1407.64,17.31l2.28,9.9h0l2.1-9.9h2.77L1411.22,31c-1.06,3.6-1.87,4.1-4.61,4a4.62,4.62,0,0,1-1-.1V32.8a3.51,3.51,0,0,0,.85.09c.91,0,1.5-.17,1.79-1l.34-1.08-3.74-13.48Z"/><path d="M1295.94,40a20.65,20.65,0,0,0-2.79,11,21.38,21.38,0,0,0,2.79,11h-1.89a18.71,18.71,0,0,1,0-22Z"/><path d="M1297.38,40h2.8v7h5.14V40h2.8V57.49h-2.8V49.36h-5.14v8.13h-2.8Z"/><path d="M1311,39.8h2.64v2.65H1311Zm0,4.51h2.64V57.49H1311Z"/><path d="M1316.27,44.31h2.5v1.54h.08a3.78,3.78,0,0,1,3.38-1.88c2,0,3.28.9,3.28,3.57v10h-2.64v-9c0-1.76-.47-2.38-1.84-2.38-1.08,0-2.11.81-2.11,2.58v8.84h-2.65Z"/><path d="M1334.8,55.87h0a2.82,2.82,0,0,1-2.89,2c-3.07,0-4.32-2.6-4.32-7.11,0-5.86,2.06-6.76,4.07-6.76a3,3,0,0,1,3,1.88h.05V40h2.65V57.49h-2.5Zm-2.41-9.8c-1.49,0-2.05,1.23-2.05,4.78,0,3,.36,4.88,2.23,4.88s2.23-1.84,2.23-4.68C1334.8,47.89,1334.45,46.07,1332.39,46.07Z"/><path d="M1346.58,56h-.07a3.79,3.79,0,0,1-3.38,1.89c-2,0-3.29-.91-3.29-4.32V44.31h2.65v9.46c0,1.47.64,2,1.79,2a2.06,2.06,0,0,0,2.15-2.21V44.31h2.65V57.49h-2.5Z"/><path d="M1357.31,48.16v-.35c0-1.05-.37-2-1.74-2-1,0-1.89.46-1.89,1.71,0,1.06.47,1.45,1.87,1.94l1.69.59c2,.66,2.86,1.71,2.86,3.8,0,2.81-2.08,4-4.72,4-3.34,0-4.34-1.55-4.34-4.1v-.49h2.35v.42c0,1.54.51,2.35,2.06,2.35s2.15-.73,2.15-1.93a1.9,1.9,0,0,0-1.44-1.94l-2.16-.76c-2-.66-2.82-1.69-2.82-3.8,0-2.47,1.77-3.62,4.51-3.62,3.36,0,4.12,2,4.12,3.6v.59Z"/><path d="M1360.79,62a20.67,20.67,0,0,0,2.79-11,21.38,21.38,0,0,0-2.79-11h1.89a18.71,18.71,0,0,1,0,22Z"/></g><g id="Chinese"><path d="M1553.7,88.24h-4.17V85.89h11.06v2.35h-4.1v15.15h-2.79Z"/><path d="M1562,85.89h2.64v5.74l.08,0a3.74,3.74,0,0,1,3.23-1.81c2,0,3.28.91,3.28,3.58v10h-2.64v-9c0-1.74-.49-2.38-1.84-2.38-1.08,0-2.11.83-2.11,2.57v8.85H1562Z"/><path d="M1573.79,90.2h2.65v2.06h0a3.26,3.26,0,0,1,3.07-2.4,1.59,1.59,0,0,1,.64.1v2.7a3.54,3.54,0,0,0-1.11-.15c-1.2,0-2.64.54-2.64,3v7.89h-2.65Z"/><path d="M1583.64,97.14v.76c0,1.76.22,4,2.2,4S1588,99.79,1588,99h2.5c0,3-1.76,4.75-4.63,4.75-2.16,0-4.83-.64-4.83-6.74,0-3.45.76-7.13,4.88-7.13,3.67,0,4.65,2.23,4.65,5.88v1.4Zm4.24-1.81v-.71c0-1.67-.54-3-2-3-1.66,0-2.2,1.67-2.2,3.39v.27Z"/><path d="M1595,97.14v.76c0,1.76.22,4,2.21,4s2.11-2.13,2.11-2.94h2.49c0,3-1.76,4.75-4.63,4.75-2.15,0-4.82-.64-4.82-6.74,0-3.45.76-7.13,4.87-7.13,3.68,0,4.66,2.23,4.66,5.88v1.4Zm4.24-1.81v-.71c0-1.67-.54-3-2-3-1.67,0-2.21,1.67-2.21,3.39v.27Z"/><path d="M1610.1,85.89h2.79v7.62h0l5.29-7.62h3.07l-5,7.38,5.59,10.12h-3.17l-4.24-7.87-1.54,2.21v5.66h-2.79Z"/><path d="M1622.76,85.7h2.65v2.64h-2.65Zm0,4.5h2.65v13.19h-2.65Z"/><path d="M1628.08,90.2h2.5v1.55h.07a3.77,3.77,0,0,1,3.38-1.89c2,0,3.29.91,3.29,3.58v10h-2.65v-9c0-1.77-.46-2.38-1.84-2.38-1.07,0-2.1.81-2.1,2.57v8.85h-2.65Z"/><path d="M1642.51,104.52a1.73,1.73,0,0,0,1.91,1.56,2.18,2.18,0,0,0,2.23-2.47v-2.13h-.05a3.18,3.18,0,0,1-3,1.81c-3.06,0-3.94-3-3.94-6.64,0-2.89.44-6.79,4.19-6.79a2.91,2.91,0,0,1,2.89,2h0V90.2h2.5v12.55c0,3.21-1.37,5.15-4.93,5.15-3.92,0-4.36-2.31-4.36-3.38Zm1.86-3.34c2.06,0,2.28-2.59,2.28-4.68s-.27-4.53-2.1-4.53-2.24,2-2.24,4.41C1642.31,98.63,1642.41,101.18,1644.37,101.18Z"/><path d="M1658.39,101.77h-.05a2.82,2.82,0,0,1-2.89,2c-3.07,0-4.32-2.6-4.32-7.11,0-5.85,2.06-6.76,4.07-6.76a3,3,0,0,1,3,1.89h0V85.89h2.65v17.5h-2.5ZM1656,92c-1.5,0-2.06,1.22-2.06,4.78,0,3,.37,4.87,2.23,4.87s2.23-1.83,2.23-4.68C1658.39,93.78,1658,92,1656,92Z"/><path d="M1662.92,96.8c0-4.12,1.08-6.94,4.9-6.94s4.92,2.82,4.92,6.94-1.27,6.93-4.92,6.93S1662.92,100.91,1662.92,96.8Zm4.9,5c1.93,0,2.28-1.62,2.28-5,0-2.92-.35-5-2.28-5s-2.26,2.06-2.26,5C1665.56,100.15,1665.93,101.77,1667.82,101.77Z"/><path d="M1674.9,90.2h2.5v1.55h.07a3.68,3.68,0,0,1,3.16-1.89,2.88,2.88,0,0,1,3.07,2,3.61,3.61,0,0,1,3.33-2c1.86,0,3.21,1,3.21,3.51v10h-2.65v-9c0-1.74-.51-2.38-1.59-2.38s-2.11.83-2.11,2.57v8.85h-2.65v-9c0-1.74-.51-2.38-1.61-2.38s-2.08.86-2.08,2.57v8.85h-2.65Z"/><path d="M1699,85.89h5.53c3.36,0,4.83,2.11,4.83,5.1s-1.86,5.17-5.12,5.17h-2.45v7.23H1699Zm2.79,8.16h2c1.49,0,2.79-.78,2.79-3,0-1.89-.76-3-3-3h-1.79Z"/><path d="M1713.31,97.14v.76c0,1.76.23,4,2.21,4s2.11-2.13,2.11-2.94h2.5c0,3-1.77,4.75-4.63,4.75-2.16,0-4.83-.64-4.83-6.74,0-3.45.76-7.13,4.87-7.13,3.68,0,4.66,2.23,4.66,5.88v1.4Zm4.24-1.81v-.71c0-1.67-.53-3-2-3-1.67,0-2.21,1.67-2.21,3.39v.27Z"/><path d="M1722.38,90.2H1725v2.06h0a3.26,3.26,0,0,1,3.07-2.4,1.5,1.5,0,0,1,.63.1v2.7a3.42,3.42,0,0,0-1.1-.15c-1.2,0-2.64.54-2.64,3v7.89h-2.65Z"/><path d="M1730.22,85.7h2.65v2.64h-2.65Zm0,4.5h2.65v13.19h-2.65Z"/><path d="M1735,96.8c0-4.12,1.08-6.94,4.9-6.94s4.93,2.82,4.93,6.94-1.28,6.93-4.93,6.93S1735,100.91,1735,96.8Zm4.9,5c1.94,0,2.28-1.62,2.28-5,0-2.92-.34-5-2.28-5s-2.25,2.06-2.25,5C1737.67,100.15,1738,101.77,1739.92,101.77Z"/><path d="M1753.62,101.77h0a2.82,2.82,0,0,1-2.89,2c-3.07,0-4.32-2.6-4.32-7.11,0-5.85,2.06-6.76,4.07-6.76a3,3,0,0,1,3,1.89h0V85.89h2.65v17.5h-2.5Zm-2.4-9.8c-1.5,0-2.06,1.22-2.06,4.78,0,3,.36,4.87,2.23,4.87s2.23-1.83,2.23-4.68C1753.62,93.78,1753.27,92,1751.22,92Z"/></g></g><g id="YEARS"><g id="Right"><path d="M1791.69,97.34c0,1.61.54,3.4,2.52,3.4s2.57-1.48,2.57-3.3c0-2.29-.73-3.43-3-3.43h-1.14V91.93h1.06c2,0,2.66-1.35,2.66-3.15,0-1.32-.6-2.65-2.14-2.65-1.82,0-2.34,1.56-2.34,3.22h-2.8c0-3.45,1.76-5.3,5.3-5.3,2.21,0,4.94,1,4.94,4.71a3.91,3.91,0,0,1-2.94,4v.08c1.9.18,3.36,1.66,3.36,4.26,0,3.66-1.8,5.69-5.62,5.69-3.33,0-5.25-1.63-5.25-5.48Z"/><path d="M1806.79,84.05c3.54,0,5.51,2.21,5.51,9.39s-2,9.38-5.51,9.38-5.51-2.21-5.51-9.38S1803.26,84.05,1806.79,84.05Zm0,16.69c2,0,2.55-2,2.55-7.3s-.55-7.31-2.55-7.31-2.55,2-2.55,7.31S1804.79,100.74,1806.79,100.74Z"/><path d="M1819.27,84.05c3.54,0,5.51,2.21,5.51,9.39s-2,9.38-5.51,9.38-5.51-2.21-5.51-9.38S1815.73,84.05,1819.27,84.05Zm0,16.69c2,0,2.55-2,2.55-7.3s-.55-7.31-2.55-7.31-2.55,2-2.55,7.31S1817.27,100.74,1819.27,100.74Z"/></g><g id="left"><path d="M21.94,100.94c0,1.61.54,3.4,2.52,3.4S27,102.86,27,101c0-2.29-.73-3.43-3-3.43H22.9V95.53H24c2,0,2.66-1.35,2.66-3.15,0-1.33-.6-2.65-2.14-2.65-1.82,0-2.34,1.56-2.34,3.22h-2.8c0-3.45,1.76-5.3,5.3-5.3,2.21,0,4.94,1,4.94,4.71a3.89,3.89,0,0,1-2.94,4v.08c1.9.19,3.36,1.67,3.36,4.27,0,3.66-1.8,5.69-5.62,5.69-3.33,0-5.25-1.64-5.25-5.48Z"/><path d="M37,87.65c3.54,0,5.51,2.21,5.51,9.39s-2,9.38-5.51,9.38-5.51-2.21-5.51-9.38S33.51,87.65,37,87.65Zm0,16.69c2,0,2.55-2,2.55-7.3S39,89.73,37,89.73s-2.55,2-2.55,7.31S35,104.34,37,104.34Z"/><path d="M49.52,87.65C53.06,87.65,55,89.86,55,97s-2,9.38-5.51,9.38S44,104.21,44,97,46,87.65,49.52,87.65Zm0,16.69c2,0,2.55-2,2.55-7.3s-.55-7.31-2.55-7.31S47,91.71,47,97,47.52,104.34,49.52,104.34Z"/></g></g></svg>