<svg xmlns="http://www.w3.org/2000/svg" viewBox="0 0 1847.91 110"><title>ce0350text</title><g id="YEARS"><g id="Right"><path d="M1791.69,94.67c0,1.61.54,3.41,2.52,3.41s2.57-1.49,2.57-3.31c0-2.28-.73-3.43-3-3.43h-1.14V89.26h1.06c2,0,2.66-1.35,2.66-3.14,0-1.33-.6-2.66-2.14-2.66-1.82,0-2.34,1.56-2.34,3.23h-2.8c0-3.46,1.76-5.31,5.3-5.31,2.21,0,4.94,1,4.94,4.71a3.9,3.9,0,0,1-2.94,4v.08c1.9.18,3.36,1.66,3.36,4.26,0,3.67-1.8,5.7-5.62,5.7-3.33,0-5.25-1.64-5.25-5.49Z"/><path d="M1801.38,94.83h2.81v.49a2.35,2.35,0,0,0,2.42,2.6c2.08,0,2.63-2,2.63-4.19s-.58-3.92-2.47-3.92a2.34,2.34,0,0,0-2.42,1.69l-2.63-.11.91-9.64h8.87v2.36h-6.66l-.6,4.84.06,0a4,4,0,0,1,3.09-1.43c3.85,0,4.81,3.25,4.81,6.09,0,3.69-1.69,6.5-5.67,6.5-3.3,0-5.15-1.69-5.15-4.94Z"/><path d="M1819.27,81.38c3.54,0,5.51,2.21,5.51,9.39s-2,9.39-5.51,9.39-5.51-2.21-5.51-9.39S1815.73,81.38,1819.27,81.38Zm0,16.7c2,0,2.55-2,2.55-7.31s-.55-7.31-2.55-7.31-2.55,2-2.55,7.31S1817.27,98.08,1819.27,98.08Z"/></g><g id="left"><path d="M21.94,98.27c0,1.61.54,3.41,2.52,3.41S27,100.19,27,98.37c0-2.29-.73-3.43-3-3.43H22.9V92.86H24c2,0,2.66-1.35,2.66-3.15,0-1.32-.6-2.65-2.14-2.65-1.82,0-2.34,1.56-2.34,3.23h-2.8c0-3.46,1.76-5.31,5.3-5.31,2.21,0,4.94,1,4.94,4.71a3.9,3.9,0,0,1-2.94,4v.08C28.54,94,30,95.46,30,98.06c0,3.67-1.8,5.7-5.62,5.7-3.33,0-5.25-1.64-5.25-5.49Z"/><path d="M31.63,98.42h2.81v.5a2.35,2.35,0,0,0,2.42,2.6c2.08,0,2.63-2,2.63-4.19s-.58-3.92-2.47-3.92A2.34,2.34,0,0,0,34.6,95.1L32,95l.91-9.64h8.87v2.36H35.09l-.6,4.84.06,0a4,4,0,0,1,3.09-1.43c3.85,0,4.81,3.25,4.81,6.08,0,3.7-1.69,6.51-5.67,6.51-3.3,0-5.15-1.7-5.15-5Z"/><path d="M49.52,85C53.06,85,55,87.19,55,94.37s-2,9.39-5.51,9.39S44,101.54,44,94.37,46,85,49.52,85Zm0,16.7c2,0,2.55-2,2.55-7.31s-.55-7.31-2.55-7.31S47,89,47,94.37,47.52,101.68,49.52,101.68Z"/></g></g><g id="Text"><g id="Teutons_-_goths" data-name="Teutons - goths"><path d="M149,24.09c0-6.25,1.76-9.09,5.78-9.09s5.78,2.84,5.78,9.09-1.76,9.09-5.78,9.09S149,30.34,149,24.09Zm8.77-.08c0-5.88-1.32-6.91-3-6.91s-3,1-3,6.91,1.32,7.06,3,7.06S157.81,30,157.81,24Z" fill="#3b4351"/><path d="M168.59,23.5v-.34c0-1.06-.37-2-1.74-2-1.06,0-1.89.47-1.89,1.72,0,1.05.47,1.44,1.86,1.93l1.7.59c2,.66,2.86,1.72,2.86,3.8,0,2.82-2.08,4-4.73,4-3.33,0-4.34-1.55-4.34-4.09V28.6h2.36V29c0,1.55.51,2.36,2.06,2.36s2.15-.74,2.15-1.94a1.91,1.91,0,0,0-1.44-1.94l-2.16-.76c-2-.66-2.82-1.69-2.82-3.79,0-2.48,1.77-3.63,4.51-3.63,3.36,0,4.12,2,4.12,3.6v.59Z" fill="#3b4351"/><path d="M172.16,19.65H174V15.9h2.64v3.75h2.16v2h-2.16v7.87c0,1.05.3,1.39,1.2,1.39a5,5,0,0,0,1-.07v2a8.44,8.44,0,0,1-2.13.22c-1.77,0-2.67-.51-2.67-3.18V21.61h-1.82Z" fill="#3b4351"/><path d="M180.15,19.65h2.65v2.06h0a3.24,3.24,0,0,1,3.06-2.4,1.43,1.43,0,0,1,.64.1V22.1a3.94,3.94,0,0,0-1.11-.14c-1.2,0-2.64.53-2.64,3v7.89h-2.65Z" fill="#3b4351"/><path d="M187.35,26.24c0-4.11,1.08-6.93,4.9-6.93s4.93,2.82,4.93,6.93-1.27,6.94-4.93,6.94S187.35,30.36,187.35,26.24Zm4.9,5c1.94,0,2.28-1.62,2.28-5,0-2.91-.34-5-2.28-5s-2.25,2.06-2.25,5C190,29.6,190.37,31.22,192.25,31.22Z" fill="#3b4351"/><path d="M199,24.5h6.42V27H199Z" fill="#3b4351"/><path d="M216.66,30.8h0a3.64,3.64,0,0,1-3.82,2.38c-3.83,0-5.2-2.84-5.2-9.09S209.35,15,213.4,15a4.76,4.76,0,0,1,5.12,5v.32h-2.65V20c0-1.3-.54-2.85-2.45-2.85s-3,1.33-3,6.91.93,7.06,2.82,7.06c2.13,0,2.92-1.52,2.92-5.34h-2.94V23.62h5.58v9.22h-2.1Z" fill="#3b4351"/><path d="M220.48,26.24c0-4.11,1.08-6.93,4.9-6.93s4.92,2.82,4.92,6.93-1.27,6.94-4.92,6.94S220.48,30.36,220.48,26.24Zm4.9,5c1.93,0,2.28-1.62,2.28-5,0-2.91-.35-5-2.28-5s-2.26,2.06-2.26,5C223.12,29.6,223.49,31.22,225.38,31.22Z" fill="#3b4351"/><path d="M231.16,19.65H233V15.9h2.65v3.75h2.15v2h-2.15v7.87c0,1.05.29,1.39,1.2,1.39a4.91,4.91,0,0,0,1-.07v2a8.44,8.44,0,0,1-2.13.22c-1.76,0-2.67-.51-2.67-3.18V21.61h-1.81Z" fill="#3b4351"/><path d="M239.15,15.34h2.64v5.73l.08.05a3.76,3.76,0,0,1,3.23-1.81c2,0,3.28.91,3.28,3.58v10h-2.64V23.79c0-1.74-.49-2.37-1.84-2.37-1.08,0-2.11.83-2.11,2.57v8.85h-2.64Z" fill="#3b4351"/><path d="M256.62,23.5v-.34c0-1.06-.37-2-1.74-2-1.06,0-1.89.47-1.89,1.72,0,1.05.46,1.44,1.86,1.93l1.69.59c2,.66,2.87,1.72,2.87,3.8,0,2.82-2.08,4-4.73,4-3.33,0-4.34-1.55-4.34-4.09V28.6h2.35V29c0,1.55.52,2.36,2.06,2.36s2.16-.74,2.16-1.94a1.91,1.91,0,0,0-1.45-1.94l-2.15-.76c-2-.66-2.82-1.69-2.82-3.79,0-2.48,1.76-3.63,4.51-3.63,3.36,0,4.11,2,4.11,3.6v.59Z" fill="#3b4351"/><path d="M275.9,30.09c0,.49.29.93.68.93A1,1,0,0,0,277,31v1.71a2.67,2.67,0,0,1-1.29.32c-1.18,0-2.16-.46-2.23-1.74h-.05a3.41,3.41,0,0,1-3.29,1.94c-2.13,0-3.43-1.15-3.43-3.7,0-2.94,1.3-3.55,3.07-4.14l2.05-.57c1-.27,1.55-.54,1.55-1.69s-.42-2-1.82-2c-1.76,0-2,1.25-2,2.53h-2.5c0-2.82,1.15-4.34,4.63-4.34,2.33,0,4.19.91,4.19,3.23Zm-2.5-4.21a20.45,20.45,0,0,1-2.94,1.22,2.17,2.17,0,0,0-1.08,2.13c0,1.11.54,2,1.64,2,1.59,0,2.38-1.18,2.38-3.14Z" fill="#3b4351"/><path d="M278.59,19.65h2.5V21.2h.07a3.77,3.77,0,0,1,3.38-1.89c2,0,3.29.91,3.29,3.58v10h-2.65V23.79c0-1.76-.46-2.37-1.84-2.37-1.07,0-2.1.8-2.1,2.57v8.85h-2.65Z" fill="#3b4351"/><path d="M297.11,31.22h-.05a2.8,2.8,0,0,1-2.89,2c-3.06,0-4.31-2.6-4.31-7.11,0-5.85,2.06-6.76,4.07-6.76a3.05,3.05,0,0,1,3,1.89H297V15.34h2.64v17.5h-2.5Zm-2.4-9.8c-1.49,0-2.06,1.22-2.06,4.78,0,3,.37,4.87,2.23,4.87s2.23-1.84,2.23-4.68C297.11,23.23,296.77,21.42,294.71,21.42Z" fill="#3b4351"/><path d="M305.71,15.34h3l3,14h.05l3.14-14h3l-4.41,17.5h-3.55Z" fill="#3b4351"/><path d="M319,15.14h2.65v2.65H319Zm0,4.51h2.65V32.84H319Z" fill="#3b4351"/><path d="M330,23.5v-.34c0-1.06-.37-2-1.74-2-1.05,0-1.89.47-1.89,1.72,0,1.05.47,1.44,1.87,1.93l1.69.59c2,.66,2.86,1.72,2.86,3.8,0,2.82-2.08,4-4.73,4-3.33,0-4.33-1.55-4.33-4.09V28.6h2.35V29c0,1.55.51,2.36,2.06,2.36s2.15-.74,2.15-1.94a1.91,1.91,0,0,0-1.44-1.94l-2.16-.76c-2-.66-2.82-1.69-2.82-3.79,0-2.48,1.77-3.63,4.51-3.63,3.36,0,4.12,2,4.12,3.6v.59Z" fill="#3b4351"/><path d="M334.91,15.14h2.65v2.65h-2.65Zm0,4.51h2.65V32.84h-2.65Z" fill="#3b4351"/><path d="M340.06,24.5h6.42V27h-6.42Z" fill="#3b4351"/><path d="M357.68,30.8h-.05a3.65,3.65,0,0,1-3.83,2.38c-3.82,0-5.19-2.84-5.19-9.09S350.37,15,354.42,15a4.76,4.76,0,0,1,5.12,5v.32h-2.65V20c0-1.3-.54-2.85-2.45-2.85s-3,1.33-3,6.91.93,7.06,2.82,7.06c2.13,0,2.92-1.52,2.92-5.34H354.2V23.62h5.58v9.22h-2.1Z" fill="#3b4351"/><path d="M361.5,26.24c0-4.11,1.07-6.93,4.9-6.93s4.92,2.82,4.92,6.93-1.27,6.94-4.92,6.94S361.5,30.36,361.5,26.24Zm4.9,5c1.93,0,2.28-1.62,2.28-5,0-2.91-.35-5-2.28-5s-2.26,2.06-2.26,5C364.14,29.6,364.51,31.22,366.4,31.22Z" fill="#3b4351"/><path d="M372.18,19.65H374V15.9h2.65v3.75h2.15v2h-2.15v7.87c0,1.05.29,1.39,1.2,1.39a4.91,4.91,0,0,0,1-.07v2a8.44,8.44,0,0,1-2.13.22c-1.76,0-2.67-.51-2.67-3.18V21.61h-1.81Z" fill="#3b4351"/><path d="M380.16,15.34h2.65v5.73l.07.05a3.77,3.77,0,0,1,3.24-1.81c2,0,3.28.91,3.28,3.58v10h-2.64V23.79c0-1.74-.49-2.37-1.84-2.37-1.08,0-2.11.83-2.11,2.57v8.85h-2.65Z" fill="#3b4351"/><path d="M397.63,23.5v-.34c0-1.06-.36-2-1.74-2-1.05,0-1.88.47-1.88,1.72,0,1.05.46,1.44,1.86,1.93l1.69.59c2,.66,2.87,1.72,2.87,3.8,0,2.82-2.09,4-4.73,4-3.33,0-4.34-1.55-4.34-4.09V28.6h2.35V29c0,1.55.52,2.36,2.06,2.36s2.16-.74,2.16-1.94a1.91,1.91,0,0,0-1.45-1.94l-2.15-.76c-2-.66-2.82-1.69-2.82-3.79,0-2.48,1.76-3.63,4.51-3.63,3.35,0,4.11,2,4.11,3.6v.59Z" fill="#3b4351"/></g></g></svg>