<svg xmlns="http://www.w3.org/2000/svg" viewBox="0 0 1847.91 113"><title>ce0400text</title><g id="Text"><g id="Romans"><path d="M350.26,88.71h2.81l2.31,13.61h.05l2.3-13.61h2.94L363,102.39h.05l2.28-13.68h2.77l-3.48,17.5h-3.23L359.15,93h0l-2.23,13.18h-3.23Z"/><path d="M371.38,100v.76c0,1.77.22,4,2.2,4s2.11-2.13,2.11-2.94h2.5c0,3-1.77,4.76-4.63,4.76-2.16,0-4.83-.64-4.83-6.74,0-3.46.76-7.13,4.88-7.13,3.67,0,4.65,2.23,4.65,5.88V100Zm4.24-1.81v-.71c0-1.67-.54-2.94-2-2.94-1.67,0-2.2,1.67-2.2,3.38v.27Z"/><path d="M386.13,96.88v-.35c0-1-.37-2-1.74-2-1.06,0-1.89.46-1.89,1.71,0,1.06.46,1.45,1.86,1.94l1.69.59c2,.66,2.87,1.71,2.87,3.8,0,2.81-2.08,4-4.73,4-3.33,0-4.34-1.55-4.34-4.1V102h2.35v.42c0,1.54.52,2.35,2.06,2.35s2.16-.73,2.16-1.93a1.91,1.91,0,0,0-1.45-1.94l-2.15-.76c-2-.66-2.82-1.69-2.82-3.8,0-2.47,1.76-3.62,4.51-3.62,3.36,0,4.11,2,4.11,3.6v.59Z"/><path d="M389.7,93h1.81V89.28h2.65V93h2.16v2h-2.16v7.87c0,1,.29,1.39,1.2,1.39a5.1,5.1,0,0,0,1-.07v2a8.55,8.55,0,0,1-2.13.22c-1.77,0-2.68-.52-2.68-3.19V95H389.7Z"/><path d="M400,100v.76c0,1.77.22,4,2.2,4s2.11-2.13,2.11-2.94h2.5c0,3-1.76,4.76-4.63,4.76-2.16,0-4.83-.64-4.83-6.74,0-3.46.76-7.13,4.88-7.13,3.67,0,4.65,2.23,4.65,5.88V100Zm4.24-1.81v-.71c0-1.67-.54-2.94-2-2.94-1.66,0-2.2,1.67-2.2,3.38v.27Z"/><path d="M409,93h2.65v2.06h.05a3.26,3.26,0,0,1,3.06-2.4,1.61,1.61,0,0,1,.64.09v2.7a3.87,3.87,0,0,0-1.11-.15c-1.2,0-2.64.54-2.64,3v7.89H409Z"/><path d="M417,93h2.5v1.54h.08A3.78,3.78,0,0,1,423,92.69c2,0,3.28.9,3.28,3.57v9.95h-2.64v-9c0-1.76-.47-2.38-1.84-2.38-1.08,0-2.11.81-2.11,2.58v8.84H417Z"/><path d="M443.31,103.47c0,.49.29.93.68.93a1.24,1.24,0,0,0,.45-.07V106a2.86,2.86,0,0,1-1.3.32c-1.18,0-2.16-.47-2.23-1.74h-.05a3.41,3.41,0,0,1-3.29,1.94c-2.13,0-3.43-1.16-3.43-3.7,0-3,1.3-3.56,3.07-4.15l2.06-.56c1-.27,1.54-.54,1.54-1.69s-.42-2-1.81-2c-1.77,0-2,1.25-2,2.52h-2.5c0-2.81,1.15-4.33,4.63-4.33,2.33,0,4.19.9,4.19,3.23Zm-2.5-4.22a20.5,20.5,0,0,1-2.94,1.23,2.17,2.17,0,0,0-1.08,2.13c0,1.1.54,2,1.64,2,1.59,0,2.38-1.17,2.38-3.13Z"/><path d="M446,93h2.5v1.54h.07A3.81,3.81,0,0,1,452,92.69c2,0,3.28.9,3.28,3.57v9.95h-2.65v-9c0-1.76-.46-2.38-1.83-2.38-1.08,0-2.11.81-2.11,2.58v8.84H446Z"/><path d="M464.52,104.59h0a2.83,2.83,0,0,1-2.9,2c-3.06,0-4.31-2.6-4.31-7.11,0-5.86,2.06-6.76,4.07-6.76a3.06,3.06,0,0,1,3,1.88h.05V88.71H467v17.5h-2.5Zm-2.4-9.8c-1.49,0-2.06,1.23-2.06,4.78,0,3,.37,4.88,2.23,4.88s2.23-1.84,2.23-4.68C464.52,96.61,464.18,94.79,462.12,94.79Z"/><path d="M475.62,88.71h9.46v2.36h-6.67v4.85h6.28v2.35h-6.28v5.59h6.87v2.35h-9.66Z"/><path d="M495.88,103.47c0,.49.3.93.69.93a1.18,1.18,0,0,0,.44-.07V106a2.83,2.83,0,0,1-1.3.32c-1.17,0-2.15-.47-2.23-1.74h-.05a3.4,3.4,0,0,1-3.28,1.94c-2.13,0-3.43-1.16-3.43-3.7,0-3,1.3-3.56,3.06-4.15l2.06-.56c1-.27,1.54-.54,1.54-1.69s-.41-2-1.81-2c-1.76,0-2,1.25-2,2.52h-2.5c0-2.81,1.15-4.33,4.63-4.33,2.33,0,4.19.9,4.19,3.23Zm-2.5-4.22a20,20,0,0,1-2.94,1.23,2.16,2.16,0,0,0-1.07,2.13c0,1.1.53,2,1.64,2,1.59,0,2.37-1.17,2.37-3.13Z"/><path d="M504.26,96.88v-.35c0-1-.37-2-1.74-2-1,0-1.88.46-1.88,1.71,0,1.06.46,1.45,1.86,1.94l1.69.59c2,.66,2.87,1.71,2.87,3.8,0,2.81-2.09,4-4.73,4-3.34,0-4.34-1.55-4.34-4.1V102h2.35v.42c0,1.54.52,2.35,2.06,2.35s2.16-.73,2.16-1.93a1.91,1.91,0,0,0-1.45-1.94l-2.16-.76c-2-.66-2.81-1.69-2.81-3.8,0-2.47,1.76-3.62,4.5-3.62,3.36,0,4.12,2,4.12,3.6v.59Z"/><path d="M507.84,93h1.81V89.28h2.65V93h2.15v2H512.3v7.87c0,1,.29,1.39,1.2,1.39a4.91,4.91,0,0,0,1-.07v2a8.44,8.44,0,0,1-2.13.22c-1.76,0-2.67-.52-2.67-3.19V95h-1.81Z"/><path d="M518.1,100v.76c0,1.77.22,4,2.21,4s2.11-2.13,2.11-2.94h2.5c0,3-1.77,4.76-4.63,4.76-2.16,0-4.83-.64-4.83-6.74,0-3.46.76-7.13,4.87-7.13,3.68,0,4.66,2.23,4.66,5.88V100Zm4.24-1.81v-.71c0-1.67-.54-2.94-2-2.94-1.67,0-2.21,1.67-2.21,3.38v.27Z"/><path d="M527.17,93h2.64v2.06h.05a3.26,3.26,0,0,1,3.07-2.4,1.53,1.53,0,0,1,.63.09v2.7a3.73,3.73,0,0,0-1.1-.15c-1.2,0-2.65.54-2.65,3v7.89h-2.64Z"/><path d="M535.13,93h2.5v1.54h.07a3.78,3.78,0,0,1,3.38-1.88c2,0,3.29.9,3.29,3.57v9.95h-2.65v-9c0-1.76-.46-2.38-1.84-2.38-1.07,0-2.1.81-2.1,2.58v8.84h-2.65Z"/><path d="M553,88.71h9.45v2.36h-6.66v4.85H562v2.35h-6.27v5.59h6.86v2.35H553Z"/><path d="M564.7,93h2.5v1.54h.07a3.72,3.72,0,0,1,3.17-1.88,2.85,2.85,0,0,1,3.06,2,3.59,3.59,0,0,1,3.33-2c1.86,0,3.21,1,3.21,3.5v10h-2.65v-9c0-1.74-.51-2.38-1.59-2.38s-2.11.84-2.11,2.58v8.84h-2.64v-9c0-1.74-.52-2.38-1.62-2.38s-2.08.86-2.08,2.58v8.84H564.7Z"/><path d="M588.39,106.56a3,3,0,0,1-3-1.89h0v5.86h-2.64V93h2.5v1.62h0a3.1,3.1,0,0,1,3-2c3,0,4.24,2.57,4.24,7.1C592.46,105.33,590.23,106.56,588.39,106.56Zm-.95-11.77c-1.82,0-2.23,1.84-2.23,4.68,0,3.16.39,5,2.25,5,1.5,0,2.21-1.13,2.21-4.78C589.67,96.68,589.3,94.79,587.44,94.79Z"/><path d="M594.62,88.52h2.64v2.65h-2.64Zm0,4.51h2.64v13.18h-2.64Z"/><path d="M599.93,93h2.65v2.06h0a3.24,3.24,0,0,1,3.06-2.4,1.61,1.61,0,0,1,.64.09v2.7a3.87,3.87,0,0,0-1.11-.15c-1.2,0-2.64.54-2.64,3v7.89h-2.65Z"/><path d="M609.78,100v.76c0,1.77.22,4,2.21,4s2.1-2.13,2.1-2.94h2.5c0,3-1.76,4.76-4.63,4.76-2.16,0-4.83-.64-4.83-6.74,0-3.46.76-7.13,4.88-7.13,3.68,0,4.66,2.23,4.66,5.88V100ZM614,98.15v-.71c0-1.67-.54-2.94-2-2.94-1.67,0-2.21,1.67-2.21,3.38v.27Z"/><path d="M624.53,96.88v-.35c0-1-.37-2-1.74-2-1,0-1.89.46-1.89,1.71,0,1.06.47,1.45,1.87,1.94l1.69.59c2,.66,2.86,1.71,2.86,3.8,0,2.81-2.08,4-4.73,4-3.33,0-4.33-1.55-4.33-4.1V102h2.35v.42c0,1.54.51,2.35,2.06,2.35s2.15-.73,2.15-1.93a1.91,1.91,0,0,0-1.44-1.94l-2.16-.76c-2-.66-2.82-1.69-2.82-3.8,0-2.47,1.77-3.62,4.51-3.62,3.36,0,4.12,2,4.12,3.6v.59Z"/></g><g id="Huns"><path d="M1506.26,87.34h-4.17V85h11.05v2.36h-4.09v15.14h-2.79Z"/><path d="M1521.4,99.74c0,.49.29.93.68.93a1,1,0,0,0,.44-.08v1.72a2.78,2.78,0,0,1-1.29.32c-1.18,0-2.16-.47-2.23-1.74h0a3.41,3.41,0,0,1-3.29,1.93c-2.13,0-3.43-1.15-3.43-3.7,0-2.94,1.3-3.55,3.07-4.14l2-.56c1-.27,1.55-.54,1.55-1.69s-.42-2-1.82-2c-1.76,0-2,1.25-2,2.52h-2.5c0-2.82,1.16-4.34,4.64-4.34,2.32,0,4.19.91,4.19,3.24Zm-2.5-4.22a21.71,21.71,0,0,1-2.94,1.23,2.16,2.16,0,0,0-1.08,2.13c0,1.1.54,2,1.64,2,1.59,0,2.38-1.17,2.38-3.13Z"/><path d="M1524.09,89.3h2.65v2.06h0a3.24,3.24,0,0,1,3.06-2.41,1.59,1.59,0,0,1,.64.1v2.7a3.54,3.54,0,0,0-1.11-.15c-1.2,0-2.64.54-2.64,3v7.89h-2.65Z"/><path d="M1530.63,89.3h1.81V85.55h2.65V89.3h2.16v2h-2.16v7.86c0,1.06.3,1.4,1.2,1.4a5.1,5.1,0,0,0,1-.07v2a9.05,9.05,0,0,1-2.13.22c-1.77,0-2.68-.52-2.68-3.19V91.26h-1.81Z"/><path d="M1547.27,99.74c0,.49.29.93.69.93a1,1,0,0,0,.44-.08v1.72a2.86,2.86,0,0,1-1.3.32c-1.18,0-2.16-.47-2.23-1.74h0a3.41,3.41,0,0,1-3.29,1.93c-2.13,0-3.43-1.15-3.43-3.7,0-2.94,1.3-3.55,3.07-4.14l2.06-.56c1-.27,1.54-.54,1.54-1.69s-.42-2-1.81-2c-1.77,0-2,1.25-2,2.52h-2.5c0-2.82,1.15-4.34,4.63-4.34,2.33,0,4.19.91,4.19,3.24Zm-2.5-4.22a21.71,21.71,0,0,1-2.94,1.23,2.16,2.16,0,0,0-1.08,2.13c0,1.1.54,2,1.64,2,1.6,0,2.38-1.17,2.38-3.13Z"/><path d="M1550,89.3h2.65v2.06h.05a3.26,3.26,0,0,1,3.06-2.41,1.59,1.59,0,0,1,.64.1v2.7a3.54,3.54,0,0,0-1.11-.15c-1.2,0-2.64.54-2.64,3v7.89H1550Z"/><path d="M1563.36,93.14V92.8c0-1-.36-2-1.74-2-1,0-1.88.46-1.88,1.71,0,1.06.46,1.45,1.86,1.94l1.69.59c2,.66,2.87,1.71,2.87,3.8,0,2.81-2.08,4-4.73,4-3.33,0-4.34-1.54-4.34-4.09v-.49h2.35v.42c0,1.54.52,2.35,2.06,2.35s2.16-.73,2.16-1.93a1.91,1.91,0,0,0-1.45-1.94l-2.15-.76c-2-.66-2.82-1.69-2.82-3.8,0-2.47,1.76-3.63,4.51-3.63,3.35,0,4.11,2,4.11,3.61v.58Z"/></g></g><g id="YEARS"><g id="Right"><path d="M1788.62,96.78,1795,85.05h3V97h2v2.36h-2v4.14h-2.8V99.32h-6.58Zm6.58-7.41h-.06L1791,97h4.19Z"/><path d="M1806.79,85.05c3.54,0,5.51,2.21,5.51,9.39s-2,9.38-5.51,9.38-5.51-2.21-5.51-9.38S1803.26,85.05,1806.79,85.05Zm0,16.69c2,0,2.55-2,2.55-7.3s-.55-7.31-2.55-7.31-2.55,2-2.55,7.31S1804.79,101.74,1806.79,101.74Z"/><path d="M1819.27,85.05c3.54,0,5.51,2.21,5.51,9.39s-2,9.38-5.51,9.38-5.51-2.21-5.51-9.38S1815.73,85.05,1819.27,85.05Zm0,16.69c2,0,2.55-2,2.55-7.3s-.55-7.31-2.55-7.31-2.55,2-2.55,7.31S1817.27,101.74,1819.27,101.74Z"/></g><g id="left"><path d="M18.87,100.37l6.37-11.72h3v11.91h2v2.36h-2v4.14h-2.8v-4.14H18.87ZM25.45,93h-.06l-4.13,7.6h4.19Z"/><path d="M37,88.65c3.54,0,5.51,2.21,5.51,9.39s-2,9.38-5.51,9.38-5.51-2.21-5.51-9.38S33.51,88.65,37,88.65Zm0,16.69c2,0,2.55-2,2.55-7.3S39,90.73,37,90.73s-2.55,2-2.55,7.31S35,105.34,37,105.34Z"/><path d="M49.52,88.65C53.06,88.65,55,90.86,55,98s-2,9.38-5.51,9.38S44,105.21,44,98,46,88.65,49.52,88.65Zm0,16.69c2,0,2.55-2,2.55-7.3s-.55-7.31-2.55-7.31S47,92.71,47,98,47.52,105.34,49.52,105.34Z"/></g></g></svg>