<svg id="Text" xmlns="http://www.w3.org/2000/svg" viewBox="0 0 1847.91 108"><title>ce0450text</title><g id="Huns"><path d="M1042.87,28.25h3.57l4.61,17.5h-2.91l-1.08-4.29h-5.12l-1.13,4.29h-2.92Zm3.72,11-2-8.62h0l-2.08,8.62Z"/><path d="M1050.93,32.57h1.81V28.82h2.65v3.75h2.15v2h-2.15v7.86c0,1.06.29,1.4,1.2,1.4a4.91,4.91,0,0,0,1-.07v2a8.93,8.93,0,0,1-2.13.22c-1.76,0-2.67-.52-2.67-3.19V34.53h-1.81Z"/><path d="M1057.74,32.57h1.81V28.82h2.65v3.75h2.15v2h-2.15v7.86c0,1.06.29,1.4,1.2,1.4a4.91,4.91,0,0,0,.95-.07v2a8.93,8.93,0,0,1-2.13.22c-1.76,0-2.67-.52-2.67-3.19V34.53h-1.81Z"/><path d="M1065.85,28.06h2.64V30.7h-2.64Zm0,4.51h2.64V45.75h-2.64Z"/><path d="M1071.29,28.25h2.64v17.5h-2.64Z"/><path d="M1085.25,43c0,.49.3.93.69.93a1,1,0,0,0,.44-.08v1.72a2.83,2.83,0,0,1-1.3.32c-1.18,0-2.16-.47-2.23-1.74h0a3.39,3.39,0,0,1-3.28,1.93c-2.13,0-3.43-1.15-3.43-3.7,0-2.94,1.3-3.55,3.06-4.14l2.06-.56c1-.27,1.54-.54,1.54-1.69s-.41-2-1.81-2c-1.77,0-2,1.25-2,2.52h-2.5c0-2.82,1.15-4.34,4.63-4.34,2.33,0,4.19.91,4.19,3.24Zm-2.5-4.22a21.19,21.19,0,0,1-2.94,1.23,2.16,2.16,0,0,0-1.08,2.13c0,1.1.54,2,1.65,2,1.59,0,2.37-1.17,2.37-3.13Z"/><path d="M1410.52,81.25h4.36l3.09,13h0l3-13h4.26v17.5h-2.65V84.19h0l-3.53,14.56h-2.36l-3.52-14.56h0V98.75h-2.65Z"/><path d="M1427.79,90c0-6.25,1.77-9.09,5.78-9.09s5.79,2.84,5.79,9.09-1.77,9.09-5.79,9.09S1427.79,96.25,1427.79,90Zm8.77-.07c0-5.88-1.32-6.91-3-6.91s-3,1-3,6.91,1.32,7.06,3,7.06S1436.56,95.93,1436.56,89.93Z"/><path d="M1441.83,81.25h3.41l5.07,13h0v-13H1453v17.5h-3.41l-5.07-13.38h0V98.75h-2.65Z"/><path d="M1464.54,96.72h0a3.63,3.63,0,0,1-3.82,2.37c-3.82,0-5.19-2.84-5.19-9.09s1.76-9.09,5.8-9.09a4.77,4.77,0,0,1,5.13,5v.32h-2.65v-.42c0-1.3-.54-2.84-2.45-2.84s-3,1.32-3,6.91.93,7.06,2.82,7.06c2.13,0,2.91-1.52,2.91-5.35h-2.94v-2.1h5.59v9.21h-2.11Z"/><path d="M1468.63,90c0-6.25,1.77-9.09,5.79-9.09s5.78,2.84,5.78,9.09-1.77,9.09-5.78,9.09S1468.63,96.25,1468.63,90Zm8.78-.07c0-5.88-1.33-6.91-3-6.91s-3,1-3,6.91,1.32,7.06,3,7.06S1477.41,95.93,1477.41,89.93Z"/><path d="M1482.35,81.25h2.8V96.4h6.76v2.35h-9.56Z"/><path d="M1493.43,81.25h2.79v17.5h-2.79Z"/><path d="M1502.3,81.25h3.57l4.61,17.5h-2.92l-1.07-4.29h-5.13l-1.12,4.29h-2.92Zm3.72,11-2-8.62h0l-2.08,8.62Z"/><path d="M1511.7,81.25h3.41l5.07,13h0v-13h2.65v17.5h-3.41l-5.07-13.38h-.05V98.75h-2.65Z"/><path d="M1527.92,93.33v.45c0,2.13,1,3.21,2.87,3.21a2.51,2.51,0,0,0,2.65-2.55c0-1.84-.94-2.65-2.5-3.11l-1.92-.67c-2.54-1-3.65-2.3-3.65-4.8,0-3.19,2.18-5,5.44-5,4.49,0,5,2.79,5,4.61v.39H1533v-.37c0-1.59-.69-2.52-2.45-2.52a2.23,2.23,0,0,0-2.35,2.52c0,1.5.76,2.26,2.62,3l1.89.68c2.47.89,3.55,2.21,3.55,4.63,0,3.73-2.25,5.27-5.78,5.27-4.34,0-5.32-2.89-5.32-5.34v-.42Z"/></g><g id="Persians"><path d="M629.5,78.14H635c3.35,0,4.82,2.11,4.82,5.1,0,3.14-1.86,5.17-5.12,5.17h-2.45v7.23H629.5Zm2.79,8.17h2c1.49,0,2.79-.79,2.79-3,0-1.89-.76-3-3-3h-1.79Z"/><path d="M641.75,78.14h9.46V80.5h-6.67v4.85h6.27V87.7h-6.27v5.59h6.86v2.35h-9.65Z"/><path d="M653.53,78.14h6.18c2.45,0,4.43,1.25,4.43,4.51,0,2.26-1,4-2.91,4.29v0c1.76.17,2.64,1.13,2.74,3.58,0,1.15,0,2.5.1,3.55a1.92,1.92,0,0,0,.83,1.52h-3.16a2.93,2.93,0,0,1-.46-1.54c0-.52-.08-1.06-.08-1.57s0-1.1-.05-1.74c-.07-1.91-.66-2.75-2.55-2.75h-2.27v7.6h-2.8Zm5,7.8a2.58,2.58,0,0,0,2.79-2.84c0-1.87-.78-2.85-2.65-2.85h-2.37v5.69Z"/><path d="M668.85,90.23v.44c0,2.13.95,3.21,2.86,3.21a2.51,2.51,0,0,0,2.65-2.55c0-1.84-.93-2.65-2.5-3.11L670,87.55c-2.55-1-3.65-2.3-3.65-4.8,0-3.18,2.18-5,5.44-5,4.48,0,5,2.8,5,4.61v.39h-2.8v-.37c0-1.59-.68-2.52-2.45-2.52a2.23,2.23,0,0,0-2.35,2.52c0,1.5.76,2.26,2.62,3l1.89.68c2.47.89,3.55,2.21,3.55,4.64,0,3.72-2.25,5.27-5.78,5.27-4.34,0-5.32-2.9-5.32-5.35v-.41Z"/><path d="M679.28,78.14h2.79v17.5h-2.79Z"/><path d="M688.15,78.14h3.58l4.61,17.5h-2.92l-1.08-4.29h-5.12l-1.13,4.29h-2.91Zm3.73,11-2-8.62h0l-2.09,8.62Z"/><path d="M697.56,78.14H701l5.08,13h.05v-13h2.64v17.5h-3.4l-5.08-13.38h0V95.64h-2.64Z"/><path d="M713.78,90.23v.44c0,2.13,1,3.21,2.86,3.21a2.51,2.51,0,0,0,2.65-2.55c0-1.84-.93-2.65-2.5-3.11l-1.91-.67c-2.55-1-3.65-2.3-3.65-4.8,0-3.18,2.18-5,5.44-5,4.48,0,5,2.8,5,4.61v.39h-2.8v-.37c0-1.59-.68-2.52-2.45-2.52A2.23,2.23,0,0,0,714,82.43c0,1.5.76,2.26,2.62,3l1.89.68c2.48.89,3.55,2.21,3.55,4.64,0,3.72-2.25,5.27-5.78,5.27C712,96,711,93.09,711,90.64v-.41Z"/></g></svg>