<svg id="Text" xmlns="http://www.w3.org/2000/svg" viewBox="0 0 1847.91 113"><title>ce0400text</title><g id="Huns"><path d="M1506.26,89.34h-4.17V87h11.05v2.36h-4.09v15.14h-2.79Z"/><path d="M1521.4,101.74c0,.49.29.93.68.93a1,1,0,0,0,.44-.08v1.72a2.78,2.78,0,0,1-1.29.32c-1.18,0-2.16-.47-2.23-1.74h0a3.41,3.41,0,0,1-3.29,1.93c-2.13,0-3.43-1.15-3.43-3.7,0-2.94,1.3-3.55,3.07-4.14l2-.56c1-.27,1.55-.54,1.55-1.69s-.42-2-1.82-2c-1.76,0-2,1.25-2,2.52h-2.5c0-2.82,1.16-4.34,4.64-4.34,2.32,0,4.19.91,4.19,3.24Zm-2.5-4.22a21.71,21.71,0,0,1-2.94,1.23,2.16,2.16,0,0,0-1.08,2.13c0,1.1.54,2,1.64,2,1.59,0,2.38-1.17,2.38-3.13Z"/><path d="M1524.09,91.3h2.65v2.06h0a3.24,3.24,0,0,1,3.06-2.41,1.59,1.59,0,0,1,.64.1v2.7a3.54,3.54,0,0,0-1.11-.15c-1.2,0-2.64.54-2.64,3v7.89h-2.65Z"/><path d="M1530.63,91.3h1.81V87.55h2.65V91.3h2.16v2h-2.16v7.86c0,1.06.3,1.4,1.2,1.4a5.1,5.1,0,0,0,1-.07v2a9.05,9.05,0,0,1-2.13.22c-1.77,0-2.68-.52-2.68-3.19V93.26h-1.81Z"/><path d="M1547.27,101.74c0,.49.29.93.69.93a1,1,0,0,0,.44-.08v1.72a2.86,2.86,0,0,1-1.3.32c-1.18,0-2.16-.47-2.23-1.74h0a3.41,3.41,0,0,1-3.29,1.93c-2.13,0-3.43-1.15-3.43-3.7,0-2.94,1.3-3.55,3.07-4.14l2.06-.56c1-.27,1.54-.54,1.54-1.69s-.42-2-1.81-2c-1.77,0-2,1.25-2,2.52h-2.5c0-2.82,1.15-4.34,4.63-4.34,2.33,0,4.19.91,4.19,3.24Zm-2.5-4.22a21.71,21.71,0,0,1-2.94,1.23,2.16,2.16,0,0,0-1.08,2.13c0,1.1.54,2,1.64,2,1.6,0,2.38-1.17,2.38-3.13Z"/><path d="M1550,91.3h2.65v2.06h.05a3.26,3.26,0,0,1,3.06-2.41,1.59,1.59,0,0,1,.64.1v2.7a3.54,3.54,0,0,0-1.11-.15c-1.2,0-2.64.54-2.64,3v7.89H1550Z"/><path d="M1563.36,95.14V94.8c0-1-.36-2-1.74-2-1,0-1.88.46-1.88,1.71,0,1.06.46,1.45,1.86,1.94l1.69.59c2,.66,2.87,1.71,2.87,3.8,0,2.81-2.08,4-4.73,4-3.33,0-4.34-1.54-4.34-4.09v-.49h2.35v.42c0,1.54.52,2.35,2.06,2.35s2.16-.73,2.16-1.93a1.91,1.91,0,0,0-1.45-1.94l-2.15-.76c-2-.66-2.82-1.69-2.82-3.8,0-2.47,1.76-3.63,4.51-3.63,3.35,0,4.11,2,4.11,3.61v.58Z"/></g></svg>