<svg xmlns="http://www.w3.org/2000/svg" viewBox="0 0 1847.91 113"><title>ce0400text</title><g id="YEARS"><g id="Right"><path d="M1793.9,99.87l6.37-11.73h3v11.91h2v2.36h-2v4.14h-2.81v-4.14h-6.58Zm6.58-7.41h0l-4.13,7.59h4.18Z" fill="#3b4351"/><path d="M1812.08,88.14c3.53,0,5.51,2.21,5.51,9.39s-2,9.38-5.51,9.38-5.52-2.21-5.52-9.38S1808.54,88.14,1812.08,88.14Zm0,16.69c2,0,2.54-2,2.54-7.3s-.54-7.31-2.54-7.31-2.55,2-2.55,7.31S1810.07,104.83,1812.08,104.83Z" fill="#3b4351"/><path d="M1824.56,88.14c3.53,0,5.51,2.21,5.51,9.39s-2,9.38-5.51,9.38-5.52-2.21-5.52-9.38S1821,88.14,1824.56,88.14Zm0,16.69c2,0,2.54-2,2.54-7.3s-.54-7.31-2.54-7.31-2.55,2-2.55,7.31S1822.55,104.83,1824.56,104.83Z" fill="#3b4351"/></g><g id="left"><path d="M18.87,101.77,25.24,90h3V102h2v2.37h-2v4.13h-2.8v-4.13H18.87Zm6.58-7.41h-.06L21.26,102h4.19Z" fill="#3b4351"/><path d="M37,90c3.54,0,5.51,2.22,5.51,9.39s-2,9.39-5.51,9.39-5.51-2.21-5.51-9.39S33.51,90,37,90Zm0,16.7c2,0,2.55-2,2.55-7.31S39,92.12,37,92.12s-2.55,2-2.55,7.31S35,106.74,37,106.74Z" fill="#3b4351"/><path d="M49.52,90C53.06,90,55,92.26,55,99.43s-2,9.39-5.51,9.39S44,106.61,44,99.43,46,90,49.52,90Zm0,16.7c2,0,2.55-2,2.55-7.31s-.55-7.31-2.55-7.31S47,94.1,47,99.43,47.52,106.74,49.52,106.74Z" fill="#3b4351"/></g></g><g id="Nation_OUtlines" data-name="Nation OUtlines"><polygon id="Romans" points="854.62 2584.83 829.93 2471.83 711.95 2362.83 764.62 2248.83 729.95 2133.83 845.28 2022.83 1002.62 1910.83 1065.29 1796.83 1021.28 1685.83 995.34 1568.83 815.28 1460.83 703.28 1349.83 687.28 1234.83 737.95 1120.83 780.62 1008.83 712.62 897.83 645.95 783.83 550.62 670.83 491.95 561 453.95 448 455.29 336 435.95 221 470.62 113 322.62 113 416.12 0 480.12 -110 410.62 -222 316.95 -336 248.28 -451 210.28 -562 175.95 -673 159.62 -789 91.28 -902 83.12 -1007 117.62 -1121 151.37 -1235 129.62 -1345 109.62 -1460 99.62 -1572 73.12 -1682 75.42 -2580 85.95 -2470 95.28 -2358 111.95 -2246 116.62 -2135 137.95 -2022 149.95 -1906 169.95 -1794 205.28 -1682 231.95 -1572 287.74 -1460 467.73 -1345 683.72 -1235 998.71 -1121 1118.7 -1007 1131.14 -902 1195.2 -789 1182.62 -673 1245.62 -562 1220.62 -451 1122.62 -336 981.62 -222 880.12 -110 717.95 0 593.62 113 616.62 221 717.28 336 839.28 450.84 863.28 561 915.28 670.83 810.62 783.83 885.95 897.83 1037.95 1008.83 1125.95 1120.83 1253.95 1234.83 1213.95 1349.83 1202.62 1460.83 1169.95 1568.83 1161.29 1685.83 1218.62 1796.83 1131.95 1910.83 936.62 2022.83 798.62 2133.83 819.28 2248.83 759.95 2362.83 849.28 2471.83 854.62 2584.83" fill="none" stroke="#3b4351" stroke-miterlimit="10"/><polygon id="Indians" points="1372.19 -2915.83 1294.19 -3030 1285.19 -3143 1313.69 -3254 1348.19 -3367 1310.69 -3481 1298.69 -3591 1313.69 -3703 1345.19 -3815 1325.69 -3929 1343.69 -4043 1417.19 -4154 1400.69 -4267.08 1429.19 -4380 1419.27 -4495.27 1387.19 -4607 1387.19 -4719 1438.19 -4829.5 1462.18 -4941.5 1480.18 -5054.54 1445.82 -5164.83 1411.11 -5276.83 1545.86 -5276.83 1580.1 -5164.83 1593.12 -5054.6 1552.12 -4941.5 1514.62 -4829.5 1514.12 -4719.33 1553.12 -4607.27 1548.12 -4495 1519.62 -4380 1534.12 -4266.33 1575.12 -4154 1559.62 -4043 1564.12 -3929.27 1534.62 -3815 1486.12 -3703 1465.12 -3591 1471.12 -3481.83 1502.12 -3367.83 1508.12 -3254 1534.62 -3143 1542.77 -3064.14 1555.62 -2915.83 1554.62 -2807 1567.12 -2695 1542.12 -2580.27 1498.12 -2470 1490.62 -2358 1513.12 -2246 1568.62 -2135 1544.12 -2022 1530.62 -1906.27 1523.62 -1794.27 1532.62 -1682 1565.12 -1572 1543.62 -1460 1514.12 -1345 1490.12 -1235.27 1495.62 -1121 1517.12 -1007.33 1528.12 -902 1580.62 -789.33 1578.12 -673.33 1578.12 -562.83 1560.12 -451.27 1526.62 -336 1467.62 -222 1381.62 -110.27 1270.62 0 1090.12 112.73 860.62 221 1302.12 336 1377.03 448 1550.62 561 1519.62 670.83 1476.12 783.83 1516.13 897.83 1534.62 1010.17 1552.65 1120.83 1585.62 1234.73 1620.12 1349.83 1650.12 1460.83 1630.62 1568.73 1622.45 1685.73 1565.62 1796.83 1402.62 1910.17 1173.62 2022.83 1148.62 2133.83 1334.62 2248.83 1283.62 2362.83 1344.62 2471.83 1544.62 2584.83 1602.62 2699.17 1627.62 2810.83 1674.62 2923.73 1627.62 3038.83 1634.62 3150.83 1686.62 3262.83 1701.62 3375.83 1620.12 3487.83 1606.12 3598.83 1606.12 3712.66 1552.62 3712.66 1549.52 3598.83 1569.62 3487.83 1683.62 3375.83 1667.62 3262.83 1607.62 3150.83 1596.62 3038.17 1617.62 2923.83 1584.62 2810.83 1562.62 2698.83 1507.62 2584.83 1304.62 2471.73 1225.62 2362.73 1236.97 2325.78 1264.87 2248.83 1082.62 2133.83 1084.2 2023.34 1323.62 1910.83 1500.47 1796.73 1573.62 1685.83 1600.62 1568.83 1604.62 1460.83 1569.62 1349.83 1514.62 1234.83 1447.62 1120.73 1418.62 1008.83 1404.62 897.83 1367.62 783.83 1397.62 670.83 1418.62 560.73 1339.62 447.73 1246.62 336 748.62 221 753.62 113 910.76 0 1053.62 -110 1195.2 -222 1311.62 -336.83 1353.62 -451 1348.62 -562 1364.62 -673.83 1406.62 -789 1401.62 -902 1429.62 -1007 1394.62 -1121.27 1393.2 -1235 1391.82 -1345.27 1437.52 -1460 1513.62 -1572.27 1505.64 -1682 1472.62 -1793.83 1447.62 -1906 1440.63 -2022 1462.62 -2135 1391.1 -2246 1348.62 -2358 1332.62 -2470 1376.98 -2580 1375.34 -2695.27 1373.74 -2807.27 1372.19 -2915.83" fill="none" stroke="#3b4351" stroke-miterlimit="10"/><polygon id="Huns" points="1555.62 -2915.83 1545.73 -3030 1533.62 -3143.33 1506.68 -3253.36 1502.16 -3367 1471.34 -3481 1465.12 -3591 1486.12 -3703 1534.62 -3815 1564.05 -3929 1559.62 -4043 1575.12 -4154 1534.24 -4266 1519.62 -4380 1548.12 -4495 1553.11 -4607 1514.47 -4719.27 1514.62 -4831.5 1552.12 -4941.5 1593.12 -5054.16 1580.1 -5164.83 1545.86 -5276.83 1633.99 -5276.83 1651.62 -5164.83 1667.62 -5054.16 1646.62 -4941.5 1620.62 -4829.5 1630.4 -4721.4 1650.62 -4607.33 1676.62 -4495 1700.12 -4380 1689.12 -4266 1714.62 -4154.33 1697.12 -4043.27 1645.62 -3929.27 1616.12 -3815 1586.62 -3703.27 1538.12 -3591.27 1509.12 -3481 1551.62 -3367 1585.12 -3254 1608.62 -3143.33 1609.69 -3030.27 1610.76 -2917.27 1613.62 -2807.27 1625.12 -2695.27 1599.12 -2579.33 1557.59 -2470 1545.65 -2358 1558.62 -2246 1584.62 -2135.27 1571.12 -2021.83 1576.62 -1906 1567.62 -1794 1587.12 -1682 1621.12 -1572 1612.12 -1460 1556.12 -1345 1528.62 -1235 1529.62 -1121 1553.62 -1007 1616.07 -902 1609.25 -789 1592.66 -673 1611.01 -562.27 1612.12 -451 1598.04 -336 1564.12 -222 1534.29 -110 1602.12 -0.27 1653.62 113 1673.62 221 1666.12 336 1668.12 447.67 1625.62 560.67 1542.12 670.83 1476.12 783.83 1519.62 670.83 1550.62 561 1376.62 447.73 1302.12 336 860.62 221 1090.12 112.73 1270.62 0 1381.62 -110.27 1467.62 -222 1526.62 -336 1560.12 -451.27 1578.12 -562.83 1578.12 -673.33 1580.62 -789.33 1528.12 -902 1517.12 -1007.33 1495.62 -1121 1490.12 -1235.27 1514.12 -1345 1543.62 -1460 1565.12 -1572 1532.62 -1682 1523.62 -1794.27 1530.62 -1906.27 1544.12 -2022 1568.62 -2135 1513.12 -2246 1490.62 -2358 1498.12 -2470 1542.12 -2580.27 1567.12 -2695 1554.62 -2807 1555.62 -2915.83" fill="none" stroke="#3b4351" stroke-miterlimit="10"/><polygon id="Chinese" points="1610.76 -2917.27 1609.69 -3030.27 1608.62 -3143.33 1585.12 -3254 1551.62 -3367 1509.12 -3481 1538.12 -3591.27 1586.62 -3703.27 1616.12 -3815 1645.62 -3929.27 1697.12 -4043.27 1714.62 -4154.33 1689.12 -4266 1700.12 -4380 1676.62 -4495 1650.62 -4607.33 1630.62 -4719 1620.62 -4829.5 1646.62 -4941.5 1667.62 -5054.16 1651.62 -5164.83 1633.99 -5276.83 1768.79 -5276.83 1768.79 2923.83 1768.79 3038.73 1766.12 3150.83 1757.62 3262.83 1736.12 3375.73 1676.12 3487.73 1661.12 3598.83 1663.62 3712.66 1606.12 3712.66 1606.12 3598.73 1620.12 3487.83 1701.62 3375.83 1696.12 3262.67 1654.12 3150.83 1681.62 3038.83 1739.62 2923.73 1748.62 2810.67 1744.12 2698.67 1685.62 2584.83 1615.12 2474.17 1636.12 2362.83 1738.62 2248.83 1761.12 2133.83 1758.62 2022.83 1732.12 1910.83 1695.62 1796.83 1667.62 1685.83 1651.12 1568.83 1650.12 1460.83 1620.12 1349.83 1585.62 1234.73 1552.62 1120.73 1535.12 1008.83 1516.12 897.73 1476.12 783.83 1542.12 670.83 1625.62 560.67 1668.12 447.67 1666.12 336 1673.62 221 1653.62 113 1602.12 -0.27 1534.12 -110.27 1564.12 -222 1598.12 -336.27 1612.12 -451 1611.01 -562.27 1592.62 -673.27 1609.25 -789 1616.07 -902 1553.62 -1007 1529.62 -1121 1528.62 -1235.27 1555.62 -1345 1612.12 -1460 1621.12 -1572 1587.12 -1682 1567.62 -1794 1576.62 -1906 1571.12 -2022 1584.62 -2135.27 1558.62 -2246 1545.62 -2358.27 1557.62 -2470.27 1599.62 -2580 1625.12 -2695.27 1613.62 -2807.27 1610.76 -2917.27" fill="none" stroke="#3b4351" stroke-miterlimit="10"/><polygon id="Teutons_-_Franks" data-name="Teutons - Franks" points="600.62 1120.83 277.29 1120.83 235.95 1008.83 189.95 897.83 180.62 783.83 142.62 670.83 139.95 561 120.62 448 99.95 336 73.12 221 73.12 -222 101.12 -110 138.62 2.42 168.12 113 189.69 221 192.12 336 257.62 448 298.12 561 333.12 670.83 392.87 783.83 712.62 897.83 676.62 1008.83 600.62 1120.83" fill="none" stroke="#3b4351" stroke-miterlimit="10"/><polygon id="Teutons_-Goths" data-name="Teutons -Goths" points="712.62 897.83 392.87 783.83 333.12 670.83 298.12 561 257.62 448 192.12 336 189.69 221 168.12 113 138.62 2.42 101.12 -110 73.12 -219.33 73.12 -1682 99.62 -1572 109.62 -1460 129.3 -1342.61 151.37 -1235 117.62 -1121 83.12 -1007 91.28 -902 159.62 -789 175.95 -673 210.28 -562 248.28 -451 316.95 -336 410.62 -222 480.12 -110 416.12 0 322.62 113 328.12 221 455.29 336 453.95 448 425.12 561 461.12 670.83 536.62 783.83 712.62 897.83" fill="none" stroke="#3b4351" stroke-miterlimit="10"/><polygon points="435.95 221 455.29 336 328.12 221 322.62 113 470.62 113 435.95 221" fill="none" stroke="#3b4351" stroke-miterlimit="10"/><polygon id="Moslem_Arabs_and_Persian" data-name="Moslem Arabs and Persian" points="717.95 0 880.12 -110 981.62 -222 1122.62 -336 1220.62 -451 1311.62 -336.83 1195.2 -222 1053.62 -110 910.76 0 753.62 113 593.62 113 717.95 0" fill="none" stroke="#3b4351" stroke-miterlimit="10"/><polygon points="748.62 221 616.62 221 593.62 113 753.62 113 748.62 221" fill="none" stroke="#3b4351" stroke-miterlimit="10"/></g><g id="Text"><g id="Romans-2" data-name="Romans"><path d="M350.26,88.71h2.81l2.31,13.61h.05l2.3-13.61h2.94L363,102.39h.05l2.28-13.68h2.77l-3.48,17.5h-3.23L359.15,93h0l-2.23,13.18h-3.23Z" fill="#3b4351"/><path d="M371.38,100v.76c0,1.77.22,4,2.2,4s2.11-2.13,2.11-2.94h2.5c0,3-1.77,4.76-4.63,4.76-2.16,0-4.83-.64-4.83-6.74,0-3.46.76-7.13,4.88-7.13,3.67,0,4.65,2.23,4.65,5.88V100Zm4.24-1.81v-.71c0-1.67-.54-2.94-2-2.94-1.67,0-2.2,1.67-2.2,3.38v.27Z" fill="#3b4351"/><path d="M386.13,96.88v-.35c0-1-.37-2-1.74-2-1.06,0-1.89.46-1.89,1.71,0,1.06.46,1.45,1.86,1.94l1.69.59c2,.66,2.87,1.71,2.87,3.8,0,2.81-2.08,4-4.73,4-3.33,0-4.34-1.55-4.34-4.1V102h2.35v.42c0,1.54.52,2.35,2.06,2.35s2.16-.73,2.16-1.93a1.91,1.91,0,0,0-1.45-1.94l-2.15-.76c-2-.66-2.82-1.69-2.82-3.8,0-2.47,1.76-3.62,4.51-3.62,3.36,0,4.11,2,4.11,3.6v.59Z" fill="#3b4351"/><path d="M389.7,93h1.81V89.28h2.65V93h2.16v2h-2.16v7.87c0,1,.29,1.39,1.2,1.39a5.1,5.1,0,0,0,1-.07v2a8.55,8.55,0,0,1-2.13.22c-1.77,0-2.68-.52-2.68-3.19V95H389.7Z" fill="#3b4351"/><path d="M400,100v.76c0,1.77.22,4,2.2,4s2.11-2.13,2.11-2.94h2.5c0,3-1.76,4.76-4.63,4.76-2.16,0-4.83-.64-4.83-6.74,0-3.46.76-7.13,4.88-7.13,3.67,0,4.65,2.23,4.65,5.88V100Zm4.24-1.81v-.71c0-1.67-.54-2.94-2-2.94-1.66,0-2.2,1.67-2.2,3.38v.27Z" fill="#3b4351"/><path d="M409,93h2.65v2.06h.05a3.26,3.26,0,0,1,3.06-2.4,1.61,1.61,0,0,1,.64.09v2.7a3.87,3.87,0,0,0-1.11-.15c-1.2,0-2.64.54-2.64,3v7.89H409Z" fill="#3b4351"/><path d="M417,93h2.5v1.54h.08A3.78,3.78,0,0,1,423,92.69c2,0,3.28.9,3.28,3.57v9.95h-2.64v-9c0-1.76-.47-2.38-1.84-2.38-1.08,0-2.11.81-2.11,2.58v8.84H417Z" fill="#3b4351"/><path d="M443.31,103.47c0,.49.29.93.68.93a1.24,1.24,0,0,0,.45-.07V106a2.86,2.86,0,0,1-1.3.32c-1.18,0-2.16-.47-2.23-1.74h-.05a3.41,3.41,0,0,1-3.29,1.94c-2.13,0-3.43-1.16-3.43-3.7,0-3,1.3-3.56,3.07-4.15l2.06-.56c1-.27,1.54-.54,1.54-1.69s-.42-2-1.81-2c-1.77,0-2,1.25-2,2.52h-2.5c0-2.81,1.15-4.33,4.63-4.33,2.33,0,4.19.9,4.19,3.23Zm-2.5-4.22a20.5,20.5,0,0,1-2.94,1.23,2.17,2.17,0,0,0-1.08,2.13c0,1.1.54,2,1.64,2,1.59,0,2.38-1.17,2.38-3.13Z" fill="#3b4351"/><path d="M446,93h2.5v1.54h.07A3.81,3.81,0,0,1,452,92.69c2,0,3.28.9,3.28,3.57v9.95h-2.65v-9c0-1.76-.46-2.38-1.83-2.38-1.08,0-2.11.81-2.11,2.58v8.84H446Z" fill="#3b4351"/><path d="M464.52,104.59h0a2.83,2.83,0,0,1-2.9,2c-3.06,0-4.31-2.6-4.31-7.11,0-5.86,2.06-6.76,4.07-6.76a3.06,3.06,0,0,1,3,1.88h.05V88.71H467v17.5h-2.5Zm-2.4-9.8c-1.49,0-2.06,1.23-2.06,4.78,0,3,.37,4.88,2.23,4.88s2.23-1.84,2.23-4.68C464.52,96.61,464.18,94.79,462.12,94.79Z" fill="#3b4351"/><path d="M475.62,88.71h9.46v2.36h-6.67v4.85h6.28v2.35h-6.28v5.59h6.87v2.35h-9.66Z" fill="#3b4351"/><path d="M495.88,103.47c0,.49.3.93.69.93a1.18,1.18,0,0,0,.44-.07V106a2.83,2.83,0,0,1-1.3.32c-1.17,0-2.15-.47-2.23-1.74h-.05a3.4,3.4,0,0,1-3.28,1.94c-2.13,0-3.43-1.16-3.43-3.7,0-3,1.3-3.56,3.06-4.15l2.06-.56c1-.27,1.54-.54,1.54-1.69s-.41-2-1.81-2c-1.76,0-2,1.25-2,2.52h-2.5c0-2.81,1.15-4.33,4.63-4.33,2.33,0,4.19.9,4.19,3.23Zm-2.5-4.22a20,20,0,0,1-2.94,1.23,2.16,2.16,0,0,0-1.07,2.13c0,1.1.53,2,1.64,2,1.59,0,2.37-1.17,2.37-3.13Z" fill="#3b4351"/><path d="M504.26,96.88v-.35c0-1-.37-2-1.74-2-1,0-1.88.46-1.88,1.71,0,1.06.46,1.45,1.86,1.94l1.69.59c2,.66,2.87,1.71,2.87,3.8,0,2.81-2.09,4-4.73,4-3.34,0-4.34-1.55-4.34-4.1V102h2.35v.42c0,1.54.52,2.35,2.06,2.35s2.16-.73,2.16-1.93a1.91,1.91,0,0,0-1.45-1.94l-2.16-.76c-2-.66-2.81-1.69-2.81-3.8,0-2.47,1.76-3.62,4.5-3.62,3.36,0,4.12,2,4.12,3.6v.59Z" fill="#3b4351"/><path d="M507.84,93h1.81V89.28h2.65V93h2.15v2H512.3v7.87c0,1,.29,1.39,1.2,1.39a4.91,4.91,0,0,0,1-.07v2a8.44,8.44,0,0,1-2.13.22c-1.76,0-2.67-.52-2.67-3.19V95h-1.81Z" fill="#3b4351"/><path d="M518.1,100v.76c0,1.77.22,4,2.21,4s2.11-2.13,2.11-2.94h2.5c0,3-1.77,4.76-4.63,4.76-2.16,0-4.83-.64-4.83-6.74,0-3.46.76-7.13,4.87-7.13,3.68,0,4.66,2.23,4.66,5.88V100Zm4.24-1.81v-.71c0-1.67-.54-2.94-2-2.94-1.67,0-2.21,1.67-2.21,3.38v.27Z" fill="#3b4351"/><path d="M527.17,93h2.64v2.06h.05a3.26,3.26,0,0,1,3.07-2.4,1.53,1.53,0,0,1,.63.09v2.7a3.73,3.73,0,0,0-1.1-.15c-1.2,0-2.65.54-2.65,3v7.89h-2.64Z" fill="#3b4351"/><path d="M535.13,93h2.5v1.54h.07a3.78,3.78,0,0,1,3.38-1.88c2,0,3.29.9,3.29,3.57v9.95h-2.65v-9c0-1.76-.46-2.38-1.84-2.38-1.07,0-2.1.81-2.1,2.58v8.84h-2.65Z" fill="#3b4351"/><path d="M553,88.71h9.45v2.36h-6.66v4.85H562v2.35h-6.27v5.59h6.86v2.35H553Z" fill="#3b4351"/><path d="M564.7,93h2.5v1.54h.07a3.72,3.72,0,0,1,3.17-1.88,2.85,2.85,0,0,1,3.06,2,3.59,3.59,0,0,1,3.33-2c1.86,0,3.21,1,3.21,3.5v10h-2.65v-9c0-1.74-.51-2.38-1.59-2.38s-2.11.84-2.11,2.58v8.84h-2.64v-9c0-1.74-.52-2.38-1.62-2.38s-2.08.86-2.08,2.58v8.84H564.7Z" fill="#3b4351"/><path d="M588.39,106.56a3,3,0,0,1-3-1.89h0v5.86h-2.64V93h2.5v1.62h0a3.1,3.1,0,0,1,3-2c3,0,4.24,2.57,4.24,7.1C592.46,105.33,590.23,106.56,588.39,106.56Zm-.95-11.77c-1.82,0-2.23,1.84-2.23,4.68,0,3.16.39,5,2.25,5,1.5,0,2.21-1.13,2.21-4.78C589.67,96.68,589.3,94.79,587.44,94.79Z" fill="#3b4351"/><path d="M594.62,88.52h2.64v2.65h-2.64Zm0,4.51h2.64v13.18h-2.64Z" fill="#3b4351"/><path d="M599.93,93h2.65v2.06h0a3.24,3.24,0,0,1,3.06-2.4,1.61,1.61,0,0,1,.64.09v2.7a3.87,3.87,0,0,0-1.11-.15c-1.2,0-2.64.54-2.64,3v7.89h-2.65Z" fill="#3b4351"/><path d="M609.78,100v.76c0,1.77.22,4,2.21,4s2.1-2.13,2.1-2.94h2.5c0,3-1.76,4.76-4.63,4.76-2.16,0-4.83-.64-4.83-6.74,0-3.46.76-7.13,4.88-7.13,3.68,0,4.66,2.23,4.66,5.88V100ZM614,98.15v-.71c0-1.67-.54-2.94-2-2.94-1.67,0-2.21,1.67-2.21,3.38v.27Z" fill="#3b4351"/><path d="M624.53,96.88v-.35c0-1-.37-2-1.74-2-1,0-1.89.46-1.89,1.71,0,1.06.47,1.45,1.87,1.94l1.69.59c2,.66,2.86,1.71,2.86,3.8,0,2.81-2.08,4-4.73,4-3.33,0-4.33-1.55-4.33-4.1V102h2.35v.42c0,1.54.51,2.35,2.06,2.35s2.15-.73,2.15-1.93a1.91,1.91,0,0,0-1.44-1.94l-2.16-.76c-2-.66-2.82-1.69-2.82-3.8,0-2.47,1.77-3.62,4.51-3.62,3.36,0,4.12,2,4.12,3.6v.59Z" fill="#3b4351"/></g><g id="Huns-2" data-name="Huns"><path d="M1506.26,87.34h-4.17V85h11.05v2.36h-4.09v15.14h-2.79Z" fill="#3b4351"/><path d="M1521.4,99.74c0,.49.29.93.68.93a1,1,0,0,0,.44-.08v1.72a2.78,2.78,0,0,1-1.29.32c-1.18,0-2.16-.47-2.23-1.74h0a3.41,3.41,0,0,1-3.29,1.93c-2.13,0-3.43-1.15-3.43-3.7,0-2.94,1.3-3.55,3.07-4.14l2-.56c1-.27,1.55-.54,1.55-1.69s-.42-2-1.82-2c-1.76,0-2,1.25-2,2.52h-2.5c0-2.82,1.16-4.34,4.64-4.34,2.32,0,4.19.91,4.19,3.24Zm-2.5-4.22a21.71,21.71,0,0,1-2.94,1.23,2.16,2.16,0,0,0-1.08,2.13c0,1.1.54,2,1.64,2,1.59,0,2.38-1.17,2.38-3.13Z" fill="#3b4351"/><path d="M1524.09,89.3h2.65v2.06h0a3.24,3.24,0,0,1,3.06-2.41,1.59,1.59,0,0,1,.64.1v2.7a3.54,3.54,0,0,0-1.11-.15c-1.2,0-2.64.54-2.64,3v7.89h-2.65Z" fill="#3b4351"/><path d="M1530.63,89.3h1.81V85.55h2.65V89.3h2.16v2h-2.16v7.86c0,1.06.3,1.4,1.2,1.4a5.1,5.1,0,0,0,1-.07v2a9.05,9.05,0,0,1-2.13.22c-1.77,0-2.68-.52-2.68-3.19V91.26h-1.81Z" fill="#3b4351"/><path d="M1547.27,99.74c0,.49.29.93.69.93a1,1,0,0,0,.44-.08v1.72a2.86,2.86,0,0,1-1.3.32c-1.18,0-2.16-.47-2.23-1.74h0a3.41,3.41,0,0,1-3.29,1.93c-2.13,0-3.43-1.15-3.43-3.7,0-2.94,1.3-3.55,3.07-4.14l2.06-.56c1-.27,1.54-.54,1.54-1.69s-.42-2-1.81-2c-1.77,0-2,1.25-2,2.52h-2.5c0-2.82,1.15-4.34,4.63-4.34,2.33,0,4.19.91,4.19,3.24Zm-2.5-4.22a21.71,21.71,0,0,1-2.94,1.23,2.16,2.16,0,0,0-1.08,2.13c0,1.1.54,2,1.64,2,1.6,0,2.38-1.17,2.38-3.13Z" fill="#3b4351"/><path d="M1550,89.3h2.65v2.06h.05a3.26,3.26,0,0,1,3.06-2.41,1.59,1.59,0,0,1,.64.1v2.7a3.54,3.54,0,0,0-1.11-.15c-1.2,0-2.64.54-2.64,3v7.89H1550Z" fill="#3b4351"/><path d="M1563.36,93.14V92.8c0-1-.36-2-1.74-2-1,0-1.88.46-1.88,1.71,0,1.06.46,1.45,1.86,1.94l1.69.59c2,.66,2.87,1.71,2.87,3.8,0,2.81-2.08,4-4.73,4-3.33,0-4.34-1.54-4.34-4.09v-.49h2.35v.42c0,1.54.52,2.35,2.06,2.35s2.16-.73,2.16-1.93a1.91,1.91,0,0,0-1.45-1.94l-2.15-.76c-2-.66-2.82-1.69-2.82-3.8,0-2.47,1.76-3.63,4.51-3.63,3.35,0,4.11,2,4.11,3.61v.58Z" fill="#3b4351"/></g></g></svg>