<svg id="Text" xmlns="http://www.w3.org/2000/svg" viewBox="0 0 1847.91 108"><title>ce0450text</title><g id="Huns"><path d="M1042.87,28.25h3.57l4.61,17.5h-2.91l-1.08-4.29h-5.12l-1.13,4.29h-2.92Zm3.72,11-2-8.62h0l-2.08,8.62Z"/><path d="M1050.93,32.57h1.81V28.82h2.65v3.75h2.15v2h-2.15v7.86c0,1.06.29,1.4,1.2,1.4a4.91,4.91,0,0,0,1-.07v2a8.93,8.93,0,0,1-2.13.22c-1.76,0-2.67-.52-2.67-3.19V34.53h-1.81Z"/><path d="M1057.74,32.57h1.81V28.82h2.65v3.75h2.15v2h-2.15v7.86c0,1.06.29,1.4,1.2,1.4a4.91,4.91,0,0,0,.95-.07v2a8.93,8.93,0,0,1-2.13.22c-1.76,0-2.67-.52-2.67-3.19V34.53h-1.81Z"/><path d="M1065.85,28.06h2.64V30.7h-2.64Zm0,4.51h2.64V45.75h-2.64Z"/><path d="M1071.29,28.25h2.64v17.5h-2.64Z"/><path d="M1085.25,43c0,.49.3.93.69.93a1,1,0,0,0,.44-.08v1.72a2.83,2.83,0,0,1-1.3.32c-1.18,0-2.16-.47-2.23-1.74h0a3.39,3.39,0,0,1-3.28,1.93c-2.13,0-3.43-1.15-3.43-3.7,0-2.94,1.3-3.55,3.06-4.14l2.06-.56c1-.27,1.54-.54,1.54-1.69s-.41-2-1.81-2c-1.77,0-2,1.25-2,2.52h-2.5c0-2.82,1.15-4.34,4.63-4.34,2.33,0,4.19.91,4.19,3.24Zm-2.5-4.22a21.19,21.19,0,0,1-2.94,1.23,2.16,2.16,0,0,0-1.08,2.13c0,1.1.54,2,1.65,2,1.59,0,2.37-1.17,2.37-3.13Z"/><path d="M1407.52,82.25h4.36l3.09,13h0l3-13h4.26v17.5h-2.65V85.19h0l-3.53,14.56h-2.36l-3.52-14.56h0V99.75h-2.65Z"/><path d="M1424.79,91c0-6.25,1.77-9.09,5.78-9.09s5.79,2.84,5.79,9.09-1.77,9.09-5.79,9.09S1424.79,97.25,1424.79,91Zm8.77-.07c0-5.88-1.32-6.91-3-6.91s-3,1-3,6.91,1.32,7.06,3,7.06S1433.56,96.93,1433.56,90.93Z"/><path d="M1438.83,82.25h3.41l5.07,13h0v-13H1450v17.5h-3.41l-5.07-13.38h0V99.75h-2.65Z"/><path d="M1461.54,97.72h0a3.63,3.63,0,0,1-3.82,2.37c-3.82,0-5.19-2.84-5.19-9.09s1.76-9.09,5.8-9.09a4.77,4.77,0,0,1,5.13,5v.32h-2.65v-.42c0-1.3-.54-2.84-2.45-2.84s-3,1.32-3,6.91.93,7.06,2.82,7.06c2.13,0,2.91-1.52,2.91-5.35h-2.94v-2.1h5.59v9.21h-2.11Z"/><path d="M1465.63,91c0-6.25,1.77-9.09,5.79-9.09s5.78,2.84,5.78,9.09-1.77,9.09-5.78,9.09S1465.63,97.25,1465.63,91Zm8.78-.07c0-5.88-1.33-6.91-3-6.91s-3,1-3,6.91,1.32,7.06,3,7.06S1474.41,96.93,1474.41,90.93Z"/><path d="M1479.35,82.25h2.8V97.4h6.76v2.35h-9.56Z"/><path d="M1490.43,82.25h2.79v17.5h-2.79Z"/><path d="M1499.3,82.25h3.57l4.61,17.5h-2.92l-1.07-4.29h-5.13l-1.12,4.29h-2.92Zm3.72,11-2-8.62h0l-2.08,8.62Z"/><path d="M1508.7,82.25h3.41l5.07,13h0v-13h2.65v17.5h-3.41l-5.07-13.38h-.05V99.75h-2.65Z"/><path d="M1524.92,94.33v.45c0,2.13,1,3.21,2.87,3.21a2.51,2.51,0,0,0,2.65-2.55c0-1.84-.94-2.65-2.5-3.11l-1.92-.67c-2.54-1-3.65-2.3-3.65-4.8,0-3.19,2.18-5,5.44-5,4.49,0,5,2.79,5,4.61v.39H1530v-.37c0-1.59-.69-2.52-2.45-2.52a2.23,2.23,0,0,0-2.35,2.52c0,1.5.76,2.26,2.62,3l1.89.68c2.47.89,3.55,2.21,3.55,4.63,0,3.73-2.25,5.27-5.78,5.27-4.34,0-5.32-2.89-5.32-5.34v-.42Z"/></g></svg>