<svg xmlns="http://www.w3.org/2000/svg" viewBox="0 0 1847.91 108"><title>ce0450text</title><g id="YEARS"><g id="Right"><path d="M1793.9,99.36l6.37-11.73h3V99.54h2v2.36h-2V106h-2.81V101.9h-6.58Zm6.58-7.41h0l-4.13,7.59h4.18Z" fill="#3b4351"/><path d="M1806.67,101.07h2.81v.5a2.35,2.35,0,0,0,2.41,2.6c2.09,0,2.63-2,2.63-4.19s-.57-3.93-2.47-3.93a2.36,2.36,0,0,0-2.42,1.69l-2.62-.1.91-9.65h8.86v2.37h-6.65l-.6,4.84,0,0a4.06,4.06,0,0,1,3.09-1.43c3.85,0,4.81,3.25,4.81,6.08,0,3.69-1.69,6.5-5.66,6.5-3.31,0-5.15-1.69-5.15-4.94Z" fill="#3b4351"/><path d="M1824.56,87.63c3.53,0,5.51,2.21,5.51,9.39s-2,9.38-5.51,9.38S1819,104.19,1819,97,1821,87.63,1824.56,87.63Zm0,16.69c2,0,2.54-2,2.54-7.3s-.54-7.31-2.54-7.31-2.55,2-2.55,7.31S1822.55,104.32,1824.56,104.32Z" fill="#3b4351"/></g><g id="left"><path d="M18.87,101.26l6.37-11.72h3v11.9h2v2.37h-2v4.13h-2.8v-4.13H18.87Zm6.58-7.41h-.06l-4.13,7.59h4.19Z" fill="#3b4351"/><path d="M31.63,103h2.81v.49a2.35,2.35,0,0,0,2.42,2.6c2.08,0,2.63-2,2.63-4.18S38.91,98,37,98a2.35,2.35,0,0,0-2.42,1.69L32,99.55l.91-9.65h8.87v2.37H35.09l-.6,4.83.06.05a4,4,0,0,1,3.09-1.43c3.85,0,4.81,3.25,4.81,6.09,0,3.69-1.69,6.5-5.67,6.5-3.3,0-5.15-1.69-5.15-4.94Z" fill="#3b4351"/><path d="M49.52,89.54c3.54,0,5.51,2.21,5.51,9.38s-2,9.39-5.51,9.39S44,106.1,44,98.92,46,89.54,49.52,89.54Zm0,16.69c2,0,2.55-2,2.55-7.31s-.55-7.3-2.55-7.3-2.55,2-2.55,7.3S47.52,106.23,49.52,106.23Z" fill="#3b4351"/></g></g><g id="Nation_OUtlines" data-name="Nation OUtlines"><polygon id="Romans" points="854.62 2471.83 829.93 2358.83 711.95 2249.83 764.62 2135.83 729.95 2020.83 845.28 1909.83 1002.62 1797.83 1065.29 1683.83 1021.28 1572.83 995.34 1455.83 815.28 1347.83 703.28 1236.83 687.28 1121.83 737.95 1007.83 780.62 895.83 712.62 784.83 645.95 670.83 550.62 557.83 491.95 448 453.95 335 455.29 223 435.95 108 470.62 0 322.62 0 416.12 -113 480.12 -223 410.62 -335 316.95 -449 248.28 -564 210.28 -675 175.95 -786 159.62 -902 91.28 -1015 83.12 -1120 117.62 -1234 151.37 -1348 129.62 -1458 109.62 -1573 99.62 -1685 73.12 -1795 75.42 -2693 85.95 -2583 95.28 -2471 111.95 -2359 116.62 -2248 137.95 -2135 149.95 -2019 169.95 -1907 205.28 -1795 231.95 -1685 287.74 -1573 467.73 -1458 683.72 -1348 998.71 -1234 1118.7 -1120 1131.14 -1015 1195.2 -902 1182.62 -786 1245.62 -675 1220.62 -564 1122.62 -449 981.62 -335 880.12 -223 717.95 -113 593.62 0 616.62 108 717.28 223 839.28 337.84 863.28 448 915.28 557.83 810.62 670.83 885.95 784.83 1037.95 895.83 1125.95 1007.83 1253.95 1121.83 1213.95 1236.83 1202.62 1347.83 1169.95 1455.83 1161.29 1572.83 1218.62 1683.83 1131.95 1797.83 936.62 1909.83 798.62 2020.83 819.28 2135.83 759.95 2249.83 849.28 2358.83 854.62 2471.83" fill="none" stroke="#3b4351" stroke-miterlimit="10"/><polygon id="Indians" points="1372.19 -3028.83 1294.19 -3143 1285.19 -3256 1313.69 -3367 1348.19 -3480 1310.69 -3594 1298.69 -3704 1313.69 -3816 1345.19 -3928 1325.69 -4042 1343.69 -4156 1417.19 -4267 1400.69 -4380.08 1429.19 -4493 1419.27 -4608.27 1387.19 -4720 1387.19 -4832 1438.19 -4942.5 1462.18 -5054.5 1480.18 -5167.54 1445.82 -5277.83 1411.11 -5389.83 1545.86 -5389.83 1580.1 -5277.83 1593.12 -5167.6 1552.12 -5054.5 1514.62 -4942.5 1514.12 -4832.33 1553.12 -4720.27 1548.12 -4608 1519.62 -4493 1534.12 -4379.33 1575.12 -4267 1559.62 -4156 1564.12 -4042.27 1534.62 -3928 1486.12 -3816 1465.12 -3704 1471.12 -3594.83 1502.12 -3480.83 1508.12 -3367 1534.62 -3256 1542.77 -3177.14 1555.62 -3028.83 1554.62 -2920 1567.12 -2808 1542.12 -2693.27 1498.12 -2583 1490.62 -2471 1513.12 -2359 1568.62 -2248 1544.12 -2135 1530.62 -2019.27 1523.62 -1907.27 1532.62 -1795 1565.12 -1685 1543.62 -1573 1514.12 -1458 1490.12 -1348.27 1495.62 -1234 1517.12 -1120.33 1528.12 -1015 1580.62 -902.33 1578.12 -786.33 1578.12 -675.83 1560.12 -564.27 1526.62 -449 1467.62 -335 1381.62 -223.27 1270.62 -113 1090.12 -0.27 860.62 108 1302.12 223 1377.03 335 1550.62 448 1519.62 557.83 1476.12 670.83 1516.13 784.83 1534.62 897.17 1552.65 1007.83 1585.62 1121.73 1620.12 1236.83 1650.12 1347.83 1630.62 1455.73 1622.45 1572.73 1565.62 1683.83 1402.62 1797.17 1173.62 1909.83 1148.62 2020.83 1334.62 2135.83 1283.62 2249.83 1344.62 2358.83 1544.62 2471.83 1602.62 2586.17 1627.62 2697.83 1674.62 2810.73 1627.62 2925.83 1634.62 3037.83 1686.62 3149.83 1701.62 3262.83 1620.12 3374.83 1606.12 3485.83 1606.12 3599.66 1552.62 3599.66 1549.52 3485.83 1569.62 3374.83 1683.62 3262.83 1667.62 3149.83 1607.62 3037.83 1596.62 2925.17 1617.62 2810.83 1584.62 2697.83 1562.62 2585.83 1507.62 2471.83 1304.62 2358.73 1225.62 2249.73 1236.97 2212.78 1264.87 2135.83 1082.62 2020.83 1084.2 1910.34 1323.62 1797.83 1500.47 1683.73 1573.62 1572.83 1600.62 1455.83 1604.62 1347.83 1569.62 1236.83 1514.62 1121.83 1447.62 1007.73 1418.62 895.83 1404.62 784.83 1367.62 670.83 1397.62 557.83 1418.62 447.73 1339.62 334.73 1246.62 223 748.62 108 753.62 0 910.76 -113 1053.62 -223 1195.2 -335 1311.62 -449.83 1353.62 -564 1348.62 -675 1364.62 -786.83 1406.62 -902 1401.62 -1015 1429.62 -1120 1394.62 -1234.27 1393.2 -1348 1391.82 -1458.27 1437.52 -1573 1513.62 -1685.27 1505.64 -1795 1472.62 -1906.83 1447.62 -2019 1440.63 -2135 1462.62 -2248 1391.1 -2359 1348.62 -2471 1332.62 -2583 1376.98 -2693 1375.34 -2808.27 1373.74 -2920.27 1372.19 -3028.83" fill="none" stroke="#3b4351" stroke-miterlimit="10"/><polygon id="Huns" points="1555.62 -3028.83 1545.73 -3143 1533.62 -3256.33 1506.68 -3366.36 1502.16 -3480 1471.34 -3594 1465.12 -3704 1486.12 -3816 1534.62 -3928 1564.05 -4042 1559.62 -4156 1575.12 -4267 1534.24 -4379 1519.62 -4493 1548.12 -4608 1553.11 -4720 1514.47 -4832.27 1514.62 -4944.5 1552.12 -5054.5 1593.12 -5167.16 1580.1 -5277.83 1545.86 -5389.83 1633.99 -5389.83 1651.62 -5277.83 1667.62 -5167.16 1646.62 -5054.5 1620.62 -4942.5 1630.4 -4834.4 1650.62 -4720.33 1676.62 -4608 1700.12 -4493 1689.12 -4379 1714.62 -4267.33 1697.12 -4156.27 1645.62 -4042.27 1616.12 -3928 1586.62 -3816.27 1538.12 -3704.27 1509.12 -3594 1551.62 -3480 1585.12 -3367 1608.62 -3256.33 1609.69 -3143.27 1610.76 -3030.27 1613.62 -2920.27 1625.12 -2808.27 1599.12 -2692.33 1557.59 -2583 1545.65 -2471 1558.62 -2359 1584.62 -2248.27 1571.12 -2134.83 1576.62 -2019 1567.62 -1907 1587.12 -1795 1621.12 -1685 1612.12 -1573 1556.12 -1458 1528.62 -1348 1529.62 -1234 1553.62 -1120 1616.07 -1015 1609.25 -902 1592.66 -786 1611.01 -675.27 1612.12 -564 1598.04 -449 1564.12 -335 1534.29 -223 1602.12 -113.27 1653.62 0 1673.62 108 1666.12 223 1668.12 334.67 1625.62 447.67 1542.12 557.83 1476.12 670.83 1519.62 557.83 1550.62 448 1376.62 334.73 1302.12 223 860.62 108 1090.12 -0.27 1270.62 -113 1381.62 -223.27 1467.62 -335 1526.62 -449 1560.12 -564.27 1578.12 -675.83 1578.12 -786.33 1580.62 -902.33 1528.12 -1015 1517.12 -1120.33 1495.62 -1234 1490.12 -1348.27 1514.12 -1458 1543.62 -1573 1565.12 -1685 1532.62 -1795 1523.62 -1907.27 1530.62 -2019.27 1544.12 -2135 1568.62 -2248 1513.12 -2359 1490.62 -2471 1498.12 -2583 1542.12 -2693.27 1567.12 -2808 1554.62 -2920 1555.62 -3028.83" fill="none" stroke="#3b4351" stroke-miterlimit="10"/><polygon id="Chinese" points="1610.76 -3030.27 1609.69 -3143.27 1608.62 -3256.33 1585.12 -3367 1551.62 -3480 1509.12 -3594 1538.12 -3704.27 1586.62 -3816.27 1616.12 -3928 1645.62 -4042.27 1697.12 -4156.27 1714.62 -4267.33 1689.12 -4379 1700.12 -4493 1676.62 -4608 1650.62 -4720.33 1630.62 -4832 1620.62 -4942.5 1646.62 -5054.5 1667.62 -5167.16 1651.62 -5277.83 1633.99 -5389.83 1768.79 -5389.83 1768.79 2810.83 1768.79 2925.73 1766.12 3037.83 1757.62 3149.83 1736.12 3262.73 1676.12 3374.73 1661.12 3485.83 1663.62 3599.66 1606.12 3599.66 1606.12 3485.73 1620.12 3374.83 1701.62 3262.83 1696.12 3149.67 1654.12 3037.83 1681.62 2925.83 1739.62 2810.73 1748.62 2697.67 1744.12 2585.67 1685.62 2471.83 1615.12 2361.17 1636.12 2249.83 1738.62 2135.83 1761.12 2020.83 1758.62 1909.83 1732.12 1797.83 1695.62 1683.83 1667.62 1572.83 1651.12 1455.83 1650.12 1347.83 1620.12 1236.83 1585.62 1121.73 1552.62 1007.73 1535.12 895.83 1516.12 784.73 1476.12 670.83 1542.12 557.83 1625.62 447.67 1668.12 334.67 1666.12 223 1673.62 108 1653.62 0 1602.12 -113.27 1534.12 -223.27 1564.12 -335 1598.12 -449.27 1612.12 -564 1611.01 -675.27 1592.62 -786.27 1609.25 -902 1616.07 -1015 1553.62 -1120 1529.62 -1234 1528.62 -1348.27 1555.62 -1458 1612.12 -1573 1621.12 -1685 1587.12 -1795 1567.62 -1907 1576.62 -2019 1571.12 -2135 1584.62 -2248.27 1558.62 -2359 1545.62 -2471.27 1557.62 -2583.27 1599.62 -2693 1625.12 -2808.27 1613.62 -2920.27 1610.76 -3030.27" fill="none" stroke="#3b4351" stroke-miterlimit="10"/><polygon id="Teutons_-_Franks" data-name="Teutons - Franks" points="600.62 1007.83 277.29 1007.83 235.95 895.83 189.95 784.83 180.62 670.83 142.62 557.83 139.95 448 120.62 335 99.95 223 73.12 108 73.12 -335 101.12 -223 138.62 -110.58 168.12 0 189.69 108 192.12 223 257.62 335 298.12 448 333.12 557.83 392.87 670.83 712.62 784.83 676.62 895.83 600.62 1007.83" fill="none" stroke="#3b4351" stroke-miterlimit="10"/><polygon id="Teutons_-Goths" data-name="Teutons -Goths" points="712.62 784.83 392.87 670.83 333.12 557.83 298.12 448 257.62 335 192.12 223 189.69 108 168.12 0 138.62 -110.58 101.12 -223 73.12 -332.33 73.12 -1795 99.62 -1685 109.62 -1573 129.3 -1455.61 151.37 -1348 117.62 -1234 83.12 -1120 91.28 -1015 159.62 -902 175.95 -786 210.28 -675 248.28 -564 316.95 -449 410.62 -335 480.12 -223 416.12 -113 322.62 0 328.12 108 455.29 223 453.95 335 425.12 448 461.12 557.83 536.62 670.83 712.62 784.83" fill="none" stroke="#3b4351" stroke-miterlimit="10"/><polygon id="Denmark" points="916.62 3599.66 927.62 3599.66 926.37 3485.83 701.12 3374.83 690.87 3262.83 683.87 3149.83 637.87 3037.83 522.37 2925.83 457.37 2810.83 426.62 2697.83 299.62 2585.83 273.62 2471.83 281.62 2358.83 289.12 2249.83 302.12 2135.83 296.87 2020.83 275.62 1909.83 253.62 1797.83 226.62 1683.83 210.62 1572.83 199.62 1347.83 199.37 1236.83 291.37 1121.83 277.29 1007.83 235.95 895.83 188.87 784.83 180.62 670.83 142.62 557.83 139.95 448 120.62 335 99.95 223 73.12 108 90.34 223 107.12 335 118.37 448 120.37 557.83 122.62 670.83 125.87 784.83 158.37 895.83 185.87 1007.83 183.62 1121.83 127.62 1236.83 119.62 1347.83 119.12 1455.83 156.87 1572.83 188.62 1683.83 212.62 1797.83 252.37 1909.83 277.87 2020.83 283.37 2135.83 267.12 2249.83 248.87 2358.83 213.87 2471.83 234.37 2585.83 312.12 2697.83 398.12 2810.83 458.87 2925.83 593.37 3037.83 637.87 3149.83 674.12 3262.83 691.37 3374.83 915.37 3485.83 916.62 3599.66" fill="none" stroke="#3b4351" stroke-miterlimit="10"/><polygon id="England" points="874.62 3599.66 688.95 3599.66 687.95 3485.83 439.12 3374.83 252.12 3262.83 159.62 3149.83 111.62 3037.83 93.62 2925.83 86.12 2810.83 84.62 2697.83 86.95 2585.83 98.28 2471.83 116.95 2358.83 114.62 2249.83 122.62 2135.83 120.62 2020.83 108.28 1909.83 100.16 1797.83 107.95 1683.83 107.95 1572.83 77.28 1455.83 73.12 108 90.34 223 93.44 335 96.58 448 99.62 557.83 91.95 784.83 94.28 895.83 98.62 1007.83 120.28 1121.83 89.28 1236.83 84.28 1347.83 96.28 1455.83 133.28 1572.83 160.95 1683.83 172.95 1797.83 208.95 1909.83 223.62 2020.83 228.28 2135.83 211.62 2249.83 201.62 2358.83 189.95 2471.83 193.28 2585.83 235.28 2697.83 248.62 2810.83 348.62 2925.83 562.62 3037.83 622.12 3149.83 602.12 3262.83 652.12 3374.83 872.95 3485.83 874.62 3599.66" fill="none" stroke="#3b4351" stroke-miterlimit="10"/><polygon points="435.95 108 455.29 223 328.12 108 322.62 0 470.62 0 435.95 108" fill="none" stroke="#3b4351" stroke-miterlimit="10"/><polygon id="Moslem_Arabs_and_Persian" data-name="Moslem Arabs and Persian" points="717.95 -113 880.12 -223 981.62 -335 1122.62 -449 1220.62 -564 1311.62 -449.83 1195.2 -335 1053.62 -223 910.76 -113 753.62 0 593.62 0 717.95 -113" fill="none" stroke="#3b4351" stroke-miterlimit="10"/><polygon points="748.62 108 616.62 108 593.62 0 753.62 0 748.62 108" fill="none" stroke="#3b4351" stroke-miterlimit="10"/><polygon points="1076.62 336.42 1106.62 448.63 997.62 557.83 810.62 670.83 915.28 557.83 863.28 448 839.28 337.84 717.28 223 616.62 108 748.62 108 1022.62 223 1076.62 336.42" fill="none" stroke="#3b4351" stroke-miterlimit="10"/><polygon id="Islam" points="1239.87 448.5 1106.62 448.63 1076.62 336.42 1022.62 223 748.62 108 1246.62 223 1339.62 334.73 1418.62 447.73 1239.87 448.5" fill="none" stroke="#3b4351" stroke-miterlimit="10"/></g><g id="Text"><g id="Huns-2" data-name="Huns"><path d="M1042.87,28.25h3.57l4.61,17.5h-2.91l-1.08-4.29h-5.12l-1.13,4.29h-2.92Zm3.72,11-2-8.62h0l-2.08,8.62Z" fill="#3b4351"/><path d="M1050.93,32.57h1.81V28.82h2.65v3.75h2.15v2h-2.15v7.86c0,1.06.29,1.4,1.2,1.4a4.91,4.91,0,0,0,1-.07v2a8.93,8.93,0,0,1-2.13.22c-1.76,0-2.67-.52-2.67-3.19V34.53h-1.81Z" fill="#3b4351"/><path d="M1057.74,32.57h1.81V28.82h2.65v3.75h2.15v2h-2.15v7.86c0,1.06.29,1.4,1.2,1.4a4.91,4.91,0,0,0,.95-.07v2a8.93,8.93,0,0,1-2.13.22c-1.76,0-2.67-.52-2.67-3.19V34.53h-1.81Z" fill="#3b4351"/><path d="M1065.85,28.06h2.64V30.7h-2.64Zm0,4.51h2.64V45.75h-2.64Z" fill="#3b4351"/><path d="M1071.29,28.25h2.64v17.5h-2.64Z" fill="#3b4351"/><path d="M1085.25,43c0,.49.3.93.69.93a1,1,0,0,0,.44-.08v1.72a2.83,2.83,0,0,1-1.3.32c-1.18,0-2.16-.47-2.23-1.74h0a3.39,3.39,0,0,1-3.28,1.93c-2.13,0-3.43-1.15-3.43-3.7,0-2.94,1.3-3.55,3.06-4.14l2.06-.56c1-.27,1.54-.54,1.54-1.69s-.41-2-1.81-2c-1.77,0-2,1.25-2,2.52h-2.5c0-2.82,1.15-4.34,4.63-4.34,2.33,0,4.19.91,4.19,3.24Zm-2.5-4.22a21.19,21.19,0,0,1-2.94,1.23,2.16,2.16,0,0,0-1.08,2.13c0,1.1.54,2,1.65,2,1.59,0,2.37-1.17,2.37-3.13Z" fill="#3b4351"/><path d="M1410.52,81.25h4.36l3.09,13h0l3-13h4.26v17.5h-2.65V84.19h0l-3.53,14.56h-2.36l-3.52-14.56h0V98.75h-2.65Z" fill="#3b4351"/><path d="M1427.79,90c0-6.25,1.77-9.09,5.78-9.09s5.79,2.84,5.79,9.09-1.77,9.09-5.79,9.09S1427.79,96.25,1427.79,90Zm8.77-.07c0-5.88-1.32-6.91-3-6.91s-3,1-3,6.91,1.32,7.06,3,7.06S1436.56,95.93,1436.56,89.93Z" fill="#3b4351"/><path d="M1441.83,81.25h3.41l5.07,13h0v-13H1453v17.5h-3.41l-5.07-13.38h0V98.75h-2.65Z" fill="#3b4351"/><path d="M1464.54,96.72h0a3.63,3.63,0,0,1-3.82,2.37c-3.82,0-5.19-2.84-5.19-9.09s1.76-9.09,5.8-9.09a4.77,4.77,0,0,1,5.13,5v.32h-2.65v-.42c0-1.3-.54-2.84-2.45-2.84s-3,1.32-3,6.91.93,7.06,2.82,7.06c2.13,0,2.91-1.52,2.91-5.35h-2.94v-2.1h5.59v9.21h-2.11Z" fill="#3b4351"/><path d="M1468.63,90c0-6.25,1.77-9.09,5.79-9.09s5.78,2.84,5.78,9.09-1.77,9.09-5.78,9.09S1468.63,96.25,1468.63,90Zm8.78-.07c0-5.88-1.33-6.91-3-6.91s-3,1-3,6.91,1.32,7.06,3,7.06S1477.41,95.93,1477.41,89.93Z" fill="#3b4351"/><path d="M1482.35,81.25h2.8V96.4h6.76v2.35h-9.56Z" fill="#3b4351"/><path d="M1493.43,81.25h2.79v17.5h-2.79Z" fill="#3b4351"/><path d="M1502.3,81.25h3.57l4.61,17.5h-2.92l-1.07-4.29h-5.13l-1.12,4.29h-2.92Zm3.72,11-2-8.62h0l-2.08,8.62Z" fill="#3b4351"/><path d="M1511.7,81.25h3.41l5.07,13h0v-13h2.65v17.5h-3.41l-5.07-13.38h-.05V98.75h-2.65Z" fill="#3b4351"/><path d="M1527.92,93.33v.45c0,2.13,1,3.21,2.87,3.21a2.51,2.51,0,0,0,2.65-2.55c0-1.84-.94-2.65-2.5-3.11l-1.92-.67c-2.54-1-3.65-2.3-3.65-4.8,0-3.19,2.18-5,5.44-5,4.49,0,5,2.79,5,4.61v.39H1533v-.37c0-1.59-.69-2.52-2.45-2.52a2.23,2.23,0,0,0-2.35,2.52c0,1.5.76,2.26,2.62,3l1.89.68c2.47.89,3.55,2.21,3.55,4.63,0,3.73-2.25,5.27-5.78,5.27-4.34,0-5.32-2.89-5.32-5.34v-.42Z" fill="#3b4351"/></g><g id="Persians"><path d="M629.5,78.14H635c3.35,0,4.82,2.11,4.82,5.1,0,3.14-1.86,5.17-5.12,5.17h-2.45v7.23H629.5Zm2.79,8.17h2c1.49,0,2.79-.79,2.79-3,0-1.89-.76-3-3-3h-1.79Z" fill="#3b4351"/><path d="M641.75,78.14h9.46V80.5h-6.67v4.85h6.27V87.7h-6.27v5.59h6.86v2.35h-9.65Z" fill="#3b4351"/><path d="M653.53,78.14h6.18c2.45,0,4.43,1.25,4.43,4.51,0,2.26-1,4-2.91,4.29v0c1.76.17,2.64,1.13,2.74,3.58,0,1.15,0,2.5.1,3.55a1.92,1.92,0,0,0,.83,1.52h-3.16a2.93,2.93,0,0,1-.46-1.54c0-.52-.08-1.06-.08-1.57s0-1.1-.05-1.74c-.07-1.91-.66-2.75-2.55-2.75h-2.27v7.6h-2.8Zm5,7.8a2.58,2.58,0,0,0,2.79-2.84c0-1.87-.78-2.85-2.65-2.85h-2.37v5.69Z" fill="#3b4351"/><path d="M668.85,90.23v.44c0,2.13.95,3.21,2.86,3.21a2.51,2.51,0,0,0,2.65-2.55c0-1.84-.93-2.65-2.5-3.11L670,87.55c-2.55-1-3.65-2.3-3.65-4.8,0-3.18,2.18-5,5.44-5,4.48,0,5,2.8,5,4.61v.39h-2.8v-.37c0-1.59-.68-2.52-2.45-2.52a2.23,2.23,0,0,0-2.35,2.52c0,1.5.76,2.26,2.62,3l1.89.68c2.47.89,3.55,2.21,3.55,4.64,0,3.72-2.25,5.27-5.78,5.27-4.34,0-5.32-2.9-5.32-5.35v-.41Z" fill="#3b4351"/><path d="M679.28,78.14h2.79v17.5h-2.79Z" fill="#3b4351"/><path d="M688.15,78.14h3.58l4.61,17.5h-2.92l-1.08-4.29h-5.12l-1.13,4.29h-2.91Zm3.73,11-2-8.62h0l-2.09,8.62Z" fill="#3b4351"/><path d="M697.56,78.14H701l5.08,13h.05v-13h2.64v17.5h-3.4l-5.08-13.38h0V95.64h-2.64Z" fill="#3b4351"/><path d="M713.78,90.23v.44c0,2.13,1,3.21,2.86,3.21a2.51,2.51,0,0,0,2.65-2.55c0-1.84-.93-2.65-2.5-3.11l-1.91-.67c-2.55-1-3.65-2.3-3.65-4.8,0-3.18,2.18-5,5.44-5,4.48,0,5,2.8,5,4.61v.39h-2.8v-.37c0-1.59-.68-2.52-2.45-2.52A2.23,2.23,0,0,0,714,82.43c0,1.5.76,2.26,2.62,3l1.89.68c2.48.89,3.55,2.21,3.55,4.64,0,3.72-2.25,5.27-5.78,5.27C712,96,711,93.09,711,90.64v-.41Z" fill="#3b4351"/></g></g></svg>