<svg xmlns="http://www.w3.org/2000/svg" viewBox="0 0 1847.91 115"><title>ce0500text</title><g id="YEARS"><g id="Right"><path d="M1794.31,65.29h3.79L1803,83.86h-3.09l-1.15-4.55h-5.43l-1.2,4.55H1789Zm4,11.65-2.13-9.15h-.06l-2.21,9.15Z" fill="#3b4351"/><path d="M1804.39,80.43h3v3.43h-3Z" fill="#3b4351"/><path d="M1816.77,65.29h5.28c5.82,0,6.55,3.8,6.55,9.29s-.73,9.28-6.55,9.28h-5.28Zm3,16.33h2.45c2.44,0,3.46-1.61,3.46-7,0-5.23-.89-7-3.46-7h-2.45Z" fill="#3b4351"/><path d="M1830.29,80.43h3v3.43h-3Z" fill="#3b4351"/><path d="M1794.19,103.89H1797v.5a2.35,2.35,0,0,0,2.42,2.6c2.08,0,2.62-2,2.62-4.19s-.57-3.93-2.47-3.93a2.36,2.36,0,0,0-2.42,1.69l-2.62-.1.91-9.65h8.86v2.37h-6.65l-.6,4.84,0,0a4.06,4.06,0,0,1,3.09-1.43c3.85,0,4.82,3.25,4.82,6.08,0,3.69-1.7,6.5-5.67,6.5-3.31,0-5.15-1.69-5.15-4.94Z" fill="#3b4351"/><path d="M1812.08,90.45c3.53,0,5.51,2.21,5.51,9.39s-2,9.38-5.51,9.38-5.52-2.21-5.52-9.38S1808.54,90.45,1812.08,90.45Zm0,16.69c2,0,2.54-2,2.54-7.3s-.54-7.31-2.54-7.31-2.55,2-2.55,7.31S1810.07,107.14,1812.08,107.14Z" fill="#3b4351"/><path d="M1824.56,90.45c3.53,0,5.51,2.21,5.51,9.39s-2,9.38-5.51,9.38S1819,107,1819,99.84,1821,90.45,1824.56,90.45Zm0,16.69c2,0,2.54-2,2.54-7.3s-.54-7.31-2.54-7.31-2.55,2-2.55,7.31S1822.55,107.14,1824.56,107.14Z" fill="#3b4351"/></g><g id="left"><path d="M31.63-5h2.81v.49a2.35,2.35,0,0,0,2.42,2.6c2.08,0,2.63-2,2.63-4.18S38.91-10,37-10A2.35,2.35,0,0,0,34.6-8.35L32-8.45l.91-9.65h8.87v2.37H35.09l-.6,4.83.06.05a4,4,0,0,1,3.09-1.43c3.85,0,4.81,3.25,4.81,6.09,0,3.69-1.69,6.5-5.67,6.5-3.3,0-5.15-1.69-5.15-4.94Z" fill="#3b4351"/><path d="M49.52-18.46c3.54,0,5.51,2.21,5.51,9.38S53.06.31,49.52.31,44-1.9,44-9.08,46-18.46,49.52-18.46Zm0,16.69c2,0,2.55-2,2.55-7.31s-.55-7.3-2.55-7.3S47-14.41,47-9.08,47.52-1.77,49.52-1.77Z" fill="#3b4351"/><path d="M19.27,67.2h3.8L28,85.77h-3.1l-1.14-4.56H18.28l-1.19,4.56H14Zm3.95,11.65L21.09,69.7H21l-2.21,9.15Z" fill="#3b4351"/><path d="M29.36,82.33h3v3.44h-3Z" fill="#3b4351"/><path d="M41.74,67.2H47c5.83,0,6.56,3.8,6.56,9.28s-.73,9.29-6.56,9.29H41.74Zm3,16.33h2.44c2.45,0,3.46-1.61,3.46-7,0-5.22-.88-7-3.46-7H44.7Z" fill="#3b4351"/><path d="M55.26,82.33h3v3.44h-3Z" fill="#3b4351"/><path d="M19.15,105.8H22v.49a2.35,2.35,0,0,0,2.42,2.6c2.08,0,2.63-2,2.63-4.18s-.58-3.93-2.47-3.93a2.35,2.35,0,0,0-2.42,1.69l-2.63-.1.91-9.65h8.87v2.37H22.61L22,99.92l.06,0a4,4,0,0,1,3.09-1.43c3.85,0,4.81,3.25,4.81,6.09,0,3.69-1.69,6.5-5.67,6.5-3.3,0-5.15-1.69-5.15-4.94Z" fill="#3b4351"/><path d="M37,92.36c3.54,0,5.51,2.21,5.51,9.38s-2,9.39-5.51,9.39-5.51-2.21-5.51-9.39S33.51,92.36,37,92.36Zm0,16.69c2,0,2.55-2,2.55-7.31S39,94.44,37,94.44s-2.55,2-2.55,7.3S35,109.05,37,109.05Z" fill="#3b4351"/><path d="M49.52,92.36c3.54,0,5.51,2.21,5.51,9.38s-2,9.39-5.51,9.39S44,108.92,44,101.74,46,92.36,49.52,92.36Zm0,16.69c2,0,2.55-2,2.55-7.31s-.55-7.3-2.55-7.3-2.55,2-2.55,7.3S47.52,109.05,49.52,109.05Z" fill="#3b4351"/></g></g><g id="Nation_OUtlines" data-name="Nation OUtlines"><polygon id="Romans" points="854.62 2363.83 829.93 2250.83 711.95 2141.83 764.62 2027.83 729.95 1912.83 845.28 1801.83 1002.62 1689.83 1065.29 1575.83 1021.28 1464.83 995.34 1347.83 815.28 1239.83 703.28 1128.83 687.28 1013.83 737.95 899.83 780.62 787.83 712.62 676.83 645.95 562.83 550.62 449.83 491.95 340 453.95 227 455.29 115 435.95 0 470.62 -108 322.62 -108 416.12 -221 480.12 -331 410.62 -443 316.95 -557 248.28 -672 210.28 -783 175.95 -894 159.62 -1010 91.28 -1123 83.12 -1228 117.62 -1342 151.37 -1456 129.62 -1566 109.62 -1681 99.62 -1793 73.12 -1903 75.42 -2801 85.95 -2691 95.28 -2579 111.95 -2467 116.62 -2356 137.95 -2243 149.95 -2127 169.95 -2015 205.28 -1903 231.95 -1793 287.74 -1681 467.73 -1566 683.72 -1456 998.71 -1342 1118.7 -1228 1131.14 -1123 1195.2 -1010 1182.62 -894 1245.62 -783 1220.62 -672 1122.62 -557 981.62 -443 880.12 -331 717.95 -221 593.62 -108 616.62 0 717.28 115 839.28 229.84 863.28 340 915.28 449.83 810.62 562.83 885.95 676.83 1037.95 787.83 1125.95 899.83 1253.95 1013.83 1213.95 1128.83 1202.62 1239.83 1169.95 1347.83 1161.29 1464.83 1218.62 1575.83 1131.95 1689.83 936.62 1801.83 798.62 1912.83 819.28 2027.83 759.95 2141.83 849.28 2250.83 854.62 2363.83" fill="none" stroke="#3b4351" stroke-miterlimit="10"/><polygon id="Indians" points="1372.19 -3136.83 1294.19 -3251 1285.19 -3364 1313.69 -3475 1348.19 -3588 1310.69 -3702 1298.69 -3812 1313.69 -3924 1345.19 -4036 1325.69 -4150 1343.69 -4264 1417.19 -4375 1400.69 -4488.08 1429.19 -4601 1419.27 -4716.27 1387.19 -4828 1387.19 -4940 1438.19 -5050.5 1462.18 -5162.5 1480.18 -5275.54 1445.82 -5385.83 1411.11 -5497.83 1545.86 -5497.83 1580.1 -5385.83 1593.12 -5275.6 1552.12 -5162.5 1514.62 -5050.5 1514.12 -4940.33 1553.12 -4828.27 1548.12 -4716 1519.62 -4601 1534.12 -4487.33 1575.12 -4375 1559.62 -4264 1564.12 -4150.27 1534.62 -4036 1486.12 -3924 1465.12 -3812 1471.12 -3702.83 1502.12 -3588.83 1508.12 -3475 1534.62 -3364 1542.77 -3285.14 1555.62 -3136.83 1554.62 -3028 1567.12 -2916 1542.12 -2801.27 1498.12 -2691 1490.62 -2579 1513.12 -2467 1568.62 -2356 1544.12 -2243 1530.62 -2127.27 1523.62 -2015.27 1532.62 -1903 1565.12 -1793 1543.62 -1681 1514.12 -1566 1490.12 -1456.27 1495.62 -1342 1517.12 -1228.33 1528.12 -1123 1580.62 -1010.33 1578.12 -894.33 1578.12 -783.83 1560.12 -672.27 1526.62 -557 1467.62 -443 1381.62 -331.27 1270.62 -221 1090.12 -108.27 860.62 0 1302.12 115 1377.03 227 1550.62 340 1519.62 449.83 1476.12 562.83 1516.13 676.83 1534.62 789.17 1552.65 899.83 1585.62 1013.73 1620.12 1128.83 1650.12 1239.83 1630.62 1347.73 1622.45 1464.73 1565.62 1575.83 1402.62 1689.17 1173.62 1801.83 1148.62 1912.83 1334.62 2027.83 1283.62 2141.83 1344.62 2250.83 1544.62 2363.83 1602.62 2478.17 1627.62 2589.83 1674.62 2702.73 1627.62 2817.83 1634.62 2929.83 1686.62 3041.83 1701.62 3154.83 1620.12 3266.83 1606.12 3377.83 1606.12 3491.66 1552.62 3491.66 1549.52 3377.83 1569.62 3266.83 1683.62 3154.83 1667.62 3041.83 1607.62 2929.83 1596.62 2817.17 1617.62 2702.83 1584.62 2589.83 1562.62 2477.83 1507.62 2363.83 1304.62 2250.73 1225.62 2141.73 1236.97 2104.78 1264.87 2027.83 1082.62 1912.83 1084.2 1802.34 1323.62 1689.83 1500.47 1575.73 1573.62 1464.83 1600.62 1347.83 1604.62 1239.83 1569.62 1128.83 1514.62 1013.83 1447.62 899.73 1418.62 787.83 1404.62 676.83 1367.62 562.83 1397.62 449.83 1418.62 339.73 1339.62 226.73 1246.62 115 748.62 0 753.62 -108 910.76 -221 1053.62 -331 1195.2 -443 1311.62 -557.83 1353.62 -672 1348.62 -783 1364.62 -894.83 1406.62 -1010 1401.62 -1123 1429.62 -1228 1394.62 -1342.27 1393.2 -1456 1391.82 -1566.27 1437.52 -1681 1513.62 -1793.27 1505.64 -1903 1472.62 -2014.83 1447.62 -2127 1440.63 -2243 1462.62 -2356 1391.1 -2467 1348.62 -2579 1332.62 -2691 1376.98 -2801 1375.34 -2916.27 1373.74 -3028.27 1372.19 -3136.83" fill="none" stroke="#3b4351" stroke-miterlimit="10"/><polygon id="Huns" points="1555.62 -3136.83 1545.73 -3251 1533.62 -3364.33 1506.68 -3474.36 1502.16 -3588 1471.34 -3702 1465.12 -3812 1486.12 -3924 1534.62 -4036 1564.05 -4150 1559.62 -4264 1575.12 -4375 1534.24 -4487 1519.62 -4601 1548.12 -4716 1553.11 -4828 1514.47 -4940.27 1514.62 -5052.5 1552.12 -5162.5 1593.12 -5275.16 1580.1 -5385.83 1545.86 -5497.83 1633.99 -5497.83 1651.62 -5385.83 1667.62 -5275.16 1646.62 -5162.5 1620.62 -5050.5 1630.4 -4942.4 1650.62 -4828.33 1676.62 -4716 1700.12 -4601 1689.12 -4487 1714.62 -4375.33 1697.12 -4264.27 1645.62 -4150.27 1616.12 -4036 1586.62 -3924.27 1538.12 -3812.27 1509.12 -3702 1551.62 -3588 1585.12 -3475 1608.62 -3364.33 1609.69 -3251.27 1610.76 -3138.27 1613.62 -3028.27 1625.12 -2916.27 1599.12 -2800.33 1557.59 -2691 1545.65 -2579 1558.62 -2467 1584.62 -2356.27 1571.12 -2242.83 1576.62 -2127 1567.62 -2015 1587.12 -1903 1621.12 -1793 1612.12 -1681 1556.12 -1566 1528.62 -1456 1529.62 -1342 1553.62 -1228 1616.07 -1123 1609.25 -1010 1592.66 -894 1611.01 -783.27 1612.12 -672 1598.04 -557 1564.12 -443 1534.29 -331 1602.12 -221.27 1653.62 -108 1673.62 0 1666.12 115 1668.12 226.67 1625.62 339.67 1542.12 449.83 1476.12 562.83 1519.62 449.83 1550.62 340 1376.62 226.73 1302.12 115 860.62 0 1090.12 -108.27 1270.62 -221 1381.62 -331.27 1467.62 -443 1526.62 -557 1560.12 -672.27 1578.12 -783.83 1578.12 -894.33 1580.62 -1010.33 1528.12 -1123 1517.12 -1228.33 1495.62 -1342 1490.12 -1456.27 1514.12 -1566 1543.62 -1681 1565.12 -1793 1532.62 -1903 1523.62 -2015.27 1530.62 -2127.27 1544.12 -2243 1568.62 -2356 1513.12 -2467 1490.62 -2579 1498.12 -2691 1542.12 -2801.27 1567.12 -2916 1554.62 -3028 1555.62 -3136.83" fill="none" stroke="#3b4351" stroke-miterlimit="10"/><polygon id="Chinese" points="1610.76 -3138.27 1609.69 -3251.27 1608.62 -3364.33 1585.12 -3475 1551.62 -3588 1509.12 -3702 1538.12 -3812.27 1586.62 -3924.27 1616.12 -4036 1645.62 -4150.27 1697.12 -4264.27 1714.62 -4375.33 1689.12 -4487 1700.12 -4601 1676.62 -4716 1650.62 -4828.33 1630.62 -4940 1620.62 -5050.5 1646.62 -5162.5 1667.62 -5275.16 1651.62 -5385.83 1633.99 -5497.83 1768.79 -5497.83 1768.79 2702.83 1768.79 2817.73 1766.12 2929.83 1757.62 3041.83 1736.12 3154.73 1676.12 3266.73 1661.12 3377.83 1663.62 3491.66 1606.12 3491.66 1606.12 3377.73 1620.12 3266.83 1701.62 3154.83 1696.12 3041.67 1654.12 2929.83 1681.62 2817.83 1739.62 2702.73 1748.62 2589.67 1744.12 2477.67 1685.62 2363.83 1615.12 2253.17 1636.12 2141.83 1738.62 2027.83 1761.12 1912.83 1758.62 1801.83 1732.12 1689.83 1695.62 1575.83 1667.62 1464.83 1651.12 1347.83 1650.12 1239.83 1620.12 1128.83 1585.62 1013.73 1552.62 899.73 1535.12 787.83 1516.12 676.73 1476.12 562.83 1542.12 449.83 1625.62 339.67 1668.12 226.67 1666.12 115 1673.62 0 1653.62 -108 1602.12 -221.27 1534.12 -331.27 1564.12 -443 1598.12 -557.27 1612.12 -672 1611.01 -783.27 1592.62 -894.27 1609.25 -1010 1616.07 -1123 1553.62 -1228 1529.62 -1342 1528.62 -1456.27 1555.62 -1566 1612.12 -1681 1621.12 -1793 1587.12 -1903 1567.62 -2015 1576.62 -2127 1571.12 -2243 1584.62 -2356.27 1558.62 -2467 1545.62 -2579.27 1557.62 -2691.27 1599.62 -2801 1625.12 -2916.27 1613.62 -3028.27 1610.76 -3138.27" fill="none" stroke="#3b4351" stroke-miterlimit="10"/><polygon id="Teutons_-_Franks" data-name="Teutons - Franks" points="600.62 899.83 277.29 899.83 235.95 787.83 189.95 676.83 180.62 562.83 142.62 449.83 139.95 340 120.62 227 99.95 115 73.12 0 73.12 -443 101.12 -331 138.62 -218.59 168.12 -108 189.69 0 192.12 115 257.62 227 298.12 340 333.12 449.83 392.87 562.83 712.62 676.83 676.62 787.83 600.62 899.83" fill="none" stroke="#3b4351" stroke-miterlimit="10"/><polygon id="Teutons_-Goths" data-name="Teutons -Goths" points="712.62 676.83 392.87 562.83 333.12 449.83 298.12 340 257.62 227 192.12 115 189.69 0 168.12 -108 138.62 -218.59 101.12 -331 73.12 -440.33 73.12 -1903 99.62 -1793 109.62 -1681 129.3 -1563.61 151.37 -1456 117.62 -1342 83.12 -1228 91.28 -1123 159.62 -1010 175.95 -894 210.28 -783 248.28 -672 316.95 -557 410.62 -443 480.12 -331 416.12 -221 322.62 -108 328.12 0 455.29 115 453.95 227 425.12 340 461.12 449.83 536.62 562.83 712.62 676.83" fill="none" stroke="#3b4351" stroke-miterlimit="10"/><polygon id="Denmark" points="916.62 3491.66 927.62 3491.66 926.37 3377.83 701.12 3266.83 690.87 3154.83 683.87 3041.83 637.87 2929.83 522.37 2817.83 457.37 2702.83 426.62 2589.83 299.62 2477.83 273.62 2363.83 281.62 2250.83 289.12 2141.83 302.12 2027.83 296.87 1912.83 275.62 1801.83 253.62 1689.83 226.62 1575.83 210.62 1464.83 199.62 1239.83 199.37 1128.83 291.37 1013.83 277.29 899.83 235.95 787.83 188.87 676.83 180.62 562.83 142.62 449.83 139.95 340 120.62 227 99.95 115 73.12 0 90.34 115 107.12 227 118.37 340 120.37 449.83 122.62 562.83 125.87 676.83 158.37 787.83 185.87 899.83 183.62 1013.83 127.62 1128.83 119.62 1239.83 119.12 1347.83 156.87 1464.83 188.62 1575.83 212.62 1689.83 252.37 1801.83 277.87 1912.83 283.37 2027.83 267.12 2141.83 248.87 2250.83 213.87 2363.83 234.37 2477.83 312.12 2589.83 398.12 2702.83 458.87 2817.83 593.37 2929.83 637.87 3041.83 674.12 3154.83 691.37 3266.83 915.37 3377.83 916.62 3491.66" fill="none" stroke="#3b4351" stroke-miterlimit="10"/><polygon id="Norway" points="213.87 2363.83 222.62 2250.83 243.95 2141.83 258.95 2027.83 252.95 1912.83 220.95 1801.83 186.86 1689.83 160.95 1575.83 133.28 1464.83 96.28 1347.83 84.28 1239.83 89.28 1128.83 120.28 1013.83 98.62 899.83 94.28 787.83 91.95 676.83 95.28 562.83 99.62 449.83 96.58 340 93.44 227 90.34 115 107.12 227 118.37 340 120.37 449.83 122.62 562.83 125.87 676.83 158.37 787.83 185.87 899.83 183.62 1013.83 127.62 1128.83 119.62 1239.83 119.12 1347.83 156.87 1464.83 188.62 1575.83 212.62 1689.83 252.37 1801.83 277.87 1912.83 283.37 2027.83 267.12 2141.83 248.87 2250.83 213.87 2363.83" fill="none" stroke="#3b4351" stroke-miterlimit="10"/><polygon id="England" points="874.62 3491.66 688.95 3491.66 687.95 3377.83 439.12 3266.83 252.12 3154.83 159.62 3041.83 111.62 2929.83 93.62 2817.83 86.12 2702.83 84.62 2589.83 86.95 2477.83 98.28 2363.83 116.95 2250.83 114.62 2141.83 122.62 2027.83 120.62 1912.83 108.28 1801.83 100.16 1689.83 107.95 1575.83 107.95 1464.83 77.28 1347.83 73.12 0 90.34 115 93.44 227 96.58 340 99.62 449.83 91.95 676.83 94.28 787.83 98.62 899.83 120.28 1013.83 89.28 1128.83 84.28 1239.83 96.28 1347.83 133.28 1464.83 160.95 1575.83 172.95 1689.83 208.95 1801.83 223.62 1912.83 228.28 2027.83 211.62 2141.83 201.62 2250.83 189.95 2363.83 193.28 2477.83 235.28 2589.83 248.62 2702.83 348.62 2817.83 562.62 2929.83 622.12 3041.83 602.12 3154.83 652.12 3266.83 872.95 3377.83 874.62 3491.66" fill="none" stroke="#3b4351" stroke-miterlimit="10"/><polygon points="435.95 0 455.29 115 328.12 0 322.62 -108 470.62 -108 435.95 0" fill="none" stroke="#3b4351" stroke-miterlimit="10"/><polygon points="748.62 0 616.62 0 593.62 -108 753.62 -108 748.62 0" fill="none" stroke="#3b4351" stroke-miterlimit="10"/><polygon points="1076.62 228.41 1106.62 340.63 997.62 449.83 810.62 562.83 915.28 449.83 863.28 340 839.28 229.84 717.28 115 616.62 0 748.62 0 1022.62 115 1076.62 228.41" fill="none" stroke="#3b4351" stroke-miterlimit="10"/><polygon id="Islam" points="1239.87 340.5 1106.62 340.63 1076.62 228.41 1022.62 115 748.62 0 1246.62 115 1339.62 226.73 1418.62 339.73 1239.87 340.5" fill="none" stroke="#3b4351" stroke-miterlimit="10"/></g><g id="Text"><g id="Romans-2" data-name="Romans"><path d="M455.42,28.55h5.66c2.62,0,4.71,1.17,4.71,4.24q0,3.16-2.58,4v.05c1.91.34,3.14,1.49,3.14,4.46S464.24,46,461,46h-5.54Zm5,7.37A2.45,2.45,0,0,0,463,33.16c0-2.09-1.25-2.5-2.82-2.5h-2v5.26Zm.56,8c1.67,0,2.58-1.06,2.58-3.09a2.66,2.66,0,0,0-2.75-3h-2.6v6.06Z" fill="#3b4351"/><path d="M470.17,32.86l2.28,9.9h.05l2.11-9.9h2.76l-3.62,13.68c-1.06,3.6-1.86,4.09-4.61,4a5.26,5.26,0,0,1-1.05-.09V48.35a3.53,3.53,0,0,0,.85.1c.91,0,1.5-.17,1.79-1l.35-1.08-3.75-13.48Z" fill="#3b4351"/><path d="M478.18,44l5.76-8.9h-5.42V32.86h8.41V35l-5.54,8.78h5.54V46h-8.75Z" fill="#3b4351"/><path d="M497.46,43.3c0,.49.3.93.69.93a1,1,0,0,0,.44-.07v1.71a2.83,2.83,0,0,1-1.3.32c-1.17,0-2.15-.46-2.23-1.74H495a3.4,3.4,0,0,1-3.28,1.94c-2.13,0-3.43-1.15-3.43-3.7,0-2.94,1.3-3.56,3.06-4.14l2.06-.57c1-.27,1.55-.54,1.55-1.69s-.42-2-1.82-2c-1.76,0-2,1.25-2,2.53h-2.5c0-2.82,1.15-4.34,4.63-4.34,2.33,0,4.19.9,4.19,3.23ZM495,39.09a21.79,21.79,0,0,1-3,1.22A2.16,2.16,0,0,0,491,42.44c0,1.11.54,2,1.64,2,1.59,0,2.38-1.18,2.38-3.14Z" fill="#3b4351"/><path d="M500.16,32.86h2.5v1.55h.07a3.77,3.77,0,0,1,3.38-1.89c2,0,3.29.9,3.29,3.58V46h-2.65V37c0-1.76-.47-2.37-1.84-2.37-1.08,0-2.11.8-2.11,2.57V46h-2.64Z" fill="#3b4351"/><path d="M510.77,32.86h1.81V29.11h2.65v3.75h2.15v2h-2.15v7.87c0,1.05.29,1.39,1.2,1.39a4.91,4.91,0,0,0,1-.07v2a8.44,8.44,0,0,1-2.13.22c-1.76,0-2.67-.51-2.67-3.18V34.82h-1.81Z" fill="#3b4351"/><path d="M518.88,28.35h2.64V31h-2.64Zm0,4.51h2.64V46h-2.64Z" fill="#3b4351"/><path d="M524.19,32.86h2.5v1.55h.07a3.8,3.8,0,0,1,3.39-1.89c2,0,3.28.9,3.28,3.58V46h-2.65V37c0-1.76-.46-2.37-1.83-2.37-1.08,0-2.11.8-2.11,2.57V46h-2.65Z" fill="#3b4351"/><path d="M538.25,39.8v.76c0,1.76.23,4,2.21,4s2.11-2.14,2.11-2.95h2.5c0,3-1.77,4.76-4.63,4.76-2.16,0-4.83-.64-4.83-6.74,0-3.46.76-7.13,4.87-7.13,3.68,0,4.66,2.23,4.66,5.88v1.4ZM542.49,38v-.71c0-1.66-.54-2.94-2-2.94-1.67,0-2.21,1.67-2.21,3.38V38Z" fill="#3b4351"/><path d="M553,36.71v-.34c0-1.06-.36-2-1.74-2-1,0-1.88.47-1.88,1.72,0,1.05.46,1.44,1.86,1.93l1.69.59c2,.66,2.87,1.72,2.87,3.8,0,2.82-2.09,4-4.73,4-3.33,0-4.34-1.55-4.34-4.09v-.49h2.35v.41c0,1.55.52,2.36,2.06,2.36s2.16-.74,2.16-1.94a1.91,1.91,0,0,0-1.45-1.94l-2.15-.76c-2-.66-2.82-1.69-2.82-3.8,0-2.47,1.76-3.62,4.51-3.62,3.35,0,4.11,2,4.11,3.6v.59Z" fill="#3b4351"/></g><g id="Huns-2" data-name="Huns"><path d="M1377.73,77.25h2.79v7h5.15v-7h2.79v17.5h-2.79V86.61h-5.15v8.14h-2.79Z" fill="#3b4351"/><path d="M1393.92,77.25V89.8c0,2.23.88,3.19,2.57,3.19s2.55-1,2.55-3.19V77.25h2.8V89.58c0,4-2,5.51-5.35,5.51s-5.36-1.47-5.36-5.51V77.25Z" fill="#3b4351"/><path d="M1404.5,77.25h3.41l5.07,13h0v-13h2.65v17.5h-3.41l-5.07-13.38h0V94.75h-2.65Z" fill="#3b4351"/><path d="M1420.72,89.33v.45c0,2.13,1,3.21,2.87,3.21a2.51,2.51,0,0,0,2.65-2.55c0-1.84-.93-2.65-2.5-3.11l-1.91-.67c-2.55-1-3.65-2.3-3.65-4.8,0-3.19,2.18-5,5.44-5,4.48,0,5,2.79,5,4.61v.39h-2.8v-.37c0-1.59-.68-2.52-2.45-2.52a2.23,2.23,0,0,0-2.35,2.52c0,1.5.76,2.26,2.62,3l1.89.68c2.47.89,3.55,2.21,3.55,4.63,0,3.73-2.25,5.27-5.78,5.27-4.34,0-5.32-2.89-5.32-5.34v-.42Z" fill="#3b4351"/></g><g id="Teutons_-_Franks-2" data-name="Teutons - Franks"><path d="M93.73,39H89.56V36.63h11V39H96.52V54.12H93.73Z" fill="#3b4351"/><path d="M102.2,36.63h9.46V39H105v4.85h6.27v2.35H105v5.59h6.86v2.35H102.2Z" fill="#3b4351"/><path d="M116.56,36.63V49.17c0,2.23.88,3.19,2.57,3.19s2.55-1,2.55-3.19V36.63h2.79V49c0,4-2,5.52-5.34,5.52S113.77,53,113.77,49V36.63Z" fill="#3b4351"/><path d="M130,39h-4.17V36.63H136.9V39h-4.1V54.12H130Z" fill="#3b4351"/><path d="M137.33,45.37c0-6.24,1.77-9.09,5.79-9.09s5.78,2.85,5.78,9.09-1.76,9.1-5.78,9.1S137.33,51.62,137.33,45.37Zm8.78-.07c0-5.88-1.33-6.91-3-6.91s-3,1-3,6.91,1.32,7.06,3,7.06S146.11,51.31,146.11,45.3Z" fill="#3b4351"/><path d="M151.37,36.63h3.41l5.07,13h.05v-13h2.65V54.12h-3.41l-5.07-13.38h0V54.12h-2.65Z" fill="#3b4351"/><path d="M167.59,48.71v.44c0,2.13,1,3.21,2.87,3.21a2.51,2.51,0,0,0,2.65-2.55c0-1.84-.93-2.65-2.5-3.11L168.7,46c-2.55-1-3.66-2.31-3.66-4.81,0-3.18,2.19-4.95,5.44-4.95,4.49,0,5,2.8,5,4.61v.39h-2.79v-.36c0-1.6-.69-2.53-2.45-2.53a2.23,2.23,0,0,0-2.35,2.53c0,1.49.76,2.25,2.62,3l1.89.69c2.47.88,3.55,2.2,3.55,4.63,0,3.72-2.25,5.27-5.78,5.27-4.34,0-5.32-2.89-5.32-5.35v-.41Z" fill="#3b4351"/></g></g></svg>