<svg xmlns="http://www.w3.org/2000/svg" viewBox="0 0 1847.91 112"><title>ce0550text</title><g id="YEARS"><g id="Right"><path d="M1788.9,102.49h2.81v.5a2.35,2.35,0,0,0,2.42,2.6c2.08,0,2.63-2,2.63-4.19s-.58-3.93-2.47-3.93a2.35,2.35,0,0,0-2.42,1.69l-2.63-.1.91-9.65H1799v2.37h-6.66l-.6,4.84.06,0a4,4,0,0,1,3.09-1.43c3.85,0,4.81,3.25,4.81,6.08,0,3.69-1.69,6.5-5.67,6.5-3.3,0-5.15-1.69-5.15-4.94Z"/><path d="M1801.38,102.49h2.81v.5a2.35,2.35,0,0,0,2.42,2.6c2.08,0,2.63-2,2.63-4.19s-.58-3.93-2.47-3.93a2.35,2.35,0,0,0-2.42,1.69l-2.63-.1.91-9.65h8.87v2.37h-6.66l-.6,4.84.06,0a4,4,0,0,1,3.09-1.43c3.85,0,4.81,3.25,4.81,6.08,0,3.69-1.69,6.5-5.67,6.5-3.3,0-5.15-1.69-5.15-4.94Z"/><path d="M1819.27,89.05c3.54,0,5.51,2.21,5.51,9.39s-2,9.38-5.51,9.38-5.51-2.21-5.51-9.38S1815.73,89.05,1819.27,89.05Zm0,16.69c2,0,2.55-2,2.55-7.3s-.55-7.31-2.55-7.31-2.55,2-2.55,7.31S1817.27,105.74,1819.27,105.74Z"/></g><g id="left"><path d="M19.15,106.09H22v.5a2.36,2.36,0,0,0,2.42,2.6c2.08,0,2.63-2,2.63-4.19s-.58-3.93-2.47-3.93a2.35,2.35,0,0,0-2.42,1.69l-2.63-.1L20.4,93h8.87v2.37H22.61l-.6,4.83.06.06a4,4,0,0,1,3.09-1.43c3.85,0,4.81,3.25,4.81,6.08,0,3.69-1.69,6.5-5.67,6.5-3.3,0-5.15-1.69-5.15-4.94Z"/><path d="M31.63,106.09h2.81v.5a2.36,2.36,0,0,0,2.42,2.6c2.08,0,2.63-2,2.63-4.19s-.58-3.93-2.47-3.93a2.35,2.35,0,0,0-2.42,1.69l-2.63-.1L32.88,93h8.87v2.37H35.09l-.6,4.83.06.06a4,4,0,0,1,3.09-1.43c3.85,0,4.81,3.25,4.81,6.08,0,3.69-1.69,6.5-5.67,6.5-3.3,0-5.15-1.69-5.15-4.94Z"/><path d="M49.52,92.65c3.54,0,5.51,2.21,5.51,9.39s-2,9.38-5.51,9.38S44,109.21,44,102,46,92.65,49.52,92.65Zm0,16.69c2,0,2.55-2,2.55-7.3s-.55-7.31-2.55-7.31S47,96.71,47,102,47.52,109.34,49.52,109.34Z"/></g></g><g id="Text"><g id="Chinese"><path d="M1685.36,21.78v.37c0,3.16-1.3,6.25-5.39,6.25-4.41,0-5.78-2.84-5.78-9.09s1.37-9.1,5.81-9.1c5,0,5.27,3.66,5.27,5.5V16h-2.8v-.29c0-1.64-.49-3.48-2.5-3.41s-3,1.28-3,6.91.91,7.06,3,7.06c2.35,0,2.6-2.57,2.6-4.21v-.3Z" fill="#3b4351"/><path d="M1687.32,10.56h2.79v7h5.15v-7h2.79v17.5h-2.79V19.92h-5.15v8.14h-2.79Z" fill="#3b4351"/><path d="M1700.82,10.56h2.79v17.5h-2.79Z" fill="#3b4351"/><path d="M1706.38,10.56h3.41l5.07,13h.05v-13h2.65v17.5h-3.41l-5.07-13.38h0V28.06h-2.65Z" fill="#3b4351"/><path d="M1720.44,10.56h9.46v2.35h-6.66v4.85h6.27v2.36h-6.27V25.7h6.86v2.36h-9.66Z" fill="#3b4351"/><path d="M1734.39,22.64v.44c0,2.13.95,3.21,2.86,3.21a2.51,2.51,0,0,0,2.65-2.55c0-1.84-.93-2.64-2.5-3.11l-1.91-.66c-2.55-1-3.65-2.3-3.65-4.8,0-3.19,2.18-5,5.44-5,4.48,0,5,2.8,5,4.61v.39h-2.8v-.36c0-1.6-.68-2.53-2.45-2.53a2.23,2.23,0,0,0-2.35,2.53c0,1.49.76,2.25,2.62,3l1.89.69c2.47.88,3.55,2.2,3.55,4.63,0,3.72-2.25,5.27-5.78,5.27-4.34,0-5.32-2.89-5.32-5.34v-.42Z" fill="#3b4351"/><path d="M1744.94,10.56h9.46v2.35h-6.66v4.85H1754v2.36h-6.27V25.7h6.86v2.36h-9.66Z" fill="#3b4351"/></g><g id="Persians"><path d="M794.22,46.64v.44c0,2.13,1,3.21,2.87,3.21a2.5,2.5,0,0,0,2.64-2.55c0-1.84-.93-2.64-2.5-3.11L795.32,44c-2.55-1-3.65-2.3-3.65-4.8,0-3.19,2.18-5,5.44-5,4.49,0,4.95,2.79,4.95,4.6v.39h-2.79v-.36c0-1.6-.69-2.53-2.45-2.53a2.24,2.24,0,0,0-2.36,2.53c0,1.49.76,2.25,2.63,3l1.88.69c2.48.88,3.56,2.2,3.56,4.63,0,3.73-2.26,5.27-5.79,5.27-4.33,0-5.31-2.89-5.31-5.34v-.42Z" fill="#3b4351"/><path d="M813.26,49.31c0,.49.29.93.68.93a1,1,0,0,0,.44-.07v1.71a2.67,2.67,0,0,1-1.29.32c-1.18,0-2.16-.46-2.23-1.74h-.05a3.41,3.41,0,0,1-3.29,1.94c-2.13,0-3.43-1.15-3.43-3.7,0-2.94,1.3-3.56,3.06-4.14l2.06-.57c1-.27,1.55-.54,1.55-1.69s-.42-2-1.82-2c-1.76,0-2,1.25-2,2.53h-2.5c0-2.82,1.16-4.34,4.64-4.34,2.32,0,4.19.91,4.19,3.23Zm-2.5-4.21a21.66,21.66,0,0,1-2.94,1.22,2.17,2.17,0,0,0-1.08,2.13c0,1.11.54,2,1.64,2,1.59,0,2.38-1.18,2.38-3.14Z" fill="#3b4351"/><path d="M821.64,42.72v-.34c0-1.06-.37-2-1.75-2-1,0-1.88.47-1.88,1.72,0,1,.46,1.44,1.86,1.93l1.69.59c2,.66,2.87,1.72,2.87,3.8,0,2.82-2.08,4-4.73,4-3.33,0-4.34-1.54-4.34-4.09v-.49h2.35v.41c0,1.55.52,2.36,2.06,2.36s2.16-.74,2.16-1.94a1.91,1.91,0,0,0-1.45-1.94L818.33,46c-2-.66-2.82-1.69-2.82-3.79,0-2.48,1.76-3.63,4.51-3.63,3.36,0,4.11,2,4.11,3.6v.59Z" fill="#3b4351"/><path d="M832.07,42.72v-.34c0-1.06-.37-2-1.74-2-1.05,0-1.89.47-1.89,1.72,0,1,.47,1.44,1.87,1.93l1.69.59c2,.66,2.87,1.72,2.87,3.8,0,2.82-2.09,4-4.73,4-3.34,0-4.34-1.54-4.34-4.09v-.49h2.35v.41c0,1.55.52,2.36,2.06,2.36s2.16-.74,2.16-1.94a1.91,1.91,0,0,0-1.45-1.94L828.76,46c-2-.66-2.81-1.69-2.81-3.79,0-2.48,1.76-3.63,4.5-3.63,3.36,0,4.12,2,4.12,3.6v.59Z" fill="#3b4351"/><path d="M845.47,49.31c0,.49.3.93.69.93a1,1,0,0,0,.44-.07v1.71a2.71,2.71,0,0,1-1.3.32c-1.17,0-2.15-.46-2.23-1.74H843a3.4,3.4,0,0,1-3.28,1.94c-2.13,0-3.43-1.15-3.43-3.7,0-2.94,1.3-3.56,3.06-4.14l2.06-.57c1-.27,1.55-.54,1.55-1.69s-.42-2-1.82-2c-1.76,0-2,1.25-2,2.53h-2.5c0-2.82,1.15-4.34,4.63-4.34,2.33,0,4.19.91,4.19,3.23ZM843,45.1a21.79,21.79,0,0,1-3,1.22A2.16,2.16,0,0,0,839,48.45c0,1.11.53,2,1.64,2,1.59,0,2.38-1.18,2.38-3.14Z" fill="#3b4351"/><path d="M853.85,42.72v-.34c0-1.06-.37-2-1.74-2-1.05,0-1.88.47-1.88,1.72,0,1,.46,1.44,1.86,1.93l1.69.59c2,.66,2.87,1.72,2.87,3.8,0,2.82-2.09,4-4.73,4-3.34,0-4.34-1.54-4.34-4.09v-.49h2.35v.41c0,1.55.52,2.36,2.06,2.36s2.16-.74,2.16-1.94a1.91,1.91,0,0,0-1.45-1.94L850.54,46c-2-.66-2.81-1.69-2.81-3.79,0-2.48,1.76-3.63,4.5-3.63,3.36,0,4.12,2,4.12,3.6v.59Z" fill="#3b4351"/><path d="M858.73,34.36h2.64V37h-2.64Zm0,4.51h2.64V52.06h-2.64Z" fill="#3b4351"/><path d="M872.69,49.31c0,.49.3.93.69.93a1,1,0,0,0,.44-.07v1.71a2.71,2.71,0,0,1-1.3.32c-1.17,0-2.16-.46-2.23-1.74h0A3.4,3.4,0,0,1,867,52.4c-2.13,0-3.43-1.15-3.43-3.7,0-2.94,1.3-3.56,3.06-4.14l2.06-.57c1-.27,1.54-.54,1.54-1.69s-.41-2-1.81-2c-1.76,0-2,1.25-2,2.53h-2.5c0-2.82,1.15-4.34,4.63-4.34,2.33,0,4.19.91,4.19,3.23Zm-2.5-4.21a21.14,21.14,0,0,1-2.94,1.22,2.17,2.17,0,0,0-1.08,2.13c0,1.11.54,2,1.65,2,1.59,0,2.37-1.18,2.37-3.14Z" fill="#3b4351"/><path d="M875.39,38.87h2.5v1.55H878a3.77,3.77,0,0,1,3.38-1.89c2,0,3.28.91,3.28,3.58v10H882V43c0-1.76-.47-2.37-1.84-2.37-1.08,0-2.11.81-2.11,2.57v8.85h-2.64Z" fill="#3b4351"/><path d="M893.22,34.56h9.46v2.35H896v4.85h6.27v2.36H896V49.7h6.86v2.36h-9.66Z" fill="#3b4351"/><path d="M905,38.87h2.5v1.55h.07a3.68,3.68,0,0,1,3.16-1.89,2.86,2.86,0,0,1,3.06,2,3.6,3.6,0,0,1,3.34-2c1.86,0,3.21.95,3.21,3.5v10h-2.65V43c0-1.74-.51-2.37-1.59-2.37s-2.11.83-2.11,2.57v8.85H911.3V43c0-1.74-.51-2.37-1.61-2.37s-2.09.85-2.09,2.57v8.85H905Z" fill="#3b4351"/><path d="M928.65,52.4a3,3,0,0,1-3-1.89h0v5.86H923V38.87h2.5v1.62h0a3.13,3.13,0,0,1,3-2c3,0,4.24,2.57,4.24,7.1C932.72,51.17,930.49,52.4,928.65,52.4Zm-1-11.76c-1.81,0-2.23,1.83-2.23,4.68,0,3.16.4,5,2.26,5,1.49,0,2.2-1.13,2.2-4.78C929.92,42.52,929.56,40.64,927.69,40.64Z" fill="#3b4351"/><path d="M934.87,34.36h2.65V37h-2.65Zm0,4.51h2.65V52.06h-2.65Z" fill="#3b4351"/><path d="M940.19,38.87h2.64v2.06h0a3.26,3.26,0,0,1,3.07-2.4,1.36,1.36,0,0,1,.63.1v2.69a3.8,3.8,0,0,0-1.1-.14c-1.2,0-2.65.53-2.65,3v7.89h-2.64Z" fill="#3b4351"/><path d="M950,45.81v.76c0,1.76.22,4,2.2,4s2.11-2.14,2.11-3h2.5c0,3-1.77,4.76-4.63,4.76-2.16,0-4.83-.64-4.83-6.74,0-3.46.76-7.13,4.88-7.13,3.67,0,4.65,2.23,4.65,5.88v1.4ZM954.28,44v-.71c0-1.66-.54-2.94-2-2.94-1.67,0-2.2,1.67-2.2,3.38V44Z" fill="#3b4351"/></g><g id="Islam"><path d="M1119,10.56h3.57l4.61,17.5h-2.91l-1.08-4.29H1118l-1.13,4.29H1114Zm3.72,11-2-8.63h0l-2.08,8.63Z" fill="#3b4351"/><path d="M1128.2,14.87h2.65v2.06h.05a3.26,3.26,0,0,1,3.06-2.4,1.43,1.43,0,0,1,.64.1v2.69a3.91,3.91,0,0,0-1.1-.14c-1.21,0-2.65.53-2.65,3v7.89h-2.65Z" fill="#3b4351"/><path d="M1144.42,25.31c0,.49.3.93.69.93a1,1,0,0,0,.44-.07v1.71a2.71,2.71,0,0,1-1.3.32c-1.17,0-2.15-.46-2.23-1.74h0a3.4,3.4,0,0,1-3.28,1.94c-2.13,0-3.43-1.15-3.43-3.7,0-2.94,1.3-3.56,3.06-4.14l2.06-.57c1-.27,1.54-.54,1.54-1.69s-.41-2-1.81-2c-1.76,0-2,1.25-2,2.53h-2.5c0-2.82,1.15-4.34,4.63-4.34,2.33,0,4.19.91,4.19,3.23Zm-2.5-4.21a21.14,21.14,0,0,1-2.94,1.22,2.17,2.17,0,0,0-1.08,2.13c0,1.11.54,2,1.65,2,1.59,0,2.37-1.18,2.37-3.14Z" fill="#3b4351"/><path d="M1147.12,10.56h2.64v5.86h0a3,3,0,0,1,3-1.89c2,0,4.07.91,4.07,6.76,0,4.54-1.25,7.11-4.31,7.11a2.82,2.82,0,0,1-2.9-2h0v1.62h-2.5Zm4.73,15.73c1.86,0,2.23-1.89,2.23-4.88,0-3.55-.57-4.77-2.06-4.77-2.06,0-2.4,1.81-2.4,5C1149.62,24.45,1150,26.29,1151.85,26.29Z" fill="#3b4351"/><path d="M1164.59,18.72v-.34c0-1.06-.37-2-1.74-2-1.06,0-1.89.47-1.89,1.72,0,1.05.46,1.44,1.86,1.93l1.69.59c2,.66,2.87,1.72,2.87,3.8,0,2.82-2.08,4-4.73,4-3.33,0-4.34-1.54-4.34-4.09v-.49h2.35v.41c0,1.55.52,2.36,2.06,2.36s2.16-.74,2.16-1.94a1.91,1.91,0,0,0-1.45-1.94l-2.15-.76c-2-.66-2.82-1.69-2.82-3.79,0-2.48,1.76-3.63,4.51-3.63,3.36,0,4.11,2,4.11,3.6v.59Z" fill="#3b4351"/></g></g></svg>