<svg id="Text" xmlns="http://www.w3.org/2000/svg" viewBox="0 0 1847.91 112"><title>ce0550text</title><g id="Chinese"><path d="M1685.36,21.78v.37c0,3.16-1.3,6.25-5.39,6.25-4.41,0-5.78-2.84-5.78-9.09s1.37-9.1,5.81-9.1c5,0,5.27,3.66,5.27,5.5V16h-2.8v-.29c0-1.64-.49-3.48-2.5-3.41s-3,1.28-3,6.91.91,7.06,3,7.06c2.35,0,2.6-2.57,2.6-4.21v-.3Z"/><path d="M1687.32,10.56h2.79v7h5.15v-7h2.79v17.5h-2.79V19.92h-5.15v8.14h-2.79Z"/><path d="M1700.82,10.56h2.79v17.5h-2.79Z"/><path d="M1706.38,10.56h3.41l5.07,13h.05v-13h2.65v17.5h-3.41l-5.07-13.38h0V28.06h-2.65Z"/><path d="M1720.44,10.56h9.46v2.35h-6.66v4.85h6.27v2.36h-6.27V25.7h6.86v2.36h-9.66Z"/><path d="M1734.39,22.64v.44c0,2.13.95,3.21,2.86,3.21a2.51,2.51,0,0,0,2.65-2.55c0-1.84-.93-2.64-2.5-3.11l-1.91-.66c-2.55-1-3.65-2.3-3.65-4.8,0-3.19,2.18-5,5.44-5,4.48,0,5,2.8,5,4.61v.39h-2.8v-.36c0-1.6-.68-2.53-2.45-2.53a2.23,2.23,0,0,0-2.35,2.53c0,1.49.76,2.25,2.62,3l1.89.69c2.47.88,3.55,2.2,3.55,4.63,0,3.72-2.25,5.27-5.78,5.27-4.34,0-5.32-2.89-5.32-5.34v-.42Z"/><path d="M1744.94,10.56h9.46v2.35h-6.66v4.85H1754v2.36h-6.27V25.7h6.86v2.36h-9.66Z"/></g></svg>