<svg id="Text" xmlns="http://www.w3.org/2000/svg" viewBox="0 0 1847.91 115"><title>ce0500text</title><g id="Romans"><path d="M455.42,28.55h5.66c2.62,0,4.71,1.17,4.71,4.24q0,3.16-2.58,4v.05c1.91.34,3.14,1.49,3.14,4.46S464.24,46,461,46h-5.54Zm5,7.37A2.45,2.45,0,0,0,463,33.16c0-2.09-1.25-2.5-2.82-2.5h-2v5.26Zm.56,8c1.67,0,2.58-1.06,2.58-3.09a2.66,2.66,0,0,0-2.75-3h-2.6v6.06Z"/><path d="M470.17,32.86l2.28,9.9h.05l2.11-9.9h2.76l-3.62,13.68c-1.06,3.6-1.86,4.09-4.61,4a5.26,5.26,0,0,1-1.05-.09V48.35a3.53,3.53,0,0,0,.85.1c.91,0,1.5-.17,1.79-1l.35-1.08-3.75-13.48Z"/><path d="M478.18,44l5.76-8.9h-5.42V32.86h8.41V35l-5.54,8.78h5.54V46h-8.75Z"/><path d="M497.46,43.3c0,.49.3.93.69.93a1,1,0,0,0,.44-.07v1.71a2.83,2.83,0,0,1-1.3.32c-1.17,0-2.15-.46-2.23-1.74H495a3.4,3.4,0,0,1-3.28,1.94c-2.13,0-3.43-1.15-3.43-3.7,0-2.94,1.3-3.56,3.06-4.14l2.06-.57c1-.27,1.55-.54,1.55-1.69s-.42-2-1.82-2c-1.76,0-2,1.25-2,2.53h-2.5c0-2.82,1.15-4.34,4.63-4.34,2.33,0,4.19.9,4.19,3.23ZM495,39.09a21.79,21.79,0,0,1-3,1.22A2.16,2.16,0,0,0,491,42.44c0,1.11.54,2,1.64,2,1.59,0,2.38-1.18,2.38-3.14Z"/><path d="M500.16,32.86h2.5v1.55h.07a3.77,3.77,0,0,1,3.38-1.89c2,0,3.29.9,3.29,3.58V46h-2.65V37c0-1.76-.47-2.37-1.84-2.37-1.08,0-2.11.8-2.11,2.57V46h-2.64Z"/><path d="M510.77,32.86h1.81V29.11h2.65v3.75h2.15v2h-2.15v7.87c0,1.05.29,1.39,1.2,1.39a4.91,4.91,0,0,0,1-.07v2a8.44,8.44,0,0,1-2.13.22c-1.76,0-2.67-.51-2.67-3.18V34.82h-1.81Z"/><path d="M518.88,28.35h2.64V31h-2.64Zm0,4.51h2.64V46h-2.64Z"/><path d="M524.19,32.86h2.5v1.55h.07a3.8,3.8,0,0,1,3.39-1.89c2,0,3.28.9,3.28,3.58V46h-2.65V37c0-1.76-.46-2.37-1.83-2.37-1.08,0-2.11.8-2.11,2.57V46h-2.65Z"/><path d="M538.25,39.8v.76c0,1.76.23,4,2.21,4s2.11-2.14,2.11-2.95h2.5c0,3-1.77,4.76-4.63,4.76-2.16,0-4.83-.64-4.83-6.74,0-3.46.76-7.13,4.87-7.13,3.68,0,4.66,2.23,4.66,5.88v1.4ZM542.49,38v-.71c0-1.66-.54-2.94-2-2.94-1.67,0-2.21,1.67-2.21,3.38V38Z"/><path d="M553,36.71v-.34c0-1.06-.36-2-1.74-2-1,0-1.88.47-1.88,1.72,0,1.05.46,1.44,1.86,1.93l1.69.59c2,.66,2.87,1.72,2.87,3.8,0,2.82-2.09,4-4.73,4-3.33,0-4.34-1.55-4.34-4.09v-.49h2.35v.41c0,1.55.52,2.36,2.06,2.36s2.16-.74,2.16-1.94a1.91,1.91,0,0,0-1.45-1.94l-2.15-.76c-2-.66-2.82-1.69-2.82-3.8,0-2.47,1.76-3.62,4.51-3.62,3.35,0,4.11,2,4.11,3.6v.59Z"/></g><g id="Huns"><path d="M1377.73,77.25h2.79v7h5.15v-7h2.79v17.5h-2.79V86.61h-5.15v8.14h-2.79Z"/><path d="M1393.92,77.25V89.8c0,2.23.88,3.19,2.57,3.19s2.55-1,2.55-3.19V77.25h2.8V89.58c0,4-2,5.51-5.35,5.51s-5.36-1.47-5.36-5.51V77.25Z"/><path d="M1404.5,77.25h3.41l5.07,13h0v-13h2.65v17.5h-3.41l-5.07-13.38h0V94.75h-2.65Z"/><path d="M1420.72,89.33v.45c0,2.13,1,3.21,2.87,3.21a2.51,2.51,0,0,0,2.65-2.55c0-1.84-.93-2.65-2.5-3.11l-1.91-.67c-2.55-1-3.65-2.3-3.65-4.8,0-3.19,2.18-5,5.44-5,4.48,0,5,2.79,5,4.61v.39h-2.8v-.37c0-1.59-.68-2.52-2.45-2.52a2.23,2.23,0,0,0-2.35,2.52c0,1.5.76,2.26,2.62,3l1.89.68c2.47.89,3.55,2.21,3.55,4.63,0,3.73-2.25,5.27-5.78,5.27-4.34,0-5.32-2.89-5.32-5.34v-.42Z"/></g><g id="Teutons_-_Franks" data-name="Teutons - Franks"><path d="M93.73,39H89.56V36.63h11V39H96.52V54.12H93.73Z"/><path d="M102.2,36.63h9.46V39H105v4.85h6.27v2.35H105v5.59h6.86v2.35H102.2Z"/><path d="M116.56,36.63V49.17c0,2.23.88,3.19,2.57,3.19s2.55-1,2.55-3.19V36.63h2.79V49c0,4-2,5.52-5.34,5.52S113.77,53,113.77,49V36.63Z"/><path d="M130,39h-4.17V36.63H136.9V39h-4.1V54.12H130Z"/><path d="M137.33,45.37c0-6.24,1.77-9.09,5.79-9.09s5.78,2.85,5.78,9.09-1.76,9.1-5.78,9.1S137.33,51.62,137.33,45.37Zm8.78-.07c0-5.88-1.33-6.91-3-6.91s-3,1-3,6.91,1.32,7.06,3,7.06S146.11,51.31,146.11,45.3Z"/><path d="M151.37,36.63h3.41l5.07,13h.05v-13h2.65V54.12h-3.41l-5.07-13.38h0V54.12h-2.65Z"/><path d="M167.59,48.71v.44c0,2.13,1,3.21,2.87,3.21a2.51,2.51,0,0,0,2.65-2.55c0-1.84-.93-2.65-2.5-3.11L168.7,46c-2.55-1-3.66-2.31-3.66-4.81,0-3.18,2.19-4.95,5.44-4.95,4.49,0,5,2.8,5,4.61v.39h-2.79v-.36c0-1.6-.69-2.53-2.45-2.53a2.23,2.23,0,0,0-2.35,2.53c0,1.49.76,2.25,2.62,3l1.89.69c2.47.88,3.55,2.2,3.55,4.63,0,3.72-2.25,5.27-5.78,5.27-4.34,0-5.32-2.89-5.32-5.35v-.41Z"/></g></svg>