<svg xmlns="http://www.w3.org/2000/svg" viewBox="0 0 1847.91 112"><title>ce0550text</title><g id="YEARS"><g id="Right"><path d="M1794.19,103.05H1797v.5a2.35,2.35,0,0,0,2.42,2.6c2.08,0,2.62-2,2.62-4.19s-.57-3.93-2.47-3.93a2.36,2.36,0,0,0-2.42,1.69l-2.62-.1.91-9.65h8.86v2.37h-6.65l-.6,4.84,0,0a4.06,4.06,0,0,1,3.09-1.43c3.85,0,4.82,3.25,4.82,6.08,0,3.69-1.7,6.5-5.67,6.5-3.31,0-5.15-1.69-5.15-4.94Z" fill="#3b4351"/><path d="M1806.67,103.05h2.81v.5a2.35,2.35,0,0,0,2.41,2.6c2.09,0,2.63-2,2.63-4.19S1814,98,1812.05,98a2.36,2.36,0,0,0-2.42,1.69l-2.62-.1.91-9.65h8.86v2.37h-6.65l-.6,4.84,0,0a4.06,4.06,0,0,1,3.09-1.43c3.85,0,4.81,3.25,4.81,6.08,0,3.69-1.69,6.5-5.66,6.5-3.31,0-5.15-1.69-5.15-4.94Z" fill="#3b4351"/><path d="M1824.56,89.61c3.53,0,5.51,2.21,5.51,9.39s-2,9.38-5.51,9.38S1819,106.17,1819,99,1821,89.61,1824.56,89.61Zm0,16.69c2,0,2.54-2,2.54-7.3s-.54-7.31-2.54-7.31-2.55,2-2.55,7.31S1822.55,106.3,1824.56,106.3Z" fill="#3b4351"/></g><g id="left"><path d="M19.15,105H22v.49a2.35,2.35,0,0,0,2.42,2.6c2.08,0,2.63-2,2.63-4.18s-.58-3.93-2.47-3.93a2.35,2.35,0,0,0-2.42,1.69l-2.63-.1.91-9.65h8.87v2.37H22.61L22,99.08l.06,0a4,4,0,0,1,3.09-1.42C29,97.71,30,101,30,103.79c0,3.69-1.69,6.5-5.67,6.5-3.3,0-5.15-1.69-5.15-4.94Z" fill="#3b4351"/><path d="M31.63,105h2.81v.49a2.35,2.35,0,0,0,2.42,2.6c2.08,0,2.63-2,2.63-4.18s-.58-3.93-2.47-3.93a2.35,2.35,0,0,0-2.42,1.69l-2.63-.1.91-9.65h8.87v2.37H35.09l-.6,4.83.06,0a4,4,0,0,1,3.09-1.42c3.85,0,4.81,3.25,4.81,6.08,0,3.69-1.69,6.5-5.67,6.5-3.3,0-5.15-1.69-5.15-4.94Z" fill="#3b4351"/><path d="M49.52,91.52c3.54,0,5.51,2.21,5.51,9.38s-2,9.39-5.51,9.39S44,108.08,44,100.9,46,91.52,49.52,91.52Zm0,16.69c2,0,2.55-2,2.55-7.31s-.55-7.3-2.55-7.3-2.55,2-2.55,7.3S47.52,108.21,49.52,108.21Z" fill="#3b4351"/></g></g><g id="Nation_OUtlines" data-name="Nation OUtlines"><polygon id="Romans" points="854.62 2248.83 829.93 2135.83 711.95 2026.83 764.62 1912.83 729.95 1797.83 845.28 1686.83 1002.62 1574.83 1065.29 1460.83 1021.28 1349.83 995.34 1232.83 815.28 1124.83 703.28 1013.83 687.28 898.83 737.95 784.83 780.62 672.83 712.62 561.83 645.95 447.83 550.62 334.83 491.95 225 453.95 112 455.29 0 435.95 -115 470.62 -223 322.62 -223 416.12 -336 480.12 -446 410.62 -558 316.95 -672 248.28 -787 210.28 -898 175.95 -1009 159.62 -1125 91.28 -1238 83.12 -1343 117.62 -1457 151.37 -1571 129.62 -1681 109.62 -1796 99.62 -1908 73.12 -2018 75.42 -2916 85.95 -2806 95.28 -2694 111.95 -2582 116.62 -2471 137.95 -2358 149.95 -2242 169.95 -2130 205.28 -2018 231.95 -1908 287.74 -1796 467.73 -1681 683.72 -1571 998.71 -1457 1118.7 -1343 1131.14 -1238 1195.2 -1125 1182.62 -1009 1245.62 -898 1220.62 -787 1122.62 -672 981.62 -558 880.12 -446 717.95 -336 593.62 -223 616.62 -115 717.28 0 839.28 114.84 863.28 225 915.28 334.83 810.62 447.83 885.95 561.83 1037.95 672.83 1125.95 784.83 1253.95 898.83 1213.95 1013.83 1202.62 1124.83 1169.95 1232.83 1161.29 1349.83 1218.62 1460.83 1131.95 1574.83 936.62 1686.83 798.62 1797.83 819.28 1912.83 759.95 2026.83 849.28 2135.83 854.62 2248.83" fill="none" stroke="#3b4351" stroke-miterlimit="10"/><polygon id="Indians" points="1372.19 -3251.83 1294.19 -3366 1285.19 -3479 1313.69 -3590 1348.19 -3703 1310.69 -3817 1298.69 -3927 1313.69 -4039 1345.19 -4151 1325.69 -4265 1343.69 -4379 1417.19 -4490 1400.69 -4603.08 1429.19 -4716 1419.27 -4831.27 1387.19 -4943 1387.19 -5055 1438.19 -5165.5 1462.18 -5277.5 1480.18 -5390.54 1445.82 -5500.83 1411.11 -5612.83 1545.86 -5612.83 1580.1 -5500.83 1593.12 -5390.6 1552.12 -5277.5 1514.62 -5165.5 1514.12 -5055.33 1553.12 -4943.27 1548.12 -4831 1519.62 -4716 1534.12 -4602.33 1575.12 -4490 1559.62 -4379 1564.12 -4265.27 1534.62 -4151 1486.12 -4039 1465.12 -3927 1471.12 -3817.83 1502.12 -3703.83 1508.12 -3590 1534.62 -3479 1542.77 -3400.14 1555.62 -3251.83 1554.62 -3143 1567.12 -3031 1542.12 -2916.27 1498.12 -2806 1490.62 -2694 1513.12 -2582 1568.62 -2471 1544.12 -2358 1530.62 -2242.27 1523.62 -2130.27 1532.62 -2018 1565.12 -1908 1543.62 -1796 1514.12 -1681 1490.12 -1571.27 1495.62 -1457 1517.12 -1343.33 1528.12 -1238 1580.62 -1125.33 1578.12 -1009.33 1578.12 -898.83 1560.12 -787.27 1526.62 -672 1467.62 -558 1381.62 -446.27 1270.62 -336 1090.12 -223.27 860.62 -115 1302.12 0 1377.03 112 1550.62 225 1519.62 334.83 1476.12 447.83 1516.13 561.83 1534.62 674.17 1552.65 784.83 1585.62 898.73 1620.12 1013.83 1650.12 1124.83 1630.62 1232.73 1622.45 1349.73 1565.62 1460.83 1402.62 1574.17 1173.62 1686.83 1148.62 1797.83 1334.62 1912.83 1283.62 2026.83 1344.62 2135.83 1544.62 2248.83 1602.62 2363.17 1627.62 2474.83 1674.62 2587.73 1627.62 2702.83 1634.62 2814.83 1686.62 2926.83 1701.62 3039.83 1620.12 3151.83 1606.12 3262.83 1606.12 3376.66 1552.62 3376.66 1549.52 3262.83 1569.62 3151.83 1683.62 3039.83 1667.62 2926.83 1607.62 2814.83 1596.62 2702.17 1617.62 2587.83 1584.62 2474.83 1562.62 2362.83 1507.62 2248.83 1304.62 2135.73 1225.62 2026.73 1236.97 1989.78 1264.87 1912.83 1082.62 1797.83 1084.2 1687.34 1323.62 1574.83 1500.47 1460.73 1573.62 1349.83 1600.62 1232.83 1604.62 1124.83 1569.62 1013.83 1514.62 898.83 1447.62 784.73 1418.62 672.83 1404.62 561.83 1367.62 447.83 1397.62 334.83 1418.62 224.73 1339.62 111.73 1246.62 0 748.62 -115 753.62 -223 910.76 -336 1053.62 -446 1195.2 -558 1311.62 -672.83 1353.62 -787 1348.62 -898 1364.62 -1009.83 1406.62 -1125 1401.62 -1238 1429.62 -1343 1394.62 -1457.27 1393.2 -1571 1391.82 -1681.27 1437.52 -1796 1513.62 -1908.27 1505.64 -2018 1472.62 -2129.83 1447.62 -2242 1440.63 -2358 1462.62 -2471 1391.1 -2582 1348.62 -2694 1332.62 -2806 1376.98 -2916 1375.34 -3031.27 1373.74 -3143.27 1372.19 -3251.83" fill="none" stroke="#3b4351" stroke-miterlimit="10"/><polygon id="Huns" points="1555.62 -3251.83 1545.73 -3366 1533.62 -3479.33 1506.68 -3589.36 1502.16 -3703 1471.34 -3817 1465.12 -3927 1486.12 -4039 1534.62 -4151 1564.05 -4265 1559.62 -4379 1575.12 -4490 1534.24 -4602 1519.62 -4716 1548.12 -4831 1553.11 -4943 1514.47 -5055.27 1514.62 -5167.5 1552.12 -5277.5 1593.12 -5390.16 1580.1 -5500.83 1545.86 -5612.83 1633.99 -5612.83 1651.62 -5500.83 1667.62 -5390.16 1646.62 -5277.5 1620.62 -5165.5 1630.4 -5057.4 1650.62 -4943.33 1676.62 -4831 1700.12 -4716 1689.12 -4602 1714.62 -4490.33 1697.12 -4379.27 1645.62 -4265.27 1616.12 -4151 1586.62 -4039.27 1538.12 -3927.27 1509.12 -3817 1551.62 -3703 1585.12 -3590 1608.62 -3479.33 1609.69 -3366.27 1610.76 -3253.27 1613.62 -3143.27 1625.12 -3031.27 1599.12 -2915.33 1557.59 -2806 1545.65 -2694 1558.62 -2582 1584.62 -2471.27 1571.12 -2357.83 1576.62 -2242 1567.62 -2130 1587.12 -2018 1621.12 -1908 1612.12 -1796 1556.12 -1681 1528.62 -1571 1529.62 -1457 1553.62 -1343 1616.07 -1238 1609.25 -1125 1592.66 -1009 1611.01 -898.27 1612.12 -787 1598.04 -672 1564.12 -558 1534.29 -446 1602.12 -336.27 1653.62 -223 1673.62 -115 1666.12 0 1668.12 111.67 1625.62 224.67 1542.12 334.83 1476.12 447.83 1519.62 334.83 1550.62 225 1376.62 111.73 1302.12 0 860.62 -115 1090.12 -223.27 1270.62 -336 1381.62 -446.27 1467.62 -558 1526.62 -672 1560.12 -787.27 1578.12 -898.83 1578.12 -1009.33 1580.62 -1125.33 1528.12 -1238 1517.12 -1343.33 1495.62 -1457 1490.12 -1571.27 1514.12 -1681 1543.62 -1796 1565.12 -1908 1532.62 -2018 1523.62 -2130.27 1530.62 -2242.27 1544.12 -2358 1568.62 -2471 1513.12 -2582 1490.62 -2694 1498.12 -2806 1542.12 -2916.27 1567.12 -3031 1554.62 -3143 1555.62 -3251.83" fill="none" stroke="#3b4351" stroke-miterlimit="10"/><polygon id="Chinese" points="1610.76 -3253.27 1609.69 -3366.27 1608.62 -3479.33 1585.12 -3590 1551.62 -3703 1509.12 -3817 1538.12 -3927.27 1586.62 -4039.27 1616.12 -4151 1645.62 -4265.27 1697.12 -4379.27 1714.62 -4490.33 1689.12 -4602 1700.12 -4716 1676.62 -4831 1650.62 -4943.33 1630.62 -5055 1620.62 -5165.5 1646.62 -5277.5 1667.62 -5390.16 1651.62 -5500.83 1633.99 -5612.83 1768.79 -5612.83 1768.79 2587.83 1768.79 2702.73 1766.12 2814.83 1757.62 2926.83 1736.12 3039.73 1676.12 3151.73 1661.12 3262.83 1663.62 3376.66 1606.12 3376.66 1606.12 3262.73 1620.12 3151.83 1701.62 3039.83 1696.12 2926.67 1654.12 2814.83 1681.62 2702.83 1739.62 2587.73 1748.62 2474.67 1744.12 2362.67 1685.62 2248.83 1615.12 2138.17 1636.12 2026.83 1738.62 1912.83 1761.12 1797.83 1758.62 1686.83 1732.12 1574.83 1695.62 1460.83 1667.62 1349.83 1651.12 1232.83 1650.12 1124.83 1620.12 1013.83 1585.62 898.73 1552.62 784.73 1535.12 672.83 1516.12 561.73 1476.12 447.83 1542.12 334.83 1625.62 224.67 1668.12 111.67 1666.12 0 1673.62 -115 1653.62 -223 1602.12 -336.27 1534.12 -446.27 1564.12 -558 1598.12 -672.27 1612.12 -787 1611.01 -898.27 1592.62 -1009.27 1609.25 -1125 1616.07 -1238 1553.62 -1343 1529.62 -1457 1528.62 -1571.27 1555.62 -1681 1612.12 -1796 1621.12 -1908 1587.12 -2018 1567.62 -2130 1576.62 -2242 1571.12 -2358 1584.62 -2471.27 1558.62 -2582 1545.62 -2694.27 1557.62 -2806.27 1599.62 -2916 1625.12 -3031.27 1613.62 -3143.27 1610.76 -3253.27" fill="none" stroke="#3b4351" stroke-miterlimit="10"/><polygon id="Teutons_-_Franks" data-name="Teutons - Franks" points="600.62 784.83 277.29 784.83 235.95 672.83 189.95 561.83 180.62 447.83 142.62 334.83 139.95 225 120.62 112 99.95 0 73.12 -115 73.12 -558 101.12 -446 138.62 -333.58 168.12 -223 189.69 -115 192.12 0 257.62 112 298.12 225 333.12 334.83 392.87 447.83 712.62 561.83 676.62 672.83 600.62 784.83" fill="none" stroke="#3b4351" stroke-miterlimit="10"/><polygon id="Teutons_-Goths" data-name="Teutons -Goths" points="712.62 561.83 392.87 447.83 333.12 334.83 298.12 225 257.62 112 192.12 0 189.69 -115 168.12 -223 138.62 -333.58 101.12 -446 73.12 -555.33 73.12 -2018 99.62 -1908 109.62 -1796 129.3 -1678.61 151.37 -1571 117.62 -1457 83.12 -1343 91.28 -1238 159.62 -1125 175.95 -1009 210.28 -898 248.28 -787 316.95 -672 410.62 -558 480.12 -446 416.12 -336 322.62 -223 328.12 -115 455.29 0 453.95 112 425.12 225 461.12 334.83 536.62 447.83 712.62 561.83" fill="none" stroke="#3b4351" stroke-miterlimit="10"/><polygon id="Denmark" points="916.62 3376.66 927.62 3376.66 926.37 3262.83 701.12 3151.83 690.87 3039.83 683.87 2926.83 637.87 2814.83 522.37 2702.83 457.37 2587.83 426.62 2474.83 299.62 2362.83 273.62 2248.83 281.62 2135.83 289.12 2026.83 302.12 1912.83 296.87 1797.83 275.62 1686.83 253.62 1574.83 226.62 1460.83 210.62 1349.83 199.62 1124.83 199.37 1013.83 291.37 898.83 277.29 784.83 235.95 672.83 188.87 561.83 180.62 447.83 142.62 334.83 139.95 225 120.62 112 99.95 0 73.12 -115 90.34 0 107.12 112 118.37 225 120.37 334.83 122.62 447.83 125.87 561.83 158.37 672.83 185.87 784.83 183.62 898.83 127.62 1013.83 119.62 1124.83 119.12 1232.83 156.87 1349.83 188.62 1460.83 212.62 1574.83 252.37 1686.83 277.87 1797.83 283.37 1912.83 267.12 2026.83 248.87 2135.83 213.87 2248.83 234.37 2362.83 312.12 2474.83 398.12 2587.83 458.87 2702.83 593.37 2814.83 637.87 2926.83 674.12 3039.83 691.37 3151.83 915.37 3262.83 916.62 3376.66" fill="none" stroke="#3b4351" stroke-miterlimit="10"/><polygon id="Norway" points="213.87 2248.83 222.62 2135.83 243.95 2026.83 258.95 1912.83 252.95 1797.83 220.95 1686.83 186.86 1574.83 160.95 1460.83 133.28 1349.83 96.28 1232.83 84.28 1124.83 89.28 1013.83 120.28 898.83 98.62 784.83 94.28 672.83 91.95 561.83 95.28 447.83 99.62 334.83 96.58 225 93.44 112 90.34 0 107.12 112 118.37 225 120.37 334.83 122.62 447.83 125.87 561.83 158.37 672.83 185.87 784.83 183.62 898.83 127.62 1013.83 119.62 1124.83 119.12 1232.83 156.87 1349.83 188.62 1460.83 212.62 1574.83 252.37 1686.83 277.87 1797.83 283.37 1912.83 267.12 2026.83 248.87 2135.83 213.87 2248.83" fill="none" stroke="#3b4351" stroke-miterlimit="10"/><polygon id="England" points="874.62 3376.66 688.95 3376.66 687.95 3262.83 439.12 3151.83 252.12 3039.83 159.62 2926.83 111.62 2814.83 93.62 2702.83 86.12 2587.83 84.62 2474.83 86.95 2362.83 98.28 2248.83 116.95 2135.83 114.62 2026.83 122.62 1912.83 120.62 1797.83 108.28 1686.83 100.16 1574.83 107.95 1460.83 107.95 1349.83 77.28 1232.83 73.12 -115 90.34 0 93.44 112 96.58 225 99.62 334.83 91.95 561.83 94.28 672.83 98.62 784.83 120.28 898.83 89.28 1013.83 84.28 1124.83 96.28 1232.83 133.28 1349.83 160.95 1460.83 172.95 1574.83 208.95 1686.83 223.62 1797.83 228.28 1912.83 211.62 2026.83 201.62 2135.83 189.95 2248.83 193.28 2362.83 235.28 2474.83 248.62 2587.83 348.62 2702.83 562.62 2814.83 622.12 2926.83 602.12 3039.83 652.12 3151.83 872.95 3262.83 874.62 3376.66" fill="none" stroke="#3b4351" stroke-miterlimit="10"/><polygon points="435.95 -115 455.29 0 328.12 -115 322.62 -223 470.62 -223 435.95 -115" fill="none" stroke="#3b4351" stroke-miterlimit="10"/><polygon points="1076.62 113.42 1106.62 225.63 997.62 334.83 810.62 447.83 915.28 334.83 863.28 225 839.28 114.84 717.28 0 616.62 -115 748.62 -115 1022.62 0 1076.62 113.42" fill="none" stroke="#3b4351" stroke-miterlimit="10"/><polygon id="Islam" points="1239.87 225.5 1106.62 225.63 1076.62 113.42 1022.62 0 748.62 -115 1246.62 0 1339.62 111.73 1418.62 224.73 1239.87 225.5" fill="none" stroke="#3b4351" stroke-miterlimit="10"/><polygon id="Lombard" points="536.62 447.83 461.12 334.83 425.12 225 453.95 112 491.95 225 550.62 334.83 645.95 447.83 712.62 561.83 536.62 447.83" fill="none" stroke="#3b4351" stroke-miterlimit="10"/></g><g id="Text"><g id="Chinese-2" data-name="Chinese"><path d="M1685.36,21.78v.37c0,3.16-1.3,6.25-5.39,6.25-4.41,0-5.78-2.84-5.78-9.09s1.37-9.1,5.81-9.1c5,0,5.27,3.66,5.27,5.5V16h-2.8v-.29c0-1.64-.49-3.48-2.5-3.41s-3,1.28-3,6.91.91,7.06,3,7.06c2.35,0,2.6-2.57,2.6-4.21v-.3Z" fill="#3b4351"/><path d="M1687.32,10.56h2.79v7h5.15v-7h2.79v17.5h-2.79V19.92h-5.15v8.14h-2.79Z" fill="#3b4351"/><path d="M1700.82,10.56h2.79v17.5h-2.79Z" fill="#3b4351"/><path d="M1706.38,10.56h3.41l5.07,13h.05v-13h2.65v17.5h-3.41l-5.07-13.38h0V28.06h-2.65Z" fill="#3b4351"/><path d="M1720.44,10.56h9.46v2.35h-6.66v4.85h6.27v2.36h-6.27V25.7h6.86v2.36h-9.66Z" fill="#3b4351"/><path d="M1734.39,22.64v.44c0,2.13.95,3.21,2.86,3.21a2.51,2.51,0,0,0,2.65-2.55c0-1.84-.93-2.64-2.5-3.11l-1.91-.66c-2.55-1-3.65-2.3-3.65-4.8,0-3.19,2.18-5,5.44-5,4.48,0,5,2.8,5,4.61v.39h-2.8v-.36c0-1.6-.68-2.53-2.45-2.53a2.23,2.23,0,0,0-2.35,2.53c0,1.49.76,2.25,2.62,3l1.89.69c2.47.88,3.55,2.2,3.55,4.63,0,3.72-2.25,5.27-5.78,5.27-4.34,0-5.32-2.89-5.32-5.34v-.42Z" fill="#3b4351"/><path d="M1744.94,10.56h9.46v2.35h-6.66v4.85H1754v2.36h-6.27V25.7h6.86v2.36h-9.66Z" fill="#3b4351"/></g><g id="Persians"><path d="M794.22,46.64v.44c0,2.13,1,3.21,2.87,3.21a2.5,2.5,0,0,0,2.64-2.55c0-1.84-.93-2.64-2.5-3.11L795.32,44c-2.55-1-3.65-2.3-3.65-4.8,0-3.19,2.18-5,5.44-5,4.49,0,4.95,2.79,4.95,4.6v.39h-2.79v-.36c0-1.6-.69-2.53-2.45-2.53a2.24,2.24,0,0,0-2.36,2.53c0,1.49.76,2.25,2.63,3l1.88.69c2.48.88,3.56,2.2,3.56,4.63,0,3.73-2.26,5.27-5.79,5.27-4.33,0-5.31-2.89-5.31-5.34v-.42Z" fill="#3b4351"/><path d="M813.26,49.31c0,.49.29.93.68.93a1,1,0,0,0,.44-.07v1.71a2.67,2.67,0,0,1-1.29.32c-1.18,0-2.16-.46-2.23-1.74h-.05a3.41,3.41,0,0,1-3.29,1.94c-2.13,0-3.43-1.15-3.43-3.7,0-2.94,1.3-3.56,3.06-4.14l2.06-.57c1-.27,1.55-.54,1.55-1.69s-.42-2-1.82-2c-1.76,0-2,1.25-2,2.53h-2.5c0-2.82,1.16-4.34,4.64-4.34,2.32,0,4.19.91,4.19,3.23Zm-2.5-4.21a21.66,21.66,0,0,1-2.94,1.22,2.17,2.17,0,0,0-1.08,2.13c0,1.11.54,2,1.64,2,1.59,0,2.38-1.18,2.38-3.14Z" fill="#3b4351"/><path d="M821.64,42.72v-.34c0-1.06-.37-2-1.75-2-1,0-1.88.47-1.88,1.72,0,1,.46,1.44,1.86,1.93l1.69.59c2,.66,2.87,1.72,2.87,3.8,0,2.82-2.08,4-4.73,4-3.33,0-4.34-1.54-4.34-4.09v-.49h2.35v.41c0,1.55.52,2.36,2.06,2.36s2.16-.74,2.16-1.94a1.91,1.91,0,0,0-1.45-1.94L818.33,46c-2-.66-2.82-1.69-2.82-3.79,0-2.48,1.76-3.63,4.51-3.63,3.36,0,4.11,2,4.11,3.6v.59Z" fill="#3b4351"/><path d="M832.07,42.72v-.34c0-1.06-.37-2-1.74-2-1.05,0-1.89.47-1.89,1.72,0,1,.47,1.44,1.87,1.93l1.69.59c2,.66,2.87,1.72,2.87,3.8,0,2.82-2.09,4-4.73,4-3.34,0-4.34-1.54-4.34-4.09v-.49h2.35v.41c0,1.55.52,2.36,2.06,2.36s2.16-.74,2.16-1.94a1.91,1.91,0,0,0-1.45-1.94L828.76,46c-2-.66-2.81-1.69-2.81-3.79,0-2.48,1.76-3.63,4.5-3.63,3.36,0,4.12,2,4.12,3.6v.59Z" fill="#3b4351"/><path d="M845.47,49.31c0,.49.3.93.69.93a1,1,0,0,0,.44-.07v1.71a2.71,2.71,0,0,1-1.3.32c-1.17,0-2.15-.46-2.23-1.74H843a3.4,3.4,0,0,1-3.28,1.94c-2.13,0-3.43-1.15-3.43-3.7,0-2.94,1.3-3.56,3.06-4.14l2.06-.57c1-.27,1.55-.54,1.55-1.69s-.42-2-1.82-2c-1.76,0-2,1.25-2,2.53h-2.5c0-2.82,1.15-4.34,4.63-4.34,2.33,0,4.19.91,4.19,3.23ZM843,45.1a21.79,21.79,0,0,1-3,1.22A2.16,2.16,0,0,0,839,48.45c0,1.11.53,2,1.64,2,1.59,0,2.38-1.18,2.38-3.14Z" fill="#3b4351"/><path d="M853.85,42.72v-.34c0-1.06-.37-2-1.74-2-1.05,0-1.88.47-1.88,1.72,0,1,.46,1.44,1.86,1.93l1.69.59c2,.66,2.87,1.72,2.87,3.8,0,2.82-2.09,4-4.73,4-3.34,0-4.34-1.54-4.34-4.09v-.49h2.35v.41c0,1.55.52,2.36,2.06,2.36s2.16-.74,2.16-1.94a1.91,1.91,0,0,0-1.45-1.94L850.54,46c-2-.66-2.81-1.69-2.81-3.79,0-2.48,1.76-3.63,4.5-3.63,3.36,0,4.12,2,4.12,3.6v.59Z" fill="#3b4351"/><path d="M858.73,34.36h2.64V37h-2.64Zm0,4.51h2.64V52.06h-2.64Z" fill="#3b4351"/><path d="M872.69,49.31c0,.49.3.93.69.93a1,1,0,0,0,.44-.07v1.71a2.71,2.71,0,0,1-1.3.32c-1.17,0-2.16-.46-2.23-1.74h0A3.4,3.4,0,0,1,867,52.4c-2.13,0-3.43-1.15-3.43-3.7,0-2.94,1.3-3.56,3.06-4.14l2.06-.57c1-.27,1.54-.54,1.54-1.69s-.41-2-1.81-2c-1.76,0-2,1.25-2,2.53h-2.5c0-2.82,1.15-4.34,4.63-4.34,2.33,0,4.19.91,4.19,3.23Zm-2.5-4.21a21.14,21.14,0,0,1-2.94,1.22,2.17,2.17,0,0,0-1.08,2.13c0,1.11.54,2,1.65,2,1.59,0,2.37-1.18,2.37-3.14Z" fill="#3b4351"/><path d="M875.39,38.87h2.5v1.55H878a3.77,3.77,0,0,1,3.38-1.89c2,0,3.28.91,3.28,3.58v10H882V43c0-1.76-.47-2.37-1.84-2.37-1.08,0-2.11.81-2.11,2.57v8.85h-2.64Z" fill="#3b4351"/><path d="M893.22,34.56h9.46v2.35H896v4.85h6.27v2.36H896V49.7h6.86v2.36h-9.66Z" fill="#3b4351"/><path d="M905,38.87h2.5v1.55h.07a3.68,3.68,0,0,1,3.16-1.89,2.86,2.86,0,0,1,3.06,2,3.6,3.6,0,0,1,3.34-2c1.86,0,3.21.95,3.21,3.5v10h-2.65V43c0-1.74-.51-2.37-1.59-2.37s-2.11.83-2.11,2.57v8.85H911.3V43c0-1.74-.51-2.37-1.61-2.37s-2.09.85-2.09,2.57v8.85H905Z" fill="#3b4351"/><path d="M928.65,52.4a3,3,0,0,1-3-1.89h0v5.86H923V38.87h2.5v1.62h0a3.13,3.13,0,0,1,3-2c3,0,4.24,2.57,4.24,7.1C932.72,51.17,930.49,52.4,928.65,52.4Zm-1-11.76c-1.81,0-2.23,1.83-2.23,4.68,0,3.16.4,5,2.26,5,1.49,0,2.2-1.13,2.2-4.78C929.92,42.52,929.56,40.64,927.69,40.64Z" fill="#3b4351"/><path d="M934.87,34.36h2.65V37h-2.65Zm0,4.51h2.65V52.06h-2.65Z" fill="#3b4351"/><path d="M940.19,38.87h2.64v2.06h0a3.26,3.26,0,0,1,3.07-2.4,1.36,1.36,0,0,1,.63.1v2.69a3.8,3.8,0,0,0-1.1-.14c-1.2,0-2.65.53-2.65,3v7.89h-2.64Z" fill="#3b4351"/><path d="M950,45.81v.76c0,1.76.22,4,2.2,4s2.11-2.14,2.11-3h2.5c0,3-1.77,4.76-4.63,4.76-2.16,0-4.83-.64-4.83-6.74,0-3.46.76-7.13,4.88-7.13,3.67,0,4.65,2.23,4.65,5.88v1.4ZM954.28,44v-.71c0-1.66-.54-2.94-2-2.94-1.67,0-2.2,1.67-2.2,3.38V44Z" fill="#3b4351"/></g><g id="Islam-2" data-name="Islam"><path d="M1119,10.56h3.57l4.61,17.5h-2.91l-1.08-4.29H1118l-1.13,4.29H1114Zm3.72,11-2-8.63h0l-2.08,8.63Z" fill="#3b4351"/><path d="M1128.2,14.87h2.65v2.06h.05a3.26,3.26,0,0,1,3.06-2.4,1.43,1.43,0,0,1,.64.1v2.69a3.91,3.91,0,0,0-1.1-.14c-1.21,0-2.65.53-2.65,3v7.89h-2.65Z" fill="#3b4351"/><path d="M1144.42,25.31c0,.49.3.93.69.93a1,1,0,0,0,.44-.07v1.71a2.71,2.71,0,0,1-1.3.32c-1.17,0-2.15-.46-2.23-1.74h0a3.4,3.4,0,0,1-3.28,1.94c-2.13,0-3.43-1.15-3.43-3.7,0-2.94,1.3-3.56,3.06-4.14l2.06-.57c1-.27,1.54-.54,1.54-1.69s-.41-2-1.81-2c-1.76,0-2,1.25-2,2.53h-2.5c0-2.82,1.15-4.34,4.63-4.34,2.33,0,4.19.91,4.19,3.23Zm-2.5-4.21a21.14,21.14,0,0,1-2.94,1.22,2.17,2.17,0,0,0-1.08,2.13c0,1.11.54,2,1.65,2,1.59,0,2.37-1.18,2.37-3.14Z" fill="#3b4351"/><path d="M1147.12,10.56h2.64v5.86h0a3,3,0,0,1,3-1.89c2,0,4.07.91,4.07,6.76,0,4.54-1.25,7.11-4.31,7.11a2.82,2.82,0,0,1-2.9-2h0v1.62h-2.5Zm4.73,15.73c1.86,0,2.23-1.89,2.23-4.88,0-3.55-.57-4.77-2.06-4.77-2.06,0-2.4,1.81-2.4,5C1149.62,24.45,1150,26.29,1151.85,26.29Z" fill="#3b4351"/><path d="M1164.59,18.72v-.34c0-1.06-.37-2-1.74-2-1.06,0-1.89.47-1.89,1.72,0,1.05.46,1.44,1.86,1.93l1.69.59c2,.66,2.87,1.72,2.87,3.8,0,2.82-2.08,4-4.73,4-3.33,0-4.34-1.54-4.34-4.09v-.49h2.35v.41c0,1.55.52,2.36,2.06,2.36s2.16-.74,2.16-1.94a1.91,1.91,0,0,0-1.45-1.94l-2.15-.76c-2-.66-2.82-1.69-2.82-3.79,0-2.48,1.76-3.63,4.51-3.63,3.36,0,4.11,2,4.11,3.6v.59Z" fill="#3b4351"/></g></g></svg>