<svg id="Text" xmlns="http://www.w3.org/2000/svg" viewBox="0 0 1847.91 115"><title>ce0500text</title><g id="Huns"><path d="M1377.73,77.25h2.79v7h5.15v-7h2.79v17.5h-2.79V86.61h-5.15v8.14h-2.79Z"/><path d="M1393.92,77.25V89.8c0,2.23.88,3.19,2.57,3.19s2.55-1,2.55-3.19V77.25h2.8V89.58c0,4-2,5.51-5.35,5.51s-5.36-1.47-5.36-5.51V77.25Z"/><path d="M1404.5,77.25h3.41l5.07,13h0v-13h2.65v17.5h-3.41l-5.07-13.38h0V94.75h-2.65Z"/><path d="M1420.72,89.33v.45c0,2.13,1,3.21,2.87,3.21a2.51,2.51,0,0,0,2.65-2.55c0-1.84-.93-2.65-2.5-3.11l-1.91-.67c-2.55-1-3.65-2.3-3.65-4.8,0-3.19,2.18-5,5.44-5,4.48,0,5,2.79,5,4.61v.39h-2.8v-.37c0-1.59-.68-2.52-2.45-2.52a2.23,2.23,0,0,0-2.35,2.52c0,1.5.76,2.26,2.62,3l1.89.68c2.47.89,3.55,2.21,3.55,4.63,0,3.73-2.25,5.27-5.78,5.27-4.34,0-5.32-2.89-5.32-5.34v-.42Z"/></g></svg>