<svg id="Text" xmlns="http://www.w3.org/2000/svg" viewBox="0 0 1847.91 109.83"><title>ce0650text</title><g id="Chinese"><path d="M1639.15,23.31v.44c0,2.13.95,3.21,2.86,3.21a2.51,2.51,0,0,0,2.65-2.55c0-1.84-.93-2.65-2.5-3.11l-1.91-.67c-2.55-1-3.65-2.3-3.65-4.8,0-3.18,2.18-4.95,5.44-4.95,4.48,0,5,2.8,5,4.61v.39h-2.8v-.37c0-1.59-.68-2.52-2.45-2.52a2.23,2.23,0,0,0-2.35,2.52c0,1.5.76,2.26,2.62,3l1.89.69c2.48.88,3.55,2.2,3.55,4.63,0,3.72-2.25,5.26-5.78,5.26-4.34,0-5.32-2.89-5.32-5.34v-.41Z"/><path d="M1656.27,27.18h-.07a3.78,3.78,0,0,1-3.38,1.88c-2,0-3.29-.9-3.29-4.31V15.54h2.65V25c0,1.47.64,2,1.79,2a2.06,2.06,0,0,0,2.16-2.21V15.54h2.64V28.72h-2.5Z"/><path d="M1663.08,15.54l2.28,9.9h.05l2.11-9.9h2.77l-3.63,13.67c-1.05,3.6-1.86,4.09-4.61,4a4.73,4.73,0,0,1-1-.1V31a3.54,3.54,0,0,0,.86.09c.9,0,1.49-.17,1.79-1L1664,29l-3.75-13.48Z"/><path d="M1677.81,11.22h5c5.49,0,6.18,3.58,6.18,8.75s-.69,8.75-6.18,8.75h-5Zm2.79,15.39h2.3c2.31,0,3.26-1.51,3.26-6.64,0-4.92-.83-6.64-3.26-6.64h-2.3Z"/><path d="M1693,15.54l2.28,9.9h0l2.11-9.9h2.77l-3.63,13.67c-1,3.6-1.86,4.09-4.61,4a4.73,4.73,0,0,1-1-.1V31a3.54,3.54,0,0,0,.86.09c.9,0,1.49-.17,1.79-1l.34-1.07-3.75-13.48Z"/><path d="M1701.69,15.54h2.5v1.54h.08a3.78,3.78,0,0,1,3.38-1.88c2,0,3.28.9,3.28,3.57v10h-2.64v-9c0-1.76-.47-2.38-1.84-2.38-1.08,0-2.11.81-2.11,2.57v8.85h-2.65Z"/><path d="M1722.13,26c0,.49.29.93.68.93a1,1,0,0,0,.45-.08v1.72a2.86,2.86,0,0,1-1.3.32c-1.18,0-2.16-.47-2.23-1.74h0a3.41,3.41,0,0,1-3.29,1.93c-2.13,0-3.43-1.15-3.43-3.69,0-2.95,1.3-3.56,3.07-4.15l2.06-.56c1-.27,1.54-.54,1.54-1.69s-.42-2-1.81-2c-1.77,0-2,1.25-2,2.52h-2.5c0-2.82,1.15-4.33,4.63-4.33,2.33,0,4.19.9,4.19,3.23Zm-2.5-4.22a20.5,20.5,0,0,1-2.94,1.23,2.17,2.17,0,0,0-1.08,2.13c0,1.1.54,2,1.64,2,1.6,0,2.38-1.17,2.38-3.13Z"/><path d="M1730.51,19.38V19c0-1.05-.37-2-1.74-2-1.06,0-1.89.46-1.89,1.71,0,1.06.47,1.45,1.86,1.94l1.69.59c2,.66,2.87,1.71,2.87,3.8,0,2.81-2.08,4-4.73,4-3.33,0-4.34-1.54-4.34-4.09v-.49h2.36v.42c0,1.54.51,2.35,2.05,2.35s2.16-.73,2.16-1.93a1.91,1.91,0,0,0-1.45-1.94l-2.15-.76c-2-.66-2.82-1.69-2.82-3.8,0-2.47,1.76-3.62,4.51-3.62,3.36,0,4.12,2,4.12,3.6v.58Z"/><path d="M1734.08,15.54h1.82V11.79h2.64v3.75h2.16v2h-2.16v7.87c0,1.05.3,1.39,1.2,1.39a5,5,0,0,0,1-.07v2a9,9,0,0,1-2.13.22c-1.77,0-2.67-.52-2.67-3.19V17.5h-1.82Z"/><path d="M1743.83,15.54l2.28,9.9h.05l2.11-9.9H1751l-3.63,13.67c-1.05,3.6-1.86,4.09-4.6,4a4.76,4.76,0,0,1-1.06-.1V31a3.59,3.59,0,0,0,.86.09c.91,0,1.49-.17,1.79-1l.34-1.07L1741,15.54Z"/></g><g id="Teutons_-_goths" data-name="Teutons - goths"><path d="M338.78,69.83h3l3,14h.05l3.14-14h3l-4.41,17.5H342.9Z"/><path d="M352.11,69.64h2.65v2.64h-2.65Zm0,4.51h2.65V87.33h-2.65Z"/><path d="M363.11,78v-.34c0-1.05-.37-2-1.74-2-1.05,0-1.89.46-1.89,1.71,0,1,.47,1.45,1.87,1.94l1.69.59c2,.66,2.86,1.71,2.86,3.79,0,2.82-2.08,4-4.73,4-3.33,0-4.33-1.54-4.33-4.09v-.49h2.35v.42c0,1.54.51,2.35,2.06,2.35s2.15-.74,2.15-1.94A1.91,1.91,0,0,0,362,82l-2.16-.76c-2-.66-2.82-1.69-2.82-3.8,0-2.48,1.77-3.63,4.51-3.63,3.36,0,4.12,2,4.12,3.6V78Z"/><path d="M368,69.64h2.65v2.64H368Zm0,4.51h2.65V87.33H368Z"/><path d="M373.13,79h6.42v2.5h-6.42Z"/><path d="M390.75,85.3h-.05a3.64,3.64,0,0,1-3.83,2.37c-3.82,0-5.19-2.84-5.19-9.09s1.76-9.09,5.81-9.09a4.77,4.77,0,0,1,5.12,5.05v.32H390v-.42c0-1.3-.54-2.84-2.45-2.84s-3,1.32-3,6.91.93,7.06,2.82,7.06c2.13,0,2.92-1.52,2.92-5.35h-2.94v-2.1h5.58v9.21h-2.1Z"/><path d="M394.57,80.74c0-4.12,1.07-6.94,4.9-6.94s4.92,2.82,4.92,6.94-1.27,6.93-4.92,6.93S394.57,84.85,394.57,80.74Zm4.9,5c1.93,0,2.28-1.62,2.28-5,0-2.92-.35-5-2.28-5s-2.26,2.06-2.26,5C397.21,84.09,397.58,85.71,399.47,85.71Z"/><path d="M405.25,74.15h1.81V70.4h2.65v3.75h2.15v2h-2.15V84c0,1.06.29,1.4,1.2,1.4a5.87,5.87,0,0,0,.95-.07v2a8.93,8.93,0,0,1-2.13.22c-1.76,0-2.67-.52-2.67-3.19V76.11h-1.81Z"/><path d="M413.23,69.83h2.65v5.74l.07.05a3.76,3.76,0,0,1,3.24-1.82c2,0,3.28.91,3.28,3.58v10h-2.64v-9c0-1.74-.49-2.38-1.84-2.38-1.08,0-2.11.83-2.11,2.57v8.85h-2.65Z"/><path d="M430.7,78v-.34c0-1.05-.36-2-1.74-2-1,0-1.88.46-1.88,1.71,0,1,.46,1.45,1.86,1.94l1.69.59c2,.66,2.87,1.71,2.87,3.79,0,2.82-2.09,4-4.73,4-3.34,0-4.34-1.54-4.34-4.09v-.49h2.35v.42c0,1.54.52,2.35,2.06,2.35s2.16-.74,2.16-1.94A1.91,1.91,0,0,0,429.55,82l-2.15-.76c-2-.66-2.82-1.69-2.82-3.8,0-2.48,1.76-3.63,4.51-3.63,3.35,0,4.11,2,4.11,3.6V78Z"/></g></svg>