<svg xmlns="http://www.w3.org/2000/svg" viewBox="0 0 1847.91 113"><title>ce0600text</title><g id="YEARS"><g id="Right"><path d="M1801.89,94.57c0-1.06-.52-2.39-2-2.39-2.78,0-2.94,3.64-2.94,6.34l.08.06a3.77,3.77,0,0,1,3.59-2c2.52,0,4.55,1.82,4.55,5.48,0,4.24-1.77,6.76-5.64,6.76-4.66,0-5.54-3.53-5.54-8.81,0-5.51,1-10,5.87-10,3.25,0,5,1.43,5,4.47Zm-2.11,12.22c1.79,0,2.44-1.79,2.44-4,0-2.57-.75-4-2.44-4-2.18,0-2.55,1.9-2.55,4.11S1798,106.79,1799.78,106.79Z" fill="#3b4351"/><path d="M1812.08,90.1c3.53,0,5.51,2.21,5.51,9.39s-2,9.38-5.51,9.38-5.52-2.21-5.52-9.38S1808.54,90.1,1812.08,90.1Zm0,16.69c2,0,2.54-2,2.54-7.3s-.54-7.31-2.54-7.31-2.55,2-2.55,7.31S1810.07,106.79,1812.08,106.79Z" fill="#3b4351"/><path d="M1824.56,90.1c3.53,0,5.51,2.21,5.51,9.39s-2,9.38-5.51,9.38-5.52-2.21-5.52-9.38S1821,90.1,1824.56,90.1Zm0,16.69c2,0,2.54-2,2.54-7.3s-.54-7.31-2.54-7.31-2.55,2-2.55,7.31S1822.55,106.79,1824.56,106.79Z" fill="#3b4351"/></g><g id="left"><path d="M26.85,96.48c0-1.07-.52-2.39-2-2.39-2.78,0-2.93,3.64-2.93,6.34l.07,0a3.79,3.79,0,0,1,3.59-2c2.52,0,4.55,1.82,4.55,5.49,0,4.24-1.77,6.76-5.64,6.76-4.65,0-5.54-3.54-5.54-8.82C19,96.45,20,92,24.85,92c3.25,0,5,1.43,5,4.47ZM24.74,108.7c1.8,0,2.45-1.79,2.45-4,0-2.58-.76-4-2.45-4-2.18,0-2.54,1.9-2.54,4.11S23,108.7,24.74,108.7Z" fill="#3b4351"/><path d="M37,92c3.54,0,5.51,2.21,5.51,9.38s-2,9.39-5.51,9.39-5.51-2.21-5.51-9.39S33.51,92,37,92Zm0,16.69c2,0,2.55-2,2.55-7.31S39,94.09,37,94.09s-2.55,2-2.55,7.3S35,108.7,37,108.7Z" fill="#3b4351"/><path d="M49.52,92c3.54,0,5.51,2.21,5.51,9.38s-2,9.39-5.51,9.39S44,108.57,44,101.39,46,92,49.52,92Zm0,16.69c2,0,2.55-2,2.55-7.31s-.55-7.3-2.55-7.3-2.55,2-2.55,7.3S47.52,108.7,49.52,108.7Z" fill="#3b4351"/></g></g><g id="Nation_OUtlines" data-name="Nation OUtlines"><polygon id="Romans" points="854.62 2136.83 829.93 2023.83 711.95 1914.83 764.62 1800.83 729.95 1685.83 845.28 1574.83 1002.62 1462.83 1065.29 1348.83 1021.28 1237.83 995.34 1120.83 815.28 1012.83 703.28 901.83 687.28 786.83 737.95 672.83 780.62 560.83 712.62 449.83 645.95 335.83 550.62 222.83 491.95 113 453.95 0 455.29 -112 435.95 -227 470.62 -335 322.62 -335 416.12 -448 480.12 -558 410.62 -670 316.95 -784 248.28 -899 210.28 -1010 175.95 -1121 159.62 -1237 91.28 -1350 83.12 -1455 117.62 -1569 151.37 -1683 129.62 -1793 109.62 -1908 99.62 -2020 73.12 -2130 75.42 -3028 85.95 -2918 95.28 -2806 111.95 -2694 116.62 -2583 137.95 -2470 149.95 -2354 169.95 -2242 205.28 -2130 231.95 -2020 287.74 -1908 467.73 -1793 683.72 -1683 998.71 -1569 1118.7 -1455 1131.14 -1350 1195.2 -1237 1182.62 -1121 1245.62 -1010 1220.62 -899 1122.62 -784 981.62 -670 880.12 -558 717.95 -448 593.62 -335 616.62 -227 717.28 -112 839.28 2.84 863.28 113 915.28 222.83 810.62 335.83 885.95 449.83 1037.95 560.83 1125.95 672.83 1253.95 786.83 1213.95 901.83 1202.62 1012.83 1169.95 1120.83 1161.29 1237.83 1218.62 1348.83 1131.95 1462.83 936.62 1574.83 798.62 1685.83 819.28 1800.83 759.95 1914.83 849.28 2023.83 854.62 2136.83" fill="none" stroke="#3b4351" stroke-miterlimit="10"/><polygon id="Indians" points="1372.19 -3363.83 1294.19 -3478 1285.19 -3591 1313.69 -3702 1348.19 -3815 1310.69 -3929 1298.69 -4039 1313.69 -4151 1345.19 -4263 1325.69 -4377 1343.69 -4491 1417.19 -4602 1400.69 -4715.08 1429.19 -4828 1419.27 -4943.27 1387.19 -5055 1387.19 -5167 1438.19 -5277.5 1462.18 -5389.5 1480.18 -5502.54 1445.82 -5612.83 1411.11 -5724.83 1545.86 -5724.83 1580.1 -5612.83 1593.12 -5502.6 1552.12 -5389.5 1514.62 -5277.5 1514.12 -5167.33 1553.12 -5055.27 1548.12 -4943 1519.62 -4828 1534.12 -4714.33 1575.12 -4602 1559.62 -4491 1564.12 -4377.27 1534.62 -4263 1486.12 -4151 1465.12 -4039 1471.12 -3929.83 1502.12 -3815.83 1508.12 -3702 1534.62 -3591 1542.77 -3512.14 1555.62 -3363.83 1554.62 -3255 1567.12 -3143 1542.12 -3028.27 1498.12 -2918 1490.62 -2806 1513.12 -2694 1568.62 -2583 1544.12 -2470 1530.62 -2354.27 1523.62 -2242.27 1532.62 -2130 1565.12 -2020 1543.62 -1908 1514.12 -1793 1490.12 -1683.27 1495.62 -1569 1517.12 -1455.33 1528.12 -1350 1580.62 -1237.33 1578.12 -1121.33 1578.12 -1010.83 1560.12 -899.27 1526.62 -784 1467.62 -670 1381.62 -558.27 1270.62 -448 1090.12 -335.27 860.62 -227 1302.12 -112 1377.03 0 1550.62 113 1519.62 222.83 1476.12 335.83 1516.13 449.83 1534.62 562.17 1552.65 672.83 1585.62 786.73 1620.12 901.83 1650.12 1012.83 1630.62 1120.73 1622.45 1237.73 1565.62 1348.83 1402.62 1462.17 1173.62 1574.83 1148.62 1685.83 1334.62 1800.83 1283.62 1914.83 1344.62 2023.83 1544.62 2136.83 1602.62 2251.17 1627.62 2362.83 1674.62 2475.73 1627.62 2590.83 1634.62 2702.83 1686.62 2814.83 1701.62 2927.83 1620.12 3039.83 1606.12 3150.83 1606.12 3264.66 1552.62 3264.66 1549.52 3150.83 1569.62 3039.83 1683.62 2927.83 1667.62 2814.83 1607.62 2702.83 1596.62 2590.17 1617.62 2475.83 1584.62 2362.83 1562.62 2250.83 1507.62 2136.83 1304.62 2023.73 1225.62 1914.73 1236.97 1877.78 1264.87 1800.83 1082.62 1685.83 1084.2 1575.34 1323.62 1462.83 1500.47 1348.73 1573.62 1237.83 1600.62 1120.83 1604.62 1012.83 1569.62 901.83 1514.62 786.83 1447.62 672.73 1418.62 560.83 1404.62 449.83 1367.62 335.83 1397.62 222.83 1418.62 112.73 1339.62 -0.27 1246.62 -112 748.62 -227 753.62 -335 910.76 -448 1053.62 -558 1195.2 -670 1311.62 -784.83 1353.62 -899 1348.62 -1010 1364.62 -1121.83 1406.62 -1237 1401.62 -1350 1429.62 -1455 1394.62 -1569.27 1393.2 -1683 1391.82 -1793.27 1437.52 -1908 1513.62 -2020.27 1505.64 -2130 1472.62 -2241.83 1447.62 -2354 1440.63 -2470 1462.62 -2583 1391.1 -2694 1348.62 -2806 1332.62 -2918 1376.98 -3028 1375.34 -3143.27 1373.74 -3255.27 1372.19 -3363.83" fill="none" stroke="#3b4351" stroke-miterlimit="10"/><polygon id="Huns" points="1555.62 -3363.83 1545.73 -3478 1533.62 -3591.33 1506.68 -3701.36 1502.16 -3815 1471.34 -3929 1465.12 -4039 1486.12 -4151 1534.62 -4263 1564.05 -4377 1559.62 -4491 1575.12 -4602 1534.24 -4714 1519.62 -4828 1548.12 -4943 1553.11 -5055 1514.47 -5167.27 1514.62 -5279.5 1552.12 -5389.5 1593.12 -5502.16 1580.1 -5612.83 1545.86 -5724.83 1633.99 -5724.83 1651.62 -5612.83 1667.62 -5502.16 1646.62 -5389.5 1620.62 -5277.5 1630.4 -5169.4 1650.62 -5055.33 1676.62 -4943 1700.12 -4828 1689.12 -4714 1714.62 -4602.33 1697.12 -4491.27 1645.62 -4377.27 1616.12 -4263 1586.62 -4151.27 1538.12 -4039.27 1509.12 -3929 1551.62 -3815 1585.12 -3702 1608.62 -3591.33 1609.69 -3478.27 1610.76 -3365.27 1613.62 -3255.27 1625.12 -3143.27 1599.12 -3027.33 1557.59 -2918 1545.65 -2806 1558.62 -2694 1584.62 -2583.27 1571.12 -2469.83 1576.62 -2354 1567.62 -2242 1587.12 -2130 1621.12 -2020 1612.12 -1908 1556.12 -1793 1528.62 -1683 1529.62 -1569 1553.62 -1455 1616.07 -1350 1609.25 -1237 1592.66 -1121 1611.01 -1010.27 1612.12 -899 1598.04 -784 1564.12 -670 1534.29 -558 1602.12 -448.27 1653.62 -335 1673.62 -227 1666.12 -112 1668.12 -0.33 1625.62 112.67 1542.12 222.83 1476.12 335.83 1519.62 222.83 1550.62 113 1376.62 -0.27 1302.12 -112 860.62 -227 1090.12 -335.27 1270.62 -448 1381.62 -558.27 1467.62 -670 1526.62 -784 1560.12 -899.27 1578.12 -1010.83 1578.12 -1121.33 1580.62 -1237.33 1528.12 -1350 1517.12 -1455.33 1495.62 -1569 1490.12 -1683.27 1514.12 -1793 1543.62 -1908 1565.12 -2020 1532.62 -2130 1523.62 -2242.27 1530.62 -2354.27 1544.12 -2470 1568.62 -2583 1513.12 -2694 1490.62 -2806 1498.12 -2918 1542.12 -3028.27 1567.12 -3143 1554.62 -3255 1555.62 -3363.83" fill="none" stroke="#3b4351" stroke-miterlimit="10"/><polygon id="Chinese" points="1610.76 -3365.27 1609.69 -3478.27 1608.62 -3591.33 1585.12 -3702 1551.62 -3815 1509.12 -3929 1538.12 -4039.27 1586.62 -4151.27 1616.12 -4263 1645.62 -4377.27 1697.12 -4491.27 1714.62 -4602.33 1689.12 -4714 1700.12 -4828 1676.62 -4943 1650.62 -5055.33 1630.62 -5167 1620.62 -5277.5 1646.62 -5389.5 1667.62 -5502.16 1651.62 -5612.83 1633.99 -5724.83 1768.79 -5724.83 1768.79 2475.83 1768.79 2590.73 1766.12 2702.83 1757.62 2814.83 1736.12 2927.73 1676.12 3039.73 1661.12 3150.83 1663.62 3264.66 1606.12 3264.66 1606.12 3150.73 1620.12 3039.83 1701.62 2927.83 1696.12 2814.67 1654.12 2702.83 1681.62 2590.83 1739.62 2475.73 1748.62 2362.67 1744.12 2250.67 1685.62 2136.83 1615.12 2026.17 1636.12 1914.83 1738.62 1800.83 1761.12 1685.83 1758.62 1574.83 1732.12 1462.83 1695.62 1348.83 1667.62 1237.83 1651.12 1120.83 1650.12 1012.83 1620.12 901.83 1585.62 786.73 1552.62 672.73 1535.12 560.83 1516.12 449.73 1476.12 335.83 1542.12 222.83 1625.62 112.67 1668.12 -0.33 1666.12 -112 1673.62 -227 1653.62 -335 1602.12 -448.27 1534.12 -558.27 1564.12 -670 1598.12 -784.27 1612.12 -899 1611.01 -1010.27 1592.62 -1121.27 1609.25 -1237 1616.07 -1350 1553.62 -1455 1529.62 -1569 1528.62 -1683.27 1555.62 -1793 1612.12 -1908 1621.12 -2020 1587.12 -2130 1567.62 -2242 1576.62 -2354 1571.12 -2470 1584.62 -2583.27 1558.62 -2694 1545.62 -2806.27 1557.62 -2918.27 1599.62 -3028 1625.12 -3143.27 1613.62 -3255.27 1610.76 -3365.27" fill="none" stroke="#3b4351" stroke-miterlimit="10"/><polygon id="Teutons_-_Franks" data-name="Teutons - Franks" points="600.62 672.83 277.29 672.83 235.95 560.83 189.95 449.83 180.62 335.83 142.62 222.83 139.95 113 120.62 0 99.95 -112 73.12 -227 73.12 -670 101.12 -558 138.62 -445.58 168.12 -335 189.69 -227 192.12 -112 257.62 0 298.12 113 333.12 222.83 392.87 335.83 712.62 449.83 676.62 560.83 600.62 672.83" fill="none" stroke="#3b4351" stroke-miterlimit="10"/><polygon id="Teutons_-Goths" data-name="Teutons -Goths" points="712.62 449.83 392.87 335.83 333.12 222.83 298.12 113 257.62 0 192.12 -112 189.69 -227 168.12 -335 138.62 -445.58 101.12 -558 73.12 -667.33 73.12 -2130 99.62 -2020 109.62 -1908 129.3 -1790.61 151.37 -1683 117.62 -1569 83.12 -1455 91.28 -1350 159.62 -1237 175.95 -1121 210.28 -1010 248.28 -899 316.95 -784 410.62 -670 480.12 -558 416.12 -448 322.62 -335 328.12 -227 455.29 -112 453.95 0 425.12 113 461.12 222.83 536.62 335.83 712.62 449.83" fill="none" stroke="#3b4351" stroke-miterlimit="10"/><polygon id="Denmark" points="916.62 3264.66 927.62 3264.66 926.37 3150.83 701.12 3039.83 690.87 2927.83 683.87 2814.83 637.87 2702.83 522.37 2590.83 457.37 2475.83 426.62 2362.83 299.62 2250.83 273.62 2136.83 281.62 2023.83 289.12 1914.83 302.12 1800.83 296.87 1685.83 275.62 1574.83 253.62 1462.83 226.62 1348.83 210.62 1237.83 199.62 1012.83 199.37 901.83 291.37 786.83 277.29 672.83 235.95 560.83 188.87 449.83 180.62 335.83 142.62 222.83 139.95 113 120.62 0 99.95 -112 73.12 -227 90.34 -112 107.12 0 118.37 113 120.37 222.83 122.62 335.83 125.87 449.83 158.37 560.83 185.87 672.83 183.62 786.83 127.62 901.83 119.62 1012.83 119.12 1120.83 156.87 1237.83 188.62 1348.83 212.62 1462.83 252.37 1574.83 277.87 1685.83 283.37 1800.83 267.12 1914.83 248.87 2023.83 213.87 2136.83 234.37 2250.83 312.12 2362.83 398.12 2475.83 458.87 2590.83 593.37 2702.83 637.87 2814.83 674.12 2927.83 691.37 3039.83 915.37 3150.83 916.62 3264.66" fill="none" stroke="#3b4351" stroke-miterlimit="10"/><polygon id="Norway" points="213.87 2136.83 222.62 2023.83 243.95 1914.83 258.95 1800.83 252.95 1685.83 220.95 1574.83 186.86 1462.83 160.95 1348.83 133.28 1237.83 96.28 1120.83 84.28 1012.83 89.28 901.83 120.28 786.83 98.62 672.83 94.28 560.83 91.95 449.83 95.28 335.83 99.62 222.83 96.58 113 93.44 0 90.34 -112 107.12 0 118.37 113 120.37 222.83 122.62 335.83 125.87 449.83 158.37 560.83 185.87 672.83 183.62 786.83 127.62 901.83 119.62 1012.83 119.12 1120.83 156.87 1237.83 188.62 1348.83 212.62 1462.83 252.37 1574.83 277.87 1685.83 283.37 1800.83 267.12 1914.83 248.87 2023.83 213.87 2136.83" fill="none" stroke="#3b4351" stroke-miterlimit="10"/><polygon id="England" points="874.62 3264.66 688.95 3264.66 687.95 3150.83 439.12 3039.83 252.12 2927.83 159.62 2814.83 111.62 2702.83 93.62 2590.83 86.12 2475.83 84.62 2362.83 86.95 2250.83 98.28 2136.83 116.95 2023.83 114.62 1914.83 122.62 1800.83 120.62 1685.83 108.28 1574.83 100.16 1462.83 107.95 1348.83 107.95 1237.83 77.28 1120.83 73.12 -227 90.34 -112 93.44 0 96.58 113 99.62 222.83 91.95 449.83 94.28 560.83 98.62 672.83 120.28 786.83 89.28 901.83 84.28 1012.83 96.28 1120.83 133.28 1237.83 160.95 1348.83 172.95 1462.83 208.95 1574.83 223.62 1685.83 228.28 1800.83 211.62 1914.83 201.62 2023.83 189.95 2136.83 193.28 2250.83 235.28 2362.83 248.62 2475.83 348.62 2590.83 562.62 2702.83 622.12 2814.83 602.12 2927.83 652.12 3039.83 872.95 3150.83 874.62 3264.66" fill="none" stroke="#3b4351" stroke-miterlimit="10"/><polygon points="1076.62 1.42 1106.62 113.63 997.62 222.83 810.62 335.83 915.28 222.83 863.28 113 839.28 2.84 717.28 -112 616.62 -227 748.62 -227 1022.62 -112 1076.62 1.42" fill="none" stroke="#3b4351" stroke-miterlimit="10"/><polygon id="Islam" points="1239.87 113.5 1106.62 113.63 1076.62 1.42 1022.62 -112 748.62 -227 1246.62 -112 1339.62 -0.27 1418.62 112.73 1239.87 113.5" fill="none" stroke="#3b4351" stroke-miterlimit="10"/><polygon id="Lombard" points="536.62 335.83 461.12 222.83 425.12 113 453.95 0 491.95 113 550.62 222.83 645.95 335.83 712.62 449.83 536.62 335.83" fill="none" stroke="#3b4351" stroke-miterlimit="10"/><polygon id="Moslem_Arabs_and_Persians" data-name="Moslem Arabs and Persians" points="1404.62 449.83 1418.62 560.83 1411.62 672.83 1453.62 786.83 1382.62 901.83 1328.62 1012.83 1225.12 1120.83 1161.29 1237.83 1169.95 1120.83 1202.62 1012.83 1213.95 901.83 1253.95 786.83 1125.95 672.83 1037.95 560.83 885.95 449.83 810.62 335.83 997.62 222.83 1106.62 113.63 1418.62 112.73 1397.62 222.83 1367.62 335.83 1404.62 449.83" fill="none" stroke="#3b4351" stroke-miterlimit="10"/></g><g id="Text"><g id="Romans-2" data-name="Romans"><path d="M620.67,7.93h5.66c2.63,0,4.71,1.18,4.71,4.24,0,2.11-.86,3.44-2.57,4v.05c1.91.35,3.13,1.5,3.13,4.46s-2.1,4.78-5.39,4.78h-5.54Zm5,7.38a2.46,2.46,0,0,0,2.58-2.77c0-2.08-1.25-2.5-2.82-2.5h-2v5.27Zm.57,8c1.66,0,2.57-1.05,2.57-3.08a2.65,2.65,0,0,0-2.75-3h-2.59v6.05Z" fill="#3b4351"/><path d="M635.42,12.25l2.28,9.9h0l2.11-9.9h2.77L639,25.92c-1,3.6-1.86,4.09-4.61,4a4.73,4.73,0,0,1-1-.1v-2.1a3.54,3.54,0,0,0,.86.09c.9,0,1.49-.17,1.79-1l.34-1.07-3.75-13.48Z" fill="#3b4351"/><path d="M643.43,23.37l5.76-8.89h-5.41V12.25h8.4v2.18l-5.54,8.77h5.54v2.23h-8.75Z" fill="#3b4351"/><path d="M662.72,22.69c0,.49.29.93.68.93a1,1,0,0,0,.45-.08v1.72a2.86,2.86,0,0,1-1.3.32c-1.18,0-2.16-.47-2.23-1.74h-.05A3.41,3.41,0,0,1,657,25.77c-2.13,0-3.43-1.15-3.43-3.7,0-2.94,1.3-3.55,3.07-4.14l2-.56c1-.27,1.55-.54,1.55-1.69s-.42-2-1.82-2c-1.76,0-2,1.25-2,2.52h-2.5c0-2.82,1.15-4.34,4.63-4.34,2.33,0,4.19.91,4.19,3.24Zm-2.5-4.22a21.71,21.71,0,0,1-2.94,1.23,2.16,2.16,0,0,0-1.08,2.13c0,1.1.54,2,1.64,2,1.59,0,2.38-1.17,2.38-3.13Z" fill="#3b4351"/><path d="M665.41,12.25h2.5v1.54H668a3.81,3.81,0,0,1,3.39-1.89c2,0,3.28.91,3.28,3.58v10H672v-9c0-1.77-.46-2.38-1.84-2.38-1.07,0-2.1.81-2.1,2.57v8.85h-2.65Z" fill="#3b4351"/><path d="M676,12.25h1.81V8.5h2.65v3.75h2.15v2h-2.15v7.86c0,1.06.29,1.4,1.2,1.4a4.91,4.91,0,0,0,1-.07v2a8.93,8.93,0,0,1-2.13.22c-1.76,0-2.67-.52-2.67-3.19V14.21H676Z" fill="#3b4351"/><path d="M684.13,7.74h2.64v2.64h-2.64Zm0,4.51h2.64V25.43h-2.64Z" fill="#3b4351"/><path d="M689.44,12.25h2.5v1.54H692a3.79,3.79,0,0,1,3.38-1.89c2,0,3.28.91,3.28,3.58v10H696v-9c0-1.77-.47-2.38-1.84-2.38-1.08,0-2.11.81-2.11,2.57v8.85h-2.65Z" fill="#3b4351"/><path d="M703.51,19.18v.76c0,1.77.22,4,2.2,4s2.11-2.13,2.11-2.94h2.5c0,3-1.76,4.75-4.63,4.75-2.16,0-4.83-.63-4.83-6.73,0-3.46.76-7.14,4.88-7.14,3.67,0,4.65,2.23,4.65,5.89v1.39Zm4.24-1.81v-.71c0-1.67-.54-2.94-2-2.94-1.66,0-2.2,1.66-2.2,3.38v.27Z" fill="#3b4351"/><path d="M718.62,7.93h9.46v2.36h-6.66v4.85h6.27v2.35h-6.27v5.59h6.86v2.35h-9.66Z" fill="#3b4351"/><path d="M730.36,12.25h2.5v1.54h.07a3.7,3.7,0,0,1,3.16-1.89,2.88,2.88,0,0,1,3.07,2,3.61,3.61,0,0,1,3.33-2c1.86,0,3.21,1,3.21,3.51v10h-2.65v-9c0-1.74-.51-2.38-1.59-2.38s-2.11.84-2.11,2.57v8.85H736.7v-9c0-1.74-.51-2.38-1.61-2.38s-2.09.86-2.09,2.57v8.85h-2.64Z" fill="#3b4351"/><path d="M754.05,25.77a3,3,0,0,1-3-1.88h0v5.85h-2.64V12.25h2.5v1.62h0a3.14,3.14,0,0,1,3-2c3,0,4.24,2.58,4.24,7.11C758.12,24.55,755.89,25.77,754.05,25.77ZM753.1,14c-1.82,0-2.23,1.84-2.23,4.68,0,3.16.39,5,2.25,5,1.49,0,2.21-1.13,2.21-4.78C755.33,15.9,755,14,753.1,14Z" fill="#3b4351"/><path d="M760.27,7.74h2.65v2.64h-2.65Zm0,4.51h2.65V25.43h-2.65Z" fill="#3b4351"/><path d="M765.59,12.25h2.64v2.06h0a3.27,3.27,0,0,1,3.07-2.41,1.5,1.5,0,0,1,.63.1v2.7a3.42,3.42,0,0,0-1.1-.15c-1.2,0-2.65.54-2.65,3v7.89h-2.64Z" fill="#3b4351"/><path d="M775.44,19.18v.76c0,1.77.22,4,2.2,4s2.11-2.13,2.11-2.94h2.5c0,3-1.76,4.75-4.63,4.75-2.16,0-4.83-.63-4.83-6.73,0-3.46.76-7.14,4.88-7.14,3.67,0,4.65,2.23,4.65,5.89v1.39Zm4.24-1.81v-.71c0-1.67-.54-2.94-2-2.94-1.66,0-2.2,1.66-2.2,3.38v.27Z" fill="#3b4351"/></g><g id="Islam-2" data-name="Islam"><path d="M1153.23,29.75h4.36l3.09,13h0l3-13H1168V47.24h-2.65V32.69h-.05l-3.53,14.55h-2.35l-3.53-14.55h-.05V47.24h-2.64Z" fill="#3b4351"/><path d="M1170.23,40.65c0-4.11,1.08-6.93,4.9-6.93s4.93,2.82,4.93,6.93-1.28,6.94-4.93,6.94S1170.23,44.77,1170.23,40.65Zm4.9,5c1.94,0,2.28-1.62,2.28-5,0-2.91-.34-5-2.28-5s-2.25,2.06-2.25,5C1172.88,44,1173.24,45.63,1175.13,45.63Z" fill="#3b4351"/><path d="M1182.09,29.75h2.64v5.73l.08.05a3.76,3.76,0,0,1,3.23-1.81c2,0,3.29.9,3.29,3.57v10h-2.65v-9c0-1.74-.49-2.37-1.84-2.37-1.08,0-2.11.83-2.11,2.57v8.84h-2.64Z" fill="#3b4351"/><path d="M1202.52,44.5c0,.49.3.93.69.93a1,1,0,0,0,.44-.07v1.71a2.83,2.83,0,0,1-1.3.32c-1.18,0-2.16-.46-2.23-1.74h0a3.4,3.4,0,0,1-3.28,1.94c-2.13,0-3.43-1.15-3.43-3.7,0-2.94,1.3-3.56,3.06-4.14l2.06-.57c1-.27,1.54-.54,1.54-1.69s-.41-2-1.81-2c-1.77,0-2,1.25-2,2.52h-2.5c0-2.81,1.15-4.33,4.63-4.33,2.33,0,4.19.9,4.19,3.23Zm-2.5-4.21a21.14,21.14,0,0,1-2.94,1.22,2.17,2.17,0,0,0-1.08,2.13c0,1.11.54,2,1.65,2,1.59,0,2.37-1.18,2.37-3.14Z" fill="#3b4351"/><path d="M1205.34,34.06h2.5V35.6h.07a3.69,3.69,0,0,1,3.16-1.88,2.87,2.87,0,0,1,3.07,2,3.57,3.57,0,0,1,3.33-2c1.86,0,3.21,1,3.21,3.5v10H1218v-9c0-1.74-.51-2.37-1.59-2.37s-2.11.83-2.11,2.57v8.84h-2.65v-9c0-1.74-.51-2.37-1.61-2.37s-2.09.85-2.09,2.57v8.84h-2.64Z" fill="#3b4351"/><path d="M1223.47,34.06h2.5V35.6h.07a3.69,3.69,0,0,1,3.16-1.88,2.87,2.87,0,0,1,3.07,2,3.57,3.57,0,0,1,3.33-2c1.86,0,3.21,1,3.21,3.5v10h-2.65v-9c0-1.74-.51-2.37-1.59-2.37s-2.11.83-2.11,2.57v8.84h-2.65v-9c0-1.74-.51-2.37-1.61-2.37s-2.09.85-2.09,2.57v8.84h-2.64Z" fill="#3b4351"/><path d="M1250.13,44.5c0,.49.29.93.68.93a1,1,0,0,0,.44-.07v1.71a2.83,2.83,0,0,1-1.3.32c-1.17,0-2.15-.46-2.23-1.74h0a3.4,3.4,0,0,1-3.28,1.94c-2.13,0-3.43-1.15-3.43-3.7,0-2.94,1.3-3.56,3.06-4.14l2.06-.57c1-.27,1.55-.54,1.55-1.69s-.42-2-1.82-2c-1.76,0-2,1.25-2,2.52h-2.5c0-2.81,1.15-4.33,4.63-4.33,2.33,0,4.2.9,4.2,3.23Zm-2.5-4.21a21.79,21.79,0,0,1-3,1.22,2.18,2.18,0,0,0-1.07,2.13c0,1.11.54,2,1.64,2,1.59,0,2.38-1.18,2.38-3.14Z" fill="#3b4351"/><path d="M1259.56,45.63h0a2.83,2.83,0,0,1-2.89,2c-3.07,0-4.32-2.6-4.32-7.11,0-5.86,2.06-6.76,4.07-6.76a3,3,0,0,1,3,1.88h.05V29.75h2.65V47.24h-2.5Zm-2.4-9.8c-1.5,0-2.06,1.22-2.06,4.77,0,3,.36,4.88,2.23,4.88s2.23-1.84,2.23-4.68C1259.56,37.64,1259.21,35.83,1257.16,35.83Z" fill="#3b4351"/><path d="M1112.74,82h2.8v17.5h-2.8Z" fill="#3b4351"/><path d="M1120.46,94.06v.44c0,2.13,1,3.21,2.87,3.21a2.51,2.51,0,0,0,2.65-2.55c0-1.84-.94-2.64-2.5-3.11l-1.92-.66c-2.54-1-3.65-2.31-3.65-4.8,0-3.19,2.18-5,5.44-5,4.49,0,5,2.79,5,4.6v.39h-2.79v-.36c0-1.6-.69-2.53-2.45-2.53a2.23,2.23,0,0,0-2.35,2.53c0,1.49.76,2.25,2.62,3l1.89.69c2.47.88,3.55,2.2,3.55,4.63,0,3.73-2.26,5.27-5.79,5.27-4.33,0-5.31-2.89-5.31-5.34v-.42Z" fill="#3b4351"/><path d="M1130.7,82h2.79V97.12h6.77v2.36h-9.56Z" fill="#3b4351"/><path d="M1145.21,82h3.57l4.61,17.5h-2.92l-1.07-4.29h-5.13l-1.12,4.29h-2.92Zm3.72,11-2-8.63h-.05L1144.79,93Z" fill="#3b4351"/><path d="M1154.61,82H1159l3.09,13h0l3-13h4.26v17.5h-2.64V84.92h0l-3.53,14.56h-2.35l-3.53-14.56h0V99.48h-2.65Z" fill="#3b4351"/></g></g></svg>