<svg id="Text" xmlns="http://www.w3.org/2000/svg" viewBox="0 0 1847.91 113"><title>ce0600text</title><g id="Romans"><path d="M620.67,7.93h5.66c2.63,0,4.71,1.18,4.71,4.24,0,2.11-.86,3.44-2.57,4v.05c1.91.35,3.13,1.5,3.13,4.46s-2.1,4.78-5.39,4.78h-5.54Zm5,7.38a2.46,2.46,0,0,0,2.58-2.77c0-2.08-1.25-2.5-2.82-2.5h-2v5.27Zm.57,8c1.66,0,2.57-1.05,2.57-3.08a2.65,2.65,0,0,0-2.75-3h-2.59v6.05Z"/><path d="M635.42,12.25l2.28,9.9h0l2.11-9.9h2.77L639,25.92c-1,3.6-1.86,4.09-4.61,4a4.73,4.73,0,0,1-1-.1v-2.1a3.54,3.54,0,0,0,.86.09c.9,0,1.49-.17,1.79-1l.34-1.07-3.75-13.48Z"/><path d="M643.43,23.37l5.76-8.89h-5.41V12.25h8.4v2.18l-5.54,8.77h5.54v2.23h-8.75Z"/><path d="M662.72,22.69c0,.49.29.93.68.93a1,1,0,0,0,.45-.08v1.72a2.86,2.86,0,0,1-1.3.32c-1.18,0-2.16-.47-2.23-1.74h-.05A3.41,3.41,0,0,1,657,25.77c-2.13,0-3.43-1.15-3.43-3.7,0-2.94,1.3-3.55,3.07-4.14l2-.56c1-.27,1.55-.54,1.55-1.69s-.42-2-1.82-2c-1.76,0-2,1.25-2,2.52h-2.5c0-2.82,1.15-4.34,4.63-4.34,2.33,0,4.19.91,4.19,3.24Zm-2.5-4.22a21.71,21.71,0,0,1-2.94,1.23,2.16,2.16,0,0,0-1.08,2.13c0,1.1.54,2,1.64,2,1.59,0,2.38-1.17,2.38-3.13Z"/><path d="M665.41,12.25h2.5v1.54H668a3.81,3.81,0,0,1,3.39-1.89c2,0,3.28.91,3.28,3.58v10H672v-9c0-1.77-.46-2.38-1.84-2.38-1.07,0-2.1.81-2.1,2.57v8.85h-2.65Z"/><path d="M676,12.25h1.81V8.5h2.65v3.75h2.15v2h-2.15v7.86c0,1.06.29,1.4,1.2,1.4a4.91,4.91,0,0,0,1-.07v2a8.93,8.93,0,0,1-2.13.22c-1.76,0-2.67-.52-2.67-3.19V14.21H676Z"/><path d="M684.13,7.74h2.64v2.64h-2.64Zm0,4.51h2.64V25.43h-2.64Z"/><path d="M689.44,12.25h2.5v1.54H692a3.79,3.79,0,0,1,3.38-1.89c2,0,3.28.91,3.28,3.58v10H696v-9c0-1.77-.47-2.38-1.84-2.38-1.08,0-2.11.81-2.11,2.57v8.85h-2.65Z"/><path d="M703.51,19.18v.76c0,1.77.22,4,2.2,4s2.11-2.13,2.11-2.94h2.5c0,3-1.76,4.75-4.63,4.75-2.16,0-4.83-.63-4.83-6.73,0-3.46.76-7.14,4.88-7.14,3.67,0,4.65,2.23,4.65,5.89v1.39Zm4.24-1.81v-.71c0-1.67-.54-2.94-2-2.94-1.66,0-2.2,1.66-2.2,3.38v.27Z"/><path d="M718.62,7.93h9.46v2.36h-6.66v4.85h6.27v2.35h-6.27v5.59h6.86v2.35h-9.66Z"/><path d="M730.36,12.25h2.5v1.54h.07a3.7,3.7,0,0,1,3.16-1.89,2.88,2.88,0,0,1,3.07,2,3.61,3.61,0,0,1,3.33-2c1.86,0,3.21,1,3.21,3.51v10h-2.65v-9c0-1.74-.51-2.38-1.59-2.38s-2.11.84-2.11,2.57v8.85H736.7v-9c0-1.74-.51-2.38-1.61-2.38s-2.09.86-2.09,2.57v8.85h-2.64Z"/><path d="M754.05,25.77a3,3,0,0,1-3-1.88h0v5.85h-2.64V12.25h2.5v1.62h0a3.14,3.14,0,0,1,3-2c3,0,4.24,2.58,4.24,7.11C758.12,24.55,755.89,25.77,754.05,25.77ZM753.1,14c-1.82,0-2.23,1.84-2.23,4.68,0,3.16.39,5,2.25,5,1.49,0,2.21-1.13,2.21-4.78C755.33,15.9,755,14,753.1,14Z"/><path d="M760.27,7.74h2.65v2.64h-2.65Zm0,4.51h2.65V25.43h-2.65Z"/><path d="M765.59,12.25h2.64v2.06h0a3.27,3.27,0,0,1,3.07-2.41,1.5,1.5,0,0,1,.63.1v2.7a3.42,3.42,0,0,0-1.1-.15c-1.2,0-2.65.54-2.65,3v7.89h-2.64Z"/><path d="M775.44,19.18v.76c0,1.77.22,4,2.2,4s2.11-2.13,2.11-2.94h2.5c0,3-1.76,4.75-4.63,4.75-2.16,0-4.83-.63-4.83-6.73,0-3.46.76-7.14,4.88-7.14,3.67,0,4.65,2.23,4.65,5.89v1.39Zm4.24-1.81v-.71c0-1.67-.54-2.94-2-2.94-1.66,0-2.2,1.66-2.2,3.38v.27Z"/></g></svg>