<svg xmlns="http://www.w3.org/2000/svg" viewBox="0 0 1847.91 109.83"><title>ce0650text</title><g id="YEARS"><g id="Right"><path d="M1801.89,94.06c0-1.06-.52-2.39-2-2.39-2.78,0-2.94,3.64-2.94,6.35l.08,0a3.77,3.77,0,0,1,3.59-1.95c2.52,0,4.55,1.82,4.55,5.48,0,4.24-1.77,6.76-5.64,6.76-4.66,0-5.54-3.53-5.54-8.81,0-5.51,1-10,5.87-10,3.25,0,5,1.43,5,4.47Zm-2.11,12.22c1.79,0,2.44-1.79,2.44-4,0-2.57-.75-4-2.44-4-2.18,0-2.55,1.9-2.55,4.11S1798,106.28,1799.78,106.28Z" fill="#3b4351"/><path d="M1806.67,103h2.81v.5a2.35,2.35,0,0,0,2.41,2.6c2.09,0,2.63-2,2.63-4.19S1814,98,1812.05,98a2.35,2.35,0,0,0-2.42,1.69L1807,99.6l.91-9.64h8.86v2.36h-6.65l-.6,4.84,0,0a4.06,4.06,0,0,1,3.09-1.43c3.85,0,4.81,3.25,4.81,6.08,0,3.7-1.69,6.5-5.66,6.5-3.31,0-5.15-1.69-5.15-4.94Z" fill="#3b4351"/><path d="M1824.56,89.59c3.53,0,5.51,2.21,5.51,9.39s-2,9.38-5.51,9.38S1819,106.15,1819,99,1821,89.59,1824.56,89.59Zm0,16.69c2,0,2.54-2,2.54-7.3s-.54-7.31-2.54-7.31-2.55,2-2.55,7.31S1822.55,106.28,1824.56,106.28Z" fill="#3b4351"/></g><g id="left"><path d="M26.85,96c0-1.07-.52-2.39-2-2.39-2.78,0-2.93,3.64-2.93,6.34l.07,0a3.79,3.79,0,0,1,3.59-2c2.52,0,4.55,1.82,4.55,5.49,0,4.24-1.77,6.76-5.64,6.76-4.65,0-5.54-3.54-5.54-8.81,0-5.52,1-10,5.88-10,3.25,0,5,1.43,5,4.47Zm-2.11,12.22c1.8,0,2.45-1.79,2.45-4,0-2.58-.76-4-2.45-4-2.18,0-2.54,1.9-2.54,4.11S23,108.19,24.74,108.19Z" fill="#3b4351"/><path d="M31.63,104.94h2.81v.49A2.36,2.36,0,0,0,36.86,108c2.08,0,2.63-2,2.63-4.19s-.58-3.93-2.47-3.93a2.35,2.35,0,0,0-2.42,1.69l-2.63-.1.91-9.65h8.87v2.37H35.09l-.6,4.83.06.06a4,4,0,0,1,3.09-1.43c3.85,0,4.81,3.25,4.81,6.08,0,3.69-1.69,6.5-5.67,6.5-3.3,0-5.15-1.69-5.15-4.94Z" fill="#3b4351"/><path d="M49.52,91.5c3.54,0,5.51,2.21,5.51,9.38s-2,9.39-5.51,9.39S44,108.06,44,100.88,46,91.5,49.52,91.5Zm0,16.69c2,0,2.55-2,2.55-7.31s-.55-7.3-2.55-7.3-2.55,2-2.55,7.3S47.52,108.19,49.52,108.19Z" fill="#3b4351"/></g></g><g id="Nation_OUtlines" data-name="Nation OUtlines"><polygon id="Romans" points="854.62 2023.83 829.93 1910.83 711.95 1801.83 764.62 1687.83 729.95 1572.83 845.28 1461.83 1002.62 1349.83 1065.29 1235.83 1021.28 1124.83 995.34 1007.83 815.28 899.83 703.28 788.83 687.28 673.83 737.95 559.83 780.62 447.83 712.62 336.83 645.95 222.83 550.62 109.83 491.95 0 453.95 -113 455.29 -225 435.95 -340 470.62 -448 322.62 -448 416.12 -561 480.12 -671 410.62 -783 316.95 -897 248.28 -1012 210.28 -1123 175.95 -1234 159.62 -1350 91.28 -1463 83.12 -1568 117.62 -1682 151.37 -1796 129.62 -1906 109.62 -2021 99.62 -2133 73.12 -2243 75.42 -3141 85.95 -3031 95.28 -2919 111.95 -2807 116.62 -2696 137.95 -2583 149.95 -2467 169.95 -2355 205.28 -2243 231.95 -2133 287.74 -2021 467.73 -1906 683.72 -1796 998.71 -1682 1118.7 -1568 1131.14 -1463 1195.2 -1350 1182.62 -1234 1245.62 -1123 1220.62 -1012 1122.62 -897 981.62 -783 880.12 -671 717.95 -561 593.62 -448 616.62 -340 717.28 -225 839.28 -110.16 863.28 0 915.28 109.83 810.62 222.83 885.95 336.83 1037.95 447.83 1125.95 559.83 1253.95 673.83 1213.95 788.83 1202.62 899.83 1169.95 1007.83 1161.29 1124.83 1218.62 1235.83 1131.95 1349.83 936.62 1461.83 798.62 1572.83 819.28 1687.83 759.95 1801.83 849.28 1910.83 854.62 2023.83" fill="none" stroke="#3b4351" stroke-miterlimit="10"/><polygon id="Indians" points="1372.19 -3476.83 1294.19 -3591 1285.19 -3704 1313.69 -3815 1348.19 -3928 1310.69 -4042 1298.69 -4152 1313.69 -4264 1345.19 -4376 1325.69 -4490 1343.69 -4604 1417.19 -4715 1400.69 -4828.08 1429.19 -4941 1419.27 -5056.27 1387.19 -5168 1387.19 -5280 1438.19 -5390.5 1462.18 -5502.5 1480.18 -5615.54 1445.82 -5725.83 1411.11 -5837.83 1545.86 -5837.83 1580.1 -5725.83 1593.12 -5615.6 1552.12 -5502.5 1514.62 -5390.5 1514.12 -5280.33 1553.12 -5168.27 1548.12 -5056 1519.62 -4941 1534.12 -4827.33 1575.12 -4715 1559.62 -4604 1564.12 -4490.27 1534.62 -4376 1486.12 -4264 1465.12 -4152 1471.12 -4042.83 1502.12 -3928.83 1508.12 -3815 1534.62 -3704 1542.77 -3625.14 1555.62 -3476.83 1554.62 -3368 1567.12 -3256 1542.12 -3141.27 1498.12 -3031 1490.62 -2919 1513.12 -2807 1568.62 -2696 1544.12 -2583 1530.62 -2467.27 1523.62 -2355.27 1532.62 -2243 1565.12 -2133 1543.62 -2021 1514.12 -1906 1490.12 -1796.27 1495.62 -1682 1517.12 -1568.33 1528.12 -1463 1580.62 -1350.33 1578.12 -1234.33 1578.12 -1123.83 1560.12 -1012.27 1526.62 -897 1467.62 -783 1381.62 -671.27 1270.62 -561 1090.12 -448.27 860.62 -340 1302.12 -225 1377.03 -113 1550.62 0 1519.62 109.83 1476.12 222.83 1516.13 336.83 1534.62 449.17 1552.65 559.83 1585.62 673.73 1620.12 788.83 1650.12 899.83 1630.62 1007.73 1622.45 1124.73 1565.62 1235.83 1402.62 1349.17 1173.62 1461.83 1148.62 1572.83 1334.62 1687.83 1283.62 1801.83 1344.62 1910.83 1544.62 2023.83 1602.62 2138.17 1627.62 2249.83 1674.62 2362.73 1627.62 2477.83 1634.62 2589.83 1686.62 2701.83 1701.62 2814.83 1620.12 2926.83 1606.12 3037.83 1606.12 3151.66 1552.62 3151.66 1549.52 3037.83 1569.62 2926.83 1683.62 2814.83 1667.62 2701.83 1607.62 2589.83 1596.62 2477.17 1617.62 2362.83 1584.62 2249.83 1562.62 2137.83 1507.62 2023.83 1304.62 1910.73 1225.62 1801.73 1236.97 1764.78 1264.87 1687.83 1082.62 1572.83 1084.2 1462.34 1323.62 1349.83 1500.47 1235.73 1573.62 1124.83 1600.62 1007.83 1604.62 899.83 1569.62 788.83 1514.62 673.83 1447.62 559.73 1418.62 447.83 1404.62 336.83 1367.62 222.83 1397.62 109.83 1418.62 -0.27 1339.62 -113.27 1246.62 -225 748.62 -340 753.62 -448 910.76 -561 1053.62 -671 1195.2 -783 1311.62 -897.83 1353.62 -1012 1348.62 -1123 1364.62 -1234.83 1406.62 -1350 1401.62 -1463 1429.62 -1568 1394.62 -1682.27 1393.2 -1796 1391.82 -1906.27 1437.52 -2021 1513.62 -2133.27 1505.64 -2243 1472.62 -2354.83 1447.62 -2467 1440.63 -2583 1462.62 -2696 1391.1 -2807 1348.62 -2919 1332.62 -3031 1376.98 -3141 1375.34 -3256.27 1373.74 -3368.27 1372.19 -3476.83" fill="none" stroke="#3b4351" stroke-miterlimit="10"/><polygon id="Huns" points="1555.62 -3476.83 1545.73 -3591 1533.62 -3704.33 1506.68 -3814.36 1502.16 -3928 1471.34 -4042 1465.12 -4152 1486.12 -4264 1534.62 -4376 1564.05 -4490 1559.62 -4604 1575.12 -4715 1534.24 -4827 1519.62 -4941 1548.12 -5056 1553.11 -5168 1514.47 -5280.27 1514.62 -5392.5 1552.12 -5502.5 1593.12 -5615.16 1580.1 -5725.83 1545.86 -5837.83 1633.99 -5837.83 1651.62 -5725.83 1667.62 -5615.16 1646.62 -5502.5 1620.62 -5390.5 1630.4 -5282.4 1650.62 -5168.33 1676.62 -5056 1700.12 -4941 1689.12 -4827 1714.62 -4715.33 1697.12 -4604.27 1645.62 -4490.27 1616.12 -4376 1586.62 -4264.27 1538.12 -4152.27 1509.12 -4042 1551.62 -3928 1585.12 -3815 1608.62 -3704.33 1609.69 -3591.27 1610.76 -3478.27 1613.62 -3368.27 1625.12 -3256.27 1599.12 -3140.33 1557.59 -3031 1545.65 -2919 1558.62 -2807 1584.62 -2696.27 1571.12 -2582.83 1576.62 -2467 1567.62 -2355 1587.12 -2243 1621.12 -2133 1612.12 -2021 1556.12 -1906 1528.62 -1796 1529.62 -1682 1553.62 -1568 1616.07 -1463 1609.25 -1350 1592.66 -1234 1611.01 -1123.27 1612.12 -1012 1598.04 -897 1564.12 -783 1534.29 -671 1602.12 -561.27 1653.62 -448 1673.62 -340 1666.12 -225 1668.12 -113.33 1625.62 -0.33 1542.12 109.83 1476.12 222.83 1519.62 109.83 1550.62 0 1376.62 -113.27 1302.12 -225 860.62 -340 1090.12 -448.27 1270.62 -561 1381.62 -671.27 1467.62 -783 1526.62 -897 1560.12 -1012.27 1578.12 -1123.83 1578.12 -1234.33 1580.62 -1350.33 1528.12 -1463 1517.12 -1568.33 1495.62 -1682 1490.12 -1796.27 1514.12 -1906 1543.62 -2021 1565.12 -2133 1532.62 -2243 1523.62 -2355.27 1530.62 -2467.27 1544.12 -2583 1568.62 -2696 1513.12 -2807 1490.62 -2919 1498.12 -3031 1542.12 -3141.27 1567.12 -3256 1554.62 -3368 1555.62 -3476.83" fill="none" stroke="#3b4351" stroke-miterlimit="10"/><polygon id="Chinese" points="1610.76 -3478.27 1609.69 -3591.27 1608.62 -3704.33 1585.12 -3815 1551.62 -3928 1509.12 -4042 1538.12 -4152.27 1586.62 -4264.27 1616.12 -4376 1645.62 -4490.27 1697.12 -4604.27 1714.62 -4715.33 1689.12 -4827 1700.12 -4941 1676.62 -5056 1650.62 -5168.33 1630.62 -5280 1620.62 -5390.5 1646.62 -5502.5 1667.62 -5615.16 1651.62 -5725.83 1633.99 -5837.83 1768.79 -5837.83 1768.79 2362.83 1768.79 2477.73 1766.12 2589.83 1757.62 2701.83 1736.12 2814.73 1676.12 2926.73 1661.12 3037.83 1663.62 3151.66 1606.12 3151.66 1606.12 3037.73 1620.12 2926.83 1701.62 2814.83 1696.12 2701.67 1654.12 2589.83 1681.62 2477.83 1739.62 2362.73 1748.62 2249.67 1744.12 2137.67 1685.62 2023.83 1615.12 1913.17 1636.12 1801.83 1738.62 1687.83 1761.12 1572.83 1758.62 1461.83 1732.12 1349.83 1695.62 1235.83 1667.62 1124.83 1651.12 1007.83 1650.12 899.83 1620.12 788.83 1585.62 673.73 1552.62 559.73 1535.12 447.83 1516.12 336.73 1476.12 222.83 1542.12 109.83 1625.62 -0.33 1668.12 -113.33 1666.12 -225 1673.62 -340 1653.62 -448 1602.12 -561.27 1534.12 -671.27 1564.12 -783 1598.12 -897.27 1612.12 -1012 1611.01 -1123.27 1592.62 -1234.27 1609.25 -1350 1616.07 -1463 1553.62 -1568 1529.62 -1682 1528.62 -1796.27 1555.62 -1906 1612.12 -2021 1621.12 -2133 1587.12 -2243 1567.62 -2355 1576.62 -2467 1571.12 -2583 1584.62 -2696.27 1558.62 -2807 1545.62 -2919.27 1557.62 -3031.27 1599.62 -3141 1625.12 -3256.27 1613.62 -3368.27 1610.76 -3478.27" fill="none" stroke="#3b4351" stroke-miterlimit="10"/><polygon id="Teutons_-_Franks" data-name="Teutons - Franks" points="600.62 559.83 277.29 559.83 235.95 447.83 189.95 336.83 180.62 222.83 142.62 109.83 139.95 0 120.62 -113 99.95 -225 73.12 -340 73.12 -783 101.12 -671 138.62 -558.59 168.12 -448 189.69 -340 192.12 -225 257.62 -113 298.12 0 333.12 109.83 392.87 222.83 712.62 336.83 676.62 447.83 600.62 559.83" fill="none" stroke="#3b4351" stroke-miterlimit="10"/><polygon id="Teutons_-Goths" data-name="Teutons -Goths" points="712.62 336.83 392.87 222.83 333.12 109.83 298.12 0 257.62 -113 192.12 -225 189.69 -340 168.12 -448 138.62 -558.59 101.12 -671 73.12 -780.33 73.12 -2243 99.62 -2133 109.62 -2021 129.3 -1903.61 151.37 -1796 117.62 -1682 83.12 -1568 91.28 -1463 159.62 -1350 175.95 -1234 210.28 -1123 248.28 -1012 316.95 -897 410.62 -783 480.12 -671 416.12 -561 322.62 -448 328.12 -340 455.29 -225 453.95 -113 425.12 0 461.12 109.83 536.62 222.83 712.62 336.83" fill="none" stroke="#3b4351" stroke-miterlimit="10"/><polygon id="Denmark" points="916.62 3151.66 927.62 3151.66 926.37 3037.83 701.12 2926.83 690.87 2814.83 683.87 2701.83 637.87 2589.83 522.37 2477.83 457.37 2362.83 426.62 2249.83 299.62 2137.83 273.62 2023.83 281.62 1910.83 289.12 1801.83 302.12 1687.83 296.87 1572.83 275.62 1461.83 253.62 1349.83 226.62 1235.83 210.62 1124.83 199.62 899.83 199.37 788.83 291.37 673.83 277.29 559.83 235.95 447.83 188.87 336.83 180.62 222.83 142.62 109.83 139.95 0 120.62 -113 99.95 -225 73.12 -340 90.34 -225 107.12 -113 118.37 0 120.37 109.83 122.62 222.83 125.87 336.83 158.37 447.83 185.87 559.83 183.62 673.83 127.62 788.83 119.62 899.83 119.12 1007.83 156.87 1124.83 188.62 1235.83 212.62 1349.83 252.37 1461.83 277.87 1572.83 283.37 1687.83 267.12 1801.83 248.87 1910.83 213.87 2023.83 234.37 2137.83 312.12 2249.83 398.12 2362.83 458.87 2477.83 593.37 2589.83 637.87 2701.83 674.12 2814.83 691.37 2926.83 915.37 3037.83 916.62 3151.66" fill="none" stroke="#3b4351" stroke-miterlimit="10"/><polygon id="Norway" points="213.87 2023.83 222.62 1910.83 243.95 1801.83 258.95 1687.83 252.95 1572.83 220.95 1461.83 186.86 1349.83 160.95 1235.83 133.28 1124.83 96.28 1007.83 84.28 899.83 89.28 788.83 120.28 673.83 98.62 559.83 94.28 447.83 91.95 336.83 95.28 222.83 99.62 109.83 96.58 0 93.44 -113 90.34 -225 107.12 -113 118.37 0 120.37 109.83 122.62 222.83 125.87 336.83 158.37 447.83 185.87 559.83 183.62 673.83 127.62 788.83 119.62 899.83 119.12 1007.83 156.87 1124.83 188.62 1235.83 212.62 1349.83 252.37 1461.83 277.87 1572.83 283.37 1687.83 267.12 1801.83 248.87 1910.83 213.87 2023.83" fill="none" stroke="#3b4351" stroke-miterlimit="10"/><polygon id="England" points="874.62 3151.66 688.95 3151.66 687.95 3037.83 439.12 2926.83 252.12 2814.83 159.62 2701.83 111.62 2589.83 93.62 2477.83 86.12 2362.83 84.62 2249.83 86.95 2137.83 98.28 2023.83 116.95 1910.83 114.62 1801.83 122.62 1687.83 120.62 1572.83 108.28 1461.83 100.16 1349.83 107.95 1235.83 107.95 1124.83 77.28 1007.83 73.12 -340 90.34 -225 93.44 -113 96.58 0 99.62 109.83 91.95 336.83 94.28 447.83 98.62 559.83 120.28 673.83 89.28 788.83 84.28 899.83 96.28 1007.83 133.28 1124.83 160.95 1235.83 172.95 1349.83 208.95 1461.83 223.62 1572.83 228.28 1687.83 211.62 1801.83 201.62 1910.83 189.95 2023.83 193.28 2137.83 235.28 2249.83 248.62 2362.83 348.62 2477.83 562.62 2589.83 622.12 2701.83 602.12 2814.83 652.12 2926.83 872.95 3037.83 874.62 3151.66" fill="none" stroke="#3b4351" stroke-miterlimit="10"/><polygon points="1076.62 -111.58 1106.62 0.63 997.62 109.83 810.62 222.83 915.28 109.83 863.28 0 839.28 -110.16 717.28 -225 616.62 -340 748.62 -340 1022.62 -225 1076.62 -111.58" fill="none" stroke="#3b4351" stroke-miterlimit="10"/><polygon id="Islam" points="1239.87 0.5 1106.62 0.63 1076.62 -111.58 1022.62 -225 748.62 -340 1246.62 -225 1339.62 -113.27 1418.62 -0.27 1239.87 0.5" fill="none" stroke="#3b4351" stroke-miterlimit="10"/><polygon id="Lombard" points="536.62 222.83 461.12 109.83 425.12 0 453.95 -113 491.95 0 550.62 109.83 645.95 222.83 712.62 336.83 536.62 222.83" fill="none" stroke="#3b4351" stroke-miterlimit="10"/><polygon id="Moslem_Arabs_and_Persians" data-name="Moslem Arabs and Persians" points="1404.62 336.83 1418.62 447.83 1411.62 559.83 1453.62 673.83 1382.62 788.83 1328.62 899.83 1225.12 1007.83 1161.29 1124.83 1169.95 1007.83 1202.62 899.83 1213.95 788.83 1253.95 673.83 1125.95 559.83 1037.95 447.83 885.95 336.83 810.62 222.83 997.62 109.83 1106.62 0.63 1418.62 -0.27 1397.62 109.83 1367.62 222.83 1404.62 336.83" fill="none" stroke="#3b4351" stroke-miterlimit="10"/></g><g id="Text"><g id="Chinese-2" data-name="Chinese"><path d="M1639.15,23.31v.44c0,2.13.95,3.21,2.86,3.21a2.51,2.51,0,0,0,2.65-2.55c0-1.84-.93-2.65-2.5-3.11l-1.91-.67c-2.55-1-3.65-2.3-3.65-4.8,0-3.18,2.18-4.95,5.44-4.95,4.48,0,5,2.8,5,4.61v.39h-2.8v-.37c0-1.59-.68-2.52-2.45-2.52a2.23,2.23,0,0,0-2.35,2.52c0,1.5.76,2.26,2.62,3l1.89.69c2.48.88,3.55,2.2,3.55,4.63,0,3.72-2.25,5.26-5.78,5.26-4.34,0-5.32-2.89-5.32-5.34v-.41Z" fill="#3b4351"/><path d="M1656.27,27.18h-.07a3.78,3.78,0,0,1-3.38,1.88c-2,0-3.29-.9-3.29-4.31V15.54h2.65V25c0,1.47.64,2,1.79,2a2.06,2.06,0,0,0,2.16-2.21V15.54h2.64V28.72h-2.5Z" fill="#3b4351"/><path d="M1663.08,15.54l2.28,9.9h.05l2.11-9.9h2.77l-3.63,13.67c-1.05,3.6-1.86,4.09-4.61,4a4.73,4.73,0,0,1-1-.1V31a3.54,3.54,0,0,0,.86.09c.9,0,1.49-.17,1.79-1L1664,29l-3.75-13.48Z" fill="#3b4351"/><path d="M1677.81,11.22h5c5.49,0,6.18,3.58,6.18,8.75s-.69,8.75-6.18,8.75h-5Zm2.79,15.39h2.3c2.31,0,3.26-1.51,3.26-6.64,0-4.92-.83-6.64-3.26-6.64h-2.3Z" fill="#3b4351"/><path d="M1693,15.54l2.28,9.9h0l2.11-9.9h2.77l-3.63,13.67c-1,3.6-1.86,4.09-4.61,4a4.73,4.73,0,0,1-1-.1V31a3.54,3.54,0,0,0,.86.09c.9,0,1.49-.17,1.79-1l.34-1.07-3.75-13.48Z" fill="#3b4351"/><path d="M1701.69,15.54h2.5v1.54h.08a3.78,3.78,0,0,1,3.38-1.88c2,0,3.28.9,3.28,3.57v10h-2.64v-9c0-1.76-.47-2.38-1.84-2.38-1.08,0-2.11.81-2.11,2.57v8.85h-2.65Z" fill="#3b4351"/><path d="M1722.13,26c0,.49.29.93.68.93a1,1,0,0,0,.45-.08v1.72a2.86,2.86,0,0,1-1.3.32c-1.18,0-2.16-.47-2.23-1.74h0a3.41,3.41,0,0,1-3.29,1.93c-2.13,0-3.43-1.15-3.43-3.69,0-2.95,1.3-3.56,3.07-4.15l2.06-.56c1-.27,1.54-.54,1.54-1.69s-.42-2-1.81-2c-1.77,0-2,1.25-2,2.52h-2.5c0-2.82,1.15-4.33,4.63-4.33,2.33,0,4.19.9,4.19,3.23Zm-2.5-4.22a20.5,20.5,0,0,1-2.94,1.23,2.17,2.17,0,0,0-1.08,2.13c0,1.1.54,2,1.64,2,1.6,0,2.38-1.17,2.38-3.13Z" fill="#3b4351"/><path d="M1730.51,19.38V19c0-1.05-.37-2-1.74-2-1.06,0-1.89.46-1.89,1.71,0,1.06.47,1.45,1.86,1.94l1.69.59c2,.66,2.87,1.71,2.87,3.8,0,2.81-2.08,4-4.73,4-3.33,0-4.34-1.54-4.34-4.09v-.49h2.36v.42c0,1.54.51,2.35,2.05,2.35s2.16-.73,2.16-1.93a1.91,1.91,0,0,0-1.45-1.94l-2.15-.76c-2-.66-2.82-1.69-2.82-3.8,0-2.47,1.76-3.62,4.51-3.62,3.36,0,4.12,2,4.12,3.6v.58Z" fill="#3b4351"/><path d="M1734.08,15.54h1.82V11.79h2.64v3.75h2.16v2h-2.16v7.87c0,1.05.3,1.39,1.2,1.39a5,5,0,0,0,1-.07v2a9,9,0,0,1-2.13.22c-1.77,0-2.67-.52-2.67-3.19V17.5h-1.82Z" fill="#3b4351"/><path d="M1743.83,15.54l2.28,9.9h.05l2.11-9.9H1751l-3.63,13.67c-1.05,3.6-1.86,4.09-4.6,4a4.76,4.76,0,0,1-1.06-.1V31a3.59,3.59,0,0,0,.86.09c.91,0,1.49-.17,1.79-1l.34-1.07L1741,15.54Z" fill="#3b4351"/></g><g id="Teutons_-_goths" data-name="Teutons - goths"><path d="M338.78,69.83h3l3,14h.05l3.14-14h3l-4.41,17.5H342.9Z" fill="#3b4351"/><path d="M352.11,69.64h2.65v2.64h-2.65Zm0,4.51h2.65V87.33h-2.65Z" fill="#3b4351"/><path d="M363.11,78v-.34c0-1.05-.37-2-1.74-2-1.05,0-1.89.46-1.89,1.71,0,1,.47,1.45,1.87,1.94l1.69.59c2,.66,2.86,1.71,2.86,3.79,0,2.82-2.08,4-4.73,4-3.33,0-4.33-1.54-4.33-4.09v-.49h2.35v.42c0,1.54.51,2.35,2.06,2.35s2.15-.74,2.15-1.94A1.91,1.91,0,0,0,362,82l-2.16-.76c-2-.66-2.82-1.69-2.82-3.8,0-2.48,1.77-3.63,4.51-3.63,3.36,0,4.12,2,4.12,3.6V78Z" fill="#3b4351"/><path d="M368,69.64h2.65v2.64H368Zm0,4.51h2.65V87.33H368Z" fill="#3b4351"/><path d="M373.13,79h6.42v2.5h-6.42Z" fill="#3b4351"/><path d="M390.75,85.3h-.05a3.64,3.64,0,0,1-3.83,2.37c-3.82,0-5.19-2.84-5.19-9.09s1.76-9.09,5.81-9.09a4.77,4.77,0,0,1,5.12,5.05v.32H390v-.42c0-1.3-.54-2.84-2.45-2.84s-3,1.32-3,6.91.93,7.06,2.82,7.06c2.13,0,2.92-1.52,2.92-5.35h-2.94v-2.1h5.58v9.21h-2.1Z" fill="#3b4351"/><path d="M394.57,80.74c0-4.12,1.07-6.94,4.9-6.94s4.92,2.82,4.92,6.94-1.27,6.93-4.92,6.93S394.57,84.85,394.57,80.74Zm4.9,5c1.93,0,2.28-1.62,2.28-5,0-2.92-.35-5-2.28-5s-2.26,2.06-2.26,5C397.21,84.09,397.58,85.71,399.47,85.71Z" fill="#3b4351"/><path d="M405.25,74.15h1.81V70.4h2.65v3.75h2.15v2h-2.15V84c0,1.06.29,1.4,1.2,1.4a5.87,5.87,0,0,0,.95-.07v2a8.93,8.93,0,0,1-2.13.22c-1.76,0-2.67-.52-2.67-3.19V76.11h-1.81Z" fill="#3b4351"/><path d="M413.23,69.83h2.65v5.74l.07.05a3.76,3.76,0,0,1,3.24-1.82c2,0,3.28.91,3.28,3.58v10h-2.64v-9c0-1.74-.49-2.38-1.84-2.38-1.08,0-2.11.83-2.11,2.57v8.85h-2.65Z" fill="#3b4351"/><path d="M430.7,78v-.34c0-1.05-.36-2-1.74-2-1,0-1.88.46-1.88,1.71,0,1,.46,1.45,1.86,1.94l1.69.59c2,.66,2.87,1.71,2.87,3.79,0,2.82-2.09,4-4.73,4-3.34,0-4.34-1.54-4.34-4.09v-.49h2.35v.42c0,1.54.52,2.35,2.06,2.35s2.16-.74,2.16-1.94A1.91,1.91,0,0,0,429.55,82l-2.15-.76c-2-.66-2.82-1.69-2.82-3.8,0-2.48,1.76-3.63,4.51-3.63,3.35,0,4.11,2,4.11,3.6V78Z" fill="#3b4351"/></g></g></svg>