<svg xmlns="http://www.w3.org/2000/svg" viewBox="0 0 1847.91 113"><title>ce0600text</title><g id="YEARS"><g id="Right"><path d="M1796.6,95.92c0-1.06-.52-2.39-2-2.39-2.78,0-2.93,3.64-2.93,6.34l.07.06a3.77,3.77,0,0,1,3.59-2c2.52,0,4.55,1.81,4.55,5.48,0,4.24-1.77,6.76-5.64,6.76-4.65,0-5.54-3.53-5.54-8.81,0-5.51,1-10,5.88-10,3.25,0,5,1.43,5,4.47Zm-2.11,12.22c1.8,0,2.45-1.79,2.45-4,0-2.57-.76-4-2.45-4-2.18,0-2.54,1.9-2.54,4.11S1792.75,108.14,1794.49,108.14Z"/><path d="M1806.79,91.45c3.54,0,5.51,2.21,5.51,9.39s-2,9.38-5.51,9.38-5.51-2.21-5.51-9.38S1803.26,91.45,1806.79,91.45Zm0,16.69c2,0,2.55-2,2.55-7.3s-.55-7.31-2.55-7.31-2.55,2-2.55,7.31S1804.79,108.14,1806.79,108.14Z"/><path d="M1819.27,91.45c3.54,0,5.51,2.21,5.51,9.39s-2,9.38-5.51,9.38-5.51-2.21-5.51-9.38S1815.73,91.45,1819.27,91.45Zm0,16.69c2,0,2.55-2,2.55-7.3s-.55-7.31-2.55-7.31-2.55,2-2.55,7.31S1817.27,108.14,1819.27,108.14Z"/></g><g id="left"><path d="M26.85,99.52c0-1.07-.52-2.39-2-2.39-2.78,0-2.93,3.64-2.93,6.34l.07,0a3.79,3.79,0,0,1,3.59-2c2.52,0,4.55,1.82,4.55,5.49,0,4.24-1.77,6.76-5.64,6.76-4.65,0-5.54-3.53-5.54-8.81,0-5.52,1-10,5.88-10,3.25,0,5,1.43,5,4.47Zm-2.11,12.22c1.8,0,2.45-1.79,2.45-3.95,0-2.58-.76-4-2.45-4-2.18,0-2.54,1.9-2.54,4.11S23,111.74,24.74,111.74Z"/><path d="M37,95.05c3.54,0,5.51,2.21,5.51,9.38s-2,9.39-5.51,9.39-5.51-2.21-5.51-9.39S33.51,95.05,37,95.05Zm0,16.69c2,0,2.55-2,2.55-7.31S39,97.13,37,97.13s-2.55,2-2.55,7.3S35,111.74,37,111.74Z"/><path d="M49.52,95.05c3.54,0,5.51,2.21,5.51,9.38s-2,9.39-5.51,9.39S44,111.61,44,104.43,46,95.05,49.52,95.05Zm0,16.69c2,0,2.55-2,2.55-7.31s-.55-7.3-2.55-7.3-2.55,2-2.55,7.3S47.52,111.74,49.52,111.74Z"/></g></g><g id="Text"><g id="Romans"><path d="M620.67,7.93h5.66c2.63,0,4.71,1.18,4.71,4.24,0,2.11-.86,3.44-2.57,4v.05c1.91.35,3.13,1.5,3.13,4.46s-2.1,4.78-5.39,4.78h-5.54Zm5,7.38a2.46,2.46,0,0,0,2.58-2.77c0-2.08-1.25-2.5-2.82-2.5h-2v5.27Zm.57,8c1.66,0,2.57-1.05,2.57-3.08a2.65,2.65,0,0,0-2.75-3h-2.59v6.05Z" fill="#3b4351"/><path d="M635.42,12.25l2.28,9.9h0l2.11-9.9h2.77L639,25.92c-1,3.6-1.86,4.09-4.61,4a4.73,4.73,0,0,1-1-.1v-2.1a3.54,3.54,0,0,0,.86.09c.9,0,1.49-.17,1.79-1l.34-1.07-3.75-13.48Z" fill="#3b4351"/><path d="M643.43,23.37l5.76-8.89h-5.41V12.25h8.4v2.18l-5.54,8.77h5.54v2.23h-8.75Z" fill="#3b4351"/><path d="M662.72,22.69c0,.49.29.93.68.93a1,1,0,0,0,.45-.08v1.72a2.86,2.86,0,0,1-1.3.32c-1.18,0-2.16-.47-2.23-1.74h-.05A3.41,3.41,0,0,1,657,25.77c-2.13,0-3.43-1.15-3.43-3.7,0-2.94,1.3-3.55,3.07-4.14l2-.56c1-.27,1.55-.54,1.55-1.69s-.42-2-1.82-2c-1.76,0-2,1.25-2,2.52h-2.5c0-2.82,1.15-4.34,4.63-4.34,2.33,0,4.19.91,4.19,3.24Zm-2.5-4.22a21.71,21.71,0,0,1-2.94,1.23,2.16,2.16,0,0,0-1.08,2.13c0,1.1.54,2,1.64,2,1.59,0,2.38-1.17,2.38-3.13Z" fill="#3b4351"/><path d="M665.41,12.25h2.5v1.54H668a3.81,3.81,0,0,1,3.39-1.89c2,0,3.28.91,3.28,3.58v10H672v-9c0-1.77-.46-2.38-1.84-2.38-1.07,0-2.1.81-2.1,2.57v8.85h-2.65Z" fill="#3b4351"/><path d="M676,12.25h1.81V8.5h2.65v3.75h2.15v2h-2.15v7.86c0,1.06.29,1.4,1.2,1.4a4.91,4.91,0,0,0,1-.07v2a8.93,8.93,0,0,1-2.13.22c-1.76,0-2.67-.52-2.67-3.19V14.21H676Z" fill="#3b4351"/><path d="M684.13,7.74h2.64v2.64h-2.64Zm0,4.51h2.64V25.43h-2.64Z" fill="#3b4351"/><path d="M689.44,12.25h2.5v1.54H692a3.79,3.79,0,0,1,3.38-1.89c2,0,3.28.91,3.28,3.58v10H696v-9c0-1.77-.47-2.38-1.84-2.38-1.08,0-2.11.81-2.11,2.57v8.85h-2.65Z" fill="#3b4351"/><path d="M703.51,19.18v.76c0,1.77.22,4,2.2,4s2.11-2.13,2.11-2.94h2.5c0,3-1.76,4.75-4.63,4.75-2.16,0-4.83-.63-4.83-6.73,0-3.46.76-7.14,4.88-7.14,3.67,0,4.65,2.23,4.65,5.89v1.39Zm4.24-1.81v-.71c0-1.67-.54-2.94-2-2.94-1.66,0-2.2,1.66-2.2,3.38v.27Z" fill="#3b4351"/><path d="M718.62,7.93h9.46v2.36h-6.66v4.85h6.27v2.35h-6.27v5.59h6.86v2.35h-9.66Z" fill="#3b4351"/><path d="M730.36,12.25h2.5v1.54h.07a3.7,3.7,0,0,1,3.16-1.89,2.88,2.88,0,0,1,3.07,2,3.61,3.61,0,0,1,3.33-2c1.86,0,3.21,1,3.21,3.51v10h-2.65v-9c0-1.74-.51-2.38-1.59-2.38s-2.11.84-2.11,2.57v8.85H736.7v-9c0-1.74-.51-2.38-1.61-2.38s-2.09.86-2.09,2.57v8.85h-2.64Z" fill="#3b4351"/><path d="M754.05,25.77a3,3,0,0,1-3-1.88h0v5.85h-2.64V12.25h2.5v1.62h0a3.14,3.14,0,0,1,3-2c3,0,4.24,2.58,4.24,7.11C758.12,24.55,755.89,25.77,754.05,25.77ZM753.1,14c-1.82,0-2.23,1.84-2.23,4.68,0,3.16.39,5,2.25,5,1.49,0,2.21-1.13,2.21-4.78C755.33,15.9,755,14,753.1,14Z" fill="#3b4351"/><path d="M760.27,7.74h2.65v2.64h-2.65Zm0,4.51h2.65V25.43h-2.65Z" fill="#3b4351"/><path d="M765.59,12.25h2.64v2.06h0a3.27,3.27,0,0,1,3.07-2.41,1.5,1.5,0,0,1,.63.1v2.7a3.42,3.42,0,0,0-1.1-.15c-1.2,0-2.65.54-2.65,3v7.89h-2.64Z" fill="#3b4351"/><path d="M775.44,19.18v.76c0,1.77.22,4,2.2,4s2.11-2.13,2.11-2.94h2.5c0,3-1.76,4.75-4.63,4.75-2.16,0-4.83-.63-4.83-6.73,0-3.46.76-7.14,4.88-7.14,3.67,0,4.65,2.23,4.65,5.89v1.39Zm4.24-1.81v-.71c0-1.67-.54-2.94-2-2.94-1.66,0-2.2,1.66-2.2,3.38v.27Z" fill="#3b4351"/></g><g id="Islam"><path d="M1153.23,29.75h4.36l3.09,13h0l3-13H1168V47.24h-2.65V32.69h-.05l-3.53,14.55h-2.35l-3.53-14.55h-.05V47.24h-2.64Z" fill="#3b4351"/><path d="M1170.23,40.65c0-4.11,1.08-6.93,4.9-6.93s4.93,2.82,4.93,6.93-1.28,6.94-4.93,6.94S1170.23,44.77,1170.23,40.65Zm4.9,5c1.94,0,2.28-1.62,2.28-5,0-2.91-.34-5-2.28-5s-2.25,2.06-2.25,5C1172.88,44,1173.24,45.63,1175.13,45.63Z" fill="#3b4351"/><path d="M1182.09,29.75h2.64v5.73l.08.05a3.76,3.76,0,0,1,3.23-1.81c2,0,3.29.9,3.29,3.57v10h-2.65v-9c0-1.74-.49-2.37-1.84-2.37-1.08,0-2.11.83-2.11,2.57v8.84h-2.64Z" fill="#3b4351"/><path d="M1202.52,44.5c0,.49.3.93.69.93a1,1,0,0,0,.44-.07v1.71a2.83,2.83,0,0,1-1.3.32c-1.18,0-2.16-.46-2.23-1.74h0a3.4,3.4,0,0,1-3.28,1.94c-2.13,0-3.43-1.15-3.43-3.7,0-2.94,1.3-3.56,3.06-4.14l2.06-.57c1-.27,1.54-.54,1.54-1.69s-.41-2-1.81-2c-1.77,0-2,1.25-2,2.52h-2.5c0-2.81,1.15-4.33,4.63-4.33,2.33,0,4.19.9,4.19,3.23Zm-2.5-4.21a21.14,21.14,0,0,1-2.94,1.22,2.17,2.17,0,0,0-1.08,2.13c0,1.11.54,2,1.65,2,1.59,0,2.37-1.18,2.37-3.14Z" fill="#3b4351"/><path d="M1205.34,34.06h2.5V35.6h.07a3.69,3.69,0,0,1,3.16-1.88,2.87,2.87,0,0,1,3.07,2,3.57,3.57,0,0,1,3.33-2c1.86,0,3.21,1,3.21,3.5v10H1218v-9c0-1.74-.51-2.37-1.59-2.37s-2.11.83-2.11,2.57v8.84h-2.65v-9c0-1.74-.51-2.37-1.61-2.37s-2.09.85-2.09,2.57v8.84h-2.64Z" fill="#3b4351"/><path d="M1223.47,34.06h2.5V35.6h.07a3.69,3.69,0,0,1,3.16-1.88,2.87,2.87,0,0,1,3.07,2,3.57,3.57,0,0,1,3.33-2c1.86,0,3.21,1,3.21,3.5v10h-2.65v-9c0-1.74-.51-2.37-1.59-2.37s-2.11.83-2.11,2.57v8.84h-2.65v-9c0-1.74-.51-2.37-1.61-2.37s-2.09.85-2.09,2.57v8.84h-2.64Z" fill="#3b4351"/><path d="M1250.13,44.5c0,.49.29.93.68.93a1,1,0,0,0,.44-.07v1.71a2.83,2.83,0,0,1-1.3.32c-1.17,0-2.15-.46-2.23-1.74h0a3.4,3.4,0,0,1-3.28,1.94c-2.13,0-3.43-1.15-3.43-3.7,0-2.94,1.3-3.56,3.06-4.14l2.06-.57c1-.27,1.55-.54,1.55-1.69s-.42-2-1.82-2c-1.76,0-2,1.25-2,2.52h-2.5c0-2.81,1.15-4.33,4.63-4.33,2.33,0,4.2.9,4.2,3.23Zm-2.5-4.21a21.79,21.79,0,0,1-3,1.22,2.18,2.18,0,0,0-1.07,2.13c0,1.11.54,2,1.64,2,1.59,0,2.38-1.18,2.38-3.14Z" fill="#3b4351"/><path d="M1259.56,45.63h0a2.83,2.83,0,0,1-2.89,2c-3.07,0-4.32-2.6-4.32-7.11,0-5.86,2.06-6.76,4.07-6.76a3,3,0,0,1,3,1.88h.05V29.75h2.65V47.24h-2.5Zm-2.4-9.8c-1.5,0-2.06,1.22-2.06,4.77,0,3,.36,4.88,2.23,4.88s2.23-1.84,2.23-4.68C1259.56,37.64,1259.21,35.83,1257.16,35.83Z" fill="#3b4351"/><path d="M1112.74,82h2.8v17.5h-2.8Z" fill="#3b4351"/><path d="M1120.46,94.06v.44c0,2.13,1,3.21,2.87,3.21a2.51,2.51,0,0,0,2.65-2.55c0-1.84-.94-2.64-2.5-3.11l-1.92-.66c-2.54-1-3.65-2.31-3.65-4.8,0-3.19,2.18-5,5.44-5,4.49,0,5,2.79,5,4.6v.39h-2.79v-.36c0-1.6-.69-2.53-2.45-2.53a2.23,2.23,0,0,0-2.35,2.53c0,1.49.76,2.25,2.62,3l1.89.69c2.47.88,3.55,2.2,3.55,4.63,0,3.73-2.26,5.27-5.79,5.27-4.33,0-5.31-2.89-5.31-5.34v-.42Z" fill="#3b4351"/><path d="M1130.7,82h2.79V97.12h6.77v2.36h-9.56Z" fill="#3b4351"/><path d="M1145.21,82h3.57l4.61,17.5h-2.92l-1.07-4.29h-5.13l-1.12,4.29h-2.92Zm3.72,11-2-8.63h-.05L1144.79,93Z" fill="#3b4351"/><path d="M1154.61,82H1159l3.09,13h0l3-13h4.26v17.5h-2.64V84.92h0l-3.53,14.56h-2.35l-3.53-14.56h0V99.48h-2.65Z" fill="#3b4351"/></g></g></svg>