<svg xmlns="http://www.w3.org/2000/svg" viewBox="0 0 1847.91 113"><title>ce0700text</title><g id="YEARS"><g id="Right"><path d="M1788.85,91.18h10.92v2.35a32.18,32.18,0,0,0-5.8,15.7h-3.12a31.47,31.47,0,0,1,6.06-15.39h-8.06Z" fill="#3b4351"/><path d="M1806.79,90.82c3.54,0,5.51,2.21,5.51,9.39s-2,9.38-5.51,9.38-5.51-2.21-5.51-9.38S1803.26,90.82,1806.79,90.82Zm0,16.69c2,0,2.55-2,2.55-7.3s-.55-7.31-2.55-7.31-2.55,2-2.55,7.31S1804.79,107.51,1806.79,107.51Z" fill="#3b4351"/><path d="M1819.27,90.82c3.54,0,5.51,2.21,5.51,9.39s-2,9.38-5.51,9.38-5.51-2.21-5.51-9.38S1815.73,90.82,1819.27,90.82Zm0,16.69c2,0,2.55-2,2.55-7.3s-.55-7.31-2.55-7.31-2.55,2-2.55,7.31S1817.27,107.51,1819.27,107.51Z" fill="#3b4351"/></g><g id="left"><path d="M19.1,94.78H30v2.34a32.25,32.25,0,0,0-5.8,15.71H21.1a31.47,31.47,0,0,1,6.06-15.39H19.1Z" fill="#3b4351"/><path d="M37,94.42c3.54,0,5.51,2.21,5.51,9.39s-2,9.38-5.51,9.38-5.51-2.21-5.51-9.38S33.51,94.42,37,94.42Zm0,16.69c2,0,2.55-2,2.55-7.3S39,96.5,37,96.5s-2.55,2-2.55,7.31S35,111.11,37,111.11Z" fill="#3b4351"/><path d="M49.52,94.42c3.54,0,5.51,2.21,5.51,9.39s-2,9.38-5.51,9.38S44,111,44,103.81,46,94.42,49.52,94.42Zm0,16.69c2,0,2.55-2,2.55-7.3s-.55-7.31-2.55-7.31-2.55,2-2.55,7.31S47.52,111.11,49.52,111.11Z" fill="#3b4351"/><path d="M26.85-14.11c0-1.06-.52-2.39-2-2.39-2.78,0-2.93,3.64-2.93,6.34l.07.06a3.77,3.77,0,0,1,3.59-2c2.52,0,4.55,1.82,4.55,5.48,0,4.24-1.77,6.76-5.64,6.76C19.86.19,19-3.34,19-8.62c0-5.51,1-10,5.88-10,3.25,0,5,1.43,5,4.47ZM24.74-1.89c1.8,0,2.45-1.79,2.45-3.95,0-2.57-.76-4-2.45-4-2.18,0-2.54,1.9-2.54,4.11S23-1.89,24.74-1.89Z" fill="#3b4351"/><path d="M31.63-5.14h2.81v.5A2.36,2.36,0,0,0,36.86-2c2.08,0,2.63-2,2.63-4.19s-.58-3.93-2.47-3.93A2.35,2.35,0,0,0,34.6-8.47L32-8.57l.91-9.65h8.87v2.37H35.09L34.49-11l.06,0a4,4,0,0,1,3.09-1.43c3.85,0,4.81,3.25,4.81,6.08,0,3.69-1.69,6.5-5.67,6.5-3.3,0-5.15-1.69-5.15-4.94Z" fill="#3b4351"/><path d="M49.52-18.58c3.54,0,5.51,2.21,5.51,9.39S53.06.19,49.52.19,44-2,44-9.19,46-18.58,49.52-18.58Zm0,16.69c2,0,2.55-2,2.55-7.3s-.55-7.31-2.55-7.31S47-14.52,47-9.19,47.52-1.89,49.52-1.89Z" fill="#3b4351"/></g></g><g id="Text"><g id="Indians"><path d="M1419.57,14.83h2.8v17.5h-2.8Z" fill="#3b4351"/><path d="M1425.13,14.83h3.41l5.07,13h.05v-13h2.65v17.5h-3.41L1427.83,19h0V32.33h-2.65Z" fill="#3b4351"/><path d="M1439.2,14.83h5c5.49,0,6.18,3.58,6.18,8.75s-.69,8.75-6.18,8.75h-5ZM1442,30.22h2.3c2.31,0,3.26-1.52,3.26-6.64,0-4.93-.83-6.64-3.26-6.64H1442Z" fill="#3b4351"/><path d="M1452.7,14.83h2.79v17.5h-2.79Z" fill="#3b4351"/><path d="M1461.56,14.83h3.58l4.61,17.5h-2.92L1465.76,28h-5.13l-1.12,4.29h-2.92Zm3.73,11-2-8.63h0l-2.08,8.63Z" fill="#3b4351"/></g><g id="Chinese"><path d="M1601.6,38.24h-4.17V35.89h11v2.35h-4.09V53.39h-2.79Z" fill="#3b4351"/><path d="M1610.17,35.89h2.8v3.24c0,2-.64,3.35-2.8,3.77V41.48a1.84,1.84,0,0,0,1.23-2v-.36h-1.23Z" fill="#3b4351"/><path d="M1624.43,50.64c0,.49.3.94.69.94a1,1,0,0,0,.44-.08v1.72a2.83,2.83,0,0,1-1.3.32c-1.17,0-2.16-.47-2.23-1.74h0a3.41,3.41,0,0,1-3.28,1.93c-2.13,0-3.43-1.15-3.43-3.7,0-2.94,1.3-3.55,3.06-4.14l2.06-.56c1-.27,1.54-.54,1.54-1.7s-.41-2-1.81-2c-1.76,0-2,1.25-2,2.53h-2.5c0-2.82,1.15-4.34,4.63-4.34,2.33,0,4.19.91,4.19,3.24Zm-2.5-4.21a20,20,0,0,1-2.94,1.22,2.18,2.18,0,0,0-1.08,2.14c0,1.1.54,2,1.65,2,1.59,0,2.37-1.18,2.37-3.14Z" fill="#3b4351"/><path d="M1627.13,40.2h2.5v1.55h.07a3.77,3.77,0,0,1,3.38-1.89c2,0,3.28.91,3.28,3.58v10h-2.64v-9c0-1.77-.47-2.38-1.84-2.38-1.08,0-2.11.81-2.11,2.57v8.85h-2.64Z" fill="#3b4351"/><path d="M1641.56,54.52a1.72,1.72,0,0,0,1.91,1.56,2.18,2.18,0,0,0,2.23-2.47V51.48h0a3.19,3.19,0,0,1-3,1.81c-3.06,0-4-3-4-6.64,0-2.89.44-6.79,4.19-6.79a2.93,2.93,0,0,1,2.9,2h0V40.2h2.49V52.75c0,3.21-1.37,5.15-4.92,5.15-3.92,0-4.36-2.31-4.36-3.38Zm1.86-3.34c2.06,0,2.28-2.59,2.28-4.68s-.27-4.53-2.11-4.53-2.23,2-2.23,4.41C1641.36,48.63,1641.46,51.18,1643.42,51.18Z" fill="#3b4351"/><path d="M1656.75,35.89h5c5.49,0,6.17,3.58,6.17,8.75s-.68,8.75-6.17,8.75h-5Zm2.79,15.39h2.3c2.31,0,3.26-1.52,3.26-6.64,0-4.93-.83-6.64-3.26-6.64h-2.3Z" fill="#3b4351"/><path d="M1672,40.2l2.28,9.9h0l2.11-9.9h2.76l-3.62,13.68c-1.06,3.6-1.86,4.09-4.61,4a5.26,5.26,0,0,1-1-.1V55.69a3.09,3.09,0,0,0,.85.1c.91,0,1.5-.17,1.79-1l.35-1.08-3.75-13.48Z" fill="#3b4351"/><path d="M1680.63,40.2h2.5v1.55h.08a3.77,3.77,0,0,1,3.38-1.89c2,0,3.28.91,3.28,3.58v10h-2.64v-9c0-1.77-.47-2.38-1.84-2.38-1.08,0-2.11.81-2.11,2.57v8.85h-2.65Z" fill="#3b4351"/><path d="M1701.07,50.64c0,.49.29.94.68.94a1,1,0,0,0,.45-.08v1.72a2.86,2.86,0,0,1-1.3.32c-1.18,0-2.16-.47-2.23-1.74h-.05a3.42,3.42,0,0,1-3.29,1.93c-2.13,0-3.43-1.15-3.43-3.7,0-2.94,1.3-3.55,3.07-4.14l2-.56c1-.27,1.55-.54,1.55-1.7s-.42-2-1.82-2c-1.76,0-2,1.25-2,2.53h-2.5c0-2.82,1.15-4.34,4.63-4.34,2.33,0,4.19.91,4.19,3.24Zm-2.5-4.21a20.45,20.45,0,0,1-2.94,1.22,2.18,2.18,0,0,0-1.08,2.14c0,1.1.54,2,1.64,2,1.59,0,2.38-1.18,2.38-3.14Z" fill="#3b4351"/><path d="M1709.45,44.05v-.34c0-1.05-.37-2-1.74-2-1.06,0-1.89.47-1.89,1.72,0,1,.46,1.45,1.86,1.94l1.69.58c2,.67,2.87,1.72,2.87,3.8,0,2.82-2.08,4-4.73,4-3.33,0-4.34-1.54-4.34-4.09v-.49h2.35v.42c0,1.54.52,2.35,2.06,2.35s2.16-.74,2.16-1.94a1.91,1.91,0,0,0-1.45-1.93l-2.15-.76c-2-.67-2.82-1.69-2.82-3.8,0-2.48,1.76-3.63,4.51-3.63,3.36,0,4.12,2,4.12,3.6v.59Z" fill="#3b4351"/><path d="M1713,40.2h1.81V36.46h2.65V40.2h2.16v2h-2.16V50c0,1,.3,1.4,1.2,1.4a5,5,0,0,0,1-.08v2a8.5,8.5,0,0,1-2.13.23c-1.77,0-2.68-.52-2.68-3.19V42.16H1713Z" fill="#3b4351"/><path d="M1722.77,40.2l2.28,9.9h0l2.11-9.9H1730l-3.63,13.68c-1,3.6-1.86,4.09-4.61,4a5.41,5.41,0,0,1-1-.1V55.69a3.11,3.11,0,0,0,.86.1c.9,0,1.49-.17,1.79-1l.34-1.08-3.75-13.48Z" fill="#3b4351"/></g><g id="Lombards"><path d="M531.74,65.05h2.8V80.2h6.76v2.35h-9.56Z" fill="#3b4351"/><path d="M542.52,73.8c0-6.25,1.77-9.09,5.78-9.09s5.79,2.84,5.79,9.09-1.77,9.09-5.79,9.09S542.52,80.05,542.52,73.8Zm8.77-.07c0-5.88-1.32-6.91-3-6.91s-3,1-3,6.91,1.33,7.06,3,7.06S551.29,79.73,551.29,73.73Z" fill="#3b4351"/><path d="M556.56,65.05h4.36L564,78h0l3-13h4.26v17.5h-2.65V68h0l-3.53,14.56h-2.36L559.26,68h0V82.55h-2.65Z" fill="#3b4351"/><path d="M574.25,65.05h5.66c2.62,0,4.7,1.18,4.7,4.24,0,2.11-.85,3.43-2.57,4v0c1.91.34,3.14,1.5,3.14,4.46s-2.11,4.78-5.39,4.78h-5.54Zm5,7.38a2.45,2.45,0,0,0,2.57-2.77c0-2.08-1.25-2.5-2.82-2.5h-2v5.27Zm.56,8c1.67,0,2.57-1,2.57-3.09a2.65,2.65,0,0,0-2.74-3H577v6Z" fill="#3b4351"/><path d="M590.71,65.05h3.58l4.61,17.5H596l-1.08-4.29h-5.12l-1.13,4.29h-2.91Zm3.73,11-2-8.63h0L590.3,76Z" fill="#3b4351"/><path d="M600.12,65.05h6.18c2.45,0,4.43,1.25,4.43,4.51,0,2.26-1,4-2.92,4.29v.05c1.77.17,2.65,1.13,2.75,3.58,0,1.15,0,2.5.1,3.55a1.89,1.89,0,0,0,.83,1.52h-3.16a3,3,0,0,1-.47-1.54c-.05-.52-.07-1.06-.07-1.57s0-1.11,0-1.74c-.07-1.91-.66-2.75-2.55-2.75h-2.28v7.6h-2.79Zm5,7.8a2.59,2.59,0,0,0,2.8-2.85c0-1.86-.79-2.84-2.65-2.84h-2.38v5.69Z" fill="#3b4351"/><path d="M613.28,65.05h5c5.49,0,6.18,3.58,6.18,8.75s-.69,8.75-6.18,8.75h-5Zm2.79,15.39h2.3c2.31,0,3.26-1.52,3.26-6.64,0-4.93-.83-6.64-3.26-6.64h-2.3Z" fill="#3b4351"/><path d="M629.06,77.13v.44c0,2.14,1,3.22,2.86,3.22a2.51,2.51,0,0,0,2.65-2.55c0-1.84-.93-2.65-2.5-3.12l-1.91-.66c-2.55-1-3.65-2.3-3.65-4.8,0-3.19,2.18-5,5.44-5,4.48,0,4.95,2.79,4.95,4.61v.39h-2.8v-.37c0-1.59-.68-2.52-2.45-2.52a2.23,2.23,0,0,0-2.35,2.52c0,1.5.76,2.26,2.62,3l1.89.68c2.47.88,3.55,2.21,3.55,4.63,0,3.73-2.25,5.27-5.78,5.27-4.34,0-5.32-2.89-5.32-5.34v-.42Z" fill="#3b4351"/></g><g id="Islam"><path d="M937.72,86.46h4.36l3.09,13h.05l3-13h4.27V104h-2.65V89.4h0L946.29,104h-2.35L940.41,89.4h0V104h-2.64Z" fill="#3b4351"/><path d="M955,95.2c0-6.24,1.76-9.09,5.78-9.09s5.79,2.85,5.79,9.09-1.77,9.09-5.79,9.09S955,101.45,955,95.2Zm8.77-.07c0-5.88-1.32-6.91-3-6.91s-3,1-3,6.91,1.33,7.06,3,7.06S963.76,101.13,963.76,95.13Z" fill="#3b4351"/><path d="M971.18,98.54V99c0,2.13,1,3.21,2.87,3.21a2.51,2.51,0,0,0,2.65-2.55c0-1.84-.93-2.65-2.5-3.11l-1.91-.66c-2.55-1-3.65-2.31-3.65-4.81,0-3.18,2.18-5,5.44-5,4.48,0,4.95,2.8,4.95,4.61v.39h-2.8v-.37c0-1.59-.68-2.52-2.45-2.52a2.23,2.23,0,0,0-2.35,2.52c0,1.5.76,2.26,2.62,3l1.89.68c2.47.89,3.55,2.21,3.55,4.64,0,3.72-2.25,5.26-5.78,5.26-4.34,0-5.32-2.89-5.32-5.34v-.41Z" fill="#3b4351"/><path d="M981.42,86.46h2.8V101.6H991V104h-9.56Z" fill="#3b4351"/><path d="M992.62,86.46h9.46v2.35h-6.67v4.85h6.28V96h-6.28v5.59h6.86V104h-9.65Z" fill="#3b4351"/><path d="M1004.4,86.46h4.37l3.08,13h0l3-13h4.27V104h-2.65V89.4h0L1013,104h-2.35L1007.1,89.4h-.05V104h-2.65Z" fill="#3b4351"/><path d="M1030.37,86.46H1034l4.61,17.49h-2.92l-1.08-4.29h-5.12l-1.12,4.29h-2.92Zm3.73,11-2-8.62h0L1030,97.43Z" fill="#3b4351"/><path d="M1039.78,86.46H1046c2.45,0,4.43,1.25,4.43,4.5,0,2.26-1,4-2.91,4.29v0c1.76.17,2.64,1.13,2.74,3.58,0,1.15,0,2.5.1,3.55a1.89,1.89,0,0,0,.83,1.52H1048a3,3,0,0,1-.47-1.54c0-.52-.07-1.06-.07-1.57s0-1.1,0-1.74c-.07-1.91-.66-2.74-2.55-2.74h-2.28V104h-2.79Zm5,7.79a2.58,2.58,0,0,0,2.79-2.84c0-1.87-.79-2.85-2.65-2.85h-2.38v5.69Z" fill="#3b4351"/><path d="M1056.25,86.46h3.57l4.61,17.49h-2.91l-1.08-4.29h-5.13l-1.12,4.29h-2.92Zm3.72,11-2-8.62h0l-2.08,8.62Z" fill="#3b4351"/><path d="M1065.65,86.46h5.66c2.63,0,4.71,1.17,4.71,4.23q0,3.16-2.57,4v0c1.91.35,3.13,1.5,3.13,4.46s-2.1,4.78-5.39,4.78h-5.54Zm5,7.37a2.46,2.46,0,0,0,2.58-2.77c0-2.08-1.25-2.5-2.82-2.5h-2v5.27Zm.57,8c1.66,0,2.57-1,2.57-3.08a2.65,2.65,0,0,0-2.75-3h-2.59v6Z" fill="#3b4351"/><path d="M1081,98.54V99c0,2.13,1,3.21,2.86,3.21a2.51,2.51,0,0,0,2.65-2.55c0-1.84-.93-2.65-2.5-3.11l-1.91-.66c-2.55-1-3.65-2.31-3.65-4.81,0-3.18,2.18-5,5.44-5,4.48,0,5,2.8,5,4.61v.39H1086v-.37c0-1.59-.68-2.52-2.45-2.52a2.23,2.23,0,0,0-2.35,2.52c0,1.5.76,2.26,2.62,3l1.89.68c2.47.89,3.55,2.21,3.55,4.64,0,3.72-2.25,5.26-5.78,5.26-4.34,0-5.32-2.89-5.32-5.34v-.41Z" fill="#3b4351"/><path d="M1099.81,86.46h3.57L1108,104h-2.91L1104,99.66h-5.12l-1.13,4.29h-2.92Zm3.72,11-2-8.62h0l-2.08,8.62Z" fill="#3b4351"/><path d="M1109.21,86.46h3.41l5.07,13h0v-13h2.65V104H1117l-5.07-13.38h-.05V104h-2.65Z" fill="#3b4351"/><path d="M1123.28,86.46h5c5.49,0,6.18,3.57,6.18,8.74s-.69,8.75-6.18,8.75h-5Zm2.79,15.38h2.3c2.31,0,3.26-1.51,3.26-6.64,0-4.92-.83-6.64-3.26-6.64h-2.3Z" fill="#3b4351"/><path d="M1142.78,86.46h5.54c3.35,0,4.82,2.1,4.82,5.09,0,3.14-1.86,5.17-5.12,5.17h-2.45V104h-2.79Zm2.79,8.16h2c1.49,0,2.79-.79,2.79-3,0-1.89-.76-3-3-3h-1.79Z" fill="#3b4351"/><path d="M1155,86.46h9.46v2.35h-6.67v4.85h6.28V96h-6.28v5.59h6.86V104H1155Z" fill="#3b4351"/><path d="M1166.81,86.46H1173c2.45,0,4.43,1.25,4.43,4.5,0,2.26-1,4-2.91,4.29v0c1.76.17,2.64,1.13,2.74,3.58,0,1.15,0,2.5.1,3.55a1.89,1.89,0,0,0,.83,1.52H1175a2.93,2.93,0,0,1-.46-1.54c0-.52-.08-1.06-.08-1.57s0-1.1,0-1.74c-.07-1.91-.66-2.74-2.54-2.74h-2.28V104h-2.8Zm5,7.79a2.58,2.58,0,0,0,2.79-2.84c0-1.87-.78-2.85-2.65-2.85h-2.37v5.69Z" fill="#3b4351"/><path d="M1182.13,98.54V99c0,2.13.95,3.21,2.86,3.21a2.51,2.51,0,0,0,2.65-2.55c0-1.84-.93-2.65-2.5-3.11l-1.91-.66c-2.55-1-3.65-2.31-3.65-4.81,0-3.18,2.18-5,5.44-5,4.48,0,5,2.8,5,4.61v.39h-2.8v-.37c0-1.59-.68-2.52-2.45-2.52a2.23,2.23,0,0,0-2.35,2.52c0,1.5.76,2.26,2.62,3l1.89.68c2.47.89,3.55,2.21,3.55,4.64,0,3.72-2.25,5.26-5.78,5.26-4.34,0-5.32-2.89-5.32-5.34v-.41Z" fill="#3b4351"/><path d="M1192.56,86.46h2.79V104h-2.79Z" fill="#3b4351"/><path d="M1201.43,86.46H1205l4.61,17.49h-2.92l-1.08-4.29h-5.12l-1.13,4.29h-2.91Zm3.73,11-2-8.62h-.05L1201,97.43Z" fill="#3b4351"/><path d="M1210.84,86.46h3.4l5.08,13h0v-13H1222V104h-3.4l-5.08-13.38h0V104h-2.64Z" fill="#3b4351"/><path d="M1227.06,98.54V99c0,2.13,1,3.21,2.86,3.21a2.51,2.51,0,0,0,2.65-2.55c0-1.84-.93-2.65-2.5-3.11l-1.91-.66c-2.55-1-3.65-2.31-3.65-4.81,0-3.18,2.18-5,5.44-5,4.48,0,5,2.8,5,4.61v.39h-2.8v-.37c0-1.59-.68-2.52-2.45-2.52a2.23,2.23,0,0,0-2.35,2.52c0,1.5.76,2.26,2.62,3l1.89.68c2.48.89,3.55,2.21,3.55,4.64,0,3.72-2.25,5.26-5.78,5.26-4.34,0-5.32-2.89-5.32-5.34v-.41Z" fill="#3b4351"/></g></g></svg>