<svg id="Text" xmlns="http://www.w3.org/2000/svg" viewBox="0 0 1847.91 114"><title>ce0750text</title><g id="Romans"><path d="M718.16,45h5.66c2.62,0,4.71,1.18,4.71,4.24q0,3.16-2.58,4v0c1.92.34,3.14,1.5,3.14,4.46S727,62.5,723.7,62.5h-5.54Zm5,7.38a2.45,2.45,0,0,0,2.57-2.77c0-2.08-1.25-2.5-2.81-2.5h-2v5.27Zm.56,8c1.67,0,2.58-1,2.58-3.09a2.65,2.65,0,0,0-2.75-3H721v6Z"/><path d="M734.28,55.66,729.77,45h3.12l2.94,7.55,3-7.55h2.92l-4.68,10.66V62.5h-2.8Z"/><path d="M742.1,60.29l7.32-12.94h-6.88V45h10v2.35l-7.33,12.8h7.4V62.5H742.1Z"/><path d="M757.75,45h3.58l4.61,17.5H763l-1.08-4.29h-5.12L755.7,62.5h-2.92Zm3.73,11-2-8.63h-.05L757.34,56Z"/><path d="M767.16,45h3.41l5.07,13h.05V45h2.65V62.5h-3.41l-5.07-13.38h-.05V62.5h-2.65Z"/><path d="M784.09,47.35h-4.17V45H791v2.35h-4.1V62.5h-2.79Z"/><path d="M792.44,45h2.8V62.5h-2.8Z"/><path d="M798,45h3.4l5.07,13h0V45h2.65V62.5h-3.41L800.7,49.12h-.05V62.5H798Z"/><path d="M812.07,45h9.46v2.35h-6.67v4.86h6.28v2.35h-6.28v5.59h6.86V62.5h-9.65Z"/><path d="M742,87.46h0a3.62,3.62,0,0,1-3.82,2.38c-3.82,0-5.2-2.84-5.2-9.09s1.77-9.09,5.81-9.09a4.76,4.76,0,0,1,5.12,5V77h-2.64v-.42c0-1.3-.54-2.84-2.45-2.84s-3,1.32-3,6.91.93,7,2.82,7c2.13,0,2.91-1.52,2.91-5.34h-2.94v-2.1h5.59V89.5H742Z"/><path d="M746.51,72h6.17c2.45,0,4.44,1.25,4.44,4.51,0,2.26-1,4-2.92,4.29v0C756,81,756.85,82,757,84.43c0,1.15,0,2.5.1,3.55a1.89,1.89,0,0,0,.83,1.52h-3.16a3,3,0,0,1-.47-1.54c0-.52-.07-1.06-.07-1.57s0-1.11,0-1.74c-.07-1.91-.66-2.75-2.55-2.75H749.3v7.6h-2.79Zm5,7.79a2.58,2.58,0,0,0,2.8-2.84c0-1.86-.79-2.84-2.65-2.84H749.3v5.68Z"/><path d="M759.66,72h9.46v2.35h-6.66v4.86h6.27v2.35h-6.27v5.59h6.86V89.5h-9.66Z"/><path d="M771.45,72h9.46v2.35h-6.67v4.86h6.28v2.35h-6.28v5.59h6.86V89.5h-9.65Z"/><path d="M783.23,72H786v7.62h.05L791.37,72h3.06l-5,7.38L795,89.5h-3.16l-4.24-7.87L786,83.84V89.5h-2.8Z"/><path d="M798.1,84.08v.44q0,3.21,2.87,3.21a2.51,2.51,0,0,0,2.65-2.54c0-1.84-.93-2.65-2.5-3.12l-1.91-.66c-2.55-1-3.65-2.3-3.65-4.8,0-3.19,2.18-5,5.44-5,4.48,0,5,2.79,5,4.61v.39h-2.8v-.37c0-1.59-.68-2.52-2.45-2.52a2.23,2.23,0,0,0-2.35,2.52c0,1.5.76,2.25,2.62,3l1.89.68c2.47.88,3.55,2.21,3.55,4.63,0,3.73-2.25,5.27-5.78,5.27-4.34,0-5.32-2.89-5.32-5.34v-.42Z"/></g></svg>