<svg xmlns="http://www.w3.org/2000/svg" viewBox="0 0 1847.91 113"><title>ce0700text</title><g id="YEARS"><g id="Right"><path d="M1794.14,92.62h10.92V95a32.08,32.08,0,0,0-5.8,15.7h-3.12a31.47,31.47,0,0,1,6.06-15.39h-8.06Z" fill="#3b4351"/><path d="M1812.08,92.25c3.53,0,5.51,2.21,5.51,9.39s-2,9.38-5.51,9.38-5.52-2.21-5.52-9.38S1808.54,92.25,1812.08,92.25Zm0,16.69c2,0,2.54-2,2.54-7.3s-.54-7.31-2.54-7.31-2.55,2-2.55,7.31S1810.07,108.94,1812.08,108.94Z" fill="#3b4351"/><path d="M1824.56,92.25c3.53,0,5.51,2.21,5.51,9.39s-2,9.38-5.51,9.38-5.52-2.21-5.52-9.38S1821,92.25,1824.56,92.25Zm0,16.69c2,0,2.54-2,2.54-7.3s-.54-7.31-2.54-7.31-2.55,2-2.55,7.31S1822.55,108.94,1824.56,108.94Z" fill="#3b4351"/></g><g id="left"><path d="M19.1,94.52H30v2.34a32.21,32.21,0,0,0-5.8,15.71H21.1a31.54,31.54,0,0,1,6.06-15.4H19.1Z" fill="#3b4351"/><path d="M37,94.16c3.54,0,5.51,2.21,5.51,9.38s-2,9.39-5.51,9.39-5.51-2.21-5.51-9.39S33.51,94.16,37,94.16Zm0,16.69c2,0,2.55-2,2.55-7.31S39,96.24,37,96.24s-2.55,2-2.55,7.3S35,110.85,37,110.85Z" fill="#3b4351"/><path d="M49.52,94.16c3.54,0,5.51,2.21,5.51,9.38s-2,9.39-5.51,9.39S44,110.72,44,103.54,46,94.16,49.52,94.16Zm0,16.69c2,0,2.55-2,2.55-7.31s-.55-7.3-2.55-7.3-2.55,2-2.55,7.3S47.52,110.85,49.52,110.85Z" fill="#3b4351"/><path d="M26.85-13.86c0-1.07-.52-2.39-2-2.39-2.78,0-2.93,3.64-2.93,6.34l.07.05a3.79,3.79,0,0,1,3.59-2c2.52,0,4.55,1.82,4.55,5.49,0,4.24-1.77,6.76-5.64,6.76C19.86.44,19-3.1,19-8.37c0-5.52,1-10,5.88-10,3.25,0,5,1.43,5,4.47ZM24.74-1.64c1.8,0,2.45-1.79,2.45-3.95,0-2.58-.76-4-2.45-4-2.18,0-2.54,1.9-2.54,4.11S23-1.64,24.74-1.64Z" fill="#3b4351"/><path d="M31.63-4.89h2.81v.49a2.36,2.36,0,0,0,2.42,2.61c2.08,0,2.63-2,2.63-4.19S38.91-9.91,37-9.91A2.35,2.35,0,0,0,34.6-8.22L32-8.32,32.88-18h8.87v2.37H35.09l-.6,4.83.06.06a4,4,0,0,1,3.09-1.43c3.85,0,4.81,3.25,4.81,6.08,0,3.69-1.69,6.5-5.67,6.5-3.3,0-5.15-1.69-5.15-4.94Z" fill="#3b4351"/><path d="M49.52-18.33c3.54,0,5.51,2.21,5.51,9.38S53.06.44,49.52.44,44-1.77,44-8.95,46-18.33,49.52-18.33Zm0,16.69c2,0,2.55-2,2.55-7.31s-.55-7.3-2.55-7.3S47-14.28,47-8.95,47.52-1.64,49.52-1.64Z" fill="#3b4351"/></g></g><g id="Nation_OUtlines" data-name="Nation OUtlines"><polygon id="Romans" points="854.62 1914 829.93 1801 711.95 1692 764.62 1578 729.95 1463 845.28 1352 1002.62 1240 1065.29 1126 1021.28 1015 995.34 898 815.28 790 703.28 679 687.28 564 737.95 450 780.62 338 712.62 227 645.95 113 550.62 0 491.95 -109.83 453.95 -222.83 455.29 -334.83 435.95 -449.83 470.62 -557.83 322.62 -557.83 416.12 -670.83 480.12 -780.83 410.62 -892.83 316.95 -1006.83 248.28 -1121.83 210.28 -1232.83 175.95 -1343.83 159.62 -1459.83 91.28 -1572.83 83.12 -1677.83 117.62 -1791.83 151.37 -1905.83 129.62 -2015.83 109.62 -2130.83 99.62 -2242.83 73.12 -2352.83 75.42 -3250.83 85.95 -3140.83 95.28 -3028.83 111.95 -2916.83 116.62 -2805.83 137.95 -2692.83 149.95 -2576.83 169.95 -2464.83 205.28 -2352.83 231.95 -2242.83 287.74 -2130.83 467.73 -2015.83 683.72 -1905.83 998.71 -1791.83 1118.7 -1677.83 1131.14 -1572.83 1195.2 -1459.83 1182.62 -1343.83 1245.62 -1232.83 1220.62 -1121.83 1122.62 -1006.83 981.62 -892.83 880.12 -780.83 717.95 -670.83 593.62 -557.83 616.62 -449.83 717.28 -334.83 839.28 -219.99 863.28 -109.83 915.28 0 810.62 113 885.95 227 1037.95 338 1125.95 450 1253.95 564 1213.95 679 1202.62 790 1169.95 898 1161.29 1015 1218.62 1126 1131.95 1240 936.62 1352 798.62 1463 819.28 1578 759.95 1692 849.28 1801 854.62 1914" fill="none" stroke="#3b4351" stroke-miterlimit="10"/><polygon id="Indians" points="1372.19 -3586.66 1294.19 -3700.83 1285.19 -3813.83 1313.69 -3924.83 1348.19 -4037.83 1310.69 -4151.83 1298.69 -4261.83 1313.69 -4373.83 1345.19 -4485.83 1325.69 -4599.83 1343.69 -4713.83 1417.19 -4824.83 1400.69 -4937.91 1429.19 -5050.83 1419.27 -5166.1 1387.19 -5277.83 1387.19 -5389.83 1438.19 -5500.33 1462.18 -5612.33 1480.18 -5725.37 1445.82 -5835.66 1411.11 -5947.66 1545.86 -5947.66 1580.1 -5835.66 1593.12 -5725.43 1552.12 -5612.33 1514.62 -5500.33 1514.12 -5390.16 1553.12 -5278.1 1548.12 -5165.83 1519.62 -5050.83 1534.12 -4937.16 1575.12 -4824.83 1559.62 -4713.83 1564.12 -4600.1 1534.62 -4485.83 1486.12 -4373.83 1465.12 -4261.83 1471.12 -4152.66 1502.12 -4038.66 1508.12 -3924.83 1534.62 -3813.83 1542.77 -3734.97 1555.62 -3586.66 1554.62 -3477.83 1567.12 -3365.83 1542.12 -3251.1 1498.12 -3140.83 1490.62 -3028.83 1513.12 -2916.83 1568.62 -2805.83 1544.12 -2692.83 1530.62 -2577.1 1523.62 -2465.1 1532.62 -2352.83 1565.12 -2242.83 1543.62 -2130.83 1514.12 -2015.83 1490.12 -1906.1 1495.62 -1791.83 1517.12 -1678.16 1528.12 -1572.83 1580.62 -1460.16 1578.12 -1344.16 1578.12 -1233.66 1560.12 -1122.1 1526.62 -1006.83 1467.62 -892.83 1381.62 -781.1 1270.62 -670.83 1090.12 -558.1 860.62 -449.83 1302.12 -334.83 1377.03 -222.83 1550.62 -109.83 1519.62 0 1476.12 113 1516.13 227 1534.62 339.34 1552.65 450 1585.62 563.9 1620.12 679 1650.12 790 1630.62 897.9 1622.45 1014.9 1565.62 1126 1402.62 1239.34 1173.62 1352 1148.62 1463 1334.62 1578 1283.62 1692 1344.62 1801 1544.62 1914 1602.62 2028.34 1627.62 2140 1674.62 2252.9 1627.62 2368 1634.62 2480 1686.62 2592 1701.62 2705 1620.12 2817 1606.12 2928 1606.12 3041.83 1552.62 3041.83 1549.52 2928 1569.62 2817 1683.62 2705 1667.62 2592 1607.62 2480 1596.62 2367.34 1617.62 2253 1584.62 2140 1562.62 2028 1507.62 1914 1304.62 1800.9 1225.62 1691.9 1236.97 1654.95 1264.87 1578 1082.62 1463 1084.2 1352.51 1323.62 1240 1500.47 1125.9 1573.62 1015 1600.62 898 1604.62 790 1569.62 679 1514.62 564 1447.62 449.9 1418.62 338 1404.62 227 1367.62 113 1397.62 0 1418.62 -110.1 1339.62 -223.1 1246.62 -334.83 748.62 -449.83 753.62 -557.83 910.76 -670.83 1053.62 -780.83 1195.2 -892.83 1311.62 -1007.66 1353.62 -1121.83 1348.62 -1232.83 1364.62 -1344.66 1406.62 -1459.83 1401.62 -1572.83 1429.62 -1677.83 1394.62 -1792.1 1393.2 -1905.83 1391.82 -2016.1 1437.52 -2130.83 1513.62 -2243.1 1505.64 -2352.83 1472.62 -2464.66 1447.62 -2576.83 1440.63 -2692.83 1462.62 -2805.83 1391.1 -2916.83 1348.62 -3028.83 1332.62 -3140.83 1376.98 -3250.83 1375.34 -3366.1 1373.74 -3478.1 1372.19 -3586.66" fill="none" stroke="#3b4351" stroke-miterlimit="10"/><polygon id="Huns" points="1555.62 -3586.66 1545.73 -3700.83 1533.62 -3814.16 1506.68 -3924.18 1502.16 -4037.83 1471.34 -4151.83 1465.12 -4261.83 1486.12 -4373.83 1534.62 -4485.83 1564.05 -4599.83 1559.62 -4713.83 1575.12 -4824.83 1534.24 -4936.83 1519.62 -5050.83 1548.12 -5165.83 1553.11 -5277.83 1514.47 -5390.1 1514.62 -5502.33 1552.12 -5612.33 1593.12 -5724.99 1580.1 -5835.66 1545.86 -5947.66 1633.99 -5947.66 1651.62 -5835.66 1667.62 -5724.99 1646.62 -5612.33 1620.62 -5500.33 1630.4 -5392.23 1650.62 -5278.16 1676.62 -5165.83 1700.12 -5050.83 1689.12 -4936.83 1714.62 -4825.16 1697.12 -4714.1 1645.62 -4600.1 1616.12 -4485.83 1586.62 -4374.1 1538.12 -4262.1 1509.12 -4151.83 1551.62 -4037.83 1585.12 -3924.83 1608.62 -3814.16 1609.69 -3701.1 1610.76 -3588.1 1613.62 -3478.1 1625.12 -3366.1 1599.12 -3250.16 1557.59 -3140.83 1545.65 -3028.83 1558.62 -2916.83 1584.62 -2806.1 1571.12 -2692.66 1576.62 -2576.83 1567.62 -2464.83 1587.12 -2352.83 1621.12 -2242.83 1612.12 -2130.83 1556.12 -2015.83 1528.62 -1905.83 1529.62 -1791.83 1553.62 -1677.83 1616.07 -1572.83 1609.25 -1459.83 1592.66 -1343.83 1611.01 -1233.1 1612.12 -1121.83 1598.04 -1006.83 1564.12 -892.83 1534.29 -780.83 1602.12 -671.1 1653.62 -557.83 1673.62 -449.83 1666.12 -334.83 1668.12 -223.16 1625.62 -110.16 1542.12 0 1476.12 113 1519.62 0 1550.62 -109.83 1376.62 -223.1 1302.12 -334.83 860.62 -449.83 1090.12 -558.1 1270.62 -670.83 1381.62 -781.1 1467.62 -892.83 1526.62 -1006.83 1560.12 -1122.1 1578.12 -1233.66 1578.12 -1344.16 1580.62 -1460.16 1528.12 -1572.83 1517.12 -1678.16 1495.62 -1791.83 1490.12 -1906.1 1514.12 -2015.83 1543.62 -2130.83 1565.12 -2242.83 1532.62 -2352.83 1523.62 -2465.1 1530.62 -2577.1 1544.12 -2692.83 1568.62 -2805.83 1513.12 -2916.83 1490.62 -3028.83 1498.12 -3140.83 1542.12 -3251.1 1567.12 -3365.83 1554.62 -3477.83 1555.62 -3586.66" fill="none" stroke="#3b4351" stroke-miterlimit="10"/><polygon id="Chinese" points="1610.76 -3588.1 1609.69 -3701.1 1608.62 -3814.16 1585.12 -3924.83 1551.62 -4037.83 1509.12 -4151.83 1538.12 -4262.1 1586.62 -4374.1 1616.12 -4485.83 1645.62 -4600.1 1697.12 -4714.1 1714.62 -4825.16 1689.12 -4936.83 1700.12 -5050.83 1676.62 -5165.83 1650.62 -5278.16 1630.62 -5389.83 1620.62 -5500.33 1646.62 -5612.33 1667.62 -5724.99 1651.62 -5835.66 1633.99 -5947.66 1768.79 -5947.66 1768.79 2253 1768.79 2367.9 1766.12 2480 1757.62 2592 1736.12 2704.9 1676.12 2816.9 1661.12 2928 1663.62 3041.83 1606.12 3041.83 1606.12 2927.9 1620.12 2817 1701.62 2705 1696.12 2591.84 1654.12 2480 1681.62 2368 1739.62 2252.9 1748.62 2139.84 1744.12 2027.84 1685.62 1914 1615.12 1803.34 1636.12 1692 1738.62 1578 1761.12 1463 1758.62 1352 1732.12 1240 1695.62 1126 1667.62 1015 1651.12 898 1650.12 790 1620.12 679 1585.62 563.9 1552.62 449.9 1535.12 338 1516.12 226.9 1476.12 113 1542.12 0 1625.62 -110.16 1668.12 -223.16 1666.12 -334.83 1673.62 -449.83 1653.62 -557.83 1602.12 -671.1 1534.12 -781.1 1564.12 -892.83 1598.12 -1007.1 1612.12 -1121.83 1611.01 -1233.1 1592.62 -1344.1 1609.25 -1459.83 1616.07 -1572.83 1553.62 -1677.83 1529.62 -1791.83 1528.62 -1906.1 1555.62 -2015.83 1612.12 -2130.83 1621.12 -2242.83 1587.12 -2352.83 1567.62 -2464.83 1576.62 -2576.83 1571.12 -2692.83 1584.62 -2806.1 1558.62 -2916.83 1545.62 -3029.1 1557.62 -3141.1 1599.62 -3250.83 1625.12 -3366.1 1613.62 -3478.1 1610.76 -3588.1" fill="none" stroke="#3b4351" stroke-miterlimit="10"/><polygon id="Teutons_-_Franks" data-name="Teutons - Franks" points="600.62 450 277.29 450 235.95 338 189.95 227 180.62 113 142.62 0 139.95 -109.83 120.62 -222.83 99.95 -334.83 73.12 -449.83 73.12 -892.83 101.12 -780.83 138.62 -668.41 168.12 -557.83 189.69 -449.83 192.12 -334.83 257.62 -222.83 298.12 -109.83 333.12 0 392.87 113 712.62 227 676.62 338 600.62 450" fill="none" stroke="#3b4351" stroke-miterlimit="10"/><polygon id="Teutons_-Goths" data-name="Teutons -Goths" points="712.62 227 392.87 113 333.12 0 298.12 -109.83 257.62 -222.83 192.12 -334.83 189.69 -449.83 168.12 -557.83 138.62 -668.41 101.12 -780.83 73.12 -890.16 73.12 -2352.83 99.62 -2242.83 109.62 -2130.83 129.3 -2013.44 151.37 -1905.83 117.62 -1791.83 83.12 -1677.83 91.28 -1572.83 159.62 -1459.83 175.95 -1343.83 210.28 -1232.83 248.28 -1121.83 316.95 -1006.83 410.62 -892.83 480.12 -780.83 416.12 -670.83 322.62 -557.83 328.12 -449.83 455.29 -334.83 453.95 -222.83 425.12 -109.83 461.12 0 536.62 113 712.62 227" fill="none" stroke="#3b4351" stroke-miterlimit="10"/><polygon id="Denmark" points="916.62 3041.83 927.62 3041.83 926.37 2928 701.12 2817 690.87 2705 683.87 2592 637.87 2480 522.37 2368 457.37 2253 426.62 2140 299.62 2028 273.62 1914 281.62 1801 289.12 1692 302.12 1578 296.87 1463 275.62 1352 253.62 1240 226.62 1126 210.62 1015 199.62 790 199.37 679 291.37 564 277.29 450 235.95 338 188.87 227 180.62 113 142.62 0 139.95 -109.83 120.62 -222.83 99.95 -334.83 73.12 -449.83 90.34 -334.83 107.12 -222.83 118.37 -109.83 120.37 0 122.62 113 125.87 227 158.37 338 185.87 450 183.62 564 127.62 679 119.62 790 119.12 898 156.87 1015 188.62 1126 212.62 1240 252.37 1352 277.87 1463 283.37 1578 267.12 1692 248.87 1801 213.87 1914 234.37 2028 312.12 2140 398.12 2253 458.87 2368 593.37 2480 637.87 2592 674.12 2705 691.37 2817 915.37 2928 916.62 3041.83" fill="none" stroke="#3b4351" stroke-miterlimit="10"/><polygon id="Norway" points="213.87 1914 222.62 1801 243.95 1692 258.95 1578 252.95 1463 220.95 1352 186.86 1240 160.95 1126 133.28 1015 96.28 898 84.28 790 89.28 679 120.28 564 98.62 450 94.28 338 91.95 227 95.28 113 99.62 0 96.58 -109.83 93.44 -222.83 90.34 -334.83 107.12 -222.83 118.37 -109.83 120.37 0 122.62 113 125.87 227 158.37 338 185.87 450 183.62 564 127.62 679 119.62 790 119.12 898 156.87 1015 188.62 1126 212.62 1240 252.37 1352 277.87 1463 283.37 1578 267.12 1692 248.87 1801 213.87 1914" fill="none" stroke="#3b4351" stroke-miterlimit="10"/><polygon id="England" points="874.62 3041.83 688.95 3041.83 687.95 2928 439.12 2817 252.12 2705 159.62 2592 111.62 2480 93.62 2368 86.12 2253 84.62 2140 86.95 2028 98.28 1914 116.95 1801 114.62 1692 122.62 1578 120.62 1463 108.28 1352 100.16 1240 107.95 1126 107.95 1015 77.28 898 73.12 -449.83 90.34 -334.83 93.44 -222.83 96.58 -109.83 99.62 0 91.95 227 94.28 338 98.62 450 120.28 564 89.28 679 84.28 790 96.28 898 133.28 1015 160.95 1126 172.95 1240 208.95 1352 223.62 1463 228.28 1578 211.62 1692 201.62 1801 189.95 1914 193.28 2028 235.28 2140 248.62 2253 348.62 2368 562.62 2480 622.12 2592 602.12 2705 652.12 2817 872.95 2928 874.62 3041.83" fill="none" stroke="#3b4351" stroke-miterlimit="10"/><polygon points="1076.62 -221.41 1106.62 -109.2 997.62 0 810.62 113 915.28 0 863.28 -109.83 839.28 -219.99 717.28 -334.83 616.62 -449.83 748.62 -449.83 1022.62 -334.83 1076.62 -221.41" fill="none" stroke="#3b4351" stroke-miterlimit="10"/><polygon id="Lombard" points="536.62 113 461.12 0 425.12 -109.83 453.95 -222.83 491.95 -109.83 550.62 0 645.95 113 712.62 227 536.62 113" fill="none" stroke="#3b4351" stroke-miterlimit="10"/><polygon id="Moslem_Arabs_and_Persians" data-name="Moslem Arabs and Persians" points="1404.62 227 1418.62 338 1411.62 450 1453.62 564 1382.62 679 1328.62 790 1225.12 898 1161.29 1015 1169.95 898 1202.62 790 1213.95 679 1253.95 564 1125.95 450 1037.95 338 885.95 227 810.62 113 997.62 0 1106.62 -109.2 1418.62 -110.1 1397.62 0 1367.62 113 1404.62 227" fill="none" stroke="#3b4351" stroke-miterlimit="10"/></g><g id="Text"><g id="Indians-2" data-name="Indians"><path d="M1419.57,14.83h2.8v17.5h-2.8Z" fill="#3b4351"/><path d="M1425.13,14.83h3.41l5.07,13h.05v-13h2.65v17.5h-3.41L1427.83,19h0V32.33h-2.65Z" fill="#3b4351"/><path d="M1439.2,14.83h5c5.49,0,6.18,3.58,6.18,8.75s-.69,8.75-6.18,8.75h-5ZM1442,30.22h2.3c2.31,0,3.26-1.52,3.26-6.64,0-4.93-.83-6.64-3.26-6.64H1442Z" fill="#3b4351"/><path d="M1452.7,14.83h2.79v17.5h-2.79Z" fill="#3b4351"/><path d="M1461.56,14.83h3.58l4.61,17.5h-2.92L1465.76,28h-5.13l-1.12,4.29h-2.92Zm3.73,11-2-8.63h0l-2.08,8.63Z" fill="#3b4351"/></g><g id="Chinese-2" data-name="Chinese"><path d="M1601.6,38.24h-4.17V35.89h11v2.35h-4.09V53.39h-2.79Z" fill="#3b4351"/><path d="M1610.17,35.89h2.8v3.24c0,2-.64,3.35-2.8,3.77V41.48a1.84,1.84,0,0,0,1.23-2v-.36h-1.23Z" fill="#3b4351"/><path d="M1624.43,50.64c0,.49.3.94.69.94a1,1,0,0,0,.44-.08v1.72a2.83,2.83,0,0,1-1.3.32c-1.17,0-2.16-.47-2.23-1.74h0a3.41,3.41,0,0,1-3.28,1.93c-2.13,0-3.43-1.15-3.43-3.7,0-2.94,1.3-3.55,3.06-4.14l2.06-.56c1-.27,1.54-.54,1.54-1.7s-.41-2-1.81-2c-1.76,0-2,1.25-2,2.53h-2.5c0-2.82,1.15-4.34,4.63-4.34,2.33,0,4.19.91,4.19,3.24Zm-2.5-4.21a20,20,0,0,1-2.94,1.22,2.18,2.18,0,0,0-1.08,2.14c0,1.1.54,2,1.65,2,1.59,0,2.37-1.18,2.37-3.14Z" fill="#3b4351"/><path d="M1627.13,40.2h2.5v1.55h.07a3.77,3.77,0,0,1,3.38-1.89c2,0,3.28.91,3.28,3.58v10h-2.64v-9c0-1.77-.47-2.38-1.84-2.38-1.08,0-2.11.81-2.11,2.57v8.85h-2.64Z" fill="#3b4351"/><path d="M1641.56,54.52a1.72,1.72,0,0,0,1.91,1.56,2.18,2.18,0,0,0,2.23-2.47V51.48h0a3.19,3.19,0,0,1-3,1.81c-3.06,0-4-3-4-6.64,0-2.89.44-6.79,4.19-6.79a2.93,2.93,0,0,1,2.9,2h0V40.2h2.49V52.75c0,3.21-1.37,5.15-4.92,5.15-3.92,0-4.36-2.31-4.36-3.38Zm1.86-3.34c2.06,0,2.28-2.59,2.28-4.68s-.27-4.53-2.11-4.53-2.23,2-2.23,4.41C1641.36,48.63,1641.46,51.18,1643.42,51.18Z" fill="#3b4351"/><path d="M1656.75,35.89h5c5.49,0,6.17,3.58,6.17,8.75s-.68,8.75-6.17,8.75h-5Zm2.79,15.39h2.3c2.31,0,3.26-1.52,3.26-6.64,0-4.93-.83-6.64-3.26-6.64h-2.3Z" fill="#3b4351"/><path d="M1672,40.2l2.28,9.9h0l2.11-9.9h2.76l-3.62,13.68c-1.06,3.6-1.86,4.09-4.61,4a5.26,5.26,0,0,1-1-.1V55.69a3.09,3.09,0,0,0,.85.1c.91,0,1.5-.17,1.79-1l.35-1.08-3.75-13.48Z" fill="#3b4351"/><path d="M1680.63,40.2h2.5v1.55h.08a3.77,3.77,0,0,1,3.38-1.89c2,0,3.28.91,3.28,3.58v10h-2.64v-9c0-1.77-.47-2.38-1.84-2.38-1.08,0-2.11.81-2.11,2.57v8.85h-2.65Z" fill="#3b4351"/><path d="M1701.07,50.64c0,.49.29.94.68.94a1,1,0,0,0,.45-.08v1.72a2.86,2.86,0,0,1-1.3.32c-1.18,0-2.16-.47-2.23-1.74h-.05a3.42,3.42,0,0,1-3.29,1.93c-2.13,0-3.43-1.15-3.43-3.7,0-2.94,1.3-3.55,3.07-4.14l2-.56c1-.27,1.55-.54,1.55-1.7s-.42-2-1.82-2c-1.76,0-2,1.25-2,2.53h-2.5c0-2.82,1.15-4.34,4.63-4.34,2.33,0,4.19.91,4.19,3.24Zm-2.5-4.21a20.45,20.45,0,0,1-2.94,1.22,2.18,2.18,0,0,0-1.08,2.14c0,1.1.54,2,1.64,2,1.59,0,2.38-1.18,2.38-3.14Z" fill="#3b4351"/><path d="M1709.45,44.05v-.34c0-1.05-.37-2-1.74-2-1.06,0-1.89.47-1.89,1.72,0,1,.46,1.45,1.86,1.94l1.69.58c2,.67,2.87,1.72,2.87,3.8,0,2.82-2.08,4-4.73,4-3.33,0-4.34-1.54-4.34-4.09v-.49h2.35v.42c0,1.54.52,2.35,2.06,2.35s2.16-.74,2.16-1.94a1.91,1.91,0,0,0-1.45-1.93l-2.15-.76c-2-.67-2.82-1.69-2.82-3.8,0-2.48,1.76-3.63,4.51-3.63,3.36,0,4.12,2,4.12,3.6v.59Z" fill="#3b4351"/><path d="M1713,40.2h1.81V36.46h2.65V40.2h2.16v2h-2.16V50c0,1,.3,1.4,1.2,1.4a5,5,0,0,0,1-.08v2a8.5,8.5,0,0,1-2.13.23c-1.77,0-2.68-.52-2.68-3.19V42.16H1713Z" fill="#3b4351"/><path d="M1722.77,40.2l2.28,9.9h0l2.11-9.9H1730l-3.63,13.68c-1,3.6-1.86,4.09-4.61,4a5.41,5.41,0,0,1-1-.1V55.69a3.11,3.11,0,0,0,.86.1c.9,0,1.49-.17,1.79-1l.34-1.08-3.75-13.48Z" fill="#3b4351"/></g><g id="Lombards"><path d="M531.74,65.05h2.8V80.2h6.76v2.35h-9.56Z" fill="#3b4351"/><path d="M542.52,73.8c0-6.25,1.77-9.09,5.78-9.09s5.79,2.84,5.79,9.09-1.77,9.09-5.79,9.09S542.52,80.05,542.52,73.8Zm8.77-.07c0-5.88-1.32-6.91-3-6.91s-3,1-3,6.91,1.33,7.06,3,7.06S551.29,79.73,551.29,73.73Z" fill="#3b4351"/><path d="M556.56,65.05h4.36L564,78h0l3-13h4.26v17.5h-2.65V68h0l-3.53,14.56h-2.36L559.26,68h0V82.55h-2.65Z" fill="#3b4351"/><path d="M574.25,65.05h5.66c2.62,0,4.7,1.18,4.7,4.24,0,2.11-.85,3.43-2.57,4v0c1.91.34,3.14,1.5,3.14,4.46s-2.11,4.78-5.39,4.78h-5.54Zm5,7.38a2.45,2.45,0,0,0,2.57-2.77c0-2.08-1.25-2.5-2.82-2.5h-2v5.27Zm.56,8c1.67,0,2.57-1,2.57-3.09a2.65,2.65,0,0,0-2.74-3H577v6Z" fill="#3b4351"/><path d="M590.71,65.05h3.58l4.61,17.5H596l-1.08-4.29h-5.12l-1.13,4.29h-2.91Zm3.73,11-2-8.63h0L590.3,76Z" fill="#3b4351"/><path d="M600.12,65.05h6.18c2.45,0,4.43,1.25,4.43,4.51,0,2.26-1,4-2.92,4.29v.05c1.77.17,2.65,1.13,2.75,3.58,0,1.15,0,2.5.1,3.55a1.89,1.89,0,0,0,.83,1.52h-3.16a3,3,0,0,1-.47-1.54c-.05-.52-.07-1.06-.07-1.57s0-1.11,0-1.74c-.07-1.91-.66-2.75-2.55-2.75h-2.28v7.6h-2.79Zm5,7.8a2.59,2.59,0,0,0,2.8-2.85c0-1.86-.79-2.84-2.65-2.84h-2.38v5.69Z" fill="#3b4351"/><path d="M613.28,65.05h5c5.49,0,6.18,3.58,6.18,8.75s-.69,8.75-6.18,8.75h-5Zm2.79,15.39h2.3c2.31,0,3.26-1.52,3.26-6.64,0-4.93-.83-6.64-3.26-6.64h-2.3Z" fill="#3b4351"/><path d="M629.06,77.13v.44c0,2.14,1,3.22,2.86,3.22a2.51,2.51,0,0,0,2.65-2.55c0-1.84-.93-2.65-2.5-3.12l-1.91-.66c-2.55-1-3.65-2.3-3.65-4.8,0-3.19,2.18-5,5.44-5,4.48,0,4.95,2.79,4.95,4.61v.39h-2.8v-.37c0-1.59-.68-2.52-2.45-2.52a2.23,2.23,0,0,0-2.35,2.52c0,1.5.76,2.26,2.62,3l1.89.68c2.47.88,3.55,2.21,3.55,4.63,0,3.73-2.25,5.27-5.78,5.27-4.34,0-5.32-2.89-5.32-5.34v-.42Z" fill="#3b4351"/></g><g id="Islam"><path d="M937.72,86.46h4.36l3.09,13h.05l3-13h4.27V104h-2.65V89.4h0L946.29,104h-2.35L940.41,89.4h0V104h-2.64Z" fill="#3b4351"/><path d="M955,95.2c0-6.24,1.76-9.09,5.78-9.09s5.79,2.85,5.79,9.09-1.77,9.09-5.79,9.09S955,101.45,955,95.2Zm8.77-.07c0-5.88-1.32-6.91-3-6.91s-3,1-3,6.91,1.33,7.06,3,7.06S963.76,101.13,963.76,95.13Z" fill="#3b4351"/><path d="M971.18,98.54V99c0,2.13,1,3.21,2.87,3.21a2.51,2.51,0,0,0,2.65-2.55c0-1.84-.93-2.65-2.5-3.11l-1.91-.66c-2.55-1-3.65-2.31-3.65-4.81,0-3.18,2.18-5,5.44-5,4.48,0,4.95,2.8,4.95,4.61v.39h-2.8v-.37c0-1.59-.68-2.52-2.45-2.52a2.23,2.23,0,0,0-2.35,2.52c0,1.5.76,2.26,2.62,3l1.89.68c2.47.89,3.55,2.21,3.55,4.64,0,3.72-2.25,5.26-5.78,5.26-4.34,0-5.32-2.89-5.32-5.34v-.41Z" fill="#3b4351"/><path d="M981.42,86.46h2.8V101.6H991V104h-9.56Z" fill="#3b4351"/><path d="M992.62,86.46h9.46v2.35h-6.67v4.85h6.28V96h-6.28v5.59h6.86V104h-9.65Z" fill="#3b4351"/><path d="M1004.4,86.46h4.37l3.08,13h0l3-13h4.27V104h-2.65V89.4h0L1013,104h-2.35L1007.1,89.4h-.05V104h-2.65Z" fill="#3b4351"/><path d="M1030.37,86.46H1034l4.61,17.49h-2.92l-1.08-4.29h-5.12l-1.12,4.29h-2.92Zm3.73,11-2-8.62h0L1030,97.43Z" fill="#3b4351"/><path d="M1039.78,86.46H1046c2.45,0,4.43,1.25,4.43,4.5,0,2.26-1,4-2.91,4.29v0c1.76.17,2.64,1.13,2.74,3.58,0,1.15,0,2.5.1,3.55a1.89,1.89,0,0,0,.83,1.52H1048a3,3,0,0,1-.47-1.54c0-.52-.07-1.06-.07-1.57s0-1.1,0-1.74c-.07-1.91-.66-2.74-2.55-2.74h-2.28V104h-2.79Zm5,7.79a2.58,2.58,0,0,0,2.79-2.84c0-1.87-.79-2.85-2.65-2.85h-2.38v5.69Z" fill="#3b4351"/><path d="M1056.25,86.46h3.57l4.61,17.49h-2.91l-1.08-4.29h-5.13l-1.12,4.29h-2.92Zm3.72,11-2-8.62h0l-2.08,8.62Z" fill="#3b4351"/><path d="M1065.65,86.46h5.66c2.63,0,4.71,1.17,4.71,4.23q0,3.16-2.57,4v0c1.91.35,3.13,1.5,3.13,4.46s-2.1,4.78-5.39,4.78h-5.54Zm5,7.37a2.46,2.46,0,0,0,2.58-2.77c0-2.08-1.25-2.5-2.82-2.5h-2v5.27Zm.57,8c1.66,0,2.57-1,2.57-3.08a2.65,2.65,0,0,0-2.75-3h-2.59v6Z" fill="#3b4351"/><path d="M1081,98.54V99c0,2.13,1,3.21,2.86,3.21a2.51,2.51,0,0,0,2.65-2.55c0-1.84-.93-2.65-2.5-3.11l-1.91-.66c-2.55-1-3.65-2.31-3.65-4.81,0-3.18,2.18-5,5.44-5,4.48,0,5,2.8,5,4.61v.39H1086v-.37c0-1.59-.68-2.52-2.45-2.52a2.23,2.23,0,0,0-2.35,2.52c0,1.5.76,2.26,2.62,3l1.89.68c2.47.89,3.55,2.21,3.55,4.64,0,3.72-2.25,5.26-5.78,5.26-4.34,0-5.32-2.89-5.32-5.34v-.41Z" fill="#3b4351"/><path d="M1099.81,86.46h3.57L1108,104h-2.91L1104,99.66h-5.12l-1.13,4.29h-2.92Zm3.72,11-2-8.62h0l-2.08,8.62Z" fill="#3b4351"/><path d="M1109.21,86.46h3.41l5.07,13h0v-13h2.65V104H1117l-5.07-13.38h-.05V104h-2.65Z" fill="#3b4351"/><path d="M1123.28,86.46h5c5.49,0,6.18,3.57,6.18,8.74s-.69,8.75-6.18,8.75h-5Zm2.79,15.38h2.3c2.31,0,3.26-1.51,3.26-6.64,0-4.92-.83-6.64-3.26-6.64h-2.3Z" fill="#3b4351"/><path d="M1142.78,86.46h5.54c3.35,0,4.82,2.1,4.82,5.09,0,3.14-1.86,5.17-5.12,5.17h-2.45V104h-2.79Zm2.79,8.16h2c1.49,0,2.79-.79,2.79-3,0-1.89-.76-3-3-3h-1.79Z" fill="#3b4351"/><path d="M1155,86.46h9.46v2.35h-6.67v4.85h6.28V96h-6.28v5.59h6.86V104H1155Z" fill="#3b4351"/><path d="M1166.81,86.46H1173c2.45,0,4.43,1.25,4.43,4.5,0,2.26-1,4-2.91,4.29v0c1.76.17,2.64,1.13,2.74,3.58,0,1.15,0,2.5.1,3.55a1.89,1.89,0,0,0,.83,1.52H1175a2.93,2.93,0,0,1-.46-1.54c0-.52-.08-1.06-.08-1.57s0-1.1,0-1.74c-.07-1.91-.66-2.74-2.54-2.74h-2.28V104h-2.8Zm5,7.79a2.58,2.58,0,0,0,2.79-2.84c0-1.87-.78-2.85-2.65-2.85h-2.37v5.69Z" fill="#3b4351"/><path d="M1182.13,98.54V99c0,2.13.95,3.21,2.86,3.21a2.51,2.51,0,0,0,2.65-2.55c0-1.84-.93-2.65-2.5-3.11l-1.91-.66c-2.55-1-3.65-2.31-3.65-4.81,0-3.18,2.18-5,5.44-5,4.48,0,5,2.8,5,4.61v.39h-2.8v-.37c0-1.59-.68-2.52-2.45-2.52a2.23,2.23,0,0,0-2.35,2.52c0,1.5.76,2.26,2.62,3l1.89.68c2.47.89,3.55,2.21,3.55,4.64,0,3.72-2.25,5.26-5.78,5.26-4.34,0-5.32-2.89-5.32-5.34v-.41Z" fill="#3b4351"/><path d="M1192.56,86.46h2.79V104h-2.79Z" fill="#3b4351"/><path d="M1201.43,86.46H1205l4.61,17.49h-2.92l-1.08-4.29h-5.12l-1.13,4.29h-2.91Zm3.73,11-2-8.62h-.05L1201,97.43Z" fill="#3b4351"/><path d="M1210.84,86.46h3.4l5.08,13h0v-13H1222V104h-3.4l-5.08-13.38h0V104h-2.64Z" fill="#3b4351"/><path d="M1227.06,98.54V99c0,2.13,1,3.21,2.86,3.21a2.51,2.51,0,0,0,2.65-2.55c0-1.84-.93-2.65-2.5-3.11l-1.91-.66c-2.55-1-3.65-2.31-3.65-4.81,0-3.18,2.18-5,5.44-5,4.48,0,5,2.8,5,4.61v.39h-2.8v-.37c0-1.59-.68-2.52-2.45-2.52a2.23,2.23,0,0,0-2.35,2.52c0,1.5.76,2.26,2.62,3l1.89.68c2.48.89,3.55,2.21,3.55,4.64,0,3.72-2.25,5.26-5.78,5.26-4.34,0-5.32-2.89-5.32-5.34v-.41Z" fill="#3b4351"/></g></g></svg>