<svg id="Text" xmlns="http://www.w3.org/2000/svg" viewBox="0 0 1847.91 114"><title>ce0750text</title><g id="Romans"><path d="M718.16,45h5.66c2.62,0,4.71,1.18,4.71,4.24q0,3.16-2.58,4v0c1.92.34,3.14,1.5,3.14,4.46S727,62.5,723.7,62.5h-5.54Zm5,7.38a2.45,2.45,0,0,0,2.57-2.77c0-2.08-1.25-2.5-2.81-2.5h-2v5.27Zm.56,8c1.67,0,2.58-1,2.58-3.09a2.65,2.65,0,0,0-2.75-3H721v6Z"/><path d="M734.28,55.66,729.77,45h3.12l2.94,7.55,3-7.55h2.92l-4.68,10.66V62.5h-2.8Z"/><path d="M742.1,60.29l7.32-12.94h-6.88V45h10v2.35l-7.33,12.8h7.4V62.5H742.1Z"/><path d="M757.75,45h3.58l4.61,17.5H763l-1.08-4.29h-5.12L755.7,62.5h-2.92Zm3.73,11-2-8.63h-.05L757.34,56Z"/><path d="M767.16,45h3.41l5.07,13h.05V45h2.65V62.5h-3.41l-5.07-13.38h-.05V62.5h-2.65Z"/><path d="M784.09,47.35h-4.17V45H791v2.35h-4.1V62.5h-2.79Z"/><path d="M792.44,45h2.8V62.5h-2.8Z"/><path d="M798,45h3.4l5.07,13h0V45h2.65V62.5h-3.41L800.7,49.12h-.05V62.5H798Z"/><path d="M812.07,45h9.46v2.35h-6.67v4.86h6.28v2.35h-6.28v5.59h6.86V62.5h-9.65Z"/><path d="M742,87.46h0a3.62,3.62,0,0,1-3.82,2.38c-3.82,0-5.2-2.84-5.2-9.09s1.77-9.09,5.81-9.09a4.76,4.76,0,0,1,5.12,5V77h-2.64v-.42c0-1.3-.54-2.84-2.45-2.84s-3,1.32-3,6.91.93,7,2.82,7c2.13,0,2.91-1.52,2.91-5.34h-2.94v-2.1h5.59V89.5H742Z"/><path d="M746.51,72h6.17c2.45,0,4.44,1.25,4.44,4.51,0,2.26-1,4-2.92,4.29v0C756,81,756.85,82,757,84.43c0,1.15,0,2.5.1,3.55a1.89,1.89,0,0,0,.83,1.52h-3.16a3,3,0,0,1-.47-1.54c0-.52-.07-1.06-.07-1.57s0-1.11,0-1.74c-.07-1.91-.66-2.75-2.55-2.75H749.3v7.6h-2.79Zm5,7.79a2.58,2.58,0,0,0,2.8-2.84c0-1.86-.79-2.84-2.65-2.84H749.3v5.68Z"/><path d="M759.66,72h9.46v2.35h-6.66v4.86h6.27v2.35h-6.27v5.59h6.86V89.5h-9.66Z"/><path d="M771.45,72h9.46v2.35h-6.67v4.86h6.28v2.35h-6.28v5.59h6.86V89.5h-9.65Z"/><path d="M783.23,72H786v7.62h.05L791.37,72h3.06l-5,7.38L795,89.5h-3.16l-4.24-7.87L786,83.84V89.5h-2.8Z"/><path d="M798.1,84.08v.44q0,3.21,2.87,3.21a2.51,2.51,0,0,0,2.65-2.54c0-1.84-.93-2.65-2.5-3.12l-1.91-.66c-2.55-1-3.65-2.3-3.65-4.8,0-3.19,2.18-5,5.44-5,4.48,0,5,2.79,5,4.61v.39h-2.8v-.37c0-1.59-.68-2.52-2.45-2.52a2.23,2.23,0,0,0-2.35,2.52c0,1.5.76,2.25,2.62,3l1.89.68c2.47.88,3.55,2.21,3.55,4.63,0,3.73-2.25,5.27-5.78,5.27-4.34,0-5.32-2.89-5.32-5.34v-.42Z"/></g><g id="Teutons_-_Franks" data-name="Teutons - Franks"><path d="M363.56,38.54h9.34v2.35h-6.54v4.85h6.15v2.35h-6.15V56h-2.8Z"/><path d="M374.91,38.54h6.17c2.45,0,4.44,1.24,4.44,4.5,0,2.26-1,4-2.92,4.29v.05c1.76.17,2.65,1.13,2.75,3.58,0,1.15,0,2.5.09,3.55a1.92,1.92,0,0,0,.84,1.52h-3.16a2.92,2.92,0,0,1-.47-1.54c0-.52-.07-1.06-.07-1.57s0-1.1-.05-1.74c-.08-1.91-.66-2.74-2.55-2.74H377.7V56h-2.79Zm5,7.79a2.58,2.58,0,0,0,2.79-2.85c0-1.86-.78-2.84-2.64-2.84H377.7v5.69Z"/><path d="M391.37,38.54H395L399.56,56h-2.92l-1.08-4.29h-5.12L389.31,56H386.4Zm3.73,11-2-8.62h0L391,49.51Z"/><path d="M400.78,38.54h3.4l5.08,13h.05v-13H412V56h-3.4l-5.08-13.38h-.05V56h-2.64Z"/><path d="M414.84,38.54h2.79v7.62h.05l5.3-7.62H426L421,45.91,426.58,56h-3.16l-4.24-7.86-1.55,2.2V56h-2.79Z"/><path d="M429.71,50.62v.44c0,2.13,1,3.21,2.87,3.21a2.51,2.51,0,0,0,2.65-2.55c0-1.84-.94-2.65-2.5-3.11L430.81,48c-2.54-1-3.65-2.31-3.65-4.81,0-3.18,2.18-5,5.44-5,4.49,0,4.95,2.8,4.95,4.61v.39h-2.79v-.37c0-1.59-.69-2.52-2.45-2.52A2.23,2.23,0,0,0,430,42.82c0,1.5.76,2.26,2.62,3l1.89.68c2.47.89,3.55,2.21,3.55,4.64,0,3.72-2.26,5.26-5.78,5.26-4.34,0-5.32-2.89-5.32-5.34v-.41Z"/></g><g id="England_Norway_Denmark" data-name="England Norway Denmark"><path d="M84.88,87.7h9.46v2.35H87.67V94.9H94v2.36H87.67v5.58h6.86v2.36H84.88Z"/><path d="M96.66,87.7h3.41l5.07,13h0v-13h2.65v17.5h-3.41L99.36,91.82h0V105.2H96.66Z"/><path d="M119.38,103.16h0a3.65,3.65,0,0,1-3.83,2.38c-3.82,0-5.19-2.84-5.19-9.09s1.76-9.09,5.81-9.09a4.76,4.76,0,0,1,5.12,5v.32h-2.65v-.41c0-1.3-.54-2.85-2.45-2.85s-3,1.33-3,6.91.93,7.06,2.82,7.06c2.13,0,2.92-1.52,2.92-5.34H115.9V96h5.58v9.22h-2.1Z"/><path d="M123.56,87.7h2.8v15.14h6.76v2.36h-9.56Z"/><path d="M138.07,87.7h3.57l4.61,17.5h-2.91l-1.08-4.29h-5.12L136,105.2h-2.92Zm3.72,11-2-8.63h-.05l-2.08,8.63Z"/><path d="M147.47,87.7h3.41l5.07,13H156v-13h2.65v17.5h-3.41l-5.07-13.38h0V105.2h-2.65Z"/><path d="M161.54,87.7h5c5.49,0,6.18,3.58,6.18,8.75s-.69,8.75-6.18,8.75h-5Zm2.79,15.39h2.3c2.31,0,3.26-1.52,3.26-6.64,0-4.93-.83-6.64-3.26-6.64h-2.3Z"/></g><g id="Islam"><path d="M1270.57,84.66h4.36l3.09,13h0l3-13h4.26v17.49h-2.64V87.6h0l-3.53,14.55h-2.35l-3.53-14.55h0v14.55h-2.65Z"/><path d="M1287.58,95.56c0-4.11,1.07-6.93,4.9-6.93s4.92,2.82,4.92,6.93-1.27,6.94-4.92,6.94S1287.58,99.68,1287.58,95.56Zm4.9,5c1.93,0,2.28-1.62,2.28-5,0-2.91-.35-5-2.28-5s-2.26,2.06-2.26,5C1290.22,98.92,1290.59,100.54,1292.48,100.54Z"/><path d="M1298.92,95.56c0-4.11,1.08-6.93,4.9-6.93s4.93,2.82,4.93,6.93-1.28,6.94-4.93,6.94S1298.92,99.68,1298.92,95.56Zm4.9,5c1.94,0,2.28-1.62,2.28-5,0-2.91-.34-5-2.28-5s-2.26,2.06-2.26,5C1301.56,98.92,1301.93,100.54,1303.82,100.54Z"/><path d="M1310.78,89h2.64V91h0a3.26,3.26,0,0,1,3.07-2.4,1.53,1.53,0,0,1,.63.09v2.7a3.73,3.73,0,0,0-1.1-.15c-1.2,0-2.65.54-2.65,3v7.89h-2.64Z"/><path d="M1324.18,92.82v-.35c0-1-.37-2-1.74-2-1,0-1.89.47-1.89,1.72,0,1,.47,1.44,1.86,1.93l1.7.59c2,.66,2.86,1.72,2.86,3.8,0,2.82-2.08,4-4.73,4-3.33,0-4.33-1.55-4.33-4.09v-.5h2.35v.42c0,1.54.51,2.35,2.06,2.35s2.15-.73,2.15-1.93a1.91,1.91,0,0,0-1.44-1.94l-2.16-.76c-2-.66-2.82-1.69-2.82-3.8,0-2.47,1.77-3.62,4.51-3.62,3.36,0,4.12,2,4.12,3.6v.59Z"/></g></svg>