<svg xmlns="http://www.w3.org/2000/svg" viewBox="0 0 1847.91 114"><title>ce0750text</title><g id="YEARS"><g id="Right"><path d="M1794.14,92.11h10.92v2.34a32.08,32.08,0,0,0-5.8,15.7h-3.12a31.47,31.47,0,0,1,6.06-15.39h-8.06Z" fill="#3b4351"/><path d="M1806.67,105.18h2.81v.5a2.35,2.35,0,0,0,2.41,2.6c2.09,0,2.63-2,2.63-4.19s-.57-3.92-2.47-3.92a2.35,2.35,0,0,0-2.42,1.69l-2.62-.11.91-9.64h8.86v2.36h-6.65l-.6,4.84,0,0a4.06,4.06,0,0,1,3.09-1.43c3.85,0,4.81,3.25,4.81,6.08,0,3.7-1.69,6.5-5.66,6.5-3.31,0-5.15-1.69-5.15-4.94Z" fill="#3b4351"/><path d="M1824.56,91.74c3.53,0,5.51,2.21,5.51,9.39s-2,9.38-5.51,9.38-5.52-2.21-5.52-9.38S1821,91.74,1824.56,91.74Zm0,16.69c2,0,2.54-2,2.54-7.3s-.54-7.31-2.54-7.31-2.55,2-2.55,7.31S1822.55,108.43,1824.56,108.43Z" fill="#3b4351"/></g><g id="left"><path d="M19.1,94H30v2.34a32.21,32.21,0,0,0-5.8,15.71H21.1a31.54,31.54,0,0,1,6.06-15.4H19.1Z" fill="#3b4351"/><path d="M31.63,107.09h2.81v.49a2.36,2.36,0,0,0,2.42,2.61c2.08,0,2.63-2,2.63-4.19s-.58-3.93-2.47-3.93a2.35,2.35,0,0,0-2.42,1.69l-2.63-.1L32.88,94h8.87v2.37H35.09l-.6,4.83.06.06a4,4,0,0,1,3.09-1.43c3.85,0,4.81,3.25,4.81,6.08,0,3.69-1.69,6.5-5.67,6.5-3.3,0-5.15-1.69-5.15-4.94Z" fill="#3b4351"/><path d="M49.52,93.65c3.54,0,5.51,2.21,5.51,9.39s-2,9.38-5.51,9.38S44,110.21,44,103,46,93.65,49.52,93.65Zm0,16.69c2,0,2.55-2,2.55-7.3s-.55-7.31-2.55-7.31S47,97.71,47,103,47.52,110.34,49.52,110.34Z" fill="#3b4351"/></g></g><g id="Nation_OUtlines" data-name="Nation OUtlines"><polygon id="Romans" points="854.62 1801 829.93 1688 711.95 1579 764.62 1465 729.95 1350 845.28 1239 1002.62 1127 1065.29 1013 1021.28 902 995.34 785 815.28 677 703.28 566 687.28 451 737.95 337 780.62 225 712.62 114 645.95 0 550.62 -113 491.95 -222.83 453.95 -335.83 455.29 -447.83 435.95 -562.83 470.62 -670.83 322.62 -670.83 416.12 -783.83 480.12 -893.83 410.62 -1005.83 316.95 -1119.83 248.28 -1234.83 210.28 -1345.83 175.95 -1456.83 159.62 -1572.83 91.28 -1685.83 83.12 -1790.83 117.62 -1904.83 151.37 -2018.83 129.62 -2128.83 109.62 -2243.83 99.62 -2355.83 73.12 -2465.83 75.42 -3363.83 85.95 -3253.83 95.28 -3141.83 111.95 -3029.83 116.62 -2918.83 137.95 -2805.83 149.95 -2689.83 169.95 -2577.83 205.28 -2465.83 231.95 -2355.83 287.74 -2243.83 467.73 -2128.83 683.72 -2018.83 998.71 -1904.83 1118.7 -1790.83 1131.14 -1685.83 1195.2 -1572.83 1182.62 -1456.83 1245.62 -1345.83 1220.62 -1234.83 1122.62 -1119.83 981.62 -1005.83 880.12 -893.83 717.95 -783.83 593.62 -670.83 616.62 -562.83 717.28 -447.83 839.28 -332.99 863.28 -222.83 915.28 -113 810.62 0 885.95 114 1037.95 225 1125.95 337 1253.95 451 1213.95 566 1202.62 677 1169.95 785 1161.29 902 1218.62 1013 1131.95 1127 936.62 1239 798.62 1350 819.28 1465 759.95 1579 849.28 1688 854.62 1801" fill="none" stroke="#3b4351" stroke-miterlimit="10"/><polygon id="Indians" points="1372.19 -3699.66 1294.19 -3813.83 1285.19 -3926.83 1313.69 -4037.83 1348.19 -4150.83 1310.69 -4264.83 1298.69 -4374.83 1313.69 -4486.83 1345.19 -4598.83 1325.69 -4712.83 1343.69 -4826.83 1417.19 -4937.83 1400.69 -5050.91 1429.19 -5163.83 1419.27 -5279.1 1387.19 -5390.83 1387.19 -5502.83 1438.19 -5613.33 1462.18 -5725.33 1480.18 -5838.37 1445.82 -5948.66 1411.11 -6060.66 1545.86 -6060.66 1580.1 -5948.66 1593.12 -5838.43 1552.12 -5725.33 1514.62 -5613.33 1514.12 -5503.16 1553.12 -5391.1 1548.12 -5278.83 1519.62 -5163.83 1534.12 -5050.16 1575.12 -4937.83 1559.62 -4826.83 1564.12 -4713.1 1534.62 -4598.83 1486.12 -4486.83 1465.12 -4374.83 1471.12 -4265.66 1502.12 -4151.66 1508.12 -4037.83 1534.62 -3926.83 1542.77 -3847.97 1555.62 -3699.66 1554.62 -3590.83 1567.12 -3478.83 1542.12 -3364.1 1498.12 -3253.83 1490.62 -3141.83 1513.12 -3029.83 1568.62 -2918.83 1544.12 -2805.83 1530.62 -2690.1 1523.62 -2578.1 1532.62 -2465.83 1565.12 -2355.83 1543.62 -2243.83 1514.12 -2128.83 1490.12 -2019.1 1495.62 -1904.83 1517.12 -1791.16 1528.12 -1685.83 1580.62 -1573.16 1578.12 -1457.16 1578.12 -1346.66 1560.12 -1235.1 1526.62 -1119.83 1467.62 -1005.83 1381.62 -894.1 1270.62 -783.83 1090.12 -671.1 860.62 -562.83 1302.12 -447.83 1377.03 -335.83 1550.62 -222.83 1519.62 -113 1476.12 0 1516.13 114 1534.62 226.34 1552.65 337 1585.62 450.9 1620.12 566 1650.12 677 1630.62 784.9 1622.45 901.9 1565.62 1013 1402.62 1126.34 1173.62 1239 1148.62 1350 1334.62 1465 1283.62 1579 1344.62 1688 1544.62 1801 1602.62 1915.34 1627.62 2027 1674.62 2139.9 1627.62 2255 1634.62 2367 1686.62 2479 1701.62 2592 1620.12 2704 1606.12 2815 1606.12 2928.83 1552.62 2928.83 1549.52 2815 1569.62 2704 1683.62 2592 1667.62 2479 1607.62 2367 1596.62 2254.34 1617.62 2140 1584.62 2027 1562.62 1915 1507.62 1801 1304.62 1687.9 1225.62 1578.9 1236.97 1541.95 1264.87 1465 1082.62 1350 1084.2 1239.51 1323.62 1127 1500.47 1012.9 1573.62 902 1600.62 785 1604.62 677 1569.62 566 1514.62 451 1447.62 336.9 1418.62 225 1404.62 114 1367.62 0 1397.62 -113 1418.62 -223.1 1339.62 -336.1 1246.62 -447.83 748.62 -562.83 753.62 -670.83 910.76 -783.83 1053.62 -893.83 1195.2 -1005.83 1311.62 -1120.66 1353.62 -1234.83 1348.62 -1345.83 1364.62 -1457.66 1406.62 -1572.83 1401.62 -1685.83 1429.62 -1790.83 1394.62 -1905.1 1393.2 -2018.83 1391.82 -2129.1 1437.52 -2243.83 1513.62 -2356.1 1505.64 -2465.83 1472.62 -2577.66 1447.62 -2689.83 1440.63 -2805.83 1462.62 -2918.83 1391.1 -3029.83 1348.62 -3141.83 1332.62 -3253.83 1376.98 -3363.83 1375.34 -3479.1 1373.74 -3591.1 1372.19 -3699.66" fill="none" stroke="#3b4351" stroke-miterlimit="10"/><polygon id="Huns" points="1555.62 -3699.66 1545.73 -3813.83 1533.62 -3927.16 1506.68 -4037.18 1502.16 -4150.83 1471.34 -4264.83 1465.12 -4374.83 1486.12 -4486.83 1534.62 -4598.83 1564.05 -4712.83 1559.62 -4826.83 1575.12 -4937.83 1534.24 -5049.83 1519.62 -5163.83 1548.12 -5278.83 1553.11 -5390.83 1514.47 -5503.1 1514.62 -5615.33 1552.12 -5725.33 1593.12 -5837.99 1580.1 -5948.66 1545.86 -6060.66 1633.99 -6060.66 1651.62 -5948.66 1667.62 -5837.99 1646.62 -5725.33 1620.62 -5613.33 1630.4 -5505.23 1650.62 -5391.16 1676.62 -5278.83 1700.12 -5163.83 1689.12 -5049.83 1714.62 -4938.16 1697.12 -4827.1 1645.62 -4713.1 1616.12 -4598.83 1586.62 -4487.1 1538.12 -4375.1 1509.12 -4264.83 1551.62 -4150.83 1585.12 -4037.83 1608.62 -3927.16 1609.69 -3814.1 1610.76 -3701.1 1613.62 -3591.1 1625.12 -3479.1 1599.12 -3363.16 1557.59 -3253.83 1545.65 -3141.83 1558.62 -3029.83 1584.62 -2919.1 1571.12 -2805.66 1576.62 -2689.83 1567.62 -2577.83 1587.12 -2465.83 1621.12 -2355.83 1612.12 -2243.83 1556.12 -2128.83 1528.62 -2018.83 1529.62 -1904.83 1553.62 -1790.83 1616.07 -1685.83 1609.25 -1572.83 1592.66 -1456.83 1611.01 -1346.1 1612.12 -1234.83 1598.04 -1119.83 1564.12 -1005.83 1534.29 -893.83 1602.12 -784.1 1653.62 -670.83 1673.62 -562.83 1666.12 -447.83 1668.12 -336.16 1625.62 -223.16 1542.12 -113 1476.12 0 1519.62 -113 1550.62 -222.83 1376.62 -336.1 1302.12 -447.83 860.62 -562.83 1090.12 -671.1 1270.62 -783.83 1381.62 -894.1 1467.62 -1005.83 1526.62 -1119.83 1560.12 -1235.1 1578.12 -1346.66 1578.12 -1457.16 1580.62 -1573.16 1528.12 -1685.83 1517.12 -1791.16 1495.62 -1904.83 1490.12 -2019.1 1514.12 -2128.83 1543.62 -2243.83 1565.12 -2355.83 1532.62 -2465.83 1523.62 -2578.1 1530.62 -2690.1 1544.12 -2805.83 1568.62 -2918.83 1513.12 -3029.83 1490.62 -3141.83 1498.12 -3253.83 1542.12 -3364.1 1567.12 -3478.83 1554.62 -3590.83 1555.62 -3699.66" fill="none" stroke="#3b4351" stroke-miterlimit="10"/><polygon id="Chinese" points="1610.76 -3701.1 1609.69 -3814.1 1608.62 -3927.16 1585.12 -4037.83 1551.62 -4150.83 1509.12 -4264.83 1538.12 -4375.1 1586.62 -4487.1 1616.12 -4598.83 1645.62 -4713.1 1697.12 -4827.1 1714.62 -4938.16 1689.12 -5049.83 1700.12 -5163.83 1676.62 -5278.83 1650.62 -5391.16 1630.62 -5502.83 1620.62 -5613.33 1646.62 -5725.33 1667.62 -5837.99 1651.62 -5948.66 1633.99 -6060.66 1768.79 -6060.66 1768.79 2140 1768.79 2254.9 1766.12 2367 1757.62 2479 1736.12 2591.9 1676.12 2703.9 1661.12 2815 1663.62 2928.83 1606.12 2928.83 1606.12 2814.9 1620.12 2704 1701.62 2592 1696.12 2478.84 1654.12 2367 1681.62 2255 1739.62 2139.9 1748.62 2026.84 1744.12 1914.84 1685.62 1801 1615.12 1690.34 1636.12 1579 1738.62 1465 1761.12 1350 1758.62 1239 1732.12 1127 1695.62 1013 1667.62 902 1651.12 785 1650.12 677 1620.12 566 1585.62 450.9 1552.62 336.9 1535.12 225 1516.12 113.9 1476.12 0 1542.12 -113 1625.62 -223.16 1668.12 -336.16 1666.12 -447.83 1673.62 -562.83 1653.62 -670.83 1602.12 -784.1 1534.12 -894.1 1564.12 -1005.83 1598.12 -1120.1 1612.12 -1234.83 1611.01 -1346.1 1592.62 -1457.1 1609.25 -1572.83 1616.07 -1685.83 1553.62 -1790.83 1529.62 -1904.83 1528.62 -2019.1 1555.62 -2128.83 1612.12 -2243.83 1621.12 -2355.83 1587.12 -2465.83 1567.62 -2577.83 1576.62 -2689.83 1571.12 -2805.83 1584.62 -2919.1 1558.62 -3029.83 1545.62 -3142.1 1557.62 -3254.1 1599.62 -3363.83 1625.12 -3479.1 1613.62 -3591.1 1610.76 -3701.1" fill="none" stroke="#3b4351" stroke-miterlimit="10"/><polygon id="Teutons_-_Franks" data-name="Teutons - Franks" points="600.62 337 277.29 337 235.95 225 189.95 114 180.62 0 142.62 -113 139.95 -222.83 120.62 -335.83 99.95 -447.83 73.12 -562.83 73.12 -1005.83 101.12 -893.83 138.62 -781.41 168.12 -670.83 189.69 -562.83 192.12 -447.83 257.62 -335.83 298.12 -222.83 333.12 -113 392.87 0 712.62 114 676.62 225 600.62 337" fill="none" stroke="#3b4351" stroke-miterlimit="10"/><polygon id="Teutons_-Goths" data-name="Teutons -Goths" points="712.62 114 392.87 0 333.12 -113 298.12 -222.83 257.62 -335.83 192.12 -447.83 189.69 -562.83 168.12 -670.83 138.62 -781.41 101.12 -893.83 73.12 -1003.16 73.12 -2465.83 99.62 -2355.83 109.62 -2243.83 129.3 -2126.44 151.37 -2018.83 117.62 -1904.83 83.12 -1790.83 91.28 -1685.83 159.62 -1572.83 175.95 -1456.83 210.28 -1345.83 248.28 -1234.83 316.95 -1119.83 410.62 -1005.83 480.12 -893.83 416.12 -783.83 322.62 -670.83 328.12 -562.83 455.29 -447.83 453.95 -335.83 425.12 -222.83 461.12 -113 536.62 0 712.62 114" fill="none" stroke="#3b4351" stroke-miterlimit="10"/><polygon id="Denmark" points="916.62 2928.83 927.62 2928.83 926.37 2815 701.12 2704 690.87 2592 683.87 2479 637.87 2367 522.37 2255 457.37 2140 426.62 2027 299.62 1915 273.62 1801 281.62 1688 289.12 1579 302.12 1465 296.87 1350 275.62 1239 253.62 1127 226.62 1013 210.62 902 199.62 677 199.37 566 291.37 451 277.29 337 235.95 225 188.87 114 180.62 0 142.62 -113 139.95 -222.83 120.62 -335.83 99.95 -447.83 73.12 -562.83 90.34 -447.83 107.12 -335.83 118.37 -222.83 120.37 -113 122.62 0 125.87 114 158.37 225 185.87 337 183.62 451 127.62 566 119.62 677 119.12 785 156.87 902 188.62 1013 212.62 1127 252.37 1239 277.87 1350 283.37 1465 267.12 1579 248.87 1688 213.87 1801 234.37 1915 312.12 2027 398.12 2140 458.87 2255 593.37 2367 637.87 2479 674.12 2592 691.37 2704 915.37 2815 916.62 2928.83" fill="none" stroke="#3b4351" stroke-miterlimit="10"/><polygon id="Norway" points="213.87 1801 222.62 1688 243.95 1579 258.95 1465 252.95 1350 220.95 1239 186.86 1127 160.95 1013 133.28 902 96.28 785 84.28 677 89.28 566 120.28 451 98.62 337 94.28 225 91.95 114 95.28 0 99.62 -113 96.58 -222.83 93.44 -335.83 90.34 -447.83 107.12 -335.83 118.37 -222.83 120.37 -113 122.62 0 125.87 114 158.37 225 185.87 337 183.62 451 127.62 566 119.62 677 119.12 785 156.87 902 188.62 1013 212.62 1127 252.37 1239 277.87 1350 283.37 1465 267.12 1579 248.87 1688 213.87 1801" fill="none" stroke="#3b4351" stroke-miterlimit="10"/><polygon id="England" points="874.62 2928.83 688.95 2928.83 687.95 2815 439.12 2704 252.12 2592 159.62 2479 111.62 2367 93.62 2255 86.12 2140 84.62 2027 86.95 1915 98.28 1801 116.95 1688 114.62 1579 122.62 1465 120.62 1350 108.28 1239 100.16 1127 107.95 1013 107.95 902 77.28 785 73.12 -562.83 90.34 -447.83 93.44 -335.83 96.58 -222.83 99.62 -113 91.95 114 94.28 225 98.62 337 120.28 451 89.28 566 84.28 677 96.28 785 133.28 902 160.95 1013 172.95 1127 208.95 1239 223.62 1350 228.28 1465 211.62 1579 201.62 1688 189.95 1801 193.28 1915 235.28 2027 248.62 2140 348.62 2255 562.62 2367 622.12 2479 602.12 2592 652.12 2704 872.95 2815 874.62 2928.83" fill="none" stroke="#3b4351" stroke-miterlimit="10"/><polygon points="687.28 451 737.95 337 780.62 225 712.62 114 676.62 225 600.62 337 644.62 451 703.28 566 687.28 451" fill="none" stroke="#3b4351" stroke-miterlimit="10"/><polygon points="1076.62 -334.42 1106.62 -222.2 997.62 -113 810.62 0 915.28 -113 863.28 -222.83 839.28 -332.99 717.28 -447.83 616.62 -562.83 748.62 -562.83 1022.62 -447.83 1076.62 -334.42" fill="none" stroke="#3b4351" stroke-miterlimit="10"/><polygon id="Lombard" points="536.62 0 461.12 -113 425.12 -222.83 453.95 -335.83 491.95 -222.83 550.62 -113 645.95 0 712.62 114 536.62 0" fill="none" stroke="#3b4351" stroke-miterlimit="10"/><polygon id="Moslem_Arabs_and_Persians" data-name="Moslem Arabs and Persians" points="1404.62 114 1418.62 225 1411.62 337 1453.62 451 1382.62 566 1328.62 677 1225.12 785 1161.29 902 1169.95 785 1202.62 677 1213.95 566 1253.95 451 1125.95 337 1037.95 225 885.95 114 810.62 0 997.62 -113 1106.62 -222.2 1418.62 -223.1 1397.62 -113 1367.62 0 1404.62 114" fill="none" stroke="#3b4351" stroke-miterlimit="10"/></g><g id="Text"><g id="Romans-2" data-name="Romans"><path d="M718.16,45h5.66c2.62,0,4.71,1.18,4.71,4.24q0,3.16-2.58,4v0c1.92.34,3.14,1.5,3.14,4.46S727,62.5,723.7,62.5h-5.54Zm5,7.38a2.45,2.45,0,0,0,2.57-2.77c0-2.08-1.25-2.5-2.81-2.5h-2v5.27Zm.56,8c1.67,0,2.58-1,2.58-3.09a2.65,2.65,0,0,0-2.75-3H721v6Z" fill="#3b4351"/><path d="M734.28,55.66,729.77,45h3.12l2.94,7.55,3-7.55h2.92l-4.68,10.66V62.5h-2.8Z" fill="#3b4351"/><path d="M742.1,60.29l7.32-12.94h-6.88V45h10v2.35l-7.33,12.8h7.4V62.5H742.1Z" fill="#3b4351"/><path d="M757.75,45h3.58l4.61,17.5H763l-1.08-4.29h-5.12L755.7,62.5h-2.92Zm3.73,11-2-8.63h-.05L757.34,56Z" fill="#3b4351"/><path d="M767.16,45h3.41l5.07,13h.05V45h2.65V62.5h-3.41l-5.07-13.38h-.05V62.5h-2.65Z" fill="#3b4351"/><path d="M784.09,47.35h-4.17V45H791v2.35h-4.1V62.5h-2.79Z" fill="#3b4351"/><path d="M792.44,45h2.8V62.5h-2.8Z" fill="#3b4351"/><path d="M798,45h3.4l5.07,13h0V45h2.65V62.5h-3.41L800.7,49.12h-.05V62.5H798Z" fill="#3b4351"/><path d="M812.07,45h9.46v2.35h-6.67v4.86h6.28v2.35h-6.28v5.59h6.86V62.5h-9.65Z" fill="#3b4351"/><path d="M742,87.46h0a3.62,3.62,0,0,1-3.82,2.38c-3.82,0-5.2-2.84-5.2-9.09s1.77-9.09,5.81-9.09a4.76,4.76,0,0,1,5.12,5V77h-2.64v-.42c0-1.3-.54-2.84-2.45-2.84s-3,1.32-3,6.91.93,7,2.82,7c2.13,0,2.91-1.52,2.91-5.34h-2.94v-2.1h5.59V89.5H742Z" fill="#3b4351"/><path d="M746.51,72h6.17c2.45,0,4.44,1.25,4.44,4.51,0,2.26-1,4-2.92,4.29v0C756,81,756.85,82,757,84.43c0,1.15,0,2.5.1,3.55a1.89,1.89,0,0,0,.83,1.52h-3.16a3,3,0,0,1-.47-1.54c0-.52-.07-1.06-.07-1.57s0-1.11,0-1.74c-.07-1.91-.66-2.75-2.55-2.75H749.3v7.6h-2.79Zm5,7.79a2.58,2.58,0,0,0,2.8-2.84c0-1.86-.79-2.84-2.65-2.84H749.3v5.68Z" fill="#3b4351"/><path d="M759.66,72h9.46v2.35h-6.66v4.86h6.27v2.35h-6.27v5.59h6.86V89.5h-9.66Z" fill="#3b4351"/><path d="M771.45,72h9.46v2.35h-6.67v4.86h6.28v2.35h-6.28v5.59h6.86V89.5h-9.65Z" fill="#3b4351"/><path d="M783.23,72H786v7.62h.05L791.37,72h3.06l-5,7.38L795,89.5h-3.16l-4.24-7.87L786,83.84V89.5h-2.8Z" fill="#3b4351"/><path d="M798.1,84.08v.44q0,3.21,2.87,3.21a2.51,2.51,0,0,0,2.65-2.54c0-1.84-.93-2.65-2.5-3.12l-1.91-.66c-2.55-1-3.65-2.3-3.65-4.8,0-3.19,2.18-5,5.44-5,4.48,0,5,2.79,5,4.61v.39h-2.8v-.37c0-1.59-.68-2.52-2.45-2.52a2.23,2.23,0,0,0-2.35,2.52c0,1.5.76,2.25,2.62,3l1.89.68c2.47.88,3.55,2.21,3.55,4.63,0,3.73-2.25,5.27-5.78,5.27-4.34,0-5.32-2.89-5.32-5.34v-.42Z" fill="#3b4351"/></g><g id="Teutons_-_Franks-2" data-name="Teutons - Franks"><path d="M363.56,38.54h9.34v2.35h-6.54v4.85h6.15v2.35h-6.15V56h-2.8Z" fill="#3b4351"/><path d="M374.91,38.54h6.17c2.45,0,4.44,1.24,4.44,4.5,0,2.26-1,4-2.92,4.29v.05c1.76.17,2.65,1.13,2.75,3.58,0,1.15,0,2.5.09,3.55a1.92,1.92,0,0,0,.84,1.52h-3.16a2.92,2.92,0,0,1-.47-1.54c0-.52-.07-1.06-.07-1.57s0-1.1-.05-1.74c-.08-1.91-.66-2.74-2.55-2.74H377.7V56h-2.79Zm5,7.79a2.58,2.58,0,0,0,2.79-2.85c0-1.86-.78-2.84-2.64-2.84H377.7v5.69Z" fill="#3b4351"/><path d="M391.37,38.54H395L399.56,56h-2.92l-1.08-4.29h-5.12L389.31,56H386.4Zm3.73,11-2-8.62h0L391,49.51Z" fill="#3b4351"/><path d="M400.78,38.54h3.4l5.08,13h.05v-13H412V56h-3.4l-5.08-13.38h-.05V56h-2.64Z" fill="#3b4351"/><path d="M414.84,38.54h2.79v7.62h.05l5.3-7.62H426L421,45.91,426.58,56h-3.16l-4.24-7.86-1.55,2.2V56h-2.79Z" fill="#3b4351"/><path d="M429.71,50.62v.44c0,2.13,1,3.21,2.87,3.21a2.51,2.51,0,0,0,2.65-2.55c0-1.84-.94-2.65-2.5-3.11L430.81,48c-2.54-1-3.65-2.31-3.65-4.81,0-3.18,2.18-5,5.44-5,4.49,0,4.95,2.8,4.95,4.61v.39h-2.79v-.37c0-1.59-.69-2.52-2.45-2.52A2.23,2.23,0,0,0,430,42.82c0,1.5.76,2.26,2.62,3l1.89.68c2.47.89,3.55,2.21,3.55,4.64,0,3.72-2.26,5.26-5.78,5.26-4.34,0-5.32-2.89-5.32-5.34v-.41Z" fill="#3b4351"/></g><g id="England_Norway_Denmark" data-name="England Norway Denmark"><path d="M84.88,87.7h9.46v2.35H87.67V94.9H94v2.36H87.67v5.58h6.86v2.36H84.88Z" fill="#3b4351"/><path d="M96.66,87.7h3.41l5.07,13h0v-13h2.65v17.5h-3.41L99.36,91.82h0V105.2H96.66Z" fill="#3b4351"/><path d="M119.38,103.16h0a3.65,3.65,0,0,1-3.83,2.38c-3.82,0-5.19-2.84-5.19-9.09s1.76-9.09,5.81-9.09a4.76,4.76,0,0,1,5.12,5v.32h-2.65v-.41c0-1.3-.54-2.85-2.45-2.85s-3,1.33-3,6.91.93,7.06,2.82,7.06c2.13,0,2.92-1.52,2.92-5.34H115.9V96h5.58v9.22h-2.1Z" fill="#3b4351"/><path d="M123.56,87.7h2.8v15.14h6.76v2.36h-9.56Z" fill="#3b4351"/><path d="M138.07,87.7h3.57l4.61,17.5h-2.91l-1.08-4.29h-5.12L136,105.2h-2.92Zm3.72,11-2-8.63h-.05l-2.08,8.63Z" fill="#3b4351"/><path d="M147.47,87.7h3.41l5.07,13H156v-13h2.65v17.5h-3.41l-5.07-13.38h0V105.2h-2.65Z" fill="#3b4351"/><path d="M161.54,87.7h5c5.49,0,6.18,3.58,6.18,8.75s-.69,8.75-6.18,8.75h-5Zm2.79,15.39h2.3c2.31,0,3.26-1.52,3.26-6.64,0-4.93-.83-6.64-3.26-6.64h-2.3Z" fill="#3b4351"/></g><g id="Islam"><path d="M1270.57,84.66h4.36l3.09,13h0l3-13h4.26v17.49h-2.64V87.6h0l-3.53,14.55h-2.35l-3.53-14.55h0v14.55h-2.65Z" fill="#3b4351"/><path d="M1287.58,95.56c0-4.11,1.07-6.93,4.9-6.93s4.92,2.82,4.92,6.93-1.27,6.94-4.92,6.94S1287.58,99.68,1287.58,95.56Zm4.9,5c1.93,0,2.28-1.62,2.28-5,0-2.91-.35-5-2.28-5s-2.26,2.06-2.26,5C1290.22,98.92,1290.59,100.54,1292.48,100.54Z" fill="#3b4351"/><path d="M1298.92,95.56c0-4.11,1.08-6.93,4.9-6.93s4.93,2.82,4.93,6.93-1.28,6.94-4.93,6.94S1298.92,99.68,1298.92,95.56Zm4.9,5c1.94,0,2.28-1.62,2.28-5,0-2.91-.34-5-2.28-5s-2.26,2.06-2.26,5C1301.56,98.92,1301.93,100.54,1303.82,100.54Z" fill="#3b4351"/><path d="M1310.78,89h2.64V91h0a3.26,3.26,0,0,1,3.07-2.4,1.53,1.53,0,0,1,.63.09v2.7a3.73,3.73,0,0,0-1.1-.15c-1.2,0-2.65.54-2.65,3v7.89h-2.64Z" fill="#3b4351"/><path d="M1324.18,92.82v-.35c0-1-.37-2-1.74-2-1,0-1.89.47-1.89,1.72,0,1,.47,1.44,1.86,1.93l1.7.59c2,.66,2.86,1.72,2.86,3.8,0,2.82-2.08,4-4.73,4-3.33,0-4.33-1.55-4.33-4.09v-.5h2.35v.42c0,1.54.51,2.35,2.06,2.35s2.15-.73,2.15-1.93a1.91,1.91,0,0,0-1.44-1.94l-2.16-.76c-2-.66-2.82-1.69-2.82-3.8,0-2.47,1.77-3.62,4.51-3.62,3.36,0,4.12,2,4.12,3.6v.59Z" fill="#3b4351"/></g></g></svg>