<svg id="Text" xmlns="http://www.w3.org/2000/svg" viewBox="0 0 1847.91 113"><title>ce0700text</title><g id="Indians"><path d="M1419.57,14.83h2.8v17.5h-2.8Z"/><path d="M1425.13,14.83h3.41l5.07,13h.05v-13h2.65v17.5h-3.41L1427.83,19h0V32.33h-2.65Z"/><path d="M1439.2,14.83h5c5.49,0,6.18,3.58,6.18,8.75s-.69,8.75-6.18,8.75h-5ZM1442,30.22h2.3c2.31,0,3.26-1.52,3.26-6.64,0-4.93-.83-6.64-3.26-6.64H1442Z"/><path d="M1452.7,14.83h2.79v17.5h-2.79Z"/><path d="M1461.56,14.83h3.58l4.61,17.5h-2.92L1465.76,28h-5.13l-1.12,4.29h-2.92Zm3.73,11-2-8.63h0l-2.08,8.63Z"/></g><g id="Chinese"><path d="M1601.6,38.24h-4.17V35.89h11v2.35h-4.09V53.39h-2.79Z"/><path d="M1610.17,35.89h2.8v3.24c0,2-.64,3.35-2.8,3.77V41.48a1.84,1.84,0,0,0,1.23-2v-.36h-1.23Z"/><path d="M1624.43,50.64c0,.49.3.94.69.94a1,1,0,0,0,.44-.08v1.72a2.83,2.83,0,0,1-1.3.32c-1.17,0-2.16-.47-2.23-1.74h0a3.41,3.41,0,0,1-3.28,1.93c-2.13,0-3.43-1.15-3.43-3.7,0-2.94,1.3-3.55,3.06-4.14l2.06-.56c1-.27,1.54-.54,1.54-1.7s-.41-2-1.81-2c-1.76,0-2,1.25-2,2.53h-2.5c0-2.82,1.15-4.34,4.63-4.34,2.33,0,4.19.91,4.19,3.24Zm-2.5-4.21a20,20,0,0,1-2.94,1.22,2.18,2.18,0,0,0-1.08,2.14c0,1.1.54,2,1.65,2,1.59,0,2.37-1.18,2.37-3.14Z"/><path d="M1627.13,40.2h2.5v1.55h.07a3.77,3.77,0,0,1,3.38-1.89c2,0,3.28.91,3.28,3.58v10h-2.64v-9c0-1.77-.47-2.38-1.84-2.38-1.08,0-2.11.81-2.11,2.57v8.85h-2.64Z"/><path d="M1641.56,54.52a1.72,1.72,0,0,0,1.91,1.56,2.18,2.18,0,0,0,2.23-2.47V51.48h0a3.19,3.19,0,0,1-3,1.81c-3.06,0-4-3-4-6.64,0-2.89.44-6.79,4.19-6.79a2.93,2.93,0,0,1,2.9,2h0V40.2h2.49V52.75c0,3.21-1.37,5.15-4.92,5.15-3.92,0-4.36-2.31-4.36-3.38Zm1.86-3.34c2.06,0,2.28-2.59,2.28-4.68s-.27-4.53-2.11-4.53-2.23,2-2.23,4.41C1641.36,48.63,1641.46,51.18,1643.42,51.18Z"/><path d="M1656.75,35.89h5c5.49,0,6.17,3.58,6.17,8.75s-.68,8.75-6.17,8.75h-5Zm2.79,15.39h2.3c2.31,0,3.26-1.52,3.26-6.64,0-4.93-.83-6.64-3.26-6.64h-2.3Z"/><path d="M1672,40.2l2.28,9.9h0l2.11-9.9h2.76l-3.62,13.68c-1.06,3.6-1.86,4.09-4.61,4a5.26,5.26,0,0,1-1-.1V55.69a3.09,3.09,0,0,0,.85.1c.91,0,1.5-.17,1.79-1l.35-1.08-3.75-13.48Z"/><path d="M1680.63,40.2h2.5v1.55h.08a3.77,3.77,0,0,1,3.38-1.89c2,0,3.28.91,3.28,3.58v10h-2.64v-9c0-1.77-.47-2.38-1.84-2.38-1.08,0-2.11.81-2.11,2.57v8.85h-2.65Z"/><path d="M1701.07,50.64c0,.49.29.94.68.94a1,1,0,0,0,.45-.08v1.72a2.86,2.86,0,0,1-1.3.32c-1.18,0-2.16-.47-2.23-1.74h-.05a3.42,3.42,0,0,1-3.29,1.93c-2.13,0-3.43-1.15-3.43-3.7,0-2.94,1.3-3.55,3.07-4.14l2-.56c1-.27,1.55-.54,1.55-1.7s-.42-2-1.82-2c-1.76,0-2,1.25-2,2.53h-2.5c0-2.82,1.15-4.34,4.63-4.34,2.33,0,4.19.91,4.19,3.24Zm-2.5-4.21a20.45,20.45,0,0,1-2.94,1.22,2.18,2.18,0,0,0-1.08,2.14c0,1.1.54,2,1.64,2,1.59,0,2.38-1.18,2.38-3.14Z"/><path d="M1709.45,44.05v-.34c0-1.05-.37-2-1.74-2-1.06,0-1.89.47-1.89,1.72,0,1,.46,1.45,1.86,1.94l1.69.58c2,.67,2.87,1.72,2.87,3.8,0,2.82-2.08,4-4.73,4-3.33,0-4.34-1.54-4.34-4.09v-.49h2.35v.42c0,1.54.52,2.35,2.06,2.35s2.16-.74,2.16-1.94a1.91,1.91,0,0,0-1.45-1.93l-2.15-.76c-2-.67-2.82-1.69-2.82-3.8,0-2.48,1.76-3.63,4.51-3.63,3.36,0,4.12,2,4.12,3.6v.59Z"/><path d="M1713,40.2h1.81V36.46h2.65V40.2h2.16v2h-2.16V50c0,1,.3,1.4,1.2,1.4a5,5,0,0,0,1-.08v2a8.5,8.5,0,0,1-2.13.23c-1.77,0-2.68-.52-2.68-3.19V42.16H1713Z"/><path d="M1722.77,40.2l2.28,9.9h0l2.11-9.9H1730l-3.63,13.68c-1,3.6-1.86,4.09-4.61,4a5.41,5.41,0,0,1-1-.1V55.69a3.11,3.11,0,0,0,.86.1c.9,0,1.49-.17,1.79-1l.34-1.08-3.75-13.48Z"/></g></svg>