<svg xmlns="http://www.w3.org/2000/svg" viewBox="0 0 1847.91 112"><title>ce0850text</title><g id="Text"><g id="England_Norway_Denmark" data-name="England Norway Denmark"><path d="M153.12,56h5c5.49,0,6.17,3.57,6.17,8.74s-.68,8.75-6.17,8.75h-5Zm2.8,15.39h2.3c2.3,0,3.26-1.52,3.26-6.65,0-4.92-.83-6.64-3.26-6.64h-2.3Z"/><path d="M166.75,56h9.45v2.35h-6.66V63.2h6.27v2.35h-6.27v5.59h6.86v2.35h-9.65Z"/><path d="M178.53,56h3.41L187,69h.05V56h2.64V73.49h-3.4l-5.07-13.38h0V73.49h-2.65Z"/><path d="M192.59,56H197L200,69h.05l3-13h4.26V73.49h-2.64V58.94h-.05l-3.53,14.55h-2.35l-3.53-14.55h0V73.49h-2.65Z"/><path d="M213.59,56h3.58l4.6,17.49h-2.91l-1.08-4.28h-5.12l-1.13,4.28h-2.92Zm3.72,11-2-8.62h0L213.17,67Z"/><path d="M223,56h6.17c2.45,0,4.44,1.25,4.44,4.5,0,2.26-1,4-2.92,4.29v0c1.76.17,2.65,1.13,2.75,3.58,0,1.15,0,2.5.09,3.55a1.92,1.92,0,0,0,.84,1.52h-3.16a2.89,2.89,0,0,1-.47-1.54c-.05-.52-.07-1-.07-1.57s0-1.1,0-1.74c-.08-1.91-.66-2.74-2.55-2.74h-2.28v7.59H223Zm5,7.79A2.58,2.58,0,0,0,230.81,61c0-1.87-.78-2.85-2.64-2.85h-2.38v5.69Z"/><path d="M236.15,56H239v7.62H239L244.29,56h3.06l-5,7.37,5.59,10.12h-3.16l-4.24-7.86L239,67.83v5.66h-2.8Z"/></g><g id="Bulgaria"><path d="M629.73,86.74h5.66c2.62,0,4.71,1.18,4.71,4.24q0,3.17-2.58,4v0c1.92.35,3.14,1.5,3.14,4.46s-2.11,4.78-5.39,4.78h-5.54Zm5,7.38a2.45,2.45,0,0,0,2.57-2.77c0-2.08-1.25-2.5-2.81-2.5h-2v5.27Zm.56,8c1.67,0,2.58-1,2.58-3.08a2.66,2.66,0,0,0-2.75-3h-2.6v6Z"/><path d="M645.46,86.74V99.29c0,2.23.88,3.19,2.57,3.19s2.55-1,2.55-3.19V86.74h2.8V99.07c0,4-2,5.51-5.35,5.51s-5.36-1.47-5.36-5.51V86.74Z"/><path d="M655.73,86.74h2.79v15.15h6.76v2.35h-9.55Z"/><path d="M675.57,102.21h-.05a3.63,3.63,0,0,1-3.82,2.37c-3.82,0-5.2-2.84-5.2-9.09s1.77-9.09,5.81-9.09a4.76,4.76,0,0,1,5.12,5v.32h-2.64v-.42c0-1.3-.54-2.84-2.45-2.84s-3,1.32-3,6.91.93,7.06,2.82,7.06c2.13,0,2.91-1.52,2.91-5.35h-2.94V95h5.59v9.21h-2.11Z"/><path d="M683.39,86.74H687l4.61,17.5h-2.92L687.58,100h-5.13l-1.12,4.29h-2.92Zm3.72,11-2-8.62h-.05L683,97.72Z"/><path d="M692.79,86.74H699c2.45,0,4.43,1.25,4.43,4.51,0,2.26-1,4-2.91,4.29v0c1.76.17,2.64,1.13,2.74,3.58,0,1.15,0,2.5.1,3.55a1.92,1.92,0,0,0,.83,1.52H701a2.93,2.93,0,0,1-.46-1.54c0-.52-.08-1.06-.08-1.57s0-1.1-.05-1.74c-.07-1.91-.66-2.75-2.54-2.75h-2.28v7.6h-2.8Zm5,7.8a2.58,2.58,0,0,0,2.79-2.85c0-1.86-.78-2.84-2.65-2.84h-2.37v5.69Z"/><path d="M705.83,86.74h2.79v17.5h-2.79Z"/><path d="M714.7,86.74h3.57l4.61,17.5H720L718.89,100h-5.13l-1.12,4.29h-2.92Zm3.72,11-2-8.62h0l-2.08,8.62Z"/></g></g><g id="YEARS"><g id="Right"><path d="M1788.75,100.64c0-2.73,1.3-4.21,3.14-4.6V96c-1.58-.55-2.54-1.77-2.54-4,0-2.88,1.87-4.63,5-4.63s5,1.75,5,4.63c0,2.21-1,3.43-2.55,4V96c1.85.39,3.15,1.87,3.15,4.6,0,3.65-1.8,5.52-5.57,5.52S1788.75,104.29,1788.75,100.64Zm5.56,3.44c2.08,0,2.6-1.54,2.6-3.49s-.52-3.48-2.6-3.48-2.6,1.53-2.6,3.48S1792.23,104.08,1794.31,104.08Zm0-9c1.85,0,2.32-1.35,2.32-2.81s-.47-2.76-2.32-2.76-2.31,1.3-2.31,2.76S1792.47,95,1794.31,95Z"/><path d="M1801.38,100.83h2.81v.49a2.35,2.35,0,0,0,2.42,2.6c2.08,0,2.63-2,2.63-4.19s-.58-3.92-2.47-3.92a2.34,2.34,0,0,0-2.42,1.69l-2.63-.11.91-9.64h8.87v2.36h-6.66l-.6,4.84.06,0a4,4,0,0,1,3.09-1.43c3.85,0,4.81,3.25,4.81,6.09,0,3.69-1.69,6.5-5.67,6.5-3.3,0-5.15-1.69-5.15-4.94Z"/><path d="M1819.27,87.38c3.54,0,5.51,2.21,5.51,9.39s-2,9.39-5.51,9.39-5.51-2.21-5.51-9.39S1815.73,87.38,1819.27,87.38Zm0,16.7c2,0,2.55-2,2.55-7.31s-.55-7.31-2.55-7.31-2.55,2-2.55,7.31S1817.27,104.08,1819.27,104.08Z"/></g><g id="left"><path d="M19,104.24c0-2.73,1.3-4.21,3.14-4.6v0c-1.58-.55-2.54-1.77-2.54-4,0-2.89,1.87-4.63,5-4.63s5,1.74,5,4.63c0,2.21-1,3.43-2.55,4v0c1.85.39,3.15,1.87,3.15,4.6,0,3.64-1.8,5.51-5.57,5.51S19,107.88,19,104.24Zm5.56,3.43c2.08,0,2.6-1.53,2.6-3.48s-.52-3.48-2.6-3.48-2.6,1.53-2.6,3.48S22.48,107.67,24.56,107.67Zm0-9c1.85,0,2.32-1.36,2.32-2.81s-.47-2.76-2.32-2.76-2.31,1.3-2.31,2.76S22.72,98.63,24.56,98.63Z"/><path d="M31.63,104.42h2.81v.5a2.35,2.35,0,0,0,2.42,2.6c2.08,0,2.63-2,2.63-4.19s-.58-3.92-2.47-3.92a2.34,2.34,0,0,0-2.42,1.69L32,101l.91-9.64h8.87v2.36H35.09l-.6,4.84.06,0a4,4,0,0,1,3.09-1.43c3.85,0,4.81,3.25,4.81,6.08,0,3.7-1.69,6.5-5.67,6.5-3.3,0-5.15-1.69-5.15-4.94Z"/><path d="M49.52,91c3.54,0,5.51,2.21,5.51,9.39s-2,9.38-5.51,9.38S44,107.54,44,100.37,46,91,49.52,91Zm0,16.69c2,0,2.55-2,2.55-7.3s-.55-7.31-2.55-7.31S47,95,47,100.37,47.52,107.67,49.52,107.67Z"/></g></g></svg>