<svg id="Text" xmlns="http://www.w3.org/2000/svg" viewBox="0 0 1847.91 111"><title>ce0800text</title><g id="Teutons_-_Franks" data-name="Teutons - Franks"><path d="M253.91,57v.37c0,3.16-1.3,6.25-5.39,6.25-4.41,0-5.78-2.85-5.78-9.1s1.37-9.09,5.81-9.09c5,0,5.27,3.65,5.27,5.49v.32H251v-.29c0-1.65-.49-3.48-2.5-3.41s-3,1.27-3,6.91.91,7.06,3,7.06c2.35,0,2.6-2.57,2.6-4.22V57Z"/><path d="M255.7,45.77h2.65V51.5l.07,0a3.76,3.76,0,0,1,3.23-1.81c2,0,3.29.9,3.29,3.57v9.95h-2.65v-9c0-1.74-.49-2.38-1.84-2.38-1.08,0-2.1.84-2.1,2.58v8.84H255.7Z"/><path d="M276.13,60.52c0,.49.3.93.69.93a1.18,1.18,0,0,0,.44-.07v1.71a2.83,2.83,0,0,1-1.3.32c-1.17,0-2.15-.47-2.23-1.74h-.05a3.4,3.4,0,0,1-3.28,1.94c-2.13,0-3.43-1.16-3.43-3.7,0-2.95,1.3-3.56,3.06-4.15l2.06-.56c1-.27,1.54-.54,1.54-1.69s-.41-2-1.81-2c-1.76,0-2,1.25-2,2.52h-2.5c0-2.82,1.15-4.33,4.63-4.33,2.33,0,4.19.9,4.19,3.23Zm-2.5-4.22a20,20,0,0,1-2.94,1.23,2.16,2.16,0,0,0-1.07,2.13c0,1.1.53,2,1.64,2,1.59,0,2.37-1.18,2.37-3.14Z"/><path d="M278.83,50.08h2.64v2.06h0a3.26,3.26,0,0,1,3.07-2.4,1.56,1.56,0,0,1,.63.09v2.7a3.73,3.73,0,0,0-1.1-.15c-1.2,0-2.65.54-2.65,3v7.89h-2.64Z"/><path d="M286.67,45.77h2.64V63.26h-2.64Z"/><path d="M294.26,57v.76c0,1.77.22,4,2.21,4s2.1-2.13,2.1-2.94h2.5c0,3-1.76,4.76-4.63,4.76-2.15,0-4.83-.64-4.83-6.74,0-3.46.76-7.13,4.88-7.13,3.68,0,4.66,2.23,4.66,5.88V57Zm4.24-1.81v-.71c0-1.67-.54-2.94-2-2.94-1.67,0-2.21,1.66-2.21,3.38v.27Z"/><path d="M303.45,50.08H306v1.54H306a3.69,3.69,0,0,1,3.16-1.88,2.87,2.87,0,0,1,3.07,2,3.59,3.59,0,0,1,3.33-2c1.86,0,3.21.95,3.21,3.5v10h-2.65v-9c0-1.74-.51-2.38-1.59-2.38s-2.11.84-2.11,2.58v8.84h-2.65v-9c0-1.74-.51-2.38-1.61-2.38s-2.09.86-2.09,2.58v8.84h-2.64Z"/><path d="M330.11,60.52c0,.49.29.93.68.93a1.14,1.14,0,0,0,.44-.07v1.71a2.83,2.83,0,0,1-1.3.32c-1.17,0-2.15-.47-2.23-1.74h0a3.42,3.42,0,0,1-3.29,1.94c-2.13,0-3.43-1.16-3.43-3.7,0-2.95,1.3-3.56,3.06-4.15l2.06-.56c1-.27,1.55-.54,1.55-1.69s-.42-2-1.82-2c-1.76,0-2,1.25-2,2.52h-2.5c0-2.82,1.16-4.33,4.64-4.33,2.32,0,4.19.9,4.19,3.23Zm-2.5-4.22a21,21,0,0,1-2.94,1.23,2.17,2.17,0,0,0-1.08,2.13c0,1.1.54,2,1.64,2,1.59,0,2.38-1.18,2.38-3.14Z"/><path d="M335.45,64.39A1.72,1.72,0,0,0,337.36,66a2.19,2.19,0,0,0,2.23-2.48V61.35h0a3.19,3.19,0,0,1-3,1.81c-3.07,0-3.95-3-3.95-6.64,0-2.89.44-6.78,4.19-6.78a2.9,2.9,0,0,1,2.89,2h.05V50.08h2.5V62.62c0,3.22-1.37,5.15-4.92,5.15-3.92,0-4.36-2.3-4.36-3.38Zm1.86-3.33c2.06,0,2.28-2.6,2.28-4.68s-.27-4.54-2.11-4.54-2.23,2-2.23,4.41C335.25,58.51,335.35,61.06,337.31,61.06Z"/><path d="M344.58,50.08h2.5v1.54h.08a3.78,3.78,0,0,1,3.38-1.88c2,0,3.28.9,3.28,3.57v9.95h-2.65v-9c0-1.76-.46-2.38-1.83-2.38-1.08,0-2.11.81-2.11,2.58v8.84h-2.65Z"/><path d="M358.65,57v.76c0,1.77.22,4,2.2,4S363,59.66,363,58.85h2.5c0,3-1.77,4.76-4.63,4.76-2.16,0-4.83-.64-4.83-6.74,0-3.46.76-7.13,4.88-7.13,3.67,0,4.65,2.23,4.65,5.88V57Zm4.24-1.81v-.71c0-1.67-.54-2.94-2-2.94-1.67,0-2.2,1.66-2.2,3.38v.27Z"/></g><g id="England_Norway_Denmark" data-name="England Norway Denmark"><path d="M92,70.35h3.41l5.07,13h.05v-13h2.64V87.84h-3.4L94.68,74.46h-.05V87.84H92Z"/><path d="M105.63,79.1c0-6.25,1.76-9.1,5.78-9.1s5.78,2.85,5.78,9.1-1.76,9.09-5.78,9.09S105.63,85.34,105.63,79.1ZM114.4,79c0-5.88-1.32-6.91-3-6.91s-3,1-3,6.91,1.32,7.06,3,7.06S114.4,85,114.4,79Z"/><path d="M119.66,70.35h6.18c2.45,0,4.44,1.25,4.44,4.51,0,2.25-1,4-2.92,4.28v0c1.76.18,2.65,1.13,2.74,3.58,0,1.15,0,2.5.1,3.56a1.92,1.92,0,0,0,.84,1.51h-3.17a2.87,2.87,0,0,1-.46-1.54c0-.51-.08-1-.08-1.57s0-1.1,0-1.74c-.08-1.91-.67-2.74-2.55-2.74h-2.28v7.59h-2.8Zm5,7.79a2.58,2.58,0,0,0,2.79-2.84c0-1.86-.78-2.84-2.64-2.84h-2.38v5.68Z"/><path d="M131.52,70.35h2.82l2.3,13.6h.05L139,70.35h2.94L144.29,84h.05l2.28-13.67h2.77l-3.48,17.49h-3.24l-2.25-13.18h0l-2.23,13.18H134.9Z"/><path d="M153.55,70.35h3.58l4.6,17.49h-2.91l-1.08-4.28h-5.12l-1.13,4.28h-2.92Zm3.72,11-2-8.63h0l-2.08,8.63Z"/><path d="M164.57,81l-4.51-10.66h3.12l2.94,7.54,3-7.54h2.92L167.37,81v6.83h-2.8Z"/></g></svg>