<svg xmlns="http://www.w3.org/2000/svg" viewBox="0 0 1847.91 111"><title>ce0800text</title><g id="YEARS"><g id="Right"><path d="M1794,103.49c0-2.73,1.3-4.21,3.15-4.6v0c-1.59-.55-2.55-1.77-2.55-4,0-2.89,1.87-4.63,5-4.63s5,1.74,5,4.63c0,2.21-1,3.43-2.54,4v0c1.84.39,3.14,1.87,3.14,4.6,0,3.64-1.79,5.52-5.56,5.52S1794,107.13,1794,103.49Zm5.57,3.44c2.08,0,2.6-1.54,2.6-3.49s-.52-3.48-2.6-3.48-2.6,1.53-2.6,3.48S1797.52,106.93,1799.6,106.93Zm0-9.05c1.84,0,2.31-1.35,2.31-2.81s-.47-2.76-2.31-2.76-2.32,1.3-2.32,2.76S1797.75,97.88,1799.6,97.88Z" fill="#3b4351"/><path d="M1812.08,90.23c3.53,0,5.51,2.21,5.51,9.39s-2,9.39-5.51,9.39-5.52-2.22-5.52-9.39S1808.54,90.23,1812.08,90.23Zm0,16.7c2,0,2.54-2,2.54-7.31s-.54-7.31-2.54-7.31-2.55,2-2.55,7.31S1810.07,106.93,1812.08,106.93Z" fill="#3b4351"/><path d="M1824.56,90.23c3.53,0,5.51,2.21,5.51,9.39s-2,9.39-5.51,9.39-5.52-2.22-5.52-9.39S1821,90.23,1824.56,90.23Zm0,16.7c2,0,2.54-2,2.54-7.31s-.54-7.31-2.54-7.31-2.55,2-2.55,7.31S1822.55,106.93,1824.56,106.93Z" fill="#3b4351"/></g><g id="left"><path d="M19,105.4c0-2.73,1.3-4.21,3.14-4.6v0c-1.58-.55-2.54-1.77-2.54-4,0-2.89,1.87-4.63,5-4.63s5,1.74,5,4.63c0,2.21-1,3.43-2.55,4v0c1.85.39,3.15,1.87,3.15,4.6,0,3.64-1.8,5.51-5.57,5.51S19,109,19,105.4Zm5.56,3.43c2.08,0,2.6-1.53,2.6-3.48s-.52-3.49-2.6-3.49S22,103.4,22,105.35,22.48,108.83,24.56,108.83Zm0-9c1.85,0,2.32-1.35,2.32-2.8s-.47-2.76-2.32-2.76-2.31,1.3-2.31,2.76S22.72,99.78,24.56,99.78Z" fill="#3b4351"/><path d="M37,92.14c3.54,0,5.51,2.21,5.51,9.39s-2,9.38-5.51,9.38-5.51-2.21-5.51-9.38S33.51,92.14,37,92.14Zm0,16.69c2,0,2.55-2,2.55-7.3S39,94.22,37,94.22s-2.55,2-2.55,7.31S35,108.83,37,108.83Z" fill="#3b4351"/><path d="M49.52,92.14c3.54,0,5.51,2.21,5.51,9.39s-2,9.38-5.51,9.38S44,108.7,44,101.53,46,92.14,49.52,92.14Zm0,16.69c2,0,2.55-2,2.55-7.3s-.55-7.31-2.55-7.31S47,96.2,47,101.53,47.52,108.83,49.52,108.83Z" fill="#3b4351"/></g></g><g id="Nation_OUtlines" data-name="Nation OUtlines"><polygon id="Romans" points="854.62 1687 829.93 1574 711.95 1465 764.62 1351 729.95 1236 845.28 1125 1002.62 1013 1065.29 899 1021.28 788 995.34 671 815.28 563 703.28 452 687.28 337 737.95 223 780.62 111 712.62 0 645.95 -114 550.62 -227 491.95 -336.83 453.95 -449.83 455.29 -561.83 435.95 -676.83 470.62 -784.83 322.62 -784.83 416.12 -897.83 480.12 -1007.83 410.62 -1119.83 316.95 -1233.83 248.28 -1348.83 210.28 -1459.83 175.95 -1570.83 159.62 -1686.83 91.28 -1799.83 83.12 -1904.83 117.62 -2018.83 151.37 -2132.83 129.62 -2242.83 109.62 -2357.83 99.62 -2469.83 73.12 -2579.83 75.42 -3477.83 85.95 -3367.83 95.28 -3255.83 111.95 -3143.83 116.62 -3032.83 137.95 -2919.83 149.95 -2803.83 169.95 -2691.83 205.28 -2579.83 231.95 -2469.83 287.74 -2357.83 467.73 -2242.83 683.72 -2132.83 998.71 -2018.83 1118.7 -1904.83 1131.14 -1799.83 1195.2 -1686.83 1182.62 -1570.83 1245.62 -1459.83 1220.62 -1348.83 1122.62 -1233.83 981.62 -1119.83 880.12 -1007.83 717.95 -897.83 593.62 -784.83 616.62 -676.83 717.28 -561.83 839.28 -446.99 863.28 -336.83 915.28 -227 810.62 -114 885.95 0 1037.95 111 1125.95 223 1253.95 337 1213.95 452 1202.62 563 1169.95 671 1161.29 788 1218.62 899 1131.95 1013 936.62 1125 798.62 1236 819.28 1351 759.95 1465 849.28 1574 854.62 1687" fill="none" stroke="#3b4351" stroke-miterlimit="10"/><polygon id="Indians" points="1372.19 -3813.66 1294.19 -3927.83 1285.19 -4040.83 1313.69 -4151.83 1348.19 -4264.83 1310.69 -4378.83 1298.69 -4488.83 1313.69 -4600.83 1345.19 -4712.83 1325.69 -4826.83 1343.69 -4940.83 1417.19 -5051.83 1400.69 -5164.91 1429.19 -5277.83 1419.27 -5393.1 1387.19 -5504.83 1387.19 -5616.83 1438.19 -5727.33 1462.18 -5839.33 1480.18 -5952.37 1445.82 -6062.66 1411.11 -6174.66 1545.86 -6174.66 1580.1 -6062.66 1593.12 -5952.43 1552.12 -5839.33 1514.62 -5727.33 1514.12 -5617.16 1553.12 -5505.1 1548.12 -5392.83 1519.62 -5277.83 1534.12 -5164.16 1575.12 -5051.83 1559.62 -4940.83 1564.12 -4827.1 1534.62 -4712.83 1486.12 -4600.83 1465.12 -4488.83 1471.12 -4379.66 1502.12 -4265.66 1508.12 -4151.83 1534.62 -4040.83 1542.77 -3961.97 1555.62 -3813.66 1554.62 -3704.83 1567.12 -3592.83 1542.12 -3478.1 1498.12 -3367.83 1490.62 -3255.83 1513.12 -3143.83 1568.62 -3032.83 1544.12 -2919.83 1530.62 -2804.1 1523.62 -2692.1 1532.62 -2579.83 1565.12 -2469.83 1543.62 -2357.83 1514.12 -2242.83 1490.12 -2133.1 1495.62 -2018.83 1517.12 -1905.16 1528.12 -1799.83 1580.62 -1687.16 1578.12 -1571.16 1578.12 -1460.66 1560.12 -1349.1 1526.62 -1233.83 1467.62 -1119.83 1381.62 -1008.1 1270.62 -897.83 1090.12 -785.1 860.62 -676.83 1302.12 -561.83 1377.03 -449.83 1550.62 -336.83 1519.62 -227 1476.12 -114 1516.13 0 1534.62 112.34 1552.65 223 1585.62 336.9 1620.12 452 1650.12 563 1630.62 670.9 1622.45 787.9 1565.62 899 1402.62 1012.34 1173.62 1125 1148.62 1236 1334.62 1351 1283.62 1465 1344.62 1574 1544.62 1687 1602.62 1801.34 1627.62 1913 1674.62 2025.9 1627.62 2141 1634.62 2253 1686.62 2365 1701.62 2478 1620.12 2590 1606.12 2701 1606.12 2814.83 1552.62 2814.83 1549.52 2701 1569.62 2590 1683.62 2478 1667.62 2365 1607.62 2253 1596.62 2140.34 1617.62 2026 1584.62 1913 1562.62 1801 1507.62 1687 1304.62 1573.9 1225.62 1464.9 1236.97 1427.95 1264.87 1351 1082.62 1236 1084.2 1125.51 1323.62 1013 1500.47 898.9 1573.62 788 1600.62 671 1604.62 563 1569.62 452 1514.62 337 1447.62 222.9 1418.62 111 1404.62 0 1367.62 -114 1397.62 -227 1418.62 -337.1 1339.62 -450.1 1246.62 -561.83 748.62 -676.83 753.62 -784.83 910.76 -897.83 1053.62 -1007.83 1195.2 -1119.83 1311.62 -1234.66 1353.62 -1348.83 1348.62 -1459.83 1364.62 -1571.66 1406.62 -1686.83 1401.62 -1799.83 1429.62 -1904.83 1394.62 -2019.1 1393.2 -2132.83 1391.82 -2243.1 1437.52 -2357.83 1513.62 -2470.1 1505.64 -2579.83 1472.62 -2691.66 1447.62 -2803.83 1440.63 -2919.83 1462.62 -3032.83 1391.1 -3143.83 1348.62 -3255.83 1332.62 -3367.83 1376.98 -3477.83 1375.34 -3593.1 1373.74 -3705.1 1372.19 -3813.66" fill="none" stroke="#3b4351" stroke-miterlimit="10"/><polygon id="Chinese" points="1610.76 -3815.1 1609.69 -3928.1 1608.62 -4041.16 1585.12 -4151.83 1551.62 -4264.83 1509.12 -4378.83 1538.12 -4489.1 1586.62 -4601.1 1616.12 -4712.83 1645.62 -4827.1 1697.12 -4941.1 1714.62 -5052.16 1689.12 -5163.83 1700.12 -5277.83 1676.62 -5392.83 1650.62 -5505.16 1630.62 -5616.83 1620.62 -5727.33 1646.62 -5839.33 1667.62 -5951.99 1651.62 -6062.66 1633.99 -6174.66 1768.79 -6174.66 1768.79 2026 1768.79 2140.9 1766.12 2253 1757.62 2365 1736.12 2477.9 1676.12 2589.9 1661.12 2701 1663.62 2814.83 1606.12 2814.83 1606.12 2700.9 1620.12 2590 1701.62 2478 1696.12 2364.84 1654.12 2253 1681.62 2141 1739.62 2025.9 1748.62 1912.84 1744.12 1800.84 1685.62 1687 1615.12 1576.34 1636.12 1465 1738.62 1351 1761.12 1236 1758.62 1125 1732.12 1013 1695.62 899 1667.62 788 1651.12 671 1650.12 563 1620.12 452 1585.62 336.9 1552.62 222.9 1535.12 111 1516.12 -0.1 1476.12 -114 1542.12 -227 1625.62 -337.16 1668.12 -450.16 1666.12 -561.83 1673.62 -676.83 1653.62 -784.83 1602.12 -898.1 1534.12 -1008.1 1564.12 -1119.83 1598.12 -1234.1 1612.12 -1348.83 1611.01 -1460.1 1592.62 -1571.1 1609.25 -1686.83 1616.07 -1799.83 1553.62 -1904.83 1529.62 -2018.83 1528.62 -2133.1 1555.62 -2242.83 1612.12 -2357.83 1621.12 -2469.83 1587.12 -2579.83 1567.62 -2691.83 1576.62 -2803.83 1571.12 -2919.83 1584.62 -3033.1 1558.62 -3143.83 1545.62 -3256.1 1557.62 -3368.1 1599.62 -3477.83 1625.12 -3593.1 1613.62 -3705.1 1610.76 -3815.1" fill="none" stroke="#3b4351" stroke-miterlimit="10"/><polygon id="Teutons_-_Franks" data-name="Teutons - Franks" points="600.62 223 277.29 223 235.95 111 189.95 0 180.62 -114 142.62 -227 139.95 -336.83 120.62 -449.83 99.95 -561.83 73.12 -676.83 73.12 -1119.83 101.12 -1007.83 138.62 -895.41 168.12 -784.83 189.69 -676.83 192.12 -561.83 257.62 -449.83 298.12 -336.83 333.12 -227 392.87 -114 712.62 0 676.62 111 600.62 223" fill="none" stroke="#3b4351" stroke-miterlimit="10"/><polygon id="Teutons_-Goths" data-name="Teutons -Goths" points="712.62 0 392.87 -114 333.12 -227 298.12 -336.83 257.62 -449.83 192.12 -561.83 189.69 -676.83 168.12 -784.83 138.62 -895.41 101.12 -1007.83 73.12 -1117.16 73.12 -2579.83 99.62 -2469.83 109.62 -2357.83 129.3 -2240.44 151.37 -2132.83 117.62 -2018.83 83.12 -1904.83 91.28 -1799.83 159.62 -1686.83 175.95 -1570.83 210.28 -1459.83 248.28 -1348.83 316.95 -1233.83 410.62 -1119.83 480.12 -1007.83 416.12 -897.83 322.62 -784.83 328.12 -676.83 455.29 -561.83 453.95 -449.83 425.12 -336.83 461.12 -227 536.62 -114 712.62 0" fill="none" stroke="#3b4351" stroke-miterlimit="10"/><polygon id="Denmark" points="916.62 2814.83 927.62 2814.83 926.37 2701 701.12 2590 690.87 2478 683.87 2365 637.87 2253 522.37 2141 457.37 2026 426.62 1913 299.62 1801 273.62 1687 281.62 1574 289.12 1465 302.12 1351 296.87 1236 275.62 1125 253.62 1013 226.62 899 210.62 788 199.62 563 199.37 452 291.37 337 277.29 223 235.95 111 188.87 0 180.62 -114 142.62 -227 139.95 -336.83 120.62 -449.83 99.95 -561.83 73.12 -676.83 90.34 -561.83 107.12 -449.83 118.37 -336.83 120.37 -227 122.62 -114 125.87 0 158.37 111 185.87 223 183.62 337 127.62 452 119.62 563 119.12 671 156.87 788 188.62 899 212.62 1013 252.37 1125 277.87 1236 283.37 1351 267.12 1465 248.87 1574 213.87 1687 234.37 1801 312.12 1913 398.12 2026 458.87 2141 593.37 2253 637.87 2365 674.12 2478 691.37 2590 915.37 2701 916.62 2814.83" fill="none" stroke="#3b4351" stroke-miterlimit="10"/><polygon id="Norway" points="213.87 1687 222.62 1574 243.95 1465 258.95 1351 252.95 1236 220.95 1125 186.86 1013 160.95 899 133.28 788 96.28 671 84.28 563 89.28 452 120.28 337 98.62 223 94.28 111 91.95 0 95.28 -114 99.62 -227 96.58 -336.83 93.44 -449.83 90.34 -561.83 107.12 -449.83 118.37 -336.83 120.37 -227 122.62 -114 125.87 0 158.37 111 185.87 223 183.62 337 127.62 452 119.62 563 119.12 671 156.87 788 188.62 899 212.62 1013 252.37 1125 277.87 1236 283.37 1351 267.12 1465 248.87 1574 213.87 1687" fill="none" stroke="#3b4351" stroke-miterlimit="10"/><polygon id="England" points="874.62 2814.83 688.95 2814.83 687.95 2701 439.12 2590 252.12 2478 159.62 2365 111.62 2253 93.62 2141 86.12 2026 84.62 1913 86.95 1801 98.28 1687 116.95 1574 114.62 1465 122.62 1351 120.62 1236 108.28 1125 100.16 1013 107.95 899 107.95 788 77.28 671 73.12 -676.83 90.34 -561.83 93.44 -449.83 96.58 -336.83 99.62 -227 91.95 0 94.28 111 98.62 223 120.28 337 89.28 452 84.28 563 96.28 671 133.28 788 160.95 899 172.95 1013 208.95 1125 223.62 1236 228.28 1351 211.62 1465 201.62 1574 189.95 1687 193.28 1801 235.28 1913 248.62 2026 348.62 2141 562.62 2253 622.12 2365 602.12 2478 652.12 2590 872.95 2701 874.62 2814.83" fill="none" stroke="#3b4351" stroke-miterlimit="10"/><polygon points="687.28 337 737.95 223 780.62 111 712.62 0 676.62 111 600.62 223 644.62 337 703.28 452 687.28 337" fill="none" stroke="#3b4351" stroke-miterlimit="10"/><polygon id="Lombard" points="536.62 -114 461.12 -227 425.12 -336.83 453.95 -449.83 491.95 -336.83 550.62 -227 645.95 -114 712.62 0 536.62 -114" fill="none" stroke="#3b4351" stroke-miterlimit="10"/><polygon id="Moslem_Arabs_and_Persians" data-name="Moslem Arabs and Persians" points="1404.62 0 1418.62 111 1411.62 223 1453.62 337 1382.62 452 1328.62 563 1225.12 671 1161.29 788 1169.95 671 1202.62 563 1213.95 452 1253.95 337 1125.95 223 1037.95 111 885.95 0 810.62 -114 997.62 -227 1106.62 -336.2 1418.62 -337.1 1397.62 -227 1367.62 -114 1404.62 0" fill="none" stroke="#3b4351" stroke-miterlimit="10"/><polygon id="Russia" points="1573.62 788 1500.47 898.9 1323.62 1013 1084.2 1125.51 1257.37 1013 1428.62 899 1495.12 786.33 1508.12 671 1519.62 563 1488.62 452 1453.62 337 1411.62 223 1418.62 111 1447.62 222.9 1514.62 337 1569.62 452 1604.62 563 1600.62 671 1573.62 788" fill="none" stroke="#3b4351" stroke-miterlimit="10"/></g><g id="Text"><g id="Teutons_-_Franks-2" data-name="Teutons - Franks"><path d="M253.91,57v.37c0,3.16-1.3,6.25-5.39,6.25-4.41,0-5.78-2.85-5.78-9.1s1.37-9.09,5.81-9.09c5,0,5.27,3.65,5.27,5.49v.32H251v-.29c0-1.65-.49-3.48-2.5-3.41s-3,1.27-3,6.91.91,7.06,3,7.06c2.35,0,2.6-2.57,2.6-4.22V57Z" fill="#3b4351"/><path d="M255.7,45.77h2.65V51.5l.07,0a3.76,3.76,0,0,1,3.23-1.81c2,0,3.29.9,3.29,3.57v9.95h-2.65v-9c0-1.74-.49-2.38-1.84-2.38-1.08,0-2.1.84-2.1,2.58v8.84H255.7Z" fill="#3b4351"/><path d="M276.13,60.52c0,.49.3.93.69.93a1.18,1.18,0,0,0,.44-.07v1.71a2.83,2.83,0,0,1-1.3.32c-1.17,0-2.15-.47-2.23-1.74h-.05a3.4,3.4,0,0,1-3.28,1.94c-2.13,0-3.43-1.16-3.43-3.7,0-2.95,1.3-3.56,3.06-4.15l2.06-.56c1-.27,1.54-.54,1.54-1.69s-.41-2-1.81-2c-1.76,0-2,1.25-2,2.52h-2.5c0-2.82,1.15-4.33,4.63-4.33,2.33,0,4.19.9,4.19,3.23Zm-2.5-4.22a20,20,0,0,1-2.94,1.23,2.16,2.16,0,0,0-1.07,2.13c0,1.1.53,2,1.64,2,1.59,0,2.37-1.18,2.37-3.14Z" fill="#3b4351"/><path d="M278.83,50.08h2.64v2.06h0a3.26,3.26,0,0,1,3.07-2.4,1.56,1.56,0,0,1,.63.09v2.7a3.73,3.73,0,0,0-1.1-.15c-1.2,0-2.65.54-2.65,3v7.89h-2.64Z" fill="#3b4351"/><path d="M286.67,45.77h2.64V63.26h-2.64Z" fill="#3b4351"/><path d="M294.26,57v.76c0,1.77.22,4,2.21,4s2.1-2.13,2.1-2.94h2.5c0,3-1.76,4.76-4.63,4.76-2.15,0-4.83-.64-4.83-6.74,0-3.46.76-7.13,4.88-7.13,3.68,0,4.66,2.23,4.66,5.88V57Zm4.24-1.81v-.71c0-1.67-.54-2.94-2-2.94-1.67,0-2.21,1.66-2.21,3.38v.27Z" fill="#3b4351"/><path d="M303.45,50.08H306v1.54H306a3.69,3.69,0,0,1,3.16-1.88,2.87,2.87,0,0,1,3.07,2,3.59,3.59,0,0,1,3.33-2c1.86,0,3.21.95,3.21,3.5v10h-2.65v-9c0-1.74-.51-2.38-1.59-2.38s-2.11.84-2.11,2.58v8.84h-2.65v-9c0-1.74-.51-2.38-1.61-2.38s-2.09.86-2.09,2.58v8.84h-2.64Z" fill="#3b4351"/><path d="M330.11,60.52c0,.49.29.93.68.93a1.14,1.14,0,0,0,.44-.07v1.71a2.83,2.83,0,0,1-1.3.32c-1.17,0-2.15-.47-2.23-1.74h0a3.42,3.42,0,0,1-3.29,1.94c-2.13,0-3.43-1.16-3.43-3.7,0-2.95,1.3-3.56,3.06-4.15l2.06-.56c1-.27,1.55-.54,1.55-1.69s-.42-2-1.82-2c-1.76,0-2,1.25-2,2.52h-2.5c0-2.82,1.16-4.33,4.64-4.33,2.32,0,4.19.9,4.19,3.23Zm-2.5-4.22a21,21,0,0,1-2.94,1.23,2.17,2.17,0,0,0-1.08,2.13c0,1.1.54,2,1.64,2,1.59,0,2.38-1.18,2.38-3.14Z" fill="#3b4351"/><path d="M335.45,64.39A1.72,1.72,0,0,0,337.36,66a2.19,2.19,0,0,0,2.23-2.48V61.35h0a3.19,3.19,0,0,1-3,1.81c-3.07,0-3.95-3-3.95-6.64,0-2.89.44-6.78,4.19-6.78a2.9,2.9,0,0,1,2.89,2h.05V50.08h2.5V62.62c0,3.22-1.37,5.15-4.92,5.15-3.92,0-4.36-2.3-4.36-3.38Zm1.86-3.33c2.06,0,2.28-2.6,2.28-4.68s-.27-4.54-2.11-4.54-2.23,2-2.23,4.41C335.25,58.51,335.35,61.06,337.31,61.06Z" fill="#3b4351"/><path d="M344.58,50.08h2.5v1.54h.08a3.78,3.78,0,0,1,3.38-1.88c2,0,3.28.9,3.28,3.57v9.95h-2.65v-9c0-1.76-.46-2.38-1.83-2.38-1.08,0-2.11.81-2.11,2.58v8.84h-2.65Z" fill="#3b4351"/><path d="M358.65,57v.76c0,1.77.22,4,2.2,4S363,59.66,363,58.85h2.5c0,3-1.77,4.76-4.63,4.76-2.16,0-4.83-.64-4.83-6.74,0-3.46.76-7.13,4.88-7.13,3.67,0,4.65,2.23,4.65,5.88V57Zm4.24-1.81v-.71c0-1.67-.54-2.94-2-2.94-1.67,0-2.2,1.66-2.2,3.38v.27Z" fill="#3b4351"/></g><g id="England_Norway_Denmark" data-name="England Norway Denmark"><path d="M92,70.35h3.41l5.07,13h.05v-13h2.64V87.84h-3.4L94.68,74.46h-.05V87.84H92Z" fill="#3b4351"/><path d="M105.63,79.1c0-6.25,1.76-9.1,5.78-9.1s5.78,2.85,5.78,9.1-1.76,9.09-5.78,9.09S105.63,85.34,105.63,79.1ZM114.4,79c0-5.88-1.32-6.91-3-6.91s-3,1-3,6.91,1.32,7.06,3,7.06S114.4,85,114.4,79Z" fill="#3b4351"/><path d="M119.66,70.35h6.18c2.45,0,4.44,1.25,4.44,4.51,0,2.25-1,4-2.92,4.28v0c1.76.18,2.65,1.13,2.74,3.58,0,1.15,0,2.5.1,3.56a1.92,1.92,0,0,0,.84,1.51h-3.17a2.87,2.87,0,0,1-.46-1.54c0-.51-.08-1-.08-1.57s0-1.1,0-1.74c-.08-1.91-.67-2.74-2.55-2.74h-2.28v7.59h-2.8Zm5,7.79a2.58,2.58,0,0,0,2.79-2.84c0-1.86-.78-2.84-2.64-2.84h-2.38v5.68Z" fill="#3b4351"/><path d="M131.52,70.35h2.82l2.3,13.6h.05L139,70.35h2.94L144.29,84h.05l2.28-13.67h2.77l-3.48,17.49h-3.24l-2.25-13.18h0l-2.23,13.18H134.9Z" fill="#3b4351"/><path d="M153.55,70.35h3.58l4.6,17.49h-2.91l-1.08-4.28h-5.12l-1.13,4.28h-2.92Zm3.72,11-2-8.63h0l-2.08,8.63Z" fill="#3b4351"/><path d="M164.57,81l-4.51-10.66h3.12l2.94,7.54,3-7.54h2.92L167.37,81v6.83h-2.8Z" fill="#3b4351"/></g><g id="Islam"><path d="M1242.92,40.12h2.8v7h5.14v-7h2.8v17.5h-2.8V49.48h-5.14v8.14h-2.8Z" fill="#3b4351"/><path d="M1265,54.87c0,.49.3.93.69.93a1,1,0,0,0,.44-.07v1.72a2.83,2.83,0,0,1-1.3.32c-1.17,0-2.16-.47-2.23-1.74h0a3.41,3.41,0,0,1-3.28,1.93c-2.13,0-3.43-1.15-3.43-3.7,0-2.94,1.3-3.55,3.06-4.14l2.06-.56c1-.27,1.54-.54,1.54-1.69s-.41-2-1.81-2c-1.76,0-2,1.24-2,2.52h-2.5c0-2.82,1.15-4.34,4.63-4.34,2.33,0,4.19.91,4.19,3.24Zm-2.5-4.21a20,20,0,0,1-2.94,1.22A2.18,2.18,0,0,0,1258.5,54c0,1.1.54,2,1.65,2,1.59,0,2.37-1.17,2.37-3.14Z" fill="#3b4351"/><path d="M1267.72,44.43h2.64v2.06h.05a3.26,3.26,0,0,1,3.07-2.4,1.53,1.53,0,0,1,.63.1v2.69a3.8,3.8,0,0,0-1.1-.14c-1.2,0-2.65.54-2.65,3v7.89h-2.64Z" fill="#3b4351"/><path d="M1274.92,51c0-4.12,1.08-6.94,4.9-6.94s4.93,2.82,4.93,6.94-1.28,6.93-4.93,6.93S1274.92,55.14,1274.92,51Zm4.9,5c1.94,0,2.28-1.62,2.28-5,0-2.92-.34-5-2.28-5s-2.26,2.06-2.26,5C1277.56,54.38,1277.93,56,1279.82,56Z" fill="#3b4351"/><path d="M1293.52,56.07h-.08a3.77,3.77,0,0,1-3.38,1.89c-2,0-3.28-.91-3.28-4.31V44.43h2.64v9.46c0,1.47.64,2,1.79,2a2.06,2.06,0,0,0,2.16-2.2V44.43H1296V57.62h-2.5Z" fill="#3b4351"/><path d="M1298.56,44.43h2.5V46h.07a3.8,3.8,0,0,1,3.39-1.89c2,0,3.28.91,3.28,3.58v9.95h-2.65v-9c0-1.77-.46-2.38-1.84-2.38-1.07,0-2.1.81-2.1,2.57v8.85h-2.65Z" fill="#3b4351"/><path d="M1310.17,49.29h6.42v2.5h-6.42Z" fill="#3b4351"/><path d="M1327.62,54.87c0,.49.29.93.69.93a1,1,0,0,0,.44-.07v1.72a2.86,2.86,0,0,1-1.3.32c-1.18,0-2.16-.47-2.23-1.74h0a3.42,3.42,0,0,1-3.29,1.93c-2.13,0-3.43-1.15-3.43-3.7,0-2.94,1.3-3.55,3.07-4.14l2.06-.56c1-.27,1.54-.54,1.54-1.69s-.42-2-1.81-2c-1.77,0-2,1.24-2,2.52h-2.5c0-2.82,1.15-4.34,4.63-4.34,2.33,0,4.19.91,4.19,3.24Zm-2.5-4.21a20.45,20.45,0,0,1-2.94,1.22A2.18,2.18,0,0,0,1321.1,54c0,1.1.54,2,1.64,2,1.6,0,2.38-1.17,2.38-3.14Z" fill="#3b4351"/><path d="M1330.43,40.12h2.65v17.5h-2.65Z" fill="#3b4351"/><path d="M1341.8,40.12H1348c2.45,0,4.43,1.25,4.43,4.51,0,2.25-1,4-2.91,4.29v0c1.76.17,2.64,1.13,2.74,3.58,0,1.15,0,2.5.1,3.55a1.89,1.89,0,0,0,.83,1.52H1350a2.94,2.94,0,0,1-.46-1.55c0-.51-.08-1-.08-1.56s0-1.11,0-1.74c-.07-1.91-.66-2.75-2.55-2.75h-2.27v7.6h-2.8Zm5,7.79a2.58,2.58,0,0,0,2.79-2.84c0-1.86-.79-2.84-2.65-2.84h-2.37v5.68Z" fill="#3b4351"/><path d="M1363.44,54.87c0,.49.29.93.68.93a1,1,0,0,0,.44-.07v1.72a2.78,2.78,0,0,1-1.29.32c-1.18,0-2.16-.47-2.23-1.74h0A3.42,3.42,0,0,1,1357.7,58c-2.13,0-3.43-1.15-3.43-3.7,0-2.94,1.3-3.55,3.06-4.14l2.06-.56c1-.27,1.55-.54,1.55-1.69s-.42-2-1.82-2c-1.76,0-2,1.24-2,2.52h-2.5c0-2.82,1.16-4.34,4.64-4.34,2.32,0,4.19.91,4.19,3.24Zm-2.5-4.21a20.45,20.45,0,0,1-2.94,1.22,2.18,2.18,0,0,0-1.08,2.14c0,1.1.54,2,1.64,2,1.59,0,2.38-1.17,2.38-3.14Z" fill="#3b4351"/><path d="M1366.13,40.12h2.65v5.74l.07,0a3.74,3.74,0,0,1,3.23-1.82c2,0,3.29.91,3.29,3.58v9.95h-2.65v-9c0-1.74-.49-2.38-1.84-2.38-1.07,0-2.1.83-2.1,2.57v8.85h-2.65Z" fill="#3b4351"/><path d="M1383.6,48.28v-.34c0-1.06-.37-2-1.74-2-1,0-1.89.46-1.89,1.71,0,1.05.47,1.45,1.86,1.94l1.7.58c2,.67,2.86,1.72,2.86,3.8,0,2.82-2.08,4-4.73,4-3.33,0-4.33-1.54-4.33-4.09v-.49h2.35v.42c0,1.54.51,2.35,2.06,2.35s2.15-.74,2.15-1.94a1.9,1.9,0,0,0-1.44-1.93l-2.16-.76c-2-.66-2.82-1.69-2.82-3.8,0-2.48,1.77-3.63,4.51-3.63,3.36,0,4.12,2,4.12,3.6v.59Z" fill="#3b4351"/><path d="M1388.47,39.93h2.65v2.64h-2.65Zm0,4.5h2.65V57.62h-2.65Z" fill="#3b4351"/><path d="M1400.53,56h0a2.82,2.82,0,0,1-2.89,2c-3.07,0-4.32-2.6-4.32-7.1,0-5.86,2.06-6.77,4.07-6.77a3,3,0,0,1,3,1.89h.05V40.12H1403v17.5h-2.5Zm-2.4-9.8c-1.5,0-2.06,1.22-2.06,4.78,0,3,.37,4.87,2.23,4.87s2.23-1.83,2.23-4.68C1400.53,48,1400.18,46.2,1398.13,46.2Z" fill="#3b4351"/></g></g></svg>