<svg id="Text" xmlns="http://www.w3.org/2000/svg" viewBox="0 0 1847.91 112"><title>ce0850text</title><g id="England_Norway_Denmark" data-name="England Norway Denmark"><path d="M153.12,56h5c5.49,0,6.17,3.57,6.17,8.74s-.68,8.75-6.17,8.75h-5Zm2.8,15.39h2.3c2.3,0,3.26-1.52,3.26-6.65,0-4.92-.83-6.64-3.26-6.64h-2.3Z"/><path d="M166.75,56h9.45v2.35h-6.66V63.2h6.27v2.35h-6.27v5.59h6.86v2.35h-9.65Z"/><path d="M178.53,56h3.41L187,69h.05V56h2.64V73.49h-3.4l-5.07-13.38h0V73.49h-2.65Z"/><path d="M192.59,56H197L200,69h.05l3-13h4.26V73.49h-2.64V58.94h-.05l-3.53,14.55h-2.35l-3.53-14.55h0V73.49h-2.65Z"/><path d="M213.59,56h3.58l4.6,17.49h-2.91l-1.08-4.28h-5.12l-1.13,4.28h-2.92Zm3.72,11-2-8.62h0L213.17,67Z"/><path d="M223,56h6.17c2.45,0,4.44,1.25,4.44,4.5,0,2.26-1,4-2.92,4.29v0c1.76.17,2.65,1.13,2.75,3.58,0,1.15,0,2.5.09,3.55a1.92,1.92,0,0,0,.84,1.52h-3.16a2.89,2.89,0,0,1-.47-1.54c-.05-.52-.07-1-.07-1.57s0-1.1,0-1.74c-.08-1.91-.66-2.74-2.55-2.74h-2.28v7.59H223Zm5,7.79A2.58,2.58,0,0,0,230.81,61c0-1.87-.78-2.85-2.64-2.85h-2.38v5.69Z"/><path d="M236.15,56H239v7.62H239L244.29,56h3.06l-5,7.37,5.59,10.12h-3.16l-4.24-7.86L239,67.83v5.66h-2.8Z"/></g></svg>