<svg xmlns="http://www.w3.org/2000/svg" viewBox="0 0 1847.91 114"><title>ce0900text</title><g id="YEARS"><g id="Right"><path d="M1797.31,106.51c0,1.07.52,2.4,2,2.4,2.78,0,2.93-3.64,2.93-6.35l-.08,0a3.75,3.75,0,0,1-3.58,1.95c-2.53,0-4.55-1.82-4.55-5.49,0-4.24,1.71-6.76,5.64-6.76,4.65,0,5.54,3.54,5.54,8.82,0,5.51-1,10-5.88,10-3.25,0-5-1.43-5-4.48Zm2.11-12.22c-1.8,0-2.45,1.8-2.45,4,0,2.57.76,4,2.45,4,2.18,0,2.54-1.89,2.54-4.1S1801.16,94.29,1799.42,94.29Z" fill="#3b4351"/><path d="M1812.08,92.21c3.53,0,5.51,2.21,5.51,9.39s-2,9.39-5.51,9.39-5.52-2.21-5.52-9.39S1808.54,92.21,1812.08,92.21Zm0,16.7c2,0,2.54-2,2.54-7.31s-.54-7.31-2.54-7.31-2.55,2-2.55,7.31S1810.07,108.91,1812.08,108.91Z" fill="#3b4351"/><path d="M1824.56,92.21c3.53,0,5.51,2.21,5.51,9.39s-2,9.39-5.51,9.39-5.52-2.21-5.52-9.39S1821,92.21,1824.56,92.21Zm0,16.7c2,0,2.54-2,2.54-7.31s-.54-7.31-2.54-7.31-2.55,2-2.55,7.31S1822.55,108.91,1824.56,108.91Z" fill="#3b4351"/></g><g id="left"><path d="M22.27,108.42c0,1.07.52,2.39,2,2.39,2.78,0,2.94-3.64,2.94-6.34l-.08,0a3.79,3.79,0,0,1-3.59,2c-2.52,0-4.55-1.82-4.55-5.49,0-4.24,1.72-6.76,5.64-6.76,4.66,0,5.54,3.54,5.54,8.81,0,5.52-1,10-5.87,10-3.25,0-5-1.43-5-4.47ZM24.38,96.2c-1.79,0-2.44,1.79-2.44,4,0,2.58.75,4,2.44,4,2.18,0,2.55-1.9,2.55-4.11S26.12,96.2,24.38,96.2Z" fill="#3b4351"/><path d="M37,94.12c3.54,0,5.51,2.21,5.51,9.39s-2,9.38-5.51,9.38-5.51-2.21-5.51-9.38S33.51,94.12,37,94.12Zm0,16.69c2,0,2.55-2,2.55-7.3S39,96.2,37,96.2s-2.55,2-2.55,7.31S35,110.81,37,110.81Z" fill="#3b4351"/><path d="M49.52,94.12c3.54,0,5.51,2.21,5.51,9.39s-2,9.38-5.51,9.38S44,110.68,44,103.51,46,94.12,49.52,94.12Zm0,16.69c2,0,2.55-2,2.55-7.3s-.55-7.31-2.55-7.31-2.55,2-2.55,7.31S47.52,110.81,49.52,110.81Z" fill="#3b4351"/><path d="M19-5.11c0-2.73,1.3-4.21,3.14-4.6v0c-1.58-.55-2.54-1.77-2.54-4,0-2.89,1.87-4.63,5-4.63s5,1.74,5,4.63c0,2.21-1,3.43-2.55,4v0c1.85.39,3.15,1.87,3.15,4.6,0,3.64-1.8,5.51-5.57,5.51S19-1.47,19-5.11Zm5.56,3.43c2.08,0,2.6-1.53,2.6-3.48s-.52-3.49-2.6-3.49S22-7.11,22-5.16,22.48-1.68,24.56-1.68Zm0-9c1.85,0,2.32-1.35,2.32-2.81s-.47-2.75-2.32-2.75-2.31,1.3-2.31,2.75S22.72-10.73,24.56-10.73Z" fill="#3b4351"/><path d="M31.63-4.93h2.81v.5a2.36,2.36,0,0,0,2.42,2.6c2.08,0,2.63-2,2.63-4.19S38.91-9.95,37-9.95A2.35,2.35,0,0,0,34.6-8.26L32-8.36,32.88-18h8.87v2.37H35.09l-.6,4.84.06.05a4,4,0,0,1,3.09-1.43c3.85,0,4.81,3.25,4.81,6.08,0,3.69-1.69,6.5-5.67,6.5-3.3,0-5.15-1.69-5.15-4.94Z" fill="#3b4351"/><path d="M49.52-18.37C53.06-18.37,55-16.16,55-9S53.06.4,49.52.4,44-1.81,44-9,46-18.37,49.52-18.37Zm0,16.69c2,0,2.55-2,2.55-7.3s-.55-7.31-2.55-7.31S47-14.31,47-9,47.52-1.68,49.52-1.68Z" fill="#3b4351"/></g></g><g id="Nation_OUtlines" data-name="Nation OUtlines"><polygon id="Romans" points="854.62 1464 829.93 1351 711.95 1242 764.62 1128 729.95 1013 845.28 902 1002.62 790 1065.29 676 1021.28 565 995.34 448 815.28 340 703.28 229 687.28 114 737.95 0 780.62 -112 712.62 -223 645.95 -337 550.62 -450 491.95 -559.83 453.95 -672.83 455.29 -784.83 435.95 -899.83 470.62 -1007.83 322.62 -1007.83 416.12 -1120.83 480.12 -1230.83 410.62 -1342.83 316.95 -1456.83 248.28 -1571.83 210.28 -1682.83 175.95 -1793.83 159.62 -1909.83 91.28 -2022.83 83.12 -2127.83 117.62 -2241.83 151.37 -2355.83 129.62 -2465.83 109.62 -2580.83 99.62 -2692.83 73.12 -2802.83 75.42 -3700.83 85.95 -3590.83 95.28 -3478.83 111.95 -3366.83 116.62 -3255.83 137.95 -3142.83 149.95 -3026.83 169.95 -2914.83 205.28 -2802.83 231.95 -2692.83 287.74 -2580.83 467.73 -2465.83 683.72 -2355.83 998.71 -2241.83 1118.7 -2127.83 1131.14 -2022.83 1195.2 -1909.83 1182.62 -1793.83 1245.62 -1682.83 1220.62 -1571.83 1122.62 -1456.83 981.62 -1342.83 880.12 -1230.83 717.95 -1120.83 593.62 -1007.83 616.62 -899.83 717.28 -784.83 839.28 -669.99 863.28 -559.83 915.28 -450 810.62 -337 885.95 -223 1037.95 -112 1125.95 0 1253.95 114 1213.95 229 1202.62 340 1169.95 448 1161.29 565 1218.62 676 1131.95 790 936.62 902 798.62 1013 819.28 1128 759.95 1242 849.28 1351 854.62 1464" fill="none" stroke="#3b4351" stroke-miterlimit="10"/><polygon id="Indians" points="1372.19 -4036.66 1294.19 -4150.83 1285.19 -4263.83 1313.69 -4374.83 1348.19 -4487.83 1310.69 -4601.83 1298.69 -4711.83 1313.69 -4823.83 1345.19 -4935.83 1325.69 -5049.83 1343.69 -5163.83 1417.19 -5274.83 1400.69 -5387.91 1429.19 -5500.83 1419.27 -5616.1 1387.19 -5727.83 1387.19 -5839.83 1438.19 -5950.33 1462.18 -6062.33 1480.18 -6175.37 1445.82 -6285.66 1411.11 -6397.66 1545.86 -6397.66 1580.1 -6285.66 1593.12 -6175.43 1552.12 -6062.33 1514.62 -5950.33 1514.12 -5840.16 1553.12 -5728.1 1548.12 -5615.83 1519.62 -5500.83 1534.12 -5387.16 1575.12 -5274.83 1559.62 -5163.83 1564.12 -5050.1 1534.62 -4935.83 1486.12 -4823.83 1465.12 -4711.83 1471.12 -4602.66 1502.12 -4488.66 1508.12 -4374.83 1534.62 -4263.83 1542.77 -4184.97 1555.62 -4036.66 1554.62 -3927.83 1567.12 -3815.83 1542.12 -3701.1 1498.12 -3590.83 1490.62 -3478.83 1513.12 -3366.83 1568.62 -3255.83 1544.12 -3142.83 1530.62 -3027.1 1523.62 -2915.1 1532.62 -2802.83 1565.12 -2692.83 1543.62 -2580.83 1514.12 -2465.83 1490.12 -2356.1 1495.62 -2241.83 1517.12 -2128.16 1528.12 -2022.83 1580.62 -1910.16 1578.12 -1794.16 1578.12 -1683.66 1560.12 -1572.1 1526.62 -1456.83 1467.62 -1342.83 1381.62 -1231.1 1270.62 -1120.83 1090.12 -1008.1 860.62 -899.83 1302.12 -784.83 1377.03 -672.83 1550.62 -559.83 1519.62 -450 1476.12 -337 1516.13 -223 1534.62 -110.66 1552.65 0 1585.62 113.9 1620.12 229 1650.12 340 1630.62 447.9 1622.45 564.9 1565.62 676 1402.62 789.34 1173.62 902 1148.62 1013 1334.62 1128 1283.62 1242 1344.62 1351 1544.62 1464 1602.62 1578.34 1627.62 1690 1674.62 1802.9 1627.62 1918 1634.62 2030 1686.62 2142 1701.62 2255 1620.12 2367 1606.12 2478 1606.12 2591.83 1552.62 2591.83 1549.52 2478 1569.62 2367 1683.62 2255 1667.62 2142 1607.62 2030 1596.62 1917.34 1617.62 1803 1584.62 1690 1562.62 1578 1507.62 1464 1304.62 1350.9 1225.62 1241.9 1236.97 1204.95 1264.87 1128 1082.62 1013 1084.2 902.51 1323.62 790 1500.47 675.9 1573.62 565 1600.62 448 1604.62 340 1569.62 229 1514.62 114 1447.62 -0.1 1418.62 -112 1404.62 -223 1367.62 -337 1397.62 -450 1418.62 -560.1 1339.62 -673.1 1246.62 -784.83 748.62 -899.83 753.62 -1007.83 910.76 -1120.83 1053.62 -1230.83 1195.2 -1342.83 1311.62 -1457.66 1353.62 -1571.83 1348.62 -1682.83 1364.62 -1794.66 1406.62 -1909.83 1401.62 -2022.83 1429.62 -2127.83 1394.62 -2242.1 1393.2 -2355.83 1391.82 -2466.1 1437.52 -2580.83 1513.62 -2693.1 1505.64 -2802.83 1472.62 -2914.66 1447.62 -3026.83 1440.63 -3142.83 1462.62 -3255.83 1391.1 -3366.83 1348.62 -3478.83 1332.62 -3590.83 1376.98 -3700.83 1375.34 -3816.1 1373.74 -3928.1 1372.19 -4036.66" fill="none" stroke="#3b4351" stroke-miterlimit="10"/><polygon id="Chinese" points="1610.76 -4038.1 1609.69 -4151.1 1608.62 -4264.16 1585.12 -4374.83 1551.62 -4487.83 1509.12 -4601.83 1538.12 -4712.1 1586.62 -4824.1 1616.12 -4935.83 1645.62 -5050.1 1697.12 -5164.1 1714.62 -5275.16 1689.12 -5386.83 1700.12 -5500.83 1676.62 -5615.83 1650.62 -5728.16 1630.62 -5839.83 1620.62 -5950.33 1646.62 -6062.33 1667.62 -6174.99 1651.62 -6285.66 1633.99 -6397.66 1768.79 -6397.66 1768.79 1803 1768.79 1917.9 1766.12 2030 1757.62 2142 1736.12 2254.9 1676.12 2366.9 1661.12 2478 1663.62 2591.83 1606.12 2591.83 1606.12 2477.9 1620.12 2367 1701.62 2255 1696.12 2141.84 1654.12 2030 1681.62 1918 1739.62 1802.9 1748.62 1689.84 1744.12 1577.84 1685.62 1464 1615.12 1353.34 1636.12 1242 1738.62 1128 1761.12 1013 1758.62 902 1732.12 790 1695.62 676 1667.62 565 1651.12 448 1650.12 340 1620.12 229 1585.62 113.9 1552.62 -0.1 1535.12 -112 1516.12 -223.1 1476.12 -337 1542.12 -450 1625.62 -560.16 1668.12 -673.16 1666.12 -784.83 1673.62 -899.83 1653.62 -1007.83 1602.12 -1121.1 1534.12 -1231.1 1564.12 -1342.83 1598.12 -1457.1 1612.12 -1571.83 1611.01 -1683.1 1592.62 -1794.1 1609.25 -1909.83 1616.07 -2022.83 1553.62 -2127.83 1529.62 -2241.83 1528.62 -2356.1 1555.62 -2465.83 1612.12 -2580.83 1621.12 -2692.83 1587.12 -2802.83 1567.62 -2914.83 1576.62 -3026.83 1571.12 -3142.83 1584.62 -3256.1 1558.62 -3366.83 1545.62 -3479.1 1557.62 -3591.1 1599.62 -3700.83 1625.12 -3816.1 1613.62 -3928.1 1610.76 -4038.1" fill="none" stroke="#3b4351" stroke-miterlimit="10"/><polygon id="Teutons_-_Franks" data-name="Teutons - Franks" points="600.62 0 277.29 0 235.95 -112 189.95 -223 180.62 -337 142.62 -450 139.95 -559.83 120.62 -672.83 99.95 -784.83 73.12 -899.83 73.12 -1342.83 101.12 -1230.83 138.62 -1118.41 168.12 -1007.83 189.69 -899.83 192.12 -784.83 257.62 -672.83 298.12 -559.83 333.12 -450 392.87 -337 712.62 -223 676.62 -112 600.62 0" fill="none" stroke="#3b4351" stroke-miterlimit="10"/><polygon id="Denmark" points="916.62 2591.83 927.62 2591.83 926.37 2478 701.12 2367 690.87 2255 683.87 2142 637.87 2030 522.37 1918 457.37 1803 426.62 1690 299.62 1578 273.62 1464 281.62 1351 289.12 1242 302.12 1128 296.87 1013 275.62 902 253.62 790 226.62 676 210.62 565 199.62 340 199.37 229 291.37 114 277.29 0 235.95 -112 188.87 -223 180.62 -337 142.62 -450 139.95 -559.83 120.62 -672.83 99.95 -784.83 73.12 -899.83 90.34 -784.83 107.12 -672.83 118.37 -559.83 120.37 -450 122.62 -337 125.87 -223 158.37 -112 185.87 0 183.62 114 127.62 229 119.62 340 119.12 448 156.87 565 188.62 676 212.62 790 252.37 902 277.87 1013 283.37 1128 267.12 1242 248.87 1351 213.87 1464 234.37 1578 312.12 1690 398.12 1803 458.87 1918 593.37 2030 637.87 2142 674.12 2255 691.37 2367 915.37 2478 916.62 2591.83" fill="none" stroke="#3b4351" stroke-miterlimit="10"/><polygon id="Norway" points="213.87 1464 222.62 1351 243.95 1242 258.95 1128 252.95 1013 220.95 902 186.86 790 160.95 676 133.28 565 96.28 448 84.28 340 89.28 229 120.28 114 98.62 0 94.28 -112 91.95 -223 95.28 -337 99.62 -450 96.58 -559.83 93.44 -672.83 90.34 -784.83 107.12 -672.83 118.37 -559.83 120.37 -450 122.62 -337 125.87 -223 158.37 -112 185.87 0 183.62 114 127.62 229 119.62 340 119.12 448 156.87 565 188.62 676 212.62 790 252.37 902 277.87 1013 283.37 1128 267.12 1242 248.87 1351 213.87 1464" fill="none" stroke="#3b4351" stroke-miterlimit="10"/><polygon id="England" points="874.62 2591.83 688.95 2591.83 687.95 2478 439.12 2367 252.12 2255 159.62 2142 111.62 2030 93.62 1918 86.12 1803 84.62 1690 86.95 1578 98.28 1464 116.95 1351 114.62 1242 122.62 1128 120.62 1013 108.28 902 100.16 790 107.95 676 107.95 565 77.28 448 73.12 -899.83 90.34 -784.83 93.44 -672.83 96.58 -559.83 99.62 -450 91.95 -223 94.28 -112 98.62 0 120.28 114 89.28 229 84.28 340 96.28 448 133.28 565 160.95 676 172.95 790 208.95 902 223.62 1013 228.28 1128 211.62 1242 201.62 1351 189.95 1464 193.28 1578 235.28 1690 248.62 1803 348.62 1918 562.62 2030 622.12 2142 602.12 2255 652.12 2367 872.95 2478 874.62 2591.83" fill="none" stroke="#3b4351" stroke-miterlimit="10"/><polygon id="Franks_to_France" data-name="Franks to France" points="409.62 114 291.37 114 277.29 0 409.62 0 409.62 114" fill="none" stroke="#3b4351" stroke-miterlimit="10"/><polygon id="France" points="674.34 1690 785.95 1802.67 815.95 1918 963.28 2030 1049.29 2142 932.62 2255 899.28 2367 1099.75 2479 1102.12 2591.83 946.74 2591.83 946.24 2478 748.62 2367 745.95 2255 741.28 2142 711.95 2030 643.28 1918 613.28 1803 535.95 1690 385.29 1578 317.95 1464 311.95 1351 310.62 1242 321.29 1128 314.62 1013 275.62 902 253.62 790 258.62 678.67 325.29 565 314.62 448 286.62 340 249.62 229 291.37 114 409.62 114 362.62 229 373.95 340 423.58 448 444.62 565 381.95 678.67 347.12 790 361.29 902 384.62 1013 391.95 1128 365.95 1242 379.95 1351 391.29 1464 491.95 1578 674.34 1690" fill="none" stroke="#3b4351" stroke-miterlimit="10"/><polygon id="Franks_to_Holy_Roman_Empire" data-name="Franks to Holy Roman Empire" points="594.62 790 505.62 902 482.62 1013 599.12 1128 617.12 1242 639.62 1351 772.62 1464 953.62 1578 1131.62 1690 1201.62 1803 1109.12 1918 1144.62 2030 1249.12 2142 1301.62 2255 1217.12 2367 1288.12 2478 1290.62 2591.83 1234.62 2591.83 1232.12 2478 1140.12 2366.91 1137.62 2255 1115.62 2142 1053.62 2030 973.12 1918 1064.12 1803 953.62 1690 741.12 1578 577.12 1464 525.62 1351 418.62 1242 417.62 1128 407.62 1013 385.62 902 406.62 790 421.62 679.67 466.62 565 441.95 448 373.95 340 371.78 318.69 362.62 229 409.62 114 559.62 114 626.73 229 742.62 340 897.74 448 874.62 565 818.62 676.6 594.62 790" fill="none" stroke="#3b4351" stroke-miterlimit="10"/><polygon points="703.28 229 815.28 340 966.12 448 987.12 565 1028.12 676 932.12 790 729.62 902 630.12 1013 721.12 1128 711.95 1242 829.93 1351 854.62 1464 1030.37 1578 1169.87 1690 1257.37 1803 1158.4 1918 1196.12 2030 1147.62 1918 1238.87 1803 1162.87 1690 1022.62 1578 841.12 1464 809.62 1351 692.62 1242 689.38 1128 586.62 1013 584.12 902 663.53 790 851.12 676 874.62 565 897.74 448 742.62 340 626.73 229 559.62 114 644.62 114 703.28 229" fill="none" stroke="#3b4351" stroke-miterlimit="10"/><polygon id="Franks_to_Papacy" data-name="Franks to Papacy" points="644.62 114 559.62 114 535.62 0 600.62 0 644.62 114" fill="none" stroke="#3b4351" stroke-miterlimit="10"/><polygon points="687.28 114 737.95 0 780.62 -112 712.62 -223 676.62 -112 600.62 0 644.62 114 703.28 229 687.28 114" fill="none" stroke="#3b4351" stroke-miterlimit="10"/><polygon id="Normandy" points="325.29 565 258.62 678.67 253.62 790 226.62 676 210.62 565 199.47 448 199.62 340 199.37 229 291.37 114 249.62 229 286.62 340 314.62 448 325.29 565" fill="none" stroke="#3b4351" stroke-miterlimit="10"/><polygon points="559.62 114 409.62 114 409.62 0 535.62 0 559.62 114" fill="none" stroke="#3b4351" stroke-miterlimit="10"/><polygon id="Moslem_Arabs_and_Persians" data-name="Moslem Arabs and Persians" points="1404.62 -223 1418.62 -112 1411.62 0 1453.62 114 1382.62 229 1328.62 340 1225.12 448 1161.29 565 1169.95 448 1202.62 340 1213.95 229 1253.95 114 1125.95 0 1037.95 -112 885.95 -223 810.62 -337 997.62 -450 1106.62 -559.2 1418.62 -560.1 1397.62 -450 1367.62 -337 1404.62 -223" fill="none" stroke="#3b4351" stroke-miterlimit="10"/><polygon points="1523.12 2142.84 1446.62 2030 1405.12 1918.56 1442.62 1803 1396.62 1690 1391.62 1578 1351.62 1464 1183.62 1351 1092.62 1242 1124.29 1128 970.62 1013 1005.12 902 1166.62 790 1313.55 678.95 1315.29 679 1317.44 676 1317.44 676 1317.44 676 1397.29 565 1463.95 448 1481.95 340 1488.62 229 1453.62 114 1382.62 229 1328.62 340 1225.12 448 1161.29 565 1218.62 676 1218.62 676 1218.62 676 1131.95 790 936.62 902 798.62 1013 819.28 1128 759.95 1242 849.28 1351 947.12 1464 1111.12 1578 1208.62 1690 1293.62 1803 1244.12 1918.56 1280.62 2030 1381.12 2142 1410.62 2255 1358.62 2367 1436.62 2478 1436.62 2591.83 1467.62 2591.83 1467.62 2478 1423.62 2367 1492.62 2255 1523.12 2142.84" fill="none" stroke="#3b4351" stroke-miterlimit="10"/><polygon id="Russia" points="1573.62 565 1500.47 675.9 1323.62 790 1084.2 902.51 1257.37 790 1428.62 676 1495.12 563.33 1508.12 448 1519.62 340 1488.62 229 1453.62 114 1411.62 0 1418.62 -112 1447.62 -0.1 1514.62 114 1569.62 229 1604.62 340 1600.62 448 1573.62 565" fill="none" stroke="#3b4351" stroke-miterlimit="10"/></g><g id="Text"><g id="Romans-2" data-name="Romans"><path d="M893,60.1h5.66c2.62,0,4.7,1.18,4.7,4.24,0,2.11-.85,3.44-2.57,4v0c1.91.35,3.14,1.5,3.14,4.46s-2.11,4.78-5.39,4.78H893Zm5,7.38a2.45,2.45,0,0,0,2.57-2.77c0-2.08-1.25-2.5-2.82-2.5h-2v5.27Zm.56,8c1.67,0,2.57-1,2.57-3.08a2.65,2.65,0,0,0-2.74-3h-2.6v6Z" fill="#3b4351"/><path d="M907.76,64.42l2.28,9.9h0l2.11-9.9H915l-3.63,13.67c-1.05,3.6-1.86,4.09-4.6,4a4.76,4.76,0,0,1-1.06-.1v-2.1a3.65,3.65,0,0,0,.86.09c.91,0,1.5-.17,1.79-1l.34-1.07-3.75-13.48Z" fill="#3b4351"/><path d="M915.77,75.54l5.76-8.89h-5.42V64.42h8.41V66.6L919,75.37h5.54V77.6h-8.75Z" fill="#3b4351"/><path d="M935.05,74.86c0,.49.3.93.69.93a1,1,0,0,0,.44-.08v1.72a2.86,2.86,0,0,1-1.3.32c-1.18,0-2.16-.47-2.23-1.74h0a3.39,3.39,0,0,1-3.28,1.93c-2.14,0-3.43-1.15-3.43-3.7,0-2.94,1.29-3.55,3.06-4.14l2.06-.56c1-.27,1.54-.54,1.54-1.69s-.41-2-1.81-2c-1.77,0-2,1.25-2,2.52h-2.5c0-2.82,1.15-4.34,4.63-4.34,2.33,0,4.19.91,4.19,3.24Zm-2.5-4.22a21.19,21.19,0,0,1-2.94,1.23A2.16,2.16,0,0,0,928.53,74c0,1.1.54,2,1.64,2,1.6,0,2.38-1.17,2.38-3.13Z" fill="#3b4351"/><path d="M937.74,64.42h2.5V66h.08a3.79,3.79,0,0,1,3.38-1.89c2,0,3.28.91,3.28,3.58V77.6h-2.64v-9c0-1.77-.47-2.38-1.84-2.38-1.08,0-2.11.81-2.11,2.57V77.6h-2.65Z" fill="#3b4351"/><path d="M948.35,64.42h1.82V60.67h2.64v3.75H955v2h-2.16v7.86c0,1.06.3,1.4,1.2,1.4a5.1,5.1,0,0,0,1-.07v2a9.05,9.05,0,0,1-2.13.22c-1.77,0-2.67-.52-2.67-3.19V66.38h-1.82Z" fill="#3b4351"/><path d="M956.46,59.91h2.65v2.64h-2.65Zm0,4.51h2.65V77.6h-2.65Z" fill="#3b4351"/><path d="M961.78,64.42h2.5V66h.07a3.79,3.79,0,0,1,3.38-1.89c2,0,3.29.91,3.29,3.58V77.6h-2.65v-9c0-1.77-.47-2.38-1.84-2.38-1.08,0-2.11.81-2.11,2.57V77.6h-2.64Z" fill="#3b4351"/><path d="M975.84,71.35v.76c0,1.77.22,4,2.21,4s2.1-2.13,2.1-2.94h2.5c0,3-1.76,4.75-4.63,4.75-2.15,0-4.83-.63-4.83-6.73,0-3.46.76-7.14,4.88-7.14,3.68,0,4.66,2.23,4.66,5.89v1.39Zm4.24-1.81v-.71c0-1.67-.54-2.94-2-2.94-1.67,0-2.21,1.66-2.21,3.38v.27Z" fill="#3b4351"/><path d="M991,60.1h9.46v2.36h-6.67v4.85H1000v2.35h-6.27v5.59h6.86V77.6H991Z" fill="#3b4351"/><path d="M1002.69,64.42h2.5V66h.07a3.73,3.73,0,0,1,3.17-1.89,2.86,2.86,0,0,1,3.06,2,3.61,3.61,0,0,1,3.33-2c1.86,0,3.21,1,3.21,3.51v10h-2.64v-9c0-1.74-.52-2.38-1.6-2.38s-2.11.84-2.11,2.57V77.6H1009v-9c0-1.74-.52-2.38-1.62-2.38s-2.08.86-2.08,2.57V77.6h-2.65Z" fill="#3b4351"/><path d="M1026.38,77.94a3,3,0,0,1-3-1.88h0v5.85h-2.65V64.42h2.5V66h0a3.11,3.11,0,0,1,3-2c3,0,4.24,2.58,4.24,7.11C1030.45,76.72,1028.22,77.94,1026.38,77.94Zm-1-11.76c-1.82,0-2.23,1.84-2.23,4.68,0,3.16.39,5,2.25,5,1.5,0,2.21-1.13,2.21-4.78C1027.66,68.07,1027.29,66.18,1025.43,66.18Z" fill="#3b4351"/><path d="M1032.61,59.91h2.64v2.64h-2.64Zm0,4.51h2.64V77.6h-2.64Z" fill="#3b4351"/><path d="M1037.92,64.42h2.65v2.06h0a3.26,3.26,0,0,1,3.06-2.41,1.59,1.59,0,0,1,.64.1v2.7a3.54,3.54,0,0,0-1.11-.15c-1.2,0-2.64.54-2.64,3V77.6h-2.65Z" fill="#3b4351"/><path d="M1047.77,71.35v.76c0,1.77.22,4,2.21,4s2.1-2.13,2.1-2.94h2.5c0,3-1.76,4.75-4.63,4.75-2.15,0-4.83-.63-4.83-6.73,0-3.46.76-7.14,4.88-7.14,3.68,0,4.66,2.23,4.66,5.89v1.39Zm4.24-1.81v-.71c0-1.67-.54-2.94-2-2.94-1.67,0-2.21,1.66-2.21,3.38v.27Z" fill="#3b4351"/></g></g></svg>