<svg xmlns="http://www.w3.org/2000/svg" viewBox="0 0 1847.91 115"><title>ce0950text</title><g id="Text"><g id="Chinese"><path d="M1633.25,100.31v.44c0,2.13,1,3.21,2.86,3.21a2.51,2.51,0,0,0,2.65-2.55c0-1.84-.93-2.65-2.5-3.11l-1.91-.67c-2.55-1-3.65-2.3-3.65-4.8,0-3.18,2.18-5,5.44-5,4.48,0,4.95,2.8,4.95,4.61v.39h-2.79v-.37c0-1.59-.69-2.52-2.45-2.52a2.23,2.23,0,0,0-2.36,2.52c0,1.5.76,2.26,2.62,3l1.89.68c2.48.89,3.56,2.21,3.56,4.64,0,3.72-2.26,5.26-5.79,5.26-4.34,0-5.32-2.89-5.32-5.34v-.41Z"/><path d="M1650.37,104.18h-.07a3.78,3.78,0,0,1-3.38,1.88c-2,0-3.28-.9-3.28-4.31V92.54h2.64V102c0,1.47.64,2,1.79,2a2.06,2.06,0,0,0,2.16-2.21V92.54h2.64v13.18h-2.5Z"/><path d="M1655.42,92.54h2.5v1.54h.07a3.78,3.78,0,0,1,3.38-1.88c2,0,3.29.9,3.29,3.57v10H1662v-9c0-1.77-.46-2.38-1.84-2.38-1.07,0-2.1.81-2.1,2.57v8.85h-2.65Z"/><path d="M1669.85,106.85a1.73,1.73,0,0,0,1.91,1.57,2.19,2.19,0,0,0,2.23-2.48v-2.13h0a3.18,3.18,0,0,1-3,1.81c-3.06,0-3.94-3-3.94-6.64,0-2.89.44-6.78,4.19-6.78a2.91,2.91,0,0,1,2.89,2h.05V92.54h2.5v12.54c0,3.21-1.37,5.15-4.93,5.15-3.92,0-4.36-2.3-4.36-3.38Zm1.86-3.33c2.06,0,2.28-2.6,2.28-4.68s-.27-4.54-2.11-4.54-2.23,2-2.23,4.41C1669.65,101,1669.75,103.52,1671.71,103.52Z"/><path d="M1685,88.22h5c5.49,0,6.18,3.58,6.18,8.75s-.69,8.75-6.18,8.75h-5Zm2.79,15.39h2.31c2.3,0,3.25-1.51,3.25-6.64,0-4.92-.83-6.64-3.25-6.64h-2.31Z"/><path d="M1700.25,92.54l2.28,9.9h0l2.11-9.9h2.77l-3.63,13.67c-1,3.6-1.86,4.09-4.61,4a4.73,4.73,0,0,1-1-.1V108a3.59,3.59,0,0,0,.86.09c.9,0,1.49-.17,1.79-1l.34-1.07-3.75-13.48Z"/><path d="M1708.93,92.54h2.5v1.54h.07a3.78,3.78,0,0,1,3.38-1.88c2,0,3.28.9,3.28,3.57v10h-2.64v-9c0-1.77-.47-2.38-1.84-2.38-1.08,0-2.11.81-2.11,2.57v8.85h-2.64Z"/><path d="M1729.36,103c0,.49.29.93.69.93a1,1,0,0,0,.44-.08v1.72a2.86,2.86,0,0,1-1.3.32c-1.18,0-2.16-.47-2.23-1.74h0a3.4,3.4,0,0,1-3.28,1.93c-2.14,0-3.43-1.15-3.43-3.69,0-3,1.29-3.56,3.06-4.15l2.06-.56c1-.27,1.54-.54,1.54-1.69s-.42-2-1.81-2c-1.77,0-2,1.25-2,2.52h-2.5c0-2.82,1.15-4.33,4.63-4.33,2.33,0,4.19.9,4.19,3.23Zm-2.5-4.22a20,20,0,0,1-2.94,1.23,2.17,2.17,0,0,0-1.08,2.13c0,1.1.54,2,1.64,2,1.6,0,2.38-1.17,2.38-3.13Z"/><path d="M1737.74,96.38V96c0-1.05-.37-2-1.74-2-1,0-1.89.46-1.89,1.71,0,1.06.47,1.45,1.87,1.94l1.69.59c2,.66,2.86,1.71,2.86,3.8,0,2.81-2.08,4-4.73,4-3.33,0-4.33-1.54-4.33-4.09v-.49h2.35v.42c0,1.54.51,2.35,2.06,2.35s2.15-.73,2.15-1.93a1.91,1.91,0,0,0-1.44-1.94l-2.16-.76c-2-.66-2.82-1.69-2.82-3.8,0-2.47,1.77-3.62,4.51-3.62,3.36,0,4.12,2,4.12,3.6v.58Z"/><path d="M1741.31,92.54h1.82V88.79h2.64v3.75h2.16v2h-2.16v7.87c0,1,.3,1.39,1.21,1.39a4.91,4.91,0,0,0,1-.07v2a8.93,8.93,0,0,1-2.13.22c-1.77,0-2.67-.52-2.67-3.19V94.5h-1.82Z"/><path d="M1751.07,92.54l2.28,9.9h0l2.11-9.9h2.77l-3.63,13.67c-1.05,3.6-1.86,4.09-4.6,4a4.76,4.76,0,0,1-1.06-.1V108a3.65,3.65,0,0,0,.86.09c.91,0,1.5-.17,1.79-1L1752,106l-3.75-13.48Z"/></g></g><g id="YEARS"><g id="Right"><path d="M1793.84,104.35c0,1.07.52,2.39,2,2.39,2.78,0,2.93-3.64,2.93-6.34l-.07-.05a3.79,3.79,0,0,1-3.59,2c-2.52,0-4.55-1.82-4.55-5.49,0-4.24,1.71-6.76,5.64-6.76,4.65,0,5.54,3.54,5.54,8.82,0,5.51-1,9.95-5.88,9.95-3.25,0-5-1.43-5-4.47ZM1796,92.13c-1.8,0-2.45,1.79-2.45,4,0,2.58.76,4,2.45,4,2.18,0,2.54-1.9,2.54-4.11S1797.69,92.13,1796,92.13Z"/><path d="M1803.2,103.49H1806v.5a2.35,2.35,0,0,0,2.42,2.6c2.08,0,2.62-2,2.62-4.19s-.57-3.93-2.47-3.93a2.36,2.36,0,0,0-2.42,1.69l-2.62-.1.91-9.65h8.86v2.37h-6.65l-.6,4.84,0,0a4.06,4.06,0,0,1,3.1-1.43c3.84,0,4.81,3.25,4.81,6.08,0,3.69-1.69,6.5-5.67,6.5-3.3,0-5.15-1.69-5.15-4.94Z"/><path d="M1821.09,90.05c3.53,0,5.51,2.21,5.51,9.39s-2,9.38-5.51,9.38-5.51-2.21-5.51-9.38S1817.55,90.05,1821.09,90.05Zm0,16.69c2,0,2.55-2,2.55-7.3s-.55-7.31-2.55-7.31-2.55,2-2.55,7.31S1819.09,106.74,1821.09,106.74Z"/></g><g id="Layer_34" data-name="Layer 34"><path d="M34.09,108c0,1.06.52,2.39,2,2.39,2.78,0,2.93-3.64,2.93-6.34l-.07-.06a3.77,3.77,0,0,1-3.59,2c-2.52,0-4.55-1.82-4.55-5.48,0-4.24,1.71-6.76,5.64-6.76,4.65,0,5.54,3.53,5.54,8.81,0,5.51-1,10-5.88,10-3.25,0-5-1.43-5-4.47ZM36.2,95.73c-1.8,0-2.45,1.79-2.45,4,0,2.57.76,4,2.45,4,2.18,0,2.55-1.9,2.55-4.11S37.94,95.73,36.2,95.73Z"/><path d="M43.45,107.09h2.81v.49a2.35,2.35,0,0,0,2.42,2.6c2.08,0,2.62-2,2.62-4.18s-.57-3.93-2.47-3.93a2.36,2.36,0,0,0-2.42,1.69l-2.62-.1L44.7,94h8.86v2.37H46.91l-.6,4.83,0,.06a4.06,4.06,0,0,1,3.1-1.43c3.84,0,4.81,3.25,4.81,6.08,0,3.69-1.69,6.5-5.67,6.5-3.3,0-5.15-1.69-5.15-4.94Z"/><path d="M61.34,93.65c3.53,0,5.51,2.21,5.51,9.38s-2,9.39-5.51,9.39-5.51-2.21-5.51-9.39S57.8,93.65,61.34,93.65Zm0,16.69c2,0,2.55-2,2.55-7.31s-.55-7.3-2.55-7.3-2.55,2-2.55,7.3S59.34,110.34,61.34,110.34Z"/></g></g></svg>