<svg xmlns="http://www.w3.org/2000/svg" viewBox="0 0 1847.91 115"><title>ce0950text</title><g id="YEARS"><g id="Right"><path d="M1797.31,105c0,1.07.52,2.4,2,2.4,2.78,0,2.93-3.64,2.93-6.35l-.08,0a3.75,3.75,0,0,1-3.58,2c-2.53,0-4.55-1.82-4.55-5.49,0-4.23,1.71-6.76,5.64-6.76,4.65,0,5.54,3.54,5.54,8.82,0,5.51-1,10-5.88,10-3.25,0-5-1.43-5-4.48Zm2.11-12.22c-1.8,0-2.45,1.8-2.45,4,0,2.57.76,4,2.45,4,2.18,0,2.54-1.89,2.54-4.1S1801.16,92.78,1799.42,92.78Z" fill="#3b4351"/><path d="M1806.67,104.15h2.81v.49a2.35,2.35,0,0,0,2.41,2.6c2.09,0,2.63-2,2.63-4.19s-.57-3.92-2.47-3.92a2.35,2.35,0,0,0-2.42,1.69l-2.62-.11.91-9.64h8.86v2.36h-6.65l-.6,4.84,0,0a4.06,4.06,0,0,1,3.09-1.43c3.85,0,4.81,3.25,4.81,6.09,0,3.69-1.69,6.5-5.66,6.5-3.31,0-5.15-1.69-5.15-4.94Z" fill="#3b4351"/><path d="M1824.56,90.7c3.53,0,5.51,2.21,5.51,9.39s-2,9.39-5.51,9.39-5.52-2.21-5.52-9.39S1821,90.7,1824.56,90.7Zm0,16.7c2,0,2.54-2,2.54-7.31s-.54-7.31-2.54-7.31-2.55,2-2.55,7.31S1822.55,107.4,1824.56,107.4Z" fill="#3b4351"/></g><g id="left"><path d="M22.27,106.91c0,1.07.52,2.39,2,2.39,2.78,0,2.94-3.64,2.94-6.34l-.08,0a3.79,3.79,0,0,1-3.59,2C21,104.86,19,103,19,99.37c0-4.24,1.72-6.76,5.64-6.76,4.66,0,5.54,3.54,5.54,8.81,0,5.52-1,10-5.87,10-3.25,0-5-1.43-5-4.47Zm2.11-12.22c-1.79,0-2.44,1.79-2.44,4,0,2.58.75,4,2.44,4,2.18,0,2.55-1.9,2.55-4.11S26.12,94.69,24.38,94.69Z" fill="#3b4351"/><path d="M31.63,106.05h2.81v.5a2.36,2.36,0,0,0,2.42,2.6c2.08,0,2.63-2,2.63-4.19S38.91,101,37,101a2.35,2.35,0,0,0-2.42,1.68l-2.63-.1L32.88,93h8.87v2.37H35.09l-.6,4.84.06,0a4,4,0,0,1,3.09-1.43c3.85,0,4.81,3.25,4.81,6.08,0,3.69-1.69,6.5-5.67,6.5-3.3,0-5.15-1.69-5.15-4.94Z" fill="#3b4351"/><path d="M49.52,92.61c3.54,0,5.51,2.21,5.51,9.39s-2,9.38-5.51,9.38S44,109.17,44,102,46,92.61,49.52,92.61Zm0,16.69c2,0,2.55-2,2.55-7.3s-.55-7.31-2.55-7.31S47,96.67,47,102,47.52,109.3,49.52,109.3Z" fill="#3b4351"/></g></g><g id="Nation_OUtlines" data-name="Nation OUtlines"><polygon id="Romans" points="854.62 1350 829.93 1237 711.95 1128 764.62 1014 729.95 899 845.28 788 1002.62 676 1065.29 562 1021.28 451 995.34 334 815.28 226 703.28 115 687.28 0 737.95 -114 780.62 -226 712.62 -337 645.95 -451 550.62 -564 491.95 -673.83 453.95 -786.83 455.29 -898.83 435.95 -1013.83 470.62 -1121.83 322.62 -1121.83 416.12 -1234.83 480.12 -1344.83 410.62 -1456.83 316.95 -1570.83 248.28 -1685.83 210.28 -1796.83 175.95 -1907.83 159.62 -2023.83 91.28 -2136.83 83.12 -2241.83 117.62 -2355.83 151.37 -2469.83 129.62 -2579.83 109.62 -2694.83 99.62 -2806.83 73.12 -2916.83 75.42 -3814.83 85.95 -3704.83 95.28 -3592.83 111.95 -3480.83 116.62 -3369.83 137.95 -3256.83 149.95 -3140.83 169.95 -3028.83 205.28 -2916.83 231.95 -2806.83 287.74 -2694.83 467.73 -2579.83 683.72 -2469.83 998.71 -2355.83 1118.7 -2241.83 1131.14 -2136.83 1195.2 -2023.83 1182.62 -1907.83 1245.62 -1796.83 1220.62 -1685.83 1122.62 -1570.83 981.62 -1456.83 880.12 -1344.83 717.95 -1234.83 593.62 -1121.83 616.62 -1013.83 717.28 -898.83 839.28 -783.99 863.28 -673.83 915.28 -564 810.62 -451 885.95 -337 1037.95 -226 1125.95 -114 1253.95 0 1213.95 115 1202.62 226 1169.95 334 1161.29 451 1218.62 562 1131.95 676 936.62 788 798.62 899 819.28 1014 759.95 1128 849.28 1237 854.62 1350" fill="none" stroke="#3b4351" stroke-miterlimit="10"/><polygon id="Indians" points="1372.19 -4150.66 1294.19 -4264.83 1285.19 -4377.83 1313.69 -4488.83 1348.19 -4601.83 1310.69 -4715.83 1298.69 -4825.83 1313.69 -4937.83 1345.19 -5049.83 1325.69 -5163.83 1343.69 -5277.83 1417.19 -5388.83 1400.69 -5501.91 1429.19 -5614.83 1419.27 -5730.1 1387.19 -5841.83 1387.19 -5953.83 1438.19 -6064.33 1462.18 -6176.33 1480.18 -6289.37 1445.82 -6399.66 1411.11 -6511.66 1545.86 -6511.66 1580.1 -6399.66 1593.12 -6289.43 1552.12 -6176.33 1514.62 -6064.33 1514.12 -5954.16 1553.12 -5842.1 1548.12 -5729.83 1519.62 -5614.83 1534.12 -5501.16 1575.12 -5388.83 1559.62 -5277.83 1564.12 -5164.1 1534.62 -5049.83 1486.12 -4937.83 1465.12 -4825.83 1471.12 -4716.66 1502.12 -4602.66 1508.12 -4488.83 1534.62 -4377.83 1542.77 -4298.97 1555.62 -4150.66 1554.62 -4041.83 1567.12 -3929.83 1542.12 -3815.1 1498.12 -3704.83 1490.62 -3592.83 1513.12 -3480.83 1568.62 -3369.83 1544.12 -3256.83 1530.62 -3141.1 1523.62 -3029.1 1532.62 -2916.83 1565.12 -2806.83 1543.62 -2694.83 1514.12 -2579.83 1490.12 -2470.1 1495.62 -2355.83 1517.12 -2242.16 1528.12 -2136.83 1580.62 -2024.16 1578.12 -1908.16 1578.12 -1797.66 1560.12 -1686.1 1526.62 -1570.83 1467.62 -1456.83 1381.62 -1345.1 1270.62 -1234.83 1090.12 -1122.1 860.62 -1013.83 1302.12 -898.83 1377.03 -786.83 1550.62 -673.83 1519.62 -564 1476.12 -451 1516.13 -337 1534.62 -224.66 1552.65 -114 1585.62 -0.1 1620.12 115 1650.12 226 1630.62 333.9 1622.45 450.9 1565.62 562 1402.62 675.34 1173.62 788 1148.62 899 1334.62 1014 1283.62 1128 1344.62 1237 1544.62 1350 1602.62 1464.34 1627.62 1576 1674.62 1688.9 1627.62 1804 1634.62 1916 1686.62 2028 1701.62 2141 1620.12 2253 1606.12 2364 1606.12 2477.83 1552.62 2477.83 1549.52 2364 1569.62 2253 1683.62 2141 1667.62 2028 1607.62 1916 1596.62 1803.34 1617.62 1689 1584.62 1576 1562.62 1464 1507.62 1350 1304.62 1236.9 1225.62 1127.9 1236.97 1090.95 1264.87 1014 1082.62 899 1084.2 788.51 1323.62 676 1500.47 561.9 1573.62 451 1600.62 334 1604.62 226 1569.62 115 1514.62 0 1447.62 -114.1 1418.62 -226 1404.62 -337 1367.62 -451 1397.62 -564 1418.62 -674.1 1339.62 -787.1 1246.62 -898.83 748.62 -1013.83 753.62 -1121.83 910.76 -1234.83 1053.62 -1344.83 1195.2 -1456.83 1311.62 -1571.66 1353.62 -1685.83 1348.62 -1796.83 1364.62 -1908.66 1406.62 -2023.83 1401.62 -2136.83 1429.62 -2241.83 1394.62 -2356.1 1393.2 -2469.83 1391.82 -2580.1 1437.52 -2694.83 1513.62 -2807.1 1505.64 -2916.83 1472.62 -3028.66 1447.62 -3140.83 1440.63 -3256.83 1462.62 -3369.83 1391.1 -3480.83 1348.62 -3592.83 1332.62 -3704.83 1376.98 -3814.83 1375.34 -3930.1 1373.74 -4042.1 1372.19 -4150.66" fill="none" stroke="#3b4351" stroke-miterlimit="10"/><polygon id="Chinese" points="1610.76 -4152.1 1609.69 -4265.1 1608.62 -4378.16 1585.12 -4488.83 1551.62 -4601.83 1509.12 -4715.83 1538.12 -4826.1 1586.62 -4938.1 1616.12 -5049.83 1645.62 -5164.1 1697.12 -5278.1 1714.62 -5389.16 1689.12 -5500.83 1700.12 -5614.83 1676.62 -5729.83 1650.62 -5842.16 1630.62 -5953.83 1620.62 -6064.33 1646.62 -6176.33 1667.62 -6288.99 1651.62 -6399.66 1633.99 -6511.66 1768.79 -6511.66 1768.79 1689 1768.79 1803.9 1766.12 1916 1757.62 2028 1736.12 2140.9 1676.12 2252.9 1661.12 2364 1663.62 2477.83 1606.12 2477.83 1606.12 2363.9 1620.12 2253 1701.62 2141 1696.12 2027.84 1654.12 1916 1681.62 1804 1739.62 1688.9 1748.62 1575.84 1744.12 1463.84 1685.62 1350 1615.12 1239.34 1636.12 1128 1738.62 1014 1761.12 899 1758.62 788 1732.12 676 1695.62 562 1667.62 451 1651.12 334 1650.12 226 1620.12 115 1585.62 -0.1 1552.62 -114.1 1535.12 -226 1516.12 -337.1 1476.12 -451 1542.12 -564 1625.62 -674.16 1668.12 -787.16 1666.12 -898.83 1673.62 -1013.83 1653.62 -1121.83 1602.12 -1235.1 1534.12 -1345.1 1564.12 -1456.83 1598.12 -1571.1 1612.12 -1685.83 1611.01 -1797.1 1592.62 -1908.1 1609.25 -2023.83 1616.07 -2136.83 1553.62 -2241.83 1529.62 -2355.83 1528.62 -2470.1 1555.62 -2579.83 1612.12 -2694.83 1621.12 -2806.83 1587.12 -2916.83 1567.62 -3028.83 1576.62 -3140.83 1571.12 -3256.83 1584.62 -3370.1 1558.62 -3480.83 1545.62 -3593.1 1557.62 -3705.1 1599.62 -3814.83 1625.12 -3930.1 1613.62 -4042.1 1610.76 -4152.1" fill="none" stroke="#3b4351" stroke-miterlimit="10"/><polygon id="Denmark" points="916.62 2477.83 927.62 2477.83 926.37 2364 701.12 2253 690.87 2141 683.87 2028 637.87 1916 522.37 1804 457.37 1689 426.62 1576 299.62 1464 273.62 1350 281.62 1237 289.12 1128 302.12 1014 296.87 899 275.62 788 253.62 676 226.62 562 210.62 451 199.62 226 199.37 115 291.37 0 277.29 -114 235.95 -226 188.87 -337 180.62 -451 142.62 -564 139.95 -673.83 120.62 -786.83 99.95 -898.83 73.12 -1013.83 90.34 -898.83 107.12 -786.83 118.37 -673.83 120.37 -564 122.62 -451 125.87 -337 158.37 -226 185.87 -114 183.62 0 127.62 115 119.62 226 119.12 334 156.87 451 188.62 562 212.62 676 252.37 788 277.87 899 283.37 1014 267.12 1128 248.87 1237 213.87 1350 234.37 1464 312.12 1576 398.12 1689 458.87 1804 593.37 1916 637.87 2028 674.12 2141 691.37 2253 915.37 2364 916.62 2477.83" fill="none" stroke="#3b4351" stroke-miterlimit="10"/><polygon id="Norway" points="213.87 1350 222.62 1237 243.95 1128 258.95 1014 252.95 899 220.95 788 186.86 676 160.95 562 133.28 451 96.28 334 84.28 226 89.28 115 120.28 0 98.62 -114 94.28 -226 91.95 -337 95.28 -451 99.62 -564 96.58 -673.83 93.44 -786.83 90.34 -898.83 107.12 -786.83 118.37 -673.83 120.37 -564 122.62 -451 125.87 -337 158.37 -226 185.87 -114 183.62 0 127.62 115 119.62 226 119.12 334 156.87 451 188.62 562 212.62 676 252.37 788 277.87 899 283.37 1014 267.12 1128 248.87 1237 213.87 1350" fill="none" stroke="#3b4351" stroke-miterlimit="10"/><polygon id="England" points="874.62 2477.83 688.95 2477.83 687.95 2364 439.12 2253 252.12 2141 159.62 2028 111.62 1916 93.62 1804 86.12 1689 84.62 1576 86.95 1464 98.28 1350 116.95 1237 114.62 1128 122.62 1014 120.62 899 108.28 788 100.16 676 107.95 562 107.95 451 77.28 334 73.12 -1013.83 90.34 -898.83 93.44 -786.83 96.58 -673.83 99.62 -564 91.95 -337 94.28 -226 98.62 -114 120.28 0 89.28 115 84.28 226 96.28 334 133.28 451 160.95 562 172.95 676 208.95 788 223.62 899 228.28 1014 211.62 1128 201.62 1237 189.95 1350 193.28 1464 235.28 1576 248.62 1689 348.62 1804 562.62 1916 622.12 2028 602.12 2141 652.12 2253 872.95 2364 874.62 2477.83" fill="none" stroke="#3b4351" stroke-miterlimit="10"/><polygon id="Franks_to_France" data-name="Franks to France" points="409.62 0 291.37 0 277.29 -114 409.62 -114 409.62 0" fill="none" stroke="#3b4351" stroke-miterlimit="10"/><polygon id="France" points="674.34 1576 785.95 1688.67 815.95 1804 963.28 1916 1049.29 2028 932.62 2141 899.28 2253 1099.75 2365 1102.12 2477.83 946.74 2477.83 946.24 2364 748.62 2253 745.95 2141 741.28 2028 711.95 1916 643.28 1804 613.28 1689 535.95 1576 385.29 1464 317.95 1350 311.95 1237 310.62 1128 321.29 1014 314.62 899 275.62 788 253.62 676 258.62 564.67 325.29 451 314.62 334 286.62 226 249.62 115 291.37 0 409.62 0 362.62 115 373.95 226 423.58 334 444.62 451 381.95 564.67 347.12 676 361.29 788 384.62 899 391.95 1014 365.95 1128 379.95 1237 391.29 1350 491.95 1464 674.34 1576" fill="none" stroke="#3b4351" stroke-miterlimit="10"/><polygon id="Franks_to_Holy_Roman_Empire" data-name="Franks to Holy Roman Empire" points="594.62 676 505.62 788 482.62 899 599.12 1014 617.12 1128 639.62 1237 772.62 1350 953.62 1464 1131.62 1576 1201.62 1689 1109.12 1804 1144.62 1916 1249.12 2028 1301.62 2141 1217.12 2253 1288.12 2364 1290.62 2477.83 1234.62 2477.83 1232.12 2364 1140.12 2252.91 1137.62 2141 1115.62 2028 1053.62 1916 973.12 1804 1064.12 1689 953.62 1576 741.12 1464 577.12 1350 525.62 1237 418.62 1128 417.62 1014 407.62 899 385.62 788 406.62 676 421.62 565.67 466.62 451 441.95 334 373.95 226 371.78 204.69 362.62 115 409.62 0 559.62 0 626.73 115 742.62 226 897.74 334 874.62 451 818.62 562.6 594.62 676" fill="none" stroke="#3b4351" stroke-miterlimit="10"/><polygon points="703.28 115 815.28 226 966.12 334 987.12 451 1028.12 562 932.12 676 729.62 788 630.12 899 721.12 1014 711.95 1128 829.93 1237 854.62 1350 1030.37 1464 1169.87 1576 1257.37 1689 1158.4 1804 1196.12 1916 1147.62 1804 1238.87 1689 1162.87 1576 1022.62 1464 841.12 1350 809.62 1237 692.62 1128 689.38 1014 586.62 899 584.12 788 663.53 676 851.12 562 874.62 451 897.74 334 742.62 226 626.73 115 559.62 0 644.62 0 703.28 115" fill="none" stroke="#3b4351" stroke-miterlimit="10"/><polygon id="Franks_to_Papacy" data-name="Franks to Papacy" points="644.62 0 559.62 0 535.62 -114 600.62 -114 644.62 0" fill="none" stroke="#3b4351" stroke-miterlimit="10"/><polygon points="687.28 0 737.95 -114 780.62 -226 712.62 -337 676.62 -226 600.62 -114 644.62 0 703.28 115 687.28 0" fill="none" stroke="#3b4351" stroke-miterlimit="10"/><polygon id="Normandy" points="325.29 451 258.62 564.67 253.62 676 226.62 562 210.62 451 199.47 334 199.62 226 199.37 115 291.37 0 249.62 115 286.62 226 314.62 334 325.29 451" fill="none" stroke="#3b4351" stroke-miterlimit="10"/><polygon points="559.62 0 409.62 0 409.62 -114 535.62 -114 559.62 0" fill="none" stroke="#3b4351" stroke-miterlimit="10"/><polygon id="Moslem_Arabs_and_Persians" data-name="Moslem Arabs and Persians" points="1404.62 -337 1418.62 -226 1411.62 -114 1453.62 0 1382.62 115 1328.62 226 1225.12 334 1161.29 451 1169.95 334 1202.62 226 1213.95 115 1253.95 0 1125.95 -114 1037.95 -226 885.95 -337 810.62 -451 997.62 -564 1106.62 -673.2 1418.62 -674.1 1397.62 -564 1367.62 -451 1404.62 -337" fill="none" stroke="#3b4351" stroke-miterlimit="10"/><polygon points="1523.12 2028.84 1446.62 1916 1405.12 1804.56 1442.62 1689 1396.62 1576 1391.62 1464 1351.62 1350 1183.62 1237 1092.62 1128 1124.29 1014 970.62 899 1005.12 788 1166.62 676 1313.55 564.95 1315.29 565 1317.44 562 1317.44 562 1317.44 562 1397.29 451 1463.95 334 1481.95 226 1488.62 115 1453.62 0 1382.62 115 1328.62 226 1225.12 334 1161.29 451 1218.62 562 1218.62 562 1218.62 562 1131.95 676 936.62 788 798.62 899 819.28 1014 759.95 1128 849.28 1237 947.12 1350 1111.12 1464 1208.62 1576 1293.62 1689 1244.12 1804.56 1280.62 1916 1381.12 2028 1410.62 2141 1358.62 2253 1436.62 2364 1436.62 2477.83 1467.62 2477.83 1467.62 2364 1423.62 2253 1492.62 2141 1523.12 2028.84" fill="none" stroke="#3b4351" stroke-miterlimit="10"/><polygon id="Russia" points="1573.62 451 1500.47 561.9 1323.62 676 1084.2 788.51 1257.37 676 1428.62 562 1495.12 449.33 1508.12 334 1519.62 226 1488.62 115 1453.62 0 1411.62 -114 1418.62 -226 1447.62 -114.1 1514.62 0 1569.62 115 1604.62 226 1600.62 334 1573.62 451" fill="none" stroke="#3b4351" stroke-miterlimit="10"/><polygon id="Ghazivids_2" data-name="Ghazivids 2" points="1495.12 449.33 1428.62 562 1084.2 788.51 1082.62 899 1026.12 788 1384.62 562 1436.12 449.33 1463.95 334 1481.95 226 1488.45 117.77 1519.62 226 1508.12 334 1495.12 449.33" fill="none" stroke="#3b4351" stroke-miterlimit="10"/></g><g id="Text"><g id="Chinese-2" data-name="Chinese"><path d="M1633.25,100.31v.44c0,2.13,1,3.21,2.86,3.21a2.51,2.51,0,0,0,2.65-2.55c0-1.84-.93-2.65-2.5-3.11l-1.91-.67c-2.55-1-3.65-2.3-3.65-4.8,0-3.18,2.18-5,5.44-5,4.48,0,4.95,2.8,4.95,4.61v.39h-2.79v-.37c0-1.59-.69-2.52-2.45-2.52a2.23,2.23,0,0,0-2.36,2.52c0,1.5.76,2.26,2.62,3l1.89.68c2.48.89,3.56,2.21,3.56,4.64,0,3.72-2.26,5.26-5.79,5.26-4.34,0-5.32-2.89-5.32-5.34v-.41Z" fill="#3b4351"/><path d="M1650.37,104.18h-.07a3.78,3.78,0,0,1-3.38,1.88c-2,0-3.28-.9-3.28-4.31V92.54h2.64V102c0,1.47.64,2,1.79,2a2.06,2.06,0,0,0,2.16-2.21V92.54h2.64v13.18h-2.5Z" fill="#3b4351"/><path d="M1655.42,92.54h2.5v1.54h.07a3.78,3.78,0,0,1,3.38-1.88c2,0,3.29.9,3.29,3.57v10H1662v-9c0-1.77-.46-2.38-1.84-2.38-1.07,0-2.1.81-2.1,2.57v8.85h-2.65Z" fill="#3b4351"/><path d="M1669.85,106.85a1.73,1.73,0,0,0,1.91,1.57,2.19,2.19,0,0,0,2.23-2.48v-2.13h0a3.18,3.18,0,0,1-3,1.81c-3.06,0-3.94-3-3.94-6.64,0-2.89.44-6.78,4.19-6.78a2.91,2.91,0,0,1,2.89,2h.05V92.54h2.5v12.54c0,3.21-1.37,5.15-4.93,5.15-3.92,0-4.36-2.3-4.36-3.38Zm1.86-3.33c2.06,0,2.28-2.6,2.28-4.68s-.27-4.54-2.11-4.54-2.23,2-2.23,4.41C1669.65,101,1669.75,103.52,1671.71,103.52Z" fill="#3b4351"/><path d="M1685,88.22h5c5.49,0,6.18,3.58,6.18,8.75s-.69,8.75-6.18,8.75h-5Zm2.79,15.39h2.31c2.3,0,3.25-1.51,3.25-6.64,0-4.92-.83-6.64-3.25-6.64h-2.31Z" fill="#3b4351"/><path d="M1700.25,92.54l2.28,9.9h0l2.11-9.9h2.77l-3.63,13.67c-1,3.6-1.86,4.09-4.61,4a4.73,4.73,0,0,1-1-.1V108a3.59,3.59,0,0,0,.86.09c.9,0,1.49-.17,1.79-1l.34-1.07-3.75-13.48Z" fill="#3b4351"/><path d="M1708.93,92.54h2.5v1.54h.07a3.78,3.78,0,0,1,3.38-1.88c2,0,3.28.9,3.28,3.57v10h-2.64v-9c0-1.77-.47-2.38-1.84-2.38-1.08,0-2.11.81-2.11,2.57v8.85h-2.64Z" fill="#3b4351"/><path d="M1729.36,103c0,.49.29.93.69.93a1,1,0,0,0,.44-.08v1.72a2.86,2.86,0,0,1-1.3.32c-1.18,0-2.16-.47-2.23-1.74h0a3.4,3.4,0,0,1-3.28,1.93c-2.14,0-3.43-1.15-3.43-3.69,0-3,1.29-3.56,3.06-4.15l2.06-.56c1-.27,1.54-.54,1.54-1.69s-.42-2-1.81-2c-1.77,0-2,1.25-2,2.52h-2.5c0-2.82,1.15-4.33,4.63-4.33,2.33,0,4.19.9,4.19,3.23Zm-2.5-4.22a20,20,0,0,1-2.94,1.23,2.17,2.17,0,0,0-1.08,2.13c0,1.1.54,2,1.64,2,1.6,0,2.38-1.17,2.38-3.13Z" fill="#3b4351"/><path d="M1737.74,96.38V96c0-1.05-.37-2-1.74-2-1,0-1.89.46-1.89,1.71,0,1.06.47,1.45,1.87,1.94l1.69.59c2,.66,2.86,1.71,2.86,3.8,0,2.81-2.08,4-4.73,4-3.33,0-4.33-1.54-4.33-4.09v-.49h2.35v.42c0,1.54.51,2.35,2.06,2.35s2.15-.73,2.15-1.93a1.91,1.91,0,0,0-1.44-1.94l-2.16-.76c-2-.66-2.82-1.69-2.82-3.8,0-2.47,1.77-3.62,4.51-3.62,3.36,0,4.12,2,4.12,3.6v.58Z" fill="#3b4351"/><path d="M1741.31,92.54h1.82V88.79h2.64v3.75h2.16v2h-2.16v7.87c0,1,.3,1.39,1.21,1.39a4.91,4.91,0,0,0,1-.07v2a8.93,8.93,0,0,1-2.13.22c-1.77,0-2.67-.52-2.67-3.19V94.5h-1.82Z" fill="#3b4351"/><path d="M1751.07,92.54l2.28,9.9h0l2.11-9.9h2.77l-3.63,13.67c-1.05,3.6-1.86,4.09-4.6,4a4.76,4.76,0,0,1-1.06-.1V108a3.65,3.65,0,0,0,.86.09c.91,0,1.5-.17,1.79-1L1752,106l-3.75-13.48Z" fill="#3b4351"/></g></g></svg>