<svg id="Text" xmlns="http://www.w3.org/2000/svg" viewBox="0 0 1847.91 114"><title>ce0900text</title><g id="Romans"><path d="M893,60.1h5.66c2.62,0,4.7,1.18,4.7,4.24,0,2.11-.85,3.44-2.57,4v0c1.91.35,3.14,1.5,3.14,4.46s-2.11,4.78-5.39,4.78H893Zm5,7.38a2.45,2.45,0,0,0,2.57-2.77c0-2.08-1.25-2.5-2.82-2.5h-2v5.27Zm.56,8c1.67,0,2.57-1,2.57-3.08a2.65,2.65,0,0,0-2.74-3h-2.6v6Z"/><path d="M907.76,64.42l2.28,9.9h0l2.11-9.9H915l-3.63,13.67c-1.05,3.6-1.86,4.09-4.6,4a4.76,4.76,0,0,1-1.06-.1v-2.1a3.65,3.65,0,0,0,.86.09c.91,0,1.5-.17,1.79-1l.34-1.07-3.75-13.48Z"/><path d="M915.77,75.54l5.76-8.89h-5.42V64.42h8.41V66.6L919,75.37h5.54V77.6h-8.75Z"/><path d="M935.05,74.86c0,.49.3.93.69.93a1,1,0,0,0,.44-.08v1.72a2.86,2.86,0,0,1-1.3.32c-1.18,0-2.16-.47-2.23-1.74h0a3.39,3.39,0,0,1-3.28,1.93c-2.14,0-3.43-1.15-3.43-3.7,0-2.94,1.29-3.55,3.06-4.14l2.06-.56c1-.27,1.54-.54,1.54-1.69s-.41-2-1.81-2c-1.77,0-2,1.25-2,2.52h-2.5c0-2.82,1.15-4.34,4.63-4.34,2.33,0,4.19.91,4.19,3.24Zm-2.5-4.22a21.19,21.19,0,0,1-2.94,1.23A2.16,2.16,0,0,0,928.53,74c0,1.1.54,2,1.64,2,1.6,0,2.38-1.17,2.38-3.13Z"/><path d="M937.74,64.42h2.5V66h.08a3.79,3.79,0,0,1,3.38-1.89c2,0,3.28.91,3.28,3.58V77.6h-2.64v-9c0-1.77-.47-2.38-1.84-2.38-1.08,0-2.11.81-2.11,2.57V77.6h-2.65Z"/><path d="M948.35,64.42h1.82V60.67h2.64v3.75H955v2h-2.16v7.86c0,1.06.3,1.4,1.2,1.4a5.1,5.1,0,0,0,1-.07v2a9.05,9.05,0,0,1-2.13.22c-1.77,0-2.67-.52-2.67-3.19V66.38h-1.82Z"/><path d="M956.46,59.91h2.65v2.64h-2.65Zm0,4.51h2.65V77.6h-2.65Z"/><path d="M961.78,64.42h2.5V66h.07a3.79,3.79,0,0,1,3.38-1.89c2,0,3.29.91,3.29,3.58V77.6h-2.65v-9c0-1.77-.47-2.38-1.84-2.38-1.08,0-2.11.81-2.11,2.57V77.6h-2.64Z"/><path d="M975.84,71.35v.76c0,1.77.22,4,2.21,4s2.1-2.13,2.1-2.94h2.5c0,3-1.76,4.75-4.63,4.75-2.15,0-4.83-.63-4.83-6.73,0-3.46.76-7.14,4.88-7.14,3.68,0,4.66,2.23,4.66,5.89v1.39Zm4.24-1.81v-.71c0-1.67-.54-2.94-2-2.94-1.67,0-2.21,1.66-2.21,3.38v.27Z"/><path d="M991,60.1h9.46v2.36h-6.67v4.85H1000v2.35h-6.27v5.59h6.86V77.6H991Z"/><path d="M1002.69,64.42h2.5V66h.07a3.73,3.73,0,0,1,3.17-1.89,2.86,2.86,0,0,1,3.06,2,3.61,3.61,0,0,1,3.33-2c1.86,0,3.21,1,3.21,3.51v10h-2.64v-9c0-1.74-.52-2.38-1.6-2.38s-2.11.84-2.11,2.57V77.6H1009v-9c0-1.74-.52-2.38-1.62-2.38s-2.08.86-2.08,2.57V77.6h-2.65Z"/><path d="M1026.38,77.94a3,3,0,0,1-3-1.88h0v5.85h-2.65V64.42h2.5V66h0a3.11,3.11,0,0,1,3-2c3,0,4.24,2.58,4.24,7.11C1030.45,76.72,1028.22,77.94,1026.38,77.94Zm-1-11.76c-1.82,0-2.23,1.84-2.23,4.68,0,3.16.39,5,2.25,5,1.5,0,2.21-1.13,2.21-4.78C1027.66,68.07,1027.29,66.18,1025.43,66.18Z"/><path d="M1032.61,59.91h2.64v2.64h-2.64Zm0,4.51h2.64V77.6h-2.64Z"/><path d="M1037.92,64.42h2.65v2.06h0a3.26,3.26,0,0,1,3.06-2.41,1.59,1.59,0,0,1,.64.1v2.7a3.54,3.54,0,0,0-1.11-.15c-1.2,0-2.64.54-2.64,3V77.6h-2.65Z"/><path d="M1047.77,71.35v.76c0,1.77.22,4,2.21,4s2.1-2.13,2.1-2.94h2.5c0,3-1.76,4.75-4.63,4.75-2.15,0-4.83-.63-4.83-6.73,0-3.46.76-7.14,4.88-7.14,3.68,0,4.66,2.23,4.66,5.89v1.39Zm4.24-1.81v-.71c0-1.67-.54-2.94-2-2.94-1.67,0-2.21,1.66-2.21,3.38v.27Z"/></g></svg>