<svg xmlns="http://www.w3.org/2000/svg" viewBox="0 0 1847.91 108"><title>ce1050text</title><g id="Text"><g id="Holy_Roman_Empire_to_Austria" data-name="Holy Roman Empire to Austria"><path d="M562.13,46.53h2.79v7h5.15v-7h2.79V64h-2.79V55.89h-5.15V64h-2.79Z"/><path d="M575.07,57.43c0-4.12,1.07-6.93,4.9-6.93s4.92,2.81,4.92,6.93-1.27,6.94-4.92,6.94S575.07,61.55,575.07,57.43Zm4.9,5c1.93,0,2.28-1.62,2.28-5,0-2.92-.35-5-2.28-5s-2.26,2-2.26,5C577.71,60.79,578.08,62.41,580,62.41Z"/><path d="M587.05,46.53h2.64V64h-2.64Z"/><path d="M594.13,50.84l2.28,9.9h0l2.11-9.9h2.77L597.7,64.51c-1.05,3.61-1.86,4.1-4.6,4a4.76,4.76,0,0,1-1.06-.1v-2.1a3.65,3.65,0,0,0,.86.09c.91,0,1.5-.17,1.79-1l.34-1.07-3.75-13.48Z"/><path d="M608.85,46.53H615c2.45,0,4.43,1.25,4.43,4.5,0,2.26-1,4-2.91,4.29v0c1.76.17,2.64,1.13,2.74,3.58,0,1.15,0,2.5.1,3.55a1.89,1.89,0,0,0,.83,1.52h-3.16a3,3,0,0,1-.47-1.54c0-.52-.07-1.06-.07-1.57s0-1.1,0-1.74c-.07-1.91-.66-2.74-2.55-2.74h-2.28V64h-2.79Zm5,7.79a2.58,2.58,0,0,0,2.8-2.84c0-1.87-.79-2.85-2.65-2.85h-2.38v5.69Z"/><path d="M621.32,57.43c0-4.12,1.08-6.93,4.9-6.93s4.93,2.81,4.93,6.93-1.28,6.94-4.93,6.94S621.32,61.55,621.32,57.43Zm4.9,5c1.94,0,2.28-1.62,2.28-5,0-2.92-.34-5-2.28-5s-2.25,2-2.25,5C624,60.79,624.33,62.41,626.22,62.41Z"/><path d="M633.3,50.84h2.5v1.54h.07A3.72,3.72,0,0,1,639,50.5a2.86,2.86,0,0,1,3.06,2,3.6,3.6,0,0,1,3.33-2c1.86,0,3.21,1,3.21,3.5V64H646V55c0-1.74-.52-2.38-1.6-2.38s-2.11.84-2.11,2.58V64h-2.64V55c0-1.74-.52-2.38-1.62-2.38s-2.08.86-2.08,2.58V64H633.3Z"/><path d="M660,61.28c0,.49.29.93.68.93a1.24,1.24,0,0,0,.45-.07v1.71a2.86,2.86,0,0,1-1.3.32c-1.18,0-2.16-.47-2.23-1.74h0a3.41,3.41,0,0,1-3.29,1.94c-2.13,0-3.43-1.16-3.43-3.71,0-2.94,1.3-3.55,3.07-4.14l2.06-.56c1-.27,1.54-.54,1.54-1.69s-.42-2-1.81-2c-1.77,0-2,1.25-2,2.52h-2.5c0-2.82,1.15-4.33,4.63-4.33,2.33,0,4.19.9,4.19,3.23Zm-2.5-4.22a20.5,20.5,0,0,1-2.94,1.23,2.17,2.17,0,0,0-1.08,2.13c0,1.1.54,2,1.64,2,1.6,0,2.38-1.18,2.38-3.14Z"/><path d="M662.65,50.84h2.5v1.54h.07a3.81,3.81,0,0,1,3.39-1.88c2,0,3.28.9,3.28,3.57V64h-2.65V55c0-1.76-.46-2.38-1.83-2.38-1.08,0-2.11.81-2.11,2.58V64h-2.65Z"/><path d="M680.49,46.53H690v2.35h-6.67v4.85h6.27v2.35h-6.27v5.59h6.86V64h-9.65Z"/><path d="M692.22,50.84h2.5v1.54h.08A3.69,3.69,0,0,1,698,50.5a2.86,2.86,0,0,1,3.06,2,3.6,3.6,0,0,1,3.33-2c1.87,0,3.21,1,3.21,3.5V64h-2.64V55c0-1.74-.52-2.38-1.6-2.38s-2.1.84-2.1,2.58V64h-2.65V55c0-1.74-.52-2.38-1.62-2.38s-2.08.86-2.08,2.58V64h-2.65Z"/><path d="M715.91,64.37a3,3,0,0,1-3-1.89h0v5.86h-2.65V50.84h2.5v1.62h0a3.1,3.1,0,0,1,3-2c3,0,4.24,2.57,4.24,7.1C720,63.14,717.75,64.37,715.91,64.37ZM715,52.6c-1.81,0-2.23,1.84-2.23,4.68,0,3.16.39,5,2.25,5,1.5,0,2.21-1.13,2.21-4.78C717.19,54.49,716.82,52.6,715,52.6Z"/><path d="M722.14,46.33h2.64V49h-2.64Zm0,4.51h2.64V64h-2.64Z"/><path d="M727.45,50.84h2.65V52.9h0a3.26,3.26,0,0,1,3.06-2.4,1.61,1.61,0,0,1,.64.09v2.7a3.84,3.84,0,0,0-1.1-.15c-1.21,0-2.65.54-2.65,3V64h-2.65Z"/><path d="M737.3,57.77v.76c0,1.77.22,4,2.21,4s2.1-2.13,2.1-2.94h2.5c0,3-1.76,4.76-4.63,4.76-2.15,0-4.82-.64-4.82-6.74,0-3.46.75-7.13,4.87-7.13,3.68,0,4.66,2.23,4.66,5.88v1.39ZM741.54,56v-.71c0-1.67-.54-2.94-2-2.94-1.67,0-2.21,1.66-2.21,3.38V56Z"/></g><g id="Normandy"><path d="M169.86,52.5h3.41l5.07,13h0v-13H181V70h-3.41l-5.07-13.38h-.05V70h-2.65Z"/><path d="M183.51,61.25c0-6.25,1.76-9.09,5.78-9.09s5.79,2.84,5.79,9.09-1.77,9.09-5.79,9.09S183.51,67.5,183.51,61.25Zm8.77-.08c0-5.88-1.32-6.91-3-6.91s-3,1-3,6.91,1.33,7.06,3,7.06S192.28,67.18,192.28,61.17Z"/><path d="M197.55,52.5h6.17c2.45,0,4.44,1.25,4.44,4.51,0,2.25-1,4-2.92,4.29v.05c1.77.17,2.65,1.12,2.75,3.57,0,1.16,0,2.5.1,3.56a1.91,1.91,0,0,0,.83,1.52h-3.16a3,3,0,0,1-.47-1.55c0-.51-.07-1-.07-1.57s0-1.1-.05-1.74c-.07-1.91-.66-2.74-2.55-2.74h-2.28V70h-2.79Zm5,7.79a2.58,2.58,0,0,0,2.8-2.84c0-1.86-.79-2.84-2.65-2.84h-2.38v5.68Z"/><path d="M210.7,52.5h4.37l3.08,13h0l3-13h4.27V70h-2.65V55.44h-.05L219.28,70h-2.35L213.4,55.44h-.05V70H210.7Z"/><path d="M231.7,52.5h3.58L239.89,70H237l-1.08-4.29h-5.12L229.64,70h-2.91Zm3.73,11-2-8.63h0l-2.09,8.63Z"/><path d="M241.11,52.5h3.4l5.08,13h0v-13h2.64V70h-3.4L243.8,56.62h-.05V70h-2.64Z"/><path d="M255.17,52.5h5c5.49,0,6.17,3.58,6.17,8.75S265.64,70,260.15,70h-5ZM258,67.89h2.31c2.3,0,3.26-1.52,3.26-6.64,0-4.93-.84-6.64-3.26-6.64H258Z"/><path d="M271.32,63.16,266.81,52.5h3.11l2.94,7.55,3-7.55h2.91l-4.68,10.66V70h-2.79Z"/></g></g><g id="YEARS"><g id="Right"><path d="M1788.27,102.56V89.2h-3.82V87.27h.28c1.77,0,3.8-.44,4.35-2.75v-.37h2.15v18.41Z"/><path d="M1801.61,84.15c3.53,0,5.51,2.21,5.51,9.39s-2,9.39-5.51,9.39-5.51-2.21-5.51-9.39S1798.07,84.15,1801.61,84.15Zm0,16.7c2,0,2.55-2,2.55-7.31s-.55-7.31-2.55-7.31-2.55,2-2.55,7.31S1799.61,100.85,1801.61,100.85Z"/><path d="M1808.68,97.6h2.81v.49a2.35,2.35,0,0,0,2.42,2.6c2.08,0,2.62-2,2.62-4.19s-.57-3.92-2.47-3.92a2.35,2.35,0,0,0-2.42,1.69l-2.62-.11.91-9.64h8.86v2.36h-6.65l-.6,4.84,0,0a4.06,4.06,0,0,1,3.09-1.43c3.85,0,4.82,3.25,4.82,6.09,0,3.69-1.69,6.5-5.67,6.5-3.31,0-5.15-1.69-5.15-4.94Z"/><path d="M1826.57,84.15c3.53,0,5.51,2.21,5.51,9.39s-2,9.39-5.51,9.39-5.52-2.21-5.52-9.39S1823,84.15,1826.57,84.15Zm0,16.7c2,0,2.54-2,2.54-7.31s-.54-7.31-2.54-7.31-2.55,2-2.55,7.31S1824.56,100.85,1826.57,100.85Z"/></g><g id="Layer_34" data-name="Layer 34"><path d="M28.52,106.16V92.8H24.7V90.87H25c1.77,0,3.8-.44,4.35-2.75v-.37h2.16v18.41Z"/><path d="M41.86,87.75c3.53,0,5.51,2.21,5.51,9.39s-2,9.39-5.51,9.39-5.51-2.22-5.51-9.39S38.32,87.75,41.86,87.75Zm0,16.7c2,0,2.55-2,2.55-7.31s-.55-7.31-2.55-7.31-2.55,2-2.55,7.31S39.86,104.45,41.86,104.45Z"/><path d="M48.93,101.2h2.81v.49a2.35,2.35,0,0,0,2.42,2.6c2.08,0,2.62-2,2.62-4.19s-.57-3.92-2.47-3.92a2.35,2.35,0,0,0-2.42,1.69l-2.62-.11.91-9.64H59v2.36H52.39l-.6,4.84.05.05a4.06,4.06,0,0,1,3.1-1.43c3.84,0,4.81,3.25,4.81,6.09,0,3.69-1.69,6.5-5.67,6.5-3.3,0-5.15-1.7-5.15-5Z"/><path d="M66.82,87.75c3.53,0,5.51,2.21,5.51,9.39s-2,9.39-5.51,9.39-5.52-2.22-5.52-9.39S63.28,87.75,66.82,87.75Zm0,16.7c2,0,2.55-2,2.55-7.31s-.55-7.31-2.55-7.31-2.55,2-2.55,7.31S64.82,104.45,66.82,104.45Z"/></g></g></svg>