<svg id="YEARS" xmlns="http://www.w3.org/2000/svg" viewBox="0 0 1847.91 111"><title>ce1000text</title><g id="Right"><path d="M1792.14,61.33h3.8l4.89,18.57h-3.1l-1.14-4.55h-5.44L1790,79.9h-3.1ZM1796.09,73,1794,63.83h0L1791.7,73Z" fill="#3b4351"/><path d="M1802.23,76.46h3V79.9h-3Z" fill="#3b4351"/><path d="M1808.36,61.33h5.28c5.83,0,6.55,3.8,6.55,9.29s-.72,9.28-6.55,9.28h-5.28Zm3,16.33h2.44c2.45,0,3.46-1.61,3.46-7,0-5.23-.88-7.05-3.46-7.05h-2.44Z" fill="#3b4351"/><path d="M1821.88,76.46h3V79.9h-3Z" fill="#3b4351"/><path d="M1787.21,104.9V91.53h-3.82V89.61h.29c1.77,0,3.79-.44,4.34-2.76v-.36h2.16V104.9Z" fill="#3b4351"/><path d="M1798.26,100.79c0,1.07.52,2.39,2,2.39,2.78,0,2.94-3.64,2.94-6.34l-.08,0a3.78,3.78,0,0,1-3.59,1.94c-2.52,0-4.55-1.82-4.55-5.48,0-4.24,1.72-6.76,5.64-6.76,4.66,0,5.54,3.53,5.54,8.81,0,5.51-1,10-5.87,10-3.25,0-5-1.43-5-4.47Zm2.11-12.22c-1.8,0-2.44,1.79-2.44,4,0,2.57.75,4,2.44,4,2.18,0,2.55-1.9,2.55-4.11S1802.11,88.57,1800.37,88.57Z" fill="#3b4351"/><path d="M1807.62,99.93h2.81v.49a2.36,2.36,0,0,0,2.42,2.61c2.08,0,2.63-2,2.63-4.19s-.58-3.93-2.48-3.93a2.35,2.35,0,0,0-2.41,1.69l-2.63-.1.91-9.65h8.87v2.37h-6.66l-.6,4.83,0,.06a4.08,4.08,0,0,1,3.1-1.43c3.85,0,4.81,3.25,4.81,6.08,0,3.69-1.69,6.5-5.67,6.5-3.3,0-5.15-1.69-5.15-4.94Z" fill="#3b4351"/><path d="M1825.51,86.49c3.54,0,5.51,2.21,5.51,9.38s-2,9.39-5.51,9.39-5.51-2.21-5.51-9.39S1822,86.49,1825.51,86.49Zm0,16.69c2,0,2.55-2,2.55-7.31s-.55-7.3-2.55-7.3-2.55,2-2.55,7.3S1823.51,103.18,1825.51,103.18Z" fill="#3b4351"/></g><g id="left"><path d="M22.39,64.93h3.8l4.89,18.56H28l-1.14-4.55H21.4l-1.19,4.55h-3.1Zm3.95,11.65-2.13-9.15h-.05L22,76.58Z" fill="#3b4351"/><path d="M32.48,80.06h3v3.43h-3Z" fill="#3b4351"/><path d="M38.62,64.93h5.27c5.83,0,6.56,3.8,6.56,9.28s-.73,9.28-6.56,9.28H38.62Zm3,16.33H44c2.45,0,3.46-1.61,3.46-7.05,0-5.22-.88-7-3.46-7H41.58Z" fill="#3b4351"/><path d="M52.13,80.06h3v3.43h-3Z" fill="#3b4351"/><path d="M17.46,108.49V95.13H13.64V93.21h.29c1.77,0,3.79-.45,4.34-2.76v-.36h2.16v18.4Z" fill="#3b4351"/><path d="M28.51,104.39c0,1.06.52,2.39,2,2.39,2.78,0,2.94-3.64,2.94-6.35l-.08-.05a3.77,3.77,0,0,1-3.59,2c-2.52,0-4.55-1.82-4.55-5.48,0-4.24,1.72-6.76,5.64-6.76,4.66,0,5.54,3.53,5.54,8.81,0,5.51-1,10-5.87,10-3.25,0-5-1.43-5-4.47Zm2.11-12.22c-1.79,0-2.44,1.79-2.44,4,0,2.57.75,4,2.44,4,2.18,0,2.55-1.9,2.55-4.11S32.36,92.17,30.62,92.17Z" fill="#3b4351"/><path d="M37.87,103.53h2.81V104a2.35,2.35,0,0,0,2.42,2.6c2.08,0,2.63-2,2.63-4.18s-.58-3.93-2.48-3.93a2.35,2.35,0,0,0-2.41,1.69l-2.63-.1.91-9.65H48v2.37H41.33l-.6,4.83.06,0a4,4,0,0,1,3.09-1.43c3.85,0,4.81,3.25,4.81,6.09,0,3.69-1.69,6.5-5.67,6.5-3.3,0-5.15-1.69-5.15-4.94Z" fill="#3b4351"/><path d="M55.76,90.09c3.54,0,5.51,2.2,5.51,9.38s-2,9.39-5.51,9.39-5.51-2.21-5.51-9.39S52.22,90.09,55.76,90.09Zm0,16.69c2,0,2.55-2,2.55-7.31s-.55-7.3-2.55-7.3-2.55,2-2.55,7.3S53.76,106.78,55.76,106.78Z" fill="#3b4351"/></g></svg>