<svg xmlns="http://www.w3.org/2000/svg" viewBox="0 0 1847.91 111"><title>ce1000text</title><g id="YEARS"><g id="Right"><path d="M1797.43,61h3.79l4.89,18.57H1803l-1.15-4.55h-5.43l-1.2,4.55h-3.09Zm4,11.65-2.13-9.15h-.06L1797,72.68Z" fill="#3b4351"/><path d="M1807.51,76.17h3V79.6h-3Z" fill="#3b4351"/><path d="M1813.65,61h5.28c5.82,0,6.55,3.8,6.55,9.29s-.73,9.28-6.55,9.28h-5.28Zm3,16.33h2.45c2.44,0,3.46-1.61,3.46-7,0-5.23-.89-7-3.46-7h-2.45Z" fill="#3b4351"/><path d="M1827.17,76.17h3V79.6h-3Z" fill="#3b4351"/><path d="M1792.5,104.6V91.23h-3.82V89.31h.28c1.77,0,3.8-.44,4.35-2.76v-.36h2.15V104.6Z" fill="#3b4351"/><path d="M1803.55,100.49c0,1.07.52,2.39,2,2.39,2.79,0,2.94-3.64,2.94-6.34l-.08-.05a3.77,3.77,0,0,1-3.58,2c-2.53,0-4.55-1.82-4.55-5.49,0-4.24,1.71-6.76,5.64-6.76,4.65,0,5.54,3.54,5.54,8.81,0,5.52-1,10-5.88,10-3.25,0-5-1.43-5-4.47Zm2.1-12.22c-1.79,0-2.44,1.79-2.44,4,0,2.58.75,4,2.44,4,2.19,0,2.55-1.9,2.55-4.11S1807.4,88.27,1805.65,88.27Z" fill="#3b4351"/><path d="M1812.91,99.63h2.81v.5a2.35,2.35,0,0,0,2.41,2.6c2.08,0,2.63-2,2.63-4.19s-.57-3.93-2.47-3.93a2.36,2.36,0,0,0-2.42,1.69l-2.62-.1.91-9.65H1823v2.37h-6.65l-.6,4.84,0,0a4.06,4.06,0,0,1,3.09-1.43c3.85,0,4.81,3.25,4.81,6.08,0,3.69-1.69,6.5-5.66,6.5-3.31,0-5.15-1.69-5.15-4.94Z" fill="#3b4351"/><path d="M1830.8,86.19c3.53,0,5.51,2.21,5.51,9.39s-2,9.38-5.51,9.38-5.52-2.21-5.52-9.38S1827.26,86.19,1830.8,86.19Zm0,16.69c2,0,2.54-2,2.54-7.3s-.54-7.31-2.54-7.31-2.55,2-2.55,7.31S1828.79,102.88,1830.8,102.88Z" fill="#3b4351"/></g><g id="left"><path d="M22.39,62.94h3.8l4.89,18.57H28L26.84,77H21.4l-1.19,4.55h-3.1Zm3.95,11.65-2.13-9.15h-.05L22,74.59Z" fill="#3b4351"/><path d="M32.48,78.07h3v3.44h-3Z" fill="#3b4351"/><path d="M38.62,62.94h5.27c5.83,0,6.56,3.8,6.56,9.28s-.73,9.29-6.56,9.29H38.62Zm3,16.33H44c2.45,0,3.46-1.61,3.46-7,0-5.22-.88-7-3.46-7H41.58Z" fill="#3b4351"/><path d="M52.13,78.07h3v3.44h-3Z" fill="#3b4351"/><path d="M17.46,106.51V93.14H13.64V91.22h.29c1.77,0,3.79-.44,4.34-2.76V88.1h2.16v18.41Z" fill="#3b4351"/><path d="M28.51,102.4c0,1.06.52,2.39,2,2.39,2.78,0,2.94-3.64,2.94-6.34l-.08-.06a3.77,3.77,0,0,1-3.59,2c-2.52,0-4.55-1.82-4.55-5.48,0-4.24,1.72-6.76,5.64-6.76,4.66,0,5.54,3.53,5.54,8.81,0,5.51-1,10-5.87,10-3.25,0-5-1.43-5-4.47Zm2.11-12.22c-1.79,0-2.44,1.79-2.44,3.95,0,2.57.75,4,2.44,4,2.18,0,2.55-1.9,2.55-4.11S32.36,90.18,30.62,90.18Z" fill="#3b4351"/><path d="M37.87,101.54h2.81V102a2.35,2.35,0,0,0,2.42,2.6c2.08,0,2.63-2,2.63-4.18s-.58-3.93-2.48-3.93a2.35,2.35,0,0,0-2.41,1.69l-2.63-.1.91-9.65H48v2.37H41.33l-.6,4.83.06,0a4,4,0,0,1,3.09-1.42c3.85,0,4.81,3.25,4.81,6.08,0,3.69-1.69,6.5-5.67,6.5-3.3,0-5.15-1.69-5.15-4.94Z" fill="#3b4351"/><path d="M55.76,88.1c3.54,0,5.51,2.21,5.51,9.38s-2,9.39-5.51,9.39-5.51-2.21-5.51-9.39S52.22,88.1,55.76,88.1Zm0,16.69c2,0,2.55-2,2.55-7.31s-.55-7.3-2.55-7.3-2.55,2-2.55,7.3S53.76,104.79,55.76,104.79Z" fill="#3b4351"/></g></g><g id="Nation_OUtlines" data-name="Nation OUtlines"><polygon id="Romans" points="854.62 1235 829.93 1122 711.95 1013 764.62 899 729.95 784 845.28 673 1002.62 561 1065.29 447 1021.28 336 995.34 219 815.28 111 703.28 0 687.28 -115 737.95 -229 780.62 -341 712.62 -452 645.95 -566 550.62 -679 491.95 -788.83 453.95 -901.83 455.29 -1013.83 435.95 -1128.83 470.62 -1236.83 322.62 -1236.83 416.12 -1349.83 480.12 -1459.83 410.62 -1571.83 316.95 -1685.83 248.28 -1800.83 210.28 -1911.83 175.95 -2022.83 159.62 -2138.83 91.28 -2251.83 83.12 -2356.83 117.62 -2470.83 151.37 -2584.83 129.62 -2694.83 109.62 -2809.83 99.62 -2921.83 73.12 -3031.83 75.42 -3929.83 85.95 -3819.83 95.28 -3707.83 111.95 -3595.83 116.62 -3484.83 137.95 -3371.83 149.95 -3255.83 169.95 -3143.83 205.28 -3031.83 231.95 -2921.83 287.74 -2809.83 467.73 -2694.83 683.72 -2584.83 998.71 -2470.83 1118.7 -2356.83 1131.14 -2251.83 1195.2 -2138.83 1182.62 -2022.83 1245.62 -1911.83 1220.62 -1800.83 1122.62 -1685.83 981.62 -1571.83 880.12 -1459.83 717.95 -1349.83 593.62 -1236.83 616.62 -1128.83 717.28 -1013.83 839.28 -898.99 863.28 -788.83 915.28 -679 810.62 -566 885.95 -452 1037.95 -341 1125.95 -229 1253.95 -115 1213.95 0 1202.62 111 1169.95 219 1161.29 336 1218.62 447 1131.95 561 936.62 673 798.62 784 819.28 899 759.95 1013 849.28 1122 854.62 1235" fill="none" stroke="#3b4351" stroke-miterlimit="10"/><polygon id="Indians" points="1372.19 -4265.66 1294.19 -4379.83 1285.19 -4492.83 1313.69 -4603.83 1348.19 -4716.83 1310.69 -4830.83 1298.69 -4940.83 1313.69 -5052.83 1345.19 -5164.83 1325.69 -5278.83 1343.69 -5392.83 1417.19 -5503.83 1400.69 -5616.91 1429.19 -5729.83 1419.27 -5845.1 1387.19 -5956.83 1387.19 -6068.83 1438.19 -6179.33 1462.18 -6291.33 1480.18 -6404.37 1445.82 -6514.66 1411.11 -6626.66 1545.86 -6626.66 1580.1 -6514.66 1593.12 -6404.43 1552.12 -6291.33 1514.62 -6179.33 1514.12 -6069.16 1553.12 -5957.1 1548.12 -5844.83 1519.62 -5729.83 1534.12 -5616.16 1575.12 -5503.83 1559.62 -5392.83 1564.12 -5279.1 1534.62 -5164.83 1486.12 -5052.83 1465.12 -4940.83 1471.12 -4831.66 1502.12 -4717.66 1508.12 -4603.83 1534.62 -4492.83 1542.77 -4413.97 1555.62 -4265.66 1554.62 -4156.83 1567.12 -4044.83 1542.12 -3930.1 1498.12 -3819.83 1490.62 -3707.83 1513.12 -3595.83 1568.62 -3484.83 1544.12 -3371.83 1530.62 -3256.1 1523.62 -3144.1 1532.62 -3031.83 1565.12 -2921.83 1543.62 -2809.83 1514.12 -2694.83 1490.12 -2585.1 1495.62 -2470.83 1517.12 -2357.16 1528.12 -2251.83 1580.62 -2139.16 1578.12 -2023.16 1578.12 -1912.66 1560.12 -1801.1 1526.62 -1685.83 1467.62 -1571.83 1381.62 -1460.1 1270.62 -1349.83 1090.12 -1237.1 860.62 -1128.83 1302.12 -1013.83 1377.03 -901.83 1550.62 -788.83 1519.62 -679 1476.12 -566 1516.13 -452 1534.62 -339.66 1552.65 -229 1585.62 -115.1 1620.12 0 1650.12 111 1630.62 218.9 1622.45 335.9 1565.62 447 1402.62 560.34 1173.62 673 1148.62 784 1334.62 899 1283.62 1013 1344.62 1122 1544.62 1235 1602.62 1349.34 1627.62 1461 1674.62 1573.9 1627.62 1689 1634.62 1801 1686.62 1913 1701.62 2026 1620.12 2138 1606.12 2249 1606.12 2362.83 1552.62 2362.83 1549.52 2249 1569.62 2138 1683.62 2026 1667.62 1913 1607.62 1801 1596.62 1688.34 1617.62 1574 1584.62 1461 1562.62 1349 1507.62 1235 1304.62 1121.9 1225.62 1012.9 1236.97 975.95 1264.87 899 1082.62 784 1084.2 673.51 1323.62 561 1500.47 446.9 1573.62 336 1600.62 219 1604.62 111 1569.62 0 1514.62 -115 1447.62 -229.1 1418.62 -341 1404.62 -452 1367.62 -566 1397.62 -679 1418.62 -789.1 1339.62 -902.1 1246.62 -1013.83 748.62 -1128.83 753.62 -1236.83 910.76 -1349.83 1053.62 -1459.83 1195.2 -1571.83 1311.62 -1686.66 1353.62 -1800.83 1348.62 -1911.83 1364.62 -2023.66 1406.62 -2138.83 1401.62 -2251.83 1429.62 -2356.83 1394.62 -2471.1 1393.2 -2584.83 1391.82 -2695.1 1437.52 -2809.83 1513.62 -2922.1 1505.64 -3031.83 1472.62 -3143.66 1447.62 -3255.83 1440.63 -3371.83 1462.62 -3484.83 1391.1 -3595.83 1348.62 -3707.83 1332.62 -3819.83 1376.98 -3929.83 1375.34 -4045.1 1373.74 -4157.1 1372.19 -4265.66" fill="none" stroke="#3b4351" stroke-miterlimit="10"/><polygon id="Chinese" points="1610.76 -4267.1 1609.69 -4380.1 1608.62 -4493.16 1585.12 -4603.83 1551.62 -4716.83 1509.12 -4830.83 1538.12 -4941.1 1586.62 -5053.1 1616.12 -5164.83 1645.62 -5279.1 1697.12 -5393.1 1714.62 -5504.16 1689.12 -5615.83 1700.12 -5729.83 1676.62 -5844.83 1650.62 -5957.16 1630.62 -6068.83 1620.62 -6179.33 1646.62 -6291.33 1667.62 -6403.99 1651.62 -6514.66 1633.99 -6626.66 1768.79 -6626.66 1768.79 1574 1768.79 1688.9 1766.12 1801 1757.62 1913 1736.12 2025.9 1676.12 2137.9 1661.12 2249 1663.62 2362.83 1606.12 2362.83 1606.12 2248.9 1620.12 2138 1701.62 2026 1696.12 1912.84 1654.12 1801 1681.62 1689 1739.62 1573.9 1748.62 1460.84 1744.12 1348.84 1685.62 1235 1615.12 1124.34 1636.12 1013 1738.62 899 1761.12 784 1758.62 673 1732.12 561 1695.62 447 1667.62 336 1651.12 219 1650.12 111 1620.12 0 1585.62 -115.1 1552.62 -229.1 1535.12 -341 1516.12 -452.1 1476.12 -566 1542.12 -679 1625.62 -789.16 1668.12 -902.16 1666.12 -1013.83 1673.62 -1128.83 1653.62 -1236.83 1602.12 -1350.1 1534.12 -1460.1 1564.12 -1571.83 1598.12 -1686.1 1612.12 -1800.83 1611.01 -1912.1 1592.62 -2023.1 1609.25 -2138.83 1616.07 -2251.83 1553.62 -2356.83 1529.62 -2470.83 1528.62 -2585.1 1555.62 -2694.83 1612.12 -2809.83 1621.12 -2921.83 1587.12 -3031.83 1567.62 -3143.83 1576.62 -3255.83 1571.12 -3371.83 1584.62 -3485.1 1558.62 -3595.83 1545.62 -3708.1 1557.62 -3820.1 1599.62 -3929.83 1625.12 -4045.1 1613.62 -4157.1 1610.76 -4267.1" fill="none" stroke="#3b4351" stroke-miterlimit="10"/><polygon id="Denmark" points="916.62 2362.83 927.62 2362.83 926.37 2249 701.12 2138 690.87 2026 683.87 1913 637.87 1801 522.37 1689 457.37 1574 426.62 1461 299.62 1349 273.62 1235 281.62 1122 289.12 1013 302.12 899 296.87 784 275.62 673 253.62 561 226.62 447 210.62 336 199.62 111 199.37 0 291.37 -115 277.29 -229 235.95 -341 188.87 -452 180.62 -566 142.62 -679 139.95 -788.83 120.62 -901.83 99.95 -1013.83 73.12 -1128.83 90.34 -1013.83 107.12 -901.83 118.37 -788.83 120.37 -679 122.62 -566 125.87 -452 158.37 -341 185.87 -229 183.62 -115 127.62 0 119.62 111 119.12 219 156.87 336 188.62 447 212.62 561 252.37 673 277.87 784 283.37 899 267.12 1013 248.87 1122 213.87 1235 234.37 1349 312.12 1461 398.12 1574 458.87 1689 593.37 1801 637.87 1913 674.12 2026 691.37 2138 915.37 2249 916.62 2362.83" fill="none" stroke="#3b4351" stroke-miterlimit="10"/><polygon id="Norway" points="213.87 1235 222.62 1122 243.95 1013 258.95 899 252.95 784 220.95 673 186.86 561 160.95 447 133.28 336 96.28 219 84.28 111 89.28 0 120.28 -115 98.62 -229 94.28 -341 91.95 -452 95.28 -566 99.62 -679 96.58 -788.83 93.44 -901.83 90.34 -1013.83 107.12 -901.83 118.37 -788.83 120.37 -679 122.62 -566 125.87 -452 158.37 -341 185.87 -229 183.62 -115 127.62 0 119.62 111 119.12 219 156.87 336 188.62 447 212.62 561 252.37 673 277.87 784 283.37 899 267.12 1013 248.87 1122 213.87 1235" fill="none" stroke="#3b4351" stroke-miterlimit="10"/><polygon id="England" points="874.62 2362.83 688.95 2362.83 687.95 2249 439.12 2138 252.12 2026 159.62 1913 111.62 1801 93.62 1689 86.12 1574 84.62 1461 86.95 1349 98.28 1235 116.95 1122 114.62 1013 122.62 899 120.62 784 108.28 673 100.16 561 107.95 447 107.95 336 77.28 219 73.12 -1128.83 90.34 -1013.83 93.44 -901.83 96.58 -788.83 99.62 -679 91.95 -452 94.28 -341 98.62 -229 120.28 -115 89.28 0 84.28 111 96.28 219 133.28 336 160.95 447 172.95 561 208.95 673 223.62 784 228.28 899 211.62 1013 201.62 1122 189.95 1235 193.28 1349 235.28 1461 248.62 1574 348.62 1689 562.62 1801 622.12 1913 602.12 2026 652.12 2138 872.95 2249 874.62 2362.83" fill="none" stroke="#3b4351" stroke-miterlimit="10"/><polygon id="France" points="674.34 1461 785.95 1573.67 815.95 1689 963.28 1801 1049.29 1913 932.62 2026 899.28 2138 1099.75 2250 1102.12 2362.83 946.74 2362.83 946.24 2249 748.62 2138 745.95 2026 741.28 1913 711.95 1801 643.28 1689 613.28 1574 535.95 1461 385.29 1349 317.95 1235 311.95 1122 310.62 1013 321.29 899 314.62 784 275.62 673 253.62 561 258.62 449.67 325.29 336 314.62 219 286.62 111 249.62 0 291.37 -115 409.62 -115 362.62 0 373.95 111 423.58 219 444.62 336 381.95 449.67 347.12 561 361.29 673 384.62 784 391.95 899 365.95 1013 379.95 1122 391.29 1235 491.95 1349 674.34 1461" fill="none" stroke="#3b4351" stroke-miterlimit="10"/><polygon id="Franks_to_Holy_Roman_Empire" data-name="Franks to Holy Roman Empire" points="594.62 561 505.62 673 482.62 784 599.12 899 617.12 1013 639.62 1122 772.62 1235 953.62 1349 1131.62 1461 1201.62 1574 1109.12 1689 1144.62 1801 1249.12 1913 1301.62 2026 1217.12 2138 1288.12 2249 1290.62 2362.83 1234.62 2362.83 1232.12 2249 1140.12 2137.91 1137.62 2026 1115.62 1913 1053.62 1801 973.12 1689 1064.12 1574 953.62 1461 741.12 1349 577.12 1235 525.62 1122 418.62 1013 417.62 899 407.62 784 385.62 673 406.62 561 421.62 450.67 466.62 336 441.95 219 373.95 111 371.78 89.69 362.62 0 409.62 -115 559.62 -115 626.73 0 742.62 111 897.74 219 874.62 336 818.62 447.6 594.62 561" fill="none" stroke="#3b4351" stroke-miterlimit="10"/><polygon points="703.28 0 815.28 111 966.12 219 987.12 336 1028.12 447 932.12 561 729.62 673 630.12 784 721.12 899 711.95 1013 829.93 1122 854.62 1235 1030.37 1349 1169.87 1461 1257.37 1574 1158.4 1689 1196.12 1801 1147.62 1689 1238.87 1574 1162.87 1461 1022.62 1349 841.12 1235 809.62 1122 692.62 1013 689.38 899 586.62 784 584.12 673 663.53 561 851.12 447 874.62 336 897.74 219 742.62 111 626.73 0 559.62 -115 644.62 -115 703.28 0" fill="none" stroke="#3b4351" stroke-miterlimit="10"/><polygon points="687.28 -115 737.95 -229 780.62 -341 712.62 -452 676.62 -341 600.62 -229 644.62 -115 703.28 0 687.28 -115" fill="none" stroke="#3b4351" stroke-miterlimit="10"/><polygon id="Normandy" points="325.29 336 258.62 449.67 253.62 561 226.62 447 210.62 336 199.47 219 199.62 111 199.37 0 291.37 -115 249.62 0 286.62 111 314.62 219 325.29 336" fill="none" stroke="#3b4351" stroke-miterlimit="10"/><polygon id="Moslem_Arabs_and_Persians" data-name="Moslem Arabs and Persians" points="1404.62 -452 1418.62 -341 1411.62 -229 1453.62 -115 1382.62 0 1328.62 111 1225.12 219 1161.29 336 1169.95 219 1202.62 111 1213.95 0 1253.95 -115 1125.95 -229 1037.95 -341 885.95 -452 810.62 -566 997.62 -679 1106.62 -788.2 1418.62 -789.1 1397.62 -679 1367.62 -566 1404.62 -452" fill="none" stroke="#3b4351" stroke-miterlimit="10"/><polygon points="1523.12 1913.84 1446.62 1801 1405.12 1689.56 1442.62 1574 1396.62 1461 1391.62 1349 1351.62 1235 1183.62 1122 1092.62 1013 1124.29 899 970.62 784 1005.12 673 1166.62 561 1313.55 449.95 1315.29 450 1317.44 447 1317.44 447 1317.44 447 1397.29 336 1463.95 219 1481.95 111 1488.62 0 1453.62 -115 1382.62 0 1328.62 111 1225.12 219 1161.29 336 1218.62 447 1218.62 447 1218.62 447 1131.95 561 936.62 673 798.62 784 819.28 899 759.95 1013 849.28 1122 947.12 1235 1111.12 1349 1208.62 1461 1293.62 1574 1244.12 1689.56 1280.62 1801 1381.12 1913 1410.62 2026 1358.62 2138 1436.62 2249 1436.62 2362.83 1467.62 2362.83 1467.62 2249 1423.62 2138 1492.62 2026 1523.12 1913.84" fill="none" stroke="#3b4351" stroke-miterlimit="10"/><polygon id="Spain" points="1117.95 2250.41 1119.29 2362.83 1102.12 2362.83 1099.75 2250 899.28 2138 932.62 2026 1049.29 1913 963.28 1801 815.95 1689 785.95 1573.67 674.34 1461 491.95 1349 391.29 1235 379.95 1122 365.95 1013 391.95 899 384.62 784 361.29 673 347.12 561 383.43 447 444.62 336 423.58 219 373.95 111 441.95 219 466.62 336 423.06 447 406.62 561 385.62 673 407.62 784 417.62 899 401.95 1013 463.29 1122 491.29 1235 631.28 1349.41 844.62 1461 937.12 1575.34 922.62 1689 997.95 1801 1065.62 1913 1035.29 2026 959.28 2138 1117.95 2250.41" fill="none" stroke="#3b4351" stroke-miterlimit="10"/><polygon id="Egypt" points="729.95 784 764.62 899 711.95 1013 721.12 899 630.12 784 729.62 673 932.12 561 1028.12 447 987.12 336 966.12 219 815.28 111 995.34 219 1021.28 336 1065.29 447 1002.62 561 845.28 673 729.95 784" fill="none" stroke="#3b4351" stroke-miterlimit="10"/><polygon id="Mogolians" points="1334.62 899 1148.62 784 1173.62 673 1402.62 560.34 1565.62 447 1622.45 335.9 1630.62 218.9 1650.12 111 1651.12 219 1667.62 336 1695.62 447 1732.12 561 1758.62 673 1761.12 784 1738.62 899 1636.12 1013 1615.56 1122 1685.62 1235 1744.12 1348.84 1748.42 1463.28 1739.62 1573.9 1681.62 1689 1654.12 1801 1696.12 1912.84 1701.62 2026 1686.62 1913 1634.62 1801 1627.62 1689 1674.62 1573.9 1627.62 1461 1602.62 1349.34 1544.62 1235 1344.62 1122 1283.62 1013 1334.62 899" fill="none" stroke="#3b4351" stroke-miterlimit="10"/><polygon id="Russia" points="1573.62 336 1500.47 446.9 1323.62 561 1084.2 673.51 1257.37 561 1428.62 447 1495.12 334.33 1508.12 219 1519.62 111 1488.62 0 1453.62 -115 1411.62 -229 1418.62 -341 1447.62 -229.1 1514.62 -115 1569.62 0 1604.62 111 1600.62 219 1573.62 336" fill="none" stroke="#3b4351" stroke-miterlimit="10"/><polygon id="Ghazivids_2" data-name="Ghazivids 2" points="1495.12 334.33 1428.62 447 1084.2 673.51 1082.62 784 1026.12 673 1384.62 447 1436.12 334.33 1463.95 219 1481.95 111 1488.45 2.77 1519.62 111 1508.12 219 1495.12 334.33" fill="none" stroke="#3b4351" stroke-miterlimit="10"/></g></svg>