<svg xmlns="http://www.w3.org/2000/svg" viewBox="0 0 1847.91 108"><title>ce1050text</title><g id="YEARS"><g id="Right"><path d="M1792.5,108.09V94.73h-3.82V92.8h.28c1.77,0,3.8-.44,4.35-2.75v-.37h2.15v18.41Z" fill="#3b4351"/><path d="M1805.84,89.68c3.53,0,5.51,2.21,5.51,9.39s-2,9.39-5.51,9.39-5.52-2.21-5.52-9.39S1802.3,89.68,1805.84,89.68Zm0,16.7c2,0,2.54-2,2.54-7.31s-.54-7.31-2.54-7.31-2.55,2-2.55,7.31S1803.83,106.38,1805.84,106.38Z" fill="#3b4351"/><path d="M1812.91,103.13h2.81v.49a2.35,2.35,0,0,0,2.41,2.6c2.08,0,2.63-2,2.63-4.18s-.57-3.93-2.47-3.93a2.35,2.35,0,0,0-2.42,1.69l-2.62-.11.91-9.64H1823v2.36h-6.65l-.6,4.84,0,0a4.06,4.06,0,0,1,3.09-1.43c3.85,0,4.81,3.25,4.81,6.09,0,3.69-1.69,6.5-5.66,6.5-3.31,0-5.15-1.69-5.15-4.94Z" fill="#3b4351"/><path d="M1830.8,89.68c3.53,0,5.51,2.21,5.51,9.39s-2,9.39-5.51,9.39-5.52-2.21-5.52-9.39S1827.26,89.68,1830.8,89.68Zm0,16.7c2,0,2.54-2,2.54-7.31s-.54-7.31-2.54-7.31-2.55,2-2.55,7.31S1828.79,106.38,1830.8,106.38Z" fill="#3b4351"/></g><g id="left"><path d="M17.46,110V96.63H13.64V94.71h.29c1.77,0,3.79-.44,4.34-2.75v-.37h2.16V110Z" fill="#3b4351"/><path d="M30.8,91.59c3.54,0,5.51,2.21,5.51,9.39s-2,9.38-5.51,9.38-5.51-2.21-5.51-9.38S27.27,91.59,30.8,91.59Zm0,16.69c2,0,2.55-2,2.55-7.3s-.55-7.31-2.55-7.31-2.55,2-2.55,7.31S28.8,108.28,30.8,108.28Z" fill="#3b4351"/><path d="M37.87,105h2.81v.5a2.35,2.35,0,0,0,2.42,2.6c2.08,0,2.63-2,2.63-4.19S45.15,100,43.25,100a2.34,2.34,0,0,0-2.41,1.69l-2.63-.11L39.12,92H48v2.36H41.33l-.6,4.84.06,0a4,4,0,0,1,3.09-1.43c3.85,0,4.81,3.25,4.81,6.08,0,3.69-1.69,6.5-5.67,6.5-3.3,0-5.15-1.69-5.15-4.94Z" fill="#3b4351"/><path d="M55.76,91.59c3.54,0,5.51,2.21,5.51,9.39s-2,9.38-5.51,9.38-5.51-2.21-5.51-9.38S52.22,91.59,55.76,91.59Zm0,16.69c2,0,2.55-2,2.55-7.3s-.55-7.31-2.55-7.31-2.55,2-2.55,7.31S53.76,108.28,55.76,108.28Z" fill="#3b4351"/></g></g><g id="Nation_OUtlines" data-name="Nation OUtlines"><polygon id="Romans" points="854.62 1124 829.93 1011 711.95 902 764.62 788 729.95 673 845.28 562 1002.62 450 1065.29 336 1021.28 225 995.34 108 815.28 0 703.28 -111 687.28 -226 737.95 -340 780.62 -452 712.62 -563 645.95 -677 550.62 -790 491.95 -899.83 453.95 -1012.83 455.29 -1124.83 435.95 -1239.83 470.62 -1347.83 322.62 -1347.83 416.12 -1460.83 480.12 -1570.83 410.62 -1682.83 316.95 -1796.83 248.28 -1911.83 210.28 -2022.83 175.95 -2133.83 159.62 -2249.83 91.28 -2362.83 83.12 -2467.83 117.62 -2581.83 151.37 -2695.83 129.62 -2805.83 109.62 -2920.83 99.62 -3032.83 73.12 -3142.83 75.42 -4040.83 85.95 -3930.83 95.28 -3818.83 111.95 -3706.83 116.62 -3595.83 137.95 -3482.83 149.95 -3366.83 169.95 -3254.83 205.28 -3142.83 231.95 -3032.83 287.74 -2920.83 467.73 -2805.83 683.72 -2695.83 998.71 -2581.83 1118.7 -2467.83 1131.14 -2362.83 1195.2 -2249.83 1182.62 -2133.83 1245.62 -2022.83 1220.62 -1911.83 1122.62 -1796.83 981.62 -1682.83 880.12 -1570.83 717.95 -1460.83 593.62 -1347.83 616.62 -1239.83 717.28 -1124.83 839.28 -1009.99 863.28 -899.83 915.28 -790 810.62 -677 885.95 -563 1037.95 -452 1125.95 -340 1253.95 -226 1213.95 -111 1202.62 0 1169.95 108 1161.29 225 1218.62 336 1131.95 450 936.62 562 798.62 673 819.28 788 759.95 902 849.28 1011 854.62 1124" fill="none" stroke="#3b4351" stroke-miterlimit="10"/><polygon id="Indians" points="1372.19 -4376.66 1294.19 -4490.83 1285.19 -4603.83 1313.69 -4714.83 1348.19 -4827.83 1310.69 -4941.83 1298.69 -5051.83 1313.69 -5163.83 1345.19 -5275.83 1325.69 -5389.83 1343.69 -5503.83 1417.19 -5614.83 1400.69 -5727.91 1429.19 -5840.83 1419.27 -5956.1 1387.19 -6067.83 1387.19 -6179.83 1438.19 -6290.33 1462.18 -6402.33 1480.18 -6515.37 1445.82 -6625.66 1411.11 -6737.66 1545.86 -6737.66 1580.1 -6625.66 1593.12 -6515.43 1552.12 -6402.33 1514.62 -6290.33 1514.12 -6180.16 1553.12 -6068.1 1548.12 -5955.83 1519.62 -5840.83 1534.12 -5727.16 1575.12 -5614.83 1559.62 -5503.83 1564.12 -5390.1 1534.62 -5275.83 1486.12 -5163.83 1465.12 -5051.83 1471.12 -4942.66 1502.12 -4828.66 1508.12 -4714.83 1534.62 -4603.83 1542.77 -4524.97 1555.62 -4376.66 1554.62 -4267.83 1567.12 -4155.83 1542.12 -4041.1 1498.12 -3930.83 1490.62 -3818.83 1513.12 -3706.83 1568.62 -3595.83 1544.12 -3482.83 1530.62 -3367.1 1523.62 -3255.1 1532.62 -3142.83 1565.12 -3032.83 1543.62 -2920.83 1514.12 -2805.83 1490.12 -2696.1 1495.62 -2581.83 1517.12 -2468.16 1528.12 -2362.83 1580.62 -2250.16 1578.12 -2134.16 1578.12 -2023.66 1560.12 -1912.1 1526.62 -1796.83 1467.62 -1682.83 1381.62 -1571.1 1270.62 -1460.83 1090.12 -1348.1 860.62 -1239.83 1302.12 -1124.83 1377.03 -1012.83 1550.62 -899.83 1519.62 -790 1476.12 -677 1516.13 -563 1534.62 -450.66 1552.65 -340 1585.62 -226.1 1620.12 -111 1650.12 0 1630.62 107.9 1622.45 224.9 1565.62 336 1402.62 449.34 1173.62 562 1148.62 673 1334.62 788 1283.62 902 1344.62 1011 1544.62 1124 1602.62 1238.34 1627.62 1350 1674.62 1462.9 1627.62 1578 1634.62 1690 1686.62 1802 1701.62 1915 1620.12 2027 1606.12 2138 1606.12 2251.83 1552.62 2251.83 1549.52 2138 1569.62 2027 1683.62 1915 1667.62 1802 1607.62 1690 1596.62 1577.34 1617.62 1463 1584.62 1350 1562.62 1238 1507.62 1124 1304.62 1010.9 1225.62 901.9 1236.97 864.95 1264.87 788 1082.62 673 1084.2 562.51 1323.62 450 1500.47 335.9 1573.62 225 1600.62 108 1604.62 0 1569.62 -111 1514.62 -226 1447.62 -340.1 1418.62 -452 1404.62 -563 1367.62 -677 1397.62 -790 1418.62 -900.1 1339.62 -1013.1 1246.62 -1124.83 748.62 -1239.83 753.62 -1347.83 910.76 -1460.83 1053.62 -1570.83 1195.2 -1682.83 1311.62 -1797.66 1353.62 -1911.83 1348.62 -2022.83 1364.62 -2134.66 1406.62 -2249.83 1401.62 -2362.83 1429.62 -2467.83 1394.62 -2582.1 1393.2 -2695.83 1391.82 -2806.1 1437.52 -2920.83 1513.62 -3033.1 1505.64 -3142.83 1472.62 -3254.66 1447.62 -3366.83 1440.63 -3482.83 1462.62 -3595.83 1391.1 -3706.83 1348.62 -3818.83 1332.62 -3930.83 1376.98 -4040.83 1375.34 -4156.1 1373.74 -4268.1 1372.19 -4376.66" fill="none" stroke="#3b4351" stroke-miterlimit="10"/><polygon id="Chinese" points="1610.76 -4378.1 1609.69 -4491.1 1608.62 -4604.16 1585.12 -4714.83 1551.62 -4827.83 1509.12 -4941.83 1538.12 -5052.1 1586.62 -5164.1 1616.12 -5275.83 1645.62 -5390.1 1697.12 -5504.1 1714.62 -5615.16 1689.12 -5726.83 1700.12 -5840.83 1676.62 -5955.83 1650.62 -6068.16 1630.62 -6179.83 1620.62 -6290.33 1646.62 -6402.33 1667.62 -6514.99 1651.62 -6625.66 1633.99 -6737.66 1768.79 -6737.66 1768.79 1463 1768.79 1577.9 1766.12 1690 1757.62 1802 1736.12 1914.9 1676.12 2026.9 1661.12 2138 1663.62 2251.83 1606.12 2251.83 1606.12 2137.9 1620.12 2027 1701.62 1915 1696.12 1801.84 1654.12 1690 1681.62 1578 1739.62 1462.9 1748.62 1349.84 1744.12 1237.84 1685.62 1124 1615.12 1013.34 1636.12 902 1738.62 788 1761.12 673 1758.62 562 1732.12 450 1695.62 336 1667.62 225 1651.12 108 1650.12 0 1620.12 -111 1585.62 -226.1 1552.62 -340.1 1535.12 -452 1516.12 -563.1 1476.12 -677 1542.12 -790 1625.62 -900.16 1668.12 -1013.16 1666.12 -1124.83 1673.62 -1239.83 1653.62 -1347.83 1602.12 -1461.1 1534.12 -1571.1 1564.12 -1682.83 1598.12 -1797.1 1612.12 -1911.83 1611.01 -2023.1 1592.62 -2134.1 1609.25 -2249.83 1616.07 -2362.83 1553.62 -2467.83 1529.62 -2581.83 1528.62 -2696.1 1555.62 -2805.83 1612.12 -2920.83 1621.12 -3032.83 1587.12 -3142.83 1567.62 -3254.83 1576.62 -3366.83 1571.12 -3482.83 1584.62 -3596.1 1558.62 -3706.83 1545.62 -3819.1 1557.62 -3931.1 1599.62 -4040.83 1625.12 -4156.1 1613.62 -4268.1 1610.76 -4378.1" fill="none" stroke="#3b4351" stroke-miterlimit="10"/><polygon id="Denmark" points="916.62 2251.83 927.62 2251.83 926.37 2138 701.12 2027 690.87 1915 683.87 1802 637.87 1690 522.37 1578 457.37 1463 426.62 1350 299.62 1238 273.62 1124 281.62 1011 289.12 902 302.12 788 296.87 673 275.62 562 253.62 450 226.62 336 210.62 225 199.62 0 199.37 -111 291.37 -226 277.29 -340 235.95 -452 188.87 -563 180.62 -677 142.62 -790 139.95 -899.83 120.62 -1012.83 99.95 -1124.83 73.12 -1239.83 90.34 -1124.83 107.12 -1012.83 118.37 -899.83 120.37 -790 122.62 -677 125.87 -563 158.37 -452 185.87 -340 183.62 -226 127.62 -111 119.62 0 119.12 108 156.87 225 188.62 336 212.62 450 252.37 562 277.87 673 283.37 788 267.12 902 248.87 1011 213.87 1124 234.37 1238 312.12 1350 398.12 1463 458.87 1578 593.37 1690 637.87 1802 674.12 1915 691.37 2027 915.37 2138 916.62 2251.83" fill="none" stroke="#3b4351" stroke-miterlimit="10"/><polygon id="Norway" points="213.87 1124 222.62 1011 243.95 902 258.95 788 252.95 673 220.95 562 186.86 450 160.95 336 133.28 225 96.28 108 84.28 0 89.28 -111 120.28 -226 98.62 -340 94.28 -452 91.95 -563 95.28 -677 99.62 -790 96.58 -899.83 93.44 -1012.83 90.34 -1124.83 107.12 -1012.83 118.37 -899.83 120.37 -790 122.62 -677 125.87 -563 158.37 -452 185.87 -340 183.62 -226 127.62 -111 119.62 0 119.12 108 156.87 225 188.62 336 212.62 450 252.37 562 277.87 673 283.37 788 267.12 902 248.87 1011 213.87 1124" fill="none" stroke="#3b4351" stroke-miterlimit="10"/><polygon id="England" points="874.62 2251.83 688.95 2251.83 687.95 2138 439.12 2027 252.12 1915 159.62 1802 111.62 1690 93.62 1578 86.12 1463 84.62 1350 86.95 1238 98.28 1124 116.95 1011 114.62 902 122.62 788 120.62 673 108.28 562 100.16 450 107.95 336 107.95 225 77.28 108 73.12 -1239.83 90.34 -1124.83 93.44 -1012.83 96.58 -899.83 99.62 -790 91.95 -563 94.28 -452 98.62 -340 120.28 -226 89.28 -111 84.28 0 96.28 108 133.28 225 160.95 336 172.95 450 208.95 562 223.62 673 228.28 788 211.62 902 201.62 1011 189.95 1124 193.28 1238 235.28 1350 248.62 1463 348.62 1578 562.62 1690 622.12 1802 602.12 1915 652.12 2027 872.95 2138 874.62 2251.83" fill="none" stroke="#3b4351" stroke-miterlimit="10"/><polygon id="South_America" data-name="South America" points="108.28 562 120.62 673 122.62 788 114.62 902 116.95 1011 98.28 1124 86.95 1238 84.62 1350 79.62 1463 82.62 1578 87.62 1690 107.62 1802 145.12 1915 167.12 2027 198.12 2138 200.12 2251.83 77.28 2251.83 77.28 108 107.95 225 107.95 336 100.16 450 108.28 562" fill="none" stroke="#3b4351" stroke-miterlimit="10"/><polygon id="France" points="674.34 1350 785.95 1462.67 815.95 1578 963.28 1690 1049.29 1802 932.62 1915 899.28 2027 1099.75 2139 1102.12 2251.83 946.74 2251.83 946.24 2138 748.62 2027 745.95 1915 741.28 1802 711.95 1690 643.28 1578 613.28 1463 535.95 1350 385.29 1238 317.95 1124 311.95 1011 310.62 902 321.29 788 314.62 673 275.62 562 253.62 450 258.62 338.67 325.29 225 314.62 108 286.62 0 249.62 -111 291.37 -226 409.62 -226 362.62 -111 373.95 0 423.58 108 444.62 225 381.95 338.67 347.12 450 361.29 562 384.62 673 391.95 788 365.95 902 379.95 1011 391.29 1124 491.95 1238 674.34 1350" fill="none" stroke="#3b4351" stroke-miterlimit="10"/><polygon id="Franks_to_Holy_Roman_Empire" data-name="Franks to Holy Roman Empire" points="594.62 450 505.62 562 482.62 673 599.12 788 617.12 902 639.62 1011 772.62 1124 953.62 1238 1131.62 1350 1201.62 1463 1109.12 1578 1144.62 1690 1249.12 1802 1301.62 1915 1217.12 2027 1288.12 2138 1290.62 2251.83 1234.62 2251.83 1232.12 2138 1140.12 2026.91 1137.62 1915 1115.62 1802 1053.62 1690 973.12 1578 1064.12 1463 953.62 1350 741.12 1238 577.12 1124 525.62 1011 418.62 902 417.62 788 407.62 673 385.62 562 406.62 450 421.62 339.67 466.62 225 441.95 108 373.95 0 371.78 -21.31 362.62 -111 409.62 -226 559.62 -226 626.73 -111 742.62 0 897.74 108 874.62 225 818.62 336.6 594.62 450" fill="none" stroke="#3b4351" stroke-miterlimit="10"/><polygon points="703.28 -111 815.28 0 966.12 108 987.12 225 1028.12 336 932.12 450 729.62 562 630.12 673 721.12 788 711.95 902 829.93 1011 854.62 1124 1030.37 1238 1169.87 1350 1257.37 1463 1158.4 1578 1196.12 1690 1147.62 1578 1238.87 1463 1162.87 1350 1022.62 1238 841.12 1124 809.62 1011 692.62 902 689.38 788 586.62 673 584.12 562 663.53 450 851.12 336 874.62 225 897.74 108 742.62 0 626.73 -111 559.62 -226 644.62 -226 703.28 -111" fill="none" stroke="#3b4351" stroke-miterlimit="10"/><polygon id="Normandy" points="325.29 225 258.62 338.67 253.62 450 226.62 336 210.62 225 199.47 108 199.62 0 199.37 -111 291.37 -226 249.62 -111 286.62 0 314.62 108 325.29 225" fill="none" stroke="#3b4351" stroke-miterlimit="10"/><polygon id="Moslem_Arabs_and_Persians" data-name="Moslem Arabs and Persians" points="1404.62 -563 1418.62 -452 1411.62 -340 1453.62 -226 1382.62 -111 1328.62 0 1225.12 108 1161.29 225 1169.95 108 1202.62 0 1213.95 -111 1253.95 -226 1125.95 -340 1037.95 -452 885.95 -563 810.62 -677 997.62 -790 1106.62 -899.2 1418.62 -900.1 1397.62 -790 1367.62 -677 1404.62 -563" fill="none" stroke="#3b4351" stroke-miterlimit="10"/><polygon points="1523.12 1802.84 1446.62 1690 1405.12 1578.56 1442.62 1463 1396.62 1350 1391.62 1238 1351.62 1124 1183.62 1011 1092.62 902 1124.29 788 970.62 673 1005.12 562 1166.62 450 1313.55 338.95 1315.29 339 1317.44 336 1317.44 336 1317.44 336 1397.29 225 1463.95 108 1481.95 0 1488.62 -111 1453.62 -226 1382.62 -111 1328.62 0 1225.12 108 1161.29 225 1218.62 336 1218.62 336 1218.62 336 1131.95 450 936.62 562 798.62 673 819.28 788 759.95 902 849.28 1011 947.12 1124 1111.12 1238 1208.62 1350 1293.62 1463 1244.12 1578.56 1280.62 1690 1381.12 1802 1410.62 1915 1358.62 2027 1436.62 2138 1436.62 2251.83 1467.62 2251.83 1467.62 2138 1423.62 2027 1492.62 1915 1523.12 1802.84" fill="none" stroke="#3b4351" stroke-miterlimit="10"/><polygon id="Spain" points="1117.95 2139.41 1119.29 2251.83 1102.12 2251.83 1099.75 2139 899.28 2027 932.62 1915 1049.29 1802 963.28 1690 815.95 1578 785.95 1462.67 674.34 1350 491.95 1238 391.29 1124 379.95 1011 365.95 902 391.95 788 384.62 673 361.29 562 347.12 450 383.43 336 444.62 225 423.58 108 373.95 0 441.95 108 466.62 225 423.06 336 406.62 450 385.62 562 407.62 673 417.62 788 401.95 902 463.29 1011 491.29 1124 631.28 1238.41 844.62 1350 937.12 1464.34 922.62 1578 997.95 1690 1065.62 1802 1035.29 1915 959.28 2027 1117.95 2139.41" fill="none" stroke="#3b4351" stroke-miterlimit="10"/><polygon id="Egypt" points="729.95 673 764.62 788 711.95 902 721.12 788 630.12 673 729.62 562 932.12 450 1028.12 336 987.12 225 966.12 108 815.28 0 995.34 108 1021.28 225 1065.29 336 1002.62 450 845.28 562 729.95 673" fill="none" stroke="#3b4351" stroke-miterlimit="10"/><polygon id="Mogolians" points="1334.62 788 1148.62 673 1173.62 562 1402.62 449.34 1565.62 336 1622.45 224.9 1630.62 107.9 1650.12 0 1651.12 108 1667.62 225 1695.62 336 1732.12 450 1758.62 562 1761.12 673 1738.62 788 1636.12 902 1615.56 1011 1685.62 1124 1744.12 1237.84 1748.42 1352.28 1739.62 1462.9 1681.62 1578 1654.12 1690 1696.12 1801.84 1701.62 1915 1686.62 1802 1634.62 1690 1627.62 1578 1674.62 1462.9 1627.62 1350 1602.62 1238.34 1544.62 1124 1344.62 1011 1283.62 902 1334.62 788" fill="none" stroke="#3b4351" stroke-miterlimit="10"/><polygon id="Russia" points="1573.62 225 1500.47 335.9 1323.62 450 1084.2 562.51 1257.37 450 1428.62 336 1495.12 223.33 1508.12 108 1519.62 0 1488.62 -111 1453.62 -226 1411.62 -340 1418.62 -452 1447.62 -340.1 1514.62 -226 1569.62 -111 1604.62 0 1600.62 108 1573.62 225" fill="none" stroke="#3b4351" stroke-miterlimit="10"/><polygon id="Ghazivids_2" data-name="Ghazivids 2" points="1495.12 223.33 1428.62 336 1084.2 562.51 1082.62 673 1026.12 562 1384.62 336 1436.12 223.33 1463.95 108 1481.95 0 1488.45 -108.23 1519.62 0 1508.12 108 1495.12 223.33" fill="none" stroke="#3b4351" stroke-miterlimit="10"/><polygon id="Ghazivids_-_Afgans" data-name="Ghazivids - Afgans" points="1384.62 336 1212.12 450 1026.12 562 970.62 673 1005.12 562 1166.62 450 1317.44 336 1397.29 225 1463.95 108 1436.12 223.33 1384.62 336" fill="none" stroke="#3b4351" stroke-miterlimit="10"/></g><g id="Text"><g id="Normandy-2" data-name="Normandy"><path d="M169.86,52.5h3.41l5.07,13h0v-13H181V70h-3.41l-5.07-13.38h-.05V70h-2.65Z" fill="#3b4351"/><path d="M183.51,61.25c0-6.25,1.76-9.09,5.78-9.09s5.79,2.84,5.79,9.09-1.77,9.09-5.79,9.09S183.51,67.5,183.51,61.25Zm8.77-.08c0-5.88-1.32-6.91-3-6.91s-3,1-3,6.91,1.33,7.06,3,7.06S192.28,67.18,192.28,61.17Z" fill="#3b4351"/><path d="M197.55,52.5h6.17c2.45,0,4.44,1.25,4.44,4.51,0,2.25-1,4-2.92,4.29v.05c1.77.17,2.65,1.12,2.75,3.57,0,1.16,0,2.5.1,3.56a1.91,1.91,0,0,0,.83,1.52h-3.16a3,3,0,0,1-.47-1.55c0-.51-.07-1-.07-1.57s0-1.1-.05-1.74c-.07-1.91-.66-2.74-2.55-2.74h-2.28V70h-2.79Zm5,7.79a2.58,2.58,0,0,0,2.8-2.84c0-1.86-.79-2.84-2.65-2.84h-2.38v5.68Z" fill="#3b4351"/><path d="M210.7,52.5h4.37l3.08,13h0l3-13h4.27V70h-2.65V55.44h-.05L219.28,70h-2.35L213.4,55.44h-.05V70H210.7Z" fill="#3b4351"/><path d="M231.7,52.5h3.58L239.89,70H237l-1.08-4.29h-5.12L229.64,70h-2.91Zm3.73,11-2-8.63h0l-2.09,8.63Z" fill="#3b4351"/><path d="M241.11,52.5h3.4l5.08,13h0v-13h2.64V70h-3.4L243.8,56.62h-.05V70h-2.64Z" fill="#3b4351"/><path d="M255.17,52.5h5c5.49,0,6.17,3.58,6.17,8.75S265.64,70,260.15,70h-5ZM258,67.89h2.31c2.3,0,3.26-1.52,3.26-6.64,0-4.93-.84-6.64-3.26-6.64H258Z" fill="#3b4351"/><path d="M271.32,63.16,266.81,52.5h3.11l2.94,7.55,3-7.55h2.91l-4.68,10.66V70h-2.79Z" fill="#3b4351"/></g><g id="Turks"><path d="M1288.56,71v.44c0,2.13,1,3.21,2.87,3.21a2.51,2.51,0,0,0,2.65-2.55c0-1.83-.93-2.64-2.5-3.11l-1.91-.66c-2.55-1-3.65-2.3-3.65-4.8,0-3.19,2.18-4.95,5.44-4.95,4.48,0,5,2.79,5,4.6v.4h-2.8v-.37c0-1.59-.68-2.53-2.45-2.53a2.24,2.24,0,0,0-2.35,2.53c0,1.49.76,2.25,2.62,3l1.89.69c2.47.88,3.55,2.2,3.55,4.63,0,3.73-2.25,5.27-5.78,5.27-4.34,0-5.32-2.89-5.32-5.34V71Z" fill="#3b4351"/><path d="M1299.12,58.9h9.46v2.35h-6.66V66.1h6.27v2.36h-6.27V74h6.86V76.4h-9.66Z" fill="#3b4351"/><path d="M1310.59,58.9h2.79V74h6.77V76.4h-9.56Z" fill="#3b4351"/><path d="M1323.38,71.13V72c0,1.42.29,2.64,1.86,2.64,1.86,0,1.86-1.71,1.86-3.48V58.9h2.8V71.57c0,3.87-1.92,5.17-4.71,5.17-3.6,0-4.39-2.2-4.46-4.48V71.13Z" fill="#3b4351"/><path d="M1335.23,58.9V71.45c0,2.23.89,3.18,2.58,3.18s2.55-.95,2.55-3.18V58.9h2.79V71.23c0,4-2,5.51-5.34,5.51s-5.37-1.47-5.37-5.51V58.9Z" fill="#3b4351"/><path d="M1345.82,58.9h2.79v7.62h.05L1354,58.9H1357l-5,7.38,5.59,10.12h-3.17l-4.23-7.87-1.55,2.21V76.4h-2.79Z" fill="#3b4351"/><path d="M1366.37,61.25h-4.16V58.9h11v2.35h-4.09V76.4h-2.8Z" fill="#3b4351"/><path d="M1377.42,58.9V71.45c0,2.23.89,3.18,2.58,3.18s2.55-.95,2.55-3.18V58.9h2.79V71.23c0,4-2,5.51-5.34,5.51s-5.37-1.47-5.37-5.51V58.9Z" fill="#3b4351"/><path d="M1388,58.9h6.17c2.45,0,4.44,1.25,4.44,4.51,0,2.25-1,4-2.92,4.29v0c1.77.17,2.65,1.12,2.75,3.57,0,1.16,0,2.5.09,3.56a1.92,1.92,0,0,0,.84,1.52h-3.16a2.93,2.93,0,0,1-.47-1.55c0-.51-.07-1-.07-1.56s0-1.11,0-1.75c-.08-1.91-.66-2.74-2.55-2.74h-2.28v7.6H1388Zm5,7.79a2.58,2.58,0,0,0,2.79-2.84c0-1.86-.78-2.84-2.64-2.84h-2.38v5.68Z" fill="#3b4351"/><path d="M1401.16,58.9h2.8v7.62h0l5.29-7.62h3.06l-5,7.38,5.59,10.12h-3.16l-4.24-7.87L1404,70.74V76.4h-2.8Z" fill="#3b4351"/><path d="M1416,71v.44c0,2.13,1,3.21,2.87,3.21a2.51,2.51,0,0,0,2.65-2.55c0-1.83-.93-2.64-2.5-3.11l-1.91-.66c-2.55-1-3.65-2.3-3.65-4.8,0-3.19,2.18-4.95,5.44-4.95,4.48,0,5,2.79,5,4.6v.4h-2.8v-.37c0-1.59-.68-2.53-2.45-2.53a2.24,2.24,0,0,0-2.35,2.53c0,1.49.76,2.25,2.62,3l1.89.69c2.47.88,3.55,2.2,3.55,4.63,0,3.73-2.25,5.27-5.78,5.27-4.34,0-5.32-2.89-5.32-5.34V71Z" fill="#3b4351"/></g><g id="Holy_Roman_Empire_to_Austria" data-name="Holy Roman Empire to Austria"><path d="M562.13,46.53h2.79v7h5.15v-7h2.79V64h-2.79V55.89h-5.15V64h-2.79Z" fill="#3b4351"/><path d="M575.07,57.43c0-4.12,1.07-6.93,4.9-6.93s4.92,2.81,4.92,6.93-1.27,6.94-4.92,6.94S575.07,61.55,575.07,57.43Zm4.9,5c1.93,0,2.28-1.62,2.28-5,0-2.92-.35-5-2.28-5s-2.26,2-2.26,5C577.71,60.79,578.08,62.41,580,62.41Z" fill="#3b4351"/><path d="M587.05,46.53h2.64V64h-2.64Z" fill="#3b4351"/><path d="M594.13,50.84l2.28,9.9h0l2.11-9.9h2.77L597.7,64.51c-1.05,3.61-1.86,4.1-4.6,4a4.76,4.76,0,0,1-1.06-.1v-2.1a3.65,3.65,0,0,0,.86.09c.91,0,1.5-.17,1.79-1l.34-1.07-3.75-13.48Z" fill="#3b4351"/><path d="M608.85,46.53H615c2.45,0,4.43,1.25,4.43,4.5,0,2.26-1,4-2.91,4.29v0c1.76.17,2.64,1.13,2.74,3.58,0,1.15,0,2.5.1,3.55a1.89,1.89,0,0,0,.83,1.52h-3.16a3,3,0,0,1-.47-1.54c0-.52-.07-1.06-.07-1.57s0-1.1,0-1.74c-.07-1.91-.66-2.74-2.55-2.74h-2.28V64h-2.79Zm5,7.79a2.58,2.58,0,0,0,2.8-2.84c0-1.87-.79-2.85-2.65-2.85h-2.38v5.69Z" fill="#3b4351"/><path d="M621.32,57.43c0-4.12,1.08-6.93,4.9-6.93s4.93,2.81,4.93,6.93-1.28,6.94-4.93,6.94S621.32,61.55,621.32,57.43Zm4.9,5c1.94,0,2.28-1.62,2.28-5,0-2.92-.34-5-2.28-5s-2.25,2-2.25,5C624,60.79,624.33,62.41,626.22,62.41Z" fill="#3b4351"/><path d="M633.3,50.84h2.5v1.54h.07A3.72,3.72,0,0,1,639,50.5a2.86,2.86,0,0,1,3.06,2,3.6,3.6,0,0,1,3.33-2c1.86,0,3.21,1,3.21,3.5V64H646V55c0-1.74-.52-2.38-1.6-2.38s-2.11.84-2.11,2.58V64h-2.64V55c0-1.74-.52-2.38-1.62-2.38s-2.08.86-2.08,2.58V64H633.3Z" fill="#3b4351"/><path d="M660,61.28c0,.49.29.93.68.93a1.24,1.24,0,0,0,.45-.07v1.71a2.86,2.86,0,0,1-1.3.32c-1.18,0-2.16-.47-2.23-1.74h0a3.41,3.41,0,0,1-3.29,1.94c-2.13,0-3.43-1.16-3.43-3.71,0-2.94,1.3-3.55,3.07-4.14l2.06-.56c1-.27,1.54-.54,1.54-1.69s-.42-2-1.81-2c-1.77,0-2,1.25-2,2.52h-2.5c0-2.82,1.15-4.33,4.63-4.33,2.33,0,4.19.9,4.19,3.23Zm-2.5-4.22a20.5,20.5,0,0,1-2.94,1.23,2.17,2.17,0,0,0-1.08,2.13c0,1.1.54,2,1.64,2,1.6,0,2.38-1.18,2.38-3.14Z" fill="#3b4351"/><path d="M662.65,50.84h2.5v1.54h.07a3.81,3.81,0,0,1,3.39-1.88c2,0,3.28.9,3.28,3.57V64h-2.65V55c0-1.76-.46-2.38-1.83-2.38-1.08,0-2.11.81-2.11,2.58V64h-2.65Z" fill="#3b4351"/><path d="M680.49,46.53H690v2.35h-6.67v4.85h6.27v2.35h-6.27v5.59h6.86V64h-9.65Z" fill="#3b4351"/><path d="M692.22,50.84h2.5v1.54h.08A3.69,3.69,0,0,1,698,50.5a2.86,2.86,0,0,1,3.06,2,3.6,3.6,0,0,1,3.33-2c1.87,0,3.21,1,3.21,3.5V64h-2.64V55c0-1.74-.52-2.38-1.6-2.38s-2.1.84-2.1,2.58V64h-2.65V55c0-1.74-.52-2.38-1.62-2.38s-2.08.86-2.08,2.58V64h-2.65Z" fill="#3b4351"/><path d="M715.91,64.37a3,3,0,0,1-3-1.89h0v5.86h-2.65V50.84h2.5v1.62h0a3.1,3.1,0,0,1,3-2c3,0,4.24,2.57,4.24,7.1C720,63.14,717.75,64.37,715.91,64.37ZM715,52.6c-1.81,0-2.23,1.84-2.23,4.68,0,3.16.39,5,2.25,5,1.5,0,2.21-1.13,2.21-4.78C717.19,54.49,716.82,52.6,715,52.6Z" fill="#3b4351"/><path d="M722.14,46.33h2.64V49h-2.64Zm0,4.51h2.64V64h-2.64Z" fill="#3b4351"/><path d="M727.45,50.84h2.65V52.9h0a3.26,3.26,0,0,1,3.06-2.4,1.61,1.61,0,0,1,.64.09v2.7a3.84,3.84,0,0,0-1.1-.15c-1.21,0-2.65.54-2.65,3V64h-2.65Z" fill="#3b4351"/><path d="M737.3,57.77v.76c0,1.77.22,4,2.21,4s2.1-2.13,2.1-2.94h2.5c0,3-1.76,4.76-4.63,4.76-2.15,0-4.82-.64-4.82-6.74,0-3.46.75-7.13,4.87-7.13,3.68,0,4.66,2.23,4.66,5.88v1.39ZM741.54,56v-.71c0-1.67-.54-2.94-2-2.94-1.67,0-2.21,1.66-2.21,3.38V56Z" fill="#3b4351"/></g></g></svg>