<svg xmlns="http://www.w3.org/2000/svg" viewBox="0 0 1847.91 111"><title>ce1000text</title><g id="YEARS"><g id="Right"><path d="M1793.07,61.33h3.8l4.89,18.57h-3.1l-1.14-4.55h-5.44l-1.19,4.55h-3.1ZM1797,73l-2.13-9.15h-.05L1792.63,73Z"/><path d="M1803.16,76.46h3V79.9h-3Z"/><path d="M1809.29,61.33h5.28c5.83,0,6.55,3.8,6.55,9.29s-.72,9.28-6.55,9.28h-5.28Zm3,16.33h2.44c2.45,0,3.46-1.61,3.46-7,0-5.23-.88-7.05-3.46-7.05h-2.44Z"/><path d="M1822.81,76.46h3V79.9h-3Z"/><path d="M1788.14,104.9V91.53h-3.82V89.61h.29c1.77,0,3.79-.44,4.34-2.76v-.36h2.16V104.9Z"/><path d="M1799.19,100.79c0,1.07.52,2.39,2,2.39,2.78,0,2.94-3.64,2.94-6.34l-.08,0a3.78,3.78,0,0,1-3.59,1.94c-2.52,0-4.55-1.82-4.55-5.48,0-4.24,1.72-6.76,5.64-6.76,4.66,0,5.54,3.53,5.54,8.81,0,5.51-1,10-5.88,10-3.25,0-5-1.43-5-4.47Zm2.11-12.22c-1.8,0-2.45,1.79-2.45,4,0,2.57.76,4,2.45,4,2.18,0,2.55-1.9,2.55-4.11S1803,88.57,1801.3,88.57Z"/><path d="M1808.55,99.93h2.81v.49a2.36,2.36,0,0,0,2.42,2.61c2.08,0,2.62-2,2.62-4.19s-.57-3.93-2.47-3.93a2.35,2.35,0,0,0-2.41,1.69l-2.63-.1.91-9.65h8.87v2.37H1812l-.6,4.83,0,.06a4.08,4.08,0,0,1,3.1-1.43c3.85,0,4.81,3.25,4.81,6.08,0,3.69-1.69,6.5-5.67,6.5-3.3,0-5.15-1.69-5.15-4.94Z"/><path d="M1826.44,86.49c3.54,0,5.51,2.21,5.51,9.38s-2,9.39-5.51,9.39-5.51-2.21-5.51-9.39S1822.9,86.49,1826.44,86.49Zm0,16.69c2,0,2.55-2,2.55-7.31s-.55-7.3-2.55-7.3-2.55,2-2.55,7.3S1824.44,103.18,1826.44,103.18Z"/></g><g id="Layer_34" data-name="Layer 34"><path d="M33.32,64.93h3.8L42,83.49h-3.1l-1.14-4.55H32.33l-1.19,4.55H28Zm4,11.65-2.13-9.15h0l-2.21,9.15Z"/><path d="M43.41,80.06h3v3.43h-3Z"/><path d="M49.54,64.93h5.28c5.83,0,6.55,3.8,6.55,9.28s-.72,9.28-6.55,9.28H49.54Zm3,16.33H55c2.45,0,3.46-1.61,3.46-7.05,0-5.22-.88-7-3.46-7H52.51Z"/><path d="M63.06,80.06h3v3.43h-3Z"/><path d="M28.39,108.49V95.13H24.57V93.21h.29c1.77,0,3.79-.45,4.34-2.76v-.36h2.16v18.4Z"/><path d="M39.44,104.39c0,1.06.52,2.39,2,2.39,2.78,0,2.94-3.64,2.94-6.35l-.08-.05a3.77,3.77,0,0,1-3.59,2c-2.52,0-4.55-1.82-4.55-5.48,0-4.24,1.72-6.76,5.64-6.76,4.66,0,5.54,3.53,5.54,8.81,0,5.51-1,10-5.87,10-3.25,0-5-1.43-5-4.47Zm2.11-12.22c-1.8,0-2.44,1.79-2.44,4,0,2.57.75,4,2.44,4,2.18,0,2.55-1.9,2.55-4.11S43.29,92.17,41.55,92.17Z"/><path d="M48.8,103.53h2.81V104a2.35,2.35,0,0,0,2.42,2.6c2.08,0,2.63-2,2.63-4.18s-.58-3.93-2.48-3.93a2.35,2.35,0,0,0-2.41,1.69l-2.63-.1.91-9.65h8.87v2.37H52.26l-.6,4.83.05,0a4.08,4.08,0,0,1,3.1-1.43c3.85,0,4.81,3.25,4.81,6.09,0,3.69-1.69,6.5-5.67,6.5-3.3,0-5.15-1.69-5.15-4.94Z"/><path d="M66.69,90.09c3.54,0,5.51,2.2,5.51,9.38s-2,9.39-5.51,9.39-5.51-2.21-5.51-9.39S63.15,90.09,66.69,90.09Zm0,16.69c2,0,2.55-2,2.55-7.31s-.55-7.3-2.55-7.3-2.55,2-2.55,7.3S64.69,106.78,66.69,106.78Z"/></g></g></svg>