<svg xmlns="http://www.w3.org/2000/svg" viewBox="0 0 1847.91 108"><title>ce1050text</title><g id="YEARS"><g id="Right"><path d="M1787.21,102.56V89.2h-3.82V87.27h.29c1.77,0,3.79-.44,4.34-2.75v-.37h2.16v18.41Z" fill="#3b4351"/><path d="M1800.55,84.15c3.54,0,5.51,2.21,5.51,9.39s-2,9.39-5.51,9.39-5.51-2.21-5.51-9.39S1797,84.15,1800.55,84.15Zm0,16.7c2,0,2.55-2,2.55-7.31s-.55-7.31-2.55-7.31-2.55,2-2.55,7.31S1798.55,100.85,1800.55,100.85Z" fill="#3b4351"/><path d="M1807.62,97.6h2.81v.49a2.35,2.35,0,0,0,2.42,2.6c2.08,0,2.63-2,2.63-4.19s-.58-3.92-2.48-3.92a2.34,2.34,0,0,0-2.41,1.69l-2.63-.11.91-9.64h8.87v2.36h-6.66l-.6,4.84,0,0a4.08,4.08,0,0,1,3.1-1.43c3.85,0,4.81,3.25,4.81,6.09,0,3.69-1.69,6.5-5.67,6.5-3.3,0-5.15-1.69-5.15-4.94Z" fill="#3b4351"/><path d="M1825.51,84.15c3.54,0,5.51,2.21,5.51,9.39s-2,9.39-5.51,9.39-5.51-2.21-5.51-9.39S1822,84.15,1825.51,84.15Zm0,16.7c2,0,2.55-2,2.55-7.31s-.55-7.31-2.55-7.31-2.55,2-2.55,7.31S1823.51,100.85,1825.51,100.85Z" fill="#3b4351"/></g><g id="left"><path d="M17.46,106.16V92.8H13.64V90.87h.29c1.77,0,3.79-.44,4.34-2.75v-.37h2.16v18.41Z" fill="#3b4351"/><path d="M30.8,87.75c3.54,0,5.51,2.21,5.51,9.39s-2,9.39-5.51,9.39-5.51-2.22-5.51-9.39S27.27,87.75,30.8,87.75Zm0,16.7c2,0,2.55-2,2.55-7.31s-.55-7.31-2.55-7.31-2.55,2-2.55,7.31S28.8,104.45,30.8,104.45Z" fill="#3b4351"/><path d="M37.87,101.2h2.81v.49a2.35,2.35,0,0,0,2.42,2.6c2.08,0,2.63-2,2.63-4.19s-.58-3.92-2.48-3.92a2.34,2.34,0,0,0-2.41,1.69l-2.63-.11.91-9.64H48v2.36H41.33l-.6,4.84.06.05a4,4,0,0,1,3.09-1.43c3.85,0,4.81,3.25,4.81,6.09,0,3.69-1.69,6.5-5.67,6.5-3.3,0-5.15-1.7-5.15-5Z" fill="#3b4351"/><path d="M55.76,87.75c3.54,0,5.51,2.21,5.51,9.39s-2,9.39-5.51,9.39-5.51-2.22-5.51-9.39S52.22,87.75,55.76,87.75Zm0,16.7c2,0,2.55-2,2.55-7.31s-.55-7.31-2.55-7.31-2.55,2-2.55,7.31S53.76,104.45,55.76,104.45Z" fill="#3b4351"/></g></g><g id="Text"><g id="Normandy"><path d="M169.86,52.5h3.41l5.07,13h0v-13H181V70h-3.41l-5.07-13.38h-.05V70h-2.65Z" fill="#3b4351"/><path d="M183.51,61.25c0-6.25,1.76-9.09,5.78-9.09s5.79,2.84,5.79,9.09-1.77,9.09-5.79,9.09S183.51,67.5,183.51,61.25Zm8.77-.08c0-5.88-1.32-6.91-3-6.91s-3,1-3,6.91,1.33,7.06,3,7.06S192.28,67.18,192.28,61.17Z" fill="#3b4351"/><path d="M197.55,52.5h6.17c2.45,0,4.44,1.25,4.44,4.51,0,2.25-1,4-2.92,4.29v.05c1.77.17,2.65,1.12,2.75,3.57,0,1.16,0,2.5.1,3.56a1.91,1.91,0,0,0,.83,1.52h-3.16a3,3,0,0,1-.47-1.55c0-.51-.07-1-.07-1.57s0-1.1-.05-1.74c-.07-1.91-.66-2.74-2.55-2.74h-2.28V70h-2.79Zm5,7.79a2.58,2.58,0,0,0,2.8-2.84c0-1.86-.79-2.84-2.65-2.84h-2.38v5.68Z" fill="#3b4351"/><path d="M210.7,52.5h4.37l3.08,13h0l3-13h4.27V70h-2.65V55.44h-.05L219.28,70h-2.35L213.4,55.44h-.05V70H210.7Z" fill="#3b4351"/><path d="M231.7,52.5h3.58L239.89,70H237l-1.08-4.29h-5.12L229.64,70h-2.91Zm3.73,11-2-8.63h0l-2.09,8.63Z" fill="#3b4351"/><path d="M241.11,52.5h3.4l5.08,13h0v-13h2.64V70h-3.4L243.8,56.62h-.05V70h-2.64Z" fill="#3b4351"/><path d="M255.17,52.5h5c5.49,0,6.17,3.58,6.17,8.75S265.64,70,260.15,70h-5ZM258,67.89h2.31c2.3,0,3.26-1.52,3.26-6.64,0-4.93-.84-6.64-3.26-6.64H258Z" fill="#3b4351"/><path d="M271.32,63.16,266.81,52.5h3.11l2.94,7.55,3-7.55h2.91l-4.68,10.66V70h-2.79Z" fill="#3b4351"/></g><g id="Turks"><path d="M1288.56,71v.44c0,2.13,1,3.21,2.87,3.21a2.51,2.51,0,0,0,2.65-2.55c0-1.83-.93-2.64-2.5-3.11l-1.91-.66c-2.55-1-3.65-2.3-3.65-4.8,0-3.19,2.18-4.95,5.44-4.95,4.48,0,5,2.79,5,4.6v.4h-2.8v-.37c0-1.59-.68-2.53-2.45-2.53a2.24,2.24,0,0,0-2.35,2.53c0,1.49.76,2.25,2.62,3l1.89.69c2.47.88,3.55,2.2,3.55,4.63,0,3.73-2.25,5.27-5.78,5.27-4.34,0-5.32-2.89-5.32-5.34V71Z" fill="#3b4351"/><path d="M1299.12,58.9h9.46v2.35h-6.66V66.1h6.27v2.36h-6.27V74h6.86V76.4h-9.66Z" fill="#3b4351"/><path d="M1310.59,58.9h2.79V74h6.77V76.4h-9.56Z" fill="#3b4351"/><path d="M1323.38,71.13V72c0,1.42.29,2.64,1.86,2.64,1.86,0,1.86-1.71,1.86-3.48V58.9h2.8V71.57c0,3.87-1.92,5.17-4.71,5.17-3.6,0-4.39-2.2-4.46-4.48V71.13Z" fill="#3b4351"/><path d="M1335.23,58.9V71.45c0,2.23.89,3.18,2.58,3.18s2.55-.95,2.55-3.18V58.9h2.79V71.23c0,4-2,5.51-5.34,5.51s-5.37-1.47-5.37-5.51V58.9Z" fill="#3b4351"/><path d="M1345.82,58.9h2.79v7.62h.05L1354,58.9H1357l-5,7.38,5.59,10.12h-3.17l-4.23-7.87-1.55,2.21V76.4h-2.79Z" fill="#3b4351"/><path d="M1366.37,61.25h-4.16V58.9h11v2.35h-4.09V76.4h-2.8Z" fill="#3b4351"/><path d="M1377.42,58.9V71.45c0,2.23.89,3.18,2.58,3.18s2.55-.95,2.55-3.18V58.9h2.79V71.23c0,4-2,5.51-5.34,5.51s-5.37-1.47-5.37-5.51V58.9Z" fill="#3b4351"/><path d="M1388,58.9h6.17c2.45,0,4.44,1.25,4.44,4.51,0,2.25-1,4-2.92,4.29v0c1.77.17,2.65,1.12,2.75,3.57,0,1.16,0,2.5.09,3.56a1.92,1.92,0,0,0,.84,1.52h-3.16a2.93,2.93,0,0,1-.47-1.55c0-.51-.07-1-.07-1.56s0-1.11,0-1.75c-.08-1.91-.66-2.74-2.55-2.74h-2.28v7.6H1388Zm5,7.79a2.58,2.58,0,0,0,2.79-2.84c0-1.86-.78-2.84-2.64-2.84h-2.38v5.68Z" fill="#3b4351"/><path d="M1401.16,58.9h2.8v7.62h0l5.29-7.62h3.06l-5,7.38,5.59,10.12h-3.16l-4.24-7.87L1404,70.74V76.4h-2.8Z" fill="#3b4351"/><path d="M1416,71v.44c0,2.13,1,3.21,2.87,3.21a2.51,2.51,0,0,0,2.65-2.55c0-1.83-.93-2.64-2.5-3.11l-1.91-.66c-2.55-1-3.65-2.3-3.65-4.8,0-3.19,2.18-4.95,5.44-4.95,4.48,0,5,2.79,5,4.6v.4h-2.8v-.37c0-1.59-.68-2.53-2.45-2.53a2.24,2.24,0,0,0-2.35,2.53c0,1.49.76,2.25,2.62,3l1.89.69c2.47.88,3.55,2.2,3.55,4.63,0,3.73-2.25,5.27-5.78,5.27-4.34,0-5.32-2.89-5.32-5.34V71Z" fill="#3b4351"/></g><g id="Holy_Roman_Empire_to_Austria" data-name="Holy Roman Empire to Austria"><path d="M562.13,46.53h2.79v7h5.15v-7h2.79V64h-2.79V55.89h-5.15V64h-2.79Z" fill="#3b4351"/><path d="M575.07,57.43c0-4.12,1.07-6.93,4.9-6.93s4.92,2.81,4.92,6.93-1.27,6.94-4.92,6.94S575.07,61.55,575.07,57.43Zm4.9,5c1.93,0,2.28-1.62,2.28-5,0-2.92-.35-5-2.28-5s-2.26,2-2.26,5C577.71,60.79,578.08,62.41,580,62.41Z" fill="#3b4351"/><path d="M587.05,46.53h2.64V64h-2.64Z" fill="#3b4351"/><path d="M594.13,50.84l2.28,9.9h0l2.11-9.9h2.77L597.7,64.51c-1.05,3.61-1.86,4.1-4.6,4a4.76,4.76,0,0,1-1.06-.1v-2.1a3.65,3.65,0,0,0,.86.09c.91,0,1.5-.17,1.79-1l.34-1.07-3.75-13.48Z" fill="#3b4351"/><path d="M608.85,46.53H615c2.45,0,4.43,1.25,4.43,4.5,0,2.26-1,4-2.91,4.29v0c1.76.17,2.64,1.13,2.74,3.58,0,1.15,0,2.5.1,3.55a1.89,1.89,0,0,0,.83,1.52h-3.16a3,3,0,0,1-.47-1.54c0-.52-.07-1.06-.07-1.57s0-1.1,0-1.74c-.07-1.91-.66-2.74-2.55-2.74h-2.28V64h-2.79Zm5,7.79a2.58,2.58,0,0,0,2.8-2.84c0-1.87-.79-2.85-2.65-2.85h-2.38v5.69Z" fill="#3b4351"/><path d="M621.32,57.43c0-4.12,1.08-6.93,4.9-6.93s4.93,2.81,4.93,6.93-1.28,6.94-4.93,6.94S621.32,61.55,621.32,57.43Zm4.9,5c1.94,0,2.28-1.62,2.28-5,0-2.92-.34-5-2.28-5s-2.25,2-2.25,5C624,60.79,624.33,62.41,626.22,62.41Z" fill="#3b4351"/><path d="M633.3,50.84h2.5v1.54h.07A3.72,3.72,0,0,1,639,50.5a2.86,2.86,0,0,1,3.06,2,3.6,3.6,0,0,1,3.33-2c1.86,0,3.21,1,3.21,3.5V64H646V55c0-1.74-.52-2.38-1.6-2.38s-2.11.84-2.11,2.58V64h-2.64V55c0-1.74-.52-2.38-1.62-2.38s-2.08.86-2.08,2.58V64H633.3Z" fill="#3b4351"/><path d="M660,61.28c0,.49.29.93.68.93a1.24,1.24,0,0,0,.45-.07v1.71a2.86,2.86,0,0,1-1.3.32c-1.18,0-2.16-.47-2.23-1.74h0a3.41,3.41,0,0,1-3.29,1.94c-2.13,0-3.43-1.16-3.43-3.71,0-2.94,1.3-3.55,3.07-4.14l2.06-.56c1-.27,1.54-.54,1.54-1.69s-.42-2-1.81-2c-1.77,0-2,1.25-2,2.52h-2.5c0-2.82,1.15-4.33,4.63-4.33,2.33,0,4.19.9,4.19,3.23Zm-2.5-4.22a20.5,20.5,0,0,1-2.94,1.23,2.17,2.17,0,0,0-1.08,2.13c0,1.1.54,2,1.64,2,1.6,0,2.38-1.18,2.38-3.14Z" fill="#3b4351"/><path d="M662.65,50.84h2.5v1.54h.07a3.81,3.81,0,0,1,3.39-1.88c2,0,3.28.9,3.28,3.57V64h-2.65V55c0-1.76-.46-2.38-1.83-2.38-1.08,0-2.11.81-2.11,2.58V64h-2.65Z" fill="#3b4351"/><path d="M680.49,46.53H690v2.35h-6.67v4.85h6.27v2.35h-6.27v5.59h6.86V64h-9.65Z" fill="#3b4351"/><path d="M692.22,50.84h2.5v1.54h.08A3.69,3.69,0,0,1,698,50.5a2.86,2.86,0,0,1,3.06,2,3.6,3.6,0,0,1,3.33-2c1.87,0,3.21,1,3.21,3.5V64h-2.64V55c0-1.74-.52-2.38-1.6-2.38s-2.1.84-2.1,2.58V64h-2.65V55c0-1.74-.52-2.38-1.62-2.38s-2.08.86-2.08,2.58V64h-2.65Z" fill="#3b4351"/><path d="M715.91,64.37a3,3,0,0,1-3-1.89h0v5.86h-2.65V50.84h2.5v1.62h0a3.1,3.1,0,0,1,3-2c3,0,4.24,2.57,4.24,7.1C720,63.14,717.75,64.37,715.91,64.37ZM715,52.6c-1.81,0-2.23,1.84-2.23,4.68,0,3.16.39,5,2.25,5,1.5,0,2.21-1.13,2.21-4.78C717.19,54.49,716.82,52.6,715,52.6Z" fill="#3b4351"/><path d="M722.14,46.33h2.64V49h-2.64Zm0,4.51h2.64V64h-2.64Z" fill="#3b4351"/><path d="M727.45,50.84h2.65V52.9h0a3.26,3.26,0,0,1,3.06-2.4,1.61,1.61,0,0,1,.64.09v2.7a3.84,3.84,0,0,0-1.1-.15c-1.21,0-2.65.54-2.65,3V64h-2.65Z" fill="#3b4351"/><path d="M737.3,57.77v.76c0,1.77.22,4,2.21,4s2.1-2.13,2.1-2.94h2.5c0,3-1.76,4.76-4.63,4.76-2.15,0-4.82-.64-4.82-6.74,0-3.46.75-7.13,4.87-7.13,3.68,0,4.66,2.23,4.66,5.88v1.39ZM741.54,56v-.71c0-1.67-.54-2.94-2-2.94-1.67,0-2.21,1.66-2.21,3.38V56Z" fill="#3b4351"/></g></g></svg>