<svg xmlns="http://www.w3.org/2000/svg" viewBox="0 0 1847.91 111"><title>ce1150text</title><g id="Text"><g id="Indians"><path d="M1505.57,90.66h2.8v17.5h-2.8Z"/><path d="M1511.13,90.66h3.41l5.07,13h.05v-13h2.65v17.5h-3.41l-5.07-13.38h0v13.38h-2.65Z"/><path d="M1525.2,90.66h5c5.49,0,6.18,3.58,6.18,8.75s-.69,8.75-6.18,8.75h-5Zm2.79,15.39h2.3c2.31,0,3.26-1.52,3.26-6.64,0-4.93-.83-6.64-3.26-6.64H1528Z"/><path d="M1538.7,90.66h2.79v17.5h-2.79Z"/><path d="M1547.56,90.66h3.58l4.61,17.5h-2.92l-1.07-4.29h-5.13l-1.12,4.29h-2.92Zm3.73,11-2-8.63h0l-2.08,8.63Z"/></g><g id="Chinese"><path d="M1655.16,31.5H1658v7.62h0l5.29-7.62h3.06l-5,7.37L1666.89,49h-3.16l-4.24-7.86-1.54,2.2V49h-2.79Z"/><path d="M1667.82,31.3h2.65V34h-2.65Zm0,4.51h2.65V49h-2.65Z"/><path d="M1673.14,35.81h2.5v1.54h.07a3.79,3.79,0,0,1,3.38-1.89c2,0,3.29.91,3.29,3.58V49h-2.65V40c0-1.76-.46-2.38-1.84-2.38-1.08,0-2.11.81-2.11,2.58V49h-2.64Z"/><path d="M1691,31.5h5c5.49,0,6.17,3.57,6.17,8.74S1701.44,49,1696,49h-5Zm2.8,15.38h2.3c2.3,0,3.26-1.51,3.26-6.64,0-4.92-.83-6.64-3.26-6.64h-2.3Z"/><path d="M1706.19,35.81l2.28,9.9h0l2.1-9.9h2.77l-3.62,13.67c-1.06,3.6-1.87,4.1-4.61,4a4.62,4.62,0,0,1-1.05-.1V51.3a3.51,3.51,0,0,0,.85.09c.91,0,1.5-.17,1.79-1l.35-1.08-3.75-13.48Z"/><path d="M1714.86,35.81h2.5v1.54h.07a3.82,3.82,0,0,1,3.39-1.89c2,0,3.28.91,3.28,3.58V49h-2.65V40c0-1.76-.46-2.38-1.83-2.38-1.08,0-2.11.81-2.11,2.58V49h-2.65Z"/><path d="M1735.3,46.25c0,.49.29.93.68.93a1.14,1.14,0,0,0,.44-.07v1.71a2.83,2.83,0,0,1-1.3.32c-1.17,0-2.15-.47-2.23-1.74h0a3.41,3.41,0,0,1-3.29,1.94c-2.13,0-3.43-1.16-3.43-3.71,0-2.94,1.3-3.55,3.06-4.14l2.06-.56c1-.27,1.55-.54,1.55-1.69s-.42-2-1.82-2c-1.76,0-2,1.25-2,2.52h-2.5c0-2.82,1.16-4.34,4.64-4.34,2.32,0,4.19.91,4.19,3.24ZM1732.8,42a21,21,0,0,1-2.94,1.23,2.17,2.17,0,0,0-1.08,2.13c0,1.1.54,2,1.64,2,1.59,0,2.38-1.17,2.38-3.13Z"/><path d="M1743.67,39.66v-.35c0-1.05-.36-2-1.74-2-1,0-1.88.46-1.88,1.71,0,1.06.46,1.45,1.86,1.94l1.69.59c2,.66,2.87,1.71,2.87,3.8,0,2.81-2.08,4-4.73,4-3.33,0-4.34-1.55-4.34-4.1v-.49h2.35v.42c0,1.54.52,2.35,2.06,2.35s2.16-.73,2.16-1.93a1.91,1.91,0,0,0-1.45-1.94l-2.15-.76c-2-.66-2.82-1.69-2.82-3.8,0-2.47,1.76-3.63,4.51-3.63,3.35,0,4.11,2,4.11,3.61v.59Z"/><path d="M1747.25,35.81h1.81V32.06h2.65v3.75h2.16v2h-2.16v7.86c0,1.06.29,1.4,1.2,1.4a5.1,5.1,0,0,0,1-.07v2a8.58,8.58,0,0,1-2.14.22c-1.76,0-2.67-.52-2.67-3.19V37.77h-1.81Z"/><path d="M1757,35.81l2.28,9.9h0l2.11-9.9h2.77l-3.63,13.67c-1,3.6-1.86,4.1-4.61,4a4.67,4.67,0,0,1-1-.1V51.3a3.54,3.54,0,0,0,.86.09c.9,0,1.49-.17,1.78-1l.35-1.08-3.75-13.48Z"/></g></g><g id="YEARS"><g id="Right"><path d="M1788.27,110.23V96.87h-3.82V94.94h.28c1.77,0,3.8-.44,4.35-2.76v-.36h2.15v18.41Z"/><path d="M1800.75,110.23V96.87h-3.82V94.94h.28c1.77,0,3.8-.44,4.35-2.76v-.36h2.15v18.41Z"/><path d="M1808.68,105.26h2.81v.5a2.35,2.35,0,0,0,2.42,2.6c2.08,0,2.62-2,2.62-4.19s-.57-3.92-2.47-3.92a2.35,2.35,0,0,0-2.42,1.69l-2.62-.11.91-9.65h8.86v2.37h-6.65l-.6,4.84,0,0a4.06,4.06,0,0,1,3.09-1.43c3.85,0,4.82,3.25,4.82,6.08,0,3.7-1.69,6.5-5.67,6.5-3.31,0-5.15-1.69-5.15-4.94Z"/><path d="M1826.57,91.82c3.53,0,5.51,2.21,5.51,9.39s-2,9.38-5.51,9.38-5.52-2.21-5.52-9.38S1823,91.82,1826.57,91.82Zm0,16.69c2,0,2.54-2,2.54-7.3s-.54-7.31-2.54-7.31-2.55,2-2.55,7.31S1824.56,108.51,1826.57,108.51Z"/></g><g id="Layer_34" data-name="Layer 34"><path d="M28.52,113.83V100.46H24.7V98.54H25c1.77,0,3.8-.44,4.35-2.76v-.36h2.16v18.41Z"/><path d="M41,113.83V100.46H37.18V98.54h.28c1.77,0,3.8-.44,4.35-2.76v-.36H44v18.41Z"/><path d="M48.93,108.86h2.81v.5a2.35,2.35,0,0,0,2.42,2.6c2.08,0,2.62-2,2.62-4.19s-.57-3.93-2.47-3.93a2.36,2.36,0,0,0-2.42,1.69l-2.62-.1.91-9.65H59v2.37H52.39l-.6,4.83.05.06a4.06,4.06,0,0,1,3.1-1.43c3.84,0,4.81,3.25,4.81,6.08,0,3.69-1.69,6.5-5.67,6.5-3.3,0-5.15-1.69-5.15-4.94Z"/><path d="M66.82,95.42c3.53,0,5.51,2.21,5.51,9.38s-2,9.39-5.51,9.39S61.3,112,61.3,104.8,63.28,95.42,66.82,95.42Zm0,16.69c2,0,2.55-2,2.55-7.31s-.55-7.3-2.55-7.3-2.55,2-2.55,7.3S64.82,112.11,66.82,112.11Z"/></g></g></svg>