<svg xmlns="http://www.w3.org/2000/svg" viewBox="0 0 1847.91 117"><title>ce1100text</title><g id="YEARS"><g id="Right"><path d="M1792.5,112.58V99.22h-3.82V97.29h.28c1.77,0,3.8-.44,4.35-2.75v-.37h2.15v18.41Z" fill="#3b4351"/><path d="M1805,112.58V99.22h-3.82V97.29h.28c1.77,0,3.8-.44,4.34-2.75v-.37h2.16v18.41Z" fill="#3b4351"/><path d="M1818.32,94.17c3.53,0,5.51,2.21,5.51,9.39s-2,9.39-5.51,9.39-5.52-2.21-5.52-9.39S1814.78,94.17,1818.32,94.17Zm0,16.7c2,0,2.54-2,2.54-7.31s-.54-7.31-2.54-7.31-2.55,2-2.55,7.31S1816.31,110.87,1818.32,110.87Z" fill="#3b4351"/><path d="M1830.8,94.17c3.53,0,5.51,2.21,5.51,9.39s-2,9.39-5.51,9.39-5.52-2.21-5.52-9.39S1827.26,94.17,1830.8,94.17Zm0,16.7c2,0,2.54-2,2.54-7.31s-.54-7.31-2.54-7.31-2.55,2-2.55,7.31S1828.79,110.87,1830.8,110.87Z" fill="#3b4351"/><path d="M1792.5.09V-13.27h-3.82V-15.2h.28c1.77,0,3.8-.44,4.35-2.75v-.37h2.15V.09Z" fill="#3b4351"/><path d="M1805.84-18.32c3.53,0,5.51,2.21,5.51,9.39s-2,9.39-5.51,9.39-5.52-2.21-5.52-9.39S1802.3-18.32,1805.84-18.32Zm0,16.7c2,0,2.54-2,2.54-7.31s-.54-7.31-2.54-7.31-2.55,2-2.55,7.31S1803.83-1.62,1805.84-1.62Z" fill="#3b4351"/><path d="M1812.91-4.87h2.81v.49a2.35,2.35,0,0,0,2.41,2.6c2.08,0,2.63-2,2.63-4.18s-.57-3.93-2.47-3.93a2.35,2.35,0,0,0-2.42,1.69l-2.62-.11.91-9.64H1823v2.36h-6.65l-.6,4.84,0,.05a4.06,4.06,0,0,1,3.09-1.43c3.85,0,4.81,3.25,4.81,6.09,0,3.69-1.69,6.5-5.66,6.5-3.31,0-5.15-1.69-5.15-4.94Z" fill="#3b4351"/><path d="M1830.8-18.32c3.53,0,5.51,2.21,5.51,9.39s-2,9.39-5.51,9.39-5.52-2.21-5.52-9.39S1827.26-18.32,1830.8-18.32Zm0,16.7c2,0,2.54-2,2.54-7.31s-.54-7.31-2.54-7.31-2.55,2-2.55,7.31S1828.79-1.62,1830.8-1.62Z" fill="#3b4351"/></g><g id="left"><path d="M17.46,114.49V101.12H13.64V99.2h.29c1.77,0,3.79-.44,4.34-2.75v-.37h2.16v18.41Z" fill="#3b4351"/><path d="M29.94,114.49V101.12H26.12V99.2h.29c1.77,0,3.79-.44,4.34-2.75v-.37h2.16v18.41Z" fill="#3b4351"/><path d="M43.28,96.08c3.54,0,5.51,2.21,5.51,9.39s-2,9.38-5.51,9.38-5.51-2.21-5.51-9.38S39.75,96.08,43.28,96.08Zm0,16.69c2,0,2.55-2,2.55-7.3s-.55-7.31-2.55-7.31-2.55,2-2.55,7.31S41.28,112.77,43.28,112.77Z" fill="#3b4351"/><path d="M55.76,96.08c3.54,0,5.51,2.21,5.51,9.39s-2,9.38-5.51,9.38-5.51-2.21-5.51-9.38S52.22,96.08,55.76,96.08Zm0,16.69c2,0,2.55-2,2.55-7.3s-.55-7.31-2.55-7.31-2.55,2-2.55,7.31S53.76,112.77,55.76,112.77Z" fill="#3b4351"/><path d="M17.46,2V-11.37H13.64v-1.92h.29c1.77,0,3.79-.44,4.34-2.75v-.37h2.16V2Z" fill="#3b4351"/><path d="M30.8-16.41c3.54,0,5.51,2.21,5.51,9.39s-2,9.38-5.51,9.38S25.29.15,25.29-7,27.27-16.41,30.8-16.41ZM30.8.28c2,0,2.55-2,2.55-7.3s-.55-7.31-2.55-7.31-2.55,2-2.55,7.31S28.8.28,30.8.28Z" fill="#3b4351"/><path d="M37.87-3h2.81v.5A2.35,2.35,0,0,0,43.1.13c2.08,0,2.63-2,2.63-4.19S45.15-8,43.25-8a2.34,2.34,0,0,0-2.41,1.69L38.21-6.4,39.12-16H48v2.36H41.33l-.6,4.84.06.05a4,4,0,0,1,3.09-1.43c3.85,0,4.81,3.25,4.81,6.08,0,3.69-1.69,6.5-5.67,6.5-3.3,0-5.15-1.69-5.15-4.94Z" fill="#3b4351"/><path d="M55.76-16.41c3.54,0,5.51,2.21,5.51,9.39s-2,9.38-5.51,9.38S50.25.15,50.25-7,52.22-16.41,55.76-16.41Zm0,16.69c2,0,2.55-2,2.55-7.3s-.55-7.31-2.55-7.31-2.55,2-2.55,7.31S53.76.28,55.76.28Z" fill="#3b4351"/></g></g><g id="Nation_OUtlines" data-name="Nation OUtlines"><polygon id="Romans" points="854.62 1016 829.93 903 711.95 794 764.62 680 729.95 565 845.28 454 1002.62 342 1065.29 228 1021.28 117 995.34 0 815.28 -108 703.28 -219 687.28 -334 737.95 -448 780.62 -560 712.62 -671 645.95 -785 550.62 -898 491.95 -1007.83 453.95 -1120.83 455.29 -1232.83 435.95 -1347.83 470.62 -1455.83 322.62 -1455.83 416.12 -1568.83 480.12 -1678.83 410.62 -1790.83 316.95 -1904.83 248.28 -2019.83 210.28 -2130.83 175.95 -2241.83 159.62 -2357.83 91.28 -2470.83 83.12 -2575.83 117.62 -2689.83 151.37 -2803.83 129.62 -2913.83 109.62 -3028.83 99.62 -3140.83 73.12 -3250.83 75.42 -4148.83 85.95 -4038.83 95.28 -3926.83 111.95 -3814.83 116.62 -3703.83 137.95 -3590.83 149.95 -3474.83 169.95 -3362.83 205.28 -3250.83 231.95 -3140.83 287.74 -3028.83 467.73 -2913.83 683.72 -2803.83 998.71 -2689.83 1118.7 -2575.83 1131.14 -2470.83 1195.2 -2357.83 1182.62 -2241.83 1245.62 -2130.83 1220.62 -2019.83 1122.62 -1904.83 981.62 -1790.83 880.12 -1678.83 717.95 -1568.83 593.62 -1455.83 616.62 -1347.83 717.28 -1232.83 839.28 -1117.99 863.28 -1007.83 915.28 -898 810.62 -785 885.95 -671 1037.95 -560 1125.95 -448 1253.95 -334 1213.95 -219 1202.62 -108 1169.95 0 1161.29 117 1218.62 228 1131.95 342 936.62 454 798.62 565 819.28 680 759.95 794 849.28 903 854.62 1016" fill="none" stroke="#3b4351" stroke-miterlimit="10"/><polygon id="Indians" points="1372.19 -4484.66 1294.19 -4598.83 1285.19 -4711.83 1313.69 -4822.83 1348.19 -4935.83 1310.69 -5049.83 1298.69 -5159.83 1313.69 -5271.83 1345.19 -5383.83 1325.69 -5497.83 1343.69 -5611.83 1417.19 -5722.83 1400.69 -5835.91 1429.19 -5948.83 1419.27 -6064.1 1387.19 -6175.83 1387.19 -6287.83 1438.19 -6398.33 1462.18 -6510.33 1480.18 -6623.37 1445.82 -6733.66 1411.11 -6845.66 1545.86 -6845.66 1580.1 -6733.66 1593.12 -6623.43 1552.12 -6510.33 1514.62 -6398.33 1514.12 -6288.16 1553.12 -6176.1 1548.12 -6063.83 1519.62 -5948.83 1534.12 -5835.16 1575.12 -5722.83 1559.62 -5611.83 1564.12 -5498.1 1534.62 -5383.83 1486.12 -5271.83 1465.12 -5159.83 1471.12 -5050.66 1502.12 -4936.66 1508.12 -4822.83 1534.62 -4711.83 1542.77 -4632.97 1555.62 -4484.66 1554.62 -4375.83 1567.12 -4263.83 1542.12 -4149.1 1498.12 -4038.83 1490.62 -3926.83 1513.12 -3814.83 1568.62 -3703.83 1544.12 -3590.83 1530.62 -3475.1 1523.62 -3363.1 1532.62 -3250.83 1565.12 -3140.83 1543.62 -3028.83 1514.12 -2913.83 1490.12 -2804.1 1495.62 -2689.83 1517.12 -2576.16 1528.12 -2470.83 1580.62 -2358.16 1578.12 -2242.16 1578.12 -2131.66 1560.12 -2020.1 1526.62 -1904.83 1467.62 -1790.83 1381.62 -1679.1 1270.62 -1568.83 1090.12 -1456.1 860.62 -1347.83 1302.12 -1232.83 1377.03 -1120.83 1550.62 -1007.83 1519.62 -898 1476.12 -785 1516.13 -671 1534.62 -558.66 1552.65 -448 1585.62 -334.1 1620.12 -219 1650.12 -108 1630.62 -0.1 1622.45 116.9 1565.62 228 1402.62 341.34 1173.62 454 1148.62 565 1334.62 680 1283.62 794 1344.62 903 1544.62 1016 1602.62 1130.34 1627.62 1242 1674.62 1354.9 1627.62 1470 1634.62 1582 1686.62 1694 1701.62 1807 1620.12 1919 1606.12 2030 1606.12 2143.83 1552.62 2143.83 1549.52 2030 1569.62 1919 1683.62 1807 1667.62 1694 1607.62 1582 1596.62 1469.34 1617.62 1355 1584.62 1242 1562.62 1130 1507.62 1016 1304.62 902.9 1225.62 793.9 1236.97 756.95 1264.87 680 1082.62 565 1084.2 454.51 1323.62 342 1500.47 227.9 1573.62 117 1600.62 0 1604.62 -108 1569.62 -219 1514.62 -334 1447.62 -448.1 1418.62 -560 1404.62 -671 1367.62 -785 1397.62 -898 1418.62 -1008.1 1339.62 -1121.1 1246.62 -1232.83 748.62 -1347.83 753.62 -1455.83 910.76 -1568.83 1053.62 -1678.83 1195.2 -1790.83 1311.62 -1905.66 1353.62 -2019.83 1348.62 -2130.83 1364.62 -2242.66 1406.62 -2357.83 1401.62 -2470.83 1429.62 -2575.83 1394.62 -2690.1 1393.2 -2803.83 1391.82 -2914.1 1437.52 -3028.83 1513.62 -3141.1 1505.64 -3250.83 1472.62 -3362.66 1447.62 -3474.83 1440.63 -3590.83 1462.62 -3703.83 1391.1 -3814.83 1348.62 -3926.83 1332.62 -4038.83 1376.98 -4148.83 1375.34 -4264.1 1373.74 -4376.1 1372.19 -4484.66" fill="none" stroke="#3b4351" stroke-miterlimit="10"/><polygon id="Chinese" points="1610.76 -4486.1 1609.69 -4599.1 1608.62 -4712.16 1585.12 -4822.83 1551.62 -4935.83 1509.12 -5049.83 1538.12 -5160.1 1586.62 -5272.1 1616.12 -5383.83 1645.62 -5498.1 1697.12 -5612.1 1714.62 -5723.16 1689.12 -5834.83 1700.12 -5948.83 1676.62 -6063.83 1650.62 -6176.16 1630.62 -6287.83 1620.62 -6398.33 1646.62 -6510.33 1667.62 -6622.99 1651.62 -6733.66 1633.99 -6845.66 1768.79 -6845.66 1768.79 1355 1768.79 1469.9 1766.12 1582 1757.62 1694 1736.12 1806.9 1676.12 1918.9 1661.12 2030 1663.62 2143.83 1606.12 2143.83 1606.12 2029.9 1620.12 1919 1701.62 1807 1696.12 1693.84 1654.12 1582 1681.62 1470 1739.62 1354.9 1748.62 1241.84 1744.12 1129.84 1685.62 1016 1615.12 905.34 1636.12 794 1738.62 680 1761.12 565 1758.62 454 1732.12 342 1695.62 228 1667.62 117 1651.12 0 1650.12 -108 1620.12 -219 1585.62 -334.1 1552.62 -448.1 1535.12 -560 1516.12 -671.1 1476.12 -785 1542.12 -898 1625.62 -1008.16 1668.12 -1121.16 1666.12 -1232.83 1673.62 -1347.83 1653.62 -1455.83 1602.12 -1569.1 1534.12 -1679.1 1564.12 -1790.83 1598.12 -1905.1 1612.12 -2019.83 1611.01 -2131.1 1592.62 -2242.1 1609.25 -2357.83 1616.07 -2470.83 1553.62 -2575.83 1529.62 -2689.83 1528.62 -2804.1 1555.62 -2913.83 1612.12 -3028.83 1621.12 -3140.83 1587.12 -3250.83 1567.62 -3362.83 1576.62 -3474.83 1571.12 -3590.83 1584.62 -3704.1 1558.62 -3814.83 1545.62 -3927.1 1557.62 -4039.1 1599.62 -4148.83 1625.12 -4264.1 1613.62 -4376.1 1610.76 -4486.1" fill="none" stroke="#3b4351" stroke-miterlimit="10"/><polygon id="Denmark" points="916.62 2143.83 927.62 2143.83 926.37 2030 701.12 1919 690.87 1807 683.87 1694 637.87 1582 522.37 1470 457.37 1355 426.62 1242 299.62 1130 273.62 1016 281.62 903 289.12 794 302.12 680 296.87 565 275.62 454 253.62 342 226.62 228 210.62 117 199.62 -108 199.37 -219 291.37 -334 277.29 -448 235.95 -560 188.87 -671 180.62 -785 142.62 -898 139.95 -1007.83 120.62 -1120.83 99.95 -1232.83 73.12 -1347.83 90.34 -1232.83 107.12 -1120.83 118.37 -1007.83 120.37 -898 122.62 -785 125.87 -671 158.37 -560 185.87 -448 183.62 -334 127.62 -219 119.62 -108 119.12 0 156.87 117 188.62 228 212.62 342 252.37 454 277.87 565 283.37 680 267.12 794 248.87 903 213.87 1016 234.37 1130 312.12 1242 398.12 1355 458.87 1470 593.37 1582 637.87 1694 674.12 1807 691.37 1919 915.37 2030 916.62 2143.83" fill="none" stroke="#3b4351" stroke-miterlimit="10"/><polygon id="Norway" points="213.87 1016 222.62 903 243.95 794 258.95 680 252.95 565 220.95 454 186.86 342 160.95 228 133.28 117 96.28 0 84.28 -108 89.28 -219 120.28 -334 98.62 -448 94.28 -560 91.95 -671 95.28 -785 99.62 -898 96.58 -1007.83 93.44 -1120.83 90.34 -1232.83 107.12 -1120.83 118.37 -1007.83 120.37 -898 122.62 -785 125.87 -671 158.37 -560 185.87 -448 183.62 -334 127.62 -219 119.62 -108 119.12 0 156.87 117 188.62 228 212.62 342 252.37 454 277.87 565 283.37 680 267.12 794 248.87 903 213.87 1016" fill="none" stroke="#3b4351" stroke-miterlimit="10"/><polygon id="England" points="874.62 2143.83 688.95 2143.83 687.95 2030 439.12 1919 252.12 1807 159.62 1694 111.62 1582 93.62 1470 86.12 1355 84.62 1242 86.95 1130 98.28 1016 116.95 903 114.62 794 122.62 680 120.62 565 108.28 454 100.16 342 107.95 228 107.95 117 77.28 0 73.12 -1347.83 90.34 -1232.83 93.44 -1120.83 96.58 -1007.83 99.62 -898 91.95 -671 94.28 -560 98.62 -448 120.28 -334 89.28 -219 84.28 -108 96.28 0 133.28 117 160.95 228 172.95 342 208.95 454 223.62 565 228.28 680 211.62 794 201.62 903 189.95 1016 193.28 1130 235.28 1242 248.62 1355 348.62 1470 562.62 1582 622.12 1694 602.12 1807 652.12 1919 872.95 2030 874.62 2143.83" fill="none" stroke="#3b4351" stroke-miterlimit="10"/><polygon id="South_America" data-name="South America" points="108.28 454 120.62 565 122.62 680 114.62 794 116.95 903 98.28 1016 86.95 1130 84.62 1242 79.62 1355 82.62 1470 87.62 1582 107.62 1694 145.12 1807 167.12 1919 198.12 2030 200.12 2143.83 77.28 2143.83 77.28 0 107.95 117 107.95 228 100.16 342 108.28 454" fill="none" stroke="#3b4351" stroke-miterlimit="10"/><polygon id="France" points="674.34 1242 785.95 1354.67 815.95 1470 963.28 1582 1049.29 1694 932.62 1807 899.28 1919 1099.75 2031 1102.12 2143.83 946.74 2143.83 946.24 2030 748.62 1919 745.95 1807 741.28 1694 711.95 1582 643.28 1470 613.28 1355 535.95 1242 385.29 1130 317.95 1016 311.95 903 310.62 794 321.29 680 314.62 565 275.62 454 253.62 342 258.62 230.67 325.29 117 314.62 0 286.62 -108 249.62 -219 291.37 -334 409.62 -334 362.62 -219 373.95 -108 423.58 0 444.62 117 381.95 230.67 347.12 342 361.29 454 384.62 565 391.95 680 365.95 794 379.95 903 391.29 1016 491.95 1130 674.34 1242" fill="none" stroke="#3b4351" stroke-miterlimit="10"/><polygon id="Franks_to_Holy_Roman_Empire" data-name="Franks to Holy Roman Empire" points="594.62 342 505.62 454 482.62 565 599.12 680 617.12 794 639.62 903 772.62 1016 953.62 1130 1131.62 1242 1201.62 1355 1109.12 1470 1144.62 1582 1249.12 1694 1301.62 1807 1217.12 1919 1288.12 2030 1290.62 2143.83 1234.62 2143.83 1232.12 2030 1140.12 1918.91 1137.62 1807 1115.62 1694 1053.62 1582 973.12 1470 1064.12 1355 953.62 1242 741.12 1130 577.12 1016 525.62 903 418.62 794 417.62 680 407.62 565 385.62 454 406.62 342 421.62 231.67 466.62 117 441.95 0 373.95 -108 371.78 -129.31 362.62 -219 409.62 -334 559.62 -334 626.73 -219 742.62 -108 897.74 0 874.62 117 818.62 228.6 594.62 342" fill="none" stroke="#3b4351" stroke-miterlimit="10"/><polygon points="703.28 -219 815.28 -108 966.12 0 987.12 117 1028.12 228 932.12 342 729.62 454 630.12 565 721.12 680 711.95 794 829.93 903 854.62 1016 1030.37 1130 1169.87 1242 1257.37 1355 1158.4 1470 1196.12 1582 1147.62 1470 1238.87 1355 1162.87 1242 1022.62 1130 841.12 1016 809.62 903 692.62 794 689.38 680 586.62 565 584.12 454 663.53 342 851.12 228 874.62 117 897.74 0 742.62 -108 626.73 -219 559.62 -334 644.62 -334 703.28 -219" fill="none" stroke="#3b4351" stroke-miterlimit="10"/><polygon id="Normandy" points="325.29 117 258.62 230.67 253.62 342 226.62 228 210.62 117 199.47 0 199.62 -108 199.37 -219 291.37 -334 249.62 -219 286.62 -108 314.62 0 325.29 117" fill="none" stroke="#3b4351" stroke-miterlimit="10"/><polygon id="Moslem_Arabs_and_Persians" data-name="Moslem Arabs and Persians" points="1404.62 -671 1418.62 -560 1411.62 -448 1453.62 -334 1382.62 -219 1328.62 -108 1225.12 0 1161.29 117 1169.95 0 1202.62 -108 1213.95 -219 1253.95 -334 1125.95 -448 1037.95 -560 885.95 -671 810.62 -785 997.62 -898 1106.62 -1007.2 1418.62 -1008.1 1397.62 -898 1367.62 -785 1404.62 -671" fill="none" stroke="#3b4351" stroke-miterlimit="10"/><polygon points="1523.12 1694.84 1446.62 1582 1405.12 1470.56 1442.62 1355 1396.62 1242 1391.62 1130 1351.62 1016 1183.62 903 1092.62 794 1124.29 680 970.62 565 1005.12 454 1166.62 342 1313.55 230.95 1315.29 231 1317.44 228 1317.44 228 1317.44 228 1397.29 117 1463.95 0 1481.95 -108 1488.62 -219 1453.62 -334 1382.62 -219 1328.62 -108 1225.12 0 1161.29 117 1218.62 228 1218.62 228 1218.62 228 1131.95 342 936.62 454 798.62 565 819.28 680 759.95 794 849.28 903 947.12 1016 1111.12 1130 1208.62 1242 1293.62 1355 1244.12 1470.56 1280.62 1582 1381.12 1694 1410.62 1807 1358.62 1919 1436.62 2030 1436.62 2143.83 1467.62 2143.83 1467.62 2030 1423.62 1919 1492.62 1807 1523.12 1694.84" fill="none" stroke="#3b4351" stroke-miterlimit="10"/><polygon id="Spain" points="1117.95 2031.41 1119.29 2143.83 1102.12 2143.83 1099.75 2031 899.28 1919 932.62 1807 1049.29 1694 963.28 1582 815.95 1470 785.95 1354.67 674.34 1242 491.95 1130 391.29 1016 379.95 903 365.95 794 391.95 680 384.62 565 361.29 454 347.12 342 383.43 228 444.62 117 423.58 0 373.95 -108 441.95 0 466.62 117 423.06 228 406.62 342 385.62 454 407.62 565 417.62 680 401.95 794 463.29 903 491.29 1016 631.28 1130.41 844.62 1242 937.12 1356.34 922.62 1470 997.95 1582 1065.62 1694 1035.29 1807 959.28 1919 1117.95 2031.41" fill="none" stroke="#3b4351" stroke-miterlimit="10"/><polygon id="Italy" points="586.62 565 689.38 680 692.62 794 809.62 903 841.12 1016 1022.62 1130 1162.87 1242 1238.87 1355 1147.62 1470 1196.12 1582 1326.62 1694.84 1351.29 1807 1294.95 1919 1361.29 2030 1361.29 2143.83 1303.29 2143.83 1300.29 2030 1229.95 1919 1317.95 1807 1262.95 1694.84 1153.29 1582 1109.12 1470 1201.62 1355 1131.62 1242 970.62 1130 797.62 1016 753.62 903 632.89 794 610.34 680 505.62 565 505.62 454 594.62 342 818.62 228.6 874.62 117 851.12 228 663.53 342 584.12 454 586.62 565" fill="none" stroke="#3b4351" stroke-miterlimit="10"/><polygon id="Egypt" points="729.95 565 764.62 680 711.95 794 721.12 680 630.12 565 729.62 454 932.12 342 1028.12 228 987.12 117 966.12 0 815.28 -108 995.34 0 1021.28 117 1065.29 228 1002.62 342 845.28 454 729.95 565" fill="none" stroke="#3b4351" stroke-miterlimit="10"/><polygon id="Mogolians" points="1334.62 680 1148.62 565 1173.62 454 1402.62 341.34 1565.62 228 1622.45 116.9 1630.62 -0.1 1650.12 -108 1651.12 0 1667.62 117 1695.62 228 1732.12 342 1758.62 454 1761.12 565 1738.62 680 1636.12 794 1615.56 903 1685.62 1016 1744.12 1129.84 1748.42 1244.28 1739.62 1354.9 1681.62 1470 1654.12 1582 1696.12 1693.84 1701.62 1807 1686.62 1694 1634.62 1582 1627.62 1470 1674.62 1354.9 1627.62 1242 1602.62 1130.34 1544.62 1016 1344.62 903 1283.62 794 1334.62 680" fill="none" stroke="#3b4351" stroke-miterlimit="10"/><polygon id="Russia" points="1573.62 117 1500.47 227.9 1323.62 342 1084.2 454.51 1257.37 342 1428.62 228 1495.12 115.33 1508.12 0 1519.62 -108 1488.62 -219 1453.62 -334 1411.62 -448 1418.62 -560 1447.62 -448.1 1514.62 -334 1569.62 -219 1604.62 -108 1600.62 0 1573.62 117" fill="none" stroke="#3b4351" stroke-miterlimit="10"/><polygon id="Ghazivids_2" data-name="Ghazivids 2" points="1495.12 115.33 1428.62 228 1084.2 454.51 1082.62 565 1026.12 454 1384.62 228 1436.12 115.33 1463.95 0 1481.95 -108 1488.45 -216.23 1519.62 -108 1508.12 0 1495.12 115.33" fill="none" stroke="#3b4351" stroke-miterlimit="10"/><polygon id="Ghazivids_-_Afgans" data-name="Ghazivids - Afgans" points="1384.62 228 1212.12 342 1026.12 454 970.62 565 1005.12 454 1166.62 342 1317.44 228 1397.29 117 1463.95 0 1436.12 115.33 1384.62 228" fill="none" stroke="#3b4351" stroke-miterlimit="10"/></g><g id="Text"><g id="France-2" data-name="France"><path d="M338.11,86.25h9.34V88.6h-6.54v4.85h6.15V95.8h-6.15v7.94h-2.8Z" fill="#3b4351"/><path d="M349.45,86.25h6.18c2.45,0,4.44,1.25,4.44,4.51,0,2.25-1,4-2.92,4.28v0c1.76.18,2.65,1.13,2.74,3.58,0,1.15,0,2.5.1,3.55a1.92,1.92,0,0,0,.84,1.52h-3.17a2.87,2.87,0,0,1-.46-1.54c-.05-.51-.07-1-.07-1.57s0-1.1-.05-1.74c-.08-1.91-.67-2.74-2.55-2.74h-2.28v7.59h-2.8Zm5,7.79a2.58,2.58,0,0,0,2.79-2.84c0-1.87-.78-2.85-2.64-2.85h-2.38V94Z" fill="#3b4351"/><path d="M365.92,86.25h3.58l4.6,17.49h-2.91l-1.08-4.28H365l-1.13,4.28h-2.92Zm3.72,11-2-8.63h0l-2.09,8.63Z" fill="#3b4351"/><path d="M375.33,86.25h3.4l5.08,13h0v-13h2.65v17.49h-3.41L378,90.36h0v13.38h-2.64Z" fill="#3b4351"/><path d="M400.15,97.47v.37c0,3.16-1.3,6.25-5.39,6.25-4.42,0-5.79-2.85-5.79-9.09s1.37-9.1,5.81-9.1c5,0,5.27,3.66,5.27,5.49v.32h-2.79v-.29c0-1.64-.49-3.48-2.5-3.41s-3,1.28-3,6.91.9,7.06,3,7.06c2.35,0,2.59-2.57,2.59-4.22v-.29Z" fill="#3b4351"/><path d="M402.1,86.25h9.46V88.6H404.9v4.85h6.27V95.8H404.9v5.59h6.86v2.35H402.1Z" fill="#3b4351"/></g><g id="Russia-3" data-name="Russia"><path d="M1509.89,46.12h6.17c2.45,0,4.44,1.25,4.44,4.51,0,2.25-1,4-2.92,4.29v0c1.77.17,2.65,1.13,2.75,3.58,0,1.15,0,2.5.1,3.55a1.89,1.89,0,0,0,.83,1.52h-3.16a3,3,0,0,1-.47-1.55c-.05-.51-.07-1-.07-1.56s0-1.11,0-1.74c-.07-1.91-.66-2.75-2.55-2.75h-2.28v7.6h-2.79Zm5,7.79a2.58,2.58,0,0,0,2.8-2.84c0-1.86-.79-2.84-2.65-2.84h-2.38v5.68Z" fill="#3b4351"/><path d="M1525.62,46.12V58.67c0,2.23.88,3.18,2.57,3.18s2.55-1,2.55-3.18V46.12h2.79V58.45c0,4-2,5.51-5.34,5.51s-5.37-1.47-5.37-5.51V46.12Z" fill="#3b4351"/><path d="M1538.36,58.2v.44c0,2.14,1,3.21,2.87,3.21a2.5,2.5,0,0,0,2.64-2.54c0-1.84-.93-2.65-2.5-3.12l-1.91-.66c-2.55-1-3.65-2.3-3.65-4.8,0-3.19,2.18-4.95,5.44-4.95,4.48,0,5,2.79,5,4.61v.39h-2.79v-.37c0-1.59-.69-2.52-2.45-2.52a2.23,2.23,0,0,0-2.36,2.52c0,1.5.76,2.25,2.63,3l1.88.69c2.48.88,3.55,2.21,3.55,4.63,0,3.73-2.25,5.27-5.78,5.27-4.34,0-5.32-2.89-5.32-5.34V58.2Z" fill="#3b4351"/><path d="M1551.07,58.2v.44q0,3.21,2.87,3.21a2.51,2.51,0,0,0,2.65-2.54c0-1.84-.93-2.65-2.5-3.12l-1.91-.66c-2.55-1-3.66-2.3-3.66-4.8,0-3.19,2.19-4.95,5.45-4.95,4.48,0,4.94,2.79,4.94,4.61v.39h-2.79v-.37c0-1.59-.69-2.52-2.45-2.52a2.23,2.23,0,0,0-2.35,2.52c0,1.5.76,2.25,2.62,3l1.89.69c2.47.88,3.55,2.21,3.55,4.63,0,3.73-2.25,5.27-5.78,5.27-4.34,0-5.32-2.89-5.32-5.34V58.2Z" fill="#3b4351"/><path d="M1561.51,46.12h2.79v17.5h-2.79Z" fill="#3b4351"/><path d="M1570.38,46.12H1574l4.6,17.5h-2.91l-1.08-4.29h-5.12l-1.13,4.29h-2.92Zm3.72,11-2-8.63h0L1570,57.1Z" fill="#3b4351"/></g><g id="Holy_Roman_Empire_to_Austria" data-name="Holy Roman Empire to Austria"><path d="M542.56,99.37v.37c0,3.16-1.3,6.25-5.39,6.25-4.41,0-5.78-2.84-5.78-9.09s1.37-9.09,5.8-9.09c5,0,5.27,3.65,5.27,5.49v.32h-2.79v-.3c0-1.64-.49-3.48-2.5-3.4s-3,1.27-3,6.91.91,7,3,7c2.35,0,2.6-2.57,2.6-4.21v-.3Z" fill="#3b4351"/><path d="M544.35,92.46H547v2.06h0a3.26,3.26,0,0,1,3.07-2.4,1.5,1.5,0,0,1,.63.1v2.69a3.8,3.8,0,0,0-1.1-.14c-1.2,0-2.65.54-2.65,3v7.89h-2.64Z" fill="#3b4351"/><path d="M558.8,104.1h-.07a3.77,3.77,0,0,1-3.38,1.89c-2,0-3.29-.91-3.29-4.31V92.46h2.65v9.46c0,1.47.64,2,1.79,2a2.06,2.06,0,0,0,2.16-2.2V92.46h2.64v13.19h-2.5Z" fill="#3b4351"/><path d="M569.53,96.31V96c0-1.06-.36-2-1.74-2-1,0-1.88.47-1.88,1.72,0,1,.46,1.45,1.86,1.94l1.69.58c2,.67,2.87,1.72,2.87,3.8,0,2.82-2.09,4-4.73,4-3.33,0-4.34-1.54-4.34-4.09v-.49h2.35v.42c0,1.54.52,2.35,2.06,2.35s2.16-.74,2.16-1.94a1.9,1.9,0,0,0-1.45-1.93l-2.15-.76c-2-.67-2.82-1.69-2.82-3.8,0-2.48,1.76-3.63,4.51-3.63,3.35,0,4.11,2,4.11,3.6v.59Z" fill="#3b4351"/><path d="M582.94,102.9c0,.49.29.93.68.93a1,1,0,0,0,.44-.07v1.72a2.83,2.83,0,0,1-1.3.31c-1.17,0-2.15-.46-2.23-1.73h0A3.43,3.43,0,0,1,577.2,106c-2.13,0-3.43-1.15-3.43-3.7,0-2.94,1.3-3.55,3.06-4.14l2.06-.56c1-.27,1.55-.54,1.55-1.69s-.42-2-1.82-2c-1.76,0-2,1.25-2,2.53h-2.5c0-2.82,1.16-4.34,4.64-4.34,2.32,0,4.19.91,4.19,3.24Zm-2.5-4.21a20.94,20.94,0,0,1-2.94,1.22,2.18,2.18,0,0,0-1.08,2.14c0,1.1.54,2,1.64,2,1.59,0,2.38-1.18,2.38-3.14Z" fill="#3b4351"/><path d="M592.37,104h0a2.82,2.82,0,0,1-2.89,2c-3.07,0-4.32-2.6-4.32-7.11,0-5.85,2.06-6.76,4.07-6.76a3,3,0,0,1,3,1.89h.05V88.15h2.65v17.5h-2.5Zm-2.4-9.8c-1.5,0-2.06,1.22-2.06,4.78,0,3,.37,4.87,2.23,4.87s2.23-1.83,2.23-4.68C592.37,96,592,94.23,590,94.23Z" fill="#3b4351"/><path d="M599.69,99.4v.76c0,1.76.22,4,2.21,4s2.1-2.13,2.1-2.94h2.5c0,3-1.76,4.75-4.63,4.75-2.15,0-4.82-.64-4.82-6.74,0-3.45.76-7.13,4.87-7.13,3.68,0,4.66,2.23,4.66,5.88v1.4Zm4.24-1.81v-.72c0-1.66-.54-2.94-2-2.94-1.67,0-2.21,1.67-2.21,3.39v.27Z" fill="#3b4351"/><path d="M614.44,96.31V96c0-1.06-.37-2-1.74-2-1.05,0-1.89.47-1.89,1.72,0,1,.47,1.45,1.87,1.94l1.69.58c2,.67,2.87,1.72,2.87,3.8,0,2.82-2.09,4-4.73,4-3.34,0-4.34-1.54-4.34-4.09v-.49h2.35v.42c0,1.54.52,2.35,2.06,2.35s2.16-.74,2.16-1.94a1.9,1.9,0,0,0-1.45-1.93l-2.16-.76c-2-.67-2.82-1.69-2.82-3.8,0-2.48,1.77-3.63,4.51-3.63,3.36,0,4.12,2,4.12,3.6v.59Z" fill="#3b4351"/></g><g id="Ghaznivids"><path d="M1406.37,104.25h0a3.63,3.63,0,0,1-3.82,2.38c-3.83,0-5.2-2.84-5.2-9.09s1.77-9.09,5.81-9.09a4.75,4.75,0,0,1,5.12,5v.32h-2.65V93.4c0-1.3-.53-2.85-2.45-2.85s-3,1.33-3,6.91.93,7.06,2.81,7.06c2.14,0,2.92-1.52,2.92-5.34h-2.94V97.07h5.59v9.22h-2.11Z" fill="#3b4351"/><path d="M1410.87,88.79h2.8v7h5.14v-7h2.8v17.5h-2.8V98.15h-5.14v8.14h-2.8Z" fill="#3b4351"/><path d="M1427.8,88.79h3.58l4.61,17.5h-2.92L1432,102h-5.12l-1.12,4.29h-2.92Zm3.73,11-2-8.63h0l-2.08,8.63Z" fill="#3b4351"/><path d="M1436.21,104.08l7.32-12.94h-6.88V88.79h9.95v2.35l-7.33,12.79h7.4v2.36h-10.46Z" fill="#3b4351"/><path d="M1448.56,88.79h3.4l5.07,13h0v-13h2.65v17.5h-3.41l-5.07-13.38h0v13.38h-2.64Z" fill="#3b4351"/><path d="M1462.49,88.79h2.8v17.5h-2.8Z" fill="#3b4351"/><path d="M1466.46,88.79h3l3,14h0l3.14-14h3l-4.41,17.5h-3.55Z" fill="#3b4351"/><path d="M1479.72,88.79h2.79v17.5h-2.79Z" fill="#3b4351"/><path d="M1485.28,88.79h5c5.49,0,6.18,3.58,6.18,8.75s-.69,8.75-6.18,8.75h-5Zm2.79,15.39h2.31c2.3,0,3.26-1.52,3.26-6.64,0-4.93-.84-6.64-3.26-6.64h-2.31Z" fill="#3b4351"/><path d="M1501.06,100.87v.44c0,2.13,1,3.21,2.86,3.21a2.51,2.51,0,0,0,2.65-2.55c0-1.84-.93-2.64-2.5-3.11l-1.91-.66c-2.55-1-3.65-2.3-3.65-4.8,0-3.19,2.18-5,5.44-5,4.48,0,5,2.79,5,4.6v.4h-2.8v-.37c0-1.6-.68-2.53-2.45-2.53a2.23,2.23,0,0,0-2.35,2.53c0,1.49.76,2.25,2.62,3l1.89.69c2.48.88,3.55,2.2,3.55,4.63,0,3.72-2.25,5.27-5.78,5.27-4.34,0-5.32-2.89-5.32-5.34v-.42Z" fill="#3b4351"/></g></g></svg>