<svg xmlns="http://www.w3.org/2000/svg" viewBox="0 0 1847.91 111"><title>ce1150text</title><g id="YEARS"><g id="Right"><path d="M1792.5,108.07V94.71h-3.82V92.79h.28c1.77,0,3.8-.45,4.35-2.76v-.37h2.15v18.41Z" fill="#3b4351"/><path d="M1805,108.07V94.71h-3.82V92.79h.28c1.77,0,3.8-.45,4.34-2.76v-.37h2.16v18.41Z" fill="#3b4351"/><path d="M1812.91,103.11h2.81v.49a2.35,2.35,0,0,0,2.41,2.6c2.08,0,2.63-2,2.63-4.18s-.57-3.93-2.47-3.93a2.36,2.36,0,0,0-2.42,1.69l-2.62-.1.91-9.65H1823v2.36h-6.65l-.6,4.84,0,0a4.06,4.06,0,0,1,3.09-1.43c3.85,0,4.81,3.25,4.81,6.09,0,3.69-1.69,6.5-5.66,6.5-3.31,0-5.15-1.69-5.15-4.94Z" fill="#3b4351"/><path d="M1830.8,89.66c3.53,0,5.51,2.21,5.51,9.39s-2,9.39-5.51,9.39-5.52-2.21-5.52-9.39S1827.26,89.66,1830.8,89.66Zm0,16.7c2,0,2.54-2,2.54-7.31s-.54-7.3-2.54-7.3-2.55,2-2.55,7.3S1828.79,106.36,1830.8,106.36Z" fill="#3b4351"/></g><g id="left"><path d="M17.46,110V96.62H13.64V94.69h.29c1.77,0,3.79-.44,4.34-2.75v-.37h2.16V110Z" fill="#3b4351"/><path d="M29.94,110V96.62H26.12V94.69h.29c1.77,0,3.79-.44,4.34-2.75v-.37h2.16V110Z" fill="#3b4351"/><path d="M37.87,105h2.81v.5a2.35,2.35,0,0,0,2.42,2.6c2.08,0,2.63-2,2.63-4.19S45.15,100,43.25,100a2.34,2.34,0,0,0-2.41,1.69l-2.63-.11.91-9.64H48V94.3H41.33l-.6,4.84.06,0a4,4,0,0,1,3.09-1.43c3.85,0,4.81,3.25,4.81,6.08,0,3.7-1.69,6.5-5.67,6.5-3.3,0-5.15-1.69-5.15-4.94Z" fill="#3b4351"/><path d="M55.76,91.57c3.54,0,5.51,2.21,5.51,9.39s-2,9.38-5.51,9.38-5.51-2.21-5.51-9.38S52.22,91.57,55.76,91.57Zm0,16.69c2,0,2.55-2,2.55-7.3s-.55-7.31-2.55-7.31-2.55,2-2.55,7.31S53.76,108.26,55.76,108.26Z" fill="#3b4351"/></g></g><g id="Nation_OUtlines" data-name="Nation OUtlines"><polygon id="Romans" points="854.62 899 829.93 786 711.95 677 764.62 563 729.95 448 845.28 337 1002.62 225 1065.29 111 1021.28 0 995.34 -117 815.28 -225 703.28 -336 687.28 -451 737.95 -565 780.62 -677 712.62 -788 645.95 -902 550.62 -1015 491.95 -1124.83 453.95 -1237.83 455.29 -1349.83 435.95 -1464.83 470.62 -1572.83 322.62 -1572.83 416.12 -1685.83 480.12 -1795.83 410.62 -1907.83 316.95 -2021.83 248.28 -2136.83 210.28 -2247.83 175.95 -2358.83 159.62 -2474.83 91.28 -2587.83 83.12 -2692.83 117.62 -2806.83 151.37 -2920.83 129.62 -3030.83 109.62 -3145.83 99.62 -3257.83 73.12 -3367.83 75.42 -4265.83 85.95 -4155.83 95.28 -4043.83 111.95 -3931.83 116.62 -3820.83 137.95 -3707.83 149.95 -3591.83 169.95 -3479.83 205.28 -3367.83 231.95 -3257.83 287.74 -3145.83 467.73 -3030.83 683.72 -2920.83 998.71 -2806.83 1118.7 -2692.83 1131.14 -2587.83 1195.2 -2474.83 1182.62 -2358.83 1245.62 -2247.83 1220.62 -2136.83 1122.62 -2021.83 981.62 -1907.83 880.12 -1795.83 717.95 -1685.83 593.62 -1572.83 616.62 -1464.83 717.28 -1349.83 839.28 -1234.99 863.28 -1124.83 915.28 -1015 810.62 -902 885.95 -788 1037.95 -677 1125.95 -565 1253.95 -451 1213.95 -336 1202.62 -225 1169.95 -117 1161.29 0 1218.62 111 1131.95 225 936.62 337 798.62 448 819.28 563 759.95 677 849.28 786 854.62 899" fill="none" stroke="#3b4351" stroke-miterlimit="10"/><polygon id="Indians" points="1372.19 -4601.66 1294.19 -4715.83 1285.19 -4828.83 1313.69 -4939.83 1348.19 -5052.83 1310.69 -5166.83 1298.69 -5276.83 1313.69 -5388.83 1345.19 -5500.83 1325.69 -5614.83 1343.69 -5728.83 1417.19 -5839.83 1400.69 -5952.91 1429.19 -6065.83 1419.27 -6181.1 1387.19 -6292.83 1387.19 -6404.83 1438.19 -6515.33 1462.18 -6627.33 1480.18 -6740.37 1445.82 -6850.66 1411.11 -6962.66 1545.86 -6962.66 1580.1 -6850.66 1593.12 -6740.43 1552.12 -6627.33 1514.62 -6515.33 1514.12 -6405.16 1553.12 -6293.1 1548.12 -6180.83 1519.62 -6065.83 1534.12 -5952.16 1575.12 -5839.83 1559.62 -5728.83 1564.12 -5615.1 1534.62 -5500.83 1486.12 -5388.83 1465.12 -5276.83 1471.12 -5167.66 1502.12 -5053.66 1508.12 -4939.83 1534.62 -4828.83 1542.77 -4749.97 1555.62 -4601.66 1554.62 -4492.83 1567.12 -4380.83 1542.12 -4266.1 1498.12 -4155.83 1490.62 -4043.83 1513.12 -3931.83 1568.62 -3820.83 1544.12 -3707.83 1530.62 -3592.1 1523.62 -3480.1 1532.62 -3367.83 1565.12 -3257.83 1543.62 -3145.83 1514.12 -3030.83 1490.12 -2921.1 1495.62 -2806.83 1517.12 -2693.16 1528.12 -2587.83 1580.62 -2475.16 1578.12 -2359.16 1578.12 -2248.66 1560.12 -2137.1 1526.62 -2021.83 1467.62 -1907.83 1381.62 -1796.1 1270.62 -1685.83 1090.12 -1573.1 860.62 -1464.83 1302.12 -1349.83 1377.03 -1237.83 1550.62 -1124.83 1519.62 -1015 1476.12 -902 1516.13 -788 1534.62 -675.66 1552.65 -565 1585.62 -451.1 1620.12 -336 1650.12 -225 1630.62 -117.1 1622.45 -0.1 1565.62 111 1402.62 224.34 1173.62 337 1148.62 448 1334.62 563 1283.62 677 1344.62 786 1544.62 899 1602.62 1013.34 1627.62 1125 1674.62 1237.9 1627.62 1353 1634.62 1465 1686.62 1577 1701.62 1690 1620.12 1802 1606.12 1913 1606.12 2026.83 1552.62 2026.83 1549.52 1913 1569.62 1802 1683.62 1690 1667.62 1577 1607.62 1465 1596.62 1352.34 1617.62 1238 1584.62 1125 1562.62 1013 1507.62 899 1304.62 785.9 1225.62 676.9 1236.97 639.95 1264.87 563 1082.62 448 1084.2 337.51 1323.62 225 1500.47 110.9 1573.62 0 1600.62 -117 1604.62 -225 1569.62 -336 1514.62 -451 1447.62 -565.1 1418.62 -677 1404.62 -788 1367.62 -902 1397.62 -1015 1418.62 -1125.1 1339.62 -1238.1 1246.62 -1349.83 748.62 -1464.83 753.62 -1572.83 910.76 -1685.83 1053.62 -1795.83 1195.2 -1907.83 1311.62 -2022.66 1353.62 -2136.83 1348.62 -2247.83 1364.62 -2359.66 1406.62 -2474.83 1401.62 -2587.83 1429.62 -2692.83 1394.62 -2807.1 1393.2 -2920.83 1391.82 -3031.1 1437.52 -3145.83 1513.62 -3258.1 1505.64 -3367.83 1472.62 -3479.66 1447.62 -3591.83 1440.63 -3707.83 1462.62 -3820.83 1391.1 -3931.83 1348.62 -4043.83 1332.62 -4155.83 1376.98 -4265.83 1375.34 -4381.1 1373.74 -4493.1 1372.19 -4601.66" fill="none" stroke="#3b4351" stroke-miterlimit="10"/><polygon id="Chinese" points="1610.76 -4603.1 1609.69 -4716.1 1608.62 -4829.16 1585.12 -4939.83 1551.62 -5052.83 1509.12 -5166.83 1538.12 -5277.1 1586.62 -5389.1 1616.12 -5500.83 1645.62 -5615.1 1697.12 -5729.1 1714.62 -5840.16 1689.12 -5951.83 1700.12 -6065.83 1676.62 -6180.83 1650.62 -6293.16 1630.62 -6404.83 1620.62 -6515.33 1646.62 -6627.33 1667.62 -6739.99 1651.62 -6850.66 1633.99 -6962.66 1768.79 -6962.66 1768.79 1238 1768.79 1352.9 1766.12 1465 1757.62 1577 1736.12 1689.9 1676.12 1801.9 1661.12 1913 1663.62 2026.83 1606.12 2026.83 1606.12 1912.9 1620.12 1802 1701.62 1690 1696.12 1576.84 1654.12 1465 1681.62 1353 1739.62 1237.9 1748.62 1124.84 1744.12 1012.84 1685.62 899 1615.12 788.34 1636.12 677 1738.62 563 1761.12 448 1758.62 337 1732.12 225 1695.62 111 1667.62 0 1651.12 -117 1650.12 -225 1620.12 -336 1585.62 -451.1 1552.62 -565.1 1535.12 -677 1516.12 -788.1 1476.12 -902 1542.12 -1015 1625.62 -1125.16 1668.12 -1238.16 1666.12 -1349.83 1673.62 -1464.83 1653.62 -1572.83 1602.12 -1686.1 1534.12 -1796.1 1564.12 -1907.83 1598.12 -2022.1 1612.12 -2136.83 1611.01 -2248.1 1592.62 -2359.1 1609.25 -2474.83 1616.07 -2587.83 1553.62 -2692.83 1529.62 -2806.83 1528.62 -2921.1 1555.62 -3030.83 1612.12 -3145.83 1621.12 -3257.83 1587.12 -3367.83 1567.62 -3479.83 1576.62 -3591.83 1571.12 -3707.83 1584.62 -3821.1 1558.62 -3931.83 1545.62 -4044.1 1557.62 -4156.1 1599.62 -4265.83 1625.12 -4381.1 1613.62 -4493.1 1610.76 -4603.1" fill="none" stroke="#3b4351" stroke-miterlimit="10"/><polygon id="Denmark" points="916.62 2026.83 927.62 2026.83 926.37 1913 701.12 1802 690.87 1690 683.87 1577 637.87 1465 522.37 1353 457.37 1238 426.62 1125 299.62 1013 273.62 899 281.62 786 289.12 677 302.12 563 296.87 448 275.62 337 253.62 225 226.62 111 210.62 0 199.62 -225 199.37 -336 291.37 -451 277.29 -565 235.95 -677 188.87 -788 180.62 -902 142.62 -1015 139.95 -1124.83 120.62 -1237.83 99.95 -1349.83 73.12 -1464.83 90.34 -1349.83 107.12 -1237.83 118.37 -1124.83 120.37 -1015 122.62 -902 125.87 -788 158.37 -677 185.87 -565 183.62 -451 127.62 -336 119.62 -225 119.12 -117 156.87 0 188.62 111 212.62 225 252.37 337 277.87 448 283.37 563 267.12 677 248.87 786 213.87 899 234.37 1013 312.12 1125 398.12 1238 458.87 1353 593.37 1465 637.87 1577 674.12 1690 691.37 1802 915.37 1913 916.62 2026.83" fill="none" stroke="#3b4351" stroke-miterlimit="10"/><polygon id="Norway" points="213.87 899 222.62 786 243.95 677 258.95 563 252.95 448 220.95 337 186.86 225 160.95 111 133.28 0 96.28 -117 84.28 -225 89.28 -336 120.28 -451 98.62 -565 94.28 -677 91.95 -788 95.28 -902 99.62 -1015 96.58 -1124.83 93.44 -1237.83 90.34 -1349.83 107.12 -1237.83 118.37 -1124.83 120.37 -1015 122.62 -902 125.87 -788 158.37 -677 185.87 -565 183.62 -451 127.62 -336 119.62 -225 119.12 -117 156.87 0 188.62 111 212.62 225 252.37 337 277.87 448 283.37 563 267.12 677 248.87 786 213.87 899" fill="none" stroke="#3b4351" stroke-miterlimit="10"/><polygon id="England" points="874.62 2026.83 688.95 2026.83 687.95 1913 439.12 1802 252.12 1690 159.62 1577 111.62 1465 93.62 1353 86.12 1238 84.62 1125 86.95 1013 98.28 899 116.95 786 114.62 677 122.62 563 120.62 448 108.28 337 100.16 225 107.95 111 107.95 0 77.28 -117 73.12 -1464.83 90.34 -1349.83 93.44 -1237.83 96.58 -1124.83 99.62 -1015 91.95 -788 94.28 -677 98.62 -565 120.28 -451 89.28 -336 84.28 -225 96.28 -117 133.28 0 160.95 111 172.95 225 208.95 337 223.62 448 228.28 563 211.62 677 201.62 786 189.95 899 193.28 1013 235.28 1125 248.62 1238 348.62 1353 562.62 1465 622.12 1577 602.12 1690 652.12 1802 872.95 1913 874.62 2026.83" fill="none" stroke="#3b4351" stroke-miterlimit="10"/><polygon id="South_America" data-name="South America" points="108.28 337 120.62 448 122.62 563 114.62 677 116.95 786 98.28 899 86.95 1013 84.62 1125 79.62 1238 82.62 1353 87.62 1465 107.62 1577 145.12 1690 167.12 1802 198.12 1913 200.12 2026.83 77.28 2026.83 77.28 -117 107.95 0 107.95 111 100.16 225 108.28 337" fill="none" stroke="#3b4351" stroke-miterlimit="10"/><polygon id="France" points="674.34 1125 785.95 1237.67 815.95 1353 963.28 1465 1049.29 1577 932.62 1690 899.28 1802 1099.75 1914 1102.12 2026.83 946.74 2026.83 946.24 1913 748.62 1802 745.95 1690 741.28 1577 711.95 1465 643.28 1353 613.28 1238 535.95 1125 385.29 1013 317.95 899 311.95 786 310.62 677 321.29 563 314.62 448 275.62 337 253.62 225 258.62 113.67 325.29 0 314.62 -117 286.62 -225 249.62 -336 291.37 -451 409.62 -451 362.62 -336 373.95 -225 423.58 -117 444.62 0 381.95 113.67 347.12 225 361.29 337 384.62 448 391.95 563 365.95 677 379.95 786 391.29 899 491.95 1013 674.34 1125" fill="none" stroke="#3b4351" stroke-miterlimit="10"/><polygon id="Franks_to_Holy_Roman_Empire" data-name="Franks to Holy Roman Empire" points="594.62 225 505.62 337 482.62 448 599.12 563 617.12 677 639.62 786 772.62 899 953.62 1013 1131.62 1125 1201.62 1238 1109.12 1353 1144.62 1465 1249.12 1577 1301.62 1690 1217.12 1802 1288.12 1913 1290.62 2026.83 1234.62 2026.83 1232.12 1913 1140.12 1801.91 1137.62 1690 1115.62 1577 1053.62 1465 973.12 1353 1064.12 1238 953.62 1125 741.12 1013 577.12 899 525.62 786 418.62 677 417.62 563 407.62 448 385.62 337 406.62 225 421.62 114.67 466.62 0 441.95 -117 373.95 -225 371.78 -246.31 362.62 -336 409.62 -451 559.62 -451 626.73 -336 742.62 -225 897.74 -117 874.62 0 818.62 111.6 594.62 225" fill="none" stroke="#3b4351" stroke-miterlimit="10"/><polygon points="703.28 -336 815.28 -225 966.12 -117 987.12 0 1028.12 111 932.12 225 729.62 337 630.12 448 721.12 563 711.95 677 829.93 786 854.62 899 1030.37 1013 1169.87 1125 1257.37 1238 1158.4 1353 1196.12 1465 1147.62 1353 1238.87 1238 1162.87 1125 1022.62 1013 841.12 899 809.62 786 692.62 677 689.38 563 586.62 448 584.12 337 663.53 225 851.12 111 874.62 0 897.74 -117 742.62 -225 626.73 -336 559.62 -451 644.62 -451 703.28 -336" fill="none" stroke="#3b4351" stroke-miterlimit="10"/><polygon id="Normandy" points="325.29 0 258.62 113.67 253.62 225 226.62 111 210.62 0 199.47 -117 199.62 -225 199.37 -336 291.37 -451 249.62 -336 286.62 -225 314.62 -117 325.29 0" fill="none" stroke="#3b4351" stroke-miterlimit="10"/><polygon id="Sweden" points="691.37 1802 673.95 1802 893.62 1913 895.28 2026.83 874.62 2026.83 872.95 1913 652.12 1802 602.12 1690 622.12 1577 562.62 1465 348.62 1353 248.62 1238 235.28 1125 193.28 1013 189.95 899 201.62 786 211.62 677 228.28 563 223.62 448 208.95 337 172.95 225 160.95 111 186.86 225 220.95 337 252.95 448 258.95 563 243.95 677 222.62 786 213.87 899 234.37 1013 312.12 1125 398.12 1238 458.87 1353 593.37 1465 637.87 1577 674.12 1690 691.37 1802" fill="none" stroke="#3b4351" stroke-miterlimit="10"/><polygon id="Moslem_Arabs_and_Persians" data-name="Moslem Arabs and Persians" points="1404.62 -788 1418.62 -677 1411.62 -565 1453.62 -451 1382.62 -336 1328.62 -225 1225.12 -117 1161.29 0 1169.95 -117 1202.62 -225 1213.95 -336 1253.95 -451 1125.95 -565 1037.95 -677 885.95 -788 810.62 -902 997.62 -1015 1106.62 -1124.2 1418.62 -1125.1 1397.62 -1015 1367.62 -902 1404.62 -788" fill="none" stroke="#3b4351" stroke-miterlimit="10"/><polygon points="1523.12 1577.84 1446.62 1465 1405.12 1353.56 1442.62 1238 1396.62 1125 1391.62 1013 1351.62 899 1183.62 786 1092.62 677 1124.29 563 970.62 448 1005.12 337 1166.62 225 1313.55 113.95 1315.29 114 1317.44 111 1317.44 111 1317.44 111 1397.29 0 1463.95 -117 1481.95 -225 1488.62 -336 1453.62 -451 1382.62 -336 1328.62 -225 1225.12 -117 1161.29 0 1218.62 111 1218.62 111 1218.62 111 1131.95 225 936.62 337 798.62 448 819.28 563 759.95 677 849.28 786 947.12 899 1111.12 1013 1208.62 1125 1293.62 1238 1244.12 1353.56 1280.62 1465 1381.12 1577 1410.62 1690 1358.62 1802 1436.62 1913 1436.62 2026.83 1467.62 2026.83 1467.62 1913 1423.62 1802 1492.62 1690 1523.12 1577.84" fill="none" stroke="#3b4351" stroke-miterlimit="10"/><polygon id="Spain" points="1117.95 1914.41 1119.29 2026.83 1102.12 2026.83 1099.75 1914 899.28 1802 932.62 1690 1049.29 1577 963.28 1465 815.95 1353 785.95 1237.67 674.34 1125 491.95 1013 391.29 899 379.95 786 365.95 677 391.95 563 384.62 448 361.29 337 347.12 225 383.43 111 444.62 0 423.58 -117 373.95 -225 441.95 -117 466.62 0 423.06 111 406.62 225 385.62 337 407.62 448 417.62 563 401.95 677 463.29 786 491.29 899 631.28 1013.41 844.62 1125 937.12 1239.34 922.62 1353 997.95 1465 1065.62 1577 1035.29 1690 959.28 1802 1117.95 1914.41" fill="none" stroke="#3b4351" stroke-miterlimit="10"/><polygon id="Italy" points="586.62 448 689.38 563 692.62 677 809.62 786 841.12 899 1022.62 1013 1162.87 1125 1238.87 1238 1147.62 1353 1196.12 1465 1326.62 1577.84 1351.29 1690 1294.95 1802 1361.29 1913 1361.29 2026.83 1303.29 2026.83 1300.29 1913 1229.95 1802 1317.95 1690 1262.95 1577.84 1153.29 1465 1109.12 1353 1201.62 1238 1131.62 1125 970.62 1013 797.62 899 753.62 786 632.89 677 610.34 563 505.62 448 505.62 337 594.62 225 818.62 111.6 874.62 0 851.12 111 663.53 225 584.12 337 586.62 448" fill="none" stroke="#3b4351" stroke-miterlimit="10"/><polygon id="Egypt" points="729.95 448 764.62 563 711.95 677 721.12 563 630.12 448 729.62 337 932.12 225 1028.12 111 987.12 0 966.12 -117 815.28 -225 995.34 -117 1021.28 0 1065.29 111 1002.62 225 845.28 337 729.95 448" fill="none" stroke="#3b4351" stroke-miterlimit="10"/><polygon id="Mogolians" points="1334.62 563 1148.62 448 1173.62 337 1402.62 224.34 1565.62 111 1622.45 -0.1 1630.62 -117.1 1650.12 -225 1651.12 -117 1667.62 0 1695.62 111 1732.12 225 1758.62 337 1761.12 448 1738.62 563 1636.12 677 1615.56 786 1685.62 899 1744.12 1012.84 1748.42 1127.28 1739.62 1237.9 1681.62 1353 1654.12 1465 1696.12 1576.84 1701.62 1690 1686.62 1577 1634.62 1465 1627.62 1353 1674.62 1237.9 1627.62 1125 1602.62 1013.34 1544.62 899 1344.62 786 1283.62 677 1334.62 563" fill="none" stroke="#3b4351" stroke-miterlimit="10"/><polygon id="Russia" points="1573.62 0 1500.47 110.9 1323.62 225 1084.2 337.51 1257.37 225 1428.62 111 1495.12 -1.67 1508.12 -117 1519.62 -225 1488.62 -336 1453.62 -451 1411.62 -565 1418.62 -677 1447.62 -565.1 1514.62 -451 1569.62 -336 1604.62 -225 1600.62 -117 1573.62 0" fill="none" stroke="#3b4351" stroke-miterlimit="10"/><polygon id="Ghazivids_2" data-name="Ghazivids 2" points="1495.12 -1.67 1428.62 111 1084.2 337.51 1082.62 448 1026.12 337 1384.62 111 1436.12 -1.67 1463.95 -117 1481.95 -225 1488.45 -333.23 1519.62 -225 1508.12 -117 1495.12 -1.67" fill="none" stroke="#3b4351" stroke-miterlimit="10"/><polygon id="Ghazivids_-_Afgans" data-name="Ghazivids - Afgans" points="1384.62 111 1212.12 225 1026.12 337 970.62 448 1005.12 337 1166.62 225 1317.44 111 1397.29 0 1463.95 -117 1436.12 -1.67 1384.62 111" fill="none" stroke="#3b4351" stroke-miterlimit="10"/></g><g id="Text"><g id="Indians-2" data-name="Indians"><path d="M1505.57,90.66h2.8v17.5h-2.8Z" fill="#3b4351"/><path d="M1511.13,90.66h3.41l5.07,13h.05v-13h2.65v17.5h-3.41l-5.07-13.38h0v13.38h-2.65Z" fill="#3b4351"/><path d="M1525.2,90.66h5c5.49,0,6.18,3.58,6.18,8.75s-.69,8.75-6.18,8.75h-5Zm2.79,15.39h2.3c2.31,0,3.26-1.52,3.26-6.64,0-4.93-.83-6.64-3.26-6.64H1528Z" fill="#3b4351"/><path d="M1538.7,90.66h2.79v17.5h-2.79Z" fill="#3b4351"/><path d="M1547.56,90.66h3.58l4.61,17.5h-2.92l-1.07-4.29h-5.13l-1.12,4.29h-2.92Zm3.73,11-2-8.63h0l-2.08,8.63Z" fill="#3b4351"/></g><g id="Chinese-2" data-name="Chinese"><path d="M1655.16,31.5H1658v7.62h0l5.29-7.62h3.06l-5,7.37L1666.89,49h-3.16l-4.24-7.86-1.54,2.2V49h-2.79Z" fill="#3b4351"/><path d="M1667.82,31.3h2.65V34h-2.65Zm0,4.51h2.65V49h-2.65Z" fill="#3b4351"/><path d="M1673.14,35.81h2.5v1.54h.07a3.79,3.79,0,0,1,3.38-1.89c2,0,3.29.91,3.29,3.58V49h-2.65V40c0-1.76-.46-2.38-1.84-2.38-1.08,0-2.11.81-2.11,2.58V49h-2.64Z" fill="#3b4351"/><path d="M1691,31.5h5c5.49,0,6.17,3.57,6.17,8.74S1701.44,49,1696,49h-5Zm2.8,15.38h2.3c2.3,0,3.26-1.51,3.26-6.64,0-4.92-.83-6.64-3.26-6.64h-2.3Z" fill="#3b4351"/><path d="M1706.19,35.81l2.28,9.9h0l2.1-9.9h2.77l-3.62,13.67c-1.06,3.6-1.87,4.1-4.61,4a4.62,4.62,0,0,1-1.05-.1V51.3a3.51,3.51,0,0,0,.85.09c.91,0,1.5-.17,1.79-1l.35-1.08-3.75-13.48Z" fill="#3b4351"/><path d="M1714.86,35.81h2.5v1.54h.07a3.82,3.82,0,0,1,3.39-1.89c2,0,3.28.91,3.28,3.58V49h-2.65V40c0-1.76-.46-2.38-1.83-2.38-1.08,0-2.11.81-2.11,2.58V49h-2.65Z" fill="#3b4351"/><path d="M1735.3,46.25c0,.49.29.93.68.93a1.14,1.14,0,0,0,.44-.07v1.71a2.83,2.83,0,0,1-1.3.32c-1.17,0-2.15-.47-2.23-1.74h0a3.41,3.41,0,0,1-3.29,1.94c-2.13,0-3.43-1.16-3.43-3.71,0-2.94,1.3-3.55,3.06-4.14l2.06-.56c1-.27,1.55-.54,1.55-1.69s-.42-2-1.82-2c-1.76,0-2,1.25-2,2.52h-2.5c0-2.82,1.16-4.34,4.64-4.34,2.32,0,4.19.91,4.19,3.24ZM1732.8,42a21,21,0,0,1-2.94,1.23,2.17,2.17,0,0,0-1.08,2.13c0,1.1.54,2,1.64,2,1.59,0,2.38-1.17,2.38-3.13Z" fill="#3b4351"/><path d="M1743.67,39.66v-.35c0-1.05-.36-2-1.74-2-1,0-1.88.46-1.88,1.71,0,1.06.46,1.45,1.86,1.94l1.69.59c2,.66,2.87,1.71,2.87,3.8,0,2.81-2.08,4-4.73,4-3.33,0-4.34-1.55-4.34-4.1v-.49h2.35v.42c0,1.54.52,2.35,2.06,2.35s2.16-.73,2.16-1.93a1.91,1.91,0,0,0-1.45-1.94l-2.15-.76c-2-.66-2.82-1.69-2.82-3.8,0-2.47,1.76-3.63,4.51-3.63,3.35,0,4.11,2,4.11,3.61v.59Z" fill="#3b4351"/><path d="M1747.25,35.81h1.81V32.06h2.65v3.75h2.16v2h-2.16v7.86c0,1.06.29,1.4,1.2,1.4a5.1,5.1,0,0,0,1-.07v2a8.58,8.58,0,0,1-2.14.22c-1.76,0-2.67-.52-2.67-3.19V37.77h-1.81Z" fill="#3b4351"/><path d="M1757,35.81l2.28,9.9h0l2.11-9.9h2.77l-3.63,13.67c-1,3.6-1.86,4.1-4.61,4a4.67,4.67,0,0,1-1-.1V51.3a3.54,3.54,0,0,0,.86.09c.9,0,1.49-.17,1.78-1l.35-1.08-3.75-13.48Z" fill="#3b4351"/></g></g></svg>