<svg id="Text" xmlns="http://www.w3.org/2000/svg" viewBox="0 0 1847.91 117"><title>ce1100text</title><g id="France"><path d="M338.11,86.25h9.34V88.6h-6.54v4.85h6.15V95.8h-6.15v7.94h-2.8Z"/><path d="M349.45,86.25h6.18c2.45,0,4.44,1.25,4.44,4.51,0,2.25-1,4-2.92,4.28v0c1.76.18,2.65,1.13,2.74,3.58,0,1.15,0,2.5.1,3.55a1.92,1.92,0,0,0,.84,1.52h-3.17a2.87,2.87,0,0,1-.46-1.54c-.05-.51-.07-1-.07-1.57s0-1.1-.05-1.74c-.08-1.91-.67-2.74-2.55-2.74h-2.28v7.59h-2.8Zm5,7.79a2.58,2.58,0,0,0,2.79-2.84c0-1.87-.78-2.85-2.64-2.85h-2.38V94Z"/><path d="M365.92,86.25h3.58l4.6,17.49h-2.91l-1.08-4.28H365l-1.13,4.28h-2.92Zm3.72,11-2-8.63h0l-2.09,8.63Z"/><path d="M375.33,86.25h3.4l5.08,13h0v-13h2.65v17.49h-3.41L378,90.36h0v13.38h-2.64Z"/><path d="M400.15,97.47v.37c0,3.16-1.3,6.25-5.39,6.25-4.42,0-5.79-2.85-5.79-9.09s1.37-9.1,5.81-9.1c5,0,5.27,3.66,5.27,5.49v.32h-2.79v-.29c0-1.64-.49-3.48-2.5-3.41s-3,1.28-3,6.91.9,7.06,3,7.06c2.35,0,2.59-2.57,2.59-4.22v-.29Z"/><path d="M402.1,86.25h9.46V88.6H404.9v4.85h6.27V95.8H404.9v5.59h6.86v2.35H402.1Z"/></g><g id="Holy_Roman_Empire_to_Austria" data-name="Holy Roman Empire to Austria"><path d="M542.56,99.37v.37c0,3.16-1.3,6.25-5.39,6.25-4.41,0-5.78-2.84-5.78-9.09s1.37-9.09,5.8-9.09c5,0,5.27,3.65,5.27,5.49v.32h-2.79v-.3c0-1.64-.49-3.48-2.5-3.4s-3,1.27-3,6.91.91,7,3,7c2.35,0,2.6-2.57,2.6-4.21v-.3Z"/><path d="M544.35,92.46H547v2.06h0a3.26,3.26,0,0,1,3.07-2.4,1.5,1.5,0,0,1,.63.1v2.69a3.8,3.8,0,0,0-1.1-.14c-1.2,0-2.65.54-2.65,3v7.89h-2.64Z"/><path d="M558.8,104.1h-.07a3.77,3.77,0,0,1-3.38,1.89c-2,0-3.29-.91-3.29-4.31V92.46h2.65v9.46c0,1.47.64,2,1.79,2a2.06,2.06,0,0,0,2.16-2.2V92.46h2.64v13.19h-2.5Z"/><path d="M569.53,96.31V96c0-1.06-.36-2-1.74-2-1,0-1.88.47-1.88,1.72,0,1,.46,1.45,1.86,1.94l1.69.58c2,.67,2.87,1.72,2.87,3.8,0,2.82-2.09,4-4.73,4-3.33,0-4.34-1.54-4.34-4.09v-.49h2.35v.42c0,1.54.52,2.35,2.06,2.35s2.16-.74,2.16-1.94a1.9,1.9,0,0,0-1.45-1.93l-2.15-.76c-2-.67-2.82-1.69-2.82-3.8,0-2.48,1.76-3.63,4.51-3.63,3.35,0,4.11,2,4.11,3.6v.59Z"/><path d="M582.94,102.9c0,.49.29.93.68.93a1,1,0,0,0,.44-.07v1.72a2.83,2.83,0,0,1-1.3.31c-1.17,0-2.15-.46-2.23-1.73h0A3.43,3.43,0,0,1,577.2,106c-2.13,0-3.43-1.15-3.43-3.7,0-2.94,1.3-3.55,3.06-4.14l2.06-.56c1-.27,1.55-.54,1.55-1.69s-.42-2-1.82-2c-1.76,0-2,1.25-2,2.53h-2.5c0-2.82,1.16-4.34,4.64-4.34,2.32,0,4.19.91,4.19,3.24Zm-2.5-4.21a20.94,20.94,0,0,1-2.94,1.22,2.18,2.18,0,0,0-1.08,2.14c0,1.1.54,2,1.64,2,1.59,0,2.38-1.18,2.38-3.14Z"/><path d="M592.37,104h0a2.82,2.82,0,0,1-2.89,2c-3.07,0-4.32-2.6-4.32-7.11,0-5.85,2.06-6.76,4.07-6.76a3,3,0,0,1,3,1.89h.05V88.15h2.65v17.5h-2.5Zm-2.4-9.8c-1.5,0-2.06,1.22-2.06,4.78,0,3,.37,4.87,2.23,4.87s2.23-1.83,2.23-4.68C592.37,96,592,94.23,590,94.23Z"/><path d="M599.69,99.4v.76c0,1.76.22,4,2.21,4s2.1-2.13,2.1-2.94h2.5c0,3-1.76,4.75-4.63,4.75-2.15,0-4.82-.64-4.82-6.74,0-3.45.76-7.13,4.87-7.13,3.68,0,4.66,2.23,4.66,5.88v1.4Zm4.24-1.81v-.72c0-1.66-.54-2.94-2-2.94-1.67,0-2.21,1.67-2.21,3.39v.27Z"/><path d="M614.44,96.31V96c0-1.06-.37-2-1.74-2-1.05,0-1.89.47-1.89,1.72,0,1,.47,1.45,1.87,1.94l1.69.58c2,.67,2.87,1.72,2.87,3.8,0,2.82-2.09,4-4.73,4-3.34,0-4.34-1.54-4.34-4.09v-.49h2.35v.42c0,1.54.52,2.35,2.06,2.35s2.16-.74,2.16-1.94a1.9,1.9,0,0,0-1.45-1.93l-2.16-.76c-2-.67-2.82-1.69-2.82-3.8,0-2.48,1.77-3.63,4.51-3.63,3.36,0,4.12,2,4.12,3.6v.59Z"/></g></svg>