<svg xmlns="http://www.w3.org/2000/svg" viewBox="0 0 1847.91 117"><title>ce1100text</title><g id="Text"><g id="France"><path d="M338.11,86.25h9.34V88.6h-6.54v4.85h6.15V95.8h-6.15v7.94h-2.8Z"/><path d="M349.45,86.25h6.18c2.45,0,4.44,1.25,4.44,4.51,0,2.25-1,4-2.92,4.28v0c1.76.18,2.65,1.13,2.74,3.58,0,1.15,0,2.5.1,3.55a1.92,1.92,0,0,0,.84,1.52h-3.17a2.87,2.87,0,0,1-.46-1.54c-.05-.51-.07-1-.07-1.57s0-1.1-.05-1.74c-.08-1.91-.67-2.74-2.55-2.74h-2.28v7.59h-2.8Zm5,7.79a2.58,2.58,0,0,0,2.79-2.84c0-1.87-.78-2.85-2.64-2.85h-2.38V94Z"/><path d="M365.92,86.25h3.58l4.6,17.49h-2.91l-1.08-4.28H365l-1.13,4.28h-2.92Zm3.72,11-2-8.63h0l-2.09,8.63Z"/><path d="M375.33,86.25h3.4l5.08,13h0v-13h2.65v17.49h-3.41L378,90.36h0v13.38h-2.64Z"/><path d="M400.15,97.47v.37c0,3.16-1.3,6.25-5.39,6.25-4.42,0-5.79-2.85-5.79-9.09s1.37-9.1,5.81-9.1c5,0,5.27,3.66,5.27,5.49v.32h-2.79v-.29c0-1.64-.49-3.48-2.5-3.41s-3,1.28-3,6.91.9,7.06,3,7.06c2.35,0,2.59-2.57,2.59-4.22v-.29Z"/><path d="M402.1,86.25h9.46V88.6H404.9v4.85h6.27V95.8H404.9v5.59h6.86v2.35H402.1Z"/></g><g id="Holy_Roman_Empire_to_Austria" data-name="Holy Roman Empire to Austria"><path d="M542.56,99.37v.37c0,3.16-1.3,6.25-5.39,6.25-4.41,0-5.78-2.84-5.78-9.09s1.37-9.09,5.8-9.09c5,0,5.27,3.65,5.27,5.49v.32h-2.79v-.3c0-1.64-.49-3.48-2.5-3.4s-3,1.27-3,6.91.91,7,3,7c2.35,0,2.6-2.57,2.6-4.21v-.3Z"/><path d="M544.35,92.46H547v2.06h0a3.26,3.26,0,0,1,3.07-2.4,1.5,1.5,0,0,1,.63.1v2.69a3.8,3.8,0,0,0-1.1-.14c-1.2,0-2.65.54-2.65,3v7.89h-2.64Z"/><path d="M558.8,104.1h-.07a3.77,3.77,0,0,1-3.38,1.89c-2,0-3.29-.91-3.29-4.31V92.46h2.65v9.46c0,1.47.64,2,1.79,2a2.06,2.06,0,0,0,2.16-2.2V92.46h2.64v13.19h-2.5Z"/><path d="M569.53,96.31V96c0-1.06-.36-2-1.74-2-1,0-1.88.47-1.88,1.72,0,1,.46,1.45,1.86,1.94l1.69.58c2,.67,2.87,1.72,2.87,3.8,0,2.82-2.09,4-4.73,4-3.33,0-4.34-1.54-4.34-4.09v-.49h2.35v.42c0,1.54.52,2.35,2.06,2.35s2.16-.74,2.16-1.94a1.9,1.9,0,0,0-1.45-1.93l-2.15-.76c-2-.67-2.82-1.69-2.82-3.8,0-2.48,1.76-3.63,4.51-3.63,3.35,0,4.11,2,4.11,3.6v.59Z"/><path d="M582.94,102.9c0,.49.29.93.68.93a1,1,0,0,0,.44-.07v1.72a2.83,2.83,0,0,1-1.3.31c-1.17,0-2.15-.46-2.23-1.73h0A3.43,3.43,0,0,1,577.2,106c-2.13,0-3.43-1.15-3.43-3.7,0-2.94,1.3-3.55,3.06-4.14l2.06-.56c1-.27,1.55-.54,1.55-1.69s-.42-2-1.82-2c-1.76,0-2,1.25-2,2.53h-2.5c0-2.82,1.16-4.34,4.64-4.34,2.32,0,4.19.91,4.19,3.24Zm-2.5-4.21a20.94,20.94,0,0,1-2.94,1.22,2.18,2.18,0,0,0-1.08,2.14c0,1.1.54,2,1.64,2,1.59,0,2.38-1.18,2.38-3.14Z"/><path d="M592.37,104h0a2.82,2.82,0,0,1-2.89,2c-3.07,0-4.32-2.6-4.32-7.11,0-5.85,2.06-6.76,4.07-6.76a3,3,0,0,1,3,1.89h.05V88.15h2.65v17.5h-2.5Zm-2.4-9.8c-1.5,0-2.06,1.22-2.06,4.78,0,3,.37,4.87,2.23,4.87s2.23-1.83,2.23-4.68C592.37,96,592,94.23,590,94.23Z"/><path d="M599.69,99.4v.76c0,1.76.22,4,2.21,4s2.1-2.13,2.1-2.94h2.5c0,3-1.76,4.75-4.63,4.75-2.15,0-4.82-.64-4.82-6.74,0-3.45.76-7.13,4.87-7.13,3.68,0,4.66,2.23,4.66,5.88v1.4Zm4.24-1.81v-.72c0-1.66-.54-2.94-2-2.94-1.67,0-2.21,1.67-2.21,3.39v.27Z"/><path d="M614.44,96.31V96c0-1.06-.37-2-1.74-2-1.05,0-1.89.47-1.89,1.72,0,1,.47,1.45,1.87,1.94l1.69.58c2,.67,2.87,1.72,2.87,3.8,0,2.82-2.09,4-4.73,4-3.34,0-4.34-1.54-4.34-4.09v-.49h2.35v.42c0,1.54.52,2.35,2.06,2.35s2.16-.74,2.16-1.94a1.9,1.9,0,0,0-1.45-1.93l-2.16-.76c-2-.67-2.82-1.69-2.82-3.8,0-2.48,1.77-3.63,4.51-3.63,3.36,0,4.12,2,4.12,3.6v.59Z"/></g><g id="Ghaznivids"><path d="M1406.37,104.25h0a3.63,3.63,0,0,1-3.82,2.38c-3.83,0-5.2-2.84-5.2-9.09s1.77-9.09,5.81-9.09a4.75,4.75,0,0,1,5.12,5v.32h-2.65V93.4c0-1.3-.53-2.85-2.45-2.85s-3,1.33-3,6.91.93,7.06,2.81,7.06c2.14,0,2.92-1.52,2.92-5.34h-2.94V97.07h5.59v9.22h-2.11Z"/><path d="M1410.87,88.79h2.8v7h5.14v-7h2.8v17.5h-2.8V98.15h-5.14v8.14h-2.8Z"/><path d="M1427.8,88.79h3.58l4.61,17.5h-2.92L1432,102h-5.12l-1.12,4.29h-2.92Zm3.73,11-2-8.63h0l-2.08,8.63Z"/><path d="M1436.21,104.08l7.32-12.94h-6.88V88.79h9.95v2.35l-7.33,12.79h7.4v2.36h-10.46Z"/><path d="M1448.56,88.79h3.4l5.07,13h0v-13h2.65v17.5h-3.41l-5.07-13.38h0v13.38h-2.64Z"/><path d="M1462.49,88.79h2.8v17.5h-2.8Z"/><path d="M1466.46,88.79h3l3,14h0l3.14-14h3l-4.41,17.5h-3.55Z"/><path d="M1479.72,88.79h2.79v17.5h-2.79Z"/><path d="M1485.28,88.79h5c5.49,0,6.18,3.58,6.18,8.75s-.69,8.75-6.18,8.75h-5Zm2.79,15.39h2.31c2.3,0,3.26-1.52,3.26-6.64,0-4.93-.84-6.64-3.26-6.64h-2.31Z"/><path d="M1501.06,100.87v.44c0,2.13,1,3.21,2.86,3.21a2.51,2.51,0,0,0,2.65-2.55c0-1.84-.93-2.64-2.5-3.11l-1.91-.66c-2.55-1-3.65-2.3-3.65-4.8,0-3.19,2.18-5,5.44-5,4.48,0,5,2.79,5,4.6v.4h-2.8v-.37c0-1.6-.68-2.53-2.45-2.53a2.23,2.23,0,0,0-2.35,2.53c0,1.49.76,2.25,2.62,3l1.89.69c2.48.88,3.55,2.2,3.55,4.63,0,3.72-2.25,5.27-5.78,5.27-4.34,0-5.32-2.89-5.32-5.34v-.42Z"/></g><g id="Russia-2" data-name="Russia"><path d="M1509.89,46.12h6.17c2.45,0,4.44,1.25,4.44,4.51,0,2.25-1,4-2.92,4.29v0c1.77.17,2.65,1.13,2.75,3.58,0,1.15,0,2.5.1,3.55a1.89,1.89,0,0,0,.83,1.52h-3.16a3,3,0,0,1-.47-1.55c-.05-.51-.07-1-.07-1.56s0-1.11,0-1.74c-.07-1.91-.66-2.75-2.55-2.75h-2.28v7.6h-2.79Zm5,7.79a2.58,2.58,0,0,0,2.8-2.84c0-1.86-.79-2.84-2.65-2.84h-2.38v5.68Z"/><path d="M1525.62,46.12V58.67c0,2.23.88,3.18,2.57,3.18s2.55-1,2.55-3.18V46.12h2.79V58.45c0,4-2,5.51-5.34,5.51s-5.37-1.47-5.37-5.51V46.12Z"/><path d="M1538.36,58.2v.44c0,2.14,1,3.21,2.87,3.21a2.5,2.5,0,0,0,2.64-2.54c0-1.84-.93-2.65-2.5-3.12l-1.91-.66c-2.55-1-3.65-2.3-3.65-4.8,0-3.19,2.18-4.95,5.44-4.95,4.48,0,5,2.79,5,4.61v.39h-2.79v-.37c0-1.59-.69-2.52-2.45-2.52a2.23,2.23,0,0,0-2.36,2.52c0,1.5.76,2.25,2.63,3l1.88.69c2.48.88,3.55,2.21,3.55,4.63,0,3.73-2.25,5.27-5.78,5.27-4.34,0-5.32-2.89-5.32-5.34V58.2Z"/><path d="M1551.07,58.2v.44q0,3.21,2.87,3.21a2.51,2.51,0,0,0,2.65-2.54c0-1.84-.93-2.65-2.5-3.12l-1.91-.66c-2.55-1-3.66-2.3-3.66-4.8,0-3.19,2.19-4.95,5.45-4.95,4.48,0,4.94,2.79,4.94,4.61v.39h-2.79v-.37c0-1.59-.69-2.52-2.45-2.52a2.23,2.23,0,0,0-2.35,2.52c0,1.5.76,2.25,2.62,3l1.89.69c2.47.88,3.55,2.21,3.55,4.63,0,3.73-2.25,5.27-5.78,5.27-4.34,0-5.32-2.89-5.32-5.34V58.2Z"/><path d="M1561.51,46.12h2.79v17.5h-2.79Z"/><path d="M1570.38,46.12H1574l4.6,17.5h-2.91l-1.08-4.29h-5.12l-1.13,4.29h-2.92Zm3.72,11-2-8.63h0L1570,57.1Z"/></g></g><g id="YEARS"><g id="Right"><path d="M1787.21,111.56V98.2h-3.82V96.27h.29c1.77,0,3.79-.44,4.34-2.75v-.37h2.16v18.41Z"/><path d="M1799.69,111.56V98.2h-3.82V96.27h.29c1.77,0,3.79-.44,4.34-2.75v-.37h2.16v18.41Z"/><path d="M1813,93.15c3.54,0,5.51,2.21,5.51,9.39s-2,9.39-5.51,9.39-5.51-2.21-5.51-9.39S1809.49,93.15,1813,93.15Zm0,16.7c2,0,2.55-2,2.55-7.31s-.55-7.31-2.55-7.31-2.55,2-2.55,7.31S1811,109.85,1813,109.85Z"/><path d="M1825.51,93.15c3.54,0,5.51,2.21,5.51,9.39s-2,9.39-5.51,9.39-5.51-2.21-5.51-9.39S1822,93.15,1825.51,93.15Zm0,16.7c2,0,2.55-2,2.55-7.31s-.55-7.31-2.55-7.31-2.55,2-2.55,7.31S1823.51,109.85,1825.51,109.85Z"/></g><g id="left"><path d="M17.46,115.16V101.8H13.64V99.87h.29c1.77,0,3.79-.44,4.34-2.75v-.37h2.16v18.41Z"/><path d="M29.94,115.16V101.8H26.12V99.87h.29c1.77,0,3.79-.44,4.34-2.75v-.37h2.16v18.41Z"/><path d="M43.28,96.75c3.54,0,5.51,2.21,5.51,9.39s-2,9.39-5.51,9.39-5.51-2.22-5.51-9.39S39.75,96.75,43.28,96.75Zm0,16.7c2,0,2.55-2,2.55-7.31s-.55-7.31-2.55-7.31-2.55,2-2.55,7.31S41.28,113.45,43.28,113.45Z"/><path d="M55.76,96.75c3.54,0,5.51,2.21,5.51,9.39s-2,9.39-5.51,9.39-5.51-2.22-5.51-9.39S52.22,96.75,55.76,96.75Zm0,16.7c2,0,2.55-2,2.55-7.31s-.55-7.31-2.55-7.31-2.55,2-2.55,7.31S53.76,113.45,55.76,113.45Z"/></g></g></svg>