<svg xmlns="http://www.w3.org/2000/svg" viewBox="0 0 1847.91 114"><title>ce1200text</title><g id="Text"><g id="Indians"><path d="M1461,6.66a20.68,20.68,0,0,0-2.8,11,21.39,21.39,0,0,0,2.8,11h-1.89a18.73,18.73,0,0,1,.05-22Z"/><path d="M1462.41,6.66h2.8v7h5.14v-7h2.79v17.5h-2.79V16h-5.14v8.14h-2.8Z"/><path d="M1476,6.47h2.65V9.11H1476Zm0,4.5h2.65V24.16H1476Z"/><path d="M1481.3,11h2.5v1.55h.07a3.8,3.8,0,0,1,3.39-1.89c2,0,3.28.91,3.28,3.58v10h-2.65v-9c0-1.77-.46-2.38-1.83-2.38-1.08,0-2.11.81-2.11,2.57v8.85h-2.65Z"/><path d="M1499.82,22.54h0a2.8,2.8,0,0,1-2.89,2c-3.06,0-4.31-2.6-4.31-7.1,0-5.86,2.06-6.77,4.07-6.77a3.05,3.05,0,0,1,3,1.89h0V6.66h2.64v17.5h-2.5Zm-2.4-9.8c-1.49,0-2.06,1.22-2.06,4.78,0,3,.37,4.87,2.23,4.87s2.23-1.83,2.23-4.68C1499.82,14.55,1499.48,12.74,1497.42,12.74Z"/><path d="M1511.61,22.62h-.08a3.78,3.78,0,0,1-3.38,1.88c-2,0-3.28-.9-3.28-4.31V11h2.65v9.46c0,1.47.63,2,1.79,2a2,2,0,0,0,2.15-2.2V11h2.65V24.16h-2.5Z"/><path d="M1522.34,14.82v-.34c0-1.05-.37-2-1.74-2-1,0-1.89.46-1.89,1.71,0,1.05.47,1.45,1.86,1.94l1.7.59c2,.66,2.86,1.71,2.86,3.79,0,2.82-2.08,4-4.73,4-3.33,0-4.34-1.54-4.34-4.09v-.49h2.36v.42c0,1.54.51,2.35,2.06,2.35s2.15-.74,2.15-1.94a1.91,1.91,0,0,0-1.44-1.93l-2.16-.76c-2-.66-2.82-1.69-2.82-3.8,0-2.48,1.77-3.63,4.51-3.63,3.36,0,4.12,2,4.12,3.6v.59Z"/><path d="M1525.82,28.67a20.68,20.68,0,0,0,2.79-11,21.4,21.4,0,0,0-2.79-11h1.88a18.68,18.68,0,0,1,0,22Z"/></g><g id="Papacy"><path d="M887.09,7.29h5.54c3.36,0,4.83,2.11,4.83,5.09,0,3.14-1.86,5.18-5.12,5.18h-2.45v7.23h-2.8Zm2.8,8.16h2c1.5,0,2.79-.79,2.79-3,0-1.88-.76-3-3-3h-1.78Z"/><path d="M901.74,7.29h3.58l4.61,17.5H907l-1.08-4.29h-5.12l-1.12,4.29h-2.92Zm3.73,11-2-8.63h-.05l-2.08,8.63Z"/><path d="M911.15,7.29h5.54c3.36,0,4.83,2.11,4.83,5.09,0,3.14-1.87,5.18-5.12,5.18h-2.46v7.23h-2.79Zm2.79,8.16h2c1.49,0,2.79-.79,2.79-3,0-1.88-.76-3-3-3h-1.79Z"/><path d="M925.8,7.29h3.58L934,24.79h-2.92L930,20.5h-5.12l-1.12,4.29h-2.92Zm3.73,11-2-8.63h0l-2.08,8.63Z"/><path d="M946,18.51v.37c0,3.16-1.3,6.25-5.39,6.25-4.41,0-5.79-2.84-5.79-9.09S936.17,7,940.6,7c5,0,5.27,3.65,5.27,5.48v.32h-2.79v-.29c0-1.64-.49-3.48-2.5-3.41s-3,1.28-3,6.91.9,7.06,3,7.06c2.35,0,2.59-2.57,2.59-4.21v-.3Z"/><path d="M950.89,18,946.38,7.29h3.11l2.94,7.55,3-7.55h2.92L953.68,18v6.84h-2.79Z"/></g></g><g id="YEARS"><g id="Right"><path d="M1787.21,109.56V96.2h-3.82V94.27h.29c1.77,0,3.79-.44,4.34-2.75v-.37h2.16v18.41Z"/><path d="M1805.93,109.56h-10.76c0-8,7.72-7.82,7.72-13.54,0-1.54-.65-2.79-2.29-2.79-2.21,0-2.57,2-2.57,3.85h-2.81c0-3.64,1.51-5.93,5.43-5.93,3.75,0,5.21,2.24,5.21,4.92,0,6.11-6,6.47-7.39,11h7.46Z"/><path d="M1813,91.15c3.54,0,5.51,2.21,5.51,9.39s-2,9.39-5.51,9.39-5.51-2.21-5.51-9.39S1809.49,91.15,1813,91.15Zm0,16.7c2,0,2.55-2,2.55-7.31s-.55-7.31-2.55-7.31-2.55,2-2.55,7.31S1811,107.85,1813,107.85Z"/><path d="M1825.51,91.15c3.54,0,5.51,2.21,5.51,9.39s-2,9.39-5.51,9.39-5.51-2.21-5.51-9.39S1822,91.15,1825.51,91.15Zm0,16.7c2,0,2.55-2,2.55-7.31s-.55-7.31-2.55-7.31-2.55,2-2.55,7.31S1823.51,107.85,1825.51,107.85Z"/></g><g id="left"><path d="M17.46,113.16V99.8H13.64V97.87h.29c1.77,0,3.79-.44,4.34-2.75v-.37h2.16v18.41Z"/><path d="M36.18,113.16H25.42c0-8,7.72-7.83,7.72-13.54,0-1.54-.65-2.79-2.29-2.79-2.21,0-2.57,2-2.57,3.85H25.47c0-3.64,1.51-5.93,5.44-5.93,3.74,0,5.2,2.24,5.2,4.92,0,6.11-6,6.47-7.39,11h7.46Z"/><path d="M43.28,94.75c3.54,0,5.51,2.21,5.51,9.39s-2,9.39-5.51,9.39-5.51-2.22-5.51-9.39S39.75,94.75,43.28,94.75Zm0,16.7c2,0,2.55-2,2.55-7.31s-.55-7.31-2.55-7.31-2.55,2-2.55,7.31S41.28,111.45,43.28,111.45Z"/><path d="M55.76,94.75c3.54,0,5.51,2.21,5.51,9.39s-2,9.39-5.51,9.39-5.51-2.22-5.51-9.39S52.22,94.75,55.76,94.75Zm0,16.7c2,0,2.55-2,2.55-7.31s-.55-7.31-2.55-7.31-2.55,2-2.55,7.31S53.76,111.45,55.76,111.45Z"/></g></g></svg>