<svg xmlns="http://www.w3.org/2000/svg" viewBox="0 0 1847.91 114"><title>ce1200text</title><g id="YEARS"><g id="Right"><path d="M1792.5,109.56V96.2h-3.82V94.28h.28c1.77,0,3.8-.45,4.35-2.76v-.36h2.15v18.4Z" fill="#3b4351"/><path d="M1811.22,109.56h-10.77c0-8,7.73-7.82,7.73-13.54,0-1.54-.65-2.78-2.29-2.78-2.21,0-2.58,2-2.58,3.84h-2.8c0-3.64,1.5-5.92,5.43-5.92,3.74,0,5.2,2.23,5.2,4.91,0,6.11-6,6.47-7.38,11h7.46Z" fill="#3b4351"/><path d="M1818.32,91.16c3.53,0,5.51,2.21,5.51,9.38s-2,9.39-5.51,9.39-5.52-2.21-5.52-9.39S1814.78,91.16,1818.32,91.16Zm0,16.69c2,0,2.54-2,2.54-7.31s-.54-7.3-2.54-7.3-2.55,2-2.55,7.3S1816.31,107.85,1818.32,107.85Z" fill="#3b4351"/><path d="M1830.8,91.16c3.53,0,5.51,2.21,5.51,9.38s-2,9.39-5.51,9.39-5.52-2.21-5.52-9.39S1827.26,91.16,1830.8,91.16Zm0,16.69c2,0,2.54-2,2.54-7.31s-.54-7.3-2.54-7.3-2.55,2-2.55,7.3S1828.79,107.85,1830.8,107.85Z" fill="#3b4351"/></g><g id="left"><path d="M17.46,111.47V98.11H13.64V96.18h.29c1.77,0,3.79-.44,4.34-2.75v-.37h2.16v18.41Z" fill="#3b4351"/><path d="M36.18,111.47H25.42c0-8,7.72-7.83,7.72-13.55,0-1.53-.65-2.78-2.29-2.78-2.21,0-2.57,2-2.57,3.85H25.47c0-3.64,1.51-5.93,5.44-5.93,3.74,0,5.2,2.24,5.2,4.92,0,6.11-6,6.47-7.39,11h7.46Z" fill="#3b4351"/><path d="M43.28,93.06c3.54,0,5.51,2.21,5.51,9.39s-2,9.38-5.51,9.38-5.51-2.21-5.51-9.38S39.75,93.06,43.28,93.06Zm0,16.69c2,0,2.55-2,2.55-7.3s-.55-7.31-2.55-7.31-2.55,2-2.55,7.31S41.28,109.75,43.28,109.75Z" fill="#3b4351"/><path d="M55.76,93.06c3.54,0,5.51,2.21,5.51,9.39s-2,9.38-5.51,9.38-5.51-2.21-5.51-9.38S52.22,93.06,55.76,93.06Zm0,16.69c2,0,2.55-2,2.55-7.3s-.55-7.31-2.55-7.31-2.55,2-2.55,7.31S53.76,109.75,55.76,109.75Z" fill="#3b4351"/></g></g><g id="Nation_OUtlines" data-name="Nation OUtlines"><polygon id="Romans" points="854.62 788 829.93 675 711.95 566 764.62 452 729.95 337 845.28 226 1002.62 114 1065.29 0 1021.28 -111 995.34 -228 815.28 -336 703.28 -447 687.28 -562 737.95 -676 780.62 -788 712.62 -899 645.95 -1013 550.62 -1126 491.95 -1235.83 453.95 -1348.83 455.29 -1460.83 435.95 -1575.83 470.62 -1683.83 322.62 -1683.83 416.12 -1796.83 480.12 -1906.83 410.62 -2018.83 316.95 -2132.83 248.28 -2247.83 210.28 -2358.83 175.95 -2469.83 159.62 -2585.83 91.28 -2698.83 83.12 -2803.83 117.62 -2917.83 151.37 -3031.83 129.62 -3141.83 109.62 -3256.83 99.62 -3368.83 73.12 -3478.83 75.42 -4376.83 85.95 -4266.83 95.28 -4154.83 111.95 -4042.83 116.62 -3931.83 137.95 -3818.83 149.95 -3702.83 169.95 -3590.83 205.28 -3478.83 231.95 -3368.83 287.74 -3256.83 467.73 -3141.83 683.72 -3031.83 998.71 -2917.83 1118.7 -2803.83 1131.14 -2698.83 1195.2 -2585.83 1182.62 -2469.83 1245.62 -2358.83 1220.62 -2247.83 1122.62 -2132.83 981.62 -2018.83 880.12 -1906.83 717.95 -1796.83 593.62 -1683.83 616.62 -1575.83 717.28 -1460.83 839.28 -1345.99 863.28 -1235.83 915.28 -1126 810.62 -1013 885.95 -899 1037.95 -788 1125.95 -676 1253.95 -562 1213.95 -447 1202.62 -336 1169.95 -228 1161.29 -111 1218.62 0 1131.95 114 936.62 226 798.62 337 819.28 452 759.95 566 849.28 675 854.62 788" fill="none" stroke="#3b4351" stroke-miterlimit="10"/><polygon id="Indians" points="1372.19 -4712.66 1294.19 -4826.83 1285.19 -4939.83 1313.69 -5050.83 1348.19 -5163.83 1310.69 -5277.83 1298.69 -5387.83 1313.69 -5499.83 1345.19 -5611.83 1325.69 -5725.83 1343.69 -5839.83 1417.19 -5950.83 1400.69 -6063.91 1429.19 -6176.83 1419.27 -6292.1 1387.19 -6403.83 1387.19 -6515.83 1438.19 -6626.33 1462.18 -6738.33 1480.18 -6851.37 1445.82 -6961.66 1411.11 -7073.66 1545.86 -7073.66 1580.1 -6961.66 1593.12 -6851.43 1552.12 -6738.33 1514.62 -6626.33 1514.12 -6516.16 1553.12 -6404.1 1548.12 -6291.83 1519.62 -6176.83 1534.12 -6063.16 1575.12 -5950.83 1559.62 -5839.83 1564.12 -5726.1 1534.62 -5611.83 1486.12 -5499.83 1465.12 -5387.83 1471.12 -5278.66 1502.12 -5164.66 1508.12 -5050.83 1534.62 -4939.83 1542.77 -4860.97 1555.62 -4712.66 1554.62 -4603.83 1567.12 -4491.83 1542.12 -4377.1 1498.12 -4266.83 1490.62 -4154.83 1513.12 -4042.83 1568.62 -3931.83 1544.12 -3818.83 1530.62 -3703.1 1523.62 -3591.1 1532.62 -3478.83 1565.12 -3368.83 1543.62 -3256.83 1514.12 -3141.83 1490.12 -3032.1 1495.62 -2917.83 1517.12 -2804.16 1528.12 -2698.83 1580.62 -2586.16 1578.12 -2470.16 1578.12 -2359.66 1560.12 -2248.1 1526.62 -2132.83 1467.62 -2018.83 1381.62 -1907.1 1270.62 -1796.83 1090.12 -1684.1 860.62 -1575.83 1302.12 -1460.83 1377.03 -1348.83 1550.62 -1235.83 1519.62 -1126 1476.12 -1013 1516.13 -899 1534.62 -786.66 1552.65 -676 1585.62 -562.1 1620.12 -447 1650.12 -336 1630.62 -228.1 1622.45 -111.1 1565.62 0 1402.62 113.34 1173.62 226 1148.62 337 1334.62 452 1283.62 566 1344.62 675 1544.62 788 1602.62 902.34 1627.62 1014 1674.62 1126.9 1627.62 1242 1634.62 1354 1686.62 1466 1701.62 1579 1620.12 1691 1606.12 1802 1606.12 1915.83 1552.62 1915.83 1549.52 1802 1569.62 1691 1683.62 1579 1667.62 1466 1607.62 1354 1596.62 1241.34 1617.62 1127 1584.62 1014 1562.62 902 1507.62 788 1304.62 674.9 1225.62 565.9 1236.97 528.95 1264.87 452 1082.62 337 1084.2 226.51 1323.62 114 1500.47 -0.1 1573.62 -111 1600.62 -228 1604.62 -336 1569.62 -447 1514.62 -562 1447.62 -676.1 1418.62 -788 1404.62 -899 1367.62 -1013 1397.62 -1126 1418.62 -1236.1 1339.62 -1349.1 1246.62 -1460.83 748.62 -1575.83 753.62 -1683.83 910.76 -1796.83 1053.62 -1906.83 1195.2 -2018.83 1311.62 -2133.66 1353.62 -2247.83 1348.62 -2358.83 1364.62 -2470.66 1406.62 -2585.83 1401.62 -2698.83 1429.62 -2803.83 1394.62 -2918.1 1393.2 -3031.83 1391.82 -3142.1 1437.52 -3256.83 1513.62 -3369.1 1505.64 -3478.83 1472.62 -3590.66 1447.62 -3702.83 1440.63 -3818.83 1462.62 -3931.83 1391.1 -4042.83 1348.62 -4154.83 1332.62 -4266.83 1376.98 -4376.83 1375.34 -4492.1 1373.74 -4604.1 1372.19 -4712.66" fill="none" stroke="#3b4351" stroke-miterlimit="10"/><polygon id="Chinese" points="1610.76 -4714.1 1609.69 -4827.1 1608.62 -4940.16 1585.12 -5050.83 1551.62 -5163.83 1509.12 -5277.83 1538.12 -5388.1 1586.62 -5500.1 1616.12 -5611.83 1645.62 -5726.1 1697.12 -5840.1 1714.62 -5951.16 1689.12 -6062.83 1700.12 -6176.83 1676.62 -6291.83 1650.62 -6404.16 1630.62 -6515.83 1620.62 -6626.33 1646.62 -6738.33 1667.62 -6850.99 1651.62 -6961.66 1633.99 -7073.66 1768.79 -7073.66 1768.79 1127 1768.79 1241.9 1766.12 1354 1757.62 1466 1736.12 1578.9 1676.12 1690.9 1661.12 1802 1663.62 1915.83 1606.12 1915.83 1606.12 1801.9 1620.12 1691 1701.62 1579 1696.12 1465.84 1654.12 1354 1681.62 1242 1739.62 1126.9 1748.62 1013.84 1744.12 901.84 1685.62 788 1615.12 677.34 1636.12 566 1738.62 452 1761.12 337 1758.62 226 1732.12 114 1695.62 0 1667.62 -111 1651.12 -228 1650.12 -336 1620.12 -447 1585.62 -562.1 1552.62 -676.1 1535.12 -788 1516.12 -899.1 1476.12 -1013 1542.12 -1126 1625.62 -1236.16 1668.12 -1349.16 1666.12 -1460.83 1673.62 -1575.83 1653.62 -1683.83 1602.12 -1797.1 1534.12 -1907.1 1564.12 -2018.83 1598.12 -2133.1 1612.12 -2247.83 1611.01 -2359.1 1592.62 -2470.1 1609.25 -2585.83 1616.07 -2698.83 1553.62 -2803.83 1529.62 -2917.83 1528.62 -3032.1 1555.62 -3141.83 1612.12 -3256.83 1621.12 -3368.83 1587.12 -3478.83 1567.62 -3590.83 1576.62 -3702.83 1571.12 -3818.83 1584.62 -3932.1 1558.62 -4042.83 1545.62 -4155.1 1557.62 -4267.1 1599.62 -4376.83 1625.12 -4492.1 1613.62 -4604.1 1610.76 -4714.1" fill="none" stroke="#3b4351" stroke-miterlimit="10"/><polygon id="Denmark" points="916.62 1915.83 927.62 1915.83 926.37 1802 701.12 1691 690.87 1579 683.87 1466 637.87 1354 522.37 1242 457.37 1127 426.62 1014 299.62 902 273.62 788 281.62 675 289.12 566 302.12 452 296.87 337 275.62 226 253.62 114 226.62 0 210.62 -111 199.62 -336 199.37 -447 291.37 -562 277.29 -676 235.95 -788 188.87 -899 180.62 -1013 142.62 -1126 139.95 -1235.83 120.62 -1348.83 99.95 -1460.83 73.12 -1575.83 90.34 -1460.83 107.12 -1348.83 118.37 -1235.83 120.37 -1126 122.62 -1013 125.87 -899 158.37 -788 185.87 -676 183.62 -562 127.62 -447 119.62 -336 119.12 -228 156.87 -111 188.62 0 212.62 114 252.37 226 277.87 337 283.37 452 267.12 566 248.87 675 213.87 788 234.37 902 312.12 1014 398.12 1127 458.87 1242 593.37 1354 637.87 1466 674.12 1579 691.37 1691 915.37 1802 916.62 1915.83" fill="none" stroke="#3b4351" stroke-miterlimit="10"/><polygon id="Norway" points="213.87 788 222.62 675 243.95 566 258.95 452 252.95 337 220.95 226 186.86 114 160.95 0 133.28 -111 96.28 -228 84.28 -336 89.28 -447 120.28 -562 98.62 -676 94.28 -788 91.95 -899 95.28 -1013 99.62 -1126 96.58 -1235.83 93.44 -1348.83 90.34 -1460.83 107.12 -1348.83 118.37 -1235.83 120.37 -1126 122.62 -1013 125.87 -899 158.37 -788 185.87 -676 183.62 -562 127.62 -447 119.62 -336 119.12 -228 156.87 -111 188.62 0 212.62 114 252.37 226 277.87 337 283.37 452 267.12 566 248.87 675 213.87 788" fill="none" stroke="#3b4351" stroke-miterlimit="10"/><polygon id="England" points="874.62 1915.83 688.95 1915.83 687.95 1802 439.12 1691 252.12 1579 159.62 1466 111.62 1354 93.62 1242 86.12 1127 84.62 1014 86.95 902 98.28 788 116.95 675 114.62 566 122.62 452 120.62 337 108.28 226 100.16 114 107.95 0 107.95 -111 77.28 -228 73.12 -1575.83 90.34 -1460.83 93.44 -1348.83 96.58 -1235.83 99.62 -1126 91.95 -899 94.28 -788 98.62 -676 120.28 -562 89.28 -447 84.28 -336 96.28 -228 133.28 -111 160.95 0 172.95 114 208.95 226 223.62 337 228.28 452 211.62 566 201.62 675 189.95 788 193.28 902 235.28 1014 248.62 1127 348.62 1242 562.62 1354 622.12 1466 602.12 1579 652.12 1691 872.95 1802 874.62 1915.83" fill="none" stroke="#3b4351" stroke-miterlimit="10"/><polygon id="South_America" data-name="South America" points="108.28 226 120.62 337 122.62 452 114.62 566 116.95 675 98.28 788 86.95 902 84.62 1014 79.62 1127 82.62 1242 87.62 1354 107.62 1466 145.12 1579 167.12 1691 198.12 1802 200.12 1915.83 77.28 1915.83 77.28 -228 107.95 -111 107.95 0 100.16 114 108.28 226" fill="none" stroke="#3b4351" stroke-miterlimit="10"/><polygon id="France" points="674.34 1014 785.95 1126.67 815.95 1242 963.28 1354 1049.29 1466 932.62 1579 899.28 1691 1099.75 1803 1102.12 1915.83 946.74 1915.83 946.24 1802 748.62 1691 745.95 1579 741.28 1466 711.95 1354 643.28 1242 613.28 1127 535.95 1014 385.29 902 317.95 788 311.95 675 310.62 566 321.29 452 314.62 337 275.62 226 253.62 114 258.62 2.67 325.29 -111 314.62 -228 286.62 -336 249.62 -447 291.37 -562 409.62 -562 362.62 -447 373.95 -336 423.58 -228 444.62 -111 381.95 2.67 347.12 114 361.29 226 384.62 337 391.95 452 365.95 566 379.95 675 391.29 788 491.95 902 674.34 1014" fill="none" stroke="#3b4351" stroke-miterlimit="10"/><polygon id="Franks_to_Holy_Roman_Empire" data-name="Franks to Holy Roman Empire" points="594.62 114 505.62 226 482.62 337 599.12 452 617.12 566 639.62 675 772.62 788 953.62 902 1131.62 1014 1201.62 1127 1109.12 1242 1144.62 1354 1249.12 1466 1301.62 1579 1217.12 1691 1288.12 1802 1290.62 1915.83 1234.62 1915.83 1232.12 1802 1140.12 1690.91 1137.62 1579 1115.62 1466 1053.62 1354 973.12 1242 1064.12 1127 953.62 1014 741.12 902 577.12 788 525.62 675 418.62 566 417.62 452 407.62 337 385.62 226 406.62 114 421.62 3.67 466.62 -111 441.95 -228 373.95 -336 371.78 -357.31 362.62 -447 409.62 -562 559.62 -562 626.73 -447 742.62 -336 897.74 -228 874.62 -111 818.62 0.6 594.62 114" fill="none" stroke="#3b4351" stroke-miterlimit="10"/><polygon points="703.28 -447 815.28 -336 966.12 -228 987.12 -111 1028.12 0 932.12 114 729.62 226 630.12 337 721.12 452 711.95 566 829.93 675 854.62 788 1030.37 902 1169.87 1014 1257.37 1127 1158.4 1242 1196.12 1354 1147.62 1242 1238.87 1127 1162.87 1014 1022.62 902 841.12 788 809.62 675 692.62 566 689.38 452 586.62 337 584.12 226 663.53 114 851.12 0 874.62 -111 897.74 -228 742.62 -336 626.73 -447 559.62 -562 644.62 -562 703.28 -447" fill="none" stroke="#3b4351" stroke-miterlimit="10"/><polygon id="Normandy" points="325.29 -111 258.62 2.67 253.62 114 226.62 0 210.62 -111 199.47 -228 199.62 -336 199.37 -447 291.37 -562 249.62 -447 286.62 -336 314.62 -228 325.29 -111" fill="none" stroke="#3b4351" stroke-miterlimit="10"/><polygon id="Sweden" points="691.37 1691 673.95 1691 893.62 1802 895.28 1915.83 874.62 1915.83 872.95 1802 652.12 1691 602.12 1579 622.12 1466 562.62 1354 348.62 1242 248.62 1127 235.28 1014 193.28 902 189.95 788 201.62 675 211.62 566 228.28 452 223.62 337 208.95 226 172.95 114 160.95 0 186.86 114 220.95 226 252.95 337 258.95 452 243.95 566 222.62 675 213.87 788 234.37 902 312.12 1014 398.12 1127 458.87 1242 593.37 1354 637.87 1466 674.12 1579 691.37 1691" fill="none" stroke="#3b4351" stroke-miterlimit="10"/><polygon points="1523.12 1466.84 1446.62 1354 1405.12 1242.56 1442.62 1127 1396.62 1014 1391.62 902 1351.62 788 1183.62 675 1092.62 566 1124.29 452 970.62 337 1005.12 226 1166.62 114 1313.55 2.95 1315.29 3 1317.44 0 1317.44 0 1317.44 0 1397.29 -111 1463.95 -228 1481.95 -336 1488.62 -447 1453.62 -562 1382.62 -447 1328.62 -336 1225.12 -228 1161.29 -111 1218.62 0 1218.62 0 1218.62 0 1131.95 114 936.62 226 798.62 337 819.28 452 759.95 566 849.28 675 947.12 788 1111.12 902 1208.62 1014 1293.62 1127 1244.12 1242.56 1280.62 1354 1381.12 1466 1410.62 1579 1358.62 1691 1436.62 1802 1436.62 1915.83 1467.62 1915.83 1467.62 1802 1423.62 1691 1492.62 1579 1523.12 1466.84" fill="none" stroke="#3b4351" stroke-miterlimit="10"/><polygon id="Spain" points="1117.95 1803.41 1119.29 1915.83 1102.12 1915.83 1099.75 1803 899.28 1691 932.62 1579 1049.29 1466 963.28 1354 815.95 1242 785.95 1126.67 674.34 1014 491.95 902 391.29 788 379.95 675 365.95 566 391.95 452 384.62 337 361.29 226 347.12 114 383.43 0 444.62 -111 423.58 -228 373.95 -336 441.95 -228 466.62 -111 423.06 0 406.62 114 385.62 226 407.62 337 417.62 452 401.95 566 463.29 675 491.29 788 631.28 902.41 844.62 1014 937.12 1128.34 922.62 1242 997.95 1354 1065.62 1466 1035.29 1579 959.28 1691 1117.95 1803.41" fill="none" stroke="#3b4351" stroke-miterlimit="10"/><polygon id="Italy" points="586.62 337 689.38 452 692.62 566 809.62 675 841.12 788 1022.62 902 1162.87 1014 1238.87 1127 1147.62 1242 1196.12 1354 1326.62 1466.84 1351.29 1579 1294.95 1691 1361.29 1802 1361.29 1915.83 1303.29 1915.83 1300.29 1802 1229.95 1691 1317.95 1579 1262.95 1466.84 1153.29 1354 1109.12 1242 1201.62 1127 1131.62 1014 970.62 902 797.62 788 753.62 675 632.89 566 610.34 452 505.62 337 505.62 226 594.62 114 818.62 0.6 874.62 -111 851.12 0 663.53 114 584.12 226 586.62 337" fill="none" stroke="#3b4351" stroke-miterlimit="10"/><polygon id="Egypt" points="729.95 337 764.62 452 711.95 566 721.12 452 630.12 337 729.62 226 932.12 114 1028.12 0 987.12 -111 966.12 -228 815.28 -336 995.34 -228 1021.28 -111 1065.29 0 1002.62 114 845.28 226 729.95 337" fill="none" stroke="#3b4351" stroke-miterlimit="10"/><polygon id="Mogolians" points="1334.62 452 1148.62 337 1173.62 226 1402.62 113.34 1565.62 0 1622.45 -111.1 1630.62 -228.1 1650.12 -336 1651.12 -228 1667.62 -111 1695.62 0 1732.12 114 1758.62 226 1761.12 337 1738.62 452 1636.12 566 1615.56 675 1685.62 788 1744.12 901.84 1748.42 1016.28 1739.62 1126.9 1681.62 1242 1654.12 1354 1696.12 1465.84 1701.62 1579 1686.62 1466 1634.62 1354 1627.62 1242 1674.62 1126.9 1627.62 1014 1602.62 902.34 1544.62 788 1344.62 675 1283.62 566 1334.62 452" fill="none" stroke="#3b4351" stroke-miterlimit="10"/><polygon id="Russia" points="1573.62 -111 1500.47 -0.1 1323.62 114 1084.2 226.51 1257.37 114 1428.62 0 1495.12 -112.67 1508.12 -228 1519.62 -336 1488.62 -447 1453.62 -562 1411.62 -676 1418.62 -788 1447.62 -676.1 1514.62 -562 1569.62 -447 1604.62 -336 1600.62 -228 1573.62 -111" fill="none" stroke="#3b4351" stroke-miterlimit="10"/><polygon id="Ghazivids_2" data-name="Ghazivids 2" points="1495.12 -112.67 1428.62 0 1084.2 226.51 1082.62 337 1026.12 226 1384.62 0 1436.12 -112.67 1463.95 -228 1481.95 -336 1488.45 -444.23 1519.62 -336 1508.12 -228 1495.12 -112.67" fill="none" stroke="#3b4351" stroke-miterlimit="10"/><polygon id="Ghazivids_-_Afgans" data-name="Ghazivids - Afgans" points="1384.62 0 1212.12 114 1026.12 226 970.62 337 1005.12 226 1166.62 114 1317.44 0 1397.29 -111 1463.95 -228 1436.12 -112.67 1384.62 0" fill="none" stroke="#3b4351" stroke-miterlimit="10"/></g><g id="Text"><g id="Indians-2" data-name="Indians"><path d="M1461,6.66a20.68,20.68,0,0,0-2.8,11,21.39,21.39,0,0,0,2.8,11h-1.89a18.73,18.73,0,0,1,.05-22Z" fill="#3b4351"/><path d="M1462.41,6.66h2.8v7h5.14v-7h2.79v17.5h-2.79V16h-5.14v8.14h-2.8Z" fill="#3b4351"/><path d="M1476,6.47h2.65V9.11H1476Zm0,4.5h2.65V24.16H1476Z" fill="#3b4351"/><path d="M1481.3,11h2.5v1.55h.07a3.8,3.8,0,0,1,3.39-1.89c2,0,3.28.91,3.28,3.58v10h-2.65v-9c0-1.77-.46-2.38-1.83-2.38-1.08,0-2.11.81-2.11,2.57v8.85h-2.65Z" fill="#3b4351"/><path d="M1499.82,22.54h0a2.8,2.8,0,0,1-2.89,2c-3.06,0-4.31-2.6-4.31-7.1,0-5.86,2.06-6.77,4.07-6.77a3.05,3.05,0,0,1,3,1.89h0V6.66h2.64v17.5h-2.5Zm-2.4-9.8c-1.49,0-2.06,1.22-2.06,4.78,0,3,.37,4.87,2.23,4.87s2.23-1.83,2.23-4.68C1499.82,14.55,1499.48,12.74,1497.42,12.74Z" fill="#3b4351"/><path d="M1511.61,22.62h-.08a3.78,3.78,0,0,1-3.38,1.88c-2,0-3.28-.9-3.28-4.31V11h2.65v9.46c0,1.47.63,2,1.79,2a2,2,0,0,0,2.15-2.2V11h2.65V24.16h-2.5Z" fill="#3b4351"/><path d="M1522.34,14.82v-.34c0-1.05-.37-2-1.74-2-1,0-1.89.46-1.89,1.71,0,1.05.47,1.45,1.86,1.94l1.7.59c2,.66,2.86,1.71,2.86,3.79,0,2.82-2.08,4-4.73,4-3.33,0-4.34-1.54-4.34-4.09v-.49h2.36v.42c0,1.54.51,2.35,2.06,2.35s2.15-.74,2.15-1.94a1.91,1.91,0,0,0-1.44-1.93l-2.16-.76c-2-.66-2.82-1.69-2.82-3.8,0-2.48,1.77-3.63,4.51-3.63,3.36,0,4.12,2,4.12,3.6v.59Z" fill="#3b4351"/><path d="M1525.82,28.67a20.68,20.68,0,0,0,2.79-11,21.4,21.4,0,0,0-2.79-11h1.88a18.68,18.68,0,0,1,0,22Z" fill="#3b4351"/></g><g id="Papacy"><path d="M887.09,7.29h5.54c3.36,0,4.83,2.11,4.83,5.09,0,3.14-1.86,5.18-5.12,5.18h-2.45v7.23h-2.8Zm2.8,8.16h2c1.5,0,2.79-.79,2.79-3,0-1.88-.76-3-3-3h-1.78Z" fill="#3b4351"/><path d="M901.74,7.29h3.58l4.61,17.5H907l-1.08-4.29h-5.12l-1.12,4.29h-2.92Zm3.73,11-2-8.63h-.05l-2.08,8.63Z" fill="#3b4351"/><path d="M911.15,7.29h5.54c3.36,0,4.83,2.11,4.83,5.09,0,3.14-1.87,5.18-5.12,5.18h-2.46v7.23h-2.79Zm2.79,8.16h2c1.49,0,2.79-.79,2.79-3,0-1.88-.76-3-3-3h-1.79Z" fill="#3b4351"/><path d="M925.8,7.29h3.58L934,24.79h-2.92L930,20.5h-5.12l-1.12,4.29h-2.92Zm3.73,11-2-8.63h0l-2.08,8.63Z" fill="#3b4351"/><path d="M946,18.51v.37c0,3.16-1.3,6.25-5.39,6.25-4.41,0-5.79-2.84-5.79-9.09S936.17,7,940.6,7c5,0,5.27,3.65,5.27,5.48v.32h-2.79v-.29c0-1.64-.49-3.48-2.5-3.41s-3,1.28-3,6.91.9,7.06,3,7.06c2.35,0,2.59-2.57,2.59-4.21v-.3Z" fill="#3b4351"/><path d="M950.89,18,946.38,7.29h3.11l2.94,7.55,3-7.55h2.92L953.68,18v6.84h-2.79Z" fill="#3b4351"/></g></g></svg>