<svg xmlns="http://www.w3.org/2000/svg" viewBox="0 0 1847.91 112"><title>ce1250text</title><g id="YEARS"><g id="Right"><path d="M1792.5,108.05V94.69h-3.82V92.77h.28c1.77,0,3.8-.45,4.35-2.76v-.36h2.15v18.4Z" fill="#3b4351"/><path d="M1811.22,108.05h-10.77c0-8,7.73-7.82,7.73-13.54,0-1.54-.65-2.78-2.29-2.78-2.21,0-2.58,2-2.58,3.84h-2.8c0-3.64,1.5-5.92,5.43-5.92,3.74,0,5.2,2.23,5.2,4.91,0,6.11-6,6.47-7.38,11h7.46Z" fill="#3b4351"/><path d="M1812.91,103.09h2.81v.49a2.35,2.35,0,0,0,2.41,2.6c2.08,0,2.63-2,2.63-4.18s-.57-3.93-2.47-3.93a2.36,2.36,0,0,0-2.42,1.69l-2.62-.1.91-9.65H1823v2.36h-6.65l-.6,4.84,0,.05a4.06,4.06,0,0,1,3.09-1.43c3.85,0,4.81,3.25,4.81,6.09,0,3.69-1.69,6.5-5.66,6.5-3.31,0-5.15-1.69-5.15-4.94Z" fill="#3b4351"/><path d="M1830.8,89.65c3.53,0,5.51,2.21,5.51,9.38s-2,9.39-5.51,9.39-5.52-2.21-5.52-9.39S1827.26,89.65,1830.8,89.65Zm0,16.69c2,0,2.54-2,2.54-7.31s-.54-7.3-2.54-7.3-2.55,2-2.55,7.3S1828.79,106.34,1830.8,106.34Z" fill="#3b4351"/></g><g id="left"><path d="M17.46,110V96.6H13.64V94.67h.29c1.77,0,3.79-.44,4.34-2.75v-.37h2.16V110Z" fill="#3b4351"/><path d="M36.18,110H25.42c0-8,7.72-7.83,7.72-13.55,0-1.53-.65-2.78-2.29-2.78-2.21,0-2.57,2-2.57,3.85H25.47c0-3.64,1.51-5.93,5.44-5.93,3.74,0,5.2,2.24,5.2,4.92,0,6.11-6,6.47-7.39,11h7.46Z" fill="#3b4351"/><path d="M37.87,105h2.81v.5a2.35,2.35,0,0,0,2.42,2.6c2.08,0,2.63-2,2.63-4.19S45.15,100,43.25,100a2.34,2.34,0,0,0-2.41,1.69l-2.63-.11.91-9.64H48v2.36H41.33l-.6,4.84.06,0a4,4,0,0,1,3.09-1.43c3.85,0,4.81,3.25,4.81,6.08,0,3.7-1.69,6.51-5.67,6.51-3.3,0-5.15-1.7-5.15-5Z" fill="#3b4351"/><path d="M55.76,91.55c3.54,0,5.51,2.21,5.51,9.39s-2,9.39-5.51,9.39-5.51-2.21-5.51-9.39S52.22,91.55,55.76,91.55Zm0,16.7c2,0,2.55-2,2.55-7.31s-.55-7.31-2.55-7.31-2.55,2-2.55,7.31S53.76,108.25,55.76,108.25Z" fill="#3b4351"/></g></g><g id="Nation_OUtlines" data-name="Nation OUtlines"><polygon id="Romans" points="854.62 674 829.93 561 711.95 452 764.62 338 729.95 223 845.28 112 1002.62 0 1065.29 -114 1021.28 -225 995.34 -342 815.28 -450 703.28 -561 687.28 -676 737.95 -790 780.62 -902 712.62 -1013 645.95 -1127 550.62 -1240 491.95 -1349.83 453.95 -1462.83 455.29 -1574.83 435.95 -1689.83 470.62 -1797.83 322.62 -1797.83 416.12 -1910.83 480.12 -2020.83 410.62 -2132.83 316.95 -2246.83 248.28 -2361.83 210.28 -2472.83 175.95 -2583.83 159.62 -2699.83 91.28 -2812.83 83.12 -2917.83 117.62 -3031.83 151.37 -3145.83 129.62 -3255.83 109.62 -3370.83 99.62 -3482.83 73.12 -3592.83 75.42 -4490.83 85.95 -4380.83 95.28 -4268.83 111.95 -4156.83 116.62 -4045.83 137.95 -3932.83 149.95 -3816.83 169.95 -3704.83 205.28 -3592.83 231.95 -3482.83 287.74 -3370.83 467.73 -3255.83 683.72 -3145.83 998.71 -3031.83 1118.7 -2917.83 1131.14 -2812.83 1195.2 -2699.83 1182.62 -2583.83 1245.62 -2472.83 1220.62 -2361.83 1122.62 -2246.83 981.62 -2132.83 880.12 -2020.83 717.95 -1910.83 593.62 -1797.83 616.62 -1689.83 717.28 -1574.83 839.28 -1459.99 863.28 -1349.83 915.28 -1240 810.62 -1127 885.95 -1013 1037.95 -902 1125.95 -790 1253.95 -676 1213.95 -561 1202.62 -450 1169.95 -342 1161.29 -225 1218.62 -114 1131.95 0 936.62 112 798.62 223 819.28 338 759.95 452 849.28 561 854.62 674" fill="none" stroke="#3b4351" stroke-miterlimit="10"/><polygon id="Indians" points="1372.19 -4826.66 1294.19 -4940.83 1285.19 -5053.83 1313.69 -5164.83 1348.19 -5277.83 1310.69 -5391.83 1298.69 -5501.83 1313.69 -5613.83 1345.19 -5725.83 1325.69 -5839.83 1343.69 -5953.83 1417.19 -6064.83 1400.69 -6177.91 1429.19 -6290.83 1419.27 -6406.1 1387.19 -6517.83 1387.19 -6629.83 1438.19 -6740.33 1462.18 -6852.33 1480.18 -6965.37 1445.82 -7075.66 1411.11 -7187.66 1545.86 -7187.66 1580.1 -7075.66 1593.12 -6965.43 1552.12 -6852.33 1514.62 -6740.33 1514.12 -6630.16 1553.12 -6518.1 1548.12 -6405.83 1519.62 -6290.83 1534.12 -6177.16 1575.12 -6064.83 1559.62 -5953.83 1564.12 -5840.1 1534.62 -5725.83 1486.12 -5613.83 1465.12 -5501.83 1471.12 -5392.66 1502.12 -5278.66 1508.12 -5164.83 1534.62 -5053.83 1542.77 -4974.97 1555.62 -4826.66 1554.62 -4717.83 1567.12 -4605.83 1542.12 -4491.1 1498.12 -4380.83 1490.62 -4268.83 1513.12 -4156.83 1568.62 -4045.83 1544.12 -3932.83 1530.62 -3817.1 1523.62 -3705.1 1532.62 -3592.83 1565.12 -3482.83 1543.62 -3370.83 1514.12 -3255.83 1490.12 -3146.1 1495.62 -3031.83 1517.12 -2918.16 1528.12 -2812.83 1580.62 -2700.16 1578.12 -2584.16 1578.12 -2473.66 1560.12 -2362.1 1526.62 -2246.83 1467.62 -2132.83 1381.62 -2021.1 1270.62 -1910.83 1090.12 -1798.1 860.62 -1689.83 1302.12 -1574.83 1377.03 -1462.83 1550.62 -1349.83 1519.62 -1240 1476.12 -1127 1516.13 -1013 1534.62 -900.66 1552.65 -790 1585.62 -676.1 1620.12 -561 1650.12 -450 1630.62 -342.1 1622.45 -225.1 1565.62 -114 1402.62 -0.66 1173.62 112 1148.62 223 1334.62 338 1283.62 452 1344.62 561 1544.62 674 1602.62 788.34 1627.62 900 1674.62 1012.9 1627.62 1128 1634.62 1240 1686.62 1352 1701.62 1465 1620.12 1577 1606.12 1688 1606.12 1801.83 1552.62 1801.83 1549.52 1688 1569.62 1577 1683.62 1465 1667.62 1352 1607.62 1240 1596.62 1127.34 1617.62 1013 1584.62 900 1562.62 788 1507.62 674 1304.62 560.9 1225.62 451.9 1236.97 414.95 1264.87 338 1082.62 223 1084.2 112.51 1323.62 0 1500.47 -114.1 1573.62 -225 1600.62 -342 1604.62 -450 1569.62 -561 1514.62 -676 1447.62 -790.1 1418.62 -902 1404.62 -1013 1367.62 -1127 1397.62 -1240 1418.62 -1350.1 1339.62 -1463.1 1246.62 -1574.83 748.62 -1689.83 753.62 -1797.83 910.76 -1910.83 1053.62 -2020.83 1195.2 -2132.83 1311.62 -2247.66 1353.62 -2361.83 1348.62 -2472.83 1364.62 -2584.66 1406.62 -2699.83 1401.62 -2812.83 1429.62 -2917.83 1394.62 -3032.1 1393.2 -3145.83 1391.82 -3256.1 1437.52 -3370.83 1513.62 -3483.1 1505.64 -3592.83 1472.62 -3704.66 1447.62 -3816.83 1440.63 -3932.83 1462.62 -4045.83 1391.1 -4156.83 1348.62 -4268.83 1332.62 -4380.83 1376.98 -4490.83 1375.34 -4606.1 1373.74 -4718.1 1372.19 -4826.66" fill="none" stroke="#3b4351" stroke-miterlimit="10"/><polygon id="Chinese" points="1610.76 -4828.1 1609.69 -4941.1 1608.62 -5054.16 1585.12 -5164.83 1551.62 -5277.83 1509.12 -5391.83 1538.12 -5502.1 1586.62 -5614.1 1616.12 -5725.83 1645.62 -5840.1 1697.12 -5954.1 1714.62 -6065.16 1689.12 -6176.83 1700.12 -6290.83 1676.62 -6405.83 1650.62 -6518.16 1630.62 -6629.83 1620.62 -6740.33 1646.62 -6852.33 1667.62 -6964.99 1651.62 -7075.66 1633.99 -7187.66 1768.79 -7187.66 1768.79 1013 1768.79 1127.9 1766.12 1240 1757.62 1352 1736.12 1464.9 1676.12 1576.9 1661.12 1688 1663.62 1801.83 1606.12 1801.83 1606.12 1687.9 1620.12 1577 1701.62 1465 1696.12 1351.84 1654.12 1240 1681.62 1128 1739.62 1012.9 1748.62 899.84 1744.12 787.84 1685.62 674 1615.12 563.34 1636.12 452 1738.62 338 1761.12 223 1758.62 112 1732.12 0 1695.62 -114 1667.62 -225 1651.12 -342 1650.12 -450 1620.12 -561 1585.62 -676.1 1552.62 -790.1 1535.12 -902 1516.12 -1013.1 1476.12 -1127 1542.12 -1240 1625.62 -1350.16 1668.12 -1463.16 1666.12 -1574.83 1673.62 -1689.83 1653.62 -1797.83 1602.12 -1911.1 1534.12 -2021.1 1564.12 -2132.83 1598.12 -2247.1 1612.12 -2361.83 1611.01 -2473.1 1592.62 -2584.1 1609.25 -2699.83 1616.07 -2812.83 1553.62 -2917.83 1529.62 -3031.83 1528.62 -3146.1 1555.62 -3255.83 1612.12 -3370.83 1621.12 -3482.83 1587.12 -3592.83 1567.62 -3704.83 1576.62 -3816.83 1571.12 -3932.83 1584.62 -4046.1 1558.62 -4156.83 1545.62 -4269.1 1557.62 -4381.1 1599.62 -4490.83 1625.12 -4606.1 1613.62 -4718.1 1610.76 -4828.1" fill="none" stroke="#3b4351" stroke-miterlimit="10"/><polygon id="Denmark" points="916.62 1801.83 927.62 1801.83 926.37 1688 701.12 1577 690.87 1465 683.87 1352 637.87 1240 522.37 1128 457.37 1013 426.62 900 299.62 788 273.62 674 281.62 561 289.12 452 302.12 338 296.87 223 275.62 112 253.62 0 226.62 -114 210.62 -225 199.62 -450 199.37 -561 291.37 -676 277.29 -790 235.95 -902 188.87 -1013 180.62 -1127 142.62 -1240 139.95 -1349.83 120.62 -1462.83 99.95 -1574.83 73.12 -1689.83 90.34 -1574.83 107.12 -1462.83 118.37 -1349.83 120.37 -1240 122.62 -1127 125.87 -1013 158.37 -902 185.87 -790 183.62 -676 127.62 -561 119.62 -450 119.12 -342 156.87 -225 188.62 -114 212.62 0 252.37 112 277.87 223 283.37 338 267.12 452 248.87 561 213.87 674 234.37 788 312.12 900 398.12 1013 458.87 1128 593.37 1240 637.87 1352 674.12 1465 691.37 1577 915.37 1688 916.62 1801.83" fill="none" stroke="#3b4351" stroke-miterlimit="10"/><polygon id="Norway" points="213.87 674 222.62 561 243.95 452 258.95 338 252.95 223 220.95 112 186.86 0 160.95 -114 133.28 -225 96.28 -342 84.28 -450 89.28 -561 120.28 -676 98.62 -790 94.28 -902 91.95 -1013 95.28 -1127 99.62 -1240 96.58 -1349.83 93.44 -1462.83 90.34 -1574.83 107.12 -1462.83 118.37 -1349.83 120.37 -1240 122.62 -1127 125.87 -1013 158.37 -902 185.87 -790 183.62 -676 127.62 -561 119.62 -450 119.12 -342 156.87 -225 188.62 -114 212.62 0 252.37 112 277.87 223 283.37 338 267.12 452 248.87 561 213.87 674" fill="none" stroke="#3b4351" stroke-miterlimit="10"/><polygon id="England" points="874.62 1801.83 688.95 1801.83 687.95 1688 439.12 1577 252.12 1465 159.62 1352 111.62 1240 93.62 1128 86.12 1013 84.62 900 86.95 788 98.28 674 116.95 561 114.62 452 122.62 338 120.62 223 108.28 112 100.16 0 107.95 -114 107.95 -225 77.28 -342 73.12 -1689.83 90.34 -1574.83 93.44 -1462.83 96.58 -1349.83 99.62 -1240 91.95 -1013 94.28 -902 98.62 -790 120.28 -676 89.28 -561 84.28 -450 96.28 -342 133.28 -225 160.95 -114 172.95 0 208.95 112 223.62 223 228.28 338 211.62 452 201.62 561 189.95 674 193.28 788 235.28 900 248.62 1013 348.62 1128 562.62 1240 622.12 1352 602.12 1465 652.12 1577 872.95 1688 874.62 1801.83" fill="none" stroke="#3b4351" stroke-miterlimit="10"/><polygon id="South_America" data-name="South America" points="108.28 112 120.62 223 122.62 338 114.62 452 116.95 561 98.28 674 86.95 788 84.62 900 79.62 1013 82.62 1128 87.62 1240 107.62 1352 145.12 1465 167.12 1577 198.12 1688 200.12 1801.83 77.28 1801.83 77.28 -342 107.95 -225 107.95 -114 100.16 0 108.28 112" fill="none" stroke="#3b4351" stroke-miterlimit="10"/><polygon id="France" points="674.34 900 785.95 1012.67 815.95 1128 963.28 1240 1049.29 1352 932.62 1465 899.28 1577 1099.75 1689 1102.12 1801.83 946.74 1801.83 946.24 1688 748.62 1577 745.95 1465 741.28 1352 711.95 1240 643.28 1128 613.28 1013 535.95 900 385.29 788 317.95 674 311.95 561 310.62 452 321.29 338 314.62 223 275.62 112 253.62 0 258.62 -111.33 325.29 -225 314.62 -342 286.62 -450 249.62 -561 291.37 -676 409.62 -676 362.62 -561 373.95 -450 423.58 -342 444.62 -225 381.95 -111.33 347.12 0 361.29 112 384.62 223 391.95 338 365.95 452 379.95 561 391.29 674 491.95 788 674.34 900" fill="none" stroke="#3b4351" stroke-miterlimit="10"/><polygon id="Franks_to_Holy_Roman_Empire" data-name="Franks to Holy Roman Empire" points="594.62 0 505.62 112 482.62 223 599.12 338 617.12 452 639.62 561 772.62 674 953.62 788 1131.62 900 1201.62 1013 1109.12 1128 1144.62 1240 1249.12 1352 1301.62 1465 1217.12 1577 1288.12 1688 1290.62 1801.83 1234.62 1801.83 1232.12 1688 1140.12 1576.91 1137.62 1465 1115.62 1352 1053.62 1240 973.12 1128 1064.12 1013 953.62 900 741.12 788 577.12 674 525.62 561 418.62 452 417.62 338 407.62 223 385.62 112 406.62 0 421.62 -110.33 466.62 -225 441.95 -342 373.95 -450 371.78 -471.31 362.62 -561 409.62 -676 559.62 -676 626.73 -561 742.62 -450 897.74 -342 874.62 -225 818.62 -113.4 594.62 0" fill="none" stroke="#3b4351" stroke-miterlimit="10"/><polygon points="703.28 -561 815.28 -450 966.12 -342 987.12 -225 1028.12 -114 932.12 0 729.62 112 630.12 223 721.12 338 711.95 452 829.93 561 854.62 674 1030.37 788 1169.87 900 1257.37 1013 1158.4 1128 1196.12 1240 1147.62 1128 1238.87 1013 1162.87 900 1022.62 788 841.12 674 809.62 561 692.62 452 689.38 338 586.62 223 584.12 112 663.53 0 851.12 -114 874.62 -225 897.74 -342 742.62 -450 626.73 -561 559.62 -676 644.62 -676 703.28 -561" fill="none" stroke="#3b4351" stroke-miterlimit="10"/><polygon id="Normandy" points="325.29 -225 258.62 -111.33 253.62 0 226.62 -114 210.62 -225 199.47 -342 199.62 -450 199.37 -561 291.37 -676 249.62 -561 286.62 -450 314.62 -342 325.29 -225" fill="none" stroke="#3b4351" stroke-miterlimit="10"/><polygon id="Holland" points="613.28 1013 643.28 1128 711.95 1240 741.28 1352 729.95 1465 732.62 1577 935.28 1688 937.12 1801.83 927.62 1801.83 926.37 1688 701.12 1577 690.87 1465 683.87 1352 637.87 1240 522.37 1128 457.37 1013 426.62 900 299.62 788 273.62 674 281.62 561 289.12 452 302.12 338 296.87 223 275.62 112 314.62 223 321.29 338 310.62 452 311.95 561 317.95 674 385.29 788 535.95 900 613.28 1013" fill="none" stroke="#3b4351" stroke-miterlimit="10"/><polygon id="Sweden" points="691.37 1577 673.95 1577 893.62 1688 895.28 1801.83 874.62 1801.83 872.95 1688 652.12 1577 602.12 1465 622.12 1352 562.62 1240 348.62 1128 248.62 1013 235.28 900 193.28 788 189.95 674 201.62 561 211.62 452 228.28 338 223.62 223 208.95 112 172.95 0 160.95 -114 186.86 0 220.95 112 252.95 223 258.95 338 243.95 452 222.62 561 213.87 674 234.37 788 312.12 900 398.12 1013 458.87 1128 593.37 1240 637.87 1352 674.12 1465 691.37 1577" fill="none" stroke="#3b4351" stroke-miterlimit="10"/><polygon points="1523.12 1352.84 1446.62 1240 1405.12 1128.56 1442.62 1013 1396.62 900 1391.62 788 1351.62 674 1183.62 561 1092.62 452 1124.29 338 970.62 223 1005.12 112 1166.62 0 1313.55 -111.05 1315.29 -111 1317.44 -114 1317.44 -114 1317.44 -114 1397.29 -225 1463.95 -342 1481.95 -450 1488.62 -561 1453.62 -676 1382.62 -561 1328.62 -450 1225.12 -342 1161.29 -225 1218.62 -114 1218.62 -114 1218.62 -114 1131.95 0 936.62 112 798.62 223 819.28 338 759.95 452 849.28 561 947.12 674 1111.12 788 1208.62 900 1293.62 1013 1244.12 1128.56 1280.62 1240 1381.12 1352 1410.62 1465 1358.62 1577 1436.62 1688 1436.62 1801.83 1467.62 1801.83 1467.62 1688 1423.62 1577 1492.62 1465 1523.12 1352.84" fill="none" stroke="#3b4351" stroke-miterlimit="10"/><polygon id="Spain" points="1117.95 1689.41 1119.29 1801.83 1102.12 1801.83 1099.75 1689 899.28 1577 932.62 1465 1049.29 1352 963.28 1240 815.95 1128 785.95 1012.67 674.34 900 491.95 788 391.29 674 379.95 561 365.95 452 391.95 338 384.62 223 361.29 112 347.12 0 383.43 -114 444.62 -225 423.58 -342 373.95 -450 441.95 -342 466.62 -225 423.06 -114 406.62 0 385.62 112 407.62 223 417.62 338 401.95 452 463.29 561 491.29 674 631.28 788.41 844.62 900 937.12 1014.34 922.62 1128 997.95 1240 1065.62 1352 1035.29 1465 959.28 1577 1117.95 1689.41" fill="none" stroke="#3b4351" stroke-miterlimit="10"/><polygon id="Hungary" points="753.62 561 797.62 674 970.62 788 1131.62 900 953.62 788 772.62 674 639.62 561 617.12 452 599.12 338 482.62 223 505.62 112 505.62 223 610.34 338 632.89 452 753.62 561" fill="none" stroke="#3b4351" stroke-miterlimit="10"/><polygon id="Italy" points="586.62 223 689.38 338 692.62 452 809.62 561 841.12 674 1022.62 788 1162.87 900 1238.87 1013 1147.62 1128 1196.12 1240 1326.62 1352.84 1351.29 1465 1294.95 1577 1361.29 1688 1361.29 1801.83 1303.29 1801.83 1300.29 1688 1229.95 1577 1317.95 1465 1262.95 1352.84 1153.29 1240 1109.12 1128 1201.62 1013 1131.62 900 970.62 788 797.62 674 753.62 561 632.89 452 610.34 338 505.62 223 505.62 112 594.62 0 818.62 -113.4 874.62 -225 851.12 -114 663.53 0 584.12 112 586.62 223" fill="none" stroke="#3b4351" stroke-miterlimit="10"/><polygon id="Egypt" points="729.95 223 764.62 338 711.95 452 721.12 338 630.12 223 729.62 112 932.12 0 1028.12 -114 987.12 -225 966.12 -342 815.28 -450 995.34 -342 1021.28 -225 1065.29 -114 1002.62 0 845.28 112 729.95 223" fill="none" stroke="#3b4351" stroke-miterlimit="10"/><polygon id="Serbia" points="1092.62 452 1124.29 338 970.62 223 1026.12 112 1027.37 223 1195.12 338 1155.87 452 1183.62 561 1092.62 452" fill="none" stroke="#3b4351" stroke-miterlimit="10"/><polygon id="POland" points="1518.87 900 1536.12 1013.34 1443.87 1128 1471.87 1240 1523.12 1352.84 1446.62 1240 1405.12 1128.56 1442.62 1013 1396.62 900 1391.62 788 1351.62 674 1183.62 561 1155.87 452 1195.12 338 1027.37 223 1026.12 112 1082.62 223 1264.87 338 1200.12 452 1270.87 561 1454.87 674 1513.87 788 1518.87 900" fill="none" stroke="#3b4351" stroke-miterlimit="10"/><polygon id="Mogolians" points="1334.62 338 1148.62 223 1173.62 112 1402.62 -0.66 1565.62 -114 1622.45 -225.1 1630.62 -342.1 1650.12 -450 1651.12 -342 1667.62 -225 1695.62 -114 1732.12 0 1758.62 112 1761.12 223 1738.62 338 1636.12 452 1615.56 561 1685.62 674 1744.12 787.84 1748.42 902.28 1739.62 1012.9 1681.62 1128 1654.12 1240 1696.12 1351.84 1701.62 1465 1686.62 1352 1634.62 1240 1627.62 1128 1674.62 1012.9 1627.62 900 1602.62 788.34 1544.62 674 1344.62 561 1283.62 452 1334.62 338" fill="none" stroke="#3b4351" stroke-miterlimit="10"/><polygon id="Russia" points="1573.62 -225 1500.47 -114.1 1323.62 0 1084.2 112.51 1257.37 0 1428.62 -114 1495.12 -226.67 1508.12 -342 1519.62 -450 1488.62 -561 1453.62 -676 1411.62 -790 1418.62 -902 1447.62 -790.1 1514.62 -676 1569.62 -561 1604.62 -450 1600.62 -342 1573.62 -225" fill="none" stroke="#3b4351" stroke-miterlimit="10"/><polygon id="Ghazivids_2" data-name="Ghazivids 2" points="1495.12 -226.67 1428.62 -114 1084.2 112.51 1082.62 223 1026.12 112 1384.62 -114 1436.12 -226.67 1463.95 -342 1481.95 -450 1488.45 -558.23 1519.62 -450 1508.12 -342 1495.12 -226.67" fill="none" stroke="#3b4351" stroke-miterlimit="10"/><polygon id="Ghazivids_-_Afgans" data-name="Ghazivids - Afgans" points="1384.62 -114 1212.12 0 1026.12 112 970.62 223 1005.12 112 1166.62 0 1317.44 -114 1397.29 -225 1463.95 -342 1436.12 -226.67 1384.62 -114" fill="none" stroke="#3b4351" stroke-miterlimit="10"/></g><g id="Text"><g id="Mongolians"><path d="M1662.22,31h2.8v7h5.14V31h2.8V48.5h-2.8V40.37H1665V48.5h-2.8Z" fill="#3b4351"/><path d="M1678.42,31V43.55c0,2.23.88,3.19,2.57,3.19s2.55-1,2.55-3.19V31h2.79V43.33c0,4-2,5.52-5.34,5.52s-5.37-1.48-5.37-5.52V31Z" fill="#3b4351"/><path d="M1689,31h3.41l5.07,13h0V31h2.65V48.5h-3.41l-5.07-13.38h0V48.5H1689Z" fill="#3b4351"/><path d="M1705.22,43.09v.44c0,2.13,1,3.21,2.87,3.21a2.51,2.51,0,0,0,2.64-2.55c0-1.84-.93-2.65-2.5-3.11l-1.91-.66c-2.55-1-3.65-2.31-3.65-4.81,0-3.18,2.18-4.95,5.44-4.95,4.49,0,5,2.8,5,4.61v.39h-2.79v-.37c0-1.59-.69-2.52-2.45-2.52a2.24,2.24,0,0,0-2.36,2.52c0,1.5.76,2.26,2.63,3L1710,39c2.48.88,3.56,2.2,3.56,4.63,0,3.72-2.26,5.27-5.79,5.27-4.33,0-5.31-2.9-5.31-5.35v-.41Z" fill="#3b4351"/><path d="M1326,65.66h0a3.64,3.64,0,0,1-3.82,2.38c-3.83,0-5.2-2.85-5.2-9.09s1.77-9.1,5.81-9.1a4.76,4.76,0,0,1,5.12,5v.32h-2.65V54.8c0-1.3-.54-2.84-2.45-2.84s-3,1.33-3,6.91.93,7.06,2.81,7.06c2.13,0,2.92-1.52,2.92-5.34h-2.94V58.48h5.59v9.21H1326Z" fill="#3b4351"/><path d="M1330.31,50.2H1333v5.73l.07,0a3.76,3.76,0,0,1,3.24-1.81c2,0,3.28.9,3.28,3.57v9.95h-2.65v-9c0-1.74-.49-2.38-1.83-2.38-1.08,0-2.11.84-2.11,2.58v8.84h-2.65Z" fill="#3b4351"/><path d="M1344.38,61.45v.76c0,1.76.22,4,2.2,4s2.11-2.13,2.11-2.94h2.5c0,3-1.77,4.76-4.63,4.76-2.16,0-4.83-.64-4.83-6.74,0-3.46.76-7.13,4.88-7.13,3.67,0,4.65,2.23,4.65,5.88v1.4Zm4.24-1.82v-.71c0-1.67-.54-2.94-2-2.94-1.67,0-2.2,1.67-2.2,3.38v.27Z" fill="#3b4351"/><path d="M1353.44,54.51h2.5v1.54h.07a3.78,3.78,0,0,1,3.38-1.88c2,0,3.29.9,3.29,3.57v9.95H1360v-9c0-1.76-.46-2.38-1.84-2.38-1.07,0-2.1.81-2.1,2.58v8.84h-2.65Z" fill="#3b4351"/><path d="M1367.87,68.82a1.73,1.73,0,0,0,1.91,1.57,2.19,2.19,0,0,0,2.23-2.48V65.78h0a3.19,3.19,0,0,1-3,1.82c-3.06,0-3.94-3-3.94-6.64,0-2.9.44-6.79,4.19-6.79a2.9,2.9,0,0,1,2.89,2h.05V54.51h2.5V67.06c0,3.21-1.37,5.14-4.93,5.14-3.92,0-4.36-2.3-4.36-3.38Zm1.86-3.33c2.06,0,2.28-2.6,2.28-4.68s-.27-4.54-2.11-4.54-2.23,2-2.23,4.42C1367.67,62.94,1367.77,65.49,1369.73,65.49Z" fill="#3b4351"/><path d="M1377,50.2h2.64v5.73l.08,0a3.76,3.76,0,0,1,3.23-1.81c2,0,3.29.9,3.29,3.57v9.95h-2.65v-9c0-1.74-.49-2.38-1.84-2.38-1.08,0-2.11.84-2.11,2.58v8.84H1377Z" fill="#3b4351"/><path d="M1388.92,50h2.64v2.65h-2.64Zm0,4.51h2.64V67.69h-2.64Z" fill="#3b4351"/><path d="M1399.92,58.36V58c0-1-.37-2-1.74-2-1.06,0-1.89.47-1.89,1.72,0,1,.47,1.44,1.86,1.93l1.69.59c2,.66,2.87,1.72,2.87,3.8,0,2.82-2.08,4-4.73,4-3.33,0-4.34-1.55-4.34-4.1v-.49H1396v.42c0,1.54.51,2.35,2,2.35s2.16-.73,2.16-1.93a1.91,1.91,0,0,0-1.45-1.94l-2.15-.76c-2-.66-2.82-1.69-2.82-3.8,0-2.47,1.77-3.62,4.51-3.62,3.36,0,4.12,2,4.12,3.6v.59Z" fill="#3b4351"/><path d="M1410.72,50.2h2.79v7.62h0l5.3-7.62h3.06l-5.05,7.37,5.59,10.12h-3.16l-4.24-7.86-1.55,2.2v5.66h-2.79Z" fill="#3b4351"/><path d="M1423.26,50.2h2.65v5.73l.07,0a3.77,3.77,0,0,1,3.24-1.81c2,0,3.28.9,3.28,3.57v9.95h-2.64v-9c0-1.74-.49-2.38-1.84-2.38-1.08,0-2.11.84-2.11,2.58v8.84h-2.65Z" fill="#3b4351"/><path d="M1443.7,65c0,.49.29.93.68.93a1.06,1.06,0,0,0,.45-.07v1.71a2.86,2.86,0,0,1-1.3.32c-1.18,0-2.16-.47-2.23-1.74h0A3.41,3.41,0,0,1,1438,68c-2.13,0-3.43-1.16-3.43-3.7,0-2.94,1.3-3.56,3.07-4.14l2.05-.57c1-.27,1.55-.54,1.55-1.69s-.42-2-1.81-2c-1.77,0-2,1.25-2,2.52h-2.5c0-2.81,1.15-4.33,4.63-4.33,2.33,0,4.19.9,4.19,3.23Zm-2.5-4.22a20.5,20.5,0,0,1-2.94,1.23,2.17,2.17,0,0,0-1.08,2.13c0,1.1.54,2,1.64,2,1.59,0,2.38-1.18,2.38-3.14Z" fill="#3b4351"/><path d="M1446.39,54.51h2.5v1.54h.07a3.81,3.81,0,0,1,3.39-1.88c2,0,3.28.9,3.28,3.57v9.95H1453v-9c0-1.76-.46-2.38-1.84-2.38-1.07,0-2.1.81-2.1,2.58v8.84h-2.65Z" fill="#3b4351"/></g><g id="Italy-2" data-name="Italy"><path d="M536.27,87.12h2.79v17.5h-2.79Z" fill="#3b4351"/><path d="M544.69,89.47h-4.16V87.12h11.05v2.35h-4.09v15.15h-2.8Z" fill="#3b4351"/><path d="M555.13,87.12h3.58l4.61,17.5H560.4l-1.08-4.29H554.2l-1.13,4.29h-2.91Zm3.73,11-2-8.63h-.05l-2.09,8.63Z" fill="#3b4351"/><path d="M564.22,87.12H567v15.15h6.77v2.35h-9.56Z" fill="#3b4351"/><path d="M576.13,97.78l-4.51-10.66h3.11l2.94,7.55,3-7.55h2.92l-4.68,10.66v6.84h-2.79Z" fill="#3b4351"/></g><g id="Egypt-2" data-name="Egypt"><path d="M857.68,40.62h9.46V43h-6.67v4.86h6.28v2.35h-6.28v5.59h6.86v2.35h-9.65Z" fill="#3b4351"/><path d="M878.11,56.08h-.05a3.62,3.62,0,0,1-3.82,2.38c-3.82,0-5.19-2.84-5.19-9.09s1.76-9.09,5.8-9.09a4.77,4.77,0,0,1,5.13,5v.32h-2.65v-.42c0-1.3-.54-2.84-2.45-2.84s-3,1.32-3,6.91.93,7.05,2.82,7.05c2.13,0,2.91-1.52,2.91-5.34h-2.94V48.9h5.59v9.22h-2.11Z" fill="#3b4351"/><path d="M885.58,51.28l-4.51-10.66h3.12l2.94,7.55,3-7.55h2.92l-4.68,10.66v6.84h-2.8Z" fill="#3b4351"/><path d="M894.4,40.62h5.54c3.36,0,4.83,2.11,4.83,5.1s-1.86,5.17-5.12,5.17H897.2v7.23h-2.8Zm2.8,8.16h2c1.5,0,2.8-.78,2.8-3,0-1.89-.76-3-3-3H897.2Z" fill="#3b4351"/><path d="M909.52,43h-4.17V40.62h11.06V43h-4.1V58.12h-2.79Z" fill="#3b4351"/></g></g></svg>