<svg xmlns="http://www.w3.org/2000/svg" viewBox="0 0 1847.91 112"><title>ce1250text</title><g id="YEARS"><g id="Right"><path d="M1785.6,109.9V96.53h-3.82V94.61h.29c1.77,0,3.79-.44,4.34-2.76v-.36h2.16V109.9Z"/><path d="M1804.32,109.9h-10.76c0-8,7.72-7.83,7.72-13.55,0-1.53-.65-2.78-2.29-2.78-2.21,0-2.57,2-2.57,3.85h-2.81c0-3.64,1.51-5.93,5.44-5.93,3.74,0,5.19,2.23,5.19,4.91,0,6.11-6,6.47-7.38,11h7.46Z"/><path d="M1806,104.93h2.81v.49a2.35,2.35,0,0,0,2.42,2.6c2.08,0,2.62-2,2.62-4.18s-.57-3.93-2.47-3.93a2.35,2.35,0,0,0-2.41,1.69l-2.63-.1.91-9.65h8.87v2.37h-6.66l-.6,4.83.05.06a4.08,4.08,0,0,1,3.1-1.43c3.85,0,4.81,3.25,4.81,6.08,0,3.69-1.69,6.5-5.67,6.5-3.3,0-5.15-1.69-5.15-4.94Z"/><path d="M1823.9,91.49c3.54,0,5.51,2.21,5.51,9.38s-2,9.39-5.51,9.39-5.51-2.21-5.51-9.39S1820.36,91.49,1823.9,91.49Zm0,16.69c2,0,2.55-2,2.55-7.31s-.55-7.3-2.55-7.3-2.55,2-2.55,7.3S1821.9,108.18,1823.9,108.18Z"/></g><g id="Layer_34" data-name="Layer 34"><path d="M25.85,113.49V100.13H22V98.21h.29c1.77,0,3.79-.45,4.34-2.76v-.37h2.16v18.41Z"/><path d="M44.57,113.49H33.81c0-8,7.72-7.82,7.72-13.54,0-1.54-.65-2.79-2.29-2.79-2.21,0-2.57,2-2.57,3.85H33.86c0-3.64,1.51-5.93,5.44-5.93,3.74,0,5.2,2.24,5.2,4.92,0,6.11-6,6.47-7.39,11h7.46Z"/><path d="M46.26,108.53h2.81V109a2.35,2.35,0,0,0,2.42,2.6c2.08,0,2.63-2,2.63-4.18s-.58-3.93-2.48-3.93a2.34,2.34,0,0,0-2.41,1.69l-2.63-.11.91-9.64h8.87v2.36H49.72l-.6,4.84.05,0a4.08,4.08,0,0,1,3.1-1.43c3.85,0,4.81,3.25,4.81,6.09,0,3.69-1.69,6.5-5.67,6.5-3.3,0-5.15-1.69-5.15-4.94Z"/><path d="M64.15,95.08c3.54,0,5.51,2.21,5.51,9.39s-2,9.39-5.51,9.39-5.51-2.21-5.51-9.39S60.61,95.08,64.15,95.08Zm0,16.7c2,0,2.55-2,2.55-7.31s-.55-7.31-2.55-7.31-2.55,2-2.55,7.31S62.15,111.78,64.15,111.78Z"/></g></g></svg>