<svg xmlns="http://www.w3.org/2000/svg" viewBox="0 0 1847.91 112"><title>ce1250text</title><g id="YEARS"><g id="Right"><path d="M1787.21,109.9V96.53h-3.82V94.61h.29c1.77,0,3.79-.44,4.34-2.76v-.36h2.16V109.9Z"/><path d="M1805.93,109.9h-10.76c0-8,7.72-7.83,7.72-13.55,0-1.53-.65-2.78-2.29-2.78-2.21,0-2.57,2-2.57,3.85h-2.81c0-3.64,1.51-5.93,5.43-5.93,3.75,0,5.21,2.23,5.21,4.91,0,6.11-6,6.47-7.39,11h7.46Z"/><path d="M1807.62,104.93h2.81v.49a2.35,2.35,0,0,0,2.42,2.6c2.08,0,2.63-2,2.63-4.18s-.58-3.93-2.48-3.93a2.35,2.35,0,0,0-2.41,1.69l-2.63-.1.91-9.65h8.87v2.37h-6.66l-.6,4.83,0,.06a4.08,4.08,0,0,1,3.1-1.43c3.85,0,4.81,3.25,4.81,6.08,0,3.69-1.69,6.5-5.67,6.5-3.3,0-5.15-1.69-5.15-4.94Z"/><path d="M1825.51,91.49c3.54,0,5.51,2.21,5.51,9.38s-2,9.39-5.51,9.39-5.51-2.21-5.51-9.39S1822,91.49,1825.51,91.49Zm0,16.69c2,0,2.55-2,2.55-7.31s-.55-7.3-2.55-7.3-2.55,2-2.55,7.3S1823.51,108.18,1825.51,108.18Z"/></g><g id="left"><path d="M17.46,113.49V100.13H13.64V98.21h.29c1.77,0,3.79-.45,4.34-2.76v-.36h2.16v18.4Z"/><path d="M36.18,113.49H25.42c0-8,7.72-7.82,7.72-13.54,0-1.54-.65-2.78-2.29-2.78-2.21,0-2.57,2-2.57,3.84H25.47c0-3.64,1.51-5.92,5.44-5.92,3.74,0,5.2,2.23,5.2,4.91,0,6.11-6,6.47-7.39,11h7.46Z"/><path d="M37.87,108.53h2.81V109a2.35,2.35,0,0,0,2.42,2.6c2.08,0,2.63-2,2.63-4.18s-.58-3.93-2.48-3.93a2.35,2.35,0,0,0-2.41,1.69l-2.63-.1.91-9.65H48v2.37H41.33l-.6,4.83.06,0a4,4,0,0,1,3.09-1.43c3.85,0,4.81,3.25,4.81,6.09,0,3.69-1.69,6.5-5.67,6.5-3.3,0-5.15-1.69-5.15-4.94Z"/><path d="M55.76,95.09c3.54,0,5.51,2.2,5.51,9.38s-2,9.39-5.51,9.39-5.51-2.21-5.51-9.39S52.22,95.09,55.76,95.09Zm0,16.69c2,0,2.55-2,2.55-7.31s-.55-7.3-2.55-7.3-2.55,2-2.55,7.3S53.76,111.78,55.76,111.78Z"/></g></g><g id="Text"><g id="Mongolians"><path d="M1662.22,31h2.8v7h5.14V31h2.8V48.5h-2.8V40.37H1665V48.5h-2.8Z"/><path d="M1678.42,31V43.55c0,2.23.88,3.19,2.57,3.19s2.55-1,2.55-3.19V31h2.79V43.33c0,4-2,5.52-5.34,5.52s-5.37-1.48-5.37-5.52V31Z"/><path d="M1689,31h3.41l5.07,13h0V31h2.65V48.5h-3.41l-5.07-13.38h0V48.5H1689Z"/><path d="M1705.22,43.09v.44c0,2.13,1,3.21,2.87,3.21a2.51,2.51,0,0,0,2.64-2.55c0-1.84-.93-2.65-2.5-3.11l-1.91-.66c-2.55-1-3.65-2.31-3.65-4.81,0-3.18,2.18-4.95,5.44-4.95,4.49,0,5,2.8,5,4.61v.39h-2.79v-.37c0-1.59-.69-2.52-2.45-2.52a2.24,2.24,0,0,0-2.36,2.52c0,1.5.76,2.26,2.63,3L1710,39c2.48.88,3.56,2.2,3.56,4.63,0,3.72-2.26,5.27-5.79,5.27-4.33,0-5.31-2.9-5.31-5.35v-.41Z"/><path d="M1326,65.66h0a3.64,3.64,0,0,1-3.82,2.38c-3.83,0-5.2-2.85-5.2-9.09s1.77-9.1,5.81-9.1a4.76,4.76,0,0,1,5.12,5v.32h-2.65V54.8c0-1.3-.54-2.84-2.45-2.84s-3,1.33-3,6.91.93,7.06,2.81,7.06c2.13,0,2.92-1.52,2.92-5.34h-2.94V58.48h5.59v9.21H1326Z"/><path d="M1330.31,50.2H1333v5.73l.07,0a3.76,3.76,0,0,1,3.24-1.81c2,0,3.28.9,3.28,3.57v9.95h-2.65v-9c0-1.74-.49-2.38-1.83-2.38-1.08,0-2.11.84-2.11,2.58v8.84h-2.65Z"/><path d="M1344.38,61.45v.76c0,1.76.22,4,2.2,4s2.11-2.13,2.11-2.94h2.5c0,3-1.77,4.76-4.63,4.76-2.16,0-4.83-.64-4.83-6.74,0-3.46.76-7.13,4.88-7.13,3.67,0,4.65,2.23,4.65,5.88v1.4Zm4.24-1.82v-.71c0-1.67-.54-2.94-2-2.94-1.67,0-2.2,1.67-2.2,3.38v.27Z"/><path d="M1353.44,54.51h2.5v1.54h.07a3.78,3.78,0,0,1,3.38-1.88c2,0,3.29.9,3.29,3.57v9.95H1360v-9c0-1.76-.46-2.38-1.84-2.38-1.07,0-2.1.81-2.1,2.58v8.84h-2.65Z"/><path d="M1367.87,68.82a1.73,1.73,0,0,0,1.91,1.57,2.19,2.19,0,0,0,2.23-2.48V65.78h0a3.19,3.19,0,0,1-3,1.82c-3.06,0-3.94-3-3.94-6.64,0-2.9.44-6.79,4.19-6.79a2.9,2.9,0,0,1,2.89,2h.05V54.51h2.5V67.06c0,3.21-1.37,5.14-4.93,5.14-3.92,0-4.36-2.3-4.36-3.38Zm1.86-3.33c2.06,0,2.28-2.6,2.28-4.68s-.27-4.54-2.11-4.54-2.23,2-2.23,4.42C1367.67,62.94,1367.77,65.49,1369.73,65.49Z"/><path d="M1377,50.2h2.64v5.73l.08,0a3.76,3.76,0,0,1,3.23-1.81c2,0,3.29.9,3.29,3.57v9.95h-2.65v-9c0-1.74-.49-2.38-1.84-2.38-1.08,0-2.11.84-2.11,2.58v8.84H1377Z"/><path d="M1388.92,50h2.64v2.65h-2.64Zm0,4.51h2.64V67.69h-2.64Z"/><path d="M1399.92,58.36V58c0-1-.37-2-1.74-2-1.06,0-1.89.47-1.89,1.72,0,1,.47,1.44,1.86,1.93l1.69.59c2,.66,2.87,1.72,2.87,3.8,0,2.82-2.08,4-4.73,4-3.33,0-4.34-1.55-4.34-4.1v-.49H1396v.42c0,1.54.51,2.35,2,2.35s2.16-.73,2.16-1.93a1.91,1.91,0,0,0-1.45-1.94l-2.15-.76c-2-.66-2.82-1.69-2.82-3.8,0-2.47,1.77-3.62,4.51-3.62,3.36,0,4.12,2,4.12,3.6v.59Z"/><path d="M1410.72,50.2h2.79v7.62h0l5.3-7.62h3.06l-5.05,7.37,5.59,10.12h-3.16l-4.24-7.86-1.55,2.2v5.66h-2.79Z"/><path d="M1423.26,50.2h2.65v5.73l.07,0a3.77,3.77,0,0,1,3.24-1.81c2,0,3.28.9,3.28,3.57v9.95h-2.64v-9c0-1.74-.49-2.38-1.84-2.38-1.08,0-2.11.84-2.11,2.58v8.84h-2.65Z"/><path d="M1443.7,65c0,.49.29.93.68.93a1.06,1.06,0,0,0,.45-.07v1.71a2.86,2.86,0,0,1-1.3.32c-1.18,0-2.16-.47-2.23-1.74h0A3.41,3.41,0,0,1,1438,68c-2.13,0-3.43-1.16-3.43-3.7,0-2.94,1.3-3.56,3.07-4.14l2.05-.57c1-.27,1.55-.54,1.55-1.69s-.42-2-1.81-2c-1.77,0-2,1.25-2,2.52h-2.5c0-2.81,1.15-4.33,4.63-4.33,2.33,0,4.19.9,4.19,3.23Zm-2.5-4.22a20.5,20.5,0,0,1-2.94,1.23,2.17,2.17,0,0,0-1.08,2.13c0,1.1.54,2,1.64,2,1.59,0,2.38-1.18,2.38-3.14Z"/><path d="M1446.39,54.51h2.5v1.54h.07a3.81,3.81,0,0,1,3.39-1.88c2,0,3.28.9,3.28,3.57v9.95H1453v-9c0-1.76-.46-2.38-1.84-2.38-1.07,0-2.1.81-2.1,2.58v8.84h-2.65Z"/></g><g id="Italy"><path d="M536.27,87.12h2.79v17.5h-2.79Z"/><path d="M544.69,89.47h-4.16V87.12h11.05v2.35h-4.09v15.15h-2.8Z"/><path d="M555.13,87.12h3.58l4.61,17.5H560.4l-1.08-4.29H554.2l-1.13,4.29h-2.91Zm3.73,11-2-8.63h-.05l-2.09,8.63Z"/><path d="M564.22,87.12H567v15.15h6.77v2.35h-9.56Z"/><path d="M576.13,97.78l-4.51-10.66h3.11l2.94,7.55,3-7.55h2.92l-4.68,10.66v6.84h-2.79Z"/></g><g id="Egypt"><path d="M857.68,40.62h9.46V43h-6.67v4.86h6.28v2.35h-6.28v5.59h6.86v2.35h-9.65Z"/><path d="M878.11,56.08h-.05a3.62,3.62,0,0,1-3.82,2.38c-3.82,0-5.19-2.84-5.19-9.09s1.76-9.09,5.8-9.09a4.77,4.77,0,0,1,5.13,5v.32h-2.65v-.42c0-1.3-.54-2.84-2.45-2.84s-3,1.32-3,6.91.93,7.05,2.82,7.05c2.13,0,2.91-1.52,2.91-5.34h-2.94V48.9h5.59v9.22h-2.11Z"/><path d="M885.58,51.28l-4.51-10.66h3.12l2.94,7.55,3-7.55h2.92l-4.68,10.66v6.84h-2.8Z"/><path d="M894.4,40.62h5.54c3.36,0,4.83,2.11,4.83,5.1s-1.86,5.17-5.12,5.17H897.2v7.23h-2.8Zm2.8,8.16h2c1.5,0,2.8-.78,2.8-3,0-1.89-.76-3-3-3H897.2Z"/><path d="M909.52,43h-4.17V40.62h11.06V43h-4.1V58.12h-2.79Z"/></g></g></svg>