<svg id="Text" xmlns="http://www.w3.org/2000/svg" viewBox="0 0 1847.91 114"><title>ce1200text</title><g id="Indians"><path d="M1461,6.66a20.68,20.68,0,0,0-2.8,11,21.39,21.39,0,0,0,2.8,11h-1.89a18.73,18.73,0,0,1,.05-22Z"/><path d="M1462.41,6.66h2.8v7h5.14v-7h2.79v17.5h-2.79V16h-5.14v8.14h-2.8Z"/><path d="M1476,6.47h2.65V9.11H1476Zm0,4.5h2.65V24.16H1476Z"/><path d="M1481.3,11h2.5v1.55h.07a3.8,3.8,0,0,1,3.39-1.89c2,0,3.28.91,3.28,3.58v10h-2.65v-9c0-1.77-.46-2.38-1.83-2.38-1.08,0-2.11.81-2.11,2.57v8.85h-2.65Z"/><path d="M1499.82,22.54h0a2.8,2.8,0,0,1-2.89,2c-3.06,0-4.31-2.6-4.31-7.1,0-5.86,2.06-6.77,4.07-6.77a3.05,3.05,0,0,1,3,1.89h0V6.66h2.64v17.5h-2.5Zm-2.4-9.8c-1.49,0-2.06,1.22-2.06,4.78,0,3,.37,4.87,2.23,4.87s2.23-1.83,2.23-4.68C1499.82,14.55,1499.48,12.74,1497.42,12.74Z"/><path d="M1511.61,22.62h-.08a3.78,3.78,0,0,1-3.38,1.88c-2,0-3.28-.9-3.28-4.31V11h2.65v9.46c0,1.47.63,2,1.79,2a2,2,0,0,0,2.15-2.2V11h2.65V24.16h-2.5Z"/><path d="M1522.34,14.82v-.34c0-1.05-.37-2-1.74-2-1,0-1.89.46-1.89,1.71,0,1.05.47,1.45,1.86,1.94l1.7.59c2,.66,2.86,1.71,2.86,3.79,0,2.82-2.08,4-4.73,4-3.33,0-4.34-1.54-4.34-4.09v-.49h2.36v.42c0,1.54.51,2.35,2.06,2.35s2.15-.74,2.15-1.94a1.91,1.91,0,0,0-1.44-1.93l-2.16-.76c-2-.66-2.82-1.69-2.82-3.8,0-2.48,1.77-3.63,4.51-3.63,3.36,0,4.12,2,4.12,3.6v.59Z"/><path d="M1525.82,28.67a20.68,20.68,0,0,0,2.79-11,21.4,21.4,0,0,0-2.79-11h1.88a18.68,18.68,0,0,1,0,22Z"/></g></svg>