<svg xmlns="http://www.w3.org/2000/svg" viewBox="0 0 1847.91 115"><title>ce1350text</title><g id="Text"><g id="Indians"><path d="M1204.24,50.66H1207v17.5h-2.79Z"/><path d="M1209.8,50.66h3.41l5.07,13h0v-13H1221v17.5h-3.41l-5.07-13.38h0V68.16h-2.65Z"/><path d="M1223.86,50.66h5c5.49,0,6.17,3.58,6.17,8.75s-.68,8.75-6.17,8.75h-5Zm2.8,15.39h2.3c2.3,0,3.26-1.52,3.26-6.64,0-4.93-.83-6.64-3.26-6.64h-2.3Z"/><path d="M1237.36,50.66h2.8v17.5h-2.8Z"/><path d="M1246.23,50.66h3.58l4.61,17.5h-2.92l-1.08-4.29h-5.12l-1.13,4.29h-2.91Zm3.73,11L1248,53h0l-2.09,8.63Z"/></g></g><g id="YEARS"><g id="Right"><path d="M1787.27,111.23V97.87h-3.82V95.94h.28c1.77,0,3.8-.44,4.35-2.76v-.36h2.15v18.41Z"/><path d="M1798,106.11c0,1.61.55,3.4,2.52,3.4s2.58-1.48,2.58-3.3c0-2.29-.73-3.43-3-3.43h-1.15V100.7H1800c2,0,2.65-1.35,2.65-3.15,0-1.32-.6-2.65-2.13-2.65-1.82,0-2.34,1.56-2.34,3.22h-2.81c0-3.45,1.77-5.3,5.31-5.3,2.21,0,4.94,1,4.94,4.71a3.92,3.92,0,0,1-2.94,4v.07c1.9.19,3.35,1.67,3.35,4.27,0,3.67-1.79,5.69-5.61,5.69-3.33,0-5.26-1.63-5.26-5.48Z"/><path d="M1807.68,106.26h2.81v.5a2.35,2.35,0,0,0,2.42,2.6c2.08,0,2.62-2,2.62-4.19s-.57-3.92-2.47-3.92a2.35,2.35,0,0,0-2.42,1.69l-2.62-.11.91-9.65h8.86v2.37h-6.65l-.6,4.84,0,0a4.06,4.06,0,0,1,3.09-1.43c3.85,0,4.82,3.25,4.82,6.08,0,3.7-1.69,6.5-5.67,6.5-3.31,0-5.15-1.69-5.15-4.94Z"/><path d="M1825.57,92.82c3.53,0,5.51,2.21,5.51,9.39s-2,9.38-5.51,9.38-5.52-2.21-5.52-9.38S1822,92.82,1825.57,92.82Zm0,16.69c2,0,2.54-2,2.54-7.3s-.54-7.31-2.54-7.31-2.55,2-2.55,7.31S1823.56,109.51,1825.57,109.51Z"/></g><g id="Layer_34" data-name="Layer 34"><path d="M27.52,114.83V101.46H23.7V99.54H24c1.77,0,3.8-.44,4.35-2.76v-.36h2.16v18.41Z"/><path d="M38.23,109.71c0,1.61.55,3.4,2.52,3.4s2.58-1.48,2.58-3.3c0-2.29-.73-3.43-3-3.43H39.19V104.3h1.07c2,0,2.65-1.35,2.65-3.15,0-1.33-.6-2.65-2.13-2.65-1.82,0-2.34,1.56-2.34,3.22H35.63c0-3.46,1.77-5.3,5.31-5.3,2.21,0,4.94,1,4.94,4.7,0,1.9-1.15,3.75-2.94,4v.08c1.9.18,3.35,1.67,3.35,4.27,0,3.66-1.79,5.69-5.61,5.69-3.33,0-5.26-1.64-5.26-5.48Z"/><path d="M47.93,109.86h2.81v.5a2.35,2.35,0,0,0,2.42,2.6c2.08,0,2.62-2,2.62-4.19s-.57-3.93-2.47-3.93a2.36,2.36,0,0,0-2.42,1.69l-2.62-.1.91-9.65H58v2.37H51.39l-.6,4.83.05.06a4.06,4.06,0,0,1,3.1-1.43c3.84,0,4.81,3.25,4.81,6.08,0,3.69-1.69,6.5-5.67,6.5-3.3,0-5.15-1.69-5.15-4.94Z"/><path d="M65.82,96.42c3.53,0,5.51,2.21,5.51,9.38s-2,9.39-5.51,9.39S60.3,113,60.3,105.8,62.28,96.42,65.82,96.42Zm0,16.69c2,0,2.55-2,2.55-7.31s-.55-7.3-2.55-7.3-2.55,2-2.55,7.3S63.82,113.11,65.82,113.11Z"/><path d="M29.19,2.49V-10.87H25.37v-1.92h.28c1.77,0,3.8-.45,4.34-2.76v-.37h2.16V2.49Z"/><path d="M39.9-2.63C39.9-1,40.44.78,42.42.78S45-.71,45-2.53C45-4.81,44.27-6,42-6H40.86V-8h1.07c2,0,2.65-1.35,2.65-3.14,0-1.33-.6-2.66-2.13-2.66-1.82,0-2.34,1.56-2.34,3.23H37.3c0-3.46,1.77-5.31,5.3-5.31,2.21,0,4.94,1,4.94,4.71,0,1.9-1.14,3.75-2.94,4v.08C46.5-6.92,48-5.44,48-2.84c0,3.67-1.8,5.7-5.62,5.7-3.32,0-5.25-1.64-5.25-5.49Z"/><path d="M55-15.92c3.54,0,5.52,2.21,5.52,9.39s-2,9.39-5.52,9.39S49.49.65,49.49-6.53,51.47-15.92,55-15.92ZM55,.78c2,0,2.55-2,2.55-7.31S57-13.84,55-13.84s-2.54,2-2.54,7.31S53,.78,55,.78Z"/><path d="M67.48-15.92C71-15.92,73-13.71,73-6.53s-2,9.39-5.52,9.39S62,.65,62-6.53,64-15.92,67.48-15.92Zm0,16.7c2,0,2.55-2,2.55-7.31s-.54-7.31-2.55-7.31-2.54,2-2.54,7.31S65.48.78,67.48.78Z"/></g></g></svg>