<svg id="Text" xmlns="http://www.w3.org/2000/svg" viewBox="0 0 1847.91 115"><title>ce1350text</title><g id="Indians"><path d="M1204.24,50.66H1207v17.5h-2.79Z"/><path d="M1209.8,50.66h3.41l5.07,13h0v-13H1221v17.5h-3.41l-5.07-13.38h0V68.16h-2.65Z"/><path d="M1223.86,50.66h5c5.49,0,6.17,3.58,6.17,8.75s-.68,8.75-6.17,8.75h-5Zm2.8,15.39h2.3c2.3,0,3.26-1.52,3.26-6.64,0-4.93-.83-6.64-3.26-6.64h-2.3Z"/><path d="M1237.36,50.66h2.8v17.5h-2.8Z"/><path d="M1246.23,50.66h3.58l4.61,17.5h-2.92l-1.08-4.29h-5.12l-1.13,4.29h-2.91Zm3.73,11L1248,53h0l-2.09,8.63Z"/></g></svg>