<svg xmlns="http://www.w3.org/2000/svg" viewBox="0 0 1847.91 115"><title>ce1350text</title><g id="YEARS"><g id="Right"><path d="M1787.21,111.23V97.87h-3.82V95.94h.29c1.77,0,3.79-.44,4.34-2.76v-.36h2.16v18.41Z" fill="#3b4351"/><path d="M1797.93,106.11c0,1.61.54,3.4,2.52,3.4s2.57-1.48,2.57-3.3c0-2.29-.73-3.43-3-3.43h-1.14V100.7H1800c2,0,2.65-1.35,2.65-3.15,0-1.32-.59-2.65-2.13-2.65-1.82,0-2.34,1.56-2.34,3.22h-2.81c0-3.45,1.77-5.3,5.31-5.3,2.21,0,4.94,1,4.94,4.71a3.91,3.91,0,0,1-2.94,4v.07c1.9.19,3.36,1.67,3.36,4.27,0,3.67-1.8,5.69-5.62,5.69-3.33,0-5.25-1.63-5.25-5.48Z" fill="#3b4351"/><path d="M1807.62,106.26h2.81v.5a2.35,2.35,0,0,0,2.42,2.6c2.08,0,2.63-2,2.63-4.19s-.58-3.92-2.48-3.92a2.34,2.34,0,0,0-2.41,1.69l-2.63-.11.91-9.65h8.87v2.37h-6.66l-.6,4.84,0,0a4.08,4.08,0,0,1,3.1-1.43c3.85,0,4.81,3.25,4.81,6.08,0,3.7-1.69,6.5-5.67,6.5-3.3,0-5.15-1.69-5.15-4.94Z" fill="#3b4351"/><path d="M1825.51,92.82c3.54,0,5.51,2.21,5.51,9.39s-2,9.38-5.51,9.38-5.51-2.21-5.51-9.38S1822,92.82,1825.51,92.82Zm0,16.69c2,0,2.55-2,2.55-7.3s-.55-7.31-2.55-7.31-2.55,2-2.55,7.31S1823.51,109.51,1825.51,109.51Z" fill="#3b4351"/></g><g id="left"><path d="M17.46,114.83V101.46H13.64V99.54h.29c1.77,0,3.79-.44,4.34-2.76v-.36h2.16v18.41Z" fill="#3b4351"/><path d="M28.18,109.71c0,1.61.54,3.4,2.52,3.4s2.57-1.48,2.57-3.3c0-2.29-.73-3.43-3-3.43H29.14V104.3H30.2c2,0,2.66-1.35,2.66-3.15,0-1.32-.6-2.65-2.14-2.65-1.82,0-2.34,1.56-2.34,3.22h-2.8c0-3.45,1.76-5.3,5.3-5.3,2.21,0,4.94,1,4.94,4.7a3.91,3.91,0,0,1-2.94,4v.07c1.9.19,3.36,1.67,3.36,4.27,0,3.66-1.8,5.69-5.62,5.69-3.33,0-5.25-1.64-5.25-5.48Z" fill="#3b4351"/><path d="M37.87,109.86h2.81v.5A2.36,2.36,0,0,0,43.1,113c2.08,0,2.63-2,2.63-4.19s-.58-3.93-2.48-3.93a2.35,2.35,0,0,0-2.41,1.69l-2.63-.1.91-9.65H48v2.37H41.33l-.6,4.84.06.05a4,4,0,0,1,3.09-1.43c3.85,0,4.81,3.25,4.81,6.08,0,3.69-1.69,6.5-5.67,6.5-3.3,0-5.15-1.69-5.15-4.94Z" fill="#3b4351"/><path d="M55.76,96.42c3.54,0,5.51,2.21,5.51,9.39s-2,9.38-5.51,9.38-5.51-2.21-5.51-9.38S52.22,96.42,55.76,96.42Zm0,16.69c2,0,2.55-2,2.55-7.3s-.55-7.31-2.55-7.31-2.55,2-2.55,7.31S53.76,113.11,55.76,113.11Z" fill="#3b4351"/><path d="M17.46,2.49V-10.87H13.64v-1.92h.29c1.77,0,3.79-.45,4.34-2.76v-.36h2.16V2.49Z" fill="#3b4351"/><path d="M28.18-2.63C28.18-1,28.72.78,30.7.78s2.57-1.48,2.57-3.3c0-2.29-.73-3.44-3-3.44H29.14V-8H30.2c2,0,2.66-1.35,2.66-3.14,0-1.33-.6-2.65-2.14-2.65-1.82,0-2.34,1.56-2.34,3.22h-2.8c0-3.46,1.76-5.3,5.3-5.3,2.21,0,4.94,1,4.94,4.7,0,1.9-1.14,3.75-2.94,4v.08c1.9.18,3.36,1.66,3.36,4.26,0,3.67-1.8,5.7-5.62,5.7-3.33,0-5.25-1.64-5.25-5.49Z" fill="#3b4351"/><path d="M43.28-15.91c3.54,0,5.51,2.2,5.51,9.38s-2,9.39-5.51,9.39S37.77.65,37.77-6.53,39.75-15.91,43.28-15.91Zm0,16.69c2,0,2.55-2,2.55-7.31s-.55-7.3-2.55-7.3-2.55,2-2.55,7.3S41.28.78,43.28.78Z" fill="#3b4351"/><path d="M55.76-15.91c3.54,0,5.51,2.2,5.51,9.38s-2,9.39-5.51,9.39S50.25.65,50.25-6.53,52.22-15.91,55.76-15.91Zm0,16.69c2,0,2.55-2,2.55-7.31s-.55-7.3-2.55-7.3-2.55,2-2.55,7.3S53.76.78,55.76.78Z" fill="#3b4351"/></g></g><g id="Text"><g id="Indians"><path d="M1204.24,50.66H1207v17.5h-2.79Z" fill="#3b4351"/><path d="M1209.8,50.66h3.41l5.07,13h0v-13H1221v17.5h-3.41l-5.07-13.38h0V68.16h-2.65Z" fill="#3b4351"/><path d="M1223.86,50.66h5c5.49,0,6.17,3.58,6.17,8.75s-.68,8.75-6.17,8.75h-5Zm2.8,15.39h2.3c2.3,0,3.26-1.52,3.26-6.64,0-4.93-.83-6.64-3.26-6.64h-2.3Z" fill="#3b4351"/><path d="M1237.36,50.66h2.8v17.5h-2.8Z" fill="#3b4351"/><path d="M1246.23,50.66h3.58l4.61,17.5h-2.92l-1.08-4.29h-5.12l-1.13,4.29h-2.91Zm3.73,11L1248,53h0l-2.09,8.63Z" fill="#3b4351"/></g><g id="Serbia"><path d="M994.84,26v.44c0,2.13,1,3.21,2.87,3.21a2.5,2.5,0,0,0,2.64-2.55c0-1.84-.93-2.64-2.5-3.11l-1.91-.66c-2.55-1-3.65-2.31-3.65-4.81,0-3.18,2.18-5,5.44-5,4.49,0,4.95,2.8,4.95,4.61v.39h-2.79V18.2c0-1.6-.69-2.53-2.45-2.53a2.23,2.23,0,0,0-2.35,2.53c0,1.49.76,2.25,2.62,3l1.89.69c2.47.88,3.55,2.2,3.55,4.63,0,3.72-2.26,5.27-5.79,5.27-4.33,0-5.31-2.89-5.31-5.34V26Z" fill="#3b4351"/><path d="M1005.4,13.91h9.46v2.35h-6.67v4.85h6.28v2.35h-6.28v5.59h6.87V31.4h-9.66Z" fill="#3b4351"/><path d="M1017.18,13.91h6.18c2.45,0,4.43,1.25,4.43,4.51,0,2.25-1,4-2.91,4.29v0c1.76.18,2.64,1.13,2.74,3.58,0,1.15,0,2.5.1,3.56a1.91,1.91,0,0,0,.83,1.51h-3.16a2.87,2.87,0,0,1-.46-1.54c0-.51-.08-1.05-.08-1.57s0-1.1,0-1.74c-.08-1.91-.67-2.74-2.55-2.74H1020V31.4h-2.8Zm5,7.79a2.58,2.58,0,0,0,2.79-2.84c0-1.86-.78-2.84-2.65-2.84H1020V21.7Z" fill="#3b4351"/><path d="M1030.34,13.91H1036c2.62,0,4.71,1.17,4.71,4.24,0,2.1-.86,3.43-2.58,4v.05c1.91.34,3.14,1.49,3.14,4.46s-2.11,4.77-5.39,4.77h-5.54Zm5,7.37a2.45,2.45,0,0,0,2.57-2.77c0-2.08-1.25-2.49-2.82-2.49h-2v5.26Zm.56,8c1.67,0,2.58-1.06,2.58-3.09a2.66,2.66,0,0,0-2.75-3h-2.6V29.3Z" fill="#3b4351"/><path d="M1043.37,13.91h2.8V31.4h-2.8Z" fill="#3b4351"/><path d="M1052.24,13.91h3.58l4.61,17.49h-2.92l-1.08-4.28h-5.12l-1.13,4.28h-2.91Zm3.73,11-2-8.63h0l-2.08,8.63Z" fill="#3b4351"/></g><g id="Mongolians"><path d="M1478.35,59.5h4.37l3.08,13h0l3-13h4.26V77h-2.64V62.44h0L1486.93,77h-2.35l-3.53-14.55h0V77h-2.65Z" fill="#3b4351"/><path d="M1495.63,68.24c0-6.24,1.76-9.09,5.78-9.09s5.78,2.85,5.78,9.09-1.76,9.1-5.78,9.1S1495.63,74.49,1495.63,68.24Zm8.77-.07c0-5.88-1.33-6.91-3-6.91s-3,1-3,6.91,1.32,7.06,3,7.06S1504.4,74.17,1504.4,68.17Z" fill="#3b4351"/><path d="M1509.66,59.5h3.41l5.07,13h0v-13h2.65V77h-3.41l-5.07-13.38h0V77h-2.65Z" fill="#3b4351"/><path d="M1532.38,75h-.05a3.64,3.64,0,0,1-3.82,2.38c-3.83,0-5.2-2.85-5.2-9.1s1.76-9.09,5.81-9.09a4.77,4.77,0,0,1,5.12,5.05v.32h-2.65V64.1c0-1.3-.54-2.84-2.45-2.84s-3,1.32-3,6.91.93,7.06,2.82,7.06c2.13,0,2.92-1.52,2.92-5.34h-2.94V67.78h5.58V77h-2.1Z" fill="#3b4351"/><path d="M1536.47,68.24c0-6.24,1.76-9.09,5.78-9.09S1548,62,1548,68.24s-1.76,9.1-5.78,9.1S1536.47,74.49,1536.47,68.24Zm8.77-.07c0-5.88-1.32-6.91-3-6.91s-3,1-3,6.91,1.32,7.06,3,7.06S1545.24,74.17,1545.24,68.17Z" fill="#3b4351"/><path d="M1550.19,59.5H1553V74.64h6.76V77h-9.55Z" fill="#3b4351"/><path d="M1561.26,59.5h2.79V77h-2.79Z" fill="#3b4351"/><path d="M1570.13,59.5h3.58l4.6,17.49h-2.91l-1.08-4.28h-5.12L1568.07,77h-2.92Zm3.72,11-2-8.62h0l-2.09,8.62Z" fill="#3b4351"/><path d="M1579.54,59.5h3.4l5.08,13h0v-13h2.65V77h-3.41l-5.07-13.38h0V77h-2.64Z" fill="#3b4351"/><path d="M1595.76,71.58V72c0,2.13,1,3.21,2.86,3.21a2.51,2.51,0,0,0,2.65-2.55c0-1.84-.93-2.65-2.5-3.11l-1.91-.66c-2.55-1-3.65-2.31-3.65-4.81,0-3.18,2.18-4.95,5.44-4.95,4.48,0,4.95,2.8,4.95,4.61v.39h-2.8v-.36c0-1.6-.68-2.53-2.45-2.53a2.23,2.23,0,0,0-2.35,2.53c0,1.49.76,2.25,2.62,3l1.89.69c2.47.88,3.55,2.2,3.55,4.63,0,3.72-2.25,5.27-5.78,5.27-4.34,0-5.32-2.9-5.32-5.35v-.41Z" fill="#3b4351"/><path d="M1347.72,93.47h-4.17V91.12h11v2.35h-4.09v15.15h-2.79Z" fill="#3b4351"/><path d="M1362.86,105.87c0,.49.29.93.69.93a1,1,0,0,0,.44-.07v1.72a2.86,2.86,0,0,1-1.3.32c-1.18,0-2.16-.47-2.23-1.74h0a3.42,3.42,0,0,1-3.28,1.93c-2.14,0-3.44-1.15-3.44-3.7,0-2.94,1.3-3.55,3.07-4.14l2.06-.56c1-.27,1.54-.54,1.54-1.69s-.42-2-1.81-2c-1.77,0-2,1.24-2,2.52H1354c0-2.82,1.15-4.34,4.63-4.34,2.33,0,4.19.91,4.19,3.24Zm-2.5-4.21a20.45,20.45,0,0,1-2.94,1.22,2.18,2.18,0,0,0-1.08,2.14c0,1.1.54,2,1.64,2,1.6,0,2.38-1.17,2.38-3.14Z" fill="#3b4351"/><path d="M1365.68,95.43h2.49V97h.08a3.68,3.68,0,0,1,3.16-1.89,2.86,2.86,0,0,1,3.06,2,3.61,3.61,0,0,1,3.34-2c1.86,0,3.21,1,3.21,3.51v10h-2.65v-9c0-1.74-.52-2.38-1.59-2.38s-2.11.83-2.11,2.57v8.85H1372v-9c0-1.74-.51-2.38-1.62-2.38s-2.08.86-2.08,2.57v8.85h-2.64Z" fill="#3b4351"/><path d="M1386,102.37v.76c0,1.76.22,4,2.21,4s2.1-2.13,2.1-2.94h2.5c0,3-1.76,4.75-4.63,4.75-2.15,0-4.83-.64-4.83-6.74,0-3.45.76-7.13,4.88-7.13,3.68,0,4.66,2.23,4.66,5.88v1.4Zm4.24-1.81v-.71c0-1.67-.54-2.94-2-2.94-1.67,0-2.21,1.66-2.21,3.38v.27Z" fill="#3b4351"/><path d="M1395,95.43h2.64v2.06h0a3.26,3.26,0,0,1,3.06-2.4,1.59,1.59,0,0,1,.64.1v2.69a3.86,3.86,0,0,0-1.1-.14c-1.2,0-2.65.54-2.65,3v7.89H1395Z" fill="#3b4351"/><path d="M1402.87,91.12h2.64v17.5h-2.64Z" fill="#3b4351"/><path d="M1416.83,105.87c0,.49.3.93.69.93a1,1,0,0,0,.44-.07v1.72a2.83,2.83,0,0,1-1.3.32c-1.18,0-2.16-.47-2.23-1.74h0a3.41,3.41,0,0,1-3.28,1.93c-2.13,0-3.43-1.15-3.43-3.7,0-2.94,1.3-3.55,3.06-4.14l2.06-.56c1-.27,1.54-.54,1.54-1.69s-.41-2-1.81-2c-1.77,0-2,1.24-2,2.52H1408c0-2.82,1.15-4.34,4.63-4.34,2.33,0,4.19.91,4.19,3.24Zm-2.5-4.21a20,20,0,0,1-2.94,1.22,2.18,2.18,0,0,0-1.08,2.14c0,1.1.54,2,1.65,2,1.59,0,2.37-1.17,2.37-3.14Z" fill="#3b4351"/><path d="M1419.52,95.43h2.5V97h.08a3.77,3.77,0,0,1,3.38-1.89c2,0,3.28.91,3.28,3.58v10h-2.64v-9c0-1.77-.47-2.38-1.84-2.38-1.08,0-2.11.81-2.11,2.57v8.85h-2.65Z" fill="#3b4351"/><path d="M1433.59,102.37v.76c0,1.76.22,4,2.2,4s2.11-2.13,2.11-2.94h2.5c0,3-1.76,4.75-4.63,4.75-2.16,0-4.83-.64-4.83-6.74,0-3.45.76-7.13,4.88-7.13,3.67,0,4.65,2.23,4.65,5.88v1.4Zm4.24-1.81v-.71c0-1.67-.54-2.94-2-2.94-1.66,0-2.2,1.66-2.2,3.38v.27Z" fill="#3b4351"/></g></g></svg>