<svg xmlns="http://www.w3.org/2000/svg" viewBox="0 0 1847.91 111"><title>ce1300text</title><g id="YEARS"><g id="Right"><path d="M1792.5,108.54V95.18h-3.82V93.26h.28c1.77,0,3.8-.45,4.35-2.76v-.36h2.15v18.4Z" fill="#3b4351"/><path d="M1803.21,103.42c0,1.62.55,3.41,2.52,3.41s2.58-1.48,2.58-3.3c0-2.29-.73-3.44-3-3.44h-1.15V98h1.07c2,0,2.65-1.35,2.65-3.14,0-1.33-.6-2.65-2.13-2.65-1.82,0-2.34,1.56-2.34,3.22h-2.81c0-3.46,1.77-5.3,5.3-5.3,2.21,0,4.94,1,4.94,4.7,0,1.9-1.14,3.75-2.93,4V99c1.89.18,3.35,1.67,3.35,4.26,0,3.67-1.79,5.7-5.62,5.7-3.32,0-5.25-1.64-5.25-5.49Z" fill="#3b4351"/><path d="M1818.32,90.14c3.53,0,5.51,2.21,5.51,9.38s-2,9.39-5.51,9.39-5.52-2.21-5.52-9.39S1814.78,90.14,1818.32,90.14Zm0,16.69c2,0,2.54-2,2.54-7.31s-.54-7.3-2.54-7.3-2.55,2-2.55,7.3S1816.31,106.83,1818.32,106.83Z" fill="#3b4351"/><path d="M1830.8,90.14c3.53,0,5.51,2.21,5.51,9.38s-2,9.39-5.51,9.39-5.52-2.21-5.52-9.39S1827.26,90.14,1830.8,90.14Zm0,16.69c2,0,2.54-2,2.54-7.31s-.54-7.3-2.54-7.3-2.55,2-2.55,7.3S1828.79,106.83,1830.8,106.83Z" fill="#3b4351"/></g><g id="left"><path d="M17.46,110.45V97.09H13.64V95.16h.29c1.77,0,3.79-.44,4.34-2.75V92h2.16v18.41Z" fill="#3b4351"/><path d="M28.18,105.33c0,1.61.54,3.41,2.52,3.41s2.57-1.49,2.57-3.31c0-2.28-.73-3.43-3-3.43H29.14V99.92H30.2c2,0,2.66-1.35,2.66-3.14,0-1.33-.6-2.66-2.14-2.66-1.82,0-2.34,1.56-2.34,3.23h-2.8c0-3.46,1.76-5.31,5.3-5.31,2.21,0,4.94,1,4.94,4.71a3.9,3.9,0,0,1-2.94,4v.08c1.9.18,3.36,1.66,3.36,4.26,0,3.67-1.8,5.7-5.62,5.7-3.33,0-5.25-1.64-5.25-5.49Z" fill="#3b4351"/><path d="M43.28,92c3.54,0,5.51,2.21,5.51,9.39s-2,9.39-5.51,9.39-5.51-2.21-5.51-9.39S39.75,92,43.28,92Zm0,16.7c2,0,2.55-2,2.55-7.31s-.55-7.31-2.55-7.31-2.55,2-2.55,7.31S41.28,108.74,43.28,108.74Z" fill="#3b4351"/><path d="M55.76,92c3.54,0,5.51,2.21,5.51,9.39s-2,9.39-5.51,9.39-5.51-2.21-5.51-9.39S52.22,92,55.76,92Zm0,16.7c2,0,2.55-2,2.55-7.31s-.55-7.31-2.55-7.31-2.55,2-2.55,7.31S53.76,108.74,55.76,108.74Z" fill="#3b4351"/></g></g><g id="Nation_OUtlines" data-name="Nation OUtlines"><polygon id="Romans" points="854.62 562 829.93 449 711.95 340 764.62 226 729.95 111 845.28 0 1002.62 -112 1065.29 -226 1021.28 -337 995.34 -454 815.28 -562 703.28 -673 687.28 -788 737.95 -902 780.62 -1014 712.62 -1125 645.95 -1239 550.62 -1352 491.95 -1461.83 453.95 -1574.83 455.29 -1686.83 435.95 -1801.83 470.62 -1909.83 322.62 -1909.83 416.12 -2022.83 480.12 -2132.83 410.62 -2244.83 316.95 -2358.83 248.28 -2473.83 210.28 -2584.83 175.95 -2695.83 159.62 -2811.83 91.28 -2924.83 83.12 -3029.83 117.62 -3143.83 151.37 -3257.83 129.62 -3367.83 109.62 -3482.83 99.62 -3594.83 73.12 -3704.83 75.42 -4602.83 85.95 -4492.83 95.28 -4380.83 111.95 -4268.83 116.62 -4157.83 137.95 -4044.83 149.95 -3928.83 169.95 -3816.83 205.28 -3704.83 231.95 -3594.83 287.74 -3482.83 467.73 -3367.83 683.72 -3257.83 998.71 -3143.83 1118.7 -3029.83 1131.14 -2924.83 1195.2 -2811.83 1182.62 -2695.83 1245.62 -2584.83 1220.62 -2473.83 1122.62 -2358.83 981.62 -2244.83 880.12 -2132.83 717.95 -2022.83 593.62 -1909.83 616.62 -1801.83 717.28 -1686.83 839.28 -1571.99 863.28 -1461.83 915.28 -1352 810.62 -1239 885.95 -1125 1037.95 -1014 1125.95 -902 1253.95 -788 1213.95 -673 1202.62 -562 1169.95 -454 1161.29 -337 1218.62 -226 1131.95 -112 936.62 0 798.62 111 819.28 226 759.95 340 849.28 449 854.62 562" fill="none" stroke="#3b4351" stroke-miterlimit="10"/><polygon id="Indians" points="1372.19 -4938.66 1294.19 -5052.83 1285.19 -5165.83 1313.69 -5276.83 1348.19 -5389.83 1310.69 -5503.83 1298.69 -5613.83 1313.69 -5725.83 1345.19 -5837.83 1325.69 -5951.83 1343.69 -6065.83 1417.19 -6176.83 1400.69 -6289.91 1429.19 -6402.83 1419.27 -6518.1 1387.19 -6629.83 1387.19 -6741.83 1438.19 -6852.33 1462.18 -6964.33 1480.18 -7077.37 1445.82 -7187.66 1411.11 -7299.66 1545.86 -7299.66 1580.1 -7187.66 1593.12 -7077.43 1552.12 -6964.33 1514.62 -6852.33 1514.12 -6742.16 1553.12 -6630.1 1548.12 -6517.83 1519.62 -6402.83 1534.12 -6289.16 1575.12 -6176.83 1559.62 -6065.83 1564.12 -5952.1 1534.62 -5837.83 1486.12 -5725.83 1465.12 -5613.83 1471.12 -5504.66 1502.12 -5390.66 1508.12 -5276.83 1534.62 -5165.83 1542.77 -5086.97 1555.62 -4938.66 1554.62 -4829.83 1567.12 -4717.83 1542.12 -4603.1 1498.12 -4492.83 1490.62 -4380.83 1513.12 -4268.83 1568.62 -4157.83 1544.12 -4044.83 1530.62 -3929.1 1523.62 -3817.1 1532.62 -3704.83 1565.12 -3594.83 1543.62 -3482.83 1514.12 -3367.83 1490.12 -3258.1 1495.62 -3143.83 1517.12 -3030.16 1528.12 -2924.83 1580.62 -2812.16 1578.12 -2696.16 1578.12 -2585.66 1560.12 -2474.1 1526.62 -2358.83 1467.62 -2244.83 1381.62 -2133.1 1270.62 -2022.83 1090.12 -1910.1 860.62 -1801.83 1302.12 -1686.83 1377.03 -1574.83 1550.62 -1461.83 1519.62 -1352 1476.12 -1239 1516.13 -1125 1534.62 -1012.66 1552.65 -902 1585.62 -788.1 1620.12 -673 1650.12 -562 1630.62 -454.1 1622.45 -337.1 1565.62 -226 1402.62 -112.66 1173.62 0 1148.62 111 1334.62 226 1283.62 340 1344.62 449 1544.62 562 1602.62 676.34 1627.62 788 1674.62 900.9 1627.62 1016 1634.62 1128 1686.62 1240 1701.62 1353 1620.12 1465 1606.12 1576 1606.12 1689.83 1552.62 1689.83 1549.52 1576 1569.62 1465 1683.62 1353 1667.62 1240 1607.62 1128 1596.62 1015.34 1617.62 901 1584.62 788 1562.62 676 1507.62 562 1304.62 448.9 1225.62 339.9 1236.97 302.95 1264.87 226 1082.62 111 1084.2 0.51 1323.62 -112 1500.47 -226.1 1573.62 -337 1600.62 -454 1604.62 -562 1569.62 -673 1514.62 -788 1447.62 -902.1 1418.62 -1014 1404.62 -1125 1367.62 -1239 1397.62 -1352 1418.62 -1462.1 1339.62 -1575.1 1246.62 -1686.83 748.62 -1801.83 753.62 -1909.83 910.76 -2022.83 1053.62 -2132.83 1195.2 -2244.83 1311.62 -2359.66 1353.62 -2473.83 1348.62 -2584.83 1364.62 -2696.66 1406.62 -2811.83 1401.62 -2924.83 1429.62 -3029.83 1394.62 -3144.1 1393.2 -3257.83 1391.82 -3368.1 1437.52 -3482.83 1513.62 -3595.1 1505.64 -3704.83 1472.62 -3816.66 1447.62 -3928.83 1440.63 -4044.83 1462.62 -4157.83 1391.1 -4268.83 1348.62 -4380.83 1332.62 -4492.83 1376.98 -4602.83 1375.34 -4718.1 1373.74 -4830.1 1372.19 -4938.66" fill="none" stroke="#3b4351" stroke-miterlimit="10"/><polygon id="Chinese" points="1610.76 -4940.1 1609.69 -5053.1 1608.62 -5166.16 1585.12 -5276.83 1551.62 -5389.83 1509.12 -5503.83 1538.12 -5614.1 1586.62 -5726.1 1616.12 -5837.83 1645.62 -5952.1 1697.12 -6066.1 1714.62 -6177.16 1689.12 -6288.83 1700.12 -6402.83 1676.62 -6517.83 1650.62 -6630.16 1630.62 -6741.83 1620.62 -6852.33 1646.62 -6964.33 1667.62 -7076.99 1651.62 -7187.66 1633.99 -7299.66 1768.79 -7299.66 1768.79 901 1768.79 1015.9 1766.12 1128 1757.62 1240 1736.12 1352.9 1676.12 1464.9 1661.12 1576 1663.62 1689.83 1606.12 1689.83 1606.12 1575.9 1620.12 1465 1701.62 1353 1696.12 1239.84 1654.12 1128 1681.62 1016 1739.62 900.9 1748.62 787.84 1744.12 675.84 1685.62 562 1615.12 451.34 1636.12 340 1738.62 226 1761.12 111 1758.62 0 1732.12 -112 1695.62 -226 1667.62 -337 1651.12 -454 1650.12 -562 1620.12 -673 1585.62 -788.1 1552.62 -902.1 1535.12 -1014 1516.12 -1125.1 1476.12 -1239 1542.12 -1352 1625.62 -1462.16 1668.12 -1575.16 1666.12 -1686.83 1673.62 -1801.83 1653.62 -1909.83 1602.12 -2023.1 1534.12 -2133.1 1564.12 -2244.83 1598.12 -2359.1 1612.12 -2473.83 1611.01 -2585.1 1592.62 -2696.1 1609.25 -2811.83 1616.07 -2924.83 1553.62 -3029.83 1529.62 -3143.83 1528.62 -3258.1 1555.62 -3367.83 1612.12 -3482.83 1621.12 -3594.83 1587.12 -3704.83 1567.62 -3816.83 1576.62 -3928.83 1571.12 -4044.83 1584.62 -4158.1 1558.62 -4268.83 1545.62 -4381.1 1557.62 -4493.1 1599.62 -4602.83 1625.12 -4718.1 1613.62 -4830.1 1610.76 -4940.1" fill="none" stroke="#3b4351" stroke-miterlimit="10"/><polygon id="Denmark" points="916.62 1689.83 927.62 1689.83 926.37 1576 701.12 1465 690.87 1353 683.87 1240 637.87 1128 522.37 1016 457.37 901 426.62 788 299.62 676 273.62 562 281.62 449 289.12 340 302.12 226 296.87 111 275.62 0 253.62 -112 226.62 -226 210.62 -337 199.62 -562 199.37 -673 291.37 -788 277.29 -902 235.95 -1014 188.87 -1125 180.62 -1239 142.62 -1352 139.95 -1461.83 120.62 -1574.83 99.95 -1686.83 73.12 -1801.83 90.34 -1686.83 107.12 -1574.83 118.37 -1461.83 120.37 -1352 122.62 -1239 125.87 -1125 158.37 -1014 185.87 -902 183.62 -788 127.62 -673 119.62 -562 119.12 -454 156.87 -337 188.62 -226 212.62 -112 252.37 0 277.87 111 283.37 226 267.12 340 248.87 449 213.87 562 234.37 676 312.12 788 398.12 901 458.87 1016 593.37 1128 637.87 1240 674.12 1353 691.37 1465 915.37 1576 916.62 1689.83" fill="none" stroke="#3b4351" stroke-miterlimit="10"/><polygon id="Norway" points="213.87 562 222.62 449 243.95 340 258.95 226 252.95 111 220.95 0 186.86 -112 160.95 -226 133.28 -337 96.28 -454 84.28 -562 89.28 -673 120.28 -788 98.62 -902 94.28 -1014 91.95 -1125 95.28 -1239 99.62 -1352 96.58 -1461.83 93.44 -1574.83 90.34 -1686.83 107.12 -1574.83 118.37 -1461.83 120.37 -1352 122.62 -1239 125.87 -1125 158.37 -1014 185.87 -902 183.62 -788 127.62 -673 119.62 -562 119.12 -454 156.87 -337 188.62 -226 212.62 -112 252.37 0 277.87 111 283.37 226 267.12 340 248.87 449 213.87 562" fill="none" stroke="#3b4351" stroke-miterlimit="10"/><polygon id="England" points="874.62 1689.83 688.95 1689.83 687.95 1576 439.12 1465 252.12 1353 159.62 1240 111.62 1128 93.62 1016 86.12 901 84.62 788 86.95 676 98.28 562 116.95 449 114.62 340 122.62 226 120.62 111 108.28 0 100.16 -112 107.95 -226 107.95 -337 77.28 -454 73.12 -1801.83 90.34 -1686.83 93.44 -1574.83 96.58 -1461.83 99.62 -1352 91.95 -1125 94.28 -1014 98.62 -902 120.28 -788 89.28 -673 84.28 -562 96.28 -454 133.28 -337 160.95 -226 172.95 -112 208.95 0 223.62 111 228.28 226 211.62 340 201.62 449 189.95 562 193.28 676 235.28 788 248.62 901 348.62 1016 562.62 1128 622.12 1240 602.12 1353 652.12 1465 872.95 1576 874.62 1689.83" fill="none" stroke="#3b4351" stroke-miterlimit="10"/><polygon id="South_America" data-name="South America" points="108.28 0 120.62 111 122.62 226 114.62 340 116.95 449 98.28 562 86.95 676 84.62 788 79.62 901 82.62 1016 87.62 1128 107.62 1240 145.12 1353 167.12 1465 198.12 1576 200.12 1689.83 77.28 1689.83 77.28 -454 107.95 -337 107.95 -226 100.16 -112 108.28 0" fill="none" stroke="#3b4351" stroke-miterlimit="10"/><polygon id="France" points="674.34 788 785.95 900.67 815.95 1016 963.28 1128 1049.29 1240 932.62 1353 899.28 1465 1099.75 1577 1102.12 1689.83 946.74 1689.83 946.24 1576 748.62 1465 745.95 1353 741.28 1240 711.95 1128 643.28 1016 613.28 901 535.95 788 385.29 676 317.95 562 311.95 449 310.62 340 321.29 226 314.62 111 275.62 0 253.62 -112 258.62 -223.33 325.29 -337 314.62 -454 286.62 -562 249.62 -673 291.37 -788 409.62 -788 362.62 -673 373.95 -562 423.58 -454 444.62 -337 381.95 -223.33 347.12 -112 361.29 0 384.62 111 391.95 226 365.95 340 379.95 449 391.29 562 491.95 676 674.34 788" fill="none" stroke="#3b4351" stroke-miterlimit="10"/><polygon id="Franks_to_Holy_Roman_Empire" data-name="Franks to Holy Roman Empire" points="594.62 -112 505.62 0 482.62 111 599.12 226 617.12 340 639.62 449 772.62 562 953.62 676 1131.62 788 1201.62 901 1109.12 1016 1144.62 1128 1249.12 1240 1301.62 1353 1217.12 1465 1288.12 1576 1290.62 1689.83 1234.62 1689.83 1232.12 1576 1140.12 1464.91 1137.62 1353 1115.62 1240 1053.62 1128 973.12 1016 1064.12 901 953.62 788 741.12 676 577.12 562 525.62 449 418.62 340 417.62 226 407.62 111 385.62 0 406.62 -112 421.62 -222.33 466.62 -337 441.95 -454 373.95 -562 371.78 -583.31 362.62 -673 409.62 -788 559.62 -788 626.73 -673 742.62 -562 897.74 -454 874.62 -337 818.62 -225.4 594.62 -112" fill="none" stroke="#3b4351" stroke-miterlimit="10"/><polygon points="703.28 -673 815.28 -562 966.12 -454 987.12 -337 1028.12 -226 932.12 -112 729.62 0 630.12 111 721.12 226 711.95 340 829.93 449 854.62 562 1030.37 676 1169.87 788 1257.37 901 1158.4 1016 1196.12 1128 1147.62 1016 1238.87 901 1162.87 788 1022.62 676 841.12 562 809.62 449 692.62 340 689.38 226 586.62 111 584.12 0 663.53 -112 851.12 -226 874.62 -337 897.74 -454 742.62 -562 626.73 -673 559.62 -788 644.62 -788 703.28 -673" fill="none" stroke="#3b4351" stroke-miterlimit="10"/><polygon id="Holland" points="613.28 901 643.28 1016 711.95 1128 741.28 1240 729.95 1353 732.62 1465 935.28 1576 937.12 1689.83 927.62 1689.83 926.37 1576 701.12 1465 690.87 1353 683.87 1240 637.87 1128 522.37 1016 457.37 901 426.62 788 299.62 676 273.62 562 281.62 449 289.12 340 302.12 226 296.87 111 275.62 0 314.62 111 321.29 226 310.62 340 311.95 449 317.95 562 385.29 676 535.95 788 613.28 901" fill="none" stroke="#3b4351" stroke-miterlimit="10"/><polygon id="Sweden" points="691.37 1465 673.95 1465 893.62 1576 895.28 1689.83 874.62 1689.83 872.95 1576 652.12 1465 602.12 1353 622.12 1240 562.62 1128 348.62 1016 248.62 901 235.28 788 193.28 676 189.95 562 201.62 449 211.62 340 228.28 226 223.62 111 208.95 0 172.95 -112 160.95 -226 186.86 -112 220.95 0 252.95 111 258.95 226 243.95 340 222.62 449 213.87 562 234.37 676 312.12 788 398.12 901 458.87 1016 593.37 1128 637.87 1240 674.12 1353 691.37 1465" fill="none" stroke="#3b4351" stroke-miterlimit="10"/><polygon points="1523.12 1240.84 1446.62 1128 1405.12 1016.56 1442.62 901 1396.62 788 1391.62 676 1351.62 562 1183.62 449 1092.62 340 1124.29 226 970.62 111 1005.12 0 1166.62 -112 1313.55 -223.05 1315.29 -223 1317.44 -226 1317.44 -226 1317.44 -226 1397.29 -337 1463.95 -454 1481.95 -562 1488.62 -673 1453.62 -788 1382.62 -673 1328.62 -562 1225.12 -454 1161.29 -337 1218.62 -226 1218.62 -226 1218.62 -226 1131.95 -112 936.62 0 798.62 111 819.28 226 759.95 340 849.28 449 947.12 562 1111.12 676 1208.62 788 1293.62 901 1244.12 1016.56 1280.62 1128 1381.12 1240 1410.62 1353 1358.62 1465 1436.62 1576 1436.62 1689.83 1467.62 1689.83 1467.62 1576 1423.62 1465 1492.62 1353 1523.12 1240.84" fill="none" stroke="#3b4351" stroke-miterlimit="10"/><polygon id="Spain" points="1117.95 1577.41 1119.29 1689.83 1102.12 1689.83 1099.75 1577 899.28 1465 932.62 1353 1049.29 1240 963.28 1128 815.95 1016 785.95 900.67 674.34 788 491.95 676 391.29 562 379.95 449 365.95 340 391.95 226 384.62 111 361.29 0 347.12 -112 383.43 -226 444.62 -337 423.58 -454 373.95 -562 441.95 -454 466.62 -337 423.06 -226 406.62 -112 385.62 0 407.62 111 417.62 226 401.95 340 463.29 449 491.29 562 631.28 676.41 844.62 788 937.12 902.34 922.62 1016 997.95 1128 1065.62 1240 1035.29 1353 959.28 1465 1117.95 1577.41" fill="none" stroke="#3b4351" stroke-miterlimit="10"/><polygon id="Hungary" points="753.62 449 797.62 562 970.62 676 1131.62 788 953.62 676 772.62 562 639.62 449 617.12 340 599.12 226 482.62 111 505.62 0 505.62 111 610.34 226 632.89 340 753.62 449" fill="none" stroke="#3b4351" stroke-miterlimit="10"/><polygon id="Italy" points="586.62 111 689.38 226 692.62 340 809.62 449 841.12 562 1022.62 676 1162.87 788 1238.87 901 1147.62 1016 1196.12 1128 1326.62 1240.84 1351.29 1353 1294.95 1465 1361.29 1576 1361.29 1689.83 1303.29 1689.83 1300.29 1576 1229.95 1465 1317.95 1353 1262.95 1240.84 1153.29 1128 1109.12 1016 1201.62 901 1131.62 788 970.62 676 797.62 562 753.62 449 632.89 340 610.34 226 505.62 111 505.62 0 594.62 -112 818.62 -225.4 874.62 -337 851.12 -226 663.53 -112 584.12 0 586.62 111" fill="none" stroke="#3b4351" stroke-miterlimit="10"/><polygon id="Egypt" points="729.95 111 764.62 226 711.95 340 721.12 226 630.12 111 729.62 0 932.12 -112 1028.12 -226 987.12 -337 966.12 -454 815.28 -562 995.34 -454 1021.28 -337 1065.29 -226 1002.62 -112 845.28 0 729.95 111" fill="none" stroke="#3b4351" stroke-miterlimit="10"/><polygon id="Serbia" points="1092.62 340 1124.29 226 970.62 111 1026.12 0 1027.37 111 1195.12 226 1155.87 340 1183.62 449 1092.62 340" fill="none" stroke="#3b4351" stroke-miterlimit="10"/><polygon id="POland" points="1518.87 788 1536.12 901.34 1443.87 1016 1471.87 1128 1523.12 1240.84 1446.62 1128 1405.12 1016.56 1442.62 901 1396.62 788 1391.62 676 1351.62 562 1183.62 449 1155.87 340 1195.12 226 1027.37 111 1026.12 0 1082.62 111 1264.87 226 1200.12 340 1270.87 449 1454.87 562 1513.87 676 1518.87 788" fill="none" stroke="#3b4351" stroke-miterlimit="10"/><polygon id="Mogolians" points="1334.62 226 1148.62 111 1173.62 0 1402.62 -112.66 1565.62 -226 1622.45 -337.1 1630.62 -454.1 1650.12 -562 1651.12 -454 1667.62 -337 1695.62 -226 1732.12 -112 1758.62 0 1761.12 111 1738.62 226 1636.12 340 1615.56 449 1685.62 562 1744.12 675.84 1748.42 790.28 1739.62 900.9 1681.62 1016 1654.12 1128 1696.12 1239.84 1701.62 1353 1686.62 1240 1634.62 1128 1627.62 1016 1674.62 900.9 1627.62 788 1602.62 676.34 1544.62 562 1344.62 449 1283.62 340 1334.62 226" fill="none" stroke="#3b4351" stroke-miterlimit="10"/><polygon id="Russia" points="1573.62 -337 1500.47 -226.1 1323.62 -112 1084.2 0.51 1257.37 -112 1428.62 -226 1495.12 -338.67 1508.12 -454 1519.62 -562 1488.62 -673 1453.62 -788 1411.62 -902 1418.62 -1014 1447.62 -902.1 1514.62 -788 1569.62 -673 1604.62 -562 1600.62 -454 1573.62 -337" fill="none" stroke="#3b4351" stroke-miterlimit="10"/><polygon id="Ghazivids_2" data-name="Ghazivids 2" points="1495.12 -338.67 1428.62 -226 1084.2 0.51 1082.62 111 1026.12 0 1384.62 -226 1436.12 -338.67 1463.95 -454 1481.95 -562 1488.45 -670.23 1519.62 -562 1508.12 -454 1495.12 -338.67" fill="none" stroke="#3b4351" stroke-miterlimit="10"/><polygon id="Ghazivids_-_Afgans" data-name="Ghazivids - Afgans" points="1384.62 -226 1212.12 -112 1026.12 0 970.62 111 1005.12 0 1166.62 -112 1317.44 -226 1397.29 -337 1463.95 -454 1436.12 -338.67 1384.62 -226" fill="none" stroke="#3b4351" stroke-miterlimit="10"/></g><g id="Text"><g id="Mongolians"><path d="M1339.75,72.51h-4.16V70.16h11.05v2.35h-4.1V87.66h-2.79Z" fill="#3b4351"/><path d="M1354.89,84.91c0,.49.3.93.69.93a1,1,0,0,0,.44-.07v1.71a2.71,2.71,0,0,1-1.3.32c-1.17,0-2.15-.46-2.23-1.74h0a3.4,3.4,0,0,1-3.28,1.94c-2.13,0-3.43-1.15-3.43-3.7,0-2.94,1.3-3.55,3.06-4.14l2.06-.57c1-.27,1.54-.54,1.54-1.69s-.41-2-1.81-2c-1.76,0-2,1.25-2,2.53h-2.5c0-2.82,1.15-4.34,4.63-4.34,2.33,0,4.19.91,4.19,3.23Zm-2.5-4.21a20,20,0,0,1-2.94,1.22,2.16,2.16,0,0,0-1.07,2.13c0,1.11.53,2,1.64,2,1.59,0,2.37-1.18,2.37-3.14Z" fill="#3b4351"/><path d="M1357.59,74.47h2.64v2.06h0a3.26,3.26,0,0,1,3.07-2.4,1.38,1.38,0,0,1,.63.1v2.69a3.8,3.8,0,0,0-1.1-.14c-1.2,0-2.65.53-2.65,3v7.89h-2.64Z" fill="#3b4351"/><path d="M1364.13,74.47h1.81V70.72h2.65v3.75h2.15v2h-2.15V84.3c0,1,.29,1.4,1.2,1.4a4.8,4.8,0,0,0,1-.08v2a8.44,8.44,0,0,1-2.13.22c-1.76,0-2.67-.51-2.67-3.18V76.43h-1.81Z" fill="#3b4351"/><path d="M1380.77,84.91c0,.49.29.93.68.93a1,1,0,0,0,.44-.07v1.71a2.71,2.71,0,0,1-1.3.32c-1.17,0-2.15-.46-2.23-1.74h0A3.4,3.4,0,0,1,1375,88c-2.13,0-3.43-1.15-3.43-3.7,0-2.94,1.3-3.55,3.06-4.14l2.06-.57c1-.27,1.55-.54,1.55-1.69s-.42-2-1.82-2c-1.76,0-2,1.25-2,2.53h-2.5c0-2.82,1.15-4.34,4.63-4.34,2.33,0,4.2.91,4.2,3.23Zm-2.5-4.21a20.57,20.57,0,0,1-3,1.22,2.16,2.16,0,0,0-1.07,2.13c0,1.11.54,2,1.64,2,1.59,0,2.38-1.18,2.38-3.14Z" fill="#3b4351"/><path d="M1383.46,74.47h2.64v2.06h.05a3.26,3.26,0,0,1,3.07-2.4,1.36,1.36,0,0,1,.63.1v2.69a3.8,3.8,0,0,0-1.1-.14c-1.2,0-2.65.53-2.65,3v7.89h-2.64Z" fill="#3b4351"/><path d="M1396.86,78.32V78c0-1.06-.37-2-1.74-2-1,0-1.89.47-1.89,1.72,0,1,.47,1.44,1.87,1.93l1.69.59c2,.66,2.86,1.72,2.86,3.8,0,2.82-2.08,4-4.73,4-3.33,0-4.33-1.54-4.33-4.09v-.49h2.35v.41c0,1.55.51,2.36,2.06,2.36s2.15-.74,2.15-1.94a1.91,1.91,0,0,0-1.44-1.94l-2.16-.76c-2-.66-2.82-1.69-2.82-3.79,0-2.48,1.77-3.63,4.51-3.63,3.36,0,4.12,2,4.12,3.6v.59Z" fill="#3b4351"/></g></g></svg>