<svg xmlns="http://www.w3.org/2000/svg" viewBox="0 0 1847.91 111"><title>ce1300text</title><g id="Text"><g id="Mongolians"><path d="M1339.75,72.51h-4.16V70.16h11.05v2.35h-4.1V87.66h-2.79Z"/><path d="M1354.89,84.91c0,.49.3.93.69.93a1,1,0,0,0,.44-.07v1.71a2.71,2.71,0,0,1-1.3.32c-1.17,0-2.15-.46-2.23-1.74h0a3.4,3.4,0,0,1-3.28,1.94c-2.13,0-3.43-1.15-3.43-3.7,0-2.94,1.3-3.55,3.06-4.14l2.06-.57c1-.27,1.54-.54,1.54-1.69s-.41-2-1.81-2c-1.76,0-2,1.25-2,2.53h-2.5c0-2.82,1.15-4.34,4.63-4.34,2.33,0,4.19.91,4.19,3.23Zm-2.5-4.21a20,20,0,0,1-2.94,1.22,2.16,2.16,0,0,0-1.07,2.13c0,1.11.53,2,1.64,2,1.59,0,2.37-1.18,2.37-3.14Z"/><path d="M1357.59,74.47h2.64v2.06h0a3.26,3.26,0,0,1,3.07-2.4,1.38,1.38,0,0,1,.63.1v2.69a3.8,3.8,0,0,0-1.1-.14c-1.2,0-2.65.53-2.65,3v7.89h-2.64Z"/><path d="M1364.13,74.47h1.81V70.72h2.65v3.75h2.15v2h-2.15V84.3c0,1,.29,1.4,1.2,1.4a4.8,4.8,0,0,0,1-.08v2a8.44,8.44,0,0,1-2.13.22c-1.76,0-2.67-.51-2.67-3.18V76.43h-1.81Z"/><path d="M1380.77,84.91c0,.49.29.93.68.93a1,1,0,0,0,.44-.07v1.71a2.71,2.71,0,0,1-1.3.32c-1.17,0-2.15-.46-2.23-1.74h0A3.4,3.4,0,0,1,1375,88c-2.13,0-3.43-1.15-3.43-3.7,0-2.94,1.3-3.55,3.06-4.14l2.06-.57c1-.27,1.55-.54,1.55-1.69s-.42-2-1.82-2c-1.76,0-2,1.25-2,2.53h-2.5c0-2.82,1.15-4.34,4.63-4.34,2.33,0,4.2.91,4.2,3.23Zm-2.5-4.21a20.57,20.57,0,0,1-3,1.22,2.16,2.16,0,0,0-1.07,2.13c0,1.11.54,2,1.64,2,1.59,0,2.38-1.18,2.38-3.14Z"/><path d="M1383.46,74.47h2.64v2.06h.05a3.26,3.26,0,0,1,3.07-2.4,1.36,1.36,0,0,1,.63.1v2.69a3.8,3.8,0,0,0-1.1-.14c-1.2,0-2.65.53-2.65,3v7.89h-2.64Z"/><path d="M1396.86,78.32V78c0-1.06-.37-2-1.74-2-1,0-1.89.47-1.89,1.72,0,1,.47,1.44,1.87,1.93l1.69.59c2,.66,2.86,1.72,2.86,3.8,0,2.82-2.08,4-4.73,4-3.33,0-4.33-1.54-4.33-4.09v-.49h2.35v.41c0,1.55.51,2.36,2.06,2.36s2.15-.74,2.15-1.94a1.91,1.91,0,0,0-1.44-1.94l-2.16-.76c-2-.66-2.82-1.69-2.82-3.79,0-2.48,1.77-3.63,4.51-3.63,3.36,0,4.12,2,4.12,3.6v.59Z"/></g></g><g id="YEARS"><g id="Right"><path d="M1787.21,109.9V96.53h-3.82V94.61h.29c1.77,0,3.79-.44,4.34-2.76v-.36h2.16V109.9Z"/><path d="M1797.93,104.77c0,1.62.54,3.41,2.52,3.41s2.57-1.48,2.57-3.3c0-2.29-.73-3.43-3-3.43h-1.14V99.37H1800c2,0,2.65-1.36,2.65-3.15,0-1.33-.59-2.65-2.13-2.65-1.82,0-2.34,1.56-2.34,3.22h-2.81c0-3.46,1.77-5.3,5.31-5.3,2.21,0,4.94,1,4.94,4.7,0,1.9-1.14,3.75-2.94,4v.08c1.9.18,3.36,1.67,3.36,4.27,0,3.66-1.8,5.69-5.62,5.69-3.33,0-5.25-1.64-5.25-5.49Z"/><path d="M1813,91.49c3.54,0,5.51,2.21,5.51,9.38s-2,9.39-5.51,9.39-5.51-2.21-5.51-9.39S1809.49,91.49,1813,91.49Zm0,16.69c2,0,2.55-2,2.55-7.31s-.55-7.3-2.55-7.3-2.55,2-2.55,7.3S1811,108.18,1813,108.18Z"/><path d="M1825.51,91.49c3.54,0,5.51,2.21,5.51,9.38s-2,9.39-5.51,9.39-5.51-2.21-5.51-9.39S1822,91.49,1825.51,91.49Zm0,16.69c2,0,2.55-2,2.55-7.31s-.55-7.3-2.55-7.3-2.55,2-2.55,7.3S1823.51,108.18,1825.51,108.18Z"/></g><g id="left"><path d="M17.46,113.49V100.13H13.64V98.21h.29c1.77,0,3.79-.45,4.34-2.76v-.36h2.16v18.4Z"/><path d="M28.18,108.37c0,1.61.54,3.41,2.52,3.41s2.57-1.48,2.57-3.3c0-2.29-.73-3.44-3-3.44H29.14V103H30.2c2,0,2.66-1.35,2.66-3.14,0-1.33-.6-2.65-2.14-2.65-1.82,0-2.34,1.56-2.34,3.22h-2.8c0-3.46,1.76-5.3,5.3-5.3,2.21,0,4.94,1,4.94,4.7,0,1.9-1.14,3.75-2.94,4v.08c1.9.18,3.36,1.66,3.36,4.26,0,3.67-1.8,5.7-5.62,5.7-3.33,0-5.25-1.64-5.25-5.49Z"/><path d="M43.28,95.09c3.54,0,5.51,2.2,5.51,9.38s-2,9.39-5.51,9.39-5.51-2.21-5.51-9.39S39.75,95.09,43.28,95.09Zm0,16.69c2,0,2.55-2,2.55-7.31s-.55-7.3-2.55-7.3-2.55,2-2.55,7.3S41.28,111.78,43.28,111.78Z"/><path d="M55.76,95.09c3.54,0,5.51,2.2,5.51,9.38s-2,9.39-5.51,9.39-5.51-2.21-5.51-9.39S52.22,95.09,55.76,95.09Zm0,16.69c2,0,2.55-2,2.55-7.31s-.55-7.3-2.55-7.3-2.55,2-2.55,7.3S53.76,111.78,55.76,111.78Z"/><path d="M17.46,1.49V-11.87H13.64v-1.92h.29c1.77,0,3.79-.45,4.34-2.76v-.36h2.16V1.49Z"/><path d="M36.18,1.49H25.42c0-8,7.72-7.82,7.72-13.54,0-1.54-.65-2.78-2.29-2.78-2.21,0-2.57,2-2.57,3.84H25.47c0-3.64,1.51-5.92,5.44-5.92,3.74,0,5.2,2.23,5.2,4.91,0,6.11-6,6.47-7.39,11h7.46Z"/><path d="M37.87-3.47h2.81V-3A2.35,2.35,0,0,0,43.1-.38c2.08,0,2.63-2,2.63-4.18s-.58-3.93-2.48-3.93A2.35,2.35,0,0,0,40.84-6.8l-2.63-.1.91-9.65H48v2.37H41.33l-.6,4.83.06,0a4,4,0,0,1,3.09-1.43c3.85,0,4.81,3.25,4.81,6.09,0,3.69-1.69,6.5-5.67,6.5-3.3,0-5.15-1.69-5.15-4.94Z"/><path d="M55.76-16.91c3.54,0,5.51,2.2,5.51,9.38s-2,9.39-5.51,9.39S50.25-.35,50.25-7.53,52.22-16.91,55.76-16.91Zm0,16.69c2,0,2.55-2,2.55-7.31s-.55-7.3-2.55-7.3-2.55,2-2.55,7.3S53.76-.22,55.76-.22Z"/></g></g></svg>