<svg xmlns="http://www.w3.org/2000/svg" viewBox="0 0 1847.91 111"><title>ce1300text</title><g id="YEARS"><g id="Right"><path d="M1788.94,109.9V96.53h-3.83V94.61h.29c1.77,0,3.8-.44,4.34-2.76v-.36h2.16V109.9Z"/><path d="M1799.65,104.77c0,1.62.54,3.41,2.52,3.41s2.57-1.48,2.57-3.3c0-2.29-.72-3.43-3-3.43h-1.14V99.37h1.07c2,0,2.65-1.36,2.65-3.15,0-1.33-.6-2.65-2.13-2.65-1.82,0-2.34,1.56-2.34,3.22h-2.81c0-3.46,1.77-5.3,5.3-5.3,2.21,0,4.94,1,4.94,4.7,0,1.9-1.14,3.75-2.94,4v.08c1.9.18,3.36,1.67,3.36,4.27,0,3.66-1.8,5.69-5.62,5.69-3.33,0-5.25-1.64-5.25-5.49Z"/><path d="M1814.75,91.49c3.54,0,5.52,2.21,5.52,9.38s-2,9.39-5.52,9.39-5.51-2.21-5.51-9.39S1811.22,91.49,1814.75,91.49Zm0,16.69c2,0,2.55-2,2.55-7.31s-.54-7.3-2.55-7.3-2.54,2-2.54,7.3S1812.75,108.18,1814.75,108.18Z"/><path d="M1827.23,91.49c3.54,0,5.52,2.21,5.52,9.38s-2,9.39-5.52,9.39-5.51-2.21-5.51-9.39S1823.7,91.49,1827.23,91.49Zm0,16.69c2,0,2.55-2,2.55-7.31s-.55-7.3-2.55-7.3-2.55,2-2.55,7.3S1825.23,108.18,1827.23,108.18Z"/></g><g id="Layer_34" data-name="Layer 34"><path d="M29.19,113.49V100.13H25.37V98.21h.28c1.77,0,3.8-.45,4.34-2.76v-.37h2.16v18.41Z"/><path d="M39.9,108.37c0,1.61.54,3.41,2.52,3.41S45,110.29,45,108.47c0-2.28-.72-3.43-3-3.43H40.86V103h1.07c2,0,2.65-1.35,2.65-3.14,0-1.33-.6-2.66-2.13-2.66-1.82,0-2.34,1.56-2.34,3.23H37.3c0-3.46,1.77-5.31,5.3-5.31,2.21,0,4.94,1,4.94,4.71,0,1.9-1.14,3.75-2.94,4v.08c1.9.18,3.36,1.66,3.36,4.26,0,3.67-1.8,5.7-5.62,5.7-3.32,0-5.25-1.64-5.25-5.49Z"/><path d="M55,95.08c3.54,0,5.52,2.21,5.52,9.39s-2,9.39-5.52,9.39-5.51-2.21-5.51-9.39S51.47,95.08,55,95.08Zm0,16.7c2,0,2.55-2,2.55-7.31S57,97.16,55,97.16s-2.54,2-2.54,7.31S53,111.78,55,111.78Z"/><path d="M67.48,95.08c3.54,0,5.52,2.21,5.52,9.39s-2,9.39-5.52,9.39S62,111.65,62,104.47,64,95.08,67.48,95.08Zm0,16.7c2,0,2.55-2,2.55-7.31s-.54-7.31-2.55-7.31-2.54,2-2.54,7.31S65.48,111.78,67.48,111.78Z"/><path d="M25.85,1.49V-11.87H22v-1.92h.29c1.77,0,3.79-.45,4.34-2.76v-.37h2.16V1.49Z"/><path d="M44.57,1.49H33.81c0-8,7.72-7.82,7.72-13.54,0-1.54-.65-2.79-2.29-2.79-2.21,0-2.57,2-2.57,3.85H33.86c0-3.64,1.51-5.93,5.44-5.93,3.74,0,5.2,2.24,5.2,4.92,0,6.11-6,6.47-7.39,11h7.46Z"/><path d="M46.26-3.47h2.81V-3a2.35,2.35,0,0,0,2.42,2.6c2.08,0,2.63-2,2.63-4.18s-.58-3.93-2.48-3.93A2.34,2.34,0,0,0,49.23-6.8L46.6-6.91l.91-9.64h8.87v2.36H49.72l-.6,4.84.05,0a4.08,4.08,0,0,1,3.1-1.43c3.85,0,4.81,3.25,4.81,6.09,0,3.69-1.69,6.5-5.67,6.5-3.3,0-5.15-1.69-5.15-4.94Z"/><path d="M64.15-16.92c3.54,0,5.51,2.21,5.51,9.39s-2,9.39-5.51,9.39S58.64-.35,58.64-7.53,60.61-16.92,64.15-16.92Zm0,16.7c2,0,2.55-2,2.55-7.31s-.55-7.31-2.55-7.31-2.55,2-2.55,7.31S62.15-.22,64.15-.22Z"/></g></g></svg>