<svg id="Text" xmlns="http://www.w3.org/2000/svg" viewBox="0 0 1847.91 111"><title>ce1300text</title><g id="Mongolians"><path d="M1339.75,72.51h-4.16V70.16h11.05v2.35h-4.1V87.66h-2.79Z"/><path d="M1354.89,84.91c0,.49.3.93.69.93a1,1,0,0,0,.44-.07v1.71a2.71,2.71,0,0,1-1.3.32c-1.17,0-2.15-.46-2.23-1.74h0a3.4,3.4,0,0,1-3.28,1.94c-2.13,0-3.43-1.15-3.43-3.7,0-2.94,1.3-3.55,3.06-4.14l2.06-.57c1-.27,1.54-.54,1.54-1.69s-.41-2-1.81-2c-1.76,0-2,1.25-2,2.53h-2.5c0-2.82,1.15-4.34,4.63-4.34,2.33,0,4.19.91,4.19,3.23Zm-2.5-4.21a20,20,0,0,1-2.94,1.22,2.16,2.16,0,0,0-1.07,2.13c0,1.11.53,2,1.64,2,1.59,0,2.37-1.18,2.37-3.14Z"/><path d="M1357.59,74.47h2.64v2.06h0a3.26,3.26,0,0,1,3.07-2.4,1.38,1.38,0,0,1,.63.1v2.69a3.8,3.8,0,0,0-1.1-.14c-1.2,0-2.65.53-2.65,3v7.89h-2.64Z"/><path d="M1364.13,74.47h1.81V70.72h2.65v3.75h2.15v2h-2.15V84.3c0,1,.29,1.4,1.2,1.4a4.8,4.8,0,0,0,1-.08v2a8.44,8.44,0,0,1-2.13.22c-1.76,0-2.67-.51-2.67-3.18V76.43h-1.81Z"/><path d="M1380.77,84.91c0,.49.29.93.68.93a1,1,0,0,0,.44-.07v1.71a2.71,2.71,0,0,1-1.3.32c-1.17,0-2.15-.46-2.23-1.74h0A3.4,3.4,0,0,1,1375,88c-2.13,0-3.43-1.15-3.43-3.7,0-2.94,1.3-3.55,3.06-4.14l2.06-.57c1-.27,1.55-.54,1.55-1.69s-.42-2-1.82-2c-1.76,0-2,1.25-2,2.53h-2.5c0-2.82,1.15-4.34,4.63-4.34,2.33,0,4.2.91,4.2,3.23Zm-2.5-4.21a20.57,20.57,0,0,1-3,1.22,2.16,2.16,0,0,0-1.07,2.13c0,1.11.54,2,1.64,2,1.59,0,2.38-1.18,2.38-3.14Z"/><path d="M1383.46,74.47h2.64v2.06h.05a3.26,3.26,0,0,1,3.07-2.4,1.36,1.36,0,0,1,.63.1v2.69a3.8,3.8,0,0,0-1.1-.14c-1.2,0-2.65.53-2.65,3v7.89h-2.64Z"/><path d="M1396.86,78.32V78c0-1.06-.37-2-1.74-2-1,0-1.89.47-1.89,1.72,0,1,.47,1.44,1.87,1.93l1.69.59c2,.66,2.86,1.72,2.86,3.8,0,2.82-2.08,4-4.73,4-3.33,0-4.33-1.54-4.33-4.09v-.49h2.35v.41c0,1.55.51,2.36,2.06,2.36s2.15-.74,2.15-1.94a1.91,1.91,0,0,0-1.44-1.94l-2.16-.76c-2-.66-2.82-1.69-2.82-3.79,0-2.48,1.77-3.63,4.51-3.63,3.36,0,4.12,2,4.12,3.6v.59Z"/></g></svg>