<svg xmlns="http://www.w3.org/2000/svg" viewBox="0 0 1847.91 115"><title>ce1350text</title><g id="YEARS"><g id="Right"><path d="M1792.5,110V96.67h-3.82V94.75h.28c1.77,0,3.8-.45,4.35-2.76v-.36h2.15V110Z" fill="#3b4351"/><path d="M1803.21,104.91c0,1.62.55,3.41,2.52,3.41s2.58-1.48,2.58-3.3c0-2.29-.73-3.43-3-3.43h-1.15V99.51h1.07c2,0,2.65-1.36,2.65-3.15,0-1.33-.6-2.65-2.13-2.65-1.82,0-2.34,1.56-2.34,3.22h-2.81c0-3.46,1.77-5.3,5.3-5.3,2.21,0,4.94,1,4.94,4.7,0,1.9-1.14,3.75-2.93,4v.08c1.89.18,3.35,1.67,3.35,4.27,0,3.66-1.79,5.69-5.62,5.69-3.32,0-5.25-1.64-5.25-5.49Z" fill="#3b4351"/><path d="M1812.91,105.07h2.81v.49a2.35,2.35,0,0,0,2.41,2.6c2.08,0,2.63-2,2.63-4.18s-.57-3.93-2.47-3.93a2.36,2.36,0,0,0-2.42,1.69l-2.62-.1.91-9.65H1823v2.37h-6.65l-.6,4.83,0,.06a4.07,4.07,0,0,1,3.09-1.44c3.85,0,4.81,3.26,4.81,6.09,0,3.69-1.69,6.5-5.66,6.5-3.31,0-5.15-1.69-5.15-4.94Z" fill="#3b4351"/><path d="M1830.8,91.63c3.53,0,5.51,2.21,5.51,9.38s-2,9.39-5.51,9.39-5.52-2.21-5.52-9.39S1827.26,91.63,1830.8,91.63Zm0,16.69c2,0,2.54-2,2.54-7.31s-.54-7.3-2.54-7.3-2.55,2-2.55,7.3S1828.79,108.32,1830.8,108.32Z" fill="#3b4351"/></g><g id="left"><path d="M17.46,111.94V98.58H13.64V96.65h.29c1.77,0,3.79-.44,4.34-2.75v-.37h2.16v18.41Z" fill="#3b4351"/><path d="M28.18,106.82c0,1.61.54,3.41,2.52,3.41s2.57-1.49,2.57-3.31c0-2.28-.73-3.43-3-3.43H29.14v-2.08H30.2c2,0,2.66-1.35,2.66-3.14,0-1.33-.6-2.66-2.14-2.66-1.82,0-2.34,1.56-2.34,3.23h-2.8c0-3.46,1.76-5.31,5.3-5.31,2.21,0,4.94,1,4.94,4.71a3.9,3.9,0,0,1-2.94,4v.08c1.9.18,3.36,1.66,3.36,4.26,0,3.67-1.8,5.7-5.62,5.7-3.33,0-5.25-1.64-5.25-5.49Z" fill="#3b4351"/><path d="M37.87,107h2.81v.49a2.35,2.35,0,0,0,2.42,2.6c2.08,0,2.63-2,2.63-4.19S45.15,102,43.25,102a2.34,2.34,0,0,0-2.41,1.69l-2.63-.11.91-9.64H48v2.36H41.33l-.6,4.84.06.05a4,4,0,0,1,3.09-1.43c3.85,0,4.81,3.25,4.81,6.09,0,3.69-1.69,6.5-5.67,6.5-3.3,0-5.15-1.69-5.15-4.94Z" fill="#3b4351"/><path d="M55.76,93.53c3.54,0,5.51,2.21,5.51,9.39s-2,9.39-5.51,9.39-5.51-2.21-5.51-9.39S52.22,93.53,55.76,93.53Zm0,16.7c2,0,2.55-2,2.55-7.31s-.55-7.31-2.55-7.31-2.55,2-2.55,7.31S53.76,110.23,55.76,110.23Z" fill="#3b4351"/></g></g><g id="Nation_OUtlines" data-name="Nation OUtlines"><polygon id="Romans" points="854.62 451 829.93 338 711.95 229 764.62 115 729.95 0 845.28 -111 1002.62 -223 1065.29 -337 1021.28 -448 995.34 -565 815.28 -673 703.28 -784 687.28 -899 737.95 -1013 780.62 -1125 712.62 -1236 645.95 -1350 550.62 -1463 491.95 -1572.83 453.95 -1685.83 455.29 -1797.83 435.95 -1912.83 470.62 -2020.83 322.62 -2020.83 416.12 -2133.83 480.12 -2243.83 410.62 -2355.83 316.95 -2469.83 248.28 -2584.83 210.28 -2695.83 175.95 -2806.83 159.62 -2922.83 91.28 -3035.83 83.12 -3140.83 117.62 -3254.83 151.37 -3368.83 129.62 -3478.83 109.62 -3593.83 99.62 -3705.83 73.12 -3815.83 75.42 -4713.83 85.95 -4603.83 95.28 -4491.83 111.95 -4379.83 116.62 -4268.83 137.95 -4155.83 149.95 -4039.83 169.95 -3927.83 205.28 -3815.83 231.95 -3705.83 287.74 -3593.83 467.73 -3478.83 683.72 -3368.83 998.71 -3254.83 1118.7 -3140.83 1131.14 -3035.83 1195.2 -2922.83 1182.62 -2806.83 1245.62 -2695.83 1220.62 -2584.83 1122.62 -2469.83 981.62 -2355.83 880.12 -2243.83 717.95 -2133.83 593.62 -2020.83 616.62 -1912.83 717.28 -1797.83 839.28 -1682.99 863.28 -1572.83 915.28 -1463 810.62 -1350 885.95 -1236 1037.95 -1125 1125.95 -1013 1253.95 -899 1213.95 -784 1202.62 -673 1169.95 -565 1161.29 -448 1218.62 -337 1131.95 -223 936.62 -111 798.62 0 819.28 115 759.95 229 849.28 338 854.62 451" fill="none" stroke="#3b4351" stroke-miterlimit="10"/><polygon id="Indians" points="1372.19 -5049.66 1294.19 -5163.83 1285.19 -5276.83 1313.69 -5387.83 1348.19 -5500.83 1310.69 -5614.83 1298.69 -5724.83 1313.69 -5836.83 1345.19 -5948.83 1325.69 -6062.83 1343.69 -6176.83 1417.19 -6287.83 1400.69 -6400.91 1429.19 -6513.83 1419.27 -6629.1 1387.19 -6740.83 1387.19 -6852.83 1438.19 -6963.33 1462.18 -7075.33 1480.18 -7188.37 1445.82 -7298.66 1411.11 -7410.66 1545.86 -7410.66 1580.1 -7298.66 1593.12 -7188.43 1552.12 -7075.33 1514.62 -6963.33 1514.12 -6853.16 1553.12 -6741.1 1548.12 -6628.83 1519.62 -6513.83 1534.12 -6400.16 1575.12 -6287.83 1559.62 -6176.83 1564.12 -6063.1 1534.62 -5948.83 1486.12 -5836.83 1465.12 -5724.83 1471.12 -5615.66 1502.12 -5501.66 1508.12 -5387.83 1534.62 -5276.83 1542.77 -5197.97 1555.62 -5049.66 1554.62 -4940.83 1567.12 -4828.83 1542.12 -4714.1 1498.12 -4603.83 1490.62 -4491.83 1513.12 -4379.83 1568.62 -4268.83 1544.12 -4155.83 1530.62 -4040.1 1523.62 -3928.1 1532.62 -3815.83 1565.12 -3705.83 1543.62 -3593.83 1514.12 -3478.83 1490.12 -3369.1 1495.62 -3254.83 1517.12 -3141.16 1528.12 -3035.83 1580.62 -2923.16 1578.12 -2807.16 1578.12 -2696.66 1560.12 -2585.1 1526.62 -2469.83 1467.62 -2355.83 1381.62 -2244.1 1270.62 -2133.83 1090.12 -2021.1 860.62 -1912.83 1302.12 -1797.83 1377.03 -1685.83 1550.62 -1572.83 1519.62 -1463 1476.12 -1350 1516.13 -1236 1534.62 -1123.66 1552.65 -1013 1585.62 -899.1 1620.12 -784 1650.12 -673 1630.62 -565.1 1622.45 -448.1 1565.62 -337 1402.62 -223.66 1173.62 -111 1148.62 0 1334.62 115 1283.62 229 1344.62 338 1544.62 451 1602.62 565.34 1627.62 677 1674.62 789.9 1627.62 905 1634.62 1017 1686.62 1129 1701.62 1242 1620.12 1354 1606.12 1465 1606.12 1578.83 1552.62 1578.83 1549.52 1465 1569.62 1354 1683.62 1242 1667.62 1129 1607.62 1017 1596.62 904.34 1617.62 790 1584.62 677 1562.62 565 1507.62 451 1304.62 337.9 1225.62 228.9 1236.97 191.95 1264.87 115 1082.62 0 1084.2 -110.49 1323.62 -223 1500.47 -337.1 1573.62 -448 1600.62 -565 1604.62 -673 1569.62 -784 1514.62 -899 1447.62 -1013.1 1418.62 -1125 1404.62 -1236 1367.62 -1350 1397.62 -1463 1418.62 -1573.1 1339.62 -1686.1 1246.62 -1797.83 748.62 -1912.83 753.62 -2020.83 910.76 -2133.83 1053.62 -2243.83 1195.2 -2355.83 1311.62 -2470.66 1353.62 -2584.83 1348.62 -2695.83 1364.62 -2807.66 1406.62 -2922.83 1401.62 -3035.83 1429.62 -3140.83 1394.62 -3255.1 1393.2 -3368.83 1391.82 -3479.1 1437.52 -3593.83 1513.62 -3706.1 1505.64 -3815.83 1472.62 -3927.66 1447.62 -4039.83 1440.63 -4155.83 1462.62 -4268.83 1391.1 -4379.83 1348.62 -4491.83 1332.62 -4603.83 1376.98 -4713.83 1375.34 -4829.1 1373.74 -4941.1 1372.19 -5049.66" fill="none" stroke="#3b4351" stroke-miterlimit="10"/><polygon id="Chinese" points="1610.76 -5051.1 1609.69 -5164.1 1608.62 -5277.16 1585.12 -5387.83 1551.62 -5500.83 1509.12 -5614.83 1538.12 -5725.1 1586.62 -5837.1 1616.12 -5948.83 1645.62 -6063.1 1697.12 -6177.1 1714.62 -6288.16 1689.12 -6399.83 1700.12 -6513.83 1676.62 -6628.83 1650.62 -6741.16 1630.62 -6852.83 1620.62 -6963.33 1646.62 -7075.33 1667.62 -7187.99 1651.62 -7298.66 1633.99 -7410.66 1768.79 -7410.66 1768.79 790 1768.79 904.9 1766.12 1017 1757.62 1129 1736.12 1241.9 1676.12 1353.9 1661.12 1465 1663.62 1578.83 1606.12 1578.83 1606.12 1464.9 1620.12 1354 1701.62 1242 1696.12 1128.84 1654.12 1017 1681.62 905 1739.62 789.9 1748.62 676.84 1744.12 564.84 1685.62 451 1615.12 340.34 1636.12 229 1738.62 115 1761.12 0 1758.62 -111 1732.12 -223 1695.62 -337 1667.62 -448 1651.12 -565 1650.12 -673 1620.12 -784 1585.62 -899.1 1552.62 -1013.1 1535.12 -1125 1516.12 -1236.1 1476.12 -1350 1542.12 -1463 1625.62 -1573.16 1668.12 -1686.16 1666.12 -1797.83 1673.62 -1912.83 1653.62 -2020.83 1602.12 -2134.1 1534.12 -2244.1 1564.12 -2355.83 1598.12 -2470.1 1612.12 -2584.83 1611.01 -2696.1 1592.62 -2807.1 1609.25 -2922.83 1616.07 -3035.83 1553.62 -3140.83 1529.62 -3254.83 1528.62 -3369.1 1555.62 -3478.83 1612.12 -3593.83 1621.12 -3705.83 1587.12 -3815.83 1567.62 -3927.83 1576.62 -4039.83 1571.12 -4155.83 1584.62 -4269.1 1558.62 -4379.83 1545.62 -4492.1 1557.62 -4604.1 1599.62 -4713.83 1625.12 -4829.1 1613.62 -4941.1 1610.76 -5051.1" fill="none" stroke="#3b4351" stroke-miterlimit="10"/><polygon id="Denmark" points="916.62 1578.83 927.62 1578.83 926.37 1465 701.12 1354 690.87 1242 683.87 1129 637.87 1017 522.37 905 457.37 790 426.62 677 299.62 565 273.62 451 281.62 338 289.12 229 302.12 115 296.87 0 275.62 -111 253.62 -223 226.62 -337 210.62 -448 199.62 -673 199.37 -784 291.37 -899 277.29 -1013 235.95 -1125 188.87 -1236 180.62 -1350 142.62 -1463 139.95 -1572.83 120.62 -1685.83 99.95 -1797.83 73.12 -1912.83 90.34 -1797.83 107.12 -1685.83 118.37 -1572.83 120.37 -1463 122.62 -1350 125.87 -1236 158.37 -1125 185.87 -1013 183.62 -899 127.62 -784 119.62 -673 119.12 -565 156.87 -448 188.62 -337 212.62 -223 252.37 -111 277.87 0 283.37 115 267.12 229 248.87 338 213.87 451 234.37 565 312.12 677 398.12 790 458.87 905 593.37 1017 637.87 1129 674.12 1242 691.37 1354 915.37 1465 916.62 1578.83" fill="none" stroke="#3b4351" stroke-miterlimit="10"/><polygon id="Norway" points="213.87 451 222.62 338 243.95 229 258.95 115 252.95 0 220.95 -111 186.86 -223 160.95 -337 133.28 -448 96.28 -565 84.28 -673 89.28 -784 120.28 -899 98.62 -1013 94.28 -1125 91.95 -1236 95.28 -1350 99.62 -1463 96.58 -1572.83 93.44 -1685.83 90.34 -1797.83 107.12 -1685.83 118.37 -1572.83 120.37 -1463 122.62 -1350 125.87 -1236 158.37 -1125 185.87 -1013 183.62 -899 127.62 -784 119.62 -673 119.12 -565 156.87 -448 188.62 -337 212.62 -223 252.37 -111 277.87 0 283.37 115 267.12 229 248.87 338 213.87 451" fill="none" stroke="#3b4351" stroke-miterlimit="10"/><polygon id="England" points="874.62 1578.83 688.95 1578.83 687.95 1465 439.12 1354 252.12 1242 159.62 1129 111.62 1017 93.62 905 86.12 790 84.62 677 86.95 565 98.28 451 116.95 338 114.62 229 122.62 115 120.62 0 108.28 -111 100.16 -223 107.95 -337 107.95 -448 77.28 -565 73.12 -1912.83 90.34 -1797.83 93.44 -1685.83 96.58 -1572.83 99.62 -1463 91.95 -1236 94.28 -1125 98.62 -1013 120.28 -899 89.28 -784 84.28 -673 96.28 -565 133.28 -448 160.95 -337 172.95 -223 208.95 -111 223.62 0 228.28 115 211.62 229 201.62 338 189.95 451 193.28 565 235.28 677 248.62 790 348.62 905 562.62 1017 622.12 1129 602.12 1242 652.12 1354 872.95 1465 874.62 1578.83" fill="none" stroke="#3b4351" stroke-miterlimit="10"/><polygon id="South_America" data-name="South America" points="108.28 -111 120.62 0 122.62 115 114.62 229 116.95 338 98.28 451 86.95 565 84.62 677 79.62 790 82.62 905 87.62 1017 107.62 1129 145.12 1242 167.12 1354 198.12 1465 200.12 1578.83 77.28 1578.83 77.28 -565 107.95 -448 107.95 -337 100.16 -223 108.28 -111" fill="none" stroke="#3b4351" stroke-miterlimit="10"/><polygon id="France" points="674.34 677 785.95 789.67 815.95 905 963.28 1017 1049.29 1129 932.62 1242 899.28 1354 1099.75 1466 1102.12 1578.83 946.74 1578.83 946.24 1465 748.62 1354 745.95 1242 741.28 1129 711.95 1017 643.28 905 613.28 790 535.95 677 385.29 565 317.95 451 311.95 338 310.62 229 321.29 115 314.62 0 275.62 -111 253.62 -223 258.62 -334.33 325.29 -448 314.62 -565 286.62 -673 249.62 -784 291.37 -899 409.62 -899 362.62 -784 373.95 -673 423.58 -565 444.62 -448 381.95 -334.33 347.12 -223 361.29 -111 384.62 0 391.95 115 365.95 229 379.95 338 391.29 451 491.95 565 674.34 677" fill="none" stroke="#3b4351" stroke-miterlimit="10"/><polygon id="Franks_to_Holy_Roman_Empire" data-name="Franks to Holy Roman Empire" points="594.62 -223 505.62 -111 482.62 0 599.12 115 617.12 229 639.62 338 772.62 451 953.62 565 1131.62 677 1201.62 790 1109.12 905 1144.62 1017 1249.12 1129 1301.62 1242 1217.12 1354 1288.12 1465 1290.62 1578.83 1234.62 1578.83 1232.12 1465 1140.12 1353.91 1137.62 1242 1115.62 1129 1053.62 1017 973.12 905 1064.12 790 953.62 677 741.12 565 577.12 451 525.62 338 418.62 229 417.62 115 407.62 0 385.62 -111 406.62 -223 421.62 -333.33 466.62 -448 441.95 -565 373.95 -673 371.78 -694.31 362.62 -784 409.62 -899 559.62 -899 626.73 -784 742.62 -673 897.74 -565 874.62 -448 818.62 -336.4 594.62 -223" fill="none" stroke="#3b4351" stroke-miterlimit="10"/><polygon points="703.28 -784 815.28 -673 966.12 -565 987.12 -448 1028.12 -337 932.12 -223 729.62 -111 630.12 0 721.12 115 711.95 229 829.93 338 854.62 451 1030.37 565 1169.87 677 1257.37 790 1158.4 905 1196.12 1017 1147.62 905 1238.87 790 1162.87 677 1022.62 565 841.12 451 809.62 338 692.62 229 689.38 115 586.62 0 584.12 -111 663.53 -223 851.12 -337 874.62 -448 897.74 -565 742.62 -673 626.73 -784 559.62 -899 644.62 -899 703.28 -784" fill="none" stroke="#3b4351" stroke-miterlimit="10"/><polygon id="Holland" points="613.28 790 643.28 905 711.95 1017 741.28 1129 729.95 1242 732.62 1354 935.28 1465 937.12 1578.83 927.62 1578.83 926.37 1465 701.12 1354 690.87 1242 683.87 1129 637.87 1017 522.37 905 457.37 790 426.62 677 299.62 565 273.62 451 281.62 338 289.12 229 302.12 115 296.87 0 275.62 -111 314.62 0 321.29 115 310.62 229 311.95 338 317.95 451 385.29 565 535.95 677 613.28 790" fill="none" stroke="#3b4351" stroke-miterlimit="10"/><polygon id="Sweden" points="691.37 1354 673.95 1354 893.62 1465 895.28 1578.83 874.62 1578.83 872.95 1465 652.12 1354 602.12 1242 622.12 1129 562.62 1017 348.62 905 248.62 790 235.28 677 193.28 565 189.95 451 201.62 338 211.62 229 228.28 115 223.62 0 208.95 -111 172.95 -223 160.95 -337 186.86 -223 220.95 -111 252.95 0 258.95 115 243.95 229 222.62 338 213.87 451 234.37 565 312.12 677 398.12 790 458.87 905 593.37 1017 637.87 1129 674.12 1242 691.37 1354" fill="none" stroke="#3b4351" stroke-miterlimit="10"/><polygon points="1523.12 1129.84 1446.62 1017 1405.12 905.56 1442.62 790 1396.62 677 1391.62 565 1351.62 451 1183.62 338 1092.62 229 1124.29 115 970.62 0 1005.12 -111 1166.62 -223 1313.55 -334.05 1315.29 -334 1317.44 -337 1317.44 -337 1317.44 -337 1397.29 -448 1463.95 -565 1481.95 -673 1488.62 -784 1453.62 -899 1382.62 -784 1328.62 -673 1225.12 -565 1161.29 -448 1218.62 -337 1218.62 -337 1218.62 -337 1131.95 -223 936.62 -111 798.62 0 819.28 115 759.95 229 849.28 338 947.12 451 1111.12 565 1208.62 677 1293.62 790 1244.12 905.56 1280.62 1017 1381.12 1129 1410.62 1242 1358.62 1354 1436.62 1465 1436.62 1578.83 1467.62 1578.83 1467.62 1465 1423.62 1354 1492.62 1242 1523.12 1129.84" fill="none" stroke="#3b4351" stroke-miterlimit="10"/><polygon id="Spain" points="1117.95 1466.41 1119.29 1578.83 1102.12 1578.83 1099.75 1466 899.28 1354 932.62 1242 1049.29 1129 963.28 1017 815.95 905 785.95 789.67 674.34 677 491.95 565 391.29 451 379.95 338 365.95 229 391.95 115 384.62 0 361.29 -111 347.12 -223 383.43 -337 444.62 -448 423.58 -565 373.95 -673 441.95 -565 466.62 -448 423.06 -337 406.62 -223 385.62 -111 407.62 0 417.62 115 401.95 229 463.29 338 491.29 451 631.28 565.41 844.62 677 937.12 791.34 922.62 905 997.95 1017 1065.62 1129 1035.29 1242 959.28 1354 1117.95 1466.41" fill="none" stroke="#3b4351" stroke-miterlimit="10"/><polygon id="Portugal" points="946.95 905 1015.62 1017 1078.95 1129 1052.2 1242 969.62 1354 1125.62 1465 1126.95 1578.83 1119.29 1578.83 1117.95 1466.41 959.28 1354 1035.29 1242 1065.62 1129 997.95 1017 922.62 905 937.12 791.34 844.62 677 631.28 565.41 491.29 451 463.29 338 401.95 229 417.62 115 418.62 229 525.62 338 577.12 451 741.12 565 953.62 677 1064.12 790 946.95 905" fill="none" stroke="#3b4351" stroke-miterlimit="10"/><polygon id="Hungary" points="753.62 338 797.62 451 970.62 565 1131.62 677 953.62 565 772.62 451 639.62 338 617.12 229 599.12 115 482.62 0 505.62 -111 505.62 0 610.34 115 632.89 229 753.62 338" fill="none" stroke="#3b4351" stroke-miterlimit="10"/><polygon id="Italy" points="586.62 0 689.38 115 692.62 229 809.62 338 841.12 451 1022.62 565 1162.87 677 1238.87 790 1147.62 905 1196.12 1017 1326.62 1129.84 1351.29 1242 1294.95 1354 1361.29 1465 1361.29 1578.83 1303.29 1578.83 1300.29 1465 1229.95 1354 1317.95 1242 1262.95 1129.84 1153.29 1017 1109.12 905 1201.62 790 1131.62 677 970.62 565 797.62 451 753.62 338 632.89 229 610.34 115 505.62 0 505.62 -111 594.62 -223 818.62 -336.4 874.62 -448 851.12 -337 663.53 -223 584.12 -111 586.62 0" fill="none" stroke="#3b4351" stroke-miterlimit="10"/><polygon id="Egypt" points="729.95 0 764.62 115 711.95 229 721.12 115 630.12 0 729.62 -111 932.12 -223 1028.12 -337 987.12 -448 966.12 -565 815.28 -673 995.34 -565 1021.28 -448 1065.29 -337 1002.62 -223 845.28 -111 729.95 0" fill="none" stroke="#3b4351" stroke-miterlimit="10"/><polygon id="Serbia" points="1092.62 229 1124.29 115 970.62 0 1026.12 -111 1027.37 0 1195.12 115 1155.87 229 1183.62 338 1092.62 229" fill="none" stroke="#3b4351" stroke-miterlimit="10"/><polygon id="Russia" points="1552.62 1578.83 1467.62 1578.83 1467.62 1465 1423.62 1354 1492.62 1242 1523.12 1129.84 1471.87 1017 1443.87 905 1536.12 790.34 1518.87 677 1513.87 565 1454.87 451 1270.87 338 1200.12 229 1264.87 115 1225.62 228.9 1304.62 337.9 1507.62 451 1562.62 565 1584.62 677 1617.62 790 1596.62 904.34 1607.62 1017 1667.62 1129 1683.62 1242 1569.62 1354 1549.52 1465 1552.62 1578.83" fill="none" stroke="#3b4351" stroke-miterlimit="10"/><polygon id="POland" points="1518.87 677 1536.12 790.34 1443.87 905 1471.87 1017 1523.12 1129.84 1446.62 1017 1405.12 905.56 1442.62 790 1396.62 677 1391.62 565 1351.62 451 1183.62 338 1155.87 229 1195.12 115 1027.37 0 1026.12 -111 1082.62 0 1264.87 115 1200.12 229 1270.87 338 1454.87 451 1513.87 565 1518.87 677" fill="none" stroke="#3b4351" stroke-miterlimit="10"/><polygon id="Mogolians" points="1334.62 115 1148.62 0 1173.62 -111 1402.62 -223.66 1565.62 -337 1622.45 -448.1 1630.62 -565.1 1650.12 -673 1651.12 -565 1667.62 -448 1695.62 -337 1732.12 -223 1758.62 -111 1761.12 0 1738.62 115 1636.12 229 1615.56 338 1685.62 451 1744.12 564.84 1748.42 679.28 1739.62 789.9 1681.62 905 1654.12 1017 1696.12 1128.84 1701.62 1242 1686.62 1129 1634.62 1017 1627.62 905 1674.62 789.9 1627.62 677 1602.62 565.34 1544.62 451 1344.62 338 1283.62 229 1334.62 115" fill="none" stroke="#3b4351" stroke-miterlimit="10"/><polygon id="Ghazivids_2" data-name="Ghazivids 2" points="1495.12 -449.67 1428.62 -337 1084.2 -110.49 1082.62 0 1026.12 -111 1384.62 -337 1436.12 -449.67 1463.95 -565 1481.95 -673 1488.45 -781.23 1519.62 -673 1508.12 -565 1495.12 -449.67" fill="none" stroke="#3b4351" stroke-miterlimit="10"/><polygon id="Ghazivids_-_Afgans" data-name="Ghazivids - Afgans" points="1384.62 -337 1212.12 -223 1026.12 -111 970.62 0 1005.12 -111 1166.62 -223 1317.44 -337 1397.29 -448 1463.95 -565 1436.12 -449.67 1384.62 -337" fill="none" stroke="#3b4351" stroke-miterlimit="10"/></g><g id="Text"><g id="Indians-2" data-name="Indians"><path d="M1204.24,50.66H1207v17.5h-2.79Z" fill="#3b4351"/><path d="M1209.8,50.66h3.41l5.07,13h0v-13H1221v17.5h-3.41l-5.07-13.38h0V68.16h-2.65Z" fill="#3b4351"/><path d="M1223.86,50.66h5c5.49,0,6.17,3.58,6.17,8.75s-.68,8.75-6.17,8.75h-5Zm2.8,15.39h2.3c2.3,0,3.26-1.52,3.26-6.64,0-4.93-.83-6.64-3.26-6.64h-2.3Z" fill="#3b4351"/><path d="M1237.36,50.66h2.8v17.5h-2.8Z" fill="#3b4351"/><path d="M1246.23,50.66h3.58l4.61,17.5h-2.92l-1.08-4.29h-5.12l-1.13,4.29h-2.91Zm3.73,11L1248,53h0l-2.09,8.63Z" fill="#3b4351"/></g><g id="Serbia-2" data-name="Serbia"><path d="M994.84,26v.44c0,2.13,1,3.21,2.87,3.21a2.5,2.5,0,0,0,2.64-2.55c0-1.84-.93-2.64-2.5-3.11l-1.91-.66c-2.55-1-3.65-2.31-3.65-4.81,0-3.18,2.18-5,5.44-5,4.49,0,4.95,2.8,4.95,4.61v.39h-2.79V18.2c0-1.6-.69-2.53-2.45-2.53a2.23,2.23,0,0,0-2.35,2.53c0,1.49.76,2.25,2.62,3l1.89.69c2.47.88,3.55,2.2,3.55,4.63,0,3.72-2.26,5.27-5.79,5.27-4.33,0-5.31-2.89-5.31-5.34V26Z" fill="#3b4351"/><path d="M1005.4,13.91h9.46v2.35h-6.67v4.85h6.28v2.35h-6.28v5.59h6.87V31.4h-9.66Z" fill="#3b4351"/><path d="M1017.18,13.91h6.18c2.45,0,4.43,1.25,4.43,4.51,0,2.25-1,4-2.91,4.29v0c1.76.18,2.64,1.13,2.74,3.58,0,1.15,0,2.5.1,3.56a1.91,1.91,0,0,0,.83,1.51h-3.16a2.87,2.87,0,0,1-.46-1.54c0-.51-.08-1.05-.08-1.57s0-1.1,0-1.74c-.08-1.91-.67-2.74-2.55-2.74H1020V31.4h-2.8Zm5,7.79a2.58,2.58,0,0,0,2.79-2.84c0-1.86-.78-2.84-2.65-2.84H1020V21.7Z" fill="#3b4351"/><path d="M1030.34,13.91H1036c2.62,0,4.71,1.17,4.71,4.24,0,2.1-.86,3.43-2.58,4v.05c1.91.34,3.14,1.49,3.14,4.46s-2.11,4.77-5.39,4.77h-5.54Zm5,7.37a2.45,2.45,0,0,0,2.57-2.77c0-2.08-1.25-2.49-2.82-2.49h-2v5.26Zm.56,8c1.67,0,2.58-1.06,2.58-3.09a2.66,2.66,0,0,0-2.75-3h-2.6V29.3Z" fill="#3b4351"/><path d="M1043.37,13.91h2.8V31.4h-2.8Z" fill="#3b4351"/><path d="M1052.24,13.91h3.58l4.61,17.49h-2.92l-1.08-4.28h-5.12l-1.13,4.28h-2.91Zm3.73,11-2-8.63h0l-2.08,8.63Z" fill="#3b4351"/></g><g id="Mongolians"><path d="M1478.35,59.5h4.37l3.08,13h0l3-13h4.26V77h-2.64V62.44h0L1486.93,77h-2.35l-3.53-14.55h0V77h-2.65Z" fill="#3b4351"/><path d="M1495.63,68.24c0-6.24,1.76-9.09,5.78-9.09s5.78,2.85,5.78,9.09-1.76,9.1-5.78,9.1S1495.63,74.49,1495.63,68.24Zm8.77-.07c0-5.88-1.33-6.91-3-6.91s-3,1-3,6.91,1.32,7.06,3,7.06S1504.4,74.17,1504.4,68.17Z" fill="#3b4351"/><path d="M1509.66,59.5h3.41l5.07,13h0v-13h2.65V77h-3.41l-5.07-13.38h0V77h-2.65Z" fill="#3b4351"/><path d="M1532.38,75h-.05a3.64,3.64,0,0,1-3.82,2.38c-3.83,0-5.2-2.85-5.2-9.1s1.76-9.09,5.81-9.09a4.77,4.77,0,0,1,5.12,5.05v.32h-2.65V64.1c0-1.3-.54-2.84-2.45-2.84s-3,1.32-3,6.91.93,7.06,2.82,7.06c2.13,0,2.92-1.52,2.92-5.34h-2.94V67.78h5.58V77h-2.1Z" fill="#3b4351"/><path d="M1536.47,68.24c0-6.24,1.76-9.09,5.78-9.09S1548,62,1548,68.24s-1.76,9.1-5.78,9.1S1536.47,74.49,1536.47,68.24Zm8.77-.07c0-5.88-1.32-6.91-3-6.91s-3,1-3,6.91,1.32,7.06,3,7.06S1545.24,74.17,1545.24,68.17Z" fill="#3b4351"/><path d="M1550.19,59.5H1553V74.64h6.76V77h-9.55Z" fill="#3b4351"/><path d="M1561.26,59.5h2.79V77h-2.79Z" fill="#3b4351"/><path d="M1570.13,59.5h3.58l4.6,17.49h-2.91l-1.08-4.28h-5.12L1568.07,77h-2.92Zm3.72,11-2-8.62h0l-2.09,8.62Z" fill="#3b4351"/><path d="M1579.54,59.5h3.4l5.08,13h0v-13h2.65V77h-3.41l-5.07-13.38h0V77h-2.64Z" fill="#3b4351"/><path d="M1595.76,71.58V72c0,2.13,1,3.21,2.86,3.21a2.51,2.51,0,0,0,2.65-2.55c0-1.84-.93-2.65-2.5-3.11l-1.91-.66c-2.55-1-3.65-2.31-3.65-4.81,0-3.18,2.18-4.95,5.44-4.95,4.48,0,4.95,2.8,4.95,4.61v.39h-2.8v-.36c0-1.6-.68-2.53-2.45-2.53a2.23,2.23,0,0,0-2.35,2.53c0,1.49.76,2.25,2.62,3l1.89.69c2.47.88,3.55,2.2,3.55,4.63,0,3.72-2.25,5.27-5.78,5.27-4.34,0-5.32-2.9-5.32-5.35v-.41Z" fill="#3b4351"/><path d="M1347.72,93.47h-4.17V91.12h11v2.35h-4.09v15.15h-2.79Z" fill="#3b4351"/><path d="M1362.86,105.87c0,.49.29.93.69.93a1,1,0,0,0,.44-.07v1.72a2.86,2.86,0,0,1-1.3.32c-1.18,0-2.16-.47-2.23-1.74h0a3.42,3.42,0,0,1-3.28,1.93c-2.14,0-3.44-1.15-3.44-3.7,0-2.94,1.3-3.55,3.07-4.14l2.06-.56c1-.27,1.54-.54,1.54-1.69s-.42-2-1.81-2c-1.77,0-2,1.24-2,2.52H1354c0-2.82,1.15-4.34,4.63-4.34,2.33,0,4.19.91,4.19,3.24Zm-2.5-4.21a20.45,20.45,0,0,1-2.94,1.22,2.18,2.18,0,0,0-1.08,2.14c0,1.1.54,2,1.64,2,1.6,0,2.38-1.17,2.38-3.14Z" fill="#3b4351"/><path d="M1365.68,95.43h2.49V97h.08a3.68,3.68,0,0,1,3.16-1.89,2.86,2.86,0,0,1,3.06,2,3.61,3.61,0,0,1,3.34-2c1.86,0,3.21,1,3.21,3.51v10h-2.65v-9c0-1.74-.52-2.38-1.59-2.38s-2.11.83-2.11,2.57v8.85H1372v-9c0-1.74-.51-2.38-1.62-2.38s-2.08.86-2.08,2.57v8.85h-2.64Z" fill="#3b4351"/><path d="M1386,102.37v.76c0,1.76.22,4,2.21,4s2.1-2.13,2.1-2.94h2.5c0,3-1.76,4.75-4.63,4.75-2.15,0-4.83-.64-4.83-6.74,0-3.45.76-7.13,4.88-7.13,3.68,0,4.66,2.23,4.66,5.88v1.4Zm4.24-1.81v-.71c0-1.67-.54-2.94-2-2.94-1.67,0-2.21,1.66-2.21,3.38v.27Z" fill="#3b4351"/><path d="M1395,95.43h2.64v2.06h0a3.26,3.26,0,0,1,3.06-2.4,1.59,1.59,0,0,1,.64.1v2.69a3.86,3.86,0,0,0-1.1-.14c-1.2,0-2.65.54-2.65,3v7.89H1395Z" fill="#3b4351"/><path d="M1402.87,91.12h2.64v17.5h-2.64Z" fill="#3b4351"/><path d="M1416.83,105.87c0,.49.3.93.69.93a1,1,0,0,0,.44-.07v1.72a2.83,2.83,0,0,1-1.3.32c-1.18,0-2.16-.47-2.23-1.74h0a3.41,3.41,0,0,1-3.28,1.93c-2.13,0-3.43-1.15-3.43-3.7,0-2.94,1.3-3.55,3.06-4.14l2.06-.56c1-.27,1.54-.54,1.54-1.69s-.41-2-1.81-2c-1.77,0-2,1.24-2,2.52H1408c0-2.82,1.15-4.34,4.63-4.34,2.33,0,4.19.91,4.19,3.24Zm-2.5-4.21a20,20,0,0,1-2.94,1.22,2.18,2.18,0,0,0-1.08,2.14c0,1.1.54,2,1.65,2,1.59,0,2.37-1.17,2.37-3.14Z" fill="#3b4351"/><path d="M1419.52,95.43h2.5V97h.08a3.77,3.77,0,0,1,3.38-1.89c2,0,3.28.91,3.28,3.58v10h-2.64v-9c0-1.77-.47-2.38-1.84-2.38-1.08,0-2.11.81-2.11,2.57v8.85h-2.65Z" fill="#3b4351"/><path d="M1433.59,102.37v.76c0,1.76.22,4,2.2,4s2.11-2.13,2.11-2.94h2.5c0,3-1.76,4.75-4.63,4.75-2.16,0-4.83-.64-4.83-6.74,0-3.45.76-7.13,4.88-7.13,3.67,0,4.65,2.23,4.65,5.88v1.4Zm4.24-1.81v-.71c0-1.67-.54-2.94-2-2.94-1.66,0-2.2,1.66-2.2,3.38v.27Z" fill="#3b4351"/></g></g></svg>