<svg xmlns="http://www.w3.org/2000/svg" viewBox="0 0 1847.91 109"><title>ce1450text</title><g id="YEARS"><g id="Right"><path d="M1792.5,106V92.65h-3.82V90.73h.28c1.77,0,3.8-.44,4.35-2.76v-.36h2.15V106Z" fill="#3b4351"/><path d="M1800.14,99.33l6.37-11.72h3V99.52h2v2.36h-2V106h-2.81v-4.14h-6.58Zm6.58-7.41h0l-4.14,7.6h4.19Z" fill="#3b4351"/><path d="M1812.91,101.05h2.81v.49a2.35,2.35,0,0,0,2.41,2.6c2.08,0,2.63-2,2.63-4.18s-.57-3.93-2.47-3.93a2.36,2.36,0,0,0-2.42,1.69l-2.62-.1.91-9.65H1823v2.37h-6.65l-.6,4.83,0,.06a4.07,4.07,0,0,1,3.09-1.44c3.85,0,4.81,3.26,4.81,6.09,0,3.69-1.69,6.5-5.66,6.5-3.31,0-5.15-1.69-5.15-4.94Z" fill="#3b4351"/><path d="M1830.8,87.61c3.53,0,5.51,2.21,5.51,9.38s-2,9.39-5.51,9.39-5.52-2.21-5.52-9.39S1827.26,87.61,1830.8,87.61Zm0,16.69c2,0,2.54-2,2.54-7.31s-.54-7.3-2.54-7.3-2.55,2-2.55,7.3S1828.79,104.3,1830.8,104.3Z" fill="#3b4351"/></g><g id="left"><path d="M17.46,107.92V94.56H13.64V92.63h.29c1.77,0,3.79-.44,4.34-2.75v-.37h2.16v18.41Z" fill="#3b4351"/><path d="M25.11,101.24l6.37-11.73h3v11.91h2v2.37h-2v4.13h-2.8v-4.13H25.11Zm6.58-7.41h-.06l-4.13,7.59h4.19Z" fill="#3b4351"/><path d="M37.87,103h2.81v.49a2.35,2.35,0,0,0,2.42,2.6c2.08,0,2.63-2,2.63-4.18s-.58-3.93-2.48-3.93a2.34,2.34,0,0,0-2.41,1.69l-2.63-.11.91-9.64H48v2.36H41.33l-.6,4.84.06,0a4,4,0,0,1,3.09-1.43c3.85,0,4.81,3.25,4.81,6.09,0,3.69-1.69,6.5-5.67,6.5-3.3,0-5.15-1.69-5.15-4.94Z" fill="#3b4351"/><path d="M55.76,89.51c3.54,0,5.51,2.21,5.51,9.39s-2,9.39-5.51,9.39-5.51-2.21-5.51-9.39S52.22,89.51,55.76,89.51Zm0,16.7c2,0,2.55-2,2.55-7.31s-.55-7.31-2.55-7.31-2.55,2-2.55,7.31S53.76,106.21,55.76,106.21Z" fill="#3b4351"/></g></g><g id="Nation_OUtlines" data-name="Nation OUtlines"><polygon id="Romans" points="854.62 222 829.93 109 711.95 0 764.62 -114 729.95 -229 845.28 -340 1002.62 -452 1065.29 -566 1021.28 -677 995.34 -794 815.28 -902 703.28 -1013 687.28 -1128 737.95 -1242 780.62 -1354 712.62 -1465 645.95 -1579 550.62 -1692 491.95 -1801.83 453.95 -1914.83 455.29 -2026.83 435.95 -2141.83 470.62 -2249.83 322.62 -2249.83 416.12 -2362.83 480.12 -2472.83 410.62 -2584.83 316.95 -2698.83 248.28 -2813.83 210.28 -2924.83 175.95 -3035.83 159.62 -3151.83 91.28 -3264.83 83.12 -3369.83 117.62 -3483.83 151.37 -3597.83 129.62 -3707.83 109.62 -3822.83 99.62 -3934.83 73.12 -4044.83 75.42 -4942.83 85.95 -4832.83 95.28 -4720.83 111.95 -4608.83 116.62 -4497.83 137.95 -4384.83 149.95 -4268.83 169.95 -4156.83 205.28 -4044.83 231.95 -3934.83 287.74 -3822.83 467.73 -3707.83 683.72 -3597.83 998.71 -3483.83 1118.7 -3369.83 1131.14 -3264.83 1195.2 -3151.83 1182.62 -3035.83 1245.62 -2924.83 1220.62 -2813.83 1122.62 -2698.83 981.62 -2584.83 880.12 -2472.83 717.95 -2362.83 593.62 -2249.83 616.62 -2141.83 717.28 -2026.83 839.28 -1911.99 863.28 -1801.83 915.28 -1692 810.62 -1579 885.95 -1465 1037.95 -1354 1125.95 -1242 1253.95 -1128 1213.95 -1013 1202.62 -902 1169.95 -794 1161.29 -677 1218.62 -566 1131.95 -452 936.62 -340 798.62 -229 819.28 -114 759.95 0 849.28 109 854.62 222" fill="none" stroke="#3b4351" stroke-miterlimit="10"/><polygon id="Indians" points="1372.19 -5278.66 1294.19 -5392.83 1285.19 -5505.83 1313.69 -5616.83 1348.19 -5729.83 1310.69 -5843.83 1298.69 -5953.83 1313.69 -6065.83 1345.19 -6177.83 1325.69 -6291.83 1343.69 -6405.83 1417.19 -6516.83 1400.69 -6629.91 1429.19 -6742.83 1419.27 -6858.1 1387.19 -6969.83 1387.19 -7081.83 1438.19 -7192.33 1462.18 -7304.33 1480.18 -7417.37 1445.82 -7527.66 1411.11 -7639.66 1545.86 -7639.66 1580.1 -7527.66 1593.12 -7417.43 1552.12 -7304.33 1514.62 -7192.33 1514.12 -7082.16 1553.12 -6970.1 1548.12 -6857.83 1519.62 -6742.83 1534.12 -6629.16 1575.12 -6516.83 1559.62 -6405.83 1564.12 -6292.1 1534.62 -6177.83 1486.12 -6065.83 1465.12 -5953.83 1471.12 -5844.66 1502.12 -5730.66 1508.12 -5616.83 1534.62 -5505.83 1542.77 -5426.97 1555.62 -5278.66 1554.62 -5169.83 1567.12 -5057.83 1542.12 -4943.1 1498.12 -4832.83 1490.62 -4720.83 1513.12 -4608.83 1568.62 -4497.83 1544.12 -4384.83 1530.62 -4269.1 1523.62 -4157.1 1532.62 -4044.83 1565.12 -3934.83 1543.62 -3822.83 1514.12 -3707.83 1490.12 -3598.1 1495.62 -3483.83 1517.12 -3370.16 1528.12 -3264.83 1580.62 -3152.16 1578.12 -3036.16 1578.12 -2925.66 1560.12 -2814.1 1526.62 -2698.83 1467.62 -2584.83 1381.62 -2473.1 1270.62 -2362.83 1090.12 -2250.1 860.62 -2141.83 1302.12 -2026.83 1377.03 -1914.83 1550.62 -1801.83 1519.62 -1692 1476.12 -1579 1516.13 -1465 1534.62 -1352.66 1552.65 -1242 1585.62 -1128.1 1620.12 -1013 1650.12 -902 1630.62 -794.1 1622.45 -677.1 1565.62 -566 1402.62 -452.66 1173.62 -340 1148.62 -229 1334.62 -114 1283.62 0 1344.62 109 1544.62 222 1602.62 336.34 1627.62 448 1674.62 560.9 1627.62 676 1634.62 788 1686.62 900 1701.62 1013 1620.12 1125 1606.12 1236 1606.12 1349.83 1552.62 1349.83 1549.52 1236 1569.62 1125 1683.62 1013 1667.62 900 1607.62 788 1596.62 675.34 1617.62 561 1584.62 448 1562.62 336 1507.62 222 1304.62 108.9 1225.62 -0.1 1236.97 -37.05 1264.87 -114 1082.62 -229 1084.2 -339.49 1323.62 -452 1500.47 -566.1 1573.62 -677 1600.62 -794 1604.62 -902 1569.62 -1013 1514.62 -1128 1447.62 -1242.1 1418.62 -1354 1404.62 -1465 1367.62 -1579 1397.62 -1692 1418.62 -1802.1 1339.62 -1915.1 1246.62 -2026.83 748.62 -2141.83 753.62 -2249.83 910.76 -2362.83 1053.62 -2472.83 1195.2 -2584.83 1311.62 -2699.66 1353.62 -2813.83 1348.62 -2924.83 1364.62 -3036.66 1406.62 -3151.83 1401.62 -3264.83 1429.62 -3369.83 1394.62 -3484.1 1393.2 -3597.83 1391.82 -3708.1 1437.52 -3822.83 1513.62 -3935.1 1505.64 -4044.83 1472.62 -4156.66 1447.62 -4268.83 1440.63 -4384.83 1462.62 -4497.83 1391.1 -4608.83 1348.62 -4720.83 1332.62 -4832.83 1376.98 -4942.83 1375.34 -5058.1 1373.74 -5170.1 1372.19 -5278.66" fill="none" stroke="#3b4351" stroke-miterlimit="10"/><polygon id="Chinese" points="1610.76 -5280.1 1609.69 -5393.1 1608.62 -5506.16 1585.12 -5616.83 1551.62 -5729.83 1509.12 -5843.83 1538.12 -5954.1 1586.62 -6066.1 1616.12 -6177.83 1645.62 -6292.1 1697.12 -6406.1 1714.62 -6517.16 1689.12 -6628.83 1700.12 -6742.83 1676.62 -6857.83 1650.62 -6970.16 1630.62 -7081.83 1620.62 -7192.33 1646.62 -7304.33 1667.62 -7416.99 1651.62 -7527.66 1633.99 -7639.66 1768.79 -7639.66 1768.79 561 1768.79 675.9 1766.12 788 1757.62 900 1736.12 1012.9 1676.12 1124.9 1661.12 1236 1663.62 1349.83 1606.12 1349.83 1606.12 1235.9 1620.12 1125 1701.62 1013 1696.12 899.84 1654.12 788 1681.62 676 1739.62 560.9 1748.62 447.84 1744.12 335.84 1685.62 222 1615.12 111.34 1636.12 0 1738.62 -114 1761.12 -229 1758.62 -340 1732.12 -452 1695.62 -566 1667.62 -677 1651.12 -794 1650.12 -902 1620.12 -1013 1585.62 -1128.1 1552.62 -1242.1 1535.12 -1354 1516.12 -1465.1 1476.12 -1579 1542.12 -1692 1625.62 -1802.16 1668.12 -1915.16 1666.12 -2026.83 1673.62 -2141.83 1653.62 -2249.83 1602.12 -2363.1 1534.12 -2473.1 1564.12 -2584.83 1598.12 -2699.1 1612.12 -2813.83 1611.01 -2925.1 1592.62 -3036.1 1609.25 -3151.83 1616.07 -3264.83 1553.62 -3369.83 1529.62 -3483.83 1528.62 -3598.1 1555.62 -3707.83 1612.12 -3822.83 1621.12 -3934.83 1587.12 -4044.83 1567.62 -4156.83 1576.62 -4268.83 1571.12 -4384.83 1584.62 -4498.1 1558.62 -4608.83 1545.62 -4721.1 1557.62 -4833.1 1599.62 -4942.83 1625.12 -5058.1 1613.62 -5170.1 1610.76 -5280.1" fill="none" stroke="#3b4351" stroke-miterlimit="10"/><polygon id="Denmark" points="916.62 1349.83 927.62 1349.83 926.37 1236 701.12 1125 690.87 1013 683.87 900 637.87 788 522.37 676 457.37 561 426.62 448 299.62 336 273.62 222 281.62 109 289.12 0 302.12 -114 296.87 -229 275.62 -340 253.62 -452 226.62 -566 210.62 -677 199.62 -902 199.37 -1013 291.37 -1128 277.29 -1242 235.95 -1354 188.87 -1465 180.62 -1579 142.62 -1692 139.95 -1801.83 120.62 -1914.83 99.95 -2026.83 73.12 -2141.83 90.34 -2026.83 107.12 -1914.83 118.37 -1801.83 120.37 -1692 122.62 -1579 125.87 -1465 158.37 -1354 185.87 -1242 183.62 -1128 127.62 -1013 119.62 -902 119.12 -794 156.87 -677 188.62 -566 212.62 -452 252.37 -340 277.87 -229 283.37 -114 267.12 0 248.87 109 213.87 222 234.37 336 312.12 448 398.12 561 458.87 676 593.37 788 637.87 900 674.12 1013 691.37 1125 915.37 1236 916.62 1349.83" fill="none" stroke="#3b4351" stroke-miterlimit="10"/><polygon id="Norway" points="213.87 222 222.62 109 243.95 0 258.95 -114 252.95 -229 220.95 -340 186.86 -452 160.95 -566 133.28 -677 96.28 -794 84.28 -902 89.28 -1013 120.28 -1128 98.62 -1242 94.28 -1354 91.95 -1465 95.28 -1579 99.62 -1692 96.58 -1801.83 93.44 -1914.83 90.34 -2026.83 107.12 -1914.83 118.37 -1801.83 120.37 -1692 122.62 -1579 125.87 -1465 158.37 -1354 185.87 -1242 183.62 -1128 127.62 -1013 119.62 -902 119.12 -794 156.87 -677 188.62 -566 212.62 -452 252.37 -340 277.87 -229 283.37 -114 267.12 0 248.87 109 213.87 222" fill="none" stroke="#3b4351" stroke-miterlimit="10"/><polygon id="England" points="874.62 1349.83 688.95 1349.83 687.95 1236 439.12 1125 252.12 1013 159.62 900 111.62 788 93.62 676 86.12 561 84.62 448 86.95 336 98.28 222 116.95 109 114.62 0 122.62 -114 120.62 -229 108.28 -340 100.16 -452 107.95 -566 107.95 -677 77.28 -794 73.12 -2141.83 90.34 -2026.83 93.44 -1914.83 96.58 -1801.83 99.62 -1692 91.95 -1465 94.28 -1354 98.62 -1242 120.28 -1128 89.28 -1013 84.28 -902 96.28 -794 133.28 -677 160.95 -566 172.95 -452 208.95 -340 223.62 -229 228.28 -114 211.62 0 201.62 109 189.95 222 193.28 336 235.28 448 248.62 561 348.62 676 562.62 788 622.12 900 602.12 1013 652.12 1125 872.95 1236 874.62 1349.83" fill="none" stroke="#3b4351" stroke-miterlimit="10"/><polygon id="South_America" data-name="South America" points="108.28 -340 120.62 -229 122.62 -114 114.62 0 116.95 109 98.28 222 86.95 336 84.62 448 79.62 561 82.62 676 87.62 788 107.62 900 145.12 1013 167.12 1125 198.12 1236 200.12 1349.83 77.28 1349.83 77.28 -794 107.95 -677 107.95 -566 100.16 -452 108.28 -340" fill="none" stroke="#3b4351" stroke-miterlimit="10"/><polygon id="France" points="674.34 448 785.95 560.67 815.95 676 963.28 788 1049.29 900 932.62 1013 899.28 1125 1099.75 1237 1102.12 1349.83 946.74 1349.83 946.24 1236 748.62 1125 745.95 1013 741.28 900 711.95 788 643.28 676 613.28 561 535.95 448 385.29 336 317.95 222 311.95 109 310.62 0 321.29 -114 314.62 -229 275.62 -340 253.62 -452 258.62 -563.33 325.29 -677 314.62 -794 286.62 -902 249.62 -1013 291.37 -1128 409.62 -1128 362.62 -1013 373.95 -902 423.58 -794 444.62 -677 381.95 -563.33 347.12 -452 361.29 -340 384.62 -229 391.95 -114 365.95 0 379.95 109 391.29 222 491.95 336 674.34 448" fill="none" stroke="#3b4351" stroke-miterlimit="10"/><polygon id="Franks_to_Holy_Roman_Empire" data-name="Franks to Holy Roman Empire" points="594.62 -452 505.62 -340 482.62 -229 599.12 -114 617.12 0 639.62 109 772.62 222 953.62 336 1131.62 448 1201.62 561 1109.12 676 1144.62 788 1249.12 900 1301.62 1013 1217.12 1125 1288.12 1236 1290.62 1349.83 1234.62 1349.83 1232.12 1236 1140.12 1124.91 1137.62 1013 1115.62 900 1053.62 788 973.12 676 1064.12 561 953.62 448 741.12 336 577.12 222 525.62 109 418.62 0 417.62 -114 407.62 -229 385.62 -340 406.62 -452 421.62 -562.33 466.62 -677 441.95 -794 373.95 -902 371.78 -923.31 362.62 -1013 409.62 -1128 559.62 -1128 626.73 -1013 742.62 -902 897.74 -794 874.62 -677 818.62 -565.4 594.62 -452" fill="none" stroke="#3b4351" stroke-miterlimit="10"/><polygon points="703.28 -1013 815.28 -902 966.12 -794 987.12 -677 1028.12 -566 932.12 -452 729.62 -340 630.12 -229 721.12 -114 711.95 0 829.93 109 854.62 222 1030.37 336 1169.87 448 1257.37 561 1158.4 676 1196.12 788 1147.62 676 1238.87 561 1162.87 448 1022.62 336 841.12 222 809.62 109 692.62 0 689.38 -114 586.62 -229 584.12 -340 663.53 -452 851.12 -566 874.62 -677 897.74 -794 742.62 -902 626.73 -1013 559.62 -1128 644.62 -1128 703.28 -1013" fill="none" stroke="#3b4351" stroke-miterlimit="10"/><polygon id="Holland" points="613.28 561 643.28 676 711.95 788 741.28 900 729.95 1013 732.62 1125 935.28 1236 937.12 1349.83 927.62 1349.83 926.37 1236 701.12 1125 690.87 1013 683.87 900 637.87 788 522.37 676 457.37 561 426.62 448 299.62 336 273.62 222 281.62 109 289.12 0 302.12 -114 296.87 -229 275.62 -340 314.62 -229 321.29 -114 310.62 0 311.95 109 317.95 222 385.29 336 535.95 448 613.28 561" fill="none" stroke="#3b4351" stroke-miterlimit="10"/><polygon id="Sweden" points="691.37 1125 673.95 1125 893.62 1236 895.28 1349.83 874.62 1349.83 872.95 1236 652.12 1125 602.12 1013 622.12 900 562.62 788 348.62 676 248.62 561 235.28 448 193.28 336 189.95 222 201.62 109 211.62 0 228.28 -114 223.62 -229 208.95 -340 172.95 -452 160.95 -566 186.86 -452 220.95 -340 252.95 -229 258.95 -114 243.95 0 222.62 109 213.87 222 234.37 336 312.12 448 398.12 561 458.87 676 593.37 788 637.87 900 674.12 1013 691.37 1125" fill="none" stroke="#3b4351" stroke-miterlimit="10"/><polygon points="1523.12 900.84 1446.62 788 1405.12 676.56 1442.62 561 1396.62 448 1391.62 336 1351.62 222 1183.62 109 1092.62 0 1124.29 -114 970.62 -229 1005.12 -340 1166.62 -452 1313.55 -563.05 1315.29 -563 1317.44 -566 1317.44 -566 1317.44 -566 1397.29 -677 1463.95 -794 1481.95 -902 1488.62 -1013 1453.62 -1128 1382.62 -1013 1328.62 -902 1225.12 -794 1161.29 -677 1218.62 -566 1218.62 -566 1218.62 -566 1131.95 -452 936.62 -340 798.62 -229 819.28 -114 759.95 0 849.28 109 947.12 222 1111.12 336 1208.62 448 1293.62 561 1244.12 676.56 1280.62 788 1381.12 900 1410.62 1013 1358.62 1125 1436.62 1236 1436.62 1349.83 1467.62 1349.83 1467.62 1236 1423.62 1125 1492.62 1013 1523.12 900.84" fill="none" stroke="#3b4351" stroke-miterlimit="10"/><polygon id="Spain" points="1117.95 1237.41 1119.29 1349.83 1102.12 1349.83 1099.75 1237 899.28 1125 932.62 1013 1049.29 900 963.28 788 815.95 676 785.95 560.67 674.34 448 491.95 336 391.29 222 379.95 109 365.95 0 391.95 -114 384.62 -229 361.29 -340 347.12 -452 383.43 -566 444.62 -677 423.58 -794 373.95 -902 441.95 -794 466.62 -677 423.06 -566 406.62 -452 385.62 -340 407.62 -229 417.62 -114 401.95 0 463.29 109 491.29 222 631.28 336.42 844.62 448 937.12 562.34 922.62 676 997.95 788 1065.62 900 1035.29 1013 959.28 1125 1117.95 1237.41" fill="none" stroke="#3b4351" stroke-miterlimit="10"/><polygon id="Portugal" points="946.95 676 1015.62 788 1078.95 900 1052.2 1013 969.62 1125 1125.62 1236 1126.95 1349.83 1119.29 1349.83 1117.95 1237.41 959.28 1125 1035.29 1013 1065.62 900 997.95 788 922.62 676 937.12 562.34 844.62 448 631.28 336.42 491.29 222 463.29 109 401.95 0 417.62 -114 418.62 0 525.62 109 577.12 222 741.12 336 953.62 448 1064.12 561 946.95 676" fill="none" stroke="#3b4351" stroke-miterlimit="10"/><polygon id="Hungary" points="753.62 109 797.62 222 970.62 336 1131.62 448 953.62 336 772.62 222 639.62 109 617.12 0 599.12 -114 482.62 -229 505.62 -340 505.62 -229 610.34 -114 632.89 0 753.62 109" fill="none" stroke="#3b4351" stroke-miterlimit="10"/><polygon id="Italy" points="586.62 -229 689.38 -114 692.62 0 809.62 109 841.12 222 1022.62 336 1162.87 448 1238.87 561 1147.62 676 1196.12 788 1326.62 900.84 1351.29 1013 1294.95 1125 1361.29 1236 1361.29 1349.83 1303.29 1349.83 1300.29 1236 1229.95 1125 1317.95 1013 1262.95 900.84 1153.29 788 1109.12 676 1201.62 561 1131.62 448 970.62 336 797.62 222 753.62 109 632.89 0 610.34 -114 505.62 -229 505.62 -340 594.62 -452 818.62 -565.4 874.62 -677 851.12 -566 663.53 -452 584.12 -340 586.62 -229" fill="none" stroke="#3b4351" stroke-miterlimit="10"/><polygon id="Egypt" points="729.95 -229 764.62 -114 711.95 0 721.12 -114 630.12 -229 729.62 -340 932.12 -452 1028.12 -566 987.12 -677 966.12 -794 815.28 -902 995.34 -794 1021.28 -677 1065.29 -566 1002.62 -452 845.28 -340 729.95 -229" fill="none" stroke="#3b4351" stroke-miterlimit="10"/><polygon id="Serbia" points="1092.62 0 1124.29 -114 970.62 -229 1026.12 -340 1027.37 -229 1195.12 -114 1155.87 0 1183.62 109 1092.62 0" fill="none" stroke="#3b4351" stroke-miterlimit="10"/><polygon id="Russia" points="1552.62 1349.83 1467.62 1349.83 1467.62 1236 1423.62 1125 1492.62 1013 1523.12 900.84 1471.87 788 1443.87 676 1536.12 561.34 1518.87 448 1513.87 336 1454.87 222 1270.87 109 1200.12 0 1264.87 -114 1225.62 -0.1 1304.62 108.9 1507.62 222 1562.62 336 1584.62 448 1617.62 561 1596.62 675.34 1607.62 788 1667.62 900 1683.62 1013 1569.62 1125 1549.52 1236 1552.62 1349.83" fill="none" stroke="#3b4351" stroke-miterlimit="10"/><polygon id="POland" points="1518.87 448 1536.12 561.34 1443.87 676 1471.87 788 1523.12 900.84 1446.62 788 1405.12 676.56 1442.62 561 1396.62 448 1391.62 336 1351.62 222 1183.62 109 1155.87 0 1195.12 -114 1027.37 -229 1026.12 -340 1082.62 -229 1264.87 -114 1200.12 0 1270.87 109 1454.87 222 1513.87 336 1518.87 448" fill="none" stroke="#3b4351" stroke-miterlimit="10"/><polygon id="Mogolians" points="1334.62 -114 1148.62 -229 1173.62 -340 1402.62 -452.66 1565.62 -566 1622.45 -677.1 1630.62 -794.1 1650.12 -902 1651.12 -794 1667.62 -677 1695.62 -566 1732.12 -452 1758.62 -340 1761.12 -229 1738.62 -114 1636.12 0 1615.56 109 1685.62 222 1744.12 335.84 1748.42 450.28 1739.62 560.9 1681.62 676 1654.12 788 1696.12 899.84 1701.62 1013 1686.62 900 1634.62 788 1627.62 676 1674.62 560.9 1627.62 448 1602.62 336.34 1544.62 222 1344.62 109 1283.62 0 1334.62 -114" fill="none" stroke="#3b4351" stroke-miterlimit="10"/><polygon points="1111.12 336 1208.62 448 1293.62 561 1244.12 676.56 1280.62 788 1381.12 900 1410.62 1013 1358.62 1125 1436.62 1236 1436.62 1349.83 1425.29 1349.83 1424.62 1236 1347.62 1125 1385.95 1013 1326.62 900.84 1196.12 788 1158.4 676 1257.37 561 1169.87 448 1030.37 336 854.62 222 849.28 109 947.12 222 1111.12 336" fill="none" stroke="#3b4351" stroke-miterlimit="10"/></g><g id="Text"><g id="France-2" data-name="France"><path d="M321.57,18.75h6.18c2.45,0,4.44,1.25,4.44,4.51,0,2.25-1,4-2.92,4.28v.05c1.76.18,2.65,1.13,2.74,3.58,0,1.15,0,2.5.1,3.55a1.92,1.92,0,0,0,.84,1.52h-3.17a2.87,2.87,0,0,1-.46-1.54c-.05-.51-.07-1.05-.07-1.57s0-1.1-.05-1.74c-.08-1.91-.67-2.74-2.55-2.74h-2.28v7.59h-2.8Zm5,7.79a2.58,2.58,0,0,0,2.79-2.84c0-1.87-.78-2.85-2.64-2.85h-2.38v5.69Z" fill="#3b4351"/><path d="M336.84,30v.75c0,1.77.22,4,2.2,4s2.11-2.13,2.11-2.94h2.5c0,3-1.76,4.76-4.63,4.76-2.16,0-4.83-.64-4.83-6.74,0-3.46.76-7.13,4.88-7.13,3.67,0,4.65,2.23,4.65,5.88V30Zm4.24-1.82v-.71c0-1.67-.54-2.94-2-2.94-1.66,0-2.2,1.67-2.2,3.38v.27Z" fill="#3b4351"/><path d="M345.9,23.06h2.5V24.6h.08a3.78,3.78,0,0,1,3.38-1.88c2,0,3.28.9,3.28,3.57v10h-2.65v-9c0-1.76-.46-2.38-1.83-2.38-1.08,0-2.11.81-2.11,2.58v8.84H345.9Z" fill="#3b4351"/><path d="M366.34,33.5c0,.49.29.93.68.93a1,1,0,0,0,.44-.07v1.71a2.78,2.78,0,0,1-1.29.32c-1.18,0-2.16-.46-2.23-1.74h-.05a3.41,3.41,0,0,1-3.29,1.94c-2.13,0-3.43-1.15-3.43-3.7,0-2.94,1.3-3.56,3.07-4.14l2.05-.57c1-.27,1.55-.54,1.55-1.69s-.42-2-1.82-2c-1.76,0-2,1.25-2,2.52h-2.5c0-2.81,1.15-4.33,4.63-4.33,2.33,0,4.19.9,4.19,3.23Zm-2.5-4.21a21.66,21.66,0,0,1-2.94,1.22,2.17,2.17,0,0,0-1.08,2.13c0,1.1.54,2,1.64,2,1.59,0,2.38-1.18,2.38-3.14Z" fill="#3b4351"/><path d="M369.15,18.55h2.65V21.2h-2.65Zm0,4.51h2.65V36.24h-2.65Z" fill="#3b4351"/><path d="M380.15,26.91v-.35c0-1-.36-2-1.74-2-1.05,0-1.88.47-1.88,1.72,0,1.05.46,1.44,1.86,1.93l1.69.59c2,.66,2.87,1.72,2.87,3.8,0,2.82-2.09,4-4.73,4-3.33,0-4.34-1.55-4.34-4.09V32h2.35v.42c0,1.54.52,2.35,2.06,2.35s2.16-.73,2.16-1.93A1.91,1.91,0,0,0,379,30.9l-2.15-.76c-2-.66-2.82-1.69-2.82-3.8,0-2.47,1.76-3.62,4.51-3.62,3.35,0,4.11,2,4.11,3.6v.59Z" fill="#3b4351"/><path d="M393.56,33.5c0,.49.29.93.68.93a1,1,0,0,0,.44-.07v1.71a2.83,2.83,0,0,1-1.3.32c-1.17,0-2.15-.46-2.23-1.74h0a3.42,3.42,0,0,1-3.29,1.94c-2.13,0-3.43-1.15-3.43-3.7,0-2.94,1.3-3.56,3.06-4.14l2.06-.57c1-.27,1.55-.54,1.55-1.69s-.42-2-1.82-2c-1.76,0-2,1.25-2,2.52h-2.5c0-2.81,1.16-4.33,4.64-4.33,2.32,0,4.19.9,4.19,3.23Zm-2.5-4.21a22.2,22.2,0,0,1-2.94,1.22A2.17,2.17,0,0,0,387,32.64c0,1.1.54,2,1.64,2,1.59,0,2.38-1.18,2.38-3.14Z" fill="#3b4351"/><path d="M396.25,23.06h2.5V24.6h.07a3.78,3.78,0,0,1,3.38-1.88c2,0,3.29.9,3.29,3.57v10h-2.65v-9c0-1.76-.46-2.38-1.84-2.38-1.08,0-2.1.81-2.1,2.58v8.84h-2.65Z" fill="#3b4351"/><path d="M416.93,31.44c-.2,3.16-1.23,5.15-4.51,5.15-3.82,0-4.9-2.82-4.9-6.94s1.08-6.93,4.9-6.93S417,25.83,417,27.45h-2.64c0-1.23-.32-2.85-1.89-2.77-1.89,0-2.26,2.06-2.26,5s.37,5,2.26,5c1.47,0,2-1.2,2-3.19Z" fill="#3b4351"/><path d="M421.19,30v.75c0,1.77.22,4,2.2,4s2.11-2.13,2.11-2.94H428c0,3-1.76,4.76-4.63,4.76-2.16,0-4.83-.64-4.83-6.74,0-3.46.76-7.13,4.88-7.13,3.68,0,4.66,2.23,4.66,5.88V30Zm4.24-1.82v-.71c0-1.67-.54-2.94-2-2.94-1.66,0-2.2,1.67-2.2,3.38v.27Z" fill="#3b4351"/></g><g id="Turks"><path d="M930,69.93c0-6.25,1.77-9.09,5.79-9.09s5.78,2.84,5.78,9.09S939.77,79,935.75,79,930,76.18,930,69.93Zm8.78-.08c0-5.88-1.33-6.91-3-6.91s-3,1-3,6.91,1.32,7.06,3,7.06S938.74,75.86,938.74,69.85Z" fill="#3b4351"/><path d="M946.14,63.53H942V61.18h11v2.35h-4.09V78.68h-2.79Z" fill="#3b4351"/><path d="M957.48,63.53h-4.17V61.18h11.06v2.35h-4.1V78.68h-2.79Z" fill="#3b4351"/><path d="M964.8,69.93c0-6.25,1.77-9.09,5.79-9.09s5.78,2.84,5.78,9.09S974.61,79,970.59,79,964.8,76.18,964.8,69.93Zm8.78-.08c0-5.88-1.33-6.91-3-6.91s-3,1-3,6.91,1.32,7.06,3,7.06S973.58,75.86,973.58,69.85Z" fill="#3b4351"/><path d="M978.84,61.18h4.36l3.09,13h.05l3-13h4.26v17.5H991V64.12h0l-3.53,14.56h-2.35l-3.53-14.56h0V78.68h-2.65Z" fill="#3b4351"/><path d="M999.84,61.18h3.58l4.6,17.5h-2.91L1004,74.39h-5.12l-1.13,4.29h-2.92Zm3.72,11-2-8.63h0l-2.09,8.63Z" fill="#3b4351"/><path d="M1009.25,61.18h3.4l5.08,13h0v-13h2.65v17.5H1017l-5.08-13.38h-.05V78.68h-2.64Z" fill="#3b4351"/><path d="M1031.15,63.53H1027V61.18H1038v2.35h-4.1V78.68h-2.79Z" fill="#3b4351"/><path d="M1042.2,61.18V73.73c0,2.23.88,3.18,2.57,3.18s2.55-1,2.55-3.18V61.18h2.79V73.5c0,4-2,5.52-5.34,5.52s-5.36-1.47-5.36-5.52V61.18Z" fill="#3b4351"/><path d="M1052.78,61.18H1059c2.45,0,4.43,1.25,4.43,4.51,0,2.25-1,4-2.91,4.29v0c1.76.17,2.64,1.12,2.74,3.57,0,1.15,0,2.5.1,3.56a1.93,1.93,0,0,0,.83,1.52H1061a2.94,2.94,0,0,1-.46-1.55c0-.51-.08-1-.08-1.57s0-1.1,0-1.74c-.07-1.91-.66-2.74-2.55-2.74h-2.27v7.6h-2.8Zm5,7.79a2.58,2.58,0,0,0,2.79-2.84c0-1.86-.78-2.84-2.65-2.84h-2.37V69Z" fill="#3b4351"/><path d="M1065.94,61.18h2.79V68.8h0l5.29-7.62h3.07l-5.05,7.37,5.59,10.13h-3.16l-4.24-7.87-1.55,2.2v5.67h-2.79Z" fill="#3b4351"/><path d="M1080.81,73.26v.44c0,2.13,1,3.21,2.87,3.21a2.5,2.5,0,0,0,2.64-2.55c0-1.83-.93-2.64-2.5-3.11l-1.91-.66c-2.55-1-3.65-2.3-3.65-4.8,0-3.19,2.18-5,5.44-5,4.49,0,5,2.79,5,4.6v.39h-2.79v-.36c0-1.6-.69-2.53-2.45-2.53a2.23,2.23,0,0,0-2.35,2.53c0,1.49.75,2.25,2.62,3l1.88.69c2.48.88,3.56,2.2,3.56,4.63,0,3.72-2.26,5.27-5.79,5.27-4.33,0-5.31-2.89-5.31-5.34v-.42Z" fill="#3b4351"/></g><g id="Hungary-2" data-name="Hungary"><path d="M642.23,88.62H645v7h5.15v-7H653v17.5h-2.79V98H645v8.14h-2.79Z" fill="#3b4351"/><path d="M658.43,88.62v12.55c0,2.23.88,3.18,2.57,3.18s2.55-.95,2.55-3.18V88.62h2.79V101c0,4-2,5.51-5.34,5.51s-5.37-1.47-5.37-5.51V88.62Z" fill="#3b4351"/><path d="M669,88.62h3.41l5.07,13h0v-13h2.64v17.5h-3.4l-5.07-13.38h-.05v13.38H669Z" fill="#3b4351"/><path d="M691.72,104.08h-.05a3.62,3.62,0,0,1-3.82,2.38c-3.82,0-5.19-2.84-5.19-9.09s1.76-9.09,5.8-9.09a4.77,4.77,0,0,1,5.13,5v.32h-2.65v-.42c0-1.3-.54-2.84-2.45-2.84s-3,1.32-3,6.91.93,7,2.82,7c2.13,0,2.91-1.52,2.91-5.34h-2.94V96.9h5.59v9.22h-2.11Z" fill="#3b4351"/><path d="M699.54,88.62h3.58l4.6,17.5h-2.91l-1.08-4.29h-5.12l-1.13,4.29h-2.92Zm3.72,11-2-8.63h0l-2.08,8.63Z" fill="#3b4351"/><path d="M708.94,88.62h6.18c2.45,0,4.44,1.25,4.44,4.51,0,2.25-1,4-2.92,4.29v0c1.76.17,2.65,1.13,2.74,3.58,0,1.15,0,2.5.1,3.55a1.94,1.94,0,0,0,.83,1.52h-3.16a2.94,2.94,0,0,1-.46-1.55c-.05-.51-.08-1-.08-1.56s0-1.11,0-1.74c-.08-1.91-.67-2.75-2.55-2.75h-2.28v7.6h-2.8Zm5,7.79a2.57,2.57,0,0,0,2.79-2.84c0-1.86-.78-2.84-2.64-2.84h-2.38v5.68Z" fill="#3b4351"/><path d="M724.62,99.28l-4.5-10.66h3.11l2.94,7.55,3-7.55h2.92l-4.68,10.66v6.84h-2.8Z" fill="#3b4351"/></g></g></svg>