<svg xmlns="http://www.w3.org/2000/svg" viewBox="0 0 1847.91 109"><title>ce1450text</title><g id="YEARS"><g id="Right"><path d="M1787.21,106.9V93.53h-3.82V91.61h.29c1.77,0,3.79-.44,4.34-2.76v-.36h2.16V106.9Z" fill="#3b4351"/><path d="M1794.86,100.21l6.37-11.72h3V100.4h2v2.36h-2v4.14h-2.81v-4.14h-6.57Zm6.57-7.41h0l-4.13,7.6h4.18Z" fill="#3b4351"/><path d="M1807.62,101.93h2.81v.49a2.35,2.35,0,0,0,2.42,2.6c2.08,0,2.63-2,2.63-4.18s-.58-3.93-2.48-3.93a2.35,2.35,0,0,0-2.41,1.69l-2.63-.1.91-9.65h8.87v2.37h-6.66l-.6,4.83,0,.06a4.08,4.08,0,0,1,3.1-1.43c3.85,0,4.81,3.25,4.81,6.08,0,3.69-1.69,6.5-5.67,6.5-3.3,0-5.15-1.69-5.15-4.94Z" fill="#3b4351"/><path d="M1825.51,88.49c3.54,0,5.51,2.21,5.51,9.38s-2,9.39-5.51,9.39-5.51-2.21-5.51-9.39S1822,88.49,1825.51,88.49Zm0,16.69c2,0,2.55-2,2.55-7.31s-.55-7.3-2.55-7.3-2.55,2-2.55,7.3S1823.51,105.18,1825.51,105.18Z" fill="#3b4351"/></g><g id="left"><path d="M17.46,110.49V97.13H13.64V95.21h.29c1.77,0,3.79-.45,4.34-2.76v-.36h2.16v18.4Z" fill="#3b4351"/><path d="M25.11,103.81l6.37-11.72h3V104h2v2.37h-2v4.13h-2.8v-4.13H25.11Zm6.58-7.41h-.06L27.5,104h4.19Z" fill="#3b4351"/><path d="M37.87,105.53h2.81V106a2.35,2.35,0,0,0,2.42,2.6c2.08,0,2.63-2,2.63-4.18s-.58-3.93-2.48-3.93a2.35,2.35,0,0,0-2.41,1.69l-2.63-.1.91-9.65H48v2.37H41.33l-.6,4.83.06,0a4,4,0,0,1,3.09-1.43c3.85,0,4.81,3.25,4.81,6.09,0,3.69-1.69,6.5-5.67,6.5-3.3,0-5.15-1.69-5.15-4.94Z" fill="#3b4351"/><path d="M55.76,92.09c3.54,0,5.51,2.2,5.51,9.38s-2,9.39-5.51,9.39-5.51-2.21-5.51-9.39S52.22,92.09,55.76,92.09Zm0,16.69c2,0,2.55-2,2.55-7.31s-.55-7.3-2.55-7.3-2.55,2-2.55,7.3S53.76,108.78,55.76,108.78Z" fill="#3b4351"/></g></g><g id="Text"><g id="France"><path d="M321.57,18.75h6.18c2.45,0,4.44,1.25,4.44,4.51,0,2.25-1,4-2.92,4.28v.05c1.76.18,2.65,1.13,2.74,3.58,0,1.15,0,2.5.1,3.55a1.92,1.92,0,0,0,.84,1.52h-3.17a2.87,2.87,0,0,1-.46-1.54c-.05-.51-.07-1.05-.07-1.57s0-1.1-.05-1.74c-.08-1.91-.67-2.74-2.55-2.74h-2.28v7.59h-2.8Zm5,7.79a2.58,2.58,0,0,0,2.79-2.84c0-1.87-.78-2.85-2.64-2.85h-2.38v5.69Z" fill="#3b4351"/><path d="M336.84,30v.75c0,1.77.22,4,2.2,4s2.11-2.13,2.11-2.94h2.5c0,3-1.76,4.76-4.63,4.76-2.16,0-4.83-.64-4.83-6.74,0-3.46.76-7.13,4.88-7.13,3.67,0,4.65,2.23,4.65,5.88V30Zm4.24-1.82v-.71c0-1.67-.54-2.94-2-2.94-1.66,0-2.2,1.67-2.2,3.38v.27Z" fill="#3b4351"/><path d="M345.9,23.06h2.5V24.6h.08a3.78,3.78,0,0,1,3.38-1.88c2,0,3.28.9,3.28,3.57v10h-2.65v-9c0-1.76-.46-2.38-1.83-2.38-1.08,0-2.11.81-2.11,2.58v8.84H345.9Z" fill="#3b4351"/><path d="M366.34,33.5c0,.49.29.93.68.93a1,1,0,0,0,.44-.07v1.71a2.78,2.78,0,0,1-1.29.32c-1.18,0-2.16-.46-2.23-1.74h-.05a3.41,3.41,0,0,1-3.29,1.94c-2.13,0-3.43-1.15-3.43-3.7,0-2.94,1.3-3.56,3.07-4.14l2.05-.57c1-.27,1.55-.54,1.55-1.69s-.42-2-1.82-2c-1.76,0-2,1.25-2,2.52h-2.5c0-2.81,1.15-4.33,4.63-4.33,2.33,0,4.19.9,4.19,3.23Zm-2.5-4.21a21.66,21.66,0,0,1-2.94,1.22,2.17,2.17,0,0,0-1.08,2.13c0,1.1.54,2,1.64,2,1.59,0,2.38-1.18,2.38-3.14Z" fill="#3b4351"/><path d="M369.15,18.55h2.65V21.2h-2.65Zm0,4.51h2.65V36.24h-2.65Z" fill="#3b4351"/><path d="M380.15,26.91v-.35c0-1-.36-2-1.74-2-1.05,0-1.88.47-1.88,1.72,0,1.05.46,1.44,1.86,1.93l1.69.59c2,.66,2.87,1.72,2.87,3.8,0,2.82-2.09,4-4.73,4-3.33,0-4.34-1.55-4.34-4.09V32h2.35v.42c0,1.54.52,2.35,2.06,2.35s2.16-.73,2.16-1.93A1.91,1.91,0,0,0,379,30.9l-2.15-.76c-2-.66-2.82-1.69-2.82-3.8,0-2.47,1.76-3.62,4.51-3.62,3.35,0,4.11,2,4.11,3.6v.59Z" fill="#3b4351"/><path d="M393.56,33.5c0,.49.29.93.68.93a1,1,0,0,0,.44-.07v1.71a2.83,2.83,0,0,1-1.3.32c-1.17,0-2.15-.46-2.23-1.74h0a3.42,3.42,0,0,1-3.29,1.94c-2.13,0-3.43-1.15-3.43-3.7,0-2.94,1.3-3.56,3.06-4.14l2.06-.57c1-.27,1.55-.54,1.55-1.69s-.42-2-1.82-2c-1.76,0-2,1.25-2,2.52h-2.5c0-2.81,1.16-4.33,4.64-4.33,2.32,0,4.19.9,4.19,3.23Zm-2.5-4.21a22.2,22.2,0,0,1-2.94,1.22A2.17,2.17,0,0,0,387,32.64c0,1.1.54,2,1.64,2,1.59,0,2.38-1.18,2.38-3.14Z" fill="#3b4351"/><path d="M396.25,23.06h2.5V24.6h.07a3.78,3.78,0,0,1,3.38-1.88c2,0,3.29.9,3.29,3.57v10h-2.65v-9c0-1.76-.46-2.38-1.84-2.38-1.08,0-2.1.81-2.1,2.58v8.84h-2.65Z" fill="#3b4351"/><path d="M416.93,31.44c-.2,3.16-1.23,5.15-4.51,5.15-3.82,0-4.9-2.82-4.9-6.94s1.08-6.93,4.9-6.93S417,25.83,417,27.45h-2.64c0-1.23-.32-2.85-1.89-2.77-1.89,0-2.26,2.06-2.26,5s.37,5,2.26,5c1.47,0,2-1.2,2-3.19Z" fill="#3b4351"/><path d="M421.19,30v.75c0,1.77.22,4,2.2,4s2.11-2.13,2.11-2.94H428c0,3-1.76,4.76-4.63,4.76-2.16,0-4.83-.64-4.83-6.74,0-3.46.76-7.13,4.88-7.13,3.68,0,4.66,2.23,4.66,5.88V30Zm4.24-1.82v-.71c0-1.67-.54-2.94-2-2.94-1.66,0-2.2,1.67-2.2,3.38v.27Z" fill="#3b4351"/></g><g id="Turks"><path d="M930,69.93c0-6.25,1.77-9.09,5.79-9.09s5.78,2.84,5.78,9.09S939.77,79,935.75,79,930,76.18,930,69.93Zm8.78-.08c0-5.88-1.33-6.91-3-6.91s-3,1-3,6.91,1.32,7.06,3,7.06S938.74,75.86,938.74,69.85Z" fill="#3b4351"/><path d="M946.14,63.53H942V61.18h11v2.35h-4.09V78.68h-2.79Z" fill="#3b4351"/><path d="M957.48,63.53h-4.17V61.18h11.06v2.35h-4.1V78.68h-2.79Z" fill="#3b4351"/><path d="M964.8,69.93c0-6.25,1.77-9.09,5.79-9.09s5.78,2.84,5.78,9.09S974.61,79,970.59,79,964.8,76.18,964.8,69.93Zm8.78-.08c0-5.88-1.33-6.91-3-6.91s-3,1-3,6.91,1.32,7.06,3,7.06S973.58,75.86,973.58,69.85Z" fill="#3b4351"/><path d="M978.84,61.18h4.36l3.09,13h.05l3-13h4.26v17.5H991V64.12h0l-3.53,14.56h-2.35l-3.53-14.56h0V78.68h-2.65Z" fill="#3b4351"/><path d="M999.84,61.18h3.58l4.6,17.5h-2.91L1004,74.39h-5.12l-1.13,4.29h-2.92Zm3.72,11-2-8.63h0l-2.09,8.63Z" fill="#3b4351"/><path d="M1009.25,61.18h3.4l5.08,13h0v-13h2.65v17.5H1017l-5.08-13.38h-.05V78.68h-2.64Z" fill="#3b4351"/><path d="M1031.15,63.53H1027V61.18H1038v2.35h-4.1V78.68h-2.79Z" fill="#3b4351"/><path d="M1042.2,61.18V73.73c0,2.23.88,3.18,2.57,3.18s2.55-1,2.55-3.18V61.18h2.79V73.5c0,4-2,5.52-5.34,5.52s-5.36-1.47-5.36-5.52V61.18Z" fill="#3b4351"/><path d="M1052.78,61.18H1059c2.45,0,4.43,1.25,4.43,4.51,0,2.25-1,4-2.91,4.29v0c1.76.17,2.64,1.12,2.74,3.57,0,1.15,0,2.5.1,3.56a1.93,1.93,0,0,0,.83,1.52H1061a2.94,2.94,0,0,1-.46-1.55c0-.51-.08-1-.08-1.57s0-1.1,0-1.74c-.07-1.91-.66-2.74-2.55-2.74h-2.27v7.6h-2.8Zm5,7.79a2.58,2.58,0,0,0,2.79-2.84c0-1.86-.78-2.84-2.65-2.84h-2.37V69Z" fill="#3b4351"/><path d="M1065.94,61.18h2.79V68.8h0l5.29-7.62h3.07l-5.05,7.37,5.59,10.13h-3.16l-4.24-7.87-1.55,2.2v5.67h-2.79Z" fill="#3b4351"/><path d="M1080.81,73.26v.44c0,2.13,1,3.21,2.87,3.21a2.5,2.5,0,0,0,2.64-2.55c0-1.83-.93-2.64-2.5-3.11l-1.91-.66c-2.55-1-3.65-2.3-3.65-4.8,0-3.19,2.18-5,5.44-5,4.49,0,5,2.79,5,4.6v.39h-2.79v-.36c0-1.6-.69-2.53-2.45-2.53a2.23,2.23,0,0,0-2.35,2.53c0,1.49.75,2.25,2.62,3l1.88.69c2.48.88,3.56,2.2,3.56,4.63,0,3.72-2.26,5.27-5.79,5.27-4.33,0-5.31-2.89-5.31-5.34v-.42Z" fill="#3b4351"/></g><g id="Hungary"><path d="M642.23,88.62H645v7h5.15v-7H653v17.5h-2.79V98H645v8.14h-2.79Z" fill="#3b4351"/><path d="M658.43,88.62v12.55c0,2.23.88,3.18,2.57,3.18s2.55-.95,2.55-3.18V88.62h2.79V101c0,4-2,5.51-5.34,5.51s-5.37-1.47-5.37-5.51V88.62Z" fill="#3b4351"/><path d="M669,88.62h3.41l5.07,13h0v-13h2.64v17.5h-3.4l-5.07-13.38h-.05v13.38H669Z" fill="#3b4351"/><path d="M691.72,104.08h-.05a3.62,3.62,0,0,1-3.82,2.38c-3.82,0-5.19-2.84-5.19-9.09s1.76-9.09,5.8-9.09a4.77,4.77,0,0,1,5.13,5v.32h-2.65v-.42c0-1.3-.54-2.84-2.45-2.84s-3,1.32-3,6.91.93,7,2.82,7c2.13,0,2.91-1.52,2.91-5.34h-2.94V96.9h5.59v9.22h-2.11Z" fill="#3b4351"/><path d="M699.54,88.62h3.58l4.6,17.5h-2.91l-1.08-4.29h-5.12l-1.13,4.29h-2.92Zm3.72,11-2-8.63h0l-2.08,8.63Z" fill="#3b4351"/><path d="M708.94,88.62h6.18c2.45,0,4.44,1.25,4.44,4.51,0,2.25-1,4-2.92,4.29v0c1.76.17,2.65,1.13,2.74,3.58,0,1.15,0,2.5.1,3.55a1.94,1.94,0,0,0,.83,1.52h-3.16a2.94,2.94,0,0,1-.46-1.55c-.05-.51-.08-1-.08-1.56s0-1.11,0-1.74c-.08-1.91-.67-2.75-2.55-2.75h-2.28v7.6h-2.8Zm5,7.79a2.57,2.57,0,0,0,2.79-2.84c0-1.86-.78-2.84-2.64-2.84h-2.38v5.68Z" fill="#3b4351"/><path d="M724.62,99.28l-4.5-10.66h3.11l2.94,7.55,3-7.55h2.92l-4.68,10.66v6.84h-2.8Z" fill="#3b4351"/></g></g></svg>