<svg id="Text" xmlns="http://www.w3.org/2000/svg" viewBox="0 0 1847.91 114"><title>ce1400text</title><g id="Chinese"><path d="M1720.48,29.22h4.36l3.08,13h0l3-13h4.27v17.5h-2.65V32.17h-.05l-3.53,14.55h-2.35l-3.53-14.55h-.05V46.72h-2.64Z"/><path d="M1738.11,29h2.65v2.65h-2.65Zm0,4.51h2.65V46.72h-2.65Z"/><path d="M1743.43,33.54h2.5v1.54h.07a3.79,3.79,0,0,1,3.39-1.88c2,0,3.28.9,3.28,3.57v9.95H1750v-9c0-1.77-.46-2.38-1.84-2.38-1.07,0-2.1.81-2.1,2.58v8.84h-2.65Z"/><path d="M1757.86,47.85a1.73,1.73,0,0,0,1.91,1.57,2.19,2.19,0,0,0,2.23-2.48V44.81h0a3.18,3.18,0,0,1-3,1.81c-3.06,0-3.94-3-3.94-6.64,0-2.89.44-6.78,4.19-6.78a2.9,2.9,0,0,1,2.89,2h.05V33.54h2.5V46.08c0,3.21-1.37,5.15-4.93,5.15-3.92,0-4.36-2.3-4.36-3.38Zm1.86-3.33c2.06,0,2.28-2.6,2.28-4.68s-.27-4.54-2.11-4.54-2.23,2-2.23,4.41C1757.66,42,1757.76,44.52,1759.72,44.52Z"/><path d="M1692.3,56.22h5c5.49,0,6.18,3.58,6.18,8.75s-.69,8.75-6.18,8.75h-5Zm2.79,15.4h2.31c2.3,0,3.26-1.52,3.26-6.65,0-4.92-.84-6.64-3.26-6.64h-2.31Z"/><path d="M1707.51,60.54l2.28,9.9h0l2.11-9.9h2.77l-3.63,13.67c-1,3.6-1.86,4.09-4.61,4a4.73,4.73,0,0,1-1-.1V76a3.65,3.65,0,0,0,.86.09c.91,0,1.49-.17,1.79-1l.34-1.07-3.75-13.48Z"/><path d="M1716.19,60.54h2.5v1.54h.07a3.78,3.78,0,0,1,3.38-1.88c2,0,3.29.9,3.29,3.57v9.95h-2.65v-9c0-1.77-.47-2.38-1.84-2.38-1.08,0-2.11.81-2.11,2.57v8.85h-2.64Z"/><path d="M1736.62,71c0,.49.3.93.69.93a1.22,1.22,0,0,0,.44-.07v1.71a2.83,2.83,0,0,1-1.3.32c-1.18,0-2.16-.47-2.23-1.74h0a3.4,3.4,0,0,1-3.28,1.94c-2.13,0-3.43-1.16-3.43-3.7,0-3,1.3-3.56,3.06-4.15l2.06-.56c1-.27,1.54-.54,1.54-1.69s-.41-2-1.81-2c-1.77,0-2,1.25-2,2.52h-2.5c0-2.82,1.15-4.33,4.63-4.33,2.33,0,4.19.9,4.19,3.23Zm-2.5-4.22a20,20,0,0,1-2.94,1.23,2.17,2.17,0,0,0-1.08,2.13c0,1.1.54,2,1.65,2,1.59,0,2.37-1.18,2.37-3.14Z"/><path d="M1745,64.39V64c0-1.05-.37-2-1.74-2-1,0-1.89.46-1.89,1.71,0,1.06.47,1.45,1.87,1.94l1.69.59c2,.66,2.86,1.71,2.86,3.8,0,2.81-2.08,4-4.73,4-3.33,0-4.33-1.55-4.33-4.1v-.49h2.35v.42c0,1.54.51,2.35,2.06,2.35s2.15-.73,2.15-1.93a1.91,1.91,0,0,0-1.44-1.94l-2.16-.76c-2-.66-2.82-1.69-2.82-3.8,0-2.47,1.77-3.62,4.51-3.62,3.36,0,4.12,2,4.12,3.6v.59Z"/><path d="M1748.58,60.54h1.81V56.79H1753v3.75h2.15v2H1753v7.87c0,1,.29,1.39,1.2,1.39a4.91,4.91,0,0,0,1-.07v2a8.44,8.44,0,0,1-2.13.22c-1.76,0-2.67-.52-2.67-3.19V62.5h-1.81Z"/><path d="M1758.33,60.54l2.28,9.9h0l2.11-9.9h2.77l-3.63,13.67c-1.05,3.6-1.86,4.09-4.6,4a4.76,4.76,0,0,1-1.06-.1V76a3.65,3.65,0,0,0,.86.09c.91,0,1.5-.17,1.79-1l.34-1.07-3.75-13.48Z"/></g></svg>