<svg xmlns="http://www.w3.org/2000/svg" viewBox="0 0 1847.91 114"><title>ce1400text</title><g id="YEARS"><g id="Right"><path d="M1792.5,107.53V94.16h-3.82V92.24h.28c1.77,0,3.8-.45,4.35-2.76v-.36h2.15v18.41Z" fill="#3b4351"/><path d="M1800.14,100.84l6.37-11.72h3V101h2v2.36h-2v4.14h-2.81v-4.14h-6.58Zm6.58-7.41h0l-4.14,7.6h4.19Z" fill="#3b4351"/><path d="M1818.32,89.12c3.53,0,5.51,2.21,5.51,9.38s-2,9.39-5.51,9.39-5.52-2.21-5.52-9.39S1814.78,89.12,1818.32,89.12Zm0,16.69c2,0,2.54-2,2.54-7.31s-.54-7.3-2.54-7.3-2.55,2-2.55,7.3S1816.31,105.81,1818.32,105.81Z" fill="#3b4351"/><path d="M1830.8,89.12c3.53,0,5.51,2.21,5.51,9.38s-2,9.39-5.51,9.39-5.52-2.21-5.52-9.39S1827.26,89.12,1830.8,89.12Zm0,16.69c2,0,2.54-2,2.54-7.31s-.54-7.3-2.54-7.3-2.55,2-2.55,7.3S1828.79,105.81,1830.8,105.81Z" fill="#3b4351"/></g><g id="left"><path d="M17.46,109.43V96.07H13.64V94.14h.29c1.77,0,3.79-.44,4.34-2.75V91h2.16v18.41Z" fill="#3b4351"/><path d="M25.11,102.75,31.48,91h3v11.91h2v2.37h-2v4.13h-2.8V105.3H25.11Zm6.58-7.41h-.06l-4.13,7.59h4.19Z" fill="#3b4351"/><path d="M43.28,91c3.54,0,5.51,2.21,5.51,9.39s-2,9.39-5.51,9.39-5.51-2.21-5.51-9.39S39.75,91,43.28,91Zm0,16.7c2,0,2.55-2,2.55-7.31s-.55-7.31-2.55-7.31-2.55,2-2.55,7.31S41.28,107.72,43.28,107.72Z" fill="#3b4351"/><path d="M55.76,91c3.54,0,5.51,2.21,5.51,9.39s-2,9.39-5.51,9.39-5.51-2.21-5.51-9.39S52.22,91,55.76,91Zm0,16.7c2,0,2.55-2,2.55-7.31s-.55-7.31-2.55-7.31-2.55,2-2.55,7.31S53.76,107.72,55.76,107.72Z" fill="#3b4351"/></g></g><g id="Nation_OUtlines" data-name="Nation OUtlines"><polygon id="Romans" points="854.62 336 829.93 223 711.95 114 764.62 0 729.95 -115 845.28 -226 1002.62 -338 1065.29 -452 1021.28 -563 995.34 -680 815.28 -788 703.28 -899 687.28 -1014 737.95 -1128 780.62 -1240 712.62 -1351 645.95 -1465 550.62 -1578 491.95 -1687.83 453.95 -1800.83 455.29 -1912.83 435.95 -2027.83 470.62 -2135.83 322.62 -2135.83 416.12 -2248.83 480.12 -2358.83 410.62 -2470.83 316.95 -2584.83 248.28 -2699.83 210.28 -2810.83 175.95 -2921.83 159.62 -3037.83 91.28 -3150.83 83.12 -3255.83 117.62 -3369.83 151.37 -3483.83 129.62 -3593.83 109.62 -3708.83 99.62 -3820.83 73.12 -3930.83 75.42 -4828.83 85.95 -4718.83 95.28 -4606.83 111.95 -4494.83 116.62 -4383.83 137.95 -4270.83 149.95 -4154.83 169.95 -4042.83 205.28 -3930.83 231.95 -3820.83 287.74 -3708.83 467.73 -3593.83 683.72 -3483.83 998.71 -3369.83 1118.7 -3255.83 1131.14 -3150.83 1195.2 -3037.83 1182.62 -2921.83 1245.62 -2810.83 1220.62 -2699.83 1122.62 -2584.83 981.62 -2470.83 880.12 -2358.83 717.95 -2248.83 593.62 -2135.83 616.62 -2027.83 717.28 -1912.83 839.28 -1797.99 863.28 -1687.83 915.28 -1578 810.62 -1465 885.95 -1351 1037.95 -1240 1125.95 -1128 1253.95 -1014 1213.95 -899 1202.62 -788 1169.95 -680 1161.29 -563 1218.62 -452 1131.95 -338 936.62 -226 798.62 -115 819.28 0 759.95 114 849.28 223 854.62 336" fill="none" stroke="#3b4351" stroke-miterlimit="10"/><polygon id="Indians" points="1372.19 -5164.66 1294.19 -5278.83 1285.19 -5391.83 1313.69 -5502.83 1348.19 -5615.83 1310.69 -5729.83 1298.69 -5839.83 1313.69 -5951.83 1345.19 -6063.83 1325.69 -6177.83 1343.69 -6291.83 1417.19 -6402.83 1400.69 -6515.91 1429.19 -6628.83 1419.27 -6744.1 1387.19 -6855.83 1387.19 -6967.83 1438.19 -7078.33 1462.18 -7190.33 1480.18 -7303.37 1445.82 -7413.66 1411.11 -7525.66 1545.86 -7525.66 1580.1 -7413.66 1593.12 -7303.43 1552.12 -7190.33 1514.62 -7078.33 1514.12 -6968.16 1553.12 -6856.1 1548.12 -6743.83 1519.62 -6628.83 1534.12 -6515.16 1575.12 -6402.83 1559.62 -6291.83 1564.12 -6178.1 1534.62 -6063.83 1486.12 -5951.83 1465.12 -5839.83 1471.12 -5730.66 1502.12 -5616.66 1508.12 -5502.83 1534.62 -5391.83 1542.77 -5312.97 1555.62 -5164.66 1554.62 -5055.83 1567.12 -4943.83 1542.12 -4829.1 1498.12 -4718.83 1490.62 -4606.83 1513.12 -4494.83 1568.62 -4383.83 1544.12 -4270.83 1530.62 -4155.1 1523.62 -4043.1 1532.62 -3930.83 1565.12 -3820.83 1543.62 -3708.83 1514.12 -3593.83 1490.12 -3484.1 1495.62 -3369.83 1517.12 -3256.16 1528.12 -3150.83 1580.62 -3038.16 1578.12 -2922.16 1578.12 -2811.66 1560.12 -2700.1 1526.62 -2584.83 1467.62 -2470.83 1381.62 -2359.1 1270.62 -2248.83 1090.12 -2136.1 860.62 -2027.83 1302.12 -1912.83 1377.03 -1800.83 1550.62 -1687.83 1519.62 -1578 1476.12 -1465 1516.13 -1351 1534.62 -1238.66 1552.65 -1128 1585.62 -1014.1 1620.12 -899 1650.12 -788 1630.62 -680.1 1622.45 -563.1 1565.62 -452 1402.62 -338.66 1173.62 -226 1148.62 -115 1334.62 0 1283.62 114 1344.62 223 1544.62 336 1602.62 450.34 1627.62 562 1674.62 674.9 1627.62 790 1634.62 902 1686.62 1014 1701.62 1127 1620.12 1239 1606.12 1350 1606.12 1463.83 1552.62 1463.83 1549.52 1350 1569.62 1239 1683.62 1127 1667.62 1014 1607.62 902 1596.62 789.34 1617.62 675 1584.62 562 1562.62 450 1507.62 336 1304.62 222.9 1225.62 113.9 1236.97 76.95 1264.87 0 1082.62 -115 1084.2 -225.49 1323.62 -338 1500.47 -452.1 1573.62 -563 1600.62 -680 1604.62 -788 1569.62 -899 1514.62 -1014 1447.62 -1128.1 1418.62 -1240 1404.62 -1351 1367.62 -1465 1397.62 -1578 1418.62 -1688.1 1339.62 -1801.1 1246.62 -1912.83 748.62 -2027.83 753.62 -2135.83 910.76 -2248.83 1053.62 -2358.83 1195.2 -2470.83 1311.62 -2585.66 1353.62 -2699.83 1348.62 -2810.83 1364.62 -2922.66 1406.62 -3037.83 1401.62 -3150.83 1429.62 -3255.83 1394.62 -3370.1 1393.2 -3483.83 1391.82 -3594.1 1437.52 -3708.83 1513.62 -3821.1 1505.64 -3930.83 1472.62 -4042.66 1447.62 -4154.83 1440.63 -4270.83 1462.62 -4383.83 1391.1 -4494.83 1348.62 -4606.83 1332.62 -4718.83 1376.98 -4828.83 1375.34 -4944.1 1373.74 -5056.1 1372.19 -5164.66" fill="none" stroke="#3b4351" stroke-miterlimit="10"/><polygon id="Chinese" points="1610.76 -5166.1 1609.69 -5279.1 1608.62 -5392.16 1585.12 -5502.83 1551.62 -5615.83 1509.12 -5729.83 1538.12 -5840.1 1586.62 -5952.1 1616.12 -6063.83 1645.62 -6178.1 1697.12 -6292.1 1714.62 -6403.16 1689.12 -6514.83 1700.12 -6628.83 1676.62 -6743.83 1650.62 -6856.16 1630.62 -6967.83 1620.62 -7078.33 1646.62 -7190.33 1667.62 -7302.99 1651.62 -7413.66 1633.99 -7525.66 1768.79 -7525.66 1768.79 675 1768.79 789.9 1766.12 902 1757.62 1014 1736.12 1126.9 1676.12 1238.9 1661.12 1350 1663.62 1463.83 1606.12 1463.83 1606.12 1349.9 1620.12 1239 1701.62 1127 1696.12 1013.84 1654.12 902 1681.62 790 1739.62 674.9 1748.62 561.84 1744.12 449.84 1685.62 336 1615.12 225.34 1636.12 114 1738.62 0 1761.12 -115 1758.62 -226 1732.12 -338 1695.62 -452 1667.62 -563 1651.12 -680 1650.12 -788 1620.12 -899 1585.62 -1014.1 1552.62 -1128.1 1535.12 -1240 1516.12 -1351.1 1476.12 -1465 1542.12 -1578 1625.62 -1688.16 1668.12 -1801.16 1666.12 -1912.83 1673.62 -2027.83 1653.62 -2135.83 1602.12 -2249.1 1534.12 -2359.1 1564.12 -2470.83 1598.12 -2585.1 1612.12 -2699.83 1611.01 -2811.1 1592.62 -2922.1 1609.25 -3037.83 1616.07 -3150.83 1553.62 -3255.83 1529.62 -3369.83 1528.62 -3484.1 1555.62 -3593.83 1612.12 -3708.83 1621.12 -3820.83 1587.12 -3930.83 1567.62 -4042.83 1576.62 -4154.83 1571.12 -4270.83 1584.62 -4384.1 1558.62 -4494.83 1545.62 -4607.1 1557.62 -4719.1 1599.62 -4828.83 1625.12 -4944.1 1613.62 -5056.1 1610.76 -5166.1" fill="none" stroke="#3b4351" stroke-miterlimit="10"/><polygon id="Denmark" points="916.62 1463.83 927.62 1463.83 926.37 1350 701.12 1239 690.87 1127 683.87 1014 637.87 902 522.37 790 457.37 675 426.62 562 299.62 450 273.62 336 281.62 223 289.12 114 302.12 0 296.87 -115 275.62 -226 253.62 -338 226.62 -452 210.62 -563 199.62 -788 199.37 -899 291.37 -1014 277.29 -1128 235.95 -1240 188.87 -1351 180.62 -1465 142.62 -1578 139.95 -1687.83 120.62 -1800.83 99.95 -1912.83 73.12 -2027.83 90.34 -1912.83 107.12 -1800.83 118.37 -1687.83 120.37 -1578 122.62 -1465 125.87 -1351 158.37 -1240 185.87 -1128 183.62 -1014 127.62 -899 119.62 -788 119.12 -680 156.87 -563 188.62 -452 212.62 -338 252.37 -226 277.87 -115 283.37 0 267.12 114 248.87 223 213.87 336 234.37 450 312.12 562 398.12 675 458.87 790 593.37 902 637.87 1014 674.12 1127 691.37 1239 915.37 1350 916.62 1463.83" fill="none" stroke="#3b4351" stroke-miterlimit="10"/><polygon id="Norway" points="213.87 336 222.62 223 243.95 114 258.95 0 252.95 -115 220.95 -226 186.86 -338 160.95 -452 133.28 -563 96.28 -680 84.28 -788 89.28 -899 120.28 -1014 98.62 -1128 94.28 -1240 91.95 -1351 95.28 -1465 99.62 -1578 96.58 -1687.83 93.44 -1800.83 90.34 -1912.83 107.12 -1800.83 118.37 -1687.83 120.37 -1578 122.62 -1465 125.87 -1351 158.37 -1240 185.87 -1128 183.62 -1014 127.62 -899 119.62 -788 119.12 -680 156.87 -563 188.62 -452 212.62 -338 252.37 -226 277.87 -115 283.37 0 267.12 114 248.87 223 213.87 336" fill="none" stroke="#3b4351" stroke-miterlimit="10"/><polygon id="England" points="874.62 1463.83 688.95 1463.83 687.95 1350 439.12 1239 252.12 1127 159.62 1014 111.62 902 93.62 790 86.12 675 84.62 562 86.95 450 98.28 336 116.95 223 114.62 114 122.62 0 120.62 -115 108.28 -226 100.16 -338 107.95 -452 107.95 -563 77.28 -680 73.12 -2027.83 90.34 -1912.83 93.44 -1800.83 96.58 -1687.83 99.62 -1578 91.95 -1351 94.28 -1240 98.62 -1128 120.28 -1014 89.28 -899 84.28 -788 96.28 -680 133.28 -563 160.95 -452 172.95 -338 208.95 -226 223.62 -115 228.28 0 211.62 114 201.62 223 189.95 336 193.28 450 235.28 562 248.62 675 348.62 790 562.62 902 622.12 1014 602.12 1127 652.12 1239 872.95 1350 874.62 1463.83" fill="none" stroke="#3b4351" stroke-miterlimit="10"/><polygon id="South_America" data-name="South America" points="108.28 -226 120.62 -115 122.62 0 114.62 114 116.95 223 98.28 336 86.95 450 84.62 562 79.62 675 82.62 790 87.62 902 107.62 1014 145.12 1127 167.12 1239 198.12 1350 200.12 1463.83 77.28 1463.83 77.28 -680 107.95 -563 107.95 -452 100.16 -338 108.28 -226" fill="none" stroke="#3b4351" stroke-miterlimit="10"/><polygon id="France" points="674.34 562 785.95 674.67 815.95 790 963.28 902 1049.29 1014 932.62 1127 899.28 1239 1099.75 1351 1102.12 1463.83 946.74 1463.83 946.24 1350 748.62 1239 745.95 1127 741.28 1014 711.95 902 643.28 790 613.28 675 535.95 562 385.29 450 317.95 336 311.95 223 310.62 114 321.29 0 314.62 -115 275.62 -226 253.62 -338 258.62 -449.33 325.29 -563 314.62 -680 286.62 -788 249.62 -899 291.37 -1014 409.62 -1014 362.62 -899 373.95 -788 423.58 -680 444.62 -563 381.95 -449.33 347.12 -338 361.29 -226 384.62 -115 391.95 0 365.95 114 379.95 223 391.29 336 491.95 450 674.34 562" fill="none" stroke="#3b4351" stroke-miterlimit="10"/><polygon id="Franks_to_Holy_Roman_Empire" data-name="Franks to Holy Roman Empire" points="594.62 -338 505.62 -226 482.62 -115 599.12 0 617.12 114 639.62 223 772.62 336 953.62 450 1131.62 562 1201.62 675 1109.12 790 1144.62 902 1249.12 1014 1301.62 1127 1217.12 1239 1288.12 1350 1290.62 1463.83 1234.62 1463.83 1232.12 1350 1140.12 1238.91 1137.62 1127 1115.62 1014 1053.62 902 973.12 790 1064.12 675 953.62 562 741.12 450 577.12 336 525.62 223 418.62 114 417.62 0 407.62 -115 385.62 -226 406.62 -338 421.62 -448.33 466.62 -563 441.95 -680 373.95 -788 371.78 -809.31 362.62 -899 409.62 -1014 559.62 -1014 626.73 -899 742.62 -788 897.74 -680 874.62 -563 818.62 -451.4 594.62 -338" fill="none" stroke="#3b4351" stroke-miterlimit="10"/><polygon points="703.28 -899 815.28 -788 966.12 -680 987.12 -563 1028.12 -452 932.12 -338 729.62 -226 630.12 -115 721.12 0 711.95 114 829.93 223 854.62 336 1030.37 450 1169.87 562 1257.37 675 1158.4 790 1196.12 902 1147.62 790 1238.87 675 1162.87 562 1022.62 450 841.12 336 809.62 223 692.62 114 689.38 0 586.62 -115 584.12 -226 663.53 -338 851.12 -452 874.62 -563 897.74 -680 742.62 -788 626.73 -899 559.62 -1014 644.62 -1014 703.28 -899" fill="none" stroke="#3b4351" stroke-miterlimit="10"/><polygon id="Holland" points="613.28 675 643.28 790 711.95 902 741.28 1014 729.95 1127 732.62 1239 935.28 1350 937.12 1463.83 927.62 1463.83 926.37 1350 701.12 1239 690.87 1127 683.87 1014 637.87 902 522.37 790 457.37 675 426.62 562 299.62 450 273.62 336 281.62 223 289.12 114 302.12 0 296.87 -115 275.62 -226 314.62 -115 321.29 0 310.62 114 311.95 223 317.95 336 385.29 450 535.95 562 613.28 675" fill="none" stroke="#3b4351" stroke-miterlimit="10"/><polygon id="Sweden" points="691.37 1239 673.95 1239 893.62 1350 895.28 1463.83 874.62 1463.83 872.95 1350 652.12 1239 602.12 1127 622.12 1014 562.62 902 348.62 790 248.62 675 235.28 562 193.28 450 189.95 336 201.62 223 211.62 114 228.28 0 223.62 -115 208.95 -226 172.95 -338 160.95 -452 186.86 -338 220.95 -226 252.95 -115 258.95 0 243.95 114 222.62 223 213.87 336 234.37 450 312.12 562 398.12 675 458.87 790 593.37 902 637.87 1014 674.12 1127 691.37 1239" fill="none" stroke="#3b4351" stroke-miterlimit="10"/><polygon points="1523.12 1014.84 1446.62 902 1405.12 790.56 1442.62 675 1396.62 562 1391.62 450 1351.62 336 1183.62 223 1092.62 114 1124.29 0 970.62 -115 1005.12 -226 1166.62 -338 1313.55 -449.05 1315.29 -449 1317.44 -452 1317.44 -452 1317.44 -452 1397.29 -563 1463.95 -680 1481.95 -788 1488.62 -899 1453.62 -1014 1382.62 -899 1328.62 -788 1225.12 -680 1161.29 -563 1218.62 -452 1218.62 -452 1218.62 -452 1131.95 -338 936.62 -226 798.62 -115 819.28 0 759.95 114 849.28 223 947.12 336 1111.12 450 1208.62 562 1293.62 675 1244.12 790.56 1280.62 902 1381.12 1014 1410.62 1127 1358.62 1239 1436.62 1350 1436.62 1463.83 1467.62 1463.83 1467.62 1350 1423.62 1239 1492.62 1127 1523.12 1014.84" fill="none" stroke="#3b4351" stroke-miterlimit="10"/><polygon id="Spain" points="1117.95 1351.41 1119.29 1463.83 1102.12 1463.83 1099.75 1351 899.28 1239 932.62 1127 1049.29 1014 963.28 902 815.95 790 785.95 674.67 674.34 562 491.95 450 391.29 336 379.95 223 365.95 114 391.95 0 384.62 -115 361.29 -226 347.12 -338 383.43 -452 444.62 -563 423.58 -680 373.95 -788 441.95 -680 466.62 -563 423.06 -452 406.62 -338 385.62 -226 407.62 -115 417.62 0 401.95 114 463.29 223 491.29 336 631.28 450.42 844.62 562 937.12 676.34 922.62 790 997.95 902 1065.62 1014 1035.29 1127 959.28 1239 1117.95 1351.41" fill="none" stroke="#3b4351" stroke-miterlimit="10"/><polygon id="Portugal" points="946.95 790 1015.62 902 1078.95 1014 1052.2 1127 969.62 1239 1125.62 1350 1126.95 1463.83 1119.29 1463.83 1117.95 1351.41 959.28 1239 1035.29 1127 1065.62 1014 997.95 902 922.62 790 937.12 676.34 844.62 562 631.28 450.42 491.29 336 463.29 223 401.95 114 417.62 0 418.62 114 525.62 223 577.12 336 741.12 450 953.62 562 1064.12 675 946.95 790" fill="none" stroke="#3b4351" stroke-miterlimit="10"/><polygon id="Hungary" points="753.62 223 797.62 336 970.62 450 1131.62 562 953.62 450 772.62 336 639.62 223 617.12 114 599.12 0 482.62 -115 505.62 -226 505.62 -115 610.34 0 632.89 114 753.62 223" fill="none" stroke="#3b4351" stroke-miterlimit="10"/><polygon id="Italy" points="586.62 -115 689.38 0 692.62 114 809.62 223 841.12 336 1022.62 450 1162.87 562 1238.87 675 1147.62 790 1196.12 902 1326.62 1014.84 1351.29 1127 1294.95 1239 1361.29 1350 1361.29 1463.83 1303.29 1463.83 1300.29 1350 1229.95 1239 1317.95 1127 1262.95 1014.84 1153.29 902 1109.12 790 1201.62 675 1131.62 562 970.62 450 797.62 336 753.62 223 632.89 114 610.34 0 505.62 -115 505.62 -226 594.62 -338 818.62 -451.4 874.62 -563 851.12 -452 663.53 -338 584.12 -226 586.62 -115" fill="none" stroke="#3b4351" stroke-miterlimit="10"/><polygon id="Egypt" points="729.95 -115 764.62 0 711.95 114 721.12 0 630.12 -115 729.62 -226 932.12 -338 1028.12 -452 987.12 -563 966.12 -680 815.28 -788 995.34 -680 1021.28 -563 1065.29 -452 1002.62 -338 845.28 -226 729.95 -115" fill="none" stroke="#3b4351" stroke-miterlimit="10"/><polygon id="Serbia" points="1092.62 114 1124.29 0 970.62 -115 1026.12 -226 1027.37 -115 1195.12 0 1155.87 114 1183.62 223 1092.62 114" fill="none" stroke="#3b4351" stroke-miterlimit="10"/><polygon id="Russia" points="1552.62 1463.83 1467.62 1463.83 1467.62 1350 1423.62 1239 1492.62 1127 1523.12 1014.84 1471.87 902 1443.87 790 1536.12 675.34 1518.87 562 1513.87 450 1454.87 336 1270.87 223 1200.12 114 1264.87 0 1225.62 113.9 1304.62 222.9 1507.62 336 1562.62 450 1584.62 562 1617.62 675 1596.62 789.34 1607.62 902 1667.62 1014 1683.62 1127 1569.62 1239 1549.52 1350 1552.62 1463.83" fill="none" stroke="#3b4351" stroke-miterlimit="10"/><polygon id="POland" points="1518.87 562 1536.12 675.34 1443.87 790 1471.87 902 1523.12 1014.84 1446.62 902 1405.12 790.56 1442.62 675 1396.62 562 1391.62 450 1351.62 336 1183.62 223 1155.87 114 1195.12 0 1027.37 -115 1026.12 -226 1082.62 -115 1264.87 0 1200.12 114 1270.87 223 1454.87 336 1513.87 450 1518.87 562" fill="none" stroke="#3b4351" stroke-miterlimit="10"/><polygon id="Mogolians" points="1334.62 0 1148.62 -115 1173.62 -226 1402.62 -338.66 1565.62 -452 1622.45 -563.1 1630.62 -680.1 1650.12 -788 1651.12 -680 1667.62 -563 1695.62 -452 1732.12 -338 1758.62 -226 1761.12 -115 1738.62 0 1636.12 114 1615.56 223 1685.62 336 1744.12 449.84 1748.42 564.28 1739.62 674.9 1681.62 790 1654.12 902 1696.12 1013.84 1701.62 1127 1686.62 1014 1634.62 902 1627.62 790 1674.62 674.9 1627.62 562 1602.62 450.34 1544.62 336 1344.62 223 1283.62 114 1334.62 0" fill="none" stroke="#3b4351" stroke-miterlimit="10"/></g><g id="Text"><g id="Chinese-2" data-name="Chinese"><path d="M1720.48,29.22h4.36l3.08,13h0l3-13h4.27v17.5h-2.65V32.17h-.05l-3.53,14.55h-2.35l-3.53-14.55h-.05V46.72h-2.64Z" fill="#3b4351"/><path d="M1738.11,29h2.65v2.65h-2.65Zm0,4.51h2.65V46.72h-2.65Z" fill="#3b4351"/><path d="M1743.43,33.54h2.5v1.54h.07a3.79,3.79,0,0,1,3.39-1.88c2,0,3.28.9,3.28,3.57v9.95H1750v-9c0-1.77-.46-2.38-1.84-2.38-1.07,0-2.1.81-2.1,2.58v8.84h-2.65Z" fill="#3b4351"/><path d="M1757.86,47.85a1.73,1.73,0,0,0,1.91,1.57,2.19,2.19,0,0,0,2.23-2.48V44.81h0a3.18,3.18,0,0,1-3,1.81c-3.06,0-3.94-3-3.94-6.64,0-2.89.44-6.78,4.19-6.78a2.9,2.9,0,0,1,2.89,2h.05V33.54h2.5V46.08c0,3.21-1.37,5.15-4.93,5.15-3.92,0-4.36-2.3-4.36-3.38Zm1.86-3.33c2.06,0,2.28-2.6,2.28-4.68s-.27-4.54-2.11-4.54-2.23,2-2.23,4.41C1757.66,42,1757.76,44.52,1759.72,44.52Z" fill="#3b4351"/><path d="M1692.3,56.22h5c5.49,0,6.18,3.58,6.18,8.75s-.69,8.75-6.18,8.75h-5Zm2.79,15.4h2.31c2.3,0,3.26-1.52,3.26-6.65,0-4.92-.84-6.64-3.26-6.64h-2.31Z" fill="#3b4351"/><path d="M1707.51,60.54l2.28,9.9h0l2.11-9.9h2.77l-3.63,13.67c-1,3.6-1.86,4.09-4.61,4a4.73,4.73,0,0,1-1-.1V76a3.65,3.65,0,0,0,.86.09c.91,0,1.49-.17,1.79-1l.34-1.07-3.75-13.48Z" fill="#3b4351"/><path d="M1716.19,60.54h2.5v1.54h.07a3.78,3.78,0,0,1,3.38-1.88c2,0,3.29.9,3.29,3.57v9.95h-2.65v-9c0-1.77-.47-2.38-1.84-2.38-1.08,0-2.11.81-2.11,2.57v8.85h-2.64Z" fill="#3b4351"/><path d="M1736.62,71c0,.49.3.93.69.93a1.22,1.22,0,0,0,.44-.07v1.71a2.83,2.83,0,0,1-1.3.32c-1.18,0-2.16-.47-2.23-1.74h0a3.4,3.4,0,0,1-3.28,1.94c-2.13,0-3.43-1.16-3.43-3.7,0-3,1.3-3.56,3.06-4.15l2.06-.56c1-.27,1.54-.54,1.54-1.69s-.41-2-1.81-2c-1.77,0-2,1.25-2,2.52h-2.5c0-2.82,1.15-4.33,4.63-4.33,2.33,0,4.19.9,4.19,3.23Zm-2.5-4.22a20,20,0,0,1-2.94,1.23,2.17,2.17,0,0,0-1.08,2.13c0,1.1.54,2,1.65,2,1.59,0,2.37-1.18,2.37-3.14Z" fill="#3b4351"/><path d="M1745,64.39V64c0-1.05-.37-2-1.74-2-1,0-1.89.46-1.89,1.71,0,1.06.47,1.45,1.87,1.94l1.69.59c2,.66,2.86,1.71,2.86,3.8,0,2.81-2.08,4-4.73,4-3.33,0-4.33-1.55-4.33-4.1v-.49h2.35v.42c0,1.54.51,2.35,2.06,2.35s2.15-.73,2.15-1.93a1.91,1.91,0,0,0-1.44-1.94l-2.16-.76c-2-.66-2.82-1.69-2.82-3.8,0-2.47,1.77-3.62,4.51-3.62,3.36,0,4.12,2,4.12,3.6v.59Z" fill="#3b4351"/><path d="M1748.58,60.54h1.81V56.79H1753v3.75h2.15v2H1753v7.87c0,1,.29,1.39,1.2,1.39a4.91,4.91,0,0,0,1-.07v2a8.44,8.44,0,0,1-2.13.22c-1.76,0-2.67-.52-2.67-3.19V62.5h-1.81Z" fill="#3b4351"/><path d="M1758.33,60.54l2.28,9.9h0l2.11-9.9h2.77l-3.63,13.67c-1.05,3.6-1.86,4.09-4.6,4a4.76,4.76,0,0,1-1.06-.1V76a3.65,3.65,0,0,0,.86.09c.91,0,1.5-.17,1.79-1l.34-1.07-3.75-13.48Z" fill="#3b4351"/></g></g></svg>