<svg xmlns="http://www.w3.org/2000/svg" viewBox="0 0 1847.91 109"><title>ce1450text</title><g id="Text"><g id="France"><path d="M321.57,18.75h6.18c2.45,0,4.44,1.25,4.44,4.51,0,2.25-1,4-2.92,4.28v.05c1.76.18,2.65,1.13,2.74,3.58,0,1.15,0,2.5.1,3.55a1.92,1.92,0,0,0,.84,1.52h-3.17a2.87,2.87,0,0,1-.46-1.54c-.05-.51-.07-1.05-.07-1.57s0-1.1-.05-1.74c-.08-1.91-.67-2.74-2.55-2.74h-2.28v7.59h-2.8Zm5,7.79a2.58,2.58,0,0,0,2.79-2.84c0-1.87-.78-2.85-2.64-2.85h-2.38v5.69Z"/><path d="M336.84,30v.75c0,1.77.22,4,2.2,4s2.11-2.13,2.11-2.94h2.5c0,3-1.76,4.76-4.63,4.76-2.16,0-4.83-.64-4.83-6.74,0-3.46.76-7.13,4.88-7.13,3.67,0,4.65,2.23,4.65,5.88V30Zm4.24-1.82v-.71c0-1.67-.54-2.94-2-2.94-1.66,0-2.2,1.67-2.2,3.38v.27Z"/><path d="M345.9,23.06h2.5V24.6h.08a3.78,3.78,0,0,1,3.38-1.88c2,0,3.28.9,3.28,3.57v10h-2.65v-9c0-1.76-.46-2.38-1.83-2.38-1.08,0-2.11.81-2.11,2.58v8.84H345.9Z"/><path d="M366.34,33.5c0,.49.29.93.68.93a1,1,0,0,0,.44-.07v1.71a2.78,2.78,0,0,1-1.29.32c-1.18,0-2.16-.46-2.23-1.74h-.05a3.41,3.41,0,0,1-3.29,1.94c-2.13,0-3.43-1.15-3.43-3.7,0-2.94,1.3-3.56,3.07-4.14l2.05-.57c1-.27,1.55-.54,1.55-1.69s-.42-2-1.82-2c-1.76,0-2,1.25-2,2.52h-2.5c0-2.81,1.15-4.33,4.63-4.33,2.33,0,4.19.9,4.19,3.23Zm-2.5-4.21a21.66,21.66,0,0,1-2.94,1.22,2.17,2.17,0,0,0-1.08,2.13c0,1.1.54,2,1.64,2,1.59,0,2.38-1.18,2.38-3.14Z"/><path d="M369.15,18.55h2.65V21.2h-2.65Zm0,4.51h2.65V36.24h-2.65Z"/><path d="M380.15,26.91v-.35c0-1-.36-2-1.74-2-1.05,0-1.88.47-1.88,1.72,0,1.05.46,1.44,1.86,1.93l1.69.59c2,.66,2.87,1.72,2.87,3.8,0,2.82-2.09,4-4.73,4-3.33,0-4.34-1.55-4.34-4.09V32h2.35v.42c0,1.54.52,2.35,2.06,2.35s2.16-.73,2.16-1.93A1.91,1.91,0,0,0,379,30.9l-2.15-.76c-2-.66-2.82-1.69-2.82-3.8,0-2.47,1.76-3.62,4.51-3.62,3.35,0,4.11,2,4.11,3.6v.59Z"/><path d="M393.56,33.5c0,.49.29.93.68.93a1,1,0,0,0,.44-.07v1.71a2.83,2.83,0,0,1-1.3.32c-1.17,0-2.15-.46-2.23-1.74h0a3.42,3.42,0,0,1-3.29,1.94c-2.13,0-3.43-1.15-3.43-3.7,0-2.94,1.3-3.56,3.06-4.14l2.06-.57c1-.27,1.55-.54,1.55-1.69s-.42-2-1.82-2c-1.76,0-2,1.25-2,2.52h-2.5c0-2.81,1.16-4.33,4.64-4.33,2.32,0,4.19.9,4.19,3.23Zm-2.5-4.21a22.2,22.2,0,0,1-2.94,1.22A2.17,2.17,0,0,0,387,32.64c0,1.1.54,2,1.64,2,1.59,0,2.38-1.18,2.38-3.14Z"/><path d="M396.25,23.06h2.5V24.6h.07a3.78,3.78,0,0,1,3.38-1.88c2,0,3.29.9,3.29,3.57v10h-2.65v-9c0-1.76-.46-2.38-1.84-2.38-1.08,0-2.1.81-2.1,2.58v8.84h-2.65Z"/><path d="M416.93,31.44c-.2,3.16-1.23,5.15-4.51,5.15-3.82,0-4.9-2.82-4.9-6.94s1.08-6.93,4.9-6.93S417,25.83,417,27.45h-2.64c0-1.23-.32-2.85-1.89-2.77-1.89,0-2.26,2.06-2.26,5s.37,5,2.26,5c1.47,0,2-1.2,2-3.19Z"/><path d="M421.19,30v.75c0,1.77.22,4,2.2,4s2.11-2.13,2.11-2.94H428c0,3-1.76,4.76-4.63,4.76-2.16,0-4.83-.64-4.83-6.74,0-3.46.76-7.13,4.88-7.13,3.68,0,4.66,2.23,4.66,5.88V30Zm4.24-1.82v-.71c0-1.67-.54-2.94-2-2.94-1.66,0-2.2,1.67-2.2,3.38v.27Z"/></g></g><g id="YEARS"><g id="Right"><path d="M1785.6,106.9V93.53h-3.82V91.61h.29c1.77,0,3.79-.44,4.34-2.76v-.36h2.16V106.9Z"/><path d="M1793.25,100.21l6.37-11.72h3V100.4h2v2.36h-2v4.14h-2.81v-4.14h-6.57Zm6.57-7.41h0l-4.13,7.6h4.18Z"/><path d="M1806,101.93h2.81v.49a2.35,2.35,0,0,0,2.42,2.6c2.08,0,2.62-2,2.62-4.18s-.57-3.93-2.47-3.93A2.35,2.35,0,0,0,1809,98.6l-2.63-.1.91-9.65h8.87v2.37h-6.66l-.6,4.83.05.06a4.08,4.08,0,0,1,3.1-1.43c3.85,0,4.81,3.25,4.81,6.08,0,3.69-1.69,6.5-5.67,6.5-3.3,0-5.15-1.69-5.15-4.94Z"/><path d="M1823.9,88.49c3.54,0,5.51,2.21,5.51,9.38s-2,9.39-5.51,9.39-5.51-2.21-5.51-9.39S1820.36,88.49,1823.9,88.49Zm0,16.69c2,0,2.55-2,2.55-7.31s-.55-7.3-2.55-7.3-2.55,2-2.55,7.3S1821.9,105.18,1823.9,105.18Z"/></g><g id="Layer_34" data-name="Layer 34"><path d="M25.85,110.49V97.13H22V95.21h.29c1.77,0,3.79-.45,4.34-2.76v-.37h2.16v18.41Z"/><path d="M33.5,103.81l6.37-11.73h3V104h2v2.37h-2v4.13h-2.8v-4.13H33.5Zm6.58-7.41H40L35.89,104h4.19Z"/><path d="M46.26,105.53h2.81V106a2.35,2.35,0,0,0,2.42,2.6c2.08,0,2.63-2,2.63-4.18s-.58-3.93-2.48-3.93a2.34,2.34,0,0,0-2.41,1.69l-2.63-.11.91-9.64h8.87v2.36H49.72l-.6,4.84.05,0a4.08,4.08,0,0,1,3.1-1.43c3.85,0,4.81,3.25,4.81,6.09,0,3.69-1.69,6.5-5.67,6.5-3.3,0-5.15-1.69-5.15-4.94Z"/><path d="M64.15,92.08c3.54,0,5.51,2.21,5.51,9.39s-2,9.39-5.51,9.39-5.51-2.21-5.51-9.39S60.61,92.08,64.15,92.08Zm0,16.7c2,0,2.55-2,2.55-7.31s-.55-7.31-2.55-7.31-2.55,2-2.55,7.31S62.15,108.78,64.15,108.78Z"/></g></g></svg>