<svg xmlns="http://www.w3.org/2000/svg" viewBox="0 0 1847.91 113"><title>ce1500text</title><g id="YEARS"><g id="Right"><path d="M1790,67.67h3.8l4.89,18.56h-3.1l-1.14-4.55H1789l-1.19,4.55h-3.1Zm4,11.64-2.13-9.15h0l-2.21,9.15Z"/><path d="M1800,82.8h3v3.43h-3Z"/><path d="M1812.42,67.67h5.27c5.83,0,6.56,3.79,6.56,9.28s-.73,9.28-6.56,9.28h-5.27Zm3,16.32h2.44c2.45,0,3.46-1.61,3.46-7,0-5.23-.88-7-3.46-7h-2.44Z"/><path d="M1825.93,82.8h3v3.43h-3Z"/><path d="M1788.14,111.23V97.87h-3.82V95.94h.29c1.77,0,3.79-.44,4.34-2.75v-.37h2.16v18.41Z"/><path d="M1799.19,107.12c0,1.07.52,2.39,2,2.39,2.78,0,2.94-3.64,2.94-6.34l-.08,0a3.79,3.79,0,0,1-3.59,1.95c-2.52,0-4.55-1.82-4.55-5.49,0-4.24,1.72-6.76,5.64-6.76,4.66,0,5.54,3.54,5.54,8.82,0,5.51-1,10-5.87,10-3.25,0-5-1.43-5-4.47Zm2.11-12.22c-1.79,0-2.44,1.8-2.44,3.95,0,2.58.75,4,2.44,4,2.18,0,2.55-1.9,2.55-4.11S1803,94.9,1801.3,94.9Z"/><path d="M1808.55,106.26h2.81v.5a2.35,2.35,0,0,0,2.42,2.6c2.08,0,2.63-2,2.63-4.19s-.58-3.92-2.48-3.92a2.34,2.34,0,0,0-2.41,1.69l-2.63-.11.91-9.64h8.87v2.36H1812l-.6,4.84.06,0a4,4,0,0,1,3.09-1.43c3.85,0,4.81,3.25,4.81,6.08,0,3.7-1.69,6.5-5.67,6.5-3.3,0-5.15-1.69-5.15-4.94Z"/><path d="M1826.44,92.82c3.54,0,5.51,2.21,5.51,9.39s-2,9.38-5.51,9.38-5.51-2.21-5.51-9.38S1822.9,92.82,1826.44,92.82Zm0,16.69c2,0,2.55-2,2.55-7.3s-.55-7.31-2.55-7.31-2.55,2-2.55,7.31S1824.44,109.51,1826.44,109.51Z"/></g><g id="Layer_34" data-name="Layer 34"><path d="M30.2,71.26H34l4.89,18.57h-3.1l-1.14-4.55H29.21L28,89.83h-3.1Zm3.95,11.65L32,73.76H32l-2.21,9.15Z"/><path d="M40.29,86.4h3v3.43h-3Z"/><path d="M52.67,71.26h5.27c5.83,0,6.56,3.8,6.56,9.29s-.73,9.28-6.56,9.28H52.67Zm3,16.33h2.44c2.45,0,3.46-1.61,3.46-7,0-5.23-.88-7-3.46-7H55.63Z"/><path d="M66.19,86.4h3v3.43h-3Z"/><path d="M28.39,114.83V101.46H24.57V99.54h.29c1.77,0,3.8-.44,4.34-2.76v-.36h2.16v18.41Z"/><path d="M39.44,110.72c0,1.07.52,2.39,2,2.39,2.78,0,2.94-3.64,2.94-6.34l-.08,0a3.79,3.79,0,0,1-3.59,2c-2.52,0-4.55-1.82-4.55-5.49,0-4.24,1.72-6.76,5.64-6.76,4.66,0,5.54,3.54,5.54,8.81,0,5.52-1,10-5.87,10-3.25,0-5-1.43-5-4.47ZM41.55,98.5c-1.79,0-2.44,1.79-2.44,4,0,2.58.75,4,2.44,4,2.18,0,2.55-1.9,2.55-4.11S43.29,98.5,41.55,98.5Z"/><path d="M48.8,109.86h2.81v.5A2.36,2.36,0,0,0,54,113c2.08,0,2.63-2,2.63-4.19s-.58-3.93-2.47-3.93a2.35,2.35,0,0,0-2.42,1.69l-2.63-.1.91-9.65h8.87v2.37H52.26l-.6,4.84.06.05a4,4,0,0,1,3.09-1.43c3.85,0,4.81,3.25,4.81,6.08,0,3.69-1.69,6.5-5.67,6.5-3.3,0-5.15-1.69-5.15-4.94Z"/><path d="M66.69,96.42c3.54,0,5.51,2.21,5.51,9.39s-2,9.38-5.51,9.38-5.51-2.21-5.51-9.38S63.16,96.42,66.69,96.42Zm0,16.69c2,0,2.55-2,2.55-7.3s-.55-7.31-2.55-7.31-2.55,2-2.55,7.31S64.69,113.11,66.69,113.11Z"/><path d="M25.85,1.49V-11.87H22v-1.92h.29c1.77,0,3.79-.45,4.34-2.76v-.37h2.16V1.49Z"/><path d="M33.5-5.19l6.37-11.73h3V-5h2v2.37h-2V1.49h-2.8V-2.64H33.5Zm6.58-7.41H40L35.89-5h4.19Z"/><path d="M46.26-3.47h2.81V-3a2.35,2.35,0,0,0,2.42,2.6c2.08,0,2.63-2,2.63-4.18s-.58-3.93-2.48-3.93A2.34,2.34,0,0,0,49.23-6.8L46.6-6.91l.91-9.64h8.87v2.36H49.72l-.6,4.84.05,0a4.08,4.08,0,0,1,3.1-1.43c3.85,0,4.81,3.25,4.81,6.09,0,3.69-1.69,6.5-5.67,6.5-3.3,0-5.15-1.69-5.15-4.94Z"/><path d="M64.15-16.92c3.54,0,5.51,2.21,5.51,9.39s-2,9.39-5.51,9.39S58.64-.35,58.64-7.53,60.61-16.92,64.15-16.92Zm0,16.7c2,0,2.55-2,2.55-7.31s-.55-7.31-2.55-7.31-2.55,2-2.55,7.31S62.15-.22,64.15-.22Z"/></g></g></svg>