<svg xmlns="http://www.w3.org/2000/svg" viewBox="0 0 1847.91 114"><title>ce1550text</title><g id="YEARS"><g id="Right"><path d="M1787.21,108.56V95.2h-3.82V93.27h.29c1.77,0,3.79-.44,4.34-2.75v-.37h2.16v18.41Z"/><path d="M1795.14,103.6H1798v.49a2.35,2.35,0,0,0,2.42,2.6c2.08,0,2.63-2,2.63-4.19s-.58-3.92-2.48-3.92a2.34,2.34,0,0,0-2.41,1.69l-2.63-.11.91-9.64h8.87v2.36h-6.66l-.6,4.84.06,0a4,4,0,0,1,3.09-1.43c3.85,0,4.81,3.25,4.81,6.09,0,3.69-1.69,6.5-5.67,6.5-3.3,0-5.15-1.69-5.15-4.94Z"/><path d="M1807.62,103.6h2.81v.49a2.35,2.35,0,0,0,2.42,2.6c2.08,0,2.63-2,2.63-4.19s-.58-3.92-2.48-3.92a2.34,2.34,0,0,0-2.41,1.69l-2.63-.11.91-9.64h8.87v2.36h-6.66l-.6,4.84,0,0a4.08,4.08,0,0,1,3.1-1.43c3.85,0,4.81,3.25,4.81,6.09,0,3.69-1.69,6.5-5.67,6.5-3.3,0-5.15-1.69-5.15-4.94Z"/><path d="M1825.51,90.15c3.54,0,5.51,2.21,5.51,9.39s-2,9.39-5.51,9.39-5.51-2.21-5.51-9.39S1822,90.15,1825.51,90.15Zm0,16.7c2,0,2.55-2,2.55-7.31s-.55-7.31-2.55-7.31-2.55,2-2.55,7.31S1823.51,106.85,1825.51,106.85Z"/></g><g id="left"><path d="M17.46,112.16V98.8H13.64V96.87h.29c1.77,0,3.79-.44,4.34-2.75v-.37h2.16v18.41Z"/><path d="M25.39,107.2H28.2v.49a2.35,2.35,0,0,0,2.42,2.6c2.08,0,2.63-2,2.63-4.19s-.58-3.92-2.47-3.92a2.34,2.34,0,0,0-2.42,1.69l-2.63-.11.91-9.64h8.87v2.36H28.85l-.6,4.84.06.05a4,4,0,0,1,3.09-1.43c3.85,0,4.81,3.25,4.81,6.09,0,3.69-1.69,6.5-5.67,6.5-3.3,0-5.15-1.7-5.15-5Z"/><path d="M37.87,107.2h2.81v.49a2.35,2.35,0,0,0,2.42,2.6c2.08,0,2.63-2,2.63-4.19s-.58-3.92-2.48-3.92a2.34,2.34,0,0,0-2.41,1.69l-2.63-.11.91-9.64H48v2.36H41.33l-.6,4.84.06.05a4,4,0,0,1,3.09-1.43c3.85,0,4.81,3.25,4.81,6.09,0,3.69-1.69,6.5-5.67,6.5-3.3,0-5.15-1.7-5.15-5Z"/><path d="M55.76,93.75c3.54,0,5.51,2.21,5.51,9.39s-2,9.39-5.51,9.39-5.51-2.22-5.51-9.39S52.22,93.75,55.76,93.75Zm0,16.7c2,0,2.55-2,2.55-7.31s-.55-7.31-2.55-7.31-2.55,2-2.55,7.31S53.76,110.45,55.76,110.45Z"/><path d="M17.46,1.83V-11.54H13.64v-1.92h.29c1.77,0,3.79-.44,4.34-2.76v-.36h2.16V1.83Z"/><path d="M28.51-2.28c0,1.07.52,2.39,2,2.39,2.78,0,2.94-3.64,2.94-6.34l-.08,0a3.79,3.79,0,0,1-3.59,2c-2.52,0-4.55-1.82-4.55-5.49,0-4.24,1.72-6.76,5.64-6.76,4.66,0,5.54,3.54,5.54,8.81,0,5.52-1,10-5.87,10-3.25,0-5-1.43-5-4.47ZM30.62-14.5c-1.79,0-2.44,1.79-2.44,3.95,0,2.58.75,4,2.44,4,2.18,0,2.55-1.9,2.55-4.11S32.36-14.5,30.62-14.5Z"/><path d="M37.87-3.14h2.81v.5A2.36,2.36,0,0,0,43.1,0c2.08,0,2.63-2,2.63-4.19s-.58-3.93-2.48-3.93a2.35,2.35,0,0,0-2.41,1.69l-2.63-.1.91-9.65H48v2.37H41.33L40.73-9l.06,0a4,4,0,0,1,3.09-1.43c3.85,0,4.81,3.25,4.81,6.08,0,3.69-1.69,6.5-5.67,6.5-3.3,0-5.15-1.69-5.15-4.94Z"/><path d="M55.76-16.58c3.54,0,5.51,2.21,5.51,9.39s-2,9.38-5.51,9.38S50.25,0,50.25-7.19,52.22-16.58,55.76-16.58Zm0,16.69c2,0,2.55-2,2.55-7.3s-.55-7.31-2.55-7.31-2.55,2-2.55,7.31S53.76.11,55.76.11Z"/></g></g><g id="Text"><g id="Poland"><path d="M1372.43,14.67H1378c3.36,0,4.83,2.11,4.83,5.1s-1.86,5.17-5.12,5.17h-2.45v7.23h-2.79Zm2.79,8.16h2c1.5,0,2.8-.79,2.8-3,0-1.89-.76-3-3-3h-1.79Z"/><path d="M1384.26,23.42c0-6.25,1.76-9.09,5.78-9.09s5.79,2.84,5.79,9.09-1.77,9.09-5.79,9.09S1384.26,29.67,1384.26,23.42Zm8.77-.08c0-5.88-1.32-6.91-3-6.91s-3,1-3,6.91,1.33,7.06,3,7.06S1393,29.35,1393,23.34Z"/><path d="M1398,14.67h2.79V29.81h6.77v2.36H1398Z"/><path d="M1412.48,14.67h3.58l4.61,17.5h-2.92l-1.08-4.29h-5.12l-1.12,4.29h-2.92Zm3.73,11-2-8.63h0l-2.08,8.63Z"/><path d="M1421.89,14.67h3.41l5.07,13h.05v-13h2.65v17.5h-3.41l-5.07-13.38h0V32.17h-2.65Z"/><path d="M1436,14.67h5c5.49,0,6.17,3.58,6.17,8.75s-.68,8.75-6.17,8.75h-5Zm2.8,15.39h2.3c2.3,0,3.26-1.52,3.26-6.64,0-4.93-.83-6.64-3.26-6.64h-2.3Z"/></g><g id="Persia"><path d="M1027.81,90h5.54c3.35,0,4.82,2.1,4.82,5.09s-1.86,5.17-5.12,5.17h-2.45v7.23h-2.79Zm2.79,8.16h2c1.49,0,2.79-.79,2.79-3,0-1.88-.76-3-3-3h-1.79Z"/><path d="M1040.06,90h9.46v2.35h-6.67V97.2h6.27v2.35h-6.27v5.59h6.86v2.35h-9.65Z"/><path d="M1051.84,90H1058c2.45,0,4.43,1.25,4.43,4.5,0,2.26-1,4-2.91,4.29v0c1.76.17,2.64,1.13,2.74,3.58,0,1.15,0,2.5.1,3.55a1.89,1.89,0,0,0,.83,1.52h-3.16a2.9,2.9,0,0,1-.46-1.54c0-.52-.08-1-.08-1.57s0-1.1,0-1.74c-.07-1.91-.66-2.74-2.55-2.74h-2.27v7.59h-2.8Zm5,7.79a2.58,2.58,0,0,0,2.79-2.84c0-1.87-.78-2.85-2.65-2.85h-2.37v5.69Z"/><path d="M1067.15,102.08v.44c0,2.13,1,3.21,2.87,3.21a2.51,2.51,0,0,0,2.65-2.55c0-1.84-.93-2.65-2.5-3.11l-1.91-.66c-2.55-1-3.65-2.31-3.65-4.81,0-3.18,2.18-4.95,5.44-4.95,4.48,0,5,2.8,5,4.61v.39h-2.8v-.36c0-1.6-.68-2.53-2.45-2.53a2.23,2.23,0,0,0-2.35,2.53c0,1.49.76,2.25,2.62,3l1.89.69c2.47.88,3.55,2.2,3.55,4.63,0,3.72-2.25,5.27-5.78,5.27-4.34,0-5.32-2.9-5.32-5.35v-.41Z"/><path d="M1077.59,90h2.8v17.49h-2.8Z"/><path d="M1086.46,90H1090l4.6,17.49h-2.91l-1.08-4.28h-5.12l-1.13,4.28h-2.92Zm3.72,11-2-8.62h0L1086,101Z"/></g><g id="Holy_Roman_Empire_to_Austria" data-name="Holy Roman Empire to Austria"><path d="M700.34,46.15h5.54c3.36,0,4.83,2.11,4.83,5.1s-1.87,5.17-5.12,5.17h-2.46v7.23h-2.79Zm2.79,8.16h2c1.49,0,2.79-.78,2.79-3,0-1.89-.76-3-3-3h-1.79Z"/><path d="M712.42,50.46h2.65v2.06h0a3.24,3.24,0,0,1,3.06-2.4,1.59,1.59,0,0,1,.64.1v2.69a3.94,3.94,0,0,0-1.11-.14c-1.2,0-2.64.54-2.64,3v7.89h-2.65Z"/><path d="M719.62,57.06c0-4.12,1.08-6.94,4.9-6.94s4.93,2.82,4.93,6.94S728.17,64,724.52,64,719.62,61.17,719.62,57.06Zm4.9,5c1.94,0,2.28-1.62,2.28-5,0-2.92-.34-5-2.28-5s-2.25,2.06-2.25,5C722.27,60.41,722.64,62,724.52,62Z"/><path d="M730.3,50.46h1.82V46.71h2.64v3.75h2.16v2h-2.16v7.87c0,1.05.3,1.4,1.2,1.4a4.84,4.84,0,0,0,1-.08v2a8.44,8.44,0,0,1-2.13.22c-1.77,0-2.67-.51-2.67-3.18V52.42H730.3Z"/><path d="M740.57,57.4v.76c0,1.76.22,4,2.21,4s2.1-2.13,2.1-2.94h2.5c0,3-1.76,4.75-4.63,4.75-2.16,0-4.83-.64-4.83-6.74,0-3.45.76-7.13,4.88-7.13,3.68,0,4.66,2.23,4.66,5.88v1.4Zm4.24-1.81v-.72c0-1.66-.54-2.94-2-2.94-1.67,0-2.21,1.67-2.21,3.39v.27Z"/><path d="M755.32,54.31V54c0-1.06-.37-2-1.74-2-1.05,0-1.89.47-1.89,1.72,0,1.05.47,1.45,1.87,1.94l1.69.58c2,.67,2.86,1.72,2.86,3.8,0,2.82-2.08,4-4.73,4-3.33,0-4.33-1.54-4.33-4.09v-.49h2.35v.42c0,1.54.51,2.35,2.06,2.35s2.15-.74,2.15-1.94a1.9,1.9,0,0,0-1.44-1.93L752,57.55c-2-.67-2.82-1.69-2.82-3.8,0-2.48,1.77-3.63,4.51-3.63,3.36,0,4.12,2,4.12,3.6v.59Z"/><path d="M758.9,50.46h1.81V46.71h2.65v3.75h2.15v2h-2.15v7.87c0,1.05.29,1.4,1.2,1.4a4.8,4.8,0,0,0,1-.08v2a8.44,8.44,0,0,1-2.13.22c-1.76,0-2.67-.51-2.67-3.18V52.42H758.9Z"/><path d="M775.53,60.9c0,.49.3.93.69.93a1,1,0,0,0,.44-.07v1.72a2.83,2.83,0,0,1-1.3.31c-1.17,0-2.16-.46-2.23-1.74h0A3.4,3.4,0,0,1,769.8,64c-2.13,0-3.43-1.15-3.43-3.7,0-2.94,1.3-3.55,3.06-4.14l2.06-.56c1-.27,1.54-.54,1.54-1.7s-.41-2-1.81-2c-1.76,0-2,1.25-2,2.53h-2.5c0-2.82,1.15-4.34,4.63-4.34,2.33,0,4.19.91,4.19,3.24ZM773,56.69a20,20,0,0,1-2.94,1.22A2.18,2.18,0,0,0,769,60.05c0,1.1.54,2,1.65,2,1.59,0,2.37-1.18,2.37-3.14Z"/><path d="M778.23,50.46h2.5V52h.07a3.77,3.77,0,0,1,3.38-1.89c2,0,3.28.91,3.28,3.58v9.95h-2.64v-9c0-1.77-.47-2.38-1.84-2.38-1.08,0-2.11.81-2.11,2.57v8.85h-2.64Z"/><path d="M788.83,50.46h1.82V46.71h2.64v3.75h2.16v2h-2.16v7.87c0,1.05.3,1.4,1.2,1.4a4.91,4.91,0,0,0,1-.08v2a8.44,8.44,0,0,1-2.13.22c-1.77,0-2.67-.51-2.67-3.18V52.42h-1.82Z"/><path d="M738,73.15h6.18c2.45,0,4.43,1.25,4.43,4.51,0,2.25-1,4-2.91,4.29v0c1.76.17,2.65,1.12,2.74,3.58,0,1.15,0,2.49.1,3.55a1.92,1.92,0,0,0,.83,1.52h-3.16a2.94,2.94,0,0,1-.46-1.55c-.05-.51-.08-1-.08-1.56s0-1.11,0-1.74c-.08-1.92-.67-2.75-2.55-2.75h-2.28v7.6H738Zm5,7.79a2.57,2.57,0,0,0,2.79-2.84c0-1.86-.78-2.84-2.65-2.84h-2.37v5.68Z"/><path d="M753.24,84.4v.76c0,1.76.22,4,2.2,4s2.11-2.13,2.11-2.94h2.5c0,3-1.76,4.75-4.63,4.75-2.16,0-4.83-.64-4.83-6.74,0-3.45.76-7.13,4.88-7.13,3.67,0,4.65,2.23,4.65,5.88v1.4Zm4.24-1.81v-.72c0-1.66-.54-2.94-2-2.94-1.66,0-2.2,1.67-2.2,3.39v.27Z"/><path d="M763.11,79.42h-1.84v-2h1.84V76.24c0-2.48,1.2-3.28,3.36-3.28a11.83,11.83,0,0,1,1.44.07v2h-.73c-1,0-1.42.37-1.42,1.25v1.15h2.15v2h-2.15V90.65h-2.65Z"/><path d="M768.6,84.06c0-4.12,1.08-6.94,4.9-6.94s4.93,2.82,4.93,6.94S777.15,91,773.5,91,768.6,88.17,768.6,84.06Zm4.9,5c1.94,0,2.28-1.62,2.28-5,0-2.92-.34-5-2.28-5s-2.25,2.06-2.25,5C771.25,87.41,771.61,89,773.5,89Z"/><path d="M780.46,77.46h2.64v2.06h0a3.26,3.26,0,0,1,3.07-2.4,1.53,1.53,0,0,1,.63.1v2.69a3.8,3.8,0,0,0-1.1-.14c-1.2,0-2.65.54-2.65,3v7.89h-2.64Z"/><path d="M788.54,77.46H791V79h.07a3.71,3.71,0,0,1,3.17-1.89,2.86,2.86,0,0,1,3.06,2,3.61,3.61,0,0,1,3.33-2c1.86,0,3.21,1,3.21,3.5v10h-2.65v-9c0-1.74-.51-2.38-1.59-2.38s-2.11.83-2.11,2.57v8.85h-2.64v-9c0-1.74-.52-2.38-1.62-2.38s-2.08.86-2.08,2.57v8.85h-2.65Z"/><path d="M815.2,87.9c0,.49.29.93.68.93a1.06,1.06,0,0,0,.45-.07v1.72a2.86,2.86,0,0,1-1.3.31c-1.18,0-2.16-.46-2.23-1.74h0A3.41,3.41,0,0,1,809.46,91c-2.13,0-3.43-1.15-3.43-3.7,0-2.94,1.3-3.55,3.07-4.14l2.06-.56c1-.27,1.54-.54,1.54-1.7s-.42-2-1.81-2c-1.77,0-2,1.25-2,2.53h-2.5c0-2.82,1.15-4.34,4.63-4.34,2.33,0,4.19.91,4.19,3.24Zm-2.5-4.21a20.45,20.45,0,0,1-2.94,1.22,2.18,2.18,0,0,0-1.08,2.14c0,1.1.54,2,1.64,2,1.59,0,2.38-1.18,2.38-3.14Z"/><path d="M816.72,77.46h1.81V73.71h2.65v3.75h2.15v2h-2.15v7.87c0,1,.29,1.4,1.2,1.4a4.8,4.8,0,0,0,1-.08v2a8.44,8.44,0,0,1-2.13.22c-1.76,0-2.67-.51-2.67-3.18V79.42h-1.81Z"/><path d="M824.83,73h2.64V75.6h-2.64Zm0,4.5h2.64V90.65h-2.64Z"/><path d="M829.63,84.06c0-4.12,1.07-6.94,4.9-6.94s4.92,2.82,4.92,6.94S838.18,91,834.53,91,829.63,88.17,829.63,84.06Zm4.9,5c1.93,0,2.28-1.62,2.28-5,0-2.92-.35-5-2.28-5s-2.26,2.06-2.26,5C832.27,87.41,832.64,89,834.53,89Z"/><path d="M841.48,77.46H844V79h.08a3.77,3.77,0,0,1,3.38-1.89c2,0,3.28.91,3.28,3.58v10h-2.64v-9c0-1.77-.47-2.38-1.84-2.38-1.08,0-2.11.81-2.11,2.57v8.85h-2.65Z"/></g></g></svg>