<svg xmlns="http://www.w3.org/2000/svg" viewBox="0 0 1847.91 114"><title>ce1550text</title><g id="YEARS"><g id="Right"><path d="M1792.5,109V95.63h-3.82V93.71h.28c1.77,0,3.8-.44,4.35-2.76v-.36h2.15V109Z" fill="#3b4351"/><path d="M1800.43,104h2.81v.5a2.34,2.34,0,0,0,2.41,2.59c2.08,0,2.63-2,2.63-4.18s-.57-3.93-2.47-3.93a2.36,2.36,0,0,0-2.42,1.69l-2.62-.1.91-9.65h8.86v2.37h-6.65l-.6,4.84,0,0a4.06,4.06,0,0,1,3.09-1.43c3.85,0,4.81,3.25,4.81,6.08,0,3.69-1.69,6.5-5.66,6.5-3.31,0-5.15-1.69-5.15-4.94Z" fill="#3b4351"/><path d="M1812.91,104h2.81v.5a2.34,2.34,0,0,0,2.41,2.59c2.08,0,2.63-2,2.63-4.18s-.57-3.93-2.47-3.93a2.36,2.36,0,0,0-2.42,1.69l-2.62-.1.91-9.65H1823v2.37h-6.65l-.6,4.84,0,0a4.06,4.06,0,0,1,3.09-1.43c3.85,0,4.81,3.25,4.81,6.08,0,3.69-1.69,6.5-5.66,6.5-3.31,0-5.15-1.69-5.15-4.94Z" fill="#3b4351"/><path d="M1830.8,90.59c3.53,0,5.51,2.21,5.51,9.38s-2,9.39-5.51,9.39-5.52-2.21-5.52-9.39S1827.26,90.59,1830.8,90.59Zm0,16.69c2,0,2.54-2,2.54-7.31s-.54-7.3-2.54-7.3-2.55,2-2.55,7.3S1828.79,107.28,1830.8,107.28Z" fill="#3b4351"/></g><g id="left"><path d="M17.46,110.9V97.54H13.64V95.62h.29c1.77,0,3.79-.45,4.34-2.76V92.5h2.16v18.4Z" fill="#3b4351"/><path d="M25.39,105.94H28.2v.49a2.35,2.35,0,0,0,2.42,2.6c2.08,0,2.63-2,2.63-4.18s-.58-3.93-2.47-3.93a2.35,2.35,0,0,0-2.42,1.69l-2.63-.1.91-9.65h8.87v2.37H28.85l-.6,4.83.06,0a4,4,0,0,1,3.09-1.43c3.85,0,4.81,3.25,4.81,6.09,0,3.69-1.69,6.5-5.67,6.5-3.3,0-5.15-1.69-5.15-4.94Z" fill="#3b4351"/><path d="M37.87,105.94h2.81v.49A2.35,2.35,0,0,0,43.1,109c2.08,0,2.63-2,2.63-4.18s-.58-3.93-2.48-3.93a2.35,2.35,0,0,0-2.41,1.69l-2.63-.1.91-9.65H48v2.37H41.33l-.6,4.83.06,0a4,4,0,0,1,3.09-1.43c3.85,0,4.81,3.25,4.81,6.09,0,3.69-1.69,6.5-5.67,6.5-3.3,0-5.15-1.69-5.15-4.94Z" fill="#3b4351"/><path d="M55.76,92.5c3.54,0,5.51,2.21,5.51,9.38s-2,9.39-5.51,9.39-5.51-2.21-5.51-9.39S52.22,92.5,55.76,92.5Zm0,16.69c2,0,2.55-2,2.55-7.31s-.55-7.3-2.55-7.3-2.55,2-2.55,7.3S53.76,109.19,55.76,109.19Z" fill="#3b4351"/></g></g><g id="Nation_OUtlines" data-name="Nation OUtlines"><polygon id="Romans" points="854.62 0 829.93 -113 711.95 -222 764.62 -336 729.95 -451 845.28 -562 1002.62 -674 1065.29 -788 1021.28 -899 995.34 -1016 815.28 -1124 703.28 -1235 687.28 -1350 737.95 -1464 780.62 -1576 712.62 -1687 645.95 -1801 550.62 -1914 491.95 -2023.83 453.95 -2136.83 455.29 -2248.83 435.95 -2363.83 470.62 -2471.83 322.62 -2471.83 416.12 -2584.83 480.12 -2694.83 410.62 -2806.83 316.95 -2920.83 248.28 -3035.83 210.28 -3146.83 175.95 -3257.83 159.62 -3373.83 91.28 -3486.83 83.12 -3591.83 117.62 -3705.83 151.37 -3819.83 129.62 -3929.83 109.62 -4044.83 99.62 -4156.83 73.12 -4266.83 75.42 -5164.83 85.95 -5054.83 95.28 -4942.83 111.95 -4830.83 116.62 -4719.83 137.95 -4606.83 149.95 -4490.83 169.95 -4378.83 205.28 -4266.83 231.95 -4156.83 287.74 -4044.83 467.73 -3929.83 683.72 -3819.83 998.71 -3705.83 1118.7 -3591.83 1131.14 -3486.83 1195.2 -3373.83 1182.62 -3257.83 1245.62 -3146.83 1220.62 -3035.83 1122.62 -2920.83 981.62 -2806.83 880.12 -2694.83 717.95 -2584.83 593.62 -2471.83 616.62 -2363.83 717.28 -2248.83 839.28 -2133.99 863.28 -2023.83 915.28 -1914 810.62 -1801 885.95 -1687 1037.95 -1576 1125.95 -1464 1253.95 -1350 1213.95 -1235 1202.62 -1124 1169.95 -1016 1161.29 -899 1218.62 -788 1131.95 -674 936.62 -562 798.62 -451 819.28 -336 759.95 -222 849.28 -113 854.62 0" fill="none" stroke="#3b4351" stroke-miterlimit="10"/><polygon id="Indians" points="1372.19 -5500.66 1294.19 -5614.83 1285.19 -5727.83 1313.69 -5838.83 1348.19 -5951.83 1310.69 -6065.83 1298.69 -6175.83 1313.69 -6287.83 1345.19 -6399.83 1325.69 -6513.83 1343.69 -6627.83 1417.19 -6738.83 1400.69 -6851.91 1429.19 -6964.83 1419.27 -7080.1 1387.19 -7191.83 1387.19 -7303.83 1438.19 -7414.33 1462.18 -7526.33 1480.18 -7639.37 1445.82 -7749.66 1411.11 -7861.66 1545.86 -7861.66 1580.1 -7749.66 1593.12 -7639.43 1552.12 -7526.33 1514.62 -7414.33 1514.12 -7304.16 1553.12 -7192.1 1548.12 -7079.83 1519.62 -6964.83 1534.12 -6851.16 1575.12 -6738.83 1559.62 -6627.83 1564.12 -6514.1 1534.62 -6399.83 1486.12 -6287.83 1465.12 -6175.83 1471.12 -6066.66 1502.12 -5952.66 1508.12 -5838.83 1534.62 -5727.83 1542.77 -5648.97 1555.62 -5500.66 1554.62 -5391.83 1567.12 -5279.83 1542.12 -5165.1 1498.12 -5054.83 1490.62 -4942.83 1513.12 -4830.83 1568.62 -4719.83 1544.12 -4606.83 1530.62 -4491.1 1523.62 -4379.1 1532.62 -4266.83 1565.12 -4156.83 1543.62 -4044.83 1514.12 -3929.83 1490.12 -3820.1 1495.62 -3705.83 1517.12 -3592.16 1528.12 -3486.83 1580.62 -3374.16 1578.12 -3258.16 1578.12 -3147.66 1560.12 -3036.1 1526.62 -2920.83 1467.62 -2806.83 1381.62 -2695.1 1270.62 -2584.83 1090.12 -2472.1 860.62 -2363.83 1302.12 -2248.83 1377.03 -2136.83 1550.62 -2023.83 1519.62 -1914 1476.12 -1801 1516.13 -1687 1534.62 -1574.66 1552.65 -1464 1585.62 -1350.1 1620.12 -1235 1650.12 -1124 1630.62 -1016.1 1622.45 -899.1 1565.62 -788 1402.62 -674.66 1173.62 -562 1148.62 -451 1334.62 -336 1283.62 -222 1344.62 -113 1544.62 0 1602.62 114.34 1627.62 226 1674.62 338.9 1627.62 454 1634.62 566 1686.62 678 1701.62 791 1620.12 903 1606.12 1014 1606.12 1127.83 1552.62 1127.83 1549.52 1014 1569.62 903 1683.62 791 1667.62 678 1607.62 566 1596.62 453.34 1617.62 339 1584.62 226 1562.62 114 1507.62 0 1304.62 -113.1 1225.62 -222.1 1236.97 -259.05 1264.87 -336 1082.62 -451 1084.2 -561.49 1323.62 -674 1500.47 -788.1 1573.62 -899 1600.62 -1016 1604.62 -1124 1569.62 -1235 1514.62 -1350 1447.62 -1464.1 1418.62 -1576 1404.62 -1687 1367.62 -1801 1397.62 -1914 1418.62 -2024.1 1339.62 -2137.1 1246.62 -2248.83 748.62 -2363.83 753.62 -2471.83 910.76 -2584.83 1053.62 -2694.83 1195.2 -2806.83 1311.62 -2921.66 1353.62 -3035.83 1348.62 -3146.83 1364.62 -3258.66 1406.62 -3373.83 1401.62 -3486.83 1429.62 -3591.83 1394.62 -3706.1 1393.2 -3819.83 1391.82 -3930.1 1437.52 -4044.83 1513.62 -4157.1 1505.64 -4266.83 1472.62 -4378.66 1447.62 -4490.83 1440.63 -4606.83 1462.62 -4719.83 1391.1 -4830.83 1348.62 -4942.83 1332.62 -5054.83 1376.98 -5164.83 1375.34 -5280.1 1373.74 -5392.1 1372.19 -5500.66" fill="none" stroke="#3b4351" stroke-miterlimit="10"/><polygon id="Chinese" points="1610.76 -5502.1 1609.69 -5615.1 1608.62 -5728.16 1585.12 -5838.83 1551.62 -5951.83 1509.12 -6065.83 1538.12 -6176.1 1586.62 -6288.1 1616.12 -6399.83 1645.62 -6514.1 1697.12 -6628.1 1714.62 -6739.16 1689.12 -6850.83 1700.12 -6964.83 1676.62 -7079.83 1650.62 -7192.16 1630.62 -7303.83 1620.62 -7414.33 1646.62 -7526.33 1667.62 -7638.99 1651.62 -7749.66 1633.99 -7861.66 1768.79 -7861.66 1768.79 339 1768.79 453.9 1766.12 566 1757.62 678 1736.12 790.9 1676.12 902.9 1661.12 1014 1663.62 1127.83 1606.12 1127.83 1606.12 1013.9 1620.12 903 1701.62 791 1696.12 677.84 1654.12 566 1681.62 454 1739.62 338.9 1748.62 225.84 1744.12 113.84 1685.62 0 1615.12 -110.66 1636.12 -222 1738.62 -336 1761.12 -451 1758.62 -562 1732.12 -674 1695.62 -788 1667.62 -899 1651.12 -1016 1650.12 -1124 1620.12 -1235 1585.62 -1350.1 1552.62 -1464.1 1535.12 -1576 1516.12 -1687.1 1476.12 -1801 1542.12 -1914 1625.62 -2024.16 1668.12 -2137.16 1666.12 -2248.83 1673.62 -2363.83 1653.62 -2471.83 1602.12 -2585.1 1534.12 -2695.1 1564.12 -2806.83 1598.12 -2921.1 1612.12 -3035.83 1611.01 -3147.1 1592.62 -3258.1 1609.25 -3373.83 1616.07 -3486.83 1553.62 -3591.83 1529.62 -3705.83 1528.62 -3820.1 1555.62 -3929.83 1612.12 -4044.83 1621.12 -4156.83 1587.12 -4266.83 1567.62 -4378.83 1576.62 -4490.83 1571.12 -4606.83 1584.62 -4720.1 1558.62 -4830.83 1545.62 -4943.1 1557.62 -5055.1 1599.62 -5164.83 1625.12 -5280.1 1613.62 -5392.1 1610.76 -5502.1" fill="none" stroke="#3b4351" stroke-miterlimit="10"/><polygon id="Denmark" points="916.62 1127.83 927.62 1127.83 926.37 1014 701.12 903 690.87 791 683.87 678 637.87 566 522.37 454 457.37 339 426.62 226 299.62 114 273.62 0 281.62 -113 289.12 -222 302.12 -336 296.87 -451 275.62 -562 253.62 -674 226.62 -788 210.62 -899 199.62 -1124 199.37 -1235 291.37 -1350 277.29 -1464 235.95 -1576 188.87 -1687 180.62 -1801 142.62 -1914 139.95 -2023.83 120.62 -2136.83 99.95 -2248.83 73.12 -2363.83 90.34 -2248.83 107.12 -2136.83 118.37 -2023.83 120.37 -1914 122.62 -1801 125.87 -1687 158.37 -1576 185.87 -1464 183.62 -1350 127.62 -1235 119.62 -1124 119.12 -1016 156.87 -899 188.62 -788 212.62 -674 252.37 -562 277.87 -451 283.37 -336 267.12 -222 248.87 -113 213.87 0 234.37 114 312.12 226 398.12 339 458.87 454 593.37 566 637.87 678 674.12 791 691.37 903 915.37 1014 916.62 1127.83" fill="none" stroke="#3b4351" stroke-miterlimit="10"/><polygon id="Norway" points="213.87 0 222.62 -113 243.95 -222 258.95 -336 252.95 -451 220.95 -562 186.86 -674 160.95 -788 133.28 -899 96.28 -1016 84.28 -1124 89.28 -1235 120.28 -1350 98.62 -1464 94.28 -1576 91.95 -1687 95.28 -1801 99.62 -1914 96.58 -2023.83 93.44 -2136.83 90.34 -2248.83 107.12 -2136.83 118.37 -2023.83 120.37 -1914 122.62 -1801 125.87 -1687 158.37 -1576 185.87 -1464 183.62 -1350 127.62 -1235 119.62 -1124 119.12 -1016 156.87 -899 188.62 -788 212.62 -674 252.37 -562 277.87 -451 283.37 -336 267.12 -222 248.87 -113 213.87 0" fill="none" stroke="#3b4351" stroke-miterlimit="10"/><polygon id="England" points="874.62 1127.83 688.95 1127.83 687.95 1014 439.12 903 252.12 791 159.62 678 111.62 566 93.62 454 86.12 339 84.62 226 86.95 114 98.28 0 116.95 -113 114.62 -222 122.62 -336 120.62 -451 108.28 -562 100.16 -674 107.95 -788 107.95 -899 77.28 -1016 73.12 -2363.83 90.34 -2248.83 93.44 -2136.83 96.58 -2023.83 99.62 -1914 91.95 -1687 94.28 -1576 98.62 -1464 120.28 -1350 89.28 -1235 84.28 -1124 96.28 -1016 133.28 -899 160.95 -788 172.95 -674 208.95 -562 223.62 -451 228.28 -336 211.62 -222 201.62 -113 189.95 0 193.28 114 235.28 226 248.62 339 348.62 454 562.62 566 622.12 678 602.12 791 652.12 903 872.95 1014 874.62 1127.83" fill="none" stroke="#3b4351" stroke-miterlimit="10"/><polygon id="South_America" data-name="South America" points="108.28 -562 120.62 -451 122.62 -336 114.62 -222 116.95 -113 98.28 0 86.95 114 84.62 226 79.62 339 82.62 454 87.62 566 107.62 678 145.12 791 167.12 903 198.12 1014 200.12 1127.83 77.28 1127.83 77.28 -1016 107.95 -899 107.95 -788 100.16 -674 108.28 -562" fill="none" stroke="#3b4351" stroke-miterlimit="10"/><polygon id="France" points="674.34 226 785.95 338.67 815.95 454 963.28 566 1049.29 678 932.62 791 899.28 903 1099.75 1015 1102.12 1127.83 946.74 1127.83 946.24 1014 748.62 903 745.95 791 741.28 678 711.95 566 643.28 454 613.28 339 535.95 226 385.29 114 317.95 0 311.95 -113 310.62 -222 321.29 -336 314.62 -451 275.62 -562 253.62 -674 258.62 -785.33 325.29 -899 314.62 -1016 286.62 -1124 249.62 -1235 291.37 -1350 409.62 -1350 362.62 -1235 373.95 -1124 423.58 -1016 444.62 -899 381.95 -785.33 347.12 -674 361.29 -562 384.62 -451 391.95 -336 365.95 -222 379.95 -113 391.29 0 491.95 114 674.34 226" fill="none" stroke="#3b4351" stroke-miterlimit="10"/><polygon id="Franks_to_Holy_Roman_Empire" data-name="Franks to Holy Roman Empire" points="594.62 -674 505.62 -562 482.62 -451 599.12 -336 617.12 -222 639.62 -113 772.62 0 953.62 114 1131.62 226 1201.62 339 1109.12 454 1144.62 566 1249.12 678 1301.62 791 1217.12 903 1288.12 1014 1290.62 1127.83 1234.62 1127.83 1232.12 1014 1140.12 902.91 1137.62 791 1115.62 678 1053.62 566 973.12 454 1064.12 339 953.62 226 741.12 114 577.12 0 525.62 -113 418.62 -222 417.62 -336 407.62 -451 385.62 -562 406.62 -674 421.62 -784.33 466.62 -899 441.95 -1016 373.95 -1124 371.78 -1145.31 362.62 -1235 409.62 -1350 559.62 -1350 626.73 -1235 742.62 -1124 897.74 -1016 874.62 -899 818.62 -787.4 594.62 -674" fill="none" stroke="#3b4351" stroke-miterlimit="10"/><polygon points="703.28 -1235 815.28 -1124 966.12 -1016 987.12 -899 1028.12 -788 932.12 -674 729.62 -562 630.12 -451 721.12 -336 711.95 -222 829.93 -113 854.62 0 1030.37 114 1169.87 226 1257.37 339 1158.4 454 1196.12 566 1147.62 454 1238.87 339 1162.87 226 1022.62 114 841.12 0 809.62 -113 692.62 -222 689.38 -336 586.62 -451 584.12 -562 663.53 -674 851.12 -788 874.62 -899 897.74 -1016 742.62 -1124 626.73 -1235 559.62 -1350 644.62 -1350 703.28 -1235" fill="none" stroke="#3b4351" stroke-miterlimit="10"/><polygon id="Holland" points="613.28 339 643.28 454 711.95 566 741.28 678 729.95 791 732.62 903 935.28 1014 937.12 1127.83 927.62 1127.83 926.37 1014 701.12 903 690.87 791 683.87 678 637.87 566 522.37 454 457.37 339 426.62 226 299.62 114 273.62 0 281.62 -113 289.12 -222 302.12 -336 296.87 -451 275.62 -562 314.62 -451 321.29 -336 310.62 -222 311.95 -113 317.95 0 385.29 114 535.95 226 613.28 339" fill="none" stroke="#3b4351" stroke-miterlimit="10"/><polygon id="Sweden" points="691.37 903 673.95 903 893.62 1014 895.28 1127.83 874.62 1127.83 872.95 1014 652.12 903 602.12 791 622.12 678 562.62 566 348.62 454 248.62 339 235.28 226 193.28 114 189.95 0 201.62 -113 211.62 -222 228.28 -336 223.62 -451 208.95 -562 172.95 -674 160.95 -788 186.86 -674 220.95 -562 252.95 -451 258.95 -336 243.95 -222 222.62 -113 213.87 0 234.37 114 312.12 226 398.12 339 458.87 454 593.37 566 637.87 678 674.12 791 691.37 903" fill="none" stroke="#3b4351" stroke-miterlimit="10"/><polygon points="1523.12 678.84 1446.62 566 1405.12 454.56 1442.62 339 1396.62 226 1391.62 114 1351.62 0 1183.62 -113 1092.62 -222 1124.29 -336 970.62 -451 1005.12 -562 1166.62 -674 1313.55 -785.05 1315.29 -785 1317.44 -788 1317.44 -788 1317.44 -788 1397.29 -899 1463.95 -1016 1481.95 -1124 1488.62 -1235 1453.62 -1350 1382.62 -1235 1328.62 -1124 1225.12 -1016 1161.29 -899 1218.62 -788 1218.62 -788 1218.62 -788 1131.95 -674 936.62 -562 798.62 -451 819.28 -336 759.95 -222 849.28 -113 947.12 0 1111.12 114 1208.62 226 1293.62 339 1244.12 454.56 1280.62 566 1381.12 678 1410.62 791 1358.62 903 1436.62 1014 1436.62 1127.83 1467.62 1127.83 1467.62 1014 1423.62 903 1492.62 791 1523.12 678.84" fill="none" stroke="#3b4351" stroke-miterlimit="10"/><polygon id="Spain" points="1117.95 1015.41 1119.29 1127.83 1102.12 1127.83 1099.75 1015 899.28 903 932.62 791 1049.29 678 963.28 566 815.95 454 785.95 338.67 674.34 226 491.95 114 391.29 0 379.95 -113 365.95 -222 391.95 -336 384.62 -451 361.29 -562 347.12 -674 383.43 -788 444.62 -899 423.58 -1016 373.95 -1124 441.95 -1016 466.62 -899 423.06 -788 406.62 -674 385.62 -562 407.62 -451 417.62 -336 401.95 -222 463.29 -113 491.29 0 631.28 114.42 844.62 226 937.12 340.34 922.62 454 997.95 566 1065.62 678 1035.29 791 959.28 903 1117.95 1015.41" fill="none" stroke="#3b4351" stroke-miterlimit="10"/><polygon id="Portugal" points="946.95 454 1015.62 566 1078.95 678 1052.2 791 969.62 903 1125.62 1014 1126.95 1127.83 1119.29 1127.83 1117.95 1015.41 959.28 903 1035.29 791 1065.62 678 997.95 566 922.62 454 937.12 340.34 844.62 226 631.28 114.42 491.29 0 463.29 -113 401.95 -222 417.62 -336 418.62 -222 525.62 -113 577.12 0 741.12 114 953.62 226 1064.12 339 946.95 454" fill="none" stroke="#3b4351" stroke-miterlimit="10"/><polygon id="Hungary" points="753.62 -113 797.62 0 970.62 114 1131.62 226 953.62 114 772.62 0 639.62 -113 617.12 -222 599.12 -336 482.62 -451 505.62 -562 505.62 -451 610.34 -336 632.89 -222 753.62 -113" fill="none" stroke="#3b4351" stroke-miterlimit="10"/><polygon id="Italy" points="586.62 -451 689.38 -336 692.62 -222 809.62 -113 841.12 0 1022.62 114 1162.87 226 1238.87 339 1147.62 454 1196.12 566 1326.62 678.84 1351.29 791 1294.95 903 1361.29 1014 1361.29 1127.83 1303.29 1127.83 1300.29 1014 1229.95 903 1317.95 791 1262.95 678.84 1153.29 566 1109.12 454 1201.62 339 1131.62 226 970.62 114 797.62 0 753.62 -113 632.89 -222 610.34 -336 505.62 -451 505.62 -562 594.62 -674 818.62 -787.4 874.62 -899 851.12 -788 663.53 -674 584.12 -562 586.62 -451" fill="none" stroke="#3b4351" stroke-miterlimit="10"/><polygon id="Russia" points="1552.62 1127.83 1467.62 1127.83 1467.62 1014 1423.62 903 1492.62 791 1523.12 678.84 1471.87 566 1443.87 454 1536.12 339.34 1518.87 226 1513.87 114 1454.87 0 1270.87 -113 1200.12 -222 1264.87 -336 1225.62 -222.1 1304.62 -113.1 1507.62 0 1562.62 114 1584.62 226 1617.62 339 1596.62 453.34 1607.62 566 1667.62 678 1683.62 791 1569.62 903 1549.52 1014 1552.62 1127.83" fill="none" stroke="#3b4351" stroke-miterlimit="10"/><polygon id="POland" points="1518.87 226 1536.12 339.34 1443.87 454 1471.87 566 1523.12 678.84 1446.62 566 1405.12 454.56 1442.62 339 1396.62 226 1391.62 114 1351.62 0 1183.62 -113 1155.87 -222 1195.12 -336 1027.37 -451 1026.12 -562 1082.62 -451 1264.87 -336 1200.12 -222 1270.87 -113 1454.87 0 1513.87 114 1518.87 226" fill="none" stroke="#3b4351" stroke-miterlimit="10"/><polygon id="Mogolians" points="1334.62 -336 1148.62 -451 1173.62 -562 1402.62 -674.66 1565.62 -788 1622.45 -899.1 1630.62 -1016.1 1650.12 -1124 1651.12 -1016 1667.62 -899 1695.62 -788 1732.12 -674 1758.62 -562 1761.12 -451 1738.62 -336 1636.12 -222 1615.56 -113 1685.62 0 1744.12 113.84 1748.42 228.28 1739.62 338.9 1681.62 454 1654.12 566 1696.12 677.84 1701.62 791 1686.62 678 1634.62 566 1627.62 454 1674.62 338.9 1627.62 226 1602.62 114.34 1544.62 0 1344.62 -113 1283.62 -222 1334.62 -336" fill="none" stroke="#3b4351" stroke-miterlimit="10"/><polygon points="1111.12 114 1208.62 226 1293.62 339 1244.12 454.56 1280.62 566 1381.12 678 1410.62 791 1358.62 903 1436.62 1014 1436.62 1127.83 1425.29 1127.83 1424.62 1014 1347.62 903 1385.95 791 1326.62 678.84 1196.12 566 1158.4 454 1257.37 339 1169.87 226 1030.37 114 854.62 0 849.28 -113 947.12 0 1111.12 114" fill="none" stroke="#3b4351" stroke-miterlimit="10"/></g><g id="Text"><g id="Poland-2" data-name="Poland"><path d="M1372.43,14.67H1378c3.36,0,4.83,2.11,4.83,5.1s-1.86,5.17-5.12,5.17h-2.45v7.23h-2.79Zm2.79,8.16h2c1.5,0,2.8-.79,2.8-3,0-1.89-.76-3-3-3h-1.79Z" fill="#3b4351"/><path d="M1384.26,23.42c0-6.25,1.76-9.09,5.78-9.09s5.79,2.84,5.79,9.09-1.77,9.09-5.79,9.09S1384.26,29.67,1384.26,23.42Zm8.77-.08c0-5.88-1.32-6.91-3-6.91s-3,1-3,6.91,1.33,7.06,3,7.06S1393,29.35,1393,23.34Z" fill="#3b4351"/><path d="M1398,14.67h2.79V29.81h6.77v2.36H1398Z" fill="#3b4351"/><path d="M1412.48,14.67h3.58l4.61,17.5h-2.92l-1.08-4.29h-5.12l-1.12,4.29h-2.92Zm3.73,11-2-8.63h0l-2.08,8.63Z" fill="#3b4351"/><path d="M1421.89,14.67h3.41l5.07,13h.05v-13h2.65v17.5h-3.41l-5.07-13.38h0V32.17h-2.65Z" fill="#3b4351"/><path d="M1436,14.67h5c5.49,0,6.17,3.58,6.17,8.75s-.68,8.75-6.17,8.75h-5Zm2.8,15.39h2.3c2.3,0,3.26-1.52,3.26-6.64,0-4.93-.83-6.64-3.26-6.64h-2.3Z" fill="#3b4351"/></g><g id="Persia"><path d="M1027.81,90h5.54c3.35,0,4.82,2.1,4.82,5.09s-1.86,5.17-5.12,5.17h-2.45v7.23h-2.79Zm2.79,8.16h2c1.49,0,2.79-.79,2.79-3,0-1.88-.76-3-3-3h-1.79Z" fill="#3b4351"/><path d="M1040.06,90h9.46v2.35h-6.67V97.2h6.27v2.35h-6.27v5.59h6.86v2.35h-9.65Z" fill="#3b4351"/><path d="M1051.84,90H1058c2.45,0,4.43,1.25,4.43,4.5,0,2.26-1,4-2.91,4.29v0c1.76.17,2.64,1.13,2.74,3.58,0,1.15,0,2.5.1,3.55a1.89,1.89,0,0,0,.83,1.52h-3.16a2.9,2.9,0,0,1-.46-1.54c0-.52-.08-1-.08-1.57s0-1.1,0-1.74c-.07-1.91-.66-2.74-2.55-2.74h-2.27v7.59h-2.8Zm5,7.79a2.58,2.58,0,0,0,2.79-2.84c0-1.87-.78-2.85-2.65-2.85h-2.37v5.69Z" fill="#3b4351"/><path d="M1067.15,102.08v.44c0,2.13,1,3.21,2.87,3.21a2.51,2.51,0,0,0,2.65-2.55c0-1.84-.93-2.65-2.5-3.11l-1.91-.66c-2.55-1-3.65-2.31-3.65-4.81,0-3.18,2.18-4.95,5.44-4.95,4.48,0,5,2.8,5,4.61v.39h-2.8v-.36c0-1.6-.68-2.53-2.45-2.53a2.23,2.23,0,0,0-2.35,2.53c0,1.49.76,2.25,2.62,3l1.89.69c2.47.88,3.55,2.2,3.55,4.63,0,3.72-2.25,5.27-5.78,5.27-4.34,0-5.32-2.9-5.32-5.35v-.41Z" fill="#3b4351"/><path d="M1077.59,90h2.8v17.49h-2.8Z" fill="#3b4351"/><path d="M1086.46,90H1090l4.6,17.49h-2.91l-1.08-4.28h-5.12l-1.13,4.28h-2.92Zm3.72,11-2-8.62h0L1086,101Z" fill="#3b4351"/></g><g id="Holy_Roman_Empire_to_Austria" data-name="Holy Roman Empire to Austria"><path d="M700.34,46.15h5.54c3.36,0,4.83,2.11,4.83,5.1s-1.87,5.17-5.12,5.17h-2.46v7.23h-2.79Zm2.79,8.16h2c1.49,0,2.79-.78,2.79-3,0-1.89-.76-3-3-3h-1.79Z" fill="#3b4351"/><path d="M712.42,50.46h2.65v2.06h0a3.24,3.24,0,0,1,3.06-2.4,1.59,1.59,0,0,1,.64.1v2.69a3.94,3.94,0,0,0-1.11-.14c-1.2,0-2.64.54-2.64,3v7.89h-2.65Z" fill="#3b4351"/><path d="M719.62,57.06c0-4.12,1.08-6.94,4.9-6.94s4.93,2.82,4.93,6.94S728.17,64,724.52,64,719.62,61.17,719.62,57.06Zm4.9,5c1.94,0,2.28-1.62,2.28-5,0-2.92-.34-5-2.28-5s-2.25,2.06-2.25,5C722.27,60.41,722.64,62,724.52,62Z" fill="#3b4351"/><path d="M730.3,50.46h1.82V46.71h2.64v3.75h2.16v2h-2.16v7.87c0,1.05.3,1.4,1.2,1.4a4.84,4.84,0,0,0,1-.08v2a8.44,8.44,0,0,1-2.13.22c-1.77,0-2.67-.51-2.67-3.18V52.42H730.3Z" fill="#3b4351"/><path d="M740.57,57.4v.76c0,1.76.22,4,2.21,4s2.1-2.13,2.1-2.94h2.5c0,3-1.76,4.75-4.63,4.75-2.16,0-4.83-.64-4.83-6.74,0-3.45.76-7.13,4.88-7.13,3.68,0,4.66,2.23,4.66,5.88v1.4Zm4.24-1.81v-.72c0-1.66-.54-2.94-2-2.94-1.67,0-2.21,1.67-2.21,3.39v.27Z" fill="#3b4351"/><path d="M755.32,54.31V54c0-1.06-.37-2-1.74-2-1.05,0-1.89.47-1.89,1.72,0,1.05.47,1.45,1.87,1.94l1.69.58c2,.67,2.86,1.72,2.86,3.8,0,2.82-2.08,4-4.73,4-3.33,0-4.33-1.54-4.33-4.09v-.49h2.35v.42c0,1.54.51,2.35,2.06,2.35s2.15-.74,2.15-1.94a1.9,1.9,0,0,0-1.44-1.93L752,57.55c-2-.67-2.82-1.69-2.82-3.8,0-2.48,1.77-3.63,4.51-3.63,3.36,0,4.12,2,4.12,3.6v.59Z" fill="#3b4351"/><path d="M758.9,50.46h1.81V46.71h2.65v3.75h2.15v2h-2.15v7.87c0,1.05.29,1.4,1.2,1.4a4.8,4.8,0,0,0,1-.08v2a8.44,8.44,0,0,1-2.13.22c-1.76,0-2.67-.51-2.67-3.18V52.42H758.9Z" fill="#3b4351"/><path d="M775.53,60.9c0,.49.3.93.69.93a1,1,0,0,0,.44-.07v1.72a2.83,2.83,0,0,1-1.3.31c-1.17,0-2.16-.46-2.23-1.74h0A3.4,3.4,0,0,1,769.8,64c-2.13,0-3.43-1.15-3.43-3.7,0-2.94,1.3-3.55,3.06-4.14l2.06-.56c1-.27,1.54-.54,1.54-1.7s-.41-2-1.81-2c-1.76,0-2,1.25-2,2.53h-2.5c0-2.82,1.15-4.34,4.63-4.34,2.33,0,4.19.91,4.19,3.24ZM773,56.69a20,20,0,0,1-2.94,1.22A2.18,2.18,0,0,0,769,60.05c0,1.1.54,2,1.65,2,1.59,0,2.37-1.18,2.37-3.14Z" fill="#3b4351"/><path d="M778.23,50.46h2.5V52h.07a3.77,3.77,0,0,1,3.38-1.89c2,0,3.28.91,3.28,3.58v9.95h-2.64v-9c0-1.77-.47-2.38-1.84-2.38-1.08,0-2.11.81-2.11,2.57v8.85h-2.64Z" fill="#3b4351"/><path d="M788.83,50.46h1.82V46.71h2.64v3.75h2.16v2h-2.16v7.87c0,1.05.3,1.4,1.2,1.4a4.91,4.91,0,0,0,1-.08v2a8.44,8.44,0,0,1-2.13.22c-1.77,0-2.67-.51-2.67-3.18V52.42h-1.82Z" fill="#3b4351"/><path d="M738,73.15h6.18c2.45,0,4.43,1.25,4.43,4.51,0,2.25-1,4-2.91,4.29v0c1.76.17,2.65,1.12,2.74,3.58,0,1.15,0,2.49.1,3.55a1.92,1.92,0,0,0,.83,1.52h-3.16a2.94,2.94,0,0,1-.46-1.55c-.05-.51-.08-1-.08-1.56s0-1.11,0-1.74c-.08-1.92-.67-2.75-2.55-2.75h-2.28v7.6H738Zm5,7.79a2.57,2.57,0,0,0,2.79-2.84c0-1.86-.78-2.84-2.65-2.84h-2.37v5.68Z" fill="#3b4351"/><path d="M753.24,84.4v.76c0,1.76.22,4,2.2,4s2.11-2.13,2.11-2.94h2.5c0,3-1.76,4.75-4.63,4.75-2.16,0-4.83-.64-4.83-6.74,0-3.45.76-7.13,4.88-7.13,3.67,0,4.65,2.23,4.65,5.88v1.4Zm4.24-1.81v-.72c0-1.66-.54-2.94-2-2.94-1.66,0-2.2,1.67-2.2,3.39v.27Z" fill="#3b4351"/><path d="M763.11,79.42h-1.84v-2h1.84V76.24c0-2.48,1.2-3.28,3.36-3.28a11.83,11.83,0,0,1,1.44.07v2h-.73c-1,0-1.42.37-1.42,1.25v1.15h2.15v2h-2.15V90.65h-2.65Z" fill="#3b4351"/><path d="M768.6,84.06c0-4.12,1.08-6.94,4.9-6.94s4.93,2.82,4.93,6.94S777.15,91,773.5,91,768.6,88.17,768.6,84.06Zm4.9,5c1.94,0,2.28-1.62,2.28-5,0-2.92-.34-5-2.28-5s-2.25,2.06-2.25,5C771.25,87.41,771.61,89,773.5,89Z" fill="#3b4351"/><path d="M780.46,77.46h2.64v2.06h0a3.26,3.26,0,0,1,3.07-2.4,1.53,1.53,0,0,1,.63.1v2.69a3.8,3.8,0,0,0-1.1-.14c-1.2,0-2.65.54-2.65,3v7.89h-2.64Z" fill="#3b4351"/><path d="M788.54,77.46H791V79h.07a3.71,3.71,0,0,1,3.17-1.89,2.86,2.86,0,0,1,3.06,2,3.61,3.61,0,0,1,3.33-2c1.86,0,3.21,1,3.21,3.5v10h-2.65v-9c0-1.74-.51-2.38-1.59-2.38s-2.11.83-2.11,2.57v8.85h-2.64v-9c0-1.74-.52-2.38-1.62-2.38s-2.08.86-2.08,2.57v8.85h-2.65Z" fill="#3b4351"/><path d="M815.2,87.9c0,.49.29.93.68.93a1.06,1.06,0,0,0,.45-.07v1.72a2.86,2.86,0,0,1-1.3.31c-1.18,0-2.16-.46-2.23-1.74h0A3.41,3.41,0,0,1,809.46,91c-2.13,0-3.43-1.15-3.43-3.7,0-2.94,1.3-3.55,3.07-4.14l2.06-.56c1-.27,1.54-.54,1.54-1.7s-.42-2-1.81-2c-1.77,0-2,1.25-2,2.53h-2.5c0-2.82,1.15-4.34,4.63-4.34,2.33,0,4.19.91,4.19,3.24Zm-2.5-4.21a20.45,20.45,0,0,1-2.94,1.22,2.18,2.18,0,0,0-1.08,2.14c0,1.1.54,2,1.64,2,1.59,0,2.38-1.18,2.38-3.14Z" fill="#3b4351"/><path d="M816.72,77.46h1.81V73.71h2.65v3.75h2.15v2h-2.15v7.87c0,1,.29,1.4,1.2,1.4a4.8,4.8,0,0,0,1-.08v2a8.44,8.44,0,0,1-2.13.22c-1.76,0-2.67-.51-2.67-3.18V79.42h-1.81Z" fill="#3b4351"/><path d="M824.83,73h2.64V75.6h-2.64Zm0,4.5h2.64V90.65h-2.64Z" fill="#3b4351"/><path d="M829.63,84.06c0-4.12,1.07-6.94,4.9-6.94s4.92,2.82,4.92,6.94S838.18,91,834.53,91,829.63,88.17,829.63,84.06Zm4.9,5c1.93,0,2.28-1.62,2.28-5,0-2.92-.35-5-2.28-5s-2.26,2.06-2.26,5C832.27,87.41,832.64,89,834.53,89Z" fill="#3b4351"/><path d="M841.48,77.46H844V79h.08a3.77,3.77,0,0,1,3.38-1.89c2,0,3.28.91,3.28,3.58v10h-2.64v-9c0-1.77-.47-2.38-1.84-2.38-1.08,0-2.11.81-2.11,2.57v8.85h-2.65Z" fill="#3b4351"/></g></g></svg>