<svg xmlns="http://www.w3.org/2000/svg" viewBox="0 0 1847.91 113"><title>ce1500text</title><g id="YEARS"><g id="Right"><path d="M1796.39,61.61h3.79l4.89,18.56H1802l-1.14-4.55h-5.44l-1.19,4.55h-3.1Zm3.95,11.64-2.13-9.15h0L1796,73.25Z" fill="#3b4351"/><path d="M1806.48,76.74h3v3.43h-3Z" fill="#3b4351"/><path d="M1818.85,61.61h5.28c5.83,0,6.55,3.79,6.55,9.28s-.72,9.28-6.55,9.28h-5.28Zm3,16.32h2.44c2.45,0,3.46-1.61,3.46-7,0-5.23-.88-7-3.46-7h-2.44Z" fill="#3b4351"/><path d="M1832.37,76.74h3v3.43h-3Z" fill="#3b4351"/><path d="M1794.58,105.17V91.81h-3.82V89.88h.29c1.76,0,3.79-.44,4.34-2.75v-.37h2.16v18.41Z" fill="#3b4351"/><path d="M1805.63,101.06c0,1.07.52,2.4,2,2.4,2.78,0,2.94-3.65,2.94-6.35l-.08,0a3.79,3.79,0,0,1-3.59,2c-2.52,0-4.55-1.82-4.55-5.49,0-4.24,1.72-6.76,5.64-6.76,4.66,0,5.54,3.54,5.54,8.82,0,5.51-1,10-5.88,10-3.25,0-5-1.43-5-4.48Zm2.11-12.22c-1.8,0-2.45,1.8-2.45,4,0,2.58.76,4,2.45,4,2.18,0,2.55-1.9,2.55-4.11S1809.48,88.84,1807.74,88.84Z" fill="#3b4351"/><path d="M1815,100.21h2.81v.49a2.35,2.35,0,0,0,2.42,2.6c2.08,0,2.62-2,2.62-4.19s-.57-3.92-2.47-3.92a2.35,2.35,0,0,0-2.42,1.69l-2.62-.11.91-9.64h8.86v2.36h-6.65l-.6,4.84.05,0A4.06,4.06,0,0,1,1821,93c3.85,0,4.81,3.25,4.81,6.09,0,3.69-1.69,6.5-5.67,6.5-3.3,0-5.15-1.7-5.15-5Z" fill="#3b4351"/><path d="M1832.88,86.76c3.53,0,5.51,2.21,5.51,9.39s-2,9.39-5.51,9.39-5.51-2.22-5.51-9.39S1829.34,86.76,1832.88,86.76Zm0,16.7c2,0,2.55-2,2.55-7.31s-.55-7.31-2.55-7.31-2.55,2-2.55,7.31S1830.88,103.46,1832.88,103.46Z" fill="#3b4351"/></g><g id="left"><path d="M21.35,63.51h3.8L30,82.08H27L25.8,77.53H20.37l-1.2,4.55H16.08Zm4,11.65L23.18,66h-.06l-2.21,9.15Z" fill="#3b4351"/><path d="M31.44,78.65h3v3.43h-3Z" fill="#3b4351"/><path d="M43.82,63.51H49.1c5.82,0,6.55,3.8,6.55,9.28s-.73,9.29-6.55,9.29H43.82Zm3,16.33h2.45c2.44,0,3.46-1.61,3.46-7,0-5.22-.89-7-3.46-7H46.78Z" fill="#3b4351"/><path d="M57.34,78.65h3v3.43h-3Z" fill="#3b4351"/><path d="M19.55,107.08V93.71H15.73V91.79H16c1.77,0,3.8-.44,4.34-2.76v-.36h2.16v18.41Z" fill="#3b4351"/><path d="M30.6,103c0,1.07.52,2.39,2,2.39,2.78,0,2.94-3.64,2.94-6.34L35.43,99a3.76,3.76,0,0,1-3.58,2c-2.53,0-4.55-1.82-4.55-5.49,0-4.24,1.71-6.76,5.64-6.76,4.65,0,5.54,3.54,5.54,8.81,0,5.52-1,10-5.88,10-3.25,0-5-1.43-5-4.47Zm2.1-12.22c-1.79,0-2.44,1.79-2.44,4,0,2.58.75,4,2.44,4,2.19,0,2.55-1.9,2.55-4.11S34.45,90.75,32.7,90.75Z" fill="#3b4351"/><path d="M40,102.11h2.8v.5a2.36,2.36,0,0,0,2.42,2.6c2.08,0,2.63-2,2.63-4.19s-.57-3.93-2.47-3.93a2.36,2.36,0,0,0-2.42,1.69l-2.63-.1L41.2,89h8.87V91.4H43.41l-.59,4.84,0,.05A4,4,0,0,1,46,94.86c3.85,0,4.81,3.25,4.81,6.08,0,3.69-1.69,6.5-5.67,6.5-3.3,0-5.14-1.69-5.14-4.94Z" fill="#3b4351"/><path d="M57.84,88.67c3.54,0,5.52,2.21,5.52,9.38s-2,9.39-5.52,9.39-5.51-2.21-5.51-9.39S54.31,88.67,57.84,88.67Zm0,16.69c2,0,2.55-2,2.55-7.31s-.54-7.3-2.55-7.3-2.54,2-2.54,7.3S55.84,105.36,57.84,105.36Z" fill="#3b4351"/></g></g><g id="Nation_OUtlines" data-name="Nation OUtlines"><polygon id="Romans" points="854.62 113 829.93 0 711.95 -109 764.62 -223 729.95 -338 845.28 -449 1002.62 -561 1065.29 -675 1021.28 -786 995.34 -903 815.28 -1011 703.28 -1122 687.28 -1237 737.95 -1351 780.62 -1463 712.62 -1574 645.95 -1688 550.62 -1801 491.95 -1910.83 453.95 -2023.83 455.29 -2135.83 435.95 -2250.83 470.62 -2358.83 322.62 -2358.83 416.12 -2471.83 480.12 -2581.83 410.62 -2693.83 316.95 -2807.83 248.28 -2922.83 210.28 -3033.83 175.95 -3144.83 159.62 -3260.83 91.28 -3373.83 83.12 -3478.83 117.62 -3592.83 151.37 -3706.83 129.62 -3816.83 109.62 -3931.83 99.62 -4043.83 73.12 -4153.83 75.42 -5051.83 85.95 -4941.83 95.28 -4829.83 111.95 -4717.83 116.62 -4606.83 137.95 -4493.83 149.95 -4377.83 169.95 -4265.83 205.28 -4153.83 231.95 -4043.83 287.74 -3931.83 467.73 -3816.83 683.72 -3706.83 998.71 -3592.83 1118.7 -3478.83 1131.14 -3373.83 1195.2 -3260.83 1182.62 -3144.83 1245.62 -3033.83 1220.62 -2922.83 1122.62 -2807.83 981.62 -2693.83 880.12 -2581.83 717.95 -2471.83 593.62 -2358.83 616.62 -2250.83 717.28 -2135.83 839.28 -2020.99 863.28 -1910.83 915.28 -1801 810.62 -1688 885.95 -1574 1037.95 -1463 1125.95 -1351 1253.95 -1237 1213.95 -1122 1202.62 -1011 1169.95 -903 1161.29 -786 1218.62 -675 1131.95 -561 936.62 -449 798.62 -338 819.28 -223 759.95 -109 849.28 0 854.62 113" fill="none" stroke="#3b4351" stroke-miterlimit="10"/><polygon id="Indians" points="1372.19 -5387.66 1294.19 -5501.83 1285.19 -5614.83 1313.69 -5725.83 1348.19 -5838.83 1310.69 -5952.83 1298.69 -6062.83 1313.69 -6174.83 1345.19 -6286.83 1325.69 -6400.83 1343.69 -6514.83 1417.19 -6625.83 1400.69 -6738.91 1429.19 -6851.83 1419.27 -6967.1 1387.19 -7078.83 1387.19 -7190.83 1438.19 -7301.33 1462.18 -7413.33 1480.18 -7526.37 1445.82 -7636.66 1411.11 -7748.66 1545.86 -7748.66 1580.1 -7636.66 1593.12 -7526.43 1552.12 -7413.33 1514.62 -7301.33 1514.12 -7191.16 1553.12 -7079.1 1548.12 -6966.83 1519.62 -6851.83 1534.12 -6738.16 1575.12 -6625.83 1559.62 -6514.83 1564.12 -6401.1 1534.62 -6286.83 1486.12 -6174.83 1465.12 -6062.83 1471.12 -5953.66 1502.12 -5839.66 1508.12 -5725.83 1534.62 -5614.83 1542.77 -5535.97 1555.62 -5387.66 1554.62 -5278.83 1567.12 -5166.83 1542.12 -5052.1 1498.12 -4941.83 1490.62 -4829.83 1513.12 -4717.83 1568.62 -4606.83 1544.12 -4493.83 1530.62 -4378.1 1523.62 -4266.1 1532.62 -4153.83 1565.12 -4043.83 1543.62 -3931.83 1514.12 -3816.83 1490.12 -3707.1 1495.62 -3592.83 1517.12 -3479.16 1528.12 -3373.83 1580.62 -3261.16 1578.12 -3145.16 1578.12 -3034.66 1560.12 -2923.1 1526.62 -2807.83 1467.62 -2693.83 1381.62 -2582.1 1270.62 -2471.83 1090.12 -2359.1 860.62 -2250.83 1302.12 -2135.83 1377.03 -2023.83 1550.62 -1910.83 1519.62 -1801 1476.12 -1688 1516.13 -1574 1534.62 -1461.66 1552.65 -1351 1585.62 -1237.1 1620.12 -1122 1650.12 -1011 1630.62 -903.1 1622.45 -786.1 1565.62 -675 1402.62 -561.66 1173.62 -449 1148.62 -338 1334.62 -223 1283.62 -109 1344.62 0 1544.62 113 1602.62 227.34 1627.62 339 1674.62 451.9 1627.62 567 1634.62 679 1686.62 791 1701.62 904 1620.12 1016 1606.12 1127 1606.12 1240.83 1552.62 1240.83 1549.52 1127 1569.62 1016 1683.62 904 1667.62 791 1607.62 679 1596.62 566.34 1617.62 452 1584.62 339 1562.62 227 1507.62 113 1304.62 -0.1 1225.62 -109.1 1236.97 -146.05 1264.87 -223 1082.62 -338 1084.2 -448.49 1323.62 -561 1500.47 -675.1 1573.62 -786 1600.62 -903 1604.62 -1011 1569.62 -1122 1514.62 -1237 1447.62 -1351.1 1418.62 -1463 1404.62 -1574 1367.62 -1688 1397.62 -1801 1418.62 -1911.1 1339.62 -2024.1 1246.62 -2135.83 748.62 -2250.83 753.62 -2358.83 910.76 -2471.83 1053.62 -2581.83 1195.2 -2693.83 1311.62 -2808.66 1353.62 -2922.83 1348.62 -3033.83 1364.62 -3145.66 1406.62 -3260.83 1401.62 -3373.83 1429.62 -3478.83 1394.62 -3593.1 1393.2 -3706.83 1391.82 -3817.1 1437.52 -3931.83 1513.62 -4044.1 1505.64 -4153.83 1472.62 -4265.66 1447.62 -4377.83 1440.63 -4493.83 1462.62 -4606.83 1391.1 -4717.83 1348.62 -4829.83 1332.62 -4941.83 1376.98 -5051.83 1375.34 -5167.1 1373.74 -5279.1 1372.19 -5387.66" fill="none" stroke="#3b4351" stroke-miterlimit="10"/><polygon id="Chinese" points="1610.76 -5389.1 1609.69 -5502.1 1608.62 -5615.16 1585.12 -5725.83 1551.62 -5838.83 1509.12 -5952.83 1538.12 -6063.1 1586.62 -6175.1 1616.12 -6286.83 1645.62 -6401.1 1697.12 -6515.1 1714.62 -6626.16 1689.12 -6737.83 1700.12 -6851.83 1676.62 -6966.83 1650.62 -7079.16 1630.62 -7190.83 1620.62 -7301.33 1646.62 -7413.33 1667.62 -7525.99 1651.62 -7636.66 1633.99 -7748.66 1768.79 -7748.66 1768.79 452 1768.79 566.9 1766.12 679 1757.62 791 1736.12 903.9 1676.12 1015.9 1661.12 1127 1663.62 1240.83 1606.12 1240.83 1606.12 1126.9 1620.12 1016 1701.62 904 1696.12 790.84 1654.12 679 1681.62 567 1739.62 451.9 1748.62 338.84 1744.12 226.84 1685.62 113 1615.12 2.34 1636.12 -109 1738.62 -223 1761.12 -338 1758.62 -449 1732.12 -561 1695.62 -675 1667.62 -786 1651.12 -903 1650.12 -1011 1620.12 -1122 1585.62 -1237.1 1552.62 -1351.1 1535.12 -1463 1516.12 -1574.1 1476.12 -1688 1542.12 -1801 1625.62 -1911.16 1668.12 -2024.16 1666.12 -2135.83 1673.62 -2250.83 1653.62 -2358.83 1602.12 -2472.1 1534.12 -2582.1 1564.12 -2693.83 1598.12 -2808.1 1612.12 -2922.83 1611.01 -3034.1 1592.62 -3145.1 1609.25 -3260.83 1616.07 -3373.83 1553.62 -3478.83 1529.62 -3592.83 1528.62 -3707.1 1555.62 -3816.83 1612.12 -3931.83 1621.12 -4043.83 1587.12 -4153.83 1567.62 -4265.83 1576.62 -4377.83 1571.12 -4493.83 1584.62 -4607.1 1558.62 -4717.83 1545.62 -4830.1 1557.62 -4942.1 1599.62 -5051.83 1625.12 -5167.1 1613.62 -5279.1 1610.76 -5389.1" fill="none" stroke="#3b4351" stroke-miterlimit="10"/><polygon id="Denmark" points="916.62 1240.83 927.62 1240.83 926.37 1127 701.12 1016 690.87 904 683.87 791 637.87 679 522.37 567 457.37 452 426.62 339 299.62 227 273.62 113 281.62 0 289.12 -109 302.12 -223 296.87 -338 275.62 -449 253.62 -561 226.62 -675 210.62 -786 199.62 -1011 199.37 -1122 291.37 -1237 277.29 -1351 235.95 -1463 188.87 -1574 180.62 -1688 142.62 -1801 139.95 -1910.83 120.62 -2023.83 99.95 -2135.83 73.12 -2250.83 90.34 -2135.83 107.12 -2023.83 118.37 -1910.83 120.37 -1801 122.62 -1688 125.87 -1574 158.37 -1463 185.87 -1351 183.62 -1237 127.62 -1122 119.62 -1011 119.12 -903 156.87 -786 188.62 -675 212.62 -561 252.37 -449 277.87 -338 283.37 -223 267.12 -109 248.87 0 213.87 113 234.37 227 312.12 339 398.12 452 458.87 567 593.37 679 637.87 791 674.12 904 691.37 1016 915.37 1127 916.62 1240.83" fill="none" stroke="#3b4351" stroke-miterlimit="10"/><polygon id="Norway" points="213.87 113 222.62 0 243.95 -109 258.95 -223 252.95 -338 220.95 -449 186.86 -561 160.95 -675 133.28 -786 96.28 -903 84.28 -1011 89.28 -1122 120.28 -1237 98.62 -1351 94.28 -1463 91.95 -1574 95.28 -1688 99.62 -1801 96.58 -1910.83 93.44 -2023.83 90.34 -2135.83 107.12 -2023.83 118.37 -1910.83 120.37 -1801 122.62 -1688 125.87 -1574 158.37 -1463 185.87 -1351 183.62 -1237 127.62 -1122 119.62 -1011 119.12 -903 156.87 -786 188.62 -675 212.62 -561 252.37 -449 277.87 -338 283.37 -223 267.12 -109 248.87 0 213.87 113" fill="none" stroke="#3b4351" stroke-miterlimit="10"/><polygon id="England" points="874.62 1240.83 688.95 1240.83 687.95 1127 439.12 1016 252.12 904 159.62 791 111.62 679 93.62 567 86.12 452 84.62 339 86.95 227 98.28 113 116.95 0 114.62 -109 122.62 -223 120.62 -338 108.28 -449 100.16 -561 107.95 -675 107.95 -786 77.28 -903 73.12 -2250.83 90.34 -2135.83 93.44 -2023.83 96.58 -1910.83 99.62 -1801 91.95 -1574 94.28 -1463 98.62 -1351 120.28 -1237 89.28 -1122 84.28 -1011 96.28 -903 133.28 -786 160.95 -675 172.95 -561 208.95 -449 223.62 -338 228.28 -223 211.62 -109 201.62 0 189.95 113 193.28 227 235.28 339 248.62 452 348.62 567 562.62 679 622.12 791 602.12 904 652.12 1016 872.95 1127 874.62 1240.83" fill="none" stroke="#3b4351" stroke-miterlimit="10"/><polygon id="South_America" data-name="South America" points="108.28 -449 120.62 -338 122.62 -223 114.62 -109 116.95 0 98.28 113 86.95 227 84.62 339 79.62 452 82.62 567 87.62 679 107.62 791 145.12 904 167.12 1016 198.12 1127 200.12 1240.83 77.28 1240.83 77.28 -903 107.95 -786 107.95 -675 100.16 -561 108.28 -449" fill="none" stroke="#3b4351" stroke-miterlimit="10"/><polygon id="France" points="674.34 339 785.95 451.67 815.95 567 963.28 679 1049.29 791 932.62 904 899.28 1016 1099.75 1128 1102.12 1240.83 946.74 1240.83 946.24 1127 748.62 1016 745.95 904 741.28 791 711.95 679 643.28 567 613.28 452 535.95 339 385.29 227 317.95 113 311.95 0 310.62 -109 321.29 -223 314.62 -338 275.62 -449 253.62 -561 258.62 -672.33 325.29 -786 314.62 -903 286.62 -1011 249.62 -1122 291.37 -1237 409.62 -1237 362.62 -1122 373.95 -1011 423.58 -903 444.62 -786 381.95 -672.33 347.12 -561 361.29 -449 384.62 -338 391.95 -223 365.95 -109 379.95 0 391.29 113 491.95 227 674.34 339" fill="none" stroke="#3b4351" stroke-miterlimit="10"/><polygon id="Franks_to_Holy_Roman_Empire" data-name="Franks to Holy Roman Empire" points="594.62 -561 505.62 -449 482.62 -338 599.12 -223 617.12 -109 639.62 0 772.62 113 953.62 227 1131.62 339 1201.62 452 1109.12 567 1144.62 679 1249.12 791 1301.62 904 1217.12 1016 1288.12 1127 1290.62 1240.83 1234.62 1240.83 1232.12 1127 1140.12 1015.91 1137.62 904 1115.62 791 1053.62 679 973.12 567 1064.12 452 953.62 339 741.12 227 577.12 113 525.62 0 418.62 -109 417.62 -223 407.62 -338 385.62 -449 406.62 -561 421.62 -671.33 466.62 -786 441.95 -903 373.95 -1011 371.78 -1032.31 362.62 -1122 409.62 -1237 559.62 -1237 626.73 -1122 742.62 -1011 897.74 -903 874.62 -786 818.62 -674.4 594.62 -561" fill="none" stroke="#3b4351" stroke-miterlimit="10"/><polygon points="703.28 -1122 815.28 -1011 966.12 -903 987.12 -786 1028.12 -675 932.12 -561 729.62 -449 630.12 -338 721.12 -223 711.95 -109 829.93 0 854.62 113 1030.37 227 1169.87 339 1257.37 452 1158.4 567 1196.12 679 1147.62 567 1238.87 452 1162.87 339 1022.62 227 841.12 113 809.62 0 692.62 -109 689.38 -223 586.62 -338 584.12 -449 663.53 -561 851.12 -675 874.62 -786 897.74 -903 742.62 -1011 626.73 -1122 559.62 -1237 644.62 -1237 703.28 -1122" fill="none" stroke="#3b4351" stroke-miterlimit="10"/><polygon id="Holland" points="613.28 452 643.28 567 711.95 679 741.28 791 729.95 904 732.62 1016 935.28 1127 937.12 1240.83 927.62 1240.83 926.37 1127 701.12 1016 690.87 904 683.87 791 637.87 679 522.37 567 457.37 452 426.62 339 299.62 227 273.62 113 281.62 0 289.12 -109 302.12 -223 296.87 -338 275.62 -449 314.62 -338 321.29 -223 310.62 -109 311.95 0 317.95 113 385.29 227 535.95 339 613.28 452" fill="none" stroke="#3b4351" stroke-miterlimit="10"/><polygon id="Sweden" points="691.37 1016 673.95 1016 893.62 1127 895.28 1240.83 874.62 1240.83 872.95 1127 652.12 1016 602.12 904 622.12 791 562.62 679 348.62 567 248.62 452 235.28 339 193.28 227 189.95 113 201.62 0 211.62 -109 228.28 -223 223.62 -338 208.95 -449 172.95 -561 160.95 -675 186.86 -561 220.95 -449 252.95 -338 258.95 -223 243.95 -109 222.62 0 213.87 113 234.37 227 312.12 339 398.12 452 458.87 567 593.37 679 637.87 791 674.12 904 691.37 1016" fill="none" stroke="#3b4351" stroke-miterlimit="10"/><polygon points="1523.12 791.84 1446.62 679 1405.12 567.56 1442.62 452 1396.62 339 1391.62 227 1351.62 113 1183.62 0 1092.62 -109 1124.29 -223 970.62 -338 1005.12 -449 1166.62 -561 1313.55 -672.05 1315.29 -672 1317.44 -675 1317.44 -675 1317.44 -675 1397.29 -786 1463.95 -903 1481.95 -1011 1488.62 -1122 1453.62 -1237 1382.62 -1122 1328.62 -1011 1225.12 -903 1161.29 -786 1218.62 -675 1218.62 -675 1218.62 -675 1131.95 -561 936.62 -449 798.62 -338 819.28 -223 759.95 -109 849.28 0 947.12 113 1111.12 227 1208.62 339 1293.62 452 1244.12 567.56 1280.62 679 1381.12 791 1410.62 904 1358.62 1016 1436.62 1127 1436.62 1240.83 1467.62 1240.83 1467.62 1127 1423.62 1016 1492.62 904 1523.12 791.84" fill="none" stroke="#3b4351" stroke-miterlimit="10"/><polygon id="Spain" points="1117.95 1128.41 1119.29 1240.83 1102.12 1240.83 1099.75 1128 899.28 1016 932.62 904 1049.29 791 963.28 679 815.95 567 785.95 451.67 674.34 339 491.95 227 391.29 113 379.95 0 365.95 -109 391.95 -223 384.62 -338 361.29 -449 347.12 -561 383.43 -675 444.62 -786 423.58 -903 373.95 -1011 441.95 -903 466.62 -786 423.06 -675 406.62 -561 385.62 -449 407.62 -338 417.62 -223 401.95 -109 463.29 0 491.29 113 631.28 227.41 844.62 339 937.12 453.34 922.62 567 997.95 679 1065.62 791 1035.29 904 959.28 1016 1117.95 1128.41" fill="none" stroke="#3b4351" stroke-miterlimit="10"/><polygon id="Portugal" points="946.95 567 1015.62 679 1078.95 791 1052.2 904 969.62 1016 1125.62 1127 1126.95 1240.83 1119.29 1240.83 1117.95 1128.41 959.28 1016 1035.29 904 1065.62 791 997.95 679 922.62 567 937.12 453.34 844.62 339 631.28 227.41 491.29 113 463.29 0 401.95 -109 417.62 -223 418.62 -109 525.62 0 577.12 113 741.12 227 953.62 339 1064.12 452 946.95 567" fill="none" stroke="#3b4351" stroke-miterlimit="10"/><polygon id="Hungary" points="753.62 0 797.62 113 970.62 227 1131.62 339 953.62 227 772.62 113 639.62 0 617.12 -109 599.12 -223 482.62 -338 505.62 -449 505.62 -338 610.34 -223 632.89 -109 753.62 0" fill="none" stroke="#3b4351" stroke-miterlimit="10"/><polygon id="Italy" points="586.62 -338 689.38 -223 692.62 -109 809.62 0 841.12 113 1022.62 227 1162.87 339 1238.87 452 1147.62 567 1196.12 679 1326.62 791.84 1351.29 904 1294.95 1016 1361.29 1127 1361.29 1240.83 1303.29 1240.83 1300.29 1127 1229.95 1016 1317.95 904 1262.95 791.84 1153.29 679 1109.12 567 1201.62 452 1131.62 339 970.62 227 797.62 113 753.62 0 632.89 -109 610.34 -223 505.62 -338 505.62 -449 594.62 -561 818.62 -674.4 874.62 -786 851.12 -675 663.53 -561 584.12 -449 586.62 -338" fill="none" stroke="#3b4351" stroke-miterlimit="10"/><polygon id="Serbia" points="1092.62 -109 1124.29 -223 970.62 -338 1026.12 -449 1027.37 -338 1195.12 -223 1155.87 -109 1183.62 0 1092.62 -109" fill="none" stroke="#3b4351" stroke-miterlimit="10"/><polygon id="Russia" points="1552.62 1240.83 1467.62 1240.83 1467.62 1127 1423.62 1016 1492.62 904 1523.12 791.84 1471.87 679 1443.87 567 1536.12 452.34 1518.87 339 1513.87 227 1454.87 113 1270.87 0 1200.12 -109 1264.87 -223 1225.62 -109.1 1304.62 -0.1 1507.62 113 1562.62 227 1584.62 339 1617.62 452 1596.62 566.34 1607.62 679 1667.62 791 1683.62 904 1569.62 1016 1549.52 1127 1552.62 1240.83" fill="none" stroke="#3b4351" stroke-miterlimit="10"/><polygon id="POland" points="1518.87 339 1536.12 452.34 1443.87 567 1471.87 679 1523.12 791.84 1446.62 679 1405.12 567.56 1442.62 452 1396.62 339 1391.62 227 1351.62 113 1183.62 0 1155.87 -109 1195.12 -223 1027.37 -338 1026.12 -449 1082.62 -338 1264.87 -223 1200.12 -109 1270.87 0 1454.87 113 1513.87 227 1518.87 339" fill="none" stroke="#3b4351" stroke-miterlimit="10"/><polygon id="Mogolians" points="1334.62 -223 1148.62 -338 1173.62 -449 1402.62 -561.66 1565.62 -675 1622.45 -786.1 1630.62 -903.1 1650.12 -1011 1651.12 -903 1667.62 -786 1695.62 -675 1732.12 -561 1758.62 -449 1761.12 -338 1738.62 -223 1636.12 -109 1615.56 0 1685.62 113 1744.12 226.84 1748.42 341.28 1739.62 451.9 1681.62 567 1654.12 679 1696.12 790.84 1701.62 904 1686.62 791 1634.62 679 1627.62 567 1674.62 451.9 1627.62 339 1602.62 227.34 1544.62 113 1344.62 0 1283.62 -109 1334.62 -223" fill="none" stroke="#3b4351" stroke-miterlimit="10"/><polygon points="1111.12 227 1208.62 339 1293.62 452 1244.12 567.56 1280.62 679 1381.12 791 1410.62 904 1358.62 1016 1436.62 1127 1436.62 1240.83 1425.29 1240.83 1424.62 1127 1347.62 1016 1385.95 904 1326.62 791.84 1196.12 679 1158.4 567 1257.37 452 1169.87 339 1030.37 227 854.62 113 849.28 0 947.12 113 1111.12 227" fill="none" stroke="#3b4351" stroke-miterlimit="10"/></g></svg>