<svg xmlns="http://www.w3.org/2000/svg" viewBox="0 0 1847.91 112"><title>ce1600text</title><g id="Text"><g id="France"><path d="M515.45,73.19h9.33v2.35h-6.54v4.85h6.15v2.35h-6.15v7.94h-2.79Z"/><path d="M526.79,73.19H533c2.45,0,4.44,1.25,4.44,4.5,0,2.26-1,4-2.92,4.29v0c1.77.17,2.65,1.13,2.75,3.58,0,1.15,0,2.5.1,3.55a1.89,1.89,0,0,0,.83,1.52H535a3,3,0,0,1-.47-1.54c0-.52-.07-1.06-.07-1.57s0-1.1-.05-1.74c-.07-1.91-.66-2.74-2.55-2.74h-2.28v7.59h-2.79Zm5,7.79a2.58,2.58,0,0,0,2.8-2.84c0-1.87-.79-2.85-2.65-2.85h-2.38V81Z"/><path d="M543.25,73.19h3.58l4.61,17.49h-2.92l-1.08-4.29h-5.12l-1.13,4.29h-2.91Zm3.73,11-2-8.62h-.05l-2.08,8.62Z"/><path d="M552.66,73.19h3.41l5.07,13h.05v-13h2.64V90.68h-3.4L555.36,77.3h-.05V90.68h-2.65Z"/><path d="M577.48,84.41v.37c0,3.16-1.3,6.25-5.39,6.25-4.41,0-5.78-2.85-5.78-9.1s1.37-9.09,5.8-9.09c5,0,5.27,3.65,5.27,5.49v.32h-2.79v-.29c0-1.65-.49-3.48-2.5-3.41s-3,1.27-3,6.91.91,7.06,3,7.06c2.35,0,2.6-2.57,2.6-4.22v-.29Z"/><path d="M579.44,73.19h9.46v2.35h-6.67v4.85h6.27v2.35h-6.27v5.59h6.86v2.35h-9.65Z"/></g><g id="SWEDEN"><path d="M245.51,93.33v.44c0,2.13,1,3.21,2.87,3.21A2.51,2.51,0,0,0,251,94.43c0-1.84-.93-2.64-2.5-3.11l-1.91-.66c-2.55-1-3.66-2.31-3.66-4.81,0-3.18,2.18-4.95,5.44-4.95,4.49,0,4.95,2.8,4.95,4.61v.39h-2.79v-.36c0-1.6-.69-2.53-2.45-2.53a2.23,2.23,0,0,0-2.35,2.53c0,1.49.76,2.25,2.62,3l1.89.69c2.47.88,3.55,2.2,3.55,4.63,0,3.72-2.25,5.27-5.78,5.27-4.34,0-5.32-2.89-5.32-5.34v-.42Z"/><path d="M254.77,81.25h2.82l2.3,13.6h.05l2.31-13.6h2.94l2.35,13.67h0l2.28-13.67h2.77l-3.48,17.49h-3.24l-2.25-13.18h-.05l-2.23,13.18h-3.24Z"/><path d="M274.23,81.25h9.45V83.6H277v4.85h6.27V90.8H277v5.59h6.86v2.35h-9.65Z"/><path d="M286,81.25h5c5.49,0,6.18,3.58,6.18,8.75s-.69,8.74-6.18,8.74h-5Zm2.79,15.39h2.31c2.3,0,3.26-1.52,3.26-6.64,0-4.93-.84-6.65-3.26-6.65H288.8Z"/><path d="M299.63,81.25h9.46V83.6h-6.66v4.85h6.27V90.8h-6.27v5.59h6.86v2.35h-9.66Z"/><path d="M311.42,81.25h3.4l5.07,13h.05v-13h2.65V98.74h-3.41l-5.07-13.38h-.05V98.74h-2.64Z"/></g></g><g id="YEARS"><g id="Right"><path d="M1787.94,106.56V93.2h-3.83V91.27h.29c1.77,0,3.8-.44,4.34-2.75v-.37h2.16v18.41Z"/><path d="M1803.56,92.63c0-1.07-.52-2.4-2-2.4-2.79,0-2.94,3.64-2.94,6.35l.08,0a3.75,3.75,0,0,1,3.58-1.95c2.53,0,4.55,1.82,4.55,5.49,0,4.23-1.76,6.76-5.64,6.76-4.65,0-5.54-3.54-5.54-8.82,0-5.51,1-10,5.88-10,3.25,0,5,1.43,5,4.48Zm-2.1,12.22c1.79,0,2.44-1.8,2.44-4,0-2.57-.75-4-2.44-4-2.19,0-2.55,1.89-2.55,4.11S1799.71,104.85,1801.46,104.85Z"/><path d="M1813.75,88.15c3.54,0,5.52,2.21,5.52,9.39s-2,9.39-5.52,9.39-5.51-2.21-5.51-9.39S1810.22,88.15,1813.75,88.15Zm0,16.7c2,0,2.55-2,2.55-7.31s-.54-7.31-2.55-7.31-2.54,2-2.54,7.31S1811.75,104.85,1813.75,104.85Z"/><path d="M1826.23,88.15c3.54,0,5.52,2.21,5.52,9.39s-2,9.39-5.52,9.39-5.51-2.21-5.51-9.39S1822.7,88.15,1826.23,88.15Zm0,16.7c2,0,2.55-2,2.55-7.31s-.55-7.31-2.55-7.31-2.55,2-2.55,7.31S1824.23,104.85,1826.23,104.85Z"/></g><g id="Layer_34" data-name="Layer 34"><path d="M28.19,110.16V96.8H24.37V94.87h.28c1.77,0,3.8-.44,4.34-2.75v-.37h2.16v18.41Z"/><path d="M43.81,96.22c0-1.06-.52-2.39-2-2.39-2.78,0-2.94,3.64-2.94,6.35l.08,0a3.75,3.75,0,0,1,3.58-2c2.53,0,4.55,1.82,4.55,5.48,0,4.24-1.76,6.77-5.64,6.77-4.65,0-5.54-3.54-5.54-8.82,0-5.51,1-10,5.88-10,3.25,0,5,1.43,5,4.47Zm-2.1,12.23c1.79,0,2.44-1.8,2.44-4,0-2.57-.75-4-2.44-4-2.19,0-2.55,1.9-2.55,4.11S40,108.45,41.71,108.45Z"/><path d="M54,91.75c3.54,0,5.52,2.21,5.52,9.39s-2,9.39-5.52,9.39-5.51-2.22-5.51-9.39S50.47,91.75,54,91.75Zm0,16.7c2,0,2.55-2,2.55-7.31S56,93.83,54,93.83s-2.54,2-2.54,7.31S52,108.45,54,108.45Z"/><path d="M66.48,91.75C70,91.75,72,94,72,101.14s-2,9.39-5.52,9.39S61,108.31,61,101.14,63,91.75,66.48,91.75Zm0,16.7c2,0,2.55-2,2.55-7.31s-.54-7.31-2.55-7.31-2.54,2-2.54,7.31S64.48,108.45,66.48,108.45Z"/></g></g></svg>