<svg xmlns="http://www.w3.org/2000/svg" viewBox="0 0 1847.91 113"><title>ce1650text</title><g id="YEARS"><g id="Right"><path d="M1792.5,108V94.61h-3.82V92.69h.28c1.77,0,3.8-.44,4.35-2.76v-.36h2.15V108Z" fill="#3b4351"/><path d="M1808.12,94c0-1.06-.52-2.39-2-2.39-2.78,0-2.94,3.64-2.94,6.34l.08.06a3.77,3.77,0,0,1,3.59-2c2.52,0,4.55,1.82,4.55,5.48,0,4.24-1.77,6.76-5.65,6.76-4.65,0-5.53-3.53-5.53-8.81,0-5.51,1-10,5.87-10,3.25,0,5,1.43,5,4.47Zm-2.1,12.22c1.79,0,2.44-1.79,2.44-4,0-2.57-.75-4-2.44-4-2.19,0-2.55,1.9-2.55,4.11S1804.28,106.26,1806,106.26Z" fill="#3b4351"/><path d="M1812.91,103h2.81v.5a2.35,2.35,0,0,0,2.41,2.6c2.08,0,2.63-2,2.63-4.19s-.57-3.93-2.47-3.93a2.36,2.36,0,0,0-2.42,1.69l-2.62-.1.91-9.65H1823V92.3h-6.65l-.6,4.84,0,0a4.06,4.06,0,0,1,3.09-1.43c3.85,0,4.81,3.25,4.81,6.08,0,3.69-1.69,6.5-5.66,6.5-3.31,0-5.15-1.69-5.15-4.94Z" fill="#3b4351"/><path d="M1830.8,89.57c3.53,0,5.51,2.21,5.51,9.39s-2,9.38-5.51,9.38-5.52-2.21-5.52-9.38S1827.26,89.57,1830.8,89.57Zm0,16.69c2,0,2.54-2,2.54-7.3s-.54-7.31-2.54-7.31-2.55,2-2.55,7.31S1828.79,106.26,1830.8,106.26Z" fill="#3b4351"/></g><g id="left"><path d="M17.46,109.88V96.52H13.64V94.6h.29c1.77,0,3.79-.45,4.34-2.76v-.36h2.16v18.4Z" fill="#3b4351"/><path d="M33.09,96c0-1.07-.52-2.39-2-2.39-2.78,0-2.93,3.64-2.93,6.34l.07,0a3.79,3.79,0,0,1,3.59-2c2.52,0,4.55,1.82,4.55,5.49,0,4.24-1.77,6.76-5.64,6.76-4.65,0-5.54-3.54-5.54-8.81,0-5.52,1-10,5.88-10,3.25,0,5,1.43,5,4.47ZM31,108.17c1.8,0,2.45-1.8,2.45-4,0-2.58-.76-4-2.45-4-2.18,0-2.54,1.9-2.54,4.11S29.24,108.17,31,108.17Z" fill="#3b4351"/><path d="M37.87,104.92h2.81v.49A2.35,2.35,0,0,0,43.1,108c2.08,0,2.63-2,2.63-4.18s-.58-3.93-2.48-3.93a2.35,2.35,0,0,0-2.41,1.69l-2.63-.1.91-9.65H48v2.37H41.33L40.73,99l.06,0a4.08,4.08,0,0,1,3.09-1.43c3.85,0,4.81,3.25,4.81,6.09,0,3.69-1.69,6.5-5.67,6.5-3.3,0-5.15-1.69-5.15-4.94Z" fill="#3b4351"/><path d="M55.76,91.48c3.54,0,5.51,2.21,5.51,9.38s-2,9.39-5.51,9.39-5.51-2.21-5.51-9.39S52.22,91.48,55.76,91.48Zm0,16.69c2,0,2.55-2,2.55-7.31s-.55-7.3-2.55-7.3-2.55,2-2.55,7.3S53.76,108.17,55.76,108.17Z" fill="#3b4351"/></g></g><g id="Nation_OUtlines" data-name="Nation OUtlines"><polygon id="Indians" points="1372.19 -5726.66 1294.19 -5840.83 1285.19 -5953.83 1313.69 -6064.83 1348.19 -6177.83 1310.69 -6291.83 1298.69 -6401.83 1313.69 -6513.83 1345.19 -6625.83 1325.69 -6739.83 1343.69 -6853.83 1417.19 -6964.83 1400.69 -7077.91 1429.19 -7190.83 1419.27 -7306.1 1387.19 -7417.83 1387.19 -7529.83 1438.19 -7640.33 1462.18 -7752.33 1480.18 -7865.37 1445.82 -7975.66 1411.11 -8087.66 1545.86 -8087.66 1580.1 -7975.66 1593.12 -7865.43 1552.12 -7752.33 1514.62 -7640.33 1514.12 -7530.16 1553.12 -7418.1 1548.12 -7305.83 1519.62 -7190.83 1534.12 -7077.16 1575.12 -6964.83 1559.62 -6853.83 1564.12 -6740.1 1534.62 -6625.83 1486.12 -6513.83 1465.12 -6401.83 1471.12 -6292.66 1502.12 -6178.66 1508.12 -6064.83 1534.62 -5953.83 1542.77 -5874.97 1555.62 -5726.66 1554.62 -5617.83 1567.12 -5505.83 1542.12 -5391.1 1498.12 -5280.83 1490.62 -5168.83 1513.12 -5056.83 1568.62 -4945.83 1544.12 -4832.83 1530.62 -4717.1 1523.62 -4605.1 1532.62 -4492.83 1565.12 -4382.83 1543.62 -4270.83 1514.12 -4155.83 1490.12 -4046.1 1495.62 -3931.83 1517.12 -3818.16 1528.12 -3712.83 1580.62 -3600.16 1578.12 -3484.16 1578.12 -3373.66 1560.12 -3262.1 1526.62 -3146.83 1467.62 -3032.83 1381.62 -2921.1 1270.62 -2810.83 1090.12 -2698.1 860.62 -2589.83 1302.12 -2474.83 1377.03 -2362.83 1550.62 -2249.83 1519.62 -2140 1476.12 -2027 1516.13 -1913 1534.62 -1800.66 1552.65 -1690 1585.62 -1576.1 1620.12 -1461 1650.12 -1350 1630.62 -1242.1 1622.45 -1125.1 1565.62 -1014 1402.62 -900.66 1173.62 -788 1148.62 -677 1334.62 -562 1283.62 -448 1344.62 -339 1544.62 -226 1602.62 -111.66 1627.62 0 1674.62 112.9 1627.62 228 1634.62 340 1686.62 452 1701.62 565 1620.12 677 1606.12 788 1606.12 901.83 1552.62 901.83 1549.52 788 1569.62 677 1683.62 565 1667.62 452 1607.62 340 1596.62 227.34 1617.62 113 1584.62 0 1562.62 -112 1507.62 -226 1304.62 -339.1 1225.62 -448.1 1236.97 -485.05 1264.87 -562 1082.62 -677 1084.2 -787.49 1323.62 -900 1500.47 -1014.1 1573.62 -1125 1600.62 -1242 1604.62 -1350 1569.62 -1461 1514.62 -1576 1447.62 -1690.1 1418.62 -1802 1404.62 -1913 1367.62 -2027 1397.62 -2140 1418.62 -2250.1 1339.62 -2363.1 1246.62 -2474.83 748.62 -2589.83 753.62 -2697.83 910.76 -2810.83 1053.62 -2920.83 1195.2 -3032.83 1311.62 -3147.66 1353.62 -3261.83 1348.62 -3372.83 1364.62 -3484.66 1406.62 -3599.83 1401.62 -3712.83 1429.62 -3817.83 1394.62 -3932.1 1393.2 -4045.83 1391.82 -4156.1 1437.52 -4270.83 1513.62 -4383.1 1505.64 -4492.83 1472.62 -4604.66 1447.62 -4716.83 1440.63 -4832.83 1462.62 -4945.83 1391.1 -5056.83 1348.62 -5168.83 1332.62 -5280.83 1376.98 -5390.83 1375.34 -5506.1 1373.74 -5618.1 1372.19 -5726.66" fill="none" stroke="#3b4351" stroke-miterlimit="10"/><polygon id="Chinese" points="1610.76 -5728.1 1609.69 -5841.1 1608.62 -5954.16 1585.12 -6064.83 1551.62 -6177.83 1509.12 -6291.83 1538.12 -6402.1 1586.62 -6514.1 1616.12 -6625.83 1645.62 -6740.1 1697.12 -6854.1 1714.62 -6965.16 1689.12 -7076.83 1700.12 -7190.83 1676.62 -7305.83 1650.62 -7418.16 1630.62 -7529.83 1620.62 -7640.33 1646.62 -7752.33 1667.62 -7864.99 1651.62 -7975.66 1633.99 -8087.66 1768.79 -8087.66 1768.79 113 1768.79 227.9 1766.12 340 1757.62 452 1736.12 564.9 1676.12 676.9 1661.12 788 1663.62 901.83 1606.12 901.83 1606.12 787.9 1620.12 677 1701.62 565 1696.12 451.84 1654.12 340 1681.62 228 1739.62 112.9 1748.62 -0.16 1744.12 -112.16 1685.62 -226 1615.12 -336.66 1636.12 -448 1738.62 -562 1761.12 -677 1758.62 -788 1732.12 -900 1695.62 -1014 1667.62 -1125 1651.12 -1242 1650.12 -1350 1620.12 -1461 1585.62 -1576.1 1552.62 -1690.1 1535.12 -1802 1516.12 -1913.1 1476.12 -2027 1542.12 -2140 1625.62 -2250.16 1668.12 -2363.16 1666.12 -2474.83 1673.62 -2589.83 1653.62 -2697.83 1602.12 -2811.1 1534.12 -2921.1 1564.12 -3032.83 1598.12 -3147.1 1612.12 -3261.83 1611.01 -3373.1 1592.62 -3484.1 1609.25 -3599.83 1616.07 -3712.83 1553.62 -3817.83 1529.62 -3931.83 1528.62 -4046.1 1555.62 -4155.83 1612.12 -4270.83 1621.12 -4382.83 1587.12 -4492.83 1567.62 -4604.83 1576.62 -4716.83 1571.12 -4832.83 1584.62 -4946.1 1558.62 -5056.83 1545.62 -5169.1 1557.62 -5281.1 1599.62 -5390.83 1625.12 -5506.1 1613.62 -5618.1 1610.76 -5728.1" fill="none" stroke="#3b4351" stroke-miterlimit="10"/><polygon id="Denmark" points="916.62 901.83 927.62 901.83 926.37 788 701.12 677 690.87 565 683.87 452 637.87 340 522.37 228 457.37 113 426.62 0 299.62 -112 273.62 -226 281.62 -339 289.12 -448 302.12 -562 296.87 -677 275.62 -788 253.62 -900 226.62 -1014 210.62 -1125 199.62 -1350 199.37 -1461 291.37 -1576 277.29 -1690 235.95 -1802 188.87 -1913 180.62 -2027 142.62 -2140 139.95 -2249.83 120.62 -2362.83 99.95 -2474.83 73.12 -2589.83 90.34 -2474.83 107.12 -2362.83 118.37 -2249.83 120.37 -2140 122.62 -2027 125.87 -1913 158.37 -1802 185.87 -1690 183.62 -1576 127.62 -1461 119.62 -1350 119.12 -1242 156.87 -1125 188.62 -1014 212.62 -900 252.37 -788 277.87 -677 283.37 -562 267.12 -448 248.87 -339 213.87 -226 234.37 -112 312.12 0 398.12 113 458.87 228 593.37 340 637.87 452 674.12 565 691.37 677 915.37 788 916.62 901.83" fill="none" stroke="#3b4351" stroke-miterlimit="10"/><polygon id="England" points="874.62 901.83 688.95 901.83 687.95 788 439.12 677 252.12 565 159.62 452 111.62 340 93.62 228 86.12 113 84.62 0 86.95 -112 98.28 -226 116.95 -339 114.62 -448 122.62 -562 120.62 -677 108.28 -788 100.16 -900 107.95 -1014 107.95 -1125 77.28 -1242 73.12 -2589.83 90.34 -2474.83 93.44 -2362.83 96.58 -2249.83 99.62 -2140 91.95 -1913 94.28 -1802 98.62 -1690 120.28 -1576 89.28 -1461 84.28 -1350 96.28 -1242 133.28 -1125 160.95 -1014 172.95 -900 208.95 -788 223.62 -677 228.28 -562 211.62 -448 201.62 -339 189.95 -226 193.28 -112 235.28 0 248.62 113 348.62 228 562.62 340 622.12 452 602.12 565 652.12 677 872.95 788 874.62 901.83" fill="none" stroke="#3b4351" stroke-miterlimit="10"/><polygon id="United_States" data-name="United States" points="348.62 677 211.12 565 141.62 452 111.62 340 93.62 228 86.12 113 84.62 0 79.62 113 82.62 228 87.62 340 107.62 452 145.12 565 167.12 677 198.12 788 200.12 901.83 500.37 901.83 500.37 788 348.62 677" fill="none" stroke="#3b4351" stroke-miterlimit="10"/><polygon id="South_America" data-name="South America" points="108.28 -788 120.62 -677 122.62 -562 114.62 -448 116.95 -339 98.28 -226 86.95 -112 84.62 0 79.62 113 82.62 228 87.62 340 107.62 452 145.12 565 167.12 677 198.12 788 200.12 901.83 77.28 901.83 77.28 -1242 107.95 -1125 107.95 -1014 100.16 -900 108.28 -788" fill="none" stroke="#3b4351" stroke-miterlimit="10"/><polygon id="France" points="674.34 0 785.95 112.67 815.95 228 963.28 340 1049.29 452 932.62 565 899.28 677 1099.75 789 1102.12 901.83 946.74 901.83 946.24 788 748.62 677 745.95 565 741.28 452 711.95 340 643.28 228 613.28 113 535.95 0 385.29 -112 317.95 -226 311.95 -339 310.62 -448 321.29 -562 314.62 -677 275.62 -788 253.62 -900 258.62 -1011.33 325.29 -1125 314.62 -1242 286.62 -1350 249.62 -1461 291.37 -1576 409.62 -1576 362.62 -1461 373.95 -1350 423.58 -1242 444.62 -1125 381.95 -1011.33 347.12 -900 361.29 -788 384.62 -677 391.95 -562 365.95 -448 379.95 -339 391.29 -226 491.95 -112 674.34 0" fill="none" stroke="#3b4351" stroke-miterlimit="10"/><polygon id="Franks_to_Holy_Roman_Empire" data-name="Franks to Holy Roman Empire" points="594.62 -900 505.62 -788 482.62 -677 599.12 -562 617.12 -448 639.62 -339 772.62 -226 953.62 -112 1131.62 0 1201.62 113 1109.12 228 1144.62 340 1249.12 452 1301.62 565 1217.12 677 1288.12 788 1290.62 901.83 1234.62 901.83 1232.12 788 1140.12 676.91 1137.62 565 1115.62 452 1053.62 340 973.12 228 1064.12 113 953.62 0 741.12 -112 577.12 -226 525.62 -339 418.62 -448 417.62 -562 407.62 -677 385.62 -788 406.62 -900 421.62 -1010.33 466.62 -1125 441.95 -1242 373.95 -1350 371.78 -1371.31 362.62 -1461 409.62 -1576 559.62 -1576 626.73 -1461 742.62 -1350 897.74 -1242 874.62 -1125 818.62 -1013.4 594.62 -900" fill="none" stroke="#3b4351" stroke-miterlimit="10"/><polygon points="703.28 -1461 815.28 -1350 966.12 -1242 987.12 -1125 1028.12 -1014 932.12 -900 729.62 -788 630.12 -677 721.12 -562 711.95 -448 829.93 -339 854.62 -226 1030.37 -112 1169.87 0 1257.37 113 1158.4 228 1196.12 340 1147.62 228 1238.87 113 1162.87 0 1022.62 -112 841.12 -226 809.62 -339 692.62 -448 689.38 -562 586.62 -677 584.12 -788 663.53 -900 851.12 -1014 874.62 -1125 897.74 -1242 742.62 -1350 626.73 -1461 559.62 -1576 644.62 -1576 703.28 -1461" fill="none" stroke="#3b4351" stroke-miterlimit="10"/><polygon id="Holland" points="613.28 113 643.28 228 711.95 340 741.28 452 729.95 565 732.62 677 935.28 788 937.12 901.83 927.62 901.83 926.37 788 701.12 677 690.87 565 683.87 452 637.87 340 522.37 228 457.37 113 426.62 0 299.62 -112 273.62 -226 281.62 -339 289.12 -448 302.12 -562 296.87 -677 275.62 -788 314.62 -677 321.29 -562 310.62 -448 311.95 -339 317.95 -226 385.29 -112 535.95 0 613.28 113" fill="none" stroke="#3b4351" stroke-miterlimit="10"/><polygon id="Sweden" points="691.37 677 673.95 677 893.62 788 895.28 901.83 874.62 901.83 872.95 788 652.12 677 602.12 565 622.12 452 562.62 340 348.62 228 248.62 113 235.28 0 193.28 -112 189.95 -226 201.62 -339 211.62 -448 228.28 -562 223.62 -677 208.95 -788 172.95 -900 160.95 -1014 186.86 -900 220.95 -788 252.95 -677 258.95 -562 243.95 -448 222.62 -339 213.87 -226 234.37 -112 312.12 0 398.12 113 458.87 228 593.37 340 637.87 452 674.12 565 691.37 677" fill="none" stroke="#3b4351" stroke-miterlimit="10"/><polygon points="1523.12 452.84 1446.62 340 1405.12 228.56 1442.62 113 1396.62 0 1391.62 -112 1351.62 -226 1183.62 -339 1092.62 -448 1124.29 -562 970.62 -677 1005.12 -788 1166.62 -900 1313.55 -1011.05 1315.29 -1011 1317.44 -1014 1317.44 -1014 1317.44 -1014 1397.29 -1125 1463.95 -1242 1481.95 -1350 1488.62 -1461 1453.62 -1576 1382.62 -1461 1328.62 -1350 1225.12 -1242 1161.29 -1125 1218.62 -1014 1218.62 -1014 1218.62 -1014 1131.95 -900 936.62 -788 798.62 -677 819.28 -562 759.95 -448 849.28 -339 947.12 -226 1111.12 -112 1208.62 0 1293.62 113 1244.12 228.56 1280.62 340 1381.12 452 1410.62 565 1358.62 677 1436.62 788 1436.62 901.83 1467.62 901.83 1467.62 788 1423.62 677 1492.62 565 1523.12 452.84" fill="none" stroke="#3b4351" stroke-miterlimit="10"/><polygon id="Germany" points="1234.62 901.83 1126.95 901.83 1125.62 788 969.62 677 1052.2 565 1078.95 452 1015.62 340 946.95 228 1064.12 113 973.12 228 1053.62 340 1115.62 452 1137.62 565 1140.12 676.91 1232.12 788 1234.62 901.83" fill="none" stroke="#3b4351" stroke-miterlimit="10"/><polygon id="Spain" points="1117.95 789.41 1119.29 901.83 1102.12 901.83 1099.75 789 899.28 677 932.62 565 1049.29 452 963.28 340 815.95 228 785.95 112.67 674.34 0 491.95 -112 391.29 -226 379.95 -339 365.95 -448 391.95 -562 384.62 -677 361.29 -788 347.12 -900 383.43 -1014 444.62 -1125 423.58 -1242 373.95 -1350 441.95 -1242 466.62 -1125 423.06 -1014 406.62 -900 385.62 -788 407.62 -677 417.62 -562 401.95 -448 463.29 -339 491.29 -226 631.28 -111.58 844.62 0 937.12 114.34 922.62 228 997.95 340 1065.62 452 1035.29 565 959.28 677 1117.95 789.41" fill="none" stroke="#3b4351" stroke-miterlimit="10"/><polygon id="Portugal" points="946.95 228 1015.62 340 1078.95 452 1052.2 565 969.62 677 1125.62 788 1126.95 901.83 1119.29 901.83 1117.95 789.41 959.28 677 1035.29 565 1065.62 452 997.95 340 922.62 228 937.12 114.34 844.62 0 631.28 -111.58 491.29 -226 463.29 -339 401.95 -448 417.62 -562 418.62 -448 525.62 -339 577.12 -226 741.12 -112 953.62 0 1064.12 113 946.95 228" fill="none" stroke="#3b4351" stroke-miterlimit="10"/><polygon id="Hungary" points="753.62 -339 797.62 -226 970.62 -112 1131.62 0 953.62 -112 772.62 -226 639.62 -339 617.12 -448 599.12 -562 482.62 -677 505.62 -788 505.62 -677 610.34 -562 632.89 -448 753.62 -339" fill="none" stroke="#3b4351" stroke-miterlimit="10"/><polygon id="Italy" points="586.62 -677 689.38 -562 692.62 -448 809.62 -339 841.12 -226 1022.62 -112 1162.87 0 1238.87 113 1147.62 228 1196.12 340 1326.62 452.84 1351.29 565 1294.95 677 1361.29 788 1361.29 901.83 1303.29 901.83 1300.29 788 1229.95 677 1317.95 565 1262.95 452.84 1153.29 340 1109.12 228 1201.62 113 1131.62 0 970.62 -112 797.62 -226 753.62 -339 632.89 -448 610.34 -562 505.62 -677 505.62 -788 594.62 -900 818.62 -1013.4 874.62 -1125 851.12 -1014 663.53 -900 584.12 -788 586.62 -677" fill="none" stroke="#3b4351" stroke-miterlimit="10"/><polygon id="Russia" points="1552.62 901.83 1467.62 901.83 1467.62 788 1423.62 677 1492.62 565 1523.12 452.84 1471.87 340 1443.87 228 1536.12 113.34 1518.87 0 1513.87 -112 1454.87 -226 1270.87 -339 1200.12 -448 1264.87 -562 1225.62 -448.1 1304.62 -339.1 1507.62 -226 1562.62 -112 1584.62 0 1617.62 113 1596.62 227.34 1607.62 340 1667.62 452 1683.62 565 1569.62 677 1549.52 788 1552.62 901.83" fill="none" stroke="#3b4351" stroke-miterlimit="10"/><polygon id="POland" points="1518.87 0 1536.12 113.34 1443.87 228 1471.87 340 1523.12 452.84 1446.62 340 1405.12 228.56 1442.62 113 1396.62 0 1391.62 -112 1351.62 -226 1183.62 -339 1155.87 -448 1195.12 -562 1027.37 -677 1026.12 -788 1082.62 -677 1264.87 -562 1200.12 -448 1270.87 -339 1454.87 -226 1513.87 -112 1518.87 0" fill="none" stroke="#3b4351" stroke-miterlimit="10"/><polygon id="Mogolians" points="1334.62 -562 1148.62 -677 1173.62 -788 1402.62 -900.66 1565.62 -1014 1622.45 -1125.1 1630.62 -1242.1 1650.12 -1350 1651.12 -1242 1667.62 -1125 1695.62 -1014 1732.12 -900 1758.62 -788 1761.12 -677 1738.62 -562 1636.12 -448 1615.56 -339 1685.62 -226 1744.12 -112.16 1748.42 2.28 1739.62 112.9 1681.62 228 1654.12 340 1696.12 451.84 1701.62 565 1686.62 452 1634.62 340 1627.62 228 1674.62 112.9 1627.62 0 1602.62 -111.66 1544.62 -226 1344.62 -339 1283.62 -448 1334.62 -562" fill="none" stroke="#3b4351" stroke-miterlimit="10"/><polygon points="1111.12 -112 1208.62 0 1293.62 113 1244.12 228.56 1280.62 340 1381.12 452 1410.62 565 1358.62 677 1436.62 788 1436.62 901.83 1425.29 901.83 1424.62 788 1347.62 677 1385.95 565 1326.62 452.84 1196.12 340 1158.4 228 1257.37 113 1169.87 0 1030.37 -112 854.62 -226 849.28 -339 947.12 -226 1111.12 -112" fill="none" stroke="#3b4351" stroke-miterlimit="10"/></g><g id="Text"><g id="Indians-2" data-name="Indians"><path d="M1575,12.33h4.36l3.09,13h0l3-13h4.26v17.5h-2.64V15.27h-.05l-3.53,14.56h-2.35l-3.53-14.56h0V29.83H1575Z" fill="#3b4351"/><path d="M1592,23.23c0-4.11,1.08-6.93,4.9-6.93s4.93,2.82,4.93,6.93-1.27,6.94-4.93,6.94S1592,27.35,1592,23.23Zm4.9,5c1.94,0,2.28-1.62,2.28-5,0-2.91-.34-5-2.28-5s-2.25,2.06-2.25,5C1594.63,26.59,1595,28.21,1596.88,28.21Z" fill="#3b4351"/><path d="M1606.49,31a1.72,1.72,0,0,0,1.91,1.57,2.18,2.18,0,0,0,2.23-2.47V27.91h-.05a3.19,3.19,0,0,1-3,1.82c-3.06,0-3.95-3-3.95-6.64,0-2.89.45-6.79,4.2-6.79a2.91,2.91,0,0,1,2.89,2h0V16.64h2.5V29.19c0,3.21-1.38,5.14-4.93,5.14-3.92,0-4.36-2.3-4.36-3.38Zm1.86-3.33c2.06,0,2.28-2.6,2.28-4.68s-.27-4.53-2.11-4.53-2.23,2-2.23,4.41C1606.29,25.07,1606.39,27.62,1608.35,27.62Z" fill="#3b4351"/><path d="M1622.36,28.28h-.07a3.77,3.77,0,0,1-3.38,1.89c-2,0-3.28-.91-3.28-4.31V16.64h2.64V26.1c0,1.47.64,2,1.79,2a2.06,2.06,0,0,0,2.16-2.2V16.64h2.64V29.83h-2.5Z" fill="#3b4351"/><path d="M1627.53,12.33h2.65v17.5h-2.65Z" fill="#3b4351"/><path d="M1572.44,39.33h5c5.49,0,6.18,3.58,6.18,8.75s-.69,8.75-6.18,8.75h-5Zm2.8,15.39h2.3c2.31,0,3.26-1.52,3.26-6.64,0-4.93-.83-6.64-3.26-6.64h-2.3Z" fill="#3b4351"/><path d="M1587.66,43.64l2.28,9.9h0l2.11-9.9h2.76l-3.62,13.68c-1.06,3.6-1.86,4.09-4.61,4a5.26,5.26,0,0,1-1.05-.1V59.13a3.53,3.53,0,0,0,.85.1c.91,0,1.5-.17,1.79-1l.35-1.08-3.75-13.48Z" fill="#3b4351"/><path d="M1596.33,43.64h2.5v1.55h.08a3.77,3.77,0,0,1,3.38-1.89c2,0,3.28.91,3.28,3.58v9.95h-2.65v-9c0-1.76-.46-2.37-1.83-2.37-1.08,0-2.11.8-2.11,2.57v8.85h-2.65Z" fill="#3b4351"/><path d="M1616.77,54.08c0,.49.29.93.68.93a1,1,0,0,0,.44-.07v1.71a2.67,2.67,0,0,1-1.29.32c-1.18,0-2.16-.46-2.23-1.74h0a3.41,3.41,0,0,1-3.29,1.94c-2.13,0-3.43-1.15-3.43-3.7,0-2.94,1.3-3.55,3.07-4.14l2-.57c1-.27,1.55-.54,1.55-1.69s-.42-2-1.82-2c-1.76,0-2,1.25-2,2.53h-2.5c0-2.82,1.16-4.34,4.64-4.34,2.32,0,4.19.91,4.19,3.23Zm-2.5-4.21a20.45,20.45,0,0,1-2.94,1.22,2.17,2.17,0,0,0-1.08,2.13c0,1.11.54,2,1.64,2,1.59,0,2.38-1.18,2.38-3.14Z" fill="#3b4351"/><path d="M1625.14,47.49v-.34c0-1.06-.36-2-1.73-2-1.06,0-1.89.47-1.89,1.72,0,1.05.46,1.44,1.86,1.93l1.69.59c2,.66,2.87,1.72,2.87,3.8,0,2.82-2.08,4-4.73,4-3.33,0-4.34-1.55-4.34-4.09v-.49h2.35V53c0,1.55.52,2.36,2.06,2.36s2.16-.74,2.16-1.94a1.91,1.91,0,0,0-1.45-1.94l-2.15-.76c-2-.66-2.82-1.69-2.82-3.79,0-2.48,1.76-3.63,4.51-3.63,3.36,0,4.11,2,4.11,3.6v.59Z" fill="#3b4351"/><path d="M1628.72,43.64h1.81V39.89h2.65v3.75h2.16v2h-2.16v7.87c0,1.05.3,1.4,1.2,1.4a5,5,0,0,0,1-.08v2a8.55,8.55,0,0,1-2.13.22c-1.77,0-2.68-.51-2.68-3.18V45.6h-1.81Z" fill="#3b4351"/><path d="M1638.47,43.64l2.28,9.9h0l2.11-9.9h2.77l-3.63,13.68c-1,3.6-1.86,4.09-4.61,4a5.41,5.41,0,0,1-1-.1V59.13a3.55,3.55,0,0,0,.86.1c.9,0,1.49-.17,1.79-1l.34-1.08-3.75-13.48Z" fill="#3b4351"/></g><g id="Portugal-2" data-name="Portugal"><path d="M861.89,14.21h5.54c3.36,0,4.83,2.1,4.83,5.09s-1.87,5.17-5.13,5.17h-2.45V31.7h-2.79Zm2.79,8.16h2c1.49,0,2.79-.79,2.79-3,0-1.88-.76-3-3-3h-1.79Z" fill="#3b4351"/><path d="M873.72,23c0-6.25,1.77-9.1,5.79-9.1s5.78,2.85,5.78,9.1-1.76,9.09-5.78,9.09S873.72,29.2,873.72,23Zm8.78-.08c0-5.88-1.33-6.91-3-6.91s-3,1-3,6.91,1.32,7.06,3,7.06S882.5,28.89,882.5,22.88Z" fill="#3b4351"/><path d="M887.76,14.21h6.18c2.45,0,4.43,1.25,4.43,4.51,0,2.25-1,4-2.91,4.28v.05c1.76.17,2.64,1.13,2.74,3.58,0,1.15,0,2.5.1,3.55a1.92,1.92,0,0,0,.83,1.52H896a2.9,2.9,0,0,1-.46-1.54c0-.52-.08-1.05-.08-1.57s0-1.1,0-1.74c-.07-1.91-.66-2.74-2.55-2.74h-2.27V31.7h-2.8Zm5,7.79a2.58,2.58,0,0,0,2.79-2.84c0-1.87-.78-2.85-2.65-2.85h-2.37V22Z" fill="#3b4351"/><path d="M903.34,16.56h-4.16V14.21h11.05v2.35h-4.09V31.7h-2.8Z" fill="#3b4351"/><path d="M914.39,14.21V26.75c0,2.23.89,3.19,2.58,3.19s2.55-1,2.55-3.19V14.21h2.79V26.53c0,4-2,5.52-5.34,5.52s-5.37-1.47-5.37-5.52V14.21Z" fill="#3b4351"/><path d="M933.63,29.67h0a3.64,3.64,0,0,1-3.82,2.38c-3.83,0-5.2-2.85-5.2-9.09s1.76-9.1,5.81-9.1a4.77,4.77,0,0,1,5.12,5.05v.32h-2.65v-.42c0-1.3-.54-2.84-2.45-2.84s-3,1.32-3,6.91.94,7.06,2.82,7.06c2.13,0,2.92-1.52,2.92-5.34h-2.94V22.49h5.58V31.7h-2.1Z" fill="#3b4351"/><path d="M941.44,14.21H945l4.61,17.49h-2.92l-1.08-4.29h-5.12l-1.13,4.29h-2.91Zm3.73,11-2-8.63h0L941,25.19Z" fill="#3b4351"/><path d="M950.53,14.21h2.79V29.35h6.77V31.7h-9.56Z" fill="#3b4351"/></g><g id="Holland-2" data-name="Holland"><path d="M464.47,42.54h2.79v7h5.15v-7h2.79V60h-2.79V51.9h-5.15V60h-2.79Z" fill="#3b4351"/><path d="M477.68,51.29c0-6.25,1.76-9.1,5.78-9.1s5.78,2.85,5.78,9.1-1.76,9.09-5.78,9.09S477.68,57.53,477.68,51.29Zm8.77-.08c0-5.88-1.32-6.91-3-6.91s-3,1-3,6.91,1.32,7.06,3,7.06S486.45,57.22,486.45,51.21Z" fill="#3b4351"/><path d="M491.4,42.54h2.79V57.68H501V60H491.4Z" fill="#3b4351"/><path d="M502.27,42.54h2.8V57.68h6.76V60h-9.56Z" fill="#3b4351"/><path d="M516.78,42.54h3.58L525,60h-2.91L521,55.75h-5.12L514.72,60H511.8Zm3.72,11-2-8.63h0l-2.08,8.63Z" fill="#3b4351"/><path d="M526.19,42.54h3.4l5.07,13h.05v-13h2.65V60H534l-5.07-13.38h0V60h-2.64Z" fill="#3b4351"/><path d="M540.25,42.54h5c5.49,0,6.18,3.57,6.18,8.75S550.71,60,545.22,60h-5ZM543,57.93h2.31c2.3,0,3.25-1.52,3.25-6.64,0-4.93-.83-6.65-3.25-6.65H543Z" fill="#3b4351"/></g></g></svg>