<svg xmlns="http://www.w3.org/2000/svg" viewBox="0 0 1847.91 113"><title>ce1650text</title><g id="YEARS"><g id="Right"><path d="M1787.21,109.23V95.87h-3.82V93.94h.29c1.77,0,3.79-.44,4.34-2.76v-.36h2.16v18.41Z"/><path d="M1802.84,95.29c0-1.06-.52-2.39-2-2.39-2.78,0-2.93,3.64-2.93,6.35l.07,0a3.77,3.77,0,0,1,3.59-2c2.52,0,4.55,1.82,4.55,5.48,0,4.24-1.77,6.76-5.64,6.76-4.65,0-5.54-3.53-5.54-8.81,0-5.51,1-10,5.88-10,3.25,0,5,1.43,5,4.47Zm-2.11,12.22c1.8,0,2.45-1.79,2.45-4,0-2.57-.76-4-2.45-4-2.18,0-2.55,1.9-2.55,4.11S1799,107.51,1800.73,107.51Z"/><path d="M1807.62,104.26h2.81v.5a2.35,2.35,0,0,0,2.42,2.6c2.08,0,2.63-2,2.63-4.19s-.58-3.92-2.48-3.92a2.34,2.34,0,0,0-2.41,1.69l-2.63-.11.91-9.65h8.87v2.37h-6.66l-.6,4.84,0,0a4.08,4.08,0,0,1,3.1-1.43c3.85,0,4.81,3.25,4.81,6.08,0,3.7-1.69,6.5-5.67,6.5-3.3,0-5.15-1.69-5.15-4.94Z"/><path d="M1825.51,90.82c3.54,0,5.51,2.21,5.51,9.39s-2,9.38-5.51,9.38-5.51-2.21-5.51-9.38S1822,90.82,1825.51,90.82Zm0,16.69c2,0,2.55-2,2.55-7.3s-.55-7.31-2.55-7.31-2.55,2-2.55,7.31S1823.51,107.51,1825.51,107.51Z"/></g><g id="left"><path d="M17.46,112.83V99.46H13.64V97.54h.29c1.77,0,3.79-.44,4.34-2.76v-.36h2.16v18.41Z"/><path d="M33.09,98.89c0-1.06-.52-2.39-2-2.39-2.78,0-2.93,3.64-2.93,6.34l.07.06a3.77,3.77,0,0,1,3.59-2c2.52,0,4.55,1.82,4.55,5.48,0,4.24-1.77,6.76-5.64,6.76-4.65,0-5.54-3.53-5.54-8.81,0-5.51,1-10,5.88-10,3.25,0,5,1.43,5,4.47ZM31,111.11c1.8,0,2.45-1.79,2.45-4,0-2.57-.76-4-2.45-4-2.18,0-2.54,1.9-2.54,4.11S29.24,111.11,31,111.11Z"/><path d="M37.87,107.86h2.81v.5A2.36,2.36,0,0,0,43.1,111c2.08,0,2.63-2,2.63-4.19s-.58-3.93-2.48-3.93a2.35,2.35,0,0,0-2.41,1.69l-2.63-.1.91-9.65H48v2.37H41.33l-.6,4.84.06.05a4,4,0,0,1,3.09-1.43c3.85,0,4.81,3.25,4.81,6.08,0,3.69-1.69,6.5-5.67,6.5-3.3,0-5.15-1.69-5.15-4.94Z"/><path d="M55.76,94.42c3.54,0,5.51,2.21,5.51,9.39s-2,9.38-5.51,9.38-5.51-2.21-5.51-9.38S52.22,94.42,55.76,94.42Zm0,16.69c2,0,2.55-2,2.55-7.3s-.55-7.31-2.55-7.31-2.55,2-2.55,7.31S53.76,111.11,55.76,111.11Z"/></g></g><g id="Text"><g id="Indians"><path d="M1575,12.33h4.36l3.09,13h0l3-13h4.26v17.5h-2.64V15.27h-.05l-3.53,14.56h-2.35l-3.53-14.56h0V29.83H1575Z"/><path d="M1592,23.23c0-4.11,1.08-6.93,4.9-6.93s4.93,2.82,4.93,6.93-1.27,6.94-4.93,6.94S1592,27.35,1592,23.23Zm4.9,5c1.94,0,2.28-1.62,2.28-5,0-2.91-.34-5-2.28-5s-2.25,2.06-2.25,5C1594.63,26.59,1595,28.21,1596.88,28.21Z"/><path d="M1606.49,31a1.72,1.72,0,0,0,1.91,1.57,2.18,2.18,0,0,0,2.23-2.47V27.91h-.05a3.19,3.19,0,0,1-3,1.82c-3.06,0-3.95-3-3.95-6.64,0-2.89.45-6.79,4.2-6.79a2.91,2.91,0,0,1,2.89,2h0V16.64h2.5V29.19c0,3.21-1.38,5.14-4.93,5.14-3.92,0-4.36-2.3-4.36-3.38Zm1.86-3.33c2.06,0,2.28-2.6,2.28-4.68s-.27-4.53-2.11-4.53-2.23,2-2.23,4.41C1606.29,25.07,1606.39,27.62,1608.35,27.62Z"/><path d="M1622.36,28.28h-.07a3.77,3.77,0,0,1-3.38,1.89c-2,0-3.28-.91-3.28-4.31V16.64h2.64V26.1c0,1.47.64,2,1.79,2a2.06,2.06,0,0,0,2.16-2.2V16.64h2.64V29.83h-2.5Z"/><path d="M1627.53,12.33h2.65v17.5h-2.65Z"/><path d="M1572.44,39.33h5c5.49,0,6.18,3.58,6.18,8.75s-.69,8.75-6.18,8.75h-5Zm2.8,15.39h2.3c2.31,0,3.26-1.52,3.26-6.64,0-4.93-.83-6.64-3.26-6.64h-2.3Z"/><path d="M1587.66,43.64l2.28,9.9h0l2.11-9.9h2.76l-3.62,13.68c-1.06,3.6-1.86,4.09-4.61,4a5.26,5.26,0,0,1-1.05-.1V59.13a3.53,3.53,0,0,0,.85.1c.91,0,1.5-.17,1.79-1l.35-1.08-3.75-13.48Z"/><path d="M1596.33,43.64h2.5v1.55h.08a3.77,3.77,0,0,1,3.38-1.89c2,0,3.28.91,3.28,3.58v9.95h-2.65v-9c0-1.76-.46-2.37-1.83-2.37-1.08,0-2.11.8-2.11,2.57v8.85h-2.65Z"/><path d="M1616.77,54.08c0,.49.29.93.68.93a1,1,0,0,0,.44-.07v1.71a2.67,2.67,0,0,1-1.29.32c-1.18,0-2.16-.46-2.23-1.74h0a3.41,3.41,0,0,1-3.29,1.94c-2.13,0-3.43-1.15-3.43-3.7,0-2.94,1.3-3.55,3.07-4.14l2-.57c1-.27,1.55-.54,1.55-1.69s-.42-2-1.82-2c-1.76,0-2,1.25-2,2.53h-2.5c0-2.82,1.16-4.34,4.64-4.34,2.32,0,4.19.91,4.19,3.23Zm-2.5-4.21a20.45,20.45,0,0,1-2.94,1.22,2.17,2.17,0,0,0-1.08,2.13c0,1.11.54,2,1.64,2,1.59,0,2.38-1.18,2.38-3.14Z"/><path d="M1625.14,47.49v-.34c0-1.06-.36-2-1.73-2-1.06,0-1.89.47-1.89,1.72,0,1.05.46,1.44,1.86,1.93l1.69.59c2,.66,2.87,1.72,2.87,3.8,0,2.82-2.08,4-4.73,4-3.33,0-4.34-1.55-4.34-4.09v-.49h2.35V53c0,1.55.52,2.36,2.06,2.36s2.16-.74,2.16-1.94a1.91,1.91,0,0,0-1.45-1.94l-2.15-.76c-2-.66-2.82-1.69-2.82-3.79,0-2.48,1.76-3.63,4.51-3.63,3.36,0,4.11,2,4.11,3.6v.59Z"/><path d="M1628.72,43.64h1.81V39.89h2.65v3.75h2.16v2h-2.16v7.87c0,1.05.3,1.4,1.2,1.4a5,5,0,0,0,1-.08v2a8.55,8.55,0,0,1-2.13.22c-1.77,0-2.68-.51-2.68-3.18V45.6h-1.81Z"/><path d="M1638.47,43.64l2.28,9.9h0l2.11-9.9h2.77l-3.63,13.68c-1,3.6-1.86,4.09-4.61,4a5.41,5.41,0,0,1-1-.1V59.13a3.55,3.55,0,0,0,.86.1c.9,0,1.49-.17,1.79-1l.34-1.08-3.75-13.48Z"/></g><g id="Portugal"><path d="M861.89,14.21h5.54c3.36,0,4.83,2.1,4.83,5.09s-1.87,5.17-5.13,5.17h-2.45V31.7h-2.79Zm2.79,8.16h2c1.49,0,2.79-.79,2.79-3,0-1.88-.76-3-3-3h-1.79Z"/><path d="M873.72,23c0-6.25,1.77-9.1,5.79-9.1s5.78,2.85,5.78,9.1-1.76,9.09-5.78,9.09S873.72,29.2,873.72,23Zm8.78-.08c0-5.88-1.33-6.91-3-6.91s-3,1-3,6.91,1.32,7.06,3,7.06S882.5,28.89,882.5,22.88Z"/><path d="M887.76,14.21h6.18c2.45,0,4.43,1.25,4.43,4.51,0,2.25-1,4-2.91,4.28v.05c1.76.17,2.64,1.13,2.74,3.58,0,1.15,0,2.5.1,3.55a1.92,1.92,0,0,0,.83,1.52H896a2.9,2.9,0,0,1-.46-1.54c0-.52-.08-1.05-.08-1.57s0-1.1,0-1.74c-.07-1.91-.66-2.74-2.55-2.74h-2.27V31.7h-2.8Zm5,7.79a2.58,2.58,0,0,0,2.79-2.84c0-1.87-.78-2.85-2.65-2.85h-2.37V22Z"/><path d="M903.34,16.56h-4.16V14.21h11.05v2.35h-4.09V31.7h-2.8Z"/><path d="M914.39,14.21V26.75c0,2.23.89,3.19,2.58,3.19s2.55-1,2.55-3.19V14.21h2.79V26.53c0,4-2,5.52-5.34,5.52s-5.37-1.47-5.37-5.52V14.21Z"/><path d="M933.63,29.67h0a3.64,3.64,0,0,1-3.82,2.38c-3.83,0-5.2-2.85-5.2-9.09s1.76-9.1,5.81-9.1a4.77,4.77,0,0,1,5.12,5.05v.32h-2.65v-.42c0-1.3-.54-2.84-2.45-2.84s-3,1.32-3,6.91.94,7.06,2.82,7.06c2.13,0,2.92-1.52,2.92-5.34h-2.94V22.49h5.58V31.7h-2.1Z"/><path d="M941.44,14.21H945l4.61,17.49h-2.92l-1.08-4.29h-5.12l-1.13,4.29h-2.91Zm3.73,11-2-8.63h0L941,25.19Z"/><path d="M950.53,14.21h2.79V29.35h6.77V31.7h-9.56Z"/></g><g id="Holland"><path d="M464.47,42.54h2.79v7h5.15v-7h2.79V60h-2.79V51.9h-5.15V60h-2.79Z"/><path d="M477.68,51.29c0-6.25,1.76-9.1,5.78-9.1s5.78,2.85,5.78,9.1-1.76,9.09-5.78,9.09S477.68,57.53,477.68,51.29Zm8.77-.08c0-5.88-1.32-6.91-3-6.91s-3,1-3,6.91,1.32,7.06,3,7.06S486.45,57.22,486.45,51.21Z"/><path d="M491.4,42.54h2.79V57.68H501V60H491.4Z"/><path d="M502.27,42.54h2.8V57.68h6.76V60h-9.56Z"/><path d="M516.78,42.54h3.58L525,60h-2.91L521,55.75h-5.12L514.72,60H511.8Zm3.72,11-2-8.63h0l-2.08,8.63Z"/><path d="M526.19,42.54h3.4l5.07,13h.05v-13h2.65V60H534l-5.07-13.38h0V60h-2.64Z"/><path d="M540.25,42.54h5c5.49,0,6.18,3.57,6.18,8.75S550.71,60,545.22,60h-5ZM543,57.93h2.31c2.3,0,3.25-1.52,3.25-6.64,0-4.93-.83-6.65-3.25-6.65H543Z"/></g></g></svg>