<svg xmlns="http://www.w3.org/2000/svg" viewBox="0 0 1847.91 112"><title>ce1600text</title><g id="YEARS"><g id="Right"><path d="M1792.5,107.49V94.12h-3.82V92.2h.28c1.77,0,3.8-.44,4.35-2.76v-.36h2.15v18.41Z" fill="#3b4351"/><path d="M1808.12,93.55c0-1.06-.52-2.39-2-2.39-2.78,0-2.94,3.64-2.94,6.34l.08,0a3.78,3.78,0,0,1,3.59-1.94c2.52,0,4.55,1.82,4.55,5.48,0,4.24-1.77,6.76-5.65,6.76-4.65,0-5.53-3.53-5.53-8.81,0-5.51,1-10,5.87-10,3.25,0,5,1.43,5,4.47Zm-2.1,12.22c1.79,0,2.44-1.79,2.44-4,0-2.57-.75-4-2.44-4-2.19,0-2.55,1.9-2.55,4.11S1804.28,105.77,1806,105.77Z" fill="#3b4351"/><path d="M1818.32,89.08c3.53,0,5.51,2.21,5.51,9.38s-2,9.39-5.51,9.39-5.52-2.21-5.52-9.39S1814.78,89.08,1818.32,89.08Zm0,16.69c2,0,2.54-2,2.54-7.31s-.54-7.3-2.54-7.3-2.55,2-2.55,7.3S1816.31,105.77,1818.32,105.77Z" fill="#3b4351"/><path d="M1830.8,89.08c3.53,0,5.51,2.21,5.51,9.38s-2,9.39-5.51,9.39-5.52-2.21-5.52-9.39S1827.26,89.08,1830.8,89.08Zm0,16.69c2,0,2.54-2,2.54-7.31s-.54-7.3-2.54-7.3-2.55,2-2.55,7.3S1828.79,105.77,1830.8,105.77Z" fill="#3b4351"/></g><g id="left"><path d="M17.46,109.39V96H13.64V94.11h.29c1.77,0,3.79-.45,4.34-2.76V91h2.16v18.4Z" fill="#3b4351"/><path d="M33.09,95.46c0-1.07-.52-2.39-2-2.39-2.78,0-2.93,3.64-2.93,6.34l.07,0a3.79,3.79,0,0,1,3.59-1.95c2.52,0,4.55,1.82,4.55,5.49,0,4.24-1.77,6.76-5.64,6.76-4.65,0-5.54-3.54-5.54-8.82,0-5.51,1-10,5.88-10,3.25,0,5,1.43,5,4.47ZM31,107.68c1.8,0,2.45-1.8,2.45-4,0-2.58-.76-4-2.45-4-2.18,0-2.54,1.9-2.54,4.11S29.24,107.68,31,107.68Z" fill="#3b4351"/><path d="M43.28,91c3.54,0,5.51,2.21,5.51,9.38s-2,9.39-5.51,9.39-5.51-2.21-5.51-9.39S39.75,91,43.28,91Zm0,16.69c2,0,2.55-2,2.55-7.31s-.55-7.3-2.55-7.3-2.55,2-2.55,7.3S41.28,107.68,43.28,107.68Z" fill="#3b4351"/><path d="M55.76,91c3.54,0,5.51,2.21,5.51,9.38s-2,9.39-5.51,9.39-5.51-2.21-5.51-9.39S52.22,91,55.76,91Zm0,16.69c2,0,2.55-2,2.55-7.31s-.55-7.3-2.55-7.3-2.55,2-2.55,7.3S53.76,107.68,55.76,107.68Z" fill="#3b4351"/></g></g><g id="Nation_OUtlines" data-name="Nation OUtlines"><polygon id="Indians" points="1372.19 -5614.66 1294.19 -5728.83 1285.19 -5841.83 1313.69 -5952.83 1348.19 -6065.83 1310.69 -6179.83 1298.69 -6289.83 1313.69 -6401.83 1345.19 -6513.83 1325.69 -6627.83 1343.69 -6741.83 1417.19 -6852.83 1400.69 -6965.91 1429.19 -7078.83 1419.27 -7194.1 1387.19 -7305.83 1387.19 -7417.83 1438.19 -7528.33 1462.18 -7640.33 1480.18 -7753.37 1445.82 -7863.66 1411.11 -7975.66 1545.86 -7975.66 1580.1 -7863.66 1593.12 -7753.43 1552.12 -7640.33 1514.62 -7528.33 1514.12 -7418.16 1553.12 -7306.1 1548.12 -7193.83 1519.62 -7078.83 1534.12 -6965.16 1575.12 -6852.83 1559.62 -6741.83 1564.12 -6628.1 1534.62 -6513.83 1486.12 -6401.83 1465.12 -6289.83 1471.12 -6180.66 1502.12 -6066.66 1508.12 -5952.83 1534.62 -5841.83 1542.77 -5762.97 1555.62 -5614.66 1554.62 -5505.83 1567.12 -5393.83 1542.12 -5279.1 1498.12 -5168.83 1490.62 -5056.83 1513.12 -4944.83 1568.62 -4833.83 1544.12 -4720.83 1530.62 -4605.1 1523.62 -4493.1 1532.62 -4380.83 1565.12 -4270.83 1543.62 -4158.83 1514.12 -4043.83 1490.12 -3934.1 1495.62 -3819.83 1517.12 -3706.16 1528.12 -3600.83 1580.62 -3488.16 1578.12 -3372.16 1578.12 -3261.66 1560.12 -3150.1 1526.62 -3034.83 1467.62 -2920.83 1381.62 -2809.1 1270.62 -2698.83 1090.12 -2586.1 860.62 -2477.83 1302.12 -2362.83 1377.03 -2250.83 1550.62 -2137.83 1519.62 -2028 1476.12 -1915 1516.13 -1801 1534.62 -1688.66 1552.65 -1578 1585.62 -1464.1 1620.12 -1349 1650.12 -1238 1630.62 -1130.1 1622.45 -1013.1 1565.62 -902 1402.62 -788.66 1173.62 -676 1148.62 -565 1334.62 -450 1283.62 -336 1344.62 -227 1544.62 -114 1602.62 0.34 1627.62 112 1674.62 224.9 1627.62 340 1634.62 452 1686.62 564 1701.62 677 1620.12 789 1606.12 900 1606.12 1013.83 1552.62 1013.83 1549.52 900 1569.62 789 1683.62 677 1667.62 564 1607.62 452 1596.62 339.34 1617.62 225 1584.62 112 1562.62 0 1507.62 -114 1304.62 -227.1 1225.62 -336.1 1236.97 -373.05 1264.87 -450 1082.62 -565 1084.2 -675.49 1323.62 -788 1500.47 -902.1 1573.62 -1013 1600.62 -1130 1604.62 -1238 1569.62 -1349 1514.62 -1464 1447.62 -1578.1 1418.62 -1690 1404.62 -1801 1367.62 -1915 1397.62 -2028 1418.62 -2138.1 1339.62 -2251.1 1246.62 -2362.83 748.62 -2477.83 753.62 -2585.83 910.76 -2698.83 1053.62 -2808.83 1195.2 -2920.83 1311.62 -3035.66 1353.62 -3149.83 1348.62 -3260.83 1364.62 -3372.66 1406.62 -3487.83 1401.62 -3600.83 1429.62 -3705.83 1394.62 -3820.1 1393.2 -3933.83 1391.82 -4044.1 1437.52 -4158.83 1513.62 -4271.1 1505.64 -4380.83 1472.62 -4492.66 1447.62 -4604.83 1440.63 -4720.83 1462.62 -4833.83 1391.1 -4944.83 1348.62 -5056.83 1332.62 -5168.83 1376.98 -5278.83 1375.34 -5394.1 1373.74 -5506.1 1372.19 -5614.66" fill="none" stroke="#3b4351" stroke-miterlimit="10"/><polygon id="Chinese" points="1610.76 -5616.1 1609.69 -5729.1 1608.62 -5842.16 1585.12 -5952.83 1551.62 -6065.83 1509.12 -6179.83 1538.12 -6290.1 1586.62 -6402.1 1616.12 -6513.83 1645.62 -6628.1 1697.12 -6742.1 1714.62 -6853.16 1689.12 -6964.83 1700.12 -7078.83 1676.62 -7193.83 1650.62 -7306.16 1630.62 -7417.83 1620.62 -7528.33 1646.62 -7640.33 1667.62 -7752.99 1651.62 -7863.66 1633.99 -7975.66 1768.79 -7975.66 1768.79 225 1768.79 339.9 1766.12 452 1757.62 564 1736.12 676.9 1676.12 788.9 1661.12 900 1663.62 1013.83 1606.12 1013.83 1606.12 899.9 1620.12 789 1701.62 677 1696.12 563.84 1654.12 452 1681.62 340 1739.62 224.9 1748.62 111.84 1744.12 -0.16 1685.62 -114 1615.12 -224.66 1636.12 -336 1738.62 -450 1761.12 -565 1758.62 -676 1732.12 -788 1695.62 -902 1667.62 -1013 1651.12 -1130 1650.12 -1238 1620.12 -1349 1585.62 -1464.1 1552.62 -1578.1 1535.12 -1690 1516.12 -1801.1 1476.12 -1915 1542.12 -2028 1625.62 -2138.16 1668.12 -2251.16 1666.12 -2362.83 1673.62 -2477.83 1653.62 -2585.83 1602.12 -2699.1 1534.12 -2809.1 1564.12 -2920.83 1598.12 -3035.1 1612.12 -3149.83 1611.01 -3261.1 1592.62 -3372.1 1609.25 -3487.83 1616.07 -3600.83 1553.62 -3705.83 1529.62 -3819.83 1528.62 -3934.1 1555.62 -4043.83 1612.12 -4158.83 1621.12 -4270.83 1587.12 -4380.83 1567.62 -4492.83 1576.62 -4604.83 1571.12 -4720.83 1584.62 -4834.1 1558.62 -4944.83 1545.62 -5057.1 1557.62 -5169.1 1599.62 -5278.83 1625.12 -5394.1 1613.62 -5506.1 1610.76 -5616.1" fill="none" stroke="#3b4351" stroke-miterlimit="10"/><polygon id="Denmark" points="916.62 1013.83 927.62 1013.83 926.37 900 701.12 789 690.87 677 683.87 564 637.87 452 522.37 340 457.37 225 426.62 112 299.62 0 273.62 -114 281.62 -227 289.12 -336 302.12 -450 296.87 -565 275.62 -676 253.62 -788 226.62 -902 210.62 -1013 199.62 -1238 199.37 -1349 291.37 -1464 277.29 -1578 235.95 -1690 188.87 -1801 180.62 -1915 142.62 -2028 139.95 -2137.83 120.62 -2250.83 99.95 -2362.83 73.12 -2477.83 90.34 -2362.83 107.12 -2250.83 118.37 -2137.83 120.37 -2028 122.62 -1915 125.87 -1801 158.37 -1690 185.87 -1578 183.62 -1464 127.62 -1349 119.62 -1238 119.12 -1130 156.87 -1013 188.62 -902 212.62 -788 252.37 -676 277.87 -565 283.37 -450 267.12 -336 248.87 -227 213.87 -114 234.37 0 312.12 112 398.12 225 458.87 340 593.37 452 637.87 564 674.12 677 691.37 789 915.37 900 916.62 1013.83" fill="none" stroke="#3b4351" stroke-miterlimit="10"/><polygon id="England" points="874.62 1013.83 688.95 1013.83 687.95 900 439.12 789 252.12 677 159.62 564 111.62 452 93.62 340 86.12 225 84.62 112 86.95 0 98.28 -114 116.95 -227 114.62 -336 122.62 -450 120.62 -565 108.28 -676 100.16 -788 107.95 -902 107.95 -1013 77.28 -1130 73.12 -2477.83 90.34 -2362.83 93.44 -2250.83 96.58 -2137.83 99.62 -2028 91.95 -1801 94.28 -1690 98.62 -1578 120.28 -1464 89.28 -1349 84.28 -1238 96.28 -1130 133.28 -1013 160.95 -902 172.95 -788 208.95 -676 223.62 -565 228.28 -450 211.62 -336 201.62 -227 189.95 -114 193.28 0 235.28 112 248.62 225 348.62 340 562.62 452 622.12 564 602.12 677 652.12 789 872.95 900 874.62 1013.83" fill="none" stroke="#3b4351" stroke-miterlimit="10"/><polygon id="United_States" data-name="United States" points="348.62 789 211.12 677 141.62 564 111.62 452 93.62 340 86.12 225 84.62 112 79.62 225 82.62 340 87.62 452 107.62 564 145.12 677 167.12 789 198.12 900 200.12 1013.83 500.37 1013.83 500.37 900 348.62 789" fill="none" stroke="#3b4351" stroke-miterlimit="10"/><polygon id="South_America" data-name="South America" points="108.28 -676 120.62 -565 122.62 -450 114.62 -336 116.95 -227 98.28 -114 86.95 0 84.62 112 79.62 225 82.62 340 87.62 452 107.62 564 145.12 677 167.12 789 198.12 900 200.12 1013.83 77.28 1013.83 77.28 -1130 107.95 -1013 107.95 -902 100.16 -788 108.28 -676" fill="none" stroke="#3b4351" stroke-miterlimit="10"/><polygon id="France" points="674.34 112 785.95 224.67 815.95 340 963.28 452 1049.29 564 932.62 677 899.28 789 1099.75 901 1102.12 1013.83 946.74 1013.83 946.24 900 748.62 789 745.95 677 741.28 564 711.95 452 643.28 340 613.28 225 535.95 112 385.29 0 317.95 -114 311.95 -227 310.62 -336 321.29 -450 314.62 -565 275.62 -676 253.62 -788 258.62 -899.33 325.29 -1013 314.62 -1130 286.62 -1238 249.62 -1349 291.37 -1464 409.62 -1464 362.62 -1349 373.95 -1238 423.58 -1130 444.62 -1013 381.95 -899.33 347.12 -788 361.29 -676 384.62 -565 391.95 -450 365.95 -336 379.95 -227 391.29 -114 491.95 0 674.34 112" fill="none" stroke="#3b4351" stroke-miterlimit="10"/><polygon id="Franks_to_Holy_Roman_Empire" data-name="Franks to Holy Roman Empire" points="594.62 -788 505.62 -676 482.62 -565 599.12 -450 617.12 -336 639.62 -227 772.62 -114 953.62 0 1131.62 112 1201.62 225 1109.12 340 1144.62 452 1249.12 564 1301.62 677 1217.12 789 1288.12 900 1290.62 1013.83 1234.62 1013.83 1232.12 900 1140.12 788.91 1137.62 677 1115.62 564 1053.62 452 973.12 340 1064.12 225 953.62 112 741.12 0 577.12 -114 525.62 -227 418.62 -336 417.62 -450 407.62 -565 385.62 -676 406.62 -788 421.62 -898.33 466.62 -1013 441.95 -1130 373.95 -1238 371.78 -1259.31 362.62 -1349 409.62 -1464 559.62 -1464 626.73 -1349 742.62 -1238 897.74 -1130 874.62 -1013 818.62 -901.4 594.62 -788" fill="none" stroke="#3b4351" stroke-miterlimit="10"/><polygon points="703.28 -1349 815.28 -1238 966.12 -1130 987.12 -1013 1028.12 -902 932.12 -788 729.62 -676 630.12 -565 721.12 -450 711.95 -336 829.93 -227 854.62 -114 1030.37 0 1169.87 112 1257.37 225 1158.4 340 1196.12 452 1147.62 340 1238.87 225 1162.87 112 1022.62 0 841.12 -114 809.62 -227 692.62 -336 689.38 -450 586.62 -565 584.12 -676 663.53 -788 851.12 -902 874.62 -1013 897.74 -1130 742.62 -1238 626.73 -1349 559.62 -1464 644.62 -1464 703.28 -1349" fill="none" stroke="#3b4351" stroke-miterlimit="10"/><polygon id="Holland" points="613.28 225 643.28 340 711.95 452 741.28 564 729.95 677 732.62 789 935.28 900 937.12 1013.83 927.62 1013.83 926.37 900 701.12 789 690.87 677 683.87 564 637.87 452 522.37 340 457.37 225 426.62 112 299.62 0 273.62 -114 281.62 -227 289.12 -336 302.12 -450 296.87 -565 275.62 -676 314.62 -565 321.29 -450 310.62 -336 311.95 -227 317.95 -114 385.29 0 535.95 112 613.28 225" fill="none" stroke="#3b4351" stroke-miterlimit="10"/><polygon id="Sweden" points="691.37 789 673.95 789 893.62 900 895.28 1013.83 874.62 1013.83 872.95 900 652.12 789 602.12 677 622.12 564 562.62 452 348.62 340 248.62 225 235.28 112 193.28 0 189.95 -114 201.62 -227 211.62 -336 228.28 -450 223.62 -565 208.95 -676 172.95 -788 160.95 -902 186.86 -788 220.95 -676 252.95 -565 258.95 -450 243.95 -336 222.62 -227 213.87 -114 234.37 0 312.12 112 398.12 225 458.87 340 593.37 452 637.87 564 674.12 677 691.37 789" fill="none" stroke="#3b4351" stroke-miterlimit="10"/><polygon points="1523.12 564.84 1446.62 452 1405.12 340.56 1442.62 225 1396.62 112 1391.62 0 1351.62 -114 1183.62 -227 1092.62 -336 1124.29 -450 970.62 -565 1005.12 -676 1166.62 -788 1313.55 -899.05 1315.29 -899 1317.44 -902 1317.44 -902 1317.44 -902 1397.29 -1013 1463.95 -1130 1481.95 -1238 1488.62 -1349 1453.62 -1464 1382.62 -1349 1328.62 -1238 1225.12 -1130 1161.29 -1013 1218.62 -902 1218.62 -902 1218.62 -902 1131.95 -788 936.62 -676 798.62 -565 819.28 -450 759.95 -336 849.28 -227 947.12 -114 1111.12 0 1208.62 112 1293.62 225 1244.12 340.56 1280.62 452 1381.12 564 1410.62 677 1358.62 789 1436.62 900 1436.62 1013.83 1467.62 1013.83 1467.62 900 1423.62 789 1492.62 677 1523.12 564.84" fill="none" stroke="#3b4351" stroke-miterlimit="10"/><polygon id="Spain" points="1117.95 901.41 1119.29 1013.83 1102.12 1013.83 1099.75 901 899.28 789 932.62 677 1049.29 564 963.28 452 815.95 340 785.95 224.67 674.34 112 491.95 0 391.29 -114 379.95 -227 365.95 -336 391.95 -450 384.62 -565 361.29 -676 347.12 -788 383.43 -902 444.62 -1013 423.58 -1130 373.95 -1238 441.95 -1130 466.62 -1013 423.06 -902 406.62 -788 385.62 -676 407.62 -565 417.62 -450 401.95 -336 463.29 -227 491.29 -114 631.28 0.41 844.62 112 937.12 226.34 922.62 340 997.95 452 1065.62 564 1035.29 677 959.28 789 1117.95 901.41" fill="none" stroke="#3b4351" stroke-miterlimit="10"/><polygon id="Portugal" points="946.95 340 1015.62 452 1078.95 564 1052.2 677 969.62 789 1125.62 900 1126.95 1013.83 1119.29 1013.83 1117.95 901.41 959.28 789 1035.29 677 1065.62 564 997.95 452 922.62 340 937.12 226.34 844.62 112 631.28 0.41 491.29 -114 463.29 -227 401.95 -336 417.62 -450 418.62 -336 525.62 -227 577.12 -114 741.12 0 953.62 112 1064.12 225 946.95 340" fill="none" stroke="#3b4351" stroke-miterlimit="10"/><polygon id="Hungary" points="753.62 -227 797.62 -114 970.62 0 1131.62 112 953.62 0 772.62 -114 639.62 -227 617.12 -336 599.12 -450 482.62 -565 505.62 -676 505.62 -565 610.34 -450 632.89 -336 753.62 -227" fill="none" stroke="#3b4351" stroke-miterlimit="10"/><polygon id="Italy" points="586.62 -565 689.38 -450 692.62 -336 809.62 -227 841.12 -114 1022.62 0 1162.87 112 1238.87 225 1147.62 340 1196.12 452 1326.62 564.84 1351.29 677 1294.95 789 1361.29 900 1361.29 1013.83 1303.29 1013.83 1300.29 900 1229.95 789 1317.95 677 1262.95 564.84 1153.29 452 1109.12 340 1201.62 225 1131.62 112 970.62 0 797.62 -114 753.62 -227 632.89 -336 610.34 -450 505.62 -565 505.62 -676 594.62 -788 818.62 -901.4 874.62 -1013 851.12 -902 663.53 -788 584.12 -676 586.62 -565" fill="none" stroke="#3b4351" stroke-miterlimit="10"/><polygon id="Russia" points="1552.62 1013.83 1467.62 1013.83 1467.62 900 1423.62 789 1492.62 677 1523.12 564.84 1471.87 452 1443.87 340 1536.12 225.34 1518.87 112 1513.87 0 1454.87 -114 1270.87 -227 1200.12 -336 1264.87 -450 1225.62 -336.1 1304.62 -227.1 1507.62 -114 1562.62 0 1584.62 112 1617.62 225 1596.62 339.34 1607.62 452 1667.62 564 1683.62 677 1569.62 789 1549.52 900 1552.62 1013.83" fill="none" stroke="#3b4351" stroke-miterlimit="10"/><polygon id="POland" points="1518.87 112 1536.12 225.34 1443.87 340 1471.87 452 1523.12 564.84 1446.62 452 1405.12 340.56 1442.62 225 1396.62 112 1391.62 0 1351.62 -114 1183.62 -227 1155.87 -336 1195.12 -450 1027.37 -565 1026.12 -676 1082.62 -565 1264.87 -450 1200.12 -336 1270.87 -227 1454.87 -114 1513.87 0 1518.87 112" fill="none" stroke="#3b4351" stroke-miterlimit="10"/><polygon id="Mogolians" points="1334.62 -450 1148.62 -565 1173.62 -676 1402.62 -788.66 1565.62 -902 1622.45 -1013.1 1630.62 -1130.1 1650.12 -1238 1651.12 -1130 1667.62 -1013 1695.62 -902 1732.12 -788 1758.62 -676 1761.12 -565 1738.62 -450 1636.12 -336 1615.56 -227 1685.62 -114 1744.12 -0.16 1748.42 114.28 1739.62 224.9 1681.62 340 1654.12 452 1696.12 563.84 1701.62 677 1686.62 564 1634.62 452 1627.62 340 1674.62 224.9 1627.62 112 1602.62 0.34 1544.62 -114 1344.62 -227 1283.62 -336 1334.62 -450" fill="none" stroke="#3b4351" stroke-miterlimit="10"/><polygon points="1111.12 0 1208.62 112 1293.62 225 1244.12 340.56 1280.62 452 1381.12 564 1410.62 677 1358.62 789 1436.62 900 1436.62 1013.83 1425.29 1013.83 1424.62 900 1347.62 789 1385.95 677 1326.62 564.84 1196.12 452 1158.4 340 1257.37 225 1169.87 112 1030.37 0 854.62 -114 849.28 -227 947.12 -114 1111.12 0" fill="none" stroke="#3b4351" stroke-miterlimit="10"/></g><g id="Text"><g id="France-2" data-name="France"><path d="M515.45,73.19h9.33v2.35h-6.54v4.85h6.15v2.35h-6.15v7.94h-2.79Z" fill="#3b4351"/><path d="M526.79,73.19H533c2.45,0,4.44,1.25,4.44,4.5,0,2.26-1,4-2.92,4.29v0c1.77.17,2.65,1.13,2.75,3.58,0,1.15,0,2.5.1,3.55a1.89,1.89,0,0,0,.83,1.52H535a3,3,0,0,1-.47-1.54c0-.52-.07-1.06-.07-1.57s0-1.1-.05-1.74c-.07-1.91-.66-2.74-2.55-2.74h-2.28v7.59h-2.79Zm5,7.79a2.58,2.58,0,0,0,2.8-2.84c0-1.87-.79-2.85-2.65-2.85h-2.38V81Z" fill="#3b4351"/><path d="M543.25,73.19h3.58l4.61,17.49h-2.92l-1.08-4.29h-5.12l-1.13,4.29h-2.91Zm3.73,11-2-8.62h-.05l-2.08,8.62Z" fill="#3b4351"/><path d="M552.66,73.19h3.41l5.07,13h.05v-13h2.64V90.68h-3.4L555.36,77.3h-.05V90.68h-2.65Z" fill="#3b4351"/><path d="M577.48,84.41v.37c0,3.16-1.3,6.25-5.39,6.25-4.41,0-5.78-2.85-5.78-9.1s1.37-9.09,5.8-9.09c5,0,5.27,3.65,5.27,5.49v.32h-2.79v-.29c0-1.65-.49-3.48-2.5-3.41s-3,1.27-3,6.91.91,7.06,3,7.06c2.35,0,2.6-2.57,2.6-4.22v-.29Z" fill="#3b4351"/><path d="M579.44,73.19h9.46v2.35h-6.67v4.85h6.27v2.35h-6.27v5.59h6.86v2.35h-9.65Z" fill="#3b4351"/></g><g id="SWEDEN-2" data-name="SWEDEN"><path d="M245.51,93.33v.44c0,2.13,1,3.21,2.87,3.21A2.51,2.51,0,0,0,251,94.43c0-1.84-.93-2.64-2.5-3.11l-1.91-.66c-2.55-1-3.66-2.31-3.66-4.81,0-3.18,2.18-4.95,5.44-4.95,4.49,0,4.95,2.8,4.95,4.61v.39h-2.79v-.36c0-1.6-.69-2.53-2.45-2.53a2.23,2.23,0,0,0-2.35,2.53c0,1.49.76,2.25,2.62,3l1.89.69c2.47.88,3.55,2.2,3.55,4.63,0,3.72-2.25,5.27-5.78,5.27-4.34,0-5.32-2.89-5.32-5.34v-.42Z" fill="#3b4351"/><path d="M254.77,81.25h2.82l2.3,13.6h.05l2.31-13.6h2.94l2.35,13.67h0l2.28-13.67h2.77l-3.48,17.49h-3.24l-2.25-13.18h-.05l-2.23,13.18h-3.24Z" fill="#3b4351"/><path d="M274.23,81.25h9.45V83.6H277v4.85h6.27V90.8H277v5.59h6.86v2.35h-9.65Z" fill="#3b4351"/><path d="M286,81.25h5c5.49,0,6.18,3.58,6.18,8.75s-.69,8.74-6.18,8.74h-5Zm2.79,15.39h2.31c2.3,0,3.26-1.52,3.26-6.64,0-4.93-.84-6.65-3.26-6.65H288.8Z" fill="#3b4351"/><path d="M299.63,81.25h9.46V83.6h-6.66v4.85h6.27V90.8h-6.27v5.59h6.86v2.35h-9.66Z" fill="#3b4351"/><path d="M311.42,81.25h3.4l5.07,13h.05v-13h2.65V98.74h-3.41l-5.07-13.38h-.05V98.74h-2.64Z" fill="#3b4351"/></g><g id="Spain-2" data-name="Spain"><path d="M670.86,95.87v.44c0,2.13.95,3.21,2.86,3.21A2.51,2.51,0,0,0,676.37,97c0-1.84-.93-2.64-2.5-3.11L672,93.2c-2.55-1-3.65-2.3-3.65-4.8,0-3.19,2.18-5,5.44-5,4.48,0,5,2.79,5,4.6v.4h-2.8v-.37c0-1.6-.68-2.53-2.45-2.53a2.23,2.23,0,0,0-2.35,2.53c0,1.49.76,2.25,2.62,3l1.89.69c2.47.88,3.55,2.2,3.55,4.63,0,3.72-2.25,5.27-5.78,5.27-4.34,0-5.32-2.89-5.32-5.34v-.42Z" fill="#3b4351"/><path d="M681.41,83.79H687c3.36,0,4.83,2.11,4.83,5.1s-1.86,5.17-5.12,5.17h-2.45v7.23h-2.8Zm2.8,8.16h2c1.5,0,2.8-.79,2.8-3,0-1.88-.76-3-3-3h-1.79Z" fill="#3b4351"/><path d="M696.07,83.79h3.57l4.61,17.5h-2.91L700.26,97h-5.12L694,101.29h-2.92Zm3.72,11-2-8.63h0l-2.08,8.63Z" fill="#3b4351"/><path d="M705.35,83.79h2.79v17.5h-2.79Z" fill="#3b4351"/><path d="M710.91,83.79h3.41l5.07,13h.05v-13h2.65v17.5h-3.41l-5.07-13.38h-.05v13.38h-2.65Z" fill="#3b4351"/></g></g></svg>