<svg xmlns="http://www.w3.org/2000/svg" viewBox="0 0 1847.91 113"><title>ce1650text</title><g id="Text"><g id="Indians"><path d="M1575,12.33h4.36l3.09,13h0l3-13h4.26v17.5h-2.64V15.27h-.05l-3.53,14.56h-2.35l-3.53-14.56h0V29.83H1575Z"/><path d="M1592,23.23c0-4.11,1.08-6.93,4.9-6.93s4.93,2.82,4.93,6.93-1.27,6.94-4.93,6.94S1592,27.35,1592,23.23Zm4.9,5c1.94,0,2.28-1.62,2.28-5,0-2.91-.34-5-2.28-5s-2.25,2.06-2.25,5C1594.63,26.59,1595,28.21,1596.88,28.21Z"/><path d="M1606.49,31a1.72,1.72,0,0,0,1.91,1.57,2.18,2.18,0,0,0,2.23-2.47V27.91h-.05a3.19,3.19,0,0,1-3,1.82c-3.06,0-3.95-3-3.95-6.64,0-2.89.45-6.79,4.2-6.79a2.91,2.91,0,0,1,2.89,2h0V16.64h2.5V29.19c0,3.21-1.38,5.14-4.93,5.14-3.92,0-4.36-2.3-4.36-3.38Zm1.86-3.33c2.06,0,2.28-2.6,2.28-4.68s-.27-4.53-2.11-4.53-2.23,2-2.23,4.41C1606.29,25.07,1606.39,27.62,1608.35,27.62Z"/><path d="M1622.36,28.28h-.07a3.77,3.77,0,0,1-3.38,1.89c-2,0-3.28-.91-3.28-4.31V16.64h2.64V26.1c0,1.47.64,2,1.79,2a2.06,2.06,0,0,0,2.16-2.2V16.64h2.64V29.83h-2.5Z"/><path d="M1627.53,12.33h2.65v17.5h-2.65Z"/><path d="M1572.44,39.33h5c5.49,0,6.18,3.58,6.18,8.75s-.69,8.75-6.18,8.75h-5Zm2.8,15.39h2.3c2.31,0,3.26-1.52,3.26-6.64,0-4.93-.83-6.64-3.26-6.64h-2.3Z"/><path d="M1587.66,43.64l2.28,9.9h0l2.11-9.9h2.76l-3.62,13.68c-1.06,3.6-1.86,4.09-4.61,4a5.26,5.26,0,0,1-1.05-.1V59.13a3.53,3.53,0,0,0,.85.1c.91,0,1.5-.17,1.79-1l.35-1.08-3.75-13.48Z"/><path d="M1596.33,43.64h2.5v1.55h.08a3.77,3.77,0,0,1,3.38-1.89c2,0,3.28.91,3.28,3.58v9.95h-2.65v-9c0-1.76-.46-2.37-1.83-2.37-1.08,0-2.11.8-2.11,2.57v8.85h-2.65Z"/><path d="M1616.77,54.08c0,.49.29.93.68.93a1,1,0,0,0,.44-.07v1.71a2.67,2.67,0,0,1-1.29.32c-1.18,0-2.16-.46-2.23-1.74h0a3.41,3.41,0,0,1-3.29,1.94c-2.13,0-3.43-1.15-3.43-3.7,0-2.94,1.3-3.55,3.07-4.14l2-.57c1-.27,1.55-.54,1.55-1.69s-.42-2-1.82-2c-1.76,0-2,1.25-2,2.53h-2.5c0-2.82,1.16-4.34,4.64-4.34,2.32,0,4.19.91,4.19,3.23Zm-2.5-4.21a20.45,20.45,0,0,1-2.94,1.22,2.17,2.17,0,0,0-1.08,2.13c0,1.11.54,2,1.64,2,1.59,0,2.38-1.18,2.38-3.14Z"/><path d="M1625.14,47.49v-.34c0-1.06-.36-2-1.73-2-1.06,0-1.89.47-1.89,1.72,0,1.05.46,1.44,1.86,1.93l1.69.59c2,.66,2.87,1.72,2.87,3.8,0,2.82-2.08,4-4.73,4-3.33,0-4.34-1.55-4.34-4.09v-.49h2.35V53c0,1.55.52,2.36,2.06,2.36s2.16-.74,2.16-1.94a1.91,1.91,0,0,0-1.45-1.94l-2.15-.76c-2-.66-2.82-1.69-2.82-3.79,0-2.48,1.76-3.63,4.51-3.63,3.36,0,4.11,2,4.11,3.6v.59Z"/><path d="M1628.72,43.64h1.81V39.89h2.65v3.75h2.16v2h-2.16v7.87c0,1.05.3,1.4,1.2,1.4a5,5,0,0,0,1-.08v2a8.55,8.55,0,0,1-2.13.22c-1.77,0-2.68-.51-2.68-3.18V45.6h-1.81Z"/><path d="M1638.47,43.64l2.28,9.9h0l2.11-9.9h2.77l-3.63,13.68c-1,3.6-1.86,4.09-4.61,4a5.41,5.41,0,0,1-1-.1V59.13a3.55,3.55,0,0,0,.86.1c.9,0,1.49-.17,1.79-1l.34-1.08-3.75-13.48Z"/></g></g><g id="YEARS"><g id="Right"><path d="M1787.94,109.23V95.87h-3.83V93.94h.29c1.77,0,3.8-.44,4.34-2.76v-.36h2.16v18.41Z"/><path d="M1803.56,95.29c0-1.06-.52-2.39-2-2.39-2.79,0-2.94,3.64-2.94,6.35l.08,0a3.75,3.75,0,0,1,3.58-2c2.53,0,4.55,1.82,4.55,5.48,0,4.24-1.76,6.76-5.64,6.76-4.65,0-5.54-3.53-5.54-8.81,0-5.51,1-10,5.88-10,3.25,0,5,1.43,5,4.47Zm-2.1,12.22c1.79,0,2.44-1.79,2.44-4,0-2.57-.75-4-2.44-4-2.19,0-2.55,1.9-2.55,4.11S1799.71,107.51,1801.46,107.51Z"/><path d="M1808.35,104.26h2.8v.5a2.36,2.36,0,0,0,2.42,2.6c2.08,0,2.63-2,2.63-4.19s-.57-3.92-2.47-3.92a2.35,2.35,0,0,0-2.42,1.69l-2.63-.11.91-9.65h8.87v2.37h-6.66l-.59,4.84,0,0a4,4,0,0,1,3.09-1.43c3.85,0,4.81,3.25,4.81,6.08,0,3.7-1.69,6.5-5.67,6.5-3.3,0-5.14-1.69-5.14-4.94Z"/><path d="M1826.23,90.82c3.54,0,5.52,2.21,5.52,9.39s-2,9.38-5.52,9.38-5.51-2.21-5.51-9.38S1822.7,90.82,1826.23,90.82Zm0,16.69c2,0,2.55-2,2.55-7.3s-.55-7.31-2.55-7.31-2.55,2-2.55,7.31S1824.23,107.51,1826.23,107.51Z"/></g><g id="Layer_34" data-name="Layer 34"><path d="M28.19,112.83V99.46H24.37V97.54h.28c1.77,0,3.8-.44,4.34-2.76v-.36h2.16v18.41Z"/><path d="M43.81,98.89c0-1.07-.52-2.39-2-2.39-2.78,0-2.94,3.64-2.94,6.34l.08,0A3.76,3.76,0,0,1,42.56,101c2.53,0,4.55,1.81,4.55,5.48,0,4.24-1.76,6.76-5.64,6.76-4.65,0-5.54-3.53-5.54-8.81,0-5.51,1-10,5.88-10,3.25,0,5,1.43,5,4.47Zm-2.1,12.22c1.79,0,2.44-1.79,2.44-4,0-2.58-.75-4-2.44-4-2.19,0-2.55,1.9-2.55,4.11S40,111.11,41.71,111.11Z"/><path d="M48.6,107.86h2.8v.5a2.36,2.36,0,0,0,2.42,2.6c2.08,0,2.63-2,2.63-4.19s-.57-3.93-2.47-3.93a2.36,2.36,0,0,0-2.42,1.69l-2.63-.1.91-9.65h8.87v2.37H52.05L51.46,102l0,.06a4,4,0,0,1,3.09-1.43c3.85,0,4.81,3.25,4.81,6.08,0,3.69-1.69,6.5-5.67,6.5-3.3,0-5.14-1.69-5.14-4.94Z"/><path d="M66.48,94.42C70,94.42,72,96.63,72,103.8s-2,9.39-5.52,9.39S61,111,61,103.8,63,94.42,66.48,94.42Zm0,16.69c2,0,2.55-2,2.55-7.31s-.54-7.3-2.55-7.3-2.54,2-2.54,7.3S64.48,111.11,66.48,111.11Z"/></g></g></svg>