<svg xmlns="http://www.w3.org/2000/svg" viewBox="0 0 1847.91 112"><title>ce1750text</title><g id="YEARS"><g id="Right"><path d="M1787.21,106.56V93.2h-3.82V91.27h.29c1.77,0,3.79-.44,4.34-2.75v-.37h2.16v18.41Z"/><path d="M1795.09,88.52H1806v2.34a32.18,32.18,0,0,0-5.8,15.7h-3.12a31.47,31.47,0,0,1,6.06-15.39h-8.06Z"/><path d="M1807.62,101.6h2.81v.49a2.35,2.35,0,0,0,2.42,2.6c2.08,0,2.63-2,2.63-4.19s-.58-3.92-2.48-3.92a2.34,2.34,0,0,0-2.41,1.69l-2.63-.11.91-9.64h8.87v2.36h-6.66l-.6,4.84,0,0a4.08,4.08,0,0,1,3.1-1.43c3.85,0,4.81,3.25,4.81,6.09,0,3.69-1.69,6.5-5.67,6.5-3.3,0-5.15-1.69-5.15-4.94Z"/><path d="M1825.51,88.15c3.54,0,5.51,2.21,5.51,9.39s-2,9.39-5.51,9.39-5.51-2.21-5.51-9.39S1822,88.15,1825.51,88.15Zm0,16.7c2,0,2.55-2,2.55-7.31s-.55-7.31-2.55-7.31-2.55,2-2.55,7.31S1823.51,104.85,1825.51,104.85Z"/></g><g id="left"><path d="M17.46,110.16V96.8H13.64V94.87h.29c1.77,0,3.79-.44,4.34-2.75v-.37h2.16v18.41Z"/><path d="M25.34,92.12H36.26v2.34a32.18,32.18,0,0,0-5.8,15.7H27.34A31.47,31.47,0,0,1,33.4,94.77H25.34Z"/><path d="M37.87,105.2h2.81v.49a2.35,2.35,0,0,0,2.42,2.6c2.08,0,2.63-2,2.63-4.19s-.58-3.92-2.48-3.92a2.34,2.34,0,0,0-2.41,1.69l-2.63-.11.91-9.64H48v2.36H41.33l-.6,4.84.06.05a4,4,0,0,1,3.09-1.43c3.85,0,4.81,3.25,4.81,6.09,0,3.69-1.69,6.5-5.67,6.5-3.3,0-5.15-1.7-5.15-5Z"/><path d="M55.76,91.75c3.54,0,5.51,2.21,5.51,9.39s-2,9.39-5.51,9.39-5.51-2.22-5.51-9.39S52.22,91.75,55.76,91.75Zm0,16.7c2,0,2.55-2,2.55-7.31s-.55-7.31-2.55-7.31-2.55,2-2.55,7.31S53.76,108.45,55.76,108.45Z"/><path d="M17.46.39V-13H13.64V-14.9h.29c1.77,0,3.79-.44,4.34-2.75V-18h2.16V.39Z"/><path d="M25.34-17.65H36.26v2.34A32.18,32.18,0,0,0,30.46.39H27.34A31.47,31.47,0,0,1,33.4-15H25.34Z"/><path d="M43.28-18c3.54,0,5.51,2.21,5.51,9.39S46.82.75,43.28.75s-5.51-2.21-5.51-9.38S39.75-18,43.28-18Zm0,16.69c2,0,2.55-2,2.55-7.3s-.55-7.31-2.55-7.31-2.55,2-2.55,7.31S41.28-1.33,43.28-1.33Z"/><path d="M55.76-18c3.54,0,5.51,2.21,5.51,9.39S59.3.75,55.76.75s-5.51-2.21-5.51-9.38S52.22-18,55.76-18Zm0,16.69c2,0,2.55-2,2.55-7.3s-.55-7.31-2.55-7.31-2.55,2-2.55,7.31S53.76-1.33,55.76-1.33Z"/></g></g><g id="Text"><g id="Chinese"><path d="M1689.4,11.56h5c5.49,0,6.18,3.58,6.18,8.75s-.69,8.74-6.18,8.74h-5ZM1692.19,27h2.31c2.3,0,3.25-1.52,3.25-6.64,0-4.93-.83-6.64-3.25-6.64h-2.31Z" fill="#3b4351"/><path d="M1704.61,15.87l2.28,9.9h0l2.11-9.9h2.77l-3.63,13.67c-1,3.61-1.86,4.1-4.61,4a5.39,5.39,0,0,1-1-.09V31.36a3.55,3.55,0,0,0,.86.1c.9,0,1.49-.17,1.79-1l.34-1.08-3.75-13.48Z" fill="#3b4351"/><path d="M1713.29,15.87h2.5v1.54h.07a3.78,3.78,0,0,1,3.38-1.88c2,0,3.28.9,3.28,3.58v9.94h-2.64V20c0-1.76-.47-2.37-1.84-2.37-1.08,0-2.11.8-2.11,2.57v8.84h-2.64Z" fill="#3b4351"/><path d="M1733.72,26.31c0,.49.29.93.69.93a1,1,0,0,0,.44-.07v1.71a2.86,2.86,0,0,1-1.3.32c-1.18,0-2.16-.46-2.23-1.74h0A3.41,3.41,0,0,1,1728,29.4c-2.14,0-3.43-1.15-3.43-3.7,0-2.94,1.29-3.56,3.06-4.14l2.06-.57c1-.27,1.54-.54,1.54-1.69s-.42-2-1.81-2c-1.77,0-2,1.25-2,2.53h-2.5c0-2.82,1.15-4.34,4.63-4.34,2.33,0,4.19.9,4.19,3.23Zm-2.5-4.21a21.14,21.14,0,0,1-2.94,1.22,2.17,2.17,0,0,0-1.08,2.13c0,1.11.54,2,1.64,2,1.6,0,2.38-1.18,2.38-3.14Z" fill="#3b4351"/><path d="M1742.1,19.72v-.35c0-1.05-.37-2-1.74-2-1,0-1.89.47-1.89,1.72,0,1.05.47,1.44,1.86,1.93l1.69.59c2,.66,2.87,1.72,2.87,3.8,0,2.82-2.08,4-4.73,4-3.33,0-4.34-1.55-4.34-4.09v-.49h2.36v.41c0,1.55.51,2.35,2.06,2.35s2.15-.73,2.15-1.93a1.91,1.91,0,0,0-1.44-1.94l-2.16-.76c-2-.66-2.82-1.69-2.82-3.8,0-2.47,1.77-3.62,4.51-3.62,3.36,0,4.12,2,4.12,3.6v.59Z" fill="#3b4351"/><path d="M1745.67,15.87h1.82V12.12h2.64v3.75h2.16v2h-2.16V25.7c0,1.05.3,1.39,1.2,1.39a5,5,0,0,0,1-.07v2a8.44,8.44,0,0,1-2.13.22c-1.77,0-2.67-.51-2.67-3.18V17.83h-1.82Z" fill="#3b4351"/><path d="M1755.43,15.87l2.27,9.9h0l2.11-9.9h2.77L1759,29.54c-1,3.61-1.86,4.1-4.6,4a5.42,5.42,0,0,1-1.06-.09V31.36a3.67,3.67,0,0,0,.86.1c.91,0,1.49-.17,1.79-1l.34-1.08-3.75-13.48Z" fill="#3b4351"/></g><g id="England_Norway_Denmark" data-name="England Norway Denmark"><path d="M518.64,32.33h5c5.49,0,6.18,3.57,6.18,8.74s-.69,8.75-6.18,8.75h-5Zm2.79,15.39h2.3c2.31,0,3.26-1.52,3.26-6.65,0-4.92-.83-6.64-3.26-6.64h-2.3Z" fill="#3b4351"/><path d="M532.26,32.33h9.46v2.35h-6.67v4.85h6.28v2.35h-6.28v5.59h6.86v2.35h-9.65Z" fill="#3b4351"/><path d="M544,32.33h3.41l5.07,13h.05v-13h2.65V49.82h-3.41l-5.07-13.38h0V49.82H544Z" fill="#3b4351"/><path d="M558.1,32.33h4.37l3.08,13h.05l3-13h4.27V49.82h-2.65V35.27h0l-3.53,14.55h-2.35L560.8,35.27h0V49.82H558.1Z" fill="#3b4351"/><path d="M579.1,32.33h3.58l4.61,17.49h-2.92l-1.08-4.28h-5.12L577,49.82h-2.91Zm3.73,11-2-8.62h-.05l-2.09,8.62Z" fill="#3b4351"/><path d="M588.51,32.33h6.17c2.45,0,4.44,1.25,4.44,4.5,0,2.26-1,4-2.92,4.29v.05c1.77.17,2.65,1.13,2.75,3.58,0,1.15,0,2.5.1,3.55a1.89,1.89,0,0,0,.83,1.52h-3.16a3,3,0,0,1-.47-1.54c0-.52-.07-1.05-.07-1.57s0-1.1,0-1.74c-.07-1.91-.66-2.74-2.55-2.74H591.3v7.59h-2.79Zm5,7.79a2.58,2.58,0,0,0,2.8-2.84c0-1.87-.79-2.85-2.65-2.85H591.3v5.69Z" fill="#3b4351"/><path d="M601.66,32.33h2.8V40h0l5.29-7.62h3.06l-5,7.37,5.58,10.12h-3.16L606,42l-1.54,2.2v5.66h-2.8Z" fill="#3b4351"/></g><g id="Russia"><path d="M1485.63,89.91h6.17c2.45,0,4.44,1.25,4.44,4.51,0,2.25-1,4-2.92,4.29v0c1.77.18,2.65,1.13,2.75,3.58,0,1.15,0,2.5.1,3.56a1.89,1.89,0,0,0,.83,1.51h-3.16a3,3,0,0,1-.47-1.54c0-.51-.07-1-.07-1.57s0-1.1,0-1.74c-.07-1.91-.66-2.74-2.55-2.74h-2.28v7.59h-2.79Zm5,7.79a2.58,2.58,0,0,0,2.8-2.84c0-1.86-.79-2.84-2.65-2.84h-2.38V97.7Z" fill="#3b4351"/><path d="M1501.36,89.91v12.55c0,2.22.88,3.18,2.57,3.18s2.55-1,2.55-3.18V89.91h2.79v12.32c0,4-2,5.52-5.34,5.52s-5.37-1.47-5.37-5.52V89.91Z" fill="#3b4351"/><path d="M1514.1,102v.44c0,2.13,1,3.21,2.86,3.21a2.51,2.51,0,0,0,2.65-2.55c0-1.84-.93-2.64-2.5-3.11l-1.91-.66c-2.55-1-3.65-2.31-3.65-4.81,0-3.18,2.18-5,5.44-5,4.48,0,5,2.8,5,4.61v.39h-2.79V94.2c0-1.6-.69-2.53-2.46-2.53a2.23,2.23,0,0,0-2.35,2.53c0,1.49.76,2.25,2.62,3l1.89.69c2.48.88,3.55,2.2,3.55,4.63,0,3.72-2.25,5.27-5.78,5.27-4.34,0-5.32-2.89-5.32-5.34V102Z" fill="#3b4351"/><path d="M1526.81,102v.44c0,2.13,1,3.21,2.87,3.21a2.51,2.51,0,0,0,2.65-2.55c0-1.84-.93-2.64-2.5-3.11l-1.91-.66c-2.55-1-3.66-2.31-3.66-4.81,0-3.18,2.19-5,5.44-5,4.49,0,5,2.8,5,4.61v.39h-2.79V94.2c0-1.6-.68-2.53-2.45-2.53a2.23,2.23,0,0,0-2.35,2.53c0,1.49.76,2.25,2.62,3l1.89.69c2.47.88,3.55,2.2,3.55,4.63,0,3.72-2.25,5.27-5.78,5.27-4.34,0-5.32-2.89-5.32-5.34V102Z" fill="#3b4351"/><path d="M1537.25,89.91H1540V107.4h-2.79Z" fill="#3b4351"/><path d="M1546.12,89.91h3.58l4.6,17.49h-2.91l-1.08-4.28h-5.12l-1.13,4.28h-2.92Zm3.72,11-2-8.63h0l-2.08,8.63Z" fill="#3b4351"/></g></g></svg>