<svg xmlns="http://www.w3.org/2000/svg" viewBox="0 0 1847.91 112"><title>ce1750text</title><g id="YEARS"><g id="Right"><path d="M1792.5,105V91.59h-3.82V89.67h.28c1.77,0,3.8-.44,4.35-2.76v-.36h2.15V105Z" fill="#3b4351"/><path d="M1800.38,86.91h10.92v2.34a32.06,32.06,0,0,0-5.8,15.71h-3.12a31.28,31.28,0,0,1,6.06-15.39h-8.06Z" fill="#3b4351"/><path d="M1812.91,100h2.81v.5a2.35,2.35,0,0,0,2.41,2.6c2.08,0,2.63-2,2.63-4.19s-.57-3.93-2.47-3.93a2.36,2.36,0,0,0-2.42,1.69l-2.62-.1.91-9.65H1823v2.37h-6.65l-.6,4.84,0,0a4.06,4.06,0,0,1,3.09-1.43c3.85,0,4.81,3.25,4.81,6.08,0,3.69-1.69,6.5-5.66,6.5-3.31,0-5.15-1.69-5.15-4.94Z" fill="#3b4351"/><path d="M1830.8,86.55c3.53,0,5.51,2.21,5.51,9.39s-2,9.38-5.51,9.38-5.52-2.21-5.52-9.38S1827.26,86.55,1830.8,86.55Zm0,16.69c2,0,2.54-2,2.54-7.3s-.54-7.31-2.54-7.31-2.55,2-2.55,7.31S1828.79,103.24,1830.8,103.24Z" fill="#3b4351"/></g><g id="left"><path d="M17.46,106.87V93.5H13.64V91.58h.29c1.77,0,3.79-.44,4.34-2.76v-.36h2.16v18.41Z" fill="#3b4351"/><path d="M25.34,88.82H36.26v2.34a32.21,32.21,0,0,0-5.8,15.71H27.34a31.54,31.54,0,0,1,6.06-15.4H25.34Z" fill="#3b4351"/><path d="M37.87,101.9h2.81v.49A2.35,2.35,0,0,0,43.1,105c2.08,0,2.63-2,2.63-4.18s-.58-3.93-2.48-3.93a2.35,2.35,0,0,0-2.41,1.69l-2.63-.1.91-9.65H48v2.37H41.33L40.73,96l.06.06a4,4,0,0,1,3.09-1.43c3.85,0,4.81,3.25,4.81,6.08,0,3.69-1.69,6.5-5.67,6.5-3.3,0-5.15-1.69-5.15-4.94Z" fill="#3b4351"/><path d="M55.76,88.46c3.54,0,5.51,2.21,5.51,9.38s-2,9.39-5.51,9.39-5.51-2.21-5.51-9.39S52.22,88.46,55.76,88.46Zm0,16.69c2,0,2.55-2,2.55-7.31s-.55-7.3-2.55-7.3-2.55,2-2.55,7.3S53.76,105.15,55.76,105.15Z" fill="#3b4351"/></g></g><g id="Nation_OUtlines" data-name="Nation OUtlines"><polygon id="Indians" points="1372.19 -5954.66 1294.19 -6068.83 1285.19 -6181.83 1313.69 -6292.83 1348.19 -6405.83 1310.69 -6519.83 1298.69 -6629.83 1313.69 -6741.83 1345.19 -6853.83 1325.69 -6967.83 1343.69 -7081.83 1417.19 -7192.83 1400.69 -7305.91 1429.19 -7418.83 1419.27 -7534.1 1387.19 -7645.83 1387.19 -7757.83 1438.19 -7868.33 1462.18 -7980.33 1480.18 -8093.37 1445.82 -8203.66 1411.11 -8315.66 1545.86 -8315.66 1580.1 -8203.66 1593.12 -8093.43 1552.12 -7980.33 1514.62 -7868.33 1514.12 -7758.16 1553.12 -7646.1 1548.12 -7533.83 1519.62 -7418.83 1534.12 -7305.16 1575.12 -7192.83 1559.62 -7081.83 1564.12 -6968.1 1534.62 -6853.83 1486.12 -6741.83 1465.12 -6629.83 1471.12 -6520.66 1502.12 -6406.66 1508.12 -6292.83 1534.62 -6181.83 1542.77 -6102.97 1555.62 -5954.66 1554.62 -5845.83 1567.12 -5733.83 1542.12 -5619.1 1498.12 -5508.83 1490.62 -5396.83 1513.12 -5284.83 1568.62 -5173.83 1544.12 -5060.83 1530.62 -4945.1 1523.62 -4833.1 1532.62 -4720.83 1565.12 -4610.83 1543.62 -4498.83 1514.12 -4383.83 1490.12 -4274.1 1495.62 -4159.83 1517.12 -4046.16 1528.12 -3940.83 1580.62 -3828.16 1578.12 -3712.16 1578.12 -3601.66 1560.12 -3490.1 1526.62 -3374.83 1467.62 -3260.83 1381.62 -3149.1 1270.62 -3038.83 1090.12 -2926.1 860.62 -2817.83 1302.12 -2702.83 1377.03 -2590.83 1550.62 -2477.83 1519.62 -2368 1476.12 -2255 1516.13 -2141 1534.62 -2028.66 1552.65 -1918 1585.62 -1804.1 1620.12 -1689 1650.12 -1578 1630.62 -1470.1 1622.45 -1353.1 1565.62 -1242 1402.62 -1128.66 1173.62 -1016 1148.62 -905 1334.62 -790 1283.62 -676 1344.62 -567 1544.62 -454 1602.62 -339.66 1627.62 -228 1674.62 -115.1 1627.62 0 1634.62 112 1686.62 224 1701.62 337 1620.12 449 1606.12 560 1606.12 673.83 1552.62 673.83 1549.52 560 1569.62 449 1683.62 337 1667.62 224 1607.62 112 1596.62 -0.66 1617.62 -115 1584.62 -228 1562.62 -340 1507.62 -454 1304.62 -567.1 1225.62 -676.1 1236.97 -713.05 1264.87 -790 1082.62 -905 1084.2 -1015.49 1323.62 -1128 1500.47 -1242.1 1573.62 -1353 1600.62 -1470 1604.62 -1578 1569.62 -1689 1514.62 -1804 1447.62 -1918.1 1418.62 -2030 1404.62 -2141 1367.62 -2255 1397.62 -2368 1418.62 -2478.1 1339.62 -2591.1 1246.62 -2702.83 748.62 -2817.83 753.62 -2925.83 910.76 -3038.83 1053.62 -3148.83 1195.2 -3260.83 1311.62 -3375.66 1353.62 -3489.83 1348.62 -3600.83 1364.62 -3712.66 1406.62 -3827.83 1401.62 -3940.83 1429.62 -4045.83 1394.62 -4160.1 1393.2 -4273.83 1391.82 -4384.1 1437.52 -4498.83 1513.62 -4611.1 1505.64 -4720.83 1472.62 -4832.66 1447.62 -4944.83 1440.63 -5060.83 1462.62 -5173.83 1391.1 -5284.83 1348.62 -5396.83 1332.62 -5508.83 1376.98 -5618.83 1375.34 -5734.1 1373.74 -5846.1 1372.19 -5954.66" fill="none" stroke="#3b4351" stroke-miterlimit="10"/><polygon id="Chinese" points="1610.76 -5956.1 1609.69 -6069.1 1608.62 -6182.16 1585.12 -6292.83 1551.62 -6405.83 1509.12 -6519.83 1538.12 -6630.1 1586.62 -6742.1 1616.12 -6853.83 1645.62 -6968.1 1697.12 -7082.1 1714.62 -7193.16 1689.12 -7304.83 1700.12 -7418.83 1676.62 -7533.83 1650.62 -7646.16 1630.62 -7757.83 1620.62 -7868.33 1646.62 -7980.33 1667.62 -8092.99 1651.62 -8203.66 1633.99 -8315.66 1768.79 -8315.66 1768.79 -115 1768.79 -0.1 1766.12 112 1757.62 224 1736.12 336.9 1676.12 448.9 1661.12 560 1663.62 673.83 1606.12 673.83 1606.12 559.9 1620.12 449 1701.62 337 1696.12 223.84 1654.12 112 1681.62 0 1739.62 -115.1 1748.62 -228.16 1744.12 -340.16 1685.62 -454 1615.12 -564.66 1636.12 -676 1738.62 -790 1761.12 -905 1758.62 -1016 1732.12 -1128 1695.62 -1242 1667.62 -1353 1651.12 -1470 1650.12 -1578 1620.12 -1689 1585.62 -1804.1 1552.62 -1918.1 1535.12 -2030 1516.12 -2141.1 1476.12 -2255 1542.12 -2368 1625.62 -2478.16 1668.12 -2591.16 1666.12 -2702.83 1673.62 -2817.83 1653.62 -2925.83 1602.12 -3039.1 1534.12 -3149.1 1564.12 -3260.83 1598.12 -3375.1 1612.12 -3489.83 1611.01 -3601.1 1592.62 -3712.1 1609.25 -3827.83 1616.07 -3940.83 1553.62 -4045.83 1529.62 -4159.83 1528.62 -4274.1 1555.62 -4383.83 1612.12 -4498.83 1621.12 -4610.83 1587.12 -4720.83 1567.62 -4832.83 1576.62 -4944.83 1571.12 -5060.83 1584.62 -5174.1 1558.62 -5284.83 1545.62 -5397.1 1557.62 -5509.1 1599.62 -5618.83 1625.12 -5734.1 1613.62 -5846.1 1610.76 -5956.1" fill="none" stroke="#3b4351" stroke-miterlimit="10"/><polygon id="Denmark" points="916.62 673.83 927.62 673.83 926.37 560 701.12 449 690.87 337 683.87 224 637.87 112 522.37 0 457.37 -115 426.62 -228 299.62 -340 273.62 -454 281.62 -567 289.12 -676 302.12 -790 296.87 -905 275.62 -1016 253.62 -1128 226.62 -1242 210.62 -1353 199.62 -1578 199.37 -1689 291.37 -1804 277.29 -1918 235.95 -2030 188.87 -2141 180.62 -2255 142.62 -2368 139.95 -2477.83 120.62 -2590.83 99.95 -2702.83 73.12 -2817.83 90.34 -2702.83 107.12 -2590.83 118.37 -2477.83 120.37 -2368 122.62 -2255 125.87 -2141 158.37 -2030 185.87 -1918 183.62 -1804 127.62 -1689 119.62 -1578 119.12 -1470 156.87 -1353 188.62 -1242 212.62 -1128 252.37 -1016 277.87 -905 283.37 -790 267.12 -676 248.87 -567 213.87 -454 234.37 -340 312.12 -228 398.12 -115 458.87 0 593.37 112 637.87 224 674.12 337 691.37 449 915.37 560 916.62 673.83" fill="none" stroke="#3b4351" stroke-miterlimit="10"/><polygon id="England" points="874.62 673.83 688.95 673.83 687.95 560 439.12 449 252.12 337 159.62 224 111.62 112 93.62 0 86.12 -115 84.62 -228 86.95 -340 98.28 -454 116.95 -567 114.62 -676 122.62 -790 120.62 -905 108.28 -1016 100.16 -1128 107.95 -1242 107.95 -1353 77.28 -1470 73.12 -2817.83 90.34 -2702.83 93.44 -2590.83 96.58 -2477.83 99.62 -2368 91.95 -2141 94.28 -2030 98.62 -1918 120.28 -1804 89.28 -1689 84.28 -1578 96.28 -1470 133.28 -1353 160.95 -1242 172.95 -1128 208.95 -1016 223.62 -905 228.28 -790 211.62 -676 201.62 -567 189.95 -454 193.28 -340 235.28 -228 248.62 -115 348.62 0 562.62 112 622.12 224 602.12 337 652.12 449 872.95 560 874.62 673.83" fill="none" stroke="#3b4351" stroke-miterlimit="10"/><polygon id="United_States" data-name="United States" points="348.62 449 211.12 337 141.62 224 111.62 112 93.62 0 86.12 -115 84.62 -228 79.62 -115 82.62 0 87.62 112 107.62 224 145.12 337 167.12 449 198.12 560 200.12 673.83 500.37 673.83 500.37 560 348.62 449" fill="none" stroke="#3b4351" stroke-miterlimit="10"/><polygon id="United_Kingdom" data-name="United Kingdom" points="687.95 560 439.12 449 252.12 337 159.62 224 111.62 112 141.62 224 211.12 337 348.62 449 500.37 560 500.37 673.83 688.95 673.83 687.95 560" fill="none" stroke="#3b4351" stroke-miterlimit="10"/><polygon id="South_America" data-name="South America" points="108.28 -1016 120.62 -905 122.62 -790 114.62 -676 116.95 -567 98.28 -454 86.95 -340 84.62 -228 79.62 -115 82.62 0 87.62 112 107.62 224 145.12 337 167.12 449 198.12 560 200.12 673.83 77.28 673.83 77.28 -1470 107.95 -1353 107.95 -1242 100.16 -1128 108.28 -1016" fill="none" stroke="#3b4351" stroke-miterlimit="10"/><polygon id="France" points="674.34 -228 785.95 -115.33 815.95 0 963.28 112 1049.29 224 932.62 337 899.28 449 1099.75 561 1102.12 673.83 946.74 673.83 946.24 560 748.62 449 745.95 337 741.28 224 711.95 112 643.28 0 613.28 -115 535.95 -228 385.29 -340 317.95 -454 311.95 -567 310.62 -676 321.29 -790 314.62 -905 275.62 -1016 253.62 -1128 258.62 -1239.33 325.29 -1353 314.62 -1470 286.62 -1578 249.62 -1689 291.37 -1804 409.62 -1804 362.62 -1689 373.95 -1578 423.58 -1470 444.62 -1353 381.95 -1239.33 347.12 -1128 361.29 -1016 384.62 -905 391.95 -790 365.95 -676 379.95 -567 391.29 -454 491.95 -340 674.34 -228" fill="none" stroke="#3b4351" stroke-miterlimit="10"/><polygon id="Franks_to_Holy_Roman_Empire" data-name="Franks to Holy Roman Empire" points="594.62 -1128 505.62 -1016 482.62 -905 599.12 -790 617.12 -676 639.62 -567 772.62 -454 953.62 -340 1131.62 -228 1201.62 -115 1109.12 0 1144.62 112 1249.12 224 1301.62 337 1217.12 449 1288.12 560 1290.62 673.83 1234.62 673.83 1232.12 560 1140.12 448.92 1137.62 337 1115.62 224 1053.62 112 973.12 0 1064.12 -115 953.62 -228 741.12 -340 577.12 -454 525.62 -567 418.62 -676 417.62 -790 407.62 -905 385.62 -1016 406.62 -1128 421.62 -1238.33 466.62 -1353 441.95 -1470 373.95 -1578 371.78 -1599.31 362.62 -1689 409.62 -1804 559.62 -1804 626.73 -1689 742.62 -1578 897.74 -1470 874.62 -1353 818.62 -1241.4 594.62 -1128" fill="none" stroke="#3b4351" stroke-miterlimit="10"/><polygon points="703.28 -1689 815.28 -1578 966.12 -1470 987.12 -1353 1028.12 -1242 932.12 -1128 729.62 -1016 630.12 -905 721.12 -790 711.95 -676 829.93 -567 854.62 -454 1030.37 -340 1169.87 -228 1257.37 -115 1158.4 0 1196.12 112 1147.62 0 1238.87 -115 1162.87 -228 1022.62 -340 841.12 -454 809.62 -567 692.62 -676 689.38 -790 586.62 -905 584.12 -1016 663.53 -1128 851.12 -1242 874.62 -1353 897.74 -1470 742.62 -1578 626.73 -1689 559.62 -1804 644.62 -1804 703.28 -1689" fill="none" stroke="#3b4351" stroke-miterlimit="10"/><polygon id="Holland" points="613.28 -115 643.28 0 711.95 112 741.28 224 729.95 337 732.62 449 935.28 560 937.12 673.83 927.62 673.83 926.37 560 701.12 449 690.87 337 683.87 224 637.87 112 522.37 0 457.37 -115 426.62 -228 299.62 -340 273.62 -454 281.62 -567 289.12 -676 302.12 -790 296.87 -905 275.62 -1016 314.62 -905 321.29 -790 310.62 -676 311.95 -567 317.95 -454 385.29 -340 535.95 -228 613.28 -115" fill="none" stroke="#3b4351" stroke-miterlimit="10"/><polygon id="Sweden" points="691.37 449 673.95 449 893.62 560 895.28 673.83 874.62 673.83 872.95 560 652.12 449 602.12 337 622.12 224 562.62 112 348.62 0 248.62 -115 235.28 -228 193.28 -340 189.95 -454 201.62 -567 211.62 -676 228.28 -790 223.62 -905 208.95 -1016 172.95 -1128 160.95 -1242 186.86 -1128 220.95 -1016 252.95 -905 258.95 -790 243.95 -676 222.62 -567 213.87 -454 234.37 -340 312.12 -228 398.12 -115 458.87 0 593.37 112 637.87 224 674.12 337 691.37 449" fill="none" stroke="#3b4351" stroke-miterlimit="10"/><polygon id="Japan" points="1676.12 448.9 1736.12 336.9 1757.62 224 1766.12 112 1768.79 -0.1 1768.79 -115 1768.79 673.83 1663.62 673.83 1661.12 560 1676.12 448.9" fill="none" stroke="#3b4351" stroke-miterlimit="10"/><polygon points="1523.12 224.84 1446.62 112 1405.12 0.56 1442.62 -115 1396.62 -228 1391.62 -340 1351.62 -454 1183.62 -567 1092.62 -676 1124.29 -790 970.62 -905 1005.12 -1016 1166.62 -1128 1313.55 -1239.05 1315.29 -1239 1317.44 -1242 1317.44 -1242 1317.44 -1242 1397.29 -1353 1463.95 -1470 1481.95 -1578 1488.62 -1689 1453.62 -1804 1382.62 -1689 1328.62 -1578 1225.12 -1470 1161.29 -1353 1218.62 -1242 1218.62 -1242 1218.62 -1242 1131.95 -1128 936.62 -1016 798.62 -905 819.28 -790 759.95 -676 849.28 -567 947.12 -454 1111.12 -340 1208.62 -228 1293.62 -115 1244.12 0.56 1280.62 112 1381.12 224 1410.62 337 1358.62 449 1436.62 560 1436.62 673.83 1467.62 673.83 1467.62 560 1423.62 449 1492.62 337 1523.12 224.84" fill="none" stroke="#3b4351" stroke-miterlimit="10"/><polygon id="Germany" points="1234.62 673.83 1126.95 673.83 1125.62 560 969.62 449 1052.2 337 1078.95 224 1015.62 112 946.95 0 1064.12 -115 973.12 0 1053.62 112 1115.62 224 1137.62 337 1140.12 448.92 1232.12 560 1234.62 673.83" fill="none" stroke="#3b4351" stroke-miterlimit="10"/><polygon id="Spain" points="1117.95 561.41 1119.29 673.83 1102.12 673.83 1099.75 561 899.28 449 932.62 337 1049.29 224 963.28 112 815.95 0 785.95 -115.33 674.34 -228 491.95 -340 391.29 -454 379.95 -567 365.95 -676 391.95 -790 384.62 -905 361.29 -1016 347.12 -1128 383.43 -1242 444.62 -1353 423.58 -1470 373.95 -1578 441.95 -1470 466.62 -1353 423.06 -1242 406.62 -1128 385.62 -1016 407.62 -905 417.62 -790 401.95 -676 463.29 -567 491.29 -454 631.28 -339.58 844.62 -228 937.12 -113.66 922.62 0 997.95 112 1065.62 224 1035.29 337 959.28 449 1117.95 561.41" fill="none" stroke="#3b4351" stroke-miterlimit="10"/><polygon id="Portugal" points="946.95 0 1015.62 112 1078.95 224 1052.2 337 969.62 449 1125.62 560 1126.95 673.83 1119.29 673.83 1117.95 561.41 959.28 449 1035.29 337 1065.62 224 997.95 112 922.62 0 937.12 -113.66 844.62 -228 631.28 -339.58 491.29 -454 463.29 -567 401.95 -676 417.62 -790 418.62 -676 525.62 -567 577.12 -454 741.12 -340 953.62 -228 1064.12 -115 946.95 0" fill="none" stroke="#3b4351" stroke-miterlimit="10"/><polygon id="Italy" points="586.62 -905 689.38 -790 692.62 -676 809.62 -567 841.12 -454 1022.62 -340 1162.87 -228 1238.87 -115 1147.62 0 1196.12 112 1326.62 224.84 1351.29 337 1294.95 449 1361.29 560 1361.29 673.83 1303.29 673.83 1300.29 560 1229.95 449 1317.95 337 1262.95 224.84 1153.29 112 1109.12 0 1201.62 -115 1131.62 -228 970.62 -340 797.62 -454 753.62 -567 632.89 -676 610.34 -790 505.62 -905 505.62 -1016 594.62 -1128 818.62 -1241.4 874.62 -1353 851.12 -1242 663.53 -1128 584.12 -1016 586.62 -905" fill="none" stroke="#3b4351" stroke-miterlimit="10"/><polygon id="Russia" points="1552.62 673.83 1467.62 673.83 1467.62 560 1423.62 449 1492.62 337 1523.12 224.84 1471.87 112 1443.87 0 1536.12 -114.66 1518.87 -228 1513.87 -340 1454.87 -454 1270.87 -567 1200.12 -676 1264.87 -790 1225.62 -676.1 1304.62 -567.1 1507.62 -454 1562.62 -340 1584.62 -228 1617.62 -115 1596.62 -0.66 1607.62 112 1667.62 224 1683.62 337 1569.62 449 1549.52 560 1552.62 673.83" fill="none" stroke="#3b4351" stroke-miterlimit="10"/><polygon id="POland" points="1518.87 -228 1536.12 -114.66 1443.87 0 1471.87 112 1523.12 224.84 1446.62 112 1405.12 0.56 1442.62 -115 1396.62 -228 1391.62 -340 1351.62 -454 1183.62 -567 1155.87 -676 1195.12 -790 1027.37 -905 1026.12 -1016 1082.62 -905 1264.87 -790 1200.12 -676 1270.87 -567 1454.87 -454 1513.87 -340 1518.87 -228" fill="none" stroke="#3b4351" stroke-miterlimit="10"/><polygon id="Mogolians" points="1334.62 -790 1148.62 -905 1173.62 -1016 1402.62 -1128.66 1565.62 -1242 1622.45 -1353.1 1630.62 -1470.1 1650.12 -1578 1651.12 -1470 1667.62 -1353 1695.62 -1242 1732.12 -1128 1758.62 -1016 1761.12 -905 1738.62 -790 1636.12 -676 1615.56 -567 1685.62 -454 1744.12 -340.16 1748.42 -225.72 1739.62 -115.1 1681.62 0 1654.12 112 1696.12 223.84 1701.62 337 1686.62 224 1634.62 112 1627.62 0 1674.62 -115.1 1627.62 -228 1602.62 -339.66 1544.62 -454 1344.62 -567 1283.62 -676 1334.62 -790" fill="none" stroke="#3b4351" stroke-miterlimit="10"/><polygon points="1111.12 -340 1208.62 -228 1293.62 -115 1244.12 0.56 1280.62 112 1381.12 224 1410.62 337 1358.62 449 1436.62 560 1436.62 673.83 1425.29 673.83 1424.62 560 1347.62 449 1385.95 337 1326.62 224.84 1196.12 112 1158.4 0 1257.37 -115 1169.87 -228 1030.37 -340 854.62 -454 849.28 -567 947.12 -454 1111.12 -340" fill="none" stroke="#3b4351" stroke-miterlimit="10"/><polygon id="Serb-Croat" points="1301.62 673.83 1290.62 673.83 1288.12 560 1217.12 449 1301.62 337 1249.12 224 1144.62 112 1109.12 0 1153.29 112 1262.95 224.84 1317.95 337 1229.95 449 1300.29 560 1301.62 673.83" fill="none" stroke="#3b4351" stroke-miterlimit="10"/></g><g id="Text"><g id="Chinese-2" data-name="Chinese"><path d="M1689.4,11.56h5c5.49,0,6.18,3.58,6.18,8.75s-.69,8.74-6.18,8.74h-5ZM1692.19,27h2.31c2.3,0,3.25-1.52,3.25-6.64,0-4.93-.83-6.64-3.25-6.64h-2.31Z" fill="#3b4351"/><path d="M1704.61,15.87l2.28,9.9h0l2.11-9.9h2.77l-3.63,13.67c-1,3.61-1.86,4.1-4.61,4a5.39,5.39,0,0,1-1-.09V31.36a3.55,3.55,0,0,0,.86.1c.9,0,1.49-.17,1.79-1l.34-1.08-3.75-13.48Z" fill="#3b4351"/><path d="M1713.29,15.87h2.5v1.54h.07a3.78,3.78,0,0,1,3.38-1.88c2,0,3.28.9,3.28,3.58v9.94h-2.64V20c0-1.76-.47-2.37-1.84-2.37-1.08,0-2.11.8-2.11,2.57v8.84h-2.64Z" fill="#3b4351"/><path d="M1733.72,26.31c0,.49.29.93.69.93a1,1,0,0,0,.44-.07v1.71a2.86,2.86,0,0,1-1.3.32c-1.18,0-2.16-.46-2.23-1.74h0A3.41,3.41,0,0,1,1728,29.4c-2.14,0-3.43-1.15-3.43-3.7,0-2.94,1.29-3.56,3.06-4.14l2.06-.57c1-.27,1.54-.54,1.54-1.69s-.42-2-1.81-2c-1.77,0-2,1.25-2,2.53h-2.5c0-2.82,1.15-4.34,4.63-4.34,2.33,0,4.19.9,4.19,3.23Zm-2.5-4.21a21.14,21.14,0,0,1-2.94,1.22,2.17,2.17,0,0,0-1.08,2.13c0,1.11.54,2,1.64,2,1.6,0,2.38-1.18,2.38-3.14Z" fill="#3b4351"/><path d="M1742.1,19.72v-.35c0-1.05-.37-2-1.74-2-1,0-1.89.47-1.89,1.72,0,1.05.47,1.44,1.86,1.93l1.69.59c2,.66,2.87,1.72,2.87,3.8,0,2.82-2.08,4-4.73,4-3.33,0-4.34-1.55-4.34-4.09v-.49h2.36v.41c0,1.55.51,2.35,2.06,2.35s2.15-.73,2.15-1.93a1.91,1.91,0,0,0-1.44-1.94l-2.16-.76c-2-.66-2.82-1.69-2.82-3.8,0-2.47,1.77-3.62,4.51-3.62,3.36,0,4.12,2,4.12,3.6v.59Z" fill="#3b4351"/><path d="M1745.67,15.87h1.82V12.12h2.64v3.75h2.16v2h-2.16V25.7c0,1.05.3,1.39,1.2,1.39a5,5,0,0,0,1-.07v2a8.44,8.44,0,0,1-2.13.22c-1.77,0-2.67-.51-2.67-3.18V17.83h-1.82Z" fill="#3b4351"/><path d="M1755.43,15.87l2.27,9.9h0l2.11-9.9h2.77L1759,29.54c-1,3.61-1.86,4.1-4.6,4a5.42,5.42,0,0,1-1.06-.09V31.36a3.67,3.67,0,0,0,.86.1c.91,0,1.49-.17,1.79-1l.34-1.08-3.75-13.48Z" fill="#3b4351"/></g><g id="England_Norway_Denmark" data-name="England Norway Denmark"><path d="M518.64,32.33h5c5.49,0,6.18,3.57,6.18,8.74s-.69,8.75-6.18,8.75h-5Zm2.79,15.39h2.3c2.31,0,3.26-1.52,3.26-6.65,0-4.92-.83-6.64-3.26-6.64h-2.3Z" fill="#3b4351"/><path d="M532.26,32.33h9.46v2.35h-6.67v4.85h6.28v2.35h-6.28v5.59h6.86v2.35h-9.65Z" fill="#3b4351"/><path d="M544,32.33h3.41l5.07,13h.05v-13h2.65V49.82h-3.41l-5.07-13.38h0V49.82H544Z" fill="#3b4351"/><path d="M558.1,32.33h4.37l3.08,13h.05l3-13h4.27V49.82h-2.65V35.27h0l-3.53,14.55h-2.35L560.8,35.27h0V49.82H558.1Z" fill="#3b4351"/><path d="M579.1,32.33h3.58l4.61,17.49h-2.92l-1.08-4.28h-5.12L577,49.82h-2.91Zm3.73,11-2-8.62h-.05l-2.09,8.62Z" fill="#3b4351"/><path d="M588.51,32.33h6.17c2.45,0,4.44,1.25,4.44,4.5,0,2.26-1,4-2.92,4.29v.05c1.77.17,2.65,1.13,2.75,3.58,0,1.15,0,2.5.1,3.55a1.89,1.89,0,0,0,.83,1.52h-3.16a3,3,0,0,1-.47-1.54c0-.52-.07-1.05-.07-1.57s0-1.1,0-1.74c-.07-1.91-.66-2.74-2.55-2.74H591.3v7.59h-2.79Zm5,7.79a2.58,2.58,0,0,0,2.8-2.84c0-1.87-.79-2.85-2.65-2.85H591.3v5.69Z" fill="#3b4351"/><path d="M601.66,32.33h2.8V40h0l5.29-7.62h3.06l-5,7.37,5.58,10.12h-3.16L606,42l-1.54,2.2v5.66h-2.8Z" fill="#3b4351"/></g><g id="Russia-2" data-name="Russia"><path d="M1485.63,89.91h6.17c2.45,0,4.44,1.25,4.44,4.51,0,2.25-1,4-2.92,4.29v0c1.77.18,2.65,1.13,2.75,3.58,0,1.15,0,2.5.1,3.56a1.89,1.89,0,0,0,.83,1.51h-3.16a3,3,0,0,1-.47-1.54c0-.51-.07-1-.07-1.57s0-1.1,0-1.74c-.07-1.91-.66-2.74-2.55-2.74h-2.28v7.59h-2.79Zm5,7.79a2.58,2.58,0,0,0,2.8-2.84c0-1.86-.79-2.84-2.65-2.84h-2.38V97.7Z" fill="#3b4351"/><path d="M1501.36,89.91v12.55c0,2.22.88,3.18,2.57,3.18s2.55-1,2.55-3.18V89.91h2.79v12.32c0,4-2,5.52-5.34,5.52s-5.37-1.47-5.37-5.52V89.91Z" fill="#3b4351"/><path d="M1514.1,102v.44c0,2.13,1,3.21,2.86,3.21a2.51,2.51,0,0,0,2.65-2.55c0-1.84-.93-2.64-2.5-3.11l-1.91-.66c-2.55-1-3.65-2.31-3.65-4.81,0-3.18,2.18-5,5.44-5,4.48,0,5,2.8,5,4.61v.39h-2.79V94.2c0-1.6-.69-2.53-2.46-2.53a2.23,2.23,0,0,0-2.35,2.53c0,1.49.76,2.25,2.62,3l1.89.69c2.48.88,3.55,2.2,3.55,4.63,0,3.72-2.25,5.27-5.78,5.27-4.34,0-5.32-2.89-5.32-5.34V102Z" fill="#3b4351"/><path d="M1526.81,102v.44c0,2.13,1,3.21,2.87,3.21a2.51,2.51,0,0,0,2.65-2.55c0-1.84-.93-2.64-2.5-3.11l-1.91-.66c-2.55-1-3.66-2.31-3.66-4.81,0-3.18,2.19-5,5.44-5,4.49,0,5,2.8,5,4.61v.39h-2.79V94.2c0-1.6-.68-2.53-2.45-2.53a2.23,2.23,0,0,0-2.35,2.53c0,1.49.76,2.25,2.62,3l1.89.69c2.47.88,3.55,2.2,3.55,4.63,0,3.72-2.25,5.27-5.78,5.27-4.34,0-5.32-2.89-5.32-5.34V102Z" fill="#3b4351"/><path d="M1537.25,89.91H1540V107.4h-2.79Z" fill="#3b4351"/><path d="M1546.12,89.91h3.58l4.6,17.49h-2.91l-1.08-4.28h-5.12l-1.13,4.28h-2.92Zm3.72,11-2-8.63h0l-2.08,8.63Z" fill="#3b4351"/></g></g></svg>