<svg id="Text" xmlns="http://www.w3.org/2000/svg" viewBox="0 0 1847.91 112"><title>ce1750text</title><g id="Chinese"><path d="M1689.4,11.56h5c5.49,0,6.18,3.58,6.18,8.75s-.69,8.74-6.18,8.74h-5ZM1692.19,27h2.31c2.3,0,3.25-1.52,3.25-6.64,0-4.93-.83-6.64-3.25-6.64h-2.31Z"/><path d="M1704.61,15.87l2.28,9.9h0l2.11-9.9h2.77l-3.63,13.67c-1,3.61-1.86,4.1-4.61,4a5.39,5.39,0,0,1-1-.09V31.36a3.55,3.55,0,0,0,.86.1c.9,0,1.49-.17,1.79-1l.34-1.08-3.75-13.48Z"/><path d="M1713.29,15.87h2.5v1.54h.07a3.78,3.78,0,0,1,3.38-1.88c2,0,3.28.9,3.28,3.58v9.94h-2.64V20c0-1.76-.47-2.37-1.84-2.37-1.08,0-2.11.8-2.11,2.57v8.84h-2.64Z"/><path d="M1733.72,26.31c0,.49.29.93.69.93a1,1,0,0,0,.44-.07v1.71a2.86,2.86,0,0,1-1.3.32c-1.18,0-2.16-.46-2.23-1.74h0A3.41,3.41,0,0,1,1728,29.4c-2.14,0-3.43-1.15-3.43-3.7,0-2.94,1.29-3.56,3.06-4.14l2.06-.57c1-.27,1.54-.54,1.54-1.69s-.42-2-1.81-2c-1.77,0-2,1.25-2,2.53h-2.5c0-2.82,1.15-4.34,4.63-4.34,2.33,0,4.19.9,4.19,3.23Zm-2.5-4.21a21.14,21.14,0,0,1-2.94,1.22,2.17,2.17,0,0,0-1.08,2.13c0,1.11.54,2,1.64,2,1.6,0,2.38-1.18,2.38-3.14Z"/><path d="M1742.1,19.72v-.35c0-1.05-.37-2-1.74-2-1,0-1.89.47-1.89,1.72,0,1.05.47,1.44,1.86,1.93l1.69.59c2,.66,2.87,1.72,2.87,3.8,0,2.82-2.08,4-4.73,4-3.33,0-4.34-1.55-4.34-4.09v-.49h2.36v.41c0,1.55.51,2.35,2.06,2.35s2.15-.73,2.15-1.93a1.91,1.91,0,0,0-1.44-1.94l-2.16-.76c-2-.66-2.82-1.69-2.82-3.8,0-2.47,1.77-3.62,4.51-3.62,3.36,0,4.12,2,4.12,3.6v.59Z"/><path d="M1745.67,15.87h1.82V12.12h2.64v3.75h2.16v2h-2.16V25.7c0,1.05.3,1.39,1.2,1.39a5,5,0,0,0,1-.07v2a8.44,8.44,0,0,1-2.13.22c-1.77,0-2.67-.51-2.67-3.18V17.83h-1.82Z"/><path d="M1755.43,15.87l2.27,9.9h0l2.11-9.9h2.77L1759,29.54c-1,3.61-1.86,4.1-4.6,4a5.42,5.42,0,0,1-1.06-.09V31.36a3.67,3.67,0,0,0,.86.1c.91,0,1.49-.17,1.79-1l.34-1.08-3.75-13.48Z"/></g><g id="England_Norway_Denmark" data-name="England Norway Denmark"><path d="M518.64,32.33h5c5.49,0,6.18,3.57,6.18,8.74s-.69,8.75-6.18,8.75h-5Zm2.79,15.39h2.3c2.31,0,3.26-1.52,3.26-6.65,0-4.92-.83-6.64-3.26-6.64h-2.3Z"/><path d="M532.26,32.33h9.46v2.35h-6.67v4.85h6.28v2.35h-6.28v5.59h6.86v2.35h-9.65Z"/><path d="M544,32.33h3.41l5.07,13h.05v-13h2.65V49.82h-3.41l-5.07-13.38h0V49.82H544Z"/><path d="M558.1,32.33h4.37l3.08,13h.05l3-13h4.27V49.82h-2.65V35.27h0l-3.53,14.55h-2.35L560.8,35.27h0V49.82H558.1Z"/><path d="M579.1,32.33h3.58l4.61,17.49h-2.92l-1.08-4.28h-5.12L577,49.82h-2.91Zm3.73,11-2-8.62h-.05l-2.09,8.62Z"/><path d="M588.51,32.33h6.17c2.45,0,4.44,1.25,4.44,4.5,0,2.26-1,4-2.92,4.29v.05c1.77.17,2.65,1.13,2.75,3.58,0,1.15,0,2.5.1,3.55a1.89,1.89,0,0,0,.83,1.52h-3.16a3,3,0,0,1-.47-1.54c0-.52-.07-1.05-.07-1.57s0-1.1,0-1.74c-.07-1.91-.66-2.74-2.55-2.74H591.3v7.59h-2.79Zm5,7.79a2.58,2.58,0,0,0,2.8-2.84c0-1.87-.79-2.85-2.65-2.85H591.3v5.69Z"/><path d="M601.66,32.33h2.8V40h0l5.29-7.62h3.06l-5,7.37,5.58,10.12h-3.16L606,42l-1.54,2.2v5.66h-2.8Z"/></g></svg>