<svg id="Text" xmlns="http://www.w3.org/2000/svg" viewBox="0 0 1847.91 112"><title>ce1750text</title><g id="Chinese"><path d="M1689.4,11.56h5c5.49,0,6.18,3.58,6.18,8.75s-.69,8.74-6.18,8.74h-5ZM1692.19,27h2.31c2.3,0,3.25-1.52,3.25-6.64,0-4.93-.83-6.64-3.25-6.64h-2.31Z"/><path d="M1704.61,15.87l2.28,9.9h0l2.11-9.9h2.77l-3.63,13.67c-1,3.61-1.86,4.1-4.61,4a5.39,5.39,0,0,1-1-.09V31.36a3.55,3.55,0,0,0,.86.1c.9,0,1.49-.17,1.79-1l.34-1.08-3.75-13.48Z"/><path d="M1713.29,15.87h2.5v1.54h.07a3.78,3.78,0,0,1,3.38-1.88c2,0,3.28.9,3.28,3.58v9.94h-2.64V20c0-1.76-.47-2.37-1.84-2.37-1.08,0-2.11.8-2.11,2.57v8.84h-2.64Z"/><path d="M1733.72,26.31c0,.49.29.93.69.93a1,1,0,0,0,.44-.07v1.71a2.86,2.86,0,0,1-1.3.32c-1.18,0-2.16-.46-2.23-1.74h0A3.41,3.41,0,0,1,1728,29.4c-2.14,0-3.43-1.15-3.43-3.7,0-2.94,1.29-3.56,3.06-4.14l2.06-.57c1-.27,1.54-.54,1.54-1.69s-.42-2-1.81-2c-1.77,0-2,1.25-2,2.53h-2.5c0-2.82,1.15-4.34,4.63-4.34,2.33,0,4.19.9,4.19,3.23Zm-2.5-4.21a21.14,21.14,0,0,1-2.94,1.22,2.17,2.17,0,0,0-1.08,2.13c0,1.11.54,2,1.64,2,1.6,0,2.38-1.18,2.38-3.14Z"/><path d="M1742.1,19.72v-.35c0-1.05-.37-2-1.74-2-1,0-1.89.47-1.89,1.72,0,1.05.47,1.44,1.86,1.93l1.69.59c2,.66,2.87,1.72,2.87,3.8,0,2.82-2.08,4-4.73,4-3.33,0-4.34-1.55-4.34-4.09v-.49h2.36v.41c0,1.55.51,2.35,2.06,2.35s2.15-.73,2.15-1.93a1.91,1.91,0,0,0-1.44-1.94l-2.16-.76c-2-.66-2.82-1.69-2.82-3.8,0-2.47,1.77-3.62,4.51-3.62,3.36,0,4.12,2,4.12,3.6v.59Z"/><path d="M1745.67,15.87h1.82V12.12h2.64v3.75h2.16v2h-2.16V25.7c0,1.05.3,1.39,1.2,1.39a5,5,0,0,0,1-.07v2a8.44,8.44,0,0,1-2.13.22c-1.77,0-2.67-.51-2.67-3.18V17.83h-1.82Z"/><path d="M1755.43,15.87l2.27,9.9h0l2.11-9.9h2.77L1759,29.54c-1,3.61-1.86,4.1-4.6,4a5.42,5.42,0,0,1-1.06-.09V31.36a3.67,3.67,0,0,0,.86.1c.91,0,1.49-.17,1.79-1l.34-1.08-3.75-13.48Z"/></g></svg>