<svg xmlns="http://www.w3.org/2000/svg" viewBox="0 0 1847.91 115"><title>ce1700text</title><g id="YEARS"><g id="Right"><path d="M1792.5,107.47V94.1h-3.82V92.18h.28c1.77,0,3.8-.44,4.35-2.76v-.36h2.15v18.41Z" fill="#3b4351"/><path d="M1800.38,89.42h10.92v2.34a32.06,32.06,0,0,0-5.8,15.71h-3.12a31.28,31.28,0,0,1,6.06-15.39h-8.06Z" fill="#3b4351"/><path d="M1818.32,89.06c3.53,0,5.51,2.21,5.51,9.39s-2,9.38-5.51,9.38-5.52-2.21-5.52-9.38S1814.78,89.06,1818.32,89.06Zm0,16.69c2,0,2.54-2,2.54-7.3s-.54-7.31-2.54-7.31-2.55,2-2.55,7.31S1816.31,105.75,1818.32,105.75Z" fill="#3b4351"/><path d="M1830.8,89.06c3.53,0,5.51,2.21,5.51,9.39s-2,9.38-5.51,9.38-5.52-2.21-5.52-9.38S1827.26,89.06,1830.8,89.06Zm0,16.69c2,0,2.54-2,2.54-7.3s-.54-7.31-2.54-7.31-2.55,2-2.55,7.31S1828.79,105.75,1830.8,105.75Z" fill="#3b4351"/></g><g id="left"><path d="M17.46,109.38V96H13.64V94.09h.29c1.77,0,3.79-.44,4.34-2.76V91h2.16v18.41Z" fill="#3b4351"/><path d="M25.34,91.33H36.26v2.34a32.21,32.21,0,0,0-5.8,15.71H27.34A31.54,31.54,0,0,1,33.4,94H25.34Z" fill="#3b4351"/><path d="M43.28,91c3.54,0,5.51,2.21,5.51,9.38s-2,9.39-5.51,9.39-5.51-2.21-5.51-9.39S39.75,91,43.28,91Zm0,16.69c2,0,2.55-2,2.55-7.31s-.55-7.3-2.55-7.3-2.55,2-2.55,7.3S41.28,107.66,43.28,107.66Z" fill="#3b4351"/><path d="M55.76,91c3.54,0,5.51,2.21,5.51,9.38s-2,9.39-5.51,9.39-5.51-2.21-5.51-9.39S52.22,91,55.76,91Zm0,16.69c2,0,2.55-2,2.55-7.31s-.55-7.3-2.55-7.3-2.55,2-2.55,7.3S53.76,107.66,55.76,107.66Z" fill="#3b4351"/></g></g><g id="Nation_OUtlines" data-name="Nation OUtlines"><polygon id="Indians" points="1372.19 -5839.66 1294.19 -5953.83 1285.19 -6066.83 1313.69 -6177.83 1348.19 -6290.83 1310.69 -6404.83 1298.69 -6514.83 1313.69 -6626.83 1345.19 -6738.83 1325.69 -6852.83 1343.69 -6966.83 1417.19 -7077.83 1400.69 -7190.91 1429.19 -7303.83 1419.27 -7419.1 1387.19 -7530.83 1387.19 -7642.83 1438.19 -7753.33 1462.18 -7865.33 1480.18 -7978.37 1445.82 -8088.66 1411.11 -8200.66 1545.86 -8200.66 1580.1 -8088.66 1593.12 -7978.43 1552.12 -7865.33 1514.62 -7753.33 1514.12 -7643.16 1553.12 -7531.1 1548.12 -7418.83 1519.62 -7303.83 1534.12 -7190.16 1575.12 -7077.83 1559.62 -6966.83 1564.12 -6853.1 1534.62 -6738.83 1486.12 -6626.83 1465.12 -6514.83 1471.12 -6405.66 1502.12 -6291.66 1508.12 -6177.83 1534.62 -6066.83 1542.77 -5987.97 1555.62 -5839.66 1554.62 -5730.83 1567.12 -5618.83 1542.12 -5504.1 1498.12 -5393.83 1490.62 -5281.83 1513.12 -5169.83 1568.62 -5058.83 1544.12 -4945.83 1530.62 -4830.1 1523.62 -4718.1 1532.62 -4605.83 1565.12 -4495.83 1543.62 -4383.83 1514.12 -4268.83 1490.12 -4159.1 1495.62 -4044.83 1517.12 -3931.16 1528.12 -3825.83 1580.62 -3713.16 1578.12 -3597.16 1578.12 -3486.66 1560.12 -3375.1 1526.62 -3259.83 1467.62 -3145.83 1381.62 -3034.1 1270.62 -2923.83 1090.12 -2811.1 860.62 -2702.83 1302.12 -2587.83 1377.03 -2475.83 1550.62 -2362.83 1519.62 -2253 1476.12 -2140 1516.13 -2026 1534.62 -1913.66 1552.65 -1803 1585.62 -1689.1 1620.12 -1574 1650.12 -1463 1630.62 -1355.1 1622.45 -1238.1 1565.62 -1127 1402.62 -1013.66 1173.62 -901 1148.62 -790 1334.62 -675 1283.62 -561 1344.62 -452 1544.62 -339 1602.62 -224.66 1627.62 -113 1674.62 -0.1 1627.62 115 1634.62 227 1686.62 339 1701.62 452 1620.12 564 1606.12 675 1606.12 788.83 1552.62 788.83 1549.52 675 1569.62 564 1683.62 452 1667.62 339 1607.62 227 1596.62 114.34 1617.62 0 1584.62 -113 1562.62 -225 1507.62 -339 1304.62 -452.1 1225.62 -561.1 1236.97 -598.05 1264.87 -675 1082.62 -790 1084.2 -900.49 1323.62 -1013 1500.47 -1127.1 1573.62 -1238 1600.62 -1355 1604.62 -1463 1569.62 -1574 1514.62 -1689 1447.62 -1803.1 1418.62 -1915 1404.62 -2026 1367.62 -2140 1397.62 -2253 1418.62 -2363.1 1339.62 -2476.1 1246.62 -2587.83 748.62 -2702.83 753.62 -2810.83 910.76 -2923.83 1053.62 -3033.83 1195.2 -3145.83 1311.62 -3260.66 1353.62 -3374.83 1348.62 -3485.83 1364.62 -3597.66 1406.62 -3712.83 1401.62 -3825.83 1429.62 -3930.83 1394.62 -4045.1 1393.2 -4158.83 1391.82 -4269.1 1437.52 -4383.83 1513.62 -4496.1 1505.64 -4605.83 1472.62 -4717.66 1447.62 -4829.83 1440.63 -4945.83 1462.62 -5058.83 1391.1 -5169.83 1348.62 -5281.83 1332.62 -5393.83 1376.98 -5503.83 1375.34 -5619.1 1373.74 -5731.1 1372.19 -5839.66" fill="none" stroke="#3b4351" stroke-miterlimit="10"/><polygon id="Chinese" points="1610.76 -5841.1 1609.69 -5954.1 1608.62 -6067.16 1585.12 -6177.83 1551.62 -6290.83 1509.12 -6404.83 1538.12 -6515.1 1586.62 -6627.1 1616.12 -6738.83 1645.62 -6853.1 1697.12 -6967.1 1714.62 -7078.16 1689.12 -7189.83 1700.12 -7303.83 1676.62 -7418.83 1650.62 -7531.16 1630.62 -7642.83 1620.62 -7753.33 1646.62 -7865.33 1667.62 -7977.99 1651.62 -8088.66 1633.99 -8200.66 1768.79 -8200.66 1768.79 0 1768.79 114.9 1766.12 227 1757.62 339 1736.12 451.9 1676.12 563.9 1661.12 675 1663.62 788.83 1606.12 788.83 1606.12 674.9 1620.12 564 1701.62 452 1696.12 338.84 1654.12 227 1681.62 115 1739.62 -0.1 1748.62 -113.16 1744.12 -225.16 1685.62 -339 1615.12 -449.66 1636.12 -561 1738.62 -675 1761.12 -790 1758.62 -901 1732.12 -1013 1695.62 -1127 1667.62 -1238 1651.12 -1355 1650.12 -1463 1620.12 -1574 1585.62 -1689.1 1552.62 -1803.1 1535.12 -1915 1516.12 -2026.1 1476.12 -2140 1542.12 -2253 1625.62 -2363.16 1668.12 -2476.16 1666.12 -2587.83 1673.62 -2702.83 1653.62 -2810.83 1602.12 -2924.1 1534.12 -3034.1 1564.12 -3145.83 1598.12 -3260.1 1612.12 -3374.83 1611.01 -3486.1 1592.62 -3597.1 1609.25 -3712.83 1616.07 -3825.83 1553.62 -3930.83 1529.62 -4044.83 1528.62 -4159.1 1555.62 -4268.83 1612.12 -4383.83 1621.12 -4495.83 1587.12 -4605.83 1567.62 -4717.83 1576.62 -4829.83 1571.12 -4945.83 1584.62 -5059.1 1558.62 -5169.83 1545.62 -5282.1 1557.62 -5394.1 1599.62 -5503.83 1625.12 -5619.1 1613.62 -5731.1 1610.76 -5841.1" fill="none" stroke="#3b4351" stroke-miterlimit="10"/><polygon id="Denmark" points="916.62 788.83 927.62 788.83 926.37 675 701.12 564 690.87 452 683.87 339 637.87 227 522.37 115 457.37 0 426.62 -113 299.62 -225 273.62 -339 281.62 -452 289.12 -561 302.12 -675 296.87 -790 275.62 -901 253.62 -1013 226.62 -1127 210.62 -1238 199.62 -1463 199.37 -1574 291.37 -1689 277.29 -1803 235.95 -1915 188.87 -2026 180.62 -2140 142.62 -2253 139.95 -2362.83 120.62 -2475.83 99.95 -2587.83 73.12 -2702.83 90.34 -2587.83 107.12 -2475.83 118.37 -2362.83 120.37 -2253 122.62 -2140 125.87 -2026 158.37 -1915 185.87 -1803 183.62 -1689 127.62 -1574 119.62 -1463 119.12 -1355 156.87 -1238 188.62 -1127 212.62 -1013 252.37 -901 277.87 -790 283.37 -675 267.12 -561 248.87 -452 213.87 -339 234.37 -225 312.12 -113 398.12 0 458.87 115 593.37 227 637.87 339 674.12 452 691.37 564 915.37 675 916.62 788.83" fill="none" stroke="#3b4351" stroke-miterlimit="10"/><polygon id="England" points="874.62 788.83 688.95 788.83 687.95 675 439.12 564 252.12 452 159.62 339 111.62 227 93.62 115 86.12 0 84.62 -113 86.95 -225 98.28 -339 116.95 -452 114.62 -561 122.62 -675 120.62 -790 108.28 -901 100.16 -1013 107.95 -1127 107.95 -1238 77.28 -1355 73.12 -2702.83 90.34 -2587.83 93.44 -2475.83 96.58 -2362.83 99.62 -2253 91.95 -2026 94.28 -1915 98.62 -1803 120.28 -1689 89.28 -1574 84.28 -1463 96.28 -1355 133.28 -1238 160.95 -1127 172.95 -1013 208.95 -901 223.62 -790 228.28 -675 211.62 -561 201.62 -452 189.95 -339 193.28 -225 235.28 -113 248.62 0 348.62 115 562.62 227 622.12 339 602.12 452 652.12 564 872.95 675 874.62 788.83" fill="none" stroke="#3b4351" stroke-miterlimit="10"/><polygon id="United_States" data-name="United States" points="348.62 564 211.12 452 141.62 339 111.62 227 93.62 115 86.12 0 84.62 -113 79.62 0 82.62 115 87.62 227 107.62 339 145.12 452 167.12 564 198.12 675 200.12 788.83 500.37 788.83 500.37 675 348.62 564" fill="none" stroke="#3b4351" stroke-miterlimit="10"/><polygon id="South_America" data-name="South America" points="108.28 -901 120.62 -790 122.62 -675 114.62 -561 116.95 -452 98.28 -339 86.95 -225 84.62 -113 79.62 0 82.62 115 87.62 227 107.62 339 145.12 452 167.12 564 198.12 675 200.12 788.83 77.28 788.83 77.28 -1355 107.95 -1238 107.95 -1127 100.16 -1013 108.28 -901" fill="none" stroke="#3b4351" stroke-miterlimit="10"/><polygon id="France" points="674.34 -113 785.95 -0.33 815.95 115 963.28 227 1049.29 339 932.62 452 899.28 564 1099.75 676 1102.12 788.83 946.74 788.83 946.24 675 748.62 564 745.95 452 741.28 339 711.95 227 643.28 115 613.28 0 535.95 -113 385.29 -225 317.95 -339 311.95 -452 310.62 -561 321.29 -675 314.62 -790 275.62 -901 253.62 -1013 258.62 -1124.33 325.29 -1238 314.62 -1355 286.62 -1463 249.62 -1574 291.37 -1689 409.62 -1689 362.62 -1574 373.95 -1463 423.58 -1355 444.62 -1238 381.95 -1124.33 347.12 -1013 361.29 -901 384.62 -790 391.95 -675 365.95 -561 379.95 -452 391.29 -339 491.95 -225 674.34 -113" fill="none" stroke="#3b4351" stroke-miterlimit="10"/><polygon id="Franks_to_Holy_Roman_Empire" data-name="Franks to Holy Roman Empire" points="594.62 -1013 505.62 -901 482.62 -790 599.12 -675 617.12 -561 639.62 -452 772.62 -339 953.62 -225 1131.62 -113 1201.62 0 1109.12 115 1144.62 227 1249.12 339 1301.62 452 1217.12 564 1288.12 675 1290.62 788.83 1234.62 788.83 1232.12 675 1140.12 563.91 1137.62 452 1115.62 339 1053.62 227 973.12 115 1064.12 0 953.62 -113 741.12 -225 577.12 -339 525.62 -452 418.62 -561 417.62 -675 407.62 -790 385.62 -901 406.62 -1013 421.62 -1123.33 466.62 -1238 441.95 -1355 373.95 -1463 371.78 -1484.31 362.62 -1574 409.62 -1689 559.62 -1689 626.73 -1574 742.62 -1463 897.74 -1355 874.62 -1238 818.62 -1126.4 594.62 -1013" fill="none" stroke="#3b4351" stroke-miterlimit="10"/><polygon points="703.28 -1574 815.28 -1463 966.12 -1355 987.12 -1238 1028.12 -1127 932.12 -1013 729.62 -901 630.12 -790 721.12 -675 711.95 -561 829.93 -452 854.62 -339 1030.37 -225 1169.87 -113 1257.37 0 1158.4 115 1196.12 227 1147.62 115 1238.87 0 1162.87 -113 1022.62 -225 841.12 -339 809.62 -452 692.62 -561 689.38 -675 586.62 -790 584.12 -901 663.53 -1013 851.12 -1127 874.62 -1238 897.74 -1355 742.62 -1463 626.73 -1574 559.62 -1689 644.62 -1689 703.28 -1574" fill="none" stroke="#3b4351" stroke-miterlimit="10"/><polygon id="Holland" points="613.28 0 643.28 115 711.95 227 741.28 339 729.95 452 732.62 564 935.28 675 937.12 788.83 927.62 788.83 926.37 675 701.12 564 690.87 452 683.87 339 637.87 227 522.37 115 457.37 0 426.62 -113 299.62 -225 273.62 -339 281.62 -452 289.12 -561 302.12 -675 296.87 -790 275.62 -901 314.62 -790 321.29 -675 310.62 -561 311.95 -452 317.95 -339 385.29 -225 535.95 -113 613.28 0" fill="none" stroke="#3b4351" stroke-miterlimit="10"/><polygon id="Sweden" points="691.37 564 673.95 564 893.62 675 895.28 788.83 874.62 788.83 872.95 675 652.12 564 602.12 452 622.12 339 562.62 227 348.62 115 248.62 0 235.28 -113 193.28 -225 189.95 -339 201.62 -452 211.62 -561 228.28 -675 223.62 -790 208.95 -901 172.95 -1013 160.95 -1127 186.86 -1013 220.95 -901 252.95 -790 258.95 -675 243.95 -561 222.62 -452 213.87 -339 234.37 -225 312.12 -113 398.12 0 458.87 115 593.37 227 637.87 339 674.12 452 691.37 564" fill="none" stroke="#3b4351" stroke-miterlimit="10"/><polygon id="Japan" points="1676.12 563.9 1736.12 451.9 1757.62 339 1766.12 227 1768.79 114.9 1768.79 0 1768.79 788.83 1663.62 788.83 1661.12 675 1676.12 563.9" fill="none" stroke="#3b4351" stroke-miterlimit="10"/><polygon points="1523.12 339.84 1446.62 227 1405.12 115.56 1442.62 0 1396.62 -113 1391.62 -225 1351.62 -339 1183.62 -452 1092.62 -561 1124.29 -675 970.62 -790 1005.12 -901 1166.62 -1013 1313.55 -1124.05 1315.29 -1124 1317.44 -1127 1317.44 -1127 1317.44 -1127 1397.29 -1238 1463.95 -1355 1481.95 -1463 1488.62 -1574 1453.62 -1689 1382.62 -1574 1328.62 -1463 1225.12 -1355 1161.29 -1238 1218.62 -1127 1218.62 -1127 1218.62 -1127 1131.95 -1013 936.62 -901 798.62 -790 819.28 -675 759.95 -561 849.28 -452 947.12 -339 1111.12 -225 1208.62 -113 1293.62 0 1244.12 115.56 1280.62 227 1381.12 339 1410.62 452 1358.62 564 1436.62 675 1436.62 788.83 1467.62 788.83 1467.62 675 1423.62 564 1492.62 452 1523.12 339.84" fill="none" stroke="#3b4351" stroke-miterlimit="10"/><polygon id="Germany" points="1234.62 788.83 1126.95 788.83 1125.62 675 969.62 564 1052.2 452 1078.95 339 1015.62 227 946.95 115 1064.12 0 973.12 115 1053.62 227 1115.62 339 1137.62 452 1140.12 563.91 1232.12 675 1234.62 788.83" fill="none" stroke="#3b4351" stroke-miterlimit="10"/><polygon id="Spain" points="1117.95 676.41 1119.29 788.83 1102.12 788.83 1099.75 676 899.28 564 932.62 452 1049.29 339 963.28 227 815.95 115 785.95 -0.33 674.34 -113 491.95 -225 391.29 -339 379.95 -452 365.95 -561 391.95 -675 384.62 -790 361.29 -901 347.12 -1013 383.43 -1127 444.62 -1238 423.58 -1355 373.95 -1463 441.95 -1355 466.62 -1238 423.06 -1127 406.62 -1013 385.62 -901 407.62 -790 417.62 -675 401.95 -561 463.29 -452 491.29 -339 631.28 -224.59 844.62 -113 937.12 1.34 922.62 115 997.95 227 1065.62 339 1035.29 452 959.28 564 1117.95 676.41" fill="none" stroke="#3b4351" stroke-miterlimit="10"/><polygon id="Portugal" points="946.95 115 1015.62 227 1078.95 339 1052.2 452 969.62 564 1125.62 675 1126.95 788.83 1119.29 788.83 1117.95 676.41 959.28 564 1035.29 452 1065.62 339 997.95 227 922.62 115 937.12 1.34 844.62 -113 631.28 -224.59 491.29 -339 463.29 -452 401.95 -561 417.62 -675 418.62 -561 525.62 -452 577.12 -339 741.12 -225 953.62 -113 1064.12 0 946.95 115" fill="none" stroke="#3b4351" stroke-miterlimit="10"/><polygon id="Italy" points="586.62 -790 689.38 -675 692.62 -561 809.62 -452 841.12 -339 1022.62 -225 1162.87 -113 1238.87 0 1147.62 115 1196.12 227 1326.62 339.84 1351.29 452 1294.95 564 1361.29 675 1361.29 788.83 1303.29 788.83 1300.29 675 1229.95 564 1317.95 452 1262.95 339.84 1153.29 227 1109.12 115 1201.62 0 1131.62 -113 970.62 -225 797.62 -339 753.62 -452 632.89 -561 610.34 -675 505.62 -790 505.62 -901 594.62 -1013 818.62 -1126.4 874.62 -1238 851.12 -1127 663.53 -1013 584.12 -901 586.62 -790" fill="none" stroke="#3b4351" stroke-miterlimit="10"/><polygon id="Russia" points="1552.62 788.83 1467.62 788.83 1467.62 675 1423.62 564 1492.62 452 1523.12 339.84 1471.87 227 1443.87 115 1536.12 0.34 1518.87 -113 1513.87 -225 1454.87 -339 1270.87 -452 1200.12 -561 1264.87 -675 1225.62 -561.1 1304.62 -452.1 1507.62 -339 1562.62 -225 1584.62 -113 1617.62 0 1596.62 114.34 1607.62 227 1667.62 339 1683.62 452 1569.62 564 1549.52 675 1552.62 788.83" fill="none" stroke="#3b4351" stroke-miterlimit="10"/><polygon id="POland" points="1518.87 -113 1536.12 0.34 1443.87 115 1471.87 227 1523.12 339.84 1446.62 227 1405.12 115.56 1442.62 0 1396.62 -113 1391.62 -225 1351.62 -339 1183.62 -452 1155.87 -561 1195.12 -675 1027.37 -790 1026.12 -901 1082.62 -790 1264.87 -675 1200.12 -561 1270.87 -452 1454.87 -339 1513.87 -225 1518.87 -113" fill="none" stroke="#3b4351" stroke-miterlimit="10"/><polygon id="Mogolians" points="1334.62 -675 1148.62 -790 1173.62 -901 1402.62 -1013.66 1565.62 -1127 1622.45 -1238.1 1630.62 -1355.1 1650.12 -1463 1651.12 -1355 1667.62 -1238 1695.62 -1127 1732.12 -1013 1758.62 -901 1761.12 -790 1738.62 -675 1636.12 -561 1615.56 -452 1685.62 -339 1744.12 -225.16 1748.42 -110.72 1739.62 -0.1 1681.62 115 1654.12 227 1696.12 338.84 1701.62 452 1686.62 339 1634.62 227 1627.62 115 1674.62 -0.1 1627.62 -113 1602.62 -224.66 1544.62 -339 1344.62 -452 1283.62 -561 1334.62 -675" fill="none" stroke="#3b4351" stroke-miterlimit="10"/><polygon points="1111.12 -225 1208.62 -113 1293.62 0 1244.12 115.56 1280.62 227 1381.12 339 1410.62 452 1358.62 564 1436.62 675 1436.62 788.83 1425.29 788.83 1424.62 675 1347.62 564 1385.95 452 1326.62 339.84 1196.12 227 1158.4 115 1257.37 0 1169.87 -113 1030.37 -225 854.62 -339 849.28 -452 947.12 -339 1111.12 -225" fill="none" stroke="#3b4351" stroke-miterlimit="10"/><polygon id="Serb-Croat" points="1301.62 788.83 1290.62 788.83 1288.12 675 1217.12 564 1301.62 452 1249.12 339 1144.62 227 1109.12 115 1153.29 227 1262.95 339.84 1317.95 452 1229.95 564 1300.29 675 1301.62 788.83" fill="none" stroke="#3b4351" stroke-miterlimit="10"/></g><g id="Text"><g id="Chinese-2" data-name="Chinese"><path d="M1689.53,56.45v.37c0,3.16-1.3,6.24-5.39,6.24-4.41,0-5.78-2.84-5.78-9.09s1.37-9.09,5.8-9.09c5,0,5.27,3.65,5.27,5.49v.32h-2.79V50.4c0-1.65-.49-3.48-2.5-3.41s-3,1.27-3,6.91.91,7.06,3,7.06c2.35,0,2.6-2.58,2.6-4.22v-.29Z" fill="#3b4351"/><path d="M1691.49,45.22h2.79v7h5.15v-7h2.79v17.5h-2.79V54.59h-5.15v8.13h-2.79Z" fill="#3b4351"/><path d="M1705,45.22h2.79v17.5H1705Z" fill="#3b4351"/><path d="M1710.55,45.22h3.4l5.08,13h0v-13h2.64v17.5h-3.4l-5.08-13.38h0V62.72h-2.64Z" fill="#3b4351"/><path d="M1724.61,45.22h9.46v2.36h-6.67v4.85h6.28v2.35h-6.28v5.59h6.87v2.35h-9.66Z" fill="#3b4351"/><path d="M1738.55,57.31v.44c0,2.13,1,3.21,2.87,3.21a2.51,2.51,0,0,0,2.65-2.55c0-1.84-.93-2.65-2.5-3.11l-1.92-.67c-2.54-1-3.65-2.3-3.65-4.8,0-3.18,2.18-4.95,5.44-4.95,4.49,0,5,2.8,5,4.61v.39h-2.79v-.37c0-1.59-.69-2.52-2.45-2.52a2.23,2.23,0,0,0-2.35,2.52c0,1.5.76,2.26,2.62,3l1.89.68c2.47.89,3.55,2.21,3.55,4.64,0,3.72-2.26,5.26-5.78,5.26-4.34,0-5.32-2.89-5.32-5.34v-.41Z" fill="#3b4351"/><path d="M1749.11,45.22h9.46v2.36h-6.67v4.85h6.28v2.35h-6.28v5.59h6.87v2.35h-9.66Z" fill="#3b4351"/><path d="M1689.28,72.56h4.36l3.09,13h0l3-13h4.27V90.05h-2.65V75.5h0l-3.53,14.55h-2.35L1692,75.5h0V90.05h-2.64Z" fill="#3b4351"/><path d="M1715.44,87.31c0,.49.3.93.69.93a1,1,0,0,0,.44-.07v1.71a2.83,2.83,0,0,1-1.3.32c-1.17,0-2.15-.46-2.23-1.74h0a3.4,3.4,0,0,1-3.28,1.94c-2.13,0-3.43-1.15-3.43-3.7,0-2.94,1.3-3.56,3.06-4.14l2.06-.57c1-.27,1.54-.54,1.54-1.69s-.41-2-1.81-2c-1.76,0-2,1.25-2,2.53h-2.5c0-2.82,1.15-4.34,4.63-4.34,2.33,0,4.19.9,4.19,3.23Zm-2.5-4.21a21.14,21.14,0,0,1-2.94,1.22,2.16,2.16,0,0,0-1.07,2.13c0,1.11.53,2,1.64,2,1.59,0,2.37-1.18,2.37-3.14Z" fill="#3b4351"/><path d="M1718.14,76.87h2.5v1.54h.07a3.78,3.78,0,0,1,3.38-1.88c2,0,3.28.9,3.28,3.58v9.94h-2.64V81c0-1.76-.47-2.37-1.84-2.37-1.08,0-2.11.8-2.11,2.57v8.84h-2.64Z" fill="#3b4351"/><path d="M1738.82,85.25c-.2,3.16-1.23,5.15-4.51,5.15-3.83,0-4.9-2.82-4.9-6.94s1.07-6.93,4.9-6.93,4.53,3.11,4.53,4.73h-2.65c0-1.23-.31-2.85-1.88-2.77-1.89,0-2.26,2.06-2.26,5s.37,5,2.26,5c1.47,0,2-1.2,2-3.19Z" fill="#3b4351"/><path d="M1740.65,72.56h2.65v5.73l.07,0a3.76,3.76,0,0,1,3.24-1.81c2,0,3.28.9,3.28,3.58v9.94h-2.65V81c0-1.74-.49-2.37-1.84-2.37-1.07,0-2.1.83-2.1,2.57v8.84h-2.65Z" fill="#3b4351"/><path d="M1759.17,88.51h-.07a3.77,3.77,0,0,1-3.38,1.89c-2,0-3.29-.91-3.29-4.32V76.87h2.65v9.46c0,1.47.64,2,1.79,2a2.06,2.06,0,0,0,2.16-2.21V76.87h2.64V90.05h-2.5Z" fill="#3b4351"/></g><g id="England_Norway_Denmark" data-name="England Norway Denmark"><path d="M423,53.5h3.41l5.07,13h.05v-13h2.65V71h-3.41l-5.07-13.38h-.05V71H423Z" fill="#3b4351"/><path d="M436.61,62.25c0-6.25,1.76-9.09,5.78-9.09s5.78,2.84,5.78,9.09-1.76,9.09-5.78,9.09S436.61,68.5,436.61,62.25Zm8.77-.08c0-5.88-1.32-6.91-3-6.91s-3,1-3,6.91,1.32,7.06,3,7.06S445.38,68.18,445.38,62.17Z" fill="#3b4351"/><path d="M450.65,53.5h6.17c2.45,0,4.44,1.25,4.44,4.51,0,2.25-1,4-2.92,4.29v.05c1.76.17,2.65,1.12,2.74,3.57,0,1.16,0,2.5.1,3.56A1.94,1.94,0,0,0,462,71h-3.17a3,3,0,0,1-.46-1.55c-.05-.51-.07-1-.07-1.57s0-1.1-.05-1.74c-.08-1.91-.67-2.74-2.55-2.74h-2.28V71h-2.79Zm5,7.79a2.58,2.58,0,0,0,2.79-2.84c0-1.86-.78-2.84-2.64-2.84h-2.38v5.68Z" fill="#3b4351"/><path d="M462.5,53.5h2.82l2.3,13.6h.05L470,53.5h2.94l2.35,13.67h.05L477.6,53.5h2.77L476.89,71h-3.24L471.4,57.81h0L469.12,71h-3.24Z" fill="#3b4351"/><path d="M484.53,53.5h3.58l4.6,17.5H489.8l-1.08-4.29H483.6L482.47,71h-2.92Zm3.72,11-2-8.63h0l-2.09,8.63Z" fill="#3b4351"/><path d="M495.55,64.16,491,53.5h3.12l2.94,7.55,3-7.55H503l-4.68,10.66V71h-2.8Z" fill="#3b4351"/></g><g id="Persia"><path d="M1191.14,95.66h5.54c3.35,0,4.82,2.11,4.82,5.1s-1.86,5.17-5.12,5.17h-2.45v7.23h-2.79Zm2.79,8.16h2c1.49,0,2.79-.78,2.79-3,0-1.89-.76-3-3-3h-1.79Z" fill="#3b4351"/><path d="M1203.39,95.66h9.46V98h-6.67v4.85h6.27v2.35h-6.27v5.59H1213v2.35h-9.65Z" fill="#3b4351"/><path d="M1215.17,95.66h6.18c2.45,0,4.43,1.25,4.43,4.51,0,2.26-1,4-2.91,4.29v.05c1.76.17,2.64,1.13,2.74,3.58,0,1.15,0,2.5.1,3.55a1.89,1.89,0,0,0,.83,1.52h-3.16a2.93,2.93,0,0,1-.46-1.54c-.05-.52-.08-1.06-.08-1.57s0-1.1,0-1.74c-.07-1.91-.66-2.75-2.55-2.75H1218v7.6h-2.8Zm5,7.8a2.59,2.59,0,0,0,2.8-2.85c0-1.86-.79-2.84-2.65-2.84H1218v5.69Z" fill="#3b4351"/><path d="M1230.48,107.74v.45c0,2.13,1,3.21,2.87,3.21a2.51,2.51,0,0,0,2.65-2.55c0-1.84-.93-2.65-2.5-3.12l-1.91-.66c-2.55-1-3.65-2.3-3.65-4.8,0-3.19,2.18-5,5.44-5,4.48,0,4.95,2.79,4.95,4.61v.39h-2.8V100c0-1.59-.68-2.52-2.45-2.52a2.23,2.23,0,0,0-2.35,2.52c0,1.5.76,2.26,2.62,3l1.89.68c2.47.88,3.55,2.21,3.55,4.63,0,3.73-2.25,5.27-5.78,5.27-4.34,0-5.32-2.89-5.32-5.34v-.42Z" fill="#3b4351"/><path d="M1240.92,95.66h2.79v17.5h-2.79Z" fill="#3b4351"/><path d="M1249.79,95.66h3.58l4.61,17.5h-2.92l-1.08-4.29h-5.12l-1.13,4.29h-2.92Zm3.73,11-2-8.62h0l-2.09,8.62Z" fill="#3b4351"/></g></g></svg>