<svg xmlns="http://www.w3.org/2000/svg" viewBox="0 0 1847.91 115"><title>ce1700text</title><g id="YEARS"><g id="Right"><path d="M1787.21,111.79V98.43h-3.82V96.5h.29c1.77,0,3.79-.44,4.34-2.75v-.37h2.16v18.41Z" fill="#3b4351"/><path d="M1795.09,93.75H1806v2.34a32.18,32.18,0,0,0-5.8,15.7h-3.12a31.47,31.47,0,0,1,6.06-15.39h-8.06Z" fill="#3b4351"/><path d="M1813,93.38c3.54,0,5.51,2.21,5.51,9.39s-2,9.39-5.51,9.39-5.51-2.21-5.51-9.39S1809.49,93.38,1813,93.38Zm0,16.7c2,0,2.55-2,2.55-7.31s-.55-7.31-2.55-7.31-2.55,2-2.55,7.31S1811,110.08,1813,110.08Z" fill="#3b4351"/><path d="M1825.51,93.38c3.54,0,5.51,2.21,5.51,9.39s-2,9.39-5.51,9.39S1820,110,1820,102.77,1822,93.38,1825.51,93.38Zm0,16.7c2,0,2.55-2,2.55-7.31s-.55-7.31-2.55-7.31-2.55,2-2.55,7.31S1823.51,110.08,1825.51,110.08Z" fill="#3b4351"/></g><g id="left"><path d="M17.46,115.39V102H13.64V100.1h.29c1.77,0,3.79-.44,4.34-2.75V97h2.16v18.41Z" fill="#3b4351"/><path d="M25.34,97.35H36.26v2.34a32.18,32.18,0,0,0-5.8,15.7H27.34A31.47,31.47,0,0,1,33.4,100H25.34Z" fill="#3b4351"/><path d="M43.28,97c3.54,0,5.51,2.21,5.51,9.39s-2,9.38-5.51,9.38-5.51-2.21-5.51-9.38S39.75,97,43.28,97Zm0,16.69c2,0,2.55-2,2.55-7.3s-.55-7.31-2.55-7.31-2.55,2-2.55,7.31S41.28,113.67,43.28,113.67Z" fill="#3b4351"/><path d="M55.76,97c3.54,0,5.51,2.21,5.51,9.39s-2,9.38-5.51,9.38-5.51-2.21-5.51-9.38S52.22,97,55.76,97Zm0,16.69c2,0,2.55-2,2.55-7.3s-.55-7.31-2.55-7.31-2.55,2-2.55,7.31S53.76,113.67,55.76,113.67Z" fill="#3b4351"/><path d="M33.09-14.11c0-1.06-.52-2.39-2-2.39-2.78,0-2.93,3.64-2.93,6.34l.07.06a3.77,3.77,0,0,1,3.59-2c2.52,0,4.55,1.82,4.55,5.48,0,4.24-1.77,6.76-5.64,6.76-4.65,0-5.54-3.53-5.54-8.81,0-5.51,1-10,5.88-10,3.25,0,5,1.43,5,4.47ZM31-1.89c1.8,0,2.45-1.79,2.45-3.95,0-2.57-.76-4-2.45-4-2.18,0-2.54,1.9-2.54,4.11S29.24-1.89,31-1.89Z" fill="#3b4351"/><path d="M37.87-5.14h2.81v.5A2.36,2.36,0,0,0,43.1-2c2.08,0,2.63-2,2.63-4.19s-.58-3.93-2.48-3.93a2.35,2.35,0,0,0-2.41,1.69l-2.63-.1.91-9.65H48v2.37H41.33L40.73-11l.06,0a4,4,0,0,1,3.09-1.43c3.85,0,4.81,3.25,4.81,6.08C48.69-2.62,47,.19,43,.19c-3.3,0-5.15-1.69-5.15-4.94Z" fill="#3b4351"/><path d="M55.76-18.58c3.54,0,5.51,2.21,5.51,9.39S59.3.19,55.76.19,50.25-2,50.25-9.19,52.22-18.58,55.76-18.58Zm0,16.69c2,0,2.55-2,2.55-7.3s-.55-7.31-2.55-7.31-2.55,2-2.55,7.31S53.76-1.89,55.76-1.89Z" fill="#3b4351"/></g></g><g id="Text"><g id="Chinese"><path d="M1689.53,56.45v.37c0,3.16-1.3,6.24-5.39,6.24-4.41,0-5.78-2.84-5.78-9.09s1.37-9.09,5.8-9.09c5,0,5.27,3.65,5.27,5.49v.32h-2.79V50.4c0-1.65-.49-3.48-2.5-3.41s-3,1.27-3,6.91.91,7.06,3,7.06c2.35,0,2.6-2.58,2.6-4.22v-.29Z" fill="#3b4351"/><path d="M1691.49,45.22h2.79v7h5.15v-7h2.79v17.5h-2.79V54.59h-5.15v8.13h-2.79Z" fill="#3b4351"/><path d="M1705,45.22h2.79v17.5H1705Z" fill="#3b4351"/><path d="M1710.55,45.22h3.4l5.08,13h0v-13h2.64v17.5h-3.4l-5.08-13.38h0V62.72h-2.64Z" fill="#3b4351"/><path d="M1724.61,45.22h9.46v2.36h-6.67v4.85h6.28v2.35h-6.28v5.59h6.87v2.35h-9.66Z" fill="#3b4351"/><path d="M1738.55,57.31v.44c0,2.13,1,3.21,2.87,3.21a2.51,2.51,0,0,0,2.65-2.55c0-1.84-.93-2.65-2.5-3.11l-1.92-.67c-2.54-1-3.65-2.3-3.65-4.8,0-3.18,2.18-4.95,5.44-4.95,4.49,0,5,2.8,5,4.61v.39h-2.79v-.37c0-1.59-.69-2.52-2.45-2.52a2.23,2.23,0,0,0-2.35,2.52c0,1.5.76,2.26,2.62,3l1.89.68c2.47.89,3.55,2.21,3.55,4.64,0,3.72-2.26,5.26-5.78,5.26-4.34,0-5.32-2.89-5.32-5.34v-.41Z" fill="#3b4351"/><path d="M1749.11,45.22h9.46v2.36h-6.67v4.85h6.28v2.35h-6.28v5.59h6.87v2.35h-9.66Z" fill="#3b4351"/><path d="M1689.28,72.56h4.36l3.09,13h0l3-13h4.27V90.05h-2.65V75.5h0l-3.53,14.55h-2.35L1692,75.5h0V90.05h-2.64Z" fill="#3b4351"/><path d="M1715.44,87.31c0,.49.3.93.69.93a1,1,0,0,0,.44-.07v1.71a2.83,2.83,0,0,1-1.3.32c-1.17,0-2.15-.46-2.23-1.74h0a3.4,3.4,0,0,1-3.28,1.94c-2.13,0-3.43-1.15-3.43-3.7,0-2.94,1.3-3.56,3.06-4.14l2.06-.57c1-.27,1.54-.54,1.54-1.69s-.41-2-1.81-2c-1.76,0-2,1.25-2,2.53h-2.5c0-2.82,1.15-4.34,4.63-4.34,2.33,0,4.19.9,4.19,3.23Zm-2.5-4.21a21.14,21.14,0,0,1-2.94,1.22,2.16,2.16,0,0,0-1.07,2.13c0,1.11.53,2,1.64,2,1.59,0,2.37-1.18,2.37-3.14Z" fill="#3b4351"/><path d="M1718.14,76.87h2.5v1.54h.07a3.78,3.78,0,0,1,3.38-1.88c2,0,3.28.9,3.28,3.58v9.94h-2.64V81c0-1.76-.47-2.37-1.84-2.37-1.08,0-2.11.8-2.11,2.57v8.84h-2.64Z" fill="#3b4351"/><path d="M1738.82,85.25c-.2,3.16-1.23,5.15-4.51,5.15-3.83,0-4.9-2.82-4.9-6.94s1.07-6.93,4.9-6.93,4.53,3.11,4.53,4.73h-2.65c0-1.23-.31-2.85-1.88-2.77-1.89,0-2.26,2.06-2.26,5s.37,5,2.26,5c1.47,0,2-1.2,2-3.19Z" fill="#3b4351"/><path d="M1740.65,72.56h2.65v5.73l.07,0a3.76,3.76,0,0,1,3.24-1.81c2,0,3.28.9,3.28,3.58v9.94h-2.65V81c0-1.74-.49-2.37-1.84-2.37-1.07,0-2.1.83-2.1,2.57v8.84h-2.65Z" fill="#3b4351"/><path d="M1759.17,88.51h-.07a3.77,3.77,0,0,1-3.38,1.89c-2,0-3.29-.91-3.29-4.32V76.87h2.65v9.46c0,1.47.64,2,1.79,2a2.06,2.06,0,0,0,2.16-2.21V76.87h2.64V90.05h-2.5Z" fill="#3b4351"/></g><g id="England_Norway_Denmark" data-name="England Norway Denmark"><path d="M423,53.5h3.41l5.07,13h.05v-13h2.65V71h-3.41l-5.07-13.38h-.05V71H423Z" fill="#3b4351"/><path d="M436.61,62.25c0-6.25,1.76-9.09,5.78-9.09s5.78,2.84,5.78,9.09-1.76,9.09-5.78,9.09S436.61,68.5,436.61,62.25Zm8.77-.08c0-5.88-1.32-6.91-3-6.91s-3,1-3,6.91,1.32,7.06,3,7.06S445.38,68.18,445.38,62.17Z" fill="#3b4351"/><path d="M450.65,53.5h6.17c2.45,0,4.44,1.25,4.44,4.51,0,2.25-1,4-2.92,4.29v.05c1.76.17,2.65,1.12,2.74,3.57,0,1.16,0,2.5.1,3.56A1.94,1.94,0,0,0,462,71h-3.17a3,3,0,0,1-.46-1.55c-.05-.51-.07-1-.07-1.57s0-1.1-.05-1.74c-.08-1.91-.67-2.74-2.55-2.74h-2.28V71h-2.79Zm5,7.79a2.58,2.58,0,0,0,2.79-2.84c0-1.86-.78-2.84-2.64-2.84h-2.38v5.68Z" fill="#3b4351"/><path d="M462.5,53.5h2.82l2.3,13.6h.05L470,53.5h2.94l2.35,13.67h.05L477.6,53.5h2.77L476.89,71h-3.24L471.4,57.81h0L469.12,71h-3.24Z" fill="#3b4351"/><path d="M484.53,53.5h3.58l4.6,17.5H489.8l-1.08-4.29H483.6L482.47,71h-2.92Zm3.72,11-2-8.63h0l-2.09,8.63Z" fill="#3b4351"/><path d="M495.55,64.16,491,53.5h3.12l2.94,7.55,3-7.55H503l-4.68,10.66V71h-2.8Z" fill="#3b4351"/></g><g id="Persia"><path d="M1191.14,95.66h5.54c3.35,0,4.82,2.11,4.82,5.1s-1.86,5.17-5.12,5.17h-2.45v7.23h-2.79Zm2.79,8.16h2c1.49,0,2.79-.78,2.79-3,0-1.89-.76-3-3-3h-1.79Z" fill="#3b4351"/><path d="M1203.39,95.66h9.46V98h-6.67v4.85h6.27v2.35h-6.27v5.59H1213v2.35h-9.65Z" fill="#3b4351"/><path d="M1215.17,95.66h6.18c2.45,0,4.43,1.25,4.43,4.51,0,2.26-1,4-2.91,4.29v.05c1.76.17,2.64,1.13,2.74,3.58,0,1.15,0,2.5.1,3.55a1.89,1.89,0,0,0,.83,1.52h-3.16a2.93,2.93,0,0,1-.46-1.54c-.05-.52-.08-1.06-.08-1.57s0-1.1,0-1.74c-.07-1.91-.66-2.75-2.55-2.75H1218v7.6h-2.8Zm5,7.8a2.59,2.59,0,0,0,2.8-2.85c0-1.86-.79-2.84-2.65-2.84H1218v5.69Z" fill="#3b4351"/><path d="M1230.48,107.74v.45c0,2.13,1,3.21,2.87,3.21a2.51,2.51,0,0,0,2.65-2.55c0-1.84-.93-2.65-2.5-3.12l-1.91-.66c-2.55-1-3.65-2.3-3.65-4.8,0-3.19,2.18-5,5.44-5,4.48,0,4.95,2.79,4.95,4.61v.39h-2.8V100c0-1.59-.68-2.52-2.45-2.52a2.23,2.23,0,0,0-2.35,2.52c0,1.5.76,2.26,2.62,3l1.89.68c2.47.88,3.55,2.21,3.55,4.63,0,3.73-2.25,5.27-5.78,5.27-4.34,0-5.32-2.89-5.32-5.34v-.42Z" fill="#3b4351"/><path d="M1240.92,95.66h2.79v17.5h-2.79Z" fill="#3b4351"/><path d="M1249.79,95.66h3.58l4.61,17.5h-2.92l-1.08-4.29h-5.12l-1.13,4.29h-2.92Zm3.73,11-2-8.62h0l-2.09,8.62Z" fill="#3b4351"/></g></g></svg>