<svg id="Text" xmlns="http://www.w3.org/2000/svg" viewBox="0 0 1847.91 115"><title>ce1700text</title><g id="Chinese"><path d="M1689.53,56.45v.37c0,3.16-1.3,6.24-5.39,6.24-4.41,0-5.78-2.84-5.78-9.09s1.37-9.09,5.8-9.09c5,0,5.27,3.65,5.27,5.49v.32h-2.79V50.4c0-1.65-.49-3.48-2.5-3.41s-3,1.27-3,6.91.91,7.06,3,7.06c2.35,0,2.6-2.58,2.6-4.22v-.29Z"/><path d="M1691.49,45.22h2.79v7h5.15v-7h2.79v17.5h-2.79V54.59h-5.15v8.13h-2.79Z"/><path d="M1705,45.22h2.79v17.5H1705Z"/><path d="M1710.55,45.22h3.4l5.08,13h0v-13h2.64v17.5h-3.4l-5.08-13.38h0V62.72h-2.64Z"/><path d="M1724.61,45.22h9.46v2.36h-6.67v4.85h6.28v2.35h-6.28v5.59h6.87v2.35h-9.66Z"/><path d="M1738.55,57.31v.44c0,2.13,1,3.21,2.87,3.21a2.51,2.51,0,0,0,2.65-2.55c0-1.84-.93-2.65-2.5-3.11l-1.92-.67c-2.54-1-3.65-2.3-3.65-4.8,0-3.18,2.18-4.95,5.44-4.95,4.49,0,5,2.8,5,4.61v.39h-2.79v-.37c0-1.59-.69-2.52-2.45-2.52a2.23,2.23,0,0,0-2.35,2.52c0,1.5.76,2.26,2.62,3l1.89.68c2.47.89,3.55,2.21,3.55,4.64,0,3.72-2.26,5.26-5.78,5.26-4.34,0-5.32-2.89-5.32-5.34v-.41Z"/><path d="M1749.11,45.22h9.46v2.36h-6.67v4.85h6.28v2.35h-6.28v5.59h6.87v2.35h-9.66Z"/><path d="M1689.28,72.56h4.36l3.09,13h0l3-13h4.27V90.05h-2.65V75.5h0l-3.53,14.55h-2.35L1692,75.5h0V90.05h-2.64Z"/><path d="M1715.44,87.31c0,.49.3.93.69.93a1,1,0,0,0,.44-.07v1.71a2.83,2.83,0,0,1-1.3.32c-1.17,0-2.15-.46-2.23-1.74h0a3.4,3.4,0,0,1-3.28,1.94c-2.13,0-3.43-1.15-3.43-3.7,0-2.94,1.3-3.56,3.06-4.14l2.06-.57c1-.27,1.54-.54,1.54-1.69s-.41-2-1.81-2c-1.76,0-2,1.25-2,2.53h-2.5c0-2.82,1.15-4.34,4.63-4.34,2.33,0,4.19.9,4.19,3.23Zm-2.5-4.21a21.14,21.14,0,0,1-2.94,1.22,2.16,2.16,0,0,0-1.07,2.13c0,1.11.53,2,1.64,2,1.59,0,2.37-1.18,2.37-3.14Z"/><path d="M1718.14,76.87h2.5v1.54h.07a3.78,3.78,0,0,1,3.38-1.88c2,0,3.28.9,3.28,3.58v9.94h-2.64V81c0-1.76-.47-2.37-1.84-2.37-1.08,0-2.11.8-2.11,2.57v8.84h-2.64Z"/><path d="M1738.82,85.25c-.2,3.16-1.23,5.15-4.51,5.15-3.83,0-4.9-2.82-4.9-6.94s1.07-6.93,4.9-6.93,4.53,3.11,4.53,4.73h-2.65c0-1.23-.31-2.85-1.88-2.77-1.89,0-2.26,2.06-2.26,5s.37,5,2.26,5c1.47,0,2-1.2,2-3.19Z"/><path d="M1740.65,72.56h2.65v5.73l.07,0a3.76,3.76,0,0,1,3.24-1.81c2,0,3.28.9,3.28,3.58v9.94h-2.65V81c0-1.74-.49-2.37-1.84-2.37-1.07,0-2.1.83-2.1,2.57v8.84h-2.65Z"/><path d="M1759.17,88.51h-.07a3.77,3.77,0,0,1-3.38,1.89c-2,0-3.29-.91-3.29-4.32V76.87h2.65v9.46c0,1.47.64,2,1.79,2a2.06,2.06,0,0,0,2.16-2.21V76.87h2.64V90.05h-2.5Z"/></g></svg>