<svg id="Text" xmlns="http://www.w3.org/2000/svg" viewBox="0 0 1847.91 112"><title>ce1800text</title><g id="England_Norway_Denmark" data-name="England Norway Denmark"><path d="M140.47,62.56h9.46v2.35h-6.66v4.86h6.27v2.35h-6.27v5.59h6.86v2.35h-9.66Z"/><path d="M153.85,62.56h3.41l5.07,13h0v-13H165v17.5h-3.4l-5.07-13.38h-.05V80.06h-2.65Z"/><path d="M178.16,78h0a3.63,3.63,0,0,1-3.83,2.38c-3.82,0-5.19-2.84-5.19-9.09s1.76-9.09,5.81-9.09a4.76,4.76,0,0,1,5.12,5v.31h-2.65v-.41c0-1.3-.54-2.84-2.45-2.84s-3,1.32-3,6.91.93,7.05,2.82,7.05c2.13,0,2.92-1.52,2.92-5.34h-2.94V70.84h5.58v9.22h-2.1Z"/><path d="M183.93,62.56h2.8V77.71h6.76v2.35h-9.56Z"/><path d="M200,62.56h3.58l4.61,17.5H205.3l-1.08-4.29H199.1L198,80.06h-2.91Zm3.73,11-2-8.63h-.05l-2.08,8.63Z"/><path d="M211,62.56h3.41l5.07,13h.05v-13h2.65v17.5H218.8l-5.07-13.38h0V80.06H211Z"/><path d="M226.69,62.56h5c5.49,0,6.18,3.58,6.18,8.75s-.69,8.75-6.18,8.75h-5ZM229.48,78h2.3c2.31,0,3.26-1.52,3.26-6.64,0-4.93-.83-6.64-3.26-6.64h-2.3Z"/><path d="M241,76.82h2.79v3.24c0,2-.63,3.35-2.79,3.77V82.41a1.83,1.83,0,0,0,1.22-2v-.37H241Z"/><path d="M254.84,62.56h2.79v17.5h-2.79Z"/><path d="M262,62.56h6.18c2.45,0,4.43,1.25,4.43,4.51,0,2.25-1,4-2.92,4.29v0c1.77.17,2.65,1.13,2.75,3.58,0,1.15,0,2.5.1,3.55a1.89,1.89,0,0,0,.83,1.52H270.2a3,3,0,0,1-.47-1.55c-.05-.51-.07-1.05-.07-1.56s0-1.11-.05-1.74c-.07-1.92-.66-2.75-2.55-2.75h-2.28v7.6H262Zm5,7.79a2.58,2.58,0,0,0,2.8-2.84c0-1.86-.79-2.84-2.65-2.84h-2.38v5.68Z"/><path d="M276.74,62.56h9.46v2.35h-6.67v4.86h6.28v2.35h-6.28v5.59h6.86v2.35h-9.65Z"/><path d="M289.8,62.56h2.79V77.71h6.76v2.35H289.8Z"/><path d="M305.89,62.56h3.58l4.61,17.5h-2.92l-1.08-4.29H305l-1.12,4.29h-2.92Zm3.73,11-2-8.63h-.05l-2.08,8.63Z"/><path d="M316.89,62.56h3.41l5.07,13h.05v-13h2.65v17.5h-3.41l-5.07-13.38h0V80.06h-2.65Z"/><path d="M332.55,62.56h5c5.49,0,6.18,3.58,6.18,8.75s-.69,8.75-6.18,8.75h-5ZM335.34,78h2.31c2.3,0,3.26-1.52,3.26-6.64,0-4.93-.84-6.64-3.26-6.64h-2.31Z"/><path d="M346.88,76.82h2.8v3.24c0,2-.64,3.35-2.8,3.77V82.41a1.83,1.83,0,0,0,1.23-2v-.37h-1.23Z"/><path d="M363,74.64v.44c0,2.13.95,3.21,2.87,3.21a2.5,2.5,0,0,0,2.64-2.54c0-1.84-.93-2.65-2.5-3.12L364.08,72c-2.55-1-3.65-2.3-3.65-4.8,0-3.19,2.18-5,5.44-5,4.48,0,4.95,2.79,4.95,4.61v.39H368v-.37c0-1.59-.69-2.52-2.45-2.52a2.24,2.24,0,0,0-2.36,2.52c0,1.49.76,2.25,2.63,3l1.88.69c2.48.88,3.56,2.21,3.56,4.63,0,3.73-2.26,5.27-5.79,5.27-4.33,0-5.32-2.89-5.32-5.34v-.42Z"/><path d="M385.89,73.79v.36c0,3.16-1.3,6.25-5.39,6.25-4.41,0-5.79-2.84-5.79-9.09s1.38-9.09,5.81-9.09c5,0,5.27,3.65,5.27,5.49V68H383v-.3c0-1.64-.49-3.48-2.5-3.4s-3,1.27-3,6.91.9,7.05,3,7.05c2.35,0,2.59-2.57,2.59-4.21v-.29Z"/><path d="M389,71.31c0-6.25,1.77-9.09,5.78-9.09s5.79,2.84,5.79,9.09-1.77,9.09-5.79,9.09S389,77.56,389,71.31Zm8.77-.07c0-5.89-1.32-6.91-3-6.91s-3,1-3,6.91,1.33,7.05,3,7.05S397.79,77.24,397.79,71.24Z"/><path d="M406.78,64.91h-4.16V62.56h11.05v2.35h-4.09V80.06h-2.8Z"/><path d="M416.54,62.56h2.79V77.71h6.76v2.35h-9.55Z"/><path d="M432.63,62.56h3.58l4.61,17.5H437.9l-1.08-4.29H431.7l-1.13,4.29h-2.91Zm3.73,11-2-8.63h-.05l-2.09,8.63Z"/><path d="M443.63,62.56H447l5.07,13h.05v-13h2.65v17.5H451.4l-5.07-13.38h-.05V80.06h-2.65Z"/><path d="M459.29,62.56h5c5.49,0,6.18,3.58,6.18,8.75s-.69,8.75-6.18,8.75h-5ZM462.08,78h2.3c2.31,0,3.26-1.52,3.26-6.64,0-4.93-.83-6.64-3.26-6.64h-2.3Z"/><path d="M484.38,62.56H488l4.61,17.5h-2.92l-1.07-4.29h-5.13l-1.12,4.29H479.4Zm3.72,11-2-8.63h0L484,73.54Z"/><path d="M495.37,62.56h3.41l5.07,13h0v-13h2.65v17.5h-3.41l-5.07-13.38H498V80.06h-2.65Z"/><path d="M511,62.56h5c5.48,0,6.17,3.58,6.17,8.75s-.69,8.75-6.17,8.75h-5ZM513.82,78h2.31c2.3,0,3.26-1.52,3.26-6.64,0-4.93-.84-6.64-3.26-6.64h-2.31Z"/><path d="M531.51,62.56h2.82l2.3,13.6h0L539,62.56h2.94l2.35,13.68h.05l2.28-13.68h2.77l-3.48,17.5h-3.24l-2.25-13.19h0l-2.23,13.19h-3.24Z"/><path d="M555.13,62.56h3.58l4.61,17.5H560.4l-1.08-4.29H554.2l-1.13,4.29h-2.91Zm3.73,11-2-8.63h-.05l-2.09,8.63Z"/><path d="M565.81,62.56h2.8V77.71h6.76v2.35h-9.56Z"/><path d="M578.6,62.56h9.46v2.35h-6.67v4.86h6.28v2.35h-6.28v5.59h6.87v2.35H578.6Z"/><path d="M594.13,74.64v.44c0,2.13,1,3.21,2.87,3.21a2.51,2.51,0,0,0,2.65-2.54c0-1.84-.93-2.65-2.5-3.12L595.24,72c-2.55-1-3.65-2.3-3.65-4.8,0-3.19,2.18-5,5.44-5,4.48,0,5,2.79,5,4.61v.39h-2.8v-.37c0-1.59-.68-2.52-2.45-2.52a2.23,2.23,0,0,0-2.35,2.52c0,1.49.76,2.25,2.62,3l1.89.69c2.47.88,3.55,2.21,3.55,4.63,0,3.73-2.25,5.27-5.78,5.27-4.34,0-5.32-2.89-5.32-5.34v-.42Z"/></g></svg>