<svg xmlns="http://www.w3.org/2000/svg" viewBox="0 0 1847.91 112"><title>ce1800text</title><g id="YEARS"><g id="Right"><path d="M1792.5,105.45V92.08h-3.82V90.16h.28c1.77,0,3.8-.44,4.35-2.76V87h2.15v18.41Z" fill="#3b4351"/><path d="M1800.27,100.3c0-2.73,1.3-4.21,3.15-4.6v0c-1.59-.55-2.55-1.77-2.55-4,0-2.89,1.87-4.63,5-4.63s5,1.74,5,4.63c0,2.21-1,3.43-2.55,4v0c1.85.39,3.15,1.87,3.15,4.6,0,3.64-1.79,5.51-5.56,5.51S1800.27,103.94,1800.27,100.3Zm5.57,3.43c2.08,0,2.6-1.53,2.6-3.48s-.52-3.49-2.6-3.49-2.6,1.54-2.6,3.49S1803.76,103.73,1805.84,103.73Zm0-9c1.84,0,2.31-1.35,2.31-2.8s-.47-2.76-2.31-2.76-2.32,1.3-2.32,2.76S1804,94.68,1805.84,94.68Z" fill="#3b4351"/><path d="M1818.32,87c3.53,0,5.51,2.21,5.51,9.39s-2,9.38-5.51,9.38-5.52-2.21-5.52-9.38S1814.78,87,1818.32,87Zm0,16.69c2,0,2.54-2,2.54-7.3s-.54-7.31-2.54-7.31-2.55,2-2.55,7.31S1816.31,103.73,1818.32,103.73Z" fill="#3b4351"/><path d="M1830.8,87c3.53,0,5.51,2.21,5.51,9.39s-2,9.38-5.51,9.38-5.52-2.21-5.52-9.38S1827.26,87,1830.8,87Zm0,16.69c2,0,2.54-2,2.54-7.3s-.54-7.31-2.54-7.31-2.55,2-2.55,7.31S1828.79,103.73,1830.8,103.73Z" fill="#3b4351"/></g><g id="left"><path d="M17.46,107.36V94H13.64V92.07h.29c1.77,0,3.79-.44,4.34-2.76V89h2.16v18.41Z" fill="#3b4351"/><path d="M25.24,102.21c0-2.73,1.3-4.21,3.14-4.6v-.06c-1.58-.54-2.54-1.76-2.54-4,0-2.89,1.87-4.63,5-4.63s5,1.74,5,4.63c0,2.21-1,3.43-2.55,4v.06c1.85.39,3.15,1.87,3.15,4.6,0,3.64-1.8,5.51-5.57,5.51S25.24,105.85,25.24,102.21Zm5.56,3.43c2.08,0,2.6-1.53,2.6-3.48s-.52-3.49-2.6-3.49-2.6,1.54-2.6,3.49S28.72,105.64,30.8,105.64Zm0-9c1.85,0,2.32-1.35,2.32-2.81S32.65,91,30.8,91s-2.31,1.3-2.31,2.75S29,96.59,30.8,96.59Z" fill="#3b4351"/><path d="M43.28,89c3.54,0,5.51,2.21,5.51,9.38s-2,9.39-5.51,9.39-5.51-2.21-5.51-9.39S39.75,89,43.28,89Zm0,16.69c2,0,2.55-2,2.55-7.31S45.28,91,43.28,91s-2.55,2-2.55,7.3S41.28,105.64,43.28,105.64Z" fill="#3b4351"/><path d="M55.76,89c3.54,0,5.51,2.21,5.51,9.38s-2,9.39-5.51,9.39-5.51-2.21-5.51-9.39S52.22,89,55.76,89Zm0,16.69c2,0,2.55-2,2.55-7.31S57.76,91,55.76,91s-2.55,2-2.55,7.3S53.76,105.64,55.76,105.64Z" fill="#3b4351"/></g></g><g id="Nation_OUtlines" data-name="Nation OUtlines"><polygon id="Indians" points="1372.19 -6066.66 1294.19 -6180.83 1285.19 -6293.83 1313.69 -6404.83 1348.19 -6517.83 1310.69 -6631.83 1298.69 -6741.83 1313.69 -6853.83 1345.19 -6965.83 1325.69 -7079.83 1343.69 -7193.83 1417.19 -7304.83 1400.69 -7417.91 1429.19 -7530.83 1419.27 -7646.1 1387.19 -7757.83 1387.19 -7869.83 1438.19 -7980.33 1462.18 -8092.33 1480.18 -8205.37 1445.82 -8315.66 1411.11 -8427.66 1545.86 -8427.66 1580.1 -8315.66 1593.12 -8205.43 1552.12 -8092.33 1514.62 -7980.33 1514.12 -7870.16 1553.12 -7758.1 1548.12 -7645.83 1519.62 -7530.83 1534.12 -7417.16 1575.12 -7304.83 1559.62 -7193.83 1564.12 -7080.1 1534.62 -6965.83 1486.12 -6853.83 1465.12 -6741.83 1471.12 -6632.66 1502.12 -6518.66 1508.12 -6404.83 1534.62 -6293.83 1542.77 -6214.97 1555.62 -6066.66 1554.62 -5957.83 1567.12 -5845.83 1542.12 -5731.1 1498.12 -5620.83 1490.62 -5508.83 1513.12 -5396.83 1568.62 -5285.83 1544.12 -5172.83 1530.62 -5057.1 1523.62 -4945.1 1532.62 -4832.83 1565.12 -4722.83 1543.62 -4610.83 1514.12 -4495.83 1490.12 -4386.1 1495.62 -4271.83 1517.12 -4158.16 1528.12 -4052.83 1580.62 -3940.16 1578.12 -3824.16 1578.12 -3713.66 1560.12 -3602.1 1526.62 -3486.83 1467.62 -3372.83 1381.62 -3261.1 1270.62 -3150.83 1090.12 -3038.1 860.62 -2929.83 1302.12 -2814.83 1377.03 -2702.83 1550.62 -2589.83 1519.62 -2480 1476.12 -2367 1516.13 -2253 1534.62 -2140.66 1552.65 -2030 1585.62 -1916.1 1620.12 -1801 1650.12 -1690 1630.62 -1582.1 1622.45 -1465.1 1565.62 -1354 1402.62 -1240.66 1173.62 -1128 1148.62 -1017 1334.62 -902 1283.62 -788 1344.62 -679 1544.62 -566 1602.62 -451.66 1627.62 -340 1674.62 -227.1 1627.62 -112 1634.62 0 1686.62 112 1701.62 225 1620.12 337 1606.12 448 1606.12 561.83 1552.62 561.83 1549.52 448 1569.62 337 1683.62 225 1667.62 112 1607.62 0 1596.62 -112.66 1617.62 -227 1584.62 -340 1562.62 -452 1507.62 -566 1304.62 -679.1 1225.62 -788.1 1236.97 -825.05 1264.87 -902 1082.62 -1017 1084.2 -1127.49 1323.62 -1240 1500.47 -1354.1 1573.62 -1465 1600.62 -1582 1604.62 -1690 1569.62 -1801 1514.62 -1916 1447.62 -2030.1 1418.62 -2142 1404.62 -2253 1367.62 -2367 1397.62 -2480 1418.62 -2590.1 1339.62 -2703.1 1246.62 -2814.83 748.62 -2929.83 753.62 -3037.83 910.76 -3150.83 1053.62 -3260.83 1195.2 -3372.83 1311.62 -3487.66 1353.62 -3601.83 1348.62 -3712.83 1364.62 -3824.66 1406.62 -3939.83 1401.62 -4052.83 1429.62 -4157.83 1394.62 -4272.1 1393.2 -4385.83 1391.82 -4496.1 1437.52 -4610.83 1513.62 -4723.1 1505.64 -4832.83 1472.62 -4944.66 1447.62 -5056.83 1440.63 -5172.83 1462.62 -5285.83 1391.1 -5396.83 1348.62 -5508.83 1332.62 -5620.83 1376.98 -5730.83 1375.34 -5846.1 1373.74 -5958.1 1372.19 -6066.66" fill="none" stroke="#3b4351" stroke-miterlimit="10"/><polygon id="Chinese" points="1610.76 -6068.1 1609.69 -6181.1 1608.62 -6294.16 1585.12 -6404.83 1551.62 -6517.83 1509.12 -6631.83 1538.12 -6742.1 1586.62 -6854.1 1616.12 -6965.83 1645.62 -7080.1 1697.12 -7194.1 1714.62 -7305.16 1689.12 -7416.83 1700.12 -7530.83 1676.62 -7645.83 1650.62 -7758.16 1630.62 -7869.83 1620.62 -7980.33 1646.62 -8092.33 1667.62 -8204.99 1651.62 -8315.66 1633.99 -8427.66 1768.79 -8427.66 1768.79 -227 1768.79 -112.1 1766.12 0 1757.62 112 1736.12 224.9 1676.12 336.9 1661.12 448 1663.62 561.83 1606.12 561.83 1606.12 447.9 1620.12 337 1701.62 225 1696.12 111.84 1654.12 0 1681.62 -112 1739.62 -227.1 1748.62 -340.16 1744.12 -452.16 1685.62 -566 1615.12 -676.66 1636.12 -788 1738.62 -902 1761.12 -1017 1758.62 -1128 1732.12 -1240 1695.62 -1354 1667.62 -1465 1651.12 -1582 1650.12 -1690 1620.12 -1801 1585.62 -1916.1 1552.62 -2030.1 1535.12 -2142 1516.12 -2253.1 1476.12 -2367 1542.12 -2480 1625.62 -2590.16 1668.12 -2703.16 1666.12 -2814.83 1673.62 -2929.83 1653.62 -3037.83 1602.12 -3151.1 1534.12 -3261.1 1564.12 -3372.83 1598.12 -3487.1 1612.12 -3601.83 1611.01 -3713.1 1592.62 -3824.1 1609.25 -3939.83 1616.07 -4052.83 1553.62 -4157.83 1529.62 -4271.83 1528.62 -4386.1 1555.62 -4495.83 1612.12 -4610.83 1621.12 -4722.83 1587.12 -4832.83 1567.62 -4944.83 1576.62 -5056.83 1571.12 -5172.83 1584.62 -5286.1 1558.62 -5396.83 1545.62 -5509.1 1557.62 -5621.1 1599.62 -5730.83 1625.12 -5846.1 1613.62 -5958.1 1610.76 -6068.1" fill="none" stroke="#3b4351" stroke-miterlimit="10"/><polygon id="Denmark" points="916.62 561.83 927.62 561.83 926.37 448 701.12 337 690.87 225 683.87 112 637.87 0 522.37 -112 457.37 -227 426.62 -340 299.62 -452 273.62 -566 281.62 -679 289.12 -788 302.12 -902 296.87 -1017 275.62 -1128 253.62 -1240 226.62 -1354 210.62 -1465 199.62 -1690 199.37 -1801 291.37 -1916 277.29 -2030 235.95 -2142 188.87 -2253 180.62 -2367 142.62 -2480 139.95 -2589.83 120.62 -2702.83 99.95 -2814.83 73.12 -2929.83 90.34 -2814.83 107.12 -2702.83 118.37 -2589.83 120.37 -2480 122.62 -2367 125.87 -2253 158.37 -2142 185.87 -2030 183.62 -1916 127.62 -1801 119.62 -1690 119.12 -1582 156.87 -1465 188.62 -1354 212.62 -1240 252.37 -1128 277.87 -1017 283.37 -902 267.12 -788 248.87 -679 213.87 -566 234.37 -452 312.12 -340 398.12 -227 458.87 -112 593.37 0 637.87 112 674.12 225 691.37 337 915.37 448 916.62 561.83" fill="none" stroke="#3b4351" stroke-miterlimit="10"/><polygon id="England" points="874.62 561.83 688.95 561.83 687.95 448 439.12 337 252.12 225 159.62 112 111.62 0 93.62 -112 86.12 -227 84.62 -340 86.95 -452 98.28 -566 116.95 -679 114.62 -788 122.62 -902 120.62 -1017 108.28 -1128 100.16 -1240 107.95 -1354 107.95 -1465 77.28 -1582 73.12 -2929.83 90.34 -2814.83 93.44 -2702.83 96.58 -2589.83 99.62 -2480 91.95 -2253 94.28 -2142 98.62 -2030 120.28 -1916 89.28 -1801 84.28 -1690 96.28 -1582 133.28 -1465 160.95 -1354 172.95 -1240 208.95 -1128 223.62 -1017 228.28 -902 211.62 -788 201.62 -679 189.95 -566 193.28 -452 235.28 -340 248.62 -227 348.62 -112 562.62 0 622.12 112 602.12 225 652.12 337 872.95 448 874.62 561.83" fill="none" stroke="#3b4351" stroke-miterlimit="10"/><polygon id="United_States" data-name="United States" points="348.62 337 211.12 225 141.62 112 111.62 0 93.62 -112 86.12 -227 84.62 -340 79.62 -227 82.62 -112 87.62 0 107.62 112 145.12 225 167.12 337 198.12 448 200.12 561.83 500.37 561.83 500.37 448 348.62 337" fill="none" stroke="#3b4351" stroke-miterlimit="10"/><polygon id="United_Kingdom" data-name="United Kingdom" points="687.95 448 439.12 337 252.12 225 159.62 112 111.62 0 141.62 112 211.12 225 348.62 337 500.37 448 500.37 561.83 688.95 561.83 687.95 448" fill="none" stroke="#3b4351" stroke-miterlimit="10"/><polygon id="South_America" data-name="South America" points="108.28 -1128 120.62 -1017 122.62 -902 114.62 -788 116.95 -679 98.28 -566 86.95 -452 84.62 -340 79.62 -227 82.62 -112 87.62 0 107.62 112 145.12 225 167.12 337 198.12 448 200.12 561.83 77.28 561.83 77.28 -1582 107.95 -1465 107.95 -1354 100.16 -1240 108.28 -1128" fill="none" stroke="#3b4351" stroke-miterlimit="10"/><polygon id="France" points="674.34 -340 785.95 -227.33 815.95 -112 963.28 0 1049.29 112 932.62 225 899.28 337 1099.75 449 1102.12 561.83 946.74 561.83 946.24 448 748.62 337 745.95 225 741.28 112 711.95 0 643.28 -112 613.28 -227 535.95 -340 385.29 -452 317.95 -566 311.95 -679 310.62 -788 321.29 -902 314.62 -1017 275.62 -1128 253.62 -1240 258.62 -1351.33 325.29 -1465 314.62 -1582 286.62 -1690 249.62 -1801 291.37 -1916 409.62 -1916 362.62 -1801 373.95 -1690 423.58 -1582 444.62 -1465 381.95 -1351.33 347.12 -1240 361.29 -1128 384.62 -1017 391.95 -902 365.95 -788 379.95 -679 391.29 -566 491.95 -452 674.34 -340" fill="none" stroke="#3b4351" stroke-miterlimit="10"/><polygon id="Franks_to_Holy_Roman_Empire" data-name="Franks to Holy Roman Empire" points="594.62 -1240 505.62 -1128 482.62 -1017 599.12 -902 617.12 -788 639.62 -679 772.62 -566 953.62 -452 1131.62 -340 1201.62 -227 1109.12 -112 1144.62 0 1249.12 112 1301.62 225 1217.12 337 1288.12 448 1290.62 561.83 1234.62 561.83 1232.12 448 1140.12 336.92 1137.62 225 1115.62 112 1053.62 0 973.12 -112 1064.12 -227 953.62 -340 741.12 -452 577.12 -566 525.62 -679 418.62 -788 417.62 -902 407.62 -1017 385.62 -1128 406.62 -1240 421.62 -1350.33 466.62 -1465 441.95 -1582 373.95 -1690 371.78 -1711.31 362.62 -1801 409.62 -1916 559.62 -1916 626.73 -1801 742.62 -1690 897.74 -1582 874.62 -1465 818.62 -1353.4 594.62 -1240" fill="none" stroke="#3b4351" stroke-miterlimit="10"/><polygon points="703.28 -1801 815.28 -1690 966.12 -1582 987.12 -1465 1028.12 -1354 932.12 -1240 729.62 -1128 630.12 -1017 721.12 -902 711.95 -788 829.93 -679 854.62 -566 1030.37 -452 1169.87 -340 1257.37 -227 1158.4 -112 1196.12 0 1147.62 -112 1238.87 -227 1162.87 -340 1022.62 -452 841.12 -566 809.62 -679 692.62 -788 689.38 -902 586.62 -1017 584.12 -1128 663.53 -1240 851.12 -1354 874.62 -1465 897.74 -1582 742.62 -1690 626.73 -1801 559.62 -1916 644.62 -1916 703.28 -1801" fill="none" stroke="#3b4351" stroke-miterlimit="10"/><polygon id="Holland" points="613.28 -227 643.28 -112 711.95 0 741.28 112 729.95 225 732.62 337 935.28 448 937.12 561.83 927.62 561.83 926.37 448 701.12 337 690.87 225 683.87 112 637.87 0 522.37 -112 457.37 -227 426.62 -340 299.62 -452 273.62 -566 281.62 -679 289.12 -788 302.12 -902 296.87 -1017 275.62 -1128 314.62 -1017 321.29 -902 310.62 -788 311.95 -679 317.95 -566 385.29 -452 535.95 -340 613.28 -227" fill="none" stroke="#3b4351" stroke-miterlimit="10"/><polygon id="Belgium_2" data-name="Belgium 2" points="748.62 337 946.24 448 946.74 561.83 937.12 561.83 935.28 448 732.62 337 729.95 225 741.28 112 745.95 225 748.62 337" fill="none" stroke="#3b4351" stroke-miterlimit="10"/><polygon id="Sweden" points="691.37 337 673.95 337 893.62 448 895.28 561.83 874.62 561.83 872.95 448 652.12 337 602.12 225 622.12 112 562.62 0 348.62 -112 248.62 -227 235.28 -340 193.28 -452 189.95 -566 201.62 -679 211.62 -788 228.28 -902 223.62 -1017 208.95 -1128 172.95 -1240 160.95 -1354 186.86 -1240 220.95 -1128 252.95 -1017 258.95 -902 243.95 -788 222.62 -679 213.87 -566 234.37 -452 312.12 -340 398.12 -227 458.87 -112 593.37 0 637.87 112 674.12 225 691.37 337" fill="none" stroke="#3b4351" stroke-miterlimit="10"/><polygon id="Japan" points="1676.12 336.9 1736.12 224.9 1757.62 112 1766.12 0 1768.79 -112.1 1768.79 -227 1768.79 561.83 1663.62 561.83 1661.12 448 1676.12 336.9" fill="none" stroke="#3b4351" stroke-miterlimit="10"/><polygon points="1523.12 112.84 1446.62 0 1405.12 -111.44 1442.62 -227 1396.62 -340 1391.62 -452 1351.62 -566 1183.62 -679 1092.62 -788 1124.29 -902 970.62 -1017 1005.12 -1128 1166.62 -1240 1313.55 -1351.05 1315.29 -1351 1317.44 -1354 1317.44 -1354 1317.44 -1354 1397.29 -1465 1463.95 -1582 1481.95 -1690 1488.62 -1801 1453.62 -1916 1382.62 -1801 1328.62 -1690 1225.12 -1582 1161.29 -1465 1218.62 -1354 1218.62 -1354 1218.62 -1354 1131.95 -1240 936.62 -1128 798.62 -1017 819.28 -902 759.95 -788 849.28 -679 947.12 -566 1111.12 -452 1208.62 -340 1293.62 -227 1244.12 -111.44 1280.62 0 1381.12 112 1410.62 225 1358.62 337 1436.62 448 1436.62 561.83 1467.62 561.83 1467.62 448 1423.62 337 1492.62 225 1523.12 112.84" fill="none" stroke="#3b4351" stroke-miterlimit="10"/><polygon id="Germany" points="1234.62 561.83 1126.95 561.83 1125.62 448 969.62 337 1052.2 225 1078.95 112 1015.62 0 946.95 -112 1064.12 -227 973.12 -112 1053.62 0 1115.62 112 1137.62 225 1140.12 336.92 1232.12 448 1234.62 561.83" fill="none" stroke="#3b4351" stroke-miterlimit="10"/><polygon id="Spain" points="1117.95 449.42 1119.29 561.83 1102.12 561.83 1099.75 449 899.28 337 932.62 225 1049.29 112 963.28 0 815.95 -112 785.95 -227.33 674.34 -340 491.95 -452 391.29 -566 379.95 -679 365.95 -788 391.95 -902 384.62 -1017 361.29 -1128 347.12 -1240 383.43 -1354 444.62 -1465 423.58 -1582 373.95 -1690 441.95 -1582 466.62 -1465 423.06 -1354 406.62 -1240 385.62 -1128 407.62 -1017 417.62 -902 401.95 -788 463.29 -679 491.29 -566 631.28 -451.58 844.62 -340 937.12 -225.66 922.62 -112 997.95 0 1065.62 112 1035.29 225 959.28 337 1117.95 449.42" fill="none" stroke="#3b4351" stroke-miterlimit="10"/><polygon id="Portugal" points="946.95 -112 1015.62 0 1078.95 112 1052.2 225 969.62 337 1125.62 448 1126.95 561.83 1119.29 561.83 1117.95 449.42 959.28 337 1035.29 225 1065.62 112 997.95 0 922.62 -112 937.12 -225.66 844.62 -340 631.28 -451.58 491.29 -566 463.29 -679 401.95 -788 417.62 -902 418.62 -788 525.62 -679 577.12 -566 741.12 -452 953.62 -340 1064.12 -227 946.95 -112" fill="none" stroke="#3b4351" stroke-miterlimit="10"/><polygon id="Italy" points="586.62 -1017 689.38 -902 692.62 -788 809.62 -679 841.12 -566 1022.62 -452 1162.87 -340 1238.87 -227 1147.62 -112 1196.12 0 1326.62 112.84 1351.29 225 1294.95 337 1361.29 448 1361.29 561.83 1303.29 561.83 1300.29 448 1229.95 337 1317.95 225 1262.95 112.84 1153.29 0 1109.12 -112 1201.62 -227 1131.62 -340 970.62 -452 797.62 -566 753.62 -679 632.89 -788 610.34 -902 505.62 -1017 505.62 -1128 594.62 -1240 818.62 -1353.4 874.62 -1465 851.12 -1354 663.53 -1240 584.12 -1128 586.62 -1017" fill="none" stroke="#3b4351" stroke-miterlimit="10"/><polygon id="Russia" points="1552.62 561.83 1467.62 561.83 1467.62 448 1423.62 337 1492.62 225 1523.12 112.84 1471.87 0 1443.87 -112 1536.12 -226.66 1518.87 -340 1513.87 -452 1454.87 -566 1270.87 -679 1200.12 -788 1264.87 -902 1225.62 -788.1 1304.62 -679.1 1507.62 -566 1562.62 -452 1584.62 -340 1617.62 -227 1596.62 -112.66 1607.62 0 1667.62 112 1683.62 225 1569.62 337 1549.52 448 1552.62 561.83" fill="none" stroke="#3b4351" stroke-miterlimit="10"/><polygon id="POland" points="1518.87 -340 1536.12 -226.66 1443.87 -112 1471.87 0 1523.12 112.84 1446.62 0 1405.12 -111.44 1442.62 -227 1396.62 -340 1391.62 -452 1351.62 -566 1183.62 -679 1155.87 -788 1195.12 -902 1027.37 -1017 1026.12 -1128 1082.62 -1017 1264.87 -902 1200.12 -788 1270.87 -679 1454.87 -566 1513.87 -452 1518.87 -340" fill="none" stroke="#3b4351" stroke-miterlimit="10"/><polygon id="Mogolians" points="1334.62 -902 1148.62 -1017 1173.62 -1128 1402.62 -1240.66 1565.62 -1354 1622.45 -1465.1 1630.62 -1582.1 1650.12 -1690 1651.12 -1582 1667.62 -1465 1695.62 -1354 1732.12 -1240 1758.62 -1128 1761.12 -1017 1738.62 -902 1636.12 -788 1615.56 -679 1685.62 -566 1744.12 -452.16 1748.42 -337.72 1739.62 -227.1 1681.62 -112 1654.12 0 1696.12 111.84 1701.62 225 1686.62 112 1634.62 0 1627.62 -112 1674.62 -227.1 1627.62 -340 1602.62 -451.66 1544.62 -566 1344.62 -679 1283.62 -788 1334.62 -902" fill="none" stroke="#3b4351" stroke-miterlimit="10"/><polygon points="1111.12 -452 1208.62 -340 1293.62 -227 1244.12 -111.44 1280.62 0 1381.12 112 1410.62 225 1358.62 337 1436.62 448 1436.62 561.83 1425.29 561.83 1424.62 448 1347.62 337 1385.95 225 1326.62 112.84 1196.12 0 1158.4 -112 1257.37 -227 1169.87 -340 1030.37 -452 854.62 -566 849.28 -679 947.12 -566 1111.12 -452" fill="none" stroke="#3b4351" stroke-miterlimit="10"/><polygon id="Serb-Croat" points="1301.62 561.83 1290.62 561.83 1288.12 448 1217.12 337 1301.62 225 1249.12 112 1144.62 0 1109.12 -112 1153.29 0 1262.95 112.84 1317.95 225 1229.95 337 1300.29 448 1301.62 561.83" fill="none" stroke="#3b4351" stroke-miterlimit="10"/></g><g id="Text"><g id="England_Norway_Denmark" data-name="England Norway Denmark"><path d="M140.47,62.56h9.46v2.35h-6.66v4.86h6.27v2.35h-6.27v5.59h6.86v2.35h-9.66Z" fill="#3b4351"/><path d="M153.85,62.56h3.41l5.07,13h0v-13H165v17.5h-3.4l-5.07-13.38h-.05V80.06h-2.65Z" fill="#3b4351"/><path d="M178.16,78h0a3.63,3.63,0,0,1-3.83,2.38c-3.82,0-5.19-2.84-5.19-9.09s1.76-9.09,5.81-9.09a4.76,4.76,0,0,1,5.12,5v.31h-2.65v-.41c0-1.3-.54-2.84-2.45-2.84s-3,1.32-3,6.91.93,7.05,2.82,7.05c2.13,0,2.92-1.52,2.92-5.34h-2.94V70.84h5.58v9.22h-2.1Z" fill="#3b4351"/><path d="M183.93,62.56h2.8V77.71h6.76v2.35h-9.56Z" fill="#3b4351"/><path d="M200,62.56h3.58l4.61,17.5H205.3l-1.08-4.29H199.1L198,80.06h-2.91Zm3.73,11-2-8.63h-.05l-2.08,8.63Z" fill="#3b4351"/><path d="M211,62.56h3.41l5.07,13h.05v-13h2.65v17.5H218.8l-5.07-13.38h0V80.06H211Z" fill="#3b4351"/><path d="M226.69,62.56h5c5.49,0,6.18,3.58,6.18,8.75s-.69,8.75-6.18,8.75h-5ZM229.48,78h2.3c2.31,0,3.26-1.52,3.26-6.64,0-4.93-.83-6.64-3.26-6.64h-2.3Z" fill="#3b4351"/><path d="M241,76.82h2.79v3.24c0,2-.63,3.35-2.79,3.77V82.41a1.83,1.83,0,0,0,1.22-2v-.37H241Z" fill="#3b4351"/><path d="M254.84,62.56h2.79v17.5h-2.79Z" fill="#3b4351"/><path d="M262,62.56h6.18c2.45,0,4.43,1.25,4.43,4.51,0,2.25-1,4-2.92,4.29v0c1.77.17,2.65,1.13,2.75,3.58,0,1.15,0,2.5.1,3.55a1.89,1.89,0,0,0,.83,1.52H270.2a3,3,0,0,1-.47-1.55c-.05-.51-.07-1.05-.07-1.56s0-1.11-.05-1.74c-.07-1.92-.66-2.75-2.55-2.75h-2.28v7.6H262Zm5,7.79a2.58,2.58,0,0,0,2.8-2.84c0-1.86-.79-2.84-2.65-2.84h-2.38v5.68Z" fill="#3b4351"/><path d="M276.74,62.56h9.46v2.35h-6.67v4.86h6.28v2.35h-6.28v5.59h6.86v2.35h-9.65Z" fill="#3b4351"/><path d="M289.8,62.56h2.79V77.71h6.76v2.35H289.8Z" fill="#3b4351"/><path d="M305.89,62.56h3.58l4.61,17.5h-2.92l-1.08-4.29H305l-1.12,4.29h-2.92Zm3.73,11-2-8.63h-.05l-2.08,8.63Z" fill="#3b4351"/><path d="M316.89,62.56h3.41l5.07,13h.05v-13h2.65v17.5h-3.41l-5.07-13.38h0V80.06h-2.65Z" fill="#3b4351"/><path d="M332.55,62.56h5c5.49,0,6.18,3.58,6.18,8.75s-.69,8.75-6.18,8.75h-5ZM335.34,78h2.31c2.3,0,3.26-1.52,3.26-6.64,0-4.93-.84-6.64-3.26-6.64h-2.31Z" fill="#3b4351"/><path d="M346.88,76.82h2.8v3.24c0,2-.64,3.35-2.8,3.77V82.41a1.83,1.83,0,0,0,1.23-2v-.37h-1.23Z" fill="#3b4351"/><path d="M363,74.64v.44c0,2.13.95,3.21,2.87,3.21a2.5,2.5,0,0,0,2.64-2.54c0-1.84-.93-2.65-2.5-3.12L364.08,72c-2.55-1-3.65-2.3-3.65-4.8,0-3.19,2.18-5,5.44-5,4.48,0,4.95,2.79,4.95,4.61v.39H368v-.37c0-1.59-.69-2.52-2.45-2.52a2.24,2.24,0,0,0-2.36,2.52c0,1.49.76,2.25,2.63,3l1.88.69c2.48.88,3.56,2.21,3.56,4.63,0,3.73-2.26,5.27-5.79,5.27-4.33,0-5.32-2.89-5.32-5.34v-.42Z" fill="#3b4351"/><path d="M385.89,73.79v.36c0,3.16-1.3,6.25-5.39,6.25-4.41,0-5.79-2.84-5.79-9.09s1.38-9.09,5.81-9.09c5,0,5.27,3.65,5.27,5.49V68H383v-.3c0-1.64-.49-3.48-2.5-3.4s-3,1.27-3,6.91.9,7.05,3,7.05c2.35,0,2.59-2.57,2.59-4.21v-.29Z" fill="#3b4351"/><path d="M389,71.31c0-6.25,1.77-9.09,5.78-9.09s5.79,2.84,5.79,9.09-1.77,9.09-5.79,9.09S389,77.56,389,71.31Zm8.77-.07c0-5.89-1.32-6.91-3-6.91s-3,1-3,6.91,1.33,7.05,3,7.05S397.79,77.24,397.79,71.24Z" fill="#3b4351"/><path d="M406.78,64.91h-4.16V62.56h11.05v2.35h-4.09V80.06h-2.8Z" fill="#3b4351"/><path d="M416.54,62.56h2.79V77.71h6.76v2.35h-9.55Z" fill="#3b4351"/><path d="M432.63,62.56h3.58l4.61,17.5H437.9l-1.08-4.29H431.7l-1.13,4.29h-2.91Zm3.73,11-2-8.63h-.05l-2.09,8.63Z" fill="#3b4351"/><path d="M443.63,62.56H447l5.07,13h.05v-13h2.65v17.5H451.4l-5.07-13.38h-.05V80.06h-2.65Z" fill="#3b4351"/><path d="M459.29,62.56h5c5.49,0,6.18,3.58,6.18,8.75s-.69,8.75-6.18,8.75h-5ZM462.08,78h2.3c2.31,0,3.26-1.52,3.26-6.64,0-4.93-.83-6.64-3.26-6.64h-2.3Z" fill="#3b4351"/><path d="M484.38,62.56H488l4.61,17.5h-2.92l-1.07-4.29h-5.13l-1.12,4.29H479.4Zm3.72,11-2-8.63h0L484,73.54Z" fill="#3b4351"/><path d="M495.37,62.56h3.41l5.07,13h0v-13h2.65v17.5h-3.41l-5.07-13.38H498V80.06h-2.65Z" fill="#3b4351"/><path d="M511,62.56h5c5.48,0,6.17,3.58,6.17,8.75s-.69,8.75-6.17,8.75h-5ZM513.82,78h2.31c2.3,0,3.26-1.52,3.26-6.64,0-4.93-.84-6.64-3.26-6.64h-2.31Z" fill="#3b4351"/><path d="M531.51,62.56h2.82l2.3,13.6h0L539,62.56h2.94l2.35,13.68h.05l2.28-13.68h2.77l-3.48,17.5h-3.24l-2.25-13.19h0l-2.23,13.19h-3.24Z" fill="#3b4351"/><path d="M555.13,62.56h3.58l4.61,17.5H560.4l-1.08-4.29H554.2l-1.13,4.29h-2.91Zm3.73,11-2-8.63h-.05l-2.09,8.63Z" fill="#3b4351"/><path d="M565.81,62.56h2.8V77.71h6.76v2.35h-9.56Z" fill="#3b4351"/><path d="M578.6,62.56h9.46v2.35h-6.67v4.86h6.28v2.35h-6.28v5.59h6.87v2.35H578.6Z" fill="#3b4351"/><path d="M594.13,74.64v.44c0,2.13,1,3.21,2.87,3.21a2.51,2.51,0,0,0,2.65-2.54c0-1.84-.93-2.65-2.5-3.12L595.24,72c-2.55-1-3.65-2.3-3.65-4.8,0-3.19,2.18-5,5.44-5,4.48,0,5,2.79,5,4.61v.39h-2.8v-.37c0-1.59-.68-2.52-2.45-2.52a2.23,2.23,0,0,0-2.35,2.52c0,1.49.76,2.25,2.62,3l1.89.69c2.47.88,3.55,2.21,3.55,4.63,0,3.73-2.25,5.27-5.78,5.27-4.34,0-5.32-2.89-5.32-5.34v-.42Z" fill="#3b4351"/></g><g id="Turks"><path d="M1340.16,8.06H1336V5.7h11.06V8.06H1343V23.2h-2.79Z" fill="#3b4351"/><path d="M1351.21,5.7V18.25c0,2.23.88,3.19,2.57,3.19s2.55-1,2.55-3.19V5.7h2.8V18c0,4-2,5.51-5.35,5.51s-5.36-1.47-5.36-5.51V5.7Z" fill="#3b4351"/><path d="M1361.79,5.7H1368c2.45,0,4.43,1.25,4.43,4.51,0,2.26-1,4-2.91,4.29v.05c1.76.17,2.65,1.13,2.74,3.58,0,1.15,0,2.5.1,3.55a1.92,1.92,0,0,0,.83,1.52H1370a2.93,2.93,0,0,1-.46-1.54c0-.52-.08-1.06-.08-1.57s0-1.1,0-1.74c-.07-1.91-.66-2.75-2.54-2.75h-2.28v7.6h-2.8Zm5,7.8a2.58,2.58,0,0,0,2.79-2.85c0-1.86-.78-2.84-2.65-2.84h-2.37V13.5Z" fill="#3b4351"/><path d="M1375,5.7h2.79v7.63h0l5.3-7.63h3.06l-5.05,7.38,5.59,10.12h-3.16l-4.24-7.87-1.55,2.21V23.2H1375Z" fill="#3b4351"/><path d="M1389.82,17.79v.44c0,2.13,1,3.21,2.87,3.21a2.51,2.51,0,0,0,2.65-2.55c0-1.84-.94-2.65-2.5-3.11l-1.92-.67c-2.54-1-3.65-2.3-3.65-4.8,0-3.19,2.18-4.95,5.44-4.95,4.49,0,5,2.79,5,4.61v.39h-2.79V10c0-1.59-.69-2.52-2.45-2.52a2.23,2.23,0,0,0-2.35,2.52c0,1.5.76,2.26,2.62,3l1.89.68c2.47.89,3.55,2.21,3.55,4.64,0,3.72-2.26,5.26-5.78,5.26-4.34,0-5.32-2.89-5.32-5.34v-.41Z" fill="#3b4351"/></g><g id="Holy_Roman_Empire_to_Austria" data-name="Holy Roman Empire to Austria"><path d="M1111.77,62.56h3.58l4.61,17.5H1117L1116,75.77h-5.12l-1.13,4.29h-2.91Zm3.73,11-2-8.63h0l-2.09,8.63Z" fill="#3b4351"/><path d="M1123.75,62.56V75.11c0,2.23.88,3.18,2.57,3.18s2.55-1,2.55-3.18V62.56h2.8V74.89c0,4-2,5.51-5.35,5.51s-5.36-1.47-5.36-5.51V62.56Z" fill="#3b4351"/><path d="M1136.49,74.64v.44c0,2.13,1,3.21,2.87,3.21a2.51,2.51,0,0,0,2.65-2.55c0-1.83-.94-2.64-2.5-3.11l-1.92-.66c-2.54-1-3.65-2.3-3.65-4.8,0-3.19,2.18-5,5.44-5,4.49,0,4.95,2.79,4.95,4.6v.4h-2.79v-.37c0-1.59-.69-2.53-2.45-2.53a2.24,2.24,0,0,0-2.35,2.53c0,1.49.76,2.25,2.62,3l1.89.69c2.47.88,3.55,2.21,3.55,4.63,0,3.73-2.26,5.27-5.78,5.27-4.34,0-5.32-2.89-5.32-5.34v-.42Z" fill="#3b4351"/><path d="M1149.92,64.91h-4.17V62.56h11v2.35h-4.09V80.06h-2.79Z" fill="#3b4351"/><path d="M1158.39,62.56h6.18c2.45,0,4.43,1.25,4.43,4.51,0,2.25-1,4-2.91,4.29v0c1.76.17,2.64,1.12,2.74,3.57,0,1.16,0,2.5.1,3.56a1.92,1.92,0,0,0,.83,1.52h-3.16a2.94,2.94,0,0,1-.46-1.55c-.05-.51-.08-1.05-.08-1.56s0-1.11,0-1.74c-.08-1.92-.67-2.75-2.55-2.75h-2.28v7.6h-2.8Zm5,7.79a2.58,2.58,0,0,0,2.79-2.84c0-1.86-.78-2.84-2.65-2.84h-2.37v5.68Z" fill="#3b4351"/><path d="M1171.43,62.56h2.79v17.5h-2.79Z" fill="#3b4351"/><path d="M1180.3,62.56h3.57l4.61,17.5h-2.91l-1.08-4.29h-5.12l-1.13,4.29h-2.92Zm3.72,11-2-8.63h0l-2.08,8.63Z" fill="#3b4351"/></g></g></svg>