<svg id="Text" xmlns="http://www.w3.org/2000/svg" viewBox="0 0 1847.91 113"><title>ce1850text</title><g id="England_Norway_Denmark" data-name="England Norway Denmark"><path d="M637.54,74.25h5.66c2.62,0,4.71,1.17,4.71,4.24,0,2.1-.86,3.43-2.58,4v.05c1.91.34,3.14,1.49,3.14,4.46s-2.11,4.77-5.39,4.77h-5.54Zm5,7.37a2.45,2.45,0,0,0,2.57-2.77c0-2.08-1.25-2.5-2.82-2.5h-2v5.27Zm.56,8c1.67,0,2.58-1.06,2.58-3.09a2.66,2.66,0,0,0-2.75-3h-2.6v6.06Z"/><path d="M650.7,74.25h9.46V76.6h-6.67v4.85h6.27V83.8h-6.27v5.59h6.86v2.35H650.7Z"/><path d="M662.16,74.25H665V89.39h6.76v2.35h-9.56Z"/><path d="M682,89.71h0a3.64,3.64,0,0,1-3.82,2.38c-3.83,0-5.2-2.85-5.2-9.09s1.77-9.1,5.81-9.1a4.76,4.76,0,0,1,5.12,5v.32h-2.65v-.42c0-1.29-.54-2.84-2.45-2.84s-3,1.32-3,6.91.94,7.06,2.82,7.06c2.13,0,2.92-1.52,2.92-5.34h-2.94V82.53h5.59v9.21H682Z"/><path d="M686.39,74.25h2.79V91.74h-2.79Z"/><path d="M694.53,74.25V86.79c0,2.23.88,3.19,2.57,3.19s2.55-1,2.55-3.19V74.25h2.79V86.57c0,4.05-2,5.52-5.34,5.52s-5.37-1.47-5.37-5.52V74.25Z"/><path d="M705.11,74.25h4.36l3.09,13h.05l3-13h4.26V91.74h-2.65V77.19h0l-3.52,14.55h-2.36L707.8,77.19h0V91.74h-2.65Z"/></g><g id="France"><path d="M840.78,7.53h3.4l5.08,13h0v-13H852V25h-3.4l-5.08-13.39h0V25h-2.65Z"/><path d="M863.32,22.28c0,.49.29.93.69.93a1,1,0,0,0,.44-.07v1.71a2.74,2.74,0,0,1-1.3.32c-1.18,0-2.16-.46-2.23-1.74h0a3.41,3.41,0,0,1-3.28,1.94c-2.14,0-3.43-1.15-3.43-3.7,0-2.94,1.29-3.56,3.06-4.14l2.06-.57c1-.27,1.54-.54,1.54-1.69s-.42-2-1.81-2c-1.77,0-2,1.25-2,2.52h-2.5c0-2.81,1.15-4.33,4.63-4.33,2.33,0,4.19.9,4.19,3.23Zm-2.5-4.21a21.14,21.14,0,0,1-2.94,1.22,2.17,2.17,0,0,0-1.08,2.13c0,1.11.54,2,1.64,2,1.6,0,2.38-1.18,2.38-3.14Z"/><path d="M871.7,25.37a3,3,0,0,1-3-1.89h-.05v5.86H866V11.84h2.5v1.62h0a3.13,3.13,0,0,1,3-2c3,0,4.24,2.57,4.24,7.1C875.77,24.14,873.54,25.37,871.7,25.37Zm-1-11.76c-1.81,0-2.23,1.83-2.23,4.68,0,3.16.39,5,2.26,5,1.49,0,2.2-1.13,2.2-4.78C873,15.49,872.6,13.61,870.74,13.61Z"/><path d="M877.28,18.43c0-4.11,1.08-6.93,4.9-6.93s4.93,2.82,4.93,6.93-1.28,6.94-4.93,6.94S877.28,22.55,877.28,18.43Zm4.9,5c1.94,0,2.28-1.62,2.28-5,0-2.91-.34-5-2.28-5s-2.25,2.06-2.25,5C879.93,21.79,880.3,23.41,882.18,23.41Z"/><path d="M889.26,7.53h2.65V25h-2.65Z"/><path d="M896.86,18.78v.76c0,1.76.22,4,2.2,4s2.11-2.13,2.11-2.94h2.5c0,3-1.76,4.76-4.63,4.76-2.16,0-4.83-.64-4.83-6.74,0-3.46.76-7.13,4.88-7.13,3.67,0,4.65,2.23,4.65,5.88v1.4ZM901.1,17v-.71c0-1.66-.54-2.94-2-2.94-1.66,0-2.2,1.67-2.2,3.38V17Z"/><path d="M905.41,18.43c0-4.11,1.08-6.93,4.9-6.93s4.92,2.82,4.92,6.93-1.27,6.94-4.92,6.94S905.41,22.55,905.41,18.43Zm4.9,5c1.93,0,2.28-1.62,2.28-5,0-2.91-.35-5-2.28-5s-2.26,2.06-2.26,5C908.05,21.79,908.42,23.41,910.31,23.41Z"/><path d="M917.27,11.84h2.5v1.54h.07a3.78,3.78,0,0,1,3.38-1.88c2,0,3.28.9,3.28,3.58V25h-2.64V16c0-1.76-.47-2.37-1.84-2.37-1.08,0-2.11.8-2.11,2.57V25h-2.64Z"/></g></svg>