<svg id="Text" xmlns="http://www.w3.org/2000/svg" viewBox="0 0 1847.91 113"><title>ce1850text</title><g id="England_Norway_Denmark" data-name="England Norway Denmark"><path d="M637.54,74.25h5.66c2.62,0,4.71,1.17,4.71,4.24,0,2.1-.86,3.43-2.58,4v.05c1.91.34,3.14,1.49,3.14,4.46s-2.11,4.77-5.39,4.77h-5.54Zm5,7.37a2.45,2.45,0,0,0,2.57-2.77c0-2.08-1.25-2.5-2.82-2.5h-2v5.27Zm.56,8c1.67,0,2.58-1.06,2.58-3.09a2.66,2.66,0,0,0-2.75-3h-2.6v6.06Z"/><path d="M650.7,74.25h9.46V76.6h-6.67v4.85h6.27V83.8h-6.27v5.59h6.86v2.35H650.7Z"/><path d="M662.16,74.25H665V89.39h6.76v2.35h-9.56Z"/><path d="M682,89.71h0a3.64,3.64,0,0,1-3.82,2.38c-3.83,0-5.2-2.85-5.2-9.09s1.77-9.1,5.81-9.1a4.76,4.76,0,0,1,5.12,5v.32h-2.65v-.42c0-1.29-.54-2.84-2.45-2.84s-3,1.32-3,6.91.94,7.06,2.82,7.06c2.13,0,2.92-1.52,2.92-5.34h-2.94V82.53h5.59v9.21H682Z"/><path d="M686.39,74.25h2.79V91.74h-2.79Z"/><path d="M694.53,74.25V86.79c0,2.23.88,3.19,2.57,3.19s2.55-1,2.55-3.19V74.25h2.79V86.57c0,4.05-2,5.52-5.34,5.52s-5.37-1.47-5.37-5.52V74.25Z"/><path d="M705.11,74.25h4.36l3.09,13h.05l3-13h4.26V91.74h-2.65V77.19h0l-3.52,14.55h-2.36L707.8,77.19h0V91.74h-2.65Z"/></g></svg>