<svg xmlns="http://www.w3.org/2000/svg" viewBox="0 0 1847.91 112"><title>ce1800text</title><g id="Text"><g id="England_Norway_Denmark" data-name="England Norway Denmark"><path d="M140.47,62.56h9.46v2.35h-6.66v4.86h6.27v2.35h-6.27v5.59h6.86v2.35h-9.66Z"/><path d="M153.85,62.56h3.41l5.07,13h0v-13H165v17.5h-3.4l-5.07-13.38h-.05V80.06h-2.65Z"/><path d="M178.16,78h0a3.63,3.63,0,0,1-3.83,2.38c-3.82,0-5.19-2.84-5.19-9.09s1.76-9.09,5.81-9.09a4.76,4.76,0,0,1,5.12,5v.31h-2.65v-.41c0-1.3-.54-2.84-2.45-2.84s-3,1.32-3,6.91.93,7.05,2.82,7.05c2.13,0,2.92-1.52,2.92-5.34h-2.94V70.84h5.58v9.22h-2.1Z"/><path d="M183.93,62.56h2.8V77.71h6.76v2.35h-9.56Z"/><path d="M200,62.56h3.58l4.61,17.5H205.3l-1.08-4.29H199.1L198,80.06h-2.91Zm3.73,11-2-8.63h-.05l-2.08,8.63Z"/><path d="M211,62.56h3.41l5.07,13h.05v-13h2.65v17.5H218.8l-5.07-13.38h0V80.06H211Z"/><path d="M226.69,62.56h5c5.49,0,6.18,3.58,6.18,8.75s-.69,8.75-6.18,8.75h-5ZM229.48,78h2.3c2.31,0,3.26-1.52,3.26-6.64,0-4.93-.83-6.64-3.26-6.64h-2.3Z"/><path d="M241,76.82h2.79v3.24c0,2-.63,3.35-2.79,3.77V82.41a1.83,1.83,0,0,0,1.22-2v-.37H241Z"/><path d="M254.84,62.56h2.79v17.5h-2.79Z"/><path d="M262,62.56h6.18c2.45,0,4.43,1.25,4.43,4.51,0,2.25-1,4-2.92,4.29v0c1.77.17,2.65,1.13,2.75,3.58,0,1.15,0,2.5.1,3.55a1.89,1.89,0,0,0,.83,1.52H270.2a3,3,0,0,1-.47-1.55c-.05-.51-.07-1.05-.07-1.56s0-1.11-.05-1.74c-.07-1.92-.66-2.75-2.55-2.75h-2.28v7.6H262Zm5,7.79a2.58,2.58,0,0,0,2.8-2.84c0-1.86-.79-2.84-2.65-2.84h-2.38v5.68Z"/><path d="M276.74,62.56h9.46v2.35h-6.67v4.86h6.28v2.35h-6.28v5.59h6.86v2.35h-9.65Z"/><path d="M289.8,62.56h2.79V77.71h6.76v2.35H289.8Z"/><path d="M305.89,62.56h3.58l4.61,17.5h-2.92l-1.08-4.29H305l-1.12,4.29h-2.92Zm3.73,11-2-8.63h-.05l-2.08,8.63Z"/><path d="M316.89,62.56h3.41l5.07,13h.05v-13h2.65v17.5h-3.41l-5.07-13.38h0V80.06h-2.65Z"/><path d="M332.55,62.56h5c5.49,0,6.18,3.58,6.18,8.75s-.69,8.75-6.18,8.75h-5ZM335.34,78h2.31c2.3,0,3.26-1.52,3.26-6.64,0-4.93-.84-6.64-3.26-6.64h-2.31Z"/><path d="M346.88,76.82h2.8v3.24c0,2-.64,3.35-2.8,3.77V82.41a1.83,1.83,0,0,0,1.23-2v-.37h-1.23Z"/><path d="M363,74.64v.44c0,2.13.95,3.21,2.87,3.21a2.5,2.5,0,0,0,2.64-2.54c0-1.84-.93-2.65-2.5-3.12L364.08,72c-2.55-1-3.65-2.3-3.65-4.8,0-3.19,2.18-5,5.44-5,4.48,0,4.95,2.79,4.95,4.61v.39H368v-.37c0-1.59-.69-2.52-2.45-2.52a2.24,2.24,0,0,0-2.36,2.52c0,1.49.76,2.25,2.63,3l1.88.69c2.48.88,3.56,2.21,3.56,4.63,0,3.73-2.26,5.27-5.79,5.27-4.33,0-5.32-2.89-5.32-5.34v-.42Z"/><path d="M385.89,73.79v.36c0,3.16-1.3,6.25-5.39,6.25-4.41,0-5.79-2.84-5.79-9.09s1.38-9.09,5.81-9.09c5,0,5.27,3.65,5.27,5.49V68H383v-.3c0-1.64-.49-3.48-2.5-3.4s-3,1.27-3,6.91.9,7.05,3,7.05c2.35,0,2.59-2.57,2.59-4.21v-.29Z"/><path d="M389,71.31c0-6.25,1.77-9.09,5.78-9.09s5.79,2.84,5.79,9.09-1.77,9.09-5.79,9.09S389,77.56,389,71.31Zm8.77-.07c0-5.89-1.32-6.91-3-6.91s-3,1-3,6.91,1.33,7.05,3,7.05S397.79,77.24,397.79,71.24Z"/><path d="M406.78,64.91h-4.16V62.56h11.05v2.35h-4.09V80.06h-2.8Z"/><path d="M416.54,62.56h2.79V77.71h6.76v2.35h-9.55Z"/><path d="M432.63,62.56h3.58l4.61,17.5H437.9l-1.08-4.29H431.7l-1.13,4.29h-2.91Zm3.73,11-2-8.63h-.05l-2.09,8.63Z"/><path d="M443.63,62.56H447l5.07,13h.05v-13h2.65v17.5H451.4l-5.07-13.38h-.05V80.06h-2.65Z"/><path d="M459.29,62.56h5c5.49,0,6.18,3.58,6.18,8.75s-.69,8.75-6.18,8.75h-5ZM462.08,78h2.3c2.31,0,3.26-1.52,3.26-6.64,0-4.93-.83-6.64-3.26-6.64h-2.3Z"/><path d="M484.38,62.56H488l4.61,17.5h-2.92l-1.07-4.29h-5.13l-1.12,4.29H479.4Zm3.72,11-2-8.63h0L484,73.54Z"/><path d="M495.37,62.56h3.41l5.07,13h0v-13h2.65v17.5h-3.41l-5.07-13.38H498V80.06h-2.65Z"/><path d="M511,62.56h5c5.48,0,6.17,3.58,6.17,8.75s-.69,8.75-6.17,8.75h-5ZM513.82,78h2.31c2.3,0,3.26-1.52,3.26-6.64,0-4.93-.84-6.64-3.26-6.64h-2.31Z"/><path d="M531.51,62.56h2.82l2.3,13.6h0L539,62.56h2.94l2.35,13.68h.05l2.28-13.68h2.77l-3.48,17.5h-3.24l-2.25-13.19h0l-2.23,13.19h-3.24Z"/><path d="M555.13,62.56h3.58l4.61,17.5H560.4l-1.08-4.29H554.2l-1.13,4.29h-2.91Zm3.73,11-2-8.63h-.05l-2.09,8.63Z"/><path d="M565.81,62.56h2.8V77.71h6.76v2.35h-9.56Z"/><path d="M578.6,62.56h9.46v2.35h-6.67v4.86h6.28v2.35h-6.28v5.59h6.87v2.35H578.6Z"/><path d="M594.13,74.64v.44c0,2.13,1,3.21,2.87,3.21a2.51,2.51,0,0,0,2.65-2.54c0-1.84-.93-2.65-2.5-3.12L595.24,72c-2.55-1-3.65-2.3-3.65-4.8,0-3.19,2.18-5,5.44-5,4.48,0,5,2.79,5,4.61v.39h-2.8v-.37c0-1.59-.68-2.52-2.45-2.52a2.23,2.23,0,0,0-2.35,2.52c0,1.49.76,2.25,2.62,3l1.89.69c2.47.88,3.55,2.21,3.55,4.63,0,3.73-2.25,5.27-5.78,5.27-4.34,0-5.32-2.89-5.32-5.34v-.42Z"/></g><g id="Holy_Roman_Empire_to_Austria" data-name="Holy Roman Empire to Austria"><path d="M1111.77,62.56h3.58l4.61,17.5H1117L1116,75.77h-5.12l-1.13,4.29h-2.91Zm3.73,11-2-8.63h0l-2.09,8.63Z"/><path d="M1123.75,62.56V75.11c0,2.23.88,3.18,2.57,3.18s2.55-1,2.55-3.18V62.56h2.8V74.89c0,4-2,5.51-5.35,5.51s-5.36-1.47-5.36-5.51V62.56Z"/><path d="M1136.49,74.64v.44c0,2.13,1,3.21,2.87,3.21a2.51,2.51,0,0,0,2.65-2.55c0-1.83-.94-2.64-2.5-3.11l-1.92-.66c-2.54-1-3.65-2.3-3.65-4.8,0-3.19,2.18-5,5.44-5,4.49,0,4.95,2.79,4.95,4.6v.4h-2.79v-.37c0-1.59-.69-2.53-2.45-2.53a2.24,2.24,0,0,0-2.35,2.53c0,1.49.76,2.25,2.62,3l1.89.69c2.47.88,3.55,2.21,3.55,4.63,0,3.73-2.26,5.27-5.78,5.27-4.34,0-5.32-2.89-5.32-5.34v-.42Z"/><path d="M1149.92,64.91h-4.17V62.56h11v2.35h-4.09V80.06h-2.79Z"/><path d="M1158.39,62.56h6.18c2.45,0,4.43,1.25,4.43,4.51,0,2.25-1,4-2.91,4.29v0c1.76.17,2.64,1.12,2.74,3.57,0,1.16,0,2.5.1,3.56a1.92,1.92,0,0,0,.83,1.52h-3.16a2.94,2.94,0,0,1-.46-1.55c-.05-.51-.08-1.05-.08-1.56s0-1.11,0-1.74c-.08-1.92-.67-2.75-2.55-2.75h-2.28v7.6h-2.8Zm5,7.79a2.58,2.58,0,0,0,2.79-2.84c0-1.86-.78-2.84-2.65-2.84h-2.37v5.68Z"/><path d="M1171.43,62.56h2.79v17.5h-2.79Z"/><path d="M1180.3,62.56h3.57l4.61,17.5h-2.91l-1.08-4.29h-5.12l-1.13,4.29h-2.92Zm3.72,11-2-8.63h0l-2.08,8.63Z"/></g><g id="Turks"><path d="M1340.16,8.06H1336V5.7h11.06V8.06H1343V23.2h-2.79Z"/><path d="M1351.21,5.7V18.25c0,2.23.88,3.19,2.57,3.19s2.55-1,2.55-3.19V5.7h2.8V18c0,4-2,5.51-5.35,5.51s-5.36-1.47-5.36-5.51V5.7Z"/><path d="M1361.79,5.7H1368c2.45,0,4.43,1.25,4.43,4.51,0,2.26-1,4-2.91,4.29v.05c1.76.17,2.65,1.13,2.74,3.58,0,1.15,0,2.5.1,3.55a1.92,1.92,0,0,0,.83,1.52H1370a2.93,2.93,0,0,1-.46-1.54c0-.52-.08-1.06-.08-1.57s0-1.1,0-1.74c-.07-1.91-.66-2.75-2.54-2.75h-2.28v7.6h-2.8Zm5,7.8a2.58,2.58,0,0,0,2.79-2.85c0-1.86-.78-2.84-2.65-2.84h-2.37V13.5Z"/><path d="M1375,5.7h2.79v7.63h0l5.3-7.63h3.06l-5.05,7.38,5.59,10.12h-3.16l-4.24-7.87-1.55,2.21V23.2H1375Z"/><path d="M1389.82,17.79v.44c0,2.13,1,3.21,2.87,3.21a2.51,2.51,0,0,0,2.65-2.55c0-1.84-.94-2.65-2.5-3.11l-1.92-.67c-2.54-1-3.65-2.3-3.65-4.8,0-3.19,2.18-4.95,5.44-4.95,4.49,0,5,2.79,5,4.61v.39h-2.79V10c0-1.59-.69-2.52-2.45-2.52a2.23,2.23,0,0,0-2.35,2.52c0,1.5.76,2.26,2.62,3l1.89.68c2.47.89,3.55,2.21,3.55,4.64,0,3.72-2.26,5.26-5.78,5.26-4.34,0-5.32-2.89-5.32-5.34v-.41Z"/></g></g><g id="YEARS"><g id="Right"><path d="M1787.21,108.23V94.87h-3.82V92.94h.29c1.77,0,3.79-.44,4.34-2.76v-.36h2.16v18.41Z"/><path d="M1795,103.08c0-2.73,1.3-4.21,3.14-4.6v0c-1.58-.55-2.54-1.77-2.54-4,0-2.89,1.87-4.63,5-4.63s5,1.74,5,4.63c0,2.21-1,3.43-2.55,4v0c1.84.39,3.15,1.87,3.15,4.6,0,3.64-1.8,5.51-5.57,5.51S1795,106.72,1795,103.08Zm5.56,3.43c2.08,0,2.6-1.53,2.6-3.48s-.52-3.49-2.6-3.49-2.6,1.54-2.6,3.49S1798.47,106.51,1800.55,106.51Zm0-9.05c1.85,0,2.32-1.35,2.32-2.8s-.47-2.76-2.32-2.76-2.31,1.3-2.31,2.76S1798.71,97.46,1800.55,97.46Z"/><path d="M1813,89.82c3.54,0,5.51,2.21,5.51,9.39s-2,9.38-5.51,9.38-5.51-2.21-5.51-9.38S1809.49,89.82,1813,89.82Zm0,16.69c2,0,2.55-2,2.55-7.3S1815,91.9,1813,91.9s-2.55,2-2.55,7.31S1811,106.51,1813,106.51Z"/><path d="M1825.51,89.82c3.54,0,5.51,2.21,5.51,9.39s-2,9.38-5.51,9.38-5.51-2.21-5.51-9.38S1822,89.82,1825.51,89.82Zm0,16.69c2,0,2.55-2,2.55-7.3s-.55-7.31-2.55-7.31-2.55,2-2.55,7.31S1823.51,106.51,1825.51,106.51Z"/></g><g id="left"><path d="M17.46,111.83V98.46H13.64V96.54h.29c1.77,0,3.79-.44,4.34-2.76v-.36h2.16v18.41Z"/><path d="M25.24,106.68c0-2.73,1.3-4.21,3.14-4.6v0c-1.58-.55-2.54-1.77-2.54-4,0-2.89,1.87-4.63,5-4.63s5,1.74,5,4.63c0,2.21-1,3.43-2.55,4v0c1.85.39,3.15,1.87,3.15,4.6,0,3.64-1.8,5.51-5.57,5.51S25.24,110.32,25.24,106.68Zm5.56,3.43c2.08,0,2.6-1.53,2.6-3.48s-.52-3.49-2.6-3.49-2.6,1.54-2.6,3.49S28.72,110.11,30.8,110.11Zm0-9c1.85,0,2.32-1.35,2.32-2.8s-.47-2.76-2.32-2.76-2.31,1.3-2.31,2.76S29,101.06,30.8,101.06Z"/><path d="M43.28,93.42c3.54,0,5.51,2.21,5.51,9.39s-2,9.38-5.51,9.38-5.51-2.21-5.51-9.38S39.75,93.42,43.28,93.42Zm0,16.69c2,0,2.55-2,2.55-7.3s-.55-7.31-2.55-7.31-2.55,2-2.55,7.31S41.28,110.11,43.28,110.11Z"/><path d="M55.76,93.42c3.54,0,5.51,2.21,5.51,9.39s-2,9.38-5.51,9.38-5.51-2.21-5.51-9.38S52.22,93.42,55.76,93.42Zm0,16.69c2,0,2.55-2,2.55-7.3s-.55-7.31-2.55-7.31-2.55,2-2.55,7.31S53.76,110.11,55.76,110.11Z"/></g></g></svg>