<svg xmlns="http://www.w3.org/2000/svg" viewBox="0 0 1847.91 111"><title>ce1950text</title><g id="YEARS"><g id="Right"><path d="M1792.5,105.92V92.56h-3.82V90.63h.28c1.77,0,3.8-.44,4.35-2.76v-.36h2.15v18.41Z" fill="#3b4351"/><path d="M1803.55,101.81c0,1.07.52,2.39,2,2.39,2.79,0,2.94-3.64,2.94-6.34l-.08,0a3.77,3.77,0,0,1-3.58,2c-2.53,0-4.55-1.82-4.55-5.49,0-4.24,1.71-6.76,5.64-6.76,4.65,0,5.54,3.54,5.54,8.82,0,5.51-1,10-5.88,10-3.25,0-5-1.43-5-4.47Zm2.1-12.22c-1.79,0-2.44,1.79-2.44,4,0,2.58.75,4,2.44,4,2.19,0,2.55-1.9,2.55-4.11S1807.4,89.59,1805.65,89.59Z" fill="#3b4351"/><path d="M1812.91,101h2.81v.5a2.35,2.35,0,0,0,2.41,2.6c2.08,0,2.63-2,2.63-4.19s-.57-3.92-2.47-3.92a2.35,2.35,0,0,0-2.42,1.68l-2.62-.1.91-9.65H1823v2.37h-6.65l-.6,4.84,0,0a4.06,4.06,0,0,1,3.09-1.43c3.85,0,4.81,3.25,4.81,6.08,0,3.7-1.69,6.5-5.66,6.5-3.31,0-5.15-1.69-5.15-4.94Z" fill="#3b4351"/><path d="M1830.8,87.51c3.53,0,5.51,2.21,5.51,9.39s-2,9.38-5.51,9.38-5.52-2.21-5.52-9.38S1827.26,87.51,1830.8,87.51Zm0,16.69c2,0,2.54-2,2.54-7.3s-.54-7.31-2.54-7.31-2.55,2-2.55,7.31S1828.79,104.2,1830.8,104.2Z" fill="#3b4351"/></g><g id="left"><path d="M17.46,107.83V94.46H13.64V92.54h.29c1.77,0,3.79-.44,4.34-2.76v-.36h2.16v18.41Z" fill="#3b4351"/><path d="M28.51,103.72c0,1.07.52,2.39,2,2.39,2.78,0,2.94-3.64,2.94-6.34l-.08-.06a3.77,3.77,0,0,1-3.59,2c-2.52,0-4.55-1.82-4.55-5.48,0-4.24,1.72-6.76,5.64-6.76,4.66,0,5.54,3.54,5.54,8.81,0,5.52-1,10-5.87,10-3.25,0-5-1.43-5-4.47ZM30.62,91.5c-1.79,0-2.44,1.79-2.44,4,0,2.58.75,4,2.44,4,2.18,0,2.55-1.9,2.55-4.11S32.36,91.5,30.62,91.5Z" fill="#3b4351"/><path d="M37.87,102.86h2.81v.5A2.36,2.36,0,0,0,43.1,106c2.08,0,2.63-2,2.63-4.19s-.58-3.93-2.48-3.93a2.35,2.35,0,0,0-2.41,1.69l-2.63-.1.91-9.65H48v2.37H41.33L40.73,97l.06.06a4,4,0,0,1,3.09-1.43c3.85,0,4.81,3.25,4.81,6.08,0,3.69-1.69,6.5-5.67,6.5-3.3,0-5.15-1.69-5.15-4.94Z" fill="#3b4351"/><path d="M55.76,89.42c3.54,0,5.51,2.21,5.51,9.38s-2,9.39-5.51,9.39S50.25,106,50.25,98.8,52.22,89.42,55.76,89.42Zm0,16.69c2,0,2.55-2,2.55-7.31s-.55-7.3-2.55-7.3-2.55,2-2.55,7.3S53.76,106.11,55.76,106.11Z" fill="#3b4351"/></g></g><g id="Nation_OUtlines" data-name="Nation OUtlines"><polygon id="Indians" points="1372.19 -6403.66 1294.19 -6517.83 1285.19 -6630.83 1313.69 -6741.83 1348.19 -6854.83 1310.69 -6968.83 1298.69 -7078.83 1313.69 -7190.83 1345.19 -7302.83 1325.69 -7416.83 1343.69 -7530.83 1417.19 -7641.83 1400.69 -7754.91 1429.19 -7867.83 1419.27 -7983.1 1387.19 -8094.83 1387.19 -8206.83 1438.19 -8317.33 1462.18 -8429.33 1480.18 -8542.37 1445.82 -8652.66 1411.11 -8764.66 1545.86 -8764.66 1580.1 -8652.66 1593.12 -8542.43 1552.12 -8429.33 1514.62 -8317.33 1514.12 -8207.16 1553.12 -8095.1 1548.12 -7982.83 1519.62 -7867.83 1534.12 -7754.16 1575.12 -7641.83 1559.62 -7530.83 1564.12 -7417.1 1534.62 -7302.83 1486.12 -7190.83 1465.12 -7078.83 1471.12 -6969.66 1502.12 -6855.66 1508.12 -6741.83 1534.62 -6630.83 1542.77 -6551.97 1555.62 -6403.66 1554.62 -6294.83 1567.12 -6182.83 1542.12 -6068.1 1498.12 -5957.83 1490.62 -5845.83 1513.12 -5733.83 1568.62 -5622.83 1544.12 -5509.83 1530.62 -5394.1 1523.62 -5282.1 1532.62 -5169.83 1565.12 -5059.83 1543.62 -4947.83 1514.12 -4832.83 1490.12 -4723.1 1495.62 -4608.83 1517.12 -4495.16 1528.12 -4389.83 1580.62 -4277.16 1578.12 -4161.16 1578.12 -4050.66 1560.12 -3939.1 1526.62 -3823.83 1467.62 -3709.83 1381.62 -3598.1 1270.62 -3487.83 1090.12 -3375.1 860.62 -3266.83 1302.12 -3151.83 1377.03 -3039.83 1550.62 -2926.83 1519.62 -2817 1476.12 -2704 1516.13 -2590 1534.62 -2477.66 1552.65 -2367 1585.62 -2253.1 1620.12 -2138 1650.12 -2027 1630.62 -1919.1 1622.45 -1802.1 1565.62 -1691 1402.62 -1577.66 1173.62 -1465 1148.62 -1354 1334.62 -1239 1283.62 -1125 1344.62 -1016 1544.62 -903 1602.62 -788.66 1627.62 -677 1674.62 -564.1 1627.62 -449 1634.62 -337 1686.62 -225 1701.62 -112 1620.12 0 1606.12 111 1606.12 224.83 1552.62 224.83 1549.52 111 1569.62 0 1683.62 -112 1667.62 -225 1607.62 -337 1596.62 -449.66 1617.62 -564 1584.62 -677 1562.62 -789 1507.62 -903 1304.62 -1016.1 1225.62 -1125.1 1236.97 -1162.05 1264.87 -1239 1082.62 -1354 1084.2 -1464.49 1323.62 -1577 1500.47 -1691.1 1573.62 -1802 1600.62 -1919 1604.62 -2027 1569.62 -2138 1514.62 -2253 1447.62 -2367.1 1418.62 -2479 1404.62 -2590 1367.62 -2704 1397.62 -2817 1418.62 -2927.1 1339.62 -3040.1 1246.62 -3151.83 748.62 -3266.83 753.62 -3374.83 910.76 -3487.83 1053.62 -3597.83 1195.2 -3709.83 1311.62 -3824.66 1353.62 -3938.83 1348.62 -4049.83 1364.62 -4161.66 1406.62 -4276.83 1401.62 -4389.83 1429.62 -4494.83 1394.62 -4609.1 1393.2 -4722.83 1391.82 -4833.1 1437.52 -4947.83 1513.62 -5060.1 1505.64 -5169.83 1472.62 -5281.66 1447.62 -5393.83 1440.63 -5509.83 1462.62 -5622.83 1391.1 -5733.83 1348.62 -5845.83 1332.62 -5957.83 1376.98 -6067.83 1375.34 -6183.1 1373.74 -6295.1 1372.19 -6403.66" fill="none" stroke="#3b4351" stroke-miterlimit="10"/><polygon id="Chinese" points="1610.76 -6405.1 1609.69 -6518.1 1608.62 -6631.16 1585.12 -6741.83 1551.62 -6854.83 1509.12 -6968.83 1538.12 -7079.1 1586.62 -7191.1 1616.12 -7302.83 1645.62 -7417.1 1697.12 -7531.1 1714.62 -7642.16 1689.12 -7753.83 1700.12 -7867.83 1676.62 -7982.83 1650.62 -8095.16 1630.62 -8206.83 1620.62 -8317.33 1646.62 -8429.33 1667.62 -8541.99 1651.62 -8652.66 1633.99 -8764.66 1768.79 -8764.66 1768.79 -564 1768.79 -449.1 1766.12 -337 1757.62 -225 1736.12 -112.1 1676.12 -0.1 1661.12 111 1663.62 224.83 1606.12 224.83 1606.12 110.9 1620.12 0 1701.62 -112 1696.12 -225.16 1654.12 -337 1681.62 -449 1739.62 -564.1 1748.62 -677.16 1744.12 -789.16 1685.62 -903 1615.12 -1013.66 1636.12 -1125 1738.62 -1239 1761.12 -1354 1758.62 -1465 1732.12 -1577 1695.62 -1691 1667.62 -1802 1651.12 -1919 1650.12 -2027 1620.12 -2138 1585.62 -2253.1 1552.62 -2367.1 1535.12 -2479 1516.12 -2590.1 1476.12 -2704 1542.12 -2817 1625.62 -2927.16 1668.12 -3040.16 1666.12 -3151.83 1673.62 -3266.83 1653.62 -3374.83 1602.12 -3488.1 1534.12 -3598.1 1564.12 -3709.83 1598.12 -3824.1 1612.12 -3938.83 1611.01 -4050.1 1592.62 -4161.1 1609.25 -4276.83 1616.07 -4389.83 1553.62 -4494.83 1529.62 -4608.83 1528.62 -4723.1 1555.62 -4832.83 1612.12 -4947.83 1621.12 -5059.83 1587.12 -5169.83 1567.62 -5281.83 1576.62 -5393.83 1571.12 -5509.83 1584.62 -5623.1 1558.62 -5733.83 1545.62 -5846.1 1557.62 -5958.1 1599.62 -6067.83 1625.12 -6183.1 1613.62 -6295.1 1610.76 -6405.1" fill="none" stroke="#3b4351" stroke-miterlimit="10"/><polygon id="Denmark" points="916.62 224.83 927.62 224.83 926.37 111 701.12 0 690.87 -112 683.87 -225 637.87 -337 522.37 -449 457.37 -564 426.62 -677 299.62 -789 273.62 -903 281.62 -1016 289.12 -1125 302.12 -1239 296.87 -1354 275.62 -1465 253.62 -1577 226.62 -1691 210.62 -1802 199.62 -2027 199.37 -2138 291.37 -2253 277.29 -2367 235.95 -2479 188.87 -2590 180.62 -2704 142.62 -2817 139.95 -2926.83 120.62 -3039.83 99.95 -3151.83 73.12 -3266.83 90.34 -3151.83 107.12 -3039.83 118.37 -2926.83 120.37 -2817 122.62 -2704 125.87 -2590 158.37 -2479 185.87 -2367 183.62 -2253 127.62 -2138 119.62 -2027 119.12 -1919 156.87 -1802 188.62 -1691 212.62 -1577 252.37 -1465 277.87 -1354 283.37 -1239 267.12 -1125 248.87 -1016 213.87 -903 234.37 -789 312.12 -677 398.12 -564 458.87 -449 593.37 -337 637.87 -225 674.12 -112 691.37 0 915.37 111 916.62 224.83" fill="none" stroke="#3b4351" stroke-miterlimit="10"/><polygon id="England" points="874.62 224.83 688.95 224.83 687.95 111 439.12 0 252.12 -112 159.62 -225 111.62 -337 93.62 -449 86.12 -564 84.62 -677 86.95 -789 98.28 -903 116.95 -1016 114.62 -1125 122.62 -1239 120.62 -1354 108.28 -1465 100.16 -1577 107.95 -1691 107.95 -1802 77.28 -1919 73.12 -3266.83 90.34 -3151.83 93.44 -3039.83 96.58 -2926.83 99.62 -2817 91.95 -2590 94.28 -2479 98.62 -2367 120.28 -2253 89.28 -2138 84.28 -2027 96.28 -1919 133.28 -1802 160.95 -1691 172.95 -1577 208.95 -1465 223.62 -1354 228.28 -1239 211.62 -1125 201.62 -1016 189.95 -903 193.28 -789 235.28 -677 248.62 -564 348.62 -449 562.62 -337 622.12 -225 602.12 -112 652.12 0 872.95 111 874.62 224.83" fill="none" stroke="#3b4351" stroke-miterlimit="10"/><polygon id="United_States" data-name="United States" points="348.62 0 211.12 -112 141.62 -225 111.62 -337 93.62 -449 86.12 -564 84.62 -677 79.62 -564 82.62 -449 87.62 -337 107.62 -225 145.12 -112 167.12 0 198.12 111 200.12 224.83 500.37 224.83 500.37 111 348.62 0" fill="none" stroke="#3b4351" stroke-miterlimit="10"/><polygon id="United_Kingdom" data-name="United Kingdom" points="687.95 111 439.12 0 252.12 -112 159.62 -225 111.62 -337 141.62 -225 211.12 -112 348.62 0 500.37 111 500.37 224.83 688.95 224.83 687.95 111" fill="none" stroke="#3b4351" stroke-miterlimit="10"/><polygon id="South_America" data-name="South America" points="108.28 -1465 120.62 -1354 122.62 -1239 114.62 -1125 116.95 -1016 98.28 -903 86.95 -789 84.62 -677 79.62 -564 82.62 -449 87.62 -337 107.62 -225 145.12 -112 167.12 0 198.12 111 200.12 224.83 77.28 224.83 77.28 -1919 107.95 -1802 107.95 -1691 100.16 -1577 108.28 -1465" fill="none" stroke="#3b4351" stroke-miterlimit="10"/><polygon id="France" points="674.34 -677 785.95 -564.33 815.95 -449 963.28 -337 1049.29 -225 932.62 -112 899.28 0 1099.75 112 1102.12 224.83 946.74 224.83 946.24 111 748.62 0 745.95 -112 741.28 -225 711.95 -337 643.28 -449 613.28 -564 535.95 -677 385.29 -789 317.95 -903 311.95 -1016 310.62 -1125 321.29 -1239 314.62 -1354 275.62 -1465 253.62 -1577 258.62 -1688.33 325.29 -1802 314.62 -1919 286.62 -2027 249.62 -2138 291.37 -2253 409.62 -2253 362.62 -2138 373.95 -2027 423.58 -1919 444.62 -1802 381.95 -1688.33 347.12 -1577 361.29 -1465 384.62 -1354 391.95 -1239 365.95 -1125 379.95 -1016 391.29 -903 491.95 -789 674.34 -677" fill="none" stroke="#3b4351" stroke-miterlimit="10"/><polygon id="Franks_to_Holy_Roman_Empire" data-name="Franks to Holy Roman Empire" points="594.62 -1577 505.62 -1465 482.62 -1354 599.12 -1239 617.12 -1125 639.62 -1016 772.62 -903 953.62 -789 1131.62 -677 1201.62 -564 1109.12 -449 1144.62 -337 1249.12 -225 1301.62 -112 1217.12 0 1288.12 111 1290.62 224.83 1234.62 224.83 1232.12 111 1140.12 -0.09 1137.62 -112 1115.62 -225 1053.62 -337 973.12 -449 1064.12 -564 953.62 -677 741.12 -789 577.12 -903 525.62 -1016 418.62 -1125 417.62 -1239 407.62 -1354 385.62 -1465 406.62 -1577 421.62 -1687.33 466.62 -1802 441.95 -1919 373.95 -2027 371.78 -2048.31 362.62 -2138 409.62 -2253 559.62 -2253 626.73 -2138 742.62 -2027 897.74 -1919 874.62 -1802 818.62 -1690.4 594.62 -1577" fill="none" stroke="#3b4351" stroke-miterlimit="10"/><polygon id="Holland" points="613.28 -564 643.28 -449 711.95 -337 741.28 -225 729.95 -112 732.62 0 935.28 111 937.12 224.83 927.62 224.83 926.37 111 701.12 0 690.87 -112 683.87 -225 637.87 -337 522.37 -449 457.37 -564 426.62 -677 299.62 -789 273.62 -903 281.62 -1016 289.12 -1125 302.12 -1239 296.87 -1354 275.62 -1465 314.62 -1354 321.29 -1239 310.62 -1125 311.95 -1016 317.95 -903 385.29 -789 535.95 -677 613.28 -564" fill="none" stroke="#3b4351" stroke-miterlimit="10"/><polygon id="Belgium_2" data-name="Belgium 2" points="748.62 0 946.24 111 946.74 224.83 937.12 224.83 935.28 111 732.62 0 729.95 -112 741.28 -225 745.95 -112 748.62 0" fill="none" stroke="#3b4351" stroke-miterlimit="10"/><polygon id="Sweden" points="691.37 0 673.95 0 893.62 111 895.28 224.83 874.62 224.83 872.95 111 652.12 0 602.12 -112 622.12 -225 562.62 -337 348.62 -449 248.62 -564 235.28 -677 193.28 -789 189.95 -903 201.62 -1016 211.62 -1125 228.28 -1239 223.62 -1354 208.95 -1465 172.95 -1577 160.95 -1691 186.86 -1577 220.95 -1465 252.95 -1354 258.95 -1239 243.95 -1125 222.62 -1016 213.87 -903 234.37 -789 312.12 -677 398.12 -564 458.87 -449 593.37 -337 637.87 -225 674.12 -112 691.37 0" fill="none" stroke="#3b4351" stroke-miterlimit="10"/><polygon id="Denmark_2" data-name="Denmark 2" points="916.62 224.83 895.28 224.83 893.62 111 673.95 0 691.37 0 915.37 111 916.62 224.83" fill="none" stroke="#3b4351" stroke-miterlimit="10"/><polygon id="Japan" points="1676.12 -0.1 1736.12 -112.1 1757.62 -225 1766.12 -337 1768.79 -449.1 1768.79 -564 1768.79 224.83 1663.62 224.83 1661.12 111 1676.12 -0.1" fill="none" stroke="#3b4351" stroke-miterlimit="10"/><polygon points="1523.12 -224.16 1446.62 -337 1405.12 -448.44 1442.62 -564 1396.62 -677 1391.62 -789 1351.62 -903 1183.62 -1016 1092.62 -1125 1124.29 -1239 970.62 -1354 1005.12 -1465 1166.62 -1577 1313.55 -1688.05 1315.29 -1688 1317.44 -1691 1317.44 -1691 1317.44 -1691 1397.29 -1802 1463.95 -1919 1481.95 -2027 1488.62 -2138 1453.62 -2253 1382.62 -2138 1328.62 -2027 1225.12 -1919 1161.29 -1802 1218.62 -1691 1218.62 -1691 1218.62 -1691 1131.95 -1577 936.62 -1465 798.62 -1354 819.28 -1239 759.95 -1125 849.28 -1016 947.12 -903 1111.12 -789 1208.62 -677 1293.62 -564 1244.12 -448.44 1280.62 -337 1381.12 -225 1410.62 -112 1358.62 0 1436.62 111 1436.62 224.83 1467.62 224.83 1467.62 111 1423.62 0 1492.62 -112 1523.12 -224.16" fill="none" stroke="#3b4351" stroke-miterlimit="10"/><polygon id="Germany" points="1234.62 224.83 1126.95 224.83 1125.62 111 969.62 0 1052.2 -112 1078.95 -225 1015.62 -337 946.95 -449 1064.12 -564 973.12 -449 1053.62 -337 1115.62 -225 1137.62 -112 1140.12 -0.09 1232.12 111 1234.62 224.83" fill="none" stroke="#3b4351" stroke-miterlimit="10"/><polygon id="Spain" points="1117.95 112.42 1119.29 224.83 1102.12 224.83 1099.75 112 899.28 0 932.62 -112 1049.29 -225 963.28 -337 815.95 -449 785.95 -564.33 674.34 -677 491.95 -789 391.29 -903 379.95 -1016 365.95 -1125 391.95 -1239 384.62 -1354 361.29 -1465 347.12 -1577 383.43 -1691 444.62 -1802 423.58 -1919 373.95 -2027 441.95 -1919 466.62 -1802 423.06 -1691 406.62 -1577 385.62 -1465 407.62 -1354 417.62 -1239 401.95 -1125 463.29 -1016 491.29 -903 631.28 -788.59 844.62 -677 937.12 -562.66 922.62 -449 997.95 -337 1065.62 -225 1035.29 -112 959.28 0 1117.95 112.42" fill="none" stroke="#3b4351" stroke-miterlimit="10"/><polygon id="Portugal" points="946.95 -449 1015.62 -337 1078.95 -225 1052.2 -112 969.62 0 1125.62 111 1126.95 224.83 1119.29 224.83 1117.95 112.42 959.28 0 1035.29 -112 1065.62 -225 997.95 -337 922.62 -449 937.12 -562.66 844.62 -677 631.28 -788.59 491.29 -903 463.29 -1016 401.95 -1125 417.62 -1239 418.62 -1125 525.62 -1016 577.12 -903 741.12 -789 953.62 -677 1064.12 -564 946.95 -449" fill="none" stroke="#3b4351" stroke-miterlimit="10"/><polygon id="Italy" points="586.62 -1354 689.38 -1239 692.62 -1125 809.62 -1016 841.12 -903 1022.62 -789 1162.87 -677 1238.87 -564 1147.62 -449 1196.12 -337 1326.62 -224.16 1351.29 -112 1294.95 0 1361.29 111 1361.29 224.83 1303.29 224.83 1300.29 111 1229.95 0 1317.95 -112 1262.95 -224.16 1153.29 -337 1109.12 -449 1201.62 -564 1131.62 -677 970.62 -789 797.62 -903 753.62 -1016 632.89 -1125 610.34 -1239 505.62 -1354 505.62 -1465 594.62 -1577 818.62 -1690.4 874.62 -1802 851.12 -1691 663.53 -1577 584.12 -1465 586.62 -1354" fill="none" stroke="#3b4351" stroke-miterlimit="10"/><polygon id="Russia" points="1552.62 224.83 1467.62 224.83 1467.62 111 1423.62 0 1492.62 -112 1523.12 -224.16 1471.87 -337 1443.87 -449 1536.12 -563.66 1518.87 -677 1513.87 -789 1454.87 -903 1270.87 -1016 1200.12 -1125 1264.87 -1239 1225.62 -1125.1 1304.62 -1016.1 1507.62 -903 1562.62 -789 1584.62 -677 1617.62 -564 1596.62 -449.66 1607.62 -337 1667.62 -225 1683.62 -112 1569.62 0 1549.52 111 1552.62 224.83" fill="none" stroke="#3b4351" stroke-miterlimit="10"/><polygon points="1111.12 -789 1208.62 -677 1293.62 -564 1244.12 -448.44 1280.62 -337 1381.12 -225 1410.62 -112 1358.62 0 1436.62 111 1436.62 224.83 1425.29 224.83 1424.62 111 1347.62 0 1385.95 -112 1326.62 -224.16 1196.12 -337 1158.4 -449 1257.37 -564 1169.87 -677 1030.37 -789 854.62 -903 849.28 -1016 947.12 -903 1111.12 -789" fill="none" stroke="#3b4351" stroke-miterlimit="10"/><polygon id="Perisa" points="1425.29 224.83 1386.62 224.83 1384.62 111 1308.12 0 1368.87 -112 1326.62 -224.16 1385.95 -112 1347.62 0 1424.62 111 1425.29 224.83" fill="none" stroke="#3b4351" stroke-miterlimit="10"/><polygon id="Greece" points="1386.62 224.83 1373.37 224.83 1373.37 111 1300.12 0 1358.87 -112 1326.62 -224.16 1368.87 -112 1308.12 0 1384.62 111 1386.62 224.83" fill="none" stroke="#3b4351" stroke-miterlimit="10"/><polygon id="Bulgaria" points="1373.37 224.83 1361.29 224.83 1361.29 111 1294.95 0 1351.29 -112 1326.62 -224.16 1358.87 -112 1300.12 0 1373.37 111 1373.37 224.83" fill="none" stroke="#3b4351" stroke-miterlimit="10"/><polygon id="Serb-Croat" points="1301.62 224.83 1290.62 224.83 1288.12 111 1217.12 0 1301.62 -112 1249.12 -225 1144.62 -337 1109.12 -449 1153.29 -337 1262.95 -224.16 1317.95 -112 1229.95 0 1300.29 111 1301.62 224.83" fill="none" stroke="#3b4351" stroke-miterlimit="10"/></g><g id="Text"><g id="South_America-2" data-name="South America"><path d="M98.76,18.14v.44c0,2.13,1,3.21,2.87,3.21a2.5,2.5,0,0,0,2.64-2.55c0-1.83-.93-2.64-2.5-3.11l-1.91-.66c-2.55-1-3.65-2.3-3.65-4.8,0-3.19,2.18-4.95,5.44-4.95,4.49,0,4.95,2.79,4.95,4.6v.4h-2.79v-.37c0-1.59-.69-2.52-2.45-2.52A2.23,2.23,0,0,0,99,10.35c0,1.49.76,2.25,2.62,3l1.88.69c2.48.88,3.56,2.21,3.56,4.63,0,3.73-2.26,5.27-5.79,5.27C97,23.9,96,21,96,18.56v-.42Z" fill="#3b4351"/><path d="M108.9,14.81c0-6.25,1.77-9.09,5.79-9.09s5.78,2.84,5.78,9.09-1.77,9.09-5.78,9.09S108.9,21.06,108.9,14.81Zm8.78-.07c0-5.89-1.33-6.91-3-6.91s-3,1-3,6.91,1.32,7,3,7S117.68,20.74,117.68,14.74Z" fill="#3b4351"/><path d="M125.51,6.06V18.61c0,2.23.89,3.18,2.58,3.18s2.55-.95,2.55-3.18V6.06h2.79V18.39c0,4-2,5.51-5.34,5.51s-5.37-1.47-5.37-5.51V6.06Z" fill="#3b4351"/><path d="M139,8.41H134.8V6.06h11V8.41h-4.09V23.56H139Z" fill="#3b4351"/><path d="M147.44,6.06h2.79v7h5.15v-7h2.79v17.5h-2.79V15.42h-5.15v8.14h-2.79Z" fill="#3b4351"/><path d="M89,33.06h3.58l4.61,17.5H94.3l-1.07-4.29H88.1L87,50.56H84.06Zm3.73,11-2-8.63h0L88.62,44Z" fill="#3b4351"/><path d="M98.44,33.06h4.36l3.09,13h0l3-13h4.26v17.5H110.6V36h0L107,50.56h-2.35L101.14,36h0V50.56H98.44Z" fill="#3b4351"/><path d="M116.13,33.06h9.46v2.35h-6.67v4.86h6.28v2.35h-6.28v5.59h6.87v2.35h-9.66Z" fill="#3b4351"/><path d="M127.91,33.06h6.18c2.45,0,4.44,1.25,4.44,4.51,0,2.25-1,4-2.92,4.29v0c1.76.17,2.65,1.12,2.74,3.57,0,1.16,0,2.5.1,3.56a1.92,1.92,0,0,0,.84,1.52h-3.17a2.94,2.94,0,0,1-.46-1.55c0-.51-.08-1-.08-1.56s0-1.11,0-1.74c-.08-1.92-.67-2.75-2.55-2.75h-2.28v7.6h-2.8Zm5,7.79A2.57,2.57,0,0,0,135.73,38c0-1.86-.78-2.84-2.64-2.84h-2.38v5.68Z" fill="#3b4351"/><path d="M141,33.06h2.79v17.5H141Z" fill="#3b4351"/><path d="M157.27,44.28v.37c0,3.16-1.3,6.25-5.39,6.25-4.42,0-5.79-2.84-5.79-9.09s1.37-9.09,5.81-9.09c5,0,5.27,3.65,5.27,5.49v.32h-2.79v-.3c0-1.64-.49-3.48-2.5-3.4s-3,1.27-3,6.91.9,7,3,7c2.35,0,2.59-2.57,2.59-4.21v-.3Z" fill="#3b4351"/><path d="M162.53,33.06h3.58l4.61,17.5H167.8l-1.08-4.29H161.6l-1.13,4.29h-2.91Zm3.73,11-2-8.63h-.05L162.12,44Z" fill="#3b4351"/></g><g id="Japan-2" data-name="Japan"><path d="M1695.57,23.31v.85c0,1.42.3,2.65,1.87,2.65,1.86,0,1.86-1.72,1.86-3.48V11.08h2.79V23.75c0,3.87-1.91,5.17-4.7,5.17-3.61,0-4.39-2.21-4.46-4.49V23.31Z" fill="#3b4351"/><path d="M1708.17,11.08h3.57l4.61,17.49h-2.92l-1.07-4.28h-5.13l-1.12,4.28h-2.92Zm3.72,11-2-8.63h-.05l-2.08,8.63Z" fill="#3b4351"/><path d="M1717.57,11.08h5.54c3.36,0,4.83,2.11,4.83,5.09,0,3.14-1.86,5.18-5.12,5.18h-2.45v7.22h-2.8Zm2.8,8.16h2c1.5,0,2.79-.79,2.79-3,0-1.88-.75-3-3-3h-1.78Z" fill="#3b4351"/><path d="M1732.23,11.08h3.57l4.61,17.49h-2.92l-1.08-4.28h-5.12l-1.12,4.28h-2.92Zm3.72,11-2-8.63h0l-2.08,8.63Z" fill="#3b4351"/><path d="M1741.63,11.08H1745l5.07,13h.05v-13h2.65V28.57h-3.41l-5.07-13.38h0V28.57h-2.65Z" fill="#3b4351"/></g><g id="Germany-2" data-name="Germany"><path d="M922.45,45.08h2.82l2.3,13.6h0l2.3-13.6h2.94l2.35,13.67h0l2.28-13.67h2.77l-3.48,17.49H933.6l-2.26-13.18h-.05l-2.23,13.18h-3.23Z" fill="#3b4351"/><path d="M940.77,56c0-4.11,1.08-6.93,4.9-6.93s4.93,2.82,4.93,6.93-1.27,6.94-4.93,6.94S940.77,60.1,940.77,56Zm4.9,5c1.94,0,2.28-1.62,2.28-5,0-2.91-.34-5-2.28-5s-2.25,2.06-2.25,5C943.42,59.34,943.79,61,945.67,61Z" fill="#3b4351"/><path d="M952.63,49.39h2.65v2.06h.05a3.24,3.24,0,0,1,3.06-2.4,1.43,1.43,0,0,1,.64.1v2.69a3.87,3.87,0,0,0-1.11-.15c-1.2,0-2.64.54-2.64,3v7.89h-2.65Z" fill="#3b4351"/><path d="M960.47,45.08h2.65V62.57h-2.65Z" fill="#3b4351"/><path d="M972.53,61h0a2.83,2.83,0,0,1-2.89,2c-3.07,0-4.32-2.6-4.32-7.11,0-5.86,2.06-6.76,4.07-6.76a3,3,0,0,1,3,1.88h0V45.08H975V62.57h-2.5Zm-2.41-9.8c-1.49,0-2,1.22-2,4.77,0,3,.36,4.88,2.23,4.88s2.23-1.84,2.23-4.68C972.53,53,972.18,51.16,970.12,51.16Z" fill="#3b4351"/><path d="M981.42,45.08h2.82l2.3,13.6h.05l2.3-13.6h2.94l2.35,13.67h.05l2.28-13.67h2.77L995.8,62.57h-3.23l-2.26-13.18h0L988,62.57H984.8Z" fill="#3b4351"/><path d="M1008.91,59.83c0,.49.29.93.69.93a1,1,0,0,0,.44-.07V62.4a2.86,2.86,0,0,1-1.3.32c-1.18,0-2.16-.46-2.23-1.74h0a3.41,3.41,0,0,1-3.28,1.94c-2.14,0-3.44-1.15-3.44-3.7,0-2.94,1.3-3.56,3.07-4.14l2.06-.57c1-.27,1.54-.54,1.54-1.69s-.42-2-1.81-2c-1.77,0-2,1.25-2,2.52h-2.5c0-2.81,1.15-4.33,4.63-4.33,2.33,0,4.19.9,4.19,3.23Zm-2.5-4.21a21.66,21.66,0,0,1-2.94,1.22,2.17,2.17,0,0,0-1.08,2.13c0,1.11.54,2,1.64,2,1.6,0,2.38-1.18,2.38-3.14Z" fill="#3b4351"/><path d="M1011.6,49.39h2.65v2.06h0a3.26,3.26,0,0,1,3.06-2.4,1.43,1.43,0,0,1,.64.1v2.69a3.87,3.87,0,0,0-1.11-.15c-1.2,0-2.64.54-2.64,3v7.89h-2.65Z" fill="#3b4351"/><path d="M1024.68,56c0-4.11,1.08-6.93,4.91-6.93s4.92,2.82,4.92,6.93-1.27,6.94-4.92,6.94S1024.68,60.1,1024.68,56Zm4.91,5c1.93,0,2.27-1.62,2.27-5,0-2.91-.34-5-2.27-5s-2.26,2.06-2.26,5C1027.33,59.34,1027.7,61,1029.59,61Z" fill="#3b4351"/><path d="M1037.35,51.35h-1.84v-2h1.84V48.17c0-2.48,1.2-3.29,3.36-3.29a11.6,11.6,0,0,1,1.44.08v2h-.73c-1,0-1.42.37-1.42,1.25v1.15h2.15v2H1040V62.57h-2.65Z" fill="#3b4351"/><path d="M1053,62.57V50h-3.6V48.17h.27c1.67,0,3.58-.42,4.09-2.6v-.35h2V62.57Z" fill="#3b4351"/><path d="M1063.44,58.7c0,1,.49,2.26,1.87,2.26,2.62,0,2.77-3.43,2.77-6l-.08,0a3.55,3.55,0,0,1-3.38,1.84c-2.38,0-4.29-1.72-4.29-5.17,0-4,1.62-6.38,5.32-6.38,4.39,0,5.22,3.34,5.22,8.31,0,5.2-1,9.39-5.54,9.39-3.06,0-4.68-1.35-4.68-4.22Zm2-11.51c-1.69,0-2.3,1.69-2.3,3.72,0,2.43.71,3.75,2.3,3.75,2.06,0,2.4-1.79,2.4-3.87S1067.07,47.19,1065.43,47.19Z" fill="#3b4351"/><path d="M1076.55,62.57V50H1073V48.17h.27c1.67,0,3.58-.42,4.09-2.6v-.35h2V62.57Z" fill="#3b4351"/><path d="M1083.75,56.28l6-11.06h2.84V56.45h1.89v2.23h-1.89v3.89H1090V58.68h-6.2Zm6.2-7h0L1086,56.45H1090Z" fill="#3b4351"/><path d="M1096.1,54.24h6.42v2.5h-6.42Z" fill="#3b4351"/><path d="M1108.69,62.57V50h-3.6V48.17h.27c1.67,0,3.58-.42,4.09-2.6v-.35h2V62.57Z" fill="#3b4351"/><path d="M1116,57.72c0-2.57,1.22-4,3-4.34v0a3.53,3.53,0,0,1-2.4-3.75c0-2.72,1.77-4.37,4.68-4.37s4.68,1.65,4.68,4.37c0,2.08-.9,3.23-2.4,3.75v0c1.74.37,3,1.77,3,4.34,0,3.43-1.69,5.2-5.25,5.2S1116,61.15,1116,57.72Zm5.24,3.24c2,0,2.45-1.45,2.45-3.29s-.49-3.28-2.45-3.28-2.45,1.45-2.45,3.28S1119.3,61,1121.26,61Zm0-8.53c1.74,0,2.18-1.27,2.18-2.65s-.44-2.59-2.18-2.59-2.18,1.22-2.18,2.59S1119.52,52.43,1121.26,52.43Z" fill="#3b4351"/></g></g></svg>