<svg id="Text" xmlns="http://www.w3.org/2000/svg" viewBox="0 0 1847.91 111"><title>ce1950text</title><g id="South_America" data-name="South America"><path d="M98.76,18.14v.44c0,2.13,1,3.21,2.87,3.21a2.5,2.5,0,0,0,2.64-2.55c0-1.83-.93-2.64-2.5-3.11l-1.91-.66c-2.55-1-3.65-2.3-3.65-4.8,0-3.19,2.18-4.95,5.44-4.95,4.49,0,4.95,2.79,4.95,4.6v.4h-2.79v-.37c0-1.59-.69-2.52-2.45-2.52A2.23,2.23,0,0,0,99,10.35c0,1.49.76,2.25,2.62,3l1.88.69c2.48.88,3.56,2.21,3.56,4.63,0,3.73-2.26,5.27-5.79,5.27C97,23.9,96,21,96,18.56v-.42Z"/><path d="M108.9,14.81c0-6.25,1.77-9.09,5.79-9.09s5.78,2.84,5.78,9.09-1.77,9.09-5.78,9.09S108.9,21.06,108.9,14.81Zm8.78-.07c0-5.89-1.33-6.91-3-6.91s-3,1-3,6.91,1.32,7,3,7S117.68,20.74,117.68,14.74Z"/><path d="M125.51,6.06V18.61c0,2.23.89,3.18,2.58,3.18s2.55-.95,2.55-3.18V6.06h2.79V18.39c0,4-2,5.51-5.34,5.51s-5.37-1.47-5.37-5.51V6.06Z"/><path d="M139,8.41H134.8V6.06h11V8.41h-4.09V23.56H139Z"/><path d="M147.44,6.06h2.79v7h5.15v-7h2.79v17.5h-2.79V15.42h-5.15v8.14h-2.79Z"/><path d="M89,33.06h3.58l4.61,17.5H94.3l-1.07-4.29H88.1L87,50.56H84.06Zm3.73,11-2-8.63h0L88.62,44Z"/><path d="M98.44,33.06h4.36l3.09,13h0l3-13h4.26v17.5H110.6V36h0L107,50.56h-2.35L101.14,36h0V50.56H98.44Z"/><path d="M116.13,33.06h9.46v2.35h-6.67v4.86h6.28v2.35h-6.28v5.59h6.87v2.35h-9.66Z"/><path d="M127.91,33.06h6.18c2.45,0,4.44,1.25,4.44,4.51,0,2.25-1,4-2.92,4.29v0c1.76.17,2.65,1.12,2.74,3.57,0,1.16,0,2.5.1,3.56a1.92,1.92,0,0,0,.84,1.52h-3.17a2.94,2.94,0,0,1-.46-1.55c0-.51-.08-1-.08-1.56s0-1.11,0-1.74c-.08-1.92-.67-2.75-2.55-2.75h-2.28v7.6h-2.8Zm5,7.79A2.57,2.57,0,0,0,135.73,38c0-1.86-.78-2.84-2.64-2.84h-2.38v5.68Z"/><path d="M141,33.06h2.79v17.5H141Z"/><path d="M157.27,44.28v.37c0,3.16-1.3,6.25-5.39,6.25-4.42,0-5.79-2.84-5.79-9.09s1.37-9.09,5.81-9.09c5,0,5.27,3.65,5.27,5.49v.32h-2.79v-.3c0-1.64-.49-3.48-2.5-3.4s-3,1.27-3,6.91.9,7,3,7c2.35,0,2.59-2.57,2.59-4.21v-.3Z"/><path d="M162.53,33.06h3.58l4.61,17.5H167.8l-1.08-4.29H161.6l-1.13,4.29h-2.91Zm3.73,11-2-8.63h-.05L162.12,44Z"/></g><g id="Japan"><path d="M1695.57,23.31v.85c0,1.42.3,2.65,1.87,2.65,1.86,0,1.86-1.72,1.86-3.48V11.08h2.79V23.75c0,3.87-1.91,5.17-4.7,5.17-3.61,0-4.39-2.21-4.46-4.49V23.31Z"/><path d="M1708.17,11.08h3.57l4.61,17.49h-2.92l-1.07-4.28h-5.13l-1.12,4.28h-2.92Zm3.72,11-2-8.63h-.05l-2.08,8.63Z"/><path d="M1717.57,11.08h5.54c3.36,0,4.83,2.11,4.83,5.09,0,3.14-1.86,5.18-5.12,5.18h-2.45v7.22h-2.8Zm2.8,8.16h2c1.5,0,2.79-.79,2.79-3,0-1.88-.75-3-3-3h-1.78Z"/><path d="M1732.23,11.08h3.57l4.61,17.49h-2.92l-1.08-4.28h-5.12l-1.12,4.28h-2.92Zm3.72,11-2-8.63h0l-2.08,8.63Z"/><path d="M1741.63,11.08H1745l5.07,13h.05v-13h2.65V28.57h-3.41l-5.07-13.38h0V28.57h-2.65Z"/></g></svg>