<svg xmlns="http://www.w3.org/2000/svg" viewBox="0 0 1847.91 112"><title>ce1900text</title><g id="YEARS"><g id="Right"><path d="M1792.5,105.43V92.07h-3.82V90.14h.28c1.77,0,3.8-.44,4.35-2.75V87h2.15v18.41Z" fill="#3b4351"/><path d="M1803.55,101.32c0,1.07.52,2.39,2,2.39,2.79,0,2.94-3.64,2.94-6.34l-.08-.05a3.77,3.77,0,0,1-3.58,2c-2.53,0-4.55-1.82-4.55-5.49,0-4.24,1.71-6.76,5.64-6.76,4.65,0,5.54,3.54,5.54,8.82,0,5.51-1,10-5.88,10-3.25,0-5-1.42-5-4.47Zm2.1-12.22c-1.79,0-2.44,1.8-2.44,4,0,2.58.75,4,2.44,4,2.19,0,2.55-1.9,2.55-4.11S1807.4,89.1,1805.65,89.1Z" fill="#3b4351"/><path d="M1818.32,87c3.53,0,5.51,2.21,5.51,9.39s-2,9.38-5.51,9.38-5.52-2.21-5.52-9.38S1814.78,87,1818.32,87Zm0,16.69c2,0,2.54-2,2.54-7.3s-.54-7.31-2.54-7.31-2.55,2-2.55,7.31S1816.31,103.71,1818.32,103.71Z" fill="#3b4351"/><path d="M1830.8,87c3.53,0,5.51,2.21,5.51,9.39s-2,9.38-5.51,9.38-5.52-2.21-5.52-9.38S1827.26,87,1830.8,87Zm0,16.69c2,0,2.54-2,2.54-7.3s-.54-7.31-2.54-7.31-2.55,2-2.55,7.31S1828.79,103.71,1830.8,103.71Z" fill="#3b4351"/></g><g id="left"><path d="M17.46,107.34V94H13.64V92.05h.29c1.77,0,3.79-.44,4.34-2.76v-.36h2.16v18.41Z" fill="#3b4351"/><path d="M28.51,103.23c0,1.07.52,2.39,2,2.39,2.78,0,2.94-3.64,2.94-6.34l-.08,0a3.79,3.79,0,0,1-3.59,2c-2.52,0-4.55-1.82-4.55-5.49,0-4.24,1.72-6.76,5.64-6.76,4.66,0,5.54,3.53,5.54,8.81,0,5.52-1,10-5.87,10-3.25,0-5-1.43-5-4.47ZM30.62,91c-1.79,0-2.44,1.79-2.44,3.95,0,2.58.75,4,2.44,4,2.18,0,2.55-1.9,2.55-4.11S32.36,91,30.62,91Z" fill="#3b4351"/><path d="M43.28,88.93c3.54,0,5.51,2.21,5.51,9.39s-2,9.38-5.51,9.38-5.51-2.21-5.51-9.38S39.75,88.93,43.28,88.93Zm0,16.69c2,0,2.55-2,2.55-7.3S45.28,91,43.28,91s-2.55,2-2.55,7.31S41.28,105.62,43.28,105.62Z" fill="#3b4351"/><path d="M55.76,88.93c3.54,0,5.51,2.21,5.51,9.39s-2,9.38-5.51,9.38-5.51-2.21-5.51-9.38S52.22,88.93,55.76,88.93Zm0,16.69c2,0,2.55-2,2.55-7.3S57.76,91,55.76,91s-2.55,2-2.55,7.31S53.76,105.62,55.76,105.62Z" fill="#3b4351"/></g></g><g id="Nation_OUtlines" data-name="Nation OUtlines"><polygon id="Indians" points="1372.19 -6291.66 1294.19 -6405.83 1285.19 -6518.83 1313.69 -6629.83 1348.19 -6742.83 1310.69 -6856.83 1298.69 -6966.83 1313.69 -7078.83 1345.19 -7190.83 1325.69 -7304.83 1343.69 -7418.83 1417.19 -7529.83 1400.69 -7642.91 1429.19 -7755.83 1419.27 -7871.1 1387.19 -7982.83 1387.19 -8094.83 1438.19 -8205.33 1462.18 -8317.33 1480.18 -8430.37 1445.82 -8540.66 1411.11 -8652.66 1545.86 -8652.66 1580.1 -8540.66 1593.12 -8430.43 1552.12 -8317.33 1514.62 -8205.33 1514.12 -8095.16 1553.12 -7983.1 1548.12 -7870.83 1519.62 -7755.83 1534.12 -7642.16 1575.12 -7529.83 1559.62 -7418.83 1564.12 -7305.1 1534.62 -7190.83 1486.12 -7078.83 1465.12 -6966.83 1471.12 -6857.66 1502.12 -6743.66 1508.12 -6629.83 1534.62 -6518.83 1542.77 -6439.97 1555.62 -6291.66 1554.62 -6182.83 1567.12 -6070.83 1542.12 -5956.1 1498.12 -5845.83 1490.62 -5733.83 1513.12 -5621.83 1568.62 -5510.83 1544.12 -5397.83 1530.62 -5282.1 1523.62 -5170.1 1532.62 -5057.83 1565.12 -4947.83 1543.62 -4835.83 1514.12 -4720.83 1490.12 -4611.1 1495.62 -4496.83 1517.12 -4383.16 1528.12 -4277.83 1580.62 -4165.16 1578.12 -4049.16 1578.12 -3938.66 1560.12 -3827.1 1526.62 -3711.83 1467.62 -3597.83 1381.62 -3486.1 1270.62 -3375.83 1090.12 -3263.1 860.62 -3154.83 1302.12 -3039.83 1377.03 -2927.83 1550.62 -2814.83 1519.62 -2705 1476.12 -2592 1516.13 -2478 1534.62 -2365.66 1552.65 -2255 1585.62 -2141.1 1620.12 -2026 1650.12 -1915 1630.62 -1807.1 1622.45 -1690.1 1565.62 -1579 1402.62 -1465.66 1173.62 -1353 1148.62 -1242 1334.62 -1127 1283.62 -1013 1344.62 -904 1544.62 -791 1602.62 -676.66 1627.62 -565 1674.62 -452.1 1627.62 -337 1634.62 -225 1686.62 -113 1701.62 0 1620.12 112 1606.12 223 1606.12 336.83 1552.62 336.83 1549.52 223 1569.62 112 1683.62 0 1667.62 -113 1607.62 -225 1596.62 -337.66 1617.62 -452 1584.62 -565 1562.62 -677 1507.62 -791 1304.62 -904.1 1225.62 -1013.1 1236.97 -1050.05 1264.87 -1127 1082.62 -1242 1084.2 -1352.49 1323.62 -1465 1500.47 -1579.1 1573.62 -1690 1600.62 -1807 1604.62 -1915 1569.62 -2026 1514.62 -2141 1447.62 -2255.1 1418.62 -2367 1404.62 -2478 1367.62 -2592 1397.62 -2705 1418.62 -2815.1 1339.62 -2928.1 1246.62 -3039.83 748.62 -3154.83 753.62 -3262.83 910.76 -3375.83 1053.62 -3485.83 1195.2 -3597.83 1311.62 -3712.66 1353.62 -3826.83 1348.62 -3937.83 1364.62 -4049.66 1406.62 -4164.83 1401.62 -4277.83 1429.62 -4382.83 1394.62 -4497.1 1393.2 -4610.83 1391.82 -4721.1 1437.52 -4835.83 1513.62 -4948.1 1505.64 -5057.83 1472.62 -5169.66 1447.62 -5281.83 1440.63 -5397.83 1462.62 -5510.83 1391.1 -5621.83 1348.62 -5733.83 1332.62 -5845.83 1376.98 -5955.83 1375.34 -6071.1 1373.74 -6183.1 1372.19 -6291.66" fill="none" stroke="#3b4351" stroke-miterlimit="10"/><polygon id="Chinese" points="1610.76 -6293.1 1609.69 -6406.1 1608.62 -6519.16 1585.12 -6629.83 1551.62 -6742.83 1509.12 -6856.83 1538.12 -6967.1 1586.62 -7079.1 1616.12 -7190.83 1645.62 -7305.1 1697.12 -7419.1 1714.62 -7530.16 1689.12 -7641.83 1700.12 -7755.83 1676.62 -7870.83 1650.62 -7983.16 1630.62 -8094.83 1620.62 -8205.33 1646.62 -8317.33 1667.62 -8429.99 1651.62 -8540.66 1633.99 -8652.66 1768.79 -8652.66 1768.79 -452 1768.79 -337.1 1766.12 -225 1757.62 -113 1736.12 -0.1 1676.12 111.9 1661.12 223 1663.62 336.83 1606.12 336.83 1606.12 222.9 1620.12 112 1701.62 0 1696.12 -113.16 1654.12 -225 1681.62 -337 1739.62 -452.1 1748.62 -565.16 1744.12 -677.16 1685.62 -791 1615.12 -901.66 1636.12 -1013 1738.62 -1127 1761.12 -1242 1758.62 -1353 1732.12 -1465 1695.62 -1579 1667.62 -1690 1651.12 -1807 1650.12 -1915 1620.12 -2026 1585.62 -2141.1 1552.62 -2255.1 1535.12 -2367 1516.12 -2478.1 1476.12 -2592 1542.12 -2705 1625.62 -2815.16 1668.12 -2928.16 1666.12 -3039.83 1673.62 -3154.83 1653.62 -3262.83 1602.12 -3376.1 1534.12 -3486.1 1564.12 -3597.83 1598.12 -3712.1 1612.12 -3826.83 1611.01 -3938.1 1592.62 -4049.1 1609.25 -4164.83 1616.07 -4277.83 1553.62 -4382.83 1529.62 -4496.83 1528.62 -4611.1 1555.62 -4720.83 1612.12 -4835.83 1621.12 -4947.83 1587.12 -5057.83 1567.62 -5169.83 1576.62 -5281.83 1571.12 -5397.83 1584.62 -5511.1 1558.62 -5621.83 1545.62 -5734.1 1557.62 -5846.1 1599.62 -5955.83 1625.12 -6071.1 1613.62 -6183.1 1610.76 -6293.1" fill="none" stroke="#3b4351" stroke-miterlimit="10"/><polygon id="Denmark" points="916.62 336.83 927.62 336.83 926.37 223 701.12 112 690.87 0 683.87 -113 637.87 -225 522.37 -337 457.37 -452 426.62 -565 299.62 -677 273.62 -791 281.62 -904 289.12 -1013 302.12 -1127 296.87 -1242 275.62 -1353 253.62 -1465 226.62 -1579 210.62 -1690 199.62 -1915 199.37 -2026 291.37 -2141 277.29 -2255 235.95 -2367 188.87 -2478 180.62 -2592 142.62 -2705 139.95 -2814.83 120.62 -2927.83 99.95 -3039.83 73.12 -3154.83 90.34 -3039.83 107.12 -2927.83 118.37 -2814.83 120.37 -2705 122.62 -2592 125.87 -2478 158.37 -2367 185.87 -2255 183.62 -2141 127.62 -2026 119.62 -1915 119.12 -1807 156.87 -1690 188.62 -1579 212.62 -1465 252.37 -1353 277.87 -1242 283.37 -1127 267.12 -1013 248.87 -904 213.87 -791 234.37 -677 312.12 -565 398.12 -452 458.87 -337 593.37 -225 637.87 -113 674.12 0 691.37 112 915.37 223 916.62 336.83" fill="none" stroke="#3b4351" stroke-miterlimit="10"/><polygon id="England" points="874.62 336.83 688.95 336.83 687.95 223 439.12 112 252.12 0 159.62 -113 111.62 -225 93.62 -337 86.12 -452 84.62 -565 86.95 -677 98.28 -791 116.95 -904 114.62 -1013 122.62 -1127 120.62 -1242 108.28 -1353 100.16 -1465 107.95 -1579 107.95 -1690 77.28 -1807 73.12 -3154.83 90.34 -3039.83 93.44 -2927.83 96.58 -2814.83 99.62 -2705 91.95 -2478 94.28 -2367 98.62 -2255 120.28 -2141 89.28 -2026 84.28 -1915 96.28 -1807 133.28 -1690 160.95 -1579 172.95 -1465 208.95 -1353 223.62 -1242 228.28 -1127 211.62 -1013 201.62 -904 189.95 -791 193.28 -677 235.28 -565 248.62 -452 348.62 -337 562.62 -225 622.12 -113 602.12 0 652.12 112 872.95 223 874.62 336.83" fill="none" stroke="#3b4351" stroke-miterlimit="10"/><polygon id="United_States" data-name="United States" points="348.62 112 211.12 0 141.62 -113 111.62 -225 93.62 -337 86.12 -452 84.62 -565 79.62 -452 82.62 -337 87.62 -225 107.62 -113 145.12 0 167.12 112 198.12 223 200.12 336.83 500.37 336.83 500.37 223 348.62 112" fill="none" stroke="#3b4351" stroke-miterlimit="10"/><polygon id="United_Kingdom" data-name="United Kingdom" points="687.95 223 439.12 112 252.12 0 159.62 -113 111.62 -225 141.62 -113 211.12 0 348.62 112 500.37 223 500.37 336.83 688.95 336.83 687.95 223" fill="none" stroke="#3b4351" stroke-miterlimit="10"/><polygon id="South_America" data-name="South America" points="108.28 -1353 120.62 -1242 122.62 -1127 114.62 -1013 116.95 -904 98.28 -791 86.95 -677 84.62 -565 79.62 -452 82.62 -337 87.62 -225 107.62 -113 145.12 0 167.12 112 198.12 223 200.12 336.83 77.28 336.83 77.28 -1807 107.95 -1690 107.95 -1579 100.16 -1465 108.28 -1353" fill="none" stroke="#3b4351" stroke-miterlimit="10"/><polygon id="France" points="674.34 -565 785.95 -452.33 815.95 -337 963.28 -225 1049.29 -113 932.62 0 899.28 112 1099.75 224 1102.12 336.83 946.74 336.83 946.24 223 748.62 112 745.95 0 741.28 -113 711.95 -225 643.28 -337 613.28 -452 535.95 -565 385.29 -677 317.95 -791 311.95 -904 310.62 -1013 321.29 -1127 314.62 -1242 275.62 -1353 253.62 -1465 258.62 -1576.33 325.29 -1690 314.62 -1807 286.62 -1915 249.62 -2026 291.37 -2141 409.62 -2141 362.62 -2026 373.95 -1915 423.58 -1807 444.62 -1690 381.95 -1576.33 347.12 -1465 361.29 -1353 384.62 -1242 391.95 -1127 365.95 -1013 379.95 -904 391.29 -791 491.95 -677 674.34 -565" fill="none" stroke="#3b4351" stroke-miterlimit="10"/><polygon id="Franks_to_Holy_Roman_Empire" data-name="Franks to Holy Roman Empire" points="594.62 -1465 505.62 -1353 482.62 -1242 599.12 -1127 617.12 -1013 639.62 -904 772.62 -791 953.62 -677 1131.62 -565 1201.62 -452 1109.12 -337 1144.62 -225 1249.12 -113 1301.62 0 1217.12 112 1288.12 223 1290.62 336.83 1234.62 336.83 1232.12 223 1140.12 111.92 1137.62 0 1115.62 -113 1053.62 -225 973.12 -337 1064.12 -452 953.62 -565 741.12 -677 577.12 -791 525.62 -904 418.62 -1013 417.62 -1127 407.62 -1242 385.62 -1353 406.62 -1465 421.62 -1575.33 466.62 -1690 441.95 -1807 373.95 -1915 371.78 -1936.31 362.62 -2026 409.62 -2141 559.62 -2141 626.73 -2026 742.62 -1915 897.74 -1807 874.62 -1690 818.62 -1578.4 594.62 -1465" fill="none" stroke="#3b4351" stroke-miterlimit="10"/><polygon id="Holland" points="613.28 -452 643.28 -337 711.95 -225 741.28 -113 729.95 0 732.62 112 935.28 223 937.12 336.83 927.62 336.83 926.37 223 701.12 112 690.87 0 683.87 -113 637.87 -225 522.37 -337 457.37 -452 426.62 -565 299.62 -677 273.62 -791 281.62 -904 289.12 -1013 302.12 -1127 296.87 -1242 275.62 -1353 314.62 -1242 321.29 -1127 310.62 -1013 311.95 -904 317.95 -791 385.29 -677 535.95 -565 613.28 -452" fill="none" stroke="#3b4351" stroke-miterlimit="10"/><polygon id="Belgium_2" data-name="Belgium 2" points="748.62 112 946.24 223 946.74 336.83 937.12 336.83 935.28 223 732.62 112 729.95 0 741.28 -113 745.95 0 748.62 112" fill="none" stroke="#3b4351" stroke-miterlimit="10"/><polygon id="Sweden" points="691.37 112 673.95 112 893.62 223 895.28 336.83 874.62 336.83 872.95 223 652.12 112 602.12 0 622.12 -113 562.62 -225 348.62 -337 248.62 -452 235.28 -565 193.28 -677 189.95 -791 201.62 -904 211.62 -1013 228.28 -1127 223.62 -1242 208.95 -1353 172.95 -1465 160.95 -1579 186.86 -1465 220.95 -1353 252.95 -1242 258.95 -1127 243.95 -1013 222.62 -904 213.87 -791 234.37 -677 312.12 -565 398.12 -452 458.87 -337 593.37 -225 637.87 -113 674.12 0 691.37 112" fill="none" stroke="#3b4351" stroke-miterlimit="10"/><polygon id="Denmark_2" data-name="Denmark 2" points="916.62 336.83 895.28 336.83 893.62 223 673.95 112 691.37 112 915.37 223 916.62 336.83" fill="none" stroke="#3b4351" stroke-miterlimit="10"/><polygon id="Japan" points="1676.12 111.9 1736.12 -0.1 1757.62 -113 1766.12 -225 1768.79 -337.1 1768.79 -452 1768.79 336.83 1663.62 336.83 1661.12 223 1676.12 111.9" fill="none" stroke="#3b4351" stroke-miterlimit="10"/><polygon points="1523.12 -112.16 1446.62 -225 1405.12 -336.44 1442.62 -452 1396.62 -565 1391.62 -677 1351.62 -791 1183.62 -904 1092.62 -1013 1124.29 -1127 970.62 -1242 1005.12 -1353 1166.62 -1465 1313.55 -1576.05 1315.29 -1576 1317.44 -1579 1317.44 -1579 1317.44 -1579 1397.29 -1690 1463.95 -1807 1481.95 -1915 1488.62 -2026 1453.62 -2141 1382.62 -2026 1328.62 -1915 1225.12 -1807 1161.29 -1690 1218.62 -1579 1218.62 -1579 1218.62 -1579 1131.95 -1465 936.62 -1353 798.62 -1242 819.28 -1127 759.95 -1013 849.28 -904 947.12 -791 1111.12 -677 1208.62 -565 1293.62 -452 1244.12 -336.44 1280.62 -225 1381.12 -113 1410.62 0 1358.62 112 1436.62 223 1436.62 336.83 1467.62 336.83 1467.62 223 1423.62 112 1492.62 0 1523.12 -112.16" fill="none" stroke="#3b4351" stroke-miterlimit="10"/><polygon id="Germany" points="1234.62 336.83 1126.95 336.83 1125.62 223 969.62 112 1052.2 0 1078.95 -113 1015.62 -225 946.95 -337 1064.12 -452 973.12 -337 1053.62 -225 1115.62 -113 1137.62 0 1140.12 111.92 1232.12 223 1234.62 336.83" fill="none" stroke="#3b4351" stroke-miterlimit="10"/><polygon id="Spain" points="1117.95 224.41 1119.29 336.83 1102.12 336.83 1099.75 224 899.28 112 932.62 0 1049.29 -113 963.28 -225 815.95 -337 785.95 -452.33 674.34 -565 491.95 -677 391.29 -791 379.95 -904 365.95 -1013 391.95 -1127 384.62 -1242 361.29 -1353 347.12 -1465 383.43 -1579 444.62 -1690 423.58 -1807 373.95 -1915 441.95 -1807 466.62 -1690 423.06 -1579 406.62 -1465 385.62 -1353 407.62 -1242 417.62 -1127 401.95 -1013 463.29 -904 491.29 -791 631.28 -676.59 844.62 -565 937.12 -450.66 922.62 -337 997.95 -225 1065.62 -113 1035.29 0 959.28 112 1117.95 224.41" fill="none" stroke="#3b4351" stroke-miterlimit="10"/><polygon id="Portugal" points="946.95 -337 1015.62 -225 1078.95 -113 1052.2 0 969.62 112 1125.62 223 1126.95 336.83 1119.29 336.83 1117.95 224.41 959.28 112 1035.29 0 1065.62 -113 997.95 -225 922.62 -337 937.12 -450.66 844.62 -565 631.28 -676.59 491.29 -791 463.29 -904 401.95 -1013 417.62 -1127 418.62 -1013 525.62 -904 577.12 -791 741.12 -677 953.62 -565 1064.12 -452 946.95 -337" fill="none" stroke="#3b4351" stroke-miterlimit="10"/><polygon id="Italy" points="586.62 -1242 689.38 -1127 692.62 -1013 809.62 -904 841.12 -791 1022.62 -677 1162.87 -565 1238.87 -452 1147.62 -337 1196.12 -225 1326.62 -112.16 1351.29 0 1294.95 112 1361.29 223 1361.29 336.83 1303.29 336.83 1300.29 223 1229.95 112 1317.95 0 1262.95 -112.16 1153.29 -225 1109.12 -337 1201.62 -452 1131.62 -565 970.62 -677 797.62 -791 753.62 -904 632.89 -1013 610.34 -1127 505.62 -1242 505.62 -1353 594.62 -1465 818.62 -1578.4 874.62 -1690 851.12 -1579 663.53 -1465 584.12 -1353 586.62 -1242" fill="none" stroke="#3b4351" stroke-miterlimit="10"/><polygon id="Russia" points="1552.62 336.83 1467.62 336.83 1467.62 223 1423.62 112 1492.62 0 1523.12 -112.16 1471.87 -225 1443.87 -337 1536.12 -451.66 1518.87 -565 1513.87 -677 1454.87 -791 1270.87 -904 1200.12 -1013 1264.87 -1127 1225.62 -1013.1 1304.62 -904.1 1507.62 -791 1562.62 -677 1584.62 -565 1617.62 -452 1596.62 -337.66 1607.62 -225 1667.62 -113 1683.62 0 1569.62 112 1549.52 223 1552.62 336.83" fill="none" stroke="#3b4351" stroke-miterlimit="10"/><polygon id="Mogolians" points="1334.62 -1127 1148.62 -1242 1173.62 -1353 1402.62 -1465.66 1565.62 -1579 1622.45 -1690.1 1630.62 -1807.1 1650.12 -1915 1651.12 -1807 1667.62 -1690 1695.62 -1579 1732.12 -1465 1758.62 -1353 1761.12 -1242 1738.62 -1127 1636.12 -1013 1615.56 -904 1685.62 -791 1744.12 -677.16 1748.42 -562.72 1739.62 -452.1 1681.62 -337 1654.12 -225 1696.12 -113.16 1701.62 0 1686.62 -113 1634.62 -225 1627.62 -337 1674.62 -452.1 1627.62 -565 1602.62 -676.66 1544.62 -791 1344.62 -904 1283.62 -1013 1334.62 -1127" fill="none" stroke="#3b4351" stroke-miterlimit="10"/><polygon points="1111.12 -677 1208.62 -565 1293.62 -452 1244.12 -336.44 1280.62 -225 1381.12 -113 1410.62 0 1358.62 112 1436.62 223 1436.62 336.83 1425.29 336.83 1424.62 223 1347.62 112 1385.95 0 1326.62 -112.16 1196.12 -225 1158.4 -337 1257.37 -452 1169.87 -565 1030.37 -677 854.62 -791 849.28 -904 947.12 -791 1111.12 -677" fill="none" stroke="#3b4351" stroke-miterlimit="10"/><polygon id="Perisa" points="1425.29 336.83 1386.62 336.83 1384.62 223 1308.12 112 1368.87 0 1326.62 -112.16 1385.95 0 1347.62 112 1424.62 223 1425.29 336.83" fill="none" stroke="#3b4351" stroke-miterlimit="10"/><polygon id="Greece" points="1386.62 336.83 1373.37 336.83 1373.37 223 1300.12 112 1358.87 0 1326.62 -112.16 1368.87 0 1308.12 112 1384.62 223 1386.62 336.83" fill="none" stroke="#3b4351" stroke-miterlimit="10"/><polygon id="Bulgaria" points="1373.37 336.83 1361.29 336.83 1361.29 223 1294.95 112 1351.29 0 1326.62 -112.16 1358.87 0 1300.12 112 1373.37 223 1373.37 336.83" fill="none" stroke="#3b4351" stroke-miterlimit="10"/><polygon id="Serb-Croat" points="1301.62 336.83 1290.62 336.83 1288.12 223 1217.12 112 1301.62 0 1249.12 -113 1144.62 -225 1109.12 -337 1153.29 -225 1262.95 -112.16 1317.95 0 1229.95 112 1300.29 223 1301.62 336.83" fill="none" stroke="#3b4351" stroke-miterlimit="10"/></g><g id="Text"><g id="United_States-2" data-name="United States"><path d="M173.37,45.83V58.38c0,2.23.88,3.18,2.57,3.18s2.55-1,2.55-3.18V45.83h2.8V58.16c0,4-2,5.51-5.35,5.51s-5.36-1.47-5.36-5.51V45.83Z" fill="#3b4351"/><path d="M184,45.83h3.41l5.07,13h0v-13h2.65v17.5h-3.41L186.65,50h-.05V63.33H184Z" fill="#3b4351"/><path d="M197.89,45.83h2.8v17.5h-2.8Z" fill="#3b4351"/><path d="M206.32,48.18h-4.16V45.83h11.05v2.35h-4.09V63.33h-2.8Z" fill="#3b4351"/><path d="M214.8,45.83h9.46v2.35h-6.67V53h6.27v2.35h-6.27V61h6.86v2.35H214.8Z" fill="#3b4351"/><path d="M226.58,45.83h5c5.49,0,6.17,3.58,6.17,8.75s-.68,8.75-6.17,8.75h-5Zm2.8,15.39h2.3c2.3,0,3.26-1.52,3.26-6.64,0-4.92-.83-6.64-3.26-6.64h-2.3Z" fill="#3b4351"/><path d="M208.7,84.91v.44q0,3.21,2.86,3.21A2.51,2.51,0,0,0,214.21,86c0-1.84-.93-2.65-2.5-3.12l-1.91-.66c-2.55-1-3.65-2.3-3.65-4.8,0-3.19,2.18-5,5.44-5,4.48,0,4.95,2.79,4.95,4.61v.39h-2.8v-.37c0-1.59-.68-2.52-2.45-2.52a2.23,2.23,0,0,0-2.35,2.52c0,1.5.76,2.25,2.62,3l1.89.68c2.47.88,3.55,2.21,3.55,4.63,0,3.73-2.25,5.27-5.78,5.27-4.34,0-5.32-2.89-5.32-5.34v-.42Z" fill="#3b4351"/><path d="M222.12,75.18H218V72.83h11v2.35h-4.1V90.33h-2.79Z" fill="#3b4351"/><path d="M232.56,72.83h3.58l4.6,17.5h-2.91L236.75,86h-5.12l-1.13,4.29h-2.92Zm3.72,11-2-8.63h0l-2.09,8.63Z" fill="#3b4351"/><path d="M243.49,75.18h-4.17V72.83h11.05v2.35h-4.09V90.33h-2.79Z" fill="#3b4351"/><path d="M252,72.83h9.46v2.35h-6.67V80H261v2.35h-6.28V88h6.87v2.35H252Z" fill="#3b4351"/><path d="M265.9,84.91v.44q0,3.21,2.87,3.21A2.51,2.51,0,0,0,271.42,86c0-1.84-.94-2.65-2.5-3.12L267,82.24c-2.54-1-3.65-2.3-3.65-4.8,0-3.19,2.18-5,5.44-5,4.49,0,4.95,2.79,4.95,4.61v.39H271v-.37c0-1.59-.69-2.52-2.45-2.52a2.23,2.23,0,0,0-2.35,2.52c0,1.5.76,2.25,2.62,3l1.89.68c2.47.88,3.55,2.21,3.55,4.63,0,3.73-2.26,5.27-5.78,5.27-4.34,0-5.32-2.89-5.32-5.34v-.42Z" fill="#3b4351"/></g><g id="British_Emprie" data-name="British Emprie"><path d="M305.23,62.48h5.66c2.62,0,4.71,1.18,4.71,4.24q0,3.16-2.58,4v0c1.92.34,3.14,1.49,3.14,4.46S314.05,80,310.77,80h-5.54Zm5,7.38a2.45,2.45,0,0,0,2.57-2.77c0-2.08-1.25-2.5-2.81-2.5h-2v5.27Zm.56,8c1.67,0,2.58-1.05,2.58-3.09a2.65,2.65,0,0,0-2.75-3H308v6.05Z" fill="#3b4351"/><path d="M318.39,62.48h6.17C327,62.48,329,63.73,329,67c0,2.26-1,4-2.92,4.29v0c1.77.17,2.65,1.13,2.75,3.58,0,1.15,0,2.5.1,3.55a1.89,1.89,0,0,0,.83,1.52H326.6a3,3,0,0,1-.47-1.55c-.05-.51-.07-1.05-.07-1.56s0-1.11-.05-1.74c-.07-1.92-.66-2.75-2.55-2.75h-2.28V80h-2.79Zm5,7.79a2.58,2.58,0,0,0,2.8-2.84c0-1.86-.79-2.84-2.65-2.84h-2.38v5.68Z" fill="#3b4351"/><path d="M331.42,62.48h2.8V80h-2.8Z" fill="#3b4351"/><path d="M339.85,64.83h-4.17V62.48h11.06v2.35h-4.1V80h-2.79Z" fill="#3b4351"/><path d="M348.2,62.48H351V80h-2.8Z" fill="#3b4351"/><path d="M355.92,74.56V75q0,3.21,2.87,3.21a2.5,2.5,0,0,0,2.64-2.54c0-1.84-.93-2.65-2.49-3.12L357,71.89c-2.54-1-3.65-2.3-3.65-4.8,0-3.19,2.18-5,5.44-5,4.49,0,4.95,2.79,4.95,4.61v.39H361v-.37c0-1.59-.69-2.52-2.45-2.52a2.23,2.23,0,0,0-2.35,2.52c0,1.49.76,2.25,2.62,3l1.89.68c2.47.88,3.55,2.21,3.55,4.63,0,3.73-2.26,5.27-5.78,5.27-4.34,0-5.32-2.89-5.32-5.34v-.42Z" fill="#3b4351"/><path d="M366.48,62.48h2.79v7h5.15v-7h2.79V80h-2.79V71.84h-5.15V80h-2.79Z" fill="#3b4351"/><path d="M350.72,89.48h9.46v2.35h-6.67v4.86h6.27V99h-6.27v5.59h6.86V107h-9.65Z" fill="#3b4351"/><path d="M362.5,89.48h4.36l3.09,13H370l3-13h4.26V107h-2.64V92.42h-.05L371.08,107h-2.35L365.2,92.42h-.05V107H362.5Z" fill="#3b4351"/><path d="M380.19,89.48h5.54c3.35,0,4.82,2.11,4.82,5.1s-1.86,5.17-5.12,5.17H383V107h-2.79ZM383,97.64h2c1.49,0,2.79-.78,2.79-3,0-1.89-.76-3-3-3H383Z" fill="#3b4351"/><path d="M392.32,89.48h2.79V107h-2.79Z" fill="#3b4351"/><path d="M397.88,89.48h6.17c2.45,0,4.44,1.25,4.44,4.51,0,2.26-1,4-2.92,4.29v0c1.77.17,2.65,1.13,2.75,3.58,0,1.15,0,2.5.09,3.55a1.92,1.92,0,0,0,.84,1.52h-3.16a2.93,2.93,0,0,1-.47-1.55c-.05-.51-.07-1.05-.07-1.56s0-1.11-.05-1.74c-.07-1.92-.66-2.75-2.55-2.75h-2.28V107h-2.79Zm5,7.79a2.57,2.57,0,0,0,2.79-2.84c0-1.86-.78-2.84-2.64-2.84h-2.38v5.68Z" fill="#3b4351"/><path d="M411,89.48h9.46v2.35h-6.66v4.86h6.27V99h-6.27v5.59h6.86V107H411Z" fill="#3b4351"/></g><g id="Germany-2" data-name="Germany"><path d="M1038.39,45.92h0a3.65,3.65,0,0,1-3.83,2.38c-3.82,0-5.19-2.84-5.19-9.09s1.76-9.09,5.8-9.09a4.76,4.76,0,0,1,5.13,5v.32h-2.65v-.41c0-1.3-.54-2.85-2.45-2.85s-3,1.33-3,6.91.93,7.06,2.82,7.06c2.13,0,2.91-1.52,2.91-5.34h-2.94V38.74h5.59V48h-2.11Z" fill="#3b4351"/><path d="M1042.9,30.46h9.46v2.35h-6.67v4.85H1052V40h-6.28V45.6h6.87V48h-9.66Z" fill="#3b4351"/><path d="M1054.68,30.46h6.18c2.45,0,4.43,1.25,4.43,4.51,0,2.25-1,4-2.91,4.29v0c1.76.18,2.64,1.13,2.74,3.58,0,1.16,0,2.5.1,3.56a1.93,1.93,0,0,0,.83,1.52h-3.16a2.94,2.94,0,0,1-.46-1.55c0-.51-.08-1-.08-1.57s0-1.1,0-1.74c-.08-1.91-.67-2.74-2.55-2.74h-2.28V48h-2.8Zm5,7.79a2.58,2.58,0,0,0,2.79-2.84c0-1.86-.78-2.84-2.65-2.84h-2.37v5.68Z" fill="#3b4351"/><path d="M1067.84,30.46h4.36l3.09,13h0l3-13h4.26V48H1080V33.4h0L1076.42,48h-2.36l-3.52-14.56h0V48h-2.65Z" fill="#3b4351"/><path d="M1088.84,30.46h3.57L1097,48h-2.91L1093,43.67h-5.12L1086.78,48h-2.92Zm3.72,11-2-8.63h0l-2.08,8.63Z" fill="#3b4351"/><path d="M1098.24,30.46h3.41l5.07,13h0v-13h2.65V48H1106l-5.07-13.38h0V48h-2.65Z" fill="#3b4351"/><path d="M1115.27,41.12l-4.51-10.66h3.12l2.94,7.55,3-7.55h2.92l-4.68,10.66V48h-2.8Z" fill="#3b4351"/></g></g></svg>