<svg xmlns="http://www.w3.org/2000/svg" viewBox="0 0 1847.91 111"><title>ce1950text</title><g id="YEARS"><g id="Right"><path d="M1787.21,105.23V91.87h-3.82V89.94h.29c1.77,0,3.79-.44,4.34-2.76v-.36h2.16v18.41Z"/><path d="M1798.26,101.12c0,1.07.52,2.39,2,2.39,2.78,0,2.94-3.64,2.94-6.34l-.08,0a3.79,3.79,0,0,1-3.59,1.95c-2.52,0-4.55-1.82-4.55-5.49,0-4.24,1.72-6.76,5.64-6.76,4.66,0,5.54,3.54,5.54,8.81,0,5.52-1,10-5.87,10-3.25,0-5-1.43-5-4.47Zm2.11-12.22c-1.8,0-2.44,1.8-2.44,3.95,0,2.58.75,4,2.44,4,2.18,0,2.55-1.9,2.55-4.11S1802.11,88.9,1800.37,88.9Z"/><path d="M1807.62,100.26h2.81v.5a2.35,2.35,0,0,0,2.42,2.6c2.08,0,2.63-2,2.63-4.19s-.58-3.92-2.48-3.92a2.34,2.34,0,0,0-2.41,1.69l-2.63-.11.91-9.65h8.87v2.37h-6.66l-.6,4.84,0,0a4.08,4.08,0,0,1,3.1-1.43c3.85,0,4.81,3.25,4.81,6.08,0,3.7-1.69,6.5-5.67,6.5-3.3,0-5.15-1.69-5.15-4.94Z"/><path d="M1825.51,86.82c3.54,0,5.51,2.21,5.51,9.39s-2,9.38-5.51,9.38-5.51-2.21-5.51-9.38S1822,86.82,1825.51,86.82Zm0,16.69c2,0,2.55-2,2.55-7.3s-.55-7.31-2.55-7.31-2.55,2-2.55,7.31S1823.51,103.51,1825.51,103.51Z"/></g><g id="left"><path d="M28.51-4.28c0,1.07.52,2.39,2,2.39,2.78,0,2.94-3.64,2.94-6.34l-.08,0a3.79,3.79,0,0,1-3.59,1.95c-2.52,0-4.55-1.82-4.55-5.49,0-4.24,1.72-6.76,5.64-6.76,4.66,0,5.54,3.54,5.54,8.81,0,5.52-1,10-5.87,10-3.25,0-5-1.43-5-4.47ZM30.62-16.5c-1.79,0-2.44,1.79-2.44,3.95,0,2.58.75,4,2.44,4,2.18,0,2.55-1.9,2.55-4.11S32.36-16.5,30.62-16.5Z"/><path d="M43.28-18.58c3.54,0,5.51,2.21,5.51,9.39S46.82.19,43.28.19,37.77-2,37.77-9.19,39.75-18.58,43.28-18.58Zm0,16.69c2,0,2.55-2,2.55-7.3s-.55-7.31-2.55-7.31-2.55,2-2.55,7.31S41.28-1.89,43.28-1.89Z"/><path d="M55.76-18.58c3.54,0,5.51,2.21,5.51,9.39S59.3.19,55.76.19,50.25-2,50.25-9.19,52.22-18.58,55.76-18.58Zm0,16.69c2,0,2.55-2,2.55-7.3s-.55-7.31-2.55-7.31-2.55,2-2.55,7.31S53.76-1.89,55.76-1.89Z"/><path d="M17.46,108.83V95.46H13.64V93.54h.29c1.77,0,3.79-.44,4.34-2.76v-.36h2.16v18.41Z"/><path d="M28.51,104.72c0,1.07.52,2.39,2,2.39,2.78,0,2.94-3.64,2.94-6.34l-.08-.06a3.77,3.77,0,0,1-3.59,2c-2.52,0-4.55-1.82-4.55-5.48,0-4.24,1.72-6.76,5.64-6.76,4.66,0,5.54,3.54,5.54,8.81,0,5.52-1,10-5.87,10-3.25,0-5-1.43-5-4.47ZM30.62,92.5c-1.79,0-2.44,1.79-2.44,4,0,2.58.75,4,2.44,4,2.18,0,2.55-1.9,2.55-4.11S32.36,92.5,30.62,92.5Z"/><path d="M37.87,103.86h2.81v.5A2.36,2.36,0,0,0,43.1,107c2.08,0,2.63-2,2.63-4.19s-.58-3.93-2.48-3.93a2.35,2.35,0,0,0-2.41,1.69l-2.63-.1.91-9.65H48v2.37H41.33L40.73,98l.06.06a4,4,0,0,1,3.09-1.43c3.85,0,4.81,3.25,4.81,6.08,0,3.69-1.69,6.5-5.67,6.5-3.3,0-5.15-1.69-5.15-4.94Z"/><path d="M55.76,90.42c3.54,0,5.51,2.21,5.51,9.38s-2,9.39-5.51,9.39S50.25,107,50.25,99.8,52.22,90.42,55.76,90.42Zm0,16.69c2,0,2.55-2,2.55-7.31s-.55-7.3-2.55-7.3-2.55,2-2.55,7.3S53.76,107.11,55.76,107.11Z"/></g></g><g id="Text"><g id="South_America" data-name="South America"><path d="M98.76,18.14v.44c0,2.13,1,3.21,2.87,3.21a2.5,2.5,0,0,0,2.64-2.55c0-1.83-.93-2.64-2.5-3.11l-1.91-.66c-2.55-1-3.65-2.3-3.65-4.8,0-3.19,2.18-4.95,5.44-4.95,4.49,0,4.95,2.79,4.95,4.6v.4h-2.79v-.37c0-1.59-.69-2.52-2.45-2.52A2.23,2.23,0,0,0,99,10.35c0,1.49.76,2.25,2.62,3l1.88.69c2.48.88,3.56,2.21,3.56,4.63,0,3.73-2.26,5.27-5.79,5.27C97,23.9,96,21,96,18.56v-.42Z"/><path d="M108.9,14.81c0-6.25,1.77-9.09,5.79-9.09s5.78,2.84,5.78,9.09-1.77,9.09-5.78,9.09S108.9,21.06,108.9,14.81Zm8.78-.07c0-5.89-1.33-6.91-3-6.91s-3,1-3,6.91,1.32,7,3,7S117.68,20.74,117.68,14.74Z"/><path d="M125.51,6.06V18.61c0,2.23.89,3.18,2.58,3.18s2.55-.95,2.55-3.18V6.06h2.79V18.39c0,4-2,5.51-5.34,5.51s-5.37-1.47-5.37-5.51V6.06Z"/><path d="M139,8.41H134.8V6.06h11V8.41h-4.09V23.56H139Z"/><path d="M147.44,6.06h2.79v7h5.15v-7h2.79v17.5h-2.79V15.42h-5.15v8.14h-2.79Z"/><path d="M89,33.06h3.58l4.61,17.5H94.3l-1.07-4.29H88.1L87,50.56H84.06Zm3.73,11-2-8.63h0L88.62,44Z"/><path d="M98.44,33.06h4.36l3.09,13h0l3-13h4.26v17.5H110.6V36h0L107,50.56h-2.35L101.14,36h0V50.56H98.44Z"/><path d="M116.13,33.06h9.46v2.35h-6.67v4.86h6.28v2.35h-6.28v5.59h6.87v2.35h-9.66Z"/><path d="M127.91,33.06h6.18c2.45,0,4.44,1.25,4.44,4.51,0,2.25-1,4-2.92,4.29v0c1.76.17,2.65,1.12,2.74,3.57,0,1.16,0,2.5.1,3.56a1.92,1.92,0,0,0,.84,1.52h-3.17a2.94,2.94,0,0,1-.46-1.55c0-.51-.08-1-.08-1.56s0-1.11,0-1.74c-.08-1.92-.67-2.75-2.55-2.75h-2.28v7.6h-2.8Zm5,7.79A2.57,2.57,0,0,0,135.73,38c0-1.86-.78-2.84-2.64-2.84h-2.38v5.68Z"/><path d="M141,33.06h2.79v17.5H141Z"/><path d="M157.27,44.28v.37c0,3.16-1.3,6.25-5.39,6.25-4.42,0-5.79-2.84-5.79-9.09s1.37-9.09,5.81-9.09c5,0,5.27,3.65,5.27,5.49v.32h-2.79v-.3c0-1.64-.49-3.48-2.5-3.4s-3,1.27-3,6.91.9,7,3,7c2.35,0,2.59-2.57,2.59-4.21v-.3Z"/><path d="M162.53,33.06h3.58l4.61,17.5H167.8l-1.08-4.29H161.6l-1.13,4.29h-2.91Zm3.73,11-2-8.63h-.05L162.12,44Z"/></g><g id="Japan"><path d="M1695.57,23.31v.85c0,1.42.3,2.65,1.87,2.65,1.86,0,1.86-1.72,1.86-3.48V11.08h2.79V23.75c0,3.87-1.91,5.17-4.7,5.17-3.61,0-4.39-2.21-4.46-4.49V23.31Z"/><path d="M1708.17,11.08h3.57l4.61,17.49h-2.92l-1.07-4.28h-5.13l-1.12,4.28h-2.92Zm3.72,11-2-8.63h-.05l-2.08,8.63Z"/><path d="M1717.57,11.08h5.54c3.36,0,4.83,2.11,4.83,5.09,0,3.14-1.86,5.18-5.12,5.18h-2.45v7.22h-2.8Zm2.8,8.16h2c1.5,0,2.79-.79,2.79-3,0-1.88-.75-3-3-3h-1.78Z"/><path d="M1732.23,11.08h3.57l4.61,17.49h-2.92l-1.08-4.28h-5.12l-1.12,4.28h-2.92Zm3.72,11-2-8.63h0l-2.08,8.63Z"/><path d="M1741.63,11.08H1745l5.07,13h.05v-13h2.65V28.57h-3.41l-5.07-13.38h0V28.57h-2.65Z"/></g><g id="Germany"><path d="M923.12,45.08h2.82l2.3,13.6h0l2.3-13.6h2.95l2.35,13.67h.05l2.28-13.67H941l-3.48,17.49h-3.24L932,49.39h0l-2.23,13.18H926.5Z"/><path d="M941.45,56c0-4.11,1.07-6.93,4.9-6.93s4.92,2.82,4.92,6.93-1.27,6.94-4.92,6.94S941.45,60.1,941.45,56Zm4.9,5c1.93,0,2.28-1.62,2.28-5,0-2.91-.35-5-2.28-5s-2.26,2.06-2.26,5C944.09,59.34,944.46,61,946.35,61Z"/><path d="M953.3,49.39H956v2.06h0a3.26,3.26,0,0,1,3.06-2.4,1.43,1.43,0,0,1,.64.1v2.69a3.84,3.84,0,0,0-1.1-.15c-1.2,0-2.65.54-2.65,3v7.89H953.3Z"/><path d="M961.14,45.08h2.65V62.57h-2.65Z"/><path d="M972.15,53.24v-.35c0-1-.37-2-1.74-2-1.06,0-1.89.47-1.89,1.72,0,1.05.46,1.44,1.86,1.93l1.69.59c2,.66,2.87,1.72,2.87,3.8,0,2.82-2.08,4-4.73,4-3.33,0-4.34-1.55-4.34-4.09v-.5h2.35v.42c0,1.55.52,2.35,2.06,2.35s2.16-.73,2.16-1.93A1.91,1.91,0,0,0,971,57.23l-2.15-.76c-2-.66-2.82-1.69-2.82-3.8,0-2.47,1.76-3.62,4.51-3.62,3.36,0,4.11,2,4.11,3.6v.59Z"/><path d="M980.74,45.08h2.82l2.31,13.6h0l2.31-13.6h2.94l2.35,13.67h0l2.28-13.67h2.77l-3.48,17.49h-3.24l-2.25-13.18h0l-2.23,13.18h-3.23Z"/><path d="M1008.24,59.83c0,.49.29.93.68.93a1,1,0,0,0,.44-.07V62.4a2.83,2.83,0,0,1-1.3.32c-1.17,0-2.15-.46-2.23-1.74h-.05a3.4,3.4,0,0,1-3.28,1.94c-2.13,0-3.43-1.15-3.43-3.7,0-2.94,1.3-3.56,3.06-4.14l2.06-.57c1-.27,1.55-.54,1.55-1.69s-.42-2-1.82-2c-1.76,0-2,1.25-2,2.52h-2.5c0-2.81,1.15-4.33,4.64-4.33,2.32,0,4.19.9,4.19,3.23Zm-2.5-4.21a22.2,22.2,0,0,1-2.94,1.22,2.17,2.17,0,0,0-1.08,2.13c0,1.11.54,2,1.64,2,1.59,0,2.38-1.18,2.38-3.14Z"/><path d="M1010.93,49.39h2.64v2.06h0a3.26,3.26,0,0,1,3.07-2.4,1.36,1.36,0,0,1,.63.1v2.69a3.73,3.73,0,0,0-1.1-.15c-1.2,0-2.65.54-2.65,3v7.89h-2.64Z"/><path d="M1024,56c0-4.11,1.08-6.93,4.9-6.93s4.93,2.82,4.93,6.93-1.28,6.94-4.93,6.94S1024,60.1,1024,56Zm4.9,5c1.94,0,2.28-1.62,2.28-5,0-2.91-.34-5-2.28-5s-2.25,2.06-2.25,5C1026.66,59.34,1027,61,1028.91,61Z"/><path d="M1036.68,51.35h-1.84v-2h1.84V48.17c0-2.48,1.2-3.29,3.35-3.29a11.66,11.66,0,0,1,1.45.08v2h-.73c-1,0-1.43.37-1.43,1.25v1.15h2.16v2h-2.16V62.57h-2.64Z"/><path d="M1052.36,62.57V50h-3.6V48.17h.26c1.67,0,3.58-.42,4.1-2.6v-.35h2V62.57Z"/><path d="M1062.77,58.7c0,1,.49,2.26,1.86,2.26,2.62,0,2.77-3.43,2.77-6l-.07,0a3.56,3.56,0,0,1-3.38,1.84c-2.38,0-4.29-1.72-4.29-5.17,0-4,1.61-6.38,5.32-6.38,4.38,0,5.21,3.34,5.21,8.31,0,5.2-1,9.39-5.53,9.39-3.07,0-4.68-1.35-4.68-4.22Zm2-11.51c-1.7,0-2.31,1.69-2.31,3.72,0,2.43.71,3.75,2.31,3.75,2,0,2.4-1.79,2.4-3.87S1066.4,47.19,1064.76,47.19Z"/><path d="M1075.88,62.57V50h-3.61V48.17h.27c1.67,0,3.58-.42,4.1-2.6v-.35h2V62.57Z"/><path d="M1083.08,56.28l6-11.06h2.85V56.45h1.88v2.23h-1.88v3.89h-2.65V58.68h-6.2Zm6.2-7h0l-3.9,7.16h4Z"/><path d="M1095.43,54.24h6.42v2.5h-6.42Z"/><path d="M1108,62.57V50h-3.6V48.17h.27c1.66,0,3.58-.42,4.09-2.6v-.35h2V62.57Z"/><path d="M1115.35,57.72c0-2.57,1.22-4,3-4.34v0c-1.5-.52-2.4-1.67-2.4-3.75,0-2.72,1.76-4.37,4.68-4.37s4.68,1.65,4.68,4.37a3.53,3.53,0,0,1-2.4,3.75v0c1.74.37,3,1.77,3,4.34,0,3.43-1.69,5.2-5.24,5.2S1115.35,61.15,1115.35,57.72Zm5.24,3.24c2,0,2.45-1.45,2.45-3.29s-.49-3.28-2.45-3.28-2.45,1.45-2.45,3.28S1118.63,61,1120.59,61Zm0-8.53c1.74,0,2.18-1.27,2.18-2.65s-.44-2.59-2.18-2.59-2.18,1.22-2.18,2.59S1118.85,52.43,1120.59,52.43Z"/></g></g></svg>