<svg xmlns="http://www.w3.org/2000/svg" viewBox="0 0 1847.91 112"><title>ce1900text</title><g id="YEARS"><g id="Right"><path d="M1787.21,108.23V94.87h-3.82V92.94h.29c1.77,0,3.79-.44,4.34-2.76v-.36h2.16v18.41Z" fill="#3b4351"/><path d="M1798.26,104.12c0,1.07.52,2.39,2,2.39,2.78,0,2.94-3.64,2.94-6.34l-.08,0a3.79,3.79,0,0,1-3.59,1.95c-2.52,0-4.55-1.82-4.55-5.49,0-4.24,1.72-6.76,5.64-6.76,4.66,0,5.54,3.54,5.54,8.81,0,5.52-1,10-5.87,10-3.25,0-5-1.43-5-4.47Zm2.11-12.22c-1.8,0-2.44,1.8-2.44,3.95,0,2.58.75,4,2.44,4,2.18,0,2.55-1.9,2.55-4.11S1802.11,91.9,1800.37,91.9Z" fill="#3b4351"/><path d="M1813,89.82c3.54,0,5.51,2.21,5.51,9.39s-2,9.38-5.51,9.38-5.51-2.21-5.51-9.38S1809.49,89.82,1813,89.82Zm0,16.69c2,0,2.55-2,2.55-7.3S1815,91.9,1813,91.9s-2.55,2-2.55,7.31S1811,106.51,1813,106.51Z" fill="#3b4351"/><path d="M1825.51,89.82c3.54,0,5.51,2.21,5.51,9.39s-2,9.38-5.51,9.38-5.51-2.21-5.51-9.38S1822,89.82,1825.51,89.82Zm0,16.69c2,0,2.55-2,2.55-7.3s-.55-7.31-2.55-7.31-2.55,2-2.55,7.31S1823.51,106.51,1825.51,106.51Z" fill="#3b4351"/></g><g id="left"><path d="M17.46,111.83V98.46H13.64V96.54h.29c1.77,0,3.79-.44,4.34-2.76v-.36h2.16v18.41Z" fill="#3b4351"/><path d="M28.51,107.72c0,1.07.52,2.39,2,2.39,2.78,0,2.94-3.64,2.94-6.34l-.08,0a3.79,3.79,0,0,1-3.59,2c-2.52,0-4.55-1.82-4.55-5.49,0-4.24,1.72-6.76,5.64-6.76,4.66,0,5.54,3.54,5.54,8.81,0,5.52-1,10-5.87,10-3.25,0-5-1.43-5-4.47ZM30.62,95.5c-1.79,0-2.44,1.79-2.44,4,0,2.58.75,4,2.44,4,2.18,0,2.55-1.9,2.55-4.11S32.36,95.5,30.62,95.5Z" fill="#3b4351"/><path d="M43.28,93.42c3.54,0,5.51,2.21,5.51,9.39s-2,9.38-5.51,9.38-5.51-2.21-5.51-9.38S39.75,93.42,43.28,93.42Zm0,16.69c2,0,2.55-2,2.55-7.3s-.55-7.31-2.55-7.31-2.55,2-2.55,7.31S41.28,110.11,43.28,110.11Z" fill="#3b4351"/><path d="M55.76,93.42c3.54,0,5.51,2.21,5.51,9.39s-2,9.38-5.51,9.38-5.51-2.21-5.51-9.38S52.22,93.42,55.76,93.42Zm0,16.69c2,0,2.55-2,2.55-7.3s-.55-7.31-2.55-7.31-2.55,2-2.55,7.31S53.76,110.11,55.76,110.11Z" fill="#3b4351"/><path d="M25.24-5.32c0-2.73,1.3-4.21,3.14-4.6V-10c-1.58-.55-2.54-1.77-2.54-4,0-2.89,1.87-4.63,5-4.63s5,1.74,5,4.63c0,2.21-1,3.43-2.55,4v.05c1.85.39,3.15,1.87,3.15,4.6,0,3.64-1.8,5.51-5.57,5.51S25.24-1.68,25.24-5.32ZM30.8-1.89c2.08,0,2.6-1.53,2.6-3.48s-.52-3.49-2.6-3.49-2.6,1.54-2.6,3.49S28.72-1.89,30.8-1.89Zm0-9c1.85,0,2.32-1.35,2.32-2.8s-.47-2.76-2.32-2.76-2.31,1.3-2.31,2.76S29-10.94,30.8-10.94Z" fill="#3b4351"/><path d="M37.87-5.14h2.81v.5A2.36,2.36,0,0,0,43.1-2c2.08,0,2.63-2,2.63-4.19s-.58-3.93-2.48-3.93a2.35,2.35,0,0,0-2.41,1.69l-2.63-.1.91-9.65H48v2.37H41.33L40.73-11l.06,0a4,4,0,0,1,3.09-1.43c3.85,0,4.81,3.25,4.81,6.08C48.69-2.62,47,.19,43,.19c-3.3,0-5.15-1.69-5.15-4.94Z" fill="#3b4351"/><path d="M55.76-18.58c3.54,0,5.51,2.21,5.51,9.39S59.3.19,55.76.19,50.25-2,50.25-9.19,52.22-18.58,55.76-18.58Zm0,16.69c2,0,2.55-2,2.55-7.3s-.55-7.31-2.55-7.31-2.55,2-2.55,7.31S53.76-1.89,55.76-1.89Z" fill="#3b4351"/></g></g><g id="Text"><g id="United_States" data-name="United States"><path d="M173.37,45.83V58.38c0,2.23.88,3.18,2.57,3.18s2.55-1,2.55-3.18V45.83h2.8V58.16c0,4-2,5.51-5.35,5.51s-5.36-1.47-5.36-5.51V45.83Z" fill="#3b4351"/><path d="M184,45.83h3.41l5.07,13h0v-13h2.65v17.5h-3.41L186.65,50h-.05V63.33H184Z" fill="#3b4351"/><path d="M197.89,45.83h2.8v17.5h-2.8Z" fill="#3b4351"/><path d="M206.32,48.18h-4.16V45.83h11.05v2.35h-4.09V63.33h-2.8Z" fill="#3b4351"/><path d="M214.8,45.83h9.46v2.35h-6.67V53h6.27v2.35h-6.27V61h6.86v2.35H214.8Z" fill="#3b4351"/><path d="M226.58,45.83h5c5.49,0,6.17,3.58,6.17,8.75s-.68,8.75-6.17,8.75h-5Zm2.8,15.39h2.3c2.3,0,3.26-1.52,3.26-6.64,0-4.92-.83-6.64-3.26-6.64h-2.3Z" fill="#3b4351"/><path d="M208.7,84.91v.44q0,3.21,2.86,3.21A2.51,2.51,0,0,0,214.21,86c0-1.84-.93-2.65-2.5-3.12l-1.91-.66c-2.55-1-3.65-2.3-3.65-4.8,0-3.19,2.18-5,5.44-5,4.48,0,4.95,2.79,4.95,4.61v.39h-2.8v-.37c0-1.59-.68-2.52-2.45-2.52a2.23,2.23,0,0,0-2.35,2.52c0,1.5.76,2.25,2.62,3l1.89.68c2.47.88,3.55,2.21,3.55,4.63,0,3.73-2.25,5.27-5.78,5.27-4.34,0-5.32-2.89-5.32-5.34v-.42Z" fill="#3b4351"/><path d="M222.12,75.18H218V72.83h11v2.35h-4.1V90.33h-2.79Z" fill="#3b4351"/><path d="M232.56,72.83h3.58l4.6,17.5h-2.91L236.75,86h-5.12l-1.13,4.29h-2.92Zm3.72,11-2-8.63h0l-2.09,8.63Z" fill="#3b4351"/><path d="M243.49,75.18h-4.17V72.83h11.05v2.35h-4.09V90.33h-2.79Z" fill="#3b4351"/><path d="M252,72.83h9.46v2.35h-6.67V80H261v2.35h-6.28V88h6.87v2.35H252Z" fill="#3b4351"/><path d="M265.9,84.91v.44q0,3.21,2.87,3.21A2.51,2.51,0,0,0,271.42,86c0-1.84-.94-2.65-2.5-3.12L267,82.24c-2.54-1-3.65-2.3-3.65-4.8,0-3.19,2.18-5,5.44-5,4.49,0,4.95,2.79,4.95,4.61v.39H271v-.37c0-1.59-.69-2.52-2.45-2.52a2.23,2.23,0,0,0-2.35,2.52c0,1.5.76,2.25,2.62,3l1.89.68c2.47.88,3.55,2.21,3.55,4.63,0,3.73-2.26,5.27-5.78,5.27-4.34,0-5.32-2.89-5.32-5.34v-.42Z" fill="#3b4351"/></g><g id="British_Emprie" data-name="British Emprie"><path d="M305.23,62.48h5.66c2.62,0,4.71,1.18,4.71,4.24q0,3.16-2.58,4v0c1.92.34,3.14,1.49,3.14,4.46S314.05,80,310.77,80h-5.54Zm5,7.38a2.45,2.45,0,0,0,2.57-2.77c0-2.08-1.25-2.5-2.81-2.5h-2v5.27Zm.56,8c1.67,0,2.58-1.05,2.58-3.09a2.65,2.65,0,0,0-2.75-3H308v6.05Z" fill="#3b4351"/><path d="M318.39,62.48h6.17C327,62.48,329,63.73,329,67c0,2.26-1,4-2.92,4.29v0c1.77.17,2.65,1.13,2.75,3.58,0,1.15,0,2.5.1,3.55a1.89,1.89,0,0,0,.83,1.52H326.6a3,3,0,0,1-.47-1.55c-.05-.51-.07-1.05-.07-1.56s0-1.11-.05-1.74c-.07-1.92-.66-2.75-2.55-2.75h-2.28V80h-2.79Zm5,7.79a2.58,2.58,0,0,0,2.8-2.84c0-1.86-.79-2.84-2.65-2.84h-2.38v5.68Z" fill="#3b4351"/><path d="M331.42,62.48h2.8V80h-2.8Z" fill="#3b4351"/><path d="M339.85,64.83h-4.17V62.48h11.06v2.35h-4.1V80h-2.79Z" fill="#3b4351"/><path d="M348.2,62.48H351V80h-2.8Z" fill="#3b4351"/><path d="M355.92,74.56V75q0,3.21,2.87,3.21a2.5,2.5,0,0,0,2.64-2.54c0-1.84-.93-2.65-2.49-3.12L357,71.89c-2.54-1-3.65-2.3-3.65-4.8,0-3.19,2.18-5,5.44-5,4.49,0,4.95,2.79,4.95,4.61v.39H361v-.37c0-1.59-.69-2.52-2.45-2.52a2.23,2.23,0,0,0-2.35,2.52c0,1.49.76,2.25,2.62,3l1.89.68c2.47.88,3.55,2.21,3.55,4.63,0,3.73-2.26,5.27-5.78,5.27-4.34,0-5.32-2.89-5.32-5.34v-.42Z" fill="#3b4351"/><path d="M366.48,62.48h2.79v7h5.15v-7h2.79V80h-2.79V71.84h-5.15V80h-2.79Z" fill="#3b4351"/><path d="M350.72,89.48h9.46v2.35h-6.67v4.86h6.27V99h-6.27v5.59h6.86V107h-9.65Z" fill="#3b4351"/><path d="M362.5,89.48h4.36l3.09,13H370l3-13h4.26V107h-2.64V92.42h-.05L371.08,107h-2.35L365.2,92.42h-.05V107H362.5Z" fill="#3b4351"/><path d="M380.19,89.48h5.54c3.35,0,4.82,2.11,4.82,5.1s-1.86,5.17-5.12,5.17H383V107h-2.79ZM383,97.64h2c1.49,0,2.79-.78,2.79-3,0-1.89-.76-3-3-3H383Z" fill="#3b4351"/><path d="M392.32,89.48h2.79V107h-2.79Z" fill="#3b4351"/><path d="M397.88,89.48h6.17c2.45,0,4.44,1.25,4.44,4.51,0,2.26-1,4-2.92,4.29v0c1.77.17,2.65,1.13,2.75,3.58,0,1.15,0,2.5.09,3.55a1.92,1.92,0,0,0,.84,1.52h-3.16a2.93,2.93,0,0,1-.47-1.55c-.05-.51-.07-1.05-.07-1.56s0-1.11-.05-1.74c-.07-1.92-.66-2.75-2.55-2.75h-2.28V107h-2.79Zm5,7.79a2.57,2.57,0,0,0,2.79-2.84c0-1.86-.78-2.84-2.64-2.84h-2.38v5.68Z" fill="#3b4351"/><path d="M411,89.48h9.46v2.35h-6.66v4.86h6.27V99h-6.27v5.59h6.86V107H411Z" fill="#3b4351"/></g><g id="Germany"><path d="M1038.39,45.92h0a3.65,3.65,0,0,1-3.83,2.38c-3.82,0-5.19-2.84-5.19-9.09s1.76-9.09,5.8-9.09a4.76,4.76,0,0,1,5.13,5v.32h-2.65v-.41c0-1.3-.54-2.85-2.45-2.85s-3,1.33-3,6.91.93,7.06,2.82,7.06c2.13,0,2.91-1.52,2.91-5.34h-2.94V38.74h5.59V48h-2.11Z" fill="#3b4351"/><path d="M1042.9,30.46h9.46v2.35h-6.67v4.85H1052V40h-6.28V45.6h6.87V48h-9.66Z" fill="#3b4351"/><path d="M1054.68,30.46h6.18c2.45,0,4.43,1.25,4.43,4.51,0,2.25-1,4-2.91,4.29v0c1.76.18,2.64,1.13,2.74,3.58,0,1.16,0,2.5.1,3.56a1.93,1.93,0,0,0,.83,1.52h-3.16a2.94,2.94,0,0,1-.46-1.55c0-.51-.08-1-.08-1.57s0-1.1,0-1.74c-.08-1.91-.67-2.74-2.55-2.74h-2.28V48h-2.8Zm5,7.79a2.58,2.58,0,0,0,2.79-2.84c0-1.86-.78-2.84-2.65-2.84h-2.37v5.68Z" fill="#3b4351"/><path d="M1067.84,30.46h4.36l3.09,13h0l3-13h4.26V48H1080V33.4h0L1076.42,48h-2.36l-3.52-14.56h0V48h-2.65Z" fill="#3b4351"/><path d="M1088.84,30.46h3.57L1097,48h-2.91L1093,43.67h-5.12L1086.78,48h-2.92Zm3.72,11-2-8.63h0l-2.08,8.63Z" fill="#3b4351"/><path d="M1098.24,30.46h3.41l5.07,13h0v-13h2.65V48H1106l-5.07-13.38h0V48h-2.65Z" fill="#3b4351"/><path d="M1115.27,41.12l-4.51-10.66h3.12l2.94,7.55,3-7.55h2.92l-4.68,10.66V48h-2.8Z" fill="#3b4351"/></g></g></svg>