<svg xmlns="http://www.w3.org/2000/svg" viewBox="0 0 1847.91 113.83"><title>ce2000text</title><g id="Nation_OUtlines" data-name="Nation OUtlines"><polygon id="Indians" points="1372.19 -6514.66 1294.19 -6628.83 1285.19 -6741.83 1313.69 -6852.83 1348.19 -6965.83 1310.69 -7079.83 1298.69 -7189.83 1313.69 -7301.83 1345.19 -7413.83 1325.69 -7527.83 1343.69 -7641.83 1417.19 -7752.83 1400.69 -7865.91 1429.19 -7978.83 1419.27 -8094.1 1387.19 -8205.83 1387.19 -8317.83 1438.19 -8428.33 1462.18 -8540.33 1480.18 -8653.37 1445.82 -8763.66 1411.11 -8875.66 1545.86 -8875.66 1580.1 -8763.66 1593.12 -8653.43 1552.12 -8540.33 1514.62 -8428.33 1514.12 -8318.16 1553.12 -8206.1 1548.12 -8093.83 1519.62 -7978.83 1534.12 -7865.16 1575.12 -7752.83 1559.62 -7641.83 1564.12 -7528.1 1534.62 -7413.83 1486.12 -7301.83 1465.12 -7189.83 1471.12 -7080.66 1502.12 -6966.66 1508.12 -6852.83 1534.62 -6741.83 1542.77 -6662.97 1555.62 -6514.66 1554.62 -6405.83 1567.12 -6293.83 1542.12 -6179.1 1498.12 -6068.83 1490.62 -5956.83 1513.12 -5844.83 1568.62 -5733.83 1544.12 -5620.83 1530.62 -5505.1 1523.62 -5393.1 1532.62 -5280.83 1565.12 -5170.83 1543.62 -5058.83 1514.12 -4943.83 1490.12 -4834.1 1495.62 -4719.83 1517.12 -4606.16 1528.12 -4500.83 1580.62 -4388.16 1578.12 -4272.16 1578.12 -4161.66 1560.12 -4050.1 1526.62 -3934.83 1467.62 -3820.83 1381.62 -3709.1 1270.62 -3598.83 1090.12 -3486.1 860.62 -3377.83 1302.12 -3262.83 1377.03 -3150.83 1550.62 -3037.83 1519.62 -2928 1476.12 -2815 1516.13 -2701 1534.62 -2588.66 1552.65 -2478 1585.62 -2364.1 1620.12 -2249 1650.12 -2138 1630.62 -2030.1 1622.45 -1913.1 1565.62 -1802 1402.62 -1688.66 1173.62 -1576 1148.62 -1465 1334.62 -1350 1283.62 -1236 1344.62 -1127 1544.62 -1014 1602.62 -899.66 1627.62 -788 1674.62 -675.1 1627.62 -560 1634.62 -448 1686.62 -336 1701.62 -223 1620.12 -111 1606.12 0 1606.12 113.83 1552.62 113.83 1549.52 0 1569.62 -111 1683.62 -223 1667.62 -336 1607.62 -448 1596.62 -560.66 1617.62 -675 1584.62 -788 1562.62 -900 1507.62 -1014 1304.62 -1127.1 1225.62 -1236.1 1236.97 -1273.05 1264.87 -1350 1082.62 -1465 1084.2 -1575.49 1323.62 -1688 1500.47 -1802.1 1573.62 -1913 1600.62 -2030 1604.62 -2138 1569.62 -2249 1514.62 -2364 1447.62 -2478.1 1418.62 -2590 1404.62 -2701 1367.62 -2815 1397.62 -2928 1418.62 -3038.1 1339.62 -3151.1 1246.62 -3262.83 748.62 -3377.83 753.62 -3485.83 910.76 -3598.83 1053.62 -3708.83 1195.2 -3820.83 1311.62 -3935.66 1353.62 -4049.83 1348.62 -4160.83 1364.62 -4272.66 1406.62 -4387.83 1401.62 -4500.83 1429.62 -4605.83 1394.62 -4720.1 1393.2 -4833.83 1391.82 -4944.1 1437.52 -5058.83 1513.62 -5171.1 1505.64 -5280.83 1472.62 -5392.66 1447.62 -5504.83 1440.63 -5620.83 1462.62 -5733.83 1391.1 -5844.83 1348.62 -5956.83 1332.62 -6068.83 1376.98 -6178.83 1375.34 -6294.1 1373.74 -6406.1 1372.19 -6514.66" fill="none" stroke="#3b4351" stroke-miterlimit="10"/><polygon id="Chinese" points="1610.76 -6516.1 1609.69 -6629.1 1608.62 -6742.16 1585.12 -6852.83 1551.62 -6965.83 1509.12 -7079.83 1538.12 -7190.1 1586.62 -7302.1 1616.12 -7413.83 1645.62 -7528.1 1697.12 -7642.1 1714.62 -7753.16 1689.12 -7864.83 1700.12 -7978.83 1676.62 -8093.83 1650.62 -8206.16 1630.62 -8317.83 1620.62 -8428.33 1646.62 -8540.33 1667.62 -8652.99 1651.62 -8763.66 1633.99 -8875.66 1768.79 -8875.66 1768.79 -675 1768.79 -560.1 1766.12 -448 1757.62 -336 1736.12 -223.1 1676.12 -111.1 1661.12 0 1663.62 113.83 1606.12 113.83 1606.12 -0.1 1620.12 -111 1701.62 -223 1696.12 -336.16 1654.12 -448 1681.62 -560 1739.62 -675.1 1748.62 -788.16 1744.12 -900.16 1685.62 -1014 1615.12 -1124.66 1636.12 -1236 1738.62 -1350 1761.12 -1465 1758.62 -1576 1732.12 -1688 1695.62 -1802 1667.62 -1913 1651.12 -2030 1650.12 -2138 1620.12 -2249 1585.62 -2364.1 1552.62 -2478.1 1535.12 -2590 1516.12 -2701.1 1476.12 -2815 1542.12 -2928 1625.62 -3038.16 1668.12 -3151.16 1666.12 -3262.83 1673.62 -3377.83 1653.62 -3485.83 1602.12 -3599.1 1534.12 -3709.1 1564.12 -3820.83 1598.12 -3935.1 1612.12 -4049.83 1611.01 -4161.1 1592.62 -4272.1 1609.25 -4387.83 1616.07 -4500.83 1553.62 -4605.83 1529.62 -4719.83 1528.62 -4834.1 1555.62 -4943.83 1612.12 -5058.83 1621.12 -5170.83 1587.12 -5280.83 1567.62 -5392.83 1576.62 -5504.83 1571.12 -5620.83 1584.62 -5734.1 1558.62 -5844.83 1545.62 -5957.1 1557.62 -6069.1 1599.62 -6178.83 1625.12 -6294.1 1613.62 -6406.1 1610.76 -6516.1" fill="none" stroke="#3b4351" stroke-miterlimit="10"/><polygon id="Denmark" points="916.62 113.83 927.62 113.83 926.37 0 701.12 -111 690.87 -223 683.87 -336 637.87 -448 522.37 -560 457.37 -675 426.62 -788 299.62 -900 273.62 -1014 281.62 -1127 289.12 -1236 302.12 -1350 296.87 -1465 275.62 -1576 253.62 -1688 226.62 -1802 210.62 -1913 199.62 -2138 199.37 -2249 291.37 -2364 277.29 -2478 235.95 -2590 188.87 -2701 180.62 -2815 142.62 -2928 139.95 -3037.83 120.62 -3150.83 99.95 -3262.83 73.12 -3377.83 90.34 -3262.83 107.12 -3150.83 118.37 -3037.83 120.37 -2928 122.62 -2815 125.87 -2701 158.37 -2590 185.87 -2478 183.62 -2364 127.62 -2249 119.62 -2138 119.12 -2030 156.87 -1913 188.62 -1802 212.62 -1688 252.37 -1576 277.87 -1465 283.37 -1350 267.12 -1236 248.87 -1127 213.87 -1014 234.37 -900 312.12 -788 398.12 -675 458.87 -560 593.37 -448 637.87 -336 674.12 -223 691.37 -111 915.37 0 916.62 113.83" fill="none" stroke="#3b4351" stroke-miterlimit="10"/><polygon id="England" points="874.62 113.83 688.95 113.83 687.95 0 439.12 -111 252.12 -223 159.62 -336 111.62 -448 93.62 -560 86.12 -675 84.62 -788 86.95 -900 98.28 -1014 116.95 -1127 114.62 -1236 122.62 -1350 120.62 -1465 108.28 -1576 100.16 -1688 107.95 -1802 107.95 -1913 77.28 -2030 73.12 -3377.83 90.34 -3262.83 93.44 -3150.83 96.58 -3037.83 99.62 -2928 91.95 -2701 94.28 -2590 98.62 -2478 120.28 -2364 89.28 -2249 84.28 -2138 96.28 -2030 133.28 -1913 160.95 -1802 172.95 -1688 208.95 -1576 223.62 -1465 228.28 -1350 211.62 -1236 201.62 -1127 189.95 -1014 193.28 -900 235.28 -788 248.62 -675 348.62 -560 562.62 -448 622.12 -336 602.12 -223 652.12 -111 872.95 0 874.62 113.83" fill="none" stroke="#3b4351" stroke-miterlimit="10"/><polygon id="United_States" data-name="United States" points="348.62 -111 211.12 -223 141.62 -336 111.62 -448 93.62 -560 86.12 -675 84.62 -788 79.62 -675 82.62 -560 87.62 -448 107.62 -336 145.12 -223 167.12 -111 198.12 0 200.12 113.83 500.37 113.83 500.37 0 348.62 -111" fill="none" stroke="#3b4351" stroke-miterlimit="10"/><polygon id="United_Kingdom" data-name="United Kingdom" points="687.95 0 439.12 -111 252.12 -223 159.62 -336 111.62 -448 141.62 -336 211.12 -223 348.62 -111 500.37 0 500.37 113.83 688.95 113.83 687.95 0" fill="none" stroke="#3b4351" stroke-miterlimit="10"/><polygon id="South_America" data-name="South America" points="108.28 -1576 120.62 -1465 122.62 -1350 114.62 -1236 116.95 -1127 98.28 -1014 86.95 -900 84.62 -788 79.62 -675 82.62 -560 87.62 -448 107.62 -336 145.12 -223 167.12 -111 198.12 0 200.12 113.83 77.28 113.83 77.28 -2030 107.95 -1913 107.95 -1802 100.16 -1688 108.28 -1576" fill="none" stroke="#3b4351" stroke-miterlimit="10"/><polygon id="France" points="674.34 -788 785.95 -675.33 815.95 -560 963.28 -448 1049.29 -336 932.62 -223 899.28 -111 1099.75 1 1102.12 113.83 946.74 113.83 946.24 0 748.62 -111 745.95 -223 741.28 -336 711.95 -448 643.28 -560 613.28 -675 535.95 -788 385.29 -900 317.95 -1014 311.95 -1127 310.62 -1236 321.29 -1350 314.62 -1465 275.62 -1576 253.62 -1688 258.62 -1799.33 325.29 -1913 314.62 -2030 286.62 -2138 249.62 -2249 291.37 -2364 409.62 -2364 362.62 -2249 373.95 -2138 423.58 -2030 444.62 -1913 381.95 -1799.33 347.12 -1688 361.29 -1576 384.62 -1465 391.95 -1350 365.95 -1236 379.95 -1127 391.29 -1014 491.95 -900 674.34 -788" fill="none" stroke="#3b4351" stroke-miterlimit="10"/><polygon id="Franks_to_Holy_Roman_Empire" data-name="Franks to Holy Roman Empire" points="594.62 -1688 505.62 -1576 482.62 -1465 599.12 -1350 617.12 -1236 639.62 -1127 772.62 -1014 953.62 -900 1131.62 -788 1201.62 -675 1109.12 -560 1144.62 -448 1249.12 -336 1301.62 -223 1217.12 -111 1288.12 0 1290.62 113.83 1234.62 113.83 1232.12 0 1140.12 -111.08 1137.62 -223 1115.62 -336 1053.62 -448 973.12 -560 1064.12 -675 953.62 -788 741.12 -900 577.12 -1014 525.62 -1127 418.62 -1236 417.62 -1350 407.62 -1465 385.62 -1576 406.62 -1688 421.62 -1798.33 466.62 -1913 441.95 -2030 373.95 -2138 371.78 -2159.31 362.62 -2249 409.62 -2364 559.62 -2364 626.73 -2249 742.62 -2138 897.74 -2030 874.62 -1913 818.62 -1801.4 594.62 -1688" fill="none" stroke="#3b4351" stroke-miterlimit="10"/><polygon id="Holland" points="613.28 -675 643.28 -560 711.95 -448 741.28 -336 729.95 -223 732.62 -111 935.28 0 937.12 113.83 927.62 113.83 926.37 0 701.12 -111 690.87 -223 683.87 -336 637.87 -448 522.37 -560 457.37 -675 426.62 -788 299.62 -900 273.62 -1014 281.62 -1127 289.12 -1236 302.12 -1350 296.87 -1465 275.62 -1576 314.62 -1465 321.29 -1350 310.62 -1236 311.95 -1127 317.95 -1014 385.29 -900 535.95 -788 613.28 -675" fill="none" stroke="#3b4351" stroke-miterlimit="10"/><polygon id="Belgium_2" data-name="Belgium 2" points="748.62 -111 946.24 0 946.74 113.83 937.12 113.83 935.28 0 732.62 -111 729.95 -223 741.28 -336 745.95 -223 748.62 -111" fill="none" stroke="#3b4351" stroke-miterlimit="10"/><polygon id="Sweden" points="691.37 -111 673.95 -111 893.62 0 895.28 113.83 874.62 113.83 872.95 0 652.12 -111 602.12 -223 622.12 -336 562.62 -448 348.62 -560 248.62 -675 235.28 -788 193.28 -900 189.95 -1014 201.62 -1127 211.62 -1236 228.28 -1350 223.62 -1465 208.95 -1576 172.95 -1688 160.95 -1802 186.86 -1688 220.95 -1576 252.95 -1465 258.95 -1350 243.95 -1236 222.62 -1127 213.87 -1014 234.37 -900 312.12 -788 398.12 -675 458.87 -560 593.37 -448 637.87 -336 674.12 -223 691.37 -111" fill="none" stroke="#3b4351" stroke-miterlimit="10"/><polygon id="Denmark_2" data-name="Denmark 2" points="916.62 113.83 895.28 113.83 893.62 0 673.95 -111 691.37 -111 915.37 0 916.62 113.83" fill="none" stroke="#3b4351" stroke-miterlimit="10"/><polygon id="Japan" points="1676.12 -111.1 1736.12 -223.1 1757.62 -336 1766.12 -448 1768.79 -560.1 1768.79 -675 1768.79 113.83 1663.62 113.83 1661.12 0 1676.12 -111.1" fill="none" stroke="#3b4351" stroke-miterlimit="10"/><polygon points="1523.12 -335.16 1446.62 -448 1405.12 -559.44 1442.62 -675 1396.62 -788 1391.62 -900 1351.62 -1014 1183.62 -1127 1092.62 -1236 1124.29 -1350 970.62 -1465 1005.12 -1576 1166.62 -1688 1313.55 -1799.05 1315.29 -1799 1317.44 -1802 1317.44 -1802 1317.44 -1802 1397.29 -1913 1463.95 -2030 1481.95 -2138 1488.62 -2249 1453.62 -2364 1382.62 -2249 1328.62 -2138 1225.12 -2030 1161.29 -1913 1218.62 -1802 1218.62 -1802 1218.62 -1802 1131.95 -1688 936.62 -1576 798.62 -1465 819.28 -1350 759.95 -1236 849.28 -1127 947.12 -1014 1111.12 -900 1208.62 -788 1293.62 -675 1244.12 -559.44 1280.62 -448 1381.12 -336 1410.62 -223 1358.62 -111 1436.62 0 1436.62 113.83 1467.62 113.83 1467.62 0 1423.62 -111 1492.62 -223 1523.12 -335.16" fill="none" stroke="#3b4351" stroke-miterlimit="10"/><polygon id="Germany" points="1234.62 113.83 1126.95 113.83 1125.62 0 969.62 -111 1052.2 -223 1078.95 -336 1015.62 -448 946.95 -560 1064.12 -675 973.12 -560 1053.62 -448 1115.62 -336 1137.62 -223 1140.12 -111.08 1232.12 0 1234.62 113.83" fill="none" stroke="#3b4351" stroke-miterlimit="10"/><polygon id="Spain" points="1117.95 1.42 1119.29 113.83 1102.12 113.83 1099.75 1 899.28 -111 932.62 -223 1049.29 -336 963.28 -448 815.95 -560 785.95 -675.33 674.34 -788 491.95 -900 391.29 -1014 379.95 -1127 365.95 -1236 391.95 -1350 384.62 -1465 361.29 -1576 347.12 -1688 383.43 -1802 444.62 -1913 423.58 -2030 373.95 -2138 441.95 -2030 466.62 -1913 423.06 -1802 406.62 -1688 385.62 -1576 407.62 -1465 417.62 -1350 401.95 -1236 463.29 -1127 491.29 -1014 631.28 -899.59 844.62 -788 937.12 -673.66 922.62 -560 997.95 -448 1065.62 -336 1035.29 -223 959.28 -111 1117.95 1.42" fill="none" stroke="#3b4351" stroke-miterlimit="10"/><polygon id="Portugal" points="946.95 -560 1015.62 -448 1078.95 -336 1052.2 -223 969.62 -111 1125.62 0 1126.95 113.83 1119.29 113.83 1117.95 1.42 959.28 -111 1035.29 -223 1065.62 -336 997.95 -448 922.62 -560 937.12 -673.66 844.62 -788 631.28 -899.59 491.29 -1014 463.29 -1127 401.95 -1236 417.62 -1350 418.62 -1236 525.62 -1127 577.12 -1014 741.12 -900 953.62 -788 1064.12 -675 946.95 -560" fill="none" stroke="#3b4351" stroke-miterlimit="10"/><polygon id="Italy" points="586.62 -1465 689.38 -1350 692.62 -1236 809.62 -1127 841.12 -1014 1022.62 -900 1162.87 -788 1238.87 -675 1147.62 -560 1196.12 -448 1326.62 -335.16 1351.29 -223 1294.95 -111 1361.29 0 1361.29 113.83 1303.29 113.83 1300.29 0 1229.95 -111 1317.95 -223 1262.95 -335.16 1153.29 -448 1109.12 -560 1201.62 -675 1131.62 -788 970.62 -900 797.62 -1014 753.62 -1127 632.89 -1236 610.34 -1350 505.62 -1465 505.62 -1576 594.62 -1688 818.62 -1801.4 874.62 -1913 851.12 -1802 663.53 -1688 584.12 -1576 586.62 -1465" fill="none" stroke="#3b4351" stroke-miterlimit="10"/><polygon id="Russia" points="1552.62 113.83 1467.62 113.83 1467.62 0 1423.62 -111 1492.62 -223 1523.12 -335.16 1471.87 -448 1443.87 -560 1536.12 -674.66 1518.87 -788 1513.87 -900 1454.87 -1014 1270.87 -1127 1200.12 -1236 1264.87 -1350 1225.62 -1236.1 1304.62 -1127.1 1507.62 -1014 1562.62 -900 1584.62 -788 1617.62 -675 1596.62 -560.66 1607.62 -448 1667.62 -336 1683.62 -223 1569.62 -111 1549.52 0 1552.62 113.83" fill="none" stroke="#3b4351" stroke-miterlimit="10"/><polygon points="1111.12 -900 1208.62 -788 1293.62 -675 1244.12 -559.44 1280.62 -448 1381.12 -336 1410.62 -223 1358.62 -111 1436.62 0 1436.62 113.83 1425.29 113.83 1424.62 0 1347.62 -111 1385.95 -223 1326.62 -335.16 1196.12 -448 1158.4 -560 1257.37 -675 1169.87 -788 1030.37 -900 854.62 -1014 849.28 -1127 947.12 -1014 1111.12 -900" fill="none" stroke="#3b4351" stroke-miterlimit="10"/><polygon id="Perisa" points="1425.29 113.83 1386.62 113.83 1384.62 0 1308.12 -111 1368.87 -223 1326.62 -335.16 1385.95 -223 1347.62 -111 1424.62 0 1425.29 113.83" fill="none" stroke="#3b4351" stroke-miterlimit="10"/><polygon id="Greece" points="1386.62 113.83 1373.37 113.83 1373.37 0 1300.12 -111 1358.87 -223 1326.62 -335.16 1368.87 -223 1308.12 -111 1384.62 0 1386.62 113.83" fill="none" stroke="#3b4351" stroke-miterlimit="10"/><polygon id="Bulgaria" points="1373.37 113.83 1361.29 113.83 1361.29 0 1294.95 -111 1351.29 -223 1326.62 -335.16 1358.87 -223 1300.12 -111 1373.37 0 1373.37 113.83" fill="none" stroke="#3b4351" stroke-miterlimit="10"/><polygon id="Serb-Croat" points="1301.62 113.83 1290.62 113.83 1288.12 0 1217.12 -111 1301.62 -223 1249.12 -336 1144.62 -448 1109.12 -560 1153.29 -448 1262.95 -335.16 1317.95 -223 1229.95 -111 1300.29 0 1301.62 113.83" fill="none" stroke="#3b4351" stroke-miterlimit="10"/></g></svg>