<svg xmlns="http://www.w3.org/2000/svg" viewBox="0 0 1847.91 190.19"><defs><style>.cls-1{fill:none;stroke:#fff;}.cls-1,.cls-10,.cls-3,.cls-4,.cls-5,.cls-6,.cls-7,.cls-8,.cls-9{stroke-miterlimit:10;}.cls-2{fill:#e9ddbe;}.cls-3{fill:#e96b41;}.cls-10,.cls-3,.cls-4,.cls-5,.cls-6,.cls-7,.cls-8,.cls-9{stroke:#000;stroke-width:4px;}.cls-4{fill:#e59b96;}.cls-5{fill:#e7ce6c;}.cls-6{fill:#658f63;}.cls-7{fill:#8ea8a3;}.cls-8{fill:#e09993;}.cls-9{fill:#ecd862;}.cls-10{fill:#eb7347;}</style></defs><title>Artboard 2infographic</title><g id="Template"><rect id="Chart_border" data-name="Chart border" class="cls-1" x="76.5" y="80.69" width="1694.92" height="334.79"/><rect class="cls-2" width="1847.91" height="190.19"/></g><g id="Nations"><g id="Aegeans"><polygon class="cls-3" points="318.28 190.19 76.5 190.19 76.5 81.02 300.66 80.69 318.28 190.19"/><polygon class="cls-4" points="1043.58 190.19 318.28 190.19 300.66 80.69 1103.94 80.69 1043.58 190.19"/><polygon class="cls-5" points="1091.36 190.19 1043.58 190.19 1103.94 80.69 1152.36 80.69 1091.36 190.19"/><polygon class="cls-6" points="1271.36 190.19 1091.36 190.19 1152.36 80.69 1285.86 80.69 1271.36 190.19"/><polygon class="cls-7" points="1447.36 190.19 1271.36 190.19 1285.86 80.69 1410.86 80.69 1447.36 190.19"/><polygon class="cls-8" points="1581.86 190.19 1447.36 190.19 1410.86 80.69 1547.36 80.69 1581.86 190.19"/><polygon class="cls-9" points="1653.36 190.19 1581.86 190.19 1547.36 80.69 1634.36 80.69 1653.36 190.19"/><polygon class="cls-10" points="1771.41 190.19 1653.36 190.19 1634.36 80.69 1771.41 80.69 1771.41 190.19"/></g></g></svg>