<svg xmlns="http://www.w3.org/2000/svg" viewBox="0 0 1847.91 84.6"><title>toplegendtext</title><g id="YEARS"><g id="Right"><path d="M1785.86,31.85h6c2.78,0,5,1.25,5,4.5,0,2.23-.91,3.64-2.73,4.21v0c2,.36,3.33,1.59,3.33,4.73s-2.24,5.07-5.72,5.07h-5.88Zm5.31,7.82c1.79,0,2.73-1.17,2.73-2.94,0-2.21-1.33-2.65-3-2.65h-2.08v5.59Zm.6,8.51c1.76,0,2.72-1.12,2.72-3.28a2.82,2.82,0,0,0-2.91-3.15h-2.75v6.43Z"/><path d="M1799.15,47h3v3.43h-3Z"/><path d="M1822.94,43.76v.39c0,3.35-1.38,6.63-5.72,6.63-4.68,0-6.14-3-6.14-9.65s1.46-9.65,6.16-9.65c5.28,0,5.59,3.88,5.59,5.83v.33h-3v-.31c0-1.74-.52-3.69-2.65-3.61s-3.17,1.35-3.17,7.33,1,7.49,3.17,7.49c2.49,0,2.75-2.73,2.75-4.47v-.31Z"/><path d="M1824.65,47h3v3.43h-3Z"/><path d="M1793.45,75.41h-10.76c0-8,7.72-7.82,7.72-13.54,0-1.54-.65-2.79-2.29-2.79-2.21,0-2.57,2-2.57,3.85h-2.81c0-3.64,1.51-5.93,5.44-5.93,3.74,0,5.2,2.24,5.2,4.92,0,6.11-6,6.47-7.39,11h7.46Z"/><path d="M1800.55,57c3.54,0,5.51,2.21,5.51,9.39s-2,9.39-5.51,9.39-5.51-2.21-5.51-9.39S1797,57,1800.55,57Zm0,16.7c2,0,2.55-2,2.55-7.31s-.55-7.31-2.55-7.31-2.55,2-2.55,7.31S1798.55,73.7,1800.55,73.7Z"/><path d="M1813,57c3.54,0,5.51,2.21,5.51,9.39s-2,9.39-5.51,9.39-5.51-2.21-5.51-9.39S1809.5,57,1813,57Zm0,16.7c2,0,2.55-2,2.55-7.31s-.55-7.31-2.55-7.31-2.55,2-2.55,7.31S1811,73.7,1813,73.7Z"/><path d="M1825.51,57c3.54,0,5.51,2.21,5.51,9.39s-2,9.39-5.51,9.39-5.51-2.21-5.51-9.39S1822,57,1825.51,57Zm0,16.7c2,0,2.55-2,2.55-7.31s-.55-7.31-2.55-7.31-2.55,2-2.55,7.31S1823.51,73.7,1825.51,73.7Z"/></g><g id="left"><path d="M16.11,35.44h6c2.78,0,5,1.25,5,4.5q0,3.36-2.73,4.21v.06c2,.36,3.33,1.58,3.33,4.73S25.47,54,22,54H16.11Zm5.31,7.83c1.79,0,2.73-1.17,2.73-2.94,0-2.21-1.33-2.65-3-2.65H19.08v5.59Zm.59,8.5c1.77,0,2.73-1.11,2.73-3.27s-1.17-3.15-2.91-3.15H19.08v6.42Z"/><path d="M29.4,50.58h3V54h-3Z"/><path d="M53.19,47.35v.39c0,3.36-1.38,6.63-5.72,6.63-4.68,0-6.14-3-6.14-9.64s1.46-9.65,6.16-9.65c5.28,0,5.59,3.87,5.59,5.82v.34h-3v-.31c0-1.74-.52-3.69-2.65-3.61s-3.17,1.35-3.17,7.33,1,7.49,3.17,7.49c2.49,0,2.75-2.73,2.75-4.48v-.31Z"/><path d="M54.9,50.58h3V54h-3Z"/><path d="M23.7,79H12.94c0-8,7.72-7.83,7.72-13.55,0-1.53-.65-2.78-2.29-2.78-2.21,0-2.57,2-2.57,3.85H13c0-3.64,1.51-5.93,5.44-5.93,3.74,0,5.2,2.24,5.2,4.91,0,6.11-6,6.48-7.39,11H23.7Z"/><path d="M30.8,60.6c3.54,0,5.51,2.21,5.51,9.39s-2,9.38-5.51,9.38S25.29,77.16,25.29,70,27.27,60.6,30.8,60.6Zm0,16.69c2,0,2.55-2,2.55-7.3s-.55-7.31-2.55-7.31-2.55,2-2.55,7.31S28.8,77.29,30.8,77.29Z"/><path d="M43.28,60.6c3.54,0,5.51,2.21,5.51,9.39s-2,9.38-5.51,9.38S37.77,77.16,37.77,70,39.75,60.6,43.28,60.6Zm0,16.69c2,0,2.55-2,2.55-7.3s-.55-7.31-2.55-7.31-2.55,2-2.55,7.31S41.28,77.29,43.28,77.29Z"/><path d="M55.76,60.6c3.54,0,5.51,2.21,5.51,9.39s-2,9.38-5.51,9.38S50.25,77.16,50.25,70,52.22,60.6,55.76,60.6Zm0,16.69c2,0,2.55-2,2.55-7.3s-.55-7.31-2.55-7.31-2.55,2-2.55,7.31S53.76,77.29,55.76,77.29Z"/></g></g><g id="Text"><g id="Header"><path d="M148.11,59.22h3.58l4.6,17.5h-2.91l-1.08-4.29h-5.12l-1.13,4.29h-2.92Zm3.72,11-2-8.62h0l-2.08,8.62Z"/><path d="M157.51,59.22H167v2.36h-6.66v4.85h6.27v2.35h-6.27v5.59h6.86v2.35h-9.66Z"/><path d="M178,74.69h0a3.63,3.63,0,0,1-3.82,2.37c-3.83,0-5.2-2.84-5.2-9.09s1.77-9.09,5.81-9.09a4.76,4.76,0,0,1,5.12,5v.32h-2.65v-.42c0-1.3-.53-2.84-2.45-2.84s-3,1.32-3,6.91.93,7.06,2.81,7.06c2.14,0,2.92-1.52,2.92-5.35h-2.94v-2.1h5.59v9.21H178Z"/><path d="M182.45,59.22h9.46v2.36h-6.66v4.85h6.27v2.35h-6.27v5.59h6.86v2.35h-9.66Z"/><path d="M197.55,59.22h3.58l4.6,17.5h-2.91l-1.08-4.29h-5.12l-1.13,4.29h-2.92Zm3.72,11-2-8.62h0l-2.08,8.62Z"/><path d="M207,59.22h3.41l5.07,13h0v-13h2.65v17.5h-3.41l-5.07-13.38h-.05V76.72H207Z"/><path d="M223.17,71.31v.44c0,2.13,1,3.21,2.87,3.21a2.51,2.51,0,0,0,2.65-2.55c0-1.84-.93-2.65-2.5-3.11l-1.91-.67c-2.55-1-3.65-2.3-3.65-4.8,0-3.18,2.18-4.95,5.44-4.95,4.48,0,5,2.8,5,4.61v.39h-2.8v-.37c0-1.59-.68-2.52-2.45-2.52a2.23,2.23,0,0,0-2.35,2.52c0,1.5.76,2.26,2.62,3l1.89.68c2.47.89,3.55,2.21,3.55,4.64,0,3.72-2.25,5.26-5.78,5.26-4.34,0-5.32-2.89-5.32-5.34v-.41Z"/><path d="M614.81,59.22h9.46v2.36h-6.66v4.85h6.27v2.35h-6.27v5.59h6.86v2.35h-9.66Z"/><path d="M635.25,74.69h0a3.63,3.63,0,0,1-3.82,2.37c-3.83,0-5.2-2.84-5.2-9.09S628,58.88,632,58.88a4.76,4.76,0,0,1,5.12,5v.32h-2.65v-.42c0-1.3-.53-2.84-2.45-2.84s-3,1.32-3,6.91.93,7.06,2.81,7.06c2.14,0,2.92-1.52,2.92-5.35h-2.94v-2.1h5.59v9.21h-2.11Z"/><path d="M642.72,69.88l-4.51-10.66h3.11l2.94,7.55,3-7.55h2.91l-4.68,10.66v6.84h-2.79Z"/><path d="M651.54,59.22h5.54c3.35,0,4.82,2.11,4.82,5.1,0,3.14-1.86,5.17-5.12,5.17h-2.45v7.23h-2.79Zm2.79,8.16h2c1.49,0,2.79-.78,2.79-3,0-1.89-.76-3-3-3h-1.79Z"/><path d="M666.66,61.58h-4.17V59.22h11v2.36h-4.09V76.72h-2.79Z"/><path d="M675,59.22h2.79v17.5H675Z"/><path d="M683.88,59.22h3.58l4.6,17.5h-2.91l-1.08-4.29H683l-1.13,4.29H678.9Zm3.72,11-2-8.62h0l-2.09,8.62Z"/><path d="M693.29,59.22h3.4l5.08,13h0v-13h2.65v17.5h-3.41L696,63.34h-.05V76.72h-2.64Z"/><path d="M709.51,71.31v.44c0,2.13,1,3.21,2.86,3.21A2.51,2.51,0,0,0,715,72.41c0-1.84-.93-2.65-2.5-3.11l-1.91-.67c-2.55-1-3.65-2.3-3.65-4.8,0-3.18,2.18-4.95,5.44-4.95,4.48,0,5,2.8,5,4.61v.39h-2.8v-.37c0-1.59-.68-2.52-2.45-2.52a2.23,2.23,0,0,0-2.35,2.52c0,1.5.76,2.26,2.62,3l1.89.68c2.47.89,3.55,2.21,3.55,4.64,0,3.72-2.25,5.26-5.78,5.26-4.34,0-5.32-2.89-5.32-5.34v-.41Z"/><path d="M1063,59.22h2.79v7H1071v-7h2.79v17.5H1071V68.59h-5.15v8.13H1063Z"/><path d="M1076.54,59.22h2.79v17.5h-2.79Z"/><path d="M1085,61.58h-4.17V59.22h11v2.36h-4.09V76.72H1085Z"/><path d="M1096.31,61.58h-4.17V59.22h11v2.36h-4.09V76.72h-2.79Z"/><path d="M1104.66,59.22h2.8v17.5h-2.8Z"/><path d="M1113.09,61.58h-4.16V59.22h11v2.36h-4.1V76.72h-2.79Z"/><path d="M1121.57,59.22H1131v2.36h-6.67v4.85h6.27v2.35h-6.27v5.59h6.86v2.35h-9.65Z"/><path d="M1135.51,71.31v.44c0,2.13,1,3.21,2.86,3.21a2.51,2.51,0,0,0,2.65-2.55c0-1.84-.93-2.65-2.5-3.11l-1.91-.67c-2.55-1-3.65-2.3-3.65-4.8,0-3.18,2.18-4.95,5.44-4.95,4.48,0,4.95,2.8,4.95,4.61v.39h-2.79v-.37c0-1.59-.69-2.52-2.46-2.52a2.23,2.23,0,0,0-2.35,2.52c0,1.5.76,2.26,2.62,3l1.89.68c2.48.89,3.55,2.21,3.55,4.64,0,3.72-2.25,5.26-5.78,5.26-4.34,0-5.32-2.89-5.32-5.34v-.41Z"/><path d="M1181.61,59.22h3.58l4.6,17.5h-2.91l-1.08-4.29h-5.12l-1.13,4.29h-2.92Zm3.72,11-2-8.62h0l-2.09,8.62Z"/><path d="M1191,59.22h4.36l3.09,13h0l3-13h4.27v17.5h-2.65V62.17h-.05l-3.53,14.55h-2.35l-3.53-14.55h0V76.72H1191Z"/><path d="M1208.29,68c0-6.25,1.76-9.09,5.78-9.09s5.78,2.84,5.78,9.09-1.76,9.09-5.78,9.09S1208.29,74.22,1208.29,68Zm8.77-.07c0-5.88-1.32-6.91-3-6.91s-3,1-3,6.91,1.32,7.06,3,7.06S1217.06,73.9,1217.06,67.9Z"/><path d="M1222.33,59.22h6.17c2.45,0,4.44,1.25,4.44,4.51,0,2.26-1,4-2.92,4.29v0c1.77.17,2.65,1.13,2.75,3.58,0,1.15,0,2.5.09,3.55a1.92,1.92,0,0,0,.84,1.52h-3.16a2.92,2.92,0,0,1-.47-1.54c0-.52-.07-1.06-.07-1.57s0-1.1,0-1.74c-.08-1.91-.66-2.75-2.55-2.75h-2.28v7.6h-2.79Zm5,7.8a2.58,2.58,0,0,0,2.79-2.85c0-1.86-.78-2.84-2.64-2.84h-2.38V67Z"/><path d="M1235.36,59.22h2.79v17.5h-2.79Z"/><path d="M1243.79,61.58h-4.17V59.22h11.05v2.36h-4.09V76.72h-2.79Z"/><path d="M1252.27,59.22h9.45v2.36h-6.66v4.85h6.27v2.35h-6.27v5.59h6.86v2.35h-9.65Z"/><path d="M1266.21,71.31v.44c0,2.13,1,3.21,2.86,3.21a2.51,2.51,0,0,0,2.65-2.55c0-1.84-.93-2.65-2.5-3.11l-1.91-.67c-2.55-1-3.65-2.3-3.65-4.8,0-3.18,2.18-4.95,5.44-4.95,4.48,0,5,2.8,5,4.61v.39h-2.8v-.37c0-1.59-.68-2.52-2.45-2.52a2.23,2.23,0,0,0-2.35,2.52c0,1.5.76,2.26,2.62,3l1.89.68c2.47.89,3.55,2.21,3.55,4.64,0,3.72-2.25,5.26-5.78,5.26-4.34,0-5.32-2.89-5.32-5.34v-.41Z"/><path d="M1314.75,59.22h2.79v17.5h-2.79Z"/><path d="M1320.31,59.22h6.18c2.45,0,4.43,1.25,4.43,4.51,0,2.26-1,4-2.91,4.29v0c1.76.17,2.64,1.13,2.74,3.58,0,1.15,0,2.5.1,3.55a1.89,1.89,0,0,0,.83,1.52h-3.16a3,3,0,0,1-.47-1.54c0-.52-.07-1.06-.07-1.57s0-1.1,0-1.74c-.07-1.91-.66-2.75-2.55-2.75h-2.28v7.6h-2.79Zm5,7.8a2.59,2.59,0,0,0,2.8-2.85c0-1.86-.79-2.84-2.65-2.84h-2.38V67Z"/><path d="M1336.77,59.22h3.58l4.61,17.5H1342L1341,72.43h-5.13l-1.12,4.29h-2.92Zm3.73,11-2-8.62h0l-2.08,8.62Z"/><path d="M1346.18,59.22h3.41l5.07,13h0v-13h2.65v17.5H1354l-5.07-13.38h-.05V76.72h-2.65Z"/><path d="M1360.12,59.22h2.8v17.5h-2.8Z"/><path d="M1369,59.22h3.58l4.61,17.5h-2.92l-1.08-4.29h-5.12l-1.13,4.29H1364Zm3.73,11-2-8.62h0l-2.08,8.62Z"/><path d="M1378.4,59.22h3.41l5.07,13h0v-13h2.64v17.5h-3.4l-5.07-13.38h0V76.72h-2.65Z"/><path d="M1394.62,71.31v.44c0,2.13,1,3.21,2.87,3.21a2.51,2.51,0,0,0,2.64-2.55c0-1.84-.93-2.65-2.5-3.11l-1.91-.67c-2.55-1-3.65-2.3-3.65-4.8,0-3.18,2.18-4.95,5.44-4.95,4.48,0,5,2.8,5,4.61v.39h-2.79v-.37c0-1.59-.69-2.52-2.45-2.52a2.24,2.24,0,0,0-2.36,2.52c0,1.5.76,2.26,2.63,3l1.88.68c2.48.89,3.56,2.21,3.56,4.64,0,3.72-2.26,5.26-5.79,5.26-4.33,0-5.32-2.89-5.32-5.34v-.41Z"/><path d="M1443.16,59.22h2.8v17.5h-2.8Z"/><path d="M1448.72,59.22h3.41l5.07,13h0v-13h2.65v17.5h-3.41l-5.07-13.38h-.05V76.72h-2.65Z"/><path d="M1462.79,59.22h5c5.49,0,6.18,3.58,6.18,8.75s-.69,8.75-6.18,8.75h-5Zm2.79,15.39h2.3c2.31,0,3.26-1.52,3.26-6.64,0-4.92-.83-6.64-3.26-6.64h-2.3Z"/><path d="M1476.29,59.22h2.79v17.5h-2.79Z"/><path d="M1485.16,59.22h3.57l4.61,17.5h-2.92l-1.07-4.29h-5.12l-1.13,4.29h-2.92Zm3.72,11-2-8.62h0l-2.08,8.62Z"/><path d="M1494.56,59.22H1498l5.07,13h0v-13h2.65v17.5h-3.41l-5.07-13.38h0V76.72h-2.65Z"/><path d="M1510.78,71.31v.44c0,2.13,1,3.21,2.87,3.21a2.51,2.51,0,0,0,2.65-2.55c0-1.84-.94-2.65-2.5-3.11l-1.91-.67c-2.55-1-3.66-2.3-3.66-4.8,0-3.18,2.18-4.95,5.44-4.95,4.49,0,4.95,2.8,4.95,4.61v.39h-2.79v-.37c0-1.59-.69-2.52-2.45-2.52a2.23,2.23,0,0,0-2.35,2.52c0,1.5.76,2.26,2.62,3l1.89.68c2.47.89,3.55,2.21,3.55,4.64,0,3.72-2.25,5.26-5.78,5.26-4.34,0-5.32-2.89-5.32-5.34v-.41Z"/><path d="M1559.45,59.22h2.79v7h5.15v-7h2.79v17.5h-2.79V68.59h-5.15v8.13h-2.79Z"/><path d="M1575.64,59.22V71.77c0,2.23.89,3.19,2.58,3.19s2.55-1,2.55-3.19V59.22h2.79V71.55c0,4-2,5.51-5.34,5.51s-5.37-1.47-5.37-5.51V59.22Z"/><path d="M1586.23,59.22h3.4l5.08,13h0v-13h2.64v17.5H1594l-5.08-13.38h-.05V76.72h-2.64Z"/><path d="M1602.45,71.31v.44c0,2.13,1,3.21,2.86,3.21a2.51,2.51,0,0,0,2.65-2.55c0-1.84-.93-2.65-2.5-3.11l-1.91-.67c-2.55-1-3.65-2.3-3.65-4.8,0-3.18,2.18-4.95,5.44-4.95,4.48,0,5,2.8,5,4.61v.39h-2.79v-.37c0-1.59-.69-2.52-2.45-2.52a2.23,2.23,0,0,0-2.36,2.52c0,1.5.76,2.26,2.62,3l1.89.68c2.48.89,3.56,2.21,3.56,4.64,0,3.72-2.26,5.26-5.79,5.26-4.34,0-5.32-2.89-5.32-5.34v-.41Z"/><path d="M1661.87,70.45v.37c0,3.16-1.3,6.24-5.39,6.24-4.41,0-5.78-2.84-5.78-9.09s1.37-9.09,5.81-9.09c5,0,5.26,3.65,5.26,5.49v.32H1659V64.4c0-1.65-.49-3.48-2.5-3.41s-3,1.27-3,6.91.91,7.06,3,7.06c2.35,0,2.6-2.58,2.6-4.22v-.29Z"/><path d="M1663.83,59.22h2.79v7h5.15v-7h2.79v17.5h-2.79V68.59h-5.15v8.13h-2.79Z"/><path d="M1677.33,59.22h2.79v17.5h-2.79Z"/><path d="M1682.89,59.22h3.41l5.07,13h.05v-13h2.64v17.5h-3.4l-5.07-13.38h0V76.72h-2.65Z"/><path d="M1697,59.22h9.46v2.36h-6.66v4.85H1706v2.35h-6.27v5.59h6.86v2.35H1697Z"/><path d="M1710.89,71.31v.44c0,2.13,1,3.21,2.87,3.21a2.51,2.51,0,0,0,2.65-2.55c0-1.84-.93-2.65-2.5-3.11l-1.91-.67c-2.55-1-3.65-2.3-3.65-4.8,0-3.18,2.18-4.95,5.44-4.95,4.48,0,5,2.8,5,4.61v.39h-2.8v-.37c0-1.59-.68-2.52-2.45-2.52a2.23,2.23,0,0,0-2.35,2.52c0,1.5.76,2.26,2.62,3l1.89.68c2.47.89,3.55,2.21,3.55,4.64,0,3.72-2.25,5.26-5.78,5.26-4.34,0-5.32-2.89-5.32-5.34v-.41Z"/><path d="M1721.45,59.22h9.46v2.36h-6.66v4.85h6.27v2.35h-6.27v5.59h6.86v2.35h-9.66Z"/><path d="M344.29,14.37h4.36l3.09,13h.05l3-13h4.26v17.5h-2.65V17.31h0l-3.53,14.56h-2.36L347,17.31h-.05V31.87h-2.65Z"/><path d="M364.09,25.62v.76c0,1.76.22,4,2.2,4s2.11-2.13,2.11-2.94h2.5c0,3-1.77,4.75-4.63,4.75-2.16,0-4.83-.63-4.83-6.74,0-3.45.76-7.13,4.88-7.13,3.67,0,4.65,2.23,4.65,5.88v1.4Zm4.24-1.81V23.1c0-1.67-.54-2.94-2-2.94-1.67,0-2.2,1.66-2.2,3.38v.27Z"/><path d="M379.89,30.25h-.05a2.82,2.82,0,0,1-2.89,2c-3.07,0-4.31-2.59-4.31-7.1,0-5.86,2.05-6.77,4.06-6.77a3,3,0,0,1,3,1.89h.05V14.37h2.65v17.5h-2.5Zm-2.4-9.8c-1.5,0-2.06,1.23-2.06,4.78,0,3,.37,4.88,2.23,4.88s2.23-1.84,2.23-4.69C379.89,22.26,379.55,20.45,377.49,20.45Z"/><path d="M385.06,14.18h2.64v2.64h-2.64Zm0,4.51h2.64V31.87h-2.64Z"/><path d="M389.2,18.69H391V14.94h2.65v3.75h2.15v2h-2.15v7.86c0,1.06.29,1.4,1.2,1.4a5.87,5.87,0,0,0,.95-.07v2a8.93,8.93,0,0,1-2.13.22c-1.76,0-2.67-.52-2.67-3.19V20.65H389.2Z"/><path d="M399.46,25.62v.76c0,1.76.22,4,2.21,4s2.11-2.13,2.11-2.94h2.49c0,3-1.76,4.75-4.63,4.75-2.15,0-4.82-.63-4.82-6.74,0-3.45.76-7.13,4.87-7.13,3.68,0,4.66,2.23,4.66,5.88v1.4Zm4.24-1.81V23.1c0-1.67-.54-2.94-2-2.94-1.67,0-2.21,1.66-2.21,3.38v.27Z"/><path d="M408.53,18.69h2.64v2h.05a3.26,3.26,0,0,1,3.07-2.4,1.5,1.5,0,0,1,.63.1v2.7a3.42,3.42,0,0,0-1.1-.15c-1.2,0-2.65.54-2.65,3v7.89h-2.64Z"/><path d="M416.24,18.69h2.65v2h.05a3.26,3.26,0,0,1,3.06-2.4,1.59,1.59,0,0,1,.64.1v2.7a3.51,3.51,0,0,0-1.1-.15c-1.2,0-2.65.54-2.65,3v7.89h-2.65Z"/><path d="M432.46,29.12c0,.5.3.94.69.94a1,1,0,0,0,.44-.08V31.7a2.83,2.83,0,0,1-1.3.32c-1.17,0-2.15-.47-2.23-1.74H430a3.39,3.39,0,0,1-3.28,1.93c-2.13,0-3.43-1.15-3.43-3.7,0-2.94,1.3-3.55,3.06-4.14l2.06-.56c1-.27,1.55-.54,1.55-1.69s-.42-2-1.82-2c-1.76,0-2,1.25-2,2.52h-2.5c0-2.82,1.15-4.34,4.63-4.34,2.33,0,4.19.91,4.19,3.24ZM430,24.91a21.84,21.84,0,0,1-3,1.23A2.17,2.17,0,0,0,426,28.27c0,1.1.54,2,1.64,2,1.59,0,2.38-1.17,2.38-3.13Z"/><path d="M435.16,18.69h2.5v1.54h.07a3.77,3.77,0,0,1,3.38-1.89c2,0,3.29.91,3.29,3.58v10h-2.65v-9c0-1.77-.47-2.38-1.84-2.38-1.08,0-2.11.81-2.11,2.57v8.85h-2.64Z"/><path d="M449.22,25.62v.76c0,1.76.22,4,2.21,4s2.1-2.13,2.1-2.94H456c0,3-1.76,4.75-4.63,4.75-2.15,0-4.83-.63-4.83-6.74,0-3.45.76-7.13,4.88-7.13,3.68,0,4.66,2.23,4.66,5.88v1.4Zm4.24-1.81V23.1c0-1.67-.54-2.94-2-2.94-1.67,0-2.21,1.66-2.21,3.38v.27Z"/><path d="M466.94,29.12c0,.5.29.94.68.94a1,1,0,0,0,.44-.08V31.7a2.83,2.83,0,0,1-1.3.32c-1.17,0-2.15-.47-2.23-1.74h0a3.39,3.39,0,0,1-3.28,1.93c-2.13,0-3.43-1.15-3.43-3.7,0-2.94,1.3-3.55,3.06-4.14l2.06-.56c1-.27,1.55-.54,1.55-1.69s-.42-2-1.82-2c-1.76,0-2,1.25-2,2.52h-2.5c0-2.82,1.16-4.34,4.64-4.34,2.32,0,4.19.91,4.19,3.24Zm-2.5-4.21a22.26,22.26,0,0,1-2.94,1.23,2.16,2.16,0,0,0-1.08,2.13c0,1.1.54,2,1.64,2,1.59,0,2.38-1.17,2.38-3.13Z"/><path d="M469.63,18.69h2.5v1.54h.07a3.77,3.77,0,0,1,3.38-1.89c2,0,3.29.91,3.29,3.58v10h-2.65v-9c0-1.77-.47-2.38-1.84-2.38-1.08,0-2.11.81-2.11,2.57v8.85h-2.64Z"/><path d="M487.21,14.37h5.54c3.35,0,4.82,2.11,4.82,5.1,0,3.14-1.86,5.17-5.12,5.17H490v7.23h-2.79ZM490,22.53h2c1.49,0,2.79-.78,2.79-3,0-1.89-.76-3-3-3H490Z"/><path d="M501.57,25.62v.76c0,1.76.22,4,2.2,4s2.11-2.13,2.11-2.94h2.5c0,3-1.77,4.75-4.63,4.75-2.16,0-4.83-.63-4.83-6.74,0-3.45.76-7.13,4.88-7.13,3.67,0,4.65,2.23,4.65,5.88v1.4Zm4.24-1.81V23.1c0-1.67-.54-2.94-2-2.94-1.67,0-2.2,1.66-2.2,3.38v.27Z"/><path d="M510.12,25.28c0-4.12,1.07-6.94,4.9-6.94s4.92,2.82,4.92,6.94-1.27,6.93-4.92,6.93S510.12,29.39,510.12,25.28Zm4.9,5c1.93,0,2.28-1.62,2.28-5,0-2.92-.35-5-2.28-5s-2.26,2.06-2.26,5C512.76,28.63,513.13,30.25,515,30.25Z"/><path d="M527.66,32.21a3,3,0,0,1-3-1.88h0v5.85H522V18.69h2.5V20.3h0a3.14,3.14,0,0,1,3-2c3,0,4.24,2.58,4.24,7.11C531.73,31,529.5,32.21,527.66,32.21Zm-1-11.76c-1.81,0-2.23,1.84-2.23,4.68,0,3.16.4,5,2.26,5,1.49,0,2.2-1.13,2.2-4.78C528.93,22.34,528.57,20.45,526.7,20.45Z"/><path d="M533.88,14.37h2.65v17.5h-2.65Z"/><path d="M541.48,25.62v.76c0,1.76.22,4,2.2,4s2.11-2.13,2.11-2.94h2.5c0,3-1.77,4.75-4.63,4.75-2.16,0-4.83-.63-4.83-6.74,0-3.45.76-7.13,4.87-7.13,3.68,0,4.66,2.23,4.66,5.88v1.4Zm4.23-1.81V23.1c0-1.67-.53-2.94-2-2.94-1.67,0-2.2,1.66-2.2,3.38v.27Z"/><path d="M946.86,14.37h3.58l4.61,17.5h-2.92l-1.08-4.29h-5.12l-1.13,4.29h-2.91Zm3.73,11-2-8.63h-.05l-2.08,8.63Z"/><path d="M956.22,14.37h2.65v17.5h-2.65Z"/><path d="M967.22,32.21a3,3,0,0,1-3-1.88h-.05v5.85h-2.64V18.69H964V20.3h.05a3.12,3.12,0,0,1,3-2c3,0,4.24,2.58,4.24,7.11C971.29,31,969.06,32.21,967.22,32.21Zm-1-11.76c-1.82,0-2.23,1.84-2.23,4.68,0,3.16.39,5,2.25,5,1.5,0,2.21-1.13,2.21-4.78C968.5,22.34,968.13,20.45,966.27,20.45Z"/><path d="M973.44,14.18h2.65v2.64h-2.65Zm0,4.51h2.65V31.87h-2.65Z"/><path d="M978.76,18.69h2.5v1.54h.07a3.78,3.78,0,0,1,3.39-1.89c2,0,3.28.91,3.28,3.58v10h-2.65v-9c0-1.77-.46-2.38-1.84-2.38-1.07,0-2.1.81-2.1,2.57v8.85h-2.65Z"/><path d="M992.82,25.62v.76c0,1.76.22,4,2.21,4s2.11-2.13,2.11-2.94h2.5c0,3-1.77,4.75-4.64,4.75-2.15,0-4.82-.63-4.82-6.74,0-3.45.76-7.13,4.87-7.13,3.68,0,4.66,2.23,4.66,5.88v1.4Zm4.24-1.81V23.1c0-1.67-.54-2.94-2-2.94-1.67,0-2.21,1.66-2.21,3.38v.27Z"/><path d="M1007.68,14.37h5.54c3.36,0,4.83,2.11,4.83,5.1,0,3.14-1.86,5.17-5.12,5.17h-2.45v7.23h-2.8Zm2.8,8.16h2c1.5,0,2.8-.78,2.8-3,0-1.89-.76-3-3-3h-1.79Z"/><path d="M1022,25.62v.76c0,1.76.22,4,2.21,4s2.1-2.13,2.1-2.94h2.5c0,3-1.76,4.75-4.63,4.75-2.15,0-4.83-.63-4.83-6.74,0-3.45.76-7.13,4.88-7.13,3.68,0,4.66,2.23,4.66,5.88v1.4Zm4.24-1.81V23.1c0-1.67-.54-2.94-2-2.94-1.67,0-2.21,1.66-2.21,3.38v.27Z"/><path d="M1030.59,25.28c0-4.12,1.08-6.94,4.9-6.94s4.93,2.82,4.93,6.94-1.28,6.93-4.93,6.93S1030.59,29.39,1030.59,25.28Zm4.9,5c1.94,0,2.28-1.62,2.28-5,0-2.92-.34-5-2.28-5s-2.25,2.06-2.25,5C1033.24,28.63,1033.6,30.25,1035.49,30.25Z"/><path d="M1048.14,32.21a3,3,0,0,1-3-1.88h0v5.85h-2.65V18.69h2.5V20.3h0a3.12,3.12,0,0,1,3-2c3,0,4.24,2.58,4.24,7.11C1052.2,31,1050,32.21,1048.14,32.21Zm-1-11.76c-1.81,0-2.23,1.84-2.23,4.68,0,3.16.39,5,2.25,5,1.5,0,2.21-1.13,2.21-4.78C1049.41,22.34,1049,20.45,1047.18,20.45Z"/><path d="M1054.36,14.37H1057v17.5h-2.64Z"/><path d="M1062,25.62v.76c0,1.76.22,4,2.21,4s2.1-2.13,2.1-2.94h2.5c0,3-1.76,4.75-4.63,4.75-2.15,0-4.83-.63-4.83-6.74,0-3.45.76-7.13,4.88-7.13,3.68,0,4.66,2.23,4.66,5.88v1.4Zm4.24-1.81V23.1c0-1.67-.54-2.94-2-2.94-1.67,0-2.21,1.66-2.21,3.38v.27Z"/><path d="M1090.22,26.45v.44c0,2.14,1,3.22,2.87,3.22a2.51,2.51,0,0,0,2.64-2.55c0-1.84-.93-2.65-2.5-3.12l-1.91-.66c-2.55-1-3.65-2.3-3.65-4.8,0-3.19,2.18-5,5.44-5,4.48,0,5,2.79,5,4.61V19h-2.79v-.37c0-1.59-.69-2.52-2.45-2.52a2.23,2.23,0,0,0-2.36,2.52c0,1.5.76,2.26,2.63,3l1.88.68c2.48.88,3.56,2.21,3.56,4.63,0,3.73-2.26,5.27-5.79,5.27-4.34,0-5.32-2.89-5.32-5.34v-.42Z"/><path d="M1102.89,25.62v.76c0,1.76.21,4,2.2,4s2.11-2.13,2.11-2.94h2.5c0,3-1.77,4.75-4.63,4.75-2.16,0-4.83-.63-4.83-6.74,0-3.45.76-7.13,4.87-7.13,3.68,0,4.66,2.23,4.66,5.88v1.4Zm4.23-1.81V23.1c0-1.67-.53-2.94-2-2.94-1.67,0-2.2,1.66-2.2,3.38v.27Z"/><path d="M1112.07,18.69h2.5v1.54h.07a3.71,3.71,0,0,1,3.17-1.89,2.86,2.86,0,0,1,3.06,2,3.61,3.61,0,0,1,3.33-2c1.86,0,3.21,1,3.21,3.51v10h-2.64v-9c0-1.74-.52-2.38-1.6-2.38s-2.1.83-2.1,2.57v8.85h-2.65v-9c0-1.74-.52-2.38-1.62-2.38s-2.08.86-2.08,2.57v8.85h-2.65Z"/><path d="M1130.2,14.18h2.65v2.64h-2.65Zm0,4.51h2.65V31.87h-2.65Z"/><path d="M1134.34,18.69h1.81V14.94h2.65v3.75H1141v2h-2.16v7.86c0,1.06.3,1.4,1.2,1.4a6.11,6.11,0,0,0,1-.07v2a9.05,9.05,0,0,1-2.13.22c-1.77,0-2.68-.52-2.68-3.19V20.65h-1.81Z"/><path d="M1142.45,14.18h2.65v2.64h-2.65Zm0,4.51h2.65V31.87h-2.65Z"/><path d="M1156.66,27.07c-.19,3.16-1.22,5.14-4.51,5.14-3.82,0-4.9-2.82-4.9-6.93s1.08-6.94,4.9-6.94,4.54,3.11,4.54,4.73H1154c0-1.22-.32-2.84-1.89-2.77-1.88,0-2.25,2.06-2.25,5s.37,5,2.25,5c1.47,0,2-1.2,2-3.18Z"/><path d="M1164.44,14.37H1170c3.36,0,4.83,2.11,4.83,5.1,0,3.14-1.87,5.17-5.13,5.17h-2.45v7.23h-2.79Zm2.79,8.16h2c1.49,0,2.79-.78,2.79-3,0-1.89-.76-3-3-3h-1.79Z"/><path d="M1178.8,25.62v.76c0,1.76.22,4,2.2,4s2.11-2.13,2.11-2.94h2.5c0,3-1.76,4.75-4.63,4.75-2.16,0-4.83-.63-4.83-6.74,0-3.45.76-7.13,4.88-7.13,3.67,0,4.65,2.23,4.65,5.88v1.4Zm4.24-1.81V23.1c0-1.67-.54-2.94-2-2.94-1.66,0-2.2,1.66-2.2,3.38v.27Z"/><path d="M1187.35,25.28c0-4.12,1.08-6.94,4.9-6.94s4.92,2.82,4.92,6.94-1.27,6.93-4.92,6.93S1187.35,29.39,1187.35,25.28Zm4.9,5c1.93,0,2.28-1.62,2.28-5,0-2.92-.35-5-2.28-5s-2.26,2.06-2.26,5C1190,28.63,1190.36,30.25,1192.25,30.25Z"/><path d="M1204.89,32.21a3,3,0,0,1-3-1.88h-.05v5.85h-2.64V18.69h2.5V20.3h0a3.12,3.12,0,0,1,3-2c3,0,4.24,2.58,4.24,7.11C1209,31,1206.73,32.21,1204.89,32.21Zm-1-11.76c-1.82,0-2.23,1.84-2.23,4.68,0,3.16.39,5,2.25,5,1.5,0,2.21-1.13,2.21-4.78C1206.17,22.34,1205.8,20.45,1203.94,20.45Z"/><path d="M1211.11,14.37h2.65v17.5h-2.65Z"/><path d="M1218.71,25.62v.76c0,1.76.22,4,2.2,4s2.11-2.13,2.11-2.94h2.5c0,3-1.76,4.75-4.63,4.75-2.16,0-4.83-.63-4.83-6.74,0-3.45.76-7.13,4.88-7.13,3.67,0,4.65,2.23,4.65,5.88v1.4Zm4.24-1.81V23.1c0-1.67-.54-2.94-2-2.94-1.66,0-2.2,1.66-2.2,3.38v.27Z"/><path d="M1264.13,14.37h3.58l4.61,17.5h-2.92l-1.08-4.29h-5.12l-1.13,4.29h-2.91Zm3.73,11-2-8.63h0l-2.08,8.63Z"/><path d="M1273.49,14.37h2.65v17.5h-2.65Z"/><path d="M1284.49,32.21a3,3,0,0,1-3-1.88h0v5.85h-2.64V18.69h2.5V20.3h0a3.12,3.12,0,0,1,3-2c3,0,4.24,2.58,4.24,7.11C1288.56,31,1286.33,32.21,1284.49,32.21Zm-1-11.76c-1.82,0-2.23,1.84-2.23,4.68,0,3.16.39,5,2.25,5,1.5,0,2.21-1.13,2.21-4.78C1285.77,22.34,1285.4,20.45,1283.54,20.45Z"/><path d="M1290.71,14.18h2.65v2.64h-2.65Zm0,4.51h2.65V31.87h-2.65Z"/><path d="M1296,18.69h2.5v1.54h.07a3.77,3.77,0,0,1,3.38-1.89c2,0,3.29.91,3.29,3.58v10h-2.65v-9c0-1.77-.46-2.38-1.84-2.38-1.07,0-2.1.81-2.1,2.57v8.85H1296Z"/><path d="M1310.09,25.62v.76c0,1.76.22,4,2.21,4s2.11-2.13,2.11-2.94h2.5c0,3-1.77,4.75-4.64,4.75-2.15,0-4.82-.63-4.82-6.74,0-3.45.76-7.13,4.87-7.13,3.68,0,4.66,2.23,4.66,5.88v1.4Zm4.24-1.81V23.1c0-1.67-.54-2.94-2-2.94-1.67,0-2.21,1.66-2.21,3.38v.27Z"/><path d="M1333.43,29.12c0,.5.3.94.69.94a1,1,0,0,0,.44-.08V31.7a2.86,2.86,0,0,1-1.3.32c-1.18,0-2.16-.47-2.23-1.74h0a3.39,3.39,0,0,1-3.28,1.93c-2.13,0-3.43-1.15-3.43-3.7,0-2.94,1.3-3.55,3.06-4.14l2.06-.56c.95-.27,1.54-.54,1.54-1.69s-.41-2-1.81-2c-1.77,0-2,1.25-2,2.52h-2.5c0-2.82,1.15-4.34,4.63-4.34,2.33,0,4.19.91,4.19,3.24Zm-2.5-4.21a21.19,21.19,0,0,1-2.94,1.23,2.16,2.16,0,0,0-1.08,2.13c0,1.1.54,2,1.65,2,1.59,0,2.37-1.17,2.37-3.13Z"/><path d="M1336.13,18.69h2.49v1.54h.08a3.77,3.77,0,0,1,3.38-1.89c2,0,3.28.91,3.28,3.58v10h-2.64v-9c0-1.77-.47-2.38-1.84-2.38-1.08,0-2.11.81-2.11,2.57v8.85h-2.64Z"/><path d="M1354.65,30.25h-.05a2.82,2.82,0,0,1-2.89,2c-3.07,0-4.32-2.59-4.32-7.1,0-5.86,2.06-6.77,4.07-6.77a3,3,0,0,1,3,1.89h0V14.37h2.65v17.5h-2.5Zm-2.4-9.8c-1.5,0-2.06,1.23-2.06,4.78,0,3,.37,4.88,2.23,4.88s2.23-1.84,2.23-4.69C1354.65,22.26,1354.31,20.45,1352.25,20.45Z"/><path d="M1365.49,14.37H1371c3.36,0,4.83,2.11,4.83,5.1,0,3.14-1.87,5.17-5.13,5.17h-2.45v7.23h-2.79Zm2.79,8.16h2c1.49,0,2.79-.78,2.79-3,0-1.89-.76-3-3-3h-1.79Z"/><path d="M1377.57,18.69h2.65v2h0a3.26,3.26,0,0,1,3.07-2.4,1.5,1.5,0,0,1,.63.1v2.7a3.42,3.42,0,0,0-1.1-.15c-1.2,0-2.64.54-2.64,3v7.89h-2.65Z"/><path d="M1384.77,25.28c0-4.12,1.08-6.94,4.9-6.94s4.93,2.82,4.93,6.94-1.28,6.93-4.93,6.93S1384.77,29.39,1384.77,25.28Zm4.9,5c1.94,0,2.28-1.62,2.28-5,0-2.92-.34-5-2.28-5s-2.25,2.06-2.25,5C1387.42,28.63,1387.78,30.25,1389.67,30.25Z"/><path d="M1395.45,18.69h1.82V14.94h2.64v3.75h2.16v2h-2.16v7.86c0,1.06.3,1.4,1.2,1.4a6,6,0,0,0,1-.07v2a8.93,8.93,0,0,1-2.13.22c-1.77,0-2.67-.52-2.67-3.19V20.65h-1.82Z"/><path d="M1402.93,25.28c0-4.12,1.07-6.94,4.9-6.94s4.92,2.82,4.92,6.94-1.27,6.93-4.92,6.93S1402.93,29.39,1402.93,25.28Zm4.9,5c1.93,0,2.27-1.62,2.27-5,0-2.92-.34-5-2.27-5s-2.26,2.06-2.26,5C1405.57,28.63,1405.94,30.25,1407.83,30.25Z"/><path d="M1414.61,23.54H1421V26h-6.42Z"/><path d="M1423.58,14.37H1427l5.07,13h0v-13h2.64v17.5h-3.4l-5.08-13.38h0V31.87h-2.65Z"/><path d="M1437,25.28c0-4.12,1.07-6.94,4.9-6.94s4.92,2.82,4.92,6.94-1.27,6.93-4.92,6.93S1437,29.39,1437,25.28Zm4.9,5c1.93,0,2.28-1.62,2.28-5,0-2.92-.35-5-2.28-5s-2.26,2.06-2.26,5C1439.6,28.63,1440,30.25,1441.86,30.25Z"/><path d="M1448.81,18.69h2.65v2h0a3.26,3.26,0,0,1,3.06-2.4,1.59,1.59,0,0,1,.64.1v2.7a3.51,3.51,0,0,0-1.1-.15c-1.2,0-2.65.54-2.65,3v7.89h-2.65Z"/><path d="M1463.12,30.25h0a2.8,2.8,0,0,1-2.89,2c-3.06,0-4.31-2.59-4.31-7.1,0-5.86,2.06-6.77,4.07-6.77a3.05,3.05,0,0,1,3,1.89h0V14.37h2.64v17.5h-2.5Zm-2.4-9.8c-1.49,0-2.06,1.23-2.06,4.78,0,3,.37,4.88,2.23,4.88s2.23-1.84,2.23-4.69C1463.12,22.26,1462.78,20.45,1460.72,20.45Z"/><path d="M1468.29,14.18h2.65v2.64h-2.65Zm0,4.51h2.65V31.87h-2.65Z"/><path d="M1482.5,27.07c-.19,3.16-1.22,5.14-4.51,5.14-3.82,0-4.9-2.82-4.9-6.93s1.08-6.94,4.9-6.94,4.54,3.11,4.54,4.73h-2.65c0-1.22-.32-2.84-1.89-2.77-1.88,0-2.25,2.06-2.25,5s.37,5,2.25,5c1.47,0,2-1.2,2-3.18Z"/><path d="M1490.28,14.37h5.54c3.36,0,4.83,2.11,4.83,5.1,0,3.14-1.87,5.17-5.13,5.17h-2.45v7.23h-2.79Zm2.79,8.16h2c1.49,0,2.79-.78,2.79-3,0-1.89-.76-3-3-3h-1.79Z"/><path d="M1504.64,25.62v.76c0,1.76.22,4,2.2,4s2.11-2.13,2.11-2.94h2.5c0,3-1.76,4.75-4.63,4.75-2.16,0-4.83-.63-4.83-6.74,0-3.45.76-7.13,4.88-7.13,3.67,0,4.65,2.23,4.65,5.88v1.4Zm4.24-1.81V23.1c0-1.67-.54-2.94-2-2.94-1.66,0-2.2,1.66-2.2,3.38v.27Z"/><path d="M1513.19,25.28c0-4.12,1.08-6.94,4.9-6.94s4.92,2.82,4.92,6.94-1.27,6.93-4.92,6.93S1513.19,29.39,1513.19,25.28Zm4.9,5c1.93,0,2.28-1.62,2.28-5,0-2.92-.35-5-2.28-5s-2.26,2.06-2.26,5C1515.83,28.63,1516.2,30.25,1518.09,30.25Z"/><path d="M1530.73,32.21a3,3,0,0,1-3-1.88h0v5.85h-2.64V18.69h2.5V20.3h0a3.12,3.12,0,0,1,3-2c3,0,4.24,2.58,4.24,7.11C1534.8,31,1532.57,32.21,1530.73,32.21Zm-1-11.76c-1.82,0-2.23,1.84-2.23,4.68,0,3.16.39,5,2.25,5,1.5,0,2.21-1.13,2.21-4.78C1532,22.34,1531.64,20.45,1529.78,20.45Z"/><path d="M1537,14.37h2.65v17.5H1537Z"/><path d="M1544.55,25.62v.76c0,1.76.22,4,2.2,4s2.11-2.13,2.11-2.94h2.5c0,3-1.76,4.75-4.63,4.75-2.16,0-4.83-.63-4.83-6.74,0-3.45.76-7.13,4.88-7.13,3.67,0,4.65,2.23,4.65,5.88v1.4Zm4.24-1.81V23.1c0-1.67-.54-2.94-2-2.94-1.66,0-2.2,1.66-2.2,3.38v.27Z"/><path d="M1570.66,14.37H1575l3.09,13h.05l3-13h4.27v17.5h-2.65V17.31h0l-3.53,14.56h-2.35l-3.53-14.56h0V31.87h-2.64Z"/><path d="M1587.66,25.28c0-4.12,1.08-6.94,4.9-6.94s4.93,2.82,4.93,6.94-1.28,6.93-4.93,6.93S1587.66,29.39,1587.66,25.28Zm4.9,5c1.94,0,2.28-1.62,2.28-5,0-2.92-.34-5-2.28-5s-2.25,2.06-2.25,5C1590.31,28.63,1590.67,30.25,1592.56,30.25Z"/><path d="M1599.52,18.69h2.5v1.54h.07a3.77,3.77,0,0,1,3.38-1.89c2,0,3.29.91,3.29,3.58v10h-2.65v-9c0-1.77-.47-2.38-1.84-2.38-1.08,0-2.11.81-2.11,2.57v8.85h-2.64Z"/><path d="M1614,33a1.72,1.72,0,0,0,1.91,1.57,2.19,2.19,0,0,0,2.23-2.48V30h0a3.18,3.18,0,0,1-3,1.81c-3.06,0-3.94-3-3.94-6.64,0-2.89.44-6.79,4.19-6.79a2.93,2.93,0,0,1,2.89,2h0V18.69h2.5V31.23c0,3.21-1.38,5.15-4.93,5.15-3.92,0-4.36-2.3-4.36-3.38Zm1.86-3.34c2.06,0,2.28-2.59,2.28-4.68s-.27-4.53-2.11-4.53-2.23,2-2.23,4.41C1613.75,27.12,1613.85,29.66,1615.81,29.66Z"/><path d="M1622.57,25.28c0-4.12,1.08-6.94,4.9-6.94s4.93,2.82,4.93,6.94-1.28,6.93-4.93,6.93S1622.57,29.39,1622.57,25.28Zm4.9,5c1.94,0,2.28-1.62,2.28-5,0-2.92-.34-5-2.28-5s-2.25,2.06-2.25,5C1625.22,28.63,1625.59,30.25,1627.47,30.25Z"/><path d="M1634.55,14.37h2.65v17.5h-2.65Z"/><path d="M1640,14.18h2.65v2.64H1640Zm0,4.51h2.65V31.87H1640Z"/><path d="M1654,29.12c0,.5.29.94.68.94a1,1,0,0,0,.44-.08V31.7a2.78,2.78,0,0,1-1.29.32c-1.18,0-2.16-.47-2.23-1.74h0a3.41,3.41,0,0,1-3.29,1.93c-2.13,0-3.43-1.15-3.43-3.7,0-2.94,1.3-3.55,3.07-4.14l2.05-.56c1-.27,1.55-.54,1.55-1.69s-.42-2-1.82-2c-1.76,0-2,1.25-2,2.52h-2.5c0-2.82,1.15-4.34,4.63-4.34,2.33,0,4.19.91,4.19,3.24Zm-2.5-4.21a21.71,21.71,0,0,1-2.94,1.23,2.16,2.16,0,0,0-1.08,2.13c0,1.1.54,2,1.64,2,1.59,0,2.38-1.17,2.38-3.13Z"/><path d="M1656.65,18.69h2.5v1.54h.07a3.8,3.8,0,0,1,3.39-1.89c2,0,3.28.91,3.28,3.58v10h-2.65v-9c0-1.77-.46-2.38-1.84-2.38-1.07,0-2.1.81-2.1,2.57v8.85h-2.65Z"/><path d="M1674.23,14.37h5.54c3.36,0,4.83,2.11,4.83,5.1,0,3.14-1.87,5.17-5.12,5.17H1677v7.23h-2.79Zm2.79,8.16h2c1.5,0,2.79-.78,2.79-3,0-1.89-.76-3-3-3H1677Z"/><path d="M1688.59,25.62v.76c0,1.76.22,4,2.2,4s2.11-2.13,2.11-2.94h2.5c0,3-1.76,4.75-4.63,4.75-2.16,0-4.83-.63-4.83-6.74,0-3.45.76-7.13,4.88-7.13,3.67,0,4.66,2.23,4.66,5.88v1.4Zm4.24-1.81V23.1c0-1.67-.54-2.94-2-2.94-1.66,0-2.2,1.66-2.2,3.38v.27Z"/><path d="M1697.14,25.28c0-4.12,1.08-6.94,4.9-6.94s4.93,2.82,4.93,6.94-1.28,6.93-4.93,6.93S1697.14,29.39,1697.14,25.28Zm4.9,5c1.94,0,2.28-1.62,2.28-5,0-2.92-.34-5-2.28-5s-2.25,2.06-2.25,5C1699.79,28.63,1700.15,30.25,1702,30.25Z"/><path d="M1714.68,32.21a3,3,0,0,1-3-1.88h0v5.85H1709V18.69h2.5V20.3h0a3.12,3.12,0,0,1,3-2c3,0,4.24,2.58,4.24,7.11C1718.75,31,1716.52,32.21,1714.68,32.21Zm-1-11.76c-1.82,0-2.23,1.84-2.23,4.68,0,3.16.39,5,2.25,5,1.5,0,2.21-1.13,2.21-4.78C1716,22.34,1715.59,20.45,1713.73,20.45Z"/><path d="M1720.9,14.37h2.65v17.5h-2.65Z"/><path d="M1728.5,25.62v.76c0,1.76.22,4,2.2,4s2.11-2.13,2.11-2.94h2.5c0,3-1.76,4.75-4.63,4.75-2.16,0-4.83-.63-4.83-6.74,0-3.45.76-7.13,4.88-7.13,3.67,0,4.66,2.23,4.66,5.88v1.4Zm4.24-1.81V23.1c0-1.67-.54-2.94-2-2.94-1.66,0-2.2,1.66-2.2,3.38v.27Z"/></g></g></svg>